<?xml version="1.0" encoding="utf-8" standalone="no"?>
<!DOCTYPE svg PUBLIC "-//W3C//DTD SVG 1.1//EN"
  "http://www.w3.org/Graphics/SVG/1.1/DTD/svg11.dtd">
<!-- Created with matplotlib (http://matplotlib.org/) -->
<svg height="669pt" version="1.1" viewBox="0 0 1181 669" width="1181pt" xmlns="http://www.w3.org/2000/svg" xmlns:xlink="http://www.w3.org/1999/xlink">
 <defs>
  <style type="text/css">
*{stroke-linecap:butt;stroke-linejoin:round;}
  </style>
 </defs>
 <g id="figure_1">
  <g id="patch_1">
   <path d="M 0 669.618125 
L 1181.468125 669.618125 
L 1181.468125 -0 
L 0 -0 
z
" style="fill:none;"/>
  </g>
  <g id="axes_1">
   <g id="patch_2">
    <path d="M 53.328125 509.66 
L 1169.328125 509.66 
L 1169.328125 10.7 
L 53.328125 10.7 
z
" style="fill:none;"/>
   </g>
   <g id="matplotlib.axis_1">
    <g id="xtick_1">
     <g id="line2d_1">
      <defs>
       <path d="M 0 0 
L 0 3.5 
" id="m0ad25df0bd" style="stroke:#000000;stroke-width:0.8;"/>
      </defs>
      <g>
       <use style="stroke:#000000;stroke-width:0.8;" x="104.055398" xlink:href="#m0ad25df0bd" y="509.66"/>
      </g>
     </g>
     <g id="text_1">
      <!-- 0 -->
      <defs>
       <path d="M 31.78125 66.40625 
Q 24.171875 66.40625 20.328125 58.90625 
Q 16.5 51.421875 16.5 36.375 
Q 16.5 21.390625 20.328125 13.890625 
Q 24.171875 6.390625 31.78125 6.390625 
Q 39.453125 6.390625 43.28125 13.890625 
Q 47.125 21.390625 47.125 36.375 
Q 47.125 51.421875 43.28125 58.90625 
Q 39.453125 66.40625 31.78125 66.40625 
z
M 31.78125 74.21875 
Q 44.046875 74.21875 50.515625 64.515625 
Q 56.984375 54.828125 56.984375 36.375 
Q 56.984375 17.96875 50.515625 8.265625 
Q 44.046875 -1.421875 31.78125 -1.421875 
Q 19.53125 -1.421875 13.0625 8.265625 
Q 6.59375 17.96875 6.59375 36.375 
Q 6.59375 54.828125 13.0625 64.515625 
Q 19.53125 74.21875 31.78125 74.21875 
z
" id="DejaVuSans-30"/>
      </defs>
      <g transform="translate(100.874148 524.258437)scale(0.1 -0.1)">
       <use xlink:href="#DejaVuSans-30"/>
      </g>
     </g>
    </g>
    <g id="xtick_2">
     <g id="line2d_2">
      <g>
       <use style="stroke:#000000;stroke-width:0.8;" x="346.769621" xlink:href="#m0ad25df0bd" y="509.66"/>
      </g>
     </g>
     <g id="text_2">
      <!-- 50 -->
      <defs>
       <path d="M 10.796875 72.90625 
L 49.515625 72.90625 
L 49.515625 64.59375 
L 19.828125 64.59375 
L 19.828125 46.734375 
Q 21.96875 47.46875 24.109375 47.828125 
Q 26.265625 48.1875 28.421875 48.1875 
Q 40.625 48.1875 47.75 41.5 
Q 54.890625 34.8125 54.890625 23.390625 
Q 54.890625 11.625 47.5625 5.09375 
Q 40.234375 -1.421875 26.90625 -1.421875 
Q 22.3125 -1.421875 17.546875 -0.640625 
Q 12.796875 0.140625 7.71875 1.703125 
L 7.71875 11.625 
Q 12.109375 9.234375 16.796875 8.0625 
Q 21.484375 6.890625 26.703125 6.890625 
Q 35.15625 6.890625 40.078125 11.328125 
Q 45.015625 15.765625 45.015625 23.390625 
Q 45.015625 31 40.078125 35.4375 
Q 35.15625 39.890625 26.703125 39.890625 
Q 22.75 39.890625 18.8125 39.015625 
Q 14.890625 38.140625 10.796875 36.28125 
z
" id="DejaVuSans-35"/>
      </defs>
      <g transform="translate(340.407121 524.258437)scale(0.1 -0.1)">
       <use xlink:href="#DejaVuSans-35"/>
       <use x="63.623047" xlink:href="#DejaVuSans-30"/>
      </g>
     </g>
    </g>
    <g id="xtick_3">
     <g id="line2d_3">
      <g>
       <use style="stroke:#000000;stroke-width:0.8;" x="589.483845" xlink:href="#m0ad25df0bd" y="509.66"/>
      </g>
     </g>
     <g id="text_3">
      <!-- 100 -->
      <defs>
       <path d="M 12.40625 8.296875 
L 28.515625 8.296875 
L 28.515625 63.921875 
L 10.984375 60.40625 
L 10.984375 69.390625 
L 28.421875 72.90625 
L 38.28125 72.90625 
L 38.28125 8.296875 
L 54.390625 8.296875 
L 54.390625 0 
L 12.40625 0 
z
" id="DejaVuSans-31"/>
      </defs>
      <g transform="translate(579.940095 524.258437)scale(0.1 -0.1)">
       <use xlink:href="#DejaVuSans-31"/>
       <use x="63.623047" xlink:href="#DejaVuSans-30"/>
       <use x="127.246094" xlink:href="#DejaVuSans-30"/>
      </g>
     </g>
    </g>
    <g id="xtick_4">
     <g id="line2d_4">
      <g>
       <use style="stroke:#000000;stroke-width:0.8;" x="832.198068" xlink:href="#m0ad25df0bd" y="509.66"/>
      </g>
     </g>
     <g id="text_4">
      <!-- 150 -->
      <g transform="translate(822.654318 524.258437)scale(0.1 -0.1)">
       <use xlink:href="#DejaVuSans-31"/>
       <use x="63.623047" xlink:href="#DejaVuSans-35"/>
       <use x="127.246094" xlink:href="#DejaVuSans-30"/>
      </g>
     </g>
    </g>
    <g id="xtick_5">
     <g id="line2d_5">
      <g>
       <use style="stroke:#000000;stroke-width:0.8;" x="1074.912292" xlink:href="#m0ad25df0bd" y="509.66"/>
      </g>
     </g>
     <g id="text_5">
      <!-- 200 -->
      <defs>
       <path d="M 19.1875 8.296875 
L 53.609375 8.296875 
L 53.609375 0 
L 7.328125 0 
L 7.328125 8.296875 
Q 12.9375 14.109375 22.625 23.890625 
Q 32.328125 33.6875 34.8125 36.53125 
Q 39.546875 41.84375 41.421875 45.53125 
Q 43.3125 49.21875 43.3125 52.78125 
Q 43.3125 58.59375 39.234375 62.25 
Q 35.15625 65.921875 28.609375 65.921875 
Q 23.96875 65.921875 18.8125 64.3125 
Q 13.671875 62.703125 7.8125 59.421875 
L 7.8125 69.390625 
Q 13.765625 71.78125 18.9375 73 
Q 24.125 74.21875 28.421875 74.21875 
Q 39.75 74.21875 46.484375 68.546875 
Q 53.21875 62.890625 53.21875 53.421875 
Q 53.21875 48.921875 51.53125 44.890625 
Q 49.859375 40.875 45.40625 35.40625 
Q 44.1875 33.984375 37.640625 27.21875 
Q 31.109375 20.453125 19.1875 8.296875 
z
" id="DejaVuSans-32"/>
      </defs>
      <g transform="translate(1065.368542 524.258437)scale(0.1 -0.1)">
       <use xlink:href="#DejaVuSans-32"/>
       <use x="63.623047" xlink:href="#DejaVuSans-30"/>
       <use x="127.246094" xlink:href="#DejaVuSans-30"/>
      </g>
     </g>
    </g>
    <g id="text_6">
     <!-- Time -->
     <defs>
      <path d="M -0.296875 72.90625 
L 61.375 72.90625 
L 61.375 64.59375 
L 35.5 64.59375 
L 35.5 0 
L 25.59375 0 
L 25.59375 64.59375 
L -0.296875 64.59375 
z
" id="DejaVuSans-54"/>
      <path d="M 9.421875 54.6875 
L 18.40625 54.6875 
L 18.40625 0 
L 9.421875 0 
z
M 9.421875 75.984375 
L 18.40625 75.984375 
L 18.40625 64.59375 
L 9.421875 64.59375 
z
" id="DejaVuSans-69"/>
      <path d="M 52 44.1875 
Q 55.375 50.25 60.0625 53.125 
Q 64.75 56 71.09375 56 
Q 79.640625 56 84.28125 50.015625 
Q 88.921875 44.046875 88.921875 33.015625 
L 88.921875 0 
L 79.890625 0 
L 79.890625 32.71875 
Q 79.890625 40.578125 77.09375 44.375 
Q 74.3125 48.1875 68.609375 48.1875 
Q 61.625 48.1875 57.5625 43.546875 
Q 53.515625 38.921875 53.515625 30.90625 
L 53.515625 0 
L 44.484375 0 
L 44.484375 32.71875 
Q 44.484375 40.625 41.703125 44.40625 
Q 38.921875 48.1875 33.109375 48.1875 
Q 26.21875 48.1875 22.15625 43.53125 
Q 18.109375 38.875 18.109375 30.90625 
L 18.109375 0 
L 9.078125 0 
L 9.078125 54.6875 
L 18.109375 54.6875 
L 18.109375 46.1875 
Q 21.1875 51.21875 25.484375 53.609375 
Q 29.78125 56 35.6875 56 
Q 41.65625 56 45.828125 52.96875 
Q 50 49.953125 52 44.1875 
z
" id="DejaVuSans-6d"/>
      <path d="M 56.203125 29.59375 
L 56.203125 25.203125 
L 14.890625 25.203125 
Q 15.484375 15.921875 20.484375 11.0625 
Q 25.484375 6.203125 34.421875 6.203125 
Q 39.59375 6.203125 44.453125 7.46875 
Q 49.3125 8.734375 54.109375 11.28125 
L 54.109375 2.78125 
Q 49.265625 0.734375 44.1875 -0.34375 
Q 39.109375 -1.421875 33.890625 -1.421875 
Q 20.796875 -1.421875 13.15625 6.1875 
Q 5.515625 13.8125 5.515625 26.8125 
Q 5.515625 40.234375 12.765625 48.109375 
Q 20.015625 56 32.328125 56 
Q 43.359375 56 49.78125 48.890625 
Q 56.203125 41.796875 56.203125 29.59375 
z
M 47.21875 32.234375 
Q 47.125 39.59375 43.09375 43.984375 
Q 39.0625 48.390625 32.421875 48.390625 
Q 24.90625 48.390625 20.390625 44.140625 
Q 15.875 39.890625 15.1875 32.171875 
z
" id="DejaVuSans-65"/>
     </defs>
     <g transform="translate(598.940625 537.936562)scale(0.1 -0.1)">
      <use xlink:href="#DejaVuSans-54"/>
      <use x="61.037109" xlink:href="#DejaVuSans-69"/>
      <use x="88.820312" xlink:href="#DejaVuSans-6d"/>
      <use x="186.232422" xlink:href="#DejaVuSans-65"/>
     </g>
    </g>
   </g>
   <g id="matplotlib.axis_2">
    <g id="ytick_1">
     <g id="line2d_6">
      <defs>
       <path d="M 0 0 
L -3.5 0 
" id="m870cec0a88" style="stroke:#000000;stroke-width:0.8;"/>
      </defs>
      <g>
       <use style="stroke:#000000;stroke-width:0.8;" x="53.328125" xlink:href="#m870cec0a88" y="475.74395"/>
      </g>
     </g>
     <g id="text_7">
      <!-- 200 -->
      <g transform="translate(27.240625 479.543168)scale(0.1 -0.1)">
       <use xlink:href="#DejaVuSans-32"/>
       <use x="63.623047" xlink:href="#DejaVuSans-30"/>
       <use x="127.246094" xlink:href="#DejaVuSans-30"/>
      </g>
     </g>
    </g>
    <g id="ytick_2">
     <g id="line2d_7">
      <g>
       <use style="stroke:#000000;stroke-width:0.8;" x="53.328125" xlink:href="#m870cec0a88" y="391.080993"/>
      </g>
     </g>
     <g id="text_8">
      <!-- 400 -->
      <defs>
       <path d="M 37.796875 64.3125 
L 12.890625 25.390625 
L 37.796875 25.390625 
z
M 35.203125 72.90625 
L 47.609375 72.90625 
L 47.609375 25.390625 
L 58.015625 25.390625 
L 58.015625 17.1875 
L 47.609375 17.1875 
L 47.609375 0 
L 37.796875 0 
L 37.796875 17.1875 
L 4.890625 17.1875 
L 4.890625 26.703125 
z
" id="DejaVuSans-34"/>
      </defs>
      <g transform="translate(27.240625 394.880211)scale(0.1 -0.1)">
       <use xlink:href="#DejaVuSans-34"/>
       <use x="63.623047" xlink:href="#DejaVuSans-30"/>
       <use x="127.246094" xlink:href="#DejaVuSans-30"/>
      </g>
     </g>
    </g>
    <g id="ytick_3">
     <g id="line2d_8">
      <g>
       <use style="stroke:#000000;stroke-width:0.8;" x="53.328125" xlink:href="#m870cec0a88" y="306.418036"/>
      </g>
     </g>
     <g id="text_9">
      <!-- 600 -->
      <defs>
       <path d="M 33.015625 40.375 
Q 26.375 40.375 22.484375 35.828125 
Q 18.609375 31.296875 18.609375 23.390625 
Q 18.609375 15.53125 22.484375 10.953125 
Q 26.375 6.390625 33.015625 6.390625 
Q 39.65625 6.390625 43.53125 10.953125 
Q 47.40625 15.53125 47.40625 23.390625 
Q 47.40625 31.296875 43.53125 35.828125 
Q 39.65625 40.375 33.015625 40.375 
z
M 52.59375 71.296875 
L 52.59375 62.3125 
Q 48.875 64.0625 45.09375 64.984375 
Q 41.3125 65.921875 37.59375 65.921875 
Q 27.828125 65.921875 22.671875 59.328125 
Q 17.53125 52.734375 16.796875 39.40625 
Q 19.671875 43.65625 24.015625 45.921875 
Q 28.375 48.1875 33.59375 48.1875 
Q 44.578125 48.1875 50.953125 41.515625 
Q 57.328125 34.859375 57.328125 23.390625 
Q 57.328125 12.15625 50.6875 5.359375 
Q 44.046875 -1.421875 33.015625 -1.421875 
Q 20.359375 -1.421875 13.671875 8.265625 
Q 6.984375 17.96875 6.984375 36.375 
Q 6.984375 53.65625 15.1875 63.9375 
Q 23.390625 74.21875 37.203125 74.21875 
Q 40.921875 74.21875 44.703125 73.484375 
Q 48.484375 72.75 52.59375 71.296875 
z
" id="DejaVuSans-36"/>
      </defs>
      <g transform="translate(27.240625 310.217255)scale(0.1 -0.1)">
       <use xlink:href="#DejaVuSans-36"/>
       <use x="63.623047" xlink:href="#DejaVuSans-30"/>
       <use x="127.246094" xlink:href="#DejaVuSans-30"/>
      </g>
     </g>
    </g>
    <g id="ytick_4">
     <g id="line2d_9">
      <g>
       <use style="stroke:#000000;stroke-width:0.8;" x="53.328125" xlink:href="#m870cec0a88" y="221.755079"/>
      </g>
     </g>
     <g id="text_10">
      <!-- 800 -->
      <defs>
       <path d="M 31.78125 34.625 
Q 24.75 34.625 20.71875 30.859375 
Q 16.703125 27.09375 16.703125 20.515625 
Q 16.703125 13.921875 20.71875 10.15625 
Q 24.75 6.390625 31.78125 6.390625 
Q 38.8125 6.390625 42.859375 10.171875 
Q 46.921875 13.96875 46.921875 20.515625 
Q 46.921875 27.09375 42.890625 30.859375 
Q 38.875 34.625 31.78125 34.625 
z
M 21.921875 38.8125 
Q 15.578125 40.375 12.03125 44.71875 
Q 8.5 49.078125 8.5 55.328125 
Q 8.5 64.0625 14.71875 69.140625 
Q 20.953125 74.21875 31.78125 74.21875 
Q 42.671875 74.21875 48.875 69.140625 
Q 55.078125 64.0625 55.078125 55.328125 
Q 55.078125 49.078125 51.53125 44.71875 
Q 48 40.375 41.703125 38.8125 
Q 48.828125 37.15625 52.796875 32.3125 
Q 56.78125 27.484375 56.78125 20.515625 
Q 56.78125 9.90625 50.3125 4.234375 
Q 43.84375 -1.421875 31.78125 -1.421875 
Q 19.734375 -1.421875 13.25 4.234375 
Q 6.78125 9.90625 6.78125 20.515625 
Q 6.78125 27.484375 10.78125 32.3125 
Q 14.796875 37.15625 21.921875 38.8125 
z
M 18.3125 54.390625 
Q 18.3125 48.734375 21.84375 45.5625 
Q 25.390625 42.390625 31.78125 42.390625 
Q 38.140625 42.390625 41.71875 45.5625 
Q 45.3125 48.734375 45.3125 54.390625 
Q 45.3125 60.0625 41.71875 63.234375 
Q 38.140625 66.40625 31.78125 66.40625 
Q 25.390625 66.40625 21.84375 63.234375 
Q 18.3125 60.0625 18.3125 54.390625 
z
" id="DejaVuSans-38"/>
      </defs>
      <g transform="translate(27.240625 225.554298)scale(0.1 -0.1)">
       <use xlink:href="#DejaVuSans-38"/>
       <use x="63.623047" xlink:href="#DejaVuSans-30"/>
       <use x="127.246094" xlink:href="#DejaVuSans-30"/>
      </g>
     </g>
    </g>
    <g id="ytick_5">
     <g id="line2d_10">
      <g>
       <use style="stroke:#000000;stroke-width:0.8;" x="53.328125" xlink:href="#m870cec0a88" y="137.092122"/>
      </g>
     </g>
     <g id="text_11">
      <!-- 1000 -->
      <g transform="translate(20.878125 140.891341)scale(0.1 -0.1)">
       <use xlink:href="#DejaVuSans-31"/>
       <use x="63.623047" xlink:href="#DejaVuSans-30"/>
       <use x="127.246094" xlink:href="#DejaVuSans-30"/>
       <use x="190.869141" xlink:href="#DejaVuSans-30"/>
      </g>
     </g>
    </g>
    <g id="ytick_6">
     <g id="line2d_11">
      <g>
       <use style="stroke:#000000;stroke-width:0.8;" x="53.328125" xlink:href="#m870cec0a88" y="52.429165"/>
      </g>
     </g>
     <g id="text_12">
      <!-- 1200 -->
      <g transform="translate(20.878125 56.228384)scale(0.1 -0.1)">
       <use xlink:href="#DejaVuSans-31"/>
       <use x="63.623047" xlink:href="#DejaVuSans-32"/>
       <use x="127.246094" xlink:href="#DejaVuSans-30"/>
       <use x="190.869141" xlink:href="#DejaVuSans-30"/>
      </g>
     </g>
    </g>
    <g id="text_13">
     <!-- Refugees -->
     <defs>
      <path d="M 44.390625 34.1875 
Q 47.5625 33.109375 50.5625 29.59375 
Q 53.5625 26.078125 56.59375 19.921875 
L 66.609375 0 
L 56 0 
L 46.6875 18.703125 
Q 43.0625 26.03125 39.671875 28.421875 
Q 36.28125 30.8125 30.421875 30.8125 
L 19.671875 30.8125 
L 19.671875 0 
L 9.8125 0 
L 9.8125 72.90625 
L 32.078125 72.90625 
Q 44.578125 72.90625 50.734375 67.671875 
Q 56.890625 62.453125 56.890625 51.90625 
Q 56.890625 45.015625 53.6875 40.46875 
Q 50.484375 35.9375 44.390625 34.1875 
z
M 19.671875 64.796875 
L 19.671875 38.921875 
L 32.078125 38.921875 
Q 39.203125 38.921875 42.84375 42.21875 
Q 46.484375 45.515625 46.484375 51.90625 
Q 46.484375 58.296875 42.84375 61.546875 
Q 39.203125 64.796875 32.078125 64.796875 
z
" id="DejaVuSans-52"/>
      <path d="M 37.109375 75.984375 
L 37.109375 68.5 
L 28.515625 68.5 
Q 23.6875 68.5 21.796875 66.546875 
Q 19.921875 64.59375 19.921875 59.515625 
L 19.921875 54.6875 
L 34.71875 54.6875 
L 34.71875 47.703125 
L 19.921875 47.703125 
L 19.921875 0 
L 10.890625 0 
L 10.890625 47.703125 
L 2.296875 47.703125 
L 2.296875 54.6875 
L 10.890625 54.6875 
L 10.890625 58.5 
Q 10.890625 67.625 15.140625 71.796875 
Q 19.390625 75.984375 28.609375 75.984375 
z
" id="DejaVuSans-66"/>
      <path d="M 8.5 21.578125 
L 8.5 54.6875 
L 17.484375 54.6875 
L 17.484375 21.921875 
Q 17.484375 14.15625 20.5 10.265625 
Q 23.53125 6.390625 29.59375 6.390625 
Q 36.859375 6.390625 41.078125 11.03125 
Q 45.3125 15.671875 45.3125 23.6875 
L 45.3125 54.6875 
L 54.296875 54.6875 
L 54.296875 0 
L 45.3125 0 
L 45.3125 8.40625 
Q 42.046875 3.421875 37.71875 1 
Q 33.40625 -1.421875 27.6875 -1.421875 
Q 18.265625 -1.421875 13.375 4.4375 
Q 8.5 10.296875 8.5 21.578125 
z
M 31.109375 56 
z
" id="DejaVuSans-75"/>
      <path d="M 45.40625 27.984375 
Q 45.40625 37.75 41.375 43.109375 
Q 37.359375 48.484375 30.078125 48.484375 
Q 22.859375 48.484375 18.828125 43.109375 
Q 14.796875 37.75 14.796875 27.984375 
Q 14.796875 18.265625 18.828125 12.890625 
Q 22.859375 7.515625 30.078125 7.515625 
Q 37.359375 7.515625 41.375 12.890625 
Q 45.40625 18.265625 45.40625 27.984375 
z
M 54.390625 6.78125 
Q 54.390625 -7.171875 48.1875 -13.984375 
Q 42 -20.796875 29.203125 -20.796875 
Q 24.46875 -20.796875 20.265625 -20.09375 
Q 16.0625 -19.390625 12.109375 -17.921875 
L 12.109375 -9.1875 
Q 16.0625 -11.328125 19.921875 -12.34375 
Q 23.78125 -13.375 27.78125 -13.375 
Q 36.625 -13.375 41.015625 -8.765625 
Q 45.40625 -4.15625 45.40625 5.171875 
L 45.40625 9.625 
Q 42.625 4.78125 38.28125 2.390625 
Q 33.9375 0 27.875 0 
Q 17.828125 0 11.671875 7.65625 
Q 5.515625 15.328125 5.515625 27.984375 
Q 5.515625 40.671875 11.671875 48.328125 
Q 17.828125 56 27.875 56 
Q 33.9375 56 38.28125 53.609375 
Q 42.625 51.21875 45.40625 46.390625 
L 45.40625 54.6875 
L 54.390625 54.6875 
z
" id="DejaVuSans-67"/>
      <path d="M 44.28125 53.078125 
L 44.28125 44.578125 
Q 40.484375 46.53125 36.375 47.5 
Q 32.28125 48.484375 27.875 48.484375 
Q 21.1875 48.484375 17.84375 46.4375 
Q 14.5 44.390625 14.5 40.28125 
Q 14.5 37.15625 16.890625 35.375 
Q 19.28125 33.59375 26.515625 31.984375 
L 29.59375 31.296875 
Q 39.15625 29.25 43.1875 25.515625 
Q 47.21875 21.78125 47.21875 15.09375 
Q 47.21875 7.46875 41.1875 3.015625 
Q 35.15625 -1.421875 24.609375 -1.421875 
Q 20.21875 -1.421875 15.453125 -0.5625 
Q 10.6875 0.296875 5.421875 2 
L 5.421875 11.28125 
Q 10.40625 8.6875 15.234375 7.390625 
Q 20.0625 6.109375 24.8125 6.109375 
Q 31.15625 6.109375 34.5625 8.28125 
Q 37.984375 10.453125 37.984375 14.40625 
Q 37.984375 18.0625 35.515625 20.015625 
Q 33.0625 21.96875 24.703125 23.78125 
L 21.578125 24.515625 
Q 13.234375 26.265625 9.515625 29.90625 
Q 5.8125 33.546875 5.8125 39.890625 
Q 5.8125 47.609375 11.28125 51.796875 
Q 16.75 56 26.8125 56 
Q 31.78125 56 36.171875 55.265625 
Q 40.578125 54.546875 44.28125 53.078125 
z
" id="DejaVuSans-73"/>
     </defs>
     <g style="fill:#ff7f0e;" transform="translate(14.798437 283.588594)rotate(-90)scale(0.1 -0.1)">
      <use xlink:href="#DejaVuSans-52"/>
      <use x="69.419922" xlink:href="#DejaVuSans-65"/>
      <use x="130.943359" xlink:href="#DejaVuSans-66"/>
      <use x="166.148438" xlink:href="#DejaVuSans-75"/>
      <use x="229.527344" xlink:href="#DejaVuSans-67"/>
      <use x="293.003906" xlink:href="#DejaVuSans-65"/>
      <use x="354.527344" xlink:href="#DejaVuSans-65"/>
      <use x="416.050781" xlink:href="#DejaVuSans-73"/>
     </g>
    </g>
   </g>
   <g id="line2d_12">
    <path clip-path="url(#p5a20cbc9c1)" d="M 104.055398 229.284935 
L 108.909682 220.109644 
L 113.763967 242.143355 
L 118.618251 268.178609 
L 123.472536 278.096096 
L 128.32682 286.830374 
L 133.181105 289.454078 
L 138.035389 293.226112 
L 142.889673 297.325139 
L 147.743958 292.956372 
L 152.598242 284.008241 
L 157.452527 272.72423 
L 162.306811 280.251012 
L 167.161096 269.78025 
L 172.01538 289.439351 
L 176.869665 307.583237 
L 181.723949 294.225645 
L 186.578234 295.083669 
L 191.432518 233.790716 
L 196.286803 226.47492 
L 201.141087 216.872154 
L 205.995372 197.452356 
L 210.849656 185.78606 
L 215.703941 175.607567 
L 220.558225 99.023711 
L 225.41251 61.583968 
L 230.266794 88.198644 
L 235.121078 132.533065 
L 239.975363 179.117199 
L 244.829647 217.414604 
L 249.683932 185.512807 
L 254.538216 188.773369 
L 259.392501 195.094593 
L 264.246785 189.150229 
L 269.10107 174.945956 
L 273.955354 162.073249 
L 278.809639 204.281898 
L 283.663923 181.643032 
L 288.518208 203.270273 
L 293.372492 231.745608 
L 298.226777 235.298672 
L 303.081061 247.905463 
L 307.935346 249.242584 
L 312.78963 252.301256 
L 317.643914 268.461551 
L 322.498199 284.080869 
L 327.352483 300.476798 
L 332.206768 301.676802 
L 337.061052 276.750863 
L 341.915337 245.652263 
L 346.769621 234.335672 
L 351.623906 228.792377 
L 356.47819 232.529195 
L 361.332475 235.795855 
L 366.186759 196.029482 
L 371.041044 181.657191 
L 375.895328 185.020714 
L 380.749613 195.275892 
L 385.603897 215.025035 
L 390.458182 216.985062 
L 395.312466 237.893283 
L 400.16675 245.544212 
L 405.021035 279.878597 
L 409.875319 306.446431 
L 414.729604 290.792362 
L 419.583888 286.761208 
L 424.438173 335.926621 
L 429.292457 354.424371 
L 434.146742 381.632836 
L 439.001026 401.565229 
L 443.855311 405.741264 
L 448.709595 399.637834 
L 453.56388 380.459923 
L 458.418164 390.381467 
L 463.272449 413.574887 
L 468.126733 427.463638 
L 472.981018 406.015887 
L 477.835302 396.150254 
L 482.689587 427.182013 
L 487.543871 435.630236 
L 492.398155 444.917208 
L 497.25244 448.985567 
L 502.106724 448.951617 
L 506.961009 443.121621 
L 511.815293 474.329795 
L 516.669578 475.938535 
L 521.523862 479.233112 
L 526.378147 481.521916 
L 531.232431 480.75708 
L 536.086716 474.586926 
L 540.941 448.30414 
L 545.795285 451.523841 
L 550.649569 457.160265 
L 555.503854 460.778884 
L 560.358138 460.638576 
L 565.212423 455.125311 
L 570.066707 479.52522 
L 574.920991 481.992222 
L 579.775276 485.218118 
L 584.62956 486.98 
L 589.483845 486.070871 
L 594.338129 479.610204 
L 599.192414 471.682218 
L 604.046698 467.874904 
L 608.900983 464.579074 
L 613.755267 460.618003 
L 618.609552 453.141307 
L 623.463836 444.361181 
L 628.318121 431.596357 
L 633.172405 431.206398 
L 638.02669 432.013522 
L 647.735259 429.195304 
L 652.589543 422.781247 
L 657.443827 418.092411 
L 662.298112 428.763152 
L 667.152396 445.240314 
L 672.006681 458.354662 
L 676.860965 466.248802 
L 681.71525 465.349206 
L 686.569534 415.251791 
L 691.423819 406.912446 
L 696.278103 410.241787 
L 701.132388 416.35603 
L 705.986672 419.379227 
L 710.840957 419.749692 
L 715.695241 425.640276 
L 720.549526 429.367805 
L 725.40381 434.841249 
L 730.258095 437.05829 
L 735.112379 433.997565 
L 739.966663 426.246956 
L 744.820948 416.364349 
L 749.675232 410.113532 
L 754.529517 419.904353 
L 759.383801 429.284648 
L 764.238086 418.85113 
L 769.09237 415.967892 
L 773.946655 409.407146 
L 778.800939 410.335434 
L 783.655224 416.363251 
L 788.509508 420.732418 
L 793.363793 421.177591 
L 798.218077 416.754967 
L 803.072362 359.402506 
L 807.926646 352.93073 
L 812.780931 365.425828 
L 817.635215 375.367834 
L 822.4895 362.119521 
L 827.343784 359.34755 
L 832.198068 337.058802 
L 837.052353 325.159662 
L 841.906637 326.821814 
L 846.760922 327.637284 
L 851.615206 325.290217 
L 856.469491 326.319618 
L 861.323775 279.542094 
L 866.17806 268.479482 
L 875.886629 302.496044 
L 880.740913 296.630432 
L 885.595198 299.695252 
L 890.449482 274.220999 
L 895.303767 252.182715 
L 900.158051 220.913048 
L 905.012336 182.201475 
L 909.86662 157.821344 
L 914.720904 139.892862 
L 919.575189 243.976702 
L 924.429473 241.299851 
L 934.138042 309.34083 
L 938.992327 303.061334 
L 943.846611 306.262626 
L 948.700896 336.17073 
L 953.55518 333.071184 
L 958.409465 334.651432 
L 963.263749 332.652546 
L 968.118034 331.378416 
L 972.972318 326.876278 
L 977.826603 301.872104 
L 982.680887 295.683244 
L 992.389456 325.706582 
L 997.24374 326.406508 
L 1002.098025 329.386041 
L 1006.952309 271.244851 
L 1011.806594 284.345622 
L 1016.660878 287.200387 
L 1021.515163 272.471595 
L 1031.223732 238.010868 
L 1036.078016 234.653881 
L 1040.932301 227.819508 
L 1045.786585 256.57564 
L 1050.64087 286.152176 
L 1055.495154 283.774932 
L 1060.349439 289.246529 
L 1065.203723 253.335979 
L 1070.058008 244.951174 
L 1074.912292 242.518741 
L 1079.766577 234.907317 
L 1084.620861 232.086347 
L 1089.475145 227.863121 
L 1094.32943 244.522149 
L 1099.183714 243.246391 
L 1108.892283 297.802195 
L 1113.746568 303.781646 
L 1118.600852 309.425834 
L 1118.600852 309.425834 
" style="fill:none;stroke:#008000;stroke-dasharray:5.55,2.4;stroke-dashoffset:0;stroke-width:1.5;"/>
   </g>
   <g id="line2d_13">
    <path clip-path="url(#p5a20cbc9c1)" d="M 104.055398 276.786001 
L 108.909682 250.540484 
L 113.763967 242.497503 
L 118.618251 267.473076 
L 123.472536 294.141907 
L 128.32682 284.828982 
L 133.181105 279.749204 
L 138.035389 267.473076 
L 142.889673 272.976168 
L 147.743958 302.184888 
L 152.598242 294.141907 
L 157.452527 295.411851 
L 162.306811 259.00678 
L 167.161096 257.313521 
L 172.01538 264.086557 
L 176.869665 203.975858 
L 181.723949 256.043577 
L 186.578234 310.651184 
L 191.432518 235.301152 
L 196.286803 249.27054 
L 201.141087 211.172209 
L 205.995372 216.251987 
L 210.849656 165.454213 
L 215.703941 162.914324 
L 225.41251 33.38 
L 230.266794 173.920508 
L 235.121078 88.834237 
L 239.975363 164.607583 
L 244.829647 263.663243 
L 249.683932 109.153346 
L 254.538216 188.313211 
L 259.392501 188.736526 
L 264.246785 148.098307 
L 269.10107 200.166025 
L 273.955354 227.258171 
L 278.809639 208.632321 
L 283.663923 243.344133 
L 288.518208 226.411542 
L 293.372492 170.53399 
L 298.226777 261.546669 
L 303.081061 300.914944 
L 307.935346 194.239618 
L 312.78963 288.2155 
L 317.643914 315.730961 
L 322.498199 278.902575 
L 327.352483 312.767758 
L 332.206768 310.651184 
L 337.061052 291.602018 
L 341.915337 276.362686 
L 346.769621 197.626136 
L 351.623906 199.319395 
L 356.47819 335.203441 
L 361.332475 277.209316 
L 366.186759 253.503688 
L 371.041044 192.546359 
L 375.895328 85.871033 
L 380.749613 192.546359 
L 385.603897 253.080373 
L 390.458182 256.466891 
L 395.312466 314.037702 
L 400.16675 300.491629 
L 405.021035 248.000596 
L 409.875319 305.148091 
L 414.729604 349.172829 
L 419.583888 316.577591 
L 424.438173 355.945866 
L 429.292457 377.53492 
L 434.146742 332.663552 
L 439.001026 386.847845 
L 443.855311 407.166954 
L 448.709595 412.670047 
L 453.56388 423.252916 
L 458.418164 413.516676 
L 463.272449 438.492249 
L 468.126733 440.185508 
L 472.981018 436.798989 
L 477.835302 442.725396 
L 482.689587 425.36949 
L 487.543871 432.565842 
L 492.398155 417.326509 
L 497.25244 460.504617 
L 502.106724 475.74395 
L 506.961009 466.854339 
L 511.815293 470.664172 
L 516.669578 485.48019 
L 521.523862 452.884951 
L 526.378147 461.351247 
L 531.232431 457.964729 
L 536.086716 450.768377 
L 540.941 450.768377 
L 545.795285 468.970913 
L 550.649569 468.970913 
L 555.503854 479.553783 
L 560.358138 479.130468 
L 565.212423 476.167264 
L 570.066707 461.351247 
L 574.920991 460.081303 
L 579.775276 455.848155 
L 584.62956 420.289713 
L 589.483845 445.6886 
L 594.338129 472.780746 
L 599.192414 447.381859 
L 604.046698 446.958544 
L 608.900983 460.927932 
L 613.755267 458.811358 
L 618.609552 468.970913 
L 623.463836 462.621191 
L 628.318121 431.295897 
L 633.172405 427.486064 
L 638.02669 381.768067 
L 642.880974 394.044196 
L 647.735259 423.676231 
L 652.589543 421.559657 
L 657.443827 430.025953 
L 662.298112 428.756008 
L 667.152396 428.756008 
L 672.006681 445.6886 
L 676.860965 457.964729 
L 681.71525 410.976788 
L 686.569534 413.939991 
L 691.423819 427.062749 
L 696.278103 440.608822 
L 701.132388 407.590269 
L 705.986672 421.136342 
L 710.840957 441.878767 
L 715.695241 410.130158 
L 720.549526 438.068934 
L 725.40381 416.056565 
L 730.258095 430.872582 
L 735.112379 438.915563 
L 739.966663 443.148711 
L 744.820948 409.283528 
L 749.675232 438.068934 
L 754.529517 440.185508 
L 759.383801 387.27116 
L 764.238086 413.939991 
L 769.09237 406.74364 
L 773.946655 412.246732 
L 778.800939 430.025953 
L 783.655224 397.430714 
L 788.509508 424.099546 
L 793.363793 384.307956 
L 798.218077 388.541104 
L 803.072362 337.320015 
L 807.926646 392.774252 
L 812.780931 367.79868 
L 817.635215 318.694165 
L 822.4895 368.221994 
L 827.343784 380.074808 
L 832.198068 305.571406 
L 837.052353 384.307956 
L 841.906637 349.172829 
L 846.760922 341.976478 
L 851.615206 295.835166 
L 856.469491 319.117479 
L 861.323775 297.105111 
L 866.17806 377.958234 
L 871.032344 301.338258 
L 875.886629 237.841041 
L 880.740913 325.890516 
L 885.595198 338.166645 
L 890.449482 317.42422 
L 895.303767 276.786001 
L 900.158051 190.8531 
L 905.012336 160.374435 
L 909.86662 176.883712 
L 914.720904 184.926693 
L 919.575189 194.239618 
L 924.429473 272.976168 
L 929.283758 270.436279 
L 934.138042 272.552853 
L 938.992327 304.301462 
L 943.846611 364.412161 
L 948.700896 334.780126 
L 953.55518 335.626756 
L 958.409465 324.197257 
L 963.263749 332.240238 
L 968.118034 313.614387 
L 972.972318 342.399792 
L 977.826603 334.356812 
L 982.680887 327.583775 
L 987.535172 306.841351 
L 992.389456 267.049761 
L 997.24374 314.884332 
L 1002.098025 339.436589 
L 1006.952309 344.093052 
L 1011.806594 337.320015 
L 1016.660878 278.055945 
L 1021.515163 264.086557 
L 1026.369447 220.06182 
L 1031.223732 170.110675 
L 1036.078016 320.810739 
L 1040.932301 275.939371 
L 1045.786585 302.184888 
L 1050.64087 230.221375 
L 1055.495154 255.620262 
L 1060.349439 273.822797 
L 1065.203723 260.700039 
L 1070.058008 37.613148 
L 1074.912292 179.000286 
L 1079.766577 178.576971 
L 1084.620861 261.969983 
L 1089.475145 269.166335 
L 1094.32943 249.27054 
L 1099.183714 131.165715 
L 1104.037999 75.288164 
L 1108.892283 98.993792 
L 1113.746568 135.398863 
L 1118.600852 281.019149 
L 1118.600852 281.019149 
" style="fill:none;stroke:#ff7f0e;stroke-linecap:square;stroke-width:1.5;"/>
   </g>
   <g id="line2d_14">
    <defs>
     <path d="M 0 3 
C 0.795609 3 1.55874 2.683901 2.12132 2.12132 
C 2.683901 1.55874 3 0.795609 3 0 
C 3 -0.795609 2.683901 -1.55874 2.12132 -2.12132 
C 1.55874 -2.683901 0.795609 -3 0 -3 
C -0.795609 -3 -1.55874 -2.683901 -2.12132 -2.12132 
C -2.683901 -1.55874 -3 -0.795609 -3 0 
C -3 0.795609 -2.683901 1.55874 -2.12132 2.12132 
C -1.55874 2.683901 -0.795609 3 0 3 
z
" id="ma38912a080" style="stroke:#008000;"/>
    </defs>
    <g clip-path="url(#p5a20cbc9c1)">
     <use style="fill:#008000;stroke:#008000;" x="104.055398" xlink:href="#ma38912a080" y="229.284935"/>
     <use style="fill:#008000;stroke:#008000;" x="133.181105" xlink:href="#ma38912a080" y="289.454078"/>
     <use style="fill:#008000;stroke:#008000;" x="162.306811" xlink:href="#ma38912a080" y="280.251012"/>
     <use style="fill:#008000;stroke:#008000;" x="191.432518" xlink:href="#ma38912a080" y="233.790716"/>
     <use style="fill:#008000;stroke:#008000;" x="220.558225" xlink:href="#ma38912a080" y="99.023711"/>
     <use style="fill:#008000;stroke:#008000;" x="249.683932" xlink:href="#ma38912a080" y="185.512807"/>
     <use style="fill:#008000;stroke:#008000;" x="278.809639" xlink:href="#ma38912a080" y="204.281898"/>
     <use style="fill:#008000;stroke:#008000;" x="307.935346" xlink:href="#ma38912a080" y="249.242584"/>
     <use style="fill:#008000;stroke:#008000;" x="337.061052" xlink:href="#ma38912a080" y="276.750863"/>
     <use style="fill:#008000;stroke:#008000;" x="366.186759" xlink:href="#ma38912a080" y="196.029482"/>
     <use style="fill:#008000;stroke:#008000;" x="395.312466" xlink:href="#ma38912a080" y="237.893283"/>
     <use style="fill:#008000;stroke:#008000;" x="424.438173" xlink:href="#ma38912a080" y="335.926621"/>
     <use style="fill:#008000;stroke:#008000;" x="453.56388" xlink:href="#ma38912a080" y="380.459923"/>
     <use style="fill:#008000;stroke:#008000;" x="482.689587" xlink:href="#ma38912a080" y="427.182013"/>
     <use style="fill:#008000;stroke:#008000;" x="511.815293" xlink:href="#ma38912a080" y="474.329795"/>
     <use style="fill:#008000;stroke:#008000;" x="540.941" xlink:href="#ma38912a080" y="448.30414"/>
     <use style="fill:#008000;stroke:#008000;" x="570.066707" xlink:href="#ma38912a080" y="479.52522"/>
     <use style="fill:#008000;stroke:#008000;" x="599.192414" xlink:href="#ma38912a080" y="471.682218"/>
     <use style="fill:#008000;stroke:#008000;" x="628.318121" xlink:href="#ma38912a080" y="431.596357"/>
     <use style="fill:#008000;stroke:#008000;" x="657.443827" xlink:href="#ma38912a080" y="418.092411"/>
     <use style="fill:#008000;stroke:#008000;" x="686.569534" xlink:href="#ma38912a080" y="415.251791"/>
     <use style="fill:#008000;stroke:#008000;" x="715.695241" xlink:href="#ma38912a080" y="425.640276"/>
     <use style="fill:#008000;stroke:#008000;" x="744.820948" xlink:href="#ma38912a080" y="416.364349"/>
     <use style="fill:#008000;stroke:#008000;" x="773.946655" xlink:href="#ma38912a080" y="409.407146"/>
     <use style="fill:#008000;stroke:#008000;" x="803.072362" xlink:href="#ma38912a080" y="359.402506"/>
     <use style="fill:#008000;stroke:#008000;" x="832.198068" xlink:href="#ma38912a080" y="337.058802"/>
     <use style="fill:#008000;stroke:#008000;" x="861.323775" xlink:href="#ma38912a080" y="279.542094"/>
     <use style="fill:#008000;stroke:#008000;" x="890.449482" xlink:href="#ma38912a080" y="274.220999"/>
     <use style="fill:#008000;stroke:#008000;" x="919.575189" xlink:href="#ma38912a080" y="243.976702"/>
     <use style="fill:#008000;stroke:#008000;" x="948.700896" xlink:href="#ma38912a080" y="336.17073"/>
     <use style="fill:#008000;stroke:#008000;" x="977.826603" xlink:href="#ma38912a080" y="301.872104"/>
     <use style="fill:#008000;stroke:#008000;" x="1006.952309" xlink:href="#ma38912a080" y="271.244851"/>
     <use style="fill:#008000;stroke:#008000;" x="1036.078016" xlink:href="#ma38912a080" y="234.653881"/>
     <use style="fill:#008000;stroke:#008000;" x="1065.203723" xlink:href="#ma38912a080" y="253.335979"/>
     <use style="fill:#008000;stroke:#008000;" x="1094.32943" xlink:href="#ma38912a080" y="244.522149"/>
    </g>
   </g>
   <g id="patch_3">
    <path d="M 53.328125 509.66 
L 53.328125 10.7 
" style="fill:none;stroke:#000000;stroke-linecap:square;stroke-linejoin:miter;stroke-width:0.8;"/>
   </g>
   <g id="patch_4">
    <path d="M 1169.328125 509.66 
L 1169.328125 10.7 
" style="fill:none;stroke:#000000;stroke-linecap:square;stroke-linejoin:miter;stroke-width:0.8;"/>
   </g>
   <g id="patch_5">
    <path d="M 53.328125 509.66 
L 1169.328125 509.66 
" style="fill:none;stroke:#000000;stroke-linecap:square;stroke-linejoin:miter;stroke-width:0.8;"/>
   </g>
   <g id="patch_6">
    <path d="M 53.328125 10.7 
L 1169.328125 10.7 
" style="fill:none;stroke:#000000;stroke-linecap:square;stroke-linejoin:miter;stroke-width:0.8;"/>
   </g>
   <g id="legend_1">
    <g id="patch_7">
     <path d="M 60.328125 62.734375 
L 208.103125 62.734375 
Q 210.103125 62.734375 210.103125 60.734375 
L 210.103125 17.7 
Q 210.103125 15.7 208.103125 15.7 
L 60.328125 15.7 
Q 58.328125 15.7 58.328125 17.7 
L 58.328125 60.734375 
Q 58.328125 62.734375 60.328125 62.734375 
z
" style="fill:#ffffff;opacity:0.8;stroke:#cccccc;stroke-linejoin:miter;"/>
    </g>
    <g id="line2d_15">
     <path d="M 62.328125 23.798437 
L 82.328125 23.798437 
" style="fill:none;stroke:#008000;stroke-dasharray:5.55,2.4;stroke-dashoffset:0;stroke-width:1.5;"/>
    </g>
    <g id="line2d_16"/>
    <g id="text_14">
     <!-- Predicated -->
     <defs>
      <path d="M 19.671875 64.796875 
L 19.671875 37.40625 
L 32.078125 37.40625 
Q 38.96875 37.40625 42.71875 40.96875 
Q 46.484375 44.53125 46.484375 51.125 
Q 46.484375 57.671875 42.71875 61.234375 
Q 38.96875 64.796875 32.078125 64.796875 
z
M 9.8125 72.90625 
L 32.078125 72.90625 
Q 44.34375 72.90625 50.609375 67.359375 
Q 56.890625 61.8125 56.890625 51.125 
Q 56.890625 40.328125 50.609375 34.8125 
Q 44.34375 29.296875 32.078125 29.296875 
L 19.671875 29.296875 
L 19.671875 0 
L 9.8125 0 
z
" id="DejaVuSans-50"/>
      <path d="M 41.109375 46.296875 
Q 39.59375 47.171875 37.8125 47.578125 
Q 36.03125 48 33.890625 48 
Q 26.265625 48 22.1875 43.046875 
Q 18.109375 38.09375 18.109375 28.8125 
L 18.109375 0 
L 9.078125 0 
L 9.078125 54.6875 
L 18.109375 54.6875 
L 18.109375 46.1875 
Q 20.953125 51.171875 25.484375 53.578125 
Q 30.03125 56 36.53125 56 
Q 37.453125 56 38.578125 55.875 
Q 39.703125 55.765625 41.0625 55.515625 
z
" id="DejaVuSans-72"/>
      <path d="M 45.40625 46.390625 
L 45.40625 75.984375 
L 54.390625 75.984375 
L 54.390625 0 
L 45.40625 0 
L 45.40625 8.203125 
Q 42.578125 3.328125 38.25 0.953125 
Q 33.9375 -1.421875 27.875 -1.421875 
Q 17.96875 -1.421875 11.734375 6.484375 
Q 5.515625 14.40625 5.515625 27.296875 
Q 5.515625 40.1875 11.734375 48.09375 
Q 17.96875 56 27.875 56 
Q 33.9375 56 38.25 53.625 
Q 42.578125 51.265625 45.40625 46.390625 
z
M 14.796875 27.296875 
Q 14.796875 17.390625 18.875 11.75 
Q 22.953125 6.109375 30.078125 6.109375 
Q 37.203125 6.109375 41.296875 11.75 
Q 45.40625 17.390625 45.40625 27.296875 
Q 45.40625 37.203125 41.296875 42.84375 
Q 37.203125 48.484375 30.078125 48.484375 
Q 22.953125 48.484375 18.875 42.84375 
Q 14.796875 37.203125 14.796875 27.296875 
z
" id="DejaVuSans-64"/>
      <path d="M 48.78125 52.59375 
L 48.78125 44.1875 
Q 44.96875 46.296875 41.140625 47.34375 
Q 37.3125 48.390625 33.40625 48.390625 
Q 24.65625 48.390625 19.8125 42.84375 
Q 14.984375 37.3125 14.984375 27.296875 
Q 14.984375 17.28125 19.8125 11.734375 
Q 24.65625 6.203125 33.40625 6.203125 
Q 37.3125 6.203125 41.140625 7.25 
Q 44.96875 8.296875 48.78125 10.40625 
L 48.78125 2.09375 
Q 45.015625 0.34375 40.984375 -0.53125 
Q 36.96875 -1.421875 32.421875 -1.421875 
Q 20.0625 -1.421875 12.78125 6.34375 
Q 5.515625 14.109375 5.515625 27.296875 
Q 5.515625 40.671875 12.859375 48.328125 
Q 20.21875 56 33.015625 56 
Q 37.15625 56 41.109375 55.140625 
Q 45.0625 54.296875 48.78125 52.59375 
z
" id="DejaVuSans-63"/>
      <path d="M 34.28125 27.484375 
Q 23.390625 27.484375 19.1875 25 
Q 14.984375 22.515625 14.984375 16.5 
Q 14.984375 11.71875 18.140625 8.90625 
Q 21.296875 6.109375 26.703125 6.109375 
Q 34.1875 6.109375 38.703125 11.40625 
Q 43.21875 16.703125 43.21875 25.484375 
L 43.21875 27.484375 
z
M 52.203125 31.203125 
L 52.203125 0 
L 43.21875 0 
L 43.21875 8.296875 
Q 40.140625 3.328125 35.546875 0.953125 
Q 30.953125 -1.421875 24.3125 -1.421875 
Q 15.921875 -1.421875 10.953125 3.296875 
Q 6 8.015625 6 15.921875 
Q 6 25.140625 12.171875 29.828125 
Q 18.359375 34.515625 30.609375 34.515625 
L 43.21875 34.515625 
L 43.21875 35.40625 
Q 43.21875 41.609375 39.140625 45 
Q 35.0625 48.390625 27.6875 48.390625 
Q 23 48.390625 18.546875 47.265625 
Q 14.109375 46.140625 10.015625 43.890625 
L 10.015625 52.203125 
Q 14.9375 54.109375 19.578125 55.046875 
Q 24.21875 56 28.609375 56 
Q 40.484375 56 46.34375 49.84375 
Q 52.203125 43.703125 52.203125 31.203125 
z
" id="DejaVuSans-61"/>
      <path d="M 18.3125 70.21875 
L 18.3125 54.6875 
L 36.8125 54.6875 
L 36.8125 47.703125 
L 18.3125 47.703125 
L 18.3125 18.015625 
Q 18.3125 11.328125 20.140625 9.421875 
Q 21.96875 7.515625 27.59375 7.515625 
L 36.8125 7.515625 
L 36.8125 0 
L 27.59375 0 
Q 17.1875 0 13.234375 3.875 
Q 9.28125 7.765625 9.28125 18.015625 
L 9.28125 47.703125 
L 2.6875 47.703125 
L 2.6875 54.6875 
L 9.28125 54.6875 
L 9.28125 70.21875 
z
" id="DejaVuSans-74"/>
     </defs>
     <g transform="translate(90.328125 27.298437)scale(0.1 -0.1)">
      <use xlink:href="#DejaVuSans-50"/>
      <use x="60.287109" xlink:href="#DejaVuSans-72"/>
      <use x="101.369141" xlink:href="#DejaVuSans-65"/>
      <use x="162.892578" xlink:href="#DejaVuSans-64"/>
      <use x="226.369141" xlink:href="#DejaVuSans-69"/>
      <use x="254.152344" xlink:href="#DejaVuSans-63"/>
      <use x="309.132812" xlink:href="#DejaVuSans-61"/>
      <use x="370.412109" xlink:href="#DejaVuSans-74"/>
      <use x="409.621094" xlink:href="#DejaVuSans-65"/>
      <use x="471.144531" xlink:href="#DejaVuSans-64"/>
     </g>
    </g>
    <g id="line2d_17">
     <path d="M 62.328125 38.476562 
L 82.328125 38.476562 
" style="fill:none;stroke:#ff7f0e;stroke-linecap:square;stroke-width:1.5;"/>
    </g>
    <g id="line2d_18"/>
    <g id="text_15">
     <!-- Real Data -->
     <defs>
      <path d="M 9.421875 75.984375 
L 18.40625 75.984375 
L 18.40625 0 
L 9.421875 0 
z
" id="DejaVuSans-6c"/>
      <path id="DejaVuSans-20"/>
      <path d="M 19.671875 64.796875 
L 19.671875 8.109375 
L 31.59375 8.109375 
Q 46.6875 8.109375 53.6875 14.9375 
Q 60.6875 21.78125 60.6875 36.53125 
Q 60.6875 51.171875 53.6875 57.984375 
Q 46.6875 64.796875 31.59375 64.796875 
z
M 9.8125 72.90625 
L 30.078125 72.90625 
Q 51.265625 72.90625 61.171875 64.09375 
Q 71.09375 55.28125 71.09375 36.53125 
Q 71.09375 17.671875 61.125 8.828125 
Q 51.171875 0 30.078125 0 
L 9.8125 0 
z
" id="DejaVuSans-44"/>
     </defs>
     <g transform="translate(90.328125 41.976562)scale(0.1 -0.1)">
      <use xlink:href="#DejaVuSans-52"/>
      <use x="69.419922" xlink:href="#DejaVuSans-65"/>
      <use x="130.943359" xlink:href="#DejaVuSans-61"/>
      <use x="192.222656" xlink:href="#DejaVuSans-6c"/>
      <use x="220.005859" xlink:href="#DejaVuSans-20"/>
      <use x="251.792969" xlink:href="#DejaVuSans-44"/>
      <use x="328.794922" xlink:href="#DejaVuSans-61"/>
      <use x="390.074219" xlink:href="#DejaVuSans-74"/>
      <use x="429.283203" xlink:href="#DejaVuSans-61"/>
     </g>
    </g>
    <g id="line2d_19"/>
    <g id="line2d_20">
     <g>
      <use style="fill:#008000;stroke:#008000;" x="72.328125" xlink:href="#ma38912a080" y="53.154688"/>
     </g>
    </g>
    <g id="text_16">
     <!-- Start Point for Forecast -->
     <defs>
      <path d="M 53.515625 70.515625 
L 53.515625 60.890625 
Q 47.90625 63.578125 42.921875 64.890625 
Q 37.9375 66.21875 33.296875 66.21875 
Q 25.25 66.21875 20.875 63.09375 
Q 16.5 59.96875 16.5 54.203125 
Q 16.5 49.359375 19.40625 46.890625 
Q 22.3125 44.4375 30.421875 42.921875 
L 36.375 41.703125 
Q 47.40625 39.59375 52.65625 34.296875 
Q 57.90625 29 57.90625 20.125 
Q 57.90625 9.515625 50.796875 4.046875 
Q 43.703125 -1.421875 29.984375 -1.421875 
Q 24.8125 -1.421875 18.96875 -0.25 
Q 13.140625 0.921875 6.890625 3.21875 
L 6.890625 13.375 
Q 12.890625 10.015625 18.65625 8.296875 
Q 24.421875 6.59375 29.984375 6.59375 
Q 38.421875 6.59375 43.015625 9.90625 
Q 47.609375 13.234375 47.609375 19.390625 
Q 47.609375 24.75 44.3125 27.78125 
Q 41.015625 30.8125 33.5 32.328125 
L 27.484375 33.5 
Q 16.453125 35.6875 11.515625 40.375 
Q 6.59375 45.0625 6.59375 53.421875 
Q 6.59375 63.09375 13.40625 68.65625 
Q 20.21875 74.21875 32.171875 74.21875 
Q 37.3125 74.21875 42.625 73.28125 
Q 47.953125 72.359375 53.515625 70.515625 
z
" id="DejaVuSans-53"/>
      <path d="M 30.609375 48.390625 
Q 23.390625 48.390625 19.1875 42.75 
Q 14.984375 37.109375 14.984375 27.296875 
Q 14.984375 17.484375 19.15625 11.84375 
Q 23.34375 6.203125 30.609375 6.203125 
Q 37.796875 6.203125 41.984375 11.859375 
Q 46.1875 17.53125 46.1875 27.296875 
Q 46.1875 37.015625 41.984375 42.703125 
Q 37.796875 48.390625 30.609375 48.390625 
z
M 30.609375 56 
Q 42.328125 56 49.015625 48.375 
Q 55.71875 40.765625 55.71875 27.296875 
Q 55.71875 13.875 49.015625 6.21875 
Q 42.328125 -1.421875 30.609375 -1.421875 
Q 18.84375 -1.421875 12.171875 6.21875 
Q 5.515625 13.875 5.515625 27.296875 
Q 5.515625 40.765625 12.171875 48.375 
Q 18.84375 56 30.609375 56 
z
" id="DejaVuSans-6f"/>
      <path d="M 54.890625 33.015625 
L 54.890625 0 
L 45.90625 0 
L 45.90625 32.71875 
Q 45.90625 40.484375 42.875 44.328125 
Q 39.84375 48.1875 33.796875 48.1875 
Q 26.515625 48.1875 22.3125 43.546875 
Q 18.109375 38.921875 18.109375 30.90625 
L 18.109375 0 
L 9.078125 0 
L 9.078125 54.6875 
L 18.109375 54.6875 
L 18.109375 46.1875 
Q 21.34375 51.125 25.703125 53.5625 
Q 30.078125 56 35.796875 56 
Q 45.21875 56 50.046875 50.171875 
Q 54.890625 44.34375 54.890625 33.015625 
z
" id="DejaVuSans-6e"/>
      <path d="M 9.8125 72.90625 
L 51.703125 72.90625 
L 51.703125 64.59375 
L 19.671875 64.59375 
L 19.671875 43.109375 
L 48.578125 43.109375 
L 48.578125 34.8125 
L 19.671875 34.8125 
L 19.671875 0 
L 9.8125 0 
z
" id="DejaVuSans-46"/>
     </defs>
     <g transform="translate(90.328125 56.654688)scale(0.1 -0.1)">
      <use xlink:href="#DejaVuSans-53"/>
      <use x="63.476562" xlink:href="#DejaVuSans-74"/>
      <use x="102.685547" xlink:href="#DejaVuSans-61"/>
      <use x="163.964844" xlink:href="#DejaVuSans-72"/>
      <use x="205.078125" xlink:href="#DejaVuSans-74"/>
      <use x="244.287109" xlink:href="#DejaVuSans-20"/>
      <use x="276.074219" xlink:href="#DejaVuSans-50"/>
      <use x="336.330078" xlink:href="#DejaVuSans-6f"/>
      <use x="397.511719" xlink:href="#DejaVuSans-69"/>
      <use x="425.294922" xlink:href="#DejaVuSans-6e"/>
      <use x="488.673828" xlink:href="#DejaVuSans-74"/>
      <use x="527.882812" xlink:href="#DejaVuSans-20"/>
      <use x="559.669922" xlink:href="#DejaVuSans-66"/>
      <use x="594.875" xlink:href="#DejaVuSans-6f"/>
      <use x="656.056641" xlink:href="#DejaVuSans-72"/>
      <use x="697.169922" xlink:href="#DejaVuSans-20"/>
      <use x="728.957031" xlink:href="#DejaVuSans-46"/>
      <use x="786.429688" xlink:href="#DejaVuSans-6f"/>
      <use x="847.611328" xlink:href="#DejaVuSans-72"/>
      <use x="888.693359" xlink:href="#DejaVuSans-65"/>
      <use x="950.216797" xlink:href="#DejaVuSans-63"/>
      <use x="1005.197266" xlink:href="#DejaVuSans-61"/>
      <use x="1066.476562" xlink:href="#DejaVuSans-73"/>
      <use x="1118.576172" xlink:href="#DejaVuSans-74"/>
     </g>
    </g>
   </g>
  </g>
  <g id="axes_2">
   <g id="patch_8">
    <path d="M 53.328125 645.74 
L 1170.768125 645.74 
L 1170.768125 516.14 
L 53.328125 516.14 
z
" style="fill:none;"/>
   </g>
   <g id="matplotlib.axis_3">
    <g id="xtick_6">
     <g id="line2d_21">
      <g>
       <use style="stroke:#000000;stroke-width:0.8;" x="104.120852" xlink:href="#m0ad25df0bd" y="645.74"/>
      </g>
     </g>
     <g id="text_17">
      <!-- 0 -->
      <g transform="translate(100.939602 660.338437)scale(0.1 -0.1)">
       <use xlink:href="#DejaVuSans-30"/>
      </g>
     </g>
    </g>
    <g id="xtick_7">
     <g id="line2d_22">
      <g>
       <use style="stroke:#000000;stroke-width:0.8;" x="228.612831" xlink:href="#m0ad25df0bd" y="645.74"/>
      </g>
     </g>
     <g id="text_18">
      <!-- 25 -->
      <g transform="translate(222.250331 660.338437)scale(0.1 -0.1)">
       <use xlink:href="#DejaVuSans-32"/>
       <use x="63.623047" xlink:href="#DejaVuSans-35"/>
      </g>
     </g>
    </g>
    <g id="xtick_8">
     <g id="line2d_23">
      <g>
       <use style="stroke:#000000;stroke-width:0.8;" x="353.104809" xlink:href="#m0ad25df0bd" y="645.74"/>
      </g>
     </g>
     <g id="text_19">
      <!-- 50 -->
      <g transform="translate(346.742309 660.338437)scale(0.1 -0.1)">
       <use xlink:href="#DejaVuSans-35"/>
       <use x="63.623047" xlink:href="#DejaVuSans-30"/>
      </g>
     </g>
    </g>
    <g id="xtick_9">
     <g id="line2d_24">
      <g>
       <use style="stroke:#000000;stroke-width:0.8;" x="477.596788" xlink:href="#m0ad25df0bd" y="645.74"/>
      </g>
     </g>
     <g id="text_20">
      <!-- 75 -->
      <defs>
       <path d="M 8.203125 72.90625 
L 55.078125 72.90625 
L 55.078125 68.703125 
L 28.609375 0 
L 18.3125 0 
L 43.21875 64.59375 
L 8.203125 64.59375 
z
" id="DejaVuSans-37"/>
      </defs>
      <g transform="translate(471.234288 660.338437)scale(0.1 -0.1)">
       <use xlink:href="#DejaVuSans-37"/>
       <use x="63.623047" xlink:href="#DejaVuSans-35"/>
      </g>
     </g>
    </g>
    <g id="xtick_10">
     <g id="line2d_25">
      <g>
       <use style="stroke:#000000;stroke-width:0.8;" x="602.088767" xlink:href="#m0ad25df0bd" y="645.74"/>
      </g>
     </g>
     <g id="text_21">
      <!-- 100 -->
      <g transform="translate(592.545017 660.338437)scale(0.1 -0.1)">
       <use xlink:href="#DejaVuSans-31"/>
       <use x="63.623047" xlink:href="#DejaVuSans-30"/>
       <use x="127.246094" xlink:href="#DejaVuSans-30"/>
      </g>
     </g>
    </g>
    <g id="xtick_11">
     <g id="line2d_26">
      <g>
       <use style="stroke:#000000;stroke-width:0.8;" x="726.580745" xlink:href="#m0ad25df0bd" y="645.74"/>
      </g>
     </g>
     <g id="text_22">
      <!-- 125 -->
      <g transform="translate(717.036995 660.338437)scale(0.1 -0.1)">
       <use xlink:href="#DejaVuSans-31"/>
       <use x="63.623047" xlink:href="#DejaVuSans-32"/>
       <use x="127.246094" xlink:href="#DejaVuSans-35"/>
      </g>
     </g>
    </g>
    <g id="xtick_12">
     <g id="line2d_27">
      <g>
       <use style="stroke:#000000;stroke-width:0.8;" x="851.072724" xlink:href="#m0ad25df0bd" y="645.74"/>
      </g>
     </g>
     <g id="text_23">
      <!-- 150 -->
      <g transform="translate(841.528974 660.338437)scale(0.1 -0.1)">
       <use xlink:href="#DejaVuSans-31"/>
       <use x="63.623047" xlink:href="#DejaVuSans-35"/>
       <use x="127.246094" xlink:href="#DejaVuSans-30"/>
      </g>
     </g>
    </g>
    <g id="xtick_13">
     <g id="line2d_28">
      <g>
       <use style="stroke:#000000;stroke-width:0.8;" x="975.564703" xlink:href="#m0ad25df0bd" y="645.74"/>
      </g>
     </g>
     <g id="text_24">
      <!-- 175 -->
      <g transform="translate(966.020953 660.338437)scale(0.1 -0.1)">
       <use xlink:href="#DejaVuSans-31"/>
       <use x="63.623047" xlink:href="#DejaVuSans-37"/>
       <use x="127.246094" xlink:href="#DejaVuSans-35"/>
      </g>
     </g>
    </g>
    <g id="xtick_14">
     <g id="line2d_29">
      <g>
       <use style="stroke:#000000;stroke-width:0.8;" x="1100.056681" xlink:href="#m0ad25df0bd" y="645.74"/>
      </g>
     </g>
     <g id="text_25">
      <!-- 200 -->
      <g transform="translate(1090.512931 660.338437)scale(0.1 -0.1)">
       <use xlink:href="#DejaVuSans-32"/>
       <use x="63.623047" xlink:href="#DejaVuSans-30"/>
       <use x="127.246094" xlink:href="#DejaVuSans-30"/>
      </g>
     </g>
    </g>
   </g>
   <g id="matplotlib.axis_4">
    <g id="ytick_7">
     <g id="line2d_30">
      <g>
       <use style="stroke:#000000;stroke-width:0.8;" x="53.328125" xlink:href="#m870cec0a88" y="631.581454"/>
      </g>
     </g>
     <g id="text_26">
      <!-- 0 -->
      <g transform="translate(39.965625 635.380673)scale(0.1 -0.1)">
       <use xlink:href="#DejaVuSans-30"/>
      </g>
     </g>
    </g>
    <g id="ytick_8">
     <g id="line2d_31">
      <g>
       <use style="stroke:#000000;stroke-width:0.8;" x="53.328125" xlink:href="#m870cec0a88" y="603.365612"/>
      </g>
     </g>
     <g id="text_27">
      <!-- 10 -->
      <g transform="translate(33.603125 607.164831)scale(0.1 -0.1)">
       <use xlink:href="#DejaVuSans-31"/>
       <use x="63.623047" xlink:href="#DejaVuSans-30"/>
      </g>
     </g>
    </g>
    <g id="ytick_9">
     <g id="line2d_32">
      <g>
       <use style="stroke:#000000;stroke-width:0.8;" x="53.328125" xlink:href="#m870cec0a88" y="575.149771"/>
      </g>
     </g>
     <g id="text_28">
      <!-- 20 -->
      <g transform="translate(33.603125 578.948989)scale(0.1 -0.1)">
       <use xlink:href="#DejaVuSans-32"/>
       <use x="63.623047" xlink:href="#DejaVuSans-30"/>
      </g>
     </g>
    </g>
    <g id="ytick_10">
     <g id="line2d_33">
      <g>
       <use style="stroke:#000000;stroke-width:0.8;" x="53.328125" xlink:href="#m870cec0a88" y="546.933929"/>
      </g>
     </g>
     <g id="text_29">
      <!-- 30 -->
      <defs>
       <path d="M 40.578125 39.3125 
Q 47.65625 37.796875 51.625 33 
Q 55.609375 28.21875 55.609375 21.1875 
Q 55.609375 10.40625 48.1875 4.484375 
Q 40.765625 -1.421875 27.09375 -1.421875 
Q 22.515625 -1.421875 17.65625 -0.515625 
Q 12.796875 0.390625 7.625 2.203125 
L 7.625 11.71875 
Q 11.71875 9.328125 16.59375 8.109375 
Q 21.484375 6.890625 26.8125 6.890625 
Q 36.078125 6.890625 40.9375 10.546875 
Q 45.796875 14.203125 45.796875 21.1875 
Q 45.796875 27.640625 41.28125 31.265625 
Q 36.765625 34.90625 28.71875 34.90625 
L 20.21875 34.90625 
L 20.21875 43.015625 
L 29.109375 43.015625 
Q 36.375 43.015625 40.234375 45.921875 
Q 44.09375 48.828125 44.09375 54.296875 
Q 44.09375 59.90625 40.109375 62.90625 
Q 36.140625 65.921875 28.71875 65.921875 
Q 24.65625 65.921875 20.015625 65.03125 
Q 15.375 64.15625 9.8125 62.3125 
L 9.8125 71.09375 
Q 15.4375 72.65625 20.34375 73.4375 
Q 25.25 74.21875 29.59375 74.21875 
Q 40.828125 74.21875 47.359375 69.109375 
Q 53.90625 64.015625 53.90625 55.328125 
Q 53.90625 49.265625 50.4375 45.09375 
Q 46.96875 40.921875 40.578125 39.3125 
z
" id="DejaVuSans-33"/>
      </defs>
      <g transform="translate(33.603125 550.733148)scale(0.1 -0.1)">
       <use xlink:href="#DejaVuSans-33"/>
       <use x="63.623047" xlink:href="#DejaVuSans-30"/>
      </g>
     </g>
    </g>
    <g id="ytick_11">
     <g id="line2d_34">
      <g>
       <use style="stroke:#000000;stroke-width:0.8;" x="53.328125" xlink:href="#m870cec0a88" y="518.718087"/>
      </g>
     </g>
     <g id="text_30">
      <!-- 40 -->
      <g transform="translate(33.603125 522.517306)scale(0.1 -0.1)">
       <use xlink:href="#DejaVuSans-34"/>
       <use x="63.623047" xlink:href="#DejaVuSans-30"/>
      </g>
     </g>
    </g>
    <g id="text_31">
     <!-- Temperature -->
     <defs>
      <path d="M 18.109375 8.203125 
L 18.109375 -20.796875 
L 9.078125 -20.796875 
L 9.078125 54.6875 
L 18.109375 54.6875 
L 18.109375 46.390625 
Q 20.953125 51.265625 25.265625 53.625 
Q 29.59375 56 35.59375 56 
Q 45.5625 56 51.78125 48.09375 
Q 58.015625 40.1875 58.015625 27.296875 
Q 58.015625 14.40625 51.78125 6.484375 
Q 45.5625 -1.421875 35.59375 -1.421875 
Q 29.59375 -1.421875 25.265625 0.953125 
Q 20.953125 3.328125 18.109375 8.203125 
z
M 48.6875 27.296875 
Q 48.6875 37.203125 44.609375 42.84375 
Q 40.53125 48.484375 33.40625 48.484375 
Q 26.265625 48.484375 22.1875 42.84375 
Q 18.109375 37.203125 18.109375 27.296875 
Q 18.109375 17.390625 22.1875 11.75 
Q 26.265625 6.109375 33.40625 6.109375 
Q 40.53125 6.109375 44.609375 11.75 
Q 48.6875 17.390625 48.6875 27.296875 
z
" id="DejaVuSans-70"/>
     </defs>
     <g style="fill:#0000ff;" transform="translate(27.523437 613.557187)rotate(-90)scale(0.1 -0.1)">
      <use xlink:href="#DejaVuSans-54"/>
      <use x="60.818359" xlink:href="#DejaVuSans-65"/>
      <use x="122.341797" xlink:href="#DejaVuSans-6d"/>
      <use x="219.753906" xlink:href="#DejaVuSans-70"/>
      <use x="283.230469" xlink:href="#DejaVuSans-65"/>
      <use x="344.753906" xlink:href="#DejaVuSans-72"/>
      <use x="385.867188" xlink:href="#DejaVuSans-61"/>
      <use x="447.146484" xlink:href="#DejaVuSans-74"/>
      <use x="486.355469" xlink:href="#DejaVuSans-75"/>
      <use x="549.734375" xlink:href="#DejaVuSans-72"/>
      <use x="590.816406" xlink:href="#DejaVuSans-65"/>
     </g>
    </g>
   </g>
   <g id="line2d_35">
    <path clip-path="url(#pa206f1df2c)" d="M 104.120852 527.557828 
L 109.100531 522.030909 
L 114.080211 536.995745 
L 119.05989 548.356572 
L 124.039569 576.203632 
L 129.019248 586.798117 
L 133.998927 590.285313 
L 143.958285 567.582 
L 148.937965 557.689808 
L 153.917644 546.920667 
L 158.897323 536.964143 
L 163.877002 526.448946 
L 168.856681 528.260685 
L 173.83636 538.710704 
L 178.816039 560.149101 
L 183.795719 570.035367 
L 188.775398 578.072085 
L 193.755077 581.966436 
L 198.734756 580.261635 
L 203.714435 559.142641 
L 208.694114 562.28504 
L 213.673793 550.826586 
L 218.653473 535.703177 
L 223.633152 529.472837 
L 228.612831 529.563975 
L 233.59251 541.622015 
L 238.572189 547.863641 
L 243.551868 576.387882 
L 248.531547 586.425103 
L 253.511227 586.403377 
L 258.490906 578.056567 
L 263.470585 570.768415 
L 268.450264 565.529015 
L 278.409622 537.503912 
L 283.389301 531.485756 
L 288.368981 533.001511 
L 293.34866 543.130151 
L 298.328339 555.332939 
L 303.308018 573.243226 
L 313.267376 588.066983 
L 318.247055 587.928725 
L 323.226735 574.147544 
L 328.206414 565.551023 
L 333.186093 552.515305 
L 338.165772 535.03813 
L 343.145451 527.345363 
L 348.12513 529.56736 
L 358.084489 555.123859 
L 363.064168 573.695808 
L 368.043847 587.00776 
L 373.023526 584.841912 
L 382.982884 572.490992 
L 387.962564 568.026964 
L 392.942243 559.907009 
L 397.921922 539.266838 
L 402.901601 530.263163 
L 407.88128 527.121047 
L 412.860959 541.320387 
L 417.840638 549.256657 
L 422.820318 578.566145 
L 427.799997 586.938067 
L 432.779676 591.962744 
L 437.759355 590.020648 
L 442.739034 572.938777 
L 447.718713 562.730004 
L 452.698392 543.966469 
L 457.678072 537.274518 
L 462.657751 526.950059 
L 467.63743 530.2262 
L 472.617109 542.511378 
L 477.596788 552.944185 
L 482.576467 573.051076 
L 487.556146 587.056856 
L 492.535826 592.792572 
L 497.515505 585.854861 
L 502.495184 568.20952 
L 507.474863 555.907131 
L 517.434221 536.783844 
L 522.4139 527.291753 
L 527.39358 529.879145 
L 532.373259 542.41629 
L 537.352938 548.852324 
L 542.332617 568.022167 
L 547.312296 585.836803 
L 552.291975 581.337223 
L 557.271654 577.52498 
L 562.251334 576.297309 
L 567.231013 566.750197 
L 572.210692 550.915466 
L 577.190371 536.323079 
L 582.17005 529.129451 
L 587.149729 529.058911 
L 592.129408 539.765694 
L 597.109088 556.415298 
L 602.088767 573.860589 
L 607.068446 586.572672 
L 612.048125 584.674875 
L 617.027804 578.427041 
L 622.007483 571.12337 
L 626.987162 558.867255 
L 631.966842 552.445611 
L 636.946521 538.729326 
L 641.9262 526.643071 
L 646.905879 527.781862 
L 651.885558 539.385345 
L 661.844916 575.68954 
L 666.824596 587.6587 
L 671.804275 588.457772 
L 676.783954 582.409425 
L 681.763633 572.297149 
L 686.743312 566.920056 
L 691.722991 547.150344 
L 696.70267 534.113779 
L 701.68235 524.030001 
L 706.662029 527.661945 
L 711.641708 544.309291 
L 716.621387 553.225215 
L 721.601066 567.185849 
L 726.580745 575.206202 
L 731.560424 580.819744 
L 736.540104 572.971508 
L 741.519783 567.07609 
L 746.499462 558.423702 
L 751.479141 552.103635 
L 756.45882 537.406286 
L 761.438499 526.867104 
L 766.418178 527.144748 
L 771.397858 540.087637 
L 776.377537 554.620771 
L 781.357216 571.072299 
L 786.336895 577.114158 
L 791.316574 581.762435 
L 796.296253 582.668728 
L 801.275932 570.906108 
L 806.255612 557.218603 
L 811.235291 550.495332 
L 816.21497 537.947748 
L 821.194649 526.719536 
L 826.174328 527.022574 
L 831.154007 536.055593 
L 836.133686 556.929391 
L 841.113366 569.976396 
L 846.093045 583.369328 
L 851.072724 586.991395 
L 856.052403 591.183423 
L 861.032082 573.654613 
L 866.011761 561.880989 
L 870.991441 544.903799 
L 875.97112 529.030695 
L 880.950799 525.634636 
L 885.930478 525.162585 
L 895.889836 548.687543 
L 900.869515 565.322193 
L 905.849195 578.736286 
L 910.828874 582.045722 
L 915.808553 581.124193 
L 920.788232 563.369657 
L 925.767911 557.385077 
L 930.74759 548.126613 
L 935.727269 536.312075 
L 940.706949 527.888236 
L 945.686628 529.381982 
L 950.666307 538.401458 
L 955.645986 544.689641 
L 960.625665 571.792368 
L 965.605344 583.527054 
L 970.585023 580.212539 
L 975.564703 576.058885 
L 980.544382 572.787258 
L 985.524061 554.451193 
L 995.483419 535.253135 
L 1000.463098 526.802772 
L 1005.442777 524.539297 
L 1010.422457 532.985428 
L 1015.402136 547.831757 
L 1020.381815 566.04339 
L 1025.361494 585.391557 
L 1030.341173 586.356821 
L 1035.320852 584.93051 
L 1040.300531 572.289249 
L 1045.280211 552.777994 
L 1050.25989 540.369795 
L 1055.239569 534.151024 
L 1060.219248 525.022635 
L 1065.198927 526.267518 
L 1070.178606 537.93505 
L 1075.158285 551.377924 
L 1080.137965 570.790423 
L 1085.117644 578.903324 
L 1090.097323 577.581412 
L 1095.077002 575.45563 
L 1100.056681 572.162277 
L 1105.03636 555.81684 
L 1110.016039 545.545709 
L 1114.995719 532.753493 
L 1119.975398 525.932596 
L 1119.975398 525.932596 
" style="fill:none;stroke:#ff0000;stroke-linecap:square;stroke-width:1.5;"/>
   </g>
   <g id="line2d_36">
    <path clip-path="url(#pa206f1df2c)" d="M 104.120852 549.171445 
L 109.100531 544.877558 
L 114.080211 557.511766 
L 119.05989 568.189769 
L 124.039569 592.042031 
L 129.019248 602.593909 
L 133.998927 608.523045 
L 143.958285 588.632993 
L 148.937965 577.756914 
L 153.917644 566.080635 
L 158.897323 557.478471 
L 163.877002 547.304685 
L 168.856681 548.852606 
L 173.83636 557.65736 
L 178.816039 577.15761 
L 183.795719 588.493889 
L 188.775398 596.623155 
L 193.755077 600.268924 
L 198.734756 600.013006 
L 203.714435 580.457171 
L 208.694114 582.409425 
L 213.673793 570.483153 
L 218.653473 554.290081 
L 223.633152 548.490597 
L 228.612831 548.075824 
L 233.59251 558.784865 
L 238.572189 566.283225 
L 243.551868 590.987041 
L 248.531547 602.547353 
L 253.511227 603.845451 
L 258.490906 597.097181 
L 263.470585 587.713156 
L 268.450264 581.851033 
L 273.429943 570.092645 
L 278.409622 555.868475 
L 283.389301 551.186621 
L 288.368981 551.805112 
L 293.34866 560.423359 
L 298.328339 573.501119 
L 303.308018 588.101689 
L 308.287697 595.989709 
L 313.267376 603.102076 
L 318.247055 602.347303 
L 323.226735 589.91371 
L 328.206414 580.925271 
L 333.186093 570.146538 
L 338.165772 553.619108 
L 343.145451 545.097924 
L 348.12513 547.100402 
L 353.104809 559.625415 
L 358.084489 570.568647 
L 363.064168 589.849096 
L 368.043847 602.079534 
L 373.023526 602.323601 
L 378.003205 596.457246 
L 382.982884 589.95688 
L 387.962564 585.634777 
L 392.942243 577.199087 
L 397.921922 558.393793 
L 402.901601 550.341838 
L 407.88128 547.233863 
L 412.860959 559.839008 
L 417.840638 568.32972 
L 422.820318 594.055795 
L 427.799997 600.933689 
L 432.779676 609.445901 
L 437.759355 605.620228 
L 442.739034 589.606722 
L 447.718713 580.62703 
L 452.698392 563.80277 
L 457.678072 555.968077 
L 462.657751 546.275371 
L 467.63743 550.38134 
L 472.617109 560.998962 
L 477.596788 571.147636 
L 482.576467 590.086673 
L 487.556146 603.106309 
L 492.535826 607.619856 
L 497.515505 601.450321 
L 502.495184 587.844642 
L 507.474863 576.242288 
L 512.454542 565.322757 
L 517.434221 555.797653 
L 522.4139 547.567939 
L 527.39358 550.069555 
L 532.373259 561.8223 
L 537.352938 568.685239 
L 542.332617 585.501599 
L 547.312296 600.135181 
L 552.291975 600.735332 
L 557.271654 594.229323 
L 562.251334 593.837123 
L 567.231013 582.956248 
L 572.210692 570.714805 
L 577.190371 556.577257 
L 582.17005 549.481819 
L 587.149729 549.394915 
L 592.129408 560.049216 
L 597.109088 573.169301 
L 602.088767 591.59481 
L 607.068446 603.092483 
L 612.048125 602.314008 
L 617.027804 595.99507 
L 622.007483 589.120845 
L 626.987162 577.809396 
L 631.966842 569.925325 
L 636.946521 557.757244 
L 641.9262 546.087454 
L 646.905879 547.200286 
L 651.885558 556.658519 
L 656.865237 573.179176 
L 661.844916 591.897284 
L 666.824596 602.92742 
L 671.804275 602.229361 
L 676.783954 599.175842 
L 681.763633 589.673029 
L 686.743312 583.917279 
L 691.722991 565.638775 
L 696.70267 553.522328 
L 701.68235 543.507961 
L 706.662029 547.04002 
L 711.641708 561.171643 
L 716.621387 571.886044 
L 721.601066 586.183011 
L 726.580745 593.191826 
L 731.560424 597.631025 
L 736.540104 590.363753 
L 741.519783 584.698294 
L 746.499462 575.727349 
L 751.479141 570.413177 
L 756.45882 556.116775 
L 761.438499 546.010989 
L 766.418178 547.273083 
L 771.397858 557.988049 
L 776.377537 572.391672 
L 781.357216 587.329985 
L 786.336895 595.20418 
L 791.316574 599.225784 
L 796.296253 599.856126 
L 806.255612 575.295364 
L 811.235291 567.369534 
L 816.21497 556.095895 
L 821.194649 546.683654 
L 826.174328 546.9929 
L 831.154007 554.959361 
L 836.133686 574.088855 
L 841.113366 586.208406 
L 846.093045 599.812674 
L 851.072724 604.369701 
L 856.052403 607.333917 
L 861.032082 589.947851 
L 866.011761 578.658128 
L 870.991441 563.388561 
L 875.97112 547.750213 
L 880.950799 544.232262 
L 885.930478 544.048013 
L 890.910157 554.694132 
L 895.889836 566.328934 
L 900.869515 581.642236 
L 905.849195 596.24337 
L 910.828874 598.730314 
L 915.808553 598.390031 
L 920.788232 580.67669 
L 925.767911 574.501653 
L 930.74759 565.490642 
L 935.727269 555.077867 
L 940.706949 546.749962 
L 945.686628 548.048172 
L 950.666307 555.987546 
L 955.645986 563.411134 
L 960.625665 587.498434 
L 965.605344 598.961402 
L 970.585023 595.872331 
L 975.564703 593.164457 
L 980.544382 588.943931 
L 985.524061 573.963295 
L 990.50374 563.896446 
L 995.483419 553.520635 
L 1000.463098 546.243487 
L 1005.442777 544.608097 
L 1010.422457 551.148529 
L 1015.402136 567.319875 
L 1020.381815 582.447234 
L 1025.361494 600.904627 
L 1030.341173 603.766729 
L 1035.320852 600.181173 
L 1040.300531 590.437114 
L 1045.280211 572.627557 
L 1050.25989 560.25096 
L 1055.239569 553.273182 
L 1060.219248 545.198655 
L 1065.198927 544.853575 
L 1070.178606 555.770848 
L 1075.158285 568.675081 
L 1080.137965 587.236873 
L 1085.117644 598.606446 
L 1090.097323 596.143203 
L 1095.077002 593.25503 
L 1100.056681 590.143951 
L 1105.03636 574.351545 
L 1110.016039 563.361474 
L 1114.995719 551.635535 
L 1119.975398 545.432564 
L 1119.975398 545.432564 
" style="fill:none;stroke:#008000;stroke-linecap:square;stroke-width:1.5;"/>
   </g>
   <g id="line2d_37">
    <path clip-path="url(#pa206f1df2c)" d="M 104.120852 567.516539 
L 109.100531 560.336736 
L 114.080211 573.425218 
L 119.05989 582.875268 
L 124.039569 606.692683 
L 129.019248 616.513546 
L 133.998927 624.200783 
L 138.978606 617.121174 
L 143.958285 606.685263 
L 148.937965 597.266758 
L 153.917644 582.385723 
L 158.897323 575.052144 
L 163.877002 566.425432 
L 168.856681 568.461488 
L 173.83636 576.259782 
L 178.816039 592.963278 
L 183.795719 604.431579 
L 188.775398 613.006119 
L 193.755077 617.583011 
L 198.734756 617.855124 
L 203.714435 600.071413 
L 208.694114 600.359215 
L 213.673793 587.856775 
L 218.653473 576.066221 
L 223.633152 569.250685 
L 228.612831 567.574946 
L 238.572189 583.227402 
L 243.551868 606.177039 
L 248.531547 616.789581 
L 253.511227 620.65123 
L 258.490906 615.686709 
L 263.470585 606.307453 
L 268.450264 599.957703 
L 273.429943 588.654719 
L 278.409622 576.313674 
L 283.389301 568.870335 
L 288.368981 568.894319 
L 293.34866 578.562195 
L 298.328339 590.810127 
L 303.308018 603.378084 
L 308.287697 610.437434 
L 313.267376 616.856509 
L 318.247055 616.710097 
L 323.226735 606.902355 
L 328.206414 599.038995 
L 333.186093 588.374818 
L 338.165772 572.795723 
L 343.145451 564.816001 
L 348.12513 566.418661 
L 353.104809 576.076097 
L 358.084489 585.095573 
L 363.064168 603.314542 
L 368.043847 615.018163 
L 373.023526 616.86046 
L 378.003205 612.294008 
L 382.982884 607.365772 
L 387.962564 602.903155 
L 392.942243 593.784359 
L 397.921922 578.482344 
L 402.901601 570.131865 
L 407.88128 566.641001 
L 412.860959 578.54724 
L 417.840638 586.835926 
L 422.820318 608.535319 
L 427.799997 613.71507 
L 432.779676 625.74117 
L 437.759355 621.272373 
L 442.739034 605.465576 
L 447.718713 599.204904 
L 452.698392 584.456202 
L 462.657751 565.569928 
L 467.63743 569.785657 
L 477.596788 587.545554 
L 482.576467 604.633491 
L 487.556146 617.005799 
L 492.535826 621.174295 
L 497.515505 615.857753 
L 502.495184 607.410523 
L 507.474863 594.525307 
L 512.454542 582.437923 
L 517.434221 576.043084 
L 522.4139 567.907046 
L 527.39358 569.647117 
L 532.373259 578.895142 
L 537.352938 587.015661 
L 542.332617 602.93645 
L 547.312296 613.509518 
L 552.291975 618.848999 
L 557.271654 609.71745 
L 562.251334 611.033042 
L 567.231013 598.308205 
L 572.210692 590.162574 
L 577.190371 577.080016 
L 582.17005 570.445061 
L 587.149729 568.095246 
L 592.129408 576.32496 
L 597.109088 588.739931 
L 602.088767 608.26329 
L 607.068446 617.625871 
L 612.048125 618.522485 
L 617.027804 613.151685 
L 622.007483 607.579564 
L 626.987162 598.638612 
L 631.966842 586.626 
L 636.946521 576.788547 
L 641.9262 566.120983 
L 646.905879 567.092173 
L 651.885558 573.214164 
L 656.865237 587.14235 
L 661.844916 606.905374 
L 666.824596 616.607335 
L 671.804275 614.916529 
L 676.783954 614.86701 
L 681.763633 606.091347 
L 686.743312 601.639649 
L 691.722991 585.680205 
L 696.70267 573.825037 
L 701.68235 565.101545 
L 706.662029 566.666114 
L 711.641708 576.927087 
L 716.621387 589.799718 
L 721.601066 604.559566 
L 726.580745 610.253128 
L 731.560424 613.506076 
L 736.540104 606.562411 
L 741.519783 602.010688 
L 746.499462 593.303279 
L 751.479141 588.114386 
L 756.45882 576.189242 
L 761.438499 566.443208 
L 766.418178 566.039158 
L 771.397858 574.862816 
L 781.357216 602.753047 
L 786.336895 611.821308 
L 791.316574 615.281614 
L 796.296253 616.410699 
L 801.275932 603.953236 
L 806.255612 593.853206 
L 811.235291 584.658227 
L 816.21497 574.74177 
L 821.194649 565.83036 
L 826.174328 566.549864 
L 831.154007 573.794846 
L 836.133686 590.498624 
L 841.113366 601.429441 
L 846.093045 615.195273 
L 851.072724 620.891234 
L 856.052403 623.122232 
L 861.032082 607.702867 
L 866.011761 596.809944 
L 870.991441 583.705378 
L 875.97112 568.756625 
L 880.950799 564.790324 
L 885.930478 564.31912 
L 890.910157 573.893601 
L 895.889836 584.48075 
L 900.869515 596.900234 
L 905.849195 612.809511 
L 910.828874 615.668481 
L 915.808553 616.267504 
L 920.788232 599.472391 
L 925.767911 593.264341 
L 930.74759 584.889597 
L 935.727269 576.190935 
L 940.706949 566.703076 
L 945.686628 568.60172 
L 950.666307 572.920719 
L 955.645986 582.021739 
L 960.625665 603.349812 
L 965.605344 613.634232 
L 970.585023 611.323806 
L 975.564703 610.986175 
L 980.544382 606.381152 
L 985.524061 595.276695 
L 995.483419 574.821056 
L 1000.463098 567.411858 
L 1005.442777 564.776781 
L 1010.422457 570.524348 
L 1015.402136 586.465734 
L 1020.381815 599.147626 
L 1025.361494 615.579545 
L 1030.341173 620.329569 
L 1035.320852 615.181307 
L 1040.300531 609.231093 
L 1045.280211 593.836558 
L 1050.25989 582.502255 
L 1055.239569 574.833471 
L 1060.219248 566.595856 
L 1065.198927 564.360033 
L 1070.178606 573.338314 
L 1075.158285 584.615057 
L 1080.137965 604.19118 
L 1085.117644 616.796099 
L 1090.097323 614.199 
L 1095.077002 610.617958 
L 1100.056681 609.577217 
L 1105.03636 594.411315 
L 1110.016039 583.462722 
L 1114.995719 573.017782 
L 1119.975398 566.988903 
L 1119.975398 566.988903 
" style="fill:none;stroke:#0000ff;stroke-linecap:square;stroke-width:1.5;"/>
   </g>
   <g id="line2d_38">
    <defs>
     <path d="M 0 3 
C 0.795609 3 1.55874 2.683901 2.12132 2.12132 
C 2.683901 1.55874 3 0.795609 3 0 
C 3 -0.795609 2.683901 -1.55874 2.12132 -2.12132 
C 1.55874 -2.683901 0.795609 -3 0 -3 
C -0.795609 -3 -1.55874 -2.683901 -2.12132 -2.12132 
C -2.683901 -1.55874 -3 -0.795609 -3 0 
C -3 0.795609 -2.683901 1.55874 -2.12132 2.12132 
C -1.55874 2.683901 -0.795609 3 0 3 
z
" id="m5b58011500" style="stroke:#ff0000;"/>
    </defs>
    <g clip-path="url(#pa206f1df2c)">
     <use style="fill:#ff0000;stroke:#ff0000;" x="129.019248" xlink:href="#m5b58011500" y="639.849091"/>
     <use style="fill:#ff0000;stroke:#ff0000;" x="168.856681" xlink:href="#m5b58011500" y="639.849091"/>
     <use style="fill:#ff0000;stroke:#ff0000;" x="178.816039" xlink:href="#m5b58011500" y="639.849091"/>
     <use style="fill:#ff0000;stroke:#ff0000;" x="188.775398" xlink:href="#m5b58011500" y="639.849091"/>
     <use style="fill:#ff0000;stroke:#ff0000;" x="243.551868" xlink:href="#m5b58011500" y="639.849091"/>
     <use style="fill:#ff0000;stroke:#ff0000;" x="288.368981" xlink:href="#m5b58011500" y="639.849091"/>
     <use style="fill:#ff0000;stroke:#ff0000;" x="298.328339" xlink:href="#m5b58011500" y="639.849091"/>
     <use style="fill:#ff0000;stroke:#ff0000;" x="308.287697" xlink:href="#m5b58011500" y="639.849091"/>
     <use style="fill:#ff0000;stroke:#ff0000;" x="313.267376" xlink:href="#m5b58011500" y="639.849091"/>
     <use style="fill:#ff0000;stroke:#ff0000;" x="328.206414" xlink:href="#m5b58011500" y="639.849091"/>
     <use style="fill:#ff0000;stroke:#ff0000;" x="333.186093" xlink:href="#m5b58011500" y="639.849091"/>
     <use style="fill:#ff0000;stroke:#ff0000;" x="338.165772" xlink:href="#m5b58011500" y="639.849091"/>
     <use style="fill:#ff0000;stroke:#ff0000;" x="343.145451" xlink:href="#m5b58011500" y="639.849091"/>
     <use style="fill:#ff0000;stroke:#ff0000;" x="348.12513" xlink:href="#m5b58011500" y="639.849091"/>
     <use style="fill:#ff0000;stroke:#ff0000;" x="358.084489" xlink:href="#m5b58011500" y="639.849091"/>
     <use style="fill:#ff0000;stroke:#ff0000;" x="373.023526" xlink:href="#m5b58011500" y="639.849091"/>
     <use style="fill:#ff0000;stroke:#ff0000;" x="387.962564" xlink:href="#m5b58011500" y="639.849091"/>
     <use style="fill:#ff0000;stroke:#ff0000;" x="422.820318" xlink:href="#m5b58011500" y="639.849091"/>
     <use style="fill:#ff0000;stroke:#ff0000;" x="427.799997" xlink:href="#m5b58011500" y="639.849091"/>
     <use style="fill:#ff0000;stroke:#ff0000;" x="437.759355" xlink:href="#m5b58011500" y="639.849091"/>
     <use style="fill:#ff0000;stroke:#ff0000;" x="442.739034" xlink:href="#m5b58011500" y="639.849091"/>
     <use style="fill:#ff0000;stroke:#ff0000;" x="457.678072" xlink:href="#m5b58011500" y="639.849091"/>
     <use style="fill:#ff0000;stroke:#ff0000;" x="497.515505" xlink:href="#m5b58011500" y="639.849091"/>
     <use style="fill:#ff0000;stroke:#ff0000;" x="502.495184" xlink:href="#m5b58011500" y="639.849091"/>
     <use style="fill:#ff0000;stroke:#ff0000;" x="562.251334" xlink:href="#m5b58011500" y="639.849091"/>
     <use style="fill:#ff0000;stroke:#ff0000;" x="567.231013" xlink:href="#m5b58011500" y="639.849091"/>
     <use style="fill:#ff0000;stroke:#ff0000;" x="587.149729" xlink:href="#m5b58011500" y="639.849091"/>
     <use style="fill:#ff0000;stroke:#ff0000;" x="592.129408" xlink:href="#m5b58011500" y="639.849091"/>
     <use style="fill:#ff0000;stroke:#ff0000;" x="602.088767" xlink:href="#m5b58011500" y="639.849091"/>
     <use style="fill:#ff0000;stroke:#ff0000;" x="607.068446" xlink:href="#m5b58011500" y="639.849091"/>
     <use style="fill:#ff0000;stroke:#ff0000;" x="656.865237" xlink:href="#m5b58011500" y="639.849091"/>
     <use style="fill:#ff0000;stroke:#ff0000;" x="671.804275" xlink:href="#m5b58011500" y="639.849091"/>
     <use style="fill:#ff0000;stroke:#ff0000;" x="711.641708" xlink:href="#m5b58011500" y="639.849091"/>
     <use style="fill:#ff0000;stroke:#ff0000;" x="836.133686" xlink:href="#m5b58011500" y="639.849091"/>
     <use style="fill:#ff0000;stroke:#ff0000;" x="856.052403" xlink:href="#m5b58011500" y="639.849091"/>
     <use style="fill:#ff0000;stroke:#ff0000;" x="885.930478" xlink:href="#m5b58011500" y="639.849091"/>
     <use style="fill:#ff0000;stroke:#ff0000;" x="890.910157" xlink:href="#m5b58011500" y="639.849091"/>
     <use style="fill:#ff0000;stroke:#ff0000;" x="1005.442777" xlink:href="#m5b58011500" y="639.849091"/>
     <use style="fill:#ff0000;stroke:#ff0000;" x="1070.178606" xlink:href="#m5b58011500" y="639.849091"/>
     <use style="fill:#ff0000;stroke:#ff0000;" x="1075.158285" xlink:href="#m5b58011500" y="639.849091"/>
    </g>
   </g>
   <g id="patch_9">
    <path d="M 53.328125 645.74 
L 53.328125 516.14 
" style="fill:none;stroke:#000000;stroke-linecap:square;stroke-linejoin:miter;stroke-width:0.8;"/>
   </g>
   <g id="patch_10">
    <path d="M 1170.768125 645.74 
L 1170.768125 516.14 
" style="fill:none;stroke:#000000;stroke-linecap:square;stroke-linejoin:miter;stroke-width:0.8;"/>
   </g>
   <g id="patch_11">
    <path d="M 53.328125 645.74 
L 1170.768125 645.74 
" style="fill:none;stroke:#000000;stroke-linecap:square;stroke-linejoin:miter;stroke-width:0.8;"/>
   </g>
   <g id="patch_12">
    <path d="M 53.328125 516.14 
L 1170.768125 516.14 
" style="fill:none;stroke:#000000;stroke-linecap:square;stroke-linejoin:miter;stroke-width:0.8;"/>
   </g>
   <g id="legend_2">
    <g id="patch_13">
     <path d="M 60.328125 582.8525 
L 151.340625 582.8525 
Q 153.340625 582.8525 153.340625 580.8525 
L 153.340625 523.14 
Q 153.340625 521.14 151.340625 521.14 
L 60.328125 521.14 
Q 58.328125 521.14 58.328125 523.14 
L 58.328125 580.8525 
Q 58.328125 582.8525 60.328125 582.8525 
z
" style="fill:#ffffff;opacity:0.8;stroke:#cccccc;stroke-linejoin:miter;"/>
    </g>
    <g id="line2d_39">
     <path d="M 62.328125 529.238437 
L 82.328125 529.238437 
" style="fill:none;stroke:#ff0000;stroke-linecap:square;stroke-width:1.5;"/>
    </g>
    <g id="line2d_40"/>
    <g id="text_32">
     <!-- Maxmimum -->
     <defs>
      <path d="M 9.8125 72.90625 
L 24.515625 72.90625 
L 43.109375 23.296875 
L 61.8125 72.90625 
L 76.515625 72.90625 
L 76.515625 0 
L 66.890625 0 
L 66.890625 64.015625 
L 48.09375 14.015625 
L 38.1875 14.015625 
L 19.390625 64.015625 
L 19.390625 0 
L 9.8125 0 
z
" id="DejaVuSans-4d"/>
      <path d="M 54.890625 54.6875 
L 35.109375 28.078125 
L 55.90625 0 
L 45.3125 0 
L 29.390625 21.484375 
L 13.484375 0 
L 2.875 0 
L 24.125 28.609375 
L 4.6875 54.6875 
L 15.28125 54.6875 
L 29.78125 35.203125 
L 44.28125 54.6875 
z
" id="DejaVuSans-78"/>
     </defs>
     <g transform="translate(90.328125 532.738437)scale(0.1 -0.1)">
      <use xlink:href="#DejaVuSans-4d"/>
      <use x="86.279297" xlink:href="#DejaVuSans-61"/>
      <use x="147.558594" xlink:href="#DejaVuSans-78"/>
      <use x="206.738281" xlink:href="#DejaVuSans-6d"/>
      <use x="304.150391" xlink:href="#DejaVuSans-69"/>
      <use x="331.933594" xlink:href="#DejaVuSans-6d"/>
      <use x="429.345703" xlink:href="#DejaVuSans-75"/>
      <use x="492.724609" xlink:href="#DejaVuSans-6d"/>
     </g>
    </g>
    <g id="line2d_41">
     <path d="M 62.328125 543.916562 
L 82.328125 543.916562 
" style="fill:none;stroke:#008000;stroke-linecap:square;stroke-width:1.5;"/>
    </g>
    <g id="line2d_42"/>
    <g id="text_33">
     <!-- Average -->
     <defs>
      <path d="M 34.1875 63.1875 
L 20.796875 26.90625 
L 47.609375 26.90625 
z
M 28.609375 72.90625 
L 39.796875 72.90625 
L 67.578125 0 
L 57.328125 0 
L 50.6875 18.703125 
L 17.828125 18.703125 
L 11.1875 0 
L 0.78125 0 
z
" id="DejaVuSans-41"/>
      <path d="M 2.984375 54.6875 
L 12.5 54.6875 
L 29.59375 8.796875 
L 46.6875 54.6875 
L 56.203125 54.6875 
L 35.6875 0 
L 23.484375 0 
z
" id="DejaVuSans-76"/>
     </defs>
     <g transform="translate(90.328125 547.416562)scale(0.1 -0.1)">
      <use xlink:href="#DejaVuSans-41"/>
      <use x="68.330078" xlink:href="#DejaVuSans-76"/>
      <use x="127.509766" xlink:href="#DejaVuSans-65"/>
      <use x="189.033203" xlink:href="#DejaVuSans-72"/>
      <use x="230.146484" xlink:href="#DejaVuSans-61"/>
      <use x="291.425781" xlink:href="#DejaVuSans-67"/>
      <use x="354.902344" xlink:href="#DejaVuSans-65"/>
     </g>
    </g>
    <g id="line2d_43">
     <path d="M 62.328125 558.594687 
L 82.328125 558.594687 
" style="fill:none;stroke:#0000ff;stroke-linecap:square;stroke-width:1.5;"/>
    </g>
    <g id="line2d_44"/>
    <g id="text_34">
     <!-- Minimum -->
     <g transform="translate(90.328125 562.094687)scale(0.1 -0.1)">
      <use xlink:href="#DejaVuSans-4d"/>
      <use x="86.279297" xlink:href="#DejaVuSans-69"/>
      <use x="114.0625" xlink:href="#DejaVuSans-6e"/>
      <use x="177.441406" xlink:href="#DejaVuSans-69"/>
      <use x="205.224609" xlink:href="#DejaVuSans-6d"/>
      <use x="302.636719" xlink:href="#DejaVuSans-75"/>
      <use x="366.015625" xlink:href="#DejaVuSans-6d"/>
     </g>
    </g>
    <g id="line2d_45"/>
    <g id="line2d_46">
     <g>
      <use style="fill:#ff0000;stroke:#ff0000;" x="72.328125" xlink:href="#m5b58011500" y="573.272812"/>
     </g>
    </g>
    <g id="text_35">
     <!-- Disasters -->
     <g transform="translate(90.328125 576.772812)scale(0.1 -0.1)">
      <use xlink:href="#DejaVuSans-44"/>
      <use x="77.001953" xlink:href="#DejaVuSans-69"/>
      <use x="104.785156" xlink:href="#DejaVuSans-73"/>
      <use x="156.884766" xlink:href="#DejaVuSans-61"/>
      <use x="218.164062" xlink:href="#DejaVuSans-73"/>
      <use x="270.263672" xlink:href="#DejaVuSans-74"/>
      <use x="309.472656" xlink:href="#DejaVuSans-65"/>
      <use x="370.996094" xlink:href="#DejaVuSans-72"/>
      <use x="412.109375" xlink:href="#DejaVuSans-73"/>
     </g>
    </g>
   </g>
  </g>
 </g>
 <defs>
  <clipPath id="p5a20cbc9c1">
   <rect height="498.96" width="1116" x="53.328125" y="10.7"/>
  </clipPath>
  <clipPath id="pa206f1df2c">
   <rect height="129.6" width="1117.44" x="53.328125" y="516.14"/>
  </clipPath>
 </defs>
</svg>
