<?xml version="1.0" encoding="utf-8" standalone="no"?>
<!DOCTYPE svg PUBLIC "-//W3C//DTD SVG 1.1//EN"
  "http://www.w3.org/Graphics/SVG/1.1/DTD/svg11.dtd">
<!-- Created with matplotlib (http://matplotlib.org/) -->
<svg height="669pt" version="1.1" viewBox="0 0 1175 669" width="1175pt" xmlns="http://www.w3.org/2000/svg" xmlns:xlink="http://www.w3.org/1999/xlink">
 <defs>
  <style type="text/css">
*{stroke-linecap:butt;stroke-linejoin:round;}
  </style>
 </defs>
 <g id="figure_1">
  <g id="patch_1">
   <path d="M 0 669.618125 
L 1175.105625 669.618125 
L 1175.105625 -0 
L 0 -0 
z
" style="fill:none;"/>
  </g>
  <g id="axes_1">
   <g id="patch_2">
    <path d="M 46.965625 509.66 
L 1162.965625 509.66 
L 1162.965625 10.7 
L 46.965625 10.7 
z
" style="fill:none;"/>
   </g>
   <g id="matplotlib.axis_1">
    <g id="xtick_1">
     <g id="line2d_1">
      <defs>
       <path d="M 0 0 
L 0 3.5 
" id="m4900a7090f" style="stroke:#000000;stroke-width:0.8;"/>
      </defs>
      <g>
       <use style="stroke:#000000;stroke-width:0.8;" x="97.692898" xlink:href="#m4900a7090f" y="509.66"/>
      </g>
     </g>
     <g id="text_1">
      <!-- 0 -->
      <defs>
       <path d="M 31.78125 66.40625 
Q 24.171875 66.40625 20.328125 58.90625 
Q 16.5 51.421875 16.5 36.375 
Q 16.5 21.390625 20.328125 13.890625 
Q 24.171875 6.390625 31.78125 6.390625 
Q 39.453125 6.390625 43.28125 13.890625 
Q 47.125 21.390625 47.125 36.375 
Q 47.125 51.421875 43.28125 58.90625 
Q 39.453125 66.40625 31.78125 66.40625 
z
M 31.78125 74.21875 
Q 44.046875 74.21875 50.515625 64.515625 
Q 56.984375 54.828125 56.984375 36.375 
Q 56.984375 17.96875 50.515625 8.265625 
Q 44.046875 -1.421875 31.78125 -1.421875 
Q 19.53125 -1.421875 13.0625 8.265625 
Q 6.59375 17.96875 6.59375 36.375 
Q 6.59375 54.828125 13.0625 64.515625 
Q 19.53125 74.21875 31.78125 74.21875 
z
" id="DejaVuSans-30"/>
      </defs>
      <g transform="translate(94.511648 524.258437)scale(0.1 -0.1)">
       <use xlink:href="#DejaVuSans-30"/>
      </g>
     </g>
    </g>
    <g id="xtick_2">
     <g id="line2d_2">
      <g>
       <use style="stroke:#000000;stroke-width:0.8;" x="340.407121" xlink:href="#m4900a7090f" y="509.66"/>
      </g>
     </g>
     <g id="text_2">
      <!-- 50 -->
      <defs>
       <path d="M 10.796875 72.90625 
L 49.515625 72.90625 
L 49.515625 64.59375 
L 19.828125 64.59375 
L 19.828125 46.734375 
Q 21.96875 47.46875 24.109375 47.828125 
Q 26.265625 48.1875 28.421875 48.1875 
Q 40.625 48.1875 47.75 41.5 
Q 54.890625 34.8125 54.890625 23.390625 
Q 54.890625 11.625 47.5625 5.09375 
Q 40.234375 -1.421875 26.90625 -1.421875 
Q 22.3125 -1.421875 17.546875 -0.640625 
Q 12.796875 0.140625 7.71875 1.703125 
L 7.71875 11.625 
Q 12.109375 9.234375 16.796875 8.0625 
Q 21.484375 6.890625 26.703125 6.890625 
Q 35.15625 6.890625 40.078125 11.328125 
Q 45.015625 15.765625 45.015625 23.390625 
Q 45.015625 31 40.078125 35.4375 
Q 35.15625 39.890625 26.703125 39.890625 
Q 22.75 39.890625 18.8125 39.015625 
Q 14.890625 38.140625 10.796875 36.28125 
z
" id="DejaVuSans-35"/>
      </defs>
      <g transform="translate(334.044621 524.258437)scale(0.1 -0.1)">
       <use xlink:href="#DejaVuSans-35"/>
       <use x="63.623047" xlink:href="#DejaVuSans-30"/>
      </g>
     </g>
    </g>
    <g id="xtick_3">
     <g id="line2d_3">
      <g>
       <use style="stroke:#000000;stroke-width:0.8;" x="583.121345" xlink:href="#m4900a7090f" y="509.66"/>
      </g>
     </g>
     <g id="text_3">
      <!-- 100 -->
      <defs>
       <path d="M 12.40625 8.296875 
L 28.515625 8.296875 
L 28.515625 63.921875 
L 10.984375 60.40625 
L 10.984375 69.390625 
L 28.421875 72.90625 
L 38.28125 72.90625 
L 38.28125 8.296875 
L 54.390625 8.296875 
L 54.390625 0 
L 12.40625 0 
z
" id="DejaVuSans-31"/>
      </defs>
      <g transform="translate(573.577595 524.258437)scale(0.1 -0.1)">
       <use xlink:href="#DejaVuSans-31"/>
       <use x="63.623047" xlink:href="#DejaVuSans-30"/>
       <use x="127.246094" xlink:href="#DejaVuSans-30"/>
      </g>
     </g>
    </g>
    <g id="xtick_4">
     <g id="line2d_4">
      <g>
       <use style="stroke:#000000;stroke-width:0.8;" x="825.835568" xlink:href="#m4900a7090f" y="509.66"/>
      </g>
     </g>
     <g id="text_4">
      <!-- 150 -->
      <g transform="translate(816.291818 524.258437)scale(0.1 -0.1)">
       <use xlink:href="#DejaVuSans-31"/>
       <use x="63.623047" xlink:href="#DejaVuSans-35"/>
       <use x="127.246094" xlink:href="#DejaVuSans-30"/>
      </g>
     </g>
    </g>
    <g id="xtick_5">
     <g id="line2d_5">
      <g>
       <use style="stroke:#000000;stroke-width:0.8;" x="1068.549792" xlink:href="#m4900a7090f" y="509.66"/>
      </g>
     </g>
     <g id="text_5">
      <!-- 200 -->
      <defs>
       <path d="M 19.1875 8.296875 
L 53.609375 8.296875 
L 53.609375 0 
L 7.328125 0 
L 7.328125 8.296875 
Q 12.9375 14.109375 22.625 23.890625 
Q 32.328125 33.6875 34.8125 36.53125 
Q 39.546875 41.84375 41.421875 45.53125 
Q 43.3125 49.21875 43.3125 52.78125 
Q 43.3125 58.59375 39.234375 62.25 
Q 35.15625 65.921875 28.609375 65.921875 
Q 23.96875 65.921875 18.8125 64.3125 
Q 13.671875 62.703125 7.8125 59.421875 
L 7.8125 69.390625 
Q 13.765625 71.78125 18.9375 73 
Q 24.125 74.21875 28.421875 74.21875 
Q 39.75 74.21875 46.484375 68.546875 
Q 53.21875 62.890625 53.21875 53.421875 
Q 53.21875 48.921875 51.53125 44.890625 
Q 49.859375 40.875 45.40625 35.40625 
Q 44.1875 33.984375 37.640625 27.21875 
Q 31.109375 20.453125 19.1875 8.296875 
z
" id="DejaVuSans-32"/>
      </defs>
      <g transform="translate(1059.006042 524.258437)scale(0.1 -0.1)">
       <use xlink:href="#DejaVuSans-32"/>
       <use x="63.623047" xlink:href="#DejaVuSans-30"/>
       <use x="127.246094" xlink:href="#DejaVuSans-30"/>
      </g>
     </g>
    </g>
    <g id="text_6">
     <!-- Time -->
     <defs>
      <path d="M -0.296875 72.90625 
L 61.375 72.90625 
L 61.375 64.59375 
L 35.5 64.59375 
L 35.5 0 
L 25.59375 0 
L 25.59375 64.59375 
L -0.296875 64.59375 
z
" id="DejaVuSans-54"/>
      <path d="M 9.421875 54.6875 
L 18.40625 54.6875 
L 18.40625 0 
L 9.421875 0 
z
M 9.421875 75.984375 
L 18.40625 75.984375 
L 18.40625 64.59375 
L 9.421875 64.59375 
z
" id="DejaVuSans-69"/>
      <path d="M 52 44.1875 
Q 55.375 50.25 60.0625 53.125 
Q 64.75 56 71.09375 56 
Q 79.640625 56 84.28125 50.015625 
Q 88.921875 44.046875 88.921875 33.015625 
L 88.921875 0 
L 79.890625 0 
L 79.890625 32.71875 
Q 79.890625 40.578125 77.09375 44.375 
Q 74.3125 48.1875 68.609375 48.1875 
Q 61.625 48.1875 57.5625 43.546875 
Q 53.515625 38.921875 53.515625 30.90625 
L 53.515625 0 
L 44.484375 0 
L 44.484375 32.71875 
Q 44.484375 40.625 41.703125 44.40625 
Q 38.921875 48.1875 33.109375 48.1875 
Q 26.21875 48.1875 22.15625 43.53125 
Q 18.109375 38.875 18.109375 30.90625 
L 18.109375 0 
L 9.078125 0 
L 9.078125 54.6875 
L 18.109375 54.6875 
L 18.109375 46.1875 
Q 21.1875 51.21875 25.484375 53.609375 
Q 29.78125 56 35.6875 56 
Q 41.65625 56 45.828125 52.96875 
Q 50 49.953125 52 44.1875 
z
" id="DejaVuSans-6d"/>
      <path d="M 56.203125 29.59375 
L 56.203125 25.203125 
L 14.890625 25.203125 
Q 15.484375 15.921875 20.484375 11.0625 
Q 25.484375 6.203125 34.421875 6.203125 
Q 39.59375 6.203125 44.453125 7.46875 
Q 49.3125 8.734375 54.109375 11.28125 
L 54.109375 2.78125 
Q 49.265625 0.734375 44.1875 -0.34375 
Q 39.109375 -1.421875 33.890625 -1.421875 
Q 20.796875 -1.421875 13.15625 6.1875 
Q 5.515625 13.8125 5.515625 26.8125 
Q 5.515625 40.234375 12.765625 48.109375 
Q 20.015625 56 32.328125 56 
Q 43.359375 56 49.78125 48.890625 
Q 56.203125 41.796875 56.203125 29.59375 
z
M 47.21875 32.234375 
Q 47.125 39.59375 43.09375 43.984375 
Q 39.0625 48.390625 32.421875 48.390625 
Q 24.90625 48.390625 20.390625 44.140625 
Q 15.875 39.890625 15.1875 32.171875 
z
" id="DejaVuSans-65"/>
     </defs>
     <g transform="translate(592.578125 537.936562)scale(0.1 -0.1)">
      <use xlink:href="#DejaVuSans-54"/>
      <use x="61.037109" xlink:href="#DejaVuSans-69"/>
      <use x="88.820312" xlink:href="#DejaVuSans-6d"/>
      <use x="186.232422" xlink:href="#DejaVuSans-65"/>
     </g>
    </g>
   </g>
   <g id="matplotlib.axis_2">
    <g id="ytick_1">
     <g id="line2d_6">
      <defs>
       <path d="M 0 0 
L -3.5 0 
" id="m08869a994b" style="stroke:#000000;stroke-width:0.8;"/>
      </defs>
      <g>
       <use style="stroke:#000000;stroke-width:0.8;" x="46.965625" xlink:href="#m08869a994b" y="486.98"/>
      </g>
     </g>
     <g id="text_7">
      <!-- 0 -->
      <g transform="translate(33.603125 490.779219)scale(0.1 -0.1)">
       <use xlink:href="#DejaVuSans-30"/>
      </g>
     </g>
    </g>
    <g id="ytick_2">
     <g id="line2d_7">
      <g>
       <use style="stroke:#000000;stroke-width:0.8;" x="46.965625" xlink:href="#m08869a994b" y="428.826154"/>
      </g>
     </g>
     <g id="text_8">
      <!-- 25 -->
      <g transform="translate(27.240625 432.625373)scale(0.1 -0.1)">
       <use xlink:href="#DejaVuSans-32"/>
       <use x="63.623047" xlink:href="#DejaVuSans-35"/>
      </g>
     </g>
    </g>
    <g id="ytick_3">
     <g id="line2d_8">
      <g>
       <use style="stroke:#000000;stroke-width:0.8;" x="46.965625" xlink:href="#m08869a994b" y="370.672308"/>
      </g>
     </g>
     <g id="text_9">
      <!-- 50 -->
      <g transform="translate(27.240625 374.471526)scale(0.1 -0.1)">
       <use xlink:href="#DejaVuSans-35"/>
       <use x="63.623047" xlink:href="#DejaVuSans-30"/>
      </g>
     </g>
    </g>
    <g id="ytick_4">
     <g id="line2d_9">
      <g>
       <use style="stroke:#000000;stroke-width:0.8;" x="46.965625" xlink:href="#m08869a994b" y="312.518462"/>
      </g>
     </g>
     <g id="text_10">
      <!-- 75 -->
      <defs>
       <path d="M 8.203125 72.90625 
L 55.078125 72.90625 
L 55.078125 68.703125 
L 28.609375 0 
L 18.3125 0 
L 43.21875 64.59375 
L 8.203125 64.59375 
z
" id="DejaVuSans-37"/>
      </defs>
      <g transform="translate(27.240625 316.31768)scale(0.1 -0.1)">
       <use xlink:href="#DejaVuSans-37"/>
       <use x="63.623047" xlink:href="#DejaVuSans-35"/>
      </g>
     </g>
    </g>
    <g id="ytick_5">
     <g id="line2d_10">
      <g>
       <use style="stroke:#000000;stroke-width:0.8;" x="46.965625" xlink:href="#m08869a994b" y="254.364615"/>
      </g>
     </g>
     <g id="text_11">
      <!-- 100 -->
      <g transform="translate(20.878125 258.163834)scale(0.1 -0.1)">
       <use xlink:href="#DejaVuSans-31"/>
       <use x="63.623047" xlink:href="#DejaVuSans-30"/>
       <use x="127.246094" xlink:href="#DejaVuSans-30"/>
      </g>
     </g>
    </g>
    <g id="ytick_6">
     <g id="line2d_11">
      <g>
       <use style="stroke:#000000;stroke-width:0.8;" x="46.965625" xlink:href="#m08869a994b" y="196.210769"/>
      </g>
     </g>
     <g id="text_12">
      <!-- 125 -->
      <g transform="translate(20.878125 200.009988)scale(0.1 -0.1)">
       <use xlink:href="#DejaVuSans-31"/>
       <use x="63.623047" xlink:href="#DejaVuSans-32"/>
       <use x="127.246094" xlink:href="#DejaVuSans-35"/>
      </g>
     </g>
    </g>
    <g id="ytick_7">
     <g id="line2d_12">
      <g>
       <use style="stroke:#000000;stroke-width:0.8;" x="46.965625" xlink:href="#m08869a994b" y="138.056923"/>
      </g>
     </g>
     <g id="text_13">
      <!-- 150 -->
      <g transform="translate(20.878125 141.856142)scale(0.1 -0.1)">
       <use xlink:href="#DejaVuSans-31"/>
       <use x="63.623047" xlink:href="#DejaVuSans-35"/>
       <use x="127.246094" xlink:href="#DejaVuSans-30"/>
      </g>
     </g>
    </g>
    <g id="ytick_8">
     <g id="line2d_13">
      <g>
       <use style="stroke:#000000;stroke-width:0.8;" x="46.965625" xlink:href="#m08869a994b" y="79.903077"/>
      </g>
     </g>
     <g id="text_14">
      <!-- 175 -->
      <g transform="translate(20.878125 83.702296)scale(0.1 -0.1)">
       <use xlink:href="#DejaVuSans-31"/>
       <use x="63.623047" xlink:href="#DejaVuSans-37"/>
       <use x="127.246094" xlink:href="#DejaVuSans-35"/>
      </g>
     </g>
    </g>
    <g id="ytick_9">
     <g id="line2d_14">
      <g>
       <use style="stroke:#000000;stroke-width:0.8;" x="46.965625" xlink:href="#m08869a994b" y="21.749231"/>
      </g>
     </g>
     <g id="text_15">
      <!-- 200 -->
      <g transform="translate(20.878125 25.54845)scale(0.1 -0.1)">
       <use xlink:href="#DejaVuSans-32"/>
       <use x="63.623047" xlink:href="#DejaVuSans-30"/>
       <use x="127.246094" xlink:href="#DejaVuSans-30"/>
      </g>
     </g>
    </g>
    <g id="text_16">
     <!-- Refugees -->
     <defs>
      <path d="M 44.390625 34.1875 
Q 47.5625 33.109375 50.5625 29.59375 
Q 53.5625 26.078125 56.59375 19.921875 
L 66.609375 0 
L 56 0 
L 46.6875 18.703125 
Q 43.0625 26.03125 39.671875 28.421875 
Q 36.28125 30.8125 30.421875 30.8125 
L 19.671875 30.8125 
L 19.671875 0 
L 9.8125 0 
L 9.8125 72.90625 
L 32.078125 72.90625 
Q 44.578125 72.90625 50.734375 67.671875 
Q 56.890625 62.453125 56.890625 51.90625 
Q 56.890625 45.015625 53.6875 40.46875 
Q 50.484375 35.9375 44.390625 34.1875 
z
M 19.671875 64.796875 
L 19.671875 38.921875 
L 32.078125 38.921875 
Q 39.203125 38.921875 42.84375 42.21875 
Q 46.484375 45.515625 46.484375 51.90625 
Q 46.484375 58.296875 42.84375 61.546875 
Q 39.203125 64.796875 32.078125 64.796875 
z
" id="DejaVuSans-52"/>
      <path d="M 37.109375 75.984375 
L 37.109375 68.5 
L 28.515625 68.5 
Q 23.6875 68.5 21.796875 66.546875 
Q 19.921875 64.59375 19.921875 59.515625 
L 19.921875 54.6875 
L 34.71875 54.6875 
L 34.71875 47.703125 
L 19.921875 47.703125 
L 19.921875 0 
L 10.890625 0 
L 10.890625 47.703125 
L 2.296875 47.703125 
L 2.296875 54.6875 
L 10.890625 54.6875 
L 10.890625 58.5 
Q 10.890625 67.625 15.140625 71.796875 
Q 19.390625 75.984375 28.609375 75.984375 
z
" id="DejaVuSans-66"/>
      <path d="M 8.5 21.578125 
L 8.5 54.6875 
L 17.484375 54.6875 
L 17.484375 21.921875 
Q 17.484375 14.15625 20.5 10.265625 
Q 23.53125 6.390625 29.59375 6.390625 
Q 36.859375 6.390625 41.078125 11.03125 
Q 45.3125 15.671875 45.3125 23.6875 
L 45.3125 54.6875 
L 54.296875 54.6875 
L 54.296875 0 
L 45.3125 0 
L 45.3125 8.40625 
Q 42.046875 3.421875 37.71875 1 
Q 33.40625 -1.421875 27.6875 -1.421875 
Q 18.265625 -1.421875 13.375 4.4375 
Q 8.5 10.296875 8.5 21.578125 
z
M 31.109375 56 
z
" id="DejaVuSans-75"/>
      <path d="M 45.40625 27.984375 
Q 45.40625 37.75 41.375 43.109375 
Q 37.359375 48.484375 30.078125 48.484375 
Q 22.859375 48.484375 18.828125 43.109375 
Q 14.796875 37.75 14.796875 27.984375 
Q 14.796875 18.265625 18.828125 12.890625 
Q 22.859375 7.515625 30.078125 7.515625 
Q 37.359375 7.515625 41.375 12.890625 
Q 45.40625 18.265625 45.40625 27.984375 
z
M 54.390625 6.78125 
Q 54.390625 -7.171875 48.1875 -13.984375 
Q 42 -20.796875 29.203125 -20.796875 
Q 24.46875 -20.796875 20.265625 -20.09375 
Q 16.0625 -19.390625 12.109375 -17.921875 
L 12.109375 -9.1875 
Q 16.0625 -11.328125 19.921875 -12.34375 
Q 23.78125 -13.375 27.78125 -13.375 
Q 36.625 -13.375 41.015625 -8.765625 
Q 45.40625 -4.15625 45.40625 5.171875 
L 45.40625 9.625 
Q 42.625 4.78125 38.28125 2.390625 
Q 33.9375 0 27.875 0 
Q 17.828125 0 11.671875 7.65625 
Q 5.515625 15.328125 5.515625 27.984375 
Q 5.515625 40.671875 11.671875 48.328125 
Q 17.828125 56 27.875 56 
Q 33.9375 56 38.28125 53.609375 
Q 42.625 51.21875 45.40625 46.390625 
L 45.40625 54.6875 
L 54.390625 54.6875 
z
" id="DejaVuSans-67"/>
      <path d="M 44.28125 53.078125 
L 44.28125 44.578125 
Q 40.484375 46.53125 36.375 47.5 
Q 32.28125 48.484375 27.875 48.484375 
Q 21.1875 48.484375 17.84375 46.4375 
Q 14.5 44.390625 14.5 40.28125 
Q 14.5 37.15625 16.890625 35.375 
Q 19.28125 33.59375 26.515625 31.984375 
L 29.59375 31.296875 
Q 39.15625 29.25 43.1875 25.515625 
Q 47.21875 21.78125 47.21875 15.09375 
Q 47.21875 7.46875 41.1875 3.015625 
Q 35.15625 -1.421875 24.609375 -1.421875 
Q 20.21875 -1.421875 15.453125 -0.5625 
Q 10.6875 0.296875 5.421875 2 
L 5.421875 11.28125 
Q 10.40625 8.6875 15.234375 7.390625 
Q 20.0625 6.109375 24.8125 6.109375 
Q 31.15625 6.109375 34.5625 8.28125 
Q 37.984375 10.453125 37.984375 14.40625 
Q 37.984375 18.0625 35.515625 20.015625 
Q 33.0625 21.96875 24.703125 23.78125 
L 21.578125 24.515625 
Q 13.234375 26.265625 9.515625 29.90625 
Q 5.8125 33.546875 5.8125 39.890625 
Q 5.8125 47.609375 11.28125 51.796875 
Q 16.75 56 26.8125 56 
Q 31.78125 56 36.171875 55.265625 
Q 40.578125 54.546875 44.28125 53.078125 
z
" id="DejaVuSans-73"/>
     </defs>
     <g style="fill:#ff7f0e;" transform="translate(14.798438 283.588594)rotate(-90)scale(0.1 -0.1)">
      <use xlink:href="#DejaVuSans-52"/>
      <use x="69.419922" xlink:href="#DejaVuSans-65"/>
      <use x="130.943359" xlink:href="#DejaVuSans-66"/>
      <use x="166.148438" xlink:href="#DejaVuSans-75"/>
      <use x="229.527344" xlink:href="#DejaVuSans-67"/>
      <use x="293.003906" xlink:href="#DejaVuSans-65"/>
      <use x="354.527344" xlink:href="#DejaVuSans-65"/>
      <use x="416.050781" xlink:href="#DejaVuSans-73"/>
     </g>
    </g>
   </g>
   <g id="line2d_15">
    <path clip-path="url(#p1d62bd7280)" d="M 97.692898 423.423044 
L 102.547182 417.07296 
L 107.401467 419.2115 
L 112.255751 429.984115 
L 117.110036 430.872018 
L 121.96432 408.990125 
L 126.818605 336.28283 
L 131.672889 329.554301 
L 136.527173 332.241769 
L 141.381458 342.478669 
L 146.235742 344.340699 
L 151.090027 320.885832 
L 155.944311 175.145369 
L 160.798596 167.55818 
L 165.65288 171.22758 
L 170.507165 180.553918 
L 175.361449 184.368383 
L 180.215734 158.122272 
L 185.070018 154.824817 
L 189.924303 144.165278 
L 194.778587 147.341378 
L 199.632872 158.047592 
L 204.487156 164.926527 
L 209.341441 140.520795 
L 214.195725 256.253231 
L 219.05001 249.177143 
L 223.904294 252.3687 
L 228.758578 262.113622 
L 233.612863 264.870287 
L 238.467147 239.970793 
L 243.321432 234.909715 
L 248.175716 227.74088 
L 253.030001 231.066944 
L 257.884285 240.680608 
L 262.73857 243.675882 
L 267.592854 218.391116 
L 272.447139 210.313982 
L 277.301423 199.915113 
L 282.155708 202.745801 
L 287.009992 213.783247 
L 291.864277 220.023161 
L 296.718561 196.604596 
L 301.572846 183.592158 
L 306.42713 175.432873 
L 311.281414 178.922352 
L 316.135699 188.607644 
L 320.989983 192.906481 
L 325.844268 167.263116 
L 330.698552 250.3492 
L 335.552837 236.856542 
L 340.407121 238.754688 
L 345.261406 251.686021 
L 350.11569 260.585345 
L 354.969975 240.306303 
L 359.824259 358.396563 
L 364.678544 351.764064 
L 369.532828 354.312208 
L 374.387113 364.685086 
L 379.241397 366.299908 
L 384.095682 343.244201 
L 388.949966 429.800778 
L 393.80425 423.478389 
L 398.658535 425.576762 
L 403.512819 436.388607 
L 408.367104 437.205171 
L 413.221388 415.438417 
L 418.075673 465.877227 
L 422.929957 459.71152 
L 427.784242 461.582606 
L 432.638526 472.616269 
L 437.492811 473.029536 
L 442.347095 451.914012 
L 447.20138 482.151542 
L 452.055664 486.98 
L 466.618518 486.98 
L 471.472802 467.396733 
L 476.327087 474.717024 
L 481.181371 470.652179 
L 486.035655 473.506038 
L 490.88994 484.428282 
L 495.744224 483.648669 
L 500.598509 461.868725 
L 505.452793 486.98 
L 524.869931 486.98 
L 529.724216 470.650759 
L 534.5785 474.78136 
L 539.432785 470.765589 
L 544.287069 473.643614 
L 549.141354 484.562332 
L 553.995638 483.756121 
L 558.849923 461.957845 
L 563.704207 480.704985 
L 573.412776 486.98 
L 583.121345 486.98 
L 587.975629 466.523158 
L 592.829914 480.927523 
L 597.684198 484.314565 
L 602.538483 486.98 
L 612.247052 486.98 
L 617.101336 466.657551 
L 621.955621 486.98 
L 641.372759 486.98 
L 646.227043 473.767166 
L 651.081327 480.935168 
L 655.935612 484.332288 
L 660.789896 486.98 
L 670.498465 486.98 
L 675.35275 466.662167 
L 680.207034 483.523938 
L 685.061319 486.98 
L 699.624172 486.98 
L 704.478457 468.225511 
L 709.332741 486.98 
L 728.749879 486.98 
L 733.604163 470.529906 
L 738.458448 479.854991 
L 743.312732 481.827419 
L 748.167017 486.875255 
L 757.875586 486.98 
L 762.72987 466.009855 
L 767.584155 482.11772 
L 772.438439 486.98 
L 787.001293 486.98 
L 791.855577 467.376306 
L 796.709862 479.049889 
L 801.564146 479.960462 
L 806.418431 484.650021 
L 811.272715 486.98 
L 816.127 486.98 
L 820.981284 465.523659 
L 825.835568 471.038847 
L 830.689853 464.89557 
L 835.544137 466.734147 
L 840.398422 477.799543 
L 845.252706 478.155102 
L 850.106991 457.132747 
L 854.961275 480.585229 
L 859.81556 483.520795 
L 864.669844 486.98 
L 874.378413 486.98 
L 879.232698 466.450845 
L 884.086982 476.769987 
L 888.941267 474.673485 
L 893.795551 478.348578 
L 898.649836 486.98 
L 903.50412 486.848136 
L 908.358404 464.14684 
L 913.212689 486.98 
L 932.629827 486.98 
L 937.484111 474.851644 
L 942.338396 481.822859 
L 947.19268 486.390783 
L 952.046965 486.98 
L 961.755534 486.98 
L 966.609818 467.19824 
L 971.464103 486.98 
L 990.88124 486.98 
L 995.735525 470.589726 
L 1000.589809 477.915825 
L 1005.444094 477.330614 
L 1010.298378 481.515571 
L 1015.152663 486.98 
L 1020.006947 486.98 
L 1024.861232 464.838803 
L 1029.715516 486.663216 
L 1034.569801 486.98 
L 1049.132654 486.98 
L 1053.986939 470.121304 
L 1058.841223 481.836201 
L 1063.695508 486.421733 
L 1068.549792 486.98 
L 1078.258361 486.98 
L 1083.112645 467.206299 
L 1087.96693 486.98 
L 1107.384068 486.98 
L 1112.238352 476.076432 
L 1112.238352 476.076432 
" style="fill:none;stroke:#008000;stroke-dasharray:5.55,2.4;stroke-dashoffset:0;stroke-width:1.5;"/>
   </g>
   <g id="line2d_16">
    <path clip-path="url(#p1d62bd7280)" d="M 97.692898 386.955385 
L 102.547182 363.693846 
L 107.401467 286.930769 
L 112.255751 333.453846 
L 117.110036 354.389231 
L 121.96432 310.192308 
L 126.818605 410.216923 
L 131.672889 307.866154 
L 136.527173 259.016923 
L 141.381458 289.256923 
L 146.235742 47.336923 
L 151.090027 33.38 
L 155.944311 68.272308 
L 160.798596 72.924615 
L 165.65288 72.924615 
L 170.507165 40.358462 
L 175.361449 186.906154 
L 180.215734 100.838462 
L 185.070018 328.801538 
L 189.924303 300.887692 
L 194.778587 252.038462 
L 199.632872 221.798462 
L 204.487156 252.038462 
L 209.341441 191.558462 
L 214.195725 259.016923 
L 219.05001 228.776923 
L 223.904294 205.515385 
L 228.758578 317.170769 
L 233.612863 252.038462 
L 238.467147 168.296923 
L 243.321432 231.103077 
L 248.175716 210.167692 
L 253.030001 286.930769 
L 257.884285 296.235385 
L 262.73857 277.626154 
L 267.592854 168.296923 
L 272.447139 272.973846 
L 277.301423 289.256923 
L 282.155708 328.801538 
L 287.009992 165.970769 
L 291.864277 217.146154 
L 296.718561 182.253846 
L 301.572846 145.035385 
L 306.42713 331.127692 
L 311.281414 291.583077 
L 316.135699 261.343077 
L 320.989983 149.687692 
L 325.844268 296.235385 
L 330.698552 382.303077 
L 335.552837 370.672308 
L 340.407121 398.586154 
L 345.261406 349.736923 
L 350.11569 345.084615 
L 354.969975 286.930769 
L 359.824259 433.478462 
L 364.678544 417.195385 
L 369.532828 410.216923 
L 374.387113 331.127692 
L 379.241397 435.804615 
L 384.095682 421.847692 
L 388.949966 447.435385 
L 393.80425 426.5 
L 398.658535 342.758462 
L 403.512819 442.783077 
L 408.367104 442.783077 
L 413.221388 445.109231 
L 418.075673 449.761538 
L 422.929957 475.349231 
L 427.784242 424.173846 
L 432.638526 442.783077 
L 437.492811 468.370769 
L 442.347095 466.044615 
L 447.20138 466.044615 
L 452.055664 480.001538 
L 456.909949 461.392308 
L 461.764233 452.087692 
L 471.472802 466.044615 
L 481.181371 447.435385 
L 486.035655 428.826154 
L 490.88994 470.696923 
L 495.744224 475.349231 
L 500.598509 452.087692 
L 505.452793 459.066154 
L 510.307078 473.023077 
L 515.161362 447.435385 
L 520.015647 466.044615 
L 524.869931 454.413846 
L 529.724216 461.392308 
L 534.5785 470.696923 
L 539.432785 466.044615 
L 544.287069 440.456923 
L 549.141354 454.413846 
L 553.995638 440.456923 
L 558.849923 449.761538 
L 563.704207 449.761538 
L 568.558491 424.173846 
L 573.412776 456.74 
L 578.26706 445.109231 
L 583.121345 461.392308 
L 587.975629 468.370769 
L 592.829914 477.675385 
L 597.684198 456.74 
L 602.538483 473.023077 
L 607.392767 461.392308 
L 612.247052 452.087692 
L 617.101336 470.696923 
L 621.955621 463.718462 
L 626.809905 445.109231 
L 631.66419 461.392308 
L 636.518474 475.349231 
L 641.372759 477.675385 
L 646.227043 468.370769 
L 651.081327 473.023077 
L 660.789896 477.675385 
L 665.644181 473.023077 
L 670.498465 463.718462 
L 675.35275 470.696923 
L 680.207034 484.653846 
L 685.061319 468.370769 
L 689.915603 470.696923 
L 694.769888 477.675385 
L 699.624172 475.349231 
L 704.478457 480.001538 
L 709.332741 468.370769 
L 714.187026 475.349231 
L 719.04131 470.696923 
L 723.895595 456.74 
L 728.749879 466.044615 
L 733.604163 452.087692 
L 738.458448 473.023077 
L 743.312732 473.023077 
L 748.167017 468.370769 
L 753.021301 484.653846 
L 757.875586 475.349231 
L 762.72987 473.023077 
L 767.584155 468.370769 
L 772.438439 459.066154 
L 777.292724 477.675385 
L 782.147008 463.718462 
L 787.001293 475.349231 
L 791.855577 473.023077 
L 796.709862 468.370769 
L 801.564146 475.349231 
L 806.418431 475.349231 
L 811.272715 477.675385 
L 816.127 473.023077 
L 820.981284 475.349231 
L 825.835568 470.696923 
L 830.689853 456.74 
L 835.544137 463.718462 
L 840.398422 475.349231 
L 850.106991 470.696923 
L 854.961275 463.718462 
L 859.81556 466.044615 
L 864.669844 475.349231 
L 869.524129 468.370769 
L 874.378413 456.74 
L 879.232698 466.044615 
L 884.086982 468.370769 
L 888.941267 484.653846 
L 893.795551 463.718462 
L 898.649836 482.327692 
L 903.50412 482.327692 
L 908.358404 484.653846 
L 913.212689 480.001538 
L 918.066973 480.001538 
L 922.921258 482.327692 
L 927.775542 468.370769 
L 932.629827 475.349231 
L 942.338396 480.001538 
L 947.19268 477.675385 
L 952.046965 470.696923 
L 956.901249 482.327692 
L 961.755534 466.044615 
L 966.609818 480.001538 
L 981.172672 480.001538 
L 986.026956 477.675385 
L 990.88124 473.023077 
L 995.735525 477.675385 
L 1000.589809 480.001538 
L 1005.444094 477.675385 
L 1010.298378 477.675385 
L 1015.152663 484.653846 
L 1020.006947 475.349231 
L 1024.861232 470.696923 
L 1029.715516 463.718462 
L 1034.569801 466.044615 
L 1039.424085 477.675385 
L 1044.27837 475.349231 
L 1049.132654 456.74 
L 1053.986939 468.370769 
L 1058.841223 486.98 
L 1063.695508 475.349231 
L 1068.549792 486.98 
L 1078.258361 486.98 
L 1083.112645 475.349231 
L 1087.96693 475.349231 
L 1092.821214 463.718462 
L 1102.529783 486.98 
L 1112.238352 486.98 
L 1112.238352 486.98 
" style="fill:none;stroke:#ff7f0e;stroke-linecap:square;stroke-width:1.5;"/>
   </g>
   <g id="line2d_17">
    <defs>
     <path d="M 0 3 
C 0.795609 3 1.55874 2.683901 2.12132 2.12132 
C 2.683901 1.55874 3 0.795609 3 0 
C 3 -0.795609 2.683901 -1.55874 2.12132 -2.12132 
C 1.55874 -2.683901 0.795609 -3 0 -3 
C -0.795609 -3 -1.55874 -2.683901 -2.12132 -2.12132 
C -2.683901 -1.55874 -3 -0.795609 -3 0 
C -3 0.795609 -2.683901 1.55874 -2.12132 2.12132 
C -1.55874 2.683901 -0.795609 3 0 3 
z
" id="mdae6a16867" style="stroke:#008000;"/>
    </defs>
    <g clip-path="url(#p1d62bd7280)">
     <use style="fill:#008000;stroke:#008000;" x="97.692898" xlink:href="#mdae6a16867" y="423.423044"/>
     <use style="fill:#008000;stroke:#008000;" x="126.818605" xlink:href="#mdae6a16867" y="336.28283"/>
     <use style="fill:#008000;stroke:#008000;" x="155.944311" xlink:href="#mdae6a16867" y="175.145369"/>
     <use style="fill:#008000;stroke:#008000;" x="185.070018" xlink:href="#mdae6a16867" y="154.824817"/>
     <use style="fill:#008000;stroke:#008000;" x="214.195725" xlink:href="#mdae6a16867" y="256.253231"/>
     <use style="fill:#008000;stroke:#008000;" x="243.321432" xlink:href="#mdae6a16867" y="234.909715"/>
     <use style="fill:#008000;stroke:#008000;" x="272.447139" xlink:href="#mdae6a16867" y="210.313982"/>
     <use style="fill:#008000;stroke:#008000;" x="301.572846" xlink:href="#mdae6a16867" y="183.592158"/>
     <use style="fill:#008000;stroke:#008000;" x="330.698552" xlink:href="#mdae6a16867" y="250.3492"/>
     <use style="fill:#008000;stroke:#008000;" x="359.824259" xlink:href="#mdae6a16867" y="358.396563"/>
     <use style="fill:#008000;stroke:#008000;" x="388.949966" xlink:href="#mdae6a16867" y="429.800778"/>
     <use style="fill:#008000;stroke:#008000;" x="418.075673" xlink:href="#mdae6a16867" y="465.877227"/>
     <use style="fill:#008000;stroke:#008000;" x="447.20138" xlink:href="#mdae6a16867" y="482.151542"/>
     <use style="fill:#008000;stroke:#008000;" x="476.327087" xlink:href="#mdae6a16867" y="474.717024"/>
     <use style="fill:#008000;stroke:#008000;" x="505.452793" xlink:href="#mdae6a16867" y="486.98"/>
     <use style="fill:#008000;stroke:#008000;" x="534.5785" xlink:href="#mdae6a16867" y="474.78136"/>
     <use style="fill:#008000;stroke:#008000;" x="563.704207" xlink:href="#mdae6a16867" y="480.704985"/>
     <use style="fill:#008000;stroke:#008000;" x="592.829914" xlink:href="#mdae6a16867" y="480.927523"/>
     <use style="fill:#008000;stroke:#008000;" x="621.955621" xlink:href="#mdae6a16867" y="486.98"/>
     <use style="fill:#008000;stroke:#008000;" x="651.081327" xlink:href="#mdae6a16867" y="480.935168"/>
     <use style="fill:#008000;stroke:#008000;" x="680.207034" xlink:href="#mdae6a16867" y="483.523938"/>
     <use style="fill:#008000;stroke:#008000;" x="709.332741" xlink:href="#mdae6a16867" y="486.98"/>
     <use style="fill:#008000;stroke:#008000;" x="738.458448" xlink:href="#mdae6a16867" y="479.854991"/>
     <use style="fill:#008000;stroke:#008000;" x="767.584155" xlink:href="#mdae6a16867" y="482.11772"/>
     <use style="fill:#008000;stroke:#008000;" x="796.709862" xlink:href="#mdae6a16867" y="479.049889"/>
     <use style="fill:#008000;stroke:#008000;" x="825.835568" xlink:href="#mdae6a16867" y="471.038847"/>
     <use style="fill:#008000;stroke:#008000;" x="854.961275" xlink:href="#mdae6a16867" y="480.585229"/>
     <use style="fill:#008000;stroke:#008000;" x="884.086982" xlink:href="#mdae6a16867" y="476.769987"/>
     <use style="fill:#008000;stroke:#008000;" x="913.212689" xlink:href="#mdae6a16867" y="486.98"/>
     <use style="fill:#008000;stroke:#008000;" x="942.338396" xlink:href="#mdae6a16867" y="481.822859"/>
     <use style="fill:#008000;stroke:#008000;" x="971.464103" xlink:href="#mdae6a16867" y="486.98"/>
     <use style="fill:#008000;stroke:#008000;" x="1000.589809" xlink:href="#mdae6a16867" y="477.915825"/>
     <use style="fill:#008000;stroke:#008000;" x="1029.715516" xlink:href="#mdae6a16867" y="486.663216"/>
     <use style="fill:#008000;stroke:#008000;" x="1058.841223" xlink:href="#mdae6a16867" y="481.836201"/>
     <use style="fill:#008000;stroke:#008000;" x="1087.96693" xlink:href="#mdae6a16867" y="486.98"/>
    </g>
   </g>
   <g id="patch_3">
    <path d="M 46.965625 509.66 
L 46.965625 10.7 
" style="fill:none;stroke:#000000;stroke-linecap:square;stroke-linejoin:miter;stroke-width:0.8;"/>
   </g>
   <g id="patch_4">
    <path d="M 1162.965625 509.66 
L 1162.965625 10.7 
" style="fill:none;stroke:#000000;stroke-linecap:square;stroke-linejoin:miter;stroke-width:0.8;"/>
   </g>
   <g id="patch_5">
    <path d="M 46.965625 509.66 
L 1162.965625 509.66 
" style="fill:none;stroke:#000000;stroke-linecap:square;stroke-linejoin:miter;stroke-width:0.8;"/>
   </g>
   <g id="patch_6">
    <path d="M 46.965625 10.7 
L 1162.965625 10.7 
" style="fill:none;stroke:#000000;stroke-linecap:square;stroke-linejoin:miter;stroke-width:0.8;"/>
   </g>
   <g id="legend_1">
    <g id="patch_7">
     <path d="M 53.965625 62.734375 
L 201.740625 62.734375 
Q 203.740625 62.734375 203.740625 60.734375 
L 203.740625 17.7 
Q 203.740625 15.7 201.740625 15.7 
L 53.965625 15.7 
Q 51.965625 15.7 51.965625 17.7 
L 51.965625 60.734375 
Q 51.965625 62.734375 53.965625 62.734375 
z
" style="fill:#ffffff;opacity:0.8;stroke:#cccccc;stroke-linejoin:miter;"/>
    </g>
    <g id="line2d_18">
     <path d="M 55.965625 23.798437 
L 75.965625 23.798437 
" style="fill:none;stroke:#008000;stroke-dasharray:5.55,2.4;stroke-dashoffset:0;stroke-width:1.5;"/>
    </g>
    <g id="line2d_19"/>
    <g id="text_17">
     <!-- Predicted -->
     <defs>
      <path d="M 19.671875 64.796875 
L 19.671875 37.40625 
L 32.078125 37.40625 
Q 38.96875 37.40625 42.71875 40.96875 
Q 46.484375 44.53125 46.484375 51.125 
Q 46.484375 57.671875 42.71875 61.234375 
Q 38.96875 64.796875 32.078125 64.796875 
z
M 9.8125 72.90625 
L 32.078125 72.90625 
Q 44.34375 72.90625 50.609375 67.359375 
Q 56.890625 61.8125 56.890625 51.125 
Q 56.890625 40.328125 50.609375 34.8125 
Q 44.34375 29.296875 32.078125 29.296875 
L 19.671875 29.296875 
L 19.671875 0 
L 9.8125 0 
z
" id="DejaVuSans-50"/>
      <path d="M 41.109375 46.296875 
Q 39.59375 47.171875 37.8125 47.578125 
Q 36.03125 48 33.890625 48 
Q 26.265625 48 22.1875 43.046875 
Q 18.109375 38.09375 18.109375 28.8125 
L 18.109375 0 
L 9.078125 0 
L 9.078125 54.6875 
L 18.109375 54.6875 
L 18.109375 46.1875 
Q 20.953125 51.171875 25.484375 53.578125 
Q 30.03125 56 36.53125 56 
Q 37.453125 56 38.578125 55.875 
Q 39.703125 55.765625 41.0625 55.515625 
z
" id="DejaVuSans-72"/>
      <path d="M 45.40625 46.390625 
L 45.40625 75.984375 
L 54.390625 75.984375 
L 54.390625 0 
L 45.40625 0 
L 45.40625 8.203125 
Q 42.578125 3.328125 38.25 0.953125 
Q 33.9375 -1.421875 27.875 -1.421875 
Q 17.96875 -1.421875 11.734375 6.484375 
Q 5.515625 14.40625 5.515625 27.296875 
Q 5.515625 40.1875 11.734375 48.09375 
Q 17.96875 56 27.875 56 
Q 33.9375 56 38.25 53.625 
Q 42.578125 51.265625 45.40625 46.390625 
z
M 14.796875 27.296875 
Q 14.796875 17.390625 18.875 11.75 
Q 22.953125 6.109375 30.078125 6.109375 
Q 37.203125 6.109375 41.296875 11.75 
Q 45.40625 17.390625 45.40625 27.296875 
Q 45.40625 37.203125 41.296875 42.84375 
Q 37.203125 48.484375 30.078125 48.484375 
Q 22.953125 48.484375 18.875 42.84375 
Q 14.796875 37.203125 14.796875 27.296875 
z
" id="DejaVuSans-64"/>
      <path d="M 48.78125 52.59375 
L 48.78125 44.1875 
Q 44.96875 46.296875 41.140625 47.34375 
Q 37.3125 48.390625 33.40625 48.390625 
Q 24.65625 48.390625 19.8125 42.84375 
Q 14.984375 37.3125 14.984375 27.296875 
Q 14.984375 17.28125 19.8125 11.734375 
Q 24.65625 6.203125 33.40625 6.203125 
Q 37.3125 6.203125 41.140625 7.25 
Q 44.96875 8.296875 48.78125 10.40625 
L 48.78125 2.09375 
Q 45.015625 0.34375 40.984375 -0.53125 
Q 36.96875 -1.421875 32.421875 -1.421875 
Q 20.0625 -1.421875 12.78125 6.34375 
Q 5.515625 14.109375 5.515625 27.296875 
Q 5.515625 40.671875 12.859375 48.328125 
Q 20.21875 56 33.015625 56 
Q 37.15625 56 41.109375 55.140625 
Q 45.0625 54.296875 48.78125 52.59375 
z
" id="DejaVuSans-63"/>
      <path d="M 18.3125 70.21875 
L 18.3125 54.6875 
L 36.8125 54.6875 
L 36.8125 47.703125 
L 18.3125 47.703125 
L 18.3125 18.015625 
Q 18.3125 11.328125 20.140625 9.421875 
Q 21.96875 7.515625 27.59375 7.515625 
L 36.8125 7.515625 
L 36.8125 0 
L 27.59375 0 
Q 17.1875 0 13.234375 3.875 
Q 9.28125 7.765625 9.28125 18.015625 
L 9.28125 47.703125 
L 2.6875 47.703125 
L 2.6875 54.6875 
L 9.28125 54.6875 
L 9.28125 70.21875 
z
" id="DejaVuSans-74"/>
     </defs>
     <g transform="translate(83.965625 27.298437)scale(0.1 -0.1)">
      <use xlink:href="#DejaVuSans-50"/>
      <use x="60.287109" xlink:href="#DejaVuSans-72"/>
      <use x="101.369141" xlink:href="#DejaVuSans-65"/>
      <use x="162.892578" xlink:href="#DejaVuSans-64"/>
      <use x="226.369141" xlink:href="#DejaVuSans-69"/>
      <use x="254.152344" xlink:href="#DejaVuSans-63"/>
      <use x="309.132812" xlink:href="#DejaVuSans-74"/>
      <use x="348.341797" xlink:href="#DejaVuSans-65"/>
      <use x="409.865234" xlink:href="#DejaVuSans-64"/>
     </g>
    </g>
    <g id="line2d_20">
     <path d="M 55.965625 38.476562 
L 75.965625 38.476562 
" style="fill:none;stroke:#ff7f0e;stroke-linecap:square;stroke-width:1.5;"/>
    </g>
    <g id="line2d_21"/>
    <g id="text_18">
     <!-- Real Data -->
     <defs>
      <path d="M 34.28125 27.484375 
Q 23.390625 27.484375 19.1875 25 
Q 14.984375 22.515625 14.984375 16.5 
Q 14.984375 11.71875 18.140625 8.90625 
Q 21.296875 6.109375 26.703125 6.109375 
Q 34.1875 6.109375 38.703125 11.40625 
Q 43.21875 16.703125 43.21875 25.484375 
L 43.21875 27.484375 
z
M 52.203125 31.203125 
L 52.203125 0 
L 43.21875 0 
L 43.21875 8.296875 
Q 40.140625 3.328125 35.546875 0.953125 
Q 30.953125 -1.421875 24.3125 -1.421875 
Q 15.921875 -1.421875 10.953125 3.296875 
Q 6 8.015625 6 15.921875 
Q 6 25.140625 12.171875 29.828125 
Q 18.359375 34.515625 30.609375 34.515625 
L 43.21875 34.515625 
L 43.21875 35.40625 
Q 43.21875 41.609375 39.140625 45 
Q 35.0625 48.390625 27.6875 48.390625 
Q 23 48.390625 18.546875 47.265625 
Q 14.109375 46.140625 10.015625 43.890625 
L 10.015625 52.203125 
Q 14.9375 54.109375 19.578125 55.046875 
Q 24.21875 56 28.609375 56 
Q 40.484375 56 46.34375 49.84375 
Q 52.203125 43.703125 52.203125 31.203125 
z
" id="DejaVuSans-61"/>
      <path d="M 9.421875 75.984375 
L 18.40625 75.984375 
L 18.40625 0 
L 9.421875 0 
z
" id="DejaVuSans-6c"/>
      <path id="DejaVuSans-20"/>
      <path d="M 19.671875 64.796875 
L 19.671875 8.109375 
L 31.59375 8.109375 
Q 46.6875 8.109375 53.6875 14.9375 
Q 60.6875 21.78125 60.6875 36.53125 
Q 60.6875 51.171875 53.6875 57.984375 
Q 46.6875 64.796875 31.59375 64.796875 
z
M 9.8125 72.90625 
L 30.078125 72.90625 
Q 51.265625 72.90625 61.171875 64.09375 
Q 71.09375 55.28125 71.09375 36.53125 
Q 71.09375 17.671875 61.125 8.828125 
Q 51.171875 0 30.078125 0 
L 9.8125 0 
z
" id="DejaVuSans-44"/>
     </defs>
     <g transform="translate(83.965625 41.976562)scale(0.1 -0.1)">
      <use xlink:href="#DejaVuSans-52"/>
      <use x="69.419922" xlink:href="#DejaVuSans-65"/>
      <use x="130.943359" xlink:href="#DejaVuSans-61"/>
      <use x="192.222656" xlink:href="#DejaVuSans-6c"/>
      <use x="220.005859" xlink:href="#DejaVuSans-20"/>
      <use x="251.792969" xlink:href="#DejaVuSans-44"/>
      <use x="328.794922" xlink:href="#DejaVuSans-61"/>
      <use x="390.074219" xlink:href="#DejaVuSans-74"/>
      <use x="429.283203" xlink:href="#DejaVuSans-61"/>
     </g>
    </g>
    <g id="line2d_22"/>
    <g id="line2d_23">
     <g>
      <use style="fill:#008000;stroke:#008000;" x="65.965625" xlink:href="#mdae6a16867" y="53.154688"/>
     </g>
    </g>
    <g id="text_19">
     <!-- Start Point for Forecast -->
     <defs>
      <path d="M 53.515625 70.515625 
L 53.515625 60.890625 
Q 47.90625 63.578125 42.921875 64.890625 
Q 37.9375 66.21875 33.296875 66.21875 
Q 25.25 66.21875 20.875 63.09375 
Q 16.5 59.96875 16.5 54.203125 
Q 16.5 49.359375 19.40625 46.890625 
Q 22.3125 44.4375 30.421875 42.921875 
L 36.375 41.703125 
Q 47.40625 39.59375 52.65625 34.296875 
Q 57.90625 29 57.90625 20.125 
Q 57.90625 9.515625 50.796875 4.046875 
Q 43.703125 -1.421875 29.984375 -1.421875 
Q 24.8125 -1.421875 18.96875 -0.25 
Q 13.140625 0.921875 6.890625 3.21875 
L 6.890625 13.375 
Q 12.890625 10.015625 18.65625 8.296875 
Q 24.421875 6.59375 29.984375 6.59375 
Q 38.421875 6.59375 43.015625 9.90625 
Q 47.609375 13.234375 47.609375 19.390625 
Q 47.609375 24.75 44.3125 27.78125 
Q 41.015625 30.8125 33.5 32.328125 
L 27.484375 33.5 
Q 16.453125 35.6875 11.515625 40.375 
Q 6.59375 45.0625 6.59375 53.421875 
Q 6.59375 63.09375 13.40625 68.65625 
Q 20.21875 74.21875 32.171875 74.21875 
Q 37.3125 74.21875 42.625 73.28125 
Q 47.953125 72.359375 53.515625 70.515625 
z
" id="DejaVuSans-53"/>
      <path d="M 30.609375 48.390625 
Q 23.390625 48.390625 19.1875 42.75 
Q 14.984375 37.109375 14.984375 27.296875 
Q 14.984375 17.484375 19.15625 11.84375 
Q 23.34375 6.203125 30.609375 6.203125 
Q 37.796875 6.203125 41.984375 11.859375 
Q 46.1875 17.53125 46.1875 27.296875 
Q 46.1875 37.015625 41.984375 42.703125 
Q 37.796875 48.390625 30.609375 48.390625 
z
M 30.609375 56 
Q 42.328125 56 49.015625 48.375 
Q 55.71875 40.765625 55.71875 27.296875 
Q 55.71875 13.875 49.015625 6.21875 
Q 42.328125 -1.421875 30.609375 -1.421875 
Q 18.84375 -1.421875 12.171875 6.21875 
Q 5.515625 13.875 5.515625 27.296875 
Q 5.515625 40.765625 12.171875 48.375 
Q 18.84375 56 30.609375 56 
z
" id="DejaVuSans-6f"/>
      <path d="M 54.890625 33.015625 
L 54.890625 0 
L 45.90625 0 
L 45.90625 32.71875 
Q 45.90625 40.484375 42.875 44.328125 
Q 39.84375 48.1875 33.796875 48.1875 
Q 26.515625 48.1875 22.3125 43.546875 
Q 18.109375 38.921875 18.109375 30.90625 
L 18.109375 0 
L 9.078125 0 
L 9.078125 54.6875 
L 18.109375 54.6875 
L 18.109375 46.1875 
Q 21.34375 51.125 25.703125 53.5625 
Q 30.078125 56 35.796875 56 
Q 45.21875 56 50.046875 50.171875 
Q 54.890625 44.34375 54.890625 33.015625 
z
" id="DejaVuSans-6e"/>
      <path d="M 9.8125 72.90625 
L 51.703125 72.90625 
L 51.703125 64.59375 
L 19.671875 64.59375 
L 19.671875 43.109375 
L 48.578125 43.109375 
L 48.578125 34.8125 
L 19.671875 34.8125 
L 19.671875 0 
L 9.8125 0 
z
" id="DejaVuSans-46"/>
     </defs>
     <g transform="translate(83.965625 56.654688)scale(0.1 -0.1)">
      <use xlink:href="#DejaVuSans-53"/>
      <use x="63.476562" xlink:href="#DejaVuSans-74"/>
      <use x="102.685547" xlink:href="#DejaVuSans-61"/>
      <use x="163.964844" xlink:href="#DejaVuSans-72"/>
      <use x="205.078125" xlink:href="#DejaVuSans-74"/>
      <use x="244.287109" xlink:href="#DejaVuSans-20"/>
      <use x="276.074219" xlink:href="#DejaVuSans-50"/>
      <use x="336.330078" xlink:href="#DejaVuSans-6f"/>
      <use x="397.511719" xlink:href="#DejaVuSans-69"/>
      <use x="425.294922" xlink:href="#DejaVuSans-6e"/>
      <use x="488.673828" xlink:href="#DejaVuSans-74"/>
      <use x="527.882812" xlink:href="#DejaVuSans-20"/>
      <use x="559.669922" xlink:href="#DejaVuSans-66"/>
      <use x="594.875" xlink:href="#DejaVuSans-6f"/>
      <use x="656.056641" xlink:href="#DejaVuSans-72"/>
      <use x="697.169922" xlink:href="#DejaVuSans-20"/>
      <use x="728.957031" xlink:href="#DejaVuSans-46"/>
      <use x="786.429688" xlink:href="#DejaVuSans-6f"/>
      <use x="847.611328" xlink:href="#DejaVuSans-72"/>
      <use x="888.693359" xlink:href="#DejaVuSans-65"/>
      <use x="950.216797" xlink:href="#DejaVuSans-63"/>
      <use x="1005.197266" xlink:href="#DejaVuSans-61"/>
      <use x="1066.476562" xlink:href="#DejaVuSans-73"/>
      <use x="1118.576172" xlink:href="#DejaVuSans-74"/>
     </g>
    </g>
   </g>
  </g>
  <g id="axes_2">
   <g id="patch_8">
    <path d="M 46.965625 645.74 
L 1164.405625 645.74 
L 1164.405625 516.14 
L 46.965625 516.14 
z
" style="fill:none;"/>
   </g>
   <g id="matplotlib.axis_3">
    <g id="xtick_6">
     <g id="line2d_24">
      <g>
       <use style="stroke:#000000;stroke-width:0.8;" x="97.758352" xlink:href="#m4900a7090f" y="645.74"/>
      </g>
     </g>
     <g id="text_20">
      <!-- 0 -->
      <g transform="translate(94.577102 660.338437)scale(0.1 -0.1)">
       <use xlink:href="#DejaVuSans-30"/>
      </g>
     </g>
    </g>
    <g id="xtick_7">
     <g id="line2d_25">
      <g>
       <use style="stroke:#000000;stroke-width:0.8;" x="222.250331" xlink:href="#m4900a7090f" y="645.74"/>
      </g>
     </g>
     <g id="text_21">
      <!-- 25 -->
      <g transform="translate(215.887831 660.338437)scale(0.1 -0.1)">
       <use xlink:href="#DejaVuSans-32"/>
       <use x="63.623047" xlink:href="#DejaVuSans-35"/>
      </g>
     </g>
    </g>
    <g id="xtick_8">
     <g id="line2d_26">
      <g>
       <use style="stroke:#000000;stroke-width:0.8;" x="346.742309" xlink:href="#m4900a7090f" y="645.74"/>
      </g>
     </g>
     <g id="text_22">
      <!-- 50 -->
      <g transform="translate(340.379809 660.338437)scale(0.1 -0.1)">
       <use xlink:href="#DejaVuSans-35"/>
       <use x="63.623047" xlink:href="#DejaVuSans-30"/>
      </g>
     </g>
    </g>
    <g id="xtick_9">
     <g id="line2d_27">
      <g>
       <use style="stroke:#000000;stroke-width:0.8;" x="471.234288" xlink:href="#m4900a7090f" y="645.74"/>
      </g>
     </g>
     <g id="text_23">
      <!-- 75 -->
      <g transform="translate(464.871788 660.338437)scale(0.1 -0.1)">
       <use xlink:href="#DejaVuSans-37"/>
       <use x="63.623047" xlink:href="#DejaVuSans-35"/>
      </g>
     </g>
    </g>
    <g id="xtick_10">
     <g id="line2d_28">
      <g>
       <use style="stroke:#000000;stroke-width:0.8;" x="595.726267" xlink:href="#m4900a7090f" y="645.74"/>
      </g>
     </g>
     <g id="text_24">
      <!-- 100 -->
      <g transform="translate(586.182517 660.338437)scale(0.1 -0.1)">
       <use xlink:href="#DejaVuSans-31"/>
       <use x="63.623047" xlink:href="#DejaVuSans-30"/>
       <use x="127.246094" xlink:href="#DejaVuSans-30"/>
      </g>
     </g>
    </g>
    <g id="xtick_11">
     <g id="line2d_29">
      <g>
       <use style="stroke:#000000;stroke-width:0.8;" x="720.218245" xlink:href="#m4900a7090f" y="645.74"/>
      </g>
     </g>
     <g id="text_25">
      <!-- 125 -->
      <g transform="translate(710.674495 660.338437)scale(0.1 -0.1)">
       <use xlink:href="#DejaVuSans-31"/>
       <use x="63.623047" xlink:href="#DejaVuSans-32"/>
       <use x="127.246094" xlink:href="#DejaVuSans-35"/>
      </g>
     </g>
    </g>
    <g id="xtick_12">
     <g id="line2d_30">
      <g>
       <use style="stroke:#000000;stroke-width:0.8;" x="844.710224" xlink:href="#m4900a7090f" y="645.74"/>
      </g>
     </g>
     <g id="text_26">
      <!-- 150 -->
      <g transform="translate(835.166474 660.338437)scale(0.1 -0.1)">
       <use xlink:href="#DejaVuSans-31"/>
       <use x="63.623047" xlink:href="#DejaVuSans-35"/>
       <use x="127.246094" xlink:href="#DejaVuSans-30"/>
      </g>
     </g>
    </g>
    <g id="xtick_13">
     <g id="line2d_31">
      <g>
       <use style="stroke:#000000;stroke-width:0.8;" x="969.202203" xlink:href="#m4900a7090f" y="645.74"/>
      </g>
     </g>
     <g id="text_27">
      <!-- 175 -->
      <g transform="translate(959.658453 660.338437)scale(0.1 -0.1)">
       <use xlink:href="#DejaVuSans-31"/>
       <use x="63.623047" xlink:href="#DejaVuSans-37"/>
       <use x="127.246094" xlink:href="#DejaVuSans-35"/>
      </g>
     </g>
    </g>
    <g id="xtick_14">
     <g id="line2d_32">
      <g>
       <use style="stroke:#000000;stroke-width:0.8;" x="1093.694181" xlink:href="#m4900a7090f" y="645.74"/>
      </g>
     </g>
     <g id="text_28">
      <!-- 200 -->
      <g transform="translate(1084.150431 660.338437)scale(0.1 -0.1)">
       <use xlink:href="#DejaVuSans-32"/>
       <use x="63.623047" xlink:href="#DejaVuSans-30"/>
       <use x="127.246094" xlink:href="#DejaVuSans-30"/>
      </g>
     </g>
    </g>
   </g>
   <g id="matplotlib.axis_4">
    <g id="ytick_10">
     <g id="line2d_33">
      <g>
       <use style="stroke:#000000;stroke-width:0.8;" x="46.965625" xlink:href="#m08869a994b" y="627.54475"/>
      </g>
     </g>
     <g id="text_29">
      <!-- 0 -->
      <g transform="translate(33.603125 631.343969)scale(0.1 -0.1)">
       <use xlink:href="#DejaVuSans-30"/>
      </g>
     </g>
    </g>
    <g id="ytick_11">
     <g id="line2d_34">
      <g>
       <use style="stroke:#000000;stroke-width:0.8;" x="46.965625" xlink:href="#m08869a994b" y="594.432604"/>
      </g>
     </g>
     <g id="text_30">
      <!-- 10 -->
      <g transform="translate(27.240625 598.231822)scale(0.1 -0.1)">
       <use xlink:href="#DejaVuSans-31"/>
       <use x="63.623047" xlink:href="#DejaVuSans-30"/>
      </g>
     </g>
    </g>
    <g id="ytick_12">
     <g id="line2d_35">
      <g>
       <use style="stroke:#000000;stroke-width:0.8;" x="46.965625" xlink:href="#m08869a994b" y="561.320457"/>
      </g>
     </g>
     <g id="text_31">
      <!-- 20 -->
      <g transform="translate(27.240625 565.119676)scale(0.1 -0.1)">
       <use xlink:href="#DejaVuSans-32"/>
       <use x="63.623047" xlink:href="#DejaVuSans-30"/>
      </g>
     </g>
    </g>
    <g id="ytick_13">
     <g id="line2d_36">
      <g>
       <use style="stroke:#000000;stroke-width:0.8;" x="46.965625" xlink:href="#m08869a994b" y="528.208311"/>
      </g>
     </g>
     <g id="text_32">
      <!-- 30 -->
      <defs>
       <path d="M 40.578125 39.3125 
Q 47.65625 37.796875 51.625 33 
Q 55.609375 28.21875 55.609375 21.1875 
Q 55.609375 10.40625 48.1875 4.484375 
Q 40.765625 -1.421875 27.09375 -1.421875 
Q 22.515625 -1.421875 17.65625 -0.515625 
Q 12.796875 0.390625 7.625 2.203125 
L 7.625 11.71875 
Q 11.71875 9.328125 16.59375 8.109375 
Q 21.484375 6.890625 26.8125 6.890625 
Q 36.078125 6.890625 40.9375 10.546875 
Q 45.796875 14.203125 45.796875 21.1875 
Q 45.796875 27.640625 41.28125 31.265625 
Q 36.765625 34.90625 28.71875 34.90625 
L 20.21875 34.90625 
L 20.21875 43.015625 
L 29.109375 43.015625 
Q 36.375 43.015625 40.234375 45.921875 
Q 44.09375 48.828125 44.09375 54.296875 
Q 44.09375 59.90625 40.109375 62.90625 
Q 36.140625 65.921875 28.71875 65.921875 
Q 24.65625 65.921875 20.015625 65.03125 
Q 15.375 64.15625 9.8125 62.3125 
L 9.8125 71.09375 
Q 15.4375 72.65625 20.34375 73.4375 
Q 25.25 74.21875 29.59375 74.21875 
Q 40.828125 74.21875 47.359375 69.109375 
Q 53.90625 64.015625 53.90625 55.328125 
Q 53.90625 49.265625 50.4375 45.09375 
Q 46.96875 40.921875 40.578125 39.3125 
z
" id="DejaVuSans-33"/>
      </defs>
      <g transform="translate(27.240625 532.00753)scale(0.1 -0.1)">
       <use xlink:href="#DejaVuSans-33"/>
       <use x="63.623047" xlink:href="#DejaVuSans-30"/>
      </g>
     </g>
    </g>
    <g id="text_33">
     <!-- Temperature -->
     <defs>
      <path d="M 18.109375 8.203125 
L 18.109375 -20.796875 
L 9.078125 -20.796875 
L 9.078125 54.6875 
L 18.109375 54.6875 
L 18.109375 46.390625 
Q 20.953125 51.265625 25.265625 53.625 
Q 29.59375 56 35.59375 56 
Q 45.5625 56 51.78125 48.09375 
Q 58.015625 40.1875 58.015625 27.296875 
Q 58.015625 14.40625 51.78125 6.484375 
Q 45.5625 -1.421875 35.59375 -1.421875 
Q 29.59375 -1.421875 25.265625 0.953125 
Q 20.953125 3.328125 18.109375 8.203125 
z
M 48.6875 27.296875 
Q 48.6875 37.203125 44.609375 42.84375 
Q 40.53125 48.484375 33.40625 48.484375 
Q 26.265625 48.484375 22.1875 42.84375 
Q 18.109375 37.203125 18.109375 27.296875 
Q 18.109375 17.390625 22.1875 11.75 
Q 26.265625 6.109375 33.40625 6.109375 
Q 40.53125 6.109375 44.609375 11.75 
Q 48.6875 17.390625 48.6875 27.296875 
z
" id="DejaVuSans-70"/>
     </defs>
     <g style="fill:#0000ff;" transform="translate(21.160938 613.557187)rotate(-90)scale(0.1 -0.1)">
      <use xlink:href="#DejaVuSans-54"/>
      <use x="60.818359" xlink:href="#DejaVuSans-65"/>
      <use x="122.341797" xlink:href="#DejaVuSans-6d"/>
      <use x="219.753906" xlink:href="#DejaVuSans-70"/>
      <use x="283.230469" xlink:href="#DejaVuSans-65"/>
      <use x="344.753906" xlink:href="#DejaVuSans-72"/>
      <use x="385.867188" xlink:href="#DejaVuSans-61"/>
      <use x="447.146484" xlink:href="#DejaVuSans-74"/>
      <use x="486.355469" xlink:href="#DejaVuSans-75"/>
      <use x="549.734375" xlink:href="#DejaVuSans-72"/>
      <use x="590.816406" xlink:href="#DejaVuSans-65"/>
     </g>
    </g>
   </g>
   <g id="line2d_37">
    <path clip-path="url(#p73fd4ebc29)" d="M 97.758352 578.789101 
L 102.738031 564.912463 
L 107.717711 555.710266 
L 112.69739 548.928899 
L 117.677069 541.095558 
L 122.656748 532.314217 
L 127.636427 528.506652 
L 132.616106 534.886369 
L 142.575465 552.799378 
L 147.555144 570.117361 
L 152.534823 576.664957 
L 157.514502 582.029125 
L 162.494181 569.834583 
L 167.47386 561.784359 
L 172.453539 550.426561 
L 177.433219 545.26504 
L 182.412898 532.297992 
L 187.392577 528.057651 
L 192.372256 525.965625 
L 197.351935 538.075731 
L 207.311293 569.274988 
L 212.290973 573.43288 
L 217.270652 575.881524 
L 222.250331 562.832689 
L 227.23001 562.893284 
L 232.209689 550.519275 
L 237.189368 541.333966 
L 242.169047 530.621855 
L 247.148727 528.695391 
L 252.128406 531.885415 
L 257.108085 540.251861 
L 262.087764 554.768557 
L 267.067443 563.77175 
L 272.047122 579.627832 
L 277.026801 575.61762 
L 282.006481 565.414774 
L 286.98616 557.468852 
L 291.965839 544.556109 
L 296.945518 537.638319 
L 301.925197 534.725775 
L 306.904876 526.729523 
L 311.884555 530.133451 
L 316.864235 538.191292 
L 321.843914 554.547037 
L 326.823593 562.964144 
L 331.803272 570.25279 
L 336.782951 573.963006 
L 341.76263 569.38194 
L 346.742309 554.467568 
L 351.721989 542.137267 
L 356.701668 536.538003 
L 361.681347 535.903905 
L 366.661026 524.578558 
L 371.640705 533.372481 
L 376.620384 534.149623 
L 381.600064 551.3888 
L 386.579743 573.021628 
L 391.559422 570.524641 
L 396.539101 575.027893 
L 401.51878 567.509117 
L 406.498459 553.906317 
L 411.478138 547.906065 
L 416.457818 542.304814 
L 421.437497 532.239384 
L 426.417176 527.625868 
L 431.396855 531.870514 
L 436.376534 540.412124 
L 441.356213 555.254974 
L 446.335892 564.576375 
L 451.315572 575.264975 
L 456.295251 573.700427 
L 461.27493 569.545846 
L 466.254609 563.224075 
L 471.234288 550.388151 
L 476.213967 536.250258 
L 481.193646 533.569499 
L 486.173326 526.779853 
L 491.153005 530.401329 
L 496.132684 539.140286 
L 501.112363 549.547434 
L 506.092042 566.57403 
L 511.071721 572.176937 
L 516.0514 567.410774 
L 521.03108 566.436946 
L 526.010759 555.901986 
L 530.990438 543.373674 
L 535.970117 539.35386 
L 540.949796 529.275847 
L 545.929475 530.565234 
L 550.909154 532.097995 
L 555.888834 542.020381 
L 560.868513 550.868939 
L 565.848192 572.179586 
L 570.827871 574.774253 
L 575.80755 579.312604 
L 580.787229 574.629553 
L 585.766908 556.977468 
L 590.746588 546.116022 
L 595.726267 540.753179 
L 600.705946 529.256973 
L 605.685625 528.481486 
L 610.665304 530.616226 
L 615.644983 538.814132 
L 620.624662 549.405383 
L 625.604342 562.610838 
L 630.584021 576.377875 
L 635.5637 567.568057 
L 640.543379 565.585302 
L 645.523058 558.178115 
L 650.502737 546.496812 
L 655.482416 530.879799 
L 660.462096 528.556982 
L 665.441775 527.009983 
L 670.421454 529.069889 
L 675.401133 532.86123 
L 680.380812 543.090565 
L 685.360491 559.977429 
L 690.34017 572.374947 
L 695.31985 575.742453 
L 700.299529 559.229094 
L 705.279208 562.946926 
L 710.258887 544.524652 
L 715.238566 537.297926 
L 720.218245 534.422468 
L 725.197924 526.049068 
L 730.177604 533.752278 
L 735.157283 536.54893 
L 740.136962 552.983812 
L 745.116641 565.123718 
L 750.09632 573.180897 
L 755.075999 576.36761 
L 760.055678 569.259094 
L 765.035358 558.703936 
L 770.015037 548.639499 
L 774.994716 537.853879 
L 779.974395 527.671894 
L 784.954074 526.840448 
L 789.933753 534.070485 
L 794.913432 538.877707 
L 799.893112 547.94315 
L 804.872791 562.823749 
L 809.85247 574.59313 
L 814.832149 573.622613 
L 819.811828 569.363398 
L 824.791507 551.824225 
L 829.771186 549.660015 
L 834.750866 533.94201 
L 839.730545 528.606981 
L 844.710224 522.030909 
L 849.689903 529.25035 
L 854.669582 536.685352 
L 859.649261 552.704677 
L 864.628941 560.057891 
L 869.60862 571.83257 
L 874.588299 575.793445 
L 879.567978 564.507501 
L 884.547657 554.360284 
L 889.527336 547.602426 
L 894.507015 535.316827 
L 899.486695 530.840064 
L 904.466374 526.531843 
L 909.446053 529.899017 
L 914.425732 544.101148 
L 919.405411 545.569672 
L 924.38509 561.930052 
L 929.364769 568.40447 
L 934.344449 572.86302 
L 939.324128 567.206141 
L 944.303807 560.811524 
L 949.283486 544.28194 
L 954.263165 536.871111 
L 959.242844 522.605405 
L 964.222523 524.368627 
L 969.202203 535.413845 
L 974.181882 543.603141 
L 979.161561 555.201002 
L 984.14124 566.32304 
L 989.120919 573.315001 
L 994.100598 572.357729 
L 999.080277 559.583394 
L 1004.059957 555.67285 
L 1009.039636 541.344231 
L 1014.019315 538.860157 
L 1018.998994 531.7629 
L 1023.978673 527.789774 
L 1028.958352 531.898991 
L 1033.938031 534.91915 
L 1038.917711 545.08491 
L 1043.89739 559.866503 
L 1048.877069 568.097189 
L 1053.856748 570.893179 
L 1058.836427 562.966462 
L 1063.816106 559.467171 
L 1068.795785 556.163572 
L 1073.775465 542.344549 
L 1078.755144 531.13708 
L 1083.734823 527.275542 
L 1088.714502 528.435792 
L 1093.694181 539.974381 
L 1103.653539 574.921603 
L 1108.633219 578.685791 
L 1113.612898 577.346736 
L 1113.612898 577.346736 
" style="fill:none;stroke:#ff0000;stroke-linecap:square;stroke-width:1.5;"/>
   </g>
   <g id="line2d_38">
    <path clip-path="url(#p73fd4ebc29)" d="M 97.758352 598.732514 
L 102.738031 589.77836 
L 107.717711 578.238446 
L 112.69739 571.272975 
L 117.677069 563.906516 
L 122.656748 555.140075 
L 127.636427 550.512653 
L 132.616106 556.448005 
L 137.595785 564.79061 
L 142.575465 572.59415 
L 147.555144 587.940636 
L 152.534823 594.150488 
L 157.514502 603.408611 
L 162.494181 592.241242 
L 167.47386 584.540019 
L 172.453539 571.97429 
L 177.433219 566.696214 
L 182.412898 555.424509 
L 187.392577 550.800728 
L 192.372256 549.37227 
L 197.351935 558.695658 
L 202.331614 574.323266 
L 207.311293 588.083018 
L 212.290973 593.64321 
L 217.270652 596.516218 
L 222.250331 584.489357 
L 227.23001 583.177785 
L 232.209689 569.501806 
L 237.189368 563.655195 
L 242.169047 553.504666 
L 247.148727 552.695737 
L 252.128406 555.455634 
L 257.108085 561.413502 
L 262.087764 575.866954 
L 267.067443 582.974808 
L 272.047122 600.459114 
L 277.026801 596.461981 
L 282.006481 587.614813 
L 286.98616 581.495357 
L 291.965839 567.773684 
L 296.945518 561.670784 
L 301.925197 555.903641 
L 306.904876 549.830211 
L 311.884555 554.420548 
L 316.864235 559.377768 
L 321.843914 575.608348 
L 326.823593 584.362207 
L 331.803272 589.45651 
L 336.782951 596.553602 
L 341.76263 593.182951 
L 346.742309 581.243042 
L 351.721989 567.025349 
L 356.701668 560.785034 
L 361.681347 558.374139 
L 366.661026 547.878582 
L 371.640705 555.431793 
L 376.620384 557.42084 
L 381.600064 571.586878 
L 386.579743 592.740904 
L 391.559422 592.155812 
L 396.539101 596.120893 
L 401.51878 591.147879 
L 406.498459 578.745062 
L 411.478138 572.002767 
L 416.457818 564.416774 
L 421.437497 554.253663 
L 426.417176 550.917614 
L 431.396855 552.991428 
L 436.376534 562.793948 
L 441.356213 577.762294 
L 446.335892 586.199268 
L 451.315572 591.801844 
L 456.295251 595.500868 
L 461.27493 591.023708 
L 466.254609 586.039999 
L 471.234288 574.068634 
L 476.213967 559.65293 
L 481.193646 556.104632 
L 486.173326 550.48517 
L 491.153005 553.951349 
L 496.132684 562.777061 
L 501.112363 572.2872 
L 506.092042 589.428696 
L 511.071721 591.658468 
L 516.0514 589.263466 
L 521.03108 591.30781 
L 526.010759 581.594362 
L 530.990438 566.960449 
L 535.970117 562.50223 
L 540.949796 552.203359 
L 545.929475 552.164618 
L 550.909154 554.489422 
L 555.888834 562.055216 
L 560.868513 572.004754 
L 565.848192 593.287254 
L 570.827871 598.489007 
L 575.80755 603.443776 
L 580.787229 599.305685 
L 585.766908 579.095389 
L 590.746588 567.931628 
L 595.726267 564.800544 
L 600.705946 553.803338 
L 605.685625 550.809669 
L 610.665304 552.830172 
L 615.644983 560.812186 
L 620.624662 574.678559 
L 625.604342 586.437676 
L 630.584021 598.697382 
L 635.5637 589.248235 
L 640.543379 590.761129 
L 645.523058 582.500311 
L 650.502737 569.404457 
L 655.482416 555.075507 
L 660.462096 551.922568 
L 665.441775 550.879204 
L 670.421454 552.429184 
L 675.401133 556.256286 
L 680.380812 567.647526 
L 685.360491 582.203626 
L 690.34017 596.361783 
L 695.31985 599.309294 
L 700.299529 583.69003 
L 705.279208 584.869485 
L 710.258887 569.120023 
L 715.238566 559.558891 
L 720.218245 555.188088 
L 725.197924 548.454402 
L 730.177604 553.613274 
L 735.157283 557.746995 
L 740.136962 575.386828 
L 745.116641 586.129733 
L 750.09632 593.648839 
L 755.075999 598.881419 
L 760.055678 593.060436 
L 765.035358 581.054965 
L 770.015037 571.273637 
L 774.994716 561.963495 
L 779.974395 552.348721 
L 784.954074 549.462998 
L 789.933753 555.174512 
L 794.913432 561.612506 
L 799.893112 571.318008 
L 804.872791 584.276115 
L 809.85247 594.929948 
L 814.832149 597.223958 
L 819.811828 592.202832 
L 824.791507 577.05866 
L 829.771186 571.61701 
L 834.750866 557.156274 
L 839.730545 552.51362 
L 844.710224 546.36337 
L 849.689903 551.556348 
L 854.669582 559.635049 
L 859.649261 574.075256 
L 864.628941 581.101653 
L 869.60862 594.645746 
L 874.588299 600.698183 
L 879.567978 586.978066 
L 884.547657 577.652361 
L 889.527336 569.224658 
L 894.507015 558.267517 
L 899.486695 553.439767 
L 904.466374 549.537831 
L 909.446053 553.343741 
L 914.425732 566.395556 
L 919.405411 570.141864 
L 924.38509 584.616177 
L 929.364769 591.94853 
L 934.344449 595.668746 
L 939.324128 593.402816 
L 944.303807 584.435716 
L 949.283486 568.160433 
L 954.263165 560.694638 
L 959.242844 547.043493 
L 964.222523 548.612016 
L 969.202203 556.520521 
L 974.181882 566.27271 
L 979.161561 575.036171 
L 984.14124 585.061535 
L 989.120919 594.742467 
L 994.100598 594.394525 
L 999.080277 584.824452 
L 1004.059957 577.934477 
L 1009.039636 564.242604 
L 1014.019315 562.405542 
L 1018.998994 554.988422 
L 1023.978673 551.180194 
L 1028.958352 553.525196 
L 1033.938031 557.746332 
L 1038.917711 567.654149 
L 1043.89739 580.4659 
L 1048.877069 590.320406 
L 1053.856748 594.04784 
L 1058.836427 584.258566 
L 1063.816106 583.284075 
L 1068.795785 577.843749 
L 1073.775465 563.983336 
L 1078.755144 553.763934 
L 1083.734823 549.304722 
L 1088.714502 550.463978 
L 1093.694181 562.772756 
L 1098.67386 576.33218 
L 1103.653539 590.567754 
L 1108.633219 599.908194 
L 1113.612898 597.321473 
L 1113.612898 597.321473 
" style="fill:none;stroke:#008000;stroke-linecap:square;stroke-width:1.5;"/>
   </g>
   <g id="line2d_39">
    <path clip-path="url(#p73fd4ebc29)" d="M 97.758352 616.814163 
L 102.738031 611.001292 
L 107.717711 599.578032 
L 112.69739 591.569727 
L 117.677069 586.2294 
L 122.656748 577.812624 
L 127.636427 572.370974 
L 132.616106 576.487807 
L 142.575465 590.078356 
L 147.555144 604.148932 
L 152.534823 610.435472 
L 157.514502 621.892043 
L 162.494181 611.20427 
L 167.47386 606.088675 
L 172.453539 591.761447 
L 177.433219 587.967788 
L 182.412898 578.299704 
L 187.392577 571.31271 
L 192.372256 570.02829 
L 197.351935 576.451715 
L 202.331614 591.628336 
L 207.311293 603.017788 
L 212.290973 609.786077 
L 217.270652 613.884831 
L 222.250331 603.404306 
L 227.23001 600.653945 
L 232.209689 587.598257 
L 237.189368 584.659222 
L 242.169047 577.151043 
L 247.148727 573.75473 
L 252.128406 576.193109 
L 257.108085 578.021562 
L 262.087764 592.665077 
L 267.067443 599.470517 
L 272.047122 617.727926 
L 277.026801 614.177972 
L 282.006481 606.75168 
L 286.98616 602.464286 
L 291.965839 587.908849 
L 296.945518 582.480774 
L 301.925197 575.275571 
L 306.904876 571.431913 
L 311.884555 575.155043 
L 316.864235 577.857657 
L 321.843914 593.936253 
L 326.823593 602.042934 
L 331.803272 606.462478 
L 336.782951 615.98924 
L 341.76263 613.823308 
L 346.742309 603.765096 
L 351.721989 590.101204 
L 356.701668 583.901617 
L 361.681347 579.905974 
L 366.661026 570.535899 
L 371.640705 576.123905 
L 376.620384 578.246393 
L 381.600064 588.820757 
L 386.579743 609.903757 
L 391.559422 609.910678 
L 396.539101 613.019114 
L 401.51878 610.02816 
L 406.498459 600.692687 
L 411.478138 593.639237 
L 416.457818 584.279426 
L 421.437497 574.579554 
L 426.417176 572.646798 
L 431.396855 572.464019 
L 436.376534 582.127137 
L 441.356213 597.189918 
L 446.335892 604.535417 
L 451.315572 605.59547 
L 456.295251 613.38338 
L 461.27493 608.928141 
L 466.254609 607.542927 
L 471.234288 596.012682 
L 476.213967 582.526469 
L 481.193646 578.023217 
L 486.173326 571.227611 
L 491.153005 573.940821 
L 496.132684 581.999324 
L 501.112363 590.707818 
L 506.092042 608.938803 
L 511.071721 607.663356 
L 516.0514 607.160747 
L 521.03108 613.359606 
L 526.010759 604.999219 
L 530.990438 588.285996 
L 535.970117 584.364856 
L 540.949796 572.624613 
L 545.929475 571.462045 
L 550.909154 574.22691 
L 555.888834 579.238102 
L 560.868513 589.470748 
L 565.848192 610.486399 
L 570.827871 617.942128 
L 575.80755 623.293018 
L 580.787229 618.736224 
L 585.766908 597.447829 
L 590.746588 587.738652 
L 595.726267 588.551886 
L 600.705946 577.158328 
L 605.685625 571.024965 
L 610.665304 572.08356 
L 615.644983 578.680493 
L 620.624662 596.125628 
L 625.604342 605.701528 
L 630.584021 617.557961 
L 635.5637 607.495345 
L 640.543379 613.83099 
L 645.523058 605.119383 
L 650.502737 591.527675 
L 655.482416 578.506323 
L 660.462096 574.202738 
L 665.441775 574.128235 
L 670.421454 573.187519 
L 675.401133 576.653368 
L 680.380812 589.476378 
L 685.360491 600.828579 
L 690.34017 616.663039 
L 695.31985 620.287163 
L 700.299529 606.531484 
L 705.279208 605.900201 
L 710.258887 593.792215 
L 715.238566 579.174527 
L 720.218245 573.114673 
L 725.197924 569.160751 
L 730.177604 570.301134 
L 735.157283 576.274565 
L 740.136962 594.944319 
L 750.09632 611.781282 
L 755.075999 618.515697 
L 760.055678 614.125357 
L 765.035358 601.91075 
L 770.015037 594.406776 
L 774.994716 586.064502 
L 779.974395 575.757353 
L 784.954074 569.925642 
L 789.933753 573.886848 
L 794.913432 581.292379 
L 799.893112 591.31079 
L 804.872791 603.041728 
L 809.85247 613.229078 
L 814.832149 616.71784 
L 819.811828 613.481194 
L 824.791507 601.974392 
L 829.771186 592.538258 
L 834.750866 579.215586 
L 839.730545 576.233506 
L 844.710224 569.350815 
L 849.689903 570.567355 
L 854.669582 578.824862 
L 859.649261 591.691249 
L 864.628941 598.353082 
L 869.60862 613.598112 
L 874.588299 621.424334 
L 879.567978 605.781858 
L 884.547657 597.859909 
L 894.507015 579.312935 
L 899.486695 573.080236 
L 904.466374 570.457754 
L 909.446053 573.401424 
L 914.425732 584.685381 
L 919.405411 589.948226 
L 924.38509 603.108847 
L 929.364769 611.351652 
L 934.344449 614.434989 
L 939.324128 616.526716 
L 944.303807 604.872035 
L 949.283486 590.267427 
L 954.263165 582.474483 
L 959.242844 570.636891 
L 964.222523 570.602123 
L 969.202203 573.838835 
L 974.181882 585.033721 
L 979.161561 590.865101 
L 984.14124 599.988689 
L 989.120919 611.986677 
L 994.100598 613.219972 
L 999.080277 605.791626 
L 1004.059957 596.832903 
L 1009.039636 585.113521 
L 1014.019315 583.539039 
L 1018.998994 576.145759 
L 1023.978673 570.890861 
L 1028.958352 572.06568 
L 1033.938031 576.325558 
L 1038.917711 586.234698 
L 1043.89739 596.708501 
L 1048.877069 608.89387 
L 1053.856748 613.477584 
L 1058.836427 601.65476 
L 1063.816106 603.407783 
L 1068.795785 595.558615 
L 1073.775465 584.091349 
L 1078.755144 574.408033 
L 1083.734823 568.727976 
L 1088.714502 568.681287 
L 1093.694181 581.929788 
L 1098.67386 590.89424 
L 1103.653539 603.710693 
L 1108.633219 617.133662 
L 1113.612898 613.850725 
L 1113.612898 613.850725 
" style="fill:none;stroke:#0000ff;stroke-linecap:square;stroke-width:1.5;"/>
   </g>
   <g id="line2d_40">
    <defs>
     <path d="M 0 3 
C 0.795609 3 1.55874 2.683901 2.12132 2.12132 
C 2.683901 1.55874 3 0.795609 3 0 
C 3 -0.795609 2.683901 -1.55874 2.12132 -2.12132 
C 1.55874 -2.683901 0.795609 -3 0 -3 
C -0.795609 -3 -1.55874 -2.683901 -2.12132 -2.12132 
C -2.683901 -1.55874 -3 -0.795609 -3 0 
C -3 0.795609 -2.683901 1.55874 -2.12132 2.12132 
C -1.55874 2.683901 -0.795609 3 0 3 
z
" id="mfdcc3c0482" style="stroke:#ff0000;"/>
    </defs>
    <g clip-path="url(#p73fd4ebc29)">
     <use style="fill:#ff0000;stroke:#ff0000;" x="137.595785" xlink:href="#mfdcc3c0482" y="639.849091"/>
     <use style="fill:#ff0000;stroke:#ff0000;" x="147.555144" xlink:href="#mfdcc3c0482" y="639.849091"/>
     <use style="fill:#ff0000;stroke:#ff0000;" x="152.534823" xlink:href="#mfdcc3c0482" y="639.849091"/>
     <use style="fill:#ff0000;stroke:#ff0000;" x="167.47386" xlink:href="#mfdcc3c0482" y="639.849091"/>
     <use style="fill:#ff0000;stroke:#ff0000;" x="177.433219" xlink:href="#mfdcc3c0482" y="639.849091"/>
     <use style="fill:#ff0000;stroke:#ff0000;" x="182.412898" xlink:href="#mfdcc3c0482" y="639.849091"/>
     <use style="fill:#ff0000;stroke:#ff0000;" x="187.392577" xlink:href="#mfdcc3c0482" y="639.849091"/>
     <use style="fill:#ff0000;stroke:#ff0000;" x="197.351935" xlink:href="#mfdcc3c0482" y="639.849091"/>
     <use style="fill:#ff0000;stroke:#ff0000;" x="202.331614" xlink:href="#mfdcc3c0482" y="639.849091"/>
     <use style="fill:#ff0000;stroke:#ff0000;" x="217.270652" xlink:href="#mfdcc3c0482" y="639.849091"/>
     <use style="fill:#ff0000;stroke:#ff0000;" x="222.250331" xlink:href="#mfdcc3c0482" y="639.849091"/>
     <use style="fill:#ff0000;stroke:#ff0000;" x="232.209689" xlink:href="#mfdcc3c0482" y="639.849091"/>
     <use style="fill:#ff0000;stroke:#ff0000;" x="237.189368" xlink:href="#mfdcc3c0482" y="639.849091"/>
     <use style="fill:#ff0000;stroke:#ff0000;" x="242.169047" xlink:href="#mfdcc3c0482" y="639.849091"/>
     <use style="fill:#ff0000;stroke:#ff0000;" x="267.067443" xlink:href="#mfdcc3c0482" y="639.849091"/>
     <use style="fill:#ff0000;stroke:#ff0000;" x="277.026801" xlink:href="#mfdcc3c0482" y="639.849091"/>
     <use style="fill:#ff0000;stroke:#ff0000;" x="291.965839" xlink:href="#mfdcc3c0482" y="639.849091"/>
     <use style="fill:#ff0000;stroke:#ff0000;" x="296.945518" xlink:href="#mfdcc3c0482" y="639.849091"/>
     <use style="fill:#ff0000;stroke:#ff0000;" x="311.884555" xlink:href="#mfdcc3c0482" y="639.849091"/>
     <use style="fill:#ff0000;stroke:#ff0000;" x="321.843914" xlink:href="#mfdcc3c0482" y="639.849091"/>
     <use style="fill:#ff0000;stroke:#ff0000;" x="326.823593" xlink:href="#mfdcc3c0482" y="639.849091"/>
     <use style="fill:#ff0000;stroke:#ff0000;" x="331.803272" xlink:href="#mfdcc3c0482" y="639.849091"/>
     <use style="fill:#ff0000;stroke:#ff0000;" x="336.782951" xlink:href="#mfdcc3c0482" y="639.849091"/>
     <use style="fill:#ff0000;stroke:#ff0000;" x="341.76263" xlink:href="#mfdcc3c0482" y="639.849091"/>
     <use style="fill:#ff0000;stroke:#ff0000;" x="346.742309" xlink:href="#mfdcc3c0482" y="639.849091"/>
     <use style="fill:#ff0000;stroke:#ff0000;" x="356.701668" xlink:href="#mfdcc3c0482" y="639.849091"/>
     <use style="fill:#ff0000;stroke:#ff0000;" x="396.539101" xlink:href="#mfdcc3c0482" y="639.849091"/>
     <use style="fill:#ff0000;stroke:#ff0000;" x="421.437497" xlink:href="#mfdcc3c0482" y="639.849091"/>
     <use style="fill:#ff0000;stroke:#ff0000;" x="426.417176" xlink:href="#mfdcc3c0482" y="639.849091"/>
     <use style="fill:#ff0000;stroke:#ff0000;" x="496.132684" xlink:href="#mfdcc3c0482" y="639.849091"/>
     <use style="fill:#ff0000;stroke:#ff0000;" x="501.112363" xlink:href="#mfdcc3c0482" y="639.849091"/>
     <use style="fill:#ff0000;stroke:#ff0000;" x="545.929475" xlink:href="#mfdcc3c0482" y="639.849091"/>
     <use style="fill:#ff0000;stroke:#ff0000;" x="550.909154" xlink:href="#mfdcc3c0482" y="639.849091"/>
     <use style="fill:#ff0000;stroke:#ff0000;" x="555.888834" xlink:href="#mfdcc3c0482" y="639.849091"/>
     <use style="fill:#ff0000;stroke:#ff0000;" x="560.868513" xlink:href="#mfdcc3c0482" y="639.849091"/>
     <use style="fill:#ff0000;stroke:#ff0000;" x="565.848192" xlink:href="#mfdcc3c0482" y="639.849091"/>
     <use style="fill:#ff0000;stroke:#ff0000;" x="570.827871" xlink:href="#mfdcc3c0482" y="639.849091"/>
     <use style="fill:#ff0000;stroke:#ff0000;" x="575.80755" xlink:href="#mfdcc3c0482" y="639.849091"/>
     <use style="fill:#ff0000;stroke:#ff0000;" x="605.685625" xlink:href="#mfdcc3c0482" y="639.849091"/>
     <use style="fill:#ff0000;stroke:#ff0000;" x="610.665304" xlink:href="#mfdcc3c0482" y="639.849091"/>
     <use style="fill:#ff0000;stroke:#ff0000;" x="615.644983" xlink:href="#mfdcc3c0482" y="639.849091"/>
     <use style="fill:#ff0000;stroke:#ff0000;" x="625.604342" xlink:href="#mfdcc3c0482" y="639.849091"/>
     <use style="fill:#ff0000;stroke:#ff0000;" x="665.441775" xlink:href="#mfdcc3c0482" y="639.849091"/>
     <use style="fill:#ff0000;stroke:#ff0000;" x="670.421454" xlink:href="#mfdcc3c0482" y="639.849091"/>
     <use style="fill:#ff0000;stroke:#ff0000;" x="675.401133" xlink:href="#mfdcc3c0482" y="639.849091"/>
     <use style="fill:#ff0000;stroke:#ff0000;" x="680.380812" xlink:href="#mfdcc3c0482" y="639.849091"/>
     <use style="fill:#ff0000;stroke:#ff0000;" x="685.360491" xlink:href="#mfdcc3c0482" y="639.849091"/>
     <use style="fill:#ff0000;stroke:#ff0000;" x="690.34017" xlink:href="#mfdcc3c0482" y="639.849091"/>
     <use style="fill:#ff0000;stroke:#ff0000;" x="695.31985" xlink:href="#mfdcc3c0482" y="639.849091"/>
     <use style="fill:#ff0000;stroke:#ff0000;" x="700.299529" xlink:href="#mfdcc3c0482" y="639.849091"/>
     <use style="fill:#ff0000;stroke:#ff0000;" x="705.279208" xlink:href="#mfdcc3c0482" y="639.849091"/>
     <use style="fill:#ff0000;stroke:#ff0000;" x="710.258887" xlink:href="#mfdcc3c0482" y="639.849091"/>
     <use style="fill:#ff0000;stroke:#ff0000;" x="715.238566" xlink:href="#mfdcc3c0482" y="639.849091"/>
     <use style="fill:#ff0000;stroke:#ff0000;" x="720.218245" xlink:href="#mfdcc3c0482" y="639.849091"/>
     <use style="fill:#ff0000;stroke:#ff0000;" x="755.075999" xlink:href="#mfdcc3c0482" y="639.849091"/>
     <use style="fill:#ff0000;stroke:#ff0000;" x="809.85247" xlink:href="#mfdcc3c0482" y="639.849091"/>
     <use style="fill:#ff0000;stroke:#ff0000;" x="859.649261" xlink:href="#mfdcc3c0482" y="639.849091"/>
     <use style="fill:#ff0000;stroke:#ff0000;" x="889.527336" xlink:href="#mfdcc3c0482" y="639.849091"/>
     <use style="fill:#ff0000;stroke:#ff0000;" x="894.507015" xlink:href="#mfdcc3c0482" y="639.849091"/>
     <use style="fill:#ff0000;stroke:#ff0000;" x="899.486695" xlink:href="#mfdcc3c0482" y="639.849091"/>
     <use style="fill:#ff0000;stroke:#ff0000;" x="919.405411" xlink:href="#mfdcc3c0482" y="639.849091"/>
     <use style="fill:#ff0000;stroke:#ff0000;" x="959.242844" xlink:href="#mfdcc3c0482" y="639.849091"/>
     <use style="fill:#ff0000;stroke:#ff0000;" x="964.222523" xlink:href="#mfdcc3c0482" y="639.849091"/>
     <use style="fill:#ff0000;stroke:#ff0000;" x="979.161561" xlink:href="#mfdcc3c0482" y="639.849091"/>
     <use style="fill:#ff0000;stroke:#ff0000;" x="989.120919" xlink:href="#mfdcc3c0482" y="639.849091"/>
     <use style="fill:#ff0000;stroke:#ff0000;" x="1009.039636" xlink:href="#mfdcc3c0482" y="639.849091"/>
     <use style="fill:#ff0000;stroke:#ff0000;" x="1014.019315" xlink:href="#mfdcc3c0482" y="639.849091"/>
     <use style="fill:#ff0000;stroke:#ff0000;" x="1028.958352" xlink:href="#mfdcc3c0482" y="639.849091"/>
     <use style="fill:#ff0000;stroke:#ff0000;" x="1033.938031" xlink:href="#mfdcc3c0482" y="639.849091"/>
     <use style="fill:#ff0000;stroke:#ff0000;" x="1038.917711" xlink:href="#mfdcc3c0482" y="639.849091"/>
     <use style="fill:#ff0000;stroke:#ff0000;" x="1058.836427" xlink:href="#mfdcc3c0482" y="639.849091"/>
     <use style="fill:#ff0000;stroke:#ff0000;" x="1078.755144" xlink:href="#mfdcc3c0482" y="639.849091"/>
     <use style="fill:#ff0000;stroke:#ff0000;" x="1083.734823" xlink:href="#mfdcc3c0482" y="639.849091"/>
     <use style="fill:#ff0000;stroke:#ff0000;" x="1098.67386" xlink:href="#mfdcc3c0482" y="639.849091"/>
    </g>
   </g>
   <g id="patch_9">
    <path d="M 46.965625 645.74 
L 46.965625 516.14 
" style="fill:none;stroke:#000000;stroke-linecap:square;stroke-linejoin:miter;stroke-width:0.8;"/>
   </g>
   <g id="patch_10">
    <path d="M 1164.405625 645.74 
L 1164.405625 516.14 
" style="fill:none;stroke:#000000;stroke-linecap:square;stroke-linejoin:miter;stroke-width:0.8;"/>
   </g>
   <g id="patch_11">
    <path d="M 46.965625 645.74 
L 1164.405625 645.74 
" style="fill:none;stroke:#000000;stroke-linecap:square;stroke-linejoin:miter;stroke-width:0.8;"/>
   </g>
   <g id="patch_12">
    <path d="M 46.965625 516.14 
L 1164.405625 516.14 
" style="fill:none;stroke:#000000;stroke-linecap:square;stroke-linejoin:miter;stroke-width:0.8;"/>
   </g>
   <g id="legend_2">
    <g id="patch_13">
     <path d="M 53.965625 582.8525 
L 144.978125 582.8525 
Q 146.978125 582.8525 146.978125 580.8525 
L 146.978125 523.14 
Q 146.978125 521.14 144.978125 521.14 
L 53.965625 521.14 
Q 51.965625 521.14 51.965625 523.14 
L 51.965625 580.8525 
Q 51.965625 582.8525 53.965625 582.8525 
z
" style="fill:#ffffff;opacity:0.8;stroke:#cccccc;stroke-linejoin:miter;"/>
    </g>
    <g id="line2d_41">
     <path d="M 55.965625 529.238437 
L 75.965625 529.238437 
" style="fill:none;stroke:#ff0000;stroke-linecap:square;stroke-width:1.5;"/>
    </g>
    <g id="line2d_42"/>
    <g id="text_34">
     <!-- Maxmimum -->
     <defs>
      <path d="M 9.8125 72.90625 
L 24.515625 72.90625 
L 43.109375 23.296875 
L 61.8125 72.90625 
L 76.515625 72.90625 
L 76.515625 0 
L 66.890625 0 
L 66.890625 64.015625 
L 48.09375 14.015625 
L 38.1875 14.015625 
L 19.390625 64.015625 
L 19.390625 0 
L 9.8125 0 
z
" id="DejaVuSans-4d"/>
      <path d="M 54.890625 54.6875 
L 35.109375 28.078125 
L 55.90625 0 
L 45.3125 0 
L 29.390625 21.484375 
L 13.484375 0 
L 2.875 0 
L 24.125 28.609375 
L 4.6875 54.6875 
L 15.28125 54.6875 
L 29.78125 35.203125 
L 44.28125 54.6875 
z
" id="DejaVuSans-78"/>
     </defs>
     <g transform="translate(83.965625 532.738437)scale(0.1 -0.1)">
      <use xlink:href="#DejaVuSans-4d"/>
      <use x="86.279297" xlink:href="#DejaVuSans-61"/>
      <use x="147.558594" xlink:href="#DejaVuSans-78"/>
      <use x="206.738281" xlink:href="#DejaVuSans-6d"/>
      <use x="304.150391" xlink:href="#DejaVuSans-69"/>
      <use x="331.933594" xlink:href="#DejaVuSans-6d"/>
      <use x="429.345703" xlink:href="#DejaVuSans-75"/>
      <use x="492.724609" xlink:href="#DejaVuSans-6d"/>
     </g>
    </g>
    <g id="line2d_43">
     <path d="M 55.965625 543.916562 
L 75.965625 543.916562 
" style="fill:none;stroke:#008000;stroke-linecap:square;stroke-width:1.5;"/>
    </g>
    <g id="line2d_44"/>
    <g id="text_35">
     <!-- Average -->
     <defs>
      <path d="M 34.1875 63.1875 
L 20.796875 26.90625 
L 47.609375 26.90625 
z
M 28.609375 72.90625 
L 39.796875 72.90625 
L 67.578125 0 
L 57.328125 0 
L 50.6875 18.703125 
L 17.828125 18.703125 
L 11.1875 0 
L 0.78125 0 
z
" id="DejaVuSans-41"/>
      <path d="M 2.984375 54.6875 
L 12.5 54.6875 
L 29.59375 8.796875 
L 46.6875 54.6875 
L 56.203125 54.6875 
L 35.6875 0 
L 23.484375 0 
z
" id="DejaVuSans-76"/>
     </defs>
     <g transform="translate(83.965625 547.416562)scale(0.1 -0.1)">
      <use xlink:href="#DejaVuSans-41"/>
      <use x="68.330078" xlink:href="#DejaVuSans-76"/>
      <use x="127.509766" xlink:href="#DejaVuSans-65"/>
      <use x="189.033203" xlink:href="#DejaVuSans-72"/>
      <use x="230.146484" xlink:href="#DejaVuSans-61"/>
      <use x="291.425781" xlink:href="#DejaVuSans-67"/>
      <use x="354.902344" xlink:href="#DejaVuSans-65"/>
     </g>
    </g>
    <g id="line2d_45">
     <path d="M 55.965625 558.594687 
L 75.965625 558.594687 
" style="fill:none;stroke:#0000ff;stroke-linecap:square;stroke-width:1.5;"/>
    </g>
    <g id="line2d_46"/>
    <g id="text_36">
     <!-- Minimum -->
     <g transform="translate(83.965625 562.094687)scale(0.1 -0.1)">
      <use xlink:href="#DejaVuSans-4d"/>
      <use x="86.279297" xlink:href="#DejaVuSans-69"/>
      <use x="114.0625" xlink:href="#DejaVuSans-6e"/>
      <use x="177.441406" xlink:href="#DejaVuSans-69"/>
      <use x="205.224609" xlink:href="#DejaVuSans-6d"/>
      <use x="302.636719" xlink:href="#DejaVuSans-75"/>
      <use x="366.015625" xlink:href="#DejaVuSans-6d"/>
     </g>
    </g>
    <g id="line2d_47"/>
    <g id="line2d_48">
     <g>
      <use style="fill:#ff0000;stroke:#ff0000;" x="65.965625" xlink:href="#mfdcc3c0482" y="573.272812"/>
     </g>
    </g>
    <g id="text_37">
     <!-- Disasters -->
     <g transform="translate(83.965625 576.772812)scale(0.1 -0.1)">
      <use xlink:href="#DejaVuSans-44"/>
      <use x="77.001953" xlink:href="#DejaVuSans-69"/>
      <use x="104.785156" xlink:href="#DejaVuSans-73"/>
      <use x="156.884766" xlink:href="#DejaVuSans-61"/>
      <use x="218.164062" xlink:href="#DejaVuSans-73"/>
      <use x="270.263672" xlink:href="#DejaVuSans-74"/>
      <use x="309.472656" xlink:href="#DejaVuSans-65"/>
      <use x="370.996094" xlink:href="#DejaVuSans-72"/>
      <use x="412.109375" xlink:href="#DejaVuSans-73"/>
     </g>
    </g>
   </g>
  </g>
 </g>
 <defs>
  <clipPath id="p1d62bd7280">
   <rect height="498.96" width="1116" x="46.965625" y="10.7"/>
  </clipPath>
  <clipPath id="p73fd4ebc29">
   <rect height="129.6" width="1117.44" x="46.965625" y="516.14"/>
  </clipPath>
 </defs>
</svg>
