<?xml version="1.0" encoding="utf-8" standalone="no"?>
<!DOCTYPE svg PUBLIC "-//W3C//DTD SVG 1.1//EN"
  "http://www.w3.org/Graphics/SVG/1.1/DTD/svg11.dtd">
<!-- Created with matplotlib (http://matplotlib.org/) -->
<svg height="669pt" version="1.1" viewBox="0 0 1181 669" width="1181pt" xmlns="http://www.w3.org/2000/svg" xmlns:xlink="http://www.w3.org/1999/xlink">
 <defs>
  <style type="text/css">
*{stroke-linecap:butt;stroke-linejoin:round;}
  </style>
 </defs>
 <g id="figure_1">
  <g id="patch_1">
   <path d="M 0 669.618125 
L 1181.468125 669.618125 
L 1181.468125 -0 
L 0 -0 
z
" style="fill:none;"/>
  </g>
  <g id="axes_1">
   <g id="patch_2">
    <path d="M 53.328125 509.66 
L 1169.328125 509.66 
L 1169.328125 10.7 
L 53.328125 10.7 
z
" style="fill:none;"/>
   </g>
   <g id="matplotlib.axis_1">
    <g id="xtick_1">
     <g id="line2d_1">
      <defs>
       <path d="M 0 0 
L 0 3.5 
" id="m190a49e4b7" style="stroke:#000000;stroke-width:0.8;"/>
      </defs>
      <g>
       <use style="stroke:#000000;stroke-width:0.8;" x="104.055398" xlink:href="#m190a49e4b7" y="509.66"/>
      </g>
     </g>
     <g id="text_1">
      <!-- 0 -->
      <defs>
       <path d="M 31.78125 66.40625 
Q 24.171875 66.40625 20.328125 58.90625 
Q 16.5 51.421875 16.5 36.375 
Q 16.5 21.390625 20.328125 13.890625 
Q 24.171875 6.390625 31.78125 6.390625 
Q 39.453125 6.390625 43.28125 13.890625 
Q 47.125 21.390625 47.125 36.375 
Q 47.125 51.421875 43.28125 58.90625 
Q 39.453125 66.40625 31.78125 66.40625 
z
M 31.78125 74.21875 
Q 44.046875 74.21875 50.515625 64.515625 
Q 56.984375 54.828125 56.984375 36.375 
Q 56.984375 17.96875 50.515625 8.265625 
Q 44.046875 -1.421875 31.78125 -1.421875 
Q 19.53125 -1.421875 13.0625 8.265625 
Q 6.59375 17.96875 6.59375 36.375 
Q 6.59375 54.828125 13.0625 64.515625 
Q 19.53125 74.21875 31.78125 74.21875 
z
" id="DejaVuSans-30"/>
      </defs>
      <g transform="translate(100.874148 524.258437)scale(0.1 -0.1)">
       <use xlink:href="#DejaVuSans-30"/>
      </g>
     </g>
    </g>
    <g id="xtick_2">
     <g id="line2d_2">
      <g>
       <use style="stroke:#000000;stroke-width:0.8;" x="346.769621" xlink:href="#m190a49e4b7" y="509.66"/>
      </g>
     </g>
     <g id="text_2">
      <!-- 50 -->
      <defs>
       <path d="M 10.796875 72.90625 
L 49.515625 72.90625 
L 49.515625 64.59375 
L 19.828125 64.59375 
L 19.828125 46.734375 
Q 21.96875 47.46875 24.109375 47.828125 
Q 26.265625 48.1875 28.421875 48.1875 
Q 40.625 48.1875 47.75 41.5 
Q 54.890625 34.8125 54.890625 23.390625 
Q 54.890625 11.625 47.5625 5.09375 
Q 40.234375 -1.421875 26.90625 -1.421875 
Q 22.3125 -1.421875 17.546875 -0.640625 
Q 12.796875 0.140625 7.71875 1.703125 
L 7.71875 11.625 
Q 12.109375 9.234375 16.796875 8.0625 
Q 21.484375 6.890625 26.703125 6.890625 
Q 35.15625 6.890625 40.078125 11.328125 
Q 45.015625 15.765625 45.015625 23.390625 
Q 45.015625 31 40.078125 35.4375 
Q 35.15625 39.890625 26.703125 39.890625 
Q 22.75 39.890625 18.8125 39.015625 
Q 14.890625 38.140625 10.796875 36.28125 
z
" id="DejaVuSans-35"/>
      </defs>
      <g transform="translate(340.407121 524.258437)scale(0.1 -0.1)">
       <use xlink:href="#DejaVuSans-35"/>
       <use x="63.623047" xlink:href="#DejaVuSans-30"/>
      </g>
     </g>
    </g>
    <g id="xtick_3">
     <g id="line2d_3">
      <g>
       <use style="stroke:#000000;stroke-width:0.8;" x="589.483845" xlink:href="#m190a49e4b7" y="509.66"/>
      </g>
     </g>
     <g id="text_3">
      <!-- 100 -->
      <defs>
       <path d="M 12.40625 8.296875 
L 28.515625 8.296875 
L 28.515625 63.921875 
L 10.984375 60.40625 
L 10.984375 69.390625 
L 28.421875 72.90625 
L 38.28125 72.90625 
L 38.28125 8.296875 
L 54.390625 8.296875 
L 54.390625 0 
L 12.40625 0 
z
" id="DejaVuSans-31"/>
      </defs>
      <g transform="translate(579.940095 524.258437)scale(0.1 -0.1)">
       <use xlink:href="#DejaVuSans-31"/>
       <use x="63.623047" xlink:href="#DejaVuSans-30"/>
       <use x="127.246094" xlink:href="#DejaVuSans-30"/>
      </g>
     </g>
    </g>
    <g id="xtick_4">
     <g id="line2d_4">
      <g>
       <use style="stroke:#000000;stroke-width:0.8;" x="832.198068" xlink:href="#m190a49e4b7" y="509.66"/>
      </g>
     </g>
     <g id="text_4">
      <!-- 150 -->
      <g transform="translate(822.654318 524.258437)scale(0.1 -0.1)">
       <use xlink:href="#DejaVuSans-31"/>
       <use x="63.623047" xlink:href="#DejaVuSans-35"/>
       <use x="127.246094" xlink:href="#DejaVuSans-30"/>
      </g>
     </g>
    </g>
    <g id="xtick_5">
     <g id="line2d_5">
      <g>
       <use style="stroke:#000000;stroke-width:0.8;" x="1074.912292" xlink:href="#m190a49e4b7" y="509.66"/>
      </g>
     </g>
     <g id="text_5">
      <!-- 200 -->
      <defs>
       <path d="M 19.1875 8.296875 
L 53.609375 8.296875 
L 53.609375 0 
L 7.328125 0 
L 7.328125 8.296875 
Q 12.9375 14.109375 22.625 23.890625 
Q 32.328125 33.6875 34.8125 36.53125 
Q 39.546875 41.84375 41.421875 45.53125 
Q 43.3125 49.21875 43.3125 52.78125 
Q 43.3125 58.59375 39.234375 62.25 
Q 35.15625 65.921875 28.609375 65.921875 
Q 23.96875 65.921875 18.8125 64.3125 
Q 13.671875 62.703125 7.8125 59.421875 
L 7.8125 69.390625 
Q 13.765625 71.78125 18.9375 73 
Q 24.125 74.21875 28.421875 74.21875 
Q 39.75 74.21875 46.484375 68.546875 
Q 53.21875 62.890625 53.21875 53.421875 
Q 53.21875 48.921875 51.53125 44.890625 
Q 49.859375 40.875 45.40625 35.40625 
Q 44.1875 33.984375 37.640625 27.21875 
Q 31.109375 20.453125 19.1875 8.296875 
z
" id="DejaVuSans-32"/>
      </defs>
      <g transform="translate(1065.368542 524.258437)scale(0.1 -0.1)">
       <use xlink:href="#DejaVuSans-32"/>
       <use x="63.623047" xlink:href="#DejaVuSans-30"/>
       <use x="127.246094" xlink:href="#DejaVuSans-30"/>
      </g>
     </g>
    </g>
    <g id="text_6">
     <!-- Time -->
     <defs>
      <path d="M -0.296875 72.90625 
L 61.375 72.90625 
L 61.375 64.59375 
L 35.5 64.59375 
L 35.5 0 
L 25.59375 0 
L 25.59375 64.59375 
L -0.296875 64.59375 
z
" id="DejaVuSans-54"/>
      <path d="M 9.421875 54.6875 
L 18.40625 54.6875 
L 18.40625 0 
L 9.421875 0 
z
M 9.421875 75.984375 
L 18.40625 75.984375 
L 18.40625 64.59375 
L 9.421875 64.59375 
z
" id="DejaVuSans-69"/>
      <path d="M 52 44.1875 
Q 55.375 50.25 60.0625 53.125 
Q 64.75 56 71.09375 56 
Q 79.640625 56 84.28125 50.015625 
Q 88.921875 44.046875 88.921875 33.015625 
L 88.921875 0 
L 79.890625 0 
L 79.890625 32.71875 
Q 79.890625 40.578125 77.09375 44.375 
Q 74.3125 48.1875 68.609375 48.1875 
Q 61.625 48.1875 57.5625 43.546875 
Q 53.515625 38.921875 53.515625 30.90625 
L 53.515625 0 
L 44.484375 0 
L 44.484375 32.71875 
Q 44.484375 40.625 41.703125 44.40625 
Q 38.921875 48.1875 33.109375 48.1875 
Q 26.21875 48.1875 22.15625 43.53125 
Q 18.109375 38.875 18.109375 30.90625 
L 18.109375 0 
L 9.078125 0 
L 9.078125 54.6875 
L 18.109375 54.6875 
L 18.109375 46.1875 
Q 21.1875 51.21875 25.484375 53.609375 
Q 29.78125 56 35.6875 56 
Q 41.65625 56 45.828125 52.96875 
Q 50 49.953125 52 44.1875 
z
" id="DejaVuSans-6d"/>
      <path d="M 56.203125 29.59375 
L 56.203125 25.203125 
L 14.890625 25.203125 
Q 15.484375 15.921875 20.484375 11.0625 
Q 25.484375 6.203125 34.421875 6.203125 
Q 39.59375 6.203125 44.453125 7.46875 
Q 49.3125 8.734375 54.109375 11.28125 
L 54.109375 2.78125 
Q 49.265625 0.734375 44.1875 -0.34375 
Q 39.109375 -1.421875 33.890625 -1.421875 
Q 20.796875 -1.421875 13.15625 6.1875 
Q 5.515625 13.8125 5.515625 26.8125 
Q 5.515625 40.234375 12.765625 48.109375 
Q 20.015625 56 32.328125 56 
Q 43.359375 56 49.78125 48.890625 
Q 56.203125 41.796875 56.203125 29.59375 
z
M 47.21875 32.234375 
Q 47.125 39.59375 43.09375 43.984375 
Q 39.0625 48.390625 32.421875 48.390625 
Q 24.90625 48.390625 20.390625 44.140625 
Q 15.875 39.890625 15.1875 32.171875 
z
" id="DejaVuSans-65"/>
     </defs>
     <g transform="translate(598.940625 537.936562)scale(0.1 -0.1)">
      <use xlink:href="#DejaVuSans-54"/>
      <use x="61.037109" xlink:href="#DejaVuSans-69"/>
      <use x="88.820312" xlink:href="#DejaVuSans-6d"/>
      <use x="186.232422" xlink:href="#DejaVuSans-65"/>
     </g>
    </g>
   </g>
   <g id="matplotlib.axis_2">
    <g id="ytick_1">
     <g id="line2d_6">
      <defs>
       <path d="M 0 0 
L -3.5 0 
" id="m626e9b6d67" style="stroke:#000000;stroke-width:0.8;"/>
      </defs>
      <g>
       <use style="stroke:#000000;stroke-width:0.8;" x="53.328125" xlink:href="#m626e9b6d67" y="417.986305"/>
      </g>
     </g>
     <g id="text_7">
      <!-- 400 -->
      <defs>
       <path d="M 37.796875 64.3125 
L 12.890625 25.390625 
L 37.796875 25.390625 
z
M 35.203125 72.90625 
L 47.609375 72.90625 
L 47.609375 25.390625 
L 58.015625 25.390625 
L 58.015625 17.1875 
L 47.609375 17.1875 
L 47.609375 0 
L 37.796875 0 
L 37.796875 17.1875 
L 4.890625 17.1875 
L 4.890625 26.703125 
z
" id="DejaVuSans-34"/>
      </defs>
      <g transform="translate(27.240625 421.785524)scale(0.1 -0.1)">
       <use xlink:href="#DejaVuSans-34"/>
       <use x="63.623047" xlink:href="#DejaVuSans-30"/>
       <use x="127.246094" xlink:href="#DejaVuSans-30"/>
      </g>
     </g>
    </g>
    <g id="ytick_2">
     <g id="line2d_7">
      <g>
       <use style="stroke:#000000;stroke-width:0.8;" x="53.328125" xlink:href="#m626e9b6d67" y="322.074508"/>
      </g>
     </g>
     <g id="text_8">
      <!-- 600 -->
      <defs>
       <path d="M 33.015625 40.375 
Q 26.375 40.375 22.484375 35.828125 
Q 18.609375 31.296875 18.609375 23.390625 
Q 18.609375 15.53125 22.484375 10.953125 
Q 26.375 6.390625 33.015625 6.390625 
Q 39.65625 6.390625 43.53125 10.953125 
Q 47.40625 15.53125 47.40625 23.390625 
Q 47.40625 31.296875 43.53125 35.828125 
Q 39.65625 40.375 33.015625 40.375 
z
M 52.59375 71.296875 
L 52.59375 62.3125 
Q 48.875 64.0625 45.09375 64.984375 
Q 41.3125 65.921875 37.59375 65.921875 
Q 27.828125 65.921875 22.671875 59.328125 
Q 17.53125 52.734375 16.796875 39.40625 
Q 19.671875 43.65625 24.015625 45.921875 
Q 28.375 48.1875 33.59375 48.1875 
Q 44.578125 48.1875 50.953125 41.515625 
Q 57.328125 34.859375 57.328125 23.390625 
Q 57.328125 12.15625 50.6875 5.359375 
Q 44.046875 -1.421875 33.015625 -1.421875 
Q 20.359375 -1.421875 13.671875 8.265625 
Q 6.984375 17.96875 6.984375 36.375 
Q 6.984375 53.65625 15.1875 63.9375 
Q 23.390625 74.21875 37.203125 74.21875 
Q 40.921875 74.21875 44.703125 73.484375 
Q 48.484375 72.75 52.59375 71.296875 
z
" id="DejaVuSans-36"/>
      </defs>
      <g transform="translate(27.240625 325.873727)scale(0.1 -0.1)">
       <use xlink:href="#DejaVuSans-36"/>
       <use x="63.623047" xlink:href="#DejaVuSans-30"/>
       <use x="127.246094" xlink:href="#DejaVuSans-30"/>
      </g>
     </g>
    </g>
    <g id="ytick_3">
     <g id="line2d_8">
      <g>
       <use style="stroke:#000000;stroke-width:0.8;" x="53.328125" xlink:href="#m626e9b6d67" y="226.162711"/>
      </g>
     </g>
     <g id="text_9">
      <!-- 800 -->
      <defs>
       <path d="M 31.78125 34.625 
Q 24.75 34.625 20.71875 30.859375 
Q 16.703125 27.09375 16.703125 20.515625 
Q 16.703125 13.921875 20.71875 10.15625 
Q 24.75 6.390625 31.78125 6.390625 
Q 38.8125 6.390625 42.859375 10.171875 
Q 46.921875 13.96875 46.921875 20.515625 
Q 46.921875 27.09375 42.890625 30.859375 
Q 38.875 34.625 31.78125 34.625 
z
M 21.921875 38.8125 
Q 15.578125 40.375 12.03125 44.71875 
Q 8.5 49.078125 8.5 55.328125 
Q 8.5 64.0625 14.71875 69.140625 
Q 20.953125 74.21875 31.78125 74.21875 
Q 42.671875 74.21875 48.875 69.140625 
Q 55.078125 64.0625 55.078125 55.328125 
Q 55.078125 49.078125 51.53125 44.71875 
Q 48 40.375 41.703125 38.8125 
Q 48.828125 37.15625 52.796875 32.3125 
Q 56.78125 27.484375 56.78125 20.515625 
Q 56.78125 9.90625 50.3125 4.234375 
Q 43.84375 -1.421875 31.78125 -1.421875 
Q 19.734375 -1.421875 13.25 4.234375 
Q 6.78125 9.90625 6.78125 20.515625 
Q 6.78125 27.484375 10.78125 32.3125 
Q 14.796875 37.15625 21.921875 38.8125 
z
M 18.3125 54.390625 
Q 18.3125 48.734375 21.84375 45.5625 
Q 25.390625 42.390625 31.78125 42.390625 
Q 38.140625 42.390625 41.71875 45.5625 
Q 45.3125 48.734375 45.3125 54.390625 
Q 45.3125 60.0625 41.71875 63.234375 
Q 38.140625 66.40625 31.78125 66.40625 
Q 25.390625 66.40625 21.84375 63.234375 
Q 18.3125 60.0625 18.3125 54.390625 
z
" id="DejaVuSans-38"/>
      </defs>
      <g transform="translate(27.240625 229.96193)scale(0.1 -0.1)">
       <use xlink:href="#DejaVuSans-38"/>
       <use x="63.623047" xlink:href="#DejaVuSans-30"/>
       <use x="127.246094" xlink:href="#DejaVuSans-30"/>
      </g>
     </g>
    </g>
    <g id="ytick_4">
     <g id="line2d_9">
      <g>
       <use style="stroke:#000000;stroke-width:0.8;" x="53.328125" xlink:href="#m626e9b6d67" y="130.250915"/>
      </g>
     </g>
     <g id="text_10">
      <!-- 1000 -->
      <g transform="translate(20.878125 134.050133)scale(0.1 -0.1)">
       <use xlink:href="#DejaVuSans-31"/>
       <use x="63.623047" xlink:href="#DejaVuSans-30"/>
       <use x="127.246094" xlink:href="#DejaVuSans-30"/>
       <use x="190.869141" xlink:href="#DejaVuSans-30"/>
      </g>
     </g>
    </g>
    <g id="ytick_5">
     <g id="line2d_10">
      <g>
       <use style="stroke:#000000;stroke-width:0.8;" x="53.328125" xlink:href="#m626e9b6d67" y="34.339118"/>
      </g>
     </g>
     <g id="text_11">
      <!-- 1200 -->
      <g transform="translate(20.878125 38.138337)scale(0.1 -0.1)">
       <use xlink:href="#DejaVuSans-31"/>
       <use x="63.623047" xlink:href="#DejaVuSans-32"/>
       <use x="127.246094" xlink:href="#DejaVuSans-30"/>
       <use x="190.869141" xlink:href="#DejaVuSans-30"/>
      </g>
     </g>
    </g>
    <g id="text_12">
     <!-- Refugees -->
     <defs>
      <path d="M 44.390625 34.1875 
Q 47.5625 33.109375 50.5625 29.59375 
Q 53.5625 26.078125 56.59375 19.921875 
L 66.609375 0 
L 56 0 
L 46.6875 18.703125 
Q 43.0625 26.03125 39.671875 28.421875 
Q 36.28125 30.8125 30.421875 30.8125 
L 19.671875 30.8125 
L 19.671875 0 
L 9.8125 0 
L 9.8125 72.90625 
L 32.078125 72.90625 
Q 44.578125 72.90625 50.734375 67.671875 
Q 56.890625 62.453125 56.890625 51.90625 
Q 56.890625 45.015625 53.6875 40.46875 
Q 50.484375 35.9375 44.390625 34.1875 
z
M 19.671875 64.796875 
L 19.671875 38.921875 
L 32.078125 38.921875 
Q 39.203125 38.921875 42.84375 42.21875 
Q 46.484375 45.515625 46.484375 51.90625 
Q 46.484375 58.296875 42.84375 61.546875 
Q 39.203125 64.796875 32.078125 64.796875 
z
" id="DejaVuSans-52"/>
      <path d="M 37.109375 75.984375 
L 37.109375 68.5 
L 28.515625 68.5 
Q 23.6875 68.5 21.796875 66.546875 
Q 19.921875 64.59375 19.921875 59.515625 
L 19.921875 54.6875 
L 34.71875 54.6875 
L 34.71875 47.703125 
L 19.921875 47.703125 
L 19.921875 0 
L 10.890625 0 
L 10.890625 47.703125 
L 2.296875 47.703125 
L 2.296875 54.6875 
L 10.890625 54.6875 
L 10.890625 58.5 
Q 10.890625 67.625 15.140625 71.796875 
Q 19.390625 75.984375 28.609375 75.984375 
z
" id="DejaVuSans-66"/>
      <path d="M 8.5 21.578125 
L 8.5 54.6875 
L 17.484375 54.6875 
L 17.484375 21.921875 
Q 17.484375 14.15625 20.5 10.265625 
Q 23.53125 6.390625 29.59375 6.390625 
Q 36.859375 6.390625 41.078125 11.03125 
Q 45.3125 15.671875 45.3125 23.6875 
L 45.3125 54.6875 
L 54.296875 54.6875 
L 54.296875 0 
L 45.3125 0 
L 45.3125 8.40625 
Q 42.046875 3.421875 37.71875 1 
Q 33.40625 -1.421875 27.6875 -1.421875 
Q 18.265625 -1.421875 13.375 4.4375 
Q 8.5 10.296875 8.5 21.578125 
z
M 31.109375 56 
z
" id="DejaVuSans-75"/>
      <path d="M 45.40625 27.984375 
Q 45.40625 37.75 41.375 43.109375 
Q 37.359375 48.484375 30.078125 48.484375 
Q 22.859375 48.484375 18.828125 43.109375 
Q 14.796875 37.75 14.796875 27.984375 
Q 14.796875 18.265625 18.828125 12.890625 
Q 22.859375 7.515625 30.078125 7.515625 
Q 37.359375 7.515625 41.375 12.890625 
Q 45.40625 18.265625 45.40625 27.984375 
z
M 54.390625 6.78125 
Q 54.390625 -7.171875 48.1875 -13.984375 
Q 42 -20.796875 29.203125 -20.796875 
Q 24.46875 -20.796875 20.265625 -20.09375 
Q 16.0625 -19.390625 12.109375 -17.921875 
L 12.109375 -9.1875 
Q 16.0625 -11.328125 19.921875 -12.34375 
Q 23.78125 -13.375 27.78125 -13.375 
Q 36.625 -13.375 41.015625 -8.765625 
Q 45.40625 -4.15625 45.40625 5.171875 
L 45.40625 9.625 
Q 42.625 4.78125 38.28125 2.390625 
Q 33.9375 0 27.875 0 
Q 17.828125 0 11.671875 7.65625 
Q 5.515625 15.328125 5.515625 27.984375 
Q 5.515625 40.671875 11.671875 48.328125 
Q 17.828125 56 27.875 56 
Q 33.9375 56 38.28125 53.609375 
Q 42.625 51.21875 45.40625 46.390625 
L 45.40625 54.6875 
L 54.390625 54.6875 
z
" id="DejaVuSans-67"/>
      <path d="M 44.28125 53.078125 
L 44.28125 44.578125 
Q 40.484375 46.53125 36.375 47.5 
Q 32.28125 48.484375 27.875 48.484375 
Q 21.1875 48.484375 17.84375 46.4375 
Q 14.5 44.390625 14.5 40.28125 
Q 14.5 37.15625 16.890625 35.375 
Q 19.28125 33.59375 26.515625 31.984375 
L 29.59375 31.296875 
Q 39.15625 29.25 43.1875 25.515625 
Q 47.21875 21.78125 47.21875 15.09375 
Q 47.21875 7.46875 41.1875 3.015625 
Q 35.15625 -1.421875 24.609375 -1.421875 
Q 20.21875 -1.421875 15.453125 -0.5625 
Q 10.6875 0.296875 5.421875 2 
L 5.421875 11.28125 
Q 10.40625 8.6875 15.234375 7.390625 
Q 20.0625 6.109375 24.8125 6.109375 
Q 31.15625 6.109375 34.5625 8.28125 
Q 37.984375 10.453125 37.984375 14.40625 
Q 37.984375 18.0625 35.515625 20.015625 
Q 33.0625 21.96875 24.703125 23.78125 
L 21.578125 24.515625 
Q 13.234375 26.265625 9.515625 29.90625 
Q 5.8125 33.546875 5.8125 39.890625 
Q 5.8125 47.609375 11.28125 51.796875 
Q 16.75 56 26.8125 56 
Q 31.78125 56 36.171875 55.265625 
Q 40.578125 54.546875 44.28125 53.078125 
z
" id="DejaVuSans-73"/>
     </defs>
     <g style="fill:#ff7f0e;" transform="translate(14.798437 283.588594)rotate(-90)scale(0.1 -0.1)">
      <use xlink:href="#DejaVuSans-52"/>
      <use x="69.419922" xlink:href="#DejaVuSans-65"/>
      <use x="130.943359" xlink:href="#DejaVuSans-66"/>
      <use x="166.148438" xlink:href="#DejaVuSans-75"/>
      <use x="229.527344" xlink:href="#DejaVuSans-67"/>
      <use x="293.003906" xlink:href="#DejaVuSans-65"/>
      <use x="354.527344" xlink:href="#DejaVuSans-65"/>
      <use x="416.050781" xlink:href="#DejaVuSans-73"/>
     </g>
    </g>
   </g>
   <g id="line2d_11">
    <path clip-path="url(#p6dc4c35372)" d="M 104.055398 222.873471 
L 108.909682 195.254427 
L 113.763967 192.144611 
L 118.618251 193.101446 
L 123.472536 199.739111 
L 128.32682 203.32351 
L 133.181105 271.345603 
L 138.035389 286.355355 
L 142.889673 305.551705 
L 147.743958 311.914086 
L 152.598242 308.307794 
L 157.452527 300.47167 
L 162.306811 247.13809 
L 167.161096 237.51325 
L 172.01538 244.612356 
L 176.869665 248.289014 
L 181.723949 248.175622 
L 186.578234 242.720463 
L 191.432518 330.861789 
L 196.286803 336.143728 
L 201.141087 344.229905 
L 205.995372 343.548413 
L 210.849656 330.59871 
L 215.703941 318.19539 
L 220.558225 248.022804 
L 225.41251 206.938935 
L 230.266794 210.625662 
L 235.121078 225.644897 
L 239.975363 231.277315 
L 244.829647 244.781039 
L 249.683932 245.83423 
L 254.538216 241.59477 
L 259.392501 246.062624 
L 264.246785 244.665188 
L 269.10107 249.505327 
L 273.955354 249.570365 
L 278.809639 288.469494 
L 283.663923 293.109485 
L 288.518208 324.657289 
L 293.372492 351.581406 
L 298.226777 348.779481 
L 303.081061 349.847425 
L 307.935346 401.547082 
L 312.78963 408.66037 
L 317.643914 411.147057 
L 322.498199 402.878909 
L 327.352483 393.234224 
L 332.206768 382.767785 
L 337.061052 315.969995 
L 341.915337 307.055478 
L 346.769621 304.140103 
L 351.623906 296.706441 
L 356.47819 293.09084 
L 361.332475 285.382685 
L 366.186759 325.585996 
L 371.041044 341.41917 
L 375.895328 364.304003 
L 380.749613 377.176403 
L 385.603897 378.891652 
L 390.458182 375.03936 
L 395.312466 380.4632 
L 400.16675 388.234081 
L 405.021035 398.576284 
L 409.875319 402.928814 
L 414.729604 402.091079 
L 419.583888 393.204617 
L 424.438173 391.102947 
L 429.292457 400.099785 
L 434.146742 412.520536 
L 439.001026 415.491744 
L 443.855311 409.786253 
L 448.709595 403.431906 
L 453.56388 407.215707 
L 458.418164 414.137071 
L 463.272449 416.24925 
L 468.126733 409.117625 
L 472.981018 399.997355 
L 477.835302 386.909323 
L 482.689587 401.342485 
L 487.543871 407.054181 
L 492.398155 421.872243 
L 497.25244 434.734282 
L 502.106724 443.070088 
L 506.961009 442.000081 
L 511.815293 456.300021 
L 516.669578 458.136798 
L 521.523862 455.294129 
L 526.378147 445.674851 
L 531.232431 435.590677 
L 536.086716 423.333516 
L 540.941 486.98 
L 545.795285 482.924721 
L 550.649569 481.717788 
L 555.503854 480.132045 
L 560.358138 474.445843 
L 565.212423 466.430368 
L 570.066707 467.843565 
L 574.920991 473.092034 
L 579.775276 476.350659 
L 584.62956 473.65314 
L 589.483845 463.92963 
L 594.338129 451.58207 
L 599.192414 444.171048 
L 604.046698 445.999542 
L 608.900983 450.54524 
L 613.755267 451.271881 
L 618.609552 444.562739 
L 623.463836 435.867995 
L 628.318121 424.344969 
L 633.172405 431.803027 
L 638.02669 435.728714 
L 642.880974 430.505344 
L 652.589543 399.514093 
L 657.443827 401.610232 
L 662.298112 409.717732 
L 667.152396 419.056502 
L 672.006681 421.200907 
L 676.860965 420.758829 
L 681.71525 414.484023 
L 686.569534 336.621414 
L 691.423819 292.756343 
L 696.278103 306.192571 
L 701.132388 337.579771 
L 705.986672 333.388986 
L 710.840957 347.902055 
L 715.695241 324.168247 
L 725.40381 431.346826 
L 730.258095 460.621159 
L 735.112379 457.399254 
L 739.966663 445.749401 
L 744.820948 428.663912 
L 749.675232 428.512235 
L 754.529517 430.133981 
L 759.383801 428.277344 
L 764.238086 426.085361 
L 769.09237 418.336447 
L 773.946655 356.748754 
L 778.800939 378.45351 
L 783.655224 390.92942 
L 788.509508 382.637855 
L 793.363793 366.830351 
L 803.072362 338.461118 
L 807.926646 326.339668 
L 812.780931 348.086134 
L 817.635215 372.101183 
L 822.4895 366.195369 
L 827.343784 370.243624 
L 832.198068 396.82998 
L 837.052353 399.636178 
L 841.906637 409.141143 
L 846.760922 414.949957 
L 851.615206 415.137372 
L 856.469491 410.741639 
L 861.323775 431.373637 
L 866.17806 428.316097 
L 871.032344 421.342662 
L 875.886629 408.178572 
L 880.740913 397.362986 
L 885.595198 385.586233 
L 890.449482 394.547991 
L 895.303767 404.504328 
L 900.158051 415.171589 
L 905.012336 417.65532 
L 909.86662 416.106779 
L 914.720904 408.913087 
L 919.575189 398.258573 
L 924.429473 403.177551 
L 929.283758 409.872922 
L 934.138042 410.494411 
L 938.992327 403.263897 
L 943.846611 392.066762 
L 948.700896 410.548545 
L 953.55518 413.603261 
L 963.263749 441.639606 
L 968.118034 453.52037 
L 972.972318 454.47318 
L 977.826603 404.818219 
L 982.680887 407.596729 
L 987.535172 412.637835 
L 992.389456 412.652499 
L 997.24374 406.85854 
L 1002.098025 396.807354 
L 1006.952309 403.889147 
L 1011.806594 412.905509 
L 1016.660878 425.619749 
L 1021.515163 431.666351 
L 1026.369447 427.960892 
L 1031.223732 420.496906 
L 1036.078016 406.076052 
L 1040.932301 402.497361 
L 1045.786585 402.37709 
L 1055.495154 396.736184 
L 1060.349439 389.367238 
L 1065.203723 417.33398 
L 1070.058008 441.005136 
L 1074.912292 465.284551 
L 1079.766577 477.758412 
L 1084.620861 477.857184 
L 1089.475145 470.669565 
L 1094.32943 253.836051 
L 1099.183714 191.112435 
L 1104.037999 196.196685 
L 1108.892283 230.795121 
L 1113.746568 274.575426 
L 1118.600852 314.923975 
L 1118.600852 314.923975 
" style="fill:none;stroke:#008000;stroke-dasharray:5.55,2.4;stroke-dashoffset:0;stroke-width:1.5;"/>
   </g>
   <g id="line2d_12">
    <path clip-path="url(#p6dc4c35372)" d="M 104.055398 143.678566 
L 108.909682 110.588996 
L 113.763967 149.433274 
L 118.618251 351.327606 
L 123.472536 321.594949 
L 128.32682 173.411223 
L 133.181105 210.816824 
L 138.035389 264.52743 
L 142.889673 238.631245 
L 147.743958 311.524211 
L 152.598242 300.494354 
L 157.452527 349.40937 
L 162.306811 368.112171 
L 167.161096 238.151686 
L 172.01538 199.307408 
L 176.869665 230.958301 
L 181.723949 230.478742 
L 186.578234 237.672127 
L 191.432518 272.679933 
L 196.286803 315.360682 
L 201.141087 266.445666 
L 205.995372 310.085534 
L 210.849656 295.219205 
L 215.703941 274.598169 
L 220.558225 285.148467 
L 225.41251 279.873318 
L 230.266794 193.073142 
L 235.121078 211.775942 
L 239.975363 211.775942 
L 244.829647 179.165931 
L 249.683932 141.76033 
L 254.538216 265.966107 
L 259.392501 199.307408 
L 264.246785 191.634465 
L 269.10107 267.884343 
L 273.955354 286.107584 
L 278.809639 224.244476 
L 283.663923 323.513185 
L 288.518208 343.175104 
L 293.372492 309.605975 
L 298.226777 373.866879 
L 303.081061 372.428202 
L 307.935346 405.99733 
L 312.78963 425.659249 
L 317.643914 405.517771 
L 322.498199 422.781895 
L 327.352483 403.599536 
L 332.206768 366.673494 
L 337.061052 339.818191 
L 341.915337 345.572898 
L 346.769621 316.3198 
L 351.623906 200.266526 
L 356.47819 263.088753 
L 361.332475 255.895368 
L 366.186759 360.439227 
L 371.041044 397.844828 
L 375.895328 354.684519 
L 380.749613 392.09012 
L 385.603897 452.514552 
L 390.458182 389.692325 
L 395.312466 409.354243 
L 400.16675 409.354243 
L 405.021035 424.700131 
L 409.875319 442.443813 
L 414.729604 427.097926 
L 419.583888 375.785114 
L 424.438173 420.3841 
L 429.292457 423.741013 
L 434.146742 403.119977 
L 439.001026 436.209546 
L 443.855311 434.770869 
L 448.709595 419.424982 
L 453.56388 424.700131 
L 458.418164 438.607341 
L 463.272449 384.896735 
L 468.126733 392.09012 
L 472.981018 386.814971 
L 477.835302 368.59173 
L 482.689587 374.346437 
L 487.543871 386.335412 
L 492.398155 380.101145 
L 497.25244 441.005136 
L 502.106724 452.994111 
L 506.961009 466.901321 
L 511.815293 469.299116 
L 516.669578 474.094706 
L 521.523862 467.38088 
L 526.378147 460.187496 
L 531.232431 483.206327 
L 536.086716 465.462644 
L 540.941 445.321167 
L 545.795285 462.105732 
L 550.649569 468.339998 
L 555.503854 476.012942 
L 560.358138 469.778675 
L 565.212423 458.26926 
L 570.066707 453.953229 
L 574.920991 440.525577 
L 579.775276 472.656029 
L 584.62956 391.131002 
L 589.483845 464.983085 
L 594.338129 441.484695 
L 599.192414 441.484695 
L 604.046698 462.105732 
L 608.900983 464.023967 
L 613.755267 452.514552 
L 618.609552 461.626173 
L 623.463836 421.343218 
L 628.318121 393.049238 
L 633.172405 439.0869 
L 638.02669 425.17969 
L 642.880974 417.027187 
L 647.735259 437.648223 
L 652.589543 411.752038 
L 657.443827 379.621586 
L 662.298112 380.101145 
L 667.152396 339.818191 
L 672.006681 425.17969 
L 676.860965 425.17969 
L 681.71525 382.978499 
L 686.569534 395.447033 
L 691.423819 399.763064 
L 696.278103 325.91098 
L 701.132388 290.423615 
L 705.986672 261.650076 
L 710.840957 157.585777 
L 715.695241 352.286724 
L 720.549526 382.019381 
L 730.258095 464.983085 
L 735.112379 464.503526 
L 739.966663 445.800726 
L 744.820948 418.945423 
L 749.675232 403.599536 
L 754.529517 367.153053 
L 759.383801 326.870098 
L 764.238086 373.38732 
L 769.09237 359.959668 
L 773.946655 419.424982 
L 778.800939 402.160859 
L 783.655224 369.550848 
L 788.509508 358.041432 
L 793.363793 338.379514 
L 798.218077 349.888929 
L 803.072362 331.186129 
L 807.926646 361.398345 
L 812.780931 352.766283 
L 817.635215 356.602755 
L 822.4895 366.673494 
L 827.343784 322.554067 
L 832.198068 382.49894 
L 837.052353 361.398345 
L 841.906637 432.852634 
L 846.760922 459.228378 
L 851.615206 478.410737 
L 856.469491 466.421762 
L 861.323775 403.119977 
L 866.17806 422.781895 
L 871.032344 427.577485 
L 875.886629 373.866879 
L 880.740913 390.171884 
L 885.595198 409.354243 
L 890.449482 386.814971 
L 895.303767 389.692325 
L 900.158051 421.822777 
L 905.012336 419.424982 
L 909.86662 430.454839 
L 914.720904 418.465864 
L 919.575189 450.596316 
L 924.429473 451.555434 
L 929.283758 429.97528 
L 934.138042 367.632612 
L 938.992327 404.558653 
L 943.846611 425.17969 
L 948.700896 405.038212 
L 953.55518 434.770869 
L 958.409465 423.741013 
L 963.263749 429.97528 
L 968.118034 434.29131 
L 972.972318 424.220572 
L 977.826603 375.785114 
L 982.680887 410.313361 
L 987.535172 365.714376 
L 992.389456 374.346437 
L 997.24374 417.027187 
L 1002.098025 359.00055 
L 1006.952309 425.659249 
L 1011.806594 444.841608 
L 1016.660878 470.258234 
L 1021.515163 455.871465 
L 1026.369447 442.443813 
L 1031.223732 420.863659 
L 1036.078016 432.852634 
L 1040.932301 434.29131 
L 1045.786585 383.937617 
L 1050.64087 405.038212 
L 1055.495154 395.447033 
L 1060.349439 427.097926 
L 1065.203723 454.912347 
L 1070.058008 456.830583 
L 1074.912292 447.239403 
L 1079.766577 431.413957 
L 1084.620861 409.354243 
L 1089.475145 278.434641 
L 1094.32943 240.549481 
L 1099.183714 71.744719 
L 1104.037999 33.38 
L 1108.892283 120.659735 
L 1113.746568 270.761697 
L 1118.600852 380.580704 
L 1118.600852 380.580704 
" style="fill:none;stroke:#ff7f0e;stroke-linecap:square;stroke-width:1.5;"/>
   </g>
   <g id="line2d_13">
    <defs>
     <path d="M 0 3 
C 0.795609 3 1.55874 2.683901 2.12132 2.12132 
C 2.683901 1.55874 3 0.795609 3 0 
C 3 -0.795609 2.683901 -1.55874 2.12132 -2.12132 
C 1.55874 -2.683901 0.795609 -3 0 -3 
C -0.795609 -3 -1.55874 -2.683901 -2.12132 -2.12132 
C -2.683901 -1.55874 -3 -0.795609 -3 0 
C -3 0.795609 -2.683901 1.55874 -2.12132 2.12132 
C -1.55874 2.683901 -0.795609 3 0 3 
z
" id="me0da24bc94" style="stroke:#008000;"/>
    </defs>
    <g clip-path="url(#p6dc4c35372)">
     <use style="fill:#008000;stroke:#008000;" x="104.055398" xlink:href="#me0da24bc94" y="222.873471"/>
     <use style="fill:#008000;stroke:#008000;" x="133.181105" xlink:href="#me0da24bc94" y="271.345603"/>
     <use style="fill:#008000;stroke:#008000;" x="162.306811" xlink:href="#me0da24bc94" y="247.13809"/>
     <use style="fill:#008000;stroke:#008000;" x="191.432518" xlink:href="#me0da24bc94" y="330.861789"/>
     <use style="fill:#008000;stroke:#008000;" x="220.558225" xlink:href="#me0da24bc94" y="248.022804"/>
     <use style="fill:#008000;stroke:#008000;" x="249.683932" xlink:href="#me0da24bc94" y="245.83423"/>
     <use style="fill:#008000;stroke:#008000;" x="278.809639" xlink:href="#me0da24bc94" y="288.469494"/>
     <use style="fill:#008000;stroke:#008000;" x="307.935346" xlink:href="#me0da24bc94" y="401.547082"/>
     <use style="fill:#008000;stroke:#008000;" x="337.061052" xlink:href="#me0da24bc94" y="315.969995"/>
     <use style="fill:#008000;stroke:#008000;" x="366.186759" xlink:href="#me0da24bc94" y="325.585996"/>
     <use style="fill:#008000;stroke:#008000;" x="395.312466" xlink:href="#me0da24bc94" y="380.4632"/>
     <use style="fill:#008000;stroke:#008000;" x="424.438173" xlink:href="#me0da24bc94" y="391.102947"/>
     <use style="fill:#008000;stroke:#008000;" x="453.56388" xlink:href="#me0da24bc94" y="407.215707"/>
     <use style="fill:#008000;stroke:#008000;" x="482.689587" xlink:href="#me0da24bc94" y="401.342485"/>
     <use style="fill:#008000;stroke:#008000;" x="511.815293" xlink:href="#me0da24bc94" y="456.300021"/>
     <use style="fill:#008000;stroke:#008000;" x="540.941" xlink:href="#me0da24bc94" y="486.98"/>
     <use style="fill:#008000;stroke:#008000;" x="570.066707" xlink:href="#me0da24bc94" y="467.843565"/>
     <use style="fill:#008000;stroke:#008000;" x="599.192414" xlink:href="#me0da24bc94" y="444.171048"/>
     <use style="fill:#008000;stroke:#008000;" x="628.318121" xlink:href="#me0da24bc94" y="424.344969"/>
     <use style="fill:#008000;stroke:#008000;" x="657.443827" xlink:href="#me0da24bc94" y="401.610232"/>
     <use style="fill:#008000;stroke:#008000;" x="686.569534" xlink:href="#me0da24bc94" y="336.621414"/>
     <use style="fill:#008000;stroke:#008000;" x="715.695241" xlink:href="#me0da24bc94" y="324.168247"/>
     <use style="fill:#008000;stroke:#008000;" x="744.820948" xlink:href="#me0da24bc94" y="428.663912"/>
     <use style="fill:#008000;stroke:#008000;" x="773.946655" xlink:href="#me0da24bc94" y="356.748754"/>
     <use style="fill:#008000;stroke:#008000;" x="803.072362" xlink:href="#me0da24bc94" y="338.461118"/>
     <use style="fill:#008000;stroke:#008000;" x="832.198068" xlink:href="#me0da24bc94" y="396.82998"/>
     <use style="fill:#008000;stroke:#008000;" x="861.323775" xlink:href="#me0da24bc94" y="431.373637"/>
     <use style="fill:#008000;stroke:#008000;" x="890.449482" xlink:href="#me0da24bc94" y="394.547991"/>
     <use style="fill:#008000;stroke:#008000;" x="919.575189" xlink:href="#me0da24bc94" y="398.258573"/>
     <use style="fill:#008000;stroke:#008000;" x="948.700896" xlink:href="#me0da24bc94" y="410.548545"/>
     <use style="fill:#008000;stroke:#008000;" x="977.826603" xlink:href="#me0da24bc94" y="404.818219"/>
     <use style="fill:#008000;stroke:#008000;" x="1006.952309" xlink:href="#me0da24bc94" y="403.889147"/>
     <use style="fill:#008000;stroke:#008000;" x="1036.078016" xlink:href="#me0da24bc94" y="406.076052"/>
     <use style="fill:#008000;stroke:#008000;" x="1065.203723" xlink:href="#me0da24bc94" y="417.33398"/>
     <use style="fill:#008000;stroke:#008000;" x="1094.32943" xlink:href="#me0da24bc94" y="253.836051"/>
    </g>
   </g>
   <g id="patch_3">
    <path d="M 53.328125 509.66 
L 53.328125 10.7 
" style="fill:none;stroke:#000000;stroke-linecap:square;stroke-linejoin:miter;stroke-width:0.8;"/>
   </g>
   <g id="patch_4">
    <path d="M 1169.328125 509.66 
L 1169.328125 10.7 
" style="fill:none;stroke:#000000;stroke-linecap:square;stroke-linejoin:miter;stroke-width:0.8;"/>
   </g>
   <g id="patch_5">
    <path d="M 53.328125 509.66 
L 1169.328125 509.66 
" style="fill:none;stroke:#000000;stroke-linecap:square;stroke-linejoin:miter;stroke-width:0.8;"/>
   </g>
   <g id="patch_6">
    <path d="M 53.328125 10.7 
L 1169.328125 10.7 
" style="fill:none;stroke:#000000;stroke-linecap:square;stroke-linejoin:miter;stroke-width:0.8;"/>
   </g>
   <g id="legend_1">
    <g id="patch_7">
     <path d="M 60.328125 62.734375 
L 208.103125 62.734375 
Q 210.103125 62.734375 210.103125 60.734375 
L 210.103125 17.7 
Q 210.103125 15.7 208.103125 15.7 
L 60.328125 15.7 
Q 58.328125 15.7 58.328125 17.7 
L 58.328125 60.734375 
Q 58.328125 62.734375 60.328125 62.734375 
z
" style="fill:#ffffff;opacity:0.8;stroke:#cccccc;stroke-linejoin:miter;"/>
    </g>
    <g id="line2d_14">
     <path d="M 62.328125 23.798437 
L 82.328125 23.798437 
" style="fill:none;stroke:#008000;stroke-dasharray:5.55,2.4;stroke-dashoffset:0;stroke-width:1.5;"/>
    </g>
    <g id="line2d_15"/>
    <g id="text_13">
     <!-- Predicted -->
     <defs>
      <path d="M 19.671875 64.796875 
L 19.671875 37.40625 
L 32.078125 37.40625 
Q 38.96875 37.40625 42.71875 40.96875 
Q 46.484375 44.53125 46.484375 51.125 
Q 46.484375 57.671875 42.71875 61.234375 
Q 38.96875 64.796875 32.078125 64.796875 
z
M 9.8125 72.90625 
L 32.078125 72.90625 
Q 44.34375 72.90625 50.609375 67.359375 
Q 56.890625 61.8125 56.890625 51.125 
Q 56.890625 40.328125 50.609375 34.8125 
Q 44.34375 29.296875 32.078125 29.296875 
L 19.671875 29.296875 
L 19.671875 0 
L 9.8125 0 
z
" id="DejaVuSans-50"/>
      <path d="M 41.109375 46.296875 
Q 39.59375 47.171875 37.8125 47.578125 
Q 36.03125 48 33.890625 48 
Q 26.265625 48 22.1875 43.046875 
Q 18.109375 38.09375 18.109375 28.8125 
L 18.109375 0 
L 9.078125 0 
L 9.078125 54.6875 
L 18.109375 54.6875 
L 18.109375 46.1875 
Q 20.953125 51.171875 25.484375 53.578125 
Q 30.03125 56 36.53125 56 
Q 37.453125 56 38.578125 55.875 
Q 39.703125 55.765625 41.0625 55.515625 
z
" id="DejaVuSans-72"/>
      <path d="M 45.40625 46.390625 
L 45.40625 75.984375 
L 54.390625 75.984375 
L 54.390625 0 
L 45.40625 0 
L 45.40625 8.203125 
Q 42.578125 3.328125 38.25 0.953125 
Q 33.9375 -1.421875 27.875 -1.421875 
Q 17.96875 -1.421875 11.734375 6.484375 
Q 5.515625 14.40625 5.515625 27.296875 
Q 5.515625 40.1875 11.734375 48.09375 
Q 17.96875 56 27.875 56 
Q 33.9375 56 38.25 53.625 
Q 42.578125 51.265625 45.40625 46.390625 
z
M 14.796875 27.296875 
Q 14.796875 17.390625 18.875 11.75 
Q 22.953125 6.109375 30.078125 6.109375 
Q 37.203125 6.109375 41.296875 11.75 
Q 45.40625 17.390625 45.40625 27.296875 
Q 45.40625 37.203125 41.296875 42.84375 
Q 37.203125 48.484375 30.078125 48.484375 
Q 22.953125 48.484375 18.875 42.84375 
Q 14.796875 37.203125 14.796875 27.296875 
z
" id="DejaVuSans-64"/>
      <path d="M 48.78125 52.59375 
L 48.78125 44.1875 
Q 44.96875 46.296875 41.140625 47.34375 
Q 37.3125 48.390625 33.40625 48.390625 
Q 24.65625 48.390625 19.8125 42.84375 
Q 14.984375 37.3125 14.984375 27.296875 
Q 14.984375 17.28125 19.8125 11.734375 
Q 24.65625 6.203125 33.40625 6.203125 
Q 37.3125 6.203125 41.140625 7.25 
Q 44.96875 8.296875 48.78125 10.40625 
L 48.78125 2.09375 
Q 45.015625 0.34375 40.984375 -0.53125 
Q 36.96875 -1.421875 32.421875 -1.421875 
Q 20.0625 -1.421875 12.78125 6.34375 
Q 5.515625 14.109375 5.515625 27.296875 
Q 5.515625 40.671875 12.859375 48.328125 
Q 20.21875 56 33.015625 56 
Q 37.15625 56 41.109375 55.140625 
Q 45.0625 54.296875 48.78125 52.59375 
z
" id="DejaVuSans-63"/>
      <path d="M 18.3125 70.21875 
L 18.3125 54.6875 
L 36.8125 54.6875 
L 36.8125 47.703125 
L 18.3125 47.703125 
L 18.3125 18.015625 
Q 18.3125 11.328125 20.140625 9.421875 
Q 21.96875 7.515625 27.59375 7.515625 
L 36.8125 7.515625 
L 36.8125 0 
L 27.59375 0 
Q 17.1875 0 13.234375 3.875 
Q 9.28125 7.765625 9.28125 18.015625 
L 9.28125 47.703125 
L 2.6875 47.703125 
L 2.6875 54.6875 
L 9.28125 54.6875 
L 9.28125 70.21875 
z
" id="DejaVuSans-74"/>
     </defs>
     <g transform="translate(90.328125 27.298437)scale(0.1 -0.1)">
      <use xlink:href="#DejaVuSans-50"/>
      <use x="60.287109" xlink:href="#DejaVuSans-72"/>
      <use x="101.369141" xlink:href="#DejaVuSans-65"/>
      <use x="162.892578" xlink:href="#DejaVuSans-64"/>
      <use x="226.369141" xlink:href="#DejaVuSans-69"/>
      <use x="254.152344" xlink:href="#DejaVuSans-63"/>
      <use x="309.132812" xlink:href="#DejaVuSans-74"/>
      <use x="348.341797" xlink:href="#DejaVuSans-65"/>
      <use x="409.865234" xlink:href="#DejaVuSans-64"/>
     </g>
    </g>
    <g id="line2d_16">
     <path d="M 62.328125 38.476562 
L 82.328125 38.476562 
" style="fill:none;stroke:#ff7f0e;stroke-linecap:square;stroke-width:1.5;"/>
    </g>
    <g id="line2d_17"/>
    <g id="text_14">
     <!-- Real Data -->
     <defs>
      <path d="M 34.28125 27.484375 
Q 23.390625 27.484375 19.1875 25 
Q 14.984375 22.515625 14.984375 16.5 
Q 14.984375 11.71875 18.140625 8.90625 
Q 21.296875 6.109375 26.703125 6.109375 
Q 34.1875 6.109375 38.703125 11.40625 
Q 43.21875 16.703125 43.21875 25.484375 
L 43.21875 27.484375 
z
M 52.203125 31.203125 
L 52.203125 0 
L 43.21875 0 
L 43.21875 8.296875 
Q 40.140625 3.328125 35.546875 0.953125 
Q 30.953125 -1.421875 24.3125 -1.421875 
Q 15.921875 -1.421875 10.953125 3.296875 
Q 6 8.015625 6 15.921875 
Q 6 25.140625 12.171875 29.828125 
Q 18.359375 34.515625 30.609375 34.515625 
L 43.21875 34.515625 
L 43.21875 35.40625 
Q 43.21875 41.609375 39.140625 45 
Q 35.0625 48.390625 27.6875 48.390625 
Q 23 48.390625 18.546875 47.265625 
Q 14.109375 46.140625 10.015625 43.890625 
L 10.015625 52.203125 
Q 14.9375 54.109375 19.578125 55.046875 
Q 24.21875 56 28.609375 56 
Q 40.484375 56 46.34375 49.84375 
Q 52.203125 43.703125 52.203125 31.203125 
z
" id="DejaVuSans-61"/>
      <path d="M 9.421875 75.984375 
L 18.40625 75.984375 
L 18.40625 0 
L 9.421875 0 
z
" id="DejaVuSans-6c"/>
      <path id="DejaVuSans-20"/>
      <path d="M 19.671875 64.796875 
L 19.671875 8.109375 
L 31.59375 8.109375 
Q 46.6875 8.109375 53.6875 14.9375 
Q 60.6875 21.78125 60.6875 36.53125 
Q 60.6875 51.171875 53.6875 57.984375 
Q 46.6875 64.796875 31.59375 64.796875 
z
M 9.8125 72.90625 
L 30.078125 72.90625 
Q 51.265625 72.90625 61.171875 64.09375 
Q 71.09375 55.28125 71.09375 36.53125 
Q 71.09375 17.671875 61.125 8.828125 
Q 51.171875 0 30.078125 0 
L 9.8125 0 
z
" id="DejaVuSans-44"/>
     </defs>
     <g transform="translate(90.328125 41.976562)scale(0.1 -0.1)">
      <use xlink:href="#DejaVuSans-52"/>
      <use x="69.419922" xlink:href="#DejaVuSans-65"/>
      <use x="130.943359" xlink:href="#DejaVuSans-61"/>
      <use x="192.222656" xlink:href="#DejaVuSans-6c"/>
      <use x="220.005859" xlink:href="#DejaVuSans-20"/>
      <use x="251.792969" xlink:href="#DejaVuSans-44"/>
      <use x="328.794922" xlink:href="#DejaVuSans-61"/>
      <use x="390.074219" xlink:href="#DejaVuSans-74"/>
      <use x="429.283203" xlink:href="#DejaVuSans-61"/>
     </g>
    </g>
    <g id="line2d_18"/>
    <g id="line2d_19">
     <g>
      <use style="fill:#008000;stroke:#008000;" x="72.328125" xlink:href="#me0da24bc94" y="53.154688"/>
     </g>
    </g>
    <g id="text_15">
     <!-- Start Point for Forecast -->
     <defs>
      <path d="M 53.515625 70.515625 
L 53.515625 60.890625 
Q 47.90625 63.578125 42.921875 64.890625 
Q 37.9375 66.21875 33.296875 66.21875 
Q 25.25 66.21875 20.875 63.09375 
Q 16.5 59.96875 16.5 54.203125 
Q 16.5 49.359375 19.40625 46.890625 
Q 22.3125 44.4375 30.421875 42.921875 
L 36.375 41.703125 
Q 47.40625 39.59375 52.65625 34.296875 
Q 57.90625 29 57.90625 20.125 
Q 57.90625 9.515625 50.796875 4.046875 
Q 43.703125 -1.421875 29.984375 -1.421875 
Q 24.8125 -1.421875 18.96875 -0.25 
Q 13.140625 0.921875 6.890625 3.21875 
L 6.890625 13.375 
Q 12.890625 10.015625 18.65625 8.296875 
Q 24.421875 6.59375 29.984375 6.59375 
Q 38.421875 6.59375 43.015625 9.90625 
Q 47.609375 13.234375 47.609375 19.390625 
Q 47.609375 24.75 44.3125 27.78125 
Q 41.015625 30.8125 33.5 32.328125 
L 27.484375 33.5 
Q 16.453125 35.6875 11.515625 40.375 
Q 6.59375 45.0625 6.59375 53.421875 
Q 6.59375 63.09375 13.40625 68.65625 
Q 20.21875 74.21875 32.171875 74.21875 
Q 37.3125 74.21875 42.625 73.28125 
Q 47.953125 72.359375 53.515625 70.515625 
z
" id="DejaVuSans-53"/>
      <path d="M 30.609375 48.390625 
Q 23.390625 48.390625 19.1875 42.75 
Q 14.984375 37.109375 14.984375 27.296875 
Q 14.984375 17.484375 19.15625 11.84375 
Q 23.34375 6.203125 30.609375 6.203125 
Q 37.796875 6.203125 41.984375 11.859375 
Q 46.1875 17.53125 46.1875 27.296875 
Q 46.1875 37.015625 41.984375 42.703125 
Q 37.796875 48.390625 30.609375 48.390625 
z
M 30.609375 56 
Q 42.328125 56 49.015625 48.375 
Q 55.71875 40.765625 55.71875 27.296875 
Q 55.71875 13.875 49.015625 6.21875 
Q 42.328125 -1.421875 30.609375 -1.421875 
Q 18.84375 -1.421875 12.171875 6.21875 
Q 5.515625 13.875 5.515625 27.296875 
Q 5.515625 40.765625 12.171875 48.375 
Q 18.84375 56 30.609375 56 
z
" id="DejaVuSans-6f"/>
      <path d="M 54.890625 33.015625 
L 54.890625 0 
L 45.90625 0 
L 45.90625 32.71875 
Q 45.90625 40.484375 42.875 44.328125 
Q 39.84375 48.1875 33.796875 48.1875 
Q 26.515625 48.1875 22.3125 43.546875 
Q 18.109375 38.921875 18.109375 30.90625 
L 18.109375 0 
L 9.078125 0 
L 9.078125 54.6875 
L 18.109375 54.6875 
L 18.109375 46.1875 
Q 21.34375 51.125 25.703125 53.5625 
Q 30.078125 56 35.796875 56 
Q 45.21875 56 50.046875 50.171875 
Q 54.890625 44.34375 54.890625 33.015625 
z
" id="DejaVuSans-6e"/>
      <path d="M 9.8125 72.90625 
L 51.703125 72.90625 
L 51.703125 64.59375 
L 19.671875 64.59375 
L 19.671875 43.109375 
L 48.578125 43.109375 
L 48.578125 34.8125 
L 19.671875 34.8125 
L 19.671875 0 
L 9.8125 0 
z
" id="DejaVuSans-46"/>
     </defs>
     <g transform="translate(90.328125 56.654688)scale(0.1 -0.1)">
      <use xlink:href="#DejaVuSans-53"/>
      <use x="63.476562" xlink:href="#DejaVuSans-74"/>
      <use x="102.685547" xlink:href="#DejaVuSans-61"/>
      <use x="163.964844" xlink:href="#DejaVuSans-72"/>
      <use x="205.078125" xlink:href="#DejaVuSans-74"/>
      <use x="244.287109" xlink:href="#DejaVuSans-20"/>
      <use x="276.074219" xlink:href="#DejaVuSans-50"/>
      <use x="336.330078" xlink:href="#DejaVuSans-6f"/>
      <use x="397.511719" xlink:href="#DejaVuSans-69"/>
      <use x="425.294922" xlink:href="#DejaVuSans-6e"/>
      <use x="488.673828" xlink:href="#DejaVuSans-74"/>
      <use x="527.882812" xlink:href="#DejaVuSans-20"/>
      <use x="559.669922" xlink:href="#DejaVuSans-66"/>
      <use x="594.875" xlink:href="#DejaVuSans-6f"/>
      <use x="656.056641" xlink:href="#DejaVuSans-72"/>
      <use x="697.169922" xlink:href="#DejaVuSans-20"/>
      <use x="728.957031" xlink:href="#DejaVuSans-46"/>
      <use x="786.429688" xlink:href="#DejaVuSans-6f"/>
      <use x="847.611328" xlink:href="#DejaVuSans-72"/>
      <use x="888.693359" xlink:href="#DejaVuSans-65"/>
      <use x="950.216797" xlink:href="#DejaVuSans-63"/>
      <use x="1005.197266" xlink:href="#DejaVuSans-61"/>
      <use x="1066.476562" xlink:href="#DejaVuSans-73"/>
      <use x="1118.576172" xlink:href="#DejaVuSans-74"/>
     </g>
    </g>
   </g>
  </g>
  <g id="axes_2">
   <g id="patch_8">
    <path d="M 53.328125 645.74 
L 1170.768125 645.74 
L 1170.768125 516.14 
L 53.328125 516.14 
z
" style="fill:none;"/>
   </g>
   <g id="matplotlib.axis_3">
    <g id="xtick_6">
     <g id="line2d_20">
      <g>
       <use style="stroke:#000000;stroke-width:0.8;" x="104.120852" xlink:href="#m190a49e4b7" y="645.74"/>
      </g>
     </g>
     <g id="text_16">
      <!-- 0 -->
      <g transform="translate(100.939602 660.338437)scale(0.1 -0.1)">
       <use xlink:href="#DejaVuSans-30"/>
      </g>
     </g>
    </g>
    <g id="xtick_7">
     <g id="line2d_21">
      <g>
       <use style="stroke:#000000;stroke-width:0.8;" x="228.612831" xlink:href="#m190a49e4b7" y="645.74"/>
      </g>
     </g>
     <g id="text_17">
      <!-- 25 -->
      <g transform="translate(222.250331 660.338437)scale(0.1 -0.1)">
       <use xlink:href="#DejaVuSans-32"/>
       <use x="63.623047" xlink:href="#DejaVuSans-35"/>
      </g>
     </g>
    </g>
    <g id="xtick_8">
     <g id="line2d_22">
      <g>
       <use style="stroke:#000000;stroke-width:0.8;" x="353.104809" xlink:href="#m190a49e4b7" y="645.74"/>
      </g>
     </g>
     <g id="text_18">
      <!-- 50 -->
      <g transform="translate(346.742309 660.338437)scale(0.1 -0.1)">
       <use xlink:href="#DejaVuSans-35"/>
       <use x="63.623047" xlink:href="#DejaVuSans-30"/>
      </g>
     </g>
    </g>
    <g id="xtick_9">
     <g id="line2d_23">
      <g>
       <use style="stroke:#000000;stroke-width:0.8;" x="477.596788" xlink:href="#m190a49e4b7" y="645.74"/>
      </g>
     </g>
     <g id="text_19">
      <!-- 75 -->
      <defs>
       <path d="M 8.203125 72.90625 
L 55.078125 72.90625 
L 55.078125 68.703125 
L 28.609375 0 
L 18.3125 0 
L 43.21875 64.59375 
L 8.203125 64.59375 
z
" id="DejaVuSans-37"/>
      </defs>
      <g transform="translate(471.234288 660.338437)scale(0.1 -0.1)">
       <use xlink:href="#DejaVuSans-37"/>
       <use x="63.623047" xlink:href="#DejaVuSans-35"/>
      </g>
     </g>
    </g>
    <g id="xtick_10">
     <g id="line2d_24">
      <g>
       <use style="stroke:#000000;stroke-width:0.8;" x="602.088767" xlink:href="#m190a49e4b7" y="645.74"/>
      </g>
     </g>
     <g id="text_20">
      <!-- 100 -->
      <g transform="translate(592.545017 660.338437)scale(0.1 -0.1)">
       <use xlink:href="#DejaVuSans-31"/>
       <use x="63.623047" xlink:href="#DejaVuSans-30"/>
       <use x="127.246094" xlink:href="#DejaVuSans-30"/>
      </g>
     </g>
    </g>
    <g id="xtick_11">
     <g id="line2d_25">
      <g>
       <use style="stroke:#000000;stroke-width:0.8;" x="726.580745" xlink:href="#m190a49e4b7" y="645.74"/>
      </g>
     </g>
     <g id="text_21">
      <!-- 125 -->
      <g transform="translate(717.036995 660.338437)scale(0.1 -0.1)">
       <use xlink:href="#DejaVuSans-31"/>
       <use x="63.623047" xlink:href="#DejaVuSans-32"/>
       <use x="127.246094" xlink:href="#DejaVuSans-35"/>
      </g>
     </g>
    </g>
    <g id="xtick_12">
     <g id="line2d_26">
      <g>
       <use style="stroke:#000000;stroke-width:0.8;" x="851.072724" xlink:href="#m190a49e4b7" y="645.74"/>
      </g>
     </g>
     <g id="text_22">
      <!-- 150 -->
      <g transform="translate(841.528974 660.338437)scale(0.1 -0.1)">
       <use xlink:href="#DejaVuSans-31"/>
       <use x="63.623047" xlink:href="#DejaVuSans-35"/>
       <use x="127.246094" xlink:href="#DejaVuSans-30"/>
      </g>
     </g>
    </g>
    <g id="xtick_13">
     <g id="line2d_27">
      <g>
       <use style="stroke:#000000;stroke-width:0.8;" x="975.564703" xlink:href="#m190a49e4b7" y="645.74"/>
      </g>
     </g>
     <g id="text_23">
      <!-- 175 -->
      <g transform="translate(966.020953 660.338437)scale(0.1 -0.1)">
       <use xlink:href="#DejaVuSans-31"/>
       <use x="63.623047" xlink:href="#DejaVuSans-37"/>
       <use x="127.246094" xlink:href="#DejaVuSans-35"/>
      </g>
     </g>
    </g>
    <g id="xtick_14">
     <g id="line2d_28">
      <g>
       <use style="stroke:#000000;stroke-width:0.8;" x="1100.056681" xlink:href="#m190a49e4b7" y="645.74"/>
      </g>
     </g>
     <g id="text_24">
      <!-- 200 -->
      <g transform="translate(1090.512931 660.338437)scale(0.1 -0.1)">
       <use xlink:href="#DejaVuSans-32"/>
       <use x="63.623047" xlink:href="#DejaVuSans-30"/>
       <use x="127.246094" xlink:href="#DejaVuSans-30"/>
      </g>
     </g>
    </g>
   </g>
   <g id="matplotlib.axis_4">
    <g id="ytick_6">
     <g id="line2d_29">
      <g>
       <use style="stroke:#000000;stroke-width:0.8;" x="53.328125" xlink:href="#m626e9b6d67" y="636.765835"/>
      </g>
     </g>
     <g id="text_25">
      <!-- −20 -->
      <defs>
       <path d="M 10.59375 35.5 
L 73.1875 35.5 
L 73.1875 27.203125 
L 10.59375 27.203125 
z
" id="DejaVuSans-2212"/>
      </defs>
      <g transform="translate(25.223437 640.565054)scale(0.1 -0.1)">
       <use xlink:href="#DejaVuSans-2212"/>
       <use x="83.789062" xlink:href="#DejaVuSans-32"/>
       <use x="147.412109" xlink:href="#DejaVuSans-30"/>
      </g>
     </g>
    </g>
    <g id="ytick_7">
     <g id="line2d_30">
      <g>
       <use style="stroke:#000000;stroke-width:0.8;" x="53.328125" xlink:href="#m626e9b6d67" y="614.467032"/>
      </g>
     </g>
     <g id="text_26">
      <!-- −10 -->
      <g transform="translate(25.223437 618.26625)scale(0.1 -0.1)">
       <use xlink:href="#DejaVuSans-2212"/>
       <use x="83.789062" xlink:href="#DejaVuSans-31"/>
       <use x="147.412109" xlink:href="#DejaVuSans-30"/>
      </g>
     </g>
    </g>
    <g id="ytick_8">
     <g id="line2d_31">
      <g>
       <use style="stroke:#000000;stroke-width:0.8;" x="53.328125" xlink:href="#m626e9b6d67" y="592.168228"/>
      </g>
     </g>
     <g id="text_27">
      <!-- 0 -->
      <g transform="translate(39.965625 595.967447)scale(0.1 -0.1)">
       <use xlink:href="#DejaVuSans-30"/>
      </g>
     </g>
    </g>
    <g id="ytick_9">
     <g id="line2d_32">
      <g>
       <use style="stroke:#000000;stroke-width:0.8;" x="53.328125" xlink:href="#m626e9b6d67" y="569.869424"/>
      </g>
     </g>
     <g id="text_28">
      <!-- 10 -->
      <g transform="translate(33.603125 573.668643)scale(0.1 -0.1)">
       <use xlink:href="#DejaVuSans-31"/>
       <use x="63.623047" xlink:href="#DejaVuSans-30"/>
      </g>
     </g>
    </g>
    <g id="ytick_10">
     <g id="line2d_33">
      <g>
       <use style="stroke:#000000;stroke-width:0.8;" x="53.328125" xlink:href="#m626e9b6d67" y="547.570621"/>
      </g>
     </g>
     <g id="text_29">
      <!-- 20 -->
      <g transform="translate(33.603125 551.36984)scale(0.1 -0.1)">
       <use xlink:href="#DejaVuSans-32"/>
       <use x="63.623047" xlink:href="#DejaVuSans-30"/>
      </g>
     </g>
    </g>
    <g id="ytick_11">
     <g id="line2d_34">
      <g>
       <use style="stroke:#000000;stroke-width:0.8;" x="53.328125" xlink:href="#m626e9b6d67" y="525.271817"/>
      </g>
     </g>
     <g id="text_30">
      <!-- 30 -->
      <defs>
       <path d="M 40.578125 39.3125 
Q 47.65625 37.796875 51.625 33 
Q 55.609375 28.21875 55.609375 21.1875 
Q 55.609375 10.40625 48.1875 4.484375 
Q 40.765625 -1.421875 27.09375 -1.421875 
Q 22.515625 -1.421875 17.65625 -0.515625 
Q 12.796875 0.390625 7.625 2.203125 
L 7.625 11.71875 
Q 11.71875 9.328125 16.59375 8.109375 
Q 21.484375 6.890625 26.8125 6.890625 
Q 36.078125 6.890625 40.9375 10.546875 
Q 45.796875 14.203125 45.796875 21.1875 
Q 45.796875 27.640625 41.28125 31.265625 
Q 36.765625 34.90625 28.71875 34.90625 
L 20.21875 34.90625 
L 20.21875 43.015625 
L 29.109375 43.015625 
Q 36.375 43.015625 40.234375 45.921875 
Q 44.09375 48.828125 44.09375 54.296875 
Q 44.09375 59.90625 40.109375 62.90625 
Q 36.140625 65.921875 28.71875 65.921875 
Q 24.65625 65.921875 20.015625 65.03125 
Q 15.375 64.15625 9.8125 62.3125 
L 9.8125 71.09375 
Q 15.4375 72.65625 20.34375 73.4375 
Q 25.25 74.21875 29.59375 74.21875 
Q 40.828125 74.21875 47.359375 69.109375 
Q 53.90625 64.015625 53.90625 55.328125 
Q 53.90625 49.265625 50.4375 45.09375 
Q 46.96875 40.921875 40.578125 39.3125 
z
" id="DejaVuSans-33"/>
      </defs>
      <g transform="translate(33.603125 529.071036)scale(0.1 -0.1)">
       <use xlink:href="#DejaVuSans-33"/>
       <use x="63.623047" xlink:href="#DejaVuSans-30"/>
      </g>
     </g>
    </g>
    <g id="text_31">
     <!-- Temperature -->
     <defs>
      <path d="M 18.109375 8.203125 
L 18.109375 -20.796875 
L 9.078125 -20.796875 
L 9.078125 54.6875 
L 18.109375 54.6875 
L 18.109375 46.390625 
Q 20.953125 51.265625 25.265625 53.625 
Q 29.59375 56 35.59375 56 
Q 45.5625 56 51.78125 48.09375 
Q 58.015625 40.1875 58.015625 27.296875 
Q 58.015625 14.40625 51.78125 6.484375 
Q 45.5625 -1.421875 35.59375 -1.421875 
Q 29.59375 -1.421875 25.265625 0.953125 
Q 20.953125 3.328125 18.109375 8.203125 
z
M 48.6875 27.296875 
Q 48.6875 37.203125 44.609375 42.84375 
Q 40.53125 48.484375 33.40625 48.484375 
Q 26.265625 48.484375 22.1875 42.84375 
Q 18.109375 37.203125 18.109375 27.296875 
Q 18.109375 17.390625 22.1875 11.75 
Q 26.265625 6.109375 33.40625 6.109375 
Q 40.53125 6.109375 44.609375 11.75 
Q 48.6875 17.390625 48.6875 27.296875 
z
" id="DejaVuSans-70"/>
     </defs>
     <g style="fill:#0000ff;" transform="translate(19.14375 613.557187)rotate(-90)scale(0.1 -0.1)">
      <use xlink:href="#DejaVuSans-54"/>
      <use x="60.818359" xlink:href="#DejaVuSans-65"/>
      <use x="122.341797" xlink:href="#DejaVuSans-6d"/>
      <use x="219.753906" xlink:href="#DejaVuSans-70"/>
      <use x="283.230469" xlink:href="#DejaVuSans-65"/>
      <use x="344.753906" xlink:href="#DejaVuSans-72"/>
      <use x="385.867188" xlink:href="#DejaVuSans-61"/>
      <use x="447.146484" xlink:href="#DejaVuSans-74"/>
      <use x="486.355469" xlink:href="#DejaVuSans-75"/>
      <use x="549.734375" xlink:href="#DejaVuSans-72"/>
      <use x="590.816406" xlink:href="#DejaVuSans-65"/>
     </g>
    </g>
   </g>
   <g id="line2d_35">
    <path clip-path="url(#p16013b5af2)" d="M 104.120852 541.421949 
L 109.100531 533.756958 
L 114.080211 549.743862 
L 119.05989 562.033625 
L 124.039569 580.143375 
L 129.019248 585.233746 
L 133.998927 599.488033 
L 138.978606 596.277452 
L 143.958285 587.532753 
L 148.937965 563.223935 
L 153.917644 559.66683 
L 158.897323 546.364702 
L 163.877002 533.885845 
L 168.856681 536.84445 
L 173.83636 546.573418 
L 178.816039 566.199041 
L 183.795719 576.943943 
L 188.775398 591.531374 
L 193.755077 598.006055 
L 198.734756 590.057274 
L 203.714435 576.084837 
L 208.694114 569.445078 
L 213.673793 564.056795 
L 218.653473 545.685703 
L 223.633152 541.115786 
L 228.612831 538.24816 
L 233.59251 546.133017 
L 238.572189 560.717995 
L 243.551868 582.715765 
L 248.531547 588.44377 
L 253.511227 595.767812 
L 258.490906 582.826144 
L 263.470585 566.507434 
L 268.450264 572.039656 
L 273.429943 560.699041 
L 278.409622 551.968614 
L 283.389301 541.892676 
L 288.368981 542.334193 
L 293.34866 539.613293 
L 298.328339 556.815259 
L 303.308018 573.161687 
L 308.287697 602.126874 
L 313.267376 596.612067 
L 318.247055 595.073383 
L 323.226735 590.026586 
L 328.206414 570.509846 
L 333.186093 554.11532 
L 338.165772 548.738855 
L 343.145451 539.18025 
L 348.12513 536.815239 
L 353.104809 548.696933 
L 358.084489 557.874898 
L 363.064168 579.179487 
L 368.043847 592.532972 
L 373.023526 595.721074 
L 378.003205 590.800674 
L 382.982884 577.896035 
L 387.962564 570.405867 
L 392.942243 559.462796 
L 397.921922 545.776236 
L 402.901601 539.945099 
L 407.88128 532.687507 
L 412.860959 542.886757 
L 417.840638 557.776114 
L 422.820318 577.113815 
L 427.799997 597.454159 
L 432.779676 599.345254 
L 437.759355 595.666264 
L 442.739034 585.556878 
L 447.718713 560.863161 
L 452.698392 555.404414 
L 457.678072 546.028436 
L 462.657751 532.452701 
L 467.63743 533.54445 
L 472.617109 540.536909 
L 477.596788 558.286534 
L 482.576467 577.850478 
L 487.556146 587.856019 
L 492.535826 603.050869 
L 497.515505 594.577146 
L 502.495184 573.63984 
L 507.474863 564.074411 
L 512.454542 551.439686 
L 517.434221 532.970702 
L 522.4139 535.831862 
L 527.39358 522.030909 
L 532.373259 541.966931 
L 537.352938 555.084426 
L 542.332617 579.526211 
L 547.312296 594.807291 
L 552.291975 600.369081 
L 557.271654 591.844258 
L 562.251334 580.210495 
L 567.231013 569.270702 
L 572.210692 544.474432 
L 577.190371 536.853147 
L 582.17005 533.860424 
L 587.149729 532.327159 
L 592.129408 534.137153 
L 597.109088 552.042423 
L 602.088767 577.859732 
L 607.068446 594.141353 
L 612.048125 607.154607 
L 617.027804 596.054263 
L 622.007483 565.456268 
L 626.987162 550.171107 
L 631.966842 551.519739 
L 636.946521 539.122273 
L 641.9262 528.68621 
L 646.905879 527.080696 
L 651.885558 539.382723 
L 656.865237 554.53922 
L 661.844916 570.837193 
L 666.824596 589.30825 
L 671.804275 599.290778 
L 676.783954 584.018015 
L 681.763633 576.830464 
L 686.743312 565.738348 
L 691.722991 548.294886 
L 696.70267 538.093629 
L 701.68235 531.76679 
L 706.662029 536.303035 
L 711.641708 545.832429 
L 716.621387 551.183027 
L 721.601066 572.738634 
L 726.580745 584.413975 
L 731.560424 590.0766 
L 736.540104 584.726471 
L 741.519783 572.148674 
L 746.499462 562.801596 
L 751.479141 551.132855 
L 756.45882 531.284021 
L 761.438499 525.527807 
L 766.418178 525.998312 
L 771.397858 531.962573 
L 776.377537 555.708792 
L 781.357216 564.826996 
L 786.336895 576.53835 
L 791.316574 592.021375 
L 796.296253 594.614407 
L 801.275932 578.754539 
L 806.255612 563.288156 
L 811.235291 550.471249 
L 816.21497 535.509867 
L 821.194649 524.705874 
L 826.174328 529.346255 
L 831.154007 540.957019 
L 836.133686 558.111265 
L 841.113366 586.440936 
L 846.093045 593.0382 
L 851.072724 592.107384 
L 856.052403 599.858439 
L 861.032082 586.75535 
L 866.011761 554.181547 
L 875.97112 535.422679 
L 880.950799 530.121807 
L 885.930478 525.650897 
L 890.910157 537.044694 
L 895.889836 550.299325 
L 900.869515 568.131456 
L 905.849195 591.240598 
L 910.828874 594.098667 
L 915.808553 585.784081 
L 920.788232 574.76147 
L 925.767911 555.886291 
L 930.74759 547.813678 
L 935.727269 536.986048 
L 940.706949 530.335876 
L 945.686628 530.823104 
L 950.666307 540.275344 
L 955.645986 557.757606 
L 960.625665 568.754707 
L 965.605344 600.077614 
L 970.585023 598.33989 
L 975.564703 586.896479 
L 980.544382 569.88568 
L 985.524061 556.371736 
L 990.50374 543.293041 
L 995.483419 534.866323 
L 1000.463098 527.215604 
L 1005.442777 522.425375 
L 1010.422457 536.892616 
L 1015.402136 558.237031 
L 1020.381815 573.815398 
L 1025.361494 581.385642 
L 1030.341173 585.878851 
L 1035.320852 580.324285 
L 1040.300531 572.182457 
L 1045.280211 559.955153 
L 1050.25989 547.218523 
L 1055.239569 530.721868 
L 1060.219248 525.365026 
L 1065.198927 526.86083 
L 1070.178606 532.665209 
L 1075.158285 556.078729 
L 1080.137965 568.440294 
L 1085.117644 586.151877 
L 1090.097323 589.466862 
L 1095.077002 576.77358 
L 1100.056681 568.368492 
L 1105.03636 554.788521 
L 1110.016039 547.100339 
L 1114.995719 537.061641 
L 1119.975398 531.521949 
L 1119.975398 531.521949 
" style="fill:none;stroke:#ff0000;stroke-linecap:square;stroke-width:1.5;"/>
   </g>
   <g id="line2d_36">
    <path clip-path="url(#p16013b5af2)" d="M 104.120852 548.365127 
L 109.100531 543.428172 
L 114.080211 559.056289 
L 119.05989 569.006461 
L 124.039569 586.395625 
L 129.019248 593.239128 
L 133.998927 603.885692 
L 138.978606 604.141013 
L 143.958285 594.879205 
L 148.937965 570.805974 
L 153.917644 566.827868 
L 158.897323 555.690284 
L 163.877002 541.42953 
L 168.856681 545.53697 
L 173.83636 555.483797 
L 178.816039 572.690223 
L 188.775398 596.333087 
L 193.755077 603.957606 
L 198.734756 595.171877 
L 203.714435 578.824624 
L 208.694114 569.431253 
L 213.673793 564.289149 
L 218.653473 552.121138 
L 223.633152 544.95118 
L 228.612831 542.457505 
L 233.59251 553.121462 
L 238.572189 568.552234 
L 243.551868 587.860835 
L 248.531547 593.411386 
L 253.511227 602.502988 
L 258.490906 591.754028 
L 263.470585 573.981324 
L 268.450264 572.07404 
L 273.429943 565.278101 
L 278.409622 555.457039 
L 283.389301 546.19367 
L 288.368981 546.629611 
L 293.34866 548.103562 
L 298.328339 562.522638 
L 303.308018 581.925652 
L 308.287697 607.778729 
L 313.267376 601.574755 
L 318.247055 598.040061 
L 323.226735 595.029165 
L 328.206414 574.892787 
L 333.186093 563.214347 
L 338.165772 558.418543 
L 343.145451 549.104333 
L 348.12513 546.897197 
L 353.104809 559.417529 
L 358.084489 564.999812 
L 363.064168 586.281344 
L 368.043847 597.567214 
L 373.023526 600.842909 
L 378.003205 595.994257 
L 382.982884 583.843639 
L 387.962564 579.043152 
L 392.942243 566.977716 
L 397.921922 553.923104 
L 402.901601 549.022719 
L 407.88128 543.567763 
L 412.860959 554.931679 
L 417.840638 569.136686 
L 422.820318 584.988013 
L 427.799997 606.111023 
L 432.779676 608.081033 
L 437.759355 602.055072 
L 442.739034 592.438322 
L 447.718713 572.394296 
L 457.678072 552.929469 
L 462.657751 542.483595 
L 467.63743 543.528294 
L 472.617109 555.266607 
L 477.596788 565.477675 
L 482.576467 583.223799 
L 487.556146 596.002886 
L 492.535826 609.818378 
L 497.515505 603.720859 
L 502.495184 586.232287 
L 507.474863 571.377559 
L 512.454542 560.23478 
L 517.434221 544.131476 
L 522.4139 545.199143 
L 527.39358 538.415178 
L 532.373259 552.387831 
L 537.352938 567.01161 
L 542.332617 586.748036 
L 547.312296 602.952242 
L 552.291975 612.858173 
L 557.271654 603.57119 
L 562.251334 590.785383 
L 567.231013 579.905737 
L 572.210692 558.986939 
L 577.190371 551.599569 
L 582.17005 545.662289 
L 587.149729 544.613353 
L 592.129408 549.56235 
L 597.109088 566.517245 
L 602.088767 587.922848 
L 607.068446 603.499521 
L 612.048125 618.405 
L 617.027804 607.306886 
L 622.007483 577.490041 
L 626.987162 565.148099 
L 631.966842 565.532976 
L 636.946521 553.777493 
L 641.9262 543.536098 
L 646.905879 540.411367 
L 656.865237 565.551038 
L 661.844916 582.235962 
L 666.824596 599.94478 
L 671.804275 609.454573 
L 676.783954 594.314646 
L 681.763633 588.166864 
L 686.743312 577.868384 
L 691.722991 560.448626 
L 696.70267 552.492636 
L 701.68235 546.026875 
L 706.662029 548.682885 
L 711.641708 559.207697 
L 716.621387 564.532206 
L 721.601066 583.258273 
L 726.580745 592.967163 
L 731.560424 598.49121 
L 736.540104 592.630556 
L 741.519783 583.609947 
L 746.499462 572.578283 
L 751.479141 564.009745 
L 756.45882 546.999325 
L 761.438499 540.32351 
L 766.418178 541.396528 
L 771.397858 548.259208 
L 776.377537 565.686838 
L 781.357216 580.050322 
L 786.336895 589.817934 
L 791.316574 601.556671 
L 796.296253 604.587703 
L 801.275932 589.150085 
L 806.255612 571.496791 
L 811.235291 563.280574 
L 816.21497 550.598352 
L 821.194649 540.2138 
L 826.174328 544.945383 
L 831.154007 555.234274 
L 836.133686 571.802084 
L 841.113366 595.704172 
L 846.093045 602.433638 
L 851.072724 601.534372 
L 856.052403 610.072317 
L 861.032082 597.416095 
L 866.011761 568.48177 
L 870.991441 558.868756 
L 875.97112 550.177797 
L 880.950799 544.920408 
L 885.930478 540.854667 
L 895.889836 563.583838 
L 900.869515 579.721348 
L 905.849195 596.820138 
L 910.828874 604.131536 
L 915.808553 595.470034 
L 920.788232 584.776175 
L 925.767911 570.006562 
L 935.727269 551.318604 
L 940.706949 545.049741 
L 945.686628 545.932774 
L 950.666307 554.468756 
L 955.645986 572.591462 
L 960.625665 578.004474 
L 965.605344 608.57823 
L 970.585023 605.995404 
L 975.564703 600.385337 
L 980.544382 582.693154 
L 985.524061 568.989068 
L 990.50374 557.920611 
L 995.483419 550.531456 
L 1000.463098 541.975851 
L 1005.442777 538.336686 
L 1010.422457 551.317935 
L 1015.402136 570.757876 
L 1020.381815 587.505548 
L 1025.361494 591.327039 
L 1030.341173 599.38722 
L 1035.320852 594.887344 
L 1040.300531 586.908676 
L 1045.280211 574.012676 
L 1050.25989 562.604251 
L 1055.239569 548.254525 
L 1060.219248 543.167722 
L 1065.198927 544.34666 
L 1070.178606 551.551626 
L 1075.158285 568.449214 
L 1080.137965 584.243501 
L 1085.117644 599.595045 
L 1090.097323 601.123561 
L 1095.077002 589.410513 
L 1100.056681 582.968656 
L 1105.03636 571.162465 
L 1110.016039 562.276013 
L 1114.995719 553.840375 
L 1119.975398 547.45043 
L 1119.975398 547.45043 
" style="fill:none;stroke:#008000;stroke-linecap:square;stroke-width:1.5;"/>
   </g>
   <g id="line2d_37">
    <path clip-path="url(#p16013b5af2)" d="M 104.120852 560.628354 
L 109.100531 557.993528 
L 114.080211 572.876976 
L 119.05989 581.918026 
L 124.039569 597.772475 
L 129.019248 603.950916 
L 133.998927 612.54822 
L 138.978606 615.22809 
L 143.958285 606.269991 
L 148.937965 583.711407 
L 153.917644 579.211508 
L 158.897323 570.400693 
L 163.877002 556.881932 
L 168.856681 559.610414 
L 173.83636 570.64821 
L 183.795719 597.505447 
L 188.775398 604.741966 
L 193.755077 610.359592 
L 198.734756 604.986695 
L 203.714435 588.844591 
L 208.694114 581.517205 
L 213.673793 577.50119 
L 218.653473 567.978486 
L 223.633152 559.226205 
L 228.612831 558.274047 
L 233.59251 571.229651 
L 238.572189 583.105994 
L 243.551868 597.972607 
L 248.531547 599.440604 
L 253.511227 613.897676 
L 258.490906 602.394459 
L 263.470585 586.458619 
L 268.450264 578.501291 
L 273.429943 576.637111 
L 278.409622 569.732287 
L 283.389301 561.788338 
L 288.368981 562.68698 
L 293.34866 569.051727 
L 298.328339 576.590284 
L 303.308018 593.02636 
L 308.287697 616.154605 
L 313.267376 609.73255 
L 318.247055 606.741054 
L 323.226735 604.093182 
L 328.206414 584.855335 
L 333.186093 577.244754 
L 338.165772 571.578628 
L 343.145451 562.087588 
L 348.12513 560.270904 
L 353.104809 573.446153 
L 358.084489 576.791865 
L 363.064168 595.178187 
L 368.043847 605.758903 
L 373.023526 609.314224 
L 378.003205 606.653531 
L 382.982884 595.363647 
L 387.962564 591.214582 
L 392.942243 578.618739 
L 397.921922 569.606968 
L 402.901601 562.712846 
L 407.88128 557.717245 
L 412.860959 570.237355 
L 417.840638 581.467991 
L 422.820318 594.435058 
L 427.799997 615.863606 
L 432.779676 618.436665 
L 437.759355 614.493121 
L 442.739034 602.477255 
L 447.718713 584.136846 
L 452.698392 574.292392 
L 457.678072 567.338956 
L 462.657751 556.768431 
L 467.63743 557.483108 
L 472.617109 569.323773 
L 477.596788 579.578881 
L 482.576467 592.582986 
L 487.556146 602.744172 
L 492.535826 618.002953 
L 497.515505 613.796797 
L 502.495184 597.629852 
L 507.474863 581.894054 
L 512.454542 574.015151 
L 517.434221 560.468249 
L 522.4139 557.944693 
L 527.39358 555.959877 
L 532.373259 566.713475 
L 537.352938 575.829159 
L 542.332617 596.05491 
L 547.312296 612.833644 
L 552.291975 622.345645 
L 557.271654 614.395029 
L 562.251334 599.103535 
L 567.231013 589.196913 
L 572.210692 572.461281 
L 577.190371 568.107373 
L 582.17005 561.203217 
L 587.149729 560.157404 
L 592.129408 564.524847 
L 597.109088 579.270912 
L 602.088767 596.953551 
L 607.068446 612.094439 
L 612.048125 628.699689 
L 617.027804 618.098169 
L 622.007483 590.342328 
L 626.987162 579.800933 
L 631.966842 579.308129 
L 636.946521 568.316759 
L 641.9262 557.923955 
L 646.905879 556.55191 
L 651.885558 567.565958 
L 656.865237 580.162173 
L 661.844916 593.294318 
L 666.824596 609.770904 
L 671.804275 619.11767 
L 676.783954 603.979592 
L 681.763633 599.027987 
L 686.743312 589.212901 
L 691.722991 575.334861 
L 696.70267 567.067803 
L 701.68235 559.076804 
L 706.662029 562.38104 
L 711.641708 571.405812 
L 716.621387 578.620969 
L 721.601066 591.366214 
L 726.580745 600.272884 
L 731.560424 606.025976 
L 736.540104 601.167379 
L 741.519783 594.768269 
L 751.479141 575.453781 
L 756.45882 564.529753 
L 761.438499 553.954099 
L 766.418178 556.022982 
L 771.397858 562.993142 
L 776.377537 578.446815 
L 781.357216 593.456727 
L 786.336895 599.220961 
L 791.316574 609.438651 
L 796.296253 613.891076 
L 801.275932 602.310371 
L 806.255612 582.503191 
L 811.235291 574.878851 
L 821.194649 554.477006 
L 826.174328 558.155194 
L 831.154007 569.564377 
L 836.133686 583.72405 
L 841.113366 604.524307 
L 846.093045 610.223882 
L 851.072724 609.884628 
L 856.052403 620.396953 
L 861.032082 608.389961 
L 866.011761 581.70525 
L 870.991441 571.539226 
L 875.97112 564.117671 
L 880.950799 557.922171 
L 885.930478 556.748362 
L 895.889836 576.544571 
L 900.869515 588.202386 
L 905.849195 606.959404 
L 910.828874 613.190581 
L 915.808553 604.005704 
L 920.788232 595.893243 
L 925.767911 583.395879 
L 930.74759 571.658903 
L 940.706949 557.528821 
L 945.686628 559.777655 
L 950.666307 569.469161 
L 955.645986 585.757701 
L 960.625665 589.23705 
L 965.605344 616.972971 
L 970.585023 612.936063 
L 975.564703 611.68733 
L 980.544382 593.96169 
L 985.524061 581.756181 
L 990.50374 570.637997 
L 995.483419 564.625192 
L 1000.463098 555.035814 
L 1005.442777 554.929226 
L 1010.422457 564.75564 
L 1015.402136 581.295019 
L 1020.381815 596.485143 
L 1025.361494 599.759722 
L 1030.341173 608.790492 
L 1035.320852 604.421554 
L 1040.300531 598.989432 
L 1045.280211 586.345609 
L 1050.25989 575.287766 
L 1055.239569 563.093933 
L 1060.219248 557.21084 
L 1065.198927 558.76016 
L 1070.178606 566.553592 
L 1075.158285 577.339078 
L 1080.137965 595.059848 
L 1085.117644 608.400441 
L 1090.097323 609.58201 
L 1095.077002 599.029258 
L 1100.056681 594.094321 
L 1105.03636 584.656542 
L 1110.016039 574.662129 
L 1114.995719 566.612238 
L 1119.975398 560.016921 
L 1119.975398 560.016921 
" style="fill:none;stroke:#0000ff;stroke-linecap:square;stroke-width:1.5;"/>
   </g>
   <g id="line2d_38">
    <defs>
     <path d="M 0 3 
C 0.795609 3 1.55874 2.683901 2.12132 2.12132 
C 2.683901 1.55874 3 0.795609 3 0 
C 3 -0.795609 2.683901 -1.55874 2.12132 -2.12132 
C 1.55874 -2.683901 0.795609 -3 0 -3 
C -0.795609 -3 -1.55874 -2.683901 -2.12132 -2.12132 
C -2.683901 -1.55874 -3 -0.795609 -3 0 
C -3 0.795609 -2.683901 1.55874 -2.12132 2.12132 
C -1.55874 2.683901 -0.795609 3 0 3 
z
" id="m4c18a9d811" style="stroke:#ff0000;"/>
    </defs>
    <g clip-path="url(#p16013b5af2)">
     <use style="fill:#ff0000;stroke:#ff0000;" x="158.897323" xlink:href="#m4c18a9d811" y="639.849091"/>
     <use style="fill:#ff0000;stroke:#ff0000;" x="163.877002" xlink:href="#m4c18a9d811" y="639.849091"/>
     <use style="fill:#ff0000;stroke:#ff0000;" x="168.856681" xlink:href="#m4c18a9d811" y="639.849091"/>
     <use style="fill:#ff0000;stroke:#ff0000;" x="173.83636" xlink:href="#m4c18a9d811" y="639.849091"/>
     <use style="fill:#ff0000;stroke:#ff0000;" x="178.816039" xlink:href="#m4c18a9d811" y="639.849091"/>
     <use style="fill:#ff0000;stroke:#ff0000;" x="183.795719" xlink:href="#m4c18a9d811" y="639.849091"/>
     <use style="fill:#ff0000;stroke:#ff0000;" x="188.775398" xlink:href="#m4c18a9d811" y="639.849091"/>
     <use style="fill:#ff0000;stroke:#ff0000;" x="382.982884" xlink:href="#m4c18a9d811" y="639.849091"/>
     <use style="fill:#ff0000;stroke:#ff0000;" x="930.74759" xlink:href="#m4c18a9d811" y="639.849091"/>
     <use style="fill:#ff0000;stroke:#ff0000;" x="965.605344" xlink:href="#m4c18a9d811" y="639.849091"/>
     <use style="fill:#ff0000;stroke:#ff0000;" x="970.585023" xlink:href="#m4c18a9d811" y="639.849091"/>
     <use style="fill:#ff0000;stroke:#ff0000;" x="975.564703" xlink:href="#m4c18a9d811" y="639.849091"/>
     <use style="fill:#ff0000;stroke:#ff0000;" x="1114.995719" xlink:href="#m4c18a9d811" y="639.849091"/>
    </g>
   </g>
   <g id="patch_9">
    <path d="M 53.328125 645.74 
L 53.328125 516.14 
" style="fill:none;stroke:#000000;stroke-linecap:square;stroke-linejoin:miter;stroke-width:0.8;"/>
   </g>
   <g id="patch_10">
    <path d="M 1170.768125 645.74 
L 1170.768125 516.14 
" style="fill:none;stroke:#000000;stroke-linecap:square;stroke-linejoin:miter;stroke-width:0.8;"/>
   </g>
   <g id="patch_11">
    <path d="M 53.328125 645.74 
L 1170.768125 645.74 
" style="fill:none;stroke:#000000;stroke-linecap:square;stroke-linejoin:miter;stroke-width:0.8;"/>
   </g>
   <g id="patch_12">
    <path d="M 53.328125 516.14 
L 1170.768125 516.14 
" style="fill:none;stroke:#000000;stroke-linecap:square;stroke-linejoin:miter;stroke-width:0.8;"/>
   </g>
   <g id="legend_2">
    <g id="patch_13">
     <path d="M 60.328125 582.8525 
L 151.340625 582.8525 
Q 153.340625 582.8525 153.340625 580.8525 
L 153.340625 523.14 
Q 153.340625 521.14 151.340625 521.14 
L 60.328125 521.14 
Q 58.328125 521.14 58.328125 523.14 
L 58.328125 580.8525 
Q 58.328125 582.8525 60.328125 582.8525 
z
" style="fill:#ffffff;opacity:0.8;stroke:#cccccc;stroke-linejoin:miter;"/>
    </g>
    <g id="line2d_39">
     <path d="M 62.328125 529.238437 
L 82.328125 529.238437 
" style="fill:none;stroke:#ff0000;stroke-linecap:square;stroke-width:1.5;"/>
    </g>
    <g id="line2d_40"/>
    <g id="text_32">
     <!-- Maxmimum -->
     <defs>
      <path d="M 9.8125 72.90625 
L 24.515625 72.90625 
L 43.109375 23.296875 
L 61.8125 72.90625 
L 76.515625 72.90625 
L 76.515625 0 
L 66.890625 0 
L 66.890625 64.015625 
L 48.09375 14.015625 
L 38.1875 14.015625 
L 19.390625 64.015625 
L 19.390625 0 
L 9.8125 0 
z
" id="DejaVuSans-4d"/>
      <path d="M 54.890625 54.6875 
L 35.109375 28.078125 
L 55.90625 0 
L 45.3125 0 
L 29.390625 21.484375 
L 13.484375 0 
L 2.875 0 
L 24.125 28.609375 
L 4.6875 54.6875 
L 15.28125 54.6875 
L 29.78125 35.203125 
L 44.28125 54.6875 
z
" id="DejaVuSans-78"/>
     </defs>
     <g transform="translate(90.328125 532.738437)scale(0.1 -0.1)">
      <use xlink:href="#DejaVuSans-4d"/>
      <use x="86.279297" xlink:href="#DejaVuSans-61"/>
      <use x="147.558594" xlink:href="#DejaVuSans-78"/>
      <use x="206.738281" xlink:href="#DejaVuSans-6d"/>
      <use x="304.150391" xlink:href="#DejaVuSans-69"/>
      <use x="331.933594" xlink:href="#DejaVuSans-6d"/>
      <use x="429.345703" xlink:href="#DejaVuSans-75"/>
      <use x="492.724609" xlink:href="#DejaVuSans-6d"/>
     </g>
    </g>
    <g id="line2d_41">
     <path d="M 62.328125 543.916562 
L 82.328125 543.916562 
" style="fill:none;stroke:#008000;stroke-linecap:square;stroke-width:1.5;"/>
    </g>
    <g id="line2d_42"/>
    <g id="text_33">
     <!-- Average -->
     <defs>
      <path d="M 34.1875 63.1875 
L 20.796875 26.90625 
L 47.609375 26.90625 
z
M 28.609375 72.90625 
L 39.796875 72.90625 
L 67.578125 0 
L 57.328125 0 
L 50.6875 18.703125 
L 17.828125 18.703125 
L 11.1875 0 
L 0.78125 0 
z
" id="DejaVuSans-41"/>
      <path d="M 2.984375 54.6875 
L 12.5 54.6875 
L 29.59375 8.796875 
L 46.6875 54.6875 
L 56.203125 54.6875 
L 35.6875 0 
L 23.484375 0 
z
" id="DejaVuSans-76"/>
     </defs>
     <g transform="translate(90.328125 547.416562)scale(0.1 -0.1)">
      <use xlink:href="#DejaVuSans-41"/>
      <use x="68.330078" xlink:href="#DejaVuSans-76"/>
      <use x="127.509766" xlink:href="#DejaVuSans-65"/>
      <use x="189.033203" xlink:href="#DejaVuSans-72"/>
      <use x="230.146484" xlink:href="#DejaVuSans-61"/>
      <use x="291.425781" xlink:href="#DejaVuSans-67"/>
      <use x="354.902344" xlink:href="#DejaVuSans-65"/>
     </g>
    </g>
    <g id="line2d_43">
     <path d="M 62.328125 558.594687 
L 82.328125 558.594687 
" style="fill:none;stroke:#0000ff;stroke-linecap:square;stroke-width:1.5;"/>
    </g>
    <g id="line2d_44"/>
    <g id="text_34">
     <!-- Minimum -->
     <g transform="translate(90.328125 562.094687)scale(0.1 -0.1)">
      <use xlink:href="#DejaVuSans-4d"/>
      <use x="86.279297" xlink:href="#DejaVuSans-69"/>
      <use x="114.0625" xlink:href="#DejaVuSans-6e"/>
      <use x="177.441406" xlink:href="#DejaVuSans-69"/>
      <use x="205.224609" xlink:href="#DejaVuSans-6d"/>
      <use x="302.636719" xlink:href="#DejaVuSans-75"/>
      <use x="366.015625" xlink:href="#DejaVuSans-6d"/>
     </g>
    </g>
    <g id="line2d_45"/>
    <g id="line2d_46">
     <g>
      <use style="fill:#ff0000;stroke:#ff0000;" x="72.328125" xlink:href="#m4c18a9d811" y="573.272812"/>
     </g>
    </g>
    <g id="text_35">
     <!-- Disasters -->
     <g transform="translate(90.328125 576.772812)scale(0.1 -0.1)">
      <use xlink:href="#DejaVuSans-44"/>
      <use x="77.001953" xlink:href="#DejaVuSans-69"/>
      <use x="104.785156" xlink:href="#DejaVuSans-73"/>
      <use x="156.884766" xlink:href="#DejaVuSans-61"/>
      <use x="218.164062" xlink:href="#DejaVuSans-73"/>
      <use x="270.263672" xlink:href="#DejaVuSans-74"/>
      <use x="309.472656" xlink:href="#DejaVuSans-65"/>
      <use x="370.996094" xlink:href="#DejaVuSans-72"/>
      <use x="412.109375" xlink:href="#DejaVuSans-73"/>
     </g>
    </g>
   </g>
  </g>
 </g>
 <defs>
  <clipPath id="p6dc4c35372">
   <rect height="498.96" width="1116" x="53.328125" y="10.7"/>
  </clipPath>
  <clipPath id="p16013b5af2">
   <rect height="129.6" width="1117.44" x="53.328125" y="516.14"/>
  </clipPath>
 </defs>
</svg>
