<?xml version="1.0" encoding="utf-8" standalone="no"?>
<!DOCTYPE svg PUBLIC "-//W3C//DTD SVG 1.1//EN"
  "http://www.w3.org/Graphics/SVG/1.1/DTD/svg11.dtd">
<!-- Created with matplotlib (http://matplotlib.org/) -->
<svg height="669pt" version="1.1" viewBox="0 0 1181 669" width="1181pt" xmlns="http://www.w3.org/2000/svg" xmlns:xlink="http://www.w3.org/1999/xlink">
 <defs>
  <style type="text/css">
*{stroke-linecap:butt;stroke-linejoin:round;}
  </style>
 </defs>
 <g id="figure_1">
  <g id="patch_1">
   <path d="M 0 669.618125 
L 1181.468125 669.618125 
L 1181.468125 -0 
L 0 -0 
z
" style="fill:none;"/>
  </g>
  <g id="axes_1">
   <g id="patch_2">
    <path d="M 53.328125 509.66 
L 1169.328125 509.66 
L 1169.328125 10.7 
L 53.328125 10.7 
z
" style="fill:none;"/>
   </g>
   <g id="matplotlib.axis_1">
    <g id="xtick_1">
     <g id="line2d_1">
      <defs>
       <path d="M 0 0 
L 0 3.5 
" id="m172237077e" style="stroke:#000000;stroke-width:0.8;"/>
      </defs>
      <g>
       <use style="stroke:#000000;stroke-width:0.8;" x="104.055398" xlink:href="#m172237077e" y="509.66"/>
      </g>
     </g>
     <g id="text_1">
      <!-- 0 -->
      <defs>
       <path d="M 31.78125 66.40625 
Q 24.171875 66.40625 20.328125 58.90625 
Q 16.5 51.421875 16.5 36.375 
Q 16.5 21.390625 20.328125 13.890625 
Q 24.171875 6.390625 31.78125 6.390625 
Q 39.453125 6.390625 43.28125 13.890625 
Q 47.125 21.390625 47.125 36.375 
Q 47.125 51.421875 43.28125 58.90625 
Q 39.453125 66.40625 31.78125 66.40625 
z
M 31.78125 74.21875 
Q 44.046875 74.21875 50.515625 64.515625 
Q 56.984375 54.828125 56.984375 36.375 
Q 56.984375 17.96875 50.515625 8.265625 
Q 44.046875 -1.421875 31.78125 -1.421875 
Q 19.53125 -1.421875 13.0625 8.265625 
Q 6.59375 17.96875 6.59375 36.375 
Q 6.59375 54.828125 13.0625 64.515625 
Q 19.53125 74.21875 31.78125 74.21875 
z
" id="DejaVuSans-30"/>
      </defs>
      <g transform="translate(100.874148 524.258437)scale(0.1 -0.1)">
       <use xlink:href="#DejaVuSans-30"/>
      </g>
     </g>
    </g>
    <g id="xtick_2">
     <g id="line2d_2">
      <g>
       <use style="stroke:#000000;stroke-width:0.8;" x="346.769621" xlink:href="#m172237077e" y="509.66"/>
      </g>
     </g>
     <g id="text_2">
      <!-- 50 -->
      <defs>
       <path d="M 10.796875 72.90625 
L 49.515625 72.90625 
L 49.515625 64.59375 
L 19.828125 64.59375 
L 19.828125 46.734375 
Q 21.96875 47.46875 24.109375 47.828125 
Q 26.265625 48.1875 28.421875 48.1875 
Q 40.625 48.1875 47.75 41.5 
Q 54.890625 34.8125 54.890625 23.390625 
Q 54.890625 11.625 47.5625 5.09375 
Q 40.234375 -1.421875 26.90625 -1.421875 
Q 22.3125 -1.421875 17.546875 -0.640625 
Q 12.796875 0.140625 7.71875 1.703125 
L 7.71875 11.625 
Q 12.109375 9.234375 16.796875 8.0625 
Q 21.484375 6.890625 26.703125 6.890625 
Q 35.15625 6.890625 40.078125 11.328125 
Q 45.015625 15.765625 45.015625 23.390625 
Q 45.015625 31 40.078125 35.4375 
Q 35.15625 39.890625 26.703125 39.890625 
Q 22.75 39.890625 18.8125 39.015625 
Q 14.890625 38.140625 10.796875 36.28125 
z
" id="DejaVuSans-35"/>
      </defs>
      <g transform="translate(340.407121 524.258437)scale(0.1 -0.1)">
       <use xlink:href="#DejaVuSans-35"/>
       <use x="63.623047" xlink:href="#DejaVuSans-30"/>
      </g>
     </g>
    </g>
    <g id="xtick_3">
     <g id="line2d_3">
      <g>
       <use style="stroke:#000000;stroke-width:0.8;" x="589.483845" xlink:href="#m172237077e" y="509.66"/>
      </g>
     </g>
     <g id="text_3">
      <!-- 100 -->
      <defs>
       <path d="M 12.40625 8.296875 
L 28.515625 8.296875 
L 28.515625 63.921875 
L 10.984375 60.40625 
L 10.984375 69.390625 
L 28.421875 72.90625 
L 38.28125 72.90625 
L 38.28125 8.296875 
L 54.390625 8.296875 
L 54.390625 0 
L 12.40625 0 
z
" id="DejaVuSans-31"/>
      </defs>
      <g transform="translate(579.940095 524.258437)scale(0.1 -0.1)">
       <use xlink:href="#DejaVuSans-31"/>
       <use x="63.623047" xlink:href="#DejaVuSans-30"/>
       <use x="127.246094" xlink:href="#DejaVuSans-30"/>
      </g>
     </g>
    </g>
    <g id="xtick_4">
     <g id="line2d_4">
      <g>
       <use style="stroke:#000000;stroke-width:0.8;" x="832.198068" xlink:href="#m172237077e" y="509.66"/>
      </g>
     </g>
     <g id="text_4">
      <!-- 150 -->
      <g transform="translate(822.654318 524.258437)scale(0.1 -0.1)">
       <use xlink:href="#DejaVuSans-31"/>
       <use x="63.623047" xlink:href="#DejaVuSans-35"/>
       <use x="127.246094" xlink:href="#DejaVuSans-30"/>
      </g>
     </g>
    </g>
    <g id="xtick_5">
     <g id="line2d_5">
      <g>
       <use style="stroke:#000000;stroke-width:0.8;" x="1074.912292" xlink:href="#m172237077e" y="509.66"/>
      </g>
     </g>
     <g id="text_5">
      <!-- 200 -->
      <defs>
       <path d="M 19.1875 8.296875 
L 53.609375 8.296875 
L 53.609375 0 
L 7.328125 0 
L 7.328125 8.296875 
Q 12.9375 14.109375 22.625 23.890625 
Q 32.328125 33.6875 34.8125 36.53125 
Q 39.546875 41.84375 41.421875 45.53125 
Q 43.3125 49.21875 43.3125 52.78125 
Q 43.3125 58.59375 39.234375 62.25 
Q 35.15625 65.921875 28.609375 65.921875 
Q 23.96875 65.921875 18.8125 64.3125 
Q 13.671875 62.703125 7.8125 59.421875 
L 7.8125 69.390625 
Q 13.765625 71.78125 18.9375 73 
Q 24.125 74.21875 28.421875 74.21875 
Q 39.75 74.21875 46.484375 68.546875 
Q 53.21875 62.890625 53.21875 53.421875 
Q 53.21875 48.921875 51.53125 44.890625 
Q 49.859375 40.875 45.40625 35.40625 
Q 44.1875 33.984375 37.640625 27.21875 
Q 31.109375 20.453125 19.1875 8.296875 
z
" id="DejaVuSans-32"/>
      </defs>
      <g transform="translate(1065.368542 524.258437)scale(0.1 -0.1)">
       <use xlink:href="#DejaVuSans-32"/>
       <use x="63.623047" xlink:href="#DejaVuSans-30"/>
       <use x="127.246094" xlink:href="#DejaVuSans-30"/>
      </g>
     </g>
    </g>
    <g id="text_6">
     <!-- Time -->
     <defs>
      <path d="M -0.296875 72.90625 
L 61.375 72.90625 
L 61.375 64.59375 
L 35.5 64.59375 
L 35.5 0 
L 25.59375 0 
L 25.59375 64.59375 
L -0.296875 64.59375 
z
" id="DejaVuSans-54"/>
      <path d="M 9.421875 54.6875 
L 18.40625 54.6875 
L 18.40625 0 
L 9.421875 0 
z
M 9.421875 75.984375 
L 18.40625 75.984375 
L 18.40625 64.59375 
L 9.421875 64.59375 
z
" id="DejaVuSans-69"/>
      <path d="M 52 44.1875 
Q 55.375 50.25 60.0625 53.125 
Q 64.75 56 71.09375 56 
Q 79.640625 56 84.28125 50.015625 
Q 88.921875 44.046875 88.921875 33.015625 
L 88.921875 0 
L 79.890625 0 
L 79.890625 32.71875 
Q 79.890625 40.578125 77.09375 44.375 
Q 74.3125 48.1875 68.609375 48.1875 
Q 61.625 48.1875 57.5625 43.546875 
Q 53.515625 38.921875 53.515625 30.90625 
L 53.515625 0 
L 44.484375 0 
L 44.484375 32.71875 
Q 44.484375 40.625 41.703125 44.40625 
Q 38.921875 48.1875 33.109375 48.1875 
Q 26.21875 48.1875 22.15625 43.53125 
Q 18.109375 38.875 18.109375 30.90625 
L 18.109375 0 
L 9.078125 0 
L 9.078125 54.6875 
L 18.109375 54.6875 
L 18.109375 46.1875 
Q 21.1875 51.21875 25.484375 53.609375 
Q 29.78125 56 35.6875 56 
Q 41.65625 56 45.828125 52.96875 
Q 50 49.953125 52 44.1875 
z
" id="DejaVuSans-6d"/>
      <path d="M 56.203125 29.59375 
L 56.203125 25.203125 
L 14.890625 25.203125 
Q 15.484375 15.921875 20.484375 11.0625 
Q 25.484375 6.203125 34.421875 6.203125 
Q 39.59375 6.203125 44.453125 7.46875 
Q 49.3125 8.734375 54.109375 11.28125 
L 54.109375 2.78125 
Q 49.265625 0.734375 44.1875 -0.34375 
Q 39.109375 -1.421875 33.890625 -1.421875 
Q 20.796875 -1.421875 13.15625 6.1875 
Q 5.515625 13.8125 5.515625 26.8125 
Q 5.515625 40.234375 12.765625 48.109375 
Q 20.015625 56 32.328125 56 
Q 43.359375 56 49.78125 48.890625 
Q 56.203125 41.796875 56.203125 29.59375 
z
M 47.21875 32.234375 
Q 47.125 39.59375 43.09375 43.984375 
Q 39.0625 48.390625 32.421875 48.390625 
Q 24.90625 48.390625 20.390625 44.140625 
Q 15.875 39.890625 15.1875 32.171875 
z
" id="DejaVuSans-65"/>
     </defs>
     <g transform="translate(598.940625 537.936562)scale(0.1 -0.1)">
      <use xlink:href="#DejaVuSans-54"/>
      <use x="61.037109" xlink:href="#DejaVuSans-69"/>
      <use x="88.820312" xlink:href="#DejaVuSans-6d"/>
      <use x="186.232422" xlink:href="#DejaVuSans-65"/>
     </g>
    </g>
   </g>
   <g id="matplotlib.axis_2">
    <g id="ytick_1">
     <g id="line2d_6">
      <defs>
       <path d="M 0 0 
L -3.5 0 
" id="m9c384e1d9a" style="stroke:#000000;stroke-width:0.8;"/>
      </defs>
      <g>
       <use style="stroke:#000000;stroke-width:0.8;" x="53.328125" xlink:href="#m9c384e1d9a" y="427.012542"/>
      </g>
     </g>
     <g id="text_7">
      <!-- 200 -->
      <g transform="translate(27.240625 430.811761)scale(0.1 -0.1)">
       <use xlink:href="#DejaVuSans-32"/>
       <use x="63.623047" xlink:href="#DejaVuSans-30"/>
       <use x="127.246094" xlink:href="#DejaVuSans-30"/>
      </g>
     </g>
    </g>
    <g id="ytick_2">
     <g id="line2d_7">
      <g>
       <use style="stroke:#000000;stroke-width:0.8;" x="53.328125" xlink:href="#m9c384e1d9a" y="324.504068"/>
      </g>
     </g>
     <g id="text_8">
      <!-- 400 -->
      <defs>
       <path d="M 37.796875 64.3125 
L 12.890625 25.390625 
L 37.796875 25.390625 
z
M 35.203125 72.90625 
L 47.609375 72.90625 
L 47.609375 25.390625 
L 58.015625 25.390625 
L 58.015625 17.1875 
L 47.609375 17.1875 
L 47.609375 0 
L 37.796875 0 
L 37.796875 17.1875 
L 4.890625 17.1875 
L 4.890625 26.703125 
z
" id="DejaVuSans-34"/>
      </defs>
      <g transform="translate(27.240625 328.303287)scale(0.1 -0.1)">
       <use xlink:href="#DejaVuSans-34"/>
       <use x="63.623047" xlink:href="#DejaVuSans-30"/>
       <use x="127.246094" xlink:href="#DejaVuSans-30"/>
      </g>
     </g>
    </g>
    <g id="ytick_3">
     <g id="line2d_8">
      <g>
       <use style="stroke:#000000;stroke-width:0.8;" x="53.328125" xlink:href="#m9c384e1d9a" y="221.995593"/>
      </g>
     </g>
     <g id="text_9">
      <!-- 600 -->
      <defs>
       <path d="M 33.015625 40.375 
Q 26.375 40.375 22.484375 35.828125 
Q 18.609375 31.296875 18.609375 23.390625 
Q 18.609375 15.53125 22.484375 10.953125 
Q 26.375 6.390625 33.015625 6.390625 
Q 39.65625 6.390625 43.53125 10.953125 
Q 47.40625 15.53125 47.40625 23.390625 
Q 47.40625 31.296875 43.53125 35.828125 
Q 39.65625 40.375 33.015625 40.375 
z
M 52.59375 71.296875 
L 52.59375 62.3125 
Q 48.875 64.0625 45.09375 64.984375 
Q 41.3125 65.921875 37.59375 65.921875 
Q 27.828125 65.921875 22.671875 59.328125 
Q 17.53125 52.734375 16.796875 39.40625 
Q 19.671875 43.65625 24.015625 45.921875 
Q 28.375 48.1875 33.59375 48.1875 
Q 44.578125 48.1875 50.953125 41.515625 
Q 57.328125 34.859375 57.328125 23.390625 
Q 57.328125 12.15625 50.6875 5.359375 
Q 44.046875 -1.421875 33.015625 -1.421875 
Q 20.359375 -1.421875 13.671875 8.265625 
Q 6.984375 17.96875 6.984375 36.375 
Q 6.984375 53.65625 15.1875 63.9375 
Q 23.390625 74.21875 37.203125 74.21875 
Q 40.921875 74.21875 44.703125 73.484375 
Q 48.484375 72.75 52.59375 71.296875 
z
" id="DejaVuSans-36"/>
      </defs>
      <g transform="translate(27.240625 225.794812)scale(0.1 -0.1)">
       <use xlink:href="#DejaVuSans-36"/>
       <use x="63.623047" xlink:href="#DejaVuSans-30"/>
       <use x="127.246094" xlink:href="#DejaVuSans-30"/>
      </g>
     </g>
    </g>
    <g id="ytick_4">
     <g id="line2d_9">
      <g>
       <use style="stroke:#000000;stroke-width:0.8;" x="53.328125" xlink:href="#m9c384e1d9a" y="119.487119"/>
      </g>
     </g>
     <g id="text_10">
      <!-- 800 -->
      <defs>
       <path d="M 31.78125 34.625 
Q 24.75 34.625 20.71875 30.859375 
Q 16.703125 27.09375 16.703125 20.515625 
Q 16.703125 13.921875 20.71875 10.15625 
Q 24.75 6.390625 31.78125 6.390625 
Q 38.8125 6.390625 42.859375 10.171875 
Q 46.921875 13.96875 46.921875 20.515625 
Q 46.921875 27.09375 42.890625 30.859375 
Q 38.875 34.625 31.78125 34.625 
z
M 21.921875 38.8125 
Q 15.578125 40.375 12.03125 44.71875 
Q 8.5 49.078125 8.5 55.328125 
Q 8.5 64.0625 14.71875 69.140625 
Q 20.953125 74.21875 31.78125 74.21875 
Q 42.671875 74.21875 48.875 69.140625 
Q 55.078125 64.0625 55.078125 55.328125 
Q 55.078125 49.078125 51.53125 44.71875 
Q 48 40.375 41.703125 38.8125 
Q 48.828125 37.15625 52.796875 32.3125 
Q 56.78125 27.484375 56.78125 20.515625 
Q 56.78125 9.90625 50.3125 4.234375 
Q 43.84375 -1.421875 31.78125 -1.421875 
Q 19.734375 -1.421875 13.25 4.234375 
Q 6.78125 9.90625 6.78125 20.515625 
Q 6.78125 27.484375 10.78125 32.3125 
Q 14.796875 37.15625 21.921875 38.8125 
z
M 18.3125 54.390625 
Q 18.3125 48.734375 21.84375 45.5625 
Q 25.390625 42.390625 31.78125 42.390625 
Q 38.140625 42.390625 41.71875 45.5625 
Q 45.3125 48.734375 45.3125 54.390625 
Q 45.3125 60.0625 41.71875 63.234375 
Q 38.140625 66.40625 31.78125 66.40625 
Q 25.390625 66.40625 21.84375 63.234375 
Q 18.3125 60.0625 18.3125 54.390625 
z
" id="DejaVuSans-38"/>
      </defs>
      <g transform="translate(27.240625 123.286337)scale(0.1 -0.1)">
       <use xlink:href="#DejaVuSans-38"/>
       <use x="63.623047" xlink:href="#DejaVuSans-30"/>
       <use x="127.246094" xlink:href="#DejaVuSans-30"/>
      </g>
     </g>
    </g>
    <g id="ytick_5">
     <g id="line2d_10">
      <g>
       <use style="stroke:#000000;stroke-width:0.8;" x="53.328125" xlink:href="#m9c384e1d9a" y="16.978644"/>
      </g>
     </g>
     <g id="text_11">
      <!-- 1000 -->
      <g transform="translate(20.878125 20.777863)scale(0.1 -0.1)">
       <use xlink:href="#DejaVuSans-31"/>
       <use x="63.623047" xlink:href="#DejaVuSans-30"/>
       <use x="127.246094" xlink:href="#DejaVuSans-30"/>
       <use x="190.869141" xlink:href="#DejaVuSans-30"/>
      </g>
     </g>
    </g>
    <g id="text_12">
     <!-- Refugees -->
     <defs>
      <path d="M 44.390625 34.1875 
Q 47.5625 33.109375 50.5625 29.59375 
Q 53.5625 26.078125 56.59375 19.921875 
L 66.609375 0 
L 56 0 
L 46.6875 18.703125 
Q 43.0625 26.03125 39.671875 28.421875 
Q 36.28125 30.8125 30.421875 30.8125 
L 19.671875 30.8125 
L 19.671875 0 
L 9.8125 0 
L 9.8125 72.90625 
L 32.078125 72.90625 
Q 44.578125 72.90625 50.734375 67.671875 
Q 56.890625 62.453125 56.890625 51.90625 
Q 56.890625 45.015625 53.6875 40.46875 
Q 50.484375 35.9375 44.390625 34.1875 
z
M 19.671875 64.796875 
L 19.671875 38.921875 
L 32.078125 38.921875 
Q 39.203125 38.921875 42.84375 42.21875 
Q 46.484375 45.515625 46.484375 51.90625 
Q 46.484375 58.296875 42.84375 61.546875 
Q 39.203125 64.796875 32.078125 64.796875 
z
" id="DejaVuSans-52"/>
      <path d="M 37.109375 75.984375 
L 37.109375 68.5 
L 28.515625 68.5 
Q 23.6875 68.5 21.796875 66.546875 
Q 19.921875 64.59375 19.921875 59.515625 
L 19.921875 54.6875 
L 34.71875 54.6875 
L 34.71875 47.703125 
L 19.921875 47.703125 
L 19.921875 0 
L 10.890625 0 
L 10.890625 47.703125 
L 2.296875 47.703125 
L 2.296875 54.6875 
L 10.890625 54.6875 
L 10.890625 58.5 
Q 10.890625 67.625 15.140625 71.796875 
Q 19.390625 75.984375 28.609375 75.984375 
z
" id="DejaVuSans-66"/>
      <path d="M 8.5 21.578125 
L 8.5 54.6875 
L 17.484375 54.6875 
L 17.484375 21.921875 
Q 17.484375 14.15625 20.5 10.265625 
Q 23.53125 6.390625 29.59375 6.390625 
Q 36.859375 6.390625 41.078125 11.03125 
Q 45.3125 15.671875 45.3125 23.6875 
L 45.3125 54.6875 
L 54.296875 54.6875 
L 54.296875 0 
L 45.3125 0 
L 45.3125 8.40625 
Q 42.046875 3.421875 37.71875 1 
Q 33.40625 -1.421875 27.6875 -1.421875 
Q 18.265625 -1.421875 13.375 4.4375 
Q 8.5 10.296875 8.5 21.578125 
z
M 31.109375 56 
z
" id="DejaVuSans-75"/>
      <path d="M 45.40625 27.984375 
Q 45.40625 37.75 41.375 43.109375 
Q 37.359375 48.484375 30.078125 48.484375 
Q 22.859375 48.484375 18.828125 43.109375 
Q 14.796875 37.75 14.796875 27.984375 
Q 14.796875 18.265625 18.828125 12.890625 
Q 22.859375 7.515625 30.078125 7.515625 
Q 37.359375 7.515625 41.375 12.890625 
Q 45.40625 18.265625 45.40625 27.984375 
z
M 54.390625 6.78125 
Q 54.390625 -7.171875 48.1875 -13.984375 
Q 42 -20.796875 29.203125 -20.796875 
Q 24.46875 -20.796875 20.265625 -20.09375 
Q 16.0625 -19.390625 12.109375 -17.921875 
L 12.109375 -9.1875 
Q 16.0625 -11.328125 19.921875 -12.34375 
Q 23.78125 -13.375 27.78125 -13.375 
Q 36.625 -13.375 41.015625 -8.765625 
Q 45.40625 -4.15625 45.40625 5.171875 
L 45.40625 9.625 
Q 42.625 4.78125 38.28125 2.390625 
Q 33.9375 0 27.875 0 
Q 17.828125 0 11.671875 7.65625 
Q 5.515625 15.328125 5.515625 27.984375 
Q 5.515625 40.671875 11.671875 48.328125 
Q 17.828125 56 27.875 56 
Q 33.9375 56 38.28125 53.609375 
Q 42.625 51.21875 45.40625 46.390625 
L 45.40625 54.6875 
L 54.390625 54.6875 
z
" id="DejaVuSans-67"/>
      <path d="M 44.28125 53.078125 
L 44.28125 44.578125 
Q 40.484375 46.53125 36.375 47.5 
Q 32.28125 48.484375 27.875 48.484375 
Q 21.1875 48.484375 17.84375 46.4375 
Q 14.5 44.390625 14.5 40.28125 
Q 14.5 37.15625 16.890625 35.375 
Q 19.28125 33.59375 26.515625 31.984375 
L 29.59375 31.296875 
Q 39.15625 29.25 43.1875 25.515625 
Q 47.21875 21.78125 47.21875 15.09375 
Q 47.21875 7.46875 41.1875 3.015625 
Q 35.15625 -1.421875 24.609375 -1.421875 
Q 20.21875 -1.421875 15.453125 -0.5625 
Q 10.6875 0.296875 5.421875 2 
L 5.421875 11.28125 
Q 10.40625 8.6875 15.234375 7.390625 
Q 20.0625 6.109375 24.8125 6.109375 
Q 31.15625 6.109375 34.5625 8.28125 
Q 37.984375 10.453125 37.984375 14.40625 
Q 37.984375 18.0625 35.515625 20.015625 
Q 33.0625 21.96875 24.703125 23.78125 
L 21.578125 24.515625 
Q 13.234375 26.265625 9.515625 29.90625 
Q 5.8125 33.546875 5.8125 39.890625 
Q 5.8125 47.609375 11.28125 51.796875 
Q 16.75 56 26.8125 56 
Q 31.78125 56 36.171875 55.265625 
Q 40.578125 54.546875 44.28125 53.078125 
z
" id="DejaVuSans-73"/>
     </defs>
     <g style="fill:#ff7f0e;" transform="translate(14.798437 283.588594)rotate(-90)scale(0.1 -0.1)">
      <use xlink:href="#DejaVuSans-52"/>
      <use x="69.419922" xlink:href="#DejaVuSans-65"/>
      <use x="130.943359" xlink:href="#DejaVuSans-66"/>
      <use x="166.148438" xlink:href="#DejaVuSans-75"/>
      <use x="229.527344" xlink:href="#DejaVuSans-67"/>
      <use x="293.003906" xlink:href="#DejaVuSans-65"/>
      <use x="354.527344" xlink:href="#DejaVuSans-65"/>
      <use x="416.050781" xlink:href="#DejaVuSans-73"/>
     </g>
    </g>
   </g>
   <g id="line2d_11">
    <path clip-path="url(#p7632565398)" d="M 104.055398 158.664983 
L 108.909682 96.830706 
L 113.763967 68.46447 
L 118.618251 56.452134 
L 123.472536 69.383943 
L 128.32682 81.012092 
L 133.181105 263.921616 
L 142.889673 275.044949 
L 147.743958 271.22572 
L 157.452527 240.696633 
L 162.306811 301.417622 
L 167.161096 299.216386 
L 172.01538 301.783666 
L 176.869665 301.080359 
L 181.723949 301.333392 
L 186.578234 295.497873 
L 191.432518 346.527091 
L 196.286803 347.410166 
L 201.141087 356.18004 
L 205.995372 363.680321 
L 210.849656 364.301119 
L 215.703941 359.399056 
L 220.558225 327.563774 
L 225.41251 332.122411 
L 230.266794 344.008238 
L 235.121078 352.820532 
L 239.975363 353.421919 
L 244.829647 347.376725 
L 249.683932 368.002144 
L 254.538216 367.159675 
L 259.392501 371.095981 
L 264.246785 373.976529 
L 269.10107 372.713802 
L 273.955354 366.14435 
L 278.809639 260.500276 
L 283.663923 269.638149 
L 288.518208 290.719066 
L 293.372492 306.179567 
L 298.226777 303.212115 
L 303.081061 296.515544 
L 307.935346 348.954848 
L 312.78963 352.584658 
L 317.643914 360.852047 
L 322.498199 366.140721 
L 327.352483 365.976563 
L 332.206768 359.543631 
L 337.061052 374.891278 
L 341.915337 361.105659 
L 351.623906 339.896262 
L 356.47819 336.052226 
L 361.332475 331.403572 
L 366.186759 364.737002 
L 371.041044 363.638777 
L 375.895328 365.665203 
L 380.749613 365.006756 
L 385.603897 357.443815 
L 390.458182 348.207901 
L 395.312466 324.615342 
L 400.16675 323.919981 
L 409.875319 345.648615 
L 414.729604 349.09179 
L 419.583888 346.03615 
L 424.438173 355.794914 
L 429.292457 362.467585 
L 434.146742 370.979389 
L 439.001026 374.549354 
L 443.855311 374.419592 
L 448.709595 367.297008 
L 453.56388 394.034254 
L 458.418164 394.572011 
L 463.272449 398.71046 
L 468.126733 401.882458 
L 472.981018 402.967293 
L 477.835302 396.68312 
L 482.689587 417.118917 
L 487.543871 431.033023 
L 492.398155 453.262899 
L 497.25244 468.838455 
L 502.106724 457.213008 
L 506.961009 447.944497 
L 511.815293 418.206544 
L 516.669578 419.714765 
L 521.523862 424.389736 
L 526.378147 428.344788 
L 531.232431 428.56176 
L 536.086716 421.786661 
L 540.941 458.960881 
L 545.795285 457.009308 
L 550.649569 457.772898 
L 555.503854 459.953533 
L 560.358138 461.073109 
L 565.212423 455.45769 
L 570.066707 463.883121 
L 574.920991 463.628289 
L 579.775276 465.231095 
L 584.62956 467.345613 
L 589.483845 467.559414 
L 594.338129 461.394238 
L 599.192414 473.87033 
L 604.046698 472.20562 
L 608.900983 472.921537 
L 613.755267 475.081827 
L 618.609552 475.823542 
L 623.463836 470.312968 
L 628.318121 470.168135 
L 633.172405 469.578117 
L 638.02669 470.927767 
L 642.880974 473.065475 
L 647.735259 473.357084 
L 652.589543 467.414397 
L 657.443827 450.322256 
L 662.298112 447.064582 
L 667.152396 447.618449 
L 672.006681 450.385682 
L 676.860965 452.808042 
L 681.71525 447.974998 
L 686.569534 428.310557 
L 691.423819 430.755683 
L 696.278103 434.704886 
L 701.132388 437.170839 
L 705.986672 436.161177 
L 710.840957 428.52214 
L 715.695241 400.529471 
L 720.549526 404.616249 
L 725.40381 413.297498 
L 730.258095 420.902858 
L 735.112379 425.574966 
L 739.966663 421.437862 
L 744.820948 431.480544 
L 749.675232 434.449334 
L 754.529517 438.356633 
L 759.383801 440.501097 
L 764.238086 439.403389 
L 769.09237 431.587102 
L 773.946655 452.540063 
L 778.800939 449.617698 
L 783.655224 450.225419 
L 788.509508 452.842063 
L 793.363793 454.929952 
L 798.218077 449.896047 
L 803.072362 430.018724 
L 807.926646 432.746024 
L 812.780931 436.672655 
L 817.635215 438.965355 
L 822.4895 437.90826 
L 827.343784 430.173723 
L 832.198068 439.506232 
L 837.052353 437.285687 
L 841.906637 438.696985 
L 846.760922 441.660081 
L 851.615206 443.974828 
L 856.469491 438.793845 
L 861.323775 459.100803 
L 866.17806 457.811517 
L 871.032344 458.847206 
L 875.886629 460.889117 
L 880.740913 461.570463 
L 885.595198 455.623889 
L 890.449482 441.003543 
L 895.303767 436.780668 
L 900.158051 437.294274 
L 905.012336 440.604863 
L 909.86662 444.143858 
L 914.720904 439.93438 
L 919.575189 423.196199 
L 924.429473 424.796447 
L 929.283758 428.81326 
L 934.138042 431.797911 
L 938.992327 430.93029 
L 943.846611 423.577227 
L 948.700896 408.7454 
L 953.55518 411.119983 
L 958.409465 416.802887 
L 963.263749 421.35888 
L 968.118034 422.7935 
L 972.972318 416.942206 
L 977.826603 417.405994 
L 982.680887 418.049706 
L 987.535172 422.143085 
L 992.389456 425.714974 
L 997.24374 425.008148 
L 1002.098025 417.978858 
L 1006.952309 433.812566 
L 1011.806594 431.898862 
L 1016.660878 432.480274 
L 1021.515163 433.527695 
L 1026.369447 432.725549 
L 1031.223732 425.874971 
L 1036.078016 392.49389 
L 1040.932301 390.434069 
L 1045.786585 395.284061 
L 1050.64087 401.16261 
L 1055.495154 402.168839 
L 1060.349439 396.655481 
L 1065.203723 455.887809 
L 1070.058008 453.471604 
L 1074.912292 454.160591 
L 1079.766577 456.549893 
L 1084.620861 458.132927 
L 1089.475145 452.795826 
L 1094.32943 353.13632 
L 1099.183714 349.685715 
L 1104.037999 356.299448 
L 1108.892283 364.071548 
L 1113.746568 364.67844 
L 1118.600852 359.963951 
L 1118.600852 359.963951 
" style="fill:none;stroke:#008000;stroke-dasharray:5.55,2.4;stroke-dashoffset:0;stroke-width:1.5;"/>
   </g>
   <g id="line2d_12">
    <path clip-path="url(#p7632565398)" d="M 104.055398 182.017288 
L 108.909682 115.38678 
L 113.763967 178.429492 
L 118.618251 244.034915 
L 123.472536 300.927119 
L 128.32682 192.780678 
L 133.181105 243.522373 
L 138.035389 322.453898 
L 142.889673 339.367797 
L 147.743958 378.321017 
L 152.598242 369.095254 
L 157.452527 355.769153 
L 162.306811 373.195593 
L 167.161096 328.091864 
L 172.01538 340.392881 
L 176.869665 320.403729 
L 181.723949 318.866102 
L 186.578234 361.919661 
L 191.432518 330.142034 
L 196.286803 355.769153 
L 201.141087 379.858644 
L 205.995372 369.095254 
L 210.849656 328.604407 
L 215.703941 367.045085 
L 220.558225 376.78339 
L 225.41251 329.629492 
L 230.266794 339.880339 
L 235.121078 329.629492 
L 239.975363 335.78 
L 244.829647 338.855254 
L 249.683932 320.403729 
L 254.538216 379.858644 
L 259.392501 359.356949 
L 264.246785 352.181356 
L 269.10107 340.392881 
L 273.955354 327.06678 
L 278.809639 323.991525 
L 283.663923 285.038305 
L 288.518208 338.342712 
L 293.372492 314.765763 
L 298.226777 323.478983 
L 303.081061 318.353559 
L 307.935346 335.267458 
L 312.78963 383.446441 
L 317.643914 390.622034 
L 322.498199 395.747458 
L 327.352483 400.360339 
L 332.206768 377.808475 
L 337.061052 374.73322 
L 341.915337 317.841017 
L 346.769621 317.841017 
L 351.623906 324.504068 
L 356.47819 342.443051 
L 361.332475 300.414576 
L 366.186759 327.579322 
L 371.041044 374.73322 
L 375.895328 351.668814 
L 380.749613 330.654576 
L 385.603897 384.471525 
L 390.458182 353.718983 
L 395.312466 326.554237 
L 400.16675 330.654576 
L 405.021035 321.941356 
L 409.875319 359.869492 
L 414.729604 390.622034 
L 419.583888 313.740678 
L 424.438173 403.435593 
L 429.292457 413.686441 
L 434.146742 383.958983 
L 439.001026 397.285085 
L 443.855311 414.711525 
L 448.709595 368.070169 
L 453.56388 388.059322 
L 458.418164 384.984068 
L 463.272449 389.084407 
L 468.126733 357.819322 
L 472.981018 384.984068 
L 477.835302 386.521695 
L 482.689587 356.281695 
L 487.543871 397.797627 
L 492.398155 369.095254 
L 497.25244 397.285085 
L 506.961009 435.21322 
L 511.815293 443.926441 
L 516.669578 431.625424 
L 521.523862 437.775932 
L 526.378147 451.614576 
L 531.232431 459.815254 
L 536.086716 455.202373 
L 540.941 469.041017 
L 545.795285 479.291864 
L 550.649569 472.628814 
L 555.503854 486.98 
L 560.358138 468.528475 
L 565.212423 465.965763 
L 570.066707 468.528475 
L 574.920991 444.438983 
L 579.775276 472.116271 
L 584.62956 436.750847 
L 589.483845 464.940678 
L 594.338129 463.915593 
L 599.192414 448.539322 
L 604.046698 466.478305 
L 608.900983 439.826102 
L 613.755267 460.840339 
L 618.609552 461.352881 
L 623.463836 474.678983 
L 628.318121 437.775932 
L 633.172405 473.141356 
L 638.02669 442.901356 
L 642.880974 441.363729 
L 647.735259 441.363729 
L 652.589543 431.625424 
L 657.443827 436.238305 
L 662.298112 443.413898 
L 667.152396 440.851186 
L 672.006681 461.352881 
L 676.860965 456.227458 
L 681.71525 441.363729 
L 686.569534 429.062712 
L 691.423819 410.611186 
L 696.278103 371.145424 
L 701.132388 392.672203 
L 705.986672 412.661356 
L 710.840957 382.933898 
L 715.695241 377.808475 
L 720.549526 456.227458 
L 725.40381 432.137966 
L 730.258095 459.302712 
L 735.112379 470.066102 
L 739.966663 454.177288 
L 744.820948 465.45322 
L 749.675232 448.539322 
L 754.529517 447.514237 
L 759.383801 427.012542 
L 764.238086 460.840339 
L 769.09237 435.725763 
L 773.946655 405.998305 
L 778.800939 431.625424 
L 783.655224 442.388814 
L 788.509508 462.377966 
L 793.363793 451.102034 
L 798.218077 428.550169 
L 803.072362 427.012542 
L 807.926646 428.550169 
L 812.780931 416.761695 
L 817.635215 425.474915 
L 822.4895 400.872881 
L 827.343784 412.148814 
L 832.198068 399.335254 
L 837.052353 433.163051 
L 841.906637 441.876271 
L 846.760922 460.840339 
L 851.615206 456.227458 
L 856.469491 447.514237 
L 861.323775 447.514237 
L 866.17806 439.826102 
L 871.032344 444.951525 
L 875.886629 423.424746 
L 880.740913 419.836949 
L 885.595198 435.21322 
L 890.449482 407.535932 
L 895.303767 423.424746 
L 900.158051 451.614576 
L 905.012336 451.614576 
L 909.86662 438.801017 
L 914.720904 452.127119 
L 919.575189 439.826102 
L 924.429473 424.449831 
L 929.283758 402.410508 
L 934.138042 366.532542 
L 938.992327 408.048475 
L 943.846611 411.123729 
L 948.700896 369.095254 
L 953.55518 430.087797 
L 958.409465 425.987458 
L 963.263749 414.198983 
L 968.118034 451.102034 
L 972.972318 448.02678 
L 977.826603 398.310169 
L 982.680887 396.772542 
L 987.535172 412.661356 
L 992.389456 410.611186 
L 1002.098025 412.661356 
L 1006.952309 396.772542 
L 1011.806594 428.550169 
L 1016.660878 432.137966 
L 1021.515163 434.700678 
L 1026.369447 387.034237 
L 1036.078016 395.234915 
L 1040.932301 461.865424 
L 1045.786585 419.836949 
L 1050.64087 440.338644 
L 1055.495154 435.21322 
L 1060.349439 425.474915 
L 1065.203723 450.076949 
L 1070.058008 443.926441 
L 1074.912292 429.062712 
L 1079.766577 404.460678 
L 1084.620861 405.998305 
L 1089.475145 289.138644 
L 1094.32943 312.203051 
L 1099.183714 145.62678 
L 1104.037999 33.38 
L 1108.892283 107.698644 
L 1113.746568 224.558305 
L 1118.600852 230.708814 
L 1118.600852 230.708814 
" style="fill:none;stroke:#ff7f0e;stroke-linecap:square;stroke-width:1.5;"/>
   </g>
   <g id="line2d_13">
    <defs>
     <path d="M 0 3 
C 0.795609 3 1.55874 2.683901 2.12132 2.12132 
C 2.683901 1.55874 3 0.795609 3 0 
C 3 -0.795609 2.683901 -1.55874 2.12132 -2.12132 
C 1.55874 -2.683901 0.795609 -3 0 -3 
C -0.795609 -3 -1.55874 -2.683901 -2.12132 -2.12132 
C -2.683901 -1.55874 -3 -0.795609 -3 0 
C -3 0.795609 -2.683901 1.55874 -2.12132 2.12132 
C -1.55874 2.683901 -0.795609 3 0 3 
z
" id="m6965d56175" style="stroke:#008000;"/>
    </defs>
    <g clip-path="url(#p7632565398)">
     <use style="fill:#008000;stroke:#008000;" x="104.055398" xlink:href="#m6965d56175" y="158.664983"/>
     <use style="fill:#008000;stroke:#008000;" x="133.181105" xlink:href="#m6965d56175" y="263.921616"/>
     <use style="fill:#008000;stroke:#008000;" x="162.306811" xlink:href="#m6965d56175" y="301.417622"/>
     <use style="fill:#008000;stroke:#008000;" x="191.432518" xlink:href="#m6965d56175" y="346.527091"/>
     <use style="fill:#008000;stroke:#008000;" x="220.558225" xlink:href="#m6965d56175" y="327.563774"/>
     <use style="fill:#008000;stroke:#008000;" x="249.683932" xlink:href="#m6965d56175" y="368.002144"/>
     <use style="fill:#008000;stroke:#008000;" x="278.809639" xlink:href="#m6965d56175" y="260.500276"/>
     <use style="fill:#008000;stroke:#008000;" x="307.935346" xlink:href="#m6965d56175" y="348.954848"/>
     <use style="fill:#008000;stroke:#008000;" x="337.061052" xlink:href="#m6965d56175" y="374.891278"/>
     <use style="fill:#008000;stroke:#008000;" x="366.186759" xlink:href="#m6965d56175" y="364.737002"/>
     <use style="fill:#008000;stroke:#008000;" x="395.312466" xlink:href="#m6965d56175" y="324.615342"/>
     <use style="fill:#008000;stroke:#008000;" x="424.438173" xlink:href="#m6965d56175" y="355.794914"/>
     <use style="fill:#008000;stroke:#008000;" x="453.56388" xlink:href="#m6965d56175" y="394.034254"/>
     <use style="fill:#008000;stroke:#008000;" x="482.689587" xlink:href="#m6965d56175" y="417.118917"/>
     <use style="fill:#008000;stroke:#008000;" x="511.815293" xlink:href="#m6965d56175" y="418.206544"/>
     <use style="fill:#008000;stroke:#008000;" x="540.941" xlink:href="#m6965d56175" y="458.960881"/>
     <use style="fill:#008000;stroke:#008000;" x="570.066707" xlink:href="#m6965d56175" y="463.883121"/>
     <use style="fill:#008000;stroke:#008000;" x="599.192414" xlink:href="#m6965d56175" y="473.87033"/>
     <use style="fill:#008000;stroke:#008000;" x="628.318121" xlink:href="#m6965d56175" y="470.168135"/>
     <use style="fill:#008000;stroke:#008000;" x="657.443827" xlink:href="#m6965d56175" y="450.322256"/>
     <use style="fill:#008000;stroke:#008000;" x="686.569534" xlink:href="#m6965d56175" y="428.310557"/>
     <use style="fill:#008000;stroke:#008000;" x="715.695241" xlink:href="#m6965d56175" y="400.529471"/>
     <use style="fill:#008000;stroke:#008000;" x="744.820948" xlink:href="#m6965d56175" y="431.480544"/>
     <use style="fill:#008000;stroke:#008000;" x="773.946655" xlink:href="#m6965d56175" y="452.540063"/>
     <use style="fill:#008000;stroke:#008000;" x="803.072362" xlink:href="#m6965d56175" y="430.018724"/>
     <use style="fill:#008000;stroke:#008000;" x="832.198068" xlink:href="#m6965d56175" y="439.506232"/>
     <use style="fill:#008000;stroke:#008000;" x="861.323775" xlink:href="#m6965d56175" y="459.100803"/>
     <use style="fill:#008000;stroke:#008000;" x="890.449482" xlink:href="#m6965d56175" y="441.003543"/>
     <use style="fill:#008000;stroke:#008000;" x="919.575189" xlink:href="#m6965d56175" y="423.196199"/>
     <use style="fill:#008000;stroke:#008000;" x="948.700896" xlink:href="#m6965d56175" y="408.7454"/>
     <use style="fill:#008000;stroke:#008000;" x="977.826603" xlink:href="#m6965d56175" y="417.405994"/>
     <use style="fill:#008000;stroke:#008000;" x="1006.952309" xlink:href="#m6965d56175" y="433.812566"/>
     <use style="fill:#008000;stroke:#008000;" x="1036.078016" xlink:href="#m6965d56175" y="392.49389"/>
     <use style="fill:#008000;stroke:#008000;" x="1065.203723" xlink:href="#m6965d56175" y="455.887809"/>
     <use style="fill:#008000;stroke:#008000;" x="1094.32943" xlink:href="#m6965d56175" y="353.13632"/>
    </g>
   </g>
   <g id="patch_3">
    <path d="M 53.328125 509.66 
L 53.328125 10.7 
" style="fill:none;stroke:#000000;stroke-linecap:square;stroke-linejoin:miter;stroke-width:0.8;"/>
   </g>
   <g id="patch_4">
    <path d="M 1169.328125 509.66 
L 1169.328125 10.7 
" style="fill:none;stroke:#000000;stroke-linecap:square;stroke-linejoin:miter;stroke-width:0.8;"/>
   </g>
   <g id="patch_5">
    <path d="M 53.328125 509.66 
L 1169.328125 509.66 
" style="fill:none;stroke:#000000;stroke-linecap:square;stroke-linejoin:miter;stroke-width:0.8;"/>
   </g>
   <g id="patch_6">
    <path d="M 53.328125 10.7 
L 1169.328125 10.7 
" style="fill:none;stroke:#000000;stroke-linecap:square;stroke-linejoin:miter;stroke-width:0.8;"/>
   </g>
   <g id="legend_1">
    <g id="patch_7">
     <path d="M 60.328125 62.734375 
L 208.103125 62.734375 
Q 210.103125 62.734375 210.103125 60.734375 
L 210.103125 17.7 
Q 210.103125 15.7 208.103125 15.7 
L 60.328125 15.7 
Q 58.328125 15.7 58.328125 17.7 
L 58.328125 60.734375 
Q 58.328125 62.734375 60.328125 62.734375 
z
" style="fill:#ffffff;opacity:0.8;stroke:#cccccc;stroke-linejoin:miter;"/>
    </g>
    <g id="line2d_14">
     <path d="M 62.328125 23.798437 
L 82.328125 23.798437 
" style="fill:none;stroke:#008000;stroke-dasharray:5.55,2.4;stroke-dashoffset:0;stroke-width:1.5;"/>
    </g>
    <g id="line2d_15"/>
    <g id="text_13">
     <!-- Predicated -->
     <defs>
      <path d="M 19.671875 64.796875 
L 19.671875 37.40625 
L 32.078125 37.40625 
Q 38.96875 37.40625 42.71875 40.96875 
Q 46.484375 44.53125 46.484375 51.125 
Q 46.484375 57.671875 42.71875 61.234375 
Q 38.96875 64.796875 32.078125 64.796875 
z
M 9.8125 72.90625 
L 32.078125 72.90625 
Q 44.34375 72.90625 50.609375 67.359375 
Q 56.890625 61.8125 56.890625 51.125 
Q 56.890625 40.328125 50.609375 34.8125 
Q 44.34375 29.296875 32.078125 29.296875 
L 19.671875 29.296875 
L 19.671875 0 
L 9.8125 0 
z
" id="DejaVuSans-50"/>
      <path d="M 41.109375 46.296875 
Q 39.59375 47.171875 37.8125 47.578125 
Q 36.03125 48 33.890625 48 
Q 26.265625 48 22.1875 43.046875 
Q 18.109375 38.09375 18.109375 28.8125 
L 18.109375 0 
L 9.078125 0 
L 9.078125 54.6875 
L 18.109375 54.6875 
L 18.109375 46.1875 
Q 20.953125 51.171875 25.484375 53.578125 
Q 30.03125 56 36.53125 56 
Q 37.453125 56 38.578125 55.875 
Q 39.703125 55.765625 41.0625 55.515625 
z
" id="DejaVuSans-72"/>
      <path d="M 45.40625 46.390625 
L 45.40625 75.984375 
L 54.390625 75.984375 
L 54.390625 0 
L 45.40625 0 
L 45.40625 8.203125 
Q 42.578125 3.328125 38.25 0.953125 
Q 33.9375 -1.421875 27.875 -1.421875 
Q 17.96875 -1.421875 11.734375 6.484375 
Q 5.515625 14.40625 5.515625 27.296875 
Q 5.515625 40.1875 11.734375 48.09375 
Q 17.96875 56 27.875 56 
Q 33.9375 56 38.25 53.625 
Q 42.578125 51.265625 45.40625 46.390625 
z
M 14.796875 27.296875 
Q 14.796875 17.390625 18.875 11.75 
Q 22.953125 6.109375 30.078125 6.109375 
Q 37.203125 6.109375 41.296875 11.75 
Q 45.40625 17.390625 45.40625 27.296875 
Q 45.40625 37.203125 41.296875 42.84375 
Q 37.203125 48.484375 30.078125 48.484375 
Q 22.953125 48.484375 18.875 42.84375 
Q 14.796875 37.203125 14.796875 27.296875 
z
" id="DejaVuSans-64"/>
      <path d="M 48.78125 52.59375 
L 48.78125 44.1875 
Q 44.96875 46.296875 41.140625 47.34375 
Q 37.3125 48.390625 33.40625 48.390625 
Q 24.65625 48.390625 19.8125 42.84375 
Q 14.984375 37.3125 14.984375 27.296875 
Q 14.984375 17.28125 19.8125 11.734375 
Q 24.65625 6.203125 33.40625 6.203125 
Q 37.3125 6.203125 41.140625 7.25 
Q 44.96875 8.296875 48.78125 10.40625 
L 48.78125 2.09375 
Q 45.015625 0.34375 40.984375 -0.53125 
Q 36.96875 -1.421875 32.421875 -1.421875 
Q 20.0625 -1.421875 12.78125 6.34375 
Q 5.515625 14.109375 5.515625 27.296875 
Q 5.515625 40.671875 12.859375 48.328125 
Q 20.21875 56 33.015625 56 
Q 37.15625 56 41.109375 55.140625 
Q 45.0625 54.296875 48.78125 52.59375 
z
" id="DejaVuSans-63"/>
      <path d="M 34.28125 27.484375 
Q 23.390625 27.484375 19.1875 25 
Q 14.984375 22.515625 14.984375 16.5 
Q 14.984375 11.71875 18.140625 8.90625 
Q 21.296875 6.109375 26.703125 6.109375 
Q 34.1875 6.109375 38.703125 11.40625 
Q 43.21875 16.703125 43.21875 25.484375 
L 43.21875 27.484375 
z
M 52.203125 31.203125 
L 52.203125 0 
L 43.21875 0 
L 43.21875 8.296875 
Q 40.140625 3.328125 35.546875 0.953125 
Q 30.953125 -1.421875 24.3125 -1.421875 
Q 15.921875 -1.421875 10.953125 3.296875 
Q 6 8.015625 6 15.921875 
Q 6 25.140625 12.171875 29.828125 
Q 18.359375 34.515625 30.609375 34.515625 
L 43.21875 34.515625 
L 43.21875 35.40625 
Q 43.21875 41.609375 39.140625 45 
Q 35.0625 48.390625 27.6875 48.390625 
Q 23 48.390625 18.546875 47.265625 
Q 14.109375 46.140625 10.015625 43.890625 
L 10.015625 52.203125 
Q 14.9375 54.109375 19.578125 55.046875 
Q 24.21875 56 28.609375 56 
Q 40.484375 56 46.34375 49.84375 
Q 52.203125 43.703125 52.203125 31.203125 
z
" id="DejaVuSans-61"/>
      <path d="M 18.3125 70.21875 
L 18.3125 54.6875 
L 36.8125 54.6875 
L 36.8125 47.703125 
L 18.3125 47.703125 
L 18.3125 18.015625 
Q 18.3125 11.328125 20.140625 9.421875 
Q 21.96875 7.515625 27.59375 7.515625 
L 36.8125 7.515625 
L 36.8125 0 
L 27.59375 0 
Q 17.1875 0 13.234375 3.875 
Q 9.28125 7.765625 9.28125 18.015625 
L 9.28125 47.703125 
L 2.6875 47.703125 
L 2.6875 54.6875 
L 9.28125 54.6875 
L 9.28125 70.21875 
z
" id="DejaVuSans-74"/>
     </defs>
     <g transform="translate(90.328125 27.298437)scale(0.1 -0.1)">
      <use xlink:href="#DejaVuSans-50"/>
      <use x="60.287109" xlink:href="#DejaVuSans-72"/>
      <use x="101.369141" xlink:href="#DejaVuSans-65"/>
      <use x="162.892578" xlink:href="#DejaVuSans-64"/>
      <use x="226.369141" xlink:href="#DejaVuSans-69"/>
      <use x="254.152344" xlink:href="#DejaVuSans-63"/>
      <use x="309.132812" xlink:href="#DejaVuSans-61"/>
      <use x="370.412109" xlink:href="#DejaVuSans-74"/>
      <use x="409.621094" xlink:href="#DejaVuSans-65"/>
      <use x="471.144531" xlink:href="#DejaVuSans-64"/>
     </g>
    </g>
    <g id="line2d_16">
     <path d="M 62.328125 38.476562 
L 82.328125 38.476562 
" style="fill:none;stroke:#ff7f0e;stroke-linecap:square;stroke-width:1.5;"/>
    </g>
    <g id="line2d_17"/>
    <g id="text_14">
     <!-- Real Data -->
     <defs>
      <path d="M 9.421875 75.984375 
L 18.40625 75.984375 
L 18.40625 0 
L 9.421875 0 
z
" id="DejaVuSans-6c"/>
      <path id="DejaVuSans-20"/>
      <path d="M 19.671875 64.796875 
L 19.671875 8.109375 
L 31.59375 8.109375 
Q 46.6875 8.109375 53.6875 14.9375 
Q 60.6875 21.78125 60.6875 36.53125 
Q 60.6875 51.171875 53.6875 57.984375 
Q 46.6875 64.796875 31.59375 64.796875 
z
M 9.8125 72.90625 
L 30.078125 72.90625 
Q 51.265625 72.90625 61.171875 64.09375 
Q 71.09375 55.28125 71.09375 36.53125 
Q 71.09375 17.671875 61.125 8.828125 
Q 51.171875 0 30.078125 0 
L 9.8125 0 
z
" id="DejaVuSans-44"/>
     </defs>
     <g transform="translate(90.328125 41.976562)scale(0.1 -0.1)">
      <use xlink:href="#DejaVuSans-52"/>
      <use x="69.419922" xlink:href="#DejaVuSans-65"/>
      <use x="130.943359" xlink:href="#DejaVuSans-61"/>
      <use x="192.222656" xlink:href="#DejaVuSans-6c"/>
      <use x="220.005859" xlink:href="#DejaVuSans-20"/>
      <use x="251.792969" xlink:href="#DejaVuSans-44"/>
      <use x="328.794922" xlink:href="#DejaVuSans-61"/>
      <use x="390.074219" xlink:href="#DejaVuSans-74"/>
      <use x="429.283203" xlink:href="#DejaVuSans-61"/>
     </g>
    </g>
    <g id="line2d_18"/>
    <g id="line2d_19">
     <g>
      <use style="fill:#008000;stroke:#008000;" x="72.328125" xlink:href="#m6965d56175" y="53.154688"/>
     </g>
    </g>
    <g id="text_15">
     <!-- Start Point for Forecast -->
     <defs>
      <path d="M 53.515625 70.515625 
L 53.515625 60.890625 
Q 47.90625 63.578125 42.921875 64.890625 
Q 37.9375 66.21875 33.296875 66.21875 
Q 25.25 66.21875 20.875 63.09375 
Q 16.5 59.96875 16.5 54.203125 
Q 16.5 49.359375 19.40625 46.890625 
Q 22.3125 44.4375 30.421875 42.921875 
L 36.375 41.703125 
Q 47.40625 39.59375 52.65625 34.296875 
Q 57.90625 29 57.90625 20.125 
Q 57.90625 9.515625 50.796875 4.046875 
Q 43.703125 -1.421875 29.984375 -1.421875 
Q 24.8125 -1.421875 18.96875 -0.25 
Q 13.140625 0.921875 6.890625 3.21875 
L 6.890625 13.375 
Q 12.890625 10.015625 18.65625 8.296875 
Q 24.421875 6.59375 29.984375 6.59375 
Q 38.421875 6.59375 43.015625 9.90625 
Q 47.609375 13.234375 47.609375 19.390625 
Q 47.609375 24.75 44.3125 27.78125 
Q 41.015625 30.8125 33.5 32.328125 
L 27.484375 33.5 
Q 16.453125 35.6875 11.515625 40.375 
Q 6.59375 45.0625 6.59375 53.421875 
Q 6.59375 63.09375 13.40625 68.65625 
Q 20.21875 74.21875 32.171875 74.21875 
Q 37.3125 74.21875 42.625 73.28125 
Q 47.953125 72.359375 53.515625 70.515625 
z
" id="DejaVuSans-53"/>
      <path d="M 30.609375 48.390625 
Q 23.390625 48.390625 19.1875 42.75 
Q 14.984375 37.109375 14.984375 27.296875 
Q 14.984375 17.484375 19.15625 11.84375 
Q 23.34375 6.203125 30.609375 6.203125 
Q 37.796875 6.203125 41.984375 11.859375 
Q 46.1875 17.53125 46.1875 27.296875 
Q 46.1875 37.015625 41.984375 42.703125 
Q 37.796875 48.390625 30.609375 48.390625 
z
M 30.609375 56 
Q 42.328125 56 49.015625 48.375 
Q 55.71875 40.765625 55.71875 27.296875 
Q 55.71875 13.875 49.015625 6.21875 
Q 42.328125 -1.421875 30.609375 -1.421875 
Q 18.84375 -1.421875 12.171875 6.21875 
Q 5.515625 13.875 5.515625 27.296875 
Q 5.515625 40.765625 12.171875 48.375 
Q 18.84375 56 30.609375 56 
z
" id="DejaVuSans-6f"/>
      <path d="M 54.890625 33.015625 
L 54.890625 0 
L 45.90625 0 
L 45.90625 32.71875 
Q 45.90625 40.484375 42.875 44.328125 
Q 39.84375 48.1875 33.796875 48.1875 
Q 26.515625 48.1875 22.3125 43.546875 
Q 18.109375 38.921875 18.109375 30.90625 
L 18.109375 0 
L 9.078125 0 
L 9.078125 54.6875 
L 18.109375 54.6875 
L 18.109375 46.1875 
Q 21.34375 51.125 25.703125 53.5625 
Q 30.078125 56 35.796875 56 
Q 45.21875 56 50.046875 50.171875 
Q 54.890625 44.34375 54.890625 33.015625 
z
" id="DejaVuSans-6e"/>
      <path d="M 9.8125 72.90625 
L 51.703125 72.90625 
L 51.703125 64.59375 
L 19.671875 64.59375 
L 19.671875 43.109375 
L 48.578125 43.109375 
L 48.578125 34.8125 
L 19.671875 34.8125 
L 19.671875 0 
L 9.8125 0 
z
" id="DejaVuSans-46"/>
     </defs>
     <g transform="translate(90.328125 56.654688)scale(0.1 -0.1)">
      <use xlink:href="#DejaVuSans-53"/>
      <use x="63.476562" xlink:href="#DejaVuSans-74"/>
      <use x="102.685547" xlink:href="#DejaVuSans-61"/>
      <use x="163.964844" xlink:href="#DejaVuSans-72"/>
      <use x="205.078125" xlink:href="#DejaVuSans-74"/>
      <use x="244.287109" xlink:href="#DejaVuSans-20"/>
      <use x="276.074219" xlink:href="#DejaVuSans-50"/>
      <use x="336.330078" xlink:href="#DejaVuSans-6f"/>
      <use x="397.511719" xlink:href="#DejaVuSans-69"/>
      <use x="425.294922" xlink:href="#DejaVuSans-6e"/>
      <use x="488.673828" xlink:href="#DejaVuSans-74"/>
      <use x="527.882812" xlink:href="#DejaVuSans-20"/>
      <use x="559.669922" xlink:href="#DejaVuSans-66"/>
      <use x="594.875" xlink:href="#DejaVuSans-6f"/>
      <use x="656.056641" xlink:href="#DejaVuSans-72"/>
      <use x="697.169922" xlink:href="#DejaVuSans-20"/>
      <use x="728.957031" xlink:href="#DejaVuSans-46"/>
      <use x="786.429688" xlink:href="#DejaVuSans-6f"/>
      <use x="847.611328" xlink:href="#DejaVuSans-72"/>
      <use x="888.693359" xlink:href="#DejaVuSans-65"/>
      <use x="950.216797" xlink:href="#DejaVuSans-63"/>
      <use x="1005.197266" xlink:href="#DejaVuSans-61"/>
      <use x="1066.476562" xlink:href="#DejaVuSans-73"/>
      <use x="1118.576172" xlink:href="#DejaVuSans-74"/>
     </g>
    </g>
   </g>
  </g>
  <g id="axes_2">
   <g id="patch_8">
    <path d="M 53.328125 645.74 
L 1170.768125 645.74 
L 1170.768125 516.14 
L 53.328125 516.14 
z
" style="fill:none;"/>
   </g>
   <g id="matplotlib.axis_3">
    <g id="xtick_6">
     <g id="line2d_20">
      <g>
       <use style="stroke:#000000;stroke-width:0.8;" x="104.120852" xlink:href="#m172237077e" y="645.74"/>
      </g>
     </g>
     <g id="text_16">
      <!-- 0 -->
      <g transform="translate(100.939602 660.338437)scale(0.1 -0.1)">
       <use xlink:href="#DejaVuSans-30"/>
      </g>
     </g>
    </g>
    <g id="xtick_7">
     <g id="line2d_21">
      <g>
       <use style="stroke:#000000;stroke-width:0.8;" x="228.612831" xlink:href="#m172237077e" y="645.74"/>
      </g>
     </g>
     <g id="text_17">
      <!-- 25 -->
      <g transform="translate(222.250331 660.338437)scale(0.1 -0.1)">
       <use xlink:href="#DejaVuSans-32"/>
       <use x="63.623047" xlink:href="#DejaVuSans-35"/>
      </g>
     </g>
    </g>
    <g id="xtick_8">
     <g id="line2d_22">
      <g>
       <use style="stroke:#000000;stroke-width:0.8;" x="353.104809" xlink:href="#m172237077e" y="645.74"/>
      </g>
     </g>
     <g id="text_18">
      <!-- 50 -->
      <g transform="translate(346.742309 660.338437)scale(0.1 -0.1)">
       <use xlink:href="#DejaVuSans-35"/>
       <use x="63.623047" xlink:href="#DejaVuSans-30"/>
      </g>
     </g>
    </g>
    <g id="xtick_9">
     <g id="line2d_23">
      <g>
       <use style="stroke:#000000;stroke-width:0.8;" x="477.596788" xlink:href="#m172237077e" y="645.74"/>
      </g>
     </g>
     <g id="text_19">
      <!-- 75 -->
      <defs>
       <path d="M 8.203125 72.90625 
L 55.078125 72.90625 
L 55.078125 68.703125 
L 28.609375 0 
L 18.3125 0 
L 43.21875 64.59375 
L 8.203125 64.59375 
z
" id="DejaVuSans-37"/>
      </defs>
      <g transform="translate(471.234288 660.338437)scale(0.1 -0.1)">
       <use xlink:href="#DejaVuSans-37"/>
       <use x="63.623047" xlink:href="#DejaVuSans-35"/>
      </g>
     </g>
    </g>
    <g id="xtick_10">
     <g id="line2d_24">
      <g>
       <use style="stroke:#000000;stroke-width:0.8;" x="602.088767" xlink:href="#m172237077e" y="645.74"/>
      </g>
     </g>
     <g id="text_20">
      <!-- 100 -->
      <g transform="translate(592.545017 660.338437)scale(0.1 -0.1)">
       <use xlink:href="#DejaVuSans-31"/>
       <use x="63.623047" xlink:href="#DejaVuSans-30"/>
       <use x="127.246094" xlink:href="#DejaVuSans-30"/>
      </g>
     </g>
    </g>
    <g id="xtick_11">
     <g id="line2d_25">
      <g>
       <use style="stroke:#000000;stroke-width:0.8;" x="726.580745" xlink:href="#m172237077e" y="645.74"/>
      </g>
     </g>
     <g id="text_21">
      <!-- 125 -->
      <g transform="translate(717.036995 660.338437)scale(0.1 -0.1)">
       <use xlink:href="#DejaVuSans-31"/>
       <use x="63.623047" xlink:href="#DejaVuSans-32"/>
       <use x="127.246094" xlink:href="#DejaVuSans-35"/>
      </g>
     </g>
    </g>
    <g id="xtick_12">
     <g id="line2d_26">
      <g>
       <use style="stroke:#000000;stroke-width:0.8;" x="851.072724" xlink:href="#m172237077e" y="645.74"/>
      </g>
     </g>
     <g id="text_22">
      <!-- 150 -->
      <g transform="translate(841.528974 660.338437)scale(0.1 -0.1)">
       <use xlink:href="#DejaVuSans-31"/>
       <use x="63.623047" xlink:href="#DejaVuSans-35"/>
       <use x="127.246094" xlink:href="#DejaVuSans-30"/>
      </g>
     </g>
    </g>
    <g id="xtick_13">
     <g id="line2d_27">
      <g>
       <use style="stroke:#000000;stroke-width:0.8;" x="975.564703" xlink:href="#m172237077e" y="645.74"/>
      </g>
     </g>
     <g id="text_23">
      <!-- 175 -->
      <g transform="translate(966.020953 660.338437)scale(0.1 -0.1)">
       <use xlink:href="#DejaVuSans-31"/>
       <use x="63.623047" xlink:href="#DejaVuSans-37"/>
       <use x="127.246094" xlink:href="#DejaVuSans-35"/>
      </g>
     </g>
    </g>
    <g id="xtick_14">
     <g id="line2d_28">
      <g>
       <use style="stroke:#000000;stroke-width:0.8;" x="1100.056681" xlink:href="#m172237077e" y="645.74"/>
      </g>
     </g>
     <g id="text_24">
      <!-- 200 -->
      <g transform="translate(1090.512931 660.338437)scale(0.1 -0.1)">
       <use xlink:href="#DejaVuSans-32"/>
       <use x="63.623047" xlink:href="#DejaVuSans-30"/>
       <use x="127.246094" xlink:href="#DejaVuSans-30"/>
      </g>
     </g>
    </g>
   </g>
   <g id="matplotlib.axis_4">
    <g id="ytick_6">
     <g id="line2d_29">
      <g>
       <use style="stroke:#000000;stroke-width:0.8;" x="53.328125" xlink:href="#m9c384e1d9a" y="637.61012"/>
      </g>
     </g>
     <g id="text_25">
      <!-- −10 -->
      <defs>
       <path d="M 10.59375 35.5 
L 73.1875 35.5 
L 73.1875 27.203125 
L 10.59375 27.203125 
z
" id="DejaVuSans-2212"/>
      </defs>
      <g transform="translate(25.223437 641.409339)scale(0.1 -0.1)">
       <use xlink:href="#DejaVuSans-2212"/>
       <use x="83.789062" xlink:href="#DejaVuSans-31"/>
       <use x="147.412109" xlink:href="#DejaVuSans-30"/>
      </g>
     </g>
    </g>
    <g id="ytick_7">
     <g id="line2d_30">
      <g>
       <use style="stroke:#000000;stroke-width:0.8;" x="53.328125" xlink:href="#m9c384e1d9a" y="611.938858"/>
      </g>
     </g>
     <g id="text_26">
      <!-- 0 -->
      <g transform="translate(39.965625 615.738077)scale(0.1 -0.1)">
       <use xlink:href="#DejaVuSans-30"/>
      </g>
     </g>
    </g>
    <g id="ytick_8">
     <g id="line2d_31">
      <g>
       <use style="stroke:#000000;stroke-width:0.8;" x="53.328125" xlink:href="#m9c384e1d9a" y="586.267596"/>
      </g>
     </g>
     <g id="text_27">
      <!-- 10 -->
      <g transform="translate(33.603125 590.066814)scale(0.1 -0.1)">
       <use xlink:href="#DejaVuSans-31"/>
       <use x="63.623047" xlink:href="#DejaVuSans-30"/>
      </g>
     </g>
    </g>
    <g id="ytick_9">
     <g id="line2d_32">
      <g>
       <use style="stroke:#000000;stroke-width:0.8;" x="53.328125" xlink:href="#m9c384e1d9a" y="560.596333"/>
      </g>
     </g>
     <g id="text_28">
      <!-- 20 -->
      <g transform="translate(33.603125 564.395552)scale(0.1 -0.1)">
       <use xlink:href="#DejaVuSans-32"/>
       <use x="63.623047" xlink:href="#DejaVuSans-30"/>
      </g>
     </g>
    </g>
    <g id="ytick_10">
     <g id="line2d_33">
      <g>
       <use style="stroke:#000000;stroke-width:0.8;" x="53.328125" xlink:href="#m9c384e1d9a" y="534.925071"/>
      </g>
     </g>
     <g id="text_29">
      <!-- 30 -->
      <defs>
       <path d="M 40.578125 39.3125 
Q 47.65625 37.796875 51.625 33 
Q 55.609375 28.21875 55.609375 21.1875 
Q 55.609375 10.40625 48.1875 4.484375 
Q 40.765625 -1.421875 27.09375 -1.421875 
Q 22.515625 -1.421875 17.65625 -0.515625 
Q 12.796875 0.390625 7.625 2.203125 
L 7.625 11.71875 
Q 11.71875 9.328125 16.59375 8.109375 
Q 21.484375 6.890625 26.8125 6.890625 
Q 36.078125 6.890625 40.9375 10.546875 
Q 45.796875 14.203125 45.796875 21.1875 
Q 45.796875 27.640625 41.28125 31.265625 
Q 36.765625 34.90625 28.71875 34.90625 
L 20.21875 34.90625 
L 20.21875 43.015625 
L 29.109375 43.015625 
Q 36.375 43.015625 40.234375 45.921875 
Q 44.09375 48.828125 44.09375 54.296875 
Q 44.09375 59.90625 40.109375 62.90625 
Q 36.140625 65.921875 28.71875 65.921875 
Q 24.65625 65.921875 20.015625 65.03125 
Q 15.375 64.15625 9.8125 62.3125 
L 9.8125 71.09375 
Q 15.4375 72.65625 20.34375 73.4375 
Q 25.25 74.21875 29.59375 74.21875 
Q 40.828125 74.21875 47.359375 69.109375 
Q 53.90625 64.015625 53.90625 55.328125 
Q 53.90625 49.265625 50.4375 45.09375 
Q 46.96875 40.921875 40.578125 39.3125 
z
" id="DejaVuSans-33"/>
      </defs>
      <g transform="translate(33.603125 538.72429)scale(0.1 -0.1)">
       <use xlink:href="#DejaVuSans-33"/>
       <use x="63.623047" xlink:href="#DejaVuSans-30"/>
      </g>
     </g>
    </g>
    <g id="text_30">
     <!-- Temperature -->
     <defs>
      <path d="M 18.109375 8.203125 
L 18.109375 -20.796875 
L 9.078125 -20.796875 
L 9.078125 54.6875 
L 18.109375 54.6875 
L 18.109375 46.390625 
Q 20.953125 51.265625 25.265625 53.625 
Q 29.59375 56 35.59375 56 
Q 45.5625 56 51.78125 48.09375 
Q 58.015625 40.1875 58.015625 27.296875 
Q 58.015625 14.40625 51.78125 6.484375 
Q 45.5625 -1.421875 35.59375 -1.421875 
Q 29.59375 -1.421875 25.265625 0.953125 
Q 20.953125 3.328125 18.109375 8.203125 
z
M 48.6875 27.296875 
Q 48.6875 37.203125 44.609375 42.84375 
Q 40.53125 48.484375 33.40625 48.484375 
Q 26.265625 48.484375 22.1875 42.84375 
Q 18.109375 37.203125 18.109375 27.296875 
Q 18.109375 17.390625 22.1875 11.75 
Q 26.265625 6.109375 33.40625 6.109375 
Q 40.53125 6.109375 44.609375 11.75 
Q 48.6875 17.390625 48.6875 27.296875 
z
" id="DejaVuSans-70"/>
     </defs>
     <g style="fill:#0000ff;" transform="translate(19.14375 613.557187)rotate(-90)scale(0.1 -0.1)">
      <use xlink:href="#DejaVuSans-54"/>
      <use x="60.818359" xlink:href="#DejaVuSans-65"/>
      <use x="122.341797" xlink:href="#DejaVuSans-6d"/>
      <use x="219.753906" xlink:href="#DejaVuSans-70"/>
      <use x="283.230469" xlink:href="#DejaVuSans-65"/>
      <use x="344.753906" xlink:href="#DejaVuSans-72"/>
      <use x="385.867188" xlink:href="#DejaVuSans-61"/>
      <use x="447.146484" xlink:href="#DejaVuSans-74"/>
      <use x="486.355469" xlink:href="#DejaVuSans-75"/>
      <use x="549.734375" xlink:href="#DejaVuSans-72"/>
      <use x="590.816406" xlink:href="#DejaVuSans-65"/>
     </g>
    </g>
   </g>
   <g id="line2d_34">
    <path clip-path="url(#p6d764d6029)" d="M 104.120852 530.752977 
L 109.100531 526.664572 
L 114.080211 545.120669 
L 119.05989 557.888528 
L 124.039569 579.196446 
L 129.019248 582.559125 
L 133.998927 595.5934 
L 138.978606 587.039171 
L 143.958285 579.659556 
L 148.937965 555.83149 
L 153.917644 552.450585 
L 158.897323 538.186091 
L 163.877002 524.709705 
L 168.856681 528.184054 
L 173.83636 542.898822 
L 178.816039 566.467094 
L 183.795719 579.812813 
L 188.775398 587.502948 
L 193.755077 591.954627 
L 198.734756 585.831954 
L 203.714435 575.785249 
L 208.694114 564.91501 
L 213.673793 554.879343 
L 218.653473 541.099009 
L 223.633152 533.042084 
L 228.612831 534.262752 
L 233.59251 547.059877 
L 238.572189 564.156937 
L 243.551868 575.228953 
L 248.531547 588.503563 
L 253.511227 593.637815 
L 263.470585 579.477547 
L 268.450264 576.684513 
L 278.409622 546.57469 
L 283.389301 528.117052 
L 288.368981 535.587389 
L 293.34866 540.829461 
L 298.328339 559.109967 
L 303.308018 570.31496 
L 308.287697 602.904499 
L 313.267376 589.372791 
L 318.247055 593.980526 
L 323.226735 592.388908 
L 328.206414 574.782273 
L 333.186093 552.647227 
L 343.145451 537.388742 
L 348.12513 532.061698 
L 353.104809 549.252202 
L 358.084489 554.560506 
L 363.064168 577.778623 
L 368.043847 587.81814 
L 373.023526 586.545359 
L 378.003205 584.22288 
L 382.982884 576.614431 
L 387.962564 570.97086 
L 392.942243 555.128354 
L 397.921922 540.589435 
L 402.901601 537.679597 
L 407.88128 529.870913 
L 412.860959 545.565296 
L 417.840638 560.26312 
L 422.820318 575.494394 
L 427.799997 589.506795 
L 432.779676 593.757957 
L 437.759355 594.361308 
L 442.739034 582.876935 
L 447.718713 566.122329 
L 452.698392 552.789189 
L 457.678072 542.970444 
L 462.657751 528.621492 
L 467.63743 532.580001 
L 472.617109 544.189829 
L 477.596788 561.968205 
L 482.576467 576.850606 
L 487.556146 583.476359 
L 492.535826 601.15282 
L 497.515505 588.254988 
L 502.495184 577.484687 
L 507.474863 568.906121 
L 512.454542 553.827591 
L 517.434221 529.009642 
L 522.4139 531.564703 
L 527.39358 522.030909 
L 532.373259 543.320087 
L 537.352938 557.035729 
L 547.312296 598.83966 
L 552.291975 591.93178 
L 557.271654 590.825965 
L 562.251334 584.433897 
L 567.231013 573.648887 
L 572.210692 547.742732 
L 577.190371 539.51766 
L 582.17005 534.763599 
L 587.149729 528.425107 
L 592.129408 538.541895 
L 597.109088 556.992345 
L 602.088767 581.828778 
L 607.068446 592.619128 
L 612.048125 609.645131 
L 617.027804 596.687561 
L 622.007483 567.334013 
L 626.987162 559.107657 
L 631.966842 553.98855 
L 636.946521 541.951552 
L 641.9262 531.636325 
L 646.905879 530.180508 
L 651.885558 546.050226 
L 656.865237 562.598435 
L 661.844916 575.495677 
L 666.824596 596.743268 
L 671.804275 599.570726 
L 676.783954 586.203674 
L 681.763633 577.927002 
L 686.743312 574.188753 
L 691.722991 552.38846 
L 696.70267 536.693307 
L 701.68235 528.467721 
L 706.662029 539.249395 
L 711.641708 548.939013 
L 716.621387 557.195918 
L 721.601066 577.140178 
L 726.580745 588.28433 
L 731.560424 592.861773 
L 736.540104 593.746148 
L 741.519783 580.341898 
L 746.499462 570.832492 
L 751.479141 552.302462 
L 756.45882 529.632427 
L 761.438499 523.82379 
L 766.418178 526.691013 
L 771.397858 540.626401 
L 776.377537 561.499191 
L 781.357216 569.055014 
L 786.336895 577.586858 
L 791.316574 592.704434 
L 796.296253 596.773226 
L 801.275932 582.492123 
L 806.255612 571.884501 
L 811.235291 552.838734 
L 816.21497 537.784336 
L 821.194649 523.904655 
L 826.174328 535.206428 
L 831.154007 547.435704 
L 836.133686 563.388083 
L 841.113366 589.799807 
L 846.093045 591.412681 
L 851.072724 596.308833 
L 856.052403 602.033062 
L 861.032082 585.444318 
L 866.011761 555.739844 
L 870.991441 543.853022 
L 875.97112 532.985093 
L 880.950799 532.603619 
L 885.930478 527.62365 
L 890.910157 544.381337 
L 895.889836 552.523748 
L 900.869515 574.59898 
L 905.849195 592.303371 
L 910.828874 589.6198 
L 915.808553 587.725441 
L 920.788232 576.680919 
L 925.767911 565.247966 
L 930.74759 548.060799 
L 935.727269 537.507343 
L 940.706949 533.008198 
L 945.686628 535.466734 
L 950.666307 544.009617 
L 955.645986 562.522448 
L 960.625665 574.082474 
L 965.605344 594.754772 
L 970.585023 592.160049 
L 975.564703 593.440403 
L 980.544382 577.957295 
L 985.524061 563.966457 
L 990.50374 542.53429 
L 995.483419 535.498823 
L 1000.463098 530.326064 
L 1005.442777 523.48878 
L 1010.422457 542.319421 
L 1015.402136 567.534505 
L 1020.381815 583.207838 
L 1025.361494 587.045435 
L 1030.341173 593.598795 
L 1035.320852 589.317213 
L 1040.300531 583.223497 
L 1045.280211 570.11421 
L 1050.25989 550.781439 
L 1055.239569 530.481889 
L 1060.219248 529.078441 
L 1065.198927 529.873993 
L 1070.178606 537.99099 
L 1075.158285 564.900634 
L 1080.137965 577.462866 
L 1085.117644 587.292007 
L 1090.097323 592.988332 
L 1095.077002 585.06541 
L 1100.056681 576.805168 
L 1105.03636 562.294487 
L 1110.016039 548.55266 
L 1114.995719 536.661988 
L 1119.975398 533.507504 
L 1119.975398 533.507504 
" style="fill:none;stroke:#ff0000;stroke-linecap:square;stroke-width:1.5;"/>
   </g>
   <g id="line2d_35">
    <path clip-path="url(#p6d764d6029)" d="M 104.120852 544.99411 
L 109.100531 541.172429 
L 114.080211 558.191706 
L 119.05989 571.266593 
L 124.039569 590.495986 
L 129.019248 595.722963 
L 133.998927 604.624551 
L 138.978606 599.23872 
L 143.958285 593.63974 
L 148.937965 570.25874 
L 153.917644 566.4042 
L 158.897323 552.830006 
L 163.877002 540.04315 
L 168.856681 542.555597 
L 173.83636 555.310364 
L 178.816039 575.593228 
L 183.795719 589.356413 
L 188.775398 595.829294 
L 193.755077 600.83175 
L 198.734756 595.47331 
L 203.714435 586.307822 
L 208.694114 576.25837 
L 213.673793 564.721705 
L 218.653473 551.784672 
L 223.633152 543.105219 
L 228.612831 543.904878 
L 233.59251 554.4532 
L 238.572189 571.480948 
L 243.551868 581.798229 
L 248.531547 594.631293 
L 253.511227 600.707681 
L 263.470585 587.638441 
L 268.450264 583.975152 
L 273.429943 570.330876 
L 278.409622 556.119265 
L 283.389301 542.33123 
L 288.368981 544.890655 
L 293.34866 551.511273 
L 298.328339 563.307218 
L 303.308018 582.359146 
L 308.287697 609.643205 
L 313.267376 598.951766 
L 318.247055 600.860425 
L 323.226735 599.436953 
L 328.206414 585.908198 
L 333.186093 564.719138 
L 338.165772 557.107095 
L 343.145451 547.835149 
L 348.12513 544.666801 
L 353.104809 559.40416 
L 358.084489 565.71775 
L 363.064168 586.189042 
L 368.043847 596.070167 
L 373.023526 596.762008 
L 378.003205 594.729871 
L 387.962564 581.216005 
L 392.942243 566.74152 
L 397.921922 553.437645 
L 402.901601 549.324595 
L 407.88128 542.977632 
L 412.860959 557.070642 
L 417.840638 571.800812 
L 422.820318 584.940391 
L 427.799997 601.554499 
L 432.779676 600.948991 
L 437.759355 602.689168 
L 442.739034 592.462713 
L 447.718713 577.939581 
L 452.698392 562.856945 
L 457.678072 554.124608 
L 462.657751 542.732985 
L 467.63743 547.919607 
L 472.617109 555.727265 
L 477.596788 571.781816 
L 482.576467 585.413256 
L 487.556146 592.250104 
L 492.535826 604.986438 
L 497.515505 599.437595 
L 502.495184 589.187522 
L 507.474863 579.278081 
L 512.454542 568.094139 
L 517.434221 544.754854 
L 522.4139 546.314896 
L 527.39358 537.590261 
L 532.373259 555.674639 
L 537.352938 568.460211 
L 542.332617 589.145344 
L 547.312296 606.658716 
L 552.291975 602.890303 
L 557.271654 601.732811 
L 562.251334 594.802649 
L 567.231013 584.631566 
L 572.210692 562.372014 
L 577.190371 552.827439 
L 582.17005 547.978394 
L 587.149729 542.726054 
L 592.129408 551.746422 
L 597.109088 568.484599 
L 602.088767 590.98392 
L 607.068446 600.993915 
L 612.048125 618.819193 
L 617.027804 606.446055 
L 622.007483 581.737388 
L 626.987162 572.834851 
L 631.966842 566.953308 
L 636.946521 554.826204 
L 641.9262 544.297649 
L 646.905879 544.705822 
L 651.885558 557.712167 
L 656.865237 572.90673 
L 661.844916 587.65618 
L 666.824596 604.198177 
L 671.804275 609.286169 
L 676.783954 597.18104 
L 681.763633 590.210111 
L 686.743312 586.396337 
L 691.722991 566.048909 
L 696.70267 551.382404 
L 701.68235 542.340215 
L 711.641708 560.980119 
L 716.621387 568.214024 
L 721.601066 584.799199 
L 726.580745 596.618043 
L 731.560424 600.65526 
L 736.540104 600.578144 
L 741.519783 591.194886 
L 746.499462 581.565647 
L 751.479141 564.905511 
L 756.45882 545.941893 
L 761.438499 539.227574 
L 766.418178 541.623987 
L 771.397858 553.297737 
L 776.377537 570.935948 
L 781.357216 583.858861 
L 786.336895 591.09808 
L 791.316574 601.71076 
L 796.296253 605.138387 
L 801.275932 594.415475 
L 806.255612 582.497001 
L 811.235291 564.75174 
L 816.21497 550.609442 
L 821.194649 539.128483 
L 826.174328 547.13458 
L 831.154007 559.066069 
L 836.133686 574.381544 
L 841.113366 599.614085 
L 846.093045 601.412819 
L 851.072724 605.88157 
L 856.052403 611.449179 
L 861.032082 597.733896 
L 866.011761 570.796039 
L 870.991441 558.222255 
L 875.97112 548.32778 
L 880.950799 545.919046 
L 885.930478 543.6705 
L 890.910157 557.902904 
L 895.889836 566.089727 
L 900.869515 585.255378 
L 905.849195 601.834392 
L 910.828874 603.334878 
L 915.808553 596.050914 
L 920.788232 589.771723 
L 925.767911 578.71665 
L 930.74759 564.000086 
L 935.727269 552.287829 
L 940.706949 547.634656 
L 945.686628 549.599791 
L 950.666307 557.060117 
L 955.645986 576.03272 
L 960.625665 585.592441 
L 965.605344 607.16942 
L 970.585023 603.585147 
L 975.564703 604.979507 
L 980.544382 590.849505 
L 985.524061 578.693546 
L 990.50374 558.483075 
L 995.483419 550.97038 
L 1000.463098 544.839056 
L 1005.442777 540.186139 
L 1010.422457 555.681057 
L 1015.402136 578.238138 
L 1020.381815 592.66662 
L 1025.361494 597.359481 
L 1030.341173 603.686086 
L 1035.320852 599.797429 
L 1040.300531 594.106239 
L 1045.280211 583.074091 
L 1050.25989 565.088547 
L 1055.239569 546.542087 
L 1060.219248 543.745203 
L 1065.198927 545.005405 
L 1070.178606 553.759563 
L 1075.158285 574.879567 
L 1080.137965 589.878721 
L 1085.117644 600.263696 
L 1090.097323 604.819139 
L 1095.077002 597.081281 
L 1100.056681 589.050643 
L 1105.03636 576.192652 
L 1110.016039 563.021241 
L 1114.995719 550.824824 
L 1119.975398 546.80111 
L 1119.975398 546.80111 
" style="fill:none;stroke:#008000;stroke-linecap:square;stroke-width:1.5;"/>
   </g>
   <g id="line2d_36">
    <path clip-path="url(#p6d764d6029)" d="M 104.120852 558.75211 
L 109.100531 554.815422 
L 114.080211 569.619012 
L 119.05989 582.616115 
L 124.039569 599.117346 
L 129.019248 604.730701 
L 133.998927 611.370096 
L 138.978606 608.656351 
L 143.958285 604.655921 
L 148.937965 583.606513 
L 153.917644 578.256365 
L 163.877002 556.319244 
L 168.856681 556.322581 
L 173.83636 566.741007 
L 178.816039 583.131337 
L 183.795719 596.491895 
L 188.775398 602.974787 
L 193.755077 609.096202 
L 198.734756 604.263998 
L 203.714435 596.21693 
L 208.694114 585.902294 
L 213.673793 576.46374 
L 218.653473 562.739884 
L 223.633152 554.653436 
L 228.612831 555.130921 
L 233.59251 565.070834 
L 238.572189 581.621097 
L 243.551868 588.467623 
L 248.531547 600.759023 
L 253.511227 610.193212 
L 258.490906 601.829515 
L 263.470585 595.396297 
L 268.450264 591.517369 
L 273.429943 578.450696 
L 278.409622 566.328726 
L 283.389301 556.82009 
L 288.368981 555.048773 
L 293.34866 561.879896 
L 298.328339 572.107327 
L 303.308018 591.048868 
L 308.287697 615.899292 
L 313.267376 606.726308 
L 318.247055 607.287867 
L 323.226735 605.008901 
L 328.206414 594.573533 
L 333.186093 576.965614 
L 338.165772 568.740541 
L 343.145451 558.982381 
L 348.12513 557.454941 
L 353.104809 568.853495 
L 358.084489 575.627627 
L 363.064168 593.216806 
L 368.043847 603.687472 
L 373.023526 605.22839 
L 378.003205 603.828023 
L 382.982884 596.690128 
L 387.962564 592.160434 
L 392.942243 576.986921 
L 397.921922 565.946224 
L 402.901601 561.451956 
L 407.88128 556.675305 
L 412.860959 568.714613 
L 422.820318 593.288686 
L 427.799997 610.415525 
L 432.779676 607.863802 
L 437.759355 609.920583 
L 442.739034 600.83501 
L 447.718713 587.869996 
L 452.698392 574.241123 
L 457.678072 565.506732 
L 462.657751 554.615442 
L 467.63743 557.357647 
L 472.617109 565.987812 
L 477.596788 581.055816 
L 482.576467 593.872964 
L 487.556146 599.954486 
L 492.535826 613.388771 
L 497.515505 607.671781 
L 502.495184 598.889642 
L 507.474863 588.382394 
L 512.454542 578.591888 
L 517.434221 560.983456 
L 522.4139 558.153969 
L 527.39358 554.119987 
L 532.373259 568.559045 
L 537.352938 578.50974 
L 542.332617 600.261001 
L 547.312296 619.965415 
L 552.291975 616.814267 
L 557.271654 611.093573 
L 562.251334 603.398029 
L 567.231013 594.330092 
L 572.210692 575.842496 
L 577.190371 565.469252 
L 582.17005 560.104985 
L 587.149729 557.020326 
L 592.129408 564.678577 
L 597.109088 579.533253 
L 602.088767 600.547389 
L 607.068446 607.584755 
L 612.048125 627.01346 
L 617.027804 614.918958 
L 622.007483 594.438399 
L 626.987162 584.650306 
L 631.966842 578.814715 
L 636.946521 566.986167 
L 641.9262 556.042765 
L 646.905879 558.190422 
L 651.885558 567.112213 
L 656.865237 581.841613 
L 666.824596 612.929199 
L 671.804275 617.616212 
L 676.783954 605.514471 
L 686.743312 598.215566 
L 691.722991 578.442738 
L 696.70267 565.967531 
L 701.68235 557.379724 
L 706.662029 563.652497 
L 711.641708 573.48074 
L 716.621387 579.244965 
L 721.601066 593.289533 
L 726.580745 605.697892 
L 731.560424 608.778726 
L 736.540104 608.637226 
L 741.519783 601.678902 
L 746.499462 591.169369 
L 751.479141 577.193831 
L 756.45882 561.368781 
L 761.438499 555.299838 
L 766.418178 558.476144 
L 771.397858 567.046495 
L 776.377537 580.653034 
L 781.357216 595.146489 
L 786.336895 601.388303 
L 791.316574 608.680687 
L 796.296253 612.335317 
L 801.275932 606.095232 
L 806.255612 592.104445 
L 811.235291 575.426621 
L 816.21497 563.755952 
L 821.194649 554.701184 
L 826.174328 558.51157 
L 831.154007 571.371075 
L 836.133686 584.958618 
L 841.113366 607.90349 
L 846.093045 609.614551 
L 851.072724 613.073528 
L 856.052403 619.254526 
L 861.032082 608.871758 
L 866.011761 584.257022 
L 870.991441 571.509444 
L 875.97112 562.858485 
L 880.950799 558.645831 
L 885.930478 557.996091 
L 890.910157 569.447271 
L 895.889836 576.602365 
L 900.869515 593.598538 
L 905.849195 609.53038 
L 910.828874 613.975103 
L 915.808553 602.563559 
L 920.788232 601.109359 
L 925.767911 591.045274 
L 930.74759 578.174473 
L 935.727269 566.306392 
L 940.706949 560.658714 
L 945.686628 562.97837 
L 950.666307 568.667635 
L 955.645986 587.341604 
L 960.625665 594.856122 
L 965.605344 616.463752 
L 970.585023 612.486873 
L 975.564703 614.090651 
L 980.544382 601.72819 
L 985.524061 591.881362 
L 990.50374 572.652328 
L 995.483419 564.193647 
L 1000.463098 558.930268 
L 1005.442777 556.299477 
L 1010.422457 567.24596 
L 1015.402136 586.862886 
L 1020.381815 600.245726 
L 1025.361494 605.372149 
L 1030.341173 611.879274 
L 1040.300531 603.351692 
L 1045.280211 594.501217 
L 1050.25989 577.100388 
L 1055.239569 562.041369 
L 1060.219248 557.503973 
L 1065.198927 558.660207 
L 1070.178606 567.595089 
L 1075.158285 582.82816 
L 1080.137965 599.558969 
L 1085.117644 609.537109 
L 1090.097323 614.381545 
L 1100.056681 598.970943 
L 1105.03636 589.77429 
L 1110.016039 576.464254 
L 1114.995719 564.334069 
L 1119.975398 558.92231 
L 1119.975398 558.92231 
" style="fill:none;stroke:#0000ff;stroke-linecap:square;stroke-width:1.5;"/>
   </g>
   <g id="line2d_37">
    <defs>
     <path d="M 0 3 
C 0.795609 3 1.55874 2.683901 2.12132 2.12132 
C 2.683901 1.55874 3 0.795609 3 0 
C 3 -0.795609 2.683901 -1.55874 2.12132 -2.12132 
C 1.55874 -2.683901 0.795609 -3 0 -3 
C -0.795609 -3 -1.55874 -2.683901 -2.12132 -2.12132 
C -2.683901 -1.55874 -3 -0.795609 -3 0 
C -3 0.795609 -2.683901 1.55874 -2.12132 2.12132 
C -1.55874 2.683901 -0.795609 3 0 3 
z
" id="mff1495541b" style="stroke:#ff0000;"/>
    </defs>
    <g clip-path="url(#p6d764d6029)">
     <use style="fill:#ff0000;stroke:#ff0000;" x="178.816039" xlink:href="#mff1495541b" y="639.849091"/>
     <use style="fill:#ff0000;stroke:#ff0000;" x="183.795719" xlink:href="#mff1495541b" y="639.849091"/>
     <use style="fill:#ff0000;stroke:#ff0000;" x="188.775398" xlink:href="#mff1495541b" y="639.849091"/>
     <use style="fill:#ff0000;stroke:#ff0000;" x="328.206414" xlink:href="#mff1495541b" y="639.849091"/>
     <use style="fill:#ff0000;stroke:#ff0000;" x="333.186093" xlink:href="#mff1495541b" y="639.849091"/>
     <use style="fill:#ff0000;stroke:#ff0000;" x="338.165772" xlink:href="#mff1495541b" y="639.849091"/>
     <use style="fill:#ff0000;stroke:#ff0000;" x="711.641708" xlink:href="#mff1495541b" y="639.849091"/>
     <use style="fill:#ff0000;stroke:#ff0000;" x="751.479141" xlink:href="#mff1495541b" y="639.849091"/>
     <use style="fill:#ff0000;stroke:#ff0000;" x="856.052403" xlink:href="#mff1495541b" y="639.849091"/>
     <use style="fill:#ff0000;stroke:#ff0000;" x="870.991441" xlink:href="#mff1495541b" y="639.849091"/>
    </g>
   </g>
   <g id="patch_9">
    <path d="M 53.328125 645.74 
L 53.328125 516.14 
" style="fill:none;stroke:#000000;stroke-linecap:square;stroke-linejoin:miter;stroke-width:0.8;"/>
   </g>
   <g id="patch_10">
    <path d="M 1170.768125 645.74 
L 1170.768125 516.14 
" style="fill:none;stroke:#000000;stroke-linecap:square;stroke-linejoin:miter;stroke-width:0.8;"/>
   </g>
   <g id="patch_11">
    <path d="M 53.328125 645.74 
L 1170.768125 645.74 
" style="fill:none;stroke:#000000;stroke-linecap:square;stroke-linejoin:miter;stroke-width:0.8;"/>
   </g>
   <g id="patch_12">
    <path d="M 53.328125 516.14 
L 1170.768125 516.14 
" style="fill:none;stroke:#000000;stroke-linecap:square;stroke-linejoin:miter;stroke-width:0.8;"/>
   </g>
   <g id="legend_2">
    <g id="patch_13">
     <path d="M 60.328125 582.8525 
L 151.340625 582.8525 
Q 153.340625 582.8525 153.340625 580.8525 
L 153.340625 523.14 
Q 153.340625 521.14 151.340625 521.14 
L 60.328125 521.14 
Q 58.328125 521.14 58.328125 523.14 
L 58.328125 580.8525 
Q 58.328125 582.8525 60.328125 582.8525 
z
" style="fill:#ffffff;opacity:0.8;stroke:#cccccc;stroke-linejoin:miter;"/>
    </g>
    <g id="line2d_38">
     <path d="M 62.328125 529.238437 
L 82.328125 529.238437 
" style="fill:none;stroke:#ff0000;stroke-linecap:square;stroke-width:1.5;"/>
    </g>
    <g id="line2d_39"/>
    <g id="text_31">
     <!-- Maxmimum -->
     <defs>
      <path d="M 9.8125 72.90625 
L 24.515625 72.90625 
L 43.109375 23.296875 
L 61.8125 72.90625 
L 76.515625 72.90625 
L 76.515625 0 
L 66.890625 0 
L 66.890625 64.015625 
L 48.09375 14.015625 
L 38.1875 14.015625 
L 19.390625 64.015625 
L 19.390625 0 
L 9.8125 0 
z
" id="DejaVuSans-4d"/>
      <path d="M 54.890625 54.6875 
L 35.109375 28.078125 
L 55.90625 0 
L 45.3125 0 
L 29.390625 21.484375 
L 13.484375 0 
L 2.875 0 
L 24.125 28.609375 
L 4.6875 54.6875 
L 15.28125 54.6875 
L 29.78125 35.203125 
L 44.28125 54.6875 
z
" id="DejaVuSans-78"/>
     </defs>
     <g transform="translate(90.328125 532.738437)scale(0.1 -0.1)">
      <use xlink:href="#DejaVuSans-4d"/>
      <use x="86.279297" xlink:href="#DejaVuSans-61"/>
      <use x="147.558594" xlink:href="#DejaVuSans-78"/>
      <use x="206.738281" xlink:href="#DejaVuSans-6d"/>
      <use x="304.150391" xlink:href="#DejaVuSans-69"/>
      <use x="331.933594" xlink:href="#DejaVuSans-6d"/>
      <use x="429.345703" xlink:href="#DejaVuSans-75"/>
      <use x="492.724609" xlink:href="#DejaVuSans-6d"/>
     </g>
    </g>
    <g id="line2d_40">
     <path d="M 62.328125 543.916562 
L 82.328125 543.916562 
" style="fill:none;stroke:#008000;stroke-linecap:square;stroke-width:1.5;"/>
    </g>
    <g id="line2d_41"/>
    <g id="text_32">
     <!-- Average -->
     <defs>
      <path d="M 34.1875 63.1875 
L 20.796875 26.90625 
L 47.609375 26.90625 
z
M 28.609375 72.90625 
L 39.796875 72.90625 
L 67.578125 0 
L 57.328125 0 
L 50.6875 18.703125 
L 17.828125 18.703125 
L 11.1875 0 
L 0.78125 0 
z
" id="DejaVuSans-41"/>
      <path d="M 2.984375 54.6875 
L 12.5 54.6875 
L 29.59375 8.796875 
L 46.6875 54.6875 
L 56.203125 54.6875 
L 35.6875 0 
L 23.484375 0 
z
" id="DejaVuSans-76"/>
     </defs>
     <g transform="translate(90.328125 547.416562)scale(0.1 -0.1)">
      <use xlink:href="#DejaVuSans-41"/>
      <use x="68.330078" xlink:href="#DejaVuSans-76"/>
      <use x="127.509766" xlink:href="#DejaVuSans-65"/>
      <use x="189.033203" xlink:href="#DejaVuSans-72"/>
      <use x="230.146484" xlink:href="#DejaVuSans-61"/>
      <use x="291.425781" xlink:href="#DejaVuSans-67"/>
      <use x="354.902344" xlink:href="#DejaVuSans-65"/>
     </g>
    </g>
    <g id="line2d_42">
     <path d="M 62.328125 558.594687 
L 82.328125 558.594687 
" style="fill:none;stroke:#0000ff;stroke-linecap:square;stroke-width:1.5;"/>
    </g>
    <g id="line2d_43"/>
    <g id="text_33">
     <!-- Minimum -->
     <g transform="translate(90.328125 562.094687)scale(0.1 -0.1)">
      <use xlink:href="#DejaVuSans-4d"/>
      <use x="86.279297" xlink:href="#DejaVuSans-69"/>
      <use x="114.0625" xlink:href="#DejaVuSans-6e"/>
      <use x="177.441406" xlink:href="#DejaVuSans-69"/>
      <use x="205.224609" xlink:href="#DejaVuSans-6d"/>
      <use x="302.636719" xlink:href="#DejaVuSans-75"/>
      <use x="366.015625" xlink:href="#DejaVuSans-6d"/>
     </g>
    </g>
    <g id="line2d_44"/>
    <g id="line2d_45">
     <g>
      <use style="fill:#ff0000;stroke:#ff0000;" x="72.328125" xlink:href="#mff1495541b" y="573.272812"/>
     </g>
    </g>
    <g id="text_34">
     <!-- Disasters -->
     <g transform="translate(90.328125 576.772812)scale(0.1 -0.1)">
      <use xlink:href="#DejaVuSans-44"/>
      <use x="77.001953" xlink:href="#DejaVuSans-69"/>
      <use x="104.785156" xlink:href="#DejaVuSans-73"/>
      <use x="156.884766" xlink:href="#DejaVuSans-61"/>
      <use x="218.164062" xlink:href="#DejaVuSans-73"/>
      <use x="270.263672" xlink:href="#DejaVuSans-74"/>
      <use x="309.472656" xlink:href="#DejaVuSans-65"/>
      <use x="370.996094" xlink:href="#DejaVuSans-72"/>
      <use x="412.109375" xlink:href="#DejaVuSans-73"/>
     </g>
    </g>
   </g>
  </g>
 </g>
 <defs>
  <clipPath id="p7632565398">
   <rect height="498.96" width="1116" x="53.328125" y="10.7"/>
  </clipPath>
  <clipPath id="p6d764d6029">
   <rect height="129.6" width="1117.44" x="53.328125" y="516.14"/>
  </clipPath>
 </defs>
</svg>
