<?xml version="1.0" encoding="utf-8" standalone="no"?>
<!DOCTYPE svg PUBLIC "-//W3C//DTD SVG 1.1//EN"
  "http://www.w3.org/Graphics/SVG/1.1/DTD/svg11.dtd">
<!-- Created with matplotlib (http://matplotlib.org/) -->
<svg height="669pt" version="1.1" viewBox="0 0 1175 669" width="1175pt" xmlns="http://www.w3.org/2000/svg" xmlns:xlink="http://www.w3.org/1999/xlink">
 <defs>
  <style type="text/css">
*{stroke-linecap:butt;stroke-linejoin:round;}
  </style>
 </defs>
 <g id="figure_1">
  <g id="patch_1">
   <path d="M 0 669.618125 
L 1175.105625 669.618125 
L 1175.105625 -0 
L 0 -0 
z
" style="fill:none;"/>
  </g>
  <g id="axes_1">
   <g id="patch_2">
    <path d="M 46.965625 509.66 
L 1162.965625 509.66 
L 1162.965625 10.7 
L 46.965625 10.7 
z
" style="fill:none;"/>
   </g>
   <g id="matplotlib.axis_1">
    <g id="xtick_1">
     <g id="line2d_1">
      <defs>
       <path d="M 0 0 
L 0 3.5 
" id="m2fec4a11cd" style="stroke:#000000;stroke-width:0.8;"/>
      </defs>
      <g>
       <use style="stroke:#000000;stroke-width:0.8;" x="97.692898" xlink:href="#m2fec4a11cd" y="509.66"/>
      </g>
     </g>
     <g id="text_1">
      <!-- 0 -->
      <defs>
       <path d="M 31.78125 66.40625 
Q 24.171875 66.40625 20.328125 58.90625 
Q 16.5 51.421875 16.5 36.375 
Q 16.5 21.390625 20.328125 13.890625 
Q 24.171875 6.390625 31.78125 6.390625 
Q 39.453125 6.390625 43.28125 13.890625 
Q 47.125 21.390625 47.125 36.375 
Q 47.125 51.421875 43.28125 58.90625 
Q 39.453125 66.40625 31.78125 66.40625 
z
M 31.78125 74.21875 
Q 44.046875 74.21875 50.515625 64.515625 
Q 56.984375 54.828125 56.984375 36.375 
Q 56.984375 17.96875 50.515625 8.265625 
Q 44.046875 -1.421875 31.78125 -1.421875 
Q 19.53125 -1.421875 13.0625 8.265625 
Q 6.59375 17.96875 6.59375 36.375 
Q 6.59375 54.828125 13.0625 64.515625 
Q 19.53125 74.21875 31.78125 74.21875 
z
" id="DejaVuSans-30"/>
      </defs>
      <g transform="translate(94.511648 524.258437)scale(0.1 -0.1)">
       <use xlink:href="#DejaVuSans-30"/>
      </g>
     </g>
    </g>
    <g id="xtick_2">
     <g id="line2d_2">
      <g>
       <use style="stroke:#000000;stroke-width:0.8;" x="340.407121" xlink:href="#m2fec4a11cd" y="509.66"/>
      </g>
     </g>
     <g id="text_2">
      <!-- 50 -->
      <defs>
       <path d="M 10.796875 72.90625 
L 49.515625 72.90625 
L 49.515625 64.59375 
L 19.828125 64.59375 
L 19.828125 46.734375 
Q 21.96875 47.46875 24.109375 47.828125 
Q 26.265625 48.1875 28.421875 48.1875 
Q 40.625 48.1875 47.75 41.5 
Q 54.890625 34.8125 54.890625 23.390625 
Q 54.890625 11.625 47.5625 5.09375 
Q 40.234375 -1.421875 26.90625 -1.421875 
Q 22.3125 -1.421875 17.546875 -0.640625 
Q 12.796875 0.140625 7.71875 1.703125 
L 7.71875 11.625 
Q 12.109375 9.234375 16.796875 8.0625 
Q 21.484375 6.890625 26.703125 6.890625 
Q 35.15625 6.890625 40.078125 11.328125 
Q 45.015625 15.765625 45.015625 23.390625 
Q 45.015625 31 40.078125 35.4375 
Q 35.15625 39.890625 26.703125 39.890625 
Q 22.75 39.890625 18.8125 39.015625 
Q 14.890625 38.140625 10.796875 36.28125 
z
" id="DejaVuSans-35"/>
      </defs>
      <g transform="translate(334.044621 524.258437)scale(0.1 -0.1)">
       <use xlink:href="#DejaVuSans-35"/>
       <use x="63.623047" xlink:href="#DejaVuSans-30"/>
      </g>
     </g>
    </g>
    <g id="xtick_3">
     <g id="line2d_3">
      <g>
       <use style="stroke:#000000;stroke-width:0.8;" x="583.121345" xlink:href="#m2fec4a11cd" y="509.66"/>
      </g>
     </g>
     <g id="text_3">
      <!-- 100 -->
      <defs>
       <path d="M 12.40625 8.296875 
L 28.515625 8.296875 
L 28.515625 63.921875 
L 10.984375 60.40625 
L 10.984375 69.390625 
L 28.421875 72.90625 
L 38.28125 72.90625 
L 38.28125 8.296875 
L 54.390625 8.296875 
L 54.390625 0 
L 12.40625 0 
z
" id="DejaVuSans-31"/>
      </defs>
      <g transform="translate(573.577595 524.258437)scale(0.1 -0.1)">
       <use xlink:href="#DejaVuSans-31"/>
       <use x="63.623047" xlink:href="#DejaVuSans-30"/>
       <use x="127.246094" xlink:href="#DejaVuSans-30"/>
      </g>
     </g>
    </g>
    <g id="xtick_4">
     <g id="line2d_4">
      <g>
       <use style="stroke:#000000;stroke-width:0.8;" x="825.835568" xlink:href="#m2fec4a11cd" y="509.66"/>
      </g>
     </g>
     <g id="text_4">
      <!-- 150 -->
      <g transform="translate(816.291818 524.258437)scale(0.1 -0.1)">
       <use xlink:href="#DejaVuSans-31"/>
       <use x="63.623047" xlink:href="#DejaVuSans-35"/>
       <use x="127.246094" xlink:href="#DejaVuSans-30"/>
      </g>
     </g>
    </g>
    <g id="xtick_5">
     <g id="line2d_5">
      <g>
       <use style="stroke:#000000;stroke-width:0.8;" x="1068.549792" xlink:href="#m2fec4a11cd" y="509.66"/>
      </g>
     </g>
     <g id="text_5">
      <!-- 200 -->
      <defs>
       <path d="M 19.1875 8.296875 
L 53.609375 8.296875 
L 53.609375 0 
L 7.328125 0 
L 7.328125 8.296875 
Q 12.9375 14.109375 22.625 23.890625 
Q 32.328125 33.6875 34.8125 36.53125 
Q 39.546875 41.84375 41.421875 45.53125 
Q 43.3125 49.21875 43.3125 52.78125 
Q 43.3125 58.59375 39.234375 62.25 
Q 35.15625 65.921875 28.609375 65.921875 
Q 23.96875 65.921875 18.8125 64.3125 
Q 13.671875 62.703125 7.8125 59.421875 
L 7.8125 69.390625 
Q 13.765625 71.78125 18.9375 73 
Q 24.125 74.21875 28.421875 74.21875 
Q 39.75 74.21875 46.484375 68.546875 
Q 53.21875 62.890625 53.21875 53.421875 
Q 53.21875 48.921875 51.53125 44.890625 
Q 49.859375 40.875 45.40625 35.40625 
Q 44.1875 33.984375 37.640625 27.21875 
Q 31.109375 20.453125 19.1875 8.296875 
z
" id="DejaVuSans-32"/>
      </defs>
      <g transform="translate(1059.006042 524.258437)scale(0.1 -0.1)">
       <use xlink:href="#DejaVuSans-32"/>
       <use x="63.623047" xlink:href="#DejaVuSans-30"/>
       <use x="127.246094" xlink:href="#DejaVuSans-30"/>
      </g>
     </g>
    </g>
    <g id="text_6">
     <!-- Time -->
     <defs>
      <path d="M -0.296875 72.90625 
L 61.375 72.90625 
L 61.375 64.59375 
L 35.5 64.59375 
L 35.5 0 
L 25.59375 0 
L 25.59375 64.59375 
L -0.296875 64.59375 
z
" id="DejaVuSans-54"/>
      <path d="M 9.421875 54.6875 
L 18.40625 54.6875 
L 18.40625 0 
L 9.421875 0 
z
M 9.421875 75.984375 
L 18.40625 75.984375 
L 18.40625 64.59375 
L 9.421875 64.59375 
z
" id="DejaVuSans-69"/>
      <path d="M 52 44.1875 
Q 55.375 50.25 60.0625 53.125 
Q 64.75 56 71.09375 56 
Q 79.640625 56 84.28125 50.015625 
Q 88.921875 44.046875 88.921875 33.015625 
L 88.921875 0 
L 79.890625 0 
L 79.890625 32.71875 
Q 79.890625 40.578125 77.09375 44.375 
Q 74.3125 48.1875 68.609375 48.1875 
Q 61.625 48.1875 57.5625 43.546875 
Q 53.515625 38.921875 53.515625 30.90625 
L 53.515625 0 
L 44.484375 0 
L 44.484375 32.71875 
Q 44.484375 40.625 41.703125 44.40625 
Q 38.921875 48.1875 33.109375 48.1875 
Q 26.21875 48.1875 22.15625 43.53125 
Q 18.109375 38.875 18.109375 30.90625 
L 18.109375 0 
L 9.078125 0 
L 9.078125 54.6875 
L 18.109375 54.6875 
L 18.109375 46.1875 
Q 21.1875 51.21875 25.484375 53.609375 
Q 29.78125 56 35.6875 56 
Q 41.65625 56 45.828125 52.96875 
Q 50 49.953125 52 44.1875 
z
" id="DejaVuSans-6d"/>
      <path d="M 56.203125 29.59375 
L 56.203125 25.203125 
L 14.890625 25.203125 
Q 15.484375 15.921875 20.484375 11.0625 
Q 25.484375 6.203125 34.421875 6.203125 
Q 39.59375 6.203125 44.453125 7.46875 
Q 49.3125 8.734375 54.109375 11.28125 
L 54.109375 2.78125 
Q 49.265625 0.734375 44.1875 -0.34375 
Q 39.109375 -1.421875 33.890625 -1.421875 
Q 20.796875 -1.421875 13.15625 6.1875 
Q 5.515625 13.8125 5.515625 26.8125 
Q 5.515625 40.234375 12.765625 48.109375 
Q 20.015625 56 32.328125 56 
Q 43.359375 56 49.78125 48.890625 
Q 56.203125 41.796875 56.203125 29.59375 
z
M 47.21875 32.234375 
Q 47.125 39.59375 43.09375 43.984375 
Q 39.0625 48.390625 32.421875 48.390625 
Q 24.90625 48.390625 20.390625 44.140625 
Q 15.875 39.890625 15.1875 32.171875 
z
" id="DejaVuSans-65"/>
     </defs>
     <g transform="translate(592.578125 537.936562)scale(0.1 -0.1)">
      <use xlink:href="#DejaVuSans-54"/>
      <use x="61.037109" xlink:href="#DejaVuSans-69"/>
      <use x="88.820312" xlink:href="#DejaVuSans-6d"/>
      <use x="186.232422" xlink:href="#DejaVuSans-65"/>
     </g>
    </g>
   </g>
   <g id="matplotlib.axis_2">
    <g id="ytick_1">
     <g id="line2d_6">
      <defs>
       <path d="M 0 0 
L -3.5 0 
" id="medd7479826" style="stroke:#000000;stroke-width:0.8;"/>
      </defs>
      <g>
       <use style="stroke:#000000;stroke-width:0.8;" x="46.965625" xlink:href="#medd7479826" y="486.98"/>
      </g>
     </g>
     <g id="text_7">
      <!-- 0 -->
      <g transform="translate(33.603125 490.779219)scale(0.1 -0.1)">
       <use xlink:href="#DejaVuSans-30"/>
      </g>
     </g>
    </g>
    <g id="ytick_2">
     <g id="line2d_7">
      <g>
       <use style="stroke:#000000;stroke-width:0.8;" x="46.965625" xlink:href="#medd7479826" y="397.158218"/>
      </g>
     </g>
     <g id="text_8">
      <!-- 20 -->
      <g transform="translate(27.240625 400.957437)scale(0.1 -0.1)">
       <use xlink:href="#DejaVuSans-32"/>
       <use x="63.623047" xlink:href="#DejaVuSans-30"/>
      </g>
     </g>
    </g>
    <g id="ytick_3">
     <g id="line2d_8">
      <g>
       <use style="stroke:#000000;stroke-width:0.8;" x="46.965625" xlink:href="#medd7479826" y="307.336436"/>
      </g>
     </g>
     <g id="text_9">
      <!-- 40 -->
      <defs>
       <path d="M 37.796875 64.3125 
L 12.890625 25.390625 
L 37.796875 25.390625 
z
M 35.203125 72.90625 
L 47.609375 72.90625 
L 47.609375 25.390625 
L 58.015625 25.390625 
L 58.015625 17.1875 
L 47.609375 17.1875 
L 47.609375 0 
L 37.796875 0 
L 37.796875 17.1875 
L 4.890625 17.1875 
L 4.890625 26.703125 
z
" id="DejaVuSans-34"/>
      </defs>
      <g transform="translate(27.240625 311.135654)scale(0.1 -0.1)">
       <use xlink:href="#DejaVuSans-34"/>
       <use x="63.623047" xlink:href="#DejaVuSans-30"/>
      </g>
     </g>
    </g>
    <g id="ytick_4">
     <g id="line2d_9">
      <g>
       <use style="stroke:#000000;stroke-width:0.8;" x="46.965625" xlink:href="#medd7479826" y="217.514653"/>
      </g>
     </g>
     <g id="text_10">
      <!-- 60 -->
      <defs>
       <path d="M 33.015625 40.375 
Q 26.375 40.375 22.484375 35.828125 
Q 18.609375 31.296875 18.609375 23.390625 
Q 18.609375 15.53125 22.484375 10.953125 
Q 26.375 6.390625 33.015625 6.390625 
Q 39.65625 6.390625 43.53125 10.953125 
Q 47.40625 15.53125 47.40625 23.390625 
Q 47.40625 31.296875 43.53125 35.828125 
Q 39.65625 40.375 33.015625 40.375 
z
M 52.59375 71.296875 
L 52.59375 62.3125 
Q 48.875 64.0625 45.09375 64.984375 
Q 41.3125 65.921875 37.59375 65.921875 
Q 27.828125 65.921875 22.671875 59.328125 
Q 17.53125 52.734375 16.796875 39.40625 
Q 19.671875 43.65625 24.015625 45.921875 
Q 28.375 48.1875 33.59375 48.1875 
Q 44.578125 48.1875 50.953125 41.515625 
Q 57.328125 34.859375 57.328125 23.390625 
Q 57.328125 12.15625 50.6875 5.359375 
Q 44.046875 -1.421875 33.015625 -1.421875 
Q 20.359375 -1.421875 13.671875 8.265625 
Q 6.984375 17.96875 6.984375 36.375 
Q 6.984375 53.65625 15.1875 63.9375 
Q 23.390625 74.21875 37.203125 74.21875 
Q 40.921875 74.21875 44.703125 73.484375 
Q 48.484375 72.75 52.59375 71.296875 
z
" id="DejaVuSans-36"/>
      </defs>
      <g transform="translate(27.240625 221.313872)scale(0.1 -0.1)">
       <use xlink:href="#DejaVuSans-36"/>
       <use x="63.623047" xlink:href="#DejaVuSans-30"/>
      </g>
     </g>
    </g>
    <g id="ytick_5">
     <g id="line2d_10">
      <g>
       <use style="stroke:#000000;stroke-width:0.8;" x="46.965625" xlink:href="#medd7479826" y="127.692871"/>
      </g>
     </g>
     <g id="text_11">
      <!-- 80 -->
      <defs>
       <path d="M 31.78125 34.625 
Q 24.75 34.625 20.71875 30.859375 
Q 16.703125 27.09375 16.703125 20.515625 
Q 16.703125 13.921875 20.71875 10.15625 
Q 24.75 6.390625 31.78125 6.390625 
Q 38.8125 6.390625 42.859375 10.171875 
Q 46.921875 13.96875 46.921875 20.515625 
Q 46.921875 27.09375 42.890625 30.859375 
Q 38.875 34.625 31.78125 34.625 
z
M 21.921875 38.8125 
Q 15.578125 40.375 12.03125 44.71875 
Q 8.5 49.078125 8.5 55.328125 
Q 8.5 64.0625 14.71875 69.140625 
Q 20.953125 74.21875 31.78125 74.21875 
Q 42.671875 74.21875 48.875 69.140625 
Q 55.078125 64.0625 55.078125 55.328125 
Q 55.078125 49.078125 51.53125 44.71875 
Q 48 40.375 41.703125 38.8125 
Q 48.828125 37.15625 52.796875 32.3125 
Q 56.78125 27.484375 56.78125 20.515625 
Q 56.78125 9.90625 50.3125 4.234375 
Q 43.84375 -1.421875 31.78125 -1.421875 
Q 19.734375 -1.421875 13.25 4.234375 
Q 6.78125 9.90625 6.78125 20.515625 
Q 6.78125 27.484375 10.78125 32.3125 
Q 14.796875 37.15625 21.921875 38.8125 
z
M 18.3125 54.390625 
Q 18.3125 48.734375 21.84375 45.5625 
Q 25.390625 42.390625 31.78125 42.390625 
Q 38.140625 42.390625 41.71875 45.5625 
Q 45.3125 48.734375 45.3125 54.390625 
Q 45.3125 60.0625 41.71875 63.234375 
Q 38.140625 66.40625 31.78125 66.40625 
Q 25.390625 66.40625 21.84375 63.234375 
Q 18.3125 60.0625 18.3125 54.390625 
z
" id="DejaVuSans-38"/>
      </defs>
      <g transform="translate(27.240625 131.49209)scale(0.1 -0.1)">
       <use xlink:href="#DejaVuSans-38"/>
       <use x="63.623047" xlink:href="#DejaVuSans-30"/>
      </g>
     </g>
    </g>
    <g id="ytick_6">
     <g id="line2d_11">
      <g>
       <use style="stroke:#000000;stroke-width:0.8;" x="46.965625" xlink:href="#medd7479826" y="37.871089"/>
      </g>
     </g>
     <g id="text_12">
      <!-- 100 -->
      <g transform="translate(20.878125 41.670308)scale(0.1 -0.1)">
       <use xlink:href="#DejaVuSans-31"/>
       <use x="63.623047" xlink:href="#DejaVuSans-30"/>
       <use x="127.246094" xlink:href="#DejaVuSans-30"/>
      </g>
     </g>
    </g>
    <g id="text_13">
     <!-- Refugees -->
     <defs>
      <path d="M 44.390625 34.1875 
Q 47.5625 33.109375 50.5625 29.59375 
Q 53.5625 26.078125 56.59375 19.921875 
L 66.609375 0 
L 56 0 
L 46.6875 18.703125 
Q 43.0625 26.03125 39.671875 28.421875 
Q 36.28125 30.8125 30.421875 30.8125 
L 19.671875 30.8125 
L 19.671875 0 
L 9.8125 0 
L 9.8125 72.90625 
L 32.078125 72.90625 
Q 44.578125 72.90625 50.734375 67.671875 
Q 56.890625 62.453125 56.890625 51.90625 
Q 56.890625 45.015625 53.6875 40.46875 
Q 50.484375 35.9375 44.390625 34.1875 
z
M 19.671875 64.796875 
L 19.671875 38.921875 
L 32.078125 38.921875 
Q 39.203125 38.921875 42.84375 42.21875 
Q 46.484375 45.515625 46.484375 51.90625 
Q 46.484375 58.296875 42.84375 61.546875 
Q 39.203125 64.796875 32.078125 64.796875 
z
" id="DejaVuSans-52"/>
      <path d="M 37.109375 75.984375 
L 37.109375 68.5 
L 28.515625 68.5 
Q 23.6875 68.5 21.796875 66.546875 
Q 19.921875 64.59375 19.921875 59.515625 
L 19.921875 54.6875 
L 34.71875 54.6875 
L 34.71875 47.703125 
L 19.921875 47.703125 
L 19.921875 0 
L 10.890625 0 
L 10.890625 47.703125 
L 2.296875 47.703125 
L 2.296875 54.6875 
L 10.890625 54.6875 
L 10.890625 58.5 
Q 10.890625 67.625 15.140625 71.796875 
Q 19.390625 75.984375 28.609375 75.984375 
z
" id="DejaVuSans-66"/>
      <path d="M 8.5 21.578125 
L 8.5 54.6875 
L 17.484375 54.6875 
L 17.484375 21.921875 
Q 17.484375 14.15625 20.5 10.265625 
Q 23.53125 6.390625 29.59375 6.390625 
Q 36.859375 6.390625 41.078125 11.03125 
Q 45.3125 15.671875 45.3125 23.6875 
L 45.3125 54.6875 
L 54.296875 54.6875 
L 54.296875 0 
L 45.3125 0 
L 45.3125 8.40625 
Q 42.046875 3.421875 37.71875 1 
Q 33.40625 -1.421875 27.6875 -1.421875 
Q 18.265625 -1.421875 13.375 4.4375 
Q 8.5 10.296875 8.5 21.578125 
z
M 31.109375 56 
z
" id="DejaVuSans-75"/>
      <path d="M 45.40625 27.984375 
Q 45.40625 37.75 41.375 43.109375 
Q 37.359375 48.484375 30.078125 48.484375 
Q 22.859375 48.484375 18.828125 43.109375 
Q 14.796875 37.75 14.796875 27.984375 
Q 14.796875 18.265625 18.828125 12.890625 
Q 22.859375 7.515625 30.078125 7.515625 
Q 37.359375 7.515625 41.375 12.890625 
Q 45.40625 18.265625 45.40625 27.984375 
z
M 54.390625 6.78125 
Q 54.390625 -7.171875 48.1875 -13.984375 
Q 42 -20.796875 29.203125 -20.796875 
Q 24.46875 -20.796875 20.265625 -20.09375 
Q 16.0625 -19.390625 12.109375 -17.921875 
L 12.109375 -9.1875 
Q 16.0625 -11.328125 19.921875 -12.34375 
Q 23.78125 -13.375 27.78125 -13.375 
Q 36.625 -13.375 41.015625 -8.765625 
Q 45.40625 -4.15625 45.40625 5.171875 
L 45.40625 9.625 
Q 42.625 4.78125 38.28125 2.390625 
Q 33.9375 0 27.875 0 
Q 17.828125 0 11.671875 7.65625 
Q 5.515625 15.328125 5.515625 27.984375 
Q 5.515625 40.671875 11.671875 48.328125 
Q 17.828125 56 27.875 56 
Q 33.9375 56 38.28125 53.609375 
Q 42.625 51.21875 45.40625 46.390625 
L 45.40625 54.6875 
L 54.390625 54.6875 
z
" id="DejaVuSans-67"/>
      <path d="M 44.28125 53.078125 
L 44.28125 44.578125 
Q 40.484375 46.53125 36.375 47.5 
Q 32.28125 48.484375 27.875 48.484375 
Q 21.1875 48.484375 17.84375 46.4375 
Q 14.5 44.390625 14.5 40.28125 
Q 14.5 37.15625 16.890625 35.375 
Q 19.28125 33.59375 26.515625 31.984375 
L 29.59375 31.296875 
Q 39.15625 29.25 43.1875 25.515625 
Q 47.21875 21.78125 47.21875 15.09375 
Q 47.21875 7.46875 41.1875 3.015625 
Q 35.15625 -1.421875 24.609375 -1.421875 
Q 20.21875 -1.421875 15.453125 -0.5625 
Q 10.6875 0.296875 5.421875 2 
L 5.421875 11.28125 
Q 10.40625 8.6875 15.234375 7.390625 
Q 20.0625 6.109375 24.8125 6.109375 
Q 31.15625 6.109375 34.5625 8.28125 
Q 37.984375 10.453125 37.984375 14.40625 
Q 37.984375 18.0625 35.515625 20.015625 
Q 33.0625 21.96875 24.703125 23.78125 
L 21.578125 24.515625 
Q 13.234375 26.265625 9.515625 29.90625 
Q 5.8125 33.546875 5.8125 39.890625 
Q 5.8125 47.609375 11.28125 51.796875 
Q 16.75 56 26.8125 56 
Q 31.78125 56 36.171875 55.265625 
Q 40.578125 54.546875 44.28125 53.078125 
z
" id="DejaVuSans-73"/>
     </defs>
     <g style="fill:#ff7f0e;" transform="translate(14.798438 283.588594)rotate(-90)scale(0.1 -0.1)">
      <use xlink:href="#DejaVuSans-52"/>
      <use x="69.419922" xlink:href="#DejaVuSans-65"/>
      <use x="130.943359" xlink:href="#DejaVuSans-66"/>
      <use x="166.148438" xlink:href="#DejaVuSans-75"/>
      <use x="229.527344" xlink:href="#DejaVuSans-67"/>
      <use x="293.003906" xlink:href="#DejaVuSans-65"/>
      <use x="354.527344" xlink:href="#DejaVuSans-65"/>
      <use x="416.050781" xlink:href="#DejaVuSans-73"/>
     </g>
    </g>
   </g>
   <g id="line2d_12">
    <path clip-path="url(#p55e1b3a513)" d="M 97.692898 475.838209 
L 102.547182 483.094621 
L 107.401467 486.98 
L 117.110036 486.98 
L 121.96432 448.071917 
L 126.818605 474.4269 
L 131.672889 479.82185 
L 136.527173 486.98 
L 146.235742 486.98 
L 151.090027 447.219631 
L 155.944311 468.044898 
L 160.798596 465.022408 
L 165.65288 472.463737 
L 170.507165 486.98 
L 175.361449 486.98 
L 180.215734 443.36558 
L 185.070018 390.317421 
L 189.924303 378.170516 
L 194.778587 382.135279 
L 199.632872 403.094078 
L 204.487156 404.517082 
L 209.341441 362.740072 
L 214.195725 393.332875 
L 219.05001 381.199025 
L 223.904294 385.144806 
L 228.758578 406.122133 
L 233.612863 407.51149 
L 238.467147 365.788891 
L 243.321432 349.643155 
L 248.175716 337.319609 
L 253.030001 341.54061 
L 257.884285 362.249347 
L 262.73857 364.127048 
L 267.592854 321.615805 
L 272.447139 345.977141 
L 277.301423 333.637654 
L 282.155708 337.881697 
L 287.009992 358.567889 
L 291.864277 360.486664 
L 296.718561 317.909196 
L 301.572846 332.191769 
L 306.42713 319.792396 
L 311.281414 324.123248 
L 316.135699 344.72467 
L 320.989983 346.797583 
L 325.844268 303.971323 
L 330.698552 431.225326 
L 335.552837 419.256056 
L 340.407121 422.963139 
L 345.261406 444.173442 
L 350.11569 445.139151 
L 354.969975 404.100566 
L 359.824259 390.213454 
L 364.678544 378.066087 
L 369.532828 382.031484 
L 374.387113 402.989632 
L 379.241397 404.413853 
L 384.095682 362.634949 
L 388.949966 459.834936 
L 393.80425 449.341148 
L 398.658535 453.548368 
L 403.512819 474.825939 
L 408.367104 474.755079 
L 413.221388 433.693075 
L 418.075673 410.665141 
L 422.929957 398.606552 
L 427.784242 402.443193 
L 432.638526 423.527061 
L 437.492811 424.72264 
L 442.347095 383.312909 
L 447.20138 472.014808 
L 452.055664 474.228386 
L 456.909949 483.436193 
L 461.764233 486.98 
L 466.618518 486.98 
L 471.472802 445.762979 
L 476.327087 433.137937 
L 481.181371 421.17698 
L 486.035655 424.871951 
L 490.88994 446.094041 
L 495.744224 447.038386 
L 500.598509 406.034305 
L 505.452793 480.618832 
L 510.307078 486.98 
L 524.869931 486.98 
L 529.724216 450.958902 
L 534.5785 416.375692 
L 539.432785 404.341949 
L 544.287069 408.142561 
L 549.141354 429.261545 
L 553.995638 430.393308 
L 558.849923 389.086647 
L 563.704207 467.570466 
L 568.558491 463.922225 
L 573.412776 471.152439 
L 578.26706 486.98 
L 583.121345 486.98 
L 587.975629 443.079075 
L 592.829914 441.904255 
L 597.684198 429.981404 
L 602.538483 433.621184 
L 607.392767 454.897118 
L 612.247052 455.74348 
L 617.101336 414.897646 
L 621.955621 441.60353 
L 626.809905 429.679304 
L 631.66419 433.321033 
L 636.518474 454.595119 
L 641.372759 455.444847 
L 646.227043 414.593585 
L 651.081327 357.830564 
L 655.935612 345.542533 
L 660.789896 349.711932 
L 665.644181 370.471004 
L 670.498465 372.25727 
L 675.35275 329.893817 
L 680.207034 431.434501 
L 685.061319 419.466151 
L 689.915603 423.171903 
L 694.769888 444.38349 
L 699.624172 445.346861 
L 704.478457 404.312045 
L 709.332741 371.901744 
L 714.187026 359.674823 
L 719.04131 363.755563 
L 723.895595 384.601186 
L 728.749879 386.230111 
L 733.604163 344.120668 
L 738.458448 443.085015 
L 743.312732 431.167287 
L 748.167017 434.799618 
L 753.021301 456.082863 
L 757.875586 456.915972 
L 762.72987 416.091461 
L 767.584155 392.366785 
L 772.438439 380.228763 
L 777.292724 384.180592 
L 782.147008 405.151974 
L 787.001293 406.552107 
L 791.855577 364.812102 
L 801.564146 340.323131 
L 806.418431 344.525261 
L 811.272715 365.252398 
L 816.127 367.096717 
L 820.981284 324.63944 
L 825.835568 394.594983 
L 830.689853 382.466632 
L 835.544137 386.404447 
L 840.398422 407.389552 
L 845.252706 408.764784 
L 850.106991 367.064936 
L 854.961275 424.975644 
L 859.81556 412.979266 
L 864.669844 416.725659 
L 869.524129 437.897534 
L 874.378413 438.933138 
L 879.232698 397.781725 
L 884.086982 317.488637 
L 888.941267 305.025378 
L 893.795551 309.448863 
L 898.649836 329.960016 
L 903.50412 332.197217 
L 908.358404 289.10552 
L 913.212689 386.273601 
L 918.066973 374.109126 
L 922.921258 378.09934 
L 927.775542 399.033271 
L 932.629827 400.501522 
L 937.484111 358.651511 
L 942.338396 340.094794 
L 947.19268 327.729753 
L 952.046965 332.010939 
L 956.901249 352.660914 
L 961.755534 354.645424 
L 966.609818 311.961824 
L 971.464103 366.991971 
L 976.318387 354.74372 
L 981.172672 358.855409 
L 986.026956 379.670829 
L 990.88124 381.354636 
L 995.735525 339.156552 
L 1000.589809 233.839327 
L 1005.444094 221.012832 
L 1010.298378 225.963285 
L 1015.152663 245.960062 
L 1020.006947 249.132422 
L 1024.861232 204.530749 
L 1029.715516 153.410894 
L 1034.569801 140.235075 
L 1039.424085 145.692177 
L 1044.27837 165.194521 
L 1049.132654 169.265975 
L 1053.986939 123.212507 
L 1058.841223 234.635115 
L 1063.695508 221.811995 
L 1068.549792 226.757497 
L 1073.404077 246.759157 
L 1078.258361 249.922625 
L 1083.112645 205.335309 
L 1087.96693 306.722728 
L 1092.821214 294.212733 
L 1097.675499 298.704044 
L 1102.529783 319.148964 
L 1107.384068 321.506484 
L 1112.238352 278.220492 
L 1112.238352 278.220492 
" style="fill:none;stroke:#008000;stroke-dasharray:5.55,2.4;stroke-dashoffset:0;stroke-width:1.5;"/>
   </g>
   <g id="line2d_13">
    <path clip-path="url(#p55e1b3a513)" d="M 97.692898 469.015644 
L 102.547182 451.051287 
L 112.255751 469.015644 
L 117.110036 442.069109 
L 121.96432 469.015644 
L 126.818605 442.069109 
L 131.672889 455.542376 
L 136.527173 473.506733 
L 141.381458 477.997822 
L 146.235742 433.086931 
L 151.090027 433.086931 
L 155.944311 460.033465 
L 160.798596 437.57802 
L 165.65288 464.524554 
L 170.507165 415.122574 
L 175.361449 388.17604 
L 180.215734 410.631485 
L 185.070018 437.57802 
L 189.924303 442.069109 
L 194.778587 370.211683 
L 199.632872 379.193861 
L 204.487156 370.211683 
L 209.341441 338.774059 
L 214.195725 392.667129 
L 219.05001 352.247327 
L 223.904294 347.756238 
L 228.758578 320.809703 
L 233.612863 352.247327 
L 238.467147 379.193861 
L 243.321432 181.585941 
L 248.175716 289.372079 
L 253.030001 298.354257 
L 257.884285 361.229505 
L 262.73857 302.845347 
L 267.592854 334.28297 
L 272.447139 338.774059 
L 277.301423 392.667129 
L 282.155708 307.336436 
L 287.009992 343.265149 
L 291.864277 343.265149 
L 296.718561 383.68495 
L 301.572846 437.57802 
L 306.42713 433.086931 
L 311.281414 397.158218 
L 316.135699 388.17604 
L 320.989983 419.613663 
L 325.844268 392.667129 
L 330.698552 374.702772 
L 335.552837 401.649307 
L 340.407121 410.631485 
L 345.261406 397.158218 
L 350.11569 428.595842 
L 354.969975 410.631485 
L 359.824259 347.756238 
L 364.678544 410.631485 
L 369.532828 347.756238 
L 374.387113 446.560198 
L 379.241397 433.086931 
L 384.095682 415.122574 
L 388.949966 410.631485 
L 393.80425 437.57802 
L 398.658535 437.57802 
L 403.512819 415.122574 
L 408.367104 451.051287 
L 413.221388 419.613663 
L 418.075673 379.193861 
L 422.929957 379.193861 
L 427.784242 433.086931 
L 432.638526 446.560198 
L 437.492811 433.086931 
L 442.347095 428.595842 
L 447.20138 397.158218 
L 452.055664 455.542376 
L 456.909949 469.015644 
L 461.764233 473.506733 
L 466.618518 437.57802 
L 471.472802 451.051287 
L 476.327087 446.560198 
L 481.181371 455.542376 
L 486.035655 428.595842 
L 490.88994 460.033465 
L 495.744224 451.051287 
L 500.598509 455.542376 
L 505.452793 442.069109 
L 510.307078 442.069109 
L 515.161362 446.560198 
L 520.015647 442.069109 
L 524.869931 406.140396 
L 529.724216 446.560198 
L 534.5785 455.542376 
L 539.432785 451.051287 
L 544.287069 428.595842 
L 549.141354 437.57802 
L 553.995638 451.051287 
L 558.849923 437.57802 
L 563.704207 464.524554 
L 568.558491 437.57802 
L 573.412776 477.997822 
L 578.26706 451.051287 
L 583.121345 451.051287 
L 587.975629 415.122574 
L 592.829914 424.104752 
L 597.684198 437.57802 
L 602.538483 311.827525 
L 607.392767 406.140396 
L 612.247052 388.17604 
L 617.101336 388.17604 
L 621.955621 379.193861 
L 626.809905 419.613663 
L 631.66419 356.738416 
L 636.518474 316.318614 
L 641.372759 383.68495 
L 646.227043 356.738416 
L 651.081327 397.158218 
L 655.935612 388.17604 
L 660.789896 347.756238 
L 665.644181 442.069109 
L 670.498465 383.68495 
L 675.35275 437.57802 
L 680.207034 311.827525 
L 685.061319 388.17604 
L 689.915603 406.140396 
L 694.769888 410.631485 
L 699.624172 406.140396 
L 704.478457 370.211683 
L 709.332741 392.667129 
L 714.187026 320.809703 
L 719.04131 392.667129 
L 723.895595 442.069109 
L 728.749879 370.211683 
L 733.604163 397.158218 
L 738.458448 374.702772 
L 743.312732 392.667129 
L 748.167017 406.140396 
L 753.021301 424.104752 
L 757.875586 361.229505 
L 762.72987 401.649307 
L 767.584155 419.613663 
L 772.438439 392.667129 
L 777.292724 419.613663 
L 782.147008 410.631485 
L 787.001293 325.300792 
L 791.855577 307.336436 
L 796.709862 329.791881 
L 801.564146 347.756238 
L 806.418431 361.229505 
L 811.272715 401.649307 
L 816.127 343.265149 
L 820.981284 397.158218 
L 825.835568 311.827525 
L 830.689853 388.17604 
L 835.544137 334.28297 
L 840.398422 334.28297 
L 845.252706 406.140396 
L 850.106991 388.17604 
L 854.961275 397.158218 
L 859.81556 392.667129 
L 864.669844 356.738416 
L 869.524129 284.88099 
L 874.378413 347.756238 
L 879.232698 302.845347 
L 884.086982 293.863168 
L 888.941267 325.300792 
L 893.795551 311.827525 
L 898.649836 365.720594 
L 903.50412 307.336436 
L 908.358404 361.229505 
L 913.212689 370.211683 
L 918.066973 311.827525 
L 922.921258 361.229505 
L 927.775542 289.372079 
L 932.629827 361.229505 
L 937.484111 388.17604 
L 942.338396 343.265149 
L 952.046965 379.193861 
L 956.901249 406.140396 
L 961.755534 257.934455 
L 966.609818 307.336436 
L 971.464103 271.407723 
L 976.318387 275.898812 
L 981.172672 208.532475 
L 986.026956 154.639406 
L 990.88124 266.916634 
L 995.735525 365.720594 
L 1000.589809 298.354257 
L 1005.444094 289.372079 
L 1010.298378 248.952277 
L 1015.152663 244.461188 
L 1020.006947 145.657228 
L 1024.861232 33.38 
L 1029.715516 109.728515 
L 1034.569801 230.987921 
L 1039.424085 177.094851 
L 1044.27837 230.987921 
L 1049.132654 280.389901 
L 1053.986939 343.265149 
L 1058.841223 316.318614 
L 1063.695508 410.631485 
L 1068.549792 244.461188 
L 1073.404077 257.934455 
L 1078.258361 392.667129 
L 1083.112645 195.059208 
L 1087.96693 154.639406 
L 1092.821214 266.916634 
L 1097.675499 316.318614 
L 1102.529783 280.389901 
L 1107.384068 347.756238 
L 1112.238352 271.407723 
L 1112.238352 271.407723 
" style="fill:none;stroke:#ff7f0e;stroke-linecap:square;stroke-width:1.5;"/>
   </g>
   <g id="line2d_14">
    <defs>
     <path d="M 0 3 
C 0.795609 3 1.55874 2.683901 2.12132 2.12132 
C 2.683901 1.55874 3 0.795609 3 0 
C 3 -0.795609 2.683901 -1.55874 2.12132 -2.12132 
C 1.55874 -2.683901 0.795609 -3 0 -3 
C -0.795609 -3 -1.55874 -2.683901 -2.12132 -2.12132 
C -2.683901 -1.55874 -3 -0.795609 -3 0 
C -3 0.795609 -2.683901 1.55874 -2.12132 2.12132 
C -1.55874 2.683901 -0.795609 3 0 3 
z
" id="m273b0a9c3f" style="stroke:#008000;"/>
    </defs>
    <g clip-path="url(#p55e1b3a513)">
     <use style="fill:#008000;stroke:#008000;" x="97.692898" xlink:href="#m273b0a9c3f" y="475.838209"/>
     <use style="fill:#008000;stroke:#008000;" x="126.818605" xlink:href="#m273b0a9c3f" y="474.4269"/>
     <use style="fill:#008000;stroke:#008000;" x="155.944311" xlink:href="#m273b0a9c3f" y="468.044898"/>
     <use style="fill:#008000;stroke:#008000;" x="185.070018" xlink:href="#m273b0a9c3f" y="390.317421"/>
     <use style="fill:#008000;stroke:#008000;" x="214.195725" xlink:href="#m273b0a9c3f" y="393.332875"/>
     <use style="fill:#008000;stroke:#008000;" x="243.321432" xlink:href="#m273b0a9c3f" y="349.643155"/>
     <use style="fill:#008000;stroke:#008000;" x="272.447139" xlink:href="#m273b0a9c3f" y="345.977141"/>
     <use style="fill:#008000;stroke:#008000;" x="301.572846" xlink:href="#m273b0a9c3f" y="332.191769"/>
     <use style="fill:#008000;stroke:#008000;" x="330.698552" xlink:href="#m273b0a9c3f" y="431.225326"/>
     <use style="fill:#008000;stroke:#008000;" x="359.824259" xlink:href="#m273b0a9c3f" y="390.213454"/>
     <use style="fill:#008000;stroke:#008000;" x="388.949966" xlink:href="#m273b0a9c3f" y="459.834936"/>
     <use style="fill:#008000;stroke:#008000;" x="418.075673" xlink:href="#m273b0a9c3f" y="410.665141"/>
     <use style="fill:#008000;stroke:#008000;" x="447.20138" xlink:href="#m273b0a9c3f" y="472.014808"/>
     <use style="fill:#008000;stroke:#008000;" x="476.327087" xlink:href="#m273b0a9c3f" y="433.137937"/>
     <use style="fill:#008000;stroke:#008000;" x="505.452793" xlink:href="#m273b0a9c3f" y="480.618832"/>
     <use style="fill:#008000;stroke:#008000;" x="534.5785" xlink:href="#m273b0a9c3f" y="416.375692"/>
     <use style="fill:#008000;stroke:#008000;" x="563.704207" xlink:href="#m273b0a9c3f" y="467.570466"/>
     <use style="fill:#008000;stroke:#008000;" x="592.829914" xlink:href="#m273b0a9c3f" y="441.904255"/>
     <use style="fill:#008000;stroke:#008000;" x="621.955621" xlink:href="#m273b0a9c3f" y="441.60353"/>
     <use style="fill:#008000;stroke:#008000;" x="651.081327" xlink:href="#m273b0a9c3f" y="357.830564"/>
     <use style="fill:#008000;stroke:#008000;" x="680.207034" xlink:href="#m273b0a9c3f" y="431.434501"/>
     <use style="fill:#008000;stroke:#008000;" x="709.332741" xlink:href="#m273b0a9c3f" y="371.901744"/>
     <use style="fill:#008000;stroke:#008000;" x="738.458448" xlink:href="#m273b0a9c3f" y="443.085015"/>
     <use style="fill:#008000;stroke:#008000;" x="767.584155" xlink:href="#m273b0a9c3f" y="392.366785"/>
     <use style="fill:#008000;stroke:#008000;" x="796.709862" xlink:href="#m273b0a9c3f" y="352.633725"/>
     <use style="fill:#008000;stroke:#008000;" x="825.835568" xlink:href="#m273b0a9c3f" y="394.594983"/>
     <use style="fill:#008000;stroke:#008000;" x="854.961275" xlink:href="#m273b0a9c3f" y="424.975644"/>
     <use style="fill:#008000;stroke:#008000;" x="884.086982" xlink:href="#m273b0a9c3f" y="317.488637"/>
     <use style="fill:#008000;stroke:#008000;" x="913.212689" xlink:href="#m273b0a9c3f" y="386.273601"/>
     <use style="fill:#008000;stroke:#008000;" x="942.338396" xlink:href="#m273b0a9c3f" y="340.094794"/>
     <use style="fill:#008000;stroke:#008000;" x="971.464103" xlink:href="#m273b0a9c3f" y="366.991971"/>
     <use style="fill:#008000;stroke:#008000;" x="1000.589809" xlink:href="#m273b0a9c3f" y="233.839327"/>
     <use style="fill:#008000;stroke:#008000;" x="1029.715516" xlink:href="#m273b0a9c3f" y="153.410894"/>
     <use style="fill:#008000;stroke:#008000;" x="1058.841223" xlink:href="#m273b0a9c3f" y="234.635115"/>
     <use style="fill:#008000;stroke:#008000;" x="1087.96693" xlink:href="#m273b0a9c3f" y="306.722728"/>
    </g>
   </g>
   <g id="patch_3">
    <path d="M 46.965625 509.66 
L 46.965625 10.7 
" style="fill:none;stroke:#000000;stroke-linecap:square;stroke-linejoin:miter;stroke-width:0.8;"/>
   </g>
   <g id="patch_4">
    <path d="M 1162.965625 509.66 
L 1162.965625 10.7 
" style="fill:none;stroke:#000000;stroke-linecap:square;stroke-linejoin:miter;stroke-width:0.8;"/>
   </g>
   <g id="patch_5">
    <path d="M 46.965625 509.66 
L 1162.965625 509.66 
" style="fill:none;stroke:#000000;stroke-linecap:square;stroke-linejoin:miter;stroke-width:0.8;"/>
   </g>
   <g id="patch_6">
    <path d="M 46.965625 10.7 
L 1162.965625 10.7 
" style="fill:none;stroke:#000000;stroke-linecap:square;stroke-linejoin:miter;stroke-width:0.8;"/>
   </g>
   <g id="legend_1">
    <g id="patch_7">
     <path d="M 53.965625 62.734375 
L 201.740625 62.734375 
Q 203.740625 62.734375 203.740625 60.734375 
L 203.740625 17.7 
Q 203.740625 15.7 201.740625 15.7 
L 53.965625 15.7 
Q 51.965625 15.7 51.965625 17.7 
L 51.965625 60.734375 
Q 51.965625 62.734375 53.965625 62.734375 
z
" style="fill:#ffffff;opacity:0.8;stroke:#cccccc;stroke-linejoin:miter;"/>
    </g>
    <g id="line2d_15">
     <path d="M 55.965625 23.798437 
L 75.965625 23.798437 
" style="fill:none;stroke:#008000;stroke-dasharray:5.55,2.4;stroke-dashoffset:0;stroke-width:1.5;"/>
    </g>
    <g id="line2d_16"/>
    <g id="text_14">
     <!-- Predicated -->
     <defs>
      <path d="M 19.671875 64.796875 
L 19.671875 37.40625 
L 32.078125 37.40625 
Q 38.96875 37.40625 42.71875 40.96875 
Q 46.484375 44.53125 46.484375 51.125 
Q 46.484375 57.671875 42.71875 61.234375 
Q 38.96875 64.796875 32.078125 64.796875 
z
M 9.8125 72.90625 
L 32.078125 72.90625 
Q 44.34375 72.90625 50.609375 67.359375 
Q 56.890625 61.8125 56.890625 51.125 
Q 56.890625 40.328125 50.609375 34.8125 
Q 44.34375 29.296875 32.078125 29.296875 
L 19.671875 29.296875 
L 19.671875 0 
L 9.8125 0 
z
" id="DejaVuSans-50"/>
      <path d="M 41.109375 46.296875 
Q 39.59375 47.171875 37.8125 47.578125 
Q 36.03125 48 33.890625 48 
Q 26.265625 48 22.1875 43.046875 
Q 18.109375 38.09375 18.109375 28.8125 
L 18.109375 0 
L 9.078125 0 
L 9.078125 54.6875 
L 18.109375 54.6875 
L 18.109375 46.1875 
Q 20.953125 51.171875 25.484375 53.578125 
Q 30.03125 56 36.53125 56 
Q 37.453125 56 38.578125 55.875 
Q 39.703125 55.765625 41.0625 55.515625 
z
" id="DejaVuSans-72"/>
      <path d="M 45.40625 46.390625 
L 45.40625 75.984375 
L 54.390625 75.984375 
L 54.390625 0 
L 45.40625 0 
L 45.40625 8.203125 
Q 42.578125 3.328125 38.25 0.953125 
Q 33.9375 -1.421875 27.875 -1.421875 
Q 17.96875 -1.421875 11.734375 6.484375 
Q 5.515625 14.40625 5.515625 27.296875 
Q 5.515625 40.1875 11.734375 48.09375 
Q 17.96875 56 27.875 56 
Q 33.9375 56 38.25 53.625 
Q 42.578125 51.265625 45.40625 46.390625 
z
M 14.796875 27.296875 
Q 14.796875 17.390625 18.875 11.75 
Q 22.953125 6.109375 30.078125 6.109375 
Q 37.203125 6.109375 41.296875 11.75 
Q 45.40625 17.390625 45.40625 27.296875 
Q 45.40625 37.203125 41.296875 42.84375 
Q 37.203125 48.484375 30.078125 48.484375 
Q 22.953125 48.484375 18.875 42.84375 
Q 14.796875 37.203125 14.796875 27.296875 
z
" id="DejaVuSans-64"/>
      <path d="M 48.78125 52.59375 
L 48.78125 44.1875 
Q 44.96875 46.296875 41.140625 47.34375 
Q 37.3125 48.390625 33.40625 48.390625 
Q 24.65625 48.390625 19.8125 42.84375 
Q 14.984375 37.3125 14.984375 27.296875 
Q 14.984375 17.28125 19.8125 11.734375 
Q 24.65625 6.203125 33.40625 6.203125 
Q 37.3125 6.203125 41.140625 7.25 
Q 44.96875 8.296875 48.78125 10.40625 
L 48.78125 2.09375 
Q 45.015625 0.34375 40.984375 -0.53125 
Q 36.96875 -1.421875 32.421875 -1.421875 
Q 20.0625 -1.421875 12.78125 6.34375 
Q 5.515625 14.109375 5.515625 27.296875 
Q 5.515625 40.671875 12.859375 48.328125 
Q 20.21875 56 33.015625 56 
Q 37.15625 56 41.109375 55.140625 
Q 45.0625 54.296875 48.78125 52.59375 
z
" id="DejaVuSans-63"/>
      <path d="M 34.28125 27.484375 
Q 23.390625 27.484375 19.1875 25 
Q 14.984375 22.515625 14.984375 16.5 
Q 14.984375 11.71875 18.140625 8.90625 
Q 21.296875 6.109375 26.703125 6.109375 
Q 34.1875 6.109375 38.703125 11.40625 
Q 43.21875 16.703125 43.21875 25.484375 
L 43.21875 27.484375 
z
M 52.203125 31.203125 
L 52.203125 0 
L 43.21875 0 
L 43.21875 8.296875 
Q 40.140625 3.328125 35.546875 0.953125 
Q 30.953125 -1.421875 24.3125 -1.421875 
Q 15.921875 -1.421875 10.953125 3.296875 
Q 6 8.015625 6 15.921875 
Q 6 25.140625 12.171875 29.828125 
Q 18.359375 34.515625 30.609375 34.515625 
L 43.21875 34.515625 
L 43.21875 35.40625 
Q 43.21875 41.609375 39.140625 45 
Q 35.0625 48.390625 27.6875 48.390625 
Q 23 48.390625 18.546875 47.265625 
Q 14.109375 46.140625 10.015625 43.890625 
L 10.015625 52.203125 
Q 14.9375 54.109375 19.578125 55.046875 
Q 24.21875 56 28.609375 56 
Q 40.484375 56 46.34375 49.84375 
Q 52.203125 43.703125 52.203125 31.203125 
z
" id="DejaVuSans-61"/>
      <path d="M 18.3125 70.21875 
L 18.3125 54.6875 
L 36.8125 54.6875 
L 36.8125 47.703125 
L 18.3125 47.703125 
L 18.3125 18.015625 
Q 18.3125 11.328125 20.140625 9.421875 
Q 21.96875 7.515625 27.59375 7.515625 
L 36.8125 7.515625 
L 36.8125 0 
L 27.59375 0 
Q 17.1875 0 13.234375 3.875 
Q 9.28125 7.765625 9.28125 18.015625 
L 9.28125 47.703125 
L 2.6875 47.703125 
L 2.6875 54.6875 
L 9.28125 54.6875 
L 9.28125 70.21875 
z
" id="DejaVuSans-74"/>
     </defs>
     <g transform="translate(83.965625 27.298437)scale(0.1 -0.1)">
      <use xlink:href="#DejaVuSans-50"/>
      <use x="60.287109" xlink:href="#DejaVuSans-72"/>
      <use x="101.369141" xlink:href="#DejaVuSans-65"/>
      <use x="162.892578" xlink:href="#DejaVuSans-64"/>
      <use x="226.369141" xlink:href="#DejaVuSans-69"/>
      <use x="254.152344" xlink:href="#DejaVuSans-63"/>
      <use x="309.132812" xlink:href="#DejaVuSans-61"/>
      <use x="370.412109" xlink:href="#DejaVuSans-74"/>
      <use x="409.621094" xlink:href="#DejaVuSans-65"/>
      <use x="471.144531" xlink:href="#DejaVuSans-64"/>
     </g>
    </g>
    <g id="line2d_17">
     <path d="M 55.965625 38.476562 
L 75.965625 38.476562 
" style="fill:none;stroke:#ff7f0e;stroke-linecap:square;stroke-width:1.5;"/>
    </g>
    <g id="line2d_18"/>
    <g id="text_15">
     <!-- Real Data -->
     <defs>
      <path d="M 9.421875 75.984375 
L 18.40625 75.984375 
L 18.40625 0 
L 9.421875 0 
z
" id="DejaVuSans-6c"/>
      <path id="DejaVuSans-20"/>
      <path d="M 19.671875 64.796875 
L 19.671875 8.109375 
L 31.59375 8.109375 
Q 46.6875 8.109375 53.6875 14.9375 
Q 60.6875 21.78125 60.6875 36.53125 
Q 60.6875 51.171875 53.6875 57.984375 
Q 46.6875 64.796875 31.59375 64.796875 
z
M 9.8125 72.90625 
L 30.078125 72.90625 
Q 51.265625 72.90625 61.171875 64.09375 
Q 71.09375 55.28125 71.09375 36.53125 
Q 71.09375 17.671875 61.125 8.828125 
Q 51.171875 0 30.078125 0 
L 9.8125 0 
z
" id="DejaVuSans-44"/>
     </defs>
     <g transform="translate(83.965625 41.976562)scale(0.1 -0.1)">
      <use xlink:href="#DejaVuSans-52"/>
      <use x="69.419922" xlink:href="#DejaVuSans-65"/>
      <use x="130.943359" xlink:href="#DejaVuSans-61"/>
      <use x="192.222656" xlink:href="#DejaVuSans-6c"/>
      <use x="220.005859" xlink:href="#DejaVuSans-20"/>
      <use x="251.792969" xlink:href="#DejaVuSans-44"/>
      <use x="328.794922" xlink:href="#DejaVuSans-61"/>
      <use x="390.074219" xlink:href="#DejaVuSans-74"/>
      <use x="429.283203" xlink:href="#DejaVuSans-61"/>
     </g>
    </g>
    <g id="line2d_19"/>
    <g id="line2d_20">
     <g>
      <use style="fill:#008000;stroke:#008000;" x="65.965625" xlink:href="#m273b0a9c3f" y="53.154688"/>
     </g>
    </g>
    <g id="text_16">
     <!-- Start Point for Forecast -->
     <defs>
      <path d="M 53.515625 70.515625 
L 53.515625 60.890625 
Q 47.90625 63.578125 42.921875 64.890625 
Q 37.9375 66.21875 33.296875 66.21875 
Q 25.25 66.21875 20.875 63.09375 
Q 16.5 59.96875 16.5 54.203125 
Q 16.5 49.359375 19.40625 46.890625 
Q 22.3125 44.4375 30.421875 42.921875 
L 36.375 41.703125 
Q 47.40625 39.59375 52.65625 34.296875 
Q 57.90625 29 57.90625 20.125 
Q 57.90625 9.515625 50.796875 4.046875 
Q 43.703125 -1.421875 29.984375 -1.421875 
Q 24.8125 -1.421875 18.96875 -0.25 
Q 13.140625 0.921875 6.890625 3.21875 
L 6.890625 13.375 
Q 12.890625 10.015625 18.65625 8.296875 
Q 24.421875 6.59375 29.984375 6.59375 
Q 38.421875 6.59375 43.015625 9.90625 
Q 47.609375 13.234375 47.609375 19.390625 
Q 47.609375 24.75 44.3125 27.78125 
Q 41.015625 30.8125 33.5 32.328125 
L 27.484375 33.5 
Q 16.453125 35.6875 11.515625 40.375 
Q 6.59375 45.0625 6.59375 53.421875 
Q 6.59375 63.09375 13.40625 68.65625 
Q 20.21875 74.21875 32.171875 74.21875 
Q 37.3125 74.21875 42.625 73.28125 
Q 47.953125 72.359375 53.515625 70.515625 
z
" id="DejaVuSans-53"/>
      <path d="M 30.609375 48.390625 
Q 23.390625 48.390625 19.1875 42.75 
Q 14.984375 37.109375 14.984375 27.296875 
Q 14.984375 17.484375 19.15625 11.84375 
Q 23.34375 6.203125 30.609375 6.203125 
Q 37.796875 6.203125 41.984375 11.859375 
Q 46.1875 17.53125 46.1875 27.296875 
Q 46.1875 37.015625 41.984375 42.703125 
Q 37.796875 48.390625 30.609375 48.390625 
z
M 30.609375 56 
Q 42.328125 56 49.015625 48.375 
Q 55.71875 40.765625 55.71875 27.296875 
Q 55.71875 13.875 49.015625 6.21875 
Q 42.328125 -1.421875 30.609375 -1.421875 
Q 18.84375 -1.421875 12.171875 6.21875 
Q 5.515625 13.875 5.515625 27.296875 
Q 5.515625 40.765625 12.171875 48.375 
Q 18.84375 56 30.609375 56 
z
" id="DejaVuSans-6f"/>
      <path d="M 54.890625 33.015625 
L 54.890625 0 
L 45.90625 0 
L 45.90625 32.71875 
Q 45.90625 40.484375 42.875 44.328125 
Q 39.84375 48.1875 33.796875 48.1875 
Q 26.515625 48.1875 22.3125 43.546875 
Q 18.109375 38.921875 18.109375 30.90625 
L 18.109375 0 
L 9.078125 0 
L 9.078125 54.6875 
L 18.109375 54.6875 
L 18.109375 46.1875 
Q 21.34375 51.125 25.703125 53.5625 
Q 30.078125 56 35.796875 56 
Q 45.21875 56 50.046875 50.171875 
Q 54.890625 44.34375 54.890625 33.015625 
z
" id="DejaVuSans-6e"/>
      <path d="M 9.8125 72.90625 
L 51.703125 72.90625 
L 51.703125 64.59375 
L 19.671875 64.59375 
L 19.671875 43.109375 
L 48.578125 43.109375 
L 48.578125 34.8125 
L 19.671875 34.8125 
L 19.671875 0 
L 9.8125 0 
z
" id="DejaVuSans-46"/>
     </defs>
     <g transform="translate(83.965625 56.654688)scale(0.1 -0.1)">
      <use xlink:href="#DejaVuSans-53"/>
      <use x="63.476562" xlink:href="#DejaVuSans-74"/>
      <use x="102.685547" xlink:href="#DejaVuSans-61"/>
      <use x="163.964844" xlink:href="#DejaVuSans-72"/>
      <use x="205.078125" xlink:href="#DejaVuSans-74"/>
      <use x="244.287109" xlink:href="#DejaVuSans-20"/>
      <use x="276.074219" xlink:href="#DejaVuSans-50"/>
      <use x="336.330078" xlink:href="#DejaVuSans-6f"/>
      <use x="397.511719" xlink:href="#DejaVuSans-69"/>
      <use x="425.294922" xlink:href="#DejaVuSans-6e"/>
      <use x="488.673828" xlink:href="#DejaVuSans-74"/>
      <use x="527.882812" xlink:href="#DejaVuSans-20"/>
      <use x="559.669922" xlink:href="#DejaVuSans-66"/>
      <use x="594.875" xlink:href="#DejaVuSans-6f"/>
      <use x="656.056641" xlink:href="#DejaVuSans-72"/>
      <use x="697.169922" xlink:href="#DejaVuSans-20"/>
      <use x="728.957031" xlink:href="#DejaVuSans-46"/>
      <use x="786.429688" xlink:href="#DejaVuSans-6f"/>
      <use x="847.611328" xlink:href="#DejaVuSans-72"/>
      <use x="888.693359" xlink:href="#DejaVuSans-65"/>
      <use x="950.216797" xlink:href="#DejaVuSans-63"/>
      <use x="1005.197266" xlink:href="#DejaVuSans-61"/>
      <use x="1066.476562" xlink:href="#DejaVuSans-73"/>
      <use x="1118.576172" xlink:href="#DejaVuSans-74"/>
     </g>
    </g>
   </g>
  </g>
  <g id="axes_2">
   <g id="patch_8">
    <path d="M 46.965625 645.74 
L 1164.405625 645.74 
L 1164.405625 516.14 
L 46.965625 516.14 
z
" style="fill:none;"/>
   </g>
   <g id="matplotlib.axis_3">
    <g id="xtick_6">
     <g id="line2d_21">
      <g>
       <use style="stroke:#000000;stroke-width:0.8;" x="97.758352" xlink:href="#m2fec4a11cd" y="645.74"/>
      </g>
     </g>
     <g id="text_17">
      <!-- 0 -->
      <g transform="translate(94.577102 660.338437)scale(0.1 -0.1)">
       <use xlink:href="#DejaVuSans-30"/>
      </g>
     </g>
    </g>
    <g id="xtick_7">
     <g id="line2d_22">
      <g>
       <use style="stroke:#000000;stroke-width:0.8;" x="222.250331" xlink:href="#m2fec4a11cd" y="645.74"/>
      </g>
     </g>
     <g id="text_18">
      <!-- 25 -->
      <g transform="translate(215.887831 660.338437)scale(0.1 -0.1)">
       <use xlink:href="#DejaVuSans-32"/>
       <use x="63.623047" xlink:href="#DejaVuSans-35"/>
      </g>
     </g>
    </g>
    <g id="xtick_8">
     <g id="line2d_23">
      <g>
       <use style="stroke:#000000;stroke-width:0.8;" x="346.742309" xlink:href="#m2fec4a11cd" y="645.74"/>
      </g>
     </g>
     <g id="text_19">
      <!-- 50 -->
      <g transform="translate(340.379809 660.338437)scale(0.1 -0.1)">
       <use xlink:href="#DejaVuSans-35"/>
       <use x="63.623047" xlink:href="#DejaVuSans-30"/>
      </g>
     </g>
    </g>
    <g id="xtick_9">
     <g id="line2d_24">
      <g>
       <use style="stroke:#000000;stroke-width:0.8;" x="471.234288" xlink:href="#m2fec4a11cd" y="645.74"/>
      </g>
     </g>
     <g id="text_20">
      <!-- 75 -->
      <defs>
       <path d="M 8.203125 72.90625 
L 55.078125 72.90625 
L 55.078125 68.703125 
L 28.609375 0 
L 18.3125 0 
L 43.21875 64.59375 
L 8.203125 64.59375 
z
" id="DejaVuSans-37"/>
      </defs>
      <g transform="translate(464.871788 660.338437)scale(0.1 -0.1)">
       <use xlink:href="#DejaVuSans-37"/>
       <use x="63.623047" xlink:href="#DejaVuSans-35"/>
      </g>
     </g>
    </g>
    <g id="xtick_10">
     <g id="line2d_25">
      <g>
       <use style="stroke:#000000;stroke-width:0.8;" x="595.726267" xlink:href="#m2fec4a11cd" y="645.74"/>
      </g>
     </g>
     <g id="text_21">
      <!-- 100 -->
      <g transform="translate(586.182517 660.338437)scale(0.1 -0.1)">
       <use xlink:href="#DejaVuSans-31"/>
       <use x="63.623047" xlink:href="#DejaVuSans-30"/>
       <use x="127.246094" xlink:href="#DejaVuSans-30"/>
      </g>
     </g>
    </g>
    <g id="xtick_11">
     <g id="line2d_26">
      <g>
       <use style="stroke:#000000;stroke-width:0.8;" x="720.218245" xlink:href="#m2fec4a11cd" y="645.74"/>
      </g>
     </g>
     <g id="text_22">
      <!-- 125 -->
      <g transform="translate(710.674495 660.338437)scale(0.1 -0.1)">
       <use xlink:href="#DejaVuSans-31"/>
       <use x="63.623047" xlink:href="#DejaVuSans-32"/>
       <use x="127.246094" xlink:href="#DejaVuSans-35"/>
      </g>
     </g>
    </g>
    <g id="xtick_12">
     <g id="line2d_27">
      <g>
       <use style="stroke:#000000;stroke-width:0.8;" x="844.710224" xlink:href="#m2fec4a11cd" y="645.74"/>
      </g>
     </g>
     <g id="text_23">
      <!-- 150 -->
      <g transform="translate(835.166474 660.338437)scale(0.1 -0.1)">
       <use xlink:href="#DejaVuSans-31"/>
       <use x="63.623047" xlink:href="#DejaVuSans-35"/>
       <use x="127.246094" xlink:href="#DejaVuSans-30"/>
      </g>
     </g>
    </g>
    <g id="xtick_13">
     <g id="line2d_28">
      <g>
       <use style="stroke:#000000;stroke-width:0.8;" x="969.202203" xlink:href="#m2fec4a11cd" y="645.74"/>
      </g>
     </g>
     <g id="text_24">
      <!-- 175 -->
      <g transform="translate(959.658453 660.338437)scale(0.1 -0.1)">
       <use xlink:href="#DejaVuSans-31"/>
       <use x="63.623047" xlink:href="#DejaVuSans-37"/>
       <use x="127.246094" xlink:href="#DejaVuSans-35"/>
      </g>
     </g>
    </g>
    <g id="xtick_14">
     <g id="line2d_29">
      <g>
       <use style="stroke:#000000;stroke-width:0.8;" x="1093.694181" xlink:href="#m2fec4a11cd" y="645.74"/>
      </g>
     </g>
     <g id="text_25">
      <!-- 200 -->
      <g transform="translate(1084.150431 660.338437)scale(0.1 -0.1)">
       <use xlink:href="#DejaVuSans-32"/>
       <use x="63.623047" xlink:href="#DejaVuSans-30"/>
       <use x="127.246094" xlink:href="#DejaVuSans-30"/>
      </g>
     </g>
    </g>
   </g>
   <g id="matplotlib.axis_4">
    <g id="ytick_7">
     <g id="line2d_30">
      <g>
       <use style="stroke:#000000;stroke-width:0.8;" x="46.965625" xlink:href="#medd7479826" y="634.992501"/>
      </g>
     </g>
     <g id="text_26">
      <!-- 15 -->
      <g transform="translate(27.240625 638.79172)scale(0.1 -0.1)">
       <use xlink:href="#DejaVuSans-31"/>
       <use x="63.623047" xlink:href="#DejaVuSans-35"/>
      </g>
     </g>
    </g>
    <g id="ytick_8">
     <g id="line2d_31">
      <g>
       <use style="stroke:#000000;stroke-width:0.8;" x="46.965625" xlink:href="#medd7479826" y="610.188674"/>
      </g>
     </g>
     <g id="text_27">
      <!-- 20 -->
      <g transform="translate(27.240625 613.987892)scale(0.1 -0.1)">
       <use xlink:href="#DejaVuSans-32"/>
       <use x="63.623047" xlink:href="#DejaVuSans-30"/>
      </g>
     </g>
    </g>
    <g id="ytick_9">
     <g id="line2d_32">
      <g>
       <use style="stroke:#000000;stroke-width:0.8;" x="46.965625" xlink:href="#medd7479826" y="585.384846"/>
      </g>
     </g>
     <g id="text_28">
      <!-- 25 -->
      <g transform="translate(27.240625 589.184065)scale(0.1 -0.1)">
       <use xlink:href="#DejaVuSans-32"/>
       <use x="63.623047" xlink:href="#DejaVuSans-35"/>
      </g>
     </g>
    </g>
    <g id="ytick_10">
     <g id="line2d_33">
      <g>
       <use style="stroke:#000000;stroke-width:0.8;" x="46.965625" xlink:href="#medd7479826" y="560.581018"/>
      </g>
     </g>
     <g id="text_29">
      <!-- 30 -->
      <defs>
       <path d="M 40.578125 39.3125 
Q 47.65625 37.796875 51.625 33 
Q 55.609375 28.21875 55.609375 21.1875 
Q 55.609375 10.40625 48.1875 4.484375 
Q 40.765625 -1.421875 27.09375 -1.421875 
Q 22.515625 -1.421875 17.65625 -0.515625 
Q 12.796875 0.390625 7.625 2.203125 
L 7.625 11.71875 
Q 11.71875 9.328125 16.59375 8.109375 
Q 21.484375 6.890625 26.8125 6.890625 
Q 36.078125 6.890625 40.9375 10.546875 
Q 45.796875 14.203125 45.796875 21.1875 
Q 45.796875 27.640625 41.28125 31.265625 
Q 36.765625 34.90625 28.71875 34.90625 
L 20.21875 34.90625 
L 20.21875 43.015625 
L 29.109375 43.015625 
Q 36.375 43.015625 40.234375 45.921875 
Q 44.09375 48.828125 44.09375 54.296875 
Q 44.09375 59.90625 40.109375 62.90625 
Q 36.140625 65.921875 28.71875 65.921875 
Q 24.65625 65.921875 20.015625 65.03125 
Q 15.375 64.15625 9.8125 62.3125 
L 9.8125 71.09375 
Q 15.4375 72.65625 20.34375 73.4375 
Q 25.25 74.21875 29.59375 74.21875 
Q 40.828125 74.21875 47.359375 69.109375 
Q 53.90625 64.015625 53.90625 55.328125 
Q 53.90625 49.265625 50.4375 45.09375 
Q 46.96875 40.921875 40.578125 39.3125 
z
" id="DejaVuSans-33"/>
      </defs>
      <g transform="translate(27.240625 564.380237)scale(0.1 -0.1)">
       <use xlink:href="#DejaVuSans-33"/>
       <use x="63.623047" xlink:href="#DejaVuSans-30"/>
      </g>
     </g>
    </g>
    <g id="ytick_11">
     <g id="line2d_34">
      <g>
       <use style="stroke:#000000;stroke-width:0.8;" x="46.965625" xlink:href="#medd7479826" y="535.77719"/>
      </g>
     </g>
     <g id="text_30">
      <!-- 35 -->
      <g transform="translate(27.240625 539.576409)scale(0.1 -0.1)">
       <use xlink:href="#DejaVuSans-33"/>
       <use x="63.623047" xlink:href="#DejaVuSans-35"/>
      </g>
     </g>
    </g>
    <g id="text_31">
     <!-- Temperature -->
     <defs>
      <path d="M 18.109375 8.203125 
L 18.109375 -20.796875 
L 9.078125 -20.796875 
L 9.078125 54.6875 
L 18.109375 54.6875 
L 18.109375 46.390625 
Q 20.953125 51.265625 25.265625 53.625 
Q 29.59375 56 35.59375 56 
Q 45.5625 56 51.78125 48.09375 
Q 58.015625 40.1875 58.015625 27.296875 
Q 58.015625 14.40625 51.78125 6.484375 
Q 45.5625 -1.421875 35.59375 -1.421875 
Q 29.59375 -1.421875 25.265625 0.953125 
Q 20.953125 3.328125 18.109375 8.203125 
z
M 48.6875 27.296875 
Q 48.6875 37.203125 44.609375 42.84375 
Q 40.53125 48.484375 33.40625 48.484375 
Q 26.265625 48.484375 22.1875 42.84375 
Q 18.109375 37.203125 18.109375 27.296875 
Q 18.109375 17.390625 22.1875 11.75 
Q 26.265625 6.109375 33.40625 6.109375 
Q 40.53125 6.109375 44.609375 11.75 
Q 48.6875 17.390625 48.6875 27.296875 
z
" id="DejaVuSans-70"/>
     </defs>
     <g style="fill:#0000ff;" transform="translate(21.160938 613.557187)rotate(-90)scale(0.1 -0.1)">
      <use xlink:href="#DejaVuSans-54"/>
      <use x="60.818359" xlink:href="#DejaVuSans-65"/>
      <use x="122.341797" xlink:href="#DejaVuSans-6d"/>
      <use x="219.753906" xlink:href="#DejaVuSans-70"/>
      <use x="283.230469" xlink:href="#DejaVuSans-65"/>
      <use x="344.753906" xlink:href="#DejaVuSans-72"/>
      <use x="385.867188" xlink:href="#DejaVuSans-61"/>
      <use x="447.146484" xlink:href="#DejaVuSans-74"/>
      <use x="486.355469" xlink:href="#DejaVuSans-75"/>
      <use x="549.734375" xlink:href="#DejaVuSans-72"/>
      <use x="590.816406" xlink:href="#DejaVuSans-65"/>
     </g>
    </g>
   </g>
   <g id="line2d_35">
    <path clip-path="url(#pe085898f27)" d="M 97.758352 562.636263 
L 102.738031 565.627605 
L 107.717711 563.032629 
L 112.69739 554.351289 
L 117.677069 537.26542 
L 122.656748 540.50232 
L 127.636427 538.659395 
L 132.616106 537.882043 
L 137.595785 528.091972 
L 142.575465 533.518554 
L 147.555144 540.250313 
L 152.534823 553.965837 
L 157.514502 562.510756 
L 162.494181 565.541784 
L 167.47386 560.189118 
L 172.453539 551.400129 
L 177.433219 538.670805 
L 182.412898 540.44031 
L 187.392577 540.447751 
L 192.372256 531.878029 
L 197.351935 524.878389 
L 202.331614 535.800506 
L 207.311293 541.700344 
L 212.290973 554.066541 
L 217.270652 561.152994 
L 222.250331 569.125937 
L 227.23001 560.995242 
L 232.209689 546.96967 
L 237.189368 537.196962 
L 242.169047 535.047958 
L 247.148727 545.568253 
L 252.128406 530.442879 
L 257.108085 528.174817 
L 262.087764 536.427051 
L 267.067443 540.432869 
L 272.047122 550.924392 
L 277.026801 562.260237 
L 282.006481 562.630807 
L 286.98616 569.401259 
L 291.965839 551.39368 
L 296.945518 536.160162 
L 301.925197 538.160342 
L 306.904876 539.442204 
L 311.884555 528.214503 
L 316.864235 526.213827 
L 321.843914 537.360667 
L 326.823593 540.156058 
L 331.803272 555.229344 
L 336.782951 561.349937 
L 341.76263 563.943425 
L 346.742309 562.848088 
L 351.721989 558.026224 
L 356.701668 540.073213 
L 361.681347 539.513639 
L 366.661026 540.766728 
L 371.640705 532.80718 
L 376.620384 529.152088 
L 381.600064 535.236467 
L 386.579743 548.189026 
L 391.559422 556.863917 
L 396.539101 562.652138 
L 401.51878 564.281749 
L 406.498459 556.939816 
L 411.478138 547.672114 
L 416.457818 541.022208 
L 421.437497 536.241022 
L 426.417176 544.639598 
L 431.396855 527.101804 
L 436.376534 527.598376 
L 441.356213 529.843123 
L 451.315572 554.623139 
L 456.295251 563.576328 
L 461.27493 564.786259 
L 466.254609 556.402565 
L 471.234288 546.741474 
L 476.213967 534.457627 
L 481.193646 534.235384 
L 486.173326 536.538668 
L 491.153005 526.785803 
L 496.132684 529.515712 
L 501.112363 525.223162 
L 506.092042 542.816517 
L 511.071721 547.918664 
L 516.0514 555.002637 
L 521.03108 561.771602 
L 526.010759 558.585798 
L 530.990438 547.36157 
L 535.970117 536.936521 
L 540.949796 535.718653 
L 545.929475 539.330587 
L 550.909154 526.826481 
L 555.888834 524.718156 
L 565.848192 543.524914 
L 570.827871 553.748556 
L 575.80755 559.588865 
L 580.787229 563.778232 
L 585.766908 558.688486 
L 590.746588 547.225149 
L 595.726267 539.28594 
L 600.705946 536.69146 
L 605.685625 542.522839 
L 610.665304 529.003265 
L 615.644983 524.875908 
L 620.624662 532.527889 
L 625.604342 542.570959 
L 630.584021 551.500337 
L 635.5637 559.891472 
L 640.543379 560.755637 
L 645.523058 556.90906 
L 650.502737 546.60803 
L 655.482416 534.301363 
L 660.462096 534.989421 
L 665.441775 537.06947 
L 670.421454 526.073933 
L 675.401133 524.761811 
L 680.380812 535.428945 
L 685.360491 540.494878 
L 695.31985 559.903874 
L 700.299529 562.97558 
L 705.279208 557.217619 
L 710.258887 550.938778 
L 715.238566 541.457267 
L 720.218245 532.514495 
L 725.197924 530.782692 
L 730.177604 522.030909 
L 735.157283 524.209677 
L 740.136962 529.571273 
L 745.116641 542.20535 
L 750.09632 549.968452 
L 755.075999 560.376635 
L 760.055678 562.781118 
L 765.035358 559.390434 
L 770.015037 550.993347 
L 774.994716 539.147038 
L 779.974395 537.182575 
L 784.954074 538.815659 
L 789.933753 532.615695 
L 794.913432 527.070055 
L 799.893112 530.231055 
L 804.872791 541.222623 
L 809.85247 548.894943 
L 814.832149 558.543632 
L 819.811828 563.025683 
L 824.791507 557.486989 
L 829.771186 549.002591 
L 834.750866 535.89228 
L 839.730545 537.114117 
L 844.710224 540.301409 
L 849.689903 531.41767 
L 854.669582 527.14397 
L 859.649261 535.223073 
L 864.628941 546.910637 
L 869.60862 555.113262 
L 874.588299 564.469266 
L 879.567978 564.938059 
L 884.547657 558.714778 
L 889.527336 550.171844 
L 894.507015 538.362741 
L 899.486695 537.115109 
L 904.466374 534.601489 
L 909.446053 528.597971 
L 914.425732 527.668819 
L 919.405411 536.130397 
L 924.38509 543.801229 
L 929.364769 552.240483 
L 934.344449 559.912803 
L 939.324128 565.407843 
L 944.303807 557.903197 
L 949.283486 548.999119 
L 954.263165 536.416137 
L 959.242844 537.847318 
L 964.222523 535.715181 
L 969.202203 529.732498 
L 974.181882 528.606404 
L 979.161561 534.473997 
L 984.14124 543.509536 
L 989.120919 550.474947 
L 994.100598 566.786936 
L 999.080277 565.599825 
L 1004.059957 561.089497 
L 1009.039636 550.506696 
L 1014.019315 541.034114 
L 1018.998994 537.480221 
L 1023.978673 539.958124 
L 1028.958352 527.916857 
L 1033.938031 528.868332 
L 1038.917711 529.205664 
L 1043.89739 535.865492 
L 1048.877069 549.57556 
L 1053.856748 557.355032 
L 1058.836427 561.947709 
L 1063.816106 557.657639 
L 1068.795785 548.836406 
L 1073.775465 538.505611 
L 1078.755144 542.501508 
L 1083.734823 538.096348 
L 1088.714502 528.100406 
L 1093.694181 527.642527 
L 1098.67386 533.971472 
L 1103.653539 540.920512 
L 1108.633219 554.465882 
L 1113.612898 560.172747 
L 1113.612898 560.172747 
" style="fill:none;stroke:#ff0000;stroke-linecap:square;stroke-width:1.5;"/>
   </g>
   <g id="line2d_36">
    <path clip-path="url(#pe085898f27)" d="M 97.758352 580.905275 
L 102.738031 583.513645 
L 107.717711 582.341416 
L 112.69739 577.639603 
L 117.677069 570.304119 
L 122.656748 573.845113 
L 127.636427 568.787613 
L 132.616106 570.483698 
L 137.595785 558.549585 
L 142.575465 559.608708 
L 147.555144 564.66224 
L 152.534823 575.310523 
L 157.514502 581.515449 
L 162.494181 584.491908 
L 172.453539 575.298121 
L 177.433219 570.242109 
L 182.412898 575.860176 
L 187.392577 575.983203 
L 192.372256 568.357018 
L 197.351935 559.74761 
L 202.331614 562.838167 
L 207.311293 566.118721 
L 212.290973 577.940225 
L 217.270652 582.011525 
L 222.250331 586.829421 
L 227.23001 583.961106 
L 232.209689 576.213879 
L 237.189368 571.602351 
L 242.169047 571.35084 
L 247.148727 578.091032 
L 252.128406 566.375192 
L 257.108085 559.849305 
L 262.087764 563.970709 
L 267.067443 567.639195 
L 272.047122 576.164271 
L 277.026801 580.517343 
L 282.006481 584.084133 
L 286.98616 581.815575 
L 291.965839 579.415557 
L 296.945518 571.843444 
L 301.925197 574.681002 
L 306.904876 572.597481 
L 311.884555 561.416907 
L 316.864235 558.961328 
L 321.843914 565.604785 
L 326.823593 566.572631 
L 331.803272 577.701612 
L 336.782951 583.165896 
L 341.76263 584.270162 
L 346.742309 581.720328 
L 351.721989 574.05793 
L 356.701668 572.419885 
L 361.681347 574.712751 
L 366.661026 572.861393 
L 371.640705 566.468455 
L 376.620384 561.423356 
L 381.600064 563.990552 
L 386.579743 571.59739 
L 391.559422 578.367843 
L 396.539101 584.041967 
L 401.51878 584.801956 
L 406.498459 580.765381 
L 411.478138 575.529293 
L 416.457818 572.467012 
L 421.437497 571.729347 
L 426.417176 577.32509 
L 431.396855 559.562573 
L 436.376534 558.349666 
L 441.356213 559.616149 
L 446.335892 568.705264 
L 451.315572 577.116738 
L 456.295251 582.547288 
L 461.27493 585.659176 
L 466.254609 580.555541 
L 471.234288 576.556171 
L 476.213967 570.572992 
L 481.193646 571.239223 
L 486.173326 568.969673 
L 491.153005 562.28008 
L 496.132684 560.113714 
L 501.112363 558.160165 
L 506.092042 571.302225 
L 511.071721 573.484962 
L 516.0514 578.170901 
L 521.03108 584.789554 
L 526.010759 582.364732 
L 530.990438 575.444464 
L 535.970117 574.226596 
L 540.949796 575.428589 
L 545.929475 578.615881 
L 550.909154 564.022301 
L 555.888834 558.215725 
L 560.868513 562.962186 
L 565.848192 568.861528 
L 570.827871 578.635724 
L 575.80755 581.304616 
L 580.787229 584.455695 
L 585.766908 581.524378 
L 590.746588 575.94947 
L 595.726267 574.325811 
L 600.705946 573.897201 
L 605.685625 582.118182 
L 610.665304 566.712524 
L 615.644983 560.161833 
L 620.624662 561.596487 
L 625.604342 570.270385 
L 630.584021 576.625622 
L 635.5637 582.323061 
L 640.543379 585.628916 
L 645.523058 580.911228 
L 650.502737 575.421148 
L 655.482416 572.028977 
L 660.462096 571.709007 
L 665.441775 574.070828 
L 670.421454 562.46214 
L 675.401133 559.315031 
L 680.380812 564.235614 
L 685.360491 567.355936 
L 690.34017 574.609071 
L 695.31985 580.982167 
L 700.299529 583.665941 
L 705.279208 580.803579 
L 710.258887 576.4009 
L 715.238566 574.772776 
L 720.218245 568.871946 
L 725.197924 569.238546 
L 730.177604 558.739582 
L 735.157283 556.276066 
L 740.136962 558.661202 
L 745.116641 566.495739 
L 750.09632 573.883311 
L 755.075999 580.753971 
L 760.055678 582.81765 
L 765.035358 581.493125 
L 770.015037 577.410415 
L 774.994716 572.098428 
L 779.974395 572.667427 
L 784.954074 576.298212 
L 789.933753 565.890029 
L 794.913432 559.375552 
L 799.893112 561.000203 
L 804.872791 567.262177 
L 809.85247 574.204769 
L 814.832149 580.100638 
L 819.811828 583.892648 
L 824.791507 581.367618 
L 829.771186 575.201386 
L 834.750866 571.507104 
L 839.730545 575.179559 
L 844.710224 575.273814 
L 849.689903 563.682489 
L 854.669582 559.532808 
L 859.649261 563.865045 
L 864.628941 572.0007 
L 869.60862 577.937745 
L 874.588299 584.091574 
L 879.567978 586.027265 
L 884.547657 582.399457 
L 889.527336 576.802722 
L 894.507015 569.426063 
L 899.486695 573.715637 
L 904.466374 573.430393 
L 909.446053 562.14862 
L 914.425732 558.494024 
L 919.405411 563.001872 
L 939.324128 585.537141 
L 944.303807 579.630358 
L 949.283486 574.876456 
L 954.263165 569.965794 
L 959.242844 572.474454 
L 964.222523 569.574886 
L 969.202203 564.213787 
L 974.181882 559.716853 
L 979.161561 561.583093 
L 984.14124 569.211262 
L 989.120919 572.845023 
L 994.100598 579.054909 
L 999.080277 584.696292 
L 1004.059957 580.184971 
L 1009.039636 576.050173 
L 1014.019315 573.258255 
L 1018.998994 573.886784 
L 1023.978673 579.107989 
L 1028.958352 560.212929 
L 1033.938031 559.600275 
L 1038.917711 557.811423 
L 1043.89739 562.144651 
L 1048.877069 573.487442 
L 1058.836427 581.193991 
L 1063.816106 577.647044 
L 1068.795785 574.953844 
L 1073.775465 571.590445 
L 1078.755144 580.653268 
L 1083.734823 574.926064 
L 1088.714502 563.742514 
L 1093.694181 558.890389 
L 1098.67386 561.409466 
L 1103.653539 566.34394 
L 1108.633219 576.452988 
L 1113.612898 580.712797 
L 1113.612898 580.712797 
" style="fill:none;stroke:#008000;stroke-linecap:square;stroke-width:1.5;"/>
   </g>
   <g id="line2d_37">
    <path clip-path="url(#pe085898f27)" d="M 97.758352 598.978832 
L 102.738031 599.690206 
L 107.717711 600.734447 
L 112.69739 600.589592 
L 122.656748 606.562354 
L 127.636427 598.667296 
L 132.616106 602.687004 
L 137.595785 588.608351 
L 142.575465 585.244952 
L 147.555144 588.96255 
L 152.534823 595.523162 
L 162.494181 603.442033 
L 167.47386 598.459936 
L 172.453539 598.339885 
L 177.433219 601.939913 
L 182.412898 606.914568 
L 187.392577 606.211132 
L 192.372256 596.969722 
L 197.351935 588.448119 
L 202.331614 587.114665 
L 207.311293 588.512609 
L 212.290973 596.471165 
L 217.270652 597.696474 
L 222.250331 599.655976 
L 227.23001 600.421918 
L 232.209689 597.928142 
L 237.189368 600.097484 
L 242.169047 599.19909 
L 247.148727 605.648085 
L 252.128406 596.651737 
L 257.108085 585.6815 
L 262.087764 585.523747 
L 267.067443 589.836141 
L 272.047122 596.73607 
L 277.026801 593.344394 
L 282.006481 599.518067 
L 286.98616 590.102534 
L 291.965839 600.226464 
L 296.945518 600.087563 
L 301.925197 608.051576 
L 306.904876 602.290143 
L 311.884555 590.090132 
L 316.864235 586.934093 
L 321.843914 588.386109 
L 326.823593 586.757986 
L 331.803272 595.914071 
L 336.782951 598.232237 
L 341.76263 599.143033 
L 346.742309 587.93964 
L 351.721989 586.749056 
L 356.701668 596.302499 
L 361.681347 605.093967 
L 366.661026 602.035656 
L 371.640705 595.301416 
L 376.620384 587.927238 
L 381.600064 586.281752 
L 391.559422 597.303085 
L 396.539101 599.514098 
L 401.51878 599.013061 
L 406.498459 599.961063 
L 411.478138 597.030243 
L 416.457818 596.193362 
L 421.437497 602.318419 
L 426.417176 611.045894 
L 431.396855 586.5159 
L 436.376534 583.961106 
L 441.356213 581.910326 
L 446.335892 589.421917 
L 451.315572 594.40451 
L 456.295251 598.13699 
L 461.27493 600.525102 
L 466.254609 596.937477 
L 471.234288 597.909291 
L 476.213967 601.925527 
L 481.193646 602.157194 
L 491.153005 590.609524 
L 496.132684 587.157327 
L 501.112363 583.265111 
L 506.092042 593.318598 
L 516.0514 594.60294 
L 521.03108 599.47342 
L 526.010759 598.758078 
L 530.990438 595.79154 
L 535.970117 604.90149 
L 540.949796 607.980141 
L 545.929475 611.226466 
L 550.909154 593.840471 
L 555.888834 586.876548 
L 560.868513 585.708784 
L 565.848192 589.972562 
L 570.827871 595.731515 
L 580.787229 598.944106 
L 585.766908 598.324011 
L 590.746588 596.76385 
L 595.726267 596.327303 
L 600.705946 603.359188 
L 605.685625 613.863609 
L 610.665304 597.394859 
L 615.644983 588.005618 
L 620.624662 588.451591 
L 625.604342 592.768945 
L 630.584021 597.505484 
L 635.5637 599.167341 
L 640.543379 598.693092 
L 650.502737 597.090764 
L 655.482416 602.257402 
L 660.462096 600.940815 
L 665.441775 604.356302 
L 670.421454 591.315441 
L 675.401133 585.533669 
L 680.380812 588.387101 
L 685.360491 589.295417 
L 690.34017 594.072139 
L 695.31985 597.601723 
L 700.299529 597.713837 
L 705.279208 598.220827 
L 710.258887 595.717128 
L 715.238566 601.617463 
L 720.218245 602.472203 
L 725.197924 601.853595 
L 730.177604 589.230431 
L 735.157283 581.590852 
L 740.136962 582.627652 
L 745.116641 587.40487 
L 750.09632 591.403743 
L 755.075999 596.537639 
L 760.055678 597.91822 
L 765.035358 597.527808 
L 770.015037 596.277199 
L 774.994716 598.834473 
L 779.974395 606.323245 
L 784.954074 607.727142 
L 789.933753 594.248742 
L 794.913432 584.984512 
L 799.893112 586.457363 
L 804.872791 589.358419 
L 809.85247 593.113719 
L 814.832149 596.355579 
L 819.811828 598.756589 
L 824.791507 597.085804 
L 829.771186 597.635456 
L 834.750866 602.234086 
L 839.730545 609.527404 
L 844.710224 605.463048 
L 849.689903 593.724885 
L 854.669582 585.483069 
L 859.649261 586.666212 
L 864.628941 593.219383 
L 869.60862 596.520772 
L 874.588299 599.039353 
L 879.567978 600.203645 
L 884.547657 598.673745 
L 889.527336 596.185425 
L 894.507015 597.068441 
L 899.486695 604.753163 
L 904.466374 606.494392 
L 909.446053 596.066862 
L 914.425732 582.783917 
L 919.405411 587.411319 
L 924.38509 590.680463 
L 929.364769 594.164409 
L 934.344449 596.917634 
L 939.324128 602.945956 
L 944.303807 596.971706 
L 949.283486 596.418581 
L 954.263165 598.613719 
L 959.242844 606.573764 
L 964.222523 600.792984 
L 969.202203 595.813863 
L 974.181882 587.797266 
L 979.161561 583.957634 
L 984.14124 588.401984 
L 989.120919 593.685199 
L 994.100598 587.458446 
L 999.080277 600.158998 
L 1004.059957 601.995969 
L 1009.039636 596.899775 
L 1014.019315 597.913259 
L 1018.998994 607.432968 
L 1023.978673 613.354634 
L 1028.958352 591.772824 
L 1033.938031 587.99272 
L 1038.917711 583.962098 
L 1043.89739 585.798078 
L 1048.877069 592.327437 
L 1058.836427 597.438018 
L 1063.816106 596.584766 
L 1068.795785 594.589546 
L 1073.775465 600.726013 
L 1078.755144 615.045263 
L 1083.734823 607.587744 
L 1088.714502 595.366898 
L 1093.694181 584.274627 
L 1098.67386 584.094055 
L 1103.653539 588.500207 
L 1108.633219 593.890078 
L 1113.612898 595.096537 
L 1113.612898 595.096537 
" style="fill:none;stroke:#0000ff;stroke-linecap:square;stroke-width:1.5;"/>
   </g>
   <g id="line2d_38">
    <defs>
     <path d="M 0 3 
C 0.795609 3 1.55874 2.683901 2.12132 2.12132 
C 2.683901 1.55874 3 0.795609 3 0 
C 3 -0.795609 2.683901 -1.55874 2.12132 -2.12132 
C 1.55874 -2.683901 0.795609 -3 0 -3 
C -0.795609 -3 -1.55874 -2.683901 -2.12132 -2.12132 
C -2.683901 -1.55874 -3 -0.795609 -3 0 
C -3 0.795609 -2.683901 1.55874 -2.12132 2.12132 
C -1.55874 2.683901 -0.795609 3 0 3 
z
" id="me75c38b5db" style="stroke:#ff0000;"/>
    </defs>
    <g clip-path="url(#pe085898f27)">
     <use style="fill:#ff0000;stroke:#ff0000;" x="97.758352" xlink:href="#me75c38b5db" y="639.849091"/>
     <use style="fill:#ff0000;stroke:#ff0000;" x="575.80755" xlink:href="#me75c38b5db" y="639.849091"/>
     <use style="fill:#ff0000;stroke:#ff0000;" x="580.787229" xlink:href="#me75c38b5db" y="639.849091"/>
     <use style="fill:#ff0000;stroke:#ff0000;" x="585.766908" xlink:href="#me75c38b5db" y="639.849091"/>
     <use style="fill:#ff0000;stroke:#ff0000;" x="635.5637" xlink:href="#me75c38b5db" y="639.849091"/>
     <use style="fill:#ff0000;stroke:#ff0000;" x="685.360491" xlink:href="#me75c38b5db" y="639.849091"/>
     <use style="fill:#ff0000;stroke:#ff0000;" x="690.34017" xlink:href="#me75c38b5db" y="639.849091"/>
     <use style="fill:#ff0000;stroke:#ff0000;" x="695.31985" xlink:href="#me75c38b5db" y="639.849091"/>
     <use style="fill:#ff0000;stroke:#ff0000;" x="700.299529" xlink:href="#me75c38b5db" y="639.849091"/>
     <use style="fill:#ff0000;stroke:#ff0000;" x="755.075999" xlink:href="#me75c38b5db" y="639.849091"/>
     <use style="fill:#ff0000;stroke:#ff0000;" x="760.055678" xlink:href="#me75c38b5db" y="639.849091"/>
     <use style="fill:#ff0000;stroke:#ff0000;" x="765.035358" xlink:href="#me75c38b5db" y="639.849091"/>
     <use style="fill:#ff0000;stroke:#ff0000;" x="770.015037" xlink:href="#me75c38b5db" y="639.849091"/>
     <use style="fill:#ff0000;stroke:#ff0000;" x="774.994716" xlink:href="#me75c38b5db" y="639.849091"/>
     <use style="fill:#ff0000;stroke:#ff0000;" x="809.85247" xlink:href="#me75c38b5db" y="639.849091"/>
     <use style="fill:#ff0000;stroke:#ff0000;" x="814.832149" xlink:href="#me75c38b5db" y="639.849091"/>
     <use style="fill:#ff0000;stroke:#ff0000;" x="884.547657" xlink:href="#me75c38b5db" y="639.849091"/>
     <use style="fill:#ff0000;stroke:#ff0000;" x="889.527336" xlink:href="#me75c38b5db" y="639.849091"/>
     <use style="fill:#ff0000;stroke:#ff0000;" x="904.466374" xlink:href="#me75c38b5db" y="639.849091"/>
     <use style="fill:#ff0000;stroke:#ff0000;" x="944.303807" xlink:href="#me75c38b5db" y="639.849091"/>
    </g>
   </g>
   <g id="patch_9">
    <path d="M 46.965625 645.74 
L 46.965625 516.14 
" style="fill:none;stroke:#000000;stroke-linecap:square;stroke-linejoin:miter;stroke-width:0.8;"/>
   </g>
   <g id="patch_10">
    <path d="M 1164.405625 645.74 
L 1164.405625 516.14 
" style="fill:none;stroke:#000000;stroke-linecap:square;stroke-linejoin:miter;stroke-width:0.8;"/>
   </g>
   <g id="patch_11">
    <path d="M 46.965625 645.74 
L 1164.405625 645.74 
" style="fill:none;stroke:#000000;stroke-linecap:square;stroke-linejoin:miter;stroke-width:0.8;"/>
   </g>
   <g id="patch_12">
    <path d="M 46.965625 516.14 
L 1164.405625 516.14 
" style="fill:none;stroke:#000000;stroke-linecap:square;stroke-linejoin:miter;stroke-width:0.8;"/>
   </g>
   <g id="legend_2">
    <g id="patch_13">
     <path d="M 53.965625 582.8525 
L 144.978125 582.8525 
Q 146.978125 582.8525 146.978125 580.8525 
L 146.978125 523.14 
Q 146.978125 521.14 144.978125 521.14 
L 53.965625 521.14 
Q 51.965625 521.14 51.965625 523.14 
L 51.965625 580.8525 
Q 51.965625 582.8525 53.965625 582.8525 
z
" style="fill:#ffffff;opacity:0.8;stroke:#cccccc;stroke-linejoin:miter;"/>
    </g>
    <g id="line2d_39">
     <path d="M 55.965625 529.238437 
L 75.965625 529.238437 
" style="fill:none;stroke:#ff0000;stroke-linecap:square;stroke-width:1.5;"/>
    </g>
    <g id="line2d_40"/>
    <g id="text_32">
     <!-- Maxmimum -->
     <defs>
      <path d="M 9.8125 72.90625 
L 24.515625 72.90625 
L 43.109375 23.296875 
L 61.8125 72.90625 
L 76.515625 72.90625 
L 76.515625 0 
L 66.890625 0 
L 66.890625 64.015625 
L 48.09375 14.015625 
L 38.1875 14.015625 
L 19.390625 64.015625 
L 19.390625 0 
L 9.8125 0 
z
" id="DejaVuSans-4d"/>
      <path d="M 54.890625 54.6875 
L 35.109375 28.078125 
L 55.90625 0 
L 45.3125 0 
L 29.390625 21.484375 
L 13.484375 0 
L 2.875 0 
L 24.125 28.609375 
L 4.6875 54.6875 
L 15.28125 54.6875 
L 29.78125 35.203125 
L 44.28125 54.6875 
z
" id="DejaVuSans-78"/>
     </defs>
     <g transform="translate(83.965625 532.738437)scale(0.1 -0.1)">
      <use xlink:href="#DejaVuSans-4d"/>
      <use x="86.279297" xlink:href="#DejaVuSans-61"/>
      <use x="147.558594" xlink:href="#DejaVuSans-78"/>
      <use x="206.738281" xlink:href="#DejaVuSans-6d"/>
      <use x="304.150391" xlink:href="#DejaVuSans-69"/>
      <use x="331.933594" xlink:href="#DejaVuSans-6d"/>
      <use x="429.345703" xlink:href="#DejaVuSans-75"/>
      <use x="492.724609" xlink:href="#DejaVuSans-6d"/>
     </g>
    </g>
    <g id="line2d_41">
     <path d="M 55.965625 543.916562 
L 75.965625 543.916562 
" style="fill:none;stroke:#008000;stroke-linecap:square;stroke-width:1.5;"/>
    </g>
    <g id="line2d_42"/>
    <g id="text_33">
     <!-- Average -->
     <defs>
      <path d="M 34.1875 63.1875 
L 20.796875 26.90625 
L 47.609375 26.90625 
z
M 28.609375 72.90625 
L 39.796875 72.90625 
L 67.578125 0 
L 57.328125 0 
L 50.6875 18.703125 
L 17.828125 18.703125 
L 11.1875 0 
L 0.78125 0 
z
" id="DejaVuSans-41"/>
      <path d="M 2.984375 54.6875 
L 12.5 54.6875 
L 29.59375 8.796875 
L 46.6875 54.6875 
L 56.203125 54.6875 
L 35.6875 0 
L 23.484375 0 
z
" id="DejaVuSans-76"/>
     </defs>
     <g transform="translate(83.965625 547.416562)scale(0.1 -0.1)">
      <use xlink:href="#DejaVuSans-41"/>
      <use x="68.330078" xlink:href="#DejaVuSans-76"/>
      <use x="127.509766" xlink:href="#DejaVuSans-65"/>
      <use x="189.033203" xlink:href="#DejaVuSans-72"/>
      <use x="230.146484" xlink:href="#DejaVuSans-61"/>
      <use x="291.425781" xlink:href="#DejaVuSans-67"/>
      <use x="354.902344" xlink:href="#DejaVuSans-65"/>
     </g>
    </g>
    <g id="line2d_43">
     <path d="M 55.965625 558.594687 
L 75.965625 558.594687 
" style="fill:none;stroke:#0000ff;stroke-linecap:square;stroke-width:1.5;"/>
    </g>
    <g id="line2d_44"/>
    <g id="text_34">
     <!-- Minimum -->
     <g transform="translate(83.965625 562.094687)scale(0.1 -0.1)">
      <use xlink:href="#DejaVuSans-4d"/>
      <use x="86.279297" xlink:href="#DejaVuSans-69"/>
      <use x="114.0625" xlink:href="#DejaVuSans-6e"/>
      <use x="177.441406" xlink:href="#DejaVuSans-69"/>
      <use x="205.224609" xlink:href="#DejaVuSans-6d"/>
      <use x="302.636719" xlink:href="#DejaVuSans-75"/>
      <use x="366.015625" xlink:href="#DejaVuSans-6d"/>
     </g>
    </g>
    <g id="line2d_45"/>
    <g id="line2d_46">
     <g>
      <use style="fill:#ff0000;stroke:#ff0000;" x="65.965625" xlink:href="#me75c38b5db" y="573.272812"/>
     </g>
    </g>
    <g id="text_35">
     <!-- Disasters -->
     <g transform="translate(83.965625 576.772812)scale(0.1 -0.1)">
      <use xlink:href="#DejaVuSans-44"/>
      <use x="77.001953" xlink:href="#DejaVuSans-69"/>
      <use x="104.785156" xlink:href="#DejaVuSans-73"/>
      <use x="156.884766" xlink:href="#DejaVuSans-61"/>
      <use x="218.164062" xlink:href="#DejaVuSans-73"/>
      <use x="270.263672" xlink:href="#DejaVuSans-74"/>
      <use x="309.472656" xlink:href="#DejaVuSans-65"/>
      <use x="370.996094" xlink:href="#DejaVuSans-72"/>
      <use x="412.109375" xlink:href="#DejaVuSans-73"/>
     </g>
    </g>
   </g>
  </g>
 </g>
 <defs>
  <clipPath id="p55e1b3a513">
   <rect height="498.96" width="1116" x="46.965625" y="10.7"/>
  </clipPath>
  <clipPath id="pe085898f27">
   <rect height="129.6" width="1117.44" x="46.965625" y="516.14"/>
  </clipPath>
 </defs>
</svg>
