<?xml version="1.0" encoding="utf-8" standalone="no"?>
<!DOCTYPE svg PUBLIC "-//W3C//DTD SVG 1.1//EN"
  "http://www.w3.org/Graphics/SVG/1.1/DTD/svg11.dtd">
<!-- Created with matplotlib (http://matplotlib.org/) -->
<svg height="669pt" version="1.1" viewBox="0 0 1168 669" width="1168pt" xmlns="http://www.w3.org/2000/svg" xmlns:xlink="http://www.w3.org/1999/xlink">
 <defs>
  <style type="text/css">
*{stroke-linecap:butt;stroke-linejoin:round;}
  </style>
 </defs>
 <g id="figure_1">
  <g id="patch_1">
   <path d="M 0 669.618125 
L 1168.743125 669.618125 
L 1168.743125 -0 
L 0 -0 
z
" style="fill:none;"/>
  </g>
  <g id="axes_1">
   <g id="patch_2">
    <path d="M 40.603125 509.66 
L 1156.603125 509.66 
L 1156.603125 10.7 
L 40.603125 10.7 
z
" style="fill:none;"/>
   </g>
   <g id="matplotlib.axis_1">
    <g id="xtick_1">
     <g id="line2d_1">
      <defs>
       <path d="M 0 0 
L 0 3.5 
" id="maac45a73ca" style="stroke:#000000;stroke-width:0.8;"/>
      </defs>
      <g>
       <use style="stroke:#000000;stroke-width:0.8;" x="91.330398" xlink:href="#maac45a73ca" y="509.66"/>
      </g>
     </g>
     <g id="text_1">
      <!-- 0 -->
      <defs>
       <path d="M 31.78125 66.40625 
Q 24.171875 66.40625 20.328125 58.90625 
Q 16.5 51.421875 16.5 36.375 
Q 16.5 21.390625 20.328125 13.890625 
Q 24.171875 6.390625 31.78125 6.390625 
Q 39.453125 6.390625 43.28125 13.890625 
Q 47.125 21.390625 47.125 36.375 
Q 47.125 51.421875 43.28125 58.90625 
Q 39.453125 66.40625 31.78125 66.40625 
z
M 31.78125 74.21875 
Q 44.046875 74.21875 50.515625 64.515625 
Q 56.984375 54.828125 56.984375 36.375 
Q 56.984375 17.96875 50.515625 8.265625 
Q 44.046875 -1.421875 31.78125 -1.421875 
Q 19.53125 -1.421875 13.0625 8.265625 
Q 6.59375 17.96875 6.59375 36.375 
Q 6.59375 54.828125 13.0625 64.515625 
Q 19.53125 74.21875 31.78125 74.21875 
z
" id="DejaVuSans-30"/>
      </defs>
      <g transform="translate(88.149148 524.258437)scale(0.1 -0.1)">
       <use xlink:href="#DejaVuSans-30"/>
      </g>
     </g>
    </g>
    <g id="xtick_2">
     <g id="line2d_2">
      <g>
       <use style="stroke:#000000;stroke-width:0.8;" x="334.044621" xlink:href="#maac45a73ca" y="509.66"/>
      </g>
     </g>
     <g id="text_2">
      <!-- 50 -->
      <defs>
       <path d="M 10.796875 72.90625 
L 49.515625 72.90625 
L 49.515625 64.59375 
L 19.828125 64.59375 
L 19.828125 46.734375 
Q 21.96875 47.46875 24.109375 47.828125 
Q 26.265625 48.1875 28.421875 48.1875 
Q 40.625 48.1875 47.75 41.5 
Q 54.890625 34.8125 54.890625 23.390625 
Q 54.890625 11.625 47.5625 5.09375 
Q 40.234375 -1.421875 26.90625 -1.421875 
Q 22.3125 -1.421875 17.546875 -0.640625 
Q 12.796875 0.140625 7.71875 1.703125 
L 7.71875 11.625 
Q 12.109375 9.234375 16.796875 8.0625 
Q 21.484375 6.890625 26.703125 6.890625 
Q 35.15625 6.890625 40.078125 11.328125 
Q 45.015625 15.765625 45.015625 23.390625 
Q 45.015625 31 40.078125 35.4375 
Q 35.15625 39.890625 26.703125 39.890625 
Q 22.75 39.890625 18.8125 39.015625 
Q 14.890625 38.140625 10.796875 36.28125 
z
" id="DejaVuSans-35"/>
      </defs>
      <g transform="translate(327.682121 524.258437)scale(0.1 -0.1)">
       <use xlink:href="#DejaVuSans-35"/>
       <use x="63.623047" xlink:href="#DejaVuSans-30"/>
      </g>
     </g>
    </g>
    <g id="xtick_3">
     <g id="line2d_3">
      <g>
       <use style="stroke:#000000;stroke-width:0.8;" x="576.758845" xlink:href="#maac45a73ca" y="509.66"/>
      </g>
     </g>
     <g id="text_3">
      <!-- 100 -->
      <defs>
       <path d="M 12.40625 8.296875 
L 28.515625 8.296875 
L 28.515625 63.921875 
L 10.984375 60.40625 
L 10.984375 69.390625 
L 28.421875 72.90625 
L 38.28125 72.90625 
L 38.28125 8.296875 
L 54.390625 8.296875 
L 54.390625 0 
L 12.40625 0 
z
" id="DejaVuSans-31"/>
      </defs>
      <g transform="translate(567.215095 524.258437)scale(0.1 -0.1)">
       <use xlink:href="#DejaVuSans-31"/>
       <use x="63.623047" xlink:href="#DejaVuSans-30"/>
       <use x="127.246094" xlink:href="#DejaVuSans-30"/>
      </g>
     </g>
    </g>
    <g id="xtick_4">
     <g id="line2d_4">
      <g>
       <use style="stroke:#000000;stroke-width:0.8;" x="819.473068" xlink:href="#maac45a73ca" y="509.66"/>
      </g>
     </g>
     <g id="text_4">
      <!-- 150 -->
      <g transform="translate(809.929318 524.258437)scale(0.1 -0.1)">
       <use xlink:href="#DejaVuSans-31"/>
       <use x="63.623047" xlink:href="#DejaVuSans-35"/>
       <use x="127.246094" xlink:href="#DejaVuSans-30"/>
      </g>
     </g>
    </g>
    <g id="xtick_5">
     <g id="line2d_5">
      <g>
       <use style="stroke:#000000;stroke-width:0.8;" x="1062.187292" xlink:href="#maac45a73ca" y="509.66"/>
      </g>
     </g>
     <g id="text_5">
      <!-- 200 -->
      <defs>
       <path d="M 19.1875 8.296875 
L 53.609375 8.296875 
L 53.609375 0 
L 7.328125 0 
L 7.328125 8.296875 
Q 12.9375 14.109375 22.625 23.890625 
Q 32.328125 33.6875 34.8125 36.53125 
Q 39.546875 41.84375 41.421875 45.53125 
Q 43.3125 49.21875 43.3125 52.78125 
Q 43.3125 58.59375 39.234375 62.25 
Q 35.15625 65.921875 28.609375 65.921875 
Q 23.96875 65.921875 18.8125 64.3125 
Q 13.671875 62.703125 7.8125 59.421875 
L 7.8125 69.390625 
Q 13.765625 71.78125 18.9375 73 
Q 24.125 74.21875 28.421875 74.21875 
Q 39.75 74.21875 46.484375 68.546875 
Q 53.21875 62.890625 53.21875 53.421875 
Q 53.21875 48.921875 51.53125 44.890625 
Q 49.859375 40.875 45.40625 35.40625 
Q 44.1875 33.984375 37.640625 27.21875 
Q 31.109375 20.453125 19.1875 8.296875 
z
" id="DejaVuSans-32"/>
      </defs>
      <g transform="translate(1052.643542 524.258437)scale(0.1 -0.1)">
       <use xlink:href="#DejaVuSans-32"/>
       <use x="63.623047" xlink:href="#DejaVuSans-30"/>
       <use x="127.246094" xlink:href="#DejaVuSans-30"/>
      </g>
     </g>
    </g>
    <g id="text_6">
     <!-- Time -->
     <defs>
      <path d="M -0.296875 72.90625 
L 61.375 72.90625 
L 61.375 64.59375 
L 35.5 64.59375 
L 35.5 0 
L 25.59375 0 
L 25.59375 64.59375 
L -0.296875 64.59375 
z
" id="DejaVuSans-54"/>
      <path d="M 9.421875 54.6875 
L 18.40625 54.6875 
L 18.40625 0 
L 9.421875 0 
z
M 9.421875 75.984375 
L 18.40625 75.984375 
L 18.40625 64.59375 
L 9.421875 64.59375 
z
" id="DejaVuSans-69"/>
      <path d="M 52 44.1875 
Q 55.375 50.25 60.0625 53.125 
Q 64.75 56 71.09375 56 
Q 79.640625 56 84.28125 50.015625 
Q 88.921875 44.046875 88.921875 33.015625 
L 88.921875 0 
L 79.890625 0 
L 79.890625 32.71875 
Q 79.890625 40.578125 77.09375 44.375 
Q 74.3125 48.1875 68.609375 48.1875 
Q 61.625 48.1875 57.5625 43.546875 
Q 53.515625 38.921875 53.515625 30.90625 
L 53.515625 0 
L 44.484375 0 
L 44.484375 32.71875 
Q 44.484375 40.625 41.703125 44.40625 
Q 38.921875 48.1875 33.109375 48.1875 
Q 26.21875 48.1875 22.15625 43.53125 
Q 18.109375 38.875 18.109375 30.90625 
L 18.109375 0 
L 9.078125 0 
L 9.078125 54.6875 
L 18.109375 54.6875 
L 18.109375 46.1875 
Q 21.1875 51.21875 25.484375 53.609375 
Q 29.78125 56 35.6875 56 
Q 41.65625 56 45.828125 52.96875 
Q 50 49.953125 52 44.1875 
z
" id="DejaVuSans-6d"/>
      <path d="M 56.203125 29.59375 
L 56.203125 25.203125 
L 14.890625 25.203125 
Q 15.484375 15.921875 20.484375 11.0625 
Q 25.484375 6.203125 34.421875 6.203125 
Q 39.59375 6.203125 44.453125 7.46875 
Q 49.3125 8.734375 54.109375 11.28125 
L 54.109375 2.78125 
Q 49.265625 0.734375 44.1875 -0.34375 
Q 39.109375 -1.421875 33.890625 -1.421875 
Q 20.796875 -1.421875 13.15625 6.1875 
Q 5.515625 13.8125 5.515625 26.8125 
Q 5.515625 40.234375 12.765625 48.109375 
Q 20.015625 56 32.328125 56 
Q 43.359375 56 49.78125 48.890625 
Q 56.203125 41.796875 56.203125 29.59375 
z
M 47.21875 32.234375 
Q 47.125 39.59375 43.09375 43.984375 
Q 39.0625 48.390625 32.421875 48.390625 
Q 24.90625 48.390625 20.390625 44.140625 
Q 15.875 39.890625 15.1875 32.171875 
z
" id="DejaVuSans-65"/>
     </defs>
     <g transform="translate(586.215625 537.936562)scale(0.1 -0.1)">
      <use xlink:href="#DejaVuSans-54"/>
      <use x="61.037109" xlink:href="#DejaVuSans-69"/>
      <use x="88.820312" xlink:href="#DejaVuSans-6d"/>
      <use x="186.232422" xlink:href="#DejaVuSans-65"/>
     </g>
    </g>
   </g>
   <g id="matplotlib.axis_2">
    <g id="ytick_1">
     <g id="line2d_6">
      <defs>
       <path d="M 0 0 
L -3.5 0 
" id="m103e5ff554" style="stroke:#000000;stroke-width:0.8;"/>
      </defs>
      <g>
       <use style="stroke:#000000;stroke-width:0.8;" x="40.603125" xlink:href="#m103e5ff554" y="486.98"/>
      </g>
     </g>
     <g id="text_7">
      <!-- 0 -->
      <g transform="translate(27.240625 490.779219)scale(0.1 -0.1)">
       <use xlink:href="#DejaVuSans-30"/>
      </g>
     </g>
    </g>
    <g id="ytick_2">
     <g id="line2d_7">
      <g>
       <use style="stroke:#000000;stroke-width:0.8;" x="40.603125" xlink:href="#m103e5ff554" y="399.749231"/>
      </g>
     </g>
     <g id="text_8">
      <!-- 5 -->
      <g transform="translate(27.240625 403.54845)scale(0.1 -0.1)">
       <use xlink:href="#DejaVuSans-35"/>
      </g>
     </g>
    </g>
    <g id="ytick_3">
     <g id="line2d_8">
      <g>
       <use style="stroke:#000000;stroke-width:0.8;" x="40.603125" xlink:href="#m103e5ff554" y="312.518462"/>
      </g>
     </g>
     <g id="text_9">
      <!-- 10 -->
      <g transform="translate(20.878125 316.31768)scale(0.1 -0.1)">
       <use xlink:href="#DejaVuSans-31"/>
       <use x="63.623047" xlink:href="#DejaVuSans-30"/>
      </g>
     </g>
    </g>
    <g id="ytick_4">
     <g id="line2d_9">
      <g>
       <use style="stroke:#000000;stroke-width:0.8;" x="40.603125" xlink:href="#m103e5ff554" y="225.287692"/>
      </g>
     </g>
     <g id="text_10">
      <!-- 15 -->
      <g transform="translate(20.878125 229.086911)scale(0.1 -0.1)">
       <use xlink:href="#DejaVuSans-31"/>
       <use x="63.623047" xlink:href="#DejaVuSans-35"/>
      </g>
     </g>
    </g>
    <g id="ytick_5">
     <g id="line2d_10">
      <g>
       <use style="stroke:#000000;stroke-width:0.8;" x="40.603125" xlink:href="#m103e5ff554" y="138.056923"/>
      </g>
     </g>
     <g id="text_11">
      <!-- 20 -->
      <g transform="translate(20.878125 141.856142)scale(0.1 -0.1)">
       <use xlink:href="#DejaVuSans-32"/>
       <use x="63.623047" xlink:href="#DejaVuSans-30"/>
      </g>
     </g>
    </g>
    <g id="ytick_6">
     <g id="line2d_11">
      <g>
       <use style="stroke:#000000;stroke-width:0.8;" x="40.603125" xlink:href="#m103e5ff554" y="50.826154"/>
      </g>
     </g>
     <g id="text_12">
      <!-- 25 -->
      <g transform="translate(20.878125 54.625373)scale(0.1 -0.1)">
       <use xlink:href="#DejaVuSans-32"/>
       <use x="63.623047" xlink:href="#DejaVuSans-35"/>
      </g>
     </g>
    </g>
    <g id="text_13">
     <!-- Refugees -->
     <defs>
      <path d="M 44.390625 34.1875 
Q 47.5625 33.109375 50.5625 29.59375 
Q 53.5625 26.078125 56.59375 19.921875 
L 66.609375 0 
L 56 0 
L 46.6875 18.703125 
Q 43.0625 26.03125 39.671875 28.421875 
Q 36.28125 30.8125 30.421875 30.8125 
L 19.671875 30.8125 
L 19.671875 0 
L 9.8125 0 
L 9.8125 72.90625 
L 32.078125 72.90625 
Q 44.578125 72.90625 50.734375 67.671875 
Q 56.890625 62.453125 56.890625 51.90625 
Q 56.890625 45.015625 53.6875 40.46875 
Q 50.484375 35.9375 44.390625 34.1875 
z
M 19.671875 64.796875 
L 19.671875 38.921875 
L 32.078125 38.921875 
Q 39.203125 38.921875 42.84375 42.21875 
Q 46.484375 45.515625 46.484375 51.90625 
Q 46.484375 58.296875 42.84375 61.546875 
Q 39.203125 64.796875 32.078125 64.796875 
z
" id="DejaVuSans-52"/>
      <path d="M 37.109375 75.984375 
L 37.109375 68.5 
L 28.515625 68.5 
Q 23.6875 68.5 21.796875 66.546875 
Q 19.921875 64.59375 19.921875 59.515625 
L 19.921875 54.6875 
L 34.71875 54.6875 
L 34.71875 47.703125 
L 19.921875 47.703125 
L 19.921875 0 
L 10.890625 0 
L 10.890625 47.703125 
L 2.296875 47.703125 
L 2.296875 54.6875 
L 10.890625 54.6875 
L 10.890625 58.5 
Q 10.890625 67.625 15.140625 71.796875 
Q 19.390625 75.984375 28.609375 75.984375 
z
" id="DejaVuSans-66"/>
      <path d="M 8.5 21.578125 
L 8.5 54.6875 
L 17.484375 54.6875 
L 17.484375 21.921875 
Q 17.484375 14.15625 20.5 10.265625 
Q 23.53125 6.390625 29.59375 6.390625 
Q 36.859375 6.390625 41.078125 11.03125 
Q 45.3125 15.671875 45.3125 23.6875 
L 45.3125 54.6875 
L 54.296875 54.6875 
L 54.296875 0 
L 45.3125 0 
L 45.3125 8.40625 
Q 42.046875 3.421875 37.71875 1 
Q 33.40625 -1.421875 27.6875 -1.421875 
Q 18.265625 -1.421875 13.375 4.4375 
Q 8.5 10.296875 8.5 21.578125 
z
M 31.109375 56 
z
" id="DejaVuSans-75"/>
      <path d="M 45.40625 27.984375 
Q 45.40625 37.75 41.375 43.109375 
Q 37.359375 48.484375 30.078125 48.484375 
Q 22.859375 48.484375 18.828125 43.109375 
Q 14.796875 37.75 14.796875 27.984375 
Q 14.796875 18.265625 18.828125 12.890625 
Q 22.859375 7.515625 30.078125 7.515625 
Q 37.359375 7.515625 41.375 12.890625 
Q 45.40625 18.265625 45.40625 27.984375 
z
M 54.390625 6.78125 
Q 54.390625 -7.171875 48.1875 -13.984375 
Q 42 -20.796875 29.203125 -20.796875 
Q 24.46875 -20.796875 20.265625 -20.09375 
Q 16.0625 -19.390625 12.109375 -17.921875 
L 12.109375 -9.1875 
Q 16.0625 -11.328125 19.921875 -12.34375 
Q 23.78125 -13.375 27.78125 -13.375 
Q 36.625 -13.375 41.015625 -8.765625 
Q 45.40625 -4.15625 45.40625 5.171875 
L 45.40625 9.625 
Q 42.625 4.78125 38.28125 2.390625 
Q 33.9375 0 27.875 0 
Q 17.828125 0 11.671875 7.65625 
Q 5.515625 15.328125 5.515625 27.984375 
Q 5.515625 40.671875 11.671875 48.328125 
Q 17.828125 56 27.875 56 
Q 33.9375 56 38.28125 53.609375 
Q 42.625 51.21875 45.40625 46.390625 
L 45.40625 54.6875 
L 54.390625 54.6875 
z
" id="DejaVuSans-67"/>
      <path d="M 44.28125 53.078125 
L 44.28125 44.578125 
Q 40.484375 46.53125 36.375 47.5 
Q 32.28125 48.484375 27.875 48.484375 
Q 21.1875 48.484375 17.84375 46.4375 
Q 14.5 44.390625 14.5 40.28125 
Q 14.5 37.15625 16.890625 35.375 
Q 19.28125 33.59375 26.515625 31.984375 
L 29.59375 31.296875 
Q 39.15625 29.25 43.1875 25.515625 
Q 47.21875 21.78125 47.21875 15.09375 
Q 47.21875 7.46875 41.1875 3.015625 
Q 35.15625 -1.421875 24.609375 -1.421875 
Q 20.21875 -1.421875 15.453125 -0.5625 
Q 10.6875 0.296875 5.421875 2 
L 5.421875 11.28125 
Q 10.40625 8.6875 15.234375 7.390625 
Q 20.0625 6.109375 24.8125 6.109375 
Q 31.15625 6.109375 34.5625 8.28125 
Q 37.984375 10.453125 37.984375 14.40625 
Q 37.984375 18.0625 35.515625 20.015625 
Q 33.0625 21.96875 24.703125 23.78125 
L 21.578125 24.515625 
Q 13.234375 26.265625 9.515625 29.90625 
Q 5.8125 33.546875 5.8125 39.890625 
Q 5.8125 47.609375 11.28125 51.796875 
Q 16.75 56 26.8125 56 
Q 31.78125 56 36.171875 55.265625 
Q 40.578125 54.546875 44.28125 53.078125 
z
" id="DejaVuSans-73"/>
     </defs>
     <g style="fill:#ff7f0e;" transform="translate(14.798438 283.588594)rotate(-90)scale(0.1 -0.1)">
      <use xlink:href="#DejaVuSans-52"/>
      <use x="69.419922" xlink:href="#DejaVuSans-65"/>
      <use x="130.943359" xlink:href="#DejaVuSans-66"/>
      <use x="166.148438" xlink:href="#DejaVuSans-75"/>
      <use x="229.527344" xlink:href="#DejaVuSans-67"/>
      <use x="293.003906" xlink:href="#DejaVuSans-65"/>
      <use x="354.527344" xlink:href="#DejaVuSans-65"/>
      <use x="416.050781" xlink:href="#DejaVuSans-73"/>
     </g>
    </g>
   </g>
   <g id="line2d_12">
    <path clip-path="url(#p21843923e3)" d="M 91.330398 486.98 
L 110.747536 486.98 
L 115.60182 365.281341 
L 120.456105 486.98 
L 139.873242 486.98 
L 144.727527 368.490701 
L 149.581811 473.362346 
L 154.436096 486.98 
L 168.998949 486.98 
L 173.853234 353.750918 
L 178.707518 486.98 
L 198.124656 486.98 
L 202.978941 366.267322 
L 207.833225 486.474631 
L 212.68751 486.98 
L 227.250363 486.98 
L 232.104647 361.669383 
L 236.958932 486.98 
L 256.37607 486.98 
L 261.230354 363.832175 
L 266.084639 416.327832 
L 270.938923 408.416055 
L 275.793208 438.614656 
L 280.647492 486.98 
L 285.501777 486.98 
L 290.356061 319.308126 
L 295.210346 484.341601 
L 300.06463 486.98 
L 314.627483 486.98 
L 319.481768 360.381198 
L 324.336052 470.849427 
L 329.190337 486.98 
L 343.75319 486.98 
L 348.607475 352.233387 
L 353.461759 486.98 
L 372.878897 486.98 
L 377.733182 369.123692 
L 382.587466 484.863467 
L 387.44175 486.98 
L 402.004604 486.98 
L 406.858888 360.696404 
L 411.713173 486.98 
L 431.130311 486.98 
L 435.984595 373.329491 
L 440.83888 450.021729 
L 445.693164 486.55019 
L 450.547449 486.98 
L 460.256018 486.98 
L 465.110302 339.655672 
L 469.964587 486.98 
L 489.381724 486.98 
L 494.236009 395.437573 
L 499.090293 433.993311 
L 503.944578 449.381239 
L 508.798862 486.98 
L 518.507431 486.98 
L 523.361716 329.976179 
L 528.216 486.98 
L 547.633138 486.98 
L 552.487423 364.843014 
L 557.341707 428.982889 
L 562.195991 437.76236 
L 567.050276 473.592184 
L 571.90456 486.98 
L 576.758845 486.98 
L 581.613129 326.950451 
L 586.467414 461.88712 
L 591.321698 486.98 
L 605.884552 486.98 
L 610.738836 346.821087 
L 615.593121 395.201713 
L 620.447405 364.863312 
L 625.30169 386.340142 
L 630.155974 468.246341 
L 635.010259 462.319074 
L 639.864543 298.91421 
L 644.718827 410.463388 
L 649.573112 394.816894 
L 654.427396 422.406037 
L 659.281681 486.98 
L 664.135965 486.070222 
L 668.99025 315.766655 
L 673.844534 424.375475 
L 678.698819 427.078168 
L 683.553103 460.857819 
L 688.407388 486.98 
L 693.261672 486.98 
L 698.115957 324.16807 
L 702.970241 457.261656 
L 707.824526 486.98 
L 722.387379 486.98 
L 727.241663 344.027775 
L 732.095948 340.938857 
L 736.950232 294.749149 
L 741.804517 308.705376 
L 746.658801 391.532904 
L 751.513086 394.495798 
L 756.36737 236.349982 
L 761.221655 479.20536 
L 766.075939 486.98 
L 780.638793 486.98 
L 785.493077 357.279494 
L 790.347362 385.340085 
L 795.201646 347.480332 
L 800.055931 365.253863 
L 804.910215 447.700348 
L 809.7645 445.850408 
L 814.618784 285.255369 
L 819.473068 343.386465 
L 824.327353 297.207522 
L 829.181637 311.148243 
L 834.035922 393.990928 
L 838.890206 396.926312 
L 843.744491 238.82471 
L 848.598775 172.102093 
L 853.45306 125.179151 
L 858.307344 140.198926 
L 863.161629 221.988537 
L 868.015913 226.838832 
L 872.870198 65.645309 
L 877.724482 486.98 
L 897.14162 486.98 
L 901.995904 403.14106 
L 906.850189 486.98 
L 926.267327 486.98 
L 931.121611 392.027908 
L 935.975896 486.98 
L 955.393034 486.98 
L 960.247318 368.918263 
L 965.101603 415.164507 
L 969.955887 405.718295 
L 974.810172 435.39933 
L 979.664456 486.98 
L 984.51874 486.98 
L 989.373025 318.605588 
L 994.227309 486.98 
L 1013.644447 486.98 
L 1018.498732 369.759644 
L 1023.353016 454.084354 
L 1028.207301 486.98 
L 1042.770154 486.98 
L 1047.624439 342.109054 
L 1052.478723 486.98 
L 1071.895861 486.98 
L 1076.750145 405.565924 
L 1081.60443 486.98 
L 1101.021568 486.98 
L 1105.875852 380.548173 
L 1105.875852 380.548173 
" style="fill:none;stroke:#008000;stroke-dasharray:5.55,2.4;stroke-dashoffset:0;stroke-width:1.5;"/>
   </g>
   <g id="line2d_13">
    <path clip-path="url(#p21843923e3)" d="M 91.330398 486.98 
L 96.184682 469.533846 
L 101.038967 469.533846 
L 105.893251 486.98 
L 183.561803 486.98 
L 188.416087 452.087692 
L 198.124656 486.98 
L 202.978941 486.98 
L 207.833225 469.533846 
L 212.68751 469.533846 
L 217.541794 486.98 
L 222.396078 469.533846 
L 227.250363 486.98 
L 232.104647 417.195385 
L 236.958932 486.98 
L 241.813216 469.533846 
L 246.667501 486.98 
L 251.521785 486.98 
L 256.37607 417.195385 
L 261.230354 452.087692 
L 266.084639 469.533846 
L 270.938923 434.641538 
L 275.793208 469.533846 
L 280.647492 434.641538 
L 285.501777 452.087692 
L 290.356061 452.087692 
L 295.210346 417.195385 
L 300.06463 417.195385 
L 309.773199 382.303077 
L 314.627483 486.98 
L 319.481768 469.533846 
L 329.190337 469.533846 
L 334.044621 434.641538 
L 343.75319 469.533846 
L 348.607475 452.087692 
L 353.461759 469.533846 
L 358.316044 452.087692 
L 363.170328 469.533846 
L 377.733182 469.533846 
L 382.587466 452.087692 
L 387.44175 452.087692 
L 392.296035 486.98 
L 397.150319 417.195385 
L 402.004604 434.641538 
L 406.858888 486.98 
L 411.713173 469.533846 
L 416.567457 469.533846 
L 421.421742 452.087692 
L 426.276026 452.087692 
L 431.130311 469.533846 
L 440.83888 469.533846 
L 445.693164 486.98 
L 455.401733 452.087692 
L 460.256018 452.087692 
L 465.110302 417.195385 
L 469.964587 347.410769 
L 474.818871 452.087692 
L 479.673155 277.626154 
L 484.52744 486.98 
L 489.381724 434.641538 
L 503.944578 486.98 
L 508.798862 434.641538 
L 513.653147 417.195385 
L 528.216 417.195385 
L 533.070285 434.641538 
L 537.924569 469.533846 
L 542.778854 469.533846 
L 547.633138 399.749231 
L 552.487423 452.087692 
L 557.341707 399.749231 
L 562.195991 486.98 
L 567.050276 452.087692 
L 571.90456 434.641538 
L 576.758845 347.410769 
L 581.613129 382.303077 
L 586.467414 434.641538 
L 596.175983 364.856923 
L 601.030267 417.195385 
L 605.884552 364.856923 
L 615.593121 295.072308 
L 620.447405 295.072308 
L 625.30169 172.949231 
L 630.155974 295.072308 
L 635.010259 190.395385 
L 639.864543 33.38 
L 644.718827 295.072308 
L 649.573112 295.072308 
L 654.427396 277.626154 
L 659.281681 347.410769 
L 664.135965 329.964615 
L 668.99025 417.195385 
L 673.844534 277.626154 
L 678.698819 364.856923 
L 683.553103 382.303077 
L 688.407388 295.072308 
L 693.261672 242.733846 
L 698.115957 382.303077 
L 702.970241 312.518462 
L 707.824526 382.303077 
L 712.67881 347.410769 
L 717.533095 469.533846 
L 722.387379 312.518462 
L 727.241663 364.856923 
L 732.095948 486.98 
L 736.950232 399.749231 
L 741.804517 347.410769 
L 751.513086 312.518462 
L 756.36737 312.518462 
L 761.221655 329.964615 
L 766.075939 295.072308 
L 770.930224 138.056923 
L 775.784508 347.410769 
L 780.638793 312.518462 
L 785.493077 364.856923 
L 790.347362 277.626154 
L 795.201646 277.626154 
L 800.055931 312.518462 
L 809.7645 138.056923 
L 814.618784 120.610769 
L 819.473068 277.626154 
L 824.327353 242.733846 
L 829.181637 260.18 
L 834.035922 120.610769 
L 838.890206 138.056923 
L 843.744491 120.610769 
L 848.598775 417.195385 
L 853.45306 364.856923 
L 858.307344 329.964615 
L 863.161629 486.98 
L 868.015913 417.195385 
L 872.870198 452.087692 
L 882.578767 452.087692 
L 887.433051 486.98 
L 892.287336 469.533846 
L 897.14162 486.98 
L 901.995904 434.641538 
L 906.850189 486.98 
L 911.704473 452.087692 
L 916.558758 382.303077 
L 921.413042 469.533846 
L 926.267327 434.641538 
L 931.121611 486.98 
L 935.975896 452.087692 
L 940.83018 469.533846 
L 945.684465 469.533846 
L 950.538749 434.641538 
L 955.393034 347.410769 
L 960.247318 452.087692 
L 965.101603 417.195385 
L 969.955887 452.087692 
L 974.810172 382.303077 
L 979.664456 329.964615 
L 984.51874 469.533846 
L 989.373025 486.98 
L 994.227309 382.303077 
L 999.081594 469.533846 
L 1008.790163 469.533846 
L 1013.644447 399.749231 
L 1018.498732 469.533846 
L 1023.353016 469.533846 
L 1028.207301 486.98 
L 1033.061585 399.749231 
L 1037.91587 434.641538 
L 1042.770154 486.98 
L 1047.624439 469.533846 
L 1052.478723 486.98 
L 1105.875852 486.98 
L 1105.875852 486.98 
" style="fill:none;stroke:#ff7f0e;stroke-linecap:square;stroke-width:1.5;"/>
   </g>
   <g id="line2d_14">
    <defs>
     <path d="M 0 3 
C 0.795609 3 1.55874 2.683901 2.12132 2.12132 
C 2.683901 1.55874 3 0.795609 3 0 
C 3 -0.795609 2.683901 -1.55874 2.12132 -2.12132 
C 1.55874 -2.683901 0.795609 -3 0 -3 
C -0.795609 -3 -1.55874 -2.683901 -2.12132 -2.12132 
C -2.683901 -1.55874 -3 -0.795609 -3 0 
C -3 0.795609 -2.683901 1.55874 -2.12132 2.12132 
C -1.55874 2.683901 -0.795609 3 0 3 
z
" id="m84b6c90fcc" style="stroke:#008000;"/>
    </defs>
    <g clip-path="url(#p21843923e3)">
     <use style="fill:#008000;stroke:#008000;" x="91.330398" xlink:href="#m84b6c90fcc" y="486.98"/>
     <use style="fill:#008000;stroke:#008000;" x="120.456105" xlink:href="#m84b6c90fcc" y="486.98"/>
     <use style="fill:#008000;stroke:#008000;" x="149.581811" xlink:href="#m84b6c90fcc" y="473.362346"/>
     <use style="fill:#008000;stroke:#008000;" x="178.707518" xlink:href="#m84b6c90fcc" y="486.98"/>
     <use style="fill:#008000;stroke:#008000;" x="207.833225" xlink:href="#m84b6c90fcc" y="486.474631"/>
     <use style="fill:#008000;stroke:#008000;" x="236.958932" xlink:href="#m84b6c90fcc" y="486.98"/>
     <use style="fill:#008000;stroke:#008000;" x="266.084639" xlink:href="#m84b6c90fcc" y="416.327832"/>
     <use style="fill:#008000;stroke:#008000;" x="295.210346" xlink:href="#m84b6c90fcc" y="484.341601"/>
     <use style="fill:#008000;stroke:#008000;" x="324.336052" xlink:href="#m84b6c90fcc" y="470.849427"/>
     <use style="fill:#008000;stroke:#008000;" x="353.461759" xlink:href="#m84b6c90fcc" y="486.98"/>
     <use style="fill:#008000;stroke:#008000;" x="382.587466" xlink:href="#m84b6c90fcc" y="484.863467"/>
     <use style="fill:#008000;stroke:#008000;" x="411.713173" xlink:href="#m84b6c90fcc" y="486.98"/>
     <use style="fill:#008000;stroke:#008000;" x="440.83888" xlink:href="#m84b6c90fcc" y="450.021729"/>
     <use style="fill:#008000;stroke:#008000;" x="469.964587" xlink:href="#m84b6c90fcc" y="486.98"/>
     <use style="fill:#008000;stroke:#008000;" x="499.090293" xlink:href="#m84b6c90fcc" y="433.993311"/>
     <use style="fill:#008000;stroke:#008000;" x="528.216" xlink:href="#m84b6c90fcc" y="486.98"/>
     <use style="fill:#008000;stroke:#008000;" x="557.341707" xlink:href="#m84b6c90fcc" y="428.982889"/>
     <use style="fill:#008000;stroke:#008000;" x="586.467414" xlink:href="#m84b6c90fcc" y="461.88712"/>
     <use style="fill:#008000;stroke:#008000;" x="615.593121" xlink:href="#m84b6c90fcc" y="395.201713"/>
     <use style="fill:#008000;stroke:#008000;" x="644.718827" xlink:href="#m84b6c90fcc" y="410.463388"/>
     <use style="fill:#008000;stroke:#008000;" x="673.844534" xlink:href="#m84b6c90fcc" y="424.375475"/>
     <use style="fill:#008000;stroke:#008000;" x="702.970241" xlink:href="#m84b6c90fcc" y="457.261656"/>
     <use style="fill:#008000;stroke:#008000;" x="732.095948" xlink:href="#m84b6c90fcc" y="340.938857"/>
     <use style="fill:#008000;stroke:#008000;" x="761.221655" xlink:href="#m84b6c90fcc" y="479.20536"/>
     <use style="fill:#008000;stroke:#008000;" x="790.347362" xlink:href="#m84b6c90fcc" y="385.340085"/>
     <use style="fill:#008000;stroke:#008000;" x="819.473068" xlink:href="#m84b6c90fcc" y="343.386465"/>
     <use style="fill:#008000;stroke:#008000;" x="848.598775" xlink:href="#m84b6c90fcc" y="172.102093"/>
     <use style="fill:#008000;stroke:#008000;" x="877.724482" xlink:href="#m84b6c90fcc" y="486.98"/>
     <use style="fill:#008000;stroke:#008000;" x="906.850189" xlink:href="#m84b6c90fcc" y="486.98"/>
     <use style="fill:#008000;stroke:#008000;" x="935.975896" xlink:href="#m84b6c90fcc" y="486.98"/>
     <use style="fill:#008000;stroke:#008000;" x="965.101603" xlink:href="#m84b6c90fcc" y="415.164507"/>
     <use style="fill:#008000;stroke:#008000;" x="994.227309" xlink:href="#m84b6c90fcc" y="486.98"/>
     <use style="fill:#008000;stroke:#008000;" x="1023.353016" xlink:href="#m84b6c90fcc" y="454.084354"/>
     <use style="fill:#008000;stroke:#008000;" x="1052.478723" xlink:href="#m84b6c90fcc" y="486.98"/>
     <use style="fill:#008000;stroke:#008000;" x="1081.60443" xlink:href="#m84b6c90fcc" y="486.98"/>
    </g>
   </g>
   <g id="patch_3">
    <path d="M 40.603125 509.66 
L 40.603125 10.7 
" style="fill:none;stroke:#000000;stroke-linecap:square;stroke-linejoin:miter;stroke-width:0.8;"/>
   </g>
   <g id="patch_4">
    <path d="M 1156.603125 509.66 
L 1156.603125 10.7 
" style="fill:none;stroke:#000000;stroke-linecap:square;stroke-linejoin:miter;stroke-width:0.8;"/>
   </g>
   <g id="patch_5">
    <path d="M 40.603125 509.66 
L 1156.603125 509.66 
" style="fill:none;stroke:#000000;stroke-linecap:square;stroke-linejoin:miter;stroke-width:0.8;"/>
   </g>
   <g id="patch_6">
    <path d="M 40.603125 10.7 
L 1156.603125 10.7 
" style="fill:none;stroke:#000000;stroke-linecap:square;stroke-linejoin:miter;stroke-width:0.8;"/>
   </g>
   <g id="legend_1">
    <g id="patch_7">
     <path d="M 47.603125 62.734375 
L 195.378125 62.734375 
Q 197.378125 62.734375 197.378125 60.734375 
L 197.378125 17.7 
Q 197.378125 15.7 195.378125 15.7 
L 47.603125 15.7 
Q 45.603125 15.7 45.603125 17.7 
L 45.603125 60.734375 
Q 45.603125 62.734375 47.603125 62.734375 
z
" style="fill:#ffffff;opacity:0.8;stroke:#cccccc;stroke-linejoin:miter;"/>
    </g>
    <g id="line2d_15">
     <path d="M 49.603125 23.798437 
L 69.603125 23.798437 
" style="fill:none;stroke:#008000;stroke-dasharray:5.55,2.4;stroke-dashoffset:0;stroke-width:1.5;"/>
    </g>
    <g id="line2d_16"/>
    <g id="text_14">
     <!-- Predicted -->
     <defs>
      <path d="M 19.671875 64.796875 
L 19.671875 37.40625 
L 32.078125 37.40625 
Q 38.96875 37.40625 42.71875 40.96875 
Q 46.484375 44.53125 46.484375 51.125 
Q 46.484375 57.671875 42.71875 61.234375 
Q 38.96875 64.796875 32.078125 64.796875 
z
M 9.8125 72.90625 
L 32.078125 72.90625 
Q 44.34375 72.90625 50.609375 67.359375 
Q 56.890625 61.8125 56.890625 51.125 
Q 56.890625 40.328125 50.609375 34.8125 
Q 44.34375 29.296875 32.078125 29.296875 
L 19.671875 29.296875 
L 19.671875 0 
L 9.8125 0 
z
" id="DejaVuSans-50"/>
      <path d="M 41.109375 46.296875 
Q 39.59375 47.171875 37.8125 47.578125 
Q 36.03125 48 33.890625 48 
Q 26.265625 48 22.1875 43.046875 
Q 18.109375 38.09375 18.109375 28.8125 
L 18.109375 0 
L 9.078125 0 
L 9.078125 54.6875 
L 18.109375 54.6875 
L 18.109375 46.1875 
Q 20.953125 51.171875 25.484375 53.578125 
Q 30.03125 56 36.53125 56 
Q 37.453125 56 38.578125 55.875 
Q 39.703125 55.765625 41.0625 55.515625 
z
" id="DejaVuSans-72"/>
      <path d="M 45.40625 46.390625 
L 45.40625 75.984375 
L 54.390625 75.984375 
L 54.390625 0 
L 45.40625 0 
L 45.40625 8.203125 
Q 42.578125 3.328125 38.25 0.953125 
Q 33.9375 -1.421875 27.875 -1.421875 
Q 17.96875 -1.421875 11.734375 6.484375 
Q 5.515625 14.40625 5.515625 27.296875 
Q 5.515625 40.1875 11.734375 48.09375 
Q 17.96875 56 27.875 56 
Q 33.9375 56 38.25 53.625 
Q 42.578125 51.265625 45.40625 46.390625 
z
M 14.796875 27.296875 
Q 14.796875 17.390625 18.875 11.75 
Q 22.953125 6.109375 30.078125 6.109375 
Q 37.203125 6.109375 41.296875 11.75 
Q 45.40625 17.390625 45.40625 27.296875 
Q 45.40625 37.203125 41.296875 42.84375 
Q 37.203125 48.484375 30.078125 48.484375 
Q 22.953125 48.484375 18.875 42.84375 
Q 14.796875 37.203125 14.796875 27.296875 
z
" id="DejaVuSans-64"/>
      <path d="M 48.78125 52.59375 
L 48.78125 44.1875 
Q 44.96875 46.296875 41.140625 47.34375 
Q 37.3125 48.390625 33.40625 48.390625 
Q 24.65625 48.390625 19.8125 42.84375 
Q 14.984375 37.3125 14.984375 27.296875 
Q 14.984375 17.28125 19.8125 11.734375 
Q 24.65625 6.203125 33.40625 6.203125 
Q 37.3125 6.203125 41.140625 7.25 
Q 44.96875 8.296875 48.78125 10.40625 
L 48.78125 2.09375 
Q 45.015625 0.34375 40.984375 -0.53125 
Q 36.96875 -1.421875 32.421875 -1.421875 
Q 20.0625 -1.421875 12.78125 6.34375 
Q 5.515625 14.109375 5.515625 27.296875 
Q 5.515625 40.671875 12.859375 48.328125 
Q 20.21875 56 33.015625 56 
Q 37.15625 56 41.109375 55.140625 
Q 45.0625 54.296875 48.78125 52.59375 
z
" id="DejaVuSans-63"/>
      <path d="M 18.3125 70.21875 
L 18.3125 54.6875 
L 36.8125 54.6875 
L 36.8125 47.703125 
L 18.3125 47.703125 
L 18.3125 18.015625 
Q 18.3125 11.328125 20.140625 9.421875 
Q 21.96875 7.515625 27.59375 7.515625 
L 36.8125 7.515625 
L 36.8125 0 
L 27.59375 0 
Q 17.1875 0 13.234375 3.875 
Q 9.28125 7.765625 9.28125 18.015625 
L 9.28125 47.703125 
L 2.6875 47.703125 
L 2.6875 54.6875 
L 9.28125 54.6875 
L 9.28125 70.21875 
z
" id="DejaVuSans-74"/>
     </defs>
     <g transform="translate(77.603125 27.298437)scale(0.1 -0.1)">
      <use xlink:href="#DejaVuSans-50"/>
      <use x="60.287109" xlink:href="#DejaVuSans-72"/>
      <use x="101.369141" xlink:href="#DejaVuSans-65"/>
      <use x="162.892578" xlink:href="#DejaVuSans-64"/>
      <use x="226.369141" xlink:href="#DejaVuSans-69"/>
      <use x="254.152344" xlink:href="#DejaVuSans-63"/>
      <use x="309.132812" xlink:href="#DejaVuSans-74"/>
      <use x="348.341797" xlink:href="#DejaVuSans-65"/>
      <use x="409.865234" xlink:href="#DejaVuSans-64"/>
     </g>
    </g>
    <g id="line2d_17">
     <path d="M 49.603125 38.476562 
L 69.603125 38.476562 
" style="fill:none;stroke:#ff7f0e;stroke-linecap:square;stroke-width:1.5;"/>
    </g>
    <g id="line2d_18"/>
    <g id="text_15">
     <!-- Real Data -->
     <defs>
      <path d="M 34.28125 27.484375 
Q 23.390625 27.484375 19.1875 25 
Q 14.984375 22.515625 14.984375 16.5 
Q 14.984375 11.71875 18.140625 8.90625 
Q 21.296875 6.109375 26.703125 6.109375 
Q 34.1875 6.109375 38.703125 11.40625 
Q 43.21875 16.703125 43.21875 25.484375 
L 43.21875 27.484375 
z
M 52.203125 31.203125 
L 52.203125 0 
L 43.21875 0 
L 43.21875 8.296875 
Q 40.140625 3.328125 35.546875 0.953125 
Q 30.953125 -1.421875 24.3125 -1.421875 
Q 15.921875 -1.421875 10.953125 3.296875 
Q 6 8.015625 6 15.921875 
Q 6 25.140625 12.171875 29.828125 
Q 18.359375 34.515625 30.609375 34.515625 
L 43.21875 34.515625 
L 43.21875 35.40625 
Q 43.21875 41.609375 39.140625 45 
Q 35.0625 48.390625 27.6875 48.390625 
Q 23 48.390625 18.546875 47.265625 
Q 14.109375 46.140625 10.015625 43.890625 
L 10.015625 52.203125 
Q 14.9375 54.109375 19.578125 55.046875 
Q 24.21875 56 28.609375 56 
Q 40.484375 56 46.34375 49.84375 
Q 52.203125 43.703125 52.203125 31.203125 
z
" id="DejaVuSans-61"/>
      <path d="M 9.421875 75.984375 
L 18.40625 75.984375 
L 18.40625 0 
L 9.421875 0 
z
" id="DejaVuSans-6c"/>
      <path id="DejaVuSans-20"/>
      <path d="M 19.671875 64.796875 
L 19.671875 8.109375 
L 31.59375 8.109375 
Q 46.6875 8.109375 53.6875 14.9375 
Q 60.6875 21.78125 60.6875 36.53125 
Q 60.6875 51.171875 53.6875 57.984375 
Q 46.6875 64.796875 31.59375 64.796875 
z
M 9.8125 72.90625 
L 30.078125 72.90625 
Q 51.265625 72.90625 61.171875 64.09375 
Q 71.09375 55.28125 71.09375 36.53125 
Q 71.09375 17.671875 61.125 8.828125 
Q 51.171875 0 30.078125 0 
L 9.8125 0 
z
" id="DejaVuSans-44"/>
     </defs>
     <g transform="translate(77.603125 41.976562)scale(0.1 -0.1)">
      <use xlink:href="#DejaVuSans-52"/>
      <use x="69.419922" xlink:href="#DejaVuSans-65"/>
      <use x="130.943359" xlink:href="#DejaVuSans-61"/>
      <use x="192.222656" xlink:href="#DejaVuSans-6c"/>
      <use x="220.005859" xlink:href="#DejaVuSans-20"/>
      <use x="251.792969" xlink:href="#DejaVuSans-44"/>
      <use x="328.794922" xlink:href="#DejaVuSans-61"/>
      <use x="390.074219" xlink:href="#DejaVuSans-74"/>
      <use x="429.283203" xlink:href="#DejaVuSans-61"/>
     </g>
    </g>
    <g id="line2d_19"/>
    <g id="line2d_20">
     <g>
      <use style="fill:#008000;stroke:#008000;" x="59.603125" xlink:href="#m84b6c90fcc" y="53.154688"/>
     </g>
    </g>
    <g id="text_16">
     <!-- Start Point for Forecast -->
     <defs>
      <path d="M 53.515625 70.515625 
L 53.515625 60.890625 
Q 47.90625 63.578125 42.921875 64.890625 
Q 37.9375 66.21875 33.296875 66.21875 
Q 25.25 66.21875 20.875 63.09375 
Q 16.5 59.96875 16.5 54.203125 
Q 16.5 49.359375 19.40625 46.890625 
Q 22.3125 44.4375 30.421875 42.921875 
L 36.375 41.703125 
Q 47.40625 39.59375 52.65625 34.296875 
Q 57.90625 29 57.90625 20.125 
Q 57.90625 9.515625 50.796875 4.046875 
Q 43.703125 -1.421875 29.984375 -1.421875 
Q 24.8125 -1.421875 18.96875 -0.25 
Q 13.140625 0.921875 6.890625 3.21875 
L 6.890625 13.375 
Q 12.890625 10.015625 18.65625 8.296875 
Q 24.421875 6.59375 29.984375 6.59375 
Q 38.421875 6.59375 43.015625 9.90625 
Q 47.609375 13.234375 47.609375 19.390625 
Q 47.609375 24.75 44.3125 27.78125 
Q 41.015625 30.8125 33.5 32.328125 
L 27.484375 33.5 
Q 16.453125 35.6875 11.515625 40.375 
Q 6.59375 45.0625 6.59375 53.421875 
Q 6.59375 63.09375 13.40625 68.65625 
Q 20.21875 74.21875 32.171875 74.21875 
Q 37.3125 74.21875 42.625 73.28125 
Q 47.953125 72.359375 53.515625 70.515625 
z
" id="DejaVuSans-53"/>
      <path d="M 30.609375 48.390625 
Q 23.390625 48.390625 19.1875 42.75 
Q 14.984375 37.109375 14.984375 27.296875 
Q 14.984375 17.484375 19.15625 11.84375 
Q 23.34375 6.203125 30.609375 6.203125 
Q 37.796875 6.203125 41.984375 11.859375 
Q 46.1875 17.53125 46.1875 27.296875 
Q 46.1875 37.015625 41.984375 42.703125 
Q 37.796875 48.390625 30.609375 48.390625 
z
M 30.609375 56 
Q 42.328125 56 49.015625 48.375 
Q 55.71875 40.765625 55.71875 27.296875 
Q 55.71875 13.875 49.015625 6.21875 
Q 42.328125 -1.421875 30.609375 -1.421875 
Q 18.84375 -1.421875 12.171875 6.21875 
Q 5.515625 13.875 5.515625 27.296875 
Q 5.515625 40.765625 12.171875 48.375 
Q 18.84375 56 30.609375 56 
z
" id="DejaVuSans-6f"/>
      <path d="M 54.890625 33.015625 
L 54.890625 0 
L 45.90625 0 
L 45.90625 32.71875 
Q 45.90625 40.484375 42.875 44.328125 
Q 39.84375 48.1875 33.796875 48.1875 
Q 26.515625 48.1875 22.3125 43.546875 
Q 18.109375 38.921875 18.109375 30.90625 
L 18.109375 0 
L 9.078125 0 
L 9.078125 54.6875 
L 18.109375 54.6875 
L 18.109375 46.1875 
Q 21.34375 51.125 25.703125 53.5625 
Q 30.078125 56 35.796875 56 
Q 45.21875 56 50.046875 50.171875 
Q 54.890625 44.34375 54.890625 33.015625 
z
" id="DejaVuSans-6e"/>
      <path d="M 9.8125 72.90625 
L 51.703125 72.90625 
L 51.703125 64.59375 
L 19.671875 64.59375 
L 19.671875 43.109375 
L 48.578125 43.109375 
L 48.578125 34.8125 
L 19.671875 34.8125 
L 19.671875 0 
L 9.8125 0 
z
" id="DejaVuSans-46"/>
     </defs>
     <g transform="translate(77.603125 56.654688)scale(0.1 -0.1)">
      <use xlink:href="#DejaVuSans-53"/>
      <use x="63.476562" xlink:href="#DejaVuSans-74"/>
      <use x="102.685547" xlink:href="#DejaVuSans-61"/>
      <use x="163.964844" xlink:href="#DejaVuSans-72"/>
      <use x="205.078125" xlink:href="#DejaVuSans-74"/>
      <use x="244.287109" xlink:href="#DejaVuSans-20"/>
      <use x="276.074219" xlink:href="#DejaVuSans-50"/>
      <use x="336.330078" xlink:href="#DejaVuSans-6f"/>
      <use x="397.511719" xlink:href="#DejaVuSans-69"/>
      <use x="425.294922" xlink:href="#DejaVuSans-6e"/>
      <use x="488.673828" xlink:href="#DejaVuSans-74"/>
      <use x="527.882812" xlink:href="#DejaVuSans-20"/>
      <use x="559.669922" xlink:href="#DejaVuSans-66"/>
      <use x="594.875" xlink:href="#DejaVuSans-6f"/>
      <use x="656.056641" xlink:href="#DejaVuSans-72"/>
      <use x="697.169922" xlink:href="#DejaVuSans-20"/>
      <use x="728.957031" xlink:href="#DejaVuSans-46"/>
      <use x="786.429688" xlink:href="#DejaVuSans-6f"/>
      <use x="847.611328" xlink:href="#DejaVuSans-72"/>
      <use x="888.693359" xlink:href="#DejaVuSans-65"/>
      <use x="950.216797" xlink:href="#DejaVuSans-63"/>
      <use x="1005.197266" xlink:href="#DejaVuSans-61"/>
      <use x="1066.476562" xlink:href="#DejaVuSans-73"/>
      <use x="1118.576172" xlink:href="#DejaVuSans-74"/>
     </g>
    </g>
   </g>
  </g>
  <g id="axes_2">
   <g id="patch_8">
    <path d="M 40.603125 645.74 
L 1158.043125 645.74 
L 1158.043125 516.14 
L 40.603125 516.14 
z
" style="fill:none;"/>
   </g>
   <g id="matplotlib.axis_3">
    <g id="xtick_6">
     <g id="line2d_21">
      <g>
       <use style="stroke:#000000;stroke-width:0.8;" x="91.395852" xlink:href="#maac45a73ca" y="645.74"/>
      </g>
     </g>
     <g id="text_17">
      <!-- 0 -->
      <g transform="translate(88.214602 660.338437)scale(0.1 -0.1)">
       <use xlink:href="#DejaVuSans-30"/>
      </g>
     </g>
    </g>
    <g id="xtick_7">
     <g id="line2d_22">
      <g>
       <use style="stroke:#000000;stroke-width:0.8;" x="215.887831" xlink:href="#maac45a73ca" y="645.74"/>
      </g>
     </g>
     <g id="text_18">
      <!-- 25 -->
      <g transform="translate(209.525331 660.338437)scale(0.1 -0.1)">
       <use xlink:href="#DejaVuSans-32"/>
       <use x="63.623047" xlink:href="#DejaVuSans-35"/>
      </g>
     </g>
    </g>
    <g id="xtick_8">
     <g id="line2d_23">
      <g>
       <use style="stroke:#000000;stroke-width:0.8;" x="340.379809" xlink:href="#maac45a73ca" y="645.74"/>
      </g>
     </g>
     <g id="text_19">
      <!-- 50 -->
      <g transform="translate(334.017309 660.338437)scale(0.1 -0.1)">
       <use xlink:href="#DejaVuSans-35"/>
       <use x="63.623047" xlink:href="#DejaVuSans-30"/>
      </g>
     </g>
    </g>
    <g id="xtick_9">
     <g id="line2d_24">
      <g>
       <use style="stroke:#000000;stroke-width:0.8;" x="464.871788" xlink:href="#maac45a73ca" y="645.74"/>
      </g>
     </g>
     <g id="text_20">
      <!-- 75 -->
      <defs>
       <path d="M 8.203125 72.90625 
L 55.078125 72.90625 
L 55.078125 68.703125 
L 28.609375 0 
L 18.3125 0 
L 43.21875 64.59375 
L 8.203125 64.59375 
z
" id="DejaVuSans-37"/>
      </defs>
      <g transform="translate(458.509288 660.338437)scale(0.1 -0.1)">
       <use xlink:href="#DejaVuSans-37"/>
       <use x="63.623047" xlink:href="#DejaVuSans-35"/>
      </g>
     </g>
    </g>
    <g id="xtick_10">
     <g id="line2d_25">
      <g>
       <use style="stroke:#000000;stroke-width:0.8;" x="589.363767" xlink:href="#maac45a73ca" y="645.74"/>
      </g>
     </g>
     <g id="text_21">
      <!-- 100 -->
      <g transform="translate(579.820017 660.338437)scale(0.1 -0.1)">
       <use xlink:href="#DejaVuSans-31"/>
       <use x="63.623047" xlink:href="#DejaVuSans-30"/>
       <use x="127.246094" xlink:href="#DejaVuSans-30"/>
      </g>
     </g>
    </g>
    <g id="xtick_11">
     <g id="line2d_26">
      <g>
       <use style="stroke:#000000;stroke-width:0.8;" x="713.855745" xlink:href="#maac45a73ca" y="645.74"/>
      </g>
     </g>
     <g id="text_22">
      <!-- 125 -->
      <g transform="translate(704.311995 660.338437)scale(0.1 -0.1)">
       <use xlink:href="#DejaVuSans-31"/>
       <use x="63.623047" xlink:href="#DejaVuSans-32"/>
       <use x="127.246094" xlink:href="#DejaVuSans-35"/>
      </g>
     </g>
    </g>
    <g id="xtick_12">
     <g id="line2d_27">
      <g>
       <use style="stroke:#000000;stroke-width:0.8;" x="838.347724" xlink:href="#maac45a73ca" y="645.74"/>
      </g>
     </g>
     <g id="text_23">
      <!-- 150 -->
      <g transform="translate(828.803974 660.338437)scale(0.1 -0.1)">
       <use xlink:href="#DejaVuSans-31"/>
       <use x="63.623047" xlink:href="#DejaVuSans-35"/>
       <use x="127.246094" xlink:href="#DejaVuSans-30"/>
      </g>
     </g>
    </g>
    <g id="xtick_13">
     <g id="line2d_28">
      <g>
       <use style="stroke:#000000;stroke-width:0.8;" x="962.839703" xlink:href="#maac45a73ca" y="645.74"/>
      </g>
     </g>
     <g id="text_24">
      <!-- 175 -->
      <g transform="translate(953.295953 660.338437)scale(0.1 -0.1)">
       <use xlink:href="#DejaVuSans-31"/>
       <use x="63.623047" xlink:href="#DejaVuSans-37"/>
       <use x="127.246094" xlink:href="#DejaVuSans-35"/>
      </g>
     </g>
    </g>
    <g id="xtick_14">
     <g id="line2d_29">
      <g>
       <use style="stroke:#000000;stroke-width:0.8;" x="1087.331681" xlink:href="#maac45a73ca" y="645.74"/>
      </g>
     </g>
     <g id="text_25">
      <!-- 200 -->
      <g transform="translate(1077.787931 660.338437)scale(0.1 -0.1)">
       <use xlink:href="#DejaVuSans-32"/>
       <use x="63.623047" xlink:href="#DejaVuSans-30"/>
       <use x="127.246094" xlink:href="#DejaVuSans-30"/>
      </g>
     </g>
    </g>
   </g>
   <g id="matplotlib.axis_4">
    <g id="ytick_7">
     <g id="line2d_30">
      <g>
       <use style="stroke:#000000;stroke-width:0.8;" x="40.603125" xlink:href="#m103e5ff554" y="637.283268"/>
      </g>
     </g>
     <g id="text_26">
      <!-- 0 -->
      <g transform="translate(27.240625 641.082487)scale(0.1 -0.1)">
       <use xlink:href="#DejaVuSans-30"/>
      </g>
     </g>
    </g>
    <g id="ytick_8">
     <g id="line2d_31">
      <g>
       <use style="stroke:#000000;stroke-width:0.8;" x="40.603125" xlink:href="#m103e5ff554" y="604.927369"/>
      </g>
     </g>
     <g id="text_27">
      <!-- 10 -->
      <g transform="translate(20.878125 608.726588)scale(0.1 -0.1)">
       <use xlink:href="#DejaVuSans-31"/>
       <use x="63.623047" xlink:href="#DejaVuSans-30"/>
      </g>
     </g>
    </g>
    <g id="ytick_9">
     <g id="line2d_32">
      <g>
       <use style="stroke:#000000;stroke-width:0.8;" x="40.603125" xlink:href="#m103e5ff554" y="572.57147"/>
      </g>
     </g>
     <g id="text_28">
      <!-- 20 -->
      <g transform="translate(20.878125 576.370689)scale(0.1 -0.1)">
       <use xlink:href="#DejaVuSans-32"/>
       <use x="63.623047" xlink:href="#DejaVuSans-30"/>
      </g>
     </g>
    </g>
    <g id="ytick_10">
     <g id="line2d_33">
      <g>
       <use style="stroke:#000000;stroke-width:0.8;" x="40.603125" xlink:href="#m103e5ff554" y="540.215571"/>
      </g>
     </g>
     <g id="text_29">
      <!-- 30 -->
      <defs>
       <path d="M 40.578125 39.3125 
Q 47.65625 37.796875 51.625 33 
Q 55.609375 28.21875 55.609375 21.1875 
Q 55.609375 10.40625 48.1875 4.484375 
Q 40.765625 -1.421875 27.09375 -1.421875 
Q 22.515625 -1.421875 17.65625 -0.515625 
Q 12.796875 0.390625 7.625 2.203125 
L 7.625 11.71875 
Q 11.71875 9.328125 16.59375 8.109375 
Q 21.484375 6.890625 26.8125 6.890625 
Q 36.078125 6.890625 40.9375 10.546875 
Q 45.796875 14.203125 45.796875 21.1875 
Q 45.796875 27.640625 41.28125 31.265625 
Q 36.765625 34.90625 28.71875 34.90625 
L 20.21875 34.90625 
L 20.21875 43.015625 
L 29.109375 43.015625 
Q 36.375 43.015625 40.234375 45.921875 
Q 44.09375 48.828125 44.09375 54.296875 
Q 44.09375 59.90625 40.109375 62.90625 
Q 36.140625 65.921875 28.71875 65.921875 
Q 24.65625 65.921875 20.015625 65.03125 
Q 15.375 64.15625 9.8125 62.3125 
L 9.8125 71.09375 
Q 15.4375 72.65625 20.34375 73.4375 
Q 25.25 74.21875 29.59375 74.21875 
Q 40.828125 74.21875 47.359375 69.109375 
Q 53.90625 64.015625 53.90625 55.328125 
Q 53.90625 49.265625 50.4375 45.09375 
Q 46.96875 40.921875 40.578125 39.3125 
z
" id="DejaVuSans-33"/>
      </defs>
      <g transform="translate(20.878125 544.01479)scale(0.1 -0.1)">
       <use xlink:href="#DejaVuSans-33"/>
       <use x="63.623047" xlink:href="#DejaVuSans-30"/>
      </g>
     </g>
    </g>
    <g id="text_30">
     <!-- Temperature -->
     <defs>
      <path d="M 18.109375 8.203125 
L 18.109375 -20.796875 
L 9.078125 -20.796875 
L 9.078125 54.6875 
L 18.109375 54.6875 
L 18.109375 46.390625 
Q 20.953125 51.265625 25.265625 53.625 
Q 29.59375 56 35.59375 56 
Q 45.5625 56 51.78125 48.09375 
Q 58.015625 40.1875 58.015625 27.296875 
Q 58.015625 14.40625 51.78125 6.484375 
Q 45.5625 -1.421875 35.59375 -1.421875 
Q 29.59375 -1.421875 25.265625 0.953125 
Q 20.953125 3.328125 18.109375 8.203125 
z
M 48.6875 27.296875 
Q 48.6875 37.203125 44.609375 42.84375 
Q 40.53125 48.484375 33.40625 48.484375 
Q 26.265625 48.484375 22.1875 42.84375 
Q 18.109375 37.203125 18.109375 27.296875 
Q 18.109375 17.390625 22.1875 11.75 
Q 26.265625 6.109375 33.40625 6.109375 
Q 40.53125 6.109375 44.609375 11.75 
Q 48.6875 17.390625 48.6875 27.296875 
z
" id="DejaVuSans-70"/>
     </defs>
     <g style="fill:#0000ff;" transform="translate(14.798438 613.557187)rotate(-90)scale(0.1 -0.1)">
      <use xlink:href="#DejaVuSans-54"/>
      <use x="60.818359" xlink:href="#DejaVuSans-65"/>
      <use x="122.341797" xlink:href="#DejaVuSans-6d"/>
      <use x="219.753906" xlink:href="#DejaVuSans-70"/>
      <use x="283.230469" xlink:href="#DejaVuSans-65"/>
      <use x="344.753906" xlink:href="#DejaVuSans-72"/>
      <use x="385.867188" xlink:href="#DejaVuSans-61"/>
      <use x="447.146484" xlink:href="#DejaVuSans-74"/>
      <use x="486.355469" xlink:href="#DejaVuSans-75"/>
      <use x="549.734375" xlink:href="#DejaVuSans-72"/>
      <use x="590.816406" xlink:href="#DejaVuSans-65"/>
     </g>
    </g>
   </g>
   <g id="line2d_34">
    <path clip-path="url(#p0414759cfc)" d="M 91.395852 559.773418 
L 96.375531 548.904748 
L 101.355211 540.316845 
L 106.33489 534.213552 
L 111.314569 527.62492 
L 116.294248 535.611327 
L 121.273927 541.606228 
L 126.253606 541.953407 
L 131.233285 540.825804 
L 136.212965 546.081372 
L 141.192644 554.640478 
L 146.172323 559.151861 
L 151.152002 561.11457 
L 156.131681 550.186689 
L 161.11136 537.581478 
L 166.091039 527.463141 
L 171.070719 530.127326 
L 176.050398 533.138689 
L 181.030077 524.000413 
L 186.009756 535.1907 
L 190.989435 539.657432 
L 195.969114 542.247198 
L 200.948793 550.955788 
L 205.928473 557.325371 
L 210.908152 559.552427 
L 215.887831 543.96562 
L 220.86751 534.484695 
L 225.847189 526.38569 
L 230.826868 534.57885 
L 235.806547 530.900632 
L 240.786227 525.678066 
L 245.765906 527.279359 
L 250.745585 527.587064 
L 255.725264 535.191024 
L 260.704943 545.162141 
L 265.684622 559.693175 
L 270.664301 552.011238 
L 275.643981 545.94839 
L 280.62366 538.933631 
L 285.603339 526.480169 
L 290.583018 527.132787 
L 295.562697 526.6921 
L 300.542376 522.030909 
L 305.522055 527.945891 
L 310.501735 529.186416 
L 315.481414 534.635473 
L 320.461093 547.794941 
L 325.440772 559.319141 
L 330.420451 558.219041 
L 335.40013 548.420704 
L 340.379809 533.216343 
L 345.359489 525.950826 
L 350.339168 525.327975 
L 355.318847 524.921909 
L 360.298526 530.240248 
L 365.278205 534.588233 
L 370.257884 542.942527 
L 375.237564 543.685094 
L 380.217243 550.214191 
L 385.196922 560.86187 
L 390.176601 561.062154 
L 395.15628 546.133789 
L 400.135959 539.044288 
L 405.115638 530.507184 
L 410.095318 523.465893 
L 415.074997 529.365668 
L 420.054676 527.967893 
L 425.034355 528.509854 
L 430.014034 535.252824 
L 434.993713 542.309969 
L 439.973392 544.70107 
L 449.932751 555.940538 
L 454.91243 541.579696 
L 459.892109 532.370884 
L 464.871788 523.710827 
L 469.851467 526.44393 
L 474.831146 536.561943 
L 479.810826 539.668757 
L 484.790505 540.213306 
L 489.770184 546.638217 
L 494.749863 546.910978 
L 499.729542 554.378395 
L 504.709221 559.469273 
L 509.6889 554.950124 
L 514.66858 552.33415 
L 519.648259 540.578281 
L 524.627938 528.48041 
L 529.607617 530.664434 
L 534.587296 526.533556 
L 539.566975 530.694525 
L 544.546654 525.595882 
L 549.526334 528.54674 
L 554.506013 539.62637 
L 559.485692 549.878661 
L 564.465371 557.078819 
L 569.44505 559.63267 
L 574.424729 547.2258 
L 579.404408 530.303989 
L 584.384088 535.323359 
L 589.363767 528.939864 
L 594.343446 540.848129 
L 599.323125 540.990172 
L 604.302804 534.983299 
L 609.282483 542.896258 
L 614.262162 546.144466 
L 619.241842 550.055647 
L 624.221521 557.533743 
L 629.2012 559.209455 
L 634.180879 546.378076 
L 639.160558 534.314503 
L 644.140237 526.4394 
L 649.119916 532.840044 
L 654.099596 532.954908 
L 659.079275 534.847728 
L 664.058954 540.398382 
L 669.038633 543.999594 
L 674.018312 544.243881 
L 678.997991 551.70774 
L 683.97767 561.278938 
L 688.95735 568.829511 
L 693.937029 553.960034 
L 698.916708 536.922388 
L 703.896387 534.345888 
L 708.876066 536.859618 
L 713.855745 529.418084 
L 718.835424 535.705483 
L 723.815104 534.878789 
L 728.794783 536.626332 
L 733.774462 550.769419 
L 738.754141 552.656415 
L 743.73382 564.051515 
L 748.713499 563.232587 
L 753.693178 551.60776 
L 758.672858 536.351306 
L 763.652537 526.188642 
L 768.632216 531.403442 
L 773.611895 533.983825 
L 778.591574 543.052537 
L 783.571253 538.172296 
L 788.550932 535.998627 
L 793.530612 546.266448 
L 798.510291 552.049094 
L 803.48997 560.874166 
L 808.469649 564.755903 
L 813.449328 552.497224 
L 818.429007 534.799194 
L 828.388366 528.582655 
L 833.368045 535.505523 
L 838.347724 530.910986 
L 843.327403 532.393856 
L 848.307082 535.136342 
L 853.286761 543.060949 
L 858.266441 547.137145 
L 863.24612 559.655319 
L 868.225799 558.703732 
L 873.205478 548.67308 
L 878.185157 537.836119 
L 883.164836 529.408054 
L 888.144515 527.871149 
L 893.124195 537.926068 
L 898.103874 537.232358 
L 903.083553 532.072886 
L 908.063232 534.136222 
L 913.042911 542.987825 
L 918.02259 550.815687 
L 923.002269 555.691721 
L 927.981949 558.560719 
L 932.961628 551.334676 
L 937.941307 536.10799 
L 942.920986 531.106415 
L 947.900665 528.573595 
L 952.880344 540.632962 
L 957.860023 537.723197 
L 962.839703 543.703537 
L 967.819382 545.875912 
L 972.799061 550.140096 
L 977.77874 550.779772 
L 982.758419 558.022964 
L 987.738098 560.867047 
L 992.717777 550.735121 
L 997.697457 537.253712 
L 1002.677136 531.358791 
L 1007.656815 535.153491 
L 1012.636494 535.022773 
L 1017.616173 535.627505 
L 1022.595852 526.635477 
L 1027.575531 533.860873 
L 1032.555211 545.664305 
L 1037.53489 543.931323 
L 1042.514569 560.65091 
L 1047.494248 554.402339 
L 1052.473927 542.723154 
L 1057.453606 537.586655 
L 1062.433285 523.745772 
L 1067.412965 528.877417 
L 1072.392644 523.739624 
L 1077.372323 528.419581 
L 1082.352002 527.650482 
L 1087.331681 539.924368 
L 1092.31136 541.467421 
L 1097.291039 554.177142 
L 1102.270719 558.209657 
L 1107.250398 559.988261 
L 1107.250398 559.988261 
" style="fill:none;stroke:#ff0000;stroke-linecap:square;stroke-width:1.5;"/>
   </g>
   <g id="line2d_35">
    <path clip-path="url(#p0414759cfc)" d="M 91.395852 578.507484 
L 96.375531 573.591975 
L 101.355211 564.132728 
L 106.33489 552.69783 
L 111.314569 545.411605 
L 116.294248 553.683391 
L 121.273927 558.989758 
L 126.253606 558.184743 
L 131.233285 558.605694 
L 136.212965 567.037964 
L 141.192644 578.451508 
L 146.172323 581.661213 
L 151.152002 585.682081 
L 156.131681 574.164998 
L 161.11136 560.037119 
L 166.091039 550.057589 
L 171.070719 551.106567 
L 176.050398 550.347821 
L 181.030077 544.493668 
L 186.009756 554.138638 
L 190.989435 558.764885 
L 195.969114 562.569615 
L 200.948793 575.069993 
L 205.928473 582.268533 
L 210.908152 583.567623 
L 215.887831 571.789752 
L 220.86751 561.839342 
L 225.847189 550.323878 
L 230.826868 555.970953 
L 235.806547 551.352472 
L 240.786227 547.82309 
L 245.765906 548.810916 
L 250.745585 550.306729 
L 255.725264 558.565249 
L 265.684622 584.282688 
L 270.664301 580.26635 
L 275.643981 570.316911 
L 280.62366 563.233234 
L 285.603339 553.233644 
L 290.583018 549.839834 
L 295.562697 549.765739 
L 300.542376 544.824022 
L 305.522055 547.869036 
L 310.501735 550.64679 
L 315.481414 557.340902 
L 320.461093 571.647062 
L 325.440772 582.816319 
L 330.420451 583.832941 
L 335.40013 575.492237 
L 340.379809 558.180537 
L 345.359489 549.321492 
L 350.339168 547.559713 
L 355.318847 546.868915 
L 360.298526 550.888165 
L 365.278205 553.587617 
L 370.257884 560.159424 
L 375.237564 564.884032 
L 380.217243 575.578951 
L 385.196922 585.198036 
L 390.176601 587.465214 
L 395.15628 572.930944 
L 400.135959 564.52197 
L 405.115638 553.162137 
L 410.095318 543.416217 
L 415.074997 549.846305 
L 420.054676 547.584951 
L 425.034355 548.270896 
L 430.014034 554.254472 
L 434.993713 562.976005 
L 439.973392 568.841806 
L 444.953072 575.678607 
L 449.932751 581.788695 
L 454.91243 568.3267 
L 459.892109 557.640841 
L 464.871788 546.175528 
L 469.851467 548.854273 
L 474.831146 555.678455 
L 479.810826 555.826969 
L 484.790505 557.724966 
L 489.770184 563.792991 
L 494.749863 566.839299 
L 499.729542 579.288231 
L 504.709221 585.919573 
L 514.66858 578.495188 
L 519.648259 565.156469 
L 524.627938 551.37868 
L 529.607617 552.300823 
L 534.587296 548.659167 
L 539.566975 551.110773 
L 544.546654 549.389439 
L 549.526334 551.643351 
L 554.506013 562.812608 
L 559.485692 576.673875 
L 564.465371 584.964103 
L 569.44505 588.139835 
L 574.424729 578.039294 
L 579.404408 556.992105 
L 584.384088 556.926746 
L 589.363767 552.796192 
L 594.343446 559.926138 
L 599.323125 558.884278 
L 604.302804 555.224179 
L 609.282483 561.067978 
L 614.262162 569.219076 
L 619.241842 573.89515 
L 624.221521 583.365722 
L 629.2012 585.037875 
L 639.160558 562.657299 
L 644.140237 549.026083 
L 649.119916 552.571642 
L 654.099596 550.871987 
L 659.079275 552.93694 
L 664.058954 557.897423 
L 669.038633 562.428543 
L 674.018312 567.420735 
L 678.997991 576.376524 
L 683.97767 584.361636 
L 688.95735 591.730692 
L 693.937029 579.3345 
L 698.916708 560.811395 
L 703.896387 554.657627 
L 708.876066 556.811883 
L 713.855745 549.631462 
L 718.835424 553.148871 
L 723.815104 552.73601 
L 728.794783 555.900417 
L 733.774462 568.084354 
L 738.754141 572.357921 
L 743.73382 589.60491 
L 748.713499 585.652637 
L 753.693178 577.557514 
L 758.672858 560.339323 
L 763.652537 548.303899 
L 768.632216 551.233726 
L 773.611895 552.769337 
L 778.591574 558.474329 
L 783.571253 556.515503 
L 788.550932 555.829881 
L 793.530612 565.211798 
L 798.510291 576.296281 
L 803.48997 588.135628 
L 808.469649 591.023716 
L 813.449328 580.120749 
L 818.429007 561.733862 
L 823.408686 554.740458 
L 828.388366 549.36679 
L 833.368045 553.575969 
L 838.347724 550.371765 
L 843.327403 551.616819 
L 848.307082 555.14976 
L 853.286761 565.484234 
L 858.266441 572.251794 
L 863.24612 584.756378 
L 868.225799 585.115852 
L 873.205478 574.597597 
L 878.185157 562.394246 
L 883.164836 550.950612 
L 888.144515 548.732938 
L 893.124195 555.031985 
L 898.103874 553.347537 
L 903.083553 551.423978 
L 908.063232 554.526262 
L 913.042911 564.910564 
L 918.02259 575.953309 
L 923.002269 581.980889 
L 927.981949 582.108372 
L 932.961628 575.36702 
L 937.941307 559.47089 
L 942.920986 553.354978 
L 947.900665 548.477974 
L 952.880344 555.920478 
L 957.860023 553.647799 
L 962.839703 558.000962 
L 967.819382 562.196875 
L 972.799061 571.070804 
L 977.77874 575.557596 
L 982.758419 583.437228 
L 987.738098 587.77486 
L 992.717777 575.440468 
L 997.697457 561.385712 
L 1002.677136 553.794695 
L 1007.656815 554.234735 
L 1012.636494 553.100661 
L 1017.616173 552.817223 
L 1022.595852 548.242746 
L 1027.575531 553.190287 
L 1032.555211 565.811029 
L 1037.53489 571.710156 
L 1042.514569 585.543274 
L 1047.494248 579.279172 
L 1052.473927 567.201038 
L 1057.453606 559.251841 
L 1062.433285 543.536257 
L 1067.412965 547.178561 
L 1072.392644 543.31009 
L 1077.372323 545.963597 
L 1082.352002 545.96295 
L 1087.331681 556.006868 
L 1092.31136 560.570991 
L 1097.291039 574.406373 
L 1102.270719 579.912377 
L 1107.250398 582.869059 
L 1107.250398 582.869059 
" style="fill:none;stroke:#008000;stroke-linecap:square;stroke-width:1.5;"/>
   </g>
   <g id="line2d_36">
    <path clip-path="url(#p0414759cfc)" d="M 91.395852 607.329245 
L 96.375531 609.117717 
L 101.355211 596.338496 
L 106.33489 580.160546 
L 111.314569 570.091714 
L 116.294248 573.502673 
L 121.273927 578.751771 
L 126.253606 573.447344 
L 131.233285 577.106797 
L 136.212965 592.819145 
L 141.192644 609.894 
L 146.172323 611.530561 
L 151.152002 619.516968 
L 156.131681 610.376685 
L 161.11136 593.351723 
L 166.091039 582.293771 
L 171.070719 580.933529 
L 176.050398 573.283624 
L 186.009756 574.060165 
L 190.989435 580.893731 
L 195.969114 586.783475 
L 200.948793 607.273722 
L 205.928473 616.74672 
L 210.908152 617.537919 
L 215.887831 609.068115 
L 220.86751 596.799244 
L 225.847189 582.629949 
L 230.826868 577.711528 
L 235.806547 577.646817 
L 240.786227 575.348901 
L 245.765906 576.346433 
L 250.745585 578.676381 
L 255.725264 590.616679 
L 260.704943 606.905803 
L 265.684622 616.484152 
L 270.664301 619.091552 
L 275.643981 603.06464 
L 280.62366 596.698617 
L 285.603339 583.735226 
L 290.583018 579.460688 
L 295.562697 573.532117 
L 300.542376 571.146193 
L 305.522055 569.738711 
L 310.501735 579.661942 
L 315.481414 588.421331 
L 320.461093 605.734908 
L 325.440772 611.158112 
L 330.420451 618.891496 
L 335.40013 610.362707 
L 340.379809 592.924625 
L 345.359489 580.790516 
L 350.339168 573.422107 
L 355.318847 572.071572 
L 360.298526 571.974828 
L 365.278205 574.506677 
L 370.257884 577.766857 
L 375.237564 589.825577 
L 380.217243 609.196601 
L 385.196922 616.899278 
L 390.176601 621.632073 
L 395.15628 608.047999 
L 400.135959 599.327534 
L 405.115638 583.672779 
L 410.095318 571.917558 
L 415.074997 572.497375 
L 420.054676 569.621907 
L 425.034355 572.215555 
L 430.014034 576.92528 
L 434.993713 587.254577 
L 439.973392 602.023104 
L 444.953072 609.626772 
L 449.932751 617.545717 
L 454.91243 601.670101 
L 459.892109 594.255747 
L 464.871788 579.088595 
L 469.851467 574.481439 
L 474.831146 575.281277 
L 479.810826 571.769044 
L 484.790505 573.253856 
L 489.770184 581.93462 
L 494.749863 592.792613 
L 499.729542 610.966501 
L 504.709221 618.566513 
L 509.6889 617.979156 
L 514.66858 611.674901 
L 519.648259 600.821406 
L 524.627938 579.002852 
L 529.607617 576.976402 
L 534.587296 572.553675 
L 539.566975 575.126292 
L 544.546654 574.899801 
L 549.526334 578.515896 
L 554.506013 588.403859 
L 559.485692 610.947508 
L 564.465371 618.098841 
L 569.44505 622.946369 
L 574.424729 613.468032 
L 579.404408 591.79411 
L 584.384088 583.185176 
L 589.363767 579.043297 
L 594.343446 577.471448 
L 599.323125 575.687667 
L 604.302804 577.792095 
L 609.282483 582.509585 
L 614.262162 599.883085 
L 619.241842 603.860272 
L 624.221521 616.833661 
L 629.2012 619.084693 
L 639.160558 599.471518 
L 644.140237 578.363176 
L 649.119916 574.691429 
L 654.099596 573.474523 
L 659.079275 571.937942 
L 664.058954 577.03076 
L 669.038633 584.213446 
L 674.018312 597.44345 
L 678.997991 605.735523 
L 683.97767 611.935204 
L 688.95735 621.06002 
L 693.937029 613.340356 
L 698.916708 592.608184 
L 703.896387 580.583438 
L 708.876066 581.062952 
L 713.855745 573.730782 
L 718.835424 571.575232 
L 723.815104 573.231531 
L 728.794783 577.826068 
L 733.774462 585.451059 
L 738.754141 599.249233 
L 743.73382 620.138136 
L 748.713499 614.489476 
L 753.693178 612.329946 
L 758.672858 595.290812 
L 763.652537 579.630233 
L 768.632216 575.96981 
L 778.591574 574.350074 
L 783.571253 578.504248 
L 788.550932 577.524188 
L 793.530612 586.042849 
L 798.510291 606.389273 
L 803.48997 621.077687 
L 808.469649 623.671141 
L 813.449328 614.762624 
L 818.429007 598.334855 
L 823.408686 586.726529 
L 828.388366 575.730377 
L 833.368045 574.575595 
L 838.347724 574.354927 
L 843.327403 573.934948 
L 848.307082 580.151487 
L 853.286761 595.009963 
L 863.24612 618.847071 
L 868.225799 620.282476 
L 873.205478 609.102704 
L 878.185157 594.930691 
L 883.164836 579.351972 
L 888.144515 574.806939 
L 898.103874 573.746313 
L 903.083553 574.420286 
L 908.063232 578.774743 
L 918.02259 607.850272 
L 923.002269 614.827465 
L 927.981949 612.969816 
L 932.961628 608.030041 
L 937.941307 591.716132 
L 942.920986 583.356662 
L 947.900665 573.651187 
L 952.880344 572.728073 
L 957.860023 572.492845 
L 962.839703 575.010458 
L 967.819382 578.615229 
L 972.799061 595.681995 
L 977.77874 605.611049 
L 982.758419 617.94253 
L 987.738098 620.998285 
L 997.697457 594.540479 
L 1002.677136 583.087785 
L 1007.656815 576.05523 
L 1012.636494 572.512583 
L 1017.616173 575.296484 
L 1022.595852 575.186798 
L 1027.575531 576.139032 
L 1032.555211 589.344445 
L 1037.53489 607.524092 
L 1042.514569 617.929199 
L 1047.494248 612.807843 
L 1052.473927 603.61922 
L 1057.453606 589.439571 
L 1062.433285 573.848234 
L 1067.412965 575.482207 
L 1072.392644 565.965366 
L 1077.372323 568.295962 
L 1082.352002 568.027408 
L 1087.331681 575.823562 
L 1092.31136 587.719855 
L 1097.291039 604.044377 
L 1102.270719 612.046735 
L 1107.250398 615.919315 
L 1107.250398 615.919315 
" style="fill:none;stroke:#0000ff;stroke-linecap:square;stroke-width:1.5;"/>
   </g>
   <g id="line2d_37">
    <defs>
     <path d="M 0 3 
C 0.795609 3 1.55874 2.683901 2.12132 2.12132 
C 2.683901 1.55874 3 0.795609 3 0 
C 3 -0.795609 2.683901 -1.55874 2.12132 -2.12132 
C 1.55874 -2.683901 0.795609 -3 0 -3 
C -0.795609 -3 -1.55874 -2.683901 -2.12132 -2.12132 
C -2.683901 -1.55874 -3 -0.795609 -3 0 
C -3 0.795609 -2.683901 1.55874 -2.12132 2.12132 
C -1.55874 2.683901 -0.795609 3 0 3 
z
" id="ma5cf29ba17" style="stroke:#ff0000;"/>
    </defs>
    <g clip-path="url(#p0414759cfc)">
     <use style="fill:#ff0000;stroke:#ff0000;" x="126.253606" xlink:href="#ma5cf29ba17" y="639.849091"/>
     <use style="fill:#ff0000;stroke:#ff0000;" x="365.278205" xlink:href="#ma5cf29ba17" y="639.849091"/>
     <use style="fill:#ff0000;stroke:#ff0000;" x="370.257884" xlink:href="#ma5cf29ba17" y="639.849091"/>
     <use style="fill:#ff0000;stroke:#ff0000;" x="375.237564" xlink:href="#ma5cf29ba17" y="639.849091"/>
     <use style="fill:#ff0000;stroke:#ff0000;" x="380.217243" xlink:href="#ma5cf29ba17" y="639.849091"/>
     <use style="fill:#ff0000;stroke:#ff0000;" x="385.196922" xlink:href="#ma5cf29ba17" y="639.849091"/>
     <use style="fill:#ff0000;stroke:#ff0000;" x="669.038633" xlink:href="#ma5cf29ba17" y="639.849091"/>
     <use style="fill:#ff0000;stroke:#ff0000;" x="678.997991" xlink:href="#ma5cf29ba17" y="639.849091"/>
     <use style="fill:#ff0000;stroke:#ff0000;" x="683.97767" xlink:href="#ma5cf29ba17" y="639.849091"/>
     <use style="fill:#ff0000;stroke:#ff0000;" x="688.95735" xlink:href="#ma5cf29ba17" y="639.849091"/>
     <use style="fill:#ff0000;stroke:#ff0000;" x="713.855745" xlink:href="#ma5cf29ba17" y="639.849091"/>
     <use style="fill:#ff0000;stroke:#ff0000;" x="788.550932" xlink:href="#ma5cf29ba17" y="639.849091"/>
     <use style="fill:#ff0000;stroke:#ff0000;" x="898.103874" xlink:href="#ma5cf29ba17" y="639.849091"/>
     <use style="fill:#ff0000;stroke:#ff0000;" x="1047.494248" xlink:href="#ma5cf29ba17" y="639.849091"/>
     <use style="fill:#ff0000;stroke:#ff0000;" x="1052.473927" xlink:href="#ma5cf29ba17" y="639.849091"/>
     <use style="fill:#ff0000;stroke:#ff0000;" x="1057.453606" xlink:href="#ma5cf29ba17" y="639.849091"/>
     <use style="fill:#ff0000;stroke:#ff0000;" x="1062.433285" xlink:href="#ma5cf29ba17" y="639.849091"/>
     <use style="fill:#ff0000;stroke:#ff0000;" x="1067.412965" xlink:href="#ma5cf29ba17" y="639.849091"/>
     <use style="fill:#ff0000;stroke:#ff0000;" x="1072.392644" xlink:href="#ma5cf29ba17" y="639.849091"/>
    </g>
   </g>
   <g id="patch_9">
    <path d="M 40.603125 645.74 
L 40.603125 516.14 
" style="fill:none;stroke:#000000;stroke-linecap:square;stroke-linejoin:miter;stroke-width:0.8;"/>
   </g>
   <g id="patch_10">
    <path d="M 1158.043125 645.74 
L 1158.043125 516.14 
" style="fill:none;stroke:#000000;stroke-linecap:square;stroke-linejoin:miter;stroke-width:0.8;"/>
   </g>
   <g id="patch_11">
    <path d="M 40.603125 645.74 
L 1158.043125 645.74 
" style="fill:none;stroke:#000000;stroke-linecap:square;stroke-linejoin:miter;stroke-width:0.8;"/>
   </g>
   <g id="patch_12">
    <path d="M 40.603125 516.14 
L 1158.043125 516.14 
" style="fill:none;stroke:#000000;stroke-linecap:square;stroke-linejoin:miter;stroke-width:0.8;"/>
   </g>
   <g id="legend_2">
    <g id="patch_13">
     <path d="M 47.603125 582.8525 
L 138.615625 582.8525 
Q 140.615625 582.8525 140.615625 580.8525 
L 140.615625 523.14 
Q 140.615625 521.14 138.615625 521.14 
L 47.603125 521.14 
Q 45.603125 521.14 45.603125 523.14 
L 45.603125 580.8525 
Q 45.603125 582.8525 47.603125 582.8525 
z
" style="fill:#ffffff;opacity:0.8;stroke:#cccccc;stroke-linejoin:miter;"/>
    </g>
    <g id="line2d_38">
     <path d="M 49.603125 529.238437 
L 69.603125 529.238437 
" style="fill:none;stroke:#ff0000;stroke-linecap:square;stroke-width:1.5;"/>
    </g>
    <g id="line2d_39"/>
    <g id="text_31">
     <!-- Maxmimum -->
     <defs>
      <path d="M 9.8125 72.90625 
L 24.515625 72.90625 
L 43.109375 23.296875 
L 61.8125 72.90625 
L 76.515625 72.90625 
L 76.515625 0 
L 66.890625 0 
L 66.890625 64.015625 
L 48.09375 14.015625 
L 38.1875 14.015625 
L 19.390625 64.015625 
L 19.390625 0 
L 9.8125 0 
z
" id="DejaVuSans-4d"/>
      <path d="M 54.890625 54.6875 
L 35.109375 28.078125 
L 55.90625 0 
L 45.3125 0 
L 29.390625 21.484375 
L 13.484375 0 
L 2.875 0 
L 24.125 28.609375 
L 4.6875 54.6875 
L 15.28125 54.6875 
L 29.78125 35.203125 
L 44.28125 54.6875 
z
" id="DejaVuSans-78"/>
     </defs>
     <g transform="translate(77.603125 532.738437)scale(0.1 -0.1)">
      <use xlink:href="#DejaVuSans-4d"/>
      <use x="86.279297" xlink:href="#DejaVuSans-61"/>
      <use x="147.558594" xlink:href="#DejaVuSans-78"/>
      <use x="206.738281" xlink:href="#DejaVuSans-6d"/>
      <use x="304.150391" xlink:href="#DejaVuSans-69"/>
      <use x="331.933594" xlink:href="#DejaVuSans-6d"/>
      <use x="429.345703" xlink:href="#DejaVuSans-75"/>
      <use x="492.724609" xlink:href="#DejaVuSans-6d"/>
     </g>
    </g>
    <g id="line2d_40">
     <path d="M 49.603125 543.916562 
L 69.603125 543.916562 
" style="fill:none;stroke:#008000;stroke-linecap:square;stroke-width:1.5;"/>
    </g>
    <g id="line2d_41"/>
    <g id="text_32">
     <!-- Average -->
     <defs>
      <path d="M 34.1875 63.1875 
L 20.796875 26.90625 
L 47.609375 26.90625 
z
M 28.609375 72.90625 
L 39.796875 72.90625 
L 67.578125 0 
L 57.328125 0 
L 50.6875 18.703125 
L 17.828125 18.703125 
L 11.1875 0 
L 0.78125 0 
z
" id="DejaVuSans-41"/>
      <path d="M 2.984375 54.6875 
L 12.5 54.6875 
L 29.59375 8.796875 
L 46.6875 54.6875 
L 56.203125 54.6875 
L 35.6875 0 
L 23.484375 0 
z
" id="DejaVuSans-76"/>
     </defs>
     <g transform="translate(77.603125 547.416562)scale(0.1 -0.1)">
      <use xlink:href="#DejaVuSans-41"/>
      <use x="68.330078" xlink:href="#DejaVuSans-76"/>
      <use x="127.509766" xlink:href="#DejaVuSans-65"/>
      <use x="189.033203" xlink:href="#DejaVuSans-72"/>
      <use x="230.146484" xlink:href="#DejaVuSans-61"/>
      <use x="291.425781" xlink:href="#DejaVuSans-67"/>
      <use x="354.902344" xlink:href="#DejaVuSans-65"/>
     </g>
    </g>
    <g id="line2d_42">
     <path d="M 49.603125 558.594687 
L 69.603125 558.594687 
" style="fill:none;stroke:#0000ff;stroke-linecap:square;stroke-width:1.5;"/>
    </g>
    <g id="line2d_43"/>
    <g id="text_33">
     <!-- Minimum -->
     <g transform="translate(77.603125 562.094687)scale(0.1 -0.1)">
      <use xlink:href="#DejaVuSans-4d"/>
      <use x="86.279297" xlink:href="#DejaVuSans-69"/>
      <use x="114.0625" xlink:href="#DejaVuSans-6e"/>
      <use x="177.441406" xlink:href="#DejaVuSans-69"/>
      <use x="205.224609" xlink:href="#DejaVuSans-6d"/>
      <use x="302.636719" xlink:href="#DejaVuSans-75"/>
      <use x="366.015625" xlink:href="#DejaVuSans-6d"/>
     </g>
    </g>
    <g id="line2d_44"/>
    <g id="line2d_45">
     <g>
      <use style="fill:#ff0000;stroke:#ff0000;" x="59.603125" xlink:href="#ma5cf29ba17" y="573.272812"/>
     </g>
    </g>
    <g id="text_34">
     <!-- Disasters -->
     <g transform="translate(77.603125 576.772812)scale(0.1 -0.1)">
      <use xlink:href="#DejaVuSans-44"/>
      <use x="77.001953" xlink:href="#DejaVuSans-69"/>
      <use x="104.785156" xlink:href="#DejaVuSans-73"/>
      <use x="156.884766" xlink:href="#DejaVuSans-61"/>
      <use x="218.164062" xlink:href="#DejaVuSans-73"/>
      <use x="270.263672" xlink:href="#DejaVuSans-74"/>
      <use x="309.472656" xlink:href="#DejaVuSans-65"/>
      <use x="370.996094" xlink:href="#DejaVuSans-72"/>
      <use x="412.109375" xlink:href="#DejaVuSans-73"/>
     </g>
    </g>
   </g>
  </g>
 </g>
 <defs>
  <clipPath id="p21843923e3">
   <rect height="498.96" width="1116" x="40.603125" y="10.7"/>
  </clipPath>
  <clipPath id="p0414759cfc">
   <rect height="129.6" width="1117.44" x="40.603125" y="516.14"/>
  </clipPath>
 </defs>
</svg>
