<?xml version="1.0" encoding="utf-8" standalone="no"?>
<!DOCTYPE svg PUBLIC "-//W3C//DTD SVG 1.1//EN"
  "http://www.w3.org/Graphics/SVG/1.1/DTD/svg11.dtd">
<!-- Created with matplotlib (http://matplotlib.org/) -->
<svg height="669pt" version="1.1" viewBox="0 0 1175 669" width="1175pt" xmlns="http://www.w3.org/2000/svg" xmlns:xlink="http://www.w3.org/1999/xlink">
 <defs>
  <style type="text/css">
*{stroke-linecap:butt;stroke-linejoin:round;}
  </style>
 </defs>
 <g id="figure_1">
  <g id="patch_1">
   <path d="M 0 669.618125 
L 1175.105625 669.618125 
L 1175.105625 -0 
L 0 -0 
z
" style="fill:none;"/>
  </g>
  <g id="axes_1">
   <g id="patch_2">
    <path d="M 46.965625 509.66 
L 1162.965625 509.66 
L 1162.965625 10.7 
L 46.965625 10.7 
z
" style="fill:none;"/>
   </g>
   <g id="matplotlib.axis_1">
    <g id="xtick_1">
     <g id="line2d_1">
      <defs>
       <path d="M 0 0 
L 0 3.5 
" id="m861d146eed" style="stroke:#000000;stroke-width:0.8;"/>
      </defs>
      <g>
       <use style="stroke:#000000;stroke-width:0.8;" x="97.692898" xlink:href="#m861d146eed" y="509.66"/>
      </g>
     </g>
     <g id="text_1">
      <!-- 0 -->
      <defs>
       <path d="M 31.78125 66.40625 
Q 24.171875 66.40625 20.328125 58.90625 
Q 16.5 51.421875 16.5 36.375 
Q 16.5 21.390625 20.328125 13.890625 
Q 24.171875 6.390625 31.78125 6.390625 
Q 39.453125 6.390625 43.28125 13.890625 
Q 47.125 21.390625 47.125 36.375 
Q 47.125 51.421875 43.28125 58.90625 
Q 39.453125 66.40625 31.78125 66.40625 
z
M 31.78125 74.21875 
Q 44.046875 74.21875 50.515625 64.515625 
Q 56.984375 54.828125 56.984375 36.375 
Q 56.984375 17.96875 50.515625 8.265625 
Q 44.046875 -1.421875 31.78125 -1.421875 
Q 19.53125 -1.421875 13.0625 8.265625 
Q 6.59375 17.96875 6.59375 36.375 
Q 6.59375 54.828125 13.0625 64.515625 
Q 19.53125 74.21875 31.78125 74.21875 
z
" id="DejaVuSans-30"/>
      </defs>
      <g transform="translate(94.511648 524.258437)scale(0.1 -0.1)">
       <use xlink:href="#DejaVuSans-30"/>
      </g>
     </g>
    </g>
    <g id="xtick_2">
     <g id="line2d_2">
      <g>
       <use style="stroke:#000000;stroke-width:0.8;" x="340.407121" xlink:href="#m861d146eed" y="509.66"/>
      </g>
     </g>
     <g id="text_2">
      <!-- 50 -->
      <defs>
       <path d="M 10.796875 72.90625 
L 49.515625 72.90625 
L 49.515625 64.59375 
L 19.828125 64.59375 
L 19.828125 46.734375 
Q 21.96875 47.46875 24.109375 47.828125 
Q 26.265625 48.1875 28.421875 48.1875 
Q 40.625 48.1875 47.75 41.5 
Q 54.890625 34.8125 54.890625 23.390625 
Q 54.890625 11.625 47.5625 5.09375 
Q 40.234375 -1.421875 26.90625 -1.421875 
Q 22.3125 -1.421875 17.546875 -0.640625 
Q 12.796875 0.140625 7.71875 1.703125 
L 7.71875 11.625 
Q 12.109375 9.234375 16.796875 8.0625 
Q 21.484375 6.890625 26.703125 6.890625 
Q 35.15625 6.890625 40.078125 11.328125 
Q 45.015625 15.765625 45.015625 23.390625 
Q 45.015625 31 40.078125 35.4375 
Q 35.15625 39.890625 26.703125 39.890625 
Q 22.75 39.890625 18.8125 39.015625 
Q 14.890625 38.140625 10.796875 36.28125 
z
" id="DejaVuSans-35"/>
      </defs>
      <g transform="translate(334.044621 524.258437)scale(0.1 -0.1)">
       <use xlink:href="#DejaVuSans-35"/>
       <use x="63.623047" xlink:href="#DejaVuSans-30"/>
      </g>
     </g>
    </g>
    <g id="xtick_3">
     <g id="line2d_3">
      <g>
       <use style="stroke:#000000;stroke-width:0.8;" x="583.121345" xlink:href="#m861d146eed" y="509.66"/>
      </g>
     </g>
     <g id="text_3">
      <!-- 100 -->
      <defs>
       <path d="M 12.40625 8.296875 
L 28.515625 8.296875 
L 28.515625 63.921875 
L 10.984375 60.40625 
L 10.984375 69.390625 
L 28.421875 72.90625 
L 38.28125 72.90625 
L 38.28125 8.296875 
L 54.390625 8.296875 
L 54.390625 0 
L 12.40625 0 
z
" id="DejaVuSans-31"/>
      </defs>
      <g transform="translate(573.577595 524.258437)scale(0.1 -0.1)">
       <use xlink:href="#DejaVuSans-31"/>
       <use x="63.623047" xlink:href="#DejaVuSans-30"/>
       <use x="127.246094" xlink:href="#DejaVuSans-30"/>
      </g>
     </g>
    </g>
    <g id="xtick_4">
     <g id="line2d_4">
      <g>
       <use style="stroke:#000000;stroke-width:0.8;" x="825.835568" xlink:href="#m861d146eed" y="509.66"/>
      </g>
     </g>
     <g id="text_4">
      <!-- 150 -->
      <g transform="translate(816.291818 524.258437)scale(0.1 -0.1)">
       <use xlink:href="#DejaVuSans-31"/>
       <use x="63.623047" xlink:href="#DejaVuSans-35"/>
       <use x="127.246094" xlink:href="#DejaVuSans-30"/>
      </g>
     </g>
    </g>
    <g id="xtick_5">
     <g id="line2d_5">
      <g>
       <use style="stroke:#000000;stroke-width:0.8;" x="1068.549792" xlink:href="#m861d146eed" y="509.66"/>
      </g>
     </g>
     <g id="text_5">
      <!-- 200 -->
      <defs>
       <path d="M 19.1875 8.296875 
L 53.609375 8.296875 
L 53.609375 0 
L 7.328125 0 
L 7.328125 8.296875 
Q 12.9375 14.109375 22.625 23.890625 
Q 32.328125 33.6875 34.8125 36.53125 
Q 39.546875 41.84375 41.421875 45.53125 
Q 43.3125 49.21875 43.3125 52.78125 
Q 43.3125 58.59375 39.234375 62.25 
Q 35.15625 65.921875 28.609375 65.921875 
Q 23.96875 65.921875 18.8125 64.3125 
Q 13.671875 62.703125 7.8125 59.421875 
L 7.8125 69.390625 
Q 13.765625 71.78125 18.9375 73 
Q 24.125 74.21875 28.421875 74.21875 
Q 39.75 74.21875 46.484375 68.546875 
Q 53.21875 62.890625 53.21875 53.421875 
Q 53.21875 48.921875 51.53125 44.890625 
Q 49.859375 40.875 45.40625 35.40625 
Q 44.1875 33.984375 37.640625 27.21875 
Q 31.109375 20.453125 19.1875 8.296875 
z
" id="DejaVuSans-32"/>
      </defs>
      <g transform="translate(1059.006042 524.258437)scale(0.1 -0.1)">
       <use xlink:href="#DejaVuSans-32"/>
       <use x="63.623047" xlink:href="#DejaVuSans-30"/>
       <use x="127.246094" xlink:href="#DejaVuSans-30"/>
      </g>
     </g>
    </g>
    <g id="text_6">
     <!-- Time -->
     <defs>
      <path d="M -0.296875 72.90625 
L 61.375 72.90625 
L 61.375 64.59375 
L 35.5 64.59375 
L 35.5 0 
L 25.59375 0 
L 25.59375 64.59375 
L -0.296875 64.59375 
z
" id="DejaVuSans-54"/>
      <path d="M 9.421875 54.6875 
L 18.40625 54.6875 
L 18.40625 0 
L 9.421875 0 
z
M 9.421875 75.984375 
L 18.40625 75.984375 
L 18.40625 64.59375 
L 9.421875 64.59375 
z
" id="DejaVuSans-69"/>
      <path d="M 52 44.1875 
Q 55.375 50.25 60.0625 53.125 
Q 64.75 56 71.09375 56 
Q 79.640625 56 84.28125 50.015625 
Q 88.921875 44.046875 88.921875 33.015625 
L 88.921875 0 
L 79.890625 0 
L 79.890625 32.71875 
Q 79.890625 40.578125 77.09375 44.375 
Q 74.3125 48.1875 68.609375 48.1875 
Q 61.625 48.1875 57.5625 43.546875 
Q 53.515625 38.921875 53.515625 30.90625 
L 53.515625 0 
L 44.484375 0 
L 44.484375 32.71875 
Q 44.484375 40.625 41.703125 44.40625 
Q 38.921875 48.1875 33.109375 48.1875 
Q 26.21875 48.1875 22.15625 43.53125 
Q 18.109375 38.875 18.109375 30.90625 
L 18.109375 0 
L 9.078125 0 
L 9.078125 54.6875 
L 18.109375 54.6875 
L 18.109375 46.1875 
Q 21.1875 51.21875 25.484375 53.609375 
Q 29.78125 56 35.6875 56 
Q 41.65625 56 45.828125 52.96875 
Q 50 49.953125 52 44.1875 
z
" id="DejaVuSans-6d"/>
      <path d="M 56.203125 29.59375 
L 56.203125 25.203125 
L 14.890625 25.203125 
Q 15.484375 15.921875 20.484375 11.0625 
Q 25.484375 6.203125 34.421875 6.203125 
Q 39.59375 6.203125 44.453125 7.46875 
Q 49.3125 8.734375 54.109375 11.28125 
L 54.109375 2.78125 
Q 49.265625 0.734375 44.1875 -0.34375 
Q 39.109375 -1.421875 33.890625 -1.421875 
Q 20.796875 -1.421875 13.15625 6.1875 
Q 5.515625 13.8125 5.515625 26.8125 
Q 5.515625 40.234375 12.765625 48.109375 
Q 20.015625 56 32.328125 56 
Q 43.359375 56 49.78125 48.890625 
Q 56.203125 41.796875 56.203125 29.59375 
z
M 47.21875 32.234375 
Q 47.125 39.59375 43.09375 43.984375 
Q 39.0625 48.390625 32.421875 48.390625 
Q 24.90625 48.390625 20.390625 44.140625 
Q 15.875 39.890625 15.1875 32.171875 
z
" id="DejaVuSans-65"/>
     </defs>
     <g transform="translate(592.578125 537.936562)scale(0.1 -0.1)">
      <use xlink:href="#DejaVuSans-54"/>
      <use x="61.037109" xlink:href="#DejaVuSans-69"/>
      <use x="88.820312" xlink:href="#DejaVuSans-6d"/>
      <use x="186.232422" xlink:href="#DejaVuSans-65"/>
     </g>
    </g>
   </g>
   <g id="matplotlib.axis_2">
    <g id="ytick_1">
     <g id="line2d_6">
      <defs>
       <path d="M 0 0 
L -3.5 0 
" id="m1039db0e2c" style="stroke:#000000;stroke-width:0.8;"/>
      </defs>
      <g>
       <use style="stroke:#000000;stroke-width:0.8;" x="46.965625" xlink:href="#m1039db0e2c" y="486.98"/>
      </g>
     </g>
     <g id="text_7">
      <!-- 0 -->
      <g transform="translate(33.603125 490.779219)scale(0.1 -0.1)">
       <use xlink:href="#DejaVuSans-30"/>
      </g>
     </g>
    </g>
    <g id="ytick_2">
     <g id="line2d_7">
      <g>
       <use style="stroke:#000000;stroke-width:0.8;" x="46.965625" xlink:href="#m1039db0e2c" y="429.122857"/>
      </g>
     </g>
     <g id="text_8">
      <!-- 25 -->
      <g transform="translate(27.240625 432.922076)scale(0.1 -0.1)">
       <use xlink:href="#DejaVuSans-32"/>
       <use x="63.623047" xlink:href="#DejaVuSans-35"/>
      </g>
     </g>
    </g>
    <g id="ytick_3">
     <g id="line2d_8">
      <g>
       <use style="stroke:#000000;stroke-width:0.8;" x="46.965625" xlink:href="#m1039db0e2c" y="371.265714"/>
      </g>
     </g>
     <g id="text_9">
      <!-- 50 -->
      <g transform="translate(27.240625 375.064933)scale(0.1 -0.1)">
       <use xlink:href="#DejaVuSans-35"/>
       <use x="63.623047" xlink:href="#DejaVuSans-30"/>
      </g>
     </g>
    </g>
    <g id="ytick_4">
     <g id="line2d_9">
      <g>
       <use style="stroke:#000000;stroke-width:0.8;" x="46.965625" xlink:href="#m1039db0e2c" y="313.408571"/>
      </g>
     </g>
     <g id="text_10">
      <!-- 75 -->
      <defs>
       <path d="M 8.203125 72.90625 
L 55.078125 72.90625 
L 55.078125 68.703125 
L 28.609375 0 
L 18.3125 0 
L 43.21875 64.59375 
L 8.203125 64.59375 
z
" id="DejaVuSans-37"/>
      </defs>
      <g transform="translate(27.240625 317.20779)scale(0.1 -0.1)">
       <use xlink:href="#DejaVuSans-37"/>
       <use x="63.623047" xlink:href="#DejaVuSans-35"/>
      </g>
     </g>
    </g>
    <g id="ytick_5">
     <g id="line2d_10">
      <g>
       <use style="stroke:#000000;stroke-width:0.8;" x="46.965625" xlink:href="#m1039db0e2c" y="255.551429"/>
      </g>
     </g>
     <g id="text_11">
      <!-- 100 -->
      <g transform="translate(20.878125 259.350647)scale(0.1 -0.1)">
       <use xlink:href="#DejaVuSans-31"/>
       <use x="63.623047" xlink:href="#DejaVuSans-30"/>
       <use x="127.246094" xlink:href="#DejaVuSans-30"/>
      </g>
     </g>
    </g>
    <g id="ytick_6">
     <g id="line2d_11">
      <g>
       <use style="stroke:#000000;stroke-width:0.8;" x="46.965625" xlink:href="#m1039db0e2c" y="197.694286"/>
      </g>
     </g>
     <g id="text_12">
      <!-- 125 -->
      <g transform="translate(20.878125 201.493504)scale(0.1 -0.1)">
       <use xlink:href="#DejaVuSans-31"/>
       <use x="63.623047" xlink:href="#DejaVuSans-32"/>
       <use x="127.246094" xlink:href="#DejaVuSans-35"/>
      </g>
     </g>
    </g>
    <g id="ytick_7">
     <g id="line2d_12">
      <g>
       <use style="stroke:#000000;stroke-width:0.8;" x="46.965625" xlink:href="#m1039db0e2c" y="139.837143"/>
      </g>
     </g>
     <g id="text_13">
      <!-- 150 -->
      <g transform="translate(20.878125 143.636362)scale(0.1 -0.1)">
       <use xlink:href="#DejaVuSans-31"/>
       <use x="63.623047" xlink:href="#DejaVuSans-35"/>
       <use x="127.246094" xlink:href="#DejaVuSans-30"/>
      </g>
     </g>
    </g>
    <g id="ytick_8">
     <g id="line2d_13">
      <g>
       <use style="stroke:#000000;stroke-width:0.8;" x="46.965625" xlink:href="#m1039db0e2c" y="81.98"/>
      </g>
     </g>
     <g id="text_14">
      <!-- 175 -->
      <g transform="translate(20.878125 85.779219)scale(0.1 -0.1)">
       <use xlink:href="#DejaVuSans-31"/>
       <use x="63.623047" xlink:href="#DejaVuSans-37"/>
       <use x="127.246094" xlink:href="#DejaVuSans-35"/>
      </g>
     </g>
    </g>
    <g id="ytick_9">
     <g id="line2d_14">
      <g>
       <use style="stroke:#000000;stroke-width:0.8;" x="46.965625" xlink:href="#m1039db0e2c" y="24.122857"/>
      </g>
     </g>
     <g id="text_15">
      <!-- 200 -->
      <g transform="translate(20.878125 27.922076)scale(0.1 -0.1)">
       <use xlink:href="#DejaVuSans-32"/>
       <use x="63.623047" xlink:href="#DejaVuSans-30"/>
       <use x="127.246094" xlink:href="#DejaVuSans-30"/>
      </g>
     </g>
    </g>
    <g id="text_16">
     <!-- Refugees -->
     <defs>
      <path d="M 44.390625 34.1875 
Q 47.5625 33.109375 50.5625 29.59375 
Q 53.5625 26.078125 56.59375 19.921875 
L 66.609375 0 
L 56 0 
L 46.6875 18.703125 
Q 43.0625 26.03125 39.671875 28.421875 
Q 36.28125 30.8125 30.421875 30.8125 
L 19.671875 30.8125 
L 19.671875 0 
L 9.8125 0 
L 9.8125 72.90625 
L 32.078125 72.90625 
Q 44.578125 72.90625 50.734375 67.671875 
Q 56.890625 62.453125 56.890625 51.90625 
Q 56.890625 45.015625 53.6875 40.46875 
Q 50.484375 35.9375 44.390625 34.1875 
z
M 19.671875 64.796875 
L 19.671875 38.921875 
L 32.078125 38.921875 
Q 39.203125 38.921875 42.84375 42.21875 
Q 46.484375 45.515625 46.484375 51.90625 
Q 46.484375 58.296875 42.84375 61.546875 
Q 39.203125 64.796875 32.078125 64.796875 
z
" id="DejaVuSans-52"/>
      <path d="M 37.109375 75.984375 
L 37.109375 68.5 
L 28.515625 68.5 
Q 23.6875 68.5 21.796875 66.546875 
Q 19.921875 64.59375 19.921875 59.515625 
L 19.921875 54.6875 
L 34.71875 54.6875 
L 34.71875 47.703125 
L 19.921875 47.703125 
L 19.921875 0 
L 10.890625 0 
L 10.890625 47.703125 
L 2.296875 47.703125 
L 2.296875 54.6875 
L 10.890625 54.6875 
L 10.890625 58.5 
Q 10.890625 67.625 15.140625 71.796875 
Q 19.390625 75.984375 28.609375 75.984375 
z
" id="DejaVuSans-66"/>
      <path d="M 8.5 21.578125 
L 8.5 54.6875 
L 17.484375 54.6875 
L 17.484375 21.921875 
Q 17.484375 14.15625 20.5 10.265625 
Q 23.53125 6.390625 29.59375 6.390625 
Q 36.859375 6.390625 41.078125 11.03125 
Q 45.3125 15.671875 45.3125 23.6875 
L 45.3125 54.6875 
L 54.296875 54.6875 
L 54.296875 0 
L 45.3125 0 
L 45.3125 8.40625 
Q 42.046875 3.421875 37.71875 1 
Q 33.40625 -1.421875 27.6875 -1.421875 
Q 18.265625 -1.421875 13.375 4.4375 
Q 8.5 10.296875 8.5 21.578125 
z
M 31.109375 56 
z
" id="DejaVuSans-75"/>
      <path d="M 45.40625 27.984375 
Q 45.40625 37.75 41.375 43.109375 
Q 37.359375 48.484375 30.078125 48.484375 
Q 22.859375 48.484375 18.828125 43.109375 
Q 14.796875 37.75 14.796875 27.984375 
Q 14.796875 18.265625 18.828125 12.890625 
Q 22.859375 7.515625 30.078125 7.515625 
Q 37.359375 7.515625 41.375 12.890625 
Q 45.40625 18.265625 45.40625 27.984375 
z
M 54.390625 6.78125 
Q 54.390625 -7.171875 48.1875 -13.984375 
Q 42 -20.796875 29.203125 -20.796875 
Q 24.46875 -20.796875 20.265625 -20.09375 
Q 16.0625 -19.390625 12.109375 -17.921875 
L 12.109375 -9.1875 
Q 16.0625 -11.328125 19.921875 -12.34375 
Q 23.78125 -13.375 27.78125 -13.375 
Q 36.625 -13.375 41.015625 -8.765625 
Q 45.40625 -4.15625 45.40625 5.171875 
L 45.40625 9.625 
Q 42.625 4.78125 38.28125 2.390625 
Q 33.9375 0 27.875 0 
Q 17.828125 0 11.671875 7.65625 
Q 5.515625 15.328125 5.515625 27.984375 
Q 5.515625 40.671875 11.671875 48.328125 
Q 17.828125 56 27.875 56 
Q 33.9375 56 38.28125 53.609375 
Q 42.625 51.21875 45.40625 46.390625 
L 45.40625 54.6875 
L 54.390625 54.6875 
z
" id="DejaVuSans-67"/>
      <path d="M 44.28125 53.078125 
L 44.28125 44.578125 
Q 40.484375 46.53125 36.375 47.5 
Q 32.28125 48.484375 27.875 48.484375 
Q 21.1875 48.484375 17.84375 46.4375 
Q 14.5 44.390625 14.5 40.28125 
Q 14.5 37.15625 16.890625 35.375 
Q 19.28125 33.59375 26.515625 31.984375 
L 29.59375 31.296875 
Q 39.15625 29.25 43.1875 25.515625 
Q 47.21875 21.78125 47.21875 15.09375 
Q 47.21875 7.46875 41.1875 3.015625 
Q 35.15625 -1.421875 24.609375 -1.421875 
Q 20.21875 -1.421875 15.453125 -0.5625 
Q 10.6875 0.296875 5.421875 2 
L 5.421875 11.28125 
Q 10.40625 8.6875 15.234375 7.390625 
Q 20.0625 6.109375 24.8125 6.109375 
Q 31.15625 6.109375 34.5625 8.28125 
Q 37.984375 10.453125 37.984375 14.40625 
Q 37.984375 18.0625 35.515625 20.015625 
Q 33.0625 21.96875 24.703125 23.78125 
L 21.578125 24.515625 
Q 13.234375 26.265625 9.515625 29.90625 
Q 5.8125 33.546875 5.8125 39.890625 
Q 5.8125 47.609375 11.28125 51.796875 
Q 16.75 56 26.8125 56 
Q 31.78125 56 36.171875 55.265625 
Q 40.578125 54.546875 44.28125 53.078125 
z
" id="DejaVuSans-73"/>
     </defs>
     <g style="fill:#ff7f0e;" transform="translate(14.798438 283.588594)rotate(-90)scale(0.1 -0.1)">
      <use xlink:href="#DejaVuSans-52"/>
      <use x="69.419922" xlink:href="#DejaVuSans-65"/>
      <use x="130.943359" xlink:href="#DejaVuSans-66"/>
      <use x="166.148438" xlink:href="#DejaVuSans-75"/>
      <use x="229.527344" xlink:href="#DejaVuSans-67"/>
      <use x="293.003906" xlink:href="#DejaVuSans-65"/>
      <use x="354.527344" xlink:href="#DejaVuSans-65"/>
      <use x="416.050781" xlink:href="#DejaVuSans-73"/>
     </g>
    </g>
   </g>
   <g id="line2d_15">
    <path clip-path="url(#pc1c37fb058)" d="M 97.692898 478.39746 
L 102.547182 478.389483 
L 112.255751 486.98 
L 117.110036 486.98 
L 121.96432 465.214697 
L 126.818605 480.872791 
L 131.672889 484.129622 
L 136.527173 486.98 
L 146.235742 486.98 
L 151.090027 466.709538 
L 155.944311 475.025504 
L 160.798596 471.168963 
L 165.65288 474.100598 
L 170.507165 484.953641 
L 175.361449 484.076331 
L 180.215734 462.337451 
L 185.070018 451.056862 
L 189.924303 444.857787 
L 194.778587 446.81337 
L 199.632872 457.69895 
L 204.487156 458.277005 
L 209.341441 436.999735 
L 214.195725 386.513467 
L 219.05001 380.034078 
L 223.904294 382.396231 
L 228.758578 392.885001 
L 233.612863 394.184615 
L 238.467147 371.742248 
L 243.321432 393.386996 
L 248.175716 386.937482 
L 253.030001 389.256341 
L 257.884285 399.787354 
L 262.73857 401.010109 
L 272.447139 356.77723 
L 277.301423 350.168683 
L 282.155708 352.718164 
L 287.009992 363.024117 
L 291.864277 364.656134 
L 296.718561 341.676998 
L 301.572846 315.320375 
L 306.42713 308.531819 
L 311.281414 311.342414 
L 316.135699 321.393521 
L 320.989983 323.488971 
L 325.844268 299.761521 
L 330.698552 341.516694 
L 335.552837 334.841881 
L 340.407121 337.487493 
L 345.261406 347.699611 
L 350.11569 349.502244 
L 354.969975 326.24762 
L 359.824259 289.136734 
L 364.678544 282.234434 
L 369.532828 285.21003 
L 374.387113 295.100073 
L 379.241397 297.488305 
L 384.095682 273.288171 
L 388.949966 229.095293 
L 393.80425 253.411625 
L 403.512819 346.994212 
L 408.367104 367.019002 
L 413.221388 353.366593 
L 418.075673 390.716744 
L 422.929957 384.255612 
L 427.784242 386.591271 
L 432.638526 397.105873 
L 437.492811 398.358503 
L 442.347095 375.992033 
L 447.20138 422.552183 
L 452.055664 416.229311 
L 456.909949 418.364449 
L 461.764233 429.074774 
L 466.618518 429.971504 
L 471.472802 408.179686 
L 476.327087 419.361804 
L 481.181371 413.025093 
L 486.035655 415.18032 
L 490.88994 425.87105 
L 495.744224 426.803416 
L 500.598509 404.954002 
L 505.452793 429.104234 
L 510.307078 422.809833 
L 515.161362 424.903703 
L 520.015647 435.654307 
L 524.869931 436.477758 
L 529.724216 414.804225 
L 534.5785 403.951027 
L 539.432785 397.547367 
L 544.287069 399.799661 
L 549.141354 410.395651 
L 553.995638 411.500327 
L 558.849923 389.372724 
L 563.704207 377.151489 
L 568.558491 370.631436 
L 573.412776 373.052571 
L 578.26706 383.483772 
L 583.121345 384.888036 
L 587.975629 362.276687 
L 592.829914 416.571267 
L 597.684198 410.22243 
L 602.538483 412.395234 
L 607.392767 423.06882 
L 612.247052 424.032389 
L 617.101336 402.132601 
L 621.955621 426.034577 
L 626.809905 419.726823 
L 631.66419 421.840027 
L 636.518474 432.571787 
L 641.372759 433.429571 
L 646.227043 411.700597 
L 651.081327 401.907691 
L 655.935612 395.495185 
L 660.789896 397.760394 
L 665.644181 408.343768 
L 670.498465 409.471257 
L 675.35275 387.306796 
L 680.207034 434.389097 
L 685.061319 428.117645 
L 689.915603 430.178214 
L 694.769888 440.961315 
L 699.624172 441.725705 
L 704.478457 420.147553 
L 709.332741 385.968708 
L 714.187026 379.486971 
L 719.04131 381.852567 
L 723.895595 392.337991 
L 728.749879 393.643661 
L 733.604163 371.191477 
L 738.458448 373.146707 
L 743.312732 366.609245 
L 748.167017 369.055655 
L 753.021301 379.462225 
L 757.875586 380.911258 
L 762.72987 358.227614 
L 767.584155 394.363936 
L 772.438439 387.918659 
L 777.292724 390.231356 
L 782.147008 400.768417 
L 787.001293 401.980233 
L 791.855577 379.679578 
L 796.709862 380.766554 
L 801.564146 374.262233 
L 806.418431 376.660617 
L 811.272715 387.114021 
L 816.127 388.477843 
L 820.981284 365.931744 
L 825.835568 382.862259 
L 830.689853 376.367032 
L 835.544137 378.752209 
L 840.398422 389.218511 
L 845.252706 390.558921 
L 850.106991 368.050651 
L 854.961275 388.992516 
L 859.81556 382.523915 
L 864.669844 384.87045 
L 869.524129 395.374458 
L 874.378413 396.646333 
L 879.232698 374.248726 
L 884.086982 385.206844 
L 888.941267 378.721778 
L 893.795551 381.092168 
L 898.649836 391.572913 
L 903.50412 392.887111 
L 908.358404 370.421164 
L 913.212689 417.339823 
L 918.066973 410.994306 
L 922.921258 413.162289 
L 927.775542 423.840577 
L 932.629827 424.795565 
L 937.484111 402.909668 
L 942.338396 369.514877 
L 947.19268 362.961666 
L 952.046965 365.430915 
L 956.901249 375.815149 
L 961.755534 377.304801 
L 966.609818 354.555589 
L 971.464103 360.576595 
L 976.318387 353.984583 
L 981.172672 356.510104 
L 986.026956 366.839443 
L 990.88124 368.42897 
L 995.735525 345.518421 
L 1000.589809 369.796041 
L 1005.444094 363.244057 
L 1010.298378 365.711549 
L 1015.152663 376.097513 
L 1020.006947 377.584005 
L 1024.861232 354.839851 
L 1029.715516 196.584604 
L 1034.569801 186.733846 
L 1039.424085 189.762165 
L 1044.27837 200.367389 
L 1049.132654 206.211546 
L 1053.986939 182.22428 
L 1058.841223 200.024374 
L 1063.695508 192.735059 
L 1068.549792 196.271994 
L 1073.404077 205.614241 
L 1078.258361 208.998623 
L 1083.112645 183.189955 
L 1087.96693 96.002694 
L 1092.821214 76.247891 
L 1097.675499 77.938652 
L 1102.529783 92.699604 
L 1107.384068 108.669856 
L 1112.238352 89.869463 
L 1112.238352 89.869463 
" style="fill:none;stroke:#008000;stroke-dasharray:5.55,2.4;stroke-dashoffset:0;stroke-width:1.5;"/>
   </g>
   <g id="line2d_16">
    <path clip-path="url(#pc1c37fb058)" d="M 97.692898 468.465714 
L 102.547182 470.78 
L 107.401467 436.065714 
L 112.255751 477.722857 
L 117.110036 456.894286 
L 121.96432 486.98 
L 126.818605 449.951429 
L 131.672889 468.465714 
L 136.527173 473.094286 
L 141.381458 456.894286 
L 146.235742 426.808571 
L 151.090027 440.694286 
L 155.944311 456.894286 
L 160.798596 456.894286 
L 165.65288 410.608571 
L 170.507165 399.037143 
L 175.361449 410.608571 
L 180.215734 417.551429 
L 185.070018 401.351429 
L 189.924303 396.722857 
L 194.778587 412.922857 
L 199.632872 396.722857 
L 204.487156 375.894286 
L 209.341441 389.78 
L 214.195725 373.58 
L 219.05001 408.294286 
L 223.904294 449.951429 
L 228.758578 357.38 
L 233.612863 403.665714 
L 238.467147 394.408571 
L 243.321432 449.951429 
L 248.175716 412.922857 
L 253.030001 403.665714 
L 257.884285 359.694286 
L 262.73857 352.751429 
L 267.592854 373.58 
L 272.447139 364.322857 
L 277.301423 368.951429 
L 282.155708 410.608571 
L 287.009992 269.437143 
L 291.864277 331.922857 
L 296.718561 322.665714 
L 301.572846 355.065714 
L 306.42713 382.837143 
L 311.281414 329.608571 
L 316.135699 334.237143 
L 320.989983 329.608571 
L 325.844268 334.237143 
L 330.698552 362.008571 
L 335.552837 410.608571 
L 340.407121 322.665714 
L 345.261406 287.951429 
L 350.11569 373.58 
L 354.969975 294.894286 
L 359.824259 313.408571 
L 364.678544 278.694286 
L 369.532828 190.751429 
L 374.387113 285.637143 
L 379.241397 146.78 
L 384.095682 58.837143 
L 388.949966 137.522857 
L 393.80425 331.922857 
L 398.658535 424.494286 
L 403.512819 424.494286 
L 408.367104 415.237143 
L 413.221388 424.494286 
L 418.075673 415.237143 
L 422.929957 417.551429 
L 427.784242 415.237143 
L 432.638526 422.18 
L 437.492811 417.551429 
L 442.347095 387.465714 
L 447.20138 431.437143 
L 452.055664 401.351429 
L 456.909949 415.237143 
L 461.764233 412.922857 
L 466.618518 415.237143 
L 471.472802 389.78 
L 476.327087 378.208571 
L 481.181371 436.065714 
L 486.035655 405.98 
L 490.88994 401.351429 
L 495.744224 399.037143 
L 500.598509 417.551429 
L 505.452793 431.437143 
L 515.161362 422.18 
L 520.015647 405.98 
L 524.869931 405.98 
L 529.724216 424.494286 
L 534.5785 389.78 
L 539.432785 368.951429 
L 544.287069 362.008571 
L 549.141354 290.265714 
L 553.995638 278.694286 
L 558.849923 408.294286 
L 563.704207 431.437143 
L 568.558491 447.637143 
L 573.412776 438.38 
L 578.26706 392.094286 
L 583.121345 417.551429 
L 587.975629 419.865714 
L 592.829914 412.922857 
L 597.684198 396.722857 
L 607.392767 401.351429 
L 612.247052 364.322857 
L 617.101336 422.18 
L 621.955621 392.094286 
L 626.809905 426.808571 
L 631.66419 412.922857 
L 636.518474 345.808571 
L 641.372759 403.665714 
L 646.227043 445.322857 
L 651.081327 399.037143 
L 655.935612 422.18 
L 660.789896 401.351429 
L 665.644181 422.18 
L 670.498465 410.608571 
L 675.35275 426.808571 
L 680.207034 396.722857 
L 685.061319 436.065714 
L 689.915603 394.408571 
L 694.769888 424.494286 
L 699.624172 396.722857 
L 704.478457 417.551429 
L 709.332741 408.294286 
L 714.187026 419.865714 
L 719.04131 396.722857 
L 723.895595 387.465714 
L 728.749879 389.78 
L 733.604163 348.122857 
L 738.458448 415.237143 
L 743.312732 410.608571 
L 748.167017 417.551429 
L 753.021301 396.722857 
L 757.875586 399.037143 
L 762.72987 436.065714 
L 767.584155 373.58 
L 772.438439 396.722857 
L 777.292724 378.208571 
L 782.147008 396.722857 
L 787.001293 355.065714 
L 791.855577 373.58 
L 796.709862 405.98 
L 801.564146 357.38 
L 806.418431 378.208571 
L 811.272715 401.351429 
L 816.127 364.322857 
L 820.981284 385.151429 
L 825.835568 371.265714 
L 830.689853 378.208571 
L 835.544137 375.894286 
L 840.398422 387.465714 
L 845.252706 318.037143 
L 850.106991 368.951429 
L 854.961275 366.637143 
L 859.81556 324.98 
L 864.669844 399.037143 
L 869.524129 399.037143 
L 874.378413 380.522857 
L 879.232698 380.522857 
L 888.941267 399.037143 
L 893.795551 417.551429 
L 898.649836 415.237143 
L 903.50412 419.865714 
L 908.358404 399.037143 
L 913.212689 385.151429 
L 918.066973 405.98 
L 922.921258 401.351429 
L 927.775542 419.865714 
L 932.629827 410.608571 
L 937.484111 371.265714 
L 942.338396 389.78 
L 947.19268 371.265714 
L 952.046965 373.58 
L 956.901249 359.694286 
L 961.755534 357.38 
L 966.609818 336.551429 
L 971.464103 380.522857 
L 976.318387 352.751429 
L 981.172672 380.522857 
L 986.026956 336.551429 
L 990.88124 334.237143 
L 995.735525 394.408571 
L 1000.589809 380.522857 
L 1005.444094 392.094286 
L 1010.298378 336.551429 
L 1015.152663 362.008571 
L 1020.006947 264.808571 
L 1024.861232 130.58 
L 1029.715516 216.208571 
L 1034.569801 186.122857 
L 1039.424085 230.094286 
L 1044.27837 225.465714 
L 1049.132654 204.637143 
L 1053.986939 248.608571 
L 1058.841223 357.38 
L 1063.695508 283.322857 
L 1068.549792 151.408571 
L 1073.404077 262.494286 
L 1078.258361 200.008571 
L 1083.112645 172.237143 
L 1087.96693 241.665714 
L 1092.821214 135.208571 
L 1097.675499 54.208571 
L 1102.529783 119.008571 
L 1107.384068 33.38 
L 1112.238352 109.751429 
L 1112.238352 109.751429 
" style="fill:none;stroke:#ff7f0e;stroke-linecap:square;stroke-width:1.5;"/>
   </g>
   <g id="line2d_17">
    <defs>
     <path d="M 0 3 
C 0.795609 3 1.55874 2.683901 2.12132 2.12132 
C 2.683901 1.55874 3 0.795609 3 0 
C 3 -0.795609 2.683901 -1.55874 2.12132 -2.12132 
C 1.55874 -2.683901 0.795609 -3 0 -3 
C -0.795609 -3 -1.55874 -2.683901 -2.12132 -2.12132 
C -2.683901 -1.55874 -3 -0.795609 -3 0 
C -3 0.795609 -2.683901 1.55874 -2.12132 2.12132 
C -1.55874 2.683901 -0.795609 3 0 3 
z
" id="mf2a602eec0" style="stroke:#008000;"/>
    </defs>
    <g clip-path="url(#pc1c37fb058)">
     <use style="fill:#008000;stroke:#008000;" x="97.692898" xlink:href="#mf2a602eec0" y="478.39746"/>
     <use style="fill:#008000;stroke:#008000;" x="126.818605" xlink:href="#mf2a602eec0" y="480.872791"/>
     <use style="fill:#008000;stroke:#008000;" x="155.944311" xlink:href="#mf2a602eec0" y="475.025504"/>
     <use style="fill:#008000;stroke:#008000;" x="185.070018" xlink:href="#mf2a602eec0" y="451.056862"/>
     <use style="fill:#008000;stroke:#008000;" x="214.195725" xlink:href="#mf2a602eec0" y="386.513467"/>
     <use style="fill:#008000;stroke:#008000;" x="243.321432" xlink:href="#mf2a602eec0" y="393.386996"/>
     <use style="fill:#008000;stroke:#008000;" x="272.447139" xlink:href="#mf2a602eec0" y="356.77723"/>
     <use style="fill:#008000;stroke:#008000;" x="301.572846" xlink:href="#mf2a602eec0" y="315.320375"/>
     <use style="fill:#008000;stroke:#008000;" x="330.698552" xlink:href="#mf2a602eec0" y="341.516694"/>
     <use style="fill:#008000;stroke:#008000;" x="359.824259" xlink:href="#mf2a602eec0" y="289.136734"/>
     <use style="fill:#008000;stroke:#008000;" x="388.949966" xlink:href="#mf2a602eec0" y="229.095293"/>
     <use style="fill:#008000;stroke:#008000;" x="418.075673" xlink:href="#mf2a602eec0" y="390.716744"/>
     <use style="fill:#008000;stroke:#008000;" x="447.20138" xlink:href="#mf2a602eec0" y="422.552183"/>
     <use style="fill:#008000;stroke:#008000;" x="476.327087" xlink:href="#mf2a602eec0" y="419.361804"/>
     <use style="fill:#008000;stroke:#008000;" x="505.452793" xlink:href="#mf2a602eec0" y="429.104234"/>
     <use style="fill:#008000;stroke:#008000;" x="534.5785" xlink:href="#mf2a602eec0" y="403.951027"/>
     <use style="fill:#008000;stroke:#008000;" x="563.704207" xlink:href="#mf2a602eec0" y="377.151489"/>
     <use style="fill:#008000;stroke:#008000;" x="592.829914" xlink:href="#mf2a602eec0" y="416.571267"/>
     <use style="fill:#008000;stroke:#008000;" x="621.955621" xlink:href="#mf2a602eec0" y="426.034577"/>
     <use style="fill:#008000;stroke:#008000;" x="651.081327" xlink:href="#mf2a602eec0" y="401.907691"/>
     <use style="fill:#008000;stroke:#008000;" x="680.207034" xlink:href="#mf2a602eec0" y="434.389097"/>
     <use style="fill:#008000;stroke:#008000;" x="709.332741" xlink:href="#mf2a602eec0" y="385.968708"/>
     <use style="fill:#008000;stroke:#008000;" x="738.458448" xlink:href="#mf2a602eec0" y="373.146707"/>
     <use style="fill:#008000;stroke:#008000;" x="767.584155" xlink:href="#mf2a602eec0" y="394.363936"/>
     <use style="fill:#008000;stroke:#008000;" x="796.709862" xlink:href="#mf2a602eec0" y="380.766554"/>
     <use style="fill:#008000;stroke:#008000;" x="825.835568" xlink:href="#mf2a602eec0" y="382.862259"/>
     <use style="fill:#008000;stroke:#008000;" x="854.961275" xlink:href="#mf2a602eec0" y="388.992516"/>
     <use style="fill:#008000;stroke:#008000;" x="884.086982" xlink:href="#mf2a602eec0" y="385.206844"/>
     <use style="fill:#008000;stroke:#008000;" x="913.212689" xlink:href="#mf2a602eec0" y="417.339823"/>
     <use style="fill:#008000;stroke:#008000;" x="942.338396" xlink:href="#mf2a602eec0" y="369.514877"/>
     <use style="fill:#008000;stroke:#008000;" x="971.464103" xlink:href="#mf2a602eec0" y="360.576595"/>
     <use style="fill:#008000;stroke:#008000;" x="1000.589809" xlink:href="#mf2a602eec0" y="369.796041"/>
     <use style="fill:#008000;stroke:#008000;" x="1029.715516" xlink:href="#mf2a602eec0" y="196.584604"/>
     <use style="fill:#008000;stroke:#008000;" x="1058.841223" xlink:href="#mf2a602eec0" y="200.024374"/>
     <use style="fill:#008000;stroke:#008000;" x="1087.96693" xlink:href="#mf2a602eec0" y="96.002694"/>
    </g>
   </g>
   <g id="patch_3">
    <path d="M 46.965625 509.66 
L 46.965625 10.7 
" style="fill:none;stroke:#000000;stroke-linecap:square;stroke-linejoin:miter;stroke-width:0.8;"/>
   </g>
   <g id="patch_4">
    <path d="M 1162.965625 509.66 
L 1162.965625 10.7 
" style="fill:none;stroke:#000000;stroke-linecap:square;stroke-linejoin:miter;stroke-width:0.8;"/>
   </g>
   <g id="patch_5">
    <path d="M 46.965625 509.66 
L 1162.965625 509.66 
" style="fill:none;stroke:#000000;stroke-linecap:square;stroke-linejoin:miter;stroke-width:0.8;"/>
   </g>
   <g id="patch_6">
    <path d="M 46.965625 10.7 
L 1162.965625 10.7 
" style="fill:none;stroke:#000000;stroke-linecap:square;stroke-linejoin:miter;stroke-width:0.8;"/>
   </g>
   <g id="legend_1">
    <g id="patch_7">
     <path d="M 53.965625 62.734375 
L 201.740625 62.734375 
Q 203.740625 62.734375 203.740625 60.734375 
L 203.740625 17.7 
Q 203.740625 15.7 201.740625 15.7 
L 53.965625 15.7 
Q 51.965625 15.7 51.965625 17.7 
L 51.965625 60.734375 
Q 51.965625 62.734375 53.965625 62.734375 
z
" style="fill:#ffffff;opacity:0.8;stroke:#cccccc;stroke-linejoin:miter;"/>
    </g>
    <g id="line2d_18">
     <path d="M 55.965625 23.798437 
L 75.965625 23.798437 
" style="fill:none;stroke:#008000;stroke-dasharray:5.55,2.4;stroke-dashoffset:0;stroke-width:1.5;"/>
    </g>
    <g id="line2d_19"/>
    <g id="text_17">
     <!-- Predicted -->
     <defs>
      <path d="M 19.671875 64.796875 
L 19.671875 37.40625 
L 32.078125 37.40625 
Q 38.96875 37.40625 42.71875 40.96875 
Q 46.484375 44.53125 46.484375 51.125 
Q 46.484375 57.671875 42.71875 61.234375 
Q 38.96875 64.796875 32.078125 64.796875 
z
M 9.8125 72.90625 
L 32.078125 72.90625 
Q 44.34375 72.90625 50.609375 67.359375 
Q 56.890625 61.8125 56.890625 51.125 
Q 56.890625 40.328125 50.609375 34.8125 
Q 44.34375 29.296875 32.078125 29.296875 
L 19.671875 29.296875 
L 19.671875 0 
L 9.8125 0 
z
" id="DejaVuSans-50"/>
      <path d="M 41.109375 46.296875 
Q 39.59375 47.171875 37.8125 47.578125 
Q 36.03125 48 33.890625 48 
Q 26.265625 48 22.1875 43.046875 
Q 18.109375 38.09375 18.109375 28.8125 
L 18.109375 0 
L 9.078125 0 
L 9.078125 54.6875 
L 18.109375 54.6875 
L 18.109375 46.1875 
Q 20.953125 51.171875 25.484375 53.578125 
Q 30.03125 56 36.53125 56 
Q 37.453125 56 38.578125 55.875 
Q 39.703125 55.765625 41.0625 55.515625 
z
" id="DejaVuSans-72"/>
      <path d="M 45.40625 46.390625 
L 45.40625 75.984375 
L 54.390625 75.984375 
L 54.390625 0 
L 45.40625 0 
L 45.40625 8.203125 
Q 42.578125 3.328125 38.25 0.953125 
Q 33.9375 -1.421875 27.875 -1.421875 
Q 17.96875 -1.421875 11.734375 6.484375 
Q 5.515625 14.40625 5.515625 27.296875 
Q 5.515625 40.1875 11.734375 48.09375 
Q 17.96875 56 27.875 56 
Q 33.9375 56 38.25 53.625 
Q 42.578125 51.265625 45.40625 46.390625 
z
M 14.796875 27.296875 
Q 14.796875 17.390625 18.875 11.75 
Q 22.953125 6.109375 30.078125 6.109375 
Q 37.203125 6.109375 41.296875 11.75 
Q 45.40625 17.390625 45.40625 27.296875 
Q 45.40625 37.203125 41.296875 42.84375 
Q 37.203125 48.484375 30.078125 48.484375 
Q 22.953125 48.484375 18.875 42.84375 
Q 14.796875 37.203125 14.796875 27.296875 
z
" id="DejaVuSans-64"/>
      <path d="M 48.78125 52.59375 
L 48.78125 44.1875 
Q 44.96875 46.296875 41.140625 47.34375 
Q 37.3125 48.390625 33.40625 48.390625 
Q 24.65625 48.390625 19.8125 42.84375 
Q 14.984375 37.3125 14.984375 27.296875 
Q 14.984375 17.28125 19.8125 11.734375 
Q 24.65625 6.203125 33.40625 6.203125 
Q 37.3125 6.203125 41.140625 7.25 
Q 44.96875 8.296875 48.78125 10.40625 
L 48.78125 2.09375 
Q 45.015625 0.34375 40.984375 -0.53125 
Q 36.96875 -1.421875 32.421875 -1.421875 
Q 20.0625 -1.421875 12.78125 6.34375 
Q 5.515625 14.109375 5.515625 27.296875 
Q 5.515625 40.671875 12.859375 48.328125 
Q 20.21875 56 33.015625 56 
Q 37.15625 56 41.109375 55.140625 
Q 45.0625 54.296875 48.78125 52.59375 
z
" id="DejaVuSans-63"/>
      <path d="M 18.3125 70.21875 
L 18.3125 54.6875 
L 36.8125 54.6875 
L 36.8125 47.703125 
L 18.3125 47.703125 
L 18.3125 18.015625 
Q 18.3125 11.328125 20.140625 9.421875 
Q 21.96875 7.515625 27.59375 7.515625 
L 36.8125 7.515625 
L 36.8125 0 
L 27.59375 0 
Q 17.1875 0 13.234375 3.875 
Q 9.28125 7.765625 9.28125 18.015625 
L 9.28125 47.703125 
L 2.6875 47.703125 
L 2.6875 54.6875 
L 9.28125 54.6875 
L 9.28125 70.21875 
z
" id="DejaVuSans-74"/>
     </defs>
     <g transform="translate(83.965625 27.298437)scale(0.1 -0.1)">
      <use xlink:href="#DejaVuSans-50"/>
      <use x="60.287109" xlink:href="#DejaVuSans-72"/>
      <use x="101.369141" xlink:href="#DejaVuSans-65"/>
      <use x="162.892578" xlink:href="#DejaVuSans-64"/>
      <use x="226.369141" xlink:href="#DejaVuSans-69"/>
      <use x="254.152344" xlink:href="#DejaVuSans-63"/>
      <use x="309.132812" xlink:href="#DejaVuSans-74"/>
      <use x="348.341797" xlink:href="#DejaVuSans-65"/>
      <use x="409.865234" xlink:href="#DejaVuSans-64"/>
     </g>
    </g>
    <g id="line2d_20">
     <path d="M 55.965625 38.476562 
L 75.965625 38.476562 
" style="fill:none;stroke:#ff7f0e;stroke-linecap:square;stroke-width:1.5;"/>
    </g>
    <g id="line2d_21"/>
    <g id="text_18">
     <!-- Real Data -->
     <defs>
      <path d="M 34.28125 27.484375 
Q 23.390625 27.484375 19.1875 25 
Q 14.984375 22.515625 14.984375 16.5 
Q 14.984375 11.71875 18.140625 8.90625 
Q 21.296875 6.109375 26.703125 6.109375 
Q 34.1875 6.109375 38.703125 11.40625 
Q 43.21875 16.703125 43.21875 25.484375 
L 43.21875 27.484375 
z
M 52.203125 31.203125 
L 52.203125 0 
L 43.21875 0 
L 43.21875 8.296875 
Q 40.140625 3.328125 35.546875 0.953125 
Q 30.953125 -1.421875 24.3125 -1.421875 
Q 15.921875 -1.421875 10.953125 3.296875 
Q 6 8.015625 6 15.921875 
Q 6 25.140625 12.171875 29.828125 
Q 18.359375 34.515625 30.609375 34.515625 
L 43.21875 34.515625 
L 43.21875 35.40625 
Q 43.21875 41.609375 39.140625 45 
Q 35.0625 48.390625 27.6875 48.390625 
Q 23 48.390625 18.546875 47.265625 
Q 14.109375 46.140625 10.015625 43.890625 
L 10.015625 52.203125 
Q 14.9375 54.109375 19.578125 55.046875 
Q 24.21875 56 28.609375 56 
Q 40.484375 56 46.34375 49.84375 
Q 52.203125 43.703125 52.203125 31.203125 
z
" id="DejaVuSans-61"/>
      <path d="M 9.421875 75.984375 
L 18.40625 75.984375 
L 18.40625 0 
L 9.421875 0 
z
" id="DejaVuSans-6c"/>
      <path id="DejaVuSans-20"/>
      <path d="M 19.671875 64.796875 
L 19.671875 8.109375 
L 31.59375 8.109375 
Q 46.6875 8.109375 53.6875 14.9375 
Q 60.6875 21.78125 60.6875 36.53125 
Q 60.6875 51.171875 53.6875 57.984375 
Q 46.6875 64.796875 31.59375 64.796875 
z
M 9.8125 72.90625 
L 30.078125 72.90625 
Q 51.265625 72.90625 61.171875 64.09375 
Q 71.09375 55.28125 71.09375 36.53125 
Q 71.09375 17.671875 61.125 8.828125 
Q 51.171875 0 30.078125 0 
L 9.8125 0 
z
" id="DejaVuSans-44"/>
     </defs>
     <g transform="translate(83.965625 41.976562)scale(0.1 -0.1)">
      <use xlink:href="#DejaVuSans-52"/>
      <use x="69.419922" xlink:href="#DejaVuSans-65"/>
      <use x="130.943359" xlink:href="#DejaVuSans-61"/>
      <use x="192.222656" xlink:href="#DejaVuSans-6c"/>
      <use x="220.005859" xlink:href="#DejaVuSans-20"/>
      <use x="251.792969" xlink:href="#DejaVuSans-44"/>
      <use x="328.794922" xlink:href="#DejaVuSans-61"/>
      <use x="390.074219" xlink:href="#DejaVuSans-74"/>
      <use x="429.283203" xlink:href="#DejaVuSans-61"/>
     </g>
    </g>
    <g id="line2d_22"/>
    <g id="line2d_23">
     <g>
      <use style="fill:#008000;stroke:#008000;" x="65.965625" xlink:href="#mf2a602eec0" y="53.154688"/>
     </g>
    </g>
    <g id="text_19">
     <!-- Start Point for Forecast -->
     <defs>
      <path d="M 53.515625 70.515625 
L 53.515625 60.890625 
Q 47.90625 63.578125 42.921875 64.890625 
Q 37.9375 66.21875 33.296875 66.21875 
Q 25.25 66.21875 20.875 63.09375 
Q 16.5 59.96875 16.5 54.203125 
Q 16.5 49.359375 19.40625 46.890625 
Q 22.3125 44.4375 30.421875 42.921875 
L 36.375 41.703125 
Q 47.40625 39.59375 52.65625 34.296875 
Q 57.90625 29 57.90625 20.125 
Q 57.90625 9.515625 50.796875 4.046875 
Q 43.703125 -1.421875 29.984375 -1.421875 
Q 24.8125 -1.421875 18.96875 -0.25 
Q 13.140625 0.921875 6.890625 3.21875 
L 6.890625 13.375 
Q 12.890625 10.015625 18.65625 8.296875 
Q 24.421875 6.59375 29.984375 6.59375 
Q 38.421875 6.59375 43.015625 9.90625 
Q 47.609375 13.234375 47.609375 19.390625 
Q 47.609375 24.75 44.3125 27.78125 
Q 41.015625 30.8125 33.5 32.328125 
L 27.484375 33.5 
Q 16.453125 35.6875 11.515625 40.375 
Q 6.59375 45.0625 6.59375 53.421875 
Q 6.59375 63.09375 13.40625 68.65625 
Q 20.21875 74.21875 32.171875 74.21875 
Q 37.3125 74.21875 42.625 73.28125 
Q 47.953125 72.359375 53.515625 70.515625 
z
" id="DejaVuSans-53"/>
      <path d="M 30.609375 48.390625 
Q 23.390625 48.390625 19.1875 42.75 
Q 14.984375 37.109375 14.984375 27.296875 
Q 14.984375 17.484375 19.15625 11.84375 
Q 23.34375 6.203125 30.609375 6.203125 
Q 37.796875 6.203125 41.984375 11.859375 
Q 46.1875 17.53125 46.1875 27.296875 
Q 46.1875 37.015625 41.984375 42.703125 
Q 37.796875 48.390625 30.609375 48.390625 
z
M 30.609375 56 
Q 42.328125 56 49.015625 48.375 
Q 55.71875 40.765625 55.71875 27.296875 
Q 55.71875 13.875 49.015625 6.21875 
Q 42.328125 -1.421875 30.609375 -1.421875 
Q 18.84375 -1.421875 12.171875 6.21875 
Q 5.515625 13.875 5.515625 27.296875 
Q 5.515625 40.765625 12.171875 48.375 
Q 18.84375 56 30.609375 56 
z
" id="DejaVuSans-6f"/>
      <path d="M 54.890625 33.015625 
L 54.890625 0 
L 45.90625 0 
L 45.90625 32.71875 
Q 45.90625 40.484375 42.875 44.328125 
Q 39.84375 48.1875 33.796875 48.1875 
Q 26.515625 48.1875 22.3125 43.546875 
Q 18.109375 38.921875 18.109375 30.90625 
L 18.109375 0 
L 9.078125 0 
L 9.078125 54.6875 
L 18.109375 54.6875 
L 18.109375 46.1875 
Q 21.34375 51.125 25.703125 53.5625 
Q 30.078125 56 35.796875 56 
Q 45.21875 56 50.046875 50.171875 
Q 54.890625 44.34375 54.890625 33.015625 
z
" id="DejaVuSans-6e"/>
      <path d="M 9.8125 72.90625 
L 51.703125 72.90625 
L 51.703125 64.59375 
L 19.671875 64.59375 
L 19.671875 43.109375 
L 48.578125 43.109375 
L 48.578125 34.8125 
L 19.671875 34.8125 
L 19.671875 0 
L 9.8125 0 
z
" id="DejaVuSans-46"/>
     </defs>
     <g transform="translate(83.965625 56.654688)scale(0.1 -0.1)">
      <use xlink:href="#DejaVuSans-53"/>
      <use x="63.476562" xlink:href="#DejaVuSans-74"/>
      <use x="102.685547" xlink:href="#DejaVuSans-61"/>
      <use x="163.964844" xlink:href="#DejaVuSans-72"/>
      <use x="205.078125" xlink:href="#DejaVuSans-74"/>
      <use x="244.287109" xlink:href="#DejaVuSans-20"/>
      <use x="276.074219" xlink:href="#DejaVuSans-50"/>
      <use x="336.330078" xlink:href="#DejaVuSans-6f"/>
      <use x="397.511719" xlink:href="#DejaVuSans-69"/>
      <use x="425.294922" xlink:href="#DejaVuSans-6e"/>
      <use x="488.673828" xlink:href="#DejaVuSans-74"/>
      <use x="527.882812" xlink:href="#DejaVuSans-20"/>
      <use x="559.669922" xlink:href="#DejaVuSans-66"/>
      <use x="594.875" xlink:href="#DejaVuSans-6f"/>
      <use x="656.056641" xlink:href="#DejaVuSans-72"/>
      <use x="697.169922" xlink:href="#DejaVuSans-20"/>
      <use x="728.957031" xlink:href="#DejaVuSans-46"/>
      <use x="786.429688" xlink:href="#DejaVuSans-6f"/>
      <use x="847.611328" xlink:href="#DejaVuSans-72"/>
      <use x="888.693359" xlink:href="#DejaVuSans-65"/>
      <use x="950.216797" xlink:href="#DejaVuSans-63"/>
      <use x="1005.197266" xlink:href="#DejaVuSans-61"/>
      <use x="1066.476562" xlink:href="#DejaVuSans-73"/>
      <use x="1118.576172" xlink:href="#DejaVuSans-74"/>
     </g>
    </g>
   </g>
  </g>
  <g id="axes_2">
   <g id="patch_8">
    <path d="M 46.965625 645.74 
L 1164.405625 645.74 
L 1164.405625 516.14 
L 46.965625 516.14 
z
" style="fill:none;"/>
   </g>
   <g id="matplotlib.axis_3">
    <g id="xtick_6">
     <g id="line2d_24">
      <g>
       <use style="stroke:#000000;stroke-width:0.8;" x="97.758352" xlink:href="#m861d146eed" y="645.74"/>
      </g>
     </g>
     <g id="text_20">
      <!-- 0 -->
      <g transform="translate(94.577102 660.338437)scale(0.1 -0.1)">
       <use xlink:href="#DejaVuSans-30"/>
      </g>
     </g>
    </g>
    <g id="xtick_7">
     <g id="line2d_25">
      <g>
       <use style="stroke:#000000;stroke-width:0.8;" x="222.250331" xlink:href="#m861d146eed" y="645.74"/>
      </g>
     </g>
     <g id="text_21">
      <!-- 25 -->
      <g transform="translate(215.887831 660.338437)scale(0.1 -0.1)">
       <use xlink:href="#DejaVuSans-32"/>
       <use x="63.623047" xlink:href="#DejaVuSans-35"/>
      </g>
     </g>
    </g>
    <g id="xtick_8">
     <g id="line2d_26">
      <g>
       <use style="stroke:#000000;stroke-width:0.8;" x="346.742309" xlink:href="#m861d146eed" y="645.74"/>
      </g>
     </g>
     <g id="text_22">
      <!-- 50 -->
      <g transform="translate(340.379809 660.338437)scale(0.1 -0.1)">
       <use xlink:href="#DejaVuSans-35"/>
       <use x="63.623047" xlink:href="#DejaVuSans-30"/>
      </g>
     </g>
    </g>
    <g id="xtick_9">
     <g id="line2d_27">
      <g>
       <use style="stroke:#000000;stroke-width:0.8;" x="471.234288" xlink:href="#m861d146eed" y="645.74"/>
      </g>
     </g>
     <g id="text_23">
      <!-- 75 -->
      <g transform="translate(464.871788 660.338437)scale(0.1 -0.1)">
       <use xlink:href="#DejaVuSans-37"/>
       <use x="63.623047" xlink:href="#DejaVuSans-35"/>
      </g>
     </g>
    </g>
    <g id="xtick_10">
     <g id="line2d_28">
      <g>
       <use style="stroke:#000000;stroke-width:0.8;" x="595.726267" xlink:href="#m861d146eed" y="645.74"/>
      </g>
     </g>
     <g id="text_24">
      <!-- 100 -->
      <g transform="translate(586.182517 660.338437)scale(0.1 -0.1)">
       <use xlink:href="#DejaVuSans-31"/>
       <use x="63.623047" xlink:href="#DejaVuSans-30"/>
       <use x="127.246094" xlink:href="#DejaVuSans-30"/>
      </g>
     </g>
    </g>
    <g id="xtick_11">
     <g id="line2d_29">
      <g>
       <use style="stroke:#000000;stroke-width:0.8;" x="720.218245" xlink:href="#m861d146eed" y="645.74"/>
      </g>
     </g>
     <g id="text_25">
      <!-- 125 -->
      <g transform="translate(710.674495 660.338437)scale(0.1 -0.1)">
       <use xlink:href="#DejaVuSans-31"/>
       <use x="63.623047" xlink:href="#DejaVuSans-32"/>
       <use x="127.246094" xlink:href="#DejaVuSans-35"/>
      </g>
     </g>
    </g>
    <g id="xtick_12">
     <g id="line2d_30">
      <g>
       <use style="stroke:#000000;stroke-width:0.8;" x="844.710224" xlink:href="#m861d146eed" y="645.74"/>
      </g>
     </g>
     <g id="text_26">
      <!-- 150 -->
      <g transform="translate(835.166474 660.338437)scale(0.1 -0.1)">
       <use xlink:href="#DejaVuSans-31"/>
       <use x="63.623047" xlink:href="#DejaVuSans-35"/>
       <use x="127.246094" xlink:href="#DejaVuSans-30"/>
      </g>
     </g>
    </g>
    <g id="xtick_13">
     <g id="line2d_31">
      <g>
       <use style="stroke:#000000;stroke-width:0.8;" x="969.202203" xlink:href="#m861d146eed" y="645.74"/>
      </g>
     </g>
     <g id="text_27">
      <!-- 175 -->
      <g transform="translate(959.658453 660.338437)scale(0.1 -0.1)">
       <use xlink:href="#DejaVuSans-31"/>
       <use x="63.623047" xlink:href="#DejaVuSans-37"/>
       <use x="127.246094" xlink:href="#DejaVuSans-35"/>
      </g>
     </g>
    </g>
    <g id="xtick_14">
     <g id="line2d_32">
      <g>
       <use style="stroke:#000000;stroke-width:0.8;" x="1093.694181" xlink:href="#m861d146eed" y="645.74"/>
      </g>
     </g>
     <g id="text_28">
      <!-- 200 -->
      <g transform="translate(1084.150431 660.338437)scale(0.1 -0.1)">
       <use xlink:href="#DejaVuSans-32"/>
       <use x="63.623047" xlink:href="#DejaVuSans-30"/>
       <use x="127.246094" xlink:href="#DejaVuSans-30"/>
      </g>
     </g>
    </g>
   </g>
   <g id="matplotlib.axis_4">
    <g id="ytick_10">
     <g id="line2d_33">
      <g>
       <use style="stroke:#000000;stroke-width:0.8;" x="46.965625" xlink:href="#m1039db0e2c" y="617.814353"/>
      </g>
     </g>
     <g id="text_29">
      <!-- 15 -->
      <g transform="translate(27.240625 621.613572)scale(0.1 -0.1)">
       <use xlink:href="#DejaVuSans-31"/>
       <use x="63.623047" xlink:href="#DejaVuSans-35"/>
      </g>
     </g>
    </g>
    <g id="ytick_11">
     <g id="line2d_34">
      <g>
       <use style="stroke:#000000;stroke-width:0.8;" x="46.965625" xlink:href="#m1039db0e2c" y="589.118805"/>
      </g>
     </g>
     <g id="text_30">
      <!-- 20 -->
      <g transform="translate(27.240625 592.918024)scale(0.1 -0.1)">
       <use xlink:href="#DejaVuSans-32"/>
       <use x="63.623047" xlink:href="#DejaVuSans-30"/>
      </g>
     </g>
    </g>
    <g id="ytick_12">
     <g id="line2d_35">
      <g>
       <use style="stroke:#000000;stroke-width:0.8;" x="46.965625" xlink:href="#m1039db0e2c" y="560.423257"/>
      </g>
     </g>
     <g id="text_31">
      <!-- 25 -->
      <g transform="translate(27.240625 564.222476)scale(0.1 -0.1)">
       <use xlink:href="#DejaVuSans-32"/>
       <use x="63.623047" xlink:href="#DejaVuSans-35"/>
      </g>
     </g>
    </g>
    <g id="ytick_13">
     <g id="line2d_36">
      <g>
       <use style="stroke:#000000;stroke-width:0.8;" x="46.965625" xlink:href="#m1039db0e2c" y="531.727709"/>
      </g>
     </g>
     <g id="text_32">
      <!-- 30 -->
      <defs>
       <path d="M 40.578125 39.3125 
Q 47.65625 37.796875 51.625 33 
Q 55.609375 28.21875 55.609375 21.1875 
Q 55.609375 10.40625 48.1875 4.484375 
Q 40.765625 -1.421875 27.09375 -1.421875 
Q 22.515625 -1.421875 17.65625 -0.515625 
Q 12.796875 0.390625 7.625 2.203125 
L 7.625 11.71875 
Q 11.71875 9.328125 16.59375 8.109375 
Q 21.484375 6.890625 26.8125 6.890625 
Q 36.078125 6.890625 40.9375 10.546875 
Q 45.796875 14.203125 45.796875 21.1875 
Q 45.796875 27.640625 41.28125 31.265625 
Q 36.765625 34.90625 28.71875 34.90625 
L 20.21875 34.90625 
L 20.21875 43.015625 
L 29.109375 43.015625 
Q 36.375 43.015625 40.234375 45.921875 
Q 44.09375 48.828125 44.09375 54.296875 
Q 44.09375 59.90625 40.109375 62.90625 
Q 36.140625 65.921875 28.71875 65.921875 
Q 24.65625 65.921875 20.015625 65.03125 
Q 15.375 64.15625 9.8125 62.3125 
L 9.8125 71.09375 
Q 15.4375 72.65625 20.34375 73.4375 
Q 25.25 74.21875 29.59375 74.21875 
Q 40.828125 74.21875 47.359375 69.109375 
Q 53.90625 64.015625 53.90625 55.328125 
Q 53.90625 49.265625 50.4375 45.09375 
Q 46.96875 40.921875 40.578125 39.3125 
z
" id="DejaVuSans-33"/>
      </defs>
      <g transform="translate(27.240625 535.526927)scale(0.1 -0.1)">
       <use xlink:href="#DejaVuSans-33"/>
       <use x="63.623047" xlink:href="#DejaVuSans-30"/>
      </g>
     </g>
    </g>
    <g id="text_33">
     <!-- Temperature -->
     <defs>
      <path d="M 18.109375 8.203125 
L 18.109375 -20.796875 
L 9.078125 -20.796875 
L 9.078125 54.6875 
L 18.109375 54.6875 
L 18.109375 46.390625 
Q 20.953125 51.265625 25.265625 53.625 
Q 29.59375 56 35.59375 56 
Q 45.5625 56 51.78125 48.09375 
Q 58.015625 40.1875 58.015625 27.296875 
Q 58.015625 14.40625 51.78125 6.484375 
Q 45.5625 -1.421875 35.59375 -1.421875 
Q 29.59375 -1.421875 25.265625 0.953125 
Q 20.953125 3.328125 18.109375 8.203125 
z
M 48.6875 27.296875 
Q 48.6875 37.203125 44.609375 42.84375 
Q 40.53125 48.484375 33.40625 48.484375 
Q 26.265625 48.484375 22.1875 42.84375 
Q 18.109375 37.203125 18.109375 27.296875 
Q 18.109375 17.390625 22.1875 11.75 
Q 26.265625 6.109375 33.40625 6.109375 
Q 40.53125 6.109375 44.609375 11.75 
Q 48.6875 17.390625 48.6875 27.296875 
z
" id="DejaVuSans-70"/>
     </defs>
     <g style="fill:#0000ff;" transform="translate(21.160938 613.557187)rotate(-90)scale(0.1 -0.1)">
      <use xlink:href="#DejaVuSans-54"/>
      <use x="60.818359" xlink:href="#DejaVuSans-65"/>
      <use x="122.341797" xlink:href="#DejaVuSans-6d"/>
      <use x="219.753906" xlink:href="#DejaVuSans-70"/>
      <use x="283.230469" xlink:href="#DejaVuSans-65"/>
      <use x="344.753906" xlink:href="#DejaVuSans-72"/>
      <use x="385.867188" xlink:href="#DejaVuSans-61"/>
      <use x="447.146484" xlink:href="#DejaVuSans-74"/>
      <use x="486.355469" xlink:href="#DejaVuSans-75"/>
      <use x="549.734375" xlink:href="#DejaVuSans-72"/>
      <use x="590.816406" xlink:href="#DejaVuSans-65"/>
     </g>
    </g>
   </g>
   <g id="line2d_37">
    <path clip-path="url(#p2758826961)" d="M 97.758352 545.753519 
L 107.717711 532.651705 
L 112.69739 535.781242 
L 117.677069 535.612512 
L 122.656748 531.141746 
L 127.636427 529.504952 
L 132.616106 531.39484 
L 137.595785 533.914883 
L 142.575465 534.387212 
L 147.555144 542.448366 
L 152.534823 542.695721 
L 157.514502 551.164925 
L 162.494181 538.793701 
L 167.47386 538.788535 
L 172.453539 526.705414 
L 177.433219 532.555288 
L 182.412898 529.456743 
L 187.392577 526.941865 
L 192.372256 524.179632 
L 197.351935 525.735504 
L 202.331614 528.039757 
L 207.311293 540.342112 
L 212.290973 544.679157 
L 217.270652 539.944966 
L 222.250331 534.40156 
L 227.23001 533.235947 
L 232.209689 528.660729 
L 237.189368 527.133551 
L 242.169047 528.311791 
L 247.148727 526.802979 
L 252.128406 528.168887 
L 257.108085 523.621216 
L 262.087764 529.094605 
L 267.067443 534.73615 
L 272.047122 543.145093 
L 277.026801 543.076798 
L 282.006481 532.930626 
L 286.98616 535.869624 
L 291.965839 523.302696 
L 296.945518 523.953511 
L 301.925197 524.989994 
L 306.904876 524.630726 
L 311.884555 524.949246 
L 316.864235 527.856105 
L 321.843914 529.813142 
L 326.823593 538.517649 
L 331.803272 537.758365 
L 336.782951 539.927749 
L 341.76263 538.241024 
L 346.742309 528.639494 
L 351.721989 525.814704 
L 356.701668 526.407554 
L 361.681347 523.975893 
L 366.661026 528.232017 
L 371.640705 529.734516 
L 376.620384 528.141339 
L 381.600064 529.735664 
L 386.579743 543.254137 
L 391.559422 543.749422 
L 396.539101 545.262825 
L 401.51878 536.076232 
L 406.498459 529.445839 
L 411.478138 528.857006 
L 416.457818 524.008606 
L 421.437497 526.001225 
L 426.417176 526.604979 
L 431.396855 526.362215 
L 436.376534 529.067631 
L 441.356213 532.515115 
L 446.335892 538.231268 
L 451.315572 540.154443 
L 456.295251 543.126728 
L 461.27493 531.471171 
L 466.254609 533.567667 
L 471.234288 525.013524 
L 476.213967 531.72197 
L 481.193646 529.409682 
L 486.173326 524.259979 
L 491.153005 525.732061 
L 496.132684 526.971135 
L 501.112363 534.631124 
L 506.092042 548.846899 
L 511.071721 542.644643 
L 516.0514 538.238155 
L 521.03108 535.901763 
L 526.010759 530.645887 
L 530.990438 528.281373 
L 535.970117 531.487814 
L 540.949796 526.165364 
L 550.909154 528.147652 
L 555.888834 525.685574 
L 560.868513 530.360653 
L 565.848192 542.4564 
L 570.827871 539.701628 
L 575.80755 544.940287 
L 580.787229 537.251602 
L 585.766908 528.49372 
L 590.746588 526.9103 
L 595.726267 529.262761 
L 600.705946 527.246038 
L 605.685625 532.795183 
L 610.665304 530.434113 
L 615.644983 533.022452 
L 620.624662 536.02458 
L 625.604342 544.968983 
L 630.584021 548.703995 
L 635.5637 541.507152 
L 640.543379 535.13674 
L 645.523058 533.486746 
L 650.502737 527.189221 
L 655.482416 530.663678 
L 660.462096 531.569883 
L 665.441775 530.336549 
L 670.421454 529.772394 
L 675.401133 528.424277 
L 680.380812 535.685973 
L 685.360491 542.230279 
L 690.34017 550.139346 
L 695.31985 547.410974 
L 700.299529 538.715075 
L 705.279208 531.760996 
L 710.258887 529.770672 
L 715.238566 522.682872 
L 720.218245 530.357783 
L 725.197924 526.82077 
L 730.177604 522.73108 
L 735.157283 526.517171 
L 740.136962 535.17634 
L 745.116641 541.179448 
L 750.09632 549.357106 
L 755.075999 544.947748 
L 760.055678 538.712205 
L 765.035358 531.906769 
L 770.015037 532.875531 
L 774.994716 530.444444 
L 779.974395 528.295147 
L 784.954074 529.096327 
L 789.933753 528.445512 
L 794.913432 534.732707 
L 799.893112 534.906602 
L 804.872791 544.606271 
L 809.85247 546.916836 
L 814.832149 544.40368 
L 819.811828 536.448126 
L 824.791507 532.461741 
L 829.771186 533.396068 
L 834.750866 534.132396 
L 839.730545 529.923907 
L 844.710224 532.524871 
L 849.689903 527.575463 
L 854.669582 528.958588 
L 859.649261 532.837079 
L 864.628941 542.015637 
L 869.60862 546.026126 
L 874.588299 546.490994 
L 879.567978 537.076559 
L 884.547657 529.894063 
L 889.527336 527.150195 
L 894.507015 529.608829 
L 899.486695 522.030909 
L 904.466374 531.148633 
L 909.446053 526.998682 
L 914.425732 529.725333 
L 924.38509 541.615047 
L 929.364769 544.604549 
L 934.344449 546.222978 
L 939.324128 542.04548 
L 944.303807 534.482481 
L 949.283486 533.345564 
L 954.263165 532.531184 
L 964.222523 524.933177 
L 969.202203 525.270063 
L 974.181882 532.265463 
L 979.161561 535.53446 
L 984.14124 543.378101 
L 989.120919 545.101556 
L 994.100598 549.081628 
L 999.080277 538.037286 
L 1004.059957 530.31187 
L 1009.039636 526.583745 
L 1014.019315 528.932762 
L 1018.998994 527.810766 
L 1023.978673 522.406821 
L 1028.958352 528.088539 
L 1038.917711 534.073283 
L 1043.89739 542.583809 
L 1048.877069 544.962096 
L 1053.856748 545.78738 
L 1058.836427 533.95104 
L 1063.816106 528.610798 
L 1068.795785 525.376236 
L 1073.775465 528.236034 
L 1078.755144 523.915059 
L 1083.734823 530.450757 
L 1088.714502 523.657373 
L 1093.694181 529.465352 
L 1098.67386 528.41739 
L 1103.653539 545.616354 
L 1108.633219 552.676033 
L 1113.612898 543.391301 
L 1113.612898 543.391301 
" style="fill:none;stroke:#ff0000;stroke-linecap:square;stroke-width:1.5;"/>
   </g>
   <g id="line2d_38">
    <path clip-path="url(#p2758826961)" d="M 97.758352 575.893027 
L 102.738031 573.879173 
L 107.717711 564.575503 
L 112.69739 563.885088 
L 117.677069 563.578619 
L 122.656748 558.136222 
L 127.636427 557.519267 
L 132.616106 558.408256 
L 137.595785 559.985363 
L 142.575465 563.182621 
L 147.555144 570.656089 
L 152.534823 573.28001 
L 157.514502 581.560398 
L 162.494181 571.179496 
L 167.47386 567.398571 
L 172.453539 557.635771 
L 177.433219 560.209188 
L 182.412898 556.917235 
L 187.392577 555.736126 
L 192.372256 553.758429 
L 197.351935 555.224198 
L 202.331614 557.582972 
L 207.311293 567.620674 
L 212.290973 574.443902 
L 217.270652 572.824325 
L 222.250331 567.097841 
L 227.23001 563.235995 
L 232.209689 559.107279 
L 237.189368 555.778596 
L 242.169047 555.702839 
L 247.148727 556.722679 
L 252.128406 556.516071 
L 257.108085 553.886411 
L 262.087764 557.444659 
L 267.067443 563.62568 
L 272.047122 571.240905 
L 277.026801 573.59394 
L 282.006481 564.412512 
L 286.98616 564.267313 
L 291.965839 553.2069 
L 296.945518 554.542965 
L 301.925197 553.240761 
L 306.904876 553.324552 
L 311.884555 553.698168 
L 321.843914 560.218945 
L 326.823593 568.359298 
L 331.803272 569.276981 
L 336.782951 572.820882 
L 341.76263 572.071354 
L 346.742309 564.701763 
L 351.721989 558.807698 
L 356.701668 556.634297 
L 361.681347 553.464587 
L 366.661026 556.308889 
L 371.640705 558.786463 
L 376.620384 558.085144 
L 381.600064 559.082027 
L 386.579743 570.74275 
L 391.559422 574.591971 
L 396.539101 575.52515 
L 401.51878 570.049466 
L 406.498459 560.608056 
L 411.478138 559.471713 
L 416.457818 556.765722 
L 421.437497 555.50484 
L 426.417176 552.88551 
L 431.396855 554.477539 
L 436.376534 556.488523 
L 441.356213 558.885176 
L 446.335892 565.547708 
L 451.315572 568.006343 
L 456.295251 573.953782 
L 461.27493 565.565499 
L 466.254609 564.487694 
L 471.234288 555.482457 
L 476.213967 557.479668 
L 481.193646 558.085144 
L 486.173326 554.520583 
L 496.132684 555.716613 
L 501.112363 562.441128 
L 506.092042 574.189085 
L 511.071721 573.672565 
L 516.0514 571.811946 
L 521.03108 566.946329 
L 526.010759 563.346185 
L 530.990438 557.84984 
L 535.970117 558.86968 
L 540.949796 554.298479 
L 545.929475 554.836234 
L 550.909154 556.254942 
L 555.888834 555.569118 
L 560.868513 559.043575 
L 565.848192 570.995845 
L 570.827871 572.082258 
L 575.80755 575.202038 
L 580.787229 570.403569 
L 585.766908 560.694143 
L 590.746588 556.30315 
L 595.726267 556.81967 
L 600.705946 555.268963 
L 605.685625 558.126465 
L 610.665304 557.356851 
L 615.644983 559.166966 
L 620.624662 562.408415 
L 625.604342 571.663303 
L 630.584021 576.415286 
L 635.5637 572.767508 
L 640.543379 566.493513 
L 645.523058 564.275921 
L 650.502737 557.057843 
L 655.482416 557.537633 
L 660.462096 557.693736 
L 665.441775 556.896574 
L 670.421454 555.930682 
L 675.401133 555.976021 
L 685.360491 569.43079 
L 690.34017 578.235732 
L 695.31985 576.023305 
L 700.299529 568.796618 
L 705.279208 561.064889 
L 710.258887 559.006271 
L 715.238566 551.03063 
L 720.218245 555.062355 
L 725.197924 552.906171 
L 730.177604 549.956843 
L 735.157283 553.501891 
L 740.136962 560.897881 
L 745.116641 568.498758 
L 750.09632 575.484402 
L 760.055678 572.17064 
L 765.035358 562.44285 
L 774.994716 558.173526 
L 779.974395 555.052024 
L 784.954074 555.644874 
L 789.933753 555.202963 
L 794.913432 559.407435 
L 799.893112 561.487288 
L 804.872791 570.711185 
L 809.85247 575.842523 
L 814.832149 573.965834 
L 819.811828 568.027577 
L 824.791507 563.979783 
L 829.771186 561.265184 
L 834.750866 561.607235 
L 839.730545 557.087113 
L 844.710224 558.959784 
L 849.689903 554.516565 
L 854.669582 556.842626 
L 859.649261 559.507295 
L 864.628941 568.339211 
L 869.60862 572.422013 
L 874.588299 575.163012 
L 879.567978 567.138589 
L 884.547657 561.268628 
L 889.527336 556.427115 
L 894.507015 556.536732 
L 899.486695 551.0071 
L 904.466374 556.489097 
L 909.446053 553.841072 
L 914.425732 556.918957 
L 919.405411 561.87353 
L 924.38509 568.114812 
L 929.364769 570.75308 
L 934.344449 575.476368 
L 939.324128 571.695442 
L 944.303807 563.53328 
L 949.283486 560.524265 
L 954.263165 558.364638 
L 959.242844 554.418427 
L 964.222523 551.84214 
L 969.202203 552.413182 
L 974.181882 557.081373 
L 979.161561 560.147206 
L 984.14124 569.089886 
L 989.120919 571.562869 
L 994.100598 576.093322 
L 999.080277 569.258042 
L 1004.059957 560.441048 
L 1009.039636 556.504019 
L 1014.019315 556.363411 
L 1018.998994 554.270931 
L 1023.978673 550.715553 
L 1028.958352 553.97135 
L 1033.938031 556.717514 
L 1038.917711 559.92912 
L 1043.89739 568.828183 
L 1048.877069 571.520399 
L 1053.856748 571.767181 
L 1058.836427 564.402182 
L 1063.816106 559.176722 
L 1068.795785 555.152459 
L 1073.775465 555.340701 
L 1078.755144 551.412281 
L 1083.734823 554.160741 
L 1088.714502 550.575519 
L 1093.694181 554.393174 
L 1098.67386 554.366201 
L 1103.653539 570.737585 
L 1108.633219 577.97288 
L 1113.612898 574.341746 
L 1113.612898 574.341746 
" style="fill:none;stroke:#008000;stroke-linecap:square;stroke-width:1.5;"/>
   </g>
   <g id="line2d_39">
    <path clip-path="url(#p2758826961)" d="M 97.758352 604.002038 
L 102.738031 606.200691 
L 107.717711 594.737393 
L 112.69739 590.123149 
L 117.677069 588.524807 
L 122.656748 579.918438 
L 127.636427 578.502026 
L 132.616106 579.088563 
L 137.595785 580.436106 
L 142.575465 586.771509 
L 147.555144 596.716812 
L 152.534823 601.298918 
L 157.514502 611.153543 
L 162.494181 602.228653 
L 167.47386 594.374682 
L 172.453539 584.343292 
L 177.433219 582.968201 
L 182.412898 579.401919 
L 187.392577 577.067823 
L 192.372256 574.184494 
L 197.351935 575.897618 
L 202.331614 580.407411 
L 207.311293 589.944663 
L 212.290973 598.273259 
L 217.270652 599.325812 
L 222.250331 597.291297 
L 232.209689 584.405848 
L 237.189368 579.699778 
L 242.169047 577.792672 
L 247.148727 574.01806 
L 252.128406 575.244508 
L 257.108085 571.566886 
L 262.087764 576.472103 
L 267.067443 583.023297 
L 272.047122 594.111831 
L 277.026801 595.641303 
L 282.006481 591.7169 
L 286.98616 592.742479 
L 291.965839 579.078233 
L 296.945518 578.410774 
L 301.925197 574.179903 
L 306.904876 572.578117 
L 311.884555 574.077173 
L 316.864235 575.311655 
L 321.843914 578.007889 
L 326.823593 590.800364 
L 331.803272 593.17119 
L 336.782951 598.702544 
L 341.76263 598.587762 
L 346.742309 586.110938 
L 351.721989 581.984518 
L 356.701668 579.234337 
L 361.681347 575.212369 
L 366.661026 575.756436 
L 371.640705 578.565156 
L 381.600064 578.331001 
L 386.579743 591.30598 
L 391.559422 598.019016 
L 396.539101 599.240299 
L 401.51878 597.968512 
L 406.498459 588.575311 
L 411.478138 584.305988 
L 416.457818 577.543595 
L 421.437497 577.625664 
L 426.417176 574.033555 
L 431.396855 575.970505 
L 436.376534 575.173917 
L 441.356213 580.65534 
L 446.335892 588.611468 
L 451.315572 591.243997 
L 456.295251 601.612847 
L 461.27493 594.222595 
L 466.254609 590.734365 
L 471.234288 581.303286 
L 476.213967 582.684115 
L 481.193646 578.848668 
L 486.173326 576.26033 
L 491.153005 575.611811 
L 496.132684 575.669202 
L 501.112363 583.130618 
L 506.092042 600.557998 
L 511.071721 596.573909 
L 516.0514 597.45314 
L 521.03108 597.390584 
L 526.010759 590.445687 
L 530.990438 580.49981 
L 535.970117 581.334277 
L 540.949796 574.907622 
L 545.929475 573.859087 
L 550.909154 576.157026 
L 555.888834 576.954762 
L 560.868513 580.649601 
L 565.848192 595.155201 
L 570.827871 599.222508 
L 575.80755 604.168472 
L 580.787229 601.183561 
L 585.766908 590.360175 
L 590.746588 584.199814 
L 595.726267 581.979353 
L 600.705946 579.475953 
L 605.685625 580.550314 
L 610.665304 578.301731 
L 615.644983 581.240155 
L 620.624662 586.721579 
L 625.604342 596.93662 
L 630.584021 603.814369 
L 635.5637 604.262594 
L 640.543379 596.95269 
L 645.523058 594.32303 
L 650.502737 584.169971 
L 655.482416 582.315091 
L 660.462096 581.280329 
L 665.441775 578.718965 
L 670.421454 577.582621 
L 675.401133 577.788655 
L 680.380812 586.337633 
L 685.360491 593.854145 
L 690.34017 604.072055 
L 695.31985 603.806908 
L 700.299529 598.282442 
L 705.279208 587.604254 
L 710.258887 584.112006 
L 715.238566 575.401759 
L 720.218245 576.903684 
L 725.197924 575.00863 
L 730.177604 572.580987 
L 735.157283 575.688141 
L 740.136962 584.5895 
L 745.116641 593.166025 
L 750.09632 604.161012 
L 755.075999 601.367787 
L 760.055678 604.664905 
L 765.035358 591.058624 
L 770.015037 588.136843 
L 774.994716 583.517434 
L 779.974395 577.528673 
L 784.954074 576.881302 
L 789.933753 576.387164 
L 794.913432 579.36404 
L 799.893112 584.979185 
L 804.872791 594.894645 
L 809.85247 603.112476 
L 814.832149 601.899228 
L 819.811828 597.404358 
L 824.791507 593.745101 
L 829.771186 586.045512 
L 834.750866 585.943356 
L 839.730545 580.106681 
L 844.710224 581.611476 
L 849.689903 578.970911 
L 854.669582 581.411181 
L 859.649261 584.130371 
L 864.628941 593.503485 
L 869.60862 596.856273 
L 874.588299 603.84536 
L 879.567978 598.551606 
L 884.547657 592.571454 
L 889.527336 583.185714 
L 894.507015 580.487758 
L 899.486695 573.38848 
L 904.466374 577.658951 
L 909.446053 576.980014 
L 914.425732 578.34707 
L 919.405411 586.617701 
L 924.38509 594.018283 
L 929.364769 596.223249 
L 934.344449 604.286698 
L 939.324128 603.332284 
L 944.303807 592.546775 
L 949.283486 586.759457 
L 959.242844 577.796116 
L 964.222523 577.090779 
L 969.202203 576.546138 
L 974.181882 579.242945 
L 979.161561 583.756755 
L 984.14124 593.971796 
L 989.120919 597.51627 
L 994.100598 603.186511 
L 999.080277 600.726728 
L 1004.059957 588.387069 
L 1009.039636 584.580317 
L 1023.978673 574.999448 
L 1028.958352 576.841128 
L 1033.938031 578.038306 
L 1038.917711 582.988288 
L 1043.89739 591.264084 
L 1048.877069 598.579153 
L 1053.856748 599.072143 
L 1058.836427 595.655077 
L 1063.816106 588.13053 
L 1068.795785 581.739458 
L 1073.775465 578.558843 
L 1078.755144 574.983378 
L 1083.734823 575.31682 
L 1088.714502 573.84933 
L 1093.694181 576.797511 
L 1098.67386 579.279676 
L 1103.653539 594.754611 
L 1108.633219 605.340399 
L 1113.612898 605.167077 
L 1113.612898 605.167077 
" style="fill:none;stroke:#0000ff;stroke-linecap:square;stroke-width:1.5;"/>
   </g>
   <g id="line2d_40">
    <defs>
     <path d="M 0 3 
C 0.795609 3 1.55874 2.683901 2.12132 2.12132 
C 2.683901 1.55874 3 0.795609 3 0 
C 3 -0.795609 2.683901 -1.55874 2.12132 -2.12132 
C 1.55874 -2.683901 0.795609 -3 0 -3 
C -0.795609 -3 -1.55874 -2.683901 -2.12132 -2.12132 
C -2.683901 -1.55874 -3 -0.795609 -3 0 
C -3 0.795609 -2.683901 1.55874 -2.12132 2.12132 
C -1.55874 2.683901 -0.795609 3 0 3 
z
" id="m623369b025" style="stroke:#ff0000;"/>
    </defs>
    <g clip-path="url(#p2758826961)">
     <use style="fill:#ff0000;stroke:#ff0000;" x="97.758352" xlink:href="#m623369b025" y="639.849091"/>
     <use style="fill:#ff0000;stroke:#ff0000;" x="102.738031" xlink:href="#m623369b025" y="639.849091"/>
     <use style="fill:#ff0000;stroke:#ff0000;" x="107.717711" xlink:href="#m623369b025" y="639.849091"/>
     <use style="fill:#ff0000;stroke:#ff0000;" x="112.69739" xlink:href="#m623369b025" y="639.849091"/>
     <use style="fill:#ff0000;stroke:#ff0000;" x="117.677069" xlink:href="#m623369b025" y="639.849091"/>
     <use style="fill:#ff0000;stroke:#ff0000;" x="122.656748" xlink:href="#m623369b025" y="639.849091"/>
     <use style="fill:#ff0000;stroke:#ff0000;" x="127.636427" xlink:href="#m623369b025" y="639.849091"/>
     <use style="fill:#ff0000;stroke:#ff0000;" x="157.514502" xlink:href="#m623369b025" y="639.849091"/>
     <use style="fill:#ff0000;stroke:#ff0000;" x="162.494181" xlink:href="#m623369b025" y="639.849091"/>
     <use style="fill:#ff0000;stroke:#ff0000;" x="167.47386" xlink:href="#m623369b025" y="639.849091"/>
     <use style="fill:#ff0000;stroke:#ff0000;" x="172.453539" xlink:href="#m623369b025" y="639.849091"/>
     <use style="fill:#ff0000;stroke:#ff0000;" x="182.412898" xlink:href="#m623369b025" y="639.849091"/>
     <use style="fill:#ff0000;stroke:#ff0000;" x="202.331614" xlink:href="#m623369b025" y="639.849091"/>
     <use style="fill:#ff0000;stroke:#ff0000;" x="212.290973" xlink:href="#m623369b025" y="639.849091"/>
     <use style="fill:#ff0000;stroke:#ff0000;" x="217.270652" xlink:href="#m623369b025" y="639.849091"/>
     <use style="fill:#ff0000;stroke:#ff0000;" x="222.250331" xlink:href="#m623369b025" y="639.849091"/>
     <use style="fill:#ff0000;stroke:#ff0000;" x="227.23001" xlink:href="#m623369b025" y="639.849091"/>
     <use style="fill:#ff0000;stroke:#ff0000;" x="232.209689" xlink:href="#m623369b025" y="639.849091"/>
     <use style="fill:#ff0000;stroke:#ff0000;" x="237.189368" xlink:href="#m623369b025" y="639.849091"/>
     <use style="fill:#ff0000;stroke:#ff0000;" x="242.169047" xlink:href="#m623369b025" y="639.849091"/>
     <use style="fill:#ff0000;stroke:#ff0000;" x="252.128406" xlink:href="#m623369b025" y="639.849091"/>
     <use style="fill:#ff0000;stroke:#ff0000;" x="272.047122" xlink:href="#m623369b025" y="639.849091"/>
     <use style="fill:#ff0000;stroke:#ff0000;" x="286.98616" xlink:href="#m623369b025" y="639.849091"/>
     <use style="fill:#ff0000;stroke:#ff0000;" x="291.965839" xlink:href="#m623369b025" y="639.849091"/>
     <use style="fill:#ff0000;stroke:#ff0000;" x="296.945518" xlink:href="#m623369b025" y="639.849091"/>
     <use style="fill:#ff0000;stroke:#ff0000;" x="301.925197" xlink:href="#m623369b025" y="639.849091"/>
     <use style="fill:#ff0000;stroke:#ff0000;" x="306.904876" xlink:href="#m623369b025" y="639.849091"/>
     <use style="fill:#ff0000;stroke:#ff0000;" x="311.884555" xlink:href="#m623369b025" y="639.849091"/>
     <use style="fill:#ff0000;stroke:#ff0000;" x="351.721989" xlink:href="#m623369b025" y="639.849091"/>
     <use style="fill:#ff0000;stroke:#ff0000;" x="356.701668" xlink:href="#m623369b025" y="639.849091"/>
     <use style="fill:#ff0000;stroke:#ff0000;" x="361.681347" xlink:href="#m623369b025" y="639.849091"/>
     <use style="fill:#ff0000;stroke:#ff0000;" x="366.661026" xlink:href="#m623369b025" y="639.849091"/>
     <use style="fill:#ff0000;stroke:#ff0000;" x="371.640705" xlink:href="#m623369b025" y="639.849091"/>
     <use style="fill:#ff0000;stroke:#ff0000;" x="376.620384" xlink:href="#m623369b025" y="639.849091"/>
     <use style="fill:#ff0000;stroke:#ff0000;" x="391.559422" xlink:href="#m623369b025" y="639.849091"/>
     <use style="fill:#ff0000;stroke:#ff0000;" x="396.539101" xlink:href="#m623369b025" y="639.849091"/>
     <use style="fill:#ff0000;stroke:#ff0000;" x="421.437497" xlink:href="#m623369b025" y="639.849091"/>
     <use style="fill:#ff0000;stroke:#ff0000;" x="426.417176" xlink:href="#m623369b025" y="639.849091"/>
     <use style="fill:#ff0000;stroke:#ff0000;" x="431.396855" xlink:href="#m623369b025" y="639.849091"/>
     <use style="fill:#ff0000;stroke:#ff0000;" x="436.376534" xlink:href="#m623369b025" y="639.849091"/>
     <use style="fill:#ff0000;stroke:#ff0000;" x="451.315572" xlink:href="#m623369b025" y="639.849091"/>
     <use style="fill:#ff0000;stroke:#ff0000;" x="471.234288" xlink:href="#m623369b025" y="639.849091"/>
     <use style="fill:#ff0000;stroke:#ff0000;" x="486.173326" xlink:href="#m623369b025" y="639.849091"/>
     <use style="fill:#ff0000;stroke:#ff0000;" x="496.132684" xlink:href="#m623369b025" y="639.849091"/>
     <use style="fill:#ff0000;stroke:#ff0000;" x="501.112363" xlink:href="#m623369b025" y="639.849091"/>
     <use style="fill:#ff0000;stroke:#ff0000;" x="545.929475" xlink:href="#m623369b025" y="639.849091"/>
     <use style="fill:#ff0000;stroke:#ff0000;" x="585.766908" xlink:href="#m623369b025" y="639.849091"/>
     <use style="fill:#ff0000;stroke:#ff0000;" x="590.746588" xlink:href="#m623369b025" y="639.849091"/>
     <use style="fill:#ff0000;stroke:#ff0000;" x="595.726267" xlink:href="#m623369b025" y="639.849091"/>
     <use style="fill:#ff0000;stroke:#ff0000;" x="600.705946" xlink:href="#m623369b025" y="639.849091"/>
     <use style="fill:#ff0000;stroke:#ff0000;" x="605.685625" xlink:href="#m623369b025" y="639.849091"/>
     <use style="fill:#ff0000;stroke:#ff0000;" x="610.665304" xlink:href="#m623369b025" y="639.849091"/>
     <use style="fill:#ff0000;stroke:#ff0000;" x="615.644983" xlink:href="#m623369b025" y="639.849091"/>
     <use style="fill:#ff0000;stroke:#ff0000;" x="620.624662" xlink:href="#m623369b025" y="639.849091"/>
     <use style="fill:#ff0000;stroke:#ff0000;" x="625.604342" xlink:href="#m623369b025" y="639.849091"/>
     <use style="fill:#ff0000;stroke:#ff0000;" x="655.482416" xlink:href="#m623369b025" y="639.849091"/>
     <use style="fill:#ff0000;stroke:#ff0000;" x="665.441775" xlink:href="#m623369b025" y="639.849091"/>
     <use style="fill:#ff0000;stroke:#ff0000;" x="680.380812" xlink:href="#m623369b025" y="639.849091"/>
     <use style="fill:#ff0000;stroke:#ff0000;" x="685.360491" xlink:href="#m623369b025" y="639.849091"/>
     <use style="fill:#ff0000;stroke:#ff0000;" x="690.34017" xlink:href="#m623369b025" y="639.849091"/>
     <use style="fill:#ff0000;stroke:#ff0000;" x="705.279208" xlink:href="#m623369b025" y="639.849091"/>
     <use style="fill:#ff0000;stroke:#ff0000;" x="715.238566" xlink:href="#m623369b025" y="639.849091"/>
     <use style="fill:#ff0000;stroke:#ff0000;" x="720.218245" xlink:href="#m623369b025" y="639.849091"/>
     <use style="fill:#ff0000;stroke:#ff0000;" x="725.197924" xlink:href="#m623369b025" y="639.849091"/>
     <use style="fill:#ff0000;stroke:#ff0000;" x="730.177604" xlink:href="#m623369b025" y="639.849091"/>
     <use style="fill:#ff0000;stroke:#ff0000;" x="740.136962" xlink:href="#m623369b025" y="639.849091"/>
     <use style="fill:#ff0000;stroke:#ff0000;" x="750.09632" xlink:href="#m623369b025" y="639.849091"/>
     <use style="fill:#ff0000;stroke:#ff0000;" x="770.015037" xlink:href="#m623369b025" y="639.849091"/>
     <use style="fill:#ff0000;stroke:#ff0000;" x="774.994716" xlink:href="#m623369b025" y="639.849091"/>
     <use style="fill:#ff0000;stroke:#ff0000;" x="779.974395" xlink:href="#m623369b025" y="639.849091"/>
     <use style="fill:#ff0000;stroke:#ff0000;" x="784.954074" xlink:href="#m623369b025" y="639.849091"/>
     <use style="fill:#ff0000;stroke:#ff0000;" x="794.913432" xlink:href="#m623369b025" y="639.849091"/>
     <use style="fill:#ff0000;stroke:#ff0000;" x="799.893112" xlink:href="#m623369b025" y="639.849091"/>
     <use style="fill:#ff0000;stroke:#ff0000;" x="804.872791" xlink:href="#m623369b025" y="639.849091"/>
     <use style="fill:#ff0000;stroke:#ff0000;" x="814.832149" xlink:href="#m623369b025" y="639.849091"/>
     <use style="fill:#ff0000;stroke:#ff0000;" x="824.791507" xlink:href="#m623369b025" y="639.849091"/>
     <use style="fill:#ff0000;stroke:#ff0000;" x="839.730545" xlink:href="#m623369b025" y="639.849091"/>
     <use style="fill:#ff0000;stroke:#ff0000;" x="844.710224" xlink:href="#m623369b025" y="639.849091"/>
     <use style="fill:#ff0000;stroke:#ff0000;" x="849.689903" xlink:href="#m623369b025" y="639.849091"/>
     <use style="fill:#ff0000;stroke:#ff0000;" x="854.669582" xlink:href="#m623369b025" y="639.849091"/>
     <use style="fill:#ff0000;stroke:#ff0000;" x="864.628941" xlink:href="#m623369b025" y="639.849091"/>
     <use style="fill:#ff0000;stroke:#ff0000;" x="869.60862" xlink:href="#m623369b025" y="639.849091"/>
     <use style="fill:#ff0000;stroke:#ff0000;" x="874.588299" xlink:href="#m623369b025" y="639.849091"/>
     <use style="fill:#ff0000;stroke:#ff0000;" x="879.567978" xlink:href="#m623369b025" y="639.849091"/>
     <use style="fill:#ff0000;stroke:#ff0000;" x="884.547657" xlink:href="#m623369b025" y="639.849091"/>
     <use style="fill:#ff0000;stroke:#ff0000;" x="889.527336" xlink:href="#m623369b025" y="639.849091"/>
     <use style="fill:#ff0000;stroke:#ff0000;" x="894.507015" xlink:href="#m623369b025" y="639.849091"/>
     <use style="fill:#ff0000;stroke:#ff0000;" x="899.486695" xlink:href="#m623369b025" y="639.849091"/>
     <use style="fill:#ff0000;stroke:#ff0000;" x="904.466374" xlink:href="#m623369b025" y="639.849091"/>
     <use style="fill:#ff0000;stroke:#ff0000;" x="909.446053" xlink:href="#m623369b025" y="639.849091"/>
     <use style="fill:#ff0000;stroke:#ff0000;" x="914.425732" xlink:href="#m623369b025" y="639.849091"/>
     <use style="fill:#ff0000;stroke:#ff0000;" x="919.405411" xlink:href="#m623369b025" y="639.849091"/>
     <use style="fill:#ff0000;stroke:#ff0000;" x="924.38509" xlink:href="#m623369b025" y="639.849091"/>
     <use style="fill:#ff0000;stroke:#ff0000;" x="944.303807" xlink:href="#m623369b025" y="639.849091"/>
     <use style="fill:#ff0000;stroke:#ff0000;" x="959.242844" xlink:href="#m623369b025" y="639.849091"/>
     <use style="fill:#ff0000;stroke:#ff0000;" x="964.222523" xlink:href="#m623369b025" y="639.849091"/>
     <use style="fill:#ff0000;stroke:#ff0000;" x="969.202203" xlink:href="#m623369b025" y="639.849091"/>
     <use style="fill:#ff0000;stroke:#ff0000;" x="974.181882" xlink:href="#m623369b025" y="639.849091"/>
     <use style="fill:#ff0000;stroke:#ff0000;" x="979.161561" xlink:href="#m623369b025" y="639.849091"/>
     <use style="fill:#ff0000;stroke:#ff0000;" x="984.14124" xlink:href="#m623369b025" y="639.849091"/>
     <use style="fill:#ff0000;stroke:#ff0000;" x="989.120919" xlink:href="#m623369b025" y="639.849091"/>
     <use style="fill:#ff0000;stroke:#ff0000;" x="994.100598" xlink:href="#m623369b025" y="639.849091"/>
     <use style="fill:#ff0000;stroke:#ff0000;" x="999.080277" xlink:href="#m623369b025" y="639.849091"/>
     <use style="fill:#ff0000;stroke:#ff0000;" x="1004.059957" xlink:href="#m623369b025" y="639.849091"/>
     <use style="fill:#ff0000;stroke:#ff0000;" x="1009.039636" xlink:href="#m623369b025" y="639.849091"/>
     <use style="fill:#ff0000;stroke:#ff0000;" x="1014.019315" xlink:href="#m623369b025" y="639.849091"/>
     <use style="fill:#ff0000;stroke:#ff0000;" x="1018.998994" xlink:href="#m623369b025" y="639.849091"/>
     <use style="fill:#ff0000;stroke:#ff0000;" x="1023.978673" xlink:href="#m623369b025" y="639.849091"/>
     <use style="fill:#ff0000;stroke:#ff0000;" x="1028.958352" xlink:href="#m623369b025" y="639.849091"/>
     <use style="fill:#ff0000;stroke:#ff0000;" x="1033.938031" xlink:href="#m623369b025" y="639.849091"/>
     <use style="fill:#ff0000;stroke:#ff0000;" x="1038.917711" xlink:href="#m623369b025" y="639.849091"/>
     <use style="fill:#ff0000;stroke:#ff0000;" x="1043.89739" xlink:href="#m623369b025" y="639.849091"/>
     <use style="fill:#ff0000;stroke:#ff0000;" x="1048.877069" xlink:href="#m623369b025" y="639.849091"/>
     <use style="fill:#ff0000;stroke:#ff0000;" x="1053.856748" xlink:href="#m623369b025" y="639.849091"/>
     <use style="fill:#ff0000;stroke:#ff0000;" x="1058.836427" xlink:href="#m623369b025" y="639.849091"/>
     <use style="fill:#ff0000;stroke:#ff0000;" x="1063.816106" xlink:href="#m623369b025" y="639.849091"/>
     <use style="fill:#ff0000;stroke:#ff0000;" x="1068.795785" xlink:href="#m623369b025" y="639.849091"/>
     <use style="fill:#ff0000;stroke:#ff0000;" x="1073.775465" xlink:href="#m623369b025" y="639.849091"/>
     <use style="fill:#ff0000;stroke:#ff0000;" x="1078.755144" xlink:href="#m623369b025" y="639.849091"/>
     <use style="fill:#ff0000;stroke:#ff0000;" x="1083.734823" xlink:href="#m623369b025" y="639.849091"/>
     <use style="fill:#ff0000;stroke:#ff0000;" x="1088.714502" xlink:href="#m623369b025" y="639.849091"/>
     <use style="fill:#ff0000;stroke:#ff0000;" x="1093.694181" xlink:href="#m623369b025" y="639.849091"/>
     <use style="fill:#ff0000;stroke:#ff0000;" x="1098.67386" xlink:href="#m623369b025" y="639.849091"/>
     <use style="fill:#ff0000;stroke:#ff0000;" x="1103.653539" xlink:href="#m623369b025" y="639.849091"/>
     <use style="fill:#ff0000;stroke:#ff0000;" x="1108.633219" xlink:href="#m623369b025" y="639.849091"/>
     <use style="fill:#ff0000;stroke:#ff0000;" x="1113.612898" xlink:href="#m623369b025" y="639.849091"/>
    </g>
   </g>
   <g id="patch_9">
    <path d="M 46.965625 645.74 
L 46.965625 516.14 
" style="fill:none;stroke:#000000;stroke-linecap:square;stroke-linejoin:miter;stroke-width:0.8;"/>
   </g>
   <g id="patch_10">
    <path d="M 1164.405625 645.74 
L 1164.405625 516.14 
" style="fill:none;stroke:#000000;stroke-linecap:square;stroke-linejoin:miter;stroke-width:0.8;"/>
   </g>
   <g id="patch_11">
    <path d="M 46.965625 645.74 
L 1164.405625 645.74 
" style="fill:none;stroke:#000000;stroke-linecap:square;stroke-linejoin:miter;stroke-width:0.8;"/>
   </g>
   <g id="patch_12">
    <path d="M 46.965625 516.14 
L 1164.405625 516.14 
" style="fill:none;stroke:#000000;stroke-linecap:square;stroke-linejoin:miter;stroke-width:0.8;"/>
   </g>
   <g id="legend_2">
    <g id="patch_13">
     <path d="M 53.965625 582.8525 
L 144.978125 582.8525 
Q 146.978125 582.8525 146.978125 580.8525 
L 146.978125 523.14 
Q 146.978125 521.14 144.978125 521.14 
L 53.965625 521.14 
Q 51.965625 521.14 51.965625 523.14 
L 51.965625 580.8525 
Q 51.965625 582.8525 53.965625 582.8525 
z
" style="fill:#ffffff;opacity:0.8;stroke:#cccccc;stroke-linejoin:miter;"/>
    </g>
    <g id="line2d_41">
     <path d="M 55.965625 529.238437 
L 75.965625 529.238437 
" style="fill:none;stroke:#ff0000;stroke-linecap:square;stroke-width:1.5;"/>
    </g>
    <g id="line2d_42"/>
    <g id="text_34">
     <!-- Maxmimum -->
     <defs>
      <path d="M 9.8125 72.90625 
L 24.515625 72.90625 
L 43.109375 23.296875 
L 61.8125 72.90625 
L 76.515625 72.90625 
L 76.515625 0 
L 66.890625 0 
L 66.890625 64.015625 
L 48.09375 14.015625 
L 38.1875 14.015625 
L 19.390625 64.015625 
L 19.390625 0 
L 9.8125 0 
z
" id="DejaVuSans-4d"/>
      <path d="M 54.890625 54.6875 
L 35.109375 28.078125 
L 55.90625 0 
L 45.3125 0 
L 29.390625 21.484375 
L 13.484375 0 
L 2.875 0 
L 24.125 28.609375 
L 4.6875 54.6875 
L 15.28125 54.6875 
L 29.78125 35.203125 
L 44.28125 54.6875 
z
" id="DejaVuSans-78"/>
     </defs>
     <g transform="translate(83.965625 532.738437)scale(0.1 -0.1)">
      <use xlink:href="#DejaVuSans-4d"/>
      <use x="86.279297" xlink:href="#DejaVuSans-61"/>
      <use x="147.558594" xlink:href="#DejaVuSans-78"/>
      <use x="206.738281" xlink:href="#DejaVuSans-6d"/>
      <use x="304.150391" xlink:href="#DejaVuSans-69"/>
      <use x="331.933594" xlink:href="#DejaVuSans-6d"/>
      <use x="429.345703" xlink:href="#DejaVuSans-75"/>
      <use x="492.724609" xlink:href="#DejaVuSans-6d"/>
     </g>
    </g>
    <g id="line2d_43">
     <path d="M 55.965625 543.916562 
L 75.965625 543.916562 
" style="fill:none;stroke:#008000;stroke-linecap:square;stroke-width:1.5;"/>
    </g>
    <g id="line2d_44"/>
    <g id="text_35">
     <!-- Average -->
     <defs>
      <path d="M 34.1875 63.1875 
L 20.796875 26.90625 
L 47.609375 26.90625 
z
M 28.609375 72.90625 
L 39.796875 72.90625 
L 67.578125 0 
L 57.328125 0 
L 50.6875 18.703125 
L 17.828125 18.703125 
L 11.1875 0 
L 0.78125 0 
z
" id="DejaVuSans-41"/>
      <path d="M 2.984375 54.6875 
L 12.5 54.6875 
L 29.59375 8.796875 
L 46.6875 54.6875 
L 56.203125 54.6875 
L 35.6875 0 
L 23.484375 0 
z
" id="DejaVuSans-76"/>
     </defs>
     <g transform="translate(83.965625 547.416562)scale(0.1 -0.1)">
      <use xlink:href="#DejaVuSans-41"/>
      <use x="68.330078" xlink:href="#DejaVuSans-76"/>
      <use x="127.509766" xlink:href="#DejaVuSans-65"/>
      <use x="189.033203" xlink:href="#DejaVuSans-72"/>
      <use x="230.146484" xlink:href="#DejaVuSans-61"/>
      <use x="291.425781" xlink:href="#DejaVuSans-67"/>
      <use x="354.902344" xlink:href="#DejaVuSans-65"/>
     </g>
    </g>
    <g id="line2d_45">
     <path d="M 55.965625 558.594687 
L 75.965625 558.594687 
" style="fill:none;stroke:#0000ff;stroke-linecap:square;stroke-width:1.5;"/>
    </g>
    <g id="line2d_46"/>
    <g id="text_36">
     <!-- Minimum -->
     <g transform="translate(83.965625 562.094687)scale(0.1 -0.1)">
      <use xlink:href="#DejaVuSans-4d"/>
      <use x="86.279297" xlink:href="#DejaVuSans-69"/>
      <use x="114.0625" xlink:href="#DejaVuSans-6e"/>
      <use x="177.441406" xlink:href="#DejaVuSans-69"/>
      <use x="205.224609" xlink:href="#DejaVuSans-6d"/>
      <use x="302.636719" xlink:href="#DejaVuSans-75"/>
      <use x="366.015625" xlink:href="#DejaVuSans-6d"/>
     </g>
    </g>
    <g id="line2d_47"/>
    <g id="line2d_48">
     <g>
      <use style="fill:#ff0000;stroke:#ff0000;" x="65.965625" xlink:href="#m623369b025" y="573.272812"/>
     </g>
    </g>
    <g id="text_37">
     <!-- Disasters -->
     <g transform="translate(83.965625 576.772812)scale(0.1 -0.1)">
      <use xlink:href="#DejaVuSans-44"/>
      <use x="77.001953" xlink:href="#DejaVuSans-69"/>
      <use x="104.785156" xlink:href="#DejaVuSans-73"/>
      <use x="156.884766" xlink:href="#DejaVuSans-61"/>
      <use x="218.164062" xlink:href="#DejaVuSans-73"/>
      <use x="270.263672" xlink:href="#DejaVuSans-74"/>
      <use x="309.472656" xlink:href="#DejaVuSans-65"/>
      <use x="370.996094" xlink:href="#DejaVuSans-72"/>
      <use x="412.109375" xlink:href="#DejaVuSans-73"/>
     </g>
    </g>
   </g>
  </g>
 </g>
 <defs>
  <clipPath id="pc1c37fb058">
   <rect height="498.96" width="1116" x="46.965625" y="10.7"/>
  </clipPath>
  <clipPath id="p2758826961">
   <rect height="129.6" width="1117.44" x="46.965625" y="516.14"/>
  </clipPath>
 </defs>
</svg>
