<?xml version="1.0" encoding="utf-8" standalone="no"?>
<!DOCTYPE svg PUBLIC "-//W3C//DTD SVG 1.1//EN"
  "http://www.w3.org/Graphics/SVG/1.1/DTD/svg11.dtd">
<!-- Created with matplotlib (http://matplotlib.org/) -->
<svg height="669pt" version="1.1" viewBox="0 0 1175 669" width="1175pt" xmlns="http://www.w3.org/2000/svg" xmlns:xlink="http://www.w3.org/1999/xlink">
 <defs>
  <style type="text/css">
*{stroke-linecap:butt;stroke-linejoin:round;}
  </style>
 </defs>
 <g id="figure_1">
  <g id="patch_1">
   <path d="M 0 669.618125 
L 1175.105625 669.618125 
L 1175.105625 -0 
L 0 -0 
z
" style="fill:none;"/>
  </g>
  <g id="axes_1">
   <g id="patch_2">
    <path d="M 46.965625 509.66 
L 1162.965625 509.66 
L 1162.965625 10.7 
L 46.965625 10.7 
z
" style="fill:none;"/>
   </g>
   <g id="matplotlib.axis_1">
    <g id="xtick_1">
     <g id="line2d_1">
      <defs>
       <path d="M 0 0 
L 0 3.5 
" id="m3a446c6017" style="stroke:#000000;stroke-width:0.8;"/>
      </defs>
      <g>
       <use style="stroke:#000000;stroke-width:0.8;" x="97.692898" xlink:href="#m3a446c6017" y="509.66"/>
      </g>
     </g>
     <g id="text_1">
      <!-- 0 -->
      <defs>
       <path d="M 31.78125 66.40625 
Q 24.171875 66.40625 20.328125 58.90625 
Q 16.5 51.421875 16.5 36.375 
Q 16.5 21.390625 20.328125 13.890625 
Q 24.171875 6.390625 31.78125 6.390625 
Q 39.453125 6.390625 43.28125 13.890625 
Q 47.125 21.390625 47.125 36.375 
Q 47.125 51.421875 43.28125 58.90625 
Q 39.453125 66.40625 31.78125 66.40625 
z
M 31.78125 74.21875 
Q 44.046875 74.21875 50.515625 64.515625 
Q 56.984375 54.828125 56.984375 36.375 
Q 56.984375 17.96875 50.515625 8.265625 
Q 44.046875 -1.421875 31.78125 -1.421875 
Q 19.53125 -1.421875 13.0625 8.265625 
Q 6.59375 17.96875 6.59375 36.375 
Q 6.59375 54.828125 13.0625 64.515625 
Q 19.53125 74.21875 31.78125 74.21875 
z
" id="DejaVuSans-30"/>
      </defs>
      <g transform="translate(94.511648 524.258437)scale(0.1 -0.1)">
       <use xlink:href="#DejaVuSans-30"/>
      </g>
     </g>
    </g>
    <g id="xtick_2">
     <g id="line2d_2">
      <g>
       <use style="stroke:#000000;stroke-width:0.8;" x="340.407121" xlink:href="#m3a446c6017" y="509.66"/>
      </g>
     </g>
     <g id="text_2">
      <!-- 50 -->
      <defs>
       <path d="M 10.796875 72.90625 
L 49.515625 72.90625 
L 49.515625 64.59375 
L 19.828125 64.59375 
L 19.828125 46.734375 
Q 21.96875 47.46875 24.109375 47.828125 
Q 26.265625 48.1875 28.421875 48.1875 
Q 40.625 48.1875 47.75 41.5 
Q 54.890625 34.8125 54.890625 23.390625 
Q 54.890625 11.625 47.5625 5.09375 
Q 40.234375 -1.421875 26.90625 -1.421875 
Q 22.3125 -1.421875 17.546875 -0.640625 
Q 12.796875 0.140625 7.71875 1.703125 
L 7.71875 11.625 
Q 12.109375 9.234375 16.796875 8.0625 
Q 21.484375 6.890625 26.703125 6.890625 
Q 35.15625 6.890625 40.078125 11.328125 
Q 45.015625 15.765625 45.015625 23.390625 
Q 45.015625 31 40.078125 35.4375 
Q 35.15625 39.890625 26.703125 39.890625 
Q 22.75 39.890625 18.8125 39.015625 
Q 14.890625 38.140625 10.796875 36.28125 
z
" id="DejaVuSans-35"/>
      </defs>
      <g transform="translate(334.044621 524.258437)scale(0.1 -0.1)">
       <use xlink:href="#DejaVuSans-35"/>
       <use x="63.623047" xlink:href="#DejaVuSans-30"/>
      </g>
     </g>
    </g>
    <g id="xtick_3">
     <g id="line2d_3">
      <g>
       <use style="stroke:#000000;stroke-width:0.8;" x="583.121345" xlink:href="#m3a446c6017" y="509.66"/>
      </g>
     </g>
     <g id="text_3">
      <!-- 100 -->
      <defs>
       <path d="M 12.40625 8.296875 
L 28.515625 8.296875 
L 28.515625 63.921875 
L 10.984375 60.40625 
L 10.984375 69.390625 
L 28.421875 72.90625 
L 38.28125 72.90625 
L 38.28125 8.296875 
L 54.390625 8.296875 
L 54.390625 0 
L 12.40625 0 
z
" id="DejaVuSans-31"/>
      </defs>
      <g transform="translate(573.577595 524.258437)scale(0.1 -0.1)">
       <use xlink:href="#DejaVuSans-31"/>
       <use x="63.623047" xlink:href="#DejaVuSans-30"/>
       <use x="127.246094" xlink:href="#DejaVuSans-30"/>
      </g>
     </g>
    </g>
    <g id="xtick_4">
     <g id="line2d_4">
      <g>
       <use style="stroke:#000000;stroke-width:0.8;" x="825.835568" xlink:href="#m3a446c6017" y="509.66"/>
      </g>
     </g>
     <g id="text_4">
      <!-- 150 -->
      <g transform="translate(816.291818 524.258437)scale(0.1 -0.1)">
       <use xlink:href="#DejaVuSans-31"/>
       <use x="63.623047" xlink:href="#DejaVuSans-35"/>
       <use x="127.246094" xlink:href="#DejaVuSans-30"/>
      </g>
     </g>
    </g>
    <g id="xtick_5">
     <g id="line2d_5">
      <g>
       <use style="stroke:#000000;stroke-width:0.8;" x="1068.549792" xlink:href="#m3a446c6017" y="509.66"/>
      </g>
     </g>
     <g id="text_5">
      <!-- 200 -->
      <defs>
       <path d="M 19.1875 8.296875 
L 53.609375 8.296875 
L 53.609375 0 
L 7.328125 0 
L 7.328125 8.296875 
Q 12.9375 14.109375 22.625 23.890625 
Q 32.328125 33.6875 34.8125 36.53125 
Q 39.546875 41.84375 41.421875 45.53125 
Q 43.3125 49.21875 43.3125 52.78125 
Q 43.3125 58.59375 39.234375 62.25 
Q 35.15625 65.921875 28.609375 65.921875 
Q 23.96875 65.921875 18.8125 64.3125 
Q 13.671875 62.703125 7.8125 59.421875 
L 7.8125 69.390625 
Q 13.765625 71.78125 18.9375 73 
Q 24.125 74.21875 28.421875 74.21875 
Q 39.75 74.21875 46.484375 68.546875 
Q 53.21875 62.890625 53.21875 53.421875 
Q 53.21875 48.921875 51.53125 44.890625 
Q 49.859375 40.875 45.40625 35.40625 
Q 44.1875 33.984375 37.640625 27.21875 
Q 31.109375 20.453125 19.1875 8.296875 
z
" id="DejaVuSans-32"/>
      </defs>
      <g transform="translate(1059.006042 524.258437)scale(0.1 -0.1)">
       <use xlink:href="#DejaVuSans-32"/>
       <use x="63.623047" xlink:href="#DejaVuSans-30"/>
       <use x="127.246094" xlink:href="#DejaVuSans-30"/>
      </g>
     </g>
    </g>
    <g id="text_6">
     <!-- Time -->
     <defs>
      <path d="M -0.296875 72.90625 
L 61.375 72.90625 
L 61.375 64.59375 
L 35.5 64.59375 
L 35.5 0 
L 25.59375 0 
L 25.59375 64.59375 
L -0.296875 64.59375 
z
" id="DejaVuSans-54"/>
      <path d="M 9.421875 54.6875 
L 18.40625 54.6875 
L 18.40625 0 
L 9.421875 0 
z
M 9.421875 75.984375 
L 18.40625 75.984375 
L 18.40625 64.59375 
L 9.421875 64.59375 
z
" id="DejaVuSans-69"/>
      <path d="M 52 44.1875 
Q 55.375 50.25 60.0625 53.125 
Q 64.75 56 71.09375 56 
Q 79.640625 56 84.28125 50.015625 
Q 88.921875 44.046875 88.921875 33.015625 
L 88.921875 0 
L 79.890625 0 
L 79.890625 32.71875 
Q 79.890625 40.578125 77.09375 44.375 
Q 74.3125 48.1875 68.609375 48.1875 
Q 61.625 48.1875 57.5625 43.546875 
Q 53.515625 38.921875 53.515625 30.90625 
L 53.515625 0 
L 44.484375 0 
L 44.484375 32.71875 
Q 44.484375 40.625 41.703125 44.40625 
Q 38.921875 48.1875 33.109375 48.1875 
Q 26.21875 48.1875 22.15625 43.53125 
Q 18.109375 38.875 18.109375 30.90625 
L 18.109375 0 
L 9.078125 0 
L 9.078125 54.6875 
L 18.109375 54.6875 
L 18.109375 46.1875 
Q 21.1875 51.21875 25.484375 53.609375 
Q 29.78125 56 35.6875 56 
Q 41.65625 56 45.828125 52.96875 
Q 50 49.953125 52 44.1875 
z
" id="DejaVuSans-6d"/>
      <path d="M 56.203125 29.59375 
L 56.203125 25.203125 
L 14.890625 25.203125 
Q 15.484375 15.921875 20.484375 11.0625 
Q 25.484375 6.203125 34.421875 6.203125 
Q 39.59375 6.203125 44.453125 7.46875 
Q 49.3125 8.734375 54.109375 11.28125 
L 54.109375 2.78125 
Q 49.265625 0.734375 44.1875 -0.34375 
Q 39.109375 -1.421875 33.890625 -1.421875 
Q 20.796875 -1.421875 13.15625 6.1875 
Q 5.515625 13.8125 5.515625 26.8125 
Q 5.515625 40.234375 12.765625 48.109375 
Q 20.015625 56 32.328125 56 
Q 43.359375 56 49.78125 48.890625 
Q 56.203125 41.796875 56.203125 29.59375 
z
M 47.21875 32.234375 
Q 47.125 39.59375 43.09375 43.984375 
Q 39.0625 48.390625 32.421875 48.390625 
Q 24.90625 48.390625 20.390625 44.140625 
Q 15.875 39.890625 15.1875 32.171875 
z
" id="DejaVuSans-65"/>
     </defs>
     <g transform="translate(592.578125 537.936562)scale(0.1 -0.1)">
      <use xlink:href="#DejaVuSans-54"/>
      <use x="61.037109" xlink:href="#DejaVuSans-69"/>
      <use x="88.820312" xlink:href="#DejaVuSans-6d"/>
      <use x="186.232422" xlink:href="#DejaVuSans-65"/>
     </g>
    </g>
   </g>
   <g id="matplotlib.axis_2">
    <g id="ytick_1">
     <g id="line2d_6">
      <defs>
       <path d="M 0 0 
L -3.5 0 
" id="mc4e42e4205" style="stroke:#000000;stroke-width:0.8;"/>
      </defs>
      <g>
       <use style="stroke:#000000;stroke-width:0.8;" x="46.965625" xlink:href="#mc4e42e4205" y="486.98"/>
      </g>
     </g>
     <g id="text_7">
      <!-- 0 -->
      <g transform="translate(33.603125 490.779219)scale(0.1 -0.1)">
       <use xlink:href="#DejaVuSans-30"/>
      </g>
     </g>
    </g>
    <g id="ytick_2">
     <g id="line2d_7">
      <g>
       <use style="stroke:#000000;stroke-width:0.8;" x="46.965625" xlink:href="#mc4e42e4205" y="376.345854"/>
      </g>
     </g>
     <g id="text_8">
      <!-- 50 -->
      <g transform="translate(27.240625 380.145072)scale(0.1 -0.1)">
       <use xlink:href="#DejaVuSans-35"/>
       <use x="63.623047" xlink:href="#DejaVuSans-30"/>
      </g>
     </g>
    </g>
    <g id="ytick_3">
     <g id="line2d_8">
      <g>
       <use style="stroke:#000000;stroke-width:0.8;" x="46.965625" xlink:href="#mc4e42e4205" y="265.711707"/>
      </g>
     </g>
     <g id="text_9">
      <!-- 100 -->
      <g transform="translate(20.878125 269.510926)scale(0.1 -0.1)">
       <use xlink:href="#DejaVuSans-31"/>
       <use x="63.623047" xlink:href="#DejaVuSans-30"/>
       <use x="127.246094" xlink:href="#DejaVuSans-30"/>
      </g>
     </g>
    </g>
    <g id="ytick_4">
     <g id="line2d_9">
      <g>
       <use style="stroke:#000000;stroke-width:0.8;" x="46.965625" xlink:href="#mc4e42e4205" y="155.077561"/>
      </g>
     </g>
     <g id="text_10">
      <!-- 150 -->
      <g transform="translate(20.878125 158.87678)scale(0.1 -0.1)">
       <use xlink:href="#DejaVuSans-31"/>
       <use x="63.623047" xlink:href="#DejaVuSans-35"/>
       <use x="127.246094" xlink:href="#DejaVuSans-30"/>
      </g>
     </g>
    </g>
    <g id="ytick_5">
     <g id="line2d_10">
      <g>
       <use style="stroke:#000000;stroke-width:0.8;" x="46.965625" xlink:href="#mc4e42e4205" y="44.443415"/>
      </g>
     </g>
     <g id="text_11">
      <!-- 200 -->
      <g transform="translate(20.878125 48.242633)scale(0.1 -0.1)">
       <use xlink:href="#DejaVuSans-32"/>
       <use x="63.623047" xlink:href="#DejaVuSans-30"/>
       <use x="127.246094" xlink:href="#DejaVuSans-30"/>
      </g>
     </g>
    </g>
    <g id="text_12">
     <!-- Refugees -->
     <defs>
      <path d="M 44.390625 34.1875 
Q 47.5625 33.109375 50.5625 29.59375 
Q 53.5625 26.078125 56.59375 19.921875 
L 66.609375 0 
L 56 0 
L 46.6875 18.703125 
Q 43.0625 26.03125 39.671875 28.421875 
Q 36.28125 30.8125 30.421875 30.8125 
L 19.671875 30.8125 
L 19.671875 0 
L 9.8125 0 
L 9.8125 72.90625 
L 32.078125 72.90625 
Q 44.578125 72.90625 50.734375 67.671875 
Q 56.890625 62.453125 56.890625 51.90625 
Q 56.890625 45.015625 53.6875 40.46875 
Q 50.484375 35.9375 44.390625 34.1875 
z
M 19.671875 64.796875 
L 19.671875 38.921875 
L 32.078125 38.921875 
Q 39.203125 38.921875 42.84375 42.21875 
Q 46.484375 45.515625 46.484375 51.90625 
Q 46.484375 58.296875 42.84375 61.546875 
Q 39.203125 64.796875 32.078125 64.796875 
z
" id="DejaVuSans-52"/>
      <path d="M 37.109375 75.984375 
L 37.109375 68.5 
L 28.515625 68.5 
Q 23.6875 68.5 21.796875 66.546875 
Q 19.921875 64.59375 19.921875 59.515625 
L 19.921875 54.6875 
L 34.71875 54.6875 
L 34.71875 47.703125 
L 19.921875 47.703125 
L 19.921875 0 
L 10.890625 0 
L 10.890625 47.703125 
L 2.296875 47.703125 
L 2.296875 54.6875 
L 10.890625 54.6875 
L 10.890625 58.5 
Q 10.890625 67.625 15.140625 71.796875 
Q 19.390625 75.984375 28.609375 75.984375 
z
" id="DejaVuSans-66"/>
      <path d="M 8.5 21.578125 
L 8.5 54.6875 
L 17.484375 54.6875 
L 17.484375 21.921875 
Q 17.484375 14.15625 20.5 10.265625 
Q 23.53125 6.390625 29.59375 6.390625 
Q 36.859375 6.390625 41.078125 11.03125 
Q 45.3125 15.671875 45.3125 23.6875 
L 45.3125 54.6875 
L 54.296875 54.6875 
L 54.296875 0 
L 45.3125 0 
L 45.3125 8.40625 
Q 42.046875 3.421875 37.71875 1 
Q 33.40625 -1.421875 27.6875 -1.421875 
Q 18.265625 -1.421875 13.375 4.4375 
Q 8.5 10.296875 8.5 21.578125 
z
M 31.109375 56 
z
" id="DejaVuSans-75"/>
      <path d="M 45.40625 27.984375 
Q 45.40625 37.75 41.375 43.109375 
Q 37.359375 48.484375 30.078125 48.484375 
Q 22.859375 48.484375 18.828125 43.109375 
Q 14.796875 37.75 14.796875 27.984375 
Q 14.796875 18.265625 18.828125 12.890625 
Q 22.859375 7.515625 30.078125 7.515625 
Q 37.359375 7.515625 41.375 12.890625 
Q 45.40625 18.265625 45.40625 27.984375 
z
M 54.390625 6.78125 
Q 54.390625 -7.171875 48.1875 -13.984375 
Q 42 -20.796875 29.203125 -20.796875 
Q 24.46875 -20.796875 20.265625 -20.09375 
Q 16.0625 -19.390625 12.109375 -17.921875 
L 12.109375 -9.1875 
Q 16.0625 -11.328125 19.921875 -12.34375 
Q 23.78125 -13.375 27.78125 -13.375 
Q 36.625 -13.375 41.015625 -8.765625 
Q 45.40625 -4.15625 45.40625 5.171875 
L 45.40625 9.625 
Q 42.625 4.78125 38.28125 2.390625 
Q 33.9375 0 27.875 0 
Q 17.828125 0 11.671875 7.65625 
Q 5.515625 15.328125 5.515625 27.984375 
Q 5.515625 40.671875 11.671875 48.328125 
Q 17.828125 56 27.875 56 
Q 33.9375 56 38.28125 53.609375 
Q 42.625 51.21875 45.40625 46.390625 
L 45.40625 54.6875 
L 54.390625 54.6875 
z
" id="DejaVuSans-67"/>
      <path d="M 44.28125 53.078125 
L 44.28125 44.578125 
Q 40.484375 46.53125 36.375 47.5 
Q 32.28125 48.484375 27.875 48.484375 
Q 21.1875 48.484375 17.84375 46.4375 
Q 14.5 44.390625 14.5 40.28125 
Q 14.5 37.15625 16.890625 35.375 
Q 19.28125 33.59375 26.515625 31.984375 
L 29.59375 31.296875 
Q 39.15625 29.25 43.1875 25.515625 
Q 47.21875 21.78125 47.21875 15.09375 
Q 47.21875 7.46875 41.1875 3.015625 
Q 35.15625 -1.421875 24.609375 -1.421875 
Q 20.21875 -1.421875 15.453125 -0.5625 
Q 10.6875 0.296875 5.421875 2 
L 5.421875 11.28125 
Q 10.40625 8.6875 15.234375 7.390625 
Q 20.0625 6.109375 24.8125 6.109375 
Q 31.15625 6.109375 34.5625 8.28125 
Q 37.984375 10.453125 37.984375 14.40625 
Q 37.984375 18.0625 35.515625 20.015625 
Q 33.0625 21.96875 24.703125 23.78125 
L 21.578125 24.515625 
Q 13.234375 26.265625 9.515625 29.90625 
Q 5.8125 33.546875 5.8125 39.890625 
Q 5.8125 47.609375 11.28125 51.796875 
Q 16.75 56 26.8125 56 
Q 31.78125 56 36.171875 55.265625 
Q 40.578125 54.546875 44.28125 53.078125 
z
" id="DejaVuSans-73"/>
     </defs>
     <g style="fill:#ff7f0e;" transform="translate(14.798438 283.588594)rotate(-90)scale(0.1 -0.1)">
      <use xlink:href="#DejaVuSans-52"/>
      <use x="69.419922" xlink:href="#DejaVuSans-65"/>
      <use x="130.943359" xlink:href="#DejaVuSans-66"/>
      <use x="166.148438" xlink:href="#DejaVuSans-75"/>
      <use x="229.527344" xlink:href="#DejaVuSans-67"/>
      <use x="293.003906" xlink:href="#DejaVuSans-65"/>
      <use x="354.527344" xlink:href="#DejaVuSans-65"/>
      <use x="416.050781" xlink:href="#DejaVuSans-73"/>
     </g>
    </g>
   </g>
   <g id="line2d_11">
    <path clip-path="url(#pe614dcb21e)" d="M 97.692898 481.671427 
L 102.547182 485.485004 
L 107.401467 486.98 
L 117.110036 486.98 
L 121.96432 467.919835 
L 126.818605 460.773252 
L 131.672889 454.881693 
L 136.527173 456.700132 
L 141.381458 467.157853 
L 146.235742 467.619525 
L 151.090027 447.423308 
L 155.944311 481.087003 
L 160.798596 484.129756 
L 165.65288 486.98 
L 175.361449 486.98 
L 180.215734 467.566901 
L 185.070018 473.972931 
L 189.924303 469.082611 
L 194.778587 471.29319 
L 199.632872 481.756194 
L 204.487156 481.569585 
L 209.341441 461.23453 
L 214.195725 480.520407 
L 219.05001 482.81583 
L 223.904294 486.98 
L 233.612863 486.98 
L 238.467147 467.22474 
L 243.321432 477.51786 
L 248.175716 475.853138 
L 253.030001 479.460116 
L 257.884285 486.98 
L 262.73857 486.98 
L 267.592854 465.41152 
L 272.447139 484.946639 
L 277.301423 486.98 
L 291.864277 486.98 
L 296.718561 469.897716 
L 301.572846 283.491247 
L 306.42713 276.829733 
L 311.281414 279.764942 
L 316.135699 289.132718 
L 320.989983 291.576271 
L 325.844268 268.179924 
L 330.698552 473.688048 
L 335.552837 468.580454 
L 340.407121 470.684036 
L 345.261406 481.162668 
L 350.11569 481.093846 
L 354.969975 460.839954 
L 359.824259 478.455311 
L 364.678544 478.027041 
L 369.532828 482.051158 
L 374.387113 486.98 
L 379.241397 486.98 
L 384.095682 465.977643 
L 388.949966 486.98 
L 408.367104 486.98 
L 413.221388 471.14388 
L 418.075673 486.080526 
L 422.929957 486.98 
L 437.492811 486.98 
L 442.347095 470.582461 
L 447.20138 486.98 
L 466.618518 486.98 
L 471.472802 474.256057 
L 476.327087 486.016328 
L 481.181371 486.98 
L 495.744224 486.98 
L 500.598509 470.543695 
L 505.452793 486.98 
L 524.869931 486.98 
L 529.724216 472.662013 
L 534.5785 481.130194 
L 539.432785 484.229913 
L 544.287069 486.98 
L 553.995638 486.98 
L 558.849923 467.592987 
L 563.704207 475.686046 
L 568.558491 472.102313 
L 573.412776 474.956231 
L 578.26706 485.325363 
L 583.121345 484.430452 
L 587.975629 463.607289 
L 592.829914 481.926814 
L 597.684198 486.077214 
L 602.538483 486.98 
L 612.247052 486.98 
L 617.101336 468.074061 
L 621.955621 482.352632 
L 626.809905 486.98 
L 641.372759 486.98 
L 646.227043 468.331212 
L 651.081327 475.004232 
L 655.935612 470.900496 
L 660.789896 473.498351 
L 665.644181 483.904836 
L 670.498465 483.291849 
L 675.35275 462.662944 
L 680.207034 480.097744 
L 685.061319 481.835709 
L 689.915603 486.590662 
L 694.769888 486.98 
L 699.624172 486.98 
L 704.478457 466.969494 
L 709.332741 474.434651 
L 714.187026 469.896494 
L 719.04131 472.280448 
L 723.895595 482.718165 
L 728.749879 482.340665 
L 733.604163 461.874037 
L 738.458448 485.330458 
L 743.312732 486.98 
L 757.875586 486.98 
L 762.72987 470.129501 
L 767.584155 486.98 
L 787.001293 486.98 
L 791.855577 471.589531 
L 796.709862 486.98 
L 816.127 486.98 
L 820.981284 471.592055 
L 825.835568 477.781437 
L 830.689853 476.464343 
L 835.544137 480.188608 
L 840.398422 486.98 
L 845.252706 486.98 
L 850.106991 465.570691 
L 854.961275 478.168522 
L 859.81556 477.361976 
L 864.669844 481.258486 
L 869.524129 486.98 
L 874.378413 486.98 
L 879.232698 465.804452 
L 884.086982 476.952353 
L 888.941267 474.541755 
L 893.795551 477.897112 
L 898.649836 486.98 
L 903.50412 486.427243 
L 908.358404 465.070017 
L 913.212689 486.98 
L 932.629827 486.98 
L 937.484111 471.715595 
L 942.338396 480.121994 
L 947.19268 481.891955 
L 952.046965 486.657695 
L 956.901249 486.98 
L 961.755534 486.98 
L 966.609818 466.984137 
L 971.464103 486.98 
L 990.88124 486.98 
L 995.735525 471.368436 
L 1000.589809 476.12717 
L 1005.444094 472.879891 
L 1010.298378 475.899453 
L 1015.152663 486.244396 
L 1020.006947 485.167117 
L 1024.861232 464.21826 
L 1029.715516 486.601369 
L 1034.569801 486.98 
L 1049.132654 486.98 
L 1053.986939 470.896995 
L 1058.841223 476.643425 
L 1063.695508 473.825374 
L 1068.549792 477.043262 
L 1073.404077 486.98 
L 1078.258361 486.009061 
L 1083.112645 464.883456 
L 1087.96693 486.98 
L 1107.384068 486.98 
L 1112.238352 471.619353 
L 1112.238352 471.619353 
" style="fill:none;stroke:#008000;stroke-dasharray:5.55,2.4;stroke-dashoffset:0;stroke-width:1.5;"/>
   </g>
   <g id="line2d_12">
    <path clip-path="url(#pe614dcb21e)" d="M 97.692898 458.215122 
L 102.547182 440.513659 
L 107.401467 462.640488 
L 112.255751 458.215122 
L 117.110036 469.278537 
L 121.96432 453.789756 
L 126.818605 460.427805 
L 131.672889 464.853171 
L 136.527173 444.939024 
L 141.381458 464.853171 
L 146.235742 442.726341 
L 151.090027 444.939024 
L 155.944311 436.088293 
L 160.798596 447.151707 
L 165.65288 451.577073 
L 170.507165 467.065854 
L 175.361449 442.726341 
L 180.215734 449.36439 
L 185.070018 442.726341 
L 189.924303 444.939024 
L 194.778587 451.577073 
L 199.632872 433.87561 
L 204.487156 440.513659 
L 209.341441 431.662927 
L 214.195725 416.174146 
L 219.05001 447.151707 
L 223.904294 453.789756 
L 228.758578 447.151707 
L 233.612863 431.662927 
L 238.467147 456.002439 
L 243.321432 460.427805 
L 248.175716 460.427805 
L 253.030001 433.87561 
L 257.884285 431.662927 
L 262.73857 431.662927 
L 267.592854 473.703902 
L 272.447139 453.789756 
L 277.301423 478.129268 
L 282.155708 453.789756 
L 287.009992 433.87561 
L 291.864277 425.024878 
L 296.718561 33.38 
L 301.572846 433.87561 
L 306.42713 447.151707 
L 311.281414 449.36439 
L 316.135699 444.939024 
L 320.989983 425.024878 
L 330.698552 447.151707 
L 335.552837 453.789756 
L 340.407121 447.151707 
L 345.261406 449.36439 
L 350.11569 469.278537 
L 354.969975 462.640488 
L 359.824259 467.065854 
L 364.678544 462.640488 
L 369.532828 480.341951 
L 374.387113 460.427805 
L 379.241397 464.853171 
L 384.095682 444.939024 
L 388.949966 467.065854 
L 393.80425 442.726341 
L 398.658535 431.662927 
L 403.512819 464.853171 
L 408.367104 462.640488 
L 418.075673 471.49122 
L 422.929957 460.427805 
L 427.784242 478.129268 
L 432.638526 447.151707 
L 437.492811 462.640488 
L 442.347095 458.215122 
L 447.20138 447.151707 
L 452.055664 462.640488 
L 456.909949 480.341951 
L 461.764233 464.853171 
L 466.618518 478.129268 
L 471.472802 480.341951 
L 476.327087 444.939024 
L 481.181371 458.215122 
L 486.035655 429.450244 
L 490.88994 471.49122 
L 495.744224 456.002439 
L 500.598509 478.129268 
L 505.452793 449.36439 
L 510.307078 462.640488 
L 520.015647 467.065854 
L 524.869931 473.703902 
L 534.5785 460.427805 
L 539.432785 442.726341 
L 544.287069 469.278537 
L 549.141354 478.129268 
L 553.995638 458.215122 
L 558.849923 464.853171 
L 563.704207 473.703902 
L 568.558491 438.300976 
L 573.412776 447.151707 
L 578.26706 460.427805 
L 583.121345 464.853171 
L 587.975629 478.129268 
L 592.829914 451.577073 
L 597.684198 453.789756 
L 602.538483 467.065854 
L 607.392767 449.36439 
L 612.247052 464.853171 
L 617.101336 453.789756 
L 621.955621 467.065854 
L 626.809905 469.278537 
L 631.66419 451.577073 
L 641.372759 473.703902 
L 646.227043 462.640488 
L 651.081327 433.87561 
L 655.935612 478.129268 
L 660.789896 475.916585 
L 665.644181 471.49122 
L 670.498465 458.215122 
L 675.35275 480.341951 
L 680.207034 458.215122 
L 685.061319 467.065854 
L 694.769888 467.065854 
L 699.624172 440.513659 
L 704.478457 462.640488 
L 709.332741 469.278537 
L 714.187026 456.002439 
L 719.04131 449.36439 
L 723.895595 449.36439 
L 728.749879 462.640488 
L 733.604163 456.002439 
L 738.458448 464.853171 
L 743.312732 469.278537 
L 748.167017 471.49122 
L 753.021301 469.278537 
L 757.875586 480.341951 
L 762.72987 475.916585 
L 767.584155 484.767317 
L 772.438439 471.49122 
L 777.292724 475.916585 
L 782.147008 456.002439 
L 787.001293 449.36439 
L 791.855577 475.916585 
L 796.709862 464.853171 
L 801.564146 458.215122 
L 806.418431 460.427805 
L 811.272715 469.278537 
L 816.127 464.853171 
L 820.981284 469.278537 
L 825.835568 469.278537 
L 830.689853 471.49122 
L 835.544137 478.129268 
L 840.398422 478.129268 
L 845.252706 467.065854 
L 850.106991 478.129268 
L 854.961275 473.703902 
L 859.81556 478.129268 
L 864.669844 473.703902 
L 869.524129 462.640488 
L 874.378413 473.703902 
L 879.232698 480.341951 
L 884.086982 475.916585 
L 888.941267 486.98 
L 893.795551 482.554634 
L 898.649836 473.703902 
L 903.50412 478.129268 
L 908.358404 471.49122 
L 913.212689 471.49122 
L 918.066973 478.129268 
L 922.921258 480.341951 
L 927.775542 478.129268 
L 932.629827 482.554634 
L 937.484111 478.129268 
L 942.338396 484.767317 
L 952.046965 484.767317 
L 956.901249 482.554634 
L 961.755534 462.640488 
L 966.609818 469.278537 
L 971.464103 467.065854 
L 976.318387 482.554634 
L 981.172672 475.916585 
L 990.88124 484.767317 
L 995.735525 471.49122 
L 1000.589809 482.554634 
L 1005.444094 480.341951 
L 1010.298378 464.853171 
L 1015.152663 478.129268 
L 1020.006947 469.278537 
L 1029.715516 473.703902 
L 1034.569801 471.49122 
L 1039.424085 473.703902 
L 1044.27837 473.703902 
L 1049.132654 471.49122 
L 1053.986939 462.640488 
L 1058.841223 486.98 
L 1063.695508 473.703902 
L 1068.549792 486.98 
L 1073.404077 475.916585 
L 1078.258361 475.916585 
L 1083.112645 486.98 
L 1087.96693 469.278537 
L 1092.821214 475.916585 
L 1097.675499 456.002439 
L 1107.384068 486.98 
L 1112.238352 486.98 
L 1112.238352 486.98 
" style="fill:none;stroke:#ff7f0e;stroke-linecap:square;stroke-width:1.5;"/>
   </g>
   <g id="line2d_13">
    <defs>
     <path d="M 0 3 
C 0.795609 3 1.55874 2.683901 2.12132 2.12132 
C 2.683901 1.55874 3 0.795609 3 0 
C 3 -0.795609 2.683901 -1.55874 2.12132 -2.12132 
C 1.55874 -2.683901 0.795609 -3 0 -3 
C -0.795609 -3 -1.55874 -2.683901 -2.12132 -2.12132 
C -2.683901 -1.55874 -3 -0.795609 -3 0 
C -3 0.795609 -2.683901 1.55874 -2.12132 2.12132 
C -1.55874 2.683901 -0.795609 3 0 3 
z
" id="m4bec4219a1" style="stroke:#008000;"/>
    </defs>
    <g clip-path="url(#pe614dcb21e)">
     <use style="fill:#008000;stroke:#008000;" x="97.692898" xlink:href="#m4bec4219a1" y="481.671427"/>
     <use style="fill:#008000;stroke:#008000;" x="126.818605" xlink:href="#m4bec4219a1" y="460.773252"/>
     <use style="fill:#008000;stroke:#008000;" x="155.944311" xlink:href="#m4bec4219a1" y="481.087003"/>
     <use style="fill:#008000;stroke:#008000;" x="185.070018" xlink:href="#m4bec4219a1" y="473.972931"/>
     <use style="fill:#008000;stroke:#008000;" x="214.195725" xlink:href="#m4bec4219a1" y="480.520407"/>
     <use style="fill:#008000;stroke:#008000;" x="243.321432" xlink:href="#m4bec4219a1" y="477.51786"/>
     <use style="fill:#008000;stroke:#008000;" x="272.447139" xlink:href="#m4bec4219a1" y="484.946639"/>
     <use style="fill:#008000;stroke:#008000;" x="301.572846" xlink:href="#m4bec4219a1" y="283.491247"/>
     <use style="fill:#008000;stroke:#008000;" x="330.698552" xlink:href="#m4bec4219a1" y="473.688048"/>
     <use style="fill:#008000;stroke:#008000;" x="359.824259" xlink:href="#m4bec4219a1" y="478.455311"/>
     <use style="fill:#008000;stroke:#008000;" x="388.949966" xlink:href="#m4bec4219a1" y="486.98"/>
     <use style="fill:#008000;stroke:#008000;" x="418.075673" xlink:href="#m4bec4219a1" y="486.080526"/>
     <use style="fill:#008000;stroke:#008000;" x="447.20138" xlink:href="#m4bec4219a1" y="486.98"/>
     <use style="fill:#008000;stroke:#008000;" x="476.327087" xlink:href="#m4bec4219a1" y="486.016328"/>
     <use style="fill:#008000;stroke:#008000;" x="505.452793" xlink:href="#m4bec4219a1" y="486.98"/>
     <use style="fill:#008000;stroke:#008000;" x="534.5785" xlink:href="#m4bec4219a1" y="481.130194"/>
     <use style="fill:#008000;stroke:#008000;" x="563.704207" xlink:href="#m4bec4219a1" y="475.686046"/>
     <use style="fill:#008000;stroke:#008000;" x="592.829914" xlink:href="#m4bec4219a1" y="481.926814"/>
     <use style="fill:#008000;stroke:#008000;" x="621.955621" xlink:href="#m4bec4219a1" y="482.352632"/>
     <use style="fill:#008000;stroke:#008000;" x="651.081327" xlink:href="#m4bec4219a1" y="475.004232"/>
     <use style="fill:#008000;stroke:#008000;" x="680.207034" xlink:href="#m4bec4219a1" y="480.097744"/>
     <use style="fill:#008000;stroke:#008000;" x="709.332741" xlink:href="#m4bec4219a1" y="474.434651"/>
     <use style="fill:#008000;stroke:#008000;" x="738.458448" xlink:href="#m4bec4219a1" y="485.330458"/>
     <use style="fill:#008000;stroke:#008000;" x="767.584155" xlink:href="#m4bec4219a1" y="486.98"/>
     <use style="fill:#008000;stroke:#008000;" x="796.709862" xlink:href="#m4bec4219a1" y="486.98"/>
     <use style="fill:#008000;stroke:#008000;" x="825.835568" xlink:href="#m4bec4219a1" y="477.781437"/>
     <use style="fill:#008000;stroke:#008000;" x="854.961275" xlink:href="#m4bec4219a1" y="478.168522"/>
     <use style="fill:#008000;stroke:#008000;" x="884.086982" xlink:href="#m4bec4219a1" y="476.952353"/>
     <use style="fill:#008000;stroke:#008000;" x="913.212689" xlink:href="#m4bec4219a1" y="486.98"/>
     <use style="fill:#008000;stroke:#008000;" x="942.338396" xlink:href="#m4bec4219a1" y="480.121994"/>
     <use style="fill:#008000;stroke:#008000;" x="971.464103" xlink:href="#m4bec4219a1" y="486.98"/>
     <use style="fill:#008000;stroke:#008000;" x="1000.589809" xlink:href="#m4bec4219a1" y="476.12717"/>
     <use style="fill:#008000;stroke:#008000;" x="1029.715516" xlink:href="#m4bec4219a1" y="486.601369"/>
     <use style="fill:#008000;stroke:#008000;" x="1058.841223" xlink:href="#m4bec4219a1" y="476.643425"/>
     <use style="fill:#008000;stroke:#008000;" x="1087.96693" xlink:href="#m4bec4219a1" y="486.98"/>
    </g>
   </g>
   <g id="patch_3">
    <path d="M 46.965625 509.66 
L 46.965625 10.7 
" style="fill:none;stroke:#000000;stroke-linecap:square;stroke-linejoin:miter;stroke-width:0.8;"/>
   </g>
   <g id="patch_4">
    <path d="M 1162.965625 509.66 
L 1162.965625 10.7 
" style="fill:none;stroke:#000000;stroke-linecap:square;stroke-linejoin:miter;stroke-width:0.8;"/>
   </g>
   <g id="patch_5">
    <path d="M 46.965625 509.66 
L 1162.965625 509.66 
" style="fill:none;stroke:#000000;stroke-linecap:square;stroke-linejoin:miter;stroke-width:0.8;"/>
   </g>
   <g id="patch_6">
    <path d="M 46.965625 10.7 
L 1162.965625 10.7 
" style="fill:none;stroke:#000000;stroke-linecap:square;stroke-linejoin:miter;stroke-width:0.8;"/>
   </g>
   <g id="legend_1">
    <g id="patch_7">
     <path d="M 53.965625 62.734375 
L 201.740625 62.734375 
Q 203.740625 62.734375 203.740625 60.734375 
L 203.740625 17.7 
Q 203.740625 15.7 201.740625 15.7 
L 53.965625 15.7 
Q 51.965625 15.7 51.965625 17.7 
L 51.965625 60.734375 
Q 51.965625 62.734375 53.965625 62.734375 
z
" style="fill:#ffffff;opacity:0.8;stroke:#cccccc;stroke-linejoin:miter;"/>
    </g>
    <g id="line2d_14">
     <path d="M 55.965625 23.798437 
L 75.965625 23.798437 
" style="fill:none;stroke:#008000;stroke-dasharray:5.55,2.4;stroke-dashoffset:0;stroke-width:1.5;"/>
    </g>
    <g id="line2d_15"/>
    <g id="text_13">
     <!-- Predicted -->
     <defs>
      <path d="M 19.671875 64.796875 
L 19.671875 37.40625 
L 32.078125 37.40625 
Q 38.96875 37.40625 42.71875 40.96875 
Q 46.484375 44.53125 46.484375 51.125 
Q 46.484375 57.671875 42.71875 61.234375 
Q 38.96875 64.796875 32.078125 64.796875 
z
M 9.8125 72.90625 
L 32.078125 72.90625 
Q 44.34375 72.90625 50.609375 67.359375 
Q 56.890625 61.8125 56.890625 51.125 
Q 56.890625 40.328125 50.609375 34.8125 
Q 44.34375 29.296875 32.078125 29.296875 
L 19.671875 29.296875 
L 19.671875 0 
L 9.8125 0 
z
" id="DejaVuSans-50"/>
      <path d="M 41.109375 46.296875 
Q 39.59375 47.171875 37.8125 47.578125 
Q 36.03125 48 33.890625 48 
Q 26.265625 48 22.1875 43.046875 
Q 18.109375 38.09375 18.109375 28.8125 
L 18.109375 0 
L 9.078125 0 
L 9.078125 54.6875 
L 18.109375 54.6875 
L 18.109375 46.1875 
Q 20.953125 51.171875 25.484375 53.578125 
Q 30.03125 56 36.53125 56 
Q 37.453125 56 38.578125 55.875 
Q 39.703125 55.765625 41.0625 55.515625 
z
" id="DejaVuSans-72"/>
      <path d="M 45.40625 46.390625 
L 45.40625 75.984375 
L 54.390625 75.984375 
L 54.390625 0 
L 45.40625 0 
L 45.40625 8.203125 
Q 42.578125 3.328125 38.25 0.953125 
Q 33.9375 -1.421875 27.875 -1.421875 
Q 17.96875 -1.421875 11.734375 6.484375 
Q 5.515625 14.40625 5.515625 27.296875 
Q 5.515625 40.1875 11.734375 48.09375 
Q 17.96875 56 27.875 56 
Q 33.9375 56 38.25 53.625 
Q 42.578125 51.265625 45.40625 46.390625 
z
M 14.796875 27.296875 
Q 14.796875 17.390625 18.875 11.75 
Q 22.953125 6.109375 30.078125 6.109375 
Q 37.203125 6.109375 41.296875 11.75 
Q 45.40625 17.390625 45.40625 27.296875 
Q 45.40625 37.203125 41.296875 42.84375 
Q 37.203125 48.484375 30.078125 48.484375 
Q 22.953125 48.484375 18.875 42.84375 
Q 14.796875 37.203125 14.796875 27.296875 
z
" id="DejaVuSans-64"/>
      <path d="M 48.78125 52.59375 
L 48.78125 44.1875 
Q 44.96875 46.296875 41.140625 47.34375 
Q 37.3125 48.390625 33.40625 48.390625 
Q 24.65625 48.390625 19.8125 42.84375 
Q 14.984375 37.3125 14.984375 27.296875 
Q 14.984375 17.28125 19.8125 11.734375 
Q 24.65625 6.203125 33.40625 6.203125 
Q 37.3125 6.203125 41.140625 7.25 
Q 44.96875 8.296875 48.78125 10.40625 
L 48.78125 2.09375 
Q 45.015625 0.34375 40.984375 -0.53125 
Q 36.96875 -1.421875 32.421875 -1.421875 
Q 20.0625 -1.421875 12.78125 6.34375 
Q 5.515625 14.109375 5.515625 27.296875 
Q 5.515625 40.671875 12.859375 48.328125 
Q 20.21875 56 33.015625 56 
Q 37.15625 56 41.109375 55.140625 
Q 45.0625 54.296875 48.78125 52.59375 
z
" id="DejaVuSans-63"/>
      <path d="M 18.3125 70.21875 
L 18.3125 54.6875 
L 36.8125 54.6875 
L 36.8125 47.703125 
L 18.3125 47.703125 
L 18.3125 18.015625 
Q 18.3125 11.328125 20.140625 9.421875 
Q 21.96875 7.515625 27.59375 7.515625 
L 36.8125 7.515625 
L 36.8125 0 
L 27.59375 0 
Q 17.1875 0 13.234375 3.875 
Q 9.28125 7.765625 9.28125 18.015625 
L 9.28125 47.703125 
L 2.6875 47.703125 
L 2.6875 54.6875 
L 9.28125 54.6875 
L 9.28125 70.21875 
z
" id="DejaVuSans-74"/>
     </defs>
     <g transform="translate(83.965625 27.298437)scale(0.1 -0.1)">
      <use xlink:href="#DejaVuSans-50"/>
      <use x="60.287109" xlink:href="#DejaVuSans-72"/>
      <use x="101.369141" xlink:href="#DejaVuSans-65"/>
      <use x="162.892578" xlink:href="#DejaVuSans-64"/>
      <use x="226.369141" xlink:href="#DejaVuSans-69"/>
      <use x="254.152344" xlink:href="#DejaVuSans-63"/>
      <use x="309.132812" xlink:href="#DejaVuSans-74"/>
      <use x="348.341797" xlink:href="#DejaVuSans-65"/>
      <use x="409.865234" xlink:href="#DejaVuSans-64"/>
     </g>
    </g>
    <g id="line2d_16">
     <path d="M 55.965625 38.476562 
L 75.965625 38.476562 
" style="fill:none;stroke:#ff7f0e;stroke-linecap:square;stroke-width:1.5;"/>
    </g>
    <g id="line2d_17"/>
    <g id="text_14">
     <!-- Real Data -->
     <defs>
      <path d="M 34.28125 27.484375 
Q 23.390625 27.484375 19.1875 25 
Q 14.984375 22.515625 14.984375 16.5 
Q 14.984375 11.71875 18.140625 8.90625 
Q 21.296875 6.109375 26.703125 6.109375 
Q 34.1875 6.109375 38.703125 11.40625 
Q 43.21875 16.703125 43.21875 25.484375 
L 43.21875 27.484375 
z
M 52.203125 31.203125 
L 52.203125 0 
L 43.21875 0 
L 43.21875 8.296875 
Q 40.140625 3.328125 35.546875 0.953125 
Q 30.953125 -1.421875 24.3125 -1.421875 
Q 15.921875 -1.421875 10.953125 3.296875 
Q 6 8.015625 6 15.921875 
Q 6 25.140625 12.171875 29.828125 
Q 18.359375 34.515625 30.609375 34.515625 
L 43.21875 34.515625 
L 43.21875 35.40625 
Q 43.21875 41.609375 39.140625 45 
Q 35.0625 48.390625 27.6875 48.390625 
Q 23 48.390625 18.546875 47.265625 
Q 14.109375 46.140625 10.015625 43.890625 
L 10.015625 52.203125 
Q 14.9375 54.109375 19.578125 55.046875 
Q 24.21875 56 28.609375 56 
Q 40.484375 56 46.34375 49.84375 
Q 52.203125 43.703125 52.203125 31.203125 
z
" id="DejaVuSans-61"/>
      <path d="M 9.421875 75.984375 
L 18.40625 75.984375 
L 18.40625 0 
L 9.421875 0 
z
" id="DejaVuSans-6c"/>
      <path id="DejaVuSans-20"/>
      <path d="M 19.671875 64.796875 
L 19.671875 8.109375 
L 31.59375 8.109375 
Q 46.6875 8.109375 53.6875 14.9375 
Q 60.6875 21.78125 60.6875 36.53125 
Q 60.6875 51.171875 53.6875 57.984375 
Q 46.6875 64.796875 31.59375 64.796875 
z
M 9.8125 72.90625 
L 30.078125 72.90625 
Q 51.265625 72.90625 61.171875 64.09375 
Q 71.09375 55.28125 71.09375 36.53125 
Q 71.09375 17.671875 61.125 8.828125 
Q 51.171875 0 30.078125 0 
L 9.8125 0 
z
" id="DejaVuSans-44"/>
     </defs>
     <g transform="translate(83.965625 41.976562)scale(0.1 -0.1)">
      <use xlink:href="#DejaVuSans-52"/>
      <use x="69.419922" xlink:href="#DejaVuSans-65"/>
      <use x="130.943359" xlink:href="#DejaVuSans-61"/>
      <use x="192.222656" xlink:href="#DejaVuSans-6c"/>
      <use x="220.005859" xlink:href="#DejaVuSans-20"/>
      <use x="251.792969" xlink:href="#DejaVuSans-44"/>
      <use x="328.794922" xlink:href="#DejaVuSans-61"/>
      <use x="390.074219" xlink:href="#DejaVuSans-74"/>
      <use x="429.283203" xlink:href="#DejaVuSans-61"/>
     </g>
    </g>
    <g id="line2d_18"/>
    <g id="line2d_19">
     <g>
      <use style="fill:#008000;stroke:#008000;" x="65.965625" xlink:href="#m4bec4219a1" y="53.154688"/>
     </g>
    </g>
    <g id="text_15">
     <!-- Start Point for Forecast -->
     <defs>
      <path d="M 53.515625 70.515625 
L 53.515625 60.890625 
Q 47.90625 63.578125 42.921875 64.890625 
Q 37.9375 66.21875 33.296875 66.21875 
Q 25.25 66.21875 20.875 63.09375 
Q 16.5 59.96875 16.5 54.203125 
Q 16.5 49.359375 19.40625 46.890625 
Q 22.3125 44.4375 30.421875 42.921875 
L 36.375 41.703125 
Q 47.40625 39.59375 52.65625 34.296875 
Q 57.90625 29 57.90625 20.125 
Q 57.90625 9.515625 50.796875 4.046875 
Q 43.703125 -1.421875 29.984375 -1.421875 
Q 24.8125 -1.421875 18.96875 -0.25 
Q 13.140625 0.921875 6.890625 3.21875 
L 6.890625 13.375 
Q 12.890625 10.015625 18.65625 8.296875 
Q 24.421875 6.59375 29.984375 6.59375 
Q 38.421875 6.59375 43.015625 9.90625 
Q 47.609375 13.234375 47.609375 19.390625 
Q 47.609375 24.75 44.3125 27.78125 
Q 41.015625 30.8125 33.5 32.328125 
L 27.484375 33.5 
Q 16.453125 35.6875 11.515625 40.375 
Q 6.59375 45.0625 6.59375 53.421875 
Q 6.59375 63.09375 13.40625 68.65625 
Q 20.21875 74.21875 32.171875 74.21875 
Q 37.3125 74.21875 42.625 73.28125 
Q 47.953125 72.359375 53.515625 70.515625 
z
" id="DejaVuSans-53"/>
      <path d="M 30.609375 48.390625 
Q 23.390625 48.390625 19.1875 42.75 
Q 14.984375 37.109375 14.984375 27.296875 
Q 14.984375 17.484375 19.15625 11.84375 
Q 23.34375 6.203125 30.609375 6.203125 
Q 37.796875 6.203125 41.984375 11.859375 
Q 46.1875 17.53125 46.1875 27.296875 
Q 46.1875 37.015625 41.984375 42.703125 
Q 37.796875 48.390625 30.609375 48.390625 
z
M 30.609375 56 
Q 42.328125 56 49.015625 48.375 
Q 55.71875 40.765625 55.71875 27.296875 
Q 55.71875 13.875 49.015625 6.21875 
Q 42.328125 -1.421875 30.609375 -1.421875 
Q 18.84375 -1.421875 12.171875 6.21875 
Q 5.515625 13.875 5.515625 27.296875 
Q 5.515625 40.765625 12.171875 48.375 
Q 18.84375 56 30.609375 56 
z
" id="DejaVuSans-6f"/>
      <path d="M 54.890625 33.015625 
L 54.890625 0 
L 45.90625 0 
L 45.90625 32.71875 
Q 45.90625 40.484375 42.875 44.328125 
Q 39.84375 48.1875 33.796875 48.1875 
Q 26.515625 48.1875 22.3125 43.546875 
Q 18.109375 38.921875 18.109375 30.90625 
L 18.109375 0 
L 9.078125 0 
L 9.078125 54.6875 
L 18.109375 54.6875 
L 18.109375 46.1875 
Q 21.34375 51.125 25.703125 53.5625 
Q 30.078125 56 35.796875 56 
Q 45.21875 56 50.046875 50.171875 
Q 54.890625 44.34375 54.890625 33.015625 
z
" id="DejaVuSans-6e"/>
      <path d="M 9.8125 72.90625 
L 51.703125 72.90625 
L 51.703125 64.59375 
L 19.671875 64.59375 
L 19.671875 43.109375 
L 48.578125 43.109375 
L 48.578125 34.8125 
L 19.671875 34.8125 
L 19.671875 0 
L 9.8125 0 
z
" id="DejaVuSans-46"/>
     </defs>
     <g transform="translate(83.965625 56.654688)scale(0.1 -0.1)">
      <use xlink:href="#DejaVuSans-53"/>
      <use x="63.476562" xlink:href="#DejaVuSans-74"/>
      <use x="102.685547" xlink:href="#DejaVuSans-61"/>
      <use x="163.964844" xlink:href="#DejaVuSans-72"/>
      <use x="205.078125" xlink:href="#DejaVuSans-74"/>
      <use x="244.287109" xlink:href="#DejaVuSans-20"/>
      <use x="276.074219" xlink:href="#DejaVuSans-50"/>
      <use x="336.330078" xlink:href="#DejaVuSans-6f"/>
      <use x="397.511719" xlink:href="#DejaVuSans-69"/>
      <use x="425.294922" xlink:href="#DejaVuSans-6e"/>
      <use x="488.673828" xlink:href="#DejaVuSans-74"/>
      <use x="527.882812" xlink:href="#DejaVuSans-20"/>
      <use x="559.669922" xlink:href="#DejaVuSans-66"/>
      <use x="594.875" xlink:href="#DejaVuSans-6f"/>
      <use x="656.056641" xlink:href="#DejaVuSans-72"/>
      <use x="697.169922" xlink:href="#DejaVuSans-20"/>
      <use x="728.957031" xlink:href="#DejaVuSans-46"/>
      <use x="786.429688" xlink:href="#DejaVuSans-6f"/>
      <use x="847.611328" xlink:href="#DejaVuSans-72"/>
      <use x="888.693359" xlink:href="#DejaVuSans-65"/>
      <use x="950.216797" xlink:href="#DejaVuSans-63"/>
      <use x="1005.197266" xlink:href="#DejaVuSans-61"/>
      <use x="1066.476562" xlink:href="#DejaVuSans-73"/>
      <use x="1118.576172" xlink:href="#DejaVuSans-74"/>
     </g>
    </g>
   </g>
  </g>
  <g id="axes_2">
   <g id="patch_8">
    <path d="M 46.965625 645.74 
L 1164.405625 645.74 
L 1164.405625 516.14 
L 46.965625 516.14 
z
" style="fill:none;"/>
   </g>
   <g id="matplotlib.axis_3">
    <g id="xtick_6">
     <g id="line2d_20">
      <g>
       <use style="stroke:#000000;stroke-width:0.8;" x="97.758352" xlink:href="#m3a446c6017" y="645.74"/>
      </g>
     </g>
     <g id="text_16">
      <!-- 0 -->
      <g transform="translate(94.577102 660.338437)scale(0.1 -0.1)">
       <use xlink:href="#DejaVuSans-30"/>
      </g>
     </g>
    </g>
    <g id="xtick_7">
     <g id="line2d_21">
      <g>
       <use style="stroke:#000000;stroke-width:0.8;" x="222.250331" xlink:href="#m3a446c6017" y="645.74"/>
      </g>
     </g>
     <g id="text_17">
      <!-- 25 -->
      <g transform="translate(215.887831 660.338437)scale(0.1 -0.1)">
       <use xlink:href="#DejaVuSans-32"/>
       <use x="63.623047" xlink:href="#DejaVuSans-35"/>
      </g>
     </g>
    </g>
    <g id="xtick_8">
     <g id="line2d_22">
      <g>
       <use style="stroke:#000000;stroke-width:0.8;" x="346.742309" xlink:href="#m3a446c6017" y="645.74"/>
      </g>
     </g>
     <g id="text_18">
      <!-- 50 -->
      <g transform="translate(340.379809 660.338437)scale(0.1 -0.1)">
       <use xlink:href="#DejaVuSans-35"/>
       <use x="63.623047" xlink:href="#DejaVuSans-30"/>
      </g>
     </g>
    </g>
    <g id="xtick_9">
     <g id="line2d_23">
      <g>
       <use style="stroke:#000000;stroke-width:0.8;" x="471.234288" xlink:href="#m3a446c6017" y="645.74"/>
      </g>
     </g>
     <g id="text_19">
      <!-- 75 -->
      <defs>
       <path d="M 8.203125 72.90625 
L 55.078125 72.90625 
L 55.078125 68.703125 
L 28.609375 0 
L 18.3125 0 
L 43.21875 64.59375 
L 8.203125 64.59375 
z
" id="DejaVuSans-37"/>
      </defs>
      <g transform="translate(464.871788 660.338437)scale(0.1 -0.1)">
       <use xlink:href="#DejaVuSans-37"/>
       <use x="63.623047" xlink:href="#DejaVuSans-35"/>
      </g>
     </g>
    </g>
    <g id="xtick_10">
     <g id="line2d_24">
      <g>
       <use style="stroke:#000000;stroke-width:0.8;" x="595.726267" xlink:href="#m3a446c6017" y="645.74"/>
      </g>
     </g>
     <g id="text_20">
      <!-- 100 -->
      <g transform="translate(586.182517 660.338437)scale(0.1 -0.1)">
       <use xlink:href="#DejaVuSans-31"/>
       <use x="63.623047" xlink:href="#DejaVuSans-30"/>
       <use x="127.246094" xlink:href="#DejaVuSans-30"/>
      </g>
     </g>
    </g>
    <g id="xtick_11">
     <g id="line2d_25">
      <g>
       <use style="stroke:#000000;stroke-width:0.8;" x="720.218245" xlink:href="#m3a446c6017" y="645.74"/>
      </g>
     </g>
     <g id="text_21">
      <!-- 125 -->
      <g transform="translate(710.674495 660.338437)scale(0.1 -0.1)">
       <use xlink:href="#DejaVuSans-31"/>
       <use x="63.623047" xlink:href="#DejaVuSans-32"/>
       <use x="127.246094" xlink:href="#DejaVuSans-35"/>
      </g>
     </g>
    </g>
    <g id="xtick_12">
     <g id="line2d_26">
      <g>
       <use style="stroke:#000000;stroke-width:0.8;" x="844.710224" xlink:href="#m3a446c6017" y="645.74"/>
      </g>
     </g>
     <g id="text_22">
      <!-- 150 -->
      <g transform="translate(835.166474 660.338437)scale(0.1 -0.1)">
       <use xlink:href="#DejaVuSans-31"/>
       <use x="63.623047" xlink:href="#DejaVuSans-35"/>
       <use x="127.246094" xlink:href="#DejaVuSans-30"/>
      </g>
     </g>
    </g>
    <g id="xtick_13">
     <g id="line2d_27">
      <g>
       <use style="stroke:#000000;stroke-width:0.8;" x="969.202203" xlink:href="#m3a446c6017" y="645.74"/>
      </g>
     </g>
     <g id="text_23">
      <!-- 175 -->
      <g transform="translate(959.658453 660.338437)scale(0.1 -0.1)">
       <use xlink:href="#DejaVuSans-31"/>
       <use x="63.623047" xlink:href="#DejaVuSans-37"/>
       <use x="127.246094" xlink:href="#DejaVuSans-35"/>
      </g>
     </g>
    </g>
    <g id="xtick_14">
     <g id="line2d_28">
      <g>
       <use style="stroke:#000000;stroke-width:0.8;" x="1093.694181" xlink:href="#m3a446c6017" y="645.74"/>
      </g>
     </g>
     <g id="text_24">
      <!-- 200 -->
      <g transform="translate(1084.150431 660.338437)scale(0.1 -0.1)">
       <use xlink:href="#DejaVuSans-32"/>
       <use x="63.623047" xlink:href="#DejaVuSans-30"/>
       <use x="127.246094" xlink:href="#DejaVuSans-30"/>
      </g>
     </g>
    </g>
   </g>
   <g id="matplotlib.axis_4">
    <g id="ytick_6">
     <g id="line2d_29">
      <g>
       <use style="stroke:#000000;stroke-width:0.8;" x="46.965625" xlink:href="#mc4e42e4205" y="637.904817"/>
      </g>
     </g>
     <g id="text_25">
      <!-- 0 -->
      <g transform="translate(33.603125 641.704036)scale(0.1 -0.1)">
       <use xlink:href="#DejaVuSans-30"/>
      </g>
     </g>
    </g>
    <g id="ytick_7">
     <g id="line2d_30">
      <g>
       <use style="stroke:#000000;stroke-width:0.8;" x="46.965625" xlink:href="#mc4e42e4205" y="614.321286"/>
      </g>
     </g>
     <g id="text_26">
      <!-- 5 -->
      <g transform="translate(33.603125 618.120505)scale(0.1 -0.1)">
       <use xlink:href="#DejaVuSans-35"/>
      </g>
     </g>
    </g>
    <g id="ytick_8">
     <g id="line2d_31">
      <g>
       <use style="stroke:#000000;stroke-width:0.8;" x="46.965625" xlink:href="#mc4e42e4205" y="590.737755"/>
      </g>
     </g>
     <g id="text_27">
      <!-- 10 -->
      <g transform="translate(27.240625 594.536973)scale(0.1 -0.1)">
       <use xlink:href="#DejaVuSans-31"/>
       <use x="63.623047" xlink:href="#DejaVuSans-30"/>
      </g>
     </g>
    </g>
    <g id="ytick_9">
     <g id="line2d_32">
      <g>
       <use style="stroke:#000000;stroke-width:0.8;" x="46.965625" xlink:href="#mc4e42e4205" y="567.154223"/>
      </g>
     </g>
     <g id="text_28">
      <!-- 15 -->
      <g transform="translate(27.240625 570.953442)scale(0.1 -0.1)">
       <use xlink:href="#DejaVuSans-31"/>
       <use x="63.623047" xlink:href="#DejaVuSans-35"/>
      </g>
     </g>
    </g>
    <g id="ytick_10">
     <g id="line2d_33">
      <g>
       <use style="stroke:#000000;stroke-width:0.8;" x="46.965625" xlink:href="#mc4e42e4205" y="543.570692"/>
      </g>
     </g>
     <g id="text_29">
      <!-- 20 -->
      <g transform="translate(27.240625 547.36991)scale(0.1 -0.1)">
       <use xlink:href="#DejaVuSans-32"/>
       <use x="63.623047" xlink:href="#DejaVuSans-30"/>
      </g>
     </g>
    </g>
    <g id="ytick_11">
     <g id="line2d_34">
      <g>
       <use style="stroke:#000000;stroke-width:0.8;" x="46.965625" xlink:href="#mc4e42e4205" y="519.98716"/>
      </g>
     </g>
     <g id="text_30">
      <!-- 25 -->
      <g transform="translate(27.240625 523.786379)scale(0.1 -0.1)">
       <use xlink:href="#DejaVuSans-32"/>
       <use x="63.623047" xlink:href="#DejaVuSans-35"/>
      </g>
     </g>
    </g>
    <g id="text_31">
     <!-- Temperature -->
     <defs>
      <path d="M 18.109375 8.203125 
L 18.109375 -20.796875 
L 9.078125 -20.796875 
L 9.078125 54.6875 
L 18.109375 54.6875 
L 18.109375 46.390625 
Q 20.953125 51.265625 25.265625 53.625 
Q 29.59375 56 35.59375 56 
Q 45.5625 56 51.78125 48.09375 
Q 58.015625 40.1875 58.015625 27.296875 
Q 58.015625 14.40625 51.78125 6.484375 
Q 45.5625 -1.421875 35.59375 -1.421875 
Q 29.59375 -1.421875 25.265625 0.953125 
Q 20.953125 3.328125 18.109375 8.203125 
z
M 48.6875 27.296875 
Q 48.6875 37.203125 44.609375 42.84375 
Q 40.53125 48.484375 33.40625 48.484375 
Q 26.265625 48.484375 22.1875 42.84375 
Q 18.109375 37.203125 18.109375 27.296875 
Q 18.109375 17.390625 22.1875 11.75 
Q 26.265625 6.109375 33.40625 6.109375 
Q 40.53125 6.109375 44.609375 11.75 
Q 48.6875 17.390625 48.6875 27.296875 
z
" id="DejaVuSans-70"/>
     </defs>
     <g style="fill:#0000ff;" transform="translate(21.160938 613.557187)rotate(-90)scale(0.1 -0.1)">
      <use xlink:href="#DejaVuSans-54"/>
      <use x="60.818359" xlink:href="#DejaVuSans-65"/>
      <use x="122.341797" xlink:href="#DejaVuSans-6d"/>
      <use x="219.753906" xlink:href="#DejaVuSans-70"/>
      <use x="283.230469" xlink:href="#DejaVuSans-65"/>
      <use x="344.753906" xlink:href="#DejaVuSans-72"/>
      <use x="385.867188" xlink:href="#DejaVuSans-61"/>
      <use x="447.146484" xlink:href="#DejaVuSans-74"/>
      <use x="486.355469" xlink:href="#DejaVuSans-75"/>
      <use x="549.734375" xlink:href="#DejaVuSans-72"/>
      <use x="590.816406" xlink:href="#DejaVuSans-65"/>
     </g>
    </g>
   </g>
   <g id="line2d_35">
    <path clip-path="url(#p98cd26e6a7)" d="M 97.758352 577.108832 
L 102.738031 572.160064 
L 107.717711 568.193785 
L 112.69739 555.286047 
L 117.677069 544.590915 
L 122.656748 539.402067 
L 127.636427 531.011518 
L 132.616106 533.976439 
L 137.595785 542.21228 
L 142.575465 552.993728 
L 147.555144 565.633085 
L 152.534823 574.151929 
L 157.514502 578.403096 
L 162.494181 573.448668 
L 167.47386 570.663924 
L 172.453539 559.04762 
L 177.433219 551.272601 
L 182.412898 538.554003 
L 187.392577 535.720677 
L 192.372256 537.17531 
L 197.351935 543.137698 
L 202.331614 554.444586 
L 207.311293 566.425492 
L 212.290973 576.239543 
L 217.270652 577.884258 
L 222.250331 570.351678 
L 227.23001 568.322551 
L 237.189368 549.368467 
L 242.169047 527.713125 
L 247.148727 523.17471 
L 252.128406 525.589192 
L 257.108085 542.595277 
L 262.087764 554.926634 
L 267.067443 567.92399 
L 272.047122 581.909024 
L 277.026801 573.284998 
L 282.006481 574.249564 
L 286.98616 569.0027 
L 291.965839 561.855004 
L 296.945518 553.536149 
L 301.925197 543.440982 
L 306.904876 534.927799 
L 311.884555 536.809765 
L 316.864235 544.935706 
L 321.843914 555.016723 
L 326.823593 561.195608 
L 331.803272 570.866271 
L 336.782951 575.16319 
L 341.76263 570.406392 
L 346.742309 567.796639 
L 351.721989 557.459033 
L 356.701668 550.401897 
L 361.681347 543.694741 
L 366.661026 533.517032 
L 371.640705 533.419396 
L 376.620384 537.495102 
L 381.600064 551.990956 
L 386.579743 564.041669 
L 391.559422 570.54412 
L 396.539101 575.166964 
L 401.51878 570.121031 
L 406.498459 563.721876 
L 411.478138 558.418411 
L 416.457818 548.15816 
L 421.437497 538.99077 
L 426.417176 534.451412 
L 431.396855 528.457893 
L 436.376534 537.391335 
L 441.356213 550.592452 
L 446.335892 566.389173 
L 451.315572 572.963319 
L 456.295251 573.748179 
L 461.27493 571.075693 
L 466.254609 563.06814 
L 471.234288 558.41794 
L 476.213967 544.60365 
L 481.193646 533.648157 
L 486.173326 528.174891 
L 491.153005 529.378594 
L 501.112363 548.56191 
L 506.092042 562.457799 
L 511.071721 566.540108 
L 516.0514 567.224974 
L 521.03108 568.905064 
L 526.010759 560.211703 
L 530.990438 553.164001 
L 540.949796 536.527234 
L 545.929475 525.869365 
L 550.909154 531.369988 
L 555.888834 534.579234 
L 560.868513 550.576887 
L 565.848192 562.481854 
L 570.827871 578.318667 
L 575.80755 576.049931 
L 580.787229 573.9576 
L 585.766908 565.78119 
L 590.746588 559.280154 
L 595.726267 545.863954 
L 600.705946 531.513847 
L 605.685625 522.265329 
L 610.665304 525.058563 
L 615.644983 529.592733 
L 620.624662 544.262633 
L 625.604342 561.857834 
L 630.584021 570.011604 
L 635.5637 574.527378 
L 640.543379 574.938675 
L 645.523058 561.365409 
L 650.502737 552.657426 
L 655.482416 543.640971 
L 660.462096 528.759762 
L 665.441775 522.030909 
L 670.421454 524.694433 
L 675.401133 532.01712 
L 680.380812 541.38214 
L 685.360491 560.0386 
L 690.34017 570.7559 
L 695.31985 572.438821 
L 700.299529 567.778715 
L 705.279208 563.455854 
L 710.258887 556.154392 
L 715.238566 551.6872 
L 720.218245 536.542328 
L 725.197924 533.619385 
L 730.177604 536.470634 
L 735.157283 536.079147 
L 740.136962 550.025033 
L 745.116641 562.25781 
L 750.09632 576.371139 
L 755.075999 580.127052 
L 760.055678 575.646181 
L 765.035358 561.947923 
L 770.015037 556.149204 
L 774.994716 547.493105 
L 779.974395 541.863244 
L 784.954074 532.031741 
L 789.933753 529.639428 
L 794.913432 540.22183 
L 804.872791 566.623594 
L 809.85247 575.85466 
L 814.832149 579.711982 
L 819.811828 575.673538 
L 824.791507 564.956238 
L 829.771186 556.906235 
L 834.750866 546.870499 
L 839.730545 529.913469 
L 844.710224 527.005619 
L 849.689903 533.538729 
L 854.669582 534.954213 
L 859.649261 550.849984 
L 864.628941 562.480911 
L 869.60862 574.52502 
L 874.588299 574.257583 
L 879.567978 567.708436 
L 884.547657 560.003225 
L 889.527336 554.343177 
L 894.507015 541.152436 
L 899.486695 539.302072 
L 904.466374 522.493618 
L 909.446053 525.91889 
L 919.405411 546.388452 
L 924.38509 558.275495 
L 929.364769 568.958835 
L 934.344449 572.919925 
L 939.324128 569.890856 
L 944.303807 562.291299 
L 949.283486 554.899749 
L 954.263165 546.687963 
L 959.242844 532.41804 
L 964.222523 529.520567 
L 969.202203 530.458248 
L 974.181882 538.826629 
L 979.161561 549.946735 
L 984.14124 559.484859 
L 989.120919 572.580322 
L 994.100598 574.757082 
L 999.080277 566.241069 
L 1004.059957 564.14638 
L 1009.039636 552.371594 
L 1014.019315 545.830466 
L 1023.978673 525.284021 
L 1028.958352 524.102015 
L 1033.938031 526.583002 
L 1038.917711 543.507488 
L 1043.89739 557.148674 
L 1048.877069 567.389587 
L 1053.856748 570.790804 
L 1058.836427 565.84911 
L 1063.816106 560.389995 
L 1068.795785 556.105339 
L 1073.775465 545.21352 
L 1078.755144 536.534309 
L 1083.734823 525.194404 
L 1088.714502 526.599039 
L 1093.694181 533.109037 
L 1098.67386 553.622936 
L 1103.653539 560.899399 
L 1108.633219 571.516705 
L 1113.612898 572.888323 
L 1113.612898 572.888323 
" style="fill:none;stroke:#ff0000;stroke-linecap:square;stroke-width:1.5;"/>
   </g>
   <g id="line2d_36">
    <path clip-path="url(#p98cd26e6a7)" d="M 97.758352 596.32375 
L 102.738031 588.645895 
L 107.717711 584.695654 
L 112.69739 575.972577 
L 117.677069 566.262766 
L 122.656748 559.964548 
L 127.636427 554.365346 
L 132.616106 556.694455 
L 142.575465 573.444894 
L 147.555144 583.682034 
L 152.534823 590.319854 
L 157.514502 596.544161 
L 162.494181 589.839694 
L 167.47386 588.445907 
L 172.453539 577.045628 
L 177.433219 570.234232 
L 182.412898 559.709374 
L 187.392577 556.823221 
L 192.372256 556.332684 
L 197.351935 563.26294 
L 202.331614 573.496778 
L 207.311293 583.330167 
L 212.290973 591.147966 
L 217.270652 592.779664 
L 222.250331 587.939804 
L 227.23001 585.221567 
L 232.209689 575.450909 
L 237.189368 568.782902 
L 242.169047 552.738554 
L 247.148727 549.051504 
L 252.128406 550.419349 
L 257.108085 561.370598 
L 262.087764 572.835496 
L 267.067443 582.919342 
L 272.047122 596.175692 
L 277.026801 590.601442 
L 282.006481 587.607277 
L 286.98616 582.813688 
L 291.965839 576.381044 
L 296.945518 569.341831 
L 301.925197 560.323017 
L 306.904876 553.158812 
L 311.884555 554.662498 
L 316.864235 562.137063 
L 321.843914 573.681201 
L 326.823593 580.202048 
L 331.803272 585.03337 
L 336.782951 590.091566 
L 341.76263 587.348801 
L 346.742309 583.474499 
L 351.721989 575.243374 
L 356.701668 566.214184 
L 361.681347 561.5687 
L 366.661026 551.724934 
L 371.640705 552.928637 
L 376.620384 559.300907 
L 381.600064 570.376205 
L 386.579743 584.008901 
L 391.559422 585.724367 
L 396.539101 590.577858 
L 401.51878 587.701611 
L 411.478138 576.448493 
L 421.437497 558.727827 
L 426.417176 555.27001 
L 431.396855 552.749402 
L 436.376534 560.496592 
L 441.356213 572.023279 
L 446.335892 582.266078 
L 451.315572 586.749779 
L 456.295251 589.521788 
L 461.27493 587.102589 
L 466.254609 584.296149 
L 471.234288 577.660215 
L 476.213967 567.543823 
L 481.193646 557.110469 
L 486.173326 553.163529 
L 491.153005 551.233453 
L 496.132684 561.46446 
L 501.112363 570.729958 
L 506.092042 580.916629 
L 516.0514 585.378161 
L 521.03108 587.254939 
L 526.010759 579.788864 
L 530.990438 573.50008 
L 535.970117 566.214655 
L 540.949796 558.269835 
L 545.929475 551.459855 
L 550.909154 555.498299 
L 555.888834 558.541989 
L 560.868513 571.136067 
L 565.848192 584.431518 
L 570.827871 595.243152 
L 575.80755 593.612304 
L 580.787229 596.772969 
L 585.766908 587.114852 
L 590.746588 579.974231 
L 595.726267 570.048394 
L 600.705946 559.749938 
L 605.685625 549.723635 
L 610.665304 550.200022 
L 615.644983 556.869445 
L 620.624662 571.5068 
L 625.604342 582.250042 
L 630.584021 589.154828 
L 635.5637 589.830732 
L 640.543379 591.095234 
L 645.523058 584.276339 
L 650.502737 575.502322 
L 655.482416 566.484922 
L 660.462096 554.050741 
L 665.441775 551.08582 
L 670.421454 553.085703 
L 675.401133 557.814201 
L 680.380812 566.20475 
L 685.360491 578.175279 
L 690.34017 588.79966 
L 695.31985 592.148333 
L 700.299529 584.757443 
L 705.279208 584.768763 
L 710.258887 578.372909 
L 715.238566 573.688748 
L 720.218245 560.727239 
L 725.197924 555.283688 
L 730.177604 560.106521 
L 735.157283 560.044732 
L 740.136962 572.951055 
L 745.116641 581.745354 
L 750.09632 591.98438 
L 755.075999 598.934918 
L 760.055678 594.598614 
L 765.035358 584.000883 
L 770.015037 576.520658 
L 774.994716 568.411225 
L 779.974395 562.890792 
L 784.954074 553.375309 
L 789.933753 552.784306 
L 799.893112 572.333638 
L 804.872791 583.073107 
L 809.85247 590.657571 
L 814.832149 594.619509 
L 819.811828 592.202622 
L 824.791507 582.989621 
L 829.771186 575.813624 
L 834.750866 567.117433 
L 839.730545 554.554486 
L 844.710224 549.649583 
L 849.689903 556.389284 
L 854.669582 558.195783 
L 859.649261 572.803894 
L 869.60862 591.618411 
L 874.588299 594.054118 
L 879.567978 586.629503 
L 884.547657 581.153407 
L 889.527336 577.592766 
L 894.507015 565.751475 
L 899.486695 560.761671 
L 904.466374 549.113765 
L 909.446053 551.450893 
L 914.425732 562.500249 
L 924.38509 579.567651 
L 929.364769 587.297861 
L 934.344449 592.83268 
L 939.324128 591.420545 
L 944.303807 586.110194 
L 949.283486 578.215843 
L 954.263165 570.708261 
L 959.242844 558.342472 
L 964.222523 554.66014 
L 969.202203 556.901519 
L 974.181882 563.85866 
L 979.161561 574.184946 
L 984.14124 579.011551 
L 989.120919 591.375736 
L 994.100598 592.75226 
L 999.080277 586.403573 
L 1004.059957 584.288602 
L 1009.039636 575.808436 
L 1014.019315 569.026756 
L 1018.998994 561.355033 
L 1023.978673 552.721102 
L 1028.958352 553.044196 
L 1033.938031 556.015721 
L 1038.917711 568.027757 
L 1043.89739 579.66623 
L 1048.877069 587.378516 
L 1053.856748 590.436357 
L 1058.836427 584.472082 
L 1063.816106 583.216023 
L 1068.795785 578.685627 
L 1073.775465 568.139543 
L 1078.755144 561.442292 
L 1083.734823 551.13959 
L 1088.714502 553.374837 
L 1093.694181 559.630133 
L 1098.67386 577.038553 
L 1103.653539 581.183594 
L 1108.633219 592.478549 
L 1113.612898 591.647466 
L 1113.612898 591.647466 
" style="fill:none;stroke:#008000;stroke-linecap:square;stroke-width:1.5;"/>
   </g>
   <g id="line2d_37">
    <path clip-path="url(#p98cd26e6a7)" d="M 97.758352 611.167036 
L 102.738031 604.606192 
L 107.717711 599.889721 
L 112.69739 594.501403 
L 117.677069 586.722894 
L 122.656748 584.978185 
L 127.636427 579.389831 
L 132.616106 576.644708 
L 137.595785 584.834797 
L 142.575465 592.457041 
L 147.555144 601.070643 
L 152.534823 607.213587 
L 157.514502 610.996008 
L 162.494181 608.03986 
L 167.47386 604.432145 
L 177.433219 591.523605 
L 182.412898 583.541476 
L 187.392577 583.352336 
L 192.372256 577.034779 
L 197.351935 584.620658 
L 202.331614 598.86063 
L 207.311293 601.537031 
L 212.290973 608.235697 
L 217.270652 612.205702 
L 222.250331 607.308581 
L 227.23001 605.239834 
L 232.209689 594.928642 
L 237.189368 593.193885 
L 242.169047 581.471313 
L 247.148727 580.365246 
L 252.128406 576.651783 
L 257.108085 580.48222 
L 262.087764 592.635333 
L 267.067443 602.256612 
L 272.047122 615.596825 
L 277.026801 611.772991 
L 282.006481 606.114406 
L 286.98616 599.952831 
L 291.965839 594.485791 
L 296.945518 589.478866 
L 306.904876 575.272618 
L 311.884555 577.659271 
L 316.864235 580.850595 
L 321.843914 595.69289 
L 326.823593 599.604691 
L 331.803272 604.840895 
L 336.782951 608.680105 
L 341.76263 605.95267 
L 346.742309 600.157159 
L 351.721989 598.65319 
L 356.701668 586.782325 
L 361.681347 579.892632 
L 366.661026 572.588812 
L 371.640705 573.911377 
L 376.620384 582.048638 
L 381.600064 588.929841 
L 386.579743 603.469418 
L 391.559422 601.718105 
L 396.539101 607.073501 
L 401.51878 606.308357 
L 406.498459 601.362654 
L 411.478138 596.014758 
L 416.457818 590.057606 
L 421.437497 583.726842 
L 431.396855 578.05689 
L 436.376534 580.502974 
L 441.356213 591.629212 
L 446.335892 595.627045 
L 451.315572 598.717101 
L 456.295251 603.540405 
L 466.254609 601.080595 
L 471.234288 596.54152 
L 476.213967 587.768116 
L 486.173326 575.736742 
L 491.153005 574.16089 
L 496.132684 582.004301 
L 501.112363 590.074586 
L 506.092042 596.535247 
L 511.071721 596.257008 
L 516.0514 599.615586 
L 521.03108 602.361747 
L 526.010759 598.195716 
L 530.990438 592.012067 
L 535.970117 588.545429 
L 540.949796 581.174161 
L 545.929475 576.244259 
L 550.909154 578.256406 
L 555.888834 578.12198 
L 560.868513 590.265141 
L 565.848192 600.651752 
L 570.827871 608.174333 
L 575.80755 606.471649 
L 580.787229 612.855522 
L 585.766908 604.443418 
L 590.746588 597.518397 
L 595.726267 592.126589 
L 600.705946 585.382406 
L 605.685625 573.561869 
L 610.665304 575.124985 
L 615.644983 581.105769 
L 620.624662 592.441099 
L 625.604342 599.268342 
L 630.584021 601.889133 
L 635.5637 603.361264 
L 640.543379 606.418067 
L 645.523058 602.47924 
L 650.502737 596.050558 
L 655.482416 588.769945 
L 660.462096 578.953536 
L 665.441775 576.040969 
L 670.421454 577.845581 
L 675.401133 579.051171 
L 680.380812 587.495962 
L 685.360491 592.806643 
L 690.34017 603.907459 
L 695.31985 610.334348 
L 700.299529 599.143585 
L 705.279208 602.644231 
L 710.258887 594.378533 
L 715.238566 591.74746 
L 720.218245 585.296091 
L 725.197924 578.363947 
L 730.177604 584.678202 
L 735.157283 583.163668 
L 740.136962 593.630605 
L 745.116641 601.068473 
L 750.09632 608.097403 
L 755.075999 616.265559 
L 760.055678 612.507146 
L 765.035358 603.903685 
L 770.015037 596.545765 
L 774.994716 590.651439 
L 779.974395 586.957314 
L 784.954074 577.267313 
L 789.933753 578.279518 
L 794.913432 587.00967 
L 799.893112 592.4261 
L 804.872791 602.267177 
L 814.832149 611.606727 
L 819.811828 611.200383 
L 824.791507 603.97038 
L 829.771186 599.401636 
L 834.750866 590.513711 
L 839.730545 579.625195 
L 844.710224 575.75042 
L 849.689903 580.734564 
L 854.669582 581.29538 
L 859.649261 593.457455 
L 864.628941 596.617506 
L 869.60862 605.73655 
L 874.588299 610.647113 
L 879.567978 601.450102 
L 884.547657 599.377487 
L 889.527336 595.073587 
L 894.507015 588.623727 
L 899.486695 581.485463 
L 904.466374 571.826121 
L 909.446053 573.282168 
L 914.425732 583.867872 
L 919.405411 590.332589 
L 924.38509 595.02142 
L 929.364769 600.946452 
L 934.344449 609.143003 
L 939.324128 606.594142 
L 944.303807 605.655612 
L 949.283486 597.319447 
L 954.263165 591.209001 
L 959.242844 581.531216 
L 964.222523 576.736212 
L 969.202203 579.292195 
L 974.181882 584.935262 
L 979.161561 593.185584 
L 984.14124 594.019497 
L 989.120919 604.498321 
L 994.100598 607.149157 
L 999.080277 600.987723 
L 1004.059957 599.015857 
L 1009.039636 595.248388 
L 1014.019315 589.989213 
L 1018.998994 583.259417 
L 1023.978673 578.008779 
L 1028.958352 577.857845 
L 1033.938031 580.253931 
L 1038.917711 587.593598 
L 1043.89739 596.779148 
L 1048.877069 602.718802 
L 1053.856748 602.498107 
L 1058.836427 599.357913 
L 1063.816106 601.403595 
L 1068.795785 597.757723 
L 1073.775465 590.119394 
L 1078.755144 584.382464 
L 1083.734823 575.848999 
L 1088.714502 576.297087 
L 1093.694181 582.428333 
L 1098.67386 595.451536 
L 1103.653539 596.98107 
L 1108.633219 608.842171 
L 1113.612898 605.973989 
L 1113.612898 605.973989 
" style="fill:none;stroke:#0000ff;stroke-linecap:square;stroke-width:1.5;"/>
   </g>
   <g id="line2d_38">
    <defs>
     <path d="M 0 3 
C 0.795609 3 1.55874 2.683901 2.12132 2.12132 
C 2.683901 1.55874 3 0.795609 3 0 
C 3 -0.795609 2.683901 -1.55874 2.12132 -2.12132 
C 1.55874 -2.683901 0.795609 -3 0 -3 
C -0.795609 -3 -1.55874 -2.683901 -2.12132 -2.12132 
C -2.683901 -1.55874 -3 -0.795609 -3 0 
C -3 0.795609 -2.683901 1.55874 -2.12132 2.12132 
C -1.55874 2.683901 -0.795609 3 0 3 
z
" id="mc143b340f5" style="stroke:#ff0000;"/>
    </defs>
    <g clip-path="url(#p98cd26e6a7)">
     <use style="fill:#ff0000;stroke:#ff0000;" x="152.534823" xlink:href="#mc143b340f5" y="639.849091"/>
     <use style="fill:#ff0000;stroke:#ff0000;" x="157.514502" xlink:href="#mc143b340f5" y="639.849091"/>
     <use style="fill:#ff0000;stroke:#ff0000;" x="192.372256" xlink:href="#mc143b340f5" y="639.849091"/>
     <use style="fill:#ff0000;stroke:#ff0000;" x="207.311293" xlink:href="#mc143b340f5" y="639.849091"/>
     <use style="fill:#ff0000;stroke:#ff0000;" x="217.270652" xlink:href="#mc143b340f5" y="639.849091"/>
     <use style="fill:#ff0000;stroke:#ff0000;" x="252.128406" xlink:href="#mc143b340f5" y="639.849091"/>
     <use style="fill:#ff0000;stroke:#ff0000;" x="267.067443" xlink:href="#mc143b340f5" y="639.849091"/>
     <use style="fill:#ff0000;stroke:#ff0000;" x="272.047122" xlink:href="#mc143b340f5" y="639.849091"/>
     <use style="fill:#ff0000;stroke:#ff0000;" x="277.026801" xlink:href="#mc143b340f5" y="639.849091"/>
     <use style="fill:#ff0000;stroke:#ff0000;" x="282.006481" xlink:href="#mc143b340f5" y="639.849091"/>
     <use style="fill:#ff0000;stroke:#ff0000;" x="291.965839" xlink:href="#mc143b340f5" y="639.849091"/>
     <use style="fill:#ff0000;stroke:#ff0000;" x="296.945518" xlink:href="#mc143b340f5" y="639.849091"/>
     <use style="fill:#ff0000;stroke:#ff0000;" x="306.904876" xlink:href="#mc143b340f5" y="639.849091"/>
     <use style="fill:#ff0000;stroke:#ff0000;" x="391.559422" xlink:href="#mc143b340f5" y="639.849091"/>
     <use style="fill:#ff0000;stroke:#ff0000;" x="396.539101" xlink:href="#mc143b340f5" y="639.849091"/>
     <use style="fill:#ff0000;stroke:#ff0000;" x="446.335892" xlink:href="#mc143b340f5" y="639.849091"/>
     <use style="fill:#ff0000;stroke:#ff0000;" x="451.315572" xlink:href="#mc143b340f5" y="639.849091"/>
     <use style="fill:#ff0000;stroke:#ff0000;" x="461.27493" xlink:href="#mc143b340f5" y="639.849091"/>
     <use style="fill:#ff0000;stroke:#ff0000;" x="516.0514" xlink:href="#mc143b340f5" y="639.849091"/>
     <use style="fill:#ff0000;stroke:#ff0000;" x="560.868513" xlink:href="#mc143b340f5" y="639.849091"/>
     <use style="fill:#ff0000;stroke:#ff0000;" x="575.80755" xlink:href="#mc143b340f5" y="639.849091"/>
     <use style="fill:#ff0000;stroke:#ff0000;" x="595.726267" xlink:href="#mc143b340f5" y="639.849091"/>
     <use style="fill:#ff0000;stroke:#ff0000;" x="625.604342" xlink:href="#mc143b340f5" y="639.849091"/>
     <use style="fill:#ff0000;stroke:#ff0000;" x="640.543379" xlink:href="#mc143b340f5" y="639.849091"/>
     <use style="fill:#ff0000;stroke:#ff0000;" x="645.523058" xlink:href="#mc143b340f5" y="639.849091"/>
     <use style="fill:#ff0000;stroke:#ff0000;" x="730.177604" xlink:href="#mc143b340f5" y="639.849091"/>
     <use style="fill:#ff0000;stroke:#ff0000;" x="755.075999" xlink:href="#mc143b340f5" y="639.849091"/>
     <use style="fill:#ff0000;stroke:#ff0000;" x="789.933753" xlink:href="#mc143b340f5" y="639.849091"/>
     <use style="fill:#ff0000;stroke:#ff0000;" x="809.85247" xlink:href="#mc143b340f5" y="639.849091"/>
     <use style="fill:#ff0000;stroke:#ff0000;" x="814.832149" xlink:href="#mc143b340f5" y="639.849091"/>
     <use style="fill:#ff0000;stroke:#ff0000;" x="819.811828" xlink:href="#mc143b340f5" y="639.849091"/>
     <use style="fill:#ff0000;stroke:#ff0000;" x="824.791507" xlink:href="#mc143b340f5" y="639.849091"/>
     <use style="fill:#ff0000;stroke:#ff0000;" x="829.771186" xlink:href="#mc143b340f5" y="639.849091"/>
     <use style="fill:#ff0000;stroke:#ff0000;" x="834.750866" xlink:href="#mc143b340f5" y="639.849091"/>
     <use style="fill:#ff0000;stroke:#ff0000;" x="839.730545" xlink:href="#mc143b340f5" y="639.849091"/>
     <use style="fill:#ff0000;stroke:#ff0000;" x="844.710224" xlink:href="#mc143b340f5" y="639.849091"/>
     <use style="fill:#ff0000;stroke:#ff0000;" x="854.669582" xlink:href="#mc143b340f5" y="639.849091"/>
     <use style="fill:#ff0000;stroke:#ff0000;" x="944.303807" xlink:href="#mc143b340f5" y="639.849091"/>
     <use style="fill:#ff0000;stroke:#ff0000;" x="979.161561" xlink:href="#mc143b340f5" y="639.849091"/>
     <use style="fill:#ff0000;stroke:#ff0000;" x="989.120919" xlink:href="#mc143b340f5" y="639.849091"/>
     <use style="fill:#ff0000;stroke:#ff0000;" x="1033.938031" xlink:href="#mc143b340f5" y="639.849091"/>
     <use style="fill:#ff0000;stroke:#ff0000;" x="1038.917711" xlink:href="#mc143b340f5" y="639.849091"/>
     <use style="fill:#ff0000;stroke:#ff0000;" x="1043.89739" xlink:href="#mc143b340f5" y="639.849091"/>
     <use style="fill:#ff0000;stroke:#ff0000;" x="1058.836427" xlink:href="#mc143b340f5" y="639.849091"/>
     <use style="fill:#ff0000;stroke:#ff0000;" x="1063.816106" xlink:href="#mc143b340f5" y="639.849091"/>
     <use style="fill:#ff0000;stroke:#ff0000;" x="1098.67386" xlink:href="#mc143b340f5" y="639.849091"/>
    </g>
   </g>
   <g id="patch_9">
    <path d="M 46.965625 645.74 
L 46.965625 516.14 
" style="fill:none;stroke:#000000;stroke-linecap:square;stroke-linejoin:miter;stroke-width:0.8;"/>
   </g>
   <g id="patch_10">
    <path d="M 1164.405625 645.74 
L 1164.405625 516.14 
" style="fill:none;stroke:#000000;stroke-linecap:square;stroke-linejoin:miter;stroke-width:0.8;"/>
   </g>
   <g id="patch_11">
    <path d="M 46.965625 645.74 
L 1164.405625 645.74 
" style="fill:none;stroke:#000000;stroke-linecap:square;stroke-linejoin:miter;stroke-width:0.8;"/>
   </g>
   <g id="patch_12">
    <path d="M 46.965625 516.14 
L 1164.405625 516.14 
" style="fill:none;stroke:#000000;stroke-linecap:square;stroke-linejoin:miter;stroke-width:0.8;"/>
   </g>
   <g id="legend_2">
    <g id="patch_13">
     <path d="M 53.965625 582.8525 
L 144.978125 582.8525 
Q 146.978125 582.8525 146.978125 580.8525 
L 146.978125 523.14 
Q 146.978125 521.14 144.978125 521.14 
L 53.965625 521.14 
Q 51.965625 521.14 51.965625 523.14 
L 51.965625 580.8525 
Q 51.965625 582.8525 53.965625 582.8525 
z
" style="fill:#ffffff;opacity:0.8;stroke:#cccccc;stroke-linejoin:miter;"/>
    </g>
    <g id="line2d_39">
     <path d="M 55.965625 529.238437 
L 75.965625 529.238437 
" style="fill:none;stroke:#ff0000;stroke-linecap:square;stroke-width:1.5;"/>
    </g>
    <g id="line2d_40"/>
    <g id="text_32">
     <!-- Maxmimum -->
     <defs>
      <path d="M 9.8125 72.90625 
L 24.515625 72.90625 
L 43.109375 23.296875 
L 61.8125 72.90625 
L 76.515625 72.90625 
L 76.515625 0 
L 66.890625 0 
L 66.890625 64.015625 
L 48.09375 14.015625 
L 38.1875 14.015625 
L 19.390625 64.015625 
L 19.390625 0 
L 9.8125 0 
z
" id="DejaVuSans-4d"/>
      <path d="M 54.890625 54.6875 
L 35.109375 28.078125 
L 55.90625 0 
L 45.3125 0 
L 29.390625 21.484375 
L 13.484375 0 
L 2.875 0 
L 24.125 28.609375 
L 4.6875 54.6875 
L 15.28125 54.6875 
L 29.78125 35.203125 
L 44.28125 54.6875 
z
" id="DejaVuSans-78"/>
     </defs>
     <g transform="translate(83.965625 532.738437)scale(0.1 -0.1)">
      <use xlink:href="#DejaVuSans-4d"/>
      <use x="86.279297" xlink:href="#DejaVuSans-61"/>
      <use x="147.558594" xlink:href="#DejaVuSans-78"/>
      <use x="206.738281" xlink:href="#DejaVuSans-6d"/>
      <use x="304.150391" xlink:href="#DejaVuSans-69"/>
      <use x="331.933594" xlink:href="#DejaVuSans-6d"/>
      <use x="429.345703" xlink:href="#DejaVuSans-75"/>
      <use x="492.724609" xlink:href="#DejaVuSans-6d"/>
     </g>
    </g>
    <g id="line2d_41">
     <path d="M 55.965625 543.916562 
L 75.965625 543.916562 
" style="fill:none;stroke:#008000;stroke-linecap:square;stroke-width:1.5;"/>
    </g>
    <g id="line2d_42"/>
    <g id="text_33">
     <!-- Average -->
     <defs>
      <path d="M 34.1875 63.1875 
L 20.796875 26.90625 
L 47.609375 26.90625 
z
M 28.609375 72.90625 
L 39.796875 72.90625 
L 67.578125 0 
L 57.328125 0 
L 50.6875 18.703125 
L 17.828125 18.703125 
L 11.1875 0 
L 0.78125 0 
z
" id="DejaVuSans-41"/>
      <path d="M 2.984375 54.6875 
L 12.5 54.6875 
L 29.59375 8.796875 
L 46.6875 54.6875 
L 56.203125 54.6875 
L 35.6875 0 
L 23.484375 0 
z
" id="DejaVuSans-76"/>
     </defs>
     <g transform="translate(83.965625 547.416562)scale(0.1 -0.1)">
      <use xlink:href="#DejaVuSans-41"/>
      <use x="68.330078" xlink:href="#DejaVuSans-76"/>
      <use x="127.509766" xlink:href="#DejaVuSans-65"/>
      <use x="189.033203" xlink:href="#DejaVuSans-72"/>
      <use x="230.146484" xlink:href="#DejaVuSans-61"/>
      <use x="291.425781" xlink:href="#DejaVuSans-67"/>
      <use x="354.902344" xlink:href="#DejaVuSans-65"/>
     </g>
    </g>
    <g id="line2d_43">
     <path d="M 55.965625 558.594687 
L 75.965625 558.594687 
" style="fill:none;stroke:#0000ff;stroke-linecap:square;stroke-width:1.5;"/>
    </g>
    <g id="line2d_44"/>
    <g id="text_34">
     <!-- Minimum -->
     <g transform="translate(83.965625 562.094687)scale(0.1 -0.1)">
      <use xlink:href="#DejaVuSans-4d"/>
      <use x="86.279297" xlink:href="#DejaVuSans-69"/>
      <use x="114.0625" xlink:href="#DejaVuSans-6e"/>
      <use x="177.441406" xlink:href="#DejaVuSans-69"/>
      <use x="205.224609" xlink:href="#DejaVuSans-6d"/>
      <use x="302.636719" xlink:href="#DejaVuSans-75"/>
      <use x="366.015625" xlink:href="#DejaVuSans-6d"/>
     </g>
    </g>
    <g id="line2d_45"/>
    <g id="line2d_46">
     <g>
      <use style="fill:#ff0000;stroke:#ff0000;" x="65.965625" xlink:href="#mc143b340f5" y="573.272812"/>
     </g>
    </g>
    <g id="text_35">
     <!-- Disasters -->
     <g transform="translate(83.965625 576.772812)scale(0.1 -0.1)">
      <use xlink:href="#DejaVuSans-44"/>
      <use x="77.001953" xlink:href="#DejaVuSans-69"/>
      <use x="104.785156" xlink:href="#DejaVuSans-73"/>
      <use x="156.884766" xlink:href="#DejaVuSans-61"/>
      <use x="218.164062" xlink:href="#DejaVuSans-73"/>
      <use x="270.263672" xlink:href="#DejaVuSans-74"/>
      <use x="309.472656" xlink:href="#DejaVuSans-65"/>
      <use x="370.996094" xlink:href="#DejaVuSans-72"/>
      <use x="412.109375" xlink:href="#DejaVuSans-73"/>
     </g>
    </g>
   </g>
  </g>
 </g>
 <defs>
  <clipPath id="pe614dcb21e">
   <rect height="498.96" width="1116" x="46.965625" y="10.7"/>
  </clipPath>
  <clipPath id="p98cd26e6a7">
   <rect height="129.6" width="1117.44" x="46.965625" y="516.14"/>
  </clipPath>
 </defs>
</svg>
