<?xml version="1.0" encoding="utf-8" standalone="no"?>
<!DOCTYPE svg PUBLIC "-//W3C//DTD SVG 1.1//EN"
  "http://www.w3.org/Graphics/SVG/1.1/DTD/svg11.dtd">
<!-- Created with matplotlib (http://matplotlib.org/) -->
<svg height="669pt" version="1.1" viewBox="0 0 1181 669" width="1181pt" xmlns="http://www.w3.org/2000/svg" xmlns:xlink="http://www.w3.org/1999/xlink">
 <defs>
  <style type="text/css">
*{stroke-linecap:butt;stroke-linejoin:round;}
  </style>
 </defs>
 <g id="figure_1">
  <g id="patch_1">
   <path d="M 0 669.618125 
L 1181.468125 669.618125 
L 1181.468125 -0 
L 0 -0 
z
" style="fill:none;"/>
  </g>
  <g id="axes_1">
   <g id="patch_2">
    <path d="M 53.328125 509.66 
L 1169.328125 509.66 
L 1169.328125 10.7 
L 53.328125 10.7 
z
" style="fill:none;"/>
   </g>
   <g id="matplotlib.axis_1">
    <g id="xtick_1">
     <g id="line2d_1">
      <defs>
       <path d="M 0 0 
L 0 3.5 
" id="m9679e21cb4" style="stroke:#000000;stroke-width:0.8;"/>
      </defs>
      <g>
       <use style="stroke:#000000;stroke-width:0.8;" x="104.055398" xlink:href="#m9679e21cb4" y="509.66"/>
      </g>
     </g>
     <g id="text_1">
      <!-- 0 -->
      <defs>
       <path d="M 31.78125 66.40625 
Q 24.171875 66.40625 20.328125 58.90625 
Q 16.5 51.421875 16.5 36.375 
Q 16.5 21.390625 20.328125 13.890625 
Q 24.171875 6.390625 31.78125 6.390625 
Q 39.453125 6.390625 43.28125 13.890625 
Q 47.125 21.390625 47.125 36.375 
Q 47.125 51.421875 43.28125 58.90625 
Q 39.453125 66.40625 31.78125 66.40625 
z
M 31.78125 74.21875 
Q 44.046875 74.21875 50.515625 64.515625 
Q 56.984375 54.828125 56.984375 36.375 
Q 56.984375 17.96875 50.515625 8.265625 
Q 44.046875 -1.421875 31.78125 -1.421875 
Q 19.53125 -1.421875 13.0625 8.265625 
Q 6.59375 17.96875 6.59375 36.375 
Q 6.59375 54.828125 13.0625 64.515625 
Q 19.53125 74.21875 31.78125 74.21875 
z
" id="DejaVuSans-30"/>
      </defs>
      <g transform="translate(100.874148 524.258437)scale(0.1 -0.1)">
       <use xlink:href="#DejaVuSans-30"/>
      </g>
     </g>
    </g>
    <g id="xtick_2">
     <g id="line2d_2">
      <g>
       <use style="stroke:#000000;stroke-width:0.8;" x="346.769621" xlink:href="#m9679e21cb4" y="509.66"/>
      </g>
     </g>
     <g id="text_2">
      <!-- 50 -->
      <defs>
       <path d="M 10.796875 72.90625 
L 49.515625 72.90625 
L 49.515625 64.59375 
L 19.828125 64.59375 
L 19.828125 46.734375 
Q 21.96875 47.46875 24.109375 47.828125 
Q 26.265625 48.1875 28.421875 48.1875 
Q 40.625 48.1875 47.75 41.5 
Q 54.890625 34.8125 54.890625 23.390625 
Q 54.890625 11.625 47.5625 5.09375 
Q 40.234375 -1.421875 26.90625 -1.421875 
Q 22.3125 -1.421875 17.546875 -0.640625 
Q 12.796875 0.140625 7.71875 1.703125 
L 7.71875 11.625 
Q 12.109375 9.234375 16.796875 8.0625 
Q 21.484375 6.890625 26.703125 6.890625 
Q 35.15625 6.890625 40.078125 11.328125 
Q 45.015625 15.765625 45.015625 23.390625 
Q 45.015625 31 40.078125 35.4375 
Q 35.15625 39.890625 26.703125 39.890625 
Q 22.75 39.890625 18.8125 39.015625 
Q 14.890625 38.140625 10.796875 36.28125 
z
" id="DejaVuSans-35"/>
      </defs>
      <g transform="translate(340.407121 524.258437)scale(0.1 -0.1)">
       <use xlink:href="#DejaVuSans-35"/>
       <use x="63.623047" xlink:href="#DejaVuSans-30"/>
      </g>
     </g>
    </g>
    <g id="xtick_3">
     <g id="line2d_3">
      <g>
       <use style="stroke:#000000;stroke-width:0.8;" x="589.483845" xlink:href="#m9679e21cb4" y="509.66"/>
      </g>
     </g>
     <g id="text_3">
      <!-- 100 -->
      <defs>
       <path d="M 12.40625 8.296875 
L 28.515625 8.296875 
L 28.515625 63.921875 
L 10.984375 60.40625 
L 10.984375 69.390625 
L 28.421875 72.90625 
L 38.28125 72.90625 
L 38.28125 8.296875 
L 54.390625 8.296875 
L 54.390625 0 
L 12.40625 0 
z
" id="DejaVuSans-31"/>
      </defs>
      <g transform="translate(579.940095 524.258437)scale(0.1 -0.1)">
       <use xlink:href="#DejaVuSans-31"/>
       <use x="63.623047" xlink:href="#DejaVuSans-30"/>
       <use x="127.246094" xlink:href="#DejaVuSans-30"/>
      </g>
     </g>
    </g>
    <g id="xtick_4">
     <g id="line2d_4">
      <g>
       <use style="stroke:#000000;stroke-width:0.8;" x="832.198068" xlink:href="#m9679e21cb4" y="509.66"/>
      </g>
     </g>
     <g id="text_4">
      <!-- 150 -->
      <g transform="translate(822.654318 524.258437)scale(0.1 -0.1)">
       <use xlink:href="#DejaVuSans-31"/>
       <use x="63.623047" xlink:href="#DejaVuSans-35"/>
       <use x="127.246094" xlink:href="#DejaVuSans-30"/>
      </g>
     </g>
    </g>
    <g id="xtick_5">
     <g id="line2d_5">
      <g>
       <use style="stroke:#000000;stroke-width:0.8;" x="1074.912292" xlink:href="#m9679e21cb4" y="509.66"/>
      </g>
     </g>
     <g id="text_5">
      <!-- 200 -->
      <defs>
       <path d="M 19.1875 8.296875 
L 53.609375 8.296875 
L 53.609375 0 
L 7.328125 0 
L 7.328125 8.296875 
Q 12.9375 14.109375 22.625 23.890625 
Q 32.328125 33.6875 34.8125 36.53125 
Q 39.546875 41.84375 41.421875 45.53125 
Q 43.3125 49.21875 43.3125 52.78125 
Q 43.3125 58.59375 39.234375 62.25 
Q 35.15625 65.921875 28.609375 65.921875 
Q 23.96875 65.921875 18.8125 64.3125 
Q 13.671875 62.703125 7.8125 59.421875 
L 7.8125 69.390625 
Q 13.765625 71.78125 18.9375 73 
Q 24.125 74.21875 28.421875 74.21875 
Q 39.75 74.21875 46.484375 68.546875 
Q 53.21875 62.890625 53.21875 53.421875 
Q 53.21875 48.921875 51.53125 44.890625 
Q 49.859375 40.875 45.40625 35.40625 
Q 44.1875 33.984375 37.640625 27.21875 
Q 31.109375 20.453125 19.1875 8.296875 
z
" id="DejaVuSans-32"/>
      </defs>
      <g transform="translate(1065.368542 524.258437)scale(0.1 -0.1)">
       <use xlink:href="#DejaVuSans-32"/>
       <use x="63.623047" xlink:href="#DejaVuSans-30"/>
       <use x="127.246094" xlink:href="#DejaVuSans-30"/>
      </g>
     </g>
    </g>
    <g id="text_6">
     <!-- Time -->
     <defs>
      <path d="M -0.296875 72.90625 
L 61.375 72.90625 
L 61.375 64.59375 
L 35.5 64.59375 
L 35.5 0 
L 25.59375 0 
L 25.59375 64.59375 
L -0.296875 64.59375 
z
" id="DejaVuSans-54"/>
      <path d="M 9.421875 54.6875 
L 18.40625 54.6875 
L 18.40625 0 
L 9.421875 0 
z
M 9.421875 75.984375 
L 18.40625 75.984375 
L 18.40625 64.59375 
L 9.421875 64.59375 
z
" id="DejaVuSans-69"/>
      <path d="M 52 44.1875 
Q 55.375 50.25 60.0625 53.125 
Q 64.75 56 71.09375 56 
Q 79.640625 56 84.28125 50.015625 
Q 88.921875 44.046875 88.921875 33.015625 
L 88.921875 0 
L 79.890625 0 
L 79.890625 32.71875 
Q 79.890625 40.578125 77.09375 44.375 
Q 74.3125 48.1875 68.609375 48.1875 
Q 61.625 48.1875 57.5625 43.546875 
Q 53.515625 38.921875 53.515625 30.90625 
L 53.515625 0 
L 44.484375 0 
L 44.484375 32.71875 
Q 44.484375 40.625 41.703125 44.40625 
Q 38.921875 48.1875 33.109375 48.1875 
Q 26.21875 48.1875 22.15625 43.53125 
Q 18.109375 38.875 18.109375 30.90625 
L 18.109375 0 
L 9.078125 0 
L 9.078125 54.6875 
L 18.109375 54.6875 
L 18.109375 46.1875 
Q 21.1875 51.21875 25.484375 53.609375 
Q 29.78125 56 35.6875 56 
Q 41.65625 56 45.828125 52.96875 
Q 50 49.953125 52 44.1875 
z
" id="DejaVuSans-6d"/>
      <path d="M 56.203125 29.59375 
L 56.203125 25.203125 
L 14.890625 25.203125 
Q 15.484375 15.921875 20.484375 11.0625 
Q 25.484375 6.203125 34.421875 6.203125 
Q 39.59375 6.203125 44.453125 7.46875 
Q 49.3125 8.734375 54.109375 11.28125 
L 54.109375 2.78125 
Q 49.265625 0.734375 44.1875 -0.34375 
Q 39.109375 -1.421875 33.890625 -1.421875 
Q 20.796875 -1.421875 13.15625 6.1875 
Q 5.515625 13.8125 5.515625 26.8125 
Q 5.515625 40.234375 12.765625 48.109375 
Q 20.015625 56 32.328125 56 
Q 43.359375 56 49.78125 48.890625 
Q 56.203125 41.796875 56.203125 29.59375 
z
M 47.21875 32.234375 
Q 47.125 39.59375 43.09375 43.984375 
Q 39.0625 48.390625 32.421875 48.390625 
Q 24.90625 48.390625 20.390625 44.140625 
Q 15.875 39.890625 15.1875 32.171875 
z
" id="DejaVuSans-65"/>
     </defs>
     <g transform="translate(598.940625 537.936562)scale(0.1 -0.1)">
      <use xlink:href="#DejaVuSans-54"/>
      <use x="61.037109" xlink:href="#DejaVuSans-69"/>
      <use x="88.820312" xlink:href="#DejaVuSans-6d"/>
      <use x="186.232422" xlink:href="#DejaVuSans-65"/>
     </g>
    </g>
   </g>
   <g id="matplotlib.axis_2">
    <g id="ytick_1">
     <g id="line2d_6">
      <defs>
       <path d="M 0 0 
L -3.5 0 
" id="m3d7a72d46d" style="stroke:#000000;stroke-width:0.8;"/>
      </defs>
      <g>
       <use style="stroke:#000000;stroke-width:0.8;" x="53.328125" xlink:href="#m3d7a72d46d" y="482.233023"/>
      </g>
     </g>
     <g id="text_7">
      <!-- 1250 -->
      <g transform="translate(20.878125 486.032242)scale(0.1 -0.1)">
       <use xlink:href="#DejaVuSans-31"/>
       <use x="63.623047" xlink:href="#DejaVuSans-32"/>
       <use x="127.246094" xlink:href="#DejaVuSans-35"/>
       <use x="190.869141" xlink:href="#DejaVuSans-30"/>
      </g>
     </g>
    </g>
    <g id="ytick_2">
     <g id="line2d_7">
      <g>
       <use style="stroke:#000000;stroke-width:0.8;" x="53.328125" xlink:href="#m3d7a72d46d" y="416.302791"/>
      </g>
     </g>
     <g id="text_8">
      <!-- 1500 -->
      <g transform="translate(20.878125 420.102009)scale(0.1 -0.1)">
       <use xlink:href="#DejaVuSans-31"/>
       <use x="63.623047" xlink:href="#DejaVuSans-35"/>
       <use x="127.246094" xlink:href="#DejaVuSans-30"/>
       <use x="190.869141" xlink:href="#DejaVuSans-30"/>
      </g>
     </g>
    </g>
    <g id="ytick_3">
     <g id="line2d_8">
      <g>
       <use style="stroke:#000000;stroke-width:0.8;" x="53.328125" xlink:href="#m3d7a72d46d" y="350.372558"/>
      </g>
     </g>
     <g id="text_9">
      <!-- 1750 -->
      <defs>
       <path d="M 8.203125 72.90625 
L 55.078125 72.90625 
L 55.078125 68.703125 
L 28.609375 0 
L 18.3125 0 
L 43.21875 64.59375 
L 8.203125 64.59375 
z
" id="DejaVuSans-37"/>
      </defs>
      <g transform="translate(20.878125 354.171777)scale(0.1 -0.1)">
       <use xlink:href="#DejaVuSans-31"/>
       <use x="63.623047" xlink:href="#DejaVuSans-37"/>
       <use x="127.246094" xlink:href="#DejaVuSans-35"/>
       <use x="190.869141" xlink:href="#DejaVuSans-30"/>
      </g>
     </g>
    </g>
    <g id="ytick_4">
     <g id="line2d_9">
      <g>
       <use style="stroke:#000000;stroke-width:0.8;" x="53.328125" xlink:href="#m3d7a72d46d" y="284.442326"/>
      </g>
     </g>
     <g id="text_10">
      <!-- 2000 -->
      <g transform="translate(20.878125 288.241544)scale(0.1 -0.1)">
       <use xlink:href="#DejaVuSans-32"/>
       <use x="63.623047" xlink:href="#DejaVuSans-30"/>
       <use x="127.246094" xlink:href="#DejaVuSans-30"/>
       <use x="190.869141" xlink:href="#DejaVuSans-30"/>
      </g>
     </g>
    </g>
    <g id="ytick_5">
     <g id="line2d_10">
      <g>
       <use style="stroke:#000000;stroke-width:0.8;" x="53.328125" xlink:href="#m3d7a72d46d" y="218.512093"/>
      </g>
     </g>
     <g id="text_11">
      <!-- 2250 -->
      <g transform="translate(20.878125 222.311312)scale(0.1 -0.1)">
       <use xlink:href="#DejaVuSans-32"/>
       <use x="63.623047" xlink:href="#DejaVuSans-32"/>
       <use x="127.246094" xlink:href="#DejaVuSans-35"/>
       <use x="190.869141" xlink:href="#DejaVuSans-30"/>
      </g>
     </g>
    </g>
    <g id="ytick_6">
     <g id="line2d_11">
      <g>
       <use style="stroke:#000000;stroke-width:0.8;" x="53.328125" xlink:href="#m3d7a72d46d" y="152.58186"/>
      </g>
     </g>
     <g id="text_12">
      <!-- 2500 -->
      <g transform="translate(20.878125 156.381079)scale(0.1 -0.1)">
       <use xlink:href="#DejaVuSans-32"/>
       <use x="63.623047" xlink:href="#DejaVuSans-35"/>
       <use x="127.246094" xlink:href="#DejaVuSans-30"/>
       <use x="190.869141" xlink:href="#DejaVuSans-30"/>
      </g>
     </g>
    </g>
    <g id="ytick_7">
     <g id="line2d_12">
      <g>
       <use style="stroke:#000000;stroke-width:0.8;" x="53.328125" xlink:href="#m3d7a72d46d" y="86.651628"/>
      </g>
     </g>
     <g id="text_13">
      <!-- 2750 -->
      <g transform="translate(20.878125 90.450847)scale(0.1 -0.1)">
       <use xlink:href="#DejaVuSans-32"/>
       <use x="63.623047" xlink:href="#DejaVuSans-37"/>
       <use x="127.246094" xlink:href="#DejaVuSans-35"/>
       <use x="190.869141" xlink:href="#DejaVuSans-30"/>
      </g>
     </g>
    </g>
    <g id="ytick_8">
     <g id="line2d_13">
      <g>
       <use style="stroke:#000000;stroke-width:0.8;" x="53.328125" xlink:href="#m3d7a72d46d" y="20.721395"/>
      </g>
     </g>
     <g id="text_14">
      <!-- 3000 -->
      <defs>
       <path d="M 40.578125 39.3125 
Q 47.65625 37.796875 51.625 33 
Q 55.609375 28.21875 55.609375 21.1875 
Q 55.609375 10.40625 48.1875 4.484375 
Q 40.765625 -1.421875 27.09375 -1.421875 
Q 22.515625 -1.421875 17.65625 -0.515625 
Q 12.796875 0.390625 7.625 2.203125 
L 7.625 11.71875 
Q 11.71875 9.328125 16.59375 8.109375 
Q 21.484375 6.890625 26.8125 6.890625 
Q 36.078125 6.890625 40.9375 10.546875 
Q 45.796875 14.203125 45.796875 21.1875 
Q 45.796875 27.640625 41.28125 31.265625 
Q 36.765625 34.90625 28.71875 34.90625 
L 20.21875 34.90625 
L 20.21875 43.015625 
L 29.109375 43.015625 
Q 36.375 43.015625 40.234375 45.921875 
Q 44.09375 48.828125 44.09375 54.296875 
Q 44.09375 59.90625 40.109375 62.90625 
Q 36.140625 65.921875 28.71875 65.921875 
Q 24.65625 65.921875 20.015625 65.03125 
Q 15.375 64.15625 9.8125 62.3125 
L 9.8125 71.09375 
Q 15.4375 72.65625 20.34375 73.4375 
Q 25.25 74.21875 29.59375 74.21875 
Q 40.828125 74.21875 47.359375 69.109375 
Q 53.90625 64.015625 53.90625 55.328125 
Q 53.90625 49.265625 50.4375 45.09375 
Q 46.96875 40.921875 40.578125 39.3125 
z
" id="DejaVuSans-33"/>
      </defs>
      <g transform="translate(20.878125 24.520614)scale(0.1 -0.1)">
       <use xlink:href="#DejaVuSans-33"/>
       <use x="63.623047" xlink:href="#DejaVuSans-30"/>
       <use x="127.246094" xlink:href="#DejaVuSans-30"/>
       <use x="190.869141" xlink:href="#DejaVuSans-30"/>
      </g>
     </g>
    </g>
    <g id="text_15">
     <!-- Refugees -->
     <defs>
      <path d="M 44.390625 34.1875 
Q 47.5625 33.109375 50.5625 29.59375 
Q 53.5625 26.078125 56.59375 19.921875 
L 66.609375 0 
L 56 0 
L 46.6875 18.703125 
Q 43.0625 26.03125 39.671875 28.421875 
Q 36.28125 30.8125 30.421875 30.8125 
L 19.671875 30.8125 
L 19.671875 0 
L 9.8125 0 
L 9.8125 72.90625 
L 32.078125 72.90625 
Q 44.578125 72.90625 50.734375 67.671875 
Q 56.890625 62.453125 56.890625 51.90625 
Q 56.890625 45.015625 53.6875 40.46875 
Q 50.484375 35.9375 44.390625 34.1875 
z
M 19.671875 64.796875 
L 19.671875 38.921875 
L 32.078125 38.921875 
Q 39.203125 38.921875 42.84375 42.21875 
Q 46.484375 45.515625 46.484375 51.90625 
Q 46.484375 58.296875 42.84375 61.546875 
Q 39.203125 64.796875 32.078125 64.796875 
z
" id="DejaVuSans-52"/>
      <path d="M 37.109375 75.984375 
L 37.109375 68.5 
L 28.515625 68.5 
Q 23.6875 68.5 21.796875 66.546875 
Q 19.921875 64.59375 19.921875 59.515625 
L 19.921875 54.6875 
L 34.71875 54.6875 
L 34.71875 47.703125 
L 19.921875 47.703125 
L 19.921875 0 
L 10.890625 0 
L 10.890625 47.703125 
L 2.296875 47.703125 
L 2.296875 54.6875 
L 10.890625 54.6875 
L 10.890625 58.5 
Q 10.890625 67.625 15.140625 71.796875 
Q 19.390625 75.984375 28.609375 75.984375 
z
" id="DejaVuSans-66"/>
      <path d="M 8.5 21.578125 
L 8.5 54.6875 
L 17.484375 54.6875 
L 17.484375 21.921875 
Q 17.484375 14.15625 20.5 10.265625 
Q 23.53125 6.390625 29.59375 6.390625 
Q 36.859375 6.390625 41.078125 11.03125 
Q 45.3125 15.671875 45.3125 23.6875 
L 45.3125 54.6875 
L 54.296875 54.6875 
L 54.296875 0 
L 45.3125 0 
L 45.3125 8.40625 
Q 42.046875 3.421875 37.71875 1 
Q 33.40625 -1.421875 27.6875 -1.421875 
Q 18.265625 -1.421875 13.375 4.4375 
Q 8.5 10.296875 8.5 21.578125 
z
M 31.109375 56 
z
" id="DejaVuSans-75"/>
      <path d="M 45.40625 27.984375 
Q 45.40625 37.75 41.375 43.109375 
Q 37.359375 48.484375 30.078125 48.484375 
Q 22.859375 48.484375 18.828125 43.109375 
Q 14.796875 37.75 14.796875 27.984375 
Q 14.796875 18.265625 18.828125 12.890625 
Q 22.859375 7.515625 30.078125 7.515625 
Q 37.359375 7.515625 41.375 12.890625 
Q 45.40625 18.265625 45.40625 27.984375 
z
M 54.390625 6.78125 
Q 54.390625 -7.171875 48.1875 -13.984375 
Q 42 -20.796875 29.203125 -20.796875 
Q 24.46875 -20.796875 20.265625 -20.09375 
Q 16.0625 -19.390625 12.109375 -17.921875 
L 12.109375 -9.1875 
Q 16.0625 -11.328125 19.921875 -12.34375 
Q 23.78125 -13.375 27.78125 -13.375 
Q 36.625 -13.375 41.015625 -8.765625 
Q 45.40625 -4.15625 45.40625 5.171875 
L 45.40625 9.625 
Q 42.625 4.78125 38.28125 2.390625 
Q 33.9375 0 27.875 0 
Q 17.828125 0 11.671875 7.65625 
Q 5.515625 15.328125 5.515625 27.984375 
Q 5.515625 40.671875 11.671875 48.328125 
Q 17.828125 56 27.875 56 
Q 33.9375 56 38.28125 53.609375 
Q 42.625 51.21875 45.40625 46.390625 
L 45.40625 54.6875 
L 54.390625 54.6875 
z
" id="DejaVuSans-67"/>
      <path d="M 44.28125 53.078125 
L 44.28125 44.578125 
Q 40.484375 46.53125 36.375 47.5 
Q 32.28125 48.484375 27.875 48.484375 
Q 21.1875 48.484375 17.84375 46.4375 
Q 14.5 44.390625 14.5 40.28125 
Q 14.5 37.15625 16.890625 35.375 
Q 19.28125 33.59375 26.515625 31.984375 
L 29.59375 31.296875 
Q 39.15625 29.25 43.1875 25.515625 
Q 47.21875 21.78125 47.21875 15.09375 
Q 47.21875 7.46875 41.1875 3.015625 
Q 35.15625 -1.421875 24.609375 -1.421875 
Q 20.21875 -1.421875 15.453125 -0.5625 
Q 10.6875 0.296875 5.421875 2 
L 5.421875 11.28125 
Q 10.40625 8.6875 15.234375 7.390625 
Q 20.0625 6.109375 24.8125 6.109375 
Q 31.15625 6.109375 34.5625 8.28125 
Q 37.984375 10.453125 37.984375 14.40625 
Q 37.984375 18.0625 35.515625 20.015625 
Q 33.0625 21.96875 24.703125 23.78125 
L 21.578125 24.515625 
Q 13.234375 26.265625 9.515625 29.90625 
Q 5.8125 33.546875 5.8125 39.890625 
Q 5.8125 47.609375 11.28125 51.796875 
Q 16.75 56 26.8125 56 
Q 31.78125 56 36.171875 55.265625 
Q 40.578125 54.546875 44.28125 53.078125 
z
" id="DejaVuSans-73"/>
     </defs>
     <g style="fill:#ff7f0e;" transform="translate(14.798437 283.588594)rotate(-90)scale(0.1 -0.1)">
      <use xlink:href="#DejaVuSans-52"/>
      <use x="69.419922" xlink:href="#DejaVuSans-65"/>
      <use x="130.943359" xlink:href="#DejaVuSans-66"/>
      <use x="166.148438" xlink:href="#DejaVuSans-75"/>
      <use x="229.527344" xlink:href="#DejaVuSans-67"/>
      <use x="293.003906" xlink:href="#DejaVuSans-65"/>
      <use x="354.527344" xlink:href="#DejaVuSans-65"/>
      <use x="416.050781" xlink:href="#DejaVuSans-73"/>
     </g>
    </g>
   </g>
   <g id="line2d_14">
    <path clip-path="url(#p84a15fb91f)" d="M 104.055398 401.766559 
L 108.909682 348.473748 
L 113.763967 327.750279 
L 118.618251 319.730581 
L 123.472536 335.851263 
L 128.32682 352.914027 
L 133.181105 271.067631 
L 142.889673 213.178247 
L 147.743958 176.606541 
L 152.598242 163.107583 
L 157.452527 152.962247 
L 162.306811 178.016894 
L 167.161096 179.640169 
L 172.01538 210.608191 
L 176.869665 232.750641 
L 181.723949 245.930507 
L 186.578234 256.077131 
L 191.432518 308.686752 
L 196.286803 336.599481 
L 201.141087 384.988634 
L 205.995372 415.341233 
L 210.849656 404.512514 
L 215.703941 398.254937 
L 220.558225 180.210427 
L 225.41251 149.953279 
L 230.266794 166.074315 
L 235.121078 186.904792 
L 239.975363 206.806644 
L 244.829647 228.938599 
L 249.683932 226.652738 
L 254.538216 262.59785 
L 259.392501 304.28108 
L 264.246785 321.282807 
L 269.10107 315.278359 
L 273.955354 300.931709 
L 278.809639 76.445319 
L 283.663923 45.779777 
L 288.518208 76.27193 
L 293.372492 116.182513 
L 298.226777 157.1935 
L 303.081061 191.684605 
L 307.935346 95.431423 
L 312.78963 85.705877 
L 317.643914 89.942087 
L 322.498199 82.271388 
L 327.352483 88.074279 
L 332.206768 85.649604 
L 337.061052 216.512875 
L 341.915337 207.468972 
L 346.769621 219.478576 
L 351.623906 226.010047 
L 356.47819 235.423777 
L 361.332475 238.933854 
L 366.186759 264.461666 
L 371.041044 301.043062 
L 375.895328 340.828706 
L 380.749613 355.172813 
L 385.603897 345.609775 
L 390.458182 329.318022 
L 395.312466 369.068994 
L 400.16675 340.826066 
L 405.021035 342.224444 
L 409.875319 348.569295 
L 414.729604 362.709624 
L 419.583888 374.287237 
L 424.438173 366.654106 
L 429.292457 387.446274 
L 434.146742 399.010237 
L 439.001026 391.024212 
L 443.855311 379.00714 
L 448.709595 355.547888 
L 453.56388 384.342531 
L 458.418164 388.827557 
L 463.272449 407.753784 
L 468.126733 419.283526 
L 472.981018 424.68855 
L 477.835302 424.588978 
L 482.689587 415.959522 
L 487.543871 411.08384 
L 492.398155 422.066278 
L 497.25244 428.134531 
L 502.106724 426.806526 
L 506.961009 426.217693 
L 511.815293 409.969657 
L 516.669578 408.764467 
L 521.523862 421.664676 
L 526.378147 428.273506 
L 531.232431 431.571466 
L 536.086716 431.25569 
L 540.941 429.04854 
L 545.795285 439.807176 
L 550.649569 451.543015 
L 555.503854 448.44423 
L 565.212423 420.854456 
L 570.066707 424.305105 
L 574.920991 416.089998 
L 579.775276 429.213334 
L 584.62956 439.968815 
L 589.483845 444.178402 
L 594.338129 446.532736 
L 599.192414 433.30735 
L 604.046698 441.753277 
L 608.900983 442.722368 
L 613.755267 427.548209 
L 618.609552 413.868813 
L 623.463836 396.720256 
L 628.318121 398.01256 
L 633.172405 398.074691 
L 638.02669 413.67511 
L 642.880974 423.579261 
L 647.735259 430.685722 
L 652.589543 433.151313 
L 657.443827 416.246003 
L 662.298112 405.278116 
L 667.152396 403.611736 
L 672.006681 396.639839 
L 676.860965 397.35535 
L 681.71525 396.998206 
L 686.569534 328.146376 
L 691.423819 324.002043 
L 696.278103 337.410926 
L 705.986672 354.312952 
L 710.840957 356.9547 
L 715.695241 357.785975 
L 720.549526 349.909147 
L 725.40381 354.121439 
L 730.258095 351.673972 
L 735.112379 351.311678 
L 739.966663 349.618964 
L 744.820948 295.457696 
L 749.675232 290.349456 
L 754.529517 309.273203 
L 759.383801 323.021556 
L 764.238086 333.310632 
L 769.09237 340.869591 
L 773.946655 299.066926 
L 778.800939 297.917235 
L 783.655224 293.771679 
L 788.509508 274.719226 
L 793.363793 263.873831 
L 798.218077 248.11554 
L 803.072362 213.452076 
L 807.926646 207.488803 
L 812.780931 233.897273 
L 817.635215 256.070563 
L 822.4895 273.836701 
L 827.343784 286.879008 
L 832.198068 237.246066 
L 837.052353 264.370304 
L 841.906637 284.080063 
L 846.760922 276.922448 
L 851.615206 261.70792 
L 856.469491 238.835667 
L 861.323775 260.670936 
L 866.17806 255.708333 
L 871.032344 285.888026 
L 875.886629 313.57499 
L 880.740913 329.041971 
L 885.595198 342.909887 
L 890.449482 336.406487 
L 895.303767 354.769892 
L 900.158051 371.633738 
L 905.012336 368.884242 
L 909.86662 357.76476 
L 914.720904 342.512342 
L 919.575189 336.323817 
L 924.429473 309.037103 
L 929.283758 324.444947 
L 934.138042 346.45618 
L 938.992327 365.872601 
L 943.846611 387.093863 
L 948.700896 353.762042 
L 953.55518 364.365381 
L 958.409465 364.864268 
L 963.263749 345.372645 
L 968.118034 327.678587 
L 972.972318 305.825644 
L 977.826603 303.447584 
L 982.680887 288.945283 
L 987.535172 295.037552 
L 992.389456 298.163347 
L 997.24374 307.961165 
L 1002.098025 314.643394 
L 1006.952309 278.821741 
L 1011.806594 288.934499 
L 1016.660878 293.636503 
L 1021.515163 278.847366 
L 1026.369447 265.045381 
L 1031.223732 245.369198 
L 1036.078016 205.294691 
L 1040.932301 194.68295 
L 1045.786585 215.068912 
L 1050.64087 232.644148 
L 1055.495154 248.309725 
L 1060.349439 259.530098 
L 1065.203723 232.037899 
L 1070.058008 212.164956 
L 1074.912292 207.863202 
L 1079.766577 197.938448 
L 1084.620861 199.702082 
L 1089.475145 199.073298 
L 1094.32943 138.80373 
L 1099.183714 97.499727 
L 1104.037999 95.173368 
L 1108.892283 97.824742 
L 1113.746568 115.637494 
L 1118.600852 131.471052 
L 1118.600852 131.471052 
" style="fill:none;stroke:#008000;stroke-dasharray:5.55,2.4;stroke-dashoffset:0;stroke-width:1.5;"/>
   </g>
   <g id="line2d_15">
    <path clip-path="url(#p84a15fb91f)" d="M 104.055398 347.471628 
L 108.909682 260.971163 
L 113.763967 262.289767 
L 118.618251 352.218605 
L 123.472536 388.875814 
L 128.32682 318.198605 
L 133.181105 199.787907 
L 138.035389 198.733023 
L 142.889673 120.671628 
L 147.743958 222.467907 
L 152.598242 121.726512 
L 157.452527 223.25907 
L 162.306811 239.346047 
L 167.161096 100.365116 
L 172.01538 219.566977 
L 176.869665 230.379535 
L 181.723949 159.702326 
L 186.578234 295.518605 
L 191.432518 269.146512 
L 196.286803 284.969767 
L 201.141087 193.458605 
L 205.995372 276.530698 
L 210.849656 191.876279 
L 215.703941 175.525581 
L 220.558225 248.048837 
L 225.41251 225.632558 
L 230.266794 253.850698 
L 235.121078 265.71814 
L 239.975363 178.690233 
L 244.829647 195.832093 
L 249.683932 33.38 
L 254.538216 240.928372 
L 259.392501 79.003721 
L 264.246785 126.209767 
L 269.10107 66.872558 
L 273.955354 116.452093 
L 278.809639 67.663721 
L 283.663923 111.177674 
L 288.518208 141.505581 
L 293.372492 71.092093 
L 298.226777 187.129302 
L 303.081061 139.132093 
L 307.935346 176.844186 
L 312.78963 331.12093 
L 317.643914 320.308372 
L 322.498199 273.102326 
L 327.352483 319.78093 
L 332.206768 282.86 
L 337.061052 198.733023 
L 341.915337 244.356744 
L 346.769621 205.853488 
L 351.623906 190.293953 
L 356.47819 191.876279 
L 361.332475 245.93907 
L 366.186759 346.153023 
L 371.041044 366.986977 
L 375.895328 333.494419 
L 380.749613 373.316279 
L 385.603897 433.972093 
L 390.458182 410.764651 
L 395.312466 382.546512 
L 400.16675 364.086047 
L 405.021035 337.186512 
L 409.875319 346.416744 
L 414.729604 393.095349 
L 419.583888 329.274884 
L 424.438173 373.843721 
L 429.292457 445.048372 
L 434.146742 356.43814 
L 439.001026 397.578605 
L 443.855311 423.423256 
L 448.709595 345.889302 
L 453.56388 405.226512 
L 458.418164 415.775349 
L 463.272449 410.237209 
L 468.126733 436.345581 
L 472.981018 428.170233 
L 477.835302 396.523721 
L 482.689587 399.952093 
L 487.543871 461.135349 
L 492.398155 369.360465 
L 497.25244 430.016279 
L 502.106724 420.786047 
L 506.961009 420.258605 
L 511.815293 414.193023 
L 516.669578 373.843721 
L 521.523862 403.116744 
L 526.378147 379.645581 
L 531.232431 397.578605 
L 536.086716 451.377674 
L 540.941 418.148837 
L 545.795285 430.543721 
L 550.649569 420.786047 
L 555.503854 467.728372 
L 560.358138 418.412558 
L 565.212423 444.52093 
L 570.066707 440.565116 
L 574.920991 430.28 
L 579.775276 486.98 
L 584.62956 383.601395 
L 589.483845 421.049767 
L 594.338129 448.213023 
L 599.192414 434.235814 
L 604.046698 478.804651 
L 608.900983 439.773953 
L 613.755267 392.831628 
L 618.609552 398.897209 
L 623.463836 441.883721 
L 628.318121 374.634884 
L 633.172405 457.443256 
L 638.02669 449.795349 
L 642.880974 402.06186 
L 647.735259 452.432558 
L 652.589543 427.906512 
L 657.443827 434.499535 
L 662.298112 458.234419 
L 667.152396 411.555814 
L 672.006681 394.413953 
L 676.860965 351.691163 
L 681.71525 358.020465 
L 686.569534 289.189302 
L 691.423819 373.316279 
L 696.278103 333.494419 
L 701.132388 340.614884 
L 705.986672 313.451628 
L 710.840957 369.360465 
L 715.695241 393.35907 
L 720.549526 430.28 
L 725.40381 341.406047 
L 730.258095 347.99907 
L 735.112379 360.393953 
L 739.966663 310.286977 
L 744.820948 340.878605 
L 749.675232 308.44093 
L 754.529517 300.529302 
L 759.383801 280.750233 
L 764.238086 306.594884 
L 769.09237 328.22 
L 773.946655 323.473023 
L 778.800939 390.985581 
L 783.655224 212.182791 
L 788.509508 355.383256 
L 793.363793 294.991163 
L 798.218077 189.23907 
L 803.072362 244.884186 
L 807.926646 234.071628 
L 812.780931 236.972558 
L 817.635215 243.565581 
L 822.4895 259.125116 
L 827.343784 279.431628 
L 832.198068 291.562791 
L 837.052353 296.837209 
L 841.906637 237.236279 
L 846.760922 269.410233 
L 851.615206 232.225581 
L 856.469491 246.466512 
L 861.323775 262.289767 
L 866.17806 246.993953 
L 871.032344 320.308372 
L 875.886629 218.512093 
L 880.740913 333.494419 
L 885.595198 381.755349 
L 890.449482 367.77814 
L 895.303767 443.202326 
L 900.158051 399.16093 
L 905.012336 375.162326 
L 909.86662 302.111628 
L 914.720904 353.80093 
L 919.575189 306.858605 
L 924.429473 352.218605 
L 929.283758 377.799535 
L 934.138042 310.286977 
L 938.992327 388.084651 
L 943.846611 399.16093 
L 948.700896 385.974884 
L 953.55518 395.468837 
L 958.409465 278.640465 
L 963.263749 324.000465 
L 968.118034 326.637674 
L 972.972318 318.989767 
L 977.826603 278.376744 
L 982.680887 344.306977 
L 987.535172 303.166512 
L 992.389456 244.093023 
L 997.24374 340.878605 
L 1002.098025 292.090233 
L 1006.952309 306.594884 
L 1011.806594 318.726047 
L 1016.660878 273.366047 
L 1021.515163 287.870698 
L 1026.369447 263.872093 
L 1031.223732 216.138605 
L 1036.078016 322.945581 
L 1040.932301 248.312558 
L 1045.786585 249.103721 
L 1050.64087 205.853488 
L 1055.495154 254.905581 
L 1060.349439 241.192093 
L 1065.203723 321.363256 
L 1070.058008 303.166512 
L 1074.912292 188.975349 
L 1079.766577 249.367442 
L 1084.620861 118.825581 
L 1089.475145 81.113488 
L 1094.32943 164.185581 
L 1099.183714 85.596744 
L 1104.037999 91.134884 
L 1108.892283 107.22186 
L 1113.746568 83.223256 
L 1118.600852 65.553953 
L 1118.600852 65.553953 
" style="fill:none;stroke:#ff7f0e;stroke-linecap:square;stroke-width:1.5;"/>
   </g>
   <g id="line2d_16">
    <defs>
     <path d="M 0 3 
C 0.795609 3 1.55874 2.683901 2.12132 2.12132 
C 2.683901 1.55874 3 0.795609 3 0 
C 3 -0.795609 2.683901 -1.55874 2.12132 -2.12132 
C 1.55874 -2.683901 0.795609 -3 0 -3 
C -0.795609 -3 -1.55874 -2.683901 -2.12132 -2.12132 
C -2.683901 -1.55874 -3 -0.795609 -3 0 
C -3 0.795609 -2.683901 1.55874 -2.12132 2.12132 
C -1.55874 2.683901 -0.795609 3 0 3 
z
" id="md15bc568a9" style="stroke:#008000;"/>
    </defs>
    <g clip-path="url(#p84a15fb91f)">
     <use style="fill:#008000;stroke:#008000;" x="104.055398" xlink:href="#md15bc568a9" y="401.766559"/>
     <use style="fill:#008000;stroke:#008000;" x="133.181105" xlink:href="#md15bc568a9" y="271.067631"/>
     <use style="fill:#008000;stroke:#008000;" x="162.306811" xlink:href="#md15bc568a9" y="178.016894"/>
     <use style="fill:#008000;stroke:#008000;" x="191.432518" xlink:href="#md15bc568a9" y="308.686752"/>
     <use style="fill:#008000;stroke:#008000;" x="220.558225" xlink:href="#md15bc568a9" y="180.210427"/>
     <use style="fill:#008000;stroke:#008000;" x="249.683932" xlink:href="#md15bc568a9" y="226.652738"/>
     <use style="fill:#008000;stroke:#008000;" x="278.809639" xlink:href="#md15bc568a9" y="76.445319"/>
     <use style="fill:#008000;stroke:#008000;" x="307.935346" xlink:href="#md15bc568a9" y="95.431423"/>
     <use style="fill:#008000;stroke:#008000;" x="337.061052" xlink:href="#md15bc568a9" y="216.512875"/>
     <use style="fill:#008000;stroke:#008000;" x="366.186759" xlink:href="#md15bc568a9" y="264.461666"/>
     <use style="fill:#008000;stroke:#008000;" x="395.312466" xlink:href="#md15bc568a9" y="369.068994"/>
     <use style="fill:#008000;stroke:#008000;" x="424.438173" xlink:href="#md15bc568a9" y="366.654106"/>
     <use style="fill:#008000;stroke:#008000;" x="453.56388" xlink:href="#md15bc568a9" y="384.342531"/>
     <use style="fill:#008000;stroke:#008000;" x="482.689587" xlink:href="#md15bc568a9" y="415.959522"/>
     <use style="fill:#008000;stroke:#008000;" x="511.815293" xlink:href="#md15bc568a9" y="409.969657"/>
     <use style="fill:#008000;stroke:#008000;" x="540.941" xlink:href="#md15bc568a9" y="429.04854"/>
     <use style="fill:#008000;stroke:#008000;" x="570.066707" xlink:href="#md15bc568a9" y="424.305105"/>
     <use style="fill:#008000;stroke:#008000;" x="599.192414" xlink:href="#md15bc568a9" y="433.30735"/>
     <use style="fill:#008000;stroke:#008000;" x="628.318121" xlink:href="#md15bc568a9" y="398.01256"/>
     <use style="fill:#008000;stroke:#008000;" x="657.443827" xlink:href="#md15bc568a9" y="416.246003"/>
     <use style="fill:#008000;stroke:#008000;" x="686.569534" xlink:href="#md15bc568a9" y="328.146376"/>
     <use style="fill:#008000;stroke:#008000;" x="715.695241" xlink:href="#md15bc568a9" y="357.785975"/>
     <use style="fill:#008000;stroke:#008000;" x="744.820948" xlink:href="#md15bc568a9" y="295.457696"/>
     <use style="fill:#008000;stroke:#008000;" x="773.946655" xlink:href="#md15bc568a9" y="299.066926"/>
     <use style="fill:#008000;stroke:#008000;" x="803.072362" xlink:href="#md15bc568a9" y="213.452076"/>
     <use style="fill:#008000;stroke:#008000;" x="832.198068" xlink:href="#md15bc568a9" y="237.246066"/>
     <use style="fill:#008000;stroke:#008000;" x="861.323775" xlink:href="#md15bc568a9" y="260.670936"/>
     <use style="fill:#008000;stroke:#008000;" x="890.449482" xlink:href="#md15bc568a9" y="336.406487"/>
     <use style="fill:#008000;stroke:#008000;" x="919.575189" xlink:href="#md15bc568a9" y="336.323817"/>
     <use style="fill:#008000;stroke:#008000;" x="948.700896" xlink:href="#md15bc568a9" y="353.762042"/>
     <use style="fill:#008000;stroke:#008000;" x="977.826603" xlink:href="#md15bc568a9" y="303.447584"/>
     <use style="fill:#008000;stroke:#008000;" x="1006.952309" xlink:href="#md15bc568a9" y="278.821741"/>
     <use style="fill:#008000;stroke:#008000;" x="1036.078016" xlink:href="#md15bc568a9" y="205.294691"/>
     <use style="fill:#008000;stroke:#008000;" x="1065.203723" xlink:href="#md15bc568a9" y="232.037899"/>
     <use style="fill:#008000;stroke:#008000;" x="1094.32943" xlink:href="#md15bc568a9" y="138.80373"/>
    </g>
   </g>
   <g id="patch_3">
    <path d="M 53.328125 509.66 
L 53.328125 10.7 
" style="fill:none;stroke:#000000;stroke-linecap:square;stroke-linejoin:miter;stroke-width:0.8;"/>
   </g>
   <g id="patch_4">
    <path d="M 1169.328125 509.66 
L 1169.328125 10.7 
" style="fill:none;stroke:#000000;stroke-linecap:square;stroke-linejoin:miter;stroke-width:0.8;"/>
   </g>
   <g id="patch_5">
    <path d="M 53.328125 509.66 
L 1169.328125 509.66 
" style="fill:none;stroke:#000000;stroke-linecap:square;stroke-linejoin:miter;stroke-width:0.8;"/>
   </g>
   <g id="patch_6">
    <path d="M 53.328125 10.7 
L 1169.328125 10.7 
" style="fill:none;stroke:#000000;stroke-linecap:square;stroke-linejoin:miter;stroke-width:0.8;"/>
   </g>
   <g id="legend_1">
    <g id="patch_7">
     <path d="M 60.328125 62.734375 
L 208.103125 62.734375 
Q 210.103125 62.734375 210.103125 60.734375 
L 210.103125 17.7 
Q 210.103125 15.7 208.103125 15.7 
L 60.328125 15.7 
Q 58.328125 15.7 58.328125 17.7 
L 58.328125 60.734375 
Q 58.328125 62.734375 60.328125 62.734375 
z
" style="fill:#ffffff;opacity:0.8;stroke:#cccccc;stroke-linejoin:miter;"/>
    </g>
    <g id="line2d_17">
     <path d="M 62.328125 23.798437 
L 82.328125 23.798437 
" style="fill:none;stroke:#008000;stroke-dasharray:5.55,2.4;stroke-dashoffset:0;stroke-width:1.5;"/>
    </g>
    <g id="line2d_18"/>
    <g id="text_16">
     <!-- Predicated -->
     <defs>
      <path d="M 19.671875 64.796875 
L 19.671875 37.40625 
L 32.078125 37.40625 
Q 38.96875 37.40625 42.71875 40.96875 
Q 46.484375 44.53125 46.484375 51.125 
Q 46.484375 57.671875 42.71875 61.234375 
Q 38.96875 64.796875 32.078125 64.796875 
z
M 9.8125 72.90625 
L 32.078125 72.90625 
Q 44.34375 72.90625 50.609375 67.359375 
Q 56.890625 61.8125 56.890625 51.125 
Q 56.890625 40.328125 50.609375 34.8125 
Q 44.34375 29.296875 32.078125 29.296875 
L 19.671875 29.296875 
L 19.671875 0 
L 9.8125 0 
z
" id="DejaVuSans-50"/>
      <path d="M 41.109375 46.296875 
Q 39.59375 47.171875 37.8125 47.578125 
Q 36.03125 48 33.890625 48 
Q 26.265625 48 22.1875 43.046875 
Q 18.109375 38.09375 18.109375 28.8125 
L 18.109375 0 
L 9.078125 0 
L 9.078125 54.6875 
L 18.109375 54.6875 
L 18.109375 46.1875 
Q 20.953125 51.171875 25.484375 53.578125 
Q 30.03125 56 36.53125 56 
Q 37.453125 56 38.578125 55.875 
Q 39.703125 55.765625 41.0625 55.515625 
z
" id="DejaVuSans-72"/>
      <path d="M 45.40625 46.390625 
L 45.40625 75.984375 
L 54.390625 75.984375 
L 54.390625 0 
L 45.40625 0 
L 45.40625 8.203125 
Q 42.578125 3.328125 38.25 0.953125 
Q 33.9375 -1.421875 27.875 -1.421875 
Q 17.96875 -1.421875 11.734375 6.484375 
Q 5.515625 14.40625 5.515625 27.296875 
Q 5.515625 40.1875 11.734375 48.09375 
Q 17.96875 56 27.875 56 
Q 33.9375 56 38.25 53.625 
Q 42.578125 51.265625 45.40625 46.390625 
z
M 14.796875 27.296875 
Q 14.796875 17.390625 18.875 11.75 
Q 22.953125 6.109375 30.078125 6.109375 
Q 37.203125 6.109375 41.296875 11.75 
Q 45.40625 17.390625 45.40625 27.296875 
Q 45.40625 37.203125 41.296875 42.84375 
Q 37.203125 48.484375 30.078125 48.484375 
Q 22.953125 48.484375 18.875 42.84375 
Q 14.796875 37.203125 14.796875 27.296875 
z
" id="DejaVuSans-64"/>
      <path d="M 48.78125 52.59375 
L 48.78125 44.1875 
Q 44.96875 46.296875 41.140625 47.34375 
Q 37.3125 48.390625 33.40625 48.390625 
Q 24.65625 48.390625 19.8125 42.84375 
Q 14.984375 37.3125 14.984375 27.296875 
Q 14.984375 17.28125 19.8125 11.734375 
Q 24.65625 6.203125 33.40625 6.203125 
Q 37.3125 6.203125 41.140625 7.25 
Q 44.96875 8.296875 48.78125 10.40625 
L 48.78125 2.09375 
Q 45.015625 0.34375 40.984375 -0.53125 
Q 36.96875 -1.421875 32.421875 -1.421875 
Q 20.0625 -1.421875 12.78125 6.34375 
Q 5.515625 14.109375 5.515625 27.296875 
Q 5.515625 40.671875 12.859375 48.328125 
Q 20.21875 56 33.015625 56 
Q 37.15625 56 41.109375 55.140625 
Q 45.0625 54.296875 48.78125 52.59375 
z
" id="DejaVuSans-63"/>
      <path d="M 34.28125 27.484375 
Q 23.390625 27.484375 19.1875 25 
Q 14.984375 22.515625 14.984375 16.5 
Q 14.984375 11.71875 18.140625 8.90625 
Q 21.296875 6.109375 26.703125 6.109375 
Q 34.1875 6.109375 38.703125 11.40625 
Q 43.21875 16.703125 43.21875 25.484375 
L 43.21875 27.484375 
z
M 52.203125 31.203125 
L 52.203125 0 
L 43.21875 0 
L 43.21875 8.296875 
Q 40.140625 3.328125 35.546875 0.953125 
Q 30.953125 -1.421875 24.3125 -1.421875 
Q 15.921875 -1.421875 10.953125 3.296875 
Q 6 8.015625 6 15.921875 
Q 6 25.140625 12.171875 29.828125 
Q 18.359375 34.515625 30.609375 34.515625 
L 43.21875 34.515625 
L 43.21875 35.40625 
Q 43.21875 41.609375 39.140625 45 
Q 35.0625 48.390625 27.6875 48.390625 
Q 23 48.390625 18.546875 47.265625 
Q 14.109375 46.140625 10.015625 43.890625 
L 10.015625 52.203125 
Q 14.9375 54.109375 19.578125 55.046875 
Q 24.21875 56 28.609375 56 
Q 40.484375 56 46.34375 49.84375 
Q 52.203125 43.703125 52.203125 31.203125 
z
" id="DejaVuSans-61"/>
      <path d="M 18.3125 70.21875 
L 18.3125 54.6875 
L 36.8125 54.6875 
L 36.8125 47.703125 
L 18.3125 47.703125 
L 18.3125 18.015625 
Q 18.3125 11.328125 20.140625 9.421875 
Q 21.96875 7.515625 27.59375 7.515625 
L 36.8125 7.515625 
L 36.8125 0 
L 27.59375 0 
Q 17.1875 0 13.234375 3.875 
Q 9.28125 7.765625 9.28125 18.015625 
L 9.28125 47.703125 
L 2.6875 47.703125 
L 2.6875 54.6875 
L 9.28125 54.6875 
L 9.28125 70.21875 
z
" id="DejaVuSans-74"/>
     </defs>
     <g transform="translate(90.328125 27.298437)scale(0.1 -0.1)">
      <use xlink:href="#DejaVuSans-50"/>
      <use x="60.287109" xlink:href="#DejaVuSans-72"/>
      <use x="101.369141" xlink:href="#DejaVuSans-65"/>
      <use x="162.892578" xlink:href="#DejaVuSans-64"/>
      <use x="226.369141" xlink:href="#DejaVuSans-69"/>
      <use x="254.152344" xlink:href="#DejaVuSans-63"/>
      <use x="309.132812" xlink:href="#DejaVuSans-61"/>
      <use x="370.412109" xlink:href="#DejaVuSans-74"/>
      <use x="409.621094" xlink:href="#DejaVuSans-65"/>
      <use x="471.144531" xlink:href="#DejaVuSans-64"/>
     </g>
    </g>
    <g id="line2d_19">
     <path d="M 62.328125 38.476562 
L 82.328125 38.476562 
" style="fill:none;stroke:#ff7f0e;stroke-linecap:square;stroke-width:1.5;"/>
    </g>
    <g id="line2d_20"/>
    <g id="text_17">
     <!-- Real Data -->
     <defs>
      <path d="M 9.421875 75.984375 
L 18.40625 75.984375 
L 18.40625 0 
L 9.421875 0 
z
" id="DejaVuSans-6c"/>
      <path id="DejaVuSans-20"/>
      <path d="M 19.671875 64.796875 
L 19.671875 8.109375 
L 31.59375 8.109375 
Q 46.6875 8.109375 53.6875 14.9375 
Q 60.6875 21.78125 60.6875 36.53125 
Q 60.6875 51.171875 53.6875 57.984375 
Q 46.6875 64.796875 31.59375 64.796875 
z
M 9.8125 72.90625 
L 30.078125 72.90625 
Q 51.265625 72.90625 61.171875 64.09375 
Q 71.09375 55.28125 71.09375 36.53125 
Q 71.09375 17.671875 61.125 8.828125 
Q 51.171875 0 30.078125 0 
L 9.8125 0 
z
" id="DejaVuSans-44"/>
     </defs>
     <g transform="translate(90.328125 41.976562)scale(0.1 -0.1)">
      <use xlink:href="#DejaVuSans-52"/>
      <use x="69.419922" xlink:href="#DejaVuSans-65"/>
      <use x="130.943359" xlink:href="#DejaVuSans-61"/>
      <use x="192.222656" xlink:href="#DejaVuSans-6c"/>
      <use x="220.005859" xlink:href="#DejaVuSans-20"/>
      <use x="251.792969" xlink:href="#DejaVuSans-44"/>
      <use x="328.794922" xlink:href="#DejaVuSans-61"/>
      <use x="390.074219" xlink:href="#DejaVuSans-74"/>
      <use x="429.283203" xlink:href="#DejaVuSans-61"/>
     </g>
    </g>
    <g id="line2d_21"/>
    <g id="line2d_22">
     <g>
      <use style="fill:#008000;stroke:#008000;" x="72.328125" xlink:href="#md15bc568a9" y="53.154688"/>
     </g>
    </g>
    <g id="text_18">
     <!-- Start Point for Forecast -->
     <defs>
      <path d="M 53.515625 70.515625 
L 53.515625 60.890625 
Q 47.90625 63.578125 42.921875 64.890625 
Q 37.9375 66.21875 33.296875 66.21875 
Q 25.25 66.21875 20.875 63.09375 
Q 16.5 59.96875 16.5 54.203125 
Q 16.5 49.359375 19.40625 46.890625 
Q 22.3125 44.4375 30.421875 42.921875 
L 36.375 41.703125 
Q 47.40625 39.59375 52.65625 34.296875 
Q 57.90625 29 57.90625 20.125 
Q 57.90625 9.515625 50.796875 4.046875 
Q 43.703125 -1.421875 29.984375 -1.421875 
Q 24.8125 -1.421875 18.96875 -0.25 
Q 13.140625 0.921875 6.890625 3.21875 
L 6.890625 13.375 
Q 12.890625 10.015625 18.65625 8.296875 
Q 24.421875 6.59375 29.984375 6.59375 
Q 38.421875 6.59375 43.015625 9.90625 
Q 47.609375 13.234375 47.609375 19.390625 
Q 47.609375 24.75 44.3125 27.78125 
Q 41.015625 30.8125 33.5 32.328125 
L 27.484375 33.5 
Q 16.453125 35.6875 11.515625 40.375 
Q 6.59375 45.0625 6.59375 53.421875 
Q 6.59375 63.09375 13.40625 68.65625 
Q 20.21875 74.21875 32.171875 74.21875 
Q 37.3125 74.21875 42.625 73.28125 
Q 47.953125 72.359375 53.515625 70.515625 
z
" id="DejaVuSans-53"/>
      <path d="M 30.609375 48.390625 
Q 23.390625 48.390625 19.1875 42.75 
Q 14.984375 37.109375 14.984375 27.296875 
Q 14.984375 17.484375 19.15625 11.84375 
Q 23.34375 6.203125 30.609375 6.203125 
Q 37.796875 6.203125 41.984375 11.859375 
Q 46.1875 17.53125 46.1875 27.296875 
Q 46.1875 37.015625 41.984375 42.703125 
Q 37.796875 48.390625 30.609375 48.390625 
z
M 30.609375 56 
Q 42.328125 56 49.015625 48.375 
Q 55.71875 40.765625 55.71875 27.296875 
Q 55.71875 13.875 49.015625 6.21875 
Q 42.328125 -1.421875 30.609375 -1.421875 
Q 18.84375 -1.421875 12.171875 6.21875 
Q 5.515625 13.875 5.515625 27.296875 
Q 5.515625 40.765625 12.171875 48.375 
Q 18.84375 56 30.609375 56 
z
" id="DejaVuSans-6f"/>
      <path d="M 54.890625 33.015625 
L 54.890625 0 
L 45.90625 0 
L 45.90625 32.71875 
Q 45.90625 40.484375 42.875 44.328125 
Q 39.84375 48.1875 33.796875 48.1875 
Q 26.515625 48.1875 22.3125 43.546875 
Q 18.109375 38.921875 18.109375 30.90625 
L 18.109375 0 
L 9.078125 0 
L 9.078125 54.6875 
L 18.109375 54.6875 
L 18.109375 46.1875 
Q 21.34375 51.125 25.703125 53.5625 
Q 30.078125 56 35.796875 56 
Q 45.21875 56 50.046875 50.171875 
Q 54.890625 44.34375 54.890625 33.015625 
z
" id="DejaVuSans-6e"/>
      <path d="M 9.8125 72.90625 
L 51.703125 72.90625 
L 51.703125 64.59375 
L 19.671875 64.59375 
L 19.671875 43.109375 
L 48.578125 43.109375 
L 48.578125 34.8125 
L 19.671875 34.8125 
L 19.671875 0 
L 9.8125 0 
z
" id="DejaVuSans-46"/>
     </defs>
     <g transform="translate(90.328125 56.654688)scale(0.1 -0.1)">
      <use xlink:href="#DejaVuSans-53"/>
      <use x="63.476562" xlink:href="#DejaVuSans-74"/>
      <use x="102.685547" xlink:href="#DejaVuSans-61"/>
      <use x="163.964844" xlink:href="#DejaVuSans-72"/>
      <use x="205.078125" xlink:href="#DejaVuSans-74"/>
      <use x="244.287109" xlink:href="#DejaVuSans-20"/>
      <use x="276.074219" xlink:href="#DejaVuSans-50"/>
      <use x="336.330078" xlink:href="#DejaVuSans-6f"/>
      <use x="397.511719" xlink:href="#DejaVuSans-69"/>
      <use x="425.294922" xlink:href="#DejaVuSans-6e"/>
      <use x="488.673828" xlink:href="#DejaVuSans-74"/>
      <use x="527.882812" xlink:href="#DejaVuSans-20"/>
      <use x="559.669922" xlink:href="#DejaVuSans-66"/>
      <use x="594.875" xlink:href="#DejaVuSans-6f"/>
      <use x="656.056641" xlink:href="#DejaVuSans-72"/>
      <use x="697.169922" xlink:href="#DejaVuSans-20"/>
      <use x="728.957031" xlink:href="#DejaVuSans-46"/>
      <use x="786.429688" xlink:href="#DejaVuSans-6f"/>
      <use x="847.611328" xlink:href="#DejaVuSans-72"/>
      <use x="888.693359" xlink:href="#DejaVuSans-65"/>
      <use x="950.216797" xlink:href="#DejaVuSans-63"/>
      <use x="1005.197266" xlink:href="#DejaVuSans-61"/>
      <use x="1066.476562" xlink:href="#DejaVuSans-73"/>
      <use x="1118.576172" xlink:href="#DejaVuSans-74"/>
     </g>
    </g>
   </g>
  </g>
  <g id="axes_2">
   <g id="patch_8">
    <path d="M 53.328125 645.74 
L 1170.768125 645.74 
L 1170.768125 516.14 
L 53.328125 516.14 
z
" style="fill:none;"/>
   </g>
   <g id="matplotlib.axis_3">
    <g id="xtick_6">
     <g id="line2d_23">
      <g>
       <use style="stroke:#000000;stroke-width:0.8;" x="104.120852" xlink:href="#m9679e21cb4" y="645.74"/>
      </g>
     </g>
     <g id="text_19">
      <!-- 0 -->
      <g transform="translate(100.939602 660.338437)scale(0.1 -0.1)">
       <use xlink:href="#DejaVuSans-30"/>
      </g>
     </g>
    </g>
    <g id="xtick_7">
     <g id="line2d_24">
      <g>
       <use style="stroke:#000000;stroke-width:0.8;" x="228.612831" xlink:href="#m9679e21cb4" y="645.74"/>
      </g>
     </g>
     <g id="text_20">
      <!-- 25 -->
      <g transform="translate(222.250331 660.338437)scale(0.1 -0.1)">
       <use xlink:href="#DejaVuSans-32"/>
       <use x="63.623047" xlink:href="#DejaVuSans-35"/>
      </g>
     </g>
    </g>
    <g id="xtick_8">
     <g id="line2d_25">
      <g>
       <use style="stroke:#000000;stroke-width:0.8;" x="353.104809" xlink:href="#m9679e21cb4" y="645.74"/>
      </g>
     </g>
     <g id="text_21">
      <!-- 50 -->
      <g transform="translate(346.742309 660.338437)scale(0.1 -0.1)">
       <use xlink:href="#DejaVuSans-35"/>
       <use x="63.623047" xlink:href="#DejaVuSans-30"/>
      </g>
     </g>
    </g>
    <g id="xtick_9">
     <g id="line2d_26">
      <g>
       <use style="stroke:#000000;stroke-width:0.8;" x="477.596788" xlink:href="#m9679e21cb4" y="645.74"/>
      </g>
     </g>
     <g id="text_22">
      <!-- 75 -->
      <g transform="translate(471.234288 660.338437)scale(0.1 -0.1)">
       <use xlink:href="#DejaVuSans-37"/>
       <use x="63.623047" xlink:href="#DejaVuSans-35"/>
      </g>
     </g>
    </g>
    <g id="xtick_10">
     <g id="line2d_27">
      <g>
       <use style="stroke:#000000;stroke-width:0.8;" x="602.088767" xlink:href="#m9679e21cb4" y="645.74"/>
      </g>
     </g>
     <g id="text_23">
      <!-- 100 -->
      <g transform="translate(592.545017 660.338437)scale(0.1 -0.1)">
       <use xlink:href="#DejaVuSans-31"/>
       <use x="63.623047" xlink:href="#DejaVuSans-30"/>
       <use x="127.246094" xlink:href="#DejaVuSans-30"/>
      </g>
     </g>
    </g>
    <g id="xtick_11">
     <g id="line2d_28">
      <g>
       <use style="stroke:#000000;stroke-width:0.8;" x="726.580745" xlink:href="#m9679e21cb4" y="645.74"/>
      </g>
     </g>
     <g id="text_24">
      <!-- 125 -->
      <g transform="translate(717.036995 660.338437)scale(0.1 -0.1)">
       <use xlink:href="#DejaVuSans-31"/>
       <use x="63.623047" xlink:href="#DejaVuSans-32"/>
       <use x="127.246094" xlink:href="#DejaVuSans-35"/>
      </g>
     </g>
    </g>
    <g id="xtick_12">
     <g id="line2d_29">
      <g>
       <use style="stroke:#000000;stroke-width:0.8;" x="851.072724" xlink:href="#m9679e21cb4" y="645.74"/>
      </g>
     </g>
     <g id="text_25">
      <!-- 150 -->
      <g transform="translate(841.528974 660.338437)scale(0.1 -0.1)">
       <use xlink:href="#DejaVuSans-31"/>
       <use x="63.623047" xlink:href="#DejaVuSans-35"/>
       <use x="127.246094" xlink:href="#DejaVuSans-30"/>
      </g>
     </g>
    </g>
    <g id="xtick_13">
     <g id="line2d_30">
      <g>
       <use style="stroke:#000000;stroke-width:0.8;" x="975.564703" xlink:href="#m9679e21cb4" y="645.74"/>
      </g>
     </g>
     <g id="text_26">
      <!-- 175 -->
      <g transform="translate(966.020953 660.338437)scale(0.1 -0.1)">
       <use xlink:href="#DejaVuSans-31"/>
       <use x="63.623047" xlink:href="#DejaVuSans-37"/>
       <use x="127.246094" xlink:href="#DejaVuSans-35"/>
      </g>
     </g>
    </g>
    <g id="xtick_14">
     <g id="line2d_31">
      <g>
       <use style="stroke:#000000;stroke-width:0.8;" x="1100.056681" xlink:href="#m9679e21cb4" y="645.74"/>
      </g>
     </g>
     <g id="text_27">
      <!-- 200 -->
      <g transform="translate(1090.512931 660.338437)scale(0.1 -0.1)">
       <use xlink:href="#DejaVuSans-32"/>
       <use x="63.623047" xlink:href="#DejaVuSans-30"/>
       <use x="127.246094" xlink:href="#DejaVuSans-30"/>
      </g>
     </g>
    </g>
   </g>
   <g id="matplotlib.axis_4">
    <g id="ytick_9">
     <g id="line2d_32">
      <g>
       <use style="stroke:#000000;stroke-width:0.8;" x="53.328125" xlink:href="#m3d7a72d46d" y="629.940785"/>
      </g>
     </g>
     <g id="text_28">
      <!-- −10 -->
      <defs>
       <path d="M 10.59375 35.5 
L 73.1875 35.5 
L 73.1875 27.203125 
L 10.59375 27.203125 
z
" id="DejaVuSans-2212"/>
      </defs>
      <g transform="translate(25.223437 633.740004)scale(0.1 -0.1)">
       <use xlink:href="#DejaVuSans-2212"/>
       <use x="83.789062" xlink:href="#DejaVuSans-31"/>
       <use x="147.412109" xlink:href="#DejaVuSans-30"/>
      </g>
     </g>
    </g>
    <g id="ytick_10">
     <g id="line2d_33">
      <g>
       <use style="stroke:#000000;stroke-width:0.8;" x="53.328125" xlink:href="#m3d7a72d46d" y="602.991142"/>
      </g>
     </g>
     <g id="text_29">
      <!-- 0 -->
      <g transform="translate(39.965625 606.79036)scale(0.1 -0.1)">
       <use xlink:href="#DejaVuSans-30"/>
      </g>
     </g>
    </g>
    <g id="ytick_11">
     <g id="line2d_34">
      <g>
       <use style="stroke:#000000;stroke-width:0.8;" x="53.328125" xlink:href="#m3d7a72d46d" y="576.041498"/>
      </g>
     </g>
     <g id="text_30">
      <!-- 10 -->
      <g transform="translate(33.603125 579.840717)scale(0.1 -0.1)">
       <use xlink:href="#DejaVuSans-31"/>
       <use x="63.623047" xlink:href="#DejaVuSans-30"/>
      </g>
     </g>
    </g>
    <g id="ytick_12">
     <g id="line2d_35">
      <g>
       <use style="stroke:#000000;stroke-width:0.8;" x="53.328125" xlink:href="#m3d7a72d46d" y="549.091855"/>
      </g>
     </g>
     <g id="text_31">
      <!-- 20 -->
      <g transform="translate(33.603125 552.891073)scale(0.1 -0.1)">
       <use xlink:href="#DejaVuSans-32"/>
       <use x="63.623047" xlink:href="#DejaVuSans-30"/>
      </g>
     </g>
    </g>
    <g id="ytick_13">
     <g id="line2d_36">
      <g>
       <use style="stroke:#000000;stroke-width:0.8;" x="53.328125" xlink:href="#m3d7a72d46d" y="522.142211"/>
      </g>
     </g>
     <g id="text_32">
      <!-- 30 -->
      <g transform="translate(33.603125 525.94143)scale(0.1 -0.1)">
       <use xlink:href="#DejaVuSans-33"/>
       <use x="63.623047" xlink:href="#DejaVuSans-30"/>
      </g>
     </g>
    </g>
    <g id="text_33">
     <!-- Temperature -->
     <defs>
      <path d="M 18.109375 8.203125 
L 18.109375 -20.796875 
L 9.078125 -20.796875 
L 9.078125 54.6875 
L 18.109375 54.6875 
L 18.109375 46.390625 
Q 20.953125 51.265625 25.265625 53.625 
Q 29.59375 56 35.59375 56 
Q 45.5625 56 51.78125 48.09375 
Q 58.015625 40.1875 58.015625 27.296875 
Q 58.015625 14.40625 51.78125 6.484375 
Q 45.5625 -1.421875 35.59375 -1.421875 
Q 29.59375 -1.421875 25.265625 0.953125 
Q 20.953125 3.328125 18.109375 8.203125 
z
M 48.6875 27.296875 
Q 48.6875 37.203125 44.609375 42.84375 
Q 40.53125 48.484375 33.40625 48.484375 
Q 26.265625 48.484375 22.1875 42.84375 
Q 18.109375 37.203125 18.109375 27.296875 
Q 18.109375 17.390625 22.1875 11.75 
Q 26.265625 6.109375 33.40625 6.109375 
Q 40.53125 6.109375 44.609375 11.75 
Q 48.6875 17.390625 48.6875 27.296875 
z
" id="DejaVuSans-70"/>
     </defs>
     <g style="fill:#0000ff;" transform="translate(19.14375 613.557187)rotate(-90)scale(0.1 -0.1)">
      <use xlink:href="#DejaVuSans-54"/>
      <use x="60.818359" xlink:href="#DejaVuSans-65"/>
      <use x="122.341797" xlink:href="#DejaVuSans-6d"/>
      <use x="219.753906" xlink:href="#DejaVuSans-70"/>
      <use x="283.230469" xlink:href="#DejaVuSans-65"/>
      <use x="344.753906" xlink:href="#DejaVuSans-72"/>
      <use x="385.867188" xlink:href="#DejaVuSans-61"/>
      <use x="447.146484" xlink:href="#DejaVuSans-74"/>
      <use x="486.355469" xlink:href="#DejaVuSans-75"/>
      <use x="549.734375" xlink:href="#DejaVuSans-72"/>
      <use x="590.816406" xlink:href="#DejaVuSans-65"/>
     </g>
    </g>
   </g>
   <g id="line2d_37">
    <path clip-path="url(#p78586cf84f)" d="M 104.120852 524.719406 
L 109.100531 527.112264 
L 114.080211 534.582975 
L 124.039569 569.854668 
L 129.019248 585.397498 
L 133.998927 595.474266 
L 138.978606 588.106907 
L 143.958285 567.68657 
L 153.917644 535.449676 
L 158.897323 528.021815 
L 163.877002 522.156764 
L 168.856681 526.756799 
L 173.83636 535.94528 
L 178.816039 554.757209 
L 183.795719 575.813235 
L 188.775398 585.93102 
L 193.755077 593.49751 
L 198.734756 584.68592 
L 203.714435 566.822834 
L 208.694114 551.928844 
L 213.673793 536.678849 
L 218.653473 528.22232 
L 223.633152 522.030909 
L 228.612831 526.577044 
L 233.59251 536.029632 
L 238.572189 550.268476 
L 243.551868 568.195918 
L 248.531547 590.527524 
L 253.511227 585.811094 
L 258.490906 575.887346 
L 268.450264 550.259313 
L 278.409622 528.319339 
L 283.389301 524.143222 
L 288.368981 526.827137 
L 293.34866 536.248194 
L 298.328339 553.522915 
L 303.308018 572.405722 
L 308.287697 590.241966 
L 313.267376 590.257462 
L 318.247055 580.043089 
L 323.226735 568.978535 
L 328.206414 550.563036 
L 333.186093 538.564785 
L 338.165772 529.777315 
L 343.145451 525.234144 
L 348.12513 526.616121 
L 353.104809 535.493064 
L 358.084489 551.713246 
L 363.064168 571.494015 
L 368.043847 586.19518 
L 373.023526 591.88708 
L 378.003205 578.066952 
L 382.982884 567.372067 
L 387.962564 546.926451 
L 392.942243 538.130087 
L 397.921922 528.97152 
L 402.901601 524.889458 
L 407.88128 527.005005 
L 412.860959 535.578764 
L 417.840638 550.955422 
L 422.820318 567.75583 
L 427.799997 585.714372 
L 432.779676 593.874616 
L 437.759355 590.951361 
L 442.739034 570.663158 
L 447.718713 548.331336 
L 452.698392 538.828352 
L 457.678072 526.770812 
L 462.657751 523.553025 
L 467.63743 527.714858 
L 472.617109 533.420637 
L 477.596788 551.083433 
L 482.576467 566.848436 
L 487.556146 590.717897 
L 492.535826 590.403879 
L 497.515505 583.578559 
L 502.495184 566.523153 
L 507.474863 550.19652 
L 512.454542 537.317555 
L 517.434221 528.165187 
L 522.4139 523.006756 
L 527.39358 523.160369 
L 532.373259 535.669585 
L 537.352938 546.058672 
L 542.332617 567.095564 
L 547.312296 585.571754 
L 552.291975 589.457354 
L 557.271654 573.31123 
L 562.251334 567.862551 
L 567.231013 551.365866 
L 572.210692 533.814371 
L 577.190371 527.296061 
L 582.17005 523.86052 
L 587.149729 524.322707 
L 592.129408 535.403592 
L 597.109088 551.472317 
L 602.088767 568.020476 
L 607.068446 583.935965 
L 612.048125 596.252275 
L 617.027804 588.704866 
L 622.007483 562.292329 
L 626.987162 548.669554 
L 631.966842 536.827611 
L 636.946521 529.296263 
L 641.9262 523.719304 
L 646.905879 526.706672 
L 651.885558 534.652505 
L 656.865237 549.341408 
L 661.844916 569.320257 
L 666.824596 583.856059 
L 671.804275 590.034157 
L 676.783954 576.989721 
L 681.763633 567.476632 
L 686.743312 548.440212 
L 691.722991 536.417707 
L 696.70267 527.732645 
L 701.68235 524.061565 
L 706.662029 525.440578 
L 711.641708 534.294883 
L 716.621387 547.643581 
L 721.601066 575.634019 
L 726.580745 588.946173 
L 731.560424 589.671226 
L 736.540104 583.216221 
L 741.519783 570.695497 
L 746.499462 557.299099 
L 751.479141 538.34245 
L 756.45882 528.423095 
L 761.438499 522.23357 
L 766.418178 524.649606 
L 771.397858 535.207668 
L 776.377537 552.622797 
L 781.357216 567.699775 
L 786.336895 585.781288 
L 791.316574 601.000132 
L 796.296253 580.92383 
L 801.275932 572.60461 
L 806.255612 549.301253 
L 811.235291 538.207433 
L 816.21497 527.74073 
L 821.194649 523.356293 
L 826.174328 524.571991 
L 831.154007 537.607534 
L 836.133686 550.975635 
L 841.113366 567.130329 
L 846.093045 589.265931 
L 851.072724 596.908742 
L 856.052403 588.175279 
L 861.032082 570.715171 
L 866.011761 548.128135 
L 870.991441 535.557474 
L 875.97112 529.22296 
L 880.950799 523.838422 
L 885.930478 525.348949 
L 890.910157 537.225657 
L 895.889836 550.843042 
L 900.869515 573.614413 
L 905.849195 592.155552 
L 910.828874 592.179214 
L 915.808553 582.967449 
L 920.788232 563.64035 
L 925.767911 552.863727 
L 930.74759 536.773712 
L 935.727269 528.21181 
L 940.706949 523.747062 
L 945.686628 523.48592 
L 955.645986 550.445805 
L 960.625665 569.487075 
L 965.605344 586.250858 
L 970.585023 585.366021 
L 975.564703 586.558947 
L 980.544382 564.656621 
L 985.524061 548.598407 
L 990.50374 538.300409 
L 995.483419 529.352588 
L 1000.463098 523.208339 
L 1005.442777 527.543189 
L 1010.422457 535.921294 
L 1015.402136 548.73585 
L 1020.381815 569.24911 
L 1025.361494 588.609707 
L 1030.341173 586.734658 
L 1035.320852 579.917126 
L 1040.300531 565.485592 
L 1045.280211 550.498626 
L 1050.25989 537.879455 
L 1055.239569 529.732578 
L 1060.219248 525.189946 
L 1065.198927 526.647653 
L 1070.178606 537.151276 
L 1075.158285 549.980654 
L 1080.137965 571.622026 
L 1085.117644 586.870619 
L 1090.097323 595.071423 
L 1095.077002 583.483373 
L 1100.056681 565.557009 
L 1105.03636 548.957376 
L 1114.995719 528.978258 
L 1119.975398 523.42744 
L 1119.975398 523.42744 
" style="fill:none;stroke:#ff0000;stroke-linecap:square;stroke-width:1.5;"/>
   </g>
   <g id="line2d_38">
    <path clip-path="url(#p78586cf84f)" d="M 104.120852 537.78594 
L 109.100531 540.825051 
L 114.080211 548.774927 
L 124.039569 583.91074 
L 129.019248 600.656634 
L 133.998927 608.764132 
L 138.978606 602.31484 
L 143.958285 582.691592 
L 148.937965 566.543096 
L 153.917644 551.189076 
L 158.897323 542.194363 
L 163.877002 535.699229 
L 168.856681 539.933018 
L 173.83636 550.419394 
L 178.816039 567.792212 
L 183.795719 589.81662 
L 188.775398 600.10311 
L 193.755077 606.963088 
L 198.734756 599.271606 
L 203.714435 582.521702 
L 213.673793 551.670396 
L 218.653473 542.305934 
L 223.633152 535.82724 
L 228.612831 540.470394 
L 233.59251 550.024582 
L 238.572189 564.283638 
L 243.551868 583.815985 
L 248.531547 603.835539 
L 253.511227 600.808051 
L 258.490906 591.495906 
L 263.470585 578.506178 
L 268.450264 565.173785 
L 278.409622 541.91247 
L 283.389301 537.36337 
L 288.368981 540.713749 
L 293.34866 551.223302 
L 298.328339 568.297249 
L 303.308018 586.910747 
L 308.287697 602.748653 
L 313.267376 605.438201 
L 318.247055 594.622684 
L 323.226735 583.289416 
L 328.206414 565.388573 
L 333.186093 552.983114 
L 338.165772 543.73184 
L 343.145451 538.136286 
L 348.12513 539.820908 
L 353.104809 549.357039 
L 358.084489 566.392448 
L 363.064168 585.17864 
L 368.043847 600.654575 
L 373.023526 605.728983 
L 382.982884 582.216659 
L 387.962564 563.091386 
L 397.921922 543.082084 
L 402.901601 538.516275 
L 407.88128 540.545314 
L 412.860959 550.036979 
L 417.840638 566.684043 
L 422.820318 582.583389 
L 427.799997 599.612573 
L 432.779676 606.808936 
L 437.759355 603.258526 
L 442.739034 584.93488 
L 447.718713 563.631996 
L 452.698392 552.605819 
L 457.678072 540.507046 
L 462.657751 536.278108 
L 467.63743 540.161821 
L 472.617109 547.731706 
L 477.596788 565.209897 
L 482.576467 581.157672 
L 487.556146 604.686778 
L 492.535826 604.106744 
L 497.515505 597.374162 
L 502.495184 582.046202 
L 507.474863 565.645404 
L 512.454542 552.381059 
L 517.434221 542.100578 
L 522.4139 536.173543 
L 527.39358 537.537195 
L 532.373259 550.515065 
L 537.352938 560.906848 
L 542.332617 581.295466 
L 547.312296 599.72506 
L 552.291975 604.267652 
L 557.271654 589.174491 
L 562.251334 581.723911 
L 567.231013 566.565464 
L 572.210692 549.690945 
L 577.190371 541.26999 
L 582.17005 537.228352 
L 587.149729 538.038189 
L 592.129408 549.601472 
L 597.109088 565.607944 
L 602.088767 583.672074 
L 607.068446 597.192198 
L 612.048125 609.060821 
L 617.027804 603.512819 
L 622.007483 577.8105 
L 626.987162 563.692093 
L 631.966842 551.873058 
L 636.946521 543.173443 
L 641.9262 537.120284 
L 646.905879 540.291718 
L 651.885558 548.866286 
L 656.865237 563.434994 
L 661.844916 583.86277 
L 666.824596 599.022483 
L 671.804275 605.199083 
L 676.783954 592.134478 
L 681.763633 582.328041 
L 686.743312 563.570281 
L 691.722991 551.696268 
L 696.70267 542.125372 
L 701.68235 537.077973 
L 706.662029 539.406153 
L 711.641708 548.439673 
L 716.621387 562.822967 
L 721.601066 589.554427 
L 726.580745 602.258979 
L 731.560424 604.004383 
L 736.540104 597.414048 
L 741.519783 585.284202 
L 746.499462 571.63577 
L 751.479141 552.431185 
L 756.45882 542.24422 
L 761.438499 535.179371 
L 766.418178 538.277771 
L 771.397858 548.65527 
L 776.377537 566.675419 
L 781.357216 582.833509 
L 786.336895 600.789472 
L 791.316574 613.976517 
L 796.296253 596.278686 
L 801.275932 587.31033 
L 806.255612 565.277002 
L 816.21497 541.572365 
L 821.194649 536.765627 
L 826.174328 538.709235 
L 831.154007 551.362901 
L 836.133686 565.245471 
L 841.113366 580.663551 
L 846.093045 602.464209 
L 851.072724 609.837106 
L 856.052403 601.930013 
L 861.032082 585.043892 
L 866.011761 563.49078 
L 870.991441 550.444727 
L 875.97112 542.438796 
L 880.950799 536.694749 
L 885.930478 539.170882 
L 890.910157 551.317087 
L 895.889836 565.785003 
L 900.869515 586.935245 
L 905.849195 605.066841 
L 910.828874 607.594895 
L 915.808553 597.594152 
L 920.788232 580.139703 
L 925.767911 568.362197 
L 930.74759 551.428658 
L 935.727269 542.250688 
L 940.706949 537.019492 
L 945.686628 537.926348 
L 950.666307 551.222493 
L 955.645986 566.022429 
L 965.605344 602.098416 
L 970.585023 602.611682 
L 975.564703 600.774159 
L 980.544382 580.311076 
L 985.524061 563.717696 
L 990.50374 552.886903 
L 995.483419 542.954073 
L 1000.463098 537.3631 
L 1005.442777 541.732985 
L 1010.422457 550.296234 
L 1015.402136 564.558524 
L 1020.381815 583.356871 
L 1025.361494 603.520769 
L 1030.341173 602.108247 
L 1035.320852 595.255731 
L 1045.280211 565.510116 
L 1050.25989 552.046075 
L 1055.239569 543.140026 
L 1060.219248 539.040446 
L 1065.198927 540.559867 
L 1070.178606 550.75896 
L 1075.158285 565.372134 
L 1080.137965 583.893061 
L 1085.117644 599.473189 
L 1090.097323 608.025658 
L 1095.077002 598.928267 
L 1100.056681 580.375216 
L 1105.03636 563.043146 
L 1110.016039 553.08148 
L 1114.995719 542.489731 
L 1119.975398 536.549491 
L 1119.975398 536.549491 
" style="fill:none;stroke:#008000;stroke-linecap:square;stroke-width:1.5;"/>
   </g>
   <g id="line2d_39">
    <path clip-path="url(#p78586cf84f)" d="M 104.120852 549.868274 
L 109.100531 553.511596 
L 114.080211 562.337335 
L 119.05989 579.635503 
L 129.019248 615.388193 
L 133.998927 621.570387 
L 138.978606 616.167011 
L 143.958285 598.075688 
L 148.937965 582.200327 
L 153.917644 567.343231 
L 158.897323 556.237822 
L 163.877002 549.059785 
L 168.856681 552.227446 
L 173.83636 564.380118 
L 178.816039 580.544972 
L 183.795719 603.465655 
L 188.775398 613.647758 
L 193.755077 620.248319 
L 198.734756 613.88796 
L 203.714435 598.675722 
L 208.694114 582.576248 
L 213.673793 567.376649 
L 218.653473 556.109003 
L 223.633152 549.57614 
L 228.612831 553.22054 
L 233.59251 563.727667 
L 238.572189 578.075927 
L 243.551868 598.793681 
L 248.531547 616.788038 
L 253.511227 615.263335 
L 258.490906 606.834457 
L 263.470585 594.155836 
L 268.450264 580.390605 
L 278.409622 555.376781 
L 283.389301 549.857763 
L 288.368981 553.898323 
L 293.34866 565.709813 
L 298.328339 582.635186 
L 303.308018 600.921239 
L 308.287697 614.802065 
L 313.267376 620.214928 
L 318.247055 609.129677 
L 323.226735 597.736716 
L 328.206414 580.770837 
L 333.186093 567.184498 
L 338.165772 557.389919 
L 343.145451 550.68889 
L 348.12513 552.287004 
L 353.104809 562.689297 
L 363.064168 598.511087 
L 368.043847 614.685616 
L 373.023526 619.201325 
L 378.003205 609.705618 
L 382.982884 597.173495 
L 387.962564 579.688863 
L 397.921922 557.128508 
L 402.901601 551.23489 
L 407.88128 553.256383 
L 412.860959 564.014142 
L 417.840638 582.006155 
L 422.820318 596.670534 
L 427.799997 612.747344 
L 432.779676 619.488959 
L 437.759355 615.80912 
L 442.739034 599.618043 
L 447.718713 579.087535 
L 457.678072 553.5469 
L 462.657751 547.888014 
L 467.63743 551.870902 
L 472.617109 561.330227 
L 477.596788 578.750611 
L 482.576467 594.626996 
L 487.556146 617.947601 
L 492.535826 617.354493 
L 497.515505 610.914741 
L 502.495184 597.908493 
L 507.474863 581.494624 
L 512.454542 567.738852 
L 517.434221 555.585102 
L 522.4139 548.624548 
L 527.39358 550.554412 
L 532.373259 564.873027 
L 537.352938 574.998547 
L 542.332617 594.865177 
L 547.312296 613.090871 
L 552.291975 618.186159 
L 557.271654 604.711507 
L 562.251334 595.735785 
L 567.231013 581.917113 
L 572.210692 565.835399 
L 577.190371 554.786584 
L 582.17005 549.752121 
L 587.149729 550.704521 
L 592.129408 562.929688 
L 597.109088 579.058888 
L 602.088767 598.437218 
L 607.068446 609.656651 
L 612.048125 621.461969 
L 617.027804 618.119836 
L 622.007483 593.220414 
L 626.987162 579.112087 
L 631.966842 566.951383 
L 636.946521 556.405718 
L 641.9262 549.576679 
L 646.905879 552.778835 
L 651.885558 562.20609 
L 656.865237 577.102317 
L 661.844916 597.683679 
L 666.824596 613.76763 
L 671.804275 619.990438 
L 676.783954 606.17225 
L 681.763633 597.438545 
L 686.743312 579.137257 
L 691.722991 567.174796 
L 696.70267 556.038395 
L 701.68235 549.569941 
L 706.662029 552.28916 
L 711.641708 561.843348 
L 716.621387 577.269809 
L 721.601066 603.069162 
L 726.580745 615.144892 
L 731.560424 618.032977 
L 736.540104 611.430881 
L 741.519783 600.138252 
L 746.499462 586.116541 
L 751.479141 566.682156 
L 756.45882 555.338243 
L 761.438499 547.358184 
L 766.418178 551.088284 
L 771.397858 561.234286 
L 776.377537 579.89244 
L 781.357216 597.237204 
L 786.336895 615.392397 
L 791.316574 626.374269 
L 796.296253 611.274573 
L 801.275932 602.112198 
L 806.255612 581.631285 
L 811.235291 568.674813 
L 816.21497 554.881446 
L 821.194649 549.460256 
L 826.174328 551.736154 
L 831.154007 564.513249 
L 841.113366 593.376587 
L 846.093045 615.310955 
L 851.072724 622.089384 
L 856.052403 615.541375 
L 861.032082 599.318794 
L 866.011761 579.040347 
L 870.991441 565.202082 
L 875.97112 554.949899 
L 880.950799 548.346697 
L 885.930478 552.012657 
L 890.910157 564.527802 
L 895.889836 580.074324 
L 900.869515 599.939256 
L 905.849195 617.546833 
L 910.828874 621.685921 
L 915.808553 611.888701 
L 920.788232 596.572814 
L 925.767911 584.154392 
L 930.74759 566.248537 
L 935.727269 555.634959 
L 940.706949 549.01397 
L 945.686628 551.050016 
L 950.666307 564.73774 
L 955.645986 580.608897 
L 960.625665 597.71141 
L 965.605344 616.021537 
L 970.585023 618.574638 
L 975.564703 614.391946 
L 980.544382 596.070554 
L 985.524061 579.218969 
L 990.50374 568.489669 
L 995.483419 555.854598 
L 1000.463098 550.339084 
L 1005.442777 553.972166 
L 1010.422457 563.256587 
L 1015.402136 579.098881 
L 1020.381815 596.30286 
L 1025.361494 617.262864 
L 1030.341173 616.331296 
L 1035.320852 610.049873 
L 1050.25989 567.127095 
L 1055.239569 556.016026 
L 1060.219248 552.391838 
L 1065.198927 553.137805 
L 1070.178606 563.615826 
L 1075.158285 579.85719 
L 1080.137965 595.286697 
L 1085.117644 611.396654 
L 1090.097323 620.70808 
L 1095.077002 614.263342 
L 1105.03636 578.126592 
L 1110.016039 568.244697 
L 1114.995719 556.068848 
L 1119.975398 549.049274 
L 1119.975398 549.049274 
" style="fill:none;stroke:#0000ff;stroke-linecap:square;stroke-width:1.5;"/>
   </g>
   <g id="line2d_40">
    <defs>
     <path d="M 0 3 
C 0.795609 3 1.55874 2.683901 2.12132 2.12132 
C 2.683901 1.55874 3 0.795609 3 0 
C 3 -0.795609 2.683901 -1.55874 2.12132 -2.12132 
C 1.55874 -2.683901 0.795609 -3 0 -3 
C -0.795609 -3 -1.55874 -2.683901 -2.12132 -2.12132 
C -2.683901 -1.55874 -3 -0.795609 -3 0 
C -3 0.795609 -2.683901 1.55874 -2.12132 2.12132 
C -1.55874 2.683901 -0.795609 3 0 3 
z
" id="mb11dbbe6a9" style="stroke:#ff0000;"/>
    </defs>
    <g clip-path="url(#p78586cf84f)">
     <use style="fill:#ff0000;stroke:#ff0000;" x="104.120852" xlink:href="#mb11dbbe6a9" y="639.849091"/>
     <use style="fill:#ff0000;stroke:#ff0000;" x="109.100531" xlink:href="#mb11dbbe6a9" y="639.849091"/>
     <use style="fill:#ff0000;stroke:#ff0000;" x="114.080211" xlink:href="#mb11dbbe6a9" y="639.849091"/>
     <use style="fill:#ff0000;stroke:#ff0000;" x="119.05989" xlink:href="#mb11dbbe6a9" y="639.849091"/>
     <use style="fill:#ff0000;stroke:#ff0000;" x="124.039569" xlink:href="#mb11dbbe6a9" y="639.849091"/>
     <use style="fill:#ff0000;stroke:#ff0000;" x="129.019248" xlink:href="#mb11dbbe6a9" y="639.849091"/>
     <use style="fill:#ff0000;stroke:#ff0000;" x="133.998927" xlink:href="#mb11dbbe6a9" y="639.849091"/>
     <use style="fill:#ff0000;stroke:#ff0000;" x="143.958285" xlink:href="#mb11dbbe6a9" y="639.849091"/>
     <use style="fill:#ff0000;stroke:#ff0000;" x="148.937965" xlink:href="#mb11dbbe6a9" y="639.849091"/>
     <use style="fill:#ff0000;stroke:#ff0000;" x="153.917644" xlink:href="#mb11dbbe6a9" y="639.849091"/>
     <use style="fill:#ff0000;stroke:#ff0000;" x="158.897323" xlink:href="#mb11dbbe6a9" y="639.849091"/>
     <use style="fill:#ff0000;stroke:#ff0000;" x="163.877002" xlink:href="#mb11dbbe6a9" y="639.849091"/>
     <use style="fill:#ff0000;stroke:#ff0000;" x="168.856681" xlink:href="#mb11dbbe6a9" y="639.849091"/>
     <use style="fill:#ff0000;stroke:#ff0000;" x="173.83636" xlink:href="#mb11dbbe6a9" y="639.849091"/>
     <use style="fill:#ff0000;stroke:#ff0000;" x="178.816039" xlink:href="#mb11dbbe6a9" y="639.849091"/>
     <use style="fill:#ff0000;stroke:#ff0000;" x="183.795719" xlink:href="#mb11dbbe6a9" y="639.849091"/>
     <use style="fill:#ff0000;stroke:#ff0000;" x="188.775398" xlink:href="#mb11dbbe6a9" y="639.849091"/>
     <use style="fill:#ff0000;stroke:#ff0000;" x="193.755077" xlink:href="#mb11dbbe6a9" y="639.849091"/>
     <use style="fill:#ff0000;stroke:#ff0000;" x="198.734756" xlink:href="#mb11dbbe6a9" y="639.849091"/>
     <use style="fill:#ff0000;stroke:#ff0000;" x="203.714435" xlink:href="#mb11dbbe6a9" y="639.849091"/>
     <use style="fill:#ff0000;stroke:#ff0000;" x="208.694114" xlink:href="#mb11dbbe6a9" y="639.849091"/>
     <use style="fill:#ff0000;stroke:#ff0000;" x="213.673793" xlink:href="#mb11dbbe6a9" y="639.849091"/>
     <use style="fill:#ff0000;stroke:#ff0000;" x="218.653473" xlink:href="#mb11dbbe6a9" y="639.849091"/>
     <use style="fill:#ff0000;stroke:#ff0000;" x="223.633152" xlink:href="#mb11dbbe6a9" y="639.849091"/>
     <use style="fill:#ff0000;stroke:#ff0000;" x="228.612831" xlink:href="#mb11dbbe6a9" y="639.849091"/>
     <use style="fill:#ff0000;stroke:#ff0000;" x="233.59251" xlink:href="#mb11dbbe6a9" y="639.849091"/>
     <use style="fill:#ff0000;stroke:#ff0000;" x="238.572189" xlink:href="#mb11dbbe6a9" y="639.849091"/>
     <use style="fill:#ff0000;stroke:#ff0000;" x="243.551868" xlink:href="#mb11dbbe6a9" y="639.849091"/>
     <use style="fill:#ff0000;stroke:#ff0000;" x="248.531547" xlink:href="#mb11dbbe6a9" y="639.849091"/>
     <use style="fill:#ff0000;stroke:#ff0000;" x="263.470585" xlink:href="#mb11dbbe6a9" y="639.849091"/>
     <use style="fill:#ff0000;stroke:#ff0000;" x="268.450264" xlink:href="#mb11dbbe6a9" y="639.849091"/>
     <use style="fill:#ff0000;stroke:#ff0000;" x="273.429943" xlink:href="#mb11dbbe6a9" y="639.849091"/>
     <use style="fill:#ff0000;stroke:#ff0000;" x="278.409622" xlink:href="#mb11dbbe6a9" y="639.849091"/>
     <use style="fill:#ff0000;stroke:#ff0000;" x="283.389301" xlink:href="#mb11dbbe6a9" y="639.849091"/>
     <use style="fill:#ff0000;stroke:#ff0000;" x="288.368981" xlink:href="#mb11dbbe6a9" y="639.849091"/>
     <use style="fill:#ff0000;stroke:#ff0000;" x="293.34866" xlink:href="#mb11dbbe6a9" y="639.849091"/>
     <use style="fill:#ff0000;stroke:#ff0000;" x="298.328339" xlink:href="#mb11dbbe6a9" y="639.849091"/>
     <use style="fill:#ff0000;stroke:#ff0000;" x="303.308018" xlink:href="#mb11dbbe6a9" y="639.849091"/>
     <use style="fill:#ff0000;stroke:#ff0000;" x="308.287697" xlink:href="#mb11dbbe6a9" y="639.849091"/>
     <use style="fill:#ff0000;stroke:#ff0000;" x="313.267376" xlink:href="#mb11dbbe6a9" y="639.849091"/>
     <use style="fill:#ff0000;stroke:#ff0000;" x="318.247055" xlink:href="#mb11dbbe6a9" y="639.849091"/>
     <use style="fill:#ff0000;stroke:#ff0000;" x="328.206414" xlink:href="#mb11dbbe6a9" y="639.849091"/>
     <use style="fill:#ff0000;stroke:#ff0000;" x="333.186093" xlink:href="#mb11dbbe6a9" y="639.849091"/>
     <use style="fill:#ff0000;stroke:#ff0000;" x="338.165772" xlink:href="#mb11dbbe6a9" y="639.849091"/>
     <use style="fill:#ff0000;stroke:#ff0000;" x="343.145451" xlink:href="#mb11dbbe6a9" y="639.849091"/>
     <use style="fill:#ff0000;stroke:#ff0000;" x="348.12513" xlink:href="#mb11dbbe6a9" y="639.849091"/>
     <use style="fill:#ff0000;stroke:#ff0000;" x="353.104809" xlink:href="#mb11dbbe6a9" y="639.849091"/>
     <use style="fill:#ff0000;stroke:#ff0000;" x="358.084489" xlink:href="#mb11dbbe6a9" y="639.849091"/>
     <use style="fill:#ff0000;stroke:#ff0000;" x="363.064168" xlink:href="#mb11dbbe6a9" y="639.849091"/>
     <use style="fill:#ff0000;stroke:#ff0000;" x="368.043847" xlink:href="#mb11dbbe6a9" y="639.849091"/>
     <use style="fill:#ff0000;stroke:#ff0000;" x="382.982884" xlink:href="#mb11dbbe6a9" y="639.849091"/>
     <use style="fill:#ff0000;stroke:#ff0000;" x="387.962564" xlink:href="#mb11dbbe6a9" y="639.849091"/>
     <use style="fill:#ff0000;stroke:#ff0000;" x="392.942243" xlink:href="#mb11dbbe6a9" y="639.849091"/>
     <use style="fill:#ff0000;stroke:#ff0000;" x="397.921922" xlink:href="#mb11dbbe6a9" y="639.849091"/>
     <use style="fill:#ff0000;stroke:#ff0000;" x="402.901601" xlink:href="#mb11dbbe6a9" y="639.849091"/>
     <use style="fill:#ff0000;stroke:#ff0000;" x="407.88128" xlink:href="#mb11dbbe6a9" y="639.849091"/>
     <use style="fill:#ff0000;stroke:#ff0000;" x="412.860959" xlink:href="#mb11dbbe6a9" y="639.849091"/>
     <use style="fill:#ff0000;stroke:#ff0000;" x="417.840638" xlink:href="#mb11dbbe6a9" y="639.849091"/>
     <use style="fill:#ff0000;stroke:#ff0000;" x="427.799997" xlink:href="#mb11dbbe6a9" y="639.849091"/>
     <use style="fill:#ff0000;stroke:#ff0000;" x="437.759355" xlink:href="#mb11dbbe6a9" y="639.849091"/>
     <use style="fill:#ff0000;stroke:#ff0000;" x="442.739034" xlink:href="#mb11dbbe6a9" y="639.849091"/>
     <use style="fill:#ff0000;stroke:#ff0000;" x="447.718713" xlink:href="#mb11dbbe6a9" y="639.849091"/>
     <use style="fill:#ff0000;stroke:#ff0000;" x="452.698392" xlink:href="#mb11dbbe6a9" y="639.849091"/>
     <use style="fill:#ff0000;stroke:#ff0000;" x="457.678072" xlink:href="#mb11dbbe6a9" y="639.849091"/>
     <use style="fill:#ff0000;stroke:#ff0000;" x="462.657751" xlink:href="#mb11dbbe6a9" y="639.849091"/>
     <use style="fill:#ff0000;stroke:#ff0000;" x="467.63743" xlink:href="#mb11dbbe6a9" y="639.849091"/>
     <use style="fill:#ff0000;stroke:#ff0000;" x="472.617109" xlink:href="#mb11dbbe6a9" y="639.849091"/>
     <use style="fill:#ff0000;stroke:#ff0000;" x="477.596788" xlink:href="#mb11dbbe6a9" y="639.849091"/>
     <use style="fill:#ff0000;stroke:#ff0000;" x="482.576467" xlink:href="#mb11dbbe6a9" y="639.849091"/>
     <use style="fill:#ff0000;stroke:#ff0000;" x="487.556146" xlink:href="#mb11dbbe6a9" y="639.849091"/>
     <use style="fill:#ff0000;stroke:#ff0000;" x="492.535826" xlink:href="#mb11dbbe6a9" y="639.849091"/>
     <use style="fill:#ff0000;stroke:#ff0000;" x="507.474863" xlink:href="#mb11dbbe6a9" y="639.849091"/>
     <use style="fill:#ff0000;stroke:#ff0000;" x="512.454542" xlink:href="#mb11dbbe6a9" y="639.849091"/>
     <use style="fill:#ff0000;stroke:#ff0000;" x="517.434221" xlink:href="#mb11dbbe6a9" y="639.849091"/>
     <use style="fill:#ff0000;stroke:#ff0000;" x="522.4139" xlink:href="#mb11dbbe6a9" y="639.849091"/>
     <use style="fill:#ff0000;stroke:#ff0000;" x="527.39358" xlink:href="#mb11dbbe6a9" y="639.849091"/>
     <use style="fill:#ff0000;stroke:#ff0000;" x="532.373259" xlink:href="#mb11dbbe6a9" y="639.849091"/>
     <use style="fill:#ff0000;stroke:#ff0000;" x="537.352938" xlink:href="#mb11dbbe6a9" y="639.849091"/>
     <use style="fill:#ff0000;stroke:#ff0000;" x="542.332617" xlink:href="#mb11dbbe6a9" y="639.849091"/>
     <use style="fill:#ff0000;stroke:#ff0000;" x="567.231013" xlink:href="#mb11dbbe6a9" y="639.849091"/>
     <use style="fill:#ff0000;stroke:#ff0000;" x="572.210692" xlink:href="#mb11dbbe6a9" y="639.849091"/>
     <use style="fill:#ff0000;stroke:#ff0000;" x="577.190371" xlink:href="#mb11dbbe6a9" y="639.849091"/>
     <use style="fill:#ff0000;stroke:#ff0000;" x="582.17005" xlink:href="#mb11dbbe6a9" y="639.849091"/>
     <use style="fill:#ff0000;stroke:#ff0000;" x="587.149729" xlink:href="#mb11dbbe6a9" y="639.849091"/>
     <use style="fill:#ff0000;stroke:#ff0000;" x="592.129408" xlink:href="#mb11dbbe6a9" y="639.849091"/>
     <use style="fill:#ff0000;stroke:#ff0000;" x="597.109088" xlink:href="#mb11dbbe6a9" y="639.849091"/>
     <use style="fill:#ff0000;stroke:#ff0000;" x="602.088767" xlink:href="#mb11dbbe6a9" y="639.849091"/>
     <use style="fill:#ff0000;stroke:#ff0000;" x="612.048125" xlink:href="#mb11dbbe6a9" y="639.849091"/>
     <use style="fill:#ff0000;stroke:#ff0000;" x="617.027804" xlink:href="#mb11dbbe6a9" y="639.849091"/>
     <use style="fill:#ff0000;stroke:#ff0000;" x="622.007483" xlink:href="#mb11dbbe6a9" y="639.849091"/>
     <use style="fill:#ff0000;stroke:#ff0000;" x="626.987162" xlink:href="#mb11dbbe6a9" y="639.849091"/>
     <use style="fill:#ff0000;stroke:#ff0000;" x="631.966842" xlink:href="#mb11dbbe6a9" y="639.849091"/>
     <use style="fill:#ff0000;stroke:#ff0000;" x="636.946521" xlink:href="#mb11dbbe6a9" y="639.849091"/>
     <use style="fill:#ff0000;stroke:#ff0000;" x="641.9262" xlink:href="#mb11dbbe6a9" y="639.849091"/>
     <use style="fill:#ff0000;stroke:#ff0000;" x="646.905879" xlink:href="#mb11dbbe6a9" y="639.849091"/>
     <use style="fill:#ff0000;stroke:#ff0000;" x="651.885558" xlink:href="#mb11dbbe6a9" y="639.849091"/>
     <use style="fill:#ff0000;stroke:#ff0000;" x="656.865237" xlink:href="#mb11dbbe6a9" y="639.849091"/>
     <use style="fill:#ff0000;stroke:#ff0000;" x="661.844916" xlink:href="#mb11dbbe6a9" y="639.849091"/>
     <use style="fill:#ff0000;stroke:#ff0000;" x="666.824596" xlink:href="#mb11dbbe6a9" y="639.849091"/>
     <use style="fill:#ff0000;stroke:#ff0000;" x="671.804275" xlink:href="#mb11dbbe6a9" y="639.849091"/>
     <use style="fill:#ff0000;stroke:#ff0000;" x="676.783954" xlink:href="#mb11dbbe6a9" y="639.849091"/>
     <use style="fill:#ff0000;stroke:#ff0000;" x="686.743312" xlink:href="#mb11dbbe6a9" y="639.849091"/>
     <use style="fill:#ff0000;stroke:#ff0000;" x="691.722991" xlink:href="#mb11dbbe6a9" y="639.849091"/>
     <use style="fill:#ff0000;stroke:#ff0000;" x="696.70267" xlink:href="#mb11dbbe6a9" y="639.849091"/>
     <use style="fill:#ff0000;stroke:#ff0000;" x="701.68235" xlink:href="#mb11dbbe6a9" y="639.849091"/>
     <use style="fill:#ff0000;stroke:#ff0000;" x="706.662029" xlink:href="#mb11dbbe6a9" y="639.849091"/>
     <use style="fill:#ff0000;stroke:#ff0000;" x="711.641708" xlink:href="#mb11dbbe6a9" y="639.849091"/>
     <use style="fill:#ff0000;stroke:#ff0000;" x="716.621387" xlink:href="#mb11dbbe6a9" y="639.849091"/>
     <use style="fill:#ff0000;stroke:#ff0000;" x="721.601066" xlink:href="#mb11dbbe6a9" y="639.849091"/>
     <use style="fill:#ff0000;stroke:#ff0000;" x="726.580745" xlink:href="#mb11dbbe6a9" y="639.849091"/>
     <use style="fill:#ff0000;stroke:#ff0000;" x="731.560424" xlink:href="#mb11dbbe6a9" y="639.849091"/>
     <use style="fill:#ff0000;stroke:#ff0000;" x="736.540104" xlink:href="#mb11dbbe6a9" y="639.849091"/>
     <use style="fill:#ff0000;stroke:#ff0000;" x="741.519783" xlink:href="#mb11dbbe6a9" y="639.849091"/>
     <use style="fill:#ff0000;stroke:#ff0000;" x="746.499462" xlink:href="#mb11dbbe6a9" y="639.849091"/>
     <use style="fill:#ff0000;stroke:#ff0000;" x="751.479141" xlink:href="#mb11dbbe6a9" y="639.849091"/>
     <use style="fill:#ff0000;stroke:#ff0000;" x="756.45882" xlink:href="#mb11dbbe6a9" y="639.849091"/>
     <use style="fill:#ff0000;stroke:#ff0000;" x="761.438499" xlink:href="#mb11dbbe6a9" y="639.849091"/>
     <use style="fill:#ff0000;stroke:#ff0000;" x="766.418178" xlink:href="#mb11dbbe6a9" y="639.849091"/>
     <use style="fill:#ff0000;stroke:#ff0000;" x="771.397858" xlink:href="#mb11dbbe6a9" y="639.849091"/>
     <use style="fill:#ff0000;stroke:#ff0000;" x="776.377537" xlink:href="#mb11dbbe6a9" y="639.849091"/>
     <use style="fill:#ff0000;stroke:#ff0000;" x="786.336895" xlink:href="#mb11dbbe6a9" y="639.849091"/>
     <use style="fill:#ff0000;stroke:#ff0000;" x="791.316574" xlink:href="#mb11dbbe6a9" y="639.849091"/>
     <use style="fill:#ff0000;stroke:#ff0000;" x="796.296253" xlink:href="#mb11dbbe6a9" y="639.849091"/>
     <use style="fill:#ff0000;stroke:#ff0000;" x="801.275932" xlink:href="#mb11dbbe6a9" y="639.849091"/>
     <use style="fill:#ff0000;stroke:#ff0000;" x="806.255612" xlink:href="#mb11dbbe6a9" y="639.849091"/>
     <use style="fill:#ff0000;stroke:#ff0000;" x="811.235291" xlink:href="#mb11dbbe6a9" y="639.849091"/>
     <use style="fill:#ff0000;stroke:#ff0000;" x="816.21497" xlink:href="#mb11dbbe6a9" y="639.849091"/>
     <use style="fill:#ff0000;stroke:#ff0000;" x="821.194649" xlink:href="#mb11dbbe6a9" y="639.849091"/>
     <use style="fill:#ff0000;stroke:#ff0000;" x="826.174328" xlink:href="#mb11dbbe6a9" y="639.849091"/>
     <use style="fill:#ff0000;stroke:#ff0000;" x="831.154007" xlink:href="#mb11dbbe6a9" y="639.849091"/>
     <use style="fill:#ff0000;stroke:#ff0000;" x="836.133686" xlink:href="#mb11dbbe6a9" y="639.849091"/>
     <use style="fill:#ff0000;stroke:#ff0000;" x="841.113366" xlink:href="#mb11dbbe6a9" y="639.849091"/>
     <use style="fill:#ff0000;stroke:#ff0000;" x="856.052403" xlink:href="#mb11dbbe6a9" y="639.849091"/>
     <use style="fill:#ff0000;stroke:#ff0000;" x="861.032082" xlink:href="#mb11dbbe6a9" y="639.849091"/>
     <use style="fill:#ff0000;stroke:#ff0000;" x="866.011761" xlink:href="#mb11dbbe6a9" y="639.849091"/>
     <use style="fill:#ff0000;stroke:#ff0000;" x="870.991441" xlink:href="#mb11dbbe6a9" y="639.849091"/>
     <use style="fill:#ff0000;stroke:#ff0000;" x="875.97112" xlink:href="#mb11dbbe6a9" y="639.849091"/>
     <use style="fill:#ff0000;stroke:#ff0000;" x="880.950799" xlink:href="#mb11dbbe6a9" y="639.849091"/>
     <use style="fill:#ff0000;stroke:#ff0000;" x="885.930478" xlink:href="#mb11dbbe6a9" y="639.849091"/>
     <use style="fill:#ff0000;stroke:#ff0000;" x="890.910157" xlink:href="#mb11dbbe6a9" y="639.849091"/>
     <use style="fill:#ff0000;stroke:#ff0000;" x="895.889836" xlink:href="#mb11dbbe6a9" y="639.849091"/>
     <use style="fill:#ff0000;stroke:#ff0000;" x="905.849195" xlink:href="#mb11dbbe6a9" y="639.849091"/>
     <use style="fill:#ff0000;stroke:#ff0000;" x="910.828874" xlink:href="#mb11dbbe6a9" y="639.849091"/>
     <use style="fill:#ff0000;stroke:#ff0000;" x="915.808553" xlink:href="#mb11dbbe6a9" y="639.849091"/>
     <use style="fill:#ff0000;stroke:#ff0000;" x="920.788232" xlink:href="#mb11dbbe6a9" y="639.849091"/>
     <use style="fill:#ff0000;stroke:#ff0000;" x="925.767911" xlink:href="#mb11dbbe6a9" y="639.849091"/>
     <use style="fill:#ff0000;stroke:#ff0000;" x="930.74759" xlink:href="#mb11dbbe6a9" y="639.849091"/>
     <use style="fill:#ff0000;stroke:#ff0000;" x="935.727269" xlink:href="#mb11dbbe6a9" y="639.849091"/>
     <use style="fill:#ff0000;stroke:#ff0000;" x="940.706949" xlink:href="#mb11dbbe6a9" y="639.849091"/>
     <use style="fill:#ff0000;stroke:#ff0000;" x="945.686628" xlink:href="#mb11dbbe6a9" y="639.849091"/>
     <use style="fill:#ff0000;stroke:#ff0000;" x="950.666307" xlink:href="#mb11dbbe6a9" y="639.849091"/>
     <use style="fill:#ff0000;stroke:#ff0000;" x="955.645986" xlink:href="#mb11dbbe6a9" y="639.849091"/>
     <use style="fill:#ff0000;stroke:#ff0000;" x="960.625665" xlink:href="#mb11dbbe6a9" y="639.849091"/>
     <use style="fill:#ff0000;stroke:#ff0000;" x="965.605344" xlink:href="#mb11dbbe6a9" y="639.849091"/>
     <use style="fill:#ff0000;stroke:#ff0000;" x="975.564703" xlink:href="#mb11dbbe6a9" y="639.849091"/>
     <use style="fill:#ff0000;stroke:#ff0000;" x="980.544382" xlink:href="#mb11dbbe6a9" y="639.849091"/>
     <use style="fill:#ff0000;stroke:#ff0000;" x="985.524061" xlink:href="#mb11dbbe6a9" y="639.849091"/>
     <use style="fill:#ff0000;stroke:#ff0000;" x="990.50374" xlink:href="#mb11dbbe6a9" y="639.849091"/>
     <use style="fill:#ff0000;stroke:#ff0000;" x="995.483419" xlink:href="#mb11dbbe6a9" y="639.849091"/>
     <use style="fill:#ff0000;stroke:#ff0000;" x="1000.463098" xlink:href="#mb11dbbe6a9" y="639.849091"/>
     <use style="fill:#ff0000;stroke:#ff0000;" x="1005.442777" xlink:href="#mb11dbbe6a9" y="639.849091"/>
     <use style="fill:#ff0000;stroke:#ff0000;" x="1010.422457" xlink:href="#mb11dbbe6a9" y="639.849091"/>
     <use style="fill:#ff0000;stroke:#ff0000;" x="1015.402136" xlink:href="#mb11dbbe6a9" y="639.849091"/>
     <use style="fill:#ff0000;stroke:#ff0000;" x="1020.381815" xlink:href="#mb11dbbe6a9" y="639.849091"/>
     <use style="fill:#ff0000;stroke:#ff0000;" x="1025.361494" xlink:href="#mb11dbbe6a9" y="639.849091"/>
     <use style="fill:#ff0000;stroke:#ff0000;" x="1035.320852" xlink:href="#mb11dbbe6a9" y="639.849091"/>
     <use style="fill:#ff0000;stroke:#ff0000;" x="1040.300531" xlink:href="#mb11dbbe6a9" y="639.849091"/>
     <use style="fill:#ff0000;stroke:#ff0000;" x="1045.280211" xlink:href="#mb11dbbe6a9" y="639.849091"/>
     <use style="fill:#ff0000;stroke:#ff0000;" x="1050.25989" xlink:href="#mb11dbbe6a9" y="639.849091"/>
     <use style="fill:#ff0000;stroke:#ff0000;" x="1055.239569" xlink:href="#mb11dbbe6a9" y="639.849091"/>
     <use style="fill:#ff0000;stroke:#ff0000;" x="1060.219248" xlink:href="#mb11dbbe6a9" y="639.849091"/>
     <use style="fill:#ff0000;stroke:#ff0000;" x="1065.198927" xlink:href="#mb11dbbe6a9" y="639.849091"/>
     <use style="fill:#ff0000;stroke:#ff0000;" x="1070.178606" xlink:href="#mb11dbbe6a9" y="639.849091"/>
     <use style="fill:#ff0000;stroke:#ff0000;" x="1075.158285" xlink:href="#mb11dbbe6a9" y="639.849091"/>
     <use style="fill:#ff0000;stroke:#ff0000;" x="1080.137965" xlink:href="#mb11dbbe6a9" y="639.849091"/>
     <use style="fill:#ff0000;stroke:#ff0000;" x="1090.097323" xlink:href="#mb11dbbe6a9" y="639.849091"/>
     <use style="fill:#ff0000;stroke:#ff0000;" x="1100.056681" xlink:href="#mb11dbbe6a9" y="639.849091"/>
     <use style="fill:#ff0000;stroke:#ff0000;" x="1105.03636" xlink:href="#mb11dbbe6a9" y="639.849091"/>
     <use style="fill:#ff0000;stroke:#ff0000;" x="1110.016039" xlink:href="#mb11dbbe6a9" y="639.849091"/>
     <use style="fill:#ff0000;stroke:#ff0000;" x="1114.995719" xlink:href="#mb11dbbe6a9" y="639.849091"/>
     <use style="fill:#ff0000;stroke:#ff0000;" x="1119.975398" xlink:href="#mb11dbbe6a9" y="639.849091"/>
    </g>
   </g>
   <g id="patch_9">
    <path d="M 53.328125 645.74 
L 53.328125 516.14 
" style="fill:none;stroke:#000000;stroke-linecap:square;stroke-linejoin:miter;stroke-width:0.8;"/>
   </g>
   <g id="patch_10">
    <path d="M 1170.768125 645.74 
L 1170.768125 516.14 
" style="fill:none;stroke:#000000;stroke-linecap:square;stroke-linejoin:miter;stroke-width:0.8;"/>
   </g>
   <g id="patch_11">
    <path d="M 53.328125 645.74 
L 1170.768125 645.74 
" style="fill:none;stroke:#000000;stroke-linecap:square;stroke-linejoin:miter;stroke-width:0.8;"/>
   </g>
   <g id="patch_12">
    <path d="M 53.328125 516.14 
L 1170.768125 516.14 
" style="fill:none;stroke:#000000;stroke-linecap:square;stroke-linejoin:miter;stroke-width:0.8;"/>
   </g>
   <g id="legend_2">
    <g id="patch_13">
     <path d="M 60.328125 582.8525 
L 151.340625 582.8525 
Q 153.340625 582.8525 153.340625 580.8525 
L 153.340625 523.14 
Q 153.340625 521.14 151.340625 521.14 
L 60.328125 521.14 
Q 58.328125 521.14 58.328125 523.14 
L 58.328125 580.8525 
Q 58.328125 582.8525 60.328125 582.8525 
z
" style="fill:#ffffff;opacity:0.8;stroke:#cccccc;stroke-linejoin:miter;"/>
    </g>
    <g id="line2d_41">
     <path d="M 62.328125 529.238437 
L 82.328125 529.238437 
" style="fill:none;stroke:#ff0000;stroke-linecap:square;stroke-width:1.5;"/>
    </g>
    <g id="line2d_42"/>
    <g id="text_34">
     <!-- Maxmimum -->
     <defs>
      <path d="M 9.8125 72.90625 
L 24.515625 72.90625 
L 43.109375 23.296875 
L 61.8125 72.90625 
L 76.515625 72.90625 
L 76.515625 0 
L 66.890625 0 
L 66.890625 64.015625 
L 48.09375 14.015625 
L 38.1875 14.015625 
L 19.390625 64.015625 
L 19.390625 0 
L 9.8125 0 
z
" id="DejaVuSans-4d"/>
      <path d="M 54.890625 54.6875 
L 35.109375 28.078125 
L 55.90625 0 
L 45.3125 0 
L 29.390625 21.484375 
L 13.484375 0 
L 2.875 0 
L 24.125 28.609375 
L 4.6875 54.6875 
L 15.28125 54.6875 
L 29.78125 35.203125 
L 44.28125 54.6875 
z
" id="DejaVuSans-78"/>
     </defs>
     <g transform="translate(90.328125 532.738437)scale(0.1 -0.1)">
      <use xlink:href="#DejaVuSans-4d"/>
      <use x="86.279297" xlink:href="#DejaVuSans-61"/>
      <use x="147.558594" xlink:href="#DejaVuSans-78"/>
      <use x="206.738281" xlink:href="#DejaVuSans-6d"/>
      <use x="304.150391" xlink:href="#DejaVuSans-69"/>
      <use x="331.933594" xlink:href="#DejaVuSans-6d"/>
      <use x="429.345703" xlink:href="#DejaVuSans-75"/>
      <use x="492.724609" xlink:href="#DejaVuSans-6d"/>
     </g>
    </g>
    <g id="line2d_43">
     <path d="M 62.328125 543.916562 
L 82.328125 543.916562 
" style="fill:none;stroke:#008000;stroke-linecap:square;stroke-width:1.5;"/>
    </g>
    <g id="line2d_44"/>
    <g id="text_35">
     <!-- Average -->
     <defs>
      <path d="M 34.1875 63.1875 
L 20.796875 26.90625 
L 47.609375 26.90625 
z
M 28.609375 72.90625 
L 39.796875 72.90625 
L 67.578125 0 
L 57.328125 0 
L 50.6875 18.703125 
L 17.828125 18.703125 
L 11.1875 0 
L 0.78125 0 
z
" id="DejaVuSans-41"/>
      <path d="M 2.984375 54.6875 
L 12.5 54.6875 
L 29.59375 8.796875 
L 46.6875 54.6875 
L 56.203125 54.6875 
L 35.6875 0 
L 23.484375 0 
z
" id="DejaVuSans-76"/>
     </defs>
     <g transform="translate(90.328125 547.416562)scale(0.1 -0.1)">
      <use xlink:href="#DejaVuSans-41"/>
      <use x="68.330078" xlink:href="#DejaVuSans-76"/>
      <use x="127.509766" xlink:href="#DejaVuSans-65"/>
      <use x="189.033203" xlink:href="#DejaVuSans-72"/>
      <use x="230.146484" xlink:href="#DejaVuSans-61"/>
      <use x="291.425781" xlink:href="#DejaVuSans-67"/>
      <use x="354.902344" xlink:href="#DejaVuSans-65"/>
     </g>
    </g>
    <g id="line2d_45">
     <path d="M 62.328125 558.594687 
L 82.328125 558.594687 
" style="fill:none;stroke:#0000ff;stroke-linecap:square;stroke-width:1.5;"/>
    </g>
    <g id="line2d_46"/>
    <g id="text_36">
     <!-- Minimum -->
     <g transform="translate(90.328125 562.094687)scale(0.1 -0.1)">
      <use xlink:href="#DejaVuSans-4d"/>
      <use x="86.279297" xlink:href="#DejaVuSans-69"/>
      <use x="114.0625" xlink:href="#DejaVuSans-6e"/>
      <use x="177.441406" xlink:href="#DejaVuSans-69"/>
      <use x="205.224609" xlink:href="#DejaVuSans-6d"/>
      <use x="302.636719" xlink:href="#DejaVuSans-75"/>
      <use x="366.015625" xlink:href="#DejaVuSans-6d"/>
     </g>
    </g>
    <g id="line2d_47"/>
    <g id="line2d_48">
     <g>
      <use style="fill:#ff0000;stroke:#ff0000;" x="72.328125" xlink:href="#mb11dbbe6a9" y="573.272812"/>
     </g>
    </g>
    <g id="text_37">
     <!-- Disasters -->
     <g transform="translate(90.328125 576.772812)scale(0.1 -0.1)">
      <use xlink:href="#DejaVuSans-44"/>
      <use x="77.001953" xlink:href="#DejaVuSans-69"/>
      <use x="104.785156" xlink:href="#DejaVuSans-73"/>
      <use x="156.884766" xlink:href="#DejaVuSans-61"/>
      <use x="218.164062" xlink:href="#DejaVuSans-73"/>
      <use x="270.263672" xlink:href="#DejaVuSans-74"/>
      <use x="309.472656" xlink:href="#DejaVuSans-65"/>
      <use x="370.996094" xlink:href="#DejaVuSans-72"/>
      <use x="412.109375" xlink:href="#DejaVuSans-73"/>
     </g>
    </g>
   </g>
  </g>
 </g>
 <defs>
  <clipPath id="p84a15fb91f">
   <rect height="498.96" width="1116" x="53.328125" y="10.7"/>
  </clipPath>
  <clipPath id="p78586cf84f">
   <rect height="129.6" width="1117.44" x="53.328125" y="516.14"/>
  </clipPath>
 </defs>
</svg>
