<?xml version="1.0" encoding="utf-8" standalone="no"?>
<!DOCTYPE svg PUBLIC "-//W3C//DTD SVG 1.1//EN"
  "http://www.w3.org/Graphics/SVG/1.1/DTD/svg11.dtd">
<!-- Created with matplotlib (http://matplotlib.org/) -->
<svg height="669pt" version="1.1" viewBox="0 0 1181 669" width="1181pt" xmlns="http://www.w3.org/2000/svg" xmlns:xlink="http://www.w3.org/1999/xlink">
 <defs>
  <style type="text/css">
*{stroke-linecap:butt;stroke-linejoin:round;}
  </style>
 </defs>
 <g id="figure_1">
  <g id="patch_1">
   <path d="M 0 669.618125 
L 1181.468125 669.618125 
L 1181.468125 -0 
L 0 -0 
z
" style="fill:none;"/>
  </g>
  <g id="axes_1">
   <g id="patch_2">
    <path d="M 53.328125 509.66 
L 1169.328125 509.66 
L 1169.328125 10.7 
L 53.328125 10.7 
z
" style="fill:none;"/>
   </g>
   <g id="matplotlib.axis_1">
    <g id="xtick_1">
     <g id="line2d_1">
      <defs>
       <path d="M 0 0 
L 0 3.5 
" id="meb8ce6137a" style="stroke:#000000;stroke-width:0.8;"/>
      </defs>
      <g>
       <use style="stroke:#000000;stroke-width:0.8;" x="104.055398" xlink:href="#meb8ce6137a" y="509.66"/>
      </g>
     </g>
     <g id="text_1">
      <!-- 0 -->
      <defs>
       <path d="M 31.78125 66.40625 
Q 24.171875 66.40625 20.328125 58.90625 
Q 16.5 51.421875 16.5 36.375 
Q 16.5 21.390625 20.328125 13.890625 
Q 24.171875 6.390625 31.78125 6.390625 
Q 39.453125 6.390625 43.28125 13.890625 
Q 47.125 21.390625 47.125 36.375 
Q 47.125 51.421875 43.28125 58.90625 
Q 39.453125 66.40625 31.78125 66.40625 
z
M 31.78125 74.21875 
Q 44.046875 74.21875 50.515625 64.515625 
Q 56.984375 54.828125 56.984375 36.375 
Q 56.984375 17.96875 50.515625 8.265625 
Q 44.046875 -1.421875 31.78125 -1.421875 
Q 19.53125 -1.421875 13.0625 8.265625 
Q 6.59375 17.96875 6.59375 36.375 
Q 6.59375 54.828125 13.0625 64.515625 
Q 19.53125 74.21875 31.78125 74.21875 
z
" id="DejaVuSans-30"/>
      </defs>
      <g transform="translate(100.874148 524.258437)scale(0.1 -0.1)">
       <use xlink:href="#DejaVuSans-30"/>
      </g>
     </g>
    </g>
    <g id="xtick_2">
     <g id="line2d_2">
      <g>
       <use style="stroke:#000000;stroke-width:0.8;" x="346.769621" xlink:href="#meb8ce6137a" y="509.66"/>
      </g>
     </g>
     <g id="text_2">
      <!-- 50 -->
      <defs>
       <path d="M 10.796875 72.90625 
L 49.515625 72.90625 
L 49.515625 64.59375 
L 19.828125 64.59375 
L 19.828125 46.734375 
Q 21.96875 47.46875 24.109375 47.828125 
Q 26.265625 48.1875 28.421875 48.1875 
Q 40.625 48.1875 47.75 41.5 
Q 54.890625 34.8125 54.890625 23.390625 
Q 54.890625 11.625 47.5625 5.09375 
Q 40.234375 -1.421875 26.90625 -1.421875 
Q 22.3125 -1.421875 17.546875 -0.640625 
Q 12.796875 0.140625 7.71875 1.703125 
L 7.71875 11.625 
Q 12.109375 9.234375 16.796875 8.0625 
Q 21.484375 6.890625 26.703125 6.890625 
Q 35.15625 6.890625 40.078125 11.328125 
Q 45.015625 15.765625 45.015625 23.390625 
Q 45.015625 31 40.078125 35.4375 
Q 35.15625 39.890625 26.703125 39.890625 
Q 22.75 39.890625 18.8125 39.015625 
Q 14.890625 38.140625 10.796875 36.28125 
z
" id="DejaVuSans-35"/>
      </defs>
      <g transform="translate(340.407121 524.258437)scale(0.1 -0.1)">
       <use xlink:href="#DejaVuSans-35"/>
       <use x="63.623047" xlink:href="#DejaVuSans-30"/>
      </g>
     </g>
    </g>
    <g id="xtick_3">
     <g id="line2d_3">
      <g>
       <use style="stroke:#000000;stroke-width:0.8;" x="589.483845" xlink:href="#meb8ce6137a" y="509.66"/>
      </g>
     </g>
     <g id="text_3">
      <!-- 100 -->
      <defs>
       <path d="M 12.40625 8.296875 
L 28.515625 8.296875 
L 28.515625 63.921875 
L 10.984375 60.40625 
L 10.984375 69.390625 
L 28.421875 72.90625 
L 38.28125 72.90625 
L 38.28125 8.296875 
L 54.390625 8.296875 
L 54.390625 0 
L 12.40625 0 
z
" id="DejaVuSans-31"/>
      </defs>
      <g transform="translate(579.940095 524.258437)scale(0.1 -0.1)">
       <use xlink:href="#DejaVuSans-31"/>
       <use x="63.623047" xlink:href="#DejaVuSans-30"/>
       <use x="127.246094" xlink:href="#DejaVuSans-30"/>
      </g>
     </g>
    </g>
    <g id="xtick_4">
     <g id="line2d_4">
      <g>
       <use style="stroke:#000000;stroke-width:0.8;" x="832.198068" xlink:href="#meb8ce6137a" y="509.66"/>
      </g>
     </g>
     <g id="text_4">
      <!-- 150 -->
      <g transform="translate(822.654318 524.258437)scale(0.1 -0.1)">
       <use xlink:href="#DejaVuSans-31"/>
       <use x="63.623047" xlink:href="#DejaVuSans-35"/>
       <use x="127.246094" xlink:href="#DejaVuSans-30"/>
      </g>
     </g>
    </g>
    <g id="xtick_5">
     <g id="line2d_5">
      <g>
       <use style="stroke:#000000;stroke-width:0.8;" x="1074.912292" xlink:href="#meb8ce6137a" y="509.66"/>
      </g>
     </g>
     <g id="text_5">
      <!-- 200 -->
      <defs>
       <path d="M 19.1875 8.296875 
L 53.609375 8.296875 
L 53.609375 0 
L 7.328125 0 
L 7.328125 8.296875 
Q 12.9375 14.109375 22.625 23.890625 
Q 32.328125 33.6875 34.8125 36.53125 
Q 39.546875 41.84375 41.421875 45.53125 
Q 43.3125 49.21875 43.3125 52.78125 
Q 43.3125 58.59375 39.234375 62.25 
Q 35.15625 65.921875 28.609375 65.921875 
Q 23.96875 65.921875 18.8125 64.3125 
Q 13.671875 62.703125 7.8125 59.421875 
L 7.8125 69.390625 
Q 13.765625 71.78125 18.9375 73 
Q 24.125 74.21875 28.421875 74.21875 
Q 39.75 74.21875 46.484375 68.546875 
Q 53.21875 62.890625 53.21875 53.421875 
Q 53.21875 48.921875 51.53125 44.890625 
Q 49.859375 40.875 45.40625 35.40625 
Q 44.1875 33.984375 37.640625 27.21875 
Q 31.109375 20.453125 19.1875 8.296875 
z
" id="DejaVuSans-32"/>
      </defs>
      <g transform="translate(1065.368542 524.258437)scale(0.1 -0.1)">
       <use xlink:href="#DejaVuSans-32"/>
       <use x="63.623047" xlink:href="#DejaVuSans-30"/>
       <use x="127.246094" xlink:href="#DejaVuSans-30"/>
      </g>
     </g>
    </g>
    <g id="text_6">
     <!-- Time -->
     <defs>
      <path d="M -0.296875 72.90625 
L 61.375 72.90625 
L 61.375 64.59375 
L 35.5 64.59375 
L 35.5 0 
L 25.59375 0 
L 25.59375 64.59375 
L -0.296875 64.59375 
z
" id="DejaVuSans-54"/>
      <path d="M 9.421875 54.6875 
L 18.40625 54.6875 
L 18.40625 0 
L 9.421875 0 
z
M 9.421875 75.984375 
L 18.40625 75.984375 
L 18.40625 64.59375 
L 9.421875 64.59375 
z
" id="DejaVuSans-69"/>
      <path d="M 52 44.1875 
Q 55.375 50.25 60.0625 53.125 
Q 64.75 56 71.09375 56 
Q 79.640625 56 84.28125 50.015625 
Q 88.921875 44.046875 88.921875 33.015625 
L 88.921875 0 
L 79.890625 0 
L 79.890625 32.71875 
Q 79.890625 40.578125 77.09375 44.375 
Q 74.3125 48.1875 68.609375 48.1875 
Q 61.625 48.1875 57.5625 43.546875 
Q 53.515625 38.921875 53.515625 30.90625 
L 53.515625 0 
L 44.484375 0 
L 44.484375 32.71875 
Q 44.484375 40.625 41.703125 44.40625 
Q 38.921875 48.1875 33.109375 48.1875 
Q 26.21875 48.1875 22.15625 43.53125 
Q 18.109375 38.875 18.109375 30.90625 
L 18.109375 0 
L 9.078125 0 
L 9.078125 54.6875 
L 18.109375 54.6875 
L 18.109375 46.1875 
Q 21.1875 51.21875 25.484375 53.609375 
Q 29.78125 56 35.6875 56 
Q 41.65625 56 45.828125 52.96875 
Q 50 49.953125 52 44.1875 
z
" id="DejaVuSans-6d"/>
      <path d="M 56.203125 29.59375 
L 56.203125 25.203125 
L 14.890625 25.203125 
Q 15.484375 15.921875 20.484375 11.0625 
Q 25.484375 6.203125 34.421875 6.203125 
Q 39.59375 6.203125 44.453125 7.46875 
Q 49.3125 8.734375 54.109375 11.28125 
L 54.109375 2.78125 
Q 49.265625 0.734375 44.1875 -0.34375 
Q 39.109375 -1.421875 33.890625 -1.421875 
Q 20.796875 -1.421875 13.15625 6.1875 
Q 5.515625 13.8125 5.515625 26.8125 
Q 5.515625 40.234375 12.765625 48.109375 
Q 20.015625 56 32.328125 56 
Q 43.359375 56 49.78125 48.890625 
Q 56.203125 41.796875 56.203125 29.59375 
z
M 47.21875 32.234375 
Q 47.125 39.59375 43.09375 43.984375 
Q 39.0625 48.390625 32.421875 48.390625 
Q 24.90625 48.390625 20.390625 44.140625 
Q 15.875 39.890625 15.1875 32.171875 
z
" id="DejaVuSans-65"/>
     </defs>
     <g transform="translate(598.940625 537.936562)scale(0.1 -0.1)">
      <use xlink:href="#DejaVuSans-54"/>
      <use x="61.037109" xlink:href="#DejaVuSans-69"/>
      <use x="88.820312" xlink:href="#DejaVuSans-6d"/>
      <use x="186.232422" xlink:href="#DejaVuSans-65"/>
     </g>
    </g>
   </g>
   <g id="matplotlib.axis_2">
    <g id="ytick_1">
     <g id="line2d_6">
      <defs>
       <path d="M 0 0 
L -3.5 0 
" id="m1d7fadb107" style="stroke:#000000;stroke-width:0.8;"/>
      </defs>
      <g>
       <use style="stroke:#000000;stroke-width:0.8;" x="53.328125" xlink:href="#m1d7fadb107" y="451.919856"/>
      </g>
     </g>
     <g id="text_7">
      <!-- 250 -->
      <g transform="translate(27.240625 455.719075)scale(0.1 -0.1)">
       <use xlink:href="#DejaVuSans-32"/>
       <use x="63.623047" xlink:href="#DejaVuSans-35"/>
       <use x="127.246094" xlink:href="#DejaVuSans-30"/>
      </g>
     </g>
    </g>
    <g id="ytick_2">
     <g id="line2d_7">
      <g>
       <use style="stroke:#000000;stroke-width:0.8;" x="53.328125" xlink:href="#m1d7fadb107" y="393.486283"/>
      </g>
     </g>
     <g id="text_8">
      <!-- 500 -->
      <g transform="translate(27.240625 397.285501)scale(0.1 -0.1)">
       <use xlink:href="#DejaVuSans-35"/>
       <use x="63.623047" xlink:href="#DejaVuSans-30"/>
       <use x="127.246094" xlink:href="#DejaVuSans-30"/>
      </g>
     </g>
    </g>
    <g id="ytick_3">
     <g id="line2d_8">
      <g>
       <use style="stroke:#000000;stroke-width:0.8;" x="53.328125" xlink:href="#m1d7fadb107" y="335.052709"/>
      </g>
     </g>
     <g id="text_9">
      <!-- 750 -->
      <defs>
       <path d="M 8.203125 72.90625 
L 55.078125 72.90625 
L 55.078125 68.703125 
L 28.609375 0 
L 18.3125 0 
L 43.21875 64.59375 
L 8.203125 64.59375 
z
" id="DejaVuSans-37"/>
      </defs>
      <g transform="translate(27.240625 338.851928)scale(0.1 -0.1)">
       <use xlink:href="#DejaVuSans-37"/>
       <use x="63.623047" xlink:href="#DejaVuSans-35"/>
       <use x="127.246094" xlink:href="#DejaVuSans-30"/>
      </g>
     </g>
    </g>
    <g id="ytick_4">
     <g id="line2d_9">
      <g>
       <use style="stroke:#000000;stroke-width:0.8;" x="53.328125" xlink:href="#m1d7fadb107" y="276.619136"/>
      </g>
     </g>
     <g id="text_10">
      <!-- 1000 -->
      <g transform="translate(20.878125 280.418355)scale(0.1 -0.1)">
       <use xlink:href="#DejaVuSans-31"/>
       <use x="63.623047" xlink:href="#DejaVuSans-30"/>
       <use x="127.246094" xlink:href="#DejaVuSans-30"/>
       <use x="190.869141" xlink:href="#DejaVuSans-30"/>
      </g>
     </g>
    </g>
    <g id="ytick_5">
     <g id="line2d_10">
      <g>
       <use style="stroke:#000000;stroke-width:0.8;" x="53.328125" xlink:href="#m1d7fadb107" y="218.185563"/>
      </g>
     </g>
     <g id="text_11">
      <!-- 1250 -->
      <g transform="translate(20.878125 221.984781)scale(0.1 -0.1)">
       <use xlink:href="#DejaVuSans-31"/>
       <use x="63.623047" xlink:href="#DejaVuSans-32"/>
       <use x="127.246094" xlink:href="#DejaVuSans-35"/>
       <use x="190.869141" xlink:href="#DejaVuSans-30"/>
      </g>
     </g>
    </g>
    <g id="ytick_6">
     <g id="line2d_11">
      <g>
       <use style="stroke:#000000;stroke-width:0.8;" x="53.328125" xlink:href="#m1d7fadb107" y="159.751989"/>
      </g>
     </g>
     <g id="text_12">
      <!-- 1500 -->
      <g transform="translate(20.878125 163.551208)scale(0.1 -0.1)">
       <use xlink:href="#DejaVuSans-31"/>
       <use x="63.623047" xlink:href="#DejaVuSans-35"/>
       <use x="127.246094" xlink:href="#DejaVuSans-30"/>
       <use x="190.869141" xlink:href="#DejaVuSans-30"/>
      </g>
     </g>
    </g>
    <g id="ytick_7">
     <g id="line2d_12">
      <g>
       <use style="stroke:#000000;stroke-width:0.8;" x="53.328125" xlink:href="#m1d7fadb107" y="101.318416"/>
      </g>
     </g>
     <g id="text_13">
      <!-- 1750 -->
      <g transform="translate(20.878125 105.117635)scale(0.1 -0.1)">
       <use xlink:href="#DejaVuSans-31"/>
       <use x="63.623047" xlink:href="#DejaVuSans-37"/>
       <use x="127.246094" xlink:href="#DejaVuSans-35"/>
       <use x="190.869141" xlink:href="#DejaVuSans-30"/>
      </g>
     </g>
    </g>
    <g id="ytick_8">
     <g id="line2d_13">
      <g>
       <use style="stroke:#000000;stroke-width:0.8;" x="53.328125" xlink:href="#m1d7fadb107" y="42.884843"/>
      </g>
     </g>
     <g id="text_14">
      <!-- 2000 -->
      <g transform="translate(20.878125 46.684061)scale(0.1 -0.1)">
       <use xlink:href="#DejaVuSans-32"/>
       <use x="63.623047" xlink:href="#DejaVuSans-30"/>
       <use x="127.246094" xlink:href="#DejaVuSans-30"/>
       <use x="190.869141" xlink:href="#DejaVuSans-30"/>
      </g>
     </g>
    </g>
    <g id="text_15">
     <!-- Refugees -->
     <defs>
      <path d="M 44.390625 34.1875 
Q 47.5625 33.109375 50.5625 29.59375 
Q 53.5625 26.078125 56.59375 19.921875 
L 66.609375 0 
L 56 0 
L 46.6875 18.703125 
Q 43.0625 26.03125 39.671875 28.421875 
Q 36.28125 30.8125 30.421875 30.8125 
L 19.671875 30.8125 
L 19.671875 0 
L 9.8125 0 
L 9.8125 72.90625 
L 32.078125 72.90625 
Q 44.578125 72.90625 50.734375 67.671875 
Q 56.890625 62.453125 56.890625 51.90625 
Q 56.890625 45.015625 53.6875 40.46875 
Q 50.484375 35.9375 44.390625 34.1875 
z
M 19.671875 64.796875 
L 19.671875 38.921875 
L 32.078125 38.921875 
Q 39.203125 38.921875 42.84375 42.21875 
Q 46.484375 45.515625 46.484375 51.90625 
Q 46.484375 58.296875 42.84375 61.546875 
Q 39.203125 64.796875 32.078125 64.796875 
z
" id="DejaVuSans-52"/>
      <path d="M 37.109375 75.984375 
L 37.109375 68.5 
L 28.515625 68.5 
Q 23.6875 68.5 21.796875 66.546875 
Q 19.921875 64.59375 19.921875 59.515625 
L 19.921875 54.6875 
L 34.71875 54.6875 
L 34.71875 47.703125 
L 19.921875 47.703125 
L 19.921875 0 
L 10.890625 0 
L 10.890625 47.703125 
L 2.296875 47.703125 
L 2.296875 54.6875 
L 10.890625 54.6875 
L 10.890625 58.5 
Q 10.890625 67.625 15.140625 71.796875 
Q 19.390625 75.984375 28.609375 75.984375 
z
" id="DejaVuSans-66"/>
      <path d="M 8.5 21.578125 
L 8.5 54.6875 
L 17.484375 54.6875 
L 17.484375 21.921875 
Q 17.484375 14.15625 20.5 10.265625 
Q 23.53125 6.390625 29.59375 6.390625 
Q 36.859375 6.390625 41.078125 11.03125 
Q 45.3125 15.671875 45.3125 23.6875 
L 45.3125 54.6875 
L 54.296875 54.6875 
L 54.296875 0 
L 45.3125 0 
L 45.3125 8.40625 
Q 42.046875 3.421875 37.71875 1 
Q 33.40625 -1.421875 27.6875 -1.421875 
Q 18.265625 -1.421875 13.375 4.4375 
Q 8.5 10.296875 8.5 21.578125 
z
M 31.109375 56 
z
" id="DejaVuSans-75"/>
      <path d="M 45.40625 27.984375 
Q 45.40625 37.75 41.375 43.109375 
Q 37.359375 48.484375 30.078125 48.484375 
Q 22.859375 48.484375 18.828125 43.109375 
Q 14.796875 37.75 14.796875 27.984375 
Q 14.796875 18.265625 18.828125 12.890625 
Q 22.859375 7.515625 30.078125 7.515625 
Q 37.359375 7.515625 41.375 12.890625 
Q 45.40625 18.265625 45.40625 27.984375 
z
M 54.390625 6.78125 
Q 54.390625 -7.171875 48.1875 -13.984375 
Q 42 -20.796875 29.203125 -20.796875 
Q 24.46875 -20.796875 20.265625 -20.09375 
Q 16.0625 -19.390625 12.109375 -17.921875 
L 12.109375 -9.1875 
Q 16.0625 -11.328125 19.921875 -12.34375 
Q 23.78125 -13.375 27.78125 -13.375 
Q 36.625 -13.375 41.015625 -8.765625 
Q 45.40625 -4.15625 45.40625 5.171875 
L 45.40625 9.625 
Q 42.625 4.78125 38.28125 2.390625 
Q 33.9375 0 27.875 0 
Q 17.828125 0 11.671875 7.65625 
Q 5.515625 15.328125 5.515625 27.984375 
Q 5.515625 40.671875 11.671875 48.328125 
Q 17.828125 56 27.875 56 
Q 33.9375 56 38.28125 53.609375 
Q 42.625 51.21875 45.40625 46.390625 
L 45.40625 54.6875 
L 54.390625 54.6875 
z
" id="DejaVuSans-67"/>
      <path d="M 44.28125 53.078125 
L 44.28125 44.578125 
Q 40.484375 46.53125 36.375 47.5 
Q 32.28125 48.484375 27.875 48.484375 
Q 21.1875 48.484375 17.84375 46.4375 
Q 14.5 44.390625 14.5 40.28125 
Q 14.5 37.15625 16.890625 35.375 
Q 19.28125 33.59375 26.515625 31.984375 
L 29.59375 31.296875 
Q 39.15625 29.25 43.1875 25.515625 
Q 47.21875 21.78125 47.21875 15.09375 
Q 47.21875 7.46875 41.1875 3.015625 
Q 35.15625 -1.421875 24.609375 -1.421875 
Q 20.21875 -1.421875 15.453125 -0.5625 
Q 10.6875 0.296875 5.421875 2 
L 5.421875 11.28125 
Q 10.40625 8.6875 15.234375 7.390625 
Q 20.0625 6.109375 24.8125 6.109375 
Q 31.15625 6.109375 34.5625 8.28125 
Q 37.984375 10.453125 37.984375 14.40625 
Q 37.984375 18.0625 35.515625 20.015625 
Q 33.0625 21.96875 24.703125 23.78125 
L 21.578125 24.515625 
Q 13.234375 26.265625 9.515625 29.90625 
Q 5.8125 33.546875 5.8125 39.890625 
Q 5.8125 47.609375 11.28125 51.796875 
Q 16.75 56 26.8125 56 
Q 31.78125 56 36.171875 55.265625 
Q 40.578125 54.546875 44.28125 53.078125 
z
" id="DejaVuSans-73"/>
     </defs>
     <g style="fill:#ff7f0e;" transform="translate(14.798437 283.588594)rotate(-90)scale(0.1 -0.1)">
      <use xlink:href="#DejaVuSans-52"/>
      <use x="69.419922" xlink:href="#DejaVuSans-65"/>
      <use x="130.943359" xlink:href="#DejaVuSans-66"/>
      <use x="166.148438" xlink:href="#DejaVuSans-75"/>
      <use x="229.527344" xlink:href="#DejaVuSans-67"/>
      <use x="293.003906" xlink:href="#DejaVuSans-65"/>
      <use x="354.527344" xlink:href="#DejaVuSans-65"/>
      <use x="416.050781" xlink:href="#DejaVuSans-73"/>
     </g>
    </g>
   </g>
   <g id="line2d_14">
    <path clip-path="url(#pcb5b88550c)" d="M 104.055398 436.584831 
L 108.909682 438.46365 
L 113.763967 440.787041 
L 118.618251 441.259146 
L 123.472536 439.520076 
L 128.32682 435.057669 
L 133.181105 419.405353 
L 138.035389 420.258375 
L 142.889673 420.216796 
L 147.743958 416.880234 
L 152.598242 409.212546 
L 157.452527 401.918899 
L 162.306811 347.906312 
L 167.161096 347.215552 
L 172.01538 341.08492 
L 176.869665 327.89083 
L 181.723949 317.213108 
L 186.578234 307.27027 
L 191.432518 269.009675 
L 196.286803 269.468556 
L 201.141087 272.676781 
L 205.995372 267.042764 
L 210.849656 263.317937 
L 215.703941 259.078022 
L 220.558225 216.064236 
L 225.41251 220.765485 
L 230.266794 229.351711 
L 235.121078 227.688037 
L 239.975363 227.01471 
L 244.829647 223.502932 
L 249.683932 154.54909 
L 254.538216 118.712619 
L 259.392501 87.574086 
L 264.246785 52.574773 
L 269.10107 38.651148 
L 273.955354 33.38 
L 278.809639 125.630549 
L 283.663923 117.640071 
L 288.518208 115.074101 
L 293.372492 103.522001 
L 298.226777 100.28336 
L 303.081061 95.430806 
L 307.935346 311.90143 
L 312.78963 309.798078 
L 317.643914 310.127866 
L 322.498199 306.450374 
L 327.352483 303.365164 
L 332.206768 298.532653 
L 337.061052 339.553407 
L 341.915337 339.252166 
L 351.623906 351.301366 
L 356.47819 358.696679 
L 361.332475 358.460006 
L 366.186759 359.763905 
L 371.041044 359.056254 
L 375.895328 364.707833 
L 380.749613 370.912977 
L 385.603897 378.343784 
L 390.458182 378.30003 
L 395.312466 374.724726 
L 400.16675 379.112137 
L 405.021035 381.795959 
L 409.875319 379.147574 
L 414.729604 375.410821 
L 419.583888 368.765272 
L 424.438173 353.427243 
L 429.292457 385.04236 
L 434.146742 410.760116 
L 439.001026 419.73601 
L 443.855311 415.419929 
L 448.709595 406.55558 
L 453.56388 399.621829 
L 458.418164 403.001589 
L 463.272449 407.086076 
L 468.126733 407.960533 
L 472.981018 405.788782 
L 477.835302 400.640686 
L 482.689587 399.672959 
L 487.543871 400.646985 
L 492.398155 400.128701 
L 497.25244 394.90172 
L 511.815293 380.74113 
L 516.669578 386.576612 
L 521.523862 390.64699 
L 526.378147 388.549202 
L 531.232431 380.644307 
L 536.086716 372.103347 
L 540.941 395.827 
L 545.795285 396.026046 
L 550.649569 393.069095 
L 555.503854 385.661248 
L 560.358138 379.215238 
L 565.212423 371.803133 
L 570.066707 384.381473 
L 574.920991 382.888678 
L 579.775276 374.249026 
L 584.62956 358.704369 
L 589.483845 345.546971 
L 594.338129 334.760242 
L 599.192414 363.018781 
L 604.046698 375.382546 
L 608.900983 397.176956 
L 613.755267 411.991251 
L 618.609552 405.986902 
L 623.463836 402.542873 
L 628.318121 402.475224 
L 633.172405 406.567757 
L 638.02669 412.051732 
L 642.880974 414.883335 
L 647.735259 416.187441 
L 652.589543 412.660255 
L 657.443827 424.209539 
L 662.298112 427.000783 
L 667.152396 426.707952 
L 672.006681 421.692087 
L 676.860965 415.956823 
L 681.71525 409.677682 
L 686.569534 448.6459 
L 696.278103 452.243634 
L 701.132388 452.46791 
L 705.986672 451.559008 
L 710.840957 447.591585 
L 715.695241 439.682381 
L 720.549526 441.778485 
L 725.40381 445.254591 
L 730.258095 447.62185 
L 735.112379 448.737359 
L 739.966663 445.716738 
L 744.820948 458.932502 
L 749.675232 457.444436 
L 754.529517 456.49876 
L 759.383801 455.177528 
L 764.238086 452.13824 
L 769.09237 447.722382 
L 773.946655 465.884931 
L 778.800939 465.039499 
L 788.509508 465.238467 
L 793.363793 464.291418 
L 798.218077 460.86372 
L 803.072362 473.6715 
L 807.926646 472.865835 
L 812.780931 473.425455 
L 817.635215 474.571511 
L 822.4895 475.263423 
L 827.343784 472.730404 
L 832.198068 474.899383 
L 837.052353 474.905107 
L 846.760922 476.693359 
L 851.615206 476.792971 
L 856.469491 473.837903 
L 861.323775 479.128652 
L 866.17806 478.382714 
L 871.032344 478.754059 
L 875.886629 479.683799 
L 880.740913 480.050689 
L 885.595198 477.40361 
L 890.449482 479.128652 
L 895.303767 478.382714 
L 900.158051 478.754059 
L 905.012336 479.683799 
L 909.86662 480.050689 
L 914.720904 477.40361 
L 919.575189 478.849274 
L 924.429473 477.888144 
L 929.283758 478.216697 
L 934.138042 479.252624 
L 938.992327 479.826092 
L 943.846611 477.332248 
L 948.700896 474.010703 
L 953.55518 473.899068 
L 958.409465 474.736294 
L 963.263749 475.729779 
L 968.118034 475.952357 
L 972.972318 473.069332 
L 977.826603 479.128652 
L 982.680887 478.382714 
L 987.535172 478.754059 
L 992.389456 479.683799 
L 997.24374 480.050689 
L 1002.098025 477.40361 
L 1006.952309 473.173595 
L 1011.806594 471.527298 
L 1016.660878 471.754074 
L 1026.369447 474.353152 
L 1031.223732 472.245406 
L 1036.078016 465.716578 
L 1045.786585 467.911692 
L 1050.64087 468.008951 
L 1055.495154 466.978752 
L 1060.349439 463.182146 
L 1065.203723 455.529984 
L 1070.058008 451.424622 
L 1074.912292 448.768124 
L 1079.766577 447.298725 
L 1084.620861 447.312998 
L 1089.475145 444.382959 
L 1094.32943 446.730253 
L 1099.183714 447.253223 
L 1104.037999 445.741811 
L 1108.892283 440.924123 
L 1113.746568 430.68896 
L 1118.600852 422.325848 
L 1118.600852 422.325848 
" style="fill:none;stroke:#008000;stroke-dasharray:5.55,2.4;stroke-dashoffset:0;stroke-width:1.5;"/>
   </g>
   <g id="line2d_15">
    <path clip-path="url(#pcb5b88550c)" d="M 104.055398 418.729586 
L 108.909682 427.377755 
L 113.763967 450.751185 
L 118.618251 450.049982 
L 123.472536 444.206624 
L 128.32682 443.505421 
L 133.181105 415.924775 
L 138.035389 405.172997 
L 142.889673 380.163428 
L 147.743958 408.912746 
L 152.598242 395.589891 
L 157.452527 351.881578 
L 162.306811 384.370645 
L 167.161096 317.288903 
L 172.01538 317.522637 
L 176.869665 341.831004 
L 181.723949 284.566102 
L 186.578234 303.264845 
L 191.432518 242.026461 
L 196.286803 273.346856 
L 201.141087 251.609567 
L 205.995372 258.621595 
L 210.849656 292.045599 
L 215.703941 200.421756 
L 220.558225 211.874737 
L 225.41251 300.927503 
L 230.266794 192.942259 
L 235.121078 228.469872 
L 239.975363 213.978345 
L 244.829647 213.978345 
L 249.683932 169.802564 
L 254.538216 203.460302 
L 259.392501 197.383211 
L 264.246785 200.889225 
L 269.10107 217.951828 
L 273.955354 150.636352 
L 278.809639 259.089064 
L 283.663923 235.248166 
L 288.518208 282.462493 
L 293.372492 267.269764 
L 298.226777 309.809406 
L 303.081061 309.108203 
L 307.935346 326.170806 
L 312.78963 360.296013 
L 317.643914 313.782889 
L 322.498199 314.484092 
L 327.352483 344.635815 
L 332.206768 365.204433 
L 337.061052 344.402081 
L 341.915337 359.828544 
L 346.769621 350.011704 
L 351.623906 354.218921 
L 356.47819 376.423679 
L 361.332475 362.399622 
L 366.186759 368.710448 
L 371.041044 360.763482 
L 375.895328 360.529747 
L 380.749613 377.592351 
L 385.603897 367.074308 
L 390.458182 376.657414 
L 395.312466 354.920124 
L 400.16675 366.840573 
L 405.021035 394.187486 
L 409.875319 375.255008 
L 414.729604 387.175457 
L 419.583888 256.517987 
L 424.438173 414.288635 
L 429.292457 416.859712 
L 434.146742 392.551346 
L 439.001026 426.910287 
L 443.855311 404.705529 
L 448.709595 405.8742 
L 453.56388 402.368186 
L 458.418164 421.534398 
L 463.272449 413.821166 
L 468.126733 378.994756 
L 472.981018 410.315152 
L 477.835302 381.332099 
L 482.689587 435.324721 
L 487.543871 424.572944 
L 492.398155 396.758563 
L 497.25244 398.628437 
L 502.106724 374.086336 
L 506.961009 379.929694 
L 511.815293 405.172997 
L 516.669578 392.78508 
L 521.523862 410.081417 
L 526.378147 328.274415 
L 531.232431 358.192404 
L 536.086716 383.669442 
L 540.941 429.948832 
L 545.795285 430.88377 
L 550.649569 395.122423 
L 560.358138 374.787539 
L 565.212423 396.992297 
L 570.066707 404.705529 
L 574.920991 409.380215 
L 579.775276 382.734505 
L 584.62956 310.04314 
L 589.483845 298.356425 
L 594.338129 369.645385 
L 599.192414 410.548886 
L 604.046698 402.60192 
L 608.900983 412.185026 
L 613.755267 387.87666 
L 618.609552 419.898258 
L 623.463836 416.625978 
L 628.318121 412.886229 
L 633.172405 419.898258 
L 638.02669 426.676552 
L 642.880974 404.004326 
L 647.735259 420.599461 
L 652.589543 423.170538 
L 657.443827 441.635547 
L 662.298112 436.727127 
L 667.152396 436.259658 
L 672.006681 431.351238 
L 676.860965 452.621059 
L 681.71525 447.946373 
L 686.569534 432.286175 
L 691.423819 448.413842 
L 696.278103 437.194596 
L 701.132388 433.922315 
L 705.986672 448.647576 
L 710.840957 450.283716 
L 715.695241 458.931885 
L 720.549526 454.958402 
L 725.40381 452.15359 
L 730.258095 458.931885 
L 735.112379 466.177648 
L 739.966663 461.736696 
L 744.820948 467.580054 
L 749.675232 461.269228 
L 754.529517 465.943914 
L 759.383801 468.748725 
L 764.238086 463.139102 
L 769.09237 464.775242 
L 773.946655 477.16316 
L 778.800939 475.760754 
L 783.655224 460.334291 
L 788.509508 462.437899 
L 793.363793 471.787271 
L 798.218077 472.021005 
L 803.072362 470.852334 
L 807.926646 469.449928 
L 812.780931 477.864363 
L 817.635215 470.618599 
L 822.4895 472.722208 
L 827.343784 475.293285 
L 832.198068 475.994488 
L 837.052353 480.669174 
L 841.906637 475.760754 
L 846.760922 477.630628 
L 851.615206 473.423411 
L 856.469491 479.033034 
L 861.323775 474.825817 
L 866.17806 482.305314 
L 871.032344 483.006517 
L 875.886629 481.370377 
L 880.740913 472.021005 
L 885.595198 482.07158 
L 890.449482 486.278797 
L 895.303767 482.07158 
L 900.158051 481.837846 
L 905.012336 486.278797 
L 909.86662 486.98 
L 914.720904 478.098097 
L 919.575189 472.955942 
L 924.429473 479.033034 
L 929.283758 476.461957 
L 934.138042 473.189677 
L 938.992327 482.07158 
L 943.846611 468.748725 
L 948.700896 478.331831 
L 953.55518 474.124614 
L 958.409465 478.331831 
L 963.263749 475.52702 
L 968.118034 475.760754 
L 977.826603 477.630628 
L 982.680887 475.994488 
L 987.535172 474.124614 
L 992.389456 473.423411 
L 997.24374 475.293285 
L 1002.098025 471.787271 
L 1006.952309 479.500503 
L 1011.806594 481.136643 
L 1016.660878 471.553537 
L 1021.515163 463.139102 
L 1026.369447 472.488474 
L 1036.078016 473.423411 
L 1040.932301 461.736696 
L 1045.786585 466.177648 
L 1050.64087 467.813788 
L 1055.495154 470.384865 
L 1060.349439 458.931885 
L 1065.203723 464.307774 
L 1070.058008 459.866822 
L 1074.912292 446.543967 
L 1079.766577 454.490933 
L 1084.620861 432.052441 
L 1089.475145 447.946373 
L 1094.32943 435.79219 
L 1099.183714 434.15605 
L 1104.037999 440.233141 
L 1108.892283 437.662064 
L 1113.746568 408.679012 
L 1118.600852 404.004326 
L 1118.600852 404.004326 
" style="fill:none;stroke:#ff7f0e;stroke-linecap:square;stroke-width:1.5;"/>
   </g>
   <g id="line2d_16">
    <defs>
     <path d="M 0 3 
C 0.795609 3 1.55874 2.683901 2.12132 2.12132 
C 2.683901 1.55874 3 0.795609 3 0 
C 3 -0.795609 2.683901 -1.55874 2.12132 -2.12132 
C 1.55874 -2.683901 0.795609 -3 0 -3 
C -0.795609 -3 -1.55874 -2.683901 -2.12132 -2.12132 
C -2.683901 -1.55874 -3 -0.795609 -3 0 
C -3 0.795609 -2.683901 1.55874 -2.12132 2.12132 
C -1.55874 2.683901 -0.795609 3 0 3 
z
" id="m85c4a07070" style="stroke:#008000;"/>
    </defs>
    <g clip-path="url(#pcb5b88550c)">
     <use style="fill:#008000;stroke:#008000;" x="104.055398" xlink:href="#m85c4a07070" y="436.584831"/>
     <use style="fill:#008000;stroke:#008000;" x="133.181105" xlink:href="#m85c4a07070" y="419.405353"/>
     <use style="fill:#008000;stroke:#008000;" x="162.306811" xlink:href="#m85c4a07070" y="347.906312"/>
     <use style="fill:#008000;stroke:#008000;" x="191.432518" xlink:href="#m85c4a07070" y="269.009675"/>
     <use style="fill:#008000;stroke:#008000;" x="220.558225" xlink:href="#m85c4a07070" y="216.064236"/>
     <use style="fill:#008000;stroke:#008000;" x="249.683932" xlink:href="#m85c4a07070" y="154.54909"/>
     <use style="fill:#008000;stroke:#008000;" x="278.809639" xlink:href="#m85c4a07070" y="125.630549"/>
     <use style="fill:#008000;stroke:#008000;" x="307.935346" xlink:href="#m85c4a07070" y="311.90143"/>
     <use style="fill:#008000;stroke:#008000;" x="337.061052" xlink:href="#m85c4a07070" y="339.553407"/>
     <use style="fill:#008000;stroke:#008000;" x="366.186759" xlink:href="#m85c4a07070" y="359.763905"/>
     <use style="fill:#008000;stroke:#008000;" x="395.312466" xlink:href="#m85c4a07070" y="374.724726"/>
     <use style="fill:#008000;stroke:#008000;" x="424.438173" xlink:href="#m85c4a07070" y="353.427243"/>
     <use style="fill:#008000;stroke:#008000;" x="453.56388" xlink:href="#m85c4a07070" y="399.621829"/>
     <use style="fill:#008000;stroke:#008000;" x="482.689587" xlink:href="#m85c4a07070" y="399.672959"/>
     <use style="fill:#008000;stroke:#008000;" x="511.815293" xlink:href="#m85c4a07070" y="380.74113"/>
     <use style="fill:#008000;stroke:#008000;" x="540.941" xlink:href="#m85c4a07070" y="395.827"/>
     <use style="fill:#008000;stroke:#008000;" x="570.066707" xlink:href="#m85c4a07070" y="384.381473"/>
     <use style="fill:#008000;stroke:#008000;" x="599.192414" xlink:href="#m85c4a07070" y="363.018781"/>
     <use style="fill:#008000;stroke:#008000;" x="628.318121" xlink:href="#m85c4a07070" y="402.475224"/>
     <use style="fill:#008000;stroke:#008000;" x="657.443827" xlink:href="#m85c4a07070" y="424.209539"/>
     <use style="fill:#008000;stroke:#008000;" x="686.569534" xlink:href="#m85c4a07070" y="448.6459"/>
     <use style="fill:#008000;stroke:#008000;" x="715.695241" xlink:href="#m85c4a07070" y="439.682381"/>
     <use style="fill:#008000;stroke:#008000;" x="744.820948" xlink:href="#m85c4a07070" y="458.932502"/>
     <use style="fill:#008000;stroke:#008000;" x="773.946655" xlink:href="#m85c4a07070" y="465.884931"/>
     <use style="fill:#008000;stroke:#008000;" x="803.072362" xlink:href="#m85c4a07070" y="473.6715"/>
     <use style="fill:#008000;stroke:#008000;" x="832.198068" xlink:href="#m85c4a07070" y="474.899383"/>
     <use style="fill:#008000;stroke:#008000;" x="861.323775" xlink:href="#m85c4a07070" y="479.128652"/>
     <use style="fill:#008000;stroke:#008000;" x="890.449482" xlink:href="#m85c4a07070" y="479.128652"/>
     <use style="fill:#008000;stroke:#008000;" x="919.575189" xlink:href="#m85c4a07070" y="478.849274"/>
     <use style="fill:#008000;stroke:#008000;" x="948.700896" xlink:href="#m85c4a07070" y="474.010703"/>
     <use style="fill:#008000;stroke:#008000;" x="977.826603" xlink:href="#m85c4a07070" y="479.128652"/>
     <use style="fill:#008000;stroke:#008000;" x="1006.952309" xlink:href="#m85c4a07070" y="473.173595"/>
     <use style="fill:#008000;stroke:#008000;" x="1036.078016" xlink:href="#m85c4a07070" y="465.716578"/>
     <use style="fill:#008000;stroke:#008000;" x="1065.203723" xlink:href="#m85c4a07070" y="455.529984"/>
     <use style="fill:#008000;stroke:#008000;" x="1094.32943" xlink:href="#m85c4a07070" y="446.730253"/>
    </g>
   </g>
   <g id="patch_3">
    <path d="M 53.328125 509.66 
L 53.328125 10.7 
" style="fill:none;stroke:#000000;stroke-linecap:square;stroke-linejoin:miter;stroke-width:0.8;"/>
   </g>
   <g id="patch_4">
    <path d="M 1169.328125 509.66 
L 1169.328125 10.7 
" style="fill:none;stroke:#000000;stroke-linecap:square;stroke-linejoin:miter;stroke-width:0.8;"/>
   </g>
   <g id="patch_5">
    <path d="M 53.328125 509.66 
L 1169.328125 509.66 
" style="fill:none;stroke:#000000;stroke-linecap:square;stroke-linejoin:miter;stroke-width:0.8;"/>
   </g>
   <g id="patch_6">
    <path d="M 53.328125 10.7 
L 1169.328125 10.7 
" style="fill:none;stroke:#000000;stroke-linecap:square;stroke-linejoin:miter;stroke-width:0.8;"/>
   </g>
   <g id="legend_1">
    <g id="patch_7">
     <path d="M 60.328125 62.734375 
L 208.103125 62.734375 
Q 210.103125 62.734375 210.103125 60.734375 
L 210.103125 17.7 
Q 210.103125 15.7 208.103125 15.7 
L 60.328125 15.7 
Q 58.328125 15.7 58.328125 17.7 
L 58.328125 60.734375 
Q 58.328125 62.734375 60.328125 62.734375 
z
" style="fill:#ffffff;opacity:0.8;stroke:#cccccc;stroke-linejoin:miter;"/>
    </g>
    <g id="line2d_17">
     <path d="M 62.328125 23.798437 
L 82.328125 23.798437 
" style="fill:none;stroke:#008000;stroke-dasharray:5.55,2.4;stroke-dashoffset:0;stroke-width:1.5;"/>
    </g>
    <g id="line2d_18"/>
    <g id="text_16">
     <!-- Predicated -->
     <defs>
      <path d="M 19.671875 64.796875 
L 19.671875 37.40625 
L 32.078125 37.40625 
Q 38.96875 37.40625 42.71875 40.96875 
Q 46.484375 44.53125 46.484375 51.125 
Q 46.484375 57.671875 42.71875 61.234375 
Q 38.96875 64.796875 32.078125 64.796875 
z
M 9.8125 72.90625 
L 32.078125 72.90625 
Q 44.34375 72.90625 50.609375 67.359375 
Q 56.890625 61.8125 56.890625 51.125 
Q 56.890625 40.328125 50.609375 34.8125 
Q 44.34375 29.296875 32.078125 29.296875 
L 19.671875 29.296875 
L 19.671875 0 
L 9.8125 0 
z
" id="DejaVuSans-50"/>
      <path d="M 41.109375 46.296875 
Q 39.59375 47.171875 37.8125 47.578125 
Q 36.03125 48 33.890625 48 
Q 26.265625 48 22.1875 43.046875 
Q 18.109375 38.09375 18.109375 28.8125 
L 18.109375 0 
L 9.078125 0 
L 9.078125 54.6875 
L 18.109375 54.6875 
L 18.109375 46.1875 
Q 20.953125 51.171875 25.484375 53.578125 
Q 30.03125 56 36.53125 56 
Q 37.453125 56 38.578125 55.875 
Q 39.703125 55.765625 41.0625 55.515625 
z
" id="DejaVuSans-72"/>
      <path d="M 45.40625 46.390625 
L 45.40625 75.984375 
L 54.390625 75.984375 
L 54.390625 0 
L 45.40625 0 
L 45.40625 8.203125 
Q 42.578125 3.328125 38.25 0.953125 
Q 33.9375 -1.421875 27.875 -1.421875 
Q 17.96875 -1.421875 11.734375 6.484375 
Q 5.515625 14.40625 5.515625 27.296875 
Q 5.515625 40.1875 11.734375 48.09375 
Q 17.96875 56 27.875 56 
Q 33.9375 56 38.25 53.625 
Q 42.578125 51.265625 45.40625 46.390625 
z
M 14.796875 27.296875 
Q 14.796875 17.390625 18.875 11.75 
Q 22.953125 6.109375 30.078125 6.109375 
Q 37.203125 6.109375 41.296875 11.75 
Q 45.40625 17.390625 45.40625 27.296875 
Q 45.40625 37.203125 41.296875 42.84375 
Q 37.203125 48.484375 30.078125 48.484375 
Q 22.953125 48.484375 18.875 42.84375 
Q 14.796875 37.203125 14.796875 27.296875 
z
" id="DejaVuSans-64"/>
      <path d="M 48.78125 52.59375 
L 48.78125 44.1875 
Q 44.96875 46.296875 41.140625 47.34375 
Q 37.3125 48.390625 33.40625 48.390625 
Q 24.65625 48.390625 19.8125 42.84375 
Q 14.984375 37.3125 14.984375 27.296875 
Q 14.984375 17.28125 19.8125 11.734375 
Q 24.65625 6.203125 33.40625 6.203125 
Q 37.3125 6.203125 41.140625 7.25 
Q 44.96875 8.296875 48.78125 10.40625 
L 48.78125 2.09375 
Q 45.015625 0.34375 40.984375 -0.53125 
Q 36.96875 -1.421875 32.421875 -1.421875 
Q 20.0625 -1.421875 12.78125 6.34375 
Q 5.515625 14.109375 5.515625 27.296875 
Q 5.515625 40.671875 12.859375 48.328125 
Q 20.21875 56 33.015625 56 
Q 37.15625 56 41.109375 55.140625 
Q 45.0625 54.296875 48.78125 52.59375 
z
" id="DejaVuSans-63"/>
      <path d="M 34.28125 27.484375 
Q 23.390625 27.484375 19.1875 25 
Q 14.984375 22.515625 14.984375 16.5 
Q 14.984375 11.71875 18.140625 8.90625 
Q 21.296875 6.109375 26.703125 6.109375 
Q 34.1875 6.109375 38.703125 11.40625 
Q 43.21875 16.703125 43.21875 25.484375 
L 43.21875 27.484375 
z
M 52.203125 31.203125 
L 52.203125 0 
L 43.21875 0 
L 43.21875 8.296875 
Q 40.140625 3.328125 35.546875 0.953125 
Q 30.953125 -1.421875 24.3125 -1.421875 
Q 15.921875 -1.421875 10.953125 3.296875 
Q 6 8.015625 6 15.921875 
Q 6 25.140625 12.171875 29.828125 
Q 18.359375 34.515625 30.609375 34.515625 
L 43.21875 34.515625 
L 43.21875 35.40625 
Q 43.21875 41.609375 39.140625 45 
Q 35.0625 48.390625 27.6875 48.390625 
Q 23 48.390625 18.546875 47.265625 
Q 14.109375 46.140625 10.015625 43.890625 
L 10.015625 52.203125 
Q 14.9375 54.109375 19.578125 55.046875 
Q 24.21875 56 28.609375 56 
Q 40.484375 56 46.34375 49.84375 
Q 52.203125 43.703125 52.203125 31.203125 
z
" id="DejaVuSans-61"/>
      <path d="M 18.3125 70.21875 
L 18.3125 54.6875 
L 36.8125 54.6875 
L 36.8125 47.703125 
L 18.3125 47.703125 
L 18.3125 18.015625 
Q 18.3125 11.328125 20.140625 9.421875 
Q 21.96875 7.515625 27.59375 7.515625 
L 36.8125 7.515625 
L 36.8125 0 
L 27.59375 0 
Q 17.1875 0 13.234375 3.875 
Q 9.28125 7.765625 9.28125 18.015625 
L 9.28125 47.703125 
L 2.6875 47.703125 
L 2.6875 54.6875 
L 9.28125 54.6875 
L 9.28125 70.21875 
z
" id="DejaVuSans-74"/>
     </defs>
     <g transform="translate(90.328125 27.298437)scale(0.1 -0.1)">
      <use xlink:href="#DejaVuSans-50"/>
      <use x="60.287109" xlink:href="#DejaVuSans-72"/>
      <use x="101.369141" xlink:href="#DejaVuSans-65"/>
      <use x="162.892578" xlink:href="#DejaVuSans-64"/>
      <use x="226.369141" xlink:href="#DejaVuSans-69"/>
      <use x="254.152344" xlink:href="#DejaVuSans-63"/>
      <use x="309.132812" xlink:href="#DejaVuSans-61"/>
      <use x="370.412109" xlink:href="#DejaVuSans-74"/>
      <use x="409.621094" xlink:href="#DejaVuSans-65"/>
      <use x="471.144531" xlink:href="#DejaVuSans-64"/>
     </g>
    </g>
    <g id="line2d_19">
     <path d="M 62.328125 38.476562 
L 82.328125 38.476562 
" style="fill:none;stroke:#ff7f0e;stroke-linecap:square;stroke-width:1.5;"/>
    </g>
    <g id="line2d_20"/>
    <g id="text_17">
     <!-- Real Data -->
     <defs>
      <path d="M 9.421875 75.984375 
L 18.40625 75.984375 
L 18.40625 0 
L 9.421875 0 
z
" id="DejaVuSans-6c"/>
      <path id="DejaVuSans-20"/>
      <path d="M 19.671875 64.796875 
L 19.671875 8.109375 
L 31.59375 8.109375 
Q 46.6875 8.109375 53.6875 14.9375 
Q 60.6875 21.78125 60.6875 36.53125 
Q 60.6875 51.171875 53.6875 57.984375 
Q 46.6875 64.796875 31.59375 64.796875 
z
M 9.8125 72.90625 
L 30.078125 72.90625 
Q 51.265625 72.90625 61.171875 64.09375 
Q 71.09375 55.28125 71.09375 36.53125 
Q 71.09375 17.671875 61.125 8.828125 
Q 51.171875 0 30.078125 0 
L 9.8125 0 
z
" id="DejaVuSans-44"/>
     </defs>
     <g transform="translate(90.328125 41.976562)scale(0.1 -0.1)">
      <use xlink:href="#DejaVuSans-52"/>
      <use x="69.419922" xlink:href="#DejaVuSans-65"/>
      <use x="130.943359" xlink:href="#DejaVuSans-61"/>
      <use x="192.222656" xlink:href="#DejaVuSans-6c"/>
      <use x="220.005859" xlink:href="#DejaVuSans-20"/>
      <use x="251.792969" xlink:href="#DejaVuSans-44"/>
      <use x="328.794922" xlink:href="#DejaVuSans-61"/>
      <use x="390.074219" xlink:href="#DejaVuSans-74"/>
      <use x="429.283203" xlink:href="#DejaVuSans-61"/>
     </g>
    </g>
    <g id="line2d_21"/>
    <g id="line2d_22">
     <g>
      <use style="fill:#008000;stroke:#008000;" x="72.328125" xlink:href="#m85c4a07070" y="53.154688"/>
     </g>
    </g>
    <g id="text_18">
     <!-- Start Point for Forecast -->
     <defs>
      <path d="M 53.515625 70.515625 
L 53.515625 60.890625 
Q 47.90625 63.578125 42.921875 64.890625 
Q 37.9375 66.21875 33.296875 66.21875 
Q 25.25 66.21875 20.875 63.09375 
Q 16.5 59.96875 16.5 54.203125 
Q 16.5 49.359375 19.40625 46.890625 
Q 22.3125 44.4375 30.421875 42.921875 
L 36.375 41.703125 
Q 47.40625 39.59375 52.65625 34.296875 
Q 57.90625 29 57.90625 20.125 
Q 57.90625 9.515625 50.796875 4.046875 
Q 43.703125 -1.421875 29.984375 -1.421875 
Q 24.8125 -1.421875 18.96875 -0.25 
Q 13.140625 0.921875 6.890625 3.21875 
L 6.890625 13.375 
Q 12.890625 10.015625 18.65625 8.296875 
Q 24.421875 6.59375 29.984375 6.59375 
Q 38.421875 6.59375 43.015625 9.90625 
Q 47.609375 13.234375 47.609375 19.390625 
Q 47.609375 24.75 44.3125 27.78125 
Q 41.015625 30.8125 33.5 32.328125 
L 27.484375 33.5 
Q 16.453125 35.6875 11.515625 40.375 
Q 6.59375 45.0625 6.59375 53.421875 
Q 6.59375 63.09375 13.40625 68.65625 
Q 20.21875 74.21875 32.171875 74.21875 
Q 37.3125 74.21875 42.625 73.28125 
Q 47.953125 72.359375 53.515625 70.515625 
z
" id="DejaVuSans-53"/>
      <path d="M 30.609375 48.390625 
Q 23.390625 48.390625 19.1875 42.75 
Q 14.984375 37.109375 14.984375 27.296875 
Q 14.984375 17.484375 19.15625 11.84375 
Q 23.34375 6.203125 30.609375 6.203125 
Q 37.796875 6.203125 41.984375 11.859375 
Q 46.1875 17.53125 46.1875 27.296875 
Q 46.1875 37.015625 41.984375 42.703125 
Q 37.796875 48.390625 30.609375 48.390625 
z
M 30.609375 56 
Q 42.328125 56 49.015625 48.375 
Q 55.71875 40.765625 55.71875 27.296875 
Q 55.71875 13.875 49.015625 6.21875 
Q 42.328125 -1.421875 30.609375 -1.421875 
Q 18.84375 -1.421875 12.171875 6.21875 
Q 5.515625 13.875 5.515625 27.296875 
Q 5.515625 40.765625 12.171875 48.375 
Q 18.84375 56 30.609375 56 
z
" id="DejaVuSans-6f"/>
      <path d="M 54.890625 33.015625 
L 54.890625 0 
L 45.90625 0 
L 45.90625 32.71875 
Q 45.90625 40.484375 42.875 44.328125 
Q 39.84375 48.1875 33.796875 48.1875 
Q 26.515625 48.1875 22.3125 43.546875 
Q 18.109375 38.921875 18.109375 30.90625 
L 18.109375 0 
L 9.078125 0 
L 9.078125 54.6875 
L 18.109375 54.6875 
L 18.109375 46.1875 
Q 21.34375 51.125 25.703125 53.5625 
Q 30.078125 56 35.796875 56 
Q 45.21875 56 50.046875 50.171875 
Q 54.890625 44.34375 54.890625 33.015625 
z
" id="DejaVuSans-6e"/>
      <path d="M 9.8125 72.90625 
L 51.703125 72.90625 
L 51.703125 64.59375 
L 19.671875 64.59375 
L 19.671875 43.109375 
L 48.578125 43.109375 
L 48.578125 34.8125 
L 19.671875 34.8125 
L 19.671875 0 
L 9.8125 0 
z
" id="DejaVuSans-46"/>
     </defs>
     <g transform="translate(90.328125 56.654688)scale(0.1 -0.1)">
      <use xlink:href="#DejaVuSans-53"/>
      <use x="63.476562" xlink:href="#DejaVuSans-74"/>
      <use x="102.685547" xlink:href="#DejaVuSans-61"/>
      <use x="163.964844" xlink:href="#DejaVuSans-72"/>
      <use x="205.078125" xlink:href="#DejaVuSans-74"/>
      <use x="244.287109" xlink:href="#DejaVuSans-20"/>
      <use x="276.074219" xlink:href="#DejaVuSans-50"/>
      <use x="336.330078" xlink:href="#DejaVuSans-6f"/>
      <use x="397.511719" xlink:href="#DejaVuSans-69"/>
      <use x="425.294922" xlink:href="#DejaVuSans-6e"/>
      <use x="488.673828" xlink:href="#DejaVuSans-74"/>
      <use x="527.882812" xlink:href="#DejaVuSans-20"/>
      <use x="559.669922" xlink:href="#DejaVuSans-66"/>
      <use x="594.875" xlink:href="#DejaVuSans-6f"/>
      <use x="656.056641" xlink:href="#DejaVuSans-72"/>
      <use x="697.169922" xlink:href="#DejaVuSans-20"/>
      <use x="728.957031" xlink:href="#DejaVuSans-46"/>
      <use x="786.429688" xlink:href="#DejaVuSans-6f"/>
      <use x="847.611328" xlink:href="#DejaVuSans-72"/>
      <use x="888.693359" xlink:href="#DejaVuSans-65"/>
      <use x="950.216797" xlink:href="#DejaVuSans-63"/>
      <use x="1005.197266" xlink:href="#DejaVuSans-61"/>
      <use x="1066.476562" xlink:href="#DejaVuSans-73"/>
      <use x="1118.576172" xlink:href="#DejaVuSans-74"/>
     </g>
    </g>
   </g>
  </g>
  <g id="axes_2">
   <g id="patch_8">
    <path d="M 53.328125 645.74 
L 1170.768125 645.74 
L 1170.768125 516.14 
L 53.328125 516.14 
z
" style="fill:none;"/>
   </g>
   <g id="matplotlib.axis_3">
    <g id="xtick_6">
     <g id="line2d_23">
      <g>
       <use style="stroke:#000000;stroke-width:0.8;" x="104.120852" xlink:href="#meb8ce6137a" y="645.74"/>
      </g>
     </g>
     <g id="text_19">
      <!-- 0 -->
      <g transform="translate(100.939602 660.338437)scale(0.1 -0.1)">
       <use xlink:href="#DejaVuSans-30"/>
      </g>
     </g>
    </g>
    <g id="xtick_7">
     <g id="line2d_24">
      <g>
       <use style="stroke:#000000;stroke-width:0.8;" x="228.612831" xlink:href="#meb8ce6137a" y="645.74"/>
      </g>
     </g>
     <g id="text_20">
      <!-- 25 -->
      <g transform="translate(222.250331 660.338437)scale(0.1 -0.1)">
       <use xlink:href="#DejaVuSans-32"/>
       <use x="63.623047" xlink:href="#DejaVuSans-35"/>
      </g>
     </g>
    </g>
    <g id="xtick_8">
     <g id="line2d_25">
      <g>
       <use style="stroke:#000000;stroke-width:0.8;" x="353.104809" xlink:href="#meb8ce6137a" y="645.74"/>
      </g>
     </g>
     <g id="text_21">
      <!-- 50 -->
      <g transform="translate(346.742309 660.338437)scale(0.1 -0.1)">
       <use xlink:href="#DejaVuSans-35"/>
       <use x="63.623047" xlink:href="#DejaVuSans-30"/>
      </g>
     </g>
    </g>
    <g id="xtick_9">
     <g id="line2d_26">
      <g>
       <use style="stroke:#000000;stroke-width:0.8;" x="477.596788" xlink:href="#meb8ce6137a" y="645.74"/>
      </g>
     </g>
     <g id="text_22">
      <!-- 75 -->
      <g transform="translate(471.234288 660.338437)scale(0.1 -0.1)">
       <use xlink:href="#DejaVuSans-37"/>
       <use x="63.623047" xlink:href="#DejaVuSans-35"/>
      </g>
     </g>
    </g>
    <g id="xtick_10">
     <g id="line2d_27">
      <g>
       <use style="stroke:#000000;stroke-width:0.8;" x="602.088767" xlink:href="#meb8ce6137a" y="645.74"/>
      </g>
     </g>
     <g id="text_23">
      <!-- 100 -->
      <g transform="translate(592.545017 660.338437)scale(0.1 -0.1)">
       <use xlink:href="#DejaVuSans-31"/>
       <use x="63.623047" xlink:href="#DejaVuSans-30"/>
       <use x="127.246094" xlink:href="#DejaVuSans-30"/>
      </g>
     </g>
    </g>
    <g id="xtick_11">
     <g id="line2d_28">
      <g>
       <use style="stroke:#000000;stroke-width:0.8;" x="726.580745" xlink:href="#meb8ce6137a" y="645.74"/>
      </g>
     </g>
     <g id="text_24">
      <!-- 125 -->
      <g transform="translate(717.036995 660.338437)scale(0.1 -0.1)">
       <use xlink:href="#DejaVuSans-31"/>
       <use x="63.623047" xlink:href="#DejaVuSans-32"/>
       <use x="127.246094" xlink:href="#DejaVuSans-35"/>
      </g>
     </g>
    </g>
    <g id="xtick_12">
     <g id="line2d_29">
      <g>
       <use style="stroke:#000000;stroke-width:0.8;" x="851.072724" xlink:href="#meb8ce6137a" y="645.74"/>
      </g>
     </g>
     <g id="text_25">
      <!-- 150 -->
      <g transform="translate(841.528974 660.338437)scale(0.1 -0.1)">
       <use xlink:href="#DejaVuSans-31"/>
       <use x="63.623047" xlink:href="#DejaVuSans-35"/>
       <use x="127.246094" xlink:href="#DejaVuSans-30"/>
      </g>
     </g>
    </g>
    <g id="xtick_13">
     <g id="line2d_30">
      <g>
       <use style="stroke:#000000;stroke-width:0.8;" x="975.564703" xlink:href="#meb8ce6137a" y="645.74"/>
      </g>
     </g>
     <g id="text_26">
      <!-- 175 -->
      <g transform="translate(966.020953 660.338437)scale(0.1 -0.1)">
       <use xlink:href="#DejaVuSans-31"/>
       <use x="63.623047" xlink:href="#DejaVuSans-37"/>
       <use x="127.246094" xlink:href="#DejaVuSans-35"/>
      </g>
     </g>
    </g>
    <g id="xtick_14">
     <g id="line2d_31">
      <g>
       <use style="stroke:#000000;stroke-width:0.8;" x="1100.056681" xlink:href="#meb8ce6137a" y="645.74"/>
      </g>
     </g>
     <g id="text_27">
      <!-- 200 -->
      <g transform="translate(1090.512931 660.338437)scale(0.1 -0.1)">
       <use xlink:href="#DejaVuSans-32"/>
       <use x="63.623047" xlink:href="#DejaVuSans-30"/>
       <use x="127.246094" xlink:href="#DejaVuSans-30"/>
      </g>
     </g>
    </g>
   </g>
   <g id="matplotlib.axis_4">
    <g id="ytick_9">
     <g id="line2d_32">
      <g>
       <use style="stroke:#000000;stroke-width:0.8;" x="53.328125" xlink:href="#m1d7fadb107" y="627.225031"/>
      </g>
     </g>
     <g id="text_28">
      <!-- 15 -->
      <g transform="translate(33.603125 631.02425)scale(0.1 -0.1)">
       <use xlink:href="#DejaVuSans-31"/>
       <use x="63.623047" xlink:href="#DejaVuSans-35"/>
      </g>
     </g>
    </g>
    <g id="ytick_10">
     <g id="line2d_33">
      <g>
       <use style="stroke:#000000;stroke-width:0.8;" x="53.328125" xlink:href="#m1d7fadb107" y="593.054232"/>
      </g>
     </g>
     <g id="text_29">
      <!-- 20 -->
      <g transform="translate(33.603125 596.85345)scale(0.1 -0.1)">
       <use xlink:href="#DejaVuSans-32"/>
       <use x="63.623047" xlink:href="#DejaVuSans-30"/>
      </g>
     </g>
    </g>
    <g id="ytick_11">
     <g id="line2d_34">
      <g>
       <use style="stroke:#000000;stroke-width:0.8;" x="53.328125" xlink:href="#m1d7fadb107" y="558.883433"/>
      </g>
     </g>
     <g id="text_30">
      <!-- 25 -->
      <g transform="translate(33.603125 562.682651)scale(0.1 -0.1)">
       <use xlink:href="#DejaVuSans-32"/>
       <use x="63.623047" xlink:href="#DejaVuSans-35"/>
      </g>
     </g>
    </g>
    <g id="ytick_12">
     <g id="line2d_35">
      <g>
       <use style="stroke:#000000;stroke-width:0.8;" x="53.328125" xlink:href="#m1d7fadb107" y="524.712633"/>
      </g>
     </g>
     <g id="text_31">
      <!-- 30 -->
      <defs>
       <path d="M 40.578125 39.3125 
Q 47.65625 37.796875 51.625 33 
Q 55.609375 28.21875 55.609375 21.1875 
Q 55.609375 10.40625 48.1875 4.484375 
Q 40.765625 -1.421875 27.09375 -1.421875 
Q 22.515625 -1.421875 17.65625 -0.515625 
Q 12.796875 0.390625 7.625 2.203125 
L 7.625 11.71875 
Q 11.71875 9.328125 16.59375 8.109375 
Q 21.484375 6.890625 26.8125 6.890625 
Q 36.078125 6.890625 40.9375 10.546875 
Q 45.796875 14.203125 45.796875 21.1875 
Q 45.796875 27.640625 41.28125 31.265625 
Q 36.765625 34.90625 28.71875 34.90625 
L 20.21875 34.90625 
L 20.21875 43.015625 
L 29.109375 43.015625 
Q 36.375 43.015625 40.234375 45.921875 
Q 44.09375 48.828125 44.09375 54.296875 
Q 44.09375 59.90625 40.109375 62.90625 
Q 36.140625 65.921875 28.71875 65.921875 
Q 24.65625 65.921875 20.015625 65.03125 
Q 15.375 64.15625 9.8125 62.3125 
L 9.8125 71.09375 
Q 15.4375 72.65625 20.34375 73.4375 
Q 25.25 74.21875 29.59375 74.21875 
Q 40.828125 74.21875 47.359375 69.109375 
Q 53.90625 64.015625 53.90625 55.328125 
Q 53.90625 49.265625 50.4375 45.09375 
Q 46.96875 40.921875 40.578125 39.3125 
z
" id="DejaVuSans-33"/>
      </defs>
      <g transform="translate(33.603125 528.511852)scale(0.1 -0.1)">
       <use xlink:href="#DejaVuSans-33"/>
       <use x="63.623047" xlink:href="#DejaVuSans-30"/>
      </g>
     </g>
    </g>
    <g id="text_32">
     <!-- Temperature -->
     <defs>
      <path d="M 18.109375 8.203125 
L 18.109375 -20.796875 
L 9.078125 -20.796875 
L 9.078125 54.6875 
L 18.109375 54.6875 
L 18.109375 46.390625 
Q 20.953125 51.265625 25.265625 53.625 
Q 29.59375 56 35.59375 56 
Q 45.5625 56 51.78125 48.09375 
Q 58.015625 40.1875 58.015625 27.296875 
Q 58.015625 14.40625 51.78125 6.484375 
Q 45.5625 -1.421875 35.59375 -1.421875 
Q 29.59375 -1.421875 25.265625 0.953125 
Q 20.953125 3.328125 18.109375 8.203125 
z
M 48.6875 27.296875 
Q 48.6875 37.203125 44.609375 42.84375 
Q 40.53125 48.484375 33.40625 48.484375 
Q 26.265625 48.484375 22.1875 42.84375 
Q 18.109375 37.203125 18.109375 27.296875 
Q 18.109375 17.390625 22.1875 11.75 
Q 26.265625 6.109375 33.40625 6.109375 
Q 40.53125 6.109375 44.609375 11.75 
Q 48.6875 17.390625 48.6875 27.296875 
z
" id="DejaVuSans-70"/>
     </defs>
     <g style="fill:#0000ff;" transform="translate(27.523437 613.557187)rotate(-90)scale(0.1 -0.1)">
      <use xlink:href="#DejaVuSans-54"/>
      <use x="60.818359" xlink:href="#DejaVuSans-65"/>
      <use x="122.341797" xlink:href="#DejaVuSans-6d"/>
      <use x="219.753906" xlink:href="#DejaVuSans-70"/>
      <use x="283.230469" xlink:href="#DejaVuSans-65"/>
      <use x="344.753906" xlink:href="#DejaVuSans-72"/>
      <use x="385.867188" xlink:href="#DejaVuSans-61"/>
      <use x="447.146484" xlink:href="#DejaVuSans-74"/>
      <use x="486.355469" xlink:href="#DejaVuSans-75"/>
      <use x="549.734375" xlink:href="#DejaVuSans-72"/>
      <use x="590.816406" xlink:href="#DejaVuSans-65"/>
     </g>
    </g>
   </g>
   <g id="line2d_36">
    <path clip-path="url(#p7e088bb511)" d="M 104.120852 541.161089 
L 109.100531 536.131831 
L 114.080211 541.71534 
L 119.05989 540.973833 
L 124.039569 545.180259 
L 129.019248 542.971458 
L 133.998927 542.289409 
L 138.978606 543.548945 
L 143.958285 536.661478 
L 148.937965 534.839491 
L 153.917644 534.301643 
L 158.897323 532.554148 
L 163.877002 531.836562 
L 168.856681 532.267114 
L 173.83636 533.005886 
L 178.816039 536.06964 
L 183.795719 536.482423 
L 188.775398 534.208698 
L 193.755077 534.459512 
L 198.734756 533.316841 
L 208.694114 529.310656 
L 213.673793 532.028602 
L 218.653473 530.262655 
L 223.633152 530.191579 
L 228.612831 523.625319 
L 233.59251 528.435884 
L 238.572189 529.577188 
L 243.551868 534.4971 
L 248.531547 533.050992 
L 253.511227 529.572404 
L 263.470585 527.539242 
L 268.450264 532.081225 
L 273.429943 527.054017 
L 278.409622 530.847659 
L 283.389301 527.710779 
L 288.368981 534.046729 
L 293.34866 534.257904 
L 298.328339 534.951572 
L 303.308018 540.469472 
L 308.287697 543.222955 
L 313.267376 540.880205 
L 318.247055 537.487728 
L 323.226735 539.427263 
L 328.206414 541.844505 
L 333.186093 538.761616 
L 338.165772 539.637755 
L 343.145451 540.216608 
L 348.12513 537.074262 
L 353.104809 533.562187 
L 358.084489 536.178303 
L 363.064168 540.276066 
L 368.043847 542.542956 
L 373.023526 541.376365 
L 378.003205 537.847889 
L 382.982884 535.78944 
L 387.962564 540.421633 
L 392.942243 543.201769 
L 397.921922 547.396577 
L 402.901601 542.336565 
L 407.88128 536.144133 
L 412.860959 540.77701 
L 417.840638 535.287129 
L 422.820318 540.222076 
L 427.799997 543.480603 
L 432.779676 540.914376 
L 437.759355 541.280687 
L 442.739034 536.414765 
L 447.718713 535.022647 
L 452.698392 534.043995 
L 457.678072 536.538464 
L 462.657751 534.122588 
L 467.63743 534.240819 
L 472.617109 532.138631 
L 477.596788 535.315832 
L 487.556146 537.91213 
L 492.535826 541.513049 
L 497.515505 542.594896 
L 502.495184 538.795787 
L 507.474863 538.262722 
L 512.454542 540.264448 
L 517.434221 538.277757 
L 522.4139 536.940996 
L 527.39358 539.665092 
L 532.373259 534.960456 
L 537.352938 536.250062 
L 542.332617 541.903962 
L 547.312296 542.938654 
L 552.291975 541.276587 
L 557.271654 531.308964 
L 562.251334 534.709642 
L 567.231013 538.581194 
L 572.210692 538.117155 
L 577.190371 537.414603 
L 582.17005 535.080054 
L 587.149729 534.672055 
L 592.129408 535.060918 
L 597.109088 538.033094 
L 602.088767 542.840926 
L 607.068446 540.043021 
L 612.048125 537.592291 
L 617.027804 536.979267 
L 622.007483 540.56105 
L 626.987162 535.694445 
L 631.966842 541.894395 
L 636.946521 541.534918 
L 641.9262 538.261355 
L 646.905879 537.380432 
L 651.885558 536.844634 
L 656.865237 538.417174 
L 661.844916 546.031112 
L 666.824596 545.346329 
L 671.804275 541.793249 
L 676.783954 540.906175 
L 681.763633 541.124185 
L 686.743312 534.037161 
L 691.722991 533.211595 
L 696.70267 532.563716 
L 701.68235 533.743292 
L 706.662029 525.862823 
L 711.641708 525.083728 
L 716.621387 527.701895 
L 721.601066 536.876071 
L 726.580745 531.211919 
L 731.560424 524.345639 
L 736.540104 526.679505 
L 741.519783 522.455994 
L 746.499462 528.517894 
L 751.479141 527.68481 
L 756.45882 534.056297 
L 761.438499 535.667108 
L 766.418178 530.668604 
L 771.397858 531.594632 
L 776.377537 532.783093 
L 781.357216 540.800929 
L 786.336895 540.503643 
L 791.316574 532.863736 
L 796.296253 531.508522 
L 806.255612 533.9449 
L 811.235291 533.733041 
L 816.21497 535.265943 
L 821.194649 523.554927 
L 826.174328 526.650118 
L 831.154007 529.470575 
L 836.133686 535.738183 
L 841.113366 537.117317 
L 846.093045 535.550244 
L 851.072724 534.635833 
L 856.052403 537.64013 
L 861.032082 530.790252 
L 866.011761 534.498467 
L 875.97112 525.099447 
L 880.950799 529.402917 
L 885.930478 526.14439 
L 890.910157 525.97627 
L 895.889836 530.455378 
L 900.869515 530.2278 
L 905.849195 527.820126 
L 910.828874 523.992996 
L 915.808553 534.063131 
L 920.788232 527.427845 
L 925.767911 528.301251 
L 930.74759 530.925568 
L 935.727269 531.824944 
L 940.706949 522.030909 
L 945.686628 528.150216 
L 950.666307 527.924689 
L 955.645986 527.559744 
L 960.625665 534.611914 
L 965.605344 530.323479 
L 970.585023 527.423061 
L 975.564703 531.814009 
L 980.544382 532.463937 
L 985.524061 527.213936 
L 990.50374 526.429374 
L 995.483419 531.747034 
L 1000.463098 526.101335 
L 1005.442777 526.186078 
L 1010.422457 526.715042 
L 1015.402136 531.094372 
L 1020.381815 534.121221 
L 1025.361494 529.806133 
L 1030.341173 527.423745 
L 1035.320852 532.337506 
L 1040.300531 527.118258 
L 1045.280211 530.184062 
L 1050.25989 527.922638 
L 1055.239569 528.457753 
L 1060.219248 531.594632 
L 1065.198927 523.116174 
L 1070.178606 522.464878 
L 1075.158285 524.971648 
L 1080.137965 535.113541 
L 1085.117644 526.022058 
L 1090.097323 522.936435 
L 1095.077002 526.945353 
L 1100.056681 523.544675 
L 1105.03636 535.523591 
L 1110.016039 530.107519 
L 1114.995719 531.593949 
L 1119.975398 532.197405 
L 1119.975398 532.197405 
" style="fill:none;stroke:#ff0000;stroke-linecap:square;stroke-width:1.5;"/>
   </g>
   <g id="line2d_37">
    <path clip-path="url(#p7e088bb511)" d="M 104.120852 572.530566 
L 109.100531 572.964535 
L 114.080211 575.06604 
L 119.05989 574.473518 
L 124.039569 574.496071 
L 129.019248 576.097314 
L 133.998927 576.519665 
L 138.978606 575.029135 
L 148.937965 571.132981 
L 153.917644 571.920276 
L 158.897323 571.398829 
L 163.877002 572.198426 
L 168.856681 570.255475 
L 173.83636 573.250203 
L 178.816039 570.845946 
L 188.775398 573.567308 
L 193.755077 570.485102 
L 198.734756 567.108344 
L 203.714435 565.640366 
L 208.694114 564.382198 
L 213.673793 565.433291 
L 218.653473 567.337288 
L 223.633152 566.405109 
L 228.612831 561.56174 
L 233.59251 566.513772 
L 238.572189 564.045957 
L 243.551868 566.839078 
L 248.531547 565.472929 
L 253.511227 564.420469 
L 258.490906 562.867748 
L 263.470585 562.942924 
L 268.450264 565.954738 
L 273.429943 562.745416 
L 278.409622 566.474134 
L 283.389301 564.349394 
L 288.368981 562.69416 
L 293.34866 562.582763 
L 298.328339 564.331625 
L 303.308018 565.640366 
L 313.267376 561.674503 
L 318.247055 560.140918 
L 328.206414 563.276431 
L 333.186093 560.132034 
L 338.165772 564.709554 
L 343.145451 563.691947 
L 348.12513 561.595911 
L 353.104809 564.033655 
L 358.084489 565.183161 
L 363.064168 564.339826 
L 368.043847 570.951192 
L 373.023526 566.198034 
L 378.003205 562.531507 
L 382.982884 560.450505 
L 387.962564 567.693348 
L 392.942243 566.823359 
L 397.921922 567.464404 
L 402.901601 570.307414 
L 407.88128 560.723872 
L 412.860959 567.020867 
L 417.840638 566.190516 
L 422.820318 566.567078 
L 427.799997 565.442176 
L 432.779676 565.686839 
L 437.759355 562.874582 
L 442.739034 560.618626 
L 447.718713 561.446242 
L 452.698392 561.405921 
L 457.678072 565.282256 
L 462.657751 562.260874 
L 467.63743 562.705778 
L 472.617109 561.3697 
L 477.596788 566.500104 
L 482.576467 567.34959 
L 487.556146 567.707016 
L 492.535826 567.824564 
L 497.515505 564.867423 
L 502.495184 567.331821 
L 507.474863 565.109352 
L 512.454542 564.76081 
L 517.434221 565.272005 
L 522.4139 563.532711 
L 527.39358 561.922583 
L 532.373259 561.778383 
L 537.352938 561.118886 
L 542.332617 566.524707 
L 547.312296 565.380668 
L 552.291975 563.217657 
L 557.271654 560.605641 
L 562.251334 563.46232 
L 567.231013 564.559202 
L 572.210692 565.222799 
L 577.190371 564.668549 
L 582.17005 563.322219 
L 587.149729 565.343764 
L 592.129408 563.791726 
L 597.109088 568.623477 
L 602.088767 567.958513 
L 607.068446 569.148341 
L 612.048125 568.45399 
L 617.027804 568.548301 
L 622.007483 566.245873 
L 626.987162 565.317794 
L 631.966842 568.199076 
L 636.946521 566.24929 
L 641.9262 570.165947 
L 646.905879 567.364625 
L 651.885558 565.127121 
L 656.865237 566.729731 
L 661.844916 570.732499 
L 666.824596 572.777279 
L 671.804275 567.940745 
L 676.783954 566.972344 
L 681.763633 568.236664 
L 686.743312 561.727126 
L 691.722991 559.628356 
L 696.70267 561.567891 
L 701.68235 561.530303 
L 706.662029 556.450472 
L 711.641708 556.461406 
L 721.601066 562.691426 
L 726.580745 561.049178 
L 731.560424 558.743332 
L 741.519783 554.782253 
L 746.499462 560.813399 
L 751.479141 558.633986 
L 756.45882 562.926522 
L 761.438499 564.025454 
L 766.418178 562.459748 
L 771.397858 562.703044 
L 776.377537 563.422682 
L 781.357216 568.443739 
L 786.336895 569.803053 
L 791.316574 565.932868 
L 796.296253 564.095163 
L 801.275932 565.94722 
L 806.255612 564.788147 
L 811.235291 562.66614 
L 816.21497 561.492031 
L 821.194649 561.704574 
L 826.174328 559.604436 
L 831.154007 560.302204 
L 836.133686 566.964827 
L 841.113366 565.963622 
L 846.093045 565.879562 
L 851.072724 566.293712 
L 861.032082 562.05585 
L 866.011761 563.418581 
L 870.991441 557.060079 
L 875.97112 557.561706 
L 880.950799 557.688138 
L 885.930478 558.550609 
L 890.910157 558.591614 
L 895.889836 563.195104 
L 900.869515 560.568053 
L 905.849195 561.045761 
L 910.828874 557.59656 
L 915.808553 561.505016 
L 920.788232 558.238971 
L 925.767911 557.699756 
L 930.74759 561.5057 
L 935.727269 558.176097 
L 940.706949 558.963392 
L 945.686628 560.037039 
L 950.666307 558.905302 
L 955.645986 560.107431 
L 960.625665 562.954542 
L 965.605344 560.825701 
L 970.585023 559.022166 
L 975.564703 559.083673 
L 980.544382 565.847441 
L 985.524061 555.888704 
L 990.50374 557.665585 
L 995.483419 560.10128 
L 1000.463098 557.078531 
L 1005.442777 556.958933 
L 1010.422457 559.089141 
L 1015.402136 562.441296 
L 1020.381815 561.913016 
L 1025.361494 560.114948 
L 1035.320852 557.701806 
L 1040.300531 558.376338 
L 1045.280211 558.586147 
L 1050.25989 556.6842 
L 1055.239569 559.85115 
L 1060.219248 559.258628 
L 1065.198927 557.207013 
L 1070.178606 552.582337 
L 1075.158285 557.045044 
L 1080.137965 561.122303 
L 1085.117644 555.889387 
L 1090.097323 557.211114 
L 1095.077002 557.744178 
L 1100.056681 554.514354 
L 1105.03636 556.345226 
L 1110.016039 555.827196 
L 1114.995719 558.153544 
L 1119.975398 561.527569 
L 1119.975398 561.527569 
" style="fill:none;stroke:#008000;stroke-linecap:square;stroke-width:1.5;"/>
   </g>
   <g id="line2d_38">
    <path clip-path="url(#p7e088bb511)" d="M 104.120852 600.883445 
L 109.100531 601.849795 
L 114.080211 601.94069 
L 119.05989 603.941732 
L 124.039569 600.411205 
L 129.019248 599.817316 
L 133.998927 604.202797 
L 138.978606 602.448468 
L 143.958285 598.476454 
L 148.937965 594.121044 
L 153.917644 587.232211 
L 158.897323 597.467049 
L 168.856681 595.075093 
L 173.83636 595.258932 
L 178.816039 595.9649 
L 183.795719 590.879602 
L 188.775398 592.879277 
L 193.755077 605.678292 
L 198.734756 597.575028 
L 203.714435 591.840485 
L 208.694114 588.287405 
L 213.673793 593.374754 
L 218.653473 595.087394 
L 223.633152 589.216851 
L 228.612831 583.589604 
L 233.59251 589.514137 
L 238.572189 592.930533 
L 243.551868 596.695472 
L 248.531547 587.507628 
L 253.511227 597.986445 
L 258.490906 595.386047 
L 263.470585 593.523738 
L 268.450264 586.554946 
L 273.429943 584.556637 
L 278.409622 592.704323 
L 283.389301 592.363298 
L 288.368981 588.16439 
L 293.34866 587.974401 
L 298.328339 589.249655 
L 303.308018 589.686358 
L 308.287697 586.051268 
L 313.267376 586.193419 
L 318.247055 586.900754 
L 323.226735 586.272695 
L 328.206414 588.653033 
L 333.186093 584.860757 
L 338.165772 590.488005 
L 343.145451 587.58007 
L 348.12513 586.459951 
L 353.104809 589.013876 
L 358.084489 587.517195 
L 368.043847 593.469749 
L 373.023526 590.103242 
L 378.003205 588.707023 
L 382.982884 584.940034 
L 387.962564 587.688049 
L 392.942243 588.342079 
L 397.921922 587.433819 
L 402.901601 587.377095 
L 407.88128 585.839409 
L 412.860959 590.583683 
L 417.840638 594.022632 
L 422.820318 588.698822 
L 427.799997 589.075384 
L 432.779676 586.697096 
L 437.759355 586.080655 
L 442.739034 581.326813 
L 447.718713 580.799216 
L 452.698392 583.099595 
L 457.678072 583.988035 
L 462.657751 588.21838 
L 467.63743 587.839084 
L 472.617109 588.634581 
L 477.596788 588.517716 
L 482.576467 589.319363 
L 487.556146 587.649778 
L 492.535826 588.929133 
L 497.515505 586.48182 
L 502.495184 586.80781 
L 507.474863 584.41517 
L 512.454542 586.111409 
L 517.434221 588.429556 
L 522.4139 590.600085 
L 527.39358 585.384254 
L 532.373259 587.878722 
L 537.352938 587.09006 
L 542.332617 588.946902 
L 547.312296 585.040496 
L 552.291975 583.615574 
L 557.271654 588.323626 
L 562.251334 585.421842 
L 567.231013 588.227265 
L 572.210692 588.415887 
L 582.17005 586.562463 
L 587.149729 587.519929 
L 592.129408 585.87358 
L 597.109088 590.306899 
L 602.088767 596.092016 
L 607.068446 585.750565 
L 612.048125 599.476292 
L 617.027804 598.213339 
L 622.007483 600.0941 
L 626.987162 595.342992 
L 631.966842 592.712524 
L 636.946521 592.517067 
L 641.9262 595.393565 
L 651.885558 595.418851 
L 656.865237 592.696805 
L 661.844916 598.522926 
L 666.824596 600.726943 
L 671.804275 597.785521 
L 676.783954 597.854546 
L 686.743312 590.626738 
L 691.722991 590.490738 
L 696.70267 580.314674 
L 701.68235 591.457772 
L 706.662029 586.556996 
L 711.641708 587.865054 
L 716.621387 587.327889 
L 721.601066 595.068942 
L 726.580745 590.47297 
L 731.560424 594.620621 
L 736.540104 589.885232 
L 741.519783 584.812918 
L 746.499462 585.074667 
L 751.479141 583.681865 
L 756.45882 588.057094 
L 761.438499 593.370653 
L 766.418178 590.573432 
L 771.397858 591.349792 
L 776.377537 592.996825 
L 781.357216 593.117789 
L 786.336895 595.293102 
L 791.316574 596.311392 
L 796.296253 592.563539 
L 801.275932 594.55638 
L 806.255612 589.535323 
L 811.235291 591.213109 
L 816.21497 590.780507 
L 821.194649 588.071446 
L 826.174328 591.897208 
L 831.154007 596.512317 
L 836.133686 594.082773 
L 841.113366 593.838793 
L 846.093045 590.648607 
L 851.072724 594.091657 
L 856.052403 598.911107 
L 861.032082 590.775039 
L 866.011761 590.962295 
L 870.991441 584.876476 
L 875.97112 590.633572 
L 880.950799 588.989957 
L 885.930478 589.684991 
L 890.910157 591.66553 
L 895.889836 593.313246 
L 900.869515 591.103763 
L 905.849195 592.225248 
L 910.828874 589.90095 
L 915.808553 594.712882 
L 920.788232 587.653879 
L 925.767911 588.232732 
L 930.74759 586.518725 
L 935.727269 590.161332 
L 940.706949 588.473978 
L 945.686628 590.250859 
L 950.666307 592.49178 
L 955.645986 591.064124 
L 960.625665 592.59976 
L 965.605344 590.216005 
L 970.585023 590.352005 
L 975.564703 594.978731 
L 980.544382 592.01954 
L 985.524061 586.216655 
L 990.50374 585.119772 
L 995.483419 587.400331 
L 1000.463098 585.184697 
L 1005.442777 590.259744 
L 1010.422457 592.064645 
L 1015.402136 592.031841 
L 1020.381815 591.35936 
L 1025.361494 589.764267 
L 1030.341173 589.962458 
L 1035.320852 592.832805 
L 1040.300531 587.732471 
L 1045.280211 588.551204 
L 1050.25989 583.977101 
L 1055.239569 586.829679 
L 1060.219248 586.960211 
L 1065.198927 585.516837 
L 1070.178606 586.155831 
L 1075.158285 586.945176 
L 1080.137965 587.212392 
L 1085.117644 588.203345 
L 1090.097323 589.935805 
L 1095.077002 586.911689 
L 1100.056681 583.014168 
L 1105.03636 587.08391 
L 1110.016039 585.829841 
L 1114.995719 592.814353 
L 1119.975398 589.335082 
L 1119.975398 589.335082 
" style="fill:none;stroke:#0000ff;stroke-linecap:square;stroke-width:1.5;"/>
   </g>
   <g id="line2d_39">
    <defs>
     <path d="M 0 3 
C 0.795609 3 1.55874 2.683901 2.12132 2.12132 
C 2.683901 1.55874 3 0.795609 3 0 
C 3 -0.795609 2.683901 -1.55874 2.12132 -2.12132 
C 1.55874 -2.683901 0.795609 -3 0 -3 
C -0.795609 -3 -1.55874 -2.683901 -2.12132 -2.12132 
C -2.683901 -1.55874 -3 -0.795609 -3 0 
C -3 0.795609 -2.683901 1.55874 -2.12132 2.12132 
C -1.55874 2.683901 -0.795609 3 0 3 
z
" id="mf54cf68634" style="stroke:#ff0000;"/>
    </defs>
    <g clip-path="url(#p7e088bb511)">
     <use style="fill:#ff0000;stroke:#ff0000;" x="119.05989" xlink:href="#mf54cf68634" y="639.849091"/>
     <use style="fill:#ff0000;stroke:#ff0000;" x="124.039569" xlink:href="#mf54cf68634" y="639.849091"/>
     <use style="fill:#ff0000;stroke:#ff0000;" x="129.019248" xlink:href="#mf54cf68634" y="639.849091"/>
     <use style="fill:#ff0000;stroke:#ff0000;" x="138.978606" xlink:href="#mf54cf68634" y="639.849091"/>
     <use style="fill:#ff0000;stroke:#ff0000;" x="153.917644" xlink:href="#mf54cf68634" y="639.849091"/>
     <use style="fill:#ff0000;stroke:#ff0000;" x="173.83636" xlink:href="#mf54cf68634" y="639.849091"/>
     <use style="fill:#ff0000;stroke:#ff0000;" x="183.795719" xlink:href="#mf54cf68634" y="639.849091"/>
     <use style="fill:#ff0000;stroke:#ff0000;" x="208.694114" xlink:href="#mf54cf68634" y="639.849091"/>
     <use style="fill:#ff0000;stroke:#ff0000;" x="218.653473" xlink:href="#mf54cf68634" y="639.849091"/>
     <use style="fill:#ff0000;stroke:#ff0000;" x="228.612831" xlink:href="#mf54cf68634" y="639.849091"/>
     <use style="fill:#ff0000;stroke:#ff0000;" x="243.551868" xlink:href="#mf54cf68634" y="639.849091"/>
     <use style="fill:#ff0000;stroke:#ff0000;" x="248.531547" xlink:href="#mf54cf68634" y="639.849091"/>
     <use style="fill:#ff0000;stroke:#ff0000;" x="268.450264" xlink:href="#mf54cf68634" y="639.849091"/>
     <use style="fill:#ff0000;stroke:#ff0000;" x="278.409622" xlink:href="#mf54cf68634" y="639.849091"/>
     <use style="fill:#ff0000;stroke:#ff0000;" x="283.389301" xlink:href="#mf54cf68634" y="639.849091"/>
     <use style="fill:#ff0000;stroke:#ff0000;" x="288.368981" xlink:href="#mf54cf68634" y="639.849091"/>
     <use style="fill:#ff0000;stroke:#ff0000;" x="298.328339" xlink:href="#mf54cf68634" y="639.849091"/>
     <use style="fill:#ff0000;stroke:#ff0000;" x="303.308018" xlink:href="#mf54cf68634" y="639.849091"/>
     <use style="fill:#ff0000;stroke:#ff0000;" x="323.226735" xlink:href="#mf54cf68634" y="639.849091"/>
     <use style="fill:#ff0000;stroke:#ff0000;" x="333.186093" xlink:href="#mf54cf68634" y="639.849091"/>
     <use style="fill:#ff0000;stroke:#ff0000;" x="338.165772" xlink:href="#mf54cf68634" y="639.849091"/>
     <use style="fill:#ff0000;stroke:#ff0000;" x="348.12513" xlink:href="#mf54cf68634" y="639.849091"/>
     <use style="fill:#ff0000;stroke:#ff0000;" x="353.104809" xlink:href="#mf54cf68634" y="639.849091"/>
     <use style="fill:#ff0000;stroke:#ff0000;" x="358.084489" xlink:href="#mf54cf68634" y="639.849091"/>
     <use style="fill:#ff0000;stroke:#ff0000;" x="363.064168" xlink:href="#mf54cf68634" y="639.849091"/>
     <use style="fill:#ff0000;stroke:#ff0000;" x="368.043847" xlink:href="#mf54cf68634" y="639.849091"/>
     <use style="fill:#ff0000;stroke:#ff0000;" x="373.023526" xlink:href="#mf54cf68634" y="639.849091"/>
     <use style="fill:#ff0000;stroke:#ff0000;" x="378.003205" xlink:href="#mf54cf68634" y="639.849091"/>
     <use style="fill:#ff0000;stroke:#ff0000;" x="382.982884" xlink:href="#mf54cf68634" y="639.849091"/>
     <use style="fill:#ff0000;stroke:#ff0000;" x="387.962564" xlink:href="#mf54cf68634" y="639.849091"/>
     <use style="fill:#ff0000;stroke:#ff0000;" x="392.942243" xlink:href="#mf54cf68634" y="639.849091"/>
     <use style="fill:#ff0000;stroke:#ff0000;" x="397.921922" xlink:href="#mf54cf68634" y="639.849091"/>
     <use style="fill:#ff0000;stroke:#ff0000;" x="407.88128" xlink:href="#mf54cf68634" y="639.849091"/>
     <use style="fill:#ff0000;stroke:#ff0000;" x="417.840638" xlink:href="#mf54cf68634" y="639.849091"/>
     <use style="fill:#ff0000;stroke:#ff0000;" x="422.820318" xlink:href="#mf54cf68634" y="639.849091"/>
     <use style="fill:#ff0000;stroke:#ff0000;" x="437.759355" xlink:href="#mf54cf68634" y="639.849091"/>
     <use style="fill:#ff0000;stroke:#ff0000;" x="447.718713" xlink:href="#mf54cf68634" y="639.849091"/>
     <use style="fill:#ff0000;stroke:#ff0000;" x="452.698392" xlink:href="#mf54cf68634" y="639.849091"/>
     <use style="fill:#ff0000;stroke:#ff0000;" x="472.617109" xlink:href="#mf54cf68634" y="639.849091"/>
     <use style="fill:#ff0000;stroke:#ff0000;" x="477.596788" xlink:href="#mf54cf68634" y="639.849091"/>
     <use style="fill:#ff0000;stroke:#ff0000;" x="482.576467" xlink:href="#mf54cf68634" y="639.849091"/>
     <use style="fill:#ff0000;stroke:#ff0000;" x="492.535826" xlink:href="#mf54cf68634" y="639.849091"/>
     <use style="fill:#ff0000;stroke:#ff0000;" x="497.515505" xlink:href="#mf54cf68634" y="639.849091"/>
     <use style="fill:#ff0000;stroke:#ff0000;" x="502.495184" xlink:href="#mf54cf68634" y="639.849091"/>
     <use style="fill:#ff0000;stroke:#ff0000;" x="507.474863" xlink:href="#mf54cf68634" y="639.849091"/>
     <use style="fill:#ff0000;stroke:#ff0000;" x="512.454542" xlink:href="#mf54cf68634" y="639.849091"/>
     <use style="fill:#ff0000;stroke:#ff0000;" x="517.434221" xlink:href="#mf54cf68634" y="639.849091"/>
     <use style="fill:#ff0000;stroke:#ff0000;" x="522.4139" xlink:href="#mf54cf68634" y="639.849091"/>
     <use style="fill:#ff0000;stroke:#ff0000;" x="562.251334" xlink:href="#mf54cf68634" y="639.849091"/>
     <use style="fill:#ff0000;stroke:#ff0000;" x="567.231013" xlink:href="#mf54cf68634" y="639.849091"/>
     <use style="fill:#ff0000;stroke:#ff0000;" x="572.210692" xlink:href="#mf54cf68634" y="639.849091"/>
     <use style="fill:#ff0000;stroke:#ff0000;" x="577.190371" xlink:href="#mf54cf68634" y="639.849091"/>
     <use style="fill:#ff0000;stroke:#ff0000;" x="582.17005" xlink:href="#mf54cf68634" y="639.849091"/>
     <use style="fill:#ff0000;stroke:#ff0000;" x="587.149729" xlink:href="#mf54cf68634" y="639.849091"/>
     <use style="fill:#ff0000;stroke:#ff0000;" x="592.129408" xlink:href="#mf54cf68634" y="639.849091"/>
     <use style="fill:#ff0000;stroke:#ff0000;" x="597.109088" xlink:href="#mf54cf68634" y="639.849091"/>
     <use style="fill:#ff0000;stroke:#ff0000;" x="612.048125" xlink:href="#mf54cf68634" y="639.849091"/>
     <use style="fill:#ff0000;stroke:#ff0000;" x="622.007483" xlink:href="#mf54cf68634" y="639.849091"/>
     <use style="fill:#ff0000;stroke:#ff0000;" x="626.987162" xlink:href="#mf54cf68634" y="639.849091"/>
     <use style="fill:#ff0000;stroke:#ff0000;" x="631.966842" xlink:href="#mf54cf68634" y="639.849091"/>
     <use style="fill:#ff0000;stroke:#ff0000;" x="651.885558" xlink:href="#mf54cf68634" y="639.849091"/>
     <use style="fill:#ff0000;stroke:#ff0000;" x="656.865237" xlink:href="#mf54cf68634" y="639.849091"/>
     <use style="fill:#ff0000;stroke:#ff0000;" x="661.844916" xlink:href="#mf54cf68634" y="639.849091"/>
     <use style="fill:#ff0000;stroke:#ff0000;" x="666.824596" xlink:href="#mf54cf68634" y="639.849091"/>
     <use style="fill:#ff0000;stroke:#ff0000;" x="671.804275" xlink:href="#mf54cf68634" y="639.849091"/>
     <use style="fill:#ff0000;stroke:#ff0000;" x="676.783954" xlink:href="#mf54cf68634" y="639.849091"/>
     <use style="fill:#ff0000;stroke:#ff0000;" x="701.68235" xlink:href="#mf54cf68634" y="639.849091"/>
     <use style="fill:#ff0000;stroke:#ff0000;" x="731.560424" xlink:href="#mf54cf68634" y="639.849091"/>
     <use style="fill:#ff0000;stroke:#ff0000;" x="736.540104" xlink:href="#mf54cf68634" y="639.849091"/>
     <use style="fill:#ff0000;stroke:#ff0000;" x="741.519783" xlink:href="#mf54cf68634" y="639.849091"/>
     <use style="fill:#ff0000;stroke:#ff0000;" x="746.499462" xlink:href="#mf54cf68634" y="639.849091"/>
     <use style="fill:#ff0000;stroke:#ff0000;" x="751.479141" xlink:href="#mf54cf68634" y="639.849091"/>
     <use style="fill:#ff0000;stroke:#ff0000;" x="756.45882" xlink:href="#mf54cf68634" y="639.849091"/>
     <use style="fill:#ff0000;stroke:#ff0000;" x="761.438499" xlink:href="#mf54cf68634" y="639.849091"/>
     <use style="fill:#ff0000;stroke:#ff0000;" x="766.418178" xlink:href="#mf54cf68634" y="639.849091"/>
     <use style="fill:#ff0000;stroke:#ff0000;" x="771.397858" xlink:href="#mf54cf68634" y="639.849091"/>
     <use style="fill:#ff0000;stroke:#ff0000;" x="776.377537" xlink:href="#mf54cf68634" y="639.849091"/>
     <use style="fill:#ff0000;stroke:#ff0000;" x="781.357216" xlink:href="#mf54cf68634" y="639.849091"/>
     <use style="fill:#ff0000;stroke:#ff0000;" x="786.336895" xlink:href="#mf54cf68634" y="639.849091"/>
     <use style="fill:#ff0000;stroke:#ff0000;" x="791.316574" xlink:href="#mf54cf68634" y="639.849091"/>
     <use style="fill:#ff0000;stroke:#ff0000;" x="796.296253" xlink:href="#mf54cf68634" y="639.849091"/>
     <use style="fill:#ff0000;stroke:#ff0000;" x="801.275932" xlink:href="#mf54cf68634" y="639.849091"/>
     <use style="fill:#ff0000;stroke:#ff0000;" x="806.255612" xlink:href="#mf54cf68634" y="639.849091"/>
     <use style="fill:#ff0000;stroke:#ff0000;" x="811.235291" xlink:href="#mf54cf68634" y="639.849091"/>
     <use style="fill:#ff0000;stroke:#ff0000;" x="816.21497" xlink:href="#mf54cf68634" y="639.849091"/>
     <use style="fill:#ff0000;stroke:#ff0000;" x="821.194649" xlink:href="#mf54cf68634" y="639.849091"/>
     <use style="fill:#ff0000;stroke:#ff0000;" x="831.154007" xlink:href="#mf54cf68634" y="639.849091"/>
     <use style="fill:#ff0000;stroke:#ff0000;" x="836.133686" xlink:href="#mf54cf68634" y="639.849091"/>
     <use style="fill:#ff0000;stroke:#ff0000;" x="841.113366" xlink:href="#mf54cf68634" y="639.849091"/>
     <use style="fill:#ff0000;stroke:#ff0000;" x="846.093045" xlink:href="#mf54cf68634" y="639.849091"/>
     <use style="fill:#ff0000;stroke:#ff0000;" x="861.032082" xlink:href="#mf54cf68634" y="639.849091"/>
     <use style="fill:#ff0000;stroke:#ff0000;" x="866.011761" xlink:href="#mf54cf68634" y="639.849091"/>
     <use style="fill:#ff0000;stroke:#ff0000;" x="870.991441" xlink:href="#mf54cf68634" y="639.849091"/>
     <use style="fill:#ff0000;stroke:#ff0000;" x="895.889836" xlink:href="#mf54cf68634" y="639.849091"/>
     <use style="fill:#ff0000;stroke:#ff0000;" x="915.808553" xlink:href="#mf54cf68634" y="639.849091"/>
     <use style="fill:#ff0000;stroke:#ff0000;" x="950.666307" xlink:href="#mf54cf68634" y="639.849091"/>
     <use style="fill:#ff0000;stroke:#ff0000;" x="955.645986" xlink:href="#mf54cf68634" y="639.849091"/>
     <use style="fill:#ff0000;stroke:#ff0000;" x="960.625665" xlink:href="#mf54cf68634" y="639.849091"/>
     <use style="fill:#ff0000;stroke:#ff0000;" x="965.605344" xlink:href="#mf54cf68634" y="639.849091"/>
     <use style="fill:#ff0000;stroke:#ff0000;" x="970.585023" xlink:href="#mf54cf68634" y="639.849091"/>
     <use style="fill:#ff0000;stroke:#ff0000;" x="980.544382" xlink:href="#mf54cf68634" y="639.849091"/>
     <use style="fill:#ff0000;stroke:#ff0000;" x="985.524061" xlink:href="#mf54cf68634" y="639.849091"/>
     <use style="fill:#ff0000;stroke:#ff0000;" x="990.50374" xlink:href="#mf54cf68634" y="639.849091"/>
     <use style="fill:#ff0000;stroke:#ff0000;" x="995.483419" xlink:href="#mf54cf68634" y="639.849091"/>
     <use style="fill:#ff0000;stroke:#ff0000;" x="1015.402136" xlink:href="#mf54cf68634" y="639.849091"/>
     <use style="fill:#ff0000;stroke:#ff0000;" x="1020.381815" xlink:href="#mf54cf68634" y="639.849091"/>
     <use style="fill:#ff0000;stroke:#ff0000;" x="1025.361494" xlink:href="#mf54cf68634" y="639.849091"/>
     <use style="fill:#ff0000;stroke:#ff0000;" x="1040.300531" xlink:href="#mf54cf68634" y="639.849091"/>
     <use style="fill:#ff0000;stroke:#ff0000;" x="1050.25989" xlink:href="#mf54cf68634" y="639.849091"/>
     <use style="fill:#ff0000;stroke:#ff0000;" x="1060.219248" xlink:href="#mf54cf68634" y="639.849091"/>
     <use style="fill:#ff0000;stroke:#ff0000;" x="1065.198927" xlink:href="#mf54cf68634" y="639.849091"/>
     <use style="fill:#ff0000;stroke:#ff0000;" x="1075.158285" xlink:href="#mf54cf68634" y="639.849091"/>
     <use style="fill:#ff0000;stroke:#ff0000;" x="1080.137965" xlink:href="#mf54cf68634" y="639.849091"/>
     <use style="fill:#ff0000;stroke:#ff0000;" x="1085.117644" xlink:href="#mf54cf68634" y="639.849091"/>
     <use style="fill:#ff0000;stroke:#ff0000;" x="1090.097323" xlink:href="#mf54cf68634" y="639.849091"/>
     <use style="fill:#ff0000;stroke:#ff0000;" x="1095.077002" xlink:href="#mf54cf68634" y="639.849091"/>
    </g>
   </g>
   <g id="patch_9">
    <path d="M 53.328125 645.74 
L 53.328125 516.14 
" style="fill:none;stroke:#000000;stroke-linecap:square;stroke-linejoin:miter;stroke-width:0.8;"/>
   </g>
   <g id="patch_10">
    <path d="M 1170.768125 645.74 
L 1170.768125 516.14 
" style="fill:none;stroke:#000000;stroke-linecap:square;stroke-linejoin:miter;stroke-width:0.8;"/>
   </g>
   <g id="patch_11">
    <path d="M 53.328125 645.74 
L 1170.768125 645.74 
" style="fill:none;stroke:#000000;stroke-linecap:square;stroke-linejoin:miter;stroke-width:0.8;"/>
   </g>
   <g id="patch_12">
    <path d="M 53.328125 516.14 
L 1170.768125 516.14 
" style="fill:none;stroke:#000000;stroke-linecap:square;stroke-linejoin:miter;stroke-width:0.8;"/>
   </g>
   <g id="legend_2">
    <g id="patch_13">
     <path d="M 60.328125 582.8525 
L 151.340625 582.8525 
Q 153.340625 582.8525 153.340625 580.8525 
L 153.340625 523.14 
Q 153.340625 521.14 151.340625 521.14 
L 60.328125 521.14 
Q 58.328125 521.14 58.328125 523.14 
L 58.328125 580.8525 
Q 58.328125 582.8525 60.328125 582.8525 
z
" style="fill:#ffffff;opacity:0.8;stroke:#cccccc;stroke-linejoin:miter;"/>
    </g>
    <g id="line2d_40">
     <path d="M 62.328125 529.238437 
L 82.328125 529.238437 
" style="fill:none;stroke:#ff0000;stroke-linecap:square;stroke-width:1.5;"/>
    </g>
    <g id="line2d_41"/>
    <g id="text_33">
     <!-- Maxmimum -->
     <defs>
      <path d="M 9.8125 72.90625 
L 24.515625 72.90625 
L 43.109375 23.296875 
L 61.8125 72.90625 
L 76.515625 72.90625 
L 76.515625 0 
L 66.890625 0 
L 66.890625 64.015625 
L 48.09375 14.015625 
L 38.1875 14.015625 
L 19.390625 64.015625 
L 19.390625 0 
L 9.8125 0 
z
" id="DejaVuSans-4d"/>
      <path d="M 54.890625 54.6875 
L 35.109375 28.078125 
L 55.90625 0 
L 45.3125 0 
L 29.390625 21.484375 
L 13.484375 0 
L 2.875 0 
L 24.125 28.609375 
L 4.6875 54.6875 
L 15.28125 54.6875 
L 29.78125 35.203125 
L 44.28125 54.6875 
z
" id="DejaVuSans-78"/>
     </defs>
     <g transform="translate(90.328125 532.738437)scale(0.1 -0.1)">
      <use xlink:href="#DejaVuSans-4d"/>
      <use x="86.279297" xlink:href="#DejaVuSans-61"/>
      <use x="147.558594" xlink:href="#DejaVuSans-78"/>
      <use x="206.738281" xlink:href="#DejaVuSans-6d"/>
      <use x="304.150391" xlink:href="#DejaVuSans-69"/>
      <use x="331.933594" xlink:href="#DejaVuSans-6d"/>
      <use x="429.345703" xlink:href="#DejaVuSans-75"/>
      <use x="492.724609" xlink:href="#DejaVuSans-6d"/>
     </g>
    </g>
    <g id="line2d_42">
     <path d="M 62.328125 543.916562 
L 82.328125 543.916562 
" style="fill:none;stroke:#008000;stroke-linecap:square;stroke-width:1.5;"/>
    </g>
    <g id="line2d_43"/>
    <g id="text_34">
     <!-- Average -->
     <defs>
      <path d="M 34.1875 63.1875 
L 20.796875 26.90625 
L 47.609375 26.90625 
z
M 28.609375 72.90625 
L 39.796875 72.90625 
L 67.578125 0 
L 57.328125 0 
L 50.6875 18.703125 
L 17.828125 18.703125 
L 11.1875 0 
L 0.78125 0 
z
" id="DejaVuSans-41"/>
      <path d="M 2.984375 54.6875 
L 12.5 54.6875 
L 29.59375 8.796875 
L 46.6875 54.6875 
L 56.203125 54.6875 
L 35.6875 0 
L 23.484375 0 
z
" id="DejaVuSans-76"/>
     </defs>
     <g transform="translate(90.328125 547.416562)scale(0.1 -0.1)">
      <use xlink:href="#DejaVuSans-41"/>
      <use x="68.330078" xlink:href="#DejaVuSans-76"/>
      <use x="127.509766" xlink:href="#DejaVuSans-65"/>
      <use x="189.033203" xlink:href="#DejaVuSans-72"/>
      <use x="230.146484" xlink:href="#DejaVuSans-61"/>
      <use x="291.425781" xlink:href="#DejaVuSans-67"/>
      <use x="354.902344" xlink:href="#DejaVuSans-65"/>
     </g>
    </g>
    <g id="line2d_44">
     <path d="M 62.328125 558.594687 
L 82.328125 558.594687 
" style="fill:none;stroke:#0000ff;stroke-linecap:square;stroke-width:1.5;"/>
    </g>
    <g id="line2d_45"/>
    <g id="text_35">
     <!-- Minimum -->
     <g transform="translate(90.328125 562.094687)scale(0.1 -0.1)">
      <use xlink:href="#DejaVuSans-4d"/>
      <use x="86.279297" xlink:href="#DejaVuSans-69"/>
      <use x="114.0625" xlink:href="#DejaVuSans-6e"/>
      <use x="177.441406" xlink:href="#DejaVuSans-69"/>
      <use x="205.224609" xlink:href="#DejaVuSans-6d"/>
      <use x="302.636719" xlink:href="#DejaVuSans-75"/>
      <use x="366.015625" xlink:href="#DejaVuSans-6d"/>
     </g>
    </g>
    <g id="line2d_46"/>
    <g id="line2d_47">
     <g>
      <use style="fill:#ff0000;stroke:#ff0000;" x="72.328125" xlink:href="#mf54cf68634" y="573.272812"/>
     </g>
    </g>
    <g id="text_36">
     <!-- Disasters -->
     <g transform="translate(90.328125 576.772812)scale(0.1 -0.1)">
      <use xlink:href="#DejaVuSans-44"/>
      <use x="77.001953" xlink:href="#DejaVuSans-69"/>
      <use x="104.785156" xlink:href="#DejaVuSans-73"/>
      <use x="156.884766" xlink:href="#DejaVuSans-61"/>
      <use x="218.164062" xlink:href="#DejaVuSans-73"/>
      <use x="270.263672" xlink:href="#DejaVuSans-74"/>
      <use x="309.472656" xlink:href="#DejaVuSans-65"/>
      <use x="370.996094" xlink:href="#DejaVuSans-72"/>
      <use x="412.109375" xlink:href="#DejaVuSans-73"/>
     </g>
    </g>
   </g>
  </g>
 </g>
 <defs>
  <clipPath id="pcb5b88550c">
   <rect height="498.96" width="1116" x="53.328125" y="10.7"/>
  </clipPath>
  <clipPath id="p7e088bb511">
   <rect height="129.6" width="1117.44" x="53.328125" y="516.14"/>
  </clipPath>
 </defs>
</svg>
