<?xml version="1.0" encoding="utf-8" standalone="no"?>
<!DOCTYPE svg PUBLIC "-//W3C//DTD SVG 1.1//EN"
  "http://www.w3.org/Graphics/SVG/1.1/DTD/svg11.dtd">
<!-- Created with matplotlib (http://matplotlib.org/) -->
<svg height="669pt" version="1.1" viewBox="0 0 1175 669" width="1175pt" xmlns="http://www.w3.org/2000/svg" xmlns:xlink="http://www.w3.org/1999/xlink">
 <defs>
  <style type="text/css">
*{stroke-linecap:butt;stroke-linejoin:round;}
  </style>
 </defs>
 <g id="figure_1">
  <g id="patch_1">
   <path d="M 0 669.618125 
L 1175.105625 669.618125 
L 1175.105625 -0 
L 0 -0 
z
" style="fill:none;"/>
  </g>
  <g id="axes_1">
   <g id="patch_2">
    <path d="M 46.965625 509.66 
L 1162.965625 509.66 
L 1162.965625 10.7 
L 46.965625 10.7 
z
" style="fill:none;"/>
   </g>
   <g id="matplotlib.axis_1">
    <g id="xtick_1">
     <g id="line2d_1">
      <defs>
       <path d="M 0 0 
L 0 3.5 
" id="mf3d395a51c" style="stroke:#000000;stroke-width:0.8;"/>
      </defs>
      <g>
       <use style="stroke:#000000;stroke-width:0.8;" x="97.692898" xlink:href="#mf3d395a51c" y="509.66"/>
      </g>
     </g>
     <g id="text_1">
      <!-- 0 -->
      <defs>
       <path d="M 31.78125 66.40625 
Q 24.171875 66.40625 20.328125 58.90625 
Q 16.5 51.421875 16.5 36.375 
Q 16.5 21.390625 20.328125 13.890625 
Q 24.171875 6.390625 31.78125 6.390625 
Q 39.453125 6.390625 43.28125 13.890625 
Q 47.125 21.390625 47.125 36.375 
Q 47.125 51.421875 43.28125 58.90625 
Q 39.453125 66.40625 31.78125 66.40625 
z
M 31.78125 74.21875 
Q 44.046875 74.21875 50.515625 64.515625 
Q 56.984375 54.828125 56.984375 36.375 
Q 56.984375 17.96875 50.515625 8.265625 
Q 44.046875 -1.421875 31.78125 -1.421875 
Q 19.53125 -1.421875 13.0625 8.265625 
Q 6.59375 17.96875 6.59375 36.375 
Q 6.59375 54.828125 13.0625 64.515625 
Q 19.53125 74.21875 31.78125 74.21875 
z
" id="DejaVuSans-30"/>
      </defs>
      <g transform="translate(94.511648 524.258437)scale(0.1 -0.1)">
       <use xlink:href="#DejaVuSans-30"/>
      </g>
     </g>
    </g>
    <g id="xtick_2">
     <g id="line2d_2">
      <g>
       <use style="stroke:#000000;stroke-width:0.8;" x="340.407121" xlink:href="#mf3d395a51c" y="509.66"/>
      </g>
     </g>
     <g id="text_2">
      <!-- 50 -->
      <defs>
       <path d="M 10.796875 72.90625 
L 49.515625 72.90625 
L 49.515625 64.59375 
L 19.828125 64.59375 
L 19.828125 46.734375 
Q 21.96875 47.46875 24.109375 47.828125 
Q 26.265625 48.1875 28.421875 48.1875 
Q 40.625 48.1875 47.75 41.5 
Q 54.890625 34.8125 54.890625 23.390625 
Q 54.890625 11.625 47.5625 5.09375 
Q 40.234375 -1.421875 26.90625 -1.421875 
Q 22.3125 -1.421875 17.546875 -0.640625 
Q 12.796875 0.140625 7.71875 1.703125 
L 7.71875 11.625 
Q 12.109375 9.234375 16.796875 8.0625 
Q 21.484375 6.890625 26.703125 6.890625 
Q 35.15625 6.890625 40.078125 11.328125 
Q 45.015625 15.765625 45.015625 23.390625 
Q 45.015625 31 40.078125 35.4375 
Q 35.15625 39.890625 26.703125 39.890625 
Q 22.75 39.890625 18.8125 39.015625 
Q 14.890625 38.140625 10.796875 36.28125 
z
" id="DejaVuSans-35"/>
      </defs>
      <g transform="translate(334.044621 524.258437)scale(0.1 -0.1)">
       <use xlink:href="#DejaVuSans-35"/>
       <use x="63.623047" xlink:href="#DejaVuSans-30"/>
      </g>
     </g>
    </g>
    <g id="xtick_3">
     <g id="line2d_3">
      <g>
       <use style="stroke:#000000;stroke-width:0.8;" x="583.121345" xlink:href="#mf3d395a51c" y="509.66"/>
      </g>
     </g>
     <g id="text_3">
      <!-- 100 -->
      <defs>
       <path d="M 12.40625 8.296875 
L 28.515625 8.296875 
L 28.515625 63.921875 
L 10.984375 60.40625 
L 10.984375 69.390625 
L 28.421875 72.90625 
L 38.28125 72.90625 
L 38.28125 8.296875 
L 54.390625 8.296875 
L 54.390625 0 
L 12.40625 0 
z
" id="DejaVuSans-31"/>
      </defs>
      <g transform="translate(573.577595 524.258437)scale(0.1 -0.1)">
       <use xlink:href="#DejaVuSans-31"/>
       <use x="63.623047" xlink:href="#DejaVuSans-30"/>
       <use x="127.246094" xlink:href="#DejaVuSans-30"/>
      </g>
     </g>
    </g>
    <g id="xtick_4">
     <g id="line2d_4">
      <g>
       <use style="stroke:#000000;stroke-width:0.8;" x="825.835568" xlink:href="#mf3d395a51c" y="509.66"/>
      </g>
     </g>
     <g id="text_4">
      <!-- 150 -->
      <g transform="translate(816.291818 524.258437)scale(0.1 -0.1)">
       <use xlink:href="#DejaVuSans-31"/>
       <use x="63.623047" xlink:href="#DejaVuSans-35"/>
       <use x="127.246094" xlink:href="#DejaVuSans-30"/>
      </g>
     </g>
    </g>
    <g id="xtick_5">
     <g id="line2d_5">
      <g>
       <use style="stroke:#000000;stroke-width:0.8;" x="1068.549792" xlink:href="#mf3d395a51c" y="509.66"/>
      </g>
     </g>
     <g id="text_5">
      <!-- 200 -->
      <defs>
       <path d="M 19.1875 8.296875 
L 53.609375 8.296875 
L 53.609375 0 
L 7.328125 0 
L 7.328125 8.296875 
Q 12.9375 14.109375 22.625 23.890625 
Q 32.328125 33.6875 34.8125 36.53125 
Q 39.546875 41.84375 41.421875 45.53125 
Q 43.3125 49.21875 43.3125 52.78125 
Q 43.3125 58.59375 39.234375 62.25 
Q 35.15625 65.921875 28.609375 65.921875 
Q 23.96875 65.921875 18.8125 64.3125 
Q 13.671875 62.703125 7.8125 59.421875 
L 7.8125 69.390625 
Q 13.765625 71.78125 18.9375 73 
Q 24.125 74.21875 28.421875 74.21875 
Q 39.75 74.21875 46.484375 68.546875 
Q 53.21875 62.890625 53.21875 53.421875 
Q 53.21875 48.921875 51.53125 44.890625 
Q 49.859375 40.875 45.40625 35.40625 
Q 44.1875 33.984375 37.640625 27.21875 
Q 31.109375 20.453125 19.1875 8.296875 
z
" id="DejaVuSans-32"/>
      </defs>
      <g transform="translate(1059.006042 524.258437)scale(0.1 -0.1)">
       <use xlink:href="#DejaVuSans-32"/>
       <use x="63.623047" xlink:href="#DejaVuSans-30"/>
       <use x="127.246094" xlink:href="#DejaVuSans-30"/>
      </g>
     </g>
    </g>
    <g id="text_6">
     <!-- Time -->
     <defs>
      <path d="M -0.296875 72.90625 
L 61.375 72.90625 
L 61.375 64.59375 
L 35.5 64.59375 
L 35.5 0 
L 25.59375 0 
L 25.59375 64.59375 
L -0.296875 64.59375 
z
" id="DejaVuSans-54"/>
      <path d="M 9.421875 54.6875 
L 18.40625 54.6875 
L 18.40625 0 
L 9.421875 0 
z
M 9.421875 75.984375 
L 18.40625 75.984375 
L 18.40625 64.59375 
L 9.421875 64.59375 
z
" id="DejaVuSans-69"/>
      <path d="M 52 44.1875 
Q 55.375 50.25 60.0625 53.125 
Q 64.75 56 71.09375 56 
Q 79.640625 56 84.28125 50.015625 
Q 88.921875 44.046875 88.921875 33.015625 
L 88.921875 0 
L 79.890625 0 
L 79.890625 32.71875 
Q 79.890625 40.578125 77.09375 44.375 
Q 74.3125 48.1875 68.609375 48.1875 
Q 61.625 48.1875 57.5625 43.546875 
Q 53.515625 38.921875 53.515625 30.90625 
L 53.515625 0 
L 44.484375 0 
L 44.484375 32.71875 
Q 44.484375 40.625 41.703125 44.40625 
Q 38.921875 48.1875 33.109375 48.1875 
Q 26.21875 48.1875 22.15625 43.53125 
Q 18.109375 38.875 18.109375 30.90625 
L 18.109375 0 
L 9.078125 0 
L 9.078125 54.6875 
L 18.109375 54.6875 
L 18.109375 46.1875 
Q 21.1875 51.21875 25.484375 53.609375 
Q 29.78125 56 35.6875 56 
Q 41.65625 56 45.828125 52.96875 
Q 50 49.953125 52 44.1875 
z
" id="DejaVuSans-6d"/>
      <path d="M 56.203125 29.59375 
L 56.203125 25.203125 
L 14.890625 25.203125 
Q 15.484375 15.921875 20.484375 11.0625 
Q 25.484375 6.203125 34.421875 6.203125 
Q 39.59375 6.203125 44.453125 7.46875 
Q 49.3125 8.734375 54.109375 11.28125 
L 54.109375 2.78125 
Q 49.265625 0.734375 44.1875 -0.34375 
Q 39.109375 -1.421875 33.890625 -1.421875 
Q 20.796875 -1.421875 13.15625 6.1875 
Q 5.515625 13.8125 5.515625 26.8125 
Q 5.515625 40.234375 12.765625 48.109375 
Q 20.015625 56 32.328125 56 
Q 43.359375 56 49.78125 48.890625 
Q 56.203125 41.796875 56.203125 29.59375 
z
M 47.21875 32.234375 
Q 47.125 39.59375 43.09375 43.984375 
Q 39.0625 48.390625 32.421875 48.390625 
Q 24.90625 48.390625 20.390625 44.140625 
Q 15.875 39.890625 15.1875 32.171875 
z
" id="DejaVuSans-65"/>
     </defs>
     <g transform="translate(592.578125 537.936562)scale(0.1 -0.1)">
      <use xlink:href="#DejaVuSans-54"/>
      <use x="61.037109" xlink:href="#DejaVuSans-69"/>
      <use x="88.820312" xlink:href="#DejaVuSans-6d"/>
      <use x="186.232422" xlink:href="#DejaVuSans-65"/>
     </g>
    </g>
   </g>
   <g id="matplotlib.axis_2">
    <g id="ytick_1">
     <g id="line2d_6">
      <defs>
       <path d="M 0 0 
L -3.5 0 
" id="m8e9187e2ad" style="stroke:#000000;stroke-width:0.8;"/>
      </defs>
      <g>
       <use style="stroke:#000000;stroke-width:0.8;" x="46.965625" xlink:href="#m8e9187e2ad" y="486.98"/>
      </g>
     </g>
     <g id="text_7">
      <!-- 0 -->
      <g transform="translate(33.603125 490.779219)scale(0.1 -0.1)">
       <use xlink:href="#DejaVuSans-30"/>
      </g>
     </g>
    </g>
    <g id="ytick_2">
     <g id="line2d_7">
      <g>
       <use style="stroke:#000000;stroke-width:0.8;" x="46.965625" xlink:href="#m8e9187e2ad" y="385.553499"/>
      </g>
     </g>
     <g id="text_8">
      <!-- 50 -->
      <g transform="translate(27.240625 389.352718)scale(0.1 -0.1)">
       <use xlink:href="#DejaVuSans-35"/>
       <use x="63.623047" xlink:href="#DejaVuSans-30"/>
      </g>
     </g>
    </g>
    <g id="ytick_3">
     <g id="line2d_8">
      <g>
       <use style="stroke:#000000;stroke-width:0.8;" x="46.965625" xlink:href="#m8e9187e2ad" y="284.126999"/>
      </g>
     </g>
     <g id="text_9">
      <!-- 100 -->
      <g transform="translate(20.878125 287.926217)scale(0.1 -0.1)">
       <use xlink:href="#DejaVuSans-31"/>
       <use x="63.623047" xlink:href="#DejaVuSans-30"/>
       <use x="127.246094" xlink:href="#DejaVuSans-30"/>
      </g>
     </g>
    </g>
    <g id="ytick_4">
     <g id="line2d_9">
      <g>
       <use style="stroke:#000000;stroke-width:0.8;" x="46.965625" xlink:href="#m8e9187e2ad" y="182.700498"/>
      </g>
     </g>
     <g id="text_10">
      <!-- 150 -->
      <g transform="translate(20.878125 186.499717)scale(0.1 -0.1)">
       <use xlink:href="#DejaVuSans-31"/>
       <use x="63.623047" xlink:href="#DejaVuSans-35"/>
       <use x="127.246094" xlink:href="#DejaVuSans-30"/>
      </g>
     </g>
    </g>
    <g id="ytick_5">
     <g id="line2d_10">
      <g>
       <use style="stroke:#000000;stroke-width:0.8;" x="46.965625" xlink:href="#m8e9187e2ad" y="81.273997"/>
      </g>
     </g>
     <g id="text_11">
      <!-- 200 -->
      <g transform="translate(20.878125 85.073216)scale(0.1 -0.1)">
       <use xlink:href="#DejaVuSans-32"/>
       <use x="63.623047" xlink:href="#DejaVuSans-30"/>
       <use x="127.246094" xlink:href="#DejaVuSans-30"/>
      </g>
     </g>
    </g>
    <g id="text_12">
     <!-- Refugees -->
     <defs>
      <path d="M 44.390625 34.1875 
Q 47.5625 33.109375 50.5625 29.59375 
Q 53.5625 26.078125 56.59375 19.921875 
L 66.609375 0 
L 56 0 
L 46.6875 18.703125 
Q 43.0625 26.03125 39.671875 28.421875 
Q 36.28125 30.8125 30.421875 30.8125 
L 19.671875 30.8125 
L 19.671875 0 
L 9.8125 0 
L 9.8125 72.90625 
L 32.078125 72.90625 
Q 44.578125 72.90625 50.734375 67.671875 
Q 56.890625 62.453125 56.890625 51.90625 
Q 56.890625 45.015625 53.6875 40.46875 
Q 50.484375 35.9375 44.390625 34.1875 
z
M 19.671875 64.796875 
L 19.671875 38.921875 
L 32.078125 38.921875 
Q 39.203125 38.921875 42.84375 42.21875 
Q 46.484375 45.515625 46.484375 51.90625 
Q 46.484375 58.296875 42.84375 61.546875 
Q 39.203125 64.796875 32.078125 64.796875 
z
" id="DejaVuSans-52"/>
      <path d="M 37.109375 75.984375 
L 37.109375 68.5 
L 28.515625 68.5 
Q 23.6875 68.5 21.796875 66.546875 
Q 19.921875 64.59375 19.921875 59.515625 
L 19.921875 54.6875 
L 34.71875 54.6875 
L 34.71875 47.703125 
L 19.921875 47.703125 
L 19.921875 0 
L 10.890625 0 
L 10.890625 47.703125 
L 2.296875 47.703125 
L 2.296875 54.6875 
L 10.890625 54.6875 
L 10.890625 58.5 
Q 10.890625 67.625 15.140625 71.796875 
Q 19.390625 75.984375 28.609375 75.984375 
z
" id="DejaVuSans-66"/>
      <path d="M 8.5 21.578125 
L 8.5 54.6875 
L 17.484375 54.6875 
L 17.484375 21.921875 
Q 17.484375 14.15625 20.5 10.265625 
Q 23.53125 6.390625 29.59375 6.390625 
Q 36.859375 6.390625 41.078125 11.03125 
Q 45.3125 15.671875 45.3125 23.6875 
L 45.3125 54.6875 
L 54.296875 54.6875 
L 54.296875 0 
L 45.3125 0 
L 45.3125 8.40625 
Q 42.046875 3.421875 37.71875 1 
Q 33.40625 -1.421875 27.6875 -1.421875 
Q 18.265625 -1.421875 13.375 4.4375 
Q 8.5 10.296875 8.5 21.578125 
z
M 31.109375 56 
z
" id="DejaVuSans-75"/>
      <path d="M 45.40625 27.984375 
Q 45.40625 37.75 41.375 43.109375 
Q 37.359375 48.484375 30.078125 48.484375 
Q 22.859375 48.484375 18.828125 43.109375 
Q 14.796875 37.75 14.796875 27.984375 
Q 14.796875 18.265625 18.828125 12.890625 
Q 22.859375 7.515625 30.078125 7.515625 
Q 37.359375 7.515625 41.375 12.890625 
Q 45.40625 18.265625 45.40625 27.984375 
z
M 54.390625 6.78125 
Q 54.390625 -7.171875 48.1875 -13.984375 
Q 42 -20.796875 29.203125 -20.796875 
Q 24.46875 -20.796875 20.265625 -20.09375 
Q 16.0625 -19.390625 12.109375 -17.921875 
L 12.109375 -9.1875 
Q 16.0625 -11.328125 19.921875 -12.34375 
Q 23.78125 -13.375 27.78125 -13.375 
Q 36.625 -13.375 41.015625 -8.765625 
Q 45.40625 -4.15625 45.40625 5.171875 
L 45.40625 9.625 
Q 42.625 4.78125 38.28125 2.390625 
Q 33.9375 0 27.875 0 
Q 17.828125 0 11.671875 7.65625 
Q 5.515625 15.328125 5.515625 27.984375 
Q 5.515625 40.671875 11.671875 48.328125 
Q 17.828125 56 27.875 56 
Q 33.9375 56 38.28125 53.609375 
Q 42.625 51.21875 45.40625 46.390625 
L 45.40625 54.6875 
L 54.390625 54.6875 
z
" id="DejaVuSans-67"/>
      <path d="M 44.28125 53.078125 
L 44.28125 44.578125 
Q 40.484375 46.53125 36.375 47.5 
Q 32.28125 48.484375 27.875 48.484375 
Q 21.1875 48.484375 17.84375 46.4375 
Q 14.5 44.390625 14.5 40.28125 
Q 14.5 37.15625 16.890625 35.375 
Q 19.28125 33.59375 26.515625 31.984375 
L 29.59375 31.296875 
Q 39.15625 29.25 43.1875 25.515625 
Q 47.21875 21.78125 47.21875 15.09375 
Q 47.21875 7.46875 41.1875 3.015625 
Q 35.15625 -1.421875 24.609375 -1.421875 
Q 20.21875 -1.421875 15.453125 -0.5625 
Q 10.6875 0.296875 5.421875 2 
L 5.421875 11.28125 
Q 10.40625 8.6875 15.234375 7.390625 
Q 20.0625 6.109375 24.8125 6.109375 
Q 31.15625 6.109375 34.5625 8.28125 
Q 37.984375 10.453125 37.984375 14.40625 
Q 37.984375 18.0625 35.515625 20.015625 
Q 33.0625 21.96875 24.703125 23.78125 
L 21.578125 24.515625 
Q 13.234375 26.265625 9.515625 29.90625 
Q 5.8125 33.546875 5.8125 39.890625 
Q 5.8125 47.609375 11.28125 51.796875 
Q 16.75 56 26.8125 56 
Q 31.78125 56 36.171875 55.265625 
Q 40.578125 54.546875 44.28125 53.078125 
z
" id="DejaVuSans-73"/>
     </defs>
     <g style="fill:#ff7f0e;" transform="translate(14.798438 283.588594)rotate(-90)scale(0.1 -0.1)">
      <use xlink:href="#DejaVuSans-52"/>
      <use x="69.419922" xlink:href="#DejaVuSans-65"/>
      <use x="130.943359" xlink:href="#DejaVuSans-66"/>
      <use x="166.148438" xlink:href="#DejaVuSans-75"/>
      <use x="229.527344" xlink:href="#DejaVuSans-67"/>
      <use x="293.003906" xlink:href="#DejaVuSans-65"/>
      <use x="354.527344" xlink:href="#DejaVuSans-65"/>
      <use x="416.050781" xlink:href="#DejaVuSans-73"/>
     </g>
    </g>
   </g>
   <g id="line2d_11">
    <path clip-path="url(#pd01221dfd0)" d="M 97.692898 423.273894 
L 102.547182 417.700327 
L 107.401467 419.617395 
L 112.255751 428.960783 
L 117.110036 429.827654 
L 121.96432 410.595991 
L 126.818605 406.481359 
L 131.672889 400.834867 
L 136.527173 402.857725 
L 141.381458 412.097912 
L 146.235742 413.152469 
L 151.090027 393.617685 
L 155.944311 424.525227 
L 160.798596 418.957084 
L 165.65288 420.866276 
L 170.507165 430.217378 
L 175.361449 431.070255 
L 180.215734 411.861191 
L 185.070018 444.922225 
L 189.924303 439.442677 
L 194.778587 441.223375 
L 199.632872 450.69988 
L 204.487156 451.324722 
L 209.341441 432.483843 
L 214.195725 380.494641 
L 219.05001 374.735271 
L 223.904294 376.921831 
L 228.758578 386.002239 
L 233.612863 387.347321 
L 238.467147 367.343468 
L 243.321432 306.454959 
L 248.175716 300.374058 
L 253.030001 303.026986 
L 257.884285 311.652185 
L 262.73857 313.824986 
L 267.592854 292.484625 
L 272.447139 222.657581 
L 277.301423 216.212751 
L 282.155708 219.393565 
L 287.009992 227.503599 
L 291.864277 230.613144 
L 296.718561 207.76013 
L 301.572846 33.38 
L 306.42713 33.789631 
L 311.281414 48.442956 
L 316.135699 63.981317 
L 320.989983 74.266599 
L 325.844268 52.319313 
L 330.698552 160.424864 
L 335.552837 162.302591 
L 340.407121 171.530521 
L 345.261406 180.474612 
L 350.11569 181.612967 
L 354.969975 155.734012 
L 359.824259 161.544616 
L 364.678544 146.839538 
L 369.532828 148.740697 
L 374.387113 160.506579 
L 379.241397 171.901027 
L 384.095682 153.858296 
L 388.949966 345.515459 
L 393.80425 339.604196 
L 398.658535 342.011064 
L 403.512819 350.876442 
L 408.367104 352.612575 
L 413.221388 331.977275 
L 418.075673 463.304143 
L 422.929957 457.904444 
L 427.784242 459.569326 
L 432.638526 469.158838 
L 437.492811 469.578198 
L 442.347095 451.06914 
L 447.20138 483.694264 
L 452.055664 486.98 
L 466.618518 486.98 
L 471.472802 470.460907 
L 476.327087 480.630538 
L 481.181371 482.17114 
L 486.035655 486.512552 
L 490.88994 486.98 
L 495.744224 486.98 
L 500.598509 468.610745 
L 505.452793 481.292421 
L 510.307078 483.70598 
L 515.161362 486.98 
L 524.869931 486.98 
L 529.724216 469.01045 
L 534.5785 482.693374 
L 539.432785 486.954703 
L 553.995638 486.98 
L 558.849923 469.856478 
L 563.704207 479.786704 
L 568.558491 480.214333 
L 573.412776 484.180274 
L 578.26706 486.98 
L 583.121345 486.98 
L 587.975629 468.101158 
L 592.829914 482.252661 
L 597.684198 485.932721 
L 602.538483 486.98 
L 612.247052 486.98 
L 617.101336 469.590333 
L 621.955621 483.138945 
L 626.809905 486.98 
L 641.372759 486.98 
L 646.227043 470.125552 
L 651.081327 481.942937 
L 655.935612 485.214492 
L 660.789896 486.98 
L 670.498465 486.98 
L 675.35275 469.403292 
L 680.207034 486.98 
L 699.624172 486.98 
L 704.478457 474.465568 
L 709.332741 479.547422 
L 714.187026 479.659443 
L 719.04131 483.518919 
L 723.895595 486.98 
L 728.749879 486.98 
L 733.604163 467.956654 
L 738.458448 483.963001 
L 743.312732 486.98 
L 757.875586 486.98 
L 762.72987 470.623193 
L 767.584155 479.229263 
L 772.438439 478.921654 
L 777.292724 482.639539 
L 782.147008 486.98 
L 787.001293 486.98 
L 791.855577 467.764518 
L 796.709862 482.488013 
L 801.564146 486.47849 
L 806.418431 486.98 
L 816.127 486.98 
L 820.981284 469.732457 
L 825.835568 480.60242 
L 830.689853 482.105916 
L 835.544137 486.434828 
L 840.398422 486.98 
L 845.252706 486.98 
L 850.106991 468.593762 
L 854.961275 478.772648 
L 859.81556 477.862819 
L 864.669844 481.377529 
L 869.524129 486.98 
L 874.378413 486.98 
L 879.232698 467.488776 
L 884.086982 486.364757 
L 888.941267 486.98 
L 903.50412 486.98 
L 908.358404 472.073603 
L 913.212689 482.266481 
L 918.066973 485.964765 
L 922.921258 486.98 
L 932.629827 486.98 
L 937.484111 469.598679 
L 942.338396 479.48911 
L 947.19268 479.524229 
L 952.046965 483.357753 
L 956.901249 486.98 
L 961.755534 486.98 
L 966.609818 467.921443 
L 971.464103 477.484453 
L 976.318387 474.875551 
L 981.172672 477.817055 
L 986.026956 486.98 
L 990.88124 486.063814 
L 995.735525 466.71084 
L 1000.589809 479.196396 
L 1005.444094 478.845452 
L 1010.298378 482.548717 
L 1015.152663 486.98 
L 1020.006947 486.98 
L 1024.861232 467.744673 
L 1029.715516 465.549527 
L 1034.569801 460.159557 
L 1039.424085 461.810344 
L 1044.27837 471.41366 
L 1049.132654 471.807884 
L 1053.986939 453.339362 
L 1058.841223 474.101154 
L 1063.695508 468.890014 
L 1068.549792 470.558221 
L 1073.404077 480.20273 
L 1078.258361 480.426223 
L 1083.112645 462.055472 
L 1087.96693 481.402059 
L 1092.821214 483.960253 
L 1097.675499 486.98 
L 1107.384068 486.98 
L 1112.238352 469.07666 
L 1112.238352 469.07666 
" style="fill:none;stroke:#008000;stroke-dasharray:5.55,2.4;stroke-dashoffset:0;stroke-width:1.5;"/>
   </g>
   <g id="line2d_12">
    <path clip-path="url(#pd01221dfd0)" d="M 97.692898 403.810269 
L 102.547182 409.895859 
L 107.401467 355.125549 
L 112.255751 389.610559 
L 117.110036 314.554949 
L 121.96432 440.32381 
L 126.818605 458.58058 
L 131.672889 436.26675 
L 136.527173 391.639089 
L 141.381458 428.15263 
L 146.235742 438.29528 
L 151.090027 424.09557 
L 155.944311 424.09557 
L 160.798596 415.98145 
L 165.65288 438.29528 
L 170.507165 450.46646 
L 175.361449 418.00998 
L 180.215734 432.20969 
L 185.070018 405.838799 
L 189.924303 418.00998 
L 194.778587 385.553499 
L 199.632872 367.296729 
L 204.487156 336.868779 
L 209.341441 403.810269 
L 214.195725 373.382319 
L 219.05001 330.783189 
L 223.904294 395.696149 
L 228.758578 320.640539 
L 233.612863 340.925839 
L 238.467147 251.670518 
L 243.321432 342.954369 
L 248.175716 353.097019 
L 253.030001 261.813168 
L 257.884285 209.071388 
L 262.73857 194.871678 
L 267.592854 237.470808 
L 272.447139 257.756108 
L 277.301423 243.556398 
L 282.155708 243.556398 
L 287.009992 190.814618 
L 291.864277 50.846047 
L 296.718561 127.930188 
L 301.572846 127.930188 
L 306.42713 162.415198 
L 311.281414 152.272548 
L 316.135699 65.045757 
L 320.989983 243.556398 
L 325.844268 271.955819 
L 330.698552 170.529318 
L 335.552837 188.786088 
L 340.407121 162.415198 
L 345.261406 111.701947 
L 350.11569 253.699048 
L 354.969975 188.786088 
L 359.824259 257.756108 
L 364.678544 190.814618 
L 369.532828 192.843148 
L 374.387113 247.613458 
L 379.241397 336.868779 
L 384.095682 436.26675 
L 388.949966 464.66617 
L 393.80425 468.72323 
L 398.658535 430.18116 
L 403.512819 480.89441 
L 408.367104 464.66617 
L 413.221388 466.6947 
L 418.075673 458.58058 
L 422.929957 466.6947 
L 432.638526 462.63764 
L 437.492811 456.55205 
L 442.347095 468.72323 
L 447.20138 470.75176 
L 452.055664 474.80882 
L 456.909949 482.92294 
L 461.764233 476.83735 
L 466.618518 476.83735 
L 471.472802 482.92294 
L 476.327087 474.80882 
L 481.181371 478.86588 
L 490.88994 466.6947 
L 495.744224 470.75176 
L 500.598509 478.86588 
L 505.452793 476.83735 
L 510.307078 482.92294 
L 515.161362 480.89441 
L 520.015647 476.83735 
L 524.869931 478.86588 
L 529.724216 478.86588 
L 534.5785 472.78029 
L 539.432785 478.86588 
L 544.287069 472.78029 
L 549.141354 480.89441 
L 553.995638 478.86588 
L 563.704207 482.92294 
L 568.558491 474.80882 
L 573.412776 478.86588 
L 578.26706 470.75176 
L 587.975629 482.92294 
L 592.829914 480.89441 
L 597.684198 476.83735 
L 607.392767 484.95147 
L 612.247052 480.89441 
L 617.101336 480.89441 
L 621.955621 472.78029 
L 626.809905 482.92294 
L 631.66419 480.89441 
L 641.372759 472.78029 
L 646.227043 478.86588 
L 651.081327 460.60911 
L 655.935612 482.92294 
L 660.789896 474.80882 
L 665.644181 470.75176 
L 670.498465 470.75176 
L 675.35275 484.95147 
L 680.207034 478.86588 
L 685.061319 476.83735 
L 689.915603 484.95147 
L 694.769888 478.86588 
L 704.478457 478.86588 
L 709.332741 482.92294 
L 714.187026 482.92294 
L 719.04131 472.78029 
L 723.895595 482.92294 
L 728.749879 476.83735 
L 733.604163 482.92294 
L 738.458448 486.98 
L 743.312732 480.89441 
L 748.167017 472.78029 
L 753.021301 484.95147 
L 757.875586 482.92294 
L 762.72987 466.6947 
L 767.584155 480.89441 
L 772.438439 474.80882 
L 777.292724 476.83735 
L 782.147008 464.66617 
L 787.001293 476.83735 
L 791.855577 484.95147 
L 796.709862 478.86588 
L 801.564146 480.89441 
L 806.418431 476.83735 
L 811.272715 484.95147 
L 816.127 484.95147 
L 820.981284 476.83735 
L 825.835568 484.95147 
L 830.689853 482.92294 
L 835.544137 470.75176 
L 840.398422 480.89441 
L 845.252706 484.95147 
L 850.106991 480.89441 
L 854.961275 480.89441 
L 859.81556 484.95147 
L 864.669844 478.86588 
L 869.524129 476.83735 
L 874.378413 482.92294 
L 879.232698 480.89441 
L 884.086982 484.95147 
L 898.649836 472.78029 
L 903.50412 480.89441 
L 908.358404 474.80882 
L 913.212689 484.95147 
L 918.066973 484.95147 
L 922.921258 478.86588 
L 927.775542 482.92294 
L 932.629827 484.95147 
L 937.484111 482.92294 
L 942.338396 484.95147 
L 947.19268 470.75176 
L 952.046965 482.92294 
L 956.901249 478.86588 
L 961.755534 466.6947 
L 971.464103 478.86588 
L 976.318387 478.86588 
L 981.172672 476.83735 
L 986.026956 472.78029 
L 990.88124 470.75176 
L 995.735525 480.89441 
L 1000.589809 478.86588 
L 1005.444094 484.95147 
L 1010.298378 478.86588 
L 1015.152663 480.89441 
L 1020.006947 478.86588 
L 1024.861232 464.66617 
L 1029.715516 466.6947 
L 1034.569801 460.60911 
L 1039.424085 466.6947 
L 1044.27837 460.60911 
L 1049.132654 460.60911 
L 1053.986939 468.72323 
L 1058.841223 474.80882 
L 1063.695508 486.98 
L 1068.549792 476.83735 
L 1073.404077 464.66617 
L 1078.258361 474.80882 
L 1083.112645 486.98 
L 1092.821214 466.6947 
L 1097.675499 462.63764 
L 1102.529783 462.63764 
L 1107.384068 476.83735 
L 1112.238352 468.72323 
L 1112.238352 468.72323 
" style="fill:none;stroke:#ff7f0e;stroke-linecap:square;stroke-width:1.5;"/>
   </g>
   <g id="line2d_13">
    <defs>
     <path d="M 0 3 
C 0.795609 3 1.55874 2.683901 2.12132 2.12132 
C 2.683901 1.55874 3 0.795609 3 0 
C 3 -0.795609 2.683901 -1.55874 2.12132 -2.12132 
C 1.55874 -2.683901 0.795609 -3 0 -3 
C -0.795609 -3 -1.55874 -2.683901 -2.12132 -2.12132 
C -2.683901 -1.55874 -3 -0.795609 -3 0 
C -3 0.795609 -2.683901 1.55874 -2.12132 2.12132 
C -1.55874 2.683901 -0.795609 3 0 3 
z
" id="m75832011f5" style="stroke:#008000;"/>
    </defs>
    <g clip-path="url(#pd01221dfd0)">
     <use style="fill:#008000;stroke:#008000;" x="97.692898" xlink:href="#m75832011f5" y="423.273894"/>
     <use style="fill:#008000;stroke:#008000;" x="126.818605" xlink:href="#m75832011f5" y="406.481359"/>
     <use style="fill:#008000;stroke:#008000;" x="155.944311" xlink:href="#m75832011f5" y="424.525227"/>
     <use style="fill:#008000;stroke:#008000;" x="185.070018" xlink:href="#m75832011f5" y="444.922225"/>
     <use style="fill:#008000;stroke:#008000;" x="214.195725" xlink:href="#m75832011f5" y="380.494641"/>
     <use style="fill:#008000;stroke:#008000;" x="243.321432" xlink:href="#m75832011f5" y="306.454959"/>
     <use style="fill:#008000;stroke:#008000;" x="272.447139" xlink:href="#m75832011f5" y="222.657581"/>
     <use style="fill:#008000;stroke:#008000;" x="301.572846" xlink:href="#m75832011f5" y="33.38"/>
     <use style="fill:#008000;stroke:#008000;" x="330.698552" xlink:href="#m75832011f5" y="160.424864"/>
     <use style="fill:#008000;stroke:#008000;" x="359.824259" xlink:href="#m75832011f5" y="161.544616"/>
     <use style="fill:#008000;stroke:#008000;" x="388.949966" xlink:href="#m75832011f5" y="345.515459"/>
     <use style="fill:#008000;stroke:#008000;" x="418.075673" xlink:href="#m75832011f5" y="463.304143"/>
     <use style="fill:#008000;stroke:#008000;" x="447.20138" xlink:href="#m75832011f5" y="483.694264"/>
     <use style="fill:#008000;stroke:#008000;" x="476.327087" xlink:href="#m75832011f5" y="480.630538"/>
     <use style="fill:#008000;stroke:#008000;" x="505.452793" xlink:href="#m75832011f5" y="481.292421"/>
     <use style="fill:#008000;stroke:#008000;" x="534.5785" xlink:href="#m75832011f5" y="482.693374"/>
     <use style="fill:#008000;stroke:#008000;" x="563.704207" xlink:href="#m75832011f5" y="479.786704"/>
     <use style="fill:#008000;stroke:#008000;" x="592.829914" xlink:href="#m75832011f5" y="482.252661"/>
     <use style="fill:#008000;stroke:#008000;" x="621.955621" xlink:href="#m75832011f5" y="483.138945"/>
     <use style="fill:#008000;stroke:#008000;" x="651.081327" xlink:href="#m75832011f5" y="481.942937"/>
     <use style="fill:#008000;stroke:#008000;" x="680.207034" xlink:href="#m75832011f5" y="486.98"/>
     <use style="fill:#008000;stroke:#008000;" x="709.332741" xlink:href="#m75832011f5" y="479.547422"/>
     <use style="fill:#008000;stroke:#008000;" x="738.458448" xlink:href="#m75832011f5" y="483.963001"/>
     <use style="fill:#008000;stroke:#008000;" x="767.584155" xlink:href="#m75832011f5" y="479.229263"/>
     <use style="fill:#008000;stroke:#008000;" x="796.709862" xlink:href="#m75832011f5" y="482.488013"/>
     <use style="fill:#008000;stroke:#008000;" x="825.835568" xlink:href="#m75832011f5" y="480.60242"/>
     <use style="fill:#008000;stroke:#008000;" x="854.961275" xlink:href="#m75832011f5" y="478.772648"/>
     <use style="fill:#008000;stroke:#008000;" x="884.086982" xlink:href="#m75832011f5" y="486.364757"/>
     <use style="fill:#008000;stroke:#008000;" x="913.212689" xlink:href="#m75832011f5" y="482.266481"/>
     <use style="fill:#008000;stroke:#008000;" x="942.338396" xlink:href="#m75832011f5" y="479.48911"/>
     <use style="fill:#008000;stroke:#008000;" x="971.464103" xlink:href="#m75832011f5" y="477.484453"/>
     <use style="fill:#008000;stroke:#008000;" x="1000.589809" xlink:href="#m75832011f5" y="479.196396"/>
     <use style="fill:#008000;stroke:#008000;" x="1029.715516" xlink:href="#m75832011f5" y="465.549527"/>
     <use style="fill:#008000;stroke:#008000;" x="1058.841223" xlink:href="#m75832011f5" y="474.101154"/>
     <use style="fill:#008000;stroke:#008000;" x="1087.96693" xlink:href="#m75832011f5" y="481.402059"/>
    </g>
   </g>
   <g id="patch_3">
    <path d="M 46.965625 509.66 
L 46.965625 10.7 
" style="fill:none;stroke:#000000;stroke-linecap:square;stroke-linejoin:miter;stroke-width:0.8;"/>
   </g>
   <g id="patch_4">
    <path d="M 1162.965625 509.66 
L 1162.965625 10.7 
" style="fill:none;stroke:#000000;stroke-linecap:square;stroke-linejoin:miter;stroke-width:0.8;"/>
   </g>
   <g id="patch_5">
    <path d="M 46.965625 509.66 
L 1162.965625 509.66 
" style="fill:none;stroke:#000000;stroke-linecap:square;stroke-linejoin:miter;stroke-width:0.8;"/>
   </g>
   <g id="patch_6">
    <path d="M 46.965625 10.7 
L 1162.965625 10.7 
" style="fill:none;stroke:#000000;stroke-linecap:square;stroke-linejoin:miter;stroke-width:0.8;"/>
   </g>
   <g id="legend_1">
    <g id="patch_7">
     <path d="M 53.965625 62.734375 
L 201.740625 62.734375 
Q 203.740625 62.734375 203.740625 60.734375 
L 203.740625 17.7 
Q 203.740625 15.7 201.740625 15.7 
L 53.965625 15.7 
Q 51.965625 15.7 51.965625 17.7 
L 51.965625 60.734375 
Q 51.965625 62.734375 53.965625 62.734375 
z
" style="fill:#ffffff;opacity:0.8;stroke:#cccccc;stroke-linejoin:miter;"/>
    </g>
    <g id="line2d_14">
     <path d="M 55.965625 23.798437 
L 75.965625 23.798437 
" style="fill:none;stroke:#008000;stroke-dasharray:5.55,2.4;stroke-dashoffset:0;stroke-width:1.5;"/>
    </g>
    <g id="line2d_15"/>
    <g id="text_13">
     <!-- Predicted -->
     <defs>
      <path d="M 19.671875 64.796875 
L 19.671875 37.40625 
L 32.078125 37.40625 
Q 38.96875 37.40625 42.71875 40.96875 
Q 46.484375 44.53125 46.484375 51.125 
Q 46.484375 57.671875 42.71875 61.234375 
Q 38.96875 64.796875 32.078125 64.796875 
z
M 9.8125 72.90625 
L 32.078125 72.90625 
Q 44.34375 72.90625 50.609375 67.359375 
Q 56.890625 61.8125 56.890625 51.125 
Q 56.890625 40.328125 50.609375 34.8125 
Q 44.34375 29.296875 32.078125 29.296875 
L 19.671875 29.296875 
L 19.671875 0 
L 9.8125 0 
z
" id="DejaVuSans-50"/>
      <path d="M 41.109375 46.296875 
Q 39.59375 47.171875 37.8125 47.578125 
Q 36.03125 48 33.890625 48 
Q 26.265625 48 22.1875 43.046875 
Q 18.109375 38.09375 18.109375 28.8125 
L 18.109375 0 
L 9.078125 0 
L 9.078125 54.6875 
L 18.109375 54.6875 
L 18.109375 46.1875 
Q 20.953125 51.171875 25.484375 53.578125 
Q 30.03125 56 36.53125 56 
Q 37.453125 56 38.578125 55.875 
Q 39.703125 55.765625 41.0625 55.515625 
z
" id="DejaVuSans-72"/>
      <path d="M 45.40625 46.390625 
L 45.40625 75.984375 
L 54.390625 75.984375 
L 54.390625 0 
L 45.40625 0 
L 45.40625 8.203125 
Q 42.578125 3.328125 38.25 0.953125 
Q 33.9375 -1.421875 27.875 -1.421875 
Q 17.96875 -1.421875 11.734375 6.484375 
Q 5.515625 14.40625 5.515625 27.296875 
Q 5.515625 40.1875 11.734375 48.09375 
Q 17.96875 56 27.875 56 
Q 33.9375 56 38.25 53.625 
Q 42.578125 51.265625 45.40625 46.390625 
z
M 14.796875 27.296875 
Q 14.796875 17.390625 18.875 11.75 
Q 22.953125 6.109375 30.078125 6.109375 
Q 37.203125 6.109375 41.296875 11.75 
Q 45.40625 17.390625 45.40625 27.296875 
Q 45.40625 37.203125 41.296875 42.84375 
Q 37.203125 48.484375 30.078125 48.484375 
Q 22.953125 48.484375 18.875 42.84375 
Q 14.796875 37.203125 14.796875 27.296875 
z
" id="DejaVuSans-64"/>
      <path d="M 48.78125 52.59375 
L 48.78125 44.1875 
Q 44.96875 46.296875 41.140625 47.34375 
Q 37.3125 48.390625 33.40625 48.390625 
Q 24.65625 48.390625 19.8125 42.84375 
Q 14.984375 37.3125 14.984375 27.296875 
Q 14.984375 17.28125 19.8125 11.734375 
Q 24.65625 6.203125 33.40625 6.203125 
Q 37.3125 6.203125 41.140625 7.25 
Q 44.96875 8.296875 48.78125 10.40625 
L 48.78125 2.09375 
Q 45.015625 0.34375 40.984375 -0.53125 
Q 36.96875 -1.421875 32.421875 -1.421875 
Q 20.0625 -1.421875 12.78125 6.34375 
Q 5.515625 14.109375 5.515625 27.296875 
Q 5.515625 40.671875 12.859375 48.328125 
Q 20.21875 56 33.015625 56 
Q 37.15625 56 41.109375 55.140625 
Q 45.0625 54.296875 48.78125 52.59375 
z
" id="DejaVuSans-63"/>
      <path d="M 18.3125 70.21875 
L 18.3125 54.6875 
L 36.8125 54.6875 
L 36.8125 47.703125 
L 18.3125 47.703125 
L 18.3125 18.015625 
Q 18.3125 11.328125 20.140625 9.421875 
Q 21.96875 7.515625 27.59375 7.515625 
L 36.8125 7.515625 
L 36.8125 0 
L 27.59375 0 
Q 17.1875 0 13.234375 3.875 
Q 9.28125 7.765625 9.28125 18.015625 
L 9.28125 47.703125 
L 2.6875 47.703125 
L 2.6875 54.6875 
L 9.28125 54.6875 
L 9.28125 70.21875 
z
" id="DejaVuSans-74"/>
     </defs>
     <g transform="translate(83.965625 27.298437)scale(0.1 -0.1)">
      <use xlink:href="#DejaVuSans-50"/>
      <use x="60.287109" xlink:href="#DejaVuSans-72"/>
      <use x="101.369141" xlink:href="#DejaVuSans-65"/>
      <use x="162.892578" xlink:href="#DejaVuSans-64"/>
      <use x="226.369141" xlink:href="#DejaVuSans-69"/>
      <use x="254.152344" xlink:href="#DejaVuSans-63"/>
      <use x="309.132812" xlink:href="#DejaVuSans-74"/>
      <use x="348.341797" xlink:href="#DejaVuSans-65"/>
      <use x="409.865234" xlink:href="#DejaVuSans-64"/>
     </g>
    </g>
    <g id="line2d_16">
     <path d="M 55.965625 38.476562 
L 75.965625 38.476562 
" style="fill:none;stroke:#ff7f0e;stroke-linecap:square;stroke-width:1.5;"/>
    </g>
    <g id="line2d_17"/>
    <g id="text_14">
     <!-- Real Data -->
     <defs>
      <path d="M 34.28125 27.484375 
Q 23.390625 27.484375 19.1875 25 
Q 14.984375 22.515625 14.984375 16.5 
Q 14.984375 11.71875 18.140625 8.90625 
Q 21.296875 6.109375 26.703125 6.109375 
Q 34.1875 6.109375 38.703125 11.40625 
Q 43.21875 16.703125 43.21875 25.484375 
L 43.21875 27.484375 
z
M 52.203125 31.203125 
L 52.203125 0 
L 43.21875 0 
L 43.21875 8.296875 
Q 40.140625 3.328125 35.546875 0.953125 
Q 30.953125 -1.421875 24.3125 -1.421875 
Q 15.921875 -1.421875 10.953125 3.296875 
Q 6 8.015625 6 15.921875 
Q 6 25.140625 12.171875 29.828125 
Q 18.359375 34.515625 30.609375 34.515625 
L 43.21875 34.515625 
L 43.21875 35.40625 
Q 43.21875 41.609375 39.140625 45 
Q 35.0625 48.390625 27.6875 48.390625 
Q 23 48.390625 18.546875 47.265625 
Q 14.109375 46.140625 10.015625 43.890625 
L 10.015625 52.203125 
Q 14.9375 54.109375 19.578125 55.046875 
Q 24.21875 56 28.609375 56 
Q 40.484375 56 46.34375 49.84375 
Q 52.203125 43.703125 52.203125 31.203125 
z
" id="DejaVuSans-61"/>
      <path d="M 9.421875 75.984375 
L 18.40625 75.984375 
L 18.40625 0 
L 9.421875 0 
z
" id="DejaVuSans-6c"/>
      <path id="DejaVuSans-20"/>
      <path d="M 19.671875 64.796875 
L 19.671875 8.109375 
L 31.59375 8.109375 
Q 46.6875 8.109375 53.6875 14.9375 
Q 60.6875 21.78125 60.6875 36.53125 
Q 60.6875 51.171875 53.6875 57.984375 
Q 46.6875 64.796875 31.59375 64.796875 
z
M 9.8125 72.90625 
L 30.078125 72.90625 
Q 51.265625 72.90625 61.171875 64.09375 
Q 71.09375 55.28125 71.09375 36.53125 
Q 71.09375 17.671875 61.125 8.828125 
Q 51.171875 0 30.078125 0 
L 9.8125 0 
z
" id="DejaVuSans-44"/>
     </defs>
     <g transform="translate(83.965625 41.976562)scale(0.1 -0.1)">
      <use xlink:href="#DejaVuSans-52"/>
      <use x="69.419922" xlink:href="#DejaVuSans-65"/>
      <use x="130.943359" xlink:href="#DejaVuSans-61"/>
      <use x="192.222656" xlink:href="#DejaVuSans-6c"/>
      <use x="220.005859" xlink:href="#DejaVuSans-20"/>
      <use x="251.792969" xlink:href="#DejaVuSans-44"/>
      <use x="328.794922" xlink:href="#DejaVuSans-61"/>
      <use x="390.074219" xlink:href="#DejaVuSans-74"/>
      <use x="429.283203" xlink:href="#DejaVuSans-61"/>
     </g>
    </g>
    <g id="line2d_18"/>
    <g id="line2d_19">
     <g>
      <use style="fill:#008000;stroke:#008000;" x="65.965625" xlink:href="#m75832011f5" y="53.154688"/>
     </g>
    </g>
    <g id="text_15">
     <!-- Start Point for Forecast -->
     <defs>
      <path d="M 53.515625 70.515625 
L 53.515625 60.890625 
Q 47.90625 63.578125 42.921875 64.890625 
Q 37.9375 66.21875 33.296875 66.21875 
Q 25.25 66.21875 20.875 63.09375 
Q 16.5 59.96875 16.5 54.203125 
Q 16.5 49.359375 19.40625 46.890625 
Q 22.3125 44.4375 30.421875 42.921875 
L 36.375 41.703125 
Q 47.40625 39.59375 52.65625 34.296875 
Q 57.90625 29 57.90625 20.125 
Q 57.90625 9.515625 50.796875 4.046875 
Q 43.703125 -1.421875 29.984375 -1.421875 
Q 24.8125 -1.421875 18.96875 -0.25 
Q 13.140625 0.921875 6.890625 3.21875 
L 6.890625 13.375 
Q 12.890625 10.015625 18.65625 8.296875 
Q 24.421875 6.59375 29.984375 6.59375 
Q 38.421875 6.59375 43.015625 9.90625 
Q 47.609375 13.234375 47.609375 19.390625 
Q 47.609375 24.75 44.3125 27.78125 
Q 41.015625 30.8125 33.5 32.328125 
L 27.484375 33.5 
Q 16.453125 35.6875 11.515625 40.375 
Q 6.59375 45.0625 6.59375 53.421875 
Q 6.59375 63.09375 13.40625 68.65625 
Q 20.21875 74.21875 32.171875 74.21875 
Q 37.3125 74.21875 42.625 73.28125 
Q 47.953125 72.359375 53.515625 70.515625 
z
" id="DejaVuSans-53"/>
      <path d="M 30.609375 48.390625 
Q 23.390625 48.390625 19.1875 42.75 
Q 14.984375 37.109375 14.984375 27.296875 
Q 14.984375 17.484375 19.15625 11.84375 
Q 23.34375 6.203125 30.609375 6.203125 
Q 37.796875 6.203125 41.984375 11.859375 
Q 46.1875 17.53125 46.1875 27.296875 
Q 46.1875 37.015625 41.984375 42.703125 
Q 37.796875 48.390625 30.609375 48.390625 
z
M 30.609375 56 
Q 42.328125 56 49.015625 48.375 
Q 55.71875 40.765625 55.71875 27.296875 
Q 55.71875 13.875 49.015625 6.21875 
Q 42.328125 -1.421875 30.609375 -1.421875 
Q 18.84375 -1.421875 12.171875 6.21875 
Q 5.515625 13.875 5.515625 27.296875 
Q 5.515625 40.765625 12.171875 48.375 
Q 18.84375 56 30.609375 56 
z
" id="DejaVuSans-6f"/>
      <path d="M 54.890625 33.015625 
L 54.890625 0 
L 45.90625 0 
L 45.90625 32.71875 
Q 45.90625 40.484375 42.875 44.328125 
Q 39.84375 48.1875 33.796875 48.1875 
Q 26.515625 48.1875 22.3125 43.546875 
Q 18.109375 38.921875 18.109375 30.90625 
L 18.109375 0 
L 9.078125 0 
L 9.078125 54.6875 
L 18.109375 54.6875 
L 18.109375 46.1875 
Q 21.34375 51.125 25.703125 53.5625 
Q 30.078125 56 35.796875 56 
Q 45.21875 56 50.046875 50.171875 
Q 54.890625 44.34375 54.890625 33.015625 
z
" id="DejaVuSans-6e"/>
      <path d="M 9.8125 72.90625 
L 51.703125 72.90625 
L 51.703125 64.59375 
L 19.671875 64.59375 
L 19.671875 43.109375 
L 48.578125 43.109375 
L 48.578125 34.8125 
L 19.671875 34.8125 
L 19.671875 0 
L 9.8125 0 
z
" id="DejaVuSans-46"/>
     </defs>
     <g transform="translate(83.965625 56.654688)scale(0.1 -0.1)">
      <use xlink:href="#DejaVuSans-53"/>
      <use x="63.476562" xlink:href="#DejaVuSans-74"/>
      <use x="102.685547" xlink:href="#DejaVuSans-61"/>
      <use x="163.964844" xlink:href="#DejaVuSans-72"/>
      <use x="205.078125" xlink:href="#DejaVuSans-74"/>
      <use x="244.287109" xlink:href="#DejaVuSans-20"/>
      <use x="276.074219" xlink:href="#DejaVuSans-50"/>
      <use x="336.330078" xlink:href="#DejaVuSans-6f"/>
      <use x="397.511719" xlink:href="#DejaVuSans-69"/>
      <use x="425.294922" xlink:href="#DejaVuSans-6e"/>
      <use x="488.673828" xlink:href="#DejaVuSans-74"/>
      <use x="527.882812" xlink:href="#DejaVuSans-20"/>
      <use x="559.669922" xlink:href="#DejaVuSans-66"/>
      <use x="594.875" xlink:href="#DejaVuSans-6f"/>
      <use x="656.056641" xlink:href="#DejaVuSans-72"/>
      <use x="697.169922" xlink:href="#DejaVuSans-20"/>
      <use x="728.957031" xlink:href="#DejaVuSans-46"/>
      <use x="786.429688" xlink:href="#DejaVuSans-6f"/>
      <use x="847.611328" xlink:href="#DejaVuSans-72"/>
      <use x="888.693359" xlink:href="#DejaVuSans-65"/>
      <use x="950.216797" xlink:href="#DejaVuSans-63"/>
      <use x="1005.197266" xlink:href="#DejaVuSans-61"/>
      <use x="1066.476562" xlink:href="#DejaVuSans-73"/>
      <use x="1118.576172" xlink:href="#DejaVuSans-74"/>
     </g>
    </g>
   </g>
  </g>
  <g id="axes_2">
   <g id="patch_8">
    <path d="M 46.965625 645.74 
L 1164.405625 645.74 
L 1164.405625 516.14 
L 46.965625 516.14 
z
" style="fill:none;"/>
   </g>
   <g id="matplotlib.axis_3">
    <g id="xtick_6">
     <g id="line2d_20">
      <g>
       <use style="stroke:#000000;stroke-width:0.8;" x="97.758352" xlink:href="#mf3d395a51c" y="645.74"/>
      </g>
     </g>
     <g id="text_16">
      <!-- 0 -->
      <g transform="translate(94.577102 660.338437)scale(0.1 -0.1)">
       <use xlink:href="#DejaVuSans-30"/>
      </g>
     </g>
    </g>
    <g id="xtick_7">
     <g id="line2d_21">
      <g>
       <use style="stroke:#000000;stroke-width:0.8;" x="222.250331" xlink:href="#mf3d395a51c" y="645.74"/>
      </g>
     </g>
     <g id="text_17">
      <!-- 25 -->
      <g transform="translate(215.887831 660.338437)scale(0.1 -0.1)">
       <use xlink:href="#DejaVuSans-32"/>
       <use x="63.623047" xlink:href="#DejaVuSans-35"/>
      </g>
     </g>
    </g>
    <g id="xtick_8">
     <g id="line2d_22">
      <g>
       <use style="stroke:#000000;stroke-width:0.8;" x="346.742309" xlink:href="#mf3d395a51c" y="645.74"/>
      </g>
     </g>
     <g id="text_18">
      <!-- 50 -->
      <g transform="translate(340.379809 660.338437)scale(0.1 -0.1)">
       <use xlink:href="#DejaVuSans-35"/>
       <use x="63.623047" xlink:href="#DejaVuSans-30"/>
      </g>
     </g>
    </g>
    <g id="xtick_9">
     <g id="line2d_23">
      <g>
       <use style="stroke:#000000;stroke-width:0.8;" x="471.234288" xlink:href="#mf3d395a51c" y="645.74"/>
      </g>
     </g>
     <g id="text_19">
      <!-- 75 -->
      <defs>
       <path d="M 8.203125 72.90625 
L 55.078125 72.90625 
L 55.078125 68.703125 
L 28.609375 0 
L 18.3125 0 
L 43.21875 64.59375 
L 8.203125 64.59375 
z
" id="DejaVuSans-37"/>
      </defs>
      <g transform="translate(464.871788 660.338437)scale(0.1 -0.1)">
       <use xlink:href="#DejaVuSans-37"/>
       <use x="63.623047" xlink:href="#DejaVuSans-35"/>
      </g>
     </g>
    </g>
    <g id="xtick_10">
     <g id="line2d_24">
      <g>
       <use style="stroke:#000000;stroke-width:0.8;" x="595.726267" xlink:href="#mf3d395a51c" y="645.74"/>
      </g>
     </g>
     <g id="text_20">
      <!-- 100 -->
      <g transform="translate(586.182517 660.338437)scale(0.1 -0.1)">
       <use xlink:href="#DejaVuSans-31"/>
       <use x="63.623047" xlink:href="#DejaVuSans-30"/>
       <use x="127.246094" xlink:href="#DejaVuSans-30"/>
      </g>
     </g>
    </g>
    <g id="xtick_11">
     <g id="line2d_25">
      <g>
       <use style="stroke:#000000;stroke-width:0.8;" x="720.218245" xlink:href="#mf3d395a51c" y="645.74"/>
      </g>
     </g>
     <g id="text_21">
      <!-- 125 -->
      <g transform="translate(710.674495 660.338437)scale(0.1 -0.1)">
       <use xlink:href="#DejaVuSans-31"/>
       <use x="63.623047" xlink:href="#DejaVuSans-32"/>
       <use x="127.246094" xlink:href="#DejaVuSans-35"/>
      </g>
     </g>
    </g>
    <g id="xtick_12">
     <g id="line2d_26">
      <g>
       <use style="stroke:#000000;stroke-width:0.8;" x="844.710224" xlink:href="#mf3d395a51c" y="645.74"/>
      </g>
     </g>
     <g id="text_22">
      <!-- 150 -->
      <g transform="translate(835.166474 660.338437)scale(0.1 -0.1)">
       <use xlink:href="#DejaVuSans-31"/>
       <use x="63.623047" xlink:href="#DejaVuSans-35"/>
       <use x="127.246094" xlink:href="#DejaVuSans-30"/>
      </g>
     </g>
    </g>
    <g id="xtick_13">
     <g id="line2d_27">
      <g>
       <use style="stroke:#000000;stroke-width:0.8;" x="969.202203" xlink:href="#mf3d395a51c" y="645.74"/>
      </g>
     </g>
     <g id="text_23">
      <!-- 175 -->
      <g transform="translate(959.658453 660.338437)scale(0.1 -0.1)">
       <use xlink:href="#DejaVuSans-31"/>
       <use x="63.623047" xlink:href="#DejaVuSans-37"/>
       <use x="127.246094" xlink:href="#DejaVuSans-35"/>
      </g>
     </g>
    </g>
    <g id="xtick_14">
     <g id="line2d_28">
      <g>
       <use style="stroke:#000000;stroke-width:0.8;" x="1093.694181" xlink:href="#mf3d395a51c" y="645.74"/>
      </g>
     </g>
     <g id="text_24">
      <!-- 200 -->
      <g transform="translate(1084.150431 660.338437)scale(0.1 -0.1)">
       <use xlink:href="#DejaVuSans-32"/>
       <use x="63.623047" xlink:href="#DejaVuSans-30"/>
       <use x="127.246094" xlink:href="#DejaVuSans-30"/>
      </g>
     </g>
    </g>
   </g>
   <g id="matplotlib.axis_4">
    <g id="ytick_6">
     <g id="line2d_29">
      <g>
       <use style="stroke:#000000;stroke-width:0.8;" x="46.965625" xlink:href="#m8e9187e2ad" y="628.268814"/>
      </g>
     </g>
     <g id="text_25">
      <!-- 15 -->
      <g transform="translate(27.240625 632.068033)scale(0.1 -0.1)">
       <use xlink:href="#DejaVuSans-31"/>
       <use x="63.623047" xlink:href="#DejaVuSans-35"/>
      </g>
     </g>
    </g>
    <g id="ytick_7">
     <g id="line2d_30">
      <g>
       <use style="stroke:#000000;stroke-width:0.8;" x="46.965625" xlink:href="#m8e9187e2ad" y="598.419663"/>
      </g>
     </g>
     <g id="text_26">
      <!-- 20 -->
      <g transform="translate(27.240625 602.218882)scale(0.1 -0.1)">
       <use xlink:href="#DejaVuSans-32"/>
       <use x="63.623047" xlink:href="#DejaVuSans-30"/>
      </g>
     </g>
    </g>
    <g id="ytick_8">
     <g id="line2d_31">
      <g>
       <use style="stroke:#000000;stroke-width:0.8;" x="46.965625" xlink:href="#m8e9187e2ad" y="568.570512"/>
      </g>
     </g>
     <g id="text_27">
      <!-- 25 -->
      <g transform="translate(27.240625 572.36973)scale(0.1 -0.1)">
       <use xlink:href="#DejaVuSans-32"/>
       <use x="63.623047" xlink:href="#DejaVuSans-35"/>
      </g>
     </g>
    </g>
    <g id="ytick_9">
     <g id="line2d_32">
      <g>
       <use style="stroke:#000000;stroke-width:0.8;" x="46.965625" xlink:href="#m8e9187e2ad" y="538.72136"/>
      </g>
     </g>
     <g id="text_28">
      <!-- 30 -->
      <defs>
       <path d="M 40.578125 39.3125 
Q 47.65625 37.796875 51.625 33 
Q 55.609375 28.21875 55.609375 21.1875 
Q 55.609375 10.40625 48.1875 4.484375 
Q 40.765625 -1.421875 27.09375 -1.421875 
Q 22.515625 -1.421875 17.65625 -0.515625 
Q 12.796875 0.390625 7.625 2.203125 
L 7.625 11.71875 
Q 11.71875 9.328125 16.59375 8.109375 
Q 21.484375 6.890625 26.8125 6.890625 
Q 36.078125 6.890625 40.9375 10.546875 
Q 45.796875 14.203125 45.796875 21.1875 
Q 45.796875 27.640625 41.28125 31.265625 
Q 36.765625 34.90625 28.71875 34.90625 
L 20.21875 34.90625 
L 20.21875 43.015625 
L 29.109375 43.015625 
Q 36.375 43.015625 40.234375 45.921875 
Q 44.09375 48.828125 44.09375 54.296875 
Q 44.09375 59.90625 40.109375 62.90625 
Q 36.140625 65.921875 28.71875 65.921875 
Q 24.65625 65.921875 20.015625 65.03125 
Q 15.375 64.15625 9.8125 62.3125 
L 9.8125 71.09375 
Q 15.4375 72.65625 20.34375 73.4375 
Q 25.25 74.21875 29.59375 74.21875 
Q 40.828125 74.21875 47.359375 69.109375 
Q 53.90625 64.015625 53.90625 55.328125 
Q 53.90625 49.265625 50.4375 45.09375 
Q 46.96875 40.921875 40.578125 39.3125 
z
" id="DejaVuSans-33"/>
      </defs>
      <g transform="translate(27.240625 542.520579)scale(0.1 -0.1)">
       <use xlink:href="#DejaVuSans-33"/>
       <use x="63.623047" xlink:href="#DejaVuSans-30"/>
      </g>
     </g>
    </g>
    <g id="text_29">
     <!-- Temperature -->
     <defs>
      <path d="M 18.109375 8.203125 
L 18.109375 -20.796875 
L 9.078125 -20.796875 
L 9.078125 54.6875 
L 18.109375 54.6875 
L 18.109375 46.390625 
Q 20.953125 51.265625 25.265625 53.625 
Q 29.59375 56 35.59375 56 
Q 45.5625 56 51.78125 48.09375 
Q 58.015625 40.1875 58.015625 27.296875 
Q 58.015625 14.40625 51.78125 6.484375 
Q 45.5625 -1.421875 35.59375 -1.421875 
Q 29.59375 -1.421875 25.265625 0.953125 
Q 20.953125 3.328125 18.109375 8.203125 
z
M 48.6875 27.296875 
Q 48.6875 37.203125 44.609375 42.84375 
Q 40.53125 48.484375 33.40625 48.484375 
Q 26.265625 48.484375 22.1875 42.84375 
Q 18.109375 37.203125 18.109375 27.296875 
Q 18.109375 17.390625 22.1875 11.75 
Q 26.265625 6.109375 33.40625 6.109375 
Q 40.53125 6.109375 44.609375 11.75 
Q 48.6875 17.390625 48.6875 27.296875 
z
" id="DejaVuSans-70"/>
     </defs>
     <g style="fill:#0000ff;" transform="translate(21.160938 613.557187)rotate(-90)scale(0.1 -0.1)">
      <use xlink:href="#DejaVuSans-54"/>
      <use x="60.818359" xlink:href="#DejaVuSans-65"/>
      <use x="122.341797" xlink:href="#DejaVuSans-6d"/>
      <use x="219.753906" xlink:href="#DejaVuSans-70"/>
      <use x="283.230469" xlink:href="#DejaVuSans-65"/>
      <use x="344.753906" xlink:href="#DejaVuSans-72"/>
      <use x="385.867188" xlink:href="#DejaVuSans-61"/>
      <use x="447.146484" xlink:href="#DejaVuSans-74"/>
      <use x="486.355469" xlink:href="#DejaVuSans-75"/>
      <use x="549.734375" xlink:href="#DejaVuSans-72"/>
      <use x="590.816406" xlink:href="#DejaVuSans-65"/>
     </g>
    </g>
   </g>
   <g id="line2d_33">
    <path clip-path="url(#p3cf954be6c)" d="M 97.758352 537.72619 
L 102.738031 536.377008 
L 107.717711 546.657056 
L 112.69739 549.887331 
L 117.677069 544.39449 
L 122.656748 550.460435 
L 127.636427 544.466128 
L 132.616106 541.121232 
L 137.595785 536.362084 
L 142.575465 525.782947 
L 152.534823 536.761465 
L 157.514502 536.293431 
L 167.47386 544.297182 
L 172.453539 540.068154 
L 177.433219 540.354706 
L 182.412898 540.943331 
L 187.392577 548.296968 
L 192.372256 544.352701 
L 197.351935 535.743609 
L 202.331614 536.548342 
L 207.311293 535.363331 
L 212.290973 543.477524 
L 217.270652 544.214798 
L 222.250331 541.100338 
L 227.23001 543.813626 
L 232.209689 543.113962 
L 237.189368 549.228262 
L 242.169047 542.996953 
L 247.148727 543.959887 
L 252.128406 541.730155 
L 257.108085 535.769279 
L 262.087764 533.738343 
L 267.067443 538.641962 
L 272.047122 541.780898 
L 277.026801 541.057355 
L 282.006481 540.530219 
L 286.98616 541.157051 
L 291.965839 542.685328 
L 296.945518 545.541892 
L 301.925197 540.983926 
L 306.904876 542.20595 
L 311.884555 536.822954 
L 316.864235 532.054254 
L 321.843914 530.390462 
L 326.823593 538.261684 
L 331.803272 544.365835 
L 336.782951 544.055404 
L 341.76263 541.349877 
L 346.742309 541.629862 
L 351.721989 545.341902 
L 356.701668 544.974758 
L 361.681347 550.591174 
L 366.661026 545.45712 
L 371.640705 533.267324 
L 376.620384 539.184022 
L 381.600064 532.661983 
L 386.579743 544.595673 
L 391.559422 540.806622 
L 396.539101 545.306083 
L 401.51878 543.212464 
L 406.498459 541.680008 
L 411.478138 541.352862 
L 416.457818 543.333651 
L 421.437497 541.863879 
L 426.417176 543.099634 
L 431.396855 538.145869 
L 436.376534 525.086268 
L 441.356213 525.702355 
L 446.335892 533.17897 
L 451.315572 542.779651 
L 456.295251 543.876309 
L 461.27493 543.86019 
L 466.254609 547.468953 
L 471.234288 554.676329 
L 476.213967 548.667098 
L 481.193646 540.248443 
L 486.173326 540.035917 
L 491.153005 539.653848 
L 496.132684 533.12166 
L 501.112363 527.924326 
L 506.092042 533.500147 
L 511.071721 539.415055 
L 516.0514 541.684187 
L 521.03108 537.82708 
L 526.010759 538.557787 
L 530.990438 540.026365 
L 535.970117 546.207528 
L 540.949796 541.086607 
L 545.929475 543.36171 
L 550.909154 539.25566 
L 555.888834 534.387264 
L 560.868513 534.473826 
L 565.848192 536.670127 
L 575.80755 543.174854 
L 580.787229 539.169098 
L 585.766908 539.323119 
L 590.746588 550.841907 
L 595.726267 543.308578 
L 600.705946 542.339078 
L 605.685625 545.159822 
L 610.665304 535.457057 
L 615.644983 530.244202 
L 620.624662 528.372063 
L 625.604342 540.329036 
L 630.584021 543.218434 
L 635.5637 545.785461 
L 640.543379 545.642185 
L 645.523058 546.089325 
L 650.502737 549.689133 
L 655.482416 551.302778 
L 660.462096 544.698355 
L 665.441775 547.403285 
L 670.421454 538.912395 
L 675.401133 539.781005 
L 680.380812 532.342597 
L 685.360491 536.718482 
L 690.34017 541.567179 
L 695.31985 541.012581 
L 700.299529 534.351445 
L 705.279208 534.960367 
L 710.258887 539.590568 
L 715.238566 543.605876 
L 720.218245 540.369034 
L 725.197924 536.006282 
L 730.177604 529.04546 
L 735.157283 526.829459 
L 740.136962 522.204034 
L 745.116641 540.621557 
L 750.09632 542.618466 
L 755.075999 543.823177 
L 760.055678 546.26842 
L 765.035358 545.241609 
L 770.015037 540.671107 
L 774.994716 555.624935 
L 779.974395 551.385758 
L 784.954074 540.388137 
L 789.933753 534.729932 
L 794.913432 531.956349 
L 799.893112 523.725147 
L 804.872791 533.032112 
L 809.85247 541.995812 
L 814.832149 545.658303 
L 819.811828 541.767765 
L 824.791507 540.094421 
L 829.771186 552.367198 
L 834.750866 549.944641 
L 839.730545 545.617708 
L 844.710224 545.917991 
L 849.689903 534.2416 
L 854.669582 537.755442 
L 859.649261 533.679839 
L 864.628941 533.201655 
L 869.60862 538.984033 
L 874.588299 536.099411 
L 879.567978 540.022783 
L 884.547657 538.913589 
L 889.527336 540.70215 
L 894.507015 541.217944 
L 899.486695 535.823605 
L 904.466374 534.026686 
L 909.446053 536.567446 
L 914.425732 535.142447 
L 919.405411 523.722759 
L 924.38509 534.766348 
L 929.364769 538.464658 
L 934.344449 536.739377 
L 939.324128 539.064626 
L 944.303807 536.883847 
L 949.283486 538.766731 
L 954.263165 539.954727 
L 959.242844 535.460639 
L 964.222523 535.526307 
L 969.202203 531.351008 
L 974.181882 523.128164 
L 979.161561 523.195026 
L 984.14124 527.149442 
L 989.120919 532.171263 
L 994.100598 532.287077 
L 999.080277 535.75734 
L 1004.059957 540.266353 
L 1009.039636 539.3864 
L 1014.019315 539.321925 
L 1018.998994 539.442516 
L 1023.978673 538.765537 
L 1028.958352 532.510349 
L 1033.938031 530.494934 
L 1038.917711 524.735242 
L 1043.89739 528.90099 
L 1048.877069 533.830876 
L 1053.856748 537.321435 
L 1058.836427 534.185483 
L 1063.816106 536.106575 
L 1068.795785 538.56913 
L 1073.775465 540.6329 
L 1078.755144 535.840917 
L 1083.734823 532.39334 
L 1088.714502 532.740785 
L 1093.694181 528.34878 
L 1098.67386 522.030909 
L 1103.653539 533.038082 
L 1108.633219 537.97155 
L 1113.612898 537.723205 
L 1113.612898 537.723205 
" style="fill:none;stroke:#ff0000;stroke-linecap:square;stroke-width:1.5;"/>
   </g>
   <g id="line2d_34">
    <path clip-path="url(#p3cf954be6c)" d="M 97.758352 563.00663 
L 102.738031 565.32173 
L 107.717711 570.099982 
L 112.69739 571.464685 
L 117.677069 567.066115 
L 122.656748 570.421159 
L 127.636427 569.092872 
L 132.616106 566.281082 
L 137.595785 559.951271 
L 142.575465 552.252578 
L 147.555144 556.158041 
L 152.534823 561.815052 
L 157.514502 561.659836 
L 162.494181 564.003592 
L 167.47386 569.589562 
L 172.453539 565.781407 
L 177.433219 566.126463 
L 182.412898 566.281679 
L 187.392577 570.967399 
L 192.372256 567.131783 
L 197.351935 562.806641 
L 202.331614 559.64084 
L 207.311293 561.083151 
L 212.290973 565.954532 
L 217.270652 567.494151 
L 222.250331 564.180896 
L 227.23001 568.525738 
L 232.209689 566.715685 
L 237.189368 570.374594 
L 242.169047 566.025573 
L 247.148727 566.388539 
L 252.128406 564.185671 
L 257.108085 560.185885 
L 262.087764 558.463589 
L 267.067443 562.535013 
L 272.047122 564.460284 
L 277.026801 565.585597 
L 282.006481 567.624294 
L 286.98616 567.912039 
L 291.965839 568.996161 
L 296.945518 568.621255 
L 301.925197 565.270987 
L 306.904876 565.25845 
L 311.884555 562.226373 
L 316.864235 558.893417 
L 321.843914 556.519215 
L 326.823593 562.781567 
L 331.803272 568.034421 
L 336.782951 565.433366 
L 341.76263 566.030349 
L 346.742309 567.410574 
L 351.721989 568.992579 
L 356.701668 569.161525 
L 361.681347 570.485036 
L 366.661026 568.720951 
L 371.640705 562.71172 
L 376.620384 562.101007 
L 381.600064 558.820585 
L 386.579743 565.843493 
L 391.559422 564.58565 
L 396.539101 569.182419 
L 401.51878 568.755576 
L 406.498459 563.604807 
L 411.478138 567.663098 
L 416.457818 569.141228 
L 421.437497 568.340076 
L 426.417176 568.670805 
L 431.396855 565.275165 
L 436.376534 556.236842 
L 441.356213 554.824381 
L 446.335892 559.633676 
L 451.315572 565.487691 
L 456.295251 566.959852 
L 461.27493 569.215253 
L 466.254609 570.837256 
L 471.234288 575.268661 
L 481.193646 569.242715 
L 486.173326 568.236201 
L 496.132684 565.51575 
L 501.112363 559.12624 
L 506.092042 561.669388 
L 511.071721 565.782601 
L 516.0514 567.492957 
L 521.03108 564.097915 
L 526.010759 566.992089 
L 530.990438 566.970597 
L 535.970117 571.31544 
L 540.949796 567.806373 
L 545.929475 568.654089 
L 550.909154 565.758722 
L 555.888834 563.249602 
L 560.868513 562.32786 
L 565.848192 563.27766 
L 570.827871 564.033441 
L 575.80755 567.96935 
L 580.787229 566.559873 
L 585.766908 567.669067 
L 590.746588 574.61198 
L 595.726267 569.007503 
L 600.705946 569.27137 
L 605.685625 570.184157 
L 610.665304 566.023782 
L 615.644983 562.50397 
L 620.624662 559.3519 
L 625.604342 566.844037 
L 630.584021 568.165757 
L 635.5637 570.575181 
L 640.543379 571.157239 
L 645.523058 571.137539 
L 650.502737 572.991171 
L 655.482416 573.982163 
L 660.462096 569.500611 
L 665.441775 570.505931 
L 670.421454 566.460774 
L 675.401133 567.298938 
L 680.380812 559.846799 
L 685.360491 564.297904 
L 690.34017 567.125813 
L 695.31985 565.023239 
L 700.299529 562.138617 
L 705.279208 562.820371 
L 710.258887 565.530674 
L 715.238566 568.060688 
L 720.218245 565.872148 
L 725.197924 564.390437 
L 730.177604 558.510154 
L 735.157283 556.190278 
L 740.136962 553.675785 
L 745.116641 563.277063 
L 750.09632 567.601608 
L 755.075999 567.703692 
L 760.055678 570.445038 
L 765.035358 570.757858 
L 770.015037 566.918063 
L 774.994716 578.377152 
L 779.974395 577.381981 
L 784.954074 568.966908 
L 789.933753 564.579083 
L 794.913432 563.885389 
L 799.893112 559.880827 
L 804.872791 560.923159 
L 809.85247 567.315056 
L 814.832149 570.107743 
L 819.811828 568.863033 
L 824.791507 567.14014 
L 829.771186 575.075239 
L 834.750866 574.140363 
L 839.730545 571.701091 
L 844.710224 572.45508 
L 849.689903 563.06991 
L 854.669582 565.916922 
L 859.649261 565.985575 
L 864.628941 562.680677 
L 869.60862 564.814295 
L 874.588299 562.966035 
L 879.567978 568.637374 
L 884.547657 569.455838 
L 889.527336 569.457629 
L 894.507015 568.885719 
L 899.486695 565.967666 
L 904.466374 563.571376 
L 909.446053 567.091785 
L 914.425732 565.336655 
L 919.405411 556.183114 
L 924.38509 565.188603 
L 929.364769 567.70011 
L 934.344449 565.17726 
L 939.324128 567.42908 
L 944.303807 566.450028 
L 949.283486 568.360374 
L 954.263165 570.912476 
L 959.242844 565.891252 
L 964.222523 566.442864 
L 969.202203 563.835242 
L 974.181882 560.365577 
L 979.161561 556.482799 
L 984.14124 557.718554 
L 989.120919 560.802569 
L 994.100598 558.955503 
L 999.080277 567.168796 
L 1004.059957 570.828899 
L 1009.039636 568.793783 
L 1014.019315 567.963977 
L 1018.998994 569.092275 
L 1028.958352 564.563562 
L 1033.938031 562.801268 
L 1038.917711 556.80517 
L 1043.89739 559.233697 
L 1048.877069 556.384894 
L 1053.856748 564.871008 
L 1058.836427 561.202547 
L 1063.816106 565.08831 
L 1068.795785 567.131783 
L 1073.775465 568.605137 
L 1078.755144 564.570725 
L 1083.734823 565.386801 
L 1088.714502 564.448941 
L 1093.694181 558.120324 
L 1098.67386 556.913821 
L 1103.653539 563.175576 
L 1108.633219 567.830253 
L 1113.612898 568.942432 
L 1113.612898 568.942432 
" style="fill:none;stroke:#008000;stroke-linecap:square;stroke-width:1.5;"/>
   </g>
   <g id="line2d_35">
    <path clip-path="url(#p3cf954be6c)" d="M 97.758352 588.239908 
L 102.738031 589.632073 
L 107.717711 589.56342 
L 112.69739 593.018161 
L 117.677069 592.366255 
L 122.656748 597.240025 
L 127.636427 600.952662 
L 132.616106 598.525329 
L 137.595785 594.329135 
L 142.575465 585.429312 
L 147.555144 584.196542 
L 152.534823 584.848448 
L 157.514502 586.709841 
L 162.494181 588.04171 
L 167.47386 592.231337 
L 172.453539 590.347259 
L 177.433219 590.756789 
L 182.412898 593.548281 
L 187.392577 598.507419 
L 192.372256 594.898657 
L 197.351935 597.99282 
L 202.331614 586.521791 
L 207.311293 588.393333 
L 212.290973 587.717548 
L 217.270652 589.629088 
L 222.250331 587.090119 
L 227.23001 590.720373 
L 232.209689 588.533624 
L 237.189368 591.50063 
L 242.169047 592.372225 
L 247.148727 593.935126 
L 252.128406 592.000304 
L 257.108085 592.931598 
L 262.087764 589.124637 
L 267.067443 584.490258 
L 272.047122 588.005294 
L 277.026801 588.785551 
L 282.006481 588.596307 
L 286.98616 592.031945 
L 291.965839 594.434801 
L 296.945518 595.346991 
L 301.925197 595.948153 
L 306.904876 593.756032 
L 311.884555 594.897463 
L 316.864235 592.575199 
L 321.843914 587.166533 
L 326.823593 587.157578 
L 331.803272 590.142493 
L 336.782951 587.225037 
L 341.76263 590.904841 
L 346.742309 592.261783 
L 351.721989 590.538293 
L 356.701668 592.94712 
L 361.681347 593.515447 
L 366.661026 596.015015 
L 371.640705 598.89128 
L 376.620384 587.820229 
L 381.600064 590.269651 
L 386.579743 585.074107 
L 391.559422 588.211253 
L 396.539101 592.775188 
L 401.51878 590.990209 
L 406.498459 594.653894 
L 411.478138 594.033032 
L 416.457818 596.264554 
L 421.437497 600.9055 
L 426.417176 599.2435 
L 431.396855 602.54004 
L 436.376534 592.456997 
L 441.356213 588.089469 
L 446.335892 586.631636 
L 451.315572 587.813663 
L 456.295251 590.848724 
L 461.27493 593.137557 
L 466.254609 591.628981 
L 471.234288 593.533954 
L 476.213967 596.028149 
L 481.193646 602.745402 
L 486.173326 599.740189 
L 491.153005 598.500853 
L 496.132684 597.592244 
L 501.112363 595.024024 
L 506.092042 591.110203 
L 511.071721 590.150254 
L 516.0514 591.994335 
L 521.03108 591.006328 
L 526.010759 595.783386 
L 530.990438 591.848074 
L 535.970117 599.235142 
L 540.949796 596.718261 
L 545.929475 595.039545 
L 550.909154 600.221358 
L 555.888834 596.998843 
L 560.868513 592.694596 
L 565.848192 586.961171 
L 570.827871 588.293637 
L 575.80755 591.603311 
L 580.787229 591.616444 
L 585.766908 592.724445 
L 590.746588 594.428831 
L 595.726267 594.572704 
L 600.705946 598.65368 
L 605.685625 601.464276 
L 610.665304 601.427263 
L 615.644983 599.319913 
L 620.624662 593.767971 
L 625.604342 593.338143 
L 630.584021 591.313774 
L 635.5637 593.160243 
L 640.543379 594.126161 
L 645.523058 593.03607 
L 650.502737 592.334615 
L 655.482416 595.945168 
L 660.462096 596.894968 
L 665.441775 598.598758 
L 670.421454 596.930787 
L 675.401133 601.249362 
L 680.380812 592.748324 
L 685.360491 590.485759 
L 690.34017 591.081548 
L 695.31985 588.839876 
L 700.299529 588.731822 
L 705.279208 591.571074 
L 710.258887 589.290599 
L 715.238566 593.001445 
L 720.218245 594.813885 
L 725.197924 596.244257 
L 730.177604 590.937078 
L 735.157283 590.324573 
L 740.136962 584.432351 
L 745.116641 586.872817 
L 750.09632 590.149657 
L 755.075999 589.786094 
L 760.055678 592.854587 
L 765.035358 592.496397 
L 770.015037 592.456997 
L 779.974395 609.99994 
L 784.954074 601.883358 
L 789.933753 598.460258 
L 794.913432 600.527013 
L 799.893112 599.531842 
L 804.872791 588.80346 
L 809.85247 589.614163 
L 814.832149 592.324466 
L 819.811828 593.492762 
L 824.791507 591.77763 
L 829.771186 593.178152 
L 834.750866 598.408917 
L 839.730545 600.500746 
L 844.710224 603.80445 
L 849.689903 599.083508 
L 854.669582 597.509264 
L 859.649261 597.607766 
L 864.628941 591.7836 
L 869.60862 594.327344 
L 874.588299 589.967577 
L 879.567978 596.92422 
L 884.547657 596.730201 
L 889.527336 595.629364 
L 894.507015 598.838745 
L 899.486695 598.350413 
L 904.466374 596.013821 
L 909.446053 602.373482 
L 914.425732 596.471707 
L 919.405411 592.568035 
L 924.38509 594.536288 
L 929.364769 595.435942 
L 934.344449 590.590828 
L 939.324128 595.652647 
L 944.303807 592.722057 
L 949.283486 594.021092 
L 954.263165 597.704477 
L 959.242844 600.362246 
L 964.222523 601.435621 
L 969.202203 602.18185 
L 974.181882 602.486311 
L 979.161561 590.44994 
L 984.14124 591.162737 
L 989.120919 588.046486 
L 994.100598 583.307635 
L 999.080277 593.609771 
L 1004.059957 595.83592 
L 1009.039636 593.52679 
L 1014.019315 595.477731 
L 1018.998994 598.263253 
L 1023.978673 593.245014 
L 1028.958352 600.257177 
L 1033.938031 597.61493 
L 1038.917711 590.336513 
L 1043.89739 592.057615 
L 1048.877069 583.293307 
L 1053.856748 587.078776 
L 1058.836427 592.53341 
L 1063.816106 594.311226 
L 1068.795785 594.249737 
L 1073.775465 596.60185 
L 1078.755144 594.936267 
L 1083.734823 603.214631 
L 1088.714502 597.710447 
L 1093.694181 596.591701 
L 1098.67386 591.310789 
L 1103.653539 591.194377 
L 1108.633219 594.208545 
L 1113.612898 593.615144 
L 1113.612898 593.615144 
" style="fill:none;stroke:#0000ff;stroke-linecap:square;stroke-width:1.5;"/>
   </g>
   <g id="line2d_36">
    <defs>
     <path d="M 0 3 
C 0.795609 3 1.55874 2.683901 2.12132 2.12132 
C 2.683901 1.55874 3 0.795609 3 0 
C 3 -0.795609 2.683901 -1.55874 2.12132 -2.12132 
C 1.55874 -2.683901 0.795609 -3 0 -3 
C -0.795609 -3 -1.55874 -2.683901 -2.12132 -2.12132 
C -2.683901 -1.55874 -3 -0.795609 -3 0 
C -3 0.795609 -2.683901 1.55874 -2.12132 2.12132 
C -1.55874 2.683901 -0.795609 3 0 3 
z
" id="m1a65b73dd9" style="stroke:#ff0000;"/>
    </defs>
    <g clip-path="url(#p3cf954be6c)">
     <use style="fill:#ff0000;stroke:#ff0000;" x="107.717711" xlink:href="#m1a65b73dd9" y="639.849091"/>
     <use style="fill:#ff0000;stroke:#ff0000;" x="152.534823" xlink:href="#m1a65b73dd9" y="639.849091"/>
     <use style="fill:#ff0000;stroke:#ff0000;" x="232.209689" xlink:href="#m1a65b73dd9" y="639.849091"/>
     <use style="fill:#ff0000;stroke:#ff0000;" x="267.067443" xlink:href="#m1a65b73dd9" y="639.849091"/>
     <use style="fill:#ff0000;stroke:#ff0000;" x="296.945518" xlink:href="#m1a65b73dd9" y="639.849091"/>
     <use style="fill:#ff0000;stroke:#ff0000;" x="301.925197" xlink:href="#m1a65b73dd9" y="639.849091"/>
     <use style="fill:#ff0000;stroke:#ff0000;" x="361.681347" xlink:href="#m1a65b73dd9" y="639.849091"/>
     <use style="fill:#ff0000;stroke:#ff0000;" x="386.579743" xlink:href="#m1a65b73dd9" y="639.849091"/>
     <use style="fill:#ff0000;stroke:#ff0000;" x="416.457818" xlink:href="#m1a65b73dd9" y="639.849091"/>
     <use style="fill:#ff0000;stroke:#ff0000;" x="426.417176" xlink:href="#m1a65b73dd9" y="639.849091"/>
     <use style="fill:#ff0000;stroke:#ff0000;" x="466.254609" xlink:href="#m1a65b73dd9" y="639.849091"/>
     <use style="fill:#ff0000;stroke:#ff0000;" x="471.234288" xlink:href="#m1a65b73dd9" y="639.849091"/>
     <use style="fill:#ff0000;stroke:#ff0000;" x="585.766908" xlink:href="#m1a65b73dd9" y="639.849091"/>
     <use style="fill:#ff0000;stroke:#ff0000;" x="590.746588" xlink:href="#m1a65b73dd9" y="639.849091"/>
     <use style="fill:#ff0000;stroke:#ff0000;" x="625.604342" xlink:href="#m1a65b73dd9" y="639.849091"/>
     <use style="fill:#ff0000;stroke:#ff0000;" x="645.523058" xlink:href="#m1a65b73dd9" y="639.849091"/>
     <use style="fill:#ff0000;stroke:#ff0000;" x="650.502737" xlink:href="#m1a65b73dd9" y="639.849091"/>
     <use style="fill:#ff0000;stroke:#ff0000;" x="655.482416" xlink:href="#m1a65b73dd9" y="639.849091"/>
     <use style="fill:#ff0000;stroke:#ff0000;" x="665.441775" xlink:href="#m1a65b73dd9" y="639.849091"/>
     <use style="fill:#ff0000;stroke:#ff0000;" x="765.035358" xlink:href="#m1a65b73dd9" y="639.849091"/>
     <use style="fill:#ff0000;stroke:#ff0000;" x="774.994716" xlink:href="#m1a65b73dd9" y="639.849091"/>
     <use style="fill:#ff0000;stroke:#ff0000;" x="829.771186" xlink:href="#m1a65b73dd9" y="639.849091"/>
     <use style="fill:#ff0000;stroke:#ff0000;" x="874.588299" xlink:href="#m1a65b73dd9" y="639.849091"/>
     <use style="fill:#ff0000;stroke:#ff0000;" x="884.547657" xlink:href="#m1a65b73dd9" y="639.849091"/>
     <use style="fill:#ff0000;stroke:#ff0000;" x="1033.938031" xlink:href="#m1a65b73dd9" y="639.849091"/>
     <use style="fill:#ff0000;stroke:#ff0000;" x="1048.877069" xlink:href="#m1a65b73dd9" y="639.849091"/>
     <use style="fill:#ff0000;stroke:#ff0000;" x="1053.856748" xlink:href="#m1a65b73dd9" y="639.849091"/>
     <use style="fill:#ff0000;stroke:#ff0000;" x="1058.836427" xlink:href="#m1a65b73dd9" y="639.849091"/>
    </g>
   </g>
   <g id="patch_9">
    <path d="M 46.965625 645.74 
L 46.965625 516.14 
" style="fill:none;stroke:#000000;stroke-linecap:square;stroke-linejoin:miter;stroke-width:0.8;"/>
   </g>
   <g id="patch_10">
    <path d="M 1164.405625 645.74 
L 1164.405625 516.14 
" style="fill:none;stroke:#000000;stroke-linecap:square;stroke-linejoin:miter;stroke-width:0.8;"/>
   </g>
   <g id="patch_11">
    <path d="M 46.965625 645.74 
L 1164.405625 645.74 
" style="fill:none;stroke:#000000;stroke-linecap:square;stroke-linejoin:miter;stroke-width:0.8;"/>
   </g>
   <g id="patch_12">
    <path d="M 46.965625 516.14 
L 1164.405625 516.14 
" style="fill:none;stroke:#000000;stroke-linecap:square;stroke-linejoin:miter;stroke-width:0.8;"/>
   </g>
   <g id="legend_2">
    <g id="patch_13">
     <path d="M 53.965625 582.8525 
L 144.978125 582.8525 
Q 146.978125 582.8525 146.978125 580.8525 
L 146.978125 523.14 
Q 146.978125 521.14 144.978125 521.14 
L 53.965625 521.14 
Q 51.965625 521.14 51.965625 523.14 
L 51.965625 580.8525 
Q 51.965625 582.8525 53.965625 582.8525 
z
" style="fill:#ffffff;opacity:0.8;stroke:#cccccc;stroke-linejoin:miter;"/>
    </g>
    <g id="line2d_37">
     <path d="M 55.965625 529.238437 
L 75.965625 529.238437 
" style="fill:none;stroke:#ff0000;stroke-linecap:square;stroke-width:1.5;"/>
    </g>
    <g id="line2d_38"/>
    <g id="text_30">
     <!-- Maxmimum -->
     <defs>
      <path d="M 9.8125 72.90625 
L 24.515625 72.90625 
L 43.109375 23.296875 
L 61.8125 72.90625 
L 76.515625 72.90625 
L 76.515625 0 
L 66.890625 0 
L 66.890625 64.015625 
L 48.09375 14.015625 
L 38.1875 14.015625 
L 19.390625 64.015625 
L 19.390625 0 
L 9.8125 0 
z
" id="DejaVuSans-4d"/>
      <path d="M 54.890625 54.6875 
L 35.109375 28.078125 
L 55.90625 0 
L 45.3125 0 
L 29.390625 21.484375 
L 13.484375 0 
L 2.875 0 
L 24.125 28.609375 
L 4.6875 54.6875 
L 15.28125 54.6875 
L 29.78125 35.203125 
L 44.28125 54.6875 
z
" id="DejaVuSans-78"/>
     </defs>
     <g transform="translate(83.965625 532.738437)scale(0.1 -0.1)">
      <use xlink:href="#DejaVuSans-4d"/>
      <use x="86.279297" xlink:href="#DejaVuSans-61"/>
      <use x="147.558594" xlink:href="#DejaVuSans-78"/>
      <use x="206.738281" xlink:href="#DejaVuSans-6d"/>
      <use x="304.150391" xlink:href="#DejaVuSans-69"/>
      <use x="331.933594" xlink:href="#DejaVuSans-6d"/>
      <use x="429.345703" xlink:href="#DejaVuSans-75"/>
      <use x="492.724609" xlink:href="#DejaVuSans-6d"/>
     </g>
    </g>
    <g id="line2d_39">
     <path d="M 55.965625 543.916562 
L 75.965625 543.916562 
" style="fill:none;stroke:#008000;stroke-linecap:square;stroke-width:1.5;"/>
    </g>
    <g id="line2d_40"/>
    <g id="text_31">
     <!-- Average -->
     <defs>
      <path d="M 34.1875 63.1875 
L 20.796875 26.90625 
L 47.609375 26.90625 
z
M 28.609375 72.90625 
L 39.796875 72.90625 
L 67.578125 0 
L 57.328125 0 
L 50.6875 18.703125 
L 17.828125 18.703125 
L 11.1875 0 
L 0.78125 0 
z
" id="DejaVuSans-41"/>
      <path d="M 2.984375 54.6875 
L 12.5 54.6875 
L 29.59375 8.796875 
L 46.6875 54.6875 
L 56.203125 54.6875 
L 35.6875 0 
L 23.484375 0 
z
" id="DejaVuSans-76"/>
     </defs>
     <g transform="translate(83.965625 547.416562)scale(0.1 -0.1)">
      <use xlink:href="#DejaVuSans-41"/>
      <use x="68.330078" xlink:href="#DejaVuSans-76"/>
      <use x="127.509766" xlink:href="#DejaVuSans-65"/>
      <use x="189.033203" xlink:href="#DejaVuSans-72"/>
      <use x="230.146484" xlink:href="#DejaVuSans-61"/>
      <use x="291.425781" xlink:href="#DejaVuSans-67"/>
      <use x="354.902344" xlink:href="#DejaVuSans-65"/>
     </g>
    </g>
    <g id="line2d_41">
     <path d="M 55.965625 558.594687 
L 75.965625 558.594687 
" style="fill:none;stroke:#0000ff;stroke-linecap:square;stroke-width:1.5;"/>
    </g>
    <g id="line2d_42"/>
    <g id="text_32">
     <!-- Minimum -->
     <g transform="translate(83.965625 562.094687)scale(0.1 -0.1)">
      <use xlink:href="#DejaVuSans-4d"/>
      <use x="86.279297" xlink:href="#DejaVuSans-69"/>
      <use x="114.0625" xlink:href="#DejaVuSans-6e"/>
      <use x="177.441406" xlink:href="#DejaVuSans-69"/>
      <use x="205.224609" xlink:href="#DejaVuSans-6d"/>
      <use x="302.636719" xlink:href="#DejaVuSans-75"/>
      <use x="366.015625" xlink:href="#DejaVuSans-6d"/>
     </g>
    </g>
    <g id="line2d_43"/>
    <g id="line2d_44">
     <g>
      <use style="fill:#ff0000;stroke:#ff0000;" x="65.965625" xlink:href="#m1a65b73dd9" y="573.272812"/>
     </g>
    </g>
    <g id="text_33">
     <!-- Disasters -->
     <g transform="translate(83.965625 576.772812)scale(0.1 -0.1)">
      <use xlink:href="#DejaVuSans-44"/>
      <use x="77.001953" xlink:href="#DejaVuSans-69"/>
      <use x="104.785156" xlink:href="#DejaVuSans-73"/>
      <use x="156.884766" xlink:href="#DejaVuSans-61"/>
      <use x="218.164062" xlink:href="#DejaVuSans-73"/>
      <use x="270.263672" xlink:href="#DejaVuSans-74"/>
      <use x="309.472656" xlink:href="#DejaVuSans-65"/>
      <use x="370.996094" xlink:href="#DejaVuSans-72"/>
      <use x="412.109375" xlink:href="#DejaVuSans-73"/>
     </g>
    </g>
   </g>
  </g>
 </g>
 <defs>
  <clipPath id="pd01221dfd0">
   <rect height="498.96" width="1116" x="46.965625" y="10.7"/>
  </clipPath>
  <clipPath id="p3cf954be6c">
   <rect height="129.6" width="1117.44" x="46.965625" y="516.14"/>
  </clipPath>
 </defs>
</svg>
