<?xml version="1.0" encoding="utf-8" standalone="no"?>
<!DOCTYPE svg PUBLIC "-//W3C//DTD SVG 1.1//EN"
  "http://www.w3.org/Graphics/SVG/1.1/DTD/svg11.dtd">
<!-- Created with matplotlib (http://matplotlib.org/) -->
<svg height="669pt" version="1.1" viewBox="0 0 1168 669" width="1168pt" xmlns="http://www.w3.org/2000/svg" xmlns:xlink="http://www.w3.org/1999/xlink">
 <defs>
  <style type="text/css">
*{stroke-linecap:butt;stroke-linejoin:round;}
  </style>
 </defs>
 <g id="figure_1">
  <g id="patch_1">
   <path d="M 0 669.618125 
L 1168.743125 669.618125 
L 1168.743125 -0 
L 0 -0 
z
" style="fill:none;"/>
  </g>
  <g id="axes_1">
   <g id="patch_2">
    <path d="M 40.603125 509.66 
L 1156.603125 509.66 
L 1156.603125 10.7 
L 40.603125 10.7 
z
" style="fill:none;"/>
   </g>
   <g id="matplotlib.axis_1">
    <g id="xtick_1">
     <g id="line2d_1">
      <defs>
       <path d="M 0 0 
L 0 3.5 
" id="m630995546d" style="stroke:#000000;stroke-width:0.8;"/>
      </defs>
      <g>
       <use style="stroke:#000000;stroke-width:0.8;" x="91.330398" xlink:href="#m630995546d" y="509.66"/>
      </g>
     </g>
     <g id="text_1">
      <!-- 0 -->
      <defs>
       <path d="M 31.78125 66.40625 
Q 24.171875 66.40625 20.328125 58.90625 
Q 16.5 51.421875 16.5 36.375 
Q 16.5 21.390625 20.328125 13.890625 
Q 24.171875 6.390625 31.78125 6.390625 
Q 39.453125 6.390625 43.28125 13.890625 
Q 47.125 21.390625 47.125 36.375 
Q 47.125 51.421875 43.28125 58.90625 
Q 39.453125 66.40625 31.78125 66.40625 
z
M 31.78125 74.21875 
Q 44.046875 74.21875 50.515625 64.515625 
Q 56.984375 54.828125 56.984375 36.375 
Q 56.984375 17.96875 50.515625 8.265625 
Q 44.046875 -1.421875 31.78125 -1.421875 
Q 19.53125 -1.421875 13.0625 8.265625 
Q 6.59375 17.96875 6.59375 36.375 
Q 6.59375 54.828125 13.0625 64.515625 
Q 19.53125 74.21875 31.78125 74.21875 
z
" id="DejaVuSans-30"/>
      </defs>
      <g transform="translate(88.149148 524.258437)scale(0.1 -0.1)">
       <use xlink:href="#DejaVuSans-30"/>
      </g>
     </g>
    </g>
    <g id="xtick_2">
     <g id="line2d_2">
      <g>
       <use style="stroke:#000000;stroke-width:0.8;" x="334.044621" xlink:href="#m630995546d" y="509.66"/>
      </g>
     </g>
     <g id="text_2">
      <!-- 50 -->
      <defs>
       <path d="M 10.796875 72.90625 
L 49.515625 72.90625 
L 49.515625 64.59375 
L 19.828125 64.59375 
L 19.828125 46.734375 
Q 21.96875 47.46875 24.109375 47.828125 
Q 26.265625 48.1875 28.421875 48.1875 
Q 40.625 48.1875 47.75 41.5 
Q 54.890625 34.8125 54.890625 23.390625 
Q 54.890625 11.625 47.5625 5.09375 
Q 40.234375 -1.421875 26.90625 -1.421875 
Q 22.3125 -1.421875 17.546875 -0.640625 
Q 12.796875 0.140625 7.71875 1.703125 
L 7.71875 11.625 
Q 12.109375 9.234375 16.796875 8.0625 
Q 21.484375 6.890625 26.703125 6.890625 
Q 35.15625 6.890625 40.078125 11.328125 
Q 45.015625 15.765625 45.015625 23.390625 
Q 45.015625 31 40.078125 35.4375 
Q 35.15625 39.890625 26.703125 39.890625 
Q 22.75 39.890625 18.8125 39.015625 
Q 14.890625 38.140625 10.796875 36.28125 
z
" id="DejaVuSans-35"/>
      </defs>
      <g transform="translate(327.682121 524.258437)scale(0.1 -0.1)">
       <use xlink:href="#DejaVuSans-35"/>
       <use x="63.623047" xlink:href="#DejaVuSans-30"/>
      </g>
     </g>
    </g>
    <g id="xtick_3">
     <g id="line2d_3">
      <g>
       <use style="stroke:#000000;stroke-width:0.8;" x="576.758845" xlink:href="#m630995546d" y="509.66"/>
      </g>
     </g>
     <g id="text_3">
      <!-- 100 -->
      <defs>
       <path d="M 12.40625 8.296875 
L 28.515625 8.296875 
L 28.515625 63.921875 
L 10.984375 60.40625 
L 10.984375 69.390625 
L 28.421875 72.90625 
L 38.28125 72.90625 
L 38.28125 8.296875 
L 54.390625 8.296875 
L 54.390625 0 
L 12.40625 0 
z
" id="DejaVuSans-31"/>
      </defs>
      <g transform="translate(567.215095 524.258437)scale(0.1 -0.1)">
       <use xlink:href="#DejaVuSans-31"/>
       <use x="63.623047" xlink:href="#DejaVuSans-30"/>
       <use x="127.246094" xlink:href="#DejaVuSans-30"/>
      </g>
     </g>
    </g>
    <g id="xtick_4">
     <g id="line2d_4">
      <g>
       <use style="stroke:#000000;stroke-width:0.8;" x="819.473068" xlink:href="#m630995546d" y="509.66"/>
      </g>
     </g>
     <g id="text_4">
      <!-- 150 -->
      <g transform="translate(809.929318 524.258437)scale(0.1 -0.1)">
       <use xlink:href="#DejaVuSans-31"/>
       <use x="63.623047" xlink:href="#DejaVuSans-35"/>
       <use x="127.246094" xlink:href="#DejaVuSans-30"/>
      </g>
     </g>
    </g>
    <g id="xtick_5">
     <g id="line2d_5">
      <g>
       <use style="stroke:#000000;stroke-width:0.8;" x="1062.187292" xlink:href="#m630995546d" y="509.66"/>
      </g>
     </g>
     <g id="text_5">
      <!-- 200 -->
      <defs>
       <path d="M 19.1875 8.296875 
L 53.609375 8.296875 
L 53.609375 0 
L 7.328125 0 
L 7.328125 8.296875 
Q 12.9375 14.109375 22.625 23.890625 
Q 32.328125 33.6875 34.8125 36.53125 
Q 39.546875 41.84375 41.421875 45.53125 
Q 43.3125 49.21875 43.3125 52.78125 
Q 43.3125 58.59375 39.234375 62.25 
Q 35.15625 65.921875 28.609375 65.921875 
Q 23.96875 65.921875 18.8125 64.3125 
Q 13.671875 62.703125 7.8125 59.421875 
L 7.8125 69.390625 
Q 13.765625 71.78125 18.9375 73 
Q 24.125 74.21875 28.421875 74.21875 
Q 39.75 74.21875 46.484375 68.546875 
Q 53.21875 62.890625 53.21875 53.421875 
Q 53.21875 48.921875 51.53125 44.890625 
Q 49.859375 40.875 45.40625 35.40625 
Q 44.1875 33.984375 37.640625 27.21875 
Q 31.109375 20.453125 19.1875 8.296875 
z
" id="DejaVuSans-32"/>
      </defs>
      <g transform="translate(1052.643542 524.258437)scale(0.1 -0.1)">
       <use xlink:href="#DejaVuSans-32"/>
       <use x="63.623047" xlink:href="#DejaVuSans-30"/>
       <use x="127.246094" xlink:href="#DejaVuSans-30"/>
      </g>
     </g>
    </g>
    <g id="text_6">
     <!-- Time -->
     <defs>
      <path d="M -0.296875 72.90625 
L 61.375 72.90625 
L 61.375 64.59375 
L 35.5 64.59375 
L 35.5 0 
L 25.59375 0 
L 25.59375 64.59375 
L -0.296875 64.59375 
z
" id="DejaVuSans-54"/>
      <path d="M 9.421875 54.6875 
L 18.40625 54.6875 
L 18.40625 0 
L 9.421875 0 
z
M 9.421875 75.984375 
L 18.40625 75.984375 
L 18.40625 64.59375 
L 9.421875 64.59375 
z
" id="DejaVuSans-69"/>
      <path d="M 52 44.1875 
Q 55.375 50.25 60.0625 53.125 
Q 64.75 56 71.09375 56 
Q 79.640625 56 84.28125 50.015625 
Q 88.921875 44.046875 88.921875 33.015625 
L 88.921875 0 
L 79.890625 0 
L 79.890625 32.71875 
Q 79.890625 40.578125 77.09375 44.375 
Q 74.3125 48.1875 68.609375 48.1875 
Q 61.625 48.1875 57.5625 43.546875 
Q 53.515625 38.921875 53.515625 30.90625 
L 53.515625 0 
L 44.484375 0 
L 44.484375 32.71875 
Q 44.484375 40.625 41.703125 44.40625 
Q 38.921875 48.1875 33.109375 48.1875 
Q 26.21875 48.1875 22.15625 43.53125 
Q 18.109375 38.875 18.109375 30.90625 
L 18.109375 0 
L 9.078125 0 
L 9.078125 54.6875 
L 18.109375 54.6875 
L 18.109375 46.1875 
Q 21.1875 51.21875 25.484375 53.609375 
Q 29.78125 56 35.6875 56 
Q 41.65625 56 45.828125 52.96875 
Q 50 49.953125 52 44.1875 
z
" id="DejaVuSans-6d"/>
      <path d="M 56.203125 29.59375 
L 56.203125 25.203125 
L 14.890625 25.203125 
Q 15.484375 15.921875 20.484375 11.0625 
Q 25.484375 6.203125 34.421875 6.203125 
Q 39.59375 6.203125 44.453125 7.46875 
Q 49.3125 8.734375 54.109375 11.28125 
L 54.109375 2.78125 
Q 49.265625 0.734375 44.1875 -0.34375 
Q 39.109375 -1.421875 33.890625 -1.421875 
Q 20.796875 -1.421875 13.15625 6.1875 
Q 5.515625 13.8125 5.515625 26.8125 
Q 5.515625 40.234375 12.765625 48.109375 
Q 20.015625 56 32.328125 56 
Q 43.359375 56 49.78125 48.890625 
Q 56.203125 41.796875 56.203125 29.59375 
z
M 47.21875 32.234375 
Q 47.125 39.59375 43.09375 43.984375 
Q 39.0625 48.390625 32.421875 48.390625 
Q 24.90625 48.390625 20.390625 44.140625 
Q 15.875 39.890625 15.1875 32.171875 
z
" id="DejaVuSans-65"/>
     </defs>
     <g transform="translate(586.215625 537.936562)scale(0.1 -0.1)">
      <use xlink:href="#DejaVuSans-54"/>
      <use x="61.037109" xlink:href="#DejaVuSans-69"/>
      <use x="88.820312" xlink:href="#DejaVuSans-6d"/>
      <use x="186.232422" xlink:href="#DejaVuSans-65"/>
     </g>
    </g>
   </g>
   <g id="matplotlib.axis_2">
    <g id="ytick_1">
     <g id="line2d_6">
      <defs>
       <path d="M 0 0 
L -3.5 0 
" id="mac6d36b4d3" style="stroke:#000000;stroke-width:0.8;"/>
      </defs>
      <g>
       <use style="stroke:#000000;stroke-width:0.8;" x="40.603125" xlink:href="#mac6d36b4d3" y="486.98"/>
      </g>
     </g>
     <g id="text_7">
      <!-- 0 -->
      <g transform="translate(27.240625 490.779219)scale(0.1 -0.1)">
       <use xlink:href="#DejaVuSans-30"/>
      </g>
     </g>
    </g>
    <g id="ytick_2">
     <g id="line2d_7">
      <g>
       <use style="stroke:#000000;stroke-width:0.8;" x="40.603125" xlink:href="#mac6d36b4d3" y="399.749231"/>
      </g>
     </g>
     <g id="text_8">
      <!-- 5 -->
      <g transform="translate(27.240625 403.54845)scale(0.1 -0.1)">
       <use xlink:href="#DejaVuSans-35"/>
      </g>
     </g>
    </g>
    <g id="ytick_3">
     <g id="line2d_8">
      <g>
       <use style="stroke:#000000;stroke-width:0.8;" x="40.603125" xlink:href="#mac6d36b4d3" y="312.518462"/>
      </g>
     </g>
     <g id="text_9">
      <!-- 10 -->
      <g transform="translate(20.878125 316.31768)scale(0.1 -0.1)">
       <use xlink:href="#DejaVuSans-31"/>
       <use x="63.623047" xlink:href="#DejaVuSans-30"/>
      </g>
     </g>
    </g>
    <g id="ytick_4">
     <g id="line2d_9">
      <g>
       <use style="stroke:#000000;stroke-width:0.8;" x="40.603125" xlink:href="#mac6d36b4d3" y="225.287692"/>
      </g>
     </g>
     <g id="text_10">
      <!-- 15 -->
      <g transform="translate(20.878125 229.086911)scale(0.1 -0.1)">
       <use xlink:href="#DejaVuSans-31"/>
       <use x="63.623047" xlink:href="#DejaVuSans-35"/>
      </g>
     </g>
    </g>
    <g id="ytick_5">
     <g id="line2d_10">
      <g>
       <use style="stroke:#000000;stroke-width:0.8;" x="40.603125" xlink:href="#mac6d36b4d3" y="138.056923"/>
      </g>
     </g>
     <g id="text_11">
      <!-- 20 -->
      <g transform="translate(20.878125 141.856142)scale(0.1 -0.1)">
       <use xlink:href="#DejaVuSans-32"/>
       <use x="63.623047" xlink:href="#DejaVuSans-30"/>
      </g>
     </g>
    </g>
    <g id="ytick_6">
     <g id="line2d_11">
      <g>
       <use style="stroke:#000000;stroke-width:0.8;" x="40.603125" xlink:href="#mac6d36b4d3" y="50.826154"/>
      </g>
     </g>
     <g id="text_12">
      <!-- 25 -->
      <g transform="translate(20.878125 54.625373)scale(0.1 -0.1)">
       <use xlink:href="#DejaVuSans-32"/>
       <use x="63.623047" xlink:href="#DejaVuSans-35"/>
      </g>
     </g>
    </g>
    <g id="text_13">
     <!-- Refugees -->
     <defs>
      <path d="M 44.390625 34.1875 
Q 47.5625 33.109375 50.5625 29.59375 
Q 53.5625 26.078125 56.59375 19.921875 
L 66.609375 0 
L 56 0 
L 46.6875 18.703125 
Q 43.0625 26.03125 39.671875 28.421875 
Q 36.28125 30.8125 30.421875 30.8125 
L 19.671875 30.8125 
L 19.671875 0 
L 9.8125 0 
L 9.8125 72.90625 
L 32.078125 72.90625 
Q 44.578125 72.90625 50.734375 67.671875 
Q 56.890625 62.453125 56.890625 51.90625 
Q 56.890625 45.015625 53.6875 40.46875 
Q 50.484375 35.9375 44.390625 34.1875 
z
M 19.671875 64.796875 
L 19.671875 38.921875 
L 32.078125 38.921875 
Q 39.203125 38.921875 42.84375 42.21875 
Q 46.484375 45.515625 46.484375 51.90625 
Q 46.484375 58.296875 42.84375 61.546875 
Q 39.203125 64.796875 32.078125 64.796875 
z
" id="DejaVuSans-52"/>
      <path d="M 37.109375 75.984375 
L 37.109375 68.5 
L 28.515625 68.5 
Q 23.6875 68.5 21.796875 66.546875 
Q 19.921875 64.59375 19.921875 59.515625 
L 19.921875 54.6875 
L 34.71875 54.6875 
L 34.71875 47.703125 
L 19.921875 47.703125 
L 19.921875 0 
L 10.890625 0 
L 10.890625 47.703125 
L 2.296875 47.703125 
L 2.296875 54.6875 
L 10.890625 54.6875 
L 10.890625 58.5 
Q 10.890625 67.625 15.140625 71.796875 
Q 19.390625 75.984375 28.609375 75.984375 
z
" id="DejaVuSans-66"/>
      <path d="M 8.5 21.578125 
L 8.5 54.6875 
L 17.484375 54.6875 
L 17.484375 21.921875 
Q 17.484375 14.15625 20.5 10.265625 
Q 23.53125 6.390625 29.59375 6.390625 
Q 36.859375 6.390625 41.078125 11.03125 
Q 45.3125 15.671875 45.3125 23.6875 
L 45.3125 54.6875 
L 54.296875 54.6875 
L 54.296875 0 
L 45.3125 0 
L 45.3125 8.40625 
Q 42.046875 3.421875 37.71875 1 
Q 33.40625 -1.421875 27.6875 -1.421875 
Q 18.265625 -1.421875 13.375 4.4375 
Q 8.5 10.296875 8.5 21.578125 
z
M 31.109375 56 
z
" id="DejaVuSans-75"/>
      <path d="M 45.40625 27.984375 
Q 45.40625 37.75 41.375 43.109375 
Q 37.359375 48.484375 30.078125 48.484375 
Q 22.859375 48.484375 18.828125 43.109375 
Q 14.796875 37.75 14.796875 27.984375 
Q 14.796875 18.265625 18.828125 12.890625 
Q 22.859375 7.515625 30.078125 7.515625 
Q 37.359375 7.515625 41.375 12.890625 
Q 45.40625 18.265625 45.40625 27.984375 
z
M 54.390625 6.78125 
Q 54.390625 -7.171875 48.1875 -13.984375 
Q 42 -20.796875 29.203125 -20.796875 
Q 24.46875 -20.796875 20.265625 -20.09375 
Q 16.0625 -19.390625 12.109375 -17.921875 
L 12.109375 -9.1875 
Q 16.0625 -11.328125 19.921875 -12.34375 
Q 23.78125 -13.375 27.78125 -13.375 
Q 36.625 -13.375 41.015625 -8.765625 
Q 45.40625 -4.15625 45.40625 5.171875 
L 45.40625 9.625 
Q 42.625 4.78125 38.28125 2.390625 
Q 33.9375 0 27.875 0 
Q 17.828125 0 11.671875 7.65625 
Q 5.515625 15.328125 5.515625 27.984375 
Q 5.515625 40.671875 11.671875 48.328125 
Q 17.828125 56 27.875 56 
Q 33.9375 56 38.28125 53.609375 
Q 42.625 51.21875 45.40625 46.390625 
L 45.40625 54.6875 
L 54.390625 54.6875 
z
" id="DejaVuSans-67"/>
      <path d="M 44.28125 53.078125 
L 44.28125 44.578125 
Q 40.484375 46.53125 36.375 47.5 
Q 32.28125 48.484375 27.875 48.484375 
Q 21.1875 48.484375 17.84375 46.4375 
Q 14.5 44.390625 14.5 40.28125 
Q 14.5 37.15625 16.890625 35.375 
Q 19.28125 33.59375 26.515625 31.984375 
L 29.59375 31.296875 
Q 39.15625 29.25 43.1875 25.515625 
Q 47.21875 21.78125 47.21875 15.09375 
Q 47.21875 7.46875 41.1875 3.015625 
Q 35.15625 -1.421875 24.609375 -1.421875 
Q 20.21875 -1.421875 15.453125 -0.5625 
Q 10.6875 0.296875 5.421875 2 
L 5.421875 11.28125 
Q 10.40625 8.6875 15.234375 7.390625 
Q 20.0625 6.109375 24.8125 6.109375 
Q 31.15625 6.109375 34.5625 8.28125 
Q 37.984375 10.453125 37.984375 14.40625 
Q 37.984375 18.0625 35.515625 20.015625 
Q 33.0625 21.96875 24.703125 23.78125 
L 21.578125 24.515625 
Q 13.234375 26.265625 9.515625 29.90625 
Q 5.8125 33.546875 5.8125 39.890625 
Q 5.8125 47.609375 11.28125 51.796875 
Q 16.75 56 26.8125 56 
Q 31.78125 56 36.171875 55.265625 
Q 40.578125 54.546875 44.28125 53.078125 
z
" id="DejaVuSans-73"/>
     </defs>
     <g style="fill:#ff7f0e;" transform="translate(14.798438 283.588594)rotate(-90)scale(0.1 -0.1)">
      <use xlink:href="#DejaVuSans-52"/>
      <use x="69.419922" xlink:href="#DejaVuSans-65"/>
      <use x="130.943359" xlink:href="#DejaVuSans-66"/>
      <use x="166.148438" xlink:href="#DejaVuSans-75"/>
      <use x="229.527344" xlink:href="#DejaVuSans-67"/>
      <use x="293.003906" xlink:href="#DejaVuSans-65"/>
      <use x="354.527344" xlink:href="#DejaVuSans-65"/>
      <use x="416.050781" xlink:href="#DejaVuSans-73"/>
     </g>
    </g>
   </g>
   <g id="line2d_12">
    <path clip-path="url(#pa8d43ade91)" d="M 91.330398 435.758352 
L 96.184682 453.47437 
L 101.038967 486.98 
L 110.747536 486.98 
L 115.60182 331.042122 
L 120.456105 486.98 
L 139.873242 486.98 
L 144.727527 372.854036 
L 149.581811 486.98 
L 168.998949 486.98 
L 173.853234 381.478692 
L 178.707518 486.98 
L 198.124656 486.98 
L 202.978941 383.525642 
L 207.833225 292.609009 
L 212.68751 246.209597 
L 217.541794 260.470149 
L 222.396078 343.000515 
L 227.250363 346.503718 
L 232.104647 187.485507 
L 236.958932 486.98 
L 256.37607 486.98 
L 261.230354 372.358117 
L 266.084639 448.464043 
L 270.938923 482.937979 
L 275.793208 486.98 
L 285.501777 486.98 
L 290.356061 338.714995 
L 295.210346 433.46259 
L 300.06463 448.15055 
L 304.918914 485.973714 
L 309.773199 486.98 
L 314.627483 486.98 
L 319.481768 329.655699 
L 324.336052 383.700997 
L 329.190337 344.591103 
L 334.044621 361.749029 
L 338.898906 444.285355 
L 343.75319 443.113124 
L 348.607475 282.985104 
L 353.461759 486.98 
L 372.878897 486.98 
L 377.733182 370.750401 
L 382.587466 439.671294 
L 387.44175 462.548108 
L 392.296035 486.98 
L 402.004604 486.98 
L 406.858888 333.405077 
L 411.713173 479.058245 
L 416.567457 486.98 
L 431.130311 486.98 
L 435.984595 357.190672 
L 440.83888 410.353793 
L 445.693164 394.562766 
L 450.547449 422.103114 
L 455.401733 486.98 
L 460.256018 485.921857 
L 465.110302 315.700453 
L 469.964587 486.98 
L 489.381724 486.98 
L 494.236009 386.136385 
L 499.090293 421.897714 
L 503.944578 421.332348 
L 513.653147 486.98 
L 518.507431 486.98 
L 523.361716 322.67177 
L 528.216 486.98 
L 547.633138 486.98 
L 552.487423 372.712988 
L 557.341707 486.98 
L 576.758845 486.98 
L 581.613129 398.003036 
L 586.467414 486.98 
L 605.884552 486.98 
L 610.738836 405.379255 
L 615.593121 426.477946 
L 620.447405 431.953541 
L 625.30169 466.668775 
L 630.155974 486.98 
L 635.010259 486.98 
L 639.864543 325.437746 
L 644.718827 486.98 
L 664.135965 486.98 
L 668.99025 373.894674 
L 673.844534 460.588709 
L 678.698819 486.98 
L 693.261672 486.98 
L 698.115957 346.037007 
L 702.970241 486.98 
L 722.387379 486.98 
L 727.241663 397.866838 
L 732.095948 430.062247 
L 736.950232 440.265265 
L 741.804517 476.575412 
L 746.658801 486.98 
L 751.513086 486.98 
L 756.36737 327.602243 
L 761.221655 486.98 
L 780.638793 486.98 
L 785.493077 375.561197 
L 790.347362 435.962325 
L 795.201646 453.947125 
L 800.055931 486.98 
L 809.7645 486.98 
L 814.618784 331.165276 
L 819.473068 486.98 
L 838.890206 486.98 
L 843.744491 382.332418 
L 848.598775 466.669704 
L 853.45306 486.98 
L 868.015913 486.98 
L 872.870198 349.709277 
L 877.724482 486.98 
L 897.14162 486.98 
L 901.995904 371.511504 
L 906.850189 445.610514 
L 911.704473 476.320827 
L 916.558758 486.98 
L 926.267327 486.98 
L 931.121611 336.99177 
L 935.975896 465.997005 
L 940.83018 486.98 
L 955.393034 486.98 
L 960.247318 349.30302 
L 965.101603 448.019722 
L 969.955887 481.907643 
L 974.810172 486.98 
L 984.51874 486.98 
L 989.373025 338.446642 
L 994.227309 486.98 
L 1013.644447 486.98 
L 1018.498732 394.090581 
L 1023.353016 451.520796 
L 1028.207301 486.98 
L 1042.770154 486.98 
L 1047.624439 340.560942 
L 1052.478723 486.98 
L 1071.895861 486.98 
L 1076.750145 373.22557 
L 1081.60443 486.98 
L 1101.021568 486.98 
L 1105.875852 373.919531 
L 1105.875852 373.919531 
" style="fill:none;stroke:#008000;stroke-dasharray:5.55,2.4;stroke-dashoffset:0;stroke-width:1.5;"/>
   </g>
   <g id="line2d_13">
    <path clip-path="url(#pa8d43ade91)" d="M 91.330398 486.98 
L 96.184682 486.98 
L 101.038967 399.749231 
L 105.893251 399.749231 
L 110.747536 486.98 
L 115.60182 399.749231 
L 120.456105 486.98 
L 125.310389 347.410769 
L 130.164673 382.303077 
L 135.018958 486.98 
L 139.873242 312.518462 
L 144.727527 295.072308 
L 149.581811 50.826154 
L 154.436096 469.533846 
L 159.29038 469.533846 
L 164.144665 486.98 
L 168.998949 434.641538 
L 173.853234 486.98 
L 178.707518 399.749231 
L 183.561803 120.610769 
L 188.416087 207.841538 
L 193.270372 155.503077 
L 198.124656 207.841538 
L 202.978941 382.303077 
L 207.833225 364.856923 
L 212.68751 399.749231 
L 217.541794 312.518462 
L 222.396078 242.733846 
L 227.250363 382.303077 
L 232.104647 486.98 
L 236.958932 364.856923 
L 241.813216 469.533846 
L 246.667501 347.410769 
L 251.521785 155.503077 
L 256.37607 260.18 
L 261.230354 452.087692 
L 266.084639 260.18 
L 270.938923 260.18 
L 275.793208 225.287692 
L 280.647492 225.287692 
L 285.501777 120.610769 
L 290.356061 399.749231 
L 295.210346 417.195385 
L 300.06463 33.38 
L 304.918914 347.410769 
L 309.773199 452.087692 
L 314.627483 486.98 
L 319.481768 452.087692 
L 324.336052 452.087692 
L 329.190337 382.303077 
L 334.044621 399.749231 
L 338.898906 434.641538 
L 343.75319 452.087692 
L 348.607475 452.087692 
L 353.461759 486.98 
L 358.316044 469.533846 
L 363.170328 486.98 
L 368.024613 486.98 
L 377.733182 452.087692 
L 387.44175 486.98 
L 392.296035 469.533846 
L 397.150319 486.98 
L 402.004604 486.98 
L 411.713173 452.087692 
L 416.567457 469.533846 
L 421.421742 469.533846 
L 426.276026 486.98 
L 431.130311 486.98 
L 435.984595 469.533846 
L 440.83888 486.98 
L 445.693164 469.533846 
L 450.547449 434.641538 
L 455.401733 469.533846 
L 460.256018 486.98 
L 469.964587 486.98 
L 474.818871 469.533846 
L 479.673155 486.98 
L 484.52744 486.98 
L 489.381724 469.533846 
L 494.236009 469.533846 
L 499.090293 486.98 
L 508.798862 486.98 
L 513.653147 469.533846 
L 518.507431 486.98 
L 576.758845 486.98 
L 581.613129 469.533846 
L 586.467414 486.98 
L 605.884552 486.98 
L 610.738836 469.533846 
L 615.593121 486.98 
L 639.864543 486.98 
L 644.718827 469.533846 
L 649.573112 486.98 
L 678.698819 486.98 
L 683.553103 469.533846 
L 688.407388 469.533846 
L 693.261672 486.98 
L 727.241663 486.98 
L 732.095948 469.533846 
L 736.950232 486.98 
L 741.804517 452.087692 
L 746.658801 486.98 
L 751.513086 469.533846 
L 756.36737 486.98 
L 761.221655 469.533846 
L 766.075939 469.533846 
L 770.930224 486.98 
L 780.638793 486.98 
L 785.493077 469.533846 
L 790.347362 486.98 
L 800.055931 486.98 
L 804.910215 469.533846 
L 809.7645 486.98 
L 814.618784 469.533846 
L 819.473068 486.98 
L 838.890206 486.98 
L 843.744491 452.087692 
L 848.598775 486.98 
L 853.45306 469.533846 
L 858.307344 486.98 
L 863.161629 469.533846 
L 868.015913 486.98 
L 901.995904 486.98 
L 906.850189 434.641538 
L 911.704473 486.98 
L 926.267327 486.98 
L 931.121611 469.533846 
L 935.975896 469.533846 
L 940.83018 486.98 
L 945.684465 469.533846 
L 950.538749 486.98 
L 955.393034 486.98 
L 960.247318 469.533846 
L 965.101603 486.98 
L 974.810172 486.98 
L 979.664456 434.641538 
L 984.51874 486.98 
L 989.373025 434.641538 
L 994.227309 486.98 
L 999.081594 486.98 
L 1003.935878 469.533846 
L 1008.790163 486.98 
L 1013.644447 452.087692 
L 1018.498732 486.98 
L 1023.353016 452.087692 
L 1028.207301 486.98 
L 1033.061585 452.087692 
L 1037.91587 486.98 
L 1105.875852 486.98 
L 1105.875852 486.98 
" style="fill:none;stroke:#ff7f0e;stroke-linecap:square;stroke-width:1.5;"/>
   </g>
   <g id="line2d_14">
    <defs>
     <path d="M 0 3 
C 0.795609 3 1.55874 2.683901 2.12132 2.12132 
C 2.683901 1.55874 3 0.795609 3 0 
C 3 -0.795609 2.683901 -1.55874 2.12132 -2.12132 
C 1.55874 -2.683901 0.795609 -3 0 -3 
C -0.795609 -3 -1.55874 -2.683901 -2.12132 -2.12132 
C -2.683901 -1.55874 -3 -0.795609 -3 0 
C -3 0.795609 -2.683901 1.55874 -2.12132 2.12132 
C -1.55874 2.683901 -0.795609 3 0 3 
z
" id="m77bc955333" style="stroke:#008000;"/>
    </defs>
    <g clip-path="url(#pa8d43ade91)">
     <use style="fill:#008000;stroke:#008000;" x="91.330398" xlink:href="#m77bc955333" y="435.758352"/>
     <use style="fill:#008000;stroke:#008000;" x="120.456105" xlink:href="#m77bc955333" y="486.98"/>
     <use style="fill:#008000;stroke:#008000;" x="149.581811" xlink:href="#m77bc955333" y="486.98"/>
     <use style="fill:#008000;stroke:#008000;" x="178.707518" xlink:href="#m77bc955333" y="486.98"/>
     <use style="fill:#008000;stroke:#008000;" x="207.833225" xlink:href="#m77bc955333" y="292.609009"/>
     <use style="fill:#008000;stroke:#008000;" x="236.958932" xlink:href="#m77bc955333" y="486.98"/>
     <use style="fill:#008000;stroke:#008000;" x="266.084639" xlink:href="#m77bc955333" y="448.464043"/>
     <use style="fill:#008000;stroke:#008000;" x="295.210346" xlink:href="#m77bc955333" y="433.46259"/>
     <use style="fill:#008000;stroke:#008000;" x="324.336052" xlink:href="#m77bc955333" y="383.700997"/>
     <use style="fill:#008000;stroke:#008000;" x="353.461759" xlink:href="#m77bc955333" y="486.98"/>
     <use style="fill:#008000;stroke:#008000;" x="382.587466" xlink:href="#m77bc955333" y="439.671294"/>
     <use style="fill:#008000;stroke:#008000;" x="411.713173" xlink:href="#m77bc955333" y="479.058245"/>
     <use style="fill:#008000;stroke:#008000;" x="440.83888" xlink:href="#m77bc955333" y="410.353793"/>
     <use style="fill:#008000;stroke:#008000;" x="469.964587" xlink:href="#m77bc955333" y="486.98"/>
     <use style="fill:#008000;stroke:#008000;" x="499.090293" xlink:href="#m77bc955333" y="421.897714"/>
     <use style="fill:#008000;stroke:#008000;" x="528.216" xlink:href="#m77bc955333" y="486.98"/>
     <use style="fill:#008000;stroke:#008000;" x="557.341707" xlink:href="#m77bc955333" y="486.98"/>
     <use style="fill:#008000;stroke:#008000;" x="586.467414" xlink:href="#m77bc955333" y="486.98"/>
     <use style="fill:#008000;stroke:#008000;" x="615.593121" xlink:href="#m77bc955333" y="426.477946"/>
     <use style="fill:#008000;stroke:#008000;" x="644.718827" xlink:href="#m77bc955333" y="486.98"/>
     <use style="fill:#008000;stroke:#008000;" x="673.844534" xlink:href="#m77bc955333" y="460.588709"/>
     <use style="fill:#008000;stroke:#008000;" x="702.970241" xlink:href="#m77bc955333" y="486.98"/>
     <use style="fill:#008000;stroke:#008000;" x="732.095948" xlink:href="#m77bc955333" y="430.062247"/>
     <use style="fill:#008000;stroke:#008000;" x="761.221655" xlink:href="#m77bc955333" y="486.98"/>
     <use style="fill:#008000;stroke:#008000;" x="790.347362" xlink:href="#m77bc955333" y="435.962325"/>
     <use style="fill:#008000;stroke:#008000;" x="819.473068" xlink:href="#m77bc955333" y="486.98"/>
     <use style="fill:#008000;stroke:#008000;" x="848.598775" xlink:href="#m77bc955333" y="466.669704"/>
     <use style="fill:#008000;stroke:#008000;" x="877.724482" xlink:href="#m77bc955333" y="486.98"/>
     <use style="fill:#008000;stroke:#008000;" x="906.850189" xlink:href="#m77bc955333" y="445.610514"/>
     <use style="fill:#008000;stroke:#008000;" x="935.975896" xlink:href="#m77bc955333" y="465.997005"/>
     <use style="fill:#008000;stroke:#008000;" x="965.101603" xlink:href="#m77bc955333" y="448.019722"/>
     <use style="fill:#008000;stroke:#008000;" x="994.227309" xlink:href="#m77bc955333" y="486.98"/>
     <use style="fill:#008000;stroke:#008000;" x="1023.353016" xlink:href="#m77bc955333" y="451.520796"/>
     <use style="fill:#008000;stroke:#008000;" x="1052.478723" xlink:href="#m77bc955333" y="486.98"/>
     <use style="fill:#008000;stroke:#008000;" x="1081.60443" xlink:href="#m77bc955333" y="486.98"/>
    </g>
   </g>
   <g id="patch_3">
    <path d="M 40.603125 509.66 
L 40.603125 10.7 
" style="fill:none;stroke:#000000;stroke-linecap:square;stroke-linejoin:miter;stroke-width:0.8;"/>
   </g>
   <g id="patch_4">
    <path d="M 1156.603125 509.66 
L 1156.603125 10.7 
" style="fill:none;stroke:#000000;stroke-linecap:square;stroke-linejoin:miter;stroke-width:0.8;"/>
   </g>
   <g id="patch_5">
    <path d="M 40.603125 509.66 
L 1156.603125 509.66 
" style="fill:none;stroke:#000000;stroke-linecap:square;stroke-linejoin:miter;stroke-width:0.8;"/>
   </g>
   <g id="patch_6">
    <path d="M 40.603125 10.7 
L 1156.603125 10.7 
" style="fill:none;stroke:#000000;stroke-linecap:square;stroke-linejoin:miter;stroke-width:0.8;"/>
   </g>
   <g id="legend_1">
    <g id="patch_7">
     <path d="M 47.603125 62.734375 
L 195.378125 62.734375 
Q 197.378125 62.734375 197.378125 60.734375 
L 197.378125 17.7 
Q 197.378125 15.7 195.378125 15.7 
L 47.603125 15.7 
Q 45.603125 15.7 45.603125 17.7 
L 45.603125 60.734375 
Q 45.603125 62.734375 47.603125 62.734375 
z
" style="fill:#ffffff;opacity:0.8;stroke:#cccccc;stroke-linejoin:miter;"/>
    </g>
    <g id="line2d_15">
     <path d="M 49.603125 23.798437 
L 69.603125 23.798437 
" style="fill:none;stroke:#008000;stroke-dasharray:5.55,2.4;stroke-dashoffset:0;stroke-width:1.5;"/>
    </g>
    <g id="line2d_16"/>
    <g id="text_14">
     <!-- Predicated -->
     <defs>
      <path d="M 19.671875 64.796875 
L 19.671875 37.40625 
L 32.078125 37.40625 
Q 38.96875 37.40625 42.71875 40.96875 
Q 46.484375 44.53125 46.484375 51.125 
Q 46.484375 57.671875 42.71875 61.234375 
Q 38.96875 64.796875 32.078125 64.796875 
z
M 9.8125 72.90625 
L 32.078125 72.90625 
Q 44.34375 72.90625 50.609375 67.359375 
Q 56.890625 61.8125 56.890625 51.125 
Q 56.890625 40.328125 50.609375 34.8125 
Q 44.34375 29.296875 32.078125 29.296875 
L 19.671875 29.296875 
L 19.671875 0 
L 9.8125 0 
z
" id="DejaVuSans-50"/>
      <path d="M 41.109375 46.296875 
Q 39.59375 47.171875 37.8125 47.578125 
Q 36.03125 48 33.890625 48 
Q 26.265625 48 22.1875 43.046875 
Q 18.109375 38.09375 18.109375 28.8125 
L 18.109375 0 
L 9.078125 0 
L 9.078125 54.6875 
L 18.109375 54.6875 
L 18.109375 46.1875 
Q 20.953125 51.171875 25.484375 53.578125 
Q 30.03125 56 36.53125 56 
Q 37.453125 56 38.578125 55.875 
Q 39.703125 55.765625 41.0625 55.515625 
z
" id="DejaVuSans-72"/>
      <path d="M 45.40625 46.390625 
L 45.40625 75.984375 
L 54.390625 75.984375 
L 54.390625 0 
L 45.40625 0 
L 45.40625 8.203125 
Q 42.578125 3.328125 38.25 0.953125 
Q 33.9375 -1.421875 27.875 -1.421875 
Q 17.96875 -1.421875 11.734375 6.484375 
Q 5.515625 14.40625 5.515625 27.296875 
Q 5.515625 40.1875 11.734375 48.09375 
Q 17.96875 56 27.875 56 
Q 33.9375 56 38.25 53.625 
Q 42.578125 51.265625 45.40625 46.390625 
z
M 14.796875 27.296875 
Q 14.796875 17.390625 18.875 11.75 
Q 22.953125 6.109375 30.078125 6.109375 
Q 37.203125 6.109375 41.296875 11.75 
Q 45.40625 17.390625 45.40625 27.296875 
Q 45.40625 37.203125 41.296875 42.84375 
Q 37.203125 48.484375 30.078125 48.484375 
Q 22.953125 48.484375 18.875 42.84375 
Q 14.796875 37.203125 14.796875 27.296875 
z
" id="DejaVuSans-64"/>
      <path d="M 48.78125 52.59375 
L 48.78125 44.1875 
Q 44.96875 46.296875 41.140625 47.34375 
Q 37.3125 48.390625 33.40625 48.390625 
Q 24.65625 48.390625 19.8125 42.84375 
Q 14.984375 37.3125 14.984375 27.296875 
Q 14.984375 17.28125 19.8125 11.734375 
Q 24.65625 6.203125 33.40625 6.203125 
Q 37.3125 6.203125 41.140625 7.25 
Q 44.96875 8.296875 48.78125 10.40625 
L 48.78125 2.09375 
Q 45.015625 0.34375 40.984375 -0.53125 
Q 36.96875 -1.421875 32.421875 -1.421875 
Q 20.0625 -1.421875 12.78125 6.34375 
Q 5.515625 14.109375 5.515625 27.296875 
Q 5.515625 40.671875 12.859375 48.328125 
Q 20.21875 56 33.015625 56 
Q 37.15625 56 41.109375 55.140625 
Q 45.0625 54.296875 48.78125 52.59375 
z
" id="DejaVuSans-63"/>
      <path d="M 34.28125 27.484375 
Q 23.390625 27.484375 19.1875 25 
Q 14.984375 22.515625 14.984375 16.5 
Q 14.984375 11.71875 18.140625 8.90625 
Q 21.296875 6.109375 26.703125 6.109375 
Q 34.1875 6.109375 38.703125 11.40625 
Q 43.21875 16.703125 43.21875 25.484375 
L 43.21875 27.484375 
z
M 52.203125 31.203125 
L 52.203125 0 
L 43.21875 0 
L 43.21875 8.296875 
Q 40.140625 3.328125 35.546875 0.953125 
Q 30.953125 -1.421875 24.3125 -1.421875 
Q 15.921875 -1.421875 10.953125 3.296875 
Q 6 8.015625 6 15.921875 
Q 6 25.140625 12.171875 29.828125 
Q 18.359375 34.515625 30.609375 34.515625 
L 43.21875 34.515625 
L 43.21875 35.40625 
Q 43.21875 41.609375 39.140625 45 
Q 35.0625 48.390625 27.6875 48.390625 
Q 23 48.390625 18.546875 47.265625 
Q 14.109375 46.140625 10.015625 43.890625 
L 10.015625 52.203125 
Q 14.9375 54.109375 19.578125 55.046875 
Q 24.21875 56 28.609375 56 
Q 40.484375 56 46.34375 49.84375 
Q 52.203125 43.703125 52.203125 31.203125 
z
" id="DejaVuSans-61"/>
      <path d="M 18.3125 70.21875 
L 18.3125 54.6875 
L 36.8125 54.6875 
L 36.8125 47.703125 
L 18.3125 47.703125 
L 18.3125 18.015625 
Q 18.3125 11.328125 20.140625 9.421875 
Q 21.96875 7.515625 27.59375 7.515625 
L 36.8125 7.515625 
L 36.8125 0 
L 27.59375 0 
Q 17.1875 0 13.234375 3.875 
Q 9.28125 7.765625 9.28125 18.015625 
L 9.28125 47.703125 
L 2.6875 47.703125 
L 2.6875 54.6875 
L 9.28125 54.6875 
L 9.28125 70.21875 
z
" id="DejaVuSans-74"/>
     </defs>
     <g transform="translate(77.603125 27.298437)scale(0.1 -0.1)">
      <use xlink:href="#DejaVuSans-50"/>
      <use x="60.287109" xlink:href="#DejaVuSans-72"/>
      <use x="101.369141" xlink:href="#DejaVuSans-65"/>
      <use x="162.892578" xlink:href="#DejaVuSans-64"/>
      <use x="226.369141" xlink:href="#DejaVuSans-69"/>
      <use x="254.152344" xlink:href="#DejaVuSans-63"/>
      <use x="309.132812" xlink:href="#DejaVuSans-61"/>
      <use x="370.412109" xlink:href="#DejaVuSans-74"/>
      <use x="409.621094" xlink:href="#DejaVuSans-65"/>
      <use x="471.144531" xlink:href="#DejaVuSans-64"/>
     </g>
    </g>
    <g id="line2d_17">
     <path d="M 49.603125 38.476562 
L 69.603125 38.476562 
" style="fill:none;stroke:#ff7f0e;stroke-linecap:square;stroke-width:1.5;"/>
    </g>
    <g id="line2d_18"/>
    <g id="text_15">
     <!-- Real Data -->
     <defs>
      <path d="M 9.421875 75.984375 
L 18.40625 75.984375 
L 18.40625 0 
L 9.421875 0 
z
" id="DejaVuSans-6c"/>
      <path id="DejaVuSans-20"/>
      <path d="M 19.671875 64.796875 
L 19.671875 8.109375 
L 31.59375 8.109375 
Q 46.6875 8.109375 53.6875 14.9375 
Q 60.6875 21.78125 60.6875 36.53125 
Q 60.6875 51.171875 53.6875 57.984375 
Q 46.6875 64.796875 31.59375 64.796875 
z
M 9.8125 72.90625 
L 30.078125 72.90625 
Q 51.265625 72.90625 61.171875 64.09375 
Q 71.09375 55.28125 71.09375 36.53125 
Q 71.09375 17.671875 61.125 8.828125 
Q 51.171875 0 30.078125 0 
L 9.8125 0 
z
" id="DejaVuSans-44"/>
     </defs>
     <g transform="translate(77.603125 41.976562)scale(0.1 -0.1)">
      <use xlink:href="#DejaVuSans-52"/>
      <use x="69.419922" xlink:href="#DejaVuSans-65"/>
      <use x="130.943359" xlink:href="#DejaVuSans-61"/>
      <use x="192.222656" xlink:href="#DejaVuSans-6c"/>
      <use x="220.005859" xlink:href="#DejaVuSans-20"/>
      <use x="251.792969" xlink:href="#DejaVuSans-44"/>
      <use x="328.794922" xlink:href="#DejaVuSans-61"/>
      <use x="390.074219" xlink:href="#DejaVuSans-74"/>
      <use x="429.283203" xlink:href="#DejaVuSans-61"/>
     </g>
    </g>
    <g id="line2d_19"/>
    <g id="line2d_20">
     <g>
      <use style="fill:#008000;stroke:#008000;" x="59.603125" xlink:href="#m77bc955333" y="53.154688"/>
     </g>
    </g>
    <g id="text_16">
     <!-- Start Point for Forecast -->
     <defs>
      <path d="M 53.515625 70.515625 
L 53.515625 60.890625 
Q 47.90625 63.578125 42.921875 64.890625 
Q 37.9375 66.21875 33.296875 66.21875 
Q 25.25 66.21875 20.875 63.09375 
Q 16.5 59.96875 16.5 54.203125 
Q 16.5 49.359375 19.40625 46.890625 
Q 22.3125 44.4375 30.421875 42.921875 
L 36.375 41.703125 
Q 47.40625 39.59375 52.65625 34.296875 
Q 57.90625 29 57.90625 20.125 
Q 57.90625 9.515625 50.796875 4.046875 
Q 43.703125 -1.421875 29.984375 -1.421875 
Q 24.8125 -1.421875 18.96875 -0.25 
Q 13.140625 0.921875 6.890625 3.21875 
L 6.890625 13.375 
Q 12.890625 10.015625 18.65625 8.296875 
Q 24.421875 6.59375 29.984375 6.59375 
Q 38.421875 6.59375 43.015625 9.90625 
Q 47.609375 13.234375 47.609375 19.390625 
Q 47.609375 24.75 44.3125 27.78125 
Q 41.015625 30.8125 33.5 32.328125 
L 27.484375 33.5 
Q 16.453125 35.6875 11.515625 40.375 
Q 6.59375 45.0625 6.59375 53.421875 
Q 6.59375 63.09375 13.40625 68.65625 
Q 20.21875 74.21875 32.171875 74.21875 
Q 37.3125 74.21875 42.625 73.28125 
Q 47.953125 72.359375 53.515625 70.515625 
z
" id="DejaVuSans-53"/>
      <path d="M 30.609375 48.390625 
Q 23.390625 48.390625 19.1875 42.75 
Q 14.984375 37.109375 14.984375 27.296875 
Q 14.984375 17.484375 19.15625 11.84375 
Q 23.34375 6.203125 30.609375 6.203125 
Q 37.796875 6.203125 41.984375 11.859375 
Q 46.1875 17.53125 46.1875 27.296875 
Q 46.1875 37.015625 41.984375 42.703125 
Q 37.796875 48.390625 30.609375 48.390625 
z
M 30.609375 56 
Q 42.328125 56 49.015625 48.375 
Q 55.71875 40.765625 55.71875 27.296875 
Q 55.71875 13.875 49.015625 6.21875 
Q 42.328125 -1.421875 30.609375 -1.421875 
Q 18.84375 -1.421875 12.171875 6.21875 
Q 5.515625 13.875 5.515625 27.296875 
Q 5.515625 40.765625 12.171875 48.375 
Q 18.84375 56 30.609375 56 
z
" id="DejaVuSans-6f"/>
      <path d="M 54.890625 33.015625 
L 54.890625 0 
L 45.90625 0 
L 45.90625 32.71875 
Q 45.90625 40.484375 42.875 44.328125 
Q 39.84375 48.1875 33.796875 48.1875 
Q 26.515625 48.1875 22.3125 43.546875 
Q 18.109375 38.921875 18.109375 30.90625 
L 18.109375 0 
L 9.078125 0 
L 9.078125 54.6875 
L 18.109375 54.6875 
L 18.109375 46.1875 
Q 21.34375 51.125 25.703125 53.5625 
Q 30.078125 56 35.796875 56 
Q 45.21875 56 50.046875 50.171875 
Q 54.890625 44.34375 54.890625 33.015625 
z
" id="DejaVuSans-6e"/>
      <path d="M 9.8125 72.90625 
L 51.703125 72.90625 
L 51.703125 64.59375 
L 19.671875 64.59375 
L 19.671875 43.109375 
L 48.578125 43.109375 
L 48.578125 34.8125 
L 19.671875 34.8125 
L 19.671875 0 
L 9.8125 0 
z
" id="DejaVuSans-46"/>
     </defs>
     <g transform="translate(77.603125 56.654688)scale(0.1 -0.1)">
      <use xlink:href="#DejaVuSans-53"/>
      <use x="63.476562" xlink:href="#DejaVuSans-74"/>
      <use x="102.685547" xlink:href="#DejaVuSans-61"/>
      <use x="163.964844" xlink:href="#DejaVuSans-72"/>
      <use x="205.078125" xlink:href="#DejaVuSans-74"/>
      <use x="244.287109" xlink:href="#DejaVuSans-20"/>
      <use x="276.074219" xlink:href="#DejaVuSans-50"/>
      <use x="336.330078" xlink:href="#DejaVuSans-6f"/>
      <use x="397.511719" xlink:href="#DejaVuSans-69"/>
      <use x="425.294922" xlink:href="#DejaVuSans-6e"/>
      <use x="488.673828" xlink:href="#DejaVuSans-74"/>
      <use x="527.882812" xlink:href="#DejaVuSans-20"/>
      <use x="559.669922" xlink:href="#DejaVuSans-66"/>
      <use x="594.875" xlink:href="#DejaVuSans-6f"/>
      <use x="656.056641" xlink:href="#DejaVuSans-72"/>
      <use x="697.169922" xlink:href="#DejaVuSans-20"/>
      <use x="728.957031" xlink:href="#DejaVuSans-46"/>
      <use x="786.429688" xlink:href="#DejaVuSans-6f"/>
      <use x="847.611328" xlink:href="#DejaVuSans-72"/>
      <use x="888.693359" xlink:href="#DejaVuSans-65"/>
      <use x="950.216797" xlink:href="#DejaVuSans-63"/>
      <use x="1005.197266" xlink:href="#DejaVuSans-61"/>
      <use x="1066.476562" xlink:href="#DejaVuSans-73"/>
      <use x="1118.576172" xlink:href="#DejaVuSans-74"/>
     </g>
    </g>
   </g>
  </g>
  <g id="axes_2">
   <g id="patch_8">
    <path d="M 40.603125 645.74 
L 1158.043125 645.74 
L 1158.043125 516.14 
L 40.603125 516.14 
z
" style="fill:none;"/>
   </g>
   <g id="matplotlib.axis_3">
    <g id="xtick_6">
     <g id="line2d_21">
      <g>
       <use style="stroke:#000000;stroke-width:0.8;" x="91.395852" xlink:href="#m630995546d" y="645.74"/>
      </g>
     </g>
     <g id="text_17">
      <!-- 0 -->
      <g transform="translate(88.214602 660.338437)scale(0.1 -0.1)">
       <use xlink:href="#DejaVuSans-30"/>
      </g>
     </g>
    </g>
    <g id="xtick_7">
     <g id="line2d_22">
      <g>
       <use style="stroke:#000000;stroke-width:0.8;" x="215.887831" xlink:href="#m630995546d" y="645.74"/>
      </g>
     </g>
     <g id="text_18">
      <!-- 25 -->
      <g transform="translate(209.525331 660.338437)scale(0.1 -0.1)">
       <use xlink:href="#DejaVuSans-32"/>
       <use x="63.623047" xlink:href="#DejaVuSans-35"/>
      </g>
     </g>
    </g>
    <g id="xtick_8">
     <g id="line2d_23">
      <g>
       <use style="stroke:#000000;stroke-width:0.8;" x="340.379809" xlink:href="#m630995546d" y="645.74"/>
      </g>
     </g>
     <g id="text_19">
      <!-- 50 -->
      <g transform="translate(334.017309 660.338437)scale(0.1 -0.1)">
       <use xlink:href="#DejaVuSans-35"/>
       <use x="63.623047" xlink:href="#DejaVuSans-30"/>
      </g>
     </g>
    </g>
    <g id="xtick_9">
     <g id="line2d_24">
      <g>
       <use style="stroke:#000000;stroke-width:0.8;" x="464.871788" xlink:href="#m630995546d" y="645.74"/>
      </g>
     </g>
     <g id="text_20">
      <!-- 75 -->
      <defs>
       <path d="M 8.203125 72.90625 
L 55.078125 72.90625 
L 55.078125 68.703125 
L 28.609375 0 
L 18.3125 0 
L 43.21875 64.59375 
L 8.203125 64.59375 
z
" id="DejaVuSans-37"/>
      </defs>
      <g transform="translate(458.509288 660.338437)scale(0.1 -0.1)">
       <use xlink:href="#DejaVuSans-37"/>
       <use x="63.623047" xlink:href="#DejaVuSans-35"/>
      </g>
     </g>
    </g>
    <g id="xtick_10">
     <g id="line2d_25">
      <g>
       <use style="stroke:#000000;stroke-width:0.8;" x="589.363767" xlink:href="#m630995546d" y="645.74"/>
      </g>
     </g>
     <g id="text_21">
      <!-- 100 -->
      <g transform="translate(579.820017 660.338437)scale(0.1 -0.1)">
       <use xlink:href="#DejaVuSans-31"/>
       <use x="63.623047" xlink:href="#DejaVuSans-30"/>
       <use x="127.246094" xlink:href="#DejaVuSans-30"/>
      </g>
     </g>
    </g>
    <g id="xtick_11">
     <g id="line2d_26">
      <g>
       <use style="stroke:#000000;stroke-width:0.8;" x="713.855745" xlink:href="#m630995546d" y="645.74"/>
      </g>
     </g>
     <g id="text_22">
      <!-- 125 -->
      <g transform="translate(704.311995 660.338437)scale(0.1 -0.1)">
       <use xlink:href="#DejaVuSans-31"/>
       <use x="63.623047" xlink:href="#DejaVuSans-32"/>
       <use x="127.246094" xlink:href="#DejaVuSans-35"/>
      </g>
     </g>
    </g>
    <g id="xtick_12">
     <g id="line2d_27">
      <g>
       <use style="stroke:#000000;stroke-width:0.8;" x="838.347724" xlink:href="#m630995546d" y="645.74"/>
      </g>
     </g>
     <g id="text_23">
      <!-- 150 -->
      <g transform="translate(828.803974 660.338437)scale(0.1 -0.1)">
       <use xlink:href="#DejaVuSans-31"/>
       <use x="63.623047" xlink:href="#DejaVuSans-35"/>
       <use x="127.246094" xlink:href="#DejaVuSans-30"/>
      </g>
     </g>
    </g>
    <g id="xtick_13">
     <g id="line2d_28">
      <g>
       <use style="stroke:#000000;stroke-width:0.8;" x="962.839703" xlink:href="#m630995546d" y="645.74"/>
      </g>
     </g>
     <g id="text_24">
      <!-- 175 -->
      <g transform="translate(953.295953 660.338437)scale(0.1 -0.1)">
       <use xlink:href="#DejaVuSans-31"/>
       <use x="63.623047" xlink:href="#DejaVuSans-37"/>
       <use x="127.246094" xlink:href="#DejaVuSans-35"/>
      </g>
     </g>
    </g>
    <g id="xtick_14">
     <g id="line2d_29">
      <g>
       <use style="stroke:#000000;stroke-width:0.8;" x="1087.331681" xlink:href="#m630995546d" y="645.74"/>
      </g>
     </g>
     <g id="text_25">
      <!-- 200 -->
      <g transform="translate(1077.787931 660.338437)scale(0.1 -0.1)">
       <use xlink:href="#DejaVuSans-32"/>
       <use x="63.623047" xlink:href="#DejaVuSans-30"/>
       <use x="127.246094" xlink:href="#DejaVuSans-30"/>
      </g>
     </g>
    </g>
   </g>
   <g id="matplotlib.axis_4">
    <g id="ytick_7">
     <g id="line2d_30">
      <g>
       <use style="stroke:#000000;stroke-width:0.8;" x="40.603125" xlink:href="#mac6d36b4d3" y="638.701018"/>
      </g>
     </g>
     <g id="text_26">
      <!-- 0 -->
      <g transform="translate(27.240625 642.500237)scale(0.1 -0.1)">
       <use xlink:href="#DejaVuSans-30"/>
      </g>
     </g>
    </g>
    <g id="ytick_8">
     <g id="line2d_31">
      <g>
       <use style="stroke:#000000;stroke-width:0.8;" x="40.603125" xlink:href="#mac6d36b4d3" y="605.142434"/>
      </g>
     </g>
     <g id="text_27">
      <!-- 10 -->
      <g transform="translate(20.878125 608.941653)scale(0.1 -0.1)">
       <use xlink:href="#DejaVuSans-31"/>
       <use x="63.623047" xlink:href="#DejaVuSans-30"/>
      </g>
     </g>
    </g>
    <g id="ytick_9">
     <g id="line2d_32">
      <g>
       <use style="stroke:#000000;stroke-width:0.8;" x="40.603125" xlink:href="#mac6d36b4d3" y="571.58385"/>
      </g>
     </g>
     <g id="text_28">
      <!-- 20 -->
      <g transform="translate(20.878125 575.383069)scale(0.1 -0.1)">
       <use xlink:href="#DejaVuSans-32"/>
       <use x="63.623047" xlink:href="#DejaVuSans-30"/>
      </g>
     </g>
    </g>
    <g id="ytick_10">
     <g id="line2d_33">
      <g>
       <use style="stroke:#000000;stroke-width:0.8;" x="40.603125" xlink:href="#mac6d36b4d3" y="538.025266"/>
      </g>
     </g>
     <g id="text_29">
      <!-- 30 -->
      <defs>
       <path d="M 40.578125 39.3125 
Q 47.65625 37.796875 51.625 33 
Q 55.609375 28.21875 55.609375 21.1875 
Q 55.609375 10.40625 48.1875 4.484375 
Q 40.765625 -1.421875 27.09375 -1.421875 
Q 22.515625 -1.421875 17.65625 -0.515625 
Q 12.796875 0.390625 7.625 2.203125 
L 7.625 11.71875 
Q 11.71875 9.328125 16.59375 8.109375 
Q 21.484375 6.890625 26.8125 6.890625 
Q 36.078125 6.890625 40.9375 10.546875 
Q 45.796875 14.203125 45.796875 21.1875 
Q 45.796875 27.640625 41.28125 31.265625 
Q 36.765625 34.90625 28.71875 34.90625 
L 20.21875 34.90625 
L 20.21875 43.015625 
L 29.109375 43.015625 
Q 36.375 43.015625 40.234375 45.921875 
Q 44.09375 48.828125 44.09375 54.296875 
Q 44.09375 59.90625 40.109375 62.90625 
Q 36.140625 65.921875 28.71875 65.921875 
Q 24.65625 65.921875 20.015625 65.03125 
Q 15.375 64.15625 9.8125 62.3125 
L 9.8125 71.09375 
Q 15.4375 72.65625 20.34375 73.4375 
Q 25.25 74.21875 29.59375 74.21875 
Q 40.828125 74.21875 47.359375 69.109375 
Q 53.90625 64.015625 53.90625 55.328125 
Q 53.90625 49.265625 50.4375 45.09375 
Q 46.96875 40.921875 40.578125 39.3125 
z
" id="DejaVuSans-33"/>
      </defs>
      <g transform="translate(20.878125 541.824485)scale(0.1 -0.1)">
       <use xlink:href="#DejaVuSans-33"/>
       <use x="63.623047" xlink:href="#DejaVuSans-30"/>
      </g>
     </g>
    </g>
    <g id="text_30">
     <!-- Temperature -->
     <defs>
      <path d="M 18.109375 8.203125 
L 18.109375 -20.796875 
L 9.078125 -20.796875 
L 9.078125 54.6875 
L 18.109375 54.6875 
L 18.109375 46.390625 
Q 20.953125 51.265625 25.265625 53.625 
Q 29.59375 56 35.59375 56 
Q 45.5625 56 51.78125 48.09375 
Q 58.015625 40.1875 58.015625 27.296875 
Q 58.015625 14.40625 51.78125 6.484375 
Q 45.5625 -1.421875 35.59375 -1.421875 
Q 29.59375 -1.421875 25.265625 0.953125 
Q 20.953125 3.328125 18.109375 8.203125 
z
M 48.6875 27.296875 
Q 48.6875 37.203125 44.609375 42.84375 
Q 40.53125 48.484375 33.40625 48.484375 
Q 26.265625 48.484375 22.1875 42.84375 
Q 18.109375 37.203125 18.109375 27.296875 
Q 18.109375 17.390625 22.1875 11.75 
Q 26.265625 6.109375 33.40625 6.109375 
Q 40.53125 6.109375 44.609375 11.75 
Q 48.6875 17.390625 48.6875 27.296875 
z
" id="DejaVuSans-70"/>
     </defs>
     <g style="fill:#0000ff;" transform="translate(14.798438 613.557187)rotate(-90)scale(0.1 -0.1)">
      <use xlink:href="#DejaVuSans-54"/>
      <use x="60.818359" xlink:href="#DejaVuSans-65"/>
      <use x="122.341797" xlink:href="#DejaVuSans-6d"/>
      <use x="219.753906" xlink:href="#DejaVuSans-70"/>
      <use x="283.230469" xlink:href="#DejaVuSans-65"/>
      <use x="344.753906" xlink:href="#DejaVuSans-72"/>
      <use x="385.867188" xlink:href="#DejaVuSans-61"/>
      <use x="447.146484" xlink:href="#DejaVuSans-74"/>
      <use x="486.355469" xlink:href="#DejaVuSans-75"/>
      <use x="549.734375" xlink:href="#DejaVuSans-72"/>
      <use x="590.816406" xlink:href="#DejaVuSans-65"/>
     </g>
    </g>
   </g>
   <g id="line2d_34">
    <path clip-path="url(#p6791733bb8)" d="M 91.395852 528.266094 
L 96.375531 527.829832 
L 101.355211 533.572042 
L 106.33489 544.55778 
L 111.314569 561.847834 
L 116.294248 572.676517 
L 121.273927 587.856743 
L 126.253606 587.464779 
L 131.233285 581.241339 
L 136.212965 564.734207 
L 141.192644 550.637924 
L 146.172323 530.540359 
L 151.152002 529.640989 
L 156.131681 525.79786 
L 161.11136 533.389483 
L 166.091039 548.765691 
L 171.070719 559.080928 
L 176.050398 579.721471 
L 181.030077 580.29633 
L 186.009756 579.211716 
L 190.989435 568.879699 
L 195.969114 559.690688 
L 200.948793 546.111542 
L 205.928473 532.959933 
L 210.908152 526.122036 
L 215.887831 525.37368 
L 220.86751 534.323083 
L 225.847189 545.636353 
L 230.826868 564.871462 
L 235.806547 580.066453 
L 240.786227 591.514964 
L 245.765906 581.557797 
L 250.745585 575.540071 
L 255.725264 568.652172 
L 260.704943 553.077298 
L 265.684622 534.587525 
L 270.664301 523.842737 
L 275.643981 526.467354 
L 280.62366 536.628222 
L 285.603339 546.019592 
L 290.583018 557.913761 
L 295.562697 580.190956 
L 300.542376 581.698407 
L 305.522055 587.998025 
L 310.501735 580.491305 
L 315.481414 570.967043 
L 320.461093 543.790966 
L 325.440772 537.258117 
L 330.420451 526.638838 
L 335.40013 526.832136 
L 340.379809 537.126903 
L 345.359489 546.66593 
L 350.339168 562.060931 
L 355.318847 579.92685 
L 360.298526 585.290182 
L 365.278205 587.654049 
L 370.257884 574.803125 
L 375.237564 566.003057 
L 380.217243 554.996177 
L 385.196922 536.977231 
L 390.176601 525.457912 
L 395.15628 528.640272 
L 400.135959 534.20093 
L 405.115638 541.870073 
L 410.095318 563.021713 
L 415.074997 582.04104 
L 420.054676 582.615228 
L 425.034355 585.029097 
L 430.014034 572.605709 
L 434.993713 562.602231 
L 439.973392 550.090584 
L 444.953072 541.851616 
L 449.932751 529.148685 
L 454.91243 528.985926 
L 459.892109 536.986963 
L 464.871788 551.586961 
L 469.851467 571.23182 
L 474.831146 577.830445 
L 479.810826 586.317075 
L 484.790505 582.29877 
L 489.770184 574.729296 
L 494.749863 562.274363 
L 499.729542 547.735107 
L 504.709221 535.90235 
L 509.6889 529.318491 
L 514.66858 525.98411 
L 519.648259 535.12614 
L 524.627938 551.733947 
L 529.607617 569.855918 
L 534.587296 581.368862 
L 539.566975 582.200108 
L 544.546654 583.72199 
L 549.526334 573.634615 
L 554.506013 564.800989 
L 559.485692 547.549192 
L 564.465371 532.769656 
L 569.44505 523.478291 
L 574.424729 526.701928 
L 579.404408 534.370065 
L 584.384088 545.508495 
L 589.363767 563.729128 
L 594.343446 580.601377 
L 599.323125 587.182551 
L 604.302804 583.79951 
L 609.282483 564.352311 
L 614.262162 557.268094 
L 619.241842 548.21533 
L 624.221521 531.477315 
L 629.2012 524.246111 
L 634.180879 524.328665 
L 639.160558 536.673862 
L 644.140237 549.653651 
L 649.119916 560.770939 
L 654.099596 577.763328 
L 659.079275 582.166885 
L 664.058954 583.125654 
L 669.038633 578.895259 
L 674.018312 563.349245 
L 678.997991 550.195286 
L 683.97767 531.607187 
L 688.95735 525.799203 
L 693.937029 526.132439 
L 698.916708 538.625965 
L 703.896387 544.020171 
L 708.876066 566.628589 
L 713.855745 577.218672 
L 718.835424 582.723958 
L 723.815104 582.526969 
L 728.794783 571.910711 
L 733.774462 561.966967 
L 738.754141 549.212691 
L 743.73382 539.205521 
L 748.713499 530.694729 
L 753.693178 524.133019 
L 758.672858 532.186072 
L 763.652537 547.846186 
L 768.632216 554.308226 
L 773.611895 571.226787 
L 778.591574 583.818974 
L 783.571253 583.150823 
L 788.550932 576.946512 
L 793.530612 567.291707 
L 798.510291 554.554882 
L 803.48997 538.31689 
L 808.469649 527.132821 
L 813.449328 526.365 
L 818.429007 533.910983 
L 823.408686 551.325204 
L 828.388366 571.792584 
L 833.368045 580.344318 
L 838.347724 586.641251 
L 843.327403 587.695997 
L 848.307082 580.58594 
L 853.286761 563.010638 
L 858.266441 551.057406 
L 863.24612 533.930112 
L 868.225799 522.856115 
L 873.205478 522.030909 
L 878.185157 531.862903 
L 883.164836 543.854056 
L 888.144515 559.966539 
L 893.124195 576.807915 
L 898.103874 584.186441 
L 908.063232 571.682177 
L 913.042911 559.326577 
L 918.02259 543.767811 
L 927.981949 527.364039 
L 932.961628 523.686354 
L 937.941307 535.143926 
L 942.920986 550.475836 
L 947.900665 558.410763 
L 952.880344 582.761879 
L 957.860023 577.962666 
L 962.839703 576.979064 
L 967.819382 571.401291 
L 972.799061 561.545806 
L 977.77874 552.996421 
L 982.758419 537.058779 
L 987.738098 530.043357 
L 992.717777 526.423728 
L 997.697457 535.886913 
L 1002.677136 548.756294 
L 1007.656815 565.960438 
L 1012.636494 572.86411 
L 1017.616173 585.774768 
L 1022.595852 584.185434 
L 1027.575531 573.685624 
L 1032.555211 567.142371 
L 1037.53489 548.413326 
L 1042.514569 540.85761 
L 1047.494248 528.311063 
L 1052.473927 523.595746 
L 1057.453606 529.695019 
L 1067.412965 559.43128 
L 1072.392644 577.325388 
L 1077.372323 587.389608 
L 1082.352002 572.402679 
L 1087.331681 569.578053 
L 1092.31136 554.453535 
L 1097.291039 549.726473 
L 1102.270719 533.964006 
L 1107.250398 527.64224 
L 1107.250398 527.64224 
" style="fill:none;stroke:#ff0000;stroke-linecap:square;stroke-width:1.5;"/>
   </g>
   <g id="line2d_35">
    <path clip-path="url(#p6791733bb8)" d="M 91.395852 545.015519 
L 96.375531 543.958424 
L 101.355211 551.956441 
L 106.33489 561.801858 
L 111.314569 579.688248 
L 116.294248 590.010869 
L 121.273927 606.66388 
L 126.253606 602.746351 
L 131.233285 597.888411 
L 136.212965 580.895686 
L 141.192644 568.663918 
L 146.172323 549.197254 
L 151.152002 541.205277 
L 156.131681 543.865802 
L 161.11136 551.803078 
L 166.091039 566.573553 
L 171.070719 578.919756 
L 176.050398 595.01546 
L 181.030077 597.219924 
L 186.009756 596.133968 
L 190.989435 587.135569 
L 195.969114 577.490832 
L 200.948793 564.404326 
L 205.928473 552.795741 
L 210.908152 544.6551 
L 215.887831 543.544982 
L 220.86751 553.140052 
L 225.847189 565.123151 
L 230.826868 581.898752 
L 235.806547 596.489689 
L 240.786227 606.177314 
L 245.765906 597.665246 
L 250.745585 592.225735 
L 255.725264 584.965335 
L 260.704943 571.22276 
L 265.684622 552.639694 
L 270.664301 541.961688 
L 275.643981 544.415156 
L 280.62366 553.136025 
L 285.603339 562.715994 
L 290.583018 576.321651 
L 295.562697 596.7595 
L 300.542376 594.751354 
L 305.522055 605.536982 
L 310.501735 600.253955 
L 315.481414 585.484822 
L 320.461093 562.5878 
L 325.440772 553.202807 
L 330.420451 544.501066 
L 335.40013 543.865466 
L 340.379809 554.112244 
L 345.359489 563.73349 
L 350.339168 579.18554 
L 355.318847 593.475121 
L 360.298526 602.825885 
L 365.278205 601.619118 
L 370.257884 591.539126 
L 375.237564 580.393649 
L 380.217243 572.062395 
L 385.196922 554.554211 
L 390.176601 544.599392 
L 395.15628 546.55116 
L 400.135959 553.420937 
L 405.115638 560.797114 
L 410.095318 579.410047 
L 415.074997 597.297108 
L 420.054676 597.443424 
L 425.034355 600.126433 
L 430.014034 590.135035 
L 434.993713 578.899621 
L 439.973392 566.882628 
L 444.953072 557.57851 
L 449.932751 545.081629 
L 454.91243 545.040017 
L 459.892109 554.208893 
L 464.871788 573.565149 
L 469.851467 587.290274 
L 474.831146 593.049934 
L 479.810826 600.36 
L 484.790505 597.085689 
L 489.770184 592.05123 
L 494.749863 579.355347 
L 499.729542 565.852379 
L 504.709221 554.563272 
L 509.6889 547.701548 
L 514.66858 544.427573 
L 519.648259 552.746746 
L 524.627938 568.315915 
L 529.607617 588.112124 
L 534.587296 599.227398 
L 539.566975 600.564036 
L 544.546654 599.132092 
L 549.526334 591.344151 
L 554.506013 583.906562 
L 559.485692 565.285575 
L 564.465371 552.616538 
L 569.44505 542.472114 
L 574.424729 544.476232 
L 579.404408 552.84373 
L 584.384088 563.469384 
L 589.363767 580.162095 
L 594.343446 596.070542 
L 599.323125 603.094689 
L 604.302804 599.025711 
L 609.282483 583.645476 
L 614.262162 575.198781 
L 619.241842 565.972184 
L 624.221521 550.82451 
L 629.2012 542.606013 
L 634.180879 540.607934 
L 639.160558 553.20784 
L 644.140237 567.02391 
L 649.119916 577.033428 
L 654.099596 593.640901 
L 659.079275 596.671912 
L 664.058954 597.54712 
L 669.038633 594.508726 
L 674.018312 580.083568 
L 678.997991 567.81153 
L 683.97767 550.557384 
L 688.95735 543.474173 
L 693.937029 543.721836 
L 698.916708 554.974364 
L 703.896387 561.625676 
L 708.876066 582.114198 
L 713.855745 590.359542 
L 718.835424 595.395343 
L 723.815104 595.457762 
L 728.794783 588.213806 
L 733.774462 578.577794 
L 738.754141 566.459454 
L 743.73382 555.451567 
L 748.713499 546.842784 
L 753.693178 538.505489 
L 758.672858 549.063691 
L 763.652537 563.305954 
L 768.632216 573.589647 
L 773.611895 586.425134 
L 778.591574 597.240394 
L 783.571253 597.609203 
L 788.550932 593.249607 
L 793.530612 583.492114 
L 798.510291 570.218016 
L 803.48997 554.398835 
L 808.469649 544.081919 
L 813.449328 542.841929 
L 818.429007 549.533176 
L 823.408686 567.932676 
L 828.388366 588.928269 
L 833.368045 595.259767 
L 838.347724 602.566142 
L 843.327403 602.199011 
L 848.307082 596.850444 
L 853.286761 580.905753 
L 858.266441 568.183694 
L 863.24612 551.211105 
L 868.225799 540.211608 
L 873.205478 540.040123 
L 878.185157 550.433552 
L 883.164836 561.509899 
L 888.144515 575.449128 
L 893.124195 590.632038 
L 898.103874 598.142785 
L 903.083553 593.731173 
L 908.063232 588.320523 
L 913.042911 577.05155 
L 918.02259 562.423363 
L 923.002269 552.518547 
L 927.981949 544.549726 
L 932.961628 541.383809 
L 937.941307 551.917513 
L 942.920986 568.362561 
L 947.900665 574.603116 
L 952.880344 596.63634 
L 957.860023 591.937467 
L 962.839703 594.893978 
L 967.819382 587.424844 
L 972.799061 576.865636 
L 977.77874 567.689376 
L 982.758419 552.63466 
L 987.738098 545.21083 
L 992.717777 541.911685 
L 997.697457 550.438251 
L 1002.677136 564.905692 
L 1007.656815 581.076902 
L 1012.636494 586.65803 
L 1017.616173 599.32304 
L 1022.595852 598.124999 
L 1027.575531 588.349047 
L 1032.555211 582.771611 
L 1037.53489 565.581226 
L 1042.514569 556.808341 
L 1047.494248 544.897728 
L 1052.473927 540.508266 
L 1057.453606 546.733718 
L 1062.433285 560.159166 
L 1067.412965 575.215896 
L 1072.392644 592.584141 
L 1077.372323 600.667732 
L 1082.352002 590.121276 
L 1087.331681 585.275752 
L 1092.31136 572.600004 
L 1097.291039 565.802713 
L 1102.270719 549.603313 
L 1107.250398 540.87741 
L 1107.250398 540.87741 
" style="fill:none;stroke:#008000;stroke-linecap:square;stroke-width:1.5;"/>
   </g>
   <g id="line2d_36">
    <path clip-path="url(#p6791733bb8)" d="M 91.395852 562.571021 
L 96.375531 560.655161 
L 101.355211 570.731798 
L 106.33489 579.261047 
L 111.314569 597.654843 
L 116.294248 607.223066 
L 121.273927 623.069799 
L 126.253606 619.538328 
L 131.233285 616.748872 
L 136.212965 597.333352 
L 141.192644 587.53995 
L 146.172323 569.023666 
L 151.152002 562.050192 
L 156.131681 562.630755 
L 161.11136 570.654948 
L 166.091039 584.218992 
L 171.070719 600.532827 
L 176.050398 611.434669 
L 181.030077 615.249709 
L 186.009756 616.471242 
L 190.989435 605.191665 
L 195.969114 596.248067 
L 200.948793 583.453521 
L 205.928473 574.512172 
L 210.908152 564.551313 
L 215.887831 562.185433 
L 220.86751 572.838941 
L 225.847189 586.874148 
L 230.826868 598.81899 
L 235.806547 609.285946 
L 240.786227 622.221874 
L 245.765906 613.588761 
L 250.745585 608.899888 
L 255.725264 601.642945 
L 260.704943 590.487065 
L 265.684622 571.844265 
L 270.664301 560.195073 
L 275.643981 562.807945 
L 280.62366 570.047538 
L 285.603339 579.318097 
L 290.583018 598.123321 
L 295.562697 611.619677 
L 300.542376 608.087905 
L 305.522055 618.563485 
L 310.501735 616.461744 
L 315.481414 603.772908 
L 320.461093 580.203372 
L 325.440772 573.173185 
L 330.420451 563.462673 
L 335.40013 564.83287 
L 340.379809 571.75265 
L 345.359489 581.257112 
L 350.339168 595.822544 
L 355.318847 606.978558 
L 360.298526 617.590555 
L 365.278205 615.891249 
L 370.257884 608.623902 
L 375.237564 601.638918 
L 380.217243 589.799114 
L 385.196922 572.771824 
L 390.176601 564.667761 
L 395.15628 565.259399 
L 400.135959 572.846995 
L 405.115638 579.26239 
L 410.095318 595.208758 
L 415.074997 611.74173 
L 420.054676 615.139066 
L 425.034355 615.24189 
L 430.014034 611.140326 
L 434.993713 597.79948 
L 439.973392 586.205661 
L 444.953072 575.825991 
L 449.932751 562.069991 
L 454.91243 563.492204 
L 459.892109 573.107074 
L 464.871788 593.338538 
L 469.851467 601.829531 
L 479.810826 615.035907 
L 484.790505 613.632018 
L 489.770184 612.739359 
L 494.749863 597.183345 
L 499.729542 587.55438 
L 504.709221 575.188042 
L 509.6889 567.058475 
L 514.66858 564.361371 
L 519.648259 571.615059 
L 524.627938 586.956031 
L 529.607617 605.306536 
L 534.587296 616.46906 
L 539.566975 619.469567 
L 544.546654 613.850887 
L 549.526334 611.748039 
L 554.506013 603.697737 
L 559.485692 583.55319 
L 564.465371 572.465434 
L 569.44505 563.425423 
L 574.424729 563.543213 
L 579.404408 576.047813 
L 584.384088 583.02028 
L 594.343446 612.178461 
L 599.323125 621.68289 
L 604.302804 619.71384 
L 609.282483 605.474094 
L 619.241842 587.039256 
L 624.221521 569.206224 
L 629.2012 563.672749 
L 634.180879 559.854789 
L 639.160558 570.949928 
L 644.140237 585.320385 
L 649.119916 594.016757 
L 654.099596 610.071217 
L 659.079275 612.123291 
L 669.038633 613.460131 
L 674.018312 601.249303 
L 678.997991 588.092324 
L 683.97767 570.13479 
L 688.95735 561.89448 
L 693.937029 563.984844 
L 698.916708 572.885252 
L 703.896387 580.438282 
L 708.876066 599.365995 
L 713.855745 604.883697 
L 718.835424 609.420952 
L 723.815104 609.828622 
L 728.794783 606.597769 
L 733.774462 599.934142 
L 738.754141 586.018404 
L 743.73382 573.687973 
L 748.713499 565.30269 
L 753.693178 556.325097 
L 758.672858 569.096488 
L 763.652537 580.273845 
L 768.632216 594.630879 
L 773.611895 602.491306 
L 778.591574 612.771508 
L 783.571253 614.536086 
L 788.550932 611.661793 
L 793.530612 601.540256 
L 798.510291 588.370525 
L 803.48997 573.265135 
L 808.469649 564.120756 
L 813.449328 563.201587 
L 818.429007 569.377037 
L 823.408686 585.942897 
L 828.388366 605.744039 
L 833.368045 612.257156 
L 838.347724 617.619851 
L 843.327403 619.093274 
L 848.307082 615.896685 
L 853.286761 601.041911 
L 858.266441 586.614404 
L 863.24612 571.730501 
L 868.225799 558.499694 
L 873.205478 559.741361 
L 878.185157 571.294239 
L 883.164836 579.779192 
L 888.144515 591.998879 
L 893.124195 606.568003 
L 898.103874 614.576725 
L 903.083553 611.037738 
L 908.063232 608.506246 
L 913.042911 597.331674 
L 918.02259 581.394366 
L 923.002269 572.863439 
L 927.981949 564.603329 
L 932.961628 562.193151 
L 937.941307 571.619422 
L 942.920986 589.678303 
L 947.900665 591.76162 
L 952.880344 611.650786 
L 957.860023 608.517991 
L 962.839703 612.617508 
L 967.819382 606.358094 
L 972.799061 598.932754 
L 982.758419 571.086176 
L 987.738098 562.619681 
L 992.717777 558.93562 
L 997.697457 567.460507 
L 1002.677136 582.476631 
L 1007.656815 598.25487 
L 1012.636494 602.462446 
L 1017.616173 615.292026 
L 1022.595852 613.926159 
L 1027.575531 607.244879 
L 1032.555211 604.268569 
L 1037.53489 585.378442 
L 1047.494248 564.719106 
L 1052.473927 557.686905 
L 1057.453606 565.05939 
L 1062.433285 576.684755 
L 1067.412965 593.178463 
L 1072.392644 608.705013 
L 1077.372323 615.854099 
L 1082.352002 607.646811 
L 1087.331681 604.484686 
L 1092.31136 593.589556 
L 1097.291039 584.122344 
L 1102.270719 567.392383 
L 1107.250398 559.374566 
L 1107.250398 559.374566 
" style="fill:none;stroke:#0000ff;stroke-linecap:square;stroke-width:1.5;"/>
   </g>
   <g id="line2d_37">
    <defs>
     <path d="M 0 3 
C 0.795609 3 1.55874 2.683901 2.12132 2.12132 
C 2.683901 1.55874 3 0.795609 3 0 
C 3 -0.795609 2.683901 -1.55874 2.12132 -2.12132 
C 1.55874 -2.683901 0.795609 -3 0 -3 
C -0.795609 -3 -1.55874 -2.683901 -2.12132 -2.12132 
C -2.683901 -1.55874 -3 -0.795609 -3 0 
C -3 0.795609 -2.683901 1.55874 -2.12132 2.12132 
C -1.55874 2.683901 -0.795609 3 0 3 
z
" id="m7a58e5a981" style="stroke:#ff0000;"/>
    </defs>
    <g clip-path="url(#p6791733bb8)">
     <use style="fill:#ff0000;stroke:#ff0000;" x="131.233285" xlink:href="#m7a58e5a981" y="639.849091"/>
     <use style="fill:#ff0000;stroke:#ff0000;" x="136.212965" xlink:href="#m7a58e5a981" y="639.849091"/>
     <use style="fill:#ff0000;stroke:#ff0000;" x="141.192644" xlink:href="#m7a58e5a981" y="639.849091"/>
     <use style="fill:#ff0000;stroke:#ff0000;" x="146.172323" xlink:href="#m7a58e5a981" y="639.849091"/>
     <use style="fill:#ff0000;stroke:#ff0000;" x="151.152002" xlink:href="#m7a58e5a981" y="639.849091"/>
     <use style="fill:#ff0000;stroke:#ff0000;" x="156.131681" xlink:href="#m7a58e5a981" y="639.849091"/>
     <use style="fill:#ff0000;stroke:#ff0000;" x="161.11136" xlink:href="#m7a58e5a981" y="639.849091"/>
     <use style="fill:#ff0000;stroke:#ff0000;" x="166.091039" xlink:href="#m7a58e5a981" y="639.849091"/>
     <use style="fill:#ff0000;stroke:#ff0000;" x="171.070719" xlink:href="#m7a58e5a981" y="639.849091"/>
     <use style="fill:#ff0000;stroke:#ff0000;" x="176.050398" xlink:href="#m7a58e5a981" y="639.849091"/>
     <use style="fill:#ff0000;stroke:#ff0000;" x="300.542376" xlink:href="#m7a58e5a981" y="639.849091"/>
     <use style="fill:#ff0000;stroke:#ff0000;" x="360.298526" xlink:href="#m7a58e5a981" y="639.849091"/>
     <use style="fill:#ff0000;stroke:#ff0000;" x="564.465371" xlink:href="#m7a58e5a981" y="639.849091"/>
     <use style="fill:#ff0000;stroke:#ff0000;" x="569.44505" xlink:href="#m7a58e5a981" y="639.849091"/>
    </g>
   </g>
   <g id="patch_9">
    <path d="M 40.603125 645.74 
L 40.603125 516.14 
" style="fill:none;stroke:#000000;stroke-linecap:square;stroke-linejoin:miter;stroke-width:0.8;"/>
   </g>
   <g id="patch_10">
    <path d="M 1158.043125 645.74 
L 1158.043125 516.14 
" style="fill:none;stroke:#000000;stroke-linecap:square;stroke-linejoin:miter;stroke-width:0.8;"/>
   </g>
   <g id="patch_11">
    <path d="M 40.603125 645.74 
L 1158.043125 645.74 
" style="fill:none;stroke:#000000;stroke-linecap:square;stroke-linejoin:miter;stroke-width:0.8;"/>
   </g>
   <g id="patch_12">
    <path d="M 40.603125 516.14 
L 1158.043125 516.14 
" style="fill:none;stroke:#000000;stroke-linecap:square;stroke-linejoin:miter;stroke-width:0.8;"/>
   </g>
   <g id="legend_2">
    <g id="patch_13">
     <path d="M 47.603125 582.8525 
L 138.615625 582.8525 
Q 140.615625 582.8525 140.615625 580.8525 
L 140.615625 523.14 
Q 140.615625 521.14 138.615625 521.14 
L 47.603125 521.14 
Q 45.603125 521.14 45.603125 523.14 
L 45.603125 580.8525 
Q 45.603125 582.8525 47.603125 582.8525 
z
" style="fill:#ffffff;opacity:0.8;stroke:#cccccc;stroke-linejoin:miter;"/>
    </g>
    <g id="line2d_38">
     <path d="M 49.603125 529.238437 
L 69.603125 529.238437 
" style="fill:none;stroke:#ff0000;stroke-linecap:square;stroke-width:1.5;"/>
    </g>
    <g id="line2d_39"/>
    <g id="text_31">
     <!-- Maxmimum -->
     <defs>
      <path d="M 9.8125 72.90625 
L 24.515625 72.90625 
L 43.109375 23.296875 
L 61.8125 72.90625 
L 76.515625 72.90625 
L 76.515625 0 
L 66.890625 0 
L 66.890625 64.015625 
L 48.09375 14.015625 
L 38.1875 14.015625 
L 19.390625 64.015625 
L 19.390625 0 
L 9.8125 0 
z
" id="DejaVuSans-4d"/>
      <path d="M 54.890625 54.6875 
L 35.109375 28.078125 
L 55.90625 0 
L 45.3125 0 
L 29.390625 21.484375 
L 13.484375 0 
L 2.875 0 
L 24.125 28.609375 
L 4.6875 54.6875 
L 15.28125 54.6875 
L 29.78125 35.203125 
L 44.28125 54.6875 
z
" id="DejaVuSans-78"/>
     </defs>
     <g transform="translate(77.603125 532.738437)scale(0.1 -0.1)">
      <use xlink:href="#DejaVuSans-4d"/>
      <use x="86.279297" xlink:href="#DejaVuSans-61"/>
      <use x="147.558594" xlink:href="#DejaVuSans-78"/>
      <use x="206.738281" xlink:href="#DejaVuSans-6d"/>
      <use x="304.150391" xlink:href="#DejaVuSans-69"/>
      <use x="331.933594" xlink:href="#DejaVuSans-6d"/>
      <use x="429.345703" xlink:href="#DejaVuSans-75"/>
      <use x="492.724609" xlink:href="#DejaVuSans-6d"/>
     </g>
    </g>
    <g id="line2d_40">
     <path d="M 49.603125 543.916562 
L 69.603125 543.916562 
" style="fill:none;stroke:#008000;stroke-linecap:square;stroke-width:1.5;"/>
    </g>
    <g id="line2d_41"/>
    <g id="text_32">
     <!-- Average -->
     <defs>
      <path d="M 34.1875 63.1875 
L 20.796875 26.90625 
L 47.609375 26.90625 
z
M 28.609375 72.90625 
L 39.796875 72.90625 
L 67.578125 0 
L 57.328125 0 
L 50.6875 18.703125 
L 17.828125 18.703125 
L 11.1875 0 
L 0.78125 0 
z
" id="DejaVuSans-41"/>
      <path d="M 2.984375 54.6875 
L 12.5 54.6875 
L 29.59375 8.796875 
L 46.6875 54.6875 
L 56.203125 54.6875 
L 35.6875 0 
L 23.484375 0 
z
" id="DejaVuSans-76"/>
     </defs>
     <g transform="translate(77.603125 547.416562)scale(0.1 -0.1)">
      <use xlink:href="#DejaVuSans-41"/>
      <use x="68.330078" xlink:href="#DejaVuSans-76"/>
      <use x="127.509766" xlink:href="#DejaVuSans-65"/>
      <use x="189.033203" xlink:href="#DejaVuSans-72"/>
      <use x="230.146484" xlink:href="#DejaVuSans-61"/>
      <use x="291.425781" xlink:href="#DejaVuSans-67"/>
      <use x="354.902344" xlink:href="#DejaVuSans-65"/>
     </g>
    </g>
    <g id="line2d_42">
     <path d="M 49.603125 558.594687 
L 69.603125 558.594687 
" style="fill:none;stroke:#0000ff;stroke-linecap:square;stroke-width:1.5;"/>
    </g>
    <g id="line2d_43"/>
    <g id="text_33">
     <!-- Minimum -->
     <g transform="translate(77.603125 562.094687)scale(0.1 -0.1)">
      <use xlink:href="#DejaVuSans-4d"/>
      <use x="86.279297" xlink:href="#DejaVuSans-69"/>
      <use x="114.0625" xlink:href="#DejaVuSans-6e"/>
      <use x="177.441406" xlink:href="#DejaVuSans-69"/>
      <use x="205.224609" xlink:href="#DejaVuSans-6d"/>
      <use x="302.636719" xlink:href="#DejaVuSans-75"/>
      <use x="366.015625" xlink:href="#DejaVuSans-6d"/>
     </g>
    </g>
    <g id="line2d_44"/>
    <g id="line2d_45">
     <g>
      <use style="fill:#ff0000;stroke:#ff0000;" x="59.603125" xlink:href="#m7a58e5a981" y="573.272812"/>
     </g>
    </g>
    <g id="text_34">
     <!-- Disasters -->
     <g transform="translate(77.603125 576.772812)scale(0.1 -0.1)">
      <use xlink:href="#DejaVuSans-44"/>
      <use x="77.001953" xlink:href="#DejaVuSans-69"/>
      <use x="104.785156" xlink:href="#DejaVuSans-73"/>
      <use x="156.884766" xlink:href="#DejaVuSans-61"/>
      <use x="218.164062" xlink:href="#DejaVuSans-73"/>
      <use x="270.263672" xlink:href="#DejaVuSans-74"/>
      <use x="309.472656" xlink:href="#DejaVuSans-65"/>
      <use x="370.996094" xlink:href="#DejaVuSans-72"/>
      <use x="412.109375" xlink:href="#DejaVuSans-73"/>
     </g>
    </g>
   </g>
  </g>
 </g>
 <defs>
  <clipPath id="pa8d43ade91">
   <rect height="498.96" width="1116" x="40.603125" y="10.7"/>
  </clipPath>
  <clipPath id="p6791733bb8">
   <rect height="129.6" width="1117.44" x="40.603125" y="516.14"/>
  </clipPath>
 </defs>
</svg>
