<?xml version="1.0" encoding="utf-8" standalone="no"?>
<!DOCTYPE svg PUBLIC "-//W3C//DTD SVG 1.1//EN"
  "http://www.w3.org/Graphics/SVG/1.1/DTD/svg11.dtd">
<!-- Created with matplotlib (http://matplotlib.org/) -->
<svg height="669pt" version="1.1" viewBox="0 0 1181 669" width="1181pt" xmlns="http://www.w3.org/2000/svg" xmlns:xlink="http://www.w3.org/1999/xlink">
 <defs>
  <style type="text/css">
*{stroke-linecap:butt;stroke-linejoin:round;}
  </style>
 </defs>
 <g id="figure_1">
  <g id="patch_1">
   <path d="M 0 669.618125 
L 1181.468125 669.618125 
L 1181.468125 -0 
L 0 -0 
z
" style="fill:none;"/>
  </g>
  <g id="axes_1">
   <g id="patch_2">
    <path d="M 53.328125 509.66 
L 1169.328125 509.66 
L 1169.328125 10.7 
L 53.328125 10.7 
z
" style="fill:none;"/>
   </g>
   <g id="matplotlib.axis_1">
    <g id="xtick_1">
     <g id="line2d_1">
      <defs>
       <path d="M 0 0 
L 0 3.5 
" id="md5c9fd22c4" style="stroke:#000000;stroke-width:0.8;"/>
      </defs>
      <g>
       <use style="stroke:#000000;stroke-width:0.8;" x="104.055398" xlink:href="#md5c9fd22c4" y="509.66"/>
      </g>
     </g>
     <g id="text_1">
      <!-- 0 -->
      <defs>
       <path d="M 31.78125 66.40625 
Q 24.171875 66.40625 20.328125 58.90625 
Q 16.5 51.421875 16.5 36.375 
Q 16.5 21.390625 20.328125 13.890625 
Q 24.171875 6.390625 31.78125 6.390625 
Q 39.453125 6.390625 43.28125 13.890625 
Q 47.125 21.390625 47.125 36.375 
Q 47.125 51.421875 43.28125 58.90625 
Q 39.453125 66.40625 31.78125 66.40625 
z
M 31.78125 74.21875 
Q 44.046875 74.21875 50.515625 64.515625 
Q 56.984375 54.828125 56.984375 36.375 
Q 56.984375 17.96875 50.515625 8.265625 
Q 44.046875 -1.421875 31.78125 -1.421875 
Q 19.53125 -1.421875 13.0625 8.265625 
Q 6.59375 17.96875 6.59375 36.375 
Q 6.59375 54.828125 13.0625 64.515625 
Q 19.53125 74.21875 31.78125 74.21875 
z
" id="DejaVuSans-30"/>
      </defs>
      <g transform="translate(100.874148 524.258437)scale(0.1 -0.1)">
       <use xlink:href="#DejaVuSans-30"/>
      </g>
     </g>
    </g>
    <g id="xtick_2">
     <g id="line2d_2">
      <g>
       <use style="stroke:#000000;stroke-width:0.8;" x="346.769621" xlink:href="#md5c9fd22c4" y="509.66"/>
      </g>
     </g>
     <g id="text_2">
      <!-- 50 -->
      <defs>
       <path d="M 10.796875 72.90625 
L 49.515625 72.90625 
L 49.515625 64.59375 
L 19.828125 64.59375 
L 19.828125 46.734375 
Q 21.96875 47.46875 24.109375 47.828125 
Q 26.265625 48.1875 28.421875 48.1875 
Q 40.625 48.1875 47.75 41.5 
Q 54.890625 34.8125 54.890625 23.390625 
Q 54.890625 11.625 47.5625 5.09375 
Q 40.234375 -1.421875 26.90625 -1.421875 
Q 22.3125 -1.421875 17.546875 -0.640625 
Q 12.796875 0.140625 7.71875 1.703125 
L 7.71875 11.625 
Q 12.109375 9.234375 16.796875 8.0625 
Q 21.484375 6.890625 26.703125 6.890625 
Q 35.15625 6.890625 40.078125 11.328125 
Q 45.015625 15.765625 45.015625 23.390625 
Q 45.015625 31 40.078125 35.4375 
Q 35.15625 39.890625 26.703125 39.890625 
Q 22.75 39.890625 18.8125 39.015625 
Q 14.890625 38.140625 10.796875 36.28125 
z
" id="DejaVuSans-35"/>
      </defs>
      <g transform="translate(340.407121 524.258437)scale(0.1 -0.1)">
       <use xlink:href="#DejaVuSans-35"/>
       <use x="63.623047" xlink:href="#DejaVuSans-30"/>
      </g>
     </g>
    </g>
    <g id="xtick_3">
     <g id="line2d_3">
      <g>
       <use style="stroke:#000000;stroke-width:0.8;" x="589.483845" xlink:href="#md5c9fd22c4" y="509.66"/>
      </g>
     </g>
     <g id="text_3">
      <!-- 100 -->
      <defs>
       <path d="M 12.40625 8.296875 
L 28.515625 8.296875 
L 28.515625 63.921875 
L 10.984375 60.40625 
L 10.984375 69.390625 
L 28.421875 72.90625 
L 38.28125 72.90625 
L 38.28125 8.296875 
L 54.390625 8.296875 
L 54.390625 0 
L 12.40625 0 
z
" id="DejaVuSans-31"/>
      </defs>
      <g transform="translate(579.940095 524.258437)scale(0.1 -0.1)">
       <use xlink:href="#DejaVuSans-31"/>
       <use x="63.623047" xlink:href="#DejaVuSans-30"/>
       <use x="127.246094" xlink:href="#DejaVuSans-30"/>
      </g>
     </g>
    </g>
    <g id="xtick_4">
     <g id="line2d_4">
      <g>
       <use style="stroke:#000000;stroke-width:0.8;" x="832.198068" xlink:href="#md5c9fd22c4" y="509.66"/>
      </g>
     </g>
     <g id="text_4">
      <!-- 150 -->
      <g transform="translate(822.654318 524.258437)scale(0.1 -0.1)">
       <use xlink:href="#DejaVuSans-31"/>
       <use x="63.623047" xlink:href="#DejaVuSans-35"/>
       <use x="127.246094" xlink:href="#DejaVuSans-30"/>
      </g>
     </g>
    </g>
    <g id="xtick_5">
     <g id="line2d_5">
      <g>
       <use style="stroke:#000000;stroke-width:0.8;" x="1074.912292" xlink:href="#md5c9fd22c4" y="509.66"/>
      </g>
     </g>
     <g id="text_5">
      <!-- 200 -->
      <defs>
       <path d="M 19.1875 8.296875 
L 53.609375 8.296875 
L 53.609375 0 
L 7.328125 0 
L 7.328125 8.296875 
Q 12.9375 14.109375 22.625 23.890625 
Q 32.328125 33.6875 34.8125 36.53125 
Q 39.546875 41.84375 41.421875 45.53125 
Q 43.3125 49.21875 43.3125 52.78125 
Q 43.3125 58.59375 39.234375 62.25 
Q 35.15625 65.921875 28.609375 65.921875 
Q 23.96875 65.921875 18.8125 64.3125 
Q 13.671875 62.703125 7.8125 59.421875 
L 7.8125 69.390625 
Q 13.765625 71.78125 18.9375 73 
Q 24.125 74.21875 28.421875 74.21875 
Q 39.75 74.21875 46.484375 68.546875 
Q 53.21875 62.890625 53.21875 53.421875 
Q 53.21875 48.921875 51.53125 44.890625 
Q 49.859375 40.875 45.40625 35.40625 
Q 44.1875 33.984375 37.640625 27.21875 
Q 31.109375 20.453125 19.1875 8.296875 
z
" id="DejaVuSans-32"/>
      </defs>
      <g transform="translate(1065.368542 524.258437)scale(0.1 -0.1)">
       <use xlink:href="#DejaVuSans-32"/>
       <use x="63.623047" xlink:href="#DejaVuSans-30"/>
       <use x="127.246094" xlink:href="#DejaVuSans-30"/>
      </g>
     </g>
    </g>
    <g id="text_6">
     <!-- Time -->
     <defs>
      <path d="M -0.296875 72.90625 
L 61.375 72.90625 
L 61.375 64.59375 
L 35.5 64.59375 
L 35.5 0 
L 25.59375 0 
L 25.59375 64.59375 
L -0.296875 64.59375 
z
" id="DejaVuSans-54"/>
      <path d="M 9.421875 54.6875 
L 18.40625 54.6875 
L 18.40625 0 
L 9.421875 0 
z
M 9.421875 75.984375 
L 18.40625 75.984375 
L 18.40625 64.59375 
L 9.421875 64.59375 
z
" id="DejaVuSans-69"/>
      <path d="M 52 44.1875 
Q 55.375 50.25 60.0625 53.125 
Q 64.75 56 71.09375 56 
Q 79.640625 56 84.28125 50.015625 
Q 88.921875 44.046875 88.921875 33.015625 
L 88.921875 0 
L 79.890625 0 
L 79.890625 32.71875 
Q 79.890625 40.578125 77.09375 44.375 
Q 74.3125 48.1875 68.609375 48.1875 
Q 61.625 48.1875 57.5625 43.546875 
Q 53.515625 38.921875 53.515625 30.90625 
L 53.515625 0 
L 44.484375 0 
L 44.484375 32.71875 
Q 44.484375 40.625 41.703125 44.40625 
Q 38.921875 48.1875 33.109375 48.1875 
Q 26.21875 48.1875 22.15625 43.53125 
Q 18.109375 38.875 18.109375 30.90625 
L 18.109375 0 
L 9.078125 0 
L 9.078125 54.6875 
L 18.109375 54.6875 
L 18.109375 46.1875 
Q 21.1875 51.21875 25.484375 53.609375 
Q 29.78125 56 35.6875 56 
Q 41.65625 56 45.828125 52.96875 
Q 50 49.953125 52 44.1875 
z
" id="DejaVuSans-6d"/>
      <path d="M 56.203125 29.59375 
L 56.203125 25.203125 
L 14.890625 25.203125 
Q 15.484375 15.921875 20.484375 11.0625 
Q 25.484375 6.203125 34.421875 6.203125 
Q 39.59375 6.203125 44.453125 7.46875 
Q 49.3125 8.734375 54.109375 11.28125 
L 54.109375 2.78125 
Q 49.265625 0.734375 44.1875 -0.34375 
Q 39.109375 -1.421875 33.890625 -1.421875 
Q 20.796875 -1.421875 13.15625 6.1875 
Q 5.515625 13.8125 5.515625 26.8125 
Q 5.515625 40.234375 12.765625 48.109375 
Q 20.015625 56 32.328125 56 
Q 43.359375 56 49.78125 48.890625 
Q 56.203125 41.796875 56.203125 29.59375 
z
M 47.21875 32.234375 
Q 47.125 39.59375 43.09375 43.984375 
Q 39.0625 48.390625 32.421875 48.390625 
Q 24.90625 48.390625 20.390625 44.140625 
Q 15.875 39.890625 15.1875 32.171875 
z
" id="DejaVuSans-65"/>
     </defs>
     <g transform="translate(598.940625 537.936562)scale(0.1 -0.1)">
      <use xlink:href="#DejaVuSans-54"/>
      <use x="61.037109" xlink:href="#DejaVuSans-69"/>
      <use x="88.820312" xlink:href="#DejaVuSans-6d"/>
      <use x="186.232422" xlink:href="#DejaVuSans-65"/>
     </g>
    </g>
   </g>
   <g id="matplotlib.axis_2">
    <g id="ytick_1">
     <g id="line2d_6">
      <defs>
       <path d="M 0 0 
L -3.5 0 
" id="md7cced387e" style="stroke:#000000;stroke-width:0.8;"/>
      </defs>
      <g>
       <use style="stroke:#000000;stroke-width:0.8;" x="53.328125" xlink:href="#md7cced387e" y="498.778844"/>
      </g>
     </g>
     <g id="text_7">
      <!-- 0 -->
      <g transform="translate(39.965625 502.578063)scale(0.1 -0.1)">
       <use xlink:href="#DejaVuSans-30"/>
      </g>
     </g>
    </g>
    <g id="ytick_2">
     <g id="line2d_7">
      <g>
       <use style="stroke:#000000;stroke-width:0.8;" x="53.328125" xlink:href="#md7cced387e" y="433.229711"/>
      </g>
     </g>
     <g id="text_8">
      <!-- 200 -->
      <g transform="translate(27.240625 437.02893)scale(0.1 -0.1)">
       <use xlink:href="#DejaVuSans-32"/>
       <use x="63.623047" xlink:href="#DejaVuSans-30"/>
       <use x="127.246094" xlink:href="#DejaVuSans-30"/>
      </g>
     </g>
    </g>
    <g id="ytick_3">
     <g id="line2d_8">
      <g>
       <use style="stroke:#000000;stroke-width:0.8;" x="53.328125" xlink:href="#md7cced387e" y="367.680578"/>
      </g>
     </g>
     <g id="text_9">
      <!-- 400 -->
      <defs>
       <path d="M 37.796875 64.3125 
L 12.890625 25.390625 
L 37.796875 25.390625 
z
M 35.203125 72.90625 
L 47.609375 72.90625 
L 47.609375 25.390625 
L 58.015625 25.390625 
L 58.015625 17.1875 
L 47.609375 17.1875 
L 47.609375 0 
L 37.796875 0 
L 37.796875 17.1875 
L 4.890625 17.1875 
L 4.890625 26.703125 
z
" id="DejaVuSans-34"/>
      </defs>
      <g transform="translate(27.240625 371.479797)scale(0.1 -0.1)">
       <use xlink:href="#DejaVuSans-34"/>
       <use x="63.623047" xlink:href="#DejaVuSans-30"/>
       <use x="127.246094" xlink:href="#DejaVuSans-30"/>
      </g>
     </g>
    </g>
    <g id="ytick_4">
     <g id="line2d_9">
      <g>
       <use style="stroke:#000000;stroke-width:0.8;" x="53.328125" xlink:href="#md7cced387e" y="302.131445"/>
      </g>
     </g>
     <g id="text_10">
      <!-- 600 -->
      <defs>
       <path d="M 33.015625 40.375 
Q 26.375 40.375 22.484375 35.828125 
Q 18.609375 31.296875 18.609375 23.390625 
Q 18.609375 15.53125 22.484375 10.953125 
Q 26.375 6.390625 33.015625 6.390625 
Q 39.65625 6.390625 43.53125 10.953125 
Q 47.40625 15.53125 47.40625 23.390625 
Q 47.40625 31.296875 43.53125 35.828125 
Q 39.65625 40.375 33.015625 40.375 
z
M 52.59375 71.296875 
L 52.59375 62.3125 
Q 48.875 64.0625 45.09375 64.984375 
Q 41.3125 65.921875 37.59375 65.921875 
Q 27.828125 65.921875 22.671875 59.328125 
Q 17.53125 52.734375 16.796875 39.40625 
Q 19.671875 43.65625 24.015625 45.921875 
Q 28.375 48.1875 33.59375 48.1875 
Q 44.578125 48.1875 50.953125 41.515625 
Q 57.328125 34.859375 57.328125 23.390625 
Q 57.328125 12.15625 50.6875 5.359375 
Q 44.046875 -1.421875 33.015625 -1.421875 
Q 20.359375 -1.421875 13.671875 8.265625 
Q 6.984375 17.96875 6.984375 36.375 
Q 6.984375 53.65625 15.1875 63.9375 
Q 23.390625 74.21875 37.203125 74.21875 
Q 40.921875 74.21875 44.703125 73.484375 
Q 48.484375 72.75 52.59375 71.296875 
z
" id="DejaVuSans-36"/>
      </defs>
      <g transform="translate(27.240625 305.930664)scale(0.1 -0.1)">
       <use xlink:href="#DejaVuSans-36"/>
       <use x="63.623047" xlink:href="#DejaVuSans-30"/>
       <use x="127.246094" xlink:href="#DejaVuSans-30"/>
      </g>
     </g>
    </g>
    <g id="ytick_5">
     <g id="line2d_10">
      <g>
       <use style="stroke:#000000;stroke-width:0.8;" x="53.328125" xlink:href="#md7cced387e" y="236.582312"/>
      </g>
     </g>
     <g id="text_11">
      <!-- 800 -->
      <defs>
       <path d="M 31.78125 34.625 
Q 24.75 34.625 20.71875 30.859375 
Q 16.703125 27.09375 16.703125 20.515625 
Q 16.703125 13.921875 20.71875 10.15625 
Q 24.75 6.390625 31.78125 6.390625 
Q 38.8125 6.390625 42.859375 10.171875 
Q 46.921875 13.96875 46.921875 20.515625 
Q 46.921875 27.09375 42.890625 30.859375 
Q 38.875 34.625 31.78125 34.625 
z
M 21.921875 38.8125 
Q 15.578125 40.375 12.03125 44.71875 
Q 8.5 49.078125 8.5 55.328125 
Q 8.5 64.0625 14.71875 69.140625 
Q 20.953125 74.21875 31.78125 74.21875 
Q 42.671875 74.21875 48.875 69.140625 
Q 55.078125 64.0625 55.078125 55.328125 
Q 55.078125 49.078125 51.53125 44.71875 
Q 48 40.375 41.703125 38.8125 
Q 48.828125 37.15625 52.796875 32.3125 
Q 56.78125 27.484375 56.78125 20.515625 
Q 56.78125 9.90625 50.3125 4.234375 
Q 43.84375 -1.421875 31.78125 -1.421875 
Q 19.734375 -1.421875 13.25 4.234375 
Q 6.78125 9.90625 6.78125 20.515625 
Q 6.78125 27.484375 10.78125 32.3125 
Q 14.796875 37.15625 21.921875 38.8125 
z
M 18.3125 54.390625 
Q 18.3125 48.734375 21.84375 45.5625 
Q 25.390625 42.390625 31.78125 42.390625 
Q 38.140625 42.390625 41.71875 45.5625 
Q 45.3125 48.734375 45.3125 54.390625 
Q 45.3125 60.0625 41.71875 63.234375 
Q 38.140625 66.40625 31.78125 66.40625 
Q 25.390625 66.40625 21.84375 63.234375 
Q 18.3125 60.0625 18.3125 54.390625 
z
" id="DejaVuSans-38"/>
      </defs>
      <g transform="translate(27.240625 240.381531)scale(0.1 -0.1)">
       <use xlink:href="#DejaVuSans-38"/>
       <use x="63.623047" xlink:href="#DejaVuSans-30"/>
       <use x="127.246094" xlink:href="#DejaVuSans-30"/>
      </g>
     </g>
    </g>
    <g id="ytick_6">
     <g id="line2d_11">
      <g>
       <use style="stroke:#000000;stroke-width:0.8;" x="53.328125" xlink:href="#md7cced387e" y="171.033179"/>
      </g>
     </g>
     <g id="text_12">
      <!-- 1000 -->
      <g transform="translate(20.878125 174.832398)scale(0.1 -0.1)">
       <use xlink:href="#DejaVuSans-31"/>
       <use x="63.623047" xlink:href="#DejaVuSans-30"/>
       <use x="127.246094" xlink:href="#DejaVuSans-30"/>
       <use x="190.869141" xlink:href="#DejaVuSans-30"/>
      </g>
     </g>
    </g>
    <g id="ytick_7">
     <g id="line2d_12">
      <g>
       <use style="stroke:#000000;stroke-width:0.8;" x="53.328125" xlink:href="#md7cced387e" y="105.484046"/>
      </g>
     </g>
     <g id="text_13">
      <!-- 1200 -->
      <g transform="translate(20.878125 109.283265)scale(0.1 -0.1)">
       <use xlink:href="#DejaVuSans-31"/>
       <use x="63.623047" xlink:href="#DejaVuSans-32"/>
       <use x="127.246094" xlink:href="#DejaVuSans-30"/>
       <use x="190.869141" xlink:href="#DejaVuSans-30"/>
      </g>
     </g>
    </g>
    <g id="ytick_8">
     <g id="line2d_13">
      <g>
       <use style="stroke:#000000;stroke-width:0.8;" x="53.328125" xlink:href="#md7cced387e" y="39.934913"/>
      </g>
     </g>
     <g id="text_14">
      <!-- 1400 -->
      <g transform="translate(20.878125 43.734132)scale(0.1 -0.1)">
       <use xlink:href="#DejaVuSans-31"/>
       <use x="63.623047" xlink:href="#DejaVuSans-34"/>
       <use x="127.246094" xlink:href="#DejaVuSans-30"/>
       <use x="190.869141" xlink:href="#DejaVuSans-30"/>
      </g>
     </g>
    </g>
    <g id="text_15">
     <!-- Refugees -->
     <defs>
      <path d="M 44.390625 34.1875 
Q 47.5625 33.109375 50.5625 29.59375 
Q 53.5625 26.078125 56.59375 19.921875 
L 66.609375 0 
L 56 0 
L 46.6875 18.703125 
Q 43.0625 26.03125 39.671875 28.421875 
Q 36.28125 30.8125 30.421875 30.8125 
L 19.671875 30.8125 
L 19.671875 0 
L 9.8125 0 
L 9.8125 72.90625 
L 32.078125 72.90625 
Q 44.578125 72.90625 50.734375 67.671875 
Q 56.890625 62.453125 56.890625 51.90625 
Q 56.890625 45.015625 53.6875 40.46875 
Q 50.484375 35.9375 44.390625 34.1875 
z
M 19.671875 64.796875 
L 19.671875 38.921875 
L 32.078125 38.921875 
Q 39.203125 38.921875 42.84375 42.21875 
Q 46.484375 45.515625 46.484375 51.90625 
Q 46.484375 58.296875 42.84375 61.546875 
Q 39.203125 64.796875 32.078125 64.796875 
z
" id="DejaVuSans-52"/>
      <path d="M 37.109375 75.984375 
L 37.109375 68.5 
L 28.515625 68.5 
Q 23.6875 68.5 21.796875 66.546875 
Q 19.921875 64.59375 19.921875 59.515625 
L 19.921875 54.6875 
L 34.71875 54.6875 
L 34.71875 47.703125 
L 19.921875 47.703125 
L 19.921875 0 
L 10.890625 0 
L 10.890625 47.703125 
L 2.296875 47.703125 
L 2.296875 54.6875 
L 10.890625 54.6875 
L 10.890625 58.5 
Q 10.890625 67.625 15.140625 71.796875 
Q 19.390625 75.984375 28.609375 75.984375 
z
" id="DejaVuSans-66"/>
      <path d="M 8.5 21.578125 
L 8.5 54.6875 
L 17.484375 54.6875 
L 17.484375 21.921875 
Q 17.484375 14.15625 20.5 10.265625 
Q 23.53125 6.390625 29.59375 6.390625 
Q 36.859375 6.390625 41.078125 11.03125 
Q 45.3125 15.671875 45.3125 23.6875 
L 45.3125 54.6875 
L 54.296875 54.6875 
L 54.296875 0 
L 45.3125 0 
L 45.3125 8.40625 
Q 42.046875 3.421875 37.71875 1 
Q 33.40625 -1.421875 27.6875 -1.421875 
Q 18.265625 -1.421875 13.375 4.4375 
Q 8.5 10.296875 8.5 21.578125 
z
M 31.109375 56 
z
" id="DejaVuSans-75"/>
      <path d="M 45.40625 27.984375 
Q 45.40625 37.75 41.375 43.109375 
Q 37.359375 48.484375 30.078125 48.484375 
Q 22.859375 48.484375 18.828125 43.109375 
Q 14.796875 37.75 14.796875 27.984375 
Q 14.796875 18.265625 18.828125 12.890625 
Q 22.859375 7.515625 30.078125 7.515625 
Q 37.359375 7.515625 41.375 12.890625 
Q 45.40625 18.265625 45.40625 27.984375 
z
M 54.390625 6.78125 
Q 54.390625 -7.171875 48.1875 -13.984375 
Q 42 -20.796875 29.203125 -20.796875 
Q 24.46875 -20.796875 20.265625 -20.09375 
Q 16.0625 -19.390625 12.109375 -17.921875 
L 12.109375 -9.1875 
Q 16.0625 -11.328125 19.921875 -12.34375 
Q 23.78125 -13.375 27.78125 -13.375 
Q 36.625 -13.375 41.015625 -8.765625 
Q 45.40625 -4.15625 45.40625 5.171875 
L 45.40625 9.625 
Q 42.625 4.78125 38.28125 2.390625 
Q 33.9375 0 27.875 0 
Q 17.828125 0 11.671875 7.65625 
Q 5.515625 15.328125 5.515625 27.984375 
Q 5.515625 40.671875 11.671875 48.328125 
Q 17.828125 56 27.875 56 
Q 33.9375 56 38.28125 53.609375 
Q 42.625 51.21875 45.40625 46.390625 
L 45.40625 54.6875 
L 54.390625 54.6875 
z
" id="DejaVuSans-67"/>
      <path d="M 44.28125 53.078125 
L 44.28125 44.578125 
Q 40.484375 46.53125 36.375 47.5 
Q 32.28125 48.484375 27.875 48.484375 
Q 21.1875 48.484375 17.84375 46.4375 
Q 14.5 44.390625 14.5 40.28125 
Q 14.5 37.15625 16.890625 35.375 
Q 19.28125 33.59375 26.515625 31.984375 
L 29.59375 31.296875 
Q 39.15625 29.25 43.1875 25.515625 
Q 47.21875 21.78125 47.21875 15.09375 
Q 47.21875 7.46875 41.1875 3.015625 
Q 35.15625 -1.421875 24.609375 -1.421875 
Q 20.21875 -1.421875 15.453125 -0.5625 
Q 10.6875 0.296875 5.421875 2 
L 5.421875 11.28125 
Q 10.40625 8.6875 15.234375 7.390625 
Q 20.0625 6.109375 24.8125 6.109375 
Q 31.15625 6.109375 34.5625 8.28125 
Q 37.984375 10.453125 37.984375 14.40625 
Q 37.984375 18.0625 35.515625 20.015625 
Q 33.0625 21.96875 24.703125 23.78125 
L 21.578125 24.515625 
Q 13.234375 26.265625 9.515625 29.90625 
Q 5.8125 33.546875 5.8125 39.890625 
Q 5.8125 47.609375 11.28125 51.796875 
Q 16.75 56 26.8125 56 
Q 31.78125 56 36.171875 55.265625 
Q 40.578125 54.546875 44.28125 53.078125 
z
" id="DejaVuSans-73"/>
     </defs>
     <g style="fill:#ff7f0e;" transform="translate(14.798437 283.588594)rotate(-90)scale(0.1 -0.1)">
      <use xlink:href="#DejaVuSans-52"/>
      <use x="69.419922" xlink:href="#DejaVuSans-65"/>
      <use x="130.943359" xlink:href="#DejaVuSans-66"/>
      <use x="166.148438" xlink:href="#DejaVuSans-75"/>
      <use x="229.527344" xlink:href="#DejaVuSans-67"/>
      <use x="293.003906" xlink:href="#DejaVuSans-65"/>
      <use x="354.527344" xlink:href="#DejaVuSans-65"/>
      <use x="416.050781" xlink:href="#DejaVuSans-73"/>
     </g>
    </g>
   </g>
   <g id="line2d_14">
    <path clip-path="url(#pe12b5e8781)" d="M 104.055398 482.117073 
L 108.909682 481.188903 
L 113.763967 481.538759 
L 118.618251 483.009201 
L 123.472536 483.220458 
L 128.32682 479.998269 
L 133.181105 485.843577 
L 138.035389 484.931591 
L 142.889673 485.257974 
L 147.743958 486.751327 
L 152.598242 486.920922 
L 157.452527 483.766 
L 162.306811 461.737228 
L 167.161096 460.720549 
L 172.01538 461.198785 
L 176.869665 462.543929 
L 181.723949 462.983015 
L 186.578234 459.39295 
L 191.432518 466.462264 
L 196.286803 465.466102 
L 201.141087 465.914569 
L 205.995372 467.28877 
L 210.849656 467.675035 
L 215.703941 464.17026 
L 220.558225 455.582189 
L 225.41251 454.53878 
L 230.266794 455.055789 
L 235.121078 456.363096 
L 239.975363 456.870985 
L 244.829647 453.169816 
L 249.683932 464.900709 
L 254.538216 463.897763 
L 259.392501 464.356072 
L 264.246785 465.720666 
L 269.10107 466.124387 
L 273.955354 462.591426 
L 278.809639 462.324528 
L 283.663923 461.310397 
L 288.518208 461.784935 
L 293.372492 463.133697 
L 298.226777 463.566214 
L 303.081061 459.986749 
L 307.935346 460.707061 
L 312.78963 459.292143 
L 317.643914 459.694881 
L 322.498199 461.232266 
L 327.352483 462.057267 
L 332.206768 458.739857 
L 337.061052 462.112778 
L 341.915337 461.097727 
L 346.769621 461.573597 
L 351.623906 462.921055 
L 356.47819 463.355937 
L 361.332475 459.772651 
L 366.186759 470.722213 
L 371.041044 469.744552 
L 375.895328 470.166191 
L 380.749613 471.566577 
L 385.603897 471.905215 
L 390.458182 468.477338 
L 395.312466 468.944592 
L 400.16675 467.959209 
L 405.021035 468.392046 
L 409.875319 469.781504 
L 414.729604 470.140016 
L 419.583888 466.680048 
L 424.438173 467.686169 
L 429.292457 466.695328 
L 434.146742 467.136087 
L 439.001026 468.517811 
L 443.855311 468.890388 
L 448.709595 465.40771 
L 453.56388 468.478248 
L 458.418164 467.490845 
L 463.272449 467.926613 
L 468.126733 469.313208 
L 472.981018 469.676933 
L 477.835302 466.208546 
L 482.689587 469.077713 
L 487.543871 468.092908 
L 492.398155 468.524907 
L 497.25244 469.915179 
L 502.106724 470.272203 
L 506.961009 466.814647 
L 511.815293 459.106838 
L 516.669578 458.078735 
L 521.523862 458.573539 
L 526.378147 459.902512 
L 531.232431 460.371004 
L 536.086716 456.733455 
L 540.941 467.853761 
L 545.795285 466.863645 
L 550.649569 467.303348 
L 555.503854 468.6861 
L 560.358138 469.056809 
L 565.212423 465.577149 
L 570.066707 467.630963 
L 574.920991 466.639872 
L 579.775276 467.080983 
L 584.62956 468.462367 
L 589.483845 468.835562 
L 594.338129 465.351889 
L 599.192414 466.288802 
L 604.046698 465.291892 
L 608.900983 465.74145 
L 613.755267 467.114582 
L 618.609552 467.502785 
L 623.463836 463.994877 
L 628.318121 441.783815 
L 633.172405 443.085876 
L 638.02669 445.107041 
L 642.880974 446.432036 
L 647.735259 446.111587 
L 652.589543 441.437745 
L 657.443827 457.355582 
L 662.298112 456.319867 
L 667.152396 456.825714 
L 672.006681 458.143915 
L 676.860965 458.63199 
L 681.71525 454.962825 
L 686.569534 452.815695 
L 691.423819 452.655543 
L 696.278103 453.717466 
L 701.132388 455.045927 
L 705.986672 455.219027 
L 710.840957 451.198596 
L 715.695241 454.995002 
L 720.549526 453.949037 
L 725.40381 454.469741 
L 730.258095 455.773438 
L 735.112379 456.287896 
L 739.966663 452.576122 
L 744.820948 435.02221 
L 749.675232 436.708063 
L 754.529517 437.972321 
L 759.383801 437.54205 
L 764.238086 435.525376 
L 769.09237 429.866122 
L 773.946655 436.247201 
L 778.800939 435.939409 
L 783.655224 436.59199 
L 788.509508 436.855567 
L 793.363793 435.39423 
L 798.218077 430.368443 
L 803.072362 376.088663 
L 807.926646 373.727019 
L 812.780931 373.789172 
L 817.635215 372.539362 
L 822.4895 372.086291 
L 827.343784 368.003803 
L 832.198068 360.520303 
L 837.052353 357.444967 
L 841.906637 364.777466 
L 846.760922 371.740822 
L 851.615206 370.23666 
L 856.469491 369.701853 
L 861.323775 336.739359 
L 866.17806 334.659262 
L 871.032344 338.893851 
L 875.886629 341.230429 
L 880.740913 342.763746 
L 885.595198 341.646192 
L 890.449482 328.200148 
L 895.303767 316.368498 
L 900.158051 302.237166 
L 905.012336 285.253904 
L 909.86662 275.378445 
L 914.720904 266.343775 
L 919.575189 227.624317 
L 924.429473 195.172996 
L 929.283758 183.442605 
L 934.138042 180.195755 
L 938.992327 192.970694 
L 943.846611 203.73051 
L 948.700896 305.779616 
L 953.55518 302.693958 
L 958.409465 318.260137 
L 963.263749 336.514194 
L 968.118034 346.105865 
L 972.972318 351.802797 
L 977.826603 303.235686 
L 982.680887 304.843268 
L 987.535172 307.616024 
L 992.389456 304.793098 
L 997.24374 302.460771 
L 1002.098025 296.841705 
L 1006.952309 361.135007 
L 1011.806594 358.732855 
L 1016.660878 359.679445 
L 1021.515163 359.141637 
L 1026.369447 359.30551 
L 1031.223732 356.05861 
L 1036.078016 340.105583 
L 1040.932301 331.858171 
L 1045.786585 336.048701 
L 1050.64087 340.613405 
L 1055.495154 340.305143 
L 1060.349439 341.928939 
L 1065.203723 327.457559 
L 1070.058008 328.722453 
L 1074.912292 330.775964 
L 1079.766577 330.041717 
L 1084.620861 329.447258 
L 1089.475145 321.467419 
L 1094.32943 310.920486 
L 1099.183714 306.495179 
L 1104.037999 316.204585 
L 1108.892283 325.479723 
L 1113.746568 326.745056 
L 1118.600852 328.722033 
L 1118.600852 328.722033 
" style="fill:none;stroke:#008000;stroke-dasharray:5.55,2.4;stroke-dashoffset:0;stroke-width:1.5;"/>
   </g>
   <g id="line2d_15">
    <path clip-path="url(#pe12b5e8781)" d="M 104.055398 484.358035 
L 108.909682 485.669017 
L 113.763967 483.702543 
L 118.618251 486.98 
L 123.472536 478.130867 
L 128.32682 483.702543 
L 133.181105 472.231445 
L 138.035389 473.870173 
L 142.889673 466.987514 
L 147.743958 470.592717 
L 152.598242 472.886936 
L 157.452527 467.970751 
L 162.306811 463.710058 
L 167.161096 452.23896 
L 172.01538 454.205434 
L 176.869665 464.365549 
L 181.723949 459.121618 
L 186.578234 472.559191 
L 191.432518 466.332023 
L 196.286803 468.626243 
L 201.141087 478.130867 
L 205.995372 471.248208 
L 210.849656 471.248208 
L 215.703941 450.600231 
L 220.558225 462.726821 
L 225.41251 456.499653 
L 230.266794 458.793873 
L 235.121078 464.693295 
L 239.975363 461.743584 
L 244.829647 464.037803 
L 249.683932 451.255723 
L 254.538216 466.332023 
L 259.392501 467.970751 
L 264.246785 462.071329 
L 269.10107 466.659769 
L 273.955354 461.088092 
L 278.809639 463.710058 
L 283.663923 462.399075 
L 288.518208 472.559191 
L 293.372492 464.037803 
L 298.226777 465.02104 
L 303.081061 470.264971 
L 307.935346 455.188671 
L 312.78963 460.760347 
L 317.643914 452.566705 
L 322.498199 447.65052 
L 327.352483 467.31526 
L 332.206768 472.559191 
L 337.061052 462.071329 
L 341.915337 466.987514 
L 346.769621 461.415838 
L 351.623906 465.348786 
L 361.332475 472.559191 
L 366.186759 466.332023 
L 371.041044 472.559191 
L 375.895328 473.542428 
L 380.749613 469.281734 
L 385.603897 481.408324 
L 390.458182 469.60948 
L 395.312466 472.886936 
L 400.16675 469.281734 
L 405.021035 456.499653 
L 409.875319 464.365549 
L 414.729604 455.844162 
L 419.583888 470.920462 
L 424.438173 473.542428 
L 429.292457 469.60948 
L 439.001026 469.60948 
L 443.855311 478.786358 
L 448.709595 468.953988 
L 453.56388 471.903699 
L 458.418164 472.559191 
L 463.272449 449.94474 
L 468.126733 466.004277 
L 472.981018 460.432601 
L 477.835302 470.264971 
L 482.689587 474.197919 
L 487.543871 475.508902 
L 492.398155 466.332023 
L 497.25244 475.508902 
L 502.106724 465.348786 
L 506.961009 452.894451 
L 511.815293 430.935491 
L 516.669578 403.404855 
L 521.523862 456.499653 
L 526.378147 465.02104 
L 531.232431 469.281734 
L 536.086716 477.475376 
L 540.941 466.004277 
L 550.649569 473.870173 
L 555.503854 468.298497 
L 560.358138 470.920462 
L 565.212423 471.575954 
L 570.066707 460.432601 
L 574.920991 464.365549 
L 579.775276 462.071329 
L 584.62956 460.104855 
L 589.483845 463.382312 
L 594.338129 462.399075 
L 599.192414 450.927977 
L 604.046698 462.399075 
L 608.900983 466.004277 
L 613.755267 460.760347 
L 618.609552 455.188671 
L 623.463836 452.23896 
L 628.318121 458.138382 
L 633.172405 457.48289 
L 638.02669 458.138382 
L 642.880974 456.171908 
L 647.735259 460.104855 
L 652.589543 455.844162 
L 657.443827 454.533179 
L 662.298112 453.549942 
L 667.152396 460.760347 
L 672.006681 464.365549 
L 676.860965 461.415838 
L 681.71525 456.827399 
L 686.569534 456.827399 
L 691.423819 461.088092 
L 696.278103 443.062081 
L 701.132388 439.784624 
L 705.986672 454.205434 
L 710.840957 457.155145 
L 715.695241 453.549942 
L 720.549526 450.927977 
L 725.40381 432.246474 
L 730.258095 445.028555 
L 735.112379 440.767861 
L 739.966663 442.078844 
L 744.820948 442.078844 
L 749.675232 443.062081 
L 754.529517 440.440116 
L 759.383801 435.523931 
L 764.238086 435.851676 
L 769.09237 424.708324 
L 773.946655 427.98578 
L 778.800939 410.943006 
L 783.655224 399.471908 
L 788.509508 426.019306 
L 793.363793 406.026821 
L 798.218077 392.916994 
L 803.072362 400.455145 
L 807.926646 382.429133 
L 812.780931 368.991561 
L 817.635215 382.429133 
L 822.4895 344.08289 
L 827.343784 352.276532 
L 832.198068 330.973064 
L 837.052353 326.384624 
L 841.906637 334.906012 
L 846.760922 367.680578 
L 851.615206 358.503699 
L 856.469491 351.62104 
L 861.323775 348.999075 
L 866.17806 352.932023 
L 871.032344 370.630289 
L 875.886629 326.384624 
L 880.740913 339.822197 
L 885.595198 314.913526 
L 890.449482 306.392139 
L 895.303767 296.559769 
L 900.158051 308.030867 
L 905.012336 317.863237 
L 909.86662 258.869017 
L 914.720904 280.500231 
L 919.575189 211.01815 
L 924.429473 129.081734 
L 929.283758 145.141272 
L 934.138042 33.38 
L 938.992327 207.740694 
L 943.846611 299.837225 
L 948.700896 283.777688 
L 953.55518 299.50948 
L 958.409465 322.779422 
L 963.263749 351.293295 
L 968.118034 341.788671 
L 972.972318 314.58578 
L 977.826603 309.669595 
L 982.680887 333.922775 
L 987.535172 324.090405 
L 992.389456 301.148208 
L 997.24374 336.54474 
L 1002.098025 356.864971 
L 1006.952309 333.595029 
L 1011.806594 369.319306 
L 1016.660878 349.326821 
L 1021.515163 374.235491 
L 1026.369447 371.28578 
L 1031.223732 341.788671 
L 1036.078016 336.54474 
L 1040.932301 359.814682 
L 1045.786585 333.267283 
L 1050.64087 299.181734 
L 1055.495154 231.993873 
L 1060.349439 337.527977 
L 1065.203723 356.20948 
L 1070.058008 309.997341 
L 1074.912292 319.829711 
L 1079.766577 345.066127 
L 1084.620861 339.494451 
L 1089.475145 301.148208 
L 1094.32943 299.50948 
L 1099.183714 238.22104 
L 1104.037999 267.71815 
L 1108.892283 316.552254 
L 1113.746568 341.460925 
L 1118.600852 341.788671 
L 1118.600852 341.788671 
" style="fill:none;stroke:#ff7f0e;stroke-linecap:square;stroke-width:1.5;"/>
   </g>
   <g id="line2d_16">
    <defs>
     <path d="M 0 3 
C 0.795609 3 1.55874 2.683901 2.12132 2.12132 
C 2.683901 1.55874 3 0.795609 3 0 
C 3 -0.795609 2.683901 -1.55874 2.12132 -2.12132 
C 1.55874 -2.683901 0.795609 -3 0 -3 
C -0.795609 -3 -1.55874 -2.683901 -2.12132 -2.12132 
C -2.683901 -1.55874 -3 -0.795609 -3 0 
C -3 0.795609 -2.683901 1.55874 -2.12132 2.12132 
C -1.55874 2.683901 -0.795609 3 0 3 
z
" id="m626bf17275" style="stroke:#008000;"/>
    </defs>
    <g clip-path="url(#pe12b5e8781)">
     <use style="fill:#008000;stroke:#008000;" x="104.055398" xlink:href="#m626bf17275" y="482.117073"/>
     <use style="fill:#008000;stroke:#008000;" x="133.181105" xlink:href="#m626bf17275" y="485.843577"/>
     <use style="fill:#008000;stroke:#008000;" x="162.306811" xlink:href="#m626bf17275" y="461.737228"/>
     <use style="fill:#008000;stroke:#008000;" x="191.432518" xlink:href="#m626bf17275" y="466.462264"/>
     <use style="fill:#008000;stroke:#008000;" x="220.558225" xlink:href="#m626bf17275" y="455.582189"/>
     <use style="fill:#008000;stroke:#008000;" x="249.683932" xlink:href="#m626bf17275" y="464.900709"/>
     <use style="fill:#008000;stroke:#008000;" x="278.809639" xlink:href="#m626bf17275" y="462.324528"/>
     <use style="fill:#008000;stroke:#008000;" x="307.935346" xlink:href="#m626bf17275" y="460.707061"/>
     <use style="fill:#008000;stroke:#008000;" x="337.061052" xlink:href="#m626bf17275" y="462.112778"/>
     <use style="fill:#008000;stroke:#008000;" x="366.186759" xlink:href="#m626bf17275" y="470.722213"/>
     <use style="fill:#008000;stroke:#008000;" x="395.312466" xlink:href="#m626bf17275" y="468.944592"/>
     <use style="fill:#008000;stroke:#008000;" x="424.438173" xlink:href="#m626bf17275" y="467.686169"/>
     <use style="fill:#008000;stroke:#008000;" x="453.56388" xlink:href="#m626bf17275" y="468.478248"/>
     <use style="fill:#008000;stroke:#008000;" x="482.689587" xlink:href="#m626bf17275" y="469.077713"/>
     <use style="fill:#008000;stroke:#008000;" x="511.815293" xlink:href="#m626bf17275" y="459.106838"/>
     <use style="fill:#008000;stroke:#008000;" x="540.941" xlink:href="#m626bf17275" y="467.853761"/>
     <use style="fill:#008000;stroke:#008000;" x="570.066707" xlink:href="#m626bf17275" y="467.630963"/>
     <use style="fill:#008000;stroke:#008000;" x="599.192414" xlink:href="#m626bf17275" y="466.288802"/>
     <use style="fill:#008000;stroke:#008000;" x="628.318121" xlink:href="#m626bf17275" y="441.783815"/>
     <use style="fill:#008000;stroke:#008000;" x="657.443827" xlink:href="#m626bf17275" y="457.355582"/>
     <use style="fill:#008000;stroke:#008000;" x="686.569534" xlink:href="#m626bf17275" y="452.815695"/>
     <use style="fill:#008000;stroke:#008000;" x="715.695241" xlink:href="#m626bf17275" y="454.995002"/>
     <use style="fill:#008000;stroke:#008000;" x="744.820948" xlink:href="#m626bf17275" y="435.02221"/>
     <use style="fill:#008000;stroke:#008000;" x="773.946655" xlink:href="#m626bf17275" y="436.247201"/>
     <use style="fill:#008000;stroke:#008000;" x="803.072362" xlink:href="#m626bf17275" y="376.088663"/>
     <use style="fill:#008000;stroke:#008000;" x="832.198068" xlink:href="#m626bf17275" y="360.520303"/>
     <use style="fill:#008000;stroke:#008000;" x="861.323775" xlink:href="#m626bf17275" y="336.739359"/>
     <use style="fill:#008000;stroke:#008000;" x="890.449482" xlink:href="#m626bf17275" y="328.200148"/>
     <use style="fill:#008000;stroke:#008000;" x="919.575189" xlink:href="#m626bf17275" y="227.624317"/>
     <use style="fill:#008000;stroke:#008000;" x="948.700896" xlink:href="#m626bf17275" y="305.779616"/>
     <use style="fill:#008000;stroke:#008000;" x="977.826603" xlink:href="#m626bf17275" y="303.235686"/>
     <use style="fill:#008000;stroke:#008000;" x="1006.952309" xlink:href="#m626bf17275" y="361.135007"/>
     <use style="fill:#008000;stroke:#008000;" x="1036.078016" xlink:href="#m626bf17275" y="340.105583"/>
     <use style="fill:#008000;stroke:#008000;" x="1065.203723" xlink:href="#m626bf17275" y="327.457559"/>
     <use style="fill:#008000;stroke:#008000;" x="1094.32943" xlink:href="#m626bf17275" y="310.920486"/>
    </g>
   </g>
   <g id="patch_3">
    <path d="M 53.328125 509.66 
L 53.328125 10.7 
" style="fill:none;stroke:#000000;stroke-linecap:square;stroke-linejoin:miter;stroke-width:0.8;"/>
   </g>
   <g id="patch_4">
    <path d="M 1169.328125 509.66 
L 1169.328125 10.7 
" style="fill:none;stroke:#000000;stroke-linecap:square;stroke-linejoin:miter;stroke-width:0.8;"/>
   </g>
   <g id="patch_5">
    <path d="M 53.328125 509.66 
L 1169.328125 509.66 
" style="fill:none;stroke:#000000;stroke-linecap:square;stroke-linejoin:miter;stroke-width:0.8;"/>
   </g>
   <g id="patch_6">
    <path d="M 53.328125 10.7 
L 1169.328125 10.7 
" style="fill:none;stroke:#000000;stroke-linecap:square;stroke-linejoin:miter;stroke-width:0.8;"/>
   </g>
   <g id="legend_1">
    <g id="patch_7">
     <path d="M 60.328125 62.734375 
L 208.103125 62.734375 
Q 210.103125 62.734375 210.103125 60.734375 
L 210.103125 17.7 
Q 210.103125 15.7 208.103125 15.7 
L 60.328125 15.7 
Q 58.328125 15.7 58.328125 17.7 
L 58.328125 60.734375 
Q 58.328125 62.734375 60.328125 62.734375 
z
" style="fill:#ffffff;opacity:0.8;stroke:#cccccc;stroke-linejoin:miter;"/>
    </g>
    <g id="line2d_17">
     <path d="M 62.328125 23.798437 
L 82.328125 23.798437 
" style="fill:none;stroke:#008000;stroke-dasharray:5.55,2.4;stroke-dashoffset:0;stroke-width:1.5;"/>
    </g>
    <g id="line2d_18"/>
    <g id="text_16">
     <!-- Predicated -->
     <defs>
      <path d="M 19.671875 64.796875 
L 19.671875 37.40625 
L 32.078125 37.40625 
Q 38.96875 37.40625 42.71875 40.96875 
Q 46.484375 44.53125 46.484375 51.125 
Q 46.484375 57.671875 42.71875 61.234375 
Q 38.96875 64.796875 32.078125 64.796875 
z
M 9.8125 72.90625 
L 32.078125 72.90625 
Q 44.34375 72.90625 50.609375 67.359375 
Q 56.890625 61.8125 56.890625 51.125 
Q 56.890625 40.328125 50.609375 34.8125 
Q 44.34375 29.296875 32.078125 29.296875 
L 19.671875 29.296875 
L 19.671875 0 
L 9.8125 0 
z
" id="DejaVuSans-50"/>
      <path d="M 41.109375 46.296875 
Q 39.59375 47.171875 37.8125 47.578125 
Q 36.03125 48 33.890625 48 
Q 26.265625 48 22.1875 43.046875 
Q 18.109375 38.09375 18.109375 28.8125 
L 18.109375 0 
L 9.078125 0 
L 9.078125 54.6875 
L 18.109375 54.6875 
L 18.109375 46.1875 
Q 20.953125 51.171875 25.484375 53.578125 
Q 30.03125 56 36.53125 56 
Q 37.453125 56 38.578125 55.875 
Q 39.703125 55.765625 41.0625 55.515625 
z
" id="DejaVuSans-72"/>
      <path d="M 45.40625 46.390625 
L 45.40625 75.984375 
L 54.390625 75.984375 
L 54.390625 0 
L 45.40625 0 
L 45.40625 8.203125 
Q 42.578125 3.328125 38.25 0.953125 
Q 33.9375 -1.421875 27.875 -1.421875 
Q 17.96875 -1.421875 11.734375 6.484375 
Q 5.515625 14.40625 5.515625 27.296875 
Q 5.515625 40.1875 11.734375 48.09375 
Q 17.96875 56 27.875 56 
Q 33.9375 56 38.25 53.625 
Q 42.578125 51.265625 45.40625 46.390625 
z
M 14.796875 27.296875 
Q 14.796875 17.390625 18.875 11.75 
Q 22.953125 6.109375 30.078125 6.109375 
Q 37.203125 6.109375 41.296875 11.75 
Q 45.40625 17.390625 45.40625 27.296875 
Q 45.40625 37.203125 41.296875 42.84375 
Q 37.203125 48.484375 30.078125 48.484375 
Q 22.953125 48.484375 18.875 42.84375 
Q 14.796875 37.203125 14.796875 27.296875 
z
" id="DejaVuSans-64"/>
      <path d="M 48.78125 52.59375 
L 48.78125 44.1875 
Q 44.96875 46.296875 41.140625 47.34375 
Q 37.3125 48.390625 33.40625 48.390625 
Q 24.65625 48.390625 19.8125 42.84375 
Q 14.984375 37.3125 14.984375 27.296875 
Q 14.984375 17.28125 19.8125 11.734375 
Q 24.65625 6.203125 33.40625 6.203125 
Q 37.3125 6.203125 41.140625 7.25 
Q 44.96875 8.296875 48.78125 10.40625 
L 48.78125 2.09375 
Q 45.015625 0.34375 40.984375 -0.53125 
Q 36.96875 -1.421875 32.421875 -1.421875 
Q 20.0625 -1.421875 12.78125 6.34375 
Q 5.515625 14.109375 5.515625 27.296875 
Q 5.515625 40.671875 12.859375 48.328125 
Q 20.21875 56 33.015625 56 
Q 37.15625 56 41.109375 55.140625 
Q 45.0625 54.296875 48.78125 52.59375 
z
" id="DejaVuSans-63"/>
      <path d="M 34.28125 27.484375 
Q 23.390625 27.484375 19.1875 25 
Q 14.984375 22.515625 14.984375 16.5 
Q 14.984375 11.71875 18.140625 8.90625 
Q 21.296875 6.109375 26.703125 6.109375 
Q 34.1875 6.109375 38.703125 11.40625 
Q 43.21875 16.703125 43.21875 25.484375 
L 43.21875 27.484375 
z
M 52.203125 31.203125 
L 52.203125 0 
L 43.21875 0 
L 43.21875 8.296875 
Q 40.140625 3.328125 35.546875 0.953125 
Q 30.953125 -1.421875 24.3125 -1.421875 
Q 15.921875 -1.421875 10.953125 3.296875 
Q 6 8.015625 6 15.921875 
Q 6 25.140625 12.171875 29.828125 
Q 18.359375 34.515625 30.609375 34.515625 
L 43.21875 34.515625 
L 43.21875 35.40625 
Q 43.21875 41.609375 39.140625 45 
Q 35.0625 48.390625 27.6875 48.390625 
Q 23 48.390625 18.546875 47.265625 
Q 14.109375 46.140625 10.015625 43.890625 
L 10.015625 52.203125 
Q 14.9375 54.109375 19.578125 55.046875 
Q 24.21875 56 28.609375 56 
Q 40.484375 56 46.34375 49.84375 
Q 52.203125 43.703125 52.203125 31.203125 
z
" id="DejaVuSans-61"/>
      <path d="M 18.3125 70.21875 
L 18.3125 54.6875 
L 36.8125 54.6875 
L 36.8125 47.703125 
L 18.3125 47.703125 
L 18.3125 18.015625 
Q 18.3125 11.328125 20.140625 9.421875 
Q 21.96875 7.515625 27.59375 7.515625 
L 36.8125 7.515625 
L 36.8125 0 
L 27.59375 0 
Q 17.1875 0 13.234375 3.875 
Q 9.28125 7.765625 9.28125 18.015625 
L 9.28125 47.703125 
L 2.6875 47.703125 
L 2.6875 54.6875 
L 9.28125 54.6875 
L 9.28125 70.21875 
z
" id="DejaVuSans-74"/>
     </defs>
     <g transform="translate(90.328125 27.298437)scale(0.1 -0.1)">
      <use xlink:href="#DejaVuSans-50"/>
      <use x="60.287109" xlink:href="#DejaVuSans-72"/>
      <use x="101.369141" xlink:href="#DejaVuSans-65"/>
      <use x="162.892578" xlink:href="#DejaVuSans-64"/>
      <use x="226.369141" xlink:href="#DejaVuSans-69"/>
      <use x="254.152344" xlink:href="#DejaVuSans-63"/>
      <use x="309.132812" xlink:href="#DejaVuSans-61"/>
      <use x="370.412109" xlink:href="#DejaVuSans-74"/>
      <use x="409.621094" xlink:href="#DejaVuSans-65"/>
      <use x="471.144531" xlink:href="#DejaVuSans-64"/>
     </g>
    </g>
    <g id="line2d_19">
     <path d="M 62.328125 38.476562 
L 82.328125 38.476562 
" style="fill:none;stroke:#ff7f0e;stroke-linecap:square;stroke-width:1.5;"/>
    </g>
    <g id="line2d_20"/>
    <g id="text_17">
     <!-- Real Data -->
     <defs>
      <path d="M 9.421875 75.984375 
L 18.40625 75.984375 
L 18.40625 0 
L 9.421875 0 
z
" id="DejaVuSans-6c"/>
      <path id="DejaVuSans-20"/>
      <path d="M 19.671875 64.796875 
L 19.671875 8.109375 
L 31.59375 8.109375 
Q 46.6875 8.109375 53.6875 14.9375 
Q 60.6875 21.78125 60.6875 36.53125 
Q 60.6875 51.171875 53.6875 57.984375 
Q 46.6875 64.796875 31.59375 64.796875 
z
M 9.8125 72.90625 
L 30.078125 72.90625 
Q 51.265625 72.90625 61.171875 64.09375 
Q 71.09375 55.28125 71.09375 36.53125 
Q 71.09375 17.671875 61.125 8.828125 
Q 51.171875 0 30.078125 0 
L 9.8125 0 
z
" id="DejaVuSans-44"/>
     </defs>
     <g transform="translate(90.328125 41.976562)scale(0.1 -0.1)">
      <use xlink:href="#DejaVuSans-52"/>
      <use x="69.419922" xlink:href="#DejaVuSans-65"/>
      <use x="130.943359" xlink:href="#DejaVuSans-61"/>
      <use x="192.222656" xlink:href="#DejaVuSans-6c"/>
      <use x="220.005859" xlink:href="#DejaVuSans-20"/>
      <use x="251.792969" xlink:href="#DejaVuSans-44"/>
      <use x="328.794922" xlink:href="#DejaVuSans-61"/>
      <use x="390.074219" xlink:href="#DejaVuSans-74"/>
      <use x="429.283203" xlink:href="#DejaVuSans-61"/>
     </g>
    </g>
    <g id="line2d_21"/>
    <g id="line2d_22">
     <g>
      <use style="fill:#008000;stroke:#008000;" x="72.328125" xlink:href="#m626bf17275" y="53.154688"/>
     </g>
    </g>
    <g id="text_18">
     <!-- Start Point for Forecast -->
     <defs>
      <path d="M 53.515625 70.515625 
L 53.515625 60.890625 
Q 47.90625 63.578125 42.921875 64.890625 
Q 37.9375 66.21875 33.296875 66.21875 
Q 25.25 66.21875 20.875 63.09375 
Q 16.5 59.96875 16.5 54.203125 
Q 16.5 49.359375 19.40625 46.890625 
Q 22.3125 44.4375 30.421875 42.921875 
L 36.375 41.703125 
Q 47.40625 39.59375 52.65625 34.296875 
Q 57.90625 29 57.90625 20.125 
Q 57.90625 9.515625 50.796875 4.046875 
Q 43.703125 -1.421875 29.984375 -1.421875 
Q 24.8125 -1.421875 18.96875 -0.25 
Q 13.140625 0.921875 6.890625 3.21875 
L 6.890625 13.375 
Q 12.890625 10.015625 18.65625 8.296875 
Q 24.421875 6.59375 29.984375 6.59375 
Q 38.421875 6.59375 43.015625 9.90625 
Q 47.609375 13.234375 47.609375 19.390625 
Q 47.609375 24.75 44.3125 27.78125 
Q 41.015625 30.8125 33.5 32.328125 
L 27.484375 33.5 
Q 16.453125 35.6875 11.515625 40.375 
Q 6.59375 45.0625 6.59375 53.421875 
Q 6.59375 63.09375 13.40625 68.65625 
Q 20.21875 74.21875 32.171875 74.21875 
Q 37.3125 74.21875 42.625 73.28125 
Q 47.953125 72.359375 53.515625 70.515625 
z
" id="DejaVuSans-53"/>
      <path d="M 30.609375 48.390625 
Q 23.390625 48.390625 19.1875 42.75 
Q 14.984375 37.109375 14.984375 27.296875 
Q 14.984375 17.484375 19.15625 11.84375 
Q 23.34375 6.203125 30.609375 6.203125 
Q 37.796875 6.203125 41.984375 11.859375 
Q 46.1875 17.53125 46.1875 27.296875 
Q 46.1875 37.015625 41.984375 42.703125 
Q 37.796875 48.390625 30.609375 48.390625 
z
M 30.609375 56 
Q 42.328125 56 49.015625 48.375 
Q 55.71875 40.765625 55.71875 27.296875 
Q 55.71875 13.875 49.015625 6.21875 
Q 42.328125 -1.421875 30.609375 -1.421875 
Q 18.84375 -1.421875 12.171875 6.21875 
Q 5.515625 13.875 5.515625 27.296875 
Q 5.515625 40.765625 12.171875 48.375 
Q 18.84375 56 30.609375 56 
z
" id="DejaVuSans-6f"/>
      <path d="M 54.890625 33.015625 
L 54.890625 0 
L 45.90625 0 
L 45.90625 32.71875 
Q 45.90625 40.484375 42.875 44.328125 
Q 39.84375 48.1875 33.796875 48.1875 
Q 26.515625 48.1875 22.3125 43.546875 
Q 18.109375 38.921875 18.109375 30.90625 
L 18.109375 0 
L 9.078125 0 
L 9.078125 54.6875 
L 18.109375 54.6875 
L 18.109375 46.1875 
Q 21.34375 51.125 25.703125 53.5625 
Q 30.078125 56 35.796875 56 
Q 45.21875 56 50.046875 50.171875 
Q 54.890625 44.34375 54.890625 33.015625 
z
" id="DejaVuSans-6e"/>
      <path d="M 9.8125 72.90625 
L 51.703125 72.90625 
L 51.703125 64.59375 
L 19.671875 64.59375 
L 19.671875 43.109375 
L 48.578125 43.109375 
L 48.578125 34.8125 
L 19.671875 34.8125 
L 19.671875 0 
L 9.8125 0 
z
" id="DejaVuSans-46"/>
     </defs>
     <g transform="translate(90.328125 56.654688)scale(0.1 -0.1)">
      <use xlink:href="#DejaVuSans-53"/>
      <use x="63.476562" xlink:href="#DejaVuSans-74"/>
      <use x="102.685547" xlink:href="#DejaVuSans-61"/>
      <use x="163.964844" xlink:href="#DejaVuSans-72"/>
      <use x="205.078125" xlink:href="#DejaVuSans-74"/>
      <use x="244.287109" xlink:href="#DejaVuSans-20"/>
      <use x="276.074219" xlink:href="#DejaVuSans-50"/>
      <use x="336.330078" xlink:href="#DejaVuSans-6f"/>
      <use x="397.511719" xlink:href="#DejaVuSans-69"/>
      <use x="425.294922" xlink:href="#DejaVuSans-6e"/>
      <use x="488.673828" xlink:href="#DejaVuSans-74"/>
      <use x="527.882812" xlink:href="#DejaVuSans-20"/>
      <use x="559.669922" xlink:href="#DejaVuSans-66"/>
      <use x="594.875" xlink:href="#DejaVuSans-6f"/>
      <use x="656.056641" xlink:href="#DejaVuSans-72"/>
      <use x="697.169922" xlink:href="#DejaVuSans-20"/>
      <use x="728.957031" xlink:href="#DejaVuSans-46"/>
      <use x="786.429688" xlink:href="#DejaVuSans-6f"/>
      <use x="847.611328" xlink:href="#DejaVuSans-72"/>
      <use x="888.693359" xlink:href="#DejaVuSans-65"/>
      <use x="950.216797" xlink:href="#DejaVuSans-63"/>
      <use x="1005.197266" xlink:href="#DejaVuSans-61"/>
      <use x="1066.476562" xlink:href="#DejaVuSans-73"/>
      <use x="1118.576172" xlink:href="#DejaVuSans-74"/>
     </g>
    </g>
   </g>
  </g>
  <g id="axes_2">
   <g id="patch_8">
    <path d="M 53.328125 645.74 
L 1170.768125 645.74 
L 1170.768125 516.14 
L 53.328125 516.14 
z
" style="fill:none;"/>
   </g>
   <g id="matplotlib.axis_3">
    <g id="xtick_6">
     <g id="line2d_23">
      <g>
       <use style="stroke:#000000;stroke-width:0.8;" x="104.120852" xlink:href="#md5c9fd22c4" y="645.74"/>
      </g>
     </g>
     <g id="text_19">
      <!-- 0 -->
      <g transform="translate(100.939602 660.338437)scale(0.1 -0.1)">
       <use xlink:href="#DejaVuSans-30"/>
      </g>
     </g>
    </g>
    <g id="xtick_7">
     <g id="line2d_24">
      <g>
       <use style="stroke:#000000;stroke-width:0.8;" x="228.612831" xlink:href="#md5c9fd22c4" y="645.74"/>
      </g>
     </g>
     <g id="text_20">
      <!-- 25 -->
      <g transform="translate(222.250331 660.338437)scale(0.1 -0.1)">
       <use xlink:href="#DejaVuSans-32"/>
       <use x="63.623047" xlink:href="#DejaVuSans-35"/>
      </g>
     </g>
    </g>
    <g id="xtick_8">
     <g id="line2d_25">
      <g>
       <use style="stroke:#000000;stroke-width:0.8;" x="353.104809" xlink:href="#md5c9fd22c4" y="645.74"/>
      </g>
     </g>
     <g id="text_21">
      <!-- 50 -->
      <g transform="translate(346.742309 660.338437)scale(0.1 -0.1)">
       <use xlink:href="#DejaVuSans-35"/>
       <use x="63.623047" xlink:href="#DejaVuSans-30"/>
      </g>
     </g>
    </g>
    <g id="xtick_9">
     <g id="line2d_26">
      <g>
       <use style="stroke:#000000;stroke-width:0.8;" x="477.596788" xlink:href="#md5c9fd22c4" y="645.74"/>
      </g>
     </g>
     <g id="text_22">
      <!-- 75 -->
      <defs>
       <path d="M 8.203125 72.90625 
L 55.078125 72.90625 
L 55.078125 68.703125 
L 28.609375 0 
L 18.3125 0 
L 43.21875 64.59375 
L 8.203125 64.59375 
z
" id="DejaVuSans-37"/>
      </defs>
      <g transform="translate(471.234288 660.338437)scale(0.1 -0.1)">
       <use xlink:href="#DejaVuSans-37"/>
       <use x="63.623047" xlink:href="#DejaVuSans-35"/>
      </g>
     </g>
    </g>
    <g id="xtick_10">
     <g id="line2d_27">
      <g>
       <use style="stroke:#000000;stroke-width:0.8;" x="602.088767" xlink:href="#md5c9fd22c4" y="645.74"/>
      </g>
     </g>
     <g id="text_23">
      <!-- 100 -->
      <g transform="translate(592.545017 660.338437)scale(0.1 -0.1)">
       <use xlink:href="#DejaVuSans-31"/>
       <use x="63.623047" xlink:href="#DejaVuSans-30"/>
       <use x="127.246094" xlink:href="#DejaVuSans-30"/>
      </g>
     </g>
    </g>
    <g id="xtick_11">
     <g id="line2d_28">
      <g>
       <use style="stroke:#000000;stroke-width:0.8;" x="726.580745" xlink:href="#md5c9fd22c4" y="645.74"/>
      </g>
     </g>
     <g id="text_24">
      <!-- 125 -->
      <g transform="translate(717.036995 660.338437)scale(0.1 -0.1)">
       <use xlink:href="#DejaVuSans-31"/>
       <use x="63.623047" xlink:href="#DejaVuSans-32"/>
       <use x="127.246094" xlink:href="#DejaVuSans-35"/>
      </g>
     </g>
    </g>
    <g id="xtick_12">
     <g id="line2d_29">
      <g>
       <use style="stroke:#000000;stroke-width:0.8;" x="851.072724" xlink:href="#md5c9fd22c4" y="645.74"/>
      </g>
     </g>
     <g id="text_25">
      <!-- 150 -->
      <g transform="translate(841.528974 660.338437)scale(0.1 -0.1)">
       <use xlink:href="#DejaVuSans-31"/>
       <use x="63.623047" xlink:href="#DejaVuSans-35"/>
       <use x="127.246094" xlink:href="#DejaVuSans-30"/>
      </g>
     </g>
    </g>
    <g id="xtick_13">
     <g id="line2d_30">
      <g>
       <use style="stroke:#000000;stroke-width:0.8;" x="975.564703" xlink:href="#md5c9fd22c4" y="645.74"/>
      </g>
     </g>
     <g id="text_26">
      <!-- 175 -->
      <g transform="translate(966.020953 660.338437)scale(0.1 -0.1)">
       <use xlink:href="#DejaVuSans-31"/>
       <use x="63.623047" xlink:href="#DejaVuSans-37"/>
       <use x="127.246094" xlink:href="#DejaVuSans-35"/>
      </g>
     </g>
    </g>
    <g id="xtick_14">
     <g id="line2d_31">
      <g>
       <use style="stroke:#000000;stroke-width:0.8;" x="1100.056681" xlink:href="#md5c9fd22c4" y="645.74"/>
      </g>
     </g>
     <g id="text_27">
      <!-- 200 -->
      <g transform="translate(1090.512931 660.338437)scale(0.1 -0.1)">
       <use xlink:href="#DejaVuSans-32"/>
       <use x="63.623047" xlink:href="#DejaVuSans-30"/>
       <use x="127.246094" xlink:href="#DejaVuSans-30"/>
      </g>
     </g>
    </g>
   </g>
   <g id="matplotlib.axis_4">
    <g id="ytick_9">
     <g id="line2d_32">
      <g>
       <use style="stroke:#000000;stroke-width:0.8;" x="53.328125" xlink:href="#md7cced387e" y="614.69871"/>
      </g>
     </g>
     <g id="text_28">
      <!-- 10 -->
      <g transform="translate(33.603125 618.497929)scale(0.1 -0.1)">
       <use xlink:href="#DejaVuSans-31"/>
       <use x="63.623047" xlink:href="#DejaVuSans-30"/>
      </g>
     </g>
    </g>
    <g id="ytick_10">
     <g id="line2d_33">
      <g>
       <use style="stroke:#000000;stroke-width:0.8;" x="53.328125" xlink:href="#md7cced387e" y="580.684314"/>
      </g>
     </g>
     <g id="text_29">
      <!-- 20 -->
      <g transform="translate(33.603125 584.483533)scale(0.1 -0.1)">
       <use xlink:href="#DejaVuSans-32"/>
       <use x="63.623047" xlink:href="#DejaVuSans-30"/>
      </g>
     </g>
    </g>
    <g id="ytick_11">
     <g id="line2d_34">
      <g>
       <use style="stroke:#000000;stroke-width:0.8;" x="53.328125" xlink:href="#md7cced387e" y="546.669917"/>
      </g>
     </g>
     <g id="text_30">
      <!-- 30 -->
      <defs>
       <path d="M 40.578125 39.3125 
Q 47.65625 37.796875 51.625 33 
Q 55.609375 28.21875 55.609375 21.1875 
Q 55.609375 10.40625 48.1875 4.484375 
Q 40.765625 -1.421875 27.09375 -1.421875 
Q 22.515625 -1.421875 17.65625 -0.515625 
Q 12.796875 0.390625 7.625 2.203125 
L 7.625 11.71875 
Q 11.71875 9.328125 16.59375 8.109375 
Q 21.484375 6.890625 26.8125 6.890625 
Q 36.078125 6.890625 40.9375 10.546875 
Q 45.796875 14.203125 45.796875 21.1875 
Q 45.796875 27.640625 41.28125 31.265625 
Q 36.765625 34.90625 28.71875 34.90625 
L 20.21875 34.90625 
L 20.21875 43.015625 
L 29.109375 43.015625 
Q 36.375 43.015625 40.234375 45.921875 
Q 44.09375 48.828125 44.09375 54.296875 
Q 44.09375 59.90625 40.109375 62.90625 
Q 36.140625 65.921875 28.71875 65.921875 
Q 24.65625 65.921875 20.015625 65.03125 
Q 15.375 64.15625 9.8125 62.3125 
L 9.8125 71.09375 
Q 15.4375 72.65625 20.34375 73.4375 
Q 25.25 74.21875 29.59375 74.21875 
Q 40.828125 74.21875 47.359375 69.109375 
Q 53.90625 64.015625 53.90625 55.328125 
Q 53.90625 49.265625 50.4375 45.09375 
Q 46.96875 40.921875 40.578125 39.3125 
z
" id="DejaVuSans-33"/>
      </defs>
      <g transform="translate(33.603125 550.469136)scale(0.1 -0.1)">
       <use xlink:href="#DejaVuSans-33"/>
       <use x="63.623047" xlink:href="#DejaVuSans-30"/>
      </g>
     </g>
    </g>
    <g id="text_31">
     <!-- Temperature -->
     <defs>
      <path d="M 18.109375 8.203125 
L 18.109375 -20.796875 
L 9.078125 -20.796875 
L 9.078125 54.6875 
L 18.109375 54.6875 
L 18.109375 46.390625 
Q 20.953125 51.265625 25.265625 53.625 
Q 29.59375 56 35.59375 56 
Q 45.5625 56 51.78125 48.09375 
Q 58.015625 40.1875 58.015625 27.296875 
Q 58.015625 14.40625 51.78125 6.484375 
Q 45.5625 -1.421875 35.59375 -1.421875 
Q 29.59375 -1.421875 25.265625 0.953125 
Q 20.953125 3.328125 18.109375 8.203125 
z
M 48.6875 27.296875 
Q 48.6875 37.203125 44.609375 42.84375 
Q 40.53125 48.484375 33.40625 48.484375 
Q 26.265625 48.484375 22.1875 42.84375 
Q 18.109375 37.203125 18.109375 27.296875 
Q 18.109375 17.390625 22.1875 11.75 
Q 26.265625 6.109375 33.40625 6.109375 
Q 40.53125 6.109375 44.609375 11.75 
Q 48.6875 17.390625 48.6875 27.296875 
z
" id="DejaVuSans-70"/>
     </defs>
     <g style="fill:#0000ff;" transform="translate(27.523437 613.557187)rotate(-90)scale(0.1 -0.1)">
      <use xlink:href="#DejaVuSans-54"/>
      <use x="60.818359" xlink:href="#DejaVuSans-65"/>
      <use x="122.341797" xlink:href="#DejaVuSans-6d"/>
      <use x="219.753906" xlink:href="#DejaVuSans-70"/>
      <use x="283.230469" xlink:href="#DejaVuSans-65"/>
      <use x="344.753906" xlink:href="#DejaVuSans-72"/>
      <use x="385.867188" xlink:href="#DejaVuSans-61"/>
      <use x="447.146484" xlink:href="#DejaVuSans-74"/>
      <use x="486.355469" xlink:href="#DejaVuSans-75"/>
      <use x="549.734375" xlink:href="#DejaVuSans-72"/>
      <use x="590.816406" xlink:href="#DejaVuSans-65"/>
     </g>
    </g>
   </g>
   <g id="line2d_35">
    <path clip-path="url(#p8f06e547f4)" d="M 104.120852 527.166063 
L 109.100531 526.87592 
L 114.080211 532.897828 
L 119.05989 543.945364 
L 124.039569 557.832422 
L 129.019248 572.110305 
L 133.998927 584.357188 
L 138.978606 580.322401 
L 143.958285 572.702155 
L 148.937965 551.206417 
L 153.917644 543.641276 
L 158.897323 535.847217 
L 163.877002 526.94667 
L 168.856681 531.158672 
L 173.83636 535.791773 
L 178.816039 550.193129 
L 183.795719 560.312412 
L 188.775398 574.536892 
L 193.755077 576.521292 
L 198.734756 574.667847 
L 203.714435 555.750061 
L 208.694114 552.108139 
L 213.673793 539.900372 
L 218.653473 534.091394 
L 223.633152 527.722878 
L 228.612831 526.151073 
L 233.59251 532.195431 
L 238.572189 547.711098 
L 243.551868 562.242728 
L 248.531547 576.033185 
L 253.511227 586.804184 
L 258.490906 573.095362 
L 263.470585 562.870294 
L 268.450264 554.421118 
L 273.429943 542.950443 
L 278.409622 535.471358 
L 283.389301 523.736391 
L 288.368981 526.306859 
L 293.34866 529.998781 
L 298.328339 545.441998 
L 303.308018 557.73378 
L 308.287697 574.22566 
L 313.267376 573.259991 
L 318.247055 580.308455 
L 323.226735 573.671566 
L 328.206414 552.915641 
L 333.186093 536.062188 
L 338.165772 530.481786 
L 343.145451 527.969142 
L 348.12513 527.439198 
L 353.104809 534.994816 
L 358.084489 543.165754 
L 363.064168 559.500148 
L 368.043847 576.216523 
L 373.023526 581.131263 
L 378.003205 574.733495 
L 382.982884 563.299556 
L 387.962564 553.820764 
L 392.942243 539.271786 
L 397.921922 533.807373 
L 402.901601 526.298695 
L 407.88128 530.127016 
L 412.860959 535.922729 
L 417.840638 543.641616 
L 422.820318 559.372934 
L 427.799997 576.113459 
L 432.779676 579.96661 
L 437.759355 577.513832 
L 442.739034 566.133975 
L 447.718713 552.644886 
L 452.698392 544.084483 
L 457.678072 534.849915 
L 462.657751 527.239534 
L 467.63743 528.029348 
L 472.617109 533.055315 
L 477.596788 549.27576 
L 482.576467 564.321348 
L 487.556146 572.145 
L 492.535826 581.43093 
L 497.515505 573.015768 
L 502.495184 562.849545 
L 507.474863 552.235353 
L 512.454542 542.464037 
L 517.434221 530.353211 
L 522.4139 529.64129 
L 527.39358 524.833015 
L 532.373259 532.254616 
L 537.352938 545.015797 
L 542.332617 566.12173 
L 547.312296 578.12439 
L 552.291975 581.439093 
L 557.271654 574.39097 
L 562.251334 565.167286 
L 567.231013 553.661236 
L 572.210692 537.188745 
L 577.190371 529.613738 
L 582.17005 525.376225 
L 587.149729 526.856191 
L 592.129408 536.696216 
L 597.109088 542.549754 
L 602.088767 558.447402 
L 607.068446 575.471948 
L 612.048125 585.229998 
L 617.027804 580.059469 
L 622.007483 554.917728 
L 626.987162 548.293425 
L 631.966842 541.001078 
L 636.946521 528.275272 
L 641.9262 527.393619 
L 646.905879 524.757503 
L 651.885558 531.038942 
L 656.865237 548.736632 
L 661.844916 558.362706 
L 666.824596 571.278653 
L 671.804275 575.52501 
L 676.783954 572.032412 
L 681.763633 567.993883 
L 686.743312 550.766611 
L 691.722991 544.426668 
L 696.70267 528.285816 
L 701.68235 526.173182 
L 706.662029 528.690588 
L 711.641708 532.858372 
L 716.621387 540.69733 
L 721.601066 561.93932 
L 726.580745 570.743947 
L 731.560424 569.927941 
L 736.540104 563.142069 
L 741.519783 557.631397 
L 746.499462 548.359753 
L 751.479141 537.675491 
L 756.45882 527.30212 
L 761.438499 527.331372 
L 766.418178 522.030909 
L 771.397858 530.293006 
L 776.377537 536.787715 
L 781.357216 551.799288 
L 786.336895 568.818051 
L 791.316574 578.253305 
L 796.296253 572.628004 
L 801.275932 567.625167 
L 806.255612 554.535066 
L 811.235291 542.06947 
L 816.21497 533.501244 
L 821.194649 524.641854 
L 826.174328 527.837507 
L 831.154007 534.307725 
L 836.133686 546.313787 
L 841.113366 568.514643 
L 846.093045 576.652928 
L 851.072724 585.467418 
L 856.052403 577.526417 
L 861.032082 570.981027 
L 866.011761 547.690009 
L 870.991441 537.330585 
L 875.97112 527.790567 
L 880.950799 524.437428 
L 885.930478 525.533031 
L 890.910157 534.640386 
L 895.889836 541.07625 
L 900.869515 556.85927 
L 905.849195 573.936198 
L 910.828874 577.58016 
L 915.808553 569.946309 
L 920.788232 556.572188 
L 925.767911 552.788767 
L 930.74759 534.519295 
L 935.727269 529.655576 
L 940.706949 530.119533 
L 945.686628 527.411306 
L 950.666307 534.156701 
L 955.645986 548.890717 
L 960.625665 555.13474 
L 965.605344 576.102575 
L 970.585023 573.389246 
L 975.564703 570.146994 
L 980.544382 561.286584 
L 985.524061 546.985231 
L 990.50374 538.471087 
L 995.483419 530.776351 
L 1000.463098 527.630019 
L 1005.442777 525.135743 
L 1010.422457 531.473646 
L 1015.402136 545.314444 
L 1020.381815 560.387923 
L 1025.361494 568.894244 
L 1030.341173 579.756741 
L 1035.320852 574.355255 
L 1040.300531 561.649177 
L 1045.280211 554.616361 
L 1050.25989 537.748281 
L 1055.239569 533.432875 
L 1060.219248 525.776234 
L 1065.198927 522.786709 
L 1070.178606 525.548678 
L 1075.158285 539.584378 
L 1080.137965 557.751468 
L 1085.117644 576.387615 
L 1090.097323 581.946248 
L 1095.077002 567.475843 
L 1100.056681 559.313069 
L 1105.03636 541.119448 
L 1110.016039 534.813179 
L 1114.995719 525.062272 
L 1119.975398 526.00175 
L 1119.975398 526.00175 
" style="fill:none;stroke:#ff0000;stroke-linecap:square;stroke-width:1.5;"/>
   </g>
   <g id="line2d_36">
    <path clip-path="url(#p8f06e547f4)" d="M 104.120852 546.940672 
L 109.100531 545.724317 
L 114.080211 551.823439 
L 119.05989 562.378446 
L 124.039569 578.151602 
L 129.019248 593.021335 
L 133.998927 600.907573 
L 138.978606 598.071793 
L 143.958285 591.765524 
L 148.937965 573.044 
L 153.917644 564.725779 
L 158.897323 555.86809 
L 163.877002 547.659736 
L 168.856681 550.790421 
L 173.83636 555.372841 
L 178.816039 569.00309 
L 183.795719 580.456417 
L 188.775398 594.264562 
L 193.755077 597.301027 
L 198.734756 595.098595 
L 203.714435 578.195821 
L 208.694114 571.701112 
L 213.673793 560.368875 
L 218.653473 553.663958 
L 223.633152 546.649169 
L 228.612831 544.590957 
L 233.59251 551.285331 
L 238.572189 566.205066 
L 243.551868 582.714973 
L 248.531547 596.558152 
L 253.511227 604.937599 
L 258.490906 592.709423 
L 268.450264 574.915132 
L 273.429943 563.669292 
L 278.409622 554.932695 
L 283.389301 542.722207 
L 288.368981 544.711368 
L 293.34866 550.518986 
L 298.328339 563.429491 
L 303.308018 578.467596 
L 308.287697 594.353339 
L 313.267376 594.80437 
L 318.247055 600.269463 
L 323.226735 592.846161 
L 328.206414 574.330765 
L 333.186093 558.007596 
L 338.165772 550.864913 
L 343.145451 547.794433 
L 348.12513 546.779444 
L 353.104809 553.945937 
L 358.084489 564.234271 
L 363.064168 578.820325 
L 368.043847 596.442843 
L 373.023526 600.774917 
L 378.003205 595.471732 
L 382.982884 583.882687 
L 387.962564 575.116837 
L 392.942243 561.1359 
L 397.921922 554.670444 
L 402.901601 546.388618 
L 407.88128 549.164193 
L 412.860959 555.794619 
L 417.840638 562.97982 
L 422.820318 578.895157 
L 427.799997 596.007119 
L 432.779676 598.852423 
L 437.759355 596.065964 
L 442.739034 585.280679 
L 447.718713 573.118832 
L 452.698392 564.147535 
L 457.678072 553.776885 
L 462.657751 547.191698 
L 467.63743 546.154259 
L 472.617109 552.280932 
L 477.596788 566.623102 
L 482.576467 584.02929 
L 487.556146 591.941038 
L 492.535826 599.409579 
L 497.515505 592.338666 
L 502.495184 584.441204 
L 507.474863 573.249447 
L 512.454542 562.716209 
L 517.434221 550.607424 
L 522.4139 548.402951 
L 527.39358 544.585175 
L 532.373259 551.94521 
L 537.352938 564.318287 
L 542.332617 585.056524 
L 547.312296 597.749677 
L 552.291975 601.08955 
L 557.271654 594.834983 
L 562.251334 585.904163 
L 567.231013 574.412399 
L 572.210692 558.723939 
L 577.190371 550.388371 
L 582.17005 545.874321 
L 587.149729 546.397122 
L 592.129408 555.590873 
L 597.109088 562.878117 
L 602.088767 580.328863 
L 607.068446 595.624797 
L 612.048125 604.362415 
L 617.027804 599.873876 
L 622.007483 578.311469 
L 626.987162 571.275932 
L 631.966842 562.248171 
L 636.946521 549.788697 
L 641.9262 547.345783 
L 646.905879 545.323628 
L 651.885558 550.85811 
L 656.865237 566.955423 
L 661.844916 578.821005 
L 666.824596 591.629466 
L 671.804275 597.276196 
L 676.783954 594.574773 
L 681.763633 589.175668 
L 686.743312 572.574261 
L 691.722991 564.725779 
L 696.70267 550.569668 
L 701.68235 546.096095 
L 706.662029 548.428122 
L 711.641708 552.981629 
L 716.621387 561.420941 
L 721.601066 581.222081 
L 726.580745 591.96995 
L 731.560424 591.933215 
L 736.540104 585.389185 
L 741.519783 579.190742 
L 746.499462 569.705487 
L 751.479141 559.561374 
L 756.45882 548.435605 
L 761.438499 546.425354 
L 766.418178 541.716741 
L 771.397858 549.807745 
L 776.377537 556.840902 
L 781.357216 572.732088 
L 786.336895 590.486583 
L 791.316574 597.611918 
L 796.296253 591.653616 
L 801.275932 587.672231 
L 811.235291 562.839341 
L 816.21497 552.777883 
L 821.194649 545.536558 
L 826.174328 547.211086 
L 831.154007 553.190137 
L 836.133686 564.627818 
L 841.113366 587.229704 
L 846.093045 596.065964 
L 851.072724 603.891656 
L 856.052403 596.864962 
L 861.032082 590.605633 
L 866.011761 570.65755 
L 870.991441 558.761695 
L 875.97112 548.790035 
L 880.950799 544.02904 
L 885.930478 544.704566 
L 890.910157 554.16601 
L 895.889836 561.72741 
L 900.869515 576.789325 
L 905.849195 594.208438 
L 910.828874 598.014309 
L 915.808553 592.337306 
L 920.788232 580.740097 
L 925.767911 574.329744 
L 930.74759 556.260957 
L 935.727269 550.754366 
L 940.706949 549.926796 
L 945.686628 547.330817 
L 950.666307 553.52824 
L 955.645986 567.567682 
L 960.625665 576.84851 
L 965.605344 595.283633 
L 970.585023 595.047573 
L 975.564703 591.148843 
L 980.544382 583.402404 
L 985.524061 569.773176 
L 990.50374 560.383842 
L 995.483419 552.140113 
L 1000.463098 547.676063 
L 1005.442777 544.498098 
L 1010.422457 550.559804 
L 1015.402136 564.056716 
L 1020.381815 580.299271 
L 1025.361494 589.98555 
L 1030.341173 600.657567 
L 1035.320852 594.106054 
L 1040.300531 581.072758 
L 1045.280211 575.730797 
L 1050.25989 559.601851 
L 1055.239569 553.099999 
L 1060.219248 546.974006 
L 1065.198927 539.861256 
L 1070.178606 545.23485 
L 1075.158285 558.020181 
L 1080.137965 577.050896 
L 1085.117644 594.912876 
L 1090.097323 601.385135 
L 1095.077002 589.797111 
L 1100.056681 581.757468 
L 1105.03636 566.14384 
L 1110.016039 557.955214 
L 1114.995719 544.210336 
L 1119.975398 545.688262 
L 1119.975398 545.688262 
" style="fill:none;stroke:#008000;stroke-linecap:square;stroke-width:1.5;"/>
   </g>
   <g id="line2d_37">
    <path clip-path="url(#p8f06e547f4)" d="M 104.120852 566.606776 
L 109.100531 565.562534 
L 114.080211 569.482693 
L 119.05989 579.378501 
L 124.039569 596.138415 
L 129.019248 611.008828 
L 133.998927 618.159607 
L 138.978606 617.290029 
L 143.958285 611.729253 
L 148.937965 593.543796 
L 153.917644 582.907155 
L 158.897323 573.133458 
L 163.877002 566.722424 
L 168.856681 565.935331 
L 173.83636 571.88683 
L 178.816039 586.401454 
L 183.795719 598.957188 
L 188.775398 612.064635 
L 193.755077 617.366391 
L 198.734756 616.460214 
L 203.714435 600.580695 
L 208.694114 593.495496 
L 213.673793 582.312243 
L 218.653473 575.223643 
L 223.633152 566.849638 
L 228.612831 563.726096 
L 233.59251 571.1062 
L 238.572189 584.628623 
L 243.551868 602.773263 
L 248.531547 615.402366 
L 253.511227 622.841893 
L 258.490906 612.662608 
L 263.470585 604.930456 
L 268.450264 595.367308 
L 273.429943 584.363991 
L 278.409622 575.323645 
L 283.389301 563.280848 
L 288.368981 564.220666 
L 293.34866 570.873201 
L 298.328339 580.355735 
L 303.308018 597.948321 
L 308.287697 613.513308 
L 313.267376 615.747986 
L 318.247055 619.444127 
L 323.226735 612.9269 
L 333.186093 579.846539 
L 338.165772 572.380039 
L 343.145451 568.286747 
L 348.12513 566.701336 
L 353.104809 572.28684 
L 358.084489 583.718058 
L 363.064168 596.702713 
L 368.043847 613.377591 
L 373.023526 619.000477 
L 378.003205 615.533764 
L 382.982884 603.986896 
L 387.962564 596.69523 
L 392.942243 582.933346 
L 402.901601 567.315295 
L 407.88128 568.381987 
L 412.860959 574.647779 
L 417.840638 582.096251 
L 422.820318 597.086396 
L 427.799997 613.600045 
L 432.779676 617.026826 
L 437.759355 614.832353 
L 442.739034 604.817528 
L 447.718713 593.326444 
L 452.698392 585.215712 
L 457.678072 572.899439 
L 462.657751 566.454391 
L 467.63743 563.913176 
L 472.617109 571.422874 
L 477.596788 583.833367 
L 482.576467 601.98617 
L 487.556146 610.30337 
L 492.535826 616.865019 
L 497.515505 612.231306 
L 502.495184 606.12164 
L 507.474863 594.794506 
L 512.454542 584.188137 
L 517.434221 571.69703 
L 522.4139 567.912588 
L 527.39358 564.863198 
L 532.373259 571.202801 
L 537.352938 583.353083 
L 542.332617 602.852516 
L 547.312296 614.981846 
L 552.291975 618.790846 
L 557.271654 614.040191 
L 562.251334 606.71281 
L 567.231013 595.045532 
L 572.210692 580.780234 
L 577.190371 571.853496 
L 582.17005 566.944539 
L 587.149729 565.143816 
L 592.129408 573.887557 
L 597.109088 581.837742 
L 602.088767 599.661626 
L 607.068446 613.141871 
L 612.048125 620.00516 
L 617.027804 618.411756 
L 622.007483 601.320508 
L 626.987162 593.388351 
L 631.966842 583.409887 
L 636.946521 571.368111 
L 641.9262 566.609497 
L 646.905879 565.492464 
L 651.885558 570.038828 
L 656.865237 584.680665 
L 661.844916 597.935395 
L 666.824596 610.475823 
L 671.804275 616.516814 
L 676.783954 615.575907 
L 681.763633 609.607095 
L 686.743312 594.079523 
L 691.722991 585.443948 
L 696.70267 571.478658 
L 701.68235 564.810815 
L 706.662029 567.826532 
L 711.641708 572.2416 
L 716.621387 581.364602 
L 721.601066 599.934081 
L 726.580745 611.24795 
L 731.560424 613.182348 
L 736.540104 606.833561 
L 741.519783 599.471485 
L 746.499462 591.153605 
L 751.479141 582.075162 
L 756.45882 569.811952 
L 761.438499 564.459787 
L 766.418178 560.909364 
L 771.397858 568.749683 
L 776.377537 576.153936 
L 781.357216 592.939701 
L 786.336895 610.458476 
L 791.316574 615.317568 
L 796.296253 610.012207 
L 801.275932 607.485277 
L 806.255612 596.08025 
L 811.235291 583.561251 
L 816.21497 572.47698 
L 821.194649 565.90812 
L 826.174328 566.397587 
L 831.154007 571.921525 
L 836.133686 583.348321 
L 841.113366 603.413414 
L 846.093045 613.244935 
L 851.072724 620.745211 
L 856.052403 615.252192 
L 861.032082 610.033296 
L 866.011761 592.719628 
L 870.991441 580.382266 
L 875.97112 569.953792 
L 880.950799 562.394773 
L 885.930478 564.809795 
L 890.910157 572.574942 
L 895.889836 580.725131 
L 900.869515 594.754369 
L 905.849195 612.491856 
L 910.828874 617.391834 
L 915.808553 613.804472 
L 920.788232 603.40423 
L 925.767911 596.224131 
L 930.74759 577.86282 
L 935.727269 570.914019 
L 940.706949 568.347632 
L 945.686628 566.289421 
L 950.666307 571.297021 
L 955.645986 585.492249 
L 960.625665 594.357761 
L 965.605344 612.168039 
L 970.585023 612.918397 
L 975.564703 610.229559 
L 980.544382 601.389217 
L 985.524061 589.768539 
L 990.50374 579.780551 
L 995.483419 571.283755 
L 1000.463098 564.867279 
L 1005.442777 562.854307 
L 1010.422457 568.982341 
L 1015.402136 583.472134 
L 1020.381815 598.869431 
L 1025.361494 608.818301 
L 1030.341173 619.365247 
L 1035.320852 614.383737 
L 1040.300531 601.546023 
L 1045.280211 597.254427 
L 1050.25989 581.07752 
L 1055.239569 573.348089 
L 1060.219248 567.624826 
L 1065.198927 558.788567 
L 1070.178606 564.873402 
L 1075.158285 575.418885 
L 1080.137965 594.338033 
L 1085.117644 612.054431 
L 1090.097323 619.507325 
L 1095.077002 610.89522 
L 1100.056681 600.581035 
L 1105.03636 589.221587 
L 1110.016039 579.220334 
L 1114.995719 566.305408 
L 1119.975398 564.917961 
L 1119.975398 564.917961 
" style="fill:none;stroke:#0000ff;stroke-linecap:square;stroke-width:1.5;"/>
   </g>
   <g id="line2d_38">
    <defs>
     <path d="M 0 3 
C 0.795609 3 1.55874 2.683901 2.12132 2.12132 
C 2.683901 1.55874 3 0.795609 3 0 
C 3 -0.795609 2.683901 -1.55874 2.12132 -2.12132 
C 1.55874 -2.683901 0.795609 -3 0 -3 
C -0.795609 -3 -1.55874 -2.683901 -2.12132 -2.12132 
C -2.683901 -1.55874 -3 -0.795609 -3 0 
C -3 0.795609 -2.683901 1.55874 -2.12132 2.12132 
C -1.55874 2.683901 -0.795609 3 0 3 
z
" id="ma6c4422678" style="stroke:#ff0000;"/>
    </defs>
    <g clip-path="url(#p8f06e547f4)">
     <use style="fill:#ff0000;stroke:#ff0000;" x="133.998927" xlink:href="#ma6c4422678" y="639.849091"/>
     <use style="fill:#ff0000;stroke:#ff0000;" x="263.470585" xlink:href="#ma6c4422678" y="639.849091"/>
     <use style="fill:#ff0000;stroke:#ff0000;" x="288.368981" xlink:href="#ma6c4422678" y="639.849091"/>
     <use style="fill:#ff0000;stroke:#ff0000;" x="308.287697" xlink:href="#ma6c4422678" y="639.849091"/>
     <use style="fill:#ff0000;stroke:#ff0000;" x="373.023526" xlink:href="#ma6c4422678" y="639.849091"/>
     <use style="fill:#ff0000;stroke:#ff0000;" x="651.885558" xlink:href="#ma6c4422678" y="639.849091"/>
     <use style="fill:#ff0000;stroke:#ff0000;" x="731.560424" xlink:href="#ma6c4422678" y="639.849091"/>
     <use style="fill:#ff0000;stroke:#ff0000;" x="786.336895" xlink:href="#ma6c4422678" y="639.849091"/>
     <use style="fill:#ff0000;stroke:#ff0000;" x="1065.198927" xlink:href="#ma6c4422678" y="639.849091"/>
     <use style="fill:#ff0000;stroke:#ff0000;" x="1075.158285" xlink:href="#ma6c4422678" y="639.849091"/>
     <use style="fill:#ff0000;stroke:#ff0000;" x="1080.137965" xlink:href="#ma6c4422678" y="639.849091"/>
    </g>
   </g>
   <g id="patch_9">
    <path d="M 53.328125 645.74 
L 53.328125 516.14 
" style="fill:none;stroke:#000000;stroke-linecap:square;stroke-linejoin:miter;stroke-width:0.8;"/>
   </g>
   <g id="patch_10">
    <path d="M 1170.768125 645.74 
L 1170.768125 516.14 
" style="fill:none;stroke:#000000;stroke-linecap:square;stroke-linejoin:miter;stroke-width:0.8;"/>
   </g>
   <g id="patch_11">
    <path d="M 53.328125 645.74 
L 1170.768125 645.74 
" style="fill:none;stroke:#000000;stroke-linecap:square;stroke-linejoin:miter;stroke-width:0.8;"/>
   </g>
   <g id="patch_12">
    <path d="M 53.328125 516.14 
L 1170.768125 516.14 
" style="fill:none;stroke:#000000;stroke-linecap:square;stroke-linejoin:miter;stroke-width:0.8;"/>
   </g>
   <g id="legend_2">
    <g id="patch_13">
     <path d="M 60.328125 582.8525 
L 151.340625 582.8525 
Q 153.340625 582.8525 153.340625 580.8525 
L 153.340625 523.14 
Q 153.340625 521.14 151.340625 521.14 
L 60.328125 521.14 
Q 58.328125 521.14 58.328125 523.14 
L 58.328125 580.8525 
Q 58.328125 582.8525 60.328125 582.8525 
z
" style="fill:#ffffff;opacity:0.8;stroke:#cccccc;stroke-linejoin:miter;"/>
    </g>
    <g id="line2d_39">
     <path d="M 62.328125 529.238437 
L 82.328125 529.238437 
" style="fill:none;stroke:#ff0000;stroke-linecap:square;stroke-width:1.5;"/>
    </g>
    <g id="line2d_40"/>
    <g id="text_32">
     <!-- Maxmimum -->
     <defs>
      <path d="M 9.8125 72.90625 
L 24.515625 72.90625 
L 43.109375 23.296875 
L 61.8125 72.90625 
L 76.515625 72.90625 
L 76.515625 0 
L 66.890625 0 
L 66.890625 64.015625 
L 48.09375 14.015625 
L 38.1875 14.015625 
L 19.390625 64.015625 
L 19.390625 0 
L 9.8125 0 
z
" id="DejaVuSans-4d"/>
      <path d="M 54.890625 54.6875 
L 35.109375 28.078125 
L 55.90625 0 
L 45.3125 0 
L 29.390625 21.484375 
L 13.484375 0 
L 2.875 0 
L 24.125 28.609375 
L 4.6875 54.6875 
L 15.28125 54.6875 
L 29.78125 35.203125 
L 44.28125 54.6875 
z
" id="DejaVuSans-78"/>
     </defs>
     <g transform="translate(90.328125 532.738437)scale(0.1 -0.1)">
      <use xlink:href="#DejaVuSans-4d"/>
      <use x="86.279297" xlink:href="#DejaVuSans-61"/>
      <use x="147.558594" xlink:href="#DejaVuSans-78"/>
      <use x="206.738281" xlink:href="#DejaVuSans-6d"/>
      <use x="304.150391" xlink:href="#DejaVuSans-69"/>
      <use x="331.933594" xlink:href="#DejaVuSans-6d"/>
      <use x="429.345703" xlink:href="#DejaVuSans-75"/>
      <use x="492.724609" xlink:href="#DejaVuSans-6d"/>
     </g>
    </g>
    <g id="line2d_41">
     <path d="M 62.328125 543.916562 
L 82.328125 543.916562 
" style="fill:none;stroke:#008000;stroke-linecap:square;stroke-width:1.5;"/>
    </g>
    <g id="line2d_42"/>
    <g id="text_33">
     <!-- Average -->
     <defs>
      <path d="M 34.1875 63.1875 
L 20.796875 26.90625 
L 47.609375 26.90625 
z
M 28.609375 72.90625 
L 39.796875 72.90625 
L 67.578125 0 
L 57.328125 0 
L 50.6875 18.703125 
L 17.828125 18.703125 
L 11.1875 0 
L 0.78125 0 
z
" id="DejaVuSans-41"/>
      <path d="M 2.984375 54.6875 
L 12.5 54.6875 
L 29.59375 8.796875 
L 46.6875 54.6875 
L 56.203125 54.6875 
L 35.6875 0 
L 23.484375 0 
z
" id="DejaVuSans-76"/>
     </defs>
     <g transform="translate(90.328125 547.416562)scale(0.1 -0.1)">
      <use xlink:href="#DejaVuSans-41"/>
      <use x="68.330078" xlink:href="#DejaVuSans-76"/>
      <use x="127.509766" xlink:href="#DejaVuSans-65"/>
      <use x="189.033203" xlink:href="#DejaVuSans-72"/>
      <use x="230.146484" xlink:href="#DejaVuSans-61"/>
      <use x="291.425781" xlink:href="#DejaVuSans-67"/>
      <use x="354.902344" xlink:href="#DejaVuSans-65"/>
     </g>
    </g>
    <g id="line2d_43">
     <path d="M 62.328125 558.594687 
L 82.328125 558.594687 
" style="fill:none;stroke:#0000ff;stroke-linecap:square;stroke-width:1.5;"/>
    </g>
    <g id="line2d_44"/>
    <g id="text_34">
     <!-- Minimum -->
     <g transform="translate(90.328125 562.094687)scale(0.1 -0.1)">
      <use xlink:href="#DejaVuSans-4d"/>
      <use x="86.279297" xlink:href="#DejaVuSans-69"/>
      <use x="114.0625" xlink:href="#DejaVuSans-6e"/>
      <use x="177.441406" xlink:href="#DejaVuSans-69"/>
      <use x="205.224609" xlink:href="#DejaVuSans-6d"/>
      <use x="302.636719" xlink:href="#DejaVuSans-75"/>
      <use x="366.015625" xlink:href="#DejaVuSans-6d"/>
     </g>
    </g>
    <g id="line2d_45"/>
    <g id="line2d_46">
     <g>
      <use style="fill:#ff0000;stroke:#ff0000;" x="72.328125" xlink:href="#ma6c4422678" y="573.272812"/>
     </g>
    </g>
    <g id="text_35">
     <!-- Disasters -->
     <g transform="translate(90.328125 576.772812)scale(0.1 -0.1)">
      <use xlink:href="#DejaVuSans-44"/>
      <use x="77.001953" xlink:href="#DejaVuSans-69"/>
      <use x="104.785156" xlink:href="#DejaVuSans-73"/>
      <use x="156.884766" xlink:href="#DejaVuSans-61"/>
      <use x="218.164062" xlink:href="#DejaVuSans-73"/>
      <use x="270.263672" xlink:href="#DejaVuSans-74"/>
      <use x="309.472656" xlink:href="#DejaVuSans-65"/>
      <use x="370.996094" xlink:href="#DejaVuSans-72"/>
      <use x="412.109375" xlink:href="#DejaVuSans-73"/>
     </g>
    </g>
   </g>
  </g>
 </g>
 <defs>
  <clipPath id="pe12b5e8781">
   <rect height="498.96" width="1116" x="53.328125" y="10.7"/>
  </clipPath>
  <clipPath id="p8f06e547f4">
   <rect height="129.6" width="1117.44" x="53.328125" y="516.14"/>
  </clipPath>
 </defs>
</svg>
