<?xml version="1.0" encoding="utf-8" standalone="no"?>
<!DOCTYPE svg PUBLIC "-//W3C//DTD SVG 1.1//EN"
  "http://www.w3.org/Graphics/SVG/1.1/DTD/svg11.dtd">
<!-- Created with matplotlib (http://matplotlib.org/) -->
<svg height="669pt" version="1.1" viewBox="0 0 1181 669" width="1181pt" xmlns="http://www.w3.org/2000/svg" xmlns:xlink="http://www.w3.org/1999/xlink">
 <defs>
  <style type="text/css">
*{stroke-linecap:butt;stroke-linejoin:round;}
  </style>
 </defs>
 <g id="figure_1">
  <g id="patch_1">
   <path d="M 0 669.618125 
L 1181.468125 669.618125 
L 1181.468125 -0 
L 0 -0 
z
" style="fill:none;"/>
  </g>
  <g id="axes_1">
   <g id="patch_2">
    <path d="M 53.328125 509.66 
L 1169.328125 509.66 
L 1169.328125 10.7 
L 53.328125 10.7 
z
" style="fill:none;"/>
   </g>
   <g id="matplotlib.axis_1">
    <g id="xtick_1">
     <g id="line2d_1">
      <defs>
       <path d="M 0 0 
L 0 3.5 
" id="m1caafc1be9" style="stroke:#000000;stroke-width:0.8;"/>
      </defs>
      <g>
       <use style="stroke:#000000;stroke-width:0.8;" x="104.055398" xlink:href="#m1caafc1be9" y="509.66"/>
      </g>
     </g>
     <g id="text_1">
      <!-- 0 -->
      <defs>
       <path d="M 31.78125 66.40625 
Q 24.171875 66.40625 20.328125 58.90625 
Q 16.5 51.421875 16.5 36.375 
Q 16.5 21.390625 20.328125 13.890625 
Q 24.171875 6.390625 31.78125 6.390625 
Q 39.453125 6.390625 43.28125 13.890625 
Q 47.125 21.390625 47.125 36.375 
Q 47.125 51.421875 43.28125 58.90625 
Q 39.453125 66.40625 31.78125 66.40625 
z
M 31.78125 74.21875 
Q 44.046875 74.21875 50.515625 64.515625 
Q 56.984375 54.828125 56.984375 36.375 
Q 56.984375 17.96875 50.515625 8.265625 
Q 44.046875 -1.421875 31.78125 -1.421875 
Q 19.53125 -1.421875 13.0625 8.265625 
Q 6.59375 17.96875 6.59375 36.375 
Q 6.59375 54.828125 13.0625 64.515625 
Q 19.53125 74.21875 31.78125 74.21875 
z
" id="DejaVuSans-30"/>
      </defs>
      <g transform="translate(100.874148 524.258437)scale(0.1 -0.1)">
       <use xlink:href="#DejaVuSans-30"/>
      </g>
     </g>
    </g>
    <g id="xtick_2">
     <g id="line2d_2">
      <g>
       <use style="stroke:#000000;stroke-width:0.8;" x="346.769621" xlink:href="#m1caafc1be9" y="509.66"/>
      </g>
     </g>
     <g id="text_2">
      <!-- 50 -->
      <defs>
       <path d="M 10.796875 72.90625 
L 49.515625 72.90625 
L 49.515625 64.59375 
L 19.828125 64.59375 
L 19.828125 46.734375 
Q 21.96875 47.46875 24.109375 47.828125 
Q 26.265625 48.1875 28.421875 48.1875 
Q 40.625 48.1875 47.75 41.5 
Q 54.890625 34.8125 54.890625 23.390625 
Q 54.890625 11.625 47.5625 5.09375 
Q 40.234375 -1.421875 26.90625 -1.421875 
Q 22.3125 -1.421875 17.546875 -0.640625 
Q 12.796875 0.140625 7.71875 1.703125 
L 7.71875 11.625 
Q 12.109375 9.234375 16.796875 8.0625 
Q 21.484375 6.890625 26.703125 6.890625 
Q 35.15625 6.890625 40.078125 11.328125 
Q 45.015625 15.765625 45.015625 23.390625 
Q 45.015625 31 40.078125 35.4375 
Q 35.15625 39.890625 26.703125 39.890625 
Q 22.75 39.890625 18.8125 39.015625 
Q 14.890625 38.140625 10.796875 36.28125 
z
" id="DejaVuSans-35"/>
      </defs>
      <g transform="translate(340.407121 524.258437)scale(0.1 -0.1)">
       <use xlink:href="#DejaVuSans-35"/>
       <use x="63.623047" xlink:href="#DejaVuSans-30"/>
      </g>
     </g>
    </g>
    <g id="xtick_3">
     <g id="line2d_3">
      <g>
       <use style="stroke:#000000;stroke-width:0.8;" x="589.483845" xlink:href="#m1caafc1be9" y="509.66"/>
      </g>
     </g>
     <g id="text_3">
      <!-- 100 -->
      <defs>
       <path d="M 12.40625 8.296875 
L 28.515625 8.296875 
L 28.515625 63.921875 
L 10.984375 60.40625 
L 10.984375 69.390625 
L 28.421875 72.90625 
L 38.28125 72.90625 
L 38.28125 8.296875 
L 54.390625 8.296875 
L 54.390625 0 
L 12.40625 0 
z
" id="DejaVuSans-31"/>
      </defs>
      <g transform="translate(579.940095 524.258437)scale(0.1 -0.1)">
       <use xlink:href="#DejaVuSans-31"/>
       <use x="63.623047" xlink:href="#DejaVuSans-30"/>
       <use x="127.246094" xlink:href="#DejaVuSans-30"/>
      </g>
     </g>
    </g>
    <g id="xtick_4">
     <g id="line2d_4">
      <g>
       <use style="stroke:#000000;stroke-width:0.8;" x="832.198068" xlink:href="#m1caafc1be9" y="509.66"/>
      </g>
     </g>
     <g id="text_4">
      <!-- 150 -->
      <g transform="translate(822.654318 524.258437)scale(0.1 -0.1)">
       <use xlink:href="#DejaVuSans-31"/>
       <use x="63.623047" xlink:href="#DejaVuSans-35"/>
       <use x="127.246094" xlink:href="#DejaVuSans-30"/>
      </g>
     </g>
    </g>
    <g id="xtick_5">
     <g id="line2d_5">
      <g>
       <use style="stroke:#000000;stroke-width:0.8;" x="1074.912292" xlink:href="#m1caafc1be9" y="509.66"/>
      </g>
     </g>
     <g id="text_5">
      <!-- 200 -->
      <defs>
       <path d="M 19.1875 8.296875 
L 53.609375 8.296875 
L 53.609375 0 
L 7.328125 0 
L 7.328125 8.296875 
Q 12.9375 14.109375 22.625 23.890625 
Q 32.328125 33.6875 34.8125 36.53125 
Q 39.546875 41.84375 41.421875 45.53125 
Q 43.3125 49.21875 43.3125 52.78125 
Q 43.3125 58.59375 39.234375 62.25 
Q 35.15625 65.921875 28.609375 65.921875 
Q 23.96875 65.921875 18.8125 64.3125 
Q 13.671875 62.703125 7.8125 59.421875 
L 7.8125 69.390625 
Q 13.765625 71.78125 18.9375 73 
Q 24.125 74.21875 28.421875 74.21875 
Q 39.75 74.21875 46.484375 68.546875 
Q 53.21875 62.890625 53.21875 53.421875 
Q 53.21875 48.921875 51.53125 44.890625 
Q 49.859375 40.875 45.40625 35.40625 
Q 44.1875 33.984375 37.640625 27.21875 
Q 31.109375 20.453125 19.1875 8.296875 
z
" id="DejaVuSans-32"/>
      </defs>
      <g transform="translate(1065.368542 524.258437)scale(0.1 -0.1)">
       <use xlink:href="#DejaVuSans-32"/>
       <use x="63.623047" xlink:href="#DejaVuSans-30"/>
       <use x="127.246094" xlink:href="#DejaVuSans-30"/>
      </g>
     </g>
    </g>
    <g id="text_6">
     <!-- Time -->
     <defs>
      <path d="M -0.296875 72.90625 
L 61.375 72.90625 
L 61.375 64.59375 
L 35.5 64.59375 
L 35.5 0 
L 25.59375 0 
L 25.59375 64.59375 
L -0.296875 64.59375 
z
" id="DejaVuSans-54"/>
      <path d="M 9.421875 54.6875 
L 18.40625 54.6875 
L 18.40625 0 
L 9.421875 0 
z
M 9.421875 75.984375 
L 18.40625 75.984375 
L 18.40625 64.59375 
L 9.421875 64.59375 
z
" id="DejaVuSans-69"/>
      <path d="M 52 44.1875 
Q 55.375 50.25 60.0625 53.125 
Q 64.75 56 71.09375 56 
Q 79.640625 56 84.28125 50.015625 
Q 88.921875 44.046875 88.921875 33.015625 
L 88.921875 0 
L 79.890625 0 
L 79.890625 32.71875 
Q 79.890625 40.578125 77.09375 44.375 
Q 74.3125 48.1875 68.609375 48.1875 
Q 61.625 48.1875 57.5625 43.546875 
Q 53.515625 38.921875 53.515625 30.90625 
L 53.515625 0 
L 44.484375 0 
L 44.484375 32.71875 
Q 44.484375 40.625 41.703125 44.40625 
Q 38.921875 48.1875 33.109375 48.1875 
Q 26.21875 48.1875 22.15625 43.53125 
Q 18.109375 38.875 18.109375 30.90625 
L 18.109375 0 
L 9.078125 0 
L 9.078125 54.6875 
L 18.109375 54.6875 
L 18.109375 46.1875 
Q 21.1875 51.21875 25.484375 53.609375 
Q 29.78125 56 35.6875 56 
Q 41.65625 56 45.828125 52.96875 
Q 50 49.953125 52 44.1875 
z
" id="DejaVuSans-6d"/>
      <path d="M 56.203125 29.59375 
L 56.203125 25.203125 
L 14.890625 25.203125 
Q 15.484375 15.921875 20.484375 11.0625 
Q 25.484375 6.203125 34.421875 6.203125 
Q 39.59375 6.203125 44.453125 7.46875 
Q 49.3125 8.734375 54.109375 11.28125 
L 54.109375 2.78125 
Q 49.265625 0.734375 44.1875 -0.34375 
Q 39.109375 -1.421875 33.890625 -1.421875 
Q 20.796875 -1.421875 13.15625 6.1875 
Q 5.515625 13.8125 5.515625 26.8125 
Q 5.515625 40.234375 12.765625 48.109375 
Q 20.015625 56 32.328125 56 
Q 43.359375 56 49.78125 48.890625 
Q 56.203125 41.796875 56.203125 29.59375 
z
M 47.21875 32.234375 
Q 47.125 39.59375 43.09375 43.984375 
Q 39.0625 48.390625 32.421875 48.390625 
Q 24.90625 48.390625 20.390625 44.140625 
Q 15.875 39.890625 15.1875 32.171875 
z
" id="DejaVuSans-65"/>
     </defs>
     <g transform="translate(598.940625 537.936562)scale(0.1 -0.1)">
      <use xlink:href="#DejaVuSans-54"/>
      <use x="61.037109" xlink:href="#DejaVuSans-69"/>
      <use x="88.820312" xlink:href="#DejaVuSans-6d"/>
      <use x="186.232422" xlink:href="#DejaVuSans-65"/>
     </g>
    </g>
   </g>
   <g id="matplotlib.axis_2">
    <g id="ytick_1">
     <g id="line2d_6">
      <defs>
       <path d="M 0 0 
L -3.5 0 
" id="m854bd63062" style="stroke:#000000;stroke-width:0.8;"/>
      </defs>
      <g>
       <use style="stroke:#000000;stroke-width:0.8;" x="53.328125" xlink:href="#m854bd63062" y="496.36706"/>
      </g>
     </g>
     <g id="text_7">
      <!-- 0 -->
      <g transform="translate(39.965625 500.166279)scale(0.1 -0.1)">
       <use xlink:href="#DejaVuSans-30"/>
      </g>
     </g>
    </g>
    <g id="ytick_2">
     <g id="line2d_7">
      <g>
       <use style="stroke:#000000;stroke-width:0.8;" x="53.328125" xlink:href="#m854bd63062" y="388.469819"/>
      </g>
     </g>
     <g id="text_8">
      <!-- 1000 -->
      <g transform="translate(20.878125 392.269038)scale(0.1 -0.1)">
       <use xlink:href="#DejaVuSans-31"/>
       <use x="63.623047" xlink:href="#DejaVuSans-30"/>
       <use x="127.246094" xlink:href="#DejaVuSans-30"/>
       <use x="190.869141" xlink:href="#DejaVuSans-30"/>
      </g>
     </g>
    </g>
    <g id="ytick_3">
     <g id="line2d_8">
      <g>
       <use style="stroke:#000000;stroke-width:0.8;" x="53.328125" xlink:href="#m854bd63062" y="280.572578"/>
      </g>
     </g>
     <g id="text_9">
      <!-- 2000 -->
      <g transform="translate(20.878125 284.371797)scale(0.1 -0.1)">
       <use xlink:href="#DejaVuSans-32"/>
       <use x="63.623047" xlink:href="#DejaVuSans-30"/>
       <use x="127.246094" xlink:href="#DejaVuSans-30"/>
       <use x="190.869141" xlink:href="#DejaVuSans-30"/>
      </g>
     </g>
    </g>
    <g id="ytick_4">
     <g id="line2d_9">
      <g>
       <use style="stroke:#000000;stroke-width:0.8;" x="53.328125" xlink:href="#m854bd63062" y="172.675338"/>
      </g>
     </g>
     <g id="text_10">
      <!-- 3000 -->
      <defs>
       <path d="M 40.578125 39.3125 
Q 47.65625 37.796875 51.625 33 
Q 55.609375 28.21875 55.609375 21.1875 
Q 55.609375 10.40625 48.1875 4.484375 
Q 40.765625 -1.421875 27.09375 -1.421875 
Q 22.515625 -1.421875 17.65625 -0.515625 
Q 12.796875 0.390625 7.625 2.203125 
L 7.625 11.71875 
Q 11.71875 9.328125 16.59375 8.109375 
Q 21.484375 6.890625 26.8125 6.890625 
Q 36.078125 6.890625 40.9375 10.546875 
Q 45.796875 14.203125 45.796875 21.1875 
Q 45.796875 27.640625 41.28125 31.265625 
Q 36.765625 34.90625 28.71875 34.90625 
L 20.21875 34.90625 
L 20.21875 43.015625 
L 29.109375 43.015625 
Q 36.375 43.015625 40.234375 45.921875 
Q 44.09375 48.828125 44.09375 54.296875 
Q 44.09375 59.90625 40.109375 62.90625 
Q 36.140625 65.921875 28.71875 65.921875 
Q 24.65625 65.921875 20.015625 65.03125 
Q 15.375 64.15625 9.8125 62.3125 
L 9.8125 71.09375 
Q 15.4375 72.65625 20.34375 73.4375 
Q 25.25 74.21875 29.59375 74.21875 
Q 40.828125 74.21875 47.359375 69.109375 
Q 53.90625 64.015625 53.90625 55.328125 
Q 53.90625 49.265625 50.4375 45.09375 
Q 46.96875 40.921875 40.578125 39.3125 
z
" id="DejaVuSans-33"/>
      </defs>
      <g transform="translate(20.878125 176.474557)scale(0.1 -0.1)">
       <use xlink:href="#DejaVuSans-33"/>
       <use x="63.623047" xlink:href="#DejaVuSans-30"/>
       <use x="127.246094" xlink:href="#DejaVuSans-30"/>
       <use x="190.869141" xlink:href="#DejaVuSans-30"/>
      </g>
     </g>
    </g>
    <g id="ytick_5">
     <g id="line2d_10">
      <g>
       <use style="stroke:#000000;stroke-width:0.8;" x="53.328125" xlink:href="#m854bd63062" y="64.778097"/>
      </g>
     </g>
     <g id="text_11">
      <!-- 4000 -->
      <defs>
       <path d="M 37.796875 64.3125 
L 12.890625 25.390625 
L 37.796875 25.390625 
z
M 35.203125 72.90625 
L 47.609375 72.90625 
L 47.609375 25.390625 
L 58.015625 25.390625 
L 58.015625 17.1875 
L 47.609375 17.1875 
L 47.609375 0 
L 37.796875 0 
L 37.796875 17.1875 
L 4.890625 17.1875 
L 4.890625 26.703125 
z
" id="DejaVuSans-34"/>
      </defs>
      <g transform="translate(20.878125 68.577316)scale(0.1 -0.1)">
       <use xlink:href="#DejaVuSans-34"/>
       <use x="63.623047" xlink:href="#DejaVuSans-30"/>
       <use x="127.246094" xlink:href="#DejaVuSans-30"/>
       <use x="190.869141" xlink:href="#DejaVuSans-30"/>
      </g>
     </g>
    </g>
    <g id="text_12">
     <!-- Refugees -->
     <defs>
      <path d="M 44.390625 34.1875 
Q 47.5625 33.109375 50.5625 29.59375 
Q 53.5625 26.078125 56.59375 19.921875 
L 66.609375 0 
L 56 0 
L 46.6875 18.703125 
Q 43.0625 26.03125 39.671875 28.421875 
Q 36.28125 30.8125 30.421875 30.8125 
L 19.671875 30.8125 
L 19.671875 0 
L 9.8125 0 
L 9.8125 72.90625 
L 32.078125 72.90625 
Q 44.578125 72.90625 50.734375 67.671875 
Q 56.890625 62.453125 56.890625 51.90625 
Q 56.890625 45.015625 53.6875 40.46875 
Q 50.484375 35.9375 44.390625 34.1875 
z
M 19.671875 64.796875 
L 19.671875 38.921875 
L 32.078125 38.921875 
Q 39.203125 38.921875 42.84375 42.21875 
Q 46.484375 45.515625 46.484375 51.90625 
Q 46.484375 58.296875 42.84375 61.546875 
Q 39.203125 64.796875 32.078125 64.796875 
z
" id="DejaVuSans-52"/>
      <path d="M 37.109375 75.984375 
L 37.109375 68.5 
L 28.515625 68.5 
Q 23.6875 68.5 21.796875 66.546875 
Q 19.921875 64.59375 19.921875 59.515625 
L 19.921875 54.6875 
L 34.71875 54.6875 
L 34.71875 47.703125 
L 19.921875 47.703125 
L 19.921875 0 
L 10.890625 0 
L 10.890625 47.703125 
L 2.296875 47.703125 
L 2.296875 54.6875 
L 10.890625 54.6875 
L 10.890625 58.5 
Q 10.890625 67.625 15.140625 71.796875 
Q 19.390625 75.984375 28.609375 75.984375 
z
" id="DejaVuSans-66"/>
      <path d="M 8.5 21.578125 
L 8.5 54.6875 
L 17.484375 54.6875 
L 17.484375 21.921875 
Q 17.484375 14.15625 20.5 10.265625 
Q 23.53125 6.390625 29.59375 6.390625 
Q 36.859375 6.390625 41.078125 11.03125 
Q 45.3125 15.671875 45.3125 23.6875 
L 45.3125 54.6875 
L 54.296875 54.6875 
L 54.296875 0 
L 45.3125 0 
L 45.3125 8.40625 
Q 42.046875 3.421875 37.71875 1 
Q 33.40625 -1.421875 27.6875 -1.421875 
Q 18.265625 -1.421875 13.375 4.4375 
Q 8.5 10.296875 8.5 21.578125 
z
M 31.109375 56 
z
" id="DejaVuSans-75"/>
      <path d="M 45.40625 27.984375 
Q 45.40625 37.75 41.375 43.109375 
Q 37.359375 48.484375 30.078125 48.484375 
Q 22.859375 48.484375 18.828125 43.109375 
Q 14.796875 37.75 14.796875 27.984375 
Q 14.796875 18.265625 18.828125 12.890625 
Q 22.859375 7.515625 30.078125 7.515625 
Q 37.359375 7.515625 41.375 12.890625 
Q 45.40625 18.265625 45.40625 27.984375 
z
M 54.390625 6.78125 
Q 54.390625 -7.171875 48.1875 -13.984375 
Q 42 -20.796875 29.203125 -20.796875 
Q 24.46875 -20.796875 20.265625 -20.09375 
Q 16.0625 -19.390625 12.109375 -17.921875 
L 12.109375 -9.1875 
Q 16.0625 -11.328125 19.921875 -12.34375 
Q 23.78125 -13.375 27.78125 -13.375 
Q 36.625 -13.375 41.015625 -8.765625 
Q 45.40625 -4.15625 45.40625 5.171875 
L 45.40625 9.625 
Q 42.625 4.78125 38.28125 2.390625 
Q 33.9375 0 27.875 0 
Q 17.828125 0 11.671875 7.65625 
Q 5.515625 15.328125 5.515625 27.984375 
Q 5.515625 40.671875 11.671875 48.328125 
Q 17.828125 56 27.875 56 
Q 33.9375 56 38.28125 53.609375 
Q 42.625 51.21875 45.40625 46.390625 
L 45.40625 54.6875 
L 54.390625 54.6875 
z
" id="DejaVuSans-67"/>
      <path d="M 44.28125 53.078125 
L 44.28125 44.578125 
Q 40.484375 46.53125 36.375 47.5 
Q 32.28125 48.484375 27.875 48.484375 
Q 21.1875 48.484375 17.84375 46.4375 
Q 14.5 44.390625 14.5 40.28125 
Q 14.5 37.15625 16.890625 35.375 
Q 19.28125 33.59375 26.515625 31.984375 
L 29.59375 31.296875 
Q 39.15625 29.25 43.1875 25.515625 
Q 47.21875 21.78125 47.21875 15.09375 
Q 47.21875 7.46875 41.1875 3.015625 
Q 35.15625 -1.421875 24.609375 -1.421875 
Q 20.21875 -1.421875 15.453125 -0.5625 
Q 10.6875 0.296875 5.421875 2 
L 5.421875 11.28125 
Q 10.40625 8.6875 15.234375 7.390625 
Q 20.0625 6.109375 24.8125 6.109375 
Q 31.15625 6.109375 34.5625 8.28125 
Q 37.984375 10.453125 37.984375 14.40625 
Q 37.984375 18.0625 35.515625 20.015625 
Q 33.0625 21.96875 24.703125 23.78125 
L 21.578125 24.515625 
Q 13.234375 26.265625 9.515625 29.90625 
Q 5.8125 33.546875 5.8125 39.890625 
Q 5.8125 47.609375 11.28125 51.796875 
Q 16.75 56 26.8125 56 
Q 31.78125 56 36.171875 55.265625 
Q 40.578125 54.546875 44.28125 53.078125 
z
" id="DejaVuSans-73"/>
     </defs>
     <g style="fill:#ff7f0e;" transform="translate(14.798437 283.588594)rotate(-90)scale(0.1 -0.1)">
      <use xlink:href="#DejaVuSans-52"/>
      <use x="69.419922" xlink:href="#DejaVuSans-65"/>
      <use x="130.943359" xlink:href="#DejaVuSans-66"/>
      <use x="166.148438" xlink:href="#DejaVuSans-75"/>
      <use x="229.527344" xlink:href="#DejaVuSans-67"/>
      <use x="293.003906" xlink:href="#DejaVuSans-65"/>
      <use x="354.527344" xlink:href="#DejaVuSans-65"/>
      <use x="416.050781" xlink:href="#DejaVuSans-73"/>
     </g>
    </g>
   </g>
   <g id="line2d_11">
    <path clip-path="url(#p4df48b1bdb)" d="M 104.055398 482.426045 
L 108.909682 482.083758 
L 113.763967 482.252199 
L 118.618251 482.684299 
L 123.472536 482.848377 
L 128.32682 481.634962 
L 133.181105 481.952969 
L 138.035389 481.608627 
L 142.889673 481.780048 
L 147.743958 482.209238 
L 152.598242 482.378603 
L 157.452527 481.156649 
L 162.306811 463.53401 
L 167.161096 462.513915 
L 176.869665 465.883215 
L 181.723949 466.124525 
L 186.578234 466.065176 
L 191.432518 468.659751 
L 196.286803 468.943549 
L 201.141087 469.467328 
L 205.995372 469.490604 
L 210.849656 469.211263 
L 215.703941 467.573877 
L 220.558225 474.370965 
L 225.41251 473.095934 
L 230.266794 472.433474 
L 235.121078 472.271485 
L 239.975363 472.390277 
L 244.829647 470.895267 
L 249.683932 472.79949 
L 254.538216 470.628933 
L 259.392501 474.096013 
L 264.246785 479.169199 
L 269.10107 478.521501 
L 273.955354 478.805246 
L 278.809639 480.090352 
L 283.663923 480.077053 
L 293.372492 480.892216 
L 298.226777 480.943868 
L 303.081061 479.586273 
L 307.935346 481.645741 
L 312.78963 481.348927 
L 317.643914 481.553827 
L 322.498199 481.987158 
L 327.352483 482.143913 
L 332.206768 480.904885 
L 337.061052 480.565964 
L 341.915337 480.468133 
L 351.623906 481.228512 
L 356.47819 481.31022 
L 361.332475 479.987264 
L 366.186759 482.85422 
L 371.041044 482.513789 
L 375.895328 482.679536 
L 380.749613 483.114268 
L 385.603897 483.273556 
L 395.312466 480.848646 
L 400.16675 480.700575 
L 405.021035 480.997423 
L 409.875319 481.428393 
L 414.729604 481.527966 
L 419.583888 480.225594 
L 424.438173 478.003093 
L 429.292457 478.858331 
L 434.146742 479.863461 
L 439.001026 480.264324 
L 443.855311 479.950537 
L 448.709595 478.57703 
L 453.56388 474.231894 
L 458.418164 474.432473 
L 468.126733 475.818818 
L 472.981018 476.083149 
L 477.835302 474.746018 
L 482.689587 474.367966 
L 487.543871 474.992247 
L 492.398155 474.984809 
L 497.25244 474.071666 
L 502.106724 472.670122 
L 506.961009 470.39669 
L 511.815293 467.942693 
L 516.669578 468.099517 
L 521.523862 468.96595 
L 526.378147 469.601121 
L 531.232431 469.833435 
L 536.086716 468.499986 
L 540.941 459.087536 
L 550.649569 459.348622 
L 560.358138 457.989926 
L 565.212423 455.96932 
L 570.066707 464.187762 
L 574.920991 464.24768 
L 579.775276 464.497387 
L 589.483845 463.630251 
L 594.338129 461.905647 
L 599.192414 466.977087 
L 604.046698 468.016444 
L 608.900983 469.342873 
L 613.755267 470.002047 
L 618.609552 469.889076 
L 623.463836 468.175152 
L 628.318121 465.025941 
L 633.172405 464.736606 
L 642.880974 466.082602 
L 647.735259 466.20445 
L 652.589543 464.914464 
L 657.443827 465.281034 
L 662.298112 464.415542 
L 667.152396 465.861084 
L 672.006681 467.540146 
L 676.860965 468.406732 
L 681.71525 468.404253 
L 686.569534 469.703079 
L 691.423819 469.332713 
L 696.278103 470.234912 
L 701.132388 471.297414 
L 705.986672 471.233662 
L 710.840957 469.925127 
L 715.695241 464.703253 
L 720.549526 463.50693 
L 725.40381 464.475233 
L 730.258095 466.044814 
L 735.112379 466.119915 
L 739.966663 465.090953 
L 744.820948 463.83725 
L 749.675232 463.75934 
L 754.529517 463.948473 
L 764.238086 463.149906 
L 769.09237 461.487637 
L 773.946655 461.37835 
L 778.800939 461.092213 
L 783.655224 460.354756 
L 788.509508 458.573486 
L 793.363793 456.980214 
L 798.218077 454.722324 
L 803.072362 443.783629 
L 807.926646 446.263915 
L 812.780931 447.644498 
L 817.635215 446.47862 
L 822.4895 444.340501 
L 827.343784 441.146864 
L 832.198068 455.990699 
L 837.052353 455.574567 
L 841.906637 453.587635 
L 846.760922 449.732824 
L 851.615206 446.347301 
L 856.469491 443.134744 
L 861.323775 445.920059 
L 866.17806 444.990423 
L 871.032344 446.804169 
L 875.886629 448.042524 
L 880.740913 447.67899 
L 885.595198 447.462293 
L 890.449482 448.396233 
L 895.303767 450.47308 
L 900.158051 450.32323 
L 905.012336 447.193864 
L 909.86662 443.511172 
L 914.720904 439.589397 
L 919.575189 442.325706 
L 924.429473 443.621332 
L 929.283758 443.730648 
L 934.138042 441.31679 
L 938.992327 438.704585 
L 943.846611 435.521321 
L 948.700896 438.150124 
L 953.55518 437.980303 
L 958.409465 435.423005 
L 963.263749 429.885066 
L 968.118034 425.115335 
L 972.972318 421.021226 
L 977.826603 396.191624 
L 982.680887 387.195724 
L 987.535172 381.118608 
L 992.389456 373.827906 
L 997.24374 371.549972 
L 1002.098025 371.390734 
L 1006.952309 357.891962 
L 1011.806594 354.316022 
L 1016.660878 342.964461 
L 1021.515163 322.131824 
L 1026.369447 304.822141 
L 1031.223732 293.392633 
L 1036.078016 300.275205 
L 1040.932301 311.417439 
L 1045.786585 321.830286 
L 1050.64087 320.1713 
L 1055.495154 314.877526 
L 1060.349439 308.329987 
L 1065.203723 269.026441 
L 1070.058008 265.366233 
L 1074.912292 249.694474 
L 1079.766577 221.105947 
L 1084.620861 198.705442 
L 1089.475145 183.20093 
L 1094.32943 175.313025 
L 1099.183714 163.722949 
L 1104.037999 144.514948 
L 1108.892283 110.358254 
L 1113.746568 86.032852 
L 1118.600852 70.286652 
L 1118.600852 70.286652 
" style="fill:none;stroke:#008000;stroke-dasharray:5.55,2.4;stroke-dashoffset:0;stroke-width:1.5;"/>
   </g>
   <g id="line2d_12">
    <path clip-path="url(#p4df48b1bdb)" d="M 104.055398 484.174672 
L 108.909682 480.398268 
L 113.763967 485.361541 
L 118.618251 483.311494 
L 123.472536 484.066775 
L 128.32682 486.98 
L 133.181105 469.824339 
L 138.035389 464.753168 
L 142.889673 461.732046 
L 147.743958 471.766489 
L 152.598242 464.753168 
L 157.452527 469.500647 
L 162.306811 473.816537 
L 167.161096 463.242607 
L 172.01538 470.363825 
L 176.869665 470.471722 
L 181.723949 470.14803 
L 186.578234 472.090181 
L 191.432518 471.766489 
L 196.286803 468.097983 
L 201.141087 464.968963 
L 205.995372 475.434995 
L 210.849656 469.824339 
L 215.703941 472.953359 
L 220.558225 473.061256 
L 225.41251 470.579619 
L 230.266794 478.671912 
L 235.121078 471.550695 
L 239.975363 469.176955 
L 244.829647 454.93452 
L 249.683932 479.427193 
L 254.538216 481.153549 
L 259.392501 478.240324 
L 264.246785 481.369343 
L 269.10107 478.348221 
L 273.955354 481.045652 
L 278.809639 479.966679 
L 283.663923 480.182474 
L 288.518208 481.153549 
L 293.372492 477.269248 
L 298.226777 480.506166 
L 303.081061 484.498363 
L 307.935346 481.693035 
L 312.78963 481.585138 
L 317.643914 482.232521 
L 322.498199 479.53509 
L 327.352483 482.232521 
L 332.206768 480.937755 
L 337.061052 481.90883 
L 341.915337 483.203597 
L 346.769621 481.800932 
L 351.623906 482.879905 
L 356.47819 482.772008 
L 361.332475 484.066775 
L 366.186759 481.693035 
L 371.041044 484.606261 
L 375.895328 480.398268 
L 380.749613 482.448316 
L 385.603897 483.527288 
L 390.458182 480.398268 
L 395.312466 480.506166 
L 400.16675 482.987802 
L 405.021035 480.614063 
L 409.875319 482.556213 
L 414.729604 482.232521 
L 419.583888 479.103501 
L 424.438173 480.506166 
L 429.292457 469.932236 
L 434.146742 454.93452 
L 439.001026 478.240324 
L 443.855311 480.829857 
L 448.709595 475.866584 
L 453.56388 483.203597 
L 458.418164 479.427193 
L 463.272449 475.219201 
L 468.126733 476.298173 
L 472.981018 477.700837 
L 477.835302 478.77981 
L 482.689587 477.916632 
L 487.543871 474.679715 
L 492.398155 468.097983 
L 497.25244 474.248126 
L 502.106724 471.227003 
L 506.961009 469.284853 
L 511.815293 467.666394 
L 516.669578 467.01901 
L 521.523862 467.126908 
L 526.378147 461.839943 
L 531.232431 454.826622 
L 536.086716 463.674196 
L 540.941 458.495128 
L 545.795285 460.976765 
L 550.649569 459.034615 
L 555.503854 460.545176 
L 560.358138 461.300457 
L 565.212423 464.213682 
L 570.066707 465.724244 
L 574.920991 470.795414 
L 579.775276 471.982284 
L 584.62956 460.653073 
L 589.483845 462.703121 
L 594.338129 472.198078 
L 599.192414 467.234805 
L 604.046698 469.069058 
L 608.900983 466.911113 
L 613.755267 456.660875 
L 618.609552 464.968963 
L 628.318121 465.508449 
L 633.172405 471.766489 
L 638.02669 466.803216 
L 642.880974 460.653073 
L 647.735259 471.874386 
L 652.589543 472.198078 
L 657.443827 467.774291 
L 662.298112 469.608544 
L 667.152396 463.458402 
L 672.006681 462.595224 
L 676.860965 470.687517 
L 681.71525 473.061256 
L 686.569534 468.097983 
L 691.423819 465.184757 
L 696.278103 469.716441 
L 701.132388 470.363825 
L 705.986672 470.040133 
L 710.840957 473.600742 
L 715.695241 472.737564 
L 720.549526 467.990086 
L 725.40381 462.811018 
L 730.258095 466.479524 
L 735.112379 468.421675 
L 739.966663 459.681998 
L 744.820948 470.471722 
L 749.675232 465.292655 
L 754.529517 461.192559 
L 759.383801 466.371627 
L 764.238086 466.695319 
L 769.09237 465.07686 
L 773.946655 457.308259 
L 778.800939 457.524053 
L 783.655224 446.842226 
L 788.509508 456.229286 
L 793.363793 452.668677 
L 798.218077 451.913397 
L 803.072362 461.300457 
L 807.926646 449.647555 
L 812.780931 455.042417 
L 817.635215 455.474006 
L 822.4895 456.121389 
L 827.343784 458.171437 
L 832.198068 452.129191 
L 837.052353 451.8055 
L 841.906637 437.994653 
L 846.760922 447.48961 
L 851.615206 445.223768 
L 856.469491 447.597507 
L 861.323775 460.545176 
L 866.17806 445.331665 
L 871.032344 459.574101 
L 875.886629 448.460685 
L 885.595198 455.474006 
L 890.449482 456.013492 
L 895.303767 454.826622 
L 900.158051 452.237088 
L 905.012336 441.555262 
L 909.86662 433.570866 
L 914.720904 449.647555 
L 919.575189 444.144795 
L 924.429473 432.060304 
L 929.283758 428.499696 
L 934.138042 445.439562 
L 938.992327 432.599791 
L 943.846611 441.663159 
L 948.700896 427.097031 
L 953.55518 434.326147 
L 958.409465 422.565347 
L 963.263749 419.004738 
L 968.118034 424.183806 
L 972.972318 413.501979 
L 977.826603 401.093796 
L 982.680887 408.107117 
L 987.535172 380.485423 
L 992.389456 354.158497 
L 997.24374 373.903692 
L 1002.098025 359.013873 
L 1006.952309 357.287517 
L 1011.806594 358.905975 
L 1016.660878 316.718154 
L 1021.515163 333.442226 
L 1026.369447 331.607973 
L 1031.223732 287.15431 
L 1036.078016 298.807212 
L 1040.932301 320.38666 
L 1045.786585 307.438991 
L 1050.64087 302.259924 
L 1055.495154 336.787041 
L 1060.349439 289.096461 
L 1065.203723 313.481237 
L 1070.058008 281.759448 
L 1074.912292 244.319106 
L 1079.766577 216.697412 
L 1084.620861 199.541751 
L 1089.475145 163.072483 
L 1094.32943 213.784186 
L 1099.183714 161.022436 
L 1104.037999 90.889229 
L 1108.892283 80.962683 
L 1113.746568 33.38 
L 1118.600852 102.110542 
L 1118.600852 102.110542 
" style="fill:none;stroke:#ff7f0e;stroke-linecap:square;stroke-width:1.5;"/>
   </g>
   <g id="line2d_13">
    <defs>
     <path d="M 0 3 
C 0.795609 3 1.55874 2.683901 2.12132 2.12132 
C 2.683901 1.55874 3 0.795609 3 0 
C 3 -0.795609 2.683901 -1.55874 2.12132 -2.12132 
C 1.55874 -2.683901 0.795609 -3 0 -3 
C -0.795609 -3 -1.55874 -2.683901 -2.12132 -2.12132 
C -2.683901 -1.55874 -3 -0.795609 -3 0 
C -3 0.795609 -2.683901 1.55874 -2.12132 2.12132 
C -1.55874 2.683901 -0.795609 3 0 3 
z
" id="mc11efd326b" style="stroke:#008000;"/>
    </defs>
    <g clip-path="url(#p4df48b1bdb)">
     <use style="fill:#008000;stroke:#008000;" x="104.055398" xlink:href="#mc11efd326b" y="482.426045"/>
     <use style="fill:#008000;stroke:#008000;" x="133.181105" xlink:href="#mc11efd326b" y="481.952969"/>
     <use style="fill:#008000;stroke:#008000;" x="162.306811" xlink:href="#mc11efd326b" y="463.53401"/>
     <use style="fill:#008000;stroke:#008000;" x="191.432518" xlink:href="#mc11efd326b" y="468.659751"/>
     <use style="fill:#008000;stroke:#008000;" x="220.558225" xlink:href="#mc11efd326b" y="474.370965"/>
     <use style="fill:#008000;stroke:#008000;" x="249.683932" xlink:href="#mc11efd326b" y="472.79949"/>
     <use style="fill:#008000;stroke:#008000;" x="278.809639" xlink:href="#mc11efd326b" y="480.090352"/>
     <use style="fill:#008000;stroke:#008000;" x="307.935346" xlink:href="#mc11efd326b" y="481.645741"/>
     <use style="fill:#008000;stroke:#008000;" x="337.061052" xlink:href="#mc11efd326b" y="480.565964"/>
     <use style="fill:#008000;stroke:#008000;" x="366.186759" xlink:href="#mc11efd326b" y="482.85422"/>
     <use style="fill:#008000;stroke:#008000;" x="395.312466" xlink:href="#mc11efd326b" y="480.848646"/>
     <use style="fill:#008000;stroke:#008000;" x="424.438173" xlink:href="#mc11efd326b" y="478.003093"/>
     <use style="fill:#008000;stroke:#008000;" x="453.56388" xlink:href="#mc11efd326b" y="474.231894"/>
     <use style="fill:#008000;stroke:#008000;" x="482.689587" xlink:href="#mc11efd326b" y="474.367966"/>
     <use style="fill:#008000;stroke:#008000;" x="511.815293" xlink:href="#mc11efd326b" y="467.942693"/>
     <use style="fill:#008000;stroke:#008000;" x="540.941" xlink:href="#mc11efd326b" y="459.087536"/>
     <use style="fill:#008000;stroke:#008000;" x="570.066707" xlink:href="#mc11efd326b" y="464.187762"/>
     <use style="fill:#008000;stroke:#008000;" x="599.192414" xlink:href="#mc11efd326b" y="466.977087"/>
     <use style="fill:#008000;stroke:#008000;" x="628.318121" xlink:href="#mc11efd326b" y="465.025941"/>
     <use style="fill:#008000;stroke:#008000;" x="657.443827" xlink:href="#mc11efd326b" y="465.281034"/>
     <use style="fill:#008000;stroke:#008000;" x="686.569534" xlink:href="#mc11efd326b" y="469.703079"/>
     <use style="fill:#008000;stroke:#008000;" x="715.695241" xlink:href="#mc11efd326b" y="464.703253"/>
     <use style="fill:#008000;stroke:#008000;" x="744.820948" xlink:href="#mc11efd326b" y="463.83725"/>
     <use style="fill:#008000;stroke:#008000;" x="773.946655" xlink:href="#mc11efd326b" y="461.37835"/>
     <use style="fill:#008000;stroke:#008000;" x="803.072362" xlink:href="#mc11efd326b" y="443.783629"/>
     <use style="fill:#008000;stroke:#008000;" x="832.198068" xlink:href="#mc11efd326b" y="455.990699"/>
     <use style="fill:#008000;stroke:#008000;" x="861.323775" xlink:href="#mc11efd326b" y="445.920059"/>
     <use style="fill:#008000;stroke:#008000;" x="890.449482" xlink:href="#mc11efd326b" y="448.396233"/>
     <use style="fill:#008000;stroke:#008000;" x="919.575189" xlink:href="#mc11efd326b" y="442.325706"/>
     <use style="fill:#008000;stroke:#008000;" x="948.700896" xlink:href="#mc11efd326b" y="438.150124"/>
     <use style="fill:#008000;stroke:#008000;" x="977.826603" xlink:href="#mc11efd326b" y="396.191624"/>
     <use style="fill:#008000;stroke:#008000;" x="1006.952309" xlink:href="#mc11efd326b" y="357.891962"/>
     <use style="fill:#008000;stroke:#008000;" x="1036.078016" xlink:href="#mc11efd326b" y="300.275205"/>
     <use style="fill:#008000;stroke:#008000;" x="1065.203723" xlink:href="#mc11efd326b" y="269.026441"/>
     <use style="fill:#008000;stroke:#008000;" x="1094.32943" xlink:href="#mc11efd326b" y="175.313025"/>
    </g>
   </g>
   <g id="patch_3">
    <path d="M 53.328125 509.66 
L 53.328125 10.7 
" style="fill:none;stroke:#000000;stroke-linecap:square;stroke-linejoin:miter;stroke-width:0.8;"/>
   </g>
   <g id="patch_4">
    <path d="M 1169.328125 509.66 
L 1169.328125 10.7 
" style="fill:none;stroke:#000000;stroke-linecap:square;stroke-linejoin:miter;stroke-width:0.8;"/>
   </g>
   <g id="patch_5">
    <path d="M 53.328125 509.66 
L 1169.328125 509.66 
" style="fill:none;stroke:#000000;stroke-linecap:square;stroke-linejoin:miter;stroke-width:0.8;"/>
   </g>
   <g id="patch_6">
    <path d="M 53.328125 10.7 
L 1169.328125 10.7 
" style="fill:none;stroke:#000000;stroke-linecap:square;stroke-linejoin:miter;stroke-width:0.8;"/>
   </g>
   <g id="legend_1">
    <g id="patch_7">
     <path d="M 60.328125 62.734375 
L 208.103125 62.734375 
Q 210.103125 62.734375 210.103125 60.734375 
L 210.103125 17.7 
Q 210.103125 15.7 208.103125 15.7 
L 60.328125 15.7 
Q 58.328125 15.7 58.328125 17.7 
L 58.328125 60.734375 
Q 58.328125 62.734375 60.328125 62.734375 
z
" style="fill:#ffffff;opacity:0.8;stroke:#cccccc;stroke-linejoin:miter;"/>
    </g>
    <g id="line2d_14">
     <path d="M 62.328125 23.798437 
L 82.328125 23.798437 
" style="fill:none;stroke:#008000;stroke-dasharray:5.55,2.4;stroke-dashoffset:0;stroke-width:1.5;"/>
    </g>
    <g id="line2d_15"/>
    <g id="text_13">
     <!-- Predicated -->
     <defs>
      <path d="M 19.671875 64.796875 
L 19.671875 37.40625 
L 32.078125 37.40625 
Q 38.96875 37.40625 42.71875 40.96875 
Q 46.484375 44.53125 46.484375 51.125 
Q 46.484375 57.671875 42.71875 61.234375 
Q 38.96875 64.796875 32.078125 64.796875 
z
M 9.8125 72.90625 
L 32.078125 72.90625 
Q 44.34375 72.90625 50.609375 67.359375 
Q 56.890625 61.8125 56.890625 51.125 
Q 56.890625 40.328125 50.609375 34.8125 
Q 44.34375 29.296875 32.078125 29.296875 
L 19.671875 29.296875 
L 19.671875 0 
L 9.8125 0 
z
" id="DejaVuSans-50"/>
      <path d="M 41.109375 46.296875 
Q 39.59375 47.171875 37.8125 47.578125 
Q 36.03125 48 33.890625 48 
Q 26.265625 48 22.1875 43.046875 
Q 18.109375 38.09375 18.109375 28.8125 
L 18.109375 0 
L 9.078125 0 
L 9.078125 54.6875 
L 18.109375 54.6875 
L 18.109375 46.1875 
Q 20.953125 51.171875 25.484375 53.578125 
Q 30.03125 56 36.53125 56 
Q 37.453125 56 38.578125 55.875 
Q 39.703125 55.765625 41.0625 55.515625 
z
" id="DejaVuSans-72"/>
      <path d="M 45.40625 46.390625 
L 45.40625 75.984375 
L 54.390625 75.984375 
L 54.390625 0 
L 45.40625 0 
L 45.40625 8.203125 
Q 42.578125 3.328125 38.25 0.953125 
Q 33.9375 -1.421875 27.875 -1.421875 
Q 17.96875 -1.421875 11.734375 6.484375 
Q 5.515625 14.40625 5.515625 27.296875 
Q 5.515625 40.1875 11.734375 48.09375 
Q 17.96875 56 27.875 56 
Q 33.9375 56 38.25 53.625 
Q 42.578125 51.265625 45.40625 46.390625 
z
M 14.796875 27.296875 
Q 14.796875 17.390625 18.875 11.75 
Q 22.953125 6.109375 30.078125 6.109375 
Q 37.203125 6.109375 41.296875 11.75 
Q 45.40625 17.390625 45.40625 27.296875 
Q 45.40625 37.203125 41.296875 42.84375 
Q 37.203125 48.484375 30.078125 48.484375 
Q 22.953125 48.484375 18.875 42.84375 
Q 14.796875 37.203125 14.796875 27.296875 
z
" id="DejaVuSans-64"/>
      <path d="M 48.78125 52.59375 
L 48.78125 44.1875 
Q 44.96875 46.296875 41.140625 47.34375 
Q 37.3125 48.390625 33.40625 48.390625 
Q 24.65625 48.390625 19.8125 42.84375 
Q 14.984375 37.3125 14.984375 27.296875 
Q 14.984375 17.28125 19.8125 11.734375 
Q 24.65625 6.203125 33.40625 6.203125 
Q 37.3125 6.203125 41.140625 7.25 
Q 44.96875 8.296875 48.78125 10.40625 
L 48.78125 2.09375 
Q 45.015625 0.34375 40.984375 -0.53125 
Q 36.96875 -1.421875 32.421875 -1.421875 
Q 20.0625 -1.421875 12.78125 6.34375 
Q 5.515625 14.109375 5.515625 27.296875 
Q 5.515625 40.671875 12.859375 48.328125 
Q 20.21875 56 33.015625 56 
Q 37.15625 56 41.109375 55.140625 
Q 45.0625 54.296875 48.78125 52.59375 
z
" id="DejaVuSans-63"/>
      <path d="M 34.28125 27.484375 
Q 23.390625 27.484375 19.1875 25 
Q 14.984375 22.515625 14.984375 16.5 
Q 14.984375 11.71875 18.140625 8.90625 
Q 21.296875 6.109375 26.703125 6.109375 
Q 34.1875 6.109375 38.703125 11.40625 
Q 43.21875 16.703125 43.21875 25.484375 
L 43.21875 27.484375 
z
M 52.203125 31.203125 
L 52.203125 0 
L 43.21875 0 
L 43.21875 8.296875 
Q 40.140625 3.328125 35.546875 0.953125 
Q 30.953125 -1.421875 24.3125 -1.421875 
Q 15.921875 -1.421875 10.953125 3.296875 
Q 6 8.015625 6 15.921875 
Q 6 25.140625 12.171875 29.828125 
Q 18.359375 34.515625 30.609375 34.515625 
L 43.21875 34.515625 
L 43.21875 35.40625 
Q 43.21875 41.609375 39.140625 45 
Q 35.0625 48.390625 27.6875 48.390625 
Q 23 48.390625 18.546875 47.265625 
Q 14.109375 46.140625 10.015625 43.890625 
L 10.015625 52.203125 
Q 14.9375 54.109375 19.578125 55.046875 
Q 24.21875 56 28.609375 56 
Q 40.484375 56 46.34375 49.84375 
Q 52.203125 43.703125 52.203125 31.203125 
z
" id="DejaVuSans-61"/>
      <path d="M 18.3125 70.21875 
L 18.3125 54.6875 
L 36.8125 54.6875 
L 36.8125 47.703125 
L 18.3125 47.703125 
L 18.3125 18.015625 
Q 18.3125 11.328125 20.140625 9.421875 
Q 21.96875 7.515625 27.59375 7.515625 
L 36.8125 7.515625 
L 36.8125 0 
L 27.59375 0 
Q 17.1875 0 13.234375 3.875 
Q 9.28125 7.765625 9.28125 18.015625 
L 9.28125 47.703125 
L 2.6875 47.703125 
L 2.6875 54.6875 
L 9.28125 54.6875 
L 9.28125 70.21875 
z
" id="DejaVuSans-74"/>
     </defs>
     <g transform="translate(90.328125 27.298437)scale(0.1 -0.1)">
      <use xlink:href="#DejaVuSans-50"/>
      <use x="60.287109" xlink:href="#DejaVuSans-72"/>
      <use x="101.369141" xlink:href="#DejaVuSans-65"/>
      <use x="162.892578" xlink:href="#DejaVuSans-64"/>
      <use x="226.369141" xlink:href="#DejaVuSans-69"/>
      <use x="254.152344" xlink:href="#DejaVuSans-63"/>
      <use x="309.132812" xlink:href="#DejaVuSans-61"/>
      <use x="370.412109" xlink:href="#DejaVuSans-74"/>
      <use x="409.621094" xlink:href="#DejaVuSans-65"/>
      <use x="471.144531" xlink:href="#DejaVuSans-64"/>
     </g>
    </g>
    <g id="line2d_16">
     <path d="M 62.328125 38.476562 
L 82.328125 38.476562 
" style="fill:none;stroke:#ff7f0e;stroke-linecap:square;stroke-width:1.5;"/>
    </g>
    <g id="line2d_17"/>
    <g id="text_14">
     <!-- Real Data -->
     <defs>
      <path d="M 9.421875 75.984375 
L 18.40625 75.984375 
L 18.40625 0 
L 9.421875 0 
z
" id="DejaVuSans-6c"/>
      <path id="DejaVuSans-20"/>
      <path d="M 19.671875 64.796875 
L 19.671875 8.109375 
L 31.59375 8.109375 
Q 46.6875 8.109375 53.6875 14.9375 
Q 60.6875 21.78125 60.6875 36.53125 
Q 60.6875 51.171875 53.6875 57.984375 
Q 46.6875 64.796875 31.59375 64.796875 
z
M 9.8125 72.90625 
L 30.078125 72.90625 
Q 51.265625 72.90625 61.171875 64.09375 
Q 71.09375 55.28125 71.09375 36.53125 
Q 71.09375 17.671875 61.125 8.828125 
Q 51.171875 0 30.078125 0 
L 9.8125 0 
z
" id="DejaVuSans-44"/>
     </defs>
     <g transform="translate(90.328125 41.976562)scale(0.1 -0.1)">
      <use xlink:href="#DejaVuSans-52"/>
      <use x="69.419922" xlink:href="#DejaVuSans-65"/>
      <use x="130.943359" xlink:href="#DejaVuSans-61"/>
      <use x="192.222656" xlink:href="#DejaVuSans-6c"/>
      <use x="220.005859" xlink:href="#DejaVuSans-20"/>
      <use x="251.792969" xlink:href="#DejaVuSans-44"/>
      <use x="328.794922" xlink:href="#DejaVuSans-61"/>
      <use x="390.074219" xlink:href="#DejaVuSans-74"/>
      <use x="429.283203" xlink:href="#DejaVuSans-61"/>
     </g>
    </g>
    <g id="line2d_18"/>
    <g id="line2d_19">
     <g>
      <use style="fill:#008000;stroke:#008000;" x="72.328125" xlink:href="#mc11efd326b" y="53.154688"/>
     </g>
    </g>
    <g id="text_15">
     <!-- Start Point for Forecast -->
     <defs>
      <path d="M 53.515625 70.515625 
L 53.515625 60.890625 
Q 47.90625 63.578125 42.921875 64.890625 
Q 37.9375 66.21875 33.296875 66.21875 
Q 25.25 66.21875 20.875 63.09375 
Q 16.5 59.96875 16.5 54.203125 
Q 16.5 49.359375 19.40625 46.890625 
Q 22.3125 44.4375 30.421875 42.921875 
L 36.375 41.703125 
Q 47.40625 39.59375 52.65625 34.296875 
Q 57.90625 29 57.90625 20.125 
Q 57.90625 9.515625 50.796875 4.046875 
Q 43.703125 -1.421875 29.984375 -1.421875 
Q 24.8125 -1.421875 18.96875 -0.25 
Q 13.140625 0.921875 6.890625 3.21875 
L 6.890625 13.375 
Q 12.890625 10.015625 18.65625 8.296875 
Q 24.421875 6.59375 29.984375 6.59375 
Q 38.421875 6.59375 43.015625 9.90625 
Q 47.609375 13.234375 47.609375 19.390625 
Q 47.609375 24.75 44.3125 27.78125 
Q 41.015625 30.8125 33.5 32.328125 
L 27.484375 33.5 
Q 16.453125 35.6875 11.515625 40.375 
Q 6.59375 45.0625 6.59375 53.421875 
Q 6.59375 63.09375 13.40625 68.65625 
Q 20.21875 74.21875 32.171875 74.21875 
Q 37.3125 74.21875 42.625 73.28125 
Q 47.953125 72.359375 53.515625 70.515625 
z
" id="DejaVuSans-53"/>
      <path d="M 30.609375 48.390625 
Q 23.390625 48.390625 19.1875 42.75 
Q 14.984375 37.109375 14.984375 27.296875 
Q 14.984375 17.484375 19.15625 11.84375 
Q 23.34375 6.203125 30.609375 6.203125 
Q 37.796875 6.203125 41.984375 11.859375 
Q 46.1875 17.53125 46.1875 27.296875 
Q 46.1875 37.015625 41.984375 42.703125 
Q 37.796875 48.390625 30.609375 48.390625 
z
M 30.609375 56 
Q 42.328125 56 49.015625 48.375 
Q 55.71875 40.765625 55.71875 27.296875 
Q 55.71875 13.875 49.015625 6.21875 
Q 42.328125 -1.421875 30.609375 -1.421875 
Q 18.84375 -1.421875 12.171875 6.21875 
Q 5.515625 13.875 5.515625 27.296875 
Q 5.515625 40.765625 12.171875 48.375 
Q 18.84375 56 30.609375 56 
z
" id="DejaVuSans-6f"/>
      <path d="M 54.890625 33.015625 
L 54.890625 0 
L 45.90625 0 
L 45.90625 32.71875 
Q 45.90625 40.484375 42.875 44.328125 
Q 39.84375 48.1875 33.796875 48.1875 
Q 26.515625 48.1875 22.3125 43.546875 
Q 18.109375 38.921875 18.109375 30.90625 
L 18.109375 0 
L 9.078125 0 
L 9.078125 54.6875 
L 18.109375 54.6875 
L 18.109375 46.1875 
Q 21.34375 51.125 25.703125 53.5625 
Q 30.078125 56 35.796875 56 
Q 45.21875 56 50.046875 50.171875 
Q 54.890625 44.34375 54.890625 33.015625 
z
" id="DejaVuSans-6e"/>
      <path d="M 9.8125 72.90625 
L 51.703125 72.90625 
L 51.703125 64.59375 
L 19.671875 64.59375 
L 19.671875 43.109375 
L 48.578125 43.109375 
L 48.578125 34.8125 
L 19.671875 34.8125 
L 19.671875 0 
L 9.8125 0 
z
" id="DejaVuSans-46"/>
     </defs>
     <g transform="translate(90.328125 56.654688)scale(0.1 -0.1)">
      <use xlink:href="#DejaVuSans-53"/>
      <use x="63.476562" xlink:href="#DejaVuSans-74"/>
      <use x="102.685547" xlink:href="#DejaVuSans-61"/>
      <use x="163.964844" xlink:href="#DejaVuSans-72"/>
      <use x="205.078125" xlink:href="#DejaVuSans-74"/>
      <use x="244.287109" xlink:href="#DejaVuSans-20"/>
      <use x="276.074219" xlink:href="#DejaVuSans-50"/>
      <use x="336.330078" xlink:href="#DejaVuSans-6f"/>
      <use x="397.511719" xlink:href="#DejaVuSans-69"/>
      <use x="425.294922" xlink:href="#DejaVuSans-6e"/>
      <use x="488.673828" xlink:href="#DejaVuSans-74"/>
      <use x="527.882812" xlink:href="#DejaVuSans-20"/>
      <use x="559.669922" xlink:href="#DejaVuSans-66"/>
      <use x="594.875" xlink:href="#DejaVuSans-6f"/>
      <use x="656.056641" xlink:href="#DejaVuSans-72"/>
      <use x="697.169922" xlink:href="#DejaVuSans-20"/>
      <use x="728.957031" xlink:href="#DejaVuSans-46"/>
      <use x="786.429688" xlink:href="#DejaVuSans-6f"/>
      <use x="847.611328" xlink:href="#DejaVuSans-72"/>
      <use x="888.693359" xlink:href="#DejaVuSans-65"/>
      <use x="950.216797" xlink:href="#DejaVuSans-63"/>
      <use x="1005.197266" xlink:href="#DejaVuSans-61"/>
      <use x="1066.476562" xlink:href="#DejaVuSans-73"/>
      <use x="1118.576172" xlink:href="#DejaVuSans-74"/>
     </g>
    </g>
   </g>
  </g>
  <g id="axes_2">
   <g id="patch_8">
    <path d="M 53.328125 645.74 
L 1170.768125 645.74 
L 1170.768125 516.14 
L 53.328125 516.14 
z
" style="fill:none;"/>
   </g>
   <g id="matplotlib.axis_3">
    <g id="xtick_6">
     <g id="line2d_20">
      <g>
       <use style="stroke:#000000;stroke-width:0.8;" x="104.120852" xlink:href="#m1caafc1be9" y="645.74"/>
      </g>
     </g>
     <g id="text_16">
      <!-- 0 -->
      <g transform="translate(100.939602 660.338437)scale(0.1 -0.1)">
       <use xlink:href="#DejaVuSans-30"/>
      </g>
     </g>
    </g>
    <g id="xtick_7">
     <g id="line2d_21">
      <g>
       <use style="stroke:#000000;stroke-width:0.8;" x="228.612831" xlink:href="#m1caafc1be9" y="645.74"/>
      </g>
     </g>
     <g id="text_17">
      <!-- 25 -->
      <g transform="translate(222.250331 660.338437)scale(0.1 -0.1)">
       <use xlink:href="#DejaVuSans-32"/>
       <use x="63.623047" xlink:href="#DejaVuSans-35"/>
      </g>
     </g>
    </g>
    <g id="xtick_8">
     <g id="line2d_22">
      <g>
       <use style="stroke:#000000;stroke-width:0.8;" x="353.104809" xlink:href="#m1caafc1be9" y="645.74"/>
      </g>
     </g>
     <g id="text_18">
      <!-- 50 -->
      <g transform="translate(346.742309 660.338437)scale(0.1 -0.1)">
       <use xlink:href="#DejaVuSans-35"/>
       <use x="63.623047" xlink:href="#DejaVuSans-30"/>
      </g>
     </g>
    </g>
    <g id="xtick_9">
     <g id="line2d_23">
      <g>
       <use style="stroke:#000000;stroke-width:0.8;" x="477.596788" xlink:href="#m1caafc1be9" y="645.74"/>
      </g>
     </g>
     <g id="text_19">
      <!-- 75 -->
      <defs>
       <path d="M 8.203125 72.90625 
L 55.078125 72.90625 
L 55.078125 68.703125 
L 28.609375 0 
L 18.3125 0 
L 43.21875 64.59375 
L 8.203125 64.59375 
z
" id="DejaVuSans-37"/>
      </defs>
      <g transform="translate(471.234288 660.338437)scale(0.1 -0.1)">
       <use xlink:href="#DejaVuSans-37"/>
       <use x="63.623047" xlink:href="#DejaVuSans-35"/>
      </g>
     </g>
    </g>
    <g id="xtick_10">
     <g id="line2d_24">
      <g>
       <use style="stroke:#000000;stroke-width:0.8;" x="602.088767" xlink:href="#m1caafc1be9" y="645.74"/>
      </g>
     </g>
     <g id="text_20">
      <!-- 100 -->
      <g transform="translate(592.545017 660.338437)scale(0.1 -0.1)">
       <use xlink:href="#DejaVuSans-31"/>
       <use x="63.623047" xlink:href="#DejaVuSans-30"/>
       <use x="127.246094" xlink:href="#DejaVuSans-30"/>
      </g>
     </g>
    </g>
    <g id="xtick_11">
     <g id="line2d_25">
      <g>
       <use style="stroke:#000000;stroke-width:0.8;" x="726.580745" xlink:href="#m1caafc1be9" y="645.74"/>
      </g>
     </g>
     <g id="text_21">
      <!-- 125 -->
      <g transform="translate(717.036995 660.338437)scale(0.1 -0.1)">
       <use xlink:href="#DejaVuSans-31"/>
       <use x="63.623047" xlink:href="#DejaVuSans-32"/>
       <use x="127.246094" xlink:href="#DejaVuSans-35"/>
      </g>
     </g>
    </g>
    <g id="xtick_12">
     <g id="line2d_26">
      <g>
       <use style="stroke:#000000;stroke-width:0.8;" x="851.072724" xlink:href="#m1caafc1be9" y="645.74"/>
      </g>
     </g>
     <g id="text_22">
      <!-- 150 -->
      <g transform="translate(841.528974 660.338437)scale(0.1 -0.1)">
       <use xlink:href="#DejaVuSans-31"/>
       <use x="63.623047" xlink:href="#DejaVuSans-35"/>
       <use x="127.246094" xlink:href="#DejaVuSans-30"/>
      </g>
     </g>
    </g>
    <g id="xtick_13">
     <g id="line2d_27">
      <g>
       <use style="stroke:#000000;stroke-width:0.8;" x="975.564703" xlink:href="#m1caafc1be9" y="645.74"/>
      </g>
     </g>
     <g id="text_23">
      <!-- 175 -->
      <g transform="translate(966.020953 660.338437)scale(0.1 -0.1)">
       <use xlink:href="#DejaVuSans-31"/>
       <use x="63.623047" xlink:href="#DejaVuSans-37"/>
       <use x="127.246094" xlink:href="#DejaVuSans-35"/>
      </g>
     </g>
    </g>
    <g id="xtick_14">
     <g id="line2d_28">
      <g>
       <use style="stroke:#000000;stroke-width:0.8;" x="1100.056681" xlink:href="#m1caafc1be9" y="645.74"/>
      </g>
     </g>
     <g id="text_24">
      <!-- 200 -->
      <g transform="translate(1090.512931 660.338437)scale(0.1 -0.1)">
       <use xlink:href="#DejaVuSans-32"/>
       <use x="63.623047" xlink:href="#DejaVuSans-30"/>
       <use x="127.246094" xlink:href="#DejaVuSans-30"/>
      </g>
     </g>
    </g>
   </g>
   <g id="matplotlib.axis_4">
    <g id="ytick_6">
     <g id="line2d_29">
      <g>
       <use style="stroke:#000000;stroke-width:0.8;" x="53.328125" xlink:href="#m854bd63062" y="634.884691"/>
      </g>
     </g>
     <g id="text_25">
      <!-- 15 -->
      <g transform="translate(33.603125 638.683909)scale(0.1 -0.1)">
       <use xlink:href="#DejaVuSans-31"/>
       <use x="63.623047" xlink:href="#DejaVuSans-35"/>
      </g>
     </g>
    </g>
    <g id="ytick_7">
     <g id="line2d_30">
      <g>
       <use style="stroke:#000000;stroke-width:0.8;" x="53.328125" xlink:href="#m854bd63062" y="606.581382"/>
      </g>
     </g>
     <g id="text_26">
      <!-- 20 -->
      <g transform="translate(33.603125 610.380601)scale(0.1 -0.1)">
       <use xlink:href="#DejaVuSans-32"/>
       <use x="63.623047" xlink:href="#DejaVuSans-30"/>
      </g>
     </g>
    </g>
    <g id="ytick_8">
     <g id="line2d_31">
      <g>
       <use style="stroke:#000000;stroke-width:0.8;" x="53.328125" xlink:href="#m854bd63062" y="578.278074"/>
      </g>
     </g>
     <g id="text_27">
      <!-- 25 -->
      <g transform="translate(33.603125 582.077293)scale(0.1 -0.1)">
       <use xlink:href="#DejaVuSans-32"/>
       <use x="63.623047" xlink:href="#DejaVuSans-35"/>
      </g>
     </g>
    </g>
    <g id="ytick_9">
     <g id="line2d_32">
      <g>
       <use style="stroke:#000000;stroke-width:0.8;" x="53.328125" xlink:href="#m854bd63062" y="549.974765"/>
      </g>
     </g>
     <g id="text_28">
      <!-- 30 -->
      <g transform="translate(33.603125 553.773984)scale(0.1 -0.1)">
       <use xlink:href="#DejaVuSans-33"/>
       <use x="63.623047" xlink:href="#DejaVuSans-30"/>
      </g>
     </g>
    </g>
    <g id="ytick_10">
     <g id="line2d_33">
      <g>
       <use style="stroke:#000000;stroke-width:0.8;" x="53.328125" xlink:href="#m854bd63062" y="521.671457"/>
      </g>
     </g>
     <g id="text_29">
      <!-- 35 -->
      <g transform="translate(33.603125 525.470676)scale(0.1 -0.1)">
       <use xlink:href="#DejaVuSans-33"/>
       <use x="63.623047" xlink:href="#DejaVuSans-35"/>
      </g>
     </g>
    </g>
    <g id="text_30">
     <!-- Temperature -->
     <defs>
      <path d="M 18.109375 8.203125 
L 18.109375 -20.796875 
L 9.078125 -20.796875 
L 9.078125 54.6875 
L 18.109375 54.6875 
L 18.109375 46.390625 
Q 20.953125 51.265625 25.265625 53.625 
Q 29.59375 56 35.59375 56 
Q 45.5625 56 51.78125 48.09375 
Q 58.015625 40.1875 58.015625 27.296875 
Q 58.015625 14.40625 51.78125 6.484375 
Q 45.5625 -1.421875 35.59375 -1.421875 
Q 29.59375 -1.421875 25.265625 0.953125 
Q 20.953125 3.328125 18.109375 8.203125 
z
M 48.6875 27.296875 
Q 48.6875 37.203125 44.609375 42.84375 
Q 40.53125 48.484375 33.40625 48.484375 
Q 26.265625 48.484375 22.1875 42.84375 
Q 18.109375 37.203125 18.109375 27.296875 
Q 18.109375 17.390625 22.1875 11.75 
Q 26.265625 6.109375 33.40625 6.109375 
Q 40.53125 6.109375 44.609375 11.75 
Q 48.6875 17.390625 48.6875 27.296875 
z
" id="DejaVuSans-70"/>
     </defs>
     <g style="fill:#0000ff;" transform="translate(27.523437 613.557187)rotate(-90)scale(0.1 -0.1)">
      <use xlink:href="#DejaVuSans-54"/>
      <use x="60.818359" xlink:href="#DejaVuSans-65"/>
      <use x="122.341797" xlink:href="#DejaVuSans-6d"/>
      <use x="219.753906" xlink:href="#DejaVuSans-70"/>
      <use x="283.230469" xlink:href="#DejaVuSans-65"/>
      <use x="344.753906" xlink:href="#DejaVuSans-72"/>
      <use x="385.867188" xlink:href="#DejaVuSans-61"/>
      <use x="447.146484" xlink:href="#DejaVuSans-74"/>
      <use x="486.355469" xlink:href="#DejaVuSans-75"/>
      <use x="549.734375" xlink:href="#DejaVuSans-72"/>
      <use x="590.816406" xlink:href="#DejaVuSans-65"/>
     </g>
    </g>
   </g>
   <g id="line2d_34">
    <path clip-path="url(#p200a8326c1)" d="M 104.120852 545.84135 
L 109.100531 535.647631 
L 114.080211 550.18704 
L 119.05989 553.599853 
L 124.039569 548.056933 
L 129.019248 544.288631 
L 133.998927 533.989057 
L 138.978606 539.993887 
L 143.958285 535.274027 
L 148.937965 530.254152 
L 153.917644 547.092357 
L 158.897323 537.125063 
L 163.877002 535.429695 
L 168.856681 535.223081 
L 173.83636 543.974464 
L 178.816039 537.747736 
L 183.795719 536.275964 
L 188.775398 537.985484 
L 193.755077 540.409945 
L 198.734756 531.815363 
L 203.714435 534.602107 
L 208.694114 527.747045 
L 213.673793 536.077841 
L 218.653473 539.883504 
L 223.633152 539.681984 
L 228.612831 531.147405 
L 233.59251 545.231131 
L 238.572189 541.125453 
L 243.551868 539.087615 
L 248.531547 535.838395 
L 253.511227 537.074117 
L 258.490906 531.247598 
L 263.470585 529.864133 
L 268.450264 529.29467 
L 273.429943 532.327653 
L 278.409622 543.221596 
L 283.389301 536.668248 
L 288.368981 537.538292 
L 293.34866 546.667241 
L 298.328339 541.246025 
L 303.308018 540.599012 
L 308.287697 539.552355 
L 313.267376 533.925091 
L 318.247055 532.203684 
L 323.226735 526.942665 
L 328.206414 522.629807 
L 333.186093 530.618699 
L 338.165772 545.557185 
L 343.145451 536.725421 
L 348.12513 535.798204 
L 353.104809 537.37017 
L 358.084489 539.428953 
L 363.064168 538.330784 
L 368.043847 536.863541 
L 373.023526 536.048406 
L 378.003205 531.699885 
L 382.982884 525.82242 
L 387.962564 532.324822 
L 392.942243 532.721069 
L 397.921922 540.999786 
L 402.901601 542.157392 
L 407.88128 537.547915 
L 412.860959 549.974765 
L 417.840638 547.158586 
L 422.820318 538.047751 
L 427.799997 537.898876 
L 432.779676 541.360937 
L 437.759355 532.183306 
L 442.739034 527.915167 
L 447.718713 522.030909 
L 452.698392 539.448765 
L 457.678072 542.696853 
L 462.657751 539.839917 
L 467.63743 540.608635 
L 472.617109 540.118421 
L 477.596788 553.411919 
L 482.576467 541.207533 
L 487.556146 536.996 
L 492.535826 537.07808 
L 502.495184 529.05296 
L 507.474863 531.454779 
L 512.454542 534.098308 
L 517.434221 543.476326 
L 522.4139 540.181821 
L 527.39358 539.044028 
L 532.373259 547.458601 
L 537.352938 542.802707 
L 542.332617 550.073827 
L 547.312296 540.241258 
L 552.291975 530.151128 
L 557.271654 534.983635 
L 562.251334 530.153959 
L 567.231013 527.709685 
L 572.210692 543.303676 
L 577.190371 543.85276 
L 582.17005 543.159329 
L 587.149729 549.804946 
L 592.129408 547.461432 
L 597.109088 555.270314 
L 602.088767 543.329149 
L 607.068446 538.245874 
L 612.048125 537.425079 
L 617.027804 537.872271 
L 622.007483 535.159116 
L 626.987162 537.303374 
L 631.966842 547.979382 
L 636.946521 549.131327 
L 641.9262 545.785876 
L 646.905879 549.24454 
L 651.885558 549.946462 
L 656.865237 552.66641 
L 661.844916 546.295335 
L 666.824596 536.188224 
L 671.804275 534.337188 
L 676.783954 530.828143 
L 681.763633 530.85305 
L 686.743312 522.744152 
L 696.70267 539.207055 
L 701.68235 534.212087 
L 706.662029 533.407141 
L 711.641708 534.398323 
L 716.621387 536.829011 
L 721.601066 538.79043 
L 726.580745 537.742076 
L 731.560424 540.504478 
L 736.540104 529.352975 
L 741.519783 531.009851 
L 746.499462 530.439822 
L 751.479141 534.067174 
L 756.45882 541.009976 
L 761.438499 542.845728 
L 766.418178 544.31184 
L 771.397858 549.247937 
L 776.377537 539.044594 
L 781.357216 539.083652 
L 786.336895 542.340231 
L 791.316574 536.784292 
L 796.296253 532.730692 
L 801.275932 529.73507 
L 806.255612 538.192098 
L 811.235291 528.725774 
L 816.21497 536.159921 
L 821.194649 542.010214 
L 826.174328 538.282103 
L 831.154007 540.392397 
L 836.133686 549.341337 
L 841.113366 540.722414 
L 846.093045 541.209231 
L 851.072724 540.817513 
L 856.052403 535.020996 
L 861.032082 529.864133 
L 866.011761 534.783248 
L 870.991441 536.373894 
L 875.97112 546.484968 
L 880.950799 538.277008 
L 885.930478 539.851804 
L 890.910157 544.597137 
L 895.889836 548.092595 
L 900.869515 540.949973 
L 905.849195 537.700753 
L 910.828874 539.672361 
L 915.808553 535.634611 
L 920.788232 533.925091 
L 925.767911 534.451533 
L 930.74759 532.979761 
L 935.727269 534.493988 
L 940.706949 534.268128 
L 945.686628 538.057374 
L 950.666307 544.252969 
L 955.645986 541.168474 
L 960.625665 540.633542 
L 965.605344 537.021473 
L 970.585023 540.023322 
L 975.564703 532.712012 
L 980.544382 526.777374 
L 985.524061 530.585301 
L 990.50374 534.565312 
L 995.483419 535.558758 
L 1000.463098 525.928841 
L 1005.442777 532.677482 
L 1010.422457 541.227911 
L 1015.402136 542.100785 
L 1020.381815 538.934211 
L 1025.361494 534.839288 
L 1030.341173 538.299651 
L 1035.320852 534.992126 
L 1040.300531 530.741535 
L 1045.280211 527.771952 
L 1050.25989 534.365491 
L 1055.239569 538.735522 
L 1060.219248 534.583426 
L 1065.198927 533.972075 
L 1070.178606 545.256604 
L 1075.158285 546.317978 
L 1080.137965 536.628623 
L 1085.117644 535.859906 
L 1090.097323 530.421142 
L 1095.077002 534.141895 
L 1100.056681 533.581489 
L 1105.03636 528.835024 
L 1110.016039 535.80896 
L 1114.995719 533.342609 
L 1119.975398 527.475333 
L 1119.975398 527.475333 
" style="fill:none;stroke:#ff0000;stroke-linecap:square;stroke-width:1.5;"/>
   </g>
   <g id="line2d_35">
    <path clip-path="url(#p200a8326c1)" d="M 104.120852 572.175881 
L 109.100531 560.387553 
L 114.080211 570.019168 
L 119.05989 581.711265 
L 124.039569 577.183302 
L 129.019248 573.768225 
L 133.998927 565.258552 
L 138.978606 570.295409 
L 143.958285 568.106997 
L 148.937965 563.066744 
L 153.917644 570.964499 
L 158.897323 563.730173 
L 163.877002 558.728979 
L 168.856681 559.0856 
L 173.83636 564.800038 
L 178.816039 563.19241 
L 183.795719 560.268679 
L 188.775398 566.334078 
L 193.755077 572.971204 
L 198.734756 565.963304 
L 203.714435 565.466298 
L 208.694114 563.766968 
L 213.673793 562.531811 
L 218.653473 570.429566 
L 223.633152 567.713581 
L 228.612831 557.831764 
L 233.59251 570.654861 
L 238.572189 567.183177 
L 243.551868 570.128419 
L 248.531547 567.711317 
L 253.511227 568.432485 
L 258.490906 562.275383 
L 263.470585 560.392081 
L 268.450264 560.302643 
L 273.429943 561.400811 
L 278.409622 569.750287 
L 283.389301 564.611538 
L 288.368981 565.456675 
L 293.34866 570.817322 
L 298.328339 568.094543 
L 303.308018 568.824769 
L 308.287697 563.845651 
L 313.267376 562.109526 
L 318.247055 564.757583 
L 323.226735 558.854079 
L 328.206414 553.409655 
L 333.186093 560.00659 
L 338.165772 567.08921 
L 343.145451 561.336846 
L 348.12513 562.067071 
L 353.104809 563.541673 
L 358.084489 566.315398 
L 368.043847 567.042793 
L 373.023526 568.965153 
L 378.003205 560.470764 
L 382.982884 555.29975 
L 387.962564 560.398874 
L 392.942243 561.63403 
L 397.921922 567.650182 
L 402.901601 566.562202 
L 407.88128 564.250954 
L 412.860959 573.005167 
L 417.840638 571.431504 
L 422.820318 565.521773 
L 427.799997 568.964021 
L 432.779676 570.563724 
L 437.759355 568.802126 
L 442.739034 560.063763 
L 447.718713 556.359992 
L 452.698392 566.006891 
L 457.678072 568.75118 
L 462.657751 566.383892 
L 467.63743 567.379036 
L 472.617109 569.063649 
L 477.596788 576.581007 
L 482.576467 570.330505 
L 487.556146 569.694813 
L 492.535826 568.85194 
L 497.515505 569.349512 
L 502.495184 565.500262 
L 507.474863 563.686586 
L 512.454542 564.162082 
L 517.434221 567.777546 
L 522.4139 566.968072 
L 527.39358 565.107412 
L 532.373259 568.203794 
L 537.352938 568.381539 
L 542.332617 573.532741 
L 547.312296 569.392533 
L 552.291975 568.42456 
L 557.271654 570.694485 
L 562.251334 562.784843 
L 567.231013 560.322455 
L 572.210692 562.158208 
L 577.190371 564.66022 
L 582.17005 566.043686 
L 587.149729 570.264275 
L 592.129408 570.762413 
L 597.109088 576.609877 
L 602.088767 570.136344 
L 607.068446 571.393011 
L 612.048125 571.751331 
L 617.027804 570.530326 
L 622.007483 565.282893 
L 626.987162 564.143402 
L 636.946521 569.734437 
L 641.9262 571.717367 
L 646.905879 569.298566 
L 651.885558 571.424711 
L 656.865237 574.185415 
L 661.844916 572.07229 
L 666.824596 572.70402 
L 671.804275 569.96426 
L 676.783954 570.568253 
L 681.763633 569.4548 
L 686.743312 558.533686 
L 691.722991 563.872822 
L 696.70267 567.845474 
L 701.68235 564.379451 
L 706.662029 564.241331 
L 711.641708 564.354544 
L 716.621387 565.290818 
L 721.601066 570.592027 
L 726.580745 572.149275 
L 731.560424 572.238148 
L 736.540104 565.594229 
L 741.519783 562.82843 
L 746.499462 559.716764 
L 751.479141 558.899931 
L 756.45882 564.624558 
L 761.438499 568.819108 
L 766.418178 568.513999 
L 771.397858 571.749633 
L 776.377537 566.411629 
L 781.357216 568.002275 
L 786.336895 578.434874 
L 791.316574 567.347336 
L 796.296253 569.682359 
L 801.275932 561.18797 
L 806.255612 566.211241 
L 811.235291 555.193896 
L 816.21497 563.413742 
L 821.194649 572.059837 
L 826.174328 565.259118 
L 831.154007 565.678573 
L 836.133686 577.708045 
L 841.113366 575.68266 
L 846.093045 574.686384 
L 851.072724 572.202486 
L 856.052403 565.551208 
L 861.032082 562.728236 
L 866.011761 563.409214 
L 870.991441 564.460399 
L 875.97112 565.848959 
L 880.950799 563.254678 
L 885.930478 567.80585 
L 890.910157 567.603764 
L 895.889836 570.770338 
L 900.869515 568.667969 
L 905.849195 570.747696 
L 910.828874 568.005671 
L 915.808553 568.630608 
L 920.788232 564.294541 
L 925.767911 559.797712 
L 930.74759 558.996728 
L 935.727269 561.713846 
L 940.706949 559.599589 
L 945.686628 565.049108 
L 950.666307 572.129463 
L 955.645986 567.477531 
L 960.625665 569.596317 
L 965.605344 566.490312 
L 970.585023 572.552315 
L 975.564703 566.776741 
L 980.544382 556.201493 
L 985.524061 559.265609 
L 990.50374 559.173341 
L 995.483419 560.924183 
L 1000.463098 553.431732 
L 1005.442777 560.10735 
L 1010.422457 565.367237 
L 1015.402136 567.46904 
L 1020.381815 564.818153 
L 1025.361494 563.987733 
L 1030.341173 566.406534 
L 1035.320852 562.57653 
L 1040.300531 561.164195 
L 1045.280211 557.012666 
L 1050.25989 558.456135 
L 1055.239569 561.300051 
L 1060.219248 559.290516 
L 1065.198927 558.226312 
L 1070.178606 565.311196 
L 1075.158285 566.185202 
L 1080.137965 562.514829 
L 1085.117644 563.292604 
L 1090.097323 561.536101 
L 1095.077002 566.424648 
L 1100.056681 560.98079 
L 1105.03636 554.935203 
L 1114.995719 558.862004 
L 1119.975398 558.256313 
L 1119.975398 558.256313 
" style="fill:none;stroke:#008000;stroke-linecap:square;stroke-width:1.5;"/>
   </g>
   <g id="line2d_36">
    <path clip-path="url(#p200a8326c1)" d="M 104.120852 599.220258 
L 109.100531 586.245455 
L 114.080211 588.979555 
L 119.05989 605.208672 
L 124.039569 606.942532 
L 129.019248 603.535946 
L 133.998927 595.908205 
L 138.978606 609.501152 
L 143.958285 603.387637 
L 153.917644 594.630593 
L 158.897323 586.203 
L 163.877002 583.335875 
L 168.856681 582.164118 
L 173.83636 583.106618 
L 178.816039 585.619952 
L 183.795719 583.525507 
L 188.775398 594.705314 
L 193.755077 604.891675 
L 198.734756 594.237177 
L 203.714435 597.913211 
L 208.694114 595.749706 
L 213.673793 584.289697 
L 218.653473 595.984624 
L 223.633152 593.379021 
L 228.612831 584.677452 
L 233.59251 593.865838 
L 238.572189 590.676621 
L 243.551868 597.04713 
L 248.531547 597.081094 
L 253.511227 599.109309 
L 258.490906 594.660029 
L 263.470585 594.139248 
L 268.450264 593.101649 
L 273.429943 591.583459 
L 278.409622 595.565735 
L 283.389301 594.231517 
L 288.368981 592.499354 
L 293.34866 592.352177 
L 298.328339 592.08839 
L 303.308018 595.769518 
L 308.287697 600.62297 
L 313.267376 597.346013 
L 318.247055 598.270399 
L 323.226735 595.801218 
L 328.206414 586.985304 
L 333.186093 589.196358 
L 338.165772 589.258625 
L 343.145451 588.39028 
L 348.12513 592.644833 
L 353.104809 590.657941 
L 358.084489 591.424961 
L 363.064168 596.717113 
L 368.043847 600.813168 
L 373.023526 609.554362 
L 378.003205 598.939489 
L 382.982884 584.940673 
L 387.962564 587.851951 
L 392.942243 585.77279 
L 397.921922 589.827522 
L 402.901601 592.588227 
L 407.88128 587.619864 
L 412.860959 592.329534 
L 417.840638 590.656243 
L 422.820318 598.830804 
L 427.799997 600.269744 
L 432.779676 610.688758 
L 437.759355 602.290601 
L 442.739034 596.209352 
L 447.718713 591.917438 
L 452.698392 594.443791 
L 457.678072 594.193024 
L 462.657751 594.106416 
L 472.617109 596.713717 
L 477.596788 601.095069 
L 482.576467 602.176255 
L 487.556146 604.513543 
L 492.535826 606.043619 
L 497.515505 605.851157 
L 502.495184 599.414985 
L 507.474863 590.237354 
L 512.454542 587.452308 
L 517.434221 591.480435 
L 522.4139 593.222221 
L 527.39358 591.386468 
L 532.373259 592.031784 
L 537.352938 588.608781 
L 542.332617 597.239592 
L 547.312296 595.022311 
L 552.291975 608.472043 
L 557.271654 611.545783 
L 562.251334 592.064615 
L 567.231013 593.278827 
L 572.210692 589.28523 
L 577.190371 590.408872 
L 582.17005 594.637386 
L 587.149729 596.412004 
L 592.129408 593.137311 
L 597.109088 604.948281 
L 602.088767 604.209565 
L 607.068446 608.86829 
L 612.048125 607.806915 
L 617.027804 605.188859 
L 622.007483 599.013078 
L 626.987162 594.835509 
L 631.966842 590.383399 
L 636.946521 594.444924 
L 641.9262 596.932784 
L 646.905879 594.730787 
L 651.885558 594.255291 
L 656.865237 597.382807 
L 661.844916 606.771014 
L 666.824596 609.850414 
L 671.804275 610.781593 
L 676.783954 604.980547 
L 681.763633 610.934431 
L 686.743312 596.995052 
L 691.722991 597.995857 
L 696.70267 597.449037 
L 701.68235 598.355309 
L 706.662029 598.243228 
L 711.641708 596.693904 
L 716.621387 596.085383 
L 721.601066 605.547179 
L 726.580745 609.275857 
L 731.560424 611.053305 
L 736.540104 601.999077 
L 741.519783 599.20271 
L 746.499462 592.053294 
L 751.479141 586.500185 
L 756.45882 593.173539 
L 761.438499 594.536626 
L 766.418178 595.122505 
L 771.397858 593.803571 
L 776.377537 598.966094 
L 781.357216 603.220081 
L 786.336895 611.102553 
L 791.316574 605.51548 
L 796.296253 609.189249 
L 801.275932 606.307972 
L 806.255612 598.01114 
L 811.235291 590.294526 
L 816.21497 594.238309 
L 821.194649 596.361058 
L 826.174328 596.82693 
L 831.154007 596.228032 
L 836.133686 603.487831 
L 841.113366 606.623837 
L 846.093045 608.412606 
L 851.072724 609.312651 
L 856.052403 603.119888 
L 861.032082 601.781141 
L 866.011761 601.132995 
L 870.991441 590.063571 
L 875.97112 592.6137 
L 880.950799 593.001455 
L 885.930478 593.547709 
L 890.910157 593.508084 
L 895.889836 597.532815 
L 900.869515 601.042425 
L 905.849195 608.041833 
L 910.828874 605.834175 
L 920.788232 600.295217 
L 925.767911 592.169338 
L 930.74759 592.268399 
L 935.727269 593.961503 
L 940.706949 593.589032 
L 945.686628 595.116844 
L 950.666307 597.359032 
L 955.645986 596.775418 
L 960.625665 598.696081 
L 965.605344 606.763656 
L 970.585023 605.27943 
L 975.564703 610.230245 
L 980.544382 594.146041 
L 985.524061 592.975982 
L 990.50374 589.27957 
L 995.483419 589.526941 
L 1000.463098 591.390997 
L 1005.442777 593.874895 
L 1010.422457 594.625499 
L 1015.402136 594.680973 
L 1020.381815 597.338654 
L 1025.361494 602.489856 
L 1030.341173 604.539582 
L 1035.320852 600.887889 
L 1040.300531 595.311005 
L 1045.280211 587.83044 
L 1050.25989 586.63321 
L 1055.239569 588.560666 
L 1060.219248 591.190043 
L 1065.198927 589.687137 
L 1070.178606 590.165463 
L 1075.158285 591.67969 
L 1080.137965 594.41662 
L 1085.117644 598.814954 
L 1090.097323 596.575031 
L 1095.077002 603.688784 
L 1100.056681 591.790073 
L 1105.03636 583.865147 
L 1110.016039 583.644381 
L 1114.995719 589.787331 
L 1119.975398 590.159803 
L 1119.975398 590.159803 
" style="fill:none;stroke:#0000ff;stroke-linecap:square;stroke-width:1.5;"/>
   </g>
   <g id="line2d_37">
    <defs>
     <path d="M 0 3 
C 0.795609 3 1.55874 2.683901 2.12132 2.12132 
C 2.683901 1.55874 3 0.795609 3 0 
C 3 -0.795609 2.683901 -1.55874 2.12132 -2.12132 
C 1.55874 -2.683901 0.795609 -3 0 -3 
C -0.795609 -3 -1.55874 -2.683901 -2.12132 -2.12132 
C -2.683901 -1.55874 -3 -0.795609 -3 0 
C -3 0.795609 -2.683901 1.55874 -2.12132 2.12132 
C -1.55874 2.683901 -0.795609 3 0 3 
z
" id="m391fc62297" style="stroke:#ff0000;"/>
    </defs>
    <g clip-path="url(#p200a8326c1)">
     <use style="fill:#ff0000;stroke:#ff0000;" x="114.080211" xlink:href="#m391fc62297" y="639.849091"/>
     <use style="fill:#ff0000;stroke:#ff0000;" x="173.83636" xlink:href="#m391fc62297" y="639.849091"/>
     <use style="fill:#ff0000;stroke:#ff0000;" x="178.816039" xlink:href="#m391fc62297" y="639.849091"/>
     <use style="fill:#ff0000;stroke:#ff0000;" x="193.755077" xlink:href="#m391fc62297" y="639.849091"/>
     <use style="fill:#ff0000;stroke:#ff0000;" x="198.734756" xlink:href="#m391fc62297" y="639.849091"/>
     <use style="fill:#ff0000;stroke:#ff0000;" x="213.673793" xlink:href="#m391fc62297" y="639.849091"/>
     <use style="fill:#ff0000;stroke:#ff0000;" x="218.653473" xlink:href="#m391fc62297" y="639.849091"/>
     <use style="fill:#ff0000;stroke:#ff0000;" x="223.633152" xlink:href="#m391fc62297" y="639.849091"/>
     <use style="fill:#ff0000;stroke:#ff0000;" x="228.612831" xlink:href="#m391fc62297" y="639.849091"/>
     <use style="fill:#ff0000;stroke:#ff0000;" x="233.59251" xlink:href="#m391fc62297" y="639.849091"/>
     <use style="fill:#ff0000;stroke:#ff0000;" x="238.572189" xlink:href="#m391fc62297" y="639.849091"/>
     <use style="fill:#ff0000;stroke:#ff0000;" x="243.551868" xlink:href="#m391fc62297" y="639.849091"/>
     <use style="fill:#ff0000;stroke:#ff0000;" x="248.531547" xlink:href="#m391fc62297" y="639.849091"/>
     <use style="fill:#ff0000;stroke:#ff0000;" x="273.429943" xlink:href="#m391fc62297" y="639.849091"/>
     <use style="fill:#ff0000;stroke:#ff0000;" x="278.409622" xlink:href="#m391fc62297" y="639.849091"/>
     <use style="fill:#ff0000;stroke:#ff0000;" x="293.34866" xlink:href="#m391fc62297" y="639.849091"/>
     <use style="fill:#ff0000;stroke:#ff0000;" x="452.698392" xlink:href="#m391fc62297" y="639.849091"/>
     <use style="fill:#ff0000;stroke:#ff0000;" x="457.678072" xlink:href="#m391fc62297" y="639.849091"/>
     <use style="fill:#ff0000;stroke:#ff0000;" x="477.596788" xlink:href="#m391fc62297" y="639.849091"/>
     <use style="fill:#ff0000;stroke:#ff0000;" x="542.332617" xlink:href="#m391fc62297" y="639.849091"/>
     <use style="fill:#ff0000;stroke:#ff0000;" x="547.312296" xlink:href="#m391fc62297" y="639.849091"/>
     <use style="fill:#ff0000;stroke:#ff0000;" x="592.129408" xlink:href="#m391fc62297" y="639.849091"/>
     <use style="fill:#ff0000;stroke:#ff0000;" x="597.109088" xlink:href="#m391fc62297" y="639.849091"/>
     <use style="fill:#ff0000;stroke:#ff0000;" x="641.9262" xlink:href="#m391fc62297" y="639.849091"/>
     <use style="fill:#ff0000;stroke:#ff0000;" x="656.865237" xlink:href="#m391fc62297" y="639.849091"/>
     <use style="fill:#ff0000;stroke:#ff0000;" x="671.804275" xlink:href="#m391fc62297" y="639.849091"/>
     <use style="fill:#ff0000;stroke:#ff0000;" x="676.783954" xlink:href="#m391fc62297" y="639.849091"/>
     <use style="fill:#ff0000;stroke:#ff0000;" x="681.763633" xlink:href="#m391fc62297" y="639.849091"/>
     <use style="fill:#ff0000;stroke:#ff0000;" x="686.743312" xlink:href="#m391fc62297" y="639.849091"/>
     <use style="fill:#ff0000;stroke:#ff0000;" x="691.722991" xlink:href="#m391fc62297" y="639.849091"/>
     <use style="fill:#ff0000;stroke:#ff0000;" x="696.70267" xlink:href="#m391fc62297" y="639.849091"/>
     <use style="fill:#ff0000;stroke:#ff0000;" x="701.68235" xlink:href="#m391fc62297" y="639.849091"/>
     <use style="fill:#ff0000;stroke:#ff0000;" x="706.662029" xlink:href="#m391fc62297" y="639.849091"/>
     <use style="fill:#ff0000;stroke:#ff0000;" x="711.641708" xlink:href="#m391fc62297" y="639.849091"/>
     <use style="fill:#ff0000;stroke:#ff0000;" x="716.621387" xlink:href="#m391fc62297" y="639.849091"/>
     <use style="fill:#ff0000;stroke:#ff0000;" x="721.601066" xlink:href="#m391fc62297" y="639.849091"/>
     <use style="fill:#ff0000;stroke:#ff0000;" x="726.580745" xlink:href="#m391fc62297" y="639.849091"/>
     <use style="fill:#ff0000;stroke:#ff0000;" x="751.479141" xlink:href="#m391fc62297" y="639.849091"/>
     <use style="fill:#ff0000;stroke:#ff0000;" x="756.45882" xlink:href="#m391fc62297" y="639.849091"/>
     <use style="fill:#ff0000;stroke:#ff0000;" x="771.397858" xlink:href="#m391fc62297" y="639.849091"/>
     <use style="fill:#ff0000;stroke:#ff0000;" x="831.154007" xlink:href="#m391fc62297" y="639.849091"/>
     <use style="fill:#ff0000;stroke:#ff0000;" x="836.133686" xlink:href="#m391fc62297" y="639.849091"/>
     <use style="fill:#ff0000;stroke:#ff0000;" x="965.605344" xlink:href="#m391fc62297" y="639.849091"/>
     <use style="fill:#ff0000;stroke:#ff0000;" x="1045.280211" xlink:href="#m391fc62297" y="639.849091"/>
     <use style="fill:#ff0000;stroke:#ff0000;" x="1050.25989" xlink:href="#m391fc62297" y="639.849091"/>
     <use style="fill:#ff0000;stroke:#ff0000;" x="1055.239569" xlink:href="#m391fc62297" y="639.849091"/>
     <use style="fill:#ff0000;stroke:#ff0000;" x="1060.219248" xlink:href="#m391fc62297" y="639.849091"/>
     <use style="fill:#ff0000;stroke:#ff0000;" x="1065.198927" xlink:href="#m391fc62297" y="639.849091"/>
     <use style="fill:#ff0000;stroke:#ff0000;" x="1070.178606" xlink:href="#m391fc62297" y="639.849091"/>
     <use style="fill:#ff0000;stroke:#ff0000;" x="1075.158285" xlink:href="#m391fc62297" y="639.849091"/>
     <use style="fill:#ff0000;stroke:#ff0000;" x="1080.137965" xlink:href="#m391fc62297" y="639.849091"/>
     <use style="fill:#ff0000;stroke:#ff0000;" x="1085.117644" xlink:href="#m391fc62297" y="639.849091"/>
     <use style="fill:#ff0000;stroke:#ff0000;" x="1090.097323" xlink:href="#m391fc62297" y="639.849091"/>
     <use style="fill:#ff0000;stroke:#ff0000;" x="1095.077002" xlink:href="#m391fc62297" y="639.849091"/>
     <use style="fill:#ff0000;stroke:#ff0000;" x="1100.056681" xlink:href="#m391fc62297" y="639.849091"/>
     <use style="fill:#ff0000;stroke:#ff0000;" x="1105.03636" xlink:href="#m391fc62297" y="639.849091"/>
     <use style="fill:#ff0000;stroke:#ff0000;" x="1110.016039" xlink:href="#m391fc62297" y="639.849091"/>
     <use style="fill:#ff0000;stroke:#ff0000;" x="1114.995719" xlink:href="#m391fc62297" y="639.849091"/>
     <use style="fill:#ff0000;stroke:#ff0000;" x="1119.975398" xlink:href="#m391fc62297" y="639.849091"/>
    </g>
   </g>
   <g id="patch_9">
    <path d="M 53.328125 645.74 
L 53.328125 516.14 
" style="fill:none;stroke:#000000;stroke-linecap:square;stroke-linejoin:miter;stroke-width:0.8;"/>
   </g>
   <g id="patch_10">
    <path d="M 1170.768125 645.74 
L 1170.768125 516.14 
" style="fill:none;stroke:#000000;stroke-linecap:square;stroke-linejoin:miter;stroke-width:0.8;"/>
   </g>
   <g id="patch_11">
    <path d="M 53.328125 645.74 
L 1170.768125 645.74 
" style="fill:none;stroke:#000000;stroke-linecap:square;stroke-linejoin:miter;stroke-width:0.8;"/>
   </g>
   <g id="patch_12">
    <path d="M 53.328125 516.14 
L 1170.768125 516.14 
" style="fill:none;stroke:#000000;stroke-linecap:square;stroke-linejoin:miter;stroke-width:0.8;"/>
   </g>
   <g id="legend_2">
    <g id="patch_13">
     <path d="M 60.328125 582.8525 
L 151.340625 582.8525 
Q 153.340625 582.8525 153.340625 580.8525 
L 153.340625 523.14 
Q 153.340625 521.14 151.340625 521.14 
L 60.328125 521.14 
Q 58.328125 521.14 58.328125 523.14 
L 58.328125 580.8525 
Q 58.328125 582.8525 60.328125 582.8525 
z
" style="fill:#ffffff;opacity:0.8;stroke:#cccccc;stroke-linejoin:miter;"/>
    </g>
    <g id="line2d_38">
     <path d="M 62.328125 529.238437 
L 82.328125 529.238437 
" style="fill:none;stroke:#ff0000;stroke-linecap:square;stroke-width:1.5;"/>
    </g>
    <g id="line2d_39"/>
    <g id="text_31">
     <!-- Maxmimum -->
     <defs>
      <path d="M 9.8125 72.90625 
L 24.515625 72.90625 
L 43.109375 23.296875 
L 61.8125 72.90625 
L 76.515625 72.90625 
L 76.515625 0 
L 66.890625 0 
L 66.890625 64.015625 
L 48.09375 14.015625 
L 38.1875 14.015625 
L 19.390625 64.015625 
L 19.390625 0 
L 9.8125 0 
z
" id="DejaVuSans-4d"/>
      <path d="M 54.890625 54.6875 
L 35.109375 28.078125 
L 55.90625 0 
L 45.3125 0 
L 29.390625 21.484375 
L 13.484375 0 
L 2.875 0 
L 24.125 28.609375 
L 4.6875 54.6875 
L 15.28125 54.6875 
L 29.78125 35.203125 
L 44.28125 54.6875 
z
" id="DejaVuSans-78"/>
     </defs>
     <g transform="translate(90.328125 532.738437)scale(0.1 -0.1)">
      <use xlink:href="#DejaVuSans-4d"/>
      <use x="86.279297" xlink:href="#DejaVuSans-61"/>
      <use x="147.558594" xlink:href="#DejaVuSans-78"/>
      <use x="206.738281" xlink:href="#DejaVuSans-6d"/>
      <use x="304.150391" xlink:href="#DejaVuSans-69"/>
      <use x="331.933594" xlink:href="#DejaVuSans-6d"/>
      <use x="429.345703" xlink:href="#DejaVuSans-75"/>
      <use x="492.724609" xlink:href="#DejaVuSans-6d"/>
     </g>
    </g>
    <g id="line2d_40">
     <path d="M 62.328125 543.916562 
L 82.328125 543.916562 
" style="fill:none;stroke:#008000;stroke-linecap:square;stroke-width:1.5;"/>
    </g>
    <g id="line2d_41"/>
    <g id="text_32">
     <!-- Average -->
     <defs>
      <path d="M 34.1875 63.1875 
L 20.796875 26.90625 
L 47.609375 26.90625 
z
M 28.609375 72.90625 
L 39.796875 72.90625 
L 67.578125 0 
L 57.328125 0 
L 50.6875 18.703125 
L 17.828125 18.703125 
L 11.1875 0 
L 0.78125 0 
z
" id="DejaVuSans-41"/>
      <path d="M 2.984375 54.6875 
L 12.5 54.6875 
L 29.59375 8.796875 
L 46.6875 54.6875 
L 56.203125 54.6875 
L 35.6875 0 
L 23.484375 0 
z
" id="DejaVuSans-76"/>
     </defs>
     <g transform="translate(90.328125 547.416562)scale(0.1 -0.1)">
      <use xlink:href="#DejaVuSans-41"/>
      <use x="68.330078" xlink:href="#DejaVuSans-76"/>
      <use x="127.509766" xlink:href="#DejaVuSans-65"/>
      <use x="189.033203" xlink:href="#DejaVuSans-72"/>
      <use x="230.146484" xlink:href="#DejaVuSans-61"/>
      <use x="291.425781" xlink:href="#DejaVuSans-67"/>
      <use x="354.902344" xlink:href="#DejaVuSans-65"/>
     </g>
    </g>
    <g id="line2d_42">
     <path d="M 62.328125 558.594687 
L 82.328125 558.594687 
" style="fill:none;stroke:#0000ff;stroke-linecap:square;stroke-width:1.5;"/>
    </g>
    <g id="line2d_43"/>
    <g id="text_33">
     <!-- Minimum -->
     <g transform="translate(90.328125 562.094687)scale(0.1 -0.1)">
      <use xlink:href="#DejaVuSans-4d"/>
      <use x="86.279297" xlink:href="#DejaVuSans-69"/>
      <use x="114.0625" xlink:href="#DejaVuSans-6e"/>
      <use x="177.441406" xlink:href="#DejaVuSans-69"/>
      <use x="205.224609" xlink:href="#DejaVuSans-6d"/>
      <use x="302.636719" xlink:href="#DejaVuSans-75"/>
      <use x="366.015625" xlink:href="#DejaVuSans-6d"/>
     </g>
    </g>
    <g id="line2d_44"/>
    <g id="line2d_45">
     <g>
      <use style="fill:#ff0000;stroke:#ff0000;" x="72.328125" xlink:href="#m391fc62297" y="573.272812"/>
     </g>
    </g>
    <g id="text_34">
     <!-- Disasters -->
     <g transform="translate(90.328125 576.772812)scale(0.1 -0.1)">
      <use xlink:href="#DejaVuSans-44"/>
      <use x="77.001953" xlink:href="#DejaVuSans-69"/>
      <use x="104.785156" xlink:href="#DejaVuSans-73"/>
      <use x="156.884766" xlink:href="#DejaVuSans-61"/>
      <use x="218.164062" xlink:href="#DejaVuSans-73"/>
      <use x="270.263672" xlink:href="#DejaVuSans-74"/>
      <use x="309.472656" xlink:href="#DejaVuSans-65"/>
      <use x="370.996094" xlink:href="#DejaVuSans-72"/>
      <use x="412.109375" xlink:href="#DejaVuSans-73"/>
     </g>
    </g>
   </g>
  </g>
 </g>
 <defs>
  <clipPath id="p4df48b1bdb">
   <rect height="498.96" width="1116" x="53.328125" y="10.7"/>
  </clipPath>
  <clipPath id="p200a8326c1">
   <rect height="129.6" width="1117.44" x="53.328125" y="516.14"/>
  </clipPath>
 </defs>
</svg>
