<?xml version="1.0" encoding="utf-8" standalone="no"?>
<!DOCTYPE svg PUBLIC "-//W3C//DTD SVG 1.1//EN"
  "http://www.w3.org/Graphics/SVG/1.1/DTD/svg11.dtd">
<!-- Created with matplotlib (http://matplotlib.org/) -->
<svg height="669pt" version="1.1" viewBox="0 0 1181 669" width="1181pt" xmlns="http://www.w3.org/2000/svg" xmlns:xlink="http://www.w3.org/1999/xlink">
 <defs>
  <style type="text/css">
*{stroke-linecap:butt;stroke-linejoin:round;}
  </style>
 </defs>
 <g id="figure_1">
  <g id="patch_1">
   <path d="M 0 669.618125 
L 1181.468125 669.618125 
L 1181.468125 -0 
L 0 -0 
z
" style="fill:none;"/>
  </g>
  <g id="axes_1">
   <g id="patch_2">
    <path d="M 53.328125 509.66 
L 1169.328125 509.66 
L 1169.328125 10.7 
L 53.328125 10.7 
z
" style="fill:none;"/>
   </g>
   <g id="matplotlib.axis_1">
    <g id="xtick_1">
     <g id="line2d_1">
      <defs>
       <path d="M 0 0 
L 0 3.5 
" id="m66bb430c2c" style="stroke:#000000;stroke-width:0.8;"/>
      </defs>
      <g>
       <use style="stroke:#000000;stroke-width:0.8;" x="104.055398" xlink:href="#m66bb430c2c" y="509.66"/>
      </g>
     </g>
     <g id="text_1">
      <!-- 0 -->
      <defs>
       <path d="M 31.78125 66.40625 
Q 24.171875 66.40625 20.328125 58.90625 
Q 16.5 51.421875 16.5 36.375 
Q 16.5 21.390625 20.328125 13.890625 
Q 24.171875 6.390625 31.78125 6.390625 
Q 39.453125 6.390625 43.28125 13.890625 
Q 47.125 21.390625 47.125 36.375 
Q 47.125 51.421875 43.28125 58.90625 
Q 39.453125 66.40625 31.78125 66.40625 
z
M 31.78125 74.21875 
Q 44.046875 74.21875 50.515625 64.515625 
Q 56.984375 54.828125 56.984375 36.375 
Q 56.984375 17.96875 50.515625 8.265625 
Q 44.046875 -1.421875 31.78125 -1.421875 
Q 19.53125 -1.421875 13.0625 8.265625 
Q 6.59375 17.96875 6.59375 36.375 
Q 6.59375 54.828125 13.0625 64.515625 
Q 19.53125 74.21875 31.78125 74.21875 
z
" id="DejaVuSans-30"/>
      </defs>
      <g transform="translate(100.874148 524.258437)scale(0.1 -0.1)">
       <use xlink:href="#DejaVuSans-30"/>
      </g>
     </g>
    </g>
    <g id="xtick_2">
     <g id="line2d_2">
      <g>
       <use style="stroke:#000000;stroke-width:0.8;" x="346.769621" xlink:href="#m66bb430c2c" y="509.66"/>
      </g>
     </g>
     <g id="text_2">
      <!-- 50 -->
      <defs>
       <path d="M 10.796875 72.90625 
L 49.515625 72.90625 
L 49.515625 64.59375 
L 19.828125 64.59375 
L 19.828125 46.734375 
Q 21.96875 47.46875 24.109375 47.828125 
Q 26.265625 48.1875 28.421875 48.1875 
Q 40.625 48.1875 47.75 41.5 
Q 54.890625 34.8125 54.890625 23.390625 
Q 54.890625 11.625 47.5625 5.09375 
Q 40.234375 -1.421875 26.90625 -1.421875 
Q 22.3125 -1.421875 17.546875 -0.640625 
Q 12.796875 0.140625 7.71875 1.703125 
L 7.71875 11.625 
Q 12.109375 9.234375 16.796875 8.0625 
Q 21.484375 6.890625 26.703125 6.890625 
Q 35.15625 6.890625 40.078125 11.328125 
Q 45.015625 15.765625 45.015625 23.390625 
Q 45.015625 31 40.078125 35.4375 
Q 35.15625 39.890625 26.703125 39.890625 
Q 22.75 39.890625 18.8125 39.015625 
Q 14.890625 38.140625 10.796875 36.28125 
z
" id="DejaVuSans-35"/>
      </defs>
      <g transform="translate(340.407121 524.258437)scale(0.1 -0.1)">
       <use xlink:href="#DejaVuSans-35"/>
       <use x="63.623047" xlink:href="#DejaVuSans-30"/>
      </g>
     </g>
    </g>
    <g id="xtick_3">
     <g id="line2d_3">
      <g>
       <use style="stroke:#000000;stroke-width:0.8;" x="589.483845" xlink:href="#m66bb430c2c" y="509.66"/>
      </g>
     </g>
     <g id="text_3">
      <!-- 100 -->
      <defs>
       <path d="M 12.40625 8.296875 
L 28.515625 8.296875 
L 28.515625 63.921875 
L 10.984375 60.40625 
L 10.984375 69.390625 
L 28.421875 72.90625 
L 38.28125 72.90625 
L 38.28125 8.296875 
L 54.390625 8.296875 
L 54.390625 0 
L 12.40625 0 
z
" id="DejaVuSans-31"/>
      </defs>
      <g transform="translate(579.940095 524.258437)scale(0.1 -0.1)">
       <use xlink:href="#DejaVuSans-31"/>
       <use x="63.623047" xlink:href="#DejaVuSans-30"/>
       <use x="127.246094" xlink:href="#DejaVuSans-30"/>
      </g>
     </g>
    </g>
    <g id="xtick_4">
     <g id="line2d_4">
      <g>
       <use style="stroke:#000000;stroke-width:0.8;" x="832.198068" xlink:href="#m66bb430c2c" y="509.66"/>
      </g>
     </g>
     <g id="text_4">
      <!-- 150 -->
      <g transform="translate(822.654318 524.258437)scale(0.1 -0.1)">
       <use xlink:href="#DejaVuSans-31"/>
       <use x="63.623047" xlink:href="#DejaVuSans-35"/>
       <use x="127.246094" xlink:href="#DejaVuSans-30"/>
      </g>
     </g>
    </g>
    <g id="xtick_5">
     <g id="line2d_5">
      <g>
       <use style="stroke:#000000;stroke-width:0.8;" x="1074.912292" xlink:href="#m66bb430c2c" y="509.66"/>
      </g>
     </g>
     <g id="text_5">
      <!-- 200 -->
      <defs>
       <path d="M 19.1875 8.296875 
L 53.609375 8.296875 
L 53.609375 0 
L 7.328125 0 
L 7.328125 8.296875 
Q 12.9375 14.109375 22.625 23.890625 
Q 32.328125 33.6875 34.8125 36.53125 
Q 39.546875 41.84375 41.421875 45.53125 
Q 43.3125 49.21875 43.3125 52.78125 
Q 43.3125 58.59375 39.234375 62.25 
Q 35.15625 65.921875 28.609375 65.921875 
Q 23.96875 65.921875 18.8125 64.3125 
Q 13.671875 62.703125 7.8125 59.421875 
L 7.8125 69.390625 
Q 13.765625 71.78125 18.9375 73 
Q 24.125 74.21875 28.421875 74.21875 
Q 39.75 74.21875 46.484375 68.546875 
Q 53.21875 62.890625 53.21875 53.421875 
Q 53.21875 48.921875 51.53125 44.890625 
Q 49.859375 40.875 45.40625 35.40625 
Q 44.1875 33.984375 37.640625 27.21875 
Q 31.109375 20.453125 19.1875 8.296875 
z
" id="DejaVuSans-32"/>
      </defs>
      <g transform="translate(1065.368542 524.258437)scale(0.1 -0.1)">
       <use xlink:href="#DejaVuSans-32"/>
       <use x="63.623047" xlink:href="#DejaVuSans-30"/>
       <use x="127.246094" xlink:href="#DejaVuSans-30"/>
      </g>
     </g>
    </g>
    <g id="text_6">
     <!-- Time -->
     <defs>
      <path d="M -0.296875 72.90625 
L 61.375 72.90625 
L 61.375 64.59375 
L 35.5 64.59375 
L 35.5 0 
L 25.59375 0 
L 25.59375 64.59375 
L -0.296875 64.59375 
z
" id="DejaVuSans-54"/>
      <path d="M 9.421875 54.6875 
L 18.40625 54.6875 
L 18.40625 0 
L 9.421875 0 
z
M 9.421875 75.984375 
L 18.40625 75.984375 
L 18.40625 64.59375 
L 9.421875 64.59375 
z
" id="DejaVuSans-69"/>
      <path d="M 52 44.1875 
Q 55.375 50.25 60.0625 53.125 
Q 64.75 56 71.09375 56 
Q 79.640625 56 84.28125 50.015625 
Q 88.921875 44.046875 88.921875 33.015625 
L 88.921875 0 
L 79.890625 0 
L 79.890625 32.71875 
Q 79.890625 40.578125 77.09375 44.375 
Q 74.3125 48.1875 68.609375 48.1875 
Q 61.625 48.1875 57.5625 43.546875 
Q 53.515625 38.921875 53.515625 30.90625 
L 53.515625 0 
L 44.484375 0 
L 44.484375 32.71875 
Q 44.484375 40.625 41.703125 44.40625 
Q 38.921875 48.1875 33.109375 48.1875 
Q 26.21875 48.1875 22.15625 43.53125 
Q 18.109375 38.875 18.109375 30.90625 
L 18.109375 0 
L 9.078125 0 
L 9.078125 54.6875 
L 18.109375 54.6875 
L 18.109375 46.1875 
Q 21.1875 51.21875 25.484375 53.609375 
Q 29.78125 56 35.6875 56 
Q 41.65625 56 45.828125 52.96875 
Q 50 49.953125 52 44.1875 
z
" id="DejaVuSans-6d"/>
      <path d="M 56.203125 29.59375 
L 56.203125 25.203125 
L 14.890625 25.203125 
Q 15.484375 15.921875 20.484375 11.0625 
Q 25.484375 6.203125 34.421875 6.203125 
Q 39.59375 6.203125 44.453125 7.46875 
Q 49.3125 8.734375 54.109375 11.28125 
L 54.109375 2.78125 
Q 49.265625 0.734375 44.1875 -0.34375 
Q 39.109375 -1.421875 33.890625 -1.421875 
Q 20.796875 -1.421875 13.15625 6.1875 
Q 5.515625 13.8125 5.515625 26.8125 
Q 5.515625 40.234375 12.765625 48.109375 
Q 20.015625 56 32.328125 56 
Q 43.359375 56 49.78125 48.890625 
Q 56.203125 41.796875 56.203125 29.59375 
z
M 47.21875 32.234375 
Q 47.125 39.59375 43.09375 43.984375 
Q 39.0625 48.390625 32.421875 48.390625 
Q 24.90625 48.390625 20.390625 44.140625 
Q 15.875 39.890625 15.1875 32.171875 
z
" id="DejaVuSans-65"/>
     </defs>
     <g transform="translate(598.940625 537.936562)scale(0.1 -0.1)">
      <use xlink:href="#DejaVuSans-54"/>
      <use x="61.037109" xlink:href="#DejaVuSans-69"/>
      <use x="88.820312" xlink:href="#DejaVuSans-6d"/>
      <use x="186.232422" xlink:href="#DejaVuSans-65"/>
     </g>
    </g>
   </g>
   <g id="matplotlib.axis_2">
    <g id="ytick_1">
     <g id="line2d_6">
      <defs>
       <path d="M 0 0 
L -3.5 0 
" id="mb1ca9faf9e" style="stroke:#000000;stroke-width:0.8;"/>
      </defs>
      <g>
       <use style="stroke:#000000;stroke-width:0.8;" x="53.328125" xlink:href="#mb1ca9faf9e" y="480.141809"/>
      </g>
     </g>
     <g id="text_7">
      <!-- 250 -->
      <g transform="translate(27.240625 483.941028)scale(0.1 -0.1)">
       <use xlink:href="#DejaVuSans-32"/>
       <use x="63.623047" xlink:href="#DejaVuSans-35"/>
       <use x="127.246094" xlink:href="#DejaVuSans-30"/>
      </g>
     </g>
    </g>
    <g id="ytick_2">
     <g id="line2d_7">
      <g>
       <use style="stroke:#000000;stroke-width:0.8;" x="53.328125" xlink:href="#mb1ca9faf9e" y="416.825226"/>
      </g>
     </g>
     <g id="text_8">
      <!-- 500 -->
      <g transform="translate(27.240625 420.624445)scale(0.1 -0.1)">
       <use xlink:href="#DejaVuSans-35"/>
       <use x="63.623047" xlink:href="#DejaVuSans-30"/>
       <use x="127.246094" xlink:href="#DejaVuSans-30"/>
      </g>
     </g>
    </g>
    <g id="ytick_3">
     <g id="line2d_8">
      <g>
       <use style="stroke:#000000;stroke-width:0.8;" x="53.328125" xlink:href="#mb1ca9faf9e" y="353.508643"/>
      </g>
     </g>
     <g id="text_9">
      <!-- 750 -->
      <defs>
       <path d="M 8.203125 72.90625 
L 55.078125 72.90625 
L 55.078125 68.703125 
L 28.609375 0 
L 18.3125 0 
L 43.21875 64.59375 
L 8.203125 64.59375 
z
" id="DejaVuSans-37"/>
      </defs>
      <g transform="translate(27.240625 357.307862)scale(0.1 -0.1)">
       <use xlink:href="#DejaVuSans-37"/>
       <use x="63.623047" xlink:href="#DejaVuSans-35"/>
       <use x="127.246094" xlink:href="#DejaVuSans-30"/>
      </g>
     </g>
    </g>
    <g id="ytick_4">
     <g id="line2d_9">
      <g>
       <use style="stroke:#000000;stroke-width:0.8;" x="53.328125" xlink:href="#mb1ca9faf9e" y="290.19206"/>
      </g>
     </g>
     <g id="text_10">
      <!-- 1000 -->
      <g transform="translate(20.878125 293.991279)scale(0.1 -0.1)">
       <use xlink:href="#DejaVuSans-31"/>
       <use x="63.623047" xlink:href="#DejaVuSans-30"/>
       <use x="127.246094" xlink:href="#DejaVuSans-30"/>
       <use x="190.869141" xlink:href="#DejaVuSans-30"/>
      </g>
     </g>
    </g>
    <g id="ytick_5">
     <g id="line2d_10">
      <g>
       <use style="stroke:#000000;stroke-width:0.8;" x="53.328125" xlink:href="#mb1ca9faf9e" y="226.875477"/>
      </g>
     </g>
     <g id="text_11">
      <!-- 1250 -->
      <g transform="translate(20.878125 230.674696)scale(0.1 -0.1)">
       <use xlink:href="#DejaVuSans-31"/>
       <use x="63.623047" xlink:href="#DejaVuSans-32"/>
       <use x="127.246094" xlink:href="#DejaVuSans-35"/>
       <use x="190.869141" xlink:href="#DejaVuSans-30"/>
      </g>
     </g>
    </g>
    <g id="ytick_6">
     <g id="line2d_11">
      <g>
       <use style="stroke:#000000;stroke-width:0.8;" x="53.328125" xlink:href="#mb1ca9faf9e" y="163.558894"/>
      </g>
     </g>
     <g id="text_12">
      <!-- 1500 -->
      <g transform="translate(20.878125 167.358113)scale(0.1 -0.1)">
       <use xlink:href="#DejaVuSans-31"/>
       <use x="63.623047" xlink:href="#DejaVuSans-35"/>
       <use x="127.246094" xlink:href="#DejaVuSans-30"/>
       <use x="190.869141" xlink:href="#DejaVuSans-30"/>
      </g>
     </g>
    </g>
    <g id="ytick_7">
     <g id="line2d_12">
      <g>
       <use style="stroke:#000000;stroke-width:0.8;" x="53.328125" xlink:href="#mb1ca9faf9e" y="100.242312"/>
      </g>
     </g>
     <g id="text_13">
      <!-- 1750 -->
      <g transform="translate(20.878125 104.04153)scale(0.1 -0.1)">
       <use xlink:href="#DejaVuSans-31"/>
       <use x="63.623047" xlink:href="#DejaVuSans-37"/>
       <use x="127.246094" xlink:href="#DejaVuSans-35"/>
       <use x="190.869141" xlink:href="#DejaVuSans-30"/>
      </g>
     </g>
    </g>
    <g id="ytick_8">
     <g id="line2d_13">
      <g>
       <use style="stroke:#000000;stroke-width:0.8;" x="53.328125" xlink:href="#mb1ca9faf9e" y="36.925729"/>
      </g>
     </g>
     <g id="text_14">
      <!-- 2000 -->
      <g transform="translate(20.878125 40.724947)scale(0.1 -0.1)">
       <use xlink:href="#DejaVuSans-32"/>
       <use x="63.623047" xlink:href="#DejaVuSans-30"/>
       <use x="127.246094" xlink:href="#DejaVuSans-30"/>
       <use x="190.869141" xlink:href="#DejaVuSans-30"/>
      </g>
     </g>
    </g>
    <g id="text_15">
     <!-- Refugees -->
     <defs>
      <path d="M 44.390625 34.1875 
Q 47.5625 33.109375 50.5625 29.59375 
Q 53.5625 26.078125 56.59375 19.921875 
L 66.609375 0 
L 56 0 
L 46.6875 18.703125 
Q 43.0625 26.03125 39.671875 28.421875 
Q 36.28125 30.8125 30.421875 30.8125 
L 19.671875 30.8125 
L 19.671875 0 
L 9.8125 0 
L 9.8125 72.90625 
L 32.078125 72.90625 
Q 44.578125 72.90625 50.734375 67.671875 
Q 56.890625 62.453125 56.890625 51.90625 
Q 56.890625 45.015625 53.6875 40.46875 
Q 50.484375 35.9375 44.390625 34.1875 
z
M 19.671875 64.796875 
L 19.671875 38.921875 
L 32.078125 38.921875 
Q 39.203125 38.921875 42.84375 42.21875 
Q 46.484375 45.515625 46.484375 51.90625 
Q 46.484375 58.296875 42.84375 61.546875 
Q 39.203125 64.796875 32.078125 64.796875 
z
" id="DejaVuSans-52"/>
      <path d="M 37.109375 75.984375 
L 37.109375 68.5 
L 28.515625 68.5 
Q 23.6875 68.5 21.796875 66.546875 
Q 19.921875 64.59375 19.921875 59.515625 
L 19.921875 54.6875 
L 34.71875 54.6875 
L 34.71875 47.703125 
L 19.921875 47.703125 
L 19.921875 0 
L 10.890625 0 
L 10.890625 47.703125 
L 2.296875 47.703125 
L 2.296875 54.6875 
L 10.890625 54.6875 
L 10.890625 58.5 
Q 10.890625 67.625 15.140625 71.796875 
Q 19.390625 75.984375 28.609375 75.984375 
z
" id="DejaVuSans-66"/>
      <path d="M 8.5 21.578125 
L 8.5 54.6875 
L 17.484375 54.6875 
L 17.484375 21.921875 
Q 17.484375 14.15625 20.5 10.265625 
Q 23.53125 6.390625 29.59375 6.390625 
Q 36.859375 6.390625 41.078125 11.03125 
Q 45.3125 15.671875 45.3125 23.6875 
L 45.3125 54.6875 
L 54.296875 54.6875 
L 54.296875 0 
L 45.3125 0 
L 45.3125 8.40625 
Q 42.046875 3.421875 37.71875 1 
Q 33.40625 -1.421875 27.6875 -1.421875 
Q 18.265625 -1.421875 13.375 4.4375 
Q 8.5 10.296875 8.5 21.578125 
z
M 31.109375 56 
z
" id="DejaVuSans-75"/>
      <path d="M 45.40625 27.984375 
Q 45.40625 37.75 41.375 43.109375 
Q 37.359375 48.484375 30.078125 48.484375 
Q 22.859375 48.484375 18.828125 43.109375 
Q 14.796875 37.75 14.796875 27.984375 
Q 14.796875 18.265625 18.828125 12.890625 
Q 22.859375 7.515625 30.078125 7.515625 
Q 37.359375 7.515625 41.375 12.890625 
Q 45.40625 18.265625 45.40625 27.984375 
z
M 54.390625 6.78125 
Q 54.390625 -7.171875 48.1875 -13.984375 
Q 42 -20.796875 29.203125 -20.796875 
Q 24.46875 -20.796875 20.265625 -20.09375 
Q 16.0625 -19.390625 12.109375 -17.921875 
L 12.109375 -9.1875 
Q 16.0625 -11.328125 19.921875 -12.34375 
Q 23.78125 -13.375 27.78125 -13.375 
Q 36.625 -13.375 41.015625 -8.765625 
Q 45.40625 -4.15625 45.40625 5.171875 
L 45.40625 9.625 
Q 42.625 4.78125 38.28125 2.390625 
Q 33.9375 0 27.875 0 
Q 17.828125 0 11.671875 7.65625 
Q 5.515625 15.328125 5.515625 27.984375 
Q 5.515625 40.671875 11.671875 48.328125 
Q 17.828125 56 27.875 56 
Q 33.9375 56 38.28125 53.609375 
Q 42.625 51.21875 45.40625 46.390625 
L 45.40625 54.6875 
L 54.390625 54.6875 
z
" id="DejaVuSans-67"/>
      <path d="M 44.28125 53.078125 
L 44.28125 44.578125 
Q 40.484375 46.53125 36.375 47.5 
Q 32.28125 48.484375 27.875 48.484375 
Q 21.1875 48.484375 17.84375 46.4375 
Q 14.5 44.390625 14.5 40.28125 
Q 14.5 37.15625 16.890625 35.375 
Q 19.28125 33.59375 26.515625 31.984375 
L 29.59375 31.296875 
Q 39.15625 29.25 43.1875 25.515625 
Q 47.21875 21.78125 47.21875 15.09375 
Q 47.21875 7.46875 41.1875 3.015625 
Q 35.15625 -1.421875 24.609375 -1.421875 
Q 20.21875 -1.421875 15.453125 -0.5625 
Q 10.6875 0.296875 5.421875 2 
L 5.421875 11.28125 
Q 10.40625 8.6875 15.234375 7.390625 
Q 20.0625 6.109375 24.8125 6.109375 
Q 31.15625 6.109375 34.5625 8.28125 
Q 37.984375 10.453125 37.984375 14.40625 
Q 37.984375 18.0625 35.515625 20.015625 
Q 33.0625 21.96875 24.703125 23.78125 
L 21.578125 24.515625 
Q 13.234375 26.265625 9.515625 29.90625 
Q 5.8125 33.546875 5.8125 39.890625 
Q 5.8125 47.609375 11.28125 51.796875 
Q 16.75 56 26.8125 56 
Q 31.78125 56 36.171875 55.265625 
Q 40.578125 54.546875 44.28125 53.078125 
z
" id="DejaVuSans-73"/>
     </defs>
     <g style="fill:#ff7f0e;" transform="translate(14.798437 283.588594)rotate(-90)scale(0.1 -0.1)">
      <use xlink:href="#DejaVuSans-52"/>
      <use x="69.419922" xlink:href="#DejaVuSans-65"/>
      <use x="130.943359" xlink:href="#DejaVuSans-66"/>
      <use x="166.148438" xlink:href="#DejaVuSans-75"/>
      <use x="229.527344" xlink:href="#DejaVuSans-67"/>
      <use x="293.003906" xlink:href="#DejaVuSans-65"/>
      <use x="354.527344" xlink:href="#DejaVuSans-65"/>
      <use x="416.050781" xlink:href="#DejaVuSans-73"/>
     </g>
    </g>
   </g>
   <g id="line2d_14">
    <path clip-path="url(#pe1520860d8)" d="M 104.055398 458.622232 
L 108.909682 457.033134 
L 113.763967 457.901001 
L 118.618251 458.385282 
L 123.472536 458.251445 
L 128.32682 455.133722 
L 133.181105 464.385301 
L 138.035389 464.195058 
L 142.889673 468.841391 
L 147.743958 471.399553 
L 152.598242 467.308113 
L 157.452527 464.912911 
L 162.306811 451.129087 
L 167.161096 449.766784 
L 172.01538 449.690838 
L 176.869665 448.383202 
L 181.723949 447.809442 
L 186.578234 444.279009 
L 191.432518 418.695199 
L 196.286803 417.669025 
L 201.141087 419.32899 
L 205.995372 419.256298 
L 210.849656 420.618185 
L 215.703941 419.072648 
L 220.558225 383.305511 
L 225.41251 383.95095 
L 230.266794 385.256777 
L 235.121078 381.081284 
L 239.975363 378.525974 
L 244.829647 375.843769 
L 249.683932 380.55076 
L 254.538216 367.102262 
L 259.392501 366.414344 
L 264.246785 367.694201 
L 269.10107 368.578469 
L 273.955354 372.197779 
L 278.809639 364.213258 
L 283.663923 356.610259 
L 288.518208 366.374446 
L 293.372492 374.928724 
L 298.226777 367.611222 
L 303.081061 368.603017 
L 307.935346 395.709486 
L 312.78963 399.06967 
L 317.643914 401.472624 
L 327.352483 394.346881 
L 332.206768 389.694998 
L 337.061052 346.77076 
L 341.915337 329.991974 
L 346.769621 324.535664 
L 351.623906 321.871081 
L 356.47819 326.872179 
L 361.332475 329.070684 
L 366.186759 338.783704 
L 371.041044 342.023191 
L 375.895328 351.639057 
L 385.603897 362.639154 
L 390.458182 363.454247 
L 395.312466 313.540328 
L 405.021035 270.489597 
L 409.875319 246.895297 
L 414.729604 236.41396 
L 419.583888 229.857849 
L 424.438173 361.674813 
L 429.292457 367.070125 
L 434.146742 381.317778 
L 439.001026 392.040633 
L 443.855311 394.916637 
L 448.709595 395.278636 
L 453.56388 393.071723 
L 458.418164 398.218436 
L 463.272449 413.739779 
L 468.126733 425.74859 
L 472.981018 423.330719 
L 477.835302 422.092846 
L 482.689587 415.202561 
L 487.543871 411.445604 
L 492.398155 406.158391 
L 497.25244 396.851735 
L 502.106724 390.63929 
L 506.961009 385.31575 
L 511.815293 460.478818 
L 516.669578 451.880237 
L 521.523862 448.543704 
L 526.378147 447.778108 
L 531.232431 450.883697 
L 536.086716 451.464359 
L 540.941 470.451458 
L 545.795285 471.737692 
L 550.649569 477.998428 
L 555.503854 480.329409 
L 560.358138 469.846921 
L 565.212423 464.94154 
L 570.066707 445.990249 
L 574.920991 446.177409 
L 579.775276 449.482323 
L 584.62956 451.689723 
L 589.483845 451.895564 
L 594.338129 449.097624 
L 599.192414 454.356919 
L 604.046698 455.615707 
L 608.900983 460.17784 
L 613.755267 462.168958 
L 618.609552 460.531963 
L 623.463836 458.494362 
L 628.318121 419.050852 
L 633.172405 419.99618 
L 638.02669 422.048427 
L 642.880974 420.917122 
L 647.735259 417.611528 
L 652.589543 412.378442 
L 657.443827 416.788235 
L 662.298112 405.449604 
L 667.152396 388.482213 
L 672.006681 367.09073 
L 676.860965 353.018682 
L 681.71525 344.64392 
L 686.569534 137.211158 
L 691.423819 173.556051 
L 696.278103 239.554901 
L 701.132388 293.456574 
L 705.986672 331.858947 
L 710.840957 349.872593 
L 715.695241 364.394814 
L 720.549526 362.218229 
L 725.40381 372.608115 
L 730.258095 380.121224 
L 735.112379 370.853785 
L 739.966663 368.464156 
L 744.820948 382.34641 
L 749.675232 379.916636 
L 754.529517 392.834641 
L 759.383801 408.033774 
L 764.238086 416.262403 
L 769.09237 420.935834 
L 773.946655 421.127956 
L 778.800939 417.50928 
L 783.655224 419.526553 
L 788.509508 419.557354 
L 793.363793 417.065206 
L 798.218077 416.136341 
L 803.072362 385.549478 
L 807.926646 378.718459 
L 812.780931 375.991209 
L 817.635215 372.346501 
L 822.4895 372.854085 
L 827.343784 370.452012 
L 832.198068 373.916601 
L 837.052353 362.313281 
L 841.906637 352.989775 
L 846.760922 342.298084 
L 851.615206 339.079434 
L 856.469491 336.782956 
L 861.323775 303.073198 
L 866.17806 283.232245 
L 871.032344 276.271161 
L 875.886629 272.689724 
L 880.740913 279.836305 
L 885.595198 283.641576 
L 890.449482 352.609999 
L 895.303767 355.78903 
L 900.158051 365.633058 
L 905.012336 370.825744 
L 909.86662 368.096113 
L 914.720904 365.624478 
L 919.575189 349.083346 
L 924.429473 326.520274 
L 929.283758 325.82659 
L 934.138042 332.515517 
L 943.846611 349.520286 
L 948.700896 376.738765 
L 953.55518 369.562349 
L 958.409465 370.363839 
L 963.263749 371.635427 
L 968.118034 374.661761 
L 972.972318 375.696113 
L 977.826603 379.650663 
L 982.680887 368.119408 
L 987.535172 374.056915 
L 992.389456 384.025536 
L 1002.098025 396.588807 
L 1006.952309 393.073732 
L 1016.660878 399.401912 
L 1021.515163 397.429097 
L 1026.369447 394.302732 
L 1031.223732 389.191603 
L 1036.078016 383.818984 
L 1040.932301 374.101172 
L 1045.786585 377.485811 
L 1050.64087 383.793973 
L 1055.495154 390.332894 
L 1060.349439 394.070242 
L 1065.203723 415.116521 
L 1070.058008 415.640521 
L 1074.912292 417.813296 
L 1079.766577 416.79717 
L 1084.620861 416.574773 
L 1089.475145 414.191722 
L 1094.32943 383.655514 
L 1099.183714 370.72168 
L 1104.037999 376.727743 
L 1108.892283 387.75282 
L 1118.600852 402.46292 
L 1118.600852 402.46292 
" style="fill:none;stroke:#008000;stroke-dasharray:5.55,2.4;stroke-dashoffset:0;stroke-width:1.5;"/>
   </g>
   <g id="line2d_15">
    <path clip-path="url(#pe1520860d8)" d="M 104.055398 447.217186 
L 108.909682 451.016181 
L 113.763967 464.692563 
L 118.618251 486.98 
L 123.472536 476.849347 
L 128.32682 453.295578 
L 133.181105 483.181005 
L 142.889673 472.543819 
L 147.743958 474.823216 
L 152.598242 476.089548 
L 157.452527 484.953869 
L 162.306811 459.37397 
L 167.161096 451.016181 
L 172.01538 458.107638 
L 176.869665 433.034271 
L 181.723949 431.514673 
L 186.578234 430.248342 
L 191.432518 434.553869 
L 196.286803 444.17799 
L 201.141087 427.715678 
L 205.995372 423.156884 
L 210.849656 419.104623 
L 215.703941 389.978995 
L 220.558225 406.441307 
L 225.41251 404.921709 
L 230.266794 418.851357 
L 235.121078 379.088543 
L 239.975363 377.822211 
L 244.829647 367.438291 
L 249.683932 336.793065 
L 254.538216 385.420201 
L 259.392501 374.783015 
L 264.246785 355.028241 
L 269.10107 330.461407 
L 273.955354 384.660402 
L 278.809639 360.853367 
L 283.663923 378.328744 
L 288.518208 359.840302 
L 293.372492 339.325729 
L 298.226777 382.634271 
L 303.081061 374.276482 
L 312.78963 397.323719 
L 317.643914 396.310653 
L 322.498199 374.529749 
L 327.352483 392.258392 
L 332.206768 369.464422 
L 337.061052 366.17196 
L 341.915337 353.002111 
L 346.769621 355.028241 
L 351.623906 330.96794 
L 356.47819 346.923719 
L 361.332475 295.76392 
L 366.186759 369.970955 
L 371.041044 375.79608 
L 375.895328 319.824221 
L 380.749613 347.683518 
L 385.603897 365.412161 
L 390.458182 345.910653 
L 395.312466 357.307638 
L 400.16675 363.132764 
L 405.021035 353.508643 
L 409.875319 360.346834 
L 414.729604 397.576985 
L 419.583888 318.304623 
L 424.438173 385.166935 
L 429.292457 325.39608 
L 434.146742 280.314673 
L 439.001026 368.704623 
L 443.855311 406.947839 
L 448.709595 406.694573 
L 453.56388 429.235276 
L 458.418164 395.044322 
L 463.272449 429.741809 
L 468.126733 431.261407 
L 472.981018 428.222211 
L 477.835302 437.086533 
L 482.689587 463.426231 
L 487.543871 459.880503 
L 492.398155 471.78402 
L 497.25244 481.661407 
L 502.106724 473.303618 
L 506.961009 462.666432 
L 511.815293 462.919698 
L 516.669578 470.264422 
L 521.523862 454.815176 
L 526.378147 460.893568 
L 531.232431 466.718693 
L 536.086716 478.875477 
L 540.941 479.128744 
L 545.795285 474.823216 
L 550.649569 467.731759 
L 555.503854 373.516683 
L 560.358138 465.958894 
L 565.212423 464.945829 
L 570.066707 458.867437 
L 574.920991 473.556884 
L 579.775276 458.360905 
L 584.62956 458.614171 
L 589.483845 460.893568 
L 594.338129 469.757889 
L 599.192414 472.037286 
L 604.046698 456.841307 
L 608.900983 465.705628 
L 613.755267 441.138794 
L 618.609552 437.339799 
L 623.463836 439.619196 
L 628.318121 429.995075 
L 633.172405 420.117688 
L 638.02669 384.153869 
L 642.880974 380.861407 
L 647.735259 401.37598 
L 652.589543 411.253367 
L 657.443827 424.16995 
L 662.298112 427.968945 
L 667.152396 421.637286 
L 672.006681 420.877487 
L 676.860965 406.694573 
L 681.71525 189.138794 
L 686.569534 147.349849 
L 691.423819 33.38 
L 696.278103 261.572965 
L 701.132388 287.912663 
L 705.986672 353.255377 
L 710.840957 347.176985 
L 715.695241 385.420201 
L 720.549526 387.952864 
L 725.40381 336.286533 
L 730.258095 370.224221 
L 735.112379 397.070452 
L 739.966663 392.511658 
L 744.820948 391.751859 
L 754.529517 389.219196 
L 759.383801 376.302613 
L 764.238086 402.895578 
L 769.09237 433.79407 
L 773.946655 447.217186 
L 778.800939 430.248342 
L 783.655224 409.987035 
L 788.509508 440.125729 
L 793.363793 412.772965 
L 798.218077 408.97397 
L 803.072362 384.407136 
L 807.926646 380.861407 
L 812.780931 366.931759 
L 817.635215 363.892563 
L 822.4895 365.918693 
L 827.343784 362.372965 
L 832.198068 388.459397 
L 837.052353 372.756884 
L 841.906637 342.111658 
L 846.760922 342.364925 
L 851.615206 336.033266 
L 856.469491 328.435276 
L 861.323775 286.393065 
L 866.17806 277.78201 
L 871.032344 215.985025 
L 875.886629 223.583015 
L 880.740913 303.868442 
L 885.595198 329.701608 
L 890.449482 333.753869 
L 895.303767 355.281508 
L 900.158051 350.216181 
L 905.012336 356.547839 
L 909.86662 406.694573 
L 914.720904 351.229246 
L 919.575189 329.954874 
L 924.429473 359.587035 
L 929.283758 349.709648 
L 934.138042 311.466432 
L 938.992327 352.748844 
L 943.846611 363.38603 
L 948.700896 366.17196 
L 953.55518 385.926734 
L 958.409465 368.451357 
L 963.263749 370.477487 
L 968.118034 389.472462 
L 972.972318 381.621206 
L 977.826603 354.015176 
L 982.680887 370.98402 
L 987.535172 354.774975 
L 992.389456 348.443317 
L 997.24374 378.58201 
L 1002.098025 385.673467 
L 1006.952309 399.856382 
L 1011.806594 422.650352 
L 1016.660878 398.336784 
L 1021.515163 398.59005 
L 1026.369447 408.720704 
L 1031.223732 359.080503 
L 1036.078016 402.895578 
L 1040.932301 428.222211 
L 1045.786585 376.555879 
L 1050.64087 383.39407 
L 1055.495154 376.555879 
L 1060.349439 416.318693 
L 1065.203723 412.772965 
L 1070.058008 402.642312 
L 1074.912292 402.895578 
L 1079.766577 407.960905 
L 1084.620861 402.642312 
L 1089.475145 373.263417 
L 1094.32943 337.299598 
L 1099.183714 345.910653 
L 1104.037999 364.905628 
L 1108.892283 355.78804 
L 1113.746568 387.446332 
L 1118.600852 429.488543 
L 1118.600852 429.488543 
" style="fill:none;stroke:#ff7f0e;stroke-linecap:square;stroke-width:1.5;"/>
   </g>
   <g id="line2d_16">
    <defs>
     <path d="M 0 3 
C 0.795609 3 1.55874 2.683901 2.12132 2.12132 
C 2.683901 1.55874 3 0.795609 3 0 
C 3 -0.795609 2.683901 -1.55874 2.12132 -2.12132 
C 1.55874 -2.683901 0.795609 -3 0 -3 
C -0.795609 -3 -1.55874 -2.683901 -2.12132 -2.12132 
C -2.683901 -1.55874 -3 -0.795609 -3 0 
C -3 0.795609 -2.683901 1.55874 -2.12132 2.12132 
C -1.55874 2.683901 -0.795609 3 0 3 
z
" id="m42231ddc22" style="stroke:#008000;"/>
    </defs>
    <g clip-path="url(#pe1520860d8)">
     <use style="fill:#008000;stroke:#008000;" x="104.055398" xlink:href="#m42231ddc22" y="458.622232"/>
     <use style="fill:#008000;stroke:#008000;" x="133.181105" xlink:href="#m42231ddc22" y="464.385301"/>
     <use style="fill:#008000;stroke:#008000;" x="162.306811" xlink:href="#m42231ddc22" y="451.129087"/>
     <use style="fill:#008000;stroke:#008000;" x="191.432518" xlink:href="#m42231ddc22" y="418.695199"/>
     <use style="fill:#008000;stroke:#008000;" x="220.558225" xlink:href="#m42231ddc22" y="383.305511"/>
     <use style="fill:#008000;stroke:#008000;" x="249.683932" xlink:href="#m42231ddc22" y="380.55076"/>
     <use style="fill:#008000;stroke:#008000;" x="278.809639" xlink:href="#m42231ddc22" y="364.213258"/>
     <use style="fill:#008000;stroke:#008000;" x="307.935346" xlink:href="#m42231ddc22" y="395.709486"/>
     <use style="fill:#008000;stroke:#008000;" x="337.061052" xlink:href="#m42231ddc22" y="346.77076"/>
     <use style="fill:#008000;stroke:#008000;" x="366.186759" xlink:href="#m42231ddc22" y="338.783704"/>
     <use style="fill:#008000;stroke:#008000;" x="395.312466" xlink:href="#m42231ddc22" y="313.540328"/>
     <use style="fill:#008000;stroke:#008000;" x="424.438173" xlink:href="#m42231ddc22" y="361.674813"/>
     <use style="fill:#008000;stroke:#008000;" x="453.56388" xlink:href="#m42231ddc22" y="393.071723"/>
     <use style="fill:#008000;stroke:#008000;" x="482.689587" xlink:href="#m42231ddc22" y="415.202561"/>
     <use style="fill:#008000;stroke:#008000;" x="511.815293" xlink:href="#m42231ddc22" y="460.478818"/>
     <use style="fill:#008000;stroke:#008000;" x="540.941" xlink:href="#m42231ddc22" y="470.451458"/>
     <use style="fill:#008000;stroke:#008000;" x="570.066707" xlink:href="#m42231ddc22" y="445.990249"/>
     <use style="fill:#008000;stroke:#008000;" x="599.192414" xlink:href="#m42231ddc22" y="454.356919"/>
     <use style="fill:#008000;stroke:#008000;" x="628.318121" xlink:href="#m42231ddc22" y="419.050852"/>
     <use style="fill:#008000;stroke:#008000;" x="657.443827" xlink:href="#m42231ddc22" y="416.788235"/>
     <use style="fill:#008000;stroke:#008000;" x="686.569534" xlink:href="#m42231ddc22" y="137.211158"/>
     <use style="fill:#008000;stroke:#008000;" x="715.695241" xlink:href="#m42231ddc22" y="364.394814"/>
     <use style="fill:#008000;stroke:#008000;" x="744.820948" xlink:href="#m42231ddc22" y="382.34641"/>
     <use style="fill:#008000;stroke:#008000;" x="773.946655" xlink:href="#m42231ddc22" y="421.127956"/>
     <use style="fill:#008000;stroke:#008000;" x="803.072362" xlink:href="#m42231ddc22" y="385.549478"/>
     <use style="fill:#008000;stroke:#008000;" x="832.198068" xlink:href="#m42231ddc22" y="373.916601"/>
     <use style="fill:#008000;stroke:#008000;" x="861.323775" xlink:href="#m42231ddc22" y="303.073198"/>
     <use style="fill:#008000;stroke:#008000;" x="890.449482" xlink:href="#m42231ddc22" y="352.609999"/>
     <use style="fill:#008000;stroke:#008000;" x="919.575189" xlink:href="#m42231ddc22" y="349.083346"/>
     <use style="fill:#008000;stroke:#008000;" x="948.700896" xlink:href="#m42231ddc22" y="376.738765"/>
     <use style="fill:#008000;stroke:#008000;" x="977.826603" xlink:href="#m42231ddc22" y="379.650663"/>
     <use style="fill:#008000;stroke:#008000;" x="1006.952309" xlink:href="#m42231ddc22" y="393.073732"/>
     <use style="fill:#008000;stroke:#008000;" x="1036.078016" xlink:href="#m42231ddc22" y="383.818984"/>
     <use style="fill:#008000;stroke:#008000;" x="1065.203723" xlink:href="#m42231ddc22" y="415.116521"/>
     <use style="fill:#008000;stroke:#008000;" x="1094.32943" xlink:href="#m42231ddc22" y="383.655514"/>
    </g>
   </g>
   <g id="patch_3">
    <path d="M 53.328125 509.66 
L 53.328125 10.7 
" style="fill:none;stroke:#000000;stroke-linecap:square;stroke-linejoin:miter;stroke-width:0.8;"/>
   </g>
   <g id="patch_4">
    <path d="M 1169.328125 509.66 
L 1169.328125 10.7 
" style="fill:none;stroke:#000000;stroke-linecap:square;stroke-linejoin:miter;stroke-width:0.8;"/>
   </g>
   <g id="patch_5">
    <path d="M 53.328125 509.66 
L 1169.328125 509.66 
" style="fill:none;stroke:#000000;stroke-linecap:square;stroke-linejoin:miter;stroke-width:0.8;"/>
   </g>
   <g id="patch_6">
    <path d="M 53.328125 10.7 
L 1169.328125 10.7 
" style="fill:none;stroke:#000000;stroke-linecap:square;stroke-linejoin:miter;stroke-width:0.8;"/>
   </g>
   <g id="legend_1">
    <g id="patch_7">
     <path d="M 60.328125 62.734375 
L 208.103125 62.734375 
Q 210.103125 62.734375 210.103125 60.734375 
L 210.103125 17.7 
Q 210.103125 15.7 208.103125 15.7 
L 60.328125 15.7 
Q 58.328125 15.7 58.328125 17.7 
L 58.328125 60.734375 
Q 58.328125 62.734375 60.328125 62.734375 
z
" style="fill:#ffffff;opacity:0.8;stroke:#cccccc;stroke-linejoin:miter;"/>
    </g>
    <g id="line2d_17">
     <path d="M 62.328125 23.798437 
L 82.328125 23.798437 
" style="fill:none;stroke:#008000;stroke-dasharray:5.55,2.4;stroke-dashoffset:0;stroke-width:1.5;"/>
    </g>
    <g id="line2d_18"/>
    <g id="text_16">
     <!-- Predicted -->
     <defs>
      <path d="M 19.671875 64.796875 
L 19.671875 37.40625 
L 32.078125 37.40625 
Q 38.96875 37.40625 42.71875 40.96875 
Q 46.484375 44.53125 46.484375 51.125 
Q 46.484375 57.671875 42.71875 61.234375 
Q 38.96875 64.796875 32.078125 64.796875 
z
M 9.8125 72.90625 
L 32.078125 72.90625 
Q 44.34375 72.90625 50.609375 67.359375 
Q 56.890625 61.8125 56.890625 51.125 
Q 56.890625 40.328125 50.609375 34.8125 
Q 44.34375 29.296875 32.078125 29.296875 
L 19.671875 29.296875 
L 19.671875 0 
L 9.8125 0 
z
" id="DejaVuSans-50"/>
      <path d="M 41.109375 46.296875 
Q 39.59375 47.171875 37.8125 47.578125 
Q 36.03125 48 33.890625 48 
Q 26.265625 48 22.1875 43.046875 
Q 18.109375 38.09375 18.109375 28.8125 
L 18.109375 0 
L 9.078125 0 
L 9.078125 54.6875 
L 18.109375 54.6875 
L 18.109375 46.1875 
Q 20.953125 51.171875 25.484375 53.578125 
Q 30.03125 56 36.53125 56 
Q 37.453125 56 38.578125 55.875 
Q 39.703125 55.765625 41.0625 55.515625 
z
" id="DejaVuSans-72"/>
      <path d="M 45.40625 46.390625 
L 45.40625 75.984375 
L 54.390625 75.984375 
L 54.390625 0 
L 45.40625 0 
L 45.40625 8.203125 
Q 42.578125 3.328125 38.25 0.953125 
Q 33.9375 -1.421875 27.875 -1.421875 
Q 17.96875 -1.421875 11.734375 6.484375 
Q 5.515625 14.40625 5.515625 27.296875 
Q 5.515625 40.1875 11.734375 48.09375 
Q 17.96875 56 27.875 56 
Q 33.9375 56 38.25 53.625 
Q 42.578125 51.265625 45.40625 46.390625 
z
M 14.796875 27.296875 
Q 14.796875 17.390625 18.875 11.75 
Q 22.953125 6.109375 30.078125 6.109375 
Q 37.203125 6.109375 41.296875 11.75 
Q 45.40625 17.390625 45.40625 27.296875 
Q 45.40625 37.203125 41.296875 42.84375 
Q 37.203125 48.484375 30.078125 48.484375 
Q 22.953125 48.484375 18.875 42.84375 
Q 14.796875 37.203125 14.796875 27.296875 
z
" id="DejaVuSans-64"/>
      <path d="M 48.78125 52.59375 
L 48.78125 44.1875 
Q 44.96875 46.296875 41.140625 47.34375 
Q 37.3125 48.390625 33.40625 48.390625 
Q 24.65625 48.390625 19.8125 42.84375 
Q 14.984375 37.3125 14.984375 27.296875 
Q 14.984375 17.28125 19.8125 11.734375 
Q 24.65625 6.203125 33.40625 6.203125 
Q 37.3125 6.203125 41.140625 7.25 
Q 44.96875 8.296875 48.78125 10.40625 
L 48.78125 2.09375 
Q 45.015625 0.34375 40.984375 -0.53125 
Q 36.96875 -1.421875 32.421875 -1.421875 
Q 20.0625 -1.421875 12.78125 6.34375 
Q 5.515625 14.109375 5.515625 27.296875 
Q 5.515625 40.671875 12.859375 48.328125 
Q 20.21875 56 33.015625 56 
Q 37.15625 56 41.109375 55.140625 
Q 45.0625 54.296875 48.78125 52.59375 
z
" id="DejaVuSans-63"/>
      <path d="M 18.3125 70.21875 
L 18.3125 54.6875 
L 36.8125 54.6875 
L 36.8125 47.703125 
L 18.3125 47.703125 
L 18.3125 18.015625 
Q 18.3125 11.328125 20.140625 9.421875 
Q 21.96875 7.515625 27.59375 7.515625 
L 36.8125 7.515625 
L 36.8125 0 
L 27.59375 0 
Q 17.1875 0 13.234375 3.875 
Q 9.28125 7.765625 9.28125 18.015625 
L 9.28125 47.703125 
L 2.6875 47.703125 
L 2.6875 54.6875 
L 9.28125 54.6875 
L 9.28125 70.21875 
z
" id="DejaVuSans-74"/>
     </defs>
     <g transform="translate(90.328125 27.298437)scale(0.1 -0.1)">
      <use xlink:href="#DejaVuSans-50"/>
      <use x="60.287109" xlink:href="#DejaVuSans-72"/>
      <use x="101.369141" xlink:href="#DejaVuSans-65"/>
      <use x="162.892578" xlink:href="#DejaVuSans-64"/>
      <use x="226.369141" xlink:href="#DejaVuSans-69"/>
      <use x="254.152344" xlink:href="#DejaVuSans-63"/>
      <use x="309.132812" xlink:href="#DejaVuSans-74"/>
      <use x="348.341797" xlink:href="#DejaVuSans-65"/>
      <use x="409.865234" xlink:href="#DejaVuSans-64"/>
     </g>
    </g>
    <g id="line2d_19">
     <path d="M 62.328125 38.476562 
L 82.328125 38.476562 
" style="fill:none;stroke:#ff7f0e;stroke-linecap:square;stroke-width:1.5;"/>
    </g>
    <g id="line2d_20"/>
    <g id="text_17">
     <!-- Real Data -->
     <defs>
      <path d="M 34.28125 27.484375 
Q 23.390625 27.484375 19.1875 25 
Q 14.984375 22.515625 14.984375 16.5 
Q 14.984375 11.71875 18.140625 8.90625 
Q 21.296875 6.109375 26.703125 6.109375 
Q 34.1875 6.109375 38.703125 11.40625 
Q 43.21875 16.703125 43.21875 25.484375 
L 43.21875 27.484375 
z
M 52.203125 31.203125 
L 52.203125 0 
L 43.21875 0 
L 43.21875 8.296875 
Q 40.140625 3.328125 35.546875 0.953125 
Q 30.953125 -1.421875 24.3125 -1.421875 
Q 15.921875 -1.421875 10.953125 3.296875 
Q 6 8.015625 6 15.921875 
Q 6 25.140625 12.171875 29.828125 
Q 18.359375 34.515625 30.609375 34.515625 
L 43.21875 34.515625 
L 43.21875 35.40625 
Q 43.21875 41.609375 39.140625 45 
Q 35.0625 48.390625 27.6875 48.390625 
Q 23 48.390625 18.546875 47.265625 
Q 14.109375 46.140625 10.015625 43.890625 
L 10.015625 52.203125 
Q 14.9375 54.109375 19.578125 55.046875 
Q 24.21875 56 28.609375 56 
Q 40.484375 56 46.34375 49.84375 
Q 52.203125 43.703125 52.203125 31.203125 
z
" id="DejaVuSans-61"/>
      <path d="M 9.421875 75.984375 
L 18.40625 75.984375 
L 18.40625 0 
L 9.421875 0 
z
" id="DejaVuSans-6c"/>
      <path id="DejaVuSans-20"/>
      <path d="M 19.671875 64.796875 
L 19.671875 8.109375 
L 31.59375 8.109375 
Q 46.6875 8.109375 53.6875 14.9375 
Q 60.6875 21.78125 60.6875 36.53125 
Q 60.6875 51.171875 53.6875 57.984375 
Q 46.6875 64.796875 31.59375 64.796875 
z
M 9.8125 72.90625 
L 30.078125 72.90625 
Q 51.265625 72.90625 61.171875 64.09375 
Q 71.09375 55.28125 71.09375 36.53125 
Q 71.09375 17.671875 61.125 8.828125 
Q 51.171875 0 30.078125 0 
L 9.8125 0 
z
" id="DejaVuSans-44"/>
     </defs>
     <g transform="translate(90.328125 41.976562)scale(0.1 -0.1)">
      <use xlink:href="#DejaVuSans-52"/>
      <use x="69.419922" xlink:href="#DejaVuSans-65"/>
      <use x="130.943359" xlink:href="#DejaVuSans-61"/>
      <use x="192.222656" xlink:href="#DejaVuSans-6c"/>
      <use x="220.005859" xlink:href="#DejaVuSans-20"/>
      <use x="251.792969" xlink:href="#DejaVuSans-44"/>
      <use x="328.794922" xlink:href="#DejaVuSans-61"/>
      <use x="390.074219" xlink:href="#DejaVuSans-74"/>
      <use x="429.283203" xlink:href="#DejaVuSans-61"/>
     </g>
    </g>
    <g id="line2d_21"/>
    <g id="line2d_22">
     <g>
      <use style="fill:#008000;stroke:#008000;" x="72.328125" xlink:href="#m42231ddc22" y="53.154688"/>
     </g>
    </g>
    <g id="text_18">
     <!-- Start Point for Forecast -->
     <defs>
      <path d="M 53.515625 70.515625 
L 53.515625 60.890625 
Q 47.90625 63.578125 42.921875 64.890625 
Q 37.9375 66.21875 33.296875 66.21875 
Q 25.25 66.21875 20.875 63.09375 
Q 16.5 59.96875 16.5 54.203125 
Q 16.5 49.359375 19.40625 46.890625 
Q 22.3125 44.4375 30.421875 42.921875 
L 36.375 41.703125 
Q 47.40625 39.59375 52.65625 34.296875 
Q 57.90625 29 57.90625 20.125 
Q 57.90625 9.515625 50.796875 4.046875 
Q 43.703125 -1.421875 29.984375 -1.421875 
Q 24.8125 -1.421875 18.96875 -0.25 
Q 13.140625 0.921875 6.890625 3.21875 
L 6.890625 13.375 
Q 12.890625 10.015625 18.65625 8.296875 
Q 24.421875 6.59375 29.984375 6.59375 
Q 38.421875 6.59375 43.015625 9.90625 
Q 47.609375 13.234375 47.609375 19.390625 
Q 47.609375 24.75 44.3125 27.78125 
Q 41.015625 30.8125 33.5 32.328125 
L 27.484375 33.5 
Q 16.453125 35.6875 11.515625 40.375 
Q 6.59375 45.0625 6.59375 53.421875 
Q 6.59375 63.09375 13.40625 68.65625 
Q 20.21875 74.21875 32.171875 74.21875 
Q 37.3125 74.21875 42.625 73.28125 
Q 47.953125 72.359375 53.515625 70.515625 
z
" id="DejaVuSans-53"/>
      <path d="M 30.609375 48.390625 
Q 23.390625 48.390625 19.1875 42.75 
Q 14.984375 37.109375 14.984375 27.296875 
Q 14.984375 17.484375 19.15625 11.84375 
Q 23.34375 6.203125 30.609375 6.203125 
Q 37.796875 6.203125 41.984375 11.859375 
Q 46.1875 17.53125 46.1875 27.296875 
Q 46.1875 37.015625 41.984375 42.703125 
Q 37.796875 48.390625 30.609375 48.390625 
z
M 30.609375 56 
Q 42.328125 56 49.015625 48.375 
Q 55.71875 40.765625 55.71875 27.296875 
Q 55.71875 13.875 49.015625 6.21875 
Q 42.328125 -1.421875 30.609375 -1.421875 
Q 18.84375 -1.421875 12.171875 6.21875 
Q 5.515625 13.875 5.515625 27.296875 
Q 5.515625 40.765625 12.171875 48.375 
Q 18.84375 56 30.609375 56 
z
" id="DejaVuSans-6f"/>
      <path d="M 54.890625 33.015625 
L 54.890625 0 
L 45.90625 0 
L 45.90625 32.71875 
Q 45.90625 40.484375 42.875 44.328125 
Q 39.84375 48.1875 33.796875 48.1875 
Q 26.515625 48.1875 22.3125 43.546875 
Q 18.109375 38.921875 18.109375 30.90625 
L 18.109375 0 
L 9.078125 0 
L 9.078125 54.6875 
L 18.109375 54.6875 
L 18.109375 46.1875 
Q 21.34375 51.125 25.703125 53.5625 
Q 30.078125 56 35.796875 56 
Q 45.21875 56 50.046875 50.171875 
Q 54.890625 44.34375 54.890625 33.015625 
z
" id="DejaVuSans-6e"/>
      <path d="M 9.8125 72.90625 
L 51.703125 72.90625 
L 51.703125 64.59375 
L 19.671875 64.59375 
L 19.671875 43.109375 
L 48.578125 43.109375 
L 48.578125 34.8125 
L 19.671875 34.8125 
L 19.671875 0 
L 9.8125 0 
z
" id="DejaVuSans-46"/>
     </defs>
     <g transform="translate(90.328125 56.654688)scale(0.1 -0.1)">
      <use xlink:href="#DejaVuSans-53"/>
      <use x="63.476562" xlink:href="#DejaVuSans-74"/>
      <use x="102.685547" xlink:href="#DejaVuSans-61"/>
      <use x="163.964844" xlink:href="#DejaVuSans-72"/>
      <use x="205.078125" xlink:href="#DejaVuSans-74"/>
      <use x="244.287109" xlink:href="#DejaVuSans-20"/>
      <use x="276.074219" xlink:href="#DejaVuSans-50"/>
      <use x="336.330078" xlink:href="#DejaVuSans-6f"/>
      <use x="397.511719" xlink:href="#DejaVuSans-69"/>
      <use x="425.294922" xlink:href="#DejaVuSans-6e"/>
      <use x="488.673828" xlink:href="#DejaVuSans-74"/>
      <use x="527.882812" xlink:href="#DejaVuSans-20"/>
      <use x="559.669922" xlink:href="#DejaVuSans-66"/>
      <use x="594.875" xlink:href="#DejaVuSans-6f"/>
      <use x="656.056641" xlink:href="#DejaVuSans-72"/>
      <use x="697.169922" xlink:href="#DejaVuSans-20"/>
      <use x="728.957031" xlink:href="#DejaVuSans-46"/>
      <use x="786.429688" xlink:href="#DejaVuSans-6f"/>
      <use x="847.611328" xlink:href="#DejaVuSans-72"/>
      <use x="888.693359" xlink:href="#DejaVuSans-65"/>
      <use x="950.216797" xlink:href="#DejaVuSans-63"/>
      <use x="1005.197266" xlink:href="#DejaVuSans-61"/>
      <use x="1066.476562" xlink:href="#DejaVuSans-73"/>
      <use x="1118.576172" xlink:href="#DejaVuSans-74"/>
     </g>
    </g>
   </g>
  </g>
  <g id="axes_2">
   <g id="patch_8">
    <path d="M 53.328125 645.74 
L 1170.768125 645.74 
L 1170.768125 516.14 
L 53.328125 516.14 
z
" style="fill:none;"/>
   </g>
   <g id="matplotlib.axis_3">
    <g id="xtick_6">
     <g id="line2d_23">
      <g>
       <use style="stroke:#000000;stroke-width:0.8;" x="104.120852" xlink:href="#m66bb430c2c" y="645.74"/>
      </g>
     </g>
     <g id="text_19">
      <!-- 0 -->
      <g transform="translate(100.939602 660.338437)scale(0.1 -0.1)">
       <use xlink:href="#DejaVuSans-30"/>
      </g>
     </g>
    </g>
    <g id="xtick_7">
     <g id="line2d_24">
      <g>
       <use style="stroke:#000000;stroke-width:0.8;" x="228.612831" xlink:href="#m66bb430c2c" y="645.74"/>
      </g>
     </g>
     <g id="text_20">
      <!-- 25 -->
      <g transform="translate(222.250331 660.338437)scale(0.1 -0.1)">
       <use xlink:href="#DejaVuSans-32"/>
       <use x="63.623047" xlink:href="#DejaVuSans-35"/>
      </g>
     </g>
    </g>
    <g id="xtick_8">
     <g id="line2d_25">
      <g>
       <use style="stroke:#000000;stroke-width:0.8;" x="353.104809" xlink:href="#m66bb430c2c" y="645.74"/>
      </g>
     </g>
     <g id="text_21">
      <!-- 50 -->
      <g transform="translate(346.742309 660.338437)scale(0.1 -0.1)">
       <use xlink:href="#DejaVuSans-35"/>
       <use x="63.623047" xlink:href="#DejaVuSans-30"/>
      </g>
     </g>
    </g>
    <g id="xtick_9">
     <g id="line2d_26">
      <g>
       <use style="stroke:#000000;stroke-width:0.8;" x="477.596788" xlink:href="#m66bb430c2c" y="645.74"/>
      </g>
     </g>
     <g id="text_22">
      <!-- 75 -->
      <g transform="translate(471.234288 660.338437)scale(0.1 -0.1)">
       <use xlink:href="#DejaVuSans-37"/>
       <use x="63.623047" xlink:href="#DejaVuSans-35"/>
      </g>
     </g>
    </g>
    <g id="xtick_10">
     <g id="line2d_27">
      <g>
       <use style="stroke:#000000;stroke-width:0.8;" x="602.088767" xlink:href="#m66bb430c2c" y="645.74"/>
      </g>
     </g>
     <g id="text_23">
      <!-- 100 -->
      <g transform="translate(592.545017 660.338437)scale(0.1 -0.1)">
       <use xlink:href="#DejaVuSans-31"/>
       <use x="63.623047" xlink:href="#DejaVuSans-30"/>
       <use x="127.246094" xlink:href="#DejaVuSans-30"/>
      </g>
     </g>
    </g>
    <g id="xtick_11">
     <g id="line2d_28">
      <g>
       <use style="stroke:#000000;stroke-width:0.8;" x="726.580745" xlink:href="#m66bb430c2c" y="645.74"/>
      </g>
     </g>
     <g id="text_24">
      <!-- 125 -->
      <g transform="translate(717.036995 660.338437)scale(0.1 -0.1)">
       <use xlink:href="#DejaVuSans-31"/>
       <use x="63.623047" xlink:href="#DejaVuSans-32"/>
       <use x="127.246094" xlink:href="#DejaVuSans-35"/>
      </g>
     </g>
    </g>
    <g id="xtick_12">
     <g id="line2d_29">
      <g>
       <use style="stroke:#000000;stroke-width:0.8;" x="851.072724" xlink:href="#m66bb430c2c" y="645.74"/>
      </g>
     </g>
     <g id="text_25">
      <!-- 150 -->
      <g transform="translate(841.528974 660.338437)scale(0.1 -0.1)">
       <use xlink:href="#DejaVuSans-31"/>
       <use x="63.623047" xlink:href="#DejaVuSans-35"/>
       <use x="127.246094" xlink:href="#DejaVuSans-30"/>
      </g>
     </g>
    </g>
    <g id="xtick_13">
     <g id="line2d_30">
      <g>
       <use style="stroke:#000000;stroke-width:0.8;" x="975.564703" xlink:href="#m66bb430c2c" y="645.74"/>
      </g>
     </g>
     <g id="text_26">
      <!-- 175 -->
      <g transform="translate(966.020953 660.338437)scale(0.1 -0.1)">
       <use xlink:href="#DejaVuSans-31"/>
       <use x="63.623047" xlink:href="#DejaVuSans-37"/>
       <use x="127.246094" xlink:href="#DejaVuSans-35"/>
      </g>
     </g>
    </g>
    <g id="xtick_14">
     <g id="line2d_31">
      <g>
       <use style="stroke:#000000;stroke-width:0.8;" x="1100.056681" xlink:href="#m66bb430c2c" y="645.74"/>
      </g>
     </g>
     <g id="text_27">
      <!-- 200 -->
      <g transform="translate(1090.512931 660.338437)scale(0.1 -0.1)">
       <use xlink:href="#DejaVuSans-32"/>
       <use x="63.623047" xlink:href="#DejaVuSans-30"/>
       <use x="127.246094" xlink:href="#DejaVuSans-30"/>
      </g>
     </g>
    </g>
   </g>
   <g id="matplotlib.axis_4">
    <g id="ytick_9">
     <g id="line2d_32">
      <g>
       <use style="stroke:#000000;stroke-width:0.8;" x="53.328125" xlink:href="#mb1ca9faf9e" y="630.322026"/>
      </g>
     </g>
     <g id="text_28">
      <!-- −10 -->
      <defs>
       <path d="M 10.59375 35.5 
L 73.1875 35.5 
L 73.1875 27.203125 
L 10.59375 27.203125 
z
" id="DejaVuSans-2212"/>
      </defs>
      <g transform="translate(25.223437 634.121245)scale(0.1 -0.1)">
       <use xlink:href="#DejaVuSans-2212"/>
       <use x="83.789062" xlink:href="#DejaVuSans-31"/>
       <use x="147.412109" xlink:href="#DejaVuSans-30"/>
      </g>
     </g>
    </g>
    <g id="ytick_10">
     <g id="line2d_33">
      <g>
       <use style="stroke:#000000;stroke-width:0.8;" x="53.328125" xlink:href="#mb1ca9faf9e" y="604.989882"/>
      </g>
     </g>
     <g id="text_29">
      <!-- 0 -->
      <g transform="translate(39.965625 608.789101)scale(0.1 -0.1)">
       <use xlink:href="#DejaVuSans-30"/>
      </g>
     </g>
    </g>
    <g id="ytick_11">
     <g id="line2d_34">
      <g>
       <use style="stroke:#000000;stroke-width:0.8;" x="53.328125" xlink:href="#mb1ca9faf9e" y="579.657738"/>
      </g>
     </g>
     <g id="text_30">
      <!-- 10 -->
      <g transform="translate(33.603125 583.456956)scale(0.1 -0.1)">
       <use xlink:href="#DejaVuSans-31"/>
       <use x="63.623047" xlink:href="#DejaVuSans-30"/>
      </g>
     </g>
    </g>
    <g id="ytick_12">
     <g id="line2d_35">
      <g>
       <use style="stroke:#000000;stroke-width:0.8;" x="53.328125" xlink:href="#mb1ca9faf9e" y="554.325593"/>
      </g>
     </g>
     <g id="text_31">
      <!-- 20 -->
      <g transform="translate(33.603125 558.124812)scale(0.1 -0.1)">
       <use xlink:href="#DejaVuSans-32"/>
       <use x="63.623047" xlink:href="#DejaVuSans-30"/>
      </g>
     </g>
    </g>
    <g id="ytick_13">
     <g id="line2d_36">
      <g>
       <use style="stroke:#000000;stroke-width:0.8;" x="53.328125" xlink:href="#mb1ca9faf9e" y="528.993449"/>
      </g>
     </g>
     <g id="text_32">
      <!-- 30 -->
      <defs>
       <path d="M 40.578125 39.3125 
Q 47.65625 37.796875 51.625 33 
Q 55.609375 28.21875 55.609375 21.1875 
Q 55.609375 10.40625 48.1875 4.484375 
Q 40.765625 -1.421875 27.09375 -1.421875 
Q 22.515625 -1.421875 17.65625 -0.515625 
Q 12.796875 0.390625 7.625 2.203125 
L 7.625 11.71875 
Q 11.71875 9.328125 16.59375 8.109375 
Q 21.484375 6.890625 26.8125 6.890625 
Q 36.078125 6.890625 40.9375 10.546875 
Q 45.796875 14.203125 45.796875 21.1875 
Q 45.796875 27.640625 41.28125 31.265625 
Q 36.765625 34.90625 28.71875 34.90625 
L 20.21875 34.90625 
L 20.21875 43.015625 
L 29.109375 43.015625 
Q 36.375 43.015625 40.234375 45.921875 
Q 44.09375 48.828125 44.09375 54.296875 
Q 44.09375 59.90625 40.109375 62.90625 
Q 36.140625 65.921875 28.71875 65.921875 
Q 24.65625 65.921875 20.015625 65.03125 
Q 15.375 64.15625 9.8125 62.3125 
L 9.8125 71.09375 
Q 15.4375 72.65625 20.34375 73.4375 
Q 25.25 74.21875 29.59375 74.21875 
Q 40.828125 74.21875 47.359375 69.109375 
Q 53.90625 64.015625 53.90625 55.328125 
Q 53.90625 49.265625 50.4375 45.09375 
Q 46.96875 40.921875 40.578125 39.3125 
z
" id="DejaVuSans-33"/>
      </defs>
      <g transform="translate(33.603125 532.792668)scale(0.1 -0.1)">
       <use xlink:href="#DejaVuSans-33"/>
       <use x="63.623047" xlink:href="#DejaVuSans-30"/>
      </g>
     </g>
    </g>
    <g id="text_33">
     <!-- Temperature -->
     <defs>
      <path d="M 18.109375 8.203125 
L 18.109375 -20.796875 
L 9.078125 -20.796875 
L 9.078125 54.6875 
L 18.109375 54.6875 
L 18.109375 46.390625 
Q 20.953125 51.265625 25.265625 53.625 
Q 29.59375 56 35.59375 56 
Q 45.5625 56 51.78125 48.09375 
Q 58.015625 40.1875 58.015625 27.296875 
Q 58.015625 14.40625 51.78125 6.484375 
Q 45.5625 -1.421875 35.59375 -1.421875 
Q 29.59375 -1.421875 25.265625 0.953125 
Q 20.953125 3.328125 18.109375 8.203125 
z
M 48.6875 27.296875 
Q 48.6875 37.203125 44.609375 42.84375 
Q 40.53125 48.484375 33.40625 48.484375 
Q 26.265625 48.484375 22.1875 42.84375 
Q 18.109375 37.203125 18.109375 27.296875 
Q 18.109375 17.390625 22.1875 11.75 
Q 26.265625 6.109375 33.40625 6.109375 
Q 40.53125 6.109375 44.609375 11.75 
Q 48.6875 17.390625 48.6875 27.296875 
z
" id="DejaVuSans-70"/>
     </defs>
     <g style="fill:#0000ff;" transform="translate(19.14375 613.557187)rotate(-90)scale(0.1 -0.1)">
      <use xlink:href="#DejaVuSans-54"/>
      <use x="60.818359" xlink:href="#DejaVuSans-65"/>
      <use x="122.341797" xlink:href="#DejaVuSans-6d"/>
      <use x="219.753906" xlink:href="#DejaVuSans-70"/>
      <use x="283.230469" xlink:href="#DejaVuSans-65"/>
      <use x="344.753906" xlink:href="#DejaVuSans-72"/>
      <use x="385.867188" xlink:href="#DejaVuSans-61"/>
      <use x="447.146484" xlink:href="#DejaVuSans-74"/>
      <use x="486.355469" xlink:href="#DejaVuSans-75"/>
      <use x="549.734375" xlink:href="#DejaVuSans-72"/>
      <use x="590.816406" xlink:href="#DejaVuSans-65"/>
     </g>
    </g>
   </g>
   <g id="line2d_37">
    <path clip-path="url(#p6b6ffbe227)" d="M 104.120852 531.971243 
L 109.100531 530.53187 
L 114.080211 544.81768 
L 119.05989 558.043845 
L 124.039569 581.72061 
L 129.019248 578.33616 
L 133.998927 596.742572 
L 138.978606 588.071379 
L 143.958285 581.51542 
L 148.937965 555.864014 
L 153.917644 555.436914 
L 158.897323 544.476456 
L 163.877002 527.662751 
L 168.856681 535.382216 
L 173.83636 545.304817 
L 178.816039 563.619957 
L 183.795719 573.55953 
L 188.775398 585.168315 
L 193.755077 596.061568 
L 198.734756 591.24086 
L 203.714435 579.224558 
L 208.694114 570.799087 
L 213.673793 559.92653 
L 218.653473 541.916136 
L 223.633152 536.84768 
L 228.612831 535.459479 
L 233.59251 544.762202 
L 238.572189 568.606083 
L 243.551868 580.265709 
L 248.531547 594.395979 
L 253.511227 598.789839 
L 258.490906 587.461305 
L 263.470585 580.430368 
L 268.450264 577.956684 
L 273.429943 560.474211 
L 278.409622 548.646126 
L 283.389301 537.684908 
L 288.368981 543.963986 
L 293.34866 546.857677 
L 298.328339 559.139207 
L 303.308018 573.664152 
L 308.287697 605.970236 
L 313.267376 594.262555 
L 318.247055 596.593973 
L 323.226735 592.888716 
L 328.206414 572.955359 
L 333.186093 548.491094 
L 338.165772 547.328095 
L 343.145451 541.695493 
L 348.12513 537.089096 
L 353.104809 551.645452 
L 358.084489 557.748473 
L 363.064168 575.741895 
L 368.043847 586.845987 
L 373.023526 580.553862 
L 378.003205 592.83215 
L 382.982884 576.771393 
L 387.962564 569.750336 
L 392.942243 556.773692 
L 397.921922 546.813852 
L 402.901601 541.419626 
L 407.88128 534.43226 
L 412.860959 544.308503 
L 417.840638 556.370404 
L 422.820318 578.197846 
L 427.799997 594.149903 
L 432.779676 591.376387 
L 437.759355 590.142205 
L 442.739034 581.658977 
L 447.718713 560.063324 
L 452.698392 548.446003 
L 457.678072 545.006911 
L 462.657751 527.158388 
L 467.63743 530.087544 
L 472.617109 540.642942 
L 477.596788 561.27952 
L 487.556146 581.642663 
L 492.535826 597.978628 
L 497.515505 587.113216 
L 502.495184 572.664546 
L 507.474863 565.237414 
L 512.454542 552.312954 
L 517.434221 535.706467 
L 522.4139 540.880051 
L 527.39358 522.030909 
L 532.373259 544.866064 
L 537.352938 557.778111 
L 542.332617 576.69793 
L 547.312296 589.410866 
L 557.271654 586.71697 
L 562.251334 579.295995 
L 567.231013 576.507685 
L 572.210692 545.733437 
L 577.190371 542.393393 
L 582.17005 534.291414 
L 587.149729 530.82167 
L 592.129408 539.310218 
L 597.109088 553.709769 
L 602.088767 579.664349 
L 607.068446 592.630506 
L 612.048125 604.907733 
L 617.027804 595.368911 
L 622.007483 566.760383 
L 626.987162 555.724688 
L 631.966842 558.457519 
L 641.9262 534.52067 
L 646.905879 534.986274 
L 651.885558 543.474316 
L 661.844916 571.874183 
L 666.824596 588.853737 
L 671.804275 592.567632 
L 676.783954 581.714024 
L 681.763633 577.829517 
L 686.743312 570.192382 
L 691.722991 553.848589 
L 696.70267 540.579105 
L 701.68235 536.181192 
L 706.662029 542.423539 
L 711.641708 550.376059 
L 716.621387 552.031514 
L 721.601066 575.035128 
L 726.580745 582.936249 
L 731.560424 588.335086 
L 736.540104 584.417825 
L 741.519783 575.956711 
L 746.499462 566.608897 
L 756.45882 535.400202 
L 761.438499 529.075778 
L 766.418178 525.258224 
L 771.397858 536.93457 
L 776.377537 560.074217 
L 781.357216 562.645936 
L 786.336895 574.361039 
L 791.316574 588.969834 
L 796.296253 596.453279 
L 801.275932 579.792834 
L 806.255612 572.70989 
L 811.235291 554.638952 
L 816.21497 542.492189 
L 821.194649 529.374191 
L 826.174328 535.752572 
L 831.154007 545.697972 
L 836.133686 561.059131 
L 841.113366 589.225384 
L 846.093045 587.114026 
L 851.072724 593.262594 
L 856.052403 597.593782 
L 861.032082 587.363928 
L 866.011761 552.223279 
L 870.991441 547.21182 
L 875.97112 537.06807 
L 880.950799 533.116002 
L 885.930478 531.230024 
L 890.910157 540.596838 
L 895.889836 550.875862 
L 900.869515 569.183909 
L 905.849195 585.665408 
L 910.828874 588.944958 
L 915.808553 582.682573 
L 920.788232 574.830697 
L 930.74759 546.469082 
L 935.727269 539.786716 
L 940.706949 537.577246 
L 945.686628 536.480618 
L 950.666307 547.326575 
L 955.645986 560.366803 
L 960.625665 569.682699 
L 965.605344 594.172575 
L 975.564703 583.828498 
L 985.524061 559.116408 
L 990.50374 546.029569 
L 995.483419 538.933782 
L 1000.463098 530.727941 
L 1005.442777 523.589343 
L 1010.422457 542.921315 
L 1020.381815 576.589508 
L 1030.341173 587.254062 
L 1035.320852 581.730439 
L 1040.300531 575.466028 
L 1045.280211 568.09032 
L 1050.25989 551.686237 
L 1055.239569 536.722033 
L 1060.219248 532.064971 
L 1065.198927 527.612847 
L 1070.178606 531.923618 
L 1075.158285 559.213684 
L 1080.137965 572.846431 
L 1085.117644 587.008594 
L 1090.097323 592.510001 
L 1095.077002 577.586581 
L 1100.056681 571.306236 
L 1105.03636 556.840822 
L 1110.016039 551.562616 
L 1114.995719 539.284379 
L 1119.975398 534.931304 
L 1119.975398 534.931304 
" style="fill:none;stroke:#ff0000;stroke-linecap:square;stroke-width:1.5;"/>
   </g>
   <g id="line2d_38">
    <path clip-path="url(#p6b6ffbe227)" d="M 104.120852 545.6506 
L 109.100531 543.926241 
L 119.05989 571.694578 
L 124.039569 593.009475 
L 129.019248 592.041787 
L 133.998927 606.45239 
L 138.978606 600.97304 
L 143.958285 596.069598 
L 148.937965 571.807306 
L 153.917644 571.158803 
L 158.897323 560.032165 
L 163.877002 545.097093 
L 168.856681 550.664338 
L 173.83636 560.479531 
L 178.816039 576.096038 
L 183.795719 587.525902 
L 188.775398 595.610225 
L 193.755077 607.440767 
L 198.734756 602.864515 
L 203.714435 591.17373 
L 208.694114 582.817923 
L 213.673793 572.914321 
L 218.653473 557.499711 
L 223.633152 552.358552 
L 228.612831 551.11905 
L 233.59251 561.025439 
L 238.572189 582.077793 
L 243.551868 593.202835 
L 248.531547 602.736588 
L 253.511227 609.312812 
L 258.490906 599.668865 
L 263.470585 592.265546 
L 268.450264 588.960968 
L 273.429943 572.886455 
L 278.409622 561.409727 
L 283.389301 553.530924 
L 288.368981 558.693615 
L 293.34866 565.705552 
L 298.328339 575.056913 
L 303.308018 587.230782 
L 308.287697 615.457124 
L 313.267376 606.083387 
L 318.247055 607.672556 
L 323.226735 605.563655 
L 328.206414 584.905038 
L 333.186093 569.393153 
L 338.165772 560.962108 
L 343.145451 553.509898 
L 348.12513 550.354526 
L 353.104809 563.492536 
L 358.084489 571.987671 
L 363.064168 586.448272 
L 368.043847 597.512339 
L 373.023526 591.96156 
L 378.003205 604.231607 
L 382.982884 587.965414 
L 387.962564 582.538002 
L 392.942243 569.713351 
L 397.921922 561.723846 
L 402.901601 555.755086 
L 407.88128 548.834851 
L 412.860959 559.839641 
L 417.840638 571.564877 
L 427.799997 605.23488 
L 432.779676 601.577642 
L 437.759355 601.000069 
L 442.739034 592.006145 
L 447.718713 573.246172 
L 452.698392 559.552121 
L 457.678072 556.920111 
L 462.657751 542.47167 
L 467.63743 543.832259 
L 472.617109 555.681116 
L 477.596788 572.488234 
L 482.576467 582.974273 
L 487.556146 592.034061 
L 492.535826 604.866675 
L 497.515505 598.792955 
L 502.495184 586.125946 
L 507.474863 577.581768 
L 512.454542 566.646642 
L 517.434221 551.06484 
L 522.4139 553.492672 
L 527.39358 540.674101 
L 532.373259 558.79621 
L 537.352938 569.439004 
L 542.332617 587.148706 
L 547.312296 600.494946 
L 552.291975 599.374024 
L 557.271654 598.49472 
L 562.251334 591.979799 
L 567.231013 586.646876 
L 572.210692 560.300433 
L 577.190371 555.373077 
L 582.17005 549.376706 
L 587.149729 545.829699 
L 592.129408 554.839076 
L 597.109088 567.017504 
L 602.088767 589.562074 
L 607.068446 601.093063 
L 612.048125 613.134521 
L 617.027804 607.08941 
L 622.007483 581.309013 
L 626.987162 571.409845 
L 631.966842 571.528906 
L 641.9262 549.096025 
L 646.905879 549.14137 
L 651.885558 557.482232 
L 656.865237 571.806293 
L 661.844916 584.995423 
L 666.824596 599.673045 
L 671.804275 603.013584 
L 676.783954 591.639639 
L 681.763633 589.710799 
L 686.743312 583.643396 
L 691.722991 568.697532 
L 696.70267 555.487832 
L 701.68235 550.093859 
L 706.662029 556.245516 
L 711.641708 563.516602 
L 716.621387 567.928701 
L 721.601066 585.715667 
L 726.580745 593.606528 
L 731.560424 596.650869 
L 736.540104 594.583614 
L 741.519783 588.984121 
L 746.499462 579.03026 
L 751.479141 566.030817 
L 756.45882 551.081812 
L 761.438499 544.701658 
L 766.418178 543.626309 
L 771.397858 553.140302 
L 776.377537 571.450883 
L 781.357216 582.021581 
L 786.336895 588.771052 
L 791.316574 600.408817 
L 796.296253 605.404653 
L 801.275932 592.404543 
L 806.255612 583.208949 
L 811.235291 568.406466 
L 821.194649 545.856804 
L 826.174328 551.035454 
L 831.154007 561.480404 
L 836.133686 575.651206 
L 841.113366 599.920742 
L 846.093045 600.556453 
L 851.072724 604.366861 
L 856.052403 609.461512 
L 861.032082 600.651752 
L 866.011761 570.966279 
L 870.991441 562.342457 
L 875.97112 552.867728 
L 880.950799 548.664366 
L 885.930478 547.4963 
L 895.889836 566.916936 
L 900.869515 582.326479 
L 905.849195 596.489985 
L 910.828874 601.589345 
L 915.808553 595.275739 
L 920.788232 588.097395 
L 925.767911 575.70719 
L 930.74759 562.336377 
L 935.727269 555.622092 
L 940.706949 550.900687 
L 945.686628 551.599601 
L 950.666307 562.684188 
L 955.645986 577.130096 
L 960.625665 583.183643 
L 965.605344 607.889779 
L 970.585023 600.865809 
L 975.564703 598.550805 
L 980.544382 585.045885 
L 985.524061 574.077319 
L 990.50374 560.874206 
L 995.483419 554.222491 
L 1000.463098 546.371047 
L 1005.442777 541.632416 
L 1015.402136 574.102652 
L 1020.381815 589.26779 
L 1025.361494 593.047524 
L 1030.341173 598.623711 
L 1035.320852 595.164455 
L 1045.280211 581.920075 
L 1050.25989 566.026764 
L 1055.239569 552.218212 
L 1060.219248 547.381546 
L 1065.198927 544.311543 
L 1070.178606 550.472827 
L 1075.158285 571.323715 
L 1080.137965 586.74405 
L 1085.117644 598.8841 
L 1090.097323 601.81166 
L 1095.077002 591.307991 
L 1100.056681 585.234254 
L 1105.03636 573.177015 
L 1110.016039 565.731898 
L 1114.995719 554.497092 
L 1119.975398 549.324775 
L 1119.975398 549.324775 
" style="fill:none;stroke:#008000;stroke-linecap:square;stroke-width:1.5;"/>
   </g>
   <g id="line2d_39">
    <path clip-path="url(#p6b6ffbe227)" d="M 104.120852 558.993801 
L 109.100531 556.791171 
L 114.080211 570.01303 
L 119.05989 583.893272 
L 124.039569 603.415912 
L 129.019248 604.300004 
L 133.998927 615.530587 
L 138.978606 611.991686 
L 143.958285 609.386706 
L 148.937965 586.240726 
L 153.917644 584.915855 
L 158.897323 573.965605 
L 163.877002 560.879019 
L 168.856681 563.517868 
L 173.83636 573.306969 
L 183.795719 598.520888 
L 188.775398 604.240894 
L 193.755077 617.762349 
L 198.734756 613.224095 
L 203.714435 602.593461 
L 208.694114 594.446643 
L 213.673793 585.354937 
L 218.653473 572.807926 
L 223.633152 567.861825 
L 228.612831 566.811807 
L 233.59251 576.115797 
L 238.572189 594.614671 
L 243.551868 605.128364 
L 248.531547 610.973334 
L 253.511227 619.606529 
L 263.470585 603.621946 
L 268.450264 599.329414 
L 273.429943 585.812815 
L 278.409622 575.039181 
L 283.389301 569.345782 
L 288.368981 572.187288 
L 293.34866 576.41345 
L 298.328339 585.284007 
L 303.308018 599.513706 
L 308.287697 626.028228 
L 313.267376 615.170871 
L 318.247055 618.123763 
L 323.226735 616.770596 
L 328.206414 597.308542 
L 333.186093 580.82175 
L 338.165772 577.560236 
L 343.145451 567.010664 
L 348.12513 563.475057 
L 353.104809 574.399544 
L 358.084489 579.164267 
L 363.064168 594.948726 
L 368.043847 607.041279 
L 373.023526 602.404103 
L 378.003205 614.877018 
L 382.982884 601.653638 
L 387.962564 596.733503 
L 392.942243 580.913705 
L 397.921922 575.106818 
L 402.901601 572.702291 
L 407.88128 561.847214 
L 412.860959 573.225399 
L 417.840638 582.352647 
L 422.820318 599.553604 
L 427.799997 615.695981 
L 432.779676 611.124314 
L 437.759355 611.465285 
L 442.739034 601.822857 
L 447.718713 587.379406 
L 452.698392 571.056208 
L 457.678072 568.849525 
L 462.657751 556.404602 
L 467.63743 556.014994 
L 472.617109 568.980492 
L 477.596788 583.094803 
L 482.576467 592.389116 
L 487.556146 599.121539 
L 492.535826 613.006492 
L 497.515505 609.86746 
L 502.495184 600.517238 
L 507.474863 589.604404 
L 512.454542 579.608846 
L 517.434221 565.297198 
L 522.4139 564.787262 
L 527.39358 557.884506 
L 532.373259 571.883302 
L 537.352938 580.451774 
L 542.332617 597.380106 
L 547.312296 610.870891 
L 552.291975 609.19446 
L 557.271654 611.522763 
L 562.251334 603.635245 
L 567.231013 597.288074 
L 572.210692 578.97149 
L 577.190371 570.790727 
L 582.17005 564.806008 
L 587.149729 561.331198 
L 592.129408 570.354761 
L 597.109088 580.10067 
L 602.088767 600.526941 
L 607.068446 610.162123 
L 612.048125 627.183019 
L 617.027804 620.452623 
L 622.007483 596.242692 
L 626.987162 586.717806 
L 631.966842 584.780277 
L 641.9262 563.682021 
L 646.905879 562.391855 
L 651.885558 571.105099 
L 666.824596 611.383715 
L 671.804275 614.625799 
L 676.783954 604.502352 
L 681.763633 602.210034 
L 686.743312 597.331215 
L 691.722991 583.361297 
L 696.70267 568.481702 
L 701.68235 563.739525 
L 706.662029 570.100933 
L 711.641708 575.378125 
L 716.621387 581.419841 
L 721.601066 596.18876 
L 726.580745 602.928387 
L 731.560424 606.138874 
L 736.540104 604.859602 
L 741.519783 601.746987 
L 751.479141 580.219427 
L 756.45882 565.569265 
L 761.438499 558.94795 
L 766.418178 561.343357 
L 771.397858 567.289318 
L 776.377537 580.741041 
L 781.357216 597.179804 
L 786.336895 600.415074 
L 791.316574 609.820038 
L 796.296253 613.666977 
L 801.275932 603.944508 
L 806.255612 592.512711 
L 811.235291 580.450811 
L 816.21497 569.844318 
L 821.194649 560.178079 
L 826.174328 564.731531 
L 831.154007 575.194214 
L 836.133686 587.775423 
L 841.113366 609.418903 
L 846.093045 611.566562 
L 851.072724 614.334023 
L 856.052403 621.761687 
L 861.032082 612.648093 
L 866.011761 587.878474 
L 870.991441 575.901994 
L 875.97112 567.653341 
L 880.950799 562.557274 
L 885.930478 561.487244 
L 890.910157 571.94486 
L 895.889836 580.159162 
L 900.869515 592.97786 
L 905.849195 606.269315 
L 910.828874 612.137574 
L 915.808553 606.047137 
L 920.788232 600.445776 
L 925.767911 590.06284 
L 930.74759 577.499945 
L 935.727269 570.734236 
L 940.706949 562.715093 
L 945.686628 565.729871 
L 950.666307 576.089452 
L 955.645986 591.541781 
L 960.625665 594.506098 
L 965.605344 619.173653 
L 970.585023 610.783673 
L 975.564703 611.304172 
L 980.544382 597.346845 
L 985.524061 588.407308 
L 990.50374 574.505433 
L 995.483419 568.515394 
L 1000.463098 560.93247 
L 1005.442777 557.200792 
L 1010.422457 569.366554 
L 1015.402136 585.761872 
L 1020.381815 599.613818 
L 1030.341173 608.471354 
L 1035.320852 606.715001 
L 1040.300531 599.786862 
L 1045.280211 594.876023 
L 1050.25989 579.561222 
L 1055.239569 565.570532 
L 1060.219248 560.840767 
L 1065.198927 559.288414 
L 1070.178606 566.585338 
L 1075.158285 581.408974 
L 1080.137965 598.030052 
L 1085.117644 608.448986 
L 1090.097323 610.910967 
L 1095.077002 603.210841 
L 1100.056681 598.041097 
L 1105.03636 589.252388 
L 1114.995719 568.096907 
L 1119.975398 562.05823 
L 1119.975398 562.05823 
" style="fill:none;stroke:#0000ff;stroke-linecap:square;stroke-width:1.5;"/>
   </g>
   <g id="line2d_40">
    <defs>
     <path d="M 0 3 
C 0.795609 3 1.55874 2.683901 2.12132 2.12132 
C 2.683901 1.55874 3 0.795609 3 0 
C 3 -0.795609 2.683901 -1.55874 2.12132 -2.12132 
C 1.55874 -2.683901 0.795609 -3 0 -3 
C -0.795609 -3 -1.55874 -2.683901 -2.12132 -2.12132 
C -2.683901 -1.55874 -3 -0.795609 -3 0 
C -3 0.795609 -2.683901 1.55874 -2.12132 2.12132 
C -1.55874 2.683901 -0.795609 3 0 3 
z
" id="m7d4ae594b4" style="stroke:#ff0000;"/>
    </defs>
    <g clip-path="url(#p6b6ffbe227)">
     <use style="fill:#ff0000;stroke:#ff0000;" x="168.856681" xlink:href="#m7d4ae594b4" y="639.849091"/>
     <use style="fill:#ff0000;stroke:#ff0000;" x="173.83636" xlink:href="#m7d4ae594b4" y="639.849091"/>
     <use style="fill:#ff0000;stroke:#ff0000;" x="178.816039" xlink:href="#m7d4ae594b4" y="639.849091"/>
     <use style="fill:#ff0000;stroke:#ff0000;" x="183.795719" xlink:href="#m7d4ae594b4" y="639.849091"/>
     <use style="fill:#ff0000;stroke:#ff0000;" x="188.775398" xlink:href="#m7d4ae594b4" y="639.849091"/>
     <use style="fill:#ff0000;stroke:#ff0000;" x="193.755077" xlink:href="#m7d4ae594b4" y="639.849091"/>
     <use style="fill:#ff0000;stroke:#ff0000;" x="198.734756" xlink:href="#m7d4ae594b4" y="639.849091"/>
     <use style="fill:#ff0000;stroke:#ff0000;" x="203.714435" xlink:href="#m7d4ae594b4" y="639.849091"/>
     <use style="fill:#ff0000;stroke:#ff0000;" x="208.694114" xlink:href="#m7d4ae594b4" y="639.849091"/>
     <use style="fill:#ff0000;stroke:#ff0000;" x="213.673793" xlink:href="#m7d4ae594b4" y="639.849091"/>
     <use style="fill:#ff0000;stroke:#ff0000;" x="218.653473" xlink:href="#m7d4ae594b4" y="639.849091"/>
     <use style="fill:#ff0000;stroke:#ff0000;" x="223.633152" xlink:href="#m7d4ae594b4" y="639.849091"/>
     <use style="fill:#ff0000;stroke:#ff0000;" x="228.612831" xlink:href="#m7d4ae594b4" y="639.849091"/>
     <use style="fill:#ff0000;stroke:#ff0000;" x="233.59251" xlink:href="#m7d4ae594b4" y="639.849091"/>
     <use style="fill:#ff0000;stroke:#ff0000;" x="238.572189" xlink:href="#m7d4ae594b4" y="639.849091"/>
     <use style="fill:#ff0000;stroke:#ff0000;" x="243.551868" xlink:href="#m7d4ae594b4" y="639.849091"/>
     <use style="fill:#ff0000;stroke:#ff0000;" x="248.531547" xlink:href="#m7d4ae594b4" y="639.849091"/>
     <use style="fill:#ff0000;stroke:#ff0000;" x="268.450264" xlink:href="#m7d4ae594b4" y="639.849091"/>
     <use style="fill:#ff0000;stroke:#ff0000;" x="382.982884" xlink:href="#m7d4ae594b4" y="639.849091"/>
     <use style="fill:#ff0000;stroke:#ff0000;" x="402.901601" xlink:href="#m7d4ae594b4" y="639.849091"/>
     <use style="fill:#ff0000;stroke:#ff0000;" x="447.718713" xlink:href="#m7d4ae594b4" y="639.849091"/>
     <use style="fill:#ff0000;stroke:#ff0000;" x="507.474863" xlink:href="#m7d4ae594b4" y="639.849091"/>
     <use style="fill:#ff0000;stroke:#ff0000;" x="711.641708" xlink:href="#m7d4ae594b4" y="639.849091"/>
     <use style="fill:#ff0000;stroke:#ff0000;" x="816.21497" xlink:href="#m7d4ae594b4" y="639.849091"/>
     <use style="fill:#ff0000;stroke:#ff0000;" x="870.991441" xlink:href="#m7d4ae594b4" y="639.849091"/>
     <use style="fill:#ff0000;stroke:#ff0000;" x="880.950799" xlink:href="#m7d4ae594b4" y="639.849091"/>
     <use style="fill:#ff0000;stroke:#ff0000;" x="920.788232" xlink:href="#m7d4ae594b4" y="639.849091"/>
     <use style="fill:#ff0000;stroke:#ff0000;" x="940.706949" xlink:href="#m7d4ae594b4" y="639.849091"/>
     <use style="fill:#ff0000;stroke:#ff0000;" x="945.686628" xlink:href="#m7d4ae594b4" y="639.849091"/>
     <use style="fill:#ff0000;stroke:#ff0000;" x="1010.422457" xlink:href="#m7d4ae594b4" y="639.849091"/>
     <use style="fill:#ff0000;stroke:#ff0000;" x="1055.239569" xlink:href="#m7d4ae594b4" y="639.849091"/>
    </g>
   </g>
   <g id="patch_9">
    <path d="M 53.328125 645.74 
L 53.328125 516.14 
" style="fill:none;stroke:#000000;stroke-linecap:square;stroke-linejoin:miter;stroke-width:0.8;"/>
   </g>
   <g id="patch_10">
    <path d="M 1170.768125 645.74 
L 1170.768125 516.14 
" style="fill:none;stroke:#000000;stroke-linecap:square;stroke-linejoin:miter;stroke-width:0.8;"/>
   </g>
   <g id="patch_11">
    <path d="M 53.328125 645.74 
L 1170.768125 645.74 
" style="fill:none;stroke:#000000;stroke-linecap:square;stroke-linejoin:miter;stroke-width:0.8;"/>
   </g>
   <g id="patch_12">
    <path d="M 53.328125 516.14 
L 1170.768125 516.14 
" style="fill:none;stroke:#000000;stroke-linecap:square;stroke-linejoin:miter;stroke-width:0.8;"/>
   </g>
   <g id="legend_2">
    <g id="patch_13">
     <path d="M 60.328125 582.8525 
L 151.340625 582.8525 
Q 153.340625 582.8525 153.340625 580.8525 
L 153.340625 523.14 
Q 153.340625 521.14 151.340625 521.14 
L 60.328125 521.14 
Q 58.328125 521.14 58.328125 523.14 
L 58.328125 580.8525 
Q 58.328125 582.8525 60.328125 582.8525 
z
" style="fill:#ffffff;opacity:0.8;stroke:#cccccc;stroke-linejoin:miter;"/>
    </g>
    <g id="line2d_41">
     <path d="M 62.328125 529.238437 
L 82.328125 529.238437 
" style="fill:none;stroke:#ff0000;stroke-linecap:square;stroke-width:1.5;"/>
    </g>
    <g id="line2d_42"/>
    <g id="text_34">
     <!-- Maxmimum -->
     <defs>
      <path d="M 9.8125 72.90625 
L 24.515625 72.90625 
L 43.109375 23.296875 
L 61.8125 72.90625 
L 76.515625 72.90625 
L 76.515625 0 
L 66.890625 0 
L 66.890625 64.015625 
L 48.09375 14.015625 
L 38.1875 14.015625 
L 19.390625 64.015625 
L 19.390625 0 
L 9.8125 0 
z
" id="DejaVuSans-4d"/>
      <path d="M 54.890625 54.6875 
L 35.109375 28.078125 
L 55.90625 0 
L 45.3125 0 
L 29.390625 21.484375 
L 13.484375 0 
L 2.875 0 
L 24.125 28.609375 
L 4.6875 54.6875 
L 15.28125 54.6875 
L 29.78125 35.203125 
L 44.28125 54.6875 
z
" id="DejaVuSans-78"/>
     </defs>
     <g transform="translate(90.328125 532.738437)scale(0.1 -0.1)">
      <use xlink:href="#DejaVuSans-4d"/>
      <use x="86.279297" xlink:href="#DejaVuSans-61"/>
      <use x="147.558594" xlink:href="#DejaVuSans-78"/>
      <use x="206.738281" xlink:href="#DejaVuSans-6d"/>
      <use x="304.150391" xlink:href="#DejaVuSans-69"/>
      <use x="331.933594" xlink:href="#DejaVuSans-6d"/>
      <use x="429.345703" xlink:href="#DejaVuSans-75"/>
      <use x="492.724609" xlink:href="#DejaVuSans-6d"/>
     </g>
    </g>
    <g id="line2d_43">
     <path d="M 62.328125 543.916562 
L 82.328125 543.916562 
" style="fill:none;stroke:#008000;stroke-linecap:square;stroke-width:1.5;"/>
    </g>
    <g id="line2d_44"/>
    <g id="text_35">
     <!-- Average -->
     <defs>
      <path d="M 34.1875 63.1875 
L 20.796875 26.90625 
L 47.609375 26.90625 
z
M 28.609375 72.90625 
L 39.796875 72.90625 
L 67.578125 0 
L 57.328125 0 
L 50.6875 18.703125 
L 17.828125 18.703125 
L 11.1875 0 
L 0.78125 0 
z
" id="DejaVuSans-41"/>
      <path d="M 2.984375 54.6875 
L 12.5 54.6875 
L 29.59375 8.796875 
L 46.6875 54.6875 
L 56.203125 54.6875 
L 35.6875 0 
L 23.484375 0 
z
" id="DejaVuSans-76"/>
     </defs>
     <g transform="translate(90.328125 547.416562)scale(0.1 -0.1)">
      <use xlink:href="#DejaVuSans-41"/>
      <use x="68.330078" xlink:href="#DejaVuSans-76"/>
      <use x="127.509766" xlink:href="#DejaVuSans-65"/>
      <use x="189.033203" xlink:href="#DejaVuSans-72"/>
      <use x="230.146484" xlink:href="#DejaVuSans-61"/>
      <use x="291.425781" xlink:href="#DejaVuSans-67"/>
      <use x="354.902344" xlink:href="#DejaVuSans-65"/>
     </g>
    </g>
    <g id="line2d_45">
     <path d="M 62.328125 558.594687 
L 82.328125 558.594687 
" style="fill:none;stroke:#0000ff;stroke-linecap:square;stroke-width:1.5;"/>
    </g>
    <g id="line2d_46"/>
    <g id="text_36">
     <!-- Minimum -->
     <g transform="translate(90.328125 562.094687)scale(0.1 -0.1)">
      <use xlink:href="#DejaVuSans-4d"/>
      <use x="86.279297" xlink:href="#DejaVuSans-69"/>
      <use x="114.0625" xlink:href="#DejaVuSans-6e"/>
      <use x="177.441406" xlink:href="#DejaVuSans-69"/>
      <use x="205.224609" xlink:href="#DejaVuSans-6d"/>
      <use x="302.636719" xlink:href="#DejaVuSans-75"/>
      <use x="366.015625" xlink:href="#DejaVuSans-6d"/>
     </g>
    </g>
    <g id="line2d_47"/>
    <g id="line2d_48">
     <g>
      <use style="fill:#ff0000;stroke:#ff0000;" x="72.328125" xlink:href="#m7d4ae594b4" y="573.272812"/>
     </g>
    </g>
    <g id="text_37">
     <!-- Disasters -->
     <g transform="translate(90.328125 576.772812)scale(0.1 -0.1)">
      <use xlink:href="#DejaVuSans-44"/>
      <use x="77.001953" xlink:href="#DejaVuSans-69"/>
      <use x="104.785156" xlink:href="#DejaVuSans-73"/>
      <use x="156.884766" xlink:href="#DejaVuSans-61"/>
      <use x="218.164062" xlink:href="#DejaVuSans-73"/>
      <use x="270.263672" xlink:href="#DejaVuSans-74"/>
      <use x="309.472656" xlink:href="#DejaVuSans-65"/>
      <use x="370.996094" xlink:href="#DejaVuSans-72"/>
      <use x="412.109375" xlink:href="#DejaVuSans-73"/>
     </g>
    </g>
   </g>
  </g>
 </g>
 <defs>
  <clipPath id="pe1520860d8">
   <rect height="498.96" width="1116" x="53.328125" y="10.7"/>
  </clipPath>
  <clipPath id="p6b6ffbe227">
   <rect height="129.6" width="1117.44" x="53.328125" y="516.14"/>
  </clipPath>
 </defs>
</svg>
