<?xml version="1.0" encoding="utf-8" standalone="no"?>
<!DOCTYPE svg PUBLIC "-//W3C//DTD SVG 1.1//EN"
  "http://www.w3.org/Graphics/SVG/1.1/DTD/svg11.dtd">
<!-- Created with matplotlib (http://matplotlib.org/) -->
<svg height="669pt" version="1.1" viewBox="0 0 1181 669" width="1181pt" xmlns="http://www.w3.org/2000/svg" xmlns:xlink="http://www.w3.org/1999/xlink">
 <defs>
  <style type="text/css">
*{stroke-linecap:butt;stroke-linejoin:round;}
  </style>
 </defs>
 <g id="figure_1">
  <g id="patch_1">
   <path d="M 0 669.618125 
L 1181.468125 669.618125 
L 1181.468125 -0 
L 0 -0 
z
" style="fill:none;"/>
  </g>
  <g id="axes_1">
   <g id="patch_2">
    <path d="M 53.328125 509.66 
L 1169.328125 509.66 
L 1169.328125 10.7 
L 53.328125 10.7 
z
" style="fill:none;"/>
   </g>
   <g id="matplotlib.axis_1">
    <g id="xtick_1">
     <g id="line2d_1">
      <defs>
       <path d="M 0 0 
L 0 3.5 
" id="m568710ca17" style="stroke:#000000;stroke-width:0.8;"/>
      </defs>
      <g>
       <use style="stroke:#000000;stroke-width:0.8;" x="104.055398" xlink:href="#m568710ca17" y="509.66"/>
      </g>
     </g>
     <g id="text_1">
      <!-- 0 -->
      <defs>
       <path d="M 31.78125 66.40625 
Q 24.171875 66.40625 20.328125 58.90625 
Q 16.5 51.421875 16.5 36.375 
Q 16.5 21.390625 20.328125 13.890625 
Q 24.171875 6.390625 31.78125 6.390625 
Q 39.453125 6.390625 43.28125 13.890625 
Q 47.125 21.390625 47.125 36.375 
Q 47.125 51.421875 43.28125 58.90625 
Q 39.453125 66.40625 31.78125 66.40625 
z
M 31.78125 74.21875 
Q 44.046875 74.21875 50.515625 64.515625 
Q 56.984375 54.828125 56.984375 36.375 
Q 56.984375 17.96875 50.515625 8.265625 
Q 44.046875 -1.421875 31.78125 -1.421875 
Q 19.53125 -1.421875 13.0625 8.265625 
Q 6.59375 17.96875 6.59375 36.375 
Q 6.59375 54.828125 13.0625 64.515625 
Q 19.53125 74.21875 31.78125 74.21875 
z
" id="DejaVuSans-30"/>
      </defs>
      <g transform="translate(100.874148 524.258437)scale(0.1 -0.1)">
       <use xlink:href="#DejaVuSans-30"/>
      </g>
     </g>
    </g>
    <g id="xtick_2">
     <g id="line2d_2">
      <g>
       <use style="stroke:#000000;stroke-width:0.8;" x="346.769621" xlink:href="#m568710ca17" y="509.66"/>
      </g>
     </g>
     <g id="text_2">
      <!-- 50 -->
      <defs>
       <path d="M 10.796875 72.90625 
L 49.515625 72.90625 
L 49.515625 64.59375 
L 19.828125 64.59375 
L 19.828125 46.734375 
Q 21.96875 47.46875 24.109375 47.828125 
Q 26.265625 48.1875 28.421875 48.1875 
Q 40.625 48.1875 47.75 41.5 
Q 54.890625 34.8125 54.890625 23.390625 
Q 54.890625 11.625 47.5625 5.09375 
Q 40.234375 -1.421875 26.90625 -1.421875 
Q 22.3125 -1.421875 17.546875 -0.640625 
Q 12.796875 0.140625 7.71875 1.703125 
L 7.71875 11.625 
Q 12.109375 9.234375 16.796875 8.0625 
Q 21.484375 6.890625 26.703125 6.890625 
Q 35.15625 6.890625 40.078125 11.328125 
Q 45.015625 15.765625 45.015625 23.390625 
Q 45.015625 31 40.078125 35.4375 
Q 35.15625 39.890625 26.703125 39.890625 
Q 22.75 39.890625 18.8125 39.015625 
Q 14.890625 38.140625 10.796875 36.28125 
z
" id="DejaVuSans-35"/>
      </defs>
      <g transform="translate(340.407121 524.258437)scale(0.1 -0.1)">
       <use xlink:href="#DejaVuSans-35"/>
       <use x="63.623047" xlink:href="#DejaVuSans-30"/>
      </g>
     </g>
    </g>
    <g id="xtick_3">
     <g id="line2d_3">
      <g>
       <use style="stroke:#000000;stroke-width:0.8;" x="589.483845" xlink:href="#m568710ca17" y="509.66"/>
      </g>
     </g>
     <g id="text_3">
      <!-- 100 -->
      <defs>
       <path d="M 12.40625 8.296875 
L 28.515625 8.296875 
L 28.515625 63.921875 
L 10.984375 60.40625 
L 10.984375 69.390625 
L 28.421875 72.90625 
L 38.28125 72.90625 
L 38.28125 8.296875 
L 54.390625 8.296875 
L 54.390625 0 
L 12.40625 0 
z
" id="DejaVuSans-31"/>
      </defs>
      <g transform="translate(579.940095 524.258437)scale(0.1 -0.1)">
       <use xlink:href="#DejaVuSans-31"/>
       <use x="63.623047" xlink:href="#DejaVuSans-30"/>
       <use x="127.246094" xlink:href="#DejaVuSans-30"/>
      </g>
     </g>
    </g>
    <g id="xtick_4">
     <g id="line2d_4">
      <g>
       <use style="stroke:#000000;stroke-width:0.8;" x="832.198068" xlink:href="#m568710ca17" y="509.66"/>
      </g>
     </g>
     <g id="text_4">
      <!-- 150 -->
      <g transform="translate(822.654318 524.258437)scale(0.1 -0.1)">
       <use xlink:href="#DejaVuSans-31"/>
       <use x="63.623047" xlink:href="#DejaVuSans-35"/>
       <use x="127.246094" xlink:href="#DejaVuSans-30"/>
      </g>
     </g>
    </g>
    <g id="xtick_5">
     <g id="line2d_5">
      <g>
       <use style="stroke:#000000;stroke-width:0.8;" x="1074.912292" xlink:href="#m568710ca17" y="509.66"/>
      </g>
     </g>
     <g id="text_5">
      <!-- 200 -->
      <defs>
       <path d="M 19.1875 8.296875 
L 53.609375 8.296875 
L 53.609375 0 
L 7.328125 0 
L 7.328125 8.296875 
Q 12.9375 14.109375 22.625 23.890625 
Q 32.328125 33.6875 34.8125 36.53125 
Q 39.546875 41.84375 41.421875 45.53125 
Q 43.3125 49.21875 43.3125 52.78125 
Q 43.3125 58.59375 39.234375 62.25 
Q 35.15625 65.921875 28.609375 65.921875 
Q 23.96875 65.921875 18.8125 64.3125 
Q 13.671875 62.703125 7.8125 59.421875 
L 7.8125 69.390625 
Q 13.765625 71.78125 18.9375 73 
Q 24.125 74.21875 28.421875 74.21875 
Q 39.75 74.21875 46.484375 68.546875 
Q 53.21875 62.890625 53.21875 53.421875 
Q 53.21875 48.921875 51.53125 44.890625 
Q 49.859375 40.875 45.40625 35.40625 
Q 44.1875 33.984375 37.640625 27.21875 
Q 31.109375 20.453125 19.1875 8.296875 
z
" id="DejaVuSans-32"/>
      </defs>
      <g transform="translate(1065.368542 524.258437)scale(0.1 -0.1)">
       <use xlink:href="#DejaVuSans-32"/>
       <use x="63.623047" xlink:href="#DejaVuSans-30"/>
       <use x="127.246094" xlink:href="#DejaVuSans-30"/>
      </g>
     </g>
    </g>
    <g id="text_6">
     <!-- Time -->
     <defs>
      <path d="M -0.296875 72.90625 
L 61.375 72.90625 
L 61.375 64.59375 
L 35.5 64.59375 
L 35.5 0 
L 25.59375 0 
L 25.59375 64.59375 
L -0.296875 64.59375 
z
" id="DejaVuSans-54"/>
      <path d="M 9.421875 54.6875 
L 18.40625 54.6875 
L 18.40625 0 
L 9.421875 0 
z
M 9.421875 75.984375 
L 18.40625 75.984375 
L 18.40625 64.59375 
L 9.421875 64.59375 
z
" id="DejaVuSans-69"/>
      <path d="M 52 44.1875 
Q 55.375 50.25 60.0625 53.125 
Q 64.75 56 71.09375 56 
Q 79.640625 56 84.28125 50.015625 
Q 88.921875 44.046875 88.921875 33.015625 
L 88.921875 0 
L 79.890625 0 
L 79.890625 32.71875 
Q 79.890625 40.578125 77.09375 44.375 
Q 74.3125 48.1875 68.609375 48.1875 
Q 61.625 48.1875 57.5625 43.546875 
Q 53.515625 38.921875 53.515625 30.90625 
L 53.515625 0 
L 44.484375 0 
L 44.484375 32.71875 
Q 44.484375 40.625 41.703125 44.40625 
Q 38.921875 48.1875 33.109375 48.1875 
Q 26.21875 48.1875 22.15625 43.53125 
Q 18.109375 38.875 18.109375 30.90625 
L 18.109375 0 
L 9.078125 0 
L 9.078125 54.6875 
L 18.109375 54.6875 
L 18.109375 46.1875 
Q 21.1875 51.21875 25.484375 53.609375 
Q 29.78125 56 35.6875 56 
Q 41.65625 56 45.828125 52.96875 
Q 50 49.953125 52 44.1875 
z
" id="DejaVuSans-6d"/>
      <path d="M 56.203125 29.59375 
L 56.203125 25.203125 
L 14.890625 25.203125 
Q 15.484375 15.921875 20.484375 11.0625 
Q 25.484375 6.203125 34.421875 6.203125 
Q 39.59375 6.203125 44.453125 7.46875 
Q 49.3125 8.734375 54.109375 11.28125 
L 54.109375 2.78125 
Q 49.265625 0.734375 44.1875 -0.34375 
Q 39.109375 -1.421875 33.890625 -1.421875 
Q 20.796875 -1.421875 13.15625 6.1875 
Q 5.515625 13.8125 5.515625 26.8125 
Q 5.515625 40.234375 12.765625 48.109375 
Q 20.015625 56 32.328125 56 
Q 43.359375 56 49.78125 48.890625 
Q 56.203125 41.796875 56.203125 29.59375 
z
M 47.21875 32.234375 
Q 47.125 39.59375 43.09375 43.984375 
Q 39.0625 48.390625 32.421875 48.390625 
Q 24.90625 48.390625 20.390625 44.140625 
Q 15.875 39.890625 15.1875 32.171875 
z
" id="DejaVuSans-65"/>
     </defs>
     <g transform="translate(598.940625 537.936562)scale(0.1 -0.1)">
      <use xlink:href="#DejaVuSans-54"/>
      <use x="61.037109" xlink:href="#DejaVuSans-69"/>
      <use x="88.820312" xlink:href="#DejaVuSans-6d"/>
      <use x="186.232422" xlink:href="#DejaVuSans-65"/>
     </g>
    </g>
   </g>
   <g id="matplotlib.axis_2">
    <g id="ytick_1">
     <g id="line2d_6">
      <defs>
       <path d="M 0 0 
L -3.5 0 
" id="mf855a6f577" style="stroke:#000000;stroke-width:0.8;"/>
      </defs>
      <g>
       <use style="stroke:#000000;stroke-width:0.8;" x="53.328125" xlink:href="#mf855a6f577" y="492.638721"/>
      </g>
     </g>
     <g id="text_7">
      <!-- 0 -->
      <g transform="translate(39.965625 496.437939)scale(0.1 -0.1)">
       <use xlink:href="#DejaVuSans-30"/>
      </g>
     </g>
    </g>
    <g id="ytick_2">
     <g id="line2d_7">
      <g>
       <use style="stroke:#000000;stroke-width:0.8;" x="53.328125" xlink:href="#mf855a6f577" y="392.756441"/>
      </g>
     </g>
     <g id="text_8">
      <!-- 500 -->
      <g transform="translate(27.240625 396.55566)scale(0.1 -0.1)">
       <use xlink:href="#DejaVuSans-35"/>
       <use x="63.623047" xlink:href="#DejaVuSans-30"/>
       <use x="127.246094" xlink:href="#DejaVuSans-30"/>
      </g>
     </g>
    </g>
    <g id="ytick_3">
     <g id="line2d_8">
      <g>
       <use style="stroke:#000000;stroke-width:0.8;" x="53.328125" xlink:href="#mf855a6f577" y="292.874162"/>
      </g>
     </g>
     <g id="text_9">
      <!-- 1000 -->
      <g transform="translate(20.878125 296.673381)scale(0.1 -0.1)">
       <use xlink:href="#DejaVuSans-31"/>
       <use x="63.623047" xlink:href="#DejaVuSans-30"/>
       <use x="127.246094" xlink:href="#DejaVuSans-30"/>
       <use x="190.869141" xlink:href="#DejaVuSans-30"/>
      </g>
     </g>
    </g>
    <g id="ytick_4">
     <g id="line2d_9">
      <g>
       <use style="stroke:#000000;stroke-width:0.8;" x="53.328125" xlink:href="#mf855a6f577" y="192.991882"/>
      </g>
     </g>
     <g id="text_10">
      <!-- 1500 -->
      <g transform="translate(20.878125 196.791101)scale(0.1 -0.1)">
       <use xlink:href="#DejaVuSans-31"/>
       <use x="63.623047" xlink:href="#DejaVuSans-35"/>
       <use x="127.246094" xlink:href="#DejaVuSans-30"/>
       <use x="190.869141" xlink:href="#DejaVuSans-30"/>
      </g>
     </g>
    </g>
    <g id="ytick_5">
     <g id="line2d_10">
      <g>
       <use style="stroke:#000000;stroke-width:0.8;" x="53.328125" xlink:href="#mf855a6f577" y="93.109603"/>
      </g>
     </g>
     <g id="text_11">
      <!-- 2000 -->
      <g transform="translate(20.878125 96.908822)scale(0.1 -0.1)">
       <use xlink:href="#DejaVuSans-32"/>
       <use x="63.623047" xlink:href="#DejaVuSans-30"/>
       <use x="127.246094" xlink:href="#DejaVuSans-30"/>
       <use x="190.869141" xlink:href="#DejaVuSans-30"/>
      </g>
     </g>
    </g>
    <g id="text_12">
     <!-- Refugees -->
     <defs>
      <path d="M 44.390625 34.1875 
Q 47.5625 33.109375 50.5625 29.59375 
Q 53.5625 26.078125 56.59375 19.921875 
L 66.609375 0 
L 56 0 
L 46.6875 18.703125 
Q 43.0625 26.03125 39.671875 28.421875 
Q 36.28125 30.8125 30.421875 30.8125 
L 19.671875 30.8125 
L 19.671875 0 
L 9.8125 0 
L 9.8125 72.90625 
L 32.078125 72.90625 
Q 44.578125 72.90625 50.734375 67.671875 
Q 56.890625 62.453125 56.890625 51.90625 
Q 56.890625 45.015625 53.6875 40.46875 
Q 50.484375 35.9375 44.390625 34.1875 
z
M 19.671875 64.796875 
L 19.671875 38.921875 
L 32.078125 38.921875 
Q 39.203125 38.921875 42.84375 42.21875 
Q 46.484375 45.515625 46.484375 51.90625 
Q 46.484375 58.296875 42.84375 61.546875 
Q 39.203125 64.796875 32.078125 64.796875 
z
" id="DejaVuSans-52"/>
      <path d="M 37.109375 75.984375 
L 37.109375 68.5 
L 28.515625 68.5 
Q 23.6875 68.5 21.796875 66.546875 
Q 19.921875 64.59375 19.921875 59.515625 
L 19.921875 54.6875 
L 34.71875 54.6875 
L 34.71875 47.703125 
L 19.921875 47.703125 
L 19.921875 0 
L 10.890625 0 
L 10.890625 47.703125 
L 2.296875 47.703125 
L 2.296875 54.6875 
L 10.890625 54.6875 
L 10.890625 58.5 
Q 10.890625 67.625 15.140625 71.796875 
Q 19.390625 75.984375 28.609375 75.984375 
z
" id="DejaVuSans-66"/>
      <path d="M 8.5 21.578125 
L 8.5 54.6875 
L 17.484375 54.6875 
L 17.484375 21.921875 
Q 17.484375 14.15625 20.5 10.265625 
Q 23.53125 6.390625 29.59375 6.390625 
Q 36.859375 6.390625 41.078125 11.03125 
Q 45.3125 15.671875 45.3125 23.6875 
L 45.3125 54.6875 
L 54.296875 54.6875 
L 54.296875 0 
L 45.3125 0 
L 45.3125 8.40625 
Q 42.046875 3.421875 37.71875 1 
Q 33.40625 -1.421875 27.6875 -1.421875 
Q 18.265625 -1.421875 13.375 4.4375 
Q 8.5 10.296875 8.5 21.578125 
z
M 31.109375 56 
z
" id="DejaVuSans-75"/>
      <path d="M 45.40625 27.984375 
Q 45.40625 37.75 41.375 43.109375 
Q 37.359375 48.484375 30.078125 48.484375 
Q 22.859375 48.484375 18.828125 43.109375 
Q 14.796875 37.75 14.796875 27.984375 
Q 14.796875 18.265625 18.828125 12.890625 
Q 22.859375 7.515625 30.078125 7.515625 
Q 37.359375 7.515625 41.375 12.890625 
Q 45.40625 18.265625 45.40625 27.984375 
z
M 54.390625 6.78125 
Q 54.390625 -7.171875 48.1875 -13.984375 
Q 42 -20.796875 29.203125 -20.796875 
Q 24.46875 -20.796875 20.265625 -20.09375 
Q 16.0625 -19.390625 12.109375 -17.921875 
L 12.109375 -9.1875 
Q 16.0625 -11.328125 19.921875 -12.34375 
Q 23.78125 -13.375 27.78125 -13.375 
Q 36.625 -13.375 41.015625 -8.765625 
Q 45.40625 -4.15625 45.40625 5.171875 
L 45.40625 9.625 
Q 42.625 4.78125 38.28125 2.390625 
Q 33.9375 0 27.875 0 
Q 17.828125 0 11.671875 7.65625 
Q 5.515625 15.328125 5.515625 27.984375 
Q 5.515625 40.671875 11.671875 48.328125 
Q 17.828125 56 27.875 56 
Q 33.9375 56 38.28125 53.609375 
Q 42.625 51.21875 45.40625 46.390625 
L 45.40625 54.6875 
L 54.390625 54.6875 
z
" id="DejaVuSans-67"/>
      <path d="M 44.28125 53.078125 
L 44.28125 44.578125 
Q 40.484375 46.53125 36.375 47.5 
Q 32.28125 48.484375 27.875 48.484375 
Q 21.1875 48.484375 17.84375 46.4375 
Q 14.5 44.390625 14.5 40.28125 
Q 14.5 37.15625 16.890625 35.375 
Q 19.28125 33.59375 26.515625 31.984375 
L 29.59375 31.296875 
Q 39.15625 29.25 43.1875 25.515625 
Q 47.21875 21.78125 47.21875 15.09375 
Q 47.21875 7.46875 41.1875 3.015625 
Q 35.15625 -1.421875 24.609375 -1.421875 
Q 20.21875 -1.421875 15.453125 -0.5625 
Q 10.6875 0.296875 5.421875 2 
L 5.421875 11.28125 
Q 10.40625 8.6875 15.234375 7.390625 
Q 20.0625 6.109375 24.8125 6.109375 
Q 31.15625 6.109375 34.5625 8.28125 
Q 37.984375 10.453125 37.984375 14.40625 
Q 37.984375 18.0625 35.515625 20.015625 
Q 33.0625 21.96875 24.703125 23.78125 
L 21.578125 24.515625 
Q 13.234375 26.265625 9.515625 29.90625 
Q 5.8125 33.546875 5.8125 39.890625 
Q 5.8125 47.609375 11.28125 51.796875 
Q 16.75 56 26.8125 56 
Q 31.78125 56 36.171875 55.265625 
Q 40.578125 54.546875 44.28125 53.078125 
z
" id="DejaVuSans-73"/>
     </defs>
     <g style="fill:#ff7f0e;" transform="translate(14.798437 283.588594)rotate(-90)scale(0.1 -0.1)">
      <use xlink:href="#DejaVuSans-52"/>
      <use x="69.419922" xlink:href="#DejaVuSans-65"/>
      <use x="130.943359" xlink:href="#DejaVuSans-66"/>
      <use x="166.148438" xlink:href="#DejaVuSans-75"/>
      <use x="229.527344" xlink:href="#DejaVuSans-67"/>
      <use x="293.003906" xlink:href="#DejaVuSans-65"/>
      <use x="354.527344" xlink:href="#DejaVuSans-65"/>
      <use x="416.050781" xlink:href="#DejaVuSans-73"/>
     </g>
    </g>
   </g>
   <g id="line2d_11">
    <path clip-path="url(#pf07b5d4c2c)" d="M 104.055398 486.334388 
L 108.909682 485.785382 
L 113.763967 485.974365 
L 118.618251 486.894291 
L 123.472536 486.98 
L 128.32682 485.08556 
L 133.181105 484.882225 
L 138.035389 484.326914 
L 142.889673 484.525042 
L 147.743958 485.43604 
L 152.598242 485.537985 
L 157.452527 483.617333 
L 162.306811 480.433556 
L 167.161096 479.858924 
L 172.01538 480.085075 
L 176.869665 480.968726 
L 181.723949 481.120402 
L 186.578234 479.119443 
L 191.432518 483.582403 
L 196.286803 483.021448 
L 201.141087 483.227763 
L 205.995372 484.130773 
L 210.849656 484.247247 
L 215.703941 482.30313 
L 220.558225 483.863697 
L 225.41251 483.303959 
L 230.266794 483.508507 
L 235.121078 484.413243 
L 239.975363 484.526572 
L 244.829647 482.587535 
L 249.683932 482.698843 
L 254.538216 482.134047 
L 259.392501 482.345932 
L 264.246785 483.243507 
L 269.10107 483.369859 
L 273.955354 481.409792 
L 278.809639 485.900715 
L 283.663923 485.349828 
L 288.518208 485.54154 
L 293.372492 486.458801 
L 298.226777 486.549359 
L 303.081061 484.647089 
L 307.935346 480.656433 
L 312.78963 480.082767 
L 317.643914 480.307517 
L 322.498199 481.192536 
L 327.352483 481.341719 
L 332.206768 479.344786 
L 337.061052 477.909783 
L 341.915337 477.32419 
L 346.769621 477.56624 
L 351.623906 478.434371 
L 356.47819 478.614263 
L 361.332475 476.567749 
L 366.186759 479.481169 
L 371.041044 478.9024 
L 375.895328 479.134556 
L 380.749613 480.012348 
L 385.603897 480.174672 
L 390.458182 478.156523 
L 395.312466 483.488193 
L 400.16675 482.926826 
L 405.021035 483.133737 
L 409.875319 484.036164 
L 414.729604 484.153693 
L 419.583888 482.207876 
L 424.438173 472.059284 
L 429.292457 471.448283 
L 434.146742 471.72719 
L 439.001026 472.559354 
L 443.855311 472.804645 
L 448.709595 470.652524 
L 453.56388 472.905444 
L 458.418164 472.298117 
L 463.272449 472.571692 
L 468.126733 473.409059 
L 472.981018 473.64489 
L 477.835302 471.508042 
L 482.689587 477.732313 
L 487.543871 477.14595 
L 492.398155 477.389122 
L 497.25244 478.256162 
L 502.106724 478.438034 
L 506.961009 476.388318 
L 511.815293 470.35124 
L 516.669578 469.732819 
L 521.523862 470.022487 
L 526.378147 470.844147 
L 531.232431 471.108534 
L 536.086716 468.925578 
L 540.941 467.6957 
L 545.795285 467.065745 
L 550.649569 467.372139 
L 555.503854 468.177476 
L 560.358138 468.471551 
L 565.212423 466.240662 
L 570.066707 470.697264 
L 574.920991 470.080345 
L 579.775276 470.367829 
L 584.62956 471.191621 
L 589.483845 471.45214 
L 594.338129 469.275433 
L 599.192414 471.894443 
L 604.046698 471.282725 
L 608.900983 471.56267 
L 613.755267 472.393821 
L 618.609552 472.640955 
L 623.463836 470.485858 
L 628.318121 470.890831 
L 633.172405 470.274759 
L 638.02669 470.56102 
L 642.880974 471.386001 
L 647.735259 471.644357 
L 652.589543 469.471144 
L 657.443827 464.876004 
L 662.298112 464.0758 
L 667.152396 464.367055 
L 672.006681 465.234736 
L 676.860965 465.71057 
L 681.71525 463.545651 
L 686.569534 472.598323 
L 691.423819 471.989661 
L 696.278103 472.265171 
L 701.132388 473.100649 
L 705.986672 473.339916 
L 710.840957 471.197525 
L 715.695241 464.639643 
L 720.549526 463.31506 
L 725.40381 463.498837 
L 730.258095 464.628978 
L 735.112379 465.605067 
L 739.966663 463.822982 
L 744.820948 465.951991 
L 749.675232 465.314464 
L 754.529517 465.631839 
L 759.383801 466.426456 
L 764.238086 466.740024 
L 769.09237 464.477658 
L 773.946655 466.929638 
L 778.800939 466.153426 
L 783.655224 466.434885 
L 788.509508 467.307586 
L 793.363793 467.746131 
L 798.218077 465.607134 
L 803.072362 459.312401 
L 807.926646 457.671016 
L 812.780931 457.827207 
L 822.4895 460.38755 
L 827.343784 458.726513 
L 832.198068 457.244163 
L 837.052353 456.374997 
L 841.906637 456.935662 
L 846.760922 458.102923 
L 851.615206 459.023825 
L 856.469491 457.011177 
L 861.323775 444.552313 
L 866.17806 445.243524 
L 871.032344 444.051296 
L 875.886629 440.599578 
L 880.740913 436.684703 
L 885.595198 431.83075 
L 890.449482 446.368834 
L 895.303767 447.199069 
L 900.158051 446.221333 
L 905.012336 443.061706 
L 909.86662 439.328072 
L 914.720904 434.551695 
L 919.575189 425.232691 
L 924.429473 427.641925 
L 929.283758 429.810078 
L 934.138042 429.75904 
L 938.992327 428.549351 
L 943.846611 424.680888 
L 948.700896 415.885017 
L 953.55518 414.340603 
L 958.409465 411.382231 
L 963.263749 405.759475 
L 972.972318 397.019709 
L 977.826603 386.937786 
L 982.680887 376.20822 
L 987.535172 359.723584 
L 992.389456 339.435764 
L 997.24374 325.710449 
L 1002.098025 316.891412 
L 1006.952309 268.605109 
L 1011.806594 250.351842 
L 1016.660878 233.14968 
L 1021.515163 216.787885 
L 1026.369447 212.251873 
L 1031.223732 206.102358 
L 1036.078016 257.014814 
L 1040.932301 267.92727 
L 1045.786585 278.212389 
L 1050.64087 280.136635 
L 1055.495154 279.564531 
L 1060.349439 271.2942 
L 1065.203723 275.049369 
L 1079.766577 187.064396 
L 1084.620861 174.61408 
L 1089.475145 169.25321 
L 1094.32943 148.464284 
L 1099.183714 152.689944 
L 1104.037999 146.174015 
L 1108.892283 118.932854 
L 1113.746568 93.519057 
L 1118.600852 72.299169 
L 1118.600852 72.299169 
" style="fill:none;stroke:#008000;stroke-dasharray:5.55,2.4;stroke-dashoffset:0;stroke-width:1.5;"/>
   </g>
   <g id="line2d_12">
    <path clip-path="url(#pf07b5d4c2c)" d="M 104.055398 480.852612 
L 108.909682 480.852612 
L 113.763967 482.250964 
L 118.618251 479.853789 
L 123.472536 482.650493 
L 128.32682 484.048845 
L 133.181105 484.847903 
L 138.035389 486.04649 
L 142.889673 481.65167 
L 147.743958 482.250964 
L 152.598242 480.852612 
L 157.452527 482.250964 
L 162.306811 483.84908 
L 167.161096 484.648138 
L 172.01538 483.050022 
L 176.869665 479.45426 
L 181.723949 484.248609 
L 186.578234 484.648138 
L 191.432518 484.847903 
L 196.286803 485.846726 
L 201.141087 482.250964 
L 205.995372 485.247432 
L 210.849656 484.048845 
L 215.703941 486.645784 
L 220.558225 484.847903 
L 225.41251 484.847903 
L 230.266794 481.252141 
L 235.121078 482.850257 
L 239.975363 484.048845 
L 244.829647 483.649316 
L 249.683932 480.652847 
L 254.538216 480.652847 
L 259.392501 479.254495 
L 264.246785 485.247432 
L 269.10107 486.446019 
L 273.955354 486.645784 
L 278.809639 480.053553 
L 283.663923 479.853789 
L 288.518208 478.455437 
L 293.372492 477.856143 
L 298.226777 479.45426 
L 303.081061 482.051199 
L 307.935346 482.850257 
L 312.78963 479.853789 
L 317.643914 481.451905 
L 322.498199 478.055908 
L 327.352483 479.254495 
L 332.206768 476.657556 
L 337.061052 477.456614 
L 341.915337 479.654024 
L 346.769621 478.854966 
L 351.623906 478.455437 
L 356.47819 479.45426 
L 361.332475 480.053553 
L 366.186759 480.053553 
L 371.041044 480.453083 
L 375.895328 479.654024 
L 380.749613 480.852612 
L 385.603897 485.047667 
L 390.458182 482.450728 
L 395.312466 479.054731 
L 405.021035 470.26509 
L 409.875319 475.458969 
L 414.729604 477.656379 
L 419.583888 470.464855 
L 424.438173 476.457791 
L 429.292457 477.456614 
L 434.146742 475.05944 
L 439.001026 476.857321 
L 443.855311 477.057085 
L 448.709595 473.061794 
L 453.56388 477.25685 
L 463.272449 472.062971 
L 468.126733 475.658733 
L 472.981018 471.064148 
L 477.835302 481.252141 
L 482.689587 476.058262 
L 487.543871 476.657556 
L 492.398155 470.664619 
L 497.25244 475.05944 
L 502.106724 473.860852 
L 506.961009 472.4625 
L 511.815293 473.261558 
L 516.669578 467.268622 
L 521.523862 469.466032 
L 526.378147 463.872624 
L 531.232431 464.871447 
L 536.086716 470.26509 
L 540.941 469.865561 
L 545.795285 472.4625 
L 550.649569 467.867915 
L 555.503854 473.860852 
L 560.358138 466.469563 
L 565.212423 474.060617 
L 570.066707 474.859675 
L 574.920991 478.655202 
L 579.775276 476.657556 
L 584.62956 472.4625 
L 589.483845 469.665796 
L 594.338129 473.860852 
L 599.192414 468.866738 
L 604.046698 471.463677 
L 608.900983 469.665796 
L 613.755267 468.267445 
L 618.609552 469.865561 
L 623.463836 473.860852 
L 628.318121 467.268622 
L 633.172405 471.863207 
L 638.02669 472.262736 
L 642.880974 466.469563 
L 647.735259 469.266267 
L 652.589543 467.068857 
L 657.443827 473.860852 
L 662.298112 467.268622 
L 667.152396 472.062971 
L 672.006681 474.65991 
L 676.860965 474.460146 
L 681.71525 475.05944 
L 686.569534 468.467209 
L 691.423819 470.065326 
L 696.278103 468.866738 
L 701.132388 460.676391 
L 705.986672 470.464855 
L 710.840957 473.661088 
L 715.695241 467.268622 
L 720.549526 470.065326 
L 725.40381 464.072389 
L 730.258095 470.664619 
L 735.112379 467.068857 
L 739.966663 465.670505 
L 744.820948 474.060617 
L 749.675232 467.268622 
L 754.529517 464.471918 
L 759.383801 467.068857 
L 764.238086 469.266267 
L 769.09237 471.863207 
L 773.946655 464.471918 
L 778.800939 469.865561 
L 783.655224 457.480158 
L 788.509508 459.078275 
L 793.363793 459.278039 
L 798.218077 456.481336 
L 803.072362 465.670505 
L 807.926646 458.279217 
L 812.780931 454.883219 
L 817.635215 464.671682 
L 822.4895 447.691695 
L 827.343784 465.270976 
L 832.198068 456.6811 
L 837.052353 458.079452 
L 841.906637 446.293343 
L 846.760922 452.486044 
L 851.615206 445.694049 
L 856.469491 449.289811 
L 861.323775 455.882042 
L 866.17806 446.493108 
L 871.032344 451.287457 
L 875.886629 446.293343 
L 880.740913 449.889105 
L 885.595198 454.683455 
L 890.449482 450.887928 
L 895.303767 451.087692 
L 900.158051 448.290989 
L 905.012336 440.100642 
L 909.86662 427.715239 
L 914.720904 435.106528 
L 919.575189 439.101819 
L 924.429473 418.925598 
L 929.283758 431.311001 
L 934.138042 426.716416 
L 938.992327 435.905586 
L 943.846611 431.910295 
L 948.700896 420.32395 
L 953.55518 418.725834 
L 958.409465 407.339254 
L 963.263749 405.741138 
L 968.118034 405.741138 
L 972.972318 397.750555 
L 977.826603 364.989168 
L 982.680887 377.37457 
L 987.535172 350.006826 
L 992.389456 311.052737 
L 997.24374 318.64379 
L 1002.098025 318.444025 
L 1006.952309 294.472278 
L 1011.806594 275.894174 
L 1016.660878 229.349032 
L 1021.515163 218.961275 
L 1026.369447 214.766219 
L 1031.223732 172.615897 
L 1036.078016 242.133964 
L 1040.932301 286.881225 
L 1045.786585 277.89182 
L 1050.64087 241.734435 
L 1055.495154 305.459329 
L 1060.349439 239.736789 
L 1065.203723 286.881225 
L 1070.058008 266.50524 
L 1074.912292 190.994237 
L 1079.766577 198.984819 
L 1084.620861 184.601771 
L 1089.475145 127.069578 
L 1094.32943 207.374931 
L 1104.037999 99.302304 
L 1108.892283 61.546803 
L 1113.746568 33.38 
L 1118.600852 99.502069 
L 1118.600852 99.502069 
" style="fill:none;stroke:#ff7f0e;stroke-linecap:square;stroke-width:1.5;"/>
   </g>
   <g id="line2d_13">
    <defs>
     <path d="M 0 3 
C 0.795609 3 1.55874 2.683901 2.12132 2.12132 
C 2.683901 1.55874 3 0.795609 3 0 
C 3 -0.795609 2.683901 -1.55874 2.12132 -2.12132 
C 1.55874 -2.683901 0.795609 -3 0 -3 
C -0.795609 -3 -1.55874 -2.683901 -2.12132 -2.12132 
C -2.683901 -1.55874 -3 -0.795609 -3 0 
C -3 0.795609 -2.683901 1.55874 -2.12132 2.12132 
C -1.55874 2.683901 -0.795609 3 0 3 
z
" id="m4e2bdfbcec" style="stroke:#008000;"/>
    </defs>
    <g clip-path="url(#pf07b5d4c2c)">
     <use style="fill:#008000;stroke:#008000;" x="104.055398" xlink:href="#m4e2bdfbcec" y="486.334388"/>
     <use style="fill:#008000;stroke:#008000;" x="133.181105" xlink:href="#m4e2bdfbcec" y="484.882225"/>
     <use style="fill:#008000;stroke:#008000;" x="162.306811" xlink:href="#m4e2bdfbcec" y="480.433556"/>
     <use style="fill:#008000;stroke:#008000;" x="191.432518" xlink:href="#m4e2bdfbcec" y="483.582403"/>
     <use style="fill:#008000;stroke:#008000;" x="220.558225" xlink:href="#m4e2bdfbcec" y="483.863697"/>
     <use style="fill:#008000;stroke:#008000;" x="249.683932" xlink:href="#m4e2bdfbcec" y="482.698843"/>
     <use style="fill:#008000;stroke:#008000;" x="278.809639" xlink:href="#m4e2bdfbcec" y="485.900715"/>
     <use style="fill:#008000;stroke:#008000;" x="307.935346" xlink:href="#m4e2bdfbcec" y="480.656433"/>
     <use style="fill:#008000;stroke:#008000;" x="337.061052" xlink:href="#m4e2bdfbcec" y="477.909783"/>
     <use style="fill:#008000;stroke:#008000;" x="366.186759" xlink:href="#m4e2bdfbcec" y="479.481169"/>
     <use style="fill:#008000;stroke:#008000;" x="395.312466" xlink:href="#m4e2bdfbcec" y="483.488193"/>
     <use style="fill:#008000;stroke:#008000;" x="424.438173" xlink:href="#m4e2bdfbcec" y="472.059284"/>
     <use style="fill:#008000;stroke:#008000;" x="453.56388" xlink:href="#m4e2bdfbcec" y="472.905444"/>
     <use style="fill:#008000;stroke:#008000;" x="482.689587" xlink:href="#m4e2bdfbcec" y="477.732313"/>
     <use style="fill:#008000;stroke:#008000;" x="511.815293" xlink:href="#m4e2bdfbcec" y="470.35124"/>
     <use style="fill:#008000;stroke:#008000;" x="540.941" xlink:href="#m4e2bdfbcec" y="467.6957"/>
     <use style="fill:#008000;stroke:#008000;" x="570.066707" xlink:href="#m4e2bdfbcec" y="470.697264"/>
     <use style="fill:#008000;stroke:#008000;" x="599.192414" xlink:href="#m4e2bdfbcec" y="471.894443"/>
     <use style="fill:#008000;stroke:#008000;" x="628.318121" xlink:href="#m4e2bdfbcec" y="470.890831"/>
     <use style="fill:#008000;stroke:#008000;" x="657.443827" xlink:href="#m4e2bdfbcec" y="464.876004"/>
     <use style="fill:#008000;stroke:#008000;" x="686.569534" xlink:href="#m4e2bdfbcec" y="472.598323"/>
     <use style="fill:#008000;stroke:#008000;" x="715.695241" xlink:href="#m4e2bdfbcec" y="464.639643"/>
     <use style="fill:#008000;stroke:#008000;" x="744.820948" xlink:href="#m4e2bdfbcec" y="465.951991"/>
     <use style="fill:#008000;stroke:#008000;" x="773.946655" xlink:href="#m4e2bdfbcec" y="466.929638"/>
     <use style="fill:#008000;stroke:#008000;" x="803.072362" xlink:href="#m4e2bdfbcec" y="459.312401"/>
     <use style="fill:#008000;stroke:#008000;" x="832.198068" xlink:href="#m4e2bdfbcec" y="457.244163"/>
     <use style="fill:#008000;stroke:#008000;" x="861.323775" xlink:href="#m4e2bdfbcec" y="444.552313"/>
     <use style="fill:#008000;stroke:#008000;" x="890.449482" xlink:href="#m4e2bdfbcec" y="446.368834"/>
     <use style="fill:#008000;stroke:#008000;" x="919.575189" xlink:href="#m4e2bdfbcec" y="425.232691"/>
     <use style="fill:#008000;stroke:#008000;" x="948.700896" xlink:href="#m4e2bdfbcec" y="415.885017"/>
     <use style="fill:#008000;stroke:#008000;" x="977.826603" xlink:href="#m4e2bdfbcec" y="386.937786"/>
     <use style="fill:#008000;stroke:#008000;" x="1006.952309" xlink:href="#m4e2bdfbcec" y="268.605109"/>
     <use style="fill:#008000;stroke:#008000;" x="1036.078016" xlink:href="#m4e2bdfbcec" y="257.014814"/>
     <use style="fill:#008000;stroke:#008000;" x="1065.203723" xlink:href="#m4e2bdfbcec" y="275.049369"/>
     <use style="fill:#008000;stroke:#008000;" x="1094.32943" xlink:href="#m4e2bdfbcec" y="148.464284"/>
    </g>
   </g>
   <g id="patch_3">
    <path d="M 53.328125 509.66 
L 53.328125 10.7 
" style="fill:none;stroke:#000000;stroke-linecap:square;stroke-linejoin:miter;stroke-width:0.8;"/>
   </g>
   <g id="patch_4">
    <path d="M 1169.328125 509.66 
L 1169.328125 10.7 
" style="fill:none;stroke:#000000;stroke-linecap:square;stroke-linejoin:miter;stroke-width:0.8;"/>
   </g>
   <g id="patch_5">
    <path d="M 53.328125 509.66 
L 1169.328125 509.66 
" style="fill:none;stroke:#000000;stroke-linecap:square;stroke-linejoin:miter;stroke-width:0.8;"/>
   </g>
   <g id="patch_6">
    <path d="M 53.328125 10.7 
L 1169.328125 10.7 
" style="fill:none;stroke:#000000;stroke-linecap:square;stroke-linejoin:miter;stroke-width:0.8;"/>
   </g>
   <g id="legend_1">
    <g id="patch_7">
     <path d="M 60.328125 62.734375 
L 208.103125 62.734375 
Q 210.103125 62.734375 210.103125 60.734375 
L 210.103125 17.7 
Q 210.103125 15.7 208.103125 15.7 
L 60.328125 15.7 
Q 58.328125 15.7 58.328125 17.7 
L 58.328125 60.734375 
Q 58.328125 62.734375 60.328125 62.734375 
z
" style="fill:#ffffff;opacity:0.8;stroke:#cccccc;stroke-linejoin:miter;"/>
    </g>
    <g id="line2d_14">
     <path d="M 62.328125 23.798437 
L 82.328125 23.798437 
" style="fill:none;stroke:#008000;stroke-dasharray:5.55,2.4;stroke-dashoffset:0;stroke-width:1.5;"/>
    </g>
    <g id="line2d_15"/>
    <g id="text_13">
     <!-- Predicated -->
     <defs>
      <path d="M 19.671875 64.796875 
L 19.671875 37.40625 
L 32.078125 37.40625 
Q 38.96875 37.40625 42.71875 40.96875 
Q 46.484375 44.53125 46.484375 51.125 
Q 46.484375 57.671875 42.71875 61.234375 
Q 38.96875 64.796875 32.078125 64.796875 
z
M 9.8125 72.90625 
L 32.078125 72.90625 
Q 44.34375 72.90625 50.609375 67.359375 
Q 56.890625 61.8125 56.890625 51.125 
Q 56.890625 40.328125 50.609375 34.8125 
Q 44.34375 29.296875 32.078125 29.296875 
L 19.671875 29.296875 
L 19.671875 0 
L 9.8125 0 
z
" id="DejaVuSans-50"/>
      <path d="M 41.109375 46.296875 
Q 39.59375 47.171875 37.8125 47.578125 
Q 36.03125 48 33.890625 48 
Q 26.265625 48 22.1875 43.046875 
Q 18.109375 38.09375 18.109375 28.8125 
L 18.109375 0 
L 9.078125 0 
L 9.078125 54.6875 
L 18.109375 54.6875 
L 18.109375 46.1875 
Q 20.953125 51.171875 25.484375 53.578125 
Q 30.03125 56 36.53125 56 
Q 37.453125 56 38.578125 55.875 
Q 39.703125 55.765625 41.0625 55.515625 
z
" id="DejaVuSans-72"/>
      <path d="M 45.40625 46.390625 
L 45.40625 75.984375 
L 54.390625 75.984375 
L 54.390625 0 
L 45.40625 0 
L 45.40625 8.203125 
Q 42.578125 3.328125 38.25 0.953125 
Q 33.9375 -1.421875 27.875 -1.421875 
Q 17.96875 -1.421875 11.734375 6.484375 
Q 5.515625 14.40625 5.515625 27.296875 
Q 5.515625 40.1875 11.734375 48.09375 
Q 17.96875 56 27.875 56 
Q 33.9375 56 38.25 53.625 
Q 42.578125 51.265625 45.40625 46.390625 
z
M 14.796875 27.296875 
Q 14.796875 17.390625 18.875 11.75 
Q 22.953125 6.109375 30.078125 6.109375 
Q 37.203125 6.109375 41.296875 11.75 
Q 45.40625 17.390625 45.40625 27.296875 
Q 45.40625 37.203125 41.296875 42.84375 
Q 37.203125 48.484375 30.078125 48.484375 
Q 22.953125 48.484375 18.875 42.84375 
Q 14.796875 37.203125 14.796875 27.296875 
z
" id="DejaVuSans-64"/>
      <path d="M 48.78125 52.59375 
L 48.78125 44.1875 
Q 44.96875 46.296875 41.140625 47.34375 
Q 37.3125 48.390625 33.40625 48.390625 
Q 24.65625 48.390625 19.8125 42.84375 
Q 14.984375 37.3125 14.984375 27.296875 
Q 14.984375 17.28125 19.8125 11.734375 
Q 24.65625 6.203125 33.40625 6.203125 
Q 37.3125 6.203125 41.140625 7.25 
Q 44.96875 8.296875 48.78125 10.40625 
L 48.78125 2.09375 
Q 45.015625 0.34375 40.984375 -0.53125 
Q 36.96875 -1.421875 32.421875 -1.421875 
Q 20.0625 -1.421875 12.78125 6.34375 
Q 5.515625 14.109375 5.515625 27.296875 
Q 5.515625 40.671875 12.859375 48.328125 
Q 20.21875 56 33.015625 56 
Q 37.15625 56 41.109375 55.140625 
Q 45.0625 54.296875 48.78125 52.59375 
z
" id="DejaVuSans-63"/>
      <path d="M 34.28125 27.484375 
Q 23.390625 27.484375 19.1875 25 
Q 14.984375 22.515625 14.984375 16.5 
Q 14.984375 11.71875 18.140625 8.90625 
Q 21.296875 6.109375 26.703125 6.109375 
Q 34.1875 6.109375 38.703125 11.40625 
Q 43.21875 16.703125 43.21875 25.484375 
L 43.21875 27.484375 
z
M 52.203125 31.203125 
L 52.203125 0 
L 43.21875 0 
L 43.21875 8.296875 
Q 40.140625 3.328125 35.546875 0.953125 
Q 30.953125 -1.421875 24.3125 -1.421875 
Q 15.921875 -1.421875 10.953125 3.296875 
Q 6 8.015625 6 15.921875 
Q 6 25.140625 12.171875 29.828125 
Q 18.359375 34.515625 30.609375 34.515625 
L 43.21875 34.515625 
L 43.21875 35.40625 
Q 43.21875 41.609375 39.140625 45 
Q 35.0625 48.390625 27.6875 48.390625 
Q 23 48.390625 18.546875 47.265625 
Q 14.109375 46.140625 10.015625 43.890625 
L 10.015625 52.203125 
Q 14.9375 54.109375 19.578125 55.046875 
Q 24.21875 56 28.609375 56 
Q 40.484375 56 46.34375 49.84375 
Q 52.203125 43.703125 52.203125 31.203125 
z
" id="DejaVuSans-61"/>
      <path d="M 18.3125 70.21875 
L 18.3125 54.6875 
L 36.8125 54.6875 
L 36.8125 47.703125 
L 18.3125 47.703125 
L 18.3125 18.015625 
Q 18.3125 11.328125 20.140625 9.421875 
Q 21.96875 7.515625 27.59375 7.515625 
L 36.8125 7.515625 
L 36.8125 0 
L 27.59375 0 
Q 17.1875 0 13.234375 3.875 
Q 9.28125 7.765625 9.28125 18.015625 
L 9.28125 47.703125 
L 2.6875 47.703125 
L 2.6875 54.6875 
L 9.28125 54.6875 
L 9.28125 70.21875 
z
" id="DejaVuSans-74"/>
     </defs>
     <g transform="translate(90.328125 27.298437)scale(0.1 -0.1)">
      <use xlink:href="#DejaVuSans-50"/>
      <use x="60.287109" xlink:href="#DejaVuSans-72"/>
      <use x="101.369141" xlink:href="#DejaVuSans-65"/>
      <use x="162.892578" xlink:href="#DejaVuSans-64"/>
      <use x="226.369141" xlink:href="#DejaVuSans-69"/>
      <use x="254.152344" xlink:href="#DejaVuSans-63"/>
      <use x="309.132812" xlink:href="#DejaVuSans-61"/>
      <use x="370.412109" xlink:href="#DejaVuSans-74"/>
      <use x="409.621094" xlink:href="#DejaVuSans-65"/>
      <use x="471.144531" xlink:href="#DejaVuSans-64"/>
     </g>
    </g>
    <g id="line2d_16">
     <path d="M 62.328125 38.476562 
L 82.328125 38.476562 
" style="fill:none;stroke:#ff7f0e;stroke-linecap:square;stroke-width:1.5;"/>
    </g>
    <g id="line2d_17"/>
    <g id="text_14">
     <!-- Real Data -->
     <defs>
      <path d="M 9.421875 75.984375 
L 18.40625 75.984375 
L 18.40625 0 
L 9.421875 0 
z
" id="DejaVuSans-6c"/>
      <path id="DejaVuSans-20"/>
      <path d="M 19.671875 64.796875 
L 19.671875 8.109375 
L 31.59375 8.109375 
Q 46.6875 8.109375 53.6875 14.9375 
Q 60.6875 21.78125 60.6875 36.53125 
Q 60.6875 51.171875 53.6875 57.984375 
Q 46.6875 64.796875 31.59375 64.796875 
z
M 9.8125 72.90625 
L 30.078125 72.90625 
Q 51.265625 72.90625 61.171875 64.09375 
Q 71.09375 55.28125 71.09375 36.53125 
Q 71.09375 17.671875 61.125 8.828125 
Q 51.171875 0 30.078125 0 
L 9.8125 0 
z
" id="DejaVuSans-44"/>
     </defs>
     <g transform="translate(90.328125 41.976562)scale(0.1 -0.1)">
      <use xlink:href="#DejaVuSans-52"/>
      <use x="69.419922" xlink:href="#DejaVuSans-65"/>
      <use x="130.943359" xlink:href="#DejaVuSans-61"/>
      <use x="192.222656" xlink:href="#DejaVuSans-6c"/>
      <use x="220.005859" xlink:href="#DejaVuSans-20"/>
      <use x="251.792969" xlink:href="#DejaVuSans-44"/>
      <use x="328.794922" xlink:href="#DejaVuSans-61"/>
      <use x="390.074219" xlink:href="#DejaVuSans-74"/>
      <use x="429.283203" xlink:href="#DejaVuSans-61"/>
     </g>
    </g>
    <g id="line2d_18"/>
    <g id="line2d_19">
     <g>
      <use style="fill:#008000;stroke:#008000;" x="72.328125" xlink:href="#m4e2bdfbcec" y="53.154688"/>
     </g>
    </g>
    <g id="text_15">
     <!-- Start Point for Forecast -->
     <defs>
      <path d="M 53.515625 70.515625 
L 53.515625 60.890625 
Q 47.90625 63.578125 42.921875 64.890625 
Q 37.9375 66.21875 33.296875 66.21875 
Q 25.25 66.21875 20.875 63.09375 
Q 16.5 59.96875 16.5 54.203125 
Q 16.5 49.359375 19.40625 46.890625 
Q 22.3125 44.4375 30.421875 42.921875 
L 36.375 41.703125 
Q 47.40625 39.59375 52.65625 34.296875 
Q 57.90625 29 57.90625 20.125 
Q 57.90625 9.515625 50.796875 4.046875 
Q 43.703125 -1.421875 29.984375 -1.421875 
Q 24.8125 -1.421875 18.96875 -0.25 
Q 13.140625 0.921875 6.890625 3.21875 
L 6.890625 13.375 
Q 12.890625 10.015625 18.65625 8.296875 
Q 24.421875 6.59375 29.984375 6.59375 
Q 38.421875 6.59375 43.015625 9.90625 
Q 47.609375 13.234375 47.609375 19.390625 
Q 47.609375 24.75 44.3125 27.78125 
Q 41.015625 30.8125 33.5 32.328125 
L 27.484375 33.5 
Q 16.453125 35.6875 11.515625 40.375 
Q 6.59375 45.0625 6.59375 53.421875 
Q 6.59375 63.09375 13.40625 68.65625 
Q 20.21875 74.21875 32.171875 74.21875 
Q 37.3125 74.21875 42.625 73.28125 
Q 47.953125 72.359375 53.515625 70.515625 
z
" id="DejaVuSans-53"/>
      <path d="M 30.609375 48.390625 
Q 23.390625 48.390625 19.1875 42.75 
Q 14.984375 37.109375 14.984375 27.296875 
Q 14.984375 17.484375 19.15625 11.84375 
Q 23.34375 6.203125 30.609375 6.203125 
Q 37.796875 6.203125 41.984375 11.859375 
Q 46.1875 17.53125 46.1875 27.296875 
Q 46.1875 37.015625 41.984375 42.703125 
Q 37.796875 48.390625 30.609375 48.390625 
z
M 30.609375 56 
Q 42.328125 56 49.015625 48.375 
Q 55.71875 40.765625 55.71875 27.296875 
Q 55.71875 13.875 49.015625 6.21875 
Q 42.328125 -1.421875 30.609375 -1.421875 
Q 18.84375 -1.421875 12.171875 6.21875 
Q 5.515625 13.875 5.515625 27.296875 
Q 5.515625 40.765625 12.171875 48.375 
Q 18.84375 56 30.609375 56 
z
" id="DejaVuSans-6f"/>
      <path d="M 54.890625 33.015625 
L 54.890625 0 
L 45.90625 0 
L 45.90625 32.71875 
Q 45.90625 40.484375 42.875 44.328125 
Q 39.84375 48.1875 33.796875 48.1875 
Q 26.515625 48.1875 22.3125 43.546875 
Q 18.109375 38.921875 18.109375 30.90625 
L 18.109375 0 
L 9.078125 0 
L 9.078125 54.6875 
L 18.109375 54.6875 
L 18.109375 46.1875 
Q 21.34375 51.125 25.703125 53.5625 
Q 30.078125 56 35.796875 56 
Q 45.21875 56 50.046875 50.171875 
Q 54.890625 44.34375 54.890625 33.015625 
z
" id="DejaVuSans-6e"/>
      <path d="M 9.8125 72.90625 
L 51.703125 72.90625 
L 51.703125 64.59375 
L 19.671875 64.59375 
L 19.671875 43.109375 
L 48.578125 43.109375 
L 48.578125 34.8125 
L 19.671875 34.8125 
L 19.671875 0 
L 9.8125 0 
z
" id="DejaVuSans-46"/>
     </defs>
     <g transform="translate(90.328125 56.654688)scale(0.1 -0.1)">
      <use xlink:href="#DejaVuSans-53"/>
      <use x="63.476562" xlink:href="#DejaVuSans-74"/>
      <use x="102.685547" xlink:href="#DejaVuSans-61"/>
      <use x="163.964844" xlink:href="#DejaVuSans-72"/>
      <use x="205.078125" xlink:href="#DejaVuSans-74"/>
      <use x="244.287109" xlink:href="#DejaVuSans-20"/>
      <use x="276.074219" xlink:href="#DejaVuSans-50"/>
      <use x="336.330078" xlink:href="#DejaVuSans-6f"/>
      <use x="397.511719" xlink:href="#DejaVuSans-69"/>
      <use x="425.294922" xlink:href="#DejaVuSans-6e"/>
      <use x="488.673828" xlink:href="#DejaVuSans-74"/>
      <use x="527.882812" xlink:href="#DejaVuSans-20"/>
      <use x="559.669922" xlink:href="#DejaVuSans-66"/>
      <use x="594.875" xlink:href="#DejaVuSans-6f"/>
      <use x="656.056641" xlink:href="#DejaVuSans-72"/>
      <use x="697.169922" xlink:href="#DejaVuSans-20"/>
      <use x="728.957031" xlink:href="#DejaVuSans-46"/>
      <use x="786.429688" xlink:href="#DejaVuSans-6f"/>
      <use x="847.611328" xlink:href="#DejaVuSans-72"/>
      <use x="888.693359" xlink:href="#DejaVuSans-65"/>
      <use x="950.216797" xlink:href="#DejaVuSans-63"/>
      <use x="1005.197266" xlink:href="#DejaVuSans-61"/>
      <use x="1066.476562" xlink:href="#DejaVuSans-73"/>
      <use x="1118.576172" xlink:href="#DejaVuSans-74"/>
     </g>
    </g>
   </g>
  </g>
  <g id="axes_2">
   <g id="patch_8">
    <path d="M 53.328125 645.74 
L 1170.768125 645.74 
L 1170.768125 516.14 
L 53.328125 516.14 
z
" style="fill:none;"/>
   </g>
   <g id="matplotlib.axis_3">
    <g id="xtick_6">
     <g id="line2d_20">
      <g>
       <use style="stroke:#000000;stroke-width:0.8;" x="104.120852" xlink:href="#m568710ca17" y="645.74"/>
      </g>
     </g>
     <g id="text_16">
      <!-- 0 -->
      <g transform="translate(100.939602 660.338437)scale(0.1 -0.1)">
       <use xlink:href="#DejaVuSans-30"/>
      </g>
     </g>
    </g>
    <g id="xtick_7">
     <g id="line2d_21">
      <g>
       <use style="stroke:#000000;stroke-width:0.8;" x="228.612831" xlink:href="#m568710ca17" y="645.74"/>
      </g>
     </g>
     <g id="text_17">
      <!-- 25 -->
      <g transform="translate(222.250331 660.338437)scale(0.1 -0.1)">
       <use xlink:href="#DejaVuSans-32"/>
       <use x="63.623047" xlink:href="#DejaVuSans-35"/>
      </g>
     </g>
    </g>
    <g id="xtick_8">
     <g id="line2d_22">
      <g>
       <use style="stroke:#000000;stroke-width:0.8;" x="353.104809" xlink:href="#m568710ca17" y="645.74"/>
      </g>
     </g>
     <g id="text_18">
      <!-- 50 -->
      <g transform="translate(346.742309 660.338437)scale(0.1 -0.1)">
       <use xlink:href="#DejaVuSans-35"/>
       <use x="63.623047" xlink:href="#DejaVuSans-30"/>
      </g>
     </g>
    </g>
    <g id="xtick_9">
     <g id="line2d_23">
      <g>
       <use style="stroke:#000000;stroke-width:0.8;" x="477.596788" xlink:href="#m568710ca17" y="645.74"/>
      </g>
     </g>
     <g id="text_19">
      <!-- 75 -->
      <defs>
       <path d="M 8.203125 72.90625 
L 55.078125 72.90625 
L 55.078125 68.703125 
L 28.609375 0 
L 18.3125 0 
L 43.21875 64.59375 
L 8.203125 64.59375 
z
" id="DejaVuSans-37"/>
      </defs>
      <g transform="translate(471.234288 660.338437)scale(0.1 -0.1)">
       <use xlink:href="#DejaVuSans-37"/>
       <use x="63.623047" xlink:href="#DejaVuSans-35"/>
      </g>
     </g>
    </g>
    <g id="xtick_10">
     <g id="line2d_24">
      <g>
       <use style="stroke:#000000;stroke-width:0.8;" x="602.088767" xlink:href="#m568710ca17" y="645.74"/>
      </g>
     </g>
     <g id="text_20">
      <!-- 100 -->
      <g transform="translate(592.545017 660.338437)scale(0.1 -0.1)">
       <use xlink:href="#DejaVuSans-31"/>
       <use x="63.623047" xlink:href="#DejaVuSans-30"/>
       <use x="127.246094" xlink:href="#DejaVuSans-30"/>
      </g>
     </g>
    </g>
    <g id="xtick_11">
     <g id="line2d_25">
      <g>
       <use style="stroke:#000000;stroke-width:0.8;" x="726.580745" xlink:href="#m568710ca17" y="645.74"/>
      </g>
     </g>
     <g id="text_21">
      <!-- 125 -->
      <g transform="translate(717.036995 660.338437)scale(0.1 -0.1)">
       <use xlink:href="#DejaVuSans-31"/>
       <use x="63.623047" xlink:href="#DejaVuSans-32"/>
       <use x="127.246094" xlink:href="#DejaVuSans-35"/>
      </g>
     </g>
    </g>
    <g id="xtick_12">
     <g id="line2d_26">
      <g>
       <use style="stroke:#000000;stroke-width:0.8;" x="851.072724" xlink:href="#m568710ca17" y="645.74"/>
      </g>
     </g>
     <g id="text_22">
      <!-- 150 -->
      <g transform="translate(841.528974 660.338437)scale(0.1 -0.1)">
       <use xlink:href="#DejaVuSans-31"/>
       <use x="63.623047" xlink:href="#DejaVuSans-35"/>
       <use x="127.246094" xlink:href="#DejaVuSans-30"/>
      </g>
     </g>
    </g>
    <g id="xtick_13">
     <g id="line2d_27">
      <g>
       <use style="stroke:#000000;stroke-width:0.8;" x="975.564703" xlink:href="#m568710ca17" y="645.74"/>
      </g>
     </g>
     <g id="text_23">
      <!-- 175 -->
      <g transform="translate(966.020953 660.338437)scale(0.1 -0.1)">
       <use xlink:href="#DejaVuSans-31"/>
       <use x="63.623047" xlink:href="#DejaVuSans-37"/>
       <use x="127.246094" xlink:href="#DejaVuSans-35"/>
      </g>
     </g>
    </g>
    <g id="xtick_14">
     <g id="line2d_28">
      <g>
       <use style="stroke:#000000;stroke-width:0.8;" x="1100.056681" xlink:href="#m568710ca17" y="645.74"/>
      </g>
     </g>
     <g id="text_24">
      <!-- 200 -->
      <g transform="translate(1090.512931 660.338437)scale(0.1 -0.1)">
       <use xlink:href="#DejaVuSans-32"/>
       <use x="63.623047" xlink:href="#DejaVuSans-30"/>
       <use x="127.246094" xlink:href="#DejaVuSans-30"/>
      </g>
     </g>
    </g>
   </g>
   <g id="matplotlib.axis_4">
    <g id="ytick_6">
     <g id="line2d_29">
      <g>
       <use style="stroke:#000000;stroke-width:0.8;" x="53.328125" xlink:href="#mf855a6f577" y="620.733092"/>
      </g>
     </g>
     <g id="text_25">
      <!-- 15 -->
      <g transform="translate(33.603125 624.532311)scale(0.1 -0.1)">
       <use xlink:href="#DejaVuSans-31"/>
       <use x="63.623047" xlink:href="#DejaVuSans-35"/>
      </g>
     </g>
    </g>
    <g id="ytick_7">
     <g id="line2d_30">
      <g>
       <use style="stroke:#000000;stroke-width:0.8;" x="53.328125" xlink:href="#mf855a6f577" y="593.99743"/>
      </g>
     </g>
     <g id="text_26">
      <!-- 20 -->
      <g transform="translate(33.603125 597.796649)scale(0.1 -0.1)">
       <use xlink:href="#DejaVuSans-32"/>
       <use x="63.623047" xlink:href="#DejaVuSans-30"/>
      </g>
     </g>
    </g>
    <g id="ytick_8">
     <g id="line2d_31">
      <g>
       <use style="stroke:#000000;stroke-width:0.8;" x="53.328125" xlink:href="#mf855a6f577" y="567.261768"/>
      </g>
     </g>
     <g id="text_27">
      <!-- 25 -->
      <g transform="translate(33.603125 571.060987)scale(0.1 -0.1)">
       <use xlink:href="#DejaVuSans-32"/>
       <use x="63.623047" xlink:href="#DejaVuSans-35"/>
      </g>
     </g>
    </g>
    <g id="ytick_9">
     <g id="line2d_32">
      <g>
       <use style="stroke:#000000;stroke-width:0.8;" x="53.328125" xlink:href="#mf855a6f577" y="540.526106"/>
      </g>
     </g>
     <g id="text_28">
      <!-- 30 -->
      <defs>
       <path d="M 40.578125 39.3125 
Q 47.65625 37.796875 51.625 33 
Q 55.609375 28.21875 55.609375 21.1875 
Q 55.609375 10.40625 48.1875 4.484375 
Q 40.765625 -1.421875 27.09375 -1.421875 
Q 22.515625 -1.421875 17.65625 -0.515625 
Q 12.796875 0.390625 7.625 2.203125 
L 7.625 11.71875 
Q 11.71875 9.328125 16.59375 8.109375 
Q 21.484375 6.890625 26.8125 6.890625 
Q 36.078125 6.890625 40.9375 10.546875 
Q 45.796875 14.203125 45.796875 21.1875 
Q 45.796875 27.640625 41.28125 31.265625 
Q 36.765625 34.90625 28.71875 34.90625 
L 20.21875 34.90625 
L 20.21875 43.015625 
L 29.109375 43.015625 
Q 36.375 43.015625 40.234375 45.921875 
Q 44.09375 48.828125 44.09375 54.296875 
Q 44.09375 59.90625 40.109375 62.90625 
Q 36.140625 65.921875 28.71875 65.921875 
Q 24.65625 65.921875 20.015625 65.03125 
Q 15.375 64.15625 9.8125 62.3125 
L 9.8125 71.09375 
Q 15.4375 72.65625 20.34375 73.4375 
Q 25.25 74.21875 29.59375 74.21875 
Q 40.828125 74.21875 47.359375 69.109375 
Q 53.90625 64.015625 53.90625 55.328125 
Q 53.90625 49.265625 50.4375 45.09375 
Q 46.96875 40.921875 40.578125 39.3125 
z
" id="DejaVuSans-33"/>
      </defs>
      <g transform="translate(33.603125 544.325324)scale(0.1 -0.1)">
       <use xlink:href="#DejaVuSans-33"/>
       <use x="63.623047" xlink:href="#DejaVuSans-30"/>
      </g>
     </g>
    </g>
    <g id="text_29">
     <!-- Temperature -->
     <defs>
      <path d="M 18.109375 8.203125 
L 18.109375 -20.796875 
L 9.078125 -20.796875 
L 9.078125 54.6875 
L 18.109375 54.6875 
L 18.109375 46.390625 
Q 20.953125 51.265625 25.265625 53.625 
Q 29.59375 56 35.59375 56 
Q 45.5625 56 51.78125 48.09375 
Q 58.015625 40.1875 58.015625 27.296875 
Q 58.015625 14.40625 51.78125 6.484375 
Q 45.5625 -1.421875 35.59375 -1.421875 
Q 29.59375 -1.421875 25.265625 0.953125 
Q 20.953125 3.328125 18.109375 8.203125 
z
M 48.6875 27.296875 
Q 48.6875 37.203125 44.609375 42.84375 
Q 40.53125 48.484375 33.40625 48.484375 
Q 26.265625 48.484375 22.1875 42.84375 
Q 18.109375 37.203125 18.109375 27.296875 
Q 18.109375 17.390625 22.1875 11.75 
Q 26.265625 6.109375 33.40625 6.109375 
Q 40.53125 6.109375 44.609375 11.75 
Q 48.6875 17.390625 48.6875 27.296875 
z
" id="DejaVuSans-70"/>
     </defs>
     <g style="fill:#0000ff;" transform="translate(27.523437 613.557187)rotate(-90)scale(0.1 -0.1)">
      <use xlink:href="#DejaVuSans-54"/>
      <use x="60.818359" xlink:href="#DejaVuSans-65"/>
      <use x="122.341797" xlink:href="#DejaVuSans-6d"/>
      <use x="219.753906" xlink:href="#DejaVuSans-70"/>
      <use x="283.230469" xlink:href="#DejaVuSans-65"/>
      <use x="344.753906" xlink:href="#DejaVuSans-72"/>
      <use x="385.867188" xlink:href="#DejaVuSans-61"/>
      <use x="447.146484" xlink:href="#DejaVuSans-74"/>
      <use x="486.355469" xlink:href="#DejaVuSans-75"/>
      <use x="549.734375" xlink:href="#DejaVuSans-72"/>
      <use x="590.816406" xlink:href="#DejaVuSans-65"/>
     </g>
    </g>
   </g>
   <g id="line2d_33">
    <path clip-path="url(#pa8b11f6e2c)" d="M 104.120852 543.980888 
L 109.100531 539.017679 
L 114.080211 540.723949 
L 119.05989 548.496541 
L 124.039569 565.442673 
L 129.019248 555.993221 
L 133.998927 553.797154 
L 138.978606 552.98332 
L 143.958285 541.006278 
L 148.937965 537.929003 
L 153.917644 541.353307 
L 158.897323 544.150927 
L 163.877002 543.04407 
L 168.856681 544.740715 
L 173.83636 537.040845 
L 178.816039 545.56257 
L 183.795719 544.462664 
L 188.775398 555.796981 
L 193.755077 558.445951 
L 198.734756 544.535385 
L 203.714435 538.641776 
L 208.694114 530.471892 
L 213.673793 535.69711 
L 218.653473 536.183699 
L 223.633152 537.432255 
L 228.612831 536.626442 
L 238.572189 543.792134 
L 243.551868 551.147115 
L 248.531547 546.660336 
L 253.511227 547.172056 
L 258.490906 546.061457 
L 263.470585 535.96714 
L 268.450264 529.7126 
L 273.429943 530.949926 
L 278.409622 535.403018 
L 283.389301 536.328072 
L 288.368981 533.573229 
L 293.34866 536.855834 
L 298.328339 539.098421 
L 303.308018 547.281673 
L 308.287697 548.19122 
L 313.267376 557.641742 
L 318.247055 545.260991 
L 323.226735 530.713583 
L 328.206414 529.499249 
L 333.186093 525.838067 
L 338.165772 534.042707 
L 343.145451 536.729107 
L 348.12513 536.300267 
L 353.104809 536.594359 
L 358.084489 538.188874 
L 363.064168 548.394411 
L 368.043847 562.436515 
L 373.023526 553.996067 
L 378.003205 543.110909 
L 382.982884 542.035601 
L 387.962564 534.436791 
L 392.942243 534.064096 
L 397.921922 535.507287 
L 402.901601 539.999413 
L 407.88128 534.491867 
L 412.860959 533.149736 
L 417.840638 545.910668 
L 422.820318 554.860164 
L 427.799997 552.854989 
L 432.779676 549.948288 
L 437.759355 541.448486 
L 442.739034 529.392306 
L 447.718713 526.772211 
L 452.698392 531.857334 
L 457.678072 532.940129 
L 462.657751 536.100284 
L 467.63743 535.469857 
L 472.617109 540.025079 
L 477.596788 549.687882 
L 482.576467 557.165312 
L 487.556146 553.969331 
L 492.535826 553.651712 
L 497.515505 551.410728 
L 502.495184 534.743717 
L 507.474863 533.183423 
L 512.454542 532.260508 
L 517.434221 542.198154 
L 522.4139 539.383958 
L 527.39358 533.595687 
L 532.373259 534.342147 
L 537.352938 537.504976 
L 542.332617 552.280707 
L 547.312296 552.449676 
L 552.291975 550.029564 
L 557.271654 543.526916 
L 562.251334 540.335748 
L 567.231013 531.142423 
L 572.210692 532.253557 
L 577.190371 532.717688 
L 582.17005 536.530193 
L 587.149729 537.092712 
L 592.129408 539.861457 
L 597.109088 548.065562 
L 602.088767 557.389357 
L 607.068446 548.765502 
L 612.048125 551.383993 
L 617.027804 541.533505 
L 622.007483 540.178007 
L 626.987162 533.113911 
L 631.966842 528.180111 
L 636.946521 538.439654 
L 641.9262 540.795066 
L 646.905879 534.655489 
L 651.885558 535.62225 
L 656.865237 550.416696 
L 661.844916 556.777111 
L 666.824596 552.74056 
L 671.804275 550.958896 
L 676.783954 551.17492 
L 681.763633 541.626545 
L 686.743312 527.75341 
L 691.722991 532.921414 
L 696.70267 533.98282 
L 701.68235 535.408365 
L 706.662029 535.29661 
L 711.641708 531.630081 
L 716.621387 537.523156 
L 721.601066 555.212005 
L 726.580745 543.908702 
L 731.560424 552.201569 
L 736.540104 541.688037 
L 741.519783 534.014902 
L 746.499462 528.120758 
L 751.479141 532.712341 
L 756.45882 535.283777 
L 761.438499 537.012505 
L 766.418178 537.385735 
L 771.397858 539.037464 
L 776.377537 548.555894 
L 781.357216 549.765416 
L 786.336895 556.345062 
L 791.316574 546.335765 
L 796.296253 541.159206 
L 801.275932 536.764398 
L 806.255612 527.477498 
L 811.235291 528.697179 
L 816.21497 533.890849 
L 821.194649 537.54294 
L 826.174328 534.192427 
L 831.154007 536.688469 
L 836.133686 550.369642 
L 841.113366 549.573988 
L 846.093045 555.050521 
L 856.052403 545.936869 
L 861.032082 537.772867 
L 866.011761 534.062492 
L 870.991441 533.809572 
L 875.97112 535.246347 
L 880.950799 535.56771 
L 885.930478 535.188063 
L 890.910157 535.763949 
L 895.889836 544.780819 
L 900.869515 556.767486 
L 905.849195 548.011022 
L 910.828874 551.201121 
L 915.808553 541.320689 
L 920.788232 541.835084 
L 925.767911 526.17761 
L 930.74759 530.451039 
L 935.727269 536.420043 
L 940.706949 537.951461 
L 945.686628 534.739974 
L 950.666307 537.655765 
L 955.645986 541.07686 
L 960.625665 548.80614 
L 965.605344 550.526847 
L 970.585023 554.015851 
L 975.564703 541.784821 
L 980.544382 530.358533 
L 985.524061 527.105338 
L 990.50374 533.500508 
L 995.483419 536.962776 
L 1000.463098 534.128796 
L 1005.442777 534.687037 
L 1010.422457 537.168106 
L 1015.402136 543.658456 
L 1020.381815 552.438447 
L 1025.361494 552.952307 
L 1030.341173 553.211643 
L 1035.320852 546.529331 
L 1040.300531 535.964467 
L 1045.280211 523.675152 
L 1050.25989 530.637119 
L 1055.239569 538.95191 
L 1060.219248 535.279499 
L 1065.198927 529.182164 
L 1070.178606 532.480275 
L 1075.158285 535.226028 
L 1080.137965 541.979456 
L 1085.117644 544.425769 
L 1090.097323 546.236843 
L 1095.077002 548.223303 
L 1100.056681 530.268701 
L 1105.03636 523.012643 
L 1110.016039 522.030909 
L 1114.995719 531.544527 
L 1119.975398 530.884691 
L 1119.975398 530.884691 
" style="fill:none;stroke:#ff0000;stroke-linecap:square;stroke-width:1.5;"/>
   </g>
   <g id="line2d_34">
    <path clip-path="url(#pa8b11f6e2c)" d="M 104.120852 565.307391 
L 109.100531 561.823734 
L 114.080211 563.694161 
L 119.05989 567.632324 
L 124.039569 585.750548 
L 129.019248 578.705701 
L 133.998927 578.714256 
L 138.978606 576.268478 
L 143.958285 566.387512 
L 148.937965 560.220129 
L 153.917644 561.183682 
L 158.897323 563.339111 
L 163.877002 561.273514 
L 168.856681 562.672859 
L 173.83636 557.769004 
L 178.816039 567.128624 
L 183.795719 566.429754 
L 188.775398 575.8637 
L 193.755077 577.978491 
L 198.734756 570.385563 
L 203.714435 564.594083 
L 208.694114 553.150151 
L 213.673793 560.876757 
L 218.653473 561.30934 
L 223.633152 562.065959 
L 228.612831 561.070323 
L 233.59251 566.000379 
L 238.572189 567.242518 
L 243.551868 572.785356 
L 248.531547 570.733661 
L 253.511227 573.645175 
L 258.490906 575.987753 
L 263.470585 566.219612 
L 268.450264 557.615006 
L 273.429943 556.193204 
L 278.409622 560.32012 
L 283.389301 561.487934 
L 288.368981 559.371004 
L 293.34866 561.301854 
L 298.328339 565.013299 
L 303.308018 571.74213 
L 308.287697 571.711651 
L 313.267376 583.363053 
L 318.247055 566.94094 
L 323.226735 558.486589 
L 328.206414 558.65235 
L 333.186093 553.196671 
L 338.165772 560.427063 
L 343.145451 561.014713 
L 348.12513 560.734523 
L 353.104809 561.005088 
L 358.084489 563.795222 
L 363.064168 570.458818 
L 368.043847 582.366348 
L 373.023526 576.529953 
L 378.003205 569.935334 
L 382.982884 565.261406 
L 387.962564 558.904735 
L 392.942243 557.409676 
L 397.921922 559.075843 
L 402.901601 562.278775 
L 407.88128 557.343372 
L 412.860959 558.333126 
L 417.840638 563.374403 
L 427.799997 572.211074 
L 432.779676 570.80157 
L 437.759355 565.716447 
L 442.739034 551.18401 
L 447.718713 549.994273 
L 452.698392 551.079206 
L 457.678072 551.172246 
L 462.657751 554.215834 
L 467.63743 553.721224 
L 472.617109 558.128331 
L 477.596788 565.914825 
L 482.576467 570.162587 
L 492.535826 572.22658 
L 497.515505 572.321759 
L 502.495184 560.976748 
L 507.474863 557.615006 
L 512.454542 552.122966 
L 517.434221 557.790927 
L 522.4139 557.497904 
L 527.39358 552.301561 
L 532.373259 557.242846 
L 537.352938 558.495144 
L 542.332617 571.036309 
L 547.312296 572.262941 
L 552.291975 575.672272 
L 557.271654 569.744441 
L 562.251334 566.232445 
L 567.231013 556.303355 
L 572.210692 556.503872 
L 577.190371 557.54175 
L 582.17005 559.053385 
L 587.149729 561.201328 
L 592.129408 563.719827 
L 597.109088 569.381906 
L 602.088767 577.129901 
L 607.068446 574.556326 
L 612.048125 575.457852 
L 617.027804 569.345545 
L 622.007483 566.474135 
L 626.987162 559.623924 
L 631.966842 554.243639 
L 636.946521 559.951703 
L 641.9262 563.116671 
L 646.905879 558.380181 
L 651.885558 558.943769 
L 656.865237 571.387615 
L 661.844916 577.900957 
L 666.824596 575.879206 
L 671.804275 575.835895 
L 676.783954 575.083018 
L 681.763633 568.396429 
L 686.743312 556.014609 
L 691.722991 557.729435 
L 696.70267 558.89511 
L 701.68235 556.901164 
L 706.662029 557.370107 
L 711.641708 554.85749 
L 716.621387 561.02915 
L 721.601066 575.609176 
L 726.580745 569.026856 
L 731.560424 577.211712 
L 736.540104 567.687934 
L 741.519783 564.943251 
L 746.499462 554.95053 
L 751.479141 554.375713 
L 756.45882 558.212816 
L 761.438499 561.023268 
L 766.418178 561.633911 
L 771.397858 561.272445 
L 776.377537 569.987201 
L 781.357216 574.884105 
L 786.336895 583.557154 
L 791.316574 573.906649 
L 796.296253 569.37335 
L 801.275932 565.037895 
L 806.255612 555.93868 
L 811.235291 553.955429 
L 816.21497 558.132609 
L 821.194649 560.579456 
L 826.174328 558.207468 
L 831.154007 559.716429 
L 836.133686 571.017059 
L 841.113366 573.143614 
L 846.093045 577.471583 
L 851.072724 574.159034 
L 856.052403 571.201 
L 861.032082 563.24019 
L 866.011761 558.900992 
L 870.991441 559.842087 
L 875.97112 558.693523 
L 880.950799 559.397205 
L 885.930478 561.083691 
L 890.910157 560.950013 
L 895.889836 567.216852 
L 900.869515 577.47693 
L 905.849195 572.574679 
L 910.828874 578.526037 
L 915.808553 566.326554 
L 920.788232 568.971246 
L 925.767911 552.937335 
L 930.74759 555.923173 
L 935.727269 560.677844 
L 940.706949 559.895558 
L 945.686628 559.300957 
L 950.666307 563.041276 
L 955.645986 563.771694 
L 960.625665 570.277016 
L 965.605344 572.84257 
L 970.585023 578.752755 
L 975.564703 567.478327 
L 980.544382 560.061319 
L 985.524061 555.70501 
L 990.50374 559.756533 
L 995.483419 559.738887 
L 1000.463098 556.308702 
L 1005.442777 557.532126 
L 1010.422457 563.352479 
L 1015.402136 565.563519 
L 1020.381815 575.248245 
L 1025.361494 576.764157 
L 1030.341173 580.680397 
L 1035.320852 572.158137 
L 1040.300531 561.538197 
L 1045.280211 553.053902 
L 1050.25989 555.307719 
L 1055.239569 559.108995 
L 1065.198927 553.711065 
L 1070.178606 556.035463 
L 1075.158285 558.043846 
L 1080.137965 562.65147 
L 1085.117644 566.496593 
L 1090.097323 575.207607 
L 1095.077002 576.962536 
L 1100.056681 555.985735 
L 1105.03636 551.149788 
L 1110.016039 548.204053 
L 1114.995719 555.830133 
L 1119.975398 554.562863 
L 1119.975398 554.562863 
" style="fill:none;stroke:#008000;stroke-linecap:square;stroke-width:1.5;"/>
   </g>
   <g id="line2d_35">
    <path clip-path="url(#pa8b11f6e2c)" d="M 104.120852 590.684882 
L 109.100531 590.045365 
L 114.080211 586.607693 
L 119.05989 589.091971 
L 124.039569 610.798655 
L 129.019248 604.810401 
L 133.998927 609.329798 
L 138.978606 606.39743 
L 143.958285 601.442243 
L 148.937965 591.129763 
L 153.917644 581.409211 
L 158.897323 581.75624 
L 163.877002 583.118154 
L 168.856681 584.138387 
L 173.83636 580.068685 
L 178.816039 588.287762 
L 183.795719 589.474291 
L 188.775398 597.862872 
L 193.755077 601.826701 
L 198.734756 595.011246 
L 203.714435 600.549806 
L 208.694114 584.579526 
L 213.673793 586.226977 
L 218.653473 586.116826 
L 228.612831 586.74351 
L 233.59251 588.035377 
L 238.572189 588.574368 
L 243.551868 595.674826 
L 248.531547 595.604243 
L 253.511227 598.45373 
L 258.490906 595.96464 
L 263.470585 594.725175 
L 268.450264 589.744321 
L 273.429943 582.913894 
L 278.409622 582.691988 
L 283.389301 586.078327 
L 288.368981 584.764536 
L 293.34866 587.225822 
L 298.328339 587.930039 
L 303.308018 596.62715 
L 308.287697 595.806365 
L 313.267376 603.038362 
L 318.247055 594.185114 
L 323.226735 594.573851 
L 328.206414 595.883898 
L 333.186093 585.029754 
L 343.145451 585.763381 
L 348.12513 584.23517 
L 353.104809 583.309582 
L 358.084489 583.100509 
L 363.064168 591.499785 
L 368.043847 602.352859 
L 373.023526 602.14646 
L 378.003205 597.722243 
L 382.982884 592.639793 
L 387.962564 590.345339 
L 392.942243 584.376869 
L 397.921922 584.234636 
L 402.901601 588.977007 
L 407.88128 583.96621 
L 412.860959 586.012557 
L 417.840638 588.238568 
L 422.820318 589.685502 
L 427.799997 592.459595 
L 432.779676 594.459422 
L 437.759355 598.647831 
L 442.739034 579.249504 
L 452.698392 573.979905 
L 457.678072 572.688038 
L 462.657751 574.130694 
L 467.63743 570.764674 
L 472.617109 577.098887 
L 477.596788 578.66132 
L 482.576467 586.077258 
L 487.556146 589.660906 
L 492.535826 590.726054 
L 497.515505 599.102872 
L 502.495184 592.103476 
L 507.474863 586.753135 
L 512.454542 578.365623 
L 517.434221 574.954687 
L 522.4139 579.708823 
L 527.39358 576.118758 
L 532.373259 582.856145 
L 537.352938 581.034912 
L 542.332617 592.746201 
L 547.312296 593.75467 
L 552.291975 595.684985 
L 557.271654 599.655231 
L 562.251334 594.950289 
L 567.231013 586.335524 
L 572.210692 587.363243 
L 577.190371 582.421958 
L 582.17005 583.723985 
L 587.149729 584.017542 
L 592.129408 586.609297 
L 597.109088 590.217542 
L 602.088767 595.989772 
L 607.068446 603.362933 
L 617.027804 599.185218 
L 622.007483 594.981837 
L 626.987162 591.698698 
L 631.966842 587.318327 
L 636.946521 585.342027 
L 641.9262 588.796809 
L 646.905879 586.10934 
L 651.885558 585.397637 
L 656.865237 588.667408 
L 661.844916 602.232014 
L 666.824596 601.262044 
L 671.804275 604.30991 
L 676.783954 601.188789 
L 681.763633 600.610764 
L 686.743312 591.423321 
L 691.722991 585.898663 
L 696.70267 586.340871 
L 701.68235 584.001501 
L 706.662029 584.965589 
L 711.641708 585.289625 
L 716.621387 591.057042 
L 721.601066 597.034601 
L 726.580745 600.725192 
L 731.560424 603.865563 
L 736.540104 598.114187 
L 741.519783 599.372368 
L 746.499462 586.083674 
L 751.479141 580.781992 
L 756.45882 584.26351 
L 761.438499 584.644761 
L 766.418178 586.709823 
L 771.397858 586.32376 
L 776.377537 593.188944 
L 781.357216 602.842657 
L 786.336895 613.113429 
L 791.316574 605.186839 
L 796.296253 602.303131 
L 801.275932 599.67555 
L 806.255612 591.599241 
L 811.235291 585.193377 
L 816.21497 585.729694 
L 821.194649 587.625787 
L 826.174328 586.833877 
L 831.154007 587.277154 
L 836.133686 592.669737 
L 841.113366 600.213472 
L 846.093045 601.430479 
L 851.072724 596.99931 
L 856.052403 594.610746 
L 861.032082 595.828823 
L 866.011761 592.339819 
L 870.991441 586.358517 
L 875.97112 583.999897 
L 880.950799 584.798223 
L 885.930478 587.115671 
L 890.910157 588.155688 
L 895.889836 592.832825 
L 900.869515 600.906995 
L 905.849195 602.126676 
L 910.828874 600.025787 
L 915.808553 599.667529 
L 920.788232 599.109823 
L 925.767911 587.779784 
L 930.74759 587.246675 
L 935.727269 585.770867 
L 940.706949 585.15862 
L 945.686628 586.812488 
L 950.666307 587.864804 
L 955.645986 587.655196 
L 960.625665 594.26853 
L 965.605344 597.889608 
L 970.585023 604.901837 
L 975.564703 598.341441 
L 980.544382 595.763588 
L 985.524061 589.683364 
L 990.50374 584.735662 
L 995.483419 583.768366 
L 1000.463098 583.126175 
L 1005.442777 584.615886 
L 1010.422457 586.89323 
L 1015.402136 589.044381 
L 1020.381815 598.712532 
L 1025.361494 601.823493 
L 1030.341173 599.254731 
L 1035.320852 602.342165 
L 1040.300531 593.361121 
L 1045.280211 585.9516 
L 1050.25989 584.09561 
L 1055.239569 581.614541 
L 1060.219248 584.498784 
L 1065.198927 583.513307 
L 1070.178606 584.728711 
L 1075.158285 586.32376 
L 1080.137965 587.752514 
L 1085.117644 593.100181 
L 1090.097323 601.578594 
L 1095.077002 602.009039 
L 1100.056681 591.259164 
L 1105.03636 585.182682 
L 1110.016039 581.466425 
L 1114.995719 583.98332 
L 1119.975398 585.114239 
L 1119.975398 585.114239 
" style="fill:none;stroke:#0000ff;stroke-linecap:square;stroke-width:1.5;"/>
   </g>
   <g id="line2d_36">
    <defs>
     <path d="M 0 3 
C 0.795609 3 1.55874 2.683901 2.12132 2.12132 
C 2.683901 1.55874 3 0.795609 3 0 
C 3 -0.795609 2.683901 -1.55874 2.12132 -2.12132 
C 1.55874 -2.683901 0.795609 -3 0 -3 
C -0.795609 -3 -1.55874 -2.683901 -2.12132 -2.12132 
C -2.683901 -1.55874 -3 -0.795609 -3 0 
C -3 0.795609 -2.683901 1.55874 -2.12132 2.12132 
C -1.55874 2.683901 -0.795609 3 0 3 
z
" id="mc354e1acaf" style="stroke:#ff0000;"/>
    </defs>
    <g clip-path="url(#pa8b11f6e2c)">
     <use style="fill:#ff0000;stroke:#ff0000;" x="119.05989" xlink:href="#mc354e1acaf" y="639.849091"/>
     <use style="fill:#ff0000;stroke:#ff0000;" x="138.978606" xlink:href="#mc354e1acaf" y="639.849091"/>
     <use style="fill:#ff0000;stroke:#ff0000;" x="163.877002" xlink:href="#mc354e1acaf" y="639.849091"/>
     <use style="fill:#ff0000;stroke:#ff0000;" x="168.856681" xlink:href="#mc354e1acaf" y="639.849091"/>
     <use style="fill:#ff0000;stroke:#ff0000;" x="173.83636" xlink:href="#mc354e1acaf" y="639.849091"/>
     <use style="fill:#ff0000;stroke:#ff0000;" x="178.816039" xlink:href="#mc354e1acaf" y="639.849091"/>
     <use style="fill:#ff0000;stroke:#ff0000;" x="183.795719" xlink:href="#mc354e1acaf" y="639.849091"/>
     <use style="fill:#ff0000;stroke:#ff0000;" x="188.775398" xlink:href="#mc354e1acaf" y="639.849091"/>
     <use style="fill:#ff0000;stroke:#ff0000;" x="223.633152" xlink:href="#mc354e1acaf" y="639.849091"/>
     <use style="fill:#ff0000;stroke:#ff0000;" x="228.612831" xlink:href="#mc354e1acaf" y="639.849091"/>
     <use style="fill:#ff0000;stroke:#ff0000;" x="233.59251" xlink:href="#mc354e1acaf" y="639.849091"/>
     <use style="fill:#ff0000;stroke:#ff0000;" x="238.572189" xlink:href="#mc354e1acaf" y="639.849091"/>
     <use style="fill:#ff0000;stroke:#ff0000;" x="243.551868" xlink:href="#mc354e1acaf" y="639.849091"/>
     <use style="fill:#ff0000;stroke:#ff0000;" x="248.531547" xlink:href="#mc354e1acaf" y="639.849091"/>
     <use style="fill:#ff0000;stroke:#ff0000;" x="253.511227" xlink:href="#mc354e1acaf" y="639.849091"/>
     <use style="fill:#ff0000;stroke:#ff0000;" x="258.490906" xlink:href="#mc354e1acaf" y="639.849091"/>
     <use style="fill:#ff0000;stroke:#ff0000;" x="263.470585" xlink:href="#mc354e1acaf" y="639.849091"/>
     <use style="fill:#ff0000;stroke:#ff0000;" x="268.450264" xlink:href="#mc354e1acaf" y="639.849091"/>
     <use style="fill:#ff0000;stroke:#ff0000;" x="273.429943" xlink:href="#mc354e1acaf" y="639.849091"/>
     <use style="fill:#ff0000;stroke:#ff0000;" x="278.409622" xlink:href="#mc354e1acaf" y="639.849091"/>
     <use style="fill:#ff0000;stroke:#ff0000;" x="283.389301" xlink:href="#mc354e1acaf" y="639.849091"/>
     <use style="fill:#ff0000;stroke:#ff0000;" x="288.368981" xlink:href="#mc354e1acaf" y="639.849091"/>
     <use style="fill:#ff0000;stroke:#ff0000;" x="293.34866" xlink:href="#mc354e1acaf" y="639.849091"/>
     <use style="fill:#ff0000;stroke:#ff0000;" x="298.328339" xlink:href="#mc354e1acaf" y="639.849091"/>
     <use style="fill:#ff0000;stroke:#ff0000;" x="303.308018" xlink:href="#mc354e1acaf" y="639.849091"/>
     <use style="fill:#ff0000;stroke:#ff0000;" x="308.287697" xlink:href="#mc354e1acaf" y="639.849091"/>
     <use style="fill:#ff0000;stroke:#ff0000;" x="313.267376" xlink:href="#mc354e1acaf" y="639.849091"/>
     <use style="fill:#ff0000;stroke:#ff0000;" x="318.247055" xlink:href="#mc354e1acaf" y="639.849091"/>
     <use style="fill:#ff0000;stroke:#ff0000;" x="323.226735" xlink:href="#mc354e1acaf" y="639.849091"/>
     <use style="fill:#ff0000;stroke:#ff0000;" x="328.206414" xlink:href="#mc354e1acaf" y="639.849091"/>
     <use style="fill:#ff0000;stroke:#ff0000;" x="333.186093" xlink:href="#mc354e1acaf" y="639.849091"/>
     <use style="fill:#ff0000;stroke:#ff0000;" x="338.165772" xlink:href="#mc354e1acaf" y="639.849091"/>
     <use style="fill:#ff0000;stroke:#ff0000;" x="343.145451" xlink:href="#mc354e1acaf" y="639.849091"/>
     <use style="fill:#ff0000;stroke:#ff0000;" x="348.12513" xlink:href="#mc354e1acaf" y="639.849091"/>
     <use style="fill:#ff0000;stroke:#ff0000;" x="353.104809" xlink:href="#mc354e1acaf" y="639.849091"/>
     <use style="fill:#ff0000;stroke:#ff0000;" x="358.084489" xlink:href="#mc354e1acaf" y="639.849091"/>
     <use style="fill:#ff0000;stroke:#ff0000;" x="363.064168" xlink:href="#mc354e1acaf" y="639.849091"/>
     <use style="fill:#ff0000;stroke:#ff0000;" x="368.043847" xlink:href="#mc354e1acaf" y="639.849091"/>
     <use style="fill:#ff0000;stroke:#ff0000;" x="373.023526" xlink:href="#mc354e1acaf" y="639.849091"/>
     <use style="fill:#ff0000;stroke:#ff0000;" x="378.003205" xlink:href="#mc354e1acaf" y="639.849091"/>
     <use style="fill:#ff0000;stroke:#ff0000;" x="382.982884" xlink:href="#mc354e1acaf" y="639.849091"/>
     <use style="fill:#ff0000;stroke:#ff0000;" x="387.962564" xlink:href="#mc354e1acaf" y="639.849091"/>
     <use style="fill:#ff0000;stroke:#ff0000;" x="392.942243" xlink:href="#mc354e1acaf" y="639.849091"/>
     <use style="fill:#ff0000;stroke:#ff0000;" x="397.921922" xlink:href="#mc354e1acaf" y="639.849091"/>
     <use style="fill:#ff0000;stroke:#ff0000;" x="402.901601" xlink:href="#mc354e1acaf" y="639.849091"/>
     <use style="fill:#ff0000;stroke:#ff0000;" x="407.88128" xlink:href="#mc354e1acaf" y="639.849091"/>
     <use style="fill:#ff0000;stroke:#ff0000;" x="412.860959" xlink:href="#mc354e1acaf" y="639.849091"/>
     <use style="fill:#ff0000;stroke:#ff0000;" x="417.840638" xlink:href="#mc354e1acaf" y="639.849091"/>
     <use style="fill:#ff0000;stroke:#ff0000;" x="422.820318" xlink:href="#mc354e1acaf" y="639.849091"/>
     <use style="fill:#ff0000;stroke:#ff0000;" x="427.799997" xlink:href="#mc354e1acaf" y="639.849091"/>
     <use style="fill:#ff0000;stroke:#ff0000;" x="457.678072" xlink:href="#mc354e1acaf" y="639.849091"/>
     <use style="fill:#ff0000;stroke:#ff0000;" x="472.617109" xlink:href="#mc354e1acaf" y="639.849091"/>
     <use style="fill:#ff0000;stroke:#ff0000;" x="477.596788" xlink:href="#mc354e1acaf" y="639.849091"/>
     <use style="fill:#ff0000;stroke:#ff0000;" x="482.576467" xlink:href="#mc354e1acaf" y="639.849091"/>
     <use style="fill:#ff0000;stroke:#ff0000;" x="517.434221" xlink:href="#mc354e1acaf" y="639.849091"/>
     <use style="fill:#ff0000;stroke:#ff0000;" x="522.4139" xlink:href="#mc354e1acaf" y="639.849091"/>
     <use style="fill:#ff0000;stroke:#ff0000;" x="592.129408" xlink:href="#mc354e1acaf" y="639.849091"/>
     <use style="fill:#ff0000;stroke:#ff0000;" x="597.109088" xlink:href="#mc354e1acaf" y="639.849091"/>
     <use style="fill:#ff0000;stroke:#ff0000;" x="602.088767" xlink:href="#mc354e1acaf" y="639.849091"/>
     <use style="fill:#ff0000;stroke:#ff0000;" x="631.966842" xlink:href="#mc354e1acaf" y="639.849091"/>
     <use style="fill:#ff0000;stroke:#ff0000;" x="656.865237" xlink:href="#mc354e1acaf" y="639.849091"/>
     <use style="fill:#ff0000;stroke:#ff0000;" x="661.844916" xlink:href="#mc354e1acaf" y="639.849091"/>
     <use style="fill:#ff0000;stroke:#ff0000;" x="691.722991" xlink:href="#mc354e1acaf" y="639.849091"/>
     <use style="fill:#ff0000;stroke:#ff0000;" x="721.601066" xlink:href="#mc354e1acaf" y="639.849091"/>
     <use style="fill:#ff0000;stroke:#ff0000;" x="726.580745" xlink:href="#mc354e1acaf" y="639.849091"/>
     <use style="fill:#ff0000;stroke:#ff0000;" x="731.560424" xlink:href="#mc354e1acaf" y="639.849091"/>
     <use style="fill:#ff0000;stroke:#ff0000;" x="736.540104" xlink:href="#mc354e1acaf" y="639.849091"/>
     <use style="fill:#ff0000;stroke:#ff0000;" x="741.519783" xlink:href="#mc354e1acaf" y="639.849091"/>
     <use style="fill:#ff0000;stroke:#ff0000;" x="746.499462" xlink:href="#mc354e1acaf" y="639.849091"/>
     <use style="fill:#ff0000;stroke:#ff0000;" x="751.479141" xlink:href="#mc354e1acaf" y="639.849091"/>
     <use style="fill:#ff0000;stroke:#ff0000;" x="756.45882" xlink:href="#mc354e1acaf" y="639.849091"/>
     <use style="fill:#ff0000;stroke:#ff0000;" x="761.438499" xlink:href="#mc354e1acaf" y="639.849091"/>
     <use style="fill:#ff0000;stroke:#ff0000;" x="766.418178" xlink:href="#mc354e1acaf" y="639.849091"/>
     <use style="fill:#ff0000;stroke:#ff0000;" x="771.397858" xlink:href="#mc354e1acaf" y="639.849091"/>
     <use style="fill:#ff0000;stroke:#ff0000;" x="776.377537" xlink:href="#mc354e1acaf" y="639.849091"/>
     <use style="fill:#ff0000;stroke:#ff0000;" x="781.357216" xlink:href="#mc354e1acaf" y="639.849091"/>
     <use style="fill:#ff0000;stroke:#ff0000;" x="786.336895" xlink:href="#mc354e1acaf" y="639.849091"/>
     <use style="fill:#ff0000;stroke:#ff0000;" x="791.316574" xlink:href="#mc354e1acaf" y="639.849091"/>
     <use style="fill:#ff0000;stroke:#ff0000;" x="796.296253" xlink:href="#mc354e1acaf" y="639.849091"/>
     <use style="fill:#ff0000;stroke:#ff0000;" x="836.133686" xlink:href="#mc354e1acaf" y="639.849091"/>
     <use style="fill:#ff0000;stroke:#ff0000;" x="890.910157" xlink:href="#mc354e1acaf" y="639.849091"/>
     <use style="fill:#ff0000;stroke:#ff0000;" x="970.585023" xlink:href="#mc354e1acaf" y="639.849091"/>
     <use style="fill:#ff0000;stroke:#ff0000;" x="985.524061" xlink:href="#mc354e1acaf" y="639.849091"/>
     <use style="fill:#ff0000;stroke:#ff0000;" x="990.50374" xlink:href="#mc354e1acaf" y="639.849091"/>
     <use style="fill:#ff0000;stroke:#ff0000;" x="995.483419" xlink:href="#mc354e1acaf" y="639.849091"/>
     <use style="fill:#ff0000;stroke:#ff0000;" x="1000.463098" xlink:href="#mc354e1acaf" y="639.849091"/>
     <use style="fill:#ff0000;stroke:#ff0000;" x="1005.442777" xlink:href="#mc354e1acaf" y="639.849091"/>
     <use style="fill:#ff0000;stroke:#ff0000;" x="1010.422457" xlink:href="#mc354e1acaf" y="639.849091"/>
     <use style="fill:#ff0000;stroke:#ff0000;" x="1015.402136" xlink:href="#mc354e1acaf" y="639.849091"/>
     <use style="fill:#ff0000;stroke:#ff0000;" x="1020.381815" xlink:href="#mc354e1acaf" y="639.849091"/>
     <use style="fill:#ff0000;stroke:#ff0000;" x="1025.361494" xlink:href="#mc354e1acaf" y="639.849091"/>
     <use style="fill:#ff0000;stroke:#ff0000;" x="1030.341173" xlink:href="#mc354e1acaf" y="639.849091"/>
     <use style="fill:#ff0000;stroke:#ff0000;" x="1035.320852" xlink:href="#mc354e1acaf" y="639.849091"/>
     <use style="fill:#ff0000;stroke:#ff0000;" x="1040.300531" xlink:href="#mc354e1acaf" y="639.849091"/>
     <use style="fill:#ff0000;stroke:#ff0000;" x="1045.280211" xlink:href="#mc354e1acaf" y="639.849091"/>
     <use style="fill:#ff0000;stroke:#ff0000;" x="1050.25989" xlink:href="#mc354e1acaf" y="639.849091"/>
     <use style="fill:#ff0000;stroke:#ff0000;" x="1055.239569" xlink:href="#mc354e1acaf" y="639.849091"/>
     <use style="fill:#ff0000;stroke:#ff0000;" x="1060.219248" xlink:href="#mc354e1acaf" y="639.849091"/>
    </g>
   </g>
   <g id="patch_9">
    <path d="M 53.328125 645.74 
L 53.328125 516.14 
" style="fill:none;stroke:#000000;stroke-linecap:square;stroke-linejoin:miter;stroke-width:0.8;"/>
   </g>
   <g id="patch_10">
    <path d="M 1170.768125 645.74 
L 1170.768125 516.14 
" style="fill:none;stroke:#000000;stroke-linecap:square;stroke-linejoin:miter;stroke-width:0.8;"/>
   </g>
   <g id="patch_11">
    <path d="M 53.328125 645.74 
L 1170.768125 645.74 
" style="fill:none;stroke:#000000;stroke-linecap:square;stroke-linejoin:miter;stroke-width:0.8;"/>
   </g>
   <g id="patch_12">
    <path d="M 53.328125 516.14 
L 1170.768125 516.14 
" style="fill:none;stroke:#000000;stroke-linecap:square;stroke-linejoin:miter;stroke-width:0.8;"/>
   </g>
   <g id="legend_2">
    <g id="patch_13">
     <path d="M 60.328125 582.8525 
L 151.340625 582.8525 
Q 153.340625 582.8525 153.340625 580.8525 
L 153.340625 523.14 
Q 153.340625 521.14 151.340625 521.14 
L 60.328125 521.14 
Q 58.328125 521.14 58.328125 523.14 
L 58.328125 580.8525 
Q 58.328125 582.8525 60.328125 582.8525 
z
" style="fill:#ffffff;opacity:0.8;stroke:#cccccc;stroke-linejoin:miter;"/>
    </g>
    <g id="line2d_37">
     <path d="M 62.328125 529.238437 
L 82.328125 529.238437 
" style="fill:none;stroke:#ff0000;stroke-linecap:square;stroke-width:1.5;"/>
    </g>
    <g id="line2d_38"/>
    <g id="text_30">
     <!-- Maxmimum -->
     <defs>
      <path d="M 9.8125 72.90625 
L 24.515625 72.90625 
L 43.109375 23.296875 
L 61.8125 72.90625 
L 76.515625 72.90625 
L 76.515625 0 
L 66.890625 0 
L 66.890625 64.015625 
L 48.09375 14.015625 
L 38.1875 14.015625 
L 19.390625 64.015625 
L 19.390625 0 
L 9.8125 0 
z
" id="DejaVuSans-4d"/>
      <path d="M 54.890625 54.6875 
L 35.109375 28.078125 
L 55.90625 0 
L 45.3125 0 
L 29.390625 21.484375 
L 13.484375 0 
L 2.875 0 
L 24.125 28.609375 
L 4.6875 54.6875 
L 15.28125 54.6875 
L 29.78125 35.203125 
L 44.28125 54.6875 
z
" id="DejaVuSans-78"/>
     </defs>
     <g transform="translate(90.328125 532.738437)scale(0.1 -0.1)">
      <use xlink:href="#DejaVuSans-4d"/>
      <use x="86.279297" xlink:href="#DejaVuSans-61"/>
      <use x="147.558594" xlink:href="#DejaVuSans-78"/>
      <use x="206.738281" xlink:href="#DejaVuSans-6d"/>
      <use x="304.150391" xlink:href="#DejaVuSans-69"/>
      <use x="331.933594" xlink:href="#DejaVuSans-6d"/>
      <use x="429.345703" xlink:href="#DejaVuSans-75"/>
      <use x="492.724609" xlink:href="#DejaVuSans-6d"/>
     </g>
    </g>
    <g id="line2d_39">
     <path d="M 62.328125 543.916562 
L 82.328125 543.916562 
" style="fill:none;stroke:#008000;stroke-linecap:square;stroke-width:1.5;"/>
    </g>
    <g id="line2d_40"/>
    <g id="text_31">
     <!-- Average -->
     <defs>
      <path d="M 34.1875 63.1875 
L 20.796875 26.90625 
L 47.609375 26.90625 
z
M 28.609375 72.90625 
L 39.796875 72.90625 
L 67.578125 0 
L 57.328125 0 
L 50.6875 18.703125 
L 17.828125 18.703125 
L 11.1875 0 
L 0.78125 0 
z
" id="DejaVuSans-41"/>
      <path d="M 2.984375 54.6875 
L 12.5 54.6875 
L 29.59375 8.796875 
L 46.6875 54.6875 
L 56.203125 54.6875 
L 35.6875 0 
L 23.484375 0 
z
" id="DejaVuSans-76"/>
     </defs>
     <g transform="translate(90.328125 547.416562)scale(0.1 -0.1)">
      <use xlink:href="#DejaVuSans-41"/>
      <use x="68.330078" xlink:href="#DejaVuSans-76"/>
      <use x="127.509766" xlink:href="#DejaVuSans-65"/>
      <use x="189.033203" xlink:href="#DejaVuSans-72"/>
      <use x="230.146484" xlink:href="#DejaVuSans-61"/>
      <use x="291.425781" xlink:href="#DejaVuSans-67"/>
      <use x="354.902344" xlink:href="#DejaVuSans-65"/>
     </g>
    </g>
    <g id="line2d_41">
     <path d="M 62.328125 558.594687 
L 82.328125 558.594687 
" style="fill:none;stroke:#0000ff;stroke-linecap:square;stroke-width:1.5;"/>
    </g>
    <g id="line2d_42"/>
    <g id="text_32">
     <!-- Minimum -->
     <g transform="translate(90.328125 562.094687)scale(0.1 -0.1)">
      <use xlink:href="#DejaVuSans-4d"/>
      <use x="86.279297" xlink:href="#DejaVuSans-69"/>
      <use x="114.0625" xlink:href="#DejaVuSans-6e"/>
      <use x="177.441406" xlink:href="#DejaVuSans-69"/>
      <use x="205.224609" xlink:href="#DejaVuSans-6d"/>
      <use x="302.636719" xlink:href="#DejaVuSans-75"/>
      <use x="366.015625" xlink:href="#DejaVuSans-6d"/>
     </g>
    </g>
    <g id="line2d_43"/>
    <g id="line2d_44">
     <g>
      <use style="fill:#ff0000;stroke:#ff0000;" x="72.328125" xlink:href="#mc354e1acaf" y="573.272812"/>
     </g>
    </g>
    <g id="text_33">
     <!-- Disasters -->
     <g transform="translate(90.328125 576.772812)scale(0.1 -0.1)">
      <use xlink:href="#DejaVuSans-44"/>
      <use x="77.001953" xlink:href="#DejaVuSans-69"/>
      <use x="104.785156" xlink:href="#DejaVuSans-73"/>
      <use x="156.884766" xlink:href="#DejaVuSans-61"/>
      <use x="218.164062" xlink:href="#DejaVuSans-73"/>
      <use x="270.263672" xlink:href="#DejaVuSans-74"/>
      <use x="309.472656" xlink:href="#DejaVuSans-65"/>
      <use x="370.996094" xlink:href="#DejaVuSans-72"/>
      <use x="412.109375" xlink:href="#DejaVuSans-73"/>
     </g>
    </g>
   </g>
  </g>
 </g>
 <defs>
  <clipPath id="pf07b5d4c2c">
   <rect height="498.96" width="1116" x="53.328125" y="10.7"/>
  </clipPath>
  <clipPath id="pa8b11f6e2c">
   <rect height="129.6" width="1117.44" x="53.328125" y="516.14"/>
  </clipPath>
 </defs>
</svg>
