<?xml version="1.0" encoding="utf-8" standalone="no"?>
<!DOCTYPE svg PUBLIC "-//W3C//DTD SVG 1.1//EN"
  "http://www.w3.org/Graphics/SVG/1.1/DTD/svg11.dtd">
<!-- Created with matplotlib (http://matplotlib.org/) -->
<svg height="669pt" version="1.1" viewBox="0 0 1181 669" width="1181pt" xmlns="http://www.w3.org/2000/svg" xmlns:xlink="http://www.w3.org/1999/xlink">
 <defs>
  <style type="text/css">
*{stroke-linecap:butt;stroke-linejoin:round;}
  </style>
 </defs>
 <g id="figure_1">
  <g id="patch_1">
   <path d="M 0 669.618125 
L 1181.468125 669.618125 
L 1181.468125 -0 
L 0 -0 
z
" style="fill:none;"/>
  </g>
  <g id="axes_1">
   <g id="patch_2">
    <path d="M 53.328125 509.66 
L 1169.328125 509.66 
L 1169.328125 10.7 
L 53.328125 10.7 
z
" style="fill:none;"/>
   </g>
   <g id="matplotlib.axis_1">
    <g id="xtick_1">
     <g id="line2d_1">
      <defs>
       <path d="M 0 0 
L 0 3.5 
" id="m7e13a1c14d" style="stroke:#000000;stroke-width:0.8;"/>
      </defs>
      <g>
       <use style="stroke:#000000;stroke-width:0.8;" x="104.055398" xlink:href="#m7e13a1c14d" y="509.66"/>
      </g>
     </g>
     <g id="text_1">
      <!-- 0 -->
      <defs>
       <path d="M 31.78125 66.40625 
Q 24.171875 66.40625 20.328125 58.90625 
Q 16.5 51.421875 16.5 36.375 
Q 16.5 21.390625 20.328125 13.890625 
Q 24.171875 6.390625 31.78125 6.390625 
Q 39.453125 6.390625 43.28125 13.890625 
Q 47.125 21.390625 47.125 36.375 
Q 47.125 51.421875 43.28125 58.90625 
Q 39.453125 66.40625 31.78125 66.40625 
z
M 31.78125 74.21875 
Q 44.046875 74.21875 50.515625 64.515625 
Q 56.984375 54.828125 56.984375 36.375 
Q 56.984375 17.96875 50.515625 8.265625 
Q 44.046875 -1.421875 31.78125 -1.421875 
Q 19.53125 -1.421875 13.0625 8.265625 
Q 6.59375 17.96875 6.59375 36.375 
Q 6.59375 54.828125 13.0625 64.515625 
Q 19.53125 74.21875 31.78125 74.21875 
z
" id="DejaVuSans-30"/>
      </defs>
      <g transform="translate(100.874148 524.258437)scale(0.1 -0.1)">
       <use xlink:href="#DejaVuSans-30"/>
      </g>
     </g>
    </g>
    <g id="xtick_2">
     <g id="line2d_2">
      <g>
       <use style="stroke:#000000;stroke-width:0.8;" x="346.769621" xlink:href="#m7e13a1c14d" y="509.66"/>
      </g>
     </g>
     <g id="text_2">
      <!-- 50 -->
      <defs>
       <path d="M 10.796875 72.90625 
L 49.515625 72.90625 
L 49.515625 64.59375 
L 19.828125 64.59375 
L 19.828125 46.734375 
Q 21.96875 47.46875 24.109375 47.828125 
Q 26.265625 48.1875 28.421875 48.1875 
Q 40.625 48.1875 47.75 41.5 
Q 54.890625 34.8125 54.890625 23.390625 
Q 54.890625 11.625 47.5625 5.09375 
Q 40.234375 -1.421875 26.90625 -1.421875 
Q 22.3125 -1.421875 17.546875 -0.640625 
Q 12.796875 0.140625 7.71875 1.703125 
L 7.71875 11.625 
Q 12.109375 9.234375 16.796875 8.0625 
Q 21.484375 6.890625 26.703125 6.890625 
Q 35.15625 6.890625 40.078125 11.328125 
Q 45.015625 15.765625 45.015625 23.390625 
Q 45.015625 31 40.078125 35.4375 
Q 35.15625 39.890625 26.703125 39.890625 
Q 22.75 39.890625 18.8125 39.015625 
Q 14.890625 38.140625 10.796875 36.28125 
z
" id="DejaVuSans-35"/>
      </defs>
      <g transform="translate(340.407121 524.258437)scale(0.1 -0.1)">
       <use xlink:href="#DejaVuSans-35"/>
       <use x="63.623047" xlink:href="#DejaVuSans-30"/>
      </g>
     </g>
    </g>
    <g id="xtick_3">
     <g id="line2d_3">
      <g>
       <use style="stroke:#000000;stroke-width:0.8;" x="589.483845" xlink:href="#m7e13a1c14d" y="509.66"/>
      </g>
     </g>
     <g id="text_3">
      <!-- 100 -->
      <defs>
       <path d="M 12.40625 8.296875 
L 28.515625 8.296875 
L 28.515625 63.921875 
L 10.984375 60.40625 
L 10.984375 69.390625 
L 28.421875 72.90625 
L 38.28125 72.90625 
L 38.28125 8.296875 
L 54.390625 8.296875 
L 54.390625 0 
L 12.40625 0 
z
" id="DejaVuSans-31"/>
      </defs>
      <g transform="translate(579.940095 524.258437)scale(0.1 -0.1)">
       <use xlink:href="#DejaVuSans-31"/>
       <use x="63.623047" xlink:href="#DejaVuSans-30"/>
       <use x="127.246094" xlink:href="#DejaVuSans-30"/>
      </g>
     </g>
    </g>
    <g id="xtick_4">
     <g id="line2d_4">
      <g>
       <use style="stroke:#000000;stroke-width:0.8;" x="832.198068" xlink:href="#m7e13a1c14d" y="509.66"/>
      </g>
     </g>
     <g id="text_4">
      <!-- 150 -->
      <g transform="translate(822.654318 524.258437)scale(0.1 -0.1)">
       <use xlink:href="#DejaVuSans-31"/>
       <use x="63.623047" xlink:href="#DejaVuSans-35"/>
       <use x="127.246094" xlink:href="#DejaVuSans-30"/>
      </g>
     </g>
    </g>
    <g id="xtick_5">
     <g id="line2d_5">
      <g>
       <use style="stroke:#000000;stroke-width:0.8;" x="1074.912292" xlink:href="#m7e13a1c14d" y="509.66"/>
      </g>
     </g>
     <g id="text_5">
      <!-- 200 -->
      <defs>
       <path d="M 19.1875 8.296875 
L 53.609375 8.296875 
L 53.609375 0 
L 7.328125 0 
L 7.328125 8.296875 
Q 12.9375 14.109375 22.625 23.890625 
Q 32.328125 33.6875 34.8125 36.53125 
Q 39.546875 41.84375 41.421875 45.53125 
Q 43.3125 49.21875 43.3125 52.78125 
Q 43.3125 58.59375 39.234375 62.25 
Q 35.15625 65.921875 28.609375 65.921875 
Q 23.96875 65.921875 18.8125 64.3125 
Q 13.671875 62.703125 7.8125 59.421875 
L 7.8125 69.390625 
Q 13.765625 71.78125 18.9375 73 
Q 24.125 74.21875 28.421875 74.21875 
Q 39.75 74.21875 46.484375 68.546875 
Q 53.21875 62.890625 53.21875 53.421875 
Q 53.21875 48.921875 51.53125 44.890625 
Q 49.859375 40.875 45.40625 35.40625 
Q 44.1875 33.984375 37.640625 27.21875 
Q 31.109375 20.453125 19.1875 8.296875 
z
" id="DejaVuSans-32"/>
      </defs>
      <g transform="translate(1065.368542 524.258437)scale(0.1 -0.1)">
       <use xlink:href="#DejaVuSans-32"/>
       <use x="63.623047" xlink:href="#DejaVuSans-30"/>
       <use x="127.246094" xlink:href="#DejaVuSans-30"/>
      </g>
     </g>
    </g>
    <g id="text_6">
     <!-- Time -->
     <defs>
      <path d="M -0.296875 72.90625 
L 61.375 72.90625 
L 61.375 64.59375 
L 35.5 64.59375 
L 35.5 0 
L 25.59375 0 
L 25.59375 64.59375 
L -0.296875 64.59375 
z
" id="DejaVuSans-54"/>
      <path d="M 9.421875 54.6875 
L 18.40625 54.6875 
L 18.40625 0 
L 9.421875 0 
z
M 9.421875 75.984375 
L 18.40625 75.984375 
L 18.40625 64.59375 
L 9.421875 64.59375 
z
" id="DejaVuSans-69"/>
      <path d="M 52 44.1875 
Q 55.375 50.25 60.0625 53.125 
Q 64.75 56 71.09375 56 
Q 79.640625 56 84.28125 50.015625 
Q 88.921875 44.046875 88.921875 33.015625 
L 88.921875 0 
L 79.890625 0 
L 79.890625 32.71875 
Q 79.890625 40.578125 77.09375 44.375 
Q 74.3125 48.1875 68.609375 48.1875 
Q 61.625 48.1875 57.5625 43.546875 
Q 53.515625 38.921875 53.515625 30.90625 
L 53.515625 0 
L 44.484375 0 
L 44.484375 32.71875 
Q 44.484375 40.625 41.703125 44.40625 
Q 38.921875 48.1875 33.109375 48.1875 
Q 26.21875 48.1875 22.15625 43.53125 
Q 18.109375 38.875 18.109375 30.90625 
L 18.109375 0 
L 9.078125 0 
L 9.078125 54.6875 
L 18.109375 54.6875 
L 18.109375 46.1875 
Q 21.1875 51.21875 25.484375 53.609375 
Q 29.78125 56 35.6875 56 
Q 41.65625 56 45.828125 52.96875 
Q 50 49.953125 52 44.1875 
z
" id="DejaVuSans-6d"/>
      <path d="M 56.203125 29.59375 
L 56.203125 25.203125 
L 14.890625 25.203125 
Q 15.484375 15.921875 20.484375 11.0625 
Q 25.484375 6.203125 34.421875 6.203125 
Q 39.59375 6.203125 44.453125 7.46875 
Q 49.3125 8.734375 54.109375 11.28125 
L 54.109375 2.78125 
Q 49.265625 0.734375 44.1875 -0.34375 
Q 39.109375 -1.421875 33.890625 -1.421875 
Q 20.796875 -1.421875 13.15625 6.1875 
Q 5.515625 13.8125 5.515625 26.8125 
Q 5.515625 40.234375 12.765625 48.109375 
Q 20.015625 56 32.328125 56 
Q 43.359375 56 49.78125 48.890625 
Q 56.203125 41.796875 56.203125 29.59375 
z
M 47.21875 32.234375 
Q 47.125 39.59375 43.09375 43.984375 
Q 39.0625 48.390625 32.421875 48.390625 
Q 24.90625 48.390625 20.390625 44.140625 
Q 15.875 39.890625 15.1875 32.171875 
z
" id="DejaVuSans-65"/>
     </defs>
     <g transform="translate(598.940625 537.936562)scale(0.1 -0.1)">
      <use xlink:href="#DejaVuSans-54"/>
      <use x="61.037109" xlink:href="#DejaVuSans-69"/>
      <use x="88.820312" xlink:href="#DejaVuSans-6d"/>
      <use x="186.232422" xlink:href="#DejaVuSans-65"/>
     </g>
    </g>
   </g>
   <g id="matplotlib.axis_2">
    <g id="ytick_1">
     <g id="line2d_6">
      <defs>
       <path d="M 0 0 
L -3.5 0 
" id="m0b3065361b" style="stroke:#000000;stroke-width:0.8;"/>
      </defs>
      <g>
       <use style="stroke:#000000;stroke-width:0.8;" x="53.328125" xlink:href="#m0b3065361b" y="454.881997"/>
      </g>
     </g>
     <g id="text_7">
      <!-- 400 -->
      <defs>
       <path d="M 37.796875 64.3125 
L 12.890625 25.390625 
L 37.796875 25.390625 
z
M 35.203125 72.90625 
L 47.609375 72.90625 
L 47.609375 25.390625 
L 58.015625 25.390625 
L 58.015625 17.1875 
L 47.609375 17.1875 
L 47.609375 0 
L 37.796875 0 
L 37.796875 17.1875 
L 4.890625 17.1875 
L 4.890625 26.703125 
z
" id="DejaVuSans-34"/>
      </defs>
      <g transform="translate(27.240625 458.681216)scale(0.1 -0.1)">
       <use xlink:href="#DejaVuSans-34"/>
       <use x="63.623047" xlink:href="#DejaVuSans-30"/>
       <use x="127.246094" xlink:href="#DejaVuSans-30"/>
      </g>
     </g>
    </g>
    <g id="ytick_2">
     <g id="line2d_7">
      <g>
       <use style="stroke:#000000;stroke-width:0.8;" x="53.328125" xlink:href="#m0b3065361b" y="391.593409"/>
      </g>
     </g>
     <g id="text_8">
      <!-- 600 -->
      <defs>
       <path d="M 33.015625 40.375 
Q 26.375 40.375 22.484375 35.828125 
Q 18.609375 31.296875 18.609375 23.390625 
Q 18.609375 15.53125 22.484375 10.953125 
Q 26.375 6.390625 33.015625 6.390625 
Q 39.65625 6.390625 43.53125 10.953125 
Q 47.40625 15.53125 47.40625 23.390625 
Q 47.40625 31.296875 43.53125 35.828125 
Q 39.65625 40.375 33.015625 40.375 
z
M 52.59375 71.296875 
L 52.59375 62.3125 
Q 48.875 64.0625 45.09375 64.984375 
Q 41.3125 65.921875 37.59375 65.921875 
Q 27.828125 65.921875 22.671875 59.328125 
Q 17.53125 52.734375 16.796875 39.40625 
Q 19.671875 43.65625 24.015625 45.921875 
Q 28.375 48.1875 33.59375 48.1875 
Q 44.578125 48.1875 50.953125 41.515625 
Q 57.328125 34.859375 57.328125 23.390625 
Q 57.328125 12.15625 50.6875 5.359375 
Q 44.046875 -1.421875 33.015625 -1.421875 
Q 20.359375 -1.421875 13.671875 8.265625 
Q 6.984375 17.96875 6.984375 36.375 
Q 6.984375 53.65625 15.1875 63.9375 
Q 23.390625 74.21875 37.203125 74.21875 
Q 40.921875 74.21875 44.703125 73.484375 
Q 48.484375 72.75 52.59375 71.296875 
z
" id="DejaVuSans-36"/>
      </defs>
      <g transform="translate(27.240625 395.392628)scale(0.1 -0.1)">
       <use xlink:href="#DejaVuSans-36"/>
       <use x="63.623047" xlink:href="#DejaVuSans-30"/>
       <use x="127.246094" xlink:href="#DejaVuSans-30"/>
      </g>
     </g>
    </g>
    <g id="ytick_3">
     <g id="line2d_8">
      <g>
       <use style="stroke:#000000;stroke-width:0.8;" x="53.328125" xlink:href="#m0b3065361b" y="328.304821"/>
      </g>
     </g>
     <g id="text_9">
      <!-- 800 -->
      <defs>
       <path d="M 31.78125 34.625 
Q 24.75 34.625 20.71875 30.859375 
Q 16.703125 27.09375 16.703125 20.515625 
Q 16.703125 13.921875 20.71875 10.15625 
Q 24.75 6.390625 31.78125 6.390625 
Q 38.8125 6.390625 42.859375 10.171875 
Q 46.921875 13.96875 46.921875 20.515625 
Q 46.921875 27.09375 42.890625 30.859375 
Q 38.875 34.625 31.78125 34.625 
z
M 21.921875 38.8125 
Q 15.578125 40.375 12.03125 44.71875 
Q 8.5 49.078125 8.5 55.328125 
Q 8.5 64.0625 14.71875 69.140625 
Q 20.953125 74.21875 31.78125 74.21875 
Q 42.671875 74.21875 48.875 69.140625 
Q 55.078125 64.0625 55.078125 55.328125 
Q 55.078125 49.078125 51.53125 44.71875 
Q 48 40.375 41.703125 38.8125 
Q 48.828125 37.15625 52.796875 32.3125 
Q 56.78125 27.484375 56.78125 20.515625 
Q 56.78125 9.90625 50.3125 4.234375 
Q 43.84375 -1.421875 31.78125 -1.421875 
Q 19.734375 -1.421875 13.25 4.234375 
Q 6.78125 9.90625 6.78125 20.515625 
Q 6.78125 27.484375 10.78125 32.3125 
Q 14.796875 37.15625 21.921875 38.8125 
z
M 18.3125 54.390625 
Q 18.3125 48.734375 21.84375 45.5625 
Q 25.390625 42.390625 31.78125 42.390625 
Q 38.140625 42.390625 41.71875 45.5625 
Q 45.3125 48.734375 45.3125 54.390625 
Q 45.3125 60.0625 41.71875 63.234375 
Q 38.140625 66.40625 31.78125 66.40625 
Q 25.390625 66.40625 21.84375 63.234375 
Q 18.3125 60.0625 18.3125 54.390625 
z
" id="DejaVuSans-38"/>
      </defs>
      <g transform="translate(27.240625 332.10404)scale(0.1 -0.1)">
       <use xlink:href="#DejaVuSans-38"/>
       <use x="63.623047" xlink:href="#DejaVuSans-30"/>
       <use x="127.246094" xlink:href="#DejaVuSans-30"/>
      </g>
     </g>
    </g>
    <g id="ytick_4">
     <g id="line2d_9">
      <g>
       <use style="stroke:#000000;stroke-width:0.8;" x="53.328125" xlink:href="#m0b3065361b" y="265.016233"/>
      </g>
     </g>
     <g id="text_10">
      <!-- 1000 -->
      <g transform="translate(20.878125 268.815452)scale(0.1 -0.1)">
       <use xlink:href="#DejaVuSans-31"/>
       <use x="63.623047" xlink:href="#DejaVuSans-30"/>
       <use x="127.246094" xlink:href="#DejaVuSans-30"/>
       <use x="190.869141" xlink:href="#DejaVuSans-30"/>
      </g>
     </g>
    </g>
    <g id="ytick_5">
     <g id="line2d_10">
      <g>
       <use style="stroke:#000000;stroke-width:0.8;" x="53.328125" xlink:href="#m0b3065361b" y="201.727645"/>
      </g>
     </g>
     <g id="text_11">
      <!-- 1200 -->
      <g transform="translate(20.878125 205.526863)scale(0.1 -0.1)">
       <use xlink:href="#DejaVuSans-31"/>
       <use x="63.623047" xlink:href="#DejaVuSans-32"/>
       <use x="127.246094" xlink:href="#DejaVuSans-30"/>
       <use x="190.869141" xlink:href="#DejaVuSans-30"/>
      </g>
     </g>
    </g>
    <g id="ytick_6">
     <g id="line2d_11">
      <g>
       <use style="stroke:#000000;stroke-width:0.8;" x="53.328125" xlink:href="#m0b3065361b" y="138.439056"/>
      </g>
     </g>
     <g id="text_12">
      <!-- 1400 -->
      <g transform="translate(20.878125 142.238275)scale(0.1 -0.1)">
       <use xlink:href="#DejaVuSans-31"/>
       <use x="63.623047" xlink:href="#DejaVuSans-34"/>
       <use x="127.246094" xlink:href="#DejaVuSans-30"/>
       <use x="190.869141" xlink:href="#DejaVuSans-30"/>
      </g>
     </g>
    </g>
    <g id="ytick_7">
     <g id="line2d_12">
      <g>
       <use style="stroke:#000000;stroke-width:0.8;" x="53.328125" xlink:href="#m0b3065361b" y="75.150468"/>
      </g>
     </g>
     <g id="text_13">
      <!-- 1600 -->
      <g transform="translate(20.878125 78.949687)scale(0.1 -0.1)">
       <use xlink:href="#DejaVuSans-31"/>
       <use x="63.623047" xlink:href="#DejaVuSans-36"/>
       <use x="127.246094" xlink:href="#DejaVuSans-30"/>
       <use x="190.869141" xlink:href="#DejaVuSans-30"/>
      </g>
     </g>
    </g>
    <g id="ytick_8">
     <g id="line2d_13">
      <g>
       <use style="stroke:#000000;stroke-width:0.8;" x="53.328125" xlink:href="#m0b3065361b" y="11.86188"/>
      </g>
     </g>
     <g id="text_14">
      <!-- 1800 -->
      <g transform="translate(20.878125 15.661099)scale(0.1 -0.1)">
       <use xlink:href="#DejaVuSans-31"/>
       <use x="63.623047" xlink:href="#DejaVuSans-38"/>
       <use x="127.246094" xlink:href="#DejaVuSans-30"/>
       <use x="190.869141" xlink:href="#DejaVuSans-30"/>
      </g>
     </g>
    </g>
    <g id="text_15">
     <!-- Refugees -->
     <defs>
      <path d="M 44.390625 34.1875 
Q 47.5625 33.109375 50.5625 29.59375 
Q 53.5625 26.078125 56.59375 19.921875 
L 66.609375 0 
L 56 0 
L 46.6875 18.703125 
Q 43.0625 26.03125 39.671875 28.421875 
Q 36.28125 30.8125 30.421875 30.8125 
L 19.671875 30.8125 
L 19.671875 0 
L 9.8125 0 
L 9.8125 72.90625 
L 32.078125 72.90625 
Q 44.578125 72.90625 50.734375 67.671875 
Q 56.890625 62.453125 56.890625 51.90625 
Q 56.890625 45.015625 53.6875 40.46875 
Q 50.484375 35.9375 44.390625 34.1875 
z
M 19.671875 64.796875 
L 19.671875 38.921875 
L 32.078125 38.921875 
Q 39.203125 38.921875 42.84375 42.21875 
Q 46.484375 45.515625 46.484375 51.90625 
Q 46.484375 58.296875 42.84375 61.546875 
Q 39.203125 64.796875 32.078125 64.796875 
z
" id="DejaVuSans-52"/>
      <path d="M 37.109375 75.984375 
L 37.109375 68.5 
L 28.515625 68.5 
Q 23.6875 68.5 21.796875 66.546875 
Q 19.921875 64.59375 19.921875 59.515625 
L 19.921875 54.6875 
L 34.71875 54.6875 
L 34.71875 47.703125 
L 19.921875 47.703125 
L 19.921875 0 
L 10.890625 0 
L 10.890625 47.703125 
L 2.296875 47.703125 
L 2.296875 54.6875 
L 10.890625 54.6875 
L 10.890625 58.5 
Q 10.890625 67.625 15.140625 71.796875 
Q 19.390625 75.984375 28.609375 75.984375 
z
" id="DejaVuSans-66"/>
      <path d="M 8.5 21.578125 
L 8.5 54.6875 
L 17.484375 54.6875 
L 17.484375 21.921875 
Q 17.484375 14.15625 20.5 10.265625 
Q 23.53125 6.390625 29.59375 6.390625 
Q 36.859375 6.390625 41.078125 11.03125 
Q 45.3125 15.671875 45.3125 23.6875 
L 45.3125 54.6875 
L 54.296875 54.6875 
L 54.296875 0 
L 45.3125 0 
L 45.3125 8.40625 
Q 42.046875 3.421875 37.71875 1 
Q 33.40625 -1.421875 27.6875 -1.421875 
Q 18.265625 -1.421875 13.375 4.4375 
Q 8.5 10.296875 8.5 21.578125 
z
M 31.109375 56 
z
" id="DejaVuSans-75"/>
      <path d="M 45.40625 27.984375 
Q 45.40625 37.75 41.375 43.109375 
Q 37.359375 48.484375 30.078125 48.484375 
Q 22.859375 48.484375 18.828125 43.109375 
Q 14.796875 37.75 14.796875 27.984375 
Q 14.796875 18.265625 18.828125 12.890625 
Q 22.859375 7.515625 30.078125 7.515625 
Q 37.359375 7.515625 41.375 12.890625 
Q 45.40625 18.265625 45.40625 27.984375 
z
M 54.390625 6.78125 
Q 54.390625 -7.171875 48.1875 -13.984375 
Q 42 -20.796875 29.203125 -20.796875 
Q 24.46875 -20.796875 20.265625 -20.09375 
Q 16.0625 -19.390625 12.109375 -17.921875 
L 12.109375 -9.1875 
Q 16.0625 -11.328125 19.921875 -12.34375 
Q 23.78125 -13.375 27.78125 -13.375 
Q 36.625 -13.375 41.015625 -8.765625 
Q 45.40625 -4.15625 45.40625 5.171875 
L 45.40625 9.625 
Q 42.625 4.78125 38.28125 2.390625 
Q 33.9375 0 27.875 0 
Q 17.828125 0 11.671875 7.65625 
Q 5.515625 15.328125 5.515625 27.984375 
Q 5.515625 40.671875 11.671875 48.328125 
Q 17.828125 56 27.875 56 
Q 33.9375 56 38.28125 53.609375 
Q 42.625 51.21875 45.40625 46.390625 
L 45.40625 54.6875 
L 54.390625 54.6875 
z
" id="DejaVuSans-67"/>
      <path d="M 44.28125 53.078125 
L 44.28125 44.578125 
Q 40.484375 46.53125 36.375 47.5 
Q 32.28125 48.484375 27.875 48.484375 
Q 21.1875 48.484375 17.84375 46.4375 
Q 14.5 44.390625 14.5 40.28125 
Q 14.5 37.15625 16.890625 35.375 
Q 19.28125 33.59375 26.515625 31.984375 
L 29.59375 31.296875 
Q 39.15625 29.25 43.1875 25.515625 
Q 47.21875 21.78125 47.21875 15.09375 
Q 47.21875 7.46875 41.1875 3.015625 
Q 35.15625 -1.421875 24.609375 -1.421875 
Q 20.21875 -1.421875 15.453125 -0.5625 
Q 10.6875 0.296875 5.421875 2 
L 5.421875 11.28125 
Q 10.40625 8.6875 15.234375 7.390625 
Q 20.0625 6.109375 24.8125 6.109375 
Q 31.15625 6.109375 34.5625 8.28125 
Q 37.984375 10.453125 37.984375 14.40625 
Q 37.984375 18.0625 35.515625 20.015625 
Q 33.0625 21.96875 24.703125 23.78125 
L 21.578125 24.515625 
Q 13.234375 26.265625 9.515625 29.90625 
Q 5.8125 33.546875 5.8125 39.890625 
Q 5.8125 47.609375 11.28125 51.796875 
Q 16.75 56 26.8125 56 
Q 31.78125 56 36.171875 55.265625 
Q 40.578125 54.546875 44.28125 53.078125 
z
" id="DejaVuSans-73"/>
     </defs>
     <g style="fill:#ff7f0e;" transform="translate(14.798437 283.588594)rotate(-90)scale(0.1 -0.1)">
      <use xlink:href="#DejaVuSans-52"/>
      <use x="69.419922" xlink:href="#DejaVuSans-65"/>
      <use x="130.943359" xlink:href="#DejaVuSans-66"/>
      <use x="166.148438" xlink:href="#DejaVuSans-75"/>
      <use x="229.527344" xlink:href="#DejaVuSans-67"/>
      <use x="293.003906" xlink:href="#DejaVuSans-65"/>
      <use x="354.527344" xlink:href="#DejaVuSans-65"/>
      <use x="416.050781" xlink:href="#DejaVuSans-73"/>
     </g>
    </g>
   </g>
   <g id="line2d_14">
    <path clip-path="url(#pbb81593133)" d="M 104.055398 321.12585 
L 108.909682 309.766255 
L 113.763967 324.66706 
L 118.618251 345.52819 
L 123.472536 363.723427 
L 128.32682 376.373979 
L 133.181105 349.320039 
L 138.035389 334.949736 
L 142.889673 310.549289 
L 147.743958 277.829429 
L 152.598242 255.324086 
L 157.452527 238.703492 
L 162.306811 173.4252 
L 167.161096 208.831503 
L 172.01538 246.51815 
L 176.869665 259.91556 
L 181.723949 260.233394 
L 186.578234 251.890302 
L 191.432518 180.573094 
L 196.286803 186.287493 
L 201.141087 196.930938 
L 205.995372 193.898463 
L 210.849656 191.851434 
L 215.703941 184.444769 
L 220.558225 159.114346 
L 225.41251 170.427838 
L 230.266794 188.916959 
L 235.121078 189.838359 
L 239.975363 188.789408 
L 244.829647 183.575864 
L 249.683932 251.51047 
L 254.538216 266.658823 
L 259.392501 276.728426 
L 264.246785 271.430093 
L 269.10107 263.115219 
L 273.955354 248.966024 
L 278.809639 137.678543 
L 283.663923 128.476396 
L 288.518208 116.573745 
L 293.372492 88.241982 
L 298.226777 69.244705 
L 303.081061 53.740894 
L 307.935346 139.55974 
L 312.78963 188.220452 
L 317.643914 221.739454 
L 322.498199 223.035511 
L 327.352483 207.300741 
L 332.206768 181.282425 
L 337.061052 136.482379 
L 341.915337 172.029482 
L 346.769621 209.75159 
L 351.623906 223.461349 
L 356.47819 224.730327 
L 361.332475 214.992135 
L 366.186759 231.47135 
L 371.041044 245.860426 
L 375.895328 249.397077 
L 380.749613 229.348107 
L 385.603897 206.679791 
L 390.458182 187.272475 
L 395.312466 201.297055 
L 400.16675 262.231288 
L 405.021035 327.1345 
L 409.875319 363.094346 
L 414.729604 372.693553 
L 419.583888 366.193474 
L 424.438173 344.436149 
L 429.292457 344.398602 
L 434.146742 355.159651 
L 439.001026 362.560503 
L 443.855311 359.899053 
L 448.709595 356.970488 
L 453.56388 396.122228 
L 458.418164 405.417238 
L 463.272449 421.877698 
L 468.126733 433.387354 
L 472.981018 435.985096 
L 477.835302 434.144777 
L 482.689587 377.973635 
L 487.543871 406.832404 
L 492.398155 425.921307 
L 497.25244 426.280994 
L 502.106724 414.896291 
L 506.961009 399.043396 
L 511.815293 378.736022 
L 516.669578 425.385175 
L 521.523862 464.777561 
L 526.378147 480.698413 
L 531.232431 475.542705 
L 536.086716 461.89956 
L 540.941 396.328986 
L 545.795285 388.332119 
L 550.649569 377.749591 
L 555.503854 363.078451 
L 565.212423 344.930707 
L 570.066707 465.989977 
L 574.920991 464.222211 
L 579.775276 463.801163 
L 584.62956 461.600461 
L 589.483845 460.392554 
L 594.338129 455.867028 
L 599.192414 479.634261 
L 604.046698 478.879049 
L 608.900983 477.631423 
L 613.755267 473.813277 
L 618.609552 466.158039 
L 623.463836 457.726372 
L 628.318121 457.094297 
L 633.172405 455.618957 
L 638.02669 454.377328 
L 642.880974 450.294598 
L 647.735259 447.353614 
L 652.589543 441.878199 
L 657.443827 486.98 
L 662.298112 486.733011 
L 667.152396 484.097953 
L 672.006681 477.468421 
L 676.860965 464.961277 
L 681.71525 454.289246 
L 686.569534 476.184108 
L 691.423819 474.255166 
L 696.278103 475.833769 
L 701.132388 476.807095 
L 705.986672 477.312112 
L 710.840957 474.378738 
L 715.695241 473.264089 
L 720.549526 472.858145 
L 725.40381 475.553607 
L 730.258095 476.983211 
L 735.112379 476.56844 
L 739.966663 472.826711 
L 744.820948 452.151373 
L 749.675232 450.41311 
L 754.529517 451.120944 
L 759.383801 450.144112 
L 764.238086 450.020328 
L 769.09237 446.144848 
L 773.946655 417.790265 
L 778.800939 410.595804 
L 783.655224 410.206701 
L 788.509508 412.565518 
L 793.363793 417.798184 
L 798.218077 415.445837 
L 803.072362 382.983685 
L 807.926646 391.702592 
L 812.780931 405.70272 
L 817.635215 414.253208 
L 822.4895 414.374327 
L 832.198068 405.255984 
L 837.052353 401.943454 
L 841.906637 398.36518 
L 846.760922 390.274948 
L 851.615206 385.244348 
L 856.469491 378.763448 
L 861.323775 373.34894 
L 866.17806 384.25359 
L 871.032344 402.474399 
L 875.886629 414.721962 
L 880.740913 414.979535 
L 885.595198 411.027224 
L 890.449482 430.38806 
L 895.303767 430.215247 
L 900.158051 433.961669 
L 905.012336 436.414701 
L 909.86662 437.007259 
L 914.720904 432.624551 
L 919.575189 413.169259 
L 924.429473 405.202542 
L 929.283758 403.56814 
L 934.138042 401.454535 
L 938.992327 402.731722 
L 943.846611 400.93624 
L 948.700896 388.453856 
L 953.55518 365.10321 
L 958.409465 350.248412 
L 963.263749 338.887311 
L 968.118034 340.184468 
L 972.972318 342.290772 
L 977.826603 354.732944 
L 982.680887 358.338103 
L 987.535172 373.531015 
L 992.389456 385.640346 
L 997.24374 389.936024 
L 1002.098025 390.350892 
L 1006.952309 374.764648 
L 1011.806594 378.411699 
L 1016.660878 374.923835 
L 1021.515163 361.177997 
L 1026.369447 347.953969 
L 1031.223732 333.891341 
L 1036.078016 255.509888 
L 1040.932301 265.869203 
L 1045.786585 284.76143 
L 1050.64087 296.153492 
L 1055.495154 301.504843 
L 1060.349439 298.381147 
L 1065.203723 251.351205 
L 1070.058008 251.770399 
L 1074.912292 229.751386 
L 1079.766577 182.132595 
L 1084.620861 139.14325 
L 1089.475145 108.943384 
L 1094.32943 107.223845 
L 1099.183714 129.579002 
L 1104.037999 150.935501 
L 1108.892283 147.025661 
L 1113.746568 137.731232 
L 1118.600852 125.064629 
L 1118.600852 125.064629 
" style="fill:none;stroke:#008000;stroke-dasharray:5.55,2.4;stroke-dashoffset:0;stroke-width:1.5;"/>
   </g>
   <g id="line2d_15">
    <path clip-path="url(#pbb81593133)" d="M 104.055398 310.584016 
L 108.909682 315.33066 
L 113.763967 328.621264 
L 118.618251 354.569585 
L 123.472536 328.937707 
L 128.32682 364.695759 
L 133.181105 306.470258 
L 138.035389 333.684351 
L 142.889673 303.622272 
L 147.743958 310.267573 
L 152.598242 209.955161 
L 157.452527 201.411202 
L 162.306811 227.675966 
L 167.161096 172.931337 
L 172.01538 215.334691 
L 176.869665 276.408179 
L 181.723949 165.653149 
L 186.578234 238.435026 
L 191.432518 165.336706 
L 196.286803 251.092743 
L 201.141087 172.614894 
L 205.995372 178.62731 
L 210.849656 168.501136 
L 215.703941 194.449457 
L 220.558225 169.766908 
L 225.41251 140.021271 
L 230.266794 177.994424 
L 235.121078 104.263219 
L 239.975363 189.702813 
L 244.829647 233.055496 
L 249.683932 200.14543 
L 254.538216 242.865227 
L 259.392501 316.279989 
L 264.246785 244.447442 
L 269.10107 240.01724 
L 273.955354 253.624287 
L 278.809639 156.476304 
L 283.663923 155.210532 
L 288.518208 81.79577 
L 293.372492 130.21154 
L 298.226777 56.796778 
L 303.081061 33.38 
L 307.935346 168.501136 
L 312.78963 278.623279 
L 317.643914 226.726637 
L 322.498199 218.182678 
L 327.352483 209.322275 
L 332.206768 181.158853 
L 337.061052 166.602478 
L 341.915337 221.030664 
L 346.769621 232.739053 
L 351.623906 157.425633 
L 356.47819 190.652142 
L 361.332475 245.080327 
L 366.186759 185.589055 
L 371.041044 313.11556 
L 375.895328 272.927306 
L 380.749613 211.537376 
L 385.603897 253.307844 
L 390.458182 90.339729 
L 395.312466 202.676973 
L 400.16675 286.21791 
L 405.021035 321.026633 
L 409.875319 358.050457 
L 414.729604 350.455827 
L 419.583888 333.684351 
L 424.438173 383.998779 
L 429.292457 415.010187 
L 434.146742 398.871597 
L 439.001026 414.693744 
L 443.855311 410.579986 
L 448.709595 397.605825 
L 453.56388 399.18804 
L 458.418164 410.263543 
L 463.272449 341.278982 
L 468.126733 365.961531 
L 472.981018 315.963546 
L 477.835302 357.101129 
L 482.689587 394.757839 
L 487.543871 465.324614 
L 492.398155 462.160185 
L 497.25244 458.36287 
L 502.106724 435.262535 
L 506.961009 408.681328 
L 511.815293 434.629649 
L 516.669578 458.046427 
L 521.523862 454.565554 
L 526.378147 456.464212 
L 531.232431 429.250119 
L 536.086716 417.54173 
L 540.941 452.666897 
L 545.795285 410.896429 
L 550.649569 438.110521 
L 555.503854 440.325622 
L 560.358138 427.667904 
L 565.212423 470.071259 
L 570.066707 451.401125 
L 574.920991 448.236696 
L 579.775276 460.57797 
L 584.62956 461.210856 
L 589.483845 469.438373 
L 594.338129 477.982332 
L 599.192414 478.298775 
L 604.046698 476.083674 
L 608.900983 460.894413 
L 613.755267 458.679313 
L 618.609552 465.324614 
L 623.463836 440.642065 
L 628.318121 426.08569 
L 633.172405 445.705152 
L 638.02669 429.566562 
L 642.880974 454.881997 
L 647.735259 456.780655 
L 652.589543 471.33703 
L 657.443827 469.754816 
L 662.298112 471.020587 
L 667.152396 459.312199 
L 672.006681 467.223272 
L 676.860965 468.172601 
L 681.71525 461.210856 
L 686.569534 435.578978 
L 691.423819 462.476628 
L 696.278103 451.401125 
L 701.132388 460.57797 
L 705.986672 460.261527 
L 710.840957 478.615218 
L 715.695241 484.944077 
L 720.549526 468.172601 
L 725.40381 457.729984 
L 730.258095 482.728976 
L 735.112379 458.995756 
L 739.966663 447.287367 
L 744.820948 448.553139 
L 749.675232 441.591394 
L 754.529517 436.84475 
L 759.383801 431.46522 
L 764.238086 428.30079 
L 769.09237 440.958508 
L 773.946655 417.225287 
L 778.800939 421.022603 
L 783.655224 399.18804 
L 788.509508 419.440388 
L 793.363793 401.719583 
L 798.218077 395.390724 
L 803.072362 407.415556 
L 807.926646 392.542738 
L 812.780931 358.999786 
L 817.635215 386.846765 
L 822.4895 397.922268 
L 827.343784 433.68032 
L 832.198068 394.757839 
L 837.052353 398.871597 
L 841.906637 371.657504 
L 846.760922 400.137369 
L 851.615206 375.454819 
L 856.469491 390.960523 
L 861.323775 387.479651 
L 866.17806 411.529314 
L 871.032344 402.668912 
L 875.886629 374.189047 
L 880.740913 424.187032 
L 885.595198 431.46522 
L 890.449482 443.490051 
L 895.303767 434.629649 
L 900.158051 442.857166 
L 905.012336 419.440388 
L 909.86662 417.858173 
L 914.720904 425.136361 
L 919.575189 402.985355 
L 924.429473 422.288374 
L 929.283758 378.935692 
L 934.138042 393.80851 
L 938.992327 390.011194 
L 943.846611 390.327637 
L 948.700896 356.468243 
L 953.55518 377.986363 
L 958.409465 353.936699 
L 963.263749 332.418579 
L 968.118034 342.22831 
L 972.972318 346.658512 
L 977.826603 356.1518 
L 982.680887 384.315222 
L 987.535172 371.024618 
L 992.389456 352.98737 
L 997.24374 414.060858 
L 1002.098025 361.53133 
L 1006.952309 399.18804 
L 1011.806594 390.011194 
L 1016.660878 377.353477 
L 1021.515163 367.543746 
L 1026.369447 337.165223 
L 1031.223732 289.698782 
L 1036.078016 277.041065 
L 1040.932301 265.016233 
L 1045.786585 286.534353 
L 1050.64087 272.29442 
L 1055.495154 255.522945 
L 1060.349439 263.434018 
L 1065.203723 263.434018 
L 1070.058008 219.448449 
L 1074.912292 209.638718 
L 1079.766577 201.727645 
L 1084.620861 214.385362 
L 1089.475145 115.338722 
L 1094.32943 158.374962 
L 1099.183714 127.047111 
L 1104.037999 105.845433 
L 1108.892283 100.465903 
L 1113.746568 107.744091 
L 1118.600852 130.21154 
L 1118.600852 130.21154 
" style="fill:none;stroke:#ff7f0e;stroke-linecap:square;stroke-width:1.5;"/>
   </g>
   <g id="line2d_16">
    <defs>
     <path d="M 0 3 
C 0.795609 3 1.55874 2.683901 2.12132 2.12132 
C 2.683901 1.55874 3 0.795609 3 0 
C 3 -0.795609 2.683901 -1.55874 2.12132 -2.12132 
C 1.55874 -2.683901 0.795609 -3 0 -3 
C -0.795609 -3 -1.55874 -2.683901 -2.12132 -2.12132 
C -2.683901 -1.55874 -3 -0.795609 -3 0 
C -3 0.795609 -2.683901 1.55874 -2.12132 2.12132 
C -1.55874 2.683901 -0.795609 3 0 3 
z
" id="mc4867982f9" style="stroke:#008000;"/>
    </defs>
    <g clip-path="url(#pbb81593133)">
     <use style="fill:#008000;stroke:#008000;" x="104.055398" xlink:href="#mc4867982f9" y="321.12585"/>
     <use style="fill:#008000;stroke:#008000;" x="133.181105" xlink:href="#mc4867982f9" y="349.320039"/>
     <use style="fill:#008000;stroke:#008000;" x="162.306811" xlink:href="#mc4867982f9" y="173.4252"/>
     <use style="fill:#008000;stroke:#008000;" x="191.432518" xlink:href="#mc4867982f9" y="180.573094"/>
     <use style="fill:#008000;stroke:#008000;" x="220.558225" xlink:href="#mc4867982f9" y="159.114346"/>
     <use style="fill:#008000;stroke:#008000;" x="249.683932" xlink:href="#mc4867982f9" y="251.51047"/>
     <use style="fill:#008000;stroke:#008000;" x="278.809639" xlink:href="#mc4867982f9" y="137.678543"/>
     <use style="fill:#008000;stroke:#008000;" x="307.935346" xlink:href="#mc4867982f9" y="139.55974"/>
     <use style="fill:#008000;stroke:#008000;" x="337.061052" xlink:href="#mc4867982f9" y="136.482379"/>
     <use style="fill:#008000;stroke:#008000;" x="366.186759" xlink:href="#mc4867982f9" y="231.47135"/>
     <use style="fill:#008000;stroke:#008000;" x="395.312466" xlink:href="#mc4867982f9" y="201.297055"/>
     <use style="fill:#008000;stroke:#008000;" x="424.438173" xlink:href="#mc4867982f9" y="344.436149"/>
     <use style="fill:#008000;stroke:#008000;" x="453.56388" xlink:href="#mc4867982f9" y="396.122228"/>
     <use style="fill:#008000;stroke:#008000;" x="482.689587" xlink:href="#mc4867982f9" y="377.973635"/>
     <use style="fill:#008000;stroke:#008000;" x="511.815293" xlink:href="#mc4867982f9" y="378.736022"/>
     <use style="fill:#008000;stroke:#008000;" x="540.941" xlink:href="#mc4867982f9" y="396.328986"/>
     <use style="fill:#008000;stroke:#008000;" x="570.066707" xlink:href="#mc4867982f9" y="465.989977"/>
     <use style="fill:#008000;stroke:#008000;" x="599.192414" xlink:href="#mc4867982f9" y="479.634261"/>
     <use style="fill:#008000;stroke:#008000;" x="628.318121" xlink:href="#mc4867982f9" y="457.094297"/>
     <use style="fill:#008000;stroke:#008000;" x="657.443827" xlink:href="#mc4867982f9" y="486.98"/>
     <use style="fill:#008000;stroke:#008000;" x="686.569534" xlink:href="#mc4867982f9" y="476.184108"/>
     <use style="fill:#008000;stroke:#008000;" x="715.695241" xlink:href="#mc4867982f9" y="473.264089"/>
     <use style="fill:#008000;stroke:#008000;" x="744.820948" xlink:href="#mc4867982f9" y="452.151373"/>
     <use style="fill:#008000;stroke:#008000;" x="773.946655" xlink:href="#mc4867982f9" y="417.790265"/>
     <use style="fill:#008000;stroke:#008000;" x="803.072362" xlink:href="#mc4867982f9" y="382.983685"/>
     <use style="fill:#008000;stroke:#008000;" x="832.198068" xlink:href="#mc4867982f9" y="405.255984"/>
     <use style="fill:#008000;stroke:#008000;" x="861.323775" xlink:href="#mc4867982f9" y="373.34894"/>
     <use style="fill:#008000;stroke:#008000;" x="890.449482" xlink:href="#mc4867982f9" y="430.38806"/>
     <use style="fill:#008000;stroke:#008000;" x="919.575189" xlink:href="#mc4867982f9" y="413.169259"/>
     <use style="fill:#008000;stroke:#008000;" x="948.700896" xlink:href="#mc4867982f9" y="388.453856"/>
     <use style="fill:#008000;stroke:#008000;" x="977.826603" xlink:href="#mc4867982f9" y="354.732944"/>
     <use style="fill:#008000;stroke:#008000;" x="1006.952309" xlink:href="#mc4867982f9" y="374.764648"/>
     <use style="fill:#008000;stroke:#008000;" x="1036.078016" xlink:href="#mc4867982f9" y="255.509888"/>
     <use style="fill:#008000;stroke:#008000;" x="1065.203723" xlink:href="#mc4867982f9" y="251.351205"/>
     <use style="fill:#008000;stroke:#008000;" x="1094.32943" xlink:href="#mc4867982f9" y="107.223845"/>
    </g>
   </g>
   <g id="patch_3">
    <path d="M 53.328125 509.66 
L 53.328125 10.7 
" style="fill:none;stroke:#000000;stroke-linecap:square;stroke-linejoin:miter;stroke-width:0.8;"/>
   </g>
   <g id="patch_4">
    <path d="M 1169.328125 509.66 
L 1169.328125 10.7 
" style="fill:none;stroke:#000000;stroke-linecap:square;stroke-linejoin:miter;stroke-width:0.8;"/>
   </g>
   <g id="patch_5">
    <path d="M 53.328125 509.66 
L 1169.328125 509.66 
" style="fill:none;stroke:#000000;stroke-linecap:square;stroke-linejoin:miter;stroke-width:0.8;"/>
   </g>
   <g id="patch_6">
    <path d="M 53.328125 10.7 
L 1169.328125 10.7 
" style="fill:none;stroke:#000000;stroke-linecap:square;stroke-linejoin:miter;stroke-width:0.8;"/>
   </g>
   <g id="legend_1">
    <g id="patch_7">
     <path d="M 60.328125 62.734375 
L 208.103125 62.734375 
Q 210.103125 62.734375 210.103125 60.734375 
L 210.103125 17.7 
Q 210.103125 15.7 208.103125 15.7 
L 60.328125 15.7 
Q 58.328125 15.7 58.328125 17.7 
L 58.328125 60.734375 
Q 58.328125 62.734375 60.328125 62.734375 
z
" style="fill:#ffffff;opacity:0.8;stroke:#cccccc;stroke-linejoin:miter;"/>
    </g>
    <g id="line2d_17">
     <path d="M 62.328125 23.798437 
L 82.328125 23.798437 
" style="fill:none;stroke:#008000;stroke-dasharray:5.55,2.4;stroke-dashoffset:0;stroke-width:1.5;"/>
    </g>
    <g id="line2d_18"/>
    <g id="text_16">
     <!-- Predicated -->
     <defs>
      <path d="M 19.671875 64.796875 
L 19.671875 37.40625 
L 32.078125 37.40625 
Q 38.96875 37.40625 42.71875 40.96875 
Q 46.484375 44.53125 46.484375 51.125 
Q 46.484375 57.671875 42.71875 61.234375 
Q 38.96875 64.796875 32.078125 64.796875 
z
M 9.8125 72.90625 
L 32.078125 72.90625 
Q 44.34375 72.90625 50.609375 67.359375 
Q 56.890625 61.8125 56.890625 51.125 
Q 56.890625 40.328125 50.609375 34.8125 
Q 44.34375 29.296875 32.078125 29.296875 
L 19.671875 29.296875 
L 19.671875 0 
L 9.8125 0 
z
" id="DejaVuSans-50"/>
      <path d="M 41.109375 46.296875 
Q 39.59375 47.171875 37.8125 47.578125 
Q 36.03125 48 33.890625 48 
Q 26.265625 48 22.1875 43.046875 
Q 18.109375 38.09375 18.109375 28.8125 
L 18.109375 0 
L 9.078125 0 
L 9.078125 54.6875 
L 18.109375 54.6875 
L 18.109375 46.1875 
Q 20.953125 51.171875 25.484375 53.578125 
Q 30.03125 56 36.53125 56 
Q 37.453125 56 38.578125 55.875 
Q 39.703125 55.765625 41.0625 55.515625 
z
" id="DejaVuSans-72"/>
      <path d="M 45.40625 46.390625 
L 45.40625 75.984375 
L 54.390625 75.984375 
L 54.390625 0 
L 45.40625 0 
L 45.40625 8.203125 
Q 42.578125 3.328125 38.25 0.953125 
Q 33.9375 -1.421875 27.875 -1.421875 
Q 17.96875 -1.421875 11.734375 6.484375 
Q 5.515625 14.40625 5.515625 27.296875 
Q 5.515625 40.1875 11.734375 48.09375 
Q 17.96875 56 27.875 56 
Q 33.9375 56 38.25 53.625 
Q 42.578125 51.265625 45.40625 46.390625 
z
M 14.796875 27.296875 
Q 14.796875 17.390625 18.875 11.75 
Q 22.953125 6.109375 30.078125 6.109375 
Q 37.203125 6.109375 41.296875 11.75 
Q 45.40625 17.390625 45.40625 27.296875 
Q 45.40625 37.203125 41.296875 42.84375 
Q 37.203125 48.484375 30.078125 48.484375 
Q 22.953125 48.484375 18.875 42.84375 
Q 14.796875 37.203125 14.796875 27.296875 
z
" id="DejaVuSans-64"/>
      <path d="M 48.78125 52.59375 
L 48.78125 44.1875 
Q 44.96875 46.296875 41.140625 47.34375 
Q 37.3125 48.390625 33.40625 48.390625 
Q 24.65625 48.390625 19.8125 42.84375 
Q 14.984375 37.3125 14.984375 27.296875 
Q 14.984375 17.28125 19.8125 11.734375 
Q 24.65625 6.203125 33.40625 6.203125 
Q 37.3125 6.203125 41.140625 7.25 
Q 44.96875 8.296875 48.78125 10.40625 
L 48.78125 2.09375 
Q 45.015625 0.34375 40.984375 -0.53125 
Q 36.96875 -1.421875 32.421875 -1.421875 
Q 20.0625 -1.421875 12.78125 6.34375 
Q 5.515625 14.109375 5.515625 27.296875 
Q 5.515625 40.671875 12.859375 48.328125 
Q 20.21875 56 33.015625 56 
Q 37.15625 56 41.109375 55.140625 
Q 45.0625 54.296875 48.78125 52.59375 
z
" id="DejaVuSans-63"/>
      <path d="M 34.28125 27.484375 
Q 23.390625 27.484375 19.1875 25 
Q 14.984375 22.515625 14.984375 16.5 
Q 14.984375 11.71875 18.140625 8.90625 
Q 21.296875 6.109375 26.703125 6.109375 
Q 34.1875 6.109375 38.703125 11.40625 
Q 43.21875 16.703125 43.21875 25.484375 
L 43.21875 27.484375 
z
M 52.203125 31.203125 
L 52.203125 0 
L 43.21875 0 
L 43.21875 8.296875 
Q 40.140625 3.328125 35.546875 0.953125 
Q 30.953125 -1.421875 24.3125 -1.421875 
Q 15.921875 -1.421875 10.953125 3.296875 
Q 6 8.015625 6 15.921875 
Q 6 25.140625 12.171875 29.828125 
Q 18.359375 34.515625 30.609375 34.515625 
L 43.21875 34.515625 
L 43.21875 35.40625 
Q 43.21875 41.609375 39.140625 45 
Q 35.0625 48.390625 27.6875 48.390625 
Q 23 48.390625 18.546875 47.265625 
Q 14.109375 46.140625 10.015625 43.890625 
L 10.015625 52.203125 
Q 14.9375 54.109375 19.578125 55.046875 
Q 24.21875 56 28.609375 56 
Q 40.484375 56 46.34375 49.84375 
Q 52.203125 43.703125 52.203125 31.203125 
z
" id="DejaVuSans-61"/>
      <path d="M 18.3125 70.21875 
L 18.3125 54.6875 
L 36.8125 54.6875 
L 36.8125 47.703125 
L 18.3125 47.703125 
L 18.3125 18.015625 
Q 18.3125 11.328125 20.140625 9.421875 
Q 21.96875 7.515625 27.59375 7.515625 
L 36.8125 7.515625 
L 36.8125 0 
L 27.59375 0 
Q 17.1875 0 13.234375 3.875 
Q 9.28125 7.765625 9.28125 18.015625 
L 9.28125 47.703125 
L 2.6875 47.703125 
L 2.6875 54.6875 
L 9.28125 54.6875 
L 9.28125 70.21875 
z
" id="DejaVuSans-74"/>
     </defs>
     <g transform="translate(90.328125 27.298437)scale(0.1 -0.1)">
      <use xlink:href="#DejaVuSans-50"/>
      <use x="60.287109" xlink:href="#DejaVuSans-72"/>
      <use x="101.369141" xlink:href="#DejaVuSans-65"/>
      <use x="162.892578" xlink:href="#DejaVuSans-64"/>
      <use x="226.369141" xlink:href="#DejaVuSans-69"/>
      <use x="254.152344" xlink:href="#DejaVuSans-63"/>
      <use x="309.132812" xlink:href="#DejaVuSans-61"/>
      <use x="370.412109" xlink:href="#DejaVuSans-74"/>
      <use x="409.621094" xlink:href="#DejaVuSans-65"/>
      <use x="471.144531" xlink:href="#DejaVuSans-64"/>
     </g>
    </g>
    <g id="line2d_19">
     <path d="M 62.328125 38.476562 
L 82.328125 38.476562 
" style="fill:none;stroke:#ff7f0e;stroke-linecap:square;stroke-width:1.5;"/>
    </g>
    <g id="line2d_20"/>
    <g id="text_17">
     <!-- Real Data -->
     <defs>
      <path d="M 9.421875 75.984375 
L 18.40625 75.984375 
L 18.40625 0 
L 9.421875 0 
z
" id="DejaVuSans-6c"/>
      <path id="DejaVuSans-20"/>
      <path d="M 19.671875 64.796875 
L 19.671875 8.109375 
L 31.59375 8.109375 
Q 46.6875 8.109375 53.6875 14.9375 
Q 60.6875 21.78125 60.6875 36.53125 
Q 60.6875 51.171875 53.6875 57.984375 
Q 46.6875 64.796875 31.59375 64.796875 
z
M 9.8125 72.90625 
L 30.078125 72.90625 
Q 51.265625 72.90625 61.171875 64.09375 
Q 71.09375 55.28125 71.09375 36.53125 
Q 71.09375 17.671875 61.125 8.828125 
Q 51.171875 0 30.078125 0 
L 9.8125 0 
z
" id="DejaVuSans-44"/>
     </defs>
     <g transform="translate(90.328125 41.976562)scale(0.1 -0.1)">
      <use xlink:href="#DejaVuSans-52"/>
      <use x="69.419922" xlink:href="#DejaVuSans-65"/>
      <use x="130.943359" xlink:href="#DejaVuSans-61"/>
      <use x="192.222656" xlink:href="#DejaVuSans-6c"/>
      <use x="220.005859" xlink:href="#DejaVuSans-20"/>
      <use x="251.792969" xlink:href="#DejaVuSans-44"/>
      <use x="328.794922" xlink:href="#DejaVuSans-61"/>
      <use x="390.074219" xlink:href="#DejaVuSans-74"/>
      <use x="429.283203" xlink:href="#DejaVuSans-61"/>
     </g>
    </g>
    <g id="line2d_21"/>
    <g id="line2d_22">
     <g>
      <use style="fill:#008000;stroke:#008000;" x="72.328125" xlink:href="#mc4867982f9" y="53.154688"/>
     </g>
    </g>
    <g id="text_18">
     <!-- Start Point for Forecast -->
     <defs>
      <path d="M 53.515625 70.515625 
L 53.515625 60.890625 
Q 47.90625 63.578125 42.921875 64.890625 
Q 37.9375 66.21875 33.296875 66.21875 
Q 25.25 66.21875 20.875 63.09375 
Q 16.5 59.96875 16.5 54.203125 
Q 16.5 49.359375 19.40625 46.890625 
Q 22.3125 44.4375 30.421875 42.921875 
L 36.375 41.703125 
Q 47.40625 39.59375 52.65625 34.296875 
Q 57.90625 29 57.90625 20.125 
Q 57.90625 9.515625 50.796875 4.046875 
Q 43.703125 -1.421875 29.984375 -1.421875 
Q 24.8125 -1.421875 18.96875 -0.25 
Q 13.140625 0.921875 6.890625 3.21875 
L 6.890625 13.375 
Q 12.890625 10.015625 18.65625 8.296875 
Q 24.421875 6.59375 29.984375 6.59375 
Q 38.421875 6.59375 43.015625 9.90625 
Q 47.609375 13.234375 47.609375 19.390625 
Q 47.609375 24.75 44.3125 27.78125 
Q 41.015625 30.8125 33.5 32.328125 
L 27.484375 33.5 
Q 16.453125 35.6875 11.515625 40.375 
Q 6.59375 45.0625 6.59375 53.421875 
Q 6.59375 63.09375 13.40625 68.65625 
Q 20.21875 74.21875 32.171875 74.21875 
Q 37.3125 74.21875 42.625 73.28125 
Q 47.953125 72.359375 53.515625 70.515625 
z
" id="DejaVuSans-53"/>
      <path d="M 30.609375 48.390625 
Q 23.390625 48.390625 19.1875 42.75 
Q 14.984375 37.109375 14.984375 27.296875 
Q 14.984375 17.484375 19.15625 11.84375 
Q 23.34375 6.203125 30.609375 6.203125 
Q 37.796875 6.203125 41.984375 11.859375 
Q 46.1875 17.53125 46.1875 27.296875 
Q 46.1875 37.015625 41.984375 42.703125 
Q 37.796875 48.390625 30.609375 48.390625 
z
M 30.609375 56 
Q 42.328125 56 49.015625 48.375 
Q 55.71875 40.765625 55.71875 27.296875 
Q 55.71875 13.875 49.015625 6.21875 
Q 42.328125 -1.421875 30.609375 -1.421875 
Q 18.84375 -1.421875 12.171875 6.21875 
Q 5.515625 13.875 5.515625 27.296875 
Q 5.515625 40.765625 12.171875 48.375 
Q 18.84375 56 30.609375 56 
z
" id="DejaVuSans-6f"/>
      <path d="M 54.890625 33.015625 
L 54.890625 0 
L 45.90625 0 
L 45.90625 32.71875 
Q 45.90625 40.484375 42.875 44.328125 
Q 39.84375 48.1875 33.796875 48.1875 
Q 26.515625 48.1875 22.3125 43.546875 
Q 18.109375 38.921875 18.109375 30.90625 
L 18.109375 0 
L 9.078125 0 
L 9.078125 54.6875 
L 18.109375 54.6875 
L 18.109375 46.1875 
Q 21.34375 51.125 25.703125 53.5625 
Q 30.078125 56 35.796875 56 
Q 45.21875 56 50.046875 50.171875 
Q 54.890625 44.34375 54.890625 33.015625 
z
" id="DejaVuSans-6e"/>
      <path d="M 9.8125 72.90625 
L 51.703125 72.90625 
L 51.703125 64.59375 
L 19.671875 64.59375 
L 19.671875 43.109375 
L 48.578125 43.109375 
L 48.578125 34.8125 
L 19.671875 34.8125 
L 19.671875 0 
L 9.8125 0 
z
" id="DejaVuSans-46"/>
     </defs>
     <g transform="translate(90.328125 56.654688)scale(0.1 -0.1)">
      <use xlink:href="#DejaVuSans-53"/>
      <use x="63.476562" xlink:href="#DejaVuSans-74"/>
      <use x="102.685547" xlink:href="#DejaVuSans-61"/>
      <use x="163.964844" xlink:href="#DejaVuSans-72"/>
      <use x="205.078125" xlink:href="#DejaVuSans-74"/>
      <use x="244.287109" xlink:href="#DejaVuSans-20"/>
      <use x="276.074219" xlink:href="#DejaVuSans-50"/>
      <use x="336.330078" xlink:href="#DejaVuSans-6f"/>
      <use x="397.511719" xlink:href="#DejaVuSans-69"/>
      <use x="425.294922" xlink:href="#DejaVuSans-6e"/>
      <use x="488.673828" xlink:href="#DejaVuSans-74"/>
      <use x="527.882812" xlink:href="#DejaVuSans-20"/>
      <use x="559.669922" xlink:href="#DejaVuSans-66"/>
      <use x="594.875" xlink:href="#DejaVuSans-6f"/>
      <use x="656.056641" xlink:href="#DejaVuSans-72"/>
      <use x="697.169922" xlink:href="#DejaVuSans-20"/>
      <use x="728.957031" xlink:href="#DejaVuSans-46"/>
      <use x="786.429688" xlink:href="#DejaVuSans-6f"/>
      <use x="847.611328" xlink:href="#DejaVuSans-72"/>
      <use x="888.693359" xlink:href="#DejaVuSans-65"/>
      <use x="950.216797" xlink:href="#DejaVuSans-63"/>
      <use x="1005.197266" xlink:href="#DejaVuSans-61"/>
      <use x="1066.476562" xlink:href="#DejaVuSans-73"/>
      <use x="1118.576172" xlink:href="#DejaVuSans-74"/>
     </g>
    </g>
   </g>
  </g>
  <g id="axes_2">
   <g id="patch_8">
    <path d="M 53.328125 645.74 
L 1170.768125 645.74 
L 1170.768125 516.14 
L 53.328125 516.14 
z
" style="fill:none;"/>
   </g>
   <g id="matplotlib.axis_3">
    <g id="xtick_6">
     <g id="line2d_23">
      <g>
       <use style="stroke:#000000;stroke-width:0.8;" x="104.120852" xlink:href="#m7e13a1c14d" y="645.74"/>
      </g>
     </g>
     <g id="text_19">
      <!-- 0 -->
      <g transform="translate(100.939602 660.338437)scale(0.1 -0.1)">
       <use xlink:href="#DejaVuSans-30"/>
      </g>
     </g>
    </g>
    <g id="xtick_7">
     <g id="line2d_24">
      <g>
       <use style="stroke:#000000;stroke-width:0.8;" x="228.612831" xlink:href="#m7e13a1c14d" y="645.74"/>
      </g>
     </g>
     <g id="text_20">
      <!-- 25 -->
      <g transform="translate(222.250331 660.338437)scale(0.1 -0.1)">
       <use xlink:href="#DejaVuSans-32"/>
       <use x="63.623047" xlink:href="#DejaVuSans-35"/>
      </g>
     </g>
    </g>
    <g id="xtick_8">
     <g id="line2d_25">
      <g>
       <use style="stroke:#000000;stroke-width:0.8;" x="353.104809" xlink:href="#m7e13a1c14d" y="645.74"/>
      </g>
     </g>
     <g id="text_21">
      <!-- 50 -->
      <g transform="translate(346.742309 660.338437)scale(0.1 -0.1)">
       <use xlink:href="#DejaVuSans-35"/>
       <use x="63.623047" xlink:href="#DejaVuSans-30"/>
      </g>
     </g>
    </g>
    <g id="xtick_9">
     <g id="line2d_26">
      <g>
       <use style="stroke:#000000;stroke-width:0.8;" x="477.596788" xlink:href="#m7e13a1c14d" y="645.74"/>
      </g>
     </g>
     <g id="text_22">
      <!-- 75 -->
      <defs>
       <path d="M 8.203125 72.90625 
L 55.078125 72.90625 
L 55.078125 68.703125 
L 28.609375 0 
L 18.3125 0 
L 43.21875 64.59375 
L 8.203125 64.59375 
z
" id="DejaVuSans-37"/>
      </defs>
      <g transform="translate(471.234288 660.338437)scale(0.1 -0.1)">
       <use xlink:href="#DejaVuSans-37"/>
       <use x="63.623047" xlink:href="#DejaVuSans-35"/>
      </g>
     </g>
    </g>
    <g id="xtick_10">
     <g id="line2d_27">
      <g>
       <use style="stroke:#000000;stroke-width:0.8;" x="602.088767" xlink:href="#m7e13a1c14d" y="645.74"/>
      </g>
     </g>
     <g id="text_23">
      <!-- 100 -->
      <g transform="translate(592.545017 660.338437)scale(0.1 -0.1)">
       <use xlink:href="#DejaVuSans-31"/>
       <use x="63.623047" xlink:href="#DejaVuSans-30"/>
       <use x="127.246094" xlink:href="#DejaVuSans-30"/>
      </g>
     </g>
    </g>
    <g id="xtick_11">
     <g id="line2d_28">
      <g>
       <use style="stroke:#000000;stroke-width:0.8;" x="726.580745" xlink:href="#m7e13a1c14d" y="645.74"/>
      </g>
     </g>
     <g id="text_24">
      <!-- 125 -->
      <g transform="translate(717.036995 660.338437)scale(0.1 -0.1)">
       <use xlink:href="#DejaVuSans-31"/>
       <use x="63.623047" xlink:href="#DejaVuSans-32"/>
       <use x="127.246094" xlink:href="#DejaVuSans-35"/>
      </g>
     </g>
    </g>
    <g id="xtick_12">
     <g id="line2d_29">
      <g>
       <use style="stroke:#000000;stroke-width:0.8;" x="851.072724" xlink:href="#m7e13a1c14d" y="645.74"/>
      </g>
     </g>
     <g id="text_25">
      <!-- 150 -->
      <g transform="translate(841.528974 660.338437)scale(0.1 -0.1)">
       <use xlink:href="#DejaVuSans-31"/>
       <use x="63.623047" xlink:href="#DejaVuSans-35"/>
       <use x="127.246094" xlink:href="#DejaVuSans-30"/>
      </g>
     </g>
    </g>
    <g id="xtick_13">
     <g id="line2d_30">
      <g>
       <use style="stroke:#000000;stroke-width:0.8;" x="975.564703" xlink:href="#m7e13a1c14d" y="645.74"/>
      </g>
     </g>
     <g id="text_26">
      <!-- 175 -->
      <g transform="translate(966.020953 660.338437)scale(0.1 -0.1)">
       <use xlink:href="#DejaVuSans-31"/>
       <use x="63.623047" xlink:href="#DejaVuSans-37"/>
       <use x="127.246094" xlink:href="#DejaVuSans-35"/>
      </g>
     </g>
    </g>
    <g id="xtick_14">
     <g id="line2d_31">
      <g>
       <use style="stroke:#000000;stroke-width:0.8;" x="1100.056681" xlink:href="#m7e13a1c14d" y="645.74"/>
      </g>
     </g>
     <g id="text_27">
      <!-- 200 -->
      <g transform="translate(1090.512931 660.338437)scale(0.1 -0.1)">
       <use xlink:href="#DejaVuSans-32"/>
       <use x="63.623047" xlink:href="#DejaVuSans-30"/>
       <use x="127.246094" xlink:href="#DejaVuSans-30"/>
      </g>
     </g>
    </g>
   </g>
   <g id="matplotlib.axis_4">
    <g id="ytick_9">
     <g id="line2d_32">
      <g>
       <use style="stroke:#000000;stroke-width:0.8;" x="53.328125" xlink:href="#m0b3065361b" y="630.11773"/>
      </g>
     </g>
     <g id="text_28">
      <!-- 10 -->
      <g transform="translate(33.603125 633.916949)scale(0.1 -0.1)">
       <use xlink:href="#DejaVuSans-31"/>
       <use x="63.623047" xlink:href="#DejaVuSans-30"/>
      </g>
     </g>
    </g>
    <g id="ytick_10">
     <g id="line2d_33">
      <g>
       <use style="stroke:#000000;stroke-width:0.8;" x="53.328125" xlink:href="#m0b3065361b" y="591.644728"/>
      </g>
     </g>
     <g id="text_29">
      <!-- 20 -->
      <g transform="translate(33.603125 595.443947)scale(0.1 -0.1)">
       <use xlink:href="#DejaVuSans-32"/>
       <use x="63.623047" xlink:href="#DejaVuSans-30"/>
      </g>
     </g>
    </g>
    <g id="ytick_11">
     <g id="line2d_34">
      <g>
       <use style="stroke:#000000;stroke-width:0.8;" x="53.328125" xlink:href="#m0b3065361b" y="553.171726"/>
      </g>
     </g>
     <g id="text_30">
      <!-- 30 -->
      <defs>
       <path d="M 40.578125 39.3125 
Q 47.65625 37.796875 51.625 33 
Q 55.609375 28.21875 55.609375 21.1875 
Q 55.609375 10.40625 48.1875 4.484375 
Q 40.765625 -1.421875 27.09375 -1.421875 
Q 22.515625 -1.421875 17.65625 -0.515625 
Q 12.796875 0.390625 7.625 2.203125 
L 7.625 11.71875 
Q 11.71875 9.328125 16.59375 8.109375 
Q 21.484375 6.890625 26.8125 6.890625 
Q 36.078125 6.890625 40.9375 10.546875 
Q 45.796875 14.203125 45.796875 21.1875 
Q 45.796875 27.640625 41.28125 31.265625 
Q 36.765625 34.90625 28.71875 34.90625 
L 20.21875 34.90625 
L 20.21875 43.015625 
L 29.109375 43.015625 
Q 36.375 43.015625 40.234375 45.921875 
Q 44.09375 48.828125 44.09375 54.296875 
Q 44.09375 59.90625 40.109375 62.90625 
Q 36.140625 65.921875 28.71875 65.921875 
Q 24.65625 65.921875 20.015625 65.03125 
Q 15.375 64.15625 9.8125 62.3125 
L 9.8125 71.09375 
Q 15.4375 72.65625 20.34375 73.4375 
Q 25.25 74.21875 29.59375 74.21875 
Q 40.828125 74.21875 47.359375 69.109375 
Q 53.90625 64.015625 53.90625 55.328125 
Q 53.90625 49.265625 50.4375 45.09375 
Q 46.96875 40.921875 40.578125 39.3125 
z
" id="DejaVuSans-33"/>
      </defs>
      <g transform="translate(33.603125 556.970945)scale(0.1 -0.1)">
       <use xlink:href="#DejaVuSans-33"/>
       <use x="63.623047" xlink:href="#DejaVuSans-30"/>
      </g>
     </g>
    </g>
    <g id="text_31">
     <!-- Temperature -->
     <defs>
      <path d="M 18.109375 8.203125 
L 18.109375 -20.796875 
L 9.078125 -20.796875 
L 9.078125 54.6875 
L 18.109375 54.6875 
L 18.109375 46.390625 
Q 20.953125 51.265625 25.265625 53.625 
Q 29.59375 56 35.59375 56 
Q 45.5625 56 51.78125 48.09375 
Q 58.015625 40.1875 58.015625 27.296875 
Q 58.015625 14.40625 51.78125 6.484375 
Q 45.5625 -1.421875 35.59375 -1.421875 
Q 29.59375 -1.421875 25.265625 0.953125 
Q 20.953125 3.328125 18.109375 8.203125 
z
M 48.6875 27.296875 
Q 48.6875 37.203125 44.609375 42.84375 
Q 40.53125 48.484375 33.40625 48.484375 
Q 26.265625 48.484375 22.1875 42.84375 
Q 18.109375 37.203125 18.109375 27.296875 
Q 18.109375 17.390625 22.1875 11.75 
Q 26.265625 6.109375 33.40625 6.109375 
Q 40.53125 6.109375 44.609375 11.75 
Q 48.6875 17.390625 48.6875 27.296875 
z
" id="DejaVuSans-70"/>
     </defs>
     <g style="fill:#0000ff;" transform="translate(27.523437 613.557187)rotate(-90)scale(0.1 -0.1)">
      <use xlink:href="#DejaVuSans-54"/>
      <use x="60.818359" xlink:href="#DejaVuSans-65"/>
      <use x="122.341797" xlink:href="#DejaVuSans-6d"/>
      <use x="219.753906" xlink:href="#DejaVuSans-70"/>
      <use x="283.230469" xlink:href="#DejaVuSans-65"/>
      <use x="344.753906" xlink:href="#DejaVuSans-72"/>
      <use x="385.867188" xlink:href="#DejaVuSans-61"/>
      <use x="447.146484" xlink:href="#DejaVuSans-74"/>
      <use x="486.355469" xlink:href="#DejaVuSans-75"/>
      <use x="549.734375" xlink:href="#DejaVuSans-72"/>
      <use x="590.816406" xlink:href="#DejaVuSans-65"/>
     </g>
    </g>
   </g>
   <g id="line2d_35">
    <path clip-path="url(#p0413ebbc38)" d="M 104.120852 544.748447 
L 109.100531 547.43771 
L 114.080211 546.069225 
L 119.05989 547.393466 
L 124.039569 552.459976 
L 129.019248 563.731796 
L 133.998927 564.807116 
L 138.978606 560.492754 
L 143.958285 543.978602 
L 148.937965 528.159274 
L 153.917644 526.359891 
L 158.897323 538.094542 
L 163.877002 546.382396 
L 168.856681 546.841378 
L 173.83636 545.304767 
L 178.816039 541.258176 
L 183.795719 550.161599 
L 188.775398 561.617704 
L 193.755077 564.766719 
L 198.734756 551.360417 
L 203.714435 542.598576 
L 208.694114 532.422082 
L 213.673793 525.538493 
L 218.653473 539.888538 
L 223.633152 546.477039 
L 228.612831 546.751352 
L 233.59251 540.721863 
L 238.572189 545.01545 
L 243.551868 551.594333 
L 248.531547 561.177958 
L 253.511227 566.940829 
L 258.490906 555.433554 
L 263.470585 540.417926 
L 268.450264 528.888722 
L 273.429943 523.243193 
L 278.409622 534.091426 
L 283.389301 538.784362 
L 288.368981 546.862154 
L 293.34866 543.27724 
L 298.328339 543.269545 
L 303.308018 551.827864 
L 313.267376 566.853495 
L 318.247055 556.217249 
L 323.226735 543.199524 
L 328.206414 527.902274 
L 333.186093 522.030909 
L 338.165772 529.218435 
L 343.145451 544.348328 
L 348.12513 547.043746 
L 353.104809 546.495506 
L 358.084489 545.363246 
L 363.064168 553.126713 
L 368.043847 564.48125 
L 373.023526 569.038762 
L 378.003205 555.576289 
L 382.982884 534.45538 
L 387.962564 528.188898 
L 392.942243 526.941988 
L 397.921922 535.117116 
L 402.901601 542.689372 
L 407.88128 547.543896 
L 412.860959 542.655516 
L 417.840638 547.788199 
L 422.820318 552.055624 
L 427.799997 562.750734 
L 432.779676 569.549298 
L 437.759355 556.787419 
L 442.739034 542.241162 
L 447.718713 531.521044 
L 452.698392 525.071815 
L 457.678072 528.629029 
L 462.657751 546.296601 
L 467.63743 545.732971 
L 472.617109 547.112998 
L 477.596788 547.303439 
L 482.576467 554.333611 
L 487.556146 563.477489 
L 492.535826 563.29128 
L 497.515505 548.354137 
L 502.495184 544.961203 
L 507.474863 530.626932 
L 512.454542 527.476762 
L 517.434221 535.148664 
L 522.4139 545.188194 
L 527.39358 547.735106 
L 532.373259 544.994674 
L 537.352938 544.426813 
L 542.332617 554.214345 
L 547.312296 562.318682 
L 552.291975 563.950322 
L 557.271654 558.448298 
L 562.251334 542.780168 
L 567.231013 528.758298 
L 572.210692 525.85551 
L 577.190371 534.691605 
L 582.17005 544.372951 
L 587.149729 546.446645 
L 592.129408 546.243123 
L 597.109088 544.417195 
L 602.088767 552.419194 
L 607.068446 564.448163 
L 612.048125 567.201676 
L 617.027804 561.092163 
L 622.007483 541.840658 
L 626.987162 531.372539 
L 631.966842 526.575725 
L 636.946521 539.287205 
L 641.9262 544.469133 
L 646.905879 547.887459 
L 651.885558 544.959664 
L 656.865237 543.581561 
L 661.844916 552.206439 
L 666.824596 560.327705 
L 671.804275 562.819601 
L 676.783954 550.114661 
L 681.763633 539.247193 
L 686.743312 527.616419 
L 691.722991 524.130381 
L 696.70267 528.005382 
L 701.68235 543.030628 
L 706.662029 543.815862 
L 711.641708 542.235775 
L 716.621387 543.699673 
L 721.601066 555.639385 
L 726.580745 563.302052 
L 731.560424 566.996615 
L 736.540104 554.584455 
L 741.519783 536.221291 
L 746.499462 525.744323 
L 751.479141 522.694953 
L 756.45882 530.244126 
L 761.438499 544.039005 
L 766.418178 545.766058 
L 771.397858 545.934185 
L 776.377537 544.9512 
L 781.357216 554.700643 
L 786.336895 566.093653 
L 791.316574 567.129347 
L 796.296253 556.437315 
L 801.275932 540.053972 
L 806.255612 533.191542 
L 811.235291 525.207625 
L 816.21497 535.620728 
L 821.194649 543.73276 
L 826.174328 546.950642 
L 831.154007 545.894943 
L 836.133686 542.341576 
L 841.113366 551.332717 
L 846.093045 561.237591 
L 851.072724 568.379334 
L 856.052403 555.385078 
L 861.032082 539.736185 
L 866.011761 530.303374 
L 870.991441 522.197112 
L 875.97112 528.49899 
L 880.950799 542.365045 
L 885.930478 546.080767 
L 890.910157 545.484436 
L 895.889836 544.730365 
L 900.869515 553.771905 
L 905.849195 562.114775 
L 910.828874 564.961008 
L 915.808553 556.637374 
L 920.788232 540.275576 
L 925.767911 530.667713 
L 930.74759 522.966188 
L 935.727269 537.014604 
L 940.706949 545.809148 
L 945.686628 546.790209 
L 950.666307 543.100649 
L 955.645986 547.488494 
L 960.625665 554.182797 
L 965.605344 563.757188 
L 970.585023 568.517068 
L 975.564703 560.670499 
L 980.544382 545.068927 
L 985.524061 528.231988 
L 990.50374 526.184454 
L 995.483419 526.992387 
L 1000.463098 540.855364 
L 1005.442777 543.303786 
L 1010.422457 544.277153 
L 1015.402136 543.669279 
L 1020.381815 550.956451 
L 1025.361494 563.661775 
L 1030.341173 568.076937 
L 1035.320852 553.988508 
L 1040.300531 545.045074 
L 1045.280211 534.430758 
L 1050.25989 524.346214 
L 1055.239569 533.176922 
L 1060.219248 541.059271 
L 1065.198927 543.02678 
L 1070.178606 540.142844 
L 1075.158285 540.110142 
L 1085.117644 561.365321 
L 1090.097323 564.645914 
L 1095.077002 553.972349 
L 1100.056681 540.831511 
L 1105.03636 529.448889 
L 1110.016039 525.428845 
L 1114.995719 532.21856 
L 1119.975398 544.853478 
L 1119.975398 544.853478 
" style="fill:none;stroke:#ff0000;stroke-linecap:square;stroke-width:1.5;"/>
   </g>
   <g id="line2d_36">
    <path clip-path="url(#p0413ebbc38)" d="M 104.120852 561.511519 
L 109.100531 563.293588 
L 114.080211 563.60522 
L 119.05989 568.105022 
L 129.019248 589.30557 
L 133.998927 590.781394 
L 138.978606 586.488192 
L 143.958285 572.073512 
L 148.937965 555.502036 
L 153.917644 551.360802 
L 158.897323 557.685764 
L 163.877002 562.422559 
L 168.856681 562.92771 
L 173.83636 563.557128 
L 178.816039 565.556955 
L 183.795719 577.201963 
L 188.775398 590.579026 
L 193.755077 592.608477 
L 198.734756 580.167077 
L 203.714435 569.245746 
L 208.694114 557.116363 
L 213.673793 548.705011 
L 218.653473 557.587657 
L 223.633152 561.198349 
L 228.612831 561.579231 
L 233.59251 560.123798 
L 238.572189 565.645443 
L 243.551868 575.987755 
L 248.531547 587.481949 
L 253.511227 591.622029 
L 258.490906 582.391202 
L 263.470585 566.673441 
L 268.450264 554.275901 
L 273.429943 547.033744 
L 278.409622 552.948583 
L 283.389301 555.521272 
L 288.368981 562.376007 
L 293.34866 562.472574 
L 298.328339 565.535795 
L 303.308018 577.30661 
L 308.287697 586.518201 
L 313.267376 592.02715 
L 318.247055 579.724253 
L 323.226735 569.308073 
L 328.206414 554.49943 
L 333.186093 546.486273 
L 338.165772 549.472162 
L 343.145451 560.475056 
L 348.12513 562.159789 
L 353.104809 563.115458 
L 358.084489 567.384807 
L 363.064168 578.16879 
L 368.043847 590.788704 
L 373.023526 593.542986 
L 378.003205 583.136424 
L 382.982884 563.154701 
L 387.962564 553.698422 
L 392.942243 550.452839 
L 402.901601 559.289703 
L 407.88128 562.680713 
L 412.860959 561.6027 
L 417.840638 570.172176 
L 427.799997 588.999709 
L 432.779676 593.154024 
L 437.759355 582.891735 
L 442.739034 567.434437 
L 447.718713 557.517252 
L 452.698392 550.092732 
L 457.678072 549.704924 
L 462.657751 561.142178 
L 467.63743 561.511904 
L 472.617109 563.231647 
L 477.596788 568.281613 
L 482.576467 582.101115 
L 487.556146 591.603947 
L 492.535826 590.839488 
L 497.515505 576.519067 
L 502.495184 570.564601 
L 507.474863 556.803193 
L 512.454542 550.836415 
L 517.434221 554.62716 
L 522.4139 560.065319 
L 527.39358 563.258193 
L 532.373259 562.353693 
L 537.352938 566.30564 
L 542.332617 577.81907 
L 547.312296 587.848212 
L 552.291975 591.351564 
L 557.271654 582.962526 
L 562.251334 570.193336 
L 567.231013 555.031126 
L 572.210692 549.145142 
L 577.190371 553.751899 
L 582.17005 559.997606 
L 587.149729 561.693881 
L 592.129408 562.713415 
L 597.109088 567.521386 
L 602.088767 578.516201 
L 607.068446 590.338185 
L 612.048125 593.663022 
L 617.027804 588.290652 
L 622.007483 568.960661 
L 626.987162 557.723467 
L 631.966842 550.792171 
L 636.946521 558.030866 
L 646.905879 563.434784 
L 651.885558 563.022354 
L 656.865237 566.712684 
L 661.844916 578.263049 
L 666.824596 585.481353 
L 671.804275 588.958158 
L 676.783954 579.090218 
L 681.763633 566.96045 
L 686.743312 554.117008 
L 691.722991 548.617677 
L 696.70267 549.502556 
L 701.68235 559.216604 
L 706.662029 559.929894 
L 711.641708 560.770914 
L 716.621387 567.133194 
L 721.601066 578.778587 
L 726.580745 587.531964 
L 731.560424 592.700427 
L 736.540104 580.891524 
L 741.519783 563.445557 
L 746.499462 550.432064 
L 751.479141 546.60477 
L 756.45882 551.038398 
L 761.438499 559.841021 
L 766.418178 561.50267 
L 771.397858 563.023123 
L 776.377537 565.170301 
L 781.357216 575.926968 
L 786.336895 592.172578 
L 791.316574 595.224641 
L 796.296253 583.360337 
L 801.275932 568.046158 
L 806.255612 559.130425 
L 811.235291 549.523331 
L 816.21497 554.694103 
L 821.194649 560.742444 
L 826.174328 562.799595 
L 831.154007 563.082756 
L 836.133686 565.756245 
L 841.113366 576.794534 
L 846.093045 588.438773 
L 851.072724 594.115079 
L 856.052403 584.220978 
L 861.032082 568.487444 
L 866.011761 556.595439 
L 870.991441 547.730105 
L 875.97112 550.264321 
L 880.950799 559.264311 
L 885.930478 562.559139 
L 890.910157 563.097761 
L 895.889836 567.913811 
L 900.869515 579.711557 
L 905.849195 588.251409 
L 910.828874 592.916645 
L 915.808553 582.433137 
L 920.788232 567.240918 
L 925.767911 556.68585 
L 930.74759 547.802434 
L 935.727269 556.397687 
L 940.706949 561.757361 
L 945.686628 563.031972 
L 950.666307 561.344931 
L 955.645986 567.029317 
L 960.625665 580.30558 
L 965.605344 590.269318 
L 970.585023 593.097084 
L 975.564703 585.79991 
L 980.544382 570.5092 
L 985.524061 555.887151 
L 990.50374 550.751005 
L 995.483419 548.234486 
L 1000.463098 557.894672 
L 1005.442777 559.97837 
L 1010.422457 562.281364 
L 1015.402136 565.974002 
L 1020.381815 577.095008 
L 1025.361494 590.529011 
L 1030.341173 593.117475 
L 1035.320852 580.835738 
L 1040.300531 569.728198 
L 1045.280211 559.882957 
L 1050.25989 548.638837 
L 1055.239569 554.403247 
L 1060.219248 558.242468 
L 1065.198927 559.976446 
L 1070.178606 559.607105 
L 1075.158285 563.293588 
L 1085.117644 587.253804 
L 1090.097323 590.916819 
L 1095.077002 580.2698 
L 1100.056681 565.433457 
L 1105.03636 554.347076 
L 1110.016039 548.951623 
L 1114.995719 552.364178 
L 1119.975398 560.307314 
L 1119.975398 560.307314 
" style="fill:none;stroke:#008000;stroke-linecap:square;stroke-width:1.5;"/>
   </g>
   <g id="line2d_37">
    <path clip-path="url(#p0413ebbc38)" d="M 104.120852 574.408054 
L 109.100531 575.999297 
L 114.080211 577.721733 
L 119.05989 585.729119 
L 124.039569 601.40379 
L 129.019248 613.798252 
L 133.998927 615.590324 
L 138.978606 608.779834 
L 143.958285 597.43453 
L 148.937965 578.248044 
L 153.917644 571.898075 
L 158.897323 571.863449 
L 163.877002 575.639959 
L 168.856681 575.444901 
L 173.83636 578.663937 
L 178.816039 585.994198 
L 183.795719 599.703283 
L 188.775398 617.540906 
L 193.755077 618.56044 
L 198.734756 607.936121 
L 203.714435 595.416236 
L 208.694114 581.113898 
L 213.673793 570.927786 
L 218.653473 572.877213 
L 223.633152 573.42353 
L 228.612831 574.352268 
L 233.59251 576.198203 
L 238.572189 585.071231 
L 248.531547 612.327044 
L 253.511227 614.444598 
L 258.490906 605.880893 
L 263.470585 593.396789 
L 268.450264 578.669323 
L 273.429943 568.567852 
L 278.409622 570.242582 
L 283.389301 570.812367 
L 288.368981 575.071713 
L 293.34866 578.705103 
L 298.328339 586.579373 
L 303.308018 600.834005 
L 308.287697 613.214232 
L 313.267376 617.867157 
L 318.247055 603.197401 
L 323.226735 594.319371 
L 328.206414 579.382228 
L 333.186093 571.001654 
L 338.165772 567.933048 
L 343.145451 573.805951 
L 348.12513 574.582336 
L 353.104809 577.55553 
L 358.084489 586.201952 
L 363.064168 601.631165 
L 368.043847 612.792952 
L 373.023526 616.445194 
L 378.003205 610.297209 
L 382.982884 591.074943 
L 387.962564 577.660946 
L 392.942243 571.664929 
L 397.921922 571.150545 
L 407.88128 575.252151 
L 412.860959 577.586308 
L 417.840638 589.55372 
L 422.820318 602.781508 
L 427.799997 614.155281 
L 432.779676 614.152204 
L 437.759355 605.044875 
L 442.739034 589.470619 
L 452.698392 571.731102 
L 457.678072 567.090489 
L 462.657751 573.114207 
L 467.63743 574.087189 
L 472.617109 577.178879 
L 477.596788 585.315919 
L 482.576467 606.494153 
L 487.556146 616.532143 
L 492.535826 617.368546 
L 497.515505 604.001871 
L 502.495184 594.70641 
L 507.474863 581.245476 
L 512.454542 571.69186 
L 517.434221 571.607219 
L 522.4139 572.605978 
L 527.39358 576.189738 
L 532.373259 577.752127 
L 537.352938 586.18387 
L 542.332617 598.562943 
L 547.312296 612.802186 
L 552.291975 616.413647 
L 557.271654 606.369115 
L 562.251334 594.016973 
L 567.231013 579.885455 
L 572.210692 571.09322 
L 577.190371 570.553059 
L 582.17005 572.971857 
L 587.149729 574.594648 
L 592.129408 576.623714 
L 607.068446 614.372269 
L 612.048125 617.723652 
L 617.027804 612.844506 
L 622.007483 593.804218 
L 626.987162 582.560483 
L 631.966842 573.844809 
L 636.946521 573.15191 
L 641.9262 573.947532 
L 646.905879 576.02315 
L 651.885558 578.935172 
L 656.865237 587.650846 
L 661.844916 601.731195 
L 666.824596 610.366075 
L 671.804275 613.006093 
L 676.783954 606.819249 
L 681.763633 594.255506 
L 686.743312 579.986254 
L 691.722991 571.314824 
L 696.70267 569.313459 
L 701.68235 572.707932 
L 706.662029 573.343121 
L 711.641708 576.475208 
L 716.621387 588.025573 
L 721.601066 599.205442 
L 726.580745 609.963263 
L 731.560424 616.120098 
L 736.540104 607.198978 
L 741.519783 589.926908 
L 746.499462 574.768931 
L 751.479141 568.917956 
L 756.45882 569.19073 
L 761.438499 572.81681 
L 766.418178 573.931758 
L 771.397858 576.891101 
L 776.377537 583.082177 
L 781.357216 594.223958 
L 786.336895 614.493074 
L 791.316574 620.61259 
L 796.296253 609.639705 
L 801.275932 594.738342 
L 811.235291 571.624532 
L 816.21497 571.31367 
L 821.194649 574.09219 
L 826.174328 575.341794 
L 831.154007 577.74097 
L 836.133686 586.357768 
L 846.093045 613.371971 
L 851.072724 616.879555 
L 856.052403 611.077057 
L 861.032082 596.411533 
L 866.011761 580.199779 
L 870.991441 571.105147 
L 875.97112 568.976051 
L 880.950799 572.73217 
L 890.910157 577.797525 
L 895.889836 589.032796 
L 900.869515 603.343983 
L 905.849195 612.344357 
L 910.828874 617.814833 
L 915.808553 606.571868 
L 925.767911 581.012714 
L 930.74759 569.81707 
L 935.727269 572.40438 
L 940.706949 574.288403 
L 950.666307 577.066153 
L 955.645986 583.388037 
L 960.625665 603.163929 
L 965.605344 613.419678 
L 970.585023 613.492392 
L 975.564703 608.604012 
L 980.544382 594.559827 
L 985.524061 580.980781 
L 990.50374 572.555194 
L 995.483419 566.95391 
L 1000.463098 570.690792 
L 1005.442777 572.983783 
L 1010.422457 576.411728 
L 1015.402136 584.799227 
L 1020.381815 599.385496 
L 1025.361494 612.559421 
L 1030.341173 614.56271 
L 1035.320852 605.532327 
L 1040.300531 594.125467 
L 1045.280211 582.349266 
L 1050.25989 571.110917 
L 1055.239569 571.6203 
L 1060.219248 572.56058 
L 1065.198927 573.762477 
L 1070.178606 576.210514 
L 1075.158285 584.242907 
L 1080.137965 596.713161 
L 1085.117644 610.847373 
L 1090.097323 615.823855 
L 1095.077002 604.941767 
L 1100.056681 590.28817 
L 1105.03636 577.712115 
L 1110.016039 572.495176 
L 1114.995719 570.873924 
L 1119.975398 573.676682 
L 1119.975398 573.676682 
" style="fill:none;stroke:#0000ff;stroke-linecap:square;stroke-width:1.5;"/>
   </g>
   <g id="line2d_38">
    <defs>
     <path d="M 0 3 
C 0.795609 3 1.55874 2.683901 2.12132 2.12132 
C 2.683901 1.55874 3 0.795609 3 0 
C 3 -0.795609 2.683901 -1.55874 2.12132 -2.12132 
C 1.55874 -2.683901 0.795609 -3 0 -3 
C -0.795609 -3 -1.55874 -2.683901 -2.12132 -2.12132 
C -2.683901 -1.55874 -3 -0.795609 -3 0 
C -3 0.795609 -2.683901 1.55874 -2.12132 2.12132 
C -1.55874 2.683901 -0.795609 3 0 3 
z
" id="m6fa4740feb" style="stroke:#ff0000;"/>
    </defs>
    <g clip-path="url(#p0413ebbc38)">
     <use style="fill:#ff0000;stroke:#ff0000;" x="104.120852" xlink:href="#m6fa4740feb" y="639.849091"/>
     <use style="fill:#ff0000;stroke:#ff0000;" x="109.100531" xlink:href="#m6fa4740feb" y="639.849091"/>
     <use style="fill:#ff0000;stroke:#ff0000;" x="114.080211" xlink:href="#m6fa4740feb" y="639.849091"/>
     <use style="fill:#ff0000;stroke:#ff0000;" x="119.05989" xlink:href="#m6fa4740feb" y="639.849091"/>
     <use style="fill:#ff0000;stroke:#ff0000;" x="133.998927" xlink:href="#m6fa4740feb" y="639.849091"/>
     <use style="fill:#ff0000;stroke:#ff0000;" x="148.937965" xlink:href="#m6fa4740feb" y="639.849091"/>
     <use style="fill:#ff0000;stroke:#ff0000;" x="153.917644" xlink:href="#m6fa4740feb" y="639.849091"/>
     <use style="fill:#ff0000;stroke:#ff0000;" x="158.897323" xlink:href="#m6fa4740feb" y="639.849091"/>
     <use style="fill:#ff0000;stroke:#ff0000;" x="163.877002" xlink:href="#m6fa4740feb" y="639.849091"/>
     <use style="fill:#ff0000;stroke:#ff0000;" x="168.856681" xlink:href="#m6fa4740feb" y="639.849091"/>
     <use style="fill:#ff0000;stroke:#ff0000;" x="173.83636" xlink:href="#m6fa4740feb" y="639.849091"/>
     <use style="fill:#ff0000;stroke:#ff0000;" x="178.816039" xlink:href="#m6fa4740feb" y="639.849091"/>
     <use style="fill:#ff0000;stroke:#ff0000;" x="183.795719" xlink:href="#m6fa4740feb" y="639.849091"/>
     <use style="fill:#ff0000;stroke:#ff0000;" x="188.775398" xlink:href="#m6fa4740feb" y="639.849091"/>
     <use style="fill:#ff0000;stroke:#ff0000;" x="193.755077" xlink:href="#m6fa4740feb" y="639.849091"/>
     <use style="fill:#ff0000;stroke:#ff0000;" x="198.734756" xlink:href="#m6fa4740feb" y="639.849091"/>
     <use style="fill:#ff0000;stroke:#ff0000;" x="203.714435" xlink:href="#m6fa4740feb" y="639.849091"/>
     <use style="fill:#ff0000;stroke:#ff0000;" x="208.694114" xlink:href="#m6fa4740feb" y="639.849091"/>
     <use style="fill:#ff0000;stroke:#ff0000;" x="213.673793" xlink:href="#m6fa4740feb" y="639.849091"/>
     <use style="fill:#ff0000;stroke:#ff0000;" x="218.653473" xlink:href="#m6fa4740feb" y="639.849091"/>
     <use style="fill:#ff0000;stroke:#ff0000;" x="223.633152" xlink:href="#m6fa4740feb" y="639.849091"/>
     <use style="fill:#ff0000;stroke:#ff0000;" x="228.612831" xlink:href="#m6fa4740feb" y="639.849091"/>
     <use style="fill:#ff0000;stroke:#ff0000;" x="233.59251" xlink:href="#m6fa4740feb" y="639.849091"/>
     <use style="fill:#ff0000;stroke:#ff0000;" x="238.572189" xlink:href="#m6fa4740feb" y="639.849091"/>
     <use style="fill:#ff0000;stroke:#ff0000;" x="243.551868" xlink:href="#m6fa4740feb" y="639.849091"/>
     <use style="fill:#ff0000;stroke:#ff0000;" x="248.531547" xlink:href="#m6fa4740feb" y="639.849091"/>
     <use style="fill:#ff0000;stroke:#ff0000;" x="268.450264" xlink:href="#m6fa4740feb" y="639.849091"/>
     <use style="fill:#ff0000;stroke:#ff0000;" x="273.429943" xlink:href="#m6fa4740feb" y="639.849091"/>
     <use style="fill:#ff0000;stroke:#ff0000;" x="278.409622" xlink:href="#m6fa4740feb" y="639.849091"/>
     <use style="fill:#ff0000;stroke:#ff0000;" x="283.389301" xlink:href="#m6fa4740feb" y="639.849091"/>
     <use style="fill:#ff0000;stroke:#ff0000;" x="288.368981" xlink:href="#m6fa4740feb" y="639.849091"/>
     <use style="fill:#ff0000;stroke:#ff0000;" x="293.34866" xlink:href="#m6fa4740feb" y="639.849091"/>
     <use style="fill:#ff0000;stroke:#ff0000;" x="298.328339" xlink:href="#m6fa4740feb" y="639.849091"/>
     <use style="fill:#ff0000;stroke:#ff0000;" x="303.308018" xlink:href="#m6fa4740feb" y="639.849091"/>
     <use style="fill:#ff0000;stroke:#ff0000;" x="308.287697" xlink:href="#m6fa4740feb" y="639.849091"/>
     <use style="fill:#ff0000;stroke:#ff0000;" x="318.247055" xlink:href="#m6fa4740feb" y="639.849091"/>
     <use style="fill:#ff0000;stroke:#ff0000;" x="323.226735" xlink:href="#m6fa4740feb" y="639.849091"/>
     <use style="fill:#ff0000;stroke:#ff0000;" x="328.206414" xlink:href="#m6fa4740feb" y="639.849091"/>
     <use style="fill:#ff0000;stroke:#ff0000;" x="333.186093" xlink:href="#m6fa4740feb" y="639.849091"/>
     <use style="fill:#ff0000;stroke:#ff0000;" x="338.165772" xlink:href="#m6fa4740feb" y="639.849091"/>
     <use style="fill:#ff0000;stroke:#ff0000;" x="343.145451" xlink:href="#m6fa4740feb" y="639.849091"/>
     <use style="fill:#ff0000;stroke:#ff0000;" x="348.12513" xlink:href="#m6fa4740feb" y="639.849091"/>
     <use style="fill:#ff0000;stroke:#ff0000;" x="353.104809" xlink:href="#m6fa4740feb" y="639.849091"/>
     <use style="fill:#ff0000;stroke:#ff0000;" x="358.084489" xlink:href="#m6fa4740feb" y="639.849091"/>
     <use style="fill:#ff0000;stroke:#ff0000;" x="368.043847" xlink:href="#m6fa4740feb" y="639.849091"/>
     <use style="fill:#ff0000;stroke:#ff0000;" x="373.023526" xlink:href="#m6fa4740feb" y="639.849091"/>
     <use style="fill:#ff0000;stroke:#ff0000;" x="387.962564" xlink:href="#m6fa4740feb" y="639.849091"/>
     <use style="fill:#ff0000;stroke:#ff0000;" x="397.921922" xlink:href="#m6fa4740feb" y="639.849091"/>
     <use style="fill:#ff0000;stroke:#ff0000;" x="402.901601" xlink:href="#m6fa4740feb" y="639.849091"/>
     <use style="fill:#ff0000;stroke:#ff0000;" x="407.88128" xlink:href="#m6fa4740feb" y="639.849091"/>
     <use style="fill:#ff0000;stroke:#ff0000;" x="412.860959" xlink:href="#m6fa4740feb" y="639.849091"/>
     <use style="fill:#ff0000;stroke:#ff0000;" x="417.840638" xlink:href="#m6fa4740feb" y="639.849091"/>
     <use style="fill:#ff0000;stroke:#ff0000;" x="427.799997" xlink:href="#m6fa4740feb" y="639.849091"/>
     <use style="fill:#ff0000;stroke:#ff0000;" x="437.759355" xlink:href="#m6fa4740feb" y="639.849091"/>
     <use style="fill:#ff0000;stroke:#ff0000;" x="442.739034" xlink:href="#m6fa4740feb" y="639.849091"/>
     <use style="fill:#ff0000;stroke:#ff0000;" x="452.698392" xlink:href="#m6fa4740feb" y="639.849091"/>
     <use style="fill:#ff0000;stroke:#ff0000;" x="457.678072" xlink:href="#m6fa4740feb" y="639.849091"/>
     <use style="fill:#ff0000;stroke:#ff0000;" x="462.657751" xlink:href="#m6fa4740feb" y="639.849091"/>
     <use style="fill:#ff0000;stroke:#ff0000;" x="467.63743" xlink:href="#m6fa4740feb" y="639.849091"/>
     <use style="fill:#ff0000;stroke:#ff0000;" x="472.617109" xlink:href="#m6fa4740feb" y="639.849091"/>
     <use style="fill:#ff0000;stroke:#ff0000;" x="477.596788" xlink:href="#m6fa4740feb" y="639.849091"/>
     <use style="fill:#ff0000;stroke:#ff0000;" x="482.576467" xlink:href="#m6fa4740feb" y="639.849091"/>
     <use style="fill:#ff0000;stroke:#ff0000;" x="487.556146" xlink:href="#m6fa4740feb" y="639.849091"/>
     <use style="fill:#ff0000;stroke:#ff0000;" x="492.535826" xlink:href="#m6fa4740feb" y="639.849091"/>
     <use style="fill:#ff0000;stroke:#ff0000;" x="502.495184" xlink:href="#m6fa4740feb" y="639.849091"/>
     <use style="fill:#ff0000;stroke:#ff0000;" x="507.474863" xlink:href="#m6fa4740feb" y="639.849091"/>
     <use style="fill:#ff0000;stroke:#ff0000;" x="512.454542" xlink:href="#m6fa4740feb" y="639.849091"/>
     <use style="fill:#ff0000;stroke:#ff0000;" x="517.434221" xlink:href="#m6fa4740feb" y="639.849091"/>
     <use style="fill:#ff0000;stroke:#ff0000;" x="522.4139" xlink:href="#m6fa4740feb" y="639.849091"/>
     <use style="fill:#ff0000;stroke:#ff0000;" x="527.39358" xlink:href="#m6fa4740feb" y="639.849091"/>
     <use style="fill:#ff0000;stroke:#ff0000;" x="532.373259" xlink:href="#m6fa4740feb" y="639.849091"/>
     <use style="fill:#ff0000;stroke:#ff0000;" x="537.352938" xlink:href="#m6fa4740feb" y="639.849091"/>
     <use style="fill:#ff0000;stroke:#ff0000;" x="542.332617" xlink:href="#m6fa4740feb" y="639.849091"/>
     <use style="fill:#ff0000;stroke:#ff0000;" x="557.271654" xlink:href="#m6fa4740feb" y="639.849091"/>
     <use style="fill:#ff0000;stroke:#ff0000;" x="562.251334" xlink:href="#m6fa4740feb" y="639.849091"/>
     <use style="fill:#ff0000;stroke:#ff0000;" x="567.231013" xlink:href="#m6fa4740feb" y="639.849091"/>
     <use style="fill:#ff0000;stroke:#ff0000;" x="572.210692" xlink:href="#m6fa4740feb" y="639.849091"/>
     <use style="fill:#ff0000;stroke:#ff0000;" x="577.190371" xlink:href="#m6fa4740feb" y="639.849091"/>
     <use style="fill:#ff0000;stroke:#ff0000;" x="582.17005" xlink:href="#m6fa4740feb" y="639.849091"/>
     <use style="fill:#ff0000;stroke:#ff0000;" x="587.149729" xlink:href="#m6fa4740feb" y="639.849091"/>
     <use style="fill:#ff0000;stroke:#ff0000;" x="592.129408" xlink:href="#m6fa4740feb" y="639.849091"/>
     <use style="fill:#ff0000;stroke:#ff0000;" x="597.109088" xlink:href="#m6fa4740feb" y="639.849091"/>
     <use style="fill:#ff0000;stroke:#ff0000;" x="602.088767" xlink:href="#m6fa4740feb" y="639.849091"/>
     <use style="fill:#ff0000;stroke:#ff0000;" x="607.068446" xlink:href="#m6fa4740feb" y="639.849091"/>
     <use style="fill:#ff0000;stroke:#ff0000;" x="612.048125" xlink:href="#m6fa4740feb" y="639.849091"/>
     <use style="fill:#ff0000;stroke:#ff0000;" x="617.027804" xlink:href="#m6fa4740feb" y="639.849091"/>
     <use style="fill:#ff0000;stroke:#ff0000;" x="622.007483" xlink:href="#m6fa4740feb" y="639.849091"/>
     <use style="fill:#ff0000;stroke:#ff0000;" x="631.966842" xlink:href="#m6fa4740feb" y="639.849091"/>
     <use style="fill:#ff0000;stroke:#ff0000;" x="636.946521" xlink:href="#m6fa4740feb" y="639.849091"/>
     <use style="fill:#ff0000;stroke:#ff0000;" x="641.9262" xlink:href="#m6fa4740feb" y="639.849091"/>
     <use style="fill:#ff0000;stroke:#ff0000;" x="646.905879" xlink:href="#m6fa4740feb" y="639.849091"/>
     <use style="fill:#ff0000;stroke:#ff0000;" x="651.885558" xlink:href="#m6fa4740feb" y="639.849091"/>
     <use style="fill:#ff0000;stroke:#ff0000;" x="661.844916" xlink:href="#m6fa4740feb" y="639.849091"/>
     <use style="fill:#ff0000;stroke:#ff0000;" x="666.824596" xlink:href="#m6fa4740feb" y="639.849091"/>
     <use style="fill:#ff0000;stroke:#ff0000;" x="671.804275" xlink:href="#m6fa4740feb" y="639.849091"/>
     <use style="fill:#ff0000;stroke:#ff0000;" x="681.763633" xlink:href="#m6fa4740feb" y="639.849091"/>
     <use style="fill:#ff0000;stroke:#ff0000;" x="686.743312" xlink:href="#m6fa4740feb" y="639.849091"/>
     <use style="fill:#ff0000;stroke:#ff0000;" x="691.722991" xlink:href="#m6fa4740feb" y="639.849091"/>
     <use style="fill:#ff0000;stroke:#ff0000;" x="696.70267" xlink:href="#m6fa4740feb" y="639.849091"/>
     <use style="fill:#ff0000;stroke:#ff0000;" x="701.68235" xlink:href="#m6fa4740feb" y="639.849091"/>
     <use style="fill:#ff0000;stroke:#ff0000;" x="706.662029" xlink:href="#m6fa4740feb" y="639.849091"/>
     <use style="fill:#ff0000;stroke:#ff0000;" x="711.641708" xlink:href="#m6fa4740feb" y="639.849091"/>
     <use style="fill:#ff0000;stroke:#ff0000;" x="716.621387" xlink:href="#m6fa4740feb" y="639.849091"/>
     <use style="fill:#ff0000;stroke:#ff0000;" x="721.601066" xlink:href="#m6fa4740feb" y="639.849091"/>
     <use style="fill:#ff0000;stroke:#ff0000;" x="731.560424" xlink:href="#m6fa4740feb" y="639.849091"/>
     <use style="fill:#ff0000;stroke:#ff0000;" x="736.540104" xlink:href="#m6fa4740feb" y="639.849091"/>
     <use style="fill:#ff0000;stroke:#ff0000;" x="741.519783" xlink:href="#m6fa4740feb" y="639.849091"/>
     <use style="fill:#ff0000;stroke:#ff0000;" x="746.499462" xlink:href="#m6fa4740feb" y="639.849091"/>
     <use style="fill:#ff0000;stroke:#ff0000;" x="751.479141" xlink:href="#m6fa4740feb" y="639.849091"/>
     <use style="fill:#ff0000;stroke:#ff0000;" x="761.438499" xlink:href="#m6fa4740feb" y="639.849091"/>
     <use style="fill:#ff0000;stroke:#ff0000;" x="766.418178" xlink:href="#m6fa4740feb" y="639.849091"/>
     <use style="fill:#ff0000;stroke:#ff0000;" x="771.397858" xlink:href="#m6fa4740feb" y="639.849091"/>
     <use style="fill:#ff0000;stroke:#ff0000;" x="776.377537" xlink:href="#m6fa4740feb" y="639.849091"/>
     <use style="fill:#ff0000;stroke:#ff0000;" x="781.357216" xlink:href="#m6fa4740feb" y="639.849091"/>
     <use style="fill:#ff0000;stroke:#ff0000;" x="786.336895" xlink:href="#m6fa4740feb" y="639.849091"/>
     <use style="fill:#ff0000;stroke:#ff0000;" x="791.316574" xlink:href="#m6fa4740feb" y="639.849091"/>
     <use style="fill:#ff0000;stroke:#ff0000;" x="806.255612" xlink:href="#m6fa4740feb" y="639.849091"/>
     <use style="fill:#ff0000;stroke:#ff0000;" x="811.235291" xlink:href="#m6fa4740feb" y="639.849091"/>
     <use style="fill:#ff0000;stroke:#ff0000;" x="816.21497" xlink:href="#m6fa4740feb" y="639.849091"/>
     <use style="fill:#ff0000;stroke:#ff0000;" x="821.194649" xlink:href="#m6fa4740feb" y="639.849091"/>
     <use style="fill:#ff0000;stroke:#ff0000;" x="826.174328" xlink:href="#m6fa4740feb" y="639.849091"/>
     <use style="fill:#ff0000;stroke:#ff0000;" x="831.154007" xlink:href="#m6fa4740feb" y="639.849091"/>
     <use style="fill:#ff0000;stroke:#ff0000;" x="836.133686" xlink:href="#m6fa4740feb" y="639.849091"/>
     <use style="fill:#ff0000;stroke:#ff0000;" x="846.093045" xlink:href="#m6fa4740feb" y="639.849091"/>
     <use style="fill:#ff0000;stroke:#ff0000;" x="851.072724" xlink:href="#m6fa4740feb" y="639.849091"/>
     <use style="fill:#ff0000;stroke:#ff0000;" x="856.052403" xlink:href="#m6fa4740feb" y="639.849091"/>
     <use style="fill:#ff0000;stroke:#ff0000;" x="875.97112" xlink:href="#m6fa4740feb" y="639.849091"/>
     <use style="fill:#ff0000;stroke:#ff0000;" x="880.950799" xlink:href="#m6fa4740feb" y="639.849091"/>
     <use style="fill:#ff0000;stroke:#ff0000;" x="885.930478" xlink:href="#m6fa4740feb" y="639.849091"/>
     <use style="fill:#ff0000;stroke:#ff0000;" x="890.910157" xlink:href="#m6fa4740feb" y="639.849091"/>
     <use style="fill:#ff0000;stroke:#ff0000;" x="900.869515" xlink:href="#m6fa4740feb" y="639.849091"/>
     <use style="fill:#ff0000;stroke:#ff0000;" x="905.849195" xlink:href="#m6fa4740feb" y="639.849091"/>
     <use style="fill:#ff0000;stroke:#ff0000;" x="910.828874" xlink:href="#m6fa4740feb" y="639.849091"/>
     <use style="fill:#ff0000;stroke:#ff0000;" x="920.788232" xlink:href="#m6fa4740feb" y="639.849091"/>
     <use style="fill:#ff0000;stroke:#ff0000;" x="925.767911" xlink:href="#m6fa4740feb" y="639.849091"/>
     <use style="fill:#ff0000;stroke:#ff0000;" x="930.74759" xlink:href="#m6fa4740feb" y="639.849091"/>
     <use style="fill:#ff0000;stroke:#ff0000;" x="935.727269" xlink:href="#m6fa4740feb" y="639.849091"/>
     <use style="fill:#ff0000;stroke:#ff0000;" x="940.706949" xlink:href="#m6fa4740feb" y="639.849091"/>
     <use style="fill:#ff0000;stroke:#ff0000;" x="945.686628" xlink:href="#m6fa4740feb" y="639.849091"/>
     <use style="fill:#ff0000;stroke:#ff0000;" x="955.645986" xlink:href="#m6fa4740feb" y="639.849091"/>
     <use style="fill:#ff0000;stroke:#ff0000;" x="960.625665" xlink:href="#m6fa4740feb" y="639.849091"/>
     <use style="fill:#ff0000;stroke:#ff0000;" x="970.585023" xlink:href="#m6fa4740feb" y="639.849091"/>
     <use style="fill:#ff0000;stroke:#ff0000;" x="980.544382" xlink:href="#m6fa4740feb" y="639.849091"/>
     <use style="fill:#ff0000;stroke:#ff0000;" x="985.524061" xlink:href="#m6fa4740feb" y="639.849091"/>
     <use style="fill:#ff0000;stroke:#ff0000;" x="990.50374" xlink:href="#m6fa4740feb" y="639.849091"/>
     <use style="fill:#ff0000;stroke:#ff0000;" x="995.483419" xlink:href="#m6fa4740feb" y="639.849091"/>
     <use style="fill:#ff0000;stroke:#ff0000;" x="1000.463098" xlink:href="#m6fa4740feb" y="639.849091"/>
     <use style="fill:#ff0000;stroke:#ff0000;" x="1005.442777" xlink:href="#m6fa4740feb" y="639.849091"/>
     <use style="fill:#ff0000;stroke:#ff0000;" x="1010.422457" xlink:href="#m6fa4740feb" y="639.849091"/>
     <use style="fill:#ff0000;stroke:#ff0000;" x="1015.402136" xlink:href="#m6fa4740feb" y="639.849091"/>
     <use style="fill:#ff0000;stroke:#ff0000;" x="1025.361494" xlink:href="#m6fa4740feb" y="639.849091"/>
     <use style="fill:#ff0000;stroke:#ff0000;" x="1030.341173" xlink:href="#m6fa4740feb" y="639.849091"/>
     <use style="fill:#ff0000;stroke:#ff0000;" x="1035.320852" xlink:href="#m6fa4740feb" y="639.849091"/>
     <use style="fill:#ff0000;stroke:#ff0000;" x="1040.300531" xlink:href="#m6fa4740feb" y="639.849091"/>
     <use style="fill:#ff0000;stroke:#ff0000;" x="1045.280211" xlink:href="#m6fa4740feb" y="639.849091"/>
     <use style="fill:#ff0000;stroke:#ff0000;" x="1050.25989" xlink:href="#m6fa4740feb" y="639.849091"/>
     <use style="fill:#ff0000;stroke:#ff0000;" x="1055.239569" xlink:href="#m6fa4740feb" y="639.849091"/>
     <use style="fill:#ff0000;stroke:#ff0000;" x="1060.219248" xlink:href="#m6fa4740feb" y="639.849091"/>
     <use style="fill:#ff0000;stroke:#ff0000;" x="1065.198927" xlink:href="#m6fa4740feb" y="639.849091"/>
     <use style="fill:#ff0000;stroke:#ff0000;" x="1070.178606" xlink:href="#m6fa4740feb" y="639.849091"/>
     <use style="fill:#ff0000;stroke:#ff0000;" x="1075.158285" xlink:href="#m6fa4740feb" y="639.849091"/>
     <use style="fill:#ff0000;stroke:#ff0000;" x="1080.137965" xlink:href="#m6fa4740feb" y="639.849091"/>
     <use style="fill:#ff0000;stroke:#ff0000;" x="1085.117644" xlink:href="#m6fa4740feb" y="639.849091"/>
     <use style="fill:#ff0000;stroke:#ff0000;" x="1090.097323" xlink:href="#m6fa4740feb" y="639.849091"/>
     <use style="fill:#ff0000;stroke:#ff0000;" x="1095.077002" xlink:href="#m6fa4740feb" y="639.849091"/>
     <use style="fill:#ff0000;stroke:#ff0000;" x="1100.056681" xlink:href="#m6fa4740feb" y="639.849091"/>
     <use style="fill:#ff0000;stroke:#ff0000;" x="1105.03636" xlink:href="#m6fa4740feb" y="639.849091"/>
     <use style="fill:#ff0000;stroke:#ff0000;" x="1110.016039" xlink:href="#m6fa4740feb" y="639.849091"/>
     <use style="fill:#ff0000;stroke:#ff0000;" x="1114.995719" xlink:href="#m6fa4740feb" y="639.849091"/>
     <use style="fill:#ff0000;stroke:#ff0000;" x="1119.975398" xlink:href="#m6fa4740feb" y="639.849091"/>
    </g>
   </g>
   <g id="patch_9">
    <path d="M 53.328125 645.74 
L 53.328125 516.14 
" style="fill:none;stroke:#000000;stroke-linecap:square;stroke-linejoin:miter;stroke-width:0.8;"/>
   </g>
   <g id="patch_10">
    <path d="M 1170.768125 645.74 
L 1170.768125 516.14 
" style="fill:none;stroke:#000000;stroke-linecap:square;stroke-linejoin:miter;stroke-width:0.8;"/>
   </g>
   <g id="patch_11">
    <path d="M 53.328125 645.74 
L 1170.768125 645.74 
" style="fill:none;stroke:#000000;stroke-linecap:square;stroke-linejoin:miter;stroke-width:0.8;"/>
   </g>
   <g id="patch_12">
    <path d="M 53.328125 516.14 
L 1170.768125 516.14 
" style="fill:none;stroke:#000000;stroke-linecap:square;stroke-linejoin:miter;stroke-width:0.8;"/>
   </g>
   <g id="legend_2">
    <g id="patch_13">
     <path d="M 60.328125 582.8525 
L 151.340625 582.8525 
Q 153.340625 582.8525 153.340625 580.8525 
L 153.340625 523.14 
Q 153.340625 521.14 151.340625 521.14 
L 60.328125 521.14 
Q 58.328125 521.14 58.328125 523.14 
L 58.328125 580.8525 
Q 58.328125 582.8525 60.328125 582.8525 
z
" style="fill:#ffffff;opacity:0.8;stroke:#cccccc;stroke-linejoin:miter;"/>
    </g>
    <g id="line2d_39">
     <path d="M 62.328125 529.238437 
L 82.328125 529.238437 
" style="fill:none;stroke:#ff0000;stroke-linecap:square;stroke-width:1.5;"/>
    </g>
    <g id="line2d_40"/>
    <g id="text_32">
     <!-- Maxmimum -->
     <defs>
      <path d="M 9.8125 72.90625 
L 24.515625 72.90625 
L 43.109375 23.296875 
L 61.8125 72.90625 
L 76.515625 72.90625 
L 76.515625 0 
L 66.890625 0 
L 66.890625 64.015625 
L 48.09375 14.015625 
L 38.1875 14.015625 
L 19.390625 64.015625 
L 19.390625 0 
L 9.8125 0 
z
" id="DejaVuSans-4d"/>
      <path d="M 54.890625 54.6875 
L 35.109375 28.078125 
L 55.90625 0 
L 45.3125 0 
L 29.390625 21.484375 
L 13.484375 0 
L 2.875 0 
L 24.125 28.609375 
L 4.6875 54.6875 
L 15.28125 54.6875 
L 29.78125 35.203125 
L 44.28125 54.6875 
z
" id="DejaVuSans-78"/>
     </defs>
     <g transform="translate(90.328125 532.738437)scale(0.1 -0.1)">
      <use xlink:href="#DejaVuSans-4d"/>
      <use x="86.279297" xlink:href="#DejaVuSans-61"/>
      <use x="147.558594" xlink:href="#DejaVuSans-78"/>
      <use x="206.738281" xlink:href="#DejaVuSans-6d"/>
      <use x="304.150391" xlink:href="#DejaVuSans-69"/>
      <use x="331.933594" xlink:href="#DejaVuSans-6d"/>
      <use x="429.345703" xlink:href="#DejaVuSans-75"/>
      <use x="492.724609" xlink:href="#DejaVuSans-6d"/>
     </g>
    </g>
    <g id="line2d_41">
     <path d="M 62.328125 543.916562 
L 82.328125 543.916562 
" style="fill:none;stroke:#008000;stroke-linecap:square;stroke-width:1.5;"/>
    </g>
    <g id="line2d_42"/>
    <g id="text_33">
     <!-- Average -->
     <defs>
      <path d="M 34.1875 63.1875 
L 20.796875 26.90625 
L 47.609375 26.90625 
z
M 28.609375 72.90625 
L 39.796875 72.90625 
L 67.578125 0 
L 57.328125 0 
L 50.6875 18.703125 
L 17.828125 18.703125 
L 11.1875 0 
L 0.78125 0 
z
" id="DejaVuSans-41"/>
      <path d="M 2.984375 54.6875 
L 12.5 54.6875 
L 29.59375 8.796875 
L 46.6875 54.6875 
L 56.203125 54.6875 
L 35.6875 0 
L 23.484375 0 
z
" id="DejaVuSans-76"/>
     </defs>
     <g transform="translate(90.328125 547.416562)scale(0.1 -0.1)">
      <use xlink:href="#DejaVuSans-41"/>
      <use x="68.330078" xlink:href="#DejaVuSans-76"/>
      <use x="127.509766" xlink:href="#DejaVuSans-65"/>
      <use x="189.033203" xlink:href="#DejaVuSans-72"/>
      <use x="230.146484" xlink:href="#DejaVuSans-61"/>
      <use x="291.425781" xlink:href="#DejaVuSans-67"/>
      <use x="354.902344" xlink:href="#DejaVuSans-65"/>
     </g>
    </g>
    <g id="line2d_43">
     <path d="M 62.328125 558.594687 
L 82.328125 558.594687 
" style="fill:none;stroke:#0000ff;stroke-linecap:square;stroke-width:1.5;"/>
    </g>
    <g id="line2d_44"/>
    <g id="text_34">
     <!-- Minimum -->
     <g transform="translate(90.328125 562.094687)scale(0.1 -0.1)">
      <use xlink:href="#DejaVuSans-4d"/>
      <use x="86.279297" xlink:href="#DejaVuSans-69"/>
      <use x="114.0625" xlink:href="#DejaVuSans-6e"/>
      <use x="177.441406" xlink:href="#DejaVuSans-69"/>
      <use x="205.224609" xlink:href="#DejaVuSans-6d"/>
      <use x="302.636719" xlink:href="#DejaVuSans-75"/>
      <use x="366.015625" xlink:href="#DejaVuSans-6d"/>
     </g>
    </g>
    <g id="line2d_45"/>
    <g id="line2d_46">
     <g>
      <use style="fill:#ff0000;stroke:#ff0000;" x="72.328125" xlink:href="#m6fa4740feb" y="573.272812"/>
     </g>
    </g>
    <g id="text_35">
     <!-- Disasters -->
     <g transform="translate(90.328125 576.772812)scale(0.1 -0.1)">
      <use xlink:href="#DejaVuSans-44"/>
      <use x="77.001953" xlink:href="#DejaVuSans-69"/>
      <use x="104.785156" xlink:href="#DejaVuSans-73"/>
      <use x="156.884766" xlink:href="#DejaVuSans-61"/>
      <use x="218.164062" xlink:href="#DejaVuSans-73"/>
      <use x="270.263672" xlink:href="#DejaVuSans-74"/>
      <use x="309.472656" xlink:href="#DejaVuSans-65"/>
      <use x="370.996094" xlink:href="#DejaVuSans-72"/>
      <use x="412.109375" xlink:href="#DejaVuSans-73"/>
     </g>
    </g>
   </g>
  </g>
 </g>
 <defs>
  <clipPath id="pbb81593133">
   <rect height="498.96" width="1116" x="53.328125" y="10.7"/>
  </clipPath>
  <clipPath id="p0413ebbc38">
   <rect height="129.6" width="1117.44" x="53.328125" y="516.14"/>
  </clipPath>
 </defs>
</svg>
