<?xml version="1.0" encoding="utf-8" standalone="no"?>
<!DOCTYPE svg PUBLIC "-//W3C//DTD SVG 1.1//EN"
  "http://www.w3.org/Graphics/SVG/1.1/DTD/svg11.dtd">
<!-- Created with matplotlib (http://matplotlib.org/) -->
<svg height="669pt" version="1.1" viewBox="0 0 1175 669" width="1175pt" xmlns="http://www.w3.org/2000/svg" xmlns:xlink="http://www.w3.org/1999/xlink">
 <defs>
  <style type="text/css">
*{stroke-linecap:butt;stroke-linejoin:round;}
  </style>
 </defs>
 <g id="figure_1">
  <g id="patch_1">
   <path d="M 0 669.618125 
L 1175.105625 669.618125 
L 1175.105625 -0 
L 0 -0 
z
" style="fill:none;"/>
  </g>
  <g id="axes_1">
   <g id="patch_2">
    <path d="M 46.965625 509.66 
L 1162.965625 509.66 
L 1162.965625 10.7 
L 46.965625 10.7 
z
" style="fill:none;"/>
   </g>
   <g id="matplotlib.axis_1">
    <g id="xtick_1">
     <g id="line2d_1">
      <defs>
       <path d="M 0 0 
L 0 3.5 
" id="m722af634db" style="stroke:#000000;stroke-width:0.8;"/>
      </defs>
      <g>
       <use style="stroke:#000000;stroke-width:0.8;" x="97.692898" xlink:href="#m722af634db" y="509.66"/>
      </g>
     </g>
     <g id="text_1">
      <!-- 0 -->
      <defs>
       <path d="M 31.78125 66.40625 
Q 24.171875 66.40625 20.328125 58.90625 
Q 16.5 51.421875 16.5 36.375 
Q 16.5 21.390625 20.328125 13.890625 
Q 24.171875 6.390625 31.78125 6.390625 
Q 39.453125 6.390625 43.28125 13.890625 
Q 47.125 21.390625 47.125 36.375 
Q 47.125 51.421875 43.28125 58.90625 
Q 39.453125 66.40625 31.78125 66.40625 
z
M 31.78125 74.21875 
Q 44.046875 74.21875 50.515625 64.515625 
Q 56.984375 54.828125 56.984375 36.375 
Q 56.984375 17.96875 50.515625 8.265625 
Q 44.046875 -1.421875 31.78125 -1.421875 
Q 19.53125 -1.421875 13.0625 8.265625 
Q 6.59375 17.96875 6.59375 36.375 
Q 6.59375 54.828125 13.0625 64.515625 
Q 19.53125 74.21875 31.78125 74.21875 
z
" id="DejaVuSans-30"/>
      </defs>
      <g transform="translate(94.511648 524.258437)scale(0.1 -0.1)">
       <use xlink:href="#DejaVuSans-30"/>
      </g>
     </g>
    </g>
    <g id="xtick_2">
     <g id="line2d_2">
      <g>
       <use style="stroke:#000000;stroke-width:0.8;" x="340.407121" xlink:href="#m722af634db" y="509.66"/>
      </g>
     </g>
     <g id="text_2">
      <!-- 50 -->
      <defs>
       <path d="M 10.796875 72.90625 
L 49.515625 72.90625 
L 49.515625 64.59375 
L 19.828125 64.59375 
L 19.828125 46.734375 
Q 21.96875 47.46875 24.109375 47.828125 
Q 26.265625 48.1875 28.421875 48.1875 
Q 40.625 48.1875 47.75 41.5 
Q 54.890625 34.8125 54.890625 23.390625 
Q 54.890625 11.625 47.5625 5.09375 
Q 40.234375 -1.421875 26.90625 -1.421875 
Q 22.3125 -1.421875 17.546875 -0.640625 
Q 12.796875 0.140625 7.71875 1.703125 
L 7.71875 11.625 
Q 12.109375 9.234375 16.796875 8.0625 
Q 21.484375 6.890625 26.703125 6.890625 
Q 35.15625 6.890625 40.078125 11.328125 
Q 45.015625 15.765625 45.015625 23.390625 
Q 45.015625 31 40.078125 35.4375 
Q 35.15625 39.890625 26.703125 39.890625 
Q 22.75 39.890625 18.8125 39.015625 
Q 14.890625 38.140625 10.796875 36.28125 
z
" id="DejaVuSans-35"/>
      </defs>
      <g transform="translate(334.044621 524.258437)scale(0.1 -0.1)">
       <use xlink:href="#DejaVuSans-35"/>
       <use x="63.623047" xlink:href="#DejaVuSans-30"/>
      </g>
     </g>
    </g>
    <g id="xtick_3">
     <g id="line2d_3">
      <g>
       <use style="stroke:#000000;stroke-width:0.8;" x="583.121345" xlink:href="#m722af634db" y="509.66"/>
      </g>
     </g>
     <g id="text_3">
      <!-- 100 -->
      <defs>
       <path d="M 12.40625 8.296875 
L 28.515625 8.296875 
L 28.515625 63.921875 
L 10.984375 60.40625 
L 10.984375 69.390625 
L 28.421875 72.90625 
L 38.28125 72.90625 
L 38.28125 8.296875 
L 54.390625 8.296875 
L 54.390625 0 
L 12.40625 0 
z
" id="DejaVuSans-31"/>
      </defs>
      <g transform="translate(573.577595 524.258437)scale(0.1 -0.1)">
       <use xlink:href="#DejaVuSans-31"/>
       <use x="63.623047" xlink:href="#DejaVuSans-30"/>
       <use x="127.246094" xlink:href="#DejaVuSans-30"/>
      </g>
     </g>
    </g>
    <g id="xtick_4">
     <g id="line2d_4">
      <g>
       <use style="stroke:#000000;stroke-width:0.8;" x="825.835568" xlink:href="#m722af634db" y="509.66"/>
      </g>
     </g>
     <g id="text_4">
      <!-- 150 -->
      <g transform="translate(816.291818 524.258437)scale(0.1 -0.1)">
       <use xlink:href="#DejaVuSans-31"/>
       <use x="63.623047" xlink:href="#DejaVuSans-35"/>
       <use x="127.246094" xlink:href="#DejaVuSans-30"/>
      </g>
     </g>
    </g>
    <g id="xtick_5">
     <g id="line2d_5">
      <g>
       <use style="stroke:#000000;stroke-width:0.8;" x="1068.549792" xlink:href="#m722af634db" y="509.66"/>
      </g>
     </g>
     <g id="text_5">
      <!-- 200 -->
      <defs>
       <path d="M 19.1875 8.296875 
L 53.609375 8.296875 
L 53.609375 0 
L 7.328125 0 
L 7.328125 8.296875 
Q 12.9375 14.109375 22.625 23.890625 
Q 32.328125 33.6875 34.8125 36.53125 
Q 39.546875 41.84375 41.421875 45.53125 
Q 43.3125 49.21875 43.3125 52.78125 
Q 43.3125 58.59375 39.234375 62.25 
Q 35.15625 65.921875 28.609375 65.921875 
Q 23.96875 65.921875 18.8125 64.3125 
Q 13.671875 62.703125 7.8125 59.421875 
L 7.8125 69.390625 
Q 13.765625 71.78125 18.9375 73 
Q 24.125 74.21875 28.421875 74.21875 
Q 39.75 74.21875 46.484375 68.546875 
Q 53.21875 62.890625 53.21875 53.421875 
Q 53.21875 48.921875 51.53125 44.890625 
Q 49.859375 40.875 45.40625 35.40625 
Q 44.1875 33.984375 37.640625 27.21875 
Q 31.109375 20.453125 19.1875 8.296875 
z
" id="DejaVuSans-32"/>
      </defs>
      <g transform="translate(1059.006042 524.258437)scale(0.1 -0.1)">
       <use xlink:href="#DejaVuSans-32"/>
       <use x="63.623047" xlink:href="#DejaVuSans-30"/>
       <use x="127.246094" xlink:href="#DejaVuSans-30"/>
      </g>
     </g>
    </g>
    <g id="text_6">
     <!-- Time -->
     <defs>
      <path d="M -0.296875 72.90625 
L 61.375 72.90625 
L 61.375 64.59375 
L 35.5 64.59375 
L 35.5 0 
L 25.59375 0 
L 25.59375 64.59375 
L -0.296875 64.59375 
z
" id="DejaVuSans-54"/>
      <path d="M 9.421875 54.6875 
L 18.40625 54.6875 
L 18.40625 0 
L 9.421875 0 
z
M 9.421875 75.984375 
L 18.40625 75.984375 
L 18.40625 64.59375 
L 9.421875 64.59375 
z
" id="DejaVuSans-69"/>
      <path d="M 52 44.1875 
Q 55.375 50.25 60.0625 53.125 
Q 64.75 56 71.09375 56 
Q 79.640625 56 84.28125 50.015625 
Q 88.921875 44.046875 88.921875 33.015625 
L 88.921875 0 
L 79.890625 0 
L 79.890625 32.71875 
Q 79.890625 40.578125 77.09375 44.375 
Q 74.3125 48.1875 68.609375 48.1875 
Q 61.625 48.1875 57.5625 43.546875 
Q 53.515625 38.921875 53.515625 30.90625 
L 53.515625 0 
L 44.484375 0 
L 44.484375 32.71875 
Q 44.484375 40.625 41.703125 44.40625 
Q 38.921875 48.1875 33.109375 48.1875 
Q 26.21875 48.1875 22.15625 43.53125 
Q 18.109375 38.875 18.109375 30.90625 
L 18.109375 0 
L 9.078125 0 
L 9.078125 54.6875 
L 18.109375 54.6875 
L 18.109375 46.1875 
Q 21.1875 51.21875 25.484375 53.609375 
Q 29.78125 56 35.6875 56 
Q 41.65625 56 45.828125 52.96875 
Q 50 49.953125 52 44.1875 
z
" id="DejaVuSans-6d"/>
      <path d="M 56.203125 29.59375 
L 56.203125 25.203125 
L 14.890625 25.203125 
Q 15.484375 15.921875 20.484375 11.0625 
Q 25.484375 6.203125 34.421875 6.203125 
Q 39.59375 6.203125 44.453125 7.46875 
Q 49.3125 8.734375 54.109375 11.28125 
L 54.109375 2.78125 
Q 49.265625 0.734375 44.1875 -0.34375 
Q 39.109375 -1.421875 33.890625 -1.421875 
Q 20.796875 -1.421875 13.15625 6.1875 
Q 5.515625 13.8125 5.515625 26.8125 
Q 5.515625 40.234375 12.765625 48.109375 
Q 20.015625 56 32.328125 56 
Q 43.359375 56 49.78125 48.890625 
Q 56.203125 41.796875 56.203125 29.59375 
z
M 47.21875 32.234375 
Q 47.125 39.59375 43.09375 43.984375 
Q 39.0625 48.390625 32.421875 48.390625 
Q 24.90625 48.390625 20.390625 44.140625 
Q 15.875 39.890625 15.1875 32.171875 
z
" id="DejaVuSans-65"/>
     </defs>
     <g transform="translate(592.578125 537.936562)scale(0.1 -0.1)">
      <use xlink:href="#DejaVuSans-54"/>
      <use x="61.037109" xlink:href="#DejaVuSans-69"/>
      <use x="88.820312" xlink:href="#DejaVuSans-6d"/>
      <use x="186.232422" xlink:href="#DejaVuSans-65"/>
     </g>
    </g>
   </g>
   <g id="matplotlib.axis_2">
    <g id="ytick_1">
     <g id="line2d_6">
      <defs>
       <path d="M 0 0 
L -3.5 0 
" id="m12216eccfc" style="stroke:#000000;stroke-width:0.8;"/>
      </defs>
      <g>
       <use style="stroke:#000000;stroke-width:0.8;" x="46.965625" xlink:href="#m12216eccfc" y="495.991921"/>
      </g>
     </g>
     <g id="text_7">
      <!-- 0 -->
      <g transform="translate(33.603125 499.791139)scale(0.1 -0.1)">
       <use xlink:href="#DejaVuSans-30"/>
      </g>
     </g>
    </g>
    <g id="ytick_2">
     <g id="line2d_7">
      <g>
       <use style="stroke:#000000;stroke-width:0.8;" x="46.965625" xlink:href="#m12216eccfc" y="395.85947"/>
      </g>
     </g>
     <g id="text_8">
      <!-- 200 -->
      <g transform="translate(20.878125 399.658689)scale(0.1 -0.1)">
       <use xlink:href="#DejaVuSans-32"/>
       <use x="63.623047" xlink:href="#DejaVuSans-30"/>
       <use x="127.246094" xlink:href="#DejaVuSans-30"/>
      </g>
     </g>
    </g>
    <g id="ytick_3">
     <g id="line2d_8">
      <g>
       <use style="stroke:#000000;stroke-width:0.8;" x="46.965625" xlink:href="#m12216eccfc" y="295.72702"/>
      </g>
     </g>
     <g id="text_9">
      <!-- 400 -->
      <defs>
       <path d="M 37.796875 64.3125 
L 12.890625 25.390625 
L 37.796875 25.390625 
z
M 35.203125 72.90625 
L 47.609375 72.90625 
L 47.609375 25.390625 
L 58.015625 25.390625 
L 58.015625 17.1875 
L 47.609375 17.1875 
L 47.609375 0 
L 37.796875 0 
L 37.796875 17.1875 
L 4.890625 17.1875 
L 4.890625 26.703125 
z
" id="DejaVuSans-34"/>
      </defs>
      <g transform="translate(20.878125 299.526239)scale(0.1 -0.1)">
       <use xlink:href="#DejaVuSans-34"/>
       <use x="63.623047" xlink:href="#DejaVuSans-30"/>
       <use x="127.246094" xlink:href="#DejaVuSans-30"/>
      </g>
     </g>
    </g>
    <g id="ytick_4">
     <g id="line2d_9">
      <g>
       <use style="stroke:#000000;stroke-width:0.8;" x="46.965625" xlink:href="#m12216eccfc" y="195.59457"/>
      </g>
     </g>
     <g id="text_10">
      <!-- 600 -->
      <defs>
       <path d="M 33.015625 40.375 
Q 26.375 40.375 22.484375 35.828125 
Q 18.609375 31.296875 18.609375 23.390625 
Q 18.609375 15.53125 22.484375 10.953125 
Q 26.375 6.390625 33.015625 6.390625 
Q 39.65625 6.390625 43.53125 10.953125 
Q 47.40625 15.53125 47.40625 23.390625 
Q 47.40625 31.296875 43.53125 35.828125 
Q 39.65625 40.375 33.015625 40.375 
z
M 52.59375 71.296875 
L 52.59375 62.3125 
Q 48.875 64.0625 45.09375 64.984375 
Q 41.3125 65.921875 37.59375 65.921875 
Q 27.828125 65.921875 22.671875 59.328125 
Q 17.53125 52.734375 16.796875 39.40625 
Q 19.671875 43.65625 24.015625 45.921875 
Q 28.375 48.1875 33.59375 48.1875 
Q 44.578125 48.1875 50.953125 41.515625 
Q 57.328125 34.859375 57.328125 23.390625 
Q 57.328125 12.15625 50.6875 5.359375 
Q 44.046875 -1.421875 33.015625 -1.421875 
Q 20.359375 -1.421875 13.671875 8.265625 
Q 6.984375 17.96875 6.984375 36.375 
Q 6.984375 53.65625 15.1875 63.9375 
Q 23.390625 74.21875 37.203125 74.21875 
Q 40.921875 74.21875 44.703125 73.484375 
Q 48.484375 72.75 52.59375 71.296875 
z
" id="DejaVuSans-36"/>
      </defs>
      <g transform="translate(20.878125 199.393788)scale(0.1 -0.1)">
       <use xlink:href="#DejaVuSans-36"/>
       <use x="63.623047" xlink:href="#DejaVuSans-30"/>
       <use x="127.246094" xlink:href="#DejaVuSans-30"/>
      </g>
     </g>
    </g>
    <g id="ytick_5">
     <g id="line2d_10">
      <g>
       <use style="stroke:#000000;stroke-width:0.8;" x="46.965625" xlink:href="#m12216eccfc" y="95.462119"/>
      </g>
     </g>
     <g id="text_11">
      <!-- 800 -->
      <defs>
       <path d="M 31.78125 34.625 
Q 24.75 34.625 20.71875 30.859375 
Q 16.703125 27.09375 16.703125 20.515625 
Q 16.703125 13.921875 20.71875 10.15625 
Q 24.75 6.390625 31.78125 6.390625 
Q 38.8125 6.390625 42.859375 10.171875 
Q 46.921875 13.96875 46.921875 20.515625 
Q 46.921875 27.09375 42.890625 30.859375 
Q 38.875 34.625 31.78125 34.625 
z
M 21.921875 38.8125 
Q 15.578125 40.375 12.03125 44.71875 
Q 8.5 49.078125 8.5 55.328125 
Q 8.5 64.0625 14.71875 69.140625 
Q 20.953125 74.21875 31.78125 74.21875 
Q 42.671875 74.21875 48.875 69.140625 
Q 55.078125 64.0625 55.078125 55.328125 
Q 55.078125 49.078125 51.53125 44.71875 
Q 48 40.375 41.703125 38.8125 
Q 48.828125 37.15625 52.796875 32.3125 
Q 56.78125 27.484375 56.78125 20.515625 
Q 56.78125 9.90625 50.3125 4.234375 
Q 43.84375 -1.421875 31.78125 -1.421875 
Q 19.734375 -1.421875 13.25 4.234375 
Q 6.78125 9.90625 6.78125 20.515625 
Q 6.78125 27.484375 10.78125 32.3125 
Q 14.796875 37.15625 21.921875 38.8125 
z
M 18.3125 54.390625 
Q 18.3125 48.734375 21.84375 45.5625 
Q 25.390625 42.390625 31.78125 42.390625 
Q 38.140625 42.390625 41.71875 45.5625 
Q 45.3125 48.734375 45.3125 54.390625 
Q 45.3125 60.0625 41.71875 63.234375 
Q 38.140625 66.40625 31.78125 66.40625 
Q 25.390625 66.40625 21.84375 63.234375 
Q 18.3125 60.0625 18.3125 54.390625 
z
" id="DejaVuSans-38"/>
      </defs>
      <g transform="translate(20.878125 99.261338)scale(0.1 -0.1)">
       <use xlink:href="#DejaVuSans-38"/>
       <use x="63.623047" xlink:href="#DejaVuSans-30"/>
       <use x="127.246094" xlink:href="#DejaVuSans-30"/>
      </g>
     </g>
    </g>
    <g id="text_12">
     <!-- Refugees -->
     <defs>
      <path d="M 44.390625 34.1875 
Q 47.5625 33.109375 50.5625 29.59375 
Q 53.5625 26.078125 56.59375 19.921875 
L 66.609375 0 
L 56 0 
L 46.6875 18.703125 
Q 43.0625 26.03125 39.671875 28.421875 
Q 36.28125 30.8125 30.421875 30.8125 
L 19.671875 30.8125 
L 19.671875 0 
L 9.8125 0 
L 9.8125 72.90625 
L 32.078125 72.90625 
Q 44.578125 72.90625 50.734375 67.671875 
Q 56.890625 62.453125 56.890625 51.90625 
Q 56.890625 45.015625 53.6875 40.46875 
Q 50.484375 35.9375 44.390625 34.1875 
z
M 19.671875 64.796875 
L 19.671875 38.921875 
L 32.078125 38.921875 
Q 39.203125 38.921875 42.84375 42.21875 
Q 46.484375 45.515625 46.484375 51.90625 
Q 46.484375 58.296875 42.84375 61.546875 
Q 39.203125 64.796875 32.078125 64.796875 
z
" id="DejaVuSans-52"/>
      <path d="M 37.109375 75.984375 
L 37.109375 68.5 
L 28.515625 68.5 
Q 23.6875 68.5 21.796875 66.546875 
Q 19.921875 64.59375 19.921875 59.515625 
L 19.921875 54.6875 
L 34.71875 54.6875 
L 34.71875 47.703125 
L 19.921875 47.703125 
L 19.921875 0 
L 10.890625 0 
L 10.890625 47.703125 
L 2.296875 47.703125 
L 2.296875 54.6875 
L 10.890625 54.6875 
L 10.890625 58.5 
Q 10.890625 67.625 15.140625 71.796875 
Q 19.390625 75.984375 28.609375 75.984375 
z
" id="DejaVuSans-66"/>
      <path d="M 8.5 21.578125 
L 8.5 54.6875 
L 17.484375 54.6875 
L 17.484375 21.921875 
Q 17.484375 14.15625 20.5 10.265625 
Q 23.53125 6.390625 29.59375 6.390625 
Q 36.859375 6.390625 41.078125 11.03125 
Q 45.3125 15.671875 45.3125 23.6875 
L 45.3125 54.6875 
L 54.296875 54.6875 
L 54.296875 0 
L 45.3125 0 
L 45.3125 8.40625 
Q 42.046875 3.421875 37.71875 1 
Q 33.40625 -1.421875 27.6875 -1.421875 
Q 18.265625 -1.421875 13.375 4.4375 
Q 8.5 10.296875 8.5 21.578125 
z
M 31.109375 56 
z
" id="DejaVuSans-75"/>
      <path d="M 45.40625 27.984375 
Q 45.40625 37.75 41.375 43.109375 
Q 37.359375 48.484375 30.078125 48.484375 
Q 22.859375 48.484375 18.828125 43.109375 
Q 14.796875 37.75 14.796875 27.984375 
Q 14.796875 18.265625 18.828125 12.890625 
Q 22.859375 7.515625 30.078125 7.515625 
Q 37.359375 7.515625 41.375 12.890625 
Q 45.40625 18.265625 45.40625 27.984375 
z
M 54.390625 6.78125 
Q 54.390625 -7.171875 48.1875 -13.984375 
Q 42 -20.796875 29.203125 -20.796875 
Q 24.46875 -20.796875 20.265625 -20.09375 
Q 16.0625 -19.390625 12.109375 -17.921875 
L 12.109375 -9.1875 
Q 16.0625 -11.328125 19.921875 -12.34375 
Q 23.78125 -13.375 27.78125 -13.375 
Q 36.625 -13.375 41.015625 -8.765625 
Q 45.40625 -4.15625 45.40625 5.171875 
L 45.40625 9.625 
Q 42.625 4.78125 38.28125 2.390625 
Q 33.9375 0 27.875 0 
Q 17.828125 0 11.671875 7.65625 
Q 5.515625 15.328125 5.515625 27.984375 
Q 5.515625 40.671875 11.671875 48.328125 
Q 17.828125 56 27.875 56 
Q 33.9375 56 38.28125 53.609375 
Q 42.625 51.21875 45.40625 46.390625 
L 45.40625 54.6875 
L 54.390625 54.6875 
z
" id="DejaVuSans-67"/>
      <path d="M 44.28125 53.078125 
L 44.28125 44.578125 
Q 40.484375 46.53125 36.375 47.5 
Q 32.28125 48.484375 27.875 48.484375 
Q 21.1875 48.484375 17.84375 46.4375 
Q 14.5 44.390625 14.5 40.28125 
Q 14.5 37.15625 16.890625 35.375 
Q 19.28125 33.59375 26.515625 31.984375 
L 29.59375 31.296875 
Q 39.15625 29.25 43.1875 25.515625 
Q 47.21875 21.78125 47.21875 15.09375 
Q 47.21875 7.46875 41.1875 3.015625 
Q 35.15625 -1.421875 24.609375 -1.421875 
Q 20.21875 -1.421875 15.453125 -0.5625 
Q 10.6875 0.296875 5.421875 2 
L 5.421875 11.28125 
Q 10.40625 8.6875 15.234375 7.390625 
Q 20.0625 6.109375 24.8125 6.109375 
Q 31.15625 6.109375 34.5625 8.28125 
Q 37.984375 10.453125 37.984375 14.40625 
Q 37.984375 18.0625 35.515625 20.015625 
Q 33.0625 21.96875 24.703125 23.78125 
L 21.578125 24.515625 
Q 13.234375 26.265625 9.515625 29.90625 
Q 5.8125 33.546875 5.8125 39.890625 
Q 5.8125 47.609375 11.28125 51.796875 
Q 16.75 56 26.8125 56 
Q 31.78125 56 36.171875 55.265625 
Q 40.578125 54.546875 44.28125 53.078125 
z
" id="DejaVuSans-73"/>
     </defs>
     <g style="fill:#ff7f0e;" transform="translate(14.798438 283.588594)rotate(-90)scale(0.1 -0.1)">
      <use xlink:href="#DejaVuSans-52"/>
      <use x="69.419922" xlink:href="#DejaVuSans-65"/>
      <use x="130.943359" xlink:href="#DejaVuSans-66"/>
      <use x="166.148438" xlink:href="#DejaVuSans-75"/>
      <use x="229.527344" xlink:href="#DejaVuSans-67"/>
      <use x="293.003906" xlink:href="#DejaVuSans-65"/>
      <use x="354.527344" xlink:href="#DejaVuSans-65"/>
      <use x="416.050781" xlink:href="#DejaVuSans-73"/>
     </g>
    </g>
   </g>
   <g id="line2d_11">
    <path clip-path="url(#pf0ecb8ea35)" d="M 97.692898 429.107994 
L 102.547182 427.510185 
L 107.401467 428.30561 
L 112.255751 430.297128 
L 117.110036 431.083011 
L 121.96432 425.412928 
L 126.818605 467.999243 
L 131.672889 466.570341 
L 136.527173 467.120781 
L 141.381458 469.351404 
L 146.235742 469.702509 
L 151.090027 464.734464 
L 155.944311 417.562319 
L 160.798596 414.218892 
L 165.65288 414.734031 
L 170.507165 417.50956 
L 175.361449 420.036615 
L 180.215734 415.412189 
L 185.070018 379.689873 
L 189.924303 381.720628 
L 194.778587 378.461381 
L 199.632872 369.274538 
L 204.487156 358.758393 
L 209.341441 346.180201 
L 214.195725 352.278859 
L 219.05001 354.689473 
L 223.904294 357.357614 
L 228.758578 355.991855 
L 233.612863 353.133124 
L 238.467147 345.124544 
L 243.321432 389.674462 
L 248.175716 391.274594 
L 253.030001 404.391248 
L 257.884285 414.998648 
L 262.73857 405.430533 
L 267.592854 399.922324 
L 272.447139 379.016161 
L 277.301423 378.23053 
L 282.155708 385.366594 
L 287.009992 393.498475 
L 291.864277 396.739999 
L 296.718561 393.947678 
L 301.572846 356.198213 
L 306.42713 323.396371 
L 311.281414 295.744178 
L 316.135699 279.926395 
L 320.989983 278.561202 
L 325.844268 269.858543 
L 330.698552 364.568981 
L 335.552837 367.459309 
L 340.407121 377.879549 
L 345.261406 387.848729 
L 350.11569 391.768297 
L 354.969975 387.691386 
L 359.824259 379.157874 
L 364.678544 378.760574 
L 369.532828 380.511914 
L 374.387113 381.960814 
L 379.241397 382.377205 
L 384.095682 375.144126 
L 388.949966 429.107994 
L 393.80425 427.510185 
L 398.658535 428.30561 
L 403.512819 430.297128 
L 408.367104 431.083011 
L 413.221388 425.412928 
L 418.075673 421.088162 
L 422.929957 418.126893 
L 427.784242 418.696204 
L 432.638526 421.308408 
L 437.492811 423.447254 
L 442.347095 418.615133 
L 447.20138 443.762342 
L 452.055664 442.228178 
L 456.909949 442.931298 
L 461.764233 445.012913 
L 466.618518 445.634967 
L 471.472802 440.229417 
L 476.327087 456.043961 
L 481.181371 454.563139 
L 486.035655 455.188883 
L 490.88994 457.346006 
L 495.744224 457.830767 
L 500.598509 452.646912 
L 505.452793 365.907268 
L 510.307078 334.533539 
L 515.161362 309.116893 
L 520.015647 295.734216 
L 524.869931 295.898175 
L 529.724216 288.280494 
L 534.5785 439.447167 
L 539.432785 438.060322 
L 544.287069 438.938025 
L 549.141354 441.071336 
L 553.995638 441.744357 
L 558.849923 436.268058 
L 563.704207 434.912428 
L 568.558491 433.339837 
L 573.412776 434.098696 
L 578.26706 436.125898 
L 583.121345 436.846899 
L 587.975629 431.281584 
L 592.829914 432.278887 
L 597.684198 430.694848 
L 602.538483 431.470303 
L 607.392767 433.481317 
L 612.247052 434.231749 
L 617.101336 428.618913 
L 621.955621 442.698167 
L 626.809905 441.159377 
L 631.66419 441.869201 
L 636.518474 443.944269 
L 641.372759 444.578225 
L 646.227043 439.153462 
L 651.081327 460.20968 
L 655.935612 458.746953 
L 660.789896 459.346459 
L 665.644181 461.52919 
L 670.498465 461.96738 
L 675.35275 456.858721 
L 680.207034 453.592644 
L 685.061319 452.101173 
L 689.915603 452.742371 
L 694.769888 454.884411 
L 699.624172 455.396578 
L 704.478457 450.168475 
L 709.332741 473.86494 
L 714.187026 472.461513 
L 719.04131 472.975011 
L 723.895595 475.241687 
L 728.749879 475.527221 
L 733.604163 470.665056 
L 738.458448 466.22706 
L 743.312732 464.790468 
L 748.167017 465.352072 
L 753.021301 467.571794 
L 757.875586 467.942716 
L 762.72987 462.942677 
L 767.584155 463.53687 
L 772.438439 462.088592 
L 777.292724 462.667143 
L 782.147008 464.870327 
L 787.001293 465.271321 
L 791.855577 460.222721 
L 796.709862 469.221551 
L 801.564146 467.797959 
L 806.418431 468.340702 
L 811.272715 470.578833 
L 816.127 470.916279 
L 820.981284 465.970293 
L 825.835568 470.940716 
L 830.689853 469.524589 
L 835.544137 470.056507 
L 840.398422 472.305205 
L 845.252706 472.623432 
L 850.106991 467.708483 
L 854.961275 475.339549 
L 859.81556 473.942523 
L 864.669844 474.446736 
L 869.524129 476.722474 
L 874.378413 476.99153 
L 879.232698 472.155981 
L 884.086982 478.726302 
L 888.941267 477.343992 
L 893.795551 477.826856 
L 898.649836 480.123432 
L 903.50412 480.354617 
L 908.358404 475.580203 
L 913.212689 477.628888 
L 918.066973 476.24181 
L 922.921258 476.731588 
L 927.775542 479.021412 
L 932.629827 479.264869 
L 937.484111 474.470648 
L 942.338396 475.575119 
L 947.19268 474.179124 
L 952.046965 474.681842 
L 956.901249 476.959041 
L 961.755534 477.225451 
L 966.609818 472.394155 
L 971.464103 479.535604 
L 976.318387 478.156804 
L 981.172672 478.634578 
L 986.026956 480.93612 
L 990.88124 481.158262 
L 995.735525 476.398458 
L 1000.589809 474.011541 
L 1005.444094 472.608747 
L 1010.298378 473.121321 
L 1015.152663 475.388898 
L 1020.006947 475.672799 
L 1024.861232 470.813279 
L 1029.715516 455.283781 
L 1034.569801 453.799655 
L 1039.424085 454.4302 
L 1044.27837 456.582641 
L 1049.132654 457.075897 
L 1053.986939 451.878321 
L 1058.841223 386.153027 
L 1063.695508 388.521784 
L 1068.549792 401.655734 
L 1073.404077 411.559719 
L 1078.258361 401.503494 
L 1083.112645 395.582515 
L 1087.96693 386.755081 
L 1092.821214 381.642606 
L 1097.675499 392.768926 
L 1102.529783 408.620147 
L 1107.384068 418.911424 
L 1112.238352 423.039007 
L 1112.238352 423.039007 
" style="fill:none;stroke:#008000;stroke-dasharray:5.55,2.4;stroke-dashoffset:0;stroke-width:1.5;"/>
   </g>
   <g id="line2d_12">
    <path clip-path="url(#pf0ecb8ea35)" d="M 97.692898 452.434305 
L 102.547182 470.958808 
L 107.401467 467.954834 
L 112.255751 457.941589 
L 117.110036 473.462119 
L 121.96432 474.463444 
L 126.818605 438.916424 
L 131.672889 442.921722 
L 136.527173 415.88596 
L 141.381458 438.415762 
L 146.235742 436.413113 
L 151.090027 422.895232 
L 155.944311 421.393245 
L 160.798596 401.366755 
L 165.65288 417.888609 
L 170.507165 418.889934 
L 175.361449 404.871391 
L 180.215734 421.893907 
L 185.070018 412.381325 
L 189.924303 413.382649 
L 194.778587 363.817086 
L 199.632872 377.835629 
L 204.487156 361.313775 
L 209.341441 287.215762 
L 214.195725 343.289934 
L 219.05001 349.297881 
L 223.904294 358.810464 
L 228.758578 407.875364 
L 233.612863 381.840927 
L 238.467147 376.333642 
L 243.321432 365.319073 
L 248.175716 399.864768 
L 253.030001 369.825033 
L 257.884285 370.325695 
L 262.73857 397.862119 
L 267.592854 384.844901 
L 272.447139 413.382649 
L 277.301423 391.35351 
L 282.155708 426.399868 
L 287.009992 412.381325 
L 291.864277 409.377351 
L 296.718561 433.909801 
L 301.572846 412.881987 
L 306.42713 248.164106 
L 311.281414 137.517748 
L 316.135699 33.38 
L 320.989983 359.311126 
L 325.844268 372.328344 
L 330.698552 342.789272 
L 335.552837 366.82106 
L 340.407121 371.827682 
L 345.261406 368.823709 
L 350.11569 391.35351 
L 354.969975 391.35351 
L 359.824259 389.851523 
L 364.678544 412.381325 
L 369.532828 377.334967 
L 374.387113 401.366755 
L 379.241397 415.385298 
L 384.095682 433.409139 
L 388.949966 423.896556 
L 393.80425 429.904503 
L 398.658535 434.911126 
L 403.512819 429.904503 
L 408.367104 434.410464 
L 413.221388 444.924371 
L 418.075673 456.439603 
L 422.929957 454.937616 
L 427.784242 451.43298 
L 432.638526 460.945563 
L 437.492811 465.451523 
L 442.347095 447.427682 
L 447.20138 453.936291 
L 452.055664 455.438278 
L 456.909949 459.443576 
L 461.764233 465.451523 
L 466.618518 453.435629 
L 471.472802 457.440927 
L 476.327087 441.920397 
L 481.181371 428.903179 
L 486.035655 443.422384 
L 490.88994 436.413113 
L 495.744224 448.929669 
L 500.598509 432.908477 
L 505.452793 438.916424 
L 510.307078 410.378675 
L 515.161362 416.887285 
L 520.015647 432.407815 
L 524.869931 427.401192 
L 529.724216 443.422384 
L 534.5785 440.418411 
L 539.432785 435.411788 
L 544.287069 436.413113 
L 549.141354 440.418411 
L 553.995638 437.414437 
L 558.849923 445.425033 
L 563.704207 456.439603 
L 568.558491 446.426358 
L 573.412776 444.423709 
L 578.26706 429.904503 
L 583.121345 422.39457 
L 587.975629 438.415762 
L 592.829914 431.40649 
L 597.684198 436.413113 
L 602.538483 447.427682 
L 607.392767 458.942914 
L 612.247052 442.42106 
L 617.101336 444.423709 
L 621.955621 437.915099 
L 626.809905 456.940265 
L 631.66419 458.442252 
L 636.518474 457.440927 
L 641.372759 472.460795 
L 646.227043 459.443576 
L 651.081327 466.95351 
L 655.935612 455.93894 
L 660.789896 456.940265 
L 665.644181 477.467417 
L 670.498465 433.909801 
L 675.35275 448.929669 
L 680.207034 457.941589 
L 685.061319 473.462119 
L 689.915603 470.458146 
L 694.769888 473.462119 
L 699.624172 472.961457 
L 704.478457 473.462119 
L 709.332741 474.463444 
L 714.187026 469.957483 
L 719.04131 474.964106 
L 723.895595 462.44755 
L 728.749879 476.966755 
L 733.604163 465.952185 
L 738.458448 472.460795 
L 743.312732 471.45947 
L 748.167017 463.949536 
L 753.021301 472.961457 
L 757.875586 476.966755 
L 762.72987 469.957483 
L 767.584155 471.960132 
L 772.438439 465.451523 
L 777.292724 467.954834 
L 782.147008 468.956159 
L 787.001293 474.463444 
L 791.855577 470.958808 
L 796.709862 475.96543 
L 801.564146 473.462119 
L 806.418431 469.456821 
L 811.272715 469.957483 
L 816.127 477.968079 
L 820.981284 474.463444 
L 825.835568 478.468742 
L 830.689853 478.468742 
L 835.544137 469.456821 
L 840.398422 475.96543 
L 845.252706 478.468742 
L 850.106991 475.464768 
L 854.961275 479.970728 
L 859.81556 480.471391 
L 864.669844 477.467417 
L 869.524129 480.972053 
L 874.378413 471.45947 
L 879.232698 480.471391 
L 884.086982 475.96543 
L 888.941267 477.968079 
L 893.795551 475.464768 
L 898.649836 474.463444 
L 903.50412 481.472715 
L 908.358404 474.964106 
L 913.212689 477.968079 
L 918.066973 475.96543 
L 922.921258 477.968079 
L 927.775542 470.458146 
L 932.629827 482.47404 
L 937.484111 486.98 
L 942.338396 478.468742 
L 947.19268 480.471391 
L 952.046965 475.96543 
L 956.901249 471.960132 
L 961.755534 479.970728 
L 966.609818 482.47404 
L 971.464103 474.964106 
L 976.318387 475.464768 
L 981.172672 482.974702 
L 986.026956 477.467417 
L 990.88124 472.961457 
L 995.735525 478.969404 
L 1000.589809 478.969404 
L 1005.444094 474.964106 
L 1010.298378 474.964106 
L 1015.152663 463.448874 
L 1020.006947 456.940265 
L 1024.861232 452.934967 
L 1029.715516 448.429007 
L 1034.569801 428.903179 
L 1039.424085 357.308477 
L 1044.27837 371.32702 
L 1049.132654 403.369404 
L 1053.986939 388.349536 
L 1058.841223 386.84755 
L 1063.695508 394.858146 
L 1068.549792 419.891258 
L 1073.404077 369.825033 
L 1078.258361 391.35351 
L 1083.112645 394.357483 
L 1087.96693 411.880662 
L 1092.821214 361.814437 
L 1097.675499 401.867417 
L 1102.529783 366.82106 
L 1107.384068 377.835629 
L 1112.238352 386.84755 
L 1112.238352 386.84755 
" style="fill:none;stroke:#ff7f0e;stroke-linecap:square;stroke-width:1.5;"/>
   </g>
   <g id="line2d_13">
    <defs>
     <path d="M 0 3 
C 0.795609 3 1.55874 2.683901 2.12132 2.12132 
C 2.683901 1.55874 3 0.795609 3 0 
C 3 -0.795609 2.683901 -1.55874 2.12132 -2.12132 
C 1.55874 -2.683901 0.795609 -3 0 -3 
C -0.795609 -3 -1.55874 -2.683901 -2.12132 -2.12132 
C -2.683901 -1.55874 -3 -0.795609 -3 0 
C -3 0.795609 -2.683901 1.55874 -2.12132 2.12132 
C -1.55874 2.683901 -0.795609 3 0 3 
z
" id="m545e0f7bfc" style="stroke:#008000;"/>
    </defs>
    <g clip-path="url(#pf0ecb8ea35)">
     <use style="fill:#008000;stroke:#008000;" x="97.692898" xlink:href="#m545e0f7bfc" y="429.107994"/>
     <use style="fill:#008000;stroke:#008000;" x="126.818605" xlink:href="#m545e0f7bfc" y="467.999243"/>
     <use style="fill:#008000;stroke:#008000;" x="155.944311" xlink:href="#m545e0f7bfc" y="417.562319"/>
     <use style="fill:#008000;stroke:#008000;" x="185.070018" xlink:href="#m545e0f7bfc" y="379.689873"/>
     <use style="fill:#008000;stroke:#008000;" x="214.195725" xlink:href="#m545e0f7bfc" y="352.278859"/>
     <use style="fill:#008000;stroke:#008000;" x="243.321432" xlink:href="#m545e0f7bfc" y="389.674462"/>
     <use style="fill:#008000;stroke:#008000;" x="272.447139" xlink:href="#m545e0f7bfc" y="379.016161"/>
     <use style="fill:#008000;stroke:#008000;" x="301.572846" xlink:href="#m545e0f7bfc" y="356.198213"/>
     <use style="fill:#008000;stroke:#008000;" x="330.698552" xlink:href="#m545e0f7bfc" y="364.568981"/>
     <use style="fill:#008000;stroke:#008000;" x="359.824259" xlink:href="#m545e0f7bfc" y="379.157874"/>
     <use style="fill:#008000;stroke:#008000;" x="388.949966" xlink:href="#m545e0f7bfc" y="429.107994"/>
     <use style="fill:#008000;stroke:#008000;" x="418.075673" xlink:href="#m545e0f7bfc" y="421.088162"/>
     <use style="fill:#008000;stroke:#008000;" x="447.20138" xlink:href="#m545e0f7bfc" y="443.762342"/>
     <use style="fill:#008000;stroke:#008000;" x="476.327087" xlink:href="#m545e0f7bfc" y="456.043961"/>
     <use style="fill:#008000;stroke:#008000;" x="505.452793" xlink:href="#m545e0f7bfc" y="365.907268"/>
     <use style="fill:#008000;stroke:#008000;" x="534.5785" xlink:href="#m545e0f7bfc" y="439.447167"/>
     <use style="fill:#008000;stroke:#008000;" x="563.704207" xlink:href="#m545e0f7bfc" y="434.912428"/>
     <use style="fill:#008000;stroke:#008000;" x="592.829914" xlink:href="#m545e0f7bfc" y="432.278887"/>
     <use style="fill:#008000;stroke:#008000;" x="621.955621" xlink:href="#m545e0f7bfc" y="442.698167"/>
     <use style="fill:#008000;stroke:#008000;" x="651.081327" xlink:href="#m545e0f7bfc" y="460.20968"/>
     <use style="fill:#008000;stroke:#008000;" x="680.207034" xlink:href="#m545e0f7bfc" y="453.592644"/>
     <use style="fill:#008000;stroke:#008000;" x="709.332741" xlink:href="#m545e0f7bfc" y="473.86494"/>
     <use style="fill:#008000;stroke:#008000;" x="738.458448" xlink:href="#m545e0f7bfc" y="466.22706"/>
     <use style="fill:#008000;stroke:#008000;" x="767.584155" xlink:href="#m545e0f7bfc" y="463.53687"/>
     <use style="fill:#008000;stroke:#008000;" x="796.709862" xlink:href="#m545e0f7bfc" y="469.221551"/>
     <use style="fill:#008000;stroke:#008000;" x="825.835568" xlink:href="#m545e0f7bfc" y="470.940716"/>
     <use style="fill:#008000;stroke:#008000;" x="854.961275" xlink:href="#m545e0f7bfc" y="475.339549"/>
     <use style="fill:#008000;stroke:#008000;" x="884.086982" xlink:href="#m545e0f7bfc" y="478.726302"/>
     <use style="fill:#008000;stroke:#008000;" x="913.212689" xlink:href="#m545e0f7bfc" y="477.628888"/>
     <use style="fill:#008000;stroke:#008000;" x="942.338396" xlink:href="#m545e0f7bfc" y="475.575119"/>
     <use style="fill:#008000;stroke:#008000;" x="971.464103" xlink:href="#m545e0f7bfc" y="479.535604"/>
     <use style="fill:#008000;stroke:#008000;" x="1000.589809" xlink:href="#m545e0f7bfc" y="474.011541"/>
     <use style="fill:#008000;stroke:#008000;" x="1029.715516" xlink:href="#m545e0f7bfc" y="455.283781"/>
     <use style="fill:#008000;stroke:#008000;" x="1058.841223" xlink:href="#m545e0f7bfc" y="386.153027"/>
     <use style="fill:#008000;stroke:#008000;" x="1087.96693" xlink:href="#m545e0f7bfc" y="386.755081"/>
    </g>
   </g>
   <g id="patch_3">
    <path d="M 46.965625 509.66 
L 46.965625 10.7 
" style="fill:none;stroke:#000000;stroke-linecap:square;stroke-linejoin:miter;stroke-width:0.8;"/>
   </g>
   <g id="patch_4">
    <path d="M 1162.965625 509.66 
L 1162.965625 10.7 
" style="fill:none;stroke:#000000;stroke-linecap:square;stroke-linejoin:miter;stroke-width:0.8;"/>
   </g>
   <g id="patch_5">
    <path d="M 46.965625 509.66 
L 1162.965625 509.66 
" style="fill:none;stroke:#000000;stroke-linecap:square;stroke-linejoin:miter;stroke-width:0.8;"/>
   </g>
   <g id="patch_6">
    <path d="M 46.965625 10.7 
L 1162.965625 10.7 
" style="fill:none;stroke:#000000;stroke-linecap:square;stroke-linejoin:miter;stroke-width:0.8;"/>
   </g>
   <g id="legend_1">
    <g id="patch_7">
     <path d="M 53.965625 62.734375 
L 201.740625 62.734375 
Q 203.740625 62.734375 203.740625 60.734375 
L 203.740625 17.7 
Q 203.740625 15.7 201.740625 15.7 
L 53.965625 15.7 
Q 51.965625 15.7 51.965625 17.7 
L 51.965625 60.734375 
Q 51.965625 62.734375 53.965625 62.734375 
z
" style="fill:#ffffff;opacity:0.8;stroke:#cccccc;stroke-linejoin:miter;"/>
    </g>
    <g id="line2d_14">
     <path d="M 55.965625 23.798437 
L 75.965625 23.798437 
" style="fill:none;stroke:#008000;stroke-dasharray:5.55,2.4;stroke-dashoffset:0;stroke-width:1.5;"/>
    </g>
    <g id="line2d_15"/>
    <g id="text_13">
     <!-- Predicted -->
     <defs>
      <path d="M 19.671875 64.796875 
L 19.671875 37.40625 
L 32.078125 37.40625 
Q 38.96875 37.40625 42.71875 40.96875 
Q 46.484375 44.53125 46.484375 51.125 
Q 46.484375 57.671875 42.71875 61.234375 
Q 38.96875 64.796875 32.078125 64.796875 
z
M 9.8125 72.90625 
L 32.078125 72.90625 
Q 44.34375 72.90625 50.609375 67.359375 
Q 56.890625 61.8125 56.890625 51.125 
Q 56.890625 40.328125 50.609375 34.8125 
Q 44.34375 29.296875 32.078125 29.296875 
L 19.671875 29.296875 
L 19.671875 0 
L 9.8125 0 
z
" id="DejaVuSans-50"/>
      <path d="M 41.109375 46.296875 
Q 39.59375 47.171875 37.8125 47.578125 
Q 36.03125 48 33.890625 48 
Q 26.265625 48 22.1875 43.046875 
Q 18.109375 38.09375 18.109375 28.8125 
L 18.109375 0 
L 9.078125 0 
L 9.078125 54.6875 
L 18.109375 54.6875 
L 18.109375 46.1875 
Q 20.953125 51.171875 25.484375 53.578125 
Q 30.03125 56 36.53125 56 
Q 37.453125 56 38.578125 55.875 
Q 39.703125 55.765625 41.0625 55.515625 
z
" id="DejaVuSans-72"/>
      <path d="M 45.40625 46.390625 
L 45.40625 75.984375 
L 54.390625 75.984375 
L 54.390625 0 
L 45.40625 0 
L 45.40625 8.203125 
Q 42.578125 3.328125 38.25 0.953125 
Q 33.9375 -1.421875 27.875 -1.421875 
Q 17.96875 -1.421875 11.734375 6.484375 
Q 5.515625 14.40625 5.515625 27.296875 
Q 5.515625 40.1875 11.734375 48.09375 
Q 17.96875 56 27.875 56 
Q 33.9375 56 38.25 53.625 
Q 42.578125 51.265625 45.40625 46.390625 
z
M 14.796875 27.296875 
Q 14.796875 17.390625 18.875 11.75 
Q 22.953125 6.109375 30.078125 6.109375 
Q 37.203125 6.109375 41.296875 11.75 
Q 45.40625 17.390625 45.40625 27.296875 
Q 45.40625 37.203125 41.296875 42.84375 
Q 37.203125 48.484375 30.078125 48.484375 
Q 22.953125 48.484375 18.875 42.84375 
Q 14.796875 37.203125 14.796875 27.296875 
z
" id="DejaVuSans-64"/>
      <path d="M 48.78125 52.59375 
L 48.78125 44.1875 
Q 44.96875 46.296875 41.140625 47.34375 
Q 37.3125 48.390625 33.40625 48.390625 
Q 24.65625 48.390625 19.8125 42.84375 
Q 14.984375 37.3125 14.984375 27.296875 
Q 14.984375 17.28125 19.8125 11.734375 
Q 24.65625 6.203125 33.40625 6.203125 
Q 37.3125 6.203125 41.140625 7.25 
Q 44.96875 8.296875 48.78125 10.40625 
L 48.78125 2.09375 
Q 45.015625 0.34375 40.984375 -0.53125 
Q 36.96875 -1.421875 32.421875 -1.421875 
Q 20.0625 -1.421875 12.78125 6.34375 
Q 5.515625 14.109375 5.515625 27.296875 
Q 5.515625 40.671875 12.859375 48.328125 
Q 20.21875 56 33.015625 56 
Q 37.15625 56 41.109375 55.140625 
Q 45.0625 54.296875 48.78125 52.59375 
z
" id="DejaVuSans-63"/>
      <path d="M 18.3125 70.21875 
L 18.3125 54.6875 
L 36.8125 54.6875 
L 36.8125 47.703125 
L 18.3125 47.703125 
L 18.3125 18.015625 
Q 18.3125 11.328125 20.140625 9.421875 
Q 21.96875 7.515625 27.59375 7.515625 
L 36.8125 7.515625 
L 36.8125 0 
L 27.59375 0 
Q 17.1875 0 13.234375 3.875 
Q 9.28125 7.765625 9.28125 18.015625 
L 9.28125 47.703125 
L 2.6875 47.703125 
L 2.6875 54.6875 
L 9.28125 54.6875 
L 9.28125 70.21875 
z
" id="DejaVuSans-74"/>
     </defs>
     <g transform="translate(83.965625 27.298437)scale(0.1 -0.1)">
      <use xlink:href="#DejaVuSans-50"/>
      <use x="60.287109" xlink:href="#DejaVuSans-72"/>
      <use x="101.369141" xlink:href="#DejaVuSans-65"/>
      <use x="162.892578" xlink:href="#DejaVuSans-64"/>
      <use x="226.369141" xlink:href="#DejaVuSans-69"/>
      <use x="254.152344" xlink:href="#DejaVuSans-63"/>
      <use x="309.132812" xlink:href="#DejaVuSans-74"/>
      <use x="348.341797" xlink:href="#DejaVuSans-65"/>
      <use x="409.865234" xlink:href="#DejaVuSans-64"/>
     </g>
    </g>
    <g id="line2d_16">
     <path d="M 55.965625 38.476562 
L 75.965625 38.476562 
" style="fill:none;stroke:#ff7f0e;stroke-linecap:square;stroke-width:1.5;"/>
    </g>
    <g id="line2d_17"/>
    <g id="text_14">
     <!-- Real Data -->
     <defs>
      <path d="M 34.28125 27.484375 
Q 23.390625 27.484375 19.1875 25 
Q 14.984375 22.515625 14.984375 16.5 
Q 14.984375 11.71875 18.140625 8.90625 
Q 21.296875 6.109375 26.703125 6.109375 
Q 34.1875 6.109375 38.703125 11.40625 
Q 43.21875 16.703125 43.21875 25.484375 
L 43.21875 27.484375 
z
M 52.203125 31.203125 
L 52.203125 0 
L 43.21875 0 
L 43.21875 8.296875 
Q 40.140625 3.328125 35.546875 0.953125 
Q 30.953125 -1.421875 24.3125 -1.421875 
Q 15.921875 -1.421875 10.953125 3.296875 
Q 6 8.015625 6 15.921875 
Q 6 25.140625 12.171875 29.828125 
Q 18.359375 34.515625 30.609375 34.515625 
L 43.21875 34.515625 
L 43.21875 35.40625 
Q 43.21875 41.609375 39.140625 45 
Q 35.0625 48.390625 27.6875 48.390625 
Q 23 48.390625 18.546875 47.265625 
Q 14.109375 46.140625 10.015625 43.890625 
L 10.015625 52.203125 
Q 14.9375 54.109375 19.578125 55.046875 
Q 24.21875 56 28.609375 56 
Q 40.484375 56 46.34375 49.84375 
Q 52.203125 43.703125 52.203125 31.203125 
z
" id="DejaVuSans-61"/>
      <path d="M 9.421875 75.984375 
L 18.40625 75.984375 
L 18.40625 0 
L 9.421875 0 
z
" id="DejaVuSans-6c"/>
      <path id="DejaVuSans-20"/>
      <path d="M 19.671875 64.796875 
L 19.671875 8.109375 
L 31.59375 8.109375 
Q 46.6875 8.109375 53.6875 14.9375 
Q 60.6875 21.78125 60.6875 36.53125 
Q 60.6875 51.171875 53.6875 57.984375 
Q 46.6875 64.796875 31.59375 64.796875 
z
M 9.8125 72.90625 
L 30.078125 72.90625 
Q 51.265625 72.90625 61.171875 64.09375 
Q 71.09375 55.28125 71.09375 36.53125 
Q 71.09375 17.671875 61.125 8.828125 
Q 51.171875 0 30.078125 0 
L 9.8125 0 
z
" id="DejaVuSans-44"/>
     </defs>
     <g transform="translate(83.965625 41.976562)scale(0.1 -0.1)">
      <use xlink:href="#DejaVuSans-52"/>
      <use x="69.419922" xlink:href="#DejaVuSans-65"/>
      <use x="130.943359" xlink:href="#DejaVuSans-61"/>
      <use x="192.222656" xlink:href="#DejaVuSans-6c"/>
      <use x="220.005859" xlink:href="#DejaVuSans-20"/>
      <use x="251.792969" xlink:href="#DejaVuSans-44"/>
      <use x="328.794922" xlink:href="#DejaVuSans-61"/>
      <use x="390.074219" xlink:href="#DejaVuSans-74"/>
      <use x="429.283203" xlink:href="#DejaVuSans-61"/>
     </g>
    </g>
    <g id="line2d_18"/>
    <g id="line2d_19">
     <g>
      <use style="fill:#008000;stroke:#008000;" x="65.965625" xlink:href="#m545e0f7bfc" y="53.154688"/>
     </g>
    </g>
    <g id="text_15">
     <!-- Start Point for Forecast -->
     <defs>
      <path d="M 53.515625 70.515625 
L 53.515625 60.890625 
Q 47.90625 63.578125 42.921875 64.890625 
Q 37.9375 66.21875 33.296875 66.21875 
Q 25.25 66.21875 20.875 63.09375 
Q 16.5 59.96875 16.5 54.203125 
Q 16.5 49.359375 19.40625 46.890625 
Q 22.3125 44.4375 30.421875 42.921875 
L 36.375 41.703125 
Q 47.40625 39.59375 52.65625 34.296875 
Q 57.90625 29 57.90625 20.125 
Q 57.90625 9.515625 50.796875 4.046875 
Q 43.703125 -1.421875 29.984375 -1.421875 
Q 24.8125 -1.421875 18.96875 -0.25 
Q 13.140625 0.921875 6.890625 3.21875 
L 6.890625 13.375 
Q 12.890625 10.015625 18.65625 8.296875 
Q 24.421875 6.59375 29.984375 6.59375 
Q 38.421875 6.59375 43.015625 9.90625 
Q 47.609375 13.234375 47.609375 19.390625 
Q 47.609375 24.75 44.3125 27.78125 
Q 41.015625 30.8125 33.5 32.328125 
L 27.484375 33.5 
Q 16.453125 35.6875 11.515625 40.375 
Q 6.59375 45.0625 6.59375 53.421875 
Q 6.59375 63.09375 13.40625 68.65625 
Q 20.21875 74.21875 32.171875 74.21875 
Q 37.3125 74.21875 42.625 73.28125 
Q 47.953125 72.359375 53.515625 70.515625 
z
" id="DejaVuSans-53"/>
      <path d="M 30.609375 48.390625 
Q 23.390625 48.390625 19.1875 42.75 
Q 14.984375 37.109375 14.984375 27.296875 
Q 14.984375 17.484375 19.15625 11.84375 
Q 23.34375 6.203125 30.609375 6.203125 
Q 37.796875 6.203125 41.984375 11.859375 
Q 46.1875 17.53125 46.1875 27.296875 
Q 46.1875 37.015625 41.984375 42.703125 
Q 37.796875 48.390625 30.609375 48.390625 
z
M 30.609375 56 
Q 42.328125 56 49.015625 48.375 
Q 55.71875 40.765625 55.71875 27.296875 
Q 55.71875 13.875 49.015625 6.21875 
Q 42.328125 -1.421875 30.609375 -1.421875 
Q 18.84375 -1.421875 12.171875 6.21875 
Q 5.515625 13.875 5.515625 27.296875 
Q 5.515625 40.765625 12.171875 48.375 
Q 18.84375 56 30.609375 56 
z
" id="DejaVuSans-6f"/>
      <path d="M 54.890625 33.015625 
L 54.890625 0 
L 45.90625 0 
L 45.90625 32.71875 
Q 45.90625 40.484375 42.875 44.328125 
Q 39.84375 48.1875 33.796875 48.1875 
Q 26.515625 48.1875 22.3125 43.546875 
Q 18.109375 38.921875 18.109375 30.90625 
L 18.109375 0 
L 9.078125 0 
L 9.078125 54.6875 
L 18.109375 54.6875 
L 18.109375 46.1875 
Q 21.34375 51.125 25.703125 53.5625 
Q 30.078125 56 35.796875 56 
Q 45.21875 56 50.046875 50.171875 
Q 54.890625 44.34375 54.890625 33.015625 
z
" id="DejaVuSans-6e"/>
      <path d="M 9.8125 72.90625 
L 51.703125 72.90625 
L 51.703125 64.59375 
L 19.671875 64.59375 
L 19.671875 43.109375 
L 48.578125 43.109375 
L 48.578125 34.8125 
L 19.671875 34.8125 
L 19.671875 0 
L 9.8125 0 
z
" id="DejaVuSans-46"/>
     </defs>
     <g transform="translate(83.965625 56.654688)scale(0.1 -0.1)">
      <use xlink:href="#DejaVuSans-53"/>
      <use x="63.476562" xlink:href="#DejaVuSans-74"/>
      <use x="102.685547" xlink:href="#DejaVuSans-61"/>
      <use x="163.964844" xlink:href="#DejaVuSans-72"/>
      <use x="205.078125" xlink:href="#DejaVuSans-74"/>
      <use x="244.287109" xlink:href="#DejaVuSans-20"/>
      <use x="276.074219" xlink:href="#DejaVuSans-50"/>
      <use x="336.330078" xlink:href="#DejaVuSans-6f"/>
      <use x="397.511719" xlink:href="#DejaVuSans-69"/>
      <use x="425.294922" xlink:href="#DejaVuSans-6e"/>
      <use x="488.673828" xlink:href="#DejaVuSans-74"/>
      <use x="527.882812" xlink:href="#DejaVuSans-20"/>
      <use x="559.669922" xlink:href="#DejaVuSans-66"/>
      <use x="594.875" xlink:href="#DejaVuSans-6f"/>
      <use x="656.056641" xlink:href="#DejaVuSans-72"/>
      <use x="697.169922" xlink:href="#DejaVuSans-20"/>
      <use x="728.957031" xlink:href="#DejaVuSans-46"/>
      <use x="786.429688" xlink:href="#DejaVuSans-6f"/>
      <use x="847.611328" xlink:href="#DejaVuSans-72"/>
      <use x="888.693359" xlink:href="#DejaVuSans-65"/>
      <use x="950.216797" xlink:href="#DejaVuSans-63"/>
      <use x="1005.197266" xlink:href="#DejaVuSans-61"/>
      <use x="1066.476562" xlink:href="#DejaVuSans-73"/>
      <use x="1118.576172" xlink:href="#DejaVuSans-74"/>
     </g>
    </g>
   </g>
  </g>
  <g id="axes_2">
   <g id="patch_8">
    <path d="M 46.965625 645.74 
L 1164.405625 645.74 
L 1164.405625 516.14 
L 46.965625 516.14 
z
" style="fill:none;"/>
   </g>
   <g id="matplotlib.axis_3">
    <g id="xtick_6">
     <g id="line2d_20">
      <g>
       <use style="stroke:#000000;stroke-width:0.8;" x="97.758352" xlink:href="#m722af634db" y="645.74"/>
      </g>
     </g>
     <g id="text_16">
      <!-- 0 -->
      <g transform="translate(94.577102 660.338437)scale(0.1 -0.1)">
       <use xlink:href="#DejaVuSans-30"/>
      </g>
     </g>
    </g>
    <g id="xtick_7">
     <g id="line2d_21">
      <g>
       <use style="stroke:#000000;stroke-width:0.8;" x="222.250331" xlink:href="#m722af634db" y="645.74"/>
      </g>
     </g>
     <g id="text_17">
      <!-- 25 -->
      <g transform="translate(215.887831 660.338437)scale(0.1 -0.1)">
       <use xlink:href="#DejaVuSans-32"/>
       <use x="63.623047" xlink:href="#DejaVuSans-35"/>
      </g>
     </g>
    </g>
    <g id="xtick_8">
     <g id="line2d_22">
      <g>
       <use style="stroke:#000000;stroke-width:0.8;" x="346.742309" xlink:href="#m722af634db" y="645.74"/>
      </g>
     </g>
     <g id="text_18">
      <!-- 50 -->
      <g transform="translate(340.379809 660.338437)scale(0.1 -0.1)">
       <use xlink:href="#DejaVuSans-35"/>
       <use x="63.623047" xlink:href="#DejaVuSans-30"/>
      </g>
     </g>
    </g>
    <g id="xtick_9">
     <g id="line2d_23">
      <g>
       <use style="stroke:#000000;stroke-width:0.8;" x="471.234288" xlink:href="#m722af634db" y="645.74"/>
      </g>
     </g>
     <g id="text_19">
      <!-- 75 -->
      <defs>
       <path d="M 8.203125 72.90625 
L 55.078125 72.90625 
L 55.078125 68.703125 
L 28.609375 0 
L 18.3125 0 
L 43.21875 64.59375 
L 8.203125 64.59375 
z
" id="DejaVuSans-37"/>
      </defs>
      <g transform="translate(464.871788 660.338437)scale(0.1 -0.1)">
       <use xlink:href="#DejaVuSans-37"/>
       <use x="63.623047" xlink:href="#DejaVuSans-35"/>
      </g>
     </g>
    </g>
    <g id="xtick_10">
     <g id="line2d_24">
      <g>
       <use style="stroke:#000000;stroke-width:0.8;" x="595.726267" xlink:href="#m722af634db" y="645.74"/>
      </g>
     </g>
     <g id="text_20">
      <!-- 100 -->
      <g transform="translate(586.182517 660.338437)scale(0.1 -0.1)">
       <use xlink:href="#DejaVuSans-31"/>
       <use x="63.623047" xlink:href="#DejaVuSans-30"/>
       <use x="127.246094" xlink:href="#DejaVuSans-30"/>
      </g>
     </g>
    </g>
    <g id="xtick_11">
     <g id="line2d_25">
      <g>
       <use style="stroke:#000000;stroke-width:0.8;" x="720.218245" xlink:href="#m722af634db" y="645.74"/>
      </g>
     </g>
     <g id="text_21">
      <!-- 125 -->
      <g transform="translate(710.674495 660.338437)scale(0.1 -0.1)">
       <use xlink:href="#DejaVuSans-31"/>
       <use x="63.623047" xlink:href="#DejaVuSans-32"/>
       <use x="127.246094" xlink:href="#DejaVuSans-35"/>
      </g>
     </g>
    </g>
    <g id="xtick_12">
     <g id="line2d_26">
      <g>
       <use style="stroke:#000000;stroke-width:0.8;" x="844.710224" xlink:href="#m722af634db" y="645.74"/>
      </g>
     </g>
     <g id="text_22">
      <!-- 150 -->
      <g transform="translate(835.166474 660.338437)scale(0.1 -0.1)">
       <use xlink:href="#DejaVuSans-31"/>
       <use x="63.623047" xlink:href="#DejaVuSans-35"/>
       <use x="127.246094" xlink:href="#DejaVuSans-30"/>
      </g>
     </g>
    </g>
    <g id="xtick_13">
     <g id="line2d_27">
      <g>
       <use style="stroke:#000000;stroke-width:0.8;" x="969.202203" xlink:href="#m722af634db" y="645.74"/>
      </g>
     </g>
     <g id="text_23">
      <!-- 175 -->
      <g transform="translate(959.658453 660.338437)scale(0.1 -0.1)">
       <use xlink:href="#DejaVuSans-31"/>
       <use x="63.623047" xlink:href="#DejaVuSans-37"/>
       <use x="127.246094" xlink:href="#DejaVuSans-35"/>
      </g>
     </g>
    </g>
    <g id="xtick_14">
     <g id="line2d_28">
      <g>
       <use style="stroke:#000000;stroke-width:0.8;" x="1093.694181" xlink:href="#m722af634db" y="645.74"/>
      </g>
     </g>
     <g id="text_24">
      <!-- 200 -->
      <g transform="translate(1084.150431 660.338437)scale(0.1 -0.1)">
       <use xlink:href="#DejaVuSans-32"/>
       <use x="63.623047" xlink:href="#DejaVuSans-30"/>
       <use x="127.246094" xlink:href="#DejaVuSans-30"/>
      </g>
     </g>
    </g>
   </g>
   <g id="matplotlib.axis_4">
    <g id="ytick_6">
     <g id="line2d_29">
      <g>
       <use style="stroke:#000000;stroke-width:0.8;" x="46.965625" xlink:href="#m12216eccfc" y="617.103208"/>
      </g>
     </g>
     <g id="text_25">
      <!-- 20 -->
      <g transform="translate(27.240625 620.902427)scale(0.1 -0.1)">
       <use xlink:href="#DejaVuSans-32"/>
       <use x="63.623047" xlink:href="#DejaVuSans-30"/>
      </g>
     </g>
    </g>
    <g id="ytick_7">
     <g id="line2d_30">
      <g>
       <use style="stroke:#000000;stroke-width:0.8;" x="46.965625" xlink:href="#m12216eccfc" y="580.504845"/>
      </g>
     </g>
     <g id="text_26">
      <!-- 25 -->
      <g transform="translate(27.240625 584.304064)scale(0.1 -0.1)">
       <use xlink:href="#DejaVuSans-32"/>
       <use x="63.623047" xlink:href="#DejaVuSans-35"/>
      </g>
     </g>
    </g>
    <g id="ytick_8">
     <g id="line2d_31">
      <g>
       <use style="stroke:#000000;stroke-width:0.8;" x="46.965625" xlink:href="#m12216eccfc" y="543.906483"/>
      </g>
     </g>
     <g id="text_27">
      <!-- 30 -->
      <defs>
       <path d="M 40.578125 39.3125 
Q 47.65625 37.796875 51.625 33 
Q 55.609375 28.21875 55.609375 21.1875 
Q 55.609375 10.40625 48.1875 4.484375 
Q 40.765625 -1.421875 27.09375 -1.421875 
Q 22.515625 -1.421875 17.65625 -0.515625 
Q 12.796875 0.390625 7.625 2.203125 
L 7.625 11.71875 
Q 11.71875 9.328125 16.59375 8.109375 
Q 21.484375 6.890625 26.8125 6.890625 
Q 36.078125 6.890625 40.9375 10.546875 
Q 45.796875 14.203125 45.796875 21.1875 
Q 45.796875 27.640625 41.28125 31.265625 
Q 36.765625 34.90625 28.71875 34.90625 
L 20.21875 34.90625 
L 20.21875 43.015625 
L 29.109375 43.015625 
Q 36.375 43.015625 40.234375 45.921875 
Q 44.09375 48.828125 44.09375 54.296875 
Q 44.09375 59.90625 40.109375 62.90625 
Q 36.140625 65.921875 28.71875 65.921875 
Q 24.65625 65.921875 20.015625 65.03125 
Q 15.375 64.15625 9.8125 62.3125 
L 9.8125 71.09375 
Q 15.4375 72.65625 20.34375 73.4375 
Q 25.25 74.21875 29.59375 74.21875 
Q 40.828125 74.21875 47.359375 69.109375 
Q 53.90625 64.015625 53.90625 55.328125 
Q 53.90625 49.265625 50.4375 45.09375 
Q 46.96875 40.921875 40.578125 39.3125 
z
" id="DejaVuSans-33"/>
      </defs>
      <g transform="translate(27.240625 547.705701)scale(0.1 -0.1)">
       <use xlink:href="#DejaVuSans-33"/>
       <use x="63.623047" xlink:href="#DejaVuSans-30"/>
      </g>
     </g>
    </g>
    <g id="text_28">
     <!-- Temperature -->
     <defs>
      <path d="M 18.109375 8.203125 
L 18.109375 -20.796875 
L 9.078125 -20.796875 
L 9.078125 54.6875 
L 18.109375 54.6875 
L 18.109375 46.390625 
Q 20.953125 51.265625 25.265625 53.625 
Q 29.59375 56 35.59375 56 
Q 45.5625 56 51.78125 48.09375 
Q 58.015625 40.1875 58.015625 27.296875 
Q 58.015625 14.40625 51.78125 6.484375 
Q 45.5625 -1.421875 35.59375 -1.421875 
Q 29.59375 -1.421875 25.265625 0.953125 
Q 20.953125 3.328125 18.109375 8.203125 
z
M 48.6875 27.296875 
Q 48.6875 37.203125 44.609375 42.84375 
Q 40.53125 48.484375 33.40625 48.484375 
Q 26.265625 48.484375 22.1875 42.84375 
Q 18.109375 37.203125 18.109375 27.296875 
Q 18.109375 17.390625 22.1875 11.75 
Q 26.265625 6.109375 33.40625 6.109375 
Q 40.53125 6.109375 44.609375 11.75 
Q 48.6875 17.390625 48.6875 27.296875 
z
" id="DejaVuSans-70"/>
     </defs>
     <g style="fill:#0000ff;" transform="translate(21.160938 613.557187)rotate(-90)scale(0.1 -0.1)">
      <use xlink:href="#DejaVuSans-54"/>
      <use x="60.818359" xlink:href="#DejaVuSans-65"/>
      <use x="122.341797" xlink:href="#DejaVuSans-6d"/>
      <use x="219.753906" xlink:href="#DejaVuSans-70"/>
      <use x="283.230469" xlink:href="#DejaVuSans-65"/>
      <use x="344.753906" xlink:href="#DejaVuSans-72"/>
      <use x="385.867188" xlink:href="#DejaVuSans-61"/>
      <use x="447.146484" xlink:href="#DejaVuSans-74"/>
      <use x="486.355469" xlink:href="#DejaVuSans-75"/>
      <use x="549.734375" xlink:href="#DejaVuSans-72"/>
      <use x="590.816406" xlink:href="#DejaVuSans-65"/>
     </g>
    </g>
   </g>
   <g id="line2d_32">
    <path clip-path="url(#p3129d1a5fb)" d="M 97.758352 539.849188 
L 102.738031 535.130927 
L 107.717711 530.876733 
L 112.69739 531.654083 
L 117.677069 535.655016 
L 122.656748 537.876536 
L 127.636427 541.19674 
L 132.616106 538.943013 
L 137.595785 535.430302 
L 142.575465 533.973687 
L 147.555144 531.290295 
L 152.534823 539.656681 
L 157.514502 537.48347 
L 162.494181 536.36722 
L 167.47386 528.958247 
L 172.453539 531.388379 
L 177.433219 533.672848 
L 182.412898 534.073234 
L 187.392577 537.632791 
L 192.372256 536.793225 
L 197.351935 535.261217 
L 202.331614 532.850117 
L 207.311293 531.146097 
L 212.290973 537.107239 
L 217.270652 535.712109 
L 222.250331 534.958183 
L 227.23001 532.693476 
L 232.209689 531.154149 
L 237.189368 534.721757 
L 242.169047 535.970494 
L 247.148727 537.932898 
L 252.128406 534.92744 
L 257.108085 533.208049 
L 262.087764 529.568708 
L 267.067443 529.695338 
L 272.047122 533.109966 
L 277.026801 532.92917 
L 282.006481 532.356771 
L 286.98616 531.982004 
L 291.965839 522.030909 
L 296.945518 527.051473 
L 301.925197 530.037167 
L 306.904876 534.810325 
L 311.884555 537.209714 
L 316.864235 532.864756 
L 321.843914 529.680699 
L 326.823593 529.42451 
L 331.803272 531.446204 
L 336.782951 536.644635 
L 341.76263 533.719694 
L 346.742309 532.055933 
L 351.721989 530.107436 
L 356.701668 530.23919 
L 361.681347 538.151024 
L 366.661026 535.185093 
L 371.640705 536.515809 
L 376.620384 532.653218 
L 381.600064 527.852977 
L 386.579743 529.207116 
L 391.559422 532.246976 
L 396.539101 537.609368 
L 401.51878 531.826095 
L 406.498459 529.664596 
L 411.478138 526.018667 
L 416.457818 527.767336 
L 421.437497 533.512548 
L 426.417176 535.483735 
L 431.396855 532.323833 
L 436.376534 530.977013 
L 441.356213 530.879661 
L 446.335892 532.140109 
L 451.315572 533.516207 
L 456.295251 536.654151 
L 461.27493 533.056532 
L 466.254609 528.504428 
L 471.234288 531.173912 
L 476.213967 531.47841 
L 481.193646 536.916195 
L 486.173326 537.568378 
L 491.153005 533.417392 
L 501.112363 532.459979 
L 506.092042 531.325429 
L 511.071721 538.299613 
L 516.0514 536.220094 
L 521.03108 535.341002 
L 526.010759 534.112761 
L 530.990438 527.734398 
L 535.970117 525.916191 
L 540.949796 529.346922 
L 545.929475 533.828757 
L 550.909154 534.121544 
L 555.888834 533.432763 
L 560.868513 532.240388 
L 565.848192 530.822568 
L 570.827871 534.695407 
L 575.80755 538.802475 
L 580.787229 537.184827 
L 585.766908 532.629795 
L 590.746588 528.44587 
L 595.726267 531.427905 
L 600.705946 534.872543 
L 605.685625 534.169122 
L 610.665304 537.656946 
L 615.644983 535.945607 
L 620.624662 533.009686 
L 625.604342 531.903683 
L 630.584021 535.832152 
L 635.5637 539.31778 
L 640.543379 537.181899 
L 645.523058 532.798879 
L 650.502737 529.769267 
L 655.482416 533.183894 
L 660.462096 537.216302 
L 665.441775 538.148828 
L 670.421454 537.104311 
L 675.401133 532.70592 
L 680.380812 529.251034 
L 685.360491 529.223951 
L 690.34017 531.886116 
L 695.31985 535.026256 
L 700.299529 532.531711 
L 705.279208 527.241784 
L 710.258887 526.020131 
L 715.238566 528.641305 
L 720.218245 531.903683 
L 725.197924 535.906812 
L 730.177604 530.811588 
L 740.136962 527.499436 
L 745.116641 528.649357 
L 750.09632 533.291493 
L 755.075999 536.251569 
L 760.055678 534.4846 
L 765.035358 533.488393 
L 770.015037 531.393502 
L 774.994716 531.206119 
L 779.974395 535.96171 
L 784.954074 538.236664 
L 789.933753 536.038567 
L 794.913432 535.450065 
L 799.893112 534.181566 
L 804.872791 532.410937 
L 809.85247 536.398694 
L 814.832149 536.747843 
L 819.811828 534.635385 
L 829.771186 529.37986 
L 834.750866 530.419254 
L 839.730545 533.536702 
L 844.710224 535.289764 
L 849.689903 533.515475 
L 854.669582 534.04908 
L 859.649261 530.405346 
L 864.628941 531.657742 
L 869.60862 534.777387 
L 874.588299 537.626935 
L 879.567978 535.212907 
L 884.547657 530.89796 
L 889.527336 527.792223 
L 894.507015 529.21956 
L 899.486695 531.700197 
L 904.466374 534.721025 
L 909.446053 534.865223 
L 914.425732 529.164662 
L 924.38509 530.651287 
L 929.364769 531.366419 
L 934.344449 539.367554 
L 939.324128 539.725486 
L 944.303807 536.294755 
L 949.283486 531.427905 
L 954.263165 534.734933 
L 959.242844 539.460513 
L 964.222523 541.973357 
L 969.202203 538.01195 
L 974.181882 534.198401 
L 979.161561 532.421916 
L 984.14124 531.741919 
L 994.100598 535.140443 
L 999.080277 537.146033 
L 1004.059957 532.014211 
L 1009.039636 527.080751 
L 1014.019315 528.567377 
L 1018.998994 534.471425 
L 1023.978673 537.931434 
L 1028.958352 537.280715 
L 1033.938031 532.86622 
L 1038.917711 530.476347 
L 1043.89739 530.127199 
L 1048.877069 533.814118 
L 1053.856748 533.710911 
L 1058.836427 533.981007 
L 1068.795785 526.918986 
L 1073.775465 526.466631 
L 1078.755144 529.604574 
L 1083.734823 529.136847 
L 1088.714502 532.561722 
L 1093.694181 528.033773 
L 1098.67386 526.31365 
L 1103.653539 526.832614 
L 1108.633219 532.072768 
L 1113.612898 533.98613 
L 1113.612898 533.98613 
" style="fill:none;stroke:#ff0000;stroke-linecap:square;stroke-width:1.5;"/>
   </g>
   <g id="line2d_33">
    <path clip-path="url(#p3129d1a5fb)" d="M 97.758352 572.737209 
L 102.738031 569.302819 
L 107.717711 567.466313 
L 112.69739 566.845604 
L 122.656748 567.542437 
L 127.636427 571.106386 
L 132.616106 569.378943 
L 137.595785 568.026268 
L 142.575465 565.820118 
L 147.555144 563.953602 
L 152.534823 570.221437 
L 157.514502 569.371623 
L 162.494181 569.775669 
L 167.47386 564.62994 
L 172.453539 563.559071 
L 177.433219 564.990067 
L 182.412898 564.466711 
L 187.392577 566.651633 
L 192.372256 566.215381 
L 197.351935 565.081563 
L 202.331614 562.802217 
L 207.311293 561.033784 
L 212.290973 566.539642 
L 217.270652 566.662613 
L 222.250331 566.359578 
L 227.23001 564.076572 
L 232.209689 561.966311 
L 237.189368 564.275667 
L 242.169047 565.88014 
L 247.148727 566.177318 
L 252.128406 565.225029 
L 257.108085 563.954334 
L 262.087764 561.334623 
L 267.067443 559.985607 
L 272.047122 562.452337 
L 277.026801 563.805012 
L 282.006481 564.841478 
L 286.98616 565.197946 
L 291.965839 558.359176 
L 296.945518 560.164939 
L 301.925197 561.306808 
L 306.904876 563.82258 
L 311.884555 565.140121 
L 316.864235 563.475627 
L 321.843914 560.189094 
L 326.823593 559.742594 
L 331.803272 562.223963 
L 336.782951 566.616499 
L 341.76263 564.782189 
L 346.742309 564.13513 
L 351.721989 562.038775 
L 356.701668 560.614367 
L 361.681347 565.565394 
L 366.661026 563.056942 
L 371.640705 565.030326 
L 376.620384 562.232015 
L 381.600064 559.059669 
L 386.579743 559.875812 
L 391.559422 563.436101 
L 396.539101 568.179981 
L 401.51878 565.02447 
L 406.498459 563.034251 
L 411.478138 559.331229 
L 416.457818 560.450407 
L 421.437497 563.939694 
L 426.417176 564.206131 
L 431.396855 561.638389 
L 436.376534 561.803814 
L 441.356213 561.770143 
L 446.335892 561.096002 
L 451.315572 562.478688 
L 456.295251 565.92479 
L 461.27493 564.319585 
L 466.254609 562.007301 
L 471.234288 561.937764 
L 476.213967 563.403894 
L 481.193646 566.246123 
L 486.173326 566.255639 
L 496.132684 562.983745 
L 501.112363 563.589814 
L 506.092042 562.442821 
L 511.071721 566.736541 
L 516.0514 566.974431 
L 521.03108 567.426054 
L 526.010759 566.444486 
L 530.990438 560.965711 
L 535.970117 558.984276 
L 540.949796 560.711719 
L 545.929475 562.655824 
L 550.909154 565.438763 
L 555.888834 564.099263 
L 560.868513 563.275068 
L 565.848192 561.083558 
L 570.827871 564.456463 
L 575.80755 568.479355 
L 580.787229 568.993196 
L 585.766908 565.937233 
L 590.746588 562.198344 
L 595.726267 563.294099 
L 600.705946 565.479754 
L 605.685625 565.060336 
L 610.665304 567.52853 
L 615.644983 566.908554 
L 620.624662 565.56759 
L 625.604342 563.815992 
L 630.584021 567.371157 
L 635.5637 570.594741 
L 640.543379 569.122755 
L 645.523058 565.004707 
L 650.502737 562.493327 
L 655.482416 563.836487 
L 660.462096 567.055679 
L 665.441775 567.180845 
L 670.421454 567.62515 
L 675.401133 564.848798 
L 680.380812 561.086486 
L 685.360491 560.921793 
L 690.34017 563.58469 
L 695.31985 566.584292 
L 700.299529 564.606517 
L 705.279208 560.642914 
L 710.258887 560.671461 
L 715.238566 560.848597 
L 720.218245 562.335954 
L 725.197924 565.322381 
L 730.177604 561.106249 
L 735.157283 561.090146 
L 740.136962 558.725892 
L 745.116641 558.923523 
L 750.09632 563.532721 
L 755.075999 565.796695 
L 760.055678 564.567722 
L 765.035358 565.661281 
L 770.015037 564.255172 
L 774.994716 563.931643 
L 779.974395 567.040308 
L 784.954074 568.102392 
L 789.933753 567.179382 
L 794.913432 567.445818 
L 799.893112 565.766685 
L 804.872791 563.286048 
L 809.85247 567.303816 
L 814.832149 568.536449 
L 819.811828 567.310404 
L 824.791507 565.877212 
L 829.771186 563.421462 
L 834.750866 563.084025 
L 839.730545 564.437432 
L 844.710224 566.251979 
L 849.689903 566.546962 
L 854.669582 565.3297 
L 859.649261 563.646908 
L 864.628941 563.557608 
L 869.60862 566.230752 
L 874.588299 569.278664 
L 879.567978 568.096537 
L 884.547657 564.864901 
L 889.527336 560.82371 
L 894.507015 561.550553 
L 899.486695 563.592742 
L 904.466374 564.768281 
L 909.446053 565.520744 
L 914.425732 561.295097 
L 919.405411 562.034384 
L 924.38509 562.126612 
L 929.364769 562.872486 
L 934.344449 569.552419 
L 939.324128 568.627945 
L 949.283486 562.318387 
L 964.222523 568.237074 
L 969.202203 566.791439 
L 974.181882 564.431576 
L 979.161561 562.874682 
L 984.14124 561.097466 
L 989.120919 563.009364 
L 994.100598 565.561002 
L 999.080277 568.529861 
L 1004.059957 566.04776 
L 1009.039636 560.951804 
L 1014.019315 561.03232 
L 1018.998994 564.432308 
L 1023.978673 566.740933 
L 1028.958352 567.712254 
L 1033.938031 564.602125 
L 1038.917711 563.245789 
L 1043.89739 562.019012 
L 1048.877069 564.740467 
L 1053.856748 566.336155 
L 1058.836427 567.231351 
L 1068.795785 561.380005 
L 1073.775465 559.805543 
L 1078.755144 560.709523 
L 1083.734823 559.935102 
L 1088.714502 562.667535 
L 1093.694181 559.013555 
L 1103.653539 557.722365 
L 1108.633219 562.903229 
L 1113.612898 564.528928 
L 1113.612898 564.528928 
" style="fill:none;stroke:#008000;stroke-linecap:square;stroke-width:1.5;"/>
   </g>
   <g id="line2d_34">
    <path clip-path="url(#p3129d1a5fb)" d="M 97.758352 603.250728 
L 102.738031 601.412026 
L 107.717711 601.152178 
L 112.69739 595.193232 
L 117.677069 593.959136 
L 122.656748 593.079311 
L 127.636427 596.612517 
L 132.616106 594.623762 
L 137.595785 594.554957 
L 142.575465 592.871432 
L 147.555144 592.543511 
L 152.534823 596.736951 
L 157.514502 599.972247 
L 162.494181 600.254054 
L 167.47386 596.749395 
L 172.453539 591.823987 
L 177.433219 591.230362 
L 182.412898 591.451416 
L 187.392577 592.748462 
L 192.372256 593.312077 
L 197.351935 592.763833 
L 202.331614 590.87609 
L 207.311293 591.479231 
L 212.290973 594.730629 
L 217.270652 599.879287 
L 222.250331 599.636274 
L 227.23001 594.486884 
L 237.189368 590.571591 
L 242.169047 592.308549 
L 247.148727 593.118105 
L 257.108085 592.154104 
L 262.087764 590.962462 
L 267.067443 589.951615 
L 272.047122 592.899247 
L 277.026801 597.276411 
L 282.006481 601.087765 
L 286.98616 599.426199 
L 291.965839 594.07625 
L 296.945518 589.581971 
L 301.925197 589.412155 
L 306.904876 591.354064 
L 311.884555 591.466787 
L 316.864235 592.659162 
L 321.843914 589.047635 
L 326.823593 590.974173 
L 331.803272 595.049767 
L 336.782951 597.722911 
L 341.76263 597.299834 
L 346.742309 595.484555 
L 351.721989 592.24194 
L 356.701668 589.188905 
L 361.681347 590.871698 
L 366.661026 589.989677 
L 371.640705 591.54584 
L 376.620384 590.152906 
L 381.600064 588.590156 
L 386.579743 590.242206 
L 391.559422 596.68791 
L 396.539101 597.684117 
L 401.51878 600.352138 
L 406.498459 595.132479 
L 411.478138 592.543511 
L 416.457818 589.327979 
L 421.437497 590.736284 
L 426.417176 588.899046 
L 431.396855 587.372162 
L 436.376534 587.714723 
L 441.356213 589.375557 
L 446.335892 588.433515 
L 451.315572 590.722376 
L 456.295251 594.08723 
L 461.27493 594.339759 
L 466.254609 594.271686 
L 471.234288 590.349073 
L 476.213967 590.083369 
L 481.193646 591.369435 
L 486.173326 591.176928 
L 491.153005 591.375291 
L 496.132684 590.909028 
L 501.112363 590.763367 
L 506.092042 591.081772 
L 511.071721 595.790518 
L 516.0514 598.268959 
L 521.03108 600.128156 
L 526.010759 599.019225 
L 530.990438 595.496267 
L 535.970117 590.795573 
L 540.949796 588.519155 
L 545.929475 589.434846 
L 550.909154 592.493737 
L 555.888834 591.148381 
L 560.868513 590.528405 
L 565.848192 590.326382 
L 570.827871 591.478499 
L 575.80755 596.848942 
L 580.787229 598.394125 
L 585.766908 597.211266 
L 590.746588 592.571326 
L 595.726267 591.454344 
L 600.705946 591.239877 
L 605.685625 592.011371 
L 610.665304 593.315736 
L 615.644983 594.784795 
L 620.624662 593.364046 
L 625.604342 593.918877 
L 630.584021 596.657899 
L 635.5637 599.866111 
L 640.543379 597.306422 
L 645.523058 595.220315 
L 650.502737 591.792513 
L 655.482416 590.237814 
L 660.462096 591.569263 
L 665.441775 592.529604 
L 670.421454 592.832638 
L 675.401133 593.749061 
L 680.380812 589.859387 
L 685.360491 590.440569 
L 690.34017 594.341955 
L 695.31985 597.935914 
L 700.299529 596.590558 
L 705.279208 593.381613 
L 710.258887 592.394922 
L 715.238566 589.527806 
L 720.218245 590.006512 
L 725.197924 591.039318 
L 730.177604 589.049831 
L 735.157283 588.453278 
L 740.136962 587.080107 
L 745.116641 585.475635 
L 750.09632 590.504982 
L 755.075999 592.430788 
L 760.055678 592.904371 
L 765.035358 593.003918 
L 770.015037 592.077248 
L 774.994716 591.282331 
L 784.954074 593.772484 
L 789.933753 594.361718 
L 794.913432 593.364046 
L 804.872791 590.573055 
L 809.85247 595.362317 
L 814.832149 598.37729 
L 819.811828 598.762305 
L 824.791507 595.7283 
L 829.771186 591.692965 
L 834.750866 589.904037 
L 839.730545 589.300896 
L 844.710224 591.931586 
L 849.689903 592.541315 
L 859.649261 591.21499 
L 864.628941 591.354064 
L 869.60862 595.52701 
L 874.588299 596.77355 
L 879.567978 598.587365 
L 884.547657 596.635208 
L 889.527336 591.208403 
L 894.507015 588.527939 
L 899.486695 590.207071 
L 904.466374 589.475104 
L 909.446053 590.557684 
L 919.405411 588.418143 
L 924.38509 587.891127 
L 929.364769 590.300031 
L 934.344449 595.789054 
L 939.324128 597.460867 
L 944.303807 595.380616 
L 949.283486 591.770554 
L 954.263165 590.973441 
L 959.242844 590.603798 
L 964.222523 592.47983 
L 969.202203 593.601204 
L 974.181882 591.238413 
L 979.161561 589.753984 
L 984.14124 587.96286 
L 989.120919 589.448753 
L 994.100598 593.677328 
L 999.080277 596.563475 
L 1004.059957 598.718387 
L 1009.039636 593.518491 
L 1014.019315 589.08277 
L 1018.998994 588.832437 
L 1023.978673 590.870234 
L 1028.958352 593.377222 
L 1033.938031 591.309414 
L 1038.917711 590.163153 
L 1043.89739 590.579643 
L 1048.877069 592.341488 
L 1053.856748 597.218586 
L 1058.836427 599.198557 
L 1063.816106 598.062544 
L 1068.795785 594.1392 
L 1073.775465 588.183182 
L 1078.755144 586.991539 
L 1083.734823 586.874425 
L 1088.714502 587.452679 
L 1093.694181 585.445624 
L 1098.67386 585.862846 
L 1103.653539 584.3872 
L 1108.633219 589.949419 
L 1113.612898 591.864245 
L 1113.612898 591.864245 
" style="fill:none;stroke:#0000ff;stroke-linecap:square;stroke-width:1.5;"/>
   </g>
   <g id="line2d_35">
    <defs>
     <path d="M 0 3 
C 0.795609 3 1.55874 2.683901 2.12132 2.12132 
C 2.683901 1.55874 3 0.795609 3 0 
C 3 -0.795609 2.683901 -1.55874 2.12132 -2.12132 
C 1.55874 -2.683901 0.795609 -3 0 -3 
C -0.795609 -3 -1.55874 -2.683901 -2.12132 -2.12132 
C -2.683901 -1.55874 -3 -0.795609 -3 0 
C -3 0.795609 -2.683901 1.55874 -2.12132 2.12132 
C -1.55874 2.683901 -0.795609 3 0 3 
z
" id="maee77479f1" style="stroke:#ff0000;"/>
    </defs>
    <g clip-path="url(#p3129d1a5fb)">
     <use style="fill:#ff0000;stroke:#ff0000;" x="122.656748" xlink:href="#maee77479f1" y="639.849091"/>
     <use style="fill:#ff0000;stroke:#ff0000;" x="132.616106" xlink:href="#maee77479f1" y="639.849091"/>
     <use style="fill:#ff0000;stroke:#ff0000;" x="147.555144" xlink:href="#maee77479f1" y="639.849091"/>
     <use style="fill:#ff0000;stroke:#ff0000;" x="152.534823" xlink:href="#maee77479f1" y="639.849091"/>
     <use style="fill:#ff0000;stroke:#ff0000;" x="157.514502" xlink:href="#maee77479f1" y="639.849091"/>
     <use style="fill:#ff0000;stroke:#ff0000;" x="172.453539" xlink:href="#maee77479f1" y="639.849091"/>
     <use style="fill:#ff0000;stroke:#ff0000;" x="177.433219" xlink:href="#maee77479f1" y="639.849091"/>
     <use style="fill:#ff0000;stroke:#ff0000;" x="182.412898" xlink:href="#maee77479f1" y="639.849091"/>
     <use style="fill:#ff0000;stroke:#ff0000;" x="187.392577" xlink:href="#maee77479f1" y="639.849091"/>
     <use style="fill:#ff0000;stroke:#ff0000;" x="192.372256" xlink:href="#maee77479f1" y="639.849091"/>
     <use style="fill:#ff0000;stroke:#ff0000;" x="212.290973" xlink:href="#maee77479f1" y="639.849091"/>
     <use style="fill:#ff0000;stroke:#ff0000;" x="217.270652" xlink:href="#maee77479f1" y="639.849091"/>
     <use style="fill:#ff0000;stroke:#ff0000;" x="222.250331" xlink:href="#maee77479f1" y="639.849091"/>
     <use style="fill:#ff0000;stroke:#ff0000;" x="232.209689" xlink:href="#maee77479f1" y="639.849091"/>
     <use style="fill:#ff0000;stroke:#ff0000;" x="242.169047" xlink:href="#maee77479f1" y="639.849091"/>
     <use style="fill:#ff0000;stroke:#ff0000;" x="247.148727" xlink:href="#maee77479f1" y="639.849091"/>
     <use style="fill:#ff0000;stroke:#ff0000;" x="252.128406" xlink:href="#maee77479f1" y="639.849091"/>
     <use style="fill:#ff0000;stroke:#ff0000;" x="257.108085" xlink:href="#maee77479f1" y="639.849091"/>
     <use style="fill:#ff0000;stroke:#ff0000;" x="262.087764" xlink:href="#maee77479f1" y="639.849091"/>
     <use style="fill:#ff0000;stroke:#ff0000;" x="267.067443" xlink:href="#maee77479f1" y="639.849091"/>
     <use style="fill:#ff0000;stroke:#ff0000;" x="282.006481" xlink:href="#maee77479f1" y="639.849091"/>
     <use style="fill:#ff0000;stroke:#ff0000;" x="286.98616" xlink:href="#maee77479f1" y="639.849091"/>
     <use style="fill:#ff0000;stroke:#ff0000;" x="291.965839" xlink:href="#maee77479f1" y="639.849091"/>
     <use style="fill:#ff0000;stroke:#ff0000;" x="296.945518" xlink:href="#maee77479f1" y="639.849091"/>
     <use style="fill:#ff0000;stroke:#ff0000;" x="301.925197" xlink:href="#maee77479f1" y="639.849091"/>
     <use style="fill:#ff0000;stroke:#ff0000;" x="306.904876" xlink:href="#maee77479f1" y="639.849091"/>
     <use style="fill:#ff0000;stroke:#ff0000;" x="311.884555" xlink:href="#maee77479f1" y="639.849091"/>
     <use style="fill:#ff0000;stroke:#ff0000;" x="316.864235" xlink:href="#maee77479f1" y="639.849091"/>
     <use style="fill:#ff0000;stroke:#ff0000;" x="321.843914" xlink:href="#maee77479f1" y="639.849091"/>
     <use style="fill:#ff0000;stroke:#ff0000;" x="326.823593" xlink:href="#maee77479f1" y="639.849091"/>
     <use style="fill:#ff0000;stroke:#ff0000;" x="341.76263" xlink:href="#maee77479f1" y="639.849091"/>
     <use style="fill:#ff0000;stroke:#ff0000;" x="346.742309" xlink:href="#maee77479f1" y="639.849091"/>
     <use style="fill:#ff0000;stroke:#ff0000;" x="356.701668" xlink:href="#maee77479f1" y="639.849091"/>
     <use style="fill:#ff0000;stroke:#ff0000;" x="361.681347" xlink:href="#maee77479f1" y="639.849091"/>
     <use style="fill:#ff0000;stroke:#ff0000;" x="366.661026" xlink:href="#maee77479f1" y="639.849091"/>
     <use style="fill:#ff0000;stroke:#ff0000;" x="371.640705" xlink:href="#maee77479f1" y="639.849091"/>
     <use style="fill:#ff0000;stroke:#ff0000;" x="376.620384" xlink:href="#maee77479f1" y="639.849091"/>
     <use style="fill:#ff0000;stroke:#ff0000;" x="381.600064" xlink:href="#maee77479f1" y="639.849091"/>
     <use style="fill:#ff0000;stroke:#ff0000;" x="391.559422" xlink:href="#maee77479f1" y="639.849091"/>
     <use style="fill:#ff0000;stroke:#ff0000;" x="406.498459" xlink:href="#maee77479f1" y="639.849091"/>
     <use style="fill:#ff0000;stroke:#ff0000;" x="416.457818" xlink:href="#maee77479f1" y="639.849091"/>
     <use style="fill:#ff0000;stroke:#ff0000;" x="421.437497" xlink:href="#maee77479f1" y="639.849091"/>
     <use style="fill:#ff0000;stroke:#ff0000;" x="426.417176" xlink:href="#maee77479f1" y="639.849091"/>
     <use style="fill:#ff0000;stroke:#ff0000;" x="431.396855" xlink:href="#maee77479f1" y="639.849091"/>
     <use style="fill:#ff0000;stroke:#ff0000;" x="436.376534" xlink:href="#maee77479f1" y="639.849091"/>
     <use style="fill:#ff0000;stroke:#ff0000;" x="441.356213" xlink:href="#maee77479f1" y="639.849091"/>
     <use style="fill:#ff0000;stroke:#ff0000;" x="461.27493" xlink:href="#maee77479f1" y="639.849091"/>
     <use style="fill:#ff0000;stroke:#ff0000;" x="466.254609" xlink:href="#maee77479f1" y="639.849091"/>
     <use style="fill:#ff0000;stroke:#ff0000;" x="471.234288" xlink:href="#maee77479f1" y="639.849091"/>
     <use style="fill:#ff0000;stroke:#ff0000;" x="481.193646" xlink:href="#maee77479f1" y="639.849091"/>
     <use style="fill:#ff0000;stroke:#ff0000;" x="486.173326" xlink:href="#maee77479f1" y="639.849091"/>
     <use style="fill:#ff0000;stroke:#ff0000;" x="491.153005" xlink:href="#maee77479f1" y="639.849091"/>
     <use style="fill:#ff0000;stroke:#ff0000;" x="496.132684" xlink:href="#maee77479f1" y="639.849091"/>
     <use style="fill:#ff0000;stroke:#ff0000;" x="501.112363" xlink:href="#maee77479f1" y="639.849091"/>
     <use style="fill:#ff0000;stroke:#ff0000;" x="506.092042" xlink:href="#maee77479f1" y="639.849091"/>
     <use style="fill:#ff0000;stroke:#ff0000;" x="511.071721" xlink:href="#maee77479f1" y="639.849091"/>
     <use style="fill:#ff0000;stroke:#ff0000;" x="516.0514" xlink:href="#maee77479f1" y="639.849091"/>
     <use style="fill:#ff0000;stroke:#ff0000;" x="521.03108" xlink:href="#maee77479f1" y="639.849091"/>
     <use style="fill:#ff0000;stroke:#ff0000;" x="540.949796" xlink:href="#maee77479f1" y="639.849091"/>
     <use style="fill:#ff0000;stroke:#ff0000;" x="545.929475" xlink:href="#maee77479f1" y="639.849091"/>
     <use style="fill:#ff0000;stroke:#ff0000;" x="550.909154" xlink:href="#maee77479f1" y="639.849091"/>
     <use style="fill:#ff0000;stroke:#ff0000;" x="555.888834" xlink:href="#maee77479f1" y="639.849091"/>
     <use style="fill:#ff0000;stroke:#ff0000;" x="565.848192" xlink:href="#maee77479f1" y="639.849091"/>
     <use style="fill:#ff0000;stroke:#ff0000;" x="570.827871" xlink:href="#maee77479f1" y="639.849091"/>
     <use style="fill:#ff0000;stroke:#ff0000;" x="575.80755" xlink:href="#maee77479f1" y="639.849091"/>
     <use style="fill:#ff0000;stroke:#ff0000;" x="580.787229" xlink:href="#maee77479f1" y="639.849091"/>
     <use style="fill:#ff0000;stroke:#ff0000;" x="585.766908" xlink:href="#maee77479f1" y="639.849091"/>
     <use style="fill:#ff0000;stroke:#ff0000;" x="590.746588" xlink:href="#maee77479f1" y="639.849091"/>
     <use style="fill:#ff0000;stroke:#ff0000;" x="595.726267" xlink:href="#maee77479f1" y="639.849091"/>
     <use style="fill:#ff0000;stroke:#ff0000;" x="600.705946" xlink:href="#maee77479f1" y="639.849091"/>
     <use style="fill:#ff0000;stroke:#ff0000;" x="605.685625" xlink:href="#maee77479f1" y="639.849091"/>
     <use style="fill:#ff0000;stroke:#ff0000;" x="610.665304" xlink:href="#maee77479f1" y="639.849091"/>
     <use style="fill:#ff0000;stroke:#ff0000;" x="615.644983" xlink:href="#maee77479f1" y="639.849091"/>
     <use style="fill:#ff0000;stroke:#ff0000;" x="620.624662" xlink:href="#maee77479f1" y="639.849091"/>
     <use style="fill:#ff0000;stroke:#ff0000;" x="625.604342" xlink:href="#maee77479f1" y="639.849091"/>
     <use style="fill:#ff0000;stroke:#ff0000;" x="645.523058" xlink:href="#maee77479f1" y="639.849091"/>
     <use style="fill:#ff0000;stroke:#ff0000;" x="650.502737" xlink:href="#maee77479f1" y="639.849091"/>
     <use style="fill:#ff0000;stroke:#ff0000;" x="655.482416" xlink:href="#maee77479f1" y="639.849091"/>
     <use style="fill:#ff0000;stroke:#ff0000;" x="660.462096" xlink:href="#maee77479f1" y="639.849091"/>
     <use style="fill:#ff0000;stroke:#ff0000;" x="665.441775" xlink:href="#maee77479f1" y="639.849091"/>
     <use style="fill:#ff0000;stroke:#ff0000;" x="670.421454" xlink:href="#maee77479f1" y="639.849091"/>
     <use style="fill:#ff0000;stroke:#ff0000;" x="675.401133" xlink:href="#maee77479f1" y="639.849091"/>
     <use style="fill:#ff0000;stroke:#ff0000;" x="705.279208" xlink:href="#maee77479f1" y="639.849091"/>
     <use style="fill:#ff0000;stroke:#ff0000;" x="710.258887" xlink:href="#maee77479f1" y="639.849091"/>
     <use style="fill:#ff0000;stroke:#ff0000;" x="715.238566" xlink:href="#maee77479f1" y="639.849091"/>
     <use style="fill:#ff0000;stroke:#ff0000;" x="720.218245" xlink:href="#maee77479f1" y="639.849091"/>
     <use style="fill:#ff0000;stroke:#ff0000;" x="725.197924" xlink:href="#maee77479f1" y="639.849091"/>
     <use style="fill:#ff0000;stroke:#ff0000;" x="730.177604" xlink:href="#maee77479f1" y="639.849091"/>
     <use style="fill:#ff0000;stroke:#ff0000;" x="735.157283" xlink:href="#maee77479f1" y="639.849091"/>
     <use style="fill:#ff0000;stroke:#ff0000;" x="750.09632" xlink:href="#maee77479f1" y="639.849091"/>
     <use style="fill:#ff0000;stroke:#ff0000;" x="755.075999" xlink:href="#maee77479f1" y="639.849091"/>
     <use style="fill:#ff0000;stroke:#ff0000;" x="760.055678" xlink:href="#maee77479f1" y="639.849091"/>
     <use style="fill:#ff0000;stroke:#ff0000;" x="765.035358" xlink:href="#maee77479f1" y="639.849091"/>
     <use style="fill:#ff0000;stroke:#ff0000;" x="770.015037" xlink:href="#maee77479f1" y="639.849091"/>
     <use style="fill:#ff0000;stroke:#ff0000;" x="774.994716" xlink:href="#maee77479f1" y="639.849091"/>
     <use style="fill:#ff0000;stroke:#ff0000;" x="784.954074" xlink:href="#maee77479f1" y="639.849091"/>
     <use style="fill:#ff0000;stroke:#ff0000;" x="789.933753" xlink:href="#maee77479f1" y="639.849091"/>
     <use style="fill:#ff0000;stroke:#ff0000;" x="794.913432" xlink:href="#maee77479f1" y="639.849091"/>
     <use style="fill:#ff0000;stroke:#ff0000;" x="799.893112" xlink:href="#maee77479f1" y="639.849091"/>
     <use style="fill:#ff0000;stroke:#ff0000;" x="804.872791" xlink:href="#maee77479f1" y="639.849091"/>
     <use style="fill:#ff0000;stroke:#ff0000;" x="814.832149" xlink:href="#maee77479f1" y="639.849091"/>
     <use style="fill:#ff0000;stroke:#ff0000;" x="824.791507" xlink:href="#maee77479f1" y="639.849091"/>
     <use style="fill:#ff0000;stroke:#ff0000;" x="834.750866" xlink:href="#maee77479f1" y="639.849091"/>
     <use style="fill:#ff0000;stroke:#ff0000;" x="839.730545" xlink:href="#maee77479f1" y="639.849091"/>
     <use style="fill:#ff0000;stroke:#ff0000;" x="844.710224" xlink:href="#maee77479f1" y="639.849091"/>
     <use style="fill:#ff0000;stroke:#ff0000;" x="849.689903" xlink:href="#maee77479f1" y="639.849091"/>
     <use style="fill:#ff0000;stroke:#ff0000;" x="859.649261" xlink:href="#maee77479f1" y="639.849091"/>
     <use style="fill:#ff0000;stroke:#ff0000;" x="864.628941" xlink:href="#maee77479f1" y="639.849091"/>
     <use style="fill:#ff0000;stroke:#ff0000;" x="874.588299" xlink:href="#maee77479f1" y="639.849091"/>
     <use style="fill:#ff0000;stroke:#ff0000;" x="879.567978" xlink:href="#maee77479f1" y="639.849091"/>
     <use style="fill:#ff0000;stroke:#ff0000;" x="884.547657" xlink:href="#maee77479f1" y="639.849091"/>
     <use style="fill:#ff0000;stroke:#ff0000;" x="894.507015" xlink:href="#maee77479f1" y="639.849091"/>
     <use style="fill:#ff0000;stroke:#ff0000;" x="899.486695" xlink:href="#maee77479f1" y="639.849091"/>
     <use style="fill:#ff0000;stroke:#ff0000;" x="904.466374" xlink:href="#maee77479f1" y="639.849091"/>
     <use style="fill:#ff0000;stroke:#ff0000;" x="909.446053" xlink:href="#maee77479f1" y="639.849091"/>
     <use style="fill:#ff0000;stroke:#ff0000;" x="914.425732" xlink:href="#maee77479f1" y="639.849091"/>
     <use style="fill:#ff0000;stroke:#ff0000;" x="919.405411" xlink:href="#maee77479f1" y="639.849091"/>
     <use style="fill:#ff0000;stroke:#ff0000;" x="934.344449" xlink:href="#maee77479f1" y="639.849091"/>
     <use style="fill:#ff0000;stroke:#ff0000;" x="944.303807" xlink:href="#maee77479f1" y="639.849091"/>
     <use style="fill:#ff0000;stroke:#ff0000;" x="949.283486" xlink:href="#maee77479f1" y="639.849091"/>
     <use style="fill:#ff0000;stroke:#ff0000;" x="954.263165" xlink:href="#maee77479f1" y="639.849091"/>
     <use style="fill:#ff0000;stroke:#ff0000;" x="959.242844" xlink:href="#maee77479f1" y="639.849091"/>
     <use style="fill:#ff0000;stroke:#ff0000;" x="964.222523" xlink:href="#maee77479f1" y="639.849091"/>
     <use style="fill:#ff0000;stroke:#ff0000;" x="969.202203" xlink:href="#maee77479f1" y="639.849091"/>
     <use style="fill:#ff0000;stroke:#ff0000;" x="1014.019315" xlink:href="#maee77479f1" y="639.849091"/>
     <use style="fill:#ff0000;stroke:#ff0000;" x="1018.998994" xlink:href="#maee77479f1" y="639.849091"/>
     <use style="fill:#ff0000;stroke:#ff0000;" x="1023.978673" xlink:href="#maee77479f1" y="639.849091"/>
     <use style="fill:#ff0000;stroke:#ff0000;" x="1028.958352" xlink:href="#maee77479f1" y="639.849091"/>
     <use style="fill:#ff0000;stroke:#ff0000;" x="1033.938031" xlink:href="#maee77479f1" y="639.849091"/>
     <use style="fill:#ff0000;stroke:#ff0000;" x="1043.89739" xlink:href="#maee77479f1" y="639.849091"/>
     <use style="fill:#ff0000;stroke:#ff0000;" x="1053.856748" xlink:href="#maee77479f1" y="639.849091"/>
     <use style="fill:#ff0000;stroke:#ff0000;" x="1063.816106" xlink:href="#maee77479f1" y="639.849091"/>
     <use style="fill:#ff0000;stroke:#ff0000;" x="1068.795785" xlink:href="#maee77479f1" y="639.849091"/>
     <use style="fill:#ff0000;stroke:#ff0000;" x="1073.775465" xlink:href="#maee77479f1" y="639.849091"/>
     <use style="fill:#ff0000;stroke:#ff0000;" x="1078.755144" xlink:href="#maee77479f1" y="639.849091"/>
     <use style="fill:#ff0000;stroke:#ff0000;" x="1083.734823" xlink:href="#maee77479f1" y="639.849091"/>
     <use style="fill:#ff0000;stroke:#ff0000;" x="1088.714502" xlink:href="#maee77479f1" y="639.849091"/>
     <use style="fill:#ff0000;stroke:#ff0000;" x="1093.694181" xlink:href="#maee77479f1" y="639.849091"/>
     <use style="fill:#ff0000;stroke:#ff0000;" x="1103.653539" xlink:href="#maee77479f1" y="639.849091"/>
     <use style="fill:#ff0000;stroke:#ff0000;" x="1108.633219" xlink:href="#maee77479f1" y="639.849091"/>
     <use style="fill:#ff0000;stroke:#ff0000;" x="1113.612898" xlink:href="#maee77479f1" y="639.849091"/>
    </g>
   </g>
   <g id="patch_9">
    <path d="M 46.965625 645.74 
L 46.965625 516.14 
" style="fill:none;stroke:#000000;stroke-linecap:square;stroke-linejoin:miter;stroke-width:0.8;"/>
   </g>
   <g id="patch_10">
    <path d="M 1164.405625 645.74 
L 1164.405625 516.14 
" style="fill:none;stroke:#000000;stroke-linecap:square;stroke-linejoin:miter;stroke-width:0.8;"/>
   </g>
   <g id="patch_11">
    <path d="M 46.965625 645.74 
L 1164.405625 645.74 
" style="fill:none;stroke:#000000;stroke-linecap:square;stroke-linejoin:miter;stroke-width:0.8;"/>
   </g>
   <g id="patch_12">
    <path d="M 46.965625 516.14 
L 1164.405625 516.14 
" style="fill:none;stroke:#000000;stroke-linecap:square;stroke-linejoin:miter;stroke-width:0.8;"/>
   </g>
   <g id="legend_2">
    <g id="patch_13">
     <path d="M 53.965625 582.8525 
L 144.978125 582.8525 
Q 146.978125 582.8525 146.978125 580.8525 
L 146.978125 523.14 
Q 146.978125 521.14 144.978125 521.14 
L 53.965625 521.14 
Q 51.965625 521.14 51.965625 523.14 
L 51.965625 580.8525 
Q 51.965625 582.8525 53.965625 582.8525 
z
" style="fill:#ffffff;opacity:0.8;stroke:#cccccc;stroke-linejoin:miter;"/>
    </g>
    <g id="line2d_36">
     <path d="M 55.965625 529.238437 
L 75.965625 529.238437 
" style="fill:none;stroke:#ff0000;stroke-linecap:square;stroke-width:1.5;"/>
    </g>
    <g id="line2d_37"/>
    <g id="text_29">
     <!-- Maxmimum -->
     <defs>
      <path d="M 9.8125 72.90625 
L 24.515625 72.90625 
L 43.109375 23.296875 
L 61.8125 72.90625 
L 76.515625 72.90625 
L 76.515625 0 
L 66.890625 0 
L 66.890625 64.015625 
L 48.09375 14.015625 
L 38.1875 14.015625 
L 19.390625 64.015625 
L 19.390625 0 
L 9.8125 0 
z
" id="DejaVuSans-4d"/>
      <path d="M 54.890625 54.6875 
L 35.109375 28.078125 
L 55.90625 0 
L 45.3125 0 
L 29.390625 21.484375 
L 13.484375 0 
L 2.875 0 
L 24.125 28.609375 
L 4.6875 54.6875 
L 15.28125 54.6875 
L 29.78125 35.203125 
L 44.28125 54.6875 
z
" id="DejaVuSans-78"/>
     </defs>
     <g transform="translate(83.965625 532.738437)scale(0.1 -0.1)">
      <use xlink:href="#DejaVuSans-4d"/>
      <use x="86.279297" xlink:href="#DejaVuSans-61"/>
      <use x="147.558594" xlink:href="#DejaVuSans-78"/>
      <use x="206.738281" xlink:href="#DejaVuSans-6d"/>
      <use x="304.150391" xlink:href="#DejaVuSans-69"/>
      <use x="331.933594" xlink:href="#DejaVuSans-6d"/>
      <use x="429.345703" xlink:href="#DejaVuSans-75"/>
      <use x="492.724609" xlink:href="#DejaVuSans-6d"/>
     </g>
    </g>
    <g id="line2d_38">
     <path d="M 55.965625 543.916562 
L 75.965625 543.916562 
" style="fill:none;stroke:#008000;stroke-linecap:square;stroke-width:1.5;"/>
    </g>
    <g id="line2d_39"/>
    <g id="text_30">
     <!-- Average -->
     <defs>
      <path d="M 34.1875 63.1875 
L 20.796875 26.90625 
L 47.609375 26.90625 
z
M 28.609375 72.90625 
L 39.796875 72.90625 
L 67.578125 0 
L 57.328125 0 
L 50.6875 18.703125 
L 17.828125 18.703125 
L 11.1875 0 
L 0.78125 0 
z
" id="DejaVuSans-41"/>
      <path d="M 2.984375 54.6875 
L 12.5 54.6875 
L 29.59375 8.796875 
L 46.6875 54.6875 
L 56.203125 54.6875 
L 35.6875 0 
L 23.484375 0 
z
" id="DejaVuSans-76"/>
     </defs>
     <g transform="translate(83.965625 547.416562)scale(0.1 -0.1)">
      <use xlink:href="#DejaVuSans-41"/>
      <use x="68.330078" xlink:href="#DejaVuSans-76"/>
      <use x="127.509766" xlink:href="#DejaVuSans-65"/>
      <use x="189.033203" xlink:href="#DejaVuSans-72"/>
      <use x="230.146484" xlink:href="#DejaVuSans-61"/>
      <use x="291.425781" xlink:href="#DejaVuSans-67"/>
      <use x="354.902344" xlink:href="#DejaVuSans-65"/>
     </g>
    </g>
    <g id="line2d_40">
     <path d="M 55.965625 558.594687 
L 75.965625 558.594687 
" style="fill:none;stroke:#0000ff;stroke-linecap:square;stroke-width:1.5;"/>
    </g>
    <g id="line2d_41"/>
    <g id="text_31">
     <!-- Minimum -->
     <g transform="translate(83.965625 562.094687)scale(0.1 -0.1)">
      <use xlink:href="#DejaVuSans-4d"/>
      <use x="86.279297" xlink:href="#DejaVuSans-69"/>
      <use x="114.0625" xlink:href="#DejaVuSans-6e"/>
      <use x="177.441406" xlink:href="#DejaVuSans-69"/>
      <use x="205.224609" xlink:href="#DejaVuSans-6d"/>
      <use x="302.636719" xlink:href="#DejaVuSans-75"/>
      <use x="366.015625" xlink:href="#DejaVuSans-6d"/>
     </g>
    </g>
    <g id="line2d_42"/>
    <g id="line2d_43">
     <g>
      <use style="fill:#ff0000;stroke:#ff0000;" x="65.965625" xlink:href="#maee77479f1" y="573.272812"/>
     </g>
    </g>
    <g id="text_32">
     <!-- Disasters -->
     <g transform="translate(83.965625 576.772812)scale(0.1 -0.1)">
      <use xlink:href="#DejaVuSans-44"/>
      <use x="77.001953" xlink:href="#DejaVuSans-69"/>
      <use x="104.785156" xlink:href="#DejaVuSans-73"/>
      <use x="156.884766" xlink:href="#DejaVuSans-61"/>
      <use x="218.164062" xlink:href="#DejaVuSans-73"/>
      <use x="270.263672" xlink:href="#DejaVuSans-74"/>
      <use x="309.472656" xlink:href="#DejaVuSans-65"/>
      <use x="370.996094" xlink:href="#DejaVuSans-72"/>
      <use x="412.109375" xlink:href="#DejaVuSans-73"/>
     </g>
    </g>
   </g>
  </g>
 </g>
 <defs>
  <clipPath id="pf0ecb8ea35">
   <rect height="498.96" width="1116" x="46.965625" y="10.7"/>
  </clipPath>
  <clipPath id="p3129d1a5fb">
   <rect height="129.6" width="1117.44" x="46.965625" y="516.14"/>
  </clipPath>
 </defs>
</svg>
