<?xml version="1.0" encoding="utf-8" standalone="no"?>
<!DOCTYPE svg PUBLIC "-//W3C//DTD SVG 1.1//EN"
  "http://www.w3.org/Graphics/SVG/1.1/DTD/svg11.dtd">
<!-- Created with matplotlib (http://matplotlib.org/) -->
<svg height="669pt" version="1.1" viewBox="0 0 1175 669" width="1175pt" xmlns="http://www.w3.org/2000/svg" xmlns:xlink="http://www.w3.org/1999/xlink">
 <defs>
  <style type="text/css">
*{stroke-linecap:butt;stroke-linejoin:round;}
  </style>
 </defs>
 <g id="figure_1">
  <g id="patch_1">
   <path d="M 0 669.618125 
L 1175.105625 669.618125 
L 1175.105625 -0 
L 0 -0 
z
" style="fill:none;"/>
  </g>
  <g id="axes_1">
   <g id="patch_2">
    <path d="M 46.965625 509.66 
L 1162.965625 509.66 
L 1162.965625 10.7 
L 46.965625 10.7 
z
" style="fill:none;"/>
   </g>
   <g id="matplotlib.axis_1">
    <g id="xtick_1">
     <g id="line2d_1">
      <defs>
       <path d="M 0 0 
L 0 3.5 
" id="m7dc70e9484" style="stroke:#000000;stroke-width:0.8;"/>
      </defs>
      <g>
       <use style="stroke:#000000;stroke-width:0.8;" x="97.692898" xlink:href="#m7dc70e9484" y="509.66"/>
      </g>
     </g>
     <g id="text_1">
      <!-- 0 -->
      <defs>
       <path d="M 31.78125 66.40625 
Q 24.171875 66.40625 20.328125 58.90625 
Q 16.5 51.421875 16.5 36.375 
Q 16.5 21.390625 20.328125 13.890625 
Q 24.171875 6.390625 31.78125 6.390625 
Q 39.453125 6.390625 43.28125 13.890625 
Q 47.125 21.390625 47.125 36.375 
Q 47.125 51.421875 43.28125 58.90625 
Q 39.453125 66.40625 31.78125 66.40625 
z
M 31.78125 74.21875 
Q 44.046875 74.21875 50.515625 64.515625 
Q 56.984375 54.828125 56.984375 36.375 
Q 56.984375 17.96875 50.515625 8.265625 
Q 44.046875 -1.421875 31.78125 -1.421875 
Q 19.53125 -1.421875 13.0625 8.265625 
Q 6.59375 17.96875 6.59375 36.375 
Q 6.59375 54.828125 13.0625 64.515625 
Q 19.53125 74.21875 31.78125 74.21875 
z
" id="DejaVuSans-30"/>
      </defs>
      <g transform="translate(94.511648 524.258437)scale(0.1 -0.1)">
       <use xlink:href="#DejaVuSans-30"/>
      </g>
     </g>
    </g>
    <g id="xtick_2">
     <g id="line2d_2">
      <g>
       <use style="stroke:#000000;stroke-width:0.8;" x="340.407121" xlink:href="#m7dc70e9484" y="509.66"/>
      </g>
     </g>
     <g id="text_2">
      <!-- 50 -->
      <defs>
       <path d="M 10.796875 72.90625 
L 49.515625 72.90625 
L 49.515625 64.59375 
L 19.828125 64.59375 
L 19.828125 46.734375 
Q 21.96875 47.46875 24.109375 47.828125 
Q 26.265625 48.1875 28.421875 48.1875 
Q 40.625 48.1875 47.75 41.5 
Q 54.890625 34.8125 54.890625 23.390625 
Q 54.890625 11.625 47.5625 5.09375 
Q 40.234375 -1.421875 26.90625 -1.421875 
Q 22.3125 -1.421875 17.546875 -0.640625 
Q 12.796875 0.140625 7.71875 1.703125 
L 7.71875 11.625 
Q 12.109375 9.234375 16.796875 8.0625 
Q 21.484375 6.890625 26.703125 6.890625 
Q 35.15625 6.890625 40.078125 11.328125 
Q 45.015625 15.765625 45.015625 23.390625 
Q 45.015625 31 40.078125 35.4375 
Q 35.15625 39.890625 26.703125 39.890625 
Q 22.75 39.890625 18.8125 39.015625 
Q 14.890625 38.140625 10.796875 36.28125 
z
" id="DejaVuSans-35"/>
      </defs>
      <g transform="translate(334.044621 524.258437)scale(0.1 -0.1)">
       <use xlink:href="#DejaVuSans-35"/>
       <use x="63.623047" xlink:href="#DejaVuSans-30"/>
      </g>
     </g>
    </g>
    <g id="xtick_3">
     <g id="line2d_3">
      <g>
       <use style="stroke:#000000;stroke-width:0.8;" x="583.121345" xlink:href="#m7dc70e9484" y="509.66"/>
      </g>
     </g>
     <g id="text_3">
      <!-- 100 -->
      <defs>
       <path d="M 12.40625 8.296875 
L 28.515625 8.296875 
L 28.515625 63.921875 
L 10.984375 60.40625 
L 10.984375 69.390625 
L 28.421875 72.90625 
L 38.28125 72.90625 
L 38.28125 8.296875 
L 54.390625 8.296875 
L 54.390625 0 
L 12.40625 0 
z
" id="DejaVuSans-31"/>
      </defs>
      <g transform="translate(573.577595 524.258437)scale(0.1 -0.1)">
       <use xlink:href="#DejaVuSans-31"/>
       <use x="63.623047" xlink:href="#DejaVuSans-30"/>
       <use x="127.246094" xlink:href="#DejaVuSans-30"/>
      </g>
     </g>
    </g>
    <g id="xtick_4">
     <g id="line2d_4">
      <g>
       <use style="stroke:#000000;stroke-width:0.8;" x="825.835568" xlink:href="#m7dc70e9484" y="509.66"/>
      </g>
     </g>
     <g id="text_4">
      <!-- 150 -->
      <g transform="translate(816.291818 524.258437)scale(0.1 -0.1)">
       <use xlink:href="#DejaVuSans-31"/>
       <use x="63.623047" xlink:href="#DejaVuSans-35"/>
       <use x="127.246094" xlink:href="#DejaVuSans-30"/>
      </g>
     </g>
    </g>
    <g id="xtick_5">
     <g id="line2d_5">
      <g>
       <use style="stroke:#000000;stroke-width:0.8;" x="1068.549792" xlink:href="#m7dc70e9484" y="509.66"/>
      </g>
     </g>
     <g id="text_5">
      <!-- 200 -->
      <defs>
       <path d="M 19.1875 8.296875 
L 53.609375 8.296875 
L 53.609375 0 
L 7.328125 0 
L 7.328125 8.296875 
Q 12.9375 14.109375 22.625 23.890625 
Q 32.328125 33.6875 34.8125 36.53125 
Q 39.546875 41.84375 41.421875 45.53125 
Q 43.3125 49.21875 43.3125 52.78125 
Q 43.3125 58.59375 39.234375 62.25 
Q 35.15625 65.921875 28.609375 65.921875 
Q 23.96875 65.921875 18.8125 64.3125 
Q 13.671875 62.703125 7.8125 59.421875 
L 7.8125 69.390625 
Q 13.765625 71.78125 18.9375 73 
Q 24.125 74.21875 28.421875 74.21875 
Q 39.75 74.21875 46.484375 68.546875 
Q 53.21875 62.890625 53.21875 53.421875 
Q 53.21875 48.921875 51.53125 44.890625 
Q 49.859375 40.875 45.40625 35.40625 
Q 44.1875 33.984375 37.640625 27.21875 
Q 31.109375 20.453125 19.1875 8.296875 
z
" id="DejaVuSans-32"/>
      </defs>
      <g transform="translate(1059.006042 524.258437)scale(0.1 -0.1)">
       <use xlink:href="#DejaVuSans-32"/>
       <use x="63.623047" xlink:href="#DejaVuSans-30"/>
       <use x="127.246094" xlink:href="#DejaVuSans-30"/>
      </g>
     </g>
    </g>
    <g id="text_6">
     <!-- Time -->
     <defs>
      <path d="M -0.296875 72.90625 
L 61.375 72.90625 
L 61.375 64.59375 
L 35.5 64.59375 
L 35.5 0 
L 25.59375 0 
L 25.59375 64.59375 
L -0.296875 64.59375 
z
" id="DejaVuSans-54"/>
      <path d="M 9.421875 54.6875 
L 18.40625 54.6875 
L 18.40625 0 
L 9.421875 0 
z
M 9.421875 75.984375 
L 18.40625 75.984375 
L 18.40625 64.59375 
L 9.421875 64.59375 
z
" id="DejaVuSans-69"/>
      <path d="M 52 44.1875 
Q 55.375 50.25 60.0625 53.125 
Q 64.75 56 71.09375 56 
Q 79.640625 56 84.28125 50.015625 
Q 88.921875 44.046875 88.921875 33.015625 
L 88.921875 0 
L 79.890625 0 
L 79.890625 32.71875 
Q 79.890625 40.578125 77.09375 44.375 
Q 74.3125 48.1875 68.609375 48.1875 
Q 61.625 48.1875 57.5625 43.546875 
Q 53.515625 38.921875 53.515625 30.90625 
L 53.515625 0 
L 44.484375 0 
L 44.484375 32.71875 
Q 44.484375 40.625 41.703125 44.40625 
Q 38.921875 48.1875 33.109375 48.1875 
Q 26.21875 48.1875 22.15625 43.53125 
Q 18.109375 38.875 18.109375 30.90625 
L 18.109375 0 
L 9.078125 0 
L 9.078125 54.6875 
L 18.109375 54.6875 
L 18.109375 46.1875 
Q 21.1875 51.21875 25.484375 53.609375 
Q 29.78125 56 35.6875 56 
Q 41.65625 56 45.828125 52.96875 
Q 50 49.953125 52 44.1875 
z
" id="DejaVuSans-6d"/>
      <path d="M 56.203125 29.59375 
L 56.203125 25.203125 
L 14.890625 25.203125 
Q 15.484375 15.921875 20.484375 11.0625 
Q 25.484375 6.203125 34.421875 6.203125 
Q 39.59375 6.203125 44.453125 7.46875 
Q 49.3125 8.734375 54.109375 11.28125 
L 54.109375 2.78125 
Q 49.265625 0.734375 44.1875 -0.34375 
Q 39.109375 -1.421875 33.890625 -1.421875 
Q 20.796875 -1.421875 13.15625 6.1875 
Q 5.515625 13.8125 5.515625 26.8125 
Q 5.515625 40.234375 12.765625 48.109375 
Q 20.015625 56 32.328125 56 
Q 43.359375 56 49.78125 48.890625 
Q 56.203125 41.796875 56.203125 29.59375 
z
M 47.21875 32.234375 
Q 47.125 39.59375 43.09375 43.984375 
Q 39.0625 48.390625 32.421875 48.390625 
Q 24.90625 48.390625 20.390625 44.140625 
Q 15.875 39.890625 15.1875 32.171875 
z
" id="DejaVuSans-65"/>
     </defs>
     <g transform="translate(592.578125 537.936562)scale(0.1 -0.1)">
      <use xlink:href="#DejaVuSans-54"/>
      <use x="61.037109" xlink:href="#DejaVuSans-69"/>
      <use x="88.820312" xlink:href="#DejaVuSans-6d"/>
      <use x="186.232422" xlink:href="#DejaVuSans-65"/>
     </g>
    </g>
   </g>
   <g id="matplotlib.axis_2">
    <g id="ytick_1">
     <g id="line2d_6">
      <defs>
       <path d="M 0 0 
L -3.5 0 
" id="m349b965f69" style="stroke:#000000;stroke-width:0.8;"/>
      </defs>
      <g>
       <use style="stroke:#000000;stroke-width:0.8;" x="46.965625" xlink:href="#m349b965f69" y="486.98"/>
      </g>
     </g>
     <g id="text_7">
      <!-- 0 -->
      <g transform="translate(33.603125 490.779219)scale(0.1 -0.1)">
       <use xlink:href="#DejaVuSans-30"/>
      </g>
     </g>
    </g>
    <g id="ytick_2">
     <g id="line2d_7">
      <g>
       <use style="stroke:#000000;stroke-width:0.8;" x="46.965625" xlink:href="#m349b965f69" y="420.274118"/>
      </g>
     </g>
     <g id="text_8">
      <!-- 20 -->
      <g transform="translate(27.240625 424.073336)scale(0.1 -0.1)">
       <use xlink:href="#DejaVuSans-32"/>
       <use x="63.623047" xlink:href="#DejaVuSans-30"/>
      </g>
     </g>
    </g>
    <g id="ytick_3">
     <g id="line2d_8">
      <g>
       <use style="stroke:#000000;stroke-width:0.8;" x="46.965625" xlink:href="#m349b965f69" y="353.568235"/>
      </g>
     </g>
     <g id="text_9">
      <!-- 40 -->
      <defs>
       <path d="M 37.796875 64.3125 
L 12.890625 25.390625 
L 37.796875 25.390625 
z
M 35.203125 72.90625 
L 47.609375 72.90625 
L 47.609375 25.390625 
L 58.015625 25.390625 
L 58.015625 17.1875 
L 47.609375 17.1875 
L 47.609375 0 
L 37.796875 0 
L 37.796875 17.1875 
L 4.890625 17.1875 
L 4.890625 26.703125 
z
" id="DejaVuSans-34"/>
      </defs>
      <g transform="translate(27.240625 357.367454)scale(0.1 -0.1)">
       <use xlink:href="#DejaVuSans-34"/>
       <use x="63.623047" xlink:href="#DejaVuSans-30"/>
      </g>
     </g>
    </g>
    <g id="ytick_4">
     <g id="line2d_9">
      <g>
       <use style="stroke:#000000;stroke-width:0.8;" x="46.965625" xlink:href="#m349b965f69" y="286.862353"/>
      </g>
     </g>
     <g id="text_10">
      <!-- 60 -->
      <defs>
       <path d="M 33.015625 40.375 
Q 26.375 40.375 22.484375 35.828125 
Q 18.609375 31.296875 18.609375 23.390625 
Q 18.609375 15.53125 22.484375 10.953125 
Q 26.375 6.390625 33.015625 6.390625 
Q 39.65625 6.390625 43.53125 10.953125 
Q 47.40625 15.53125 47.40625 23.390625 
Q 47.40625 31.296875 43.53125 35.828125 
Q 39.65625 40.375 33.015625 40.375 
z
M 52.59375 71.296875 
L 52.59375 62.3125 
Q 48.875 64.0625 45.09375 64.984375 
Q 41.3125 65.921875 37.59375 65.921875 
Q 27.828125 65.921875 22.671875 59.328125 
Q 17.53125 52.734375 16.796875 39.40625 
Q 19.671875 43.65625 24.015625 45.921875 
Q 28.375 48.1875 33.59375 48.1875 
Q 44.578125 48.1875 50.953125 41.515625 
Q 57.328125 34.859375 57.328125 23.390625 
Q 57.328125 12.15625 50.6875 5.359375 
Q 44.046875 -1.421875 33.015625 -1.421875 
Q 20.359375 -1.421875 13.671875 8.265625 
Q 6.984375 17.96875 6.984375 36.375 
Q 6.984375 53.65625 15.1875 63.9375 
Q 23.390625 74.21875 37.203125 74.21875 
Q 40.921875 74.21875 44.703125 73.484375 
Q 48.484375 72.75 52.59375 71.296875 
z
" id="DejaVuSans-36"/>
      </defs>
      <g transform="translate(27.240625 290.661572)scale(0.1 -0.1)">
       <use xlink:href="#DejaVuSans-36"/>
       <use x="63.623047" xlink:href="#DejaVuSans-30"/>
      </g>
     </g>
    </g>
    <g id="ytick_5">
     <g id="line2d_10">
      <g>
       <use style="stroke:#000000;stroke-width:0.8;" x="46.965625" xlink:href="#m349b965f69" y="220.156471"/>
      </g>
     </g>
     <g id="text_11">
      <!-- 80 -->
      <defs>
       <path d="M 31.78125 34.625 
Q 24.75 34.625 20.71875 30.859375 
Q 16.703125 27.09375 16.703125 20.515625 
Q 16.703125 13.921875 20.71875 10.15625 
Q 24.75 6.390625 31.78125 6.390625 
Q 38.8125 6.390625 42.859375 10.171875 
Q 46.921875 13.96875 46.921875 20.515625 
Q 46.921875 27.09375 42.890625 30.859375 
Q 38.875 34.625 31.78125 34.625 
z
M 21.921875 38.8125 
Q 15.578125 40.375 12.03125 44.71875 
Q 8.5 49.078125 8.5 55.328125 
Q 8.5 64.0625 14.71875 69.140625 
Q 20.953125 74.21875 31.78125 74.21875 
Q 42.671875 74.21875 48.875 69.140625 
Q 55.078125 64.0625 55.078125 55.328125 
Q 55.078125 49.078125 51.53125 44.71875 
Q 48 40.375 41.703125 38.8125 
Q 48.828125 37.15625 52.796875 32.3125 
Q 56.78125 27.484375 56.78125 20.515625 
Q 56.78125 9.90625 50.3125 4.234375 
Q 43.84375 -1.421875 31.78125 -1.421875 
Q 19.734375 -1.421875 13.25 4.234375 
Q 6.78125 9.90625 6.78125 20.515625 
Q 6.78125 27.484375 10.78125 32.3125 
Q 14.796875 37.15625 21.921875 38.8125 
z
M 18.3125 54.390625 
Q 18.3125 48.734375 21.84375 45.5625 
Q 25.390625 42.390625 31.78125 42.390625 
Q 38.140625 42.390625 41.71875 45.5625 
Q 45.3125 48.734375 45.3125 54.390625 
Q 45.3125 60.0625 41.71875 63.234375 
Q 38.140625 66.40625 31.78125 66.40625 
Q 25.390625 66.40625 21.84375 63.234375 
Q 18.3125 60.0625 18.3125 54.390625 
z
" id="DejaVuSans-38"/>
      </defs>
      <g transform="translate(27.240625 223.955689)scale(0.1 -0.1)">
       <use xlink:href="#DejaVuSans-38"/>
       <use x="63.623047" xlink:href="#DejaVuSans-30"/>
      </g>
     </g>
    </g>
    <g id="ytick_6">
     <g id="line2d_11">
      <g>
       <use style="stroke:#000000;stroke-width:0.8;" x="46.965625" xlink:href="#m349b965f69" y="153.450588"/>
      </g>
     </g>
     <g id="text_12">
      <!-- 100 -->
      <g transform="translate(20.878125 157.249807)scale(0.1 -0.1)">
       <use xlink:href="#DejaVuSans-31"/>
       <use x="63.623047" xlink:href="#DejaVuSans-30"/>
       <use x="127.246094" xlink:href="#DejaVuSans-30"/>
      </g>
     </g>
    </g>
    <g id="ytick_7">
     <g id="line2d_12">
      <g>
       <use style="stroke:#000000;stroke-width:0.8;" x="46.965625" xlink:href="#m349b965f69" y="86.744706"/>
      </g>
     </g>
     <g id="text_13">
      <!-- 120 -->
      <g transform="translate(20.878125 90.543925)scale(0.1 -0.1)">
       <use xlink:href="#DejaVuSans-31"/>
       <use x="63.623047" xlink:href="#DejaVuSans-32"/>
       <use x="127.246094" xlink:href="#DejaVuSans-30"/>
      </g>
     </g>
    </g>
    <g id="ytick_8">
     <g id="line2d_13">
      <g>
       <use style="stroke:#000000;stroke-width:0.8;" x="46.965625" xlink:href="#m349b965f69" y="20.038824"/>
      </g>
     </g>
     <g id="text_14">
      <!-- 140 -->
      <g transform="translate(20.878125 23.838042)scale(0.1 -0.1)">
       <use xlink:href="#DejaVuSans-31"/>
       <use x="63.623047" xlink:href="#DejaVuSans-34"/>
       <use x="127.246094" xlink:href="#DejaVuSans-30"/>
      </g>
     </g>
    </g>
    <g id="text_15">
     <!-- Refugees -->
     <defs>
      <path d="M 44.390625 34.1875 
Q 47.5625 33.109375 50.5625 29.59375 
Q 53.5625 26.078125 56.59375 19.921875 
L 66.609375 0 
L 56 0 
L 46.6875 18.703125 
Q 43.0625 26.03125 39.671875 28.421875 
Q 36.28125 30.8125 30.421875 30.8125 
L 19.671875 30.8125 
L 19.671875 0 
L 9.8125 0 
L 9.8125 72.90625 
L 32.078125 72.90625 
Q 44.578125 72.90625 50.734375 67.671875 
Q 56.890625 62.453125 56.890625 51.90625 
Q 56.890625 45.015625 53.6875 40.46875 
Q 50.484375 35.9375 44.390625 34.1875 
z
M 19.671875 64.796875 
L 19.671875 38.921875 
L 32.078125 38.921875 
Q 39.203125 38.921875 42.84375 42.21875 
Q 46.484375 45.515625 46.484375 51.90625 
Q 46.484375 58.296875 42.84375 61.546875 
Q 39.203125 64.796875 32.078125 64.796875 
z
" id="DejaVuSans-52"/>
      <path d="M 37.109375 75.984375 
L 37.109375 68.5 
L 28.515625 68.5 
Q 23.6875 68.5 21.796875 66.546875 
Q 19.921875 64.59375 19.921875 59.515625 
L 19.921875 54.6875 
L 34.71875 54.6875 
L 34.71875 47.703125 
L 19.921875 47.703125 
L 19.921875 0 
L 10.890625 0 
L 10.890625 47.703125 
L 2.296875 47.703125 
L 2.296875 54.6875 
L 10.890625 54.6875 
L 10.890625 58.5 
Q 10.890625 67.625 15.140625 71.796875 
Q 19.390625 75.984375 28.609375 75.984375 
z
" id="DejaVuSans-66"/>
      <path d="M 8.5 21.578125 
L 8.5 54.6875 
L 17.484375 54.6875 
L 17.484375 21.921875 
Q 17.484375 14.15625 20.5 10.265625 
Q 23.53125 6.390625 29.59375 6.390625 
Q 36.859375 6.390625 41.078125 11.03125 
Q 45.3125 15.671875 45.3125 23.6875 
L 45.3125 54.6875 
L 54.296875 54.6875 
L 54.296875 0 
L 45.3125 0 
L 45.3125 8.40625 
Q 42.046875 3.421875 37.71875 1 
Q 33.40625 -1.421875 27.6875 -1.421875 
Q 18.265625 -1.421875 13.375 4.4375 
Q 8.5 10.296875 8.5 21.578125 
z
M 31.109375 56 
z
" id="DejaVuSans-75"/>
      <path d="M 45.40625 27.984375 
Q 45.40625 37.75 41.375 43.109375 
Q 37.359375 48.484375 30.078125 48.484375 
Q 22.859375 48.484375 18.828125 43.109375 
Q 14.796875 37.75 14.796875 27.984375 
Q 14.796875 18.265625 18.828125 12.890625 
Q 22.859375 7.515625 30.078125 7.515625 
Q 37.359375 7.515625 41.375 12.890625 
Q 45.40625 18.265625 45.40625 27.984375 
z
M 54.390625 6.78125 
Q 54.390625 -7.171875 48.1875 -13.984375 
Q 42 -20.796875 29.203125 -20.796875 
Q 24.46875 -20.796875 20.265625 -20.09375 
Q 16.0625 -19.390625 12.109375 -17.921875 
L 12.109375 -9.1875 
Q 16.0625 -11.328125 19.921875 -12.34375 
Q 23.78125 -13.375 27.78125 -13.375 
Q 36.625 -13.375 41.015625 -8.765625 
Q 45.40625 -4.15625 45.40625 5.171875 
L 45.40625 9.625 
Q 42.625 4.78125 38.28125 2.390625 
Q 33.9375 0 27.875 0 
Q 17.828125 0 11.671875 7.65625 
Q 5.515625 15.328125 5.515625 27.984375 
Q 5.515625 40.671875 11.671875 48.328125 
Q 17.828125 56 27.875 56 
Q 33.9375 56 38.28125 53.609375 
Q 42.625 51.21875 45.40625 46.390625 
L 45.40625 54.6875 
L 54.390625 54.6875 
z
" id="DejaVuSans-67"/>
      <path d="M 44.28125 53.078125 
L 44.28125 44.578125 
Q 40.484375 46.53125 36.375 47.5 
Q 32.28125 48.484375 27.875 48.484375 
Q 21.1875 48.484375 17.84375 46.4375 
Q 14.5 44.390625 14.5 40.28125 
Q 14.5 37.15625 16.890625 35.375 
Q 19.28125 33.59375 26.515625 31.984375 
L 29.59375 31.296875 
Q 39.15625 29.25 43.1875 25.515625 
Q 47.21875 21.78125 47.21875 15.09375 
Q 47.21875 7.46875 41.1875 3.015625 
Q 35.15625 -1.421875 24.609375 -1.421875 
Q 20.21875 -1.421875 15.453125 -0.5625 
Q 10.6875 0.296875 5.421875 2 
L 5.421875 11.28125 
Q 10.40625 8.6875 15.234375 7.390625 
Q 20.0625 6.109375 24.8125 6.109375 
Q 31.15625 6.109375 34.5625 8.28125 
Q 37.984375 10.453125 37.984375 14.40625 
Q 37.984375 18.0625 35.515625 20.015625 
Q 33.0625 21.96875 24.703125 23.78125 
L 21.578125 24.515625 
Q 13.234375 26.265625 9.515625 29.90625 
Q 5.8125 33.546875 5.8125 39.890625 
Q 5.8125 47.609375 11.28125 51.796875 
Q 16.75 56 26.8125 56 
Q 31.78125 56 36.171875 55.265625 
Q 40.578125 54.546875 44.28125 53.078125 
z
" id="DejaVuSans-73"/>
     </defs>
     <g style="fill:#ff7f0e;" transform="translate(14.798438 283.588594)rotate(-90)scale(0.1 -0.1)">
      <use xlink:href="#DejaVuSans-52"/>
      <use x="69.419922" xlink:href="#DejaVuSans-65"/>
      <use x="130.943359" xlink:href="#DejaVuSans-66"/>
      <use x="166.148438" xlink:href="#DejaVuSans-75"/>
      <use x="229.527344" xlink:href="#DejaVuSans-67"/>
      <use x="293.003906" xlink:href="#DejaVuSans-65"/>
      <use x="354.527344" xlink:href="#DejaVuSans-65"/>
      <use x="416.050781" xlink:href="#DejaVuSans-73"/>
     </g>
    </g>
   </g>
   <g id="line2d_14">
    <path clip-path="url(#pa4ccfc2872)" d="M 97.692898 429.432556 
L 102.547182 420.473534 
L 107.401467 423.328237 
L 112.255751 438.980768 
L 117.110036 439.878405 
L 121.96432 409.109851 
L 126.818605 392.476429 
L 131.672889 383.356879 
L 136.527173 386.444434 
L 141.381458 401.86973 
L 146.235742 403.1805 
L 151.090027 371.744866 
L 155.944311 357.281801 
L 160.798596 348.009408 
L 165.65288 351.318645 
L 170.507165 366.527578 
L 175.361449 368.231816 
L 180.215734 336.160833 
L 185.070018 346.778648 
L 189.924303 337.460603 
L 194.778587 340.836014 
L 199.632872 355.980351 
L 204.487156 357.80205 
L 209.341441 325.541492 
L 214.195725 275.317404 
L 219.05001 265.689017 
L 223.904294 269.514559 
L 228.758578 284.219592 
L 233.612863 286.840138 
L 238.467147 253.289581 
L 243.321432 280.092359 
L 248.175716 270.484749 
L 253.030001 274.280213 
L 257.884285 289.014573 
L 262.73857 291.581721 
L 267.592854 258.117376 
L 272.447139 134.822999 
L 277.301423 124.584461 
L 282.155708 129.294999 
L 287.009992 143.136297 
L 291.864277 147.327451 
L 296.718561 111.240868 
L 301.572846 109.322193 
L 306.42713 98.972888 
L 311.281414 103.844094 
L 316.135699 117.528642 
L 320.989983 122.00482 
L 325.844268 85.457888 
L 330.698552 173.961329 
L 335.552837 163.892772 
L 340.407121 168.356761 
L 345.261406 182.438704 
L 350.11569 186.19231 
L 354.969975 150.81214 
L 359.824259 280.551893 
L 364.678544 270.946268 
L 369.532828 274.738819 
L 374.387113 289.476054 
L 379.241397 292.038074 
L 384.095682 258.582025 
L 388.949966 249.949402 
L 393.80425 240.210858 
L 398.658535 244.196177 
L 403.512819 258.745288 
L 408.367104 261.649395 
L 413.221388 227.640932 
L 418.075673 270.760586 
L 422.929957 261.112428 
L 427.784242 264.966648 
L 432.638526 279.64369 
L 437.492811 282.315155 
L 442.347095 248.682381 
L 447.20138 375.491944 
L 452.055664 366.298638 
L 456.909949 369.493137 
L 461.764233 384.81404 
L 466.618518 386.314677 
L 471.472802 354.572422 
L 476.327087 424.690872 
L 481.181371 415.711232 
L 486.035655 418.595834 
L 490.88994 434.219195 
L 495.744224 435.169855 
L 500.598509 404.315696 
L 505.452793 387.890546 
L 510.307078 378.751116 
L 515.161362 381.867508 
L 520.015647 397.264655 
L 524.869931 398.626698 
L 529.724216 367.108236 
L 534.5785 368.973741 
L 539.432785 359.752151 
L 544.287069 362.987746 
L 549.141354 378.26854 
L 553.995638 379.842048 
L 558.849923 347.982129 
L 563.704207 389.554077 
L 568.558491 380.421848 
L 573.412776 383.52782 
L 578.26706 398.935139 
L 583.121345 400.278594 
L 587.975629 368.790159 
L 592.829914 467.649423 
L 597.684198 460.488244 
L 602.538483 463.923902 
L 607.392767 479.680224 
L 612.247052 479.284973 
L 617.101336 448.554322 
L 621.955621 402.530876 
L 626.809905 393.45501 
L 631.66419 396.479204 
L 636.518474 411.966335 
L 641.372759 413.164689 
L 646.227043 381.910525 
L 651.081327 431.757137 
L 655.935612 422.80821 
L 660.789896 425.648275 
L 665.644181 441.315095 
L 670.498465 442.186751 
L 675.35275 411.460152 
L 680.207034 394.145431 
L 685.061319 385.033114 
L 689.915603 388.110147 
L 694.769888 403.545718 
L 699.624172 404.837867 
L 704.478457 373.432323 
L 709.332741 467.173755 
L 714.187026 459.649791 
L 719.04131 462.906802 
L 723.895595 478.689181 
L 728.749879 478.490614 
L 733.604163 447.895476 
L 738.458448 392.356386 
L 743.312732 383.236308 
L 748.167017 386.324582 
L 753.021301 401.749185 
L 757.875586 403.06129 
L 762.72987 371.623474 
L 767.584155 472.2184 
L 772.438439 469.051174 
L 777.292724 474.266189 
L 782.147008 486.98 
L 787.001293 486.625453 
L 791.855577 454.167455 
L 796.709862 432.43014 
L 801.564146 423.484121 
L 806.418431 426.319949 
L 811.272715 441.990923 
L 816.127 442.855059 
L 820.981284 412.140604 
L 825.835568 477.290936 
L 830.689853 480.814065 
L 835.544137 486.98 
L 845.252706 486.98 
L 850.106991 457.230732 
L 854.961275 423.67507 
L 859.81556 414.691001 
L 864.669844 417.581984 
L 869.524129 433.199114 
L 874.378413 434.161126 
L 879.232698 403.288647 
L 884.086982 447.995693 
L 888.941267 439.117256 
L 893.795551 441.855065 
L 898.649836 457.621723 
L 903.50412 458.311836 
L 908.358404 427.878355 
L 913.212689 448.806895 
L 918.066973 439.931998 
L 922.921258 442.664676 
L 927.775542 458.436297 
L 932.629827 459.117366 
L 937.484111 428.698533 
L 942.338396 463.850235 
L 947.19268 455.040666 
L 952.046965 457.678586 
L 956.901249 473.542719 
L 961.755534 474.055584 
L 966.609818 443.908312 
L 971.464103 443.260914 
L 976.318387 434.36191 
L 981.172672 437.129555 
L 986.026956 452.867087 
L 990.88124 453.610137 
L 995.735525 423.091198 
L 1000.589809 470.838199 
L 1005.444094 466.109086 
L 1010.298378 470.742215 
L 1015.152663 486.323786 
L 1020.006947 484.61013 
L 1024.861232 452.970917 
L 1029.715516 429.161127 
L 1034.569801 420.200902 
L 1039.424085 423.057323 
L 1044.27837 438.708201 
L 1049.132654 439.608868 
L 1053.986939 408.835406 
L 1058.841223 473.692423 
L 1063.695508 472.469316 
L 1068.549792 478.340244 
L 1073.404077 486.98 
L 1078.258361 486.98 
L 1083.112645 455.05761 
L 1087.96693 474.128798 
L 1092.821214 473.481236 
L 1097.675499 479.546358 
L 1102.529783 486.98 
L 1107.384068 486.98 
L 1112.238352 455.321135 
L 1112.238352 455.321135 
" style="fill:none;stroke:#008000;stroke-dasharray:5.55,2.4;stroke-dashoffset:0;stroke-width:1.5;"/>
   </g>
   <g id="line2d_15">
    <path clip-path="url(#pa4ccfc2872)" d="M 97.692898 380.250588 
L 102.547182 400.262353 
L 107.401467 353.568235 
L 112.255751 313.544706 
L 117.110036 333.556471 
L 121.96432 333.556471 
L 126.818605 376.915294 
L 131.672889 393.591765 
L 136.527173 416.938824 
L 141.381458 436.950588 
L 146.235742 403.597647 
L 151.090027 383.585882 
L 155.944311 416.938824 
L 160.798596 393.591765 
L 165.65288 360.238824 
L 170.507165 233.497647 
L 175.361449 256.844706 
L 180.215734 293.532941 
L 185.070018 266.850588 
L 189.924303 263.515294 
L 194.778587 216.821176 
L 199.632872 296.868235 
L 204.487156 300.203529 
L 209.341441 340.227059 
L 214.195725 353.568235 
L 219.05001 146.78 
L 223.904294 200.144706 
L 228.758578 246.838824 
L 233.612863 240.168235 
L 238.467147 250.174118 
L 243.321432 243.503529 
L 248.175716 323.550588 
L 253.030001 230.162353 
L 257.884285 143.444706 
L 262.73857 73.403529 
L 267.592854 143.444706 
L 272.447139 33.38 
L 277.301423 220.156471 
L 282.155708 116.762353 
L 287.009992 56.727059 
L 291.864277 123.432941 
L 296.718561 113.427059 
L 301.572846 50.056471 
L 306.42713 143.444706 
L 311.281414 60.062353 
L 316.135699 196.809412 
L 320.989983 220.156471 
L 325.844268 303.538824 
L 330.698552 163.456471 
L 335.552837 286.862353 
L 340.407121 90.08 
L 345.261406 156.785882 
L 350.11569 253.509412 
L 354.969975 286.862353 
L 359.824259 186.803529 
L 364.678544 333.556471 
L 369.532828 236.832941 
L 374.387113 310.209412 
L 379.241397 193.474118 
L 384.095682 286.862353 
L 388.949966 223.491765 
L 393.80425 283.527059 
L 398.658535 240.168235 
L 403.512819 193.474118 
L 408.367104 223.491765 
L 413.221388 306.874118 
L 418.075673 330.221176 
L 427.784242 383.585882 
L 432.638526 370.244706 
L 437.492811 390.256471 
L 442.347095 390.256471 
L 447.20138 346.897647 
L 452.055664 366.909412 
L 456.909949 326.885882 
L 461.764233 353.568235 
L 466.618518 330.221176 
L 471.472802 396.927059 
L 476.327087 316.88 
L 481.181371 420.274118 
L 486.035655 400.262353 
L 490.88994 393.591765 
L 495.744224 400.262353 
L 500.598509 363.574118 
L 505.452793 273.521176 
L 510.307078 160.121176 
L 515.161362 216.821176 
L 520.015647 343.562353 
L 524.869931 380.250588 
L 529.724216 383.585882 
L 534.5785 376.915294 
L 539.432785 373.58 
L 544.287069 410.268235 
L 549.141354 400.262353 
L 553.995638 393.591765 
L 558.849923 380.250588 
L 563.704207 336.891765 
L 568.558491 356.903529 
L 573.412776 363.574118 
L 578.26706 393.591765 
L 583.121345 410.268235 
L 587.975629 430.28 
L 592.829914 410.268235 
L 597.684198 423.609412 
L 602.538483 403.597647 
L 607.392767 413.603529 
L 612.247052 440.285882 
L 617.101336 386.921176 
L 621.955621 410.268235 
L 626.809905 413.603529 
L 631.66419 400.262353 
L 636.518474 380.250588 
L 641.372759 400.262353 
L 646.227043 403.597647 
L 651.081327 390.256471 
L 655.935612 380.250588 
L 660.789896 376.915294 
L 665.644181 380.250588 
L 670.498465 403.597647 
L 675.35275 373.58 
L 680.207034 393.591765 
L 685.061319 410.268235 
L 689.915603 383.585882 
L 694.769888 420.274118 
L 699.624172 426.944706 
L 704.478457 426.944706 
L 709.332741 433.615294 
L 714.187026 443.621176 
L 719.04131 416.938824 
L 723.895595 413.603529 
L 728.749879 406.932941 
L 733.604163 413.603529 
L 738.458448 410.268235 
L 743.312732 430.28 
L 748.167017 336.891765 
L 753.021301 420.274118 
L 757.875586 453.627059 
L 762.72987 426.944706 
L 767.584155 433.615294 
L 772.438439 423.609412 
L 777.292724 353.568235 
L 782.147008 430.28 
L 787.001293 450.291765 
L 791.855577 436.950588 
L 796.709862 453.627059 
L 801.564146 433.615294 
L 806.418431 396.927059 
L 811.272715 436.950588 
L 820.981284 430.28 
L 825.835568 316.88 
L 830.689853 436.950588 
L 835.544137 446.956471 
L 840.398422 433.615294 
L 845.252706 450.291765 
L 850.106991 413.603529 
L 854.961275 426.944706 
L 859.81556 393.591765 
L 864.669844 430.28 
L 869.524129 386.921176 
L 874.378413 393.591765 
L 879.232698 423.609412 
L 884.086982 460.297647 
L 888.941267 463.632941 
L 893.795551 440.285882 
L 898.649836 440.285882 
L 903.50412 450.291765 
L 908.358404 446.956471 
L 913.212689 450.291765 
L 918.066973 470.303529 
L 922.921258 410.268235 
L 927.775542 410.268235 
L 932.629827 456.962353 
L 937.484111 443.621176 
L 942.338396 450.291765 
L 947.19268 453.627059 
L 952.046965 443.621176 
L 956.901249 423.609412 
L 961.755534 433.615294 
L 966.609818 433.615294 
L 971.464103 440.285882 
L 976.318387 426.944706 
L 981.172672 340.227059 
L 986.026956 433.615294 
L 990.88124 440.285882 
L 995.735525 403.597647 
L 1000.589809 416.938824 
L 1005.444094 450.291765 
L 1010.298378 416.938824 
L 1015.152663 456.962353 
L 1020.006947 466.968235 
L 1024.861232 416.938824 
L 1029.715516 440.285882 
L 1034.569801 436.950588 
L 1039.424085 383.585882 
L 1044.27837 403.597647 
L 1049.132654 436.950588 
L 1053.986939 450.291765 
L 1058.841223 470.303529 
L 1063.695508 413.603529 
L 1068.549792 453.627059 
L 1073.404077 430.28 
L 1078.258361 453.627059 
L 1083.112645 463.632941 
L 1087.96693 420.274118 
L 1092.821214 433.615294 
L 1097.675499 440.285882 
L 1102.529783 453.627059 
L 1107.384068 430.28 
L 1112.238352 440.285882 
L 1112.238352 440.285882 
" style="fill:none;stroke:#ff7f0e;stroke-linecap:square;stroke-width:1.5;"/>
   </g>
   <g id="line2d_16">
    <defs>
     <path d="M 0 3 
C 0.795609 3 1.55874 2.683901 2.12132 2.12132 
C 2.683901 1.55874 3 0.795609 3 0 
C 3 -0.795609 2.683901 -1.55874 2.12132 -2.12132 
C 1.55874 -2.683901 0.795609 -3 0 -3 
C -0.795609 -3 -1.55874 -2.683901 -2.12132 -2.12132 
C -2.683901 -1.55874 -3 -0.795609 -3 0 
C -3 0.795609 -2.683901 1.55874 -2.12132 2.12132 
C -1.55874 2.683901 -0.795609 3 0 3 
z
" id="m3b764be530" style="stroke:#008000;"/>
    </defs>
    <g clip-path="url(#pa4ccfc2872)">
     <use style="fill:#008000;stroke:#008000;" x="97.692898" xlink:href="#m3b764be530" y="429.432556"/>
     <use style="fill:#008000;stroke:#008000;" x="126.818605" xlink:href="#m3b764be530" y="392.476429"/>
     <use style="fill:#008000;stroke:#008000;" x="155.944311" xlink:href="#m3b764be530" y="357.281801"/>
     <use style="fill:#008000;stroke:#008000;" x="185.070018" xlink:href="#m3b764be530" y="346.778648"/>
     <use style="fill:#008000;stroke:#008000;" x="214.195725" xlink:href="#m3b764be530" y="275.317404"/>
     <use style="fill:#008000;stroke:#008000;" x="243.321432" xlink:href="#m3b764be530" y="280.092359"/>
     <use style="fill:#008000;stroke:#008000;" x="272.447139" xlink:href="#m3b764be530" y="134.822999"/>
     <use style="fill:#008000;stroke:#008000;" x="301.572846" xlink:href="#m3b764be530" y="109.322193"/>
     <use style="fill:#008000;stroke:#008000;" x="330.698552" xlink:href="#m3b764be530" y="173.961329"/>
     <use style="fill:#008000;stroke:#008000;" x="359.824259" xlink:href="#m3b764be530" y="280.551893"/>
     <use style="fill:#008000;stroke:#008000;" x="388.949966" xlink:href="#m3b764be530" y="249.949402"/>
     <use style="fill:#008000;stroke:#008000;" x="418.075673" xlink:href="#m3b764be530" y="270.760586"/>
     <use style="fill:#008000;stroke:#008000;" x="447.20138" xlink:href="#m3b764be530" y="375.491944"/>
     <use style="fill:#008000;stroke:#008000;" x="476.327087" xlink:href="#m3b764be530" y="424.690872"/>
     <use style="fill:#008000;stroke:#008000;" x="505.452793" xlink:href="#m3b764be530" y="387.890546"/>
     <use style="fill:#008000;stroke:#008000;" x="534.5785" xlink:href="#m3b764be530" y="368.973741"/>
     <use style="fill:#008000;stroke:#008000;" x="563.704207" xlink:href="#m3b764be530" y="389.554077"/>
     <use style="fill:#008000;stroke:#008000;" x="592.829914" xlink:href="#m3b764be530" y="467.649423"/>
     <use style="fill:#008000;stroke:#008000;" x="621.955621" xlink:href="#m3b764be530" y="402.530876"/>
     <use style="fill:#008000;stroke:#008000;" x="651.081327" xlink:href="#m3b764be530" y="431.757137"/>
     <use style="fill:#008000;stroke:#008000;" x="680.207034" xlink:href="#m3b764be530" y="394.145431"/>
     <use style="fill:#008000;stroke:#008000;" x="709.332741" xlink:href="#m3b764be530" y="467.173755"/>
     <use style="fill:#008000;stroke:#008000;" x="738.458448" xlink:href="#m3b764be530" y="392.356386"/>
     <use style="fill:#008000;stroke:#008000;" x="767.584155" xlink:href="#m3b764be530" y="472.2184"/>
     <use style="fill:#008000;stroke:#008000;" x="796.709862" xlink:href="#m3b764be530" y="432.43014"/>
     <use style="fill:#008000;stroke:#008000;" x="825.835568" xlink:href="#m3b764be530" y="477.290936"/>
     <use style="fill:#008000;stroke:#008000;" x="854.961275" xlink:href="#m3b764be530" y="423.67507"/>
     <use style="fill:#008000;stroke:#008000;" x="884.086982" xlink:href="#m3b764be530" y="447.995693"/>
     <use style="fill:#008000;stroke:#008000;" x="913.212689" xlink:href="#m3b764be530" y="448.806895"/>
     <use style="fill:#008000;stroke:#008000;" x="942.338396" xlink:href="#m3b764be530" y="463.850235"/>
     <use style="fill:#008000;stroke:#008000;" x="971.464103" xlink:href="#m3b764be530" y="443.260914"/>
     <use style="fill:#008000;stroke:#008000;" x="1000.589809" xlink:href="#m3b764be530" y="470.838199"/>
     <use style="fill:#008000;stroke:#008000;" x="1029.715516" xlink:href="#m3b764be530" y="429.161127"/>
     <use style="fill:#008000;stroke:#008000;" x="1058.841223" xlink:href="#m3b764be530" y="473.692423"/>
     <use style="fill:#008000;stroke:#008000;" x="1087.96693" xlink:href="#m3b764be530" y="474.128798"/>
    </g>
   </g>
   <g id="patch_3">
    <path d="M 46.965625 509.66 
L 46.965625 10.7 
" style="fill:none;stroke:#000000;stroke-linecap:square;stroke-linejoin:miter;stroke-width:0.8;"/>
   </g>
   <g id="patch_4">
    <path d="M 1162.965625 509.66 
L 1162.965625 10.7 
" style="fill:none;stroke:#000000;stroke-linecap:square;stroke-linejoin:miter;stroke-width:0.8;"/>
   </g>
   <g id="patch_5">
    <path d="M 46.965625 509.66 
L 1162.965625 509.66 
" style="fill:none;stroke:#000000;stroke-linecap:square;stroke-linejoin:miter;stroke-width:0.8;"/>
   </g>
   <g id="patch_6">
    <path d="M 46.965625 10.7 
L 1162.965625 10.7 
" style="fill:none;stroke:#000000;stroke-linecap:square;stroke-linejoin:miter;stroke-width:0.8;"/>
   </g>
   <g id="legend_1">
    <g id="patch_7">
     <path d="M 53.965625 62.734375 
L 201.740625 62.734375 
Q 203.740625 62.734375 203.740625 60.734375 
L 203.740625 17.7 
Q 203.740625 15.7 201.740625 15.7 
L 53.965625 15.7 
Q 51.965625 15.7 51.965625 17.7 
L 51.965625 60.734375 
Q 51.965625 62.734375 53.965625 62.734375 
z
" style="fill:#ffffff;opacity:0.8;stroke:#cccccc;stroke-linejoin:miter;"/>
    </g>
    <g id="line2d_17">
     <path d="M 55.965625 23.798437 
L 75.965625 23.798437 
" style="fill:none;stroke:#008000;stroke-dasharray:5.55,2.4;stroke-dashoffset:0;stroke-width:1.5;"/>
    </g>
    <g id="line2d_18"/>
    <g id="text_16">
     <!-- Predicted -->
     <defs>
      <path d="M 19.671875 64.796875 
L 19.671875 37.40625 
L 32.078125 37.40625 
Q 38.96875 37.40625 42.71875 40.96875 
Q 46.484375 44.53125 46.484375 51.125 
Q 46.484375 57.671875 42.71875 61.234375 
Q 38.96875 64.796875 32.078125 64.796875 
z
M 9.8125 72.90625 
L 32.078125 72.90625 
Q 44.34375 72.90625 50.609375 67.359375 
Q 56.890625 61.8125 56.890625 51.125 
Q 56.890625 40.328125 50.609375 34.8125 
Q 44.34375 29.296875 32.078125 29.296875 
L 19.671875 29.296875 
L 19.671875 0 
L 9.8125 0 
z
" id="DejaVuSans-50"/>
      <path d="M 41.109375 46.296875 
Q 39.59375 47.171875 37.8125 47.578125 
Q 36.03125 48 33.890625 48 
Q 26.265625 48 22.1875 43.046875 
Q 18.109375 38.09375 18.109375 28.8125 
L 18.109375 0 
L 9.078125 0 
L 9.078125 54.6875 
L 18.109375 54.6875 
L 18.109375 46.1875 
Q 20.953125 51.171875 25.484375 53.578125 
Q 30.03125 56 36.53125 56 
Q 37.453125 56 38.578125 55.875 
Q 39.703125 55.765625 41.0625 55.515625 
z
" id="DejaVuSans-72"/>
      <path d="M 45.40625 46.390625 
L 45.40625 75.984375 
L 54.390625 75.984375 
L 54.390625 0 
L 45.40625 0 
L 45.40625 8.203125 
Q 42.578125 3.328125 38.25 0.953125 
Q 33.9375 -1.421875 27.875 -1.421875 
Q 17.96875 -1.421875 11.734375 6.484375 
Q 5.515625 14.40625 5.515625 27.296875 
Q 5.515625 40.1875 11.734375 48.09375 
Q 17.96875 56 27.875 56 
Q 33.9375 56 38.25 53.625 
Q 42.578125 51.265625 45.40625 46.390625 
z
M 14.796875 27.296875 
Q 14.796875 17.390625 18.875 11.75 
Q 22.953125 6.109375 30.078125 6.109375 
Q 37.203125 6.109375 41.296875 11.75 
Q 45.40625 17.390625 45.40625 27.296875 
Q 45.40625 37.203125 41.296875 42.84375 
Q 37.203125 48.484375 30.078125 48.484375 
Q 22.953125 48.484375 18.875 42.84375 
Q 14.796875 37.203125 14.796875 27.296875 
z
" id="DejaVuSans-64"/>
      <path d="M 48.78125 52.59375 
L 48.78125 44.1875 
Q 44.96875 46.296875 41.140625 47.34375 
Q 37.3125 48.390625 33.40625 48.390625 
Q 24.65625 48.390625 19.8125 42.84375 
Q 14.984375 37.3125 14.984375 27.296875 
Q 14.984375 17.28125 19.8125 11.734375 
Q 24.65625 6.203125 33.40625 6.203125 
Q 37.3125 6.203125 41.140625 7.25 
Q 44.96875 8.296875 48.78125 10.40625 
L 48.78125 2.09375 
Q 45.015625 0.34375 40.984375 -0.53125 
Q 36.96875 -1.421875 32.421875 -1.421875 
Q 20.0625 -1.421875 12.78125 6.34375 
Q 5.515625 14.109375 5.515625 27.296875 
Q 5.515625 40.671875 12.859375 48.328125 
Q 20.21875 56 33.015625 56 
Q 37.15625 56 41.109375 55.140625 
Q 45.0625 54.296875 48.78125 52.59375 
z
" id="DejaVuSans-63"/>
      <path d="M 18.3125 70.21875 
L 18.3125 54.6875 
L 36.8125 54.6875 
L 36.8125 47.703125 
L 18.3125 47.703125 
L 18.3125 18.015625 
Q 18.3125 11.328125 20.140625 9.421875 
Q 21.96875 7.515625 27.59375 7.515625 
L 36.8125 7.515625 
L 36.8125 0 
L 27.59375 0 
Q 17.1875 0 13.234375 3.875 
Q 9.28125 7.765625 9.28125 18.015625 
L 9.28125 47.703125 
L 2.6875 47.703125 
L 2.6875 54.6875 
L 9.28125 54.6875 
L 9.28125 70.21875 
z
" id="DejaVuSans-74"/>
     </defs>
     <g transform="translate(83.965625 27.298437)scale(0.1 -0.1)">
      <use xlink:href="#DejaVuSans-50"/>
      <use x="60.287109" xlink:href="#DejaVuSans-72"/>
      <use x="101.369141" xlink:href="#DejaVuSans-65"/>
      <use x="162.892578" xlink:href="#DejaVuSans-64"/>
      <use x="226.369141" xlink:href="#DejaVuSans-69"/>
      <use x="254.152344" xlink:href="#DejaVuSans-63"/>
      <use x="309.132812" xlink:href="#DejaVuSans-74"/>
      <use x="348.341797" xlink:href="#DejaVuSans-65"/>
      <use x="409.865234" xlink:href="#DejaVuSans-64"/>
     </g>
    </g>
    <g id="line2d_19">
     <path d="M 55.965625 38.476562 
L 75.965625 38.476562 
" style="fill:none;stroke:#ff7f0e;stroke-linecap:square;stroke-width:1.5;"/>
    </g>
    <g id="line2d_20"/>
    <g id="text_17">
     <!-- Real Data -->
     <defs>
      <path d="M 34.28125 27.484375 
Q 23.390625 27.484375 19.1875 25 
Q 14.984375 22.515625 14.984375 16.5 
Q 14.984375 11.71875 18.140625 8.90625 
Q 21.296875 6.109375 26.703125 6.109375 
Q 34.1875 6.109375 38.703125 11.40625 
Q 43.21875 16.703125 43.21875 25.484375 
L 43.21875 27.484375 
z
M 52.203125 31.203125 
L 52.203125 0 
L 43.21875 0 
L 43.21875 8.296875 
Q 40.140625 3.328125 35.546875 0.953125 
Q 30.953125 -1.421875 24.3125 -1.421875 
Q 15.921875 -1.421875 10.953125 3.296875 
Q 6 8.015625 6 15.921875 
Q 6 25.140625 12.171875 29.828125 
Q 18.359375 34.515625 30.609375 34.515625 
L 43.21875 34.515625 
L 43.21875 35.40625 
Q 43.21875 41.609375 39.140625 45 
Q 35.0625 48.390625 27.6875 48.390625 
Q 23 48.390625 18.546875 47.265625 
Q 14.109375 46.140625 10.015625 43.890625 
L 10.015625 52.203125 
Q 14.9375 54.109375 19.578125 55.046875 
Q 24.21875 56 28.609375 56 
Q 40.484375 56 46.34375 49.84375 
Q 52.203125 43.703125 52.203125 31.203125 
z
" id="DejaVuSans-61"/>
      <path d="M 9.421875 75.984375 
L 18.40625 75.984375 
L 18.40625 0 
L 9.421875 0 
z
" id="DejaVuSans-6c"/>
      <path id="DejaVuSans-20"/>
      <path d="M 19.671875 64.796875 
L 19.671875 8.109375 
L 31.59375 8.109375 
Q 46.6875 8.109375 53.6875 14.9375 
Q 60.6875 21.78125 60.6875 36.53125 
Q 60.6875 51.171875 53.6875 57.984375 
Q 46.6875 64.796875 31.59375 64.796875 
z
M 9.8125 72.90625 
L 30.078125 72.90625 
Q 51.265625 72.90625 61.171875 64.09375 
Q 71.09375 55.28125 71.09375 36.53125 
Q 71.09375 17.671875 61.125 8.828125 
Q 51.171875 0 30.078125 0 
L 9.8125 0 
z
" id="DejaVuSans-44"/>
     </defs>
     <g transform="translate(83.965625 41.976562)scale(0.1 -0.1)">
      <use xlink:href="#DejaVuSans-52"/>
      <use x="69.419922" xlink:href="#DejaVuSans-65"/>
      <use x="130.943359" xlink:href="#DejaVuSans-61"/>
      <use x="192.222656" xlink:href="#DejaVuSans-6c"/>
      <use x="220.005859" xlink:href="#DejaVuSans-20"/>
      <use x="251.792969" xlink:href="#DejaVuSans-44"/>
      <use x="328.794922" xlink:href="#DejaVuSans-61"/>
      <use x="390.074219" xlink:href="#DejaVuSans-74"/>
      <use x="429.283203" xlink:href="#DejaVuSans-61"/>
     </g>
    </g>
    <g id="line2d_21"/>
    <g id="line2d_22">
     <g>
      <use style="fill:#008000;stroke:#008000;" x="65.965625" xlink:href="#m3b764be530" y="53.154688"/>
     </g>
    </g>
    <g id="text_18">
     <!-- Start Point for Forecast -->
     <defs>
      <path d="M 53.515625 70.515625 
L 53.515625 60.890625 
Q 47.90625 63.578125 42.921875 64.890625 
Q 37.9375 66.21875 33.296875 66.21875 
Q 25.25 66.21875 20.875 63.09375 
Q 16.5 59.96875 16.5 54.203125 
Q 16.5 49.359375 19.40625 46.890625 
Q 22.3125 44.4375 30.421875 42.921875 
L 36.375 41.703125 
Q 47.40625 39.59375 52.65625 34.296875 
Q 57.90625 29 57.90625 20.125 
Q 57.90625 9.515625 50.796875 4.046875 
Q 43.703125 -1.421875 29.984375 -1.421875 
Q 24.8125 -1.421875 18.96875 -0.25 
Q 13.140625 0.921875 6.890625 3.21875 
L 6.890625 13.375 
Q 12.890625 10.015625 18.65625 8.296875 
Q 24.421875 6.59375 29.984375 6.59375 
Q 38.421875 6.59375 43.015625 9.90625 
Q 47.609375 13.234375 47.609375 19.390625 
Q 47.609375 24.75 44.3125 27.78125 
Q 41.015625 30.8125 33.5 32.328125 
L 27.484375 33.5 
Q 16.453125 35.6875 11.515625 40.375 
Q 6.59375 45.0625 6.59375 53.421875 
Q 6.59375 63.09375 13.40625 68.65625 
Q 20.21875 74.21875 32.171875 74.21875 
Q 37.3125 74.21875 42.625 73.28125 
Q 47.953125 72.359375 53.515625 70.515625 
z
" id="DejaVuSans-53"/>
      <path d="M 30.609375 48.390625 
Q 23.390625 48.390625 19.1875 42.75 
Q 14.984375 37.109375 14.984375 27.296875 
Q 14.984375 17.484375 19.15625 11.84375 
Q 23.34375 6.203125 30.609375 6.203125 
Q 37.796875 6.203125 41.984375 11.859375 
Q 46.1875 17.53125 46.1875 27.296875 
Q 46.1875 37.015625 41.984375 42.703125 
Q 37.796875 48.390625 30.609375 48.390625 
z
M 30.609375 56 
Q 42.328125 56 49.015625 48.375 
Q 55.71875 40.765625 55.71875 27.296875 
Q 55.71875 13.875 49.015625 6.21875 
Q 42.328125 -1.421875 30.609375 -1.421875 
Q 18.84375 -1.421875 12.171875 6.21875 
Q 5.515625 13.875 5.515625 27.296875 
Q 5.515625 40.765625 12.171875 48.375 
Q 18.84375 56 30.609375 56 
z
" id="DejaVuSans-6f"/>
      <path d="M 54.890625 33.015625 
L 54.890625 0 
L 45.90625 0 
L 45.90625 32.71875 
Q 45.90625 40.484375 42.875 44.328125 
Q 39.84375 48.1875 33.796875 48.1875 
Q 26.515625 48.1875 22.3125 43.546875 
Q 18.109375 38.921875 18.109375 30.90625 
L 18.109375 0 
L 9.078125 0 
L 9.078125 54.6875 
L 18.109375 54.6875 
L 18.109375 46.1875 
Q 21.34375 51.125 25.703125 53.5625 
Q 30.078125 56 35.796875 56 
Q 45.21875 56 50.046875 50.171875 
Q 54.890625 44.34375 54.890625 33.015625 
z
" id="DejaVuSans-6e"/>
      <path d="M 9.8125 72.90625 
L 51.703125 72.90625 
L 51.703125 64.59375 
L 19.671875 64.59375 
L 19.671875 43.109375 
L 48.578125 43.109375 
L 48.578125 34.8125 
L 19.671875 34.8125 
L 19.671875 0 
L 9.8125 0 
z
" id="DejaVuSans-46"/>
     </defs>
     <g transform="translate(83.965625 56.654688)scale(0.1 -0.1)">
      <use xlink:href="#DejaVuSans-53"/>
      <use x="63.476562" xlink:href="#DejaVuSans-74"/>
      <use x="102.685547" xlink:href="#DejaVuSans-61"/>
      <use x="163.964844" xlink:href="#DejaVuSans-72"/>
      <use x="205.078125" xlink:href="#DejaVuSans-74"/>
      <use x="244.287109" xlink:href="#DejaVuSans-20"/>
      <use x="276.074219" xlink:href="#DejaVuSans-50"/>
      <use x="336.330078" xlink:href="#DejaVuSans-6f"/>
      <use x="397.511719" xlink:href="#DejaVuSans-69"/>
      <use x="425.294922" xlink:href="#DejaVuSans-6e"/>
      <use x="488.673828" xlink:href="#DejaVuSans-74"/>
      <use x="527.882812" xlink:href="#DejaVuSans-20"/>
      <use x="559.669922" xlink:href="#DejaVuSans-66"/>
      <use x="594.875" xlink:href="#DejaVuSans-6f"/>
      <use x="656.056641" xlink:href="#DejaVuSans-72"/>
      <use x="697.169922" xlink:href="#DejaVuSans-20"/>
      <use x="728.957031" xlink:href="#DejaVuSans-46"/>
      <use x="786.429688" xlink:href="#DejaVuSans-6f"/>
      <use x="847.611328" xlink:href="#DejaVuSans-72"/>
      <use x="888.693359" xlink:href="#DejaVuSans-65"/>
      <use x="950.216797" xlink:href="#DejaVuSans-63"/>
      <use x="1005.197266" xlink:href="#DejaVuSans-61"/>
      <use x="1066.476562" xlink:href="#DejaVuSans-73"/>
      <use x="1118.576172" xlink:href="#DejaVuSans-74"/>
     </g>
    </g>
   </g>
  </g>
  <g id="axes_2">
   <g id="patch_8">
    <path d="M 46.965625 645.74 
L 1164.405625 645.74 
L 1164.405625 516.14 
L 46.965625 516.14 
z
" style="fill:none;"/>
   </g>
   <g id="matplotlib.axis_3">
    <g id="xtick_6">
     <g id="line2d_23">
      <g>
       <use style="stroke:#000000;stroke-width:0.8;" x="97.758352" xlink:href="#m7dc70e9484" y="645.74"/>
      </g>
     </g>
     <g id="text_19">
      <!-- 0 -->
      <g transform="translate(94.577102 660.338437)scale(0.1 -0.1)">
       <use xlink:href="#DejaVuSans-30"/>
      </g>
     </g>
    </g>
    <g id="xtick_7">
     <g id="line2d_24">
      <g>
       <use style="stroke:#000000;stroke-width:0.8;" x="222.250331" xlink:href="#m7dc70e9484" y="645.74"/>
      </g>
     </g>
     <g id="text_20">
      <!-- 25 -->
      <g transform="translate(215.887831 660.338437)scale(0.1 -0.1)">
       <use xlink:href="#DejaVuSans-32"/>
       <use x="63.623047" xlink:href="#DejaVuSans-35"/>
      </g>
     </g>
    </g>
    <g id="xtick_8">
     <g id="line2d_25">
      <g>
       <use style="stroke:#000000;stroke-width:0.8;" x="346.742309" xlink:href="#m7dc70e9484" y="645.74"/>
      </g>
     </g>
     <g id="text_21">
      <!-- 50 -->
      <g transform="translate(340.379809 660.338437)scale(0.1 -0.1)">
       <use xlink:href="#DejaVuSans-35"/>
       <use x="63.623047" xlink:href="#DejaVuSans-30"/>
      </g>
     </g>
    </g>
    <g id="xtick_9">
     <g id="line2d_26">
      <g>
       <use style="stroke:#000000;stroke-width:0.8;" x="471.234288" xlink:href="#m7dc70e9484" y="645.74"/>
      </g>
     </g>
     <g id="text_22">
      <!-- 75 -->
      <defs>
       <path d="M 8.203125 72.90625 
L 55.078125 72.90625 
L 55.078125 68.703125 
L 28.609375 0 
L 18.3125 0 
L 43.21875 64.59375 
L 8.203125 64.59375 
z
" id="DejaVuSans-37"/>
      </defs>
      <g transform="translate(464.871788 660.338437)scale(0.1 -0.1)">
       <use xlink:href="#DejaVuSans-37"/>
       <use x="63.623047" xlink:href="#DejaVuSans-35"/>
      </g>
     </g>
    </g>
    <g id="xtick_10">
     <g id="line2d_27">
      <g>
       <use style="stroke:#000000;stroke-width:0.8;" x="595.726267" xlink:href="#m7dc70e9484" y="645.74"/>
      </g>
     </g>
     <g id="text_23">
      <!-- 100 -->
      <g transform="translate(586.182517 660.338437)scale(0.1 -0.1)">
       <use xlink:href="#DejaVuSans-31"/>
       <use x="63.623047" xlink:href="#DejaVuSans-30"/>
       <use x="127.246094" xlink:href="#DejaVuSans-30"/>
      </g>
     </g>
    </g>
    <g id="xtick_11">
     <g id="line2d_28">
      <g>
       <use style="stroke:#000000;stroke-width:0.8;" x="720.218245" xlink:href="#m7dc70e9484" y="645.74"/>
      </g>
     </g>
     <g id="text_24">
      <!-- 125 -->
      <g transform="translate(710.674495 660.338437)scale(0.1 -0.1)">
       <use xlink:href="#DejaVuSans-31"/>
       <use x="63.623047" xlink:href="#DejaVuSans-32"/>
       <use x="127.246094" xlink:href="#DejaVuSans-35"/>
      </g>
     </g>
    </g>
    <g id="xtick_12">
     <g id="line2d_29">
      <g>
       <use style="stroke:#000000;stroke-width:0.8;" x="844.710224" xlink:href="#m7dc70e9484" y="645.74"/>
      </g>
     </g>
     <g id="text_25">
      <!-- 150 -->
      <g transform="translate(835.166474 660.338437)scale(0.1 -0.1)">
       <use xlink:href="#DejaVuSans-31"/>
       <use x="63.623047" xlink:href="#DejaVuSans-35"/>
       <use x="127.246094" xlink:href="#DejaVuSans-30"/>
      </g>
     </g>
    </g>
    <g id="xtick_13">
     <g id="line2d_30">
      <g>
       <use style="stroke:#000000;stroke-width:0.8;" x="969.202203" xlink:href="#m7dc70e9484" y="645.74"/>
      </g>
     </g>
     <g id="text_26">
      <!-- 175 -->
      <g transform="translate(959.658453 660.338437)scale(0.1 -0.1)">
       <use xlink:href="#DejaVuSans-31"/>
       <use x="63.623047" xlink:href="#DejaVuSans-37"/>
       <use x="127.246094" xlink:href="#DejaVuSans-35"/>
      </g>
     </g>
    </g>
    <g id="xtick_14">
     <g id="line2d_31">
      <g>
       <use style="stroke:#000000;stroke-width:0.8;" x="1093.694181" xlink:href="#m7dc70e9484" y="645.74"/>
      </g>
     </g>
     <g id="text_27">
      <!-- 200 -->
      <g transform="translate(1084.150431 660.338437)scale(0.1 -0.1)">
       <use xlink:href="#DejaVuSans-32"/>
       <use x="63.623047" xlink:href="#DejaVuSans-30"/>
       <use x="127.246094" xlink:href="#DejaVuSans-30"/>
      </g>
     </g>
    </g>
   </g>
   <g id="matplotlib.axis_4">
    <g id="ytick_9">
     <g id="line2d_32">
      <g>
       <use style="stroke:#000000;stroke-width:0.8;" x="46.965625" xlink:href="#m349b965f69" y="641.632115"/>
      </g>
     </g>
     <g id="text_28">
      <!-- 0 -->
      <g transform="translate(33.603125 645.431334)scale(0.1 -0.1)">
       <use xlink:href="#DejaVuSans-30"/>
      </g>
     </g>
    </g>
    <g id="ytick_10">
     <g id="line2d_33">
      <g>
       <use style="stroke:#000000;stroke-width:0.8;" x="46.965625" xlink:href="#m349b965f69" y="606.807429"/>
      </g>
     </g>
     <g id="text_29">
      <!-- 10 -->
      <g transform="translate(27.240625 610.606647)scale(0.1 -0.1)">
       <use xlink:href="#DejaVuSans-31"/>
       <use x="63.623047" xlink:href="#DejaVuSans-30"/>
      </g>
     </g>
    </g>
    <g id="ytick_11">
     <g id="line2d_34">
      <g>
       <use style="stroke:#000000;stroke-width:0.8;" x="46.965625" xlink:href="#m349b965f69" y="571.982742"/>
      </g>
     </g>
     <g id="text_30">
      <!-- 20 -->
      <g transform="translate(27.240625 575.781961)scale(0.1 -0.1)">
       <use xlink:href="#DejaVuSans-32"/>
       <use x="63.623047" xlink:href="#DejaVuSans-30"/>
      </g>
     </g>
    </g>
    <g id="ytick_12">
     <g id="line2d_35">
      <g>
       <use style="stroke:#000000;stroke-width:0.8;" x="46.965625" xlink:href="#m349b965f69" y="537.158056"/>
      </g>
     </g>
     <g id="text_31">
      <!-- 30 -->
      <defs>
       <path d="M 40.578125 39.3125 
Q 47.65625 37.796875 51.625 33 
Q 55.609375 28.21875 55.609375 21.1875 
Q 55.609375 10.40625 48.1875 4.484375 
Q 40.765625 -1.421875 27.09375 -1.421875 
Q 22.515625 -1.421875 17.65625 -0.515625 
Q 12.796875 0.390625 7.625 2.203125 
L 7.625 11.71875 
Q 11.71875 9.328125 16.59375 8.109375 
Q 21.484375 6.890625 26.8125 6.890625 
Q 36.078125 6.890625 40.9375 10.546875 
Q 45.796875 14.203125 45.796875 21.1875 
Q 45.796875 27.640625 41.28125 31.265625 
Q 36.765625 34.90625 28.71875 34.90625 
L 20.21875 34.90625 
L 20.21875 43.015625 
L 29.109375 43.015625 
Q 36.375 43.015625 40.234375 45.921875 
Q 44.09375 48.828125 44.09375 54.296875 
Q 44.09375 59.90625 40.109375 62.90625 
Q 36.140625 65.921875 28.71875 65.921875 
Q 24.65625 65.921875 20.015625 65.03125 
Q 15.375 64.15625 9.8125 62.3125 
L 9.8125 71.09375 
Q 15.4375 72.65625 20.34375 73.4375 
Q 25.25 74.21875 29.59375 74.21875 
Q 40.828125 74.21875 47.359375 69.109375 
Q 53.90625 64.015625 53.90625 55.328125 
Q 53.90625 49.265625 50.4375 45.09375 
Q 46.96875 40.921875 40.578125 39.3125 
z
" id="DejaVuSans-33"/>
      </defs>
      <g transform="translate(27.240625 540.957275)scale(0.1 -0.1)">
       <use xlink:href="#DejaVuSans-33"/>
       <use x="63.623047" xlink:href="#DejaVuSans-30"/>
      </g>
     </g>
    </g>
    <g id="text_32">
     <!-- Temperature -->
     <defs>
      <path d="M 18.109375 8.203125 
L 18.109375 -20.796875 
L 9.078125 -20.796875 
L 9.078125 54.6875 
L 18.109375 54.6875 
L 18.109375 46.390625 
Q 20.953125 51.265625 25.265625 53.625 
Q 29.59375 56 35.59375 56 
Q 45.5625 56 51.78125 48.09375 
Q 58.015625 40.1875 58.015625 27.296875 
Q 58.015625 14.40625 51.78125 6.484375 
Q 45.5625 -1.421875 35.59375 -1.421875 
Q 29.59375 -1.421875 25.265625 0.953125 
Q 20.953125 3.328125 18.109375 8.203125 
z
M 48.6875 27.296875 
Q 48.6875 37.203125 44.609375 42.84375 
Q 40.53125 48.484375 33.40625 48.484375 
Q 26.265625 48.484375 22.1875 42.84375 
Q 18.109375 37.203125 18.109375 27.296875 
Q 18.109375 17.390625 22.1875 11.75 
Q 26.265625 6.109375 33.40625 6.109375 
Q 40.53125 6.109375 44.609375 11.75 
Q 48.6875 17.390625 48.6875 27.296875 
z
" id="DejaVuSans-70"/>
     </defs>
     <g style="fill:#0000ff;" transform="translate(21.160938 613.557187)rotate(-90)scale(0.1 -0.1)">
      <use xlink:href="#DejaVuSans-54"/>
      <use x="60.818359" xlink:href="#DejaVuSans-65"/>
      <use x="122.341797" xlink:href="#DejaVuSans-6d"/>
      <use x="219.753906" xlink:href="#DejaVuSans-70"/>
      <use x="283.230469" xlink:href="#DejaVuSans-65"/>
      <use x="344.753906" xlink:href="#DejaVuSans-72"/>
      <use x="385.867188" xlink:href="#DejaVuSans-61"/>
      <use x="447.146484" xlink:href="#DejaVuSans-74"/>
      <use x="486.355469" xlink:href="#DejaVuSans-75"/>
      <use x="549.734375" xlink:href="#DejaVuSans-72"/>
      <use x="590.816406" xlink:href="#DejaVuSans-65"/>
     </g>
    </g>
   </g>
   <g id="line2d_36">
    <path clip-path="url(#pe173b022a9)" d="M 97.758352 527.96608 
L 102.738031 525.500144 
L 107.717711 531.061995 
L 112.69739 543.522268 
L 117.677069 556.746594 
L 122.656748 570.433044 
L 127.636427 587.955781 
L 132.616106 582.86476 
L 137.595785 577.083514 
L 142.575465 550.726799 
L 147.555144 543.063627 
L 152.534823 532.133551 
L 157.514502 524.077556 
L 162.494181 528.011352 
L 167.47386 533.916923 
L 172.453539 548.681893 
L 177.433219 559.680574 
L 182.412898 578.257106 
L 187.392577 579.992072 
L 192.372256 579.571738 
L 197.351935 556.893902 
L 202.331614 551.119969 
L 207.311293 542.443051 
L 212.290973 531.949676 
L 217.270652 526.330365 
L 222.250331 525.734166 
L 227.23001 533.537334 
L 232.209689 545.045151 
L 237.189368 562.082781 
L 242.169047 577.879258 
L 247.148727 589.744029 
L 252.128406 572.528097 
L 257.108085 564.022864 
L 262.087764 560.476666 
L 267.067443 546.939614 
L 272.047122 534.071196 
L 277.026801 523.445836 
L 282.006481 526.499961 
L 286.98616 530.887872 
L 291.965839 542.281116 
L 296.945518 555.752349 
L 301.925197 578.669082 
L 306.904876 577.389275 
L 311.884555 585.104684 
L 316.864235 578.995738 
L 321.843914 555.778119 
L 326.823593 535.108972 
L 331.803272 532.552143 
L 336.782951 527.031386 
L 341.76263 525.877992 
L 346.742309 534.875646 
L 351.721989 542.523147 
L 356.701668 558.513947 
L 361.681347 578.175616 
L 366.661026 584.068302 
L 371.640705 579.667854 
L 376.620384 564.633341 
L 381.600064 556.214125 
L 386.579743 542.715728 
L 391.559422 536.429176 
L 396.539101 526.713088 
L 401.51878 529.850792 
L 406.498459 533.604545 
L 411.478138 540.092384 
L 421.437497 580.973432 
L 426.417176 583.019382 
L 431.396855 583.14684 
L 436.376534 569.096472 
L 441.356213 553.633964 
L 446.335892 548.300215 
L 451.315572 536.671207 
L 456.295251 528.020407 
L 461.27493 527.731362 
L 466.254609 533.945479 
L 471.234288 548.592742 
L 476.213967 566.752423 
L 481.193646 573.794323 
L 486.173326 587.670567 
L 491.153005 579.972918 
L 496.132684 570.039525 
L 501.112363 560.638253 
L 506.092042 545.359966 
L 511.071721 533.709019 
L 516.0514 530.799417 
L 521.03108 530.10954 
L 526.010759 531.884554 
L 530.990438 547.479397 
L 535.970117 565.640471 
L 540.949796 582.94834 
L 545.929475 586.328424 
L 550.909154 582.096528 
L 555.888834 574.807025 
L 560.868513 562.234965 
L 565.848192 544.502234 
L 570.827871 533.910654 
L 575.80755 527.16372 
L 580.787229 527.850462 
L 585.766908 533.729218 
L 590.746588 541.145483 
L 595.726267 561.185 
L 600.705946 580.599763 
L 605.685625 594.853159 
L 610.665304 583.788311 
L 615.644983 558.466237 
L 620.624662 549.756931 
L 625.604342 546.570124 
L 630.584021 532.063901 
L 635.5637 526.090075 
L 640.543379 527.265059 
L 645.523058 535.446771 
L 650.502737 549.359233 
L 655.482416 559.307253 
L 660.462096 575.410536 
L 665.441775 582.107323 
L 670.421454 579.286872 
L 675.401133 576.306924 
L 680.380812 557.219165 
L 685.360491 546.281776 
L 690.34017 531.674909 
L 695.31985 525.929184 
L 700.299529 526.680005 
L 705.279208 535.922825 
L 710.258887 537.687043 
L 715.238566 565.240335 
L 720.218245 575.619484 
L 725.197924 575.614957 
L 730.177604 572.481084 
L 735.157283 561.813238 
L 740.136962 553.434418 
L 745.116641 541.68039 
L 755.075999 525.970278 
L 760.055678 522.030909 
L 765.035358 530.658377 
L 770.015037 538.508906 
L 774.994716 548.377874 
L 779.974395 569.768241 
L 784.954074 582.349007 
L 789.933753 581.49615 
L 794.913432 572.429891 
L 799.893112 561.048836 
L 804.872791 547.980524 
L 809.85247 538.51796 
L 814.832149 525.757499 
L 819.811828 528.097369 
L 824.791507 534.816793 
L 829.771186 547.871174 
L 834.750866 574.147793 
L 839.730545 579.601339 
L 844.710224 592.591295 
L 849.689903 586.550953 
L 854.669582 577.654639 
L 859.649261 553.215023 
L 864.628941 543.062234 
L 869.60862 533.872347 
L 874.588299 526.916464 
L 879.567978 527.364658 
L 884.547657 531.429395 
L 889.527336 540.066962 
L 899.486695 578.4967 
L 904.466374 584.856036 
L 909.446053 577.699215 
L 914.425732 563.08016 
L 919.405411 559.398494 
L 924.38509 543.975685 
L 934.344449 532.869744 
L 939.324128 528.739188 
L 944.303807 536.166249 
L 949.283486 548.284544 
L 954.263165 556.17129 
L 959.242844 584.89887 
L 964.222523 579.725663 
L 969.202203 576.664573 
L 974.181882 566.90008 
L 979.161561 551.359215 
L 984.14124 544.494225 
L 989.120919 534.168009 
L 994.100598 530.971451 
L 999.080277 529.841041 
L 1004.059957 535.924566 
L 1009.039636 547.293085 
L 1014.019315 565.791958 
L 1018.998994 573.301205 
L 1023.978673 588.468401 
L 1028.958352 581.771614 
L 1033.938031 568.070885 
L 1038.917711 561.500512 
L 1043.89739 543.085914 
L 1048.877069 541.251698 
L 1053.856748 529.697216 
L 1058.836427 526.817214 
L 1063.816106 529.049825 
L 1068.795785 542.444792 
L 1073.775465 561.515138 
L 1078.755144 581.795294 
L 1083.734823 590.281722 
L 1088.714502 571.961499 
L 1093.694181 565.995334 
L 1098.67386 546.780117 
L 1103.653539 543.668531 
L 1108.633219 529.937158 
L 1113.612898 527.47749 
L 1113.612898 527.47749 
" style="fill:none;stroke:#ff0000;stroke-linecap:square;stroke-width:1.5;"/>
   </g>
   <g id="line2d_37">
    <path clip-path="url(#pe173b022a9)" d="M 97.758352 545.637519 
L 102.738031 545.43066 
L 107.717711 549.984336 
L 112.69739 561.337184 
L 122.656748 589.97422 
L 127.636427 602.881294 
L 132.616106 599.93617 
L 137.595785 593.926125 
L 142.575465 572.18577 
L 147.555144 565.153273 
L 152.534823 554.255932 
L 157.514502 543.717634 
L 162.494181 546.126109 
L 167.47386 551.84084 
L 172.453539 566.089709 
L 177.433219 579.440449 
L 182.412898 593.712302 
L 187.392577 597.577146 
L 192.372256 597.02796 
L 197.351935 577.285149 
L 202.331614 571.836131 
L 207.311293 562.827681 
L 212.290973 555.050632 
L 217.270652 548.479562 
L 222.250331 547.442483 
L 227.23001 551.202504 
L 232.209689 562.094969 
L 237.189368 580.021325 
L 242.169047 593.644742 
L 247.148727 604.474175 
L 252.128406 591.281539 
L 257.108085 582.548901 
L 262.087764 577.878214 
L 267.067443 566.537903 
L 272.047122 553.124827 
L 277.026801 544.871724 
L 282.006481 546.636988 
L 286.98616 551.099771 
L 291.965839 558.951345 
L 296.945518 574.036354 
L 301.925197 593.199683 
L 306.904876 593.801801 
L 311.884555 600.046216 
L 316.864235 594.837139 
L 321.843914 575.787339 
L 326.823593 556.282729 
L 331.803272 554.7689 
L 336.782951 546.338888 
L 341.76263 546.605994 
L 346.742309 552.935032 
L 351.721989 561.18709 
L 356.701668 576.797604 
L 361.681347 594.057763 
L 366.661026 599.046399 
L 371.640705 596.221421 
L 376.620384 583.188978 
L 381.600064 575.666498 
L 386.579743 564.406284 
L 391.559422 554.613582 
L 396.539101 544.2508 
L 401.51878 546.303367 
L 406.498459 550.649488 
L 411.478138 557.346972 
L 416.457818 575.820423 
L 421.437497 597.006021 
L 426.417176 597.522819 
L 431.396855 597.023433 
L 436.376534 585.766353 
L 441.356213 572.530535 
L 446.335892 564.927609 
L 451.315572 553.64859 
L 456.295251 546.63455 
L 461.27493 544.94416 
L 466.254609 550.730978 
L 471.234288 564.673389 
L 476.213967 581.672015 
L 481.193646 588.438103 
L 486.173326 600.403169 
L 496.132684 586.022663 
L 501.112363 575.90052 
L 506.092042 563.369553 
L 511.071721 553.170447 
L 516.0514 546.482714 
L 521.03108 545.993079 
L 526.010759 550.750828 
L 530.990438 562.14442 
L 535.970117 581.144073 
L 540.949796 597.776691 
L 545.929475 600.516697 
L 550.909154 595.142552 
L 555.888834 589.359913 
L 560.868513 577.990349 
L 565.848192 560.839888 
L 570.827871 552.991448 
L 575.80755 545.669906 
L 580.787229 546.166506 
L 585.766908 550.660284 
L 590.746588 557.591789 
L 595.726267 577.20958 
L 600.705946 594.969125 
L 605.685625 608.087584 
L 610.665304 598.431047 
L 615.644983 577.182765 
L 620.624662 569.516806 
L 625.604342 565.434657 
L 630.584021 552.212072 
L 635.5637 546.09825 
L 640.543379 544.92222 
L 645.523058 551.558412 
L 650.502737 564.744431 
L 655.482416 576.311799 
L 660.462096 590.627183 
L 665.441775 597.836589 
L 670.421454 595.140114 
L 675.401133 591.817491 
L 680.380812 575.652916 
L 685.360491 564.119677 
L 690.34017 551.448018 
L 695.31985 545.671996 
L 700.299529 546.772456 
L 705.279208 552.750113 
L 710.258887 556.829825 
L 715.238566 580.850152 
L 720.218245 589.915018 
L 725.197924 592.36389 
L 730.177604 590.023671 
L 735.157283 579.157324 
L 740.136962 571.935033 
L 745.116641 562.661219 
L 750.09632 551.855467 
L 755.075999 547.039561 
L 760.055678 540.434363 
L 765.035358 548.104152 
L 770.015037 556.353423 
L 774.994716 568.073323 
L 779.974395 586.937507 
L 784.954074 596.606233 
L 789.933753 595.183297 
L 794.913432 588.934703 
L 799.893112 577.889357 
L 804.872791 565.539131 
L 809.85247 555.196547 
L 814.832149 545.794927 
L 819.811828 547.811624 
L 824.791507 552.81036 
L 829.771186 564.136044 
L 834.750866 589.615874 
L 839.730545 595.897203 
L 844.710224 604.760434 
L 849.689903 600.810966 
L 854.669582 593.149535 
L 859.649261 572.396111 
L 864.628941 563.400895 
L 869.60862 551.120318 
L 874.588299 544.777698 
L 879.567978 543.773354 
L 884.547657 550.079756 
L 889.527336 558.79742 
L 894.507015 574.296495 
L 899.486695 592.254889 
L 904.466374 599.049882 
L 909.446053 592.917603 
L 914.425732 580.629364 
L 919.405411 575.574561 
L 924.38509 561.412405 
L 929.364769 554.706912 
L 934.344449 549.377342 
L 939.324128 547.634018 
L 944.303807 555.112271 
L 949.283486 565.781859 
L 954.263165 571.734791 
L 959.242844 598.512537 
L 964.222523 595.124095 
L 969.202203 593.103915 
L 974.181882 583.290318 
L 979.161561 570.781639 
L 984.14124 564.388175 
L 989.120919 555.274555 
L 994.100598 549.931751 
L 999.080277 546.961554 
L 1004.059957 554.618457 
L 1009.039636 564.207087 
L 1014.019315 580.593146 
L 1018.998994 587.903196 
L 1023.978673 602.067789 
L 1028.958352 595.528409 
L 1033.938031 584.20168 
L 1038.917711 579.158369 
L 1043.89739 564.365191 
L 1048.877069 557.476171 
L 1053.856748 549.304559 
L 1058.836427 543.757334 
L 1063.816106 545.84786 
L 1068.795785 560.09046 
L 1073.775465 575.427949 
L 1078.755144 596.395892 
L 1083.734823 602.4331 
L 1088.714502 588.250746 
L 1093.694181 581.518786 
L 1098.67386 568.378736 
L 1103.653539 564.549065 
L 1108.633219 549.69355 
L 1113.612898 547.012746 
L 1113.612898 547.012746 
" style="fill:none;stroke:#008000;stroke-linecap:square;stroke-width:1.5;"/>
   </g>
   <g id="line2d_38">
    <path clip-path="url(#pe173b022a9)" d="M 97.758352 562.976034 
L 102.738031 562.727386 
L 107.717711 567.353149 
L 112.69739 578.777039 
L 117.677069 593.96687 
L 122.656748 608.3129 
L 127.636427 616.693391 
L 132.616106 617.015589 
L 137.595785 610.596355 
L 142.575465 592.088079 
L 147.555144 584.29501 
L 152.534823 571.227743 
L 157.514502 561.856072 
L 162.494181 563.197519 
L 167.47386 568.993391 
L 172.453539 583.027043 
L 177.433219 598.205731 
L 182.412898 609.598279 
L 187.392577 615.026751 
L 192.372256 614.236927 
L 197.351935 599.602898 
L 202.331614 591.551778 
L 207.311293 584.42421 
L 212.290973 574.429873 
L 217.270652 566.691828 
L 222.250331 564.740949 
L 227.23001 568.873943 
L 232.209689 578.558688 
L 237.189368 596.728816 
L 242.169047 608.234544 
L 247.148727 618.816373 
L 252.128406 609.599324 
L 257.108085 600.058056 
L 262.087764 594.09015 
L 267.067443 585.396515 
L 272.047122 572.324721 
L 277.026801 563.355623 
L 282.006481 563.674617 
L 286.98616 568.578978 
L 291.965839 575.349941 
L 296.945518 591.945646 
L 301.925197 606.827975 
L 306.904876 609.160881 
L 311.884555 614.302746 
L 316.864235 610.207015 
L 321.843914 594.815548 
L 326.823593 576.880138 
L 331.803272 570.968996 
L 336.782951 564.591551 
L 341.76263 563.743222 
L 346.742309 570.635027 
L 351.721989 579.083496 
L 361.681347 608.632939 
L 366.661026 613.162237 
L 371.640705 612.127596 
L 376.620384 601.608799 
L 381.600064 594.59859 
L 386.579743 585.145081 
L 391.559422 573.407769 
L 396.539101 563.368508 
L 401.51878 563.728944 
L 411.478138 575.419591 
L 416.457818 591.300344 
L 421.437497 612.603406 
L 431.396855 611.179389 
L 436.376534 603.911756 
L 441.356213 590.811406 
L 446.335892 583.163208 
L 451.315572 571.201625 
L 456.295251 561.778065 
L 461.27493 560.805411 
L 466.254609 568.365502 
L 471.234288 581.34118 
L 476.213967 597.648884 
L 481.193646 603.114619 
L 486.173326 612.792051 
L 491.153005 607.980324 
L 496.132684 604.116873 
L 501.112363 593.233811 
L 506.092042 582.989085 
L 511.071721 572.093485 
L 516.0514 563.520692 
L 521.03108 562.935289 
L 526.010759 566.68138 
L 530.990438 578.132434 
L 535.970117 599.259874 
L 540.949796 615.530664 
L 545.929475 615.236918 
L 550.909154 609.500317 
L 555.888834 605.712192 
L 560.868513 594.661623 
L 565.848192 578.140792 
L 570.827871 569.630683 
L 575.80755 561.759956 
L 580.787229 560.893169 
L 585.766908 566.821724 
L 590.746588 575.179997 
L 595.726267 593.787175 
L 600.705946 609.636586 
L 605.685625 622.436748 
L 610.665304 615.784641 
L 615.644983 596.482606 
L 620.624662 590.121877 
L 625.604342 585.432733 
L 630.584021 572.166269 
L 635.5637 565.204117 
L 640.543379 563.420049 
L 645.523058 568.149938 
L 660.462096 605.669358 
L 665.441775 613.452257 
L 675.401133 607.819086 
L 680.380812 594.915495 
L 690.34017 570.218872 
L 695.31985 563.643971 
L 700.299529 563.819488 
L 705.279208 569.804807 
L 710.258887 572.956092 
L 715.238566 596.636183 
L 720.218245 603.523112 
L 725.197924 606.296899 
L 730.177604 605.318325 
L 735.157283 597.522819 
L 740.136962 593.062822 
L 745.116641 581.820368 
L 750.09632 570.94636 
L 755.075999 564.505534 
L 760.055678 556.924896 
L 770.015037 572.707096 
L 774.994716 587.517687 
L 779.974395 603.696539 
L 784.954074 610.621881 
L 789.933753 608.77269 
L 794.913432 606.639225 
L 809.85247 572.961664 
L 814.832149 564.115498 
L 819.811828 563.610191 
L 824.791507 568.035016 
L 829.771186 581.26178 
L 834.750866 605.120521 
L 839.730545 612.218906 
L 844.710224 616.676153 
L 849.689903 615.161871 
L 854.669582 609.686838 
L 859.649261 592.082855 
L 864.628941 581.898724 
L 869.60862 569.958035 
L 874.588299 560.270504 
L 879.567978 561.773886 
L 884.547657 565.795092 
L 889.527336 574.220229 
L 894.507015 588.727496 
L 899.486695 605.659259 
L 904.466374 612.893321 
L 909.446053 606.649325 
L 914.425732 598.063995 
L 919.405411 592.35205 
L 924.38509 579.289658 
L 929.364769 572.683415 
L 934.344449 565.709075 
L 939.324128 563.939633 
L 944.303807 569.658195 
L 949.283486 584.155712 
L 954.263165 588.366713 
L 959.242844 611.681318 
L 964.222523 610.639398 
L 969.202203 610.466249 
L 974.181882 600.36312 
L 979.161561 593.049588 
L 984.14124 582.676359 
L 989.120919 573.606618 
L 994.100598 568.249884 
L 999.080277 565.289438 
L 1004.059957 568.978765 
L 1014.019315 594.773758 
L 1018.998994 602.130125 
L 1023.978673 615.535122 
L 1028.958352 610.995689 
L 1033.938031 600.730869 
L 1038.917711 597.31004 
L 1043.89739 581.63719 
L 1048.877069 573.920388 
L 1058.836427 559.206262 
L 1063.816106 561.313155 
L 1068.795785 575.44745 
L 1073.775465 591.038463 
L 1078.755144 611.331434 
L 1083.734823 615.635487 
L 1088.714502 606.554601 
L 1093.694181 599.189529 
L 1098.67386 588.59377 
L 1103.653539 582.873467 
L 1108.633219 568.188941 
L 1113.612898 564.909152 
L 1113.612898 564.909152 
" style="fill:none;stroke:#0000ff;stroke-linecap:square;stroke-width:1.5;"/>
   </g>
   <g id="line2d_39">
    <defs>
     <path d="M 0 3 
C 0.795609 3 1.55874 2.683901 2.12132 2.12132 
C 2.683901 1.55874 3 0.795609 3 0 
C 3 -0.795609 2.683901 -1.55874 2.12132 -2.12132 
C 1.55874 -2.683901 0.795609 -3 0 -3 
C -0.795609 -3 -1.55874 -2.683901 -2.12132 -2.12132 
C -2.683901 -1.55874 -3 -0.795609 -3 0 
C -3 0.795609 -2.683901 1.55874 -2.12132 2.12132 
C -1.55874 2.683901 -0.795609 3 0 3 
z
" id="m44ce09d205" style="stroke:#ff0000;"/>
    </defs>
    <g clip-path="url(#pe173b022a9)">
     <use style="fill:#ff0000;stroke:#ff0000;" x="97.758352" xlink:href="#m44ce09d205" y="639.849091"/>
     <use style="fill:#ff0000;stroke:#ff0000;" x="102.738031" xlink:href="#m44ce09d205" y="639.849091"/>
     <use style="fill:#ff0000;stroke:#ff0000;" x="107.717711" xlink:href="#m44ce09d205" y="639.849091"/>
     <use style="fill:#ff0000;stroke:#ff0000;" x="112.69739" xlink:href="#m44ce09d205" y="639.849091"/>
     <use style="fill:#ff0000;stroke:#ff0000;" x="117.677069" xlink:href="#m44ce09d205" y="639.849091"/>
     <use style="fill:#ff0000;stroke:#ff0000;" x="122.656748" xlink:href="#m44ce09d205" y="639.849091"/>
     <use style="fill:#ff0000;stroke:#ff0000;" x="127.636427" xlink:href="#m44ce09d205" y="639.849091"/>
     <use style="fill:#ff0000;stroke:#ff0000;" x="157.514502" xlink:href="#m44ce09d205" y="639.849091"/>
     <use style="fill:#ff0000;stroke:#ff0000;" x="725.197924" xlink:href="#m44ce09d205" y="639.849091"/>
     <use style="fill:#ff0000;stroke:#ff0000;" x="779.974395" xlink:href="#m44ce09d205" y="639.849091"/>
     <use style="fill:#ff0000;stroke:#ff0000;" x="959.242844" xlink:href="#m44ce09d205" y="639.849091"/>
     <use style="fill:#ff0000;stroke:#ff0000;" x="1063.816106" xlink:href="#m44ce09d205" y="639.849091"/>
    </g>
   </g>
   <g id="patch_9">
    <path d="M 46.965625 645.74 
L 46.965625 516.14 
" style="fill:none;stroke:#000000;stroke-linecap:square;stroke-linejoin:miter;stroke-width:0.8;"/>
   </g>
   <g id="patch_10">
    <path d="M 1164.405625 645.74 
L 1164.405625 516.14 
" style="fill:none;stroke:#000000;stroke-linecap:square;stroke-linejoin:miter;stroke-width:0.8;"/>
   </g>
   <g id="patch_11">
    <path d="M 46.965625 645.74 
L 1164.405625 645.74 
" style="fill:none;stroke:#000000;stroke-linecap:square;stroke-linejoin:miter;stroke-width:0.8;"/>
   </g>
   <g id="patch_12">
    <path d="M 46.965625 516.14 
L 1164.405625 516.14 
" style="fill:none;stroke:#000000;stroke-linecap:square;stroke-linejoin:miter;stroke-width:0.8;"/>
   </g>
   <g id="legend_2">
    <g id="patch_13">
     <path d="M 53.965625 582.8525 
L 144.978125 582.8525 
Q 146.978125 582.8525 146.978125 580.8525 
L 146.978125 523.14 
Q 146.978125 521.14 144.978125 521.14 
L 53.965625 521.14 
Q 51.965625 521.14 51.965625 523.14 
L 51.965625 580.8525 
Q 51.965625 582.8525 53.965625 582.8525 
z
" style="fill:#ffffff;opacity:0.8;stroke:#cccccc;stroke-linejoin:miter;"/>
    </g>
    <g id="line2d_40">
     <path d="M 55.965625 529.238437 
L 75.965625 529.238437 
" style="fill:none;stroke:#ff0000;stroke-linecap:square;stroke-width:1.5;"/>
    </g>
    <g id="line2d_41"/>
    <g id="text_33">
     <!-- Maxmimum -->
     <defs>
      <path d="M 9.8125 72.90625 
L 24.515625 72.90625 
L 43.109375 23.296875 
L 61.8125 72.90625 
L 76.515625 72.90625 
L 76.515625 0 
L 66.890625 0 
L 66.890625 64.015625 
L 48.09375 14.015625 
L 38.1875 14.015625 
L 19.390625 64.015625 
L 19.390625 0 
L 9.8125 0 
z
" id="DejaVuSans-4d"/>
      <path d="M 54.890625 54.6875 
L 35.109375 28.078125 
L 55.90625 0 
L 45.3125 0 
L 29.390625 21.484375 
L 13.484375 0 
L 2.875 0 
L 24.125 28.609375 
L 4.6875 54.6875 
L 15.28125 54.6875 
L 29.78125 35.203125 
L 44.28125 54.6875 
z
" id="DejaVuSans-78"/>
     </defs>
     <g transform="translate(83.965625 532.738437)scale(0.1 -0.1)">
      <use xlink:href="#DejaVuSans-4d"/>
      <use x="86.279297" xlink:href="#DejaVuSans-61"/>
      <use x="147.558594" xlink:href="#DejaVuSans-78"/>
      <use x="206.738281" xlink:href="#DejaVuSans-6d"/>
      <use x="304.150391" xlink:href="#DejaVuSans-69"/>
      <use x="331.933594" xlink:href="#DejaVuSans-6d"/>
      <use x="429.345703" xlink:href="#DejaVuSans-75"/>
      <use x="492.724609" xlink:href="#DejaVuSans-6d"/>
     </g>
    </g>
    <g id="line2d_42">
     <path d="M 55.965625 543.916562 
L 75.965625 543.916562 
" style="fill:none;stroke:#008000;stroke-linecap:square;stroke-width:1.5;"/>
    </g>
    <g id="line2d_43"/>
    <g id="text_34">
     <!-- Average -->
     <defs>
      <path d="M 34.1875 63.1875 
L 20.796875 26.90625 
L 47.609375 26.90625 
z
M 28.609375 72.90625 
L 39.796875 72.90625 
L 67.578125 0 
L 57.328125 0 
L 50.6875 18.703125 
L 17.828125 18.703125 
L 11.1875 0 
L 0.78125 0 
z
" id="DejaVuSans-41"/>
      <path d="M 2.984375 54.6875 
L 12.5 54.6875 
L 29.59375 8.796875 
L 46.6875 54.6875 
L 56.203125 54.6875 
L 35.6875 0 
L 23.484375 0 
z
" id="DejaVuSans-76"/>
     </defs>
     <g transform="translate(83.965625 547.416562)scale(0.1 -0.1)">
      <use xlink:href="#DejaVuSans-41"/>
      <use x="68.330078" xlink:href="#DejaVuSans-76"/>
      <use x="127.509766" xlink:href="#DejaVuSans-65"/>
      <use x="189.033203" xlink:href="#DejaVuSans-72"/>
      <use x="230.146484" xlink:href="#DejaVuSans-61"/>
      <use x="291.425781" xlink:href="#DejaVuSans-67"/>
      <use x="354.902344" xlink:href="#DejaVuSans-65"/>
     </g>
    </g>
    <g id="line2d_44">
     <path d="M 55.965625 558.594687 
L 75.965625 558.594687 
" style="fill:none;stroke:#0000ff;stroke-linecap:square;stroke-width:1.5;"/>
    </g>
    <g id="line2d_45"/>
    <g id="text_35">
     <!-- Minimum -->
     <g transform="translate(83.965625 562.094687)scale(0.1 -0.1)">
      <use xlink:href="#DejaVuSans-4d"/>
      <use x="86.279297" xlink:href="#DejaVuSans-69"/>
      <use x="114.0625" xlink:href="#DejaVuSans-6e"/>
      <use x="177.441406" xlink:href="#DejaVuSans-69"/>
      <use x="205.224609" xlink:href="#DejaVuSans-6d"/>
      <use x="302.636719" xlink:href="#DejaVuSans-75"/>
      <use x="366.015625" xlink:href="#DejaVuSans-6d"/>
     </g>
    </g>
    <g id="line2d_46"/>
    <g id="line2d_47">
     <g>
      <use style="fill:#ff0000;stroke:#ff0000;" x="65.965625" xlink:href="#m44ce09d205" y="573.272812"/>
     </g>
    </g>
    <g id="text_36">
     <!-- Disasters -->
     <g transform="translate(83.965625 576.772812)scale(0.1 -0.1)">
      <use xlink:href="#DejaVuSans-44"/>
      <use x="77.001953" xlink:href="#DejaVuSans-69"/>
      <use x="104.785156" xlink:href="#DejaVuSans-73"/>
      <use x="156.884766" xlink:href="#DejaVuSans-61"/>
      <use x="218.164062" xlink:href="#DejaVuSans-73"/>
      <use x="270.263672" xlink:href="#DejaVuSans-74"/>
      <use x="309.472656" xlink:href="#DejaVuSans-65"/>
      <use x="370.996094" xlink:href="#DejaVuSans-72"/>
      <use x="412.109375" xlink:href="#DejaVuSans-73"/>
     </g>
    </g>
   </g>
  </g>
 </g>
 <defs>
  <clipPath id="pa4ccfc2872">
   <rect height="498.96" width="1116" x="46.965625" y="10.7"/>
  </clipPath>
  <clipPath id="pe173b022a9">
   <rect height="129.6" width="1117.44" x="46.965625" y="516.14"/>
  </clipPath>
 </defs>
</svg>
