<?xml version="1.0" encoding="utf-8" standalone="no"?>
<!DOCTYPE svg PUBLIC "-//W3C//DTD SVG 1.1//EN"
  "http://www.w3.org/Graphics/SVG/1.1/DTD/svg11.dtd">
<!-- Created with matplotlib (http://matplotlib.org/) -->
<svg height="669pt" version="1.1" viewBox="0 0 1168 669" width="1168pt" xmlns="http://www.w3.org/2000/svg" xmlns:xlink="http://www.w3.org/1999/xlink">
 <defs>
  <style type="text/css">
*{stroke-linecap:butt;stroke-linejoin:round;}
  </style>
 </defs>
 <g id="figure_1">
  <g id="patch_1">
   <path d="M 0 669.618125 
L 1168.743125 669.618125 
L 1168.743125 -0 
L 0 -0 
z
" style="fill:none;"/>
  </g>
  <g id="axes_1">
   <g id="patch_2">
    <path d="M 40.603125 509.66 
L 1156.603125 509.66 
L 1156.603125 10.7 
L 40.603125 10.7 
z
" style="fill:none;"/>
   </g>
   <g id="matplotlib.axis_1">
    <g id="xtick_1">
     <g id="line2d_1">
      <defs>
       <path d="M 0 0 
L 0 3.5 
" id="m7884cadc78" style="stroke:#000000;stroke-width:0.8;"/>
      </defs>
      <g>
       <use style="stroke:#000000;stroke-width:0.8;" x="91.330398" xlink:href="#m7884cadc78" y="509.66"/>
      </g>
     </g>
     <g id="text_1">
      <!-- 0 -->
      <defs>
       <path d="M 31.78125 66.40625 
Q 24.171875 66.40625 20.328125 58.90625 
Q 16.5 51.421875 16.5 36.375 
Q 16.5 21.390625 20.328125 13.890625 
Q 24.171875 6.390625 31.78125 6.390625 
Q 39.453125 6.390625 43.28125 13.890625 
Q 47.125 21.390625 47.125 36.375 
Q 47.125 51.421875 43.28125 58.90625 
Q 39.453125 66.40625 31.78125 66.40625 
z
M 31.78125 74.21875 
Q 44.046875 74.21875 50.515625 64.515625 
Q 56.984375 54.828125 56.984375 36.375 
Q 56.984375 17.96875 50.515625 8.265625 
Q 44.046875 -1.421875 31.78125 -1.421875 
Q 19.53125 -1.421875 13.0625 8.265625 
Q 6.59375 17.96875 6.59375 36.375 
Q 6.59375 54.828125 13.0625 64.515625 
Q 19.53125 74.21875 31.78125 74.21875 
z
" id="DejaVuSans-30"/>
      </defs>
      <g transform="translate(88.149148 524.258437)scale(0.1 -0.1)">
       <use xlink:href="#DejaVuSans-30"/>
      </g>
     </g>
    </g>
    <g id="xtick_2">
     <g id="line2d_2">
      <g>
       <use style="stroke:#000000;stroke-width:0.8;" x="334.044621" xlink:href="#m7884cadc78" y="509.66"/>
      </g>
     </g>
     <g id="text_2">
      <!-- 50 -->
      <defs>
       <path d="M 10.796875 72.90625 
L 49.515625 72.90625 
L 49.515625 64.59375 
L 19.828125 64.59375 
L 19.828125 46.734375 
Q 21.96875 47.46875 24.109375 47.828125 
Q 26.265625 48.1875 28.421875 48.1875 
Q 40.625 48.1875 47.75 41.5 
Q 54.890625 34.8125 54.890625 23.390625 
Q 54.890625 11.625 47.5625 5.09375 
Q 40.234375 -1.421875 26.90625 -1.421875 
Q 22.3125 -1.421875 17.546875 -0.640625 
Q 12.796875 0.140625 7.71875 1.703125 
L 7.71875 11.625 
Q 12.109375 9.234375 16.796875 8.0625 
Q 21.484375 6.890625 26.703125 6.890625 
Q 35.15625 6.890625 40.078125 11.328125 
Q 45.015625 15.765625 45.015625 23.390625 
Q 45.015625 31 40.078125 35.4375 
Q 35.15625 39.890625 26.703125 39.890625 
Q 22.75 39.890625 18.8125 39.015625 
Q 14.890625 38.140625 10.796875 36.28125 
z
" id="DejaVuSans-35"/>
      </defs>
      <g transform="translate(327.682121 524.258437)scale(0.1 -0.1)">
       <use xlink:href="#DejaVuSans-35"/>
       <use x="63.623047" xlink:href="#DejaVuSans-30"/>
      </g>
     </g>
    </g>
    <g id="xtick_3">
     <g id="line2d_3">
      <g>
       <use style="stroke:#000000;stroke-width:0.8;" x="576.758845" xlink:href="#m7884cadc78" y="509.66"/>
      </g>
     </g>
     <g id="text_3">
      <!-- 100 -->
      <defs>
       <path d="M 12.40625 8.296875 
L 28.515625 8.296875 
L 28.515625 63.921875 
L 10.984375 60.40625 
L 10.984375 69.390625 
L 28.421875 72.90625 
L 38.28125 72.90625 
L 38.28125 8.296875 
L 54.390625 8.296875 
L 54.390625 0 
L 12.40625 0 
z
" id="DejaVuSans-31"/>
      </defs>
      <g transform="translate(567.215095 524.258437)scale(0.1 -0.1)">
       <use xlink:href="#DejaVuSans-31"/>
       <use x="63.623047" xlink:href="#DejaVuSans-30"/>
       <use x="127.246094" xlink:href="#DejaVuSans-30"/>
      </g>
     </g>
    </g>
    <g id="xtick_4">
     <g id="line2d_4">
      <g>
       <use style="stroke:#000000;stroke-width:0.8;" x="819.473068" xlink:href="#m7884cadc78" y="509.66"/>
      </g>
     </g>
     <g id="text_4">
      <!-- 150 -->
      <g transform="translate(809.929318 524.258437)scale(0.1 -0.1)">
       <use xlink:href="#DejaVuSans-31"/>
       <use x="63.623047" xlink:href="#DejaVuSans-35"/>
       <use x="127.246094" xlink:href="#DejaVuSans-30"/>
      </g>
     </g>
    </g>
    <g id="xtick_5">
     <g id="line2d_5">
      <g>
       <use style="stroke:#000000;stroke-width:0.8;" x="1062.187292" xlink:href="#m7884cadc78" y="509.66"/>
      </g>
     </g>
     <g id="text_5">
      <!-- 200 -->
      <defs>
       <path d="M 19.1875 8.296875 
L 53.609375 8.296875 
L 53.609375 0 
L 7.328125 0 
L 7.328125 8.296875 
Q 12.9375 14.109375 22.625 23.890625 
Q 32.328125 33.6875 34.8125 36.53125 
Q 39.546875 41.84375 41.421875 45.53125 
Q 43.3125 49.21875 43.3125 52.78125 
Q 43.3125 58.59375 39.234375 62.25 
Q 35.15625 65.921875 28.609375 65.921875 
Q 23.96875 65.921875 18.8125 64.3125 
Q 13.671875 62.703125 7.8125 59.421875 
L 7.8125 69.390625 
Q 13.765625 71.78125 18.9375 73 
Q 24.125 74.21875 28.421875 74.21875 
Q 39.75 74.21875 46.484375 68.546875 
Q 53.21875 62.890625 53.21875 53.421875 
Q 53.21875 48.921875 51.53125 44.890625 
Q 49.859375 40.875 45.40625 35.40625 
Q 44.1875 33.984375 37.640625 27.21875 
Q 31.109375 20.453125 19.1875 8.296875 
z
" id="DejaVuSans-32"/>
      </defs>
      <g transform="translate(1052.643542 524.258437)scale(0.1 -0.1)">
       <use xlink:href="#DejaVuSans-32"/>
       <use x="63.623047" xlink:href="#DejaVuSans-30"/>
       <use x="127.246094" xlink:href="#DejaVuSans-30"/>
      </g>
     </g>
    </g>
    <g id="text_6">
     <!-- Time -->
     <defs>
      <path d="M -0.296875 72.90625 
L 61.375 72.90625 
L 61.375 64.59375 
L 35.5 64.59375 
L 35.5 0 
L 25.59375 0 
L 25.59375 64.59375 
L -0.296875 64.59375 
z
" id="DejaVuSans-54"/>
      <path d="M 9.421875 54.6875 
L 18.40625 54.6875 
L 18.40625 0 
L 9.421875 0 
z
M 9.421875 75.984375 
L 18.40625 75.984375 
L 18.40625 64.59375 
L 9.421875 64.59375 
z
" id="DejaVuSans-69"/>
      <path d="M 52 44.1875 
Q 55.375 50.25 60.0625 53.125 
Q 64.75 56 71.09375 56 
Q 79.640625 56 84.28125 50.015625 
Q 88.921875 44.046875 88.921875 33.015625 
L 88.921875 0 
L 79.890625 0 
L 79.890625 32.71875 
Q 79.890625 40.578125 77.09375 44.375 
Q 74.3125 48.1875 68.609375 48.1875 
Q 61.625 48.1875 57.5625 43.546875 
Q 53.515625 38.921875 53.515625 30.90625 
L 53.515625 0 
L 44.484375 0 
L 44.484375 32.71875 
Q 44.484375 40.625 41.703125 44.40625 
Q 38.921875 48.1875 33.109375 48.1875 
Q 26.21875 48.1875 22.15625 43.53125 
Q 18.109375 38.875 18.109375 30.90625 
L 18.109375 0 
L 9.078125 0 
L 9.078125 54.6875 
L 18.109375 54.6875 
L 18.109375 46.1875 
Q 21.1875 51.21875 25.484375 53.609375 
Q 29.78125 56 35.6875 56 
Q 41.65625 56 45.828125 52.96875 
Q 50 49.953125 52 44.1875 
z
" id="DejaVuSans-6d"/>
      <path d="M 56.203125 29.59375 
L 56.203125 25.203125 
L 14.890625 25.203125 
Q 15.484375 15.921875 20.484375 11.0625 
Q 25.484375 6.203125 34.421875 6.203125 
Q 39.59375 6.203125 44.453125 7.46875 
Q 49.3125 8.734375 54.109375 11.28125 
L 54.109375 2.78125 
Q 49.265625 0.734375 44.1875 -0.34375 
Q 39.109375 -1.421875 33.890625 -1.421875 
Q 20.796875 -1.421875 13.15625 6.1875 
Q 5.515625 13.8125 5.515625 26.8125 
Q 5.515625 40.234375 12.765625 48.109375 
Q 20.015625 56 32.328125 56 
Q 43.359375 56 49.78125 48.890625 
Q 56.203125 41.796875 56.203125 29.59375 
z
M 47.21875 32.234375 
Q 47.125 39.59375 43.09375 43.984375 
Q 39.0625 48.390625 32.421875 48.390625 
Q 24.90625 48.390625 20.390625 44.140625 
Q 15.875 39.890625 15.1875 32.171875 
z
" id="DejaVuSans-65"/>
     </defs>
     <g transform="translate(586.215625 537.936562)scale(0.1 -0.1)">
      <use xlink:href="#DejaVuSans-54"/>
      <use x="61.037109" xlink:href="#DejaVuSans-69"/>
      <use x="88.820312" xlink:href="#DejaVuSans-6d"/>
      <use x="186.232422" xlink:href="#DejaVuSans-65"/>
     </g>
    </g>
   </g>
   <g id="matplotlib.axis_2">
    <g id="ytick_1">
     <g id="line2d_6">
      <defs>
       <path d="M 0 0 
L -3.5 0 
" id="mc5843eaa5b" style="stroke:#000000;stroke-width:0.8;"/>
      </defs>
      <g>
       <use style="stroke:#000000;stroke-width:0.8;" x="40.603125" xlink:href="#mc5843eaa5b" y="486.98"/>
      </g>
     </g>
     <g id="text_7">
      <!-- 0 -->
      <g transform="translate(27.240625 490.779219)scale(0.1 -0.1)">
       <use xlink:href="#DejaVuSans-30"/>
      </g>
     </g>
    </g>
    <g id="ytick_2">
     <g id="line2d_7">
      <g>
       <use style="stroke:#000000;stroke-width:0.8;" x="40.603125" xlink:href="#mc5843eaa5b" y="397.546326"/>
      </g>
     </g>
     <g id="text_8">
      <!-- 5 -->
      <g transform="translate(27.240625 401.345544)scale(0.1 -0.1)">
       <use xlink:href="#DejaVuSans-35"/>
      </g>
     </g>
    </g>
    <g id="ytick_3">
     <g id="line2d_8">
      <g>
       <use style="stroke:#000000;stroke-width:0.8;" x="40.603125" xlink:href="#mc5843eaa5b" y="308.112651"/>
      </g>
     </g>
     <g id="text_9">
      <!-- 10 -->
      <g transform="translate(20.878125 311.91187)scale(0.1 -0.1)">
       <use xlink:href="#DejaVuSans-31"/>
       <use x="63.623047" xlink:href="#DejaVuSans-30"/>
      </g>
     </g>
    </g>
    <g id="ytick_4">
     <g id="line2d_9">
      <g>
       <use style="stroke:#000000;stroke-width:0.8;" x="40.603125" xlink:href="#mc5843eaa5b" y="218.678977"/>
      </g>
     </g>
     <g id="text_10">
      <!-- 15 -->
      <g transform="translate(20.878125 222.478195)scale(0.1 -0.1)">
       <use xlink:href="#DejaVuSans-31"/>
       <use x="63.623047" xlink:href="#DejaVuSans-35"/>
      </g>
     </g>
    </g>
    <g id="ytick_5">
     <g id="line2d_10">
      <g>
       <use style="stroke:#000000;stroke-width:0.8;" x="40.603125" xlink:href="#mc5843eaa5b" y="129.245302"/>
      </g>
     </g>
     <g id="text_11">
      <!-- 20 -->
      <g transform="translate(20.878125 133.044521)scale(0.1 -0.1)">
       <use xlink:href="#DejaVuSans-32"/>
       <use x="63.623047" xlink:href="#DejaVuSans-30"/>
      </g>
     </g>
    </g>
    <g id="ytick_6">
     <g id="line2d_11">
      <g>
       <use style="stroke:#000000;stroke-width:0.8;" x="40.603125" xlink:href="#mc5843eaa5b" y="39.811628"/>
      </g>
     </g>
     <g id="text_12">
      <!-- 25 -->
      <g transform="translate(20.878125 43.610846)scale(0.1 -0.1)">
       <use xlink:href="#DejaVuSans-32"/>
       <use x="63.623047" xlink:href="#DejaVuSans-35"/>
      </g>
     </g>
    </g>
    <g id="text_13">
     <!-- Refugees -->
     <defs>
      <path d="M 44.390625 34.1875 
Q 47.5625 33.109375 50.5625 29.59375 
Q 53.5625 26.078125 56.59375 19.921875 
L 66.609375 0 
L 56 0 
L 46.6875 18.703125 
Q 43.0625 26.03125 39.671875 28.421875 
Q 36.28125 30.8125 30.421875 30.8125 
L 19.671875 30.8125 
L 19.671875 0 
L 9.8125 0 
L 9.8125 72.90625 
L 32.078125 72.90625 
Q 44.578125 72.90625 50.734375 67.671875 
Q 56.890625 62.453125 56.890625 51.90625 
Q 56.890625 45.015625 53.6875 40.46875 
Q 50.484375 35.9375 44.390625 34.1875 
z
M 19.671875 64.796875 
L 19.671875 38.921875 
L 32.078125 38.921875 
Q 39.203125 38.921875 42.84375 42.21875 
Q 46.484375 45.515625 46.484375 51.90625 
Q 46.484375 58.296875 42.84375 61.546875 
Q 39.203125 64.796875 32.078125 64.796875 
z
" id="DejaVuSans-52"/>
      <path d="M 37.109375 75.984375 
L 37.109375 68.5 
L 28.515625 68.5 
Q 23.6875 68.5 21.796875 66.546875 
Q 19.921875 64.59375 19.921875 59.515625 
L 19.921875 54.6875 
L 34.71875 54.6875 
L 34.71875 47.703125 
L 19.921875 47.703125 
L 19.921875 0 
L 10.890625 0 
L 10.890625 47.703125 
L 2.296875 47.703125 
L 2.296875 54.6875 
L 10.890625 54.6875 
L 10.890625 58.5 
Q 10.890625 67.625 15.140625 71.796875 
Q 19.390625 75.984375 28.609375 75.984375 
z
" id="DejaVuSans-66"/>
      <path d="M 8.5 21.578125 
L 8.5 54.6875 
L 17.484375 54.6875 
L 17.484375 21.921875 
Q 17.484375 14.15625 20.5 10.265625 
Q 23.53125 6.390625 29.59375 6.390625 
Q 36.859375 6.390625 41.078125 11.03125 
Q 45.3125 15.671875 45.3125 23.6875 
L 45.3125 54.6875 
L 54.296875 54.6875 
L 54.296875 0 
L 45.3125 0 
L 45.3125 8.40625 
Q 42.046875 3.421875 37.71875 1 
Q 33.40625 -1.421875 27.6875 -1.421875 
Q 18.265625 -1.421875 13.375 4.4375 
Q 8.5 10.296875 8.5 21.578125 
z
M 31.109375 56 
z
" id="DejaVuSans-75"/>
      <path d="M 45.40625 27.984375 
Q 45.40625 37.75 41.375 43.109375 
Q 37.359375 48.484375 30.078125 48.484375 
Q 22.859375 48.484375 18.828125 43.109375 
Q 14.796875 37.75 14.796875 27.984375 
Q 14.796875 18.265625 18.828125 12.890625 
Q 22.859375 7.515625 30.078125 7.515625 
Q 37.359375 7.515625 41.375 12.890625 
Q 45.40625 18.265625 45.40625 27.984375 
z
M 54.390625 6.78125 
Q 54.390625 -7.171875 48.1875 -13.984375 
Q 42 -20.796875 29.203125 -20.796875 
Q 24.46875 -20.796875 20.265625 -20.09375 
Q 16.0625 -19.390625 12.109375 -17.921875 
L 12.109375 -9.1875 
Q 16.0625 -11.328125 19.921875 -12.34375 
Q 23.78125 -13.375 27.78125 -13.375 
Q 36.625 -13.375 41.015625 -8.765625 
Q 45.40625 -4.15625 45.40625 5.171875 
L 45.40625 9.625 
Q 42.625 4.78125 38.28125 2.390625 
Q 33.9375 0 27.875 0 
Q 17.828125 0 11.671875 7.65625 
Q 5.515625 15.328125 5.515625 27.984375 
Q 5.515625 40.671875 11.671875 48.328125 
Q 17.828125 56 27.875 56 
Q 33.9375 56 38.28125 53.609375 
Q 42.625 51.21875 45.40625 46.390625 
L 45.40625 54.6875 
L 54.390625 54.6875 
z
" id="DejaVuSans-67"/>
      <path d="M 44.28125 53.078125 
L 44.28125 44.578125 
Q 40.484375 46.53125 36.375 47.5 
Q 32.28125 48.484375 27.875 48.484375 
Q 21.1875 48.484375 17.84375 46.4375 
Q 14.5 44.390625 14.5 40.28125 
Q 14.5 37.15625 16.890625 35.375 
Q 19.28125 33.59375 26.515625 31.984375 
L 29.59375 31.296875 
Q 39.15625 29.25 43.1875 25.515625 
Q 47.21875 21.78125 47.21875 15.09375 
Q 47.21875 7.46875 41.1875 3.015625 
Q 35.15625 -1.421875 24.609375 -1.421875 
Q 20.21875 -1.421875 15.453125 -0.5625 
Q 10.6875 0.296875 5.421875 2 
L 5.421875 11.28125 
Q 10.40625 8.6875 15.234375 7.390625 
Q 20.0625 6.109375 24.8125 6.109375 
Q 31.15625 6.109375 34.5625 8.28125 
Q 37.984375 10.453125 37.984375 14.40625 
Q 37.984375 18.0625 35.515625 20.015625 
Q 33.0625 21.96875 24.703125 23.78125 
L 21.578125 24.515625 
Q 13.234375 26.265625 9.515625 29.90625 
Q 5.8125 33.546875 5.8125 39.890625 
Q 5.8125 47.609375 11.28125 51.796875 
Q 16.75 56 26.8125 56 
Q 31.78125 56 36.171875 55.265625 
Q 40.578125 54.546875 44.28125 53.078125 
z
" id="DejaVuSans-73"/>
     </defs>
     <g style="fill:#ff7f0e;" transform="translate(14.798438 283.588594)rotate(-90)scale(0.1 -0.1)">
      <use xlink:href="#DejaVuSans-52"/>
      <use x="69.419922" xlink:href="#DejaVuSans-65"/>
      <use x="130.943359" xlink:href="#DejaVuSans-66"/>
      <use x="166.148438" xlink:href="#DejaVuSans-75"/>
      <use x="229.527344" xlink:href="#DejaVuSans-67"/>
      <use x="293.003906" xlink:href="#DejaVuSans-65"/>
      <use x="354.527344" xlink:href="#DejaVuSans-65"/>
      <use x="416.050781" xlink:href="#DejaVuSans-73"/>
     </g>
    </g>
   </g>
   <g id="line2d_12">
    <path clip-path="url(#p63ac468507)" d="M 91.330398 486.98 
L 110.747536 486.98 
L 115.60182 402.611333 
L 120.456105 486.98 
L 139.873242 486.98 
L 144.727527 362.46643 
L 149.581811 440.530523 
L 154.436096 466.694175 
L 159.29038 486.98 
L 168.998949 486.98 
L 173.853234 330.767147 
L 178.707518 450.27195 
L 183.561803 486.98 
L 198.124656 486.98 
L 202.978941 336.649913 
L 207.833225 425.565285 
L 212.68751 431.990708 
L 217.541794 467.856308 
L 222.396078 486.98 
L 227.250363 486.98 
L 232.104647 321.729704 
L 236.958932 451.909039 
L 241.813216 486.98 
L 256.37607 486.98 
L 261.230354 337.638516 
L 266.084639 486.98 
L 285.501777 486.98 
L 290.356061 391.751605 
L 295.210346 486.98 
L 314.627483 486.98 
L 319.481768 378.596341 
L 324.336052 486.98 
L 343.75319 486.98 
L 348.607475 378.654381 
L 353.461759 447.025777 
L 358.316044 481.756077 
L 363.170328 486.98 
L 372.878897 486.98 
L 377.733182 334.689577 
L 382.587466 443.271315 
L 387.44175 473.04978 
L 392.296035 486.98 
L 402.004604 486.98 
L 406.858888 332.42228 
L 411.713173 486.98 
L 431.130311 486.98 
L 435.984595 376.486832 
L 440.83888 272.214606 
L 445.693164 224.576088 
L 450.547449 239.294414 
L 455.401733 323.813797 
L 460.256018 327.578558 
L 465.110302 164.265042 
L 469.964587 474.554545 
L 474.818871 486.98 
L 489.381724 486.98 
L 494.236009 351.314028 
L 499.090293 486.98 
L 518.507431 486.98 
L 523.361716 377.733814 
L 528.216 486.98 
L 547.633138 486.98 
L 552.487423 391.460099 
L 557.341707 458.14672 
L 562.195991 486.98 
L 576.758845 486.98 
L 581.613129 341.405427 
L 586.467414 468.737608 
L 591.321698 486.98 
L 605.884552 486.98 
L 610.738836 347.801241 
L 615.593121 486.98 
L 635.010259 486.98 
L 639.864543 395.675075 
L 644.718827 486.98 
L 664.135965 486.98 
L 668.99025 381.219325 
L 673.844534 486.98 
L 693.261672 486.98 
L 698.115957 380.946233 
L 702.970241 486.98 
L 722.387379 486.98 
L 727.241663 363.503547 
L 732.095948 453.731268 
L 736.950232 486.98 
L 751.513086 486.98 
L 756.36737 338.73897 
L 761.221655 486.98 
L 780.638793 486.98 
L 785.493077 396.98096 
L 790.347362 142.761815 
L 795.201646 94.56113 
L 800.055931 110.094868 
L 804.910215 193.818371 
L 809.7645 199.030343 
L 814.618784 33.38 
L 819.473068 462.390339 
L 824.327353 486.98 
L 838.890206 486.98 
L 843.744491 343.968153 
L 848.598775 412.065856 
L 853.45306 400.686282 
L 858.307344 430.545083 
L 863.161629 486.98 
L 868.015913 486.98 
L 872.870198 313.577458 
L 877.724482 458.288469 
L 882.578767 486.98 
L 897.14162 486.98 
L 901.995904 341.491024 
L 906.850189 486.98 
L 926.267327 486.98 
L 931.121611 404.070937 
L 935.975896 486.98 
L 955.393034 486.98 
L 960.247318 359.705164 
L 965.101603 486.98 
L 984.51874 486.98 
L 989.373025 387.366679 
L 994.227309 486.98 
L 1013.644447 486.98 
L 1018.498732 381.877701 
L 1023.353016 486.98 
L 1042.770154 486.98 
L 1047.624439 387.273073 
L 1052.478723 485.213708 
L 1057.333008 486.98 
L 1071.895861 486.98 
L 1076.750145 357.751054 
L 1081.60443 445.190311 
L 1086.458714 477.499721 
L 1091.312999 486.98 
L 1101.021568 486.98 
L 1105.875852 333.581123 
L 1105.875852 333.581123 
" style="fill:none;stroke:#008000;stroke-dasharray:5.55,2.4;stroke-dashoffset:0;stroke-width:1.5;"/>
   </g>
   <g id="line2d_13">
    <path clip-path="url(#p63ac468507)" d="M 91.330398 486.98 
L 96.184682 486.98 
L 101.038967 451.20653 
L 105.893251 469.093265 
L 110.747536 451.20653 
L 115.60182 469.093265 
L 120.456105 433.319795 
L 125.310389 469.093265 
L 130.164673 486.98 
L 135.018958 486.98 
L 139.873242 469.093265 
L 144.727527 469.093265 
L 149.581811 486.98 
L 159.29038 486.98 
L 168.998949 451.20653 
L 178.707518 486.98 
L 183.561803 469.093265 
L 188.416087 469.093265 
L 193.270372 397.546326 
L 198.124656 451.20653 
L 202.978941 486.98 
L 207.833225 451.20653 
L 212.68751 451.20653 
L 217.541794 486.98 
L 222.396078 451.20653 
L 227.250363 451.20653 
L 232.104647 486.98 
L 236.958932 433.319795 
L 241.813216 486.98 
L 246.667501 469.093265 
L 251.521785 415.43306 
L 256.37607 486.98 
L 261.230354 451.20653 
L 266.084639 379.659591 
L 270.938923 433.319795 
L 275.793208 433.319795 
L 280.647492 415.43306 
L 285.501777 486.98 
L 290.356061 486.98 
L 295.210346 451.20653 
L 304.918914 486.98 
L 309.773199 469.093265 
L 314.627483 397.546326 
L 319.481768 433.319795 
L 329.190337 469.093265 
L 334.044621 451.20653 
L 338.898906 486.98 
L 343.75319 469.093265 
L 348.607475 433.319795 
L 353.461759 451.20653 
L 363.170328 415.43306 
L 368.024613 469.093265 
L 372.878897 451.20653 
L 377.733182 397.546326 
L 382.587466 415.43306 
L 387.44175 469.093265 
L 392.296035 451.20653 
L 397.150319 469.093265 
L 416.567457 469.093265 
L 421.421742 433.319795 
L 426.276026 486.98 
L 431.130311 433.319795 
L 435.984595 451.20653 
L 440.83888 451.20653 
L 445.693164 469.093265 
L 460.256018 469.093265 
L 465.110302 486.98 
L 474.818871 451.20653 
L 479.673155 451.20653 
L 489.381724 486.98 
L 494.236009 486.98 
L 499.090293 451.20653 
L 503.944578 451.20653 
L 508.798862 486.98 
L 513.653147 486.98 
L 518.507431 469.093265 
L 523.361716 415.43306 
L 533.070285 486.98 
L 537.924569 469.093265 
L 542.778854 469.093265 
L 547.633138 486.98 
L 552.487423 469.093265 
L 557.341707 469.093265 
L 562.195991 451.20653 
L 571.90456 486.98 
L 576.758845 433.319795 
L 581.613129 469.093265 
L 586.467414 486.98 
L 591.321698 486.98 
L 596.175983 469.093265 
L 601.030267 415.43306 
L 605.884552 486.98 
L 610.738836 451.20653 
L 615.593121 451.20653 
L 620.447405 415.43306 
L 625.30169 451.20653 
L 630.155974 433.319795 
L 635.010259 486.98 
L 639.864543 469.093265 
L 644.718827 486.98 
L 649.573112 451.20653 
L 654.427396 469.093265 
L 659.281681 433.319795 
L 664.135965 469.093265 
L 673.844534 397.546326 
L 678.698819 469.093265 
L 683.553103 451.20653 
L 688.407388 486.98 
L 693.261672 451.20653 
L 698.115957 451.20653 
L 702.970241 433.319795 
L 707.824526 451.20653 
L 712.67881 433.319795 
L 717.533095 486.98 
L 722.387379 451.20653 
L 727.241663 469.093265 
L 732.095948 415.43306 
L 736.950232 469.093265 
L 741.804517 486.98 
L 746.658801 469.093265 
L 751.513086 486.98 
L 756.36737 469.093265 
L 761.221655 379.659591 
L 766.075939 469.093265 
L 770.930224 397.546326 
L 775.784508 57.698362 
L 780.638793 415.43306 
L 785.493077 433.319795 
L 790.347362 469.093265 
L 795.201646 415.43306 
L 800.055931 451.20653 
L 804.910215 397.546326 
L 809.7645 451.20653 
L 814.618784 397.546326 
L 819.473068 469.093265 
L 824.327353 361.772856 
L 834.035922 469.093265 
L 838.890206 379.659591 
L 843.744491 343.886121 
L 848.598775 397.546326 
L 853.45306 433.319795 
L 858.307344 433.319795 
L 863.161629 469.093265 
L 868.015913 433.319795 
L 872.870198 415.43306 
L 877.724482 433.319795 
L 882.578767 469.093265 
L 887.433051 486.98 
L 892.287336 433.319795 
L 897.14162 325.999386 
L 901.995904 415.43306 
L 911.704473 451.20653 
L 916.558758 451.20653 
L 921.413042 379.659591 
L 926.267327 469.093265 
L 935.975896 469.093265 
L 940.83018 415.43306 
L 945.684465 469.093265 
L 950.538749 433.319795 
L 955.393034 486.98 
L 960.247318 469.093265 
L 965.101603 415.43306 
L 969.955887 486.98 
L 979.664456 343.886121 
L 984.51874 433.319795 
L 989.373025 469.093265 
L 994.227309 451.20653 
L 999.081594 469.093265 
L 1003.935878 469.093265 
L 1008.790163 433.319795 
L 1013.644447 415.43306 
L 1018.498732 415.43306 
L 1023.353016 433.319795 
L 1028.207301 469.093265 
L 1033.061585 469.093265 
L 1037.91587 486.98 
L 1042.770154 433.319795 
L 1047.624439 433.319795 
L 1052.478723 486.98 
L 1071.895861 486.98 
L 1076.750145 397.546326 
L 1081.60443 486.98 
L 1105.875852 486.98 
L 1105.875852 486.98 
" style="fill:none;stroke:#ff7f0e;stroke-linecap:square;stroke-width:1.5;"/>
   </g>
   <g id="line2d_14">
    <defs>
     <path d="M 0 3 
C 0.795609 3 1.55874 2.683901 2.12132 2.12132 
C 2.683901 1.55874 3 0.795609 3 0 
C 3 -0.795609 2.683901 -1.55874 2.12132 -2.12132 
C 1.55874 -2.683901 0.795609 -3 0 -3 
C -0.795609 -3 -1.55874 -2.683901 -2.12132 -2.12132 
C -2.683901 -1.55874 -3 -0.795609 -3 0 
C -3 0.795609 -2.683901 1.55874 -2.12132 2.12132 
C -1.55874 2.683901 -0.795609 3 0 3 
z
" id="m4fd5fff862" style="stroke:#008000;"/>
    </defs>
    <g clip-path="url(#p63ac468507)">
     <use style="fill:#008000;stroke:#008000;" x="91.330398" xlink:href="#m4fd5fff862" y="486.98"/>
     <use style="fill:#008000;stroke:#008000;" x="120.456105" xlink:href="#m4fd5fff862" y="486.98"/>
     <use style="fill:#008000;stroke:#008000;" x="149.581811" xlink:href="#m4fd5fff862" y="440.530523"/>
     <use style="fill:#008000;stroke:#008000;" x="178.707518" xlink:href="#m4fd5fff862" y="450.27195"/>
     <use style="fill:#008000;stroke:#008000;" x="207.833225" xlink:href="#m4fd5fff862" y="425.565285"/>
     <use style="fill:#008000;stroke:#008000;" x="236.958932" xlink:href="#m4fd5fff862" y="451.909039"/>
     <use style="fill:#008000;stroke:#008000;" x="266.084639" xlink:href="#m4fd5fff862" y="486.98"/>
     <use style="fill:#008000;stroke:#008000;" x="295.210346" xlink:href="#m4fd5fff862" y="486.98"/>
     <use style="fill:#008000;stroke:#008000;" x="324.336052" xlink:href="#m4fd5fff862" y="486.98"/>
     <use style="fill:#008000;stroke:#008000;" x="353.461759" xlink:href="#m4fd5fff862" y="447.025777"/>
     <use style="fill:#008000;stroke:#008000;" x="382.587466" xlink:href="#m4fd5fff862" y="443.271315"/>
     <use style="fill:#008000;stroke:#008000;" x="411.713173" xlink:href="#m4fd5fff862" y="486.98"/>
     <use style="fill:#008000;stroke:#008000;" x="440.83888" xlink:href="#m4fd5fff862" y="272.214606"/>
     <use style="fill:#008000;stroke:#008000;" x="469.964587" xlink:href="#m4fd5fff862" y="474.554545"/>
     <use style="fill:#008000;stroke:#008000;" x="499.090293" xlink:href="#m4fd5fff862" y="486.98"/>
     <use style="fill:#008000;stroke:#008000;" x="528.216" xlink:href="#m4fd5fff862" y="486.98"/>
     <use style="fill:#008000;stroke:#008000;" x="557.341707" xlink:href="#m4fd5fff862" y="458.14672"/>
     <use style="fill:#008000;stroke:#008000;" x="586.467414" xlink:href="#m4fd5fff862" y="468.737608"/>
     <use style="fill:#008000;stroke:#008000;" x="615.593121" xlink:href="#m4fd5fff862" y="486.98"/>
     <use style="fill:#008000;stroke:#008000;" x="644.718827" xlink:href="#m4fd5fff862" y="486.98"/>
     <use style="fill:#008000;stroke:#008000;" x="673.844534" xlink:href="#m4fd5fff862" y="486.98"/>
     <use style="fill:#008000;stroke:#008000;" x="702.970241" xlink:href="#m4fd5fff862" y="486.98"/>
     <use style="fill:#008000;stroke:#008000;" x="732.095948" xlink:href="#m4fd5fff862" y="453.731268"/>
     <use style="fill:#008000;stroke:#008000;" x="761.221655" xlink:href="#m4fd5fff862" y="486.98"/>
     <use style="fill:#008000;stroke:#008000;" x="790.347362" xlink:href="#m4fd5fff862" y="142.761815"/>
     <use style="fill:#008000;stroke:#008000;" x="819.473068" xlink:href="#m4fd5fff862" y="462.390339"/>
     <use style="fill:#008000;stroke:#008000;" x="848.598775" xlink:href="#m4fd5fff862" y="412.065856"/>
     <use style="fill:#008000;stroke:#008000;" x="877.724482" xlink:href="#m4fd5fff862" y="458.288469"/>
     <use style="fill:#008000;stroke:#008000;" x="906.850189" xlink:href="#m4fd5fff862" y="486.98"/>
     <use style="fill:#008000;stroke:#008000;" x="935.975896" xlink:href="#m4fd5fff862" y="486.98"/>
     <use style="fill:#008000;stroke:#008000;" x="965.101603" xlink:href="#m4fd5fff862" y="486.98"/>
     <use style="fill:#008000;stroke:#008000;" x="994.227309" xlink:href="#m4fd5fff862" y="486.98"/>
     <use style="fill:#008000;stroke:#008000;" x="1023.353016" xlink:href="#m4fd5fff862" y="486.98"/>
     <use style="fill:#008000;stroke:#008000;" x="1052.478723" xlink:href="#m4fd5fff862" y="485.213708"/>
     <use style="fill:#008000;stroke:#008000;" x="1081.60443" xlink:href="#m4fd5fff862" y="445.190311"/>
    </g>
   </g>
   <g id="patch_3">
    <path d="M 40.603125 509.66 
L 40.603125 10.7 
" style="fill:none;stroke:#000000;stroke-linecap:square;stroke-linejoin:miter;stroke-width:0.8;"/>
   </g>
   <g id="patch_4">
    <path d="M 1156.603125 509.66 
L 1156.603125 10.7 
" style="fill:none;stroke:#000000;stroke-linecap:square;stroke-linejoin:miter;stroke-width:0.8;"/>
   </g>
   <g id="patch_5">
    <path d="M 40.603125 509.66 
L 1156.603125 509.66 
" style="fill:none;stroke:#000000;stroke-linecap:square;stroke-linejoin:miter;stroke-width:0.8;"/>
   </g>
   <g id="patch_6">
    <path d="M 40.603125 10.7 
L 1156.603125 10.7 
" style="fill:none;stroke:#000000;stroke-linecap:square;stroke-linejoin:miter;stroke-width:0.8;"/>
   </g>
   <g id="legend_1">
    <g id="patch_7">
     <path d="M 47.603125 62.734375 
L 195.378125 62.734375 
Q 197.378125 62.734375 197.378125 60.734375 
L 197.378125 17.7 
Q 197.378125 15.7 195.378125 15.7 
L 47.603125 15.7 
Q 45.603125 15.7 45.603125 17.7 
L 45.603125 60.734375 
Q 45.603125 62.734375 47.603125 62.734375 
z
" style="fill:#ffffff;opacity:0.8;stroke:#cccccc;stroke-linejoin:miter;"/>
    </g>
    <g id="line2d_15">
     <path d="M 49.603125 23.798437 
L 69.603125 23.798437 
" style="fill:none;stroke:#008000;stroke-dasharray:5.55,2.4;stroke-dashoffset:0;stroke-width:1.5;"/>
    </g>
    <g id="line2d_16"/>
    <g id="text_14">
     <!-- Predicted -->
     <defs>
      <path d="M 19.671875 64.796875 
L 19.671875 37.40625 
L 32.078125 37.40625 
Q 38.96875 37.40625 42.71875 40.96875 
Q 46.484375 44.53125 46.484375 51.125 
Q 46.484375 57.671875 42.71875 61.234375 
Q 38.96875 64.796875 32.078125 64.796875 
z
M 9.8125 72.90625 
L 32.078125 72.90625 
Q 44.34375 72.90625 50.609375 67.359375 
Q 56.890625 61.8125 56.890625 51.125 
Q 56.890625 40.328125 50.609375 34.8125 
Q 44.34375 29.296875 32.078125 29.296875 
L 19.671875 29.296875 
L 19.671875 0 
L 9.8125 0 
z
" id="DejaVuSans-50"/>
      <path d="M 41.109375 46.296875 
Q 39.59375 47.171875 37.8125 47.578125 
Q 36.03125 48 33.890625 48 
Q 26.265625 48 22.1875 43.046875 
Q 18.109375 38.09375 18.109375 28.8125 
L 18.109375 0 
L 9.078125 0 
L 9.078125 54.6875 
L 18.109375 54.6875 
L 18.109375 46.1875 
Q 20.953125 51.171875 25.484375 53.578125 
Q 30.03125 56 36.53125 56 
Q 37.453125 56 38.578125 55.875 
Q 39.703125 55.765625 41.0625 55.515625 
z
" id="DejaVuSans-72"/>
      <path d="M 45.40625 46.390625 
L 45.40625 75.984375 
L 54.390625 75.984375 
L 54.390625 0 
L 45.40625 0 
L 45.40625 8.203125 
Q 42.578125 3.328125 38.25 0.953125 
Q 33.9375 -1.421875 27.875 -1.421875 
Q 17.96875 -1.421875 11.734375 6.484375 
Q 5.515625 14.40625 5.515625 27.296875 
Q 5.515625 40.1875 11.734375 48.09375 
Q 17.96875 56 27.875 56 
Q 33.9375 56 38.25 53.625 
Q 42.578125 51.265625 45.40625 46.390625 
z
M 14.796875 27.296875 
Q 14.796875 17.390625 18.875 11.75 
Q 22.953125 6.109375 30.078125 6.109375 
Q 37.203125 6.109375 41.296875 11.75 
Q 45.40625 17.390625 45.40625 27.296875 
Q 45.40625 37.203125 41.296875 42.84375 
Q 37.203125 48.484375 30.078125 48.484375 
Q 22.953125 48.484375 18.875 42.84375 
Q 14.796875 37.203125 14.796875 27.296875 
z
" id="DejaVuSans-64"/>
      <path d="M 48.78125 52.59375 
L 48.78125 44.1875 
Q 44.96875 46.296875 41.140625 47.34375 
Q 37.3125 48.390625 33.40625 48.390625 
Q 24.65625 48.390625 19.8125 42.84375 
Q 14.984375 37.3125 14.984375 27.296875 
Q 14.984375 17.28125 19.8125 11.734375 
Q 24.65625 6.203125 33.40625 6.203125 
Q 37.3125 6.203125 41.140625 7.25 
Q 44.96875 8.296875 48.78125 10.40625 
L 48.78125 2.09375 
Q 45.015625 0.34375 40.984375 -0.53125 
Q 36.96875 -1.421875 32.421875 -1.421875 
Q 20.0625 -1.421875 12.78125 6.34375 
Q 5.515625 14.109375 5.515625 27.296875 
Q 5.515625 40.671875 12.859375 48.328125 
Q 20.21875 56 33.015625 56 
Q 37.15625 56 41.109375 55.140625 
Q 45.0625 54.296875 48.78125 52.59375 
z
" id="DejaVuSans-63"/>
      <path d="M 18.3125 70.21875 
L 18.3125 54.6875 
L 36.8125 54.6875 
L 36.8125 47.703125 
L 18.3125 47.703125 
L 18.3125 18.015625 
Q 18.3125 11.328125 20.140625 9.421875 
Q 21.96875 7.515625 27.59375 7.515625 
L 36.8125 7.515625 
L 36.8125 0 
L 27.59375 0 
Q 17.1875 0 13.234375 3.875 
Q 9.28125 7.765625 9.28125 18.015625 
L 9.28125 47.703125 
L 2.6875 47.703125 
L 2.6875 54.6875 
L 9.28125 54.6875 
L 9.28125 70.21875 
z
" id="DejaVuSans-74"/>
     </defs>
     <g transform="translate(77.603125 27.298437)scale(0.1 -0.1)">
      <use xlink:href="#DejaVuSans-50"/>
      <use x="60.287109" xlink:href="#DejaVuSans-72"/>
      <use x="101.369141" xlink:href="#DejaVuSans-65"/>
      <use x="162.892578" xlink:href="#DejaVuSans-64"/>
      <use x="226.369141" xlink:href="#DejaVuSans-69"/>
      <use x="254.152344" xlink:href="#DejaVuSans-63"/>
      <use x="309.132812" xlink:href="#DejaVuSans-74"/>
      <use x="348.341797" xlink:href="#DejaVuSans-65"/>
      <use x="409.865234" xlink:href="#DejaVuSans-64"/>
     </g>
    </g>
    <g id="line2d_17">
     <path d="M 49.603125 38.476562 
L 69.603125 38.476562 
" style="fill:none;stroke:#ff7f0e;stroke-linecap:square;stroke-width:1.5;"/>
    </g>
    <g id="line2d_18"/>
    <g id="text_15">
     <!-- Real Data -->
     <defs>
      <path d="M 34.28125 27.484375 
Q 23.390625 27.484375 19.1875 25 
Q 14.984375 22.515625 14.984375 16.5 
Q 14.984375 11.71875 18.140625 8.90625 
Q 21.296875 6.109375 26.703125 6.109375 
Q 34.1875 6.109375 38.703125 11.40625 
Q 43.21875 16.703125 43.21875 25.484375 
L 43.21875 27.484375 
z
M 52.203125 31.203125 
L 52.203125 0 
L 43.21875 0 
L 43.21875 8.296875 
Q 40.140625 3.328125 35.546875 0.953125 
Q 30.953125 -1.421875 24.3125 -1.421875 
Q 15.921875 -1.421875 10.953125 3.296875 
Q 6 8.015625 6 15.921875 
Q 6 25.140625 12.171875 29.828125 
Q 18.359375 34.515625 30.609375 34.515625 
L 43.21875 34.515625 
L 43.21875 35.40625 
Q 43.21875 41.609375 39.140625 45 
Q 35.0625 48.390625 27.6875 48.390625 
Q 23 48.390625 18.546875 47.265625 
Q 14.109375 46.140625 10.015625 43.890625 
L 10.015625 52.203125 
Q 14.9375 54.109375 19.578125 55.046875 
Q 24.21875 56 28.609375 56 
Q 40.484375 56 46.34375 49.84375 
Q 52.203125 43.703125 52.203125 31.203125 
z
" id="DejaVuSans-61"/>
      <path d="M 9.421875 75.984375 
L 18.40625 75.984375 
L 18.40625 0 
L 9.421875 0 
z
" id="DejaVuSans-6c"/>
      <path id="DejaVuSans-20"/>
      <path d="M 19.671875 64.796875 
L 19.671875 8.109375 
L 31.59375 8.109375 
Q 46.6875 8.109375 53.6875 14.9375 
Q 60.6875 21.78125 60.6875 36.53125 
Q 60.6875 51.171875 53.6875 57.984375 
Q 46.6875 64.796875 31.59375 64.796875 
z
M 9.8125 72.90625 
L 30.078125 72.90625 
Q 51.265625 72.90625 61.171875 64.09375 
Q 71.09375 55.28125 71.09375 36.53125 
Q 71.09375 17.671875 61.125 8.828125 
Q 51.171875 0 30.078125 0 
L 9.8125 0 
z
" id="DejaVuSans-44"/>
     </defs>
     <g transform="translate(77.603125 41.976562)scale(0.1 -0.1)">
      <use xlink:href="#DejaVuSans-52"/>
      <use x="69.419922" xlink:href="#DejaVuSans-65"/>
      <use x="130.943359" xlink:href="#DejaVuSans-61"/>
      <use x="192.222656" xlink:href="#DejaVuSans-6c"/>
      <use x="220.005859" xlink:href="#DejaVuSans-20"/>
      <use x="251.792969" xlink:href="#DejaVuSans-44"/>
      <use x="328.794922" xlink:href="#DejaVuSans-61"/>
      <use x="390.074219" xlink:href="#DejaVuSans-74"/>
      <use x="429.283203" xlink:href="#DejaVuSans-61"/>
     </g>
    </g>
    <g id="line2d_19"/>
    <g id="line2d_20">
     <g>
      <use style="fill:#008000;stroke:#008000;" x="59.603125" xlink:href="#m4fd5fff862" y="53.154688"/>
     </g>
    </g>
    <g id="text_16">
     <!-- Start Point for Forecast -->
     <defs>
      <path d="M 53.515625 70.515625 
L 53.515625 60.890625 
Q 47.90625 63.578125 42.921875 64.890625 
Q 37.9375 66.21875 33.296875 66.21875 
Q 25.25 66.21875 20.875 63.09375 
Q 16.5 59.96875 16.5 54.203125 
Q 16.5 49.359375 19.40625 46.890625 
Q 22.3125 44.4375 30.421875 42.921875 
L 36.375 41.703125 
Q 47.40625 39.59375 52.65625 34.296875 
Q 57.90625 29 57.90625 20.125 
Q 57.90625 9.515625 50.796875 4.046875 
Q 43.703125 -1.421875 29.984375 -1.421875 
Q 24.8125 -1.421875 18.96875 -0.25 
Q 13.140625 0.921875 6.890625 3.21875 
L 6.890625 13.375 
Q 12.890625 10.015625 18.65625 8.296875 
Q 24.421875 6.59375 29.984375 6.59375 
Q 38.421875 6.59375 43.015625 9.90625 
Q 47.609375 13.234375 47.609375 19.390625 
Q 47.609375 24.75 44.3125 27.78125 
Q 41.015625 30.8125 33.5 32.328125 
L 27.484375 33.5 
Q 16.453125 35.6875 11.515625 40.375 
Q 6.59375 45.0625 6.59375 53.421875 
Q 6.59375 63.09375 13.40625 68.65625 
Q 20.21875 74.21875 32.171875 74.21875 
Q 37.3125 74.21875 42.625 73.28125 
Q 47.953125 72.359375 53.515625 70.515625 
z
" id="DejaVuSans-53"/>
      <path d="M 30.609375 48.390625 
Q 23.390625 48.390625 19.1875 42.75 
Q 14.984375 37.109375 14.984375 27.296875 
Q 14.984375 17.484375 19.15625 11.84375 
Q 23.34375 6.203125 30.609375 6.203125 
Q 37.796875 6.203125 41.984375 11.859375 
Q 46.1875 17.53125 46.1875 27.296875 
Q 46.1875 37.015625 41.984375 42.703125 
Q 37.796875 48.390625 30.609375 48.390625 
z
M 30.609375 56 
Q 42.328125 56 49.015625 48.375 
Q 55.71875 40.765625 55.71875 27.296875 
Q 55.71875 13.875 49.015625 6.21875 
Q 42.328125 -1.421875 30.609375 -1.421875 
Q 18.84375 -1.421875 12.171875 6.21875 
Q 5.515625 13.875 5.515625 27.296875 
Q 5.515625 40.765625 12.171875 48.375 
Q 18.84375 56 30.609375 56 
z
" id="DejaVuSans-6f"/>
      <path d="M 54.890625 33.015625 
L 54.890625 0 
L 45.90625 0 
L 45.90625 32.71875 
Q 45.90625 40.484375 42.875 44.328125 
Q 39.84375 48.1875 33.796875 48.1875 
Q 26.515625 48.1875 22.3125 43.546875 
Q 18.109375 38.921875 18.109375 30.90625 
L 18.109375 0 
L 9.078125 0 
L 9.078125 54.6875 
L 18.109375 54.6875 
L 18.109375 46.1875 
Q 21.34375 51.125 25.703125 53.5625 
Q 30.078125 56 35.796875 56 
Q 45.21875 56 50.046875 50.171875 
Q 54.890625 44.34375 54.890625 33.015625 
z
" id="DejaVuSans-6e"/>
      <path d="M 9.8125 72.90625 
L 51.703125 72.90625 
L 51.703125 64.59375 
L 19.671875 64.59375 
L 19.671875 43.109375 
L 48.578125 43.109375 
L 48.578125 34.8125 
L 19.671875 34.8125 
L 19.671875 0 
L 9.8125 0 
z
" id="DejaVuSans-46"/>
     </defs>
     <g transform="translate(77.603125 56.654688)scale(0.1 -0.1)">
      <use xlink:href="#DejaVuSans-53"/>
      <use x="63.476562" xlink:href="#DejaVuSans-74"/>
      <use x="102.685547" xlink:href="#DejaVuSans-61"/>
      <use x="163.964844" xlink:href="#DejaVuSans-72"/>
      <use x="205.078125" xlink:href="#DejaVuSans-74"/>
      <use x="244.287109" xlink:href="#DejaVuSans-20"/>
      <use x="276.074219" xlink:href="#DejaVuSans-50"/>
      <use x="336.330078" xlink:href="#DejaVuSans-6f"/>
      <use x="397.511719" xlink:href="#DejaVuSans-69"/>
      <use x="425.294922" xlink:href="#DejaVuSans-6e"/>
      <use x="488.673828" xlink:href="#DejaVuSans-74"/>
      <use x="527.882812" xlink:href="#DejaVuSans-20"/>
      <use x="559.669922" xlink:href="#DejaVuSans-66"/>
      <use x="594.875" xlink:href="#DejaVuSans-6f"/>
      <use x="656.056641" xlink:href="#DejaVuSans-72"/>
      <use x="697.169922" xlink:href="#DejaVuSans-20"/>
      <use x="728.957031" xlink:href="#DejaVuSans-46"/>
      <use x="786.429688" xlink:href="#DejaVuSans-6f"/>
      <use x="847.611328" xlink:href="#DejaVuSans-72"/>
      <use x="888.693359" xlink:href="#DejaVuSans-65"/>
      <use x="950.216797" xlink:href="#DejaVuSans-63"/>
      <use x="1005.197266" xlink:href="#DejaVuSans-61"/>
      <use x="1066.476562" xlink:href="#DejaVuSans-73"/>
      <use x="1118.576172" xlink:href="#DejaVuSans-74"/>
     </g>
    </g>
   </g>
  </g>
  <g id="axes_2">
   <g id="patch_8">
    <path d="M 40.603125 645.74 
L 1158.043125 645.74 
L 1158.043125 516.14 
L 40.603125 516.14 
z
" style="fill:none;"/>
   </g>
   <g id="matplotlib.axis_3">
    <g id="xtick_6">
     <g id="line2d_21">
      <g>
       <use style="stroke:#000000;stroke-width:0.8;" x="91.395852" xlink:href="#m7884cadc78" y="645.74"/>
      </g>
     </g>
     <g id="text_17">
      <!-- 0 -->
      <g transform="translate(88.214602 660.338437)scale(0.1 -0.1)">
       <use xlink:href="#DejaVuSans-30"/>
      </g>
     </g>
    </g>
    <g id="xtick_7">
     <g id="line2d_22">
      <g>
       <use style="stroke:#000000;stroke-width:0.8;" x="215.887831" xlink:href="#m7884cadc78" y="645.74"/>
      </g>
     </g>
     <g id="text_18">
      <!-- 25 -->
      <g transform="translate(209.525331 660.338437)scale(0.1 -0.1)">
       <use xlink:href="#DejaVuSans-32"/>
       <use x="63.623047" xlink:href="#DejaVuSans-35"/>
      </g>
     </g>
    </g>
    <g id="xtick_8">
     <g id="line2d_23">
      <g>
       <use style="stroke:#000000;stroke-width:0.8;" x="340.379809" xlink:href="#m7884cadc78" y="645.74"/>
      </g>
     </g>
     <g id="text_19">
      <!-- 50 -->
      <g transform="translate(334.017309 660.338437)scale(0.1 -0.1)">
       <use xlink:href="#DejaVuSans-35"/>
       <use x="63.623047" xlink:href="#DejaVuSans-30"/>
      </g>
     </g>
    </g>
    <g id="xtick_9">
     <g id="line2d_24">
      <g>
       <use style="stroke:#000000;stroke-width:0.8;" x="464.871788" xlink:href="#m7884cadc78" y="645.74"/>
      </g>
     </g>
     <g id="text_20">
      <!-- 75 -->
      <defs>
       <path d="M 8.203125 72.90625 
L 55.078125 72.90625 
L 55.078125 68.703125 
L 28.609375 0 
L 18.3125 0 
L 43.21875 64.59375 
L 8.203125 64.59375 
z
" id="DejaVuSans-37"/>
      </defs>
      <g transform="translate(458.509288 660.338437)scale(0.1 -0.1)">
       <use xlink:href="#DejaVuSans-37"/>
       <use x="63.623047" xlink:href="#DejaVuSans-35"/>
      </g>
     </g>
    </g>
    <g id="xtick_10">
     <g id="line2d_25">
      <g>
       <use style="stroke:#000000;stroke-width:0.8;" x="589.363767" xlink:href="#m7884cadc78" y="645.74"/>
      </g>
     </g>
     <g id="text_21">
      <!-- 100 -->
      <g transform="translate(579.820017 660.338437)scale(0.1 -0.1)">
       <use xlink:href="#DejaVuSans-31"/>
       <use x="63.623047" xlink:href="#DejaVuSans-30"/>
       <use x="127.246094" xlink:href="#DejaVuSans-30"/>
      </g>
     </g>
    </g>
    <g id="xtick_11">
     <g id="line2d_26">
      <g>
       <use style="stroke:#000000;stroke-width:0.8;" x="713.855745" xlink:href="#m7884cadc78" y="645.74"/>
      </g>
     </g>
     <g id="text_22">
      <!-- 125 -->
      <g transform="translate(704.311995 660.338437)scale(0.1 -0.1)">
       <use xlink:href="#DejaVuSans-31"/>
       <use x="63.623047" xlink:href="#DejaVuSans-32"/>
       <use x="127.246094" xlink:href="#DejaVuSans-35"/>
      </g>
     </g>
    </g>
    <g id="xtick_12">
     <g id="line2d_27">
      <g>
       <use style="stroke:#000000;stroke-width:0.8;" x="838.347724" xlink:href="#m7884cadc78" y="645.74"/>
      </g>
     </g>
     <g id="text_23">
      <!-- 150 -->
      <g transform="translate(828.803974 660.338437)scale(0.1 -0.1)">
       <use xlink:href="#DejaVuSans-31"/>
       <use x="63.623047" xlink:href="#DejaVuSans-35"/>
       <use x="127.246094" xlink:href="#DejaVuSans-30"/>
      </g>
     </g>
    </g>
    <g id="xtick_13">
     <g id="line2d_28">
      <g>
       <use style="stroke:#000000;stroke-width:0.8;" x="962.839703" xlink:href="#m7884cadc78" y="645.74"/>
      </g>
     </g>
     <g id="text_24">
      <!-- 175 -->
      <g transform="translate(953.295953 660.338437)scale(0.1 -0.1)">
       <use xlink:href="#DejaVuSans-31"/>
       <use x="63.623047" xlink:href="#DejaVuSans-37"/>
       <use x="127.246094" xlink:href="#DejaVuSans-35"/>
      </g>
     </g>
    </g>
    <g id="xtick_14">
     <g id="line2d_29">
      <g>
       <use style="stroke:#000000;stroke-width:0.8;" x="1087.331681" xlink:href="#m7884cadc78" y="645.74"/>
      </g>
     </g>
     <g id="text_25">
      <!-- 200 -->
      <g transform="translate(1077.787931 660.338437)scale(0.1 -0.1)">
       <use xlink:href="#DejaVuSans-32"/>
       <use x="63.623047" xlink:href="#DejaVuSans-30"/>
       <use x="127.246094" xlink:href="#DejaVuSans-30"/>
      </g>
     </g>
    </g>
   </g>
   <g id="matplotlib.axis_4">
    <g id="ytick_7">
     <g id="line2d_30">
      <g>
       <use style="stroke:#000000;stroke-width:0.8;" x="40.603125" xlink:href="#mc5843eaa5b" y="619.98872"/>
      </g>
     </g>
     <g id="text_26">
      <!-- 0 -->
      <g transform="translate(27.240625 623.787938)scale(0.1 -0.1)">
       <use xlink:href="#DejaVuSans-30"/>
      </g>
     </g>
    </g>
    <g id="ytick_8">
     <g id="line2d_31">
      <g>
       <use style="stroke:#000000;stroke-width:0.8;" x="40.603125" xlink:href="#mc5843eaa5b" y="588.764519"/>
      </g>
     </g>
     <g id="text_27">
      <!-- 10 -->
      <g transform="translate(20.878125 592.563738)scale(0.1 -0.1)">
       <use xlink:href="#DejaVuSans-31"/>
       <use x="63.623047" xlink:href="#DejaVuSans-30"/>
      </g>
     </g>
    </g>
    <g id="ytick_9">
     <g id="line2d_32">
      <g>
       <use style="stroke:#000000;stroke-width:0.8;" x="40.603125" xlink:href="#mc5843eaa5b" y="557.540319"/>
      </g>
     </g>
     <g id="text_28">
      <!-- 20 -->
      <g transform="translate(20.878125 561.339538)scale(0.1 -0.1)">
       <use xlink:href="#DejaVuSans-32"/>
       <use x="63.623047" xlink:href="#DejaVuSans-30"/>
      </g>
     </g>
    </g>
    <g id="ytick_10">
     <g id="line2d_33">
      <g>
       <use style="stroke:#000000;stroke-width:0.8;" x="40.603125" xlink:href="#mc5843eaa5b" y="526.316118"/>
      </g>
     </g>
     <g id="text_29">
      <!-- 30 -->
      <defs>
       <path d="M 40.578125 39.3125 
Q 47.65625 37.796875 51.625 33 
Q 55.609375 28.21875 55.609375 21.1875 
Q 55.609375 10.40625 48.1875 4.484375 
Q 40.765625 -1.421875 27.09375 -1.421875 
Q 22.515625 -1.421875 17.65625 -0.515625 
Q 12.796875 0.390625 7.625 2.203125 
L 7.625 11.71875 
Q 11.71875 9.328125 16.59375 8.109375 
Q 21.484375 6.890625 26.8125 6.890625 
Q 36.078125 6.890625 40.9375 10.546875 
Q 45.796875 14.203125 45.796875 21.1875 
Q 45.796875 27.640625 41.28125 31.265625 
Q 36.765625 34.90625 28.71875 34.90625 
L 20.21875 34.90625 
L 20.21875 43.015625 
L 29.109375 43.015625 
Q 36.375 43.015625 40.234375 45.921875 
Q 44.09375 48.828125 44.09375 54.296875 
Q 44.09375 59.90625 40.109375 62.90625 
Q 36.140625 65.921875 28.71875 65.921875 
Q 24.65625 65.921875 20.015625 65.03125 
Q 15.375 64.15625 9.8125 62.3125 
L 9.8125 71.09375 
Q 15.4375 72.65625 20.34375 73.4375 
Q 25.25 74.21875 29.59375 74.21875 
Q 40.828125 74.21875 47.359375 69.109375 
Q 53.90625 64.015625 53.90625 55.328125 
Q 53.90625 49.265625 50.4375 45.09375 
Q 46.96875 40.921875 40.578125 39.3125 
z
" id="DejaVuSans-33"/>
      </defs>
      <g transform="translate(20.878125 530.115337)scale(0.1 -0.1)">
       <use xlink:href="#DejaVuSans-33"/>
       <use x="63.623047" xlink:href="#DejaVuSans-30"/>
      </g>
     </g>
    </g>
    <g id="text_30">
     <!-- Temperature -->
     <defs>
      <path d="M 18.109375 8.203125 
L 18.109375 -20.796875 
L 9.078125 -20.796875 
L 9.078125 54.6875 
L 18.109375 54.6875 
L 18.109375 46.390625 
Q 20.953125 51.265625 25.265625 53.625 
Q 29.59375 56 35.59375 56 
Q 45.5625 56 51.78125 48.09375 
Q 58.015625 40.1875 58.015625 27.296875 
Q 58.015625 14.40625 51.78125 6.484375 
Q 45.5625 -1.421875 35.59375 -1.421875 
Q 29.59375 -1.421875 25.265625 0.953125 
Q 20.953125 3.328125 18.109375 8.203125 
z
M 48.6875 27.296875 
Q 48.6875 37.203125 44.609375 42.84375 
Q 40.53125 48.484375 33.40625 48.484375 
Q 26.265625 48.484375 22.1875 42.84375 
Q 18.109375 37.203125 18.109375 27.296875 
Q 18.109375 17.390625 22.1875 11.75 
Q 26.265625 6.109375 33.40625 6.109375 
Q 40.53125 6.109375 44.609375 11.75 
Q 48.6875 17.390625 48.6875 27.296875 
z
" id="DejaVuSans-70"/>
     </defs>
     <g style="fill:#0000ff;" transform="translate(14.798438 613.557187)rotate(-90)scale(0.1 -0.1)">
      <use xlink:href="#DejaVuSans-54"/>
      <use x="60.818359" xlink:href="#DejaVuSans-65"/>
      <use x="122.341797" xlink:href="#DejaVuSans-6d"/>
      <use x="219.753906" xlink:href="#DejaVuSans-70"/>
      <use x="283.230469" xlink:href="#DejaVuSans-65"/>
      <use x="344.753906" xlink:href="#DejaVuSans-72"/>
      <use x="385.867188" xlink:href="#DejaVuSans-61"/>
      <use x="447.146484" xlink:href="#DejaVuSans-74"/>
      <use x="486.355469" xlink:href="#DejaVuSans-75"/>
      <use x="549.734375" xlink:href="#DejaVuSans-72"/>
      <use x="590.816406" xlink:href="#DejaVuSans-65"/>
     </g>
    </g>
   </g>
   <g id="line2d_34">
    <path clip-path="url(#p1d44aa4ae9)" d="M 91.395852 533.769335 
L 96.375531 526.346094 
L 101.355211 533.812112 
L 116.294248 587.648879 
L 121.273927 592.826507 
L 126.253606 597.254567 
L 131.233285 584.116173 
L 136.212965 568.390728 
L 141.192644 551.438486 
L 146.172323 543.609642 
L 151.152002 528.601418 
L 156.131681 525.316632 
L 161.11136 537.286741 
L 166.091039 554.097851 
L 171.070719 571.712359 
L 176.050398 587.854958 
L 181.030077 599.219787 
L 186.009756 595.004082 
L 190.989435 583.746478 
L 195.969114 563.810763 
L 200.948793 552.17725 
L 205.928473 542.732866 
L 210.908152 527.87889 
L 215.887831 529.602465 
L 220.86751 540.578396 
L 225.847189 553.784672 
L 230.826868 571.85037 
L 235.806547 590.803241 
L 240.786227 593.366217 
L 245.765906 590.128954 
L 250.745585 576.610499 
L 255.725264 561.825216 
L 260.704943 553.133647 
L 265.684622 543.615574 
L 270.664301 530.461443 
L 275.643981 528.744737 
L 280.62366 538.74616 
L 285.603339 554.833181 
L 290.583018 578.503622 
L 295.562697 590.932384 
L 300.542376 597.652301 
L 305.522055 593.017692 
L 310.501735 584.886161 
L 315.481414 564.935146 
L 320.461093 552.36241 
L 325.440772 543.149709 
L 330.420451 540.08037 
L 335.40013 531.899942 
L 340.379809 537.130932 
L 345.359489 555.499505 
L 350.339168 567.676631 
L 355.318847 586.487338 
L 360.298526 595.659635 
L 365.278205 588.357356 
L 370.257884 581.874275 
L 375.237564 562.529946 
L 380.217243 550.500198 
L 385.196922 539.50647 
L 390.176601 527.07112 
L 395.15628 528.263572 
L 400.135959 536.850539 
L 405.115638 555.600359 
L 410.095318 566.128223 
L 415.074997 583.438607 
L 420.054676 596.464969 
L 425.034355 596.952816 
L 430.014034 586.251908 
L 434.993713 564.323464 
L 439.973392 555.123566 
L 444.953072 539.713798 
L 449.932751 534.101873 
L 454.91243 526.691433 
L 459.892109 535.606567 
L 464.871788 552.415491 
L 469.851467 570.278544 
L 474.831146 596.059398 
L 479.810826 597.435261 
L 484.790505 592.738173 
L 489.770184 583.985343 
L 494.749863 570.577671 
L 499.729542 553.368766 
L 514.66858 524.849205 
L 519.648259 539.323184 
L 524.627938 551.274246 
L 534.587296 587.148042 
L 539.566975 592.157185 
L 544.546654 586.677806 
L 549.526334 581.473044 
L 554.506013 568.503448 
L 559.485692 551.78164 
L 564.465371 541.142305 
L 569.44505 536.81588 
L 574.424729 524.613775 
L 579.404408 533.742482 
L 584.384088 552.12292 
L 589.363767 572.398355 
L 594.343446 586.784905 
L 599.323125 596.805344 
L 604.302804 596.767563 
L 609.282483 579.677028 
L 614.262162 565.22116 
L 619.241842 553.041848 
L 624.221521 545.412527 
L 629.2012 528.597046 
L 634.180879 529.367035 
L 639.160558 537.613659 
L 644.140237 552.107308 
L 649.119916 572.569151 
L 654.099596 584.640427 
L 659.079275 594.500311 
L 664.058954 588.694889 
L 669.038633 581.750939 
L 674.018312 564.404959 
L 678.997991 550.669433 
L 688.95735 534.664845 
L 693.937029 530.567918 
L 698.916708 538.845453 
L 703.896387 553.691936 
L 708.876066 571.815399 
L 713.855745 588.308958 
L 718.835424 594.631952 
L 723.815104 591.668526 
L 728.794783 584.543944 
L 733.774462 572.164798 
L 738.754141 554.848793 
L 743.73382 540.584329 
L 748.713499 529.730172 
L 753.693178 522.030909 
L 758.672858 534.117173 
L 763.652537 553.492413 
L 768.632216 571.546871 
L 773.611895 585.772929 
L 778.591574 601.844118 
L 783.571253 590.090986 
L 788.550932 586.747436 
L 793.530612 567.375005 
L 798.510291 554.92779 
L 803.48997 541.807381 
L 808.469649 529.752966 
L 813.449328 527.256904 
L 818.429007 536.384362 
L 823.408686 553.566103 
L 828.388366 567.832752 
L 833.368045 590.644903 
L 838.347724 598.788456 
L 843.327403 598.879162 
L 848.307082 585.418222 
L 853.286761 566.330556 
L 858.266441 552.441719 
L 863.24612 545.082175 
L 868.225799 531.035656 
L 873.205478 524.523225 
L 878.185157 533.261005 
L 883.164836 552.76083 
L 888.144515 574.530655 
L 893.124195 592.753536 
L 898.103874 598.374797 
L 903.083553 595.24963 
L 908.063232 578.047437 
L 913.042911 568.188396 
L 918.02259 552.453272 
L 923.002269 541.69029 
L 927.981949 528.760661 
L 932.961628 523.928092 
L 937.941307 536.346268 
L 942.920986 551.788509 
L 947.900665 572.418338 
L 952.880344 589.263107 
L 957.860023 595.013044 
L 962.839703 595.300837 
L 967.819382 582.791642 
L 972.799061 565.621142 
L 977.77874 549.80265 
L 982.758419 541.494827 
L 987.738098 530.531698 
L 992.717777 530.712174 
L 997.697457 539.214836 
L 1002.677136 553.861796 
L 1007.656815 569.692153 
L 1012.636494 592.86638 
L 1017.616173 594.687625 
L 1022.595852 593.065122 
L 1027.575531 580.069516 
L 1037.53489 547.368723 
L 1042.514569 544.127651 
L 1047.494248 532.215307 
L 1052.473927 529.471948 
L 1057.453606 541.065494 
L 1062.433285 553.996372 
L 1067.412965 568.502511 
L 1072.392644 583.815171 
L 1077.372323 594.822326 
L 1082.352002 591.827894 
L 1087.331681 579.534646 
L 1092.31136 562.87591 
L 1097.291039 547.404007 
L 1102.270719 542.915528 
L 1107.250398 531.046272 
L 1107.250398 531.046272 
" style="fill:none;stroke:#ff0000;stroke-linecap:square;stroke-width:1.5;"/>
   </g>
   <g id="line2d_35">
    <path clip-path="url(#p1d44aa4ae9)" d="M 91.395852 543.997446 
L 96.375531 537.194942 
L 101.355211 544.412416 
L 106.33489 564.186702 
L 111.314569 582.519991 
L 116.294248 599.869874 
L 121.273927 603.440518 
L 126.253606 609.143337 
L 131.233285 596.922404 
L 136.212965 581.170481 
L 141.192644 564.298485 
L 146.172323 554.171228 
L 151.152002 540.087864 
L 156.131681 537.17933 
L 161.11136 548.554618 
L 166.091039 565.210856 
L 171.070719 583.155404 
L 176.050398 599.996863 
L 181.030077 610.011214 
L 186.009756 606.435762 
L 190.989435 596.299293 
L 195.969114 577.927536 
L 200.948793 564.299734 
L 205.928473 553.359398 
L 210.908152 539.895835 
L 215.887831 539.116479 
L 220.86751 549.901006 
L 225.847189 565.766647 
L 230.826868 585.042282 
L 235.806547 602.143964 
L 240.786227 604.057165 
L 245.765906 601.871689 
L 250.745585 589.615972 
L 255.725264 574.555947 
L 260.704943 565.030692 
L 265.684622 554.918735 
L 270.664301 541.368993 
L 275.643981 540.172482 
L 280.62366 550.547971 
L 285.603339 567.178917 
L 290.583018 590.611399 
L 295.562697 601.066511 
L 300.542376 608.753472 
L 305.522055 604.277295 
L 310.501735 597.325727 
L 315.481414 577.294934 
L 320.461093 564.623841 
L 325.440772 554.030094 
L 330.420451 549.75956 
L 335.40013 542.239836 
L 340.379809 548.711676 
L 345.359489 568.523744 
L 350.339168 577.769229 
L 355.318847 597.671753 
L 360.298526 607.335893 
L 365.278205 601.233529 
L 370.257884 594.515455 
L 375.237564 577.003612 
L 380.217243 562.713544 
L 385.196922 551.399455 
L 390.176601 539.469937 
L 395.15628 539.839944 
L 400.135959 547.781819 
L 405.115638 566.736158 
L 410.095318 578.48801 
L 415.074997 595.328908 
L 420.054676 607.158789 
L 425.034355 607.150921 
L 430.014034 598.022932 
L 434.993713 577.71084 
L 439.973392 567.919243 
L 444.953072 551.170894 
L 449.932751 544.097676 
L 454.91243 538.040806 
L 459.892109 546.827608 
L 464.871788 563.571585 
L 469.851467 583.290917 
L 474.831146 607.129283 
L 479.810826 608.03519 
L 484.790505 603.910224 
L 489.770184 596.545153 
L 494.749863 583.038001 
L 499.729542 565.386648 
L 504.709221 554.674249 
L 509.6889 544.263477 
L 514.66858 536.820564 
L 519.648259 550.839605 
L 524.627938 563.760804 
L 534.587296 597.845828 
L 539.566975 603.169554 
L 544.546654 599.304685 
L 549.526334 593.897153 
L 554.506013 582.011661 
L 559.485692 565.480945 
L 564.465371 552.61876 
L 569.44505 546.831043 
L 574.424729 536.734073 
L 579.404408 545.088732 
L 584.384088 564.375921 
L 589.363767 584.467757 
L 594.343446 597.599969 
L 599.323125 607.159227 
L 604.302804 608.994054 
L 609.282483 592.576619 
L 614.262162 578.251955 
L 619.241842 566.04985 
L 624.221521 556.24951 
L 629.2012 540.290509 
L 634.180879 540.695175 
L 639.160558 548.913072 
L 644.140237 564.317531 
L 649.119916 584.609827 
L 654.099596 597.055762 
L 659.079275 605.342759 
L 664.058954 600.289215 
L 669.038633 593.93022 
L 674.018312 578.408076 
L 678.997991 563.941592 
L 683.97767 554.106593 
L 688.95735 544.852989 
L 693.937029 541.658129 
L 698.916708 551.007279 
L 703.896387 566.251246 
L 708.876066 583.303407 
L 713.855745 599.404322 
L 718.835424 605.843751 
L 723.815104 602.549254 
L 728.794783 595.497237 
L 733.774462 584.150519 
L 738.754141 567.443074 
L 743.73382 552.160701 
L 748.713499 540.302062 
L 753.693178 533.837404 
L 758.672858 545.895565 
L 763.652537 564.272569 
L 768.632216 584.287906 
L 773.611895 597.54745 
L 778.591574 612.843904 
L 783.571253 602.418956 
L 788.550932 600.028431 
L 793.530612 581.857414 
L 798.510291 566.993758 
L 803.48997 552.500733 
L 808.469649 540.906563 
L 813.449328 538.569744 
L 818.429007 547.877053 
L 823.408686 565.663607 
L 828.388366 579.187432 
L 833.368045 602.072523 
L 838.347724 609.897089 
L 843.327403 609.485742 
L 848.307082 596.858706 
L 853.286761 579.58398 
L 858.266441 565.588356 
L 863.24612 555.821427 
L 868.225799 541.927282 
L 873.205478 536.400911 
L 878.185157 545.141501 
L 888.144515 585.962459 
L 893.124195 604.340993 
L 898.103874 610.120655 
L 903.083553 606.374718 
L 908.063232 591.846941 
L 913.042911 581.501146 
L 918.02259 565.974912 
L 923.002269 552.669344 
L 927.981949 540.015424 
L 932.961628 536.094913 
L 937.941307 548.329492 
L 942.920986 562.711671 
L 947.900665 585.092241 
L 952.880344 600.527893 
L 957.860023 607.293459 
L 962.839703 606.112997 
L 967.819382 594.875064 
L 972.799061 579.894661 
L 977.77874 564.101772 
L 982.758419 552.710872 
L 987.738098 541.667809 
L 992.717777 541.42707 
L 997.697457 551.635822 
L 1002.677136 566.281221 
L 1007.656815 581.540176 
L 1012.636494 604.082331 
L 1017.616173 605.267102 
L 1022.595852 603.992062 
L 1027.575531 592.408914 
L 1032.555211 576.48248 
L 1037.53489 561.279105 
L 1042.514569 555.105456 
L 1047.494248 542.895857 
L 1052.473927 540.6193 
L 1057.453606 552.453584 
L 1062.433285 567.52051 
L 1067.412965 578.843966 
L 1072.392644 594.891644 
L 1077.372323 605.555427 
L 1082.352002 603.53238 
L 1087.331681 592.292854 
L 1092.31136 575.708432 
L 1097.291039 560.99996 
L 1102.270719 553.624492 
L 1107.250398 542.142729 
L 1107.250398 542.142729 
" style="fill:none;stroke:#008000;stroke-linecap:square;stroke-width:1.5;"/>
   </g>
   <g id="line2d_36">
    <path clip-path="url(#p1d44aa4ae9)" d="M 91.395852 553.616998 
L 96.375531 547.020261 
L 101.355211 554.919672 
L 106.33489 577.355821 
L 111.314569 595.367033 
L 116.294248 612.536939 
L 121.273927 616.050442 
L 126.253606 621.433841 
L 131.233285 610.790539 
L 136.212965 594.721097 
L 141.192644 576.930235 
L 146.172323 564.4621 
L 151.152002 550.463978 
L 156.131681 547.94481 
L 161.11136 559.627344 
L 166.091039 576.944598 
L 171.070719 594.795973 
L 176.050398 613.073121 
L 181.030077 621.804138 
L 186.009756 619.522979 
L 190.989435 609.995289 
L 195.969114 593.432787 
L 200.948793 576.475611 
L 210.908152 550.671307 
L 215.887831 548.680452 
L 220.86751 560.278993 
L 225.847189 577.94065 
L 230.826868 598.550246 
L 235.806547 613.420928 
L 240.786227 616.046383 
L 245.765906 615.00693 
L 250.745585 603.981102 
L 255.725264 587.773463 
L 265.684622 566.200039 
L 270.664301 551.010402 
L 275.643981 550.545786 
L 280.62366 562.258295 
L 285.603339 579.43504 
L 290.583018 602.806511 
L 300.542376 620.813769 
L 305.522055 616.790081 
L 310.501735 610.311778 
L 315.481414 590.41297 
L 320.461093 577.253718 
L 325.440772 564.589494 
L 330.420451 558.6366 
L 335.40013 551.633949 
L 340.379809 560.2409 
L 345.359489 581.975441 
L 350.339168 590.106223 
L 355.318847 609.85375 
L 360.298526 619.391038 
L 365.278205 615.832092 
L 370.257884 608.701171 
L 375.237564 592.890142 
L 380.217243 574.953119 
L 385.196922 563.372063 
L 390.176601 550.552967 
L 395.15628 550.651636 
L 400.135959 558.087367 
L 405.115638 578.625397 
L 410.095318 591.467473 
L 415.074997 608.283173 
L 420.054676 617.969753 
L 425.034355 617.983932 
L 430.014034 610.156063 
L 434.993713 591.531421 
L 439.973392 580.10761 
L 444.953072 561.097692 
L 449.932751 552.7524 
L 454.91243 547.806799 
L 459.892109 557.64773 
L 464.871788 574.903472 
L 469.851467 596.509339 
L 474.831146 618.825478 
L 479.810826 619.450221 
L 484.790505 616.554994 
L 489.770184 609.902179 
L 494.749863 595.766047 
L 499.729542 577.622788 
L 504.709221 564.796511 
L 509.6889 552.725859 
L 514.66858 547.24851 
L 519.648259 562.149635 
L 524.627938 576.607689 
L 529.607617 593.380237 
L 534.587296 608.952026 
L 539.566975 615.469017 
L 544.546654 614.027395 
L 549.526334 607.641359 
L 554.506013 595.898344 
L 559.485692 579.306709 
L 564.465371 563.37175 
L 569.44505 555.96256 
L 574.424729 548.03255 
L 579.404408 555.50013 
L 584.384088 577.214687 
L 589.363767 597.23502 
L 594.343446 609.194701 
L 599.323125 618.999662 
L 604.302804 621.827157 
L 609.282483 606.464207 
L 614.262162 592.049992 
L 624.221521 566.432659 
L 629.2012 550.609171 
L 634.180879 550.856154 
L 639.160558 560.062922 
L 644.140237 577.035148 
L 649.119916 596.994219 
L 654.099596 610.768838 
L 659.079275 617.553407 
L 664.058954 613.926385 
L 669.038633 607.500757 
L 674.018312 593.548223 
L 678.997991 577.397974 
L 683.97767 564.927028 
L 688.95735 553.698181 
L 693.937029 551.69671 
L 698.916708 563.068251 
L 708.876066 595.281572 
L 713.855745 611.152895 
L 718.835424 618.873869 
L 723.815104 615.174479 
L 728.794783 608.108817 
L 733.774462 597.034124 
L 738.754141 580.181923 
L 743.73382 562.907447 
L 748.713499 549.690243 
L 753.693178 544.098925 
L 758.672858 557.485052 
L 763.652537 575.490799 
L 768.632216 597.471512 
L 773.611895 610.285955 
L 778.591574 624.236991 
L 783.571253 616.53473 
L 788.550932 613.545824 
L 793.530612 597.241328 
L 798.510291 579.108747 
L 803.48997 562.311064 
L 808.469649 550.731882 
L 813.449328 548.374767 
L 818.429007 559.095908 
L 823.408686 578.384346 
L 828.388366 591.343201 
L 833.368045 613.223029 
L 838.347724 621.13412 
L 843.327403 621.540837 
L 848.307082 609.247938 
L 853.286761 593.365249 
L 858.266441 578.187946 
L 863.24612 565.652054 
L 868.225799 551.66049 
L 873.205478 547.189809 
L 878.185157 555.993472 
L 883.164836 579.08127 
L 893.124195 616.479713 
L 898.103874 622.665926 
L 903.083553 619.208205 
L 908.063232 607.136433 
L 913.042911 596.024552 
L 918.02259 579.688893 
L 923.002269 562.585837 
L 927.981949 550.009978 
L 932.961628 547.050236 
L 937.941307 560.323332 
L 942.920986 573.93802 
L 947.900665 598.406521 
L 952.880344 611.727171 
L 957.860023 620.859997 
L 962.839703 618.137047 
L 967.819382 608.321766 
L 972.799061 595.003989 
L 982.758419 562.466873 
L 987.738098 551.816298 
L 992.717777 550.12582 
L 997.697457 563.628726 
L 1002.677136 579.374153 
L 1007.656815 594.177172 
L 1012.636494 615.675752 
L 1017.616173 616.780714 
L 1022.595852 615.945092 
L 1027.575531 605.487982 
L 1032.555211 590.017546 
L 1037.53489 575.910453 
L 1042.514569 565.294849 
L 1047.494248 552.456394 
L 1052.473927 550.431817 
L 1057.453606 563.086674 
L 1062.433285 581.692862 
L 1067.412965 589.806814 
L 1072.392644 606.83846 
L 1077.372323 616.888859 
L 1082.352002 616.981963 
L 1087.331681 606.158522 
L 1092.31136 589.237379 
L 1097.291039 574.801369 
L 1102.270719 563.673376 
L 1107.250398 551.825666 
L 1107.250398 551.825666 
" style="fill:none;stroke:#0000ff;stroke-linecap:square;stroke-width:1.5;"/>
   </g>
   <g id="line2d_37">
    <defs>
     <path d="M 0 3 
C 0.795609 3 1.55874 2.683901 2.12132 2.12132 
C 2.683901 1.55874 3 0.795609 3 0 
C 3 -0.795609 2.683901 -1.55874 2.12132 -2.12132 
C 1.55874 -2.683901 0.795609 -3 0 -3 
C -0.795609 -3 -1.55874 -2.683901 -2.12132 -2.12132 
C -2.683901 -1.55874 -3 -0.795609 -3 0 
C -3 0.795609 -2.683901 1.55874 -2.12132 2.12132 
C -1.55874 2.683901 -0.795609 3 0 3 
z
" id="mb50a5d5add" style="stroke:#ff0000;"/>
    </defs>
    <g clip-path="url(#p1d44aa4ae9)">
     <use style="fill:#ff0000;stroke:#ff0000;" x="96.375531" xlink:href="#mb50a5d5add" y="639.849091"/>
     <use style="fill:#ff0000;stroke:#ff0000;" x="101.355211" xlink:href="#mb50a5d5add" y="639.849091"/>
     <use style="fill:#ff0000;stroke:#ff0000;" x="131.233285" xlink:href="#mb50a5d5add" y="639.849091"/>
     <use style="fill:#ff0000;stroke:#ff0000;" x="136.212965" xlink:href="#mb50a5d5add" y="639.849091"/>
     <use style="fill:#ff0000;stroke:#ff0000;" x="141.192644" xlink:href="#mb50a5d5add" y="639.849091"/>
     <use style="fill:#ff0000;stroke:#ff0000;" x="151.152002" xlink:href="#mb50a5d5add" y="639.849091"/>
     <use style="fill:#ff0000;stroke:#ff0000;" x="156.131681" xlink:href="#mb50a5d5add" y="639.849091"/>
     <use style="fill:#ff0000;stroke:#ff0000;" x="161.11136" xlink:href="#mb50a5d5add" y="639.849091"/>
     <use style="fill:#ff0000;stroke:#ff0000;" x="166.091039" xlink:href="#mb50a5d5add" y="639.849091"/>
     <use style="fill:#ff0000;stroke:#ff0000;" x="181.030077" xlink:href="#mb50a5d5add" y="639.849091"/>
     <use style="fill:#ff0000;stroke:#ff0000;" x="190.989435" xlink:href="#mb50a5d5add" y="639.849091"/>
     <use style="fill:#ff0000;stroke:#ff0000;" x="205.928473" xlink:href="#mb50a5d5add" y="639.849091"/>
     <use style="fill:#ff0000;stroke:#ff0000;" x="215.887831" xlink:href="#mb50a5d5add" y="639.849091"/>
     <use style="fill:#ff0000;stroke:#ff0000;" x="220.86751" xlink:href="#mb50a5d5add" y="639.849091"/>
     <use style="fill:#ff0000;stroke:#ff0000;" x="250.745585" xlink:href="#mb50a5d5add" y="639.849091"/>
     <use style="fill:#ff0000;stroke:#ff0000;" x="270.664301" xlink:href="#mb50a5d5add" y="639.849091"/>
     <use style="fill:#ff0000;stroke:#ff0000;" x="280.62366" xlink:href="#mb50a5d5add" y="639.849091"/>
     <use style="fill:#ff0000;stroke:#ff0000;" x="295.562697" xlink:href="#mb50a5d5add" y="639.849091"/>
     <use style="fill:#ff0000;stroke:#ff0000;" x="320.461093" xlink:href="#mb50a5d5add" y="639.849091"/>
     <use style="fill:#ff0000;stroke:#ff0000;" x="330.420451" xlink:href="#mb50a5d5add" y="639.849091"/>
     <use style="fill:#ff0000;stroke:#ff0000;" x="335.40013" xlink:href="#mb50a5d5add" y="639.849091"/>
     <use style="fill:#ff0000;stroke:#ff0000;" x="340.379809" xlink:href="#mb50a5d5add" y="639.849091"/>
     <use style="fill:#ff0000;stroke:#ff0000;" x="385.196922" xlink:href="#mb50a5d5add" y="639.849091"/>
     <use style="fill:#ff0000;stroke:#ff0000;" x="390.176601" xlink:href="#mb50a5d5add" y="639.849091"/>
     <use style="fill:#ff0000;stroke:#ff0000;" x="395.15628" xlink:href="#mb50a5d5add" y="639.849091"/>
     <use style="fill:#ff0000;stroke:#ff0000;" x="400.135959" xlink:href="#mb50a5d5add" y="639.849091"/>
     <use style="fill:#ff0000;stroke:#ff0000;" x="405.115638" xlink:href="#mb50a5d5add" y="639.849091"/>
     <use style="fill:#ff0000;stroke:#ff0000;" x="410.095318" xlink:href="#mb50a5d5add" y="639.849091"/>
     <use style="fill:#ff0000;stroke:#ff0000;" x="430.014034" xlink:href="#mb50a5d5add" y="639.849091"/>
     <use style="fill:#ff0000;stroke:#ff0000;" x="434.993713" xlink:href="#mb50a5d5add" y="639.849091"/>
     <use style="fill:#ff0000;stroke:#ff0000;" x="444.953072" xlink:href="#mb50a5d5add" y="639.849091"/>
     <use style="fill:#ff0000;stroke:#ff0000;" x="454.91243" xlink:href="#mb50a5d5add" y="639.849091"/>
     <use style="fill:#ff0000;stroke:#ff0000;" x="459.892109" xlink:href="#mb50a5d5add" y="639.849091"/>
     <use style="fill:#ff0000;stroke:#ff0000;" x="474.831146" xlink:href="#mb50a5d5add" y="639.849091"/>
     <use style="fill:#ff0000;stroke:#ff0000;" x="479.810826" xlink:href="#mb50a5d5add" y="639.849091"/>
     <use style="fill:#ff0000;stroke:#ff0000;" x="504.709221" xlink:href="#mb50a5d5add" y="639.849091"/>
     <use style="fill:#ff0000;stroke:#ff0000;" x="509.6889" xlink:href="#mb50a5d5add" y="639.849091"/>
     <use style="fill:#ff0000;stroke:#ff0000;" x="519.648259" xlink:href="#mb50a5d5add" y="639.849091"/>
     <use style="fill:#ff0000;stroke:#ff0000;" x="529.607617" xlink:href="#mb50a5d5add" y="639.849091"/>
     <use style="fill:#ff0000;stroke:#ff0000;" x="549.526334" xlink:href="#mb50a5d5add" y="639.849091"/>
     <use style="fill:#ff0000;stroke:#ff0000;" x="554.506013" xlink:href="#mb50a5d5add" y="639.849091"/>
     <use style="fill:#ff0000;stroke:#ff0000;" x="569.44505" xlink:href="#mb50a5d5add" y="639.849091"/>
     <use style="fill:#ff0000;stroke:#ff0000;" x="574.424729" xlink:href="#mb50a5d5add" y="639.849091"/>
     <use style="fill:#ff0000;stroke:#ff0000;" x="579.404408" xlink:href="#mb50a5d5add" y="639.849091"/>
     <use style="fill:#ff0000;stroke:#ff0000;" x="624.221521" xlink:href="#mb50a5d5add" y="639.849091"/>
     <use style="fill:#ff0000;stroke:#ff0000;" x="629.2012" xlink:href="#mb50a5d5add" y="639.849091"/>
     <use style="fill:#ff0000;stroke:#ff0000;" x="688.95735" xlink:href="#mb50a5d5add" y="639.849091"/>
     <use style="fill:#ff0000;stroke:#ff0000;" x="693.937029" xlink:href="#mb50a5d5add" y="639.849091"/>
     <use style="fill:#ff0000;stroke:#ff0000;" x="703.896387" xlink:href="#mb50a5d5add" y="639.849091"/>
     <use style="fill:#ff0000;stroke:#ff0000;" x="748.713499" xlink:href="#mb50a5d5add" y="639.849091"/>
     <use style="fill:#ff0000;stroke:#ff0000;" x="788.550932" xlink:href="#mb50a5d5add" y="639.849091"/>
     <use style="fill:#ff0000;stroke:#ff0000;" x="793.530612" xlink:href="#mb50a5d5add" y="639.849091"/>
     <use style="fill:#ff0000;stroke:#ff0000;" x="808.469649" xlink:href="#mb50a5d5add" y="639.849091"/>
     <use style="fill:#ff0000;stroke:#ff0000;" x="813.449328" xlink:href="#mb50a5d5add" y="639.849091"/>
     <use style="fill:#ff0000;stroke:#ff0000;" x="818.429007" xlink:href="#mb50a5d5add" y="639.849091"/>
     <use style="fill:#ff0000;stroke:#ff0000;" x="838.347724" xlink:href="#mb50a5d5add" y="639.849091"/>
     <use style="fill:#ff0000;stroke:#ff0000;" x="853.286761" xlink:href="#mb50a5d5add" y="639.849091"/>
     <use style="fill:#ff0000;stroke:#ff0000;" x="858.266441" xlink:href="#mb50a5d5add" y="639.849091"/>
     <use style="fill:#ff0000;stroke:#ff0000;" x="868.225799" xlink:href="#mb50a5d5add" y="639.849091"/>
     <use style="fill:#ff0000;stroke:#ff0000;" x="873.205478" xlink:href="#mb50a5d5add" y="639.849091"/>
     <use style="fill:#ff0000;stroke:#ff0000;" x="878.185157" xlink:href="#mb50a5d5add" y="639.849091"/>
     <use style="fill:#ff0000;stroke:#ff0000;" x="898.103874" xlink:href="#mb50a5d5add" y="639.849091"/>
     <use style="fill:#ff0000;stroke:#ff0000;" x="903.083553" xlink:href="#mb50a5d5add" y="639.849091"/>
     <use style="fill:#ff0000;stroke:#ff0000;" x="908.063232" xlink:href="#mb50a5d5add" y="639.849091"/>
     <use style="fill:#ff0000;stroke:#ff0000;" x="913.042911" xlink:href="#mb50a5d5add" y="639.849091"/>
     <use style="fill:#ff0000;stroke:#ff0000;" x="918.02259" xlink:href="#mb50a5d5add" y="639.849091"/>
     <use style="fill:#ff0000;stroke:#ff0000;" x="923.002269" xlink:href="#mb50a5d5add" y="639.849091"/>
     <use style="fill:#ff0000;stroke:#ff0000;" x="927.981949" xlink:href="#mb50a5d5add" y="639.849091"/>
     <use style="fill:#ff0000;stroke:#ff0000;" x="932.961628" xlink:href="#mb50a5d5add" y="639.849091"/>
     <use style="fill:#ff0000;stroke:#ff0000;" x="937.941307" xlink:href="#mb50a5d5add" y="639.849091"/>
     <use style="fill:#ff0000;stroke:#ff0000;" x="942.920986" xlink:href="#mb50a5d5add" y="639.849091"/>
     <use style="fill:#ff0000;stroke:#ff0000;" x="962.839703" xlink:href="#mb50a5d5add" y="639.849091"/>
     <use style="fill:#ff0000;stroke:#ff0000;" x="987.738098" xlink:href="#mb50a5d5add" y="639.849091"/>
     <use style="fill:#ff0000;stroke:#ff0000;" x="992.717777" xlink:href="#mb50a5d5add" y="639.849091"/>
     <use style="fill:#ff0000;stroke:#ff0000;" x="997.697457" xlink:href="#mb50a5d5add" y="639.849091"/>
     <use style="fill:#ff0000;stroke:#ff0000;" x="1002.677136" xlink:href="#mb50a5d5add" y="639.849091"/>
     <use style="fill:#ff0000;stroke:#ff0000;" x="1007.656815" xlink:href="#mb50a5d5add" y="639.849091"/>
     <use style="fill:#ff0000;stroke:#ff0000;" x="1012.636494" xlink:href="#mb50a5d5add" y="639.849091"/>
     <use style="fill:#ff0000;stroke:#ff0000;" x="1037.53489" xlink:href="#mb50a5d5add" y="639.849091"/>
     <use style="fill:#ff0000;stroke:#ff0000;" x="1047.494248" xlink:href="#mb50a5d5add" y="639.849091"/>
     <use style="fill:#ff0000;stroke:#ff0000;" x="1052.473927" xlink:href="#mb50a5d5add" y="639.849091"/>
     <use style="fill:#ff0000;stroke:#ff0000;" x="1057.453606" xlink:href="#mb50a5d5add" y="639.849091"/>
     <use style="fill:#ff0000;stroke:#ff0000;" x="1077.372323" xlink:href="#mb50a5d5add" y="639.849091"/>
     <use style="fill:#ff0000;stroke:#ff0000;" x="1092.31136" xlink:href="#mb50a5d5add" y="639.849091"/>
     <use style="fill:#ff0000;stroke:#ff0000;" x="1102.270719" xlink:href="#mb50a5d5add" y="639.849091"/>
    </g>
   </g>
   <g id="patch_9">
    <path d="M 40.603125 645.74 
L 40.603125 516.14 
" style="fill:none;stroke:#000000;stroke-linecap:square;stroke-linejoin:miter;stroke-width:0.8;"/>
   </g>
   <g id="patch_10">
    <path d="M 1158.043125 645.74 
L 1158.043125 516.14 
" style="fill:none;stroke:#000000;stroke-linecap:square;stroke-linejoin:miter;stroke-width:0.8;"/>
   </g>
   <g id="patch_11">
    <path d="M 40.603125 645.74 
L 1158.043125 645.74 
" style="fill:none;stroke:#000000;stroke-linecap:square;stroke-linejoin:miter;stroke-width:0.8;"/>
   </g>
   <g id="patch_12">
    <path d="M 40.603125 516.14 
L 1158.043125 516.14 
" style="fill:none;stroke:#000000;stroke-linecap:square;stroke-linejoin:miter;stroke-width:0.8;"/>
   </g>
   <g id="legend_2">
    <g id="patch_13">
     <path d="M 47.603125 582.8525 
L 138.615625 582.8525 
Q 140.615625 582.8525 140.615625 580.8525 
L 140.615625 523.14 
Q 140.615625 521.14 138.615625 521.14 
L 47.603125 521.14 
Q 45.603125 521.14 45.603125 523.14 
L 45.603125 580.8525 
Q 45.603125 582.8525 47.603125 582.8525 
z
" style="fill:#ffffff;opacity:0.8;stroke:#cccccc;stroke-linejoin:miter;"/>
    </g>
    <g id="line2d_38">
     <path d="M 49.603125 529.238437 
L 69.603125 529.238437 
" style="fill:none;stroke:#ff0000;stroke-linecap:square;stroke-width:1.5;"/>
    </g>
    <g id="line2d_39"/>
    <g id="text_31">
     <!-- Maxmimum -->
     <defs>
      <path d="M 9.8125 72.90625 
L 24.515625 72.90625 
L 43.109375 23.296875 
L 61.8125 72.90625 
L 76.515625 72.90625 
L 76.515625 0 
L 66.890625 0 
L 66.890625 64.015625 
L 48.09375 14.015625 
L 38.1875 14.015625 
L 19.390625 64.015625 
L 19.390625 0 
L 9.8125 0 
z
" id="DejaVuSans-4d"/>
      <path d="M 54.890625 54.6875 
L 35.109375 28.078125 
L 55.90625 0 
L 45.3125 0 
L 29.390625 21.484375 
L 13.484375 0 
L 2.875 0 
L 24.125 28.609375 
L 4.6875 54.6875 
L 15.28125 54.6875 
L 29.78125 35.203125 
L 44.28125 54.6875 
z
" id="DejaVuSans-78"/>
     </defs>
     <g transform="translate(77.603125 532.738437)scale(0.1 -0.1)">
      <use xlink:href="#DejaVuSans-4d"/>
      <use x="86.279297" xlink:href="#DejaVuSans-61"/>
      <use x="147.558594" xlink:href="#DejaVuSans-78"/>
      <use x="206.738281" xlink:href="#DejaVuSans-6d"/>
      <use x="304.150391" xlink:href="#DejaVuSans-69"/>
      <use x="331.933594" xlink:href="#DejaVuSans-6d"/>
      <use x="429.345703" xlink:href="#DejaVuSans-75"/>
      <use x="492.724609" xlink:href="#DejaVuSans-6d"/>
     </g>
    </g>
    <g id="line2d_40">
     <path d="M 49.603125 543.916562 
L 69.603125 543.916562 
" style="fill:none;stroke:#008000;stroke-linecap:square;stroke-width:1.5;"/>
    </g>
    <g id="line2d_41"/>
    <g id="text_32">
     <!-- Average -->
     <defs>
      <path d="M 34.1875 63.1875 
L 20.796875 26.90625 
L 47.609375 26.90625 
z
M 28.609375 72.90625 
L 39.796875 72.90625 
L 67.578125 0 
L 57.328125 0 
L 50.6875 18.703125 
L 17.828125 18.703125 
L 11.1875 0 
L 0.78125 0 
z
" id="DejaVuSans-41"/>
      <path d="M 2.984375 54.6875 
L 12.5 54.6875 
L 29.59375 8.796875 
L 46.6875 54.6875 
L 56.203125 54.6875 
L 35.6875 0 
L 23.484375 0 
z
" id="DejaVuSans-76"/>
     </defs>
     <g transform="translate(77.603125 547.416562)scale(0.1 -0.1)">
      <use xlink:href="#DejaVuSans-41"/>
      <use x="68.330078" xlink:href="#DejaVuSans-76"/>
      <use x="127.509766" xlink:href="#DejaVuSans-65"/>
      <use x="189.033203" xlink:href="#DejaVuSans-72"/>
      <use x="230.146484" xlink:href="#DejaVuSans-61"/>
      <use x="291.425781" xlink:href="#DejaVuSans-67"/>
      <use x="354.902344" xlink:href="#DejaVuSans-65"/>
     </g>
    </g>
    <g id="line2d_42">
     <path d="M 49.603125 558.594687 
L 69.603125 558.594687 
" style="fill:none;stroke:#0000ff;stroke-linecap:square;stroke-width:1.5;"/>
    </g>
    <g id="line2d_43"/>
    <g id="text_33">
     <!-- Minimum -->
     <g transform="translate(77.603125 562.094687)scale(0.1 -0.1)">
      <use xlink:href="#DejaVuSans-4d"/>
      <use x="86.279297" xlink:href="#DejaVuSans-69"/>
      <use x="114.0625" xlink:href="#DejaVuSans-6e"/>
      <use x="177.441406" xlink:href="#DejaVuSans-69"/>
      <use x="205.224609" xlink:href="#DejaVuSans-6d"/>
      <use x="302.636719" xlink:href="#DejaVuSans-75"/>
      <use x="366.015625" xlink:href="#DejaVuSans-6d"/>
     </g>
    </g>
    <g id="line2d_44"/>
    <g id="line2d_45">
     <g>
      <use style="fill:#ff0000;stroke:#ff0000;" x="59.603125" xlink:href="#mb50a5d5add" y="573.272812"/>
     </g>
    </g>
    <g id="text_34">
     <!-- Disasters -->
     <g transform="translate(77.603125 576.772812)scale(0.1 -0.1)">
      <use xlink:href="#DejaVuSans-44"/>
      <use x="77.001953" xlink:href="#DejaVuSans-69"/>
      <use x="104.785156" xlink:href="#DejaVuSans-73"/>
      <use x="156.884766" xlink:href="#DejaVuSans-61"/>
      <use x="218.164062" xlink:href="#DejaVuSans-73"/>
      <use x="270.263672" xlink:href="#DejaVuSans-74"/>
      <use x="309.472656" xlink:href="#DejaVuSans-65"/>
      <use x="370.996094" xlink:href="#DejaVuSans-72"/>
      <use x="412.109375" xlink:href="#DejaVuSans-73"/>
     </g>
    </g>
   </g>
  </g>
 </g>
 <defs>
  <clipPath id="p63ac468507">
   <rect height="498.96" width="1116" x="40.603125" y="10.7"/>
  </clipPath>
  <clipPath id="p1d44aa4ae9">
   <rect height="129.6" width="1117.44" x="40.603125" y="516.14"/>
  </clipPath>
 </defs>
</svg>
