<?xml version="1.0" encoding="utf-8" standalone="no"?>
<!DOCTYPE svg PUBLIC "-//W3C//DTD SVG 1.1//EN"
  "http://www.w3.org/Graphics/SVG/1.1/DTD/svg11.dtd">
<!-- Created with matplotlib (http://matplotlib.org/) -->
<svg height="669pt" version="1.1" viewBox="0 0 1175 669" width="1175pt" xmlns="http://www.w3.org/2000/svg" xmlns:xlink="http://www.w3.org/1999/xlink">
 <defs>
  <style type="text/css">
*{stroke-linecap:butt;stroke-linejoin:round;}
  </style>
 </defs>
 <g id="figure_1">
  <g id="patch_1">
   <path d="M 0 669.618125 
L 1175.105625 669.618125 
L 1175.105625 -0 
L 0 -0 
z
" style="fill:none;"/>
  </g>
  <g id="axes_1">
   <g id="patch_2">
    <path d="M 46.965625 509.66 
L 1162.965625 509.66 
L 1162.965625 10.7 
L 46.965625 10.7 
z
" style="fill:none;"/>
   </g>
   <g id="matplotlib.axis_1">
    <g id="xtick_1">
     <g id="line2d_1">
      <defs>
       <path d="M 0 0 
L 0 3.5 
" id="meaa8bb620d" style="stroke:#000000;stroke-width:0.8;"/>
      </defs>
      <g>
       <use style="stroke:#000000;stroke-width:0.8;" x="97.692898" xlink:href="#meaa8bb620d" y="509.66"/>
      </g>
     </g>
     <g id="text_1">
      <!-- 0 -->
      <defs>
       <path d="M 31.78125 66.40625 
Q 24.171875 66.40625 20.328125 58.90625 
Q 16.5 51.421875 16.5 36.375 
Q 16.5 21.390625 20.328125 13.890625 
Q 24.171875 6.390625 31.78125 6.390625 
Q 39.453125 6.390625 43.28125 13.890625 
Q 47.125 21.390625 47.125 36.375 
Q 47.125 51.421875 43.28125 58.90625 
Q 39.453125 66.40625 31.78125 66.40625 
z
M 31.78125 74.21875 
Q 44.046875 74.21875 50.515625 64.515625 
Q 56.984375 54.828125 56.984375 36.375 
Q 56.984375 17.96875 50.515625 8.265625 
Q 44.046875 -1.421875 31.78125 -1.421875 
Q 19.53125 -1.421875 13.0625 8.265625 
Q 6.59375 17.96875 6.59375 36.375 
Q 6.59375 54.828125 13.0625 64.515625 
Q 19.53125 74.21875 31.78125 74.21875 
z
" id="DejaVuSans-30"/>
      </defs>
      <g transform="translate(94.511648 524.258437)scale(0.1 -0.1)">
       <use xlink:href="#DejaVuSans-30"/>
      </g>
     </g>
    </g>
    <g id="xtick_2">
     <g id="line2d_2">
      <g>
       <use style="stroke:#000000;stroke-width:0.8;" x="340.407121" xlink:href="#meaa8bb620d" y="509.66"/>
      </g>
     </g>
     <g id="text_2">
      <!-- 50 -->
      <defs>
       <path d="M 10.796875 72.90625 
L 49.515625 72.90625 
L 49.515625 64.59375 
L 19.828125 64.59375 
L 19.828125 46.734375 
Q 21.96875 47.46875 24.109375 47.828125 
Q 26.265625 48.1875 28.421875 48.1875 
Q 40.625 48.1875 47.75 41.5 
Q 54.890625 34.8125 54.890625 23.390625 
Q 54.890625 11.625 47.5625 5.09375 
Q 40.234375 -1.421875 26.90625 -1.421875 
Q 22.3125 -1.421875 17.546875 -0.640625 
Q 12.796875 0.140625 7.71875 1.703125 
L 7.71875 11.625 
Q 12.109375 9.234375 16.796875 8.0625 
Q 21.484375 6.890625 26.703125 6.890625 
Q 35.15625 6.890625 40.078125 11.328125 
Q 45.015625 15.765625 45.015625 23.390625 
Q 45.015625 31 40.078125 35.4375 
Q 35.15625 39.890625 26.703125 39.890625 
Q 22.75 39.890625 18.8125 39.015625 
Q 14.890625 38.140625 10.796875 36.28125 
z
" id="DejaVuSans-35"/>
      </defs>
      <g transform="translate(334.044621 524.258437)scale(0.1 -0.1)">
       <use xlink:href="#DejaVuSans-35"/>
       <use x="63.623047" xlink:href="#DejaVuSans-30"/>
      </g>
     </g>
    </g>
    <g id="xtick_3">
     <g id="line2d_3">
      <g>
       <use style="stroke:#000000;stroke-width:0.8;" x="583.121345" xlink:href="#meaa8bb620d" y="509.66"/>
      </g>
     </g>
     <g id="text_3">
      <!-- 100 -->
      <defs>
       <path d="M 12.40625 8.296875 
L 28.515625 8.296875 
L 28.515625 63.921875 
L 10.984375 60.40625 
L 10.984375 69.390625 
L 28.421875 72.90625 
L 38.28125 72.90625 
L 38.28125 8.296875 
L 54.390625 8.296875 
L 54.390625 0 
L 12.40625 0 
z
" id="DejaVuSans-31"/>
      </defs>
      <g transform="translate(573.577595 524.258437)scale(0.1 -0.1)">
       <use xlink:href="#DejaVuSans-31"/>
       <use x="63.623047" xlink:href="#DejaVuSans-30"/>
       <use x="127.246094" xlink:href="#DejaVuSans-30"/>
      </g>
     </g>
    </g>
    <g id="xtick_4">
     <g id="line2d_4">
      <g>
       <use style="stroke:#000000;stroke-width:0.8;" x="825.835568" xlink:href="#meaa8bb620d" y="509.66"/>
      </g>
     </g>
     <g id="text_4">
      <!-- 150 -->
      <g transform="translate(816.291818 524.258437)scale(0.1 -0.1)">
       <use xlink:href="#DejaVuSans-31"/>
       <use x="63.623047" xlink:href="#DejaVuSans-35"/>
       <use x="127.246094" xlink:href="#DejaVuSans-30"/>
      </g>
     </g>
    </g>
    <g id="xtick_5">
     <g id="line2d_5">
      <g>
       <use style="stroke:#000000;stroke-width:0.8;" x="1068.549792" xlink:href="#meaa8bb620d" y="509.66"/>
      </g>
     </g>
     <g id="text_5">
      <!-- 200 -->
      <defs>
       <path d="M 19.1875 8.296875 
L 53.609375 8.296875 
L 53.609375 0 
L 7.328125 0 
L 7.328125 8.296875 
Q 12.9375 14.109375 22.625 23.890625 
Q 32.328125 33.6875 34.8125 36.53125 
Q 39.546875 41.84375 41.421875 45.53125 
Q 43.3125 49.21875 43.3125 52.78125 
Q 43.3125 58.59375 39.234375 62.25 
Q 35.15625 65.921875 28.609375 65.921875 
Q 23.96875 65.921875 18.8125 64.3125 
Q 13.671875 62.703125 7.8125 59.421875 
L 7.8125 69.390625 
Q 13.765625 71.78125 18.9375 73 
Q 24.125 74.21875 28.421875 74.21875 
Q 39.75 74.21875 46.484375 68.546875 
Q 53.21875 62.890625 53.21875 53.421875 
Q 53.21875 48.921875 51.53125 44.890625 
Q 49.859375 40.875 45.40625 35.40625 
Q 44.1875 33.984375 37.640625 27.21875 
Q 31.109375 20.453125 19.1875 8.296875 
z
" id="DejaVuSans-32"/>
      </defs>
      <g transform="translate(1059.006042 524.258437)scale(0.1 -0.1)">
       <use xlink:href="#DejaVuSans-32"/>
       <use x="63.623047" xlink:href="#DejaVuSans-30"/>
       <use x="127.246094" xlink:href="#DejaVuSans-30"/>
      </g>
     </g>
    </g>
    <g id="text_6">
     <!-- Time -->
     <defs>
      <path d="M -0.296875 72.90625 
L 61.375 72.90625 
L 61.375 64.59375 
L 35.5 64.59375 
L 35.5 0 
L 25.59375 0 
L 25.59375 64.59375 
L -0.296875 64.59375 
z
" id="DejaVuSans-54"/>
      <path d="M 9.421875 54.6875 
L 18.40625 54.6875 
L 18.40625 0 
L 9.421875 0 
z
M 9.421875 75.984375 
L 18.40625 75.984375 
L 18.40625 64.59375 
L 9.421875 64.59375 
z
" id="DejaVuSans-69"/>
      <path d="M 52 44.1875 
Q 55.375 50.25 60.0625 53.125 
Q 64.75 56 71.09375 56 
Q 79.640625 56 84.28125 50.015625 
Q 88.921875 44.046875 88.921875 33.015625 
L 88.921875 0 
L 79.890625 0 
L 79.890625 32.71875 
Q 79.890625 40.578125 77.09375 44.375 
Q 74.3125 48.1875 68.609375 48.1875 
Q 61.625 48.1875 57.5625 43.546875 
Q 53.515625 38.921875 53.515625 30.90625 
L 53.515625 0 
L 44.484375 0 
L 44.484375 32.71875 
Q 44.484375 40.625 41.703125 44.40625 
Q 38.921875 48.1875 33.109375 48.1875 
Q 26.21875 48.1875 22.15625 43.53125 
Q 18.109375 38.875 18.109375 30.90625 
L 18.109375 0 
L 9.078125 0 
L 9.078125 54.6875 
L 18.109375 54.6875 
L 18.109375 46.1875 
Q 21.1875 51.21875 25.484375 53.609375 
Q 29.78125 56 35.6875 56 
Q 41.65625 56 45.828125 52.96875 
Q 50 49.953125 52 44.1875 
z
" id="DejaVuSans-6d"/>
      <path d="M 56.203125 29.59375 
L 56.203125 25.203125 
L 14.890625 25.203125 
Q 15.484375 15.921875 20.484375 11.0625 
Q 25.484375 6.203125 34.421875 6.203125 
Q 39.59375 6.203125 44.453125 7.46875 
Q 49.3125 8.734375 54.109375 11.28125 
L 54.109375 2.78125 
Q 49.265625 0.734375 44.1875 -0.34375 
Q 39.109375 -1.421875 33.890625 -1.421875 
Q 20.796875 -1.421875 13.15625 6.1875 
Q 5.515625 13.8125 5.515625 26.8125 
Q 5.515625 40.234375 12.765625 48.109375 
Q 20.015625 56 32.328125 56 
Q 43.359375 56 49.78125 48.890625 
Q 56.203125 41.796875 56.203125 29.59375 
z
M 47.21875 32.234375 
Q 47.125 39.59375 43.09375 43.984375 
Q 39.0625 48.390625 32.421875 48.390625 
Q 24.90625 48.390625 20.390625 44.140625 
Q 15.875 39.890625 15.1875 32.171875 
z
" id="DejaVuSans-65"/>
     </defs>
     <g transform="translate(592.578125 537.936562)scale(0.1 -0.1)">
      <use xlink:href="#DejaVuSans-54"/>
      <use x="61.037109" xlink:href="#DejaVuSans-69"/>
      <use x="88.820312" xlink:href="#DejaVuSans-6d"/>
      <use x="186.232422" xlink:href="#DejaVuSans-65"/>
     </g>
    </g>
   </g>
   <g id="matplotlib.axis_2">
    <g id="ytick_1">
     <g id="line2d_6">
      <defs>
       <path d="M 0 0 
L -3.5 0 
" id="m00127c54ec" style="stroke:#000000;stroke-width:0.8;"/>
      </defs>
      <g>
       <use style="stroke:#000000;stroke-width:0.8;" x="46.965625" xlink:href="#m00127c54ec" y="501.255943"/>
      </g>
     </g>
     <g id="text_7">
      <!-- 0 -->
      <g transform="translate(33.603125 505.055162)scale(0.1 -0.1)">
       <use xlink:href="#DejaVuSans-30"/>
      </g>
     </g>
    </g>
    <g id="ytick_2">
     <g id="line2d_7">
      <g>
       <use style="stroke:#000000;stroke-width:0.8;" x="46.965625" xlink:href="#m00127c54ec" y="425.792082"/>
      </g>
     </g>
     <g id="text_8">
      <!-- 20 -->
      <g transform="translate(27.240625 429.5913)scale(0.1 -0.1)">
       <use xlink:href="#DejaVuSans-32"/>
       <use x="63.623047" xlink:href="#DejaVuSans-30"/>
      </g>
     </g>
    </g>
    <g id="ytick_3">
     <g id="line2d_8">
      <g>
       <use style="stroke:#000000;stroke-width:0.8;" x="46.965625" xlink:href="#m00127c54ec" y="350.32822"/>
      </g>
     </g>
     <g id="text_9">
      <!-- 40 -->
      <defs>
       <path d="M 37.796875 64.3125 
L 12.890625 25.390625 
L 37.796875 25.390625 
z
M 35.203125 72.90625 
L 47.609375 72.90625 
L 47.609375 25.390625 
L 58.015625 25.390625 
L 58.015625 17.1875 
L 47.609375 17.1875 
L 47.609375 0 
L 37.796875 0 
L 37.796875 17.1875 
L 4.890625 17.1875 
L 4.890625 26.703125 
z
" id="DejaVuSans-34"/>
      </defs>
      <g transform="translate(27.240625 354.127438)scale(0.1 -0.1)">
       <use xlink:href="#DejaVuSans-34"/>
       <use x="63.623047" xlink:href="#DejaVuSans-30"/>
      </g>
     </g>
    </g>
    <g id="ytick_4">
     <g id="line2d_9">
      <g>
       <use style="stroke:#000000;stroke-width:0.8;" x="46.965625" xlink:href="#m00127c54ec" y="274.864358"/>
      </g>
     </g>
     <g id="text_10">
      <!-- 60 -->
      <defs>
       <path d="M 33.015625 40.375 
Q 26.375 40.375 22.484375 35.828125 
Q 18.609375 31.296875 18.609375 23.390625 
Q 18.609375 15.53125 22.484375 10.953125 
Q 26.375 6.390625 33.015625 6.390625 
Q 39.65625 6.390625 43.53125 10.953125 
Q 47.40625 15.53125 47.40625 23.390625 
Q 47.40625 31.296875 43.53125 35.828125 
Q 39.65625 40.375 33.015625 40.375 
z
M 52.59375 71.296875 
L 52.59375 62.3125 
Q 48.875 64.0625 45.09375 64.984375 
Q 41.3125 65.921875 37.59375 65.921875 
Q 27.828125 65.921875 22.671875 59.328125 
Q 17.53125 52.734375 16.796875 39.40625 
Q 19.671875 43.65625 24.015625 45.921875 
Q 28.375 48.1875 33.59375 48.1875 
Q 44.578125 48.1875 50.953125 41.515625 
Q 57.328125 34.859375 57.328125 23.390625 
Q 57.328125 12.15625 50.6875 5.359375 
Q 44.046875 -1.421875 33.015625 -1.421875 
Q 20.359375 -1.421875 13.671875 8.265625 
Q 6.984375 17.96875 6.984375 36.375 
Q 6.984375 53.65625 15.1875 63.9375 
Q 23.390625 74.21875 37.203125 74.21875 
Q 40.921875 74.21875 44.703125 73.484375 
Q 48.484375 72.75 52.59375 71.296875 
z
" id="DejaVuSans-36"/>
      </defs>
      <g transform="translate(27.240625 278.663577)scale(0.1 -0.1)">
       <use xlink:href="#DejaVuSans-36"/>
       <use x="63.623047" xlink:href="#DejaVuSans-30"/>
      </g>
     </g>
    </g>
    <g id="ytick_5">
     <g id="line2d_10">
      <g>
       <use style="stroke:#000000;stroke-width:0.8;" x="46.965625" xlink:href="#m00127c54ec" y="199.400496"/>
      </g>
     </g>
     <g id="text_11">
      <!-- 80 -->
      <defs>
       <path d="M 31.78125 34.625 
Q 24.75 34.625 20.71875 30.859375 
Q 16.703125 27.09375 16.703125 20.515625 
Q 16.703125 13.921875 20.71875 10.15625 
Q 24.75 6.390625 31.78125 6.390625 
Q 38.8125 6.390625 42.859375 10.171875 
Q 46.921875 13.96875 46.921875 20.515625 
Q 46.921875 27.09375 42.890625 30.859375 
Q 38.875 34.625 31.78125 34.625 
z
M 21.921875 38.8125 
Q 15.578125 40.375 12.03125 44.71875 
Q 8.5 49.078125 8.5 55.328125 
Q 8.5 64.0625 14.71875 69.140625 
Q 20.953125 74.21875 31.78125 74.21875 
Q 42.671875 74.21875 48.875 69.140625 
Q 55.078125 64.0625 55.078125 55.328125 
Q 55.078125 49.078125 51.53125 44.71875 
Q 48 40.375 41.703125 38.8125 
Q 48.828125 37.15625 52.796875 32.3125 
Q 56.78125 27.484375 56.78125 20.515625 
Q 56.78125 9.90625 50.3125 4.234375 
Q 43.84375 -1.421875 31.78125 -1.421875 
Q 19.734375 -1.421875 13.25 4.234375 
Q 6.78125 9.90625 6.78125 20.515625 
Q 6.78125 27.484375 10.78125 32.3125 
Q 14.796875 37.15625 21.921875 38.8125 
z
M 18.3125 54.390625 
Q 18.3125 48.734375 21.84375 45.5625 
Q 25.390625 42.390625 31.78125 42.390625 
Q 38.140625 42.390625 41.71875 45.5625 
Q 45.3125 48.734375 45.3125 54.390625 
Q 45.3125 60.0625 41.71875 63.234375 
Q 38.140625 66.40625 31.78125 66.40625 
Q 25.390625 66.40625 21.84375 63.234375 
Q 18.3125 60.0625 18.3125 54.390625 
z
" id="DejaVuSans-38"/>
      </defs>
      <g transform="translate(27.240625 203.199715)scale(0.1 -0.1)">
       <use xlink:href="#DejaVuSans-38"/>
       <use x="63.623047" xlink:href="#DejaVuSans-30"/>
      </g>
     </g>
    </g>
    <g id="ytick_6">
     <g id="line2d_11">
      <g>
       <use style="stroke:#000000;stroke-width:0.8;" x="46.965625" xlink:href="#m00127c54ec" y="123.936634"/>
      </g>
     </g>
     <g id="text_12">
      <!-- 100 -->
      <g transform="translate(20.878125 127.735853)scale(0.1 -0.1)">
       <use xlink:href="#DejaVuSans-31"/>
       <use x="63.623047" xlink:href="#DejaVuSans-30"/>
       <use x="127.246094" xlink:href="#DejaVuSans-30"/>
      </g>
     </g>
    </g>
    <g id="ytick_7">
     <g id="line2d_12">
      <g>
       <use style="stroke:#000000;stroke-width:0.8;" x="46.965625" xlink:href="#m00127c54ec" y="48.472772"/>
      </g>
     </g>
     <g id="text_13">
      <!-- 120 -->
      <g transform="translate(20.878125 52.271991)scale(0.1 -0.1)">
       <use xlink:href="#DejaVuSans-31"/>
       <use x="63.623047" xlink:href="#DejaVuSans-32"/>
       <use x="127.246094" xlink:href="#DejaVuSans-30"/>
      </g>
     </g>
    </g>
    <g id="text_14">
     <!-- Refugees -->
     <defs>
      <path d="M 44.390625 34.1875 
Q 47.5625 33.109375 50.5625 29.59375 
Q 53.5625 26.078125 56.59375 19.921875 
L 66.609375 0 
L 56 0 
L 46.6875 18.703125 
Q 43.0625 26.03125 39.671875 28.421875 
Q 36.28125 30.8125 30.421875 30.8125 
L 19.671875 30.8125 
L 19.671875 0 
L 9.8125 0 
L 9.8125 72.90625 
L 32.078125 72.90625 
Q 44.578125 72.90625 50.734375 67.671875 
Q 56.890625 62.453125 56.890625 51.90625 
Q 56.890625 45.015625 53.6875 40.46875 
Q 50.484375 35.9375 44.390625 34.1875 
z
M 19.671875 64.796875 
L 19.671875 38.921875 
L 32.078125 38.921875 
Q 39.203125 38.921875 42.84375 42.21875 
Q 46.484375 45.515625 46.484375 51.90625 
Q 46.484375 58.296875 42.84375 61.546875 
Q 39.203125 64.796875 32.078125 64.796875 
z
" id="DejaVuSans-52"/>
      <path d="M 37.109375 75.984375 
L 37.109375 68.5 
L 28.515625 68.5 
Q 23.6875 68.5 21.796875 66.546875 
Q 19.921875 64.59375 19.921875 59.515625 
L 19.921875 54.6875 
L 34.71875 54.6875 
L 34.71875 47.703125 
L 19.921875 47.703125 
L 19.921875 0 
L 10.890625 0 
L 10.890625 47.703125 
L 2.296875 47.703125 
L 2.296875 54.6875 
L 10.890625 54.6875 
L 10.890625 58.5 
Q 10.890625 67.625 15.140625 71.796875 
Q 19.390625 75.984375 28.609375 75.984375 
z
" id="DejaVuSans-66"/>
      <path d="M 8.5 21.578125 
L 8.5 54.6875 
L 17.484375 54.6875 
L 17.484375 21.921875 
Q 17.484375 14.15625 20.5 10.265625 
Q 23.53125 6.390625 29.59375 6.390625 
Q 36.859375 6.390625 41.078125 11.03125 
Q 45.3125 15.671875 45.3125 23.6875 
L 45.3125 54.6875 
L 54.296875 54.6875 
L 54.296875 0 
L 45.3125 0 
L 45.3125 8.40625 
Q 42.046875 3.421875 37.71875 1 
Q 33.40625 -1.421875 27.6875 -1.421875 
Q 18.265625 -1.421875 13.375 4.4375 
Q 8.5 10.296875 8.5 21.578125 
z
M 31.109375 56 
z
" id="DejaVuSans-75"/>
      <path d="M 45.40625 27.984375 
Q 45.40625 37.75 41.375 43.109375 
Q 37.359375 48.484375 30.078125 48.484375 
Q 22.859375 48.484375 18.828125 43.109375 
Q 14.796875 37.75 14.796875 27.984375 
Q 14.796875 18.265625 18.828125 12.890625 
Q 22.859375 7.515625 30.078125 7.515625 
Q 37.359375 7.515625 41.375 12.890625 
Q 45.40625 18.265625 45.40625 27.984375 
z
M 54.390625 6.78125 
Q 54.390625 -7.171875 48.1875 -13.984375 
Q 42 -20.796875 29.203125 -20.796875 
Q 24.46875 -20.796875 20.265625 -20.09375 
Q 16.0625 -19.390625 12.109375 -17.921875 
L 12.109375 -9.1875 
Q 16.0625 -11.328125 19.921875 -12.34375 
Q 23.78125 -13.375 27.78125 -13.375 
Q 36.625 -13.375 41.015625 -8.765625 
Q 45.40625 -4.15625 45.40625 5.171875 
L 45.40625 9.625 
Q 42.625 4.78125 38.28125 2.390625 
Q 33.9375 0 27.875 0 
Q 17.828125 0 11.671875 7.65625 
Q 5.515625 15.328125 5.515625 27.984375 
Q 5.515625 40.671875 11.671875 48.328125 
Q 17.828125 56 27.875 56 
Q 33.9375 56 38.28125 53.609375 
Q 42.625 51.21875 45.40625 46.390625 
L 45.40625 54.6875 
L 54.390625 54.6875 
z
" id="DejaVuSans-67"/>
      <path d="M 44.28125 53.078125 
L 44.28125 44.578125 
Q 40.484375 46.53125 36.375 47.5 
Q 32.28125 48.484375 27.875 48.484375 
Q 21.1875 48.484375 17.84375 46.4375 
Q 14.5 44.390625 14.5 40.28125 
Q 14.5 37.15625 16.890625 35.375 
Q 19.28125 33.59375 26.515625 31.984375 
L 29.59375 31.296875 
Q 39.15625 29.25 43.1875 25.515625 
Q 47.21875 21.78125 47.21875 15.09375 
Q 47.21875 7.46875 41.1875 3.015625 
Q 35.15625 -1.421875 24.609375 -1.421875 
Q 20.21875 -1.421875 15.453125 -0.5625 
Q 10.6875 0.296875 5.421875 2 
L 5.421875 11.28125 
Q 10.40625 8.6875 15.234375 7.390625 
Q 20.0625 6.109375 24.8125 6.109375 
Q 31.15625 6.109375 34.5625 8.28125 
Q 37.984375 10.453125 37.984375 14.40625 
Q 37.984375 18.0625 35.515625 20.015625 
Q 33.0625 21.96875 24.703125 23.78125 
L 21.578125 24.515625 
Q 13.234375 26.265625 9.515625 29.90625 
Q 5.8125 33.546875 5.8125 39.890625 
Q 5.8125 47.609375 11.28125 51.796875 
Q 16.75 56 26.8125 56 
Q 31.78125 56 36.171875 55.265625 
Q 40.578125 54.546875 44.28125 53.078125 
z
" id="DejaVuSans-73"/>
     </defs>
     <g style="fill:#ff7f0e;" transform="translate(14.798438 283.588594)rotate(-90)scale(0.1 -0.1)">
      <use xlink:href="#DejaVuSans-52"/>
      <use x="69.419922" xlink:href="#DejaVuSans-65"/>
      <use x="130.943359" xlink:href="#DejaVuSans-66"/>
      <use x="166.148438" xlink:href="#DejaVuSans-75"/>
      <use x="229.527344" xlink:href="#DejaVuSans-67"/>
      <use x="293.003906" xlink:href="#DejaVuSans-65"/>
      <use x="354.527344" xlink:href="#DejaVuSans-65"/>
      <use x="416.050781" xlink:href="#DejaVuSans-73"/>
     </g>
    </g>
   </g>
   <g id="line2d_13">
    <path clip-path="url(#pc56ceb8333)" d="M 97.692898 419.085856 
L 102.547182 408.876426 
L 107.401467 412.213486 
L 112.255751 429.816126 
L 117.110036 431.02241 
L 121.96432 395.906096 
L 126.818605 475.437185 
L 131.672889 465.47248 
L 136.527173 468.454551 
L 141.381458 486.403664 
L 146.235742 486.98 
L 151.090027 452.880874 
L 155.944311 335.430927 
L 160.798596 324.858231 
L 165.65288 328.722219 
L 170.507165 345.810619 
L 175.361449 347.952083 
L 180.215734 311.325666 
L 185.070018 405.543439 
L 189.924303 395.27524 
L 194.778587 398.69756 
L 199.632872 416.216969 
L 204.487156 417.57463 
L 209.341441 382.213842 
L 214.195725 303.226206 
L 219.05001 292.513619 
L 223.904294 296.58047 
L 228.758578 313.470858 
L 233.612863 315.972348 
L 238.467147 278.764589 
L 243.321432 385.933347 
L 248.175716 375.579944 
L 253.030001 379.125848 
L 257.884285 396.524668 
L 262.73857 398.101558 
L 267.592854 362.386809 
L 272.447139 297.674786 
L 277.301423 286.938075 
L 282.155708 291.039917 
L 287.009992 307.896149 
L 291.864277 310.459733 
L 296.718561 273.151765 
L 301.572846 338.420806 
L 306.42713 327.861079 
L 311.281414 331.706226 
L 316.135699 348.813007 
L 320.989983 350.921034 
L 325.844268 314.348622 
L 330.698552 320.746788 
L 335.552837 310.1103 
L 340.407121 314.066781 
L 345.261406 331.06489 
L 350.11569 333.370513 
L 354.969975 296.479053 
L 359.824259 388.964284 
L 364.678544 378.624059 
L 369.532828 382.150798 
L 374.387113 399.568293 
L 379.241397 401.111322 
L 384.095682 365.451262 
L 388.949966 301.645301 
L 393.80425 290.925819 
L 398.658535 295.002673 
L 403.512819 311.883288 
L 408.367104 314.402497 
L 413.221388 277.166209 
L 418.075673 294.317611 
L 422.929957 283.566305 
L 427.784242 287.689276 
L 432.638526 304.524911 
L 437.492811 307.125991 
L 442.347095 269.757469 
L 447.20138 368.232909 
L 452.055664 357.802638 
L 456.909949 361.46002 
L 461.764233 378.750104 
L 466.618518 380.524826 
L 471.472802 344.49054 
L 476.327087 437.320562 
L 481.181371 427.190325 
L 486.035655 430.412488 
L 490.88994 448.127265 
L 495.744224 449.129707 
L 500.598509 414.342535 
L 505.452793 394.487817 
L 510.307078 384.17155 
L 515.161362 387.663578 
L 520.015647 405.115021 
L 524.869931 406.596244 
L 529.724216 371.035917 
L 534.5785 364.074184 
L 539.432785 353.625877 
L 544.287069 357.30947 
L 549.141354 374.573876 
L 553.995638 376.395154 
L 558.849923 340.285798 
L 563.704207 384.094422 
L 568.558491 373.733074 
L 573.412776 377.29055 
L 578.26706 394.67805 
L 583.121345 396.275508 
L 587.975629 360.527532 
L 592.829914 428.595802 
L 597.684198 418.427695 
L 602.538483 421.704828 
L 607.392767 439.365963 
L 612.247052 440.465921 
L 617.101336 405.521266 
L 621.955621 382.705188 
L 626.809905 372.337702 
L 631.66419 375.90393 
L 636.518474 393.282929 
L 641.372759 394.895947 
L 646.227043 359.122919 
L 651.081327 354.210588 
L 655.935612 343.719389 
L 660.789896 347.465119 
L 665.644181 364.668927 
L 670.498465 366.60046 
L 675.35275 330.313056 
L 680.207034 442.213933 
L 685.061319 432.104952 
L 689.915603 435.29632 
L 694.769888 453.041154 
L 699.624172 453.988889 
L 704.478457 419.290051 
L 709.332741 422.33133 
L 714.187026 412.136012 
L 719.04131 415.452634 
L 723.895595 433.075216 
L 728.749879 434.245242 
L 733.604163 399.187482 
L 738.458448 373.720926 
L 743.312732 363.314519 
L 748.167017 366.937299 
L 753.021301 384.261056 
L 757.875586 385.974498 
L 762.72987 350.039297 
L 767.584155 416.127398 
L 772.438439 405.905114 
L 777.292724 409.260799 
L 782.147008 426.845268 
L 787.001293 428.084635 
L 791.855577 392.914914 
L 796.709862 367.749184 
L 801.564146 357.316826 
L 806.418431 360.977274 
L 811.272715 378.264291 
L 816.127 380.044476 
L 820.981284 344.001474 
L 825.835568 412.89408 
L 830.689853 402.65774 
L 835.544137 406.033793 
L 840.398422 423.598412 
L 845.252706 424.873929 
L 850.106991 389.64582 
L 854.961275 359.846312 
L 859.81556 349.379567 
L 864.669844 353.089774 
L 869.524129 370.328213 
L 874.378413 372.196789 
L 879.232698 336.011132 
L 884.086982 356.22831 
L 888.941267 345.74592 
L 893.795551 349.47894 
L 898.649836 366.695156 
L 903.50412 368.604106 
L 908.358404 332.353131 
L 913.212689 247.257885 
L 918.066973 236.302176 
L 922.921258 240.721641 
L 927.775542 257.267878 
L 932.629827 260.395101 
L 937.484111 222.177056 
L 942.338396 221.670459 
L 947.19268 210.603631 
L 952.046965 215.184218 
L 956.901249 231.573277 
L 961.755534 234.986458 
L 966.609818 196.306594 
L 971.464103 174.814173 
L 976.318387 163.543848 
L 981.172672 168.419677 
L 986.026956 184.520547 
L 990.88124 188.457597 
L 995.735525 148.931879 
L 1000.589809 285.761241 
L 1005.444094 274.972828 
L 1010.298378 279.149675 
L 1015.152663 295.932658 
L 1020.006947 298.629426 
L 1024.861232 261.106433 
L 1029.715516 168.565167 
L 1034.569801 157.267696 
L 1039.424085 162.182877 
L 1044.27837 178.245345 
L 1049.132654 182.252233 
L 1058.841223 102.828579 
L 1063.695508 91.245684 
L 1068.549792 96.57491 
L 1073.404077 112.233207 
L 1078.258361 116.975002 
L 1083.112645 76.149917 
L 1087.96693 167.814282 
L 1092.821214 156.513587 
L 1097.675499 161.433489 
L 1102.529783 177.491352 
L 1107.384068 181.506616 
L 1112.238352 141.85458 
L 1112.238352 141.85458 
" style="fill:none;stroke:#008000;stroke-dasharray:5.55,2.4;stroke-dashoffset:0;stroke-width:1.5;"/>
   </g>
   <g id="line2d_14">
    <path clip-path="url(#pc56ceb8333)" d="M 97.692898 372.967378 
L 102.547182 391.833344 
L 107.401467 437.111661 
L 112.255751 410.699309 
L 117.110036 369.194185 
L 121.96432 395.606537 
L 126.818605 342.781834 
L 131.672889 354.101413 
L 136.527173 301.27671 
L 141.381458 410.699309 
L 146.235742 312.596289 
L 151.090027 342.781834 
L 155.944311 380.513764 
L 160.798596 357.874606 
L 165.65288 410.699309 
L 170.507165 365.420992 
L 175.361449 350.32822 
L 180.215734 354.101413 
L 185.070018 354.101413 
L 189.924303 365.420992 
L 194.778587 369.194185 
L 199.632872 425.792082 
L 204.487156 369.194185 
L 209.341441 278.637551 
L 214.195725 357.874606 
L 219.05001 331.462254 
L 223.904294 252.225199 
L 228.758578 308.823096 
L 233.612863 305.049903 
L 238.467147 361.647799 
L 243.321432 222.039655 
L 248.175716 354.101413 
L 253.030001 331.462254 
L 257.884285 327.689061 
L 262.73857 225.812848 
L 267.592854 339.00864 
L 272.447139 244.678813 
L 277.301423 323.915868 
L 282.155708 327.689061 
L 287.009992 301.27671 
L 291.864277 361.647799 
L 296.718561 342.781834 
L 301.572846 320.142675 
L 306.42713 301.27671 
L 311.281414 293.730323 
L 316.135699 342.781834 
L 320.989983 372.967378 
L 325.844268 339.00864 
L 330.698552 286.183937 
L 335.552837 399.37973 
L 340.407121 376.740571 
L 345.261406 346.555027 
L 350.11569 418.245695 
L 354.969975 323.915868 
L 359.824259 274.864358 
L 364.678544 331.462254 
L 369.532828 316.369482 
L 374.387113 320.142675 
L 379.241397 365.420992 
L 384.095682 335.235447 
L 388.949966 357.874606 
L 393.80425 384.286958 
L 398.658535 191.85411 
L 403.512819 365.420992 
L 408.367104 248.452006 
L 413.221388 267.317972 
L 418.075673 369.194185 
L 422.929957 391.833344 
L 427.784242 399.37973 
L 432.638526 357.874606 
L 437.492811 403.152923 
L 442.347095 365.420992 
L 447.20138 316.369482 
L 452.055664 414.472502 
L 456.909949 365.420992 
L 461.764233 331.462254 
L 466.618518 376.740571 
L 471.472802 414.472502 
L 476.327087 403.152923 
L 481.181371 395.606537 
L 486.035655 361.647799 
L 490.88994 380.513764 
L 495.744224 380.513764 
L 500.598509 414.472502 
L 505.452793 418.245695 
L 510.307078 384.286958 
L 515.161362 418.245695 
L 520.015647 350.32822 
L 524.869931 342.781834 
L 529.724216 339.00864 
L 534.5785 361.647799 
L 539.432785 414.472502 
L 544.287069 369.194185 
L 549.141354 399.37973 
L 553.995638 354.101413 
L 558.849923 376.740571 
L 563.704207 406.926116 
L 568.558491 376.740571 
L 573.412776 350.32822 
L 578.26706 365.420992 
L 583.121345 320.142675 
L 587.975629 406.926116 
L 592.829914 361.647799 
L 597.684198 403.152923 
L 602.538483 380.513764 
L 607.392767 384.286958 
L 612.247052 376.740571 
L 617.101336 403.152923 
L 621.955621 274.864358 
L 626.809905 369.194185 
L 631.66419 335.235447 
L 636.518474 274.864358 
L 641.372759 357.874606 
L 646.227043 354.101413 
L 651.081327 361.647799 
L 655.935612 350.32822 
L 660.789896 305.049903 
L 665.644181 391.833344 
L 670.498465 399.37973 
L 675.35275 422.018888 
L 680.207034 376.740571 
L 685.061319 376.740571 
L 689.915603 357.874606 
L 694.769888 335.235447 
L 699.624172 369.194185 
L 704.478457 391.833344 
L 709.332741 323.915868 
L 714.187026 422.018888 
L 719.04131 422.018888 
L 723.895595 376.740571 
L 728.749879 376.740571 
L 738.458448 346.555027 
L 743.312732 372.967378 
L 748.167017 240.90562 
L 753.021301 282.410744 
L 757.875586 418.245695 
L 762.72987 391.833344 
L 767.584155 395.606537 
L 772.438439 384.286958 
L 777.292724 376.740571 
L 782.147008 365.420992 
L 787.001293 361.647799 
L 791.855577 361.647799 
L 796.709862 403.152923 
L 801.564146 354.101413 
L 806.418431 365.420992 
L 811.272715 323.915868 
L 816.127 365.420992 
L 820.981284 380.513764 
L 825.835568 316.369482 
L 830.689853 346.555027 
L 835.544137 327.689061 
L 840.398422 403.152923 
L 845.252706 357.874606 
L 850.106991 331.462254 
L 854.961275 323.915868 
L 859.81556 372.967378 
L 864.669844 301.27671 
L 869.524129 301.27671 
L 874.378413 342.781834 
L 879.232698 342.781834 
L 884.086982 339.00864 
L 888.941267 331.462254 
L 893.795551 244.678813 
L 898.649836 203.173689 
L 903.50412 323.915868 
L 908.358404 252.225199 
L 913.212689 225.812848 
L 918.066973 248.452006 
L 922.921258 233.359234 
L 927.775542 233.359234 
L 932.629827 210.720075 
L 937.484111 229.586041 
L 942.338396 305.049903 
L 947.19268 335.235447 
L 952.046965 312.596289 
L 956.901249 271.091165 
L 961.755534 237.132427 
L 966.609818 142.8026 
L 971.464103 206.946882 
L 976.318387 248.452006 
L 981.172672 255.998392 
L 986.026956 195.627303 
L 990.88124 157.895372 
L 995.735525 293.730323 
L 1000.589809 157.895372 
L 1005.444094 274.864358 
L 1010.298378 222.039655 
L 1015.152663 286.183937 
L 1020.006947 210.720075 
L 1024.861232 180.534531 
L 1029.715516 191.85411 
L 1034.569801 123.936634 
L 1039.424085 63.565545 
L 1044.27837 86.204703 
L 1049.132654 89.977896 
L 1053.986939 86.204703 
L 1058.841223 218.266461 
L 1063.695508 218.266461 
L 1068.549792 263.544779 
L 1073.404077 199.400496 
L 1078.258361 176.761337 
L 1083.112645 131.48302 
L 1087.96693 233.359234 
L 1092.821214 33.38 
L 1097.675499 101.297476 
L 1102.529783 131.48302 
L 1107.384068 157.895372 
L 1112.238352 225.812848 
L 1112.238352 225.812848 
" style="fill:none;stroke:#ff7f0e;stroke-linecap:square;stroke-width:1.5;"/>
   </g>
   <g id="line2d_15">
    <defs>
     <path d="M 0 3 
C 0.795609 3 1.55874 2.683901 2.12132 2.12132 
C 2.683901 1.55874 3 0.795609 3 0 
C 3 -0.795609 2.683901 -1.55874 2.12132 -2.12132 
C 1.55874 -2.683901 0.795609 -3 0 -3 
C -0.795609 -3 -1.55874 -2.683901 -2.12132 -2.12132 
C -2.683901 -1.55874 -3 -0.795609 -3 0 
C -3 0.795609 -2.683901 1.55874 -2.12132 2.12132 
C -1.55874 2.683901 -0.795609 3 0 3 
z
" id="m32f5ebb3a4" style="stroke:#008000;"/>
    </defs>
    <g clip-path="url(#pc56ceb8333)">
     <use style="fill:#008000;stroke:#008000;" x="97.692898" xlink:href="#m32f5ebb3a4" y="419.085856"/>
     <use style="fill:#008000;stroke:#008000;" x="126.818605" xlink:href="#m32f5ebb3a4" y="475.437185"/>
     <use style="fill:#008000;stroke:#008000;" x="155.944311" xlink:href="#m32f5ebb3a4" y="335.430927"/>
     <use style="fill:#008000;stroke:#008000;" x="185.070018" xlink:href="#m32f5ebb3a4" y="405.543439"/>
     <use style="fill:#008000;stroke:#008000;" x="214.195725" xlink:href="#m32f5ebb3a4" y="303.226206"/>
     <use style="fill:#008000;stroke:#008000;" x="243.321432" xlink:href="#m32f5ebb3a4" y="385.933347"/>
     <use style="fill:#008000;stroke:#008000;" x="272.447139" xlink:href="#m32f5ebb3a4" y="297.674786"/>
     <use style="fill:#008000;stroke:#008000;" x="301.572846" xlink:href="#m32f5ebb3a4" y="338.420806"/>
     <use style="fill:#008000;stroke:#008000;" x="330.698552" xlink:href="#m32f5ebb3a4" y="320.746788"/>
     <use style="fill:#008000;stroke:#008000;" x="359.824259" xlink:href="#m32f5ebb3a4" y="388.964284"/>
     <use style="fill:#008000;stroke:#008000;" x="388.949966" xlink:href="#m32f5ebb3a4" y="301.645301"/>
     <use style="fill:#008000;stroke:#008000;" x="418.075673" xlink:href="#m32f5ebb3a4" y="294.317611"/>
     <use style="fill:#008000;stroke:#008000;" x="447.20138" xlink:href="#m32f5ebb3a4" y="368.232909"/>
     <use style="fill:#008000;stroke:#008000;" x="476.327087" xlink:href="#m32f5ebb3a4" y="437.320562"/>
     <use style="fill:#008000;stroke:#008000;" x="505.452793" xlink:href="#m32f5ebb3a4" y="394.487817"/>
     <use style="fill:#008000;stroke:#008000;" x="534.5785" xlink:href="#m32f5ebb3a4" y="364.074184"/>
     <use style="fill:#008000;stroke:#008000;" x="563.704207" xlink:href="#m32f5ebb3a4" y="384.094422"/>
     <use style="fill:#008000;stroke:#008000;" x="592.829914" xlink:href="#m32f5ebb3a4" y="428.595802"/>
     <use style="fill:#008000;stroke:#008000;" x="621.955621" xlink:href="#m32f5ebb3a4" y="382.705188"/>
     <use style="fill:#008000;stroke:#008000;" x="651.081327" xlink:href="#m32f5ebb3a4" y="354.210588"/>
     <use style="fill:#008000;stroke:#008000;" x="680.207034" xlink:href="#m32f5ebb3a4" y="442.213933"/>
     <use style="fill:#008000;stroke:#008000;" x="709.332741" xlink:href="#m32f5ebb3a4" y="422.33133"/>
     <use style="fill:#008000;stroke:#008000;" x="738.458448" xlink:href="#m32f5ebb3a4" y="373.720926"/>
     <use style="fill:#008000;stroke:#008000;" x="767.584155" xlink:href="#m32f5ebb3a4" y="416.127398"/>
     <use style="fill:#008000;stroke:#008000;" x="796.709862" xlink:href="#m32f5ebb3a4" y="367.749184"/>
     <use style="fill:#008000;stroke:#008000;" x="825.835568" xlink:href="#m32f5ebb3a4" y="412.89408"/>
     <use style="fill:#008000;stroke:#008000;" x="854.961275" xlink:href="#m32f5ebb3a4" y="359.846312"/>
     <use style="fill:#008000;stroke:#008000;" x="884.086982" xlink:href="#m32f5ebb3a4" y="356.22831"/>
     <use style="fill:#008000;stroke:#008000;" x="913.212689" xlink:href="#m32f5ebb3a4" y="247.257885"/>
     <use style="fill:#008000;stroke:#008000;" x="942.338396" xlink:href="#m32f5ebb3a4" y="221.670459"/>
     <use style="fill:#008000;stroke:#008000;" x="971.464103" xlink:href="#m32f5ebb3a4" y="174.814173"/>
     <use style="fill:#008000;stroke:#008000;" x="1000.589809" xlink:href="#m32f5ebb3a4" y="285.761241"/>
     <use style="fill:#008000;stroke:#008000;" x="1029.715516" xlink:href="#m32f5ebb3a4" y="168.565167"/>
     <use style="fill:#008000;stroke:#008000;" x="1058.841223" xlink:href="#m32f5ebb3a4" y="102.828579"/>
     <use style="fill:#008000;stroke:#008000;" x="1087.96693" xlink:href="#m32f5ebb3a4" y="167.814282"/>
    </g>
   </g>
   <g id="patch_3">
    <path d="M 46.965625 509.66 
L 46.965625 10.7 
" style="fill:none;stroke:#000000;stroke-linecap:square;stroke-linejoin:miter;stroke-width:0.8;"/>
   </g>
   <g id="patch_4">
    <path d="M 1162.965625 509.66 
L 1162.965625 10.7 
" style="fill:none;stroke:#000000;stroke-linecap:square;stroke-linejoin:miter;stroke-width:0.8;"/>
   </g>
   <g id="patch_5">
    <path d="M 46.965625 509.66 
L 1162.965625 509.66 
" style="fill:none;stroke:#000000;stroke-linecap:square;stroke-linejoin:miter;stroke-width:0.8;"/>
   </g>
   <g id="patch_6">
    <path d="M 46.965625 10.7 
L 1162.965625 10.7 
" style="fill:none;stroke:#000000;stroke-linecap:square;stroke-linejoin:miter;stroke-width:0.8;"/>
   </g>
   <g id="legend_1">
    <g id="patch_7">
     <path d="M 53.965625 62.734375 
L 201.740625 62.734375 
Q 203.740625 62.734375 203.740625 60.734375 
L 203.740625 17.7 
Q 203.740625 15.7 201.740625 15.7 
L 53.965625 15.7 
Q 51.965625 15.7 51.965625 17.7 
L 51.965625 60.734375 
Q 51.965625 62.734375 53.965625 62.734375 
z
" style="fill:#ffffff;opacity:0.8;stroke:#cccccc;stroke-linejoin:miter;"/>
    </g>
    <g id="line2d_16">
     <path d="M 55.965625 23.798437 
L 75.965625 23.798437 
" style="fill:none;stroke:#008000;stroke-dasharray:5.55,2.4;stroke-dashoffset:0;stroke-width:1.5;"/>
    </g>
    <g id="line2d_17"/>
    <g id="text_15">
     <!-- Predicated -->
     <defs>
      <path d="M 19.671875 64.796875 
L 19.671875 37.40625 
L 32.078125 37.40625 
Q 38.96875 37.40625 42.71875 40.96875 
Q 46.484375 44.53125 46.484375 51.125 
Q 46.484375 57.671875 42.71875 61.234375 
Q 38.96875 64.796875 32.078125 64.796875 
z
M 9.8125 72.90625 
L 32.078125 72.90625 
Q 44.34375 72.90625 50.609375 67.359375 
Q 56.890625 61.8125 56.890625 51.125 
Q 56.890625 40.328125 50.609375 34.8125 
Q 44.34375 29.296875 32.078125 29.296875 
L 19.671875 29.296875 
L 19.671875 0 
L 9.8125 0 
z
" id="DejaVuSans-50"/>
      <path d="M 41.109375 46.296875 
Q 39.59375 47.171875 37.8125 47.578125 
Q 36.03125 48 33.890625 48 
Q 26.265625 48 22.1875 43.046875 
Q 18.109375 38.09375 18.109375 28.8125 
L 18.109375 0 
L 9.078125 0 
L 9.078125 54.6875 
L 18.109375 54.6875 
L 18.109375 46.1875 
Q 20.953125 51.171875 25.484375 53.578125 
Q 30.03125 56 36.53125 56 
Q 37.453125 56 38.578125 55.875 
Q 39.703125 55.765625 41.0625 55.515625 
z
" id="DejaVuSans-72"/>
      <path d="M 45.40625 46.390625 
L 45.40625 75.984375 
L 54.390625 75.984375 
L 54.390625 0 
L 45.40625 0 
L 45.40625 8.203125 
Q 42.578125 3.328125 38.25 0.953125 
Q 33.9375 -1.421875 27.875 -1.421875 
Q 17.96875 -1.421875 11.734375 6.484375 
Q 5.515625 14.40625 5.515625 27.296875 
Q 5.515625 40.1875 11.734375 48.09375 
Q 17.96875 56 27.875 56 
Q 33.9375 56 38.25 53.625 
Q 42.578125 51.265625 45.40625 46.390625 
z
M 14.796875 27.296875 
Q 14.796875 17.390625 18.875 11.75 
Q 22.953125 6.109375 30.078125 6.109375 
Q 37.203125 6.109375 41.296875 11.75 
Q 45.40625 17.390625 45.40625 27.296875 
Q 45.40625 37.203125 41.296875 42.84375 
Q 37.203125 48.484375 30.078125 48.484375 
Q 22.953125 48.484375 18.875 42.84375 
Q 14.796875 37.203125 14.796875 27.296875 
z
" id="DejaVuSans-64"/>
      <path d="M 48.78125 52.59375 
L 48.78125 44.1875 
Q 44.96875 46.296875 41.140625 47.34375 
Q 37.3125 48.390625 33.40625 48.390625 
Q 24.65625 48.390625 19.8125 42.84375 
Q 14.984375 37.3125 14.984375 27.296875 
Q 14.984375 17.28125 19.8125 11.734375 
Q 24.65625 6.203125 33.40625 6.203125 
Q 37.3125 6.203125 41.140625 7.25 
Q 44.96875 8.296875 48.78125 10.40625 
L 48.78125 2.09375 
Q 45.015625 0.34375 40.984375 -0.53125 
Q 36.96875 -1.421875 32.421875 -1.421875 
Q 20.0625 -1.421875 12.78125 6.34375 
Q 5.515625 14.109375 5.515625 27.296875 
Q 5.515625 40.671875 12.859375 48.328125 
Q 20.21875 56 33.015625 56 
Q 37.15625 56 41.109375 55.140625 
Q 45.0625 54.296875 48.78125 52.59375 
z
" id="DejaVuSans-63"/>
      <path d="M 34.28125 27.484375 
Q 23.390625 27.484375 19.1875 25 
Q 14.984375 22.515625 14.984375 16.5 
Q 14.984375 11.71875 18.140625 8.90625 
Q 21.296875 6.109375 26.703125 6.109375 
Q 34.1875 6.109375 38.703125 11.40625 
Q 43.21875 16.703125 43.21875 25.484375 
L 43.21875 27.484375 
z
M 52.203125 31.203125 
L 52.203125 0 
L 43.21875 0 
L 43.21875 8.296875 
Q 40.140625 3.328125 35.546875 0.953125 
Q 30.953125 -1.421875 24.3125 -1.421875 
Q 15.921875 -1.421875 10.953125 3.296875 
Q 6 8.015625 6 15.921875 
Q 6 25.140625 12.171875 29.828125 
Q 18.359375 34.515625 30.609375 34.515625 
L 43.21875 34.515625 
L 43.21875 35.40625 
Q 43.21875 41.609375 39.140625 45 
Q 35.0625 48.390625 27.6875 48.390625 
Q 23 48.390625 18.546875 47.265625 
Q 14.109375 46.140625 10.015625 43.890625 
L 10.015625 52.203125 
Q 14.9375 54.109375 19.578125 55.046875 
Q 24.21875 56 28.609375 56 
Q 40.484375 56 46.34375 49.84375 
Q 52.203125 43.703125 52.203125 31.203125 
z
" id="DejaVuSans-61"/>
      <path d="M 18.3125 70.21875 
L 18.3125 54.6875 
L 36.8125 54.6875 
L 36.8125 47.703125 
L 18.3125 47.703125 
L 18.3125 18.015625 
Q 18.3125 11.328125 20.140625 9.421875 
Q 21.96875 7.515625 27.59375 7.515625 
L 36.8125 7.515625 
L 36.8125 0 
L 27.59375 0 
Q 17.1875 0 13.234375 3.875 
Q 9.28125 7.765625 9.28125 18.015625 
L 9.28125 47.703125 
L 2.6875 47.703125 
L 2.6875 54.6875 
L 9.28125 54.6875 
L 9.28125 70.21875 
z
" id="DejaVuSans-74"/>
     </defs>
     <g transform="translate(83.965625 27.298437)scale(0.1 -0.1)">
      <use xlink:href="#DejaVuSans-50"/>
      <use x="60.287109" xlink:href="#DejaVuSans-72"/>
      <use x="101.369141" xlink:href="#DejaVuSans-65"/>
      <use x="162.892578" xlink:href="#DejaVuSans-64"/>
      <use x="226.369141" xlink:href="#DejaVuSans-69"/>
      <use x="254.152344" xlink:href="#DejaVuSans-63"/>
      <use x="309.132812" xlink:href="#DejaVuSans-61"/>
      <use x="370.412109" xlink:href="#DejaVuSans-74"/>
      <use x="409.621094" xlink:href="#DejaVuSans-65"/>
      <use x="471.144531" xlink:href="#DejaVuSans-64"/>
     </g>
    </g>
    <g id="line2d_18">
     <path d="M 55.965625 38.476562 
L 75.965625 38.476562 
" style="fill:none;stroke:#ff7f0e;stroke-linecap:square;stroke-width:1.5;"/>
    </g>
    <g id="line2d_19"/>
    <g id="text_16">
     <!-- Real Data -->
     <defs>
      <path d="M 9.421875 75.984375 
L 18.40625 75.984375 
L 18.40625 0 
L 9.421875 0 
z
" id="DejaVuSans-6c"/>
      <path id="DejaVuSans-20"/>
      <path d="M 19.671875 64.796875 
L 19.671875 8.109375 
L 31.59375 8.109375 
Q 46.6875 8.109375 53.6875 14.9375 
Q 60.6875 21.78125 60.6875 36.53125 
Q 60.6875 51.171875 53.6875 57.984375 
Q 46.6875 64.796875 31.59375 64.796875 
z
M 9.8125 72.90625 
L 30.078125 72.90625 
Q 51.265625 72.90625 61.171875 64.09375 
Q 71.09375 55.28125 71.09375 36.53125 
Q 71.09375 17.671875 61.125 8.828125 
Q 51.171875 0 30.078125 0 
L 9.8125 0 
z
" id="DejaVuSans-44"/>
     </defs>
     <g transform="translate(83.965625 41.976562)scale(0.1 -0.1)">
      <use xlink:href="#DejaVuSans-52"/>
      <use x="69.419922" xlink:href="#DejaVuSans-65"/>
      <use x="130.943359" xlink:href="#DejaVuSans-61"/>
      <use x="192.222656" xlink:href="#DejaVuSans-6c"/>
      <use x="220.005859" xlink:href="#DejaVuSans-20"/>
      <use x="251.792969" xlink:href="#DejaVuSans-44"/>
      <use x="328.794922" xlink:href="#DejaVuSans-61"/>
      <use x="390.074219" xlink:href="#DejaVuSans-74"/>
      <use x="429.283203" xlink:href="#DejaVuSans-61"/>
     </g>
    </g>
    <g id="line2d_20"/>
    <g id="line2d_21">
     <g>
      <use style="fill:#008000;stroke:#008000;" x="65.965625" xlink:href="#m32f5ebb3a4" y="53.154688"/>
     </g>
    </g>
    <g id="text_17">
     <!-- Start Point for Forecast -->
     <defs>
      <path d="M 53.515625 70.515625 
L 53.515625 60.890625 
Q 47.90625 63.578125 42.921875 64.890625 
Q 37.9375 66.21875 33.296875 66.21875 
Q 25.25 66.21875 20.875 63.09375 
Q 16.5 59.96875 16.5 54.203125 
Q 16.5 49.359375 19.40625 46.890625 
Q 22.3125 44.4375 30.421875 42.921875 
L 36.375 41.703125 
Q 47.40625 39.59375 52.65625 34.296875 
Q 57.90625 29 57.90625 20.125 
Q 57.90625 9.515625 50.796875 4.046875 
Q 43.703125 -1.421875 29.984375 -1.421875 
Q 24.8125 -1.421875 18.96875 -0.25 
Q 13.140625 0.921875 6.890625 3.21875 
L 6.890625 13.375 
Q 12.890625 10.015625 18.65625 8.296875 
Q 24.421875 6.59375 29.984375 6.59375 
Q 38.421875 6.59375 43.015625 9.90625 
Q 47.609375 13.234375 47.609375 19.390625 
Q 47.609375 24.75 44.3125 27.78125 
Q 41.015625 30.8125 33.5 32.328125 
L 27.484375 33.5 
Q 16.453125 35.6875 11.515625 40.375 
Q 6.59375 45.0625 6.59375 53.421875 
Q 6.59375 63.09375 13.40625 68.65625 
Q 20.21875 74.21875 32.171875 74.21875 
Q 37.3125 74.21875 42.625 73.28125 
Q 47.953125 72.359375 53.515625 70.515625 
z
" id="DejaVuSans-53"/>
      <path d="M 30.609375 48.390625 
Q 23.390625 48.390625 19.1875 42.75 
Q 14.984375 37.109375 14.984375 27.296875 
Q 14.984375 17.484375 19.15625 11.84375 
Q 23.34375 6.203125 30.609375 6.203125 
Q 37.796875 6.203125 41.984375 11.859375 
Q 46.1875 17.53125 46.1875 27.296875 
Q 46.1875 37.015625 41.984375 42.703125 
Q 37.796875 48.390625 30.609375 48.390625 
z
M 30.609375 56 
Q 42.328125 56 49.015625 48.375 
Q 55.71875 40.765625 55.71875 27.296875 
Q 55.71875 13.875 49.015625 6.21875 
Q 42.328125 -1.421875 30.609375 -1.421875 
Q 18.84375 -1.421875 12.171875 6.21875 
Q 5.515625 13.875 5.515625 27.296875 
Q 5.515625 40.765625 12.171875 48.375 
Q 18.84375 56 30.609375 56 
z
" id="DejaVuSans-6f"/>
      <path d="M 54.890625 33.015625 
L 54.890625 0 
L 45.90625 0 
L 45.90625 32.71875 
Q 45.90625 40.484375 42.875 44.328125 
Q 39.84375 48.1875 33.796875 48.1875 
Q 26.515625 48.1875 22.3125 43.546875 
Q 18.109375 38.921875 18.109375 30.90625 
L 18.109375 0 
L 9.078125 0 
L 9.078125 54.6875 
L 18.109375 54.6875 
L 18.109375 46.1875 
Q 21.34375 51.125 25.703125 53.5625 
Q 30.078125 56 35.796875 56 
Q 45.21875 56 50.046875 50.171875 
Q 54.890625 44.34375 54.890625 33.015625 
z
" id="DejaVuSans-6e"/>
      <path d="M 9.8125 72.90625 
L 51.703125 72.90625 
L 51.703125 64.59375 
L 19.671875 64.59375 
L 19.671875 43.109375 
L 48.578125 43.109375 
L 48.578125 34.8125 
L 19.671875 34.8125 
L 19.671875 0 
L 9.8125 0 
z
" id="DejaVuSans-46"/>
     </defs>
     <g transform="translate(83.965625 56.654688)scale(0.1 -0.1)">
      <use xlink:href="#DejaVuSans-53"/>
      <use x="63.476562" xlink:href="#DejaVuSans-74"/>
      <use x="102.685547" xlink:href="#DejaVuSans-61"/>
      <use x="163.964844" xlink:href="#DejaVuSans-72"/>
      <use x="205.078125" xlink:href="#DejaVuSans-74"/>
      <use x="244.287109" xlink:href="#DejaVuSans-20"/>
      <use x="276.074219" xlink:href="#DejaVuSans-50"/>
      <use x="336.330078" xlink:href="#DejaVuSans-6f"/>
      <use x="397.511719" xlink:href="#DejaVuSans-69"/>
      <use x="425.294922" xlink:href="#DejaVuSans-6e"/>
      <use x="488.673828" xlink:href="#DejaVuSans-74"/>
      <use x="527.882812" xlink:href="#DejaVuSans-20"/>
      <use x="559.669922" xlink:href="#DejaVuSans-66"/>
      <use x="594.875" xlink:href="#DejaVuSans-6f"/>
      <use x="656.056641" xlink:href="#DejaVuSans-72"/>
      <use x="697.169922" xlink:href="#DejaVuSans-20"/>
      <use x="728.957031" xlink:href="#DejaVuSans-46"/>
      <use x="786.429688" xlink:href="#DejaVuSans-6f"/>
      <use x="847.611328" xlink:href="#DejaVuSans-72"/>
      <use x="888.693359" xlink:href="#DejaVuSans-65"/>
      <use x="950.216797" xlink:href="#DejaVuSans-63"/>
      <use x="1005.197266" xlink:href="#DejaVuSans-61"/>
      <use x="1066.476562" xlink:href="#DejaVuSans-73"/>
      <use x="1118.576172" xlink:href="#DejaVuSans-74"/>
     </g>
    </g>
   </g>
  </g>
  <g id="axes_2">
   <g id="patch_8">
    <path d="M 46.965625 645.74 
L 1164.405625 645.74 
L 1164.405625 516.14 
L 46.965625 516.14 
z
" style="fill:none;"/>
   </g>
   <g id="matplotlib.axis_3">
    <g id="xtick_6">
     <g id="line2d_22">
      <g>
       <use style="stroke:#000000;stroke-width:0.8;" x="97.758352" xlink:href="#meaa8bb620d" y="645.74"/>
      </g>
     </g>
     <g id="text_18">
      <!-- 0 -->
      <g transform="translate(94.577102 660.338437)scale(0.1 -0.1)">
       <use xlink:href="#DejaVuSans-30"/>
      </g>
     </g>
    </g>
    <g id="xtick_7">
     <g id="line2d_23">
      <g>
       <use style="stroke:#000000;stroke-width:0.8;" x="222.250331" xlink:href="#meaa8bb620d" y="645.74"/>
      </g>
     </g>
     <g id="text_19">
      <!-- 25 -->
      <g transform="translate(215.887831 660.338437)scale(0.1 -0.1)">
       <use xlink:href="#DejaVuSans-32"/>
       <use x="63.623047" xlink:href="#DejaVuSans-35"/>
      </g>
     </g>
    </g>
    <g id="xtick_8">
     <g id="line2d_24">
      <g>
       <use style="stroke:#000000;stroke-width:0.8;" x="346.742309" xlink:href="#meaa8bb620d" y="645.74"/>
      </g>
     </g>
     <g id="text_20">
      <!-- 50 -->
      <g transform="translate(340.379809 660.338437)scale(0.1 -0.1)">
       <use xlink:href="#DejaVuSans-35"/>
       <use x="63.623047" xlink:href="#DejaVuSans-30"/>
      </g>
     </g>
    </g>
    <g id="xtick_9">
     <g id="line2d_25">
      <g>
       <use style="stroke:#000000;stroke-width:0.8;" x="471.234288" xlink:href="#meaa8bb620d" y="645.74"/>
      </g>
     </g>
     <g id="text_21">
      <!-- 75 -->
      <defs>
       <path d="M 8.203125 72.90625 
L 55.078125 72.90625 
L 55.078125 68.703125 
L 28.609375 0 
L 18.3125 0 
L 43.21875 64.59375 
L 8.203125 64.59375 
z
" id="DejaVuSans-37"/>
      </defs>
      <g transform="translate(464.871788 660.338437)scale(0.1 -0.1)">
       <use xlink:href="#DejaVuSans-37"/>
       <use x="63.623047" xlink:href="#DejaVuSans-35"/>
      </g>
     </g>
    </g>
    <g id="xtick_10">
     <g id="line2d_26">
      <g>
       <use style="stroke:#000000;stroke-width:0.8;" x="595.726267" xlink:href="#meaa8bb620d" y="645.74"/>
      </g>
     </g>
     <g id="text_22">
      <!-- 100 -->
      <g transform="translate(586.182517 660.338437)scale(0.1 -0.1)">
       <use xlink:href="#DejaVuSans-31"/>
       <use x="63.623047" xlink:href="#DejaVuSans-30"/>
       <use x="127.246094" xlink:href="#DejaVuSans-30"/>
      </g>
     </g>
    </g>
    <g id="xtick_11">
     <g id="line2d_27">
      <g>
       <use style="stroke:#000000;stroke-width:0.8;" x="720.218245" xlink:href="#meaa8bb620d" y="645.74"/>
      </g>
     </g>
     <g id="text_23">
      <!-- 125 -->
      <g transform="translate(710.674495 660.338437)scale(0.1 -0.1)">
       <use xlink:href="#DejaVuSans-31"/>
       <use x="63.623047" xlink:href="#DejaVuSans-32"/>
       <use x="127.246094" xlink:href="#DejaVuSans-35"/>
      </g>
     </g>
    </g>
    <g id="xtick_12">
     <g id="line2d_28">
      <g>
       <use style="stroke:#000000;stroke-width:0.8;" x="844.710224" xlink:href="#meaa8bb620d" y="645.74"/>
      </g>
     </g>
     <g id="text_24">
      <!-- 150 -->
      <g transform="translate(835.166474 660.338437)scale(0.1 -0.1)">
       <use xlink:href="#DejaVuSans-31"/>
       <use x="63.623047" xlink:href="#DejaVuSans-35"/>
       <use x="127.246094" xlink:href="#DejaVuSans-30"/>
      </g>
     </g>
    </g>
    <g id="xtick_13">
     <g id="line2d_29">
      <g>
       <use style="stroke:#000000;stroke-width:0.8;" x="969.202203" xlink:href="#meaa8bb620d" y="645.74"/>
      </g>
     </g>
     <g id="text_25">
      <!-- 175 -->
      <g transform="translate(959.658453 660.338437)scale(0.1 -0.1)">
       <use xlink:href="#DejaVuSans-31"/>
       <use x="63.623047" xlink:href="#DejaVuSans-37"/>
       <use x="127.246094" xlink:href="#DejaVuSans-35"/>
      </g>
     </g>
    </g>
    <g id="xtick_14">
     <g id="line2d_30">
      <g>
       <use style="stroke:#000000;stroke-width:0.8;" x="1093.694181" xlink:href="#meaa8bb620d" y="645.74"/>
      </g>
     </g>
     <g id="text_26">
      <!-- 200 -->
      <g transform="translate(1084.150431 660.338437)scale(0.1 -0.1)">
       <use xlink:href="#DejaVuSans-32"/>
       <use x="63.623047" xlink:href="#DejaVuSans-30"/>
       <use x="127.246094" xlink:href="#DejaVuSans-30"/>
      </g>
     </g>
    </g>
   </g>
   <g id="matplotlib.axis_4">
    <g id="ytick_8">
     <g id="line2d_31">
      <g>
       <use style="stroke:#000000;stroke-width:0.8;" x="46.965625" xlink:href="#m00127c54ec" y="629.95797"/>
      </g>
     </g>
     <g id="text_27">
      <!-- 0 -->
      <g transform="translate(33.603125 633.757189)scale(0.1 -0.1)">
       <use xlink:href="#DejaVuSans-30"/>
      </g>
     </g>
    </g>
    <g id="ytick_9">
     <g id="line2d_32">
      <g>
       <use style="stroke:#000000;stroke-width:0.8;" x="46.965625" xlink:href="#m00127c54ec" y="600.743567"/>
      </g>
     </g>
     <g id="text_28">
      <!-- 10 -->
      <g transform="translate(27.240625 604.542786)scale(0.1 -0.1)">
       <use xlink:href="#DejaVuSans-31"/>
       <use x="63.623047" xlink:href="#DejaVuSans-30"/>
      </g>
     </g>
    </g>
    <g id="ytick_10">
     <g id="line2d_33">
      <g>
       <use style="stroke:#000000;stroke-width:0.8;" x="46.965625" xlink:href="#m00127c54ec" y="571.529164"/>
      </g>
     </g>
     <g id="text_29">
      <!-- 20 -->
      <g transform="translate(27.240625 575.328383)scale(0.1 -0.1)">
       <use xlink:href="#DejaVuSans-32"/>
       <use x="63.623047" xlink:href="#DejaVuSans-30"/>
      </g>
     </g>
    </g>
    <g id="ytick_11">
     <g id="line2d_34">
      <g>
       <use style="stroke:#000000;stroke-width:0.8;" x="46.965625" xlink:href="#m00127c54ec" y="542.314761"/>
      </g>
     </g>
     <g id="text_30">
      <!-- 30 -->
      <defs>
       <path d="M 40.578125 39.3125 
Q 47.65625 37.796875 51.625 33 
Q 55.609375 28.21875 55.609375 21.1875 
Q 55.609375 10.40625 48.1875 4.484375 
Q 40.765625 -1.421875 27.09375 -1.421875 
Q 22.515625 -1.421875 17.65625 -0.515625 
Q 12.796875 0.390625 7.625 2.203125 
L 7.625 11.71875 
Q 11.71875 9.328125 16.59375 8.109375 
Q 21.484375 6.890625 26.8125 6.890625 
Q 36.078125 6.890625 40.9375 10.546875 
Q 45.796875 14.203125 45.796875 21.1875 
Q 45.796875 27.640625 41.28125 31.265625 
Q 36.765625 34.90625 28.71875 34.90625 
L 20.21875 34.90625 
L 20.21875 43.015625 
L 29.109375 43.015625 
Q 36.375 43.015625 40.234375 45.921875 
Q 44.09375 48.828125 44.09375 54.296875 
Q 44.09375 59.90625 40.109375 62.90625 
Q 36.140625 65.921875 28.71875 65.921875 
Q 24.65625 65.921875 20.015625 65.03125 
Q 15.375 64.15625 9.8125 62.3125 
L 9.8125 71.09375 
Q 15.4375 72.65625 20.34375 73.4375 
Q 25.25 74.21875 29.59375 74.21875 
Q 40.828125 74.21875 47.359375 69.109375 
Q 53.90625 64.015625 53.90625 55.328125 
Q 53.90625 49.265625 50.4375 45.09375 
Q 46.96875 40.921875 40.578125 39.3125 
z
" id="DejaVuSans-33"/>
      </defs>
      <g transform="translate(27.240625 546.11398)scale(0.1 -0.1)">
       <use xlink:href="#DejaVuSans-33"/>
       <use x="63.623047" xlink:href="#DejaVuSans-30"/>
      </g>
     </g>
    </g>
    <g id="text_31">
     <!-- Temperature -->
     <defs>
      <path d="M 18.109375 8.203125 
L 18.109375 -20.796875 
L 9.078125 -20.796875 
L 9.078125 54.6875 
L 18.109375 54.6875 
L 18.109375 46.390625 
Q 20.953125 51.265625 25.265625 53.625 
Q 29.59375 56 35.59375 56 
Q 45.5625 56 51.78125 48.09375 
Q 58.015625 40.1875 58.015625 27.296875 
Q 58.015625 14.40625 51.78125 6.484375 
Q 45.5625 -1.421875 35.59375 -1.421875 
Q 29.59375 -1.421875 25.265625 0.953125 
Q 20.953125 3.328125 18.109375 8.203125 
z
M 48.6875 27.296875 
Q 48.6875 37.203125 44.609375 42.84375 
Q 40.53125 48.484375 33.40625 48.484375 
Q 26.265625 48.484375 22.1875 42.84375 
Q 18.109375 37.203125 18.109375 27.296875 
Q 18.109375 17.390625 22.1875 11.75 
Q 26.265625 6.109375 33.40625 6.109375 
Q 40.53125 6.109375 44.609375 11.75 
Q 48.6875 17.390625 48.6875 27.296875 
z
" id="DejaVuSans-70"/>
     </defs>
     <g style="fill:#0000ff;" transform="translate(21.160938 613.557187)rotate(-90)scale(0.1 -0.1)">
      <use xlink:href="#DejaVuSans-54"/>
      <use x="60.818359" xlink:href="#DejaVuSans-65"/>
      <use x="122.341797" xlink:href="#DejaVuSans-6d"/>
      <use x="219.753906" xlink:href="#DejaVuSans-70"/>
      <use x="283.230469" xlink:href="#DejaVuSans-65"/>
      <use x="344.753906" xlink:href="#DejaVuSans-72"/>
      <use x="385.867188" xlink:href="#DejaVuSans-61"/>
      <use x="447.146484" xlink:href="#DejaVuSans-74"/>
      <use x="486.355469" xlink:href="#DejaVuSans-75"/>
      <use x="549.734375" xlink:href="#DejaVuSans-72"/>
      <use x="590.816406" xlink:href="#DejaVuSans-65"/>
     </g>
    </g>
   </g>
   <g id="line2d_35">
    <path clip-path="url(#p73ca944e86)" d="M 97.758352 527.690908 
L 102.738031 524.471772 
L 107.717711 532.15779 
L 112.69739 544.309521 
L 117.677069 561.824724 
L 122.656748 574.778975 
L 127.636427 588.329491 
L 132.616106 583.007795 
L 137.595785 576.349541 
L 142.575465 551.15241 
L 147.555144 541.200816 
L 152.534823 528.60152 
L 157.514502 523.335916 
L 162.494181 524.976889 
L 167.47386 533.248948 
L 172.453539 551.617212 
L 177.433219 564.870325 
L 182.412898 580.467895 
L 187.392577 581.489523 
L 192.372256 579.275948 
L 197.351935 555.087298 
L 202.331614 550.350767 
L 207.311293 540.677878 
L 212.290973 527.449304 
L 217.270652 525.498951 
L 222.250331 524.207674 
L 227.23001 532.625512 
L 232.209689 545.786309 
L 237.189368 565.596011 
L 242.169047 579.047783 
L 247.148727 591.001148 
L 252.128406 574.464628 
L 257.108085 564.336286 
L 262.087764 558.429134 
L 267.067443 544.315071 
L 272.047122 531.56649 
L 277.026801 525.602954 
L 282.006481 526.196591 
L 286.98616 531.211827 
L 291.965839 539.490605 
L 296.945518 563.259151 
L 301.925197 583.424101 
L 306.904876 579.896754 
L 311.884555 587.270469 
L 316.864235 578.151193 
L 321.843914 555.40632 
L 326.823593 536.391249 
L 331.803272 530.528795 
L 336.782951 525.322788 
L 341.76263 522.960804 
L 346.742309 534.301835 
L 351.721989 543.261892 
L 361.681347 583.975376 
L 366.661026 586.347294 
L 371.640705 581.561975 
L 376.620384 562.456047 
L 381.600064 554.043176 
L 386.579743 541.044227 
L 391.559422 531.457813 
L 396.539101 522.712773 
L 401.51878 527.645041 
L 406.498459 529.918798 
L 411.478138 541.732518 
L 416.457818 566.897221 
L 421.437497 585.610799 
L 426.417176 584.704568 
L 431.396855 584.85064 
L 436.376534 568.016132 
L 441.356213 554.082907 
L 451.315572 532.992737 
L 456.295251 524.619597 
L 461.27493 524.544808 
L 466.254609 533.737413 
L 471.234288 547.786619 
L 476.213967 567.225298 
L 481.193646 571.888209 
L 486.173326 584.893293 
L 491.153005 578.117012 
L 496.132684 565.043859 
L 501.112363 555.713947 
L 506.092042 538.724019 
L 511.071721 529.992126 
L 516.0514 527.211791 
L 521.03108 523.216722 
L 526.010759 530.115995 
L 530.990438 547.122283 
L 535.970117 570.004465 
L 540.949796 585.417692 
L 545.929475 586.609055 
L 550.909154 580.036106 
L 555.888834 571.367609 
L 560.868513 558.934251 
L 565.848192 535.953909 
L 570.827871 528.673972 
L 575.80755 525.068331 
L 580.787229 525.247123 
L 585.766908 531.415744 
L 590.746588 541.052407 
L 595.726267 562.975187 
L 600.705946 580.562258 
L 605.685625 594.697355 
L 610.665304 582.760057 
L 615.644983 556.411003 
L 620.624662 546.382575 
L 625.604342 541.745665 
L 630.584021 528.129124 
L 635.5637 525.188986 
L 640.543379 525.076218 
L 645.523058 530.97782 
L 650.502737 548.100966 
L 655.482416 562.844014 
L 660.462096 576.930907 
L 665.441775 582.363326 
L 670.421454 578.027908 
L 675.401133 572.937883 
L 680.380812 557.855363 
L 685.360491 543.297534 
L 690.34017 528.245689 
L 695.31985 527.772124 
L 700.299529 525.461849 
L 705.279208 535.913301 
L 710.258887 540.452051 
L 715.238566 566.765756 
L 720.218245 575.533583 
L 725.197924 575.286137 
L 730.177604 572.064956 
L 735.157283 561.559749 
L 740.136962 549.051603 
L 745.116641 537.539083 
L 750.09632 530.966134 
L 755.075999 525.094039 
L 760.055678 523.492506 
L 765.035358 527.46917 
L 770.015037 538.05238 
L 774.994716 551.701057 
L 779.974395 573.805843 
L 784.954074 582.8626 
L 789.933753 580.951101 
L 794.913432 569.160753 
L 799.893112 556.965492 
L 804.872791 543.550238 
L 809.85247 532.804305 
L 814.832149 524.379163 
L 819.811828 528.300612 
L 824.791507 532.678975 
L 829.771186 547.611333 
L 834.750866 573.679344 
L 839.730545 579.786323 
L 844.710224 589.197451 
L 849.689903 583.892115 
L 854.669582 575.297238 
L 859.649261 548.740761 
L 864.628941 538.892586 
L 869.60862 530.804871 
L 874.588299 522.030909 
L 879.567978 527.47326 
L 884.547657 530.249213 
L 889.527336 541.605143 
L 894.507015 562.431799 
L 899.486695 577.493285 
L 904.466374 584.061851 
L 909.446053 574.888821 
L 914.425732 562.346785 
L 919.405411 555.148356 
L 924.38509 540.201391 
L 929.364769 532.533779 
L 934.344449 526.938637 
L 939.324128 528.164765 
L 944.303807 533.306208 
L 949.283486 549.449211 
L 954.263165 560.256203 
L 959.242844 585.449827 
L 964.222523 580.836581 
L 969.202203 575.814041 
L 974.181882 563.988927 
L 979.161561 547.569264 
L 984.14124 540.540571 
L 989.120919 531.1645 
L 994.100598 525.449579 
L 999.080277 523.532822 
L 1004.059957 534.782704 
L 1009.039636 546.926547 
L 1014.019315 567.230265 
L 1018.998994 574.599014 
L 1023.978673 585.923977 
L 1028.958352 579.311297 
L 1033.938031 566.427745 
L 1038.917711 555.972203 
L 1043.89739 537.46371 
L 1048.877069 533.970836 
L 1053.856748 522.084956 
L 1058.836427 524.047579 
L 1063.816106 527.265838 
L 1068.795785 542.466092 
L 1073.775465 565.822423 
L 1078.755144 585.387309 
L 1083.734823 589.456291 
L 1088.714502 573.193509 
L 1093.694181 567.106396 
L 1098.67386 545.547627 
L 1103.653539 541.514579 
L 1108.633219 529.583124 
L 1113.612898 524.051669 
L 1113.612898 524.051669 
" style="fill:none;stroke:#ff0000;stroke-linecap:square;stroke-width:1.5;"/>
   </g>
   <g id="line2d_36">
    <path clip-path="url(#p73ca944e86)" d="M 97.758352 549.980036 
L 102.738031 547.247029 
L 107.717711 554.757176 
L 112.69739 565.63808 
L 117.677069 583.201779 
L 122.656748 594.96788 
L 127.636427 605.03677 
L 132.616106 600.526212 
L 137.595785 593.122114 
L 142.575465 571.613302 
L 147.555144 563.95124 
L 152.534823 551.758317 
L 157.514502 544.376422 
L 162.494181 547.545308 
L 167.47386 555.459782 
L 172.453539 571.387182 
L 177.433219 585.484593 
L 182.412898 597.581985 
L 187.392577 600.948068 
L 192.372256 596.846074 
L 197.351935 577.659515 
L 202.331614 572.288447 
L 207.311293 562.849565 
L 212.290973 552.468811 
L 217.270652 547.611333 
L 222.250331 548.448909 
L 227.23001 554.760973 
L 232.209689 566.570312 
L 237.189368 586.166457 
L 247.148727 606.432663 
L 252.128406 593.366638 
L 257.108085 583.786651 
L 262.087764 577.91777 
L 267.067443 565.761949 
L 272.047122 555.992945 
L 277.026801 546.769373 
L 282.006481 548.913711 
L 286.98616 555.576347 
L 291.965839 561.274617 
L 296.945518 582.605805 
L 301.925197 598.344481 
L 306.904876 597.814823 
L 311.884555 601.379127 
L 316.864235 595.546033 
L 321.843914 574.97588 
L 326.823593 558.652624 
L 331.803272 554.805964 
L 336.782951 550.330317 
L 341.76263 547.032303 
L 346.742309 556.336214 
L 351.721989 565.014937 
L 356.701668 582.65547 
L 361.681347 598.756112 
L 366.661026 601.796601 
L 371.640705 597.54459 
L 376.620384 581.34608 
L 381.600064 574.162843 
L 386.579743 563.403178 
L 391.559422 553.595903 
L 396.539101 547.454451 
L 401.51878 551.251739 
L 406.498459 552.951725 
L 411.478138 562.591894 
L 416.457818 583.956971 
L 421.437497 603.021502 
L 426.417176 601.605129 
L 431.396855 599.783582 
L 436.376534 587.481689 
L 441.356213 574.135673 
L 446.335892 564.806638 
L 451.315572 554.799829 
L 456.295251 548.258139 
L 461.27493 546.918367 
L 466.254609 555.57401 
L 471.234288 568.983421 
L 476.213967 587.385866 
L 481.193646 591.993562 
L 486.173326 601.263584 
L 491.153005 595.06867 
L 496.132684 586.301427 
L 501.112363 575.808198 
L 506.092042 561.376575 
L 511.071721 552.289727 
L 521.03108 547.337301 
L 526.010759 552.547982 
L 530.990438 567.196961 
L 535.970117 589.549485 
L 540.949796 605.341914 
L 545.929475 604.104538 
L 550.909154 596.538154 
L 555.888834 590.233686 
L 560.868513 578.621837 
L 565.848192 558.878159 
L 570.827871 552.339684 
L 575.80755 547.630906 
L 580.787229 548.595566 
L 585.766908 553.370952 
L 590.746588 561.631325 
L 595.726267 583.006627 
L 600.705946 599.347995 
L 605.685625 611.266858 
L 610.665304 600.815815 
L 615.644983 578.17398 
L 620.624662 568.742695 
L 625.604342 564.495213 
L 630.584021 551.582154 
L 635.5637 548.396324 
L 640.543379 546.411497 
L 645.523058 552.157678 
L 650.502737 567.799069 
L 655.482416 582.136038 
L 660.462096 595.918809 
L 665.441775 601.502879 
L 670.421454 595.848986 
L 675.401133 590.80249 
L 680.380812 574.455863 
L 685.360491 562.019584 
L 690.34017 550.358655 
L 695.31985 548.760627 
L 700.299529 548.966004 
L 705.279208 556.14486 
L 710.258887 560.87175 
L 715.238566 585.01687 
L 720.218245 592.26993 
L 725.197924 593.323693 
L 730.177604 589.753693 
L 735.157283 580.113525 
L 740.136962 570.177706 
L 745.116641 558.788179 
L 750.09632 551.082004 
L 755.075999 546.752721 
L 760.055678 546.935896 
L 765.035358 550.057455 
L 770.015037 558.64123 
L 774.994716 574.676724 
L 779.974395 593.540756 
L 784.954074 598.882902 
L 789.933753 596.157783 
L 794.913432 588.572847 
L 799.893112 576.672944 
L 804.872791 563.698244 
L 809.85247 552.936242 
L 814.832149 546.090139 
L 819.811828 548.910205 
L 824.791507 553.127012 
L 829.771186 567.856037 
L 834.750866 593.007886 
L 839.730545 600.195797 
L 844.710224 604.750323 
L 849.689903 600.199303 
L 854.669582 592.600929 
L 859.649261 569.965609 
L 864.628941 560.605899 
L 869.60862 554.773828 
L 874.588299 544.621238 
L 879.567978 547.084597 
L 884.547657 550.476681 
L 889.527336 561.137309 
L 894.507015 578.375268 
L 899.486695 593.413089 
L 904.466374 599.985161 
L 909.446053 592.605603 
L 914.425732 582.404518 
L 919.405411 575.298114 
L 924.38509 560.382993 
L 929.364769 554.251474 
L 934.344449 548.500035 
L 939.324128 549.275677 
L 944.303807 554.633306 
L 949.283486 570.864245 
L 954.263165 578.372054 
L 959.242844 601.010003 
L 964.222523 598.473316 
L 969.202203 594.210643 
L 974.181882 582.351932 
L 979.161561 568.940184 
L 984.14124 560.820333 
L 989.120919 556.811825 
L 994.100598 549.140999 
L 999.080277 545.640529 
L 1004.059957 554.846279 
L 1009.039636 566.576154 
L 1014.019315 584.798054 
L 1018.998994 591.629258 
L 1023.978673 602.004753 
L 1028.958352 596.556851 
L 1033.938031 585.715094 
L 1038.917711 576.55784 
L 1043.89739 558.382975 
L 1048.877069 555.185167 
L 1053.856748 546.785149 
L 1058.836427 545.213706 
L 1063.816106 547.391932 
L 1068.795785 561.15513 
L 1073.775465 580.632957 
L 1078.755144 600.796475 
L 1083.734823 604.000973 
L 1088.714502 591.288034 
L 1093.694181 584.013647 
L 1098.67386 567.330178 
L 1103.653539 562.994176 
L 1108.633219 549.7843 
L 1113.612898 546.470802 
L 1113.612898 546.470802 
" style="fill:none;stroke:#008000;stroke-linecap:square;stroke-width:1.5;"/>
   </g>
   <g id="line2d_37">
    <path clip-path="url(#p73ca944e86)" d="M 97.758352 569.191428 
L 102.738031 567.331639 
L 107.717711 575.365015 
L 112.69739 584.440178 
L 117.677069 601.256455 
L 122.656748 613.243125 
L 127.636427 618.370574 
L 132.616106 616.667053 
L 137.595785 610.428726 
L 142.575465 591.982752 
L 147.555144 587.013967 
L 152.534823 575.956315 
L 157.514502 562.813339 
L 162.494181 568.201644 
L 167.47386 575.362386 
L 172.453539 588.604106 
L 177.433219 603.174206 
L 182.412898 610.733608 
L 187.392577 616.432666 
L 192.372256 614.21985 
L 197.351935 598.360256 
L 202.331614 592.467127 
L 207.311293 584.420896 
L 212.290973 574.799425 
L 217.270652 569.065806 
L 222.250331 568.149058 
L 227.23001 574.797672 
L 232.209689 585.902066 
L 237.189368 603.751687 
L 242.169047 610.946873 
L 247.148727 620.307577 
L 252.128406 612.651679 
L 257.108085 601.641092 
L 262.087764 596.858636 
L 267.067443 587.682976 
L 272.047122 576.569525 
L 277.026801 566.827983 
L 282.006481 569.584946 
L 286.98616 575.089816 
L 291.965839 580.10739 
L 296.945518 599.415188 
L 301.925197 610.969193 
L 306.904876 613.422326 
L 311.884555 613.377511 
L 316.864235 611.084005 
L 321.843914 595.944225 
L 326.823593 577.010371 
L 331.803272 574.844707 
L 336.782951 570.515425 
L 341.76263 566.99246 
L 346.742309 577.62621 
L 351.721989 585.040241 
L 356.701668 600.271171 
L 361.681347 613.587095 
L 366.661026 615.406276 
L 371.640705 613.610467 
L 376.620384 603.43956 
L 381.600064 594.931362 
L 386.579743 585.36569 
L 391.559422 576.408846 
L 396.539101 567.876488 
L 401.51878 569.50519 
L 406.498459 576.597571 
L 411.478138 581.438982 
L 416.457818 599.179136 
L 421.437497 619.190126 
L 426.417176 616.467051 
L 431.396855 612.761789 
L 436.376534 605.151144 
L 441.356213 592.609985 
L 446.335892 585.185729 
L 451.315572 575.677025 
L 456.295251 566.917379 
L 461.27493 567.567691 
L 466.254609 576.023508 
L 471.234288 588.038516 
L 476.213967 605.514279 
L 481.193646 609.936171 
L 486.173326 616.766207 
L 491.153005 610.824874 
L 496.132684 606.002744 
L 501.112363 595.135863 
L 511.071721 572.449126 
L 516.0514 571.373159 
L 521.03108 566.650943 
L 526.010759 573.949285 
L 530.990438 585.476705 
L 535.970117 607.221569 
L 540.949796 621.869788 
L 545.929475 619.739064 
L 550.909154 611.113804 
L 555.888834 608.152048 
L 560.868513 598.103754 
L 565.848192 578.208745 
L 570.827871 573.812854 
L 575.80755 567.540814 
L 580.787229 567.645109 
L 585.766908 573.101191 
L 590.746588 581.107106 
L 595.726267 601.147603 
L 600.705946 616.385835 
L 605.685625 625.241889 
L 610.665304 617.959031 
L 615.644983 599.485011 
L 620.624662 591.390576 
L 625.604342 587.093722 
L 630.584021 572.994851 
L 635.5637 569.125111 
L 640.543379 566.164524 
L 645.523058 571.695394 
L 650.502737 585.891549 
L 655.482416 600.789434 
L 660.462096 612.975054 
L 665.441775 618.750741 
L 670.421454 612.824892 
L 675.401133 607.915119 
L 685.360491 586.051644 
L 690.34017 571.260392 
L 695.31985 567.416653 
L 700.299529 567.555713 
L 705.279208 575.227708 
L 710.258887 579.845921 
L 715.238566 601.861603 
L 720.218245 607.43834 
L 725.197924 609.485101 
L 730.177604 605.440075 
L 735.157283 597.800508 
L 740.136962 592.155117 
L 745.116641 580.971552 
L 750.09632 570.634619 
L 755.075999 565.665542 
L 760.055678 560.512121 
L 765.035358 568.670535 
L 770.015037 578.579184 
L 774.994716 597.04035 
L 779.974395 611.210124 
L 784.954074 613.420281 
L 789.933753 610.061209 
L 794.913432 607.156713 
L 799.893112 596.004991 
L 804.872791 583.694626 
L 809.85247 574.998667 
L 814.832149 565.926134 
L 819.811828 566.68863 
L 824.791507 572.856959 
L 829.771186 586.412734 
L 834.750866 606.939942 
L 839.730545 615.845573 
L 844.710224 619.834596 
L 849.689903 614.645416 
L 854.669582 610.300183 
L 859.649261 592.496926 
L 864.628941 580.292317 
L 869.60862 569.746501 
L 874.588299 564.224979 
L 879.567978 566.617639 
L 884.547657 572.075182 
L 889.527336 580.526032 
L 894.507015 594.956194 
L 899.486695 609.861675 
L 904.466374 614.193236 
L 909.446053 608.81317 
L 914.425732 602.102037 
L 919.405411 596.123602 
L 924.38509 579.969498 
L 929.364769 573.910138 
L 934.344449 570.207505 
L 939.324128 568.824495 
L 944.303807 575.988159 
L 949.283486 592.486701 
L 954.263165 596.712564 
L 959.242844 616.403948 
L 964.222523 615.245305 
L 969.202203 614.260487 
L 974.181882 601.508693 
L 979.161561 591.497793 
L 984.14124 582.32301 
L 989.120919 576.182727 
L 994.100598 569.339837 
L 999.080277 566.369024 
L 1004.059957 574.526562 
L 1009.039636 585.874897 
L 1014.019315 601.421049 
L 1018.998994 607.482162 
L 1023.978673 616.943246 
L 1028.958352 613.171374 
L 1038.917711 597.686572 
L 1043.89739 581.643191 
L 1048.877069 577.237951 
L 1053.856748 568.339244 
L 1058.836427 562.289525 
L 1063.816106 568.376638 
L 1068.795785 580.065905 
L 1073.775465 595.670486 
L 1078.755144 619.383993 
L 1083.734823 618.298122 
L 1088.714502 611.103959 
L 1093.694181 602.901548 
L 1098.67386 589.638881 
L 1103.653539 583.921914 
L 1108.633219 570.813119 
L 1113.612898 567.924691 
L 1113.612898 567.924691 
" style="fill:none;stroke:#0000ff;stroke-linecap:square;stroke-width:1.5;"/>
   </g>
   <g id="line2d_38">
    <defs>
     <path d="M 0 3 
C 0.795609 3 1.55874 2.683901 2.12132 2.12132 
C 2.683901 1.55874 3 0.795609 3 0 
C 3 -0.795609 2.683901 -1.55874 2.12132 -2.12132 
C 1.55874 -2.683901 0.795609 -3 0 -3 
C -0.795609 -3 -1.55874 -2.683901 -2.12132 -2.12132 
C -2.683901 -1.55874 -3 -0.795609 -3 0 
C -3 0.795609 -2.683901 1.55874 -2.12132 2.12132 
C -1.55874 2.683901 -0.795609 3 0 3 
z
" id="m0bfcf4de31" style="stroke:#ff0000;"/>
    </defs>
    <g clip-path="url(#p73ca944e86)">
     <use style="fill:#ff0000;stroke:#ff0000;" x="97.758352" xlink:href="#m0bfcf4de31" y="639.849091"/>
     <use style="fill:#ff0000;stroke:#ff0000;" x="102.738031" xlink:href="#m0bfcf4de31" y="639.849091"/>
     <use style="fill:#ff0000;stroke:#ff0000;" x="107.717711" xlink:href="#m0bfcf4de31" y="639.849091"/>
     <use style="fill:#ff0000;stroke:#ff0000;" x="112.69739" xlink:href="#m0bfcf4de31" y="639.849091"/>
     <use style="fill:#ff0000;stroke:#ff0000;" x="117.677069" xlink:href="#m0bfcf4de31" y="639.849091"/>
     <use style="fill:#ff0000;stroke:#ff0000;" x="122.656748" xlink:href="#m0bfcf4de31" y="639.849091"/>
     <use style="fill:#ff0000;stroke:#ff0000;" x="127.636427" xlink:href="#m0bfcf4de31" y="639.849091"/>
     <use style="fill:#ff0000;stroke:#ff0000;" x="157.514502" xlink:href="#m0bfcf4de31" y="639.849091"/>
     <use style="fill:#ff0000;stroke:#ff0000;" x="162.494181" xlink:href="#m0bfcf4de31" y="639.849091"/>
     <use style="fill:#ff0000;stroke:#ff0000;" x="167.47386" xlink:href="#m0bfcf4de31" y="639.849091"/>
     <use style="fill:#ff0000;stroke:#ff0000;" x="172.453539" xlink:href="#m0bfcf4de31" y="639.849091"/>
     <use style="fill:#ff0000;stroke:#ff0000;" x="177.433219" xlink:href="#m0bfcf4de31" y="639.849091"/>
     <use style="fill:#ff0000;stroke:#ff0000;" x="182.412898" xlink:href="#m0bfcf4de31" y="639.849091"/>
     <use style="fill:#ff0000;stroke:#ff0000;" x="301.925197" xlink:href="#m0bfcf4de31" y="639.849091"/>
    </g>
   </g>
   <g id="patch_9">
    <path d="M 46.965625 645.74 
L 46.965625 516.14 
" style="fill:none;stroke:#000000;stroke-linecap:square;stroke-linejoin:miter;stroke-width:0.8;"/>
   </g>
   <g id="patch_10">
    <path d="M 1164.405625 645.74 
L 1164.405625 516.14 
" style="fill:none;stroke:#000000;stroke-linecap:square;stroke-linejoin:miter;stroke-width:0.8;"/>
   </g>
   <g id="patch_11">
    <path d="M 46.965625 645.74 
L 1164.405625 645.74 
" style="fill:none;stroke:#000000;stroke-linecap:square;stroke-linejoin:miter;stroke-width:0.8;"/>
   </g>
   <g id="patch_12">
    <path d="M 46.965625 516.14 
L 1164.405625 516.14 
" style="fill:none;stroke:#000000;stroke-linecap:square;stroke-linejoin:miter;stroke-width:0.8;"/>
   </g>
   <g id="legend_2">
    <g id="patch_13">
     <path d="M 53.965625 582.8525 
L 144.978125 582.8525 
Q 146.978125 582.8525 146.978125 580.8525 
L 146.978125 523.14 
Q 146.978125 521.14 144.978125 521.14 
L 53.965625 521.14 
Q 51.965625 521.14 51.965625 523.14 
L 51.965625 580.8525 
Q 51.965625 582.8525 53.965625 582.8525 
z
" style="fill:#ffffff;opacity:0.8;stroke:#cccccc;stroke-linejoin:miter;"/>
    </g>
    <g id="line2d_39">
     <path d="M 55.965625 529.238437 
L 75.965625 529.238437 
" style="fill:none;stroke:#ff0000;stroke-linecap:square;stroke-width:1.5;"/>
    </g>
    <g id="line2d_40"/>
    <g id="text_32">
     <!-- Maxmimum -->
     <defs>
      <path d="M 9.8125 72.90625 
L 24.515625 72.90625 
L 43.109375 23.296875 
L 61.8125 72.90625 
L 76.515625 72.90625 
L 76.515625 0 
L 66.890625 0 
L 66.890625 64.015625 
L 48.09375 14.015625 
L 38.1875 14.015625 
L 19.390625 64.015625 
L 19.390625 0 
L 9.8125 0 
z
" id="DejaVuSans-4d"/>
      <path d="M 54.890625 54.6875 
L 35.109375 28.078125 
L 55.90625 0 
L 45.3125 0 
L 29.390625 21.484375 
L 13.484375 0 
L 2.875 0 
L 24.125 28.609375 
L 4.6875 54.6875 
L 15.28125 54.6875 
L 29.78125 35.203125 
L 44.28125 54.6875 
z
" id="DejaVuSans-78"/>
     </defs>
     <g transform="translate(83.965625 532.738437)scale(0.1 -0.1)">
      <use xlink:href="#DejaVuSans-4d"/>
      <use x="86.279297" xlink:href="#DejaVuSans-61"/>
      <use x="147.558594" xlink:href="#DejaVuSans-78"/>
      <use x="206.738281" xlink:href="#DejaVuSans-6d"/>
      <use x="304.150391" xlink:href="#DejaVuSans-69"/>
      <use x="331.933594" xlink:href="#DejaVuSans-6d"/>
      <use x="429.345703" xlink:href="#DejaVuSans-75"/>
      <use x="492.724609" xlink:href="#DejaVuSans-6d"/>
     </g>
    </g>
    <g id="line2d_41">
     <path d="M 55.965625 543.916562 
L 75.965625 543.916562 
" style="fill:none;stroke:#008000;stroke-linecap:square;stroke-width:1.5;"/>
    </g>
    <g id="line2d_42"/>
    <g id="text_33">
     <!-- Average -->
     <defs>
      <path d="M 34.1875 63.1875 
L 20.796875 26.90625 
L 47.609375 26.90625 
z
M 28.609375 72.90625 
L 39.796875 72.90625 
L 67.578125 0 
L 57.328125 0 
L 50.6875 18.703125 
L 17.828125 18.703125 
L 11.1875 0 
L 0.78125 0 
z
" id="DejaVuSans-41"/>
      <path d="M 2.984375 54.6875 
L 12.5 54.6875 
L 29.59375 8.796875 
L 46.6875 54.6875 
L 56.203125 54.6875 
L 35.6875 0 
L 23.484375 0 
z
" id="DejaVuSans-76"/>
     </defs>
     <g transform="translate(83.965625 547.416562)scale(0.1 -0.1)">
      <use xlink:href="#DejaVuSans-41"/>
      <use x="68.330078" xlink:href="#DejaVuSans-76"/>
      <use x="127.509766" xlink:href="#DejaVuSans-65"/>
      <use x="189.033203" xlink:href="#DejaVuSans-72"/>
      <use x="230.146484" xlink:href="#DejaVuSans-61"/>
      <use x="291.425781" xlink:href="#DejaVuSans-67"/>
      <use x="354.902344" xlink:href="#DejaVuSans-65"/>
     </g>
    </g>
    <g id="line2d_43">
     <path d="M 55.965625 558.594687 
L 75.965625 558.594687 
" style="fill:none;stroke:#0000ff;stroke-linecap:square;stroke-width:1.5;"/>
    </g>
    <g id="line2d_44"/>
    <g id="text_34">
     <!-- Minimum -->
     <g transform="translate(83.965625 562.094687)scale(0.1 -0.1)">
      <use xlink:href="#DejaVuSans-4d"/>
      <use x="86.279297" xlink:href="#DejaVuSans-69"/>
      <use x="114.0625" xlink:href="#DejaVuSans-6e"/>
      <use x="177.441406" xlink:href="#DejaVuSans-69"/>
      <use x="205.224609" xlink:href="#DejaVuSans-6d"/>
      <use x="302.636719" xlink:href="#DejaVuSans-75"/>
      <use x="366.015625" xlink:href="#DejaVuSans-6d"/>
     </g>
    </g>
    <g id="line2d_45"/>
    <g id="line2d_46">
     <g>
      <use style="fill:#ff0000;stroke:#ff0000;" x="65.965625" xlink:href="#m0bfcf4de31" y="573.272812"/>
     </g>
    </g>
    <g id="text_35">
     <!-- Disasters -->
     <g transform="translate(83.965625 576.772812)scale(0.1 -0.1)">
      <use xlink:href="#DejaVuSans-44"/>
      <use x="77.001953" xlink:href="#DejaVuSans-69"/>
      <use x="104.785156" xlink:href="#DejaVuSans-73"/>
      <use x="156.884766" xlink:href="#DejaVuSans-61"/>
      <use x="218.164062" xlink:href="#DejaVuSans-73"/>
      <use x="270.263672" xlink:href="#DejaVuSans-74"/>
      <use x="309.472656" xlink:href="#DejaVuSans-65"/>
      <use x="370.996094" xlink:href="#DejaVuSans-72"/>
      <use x="412.109375" xlink:href="#DejaVuSans-73"/>
     </g>
    </g>
   </g>
  </g>
 </g>
 <defs>
  <clipPath id="pc56ceb8333">
   <rect height="498.96" width="1116" x="46.965625" y="10.7"/>
  </clipPath>
  <clipPath id="p73ca944e86">
   <rect height="129.6" width="1117.44" x="46.965625" y="516.14"/>
  </clipPath>
 </defs>
</svg>
