<?xml version="1.0" encoding="utf-8" standalone="no"?>
<!DOCTYPE svg PUBLIC "-//W3C//DTD SVG 1.1//EN"
  "http://www.w3.org/Graphics/SVG/1.1/DTD/svg11.dtd">
<!-- Created with matplotlib (http://matplotlib.org/) -->
<svg height="669pt" version="1.1" viewBox="0 0 1177 669" width="1177pt" xmlns="http://www.w3.org/2000/svg" xmlns:xlink="http://www.w3.org/1999/xlink">
 <defs>
  <style type="text/css">
*{stroke-linecap:butt;stroke-linejoin:round;}
  </style>
 </defs>
 <g id="figure_1">
  <g id="patch_1">
   <path d="M 0 669.618125 
L 1177.122813 669.618125 
L 1177.122813 -0 
L 0 -0 
z
" style="fill:none;"/>
  </g>
  <g id="axes_1">
   <g id="patch_2">
    <path d="M 48.982813 509.66 
L 1164.982812 509.66 
L 1164.982812 10.7 
L 48.982813 10.7 
z
" style="fill:none;"/>
   </g>
   <g id="matplotlib.axis_1">
    <g id="xtick_1">
     <g id="line2d_1">
      <defs>
       <path d="M 0 0 
L 0 3.5 
" id="m122984af4f" style="stroke:#000000;stroke-width:0.8;"/>
      </defs>
      <g>
       <use style="stroke:#000000;stroke-width:0.8;" x="99.710085" xlink:href="#m122984af4f" y="509.66"/>
      </g>
     </g>
     <g id="text_1">
      <!-- 0 -->
      <defs>
       <path d="M 31.78125 66.40625 
Q 24.171875 66.40625 20.328125 58.90625 
Q 16.5 51.421875 16.5 36.375 
Q 16.5 21.390625 20.328125 13.890625 
Q 24.171875 6.390625 31.78125 6.390625 
Q 39.453125 6.390625 43.28125 13.890625 
Q 47.125 21.390625 47.125 36.375 
Q 47.125 51.421875 43.28125 58.90625 
Q 39.453125 66.40625 31.78125 66.40625 
z
M 31.78125 74.21875 
Q 44.046875 74.21875 50.515625 64.515625 
Q 56.984375 54.828125 56.984375 36.375 
Q 56.984375 17.96875 50.515625 8.265625 
Q 44.046875 -1.421875 31.78125 -1.421875 
Q 19.53125 -1.421875 13.0625 8.265625 
Q 6.59375 17.96875 6.59375 36.375 
Q 6.59375 54.828125 13.0625 64.515625 
Q 19.53125 74.21875 31.78125 74.21875 
z
" id="DejaVuSans-30"/>
      </defs>
      <g transform="translate(96.528835 524.258437)scale(0.1 -0.1)">
       <use xlink:href="#DejaVuSans-30"/>
      </g>
     </g>
    </g>
    <g id="xtick_2">
     <g id="line2d_2">
      <g>
       <use style="stroke:#000000;stroke-width:0.8;" x="342.424309" xlink:href="#m122984af4f" y="509.66"/>
      </g>
     </g>
     <g id="text_2">
      <!-- 50 -->
      <defs>
       <path d="M 10.796875 72.90625 
L 49.515625 72.90625 
L 49.515625 64.59375 
L 19.828125 64.59375 
L 19.828125 46.734375 
Q 21.96875 47.46875 24.109375 47.828125 
Q 26.265625 48.1875 28.421875 48.1875 
Q 40.625 48.1875 47.75 41.5 
Q 54.890625 34.8125 54.890625 23.390625 
Q 54.890625 11.625 47.5625 5.09375 
Q 40.234375 -1.421875 26.90625 -1.421875 
Q 22.3125 -1.421875 17.546875 -0.640625 
Q 12.796875 0.140625 7.71875 1.703125 
L 7.71875 11.625 
Q 12.109375 9.234375 16.796875 8.0625 
Q 21.484375 6.890625 26.703125 6.890625 
Q 35.15625 6.890625 40.078125 11.328125 
Q 45.015625 15.765625 45.015625 23.390625 
Q 45.015625 31 40.078125 35.4375 
Q 35.15625 39.890625 26.703125 39.890625 
Q 22.75 39.890625 18.8125 39.015625 
Q 14.890625 38.140625 10.796875 36.28125 
z
" id="DejaVuSans-35"/>
      </defs>
      <g transform="translate(336.061809 524.258437)scale(0.1 -0.1)">
       <use xlink:href="#DejaVuSans-35"/>
       <use x="63.623047" xlink:href="#DejaVuSans-30"/>
      </g>
     </g>
    </g>
    <g id="xtick_3">
     <g id="line2d_3">
      <g>
       <use style="stroke:#000000;stroke-width:0.8;" x="585.138532" xlink:href="#m122984af4f" y="509.66"/>
      </g>
     </g>
     <g id="text_3">
      <!-- 100 -->
      <defs>
       <path d="M 12.40625 8.296875 
L 28.515625 8.296875 
L 28.515625 63.921875 
L 10.984375 60.40625 
L 10.984375 69.390625 
L 28.421875 72.90625 
L 38.28125 72.90625 
L 38.28125 8.296875 
L 54.390625 8.296875 
L 54.390625 0 
L 12.40625 0 
z
" id="DejaVuSans-31"/>
      </defs>
      <g transform="translate(575.594782 524.258437)scale(0.1 -0.1)">
       <use xlink:href="#DejaVuSans-31"/>
       <use x="63.623047" xlink:href="#DejaVuSans-30"/>
       <use x="127.246094" xlink:href="#DejaVuSans-30"/>
      </g>
     </g>
    </g>
    <g id="xtick_4">
     <g id="line2d_4">
      <g>
       <use style="stroke:#000000;stroke-width:0.8;" x="827.852756" xlink:href="#m122984af4f" y="509.66"/>
      </g>
     </g>
     <g id="text_4">
      <!-- 150 -->
      <g transform="translate(818.309006 524.258437)scale(0.1 -0.1)">
       <use xlink:href="#DejaVuSans-31"/>
       <use x="63.623047" xlink:href="#DejaVuSans-35"/>
       <use x="127.246094" xlink:href="#DejaVuSans-30"/>
      </g>
     </g>
    </g>
    <g id="xtick_5">
     <g id="line2d_5">
      <g>
       <use style="stroke:#000000;stroke-width:0.8;" x="1070.56698" xlink:href="#m122984af4f" y="509.66"/>
      </g>
     </g>
     <g id="text_5">
      <!-- 200 -->
      <defs>
       <path d="M 19.1875 8.296875 
L 53.609375 8.296875 
L 53.609375 0 
L 7.328125 0 
L 7.328125 8.296875 
Q 12.9375 14.109375 22.625 23.890625 
Q 32.328125 33.6875 34.8125 36.53125 
Q 39.546875 41.84375 41.421875 45.53125 
Q 43.3125 49.21875 43.3125 52.78125 
Q 43.3125 58.59375 39.234375 62.25 
Q 35.15625 65.921875 28.609375 65.921875 
Q 23.96875 65.921875 18.8125 64.3125 
Q 13.671875 62.703125 7.8125 59.421875 
L 7.8125 69.390625 
Q 13.765625 71.78125 18.9375 73 
Q 24.125 74.21875 28.421875 74.21875 
Q 39.75 74.21875 46.484375 68.546875 
Q 53.21875 62.890625 53.21875 53.421875 
Q 53.21875 48.921875 51.53125 44.890625 
Q 49.859375 40.875 45.40625 35.40625 
Q 44.1875 33.984375 37.640625 27.21875 
Q 31.109375 20.453125 19.1875 8.296875 
z
" id="DejaVuSans-32"/>
      </defs>
      <g transform="translate(1061.02323 524.258437)scale(0.1 -0.1)">
       <use xlink:href="#DejaVuSans-32"/>
       <use x="63.623047" xlink:href="#DejaVuSans-30"/>
       <use x="127.246094" xlink:href="#DejaVuSans-30"/>
      </g>
     </g>
    </g>
    <g id="text_6">
     <!-- Time -->
     <defs>
      <path d="M -0.296875 72.90625 
L 61.375 72.90625 
L 61.375 64.59375 
L 35.5 64.59375 
L 35.5 0 
L 25.59375 0 
L 25.59375 64.59375 
L -0.296875 64.59375 
z
" id="DejaVuSans-54"/>
      <path d="M 9.421875 54.6875 
L 18.40625 54.6875 
L 18.40625 0 
L 9.421875 0 
z
M 9.421875 75.984375 
L 18.40625 75.984375 
L 18.40625 64.59375 
L 9.421875 64.59375 
z
" id="DejaVuSans-69"/>
      <path d="M 52 44.1875 
Q 55.375 50.25 60.0625 53.125 
Q 64.75 56 71.09375 56 
Q 79.640625 56 84.28125 50.015625 
Q 88.921875 44.046875 88.921875 33.015625 
L 88.921875 0 
L 79.890625 0 
L 79.890625 32.71875 
Q 79.890625 40.578125 77.09375 44.375 
Q 74.3125 48.1875 68.609375 48.1875 
Q 61.625 48.1875 57.5625 43.546875 
Q 53.515625 38.921875 53.515625 30.90625 
L 53.515625 0 
L 44.484375 0 
L 44.484375 32.71875 
Q 44.484375 40.625 41.703125 44.40625 
Q 38.921875 48.1875 33.109375 48.1875 
Q 26.21875 48.1875 22.15625 43.53125 
Q 18.109375 38.875 18.109375 30.90625 
L 18.109375 0 
L 9.078125 0 
L 9.078125 54.6875 
L 18.109375 54.6875 
L 18.109375 46.1875 
Q 21.1875 51.21875 25.484375 53.609375 
Q 29.78125 56 35.6875 56 
Q 41.65625 56 45.828125 52.96875 
Q 50 49.953125 52 44.1875 
z
" id="DejaVuSans-6d"/>
      <path d="M 56.203125 29.59375 
L 56.203125 25.203125 
L 14.890625 25.203125 
Q 15.484375 15.921875 20.484375 11.0625 
Q 25.484375 6.203125 34.421875 6.203125 
Q 39.59375 6.203125 44.453125 7.46875 
Q 49.3125 8.734375 54.109375 11.28125 
L 54.109375 2.78125 
Q 49.265625 0.734375 44.1875 -0.34375 
Q 39.109375 -1.421875 33.890625 -1.421875 
Q 20.796875 -1.421875 13.15625 6.1875 
Q 5.515625 13.8125 5.515625 26.8125 
Q 5.515625 40.234375 12.765625 48.109375 
Q 20.015625 56 32.328125 56 
Q 43.359375 56 49.78125 48.890625 
Q 56.203125 41.796875 56.203125 29.59375 
z
M 47.21875 32.234375 
Q 47.125 39.59375 43.09375 43.984375 
Q 39.0625 48.390625 32.421875 48.390625 
Q 24.90625 48.390625 20.390625 44.140625 
Q 15.875 39.890625 15.1875 32.171875 
z
" id="DejaVuSans-65"/>
     </defs>
     <g transform="translate(594.595312 537.936562)scale(0.1 -0.1)">
      <use xlink:href="#DejaVuSans-54"/>
      <use x="61.037109" xlink:href="#DejaVuSans-69"/>
      <use x="88.820312" xlink:href="#DejaVuSans-6d"/>
      <use x="186.232422" xlink:href="#DejaVuSans-65"/>
     </g>
    </g>
   </g>
   <g id="matplotlib.axis_2">
    <g id="ytick_1">
     <g id="line2d_6">
      <defs>
       <path d="M 0 0 
L -3.5 0 
" id="mde7c59ab1c" style="stroke:#000000;stroke-width:0.8;"/>
      </defs>
      <g>
       <use style="stroke:#000000;stroke-width:0.8;" x="48.982813" xlink:href="#mde7c59ab1c" y="447.12715"/>
      </g>
     </g>
     <g id="text_7">
      <!-- 50 -->
      <g transform="translate(29.257813 450.926369)scale(0.1 -0.1)">
       <use xlink:href="#DejaVuSans-35"/>
       <use x="63.623047" xlink:href="#DejaVuSans-30"/>
      </g>
     </g>
    </g>
    <g id="ytick_2">
     <g id="line2d_7">
      <g>
       <use style="stroke:#000000;stroke-width:0.8;" x="48.982813" xlink:href="#mde7c59ab1c" y="382.880698"/>
      </g>
     </g>
     <g id="text_8">
      <!-- 100 -->
      <g transform="translate(22.895313 386.679917)scale(0.1 -0.1)">
       <use xlink:href="#DejaVuSans-31"/>
       <use x="63.623047" xlink:href="#DejaVuSans-30"/>
       <use x="127.246094" xlink:href="#DejaVuSans-30"/>
      </g>
     </g>
    </g>
    <g id="ytick_3">
     <g id="line2d_8">
      <g>
       <use style="stroke:#000000;stroke-width:0.8;" x="48.982813" xlink:href="#mde7c59ab1c" y="318.634246"/>
      </g>
     </g>
     <g id="text_9">
      <!-- 150 -->
      <g transform="translate(22.895313 322.433465)scale(0.1 -0.1)">
       <use xlink:href="#DejaVuSans-31"/>
       <use x="63.623047" xlink:href="#DejaVuSans-35"/>
       <use x="127.246094" xlink:href="#DejaVuSans-30"/>
      </g>
     </g>
    </g>
    <g id="ytick_4">
     <g id="line2d_9">
      <g>
       <use style="stroke:#000000;stroke-width:0.8;" x="48.982813" xlink:href="#mde7c59ab1c" y="254.387794"/>
      </g>
     </g>
     <g id="text_10">
      <!-- 200 -->
      <g transform="translate(22.895313 258.187013)scale(0.1 -0.1)">
       <use xlink:href="#DejaVuSans-32"/>
       <use x="63.623047" xlink:href="#DejaVuSans-30"/>
       <use x="127.246094" xlink:href="#DejaVuSans-30"/>
      </g>
     </g>
    </g>
    <g id="ytick_5">
     <g id="line2d_10">
      <g>
       <use style="stroke:#000000;stroke-width:0.8;" x="48.982813" xlink:href="#mde7c59ab1c" y="190.141342"/>
      </g>
     </g>
     <g id="text_11">
      <!-- 250 -->
      <g transform="translate(22.895313 193.940561)scale(0.1 -0.1)">
       <use xlink:href="#DejaVuSans-32"/>
       <use x="63.623047" xlink:href="#DejaVuSans-35"/>
       <use x="127.246094" xlink:href="#DejaVuSans-30"/>
      </g>
     </g>
    </g>
    <g id="ytick_6">
     <g id="line2d_11">
      <g>
       <use style="stroke:#000000;stroke-width:0.8;" x="48.982813" xlink:href="#mde7c59ab1c" y="125.894891"/>
      </g>
     </g>
     <g id="text_12">
      <!-- 300 -->
      <defs>
       <path d="M 40.578125 39.3125 
Q 47.65625 37.796875 51.625 33 
Q 55.609375 28.21875 55.609375 21.1875 
Q 55.609375 10.40625 48.1875 4.484375 
Q 40.765625 -1.421875 27.09375 -1.421875 
Q 22.515625 -1.421875 17.65625 -0.515625 
Q 12.796875 0.390625 7.625 2.203125 
L 7.625 11.71875 
Q 11.71875 9.328125 16.59375 8.109375 
Q 21.484375 6.890625 26.8125 6.890625 
Q 36.078125 6.890625 40.9375 10.546875 
Q 45.796875 14.203125 45.796875 21.1875 
Q 45.796875 27.640625 41.28125 31.265625 
Q 36.765625 34.90625 28.71875 34.90625 
L 20.21875 34.90625 
L 20.21875 43.015625 
L 29.109375 43.015625 
Q 36.375 43.015625 40.234375 45.921875 
Q 44.09375 48.828125 44.09375 54.296875 
Q 44.09375 59.90625 40.109375 62.90625 
Q 36.140625 65.921875 28.71875 65.921875 
Q 24.65625 65.921875 20.015625 65.03125 
Q 15.375 64.15625 9.8125 62.3125 
L 9.8125 71.09375 
Q 15.4375 72.65625 20.34375 73.4375 
Q 25.25 74.21875 29.59375 74.21875 
Q 40.828125 74.21875 47.359375 69.109375 
Q 53.90625 64.015625 53.90625 55.328125 
Q 53.90625 49.265625 50.4375 45.09375 
Q 46.96875 40.921875 40.578125 39.3125 
z
" id="DejaVuSans-33"/>
      </defs>
      <g transform="translate(22.895313 129.694109)scale(0.1 -0.1)">
       <use xlink:href="#DejaVuSans-33"/>
       <use x="63.623047" xlink:href="#DejaVuSans-30"/>
       <use x="127.246094" xlink:href="#DejaVuSans-30"/>
      </g>
     </g>
    </g>
    <g id="ytick_7">
     <g id="line2d_12">
      <g>
       <use style="stroke:#000000;stroke-width:0.8;" x="48.982813" xlink:href="#mde7c59ab1c" y="61.648439"/>
      </g>
     </g>
     <g id="text_13">
      <!-- 350 -->
      <g transform="translate(22.895313 65.447658)scale(0.1 -0.1)">
       <use xlink:href="#DejaVuSans-33"/>
       <use x="63.623047" xlink:href="#DejaVuSans-35"/>
       <use x="127.246094" xlink:href="#DejaVuSans-30"/>
      </g>
     </g>
    </g>
    <g id="text_14">
     <!-- Refugees -->
     <defs>
      <path d="M 44.390625 34.1875 
Q 47.5625 33.109375 50.5625 29.59375 
Q 53.5625 26.078125 56.59375 19.921875 
L 66.609375 0 
L 56 0 
L 46.6875 18.703125 
Q 43.0625 26.03125 39.671875 28.421875 
Q 36.28125 30.8125 30.421875 30.8125 
L 19.671875 30.8125 
L 19.671875 0 
L 9.8125 0 
L 9.8125 72.90625 
L 32.078125 72.90625 
Q 44.578125 72.90625 50.734375 67.671875 
Q 56.890625 62.453125 56.890625 51.90625 
Q 56.890625 45.015625 53.6875 40.46875 
Q 50.484375 35.9375 44.390625 34.1875 
z
M 19.671875 64.796875 
L 19.671875 38.921875 
L 32.078125 38.921875 
Q 39.203125 38.921875 42.84375 42.21875 
Q 46.484375 45.515625 46.484375 51.90625 
Q 46.484375 58.296875 42.84375 61.546875 
Q 39.203125 64.796875 32.078125 64.796875 
z
" id="DejaVuSans-52"/>
      <path d="M 37.109375 75.984375 
L 37.109375 68.5 
L 28.515625 68.5 
Q 23.6875 68.5 21.796875 66.546875 
Q 19.921875 64.59375 19.921875 59.515625 
L 19.921875 54.6875 
L 34.71875 54.6875 
L 34.71875 47.703125 
L 19.921875 47.703125 
L 19.921875 0 
L 10.890625 0 
L 10.890625 47.703125 
L 2.296875 47.703125 
L 2.296875 54.6875 
L 10.890625 54.6875 
L 10.890625 58.5 
Q 10.890625 67.625 15.140625 71.796875 
Q 19.390625 75.984375 28.609375 75.984375 
z
" id="DejaVuSans-66"/>
      <path d="M 8.5 21.578125 
L 8.5 54.6875 
L 17.484375 54.6875 
L 17.484375 21.921875 
Q 17.484375 14.15625 20.5 10.265625 
Q 23.53125 6.390625 29.59375 6.390625 
Q 36.859375 6.390625 41.078125 11.03125 
Q 45.3125 15.671875 45.3125 23.6875 
L 45.3125 54.6875 
L 54.296875 54.6875 
L 54.296875 0 
L 45.3125 0 
L 45.3125 8.40625 
Q 42.046875 3.421875 37.71875 1 
Q 33.40625 -1.421875 27.6875 -1.421875 
Q 18.265625 -1.421875 13.375 4.4375 
Q 8.5 10.296875 8.5 21.578125 
z
M 31.109375 56 
z
" id="DejaVuSans-75"/>
      <path d="M 45.40625 27.984375 
Q 45.40625 37.75 41.375 43.109375 
Q 37.359375 48.484375 30.078125 48.484375 
Q 22.859375 48.484375 18.828125 43.109375 
Q 14.796875 37.75 14.796875 27.984375 
Q 14.796875 18.265625 18.828125 12.890625 
Q 22.859375 7.515625 30.078125 7.515625 
Q 37.359375 7.515625 41.375 12.890625 
Q 45.40625 18.265625 45.40625 27.984375 
z
M 54.390625 6.78125 
Q 54.390625 -7.171875 48.1875 -13.984375 
Q 42 -20.796875 29.203125 -20.796875 
Q 24.46875 -20.796875 20.265625 -20.09375 
Q 16.0625 -19.390625 12.109375 -17.921875 
L 12.109375 -9.1875 
Q 16.0625 -11.328125 19.921875 -12.34375 
Q 23.78125 -13.375 27.78125 -13.375 
Q 36.625 -13.375 41.015625 -8.765625 
Q 45.40625 -4.15625 45.40625 5.171875 
L 45.40625 9.625 
Q 42.625 4.78125 38.28125 2.390625 
Q 33.9375 0 27.875 0 
Q 17.828125 0 11.671875 7.65625 
Q 5.515625 15.328125 5.515625 27.984375 
Q 5.515625 40.671875 11.671875 48.328125 
Q 17.828125 56 27.875 56 
Q 33.9375 56 38.28125 53.609375 
Q 42.625 51.21875 45.40625 46.390625 
L 45.40625 54.6875 
L 54.390625 54.6875 
z
" id="DejaVuSans-67"/>
      <path d="M 44.28125 53.078125 
L 44.28125 44.578125 
Q 40.484375 46.53125 36.375 47.5 
Q 32.28125 48.484375 27.875 48.484375 
Q 21.1875 48.484375 17.84375 46.4375 
Q 14.5 44.390625 14.5 40.28125 
Q 14.5 37.15625 16.890625 35.375 
Q 19.28125 33.59375 26.515625 31.984375 
L 29.59375 31.296875 
Q 39.15625 29.25 43.1875 25.515625 
Q 47.21875 21.78125 47.21875 15.09375 
Q 47.21875 7.46875 41.1875 3.015625 
Q 35.15625 -1.421875 24.609375 -1.421875 
Q 20.21875 -1.421875 15.453125 -0.5625 
Q 10.6875 0.296875 5.421875 2 
L 5.421875 11.28125 
Q 10.40625 8.6875 15.234375 7.390625 
Q 20.0625 6.109375 24.8125 6.109375 
Q 31.15625 6.109375 34.5625 8.28125 
Q 37.984375 10.453125 37.984375 14.40625 
Q 37.984375 18.0625 35.515625 20.015625 
Q 33.0625 21.96875 24.703125 23.78125 
L 21.578125 24.515625 
Q 13.234375 26.265625 9.515625 29.90625 
Q 5.8125 33.546875 5.8125 39.890625 
Q 5.8125 47.609375 11.28125 51.796875 
Q 16.75 56 26.8125 56 
Q 31.78125 56 36.171875 55.265625 
Q 40.578125 54.546875 44.28125 53.078125 
z
" id="DejaVuSans-73"/>
     </defs>
     <g style="fill:#ff7f0e;" transform="translate(16.815625 283.588594)rotate(-90)scale(0.1 -0.1)">
      <use xlink:href="#DejaVuSans-52"/>
      <use x="69.419922" xlink:href="#DejaVuSans-65"/>
      <use x="130.943359" xlink:href="#DejaVuSans-66"/>
      <use x="166.148438" xlink:href="#DejaVuSans-75"/>
      <use x="229.527344" xlink:href="#DejaVuSans-67"/>
      <use x="293.003906" xlink:href="#DejaVuSans-65"/>
      <use x="354.527344" xlink:href="#DejaVuSans-65"/>
      <use x="416.050781" xlink:href="#DejaVuSans-73"/>
     </g>
    </g>
   </g>
   <g id="line2d_13">
    <path clip-path="url(#pca37a72bd5)" d="M 99.710085 444.260028 
L 104.56437 440.613354 
L 109.418654 441.996242 
L 114.272939 447.750116 
L 119.127223 448.59836 
L 123.981508 435.933414 
L 128.835792 217.981125 
L 133.690077 224.841171 
L 138.544361 236.918261 
L 143.398645 244.36803 
L 148.25293 242.518807 
L 153.107214 224.539232 
L 157.961499 205.248709 
L 162.815783 208.635255 
L 167.670068 224.052501 
L 172.524352 238.931413 
L 177.378637 245.649763 
L 182.232921 232.988401 
L 187.087206 227.047604 
L 191.94149 231.474684 
L 196.795775 242.142716 
L 201.650059 249.833998 
L 206.504344 249.623954 
L 211.358628 232.76522 
L 216.212913 305.506662 
L 221.067197 307.486424 
L 225.921481 313.413496 
L 230.775766 318.579838 
L 235.63005 318.434652 
L 240.484335 301.391226 
L 245.338619 399.939025 
L 250.192904 396.099874 
L 255.047188 397.761953 
L 259.901473 403.243321 
L 264.755757 404.58706 
L 269.610042 391.122088 
L 274.464326 395.476781 
L 279.318611 391.618219 
L 284.172895 393.308434 
L 289.02718 398.762363 
L 293.881464 400.15597 
L 298.735749 386.610455 
L 303.590033 410.709031 
L 308.444318 406.916651 
L 313.298602 408.510901 
L 318.152886 414.058481 
L 323.007171 415.281806 
L 327.861455 402.011232 
L 332.71574 402.617238 
L 337.570024 398.789694 
L 342.424309 400.434931 
L 347.278593 405.932769 
L 352.132878 407.246549 
L 356.987162 393.829916 
L 361.841447 451.129657 
L 366.695731 447.512814 
L 371.550016 448.852435 
L 376.4043 454.648522 
L 381.258585 455.419982 
L 386.112869 442.879057 
L 390.967154 426.787064 
L 395.821438 423.064513 
L 400.675722 424.557476 
L 405.530007 430.203921 
L 410.384291 431.247495 
L 415.238576 418.267155 
L 420.09286 471.341967 
L 424.947145 467.812898 
L 429.801429 469.025175 
L 434.655714 474.945552 
L 439.509998 475.491052 
L 444.364283 463.314979 
L 449.218567 440.716778 
L 454.072852 437.054708 
L 458.927136 438.459947 
L 463.781421 444.192009 
L 468.635705 445.079877 
L 473.48999 432.350976 
L 478.344274 459.569459 
L 483.198558 455.98928 
L 488.052843 457.275753 
L 492.907127 463.123728 
L 497.761412 463.800823 
L 502.615696 451.412245 
L 507.469981 386.344875 
L 512.324265 382.44666 
L 517.17855 384.194399 
L 522.032834 389.592186 
L 526.887119 391.087884 
L 531.741403 377.377517 
L 536.595688 477.06389 
L 541.449972 473.559686 
L 546.304257 474.735937 
L 551.158541 480.69147 
L 556.012826 481.173007 
L 560.86711 469.100214 
L 565.721394 475.573549 
L 570.575679 472.06289 
L 575.429963 473.248534 
L 580.284248 479.194894 
L 585.138532 479.69308 
L 589.992817 467.593393 
L 594.847101 482.911745 
L 599.701386 479.432927 
L 604.55567 480.572349 
L 609.409955 486.563836 
L 614.264239 486.98 
L 619.118524 475.012768 
L 623.972808 459.367787 
L 628.827093 455.786706 
L 633.681377 457.074449 
L 638.535662 462.921174 
L 643.389946 463.600552 
L 648.244231 451.208328 
L 653.098515 429.210001 
L 657.952799 425.497959 
L 662.807084 426.975658 
L 667.661368 432.637 
L 672.515653 433.653487 
L 677.369937 420.716884 
L 682.224222 401.175183 
L 687.078506 397.341385 
L 691.932791 398.995699 
L 696.787075 404.484675 
L 701.64136 405.814562 
L 706.495644 392.371911 
L 711.349929 450.543938 
L 716.204213 446.924551 
L 721.058498 448.267873 
L 725.912782 454.060367 
L 730.767067 454.838361 
L 735.621351 442.286864 
L 740.475635 410.682346 
L 745.32992 406.889829 
L 750.184204 408.484236 
L 755.038489 414.031669 
L 759.892773 415.255308 
L 764.747058 401.984253 
L 769.601342 439.673793 
L 774.455627 436.007203 
L 779.309911 437.418971 
L 784.164196 443.144671 
L 789.01848 444.044176 
L 793.872765 431.296447 
L 798.727049 409.145876 
L 803.581334 405.346683 
L 808.435618 406.950786 
L 813.289903 412.488768 
L 818.144187 413.729563 
L 822.998471 400.430775 
L 827.852756 406.314791 
L 832.70704 402.503295 
L 837.561325 404.12525 
L 842.415609 409.645811 
L 847.269894 410.918251 
L 852.124178 397.568369 
L 856.978463 345.253782 
L 861.832747 341.177089 
L 866.687032 343.183673 
L 871.541316 348.328849 
L 876.395601 350.283907 
L 881.249885 335.831799 
L 886.10417 432.247772 
L 890.958454 428.54891 
L 895.812739 430.007499 
L 900.667023 435.6875 
L 905.521307 436.670034 
L 910.375592 423.788265 
L 915.229876 383.745215 
L 920.084161 379.835717 
L 924.938445 381.599808 
L 929.79273 386.981644 
L 934.647014 388.50637 
L 939.501299 374.749095 
L 944.355583 400.339663 
L 949.209868 396.502228 
L 954.064152 398.161807 
L 958.918437 403.645626 
L 963.772721 404.984875 
L 968.627006 391.527138 
L 973.48129 385.908739 
L 978.335575 382.008632 
L 983.189859 383.759107 
L 988.044144 389.154226 
L 992.898428 390.654787 
L 997.752712 376.936548 
L 1002.606997 433.964264 
L 1007.461281 430.272857 
L 1012.315566 431.720623 
L 1017.16985 437.411178 
L 1022.024135 438.374527 
L 1026.878419 425.523751 
L 1031.732704 407.272126 
L 1036.586988 403.464816 
L 1041.441273 405.080702 
L 1046.295557 410.607195 
L 1051.149842 411.868919 
L 1056.004126 398.53632 
L 1060.858411 421.303362 
L 1065.712695 417.556989 
L 1070.56698 419.084509 
L 1075.421264 424.697231 
L 1080.275548 425.802104 
L 1085.129833 412.722771 
L 1089.984117 396.094531 
L 1094.838402 392.238656 
L 1099.692686 393.924978 
L 1104.546971 399.382721 
L 1109.401255 400.769417 
L 1114.25554 387.235038 
L 1114.25554 387.235038 
" style="fill:none;stroke:#008000;stroke-dasharray:5.55,2.4;stroke-dashoffset:0;stroke-width:1.5;"/>
   </g>
   <g id="line2d_14">
    <path clip-path="url(#pca37a72bd5)" d="M 99.710085 408.579279 
L 104.56437 321.204104 
L 109.418654 300.64524 
L 114.272939 301.930169 
L 119.127223 263.382298 
L 123.981508 33.38 
L 128.835792 303.215098 
L 133.690077 343.047898 
L 138.544361 276.231588 
L 143.398645 177.292052 
L 148.25293 133.604465 
L 153.107214 286.51102 
L 157.961499 158.018117 
L 162.815783 61.648439 
L 167.670068 105.336026 
L 172.524352 105.336026 
L 177.378637 263.382298 
L 182.232921 211.985136 
L 187.087206 281.371304 
L 191.94149 388.020414 
L 196.795775 354.612259 
L 201.650059 370.031408 
L 206.504344 373.886195 
L 211.358628 341.762969 
L 216.212913 385.450556 
L 221.067197 336.623253 
L 225.921481 371.316337 
L 230.775766 334.053395 
L 235.63005 337.908182 
L 240.484335 409.864208 
L 245.338619 359.751975 
L 250.192904 382.880698 
L 255.047188 399.584775 
L 259.901473 395.729988 
L 264.755757 407.29435 
L 269.610042 388.020414 
L 274.464326 379.025911 
L 279.318611 384.165627 
L 284.172895 381.595769 
L 289.02718 376.456053 
L 293.881464 384.165627 
L 298.735749 406.009421 
L 303.590033 404.724492 
L 308.444318 407.29435 
L 313.298602 423.998427 
L 318.152886 444.557292 
L 323.007171 439.417576 
L 327.861455 402.154634 
L 332.71574 429.138143 
L 337.570024 423.998427 
L 342.424309 404.724492 
L 347.278593 425.283356 
L 352.132878 404.724492 
L 356.987162 430.423072 
L 361.841447 439.417576 
L 366.695731 434.277859 
L 371.550016 431.708001 
L 376.4043 440.702505 
L 381.258585 436.847718 
L 386.112869 430.423072 
L 390.967154 400.869704 
L 395.821438 461.261369 
L 400.675722 456.121653 
L 405.530007 411.149137 
L 410.384291 438.132647 
L 415.238576 463.831227 
L 420.09286 443.272363 
L 424.947145 452.266866 
L 429.801429 435.562788 
L 434.655714 431.708001 
L 439.509998 457.406582 
L 444.364283 420.14364 
L 449.218567 471.540802 
L 454.072852 454.836724 
L 458.927136 426.568285 
L 463.781421 456.121653 
L 468.635705 448.412079 
L 473.48999 445.842221 
L 478.344274 444.557292 
L 483.198558 454.836724 
L 488.052843 453.551795 
L 492.907127 430.423072 
L 497.761412 404.724492 
L 502.615696 362.321833 
L 507.469981 439.417576 
L 512.324265 472.825731 
L 517.17855 436.847718 
L 522.032834 459.97644 
L 526.887119 459.97644 
L 531.741403 465.116156 
L 536.595688 477.965447 
L 541.449972 475.395589 
L 546.304257 480.535305 
L 551.158541 481.820234 
L 560.86711 466.401085 
L 565.721394 481.820234 
L 570.575679 483.105163 
L 575.429963 476.680518 
L 580.284248 457.406582 
L 585.138532 483.105163 
L 589.992817 481.820234 
L 594.847101 461.261369 
L 599.701386 463.831227 
L 604.55567 479.250376 
L 609.409955 456.121653 
L 614.264239 465.116156 
L 619.118524 449.697008 
L 623.972808 453.551795 
L 628.827093 448.412079 
L 633.681377 411.149137 
L 638.535662 358.467046 
L 643.389946 426.568285 
L 648.244231 421.428569 
L 653.098515 384.165627 
L 657.952799 431.708001 
L 662.807084 450.981937 
L 667.661368 417.573782 
L 677.369937 402.154634 
L 682.224222 398.299846 
L 687.078506 355.897188 
L 691.932791 449.697008 
L 696.787075 429.138143 
L 701.64136 468.970943 
L 706.495644 443.272363 
L 711.349929 426.568285 
L 716.204213 439.417576 
L 721.058498 400.869704 
L 725.912782 421.428569 
L 730.767067 395.729988 
L 740.475635 418.858711 
L 745.32992 390.590272 
L 750.184204 382.880698 
L 755.038489 398.299846 
L 759.892773 443.272363 
L 764.747058 434.277859 
L 769.601342 445.842221 
L 774.455627 431.708001 
L 779.309911 441.987434 
L 784.164196 440.702505 
L 789.01848 399.584775 
L 793.872765 413.718995 
L 798.727049 398.299846 
L 803.581334 376.456053 
L 808.435618 357.182117 
L 813.289903 397.014917 
L 818.144187 397.014917 
L 822.998471 375.171124 
L 827.852756 308.354814 
L 832.70704 406.009421 
L 837.561325 389.305343 
L 842.415609 348.187614 
L 847.269894 354.612259 
L 852.124178 339.193111 
L 856.978463 388.020414 
L 861.832747 318.634246 
L 866.687032 359.751975 
L 871.541316 388.020414 
L 876.395601 380.31084 
L 881.249885 382.880698 
L 886.10417 349.472543 
L 890.958454 400.869704 
L 895.812739 471.540802 
L 900.667023 368.746479 
L 905.521307 436.847718 
L 910.375592 399.584775 
L 915.229876 430.423072 
L 920.084161 362.321833 
L 924.938445 367.46155 
L 929.79273 376.456053 
L 934.647014 418.858711 
L 939.501299 372.601266 
L 944.355583 395.729988 
L 949.209868 417.573782 
L 954.064152 444.557292 
L 958.918437 436.847718 
L 963.772721 417.573782 
L 968.627006 426.568285 
L 973.48129 415.003924 
L 978.335575 406.009421 
L 983.189859 406.009421 
L 988.044144 372.601266 
L 992.898428 436.847718 
L 997.752712 403.439563 
L 1002.606997 407.29435 
L 1007.461281 420.14364 
L 1012.315566 445.842221 
L 1017.16985 443.272363 
L 1022.024135 431.708001 
L 1026.878419 426.568285 
L 1031.732704 423.998427 
L 1036.586988 422.713498 
L 1041.441273 427.853214 
L 1046.295557 412.434066 
L 1051.149842 363.606762 
L 1056.004126 393.16013 
L 1060.858411 430.423072 
L 1065.712695 382.880698 
L 1070.56698 397.014917 
L 1075.421264 386.735485 
L 1080.275548 379.025911 
L 1085.129833 393.16013 
L 1089.984117 377.740982 
L 1094.838402 313.49453 
L 1099.692686 309.639743 
L 1104.546971 316.064388 
L 1109.401255 289.080878 
L 1114.25554 362.321833 
L 1114.25554 362.321833 
" style="fill:none;stroke:#ff7f0e;stroke-linecap:square;stroke-width:1.5;"/>
   </g>
   <g id="line2d_15">
    <defs>
     <path d="M 0 3 
C 0.795609 3 1.55874 2.683901 2.12132 2.12132 
C 2.683901 1.55874 3 0.795609 3 0 
C 3 -0.795609 2.683901 -1.55874 2.12132 -2.12132 
C 1.55874 -2.683901 0.795609 -3 0 -3 
C -0.795609 -3 -1.55874 -2.683901 -2.12132 -2.12132 
C -2.683901 -1.55874 -3 -0.795609 -3 0 
C -3 0.795609 -2.683901 1.55874 -2.12132 2.12132 
C -1.55874 2.683901 -0.795609 3 0 3 
z
" id="mf4a0e45fed" style="stroke:#008000;"/>
    </defs>
    <g clip-path="url(#pca37a72bd5)">
     <use style="fill:#008000;stroke:#008000;" x="99.710085" xlink:href="#mf4a0e45fed" y="444.260028"/>
     <use style="fill:#008000;stroke:#008000;" x="128.835792" xlink:href="#mf4a0e45fed" y="217.981125"/>
     <use style="fill:#008000;stroke:#008000;" x="157.961499" xlink:href="#mf4a0e45fed" y="205.248709"/>
     <use style="fill:#008000;stroke:#008000;" x="187.087206" xlink:href="#mf4a0e45fed" y="227.047604"/>
     <use style="fill:#008000;stroke:#008000;" x="216.212913" xlink:href="#mf4a0e45fed" y="305.506662"/>
     <use style="fill:#008000;stroke:#008000;" x="245.338619" xlink:href="#mf4a0e45fed" y="399.939025"/>
     <use style="fill:#008000;stroke:#008000;" x="274.464326" xlink:href="#mf4a0e45fed" y="395.476781"/>
     <use style="fill:#008000;stroke:#008000;" x="303.590033" xlink:href="#mf4a0e45fed" y="410.709031"/>
     <use style="fill:#008000;stroke:#008000;" x="332.71574" xlink:href="#mf4a0e45fed" y="402.617238"/>
     <use style="fill:#008000;stroke:#008000;" x="361.841447" xlink:href="#mf4a0e45fed" y="451.129657"/>
     <use style="fill:#008000;stroke:#008000;" x="390.967154" xlink:href="#mf4a0e45fed" y="426.787064"/>
     <use style="fill:#008000;stroke:#008000;" x="420.09286" xlink:href="#mf4a0e45fed" y="471.341967"/>
     <use style="fill:#008000;stroke:#008000;" x="449.218567" xlink:href="#mf4a0e45fed" y="440.716778"/>
     <use style="fill:#008000;stroke:#008000;" x="478.344274" xlink:href="#mf4a0e45fed" y="459.569459"/>
     <use style="fill:#008000;stroke:#008000;" x="507.469981" xlink:href="#mf4a0e45fed" y="386.344875"/>
     <use style="fill:#008000;stroke:#008000;" x="536.595688" xlink:href="#mf4a0e45fed" y="477.06389"/>
     <use style="fill:#008000;stroke:#008000;" x="565.721394" xlink:href="#mf4a0e45fed" y="475.573549"/>
     <use style="fill:#008000;stroke:#008000;" x="594.847101" xlink:href="#mf4a0e45fed" y="482.911745"/>
     <use style="fill:#008000;stroke:#008000;" x="623.972808" xlink:href="#mf4a0e45fed" y="459.367787"/>
     <use style="fill:#008000;stroke:#008000;" x="653.098515" xlink:href="#mf4a0e45fed" y="429.210001"/>
     <use style="fill:#008000;stroke:#008000;" x="682.224222" xlink:href="#mf4a0e45fed" y="401.175183"/>
     <use style="fill:#008000;stroke:#008000;" x="711.349929" xlink:href="#mf4a0e45fed" y="450.543938"/>
     <use style="fill:#008000;stroke:#008000;" x="740.475635" xlink:href="#mf4a0e45fed" y="410.682346"/>
     <use style="fill:#008000;stroke:#008000;" x="769.601342" xlink:href="#mf4a0e45fed" y="439.673793"/>
     <use style="fill:#008000;stroke:#008000;" x="798.727049" xlink:href="#mf4a0e45fed" y="409.145876"/>
     <use style="fill:#008000;stroke:#008000;" x="827.852756" xlink:href="#mf4a0e45fed" y="406.314791"/>
     <use style="fill:#008000;stroke:#008000;" x="856.978463" xlink:href="#mf4a0e45fed" y="345.253782"/>
     <use style="fill:#008000;stroke:#008000;" x="886.10417" xlink:href="#mf4a0e45fed" y="432.247772"/>
     <use style="fill:#008000;stroke:#008000;" x="915.229876" xlink:href="#mf4a0e45fed" y="383.745215"/>
     <use style="fill:#008000;stroke:#008000;" x="944.355583" xlink:href="#mf4a0e45fed" y="400.339663"/>
     <use style="fill:#008000;stroke:#008000;" x="973.48129" xlink:href="#mf4a0e45fed" y="385.908739"/>
     <use style="fill:#008000;stroke:#008000;" x="1002.606997" xlink:href="#mf4a0e45fed" y="433.964264"/>
     <use style="fill:#008000;stroke:#008000;" x="1031.732704" xlink:href="#mf4a0e45fed" y="407.272126"/>
     <use style="fill:#008000;stroke:#008000;" x="1060.858411" xlink:href="#mf4a0e45fed" y="421.303362"/>
     <use style="fill:#008000;stroke:#008000;" x="1089.984117" xlink:href="#mf4a0e45fed" y="396.094531"/>
    </g>
   </g>
   <g id="patch_3">
    <path d="M 48.982813 509.66 
L 48.982813 10.7 
" style="fill:none;stroke:#000000;stroke-linecap:square;stroke-linejoin:miter;stroke-width:0.8;"/>
   </g>
   <g id="patch_4">
    <path d="M 1164.982812 509.66 
L 1164.982812 10.7 
" style="fill:none;stroke:#000000;stroke-linecap:square;stroke-linejoin:miter;stroke-width:0.8;"/>
   </g>
   <g id="patch_5">
    <path d="M 48.982813 509.66 
L 1164.982812 509.66 
" style="fill:none;stroke:#000000;stroke-linecap:square;stroke-linejoin:miter;stroke-width:0.8;"/>
   </g>
   <g id="patch_6">
    <path d="M 48.982813 10.7 
L 1164.982812 10.7 
" style="fill:none;stroke:#000000;stroke-linecap:square;stroke-linejoin:miter;stroke-width:0.8;"/>
   </g>
   <g id="legend_1">
    <g id="patch_7">
     <path d="M 55.982813 62.734375 
L 203.757813 62.734375 
Q 205.757813 62.734375 205.757813 60.734375 
L 205.757813 17.7 
Q 205.757813 15.7 203.757813 15.7 
L 55.982813 15.7 
Q 53.982813 15.7 53.982813 17.7 
L 53.982813 60.734375 
Q 53.982813 62.734375 55.982813 62.734375 
z
" style="fill:#ffffff;opacity:0.8;stroke:#cccccc;stroke-linejoin:miter;"/>
    </g>
    <g id="line2d_16">
     <path d="M 57.982813 23.798437 
L 77.982813 23.798437 
" style="fill:none;stroke:#008000;stroke-dasharray:5.55,2.4;stroke-dashoffset:0;stroke-width:1.5;"/>
    </g>
    <g id="line2d_17"/>
    <g id="text_15">
     <!-- Predicted -->
     <defs>
      <path d="M 19.671875 64.796875 
L 19.671875 37.40625 
L 32.078125 37.40625 
Q 38.96875 37.40625 42.71875 40.96875 
Q 46.484375 44.53125 46.484375 51.125 
Q 46.484375 57.671875 42.71875 61.234375 
Q 38.96875 64.796875 32.078125 64.796875 
z
M 9.8125 72.90625 
L 32.078125 72.90625 
Q 44.34375 72.90625 50.609375 67.359375 
Q 56.890625 61.8125 56.890625 51.125 
Q 56.890625 40.328125 50.609375 34.8125 
Q 44.34375 29.296875 32.078125 29.296875 
L 19.671875 29.296875 
L 19.671875 0 
L 9.8125 0 
z
" id="DejaVuSans-50"/>
      <path d="M 41.109375 46.296875 
Q 39.59375 47.171875 37.8125 47.578125 
Q 36.03125 48 33.890625 48 
Q 26.265625 48 22.1875 43.046875 
Q 18.109375 38.09375 18.109375 28.8125 
L 18.109375 0 
L 9.078125 0 
L 9.078125 54.6875 
L 18.109375 54.6875 
L 18.109375 46.1875 
Q 20.953125 51.171875 25.484375 53.578125 
Q 30.03125 56 36.53125 56 
Q 37.453125 56 38.578125 55.875 
Q 39.703125 55.765625 41.0625 55.515625 
z
" id="DejaVuSans-72"/>
      <path d="M 45.40625 46.390625 
L 45.40625 75.984375 
L 54.390625 75.984375 
L 54.390625 0 
L 45.40625 0 
L 45.40625 8.203125 
Q 42.578125 3.328125 38.25 0.953125 
Q 33.9375 -1.421875 27.875 -1.421875 
Q 17.96875 -1.421875 11.734375 6.484375 
Q 5.515625 14.40625 5.515625 27.296875 
Q 5.515625 40.1875 11.734375 48.09375 
Q 17.96875 56 27.875 56 
Q 33.9375 56 38.25 53.625 
Q 42.578125 51.265625 45.40625 46.390625 
z
M 14.796875 27.296875 
Q 14.796875 17.390625 18.875 11.75 
Q 22.953125 6.109375 30.078125 6.109375 
Q 37.203125 6.109375 41.296875 11.75 
Q 45.40625 17.390625 45.40625 27.296875 
Q 45.40625 37.203125 41.296875 42.84375 
Q 37.203125 48.484375 30.078125 48.484375 
Q 22.953125 48.484375 18.875 42.84375 
Q 14.796875 37.203125 14.796875 27.296875 
z
" id="DejaVuSans-64"/>
      <path d="M 48.78125 52.59375 
L 48.78125 44.1875 
Q 44.96875 46.296875 41.140625 47.34375 
Q 37.3125 48.390625 33.40625 48.390625 
Q 24.65625 48.390625 19.8125 42.84375 
Q 14.984375 37.3125 14.984375 27.296875 
Q 14.984375 17.28125 19.8125 11.734375 
Q 24.65625 6.203125 33.40625 6.203125 
Q 37.3125 6.203125 41.140625 7.25 
Q 44.96875 8.296875 48.78125 10.40625 
L 48.78125 2.09375 
Q 45.015625 0.34375 40.984375 -0.53125 
Q 36.96875 -1.421875 32.421875 -1.421875 
Q 20.0625 -1.421875 12.78125 6.34375 
Q 5.515625 14.109375 5.515625 27.296875 
Q 5.515625 40.671875 12.859375 48.328125 
Q 20.21875 56 33.015625 56 
Q 37.15625 56 41.109375 55.140625 
Q 45.0625 54.296875 48.78125 52.59375 
z
" id="DejaVuSans-63"/>
      <path d="M 18.3125 70.21875 
L 18.3125 54.6875 
L 36.8125 54.6875 
L 36.8125 47.703125 
L 18.3125 47.703125 
L 18.3125 18.015625 
Q 18.3125 11.328125 20.140625 9.421875 
Q 21.96875 7.515625 27.59375 7.515625 
L 36.8125 7.515625 
L 36.8125 0 
L 27.59375 0 
Q 17.1875 0 13.234375 3.875 
Q 9.28125 7.765625 9.28125 18.015625 
L 9.28125 47.703125 
L 2.6875 47.703125 
L 2.6875 54.6875 
L 9.28125 54.6875 
L 9.28125 70.21875 
z
" id="DejaVuSans-74"/>
     </defs>
     <g transform="translate(85.982813 27.298437)scale(0.1 -0.1)">
      <use xlink:href="#DejaVuSans-50"/>
      <use x="60.287109" xlink:href="#DejaVuSans-72"/>
      <use x="101.369141" xlink:href="#DejaVuSans-65"/>
      <use x="162.892578" xlink:href="#DejaVuSans-64"/>
      <use x="226.369141" xlink:href="#DejaVuSans-69"/>
      <use x="254.152344" xlink:href="#DejaVuSans-63"/>
      <use x="309.132812" xlink:href="#DejaVuSans-74"/>
      <use x="348.341797" xlink:href="#DejaVuSans-65"/>
      <use x="409.865234" xlink:href="#DejaVuSans-64"/>
     </g>
    </g>
    <g id="line2d_18">
     <path d="M 57.982813 38.476562 
L 77.982813 38.476562 
" style="fill:none;stroke:#ff7f0e;stroke-linecap:square;stroke-width:1.5;"/>
    </g>
    <g id="line2d_19"/>
    <g id="text_16">
     <!-- Real Data -->
     <defs>
      <path d="M 34.28125 27.484375 
Q 23.390625 27.484375 19.1875 25 
Q 14.984375 22.515625 14.984375 16.5 
Q 14.984375 11.71875 18.140625 8.90625 
Q 21.296875 6.109375 26.703125 6.109375 
Q 34.1875 6.109375 38.703125 11.40625 
Q 43.21875 16.703125 43.21875 25.484375 
L 43.21875 27.484375 
z
M 52.203125 31.203125 
L 52.203125 0 
L 43.21875 0 
L 43.21875 8.296875 
Q 40.140625 3.328125 35.546875 0.953125 
Q 30.953125 -1.421875 24.3125 -1.421875 
Q 15.921875 -1.421875 10.953125 3.296875 
Q 6 8.015625 6 15.921875 
Q 6 25.140625 12.171875 29.828125 
Q 18.359375 34.515625 30.609375 34.515625 
L 43.21875 34.515625 
L 43.21875 35.40625 
Q 43.21875 41.609375 39.140625 45 
Q 35.0625 48.390625 27.6875 48.390625 
Q 23 48.390625 18.546875 47.265625 
Q 14.109375 46.140625 10.015625 43.890625 
L 10.015625 52.203125 
Q 14.9375 54.109375 19.578125 55.046875 
Q 24.21875 56 28.609375 56 
Q 40.484375 56 46.34375 49.84375 
Q 52.203125 43.703125 52.203125 31.203125 
z
" id="DejaVuSans-61"/>
      <path d="M 9.421875 75.984375 
L 18.40625 75.984375 
L 18.40625 0 
L 9.421875 0 
z
" id="DejaVuSans-6c"/>
      <path id="DejaVuSans-20"/>
      <path d="M 19.671875 64.796875 
L 19.671875 8.109375 
L 31.59375 8.109375 
Q 46.6875 8.109375 53.6875 14.9375 
Q 60.6875 21.78125 60.6875 36.53125 
Q 60.6875 51.171875 53.6875 57.984375 
Q 46.6875 64.796875 31.59375 64.796875 
z
M 9.8125 72.90625 
L 30.078125 72.90625 
Q 51.265625 72.90625 61.171875 64.09375 
Q 71.09375 55.28125 71.09375 36.53125 
Q 71.09375 17.671875 61.125 8.828125 
Q 51.171875 0 30.078125 0 
L 9.8125 0 
z
" id="DejaVuSans-44"/>
     </defs>
     <g transform="translate(85.982813 41.976562)scale(0.1 -0.1)">
      <use xlink:href="#DejaVuSans-52"/>
      <use x="69.419922" xlink:href="#DejaVuSans-65"/>
      <use x="130.943359" xlink:href="#DejaVuSans-61"/>
      <use x="192.222656" xlink:href="#DejaVuSans-6c"/>
      <use x="220.005859" xlink:href="#DejaVuSans-20"/>
      <use x="251.792969" xlink:href="#DejaVuSans-44"/>
      <use x="328.794922" xlink:href="#DejaVuSans-61"/>
      <use x="390.074219" xlink:href="#DejaVuSans-74"/>
      <use x="429.283203" xlink:href="#DejaVuSans-61"/>
     </g>
    </g>
    <g id="line2d_20"/>
    <g id="line2d_21">
     <g>
      <use style="fill:#008000;stroke:#008000;" x="67.982813" xlink:href="#mf4a0e45fed" y="53.154688"/>
     </g>
    </g>
    <g id="text_17">
     <!-- Start Point for Forecast -->
     <defs>
      <path d="M 53.515625 70.515625 
L 53.515625 60.890625 
Q 47.90625 63.578125 42.921875 64.890625 
Q 37.9375 66.21875 33.296875 66.21875 
Q 25.25 66.21875 20.875 63.09375 
Q 16.5 59.96875 16.5 54.203125 
Q 16.5 49.359375 19.40625 46.890625 
Q 22.3125 44.4375 30.421875 42.921875 
L 36.375 41.703125 
Q 47.40625 39.59375 52.65625 34.296875 
Q 57.90625 29 57.90625 20.125 
Q 57.90625 9.515625 50.796875 4.046875 
Q 43.703125 -1.421875 29.984375 -1.421875 
Q 24.8125 -1.421875 18.96875 -0.25 
Q 13.140625 0.921875 6.890625 3.21875 
L 6.890625 13.375 
Q 12.890625 10.015625 18.65625 8.296875 
Q 24.421875 6.59375 29.984375 6.59375 
Q 38.421875 6.59375 43.015625 9.90625 
Q 47.609375 13.234375 47.609375 19.390625 
Q 47.609375 24.75 44.3125 27.78125 
Q 41.015625 30.8125 33.5 32.328125 
L 27.484375 33.5 
Q 16.453125 35.6875 11.515625 40.375 
Q 6.59375 45.0625 6.59375 53.421875 
Q 6.59375 63.09375 13.40625 68.65625 
Q 20.21875 74.21875 32.171875 74.21875 
Q 37.3125 74.21875 42.625 73.28125 
Q 47.953125 72.359375 53.515625 70.515625 
z
" id="DejaVuSans-53"/>
      <path d="M 30.609375 48.390625 
Q 23.390625 48.390625 19.1875 42.75 
Q 14.984375 37.109375 14.984375 27.296875 
Q 14.984375 17.484375 19.15625 11.84375 
Q 23.34375 6.203125 30.609375 6.203125 
Q 37.796875 6.203125 41.984375 11.859375 
Q 46.1875 17.53125 46.1875 27.296875 
Q 46.1875 37.015625 41.984375 42.703125 
Q 37.796875 48.390625 30.609375 48.390625 
z
M 30.609375 56 
Q 42.328125 56 49.015625 48.375 
Q 55.71875 40.765625 55.71875 27.296875 
Q 55.71875 13.875 49.015625 6.21875 
Q 42.328125 -1.421875 30.609375 -1.421875 
Q 18.84375 -1.421875 12.171875 6.21875 
Q 5.515625 13.875 5.515625 27.296875 
Q 5.515625 40.765625 12.171875 48.375 
Q 18.84375 56 30.609375 56 
z
" id="DejaVuSans-6f"/>
      <path d="M 54.890625 33.015625 
L 54.890625 0 
L 45.90625 0 
L 45.90625 32.71875 
Q 45.90625 40.484375 42.875 44.328125 
Q 39.84375 48.1875 33.796875 48.1875 
Q 26.515625 48.1875 22.3125 43.546875 
Q 18.109375 38.921875 18.109375 30.90625 
L 18.109375 0 
L 9.078125 0 
L 9.078125 54.6875 
L 18.109375 54.6875 
L 18.109375 46.1875 
Q 21.34375 51.125 25.703125 53.5625 
Q 30.078125 56 35.796875 56 
Q 45.21875 56 50.046875 50.171875 
Q 54.890625 44.34375 54.890625 33.015625 
z
" id="DejaVuSans-6e"/>
      <path d="M 9.8125 72.90625 
L 51.703125 72.90625 
L 51.703125 64.59375 
L 19.671875 64.59375 
L 19.671875 43.109375 
L 48.578125 43.109375 
L 48.578125 34.8125 
L 19.671875 34.8125 
L 19.671875 0 
L 9.8125 0 
z
" id="DejaVuSans-46"/>
     </defs>
     <g transform="translate(85.982813 56.654688)scale(0.1 -0.1)">
      <use xlink:href="#DejaVuSans-53"/>
      <use x="63.476562" xlink:href="#DejaVuSans-74"/>
      <use x="102.685547" xlink:href="#DejaVuSans-61"/>
      <use x="163.964844" xlink:href="#DejaVuSans-72"/>
      <use x="205.078125" xlink:href="#DejaVuSans-74"/>
      <use x="244.287109" xlink:href="#DejaVuSans-20"/>
      <use x="276.074219" xlink:href="#DejaVuSans-50"/>
      <use x="336.330078" xlink:href="#DejaVuSans-6f"/>
      <use x="397.511719" xlink:href="#DejaVuSans-69"/>
      <use x="425.294922" xlink:href="#DejaVuSans-6e"/>
      <use x="488.673828" xlink:href="#DejaVuSans-74"/>
      <use x="527.882812" xlink:href="#DejaVuSans-20"/>
      <use x="559.669922" xlink:href="#DejaVuSans-66"/>
      <use x="594.875" xlink:href="#DejaVuSans-6f"/>
      <use x="656.056641" xlink:href="#DejaVuSans-72"/>
      <use x="697.169922" xlink:href="#DejaVuSans-20"/>
      <use x="728.957031" xlink:href="#DejaVuSans-46"/>
      <use x="786.429688" xlink:href="#DejaVuSans-6f"/>
      <use x="847.611328" xlink:href="#DejaVuSans-72"/>
      <use x="888.693359" xlink:href="#DejaVuSans-65"/>
      <use x="950.216797" xlink:href="#DejaVuSans-63"/>
      <use x="1005.197266" xlink:href="#DejaVuSans-61"/>
      <use x="1066.476562" xlink:href="#DejaVuSans-73"/>
      <use x="1118.576172" xlink:href="#DejaVuSans-74"/>
     </g>
    </g>
   </g>
  </g>
  <g id="axes_2">
   <g id="patch_8">
    <path d="M 48.982813 645.74 
L 1166.422812 645.74 
L 1166.422812 516.14 
L 48.982813 516.14 
z
" style="fill:none;"/>
   </g>
   <g id="matplotlib.axis_3">
    <g id="xtick_6">
     <g id="line2d_22">
      <g>
       <use style="stroke:#000000;stroke-width:0.8;" x="99.77554" xlink:href="#m122984af4f" y="645.74"/>
      </g>
     </g>
     <g id="text_18">
      <!-- 0 -->
      <g transform="translate(96.59429 660.338437)scale(0.1 -0.1)">
       <use xlink:href="#DejaVuSans-30"/>
      </g>
     </g>
    </g>
    <g id="xtick_7">
     <g id="line2d_23">
      <g>
       <use style="stroke:#000000;stroke-width:0.8;" x="224.267518" xlink:href="#m122984af4f" y="645.74"/>
      </g>
     </g>
     <g id="text_19">
      <!-- 25 -->
      <g transform="translate(217.905018 660.338437)scale(0.1 -0.1)">
       <use xlink:href="#DejaVuSans-32"/>
       <use x="63.623047" xlink:href="#DejaVuSans-35"/>
      </g>
     </g>
    </g>
    <g id="xtick_8">
     <g id="line2d_24">
      <g>
       <use style="stroke:#000000;stroke-width:0.8;" x="348.759497" xlink:href="#m122984af4f" y="645.74"/>
      </g>
     </g>
     <g id="text_20">
      <!-- 50 -->
      <g transform="translate(342.396997 660.338437)scale(0.1 -0.1)">
       <use xlink:href="#DejaVuSans-35"/>
       <use x="63.623047" xlink:href="#DejaVuSans-30"/>
      </g>
     </g>
    </g>
    <g id="xtick_9">
     <g id="line2d_25">
      <g>
       <use style="stroke:#000000;stroke-width:0.8;" x="473.251476" xlink:href="#m122984af4f" y="645.74"/>
      </g>
     </g>
     <g id="text_21">
      <!-- 75 -->
      <defs>
       <path d="M 8.203125 72.90625 
L 55.078125 72.90625 
L 55.078125 68.703125 
L 28.609375 0 
L 18.3125 0 
L 43.21875 64.59375 
L 8.203125 64.59375 
z
" id="DejaVuSans-37"/>
      </defs>
      <g transform="translate(466.888976 660.338437)scale(0.1 -0.1)">
       <use xlink:href="#DejaVuSans-37"/>
       <use x="63.623047" xlink:href="#DejaVuSans-35"/>
      </g>
     </g>
    </g>
    <g id="xtick_10">
     <g id="line2d_26">
      <g>
       <use style="stroke:#000000;stroke-width:0.8;" x="597.743454" xlink:href="#m122984af4f" y="645.74"/>
      </g>
     </g>
     <g id="text_22">
      <!-- 100 -->
      <g transform="translate(588.199704 660.338437)scale(0.1 -0.1)">
       <use xlink:href="#DejaVuSans-31"/>
       <use x="63.623047" xlink:href="#DejaVuSans-30"/>
       <use x="127.246094" xlink:href="#DejaVuSans-30"/>
      </g>
     </g>
    </g>
    <g id="xtick_11">
     <g id="line2d_27">
      <g>
       <use style="stroke:#000000;stroke-width:0.8;" x="722.235433" xlink:href="#m122984af4f" y="645.74"/>
      </g>
     </g>
     <g id="text_23">
      <!-- 125 -->
      <g transform="translate(712.691683 660.338437)scale(0.1 -0.1)">
       <use xlink:href="#DejaVuSans-31"/>
       <use x="63.623047" xlink:href="#DejaVuSans-32"/>
       <use x="127.246094" xlink:href="#DejaVuSans-35"/>
      </g>
     </g>
    </g>
    <g id="xtick_12">
     <g id="line2d_28">
      <g>
       <use style="stroke:#000000;stroke-width:0.8;" x="846.727411" xlink:href="#m122984af4f" y="645.74"/>
      </g>
     </g>
     <g id="text_24">
      <!-- 150 -->
      <g transform="translate(837.183661 660.338437)scale(0.1 -0.1)">
       <use xlink:href="#DejaVuSans-31"/>
       <use x="63.623047" xlink:href="#DejaVuSans-35"/>
       <use x="127.246094" xlink:href="#DejaVuSans-30"/>
      </g>
     </g>
    </g>
    <g id="xtick_13">
     <g id="line2d_29">
      <g>
       <use style="stroke:#000000;stroke-width:0.8;" x="971.21939" xlink:href="#m122984af4f" y="645.74"/>
      </g>
     </g>
     <g id="text_25">
      <!-- 175 -->
      <g transform="translate(961.67564 660.338437)scale(0.1 -0.1)">
       <use xlink:href="#DejaVuSans-31"/>
       <use x="63.623047" xlink:href="#DejaVuSans-37"/>
       <use x="127.246094" xlink:href="#DejaVuSans-35"/>
      </g>
     </g>
    </g>
    <g id="xtick_14">
     <g id="line2d_30">
      <g>
       <use style="stroke:#000000;stroke-width:0.8;" x="1095.711369" xlink:href="#m122984af4f" y="645.74"/>
      </g>
     </g>
     <g id="text_26">
      <!-- 200 -->
      <g transform="translate(1086.167619 660.338437)scale(0.1 -0.1)">
       <use xlink:href="#DejaVuSans-32"/>
       <use x="63.623047" xlink:href="#DejaVuSans-30"/>
       <use x="127.246094" xlink:href="#DejaVuSans-30"/>
      </g>
     </g>
    </g>
   </g>
   <g id="matplotlib.axis_4">
    <g id="ytick_8">
     <g id="line2d_31">
      <g>
       <use style="stroke:#000000;stroke-width:0.8;" x="48.982813" xlink:href="#mde7c59ab1c" y="623.235206"/>
      </g>
     </g>
     <g id="text_27">
      <!-- −20 -->
      <defs>
       <path d="M 10.59375 35.5 
L 73.1875 35.5 
L 73.1875 27.203125 
L 10.59375 27.203125 
z
" id="DejaVuSans-2212"/>
      </defs>
      <g transform="translate(20.878125 627.034425)scale(0.1 -0.1)">
       <use xlink:href="#DejaVuSans-2212"/>
       <use x="83.789062" xlink:href="#DejaVuSans-32"/>
       <use x="147.412109" xlink:href="#DejaVuSans-30"/>
      </g>
     </g>
    </g>
    <g id="ytick_9">
     <g id="line2d_32">
      <g>
       <use style="stroke:#000000;stroke-width:0.8;" x="48.982813" xlink:href="#mde7c59ab1c" y="584.245544"/>
      </g>
     </g>
     <g id="text_28">
      <!-- 0 -->
      <g transform="translate(35.620313 588.044762)scale(0.1 -0.1)">
       <use xlink:href="#DejaVuSans-30"/>
      </g>
     </g>
    </g>
    <g id="ytick_10">
     <g id="line2d_33">
      <g>
       <use style="stroke:#000000;stroke-width:0.8;" x="48.982813" xlink:href="#mde7c59ab1c" y="545.255881"/>
      </g>
     </g>
     <g id="text_29">
      <!-- 20 -->
      <g transform="translate(29.257813 549.0551)scale(0.1 -0.1)">
       <use xlink:href="#DejaVuSans-32"/>
       <use x="63.623047" xlink:href="#DejaVuSans-30"/>
      </g>
     </g>
    </g>
    <g id="text_30">
     <!-- Temperature -->
     <defs>
      <path d="M 18.109375 8.203125 
L 18.109375 -20.796875 
L 9.078125 -20.796875 
L 9.078125 54.6875 
L 18.109375 54.6875 
L 18.109375 46.390625 
Q 20.953125 51.265625 25.265625 53.625 
Q 29.59375 56 35.59375 56 
Q 45.5625 56 51.78125 48.09375 
Q 58.015625 40.1875 58.015625 27.296875 
Q 58.015625 14.40625 51.78125 6.484375 
Q 45.5625 -1.421875 35.59375 -1.421875 
Q 29.59375 -1.421875 25.265625 0.953125 
Q 20.953125 3.328125 18.109375 8.203125 
z
M 48.6875 27.296875 
Q 48.6875 37.203125 44.609375 42.84375 
Q 40.53125 48.484375 33.40625 48.484375 
Q 26.265625 48.484375 22.1875 42.84375 
Q 18.109375 37.203125 18.109375 27.296875 
Q 18.109375 17.390625 22.1875 11.75 
Q 26.265625 6.109375 33.40625 6.109375 
Q 40.53125 6.109375 44.609375 11.75 
Q 48.6875 17.390625 48.6875 27.296875 
z
" id="DejaVuSans-70"/>
     </defs>
     <g style="fill:#0000ff;" transform="translate(14.798438 613.557187)rotate(-90)scale(0.1 -0.1)">
      <use xlink:href="#DejaVuSans-54"/>
      <use x="60.818359" xlink:href="#DejaVuSans-65"/>
      <use x="122.341797" xlink:href="#DejaVuSans-6d"/>
      <use x="219.753906" xlink:href="#DejaVuSans-70"/>
      <use x="283.230469" xlink:href="#DejaVuSans-65"/>
      <use x="344.753906" xlink:href="#DejaVuSans-72"/>
      <use x="385.867188" xlink:href="#DejaVuSans-61"/>
      <use x="447.146484" xlink:href="#DejaVuSans-74"/>
      <use x="486.355469" xlink:href="#DejaVuSans-75"/>
      <use x="549.734375" xlink:href="#DejaVuSans-72"/>
      <use x="590.816406" xlink:href="#DejaVuSans-65"/>
     </g>
    </g>
   </g>
   <g id="line2d_34">
    <path clip-path="url(#pe5b49bafe1)" d="M 99.77554 525.530036 
L 104.755219 525.451667 
L 109.734898 542.357195 
L 114.714577 553.541574 
L 119.694256 584.263886 
L 124.673935 587.484785 
L 129.653615 595.138885 
L 134.633294 588.243251 
L 139.612973 577.498363 
L 144.592652 547.75044 
L 149.572331 544.274122 
L 154.55201 528.877689 
L 159.53169 525.300777 
L 164.511369 527.217704 
L 169.491048 542.060289 
L 174.470727 567.673923 
L 179.450406 585.539534 
L 184.430085 590.56877 
L 189.409764 598.020065 
L 194.389444 594.633949 
L 199.369123 573.000633 
L 209.328481 533.348828 
L 214.30816 529.953608 
L 219.287839 528.5531 
L 224.267518 529.504837 
L 229.247198 543.655356 
L 234.226877 562.783879 
L 239.206556 573.532491 
L 244.186235 594.30858 
L 249.165914 586.269205 
L 254.145593 582.283057 
L 259.125272 568.514989 
L 264.104952 560.541778 
L 269.084631 544.837522 
L 274.06431 533.773816 
L 279.043989 527.135631 
L 284.023668 529.095641 
L 289.003347 536.225875 
L 293.983026 556.551771 
L 298.962706 573.896595 
L 303.942385 603.110672 
L 308.922064 593.432541 
L 313.901743 594.628198 
L 318.881422 583.542262 
L 323.861101 561.297008 
L 328.84078 540.228944 
L 333.82046 533.620001 
L 338.800139 530.107423 
L 343.779818 525.145988 
L 348.759497 538.723748 
L 353.739176 554.781836 
L 358.718855 581.052329 
L 363.698534 589.090886 
L 368.678214 595.71291 
L 373.657893 585.33263 
L 378.637572 576.560038 
L 383.617251 557.689685 
L 388.59693 536.167586 
L 393.576609 527.587326 
L 398.556288 526.179604 
L 403.535968 528.304151 
L 408.515647 537.868315 
L 413.495326 557.590846 
L 418.475005 573.565573 
L 423.454684 592.740455 
L 428.434363 598.885362 
L 433.414042 601.835613 
L 438.393722 574.122911 
L 443.373401 554.12525 
L 448.35308 537.481538 
L 453.332759 527.462754 
L 458.312438 523.583282 
L 463.292117 530.981571 
L 468.271796 537.287954 
L 473.251476 553.599279 
L 478.231155 576.222621 
L 483.210834 589.838026 
L 488.190513 609.628788 
L 493.170192 589.031447 
L 503.12955 553.607272 
L 508.10923 539.524206 
L 513.088909 525.834741 
L 518.068588 528.296743 
L 523.048267 527.638792 
L 528.027946 539.826181 
L 533.007625 557.46257 
L 537.987304 576.292978 
L 542.966984 588.536746 
L 547.946663 587.741844 
L 552.926342 588.585346 
L 557.906021 579.538965 
L 562.8857 554.242024 
L 567.865379 538.66039 
L 572.845058 530.678231 
L 577.824738 525.386554 
L 582.804417 526.610245 
L 587.784096 538.185106 
L 592.763775 557.308561 
L 597.743454 576.918645 
L 602.723133 595.540303 
L 607.702813 609.190935 
L 612.682492 595.940727 
L 617.662171 566.330768 
L 622.64185 551.190108 
L 627.621529 536.682639 
L 632.601208 527.678172 
L 637.580887 522.030909 
L 642.560567 525.868857 
L 647.540246 545.190769 
L 652.519925 556.647686 
L 657.499604 572.70203 
L 662.479283 591.280019 
L 667.458962 596.083097 
L 672.438641 593.280462 
L 677.418321 575.24209 
L 687.377679 541.122977 
L 692.357358 529.951659 
L 697.337037 526.645141 
L 702.316716 531.139089 
L 707.296395 541.345413 
L 712.276075 555.071724 
L 717.255754 578.168361 
L 722.235433 593.606279 
L 727.215112 601.14686 
L 732.194791 602.182621 
L 737.17447 579.595169 
L 742.154149 555.832607 
L 747.133829 539.086157 
L 752.113508 525.285181 
L 757.093187 525.262372 
L 762.072866 524.013338 
L 767.052545 538.568179 
L 772.032224 556.082336 
L 777.011903 569.93201 
L 781.991583 590.652286 
L 786.971262 603.734721 
L 791.950941 597.046259 
L 796.93062 580.947661 
L 801.910299 551.751364 
L 806.889978 538.852609 
L 811.869657 529.219043 
L 816.849337 524.481799 
L 821.829016 529.586716 
L 826.808695 537.820358 
L 831.788374 556.108264 
L 836.768053 585.173112 
L 841.747732 598.51693 
L 846.727411 604.166727 
L 851.707091 605.279687 
L 856.68677 580.663583 
L 861.666449 542.530504 
L 866.646128 535.910839 
L 871.625807 525.582088 
L 876.605486 522.429773 
L 881.585165 525.206617 
L 886.564845 539.398854 
L 891.544524 555.208382 
L 896.524203 579.361562 
L 901.503882 604.177059 
L 906.483561 594.97312 
L 911.46324 591.745868 
L 921.422599 552.083946 
L 926.402278 539.770621 
L 931.381957 529.73897 
L 936.361636 527.163118 
L 941.341315 530.316017 
L 946.320994 539.684064 
L 951.300673 557.742905 
L 956.280353 570.288141 
L 961.260032 588.007032 
L 966.239711 598.604267 
L 971.21939 604.142163 
L 976.199069 575.681932 
L 981.178748 557.541134 
L 986.158427 535.464407 
L 991.138107 526.30905 
L 996.117786 529.415161 
L 1001.097465 523.769263 
L 1006.077144 543.257076 
L 1011.056823 563.470877 
L 1016.036502 582.950385 
L 1021.016181 590.581949 
L 1025.995861 595.166879 
L 1030.97554 588.798912 
L 1035.955219 579.350255 
L 1040.934898 554.674614 
L 1045.914577 537.985089 
L 1050.894256 524.530146 
L 1055.873935 523.711169 
L 1060.853615 528.74259 
L 1065.833294 541.362958 
L 1070.812973 560.556399 
L 1075.792652 580.290218 
L 1080.772331 583.871715 
L 1085.75201 594.556906 
L 1090.73169 583.357958 
L 1095.711369 570.281123 
L 1100.691048 551.215061 
L 1105.670727 540.389192 
L 1110.650406 530.30744 
L 1115.630085 526.833461 
L 1115.630085 526.833461 
" style="fill:none;stroke:#ff0000;stroke-linecap:square;stroke-width:1.5;"/>
   </g>
   <g id="line2d_35">
    <path clip-path="url(#pe5b49bafe1)" d="M 99.77554 538.052736 
L 104.755219 539.459678 
L 109.734898 555.161985 
L 114.714577 565.156302 
L 119.694256 592.772973 
L 124.673935 594.477581 
L 129.653615 603.661791 
L 134.633294 597.328681 
L 139.612973 587.930067 
L 144.592652 560.680192 
L 149.572331 556.192287 
L 154.55201 541.679749 
L 159.53169 538.56779 
L 164.511369 540.711831 
L 169.491048 556.017223 
L 174.470727 576.988495 
L 179.450406 594.733841 
L 184.430085 598.015737 
L 189.409764 606.066108 
L 194.389444 603.175648 
L 199.369123 582.283408 
L 204.348802 566.023179 
L 209.328481 547.764281 
L 214.30816 543.102092 
L 219.287839 541.366857 
L 224.267518 543.091955 
L 229.247198 556.705391 
L 234.226877 572.348706 
L 239.206556 582.232722 
L 244.186235 603.352564 
L 249.165914 594.228301 
L 254.145593 589.610833 
L 259.125272 577.3634 
L 264.104952 571.365757 
L 269.084631 557.219079 
L 274.06431 545.797253 
L 279.043989 539.611738 
L 284.023668 542.628173 
L 289.003347 551.410984 
L 293.983026 569.32765 
L 298.962706 582.630481 
L 303.942385 612.677 
L 308.922064 602.644609 
L 313.901743 604.084264 
L 318.881422 593.718998 
L 323.861101 572.683276 
L 328.84078 552.474427 
L 333.82046 545.455898 
L 338.800139 541.7897 
L 343.779818 539.177003 
L 348.759497 552.584963 
L 353.739176 567.995179 
L 358.718855 589.09847 
L 363.698534 596.852247 
L 368.678214 603.758895 
L 373.657893 594.521717 
L 378.637572 586.166547 
L 383.617251 568.732902 
L 388.59693 549.947117 
L 393.576609 541.249304 
L 398.556288 539.203906 
L 403.535968 542.273367 
L 408.515647 552.142625 
L 413.495326 568.937442 
L 418.475005 581.308257 
L 423.454684 600.430562 
L 428.434363 605.647554 
L 433.414042 611.559557 
L 438.393722 583.140697 
L 443.373401 566.109171 
L 448.35308 550.099762 
L 453.332759 540.189565 
L 458.312438 536.512644 
L 463.292117 543.213993 
L 468.271796 551.691905 
L 473.251476 566.736495 
L 478.231155 584.210081 
L 483.210834 598.097498 
L 488.190513 619.406226 
L 493.170192 598.583076 
L 503.12955 565.093042 
L 508.10923 552.542464 
L 513.088909 539.051651 
L 518.068588 541.217527 
L 523.048267 541.447371 
L 528.027946 553.799296 
L 533.007625 568.485552 
L 537.987304 585.101842 
L 542.966984 595.425264 
L 547.946663 595.548959 
L 552.926342 597.645433 
L 557.906021 590.702836 
L 562.8857 564.775588 
L 567.865379 551.311171 
L 572.845058 543.498812 
L 577.824738 537.909449 
L 582.804417 540.364433 
L 587.784096 552.490218 
L 592.763775 570.113994 
L 597.743454 587.291864 
L 602.723133 603.33112 
L 607.702813 618.738723 
L 612.682492 605.24869 
L 617.662171 576.758359 
L 622.64185 564.982077 
L 627.621529 549.653135 
L 632.601208 541.377969 
L 637.580887 535.501253 
L 642.560567 539.781928 
L 647.540246 557.354179 
L 652.519925 568.134235 
L 657.499604 581.756249 
L 662.479283 600.121803 
L 667.458962 605.403869 
L 672.438641 602.869014 
L 677.418321 585.268272 
L 687.377679 554.118426 
L 692.357358 542.824876 
L 697.337037 539.963035 
L 702.316716 544.307458 
L 707.296395 554.471283 
L 712.276075 568.322516 
L 717.255754 586.259438 
L 722.235433 602.213929 
L 727.215112 610.557717 
L 732.194791 612.100148 
L 737.17447 589.429843 
L 742.154149 568.053078 
L 747.133829 552.254916 
L 752.113508 538.738174 
L 757.093187 538.782623 
L 762.072866 538.503067 
L 767.052545 553.354229 
L 772.032224 569.268542 
L 777.011903 579.706309 
L 781.991583 599.626692 
L 786.971262 613.794444 
L 791.950941 607.081399 
L 796.93062 591.978987 
L 801.910299 563.879099 
L 806.889978 551.806145 
L 811.869657 541.737649 
L 816.849337 537.585835 
L 821.829016 542.708102 
L 826.808695 552.121376 
L 831.788374 567.980889 
L 836.768053 593.579435 
L 841.747732 606.328703 
L 846.727411 613.524246 
L 851.707091 616.743427 
L 856.68677 590.035976 
L 861.666449 557.156111 
L 866.646128 549.451754 
L 871.625807 538.403838 
L 876.605486 535.734606 
L 881.585165 538.950473 
L 886.564845 553.811773 
L 891.544524 567.607933 
L 896.524203 587.836881 
L 901.503882 613.674941 
L 906.483561 604.104343 
L 911.46324 601.314301 
L 916.442919 581.950885 
L 921.422599 564.356137 
L 926.402278 552.541879 
L 931.381957 542.463442 
L 936.361636 539.936327 
L 941.341315 542.643964 
L 946.320994 553.738667 
L 951.300673 569.82473 
L 956.280353 580.167498 
L 961.260032 595.696963 
L 966.239711 608.290858 
L 971.21939 614.37695 
L 976.199069 585.280645 
L 981.178748 569.755913 
L 986.158427 548.902974 
L 991.138107 539.809805 
L 996.117786 542.141972 
L 1001.097465 538.463687 
L 1006.077144 556.554695 
L 1011.056823 573.833764 
L 1016.036502 591.821878 
L 1021.016181 599.693053 
L 1025.995861 604.23067 
L 1030.97554 598.457256 
L 1035.955219 589.307318 
L 1040.934898 566.69345 
L 1045.914577 550.39004 
L 1050.894256 537.655042 
L 1055.873935 536.901566 
L 1060.853615 542.426791 
L 1065.833294 554.57519 
L 1070.812973 571.916681 
L 1075.792652 587.309429 
L 1080.772331 590.463712 
L 1085.75201 603.35116 
L 1090.73169 592.336542 
L 1095.711369 579.2721 
L 1100.691048 562.481904 
L 1105.670727 552.735268 
L 1110.650406 542.446481 
L 1115.630085 538.853584 
L 1115.630085 538.853584 
" style="fill:none;stroke:#008000;stroke-linecap:square;stroke-width:1.5;"/>
   </g>
   <g id="line2d_36">
    <path clip-path="url(#pe5b49bafe1)" d="M 99.77554 551.181725 
L 104.755219 554.215316 
L 109.734898 567.444801 
L 114.714577 576.116745 
L 119.694256 600.693567 
L 124.673935 601.63542 
L 129.653615 612.482442 
L 134.633294 606.032187 
L 139.612973 598.678776 
L 144.592652 573.742079 
L 149.572331 568.560119 
L 154.55201 555.296694 
L 159.53169 552.776207 
L 164.511369 554.819071 
L 169.491048 569.756712 
L 174.470727 585.924729 
L 179.450406 604.049758 
L 184.430085 606.088137 
L 189.409764 615.158497 
L 194.389444 613.226365 
L 199.369123 592.517025 
L 204.348802 579.34197 
L 209.328481 562.648 
L 214.30816 557.103475 
L 219.287839 554.949491 
L 224.267518 556.740481 
L 229.247198 569.915712 
L 234.226877 581.630643 
L 239.206556 589.777416 
L 244.186235 612.54736 
L 249.165914 601.900043 
L 254.145593 597.639331 
L 259.125272 586.390755 
L 264.104952 581.636823 
L 274.06431 558.46246 
L 279.043989 553.535141 
L 284.023668 557.271131 
L 289.003347 566.972343 
L 293.983026 581.339819 
L 298.962706 591.738577 
L 303.942385 622.855252 
L 308.922064 612.230374 
L 313.901743 614.085697 
L 318.881422 603.946435 
L 323.861101 584.378975 
L 328.84078 565.264733 
L 333.82046 558.191482 
L 338.800139 554.300508 
L 343.779818 553.869477 
L 348.759497 566.712146 
L 353.739176 581.179552 
L 358.718855 598.04032 
L 368.678214 612.539367 
L 373.657893 604.849631 
L 378.637572 596.685 
L 383.617251 580.584005 
L 388.59693 565.023445 
L 393.576609 556.638133 
L 398.556288 552.25589 
L 403.535968 557.072868 
L 408.515647 566.972441 
L 413.495326 580.611707 
L 418.475005 589.787944 
L 423.454684 609.086247 
L 428.434363 613.186985 
L 433.414042 622.702412 
L 438.393722 593.677884 
L 448.35308 563.555679 
L 453.332759 554.045516 
L 458.312438 550.622418 
L 463.292117 556.244143 
L 468.271796 566.840266 
L 473.251476 579.616769 
L 478.231155 591.583164 
L 483.210834 606.326364 
L 488.190513 630.011414 
L 493.170192 609.449241 
L 498.149871 592.638185 
L 503.12955 577.732983 
L 508.10923 567.193922 
L 513.088909 553.939269 
L 518.068588 555.166079 
L 523.048267 556.63365 
L 533.007625 579.757307 
L 537.987304 594.171512 
L 542.966984 603.844867 
L 547.946663 604.544537 
L 552.926342 608.238807 
L 557.906021 601.896398 
L 562.8857 576.722391 
L 567.865379 565.909466 
L 577.824738 551.590337 
L 582.804417 556.506348 
L 587.784096 568.227011 
L 602.723133 612.236027 
L 607.702813 630.101675 
L 612.682492 616.131094 
L 617.662171 587.597017 
L 622.64185 579.72672 
L 627.621529 564.789078 
L 632.601208 556.917884 
L 637.580887 550.18125 
L 642.560567 555.635514 
L 647.540246 570.525432 
L 652.519925 580.099773 
L 657.499604 590.27933 
L 662.479283 609.527025 
L 667.458962 616.337155 
L 672.438641 613.611388 
L 677.418321 596.359008 
L 682.398 581.886065 
L 687.377679 568.788911 
L 692.357358 558.610815 
L 697.337037 555.129038 
L 702.316716 558.387015 
L 707.296395 568.414162 
L 712.276075 582.126455 
L 717.255754 594.902997 
L 722.235433 612.255132 
L 727.215112 621.18162 
L 732.194791 622.46516 
L 737.17447 600.952185 
L 742.154149 580.998582 
L 747.133829 567.129745 
L 752.113508 554.95183 
L 757.093187 553.61351 
L 762.072866 554.987506 
L 767.052545 568.965086 
L 772.032224 581.865732 
L 777.011903 588.898804 
L 781.991583 610.075025 
L 786.971262 623.436003 
L 791.950941 617.957175 
L 796.93062 603.616992 
L 801.910299 577.371959 
L 806.889978 567.192284 
L 811.869657 555.604322 
L 816.849337 552.657874 
L 821.829016 557.565308 
L 826.808695 567.368576 
L 831.788374 579.469037 
L 836.768053 603.362799 
L 841.747732 616.005743 
L 846.727411 623.082561 
L 851.707091 627.523289 
L 861.666449 572.985622 
L 866.646128 565.396849 
L 871.625807 552.951076 
L 876.605486 550.394134 
L 881.585165 554.422351 
L 886.564845 568.896795 
L 891.544524 580.266103 
L 896.524203 596.695937 
L 901.503882 623.289012 
L 906.483561 614.323339 
L 911.46324 611.787451 
L 916.442919 593.204276 
L 921.422599 577.086827 
L 926.402278 568.175954 
L 931.381957 557.815426 
L 936.361636 553.391074 
L 941.341315 555.581319 
L 946.320994 567.774946 
L 951.300673 581.274687 
L 956.280353 589.393778 
L 961.260032 604.518998 
L 966.239711 617.857752 
L 971.21939 624.995004 
L 976.199069 596.053758 
L 981.178748 582.85186 
L 986.158427 565.473698 
L 991.138107 556.244338 
L 996.117786 556.514731 
L 1001.097465 554.820825 
L 1006.077144 570.647587 
L 1011.056823 584.258651 
L 1016.036502 600.473489 
L 1021.016181 609.455674 
L 1025.995861 613.061243 
L 1030.97554 608.439019 
L 1035.955219 599.730717 
L 1040.934898 579.322299 
L 1045.914577 563.752967 
L 1050.894256 552.942888 
L 1055.873935 552.505034 
L 1060.853615 557.848178 
L 1065.833294 569.120596 
L 1070.812973 583.115806 
L 1075.792652 594.549829 
L 1080.772331 597.448106 
L 1085.75201 612.202691 
L 1090.73169 602.498866 
L 1095.711369 588.075654 
L 1100.691048 574.0423 
L 1105.670727 566.879762 
L 1110.650406 555.68971 
L 1115.630085 551.326767 
L 1115.630085 551.326767 
" style="fill:none;stroke:#0000ff;stroke-linecap:square;stroke-width:1.5;"/>
   </g>
   <g id="line2d_37">
    <defs>
     <path d="M 0 3 
C 0.795609 3 1.55874 2.683901 2.12132 2.12132 
C 2.683901 1.55874 3 0.795609 3 0 
C 3 -0.795609 2.683901 -1.55874 2.12132 -2.12132 
C 1.55874 -2.683901 0.795609 -3 0 -3 
C -0.795609 -3 -1.55874 -2.683901 -2.12132 -2.12132 
C -2.683901 -1.55874 -3 -0.795609 -3 0 
C -3 0.795609 -2.683901 1.55874 -2.12132 2.12132 
C -1.55874 2.683901 -0.795609 3 0 3 
z
" id="m4dfcf5ce70" style="stroke:#ff0000;"/>
    </defs>
    <g clip-path="url(#pe5b49bafe1)">
     <use style="fill:#ff0000;stroke:#ff0000;" x="144.592652" xlink:href="#m4dfcf5ce70" y="639.849091"/>
     <use style="fill:#ff0000;stroke:#ff0000;" x="189.409764" xlink:href="#m4dfcf5ce70" y="639.849091"/>
     <use style="fill:#ff0000;stroke:#ff0000;" x="209.328481" xlink:href="#m4dfcf5ce70" y="639.849091"/>
     <use style="fill:#ff0000;stroke:#ff0000;" x="328.84078" xlink:href="#m4dfcf5ce70" y="639.849091"/>
     <use style="fill:#ff0000;stroke:#ff0000;" x="378.637572" xlink:href="#m4dfcf5ce70" y="639.849091"/>
     <use style="fill:#ff0000;stroke:#ff0000;" x="433.414042" xlink:href="#m4dfcf5ce70" y="639.849091"/>
     <use style="fill:#ff0000;stroke:#ff0000;" x="438.393722" xlink:href="#m4dfcf5ce70" y="639.849091"/>
     <use style="fill:#ff0000;stroke:#ff0000;" x="612.682492" xlink:href="#m4dfcf5ce70" y="639.849091"/>
     <use style="fill:#ff0000;stroke:#ff0000;" x="617.662171" xlink:href="#m4dfcf5ce70" y="639.849091"/>
     <use style="fill:#ff0000;stroke:#ff0000;" x="732.194791" xlink:href="#m4dfcf5ce70" y="639.849091"/>
     <use style="fill:#ff0000;stroke:#ff0000;" x="737.17447" xlink:href="#m4dfcf5ce70" y="639.849091"/>
     <use style="fill:#ff0000;stroke:#ff0000;" x="801.910299" xlink:href="#m4dfcf5ce70" y="639.849091"/>
     <use style="fill:#ff0000;stroke:#ff0000;" x="851.707091" xlink:href="#m4dfcf5ce70" y="639.849091"/>
     <use style="fill:#ff0000;stroke:#ff0000;" x="901.503882" xlink:href="#m4dfcf5ce70" y="639.849091"/>
     <use style="fill:#ff0000;stroke:#ff0000;" x="906.483561" xlink:href="#m4dfcf5ce70" y="639.849091"/>
     <use style="fill:#ff0000;stroke:#ff0000;" x="976.199069" xlink:href="#m4dfcf5ce70" y="639.849091"/>
     <use style="fill:#ff0000;stroke:#ff0000;" x="981.178748" xlink:href="#m4dfcf5ce70" y="639.849091"/>
     <use style="fill:#ff0000;stroke:#ff0000;" x="1040.934898" xlink:href="#m4dfcf5ce70" y="639.849091"/>
    </g>
   </g>
   <g id="patch_9">
    <path d="M 48.982813 645.74 
L 48.982813 516.14 
" style="fill:none;stroke:#000000;stroke-linecap:square;stroke-linejoin:miter;stroke-width:0.8;"/>
   </g>
   <g id="patch_10">
    <path d="M 1166.422812 645.74 
L 1166.422812 516.14 
" style="fill:none;stroke:#000000;stroke-linecap:square;stroke-linejoin:miter;stroke-width:0.8;"/>
   </g>
   <g id="patch_11">
    <path d="M 48.982813 645.74 
L 1166.422813 645.74 
" style="fill:none;stroke:#000000;stroke-linecap:square;stroke-linejoin:miter;stroke-width:0.8;"/>
   </g>
   <g id="patch_12">
    <path d="M 48.982813 516.14 
L 1166.422813 516.14 
" style="fill:none;stroke:#000000;stroke-linecap:square;stroke-linejoin:miter;stroke-width:0.8;"/>
   </g>
   <g id="legend_2">
    <g id="patch_13">
     <path d="M 55.982813 582.8525 
L 146.995313 582.8525 
Q 148.995313 582.8525 148.995313 580.8525 
L 148.995313 523.14 
Q 148.995313 521.14 146.995313 521.14 
L 55.982813 521.14 
Q 53.982813 521.14 53.982813 523.14 
L 53.982813 580.8525 
Q 53.982813 582.8525 55.982813 582.8525 
z
" style="fill:#ffffff;opacity:0.8;stroke:#cccccc;stroke-linejoin:miter;"/>
    </g>
    <g id="line2d_38">
     <path d="M 57.982813 529.238437 
L 77.982813 529.238437 
" style="fill:none;stroke:#ff0000;stroke-linecap:square;stroke-width:1.5;"/>
    </g>
    <g id="line2d_39"/>
    <g id="text_31">
     <!-- Maxmimum -->
     <defs>
      <path d="M 9.8125 72.90625 
L 24.515625 72.90625 
L 43.109375 23.296875 
L 61.8125 72.90625 
L 76.515625 72.90625 
L 76.515625 0 
L 66.890625 0 
L 66.890625 64.015625 
L 48.09375 14.015625 
L 38.1875 14.015625 
L 19.390625 64.015625 
L 19.390625 0 
L 9.8125 0 
z
" id="DejaVuSans-4d"/>
      <path d="M 54.890625 54.6875 
L 35.109375 28.078125 
L 55.90625 0 
L 45.3125 0 
L 29.390625 21.484375 
L 13.484375 0 
L 2.875 0 
L 24.125 28.609375 
L 4.6875 54.6875 
L 15.28125 54.6875 
L 29.78125 35.203125 
L 44.28125 54.6875 
z
" id="DejaVuSans-78"/>
     </defs>
     <g transform="translate(85.982813 532.738437)scale(0.1 -0.1)">
      <use xlink:href="#DejaVuSans-4d"/>
      <use x="86.279297" xlink:href="#DejaVuSans-61"/>
      <use x="147.558594" xlink:href="#DejaVuSans-78"/>
      <use x="206.738281" xlink:href="#DejaVuSans-6d"/>
      <use x="304.150391" xlink:href="#DejaVuSans-69"/>
      <use x="331.933594" xlink:href="#DejaVuSans-6d"/>
      <use x="429.345703" xlink:href="#DejaVuSans-75"/>
      <use x="492.724609" xlink:href="#DejaVuSans-6d"/>
     </g>
    </g>
    <g id="line2d_40">
     <path d="M 57.982813 543.916562 
L 77.982813 543.916562 
" style="fill:none;stroke:#008000;stroke-linecap:square;stroke-width:1.5;"/>
    </g>
    <g id="line2d_41"/>
    <g id="text_32">
     <!-- Average -->
     <defs>
      <path d="M 34.1875 63.1875 
L 20.796875 26.90625 
L 47.609375 26.90625 
z
M 28.609375 72.90625 
L 39.796875 72.90625 
L 67.578125 0 
L 57.328125 0 
L 50.6875 18.703125 
L 17.828125 18.703125 
L 11.1875 0 
L 0.78125 0 
z
" id="DejaVuSans-41"/>
      <path d="M 2.984375 54.6875 
L 12.5 54.6875 
L 29.59375 8.796875 
L 46.6875 54.6875 
L 56.203125 54.6875 
L 35.6875 0 
L 23.484375 0 
z
" id="DejaVuSans-76"/>
     </defs>
     <g transform="translate(85.982813 547.416562)scale(0.1 -0.1)">
      <use xlink:href="#DejaVuSans-41"/>
      <use x="68.330078" xlink:href="#DejaVuSans-76"/>
      <use x="127.509766" xlink:href="#DejaVuSans-65"/>
      <use x="189.033203" xlink:href="#DejaVuSans-72"/>
      <use x="230.146484" xlink:href="#DejaVuSans-61"/>
      <use x="291.425781" xlink:href="#DejaVuSans-67"/>
      <use x="354.902344" xlink:href="#DejaVuSans-65"/>
     </g>
    </g>
    <g id="line2d_42">
     <path d="M 57.982813 558.594687 
L 77.982813 558.594687 
" style="fill:none;stroke:#0000ff;stroke-linecap:square;stroke-width:1.5;"/>
    </g>
    <g id="line2d_43"/>
    <g id="text_33">
     <!-- Minimum -->
     <g transform="translate(85.982813 562.094687)scale(0.1 -0.1)">
      <use xlink:href="#DejaVuSans-4d"/>
      <use x="86.279297" xlink:href="#DejaVuSans-69"/>
      <use x="114.0625" xlink:href="#DejaVuSans-6e"/>
      <use x="177.441406" xlink:href="#DejaVuSans-69"/>
      <use x="205.224609" xlink:href="#DejaVuSans-6d"/>
      <use x="302.636719" xlink:href="#DejaVuSans-75"/>
      <use x="366.015625" xlink:href="#DejaVuSans-6d"/>
     </g>
    </g>
    <g id="line2d_44"/>
    <g id="line2d_45">
     <g>
      <use style="fill:#ff0000;stroke:#ff0000;" x="67.982813" xlink:href="#m4dfcf5ce70" y="573.272812"/>
     </g>
    </g>
    <g id="text_34">
     <!-- Disasters -->
     <g transform="translate(85.982813 576.772812)scale(0.1 -0.1)">
      <use xlink:href="#DejaVuSans-44"/>
      <use x="77.001953" xlink:href="#DejaVuSans-69"/>
      <use x="104.785156" xlink:href="#DejaVuSans-73"/>
      <use x="156.884766" xlink:href="#DejaVuSans-61"/>
      <use x="218.164062" xlink:href="#DejaVuSans-73"/>
      <use x="270.263672" xlink:href="#DejaVuSans-74"/>
      <use x="309.472656" xlink:href="#DejaVuSans-65"/>
      <use x="370.996094" xlink:href="#DejaVuSans-72"/>
      <use x="412.109375" xlink:href="#DejaVuSans-73"/>
     </g>
    </g>
   </g>
  </g>
 </g>
 <defs>
  <clipPath id="pca37a72bd5">
   <rect height="498.96" width="1116" x="48.982813" y="10.7"/>
  </clipPath>
  <clipPath id="pe5b49bafe1">
   <rect height="129.6" width="1117.44" x="48.982813" y="516.14"/>
  </clipPath>
 </defs>
</svg>
