<?xml version="1.0" encoding="utf-8" standalone="no"?>
<!DOCTYPE svg PUBLIC "-//W3C//DTD SVG 1.1//EN"
  "http://www.w3.org/Graphics/SVG/1.1/DTD/svg11.dtd">
<!-- Created with matplotlib (http://matplotlib.org/) -->
<svg height="669pt" version="1.1" viewBox="0 0 1175 669" width="1175pt" xmlns="http://www.w3.org/2000/svg" xmlns:xlink="http://www.w3.org/1999/xlink">
 <defs>
  <style type="text/css">
*{stroke-linecap:butt;stroke-linejoin:round;}
  </style>
 </defs>
 <g id="figure_1">
  <g id="patch_1">
   <path d="M 0 669.618125 
L 1175.105625 669.618125 
L 1175.105625 -0 
L 0 -0 
z
" style="fill:none;"/>
  </g>
  <g id="axes_1">
   <g id="patch_2">
    <path d="M 46.965625 509.66 
L 1162.965625 509.66 
L 1162.965625 10.7 
L 46.965625 10.7 
z
" style="fill:none;"/>
   </g>
   <g id="matplotlib.axis_1">
    <g id="xtick_1">
     <g id="line2d_1">
      <defs>
       <path d="M 0 0 
L 0 3.5 
" id="m02dc25b0c5" style="stroke:#000000;stroke-width:0.8;"/>
      </defs>
      <g>
       <use style="stroke:#000000;stroke-width:0.8;" x="97.692898" xlink:href="#m02dc25b0c5" y="509.66"/>
      </g>
     </g>
     <g id="text_1">
      <!-- 0 -->
      <defs>
       <path d="M 31.78125 66.40625 
Q 24.171875 66.40625 20.328125 58.90625 
Q 16.5 51.421875 16.5 36.375 
Q 16.5 21.390625 20.328125 13.890625 
Q 24.171875 6.390625 31.78125 6.390625 
Q 39.453125 6.390625 43.28125 13.890625 
Q 47.125 21.390625 47.125 36.375 
Q 47.125 51.421875 43.28125 58.90625 
Q 39.453125 66.40625 31.78125 66.40625 
z
M 31.78125 74.21875 
Q 44.046875 74.21875 50.515625 64.515625 
Q 56.984375 54.828125 56.984375 36.375 
Q 56.984375 17.96875 50.515625 8.265625 
Q 44.046875 -1.421875 31.78125 -1.421875 
Q 19.53125 -1.421875 13.0625 8.265625 
Q 6.59375 17.96875 6.59375 36.375 
Q 6.59375 54.828125 13.0625 64.515625 
Q 19.53125 74.21875 31.78125 74.21875 
z
" id="DejaVuSans-30"/>
      </defs>
      <g transform="translate(94.511648 524.258437)scale(0.1 -0.1)">
       <use xlink:href="#DejaVuSans-30"/>
      </g>
     </g>
    </g>
    <g id="xtick_2">
     <g id="line2d_2">
      <g>
       <use style="stroke:#000000;stroke-width:0.8;" x="340.407121" xlink:href="#m02dc25b0c5" y="509.66"/>
      </g>
     </g>
     <g id="text_2">
      <!-- 50 -->
      <defs>
       <path d="M 10.796875 72.90625 
L 49.515625 72.90625 
L 49.515625 64.59375 
L 19.828125 64.59375 
L 19.828125 46.734375 
Q 21.96875 47.46875 24.109375 47.828125 
Q 26.265625 48.1875 28.421875 48.1875 
Q 40.625 48.1875 47.75 41.5 
Q 54.890625 34.8125 54.890625 23.390625 
Q 54.890625 11.625 47.5625 5.09375 
Q 40.234375 -1.421875 26.90625 -1.421875 
Q 22.3125 -1.421875 17.546875 -0.640625 
Q 12.796875 0.140625 7.71875 1.703125 
L 7.71875 11.625 
Q 12.109375 9.234375 16.796875 8.0625 
Q 21.484375 6.890625 26.703125 6.890625 
Q 35.15625 6.890625 40.078125 11.328125 
Q 45.015625 15.765625 45.015625 23.390625 
Q 45.015625 31 40.078125 35.4375 
Q 35.15625 39.890625 26.703125 39.890625 
Q 22.75 39.890625 18.8125 39.015625 
Q 14.890625 38.140625 10.796875 36.28125 
z
" id="DejaVuSans-35"/>
      </defs>
      <g transform="translate(334.044621 524.258437)scale(0.1 -0.1)">
       <use xlink:href="#DejaVuSans-35"/>
       <use x="63.623047" xlink:href="#DejaVuSans-30"/>
      </g>
     </g>
    </g>
    <g id="xtick_3">
     <g id="line2d_3">
      <g>
       <use style="stroke:#000000;stroke-width:0.8;" x="583.121345" xlink:href="#m02dc25b0c5" y="509.66"/>
      </g>
     </g>
     <g id="text_3">
      <!-- 100 -->
      <defs>
       <path d="M 12.40625 8.296875 
L 28.515625 8.296875 
L 28.515625 63.921875 
L 10.984375 60.40625 
L 10.984375 69.390625 
L 28.421875 72.90625 
L 38.28125 72.90625 
L 38.28125 8.296875 
L 54.390625 8.296875 
L 54.390625 0 
L 12.40625 0 
z
" id="DejaVuSans-31"/>
      </defs>
      <g transform="translate(573.577595 524.258437)scale(0.1 -0.1)">
       <use xlink:href="#DejaVuSans-31"/>
       <use x="63.623047" xlink:href="#DejaVuSans-30"/>
       <use x="127.246094" xlink:href="#DejaVuSans-30"/>
      </g>
     </g>
    </g>
    <g id="xtick_4">
     <g id="line2d_4">
      <g>
       <use style="stroke:#000000;stroke-width:0.8;" x="825.835568" xlink:href="#m02dc25b0c5" y="509.66"/>
      </g>
     </g>
     <g id="text_4">
      <!-- 150 -->
      <g transform="translate(816.291818 524.258437)scale(0.1 -0.1)">
       <use xlink:href="#DejaVuSans-31"/>
       <use x="63.623047" xlink:href="#DejaVuSans-35"/>
       <use x="127.246094" xlink:href="#DejaVuSans-30"/>
      </g>
     </g>
    </g>
    <g id="xtick_5">
     <g id="line2d_5">
      <g>
       <use style="stroke:#000000;stroke-width:0.8;" x="1068.549792" xlink:href="#m02dc25b0c5" y="509.66"/>
      </g>
     </g>
     <g id="text_5">
      <!-- 200 -->
      <defs>
       <path d="M 19.1875 8.296875 
L 53.609375 8.296875 
L 53.609375 0 
L 7.328125 0 
L 7.328125 8.296875 
Q 12.9375 14.109375 22.625 23.890625 
Q 32.328125 33.6875 34.8125 36.53125 
Q 39.546875 41.84375 41.421875 45.53125 
Q 43.3125 49.21875 43.3125 52.78125 
Q 43.3125 58.59375 39.234375 62.25 
Q 35.15625 65.921875 28.609375 65.921875 
Q 23.96875 65.921875 18.8125 64.3125 
Q 13.671875 62.703125 7.8125 59.421875 
L 7.8125 69.390625 
Q 13.765625 71.78125 18.9375 73 
Q 24.125 74.21875 28.421875 74.21875 
Q 39.75 74.21875 46.484375 68.546875 
Q 53.21875 62.890625 53.21875 53.421875 
Q 53.21875 48.921875 51.53125 44.890625 
Q 49.859375 40.875 45.40625 35.40625 
Q 44.1875 33.984375 37.640625 27.21875 
Q 31.109375 20.453125 19.1875 8.296875 
z
" id="DejaVuSans-32"/>
      </defs>
      <g transform="translate(1059.006042 524.258437)scale(0.1 -0.1)">
       <use xlink:href="#DejaVuSans-32"/>
       <use x="63.623047" xlink:href="#DejaVuSans-30"/>
       <use x="127.246094" xlink:href="#DejaVuSans-30"/>
      </g>
     </g>
    </g>
    <g id="text_6">
     <!-- Time -->
     <defs>
      <path d="M -0.296875 72.90625 
L 61.375 72.90625 
L 61.375 64.59375 
L 35.5 64.59375 
L 35.5 0 
L 25.59375 0 
L 25.59375 64.59375 
L -0.296875 64.59375 
z
" id="DejaVuSans-54"/>
      <path d="M 9.421875 54.6875 
L 18.40625 54.6875 
L 18.40625 0 
L 9.421875 0 
z
M 9.421875 75.984375 
L 18.40625 75.984375 
L 18.40625 64.59375 
L 9.421875 64.59375 
z
" id="DejaVuSans-69"/>
      <path d="M 52 44.1875 
Q 55.375 50.25 60.0625 53.125 
Q 64.75 56 71.09375 56 
Q 79.640625 56 84.28125 50.015625 
Q 88.921875 44.046875 88.921875 33.015625 
L 88.921875 0 
L 79.890625 0 
L 79.890625 32.71875 
Q 79.890625 40.578125 77.09375 44.375 
Q 74.3125 48.1875 68.609375 48.1875 
Q 61.625 48.1875 57.5625 43.546875 
Q 53.515625 38.921875 53.515625 30.90625 
L 53.515625 0 
L 44.484375 0 
L 44.484375 32.71875 
Q 44.484375 40.625 41.703125 44.40625 
Q 38.921875 48.1875 33.109375 48.1875 
Q 26.21875 48.1875 22.15625 43.53125 
Q 18.109375 38.875 18.109375 30.90625 
L 18.109375 0 
L 9.078125 0 
L 9.078125 54.6875 
L 18.109375 54.6875 
L 18.109375 46.1875 
Q 21.1875 51.21875 25.484375 53.609375 
Q 29.78125 56 35.6875 56 
Q 41.65625 56 45.828125 52.96875 
Q 50 49.953125 52 44.1875 
z
" id="DejaVuSans-6d"/>
      <path d="M 56.203125 29.59375 
L 56.203125 25.203125 
L 14.890625 25.203125 
Q 15.484375 15.921875 20.484375 11.0625 
Q 25.484375 6.203125 34.421875 6.203125 
Q 39.59375 6.203125 44.453125 7.46875 
Q 49.3125 8.734375 54.109375 11.28125 
L 54.109375 2.78125 
Q 49.265625 0.734375 44.1875 -0.34375 
Q 39.109375 -1.421875 33.890625 -1.421875 
Q 20.796875 -1.421875 13.15625 6.1875 
Q 5.515625 13.8125 5.515625 26.8125 
Q 5.515625 40.234375 12.765625 48.109375 
Q 20.015625 56 32.328125 56 
Q 43.359375 56 49.78125 48.890625 
Q 56.203125 41.796875 56.203125 29.59375 
z
M 47.21875 32.234375 
Q 47.125 39.59375 43.09375 43.984375 
Q 39.0625 48.390625 32.421875 48.390625 
Q 24.90625 48.390625 20.390625 44.140625 
Q 15.875 39.890625 15.1875 32.171875 
z
" id="DejaVuSans-65"/>
     </defs>
     <g transform="translate(592.578125 537.936562)scale(0.1 -0.1)">
      <use xlink:href="#DejaVuSans-54"/>
      <use x="61.037109" xlink:href="#DejaVuSans-69"/>
      <use x="88.820312" xlink:href="#DejaVuSans-6d"/>
      <use x="186.232422" xlink:href="#DejaVuSans-65"/>
     </g>
    </g>
   </g>
   <g id="matplotlib.axis_2">
    <g id="ytick_1">
     <g id="line2d_6">
      <defs>
       <path d="M 0 0 
L -3.5 0 
" id="m70a1df5437" style="stroke:#000000;stroke-width:0.8;"/>
      </defs>
      <g>
       <use style="stroke:#000000;stroke-width:0.8;" x="46.965625" xlink:href="#m70a1df5437" y="458.138382"/>
      </g>
     </g>
     <g id="text_7">
      <!-- 50 -->
      <g transform="translate(27.240625 461.9376)scale(0.1 -0.1)">
       <use xlink:href="#DejaVuSans-35"/>
       <use x="63.623047" xlink:href="#DejaVuSans-30"/>
      </g>
     </g>
    </g>
    <g id="ytick_2">
     <g id="line2d_7">
      <g>
       <use style="stroke:#000000;stroke-width:0.8;" x="46.965625" xlink:href="#m70a1df5437" y="392.589249"/>
      </g>
     </g>
     <g id="text_8">
      <!-- 75 -->
      <defs>
       <path d="M 8.203125 72.90625 
L 55.078125 72.90625 
L 55.078125 68.703125 
L 28.609375 0 
L 18.3125 0 
L 43.21875 64.59375 
L 8.203125 64.59375 
z
" id="DejaVuSans-37"/>
      </defs>
      <g transform="translate(27.240625 396.388467)scale(0.1 -0.1)">
       <use xlink:href="#DejaVuSans-37"/>
       <use x="63.623047" xlink:href="#DejaVuSans-35"/>
      </g>
     </g>
    </g>
    <g id="ytick_3">
     <g id="line2d_8">
      <g>
       <use style="stroke:#000000;stroke-width:0.8;" x="46.965625" xlink:href="#m70a1df5437" y="327.040116"/>
      </g>
     </g>
     <g id="text_9">
      <!-- 100 -->
      <g transform="translate(20.878125 330.839334)scale(0.1 -0.1)">
       <use xlink:href="#DejaVuSans-31"/>
       <use x="63.623047" xlink:href="#DejaVuSans-30"/>
       <use x="127.246094" xlink:href="#DejaVuSans-30"/>
      </g>
     </g>
    </g>
    <g id="ytick_4">
     <g id="line2d_9">
      <g>
       <use style="stroke:#000000;stroke-width:0.8;" x="46.965625" xlink:href="#m70a1df5437" y="261.490983"/>
      </g>
     </g>
     <g id="text_10">
      <!-- 125 -->
      <g transform="translate(20.878125 265.290201)scale(0.1 -0.1)">
       <use xlink:href="#DejaVuSans-31"/>
       <use x="63.623047" xlink:href="#DejaVuSans-32"/>
       <use x="127.246094" xlink:href="#DejaVuSans-35"/>
      </g>
     </g>
    </g>
    <g id="ytick_5">
     <g id="line2d_10">
      <g>
       <use style="stroke:#000000;stroke-width:0.8;" x="46.965625" xlink:href="#m70a1df5437" y="195.94185"/>
      </g>
     </g>
     <g id="text_11">
      <!-- 150 -->
      <g transform="translate(20.878125 199.741068)scale(0.1 -0.1)">
       <use xlink:href="#DejaVuSans-31"/>
       <use x="63.623047" xlink:href="#DejaVuSans-35"/>
       <use x="127.246094" xlink:href="#DejaVuSans-30"/>
      </g>
     </g>
    </g>
    <g id="ytick_6">
     <g id="line2d_11">
      <g>
       <use style="stroke:#000000;stroke-width:0.8;" x="46.965625" xlink:href="#m70a1df5437" y="130.392717"/>
      </g>
     </g>
     <g id="text_12">
      <!-- 175 -->
      <g transform="translate(20.878125 134.191936)scale(0.1 -0.1)">
       <use xlink:href="#DejaVuSans-31"/>
       <use x="63.623047" xlink:href="#DejaVuSans-37"/>
       <use x="127.246094" xlink:href="#DejaVuSans-35"/>
      </g>
     </g>
    </g>
    <g id="ytick_7">
     <g id="line2d_12">
      <g>
       <use style="stroke:#000000;stroke-width:0.8;" x="46.965625" xlink:href="#m70a1df5437" y="64.843584"/>
      </g>
     </g>
     <g id="text_13">
      <!-- 200 -->
      <g transform="translate(20.878125 68.642803)scale(0.1 -0.1)">
       <use xlink:href="#DejaVuSans-32"/>
       <use x="63.623047" xlink:href="#DejaVuSans-30"/>
       <use x="127.246094" xlink:href="#DejaVuSans-30"/>
      </g>
     </g>
    </g>
    <g id="text_14">
     <!-- Refugees -->
     <defs>
      <path d="M 44.390625 34.1875 
Q 47.5625 33.109375 50.5625 29.59375 
Q 53.5625 26.078125 56.59375 19.921875 
L 66.609375 0 
L 56 0 
L 46.6875 18.703125 
Q 43.0625 26.03125 39.671875 28.421875 
Q 36.28125 30.8125 30.421875 30.8125 
L 19.671875 30.8125 
L 19.671875 0 
L 9.8125 0 
L 9.8125 72.90625 
L 32.078125 72.90625 
Q 44.578125 72.90625 50.734375 67.671875 
Q 56.890625 62.453125 56.890625 51.90625 
Q 56.890625 45.015625 53.6875 40.46875 
Q 50.484375 35.9375 44.390625 34.1875 
z
M 19.671875 64.796875 
L 19.671875 38.921875 
L 32.078125 38.921875 
Q 39.203125 38.921875 42.84375 42.21875 
Q 46.484375 45.515625 46.484375 51.90625 
Q 46.484375 58.296875 42.84375 61.546875 
Q 39.203125 64.796875 32.078125 64.796875 
z
" id="DejaVuSans-52"/>
      <path d="M 37.109375 75.984375 
L 37.109375 68.5 
L 28.515625 68.5 
Q 23.6875 68.5 21.796875 66.546875 
Q 19.921875 64.59375 19.921875 59.515625 
L 19.921875 54.6875 
L 34.71875 54.6875 
L 34.71875 47.703125 
L 19.921875 47.703125 
L 19.921875 0 
L 10.890625 0 
L 10.890625 47.703125 
L 2.296875 47.703125 
L 2.296875 54.6875 
L 10.890625 54.6875 
L 10.890625 58.5 
Q 10.890625 67.625 15.140625 71.796875 
Q 19.390625 75.984375 28.609375 75.984375 
z
" id="DejaVuSans-66"/>
      <path d="M 8.5 21.578125 
L 8.5 54.6875 
L 17.484375 54.6875 
L 17.484375 21.921875 
Q 17.484375 14.15625 20.5 10.265625 
Q 23.53125 6.390625 29.59375 6.390625 
Q 36.859375 6.390625 41.078125 11.03125 
Q 45.3125 15.671875 45.3125 23.6875 
L 45.3125 54.6875 
L 54.296875 54.6875 
L 54.296875 0 
L 45.3125 0 
L 45.3125 8.40625 
Q 42.046875 3.421875 37.71875 1 
Q 33.40625 -1.421875 27.6875 -1.421875 
Q 18.265625 -1.421875 13.375 4.4375 
Q 8.5 10.296875 8.5 21.578125 
z
M 31.109375 56 
z
" id="DejaVuSans-75"/>
      <path d="M 45.40625 27.984375 
Q 45.40625 37.75 41.375 43.109375 
Q 37.359375 48.484375 30.078125 48.484375 
Q 22.859375 48.484375 18.828125 43.109375 
Q 14.796875 37.75 14.796875 27.984375 
Q 14.796875 18.265625 18.828125 12.890625 
Q 22.859375 7.515625 30.078125 7.515625 
Q 37.359375 7.515625 41.375 12.890625 
Q 45.40625 18.265625 45.40625 27.984375 
z
M 54.390625 6.78125 
Q 54.390625 -7.171875 48.1875 -13.984375 
Q 42 -20.796875 29.203125 -20.796875 
Q 24.46875 -20.796875 20.265625 -20.09375 
Q 16.0625 -19.390625 12.109375 -17.921875 
L 12.109375 -9.1875 
Q 16.0625 -11.328125 19.921875 -12.34375 
Q 23.78125 -13.375 27.78125 -13.375 
Q 36.625 -13.375 41.015625 -8.765625 
Q 45.40625 -4.15625 45.40625 5.171875 
L 45.40625 9.625 
Q 42.625 4.78125 38.28125 2.390625 
Q 33.9375 0 27.875 0 
Q 17.828125 0 11.671875 7.65625 
Q 5.515625 15.328125 5.515625 27.984375 
Q 5.515625 40.671875 11.671875 48.328125 
Q 17.828125 56 27.875 56 
Q 33.9375 56 38.28125 53.609375 
Q 42.625 51.21875 45.40625 46.390625 
L 45.40625 54.6875 
L 54.390625 54.6875 
z
" id="DejaVuSans-67"/>
      <path d="M 44.28125 53.078125 
L 44.28125 44.578125 
Q 40.484375 46.53125 36.375 47.5 
Q 32.28125 48.484375 27.875 48.484375 
Q 21.1875 48.484375 17.84375 46.4375 
Q 14.5 44.390625 14.5 40.28125 
Q 14.5 37.15625 16.890625 35.375 
Q 19.28125 33.59375 26.515625 31.984375 
L 29.59375 31.296875 
Q 39.15625 29.25 43.1875 25.515625 
Q 47.21875 21.78125 47.21875 15.09375 
Q 47.21875 7.46875 41.1875 3.015625 
Q 35.15625 -1.421875 24.609375 -1.421875 
Q 20.21875 -1.421875 15.453125 -0.5625 
Q 10.6875 0.296875 5.421875 2 
L 5.421875 11.28125 
Q 10.40625 8.6875 15.234375 7.390625 
Q 20.0625 6.109375 24.8125 6.109375 
Q 31.15625 6.109375 34.5625 8.28125 
Q 37.984375 10.453125 37.984375 14.40625 
Q 37.984375 18.0625 35.515625 20.015625 
Q 33.0625 21.96875 24.703125 23.78125 
L 21.578125 24.515625 
Q 13.234375 26.265625 9.515625 29.90625 
Q 5.8125 33.546875 5.8125 39.890625 
Q 5.8125 47.609375 11.28125 51.796875 
Q 16.75 56 26.8125 56 
Q 31.78125 56 36.171875 55.265625 
Q 40.578125 54.546875 44.28125 53.078125 
z
" id="DejaVuSans-73"/>
     </defs>
     <g style="fill:#ff7f0e;" transform="translate(14.798438 283.588594)rotate(-90)scale(0.1 -0.1)">
      <use xlink:href="#DejaVuSans-52"/>
      <use x="69.419922" xlink:href="#DejaVuSans-65"/>
      <use x="130.943359" xlink:href="#DejaVuSans-66"/>
      <use x="166.148438" xlink:href="#DejaVuSans-75"/>
      <use x="229.527344" xlink:href="#DejaVuSans-67"/>
      <use x="293.003906" xlink:href="#DejaVuSans-65"/>
      <use x="354.527344" xlink:href="#DejaVuSans-65"/>
      <use x="416.050781" xlink:href="#DejaVuSans-73"/>
     </g>
    </g>
   </g>
   <g id="line2d_13">
    <path clip-path="url(#p883fbe7d5b)" d="M 97.692898 418.653451 
L 102.547182 411.06615 
L 107.401467 414.099898 
L 112.255751 425.634179 
L 117.110036 427.741071 
L 121.96432 401.290452 
L 126.818605 432.140633 
L 131.672889 424.611844 
L 136.527173 427.560645 
L 141.381458 439.177873 
L 146.235742 441.133985 
L 151.090027 414.926844 
L 155.944311 394.99029 
L 160.798596 387.300229 
L 165.65288 390.483027 
L 170.507165 401.871788 
L 175.361449 404.243243 
L 180.215734 377.365478 
L 185.070018 404.633562 
L 189.924303 396.985349 
L 194.778587 400.107435 
L 199.632872 411.555549 
L 204.487156 413.819162 
L 209.341441 387.115472 
L 214.195725 401.025099 
L 219.05001 393.361203 
L 223.904294 396.506013 
L 228.758578 407.931902 
L 233.612863 410.235864 
L 238.467147 383.467081 
L 243.321432 360.815543 
L 248.175716 352.977012 
L 253.030001 356.375133 
L 257.884285 367.553793 
L 262.73857 370.307284 
L 267.592854 342.812636 
L 272.447139 285.095552 
L 277.301423 276.928236 
L 282.155708 280.803312 
L 287.009992 291.516498 
L 291.864277 295.11642 
L 296.718561 266.254957 
L 301.572846 238.96591 
L 306.42713 230.598193 
L 311.281414 234.763828 
L 316.135699 245.193397 
L 320.989983 249.309062 
L 325.844268 219.614873 
L 330.698552 333.210312 
L 335.552837 325.251877 
L 340.407121 328.823873 
L 345.261406 339.832859 
L 350.11569 342.894952 
L 354.969975 314.901964 
L 359.824259 387.487626 
L 364.678544 379.764979 
L 369.532828 382.995046 
L 374.387113 394.337739 
L 379.241397 396.793011 
L 384.095682 369.779859 
L 388.949966 417.115803 
L 393.80425 409.521801 
L 398.658535 412.565231 
L 403.512819 424.09003 
L 408.367104 426.214155 
L 413.221388 399.73578 
L 418.075673 427.195792 
L 422.929957 419.645569 
L 427.784242 422.625476 
L 432.638526 434.212298 
L 437.492811 436.223721 
L 442.347095 409.927282 
L 447.20138 428.93378 
L 452.055664 421.391119 
L 456.909949 424.360114 
L 461.764233 435.957588 
L 466.618518 437.949587 
L 471.472802 411.684534 
L 476.327087 467.795576 
L 481.181371 460.421689 
L 486.035655 463.145885 
L 490.88994 474.982296 
L 495.744224 476.539818 
L 500.598509 450.976267 
L 505.452793 472.932816 
L 510.307078 465.581233 
L 515.161362 468.273052 
L 520.015647 480.14106 
L 524.869931 481.64116 
L 529.724216 456.170357 
L 534.5785 457.63139 
L 539.432785 450.213354 
L 544.287069 453.001602 
L 549.141354 464.775501 
L 553.995638 466.446656 
L 558.849923 440.699628 
L 563.704207 402.245863 
L 568.558491 394.587289 
L 573.412776 397.724417 
L 578.26706 409.157808 
L 583.121345 411.448107 
L 587.975629 384.701328 
L 592.829914 407.944085 
L 597.684198 400.310275 
L 602.538483 403.411457 
L 607.392767 414.879915 
L 612.247052 417.106541 
L 617.101336 390.462622 
L 621.955621 208.42011 
L 626.809905 194.926726 
L 631.66419 198.245151 
L 636.518474 211.004788 
L 641.372759 220.209512 
L 646.227043 193.657152 
L 651.081327 293.72182 
L 655.935612 285.591891 
L 660.789896 289.412657 
L 665.644181 300.178894 
L 670.498465 303.682396 
L 675.35275 274.976645 
L 680.207034 309.823186 
L 685.061319 301.763211 
L 689.915603 305.482496 
L 694.769888 316.347693 
L 699.624172 319.671259 
L 704.478457 291.256126 
L 709.332741 332.146019 
L 714.187026 324.183023 
L 719.04131 327.76168 
L 723.895595 338.764125 
L 728.749879 341.83808 
L 733.604163 313.825948 
L 738.458448 286.890592 
L 743.312732 278.730977 
L 748.167017 282.594791 
L 753.021301 293.318959 
L 757.875586 296.898877 
L 762.72987 268.069821 
L 767.584155 322.909608 
L 772.438439 314.906485 
L 777.292724 318.543333 
L 782.147008 329.488986 
L 787.001293 332.666243 
L 791.855577 304.487337 
L 796.709862 307.762273 
L 801.564146 299.693377 
L 806.418431 303.425664 
L 811.272715 314.278179 
L 816.127 317.624749 
L 820.981284 289.172429 
L 825.835568 354.072712 
L 830.689853 346.204915 
L 835.544137 349.645485 
L 840.398422 360.782736 
L 845.252706 363.611563 
L 850.106991 335.99523 
L 854.961275 351.044725 
L 859.81556 343.163806 
L 864.669844 346.623419 
L 869.524129 357.742027 
L 874.378413 360.60474 
L 879.232698 332.933736 
L 884.086982 375.462137 
L 888.941267 367.687219 
L 893.795551 370.993082 
L 898.649836 382.261779 
L 903.50412 384.851538 
L 908.358404 357.621283 
L 913.212689 422.618545 
L 918.066973 415.048468 
L 922.921258 418.057211 
L 927.775542 429.615887 
L 932.629827 431.67846 
L 937.484111 405.299415 
L 942.338396 411.285254 
L 947.19268 403.665948 
L 952.046965 406.746105 
L 956.901249 418.235087 
L 961.755534 420.424345 
L 966.609818 393.840739 
L 971.464103 357.432985 
L 976.318387 349.579791 
L 981.172672 352.999157 
L 986.026956 364.157052 
L 990.88124 366.948351 
L 995.735525 339.39265 
L 1000.589809 367.977137 
L 1005.444094 360.169693 
L 1010.298378 363.522745 
L 1015.152663 374.745433 
L 1020.006947 377.418869 
L 1024.861232 350.053486 
L 1029.715516 389.708171 
L 1034.569801 381.995166 
L 1039.424085 385.21125 
L 1044.27837 396.567586 
L 1049.132654 398.998033 
L 1053.986939 372.024948 
L 1058.841223 352.972831 
L 1063.695508 345.100234 
L 1068.549792 348.547785 
L 1073.404077 359.678235 
L 1078.258361 362.519404 
L 1083.112645 334.883167 
L 1087.96693 365.225146 
L 1092.821214 357.405779 
L 1097.675499 360.776075 
L 1102.529783 371.98192 
L 1107.384068 374.686102 
L 1112.238352 347.271029 
L 1112.238352 347.271029 
" style="fill:none;stroke:#008000;stroke-dasharray:5.55,2.4;stroke-dashoffset:0;stroke-width:1.5;"/>
   </g>
   <g id="line2d_14">
    <path clip-path="url(#p883fbe7d5b)" d="M 97.692898 450.272486 
L 102.547182 387.345318 
L 107.401467 397.833179 
L 112.255751 452.894451 
L 117.110036 421.430867 
L 121.96432 447.65052 
L 126.818605 332.284046 
L 131.672889 374.235491 
L 136.527173 279.84474 
L 141.381458 400.455145 
L 146.235742 387.345318 
L 151.090027 416.186936 
L 155.944311 421.430867 
L 160.798596 403.07711 
L 165.65288 405.699075 
L 170.507165 413.564971 
L 175.361449 384.723353 
L 180.215734 397.833179 
L 185.070018 442.40659 
L 189.924303 445.028555 
L 194.778587 421.430867 
L 199.632872 416.186936 
L 204.487156 413.564971 
L 209.341441 439.784624 
L 214.195725 368.991561 
L 219.05001 445.028555 
L 223.904294 429.296763 
L 228.758578 361.125665 
L 233.612863 363.74763 
L 238.467147 348.015838 
L 243.321432 282.466705 
L 248.175716 277.222775 
L 253.030001 371.613526 
L 257.884285 243.137225 
L 262.73857 345.393873 
L 267.592854 303.442428 
L 272.447139 253.625087 
L 277.301423 130.392717 
L 282.155708 138.258613 
L 287.009992 33.38 
L 291.864277 232.649364 
L 296.718561 216.917572 
L 301.572846 161.856301 
L 306.42713 376.857457 
L 311.281414 264.112948 
L 316.135699 298.198497 
L 320.989983 403.07711 
L 325.844268 329.662081 
L 330.698552 371.613526 
L 335.552837 358.503699 
L 340.407121 382.101387 
L 345.261406 334.906012 
L 350.11569 421.430867 
L 354.969975 405.699075 
L 359.824259 403.07711 
L 364.678544 455.516416 
L 369.532828 405.699075 
L 374.387113 426.674798 
L 379.241397 408.32104 
L 384.095682 426.674798 
L 388.949966 400.455145 
L 393.80425 392.589249 
L 398.658535 439.784624 
L 403.512819 458.138382 
L 408.367104 437.162659 
L 413.221388 397.833179 
L 418.075673 426.674798 
L 422.929957 413.564971 
L 427.784242 479.114104 
L 432.638526 481.736069 
L 437.492811 452.894451 
L 442.347095 445.028555 
L 447.20138 466.004277 
L 452.055664 426.674798 
L 456.909949 447.65052 
L 461.764233 424.052832 
L 466.618518 463.382312 
L 471.472802 479.114104 
L 476.327087 455.516416 
L 481.181371 476.492139 
L 486.035655 450.272486 
L 490.88994 473.870173 
L 495.744224 387.345318 
L 500.598509 476.492139 
L 505.452793 460.760347 
L 510.307078 368.991561 
L 515.161362 439.784624 
L 520.015647 431.918728 
L 524.869931 400.455145 
L 529.724216 486.98 
L 534.5785 473.870173 
L 539.432785 437.162659 
L 544.287069 397.833179 
L 549.141354 424.052832 
L 553.995638 392.589249 
L 558.849923 424.052832 
L 568.558491 424.052832 
L 573.412776 479.114104 
L 578.26706 395.211214 
L 583.121345 376.857457 
L 587.975629 429.296763 
L 592.829914 251.003121 
L 597.684198 93.685202 
L 602.538483 209.051676 
L 607.392767 269.356879 
L 612.247052 253.625087 
L 617.101336 240.51526 
L 621.955621 235.271329 
L 626.809905 266.734913 
L 631.66419 292.954566 
L 636.518474 298.198497 
L 641.372759 321.796185 
L 646.227043 285.088671 
L 651.081327 329.662081 
L 655.935612 403.07711 
L 660.789896 345.393873 
L 665.644181 384.723353 
L 670.498465 311.308324 
L 675.35275 308.686358 
L 680.207034 277.222775 
L 685.061319 321.796185 
L 689.915603 237.893295 
L 694.769888 332.284046 
L 699.624172 363.74763 
L 704.478457 324.41815 
L 709.332741 240.51526 
L 714.187026 358.503699 
L 719.04131 311.308324 
L 723.895595 387.345318 
L 728.749879 319.17422 
L 733.604163 274.600809 
L 738.458448 245.759191 
L 743.312732 350.637803 
L 748.167017 295.576532 
L 753.021301 353.259769 
L 757.875586 392.589249 
L 762.72987 366.369595 
L 767.584155 366.369595 
L 772.438439 327.040116 
L 777.292724 316.552254 
L 782.147008 400.455145 
L 787.001293 337.527977 
L 791.855577 327.040116 
L 796.709862 400.455145 
L 801.564146 371.613526 
L 806.418431 379.479422 
L 811.272715 400.455145 
L 816.127 376.857457 
L 820.981284 340.149942 
L 825.835568 345.393873 
L 830.689853 306.064393 
L 835.544137 298.198497 
L 840.398422 387.345318 
L 845.252706 358.503699 
L 850.106991 345.393873 
L 854.961275 400.455145 
L 859.81556 334.906012 
L 864.669844 345.393873 
L 869.524129 303.442428 
L 874.378413 300.820462 
L 879.232698 452.894451 
L 884.086982 384.723353 
L 888.941267 413.564971 
L 893.795551 426.674798 
L 898.649836 408.32104 
L 903.50412 395.211214 
L 908.358404 439.784624 
L 913.212689 350.637803 
L 918.066973 384.723353 
L 922.921258 413.564971 
L 927.775542 392.589249 
L 932.629827 389.967283 
L 937.484111 452.894451 
L 942.338396 366.369595 
L 947.19268 410.943006 
L 952.046965 405.699075 
L 956.901249 324.41815 
L 961.755534 340.149942 
L 966.609818 368.991561 
L 971.464103 408.32104 
L 976.318387 353.259769 
L 981.172672 379.479422 
L 986.026956 395.211214 
L 990.88124 392.589249 
L 995.735525 397.833179 
L 1000.589809 437.162659 
L 1005.444094 416.186936 
L 1010.298378 355.881734 
L 1015.152663 458.138382 
L 1020.006947 397.833179 
L 1024.861232 327.040116 
L 1029.715516 363.74763 
L 1034.569801 395.211214 
L 1039.424085 395.211214 
L 1044.27837 376.857457 
L 1049.132654 437.162659 
L 1053.986939 295.576532 
L 1058.841223 408.32104 
L 1063.695508 355.881734 
L 1068.549792 387.345318 
L 1073.404077 358.503699 
L 1078.258361 319.17422 
L 1083.112645 340.149942 
L 1087.96693 350.637803 
L 1092.821214 358.503699 
L 1097.675499 321.796185 
L 1102.529783 292.954566 
L 1107.384068 243.137225 
L 1112.238352 298.198497 
L 1112.238352 298.198497 
" style="fill:none;stroke:#ff7f0e;stroke-linecap:square;stroke-width:1.5;"/>
   </g>
   <g id="line2d_15">
    <defs>
     <path d="M 0 3 
C 0.795609 3 1.55874 2.683901 2.12132 2.12132 
C 2.683901 1.55874 3 0.795609 3 0 
C 3 -0.795609 2.683901 -1.55874 2.12132 -2.12132 
C 1.55874 -2.683901 0.795609 -3 0 -3 
C -0.795609 -3 -1.55874 -2.683901 -2.12132 -2.12132 
C -2.683901 -1.55874 -3 -0.795609 -3 0 
C -3 0.795609 -2.683901 1.55874 -2.12132 2.12132 
C -1.55874 2.683901 -0.795609 3 0 3 
z
" id="m0d10ff0ab4" style="stroke:#008000;"/>
    </defs>
    <g clip-path="url(#p883fbe7d5b)">
     <use style="fill:#008000;stroke:#008000;" x="97.692898" xlink:href="#m0d10ff0ab4" y="418.653451"/>
     <use style="fill:#008000;stroke:#008000;" x="126.818605" xlink:href="#m0d10ff0ab4" y="432.140633"/>
     <use style="fill:#008000;stroke:#008000;" x="155.944311" xlink:href="#m0d10ff0ab4" y="394.99029"/>
     <use style="fill:#008000;stroke:#008000;" x="185.070018" xlink:href="#m0d10ff0ab4" y="404.633562"/>
     <use style="fill:#008000;stroke:#008000;" x="214.195725" xlink:href="#m0d10ff0ab4" y="401.025099"/>
     <use style="fill:#008000;stroke:#008000;" x="243.321432" xlink:href="#m0d10ff0ab4" y="360.815543"/>
     <use style="fill:#008000;stroke:#008000;" x="272.447139" xlink:href="#m0d10ff0ab4" y="285.095552"/>
     <use style="fill:#008000;stroke:#008000;" x="301.572846" xlink:href="#m0d10ff0ab4" y="238.96591"/>
     <use style="fill:#008000;stroke:#008000;" x="330.698552" xlink:href="#m0d10ff0ab4" y="333.210312"/>
     <use style="fill:#008000;stroke:#008000;" x="359.824259" xlink:href="#m0d10ff0ab4" y="387.487626"/>
     <use style="fill:#008000;stroke:#008000;" x="388.949966" xlink:href="#m0d10ff0ab4" y="417.115803"/>
     <use style="fill:#008000;stroke:#008000;" x="418.075673" xlink:href="#m0d10ff0ab4" y="427.195792"/>
     <use style="fill:#008000;stroke:#008000;" x="447.20138" xlink:href="#m0d10ff0ab4" y="428.93378"/>
     <use style="fill:#008000;stroke:#008000;" x="476.327087" xlink:href="#m0d10ff0ab4" y="467.795576"/>
     <use style="fill:#008000;stroke:#008000;" x="505.452793" xlink:href="#m0d10ff0ab4" y="472.932816"/>
     <use style="fill:#008000;stroke:#008000;" x="534.5785" xlink:href="#m0d10ff0ab4" y="457.63139"/>
     <use style="fill:#008000;stroke:#008000;" x="563.704207" xlink:href="#m0d10ff0ab4" y="402.245863"/>
     <use style="fill:#008000;stroke:#008000;" x="592.829914" xlink:href="#m0d10ff0ab4" y="407.944085"/>
     <use style="fill:#008000;stroke:#008000;" x="621.955621" xlink:href="#m0d10ff0ab4" y="208.42011"/>
     <use style="fill:#008000;stroke:#008000;" x="651.081327" xlink:href="#m0d10ff0ab4" y="293.72182"/>
     <use style="fill:#008000;stroke:#008000;" x="680.207034" xlink:href="#m0d10ff0ab4" y="309.823186"/>
     <use style="fill:#008000;stroke:#008000;" x="709.332741" xlink:href="#m0d10ff0ab4" y="332.146019"/>
     <use style="fill:#008000;stroke:#008000;" x="738.458448" xlink:href="#m0d10ff0ab4" y="286.890592"/>
     <use style="fill:#008000;stroke:#008000;" x="767.584155" xlink:href="#m0d10ff0ab4" y="322.909608"/>
     <use style="fill:#008000;stroke:#008000;" x="796.709862" xlink:href="#m0d10ff0ab4" y="307.762273"/>
     <use style="fill:#008000;stroke:#008000;" x="825.835568" xlink:href="#m0d10ff0ab4" y="354.072712"/>
     <use style="fill:#008000;stroke:#008000;" x="854.961275" xlink:href="#m0d10ff0ab4" y="351.044725"/>
     <use style="fill:#008000;stroke:#008000;" x="884.086982" xlink:href="#m0d10ff0ab4" y="375.462137"/>
     <use style="fill:#008000;stroke:#008000;" x="913.212689" xlink:href="#m0d10ff0ab4" y="422.618545"/>
     <use style="fill:#008000;stroke:#008000;" x="942.338396" xlink:href="#m0d10ff0ab4" y="411.285254"/>
     <use style="fill:#008000;stroke:#008000;" x="971.464103" xlink:href="#m0d10ff0ab4" y="357.432985"/>
     <use style="fill:#008000;stroke:#008000;" x="1000.589809" xlink:href="#m0d10ff0ab4" y="367.977137"/>
     <use style="fill:#008000;stroke:#008000;" x="1029.715516" xlink:href="#m0d10ff0ab4" y="389.708171"/>
     <use style="fill:#008000;stroke:#008000;" x="1058.841223" xlink:href="#m0d10ff0ab4" y="352.972831"/>
     <use style="fill:#008000;stroke:#008000;" x="1087.96693" xlink:href="#m0d10ff0ab4" y="365.225146"/>
    </g>
   </g>
   <g id="patch_3">
    <path d="M 46.965625 509.66 
L 46.965625 10.7 
" style="fill:none;stroke:#000000;stroke-linecap:square;stroke-linejoin:miter;stroke-width:0.8;"/>
   </g>
   <g id="patch_4">
    <path d="M 1162.965625 509.66 
L 1162.965625 10.7 
" style="fill:none;stroke:#000000;stroke-linecap:square;stroke-linejoin:miter;stroke-width:0.8;"/>
   </g>
   <g id="patch_5">
    <path d="M 46.965625 509.66 
L 1162.965625 509.66 
" style="fill:none;stroke:#000000;stroke-linecap:square;stroke-linejoin:miter;stroke-width:0.8;"/>
   </g>
   <g id="patch_6">
    <path d="M 46.965625 10.7 
L 1162.965625 10.7 
" style="fill:none;stroke:#000000;stroke-linecap:square;stroke-linejoin:miter;stroke-width:0.8;"/>
   </g>
   <g id="legend_1">
    <g id="patch_7">
     <path d="M 53.965625 62.734375 
L 201.740625 62.734375 
Q 203.740625 62.734375 203.740625 60.734375 
L 203.740625 17.7 
Q 203.740625 15.7 201.740625 15.7 
L 53.965625 15.7 
Q 51.965625 15.7 51.965625 17.7 
L 51.965625 60.734375 
Q 51.965625 62.734375 53.965625 62.734375 
z
" style="fill:#ffffff;opacity:0.8;stroke:#cccccc;stroke-linejoin:miter;"/>
    </g>
    <g id="line2d_16">
     <path d="M 55.965625 23.798437 
L 75.965625 23.798437 
" style="fill:none;stroke:#008000;stroke-dasharray:5.55,2.4;stroke-dashoffset:0;stroke-width:1.5;"/>
    </g>
    <g id="line2d_17"/>
    <g id="text_15">
     <!-- Predicated -->
     <defs>
      <path d="M 19.671875 64.796875 
L 19.671875 37.40625 
L 32.078125 37.40625 
Q 38.96875 37.40625 42.71875 40.96875 
Q 46.484375 44.53125 46.484375 51.125 
Q 46.484375 57.671875 42.71875 61.234375 
Q 38.96875 64.796875 32.078125 64.796875 
z
M 9.8125 72.90625 
L 32.078125 72.90625 
Q 44.34375 72.90625 50.609375 67.359375 
Q 56.890625 61.8125 56.890625 51.125 
Q 56.890625 40.328125 50.609375 34.8125 
Q 44.34375 29.296875 32.078125 29.296875 
L 19.671875 29.296875 
L 19.671875 0 
L 9.8125 0 
z
" id="DejaVuSans-50"/>
      <path d="M 41.109375 46.296875 
Q 39.59375 47.171875 37.8125 47.578125 
Q 36.03125 48 33.890625 48 
Q 26.265625 48 22.1875 43.046875 
Q 18.109375 38.09375 18.109375 28.8125 
L 18.109375 0 
L 9.078125 0 
L 9.078125 54.6875 
L 18.109375 54.6875 
L 18.109375 46.1875 
Q 20.953125 51.171875 25.484375 53.578125 
Q 30.03125 56 36.53125 56 
Q 37.453125 56 38.578125 55.875 
Q 39.703125 55.765625 41.0625 55.515625 
z
" id="DejaVuSans-72"/>
      <path d="M 45.40625 46.390625 
L 45.40625 75.984375 
L 54.390625 75.984375 
L 54.390625 0 
L 45.40625 0 
L 45.40625 8.203125 
Q 42.578125 3.328125 38.25 0.953125 
Q 33.9375 -1.421875 27.875 -1.421875 
Q 17.96875 -1.421875 11.734375 6.484375 
Q 5.515625 14.40625 5.515625 27.296875 
Q 5.515625 40.1875 11.734375 48.09375 
Q 17.96875 56 27.875 56 
Q 33.9375 56 38.25 53.625 
Q 42.578125 51.265625 45.40625 46.390625 
z
M 14.796875 27.296875 
Q 14.796875 17.390625 18.875 11.75 
Q 22.953125 6.109375 30.078125 6.109375 
Q 37.203125 6.109375 41.296875 11.75 
Q 45.40625 17.390625 45.40625 27.296875 
Q 45.40625 37.203125 41.296875 42.84375 
Q 37.203125 48.484375 30.078125 48.484375 
Q 22.953125 48.484375 18.875 42.84375 
Q 14.796875 37.203125 14.796875 27.296875 
z
" id="DejaVuSans-64"/>
      <path d="M 48.78125 52.59375 
L 48.78125 44.1875 
Q 44.96875 46.296875 41.140625 47.34375 
Q 37.3125 48.390625 33.40625 48.390625 
Q 24.65625 48.390625 19.8125 42.84375 
Q 14.984375 37.3125 14.984375 27.296875 
Q 14.984375 17.28125 19.8125 11.734375 
Q 24.65625 6.203125 33.40625 6.203125 
Q 37.3125 6.203125 41.140625 7.25 
Q 44.96875 8.296875 48.78125 10.40625 
L 48.78125 2.09375 
Q 45.015625 0.34375 40.984375 -0.53125 
Q 36.96875 -1.421875 32.421875 -1.421875 
Q 20.0625 -1.421875 12.78125 6.34375 
Q 5.515625 14.109375 5.515625 27.296875 
Q 5.515625 40.671875 12.859375 48.328125 
Q 20.21875 56 33.015625 56 
Q 37.15625 56 41.109375 55.140625 
Q 45.0625 54.296875 48.78125 52.59375 
z
" id="DejaVuSans-63"/>
      <path d="M 34.28125 27.484375 
Q 23.390625 27.484375 19.1875 25 
Q 14.984375 22.515625 14.984375 16.5 
Q 14.984375 11.71875 18.140625 8.90625 
Q 21.296875 6.109375 26.703125 6.109375 
Q 34.1875 6.109375 38.703125 11.40625 
Q 43.21875 16.703125 43.21875 25.484375 
L 43.21875 27.484375 
z
M 52.203125 31.203125 
L 52.203125 0 
L 43.21875 0 
L 43.21875 8.296875 
Q 40.140625 3.328125 35.546875 0.953125 
Q 30.953125 -1.421875 24.3125 -1.421875 
Q 15.921875 -1.421875 10.953125 3.296875 
Q 6 8.015625 6 15.921875 
Q 6 25.140625 12.171875 29.828125 
Q 18.359375 34.515625 30.609375 34.515625 
L 43.21875 34.515625 
L 43.21875 35.40625 
Q 43.21875 41.609375 39.140625 45 
Q 35.0625 48.390625 27.6875 48.390625 
Q 23 48.390625 18.546875 47.265625 
Q 14.109375 46.140625 10.015625 43.890625 
L 10.015625 52.203125 
Q 14.9375 54.109375 19.578125 55.046875 
Q 24.21875 56 28.609375 56 
Q 40.484375 56 46.34375 49.84375 
Q 52.203125 43.703125 52.203125 31.203125 
z
" id="DejaVuSans-61"/>
      <path d="M 18.3125 70.21875 
L 18.3125 54.6875 
L 36.8125 54.6875 
L 36.8125 47.703125 
L 18.3125 47.703125 
L 18.3125 18.015625 
Q 18.3125 11.328125 20.140625 9.421875 
Q 21.96875 7.515625 27.59375 7.515625 
L 36.8125 7.515625 
L 36.8125 0 
L 27.59375 0 
Q 17.1875 0 13.234375 3.875 
Q 9.28125 7.765625 9.28125 18.015625 
L 9.28125 47.703125 
L 2.6875 47.703125 
L 2.6875 54.6875 
L 9.28125 54.6875 
L 9.28125 70.21875 
z
" id="DejaVuSans-74"/>
     </defs>
     <g transform="translate(83.965625 27.298437)scale(0.1 -0.1)">
      <use xlink:href="#DejaVuSans-50"/>
      <use x="60.287109" xlink:href="#DejaVuSans-72"/>
      <use x="101.369141" xlink:href="#DejaVuSans-65"/>
      <use x="162.892578" xlink:href="#DejaVuSans-64"/>
      <use x="226.369141" xlink:href="#DejaVuSans-69"/>
      <use x="254.152344" xlink:href="#DejaVuSans-63"/>
      <use x="309.132812" xlink:href="#DejaVuSans-61"/>
      <use x="370.412109" xlink:href="#DejaVuSans-74"/>
      <use x="409.621094" xlink:href="#DejaVuSans-65"/>
      <use x="471.144531" xlink:href="#DejaVuSans-64"/>
     </g>
    </g>
    <g id="line2d_18">
     <path d="M 55.965625 38.476562 
L 75.965625 38.476562 
" style="fill:none;stroke:#ff7f0e;stroke-linecap:square;stroke-width:1.5;"/>
    </g>
    <g id="line2d_19"/>
    <g id="text_16">
     <!-- Real Data -->
     <defs>
      <path d="M 9.421875 75.984375 
L 18.40625 75.984375 
L 18.40625 0 
L 9.421875 0 
z
" id="DejaVuSans-6c"/>
      <path id="DejaVuSans-20"/>
      <path d="M 19.671875 64.796875 
L 19.671875 8.109375 
L 31.59375 8.109375 
Q 46.6875 8.109375 53.6875 14.9375 
Q 60.6875 21.78125 60.6875 36.53125 
Q 60.6875 51.171875 53.6875 57.984375 
Q 46.6875 64.796875 31.59375 64.796875 
z
M 9.8125 72.90625 
L 30.078125 72.90625 
Q 51.265625 72.90625 61.171875 64.09375 
Q 71.09375 55.28125 71.09375 36.53125 
Q 71.09375 17.671875 61.125 8.828125 
Q 51.171875 0 30.078125 0 
L 9.8125 0 
z
" id="DejaVuSans-44"/>
     </defs>
     <g transform="translate(83.965625 41.976562)scale(0.1 -0.1)">
      <use xlink:href="#DejaVuSans-52"/>
      <use x="69.419922" xlink:href="#DejaVuSans-65"/>
      <use x="130.943359" xlink:href="#DejaVuSans-61"/>
      <use x="192.222656" xlink:href="#DejaVuSans-6c"/>
      <use x="220.005859" xlink:href="#DejaVuSans-20"/>
      <use x="251.792969" xlink:href="#DejaVuSans-44"/>
      <use x="328.794922" xlink:href="#DejaVuSans-61"/>
      <use x="390.074219" xlink:href="#DejaVuSans-74"/>
      <use x="429.283203" xlink:href="#DejaVuSans-61"/>
     </g>
    </g>
    <g id="line2d_20"/>
    <g id="line2d_21">
     <g>
      <use style="fill:#008000;stroke:#008000;" x="65.965625" xlink:href="#m0d10ff0ab4" y="53.154688"/>
     </g>
    </g>
    <g id="text_17">
     <!-- Start Point for Forecast -->
     <defs>
      <path d="M 53.515625 70.515625 
L 53.515625 60.890625 
Q 47.90625 63.578125 42.921875 64.890625 
Q 37.9375 66.21875 33.296875 66.21875 
Q 25.25 66.21875 20.875 63.09375 
Q 16.5 59.96875 16.5 54.203125 
Q 16.5 49.359375 19.40625 46.890625 
Q 22.3125 44.4375 30.421875 42.921875 
L 36.375 41.703125 
Q 47.40625 39.59375 52.65625 34.296875 
Q 57.90625 29 57.90625 20.125 
Q 57.90625 9.515625 50.796875 4.046875 
Q 43.703125 -1.421875 29.984375 -1.421875 
Q 24.8125 -1.421875 18.96875 -0.25 
Q 13.140625 0.921875 6.890625 3.21875 
L 6.890625 13.375 
Q 12.890625 10.015625 18.65625 8.296875 
Q 24.421875 6.59375 29.984375 6.59375 
Q 38.421875 6.59375 43.015625 9.90625 
Q 47.609375 13.234375 47.609375 19.390625 
Q 47.609375 24.75 44.3125 27.78125 
Q 41.015625 30.8125 33.5 32.328125 
L 27.484375 33.5 
Q 16.453125 35.6875 11.515625 40.375 
Q 6.59375 45.0625 6.59375 53.421875 
Q 6.59375 63.09375 13.40625 68.65625 
Q 20.21875 74.21875 32.171875 74.21875 
Q 37.3125 74.21875 42.625 73.28125 
Q 47.953125 72.359375 53.515625 70.515625 
z
" id="DejaVuSans-53"/>
      <path d="M 30.609375 48.390625 
Q 23.390625 48.390625 19.1875 42.75 
Q 14.984375 37.109375 14.984375 27.296875 
Q 14.984375 17.484375 19.15625 11.84375 
Q 23.34375 6.203125 30.609375 6.203125 
Q 37.796875 6.203125 41.984375 11.859375 
Q 46.1875 17.53125 46.1875 27.296875 
Q 46.1875 37.015625 41.984375 42.703125 
Q 37.796875 48.390625 30.609375 48.390625 
z
M 30.609375 56 
Q 42.328125 56 49.015625 48.375 
Q 55.71875 40.765625 55.71875 27.296875 
Q 55.71875 13.875 49.015625 6.21875 
Q 42.328125 -1.421875 30.609375 -1.421875 
Q 18.84375 -1.421875 12.171875 6.21875 
Q 5.515625 13.875 5.515625 27.296875 
Q 5.515625 40.765625 12.171875 48.375 
Q 18.84375 56 30.609375 56 
z
" id="DejaVuSans-6f"/>
      <path d="M 54.890625 33.015625 
L 54.890625 0 
L 45.90625 0 
L 45.90625 32.71875 
Q 45.90625 40.484375 42.875 44.328125 
Q 39.84375 48.1875 33.796875 48.1875 
Q 26.515625 48.1875 22.3125 43.546875 
Q 18.109375 38.921875 18.109375 30.90625 
L 18.109375 0 
L 9.078125 0 
L 9.078125 54.6875 
L 18.109375 54.6875 
L 18.109375 46.1875 
Q 21.34375 51.125 25.703125 53.5625 
Q 30.078125 56 35.796875 56 
Q 45.21875 56 50.046875 50.171875 
Q 54.890625 44.34375 54.890625 33.015625 
z
" id="DejaVuSans-6e"/>
      <path d="M 9.8125 72.90625 
L 51.703125 72.90625 
L 51.703125 64.59375 
L 19.671875 64.59375 
L 19.671875 43.109375 
L 48.578125 43.109375 
L 48.578125 34.8125 
L 19.671875 34.8125 
L 19.671875 0 
L 9.8125 0 
z
" id="DejaVuSans-46"/>
     </defs>
     <g transform="translate(83.965625 56.654688)scale(0.1 -0.1)">
      <use xlink:href="#DejaVuSans-53"/>
      <use x="63.476562" xlink:href="#DejaVuSans-74"/>
      <use x="102.685547" xlink:href="#DejaVuSans-61"/>
      <use x="163.964844" xlink:href="#DejaVuSans-72"/>
      <use x="205.078125" xlink:href="#DejaVuSans-74"/>
      <use x="244.287109" xlink:href="#DejaVuSans-20"/>
      <use x="276.074219" xlink:href="#DejaVuSans-50"/>
      <use x="336.330078" xlink:href="#DejaVuSans-6f"/>
      <use x="397.511719" xlink:href="#DejaVuSans-69"/>
      <use x="425.294922" xlink:href="#DejaVuSans-6e"/>
      <use x="488.673828" xlink:href="#DejaVuSans-74"/>
      <use x="527.882812" xlink:href="#DejaVuSans-20"/>
      <use x="559.669922" xlink:href="#DejaVuSans-66"/>
      <use x="594.875" xlink:href="#DejaVuSans-6f"/>
      <use x="656.056641" xlink:href="#DejaVuSans-72"/>
      <use x="697.169922" xlink:href="#DejaVuSans-20"/>
      <use x="728.957031" xlink:href="#DejaVuSans-46"/>
      <use x="786.429688" xlink:href="#DejaVuSans-6f"/>
      <use x="847.611328" xlink:href="#DejaVuSans-72"/>
      <use x="888.693359" xlink:href="#DejaVuSans-65"/>
      <use x="950.216797" xlink:href="#DejaVuSans-63"/>
      <use x="1005.197266" xlink:href="#DejaVuSans-61"/>
      <use x="1066.476562" xlink:href="#DejaVuSans-73"/>
      <use x="1118.576172" xlink:href="#DejaVuSans-74"/>
     </g>
    </g>
   </g>
  </g>
  <g id="axes_2">
   <g id="patch_8">
    <path d="M 46.965625 645.74 
L 1164.405625 645.74 
L 1164.405625 516.14 
L 46.965625 516.14 
z
" style="fill:none;"/>
   </g>
   <g id="matplotlib.axis_3">
    <g id="xtick_6">
     <g id="line2d_22">
      <g>
       <use style="stroke:#000000;stroke-width:0.8;" x="97.758352" xlink:href="#m02dc25b0c5" y="645.74"/>
      </g>
     </g>
     <g id="text_18">
      <!-- 0 -->
      <g transform="translate(94.577102 660.338437)scale(0.1 -0.1)">
       <use xlink:href="#DejaVuSans-30"/>
      </g>
     </g>
    </g>
    <g id="xtick_7">
     <g id="line2d_23">
      <g>
       <use style="stroke:#000000;stroke-width:0.8;" x="222.250331" xlink:href="#m02dc25b0c5" y="645.74"/>
      </g>
     </g>
     <g id="text_19">
      <!-- 25 -->
      <g transform="translate(215.887831 660.338437)scale(0.1 -0.1)">
       <use xlink:href="#DejaVuSans-32"/>
       <use x="63.623047" xlink:href="#DejaVuSans-35"/>
      </g>
     </g>
    </g>
    <g id="xtick_8">
     <g id="line2d_24">
      <g>
       <use style="stroke:#000000;stroke-width:0.8;" x="346.742309" xlink:href="#m02dc25b0c5" y="645.74"/>
      </g>
     </g>
     <g id="text_20">
      <!-- 50 -->
      <g transform="translate(340.379809 660.338437)scale(0.1 -0.1)">
       <use xlink:href="#DejaVuSans-35"/>
       <use x="63.623047" xlink:href="#DejaVuSans-30"/>
      </g>
     </g>
    </g>
    <g id="xtick_9">
     <g id="line2d_25">
      <g>
       <use style="stroke:#000000;stroke-width:0.8;" x="471.234288" xlink:href="#m02dc25b0c5" y="645.74"/>
      </g>
     </g>
     <g id="text_21">
      <!-- 75 -->
      <g transform="translate(464.871788 660.338437)scale(0.1 -0.1)">
       <use xlink:href="#DejaVuSans-37"/>
       <use x="63.623047" xlink:href="#DejaVuSans-35"/>
      </g>
     </g>
    </g>
    <g id="xtick_10">
     <g id="line2d_26">
      <g>
       <use style="stroke:#000000;stroke-width:0.8;" x="595.726267" xlink:href="#m02dc25b0c5" y="645.74"/>
      </g>
     </g>
     <g id="text_22">
      <!-- 100 -->
      <g transform="translate(586.182517 660.338437)scale(0.1 -0.1)">
       <use xlink:href="#DejaVuSans-31"/>
       <use x="63.623047" xlink:href="#DejaVuSans-30"/>
       <use x="127.246094" xlink:href="#DejaVuSans-30"/>
      </g>
     </g>
    </g>
    <g id="xtick_11">
     <g id="line2d_27">
      <g>
       <use style="stroke:#000000;stroke-width:0.8;" x="720.218245" xlink:href="#m02dc25b0c5" y="645.74"/>
      </g>
     </g>
     <g id="text_23">
      <!-- 125 -->
      <g transform="translate(710.674495 660.338437)scale(0.1 -0.1)">
       <use xlink:href="#DejaVuSans-31"/>
       <use x="63.623047" xlink:href="#DejaVuSans-32"/>
       <use x="127.246094" xlink:href="#DejaVuSans-35"/>
      </g>
     </g>
    </g>
    <g id="xtick_12">
     <g id="line2d_28">
      <g>
       <use style="stroke:#000000;stroke-width:0.8;" x="844.710224" xlink:href="#m02dc25b0c5" y="645.74"/>
      </g>
     </g>
     <g id="text_24">
      <!-- 150 -->
      <g transform="translate(835.166474 660.338437)scale(0.1 -0.1)">
       <use xlink:href="#DejaVuSans-31"/>
       <use x="63.623047" xlink:href="#DejaVuSans-35"/>
       <use x="127.246094" xlink:href="#DejaVuSans-30"/>
      </g>
     </g>
    </g>
    <g id="xtick_13">
     <g id="line2d_29">
      <g>
       <use style="stroke:#000000;stroke-width:0.8;" x="969.202203" xlink:href="#m02dc25b0c5" y="645.74"/>
      </g>
     </g>
     <g id="text_25">
      <!-- 175 -->
      <g transform="translate(959.658453 660.338437)scale(0.1 -0.1)">
       <use xlink:href="#DejaVuSans-31"/>
       <use x="63.623047" xlink:href="#DejaVuSans-37"/>
       <use x="127.246094" xlink:href="#DejaVuSans-35"/>
      </g>
     </g>
    </g>
    <g id="xtick_14">
     <g id="line2d_30">
      <g>
       <use style="stroke:#000000;stroke-width:0.8;" x="1093.694181" xlink:href="#m02dc25b0c5" y="645.74"/>
      </g>
     </g>
     <g id="text_26">
      <!-- 200 -->
      <g transform="translate(1084.150431 660.338437)scale(0.1 -0.1)">
       <use xlink:href="#DejaVuSans-32"/>
       <use x="63.623047" xlink:href="#DejaVuSans-30"/>
       <use x="127.246094" xlink:href="#DejaVuSans-30"/>
      </g>
     </g>
    </g>
   </g>
   <g id="matplotlib.axis_4">
    <g id="ytick_8">
     <g id="line2d_31">
      <g>
       <use style="stroke:#000000;stroke-width:0.8;" x="46.965625" xlink:href="#m70a1df5437" y="637.018434"/>
      </g>
     </g>
     <g id="text_27">
      <!-- 10 -->
      <g transform="translate(27.240625 640.817652)scale(0.1 -0.1)">
       <use xlink:href="#DejaVuSans-31"/>
       <use x="63.623047" xlink:href="#DejaVuSans-30"/>
      </g>
     </g>
    </g>
    <g id="ytick_9">
     <g id="line2d_32">
      <g>
       <use style="stroke:#000000;stroke-width:0.8;" x="46.965625" xlink:href="#m70a1df5437" y="609.695488"/>
      </g>
     </g>
     <g id="text_28">
      <!-- 15 -->
      <g transform="translate(27.240625 613.494707)scale(0.1 -0.1)">
       <use xlink:href="#DejaVuSans-31"/>
       <use x="63.623047" xlink:href="#DejaVuSans-35"/>
      </g>
     </g>
    </g>
    <g id="ytick_10">
     <g id="line2d_33">
      <g>
       <use style="stroke:#000000;stroke-width:0.8;" x="46.965625" xlink:href="#m70a1df5437" y="582.372542"/>
      </g>
     </g>
     <g id="text_29">
      <!-- 20 -->
      <g transform="translate(27.240625 586.171761)scale(0.1 -0.1)">
       <use xlink:href="#DejaVuSans-32"/>
       <use x="63.623047" xlink:href="#DejaVuSans-30"/>
      </g>
     </g>
    </g>
    <g id="ytick_11">
     <g id="line2d_34">
      <g>
       <use style="stroke:#000000;stroke-width:0.8;" x="46.965625" xlink:href="#m70a1df5437" y="555.049596"/>
      </g>
     </g>
     <g id="text_30">
      <!-- 25 -->
      <g transform="translate(27.240625 558.848815)scale(0.1 -0.1)">
       <use xlink:href="#DejaVuSans-32"/>
       <use x="63.623047" xlink:href="#DejaVuSans-35"/>
      </g>
     </g>
    </g>
    <g id="ytick_12">
     <g id="line2d_35">
      <g>
       <use style="stroke:#000000;stroke-width:0.8;" x="46.965625" xlink:href="#m70a1df5437" y="527.72665"/>
      </g>
     </g>
     <g id="text_31">
      <!-- 30 -->
      <defs>
       <path d="M 40.578125 39.3125 
Q 47.65625 37.796875 51.625 33 
Q 55.609375 28.21875 55.609375 21.1875 
Q 55.609375 10.40625 48.1875 4.484375 
Q 40.765625 -1.421875 27.09375 -1.421875 
Q 22.515625 -1.421875 17.65625 -0.515625 
Q 12.796875 0.390625 7.625 2.203125 
L 7.625 11.71875 
Q 11.71875 9.328125 16.59375 8.109375 
Q 21.484375 6.890625 26.8125 6.890625 
Q 36.078125 6.890625 40.9375 10.546875 
Q 45.796875 14.203125 45.796875 21.1875 
Q 45.796875 27.640625 41.28125 31.265625 
Q 36.765625 34.90625 28.71875 34.90625 
L 20.21875 34.90625 
L 20.21875 43.015625 
L 29.109375 43.015625 
Q 36.375 43.015625 40.234375 45.921875 
Q 44.09375 48.828125 44.09375 54.296875 
Q 44.09375 59.90625 40.109375 62.90625 
Q 36.140625 65.921875 28.71875 65.921875 
Q 24.65625 65.921875 20.015625 65.03125 
Q 15.375 64.15625 9.8125 62.3125 
L 9.8125 71.09375 
Q 15.4375 72.65625 20.34375 73.4375 
Q 25.25 74.21875 29.59375 74.21875 
Q 40.828125 74.21875 47.359375 69.109375 
Q 53.90625 64.015625 53.90625 55.328125 
Q 53.90625 49.265625 50.4375 45.09375 
Q 46.96875 40.921875 40.578125 39.3125 
z
" id="DejaVuSans-33"/>
      </defs>
      <g transform="translate(27.240625 531.525869)scale(0.1 -0.1)">
       <use xlink:href="#DejaVuSans-33"/>
       <use x="63.623047" xlink:href="#DejaVuSans-30"/>
      </g>
     </g>
    </g>
    <g id="text_32">
     <!-- Temperature -->
     <defs>
      <path d="M 18.109375 8.203125 
L 18.109375 -20.796875 
L 9.078125 -20.796875 
L 9.078125 54.6875 
L 18.109375 54.6875 
L 18.109375 46.390625 
Q 20.953125 51.265625 25.265625 53.625 
Q 29.59375 56 35.59375 56 
Q 45.5625 56 51.78125 48.09375 
Q 58.015625 40.1875 58.015625 27.296875 
Q 58.015625 14.40625 51.78125 6.484375 
Q 45.5625 -1.421875 35.59375 -1.421875 
Q 29.59375 -1.421875 25.265625 0.953125 
Q 20.953125 3.328125 18.109375 8.203125 
z
M 48.6875 27.296875 
Q 48.6875 37.203125 44.609375 42.84375 
Q 40.53125 48.484375 33.40625 48.484375 
Q 26.265625 48.484375 22.1875 42.84375 
Q 18.109375 37.203125 18.109375 27.296875 
Q 18.109375 17.390625 22.1875 11.75 
Q 26.265625 6.109375 33.40625 6.109375 
Q 40.53125 6.109375 44.609375 11.75 
Q 48.6875 17.390625 48.6875 27.296875 
z
" id="DejaVuSans-70"/>
     </defs>
     <g style="fill:#0000ff;" transform="translate(21.160938 613.557187)rotate(-90)scale(0.1 -0.1)">
      <use xlink:href="#DejaVuSans-54"/>
      <use x="60.818359" xlink:href="#DejaVuSans-65"/>
      <use x="122.341797" xlink:href="#DejaVuSans-6d"/>
      <use x="219.753906" xlink:href="#DejaVuSans-70"/>
      <use x="283.230469" xlink:href="#DejaVuSans-65"/>
      <use x="344.753906" xlink:href="#DejaVuSans-72"/>
      <use x="385.867188" xlink:href="#DejaVuSans-61"/>
      <use x="447.146484" xlink:href="#DejaVuSans-74"/>
      <use x="486.355469" xlink:href="#DejaVuSans-75"/>
      <use x="549.734375" xlink:href="#DejaVuSans-72"/>
      <use x="590.816406" xlink:href="#DejaVuSans-65"/>
     </g>
    </g>
   </g>
   <g id="line2d_36">
    <path clip-path="url(#p818de114eb)" d="M 97.758352 548.199187 
L 102.738031 547.841803 
L 107.717711 537.847616 
L 112.69739 535.719705 
L 117.677069 539.62634 
L 122.656748 542.689242 
L 127.636427 533.415834 
L 132.616106 522.366435 
L 137.595785 522.030909 
L 142.575465 531.907061 
L 147.555144 538.479869 
L 152.534823 543.041708 
L 157.514502 550.066437 
L 162.494181 544.319329 
L 167.47386 540.881009 
L 172.453539 537.608813 
L 177.433219 543.500187 
L 182.412898 540.674448 
L 187.392577 546.237946 
L 192.372256 535.411502 
L 197.351935 532.337671 
L 202.331614 544.58764 
L 207.311293 544.215502 
L 212.290973 551.403076 
L 217.270652 549.519432 
L 222.250331 550.844048 
L 227.23001 538.031226 
L 232.209689 532.69888 
L 237.189368 542.085951 
L 242.169047 537.078202 
L 247.148727 536.772731 
L 252.128406 526.872535 
L 257.108085 534.054645 
L 262.087764 536.210972 
L 267.067443 541.505612 
L 272.047122 549.480633 
L 277.026801 545.804604 
L 282.006481 550.73421 
L 286.98616 539.75749 
L 291.965839 542.083765 
L 296.945518 542.543337 
L 301.925197 542.757003 
L 306.904876 535.144284 
L 311.884555 523.648427 
L 316.864235 523.974663 
L 321.843914 532.62784 
L 326.823593 544.56305 
L 331.803272 548.810675 
L 336.782951 553.835911 
L 341.76263 545.702963 
L 351.721989 531.499403 
L 356.701668 542.008354 
L 361.681347 536.230098 
L 366.661026 533.156813 
L 371.640705 530.396102 
L 376.620384 529.35783 
L 381.600064 538.155272 
L 386.579743 539.348739 
L 391.559422 551.228209 
L 396.539101 549.536372 
L 401.51878 548.60466 
L 406.498459 541.638948 
L 411.478138 535.249204 
L 416.457818 543.628058 
L 421.437497 540.532915 
L 426.417176 532.20816 
L 431.396855 526.684553 
L 436.376534 525.66814 
L 441.356213 529.138154 
L 446.335892 540.446575 
L 451.315572 552.508016 
L 456.295251 555.454522 
L 461.27493 553.299288 
L 466.254609 540.201761 
L 471.234288 534.18197 
L 476.213967 540.881556 
L 481.193646 528.704265 
L 486.173326 529.127225 
L 491.153005 526.264873 
L 496.132684 530.8748 
L 501.112363 540.341108 
L 506.092042 542.717658 
L 511.071721 543.747733 
L 516.0514 551.24187 
L 521.03108 549.738562 
L 526.010759 541.617636 
L 530.990438 539.938368 
L 535.970117 546.906265 
L 540.949796 548.861495 
L 545.929475 540.050392 
L 550.909154 530.491186 
L 555.888834 529.898278 
L 560.868513 532.71582 
L 565.848192 540.210504 
L 570.827871 546.047232 
L 575.80755 555.151784 
L 580.787229 551.522204 
L 585.766908 541.170086 
L 590.746588 538.55692 
L 595.726267 543.866861 
L 600.705946 537.804992 
L 605.685625 530.934911 
L 610.665304 529.686799 
L 615.644983 527.679655 
L 620.624662 539.761862 
L 625.604342 541.66791 
L 630.584021 552.199267 
L 635.5637 553.740281 
L 640.543379 553.160488 
L 645.523058 539.671696 
L 650.502737 543.746094 
L 655.482416 545.781107 
L 660.462096 535.168328 
L 665.441775 533.371571 
L 670.421454 527.584025 
L 675.401133 524.612381 
L 680.380812 531.293934 
L 685.360491 540.326354 
L 690.34017 538.906107 
L 695.31985 545.445034 
L 700.299529 545.90242 
L 705.279208 537.231757 
L 710.258887 539.325241 
L 715.238566 541.909445 
L 720.218245 535.696207 
L 725.197924 536.027361 
L 730.177604 531.559513 
L 735.157283 537.892426 
L 740.136962 536.325728 
L 745.116641 524.010183 
L 750.09632 543.320402 
L 755.075999 550.995964 
L 760.055678 550.622186 
L 765.035358 538.629052 
L 770.015037 531.886842 
L 774.994716 540.006675 
L 779.974395 533.695621 
L 784.954074 528.064908 
L 789.933753 526.596027 
L 794.913432 525.373598 
L 799.893112 530.863871 
L 804.872791 537.571108 
L 809.85247 544.63245 
L 814.832149 547.191517 
L 819.811828 551.89325 
L 824.791507 544.092002 
L 829.771186 540.579911 
L 834.750866 545.364158 
L 839.730545 539.882629 
L 844.710224 528.844705 
L 849.689903 525.600925 
L 854.669582 526.929367 
L 864.628941 545.945591 
L 869.60862 551.330397 
L 874.588299 554.920085 
L 879.567978 548.74346 
L 884.547657 541.063527 
L 889.527336 541.446594 
L 894.507015 544.00894 
L 899.486695 544.698571 
L 904.466374 538.108823 
L 909.446053 532.617458 
L 914.425732 530.966059 
L 919.405411 544.648297 
L 924.38509 548.084431 
L 929.364769 552.922232 
L 934.344449 550.592677 
L 939.324128 552.563755 
L 944.303807 540.350944 
L 949.283486 534.290715 
L 954.263165 544.734091 
L 959.242844 544.459222 
L 964.222523 535.438825 
L 969.202203 531.051853 
L 974.181882 531.404319 
L 979.161561 537.277113 
L 984.14124 542.465194 
L 989.120919 548.237986 
L 994.100598 552.335335 
L 999.080277 547.210097 
L 1004.059957 545.244484 
L 1009.039636 540.37936 
L 1014.019315 542.718204 
L 1018.998994 540.417066 
L 1023.978673 532.721831 
L 1028.958352 526.344656 
L 1033.938031 527.753427 
L 1038.917711 541.273367 
L 1043.89739 546.625386 
L 1048.877069 552.30528 
L 1053.856748 557.649101 
L 1058.836427 550.289393 
L 1063.816106 540.59084 
L 1068.795785 540.694667 
L 1073.775465 552.788896 
L 1078.755144 546.243957 
L 1083.734823 538.814848 
L 1088.714502 536.515896 
L 1093.694181 527.268718 
L 1098.67386 545.337382 
L 1103.653539 558.41469 
L 1108.633219 555.699336 
L 1113.612898 557.796099 
L 1113.612898 557.796099 
" style="fill:none;stroke:#ff0000;stroke-linecap:square;stroke-width:1.5;"/>
   </g>
   <g id="line2d_37">
    <path clip-path="url(#p818de114eb)" d="M 97.758352 576.186627 
L 102.738031 580.080147 
L 107.717711 573.721551 
L 112.69739 575.234696 
L 117.677069 573.707889 
L 122.656748 572.859785 
L 132.616106 564.829571 
L 137.595785 563.756326 
L 142.575465 569.631306 
L 147.555144 570.447169 
L 152.534823 570.699633 
L 157.514502 582.725555 
L 162.494181 577.810157 
L 167.47386 578.044041 
L 172.453539 572.622076 
L 177.433219 571.685991 
L 182.412898 570.617664 
L 187.392577 573.969643 
L 192.372256 571.753752 
L 197.351935 564.87766 
L 202.331614 574.695887 
L 207.311293 575.979519 
L 212.290973 582.610798 
L 217.270652 583.511909 
L 222.250331 580.014025 
L 227.23001 574.526485 
L 232.209689 568.759704 
L 237.189368 569.680487 
L 242.169047 567.118688 
L 247.148727 568.302318 
L 252.128406 563.112051 
L 257.108085 568.147124 
L 262.087764 564.365628 
L 267.067443 570.921495 
L 272.047122 576.95932 
L 277.026801 580.310206 
L 282.006481 583.910824 
L 286.98616 577.556053 
L 291.965839 575.858752 
L 296.945518 574.634684 
L 301.925197 570.728595 
L 306.904876 571.510032 
L 311.884555 560.551891 
L 316.864235 560.390686 
L 326.823593 572.580545 
L 331.803272 578.915096 
L 336.782951 584.100445 
L 341.76263 579.516201 
L 346.742309 573.897511 
L 351.721989 566.171128 
L 356.701668 571.644461 
L 361.681347 567.218143 
L 366.661026 564.925202 
L 371.640705 564.435575 
L 376.620384 565.636145 
L 381.600064 565.165097 
L 386.579743 572.912792 
L 391.559422 582.102045 
L 396.539101 580.030966 
L 401.51878 577.551681 
L 406.498459 576.829263 
L 411.478138 569.00561 
L 416.457818 571.356477 
L 421.437497 569.5242 
L 426.417176 564.168903 
L 431.396855 557.99337 
L 436.376534 555.604798 
L 441.356213 563.630641 
L 446.335892 565.060177 
L 451.315572 577.134187 
L 456.295251 579.977959 
L 461.27493 579.984517 
L 466.254609 572.860332 
L 471.234288 569.25261 
L 476.213967 571.043902 
L 481.193646 563.515338 
L 486.173326 562.845926 
L 491.153005 562.46559 
L 496.132684 562.320232 
L 501.112363 568.509426 
L 506.092042 573.679474 
L 511.071721 573.851062 
L 516.0514 580.258293 
L 521.03108 578.276832 
L 526.010759 574.630312 
L 530.990438 569.648246 
L 535.970117 571.907307 
L 540.949796 573.748874 
L 545.929475 569.049874 
L 550.909154 566.159106 
L 555.888834 562.578707 
L 560.868513 569.611087 
L 565.848192 570.420393 
L 570.827871 575.692082 
L 575.80755 577.555507 
L 580.787229 578.491044 
L 585.766908 572.503494 
L 590.746588 570.299079 
L 595.726267 568.435107 
L 600.705946 568.289749 
L 605.685625 567.032894 
L 610.665304 565.181491 
L 615.644983 563.836656 
L 620.624662 568.030181 
L 625.604342 564.180925 
L 630.584021 574.421018 
L 635.5637 575.982251 
L 640.543379 577.15222 
L 645.523058 575.269123 
L 650.502737 570.581052 
L 655.482416 570.824772 
L 660.462096 566.589169 
L 665.441775 563.460145 
L 670.421454 562.196732 
L 675.401133 558.7912 
L 680.380812 562.806034 
L 685.360491 569.830217 
L 690.34017 577.769719 
L 695.31985 575.505193 
L 700.299529 576.840192 
L 705.279208 570.161918 
L 710.258887 570.337877 
L 715.238566 571.77725 
L 720.218245 565.61374 
L 725.197924 563.406592 
L 730.177604 558.911968 
L 735.157283 569.446056 
L 740.136962 564.919737 
L 745.116641 554.737568 
L 750.09632 576.479529 
L 755.075999 578.850614 
L 760.055678 564.408252 
L 765.035358 573.100227 
L 770.015037 562.53499 
L 774.994716 565.63232 
L 779.974395 564.817549 
L 794.913432 560.010897 
L 799.893112 567.783728 
L 804.872791 565.670025 
L 809.85247 576.685544 
L 814.832149 576.771885 
L 819.811828 579.59817 
L 824.791507 572.919349 
L 829.771186 572.172886 
L 834.750866 572.469067 
L 839.730545 569.145504 
L 849.689903 559.873189 
L 854.669582 561.899459 
L 859.649261 566.886443 
L 864.628941 571.448828 
L 869.60862 578.779575 
L 874.588299 581.582362 
L 879.567978 579.077941 
L 884.547657 574.840152 
L 889.527336 571.827524 
L 894.507015 572.830276 
L 899.486695 571.977801 
L 904.466374 569.106159 
L 909.446053 564.896239 
L 914.425732 563.015328 
L 919.405411 569.534036 
L 924.38509 574.002977 
L 929.364769 579.421117 
L 934.344449 581.459409 
L 939.324128 582.056142 
L 944.303807 575.138519 
L 949.283486 566.714308 
L 954.263165 572.739564 
L 959.242844 570.608921 
L 964.222523 565.951452 
L 974.181882 561.403274 
L 979.161561 568.540027 
L 984.14124 569.458078 
L 989.120919 576.954948 
L 994.100598 581.279624 
L 999.080277 578.027647 
L 1004.059957 574.432494 
L 1009.039636 570.071752 
L 1014.019315 571.580525 
L 1018.998994 570.037325 
L 1023.978673 564.998974 
L 1028.958352 561.2989 
L 1033.938031 561.475407 
L 1038.917711 570.337331 
L 1043.89739 575.142344 
L 1048.877069 579.57194 
L 1053.856748 586.861702 
L 1058.836427 583.781313 
L 1063.816106 575.945092 
L 1068.795785 570.594167 
L 1073.775465 575.746181 
L 1078.755144 566.807206 
L 1083.734823 565.948719 
L 1088.714502 564.57984 
L 1093.694181 554.664343 
L 1098.67386 570.687611 
L 1103.653539 576.069138 
L 1108.633219 574.905181 
L 1113.612898 580.329332 
L 1113.612898 580.329332 
" style="fill:none;stroke:#008000;stroke-linecap:square;stroke-width:1.5;"/>
   </g>
   <g id="line2d_38">
    <path clip-path="url(#p818de114eb)" d="M 97.758352 605.448409 
L 102.738031 605.072445 
L 107.717711 604.285545 
L 112.69739 603.947833 
L 117.677069 596.917639 
L 122.656748 602.38496 
L 127.636427 605.992136 
L 132.616106 609.045748 
L 137.595785 595.746031 
L 142.575465 600.492573 
L 147.555144 596.537304 
L 157.514502 606.655537 
L 162.494181 605.503055 
L 167.47386 605.565898 
L 172.453539 604.291009 
L 177.433219 598.420401 
L 182.412898 600.780011 
L 187.392577 597.917112 
L 192.372256 600.543394 
L 197.351935 593.722494 
L 202.331614 597.249886 
L 207.311293 597.607817 
L 212.290973 605.22764 
L 217.270652 608.951757 
L 222.250331 604.374071 
L 227.23001 603.876793 
L 232.209689 597.031849 
L 237.189368 594.825794 
L 242.169047 599.553757 
L 247.148727 601.79096 
L 252.128406 603.122134 
L 257.108085 595.374986 
L 262.087764 588.791248 
L 267.067443 596.215439 
L 272.047122 605.342943 
L 282.006481 610.656163 
L 286.98616 608.29546 
L 291.965839 609.931012 
L 296.945518 602.050528 
L 301.925197 598.267393 
L 306.904876 606.559907 
L 311.884555 601.341224 
L 316.864235 598.392532 
L 321.843914 593.465112 
L 326.823593 596.200138 
L 331.803272 602.873495 
L 336.782951 609.027169 
L 341.76263 603.264213 
L 346.742309 602.963114 
L 351.721989 595.767343 
L 356.701668 597.006712 
L 361.681347 600.72919 
L 366.661026 596.4067 
L 371.640705 598.505102 
L 376.620384 600.021526 
L 381.600064 590.819704 
L 391.559422 608.447376 
L 396.539101 612.526145 
L 401.51878 605.956616 
L 406.498459 607.402546 
L 411.478138 595.736741 
L 421.437497 602.259275 
L 426.417176 595.424713 
L 431.396855 597.879953 
L 436.376534 586.979737 
L 441.356213 589.69072 
L 446.335892 590.017502 
L 451.315572 600.083822 
L 456.295251 600.558148 
L 461.27493 604.571889 
L 466.254609 601.607349 
L 471.234288 599.520423 
L 476.213967 598.0734 
L 481.193646 597.872303 
L 486.173326 599.498018 
L 491.153005 601.709537 
L 496.132684 592.237218 
L 501.112363 594.780438 
L 506.092042 598.530786 
L 511.071721 599.845566 
L 516.0514 601.843966 
L 521.03108 605.721092 
L 526.010759 606.277387 
L 530.990438 600.549405 
L 535.970117 595.643297 
L 540.949796 599.319872 
L 545.929475 601.989871 
L 550.909154 602.837975 
L 555.888834 600.261968 
L 560.868513 593.4438 
L 565.848192 597.713283 
L 570.827871 600.410058 
L 575.80755 603.992643 
L 580.787229 601.086574 
L 590.746588 601.984953 
L 595.726267 603.45602 
L 600.705946 602.421573 
L 605.685625 600.935205 
L 610.665304 604.649486 
L 615.644983 596.550965 
L 620.624662 599.875621 
L 625.604342 599.244461 
L 630.584021 601.737953 
L 635.5637 599.675617 
L 640.543379 602.275669 
L 645.523058 605.270264 
L 650.502737 601.704619 
L 655.482416 602.304631 
L 660.462096 603.933079 
L 665.441775 606.065908 
L 670.421454 600.285465 
L 675.401133 597.53787 
L 680.380812 592.10279 
L 690.34017 601.765276 
L 695.31985 601.576748 
L 700.299529 601.699701 
L 705.279208 602.97459 
L 710.258887 598.011103 
L 715.238566 602.649447 
L 720.218245 595.755867 
L 725.197924 600.737387 
L 730.177604 597.795252 
L 735.157283 601.046136 
L 740.136962 599.168503 
L 745.116641 584.0611 
L 750.09632 597.392512 
L 755.075999 585.40375 
L 760.055678 597.879407 
L 765.035358 597.911648 
L 770.015037 590.835005 
L 774.994716 599.223149 
L 779.974395 601.790413 
L 784.954074 601.133023 
L 789.933753 604.345655 
L 794.913432 597.611095 
L 799.893112 595.908329 
L 804.872791 593.212648 
L 809.85247 596.696323 
L 814.832149 605.145671 
L 819.811828 600.023165 
L 824.791507 601.942875 
L 829.771186 594.48699 
L 834.750866 596.258063 
L 839.730545 601.718827 
L 844.710224 607.90966 
L 849.689903 598.47614 
L 854.669582 602.523215 
L 859.649261 590.672707 
L 864.628941 595.738381 
L 869.60862 600.077811 
L 874.588299 605.859893 
L 879.567978 605.695955 
L 884.547657 604.205762 
L 889.527336 598.987079 
L 894.507015 600.21989 
L 899.486695 599.472881 
L 904.466374 596.450417 
L 909.446053 600.634653 
L 914.425732 593.104449 
L 919.405411 591.344851 
L 924.38509 599.591463 
L 929.364769 601.68604 
L 934.344449 607.010735 
L 939.324128 604.760964 
L 944.303807 605.039111 
L 949.283486 594.821423 
L 954.263165 600.648314 
L 959.242844 598.998008 
L 964.222523 602.870216 
L 969.202203 597.539509 
L 974.181882 591.653054 
L 979.161561 594.195727 
L 984.14124 598.651007 
L 989.120919 600.396396 
L 994.100598 608.063215 
L 999.080277 605.632019 
L 1004.059957 603.926521 
L 1009.039636 596.441127 
L 1014.019315 593.945995 
L 1018.998994 598.077225 
L 1023.978673 599.908409 
L 1028.958352 596.870097 
L 1033.938031 596.461892 
L 1038.917711 592.965648 
L 1043.89739 592.269459 
L 1048.877069 600.577821 
L 1053.856748 605.212885 
L 1058.836427 606.97139 
L 1063.816106 607.405825 
L 1068.795785 601.11499 
L 1073.775465 602.50081 
L 1078.755144 602.564745 
L 1083.734823 596.683208 
L 1088.714502 605.722732 
L 1093.694181 594.563494 
L 1098.67386 595.192468 
L 1103.653539 602.39425 
L 1108.633219 603.634166 
L 1113.612898 606.650619 
L 1113.612898 606.650619 
" style="fill:none;stroke:#0000ff;stroke-linecap:square;stroke-width:1.5;"/>
   </g>
   <g id="line2d_39">
    <defs>
     <path d="M 0 3 
C 0.795609 3 1.55874 2.683901 2.12132 2.12132 
C 2.683901 1.55874 3 0.795609 3 0 
C 3 -0.795609 2.683901 -1.55874 2.12132 -2.12132 
C 1.55874 -2.683901 0.795609 -3 0 -3 
C -0.795609 -3 -1.55874 -2.683901 -2.12132 -2.12132 
C -2.683901 -1.55874 -3 -0.795609 -3 0 
C -3 0.795609 -2.683901 1.55874 -2.12132 2.12132 
C -1.55874 2.683901 -0.795609 3 0 3 
z
" id="m80caae5ff8" style="stroke:#ff0000;"/>
    </defs>
    <g clip-path="url(#p818de114eb)">
     <use style="fill:#ff0000;stroke:#ff0000;" x="122.656748" xlink:href="#m80caae5ff8" y="639.849091"/>
     <use style="fill:#ff0000;stroke:#ff0000;" x="127.636427" xlink:href="#m80caae5ff8" y="639.849091"/>
     <use style="fill:#ff0000;stroke:#ff0000;" x="132.616106" xlink:href="#m80caae5ff8" y="639.849091"/>
     <use style="fill:#ff0000;stroke:#ff0000;" x="137.595785" xlink:href="#m80caae5ff8" y="639.849091"/>
     <use style="fill:#ff0000;stroke:#ff0000;" x="142.575465" xlink:href="#m80caae5ff8" y="639.849091"/>
     <use style="fill:#ff0000;stroke:#ff0000;" x="147.555144" xlink:href="#m80caae5ff8" y="639.849091"/>
     <use style="fill:#ff0000;stroke:#ff0000;" x="152.534823" xlink:href="#m80caae5ff8" y="639.849091"/>
     <use style="fill:#ff0000;stroke:#ff0000;" x="157.514502" xlink:href="#m80caae5ff8" y="639.849091"/>
     <use style="fill:#ff0000;stroke:#ff0000;" x="162.494181" xlink:href="#m80caae5ff8" y="639.849091"/>
     <use style="fill:#ff0000;stroke:#ff0000;" x="167.47386" xlink:href="#m80caae5ff8" y="639.849091"/>
     <use style="fill:#ff0000;stroke:#ff0000;" x="172.453539" xlink:href="#m80caae5ff8" y="639.849091"/>
     <use style="fill:#ff0000;stroke:#ff0000;" x="177.433219" xlink:href="#m80caae5ff8" y="639.849091"/>
     <use style="fill:#ff0000;stroke:#ff0000;" x="182.412898" xlink:href="#m80caae5ff8" y="639.849091"/>
     <use style="fill:#ff0000;stroke:#ff0000;" x="187.392577" xlink:href="#m80caae5ff8" y="639.849091"/>
     <use style="fill:#ff0000;stroke:#ff0000;" x="192.372256" xlink:href="#m80caae5ff8" y="639.849091"/>
     <use style="fill:#ff0000;stroke:#ff0000;" x="197.351935" xlink:href="#m80caae5ff8" y="639.849091"/>
     <use style="fill:#ff0000;stroke:#ff0000;" x="202.331614" xlink:href="#m80caae5ff8" y="639.849091"/>
     <use style="fill:#ff0000;stroke:#ff0000;" x="207.311293" xlink:href="#m80caae5ff8" y="639.849091"/>
     <use style="fill:#ff0000;stroke:#ff0000;" x="212.290973" xlink:href="#m80caae5ff8" y="639.849091"/>
     <use style="fill:#ff0000;stroke:#ff0000;" x="217.270652" xlink:href="#m80caae5ff8" y="639.849091"/>
     <use style="fill:#ff0000;stroke:#ff0000;" x="222.250331" xlink:href="#m80caae5ff8" y="639.849091"/>
     <use style="fill:#ff0000;stroke:#ff0000;" x="227.23001" xlink:href="#m80caae5ff8" y="639.849091"/>
     <use style="fill:#ff0000;stroke:#ff0000;" x="232.209689" xlink:href="#m80caae5ff8" y="639.849091"/>
     <use style="fill:#ff0000;stroke:#ff0000;" x="237.189368" xlink:href="#m80caae5ff8" y="639.849091"/>
     <use style="fill:#ff0000;stroke:#ff0000;" x="242.169047" xlink:href="#m80caae5ff8" y="639.849091"/>
     <use style="fill:#ff0000;stroke:#ff0000;" x="247.148727" xlink:href="#m80caae5ff8" y="639.849091"/>
     <use style="fill:#ff0000;stroke:#ff0000;" x="252.128406" xlink:href="#m80caae5ff8" y="639.849091"/>
     <use style="fill:#ff0000;stroke:#ff0000;" x="257.108085" xlink:href="#m80caae5ff8" y="639.849091"/>
     <use style="fill:#ff0000;stroke:#ff0000;" x="262.087764" xlink:href="#m80caae5ff8" y="639.849091"/>
     <use style="fill:#ff0000;stroke:#ff0000;" x="267.067443" xlink:href="#m80caae5ff8" y="639.849091"/>
     <use style="fill:#ff0000;stroke:#ff0000;" x="272.047122" xlink:href="#m80caae5ff8" y="639.849091"/>
     <use style="fill:#ff0000;stroke:#ff0000;" x="277.026801" xlink:href="#m80caae5ff8" y="639.849091"/>
     <use style="fill:#ff0000;stroke:#ff0000;" x="282.006481" xlink:href="#m80caae5ff8" y="639.849091"/>
     <use style="fill:#ff0000;stroke:#ff0000;" x="286.98616" xlink:href="#m80caae5ff8" y="639.849091"/>
     <use style="fill:#ff0000;stroke:#ff0000;" x="291.965839" xlink:href="#m80caae5ff8" y="639.849091"/>
     <use style="fill:#ff0000;stroke:#ff0000;" x="296.945518" xlink:href="#m80caae5ff8" y="639.849091"/>
     <use style="fill:#ff0000;stroke:#ff0000;" x="301.925197" xlink:href="#m80caae5ff8" y="639.849091"/>
     <use style="fill:#ff0000;stroke:#ff0000;" x="306.904876" xlink:href="#m80caae5ff8" y="639.849091"/>
     <use style="fill:#ff0000;stroke:#ff0000;" x="321.843914" xlink:href="#m80caae5ff8" y="639.849091"/>
     <use style="fill:#ff0000;stroke:#ff0000;" x="326.823593" xlink:href="#m80caae5ff8" y="639.849091"/>
     <use style="fill:#ff0000;stroke:#ff0000;" x="381.600064" xlink:href="#m80caae5ff8" y="639.849091"/>
     <use style="fill:#ff0000;stroke:#ff0000;" x="386.579743" xlink:href="#m80caae5ff8" y="639.849091"/>
     <use style="fill:#ff0000;stroke:#ff0000;" x="396.539101" xlink:href="#m80caae5ff8" y="639.849091"/>
     <use style="fill:#ff0000;stroke:#ff0000;" x="401.51878" xlink:href="#m80caae5ff8" y="639.849091"/>
     <use style="fill:#ff0000;stroke:#ff0000;" x="406.498459" xlink:href="#m80caae5ff8" y="639.849091"/>
     <use style="fill:#ff0000;stroke:#ff0000;" x="411.478138" xlink:href="#m80caae5ff8" y="639.849091"/>
     <use style="fill:#ff0000;stroke:#ff0000;" x="416.457818" xlink:href="#m80caae5ff8" y="639.849091"/>
     <use style="fill:#ff0000;stroke:#ff0000;" x="421.437497" xlink:href="#m80caae5ff8" y="639.849091"/>
     <use style="fill:#ff0000;stroke:#ff0000;" x="441.356213" xlink:href="#m80caae5ff8" y="639.849091"/>
     <use style="fill:#ff0000;stroke:#ff0000;" x="446.335892" xlink:href="#m80caae5ff8" y="639.849091"/>
     <use style="fill:#ff0000;stroke:#ff0000;" x="451.315572" xlink:href="#m80caae5ff8" y="639.849091"/>
     <use style="fill:#ff0000;stroke:#ff0000;" x="481.193646" xlink:href="#m80caae5ff8" y="639.849091"/>
     <use style="fill:#ff0000;stroke:#ff0000;" x="486.173326" xlink:href="#m80caae5ff8" y="639.849091"/>
     <use style="fill:#ff0000;stroke:#ff0000;" x="491.153005" xlink:href="#m80caae5ff8" y="639.849091"/>
     <use style="fill:#ff0000;stroke:#ff0000;" x="496.132684" xlink:href="#m80caae5ff8" y="639.849091"/>
     <use style="fill:#ff0000;stroke:#ff0000;" x="501.112363" xlink:href="#m80caae5ff8" y="639.849091"/>
     <use style="fill:#ff0000;stroke:#ff0000;" x="506.092042" xlink:href="#m80caae5ff8" y="639.849091"/>
     <use style="fill:#ff0000;stroke:#ff0000;" x="511.071721" xlink:href="#m80caae5ff8" y="639.849091"/>
     <use style="fill:#ff0000;stroke:#ff0000;" x="516.0514" xlink:href="#m80caae5ff8" y="639.849091"/>
     <use style="fill:#ff0000;stroke:#ff0000;" x="521.03108" xlink:href="#m80caae5ff8" y="639.849091"/>
     <use style="fill:#ff0000;stroke:#ff0000;" x="526.010759" xlink:href="#m80caae5ff8" y="639.849091"/>
     <use style="fill:#ff0000;stroke:#ff0000;" x="530.990438" xlink:href="#m80caae5ff8" y="639.849091"/>
     <use style="fill:#ff0000;stroke:#ff0000;" x="535.970117" xlink:href="#m80caae5ff8" y="639.849091"/>
     <use style="fill:#ff0000;stroke:#ff0000;" x="540.949796" xlink:href="#m80caae5ff8" y="639.849091"/>
     <use style="fill:#ff0000;stroke:#ff0000;" x="565.848192" xlink:href="#m80caae5ff8" y="639.849091"/>
     <use style="fill:#ff0000;stroke:#ff0000;" x="570.827871" xlink:href="#m80caae5ff8" y="639.849091"/>
     <use style="fill:#ff0000;stroke:#ff0000;" x="580.787229" xlink:href="#m80caae5ff8" y="639.849091"/>
     <use style="fill:#ff0000;stroke:#ff0000;" x="585.766908" xlink:href="#m80caae5ff8" y="639.849091"/>
     <use style="fill:#ff0000;stroke:#ff0000;" x="590.746588" xlink:href="#m80caae5ff8" y="639.849091"/>
     <use style="fill:#ff0000;stroke:#ff0000;" x="600.705946" xlink:href="#m80caae5ff8" y="639.849091"/>
     <use style="fill:#ff0000;stroke:#ff0000;" x="615.644983" xlink:href="#m80caae5ff8" y="639.849091"/>
     <use style="fill:#ff0000;stroke:#ff0000;" x="620.624662" xlink:href="#m80caae5ff8" y="639.849091"/>
     <use style="fill:#ff0000;stroke:#ff0000;" x="630.584021" xlink:href="#m80caae5ff8" y="639.849091"/>
     <use style="fill:#ff0000;stroke:#ff0000;" x="635.5637" xlink:href="#m80caae5ff8" y="639.849091"/>
     <use style="fill:#ff0000;stroke:#ff0000;" x="640.543379" xlink:href="#m80caae5ff8" y="639.849091"/>
     <use style="fill:#ff0000;stroke:#ff0000;" x="645.523058" xlink:href="#m80caae5ff8" y="639.849091"/>
     <use style="fill:#ff0000;stroke:#ff0000;" x="650.502737" xlink:href="#m80caae5ff8" y="639.849091"/>
     <use style="fill:#ff0000;stroke:#ff0000;" x="655.482416" xlink:href="#m80caae5ff8" y="639.849091"/>
     <use style="fill:#ff0000;stroke:#ff0000;" x="660.462096" xlink:href="#m80caae5ff8" y="639.849091"/>
     <use style="fill:#ff0000;stroke:#ff0000;" x="665.441775" xlink:href="#m80caae5ff8" y="639.849091"/>
     <use style="fill:#ff0000;stroke:#ff0000;" x="670.421454" xlink:href="#m80caae5ff8" y="639.849091"/>
     <use style="fill:#ff0000;stroke:#ff0000;" x="675.401133" xlink:href="#m80caae5ff8" y="639.849091"/>
     <use style="fill:#ff0000;stroke:#ff0000;" x="680.380812" xlink:href="#m80caae5ff8" y="639.849091"/>
     <use style="fill:#ff0000;stroke:#ff0000;" x="685.360491" xlink:href="#m80caae5ff8" y="639.849091"/>
     <use style="fill:#ff0000;stroke:#ff0000;" x="690.34017" xlink:href="#m80caae5ff8" y="639.849091"/>
     <use style="fill:#ff0000;stroke:#ff0000;" x="695.31985" xlink:href="#m80caae5ff8" y="639.849091"/>
     <use style="fill:#ff0000;stroke:#ff0000;" x="700.299529" xlink:href="#m80caae5ff8" y="639.849091"/>
     <use style="fill:#ff0000;stroke:#ff0000;" x="705.279208" xlink:href="#m80caae5ff8" y="639.849091"/>
     <use style="fill:#ff0000;stroke:#ff0000;" x="710.258887" xlink:href="#m80caae5ff8" y="639.849091"/>
     <use style="fill:#ff0000;stroke:#ff0000;" x="715.238566" xlink:href="#m80caae5ff8" y="639.849091"/>
     <use style="fill:#ff0000;stroke:#ff0000;" x="720.218245" xlink:href="#m80caae5ff8" y="639.849091"/>
     <use style="fill:#ff0000;stroke:#ff0000;" x="725.197924" xlink:href="#m80caae5ff8" y="639.849091"/>
     <use style="fill:#ff0000;stroke:#ff0000;" x="735.157283" xlink:href="#m80caae5ff8" y="639.849091"/>
     <use style="fill:#ff0000;stroke:#ff0000;" x="740.136962" xlink:href="#m80caae5ff8" y="639.849091"/>
     <use style="fill:#ff0000;stroke:#ff0000;" x="745.116641" xlink:href="#m80caae5ff8" y="639.849091"/>
     <use style="fill:#ff0000;stroke:#ff0000;" x="784.954074" xlink:href="#m80caae5ff8" y="639.849091"/>
     <use style="fill:#ff0000;stroke:#ff0000;" x="789.933753" xlink:href="#m80caae5ff8" y="639.849091"/>
     <use style="fill:#ff0000;stroke:#ff0000;" x="794.913432" xlink:href="#m80caae5ff8" y="639.849091"/>
     <use style="fill:#ff0000;stroke:#ff0000;" x="799.893112" xlink:href="#m80caae5ff8" y="639.849091"/>
     <use style="fill:#ff0000;stroke:#ff0000;" x="804.872791" xlink:href="#m80caae5ff8" y="639.849091"/>
     <use style="fill:#ff0000;stroke:#ff0000;" x="809.85247" xlink:href="#m80caae5ff8" y="639.849091"/>
     <use style="fill:#ff0000;stroke:#ff0000;" x="814.832149" xlink:href="#m80caae5ff8" y="639.849091"/>
     <use style="fill:#ff0000;stroke:#ff0000;" x="819.811828" xlink:href="#m80caae5ff8" y="639.849091"/>
     <use style="fill:#ff0000;stroke:#ff0000;" x="824.791507" xlink:href="#m80caae5ff8" y="639.849091"/>
     <use style="fill:#ff0000;stroke:#ff0000;" x="829.771186" xlink:href="#m80caae5ff8" y="639.849091"/>
     <use style="fill:#ff0000;stroke:#ff0000;" x="834.750866" xlink:href="#m80caae5ff8" y="639.849091"/>
     <use style="fill:#ff0000;stroke:#ff0000;" x="839.730545" xlink:href="#m80caae5ff8" y="639.849091"/>
     <use style="fill:#ff0000;stroke:#ff0000;" x="844.710224" xlink:href="#m80caae5ff8" y="639.849091"/>
     <use style="fill:#ff0000;stroke:#ff0000;" x="849.689903" xlink:href="#m80caae5ff8" y="639.849091"/>
     <use style="fill:#ff0000;stroke:#ff0000;" x="854.669582" xlink:href="#m80caae5ff8" y="639.849091"/>
     <use style="fill:#ff0000;stroke:#ff0000;" x="859.649261" xlink:href="#m80caae5ff8" y="639.849091"/>
     <use style="fill:#ff0000;stroke:#ff0000;" x="864.628941" xlink:href="#m80caae5ff8" y="639.849091"/>
     <use style="fill:#ff0000;stroke:#ff0000;" x="869.60862" xlink:href="#m80caae5ff8" y="639.849091"/>
     <use style="fill:#ff0000;stroke:#ff0000;" x="874.588299" xlink:href="#m80caae5ff8" y="639.849091"/>
     <use style="fill:#ff0000;stroke:#ff0000;" x="879.567978" xlink:href="#m80caae5ff8" y="639.849091"/>
     <use style="fill:#ff0000;stroke:#ff0000;" x="884.547657" xlink:href="#m80caae5ff8" y="639.849091"/>
     <use style="fill:#ff0000;stroke:#ff0000;" x="889.527336" xlink:href="#m80caae5ff8" y="639.849091"/>
     <use style="fill:#ff0000;stroke:#ff0000;" x="894.507015" xlink:href="#m80caae5ff8" y="639.849091"/>
     <use style="fill:#ff0000;stroke:#ff0000;" x="899.486695" xlink:href="#m80caae5ff8" y="639.849091"/>
     <use style="fill:#ff0000;stroke:#ff0000;" x="904.466374" xlink:href="#m80caae5ff8" y="639.849091"/>
     <use style="fill:#ff0000;stroke:#ff0000;" x="914.425732" xlink:href="#m80caae5ff8" y="639.849091"/>
     <use style="fill:#ff0000;stroke:#ff0000;" x="919.405411" xlink:href="#m80caae5ff8" y="639.849091"/>
     <use style="fill:#ff0000;stroke:#ff0000;" x="939.324128" xlink:href="#m80caae5ff8" y="639.849091"/>
     <use style="fill:#ff0000;stroke:#ff0000;" x="959.242844" xlink:href="#m80caae5ff8" y="639.849091"/>
     <use style="fill:#ff0000;stroke:#ff0000;" x="964.222523" xlink:href="#m80caae5ff8" y="639.849091"/>
     <use style="fill:#ff0000;stroke:#ff0000;" x="969.202203" xlink:href="#m80caae5ff8" y="639.849091"/>
     <use style="fill:#ff0000;stroke:#ff0000;" x="974.181882" xlink:href="#m80caae5ff8" y="639.849091"/>
     <use style="fill:#ff0000;stroke:#ff0000;" x="979.161561" xlink:href="#m80caae5ff8" y="639.849091"/>
     <use style="fill:#ff0000;stroke:#ff0000;" x="984.14124" xlink:href="#m80caae5ff8" y="639.849091"/>
     <use style="fill:#ff0000;stroke:#ff0000;" x="989.120919" xlink:href="#m80caae5ff8" y="639.849091"/>
     <use style="fill:#ff0000;stroke:#ff0000;" x="994.100598" xlink:href="#m80caae5ff8" y="639.849091"/>
     <use style="fill:#ff0000;stroke:#ff0000;" x="999.080277" xlink:href="#m80caae5ff8" y="639.849091"/>
     <use style="fill:#ff0000;stroke:#ff0000;" x="1004.059957" xlink:href="#m80caae5ff8" y="639.849091"/>
     <use style="fill:#ff0000;stroke:#ff0000;" x="1009.039636" xlink:href="#m80caae5ff8" y="639.849091"/>
     <use style="fill:#ff0000;stroke:#ff0000;" x="1014.019315" xlink:href="#m80caae5ff8" y="639.849091"/>
     <use style="fill:#ff0000;stroke:#ff0000;" x="1018.998994" xlink:href="#m80caae5ff8" y="639.849091"/>
     <use style="fill:#ff0000;stroke:#ff0000;" x="1023.978673" xlink:href="#m80caae5ff8" y="639.849091"/>
     <use style="fill:#ff0000;stroke:#ff0000;" x="1028.958352" xlink:href="#m80caae5ff8" y="639.849091"/>
     <use style="fill:#ff0000;stroke:#ff0000;" x="1033.938031" xlink:href="#m80caae5ff8" y="639.849091"/>
     <use style="fill:#ff0000;stroke:#ff0000;" x="1038.917711" xlink:href="#m80caae5ff8" y="639.849091"/>
     <use style="fill:#ff0000;stroke:#ff0000;" x="1043.89739" xlink:href="#m80caae5ff8" y="639.849091"/>
     <use style="fill:#ff0000;stroke:#ff0000;" x="1078.755144" xlink:href="#m80caae5ff8" y="639.849091"/>
     <use style="fill:#ff0000;stroke:#ff0000;" x="1083.734823" xlink:href="#m80caae5ff8" y="639.849091"/>
     <use style="fill:#ff0000;stroke:#ff0000;" x="1093.694181" xlink:href="#m80caae5ff8" y="639.849091"/>
     <use style="fill:#ff0000;stroke:#ff0000;" x="1098.67386" xlink:href="#m80caae5ff8" y="639.849091"/>
     <use style="fill:#ff0000;stroke:#ff0000;" x="1103.653539" xlink:href="#m80caae5ff8" y="639.849091"/>
     <use style="fill:#ff0000;stroke:#ff0000;" x="1108.633219" xlink:href="#m80caae5ff8" y="639.849091"/>
     <use style="fill:#ff0000;stroke:#ff0000;" x="1113.612898" xlink:href="#m80caae5ff8" y="639.849091"/>
    </g>
   </g>
   <g id="patch_9">
    <path d="M 46.965625 645.74 
L 46.965625 516.14 
" style="fill:none;stroke:#000000;stroke-linecap:square;stroke-linejoin:miter;stroke-width:0.8;"/>
   </g>
   <g id="patch_10">
    <path d="M 1164.405625 645.74 
L 1164.405625 516.14 
" style="fill:none;stroke:#000000;stroke-linecap:square;stroke-linejoin:miter;stroke-width:0.8;"/>
   </g>
   <g id="patch_11">
    <path d="M 46.965625 645.74 
L 1164.405625 645.74 
" style="fill:none;stroke:#000000;stroke-linecap:square;stroke-linejoin:miter;stroke-width:0.8;"/>
   </g>
   <g id="patch_12">
    <path d="M 46.965625 516.14 
L 1164.405625 516.14 
" style="fill:none;stroke:#000000;stroke-linecap:square;stroke-linejoin:miter;stroke-width:0.8;"/>
   </g>
   <g id="legend_2">
    <g id="patch_13">
     <path d="M 53.965625 582.8525 
L 144.978125 582.8525 
Q 146.978125 582.8525 146.978125 580.8525 
L 146.978125 523.14 
Q 146.978125 521.14 144.978125 521.14 
L 53.965625 521.14 
Q 51.965625 521.14 51.965625 523.14 
L 51.965625 580.8525 
Q 51.965625 582.8525 53.965625 582.8525 
z
" style="fill:#ffffff;opacity:0.8;stroke:#cccccc;stroke-linejoin:miter;"/>
    </g>
    <g id="line2d_40">
     <path d="M 55.965625 529.238437 
L 75.965625 529.238437 
" style="fill:none;stroke:#ff0000;stroke-linecap:square;stroke-width:1.5;"/>
    </g>
    <g id="line2d_41"/>
    <g id="text_33">
     <!-- Maxmimum -->
     <defs>
      <path d="M 9.8125 72.90625 
L 24.515625 72.90625 
L 43.109375 23.296875 
L 61.8125 72.90625 
L 76.515625 72.90625 
L 76.515625 0 
L 66.890625 0 
L 66.890625 64.015625 
L 48.09375 14.015625 
L 38.1875 14.015625 
L 19.390625 64.015625 
L 19.390625 0 
L 9.8125 0 
z
" id="DejaVuSans-4d"/>
      <path d="M 54.890625 54.6875 
L 35.109375 28.078125 
L 55.90625 0 
L 45.3125 0 
L 29.390625 21.484375 
L 13.484375 0 
L 2.875 0 
L 24.125 28.609375 
L 4.6875 54.6875 
L 15.28125 54.6875 
L 29.78125 35.203125 
L 44.28125 54.6875 
z
" id="DejaVuSans-78"/>
     </defs>
     <g transform="translate(83.965625 532.738437)scale(0.1 -0.1)">
      <use xlink:href="#DejaVuSans-4d"/>
      <use x="86.279297" xlink:href="#DejaVuSans-61"/>
      <use x="147.558594" xlink:href="#DejaVuSans-78"/>
      <use x="206.738281" xlink:href="#DejaVuSans-6d"/>
      <use x="304.150391" xlink:href="#DejaVuSans-69"/>
      <use x="331.933594" xlink:href="#DejaVuSans-6d"/>
      <use x="429.345703" xlink:href="#DejaVuSans-75"/>
      <use x="492.724609" xlink:href="#DejaVuSans-6d"/>
     </g>
    </g>
    <g id="line2d_42">
     <path d="M 55.965625 543.916562 
L 75.965625 543.916562 
" style="fill:none;stroke:#008000;stroke-linecap:square;stroke-width:1.5;"/>
    </g>
    <g id="line2d_43"/>
    <g id="text_34">
     <!-- Average -->
     <defs>
      <path d="M 34.1875 63.1875 
L 20.796875 26.90625 
L 47.609375 26.90625 
z
M 28.609375 72.90625 
L 39.796875 72.90625 
L 67.578125 0 
L 57.328125 0 
L 50.6875 18.703125 
L 17.828125 18.703125 
L 11.1875 0 
L 0.78125 0 
z
" id="DejaVuSans-41"/>
      <path d="M 2.984375 54.6875 
L 12.5 54.6875 
L 29.59375 8.796875 
L 46.6875 54.6875 
L 56.203125 54.6875 
L 35.6875 0 
L 23.484375 0 
z
" id="DejaVuSans-76"/>
     </defs>
     <g transform="translate(83.965625 547.416562)scale(0.1 -0.1)">
      <use xlink:href="#DejaVuSans-41"/>
      <use x="68.330078" xlink:href="#DejaVuSans-76"/>
      <use x="127.509766" xlink:href="#DejaVuSans-65"/>
      <use x="189.033203" xlink:href="#DejaVuSans-72"/>
      <use x="230.146484" xlink:href="#DejaVuSans-61"/>
      <use x="291.425781" xlink:href="#DejaVuSans-67"/>
      <use x="354.902344" xlink:href="#DejaVuSans-65"/>
     </g>
    </g>
    <g id="line2d_44">
     <path d="M 55.965625 558.594687 
L 75.965625 558.594687 
" style="fill:none;stroke:#0000ff;stroke-linecap:square;stroke-width:1.5;"/>
    </g>
    <g id="line2d_45"/>
    <g id="text_35">
     <!-- Minimum -->
     <g transform="translate(83.965625 562.094687)scale(0.1 -0.1)">
      <use xlink:href="#DejaVuSans-4d"/>
      <use x="86.279297" xlink:href="#DejaVuSans-69"/>
      <use x="114.0625" xlink:href="#DejaVuSans-6e"/>
      <use x="177.441406" xlink:href="#DejaVuSans-69"/>
      <use x="205.224609" xlink:href="#DejaVuSans-6d"/>
      <use x="302.636719" xlink:href="#DejaVuSans-75"/>
      <use x="366.015625" xlink:href="#DejaVuSans-6d"/>
     </g>
    </g>
    <g id="line2d_46"/>
    <g id="line2d_47">
     <g>
      <use style="fill:#ff0000;stroke:#ff0000;" x="65.965625" xlink:href="#m80caae5ff8" y="573.272812"/>
     </g>
    </g>
    <g id="text_36">
     <!-- Disasters -->
     <g transform="translate(83.965625 576.772812)scale(0.1 -0.1)">
      <use xlink:href="#DejaVuSans-44"/>
      <use x="77.001953" xlink:href="#DejaVuSans-69"/>
      <use x="104.785156" xlink:href="#DejaVuSans-73"/>
      <use x="156.884766" xlink:href="#DejaVuSans-61"/>
      <use x="218.164062" xlink:href="#DejaVuSans-73"/>
      <use x="270.263672" xlink:href="#DejaVuSans-74"/>
      <use x="309.472656" xlink:href="#DejaVuSans-65"/>
      <use x="370.996094" xlink:href="#DejaVuSans-72"/>
      <use x="412.109375" xlink:href="#DejaVuSans-73"/>
     </g>
    </g>
   </g>
  </g>
 </g>
 <defs>
  <clipPath id="p883fbe7d5b">
   <rect height="498.96" width="1116" x="46.965625" y="10.7"/>
  </clipPath>
  <clipPath id="p818de114eb">
   <rect height="129.6" width="1117.44" x="46.965625" y="516.14"/>
  </clipPath>
 </defs>
</svg>
