<?xml version="1.0" encoding="utf-8" standalone="no"?>
<!DOCTYPE svg PUBLIC "-//W3C//DTD SVG 1.1//EN"
  "http://www.w3.org/Graphics/SVG/1.1/DTD/svg11.dtd">
<!-- Created with matplotlib (http://matplotlib.org/) -->
<svg height="669pt" version="1.1" viewBox="0 0 1177 669" width="1177pt" xmlns="http://www.w3.org/2000/svg" xmlns:xlink="http://www.w3.org/1999/xlink">
 <defs>
  <style type="text/css">
*{stroke-linecap:butt;stroke-linejoin:round;}
  </style>
 </defs>
 <g id="figure_1">
  <g id="patch_1">
   <path d="M 0 669.618125 
L 1177.122813 669.618125 
L 1177.122813 -0 
L 0 -0 
z
" style="fill:none;"/>
  </g>
  <g id="axes_1">
   <g id="patch_2">
    <path d="M 48.982813 509.66 
L 1164.982812 509.66 
L 1164.982812 10.7 
L 48.982813 10.7 
z
" style="fill:none;"/>
   </g>
   <g id="matplotlib.axis_1">
    <g id="xtick_1">
     <g id="line2d_1">
      <defs>
       <path d="M 0 0 
L 0 3.5 
" id="m610337b894" style="stroke:#000000;stroke-width:0.8;"/>
      </defs>
      <g>
       <use style="stroke:#000000;stroke-width:0.8;" x="99.710085" xlink:href="#m610337b894" y="509.66"/>
      </g>
     </g>
     <g id="text_1">
      <!-- 0 -->
      <defs>
       <path d="M 31.78125 66.40625 
Q 24.171875 66.40625 20.328125 58.90625 
Q 16.5 51.421875 16.5 36.375 
Q 16.5 21.390625 20.328125 13.890625 
Q 24.171875 6.390625 31.78125 6.390625 
Q 39.453125 6.390625 43.28125 13.890625 
Q 47.125 21.390625 47.125 36.375 
Q 47.125 51.421875 43.28125 58.90625 
Q 39.453125 66.40625 31.78125 66.40625 
z
M 31.78125 74.21875 
Q 44.046875 74.21875 50.515625 64.515625 
Q 56.984375 54.828125 56.984375 36.375 
Q 56.984375 17.96875 50.515625 8.265625 
Q 44.046875 -1.421875 31.78125 -1.421875 
Q 19.53125 -1.421875 13.0625 8.265625 
Q 6.59375 17.96875 6.59375 36.375 
Q 6.59375 54.828125 13.0625 64.515625 
Q 19.53125 74.21875 31.78125 74.21875 
z
" id="DejaVuSans-30"/>
      </defs>
      <g transform="translate(96.528835 524.258437)scale(0.1 -0.1)">
       <use xlink:href="#DejaVuSans-30"/>
      </g>
     </g>
    </g>
    <g id="xtick_2">
     <g id="line2d_2">
      <g>
       <use style="stroke:#000000;stroke-width:0.8;" x="342.424309" xlink:href="#m610337b894" y="509.66"/>
      </g>
     </g>
     <g id="text_2">
      <!-- 50 -->
      <defs>
       <path d="M 10.796875 72.90625 
L 49.515625 72.90625 
L 49.515625 64.59375 
L 19.828125 64.59375 
L 19.828125 46.734375 
Q 21.96875 47.46875 24.109375 47.828125 
Q 26.265625 48.1875 28.421875 48.1875 
Q 40.625 48.1875 47.75 41.5 
Q 54.890625 34.8125 54.890625 23.390625 
Q 54.890625 11.625 47.5625 5.09375 
Q 40.234375 -1.421875 26.90625 -1.421875 
Q 22.3125 -1.421875 17.546875 -0.640625 
Q 12.796875 0.140625 7.71875 1.703125 
L 7.71875 11.625 
Q 12.109375 9.234375 16.796875 8.0625 
Q 21.484375 6.890625 26.703125 6.890625 
Q 35.15625 6.890625 40.078125 11.328125 
Q 45.015625 15.765625 45.015625 23.390625 
Q 45.015625 31 40.078125 35.4375 
Q 35.15625 39.890625 26.703125 39.890625 
Q 22.75 39.890625 18.8125 39.015625 
Q 14.890625 38.140625 10.796875 36.28125 
z
" id="DejaVuSans-35"/>
      </defs>
      <g transform="translate(336.061809 524.258437)scale(0.1 -0.1)">
       <use xlink:href="#DejaVuSans-35"/>
       <use x="63.623047" xlink:href="#DejaVuSans-30"/>
      </g>
     </g>
    </g>
    <g id="xtick_3">
     <g id="line2d_3">
      <g>
       <use style="stroke:#000000;stroke-width:0.8;" x="585.138532" xlink:href="#m610337b894" y="509.66"/>
      </g>
     </g>
     <g id="text_3">
      <!-- 100 -->
      <defs>
       <path d="M 12.40625 8.296875 
L 28.515625 8.296875 
L 28.515625 63.921875 
L 10.984375 60.40625 
L 10.984375 69.390625 
L 28.421875 72.90625 
L 38.28125 72.90625 
L 38.28125 8.296875 
L 54.390625 8.296875 
L 54.390625 0 
L 12.40625 0 
z
" id="DejaVuSans-31"/>
      </defs>
      <g transform="translate(575.594782 524.258437)scale(0.1 -0.1)">
       <use xlink:href="#DejaVuSans-31"/>
       <use x="63.623047" xlink:href="#DejaVuSans-30"/>
       <use x="127.246094" xlink:href="#DejaVuSans-30"/>
      </g>
     </g>
    </g>
    <g id="xtick_4">
     <g id="line2d_4">
      <g>
       <use style="stroke:#000000;stroke-width:0.8;" x="827.852756" xlink:href="#m610337b894" y="509.66"/>
      </g>
     </g>
     <g id="text_4">
      <!-- 150 -->
      <g transform="translate(818.309006 524.258437)scale(0.1 -0.1)">
       <use xlink:href="#DejaVuSans-31"/>
       <use x="63.623047" xlink:href="#DejaVuSans-35"/>
       <use x="127.246094" xlink:href="#DejaVuSans-30"/>
      </g>
     </g>
    </g>
    <g id="xtick_5">
     <g id="line2d_5">
      <g>
       <use style="stroke:#000000;stroke-width:0.8;" x="1070.56698" xlink:href="#m610337b894" y="509.66"/>
      </g>
     </g>
     <g id="text_5">
      <!-- 200 -->
      <defs>
       <path d="M 19.1875 8.296875 
L 53.609375 8.296875 
L 53.609375 0 
L 7.328125 0 
L 7.328125 8.296875 
Q 12.9375 14.109375 22.625 23.890625 
Q 32.328125 33.6875 34.8125 36.53125 
Q 39.546875 41.84375 41.421875 45.53125 
Q 43.3125 49.21875 43.3125 52.78125 
Q 43.3125 58.59375 39.234375 62.25 
Q 35.15625 65.921875 28.609375 65.921875 
Q 23.96875 65.921875 18.8125 64.3125 
Q 13.671875 62.703125 7.8125 59.421875 
L 7.8125 69.390625 
Q 13.765625 71.78125 18.9375 73 
Q 24.125 74.21875 28.421875 74.21875 
Q 39.75 74.21875 46.484375 68.546875 
Q 53.21875 62.890625 53.21875 53.421875 
Q 53.21875 48.921875 51.53125 44.890625 
Q 49.859375 40.875 45.40625 35.40625 
Q 44.1875 33.984375 37.640625 27.21875 
Q 31.109375 20.453125 19.1875 8.296875 
z
" id="DejaVuSans-32"/>
      </defs>
      <g transform="translate(1061.02323 524.258437)scale(0.1 -0.1)">
       <use xlink:href="#DejaVuSans-32"/>
       <use x="63.623047" xlink:href="#DejaVuSans-30"/>
       <use x="127.246094" xlink:href="#DejaVuSans-30"/>
      </g>
     </g>
    </g>
    <g id="text_6">
     <!-- Time -->
     <defs>
      <path d="M -0.296875 72.90625 
L 61.375 72.90625 
L 61.375 64.59375 
L 35.5 64.59375 
L 35.5 0 
L 25.59375 0 
L 25.59375 64.59375 
L -0.296875 64.59375 
z
" id="DejaVuSans-54"/>
      <path d="M 9.421875 54.6875 
L 18.40625 54.6875 
L 18.40625 0 
L 9.421875 0 
z
M 9.421875 75.984375 
L 18.40625 75.984375 
L 18.40625 64.59375 
L 9.421875 64.59375 
z
" id="DejaVuSans-69"/>
      <path d="M 52 44.1875 
Q 55.375 50.25 60.0625 53.125 
Q 64.75 56 71.09375 56 
Q 79.640625 56 84.28125 50.015625 
Q 88.921875 44.046875 88.921875 33.015625 
L 88.921875 0 
L 79.890625 0 
L 79.890625 32.71875 
Q 79.890625 40.578125 77.09375 44.375 
Q 74.3125 48.1875 68.609375 48.1875 
Q 61.625 48.1875 57.5625 43.546875 
Q 53.515625 38.921875 53.515625 30.90625 
L 53.515625 0 
L 44.484375 0 
L 44.484375 32.71875 
Q 44.484375 40.625 41.703125 44.40625 
Q 38.921875 48.1875 33.109375 48.1875 
Q 26.21875 48.1875 22.15625 43.53125 
Q 18.109375 38.875 18.109375 30.90625 
L 18.109375 0 
L 9.078125 0 
L 9.078125 54.6875 
L 18.109375 54.6875 
L 18.109375 46.1875 
Q 21.1875 51.21875 25.484375 53.609375 
Q 29.78125 56 35.6875 56 
Q 41.65625 56 45.828125 52.96875 
Q 50 49.953125 52 44.1875 
z
" id="DejaVuSans-6d"/>
      <path d="M 56.203125 29.59375 
L 56.203125 25.203125 
L 14.890625 25.203125 
Q 15.484375 15.921875 20.484375 11.0625 
Q 25.484375 6.203125 34.421875 6.203125 
Q 39.59375 6.203125 44.453125 7.46875 
Q 49.3125 8.734375 54.109375 11.28125 
L 54.109375 2.78125 
Q 49.265625 0.734375 44.1875 -0.34375 
Q 39.109375 -1.421875 33.890625 -1.421875 
Q 20.796875 -1.421875 13.15625 6.1875 
Q 5.515625 13.8125 5.515625 26.8125 
Q 5.515625 40.234375 12.765625 48.109375 
Q 20.015625 56 32.328125 56 
Q 43.359375 56 49.78125 48.890625 
Q 56.203125 41.796875 56.203125 29.59375 
z
M 47.21875 32.234375 
Q 47.125 39.59375 43.09375 43.984375 
Q 39.0625 48.390625 32.421875 48.390625 
Q 24.90625 48.390625 20.390625 44.140625 
Q 15.875 39.890625 15.1875 32.171875 
z
" id="DejaVuSans-65"/>
     </defs>
     <g transform="translate(594.595312 537.936562)scale(0.1 -0.1)">
      <use xlink:href="#DejaVuSans-54"/>
      <use x="61.037109" xlink:href="#DejaVuSans-69"/>
      <use x="88.820312" xlink:href="#DejaVuSans-6d"/>
      <use x="186.232422" xlink:href="#DejaVuSans-65"/>
     </g>
    </g>
   </g>
   <g id="matplotlib.axis_2">
    <g id="ytick_1">
     <g id="line2d_6">
      <defs>
       <path d="M 0 0 
L -3.5 0 
" id="m21edb60aac" style="stroke:#000000;stroke-width:0.8;"/>
      </defs>
      <g>
       <use style="stroke:#000000;stroke-width:0.8;" x="48.982813" xlink:href="#m21edb60aac" y="486.98"/>
      </g>
     </g>
     <g id="text_7">
      <!-- 0 -->
      <g transform="translate(35.620313 490.779219)scale(0.1 -0.1)">
       <use xlink:href="#DejaVuSans-30"/>
      </g>
     </g>
    </g>
    <g id="ytick_2">
     <g id="line2d_7">
      <g>
       <use style="stroke:#000000;stroke-width:0.8;" x="48.982813" xlink:href="#m21edb60aac" y="398.38625"/>
      </g>
     </g>
     <g id="text_8">
      <!-- 50 -->
      <g transform="translate(29.257813 402.185469)scale(0.1 -0.1)">
       <use xlink:href="#DejaVuSans-35"/>
       <use x="63.623047" xlink:href="#DejaVuSans-30"/>
      </g>
     </g>
    </g>
    <g id="ytick_3">
     <g id="line2d_8">
      <g>
       <use style="stroke:#000000;stroke-width:0.8;" x="48.982813" xlink:href="#m21edb60aac" y="309.7925"/>
      </g>
     </g>
     <g id="text_9">
      <!-- 100 -->
      <g transform="translate(22.895313 313.591719)scale(0.1 -0.1)">
       <use xlink:href="#DejaVuSans-31"/>
       <use x="63.623047" xlink:href="#DejaVuSans-30"/>
       <use x="127.246094" xlink:href="#DejaVuSans-30"/>
      </g>
     </g>
    </g>
    <g id="ytick_4">
     <g id="line2d_9">
      <g>
       <use style="stroke:#000000;stroke-width:0.8;" x="48.982813" xlink:href="#m21edb60aac" y="221.19875"/>
      </g>
     </g>
     <g id="text_10">
      <!-- 150 -->
      <g transform="translate(22.895313 224.997969)scale(0.1 -0.1)">
       <use xlink:href="#DejaVuSans-31"/>
       <use x="63.623047" xlink:href="#DejaVuSans-35"/>
       <use x="127.246094" xlink:href="#DejaVuSans-30"/>
      </g>
     </g>
    </g>
    <g id="ytick_5">
     <g id="line2d_10">
      <g>
       <use style="stroke:#000000;stroke-width:0.8;" x="48.982813" xlink:href="#m21edb60aac" y="132.605"/>
      </g>
     </g>
     <g id="text_11">
      <!-- 200 -->
      <g transform="translate(22.895313 136.404219)scale(0.1 -0.1)">
       <use xlink:href="#DejaVuSans-32"/>
       <use x="63.623047" xlink:href="#DejaVuSans-30"/>
       <use x="127.246094" xlink:href="#DejaVuSans-30"/>
      </g>
     </g>
    </g>
    <g id="ytick_6">
     <g id="line2d_11">
      <g>
       <use style="stroke:#000000;stroke-width:0.8;" x="48.982813" xlink:href="#m21edb60aac" y="44.01125"/>
      </g>
     </g>
     <g id="text_12">
      <!-- 250 -->
      <g transform="translate(22.895313 47.810469)scale(0.1 -0.1)">
       <use xlink:href="#DejaVuSans-32"/>
       <use x="63.623047" xlink:href="#DejaVuSans-35"/>
       <use x="127.246094" xlink:href="#DejaVuSans-30"/>
      </g>
     </g>
    </g>
    <g id="text_13">
     <!-- Refugees -->
     <defs>
      <path d="M 44.390625 34.1875 
Q 47.5625 33.109375 50.5625 29.59375 
Q 53.5625 26.078125 56.59375 19.921875 
L 66.609375 0 
L 56 0 
L 46.6875 18.703125 
Q 43.0625 26.03125 39.671875 28.421875 
Q 36.28125 30.8125 30.421875 30.8125 
L 19.671875 30.8125 
L 19.671875 0 
L 9.8125 0 
L 9.8125 72.90625 
L 32.078125 72.90625 
Q 44.578125 72.90625 50.734375 67.671875 
Q 56.890625 62.453125 56.890625 51.90625 
Q 56.890625 45.015625 53.6875 40.46875 
Q 50.484375 35.9375 44.390625 34.1875 
z
M 19.671875 64.796875 
L 19.671875 38.921875 
L 32.078125 38.921875 
Q 39.203125 38.921875 42.84375 42.21875 
Q 46.484375 45.515625 46.484375 51.90625 
Q 46.484375 58.296875 42.84375 61.546875 
Q 39.203125 64.796875 32.078125 64.796875 
z
" id="DejaVuSans-52"/>
      <path d="M 37.109375 75.984375 
L 37.109375 68.5 
L 28.515625 68.5 
Q 23.6875 68.5 21.796875 66.546875 
Q 19.921875 64.59375 19.921875 59.515625 
L 19.921875 54.6875 
L 34.71875 54.6875 
L 34.71875 47.703125 
L 19.921875 47.703125 
L 19.921875 0 
L 10.890625 0 
L 10.890625 47.703125 
L 2.296875 47.703125 
L 2.296875 54.6875 
L 10.890625 54.6875 
L 10.890625 58.5 
Q 10.890625 67.625 15.140625 71.796875 
Q 19.390625 75.984375 28.609375 75.984375 
z
" id="DejaVuSans-66"/>
      <path d="M 8.5 21.578125 
L 8.5 54.6875 
L 17.484375 54.6875 
L 17.484375 21.921875 
Q 17.484375 14.15625 20.5 10.265625 
Q 23.53125 6.390625 29.59375 6.390625 
Q 36.859375 6.390625 41.078125 11.03125 
Q 45.3125 15.671875 45.3125 23.6875 
L 45.3125 54.6875 
L 54.296875 54.6875 
L 54.296875 0 
L 45.3125 0 
L 45.3125 8.40625 
Q 42.046875 3.421875 37.71875 1 
Q 33.40625 -1.421875 27.6875 -1.421875 
Q 18.265625 -1.421875 13.375 4.4375 
Q 8.5 10.296875 8.5 21.578125 
z
M 31.109375 56 
z
" id="DejaVuSans-75"/>
      <path d="M 45.40625 27.984375 
Q 45.40625 37.75 41.375 43.109375 
Q 37.359375 48.484375 30.078125 48.484375 
Q 22.859375 48.484375 18.828125 43.109375 
Q 14.796875 37.75 14.796875 27.984375 
Q 14.796875 18.265625 18.828125 12.890625 
Q 22.859375 7.515625 30.078125 7.515625 
Q 37.359375 7.515625 41.375 12.890625 
Q 45.40625 18.265625 45.40625 27.984375 
z
M 54.390625 6.78125 
Q 54.390625 -7.171875 48.1875 -13.984375 
Q 42 -20.796875 29.203125 -20.796875 
Q 24.46875 -20.796875 20.265625 -20.09375 
Q 16.0625 -19.390625 12.109375 -17.921875 
L 12.109375 -9.1875 
Q 16.0625 -11.328125 19.921875 -12.34375 
Q 23.78125 -13.375 27.78125 -13.375 
Q 36.625 -13.375 41.015625 -8.765625 
Q 45.40625 -4.15625 45.40625 5.171875 
L 45.40625 9.625 
Q 42.625 4.78125 38.28125 2.390625 
Q 33.9375 0 27.875 0 
Q 17.828125 0 11.671875 7.65625 
Q 5.515625 15.328125 5.515625 27.984375 
Q 5.515625 40.671875 11.671875 48.328125 
Q 17.828125 56 27.875 56 
Q 33.9375 56 38.28125 53.609375 
Q 42.625 51.21875 45.40625 46.390625 
L 45.40625 54.6875 
L 54.390625 54.6875 
z
" id="DejaVuSans-67"/>
      <path d="M 44.28125 53.078125 
L 44.28125 44.578125 
Q 40.484375 46.53125 36.375 47.5 
Q 32.28125 48.484375 27.875 48.484375 
Q 21.1875 48.484375 17.84375 46.4375 
Q 14.5 44.390625 14.5 40.28125 
Q 14.5 37.15625 16.890625 35.375 
Q 19.28125 33.59375 26.515625 31.984375 
L 29.59375 31.296875 
Q 39.15625 29.25 43.1875 25.515625 
Q 47.21875 21.78125 47.21875 15.09375 
Q 47.21875 7.46875 41.1875 3.015625 
Q 35.15625 -1.421875 24.609375 -1.421875 
Q 20.21875 -1.421875 15.453125 -0.5625 
Q 10.6875 0.296875 5.421875 2 
L 5.421875 11.28125 
Q 10.40625 8.6875 15.234375 7.390625 
Q 20.0625 6.109375 24.8125 6.109375 
Q 31.15625 6.109375 34.5625 8.28125 
Q 37.984375 10.453125 37.984375 14.40625 
Q 37.984375 18.0625 35.515625 20.015625 
Q 33.0625 21.96875 24.703125 23.78125 
L 21.578125 24.515625 
Q 13.234375 26.265625 9.515625 29.90625 
Q 5.8125 33.546875 5.8125 39.890625 
Q 5.8125 47.609375 11.28125 51.796875 
Q 16.75 56 26.8125 56 
Q 31.78125 56 36.171875 55.265625 
Q 40.578125 54.546875 44.28125 53.078125 
z
" id="DejaVuSans-73"/>
     </defs>
     <g style="fill:#ff7f0e;" transform="translate(16.815625 283.588594)rotate(-90)scale(0.1 -0.1)">
      <use xlink:href="#DejaVuSans-52"/>
      <use x="69.419922" xlink:href="#DejaVuSans-65"/>
      <use x="130.943359" xlink:href="#DejaVuSans-66"/>
      <use x="166.148438" xlink:href="#DejaVuSans-75"/>
      <use x="229.527344" xlink:href="#DejaVuSans-67"/>
      <use x="293.003906" xlink:href="#DejaVuSans-65"/>
      <use x="354.527344" xlink:href="#DejaVuSans-65"/>
      <use x="416.050781" xlink:href="#DejaVuSans-73"/>
     </g>
    </g>
   </g>
   <g id="line2d_12">
    <path clip-path="url(#p8baad46b61)" d="M 99.710085 465.205174 
L 104.56437 460.483899 
L 109.418654 461.945052 
L 114.272939 470.314536 
L 119.127223 470.693065 
L 123.981508 454.506057 
L 128.835792 253.374384 
L 133.690077 247.733103 
L 138.544361 250.528613 
L 143.398645 257.595835 
L 148.25293 260.342423 
L 153.107214 240.331653 
L 157.961499 367.649737 
L 162.815783 362.504767 
L 167.670068 364.580467 
L 172.524352 372.350156 
L 177.378637 373.819295 
L 182.232921 355.871294 
L 187.087206 303.905185 
L 191.94149 298.483387 
L 196.795775 300.960621 
L 201.650059 308.338468 
L 206.504344 310.520178 
L 211.358628 291.421517 
L 216.212913 397.232312 
L 221.067197 392.215813 
L 225.921481 394.105129 
L 230.775766 402.056755 
L 235.63005 403.195154 
L 240.484335 385.781168 
L 245.338619 384.041338 
L 250.192904 378.967576 
L 255.047188 380.939989 
L 259.901473 388.810491 
L 264.755757 390.096369 
L 269.610042 372.444257 
L 274.464326 345.436236 
L 279.318611 340.194786 
L 284.172895 342.410414 
L 289.02718 350.043568 
L 293.881464 351.761018 
L 298.735749 333.412057 
L 303.590033 349.535332 
L 308.444318 344.311713 
L 313.298602 346.501507 
L 318.152886 354.159873 
L 323.007171 355.831483 
L 327.861455 337.556494 
L 332.71574 375.829518 
L 337.570024 370.720075 
L 342.424309 372.744229 
L 347.278593 380.56424 
L 352.132878 381.941914 
L 356.987162 364.141581 
L 361.841447 404.960094 
L 366.695731 399.977155 
L 371.550016 401.817811 
L 376.4043 409.816907 
L 381.258585 410.868951 
L 386.112869 393.594447 
L 390.967154 399.375914 
L 395.821438 394.368723 
L 400.675722 396.244581 
L 405.530007 404.209353 
L 410.384291 405.323784 
L 415.238576 387.948495 
L 420.09286 406.839149 
L 424.947145 401.864396 
L 429.801429 403.693203 
L 434.655714 411.703863 
L 439.509998 412.734866 
L 444.364283 395.4943 
L 449.218567 410.208371 
L 454.072852 405.248224 
L 458.927136 407.055814 
L 463.781421 415.087184 
L 468.635705 416.080532 
L 473.48999 398.900785 
L 478.344274 435.522362 
L 483.198558 430.67217 
L 488.052843 432.320305 
L 492.907127 440.507309 
L 497.761412 441.217663 
L 502.615696 424.494863 
L 507.469981 449.198374 
L 512.324265 444.407581 
L 517.17855 445.969564 
L 522.032834 454.240648 
L 526.887119 454.79811 
L 531.741403 438.322171 
L 536.595688 420.92067 
L 541.449972 416.007046 
L 546.304257 417.747153 
L 551.158541 425.844378 
L 556.012826 426.71798 
L 560.86711 409.731599 
L 565.721394 431.004417 
L 570.575679 426.134596 
L 575.429963 427.811187 
L 580.284248 435.970424 
L 585.138532 436.731297 
L 589.992817 419.92693 
L 594.847101 479.127298 
L 599.701386 477.430728 
L 604.55567 480.196487 
L 609.409955 486.98 
L 614.264239 486.777294 
L 619.118524 469.541935 
L 623.972808 402.310311 
L 628.827093 397.315882 
L 633.681377 399.173247 
L 638.535662 407.156053 
L 643.389946 408.237681 
L 648.244231 390.915357 
L 653.098515 411.440425 
L 657.952799 406.485638 
L 662.807084 408.285448 
L 667.661368 416.324409 
L 672.515653 417.303995 
L 677.369937 400.146486 
L 682.224222 401.104841 
L 687.078506 396.10518 
L 691.932791 397.970129 
L 696.787075 405.945506 
L 701.64136 407.040633 
L 706.495644 389.696557 
L 711.349929 405.365941 
L 716.204213 400.384787 
L 721.058498 402.222895 
L 725.912782 410.224478 
L 730.767067 411.271973 
L 735.621351 394.004789 
L 740.475635 375.240146 
L 745.32992 370.128134 
L 750.184204 372.156019 
L 755.038489 379.972428 
L 759.892773 381.356671 
L 764.747058 363.545693 
L 769.601342 100.651526 
L 774.455627 105.33625 
L 779.309911 126.999055 
L 784.164196 150.004501 
L 789.01848 166.240912 
L 793.872765 153.333958 
L 798.727049 217.57389 
L 803.581334 217.897276 
L 808.435618 224.524287 
L 813.289903 231.6322 
L 818.144187 232.278944 
L 822.998471 209.780868 
L 827.852756 315.541306 
L 832.70704 310.170013 
L 837.561325 312.573965 
L 842.415609 320.023337 
L 847.269894 322.07496 
L 852.124178 303.186347 
L 856.978463 303.501379 
L 861.832747 298.077796 
L 866.687032 300.557586 
L 871.541316 307.932932 
L 876.395601 310.119171 
L 881.249885 291.013237 
L 886.10417 359.758788 
L 890.958454 354.57955 
L 895.812739 356.704956 
L 900.667023 364.426169 
L 905.521307 365.983508 
L 910.375592 347.893071 
L 915.229876 320.134809 
L 920.084161 314.783455 
L 924.938445 317.158505 
L 929.79273 324.636076 
L 934.647014 326.63637 
L 939.501299 307.830692 
L 944.355583 343.40685 
L 949.209868 338.1566 
L 954.064152 340.385002 
L 958.918437 348.005665 
L 963.772721 349.745799 
L 968.627006 331.36019 
L 973.48129 257.868338 
L 978.335575 252.246604 
L 983.189859 255.013807 
L 988.044144 262.10862 
L 992.898428 264.805014 
L 997.752712 244.875327 
L 1002.606997 380.851512 
L 1007.461281 375.763887 
L 1012.315566 377.756408 
L 1017.16985 385.607302 
L 1022.024135 386.928827 
L 1026.878419 369.219148 
L 1031.732704 340.118015 
L 1036.586988 334.853462 
L 1041.441273 337.102589 
L 1046.295557 344.703055 
L 1051.149842 346.479959 
L 1056.004126 328.034991 
L 1060.858411 370.67049 
L 1065.712695 365.538633 
L 1070.56698 367.595299 
L 1075.421264 375.383623 
L 1080.275548 376.818952 
L 1085.129833 358.925491 
L 1089.984117 367.337193 
L 1094.838402 362.190872 
L 1099.692686 364.268531 
L 1104.546971 372.036342 
L 1109.401255 373.508934 
L 1114.25554 355.555303 
L 1114.25554 355.555303 
" style="fill:none;stroke:#008000;stroke-dasharray:5.55,2.4;stroke-dashoffset:0;stroke-width:1.5;"/>
   </g>
   <g id="line2d_13">
    <path clip-path="url(#p8baad46b61)" d="M 99.710085 472.805 
L 104.56437 449.770625 
L 109.418654 446.226875 
L 119.127223 300.933125 
L 123.981508 68.8175 
L 128.835792 380.6675 
L 133.690077 416.105 
L 138.544361 370.03625 
L 143.398645 414.333125 
L 148.25293 334.59875 
L 153.107214 361.176875 
L 157.961499 347.001875 
L 162.815783 308.020625 
L 167.670068 304.476875 
L 172.524352 217.655 
L 177.378637 341.68625 
L 182.232921 281.4425 
L 187.087206 304.476875 
L 191.94149 416.105 
L 196.795775 424.964375 
L 201.650059 409.0175 
L 206.504344 405.47375 
L 211.358628 417.876875 
L 216.212913 362.94875 
L 221.067197 396.614375 
L 225.921481 370.03625 
L 230.775766 401.93 
L 235.63005 394.8425 
L 240.484335 393.070625 
L 245.338619 396.614375 
L 250.192904 384.21125 
L 255.047188 366.4925 
L 259.901473 389.526875 
L 264.755757 375.351875 
L 269.610042 327.51125 
L 274.464326 389.526875 
L 279.318611 370.03625 
L 284.172895 394.8425 
L 289.02718 366.4925 
L 293.881464 391.29875 
L 298.735749 327.51125 
L 308.444318 398.38625 
L 313.298602 361.176875 
L 318.152886 377.12375 
L 323.007171 401.93 
L 327.861455 331.055 
L 332.71574 329.283125 
L 337.570024 410.789375 
L 342.424309 352.3175 
L 347.278593 355.86125 
L 352.132878 409.0175 
L 356.987162 385.983125 
L 361.841447 412.56125 
L 366.695731 407.245625 
L 371.550016 394.8425 
L 376.4043 380.6675 
L 381.258585 407.245625 
L 386.112869 394.8425 
L 390.967154 331.055 
L 395.821438 426.73625 
L 405.530007 409.0175 
L 410.384291 380.6675 
L 420.09286 433.82375 
L 424.947145 439.139375 
L 429.801429 417.876875 
L 434.655714 370.03625 
L 439.509998 426.73625 
L 444.364283 398.38625 
L 449.218567 414.333125 
L 454.072852 400.158125 
L 458.927136 447.99875 
L 463.781421 398.38625 
L 468.635705 382.439375 
L 473.48999 444.455 
L 478.344274 419.64875 
L 483.198558 433.82375 
L 488.052843 426.73625 
L 492.907127 451.5425 
L 497.761412 453.314375 
L 502.615696 432.051875 
L 507.469981 421.420625 
L 512.324265 407.245625 
L 517.17855 426.73625 
L 522.032834 433.82375 
L 526.887119 400.158125 
L 531.741403 424.964375 
L 536.595688 389.526875 
L 541.449972 432.051875 
L 546.304257 421.420625 
L 551.158541 432.051875 
L 556.012826 465.7175 
L 560.86711 423.1925 
L 565.721394 455.08625 
L 570.575679 435.595625 
L 575.429963 449.770625 
L 580.284248 437.3675 
L 585.138532 465.7175 
L 589.992817 447.99875 
L 594.847101 446.226875 
L 599.701386 449.770625 
L 604.55567 447.99875 
L 609.409955 442.683125 
L 614.264239 423.1925 
L 619.118524 419.64875 
L 623.972808 462.17375 
L 628.827093 442.683125 
L 633.681377 428.508125 
L 638.535662 405.47375 
L 643.389946 421.420625 
L 648.244231 400.158125 
L 653.098515 424.964375 
L 657.952799 424.964375 
L 662.807084 435.595625 
L 667.661368 405.47375 
L 672.515653 423.1925 
L 677.369937 419.64875 
L 682.224222 283.214375 
L 687.078506 419.64875 
L 691.932791 416.105 
L 696.787075 355.86125 
L 701.64136 432.051875 
L 706.495644 424.964375 
L 711.349929 410.789375 
L 716.204213 435.595625 
L 721.058498 428.508125 
L 725.912782 394.8425 
L 730.767067 385.983125 
L 735.621351 325.739375 
L 740.475635 201.708125 
L 745.32992 88.308125 
L 750.184204 150.32375 
L 755.038489 58.18625 
L 759.892773 33.38 
L 764.747058 98.939375 
L 769.601342 160.955 
L 774.455627 231.83 
L 779.309911 215.883125 
L 784.164196 276.126875 
L 789.01848 254.864375 
L 793.872765 309.7925 
L 798.727049 313.33625 
L 803.581334 323.9675 
L 808.435618 304.476875 
L 813.289903 254.864375 
L 818.144187 322.195625 
L 822.998471 279.670625 
L 827.852756 339.914375 
L 832.70704 341.68625 
L 837.561325 315.108125 
L 842.415609 329.283125 
L 847.269894 327.51125 
L 852.124178 284.98625 
L 856.978463 364.720625 
L 861.832747 332.826875 
L 871.541316 336.370625 
L 876.395601 320.42375 
L 881.249885 364.720625 
L 886.10417 357.633125 
L 890.958454 348.77375 
L 895.812739 297.389375 
L 900.667023 352.3175 
L 910.375592 299.16125 
L 915.229876 343.458125 
L 920.084161 368.264375 
L 924.938445 331.055 
L 929.79273 300.933125 
L 934.647014 290.301875 
L 939.501299 371.808125 
L 944.355583 284.98625 
L 949.209868 320.42375 
L 954.064152 306.24875 
L 958.918437 316.88 
L 963.772721 320.42375 
L 968.627006 185.76125 
L 973.48129 281.4425 
L 978.335575 329.283125 
L 983.189859 299.16125 
L 988.044144 347.001875 
L 992.898428 396.614375 
L 997.752712 370.03625 
L 1002.606997 355.86125 
L 1012.315566 366.4925 
L 1017.16985 396.614375 
L 1022.024135 331.055 
L 1026.878419 329.283125 
L 1031.732704 354.089375 
L 1036.586988 347.001875 
L 1041.441273 364.720625 
L 1046.295557 345.23 
L 1051.149842 341.68625 
L 1056.004126 350.545625 
L 1060.858411 453.314375 
L 1065.712695 430.28 
L 1070.56698 361.176875 
L 1075.421264 410.789375 
L 1080.275548 378.895625 
L 1085.129833 318.651875 
L 1089.984117 373.58 
L 1094.838402 364.720625 
L 1099.692686 318.651875 
L 1104.546971 357.633125 
L 1114.25554 385.983125 
L 1114.25554 385.983125 
" style="fill:none;stroke:#ff7f0e;stroke-linecap:square;stroke-width:1.5;"/>
   </g>
   <g id="line2d_14">
    <defs>
     <path d="M 0 3 
C 0.795609 3 1.55874 2.683901 2.12132 2.12132 
C 2.683901 1.55874 3 0.795609 3 0 
C 3 -0.795609 2.683901 -1.55874 2.12132 -2.12132 
C 1.55874 -2.683901 0.795609 -3 0 -3 
C -0.795609 -3 -1.55874 -2.683901 -2.12132 -2.12132 
C -2.683901 -1.55874 -3 -0.795609 -3 0 
C -3 0.795609 -2.683901 1.55874 -2.12132 2.12132 
C -1.55874 2.683901 -0.795609 3 0 3 
z
" id="m71c89eb75a" style="stroke:#008000;"/>
    </defs>
    <g clip-path="url(#p8baad46b61)">
     <use style="fill:#008000;stroke:#008000;" x="99.710085" xlink:href="#m71c89eb75a" y="465.205174"/>
     <use style="fill:#008000;stroke:#008000;" x="128.835792" xlink:href="#m71c89eb75a" y="253.374384"/>
     <use style="fill:#008000;stroke:#008000;" x="157.961499" xlink:href="#m71c89eb75a" y="367.649737"/>
     <use style="fill:#008000;stroke:#008000;" x="187.087206" xlink:href="#m71c89eb75a" y="303.905185"/>
     <use style="fill:#008000;stroke:#008000;" x="216.212913" xlink:href="#m71c89eb75a" y="397.232312"/>
     <use style="fill:#008000;stroke:#008000;" x="245.338619" xlink:href="#m71c89eb75a" y="384.041338"/>
     <use style="fill:#008000;stroke:#008000;" x="274.464326" xlink:href="#m71c89eb75a" y="345.436236"/>
     <use style="fill:#008000;stroke:#008000;" x="303.590033" xlink:href="#m71c89eb75a" y="349.535332"/>
     <use style="fill:#008000;stroke:#008000;" x="332.71574" xlink:href="#m71c89eb75a" y="375.829518"/>
     <use style="fill:#008000;stroke:#008000;" x="361.841447" xlink:href="#m71c89eb75a" y="404.960094"/>
     <use style="fill:#008000;stroke:#008000;" x="390.967154" xlink:href="#m71c89eb75a" y="399.375914"/>
     <use style="fill:#008000;stroke:#008000;" x="420.09286" xlink:href="#m71c89eb75a" y="406.839149"/>
     <use style="fill:#008000;stroke:#008000;" x="449.218567" xlink:href="#m71c89eb75a" y="410.208371"/>
     <use style="fill:#008000;stroke:#008000;" x="478.344274" xlink:href="#m71c89eb75a" y="435.522362"/>
     <use style="fill:#008000;stroke:#008000;" x="507.469981" xlink:href="#m71c89eb75a" y="449.198374"/>
     <use style="fill:#008000;stroke:#008000;" x="536.595688" xlink:href="#m71c89eb75a" y="420.92067"/>
     <use style="fill:#008000;stroke:#008000;" x="565.721394" xlink:href="#m71c89eb75a" y="431.004417"/>
     <use style="fill:#008000;stroke:#008000;" x="594.847101" xlink:href="#m71c89eb75a" y="479.127298"/>
     <use style="fill:#008000;stroke:#008000;" x="623.972808" xlink:href="#m71c89eb75a" y="402.310311"/>
     <use style="fill:#008000;stroke:#008000;" x="653.098515" xlink:href="#m71c89eb75a" y="411.440425"/>
     <use style="fill:#008000;stroke:#008000;" x="682.224222" xlink:href="#m71c89eb75a" y="401.104841"/>
     <use style="fill:#008000;stroke:#008000;" x="711.349929" xlink:href="#m71c89eb75a" y="405.365941"/>
     <use style="fill:#008000;stroke:#008000;" x="740.475635" xlink:href="#m71c89eb75a" y="375.240146"/>
     <use style="fill:#008000;stroke:#008000;" x="769.601342" xlink:href="#m71c89eb75a" y="100.651526"/>
     <use style="fill:#008000;stroke:#008000;" x="798.727049" xlink:href="#m71c89eb75a" y="217.57389"/>
     <use style="fill:#008000;stroke:#008000;" x="827.852756" xlink:href="#m71c89eb75a" y="315.541306"/>
     <use style="fill:#008000;stroke:#008000;" x="856.978463" xlink:href="#m71c89eb75a" y="303.501379"/>
     <use style="fill:#008000;stroke:#008000;" x="886.10417" xlink:href="#m71c89eb75a" y="359.758788"/>
     <use style="fill:#008000;stroke:#008000;" x="915.229876" xlink:href="#m71c89eb75a" y="320.134809"/>
     <use style="fill:#008000;stroke:#008000;" x="944.355583" xlink:href="#m71c89eb75a" y="343.40685"/>
     <use style="fill:#008000;stroke:#008000;" x="973.48129" xlink:href="#m71c89eb75a" y="257.868338"/>
     <use style="fill:#008000;stroke:#008000;" x="1002.606997" xlink:href="#m71c89eb75a" y="380.851512"/>
     <use style="fill:#008000;stroke:#008000;" x="1031.732704" xlink:href="#m71c89eb75a" y="340.118015"/>
     <use style="fill:#008000;stroke:#008000;" x="1060.858411" xlink:href="#m71c89eb75a" y="370.67049"/>
     <use style="fill:#008000;stroke:#008000;" x="1089.984117" xlink:href="#m71c89eb75a" y="367.337193"/>
    </g>
   </g>
   <g id="patch_3">
    <path d="M 48.982813 509.66 
L 48.982813 10.7 
" style="fill:none;stroke:#000000;stroke-linecap:square;stroke-linejoin:miter;stroke-width:0.8;"/>
   </g>
   <g id="patch_4">
    <path d="M 1164.982812 509.66 
L 1164.982812 10.7 
" style="fill:none;stroke:#000000;stroke-linecap:square;stroke-linejoin:miter;stroke-width:0.8;"/>
   </g>
   <g id="patch_5">
    <path d="M 48.982813 509.66 
L 1164.982812 509.66 
" style="fill:none;stroke:#000000;stroke-linecap:square;stroke-linejoin:miter;stroke-width:0.8;"/>
   </g>
   <g id="patch_6">
    <path d="M 48.982813 10.7 
L 1164.982812 10.7 
" style="fill:none;stroke:#000000;stroke-linecap:square;stroke-linejoin:miter;stroke-width:0.8;"/>
   </g>
   <g id="legend_1">
    <g id="patch_7">
     <path d="M 55.982813 62.734375 
L 203.757813 62.734375 
Q 205.757813 62.734375 205.757813 60.734375 
L 205.757813 17.7 
Q 205.757813 15.7 203.757813 15.7 
L 55.982813 15.7 
Q 53.982813 15.7 53.982813 17.7 
L 53.982813 60.734375 
Q 53.982813 62.734375 55.982813 62.734375 
z
" style="fill:#ffffff;opacity:0.8;stroke:#cccccc;stroke-linejoin:miter;"/>
    </g>
    <g id="line2d_15">
     <path d="M 57.982813 23.798437 
L 77.982813 23.798437 
" style="fill:none;stroke:#008000;stroke-dasharray:5.55,2.4;stroke-dashoffset:0;stroke-width:1.5;"/>
    </g>
    <g id="line2d_16"/>
    <g id="text_14">
     <!-- Predicted -->
     <defs>
      <path d="M 19.671875 64.796875 
L 19.671875 37.40625 
L 32.078125 37.40625 
Q 38.96875 37.40625 42.71875 40.96875 
Q 46.484375 44.53125 46.484375 51.125 
Q 46.484375 57.671875 42.71875 61.234375 
Q 38.96875 64.796875 32.078125 64.796875 
z
M 9.8125 72.90625 
L 32.078125 72.90625 
Q 44.34375 72.90625 50.609375 67.359375 
Q 56.890625 61.8125 56.890625 51.125 
Q 56.890625 40.328125 50.609375 34.8125 
Q 44.34375 29.296875 32.078125 29.296875 
L 19.671875 29.296875 
L 19.671875 0 
L 9.8125 0 
z
" id="DejaVuSans-50"/>
      <path d="M 41.109375 46.296875 
Q 39.59375 47.171875 37.8125 47.578125 
Q 36.03125 48 33.890625 48 
Q 26.265625 48 22.1875 43.046875 
Q 18.109375 38.09375 18.109375 28.8125 
L 18.109375 0 
L 9.078125 0 
L 9.078125 54.6875 
L 18.109375 54.6875 
L 18.109375 46.1875 
Q 20.953125 51.171875 25.484375 53.578125 
Q 30.03125 56 36.53125 56 
Q 37.453125 56 38.578125 55.875 
Q 39.703125 55.765625 41.0625 55.515625 
z
" id="DejaVuSans-72"/>
      <path d="M 45.40625 46.390625 
L 45.40625 75.984375 
L 54.390625 75.984375 
L 54.390625 0 
L 45.40625 0 
L 45.40625 8.203125 
Q 42.578125 3.328125 38.25 0.953125 
Q 33.9375 -1.421875 27.875 -1.421875 
Q 17.96875 -1.421875 11.734375 6.484375 
Q 5.515625 14.40625 5.515625 27.296875 
Q 5.515625 40.1875 11.734375 48.09375 
Q 17.96875 56 27.875 56 
Q 33.9375 56 38.25 53.625 
Q 42.578125 51.265625 45.40625 46.390625 
z
M 14.796875 27.296875 
Q 14.796875 17.390625 18.875 11.75 
Q 22.953125 6.109375 30.078125 6.109375 
Q 37.203125 6.109375 41.296875 11.75 
Q 45.40625 17.390625 45.40625 27.296875 
Q 45.40625 37.203125 41.296875 42.84375 
Q 37.203125 48.484375 30.078125 48.484375 
Q 22.953125 48.484375 18.875 42.84375 
Q 14.796875 37.203125 14.796875 27.296875 
z
" id="DejaVuSans-64"/>
      <path d="M 48.78125 52.59375 
L 48.78125 44.1875 
Q 44.96875 46.296875 41.140625 47.34375 
Q 37.3125 48.390625 33.40625 48.390625 
Q 24.65625 48.390625 19.8125 42.84375 
Q 14.984375 37.3125 14.984375 27.296875 
Q 14.984375 17.28125 19.8125 11.734375 
Q 24.65625 6.203125 33.40625 6.203125 
Q 37.3125 6.203125 41.140625 7.25 
Q 44.96875 8.296875 48.78125 10.40625 
L 48.78125 2.09375 
Q 45.015625 0.34375 40.984375 -0.53125 
Q 36.96875 -1.421875 32.421875 -1.421875 
Q 20.0625 -1.421875 12.78125 6.34375 
Q 5.515625 14.109375 5.515625 27.296875 
Q 5.515625 40.671875 12.859375 48.328125 
Q 20.21875 56 33.015625 56 
Q 37.15625 56 41.109375 55.140625 
Q 45.0625 54.296875 48.78125 52.59375 
z
" id="DejaVuSans-63"/>
      <path d="M 18.3125 70.21875 
L 18.3125 54.6875 
L 36.8125 54.6875 
L 36.8125 47.703125 
L 18.3125 47.703125 
L 18.3125 18.015625 
Q 18.3125 11.328125 20.140625 9.421875 
Q 21.96875 7.515625 27.59375 7.515625 
L 36.8125 7.515625 
L 36.8125 0 
L 27.59375 0 
Q 17.1875 0 13.234375 3.875 
Q 9.28125 7.765625 9.28125 18.015625 
L 9.28125 47.703125 
L 2.6875 47.703125 
L 2.6875 54.6875 
L 9.28125 54.6875 
L 9.28125 70.21875 
z
" id="DejaVuSans-74"/>
     </defs>
     <g transform="translate(85.982813 27.298437)scale(0.1 -0.1)">
      <use xlink:href="#DejaVuSans-50"/>
      <use x="60.287109" xlink:href="#DejaVuSans-72"/>
      <use x="101.369141" xlink:href="#DejaVuSans-65"/>
      <use x="162.892578" xlink:href="#DejaVuSans-64"/>
      <use x="226.369141" xlink:href="#DejaVuSans-69"/>
      <use x="254.152344" xlink:href="#DejaVuSans-63"/>
      <use x="309.132812" xlink:href="#DejaVuSans-74"/>
      <use x="348.341797" xlink:href="#DejaVuSans-65"/>
      <use x="409.865234" xlink:href="#DejaVuSans-64"/>
     </g>
    </g>
    <g id="line2d_17">
     <path d="M 57.982813 38.476562 
L 77.982813 38.476562 
" style="fill:none;stroke:#ff7f0e;stroke-linecap:square;stroke-width:1.5;"/>
    </g>
    <g id="line2d_18"/>
    <g id="text_15">
     <!-- Real Data -->
     <defs>
      <path d="M 34.28125 27.484375 
Q 23.390625 27.484375 19.1875 25 
Q 14.984375 22.515625 14.984375 16.5 
Q 14.984375 11.71875 18.140625 8.90625 
Q 21.296875 6.109375 26.703125 6.109375 
Q 34.1875 6.109375 38.703125 11.40625 
Q 43.21875 16.703125 43.21875 25.484375 
L 43.21875 27.484375 
z
M 52.203125 31.203125 
L 52.203125 0 
L 43.21875 0 
L 43.21875 8.296875 
Q 40.140625 3.328125 35.546875 0.953125 
Q 30.953125 -1.421875 24.3125 -1.421875 
Q 15.921875 -1.421875 10.953125 3.296875 
Q 6 8.015625 6 15.921875 
Q 6 25.140625 12.171875 29.828125 
Q 18.359375 34.515625 30.609375 34.515625 
L 43.21875 34.515625 
L 43.21875 35.40625 
Q 43.21875 41.609375 39.140625 45 
Q 35.0625 48.390625 27.6875 48.390625 
Q 23 48.390625 18.546875 47.265625 
Q 14.109375 46.140625 10.015625 43.890625 
L 10.015625 52.203125 
Q 14.9375 54.109375 19.578125 55.046875 
Q 24.21875 56 28.609375 56 
Q 40.484375 56 46.34375 49.84375 
Q 52.203125 43.703125 52.203125 31.203125 
z
" id="DejaVuSans-61"/>
      <path d="M 9.421875 75.984375 
L 18.40625 75.984375 
L 18.40625 0 
L 9.421875 0 
z
" id="DejaVuSans-6c"/>
      <path id="DejaVuSans-20"/>
      <path d="M 19.671875 64.796875 
L 19.671875 8.109375 
L 31.59375 8.109375 
Q 46.6875 8.109375 53.6875 14.9375 
Q 60.6875 21.78125 60.6875 36.53125 
Q 60.6875 51.171875 53.6875 57.984375 
Q 46.6875 64.796875 31.59375 64.796875 
z
M 9.8125 72.90625 
L 30.078125 72.90625 
Q 51.265625 72.90625 61.171875 64.09375 
Q 71.09375 55.28125 71.09375 36.53125 
Q 71.09375 17.671875 61.125 8.828125 
Q 51.171875 0 30.078125 0 
L 9.8125 0 
z
" id="DejaVuSans-44"/>
     </defs>
     <g transform="translate(85.982813 41.976562)scale(0.1 -0.1)">
      <use xlink:href="#DejaVuSans-52"/>
      <use x="69.419922" xlink:href="#DejaVuSans-65"/>
      <use x="130.943359" xlink:href="#DejaVuSans-61"/>
      <use x="192.222656" xlink:href="#DejaVuSans-6c"/>
      <use x="220.005859" xlink:href="#DejaVuSans-20"/>
      <use x="251.792969" xlink:href="#DejaVuSans-44"/>
      <use x="328.794922" xlink:href="#DejaVuSans-61"/>
      <use x="390.074219" xlink:href="#DejaVuSans-74"/>
      <use x="429.283203" xlink:href="#DejaVuSans-61"/>
     </g>
    </g>
    <g id="line2d_19"/>
    <g id="line2d_20">
     <g>
      <use style="fill:#008000;stroke:#008000;" x="67.982813" xlink:href="#m71c89eb75a" y="53.154688"/>
     </g>
    </g>
    <g id="text_16">
     <!-- Start Point for Forecast -->
     <defs>
      <path d="M 53.515625 70.515625 
L 53.515625 60.890625 
Q 47.90625 63.578125 42.921875 64.890625 
Q 37.9375 66.21875 33.296875 66.21875 
Q 25.25 66.21875 20.875 63.09375 
Q 16.5 59.96875 16.5 54.203125 
Q 16.5 49.359375 19.40625 46.890625 
Q 22.3125 44.4375 30.421875 42.921875 
L 36.375 41.703125 
Q 47.40625 39.59375 52.65625 34.296875 
Q 57.90625 29 57.90625 20.125 
Q 57.90625 9.515625 50.796875 4.046875 
Q 43.703125 -1.421875 29.984375 -1.421875 
Q 24.8125 -1.421875 18.96875 -0.25 
Q 13.140625 0.921875 6.890625 3.21875 
L 6.890625 13.375 
Q 12.890625 10.015625 18.65625 8.296875 
Q 24.421875 6.59375 29.984375 6.59375 
Q 38.421875 6.59375 43.015625 9.90625 
Q 47.609375 13.234375 47.609375 19.390625 
Q 47.609375 24.75 44.3125 27.78125 
Q 41.015625 30.8125 33.5 32.328125 
L 27.484375 33.5 
Q 16.453125 35.6875 11.515625 40.375 
Q 6.59375 45.0625 6.59375 53.421875 
Q 6.59375 63.09375 13.40625 68.65625 
Q 20.21875 74.21875 32.171875 74.21875 
Q 37.3125 74.21875 42.625 73.28125 
Q 47.953125 72.359375 53.515625 70.515625 
z
" id="DejaVuSans-53"/>
      <path d="M 30.609375 48.390625 
Q 23.390625 48.390625 19.1875 42.75 
Q 14.984375 37.109375 14.984375 27.296875 
Q 14.984375 17.484375 19.15625 11.84375 
Q 23.34375 6.203125 30.609375 6.203125 
Q 37.796875 6.203125 41.984375 11.859375 
Q 46.1875 17.53125 46.1875 27.296875 
Q 46.1875 37.015625 41.984375 42.703125 
Q 37.796875 48.390625 30.609375 48.390625 
z
M 30.609375 56 
Q 42.328125 56 49.015625 48.375 
Q 55.71875 40.765625 55.71875 27.296875 
Q 55.71875 13.875 49.015625 6.21875 
Q 42.328125 -1.421875 30.609375 -1.421875 
Q 18.84375 -1.421875 12.171875 6.21875 
Q 5.515625 13.875 5.515625 27.296875 
Q 5.515625 40.765625 12.171875 48.375 
Q 18.84375 56 30.609375 56 
z
" id="DejaVuSans-6f"/>
      <path d="M 54.890625 33.015625 
L 54.890625 0 
L 45.90625 0 
L 45.90625 32.71875 
Q 45.90625 40.484375 42.875 44.328125 
Q 39.84375 48.1875 33.796875 48.1875 
Q 26.515625 48.1875 22.3125 43.546875 
Q 18.109375 38.921875 18.109375 30.90625 
L 18.109375 0 
L 9.078125 0 
L 9.078125 54.6875 
L 18.109375 54.6875 
L 18.109375 46.1875 
Q 21.34375 51.125 25.703125 53.5625 
Q 30.078125 56 35.796875 56 
Q 45.21875 56 50.046875 50.171875 
Q 54.890625 44.34375 54.890625 33.015625 
z
" id="DejaVuSans-6e"/>
      <path d="M 9.8125 72.90625 
L 51.703125 72.90625 
L 51.703125 64.59375 
L 19.671875 64.59375 
L 19.671875 43.109375 
L 48.578125 43.109375 
L 48.578125 34.8125 
L 19.671875 34.8125 
L 19.671875 0 
L 9.8125 0 
z
" id="DejaVuSans-46"/>
     </defs>
     <g transform="translate(85.982813 56.654688)scale(0.1 -0.1)">
      <use xlink:href="#DejaVuSans-53"/>
      <use x="63.476562" xlink:href="#DejaVuSans-74"/>
      <use x="102.685547" xlink:href="#DejaVuSans-61"/>
      <use x="163.964844" xlink:href="#DejaVuSans-72"/>
      <use x="205.078125" xlink:href="#DejaVuSans-74"/>
      <use x="244.287109" xlink:href="#DejaVuSans-20"/>
      <use x="276.074219" xlink:href="#DejaVuSans-50"/>
      <use x="336.330078" xlink:href="#DejaVuSans-6f"/>
      <use x="397.511719" xlink:href="#DejaVuSans-69"/>
      <use x="425.294922" xlink:href="#DejaVuSans-6e"/>
      <use x="488.673828" xlink:href="#DejaVuSans-74"/>
      <use x="527.882812" xlink:href="#DejaVuSans-20"/>
      <use x="559.669922" xlink:href="#DejaVuSans-66"/>
      <use x="594.875" xlink:href="#DejaVuSans-6f"/>
      <use x="656.056641" xlink:href="#DejaVuSans-72"/>
      <use x="697.169922" xlink:href="#DejaVuSans-20"/>
      <use x="728.957031" xlink:href="#DejaVuSans-46"/>
      <use x="786.429688" xlink:href="#DejaVuSans-6f"/>
      <use x="847.611328" xlink:href="#DejaVuSans-72"/>
      <use x="888.693359" xlink:href="#DejaVuSans-65"/>
      <use x="950.216797" xlink:href="#DejaVuSans-63"/>
      <use x="1005.197266" xlink:href="#DejaVuSans-61"/>
      <use x="1066.476562" xlink:href="#DejaVuSans-73"/>
      <use x="1118.576172" xlink:href="#DejaVuSans-74"/>
     </g>
    </g>
   </g>
  </g>
  <g id="axes_2">
   <g id="patch_8">
    <path d="M 48.982813 645.74 
L 1166.422812 645.74 
L 1166.422812 516.14 
L 48.982813 516.14 
z
" style="fill:none;"/>
   </g>
   <g id="matplotlib.axis_3">
    <g id="xtick_6">
     <g id="line2d_21">
      <g>
       <use style="stroke:#000000;stroke-width:0.8;" x="99.77554" xlink:href="#m610337b894" y="645.74"/>
      </g>
     </g>
     <g id="text_17">
      <!-- 0 -->
      <g transform="translate(96.59429 660.338437)scale(0.1 -0.1)">
       <use xlink:href="#DejaVuSans-30"/>
      </g>
     </g>
    </g>
    <g id="xtick_7">
     <g id="line2d_22">
      <g>
       <use style="stroke:#000000;stroke-width:0.8;" x="224.267518" xlink:href="#m610337b894" y="645.74"/>
      </g>
     </g>
     <g id="text_18">
      <!-- 25 -->
      <g transform="translate(217.905018 660.338437)scale(0.1 -0.1)">
       <use xlink:href="#DejaVuSans-32"/>
       <use x="63.623047" xlink:href="#DejaVuSans-35"/>
      </g>
     </g>
    </g>
    <g id="xtick_8">
     <g id="line2d_23">
      <g>
       <use style="stroke:#000000;stroke-width:0.8;" x="348.759497" xlink:href="#m610337b894" y="645.74"/>
      </g>
     </g>
     <g id="text_19">
      <!-- 50 -->
      <g transform="translate(342.396997 660.338437)scale(0.1 -0.1)">
       <use xlink:href="#DejaVuSans-35"/>
       <use x="63.623047" xlink:href="#DejaVuSans-30"/>
      </g>
     </g>
    </g>
    <g id="xtick_9">
     <g id="line2d_24">
      <g>
       <use style="stroke:#000000;stroke-width:0.8;" x="473.251476" xlink:href="#m610337b894" y="645.74"/>
      </g>
     </g>
     <g id="text_20">
      <!-- 75 -->
      <defs>
       <path d="M 8.203125 72.90625 
L 55.078125 72.90625 
L 55.078125 68.703125 
L 28.609375 0 
L 18.3125 0 
L 43.21875 64.59375 
L 8.203125 64.59375 
z
" id="DejaVuSans-37"/>
      </defs>
      <g transform="translate(466.888976 660.338437)scale(0.1 -0.1)">
       <use xlink:href="#DejaVuSans-37"/>
       <use x="63.623047" xlink:href="#DejaVuSans-35"/>
      </g>
     </g>
    </g>
    <g id="xtick_10">
     <g id="line2d_25">
      <g>
       <use style="stroke:#000000;stroke-width:0.8;" x="597.743454" xlink:href="#m610337b894" y="645.74"/>
      </g>
     </g>
     <g id="text_21">
      <!-- 100 -->
      <g transform="translate(588.199704 660.338437)scale(0.1 -0.1)">
       <use xlink:href="#DejaVuSans-31"/>
       <use x="63.623047" xlink:href="#DejaVuSans-30"/>
       <use x="127.246094" xlink:href="#DejaVuSans-30"/>
      </g>
     </g>
    </g>
    <g id="xtick_11">
     <g id="line2d_26">
      <g>
       <use style="stroke:#000000;stroke-width:0.8;" x="722.235433" xlink:href="#m610337b894" y="645.74"/>
      </g>
     </g>
     <g id="text_22">
      <!-- 125 -->
      <g transform="translate(712.691683 660.338437)scale(0.1 -0.1)">
       <use xlink:href="#DejaVuSans-31"/>
       <use x="63.623047" xlink:href="#DejaVuSans-32"/>
       <use x="127.246094" xlink:href="#DejaVuSans-35"/>
      </g>
     </g>
    </g>
    <g id="xtick_12">
     <g id="line2d_27">
      <g>
       <use style="stroke:#000000;stroke-width:0.8;" x="846.727411" xlink:href="#m610337b894" y="645.74"/>
      </g>
     </g>
     <g id="text_23">
      <!-- 150 -->
      <g transform="translate(837.183661 660.338437)scale(0.1 -0.1)">
       <use xlink:href="#DejaVuSans-31"/>
       <use x="63.623047" xlink:href="#DejaVuSans-35"/>
       <use x="127.246094" xlink:href="#DejaVuSans-30"/>
      </g>
     </g>
    </g>
    <g id="xtick_13">
     <g id="line2d_28">
      <g>
       <use style="stroke:#000000;stroke-width:0.8;" x="971.21939" xlink:href="#m610337b894" y="645.74"/>
      </g>
     </g>
     <g id="text_24">
      <!-- 175 -->
      <g transform="translate(961.67564 660.338437)scale(0.1 -0.1)">
       <use xlink:href="#DejaVuSans-31"/>
       <use x="63.623047" xlink:href="#DejaVuSans-37"/>
       <use x="127.246094" xlink:href="#DejaVuSans-35"/>
      </g>
     </g>
    </g>
    <g id="xtick_14">
     <g id="line2d_29">
      <g>
       <use style="stroke:#000000;stroke-width:0.8;" x="1095.711369" xlink:href="#m610337b894" y="645.74"/>
      </g>
     </g>
     <g id="text_25">
      <!-- 200 -->
      <g transform="translate(1086.167619 660.338437)scale(0.1 -0.1)">
       <use xlink:href="#DejaVuSans-32"/>
       <use x="63.623047" xlink:href="#DejaVuSans-30"/>
       <use x="127.246094" xlink:href="#DejaVuSans-30"/>
      </g>
     </g>
    </g>
   </g>
   <g id="matplotlib.axis_4">
    <g id="ytick_7">
     <g id="line2d_30">
      <g>
       <use style="stroke:#000000;stroke-width:0.8;" x="48.982813" xlink:href="#m21edb60aac" y="634.780179"/>
      </g>
     </g>
     <g id="text_26">
      <!-- −20 -->
      <defs>
       <path d="M 10.59375 35.5 
L 73.1875 35.5 
L 73.1875 27.203125 
L 10.59375 27.203125 
z
" id="DejaVuSans-2212"/>
      </defs>
      <g transform="translate(20.878125 638.579398)scale(0.1 -0.1)">
       <use xlink:href="#DejaVuSans-2212"/>
       <use x="83.789062" xlink:href="#DejaVuSans-32"/>
       <use x="147.412109" xlink:href="#DejaVuSans-30"/>
      </g>
     </g>
    </g>
    <g id="ytick_8">
     <g id="line2d_31">
      <g>
       <use style="stroke:#000000;stroke-width:0.8;" x="48.982813" xlink:href="#m21edb60aac" y="591.997333"/>
      </g>
     </g>
     <g id="text_27">
      <!-- 0 -->
      <g transform="translate(35.620313 595.796552)scale(0.1 -0.1)">
       <use xlink:href="#DejaVuSans-30"/>
      </g>
     </g>
    </g>
    <g id="ytick_9">
     <g id="line2d_32">
      <g>
       <use style="stroke:#000000;stroke-width:0.8;" x="48.982813" xlink:href="#m21edb60aac" y="549.214488"/>
      </g>
     </g>
     <g id="text_28">
      <!-- 20 -->
      <g transform="translate(29.257813 553.013706)scale(0.1 -0.1)">
       <use xlink:href="#DejaVuSans-32"/>
       <use x="63.623047" xlink:href="#DejaVuSans-30"/>
      </g>
     </g>
    </g>
    <g id="text_29">
     <!-- Temperature -->
     <defs>
      <path d="M 18.109375 8.203125 
L 18.109375 -20.796875 
L 9.078125 -20.796875 
L 9.078125 54.6875 
L 18.109375 54.6875 
L 18.109375 46.390625 
Q 20.953125 51.265625 25.265625 53.625 
Q 29.59375 56 35.59375 56 
Q 45.5625 56 51.78125 48.09375 
Q 58.015625 40.1875 58.015625 27.296875 
Q 58.015625 14.40625 51.78125 6.484375 
Q 45.5625 -1.421875 35.59375 -1.421875 
Q 29.59375 -1.421875 25.265625 0.953125 
Q 20.953125 3.328125 18.109375 8.203125 
z
M 48.6875 27.296875 
Q 48.6875 37.203125 44.609375 42.84375 
Q 40.53125 48.484375 33.40625 48.484375 
Q 26.265625 48.484375 22.1875 42.84375 
Q 18.109375 37.203125 18.109375 27.296875 
Q 18.109375 17.390625 22.1875 11.75 
Q 26.265625 6.109375 33.40625 6.109375 
Q 40.53125 6.109375 44.609375 11.75 
Q 48.6875 17.390625 48.6875 27.296875 
z
" id="DejaVuSans-70"/>
     </defs>
     <g style="fill:#0000ff;" transform="translate(14.798438 613.557187)rotate(-90)scale(0.1 -0.1)">
      <use xlink:href="#DejaVuSans-54"/>
      <use x="60.818359" xlink:href="#DejaVuSans-65"/>
      <use x="122.341797" xlink:href="#DejaVuSans-6d"/>
      <use x="219.753906" xlink:href="#DejaVuSans-70"/>
      <use x="283.230469" xlink:href="#DejaVuSans-65"/>
      <use x="344.753906" xlink:href="#DejaVuSans-72"/>
      <use x="385.867188" xlink:href="#DejaVuSans-61"/>
      <use x="447.146484" xlink:href="#DejaVuSans-74"/>
      <use x="486.355469" xlink:href="#DejaVuSans-75"/>
      <use x="549.734375" xlink:href="#DejaVuSans-72"/>
      <use x="590.816406" xlink:href="#DejaVuSans-65"/>
     </g>
    </g>
   </g>
   <g id="line2d_33">
    <path clip-path="url(#p25bc568325)" d="M 99.77554 530.594751 
L 104.755219 530.335701 
L 109.734898 540.905203 
L 114.714577 553.351803 
L 119.694256 576.473321 
L 129.653615 587.654618 
L 134.633294 586.689587 
L 139.612973 571.44285 
L 144.592652 552.219555 
L 149.572331 541.188426 
L 154.55201 535.185992 
L 159.53169 530.538278 
L 164.511369 531.618545 
L 169.491048 541.064355 
L 174.470727 565.295276 
L 179.450406 578.510319 
L 184.430085 585.464115 
L 189.409764 594.830906 
L 194.389444 584.231712 
L 199.369123 565.336134 
L 204.348802 555.06825 
L 209.328481 539.075595 
L 214.30816 530.414849 
L 219.287839 533.578427 
L 224.267518 535.19626 
L 229.247198 545.360609 
L 234.226877 561.045656 
L 239.206556 570.244395 
L 244.186235 590.433086 
L 249.165914 589.053874 
L 254.145593 585.181106 
L 259.125272 567.367677 
L 264.104952 560.157056 
L 269.084631 549.490651 
L 274.06431 536.57836 
L 279.043989 528.084468 
L 284.023668 530.324792 
L 289.003347 541.749523 
L 293.983026 552.679898 
L 298.962706 568.474683 
L 303.942385 594.06422 
L 308.922064 586.222847 
L 313.901743 584.263136 
L 318.881422 575.608423 
L 323.861101 565.230888 
L 328.84078 550.293899 
L 333.82046 537.691784 
L 338.800139 531.414043 
L 343.779818 532.16531 
L 348.759497 541.704173 
L 353.739176 554.22222 
L 358.718855 577.66508 
L 363.698534 589.609516 
L 368.678214 589.567011 
L 378.637572 572.231937 
L 383.617251 556.543403 
L 388.59693 540.064734 
L 393.576609 534.598156 
L 398.556288 533.523237 
L 403.535968 531.99589 
L 408.515647 540.628184 
L 413.495326 558.94566 
L 418.475005 568.868285 
L 423.454684 588.243845 
L 428.434363 593.467399 
L 433.414042 596.141558 
L 438.393722 565.81851 
L 443.373401 556.213547 
L 448.35308 549.218552 
L 453.332759 533.809668 
L 458.312438 527.107308 
L 463.292117 530.623202 
L 468.271796 538.380374 
L 473.251476 554.149061 
L 478.231155 572.869594 
L 483.210834 584.801965 
L 488.190513 597.776226 
L 493.170192 576.583744 
L 498.149871 566.830324 
L 503.12955 553.756742 
L 508.10923 542.543786 
L 513.088909 535.228989 
L 518.068588 530.710479 
L 523.048267 528.996812 
L 528.027946 542.89482 
L 533.007625 552.236668 
L 537.987304 571.007599 
L 542.966984 589.332197 
L 547.946663 587.304997 
L 552.926342 578.217214 
L 557.906021 572.610522 
L 562.8857 549.4376 
L 567.865379 544.301092 
L 572.845058 532.197397 
L 577.824738 530.770803 
L 582.804417 531.206974 
L 587.784096 538.754937 
L 592.763775 559.254766 
L 597.743454 566.742406 
L 602.723133 592.912031 
L 607.702813 605.489546 
L 612.682492 593.98695 
L 617.662171 560.54745 
L 622.64185 553.817066 
L 627.621529 534.681155 
L 632.601208 528.782256 
L 637.580887 522.030909 
L 642.560567 528.145433 
L 647.540246 540.643372 
L 652.519925 559.585905 
L 657.499604 575.636938 
L 662.479283 586.217799 
L 667.458962 589.53732 
L 672.438641 584.043147 
L 677.418321 567.721919 
L 682.398 560.422951 
L 687.377679 547.593446 
L 692.357358 532.840851 
L 697.337037 525.239409 
L 702.316716 532.00851 
L 712.276075 554.103069 
L 717.255754 574.531023 
L 722.235433 586.48348 
L 727.215112 586.06977 
L 732.194791 588.999112 
L 737.17447 569.074071 
L 742.154149 554.391426 
L 747.133829 547.317924 
L 752.113508 536.223263 
L 757.093187 530.711335 
L 762.072866 530.387041 
L 767.052545 543.28393 
L 772.032224 554.213235 
L 777.011903 566.528064 
L 781.991583 582.908118 
L 786.971262 591.542552 
L 791.950941 587.391546 
L 796.93062 571.736661 
L 801.910299 550.325772 
L 806.889978 541.842789 
L 811.869657 533.692015 
L 816.849337 528.554651 
L 821.829016 530.639032 
L 826.808695 539.444597 
L 831.788374 555.972466 
L 836.768053 579.547311 
L 841.747732 595.217384 
L 846.727411 597.706918 
L 851.707091 596.199679 
L 856.68677 576.75787 
L 861.666449 548.292303 
L 866.646128 542.958994 
L 871.625807 534.293542 
L 876.605486 528.487268 
L 881.585165 527.959114 
L 886.564845 540.633532 
L 891.544524 554.693259 
L 896.524203 575.497487 
L 901.503882 591.940432 
L 906.483561 589.499457 
L 911.46324 586.55773 
L 916.442919 563.776913 
L 921.422599 555.086005 
L 926.402278 544.500888 
L 931.381957 533.513183 
L 936.361636 528.511655 
L 941.341315 531.365056 
L 946.320994 536.072025 
L 951.300673 551.855901 
L 956.280353 571.441673 
L 961.260032 587.807823 
L 966.239711 588.463898 
L 971.21939 597.682318 
L 976.199069 571.614944 
L 981.178748 558.427132 
L 986.158427 539.044577 
L 991.138107 533.054765 
L 996.117786 528.884721 
L 1001.097465 528.733484 
L 1006.077144 539.554335 
L 1016.036502 579.922303 
L 1021.016181 588.221106 
L 1025.995861 589.369183 
L 1030.97554 582.210757 
L 1035.955219 573.277699 
L 1040.934898 552.84012 
L 1045.914577 542.66422 
L 1050.894256 527.256406 
L 1055.873935 524.618202 
L 1060.853615 531.928293 
L 1065.833294 544.22943 
L 1070.812973 555.932678 
L 1075.792652 574.827508 
L 1080.772331 585.948267 
L 1085.75201 584.094486 
L 1090.73169 576.316351 
L 1095.711369 559.743774 
L 1100.691048 555.540787 
L 1105.670727 544.36933 
L 1110.650406 532.223494 
L 1115.630085 530.26511 
L 1115.630085 530.26511 
" style="fill:none;stroke:#ff0000;stroke-linecap:square;stroke-width:1.5;"/>
   </g>
   <g id="line2d_34">
    <path clip-path="url(#p25bc568325)" d="M 99.77554 545.053428 
L 104.755219 545.739665 
L 109.734898 558.770678 
L 114.714577 569.003907 
L 119.694256 589.524185 
L 124.673935 596.560423 
L 129.653615 602.208978 
L 134.633294 602.000883 
L 139.612973 586.228687 
L 144.592652 565.795193 
L 149.572331 555.705501 
L 154.55201 550.021158 
L 159.53169 545.21365 
L 164.511369 548.052078 
L 169.491048 556.658703 
L 174.470727 578.609661 
L 179.450406 590.319444 
L 184.430085 597.842989 
L 189.409764 608.272548 
L 194.389444 596.976465 
L 199.369123 580.766537 
L 204.348802 570.031123 
L 209.328481 555.019906 
L 214.30816 547.413544 
L 219.287839 548.817249 
L 224.267518 550.688998 
L 229.247198 561.999285 
L 234.226877 575.282076 
L 239.206556 584.384426 
L 244.186235 601.724826 
L 249.165914 603.410877 
L 254.145593 597.734513 
L 259.125272 581.472753 
L 264.104952 572.538176 
L 274.06431 552.019545 
L 279.043989 548.472205 
L 284.023668 545.845766 
L 289.003347 557.854269 
L 293.983026 567.797003 
L 298.962706 581.695459 
L 303.942385 605.012667 
L 308.922064 597.171448 
L 313.901743 595.274264 
L 318.881422 587.128646 
L 323.861101 575.464373 
L 328.84078 562.759964 
L 333.82046 551.588936 
L 338.800139 545.952723 
L 343.779818 547.441994 
L 348.759497 556.346174 
L 353.739176 570.314773 
L 358.718855 589.390018 
L 363.698534 602.814356 
L 368.678214 599.748516 
L 373.657893 594.514484 
L 378.637572 584.687884 
L 383.617251 569.600941 
L 388.59693 553.824339 
L 393.576609 549.374495 
L 398.556288 548.771685 
L 403.535968 549.001857 
L 408.515647 557.104286 
L 413.495326 573.705763 
L 418.475005 582.479477 
L 423.454684 598.300188 
L 428.434363 602.884135 
L 433.414042 607.671899 
L 438.393722 578.614389 
L 443.373401 569.108511 
L 448.35308 561.432199 
L 453.332759 547.342738 
L 458.312438 543.972306 
L 463.292117 549.884253 
L 468.271796 554.186282 
L 473.251476 570.642276 
L 478.231155 587.765319 
L 483.210834 597.910629 
L 488.190513 608.49318 
L 493.170192 587.91692 
L 498.149871 579.331943 
L 503.12955 567.154191 
L 508.10923 556.248415 
L 513.088909 549.56274 
L 518.068588 545.4973 
L 523.048267 545.188194 
L 528.027946 558.221988 
L 533.007625 565.95948 
L 542.966984 601.031637 
L 547.946663 600.756415 
L 552.926342 590.289348 
L 557.906021 583.992898 
L 562.8857 562.789271 
L 567.865379 557.661747 
L 572.845058 547.293324 
L 577.824738 545.150331 
L 582.804417 547.033846 
L 587.784096 555.177775 
L 592.763775 574.738733 
L 597.743454 581.403873 
L 602.723133 603.238291 
L 607.702813 618.047594 
L 612.682492 605.862783 
L 617.662171 574.669083 
L 622.64185 566.495121 
L 627.621529 548.963352 
L 632.601208 543.442226 
L 637.580887 537.209407 
L 642.560567 544.57918 
L 647.540246 556.075145 
L 652.519925 572.260665 
L 657.499604 586.9742 
L 662.479283 596.021274 
L 667.458962 602.014509 
L 672.438641 593.845552 
L 677.418321 580.981692 
L 682.398 572.407539 
L 687.377679 560.6174 
L 692.357358 551.890341 
L 697.337037 545.24317 
L 702.316716 547.259098 
L 707.296395 558.779876 
L 712.276075 570.789877 
L 717.255754 587.151534 
L 722.235433 597.605523 
L 727.215112 596.703447 
L 732.194791 599.778335 
L 737.17447 581.009629 
L 742.154149 566.878027 
L 747.133829 560.471082 
L 752.113508 550.092606 
L 757.093187 545.535591 
L 762.072866 545.50821 
L 767.052545 558.447881 
L 772.032224 568.723251 
L 777.011903 582.62789 
L 781.991583 597.857514 
L 786.971262 604.49677 
L 791.950941 597.172133 
L 796.93062 585.737733 
L 801.910299 564.407532 
L 806.889978 555.454794 
L 811.869657 548.055286 
L 816.849337 543.757536 
L 821.829016 545.574309 
L 826.808695 555.120018 
L 831.788374 569.85828 
L 836.768053 588.650645 
L 841.747732 605.741087 
L 846.727411 610.649456 
L 851.707091 606.979672 
L 856.68677 588.307955 
L 861.666449 561.965487 
L 866.646128 556.536772 
L 871.625807 548.654674 
L 876.605486 543.707694 
L 881.585165 543.855508 
L 886.564845 556.269807 
L 891.544524 570.968923 
L 896.524203 588.850869 
L 901.503882 605.314692 
L 906.483561 602.227781 
L 911.46324 595.998385 
L 916.442919 576.684925 
L 921.422599 569.053963 
L 926.402278 558.065617 
L 931.381957 548.689328 
L 936.361636 544.572121 
L 941.341315 546.118293 
L 946.320994 553.192437 
L 951.300673 568.265475 
L 956.280353 587.199879 
L 961.260032 600.177884 
L 966.239711 600.69915 
L 971.21939 609.334868 
L 976.199069 585.346269 
L 981.178748 571.783637 
L 986.158427 555.145687 
L 991.138107 547.90683 
L 996.117786 543.743631 
L 1001.097465 545.227768 
L 1006.077144 555.637476 
L 1011.056823 573.385084 
L 1016.036502 590.206016 
L 1021.016181 601.614062 
L 1025.995861 600.317314 
L 1035.955219 585.205771 
L 1040.934898 566.403138 
L 1045.914577 556.57057 
L 1050.894256 547.48328 
L 1055.873935 539.599043 
L 1060.853615 547.048392 
L 1065.833294 559.632324 
L 1070.812973 570.838842 
L 1075.792652 585.757455 
L 1080.772331 597.783286 
L 1085.75201 595.571198 
L 1090.73169 591.500625 
L 1095.711369 573.334387 
L 1100.691048 567.234836 
L 1105.670727 557.785603 
L 1110.650406 546.672331 
L 1115.630085 544.838016 
L 1115.630085 544.838016 
" style="fill:none;stroke:#008000;stroke-linecap:square;stroke-width:1.5;"/>
   </g>
   <g id="line2d_35">
    <path clip-path="url(#p25bc568325)" d="M 99.77554 558.923413 
L 104.755219 561.324172 
L 109.734898 573.627299 
L 114.714577 583.130054 
L 119.694256 599.646607 
L 124.673935 607.837982 
L 129.653615 613.037317 
L 134.633294 614.523785 
L 139.612973 599.017079 
L 144.592652 579.363816 
L 149.572331 570.615815 
L 154.55201 565.436459 
L 159.53169 561.315402 
L 164.511369 562.904998 
L 169.491048 572.335942 
L 174.470727 589.481702 
L 179.450406 599.984356 
L 184.430085 607.254616 
L 189.409764 618.84143 
L 194.389444 607.985026 
L 199.369123 593.706814 
L 204.348802 583.987465 
L 209.328481 569.842451 
L 214.30816 563.087039 
L 219.287839 562.914838 
L 224.267518 565.103823 
L 229.247198 576.882154 
L 234.226877 587.569009 
L 239.206556 595.259525 
L 244.186235 611.915422 
L 249.165914 614.652134 
L 254.145593 607.104491 
L 259.125272 593.872749 
L 264.104952 583.599681 
L 269.084631 575.695722 
L 274.06431 566.944555 
L 279.043989 564.063558 
L 284.023668 561.766761 
L 289.003347 572.890515 
L 293.983026 580.845172 
L 298.962706 592.495754 
L 303.942385 614.631812 
L 308.922064 606.547779 
L 313.901743 605.495321 
L 318.881422 597.785853 
L 328.84078 575.524997 
L 333.82046 565.443518 
L 338.800139 560.250323 
L 343.779818 562.24764 
L 348.759497 570.72904 
L 353.739176 584.056302 
L 363.698534 613.369804 
L 373.657893 603.775451 
L 378.637572 595.482617 
L 383.617251 582.754634 
L 388.59693 568.351041 
L 393.576609 565.069169 
L 398.556288 561.556697 
L 403.535968 563.393578 
L 408.515647 572.639037 
L 413.495326 587.058995 
L 418.475005 592.097873 
L 423.454684 607.399629 
L 428.434363 611.449752 
L 433.414042 617.788758 
L 438.393722 590.72288 
L 443.373401 582.557063 
L 448.35308 573.249099 
L 453.332759 561.475409 
L 458.312438 557.209318 
L 463.292117 563.79317 
L 468.271796 569.442431 
L 473.251476 584.451231 
L 478.231155 597.954374 
L 483.210834 608.614897 
L 488.190513 618.211239 
L 493.170192 597.945219 
L 498.149871 591.227955 
L 508.10923 570.28889 
L 513.088909 564.110833 
L 518.068588 560.720292 
L 523.048267 561.127157 
L 528.027946 572.76146 
L 533.007625 578.327508 
L 537.987304 594.280504 
L 542.966984 610.981023 
L 547.946663 612.978041 
L 552.926342 600.815819 
L 557.906021 595.026124 
L 562.8857 576.161028 
L 567.865379 571.568995 
L 572.845058 562.53728 
L 577.824738 559.51296 
L 582.804417 563.256032 
L 587.784096 570.745169 
L 592.763775 588.771935 
L 597.743454 593.653457 
L 602.723133 611.86235 
L 607.702813 629.153379 
L 612.682492 616.356602 
L 617.662171 586.35449 
L 622.64185 579.956102 
L 627.621529 563.802582 
L 632.601208 558.441678 
L 637.580887 552.593905 
L 642.560567 559.972448 
L 647.540246 570.568476 
L 657.499604 596.370596 
L 662.479283 604.057604 
L 667.458962 612.298008 
L 672.438641 602.478917 
L 677.418321 591.504261 
L 682.398 583.999786 
L 687.377679 573.770772 
L 692.357358 566.781552 
L 697.337037 561.403748 
L 702.316716 562.173412 
L 707.296395 571.874422 
L 712.276075 585.05817 
L 717.255754 597.418348 
L 722.235433 606.749073 
L 727.215112 606.149257 
L 732.194791 609.959711 
L 737.17447 592.617899 
L 742.154149 579.716731 
L 747.133829 573.739283 
L 752.113508 563.621183 
L 757.093187 560.256098 
L 762.072866 560.174383 
L 767.052545 571.722115 
L 772.032224 581.494573 
L 777.011903 595.041333 
L 781.991583 609.615737 
L 786.971262 615.954658 
L 791.950941 606.416864 
L 796.93062 598.372919 
L 801.910299 579.033917 
L 806.889978 569.953258 
L 811.869657 562.396096 
L 816.849337 559.845597 
L 821.829016 560.598361 
L 826.808695 570.371674 
L 831.788374 582.429164 
L 836.768053 597.042928 
L 841.747732 614.585179 
L 846.727411 621.486907 
L 851.707091 618.072836 
L 856.68677 599.784667 
L 861.666449 575.923177 
L 866.646128 570.671796 
L 871.625807 563.39422 
L 876.605486 559.602376 
L 881.585165 560.023146 
L 886.564845 571.365306 
L 891.544524 585.39594 
L 896.524203 600.099763 
L 901.503882 615.963428 
L 906.483561 613.66385 
L 911.46324 605.202473 
L 916.442919 588.964885 
L 921.422599 582.196318 
L 926.402278 572.561087 
L 931.381957 563.939701 
L 936.361636 559.975443 
L 941.341315 560.542102 
L 946.320994 569.51067 
L 951.300673 582.561791 
L 956.280353 600.091848 
L 961.260032 610.310766 
L 966.239711 611.381813 
L 971.21939 620.770723 
L 976.199069 597.051913 
L 981.178748 585.445141 
L 986.158427 571.736084 
L 991.138107 565.349182 
L 996.117786 559.863566 
L 1001.097465 561.909228 
L 1006.077144 571.402313 
L 1016.036502 598.885799 
L 1021.016181 612.254797 
L 1025.995861 610.071588 
L 1030.97554 602.248317 
L 1035.955219 596.56975 
L 1040.934898 580.641055 
L 1045.914577 570.171879 
L 1050.894256 563.890929 
L 1055.873935 554.831447 
L 1060.853615 561.789863 
L 1065.833294 573.9849 
L 1070.812973 583.193565 
L 1075.792652 594.561951 
L 1080.772331 607.908702 
L 1085.75201 605.152845 
L 1090.73169 604.599662 
L 1095.711369 585.966022 
L 1100.691048 578.845459 
L 1105.670727 570.467936 
L 1110.650406 561.540867 
L 1115.630085 558.845334 
L 1115.630085 558.845334 
" style="fill:none;stroke:#0000ff;stroke-linecap:square;stroke-width:1.5;"/>
   </g>
   <g id="line2d_36">
    <defs>
     <path d="M 0 3 
C 0.795609 3 1.55874 2.683901 2.12132 2.12132 
C 2.683901 1.55874 3 0.795609 3 0 
C 3 -0.795609 2.683901 -1.55874 2.12132 -2.12132 
C 1.55874 -2.683901 0.795609 -3 0 -3 
C -0.795609 -3 -1.55874 -2.683901 -2.12132 -2.12132 
C -2.683901 -1.55874 -3 -0.795609 -3 0 
C -3 0.795609 -2.683901 1.55874 -2.12132 2.12132 
C -1.55874 2.683901 -0.795609 3 0 3 
z
" id="mdad68058b5" style="stroke:#ff0000;"/>
    </defs>
    <g clip-path="url(#p25bc568325)">
     <use style="fill:#ff0000;stroke:#ff0000;" x="174.470727" xlink:href="#mdad68058b5" y="639.849091"/>
     <use style="fill:#ff0000;stroke:#ff0000;" x="269.084631" xlink:href="#mdad68058b5" y="639.849091"/>
     <use style="fill:#ff0000;stroke:#ff0000;" x="323.861101" xlink:href="#mdad68058b5" y="639.849091"/>
     <use style="fill:#ff0000;stroke:#ff0000;" x="383.617251" xlink:href="#mdad68058b5" y="639.849091"/>
     <use style="fill:#ff0000;stroke:#ff0000;" x="403.535968" xlink:href="#mdad68058b5" y="639.849091"/>
     <use style="fill:#ff0000;stroke:#ff0000;" x="453.332759" xlink:href="#mdad68058b5" y="639.849091"/>
     <use style="fill:#ff0000;stroke:#ff0000;" x="488.190513" xlink:href="#mdad68058b5" y="639.849091"/>
     <use style="fill:#ff0000;stroke:#ff0000;" x="493.170192" xlink:href="#mdad68058b5" y="639.849091"/>
     <use style="fill:#ff0000;stroke:#ff0000;" x="542.966984" xlink:href="#mdad68058b5" y="639.849091"/>
     <use style="fill:#ff0000;stroke:#ff0000;" x="562.8857" xlink:href="#mdad68058b5" y="639.849091"/>
     <use style="fill:#ff0000;stroke:#ff0000;" x="607.702813" xlink:href="#mdad68058b5" y="639.849091"/>
     <use style="fill:#ff0000;stroke:#ff0000;" x="652.519925" xlink:href="#mdad68058b5" y="639.849091"/>
     <use style="fill:#ff0000;stroke:#ff0000;" x="667.458962" xlink:href="#mdad68058b5" y="639.849091"/>
     <use style="fill:#ff0000;stroke:#ff0000;" x="672.438641" xlink:href="#mdad68058b5" y="639.849091"/>
     <use style="fill:#ff0000;stroke:#ff0000;" x="677.418321" xlink:href="#mdad68058b5" y="639.849091"/>
     <use style="fill:#ff0000;stroke:#ff0000;" x="682.398" xlink:href="#mdad68058b5" y="639.849091"/>
     <use style="fill:#ff0000;stroke:#ff0000;" x="687.377679" xlink:href="#mdad68058b5" y="639.849091"/>
     <use style="fill:#ff0000;stroke:#ff0000;" x="692.357358" xlink:href="#mdad68058b5" y="639.849091"/>
     <use style="fill:#ff0000;stroke:#ff0000;" x="697.337037" xlink:href="#mdad68058b5" y="639.849091"/>
     <use style="fill:#ff0000;stroke:#ff0000;" x="702.316716" xlink:href="#mdad68058b5" y="639.849091"/>
     <use style="fill:#ff0000;stroke:#ff0000;" x="707.296395" xlink:href="#mdad68058b5" y="639.849091"/>
     <use style="fill:#ff0000;stroke:#ff0000;" x="712.276075" xlink:href="#mdad68058b5" y="639.849091"/>
     <use style="fill:#ff0000;stroke:#ff0000;" x="717.255754" xlink:href="#mdad68058b5" y="639.849091"/>
     <use style="fill:#ff0000;stroke:#ff0000;" x="722.235433" xlink:href="#mdad68058b5" y="639.849091"/>
     <use style="fill:#ff0000;stroke:#ff0000;" x="752.113508" xlink:href="#mdad68058b5" y="639.849091"/>
     <use style="fill:#ff0000;stroke:#ff0000;" x="816.849337" xlink:href="#mdad68058b5" y="639.849091"/>
     <use style="fill:#ff0000;stroke:#ff0000;" x="861.666449" xlink:href="#mdad68058b5" y="639.849091"/>
     <use style="fill:#ff0000;stroke:#ff0000;" x="901.503882" xlink:href="#mdad68058b5" y="639.849091"/>
     <use style="fill:#ff0000;stroke:#ff0000;" x="971.21939" xlink:href="#mdad68058b5" y="639.849091"/>
     <use style="fill:#ff0000;stroke:#ff0000;" x="1075.792652" xlink:href="#mdad68058b5" y="639.849091"/>
    </g>
   </g>
   <g id="patch_9">
    <path d="M 48.982813 645.74 
L 48.982813 516.14 
" style="fill:none;stroke:#000000;stroke-linecap:square;stroke-linejoin:miter;stroke-width:0.8;"/>
   </g>
   <g id="patch_10">
    <path d="M 1166.422812 645.74 
L 1166.422812 516.14 
" style="fill:none;stroke:#000000;stroke-linecap:square;stroke-linejoin:miter;stroke-width:0.8;"/>
   </g>
   <g id="patch_11">
    <path d="M 48.982813 645.74 
L 1166.422813 645.74 
" style="fill:none;stroke:#000000;stroke-linecap:square;stroke-linejoin:miter;stroke-width:0.8;"/>
   </g>
   <g id="patch_12">
    <path d="M 48.982813 516.14 
L 1166.422813 516.14 
" style="fill:none;stroke:#000000;stroke-linecap:square;stroke-linejoin:miter;stroke-width:0.8;"/>
   </g>
   <g id="legend_2">
    <g id="patch_13">
     <path d="M 55.982813 582.8525 
L 146.995313 582.8525 
Q 148.995313 582.8525 148.995313 580.8525 
L 148.995313 523.14 
Q 148.995313 521.14 146.995313 521.14 
L 55.982813 521.14 
Q 53.982813 521.14 53.982813 523.14 
L 53.982813 580.8525 
Q 53.982813 582.8525 55.982813 582.8525 
z
" style="fill:#ffffff;opacity:0.8;stroke:#cccccc;stroke-linejoin:miter;"/>
    </g>
    <g id="line2d_37">
     <path d="M 57.982813 529.238437 
L 77.982813 529.238437 
" style="fill:none;stroke:#ff0000;stroke-linecap:square;stroke-width:1.5;"/>
    </g>
    <g id="line2d_38"/>
    <g id="text_30">
     <!-- Maxmimum -->
     <defs>
      <path d="M 9.8125 72.90625 
L 24.515625 72.90625 
L 43.109375 23.296875 
L 61.8125 72.90625 
L 76.515625 72.90625 
L 76.515625 0 
L 66.890625 0 
L 66.890625 64.015625 
L 48.09375 14.015625 
L 38.1875 14.015625 
L 19.390625 64.015625 
L 19.390625 0 
L 9.8125 0 
z
" id="DejaVuSans-4d"/>
      <path d="M 54.890625 54.6875 
L 35.109375 28.078125 
L 55.90625 0 
L 45.3125 0 
L 29.390625 21.484375 
L 13.484375 0 
L 2.875 0 
L 24.125 28.609375 
L 4.6875 54.6875 
L 15.28125 54.6875 
L 29.78125 35.203125 
L 44.28125 54.6875 
z
" id="DejaVuSans-78"/>
     </defs>
     <g transform="translate(85.982813 532.738437)scale(0.1 -0.1)">
      <use xlink:href="#DejaVuSans-4d"/>
      <use x="86.279297" xlink:href="#DejaVuSans-61"/>
      <use x="147.558594" xlink:href="#DejaVuSans-78"/>
      <use x="206.738281" xlink:href="#DejaVuSans-6d"/>
      <use x="304.150391" xlink:href="#DejaVuSans-69"/>
      <use x="331.933594" xlink:href="#DejaVuSans-6d"/>
      <use x="429.345703" xlink:href="#DejaVuSans-75"/>
      <use x="492.724609" xlink:href="#DejaVuSans-6d"/>
     </g>
    </g>
    <g id="line2d_39">
     <path d="M 57.982813 543.916562 
L 77.982813 543.916562 
" style="fill:none;stroke:#008000;stroke-linecap:square;stroke-width:1.5;"/>
    </g>
    <g id="line2d_40"/>
    <g id="text_31">
     <!-- Average -->
     <defs>
      <path d="M 34.1875 63.1875 
L 20.796875 26.90625 
L 47.609375 26.90625 
z
M 28.609375 72.90625 
L 39.796875 72.90625 
L 67.578125 0 
L 57.328125 0 
L 50.6875 18.703125 
L 17.828125 18.703125 
L 11.1875 0 
L 0.78125 0 
z
" id="DejaVuSans-41"/>
      <path d="M 2.984375 54.6875 
L 12.5 54.6875 
L 29.59375 8.796875 
L 46.6875 54.6875 
L 56.203125 54.6875 
L 35.6875 0 
L 23.484375 0 
z
" id="DejaVuSans-76"/>
     </defs>
     <g transform="translate(85.982813 547.416562)scale(0.1 -0.1)">
      <use xlink:href="#DejaVuSans-41"/>
      <use x="68.330078" xlink:href="#DejaVuSans-76"/>
      <use x="127.509766" xlink:href="#DejaVuSans-65"/>
      <use x="189.033203" xlink:href="#DejaVuSans-72"/>
      <use x="230.146484" xlink:href="#DejaVuSans-61"/>
      <use x="291.425781" xlink:href="#DejaVuSans-67"/>
      <use x="354.902344" xlink:href="#DejaVuSans-65"/>
     </g>
    </g>
    <g id="line2d_41">
     <path d="M 57.982813 558.594687 
L 77.982813 558.594687 
" style="fill:none;stroke:#0000ff;stroke-linecap:square;stroke-width:1.5;"/>
    </g>
    <g id="line2d_42"/>
    <g id="text_32">
     <!-- Minimum -->
     <g transform="translate(85.982813 562.094687)scale(0.1 -0.1)">
      <use xlink:href="#DejaVuSans-4d"/>
      <use x="86.279297" xlink:href="#DejaVuSans-69"/>
      <use x="114.0625" xlink:href="#DejaVuSans-6e"/>
      <use x="177.441406" xlink:href="#DejaVuSans-69"/>
      <use x="205.224609" xlink:href="#DejaVuSans-6d"/>
      <use x="302.636719" xlink:href="#DejaVuSans-75"/>
      <use x="366.015625" xlink:href="#DejaVuSans-6d"/>
     </g>
    </g>
    <g id="line2d_43"/>
    <g id="line2d_44">
     <g>
      <use style="fill:#ff0000;stroke:#ff0000;" x="67.982813" xlink:href="#mdad68058b5" y="573.272812"/>
     </g>
    </g>
    <g id="text_33">
     <!-- Disasters -->
     <g transform="translate(85.982813 576.772812)scale(0.1 -0.1)">
      <use xlink:href="#DejaVuSans-44"/>
      <use x="77.001953" xlink:href="#DejaVuSans-69"/>
      <use x="104.785156" xlink:href="#DejaVuSans-73"/>
      <use x="156.884766" xlink:href="#DejaVuSans-61"/>
      <use x="218.164062" xlink:href="#DejaVuSans-73"/>
      <use x="270.263672" xlink:href="#DejaVuSans-74"/>
      <use x="309.472656" xlink:href="#DejaVuSans-65"/>
      <use x="370.996094" xlink:href="#DejaVuSans-72"/>
      <use x="412.109375" xlink:href="#DejaVuSans-73"/>
     </g>
    </g>
   </g>
  </g>
 </g>
 <defs>
  <clipPath id="p8baad46b61">
   <rect height="498.96" width="1116" x="48.982813" y="10.7"/>
  </clipPath>
  <clipPath id="p25bc568325">
   <rect height="129.6" width="1117.44" x="48.982813" y="516.14"/>
  </clipPath>
 </defs>
</svg>
