<?xml version="1.0" encoding="utf-8" standalone="no"?>
<!DOCTYPE svg PUBLIC "-//W3C//DTD SVG 1.1//EN"
  "http://www.w3.org/Graphics/SVG/1.1/DTD/svg11.dtd">
<!-- Created with matplotlib (http://matplotlib.org/) -->
<svg height="669pt" version="1.1" viewBox="0 0 1175 669" width="1175pt" xmlns="http://www.w3.org/2000/svg" xmlns:xlink="http://www.w3.org/1999/xlink">
 <defs>
  <style type="text/css">
*{stroke-linecap:butt;stroke-linejoin:round;}
  </style>
 </defs>
 <g id="figure_1">
  <g id="patch_1">
   <path d="M 0 669.618125 
L 1175.105625 669.618125 
L 1175.105625 -0 
L 0 -0 
z
" style="fill:none;"/>
  </g>
  <g id="axes_1">
   <g id="patch_2">
    <path d="M 46.965625 509.66 
L 1162.965625 509.66 
L 1162.965625 10.7 
L 46.965625 10.7 
z
" style="fill:none;"/>
   </g>
   <g id="matplotlib.axis_1">
    <g id="xtick_1">
     <g id="line2d_1">
      <defs>
       <path d="M 0 0 
L 0 3.5 
" id="medd33bc429" style="stroke:#000000;stroke-width:0.8;"/>
      </defs>
      <g>
       <use style="stroke:#000000;stroke-width:0.8;" x="97.692898" xlink:href="#medd33bc429" y="509.66"/>
      </g>
     </g>
     <g id="text_1">
      <!-- 0 -->
      <defs>
       <path d="M 31.78125 66.40625 
Q 24.171875 66.40625 20.328125 58.90625 
Q 16.5 51.421875 16.5 36.375 
Q 16.5 21.390625 20.328125 13.890625 
Q 24.171875 6.390625 31.78125 6.390625 
Q 39.453125 6.390625 43.28125 13.890625 
Q 47.125 21.390625 47.125 36.375 
Q 47.125 51.421875 43.28125 58.90625 
Q 39.453125 66.40625 31.78125 66.40625 
z
M 31.78125 74.21875 
Q 44.046875 74.21875 50.515625 64.515625 
Q 56.984375 54.828125 56.984375 36.375 
Q 56.984375 17.96875 50.515625 8.265625 
Q 44.046875 -1.421875 31.78125 -1.421875 
Q 19.53125 -1.421875 13.0625 8.265625 
Q 6.59375 17.96875 6.59375 36.375 
Q 6.59375 54.828125 13.0625 64.515625 
Q 19.53125 74.21875 31.78125 74.21875 
z
" id="DejaVuSans-30"/>
      </defs>
      <g transform="translate(94.511648 524.258437)scale(0.1 -0.1)">
       <use xlink:href="#DejaVuSans-30"/>
      </g>
     </g>
    </g>
    <g id="xtick_2">
     <g id="line2d_2">
      <g>
       <use style="stroke:#000000;stroke-width:0.8;" x="340.407121" xlink:href="#medd33bc429" y="509.66"/>
      </g>
     </g>
     <g id="text_2">
      <!-- 50 -->
      <defs>
       <path d="M 10.796875 72.90625 
L 49.515625 72.90625 
L 49.515625 64.59375 
L 19.828125 64.59375 
L 19.828125 46.734375 
Q 21.96875 47.46875 24.109375 47.828125 
Q 26.265625 48.1875 28.421875 48.1875 
Q 40.625 48.1875 47.75 41.5 
Q 54.890625 34.8125 54.890625 23.390625 
Q 54.890625 11.625 47.5625 5.09375 
Q 40.234375 -1.421875 26.90625 -1.421875 
Q 22.3125 -1.421875 17.546875 -0.640625 
Q 12.796875 0.140625 7.71875 1.703125 
L 7.71875 11.625 
Q 12.109375 9.234375 16.796875 8.0625 
Q 21.484375 6.890625 26.703125 6.890625 
Q 35.15625 6.890625 40.078125 11.328125 
Q 45.015625 15.765625 45.015625 23.390625 
Q 45.015625 31 40.078125 35.4375 
Q 35.15625 39.890625 26.703125 39.890625 
Q 22.75 39.890625 18.8125 39.015625 
Q 14.890625 38.140625 10.796875 36.28125 
z
" id="DejaVuSans-35"/>
      </defs>
      <g transform="translate(334.044621 524.258437)scale(0.1 -0.1)">
       <use xlink:href="#DejaVuSans-35"/>
       <use x="63.623047" xlink:href="#DejaVuSans-30"/>
      </g>
     </g>
    </g>
    <g id="xtick_3">
     <g id="line2d_3">
      <g>
       <use style="stroke:#000000;stroke-width:0.8;" x="583.121345" xlink:href="#medd33bc429" y="509.66"/>
      </g>
     </g>
     <g id="text_3">
      <!-- 100 -->
      <defs>
       <path d="M 12.40625 8.296875 
L 28.515625 8.296875 
L 28.515625 63.921875 
L 10.984375 60.40625 
L 10.984375 69.390625 
L 28.421875 72.90625 
L 38.28125 72.90625 
L 38.28125 8.296875 
L 54.390625 8.296875 
L 54.390625 0 
L 12.40625 0 
z
" id="DejaVuSans-31"/>
      </defs>
      <g transform="translate(573.577595 524.258437)scale(0.1 -0.1)">
       <use xlink:href="#DejaVuSans-31"/>
       <use x="63.623047" xlink:href="#DejaVuSans-30"/>
       <use x="127.246094" xlink:href="#DejaVuSans-30"/>
      </g>
     </g>
    </g>
    <g id="xtick_4">
     <g id="line2d_4">
      <g>
       <use style="stroke:#000000;stroke-width:0.8;" x="825.835568" xlink:href="#medd33bc429" y="509.66"/>
      </g>
     </g>
     <g id="text_4">
      <!-- 150 -->
      <g transform="translate(816.291818 524.258437)scale(0.1 -0.1)">
       <use xlink:href="#DejaVuSans-31"/>
       <use x="63.623047" xlink:href="#DejaVuSans-35"/>
       <use x="127.246094" xlink:href="#DejaVuSans-30"/>
      </g>
     </g>
    </g>
    <g id="xtick_5">
     <g id="line2d_5">
      <g>
       <use style="stroke:#000000;stroke-width:0.8;" x="1068.549792" xlink:href="#medd33bc429" y="509.66"/>
      </g>
     </g>
     <g id="text_5">
      <!-- 200 -->
      <defs>
       <path d="M 19.1875 8.296875 
L 53.609375 8.296875 
L 53.609375 0 
L 7.328125 0 
L 7.328125 8.296875 
Q 12.9375 14.109375 22.625 23.890625 
Q 32.328125 33.6875 34.8125 36.53125 
Q 39.546875 41.84375 41.421875 45.53125 
Q 43.3125 49.21875 43.3125 52.78125 
Q 43.3125 58.59375 39.234375 62.25 
Q 35.15625 65.921875 28.609375 65.921875 
Q 23.96875 65.921875 18.8125 64.3125 
Q 13.671875 62.703125 7.8125 59.421875 
L 7.8125 69.390625 
Q 13.765625 71.78125 18.9375 73 
Q 24.125 74.21875 28.421875 74.21875 
Q 39.75 74.21875 46.484375 68.546875 
Q 53.21875 62.890625 53.21875 53.421875 
Q 53.21875 48.921875 51.53125 44.890625 
Q 49.859375 40.875 45.40625 35.40625 
Q 44.1875 33.984375 37.640625 27.21875 
Q 31.109375 20.453125 19.1875 8.296875 
z
" id="DejaVuSans-32"/>
      </defs>
      <g transform="translate(1059.006042 524.258437)scale(0.1 -0.1)">
       <use xlink:href="#DejaVuSans-32"/>
       <use x="63.623047" xlink:href="#DejaVuSans-30"/>
       <use x="127.246094" xlink:href="#DejaVuSans-30"/>
      </g>
     </g>
    </g>
    <g id="text_6">
     <!-- Time -->
     <defs>
      <path d="M -0.296875 72.90625 
L 61.375 72.90625 
L 61.375 64.59375 
L 35.5 64.59375 
L 35.5 0 
L 25.59375 0 
L 25.59375 64.59375 
L -0.296875 64.59375 
z
" id="DejaVuSans-54"/>
      <path d="M 9.421875 54.6875 
L 18.40625 54.6875 
L 18.40625 0 
L 9.421875 0 
z
M 9.421875 75.984375 
L 18.40625 75.984375 
L 18.40625 64.59375 
L 9.421875 64.59375 
z
" id="DejaVuSans-69"/>
      <path d="M 52 44.1875 
Q 55.375 50.25 60.0625 53.125 
Q 64.75 56 71.09375 56 
Q 79.640625 56 84.28125 50.015625 
Q 88.921875 44.046875 88.921875 33.015625 
L 88.921875 0 
L 79.890625 0 
L 79.890625 32.71875 
Q 79.890625 40.578125 77.09375 44.375 
Q 74.3125 48.1875 68.609375 48.1875 
Q 61.625 48.1875 57.5625 43.546875 
Q 53.515625 38.921875 53.515625 30.90625 
L 53.515625 0 
L 44.484375 0 
L 44.484375 32.71875 
Q 44.484375 40.625 41.703125 44.40625 
Q 38.921875 48.1875 33.109375 48.1875 
Q 26.21875 48.1875 22.15625 43.53125 
Q 18.109375 38.875 18.109375 30.90625 
L 18.109375 0 
L 9.078125 0 
L 9.078125 54.6875 
L 18.109375 54.6875 
L 18.109375 46.1875 
Q 21.1875 51.21875 25.484375 53.609375 
Q 29.78125 56 35.6875 56 
Q 41.65625 56 45.828125 52.96875 
Q 50 49.953125 52 44.1875 
z
" id="DejaVuSans-6d"/>
      <path d="M 56.203125 29.59375 
L 56.203125 25.203125 
L 14.890625 25.203125 
Q 15.484375 15.921875 20.484375 11.0625 
Q 25.484375 6.203125 34.421875 6.203125 
Q 39.59375 6.203125 44.453125 7.46875 
Q 49.3125 8.734375 54.109375 11.28125 
L 54.109375 2.78125 
Q 49.265625 0.734375 44.1875 -0.34375 
Q 39.109375 -1.421875 33.890625 -1.421875 
Q 20.796875 -1.421875 13.15625 6.1875 
Q 5.515625 13.8125 5.515625 26.8125 
Q 5.515625 40.234375 12.765625 48.109375 
Q 20.015625 56 32.328125 56 
Q 43.359375 56 49.78125 48.890625 
Q 56.203125 41.796875 56.203125 29.59375 
z
M 47.21875 32.234375 
Q 47.125 39.59375 43.09375 43.984375 
Q 39.0625 48.390625 32.421875 48.390625 
Q 24.90625 48.390625 20.390625 44.140625 
Q 15.875 39.890625 15.1875 32.171875 
z
" id="DejaVuSans-65"/>
     </defs>
     <g transform="translate(592.578125 537.936562)scale(0.1 -0.1)">
      <use xlink:href="#DejaVuSans-54"/>
      <use x="61.037109" xlink:href="#DejaVuSans-69"/>
      <use x="88.820312" xlink:href="#DejaVuSans-6d"/>
      <use x="186.232422" xlink:href="#DejaVuSans-65"/>
     </g>
    </g>
   </g>
   <g id="matplotlib.axis_2">
    <g id="ytick_1">
     <g id="line2d_6">
      <defs>
       <path d="M 0 0 
L -3.5 0 
" id="mf92a91da03" style="stroke:#000000;stroke-width:0.8;"/>
      </defs>
      <g>
       <use style="stroke:#000000;stroke-width:0.8;" x="46.965625" xlink:href="#mf92a91da03" y="509.695598"/>
      </g>
     </g>
     <g id="text_7">
      <!-- 0 -->
      <g transform="translate(33.603125 513.494817)scale(0.1 -0.1)">
       <use xlink:href="#DejaVuSans-30"/>
      </g>
     </g>
    </g>
    <g id="ytick_2">
     <g id="line2d_7">
      <g>
       <use style="stroke:#000000;stroke-width:0.8;" x="46.965625" xlink:href="#mf92a91da03" y="431.365949"/>
      </g>
     </g>
     <g id="text_8">
      <!-- 100 -->
      <g transform="translate(20.878125 435.165168)scale(0.1 -0.1)">
       <use xlink:href="#DejaVuSans-31"/>
       <use x="63.623047" xlink:href="#DejaVuSans-30"/>
       <use x="127.246094" xlink:href="#DejaVuSans-30"/>
      </g>
     </g>
    </g>
    <g id="ytick_3">
     <g id="line2d_8">
      <g>
       <use style="stroke:#000000;stroke-width:0.8;" x="46.965625" xlink:href="#mf92a91da03" y="353.0363"/>
      </g>
     </g>
     <g id="text_9">
      <!-- 200 -->
      <g transform="translate(20.878125 356.835518)scale(0.1 -0.1)">
       <use xlink:href="#DejaVuSans-32"/>
       <use x="63.623047" xlink:href="#DejaVuSans-30"/>
       <use x="127.246094" xlink:href="#DejaVuSans-30"/>
      </g>
     </g>
    </g>
    <g id="ytick_4">
     <g id="line2d_9">
      <g>
       <use style="stroke:#000000;stroke-width:0.8;" x="46.965625" xlink:href="#mf92a91da03" y="274.70665"/>
      </g>
     </g>
     <g id="text_10">
      <!-- 300 -->
      <defs>
       <path d="M 40.578125 39.3125 
Q 47.65625 37.796875 51.625 33 
Q 55.609375 28.21875 55.609375 21.1875 
Q 55.609375 10.40625 48.1875 4.484375 
Q 40.765625 -1.421875 27.09375 -1.421875 
Q 22.515625 -1.421875 17.65625 -0.515625 
Q 12.796875 0.390625 7.625 2.203125 
L 7.625 11.71875 
Q 11.71875 9.328125 16.59375 8.109375 
Q 21.484375 6.890625 26.8125 6.890625 
Q 36.078125 6.890625 40.9375 10.546875 
Q 45.796875 14.203125 45.796875 21.1875 
Q 45.796875 27.640625 41.28125 31.265625 
Q 36.765625 34.90625 28.71875 34.90625 
L 20.21875 34.90625 
L 20.21875 43.015625 
L 29.109375 43.015625 
Q 36.375 43.015625 40.234375 45.921875 
Q 44.09375 48.828125 44.09375 54.296875 
Q 44.09375 59.90625 40.109375 62.90625 
Q 36.140625 65.921875 28.71875 65.921875 
Q 24.65625 65.921875 20.015625 65.03125 
Q 15.375 64.15625 9.8125 62.3125 
L 9.8125 71.09375 
Q 15.4375 72.65625 20.34375 73.4375 
Q 25.25 74.21875 29.59375 74.21875 
Q 40.828125 74.21875 47.359375 69.109375 
Q 53.90625 64.015625 53.90625 55.328125 
Q 53.90625 49.265625 50.4375 45.09375 
Q 46.96875 40.921875 40.578125 39.3125 
z
" id="DejaVuSans-33"/>
      </defs>
      <g transform="translate(20.878125 278.505869)scale(0.1 -0.1)">
       <use xlink:href="#DejaVuSans-33"/>
       <use x="63.623047" xlink:href="#DejaVuSans-30"/>
       <use x="127.246094" xlink:href="#DejaVuSans-30"/>
      </g>
     </g>
    </g>
    <g id="ytick_5">
     <g id="line2d_10">
      <g>
       <use style="stroke:#000000;stroke-width:0.8;" x="46.965625" xlink:href="#mf92a91da03" y="196.377001"/>
      </g>
     </g>
     <g id="text_11">
      <!-- 400 -->
      <defs>
       <path d="M 37.796875 64.3125 
L 12.890625 25.390625 
L 37.796875 25.390625 
z
M 35.203125 72.90625 
L 47.609375 72.90625 
L 47.609375 25.390625 
L 58.015625 25.390625 
L 58.015625 17.1875 
L 47.609375 17.1875 
L 47.609375 0 
L 37.796875 0 
L 37.796875 17.1875 
L 4.890625 17.1875 
L 4.890625 26.703125 
z
" id="DejaVuSans-34"/>
      </defs>
      <g transform="translate(20.878125 200.17622)scale(0.1 -0.1)">
       <use xlink:href="#DejaVuSans-34"/>
       <use x="63.623047" xlink:href="#DejaVuSans-30"/>
       <use x="127.246094" xlink:href="#DejaVuSans-30"/>
      </g>
     </g>
    </g>
    <g id="ytick_6">
     <g id="line2d_11">
      <g>
       <use style="stroke:#000000;stroke-width:0.8;" x="46.965625" xlink:href="#mf92a91da03" y="118.047352"/>
      </g>
     </g>
     <g id="text_12">
      <!-- 500 -->
      <g transform="translate(20.878125 121.84657)scale(0.1 -0.1)">
       <use xlink:href="#DejaVuSans-35"/>
       <use x="63.623047" xlink:href="#DejaVuSans-30"/>
       <use x="127.246094" xlink:href="#DejaVuSans-30"/>
      </g>
     </g>
    </g>
    <g id="ytick_7">
     <g id="line2d_12">
      <g>
       <use style="stroke:#000000;stroke-width:0.8;" x="46.965625" xlink:href="#mf92a91da03" y="39.717702"/>
      </g>
     </g>
     <g id="text_13">
      <!-- 600 -->
      <defs>
       <path d="M 33.015625 40.375 
Q 26.375 40.375 22.484375 35.828125 
Q 18.609375 31.296875 18.609375 23.390625 
Q 18.609375 15.53125 22.484375 10.953125 
Q 26.375 6.390625 33.015625 6.390625 
Q 39.65625 6.390625 43.53125 10.953125 
Q 47.40625 15.53125 47.40625 23.390625 
Q 47.40625 31.296875 43.53125 35.828125 
Q 39.65625 40.375 33.015625 40.375 
z
M 52.59375 71.296875 
L 52.59375 62.3125 
Q 48.875 64.0625 45.09375 64.984375 
Q 41.3125 65.921875 37.59375 65.921875 
Q 27.828125 65.921875 22.671875 59.328125 
Q 17.53125 52.734375 16.796875 39.40625 
Q 19.671875 43.65625 24.015625 45.921875 
Q 28.375 48.1875 33.59375 48.1875 
Q 44.578125 48.1875 50.953125 41.515625 
Q 57.328125 34.859375 57.328125 23.390625 
Q 57.328125 12.15625 50.6875 5.359375 
Q 44.046875 -1.421875 33.015625 -1.421875 
Q 20.359375 -1.421875 13.671875 8.265625 
Q 6.984375 17.96875 6.984375 36.375 
Q 6.984375 53.65625 15.1875 63.9375 
Q 23.390625 74.21875 37.203125 74.21875 
Q 40.921875 74.21875 44.703125 73.484375 
Q 48.484375 72.75 52.59375 71.296875 
z
" id="DejaVuSans-36"/>
      </defs>
      <g transform="translate(20.878125 43.516921)scale(0.1 -0.1)">
       <use xlink:href="#DejaVuSans-36"/>
       <use x="63.623047" xlink:href="#DejaVuSans-30"/>
       <use x="127.246094" xlink:href="#DejaVuSans-30"/>
      </g>
     </g>
    </g>
    <g id="text_14">
     <!-- Refugees -->
     <defs>
      <path d="M 44.390625 34.1875 
Q 47.5625 33.109375 50.5625 29.59375 
Q 53.5625 26.078125 56.59375 19.921875 
L 66.609375 0 
L 56 0 
L 46.6875 18.703125 
Q 43.0625 26.03125 39.671875 28.421875 
Q 36.28125 30.8125 30.421875 30.8125 
L 19.671875 30.8125 
L 19.671875 0 
L 9.8125 0 
L 9.8125 72.90625 
L 32.078125 72.90625 
Q 44.578125 72.90625 50.734375 67.671875 
Q 56.890625 62.453125 56.890625 51.90625 
Q 56.890625 45.015625 53.6875 40.46875 
Q 50.484375 35.9375 44.390625 34.1875 
z
M 19.671875 64.796875 
L 19.671875 38.921875 
L 32.078125 38.921875 
Q 39.203125 38.921875 42.84375 42.21875 
Q 46.484375 45.515625 46.484375 51.90625 
Q 46.484375 58.296875 42.84375 61.546875 
Q 39.203125 64.796875 32.078125 64.796875 
z
" id="DejaVuSans-52"/>
      <path d="M 37.109375 75.984375 
L 37.109375 68.5 
L 28.515625 68.5 
Q 23.6875 68.5 21.796875 66.546875 
Q 19.921875 64.59375 19.921875 59.515625 
L 19.921875 54.6875 
L 34.71875 54.6875 
L 34.71875 47.703125 
L 19.921875 47.703125 
L 19.921875 0 
L 10.890625 0 
L 10.890625 47.703125 
L 2.296875 47.703125 
L 2.296875 54.6875 
L 10.890625 54.6875 
L 10.890625 58.5 
Q 10.890625 67.625 15.140625 71.796875 
Q 19.390625 75.984375 28.609375 75.984375 
z
" id="DejaVuSans-66"/>
      <path d="M 8.5 21.578125 
L 8.5 54.6875 
L 17.484375 54.6875 
L 17.484375 21.921875 
Q 17.484375 14.15625 20.5 10.265625 
Q 23.53125 6.390625 29.59375 6.390625 
Q 36.859375 6.390625 41.078125 11.03125 
Q 45.3125 15.671875 45.3125 23.6875 
L 45.3125 54.6875 
L 54.296875 54.6875 
L 54.296875 0 
L 45.3125 0 
L 45.3125 8.40625 
Q 42.046875 3.421875 37.71875 1 
Q 33.40625 -1.421875 27.6875 -1.421875 
Q 18.265625 -1.421875 13.375 4.4375 
Q 8.5 10.296875 8.5 21.578125 
z
M 31.109375 56 
z
" id="DejaVuSans-75"/>
      <path d="M 45.40625 27.984375 
Q 45.40625 37.75 41.375 43.109375 
Q 37.359375 48.484375 30.078125 48.484375 
Q 22.859375 48.484375 18.828125 43.109375 
Q 14.796875 37.75 14.796875 27.984375 
Q 14.796875 18.265625 18.828125 12.890625 
Q 22.859375 7.515625 30.078125 7.515625 
Q 37.359375 7.515625 41.375 12.890625 
Q 45.40625 18.265625 45.40625 27.984375 
z
M 54.390625 6.78125 
Q 54.390625 -7.171875 48.1875 -13.984375 
Q 42 -20.796875 29.203125 -20.796875 
Q 24.46875 -20.796875 20.265625 -20.09375 
Q 16.0625 -19.390625 12.109375 -17.921875 
L 12.109375 -9.1875 
Q 16.0625 -11.328125 19.921875 -12.34375 
Q 23.78125 -13.375 27.78125 -13.375 
Q 36.625 -13.375 41.015625 -8.765625 
Q 45.40625 -4.15625 45.40625 5.171875 
L 45.40625 9.625 
Q 42.625 4.78125 38.28125 2.390625 
Q 33.9375 0 27.875 0 
Q 17.828125 0 11.671875 7.65625 
Q 5.515625 15.328125 5.515625 27.984375 
Q 5.515625 40.671875 11.671875 48.328125 
Q 17.828125 56 27.875 56 
Q 33.9375 56 38.28125 53.609375 
Q 42.625 51.21875 45.40625 46.390625 
L 45.40625 54.6875 
L 54.390625 54.6875 
z
" id="DejaVuSans-67"/>
      <path d="M 44.28125 53.078125 
L 44.28125 44.578125 
Q 40.484375 46.53125 36.375 47.5 
Q 32.28125 48.484375 27.875 48.484375 
Q 21.1875 48.484375 17.84375 46.4375 
Q 14.5 44.390625 14.5 40.28125 
Q 14.5 37.15625 16.890625 35.375 
Q 19.28125 33.59375 26.515625 31.984375 
L 29.59375 31.296875 
Q 39.15625 29.25 43.1875 25.515625 
Q 47.21875 21.78125 47.21875 15.09375 
Q 47.21875 7.46875 41.1875 3.015625 
Q 35.15625 -1.421875 24.609375 -1.421875 
Q 20.21875 -1.421875 15.453125 -0.5625 
Q 10.6875 0.296875 5.421875 2 
L 5.421875 11.28125 
Q 10.40625 8.6875 15.234375 7.390625 
Q 20.0625 6.109375 24.8125 6.109375 
Q 31.15625 6.109375 34.5625 8.28125 
Q 37.984375 10.453125 37.984375 14.40625 
Q 37.984375 18.0625 35.515625 20.015625 
Q 33.0625 21.96875 24.703125 23.78125 
L 21.578125 24.515625 
Q 13.234375 26.265625 9.515625 29.90625 
Q 5.8125 33.546875 5.8125 39.890625 
Q 5.8125 47.609375 11.28125 51.796875 
Q 16.75 56 26.8125 56 
Q 31.78125 56 36.171875 55.265625 
Q 40.578125 54.546875 44.28125 53.078125 
z
" id="DejaVuSans-73"/>
     </defs>
     <g style="fill:#ff7f0e;" transform="translate(14.798438 283.588594)rotate(-90)scale(0.1 -0.1)">
      <use xlink:href="#DejaVuSans-52"/>
      <use x="69.419922" xlink:href="#DejaVuSans-65"/>
      <use x="130.943359" xlink:href="#DejaVuSans-66"/>
      <use x="166.148438" xlink:href="#DejaVuSans-75"/>
      <use x="229.527344" xlink:href="#DejaVuSans-67"/>
      <use x="293.003906" xlink:href="#DejaVuSans-65"/>
      <use x="354.527344" xlink:href="#DejaVuSans-65"/>
      <use x="416.050781" xlink:href="#DejaVuSans-73"/>
     </g>
    </g>
   </g>
   <g id="line2d_13">
    <path clip-path="url(#p095c6aa50d)" d="M 97.692898 477.934474 
L 102.547182 475.751189 
L 107.401467 476.536568 
L 112.255751 480.100396 
L 117.110036 480.515189 
L 121.96432 472.959801 
L 126.818605 475.221134 
L 131.672889 473.026073 
L 136.527173 473.828541 
L 141.381458 477.375699 
L 146.235742 477.820809 
L 151.090027 470.216453 
L 155.944311 470.430609 
L 160.798596 468.214739 
L 165.65288 469.047383 
L 170.507165 472.565081 
L 175.361449 473.063761 
L 180.215734 465.372919 
L 185.070018 474.383207 
L 189.924303 472.184501 
L 194.778587 472.992242 
L 199.632872 476.534249 
L 204.487156 476.988736 
L 209.341441 469.369245 
L 214.195725 454.852079 
L 219.05001 452.568554 
L 223.904294 453.499316 
L 228.758578 456.921248 
L 233.612863 457.594083 
L 238.467147 449.622031 
L 243.321432 457.299384 
L 248.175716 455.026485 
L 253.030001 455.941841 
L 257.884285 459.378815 
L 262.73857 460.024288 
L 267.592854 452.096414 
L 272.447139 442.990371 
L 277.301423 440.655332 
L 282.155708 441.660825 
L 287.009992 445.009819 
L 291.864277 445.815245 
L 296.718561 437.629082 
L 301.572846 422.839675 
L 306.42713 420.746118 
L 311.281414 422.198167 
L 316.135699 425.617858 
L 320.989983 426.693194 
L 325.844268 418.189175 
L 330.698552 440.438538 
L 335.552837 438.092401 
L 340.407121 439.113976 
L 345.261406 442.447295 
L 350.11569 443.28125 
L 354.969975 435.04903 
L 359.824259 430.632152 
L 364.678544 428.243424 
L 369.532828 429.32678 
L 374.387113 432.5998 
L 379.241397 433.543387 
L 384.095682 425.134143 
L 388.949966 458.317254 
L 393.80425 456.048777 
L 398.658535 456.95772 
L 403.512819 460.400948 
L 408.367104 461.03504 
L 413.221388 453.125542 
L 418.075673 441.795956 
L 422.929957 439.455724 
L 427.784242 440.468747 
L 432.638526 443.810408 
L 437.492811 444.629191 
L 442.347095 436.421466 
L 447.20138 454.950762 
L 452.055664 452.667661 
L 456.909949 453.597808 
L 461.764233 457.020349 
L 466.618518 457.692078 
L 471.472802 449.721813 
L 476.327087 447.75364 
L 481.181371 445.439278 
L 486.035655 446.414771 
L 490.88994 449.79306 
L 495.744224 450.545239 
L 500.598509 442.44506 
L 505.452793 472.638016 
L 510.307078 470.431735 
L 515.161362 471.250473 
L 520.015647 474.78174 
L 524.869931 475.255742 
L 534.5785 460.098424 
L 539.432785 457.837674 
L 544.287069 458.735412 
L 549.141354 462.189576 
L 553.995638 462.803768 
L 558.849923 454.926409 
L 563.704207 475.660923 
L 568.558491 473.467765 
L 573.412776 474.267454 
L 578.26706 477.817322 
L 583.121345 478.257523 
L 587.975629 470.661097 
L 592.829914 477.314118 
L 597.684198 475.128144 
L 602.538483 475.917425 
L 607.392767 479.47744 
L 612.247052 479.899166 
L 617.101336 472.332585 
L 621.955621 437.903318 
L 626.809905 435.546174 
L 631.66419 436.583716 
L 636.518474 439.90145 
L 641.372759 440.763744 
L 646.227043 432.485752 
L 651.081327 457.376679 
L 655.935612 455.10412 
L 660.789896 456.018992 
L 665.644181 459.456444 
L 670.498465 460.101041 
L 675.35275 452.174563 
L 680.207034 461.719964 
L 685.061319 459.466262 
L 689.915603 460.353773 
L 694.769888 463.817923 
L 699.624172 464.413977 
L 704.478457 456.565893 
L 709.332741 454.922053 
L 714.187026 452.638826 
L 719.04131 453.569158 
L 723.895595 456.991509 
L 728.749879 457.663567 
L 733.604163 449.692775 
L 738.458448 456.236306 
L 743.312732 453.958793 
L 748.167017 454.880848 
L 753.021301 458.311284 
L 757.875586 458.96864 
L 762.72987 451.02158 
L 767.584155 465.380094 
L 772.438439 463.142283 
L 777.292724 464.006737 
L 782.147008 467.49339 
L 787.001293 468.048535 
L 791.855577 460.266525 
L 796.709862 33.38 
L 801.564146 108.198823 
L 806.418431 222.363928 
L 811.272715 312.019357 
L 816.127 344.120876 
L 820.981284 352.230198 
L 825.835568 431.067253 
L 830.689853 427.587448 
L 835.544137 415.819332 
L 840.398422 398.97624 
L 850.106991 364.221044 
L 854.961275 372.740002 
L 859.81556 375.983423 
L 864.669844 380.897982 
L 869.524129 384.065865 
L 874.378413 383.253203 
L 879.232698 372.029028 
L 884.086982 339.714905 
L 888.941267 335.396184 
L 893.795551 349.523059 
L 898.649836 365.145375 
L 903.50412 364.700672 
L 908.358404 362.542758 
L 913.212689 302.057008 
L 918.066973 298.255792 
L 922.921258 294.135238 
L 927.775542 285.636299 
L 932.629827 278.390783 
L 937.484111 265.83674 
L 942.338396 297.222289 
L 947.19268 301.020589 
L 952.046965 307.420418 
L 956.901249 309.339122 
L 961.755534 308.687203 
L 966.609818 298.691066 
L 971.464103 198.450533 
L 976.318387 164.250419 
L 981.172672 158.981741 
L 986.026956 163.945495 
L 990.88124 175.180904 
L 995.735525 184.922007 
L 1000.589809 145.526004 
L 1005.444094 114.007451 
L 1010.298378 96.479638 
L 1015.152663 82.69799 
L 1020.006947 85.583575 
L 1024.861232 84.552582 
L 1029.715516 62.491818 
L 1034.569801 37.594665 
L 1039.424085 66.093242 
L 1044.27837 111.361268 
L 1049.132654 167.129789 
L 1053.986939 199.188865 
L 1058.841223 184.421953 
L 1063.695508 182.798778 
L 1068.549792 202.723524 
L 1073.404077 212.36932 
L 1078.258361 184.315602 
L 1083.112645 172.960863 
L 1087.96693 191.719533 
L 1092.821214 180.488881 
L 1097.675499 164.749254 
L 1102.529783 143.162728 
L 1107.384068 128.727416 
L 1112.238352 109.147705 
L 1112.238352 109.147705 
" style="fill:none;stroke:#008000;stroke-dasharray:5.55,2.4;stroke-dashoffset:0;stroke-width:1.5;"/>
   </g>
   <g id="line2d_14">
    <path clip-path="url(#p095c6aa50d)" d="M 97.692898 472.880663 
L 102.547182 476.013849 
L 107.401467 467.397588 
L 112.255751 468.180884 
L 117.110036 468.180884 
L 121.96432 453.298251 
L 126.818605 455.64814 
L 131.672889 472.097367 
L 136.527173 466.614291 
L 141.381458 486.98 
L 146.235742 468.180884 
L 155.944311 472.880663 
L 160.798596 454.081547 
L 170.507165 463.481105 
L 175.361449 472.880663 
L 180.215734 471.31407 
L 185.070018 476.013849 
L 189.924303 475.230553 
L 194.778587 473.66396 
L 199.632872 460.347919 
L 204.487156 457.99803 
L 209.341441 458.781326 
L 214.195725 465.047698 
L 219.05001 457.99803 
L 223.904294 442.3321 
L 228.758578 436.849024 
L 238.467147 461.914512 
L 243.321432 459.564623 
L 248.175716 462.697809 
L 253.030001 461.914512 
L 257.884285 457.99803 
L 262.73857 448.598472 
L 267.592854 434.499135 
L 272.447139 416.483316 
L 277.301423 401.600682 
L 282.155708 405.517165 
L 287.009992 385.151456 
L 291.864277 410.216944 
L 296.718561 434.499135 
L 301.572846 390.634531 
L 306.42713 431.365949 
L 311.281414 418.833205 
L 316.135699 441.548803 
L 320.989983 437.632321 
L 325.844268 444.681989 
L 330.698552 429.799356 
L 335.552837 394.551014 
L 340.407121 408.650351 
L 345.261406 414.133426 
L 350.11569 436.849024 
L 354.969975 419.616502 
L 359.824259 434.499135 
L 364.678544 454.081547 
L 369.532828 454.081547 
L 374.387113 452.514954 
L 379.241397 468.180884 
L 384.095682 451.731658 
L 388.949966 427.449467 
L 393.80425 434.499135 
L 398.658535 421.966391 
L 403.512819 440.765507 
L 408.367104 447.815175 
L 413.221388 425.099577 
L 418.075673 454.864844 
L 422.929957 445.465286 
L 427.784242 444.681989 
L 432.638526 463.481105 
L 437.492811 450.165065 
L 442.347095 457.99803 
L 447.20138 437.632321 
L 452.055664 431.365949 
L 456.909949 439.198914 
L 461.764233 457.214733 
L 466.618518 433.715838 
L 471.472802 436.065728 
L 476.327087 462.697809 
L 481.181371 476.013849 
L 486.035655 462.697809 
L 490.88994 475.230553 
L 495.744224 458.781326 
L 500.598509 472.097367 
L 505.452793 482.280221 
L 510.307078 465.830995 
L 515.161362 458.781326 
L 520.015647 449.381768 
L 524.869931 454.081547 
L 529.724216 452.514954 
L 534.5785 438.415617 
L 539.432785 461.914512 
L 544.287069 446.248582 
L 549.141354 466.614291 
L 553.995638 467.397588 
L 558.849923 476.013849 
L 568.558491 469.747477 
L 573.412776 483.063518 
L 578.26706 467.397588 
L 583.121345 465.830995 
L 587.975629 470.530774 
L 592.829914 471.31407 
L 597.684198 452.514954 
L 602.538483 461.914512 
L 607.392767 457.99803 
L 612.247052 436.849024 
L 617.101336 429.799356 
L 621.955621 386.718049 
L 626.809905 408.650351 
L 631.66419 456.431437 
L 636.518474 442.3321 
L 641.372759 458.781326 
L 646.227043 468.964181 
L 651.081327 468.964181 
L 655.935612 448.598472 
L 660.789896 464.264402 
L 665.644181 447.815175 
L 670.498465 449.381768 
L 675.35275 464.264402 
L 680.207034 451.731658 
L 685.061319 461.131216 
L 689.915603 476.013849 
L 694.769888 451.731658 
L 699.624172 437.632321 
L 704.478457 449.381768 
L 709.332741 446.248582 
L 714.187026 457.214733 
L 719.04131 446.248582 
L 723.895595 450.165065 
L 728.749879 456.431437 
L 733.604163 457.214733 
L 738.458448 471.31407 
L 743.312732 457.214733 
L 748.167017 470.530774 
L 753.021301 454.864844 
L 757.875586 448.598472 
L 762.72987 458.781326 
L 767.584155 449.381768 
L 772.438439 430.582652 
L 777.292724 278.623133 
L 782.147008 159.562066 
L 787.001293 53.817039 
L 791.855577 82.015713 
L 796.709862 48.333964 
L 801.564146 127.44691 
L 806.418431 258.257424 
L 811.272715 295.855656 
L 816.127 360.085968 
L 820.981284 407.867054 
L 825.835568 400.034089 
L 830.689853 401.600682 
L 835.544137 371.052119 
L 840.398422 396.900903 
L 845.252706 367.135637 
L 850.106991 414.133426 
L 854.961275 393.767717 
L 859.81556 395.33431 
L 864.669844 365.569044 
L 869.524129 358.519375 
L 874.378413 358.519375 
L 879.232698 343.636742 
L 884.086982 319.35455 
L 888.941267 348.336521 
L 893.795551 379.66838 
L 898.649836 389.851235 
L 903.50412 389.067938 
L 908.358404 358.519375 
L 913.212689 381.234973 
L 918.066973 344.420038 
L 922.921258 291.939173 
L 927.775542 316.221364 
L 932.629827 280.973022 
L 937.484111 329.537405 
L 942.338396 327.970812 
L 947.19268 336.587073 
L 952.046965 342.070149 
L 956.901249 353.0363 
L 961.755534 308.3884 
L 966.609818 309.954993 
L 971.464103 322.487736 
L 976.318387 95.331753 
L 981.172672 103.948015 
L 986.026956 92.981864 
L 990.88124 200.293484 
L 995.735525 186.194147 
L 1000.589809 163.478548 
L 1005.444094 150.945804 
L 1010.298378 50.683853 
L 1015.152663 92.981864 
L 1020.006947 156.42888 
L 1024.861232 39.717702 
L 1029.715516 107.864497 
L 1034.569801 192.460519 
L 1039.424085 132.146689 
L 1044.27837 98.464939 
L 1049.132654 122.747131 
L 1053.986939 185.41085 
L 1058.841223 183.060961 
L 1063.695508 197.943594 
L 1068.549792 157.212176 
L 1073.404077 250.424459 
L 1078.258361 214.39282 
L 1083.112645 223.009082 
L 1087.96693 273.923354 
L 1092.821214 150.162508 
L 1097.675499 104.731311 
L 1102.529783 67.13308 
L 1107.384068 120.397241 
L 1112.238352 220.659192 
L 1112.238352 220.659192 
" style="fill:none;stroke:#ff7f0e;stroke-linecap:square;stroke-width:1.5;"/>
   </g>
   <g id="line2d_15">
    <defs>
     <path d="M 0 3 
C 0.795609 3 1.55874 2.683901 2.12132 2.12132 
C 2.683901 1.55874 3 0.795609 3 0 
C 3 -0.795609 2.683901 -1.55874 2.12132 -2.12132 
C 1.55874 -2.683901 0.795609 -3 0 -3 
C -0.795609 -3 -1.55874 -2.683901 -2.12132 -2.12132 
C -2.683901 -1.55874 -3 -0.795609 -3 0 
C -3 0.795609 -2.683901 1.55874 -2.12132 2.12132 
C -1.55874 2.683901 -0.795609 3 0 3 
z
" id="mf9e3d522cb" style="stroke:#008000;"/>
    </defs>
    <g clip-path="url(#p095c6aa50d)">
     <use style="fill:#008000;stroke:#008000;" x="97.692898" xlink:href="#mf9e3d522cb" y="477.934474"/>
     <use style="fill:#008000;stroke:#008000;" x="126.818605" xlink:href="#mf9e3d522cb" y="475.221134"/>
     <use style="fill:#008000;stroke:#008000;" x="155.944311" xlink:href="#mf9e3d522cb" y="470.430609"/>
     <use style="fill:#008000;stroke:#008000;" x="185.070018" xlink:href="#mf9e3d522cb" y="474.383207"/>
     <use style="fill:#008000;stroke:#008000;" x="214.195725" xlink:href="#mf9e3d522cb" y="454.852079"/>
     <use style="fill:#008000;stroke:#008000;" x="243.321432" xlink:href="#mf9e3d522cb" y="457.299384"/>
     <use style="fill:#008000;stroke:#008000;" x="272.447139" xlink:href="#mf9e3d522cb" y="442.990371"/>
     <use style="fill:#008000;stroke:#008000;" x="301.572846" xlink:href="#mf9e3d522cb" y="422.839675"/>
     <use style="fill:#008000;stroke:#008000;" x="330.698552" xlink:href="#mf9e3d522cb" y="440.438538"/>
     <use style="fill:#008000;stroke:#008000;" x="359.824259" xlink:href="#mf9e3d522cb" y="430.632152"/>
     <use style="fill:#008000;stroke:#008000;" x="388.949966" xlink:href="#mf9e3d522cb" y="458.317254"/>
     <use style="fill:#008000;stroke:#008000;" x="418.075673" xlink:href="#mf9e3d522cb" y="441.795956"/>
     <use style="fill:#008000;stroke:#008000;" x="447.20138" xlink:href="#mf9e3d522cb" y="454.950762"/>
     <use style="fill:#008000;stroke:#008000;" x="476.327087" xlink:href="#mf9e3d522cb" y="447.75364"/>
     <use style="fill:#008000;stroke:#008000;" x="505.452793" xlink:href="#mf9e3d522cb" y="472.638016"/>
     <use style="fill:#008000;stroke:#008000;" x="534.5785" xlink:href="#mf9e3d522cb" y="460.098424"/>
     <use style="fill:#008000;stroke:#008000;" x="563.704207" xlink:href="#mf9e3d522cb" y="475.660923"/>
     <use style="fill:#008000;stroke:#008000;" x="592.829914" xlink:href="#mf9e3d522cb" y="477.314118"/>
     <use style="fill:#008000;stroke:#008000;" x="621.955621" xlink:href="#mf9e3d522cb" y="437.903318"/>
     <use style="fill:#008000;stroke:#008000;" x="651.081327" xlink:href="#mf9e3d522cb" y="457.376679"/>
     <use style="fill:#008000;stroke:#008000;" x="680.207034" xlink:href="#mf9e3d522cb" y="461.719964"/>
     <use style="fill:#008000;stroke:#008000;" x="709.332741" xlink:href="#mf9e3d522cb" y="454.922053"/>
     <use style="fill:#008000;stroke:#008000;" x="738.458448" xlink:href="#mf9e3d522cb" y="456.236306"/>
     <use style="fill:#008000;stroke:#008000;" x="767.584155" xlink:href="#mf9e3d522cb" y="465.380094"/>
     <use style="fill:#008000;stroke:#008000;" x="796.709862" xlink:href="#mf9e3d522cb" y="33.38"/>
     <use style="fill:#008000;stroke:#008000;" x="825.835568" xlink:href="#mf9e3d522cb" y="431.067253"/>
     <use style="fill:#008000;stroke:#008000;" x="854.961275" xlink:href="#mf9e3d522cb" y="372.740002"/>
     <use style="fill:#008000;stroke:#008000;" x="884.086982" xlink:href="#mf9e3d522cb" y="339.714905"/>
     <use style="fill:#008000;stroke:#008000;" x="913.212689" xlink:href="#mf9e3d522cb" y="302.057008"/>
     <use style="fill:#008000;stroke:#008000;" x="942.338396" xlink:href="#mf9e3d522cb" y="297.222289"/>
     <use style="fill:#008000;stroke:#008000;" x="971.464103" xlink:href="#mf9e3d522cb" y="198.450533"/>
     <use style="fill:#008000;stroke:#008000;" x="1000.589809" xlink:href="#mf9e3d522cb" y="145.526004"/>
     <use style="fill:#008000;stroke:#008000;" x="1029.715516" xlink:href="#mf9e3d522cb" y="62.491818"/>
     <use style="fill:#008000;stroke:#008000;" x="1058.841223" xlink:href="#mf9e3d522cb" y="184.421953"/>
     <use style="fill:#008000;stroke:#008000;" x="1087.96693" xlink:href="#mf9e3d522cb" y="191.719533"/>
    </g>
   </g>
   <g id="patch_3">
    <path d="M 46.965625 509.66 
L 46.965625 10.7 
" style="fill:none;stroke:#000000;stroke-linecap:square;stroke-linejoin:miter;stroke-width:0.8;"/>
   </g>
   <g id="patch_4">
    <path d="M 1162.965625 509.66 
L 1162.965625 10.7 
" style="fill:none;stroke:#000000;stroke-linecap:square;stroke-linejoin:miter;stroke-width:0.8;"/>
   </g>
   <g id="patch_5">
    <path d="M 46.965625 509.66 
L 1162.965625 509.66 
" style="fill:none;stroke:#000000;stroke-linecap:square;stroke-linejoin:miter;stroke-width:0.8;"/>
   </g>
   <g id="patch_6">
    <path d="M 46.965625 10.7 
L 1162.965625 10.7 
" style="fill:none;stroke:#000000;stroke-linecap:square;stroke-linejoin:miter;stroke-width:0.8;"/>
   </g>
   <g id="legend_1">
    <g id="patch_7">
     <path d="M 53.965625 62.734375 
L 201.740625 62.734375 
Q 203.740625 62.734375 203.740625 60.734375 
L 203.740625 17.7 
Q 203.740625 15.7 201.740625 15.7 
L 53.965625 15.7 
Q 51.965625 15.7 51.965625 17.7 
L 51.965625 60.734375 
Q 51.965625 62.734375 53.965625 62.734375 
z
" style="fill:#ffffff;opacity:0.8;stroke:#cccccc;stroke-linejoin:miter;"/>
    </g>
    <g id="line2d_16">
     <path d="M 55.965625 23.798437 
L 75.965625 23.798437 
" style="fill:none;stroke:#008000;stroke-dasharray:5.55,2.4;stroke-dashoffset:0;stroke-width:1.5;"/>
    </g>
    <g id="line2d_17"/>
    <g id="text_15">
     <!-- Predicted -->
     <defs>
      <path d="M 19.671875 64.796875 
L 19.671875 37.40625 
L 32.078125 37.40625 
Q 38.96875 37.40625 42.71875 40.96875 
Q 46.484375 44.53125 46.484375 51.125 
Q 46.484375 57.671875 42.71875 61.234375 
Q 38.96875 64.796875 32.078125 64.796875 
z
M 9.8125 72.90625 
L 32.078125 72.90625 
Q 44.34375 72.90625 50.609375 67.359375 
Q 56.890625 61.8125 56.890625 51.125 
Q 56.890625 40.328125 50.609375 34.8125 
Q 44.34375 29.296875 32.078125 29.296875 
L 19.671875 29.296875 
L 19.671875 0 
L 9.8125 0 
z
" id="DejaVuSans-50"/>
      <path d="M 41.109375 46.296875 
Q 39.59375 47.171875 37.8125 47.578125 
Q 36.03125 48 33.890625 48 
Q 26.265625 48 22.1875 43.046875 
Q 18.109375 38.09375 18.109375 28.8125 
L 18.109375 0 
L 9.078125 0 
L 9.078125 54.6875 
L 18.109375 54.6875 
L 18.109375 46.1875 
Q 20.953125 51.171875 25.484375 53.578125 
Q 30.03125 56 36.53125 56 
Q 37.453125 56 38.578125 55.875 
Q 39.703125 55.765625 41.0625 55.515625 
z
" id="DejaVuSans-72"/>
      <path d="M 45.40625 46.390625 
L 45.40625 75.984375 
L 54.390625 75.984375 
L 54.390625 0 
L 45.40625 0 
L 45.40625 8.203125 
Q 42.578125 3.328125 38.25 0.953125 
Q 33.9375 -1.421875 27.875 -1.421875 
Q 17.96875 -1.421875 11.734375 6.484375 
Q 5.515625 14.40625 5.515625 27.296875 
Q 5.515625 40.1875 11.734375 48.09375 
Q 17.96875 56 27.875 56 
Q 33.9375 56 38.25 53.625 
Q 42.578125 51.265625 45.40625 46.390625 
z
M 14.796875 27.296875 
Q 14.796875 17.390625 18.875 11.75 
Q 22.953125 6.109375 30.078125 6.109375 
Q 37.203125 6.109375 41.296875 11.75 
Q 45.40625 17.390625 45.40625 27.296875 
Q 45.40625 37.203125 41.296875 42.84375 
Q 37.203125 48.484375 30.078125 48.484375 
Q 22.953125 48.484375 18.875 42.84375 
Q 14.796875 37.203125 14.796875 27.296875 
z
" id="DejaVuSans-64"/>
      <path d="M 48.78125 52.59375 
L 48.78125 44.1875 
Q 44.96875 46.296875 41.140625 47.34375 
Q 37.3125 48.390625 33.40625 48.390625 
Q 24.65625 48.390625 19.8125 42.84375 
Q 14.984375 37.3125 14.984375 27.296875 
Q 14.984375 17.28125 19.8125 11.734375 
Q 24.65625 6.203125 33.40625 6.203125 
Q 37.3125 6.203125 41.140625 7.25 
Q 44.96875 8.296875 48.78125 10.40625 
L 48.78125 2.09375 
Q 45.015625 0.34375 40.984375 -0.53125 
Q 36.96875 -1.421875 32.421875 -1.421875 
Q 20.0625 -1.421875 12.78125 6.34375 
Q 5.515625 14.109375 5.515625 27.296875 
Q 5.515625 40.671875 12.859375 48.328125 
Q 20.21875 56 33.015625 56 
Q 37.15625 56 41.109375 55.140625 
Q 45.0625 54.296875 48.78125 52.59375 
z
" id="DejaVuSans-63"/>
      <path d="M 18.3125 70.21875 
L 18.3125 54.6875 
L 36.8125 54.6875 
L 36.8125 47.703125 
L 18.3125 47.703125 
L 18.3125 18.015625 
Q 18.3125 11.328125 20.140625 9.421875 
Q 21.96875 7.515625 27.59375 7.515625 
L 36.8125 7.515625 
L 36.8125 0 
L 27.59375 0 
Q 17.1875 0 13.234375 3.875 
Q 9.28125 7.765625 9.28125 18.015625 
L 9.28125 47.703125 
L 2.6875 47.703125 
L 2.6875 54.6875 
L 9.28125 54.6875 
L 9.28125 70.21875 
z
" id="DejaVuSans-74"/>
     </defs>
     <g transform="translate(83.965625 27.298437)scale(0.1 -0.1)">
      <use xlink:href="#DejaVuSans-50"/>
      <use x="60.287109" xlink:href="#DejaVuSans-72"/>
      <use x="101.369141" xlink:href="#DejaVuSans-65"/>
      <use x="162.892578" xlink:href="#DejaVuSans-64"/>
      <use x="226.369141" xlink:href="#DejaVuSans-69"/>
      <use x="254.152344" xlink:href="#DejaVuSans-63"/>
      <use x="309.132812" xlink:href="#DejaVuSans-74"/>
      <use x="348.341797" xlink:href="#DejaVuSans-65"/>
      <use x="409.865234" xlink:href="#DejaVuSans-64"/>
     </g>
    </g>
    <g id="line2d_18">
     <path d="M 55.965625 38.476562 
L 75.965625 38.476562 
" style="fill:none;stroke:#ff7f0e;stroke-linecap:square;stroke-width:1.5;"/>
    </g>
    <g id="line2d_19"/>
    <g id="text_16">
     <!-- Real Data -->
     <defs>
      <path d="M 34.28125 27.484375 
Q 23.390625 27.484375 19.1875 25 
Q 14.984375 22.515625 14.984375 16.5 
Q 14.984375 11.71875 18.140625 8.90625 
Q 21.296875 6.109375 26.703125 6.109375 
Q 34.1875 6.109375 38.703125 11.40625 
Q 43.21875 16.703125 43.21875 25.484375 
L 43.21875 27.484375 
z
M 52.203125 31.203125 
L 52.203125 0 
L 43.21875 0 
L 43.21875 8.296875 
Q 40.140625 3.328125 35.546875 0.953125 
Q 30.953125 -1.421875 24.3125 -1.421875 
Q 15.921875 -1.421875 10.953125 3.296875 
Q 6 8.015625 6 15.921875 
Q 6 25.140625 12.171875 29.828125 
Q 18.359375 34.515625 30.609375 34.515625 
L 43.21875 34.515625 
L 43.21875 35.40625 
Q 43.21875 41.609375 39.140625 45 
Q 35.0625 48.390625 27.6875 48.390625 
Q 23 48.390625 18.546875 47.265625 
Q 14.109375 46.140625 10.015625 43.890625 
L 10.015625 52.203125 
Q 14.9375 54.109375 19.578125 55.046875 
Q 24.21875 56 28.609375 56 
Q 40.484375 56 46.34375 49.84375 
Q 52.203125 43.703125 52.203125 31.203125 
z
" id="DejaVuSans-61"/>
      <path d="M 9.421875 75.984375 
L 18.40625 75.984375 
L 18.40625 0 
L 9.421875 0 
z
" id="DejaVuSans-6c"/>
      <path id="DejaVuSans-20"/>
      <path d="M 19.671875 64.796875 
L 19.671875 8.109375 
L 31.59375 8.109375 
Q 46.6875 8.109375 53.6875 14.9375 
Q 60.6875 21.78125 60.6875 36.53125 
Q 60.6875 51.171875 53.6875 57.984375 
Q 46.6875 64.796875 31.59375 64.796875 
z
M 9.8125 72.90625 
L 30.078125 72.90625 
Q 51.265625 72.90625 61.171875 64.09375 
Q 71.09375 55.28125 71.09375 36.53125 
Q 71.09375 17.671875 61.125 8.828125 
Q 51.171875 0 30.078125 0 
L 9.8125 0 
z
" id="DejaVuSans-44"/>
     </defs>
     <g transform="translate(83.965625 41.976562)scale(0.1 -0.1)">
      <use xlink:href="#DejaVuSans-52"/>
      <use x="69.419922" xlink:href="#DejaVuSans-65"/>
      <use x="130.943359" xlink:href="#DejaVuSans-61"/>
      <use x="192.222656" xlink:href="#DejaVuSans-6c"/>
      <use x="220.005859" xlink:href="#DejaVuSans-20"/>
      <use x="251.792969" xlink:href="#DejaVuSans-44"/>
      <use x="328.794922" xlink:href="#DejaVuSans-61"/>
      <use x="390.074219" xlink:href="#DejaVuSans-74"/>
      <use x="429.283203" xlink:href="#DejaVuSans-61"/>
     </g>
    </g>
    <g id="line2d_20"/>
    <g id="line2d_21">
     <g>
      <use style="fill:#008000;stroke:#008000;" x="65.965625" xlink:href="#mf9e3d522cb" y="53.154688"/>
     </g>
    </g>
    <g id="text_17">
     <!-- Start Point for Forecast -->
     <defs>
      <path d="M 53.515625 70.515625 
L 53.515625 60.890625 
Q 47.90625 63.578125 42.921875 64.890625 
Q 37.9375 66.21875 33.296875 66.21875 
Q 25.25 66.21875 20.875 63.09375 
Q 16.5 59.96875 16.5 54.203125 
Q 16.5 49.359375 19.40625 46.890625 
Q 22.3125 44.4375 30.421875 42.921875 
L 36.375 41.703125 
Q 47.40625 39.59375 52.65625 34.296875 
Q 57.90625 29 57.90625 20.125 
Q 57.90625 9.515625 50.796875 4.046875 
Q 43.703125 -1.421875 29.984375 -1.421875 
Q 24.8125 -1.421875 18.96875 -0.25 
Q 13.140625 0.921875 6.890625 3.21875 
L 6.890625 13.375 
Q 12.890625 10.015625 18.65625 8.296875 
Q 24.421875 6.59375 29.984375 6.59375 
Q 38.421875 6.59375 43.015625 9.90625 
Q 47.609375 13.234375 47.609375 19.390625 
Q 47.609375 24.75 44.3125 27.78125 
Q 41.015625 30.8125 33.5 32.328125 
L 27.484375 33.5 
Q 16.453125 35.6875 11.515625 40.375 
Q 6.59375 45.0625 6.59375 53.421875 
Q 6.59375 63.09375 13.40625 68.65625 
Q 20.21875 74.21875 32.171875 74.21875 
Q 37.3125 74.21875 42.625 73.28125 
Q 47.953125 72.359375 53.515625 70.515625 
z
" id="DejaVuSans-53"/>
      <path d="M 30.609375 48.390625 
Q 23.390625 48.390625 19.1875 42.75 
Q 14.984375 37.109375 14.984375 27.296875 
Q 14.984375 17.484375 19.15625 11.84375 
Q 23.34375 6.203125 30.609375 6.203125 
Q 37.796875 6.203125 41.984375 11.859375 
Q 46.1875 17.53125 46.1875 27.296875 
Q 46.1875 37.015625 41.984375 42.703125 
Q 37.796875 48.390625 30.609375 48.390625 
z
M 30.609375 56 
Q 42.328125 56 49.015625 48.375 
Q 55.71875 40.765625 55.71875 27.296875 
Q 55.71875 13.875 49.015625 6.21875 
Q 42.328125 -1.421875 30.609375 -1.421875 
Q 18.84375 -1.421875 12.171875 6.21875 
Q 5.515625 13.875 5.515625 27.296875 
Q 5.515625 40.765625 12.171875 48.375 
Q 18.84375 56 30.609375 56 
z
" id="DejaVuSans-6f"/>
      <path d="M 54.890625 33.015625 
L 54.890625 0 
L 45.90625 0 
L 45.90625 32.71875 
Q 45.90625 40.484375 42.875 44.328125 
Q 39.84375 48.1875 33.796875 48.1875 
Q 26.515625 48.1875 22.3125 43.546875 
Q 18.109375 38.921875 18.109375 30.90625 
L 18.109375 0 
L 9.078125 0 
L 9.078125 54.6875 
L 18.109375 54.6875 
L 18.109375 46.1875 
Q 21.34375 51.125 25.703125 53.5625 
Q 30.078125 56 35.796875 56 
Q 45.21875 56 50.046875 50.171875 
Q 54.890625 44.34375 54.890625 33.015625 
z
" id="DejaVuSans-6e"/>
      <path d="M 9.8125 72.90625 
L 51.703125 72.90625 
L 51.703125 64.59375 
L 19.671875 64.59375 
L 19.671875 43.109375 
L 48.578125 43.109375 
L 48.578125 34.8125 
L 19.671875 34.8125 
L 19.671875 0 
L 9.8125 0 
z
" id="DejaVuSans-46"/>
     </defs>
     <g transform="translate(83.965625 56.654688)scale(0.1 -0.1)">
      <use xlink:href="#DejaVuSans-53"/>
      <use x="63.476562" xlink:href="#DejaVuSans-74"/>
      <use x="102.685547" xlink:href="#DejaVuSans-61"/>
      <use x="163.964844" xlink:href="#DejaVuSans-72"/>
      <use x="205.078125" xlink:href="#DejaVuSans-74"/>
      <use x="244.287109" xlink:href="#DejaVuSans-20"/>
      <use x="276.074219" xlink:href="#DejaVuSans-50"/>
      <use x="336.330078" xlink:href="#DejaVuSans-6f"/>
      <use x="397.511719" xlink:href="#DejaVuSans-69"/>
      <use x="425.294922" xlink:href="#DejaVuSans-6e"/>
      <use x="488.673828" xlink:href="#DejaVuSans-74"/>
      <use x="527.882812" xlink:href="#DejaVuSans-20"/>
      <use x="559.669922" xlink:href="#DejaVuSans-66"/>
      <use x="594.875" xlink:href="#DejaVuSans-6f"/>
      <use x="656.056641" xlink:href="#DejaVuSans-72"/>
      <use x="697.169922" xlink:href="#DejaVuSans-20"/>
      <use x="728.957031" xlink:href="#DejaVuSans-46"/>
      <use x="786.429688" xlink:href="#DejaVuSans-6f"/>
      <use x="847.611328" xlink:href="#DejaVuSans-72"/>
      <use x="888.693359" xlink:href="#DejaVuSans-65"/>
      <use x="950.216797" xlink:href="#DejaVuSans-63"/>
      <use x="1005.197266" xlink:href="#DejaVuSans-61"/>
      <use x="1066.476562" xlink:href="#DejaVuSans-73"/>
      <use x="1118.576172" xlink:href="#DejaVuSans-74"/>
     </g>
    </g>
   </g>
  </g>
  <g id="axes_2">
   <g id="patch_8">
    <path d="M 46.965625 645.74 
L 1164.405625 645.74 
L 1164.405625 516.14 
L 46.965625 516.14 
z
" style="fill:none;"/>
   </g>
   <g id="matplotlib.axis_3">
    <g id="xtick_6">
     <g id="line2d_22">
      <g>
       <use style="stroke:#000000;stroke-width:0.8;" x="97.758352" xlink:href="#medd33bc429" y="645.74"/>
      </g>
     </g>
     <g id="text_18">
      <!-- 0 -->
      <g transform="translate(94.577102 660.338437)scale(0.1 -0.1)">
       <use xlink:href="#DejaVuSans-30"/>
      </g>
     </g>
    </g>
    <g id="xtick_7">
     <g id="line2d_23">
      <g>
       <use style="stroke:#000000;stroke-width:0.8;" x="222.250331" xlink:href="#medd33bc429" y="645.74"/>
      </g>
     </g>
     <g id="text_19">
      <!-- 25 -->
      <g transform="translate(215.887831 660.338437)scale(0.1 -0.1)">
       <use xlink:href="#DejaVuSans-32"/>
       <use x="63.623047" xlink:href="#DejaVuSans-35"/>
      </g>
     </g>
    </g>
    <g id="xtick_8">
     <g id="line2d_24">
      <g>
       <use style="stroke:#000000;stroke-width:0.8;" x="346.742309" xlink:href="#medd33bc429" y="645.74"/>
      </g>
     </g>
     <g id="text_20">
      <!-- 50 -->
      <g transform="translate(340.379809 660.338437)scale(0.1 -0.1)">
       <use xlink:href="#DejaVuSans-35"/>
       <use x="63.623047" xlink:href="#DejaVuSans-30"/>
      </g>
     </g>
    </g>
    <g id="xtick_9">
     <g id="line2d_25">
      <g>
       <use style="stroke:#000000;stroke-width:0.8;" x="471.234288" xlink:href="#medd33bc429" y="645.74"/>
      </g>
     </g>
     <g id="text_21">
      <!-- 75 -->
      <defs>
       <path d="M 8.203125 72.90625 
L 55.078125 72.90625 
L 55.078125 68.703125 
L 28.609375 0 
L 18.3125 0 
L 43.21875 64.59375 
L 8.203125 64.59375 
z
" id="DejaVuSans-37"/>
      </defs>
      <g transform="translate(464.871788 660.338437)scale(0.1 -0.1)">
       <use xlink:href="#DejaVuSans-37"/>
       <use x="63.623047" xlink:href="#DejaVuSans-35"/>
      </g>
     </g>
    </g>
    <g id="xtick_10">
     <g id="line2d_26">
      <g>
       <use style="stroke:#000000;stroke-width:0.8;" x="595.726267" xlink:href="#medd33bc429" y="645.74"/>
      </g>
     </g>
     <g id="text_22">
      <!-- 100 -->
      <g transform="translate(586.182517 660.338437)scale(0.1 -0.1)">
       <use xlink:href="#DejaVuSans-31"/>
       <use x="63.623047" xlink:href="#DejaVuSans-30"/>
       <use x="127.246094" xlink:href="#DejaVuSans-30"/>
      </g>
     </g>
    </g>
    <g id="xtick_11">
     <g id="line2d_27">
      <g>
       <use style="stroke:#000000;stroke-width:0.8;" x="720.218245" xlink:href="#medd33bc429" y="645.74"/>
      </g>
     </g>
     <g id="text_23">
      <!-- 125 -->
      <g transform="translate(710.674495 660.338437)scale(0.1 -0.1)">
       <use xlink:href="#DejaVuSans-31"/>
       <use x="63.623047" xlink:href="#DejaVuSans-32"/>
       <use x="127.246094" xlink:href="#DejaVuSans-35"/>
      </g>
     </g>
    </g>
    <g id="xtick_12">
     <g id="line2d_28">
      <g>
       <use style="stroke:#000000;stroke-width:0.8;" x="844.710224" xlink:href="#medd33bc429" y="645.74"/>
      </g>
     </g>
     <g id="text_24">
      <!-- 150 -->
      <g transform="translate(835.166474 660.338437)scale(0.1 -0.1)">
       <use xlink:href="#DejaVuSans-31"/>
       <use x="63.623047" xlink:href="#DejaVuSans-35"/>
       <use x="127.246094" xlink:href="#DejaVuSans-30"/>
      </g>
     </g>
    </g>
    <g id="xtick_13">
     <g id="line2d_29">
      <g>
       <use style="stroke:#000000;stroke-width:0.8;" x="969.202203" xlink:href="#medd33bc429" y="645.74"/>
      </g>
     </g>
     <g id="text_25">
      <!-- 175 -->
      <g transform="translate(959.658453 660.338437)scale(0.1 -0.1)">
       <use xlink:href="#DejaVuSans-31"/>
       <use x="63.623047" xlink:href="#DejaVuSans-37"/>
       <use x="127.246094" xlink:href="#DejaVuSans-35"/>
      </g>
     </g>
    </g>
    <g id="xtick_14">
     <g id="line2d_30">
      <g>
       <use style="stroke:#000000;stroke-width:0.8;" x="1093.694181" xlink:href="#medd33bc429" y="645.74"/>
      </g>
     </g>
     <g id="text_26">
      <!-- 200 -->
      <g transform="translate(1084.150431 660.338437)scale(0.1 -0.1)">
       <use xlink:href="#DejaVuSans-32"/>
       <use x="63.623047" xlink:href="#DejaVuSans-30"/>
       <use x="127.246094" xlink:href="#DejaVuSans-30"/>
      </g>
     </g>
    </g>
   </g>
   <g id="matplotlib.axis_4">
    <g id="ytick_8">
     <g id="line2d_31">
      <g>
       <use style="stroke:#000000;stroke-width:0.8;" x="46.965625" xlink:href="#mf92a91da03" y="642.731253"/>
      </g>
     </g>
     <g id="text_27">
      <!-- 0 -->
      <g transform="translate(33.603125 646.530471)scale(0.1 -0.1)">
       <use xlink:href="#DejaVuSans-30"/>
      </g>
     </g>
    </g>
    <g id="ytick_9">
     <g id="line2d_32">
      <g>
       <use style="stroke:#000000;stroke-width:0.8;" x="46.965625" xlink:href="#mf92a91da03" y="612.519913"/>
      </g>
     </g>
     <g id="text_28">
      <!-- 10 -->
      <g transform="translate(27.240625 616.319132)scale(0.1 -0.1)">
       <use xlink:href="#DejaVuSans-31"/>
       <use x="63.623047" xlink:href="#DejaVuSans-30"/>
      </g>
     </g>
    </g>
    <g id="ytick_10">
     <g id="line2d_33">
      <g>
       <use style="stroke:#000000;stroke-width:0.8;" x="46.965625" xlink:href="#mf92a91da03" y="582.308574"/>
      </g>
     </g>
     <g id="text_29">
      <!-- 20 -->
      <g transform="translate(27.240625 586.107792)scale(0.1 -0.1)">
       <use xlink:href="#DejaVuSans-32"/>
       <use x="63.623047" xlink:href="#DejaVuSans-30"/>
      </g>
     </g>
    </g>
    <g id="ytick_11">
     <g id="line2d_34">
      <g>
       <use style="stroke:#000000;stroke-width:0.8;" x="46.965625" xlink:href="#mf92a91da03" y="552.097234"/>
      </g>
     </g>
     <g id="text_30">
      <!-- 30 -->
      <g transform="translate(27.240625 555.896453)scale(0.1 -0.1)">
       <use xlink:href="#DejaVuSans-33"/>
       <use x="63.623047" xlink:href="#DejaVuSans-30"/>
      </g>
     </g>
    </g>
    <g id="ytick_12">
     <g id="line2d_35">
      <g>
       <use style="stroke:#000000;stroke-width:0.8;" x="46.965625" xlink:href="#mf92a91da03" y="521.885895"/>
      </g>
     </g>
     <g id="text_31">
      <!-- 40 -->
      <g transform="translate(27.240625 525.685113)scale(0.1 -0.1)">
       <use xlink:href="#DejaVuSans-34"/>
       <use x="63.623047" xlink:href="#DejaVuSans-30"/>
      </g>
     </g>
    </g>
    <g id="text_32">
     <!-- Temperature -->
     <defs>
      <path d="M 18.109375 8.203125 
L 18.109375 -20.796875 
L 9.078125 -20.796875 
L 9.078125 54.6875 
L 18.109375 54.6875 
L 18.109375 46.390625 
Q 20.953125 51.265625 25.265625 53.625 
Q 29.59375 56 35.59375 56 
Q 45.5625 56 51.78125 48.09375 
Q 58.015625 40.1875 58.015625 27.296875 
Q 58.015625 14.40625 51.78125 6.484375 
Q 45.5625 -1.421875 35.59375 -1.421875 
Q 29.59375 -1.421875 25.265625 0.953125 
Q 20.953125 3.328125 18.109375 8.203125 
z
M 48.6875 27.296875 
Q 48.6875 37.203125 44.609375 42.84375 
Q 40.53125 48.484375 33.40625 48.484375 
Q 26.265625 48.484375 22.1875 42.84375 
Q 18.109375 37.203125 18.109375 27.296875 
Q 18.109375 17.390625 22.1875 11.75 
Q 26.265625 6.109375 33.40625 6.109375 
Q 40.53125 6.109375 44.609375 11.75 
Q 48.6875 17.390625 48.6875 27.296875 
z
" id="DejaVuSans-70"/>
     </defs>
     <g style="fill:#0000ff;" transform="translate(21.160938 613.557187)rotate(-90)scale(0.1 -0.1)">
      <use xlink:href="#DejaVuSans-54"/>
      <use x="60.818359" xlink:href="#DejaVuSans-65"/>
      <use x="122.341797" xlink:href="#DejaVuSans-6d"/>
      <use x="219.753906" xlink:href="#DejaVuSans-70"/>
      <use x="283.230469" xlink:href="#DejaVuSans-65"/>
      <use x="344.753906" xlink:href="#DejaVuSans-72"/>
      <use x="385.867188" xlink:href="#DejaVuSans-61"/>
      <use x="447.146484" xlink:href="#DejaVuSans-74"/>
      <use x="486.355469" xlink:href="#DejaVuSans-75"/>
      <use x="549.734375" xlink:href="#DejaVuSans-72"/>
      <use x="590.816406" xlink:href="#DejaVuSans-65"/>
     </g>
    </g>
   </g>
   <g id="line2d_36">
    <path clip-path="url(#p96ef00e7e4)" d="M 97.758352 539.564664 
L 102.738031 531.465608 
L 107.717711 539.940795 
L 112.69739 549.502986 
L 117.677069 568.445798 
L 122.656748 584.71249 
L 127.636427 593.76139 
L 132.616106 590.39343 
L 142.575465 558.712913 
L 147.555144 549.519905 
L 152.534823 546.418409 
L 157.514502 538.093976 
L 162.494181 541.899094 
L 167.47386 547.140762 
L 172.453539 556.132563 
L 177.433219 566.702906 
L 182.412898 579.21312 
L 187.392577 582.88984 
L 192.372256 585.667773 
L 197.351935 564.61349 
L 202.331614 565.270889 
L 207.311293 548.970361 
L 212.290973 546.26705 
L 217.270652 535.602447 
L 222.250331 540.762846 
L 227.23001 538.825091 
L 232.209689 552.993605 
L 237.189368 568.91347 
L 242.169047 588.036039 
L 247.148727 592.610338 
L 252.128406 581.452384 
L 257.108085 573.270851 
L 262.087764 565.936747 
L 267.067443 548.517795 
L 272.047122 547.240157 
L 277.026801 525.990709 
L 282.006481 532.265605 
L 286.98616 544.513584 
L 291.965839 552.593606 
L 296.945518 570.341862 
L 301.925197 586.203722 
L 306.904876 585.323665 
L 311.884555 578.183215 
L 316.864235 579.578677 
L 321.843914 562.260329 
L 326.823593 544.471892 
L 331.803272 538.023886 
L 336.782951 526.826959 
L 341.76263 535.54142 
L 346.742309 542.205135 
L 351.721989 543.546217 
L 356.701668 566.57904 
L 361.681347 587.25417 
L 366.661026 591.814572 
L 371.640705 578.003458 
L 376.620384 575.407397 
L 381.600064 565.961218 
L 386.579743 556.151596 
L 391.559422 545.624757 
L 396.539101 544.959805 
L 401.51878 544.819625 
L 406.498459 550.120808 
L 411.478138 550.283647 
L 416.457818 573.721 
L 421.437497 583.07141 
L 426.417176 594.658667 
L 431.396855 587.513685 
L 436.376534 572.093516 
L 441.356213 567.40109 
L 446.335892 550.90298 
L 451.315572 544.874307 
L 456.295251 536.169212 
L 461.27493 536.755916 
L 466.254609 543.333227 
L 471.234288 555.254923 
L 476.213967 569.372682 
L 481.193646 587.293747 
L 486.173326 592.744779 
L 491.153005 588.747516 
L 496.132684 573.077197 
L 501.112363 558.735572 
L 511.071721 540.385204 
L 516.0514 537.994581 
L 521.03108 532.245363 
L 526.010759 540.777952 
L 530.990438 555.331962 
L 535.970117 574.074171 
L 540.949796 584.271707 
L 545.929475 584.835148 
L 550.909154 581.745132 
L 555.888834 573.296833 
L 560.868513 559.262458 
L 565.848192 550.16824 
L 570.827871 535.117555 
L 575.80755 538.061046 
L 580.787229 534.257438 
L 585.766908 541.770092 
L 590.746588 552.393003 
L 595.726267 569.310447 
L 600.705946 587.465649 
L 605.685625 591.737533 
L 610.665304 588.897667 
L 615.644983 567.824955 
L 620.624662 557.19147 
L 625.604342 544.722042 
L 630.584021 539.492459 
L 635.5637 533.57013 
L 640.543379 536.731143 
L 645.523058 539.076751 
L 650.502737 553.415053 
L 655.482416 567.160004 
L 660.462096 584.916719 
L 670.421454 582.72549 
L 675.401133 573.204991 
L 680.380812 561.569395 
L 685.360491 552.95584 
L 690.34017 538.317842 
L 695.31985 535.71151 
L 700.299529 536.644134 
L 705.279208 539.363155 
L 715.238566 571.575391 
L 720.218245 575.800749 
L 725.197924 579.826108 
L 730.177604 568.204108 
L 735.157283 561.892657 
L 740.136962 556.346459 
L 745.116641 546.89182 
L 750.09632 534.605473 
L 755.075999 535.656827 
L 760.055678 534.147771 
L 765.035358 540.095175 
L 770.015037 550.603586 
L 774.994716 562.025285 
L 779.974395 576.484734 
L 784.954074 583.340593 
L 789.933753 585.090736 
L 794.913432 564.974516 
L 799.893112 553.924114 
L 804.872791 540.467077 
L 809.85247 535.093386 
L 814.832149 522.912174 
L 819.811828 529.704589 
L 824.791507 536.114227 
L 829.771186 552.600555 
L 834.750866 566.248528 
L 839.730545 584.911583 
L 844.710224 590.029384 
L 849.689903 589.658993 
L 854.669582 577.332464 
L 859.649261 551.003584 
L 864.628941 541.340185 
L 869.60862 540.001822 
L 874.588299 533.7088 
L 879.567978 534.767406 
L 884.547657 538.777357 
L 889.527336 546.406324 
L 894.507015 563.764551 
L 899.486695 585.513393 
L 904.466374 587.497371 
L 909.446053 582.325794 
L 914.425732 563.315309 
L 919.405411 555.968515 
L 924.38509 541.911481 
L 929.364769 541.985197 
L 934.344449 537.307273 
L 939.324128 538.56195 
L 944.303807 538.606361 
L 949.283486 550.377907 
L 959.242844 587.904016 
L 964.222523 583.120352 
L 969.202203 579.899521 
L 974.181882 580.537283 
L 979.161561 561.957913 
L 984.14124 551.050713 
L 989.120919 540.835655 
L 994.100598 522.719728 
L 999.080277 522.030909 
L 1004.059957 540.84351 
L 1009.039636 545.309653 
L 1014.019315 565.050648 
L 1018.998994 581.068398 
L 1023.978673 587.797068 
L 1028.958352 582.88561 
L 1033.938031 576.711017 
L 1038.917711 564.804124 
L 1043.89739 551.78213 
L 1048.877069 543.968571 
L 1053.856748 539.836264 
L 1058.836427 539.664966 
L 1063.816106 545.840164 
L 1068.795785 553.079405 
L 1073.775465 575.293803 
L 1078.755144 588.92244 
L 1083.734823 585.901004 
L 1088.714502 580.357827 
L 1093.694181 577.864486 
L 1098.67386 557.061561 
L 1103.653539 553.43892 
L 1108.633219 550.351623 
L 1113.612898 545.69243 
L 1113.612898 545.69243 
" style="fill:none;stroke:#ff0000;stroke-linecap:square;stroke-width:1.5;"/>
   </g>
   <g id="line2d_37">
    <path clip-path="url(#p96ef00e7e4)" d="M 97.758352 557.406273 
L 102.738031 547.858281 
L 107.717711 555.425013 
L 112.69739 565.862729 
L 117.677069 585.220947 
L 122.656748 601.564375 
L 127.636427 608.267667 
L 132.616106 603.757114 
L 137.595785 592.770156 
L 142.575465 578.133064 
L 147.555144 565.880554 
L 152.534823 562.650055 
L 157.514502 556.170629 
L 162.494181 558.862459 
L 167.47386 563.2712 
L 172.453539 573.029765 
L 177.433219 584.54814 
L 182.412898 596.943249 
L 187.392577 600.447462 
L 192.372256 601.331748 
L 197.351935 583.674428 
L 202.331614 584.779559 
L 207.311293 568.048519 
L 212.290973 562.911685 
L 217.270652 553.970035 
L 222.250331 555.964286 
L 227.23001 556.894493 
L 232.209689 569.458785 
L 237.189368 583.884095 
L 242.169047 603.018145 
L 247.148727 608.001505 
L 252.128406 598.205478 
L 257.108085 589.243285 
L 262.087764 580.975649 
L 267.067443 567.838551 
L 272.047122 562.641294 
L 277.026801 546.132609 
L 282.006481 547.701484 
L 286.98616 557.274854 
L 291.965839 572.026446 
L 296.945518 585.117926 
L 301.925197 600.882203 
L 306.904876 599.500941 
L 311.884555 602.061654 
L 316.864235 596.403976 
L 321.843914 577.661163 
L 326.823593 566.45185 
L 331.803272 554.287254 
L 336.782951 548.520514 
L 341.76263 551.182133 
L 346.742309 555.582414 
L 351.721989 562.218033 
L 356.701668 583.792857 
L 361.681347 599.070731 
L 366.661026 604.673726 
L 371.640705 595.723315 
L 376.620384 588.301597 
L 381.600064 575.796519 
L 386.579743 571.446389 
L 391.559422 561.890844 
L 396.539101 559.295086 
L 401.51878 555.024411 
L 406.498459 564.828897 
L 411.478138 567.500788 
L 416.457818 588.102806 
L 421.437497 598.216959 
L 426.417176 607.375526 
L 431.396855 602.662859 
L 436.376534 589.271683 
L 441.356213 583.915213 
L 446.335892 568.793229 
L 456.295251 552.772458 
L 461.27493 554.236801 
L 466.254609 559.243122 
L 471.234288 570.1615 
L 476.213967 586.890728 
L 481.193646 602.150475 
L 486.173326 606.953172 
L 491.153005 600.998819 
L 496.132684 590.877718 
L 501.112363 577.442131 
L 511.071721 558.743729 
L 516.0514 555.373654 
L 521.03108 550.092712 
L 526.010759 558.738895 
L 530.990438 572.453635 
L 535.970117 590.816691 
L 540.949796 600.619364 
L 545.929475 601.335071 
L 550.909154 597.896719 
L 555.888834 591.84146 
L 560.868513 578.114938 
L 565.848192 569.23945 
L 570.827871 554.696316 
L 575.80755 555.843138 
L 580.787229 552.725328 
L 585.766908 559.714419 
L 590.746588 570.759383 
L 595.726267 588.159604 
L 600.705946 602.933251 
L 605.685625 606.600303 
L 610.665304 605.191246 
L 615.644983 588.013683 
L 620.624662 577.021589 
L 625.604342 563.40413 
L 630.584021 557.537692 
L 635.5637 551.860377 
L 645.523058 556.682711 
L 650.502737 570.014069 
L 655.482416 584.933939 
L 660.462096 600.570422 
L 665.441775 600.473746 
L 670.421454 599.654414 
L 675.401133 591.242369 
L 680.380812 580.420063 
L 685.360491 570.692616 
L 690.34017 556.665793 
L 695.31985 553.039828 
L 700.299529 553.325023 
L 705.279208 556.815641 
L 710.258887 572.217986 
L 715.238566 590.160803 
L 720.218245 595.445673 
L 725.197924 599.427829 
L 730.177604 589.148119 
L 735.157283 583.834548 
L 740.136962 582.681684 
L 745.116641 566.131912 
L 750.09632 554.352511 
L 755.075999 553.341941 
L 760.055678 552.682126 
L 765.035358 557.579082 
L 770.015037 568.892322 
L 779.974395 596.175276 
L 784.954074 600.904862 
L 789.933753 600.564682 
L 794.913432 586.593448 
L 799.893112 577.078084 
L 804.872791 563.811077 
L 809.85247 558.542823 
L 814.832149 554.236197 
L 819.811828 548.615982 
L 824.791507 555.940721 
L 829.771186 569.055463 
L 834.750866 587.152358 
L 839.730545 603.329624 
L 844.710224 608.458905 
L 849.689903 608.653768 
L 854.669582 595.504887 
L 859.649261 574.067524 
L 864.628941 568.228881 
L 869.60862 556.732862 
L 874.588299 551.140441 
L 879.567978 552.323215 
L 884.547657 557.436182 
L 889.527336 565.166962 
L 894.507015 581.483502 
L 899.486695 600.706675 
L 904.466374 602.96316 
L 909.446053 599.721181 
L 914.425732 582.923374 
L 919.405411 574.281723 
L 924.38509 562.605947 
L 929.364769 559.727712 
L 934.344449 554.112028 
L 939.324128 554.86127 
L 944.303807 554.725319 
L 949.283486 568.29595 
L 954.263165 585.551761 
L 959.242844 601.27344 
L 964.222523 599.978582 
L 969.202203 596.61606 
L 974.181882 594.557761 
L 979.161561 579.476563 
L 984.14124 568.951536 
L 989.120919 559.563967 
L 994.100598 549.440147 
L 999.080277 556.387244 
L 1004.059957 558.390256 
L 1009.039636 562.718937 
L 1014.019315 580.866889 
L 1018.998994 596.368931 
L 1023.978673 606.074928 
L 1028.958352 601.17344 
L 1033.938031 592.148407 
L 1038.917711 581.033353 
L 1043.89739 568.73764 
L 1048.877069 560.212302 
L 1053.856748 557.272135 
L 1058.836427 553.582424 
L 1063.816106 559.637682 
L 1068.795785 567.583869 
L 1073.775465 586.602209 
L 1078.755144 600.395196 
L 1083.734823 601.068003 
L 1088.714502 594.138428 
L 1093.694181 591.262006 
L 1098.67386 573.244265 
L 1103.653539 566.428889 
L 1108.633219 560.064871 
L 1113.612898 557.62168 
L 1113.612898 557.62168 
" style="fill:none;stroke:#008000;stroke-linecap:square;stroke-width:1.5;"/>
   </g>
   <g id="line2d_38">
    <path clip-path="url(#p96ef00e7e4)" d="M 97.758352 574.503474 
L 102.738031 565.218623 
L 107.717711 571.650617 
L 112.69739 583.31008 
L 122.656748 618.292182 
L 127.636427 622.380713 
L 137.595785 612.48366 
L 142.575465 596.033887 
L 147.555144 585.143002 
L 152.534823 582.048454 
L 157.514502 574.620996 
L 162.494181 574.182328 
L 167.47386 578.591068 
L 172.453539 588.259905 
L 177.433219 601.47646 
L 182.412898 613.590996 
L 187.392577 617.840311 
L 192.372256 618.104993 
L 197.351935 603.343823 
L 202.331614 602.373435 
L 207.311293 586.605835 
L 212.290973 582.033046 
L 217.270652 572.990792 
L 222.250331 574.18414 
L 227.23001 573.630669 
L 232.209689 585.603724 
L 237.189368 600.516344 
L 242.169047 617.399498 
L 247.148727 623.819619 
L 252.128406 615.863463 
L 257.108085 605.3704 
L 262.087764 599.102151 
L 267.067443 587.995858 
L 272.047122 580.689548 
L 277.026801 567.131907 
L 282.006481 573.158163 
L 286.98616 573.084448 
L 291.965839 582.999507 
L 296.945518 593.326649 
L 301.925197 615.438329 
L 306.904876 619.353718 
L 311.884555 621.80839 
L 316.864235 611.234119 
L 321.843914 602.504854 
L 326.823593 589.291925 
L 331.803272 581.145437 
L 336.782951 568.912866 
L 341.76263 572.581429 
L 346.742309 573.429461 
L 351.721989 578.561763 
L 356.701668 597.364395 
L 361.681347 611.748013 
L 366.661026 615.533494 
L 371.640705 613.610543 
L 376.620384 606.323567 
L 381.600064 600.899121 
L 386.579743 589.485277 
L 391.559422 580.849064 
L 396.539101 576.37265 
L 401.51878 572.233394 
L 406.498459 579.758737 
L 411.478138 583.19286 
L 416.457818 600.142327 
L 421.437497 611.556171 
L 426.417176 621.69833 
L 431.396855 619.432872 
L 436.376534 604.82297 
L 441.356213 601.664375 
L 446.335892 587.573504 
L 451.315572 577.897416 
L 456.295251 571.62675 
L 461.27493 571.10923 
L 466.254609 575.09048 
L 471.234288 583.672918 
L 476.213967 601.319663 
L 481.193646 615.013195 
L 486.173326 619.846314 
L 491.153005 614.282564 
L 496.132684 607.282475 
L 501.112363 596.121802 
L 506.092042 586.634233 
L 511.071721 577.472342 
L 516.0514 573.169039 
L 521.03108 568.100181 
L 526.010759 576.004071 
L 530.990438 587.649334 
L 535.970117 607.122657 
L 540.949796 615.914701 
L 545.929475 617.17403 
L 550.909154 613.638367 
L 555.888834 609.826874 
L 560.868513 595.432077 
L 565.848192 587.784983 
L 570.827871 575.789873 
L 575.80755 574.302267 
L 580.787229 571.279018 
L 585.766908 577.504669 
L 590.746588 588.142383 
L 595.726267 604.878257 
L 600.705946 617.270586 
L 610.665304 620.867911 
L 615.644983 608.373407 
L 620.624662 598.212125 
L 625.604342 583.333644 
L 630.584021 577.649985 
L 635.5637 571.14488 
L 640.543379 572.094724 
L 645.523058 574.304381 
L 650.502737 586.260821 
L 655.482416 601.765583 
L 660.462096 615.6415 
L 665.441775 615.690352 
L 670.421454 617.450132 
L 675.401133 609.552858 
L 680.380812 599.259854 
L 685.360491 589.929686 
L 690.34017 576.236397 
L 695.31985 572.021613 
L 700.299529 571.612249 
L 705.279208 574.012238 
L 710.258887 588.503107 
L 715.238566 607.116917 
L 720.218245 612.342271 
L 725.197924 616.197811 
L 730.177604 608.748934 
L 735.157283 602.852587 
L 740.136962 593.742961 
L 745.116641 586.379552 
L 750.09632 574.16692 
L 755.075999 571.895329 
L 760.055678 571.385966 
L 765.035358 575.601354 
L 770.015037 586.251153 
L 774.994716 600.793986 
L 779.974395 613.09559 
L 784.954074 618.053694 
L 789.933753 614.960627 
L 794.913432 604.326598 
L 799.893112 600.433263 
L 804.872791 584.181677 
L 809.85247 574.642446 
L 814.832149 568.903198 
L 819.811828 568.625858 
L 824.791507 574.064805 
L 829.771186 584.989528 
L 834.750866 603.151377 
L 839.730545 614.706459 
L 844.710224 621.361896 
L 849.689903 624.743421 
L 854.669582 613.679213 
L 859.649261 596.50881 
L 864.628941 588.5593 
L 869.60862 576.488359 
L 874.588299 569.997755 
L 879.567978 569.853345 
L 884.547657 575.832169 
L 889.527336 583.867177 
L 894.507015 596.884639 
L 899.486695 615.130807 
L 904.466374 619.937341 
L 909.446053 618.92085 
L 914.425732 603.700015 
L 919.405411 594.513955 
L 924.38509 582.930625 
L 929.364769 579.83789 
L 934.344449 572.912243 
L 939.324128 571.114064 
L 944.303807 572.805597 
L 949.283486 587.057494 
L 954.263165 602.549265 
L 959.242844 614.361385 
L 964.222523 616.350318 
L 969.202203 610.889407 
L 974.181882 608.576125 
L 979.161561 598.796412 
L 984.14124 587.390423 
L 989.120919 577.831857 
L 994.100598 563.598691 
L 999.080277 571.606811 
L 1004.059957 573.922812 
L 1009.039636 579.532152 
L 1014.019315 596.069235 
L 1018.998994 611.772183 
L 1023.978673 624.396988 
L 1028.958352 618.670942 
L 1033.938031 607.244409 
L 1038.917711 598.697017 
L 1043.89739 589.190717 
L 1048.877069 577.932159 
L 1053.856748 571.428866 
L 1058.836427 569.800777 
L 1063.816106 572.650311 
L 1068.795785 579.830942 
L 1073.775465 599.41937 
L 1078.755144 609.641377 
L 1083.734823 615.280353 
L 1088.714502 610.479439 
L 1093.694181 608.293951 
L 1098.67386 590.218507 
L 1103.653539 586.946014 
L 1108.633219 578.139409 
L 1113.612898 574.075984 
L 1113.612898 574.075984 
" style="fill:none;stroke:#0000ff;stroke-linecap:square;stroke-width:1.5;"/>
   </g>
   <g id="line2d_39">
    <defs>
     <path d="M 0 3 
C 0.795609 3 1.55874 2.683901 2.12132 2.12132 
C 2.683901 1.55874 3 0.795609 3 0 
C 3 -0.795609 2.683901 -1.55874 2.12132 -2.12132 
C 1.55874 -2.683901 0.795609 -3 0 -3 
C -0.795609 -3 -1.55874 -2.683901 -2.12132 -2.12132 
C -2.683901 -1.55874 -3 -0.795609 -3 0 
C -3 0.795609 -2.683901 1.55874 -2.12132 2.12132 
C -1.55874 2.683901 -0.795609 3 0 3 
z
" id="m91d1d14738" style="stroke:#ff0000;"/>
    </defs>
    <g clip-path="url(#p96ef00e7e4)">
     <use style="fill:#ff0000;stroke:#ff0000;" x="954.263165" xlink:href="#m91d1d14738" y="639.849091"/>
     <use style="fill:#ff0000;stroke:#ff0000;" x="959.242844" xlink:href="#m91d1d14738" y="639.849091"/>
    </g>
   </g>
   <g id="patch_9">
    <path d="M 46.965625 645.74 
L 46.965625 516.14 
" style="fill:none;stroke:#000000;stroke-linecap:square;stroke-linejoin:miter;stroke-width:0.8;"/>
   </g>
   <g id="patch_10">
    <path d="M 1164.405625 645.74 
L 1164.405625 516.14 
" style="fill:none;stroke:#000000;stroke-linecap:square;stroke-linejoin:miter;stroke-width:0.8;"/>
   </g>
   <g id="patch_11">
    <path d="M 46.965625 645.74 
L 1164.405625 645.74 
" style="fill:none;stroke:#000000;stroke-linecap:square;stroke-linejoin:miter;stroke-width:0.8;"/>
   </g>
   <g id="patch_12">
    <path d="M 46.965625 516.14 
L 1164.405625 516.14 
" style="fill:none;stroke:#000000;stroke-linecap:square;stroke-linejoin:miter;stroke-width:0.8;"/>
   </g>
   <g id="legend_2">
    <g id="patch_13">
     <path d="M 53.965625 582.8525 
L 144.978125 582.8525 
Q 146.978125 582.8525 146.978125 580.8525 
L 146.978125 523.14 
Q 146.978125 521.14 144.978125 521.14 
L 53.965625 521.14 
Q 51.965625 521.14 51.965625 523.14 
L 51.965625 580.8525 
Q 51.965625 582.8525 53.965625 582.8525 
z
" style="fill:#ffffff;opacity:0.8;stroke:#cccccc;stroke-linejoin:miter;"/>
    </g>
    <g id="line2d_40">
     <path d="M 55.965625 529.238437 
L 75.965625 529.238437 
" style="fill:none;stroke:#ff0000;stroke-linecap:square;stroke-width:1.5;"/>
    </g>
    <g id="line2d_41"/>
    <g id="text_33">
     <!-- Maxmimum -->
     <defs>
      <path d="M 9.8125 72.90625 
L 24.515625 72.90625 
L 43.109375 23.296875 
L 61.8125 72.90625 
L 76.515625 72.90625 
L 76.515625 0 
L 66.890625 0 
L 66.890625 64.015625 
L 48.09375 14.015625 
L 38.1875 14.015625 
L 19.390625 64.015625 
L 19.390625 0 
L 9.8125 0 
z
" id="DejaVuSans-4d"/>
      <path d="M 54.890625 54.6875 
L 35.109375 28.078125 
L 55.90625 0 
L 45.3125 0 
L 29.390625 21.484375 
L 13.484375 0 
L 2.875 0 
L 24.125 28.609375 
L 4.6875 54.6875 
L 15.28125 54.6875 
L 29.78125 35.203125 
L 44.28125 54.6875 
z
" id="DejaVuSans-78"/>
     </defs>
     <g transform="translate(83.965625 532.738437)scale(0.1 -0.1)">
      <use xlink:href="#DejaVuSans-4d"/>
      <use x="86.279297" xlink:href="#DejaVuSans-61"/>
      <use x="147.558594" xlink:href="#DejaVuSans-78"/>
      <use x="206.738281" xlink:href="#DejaVuSans-6d"/>
      <use x="304.150391" xlink:href="#DejaVuSans-69"/>
      <use x="331.933594" xlink:href="#DejaVuSans-6d"/>
      <use x="429.345703" xlink:href="#DejaVuSans-75"/>
      <use x="492.724609" xlink:href="#DejaVuSans-6d"/>
     </g>
    </g>
    <g id="line2d_42">
     <path d="M 55.965625 543.916562 
L 75.965625 543.916562 
" style="fill:none;stroke:#008000;stroke-linecap:square;stroke-width:1.5;"/>
    </g>
    <g id="line2d_43"/>
    <g id="text_34">
     <!-- Average -->
     <defs>
      <path d="M 34.1875 63.1875 
L 20.796875 26.90625 
L 47.609375 26.90625 
z
M 28.609375 72.90625 
L 39.796875 72.90625 
L 67.578125 0 
L 57.328125 0 
L 50.6875 18.703125 
L 17.828125 18.703125 
L 11.1875 0 
L 0.78125 0 
z
" id="DejaVuSans-41"/>
      <path d="M 2.984375 54.6875 
L 12.5 54.6875 
L 29.59375 8.796875 
L 46.6875 54.6875 
L 56.203125 54.6875 
L 35.6875 0 
L 23.484375 0 
z
" id="DejaVuSans-76"/>
     </defs>
     <g transform="translate(83.965625 547.416562)scale(0.1 -0.1)">
      <use xlink:href="#DejaVuSans-41"/>
      <use x="68.330078" xlink:href="#DejaVuSans-76"/>
      <use x="127.509766" xlink:href="#DejaVuSans-65"/>
      <use x="189.033203" xlink:href="#DejaVuSans-72"/>
      <use x="230.146484" xlink:href="#DejaVuSans-61"/>
      <use x="291.425781" xlink:href="#DejaVuSans-67"/>
      <use x="354.902344" xlink:href="#DejaVuSans-65"/>
     </g>
    </g>
    <g id="line2d_44">
     <path d="M 55.965625 558.594687 
L 75.965625 558.594687 
" style="fill:none;stroke:#0000ff;stroke-linecap:square;stroke-width:1.5;"/>
    </g>
    <g id="line2d_45"/>
    <g id="text_35">
     <!-- Minimum -->
     <g transform="translate(83.965625 562.094687)scale(0.1 -0.1)">
      <use xlink:href="#DejaVuSans-4d"/>
      <use x="86.279297" xlink:href="#DejaVuSans-69"/>
      <use x="114.0625" xlink:href="#DejaVuSans-6e"/>
      <use x="177.441406" xlink:href="#DejaVuSans-69"/>
      <use x="205.224609" xlink:href="#DejaVuSans-6d"/>
      <use x="302.636719" xlink:href="#DejaVuSans-75"/>
      <use x="366.015625" xlink:href="#DejaVuSans-6d"/>
     </g>
    </g>
    <g id="line2d_46"/>
    <g id="line2d_47">
     <g>
      <use style="fill:#ff0000;stroke:#ff0000;" x="65.965625" xlink:href="#m91d1d14738" y="573.272812"/>
     </g>
    </g>
    <g id="text_36">
     <!-- Disasters -->
     <g transform="translate(83.965625 576.772812)scale(0.1 -0.1)">
      <use xlink:href="#DejaVuSans-44"/>
      <use x="77.001953" xlink:href="#DejaVuSans-69"/>
      <use x="104.785156" xlink:href="#DejaVuSans-73"/>
      <use x="156.884766" xlink:href="#DejaVuSans-61"/>
      <use x="218.164062" xlink:href="#DejaVuSans-73"/>
      <use x="270.263672" xlink:href="#DejaVuSans-74"/>
      <use x="309.472656" xlink:href="#DejaVuSans-65"/>
      <use x="370.996094" xlink:href="#DejaVuSans-72"/>
      <use x="412.109375" xlink:href="#DejaVuSans-73"/>
     </g>
    </g>
   </g>
  </g>
 </g>
 <defs>
  <clipPath id="p095c6aa50d">
   <rect height="498.96" width="1116" x="46.965625" y="10.7"/>
  </clipPath>
  <clipPath id="p96ef00e7e4">
   <rect height="129.6" width="1117.44" x="46.965625" y="516.14"/>
  </clipPath>
 </defs>
</svg>
