<?xml version="1.0" encoding="utf-8" standalone="no"?>
<!DOCTYPE svg PUBLIC "-//W3C//DTD SVG 1.1//EN"
  "http://www.w3.org/Graphics/SVG/1.1/DTD/svg11.dtd">
<!-- Created with matplotlib (http://matplotlib.org/) -->
<svg height="669pt" version="1.1" viewBox="0 0 1181 669" width="1181pt" xmlns="http://www.w3.org/2000/svg" xmlns:xlink="http://www.w3.org/1999/xlink">
 <defs>
  <style type="text/css">
*{stroke-linecap:butt;stroke-linejoin:round;}
  </style>
 </defs>
 <g id="figure_1">
  <g id="patch_1">
   <path d="M 0 669.618125 
L 1181.468125 669.618125 
L 1181.468125 -0 
L 0 -0 
z
" style="fill:none;"/>
  </g>
  <g id="axes_1">
   <g id="patch_2">
    <path d="M 53.328125 509.66 
L 1169.328125 509.66 
L 1169.328125 10.7 
L 53.328125 10.7 
z
" style="fill:none;"/>
   </g>
   <g id="matplotlib.axis_1">
    <g id="xtick_1">
     <g id="line2d_1">
      <defs>
       <path d="M 0 0 
L 0 3.5 
" id="m52f36c99a6" style="stroke:#000000;stroke-width:0.8;"/>
      </defs>
      <g>
       <use style="stroke:#000000;stroke-width:0.8;" x="104.055398" xlink:href="#m52f36c99a6" y="509.66"/>
      </g>
     </g>
     <g id="text_1">
      <!-- 0 -->
      <defs>
       <path d="M 31.78125 66.40625 
Q 24.171875 66.40625 20.328125 58.90625 
Q 16.5 51.421875 16.5 36.375 
Q 16.5 21.390625 20.328125 13.890625 
Q 24.171875 6.390625 31.78125 6.390625 
Q 39.453125 6.390625 43.28125 13.890625 
Q 47.125 21.390625 47.125 36.375 
Q 47.125 51.421875 43.28125 58.90625 
Q 39.453125 66.40625 31.78125 66.40625 
z
M 31.78125 74.21875 
Q 44.046875 74.21875 50.515625 64.515625 
Q 56.984375 54.828125 56.984375 36.375 
Q 56.984375 17.96875 50.515625 8.265625 
Q 44.046875 -1.421875 31.78125 -1.421875 
Q 19.53125 -1.421875 13.0625 8.265625 
Q 6.59375 17.96875 6.59375 36.375 
Q 6.59375 54.828125 13.0625 64.515625 
Q 19.53125 74.21875 31.78125 74.21875 
z
" id="DejaVuSans-30"/>
      </defs>
      <g transform="translate(100.874148 524.258437)scale(0.1 -0.1)">
       <use xlink:href="#DejaVuSans-30"/>
      </g>
     </g>
    </g>
    <g id="xtick_2">
     <g id="line2d_2">
      <g>
       <use style="stroke:#000000;stroke-width:0.8;" x="346.769621" xlink:href="#m52f36c99a6" y="509.66"/>
      </g>
     </g>
     <g id="text_2">
      <!-- 50 -->
      <defs>
       <path d="M 10.796875 72.90625 
L 49.515625 72.90625 
L 49.515625 64.59375 
L 19.828125 64.59375 
L 19.828125 46.734375 
Q 21.96875 47.46875 24.109375 47.828125 
Q 26.265625 48.1875 28.421875 48.1875 
Q 40.625 48.1875 47.75 41.5 
Q 54.890625 34.8125 54.890625 23.390625 
Q 54.890625 11.625 47.5625 5.09375 
Q 40.234375 -1.421875 26.90625 -1.421875 
Q 22.3125 -1.421875 17.546875 -0.640625 
Q 12.796875 0.140625 7.71875 1.703125 
L 7.71875 11.625 
Q 12.109375 9.234375 16.796875 8.0625 
Q 21.484375 6.890625 26.703125 6.890625 
Q 35.15625 6.890625 40.078125 11.328125 
Q 45.015625 15.765625 45.015625 23.390625 
Q 45.015625 31 40.078125 35.4375 
Q 35.15625 39.890625 26.703125 39.890625 
Q 22.75 39.890625 18.8125 39.015625 
Q 14.890625 38.140625 10.796875 36.28125 
z
" id="DejaVuSans-35"/>
      </defs>
      <g transform="translate(340.407121 524.258437)scale(0.1 -0.1)">
       <use xlink:href="#DejaVuSans-35"/>
       <use x="63.623047" xlink:href="#DejaVuSans-30"/>
      </g>
     </g>
    </g>
    <g id="xtick_3">
     <g id="line2d_3">
      <g>
       <use style="stroke:#000000;stroke-width:0.8;" x="589.483845" xlink:href="#m52f36c99a6" y="509.66"/>
      </g>
     </g>
     <g id="text_3">
      <!-- 100 -->
      <defs>
       <path d="M 12.40625 8.296875 
L 28.515625 8.296875 
L 28.515625 63.921875 
L 10.984375 60.40625 
L 10.984375 69.390625 
L 28.421875 72.90625 
L 38.28125 72.90625 
L 38.28125 8.296875 
L 54.390625 8.296875 
L 54.390625 0 
L 12.40625 0 
z
" id="DejaVuSans-31"/>
      </defs>
      <g transform="translate(579.940095 524.258437)scale(0.1 -0.1)">
       <use xlink:href="#DejaVuSans-31"/>
       <use x="63.623047" xlink:href="#DejaVuSans-30"/>
       <use x="127.246094" xlink:href="#DejaVuSans-30"/>
      </g>
     </g>
    </g>
    <g id="xtick_4">
     <g id="line2d_4">
      <g>
       <use style="stroke:#000000;stroke-width:0.8;" x="832.198068" xlink:href="#m52f36c99a6" y="509.66"/>
      </g>
     </g>
     <g id="text_4">
      <!-- 150 -->
      <g transform="translate(822.654318 524.258437)scale(0.1 -0.1)">
       <use xlink:href="#DejaVuSans-31"/>
       <use x="63.623047" xlink:href="#DejaVuSans-35"/>
       <use x="127.246094" xlink:href="#DejaVuSans-30"/>
      </g>
     </g>
    </g>
    <g id="xtick_5">
     <g id="line2d_5">
      <g>
       <use style="stroke:#000000;stroke-width:0.8;" x="1074.912292" xlink:href="#m52f36c99a6" y="509.66"/>
      </g>
     </g>
     <g id="text_5">
      <!-- 200 -->
      <defs>
       <path d="M 19.1875 8.296875 
L 53.609375 8.296875 
L 53.609375 0 
L 7.328125 0 
L 7.328125 8.296875 
Q 12.9375 14.109375 22.625 23.890625 
Q 32.328125 33.6875 34.8125 36.53125 
Q 39.546875 41.84375 41.421875 45.53125 
Q 43.3125 49.21875 43.3125 52.78125 
Q 43.3125 58.59375 39.234375 62.25 
Q 35.15625 65.921875 28.609375 65.921875 
Q 23.96875 65.921875 18.8125 64.3125 
Q 13.671875 62.703125 7.8125 59.421875 
L 7.8125 69.390625 
Q 13.765625 71.78125 18.9375 73 
Q 24.125 74.21875 28.421875 74.21875 
Q 39.75 74.21875 46.484375 68.546875 
Q 53.21875 62.890625 53.21875 53.421875 
Q 53.21875 48.921875 51.53125 44.890625 
Q 49.859375 40.875 45.40625 35.40625 
Q 44.1875 33.984375 37.640625 27.21875 
Q 31.109375 20.453125 19.1875 8.296875 
z
" id="DejaVuSans-32"/>
      </defs>
      <g transform="translate(1065.368542 524.258437)scale(0.1 -0.1)">
       <use xlink:href="#DejaVuSans-32"/>
       <use x="63.623047" xlink:href="#DejaVuSans-30"/>
       <use x="127.246094" xlink:href="#DejaVuSans-30"/>
      </g>
     </g>
    </g>
    <g id="text_6">
     <!-- Time -->
     <defs>
      <path d="M -0.296875 72.90625 
L 61.375 72.90625 
L 61.375 64.59375 
L 35.5 64.59375 
L 35.5 0 
L 25.59375 0 
L 25.59375 64.59375 
L -0.296875 64.59375 
z
" id="DejaVuSans-54"/>
      <path d="M 9.421875 54.6875 
L 18.40625 54.6875 
L 18.40625 0 
L 9.421875 0 
z
M 9.421875 75.984375 
L 18.40625 75.984375 
L 18.40625 64.59375 
L 9.421875 64.59375 
z
" id="DejaVuSans-69"/>
      <path d="M 52 44.1875 
Q 55.375 50.25 60.0625 53.125 
Q 64.75 56 71.09375 56 
Q 79.640625 56 84.28125 50.015625 
Q 88.921875 44.046875 88.921875 33.015625 
L 88.921875 0 
L 79.890625 0 
L 79.890625 32.71875 
Q 79.890625 40.578125 77.09375 44.375 
Q 74.3125 48.1875 68.609375 48.1875 
Q 61.625 48.1875 57.5625 43.546875 
Q 53.515625 38.921875 53.515625 30.90625 
L 53.515625 0 
L 44.484375 0 
L 44.484375 32.71875 
Q 44.484375 40.625 41.703125 44.40625 
Q 38.921875 48.1875 33.109375 48.1875 
Q 26.21875 48.1875 22.15625 43.53125 
Q 18.109375 38.875 18.109375 30.90625 
L 18.109375 0 
L 9.078125 0 
L 9.078125 54.6875 
L 18.109375 54.6875 
L 18.109375 46.1875 
Q 21.1875 51.21875 25.484375 53.609375 
Q 29.78125 56 35.6875 56 
Q 41.65625 56 45.828125 52.96875 
Q 50 49.953125 52 44.1875 
z
" id="DejaVuSans-6d"/>
      <path d="M 56.203125 29.59375 
L 56.203125 25.203125 
L 14.890625 25.203125 
Q 15.484375 15.921875 20.484375 11.0625 
Q 25.484375 6.203125 34.421875 6.203125 
Q 39.59375 6.203125 44.453125 7.46875 
Q 49.3125 8.734375 54.109375 11.28125 
L 54.109375 2.78125 
Q 49.265625 0.734375 44.1875 -0.34375 
Q 39.109375 -1.421875 33.890625 -1.421875 
Q 20.796875 -1.421875 13.15625 6.1875 
Q 5.515625 13.8125 5.515625 26.8125 
Q 5.515625 40.234375 12.765625 48.109375 
Q 20.015625 56 32.328125 56 
Q 43.359375 56 49.78125 48.890625 
Q 56.203125 41.796875 56.203125 29.59375 
z
M 47.21875 32.234375 
Q 47.125 39.59375 43.09375 43.984375 
Q 39.0625 48.390625 32.421875 48.390625 
Q 24.90625 48.390625 20.390625 44.140625 
Q 15.875 39.890625 15.1875 32.171875 
z
" id="DejaVuSans-65"/>
     </defs>
     <g transform="translate(598.940625 537.936562)scale(0.1 -0.1)">
      <use xlink:href="#DejaVuSans-54"/>
      <use x="61.037109" xlink:href="#DejaVuSans-69"/>
      <use x="88.820312" xlink:href="#DejaVuSans-6d"/>
      <use x="186.232422" xlink:href="#DejaVuSans-65"/>
     </g>
    </g>
   </g>
   <g id="matplotlib.axis_2">
    <g id="ytick_1">
     <g id="line2d_6">
      <defs>
       <path d="M 0 0 
L -3.5 0 
" id="m0b0babd0b4" style="stroke:#000000;stroke-width:0.8;"/>
      </defs>
      <g>
       <use style="stroke:#000000;stroke-width:0.8;" x="53.328125" xlink:href="#m0b0babd0b4" y="489.799543"/>
      </g>
     </g>
     <g id="text_7">
      <!-- 0 -->
      <g transform="translate(39.965625 493.598762)scale(0.1 -0.1)">
       <use xlink:href="#DejaVuSans-30"/>
      </g>
     </g>
    </g>
    <g id="ytick_2">
     <g id="line2d_7">
      <g>
       <use style="stroke:#000000;stroke-width:0.8;" x="53.328125" xlink:href="#m0b0babd0b4" y="395.814765"/>
      </g>
     </g>
     <g id="text_8">
      <!-- 200 -->
      <g transform="translate(27.240625 399.613984)scale(0.1 -0.1)">
       <use xlink:href="#DejaVuSans-32"/>
       <use x="63.623047" xlink:href="#DejaVuSans-30"/>
       <use x="127.246094" xlink:href="#DejaVuSans-30"/>
      </g>
     </g>
    </g>
    <g id="ytick_3">
     <g id="line2d_8">
      <g>
       <use style="stroke:#000000;stroke-width:0.8;" x="53.328125" xlink:href="#m0b0babd0b4" y="301.829988"/>
      </g>
     </g>
     <g id="text_9">
      <!-- 400 -->
      <defs>
       <path d="M 37.796875 64.3125 
L 12.890625 25.390625 
L 37.796875 25.390625 
z
M 35.203125 72.90625 
L 47.609375 72.90625 
L 47.609375 25.390625 
L 58.015625 25.390625 
L 58.015625 17.1875 
L 47.609375 17.1875 
L 47.609375 0 
L 37.796875 0 
L 37.796875 17.1875 
L 4.890625 17.1875 
L 4.890625 26.703125 
z
" id="DejaVuSans-34"/>
      </defs>
      <g transform="translate(27.240625 305.629206)scale(0.1 -0.1)">
       <use xlink:href="#DejaVuSans-34"/>
       <use x="63.623047" xlink:href="#DejaVuSans-30"/>
       <use x="127.246094" xlink:href="#DejaVuSans-30"/>
      </g>
     </g>
    </g>
    <g id="ytick_4">
     <g id="line2d_9">
      <g>
       <use style="stroke:#000000;stroke-width:0.8;" x="53.328125" xlink:href="#m0b0babd0b4" y="207.84521"/>
      </g>
     </g>
     <g id="text_10">
      <!-- 600 -->
      <defs>
       <path d="M 33.015625 40.375 
Q 26.375 40.375 22.484375 35.828125 
Q 18.609375 31.296875 18.609375 23.390625 
Q 18.609375 15.53125 22.484375 10.953125 
Q 26.375 6.390625 33.015625 6.390625 
Q 39.65625 6.390625 43.53125 10.953125 
Q 47.40625 15.53125 47.40625 23.390625 
Q 47.40625 31.296875 43.53125 35.828125 
Q 39.65625 40.375 33.015625 40.375 
z
M 52.59375 71.296875 
L 52.59375 62.3125 
Q 48.875 64.0625 45.09375 64.984375 
Q 41.3125 65.921875 37.59375 65.921875 
Q 27.828125 65.921875 22.671875 59.328125 
Q 17.53125 52.734375 16.796875 39.40625 
Q 19.671875 43.65625 24.015625 45.921875 
Q 28.375 48.1875 33.59375 48.1875 
Q 44.578125 48.1875 50.953125 41.515625 
Q 57.328125 34.859375 57.328125 23.390625 
Q 57.328125 12.15625 50.6875 5.359375 
Q 44.046875 -1.421875 33.015625 -1.421875 
Q 20.359375 -1.421875 13.671875 8.265625 
Q 6.984375 17.96875 6.984375 36.375 
Q 6.984375 53.65625 15.1875 63.9375 
Q 23.390625 74.21875 37.203125 74.21875 
Q 40.921875 74.21875 44.703125 73.484375 
Q 48.484375 72.75 52.59375 71.296875 
z
" id="DejaVuSans-36"/>
      </defs>
      <g transform="translate(27.240625 211.644428)scale(0.1 -0.1)">
       <use xlink:href="#DejaVuSans-36"/>
       <use x="63.623047" xlink:href="#DejaVuSans-30"/>
       <use x="127.246094" xlink:href="#DejaVuSans-30"/>
      </g>
     </g>
    </g>
    <g id="ytick_5">
     <g id="line2d_10">
      <g>
       <use style="stroke:#000000;stroke-width:0.8;" x="53.328125" xlink:href="#m0b0babd0b4" y="113.860432"/>
      </g>
     </g>
     <g id="text_11">
      <!-- 800 -->
      <defs>
       <path d="M 31.78125 34.625 
Q 24.75 34.625 20.71875 30.859375 
Q 16.703125 27.09375 16.703125 20.515625 
Q 16.703125 13.921875 20.71875 10.15625 
Q 24.75 6.390625 31.78125 6.390625 
Q 38.8125 6.390625 42.859375 10.171875 
Q 46.921875 13.96875 46.921875 20.515625 
Q 46.921875 27.09375 42.890625 30.859375 
Q 38.875 34.625 31.78125 34.625 
z
M 21.921875 38.8125 
Q 15.578125 40.375 12.03125 44.71875 
Q 8.5 49.078125 8.5 55.328125 
Q 8.5 64.0625 14.71875 69.140625 
Q 20.953125 74.21875 31.78125 74.21875 
Q 42.671875 74.21875 48.875 69.140625 
Q 55.078125 64.0625 55.078125 55.328125 
Q 55.078125 49.078125 51.53125 44.71875 
Q 48 40.375 41.703125 38.8125 
Q 48.828125 37.15625 52.796875 32.3125 
Q 56.78125 27.484375 56.78125 20.515625 
Q 56.78125 9.90625 50.3125 4.234375 
Q 43.84375 -1.421875 31.78125 -1.421875 
Q 19.734375 -1.421875 13.25 4.234375 
Q 6.78125 9.90625 6.78125 20.515625 
Q 6.78125 27.484375 10.78125 32.3125 
Q 14.796875 37.15625 21.921875 38.8125 
z
M 18.3125 54.390625 
Q 18.3125 48.734375 21.84375 45.5625 
Q 25.390625 42.390625 31.78125 42.390625 
Q 38.140625 42.390625 41.71875 45.5625 
Q 45.3125 48.734375 45.3125 54.390625 
Q 45.3125 60.0625 41.71875 63.234375 
Q 38.140625 66.40625 31.78125 66.40625 
Q 25.390625 66.40625 21.84375 63.234375 
Q 18.3125 60.0625 18.3125 54.390625 
z
" id="DejaVuSans-38"/>
      </defs>
      <g transform="translate(27.240625 117.659651)scale(0.1 -0.1)">
       <use xlink:href="#DejaVuSans-38"/>
       <use x="63.623047" xlink:href="#DejaVuSans-30"/>
       <use x="127.246094" xlink:href="#DejaVuSans-30"/>
      </g>
     </g>
    </g>
    <g id="ytick_6">
     <g id="line2d_11">
      <g>
       <use style="stroke:#000000;stroke-width:0.8;" x="53.328125" xlink:href="#m0b0babd0b4" y="19.875654"/>
      </g>
     </g>
     <g id="text_12">
      <!-- 1000 -->
      <g transform="translate(20.878125 23.674873)scale(0.1 -0.1)">
       <use xlink:href="#DejaVuSans-31"/>
       <use x="63.623047" xlink:href="#DejaVuSans-30"/>
       <use x="127.246094" xlink:href="#DejaVuSans-30"/>
       <use x="190.869141" xlink:href="#DejaVuSans-30"/>
      </g>
     </g>
    </g>
    <g id="text_13">
     <!-- Refugees -->
     <defs>
      <path d="M 44.390625 34.1875 
Q 47.5625 33.109375 50.5625 29.59375 
Q 53.5625 26.078125 56.59375 19.921875 
L 66.609375 0 
L 56 0 
L 46.6875 18.703125 
Q 43.0625 26.03125 39.671875 28.421875 
Q 36.28125 30.8125 30.421875 30.8125 
L 19.671875 30.8125 
L 19.671875 0 
L 9.8125 0 
L 9.8125 72.90625 
L 32.078125 72.90625 
Q 44.578125 72.90625 50.734375 67.671875 
Q 56.890625 62.453125 56.890625 51.90625 
Q 56.890625 45.015625 53.6875 40.46875 
Q 50.484375 35.9375 44.390625 34.1875 
z
M 19.671875 64.796875 
L 19.671875 38.921875 
L 32.078125 38.921875 
Q 39.203125 38.921875 42.84375 42.21875 
Q 46.484375 45.515625 46.484375 51.90625 
Q 46.484375 58.296875 42.84375 61.546875 
Q 39.203125 64.796875 32.078125 64.796875 
z
" id="DejaVuSans-52"/>
      <path d="M 37.109375 75.984375 
L 37.109375 68.5 
L 28.515625 68.5 
Q 23.6875 68.5 21.796875 66.546875 
Q 19.921875 64.59375 19.921875 59.515625 
L 19.921875 54.6875 
L 34.71875 54.6875 
L 34.71875 47.703125 
L 19.921875 47.703125 
L 19.921875 0 
L 10.890625 0 
L 10.890625 47.703125 
L 2.296875 47.703125 
L 2.296875 54.6875 
L 10.890625 54.6875 
L 10.890625 58.5 
Q 10.890625 67.625 15.140625 71.796875 
Q 19.390625 75.984375 28.609375 75.984375 
z
" id="DejaVuSans-66"/>
      <path d="M 8.5 21.578125 
L 8.5 54.6875 
L 17.484375 54.6875 
L 17.484375 21.921875 
Q 17.484375 14.15625 20.5 10.265625 
Q 23.53125 6.390625 29.59375 6.390625 
Q 36.859375 6.390625 41.078125 11.03125 
Q 45.3125 15.671875 45.3125 23.6875 
L 45.3125 54.6875 
L 54.296875 54.6875 
L 54.296875 0 
L 45.3125 0 
L 45.3125 8.40625 
Q 42.046875 3.421875 37.71875 1 
Q 33.40625 -1.421875 27.6875 -1.421875 
Q 18.265625 -1.421875 13.375 4.4375 
Q 8.5 10.296875 8.5 21.578125 
z
M 31.109375 56 
z
" id="DejaVuSans-75"/>
      <path d="M 45.40625 27.984375 
Q 45.40625 37.75 41.375 43.109375 
Q 37.359375 48.484375 30.078125 48.484375 
Q 22.859375 48.484375 18.828125 43.109375 
Q 14.796875 37.75 14.796875 27.984375 
Q 14.796875 18.265625 18.828125 12.890625 
Q 22.859375 7.515625 30.078125 7.515625 
Q 37.359375 7.515625 41.375 12.890625 
Q 45.40625 18.265625 45.40625 27.984375 
z
M 54.390625 6.78125 
Q 54.390625 -7.171875 48.1875 -13.984375 
Q 42 -20.796875 29.203125 -20.796875 
Q 24.46875 -20.796875 20.265625 -20.09375 
Q 16.0625 -19.390625 12.109375 -17.921875 
L 12.109375 -9.1875 
Q 16.0625 -11.328125 19.921875 -12.34375 
Q 23.78125 -13.375 27.78125 -13.375 
Q 36.625 -13.375 41.015625 -8.765625 
Q 45.40625 -4.15625 45.40625 5.171875 
L 45.40625 9.625 
Q 42.625 4.78125 38.28125 2.390625 
Q 33.9375 0 27.875 0 
Q 17.828125 0 11.671875 7.65625 
Q 5.515625 15.328125 5.515625 27.984375 
Q 5.515625 40.671875 11.671875 48.328125 
Q 17.828125 56 27.875 56 
Q 33.9375 56 38.28125 53.609375 
Q 42.625 51.21875 45.40625 46.390625 
L 45.40625 54.6875 
L 54.390625 54.6875 
z
" id="DejaVuSans-67"/>
      <path d="M 44.28125 53.078125 
L 44.28125 44.578125 
Q 40.484375 46.53125 36.375 47.5 
Q 32.28125 48.484375 27.875 48.484375 
Q 21.1875 48.484375 17.84375 46.4375 
Q 14.5 44.390625 14.5 40.28125 
Q 14.5 37.15625 16.890625 35.375 
Q 19.28125 33.59375 26.515625 31.984375 
L 29.59375 31.296875 
Q 39.15625 29.25 43.1875 25.515625 
Q 47.21875 21.78125 47.21875 15.09375 
Q 47.21875 7.46875 41.1875 3.015625 
Q 35.15625 -1.421875 24.609375 -1.421875 
Q 20.21875 -1.421875 15.453125 -0.5625 
Q 10.6875 0.296875 5.421875 2 
L 5.421875 11.28125 
Q 10.40625 8.6875 15.234375 7.390625 
Q 20.0625 6.109375 24.8125 6.109375 
Q 31.15625 6.109375 34.5625 8.28125 
Q 37.984375 10.453125 37.984375 14.40625 
Q 37.984375 18.0625 35.515625 20.015625 
Q 33.0625 21.96875 24.703125 23.78125 
L 21.578125 24.515625 
Q 13.234375 26.265625 9.515625 29.90625 
Q 5.8125 33.546875 5.8125 39.890625 
Q 5.8125 47.609375 11.28125 51.796875 
Q 16.75 56 26.8125 56 
Q 31.78125 56 36.171875 55.265625 
Q 40.578125 54.546875 44.28125 53.078125 
z
" id="DejaVuSans-73"/>
     </defs>
     <g style="fill:#ff7f0e;" transform="translate(14.798437 283.588594)rotate(-90)scale(0.1 -0.1)">
      <use xlink:href="#DejaVuSans-52"/>
      <use x="69.419922" xlink:href="#DejaVuSans-65"/>
      <use x="130.943359" xlink:href="#DejaVuSans-66"/>
      <use x="166.148438" xlink:href="#DejaVuSans-75"/>
      <use x="229.527344" xlink:href="#DejaVuSans-67"/>
      <use x="293.003906" xlink:href="#DejaVuSans-65"/>
      <use x="354.527344" xlink:href="#DejaVuSans-65"/>
      <use x="416.050781" xlink:href="#DejaVuSans-73"/>
     </g>
    </g>
   </g>
   <g id="line2d_12">
    <path clip-path="url(#pb884a8439e)" d="M 104.055398 463.684683 
L 108.909682 462.344201 
L 113.763967 462.859837 
L 118.618251 464.954487 
L 123.472536 465.282269 
L 128.32682 460.622111 
L 133.181105 470.72828 
L 138.035389 469.418389 
L 142.889673 469.889665 
L 147.743958 472.027612 
L 152.598242 472.276646 
L 157.452527 467.743629 
L 162.306811 473.923833 
L 167.161096 472.627819 
L 172.01538 473.078969 
L 176.869665 475.236563 
L 181.723949 475.449871 
L 186.578234 470.974539 
L 191.432518 476.693554 
L 196.286803 475.409572 
L 201.141087 475.843267 
L 205.995372 478.017891 
L 210.849656 478.200236 
L 215.703941 473.774901 
L 220.558225 465.48276 
L 225.41251 464.150087 
L 230.266794 464.654399 
L 235.121078 466.760104 
L 239.975363 467.06778 
L 244.829647 462.440081 
L 249.683932 463.637429 
L 254.538216 462.296745 
L 259.392501 462.812689 
L 264.246785 464.907045 
L 269.10107 465.235341 
L 273.955354 460.574332 
L 278.809639 462.926445 
L 283.663923 461.582672 
L 288.518208 462.103096 
L 293.372492 464.193076 
L 298.226777 464.529326 
L 303.081061 459.855483 
L 307.935346 469.355054 
L 312.78963 468.039199 
L 317.643914 468.519123 
L 322.498199 470.648632 
L 327.352483 470.913014 
L 332.206768 466.355216 
L 337.061052 470.730979 
L 341.915337 469.421099 
L 346.769621 469.892353 
L 351.623906 472.030322 
L 356.47819 472.279328 
L 361.332475 467.746359 
L 366.186759 475.606668 
L 371.041044 474.317962 
L 375.895328 474.758508 
L 380.749613 476.926451 
L 385.603897 477.120947 
L 390.458182 472.675991 
L 395.312466 470.113466 
L 400.16675 468.800909 
L 405.021035 469.276057 
L 409.875319 471.410224 
L 414.729604 471.666132 
L 419.583888 467.122021 
L 424.438173 482.483555 
L 429.292457 481.22472 
L 434.146742 481.621941 
L 439.001026 483.832163 
L 443.855311 483.949781 
L 448.709595 479.628962 
L 453.56388 474.788157 
L 458.418164 473.4959 
L 463.272449 473.941596 
L 468.126733 476.104509 
L 472.981018 476.308154 
L 477.835302 471.848431 
L 482.689587 468.74321 
L 487.543871 467.424694 
L 492.398155 467.908475 
L 497.25244 470.034216 
L 502.106724 470.305446 
L 506.961009 465.736602 
L 511.815293 479.696426 
L 516.669578 478.425483 
L 521.523862 478.840264 
L 526.378147 481.033351 
L 531.232431 481.182127 
L 536.086716 476.811 
L 540.941 479.201834 
L 545.795285 477.928748 
L 550.649569 478.346644 
L 555.503854 480.536687 
L 560.358138 480.690992 
L 565.212423 476.310937 
L 570.066707 483.259745 
L 574.920991 482.00428 
L 579.775276 482.396613 
L 584.62956 484.611606 
L 589.483845 484.720546 
L 594.338129 480.413742 
L 599.192414 481.328816 
L 604.046698 480.064963 
L 608.900983 480.469462 
L 613.755267 482.672583 
L 618.609552 482.80311 
L 623.463836 478.46145 
L 628.318121 475.488958 
L 633.172405 474.199744 
L 638.02669 474.641027 
L 642.880974 476.808248 
L 647.735259 477.004055 
L 652.589543 472.556981 
L 657.443827 470.959144 
L 662.298112 469.650253 
L 667.152396 470.120073 
L 672.006681 472.259442 
L 676.860965 472.505895 
L 681.71525 467.977048 
L 686.569534 471.983646 
L 691.423819 470.679205 
L 696.278103 471.142564 
L 701.132388 473.288241 
L 705.986672 473.523239 
L 710.840957 469.01289 
L 715.695241 477.868117 
L 720.549526 476.589233 
L 725.40381 477.015534 
L 730.258095 479.19738 
L 735.112379 479.366592 
L 739.966663 474.962464 
L 744.820948 475.124169 
L 749.675232 473.833369 
L 754.529517 474.27695 
L 759.383801 476.441926 
L 764.238086 476.641819 
L 769.09237 472.188159 
L 773.946655 473.428784 
L 778.800939 472.130621 
L 783.655224 472.584879 
L 788.509508 474.739433 
L 793.363793 474.958281 
L 798.218077 470.474013 
L 803.072362 469.358399 
L 807.926646 468.042559 
L 812.780931 468.522464 
L 817.635215 470.651988 
L 822.4895 470.916334 
L 827.343784 466.358592 
L 832.198068 477.120102 
L 837.052353 475.837971 
L 841.906637 476.268981 
L 846.760922 478.446227 
L 851.615206 478.623806 
L 856.469491 474.206172 
L 861.323775 476.116161 
L 866.17806 474.829673 
L 871.032344 475.267006 
L 875.886629 477.438084 
L 880.740913 477.62688 
L 885.595198 473.191123 
L 890.449482 482.528078 
L 895.303767 481.269433 
L 900.158051 481.666376 
L 905.012336 483.876872 
L 909.86662 483.993992 
L 914.720904 479.673978 
L 919.575189 481.310355 
L 924.429473 480.046421 
L 929.283758 480.451037 
L 934.138042 482.654045 
L 938.992327 482.784778 
L 943.846611 478.442784 
L 948.700896 479.182036 
L 953.55518 477.908863 
L 958.409465 478.326878 
L 963.263749 480.516804 
L 968.118034 480.67133 
L 972.972318 476.290917 
L 977.826603 459.385448 
L 982.680887 458.026293 
L 987.535172 458.569019 
L 992.389456 460.637233 
L 997.24374 461.013073 
L 1002.098025 456.275304 
L 1006.952309 433.884387 
L 1011.806594 432.677285 
L 1016.660878 433.535494 
L 1021.515163 435.458137 
L 1026.369447 436.011693 
L 1031.223732 430.734547 
L 1036.078016 364.742181 
L 1040.932301 365.198553 
L 1045.786585 361.390991 
L 1055.495154 341.755119 
L 1060.349439 330.886465 
L 1065.203723 258.052995 
L 1070.058008 268.317723 
L 1074.912292 272.011289 
L 1079.766577 263.094064 
L 1084.620861 251.359204 
L 1089.475145 236.999708 
L 1094.32943 230.417647 
L 1099.183714 197.578904 
L 1104.037999 150.30767 
L 1108.892283 93.574428 
L 1113.746568 55.760555 
L 1118.600852 33.38 
L 1118.600852 33.38 
" style="fill:none;stroke:#008000;stroke-dasharray:5.55,2.4;stroke-dashoffset:0;stroke-width:1.5;"/>
   </g>
   <g id="line2d_13">
    <path clip-path="url(#pb884a8439e)" d="M 104.055398 463.483806 
L 108.909682 466.773273 
L 113.763967 470.532664 
L 118.618251 475.701827 
L 123.472536 467.713121 
L 128.32682 471.002588 
L 133.181105 475.701827 
L 138.035389 476.641674 
L 142.889673 473.352207 
L 147.743958 471.942436 
L 152.598242 474.761979 
L 157.452527 472.882283 
L 162.306811 476.171751 
L 167.161096 459.724414 
L 172.01538 462.074034 
L 176.869665 465.363501 
L 181.723949 477.581522 
L 186.578234 475.231903 
L 191.432518 474.761979 
L 196.286803 471.002588 
L 201.141087 462.543958 
L 205.995372 466.303349 
L 210.849656 469.122892 
L 215.703941 463.483806 
L 220.558225 475.701827 
L 225.41251 468.652968 
L 230.266794 463.953729 
L 235.121078 467.713121 
L 239.975363 461.60411 
L 244.829647 467.713121 
L 249.683932 463.953729 
L 254.538216 471.472512 
L 259.392501 472.412359 
L 264.246785 471.002588 
L 269.10107 463.013882 
L 273.955354 470.06274 
L 278.809639 471.942436 
L 283.663923 471.002588 
L 288.518208 457.374795 
L 293.372492 461.60411 
L 298.226777 471.942436 
L 303.081061 469.592816 
L 307.935346 475.231903 
L 312.78963 476.641674 
L 317.643914 471.942436 
L 322.498199 468.652968 
L 327.352483 470.532664 
L 332.206768 469.592816 
L 337.061052 470.06274 
L 341.915337 476.641674 
L 346.769621 477.111598 
L 351.623906 479.461218 
L 356.47819 483.690533 
L 361.332475 472.412359 
L 366.186759 481.810837 
L 371.041044 483.220609 
L 375.895328 486.040152 
L 380.749613 467.713121 
L 385.603897 468.652968 
L 390.458182 472.412359 
L 395.312466 480.870989 
L 400.16675 472.882283 
L 405.021035 478.991294 
L 409.875319 482.750685 
L 414.729604 479.931142 
L 419.583888 480.870989 
L 424.438173 483.220609 
L 429.292457 484.630381 
L 434.146742 482.750685 
L 439.001026 475.231903 
L 443.855311 480.870989 
L 448.709595 475.701827 
L 453.56388 479.931142 
L 458.418164 475.701827 
L 463.272449 480.401066 
L 468.126733 472.882283 
L 472.981018 473.822131 
L 477.835302 475.231903 
L 482.689587 477.111598 
L 487.543871 485.100304 
L 492.398155 479.931142 
L 497.25244 479.461218 
L 502.106724 482.750685 
L 506.961009 478.051446 
L 516.669578 484.630381 
L 521.523862 482.750685 
L 526.378147 483.220609 
L 531.232431 483.220609 
L 536.086716 481.810837 
L 540.941 482.750685 
L 545.795285 486.98 
L 550.649569 478.52137 
L 555.503854 480.870989 
L 560.358138 480.870989 
L 565.212423 484.630381 
L 570.066707 474.761979 
L 574.920991 480.870989 
L 579.775276 480.401066 
L 584.62956 477.581522 
L 589.483845 477.111598 
L 594.338129 478.52137 
L 599.192414 470.06274 
L 604.046698 478.991294 
L 608.900983 483.690533 
L 613.755267 464.423653 
L 618.609552 472.882283 
L 623.463836 478.52137 
L 628.318121 481.340913 
L 633.172405 474.292055 
L 638.02669 471.472512 
L 642.880974 486.510076 
L 647.735259 474.292055 
L 652.589543 475.701827 
L 657.443827 475.701827 
L 662.298112 479.461218 
L 667.152396 480.870989 
L 672.006681 475.231903 
L 676.860965 475.701827 
L 681.71525 480.401066 
L 686.569534 476.171751 
L 691.423819 478.051446 
L 696.278103 473.352207 
L 701.132388 480.870989 
L 705.986672 468.183044 
L 710.840957 476.641674 
L 715.695241 480.870989 
L 720.549526 474.292055 
L 725.40381 471.942436 
L 730.258095 474.761979 
L 735.112379 476.641674 
L 739.966663 472.412359 
L 744.820948 471.002588 
L 749.675232 470.532664 
L 754.529517 476.641674 
L 759.383801 475.701827 
L 764.238086 477.581522 
L 769.09237 480.401066 
L 773.946655 474.292055 
L 778.800939 473.822131 
L 783.655224 478.991294 
L 788.509508 481.340913 
L 793.363793 469.592816 
L 798.218077 483.690533 
L 803.072362 480.401066 
L 807.926646 474.292055 
L 812.780931 475.231903 
L 817.635215 475.701827 
L 822.4895 472.412359 
L 827.343784 479.461218 
L 832.198068 478.52137 
L 837.052353 478.52137 
L 841.906637 477.111598 
L 846.760922 478.52137 
L 851.615206 477.111598 
L 856.469491 469.122892 
L 861.323775 472.412359 
L 866.17806 478.051446 
L 871.032344 479.461218 
L 875.886629 478.52137 
L 880.740913 484.160457 
L 885.595198 482.750685 
L 890.449482 480.401066 
L 895.303767 478.52137 
L 900.158051 479.931142 
L 905.012336 480.401066 
L 909.86662 476.171751 
L 914.720904 479.461218 
L 919.575189 473.352207 
L 924.429473 470.06274 
L 929.283758 476.641674 
L 934.138042 475.231903 
L 938.992327 479.931142 
L 943.846611 475.231903 
L 948.700896 478.52137 
L 953.55518 479.461218 
L 958.409465 466.773273 
L 963.263749 474.761979 
L 968.118034 459.724414 
L 972.972318 460.194338 
L 977.826603 463.953729 
L 982.680887 466.303349 
L 987.535172 440.457535 
L 992.389456 417.901188 
L 997.24374 435.758296 
L 1002.098025 427.299666 
L 1006.952309 432.468829 
L 1011.806594 433.878601 
L 1016.660878 422.130503 
L 1021.515163 419.31096 
L 1026.369447 412.262102 
L 1031.223732 377.957658 
L 1036.078016 357.281007 
L 1040.932301 339.423899 
L 1045.786585 316.867552 
L 1050.64087 338.484051 
L 1055.495154 320.626943 
L 1060.349439 342.713366 
L 1065.203723 301.360064 
L 1070.058008 263.296229 
L 1074.912292 259.536838 
L 1079.766577 279.743565 
L 1084.620861 206.435438 
L 1089.475145 223.352698 
L 1094.32943 252.957903 
L 1099.183714 208.785058 
L 1104.037999 181.059548 
L 1108.892283 99.292791 
L 1113.746568 51.360555 
L 1118.600852 55.119946 
L 1118.600852 55.119946 
" style="fill:none;stroke:#ff7f0e;stroke-linecap:square;stroke-width:1.5;"/>
   </g>
   <g id="line2d_14">
    <defs>
     <path d="M 0 3 
C 0.795609 3 1.55874 2.683901 2.12132 2.12132 
C 2.683901 1.55874 3 0.795609 3 0 
C 3 -0.795609 2.683901 -1.55874 2.12132 -2.12132 
C 1.55874 -2.683901 0.795609 -3 0 -3 
C -0.795609 -3 -1.55874 -2.683901 -2.12132 -2.12132 
C -2.683901 -1.55874 -3 -0.795609 -3 0 
C -3 0.795609 -2.683901 1.55874 -2.12132 2.12132 
C -1.55874 2.683901 -0.795609 3 0 3 
z
" id="m38e1db9d3c" style="stroke:#008000;"/>
    </defs>
    <g clip-path="url(#pb884a8439e)">
     <use style="fill:#008000;stroke:#008000;" x="104.055398" xlink:href="#m38e1db9d3c" y="463.684683"/>
     <use style="fill:#008000;stroke:#008000;" x="133.181105" xlink:href="#m38e1db9d3c" y="470.72828"/>
     <use style="fill:#008000;stroke:#008000;" x="162.306811" xlink:href="#m38e1db9d3c" y="473.923833"/>
     <use style="fill:#008000;stroke:#008000;" x="191.432518" xlink:href="#m38e1db9d3c" y="476.693554"/>
     <use style="fill:#008000;stroke:#008000;" x="220.558225" xlink:href="#m38e1db9d3c" y="465.48276"/>
     <use style="fill:#008000;stroke:#008000;" x="249.683932" xlink:href="#m38e1db9d3c" y="463.637429"/>
     <use style="fill:#008000;stroke:#008000;" x="278.809639" xlink:href="#m38e1db9d3c" y="462.926445"/>
     <use style="fill:#008000;stroke:#008000;" x="307.935346" xlink:href="#m38e1db9d3c" y="469.355054"/>
     <use style="fill:#008000;stroke:#008000;" x="337.061052" xlink:href="#m38e1db9d3c" y="470.730979"/>
     <use style="fill:#008000;stroke:#008000;" x="366.186759" xlink:href="#m38e1db9d3c" y="475.606668"/>
     <use style="fill:#008000;stroke:#008000;" x="395.312466" xlink:href="#m38e1db9d3c" y="470.113466"/>
     <use style="fill:#008000;stroke:#008000;" x="424.438173" xlink:href="#m38e1db9d3c" y="482.483555"/>
     <use style="fill:#008000;stroke:#008000;" x="453.56388" xlink:href="#m38e1db9d3c" y="474.788157"/>
     <use style="fill:#008000;stroke:#008000;" x="482.689587" xlink:href="#m38e1db9d3c" y="468.74321"/>
     <use style="fill:#008000;stroke:#008000;" x="511.815293" xlink:href="#m38e1db9d3c" y="479.696426"/>
     <use style="fill:#008000;stroke:#008000;" x="540.941" xlink:href="#m38e1db9d3c" y="479.201834"/>
     <use style="fill:#008000;stroke:#008000;" x="570.066707" xlink:href="#m38e1db9d3c" y="483.259745"/>
     <use style="fill:#008000;stroke:#008000;" x="599.192414" xlink:href="#m38e1db9d3c" y="481.328816"/>
     <use style="fill:#008000;stroke:#008000;" x="628.318121" xlink:href="#m38e1db9d3c" y="475.488958"/>
     <use style="fill:#008000;stroke:#008000;" x="657.443827" xlink:href="#m38e1db9d3c" y="470.959144"/>
     <use style="fill:#008000;stroke:#008000;" x="686.569534" xlink:href="#m38e1db9d3c" y="471.983646"/>
     <use style="fill:#008000;stroke:#008000;" x="715.695241" xlink:href="#m38e1db9d3c" y="477.868117"/>
     <use style="fill:#008000;stroke:#008000;" x="744.820948" xlink:href="#m38e1db9d3c" y="475.124169"/>
     <use style="fill:#008000;stroke:#008000;" x="773.946655" xlink:href="#m38e1db9d3c" y="473.428784"/>
     <use style="fill:#008000;stroke:#008000;" x="803.072362" xlink:href="#m38e1db9d3c" y="469.358399"/>
     <use style="fill:#008000;stroke:#008000;" x="832.198068" xlink:href="#m38e1db9d3c" y="477.120102"/>
     <use style="fill:#008000;stroke:#008000;" x="861.323775" xlink:href="#m38e1db9d3c" y="476.116161"/>
     <use style="fill:#008000;stroke:#008000;" x="890.449482" xlink:href="#m38e1db9d3c" y="482.528078"/>
     <use style="fill:#008000;stroke:#008000;" x="919.575189" xlink:href="#m38e1db9d3c" y="481.310355"/>
     <use style="fill:#008000;stroke:#008000;" x="948.700896" xlink:href="#m38e1db9d3c" y="479.182036"/>
     <use style="fill:#008000;stroke:#008000;" x="977.826603" xlink:href="#m38e1db9d3c" y="459.385448"/>
     <use style="fill:#008000;stroke:#008000;" x="1006.952309" xlink:href="#m38e1db9d3c" y="433.884387"/>
     <use style="fill:#008000;stroke:#008000;" x="1036.078016" xlink:href="#m38e1db9d3c" y="364.742181"/>
     <use style="fill:#008000;stroke:#008000;" x="1065.203723" xlink:href="#m38e1db9d3c" y="258.052995"/>
     <use style="fill:#008000;stroke:#008000;" x="1094.32943" xlink:href="#m38e1db9d3c" y="230.417647"/>
    </g>
   </g>
   <g id="patch_3">
    <path d="M 53.328125 509.66 
L 53.328125 10.7 
" style="fill:none;stroke:#000000;stroke-linecap:square;stroke-linejoin:miter;stroke-width:0.8;"/>
   </g>
   <g id="patch_4">
    <path d="M 1169.328125 509.66 
L 1169.328125 10.7 
" style="fill:none;stroke:#000000;stroke-linecap:square;stroke-linejoin:miter;stroke-width:0.8;"/>
   </g>
   <g id="patch_5">
    <path d="M 53.328125 509.66 
L 1169.328125 509.66 
" style="fill:none;stroke:#000000;stroke-linecap:square;stroke-linejoin:miter;stroke-width:0.8;"/>
   </g>
   <g id="patch_6">
    <path d="M 53.328125 10.7 
L 1169.328125 10.7 
" style="fill:none;stroke:#000000;stroke-linecap:square;stroke-linejoin:miter;stroke-width:0.8;"/>
   </g>
   <g id="legend_1">
    <g id="patch_7">
     <path d="M 60.328125 62.734375 
L 208.103125 62.734375 
Q 210.103125 62.734375 210.103125 60.734375 
L 210.103125 17.7 
Q 210.103125 15.7 208.103125 15.7 
L 60.328125 15.7 
Q 58.328125 15.7 58.328125 17.7 
L 58.328125 60.734375 
Q 58.328125 62.734375 60.328125 62.734375 
z
" style="fill:#ffffff;opacity:0.8;stroke:#cccccc;stroke-linejoin:miter;"/>
    </g>
    <g id="line2d_15">
     <path d="M 62.328125 23.798437 
L 82.328125 23.798437 
" style="fill:none;stroke:#008000;stroke-dasharray:5.55,2.4;stroke-dashoffset:0;stroke-width:1.5;"/>
    </g>
    <g id="line2d_16"/>
    <g id="text_14">
     <!-- Predicated -->
     <defs>
      <path d="M 19.671875 64.796875 
L 19.671875 37.40625 
L 32.078125 37.40625 
Q 38.96875 37.40625 42.71875 40.96875 
Q 46.484375 44.53125 46.484375 51.125 
Q 46.484375 57.671875 42.71875 61.234375 
Q 38.96875 64.796875 32.078125 64.796875 
z
M 9.8125 72.90625 
L 32.078125 72.90625 
Q 44.34375 72.90625 50.609375 67.359375 
Q 56.890625 61.8125 56.890625 51.125 
Q 56.890625 40.328125 50.609375 34.8125 
Q 44.34375 29.296875 32.078125 29.296875 
L 19.671875 29.296875 
L 19.671875 0 
L 9.8125 0 
z
" id="DejaVuSans-50"/>
      <path d="M 41.109375 46.296875 
Q 39.59375 47.171875 37.8125 47.578125 
Q 36.03125 48 33.890625 48 
Q 26.265625 48 22.1875 43.046875 
Q 18.109375 38.09375 18.109375 28.8125 
L 18.109375 0 
L 9.078125 0 
L 9.078125 54.6875 
L 18.109375 54.6875 
L 18.109375 46.1875 
Q 20.953125 51.171875 25.484375 53.578125 
Q 30.03125 56 36.53125 56 
Q 37.453125 56 38.578125 55.875 
Q 39.703125 55.765625 41.0625 55.515625 
z
" id="DejaVuSans-72"/>
      <path d="M 45.40625 46.390625 
L 45.40625 75.984375 
L 54.390625 75.984375 
L 54.390625 0 
L 45.40625 0 
L 45.40625 8.203125 
Q 42.578125 3.328125 38.25 0.953125 
Q 33.9375 -1.421875 27.875 -1.421875 
Q 17.96875 -1.421875 11.734375 6.484375 
Q 5.515625 14.40625 5.515625 27.296875 
Q 5.515625 40.1875 11.734375 48.09375 
Q 17.96875 56 27.875 56 
Q 33.9375 56 38.25 53.625 
Q 42.578125 51.265625 45.40625 46.390625 
z
M 14.796875 27.296875 
Q 14.796875 17.390625 18.875 11.75 
Q 22.953125 6.109375 30.078125 6.109375 
Q 37.203125 6.109375 41.296875 11.75 
Q 45.40625 17.390625 45.40625 27.296875 
Q 45.40625 37.203125 41.296875 42.84375 
Q 37.203125 48.484375 30.078125 48.484375 
Q 22.953125 48.484375 18.875 42.84375 
Q 14.796875 37.203125 14.796875 27.296875 
z
" id="DejaVuSans-64"/>
      <path d="M 48.78125 52.59375 
L 48.78125 44.1875 
Q 44.96875 46.296875 41.140625 47.34375 
Q 37.3125 48.390625 33.40625 48.390625 
Q 24.65625 48.390625 19.8125 42.84375 
Q 14.984375 37.3125 14.984375 27.296875 
Q 14.984375 17.28125 19.8125 11.734375 
Q 24.65625 6.203125 33.40625 6.203125 
Q 37.3125 6.203125 41.140625 7.25 
Q 44.96875 8.296875 48.78125 10.40625 
L 48.78125 2.09375 
Q 45.015625 0.34375 40.984375 -0.53125 
Q 36.96875 -1.421875 32.421875 -1.421875 
Q 20.0625 -1.421875 12.78125 6.34375 
Q 5.515625 14.109375 5.515625 27.296875 
Q 5.515625 40.671875 12.859375 48.328125 
Q 20.21875 56 33.015625 56 
Q 37.15625 56 41.109375 55.140625 
Q 45.0625 54.296875 48.78125 52.59375 
z
" id="DejaVuSans-63"/>
      <path d="M 34.28125 27.484375 
Q 23.390625 27.484375 19.1875 25 
Q 14.984375 22.515625 14.984375 16.5 
Q 14.984375 11.71875 18.140625 8.90625 
Q 21.296875 6.109375 26.703125 6.109375 
Q 34.1875 6.109375 38.703125 11.40625 
Q 43.21875 16.703125 43.21875 25.484375 
L 43.21875 27.484375 
z
M 52.203125 31.203125 
L 52.203125 0 
L 43.21875 0 
L 43.21875 8.296875 
Q 40.140625 3.328125 35.546875 0.953125 
Q 30.953125 -1.421875 24.3125 -1.421875 
Q 15.921875 -1.421875 10.953125 3.296875 
Q 6 8.015625 6 15.921875 
Q 6 25.140625 12.171875 29.828125 
Q 18.359375 34.515625 30.609375 34.515625 
L 43.21875 34.515625 
L 43.21875 35.40625 
Q 43.21875 41.609375 39.140625 45 
Q 35.0625 48.390625 27.6875 48.390625 
Q 23 48.390625 18.546875 47.265625 
Q 14.109375 46.140625 10.015625 43.890625 
L 10.015625 52.203125 
Q 14.9375 54.109375 19.578125 55.046875 
Q 24.21875 56 28.609375 56 
Q 40.484375 56 46.34375 49.84375 
Q 52.203125 43.703125 52.203125 31.203125 
z
" id="DejaVuSans-61"/>
      <path d="M 18.3125 70.21875 
L 18.3125 54.6875 
L 36.8125 54.6875 
L 36.8125 47.703125 
L 18.3125 47.703125 
L 18.3125 18.015625 
Q 18.3125 11.328125 20.140625 9.421875 
Q 21.96875 7.515625 27.59375 7.515625 
L 36.8125 7.515625 
L 36.8125 0 
L 27.59375 0 
Q 17.1875 0 13.234375 3.875 
Q 9.28125 7.765625 9.28125 18.015625 
L 9.28125 47.703125 
L 2.6875 47.703125 
L 2.6875 54.6875 
L 9.28125 54.6875 
L 9.28125 70.21875 
z
" id="DejaVuSans-74"/>
     </defs>
     <g transform="translate(90.328125 27.298437)scale(0.1 -0.1)">
      <use xlink:href="#DejaVuSans-50"/>
      <use x="60.287109" xlink:href="#DejaVuSans-72"/>
      <use x="101.369141" xlink:href="#DejaVuSans-65"/>
      <use x="162.892578" xlink:href="#DejaVuSans-64"/>
      <use x="226.369141" xlink:href="#DejaVuSans-69"/>
      <use x="254.152344" xlink:href="#DejaVuSans-63"/>
      <use x="309.132812" xlink:href="#DejaVuSans-61"/>
      <use x="370.412109" xlink:href="#DejaVuSans-74"/>
      <use x="409.621094" xlink:href="#DejaVuSans-65"/>
      <use x="471.144531" xlink:href="#DejaVuSans-64"/>
     </g>
    </g>
    <g id="line2d_17">
     <path d="M 62.328125 38.476562 
L 82.328125 38.476562 
" style="fill:none;stroke:#ff7f0e;stroke-linecap:square;stroke-width:1.5;"/>
    </g>
    <g id="line2d_18"/>
    <g id="text_15">
     <!-- Real Data -->
     <defs>
      <path d="M 9.421875 75.984375 
L 18.40625 75.984375 
L 18.40625 0 
L 9.421875 0 
z
" id="DejaVuSans-6c"/>
      <path id="DejaVuSans-20"/>
      <path d="M 19.671875 64.796875 
L 19.671875 8.109375 
L 31.59375 8.109375 
Q 46.6875 8.109375 53.6875 14.9375 
Q 60.6875 21.78125 60.6875 36.53125 
Q 60.6875 51.171875 53.6875 57.984375 
Q 46.6875 64.796875 31.59375 64.796875 
z
M 9.8125 72.90625 
L 30.078125 72.90625 
Q 51.265625 72.90625 61.171875 64.09375 
Q 71.09375 55.28125 71.09375 36.53125 
Q 71.09375 17.671875 61.125 8.828125 
Q 51.171875 0 30.078125 0 
L 9.8125 0 
z
" id="DejaVuSans-44"/>
     </defs>
     <g transform="translate(90.328125 41.976562)scale(0.1 -0.1)">
      <use xlink:href="#DejaVuSans-52"/>
      <use x="69.419922" xlink:href="#DejaVuSans-65"/>
      <use x="130.943359" xlink:href="#DejaVuSans-61"/>
      <use x="192.222656" xlink:href="#DejaVuSans-6c"/>
      <use x="220.005859" xlink:href="#DejaVuSans-20"/>
      <use x="251.792969" xlink:href="#DejaVuSans-44"/>
      <use x="328.794922" xlink:href="#DejaVuSans-61"/>
      <use x="390.074219" xlink:href="#DejaVuSans-74"/>
      <use x="429.283203" xlink:href="#DejaVuSans-61"/>
     </g>
    </g>
    <g id="line2d_19"/>
    <g id="line2d_20">
     <g>
      <use style="fill:#008000;stroke:#008000;" x="72.328125" xlink:href="#m38e1db9d3c" y="53.154688"/>
     </g>
    </g>
    <g id="text_16">
     <!-- Start Point for Forecast -->
     <defs>
      <path d="M 53.515625 70.515625 
L 53.515625 60.890625 
Q 47.90625 63.578125 42.921875 64.890625 
Q 37.9375 66.21875 33.296875 66.21875 
Q 25.25 66.21875 20.875 63.09375 
Q 16.5 59.96875 16.5 54.203125 
Q 16.5 49.359375 19.40625 46.890625 
Q 22.3125 44.4375 30.421875 42.921875 
L 36.375 41.703125 
Q 47.40625 39.59375 52.65625 34.296875 
Q 57.90625 29 57.90625 20.125 
Q 57.90625 9.515625 50.796875 4.046875 
Q 43.703125 -1.421875 29.984375 -1.421875 
Q 24.8125 -1.421875 18.96875 -0.25 
Q 13.140625 0.921875 6.890625 3.21875 
L 6.890625 13.375 
Q 12.890625 10.015625 18.65625 8.296875 
Q 24.421875 6.59375 29.984375 6.59375 
Q 38.421875 6.59375 43.015625 9.90625 
Q 47.609375 13.234375 47.609375 19.390625 
Q 47.609375 24.75 44.3125 27.78125 
Q 41.015625 30.8125 33.5 32.328125 
L 27.484375 33.5 
Q 16.453125 35.6875 11.515625 40.375 
Q 6.59375 45.0625 6.59375 53.421875 
Q 6.59375 63.09375 13.40625 68.65625 
Q 20.21875 74.21875 32.171875 74.21875 
Q 37.3125 74.21875 42.625 73.28125 
Q 47.953125 72.359375 53.515625 70.515625 
z
" id="DejaVuSans-53"/>
      <path d="M 30.609375 48.390625 
Q 23.390625 48.390625 19.1875 42.75 
Q 14.984375 37.109375 14.984375 27.296875 
Q 14.984375 17.484375 19.15625 11.84375 
Q 23.34375 6.203125 30.609375 6.203125 
Q 37.796875 6.203125 41.984375 11.859375 
Q 46.1875 17.53125 46.1875 27.296875 
Q 46.1875 37.015625 41.984375 42.703125 
Q 37.796875 48.390625 30.609375 48.390625 
z
M 30.609375 56 
Q 42.328125 56 49.015625 48.375 
Q 55.71875 40.765625 55.71875 27.296875 
Q 55.71875 13.875 49.015625 6.21875 
Q 42.328125 -1.421875 30.609375 -1.421875 
Q 18.84375 -1.421875 12.171875 6.21875 
Q 5.515625 13.875 5.515625 27.296875 
Q 5.515625 40.765625 12.171875 48.375 
Q 18.84375 56 30.609375 56 
z
" id="DejaVuSans-6f"/>
      <path d="M 54.890625 33.015625 
L 54.890625 0 
L 45.90625 0 
L 45.90625 32.71875 
Q 45.90625 40.484375 42.875 44.328125 
Q 39.84375 48.1875 33.796875 48.1875 
Q 26.515625 48.1875 22.3125 43.546875 
Q 18.109375 38.921875 18.109375 30.90625 
L 18.109375 0 
L 9.078125 0 
L 9.078125 54.6875 
L 18.109375 54.6875 
L 18.109375 46.1875 
Q 21.34375 51.125 25.703125 53.5625 
Q 30.078125 56 35.796875 56 
Q 45.21875 56 50.046875 50.171875 
Q 54.890625 44.34375 54.890625 33.015625 
z
" id="DejaVuSans-6e"/>
      <path d="M 9.8125 72.90625 
L 51.703125 72.90625 
L 51.703125 64.59375 
L 19.671875 64.59375 
L 19.671875 43.109375 
L 48.578125 43.109375 
L 48.578125 34.8125 
L 19.671875 34.8125 
L 19.671875 0 
L 9.8125 0 
z
" id="DejaVuSans-46"/>
     </defs>
     <g transform="translate(90.328125 56.654688)scale(0.1 -0.1)">
      <use xlink:href="#DejaVuSans-53"/>
      <use x="63.476562" xlink:href="#DejaVuSans-74"/>
      <use x="102.685547" xlink:href="#DejaVuSans-61"/>
      <use x="163.964844" xlink:href="#DejaVuSans-72"/>
      <use x="205.078125" xlink:href="#DejaVuSans-74"/>
      <use x="244.287109" xlink:href="#DejaVuSans-20"/>
      <use x="276.074219" xlink:href="#DejaVuSans-50"/>
      <use x="336.330078" xlink:href="#DejaVuSans-6f"/>
      <use x="397.511719" xlink:href="#DejaVuSans-69"/>
      <use x="425.294922" xlink:href="#DejaVuSans-6e"/>
      <use x="488.673828" xlink:href="#DejaVuSans-74"/>
      <use x="527.882812" xlink:href="#DejaVuSans-20"/>
      <use x="559.669922" xlink:href="#DejaVuSans-66"/>
      <use x="594.875" xlink:href="#DejaVuSans-6f"/>
      <use x="656.056641" xlink:href="#DejaVuSans-72"/>
      <use x="697.169922" xlink:href="#DejaVuSans-20"/>
      <use x="728.957031" xlink:href="#DejaVuSans-46"/>
      <use x="786.429688" xlink:href="#DejaVuSans-6f"/>
      <use x="847.611328" xlink:href="#DejaVuSans-72"/>
      <use x="888.693359" xlink:href="#DejaVuSans-65"/>
      <use x="950.216797" xlink:href="#DejaVuSans-63"/>
      <use x="1005.197266" xlink:href="#DejaVuSans-61"/>
      <use x="1066.476562" xlink:href="#DejaVuSans-73"/>
      <use x="1118.576172" xlink:href="#DejaVuSans-74"/>
     </g>
    </g>
   </g>
  </g>
  <g id="axes_2">
   <g id="patch_8">
    <path d="M 53.328125 645.74 
L 1170.768125 645.74 
L 1170.768125 516.14 
L 53.328125 516.14 
z
" style="fill:none;"/>
   </g>
   <g id="matplotlib.axis_3">
    <g id="xtick_6">
     <g id="line2d_21">
      <g>
       <use style="stroke:#000000;stroke-width:0.8;" x="104.120852" xlink:href="#m52f36c99a6" y="645.74"/>
      </g>
     </g>
     <g id="text_17">
      <!-- 0 -->
      <g transform="translate(100.939602 660.338437)scale(0.1 -0.1)">
       <use xlink:href="#DejaVuSans-30"/>
      </g>
     </g>
    </g>
    <g id="xtick_7">
     <g id="line2d_22">
      <g>
       <use style="stroke:#000000;stroke-width:0.8;" x="228.612831" xlink:href="#m52f36c99a6" y="645.74"/>
      </g>
     </g>
     <g id="text_18">
      <!-- 25 -->
      <g transform="translate(222.250331 660.338437)scale(0.1 -0.1)">
       <use xlink:href="#DejaVuSans-32"/>
       <use x="63.623047" xlink:href="#DejaVuSans-35"/>
      </g>
     </g>
    </g>
    <g id="xtick_8">
     <g id="line2d_23">
      <g>
       <use style="stroke:#000000;stroke-width:0.8;" x="353.104809" xlink:href="#m52f36c99a6" y="645.74"/>
      </g>
     </g>
     <g id="text_19">
      <!-- 50 -->
      <g transform="translate(346.742309 660.338437)scale(0.1 -0.1)">
       <use xlink:href="#DejaVuSans-35"/>
       <use x="63.623047" xlink:href="#DejaVuSans-30"/>
      </g>
     </g>
    </g>
    <g id="xtick_9">
     <g id="line2d_24">
      <g>
       <use style="stroke:#000000;stroke-width:0.8;" x="477.596788" xlink:href="#m52f36c99a6" y="645.74"/>
      </g>
     </g>
     <g id="text_20">
      <!-- 75 -->
      <defs>
       <path d="M 8.203125 72.90625 
L 55.078125 72.90625 
L 55.078125 68.703125 
L 28.609375 0 
L 18.3125 0 
L 43.21875 64.59375 
L 8.203125 64.59375 
z
" id="DejaVuSans-37"/>
      </defs>
      <g transform="translate(471.234288 660.338437)scale(0.1 -0.1)">
       <use xlink:href="#DejaVuSans-37"/>
       <use x="63.623047" xlink:href="#DejaVuSans-35"/>
      </g>
     </g>
    </g>
    <g id="xtick_10">
     <g id="line2d_25">
      <g>
       <use style="stroke:#000000;stroke-width:0.8;" x="602.088767" xlink:href="#m52f36c99a6" y="645.74"/>
      </g>
     </g>
     <g id="text_21">
      <!-- 100 -->
      <g transform="translate(592.545017 660.338437)scale(0.1 -0.1)">
       <use xlink:href="#DejaVuSans-31"/>
       <use x="63.623047" xlink:href="#DejaVuSans-30"/>
       <use x="127.246094" xlink:href="#DejaVuSans-30"/>
      </g>
     </g>
    </g>
    <g id="xtick_11">
     <g id="line2d_26">
      <g>
       <use style="stroke:#000000;stroke-width:0.8;" x="726.580745" xlink:href="#m52f36c99a6" y="645.74"/>
      </g>
     </g>
     <g id="text_22">
      <!-- 125 -->
      <g transform="translate(717.036995 660.338437)scale(0.1 -0.1)">
       <use xlink:href="#DejaVuSans-31"/>
       <use x="63.623047" xlink:href="#DejaVuSans-32"/>
       <use x="127.246094" xlink:href="#DejaVuSans-35"/>
      </g>
     </g>
    </g>
    <g id="xtick_12">
     <g id="line2d_27">
      <g>
       <use style="stroke:#000000;stroke-width:0.8;" x="851.072724" xlink:href="#m52f36c99a6" y="645.74"/>
      </g>
     </g>
     <g id="text_23">
      <!-- 150 -->
      <g transform="translate(841.528974 660.338437)scale(0.1 -0.1)">
       <use xlink:href="#DejaVuSans-31"/>
       <use x="63.623047" xlink:href="#DejaVuSans-35"/>
       <use x="127.246094" xlink:href="#DejaVuSans-30"/>
      </g>
     </g>
    </g>
    <g id="xtick_13">
     <g id="line2d_28">
      <g>
       <use style="stroke:#000000;stroke-width:0.8;" x="975.564703" xlink:href="#m52f36c99a6" y="645.74"/>
      </g>
     </g>
     <g id="text_24">
      <!-- 175 -->
      <g transform="translate(966.020953 660.338437)scale(0.1 -0.1)">
       <use xlink:href="#DejaVuSans-31"/>
       <use x="63.623047" xlink:href="#DejaVuSans-37"/>
       <use x="127.246094" xlink:href="#DejaVuSans-35"/>
      </g>
     </g>
    </g>
    <g id="xtick_14">
     <g id="line2d_29">
      <g>
       <use style="stroke:#000000;stroke-width:0.8;" x="1100.056681" xlink:href="#m52f36c99a6" y="645.74"/>
      </g>
     </g>
     <g id="text_25">
      <!-- 200 -->
      <g transform="translate(1090.512931 660.338437)scale(0.1 -0.1)">
       <use xlink:href="#DejaVuSans-32"/>
       <use x="63.623047" xlink:href="#DejaVuSans-30"/>
       <use x="127.246094" xlink:href="#DejaVuSans-30"/>
      </g>
     </g>
    </g>
   </g>
   <g id="matplotlib.axis_4">
    <g id="ytick_7">
     <g id="line2d_30">
      <g>
       <use style="stroke:#000000;stroke-width:0.8;" x="53.328125" xlink:href="#m0b0babd0b4" y="625.010861"/>
      </g>
     </g>
     <g id="text_26">
      <!-- 20 -->
      <g transform="translate(33.603125 628.81008)scale(0.1 -0.1)">
       <use xlink:href="#DejaVuSans-32"/>
       <use x="63.623047" xlink:href="#DejaVuSans-30"/>
      </g>
     </g>
    </g>
    <g id="ytick_8">
     <g id="line2d_31">
      <g>
       <use style="stroke:#000000;stroke-width:0.8;" x="53.328125" xlink:href="#m0b0babd0b4" y="588.178637"/>
      </g>
     </g>
     <g id="text_27">
      <!-- 25 -->
      <g transform="translate(33.603125 591.977856)scale(0.1 -0.1)">
       <use xlink:href="#DejaVuSans-32"/>
       <use x="63.623047" xlink:href="#DejaVuSans-35"/>
      </g>
     </g>
    </g>
    <g id="ytick_9">
     <g id="line2d_32">
      <g>
       <use style="stroke:#000000;stroke-width:0.8;" x="53.328125" xlink:href="#m0b0babd0b4" y="551.346413"/>
      </g>
     </g>
     <g id="text_28">
      <!-- 30 -->
      <defs>
       <path d="M 40.578125 39.3125 
Q 47.65625 37.796875 51.625 33 
Q 55.609375 28.21875 55.609375 21.1875 
Q 55.609375 10.40625 48.1875 4.484375 
Q 40.765625 -1.421875 27.09375 -1.421875 
Q 22.515625 -1.421875 17.65625 -0.515625 
Q 12.796875 0.390625 7.625 2.203125 
L 7.625 11.71875 
Q 11.71875 9.328125 16.59375 8.109375 
Q 21.484375 6.890625 26.8125 6.890625 
Q 36.078125 6.890625 40.9375 10.546875 
Q 45.796875 14.203125 45.796875 21.1875 
Q 45.796875 27.640625 41.28125 31.265625 
Q 36.765625 34.90625 28.71875 34.90625 
L 20.21875 34.90625 
L 20.21875 43.015625 
L 29.109375 43.015625 
Q 36.375 43.015625 40.234375 45.921875 
Q 44.09375 48.828125 44.09375 54.296875 
Q 44.09375 59.90625 40.109375 62.90625 
Q 36.140625 65.921875 28.71875 65.921875 
Q 24.65625 65.921875 20.015625 65.03125 
Q 15.375 64.15625 9.8125 62.3125 
L 9.8125 71.09375 
Q 15.4375 72.65625 20.34375 73.4375 
Q 25.25 74.21875 29.59375 74.21875 
Q 40.828125 74.21875 47.359375 69.109375 
Q 53.90625 64.015625 53.90625 55.328125 
Q 53.90625 49.265625 50.4375 45.09375 
Q 46.96875 40.921875 40.578125 39.3125 
z
" id="DejaVuSans-33"/>
      </defs>
      <g transform="translate(33.603125 555.145632)scale(0.1 -0.1)">
       <use xlink:href="#DejaVuSans-33"/>
       <use x="63.623047" xlink:href="#DejaVuSans-30"/>
      </g>
     </g>
    </g>
    <g id="text_29">
     <!-- Temperature -->
     <defs>
      <path d="M 18.109375 8.203125 
L 18.109375 -20.796875 
L 9.078125 -20.796875 
L 9.078125 54.6875 
L 18.109375 54.6875 
L 18.109375 46.390625 
Q 20.953125 51.265625 25.265625 53.625 
Q 29.59375 56 35.59375 56 
Q 45.5625 56 51.78125 48.09375 
Q 58.015625 40.1875 58.015625 27.296875 
Q 58.015625 14.40625 51.78125 6.484375 
Q 45.5625 -1.421875 35.59375 -1.421875 
Q 29.59375 -1.421875 25.265625 0.953125 
Q 20.953125 3.328125 18.109375 8.203125 
z
M 48.6875 27.296875 
Q 48.6875 37.203125 44.609375 42.84375 
Q 40.53125 48.484375 33.40625 48.484375 
Q 26.265625 48.484375 22.1875 42.84375 
Q 18.109375 37.203125 18.109375 27.296875 
Q 18.109375 17.390625 22.1875 11.75 
Q 26.265625 6.109375 33.40625 6.109375 
Q 40.53125 6.109375 44.609375 11.75 
Q 48.6875 17.390625 48.6875 27.296875 
z
" id="DejaVuSans-70"/>
     </defs>
     <g style="fill:#0000ff;" transform="translate(27.523437 613.557187)rotate(-90)scale(0.1 -0.1)">
      <use xlink:href="#DejaVuSans-54"/>
      <use x="60.818359" xlink:href="#DejaVuSans-65"/>
      <use x="122.341797" xlink:href="#DejaVuSans-6d"/>
      <use x="219.753906" xlink:href="#DejaVuSans-70"/>
      <use x="283.230469" xlink:href="#DejaVuSans-65"/>
      <use x="344.753906" xlink:href="#DejaVuSans-72"/>
      <use x="385.867188" xlink:href="#DejaVuSans-61"/>
      <use x="447.146484" xlink:href="#DejaVuSans-74"/>
      <use x="486.355469" xlink:href="#DejaVuSans-75"/>
      <use x="549.734375" xlink:href="#DejaVuSans-72"/>
      <use x="590.816406" xlink:href="#DejaVuSans-65"/>
     </g>
    </g>
   </g>
   <g id="line2d_33">
    <path clip-path="url(#p2dbb21ba4c)" d="M 104.120852 537.121808 
L 109.100531 538.37484 
L 114.080211 537.020888 
L 119.05989 541.454751 
L 124.039569 540.830076 
L 129.019248 548.511805 
L 133.998927 546.745331 
L 138.978606 542.791761 
L 143.958285 536.367484 
L 148.937965 535.243365 
L 153.917644 529.030505 
L 158.897323 537.971896 
L 163.877002 533.549819 
L 168.856681 537.05993 
L 173.83636 535.907081 
L 178.816039 536.931017 
L 183.795719 541.107055 
L 188.775398 541.447384 
L 193.755077 546.066145 
L 198.734756 543.660264 
L 203.714435 536.931754 
L 208.694114 535.289036 
L 213.673793 531.033441 
L 218.653473 535.658832 
L 223.633152 531.658852 
L 228.612831 536.298239 
L 233.59251 537.212415 
L 238.572189 539.980725 
L 243.551868 543.451057 
L 248.531547 544.226007 
L 253.511227 543.437798 
L 258.490906 538.554581 
L 263.470585 532.629013 
L 268.450264 531.112262 
L 273.429943 529.41135 
L 278.409622 532.404337 
L 283.389301 531.830491 
L 288.368981 534.715927 
L 293.34866 537.440775 
L 298.328339 536.651829 
L 303.308018 540.533209 
L 308.287697 538.423459 
L 313.267376 545.042209 
L 318.247055 540.476487 
L 323.226735 534.418323 
L 328.206414 531.477638 
L 333.186093 530.931784 
L 338.165772 532.709308 
L 343.145451 537.975579 
L 348.12513 533.898988 
L 353.104809 536.773375 
L 358.084489 541.915154 
L 363.064168 541.426758 
L 368.043847 548.966315 
L 373.023526 543.233747 
L 378.003205 540.942783 
L 382.982884 535.669145 
L 387.962564 528.903802 
L 392.942243 531.18077 
L 397.921922 532.503047 
L 402.901601 540.336524 
L 407.88128 533.62643 
L 412.860959 538.573734 
L 417.840638 541.437071 
L 422.820318 539.825293 
L 427.799997 546.304818 
L 432.779676 542.762295 
L 437.759355 532.452219 
L 442.739034 532.829381 
L 447.718713 530.525157 
L 452.698392 534.111879 
L 457.678072 533.324406 
L 462.657751 536.807997 
L 467.63743 534.753496 
L 472.617109 534.40359 
L 477.596788 541.935043 
L 482.576467 545.03337 
L 487.556146 549.45692 
L 492.535826 545.845889 
L 497.515505 539.616823 
L 502.495184 535.087196 
L 507.474863 534.485357 
L 512.454542 536.074299 
L 517.434221 538.042614 
L 522.4139 535.5034 
L 527.39358 536.055883 
L 532.373259 541.019394 
L 537.352938 539.902641 
L 542.332617 539.480544 
L 547.312296 542.415335 
L 552.291975 548.420461 
L 557.271654 540.134684 
L 562.251334 536.340965 
L 567.231013 534.768229 
L 572.210692 532.593654 
L 577.190371 536.07209 
L 582.17005 539.217562 
L 587.149729 539.041503 
L 592.129408 539.985145 
L 597.109088 542.474267 
L 602.088767 546.133917 
L 607.068446 547.664664 
L 612.048125 543.228591 
L 617.027804 545.449574 
L 622.007483 544.12435 
L 626.987162 537.837826 
L 631.966842 536.961219 
L 636.946521 539.661021 
L 641.9262 543.203545 
L 646.905879 540.416082 
L 651.885558 540.512583 
L 656.865237 541.197662 
L 661.844916 543.92693 
L 666.824596 547.990997 
L 671.804275 550.584723 
L 676.783954 541.148307 
L 681.763633 540.254757 
L 686.743312 534.837473 
L 691.722991 533.562342 
L 696.70267 530.87138 
L 701.68235 537.166743 
L 706.662029 535.907818 
L 711.641708 536.887555 
L 716.621387 538.59657 
L 721.601066 544.724716 
L 726.580745 544.242214 
L 731.560424 543.468 
L 736.540104 532.042644 
L 741.519783 530.476538 
L 746.499462 529.734 
L 751.479141 528.271024 
L 756.45882 534.241528 
L 761.438499 538.395466 
L 766.418178 536.194373 
L 771.397858 538.131748 
L 776.377537 536.817574 
L 781.357216 541.513682 
L 786.336895 548.478656 
L 791.316574 549.740528 
L 796.296253 541.139467 
L 801.275932 544.01238 
L 806.255612 537.654402 
L 811.235291 533.096046 
L 816.21497 535.260307 
L 821.194649 535.440049 
L 826.174328 536.933227 
L 831.154007 537.15201 
L 836.133686 539.971885 
L 841.113366 541.516629 
L 846.093045 546.182535 
L 851.072724 544.156026 
L 856.052403 540.070596 
L 861.032082 540.248127 
L 866.011761 535.904135 
L 870.991441 532.326989 
L 875.97112 531.608761 
L 880.950799 538.698227 
L 885.930478 535.826787 
L 890.910157 537.319229 
L 895.889836 539.758995 
L 900.869515 540.465437 
L 905.849195 543.311832 
L 910.828874 543.848109 
L 915.808553 544.083835 
L 920.788232 532.245221 
L 925.767911 532.753506 
L 930.74759 531.105632 
L 935.727269 529.942471 
L 940.706949 537.017204 
L 945.686628 537.797311 
L 950.666307 538.948686 
L 955.645986 540.414609 
L 960.625665 542.875738 
L 965.605344 547.515125 
L 970.585023 551.456173 
L 975.564703 538.723273 
L 980.544382 533.569708 
L 985.524061 531.817968 
L 990.50374 531.775979 
L 995.483419 528.930321 
L 1000.463098 531.687582 
L 1005.442777 539.58662 
L 1010.422457 536.024208 
L 1015.402136 537.981472 
L 1020.381815 541.213868 
L 1025.361494 547.33612 
L 1030.341173 547.462087 
L 1035.320852 541.429705 
L 1040.300531 534.033794 
L 1045.280211 530.62313 
L 1050.25989 530.136208 
L 1055.239569 532.353508 
L 1060.219248 532.151668 
L 1065.198927 535.893085 
L 1075.158285 534.867676 
L 1080.137965 539.120324 
L 1085.117644 538.496387 
L 1090.097323 533.459948 
L 1095.077002 535.384064 
L 1100.056681 526.476559 
L 1105.03636 522.030909 
L 1110.016039 526.661456 
L 1114.995719 533.336929 
L 1119.975398 532.768239 
L 1119.975398 532.768239 
" style="fill:none;stroke:#ff0000;stroke-linecap:square;stroke-width:1.5;"/>
   </g>
   <g id="line2d_34">
    <path clip-path="url(#p2dbb21ba4c)" d="M 104.120852 572.928623 
L 109.100531 574.776864 
L 114.080211 574.261213 
L 119.05989 576.67225 
L 124.039569 576.166175 
L 129.019248 578.975001 
L 133.998927 578.423991 
L 138.978606 577.369853 
L 143.958285 573.02365 
L 148.937965 571.463437 
L 153.917644 566.319449 
L 158.897323 572.765825 
L 163.877002 570.018877 
L 168.856681 573.192342 
L 173.83636 573.092895 
L 178.816039 573.187922 
L 183.795719 574.944082 
L 188.775398 574.997857 
L 193.755077 578.275189 
L 198.734756 576.264886 
L 203.714435 572.067486 
L 208.694114 569.791254 
L 213.673793 566.49035 
L 218.653473 570.645025 
L 223.633152 568.691444 
L 228.612831 569.073026 
L 233.59251 571.896584 
L 238.572189 573.296945 
L 243.551868 575.061209 
L 248.531547 575.9194 
L 253.511227 575.640948 
L 258.490906 573.941509 
L 263.470585 569.344111 
L 268.450264 567.289609 
L 273.429943 564.803434 
L 278.409622 568.206732 
L 283.389301 567.313182 
L 288.368981 570.956626 
L 293.34866 573.308731 
L 298.328339 572.215551 
L 303.308018 573.935616 
L 308.287697 571.429551 
L 313.267376 575.136346 
L 318.247055 572.169879 
L 323.226735 569.696964 
L 328.206414 566.970642 
L 333.186093 564.451318 
L 338.165772 568.867502 
L 343.145451 572.617022 
L 348.12513 570.203775 
L 353.104809 572.965455 
L 358.084489 575.551814 
L 363.064168 574.647951 
L 368.043847 578.119757 
L 373.023526 574.25532 
L 378.003205 573.92162 
L 382.982884 569.009674 
L 387.962564 565.723503 
L 392.942243 566.455728 
L 397.921922 567.719073 
L 402.901601 574.601543 
L 407.88128 569.353687 
L 412.860959 574.533035 
L 417.840638 574.80854 
L 422.820318 574.242797 
L 427.799997 576.547757 
L 432.779676 575.892144 
L 437.759355 568.535275 
L 442.739034 568.353324 
L 447.718713 565.656469 
L 452.698392 567.696974 
L 457.678072 567.601947 
L 462.657751 570.556628 
L 467.63743 569.134904 
L 472.617109 569.148163 
L 477.596788 574.413698 
L 487.556146 578.782737 
L 492.535826 575.900983 
L 497.515505 572.570614 
L 502.495184 569.91501 
L 507.474863 570.108011 
L 512.454542 570.81961 
L 517.434221 572.322365 
L 522.4139 569.26529 
L 527.39358 570.772465 
L 532.373259 574.496202 
L 537.352938 573.517202 
L 542.332617 574.860105 
L 547.312296 573.295472 
L 552.291975 576.719395 
L 557.271654 573.358823 
L 562.251334 571.123107 
L 567.231013 568.741536 
L 572.210692 566.840993 
L 577.190371 569.300649 
L 582.17005 572.094005 
L 587.149729 572.286269 
L 592.129408 572.908734 
L 597.109088 574.684047 
L 602.088767 577.098767 
L 607.068446 577.140019 
L 612.048125 575.505405 
L 617.027804 577.011107 
L 622.007483 576.599322 
L 626.987162 571.624026 
L 631.966842 570.219981 
L 636.946521 572.980925 
L 641.9262 574.940399 
L 646.905879 573.823646 
L 651.885558 574.243533 
L 656.865237 574.290679 
L 661.844916 575.511298 
L 666.824596 577.290295 
L 671.804275 579.875917 
L 676.783954 574.872628 
L 681.763633 574.327511 
L 686.743312 568.636932 
L 691.722991 567.505446 
L 696.70267 565.833263 
L 701.68235 570.069706 
L 706.662029 569.82956 
L 711.641708 569.467867 
L 716.621387 572.782767 
L 721.601066 575.417745 
L 726.580745 574.632482 
L 731.560424 574.14777 
L 736.540104 567.027364 
L 741.519783 565.50472 
L 746.499462 563.494417 
L 751.479141 561.638073 
L 756.45882 567.288873 
L 761.438499 571.394192 
L 766.418178 569.684441 
L 771.397858 571.928996 
L 776.377537 570.59567 
L 786.336895 578.425464 
L 791.316574 578.348116 
L 796.296253 574.644268 
L 801.275932 575.752918 
L 806.255612 569.982045 
L 811.235291 567.349278 
L 816.21497 567.776531 
L 821.194649 568.798994 
L 826.174328 571.056073 
L 831.154007 571.102481 
L 836.133686 573.48479 
L 841.113366 573.976868 
L 846.093045 574.837269 
L 851.072724 574.588283 
L 856.052403 572.802657 
L 861.032082 572.670797 
L 866.011761 569.875232 
L 870.991441 566.562541 
L 875.97112 565.761809 
L 880.950799 571.548888 
L 885.930478 569.47155 
L 895.889836 572.701 
L 900.869515 573.375029 
L 905.849195 574.239113 
L 910.828874 573.450904 
L 915.808553 573.819226 
L 920.788232 565.989432 
L 925.767911 565.587961 
L 930.74759 564.849106 
L 935.727269 563.424436 
L 940.706949 569.860499 
L 945.686628 570.445394 
L 950.666307 571.322738 
L 955.645986 573.402285 
L 960.625665 573.529725 
L 965.605344 574.748871 
L 970.585023 580.075548 
L 975.564703 573.402285 
L 980.544382 568.59789 
L 985.524061 565.808954 
L 990.50374 564.832163 
L 995.483419 562.263484 
L 1000.463098 564.334928 
L 1005.442777 571.766935 
L 1010.422457 569.811143 
L 1020.381815 572.944829 
L 1025.361494 575.167286 
L 1030.341173 576.496192 
L 1035.320852 572.785714 
L 1040.300531 567.724966 
L 1045.280211 564.986122 
L 1050.25989 563.244695 
L 1055.239569 564.080786 
L 1060.219248 565.475991 
L 1065.198927 568.60894 
L 1070.178606 567.729386 
L 1075.158285 568.543378 
L 1080.137965 572.755511 
L 1085.117644 569.783888 
L 1090.097323 568.655348 
L 1095.077002 566.964013 
L 1100.056681 563.646902 
L 1105.03636 559.774362 
L 1110.016039 563.095156 
L 1114.995719 565.82295 
L 1119.975398 567.305079 
L 1119.975398 567.305079 
" style="fill:none;stroke:#008000;stroke-linecap:square;stroke-width:1.5;"/>
   </g>
   <g id="line2d_35">
    <path clip-path="url(#p2dbb21ba4c)" d="M 104.120852 599.894231 
L 109.100531 599.983365 
L 114.080211 600.423878 
L 119.05989 599.592943 
L 124.039569 599.197365 
L 129.019248 599.732906 
L 133.998927 600.509329 
L 138.978606 600.655185 
L 143.958285 598.188162 
L 148.937965 596.521872 
L 153.917644 593.729253 
L 158.897323 597.547282 
L 163.877002 597.223158 
L 168.856681 599.383736 
L 173.83636 599.008048 
L 178.816039 598.376743 
L 183.795719 596.802534 
L 188.775398 597.725549 
L 193.755077 599.960529 
L 198.734756 598.614679 
L 203.714435 596.867359 
L 208.694114 593.604024 
L 213.673793 591.245288 
L 218.653473 597.036787 
L 223.633152 596.560915 
L 228.612831 595.022801 
L 233.59251 597.631259 
L 238.572189 596.2611 
L 243.551868 596.621319 
L 248.531547 598.48282 
L 253.511227 598.318548 
L 258.490906 600.061449 
L 263.470585 595.5937 
L 268.450264 593.464061 
L 273.429943 589.445666 
L 278.409622 593.320415 
L 283.389301 594.496837 
L 288.368981 597.708607 
L 293.34866 598.438621 
L 298.328339 597.025737 
L 303.308018 596.764228 
L 308.287697 594.009178 
L 313.267376 596.213218 
L 318.247055 596.076202 
L 328.206414 591.369044 
L 333.186093 590.012145 
L 338.165772 594.910831 
L 343.145451 597.216528 
L 348.12513 595.046374 
L 353.104809 597.637152 
L 358.084489 597.738072 
L 363.064168 596.394433 
L 368.043847 596.72887 
L 373.023526 595.166447 
L 378.003205 597.507503 
L 382.982884 593.562772 
L 387.962564 591.308639 
L 392.942243 591.762412 
L 397.921922 594.27658 
L 402.901601 598.725176 
L 407.88128 596.342868 
L 412.860959 599.798467 
L 417.840638 597.265147 
L 422.820318 596.845996 
L 427.799997 598.48282 
L 432.779676 601.187779 
L 437.759355 595.334402 
L 442.739034 593.571611 
L 447.718713 591.492064 
L 452.698392 590.644186 
L 457.678072 592.435705 
L 462.657751 595.719667 
L 467.63743 595.04932 
L 472.617109 595.402173 
L 477.596788 596.60143 
L 487.556146 598.803997 
L 492.535826 598.47619 
L 497.515505 595.446371 
L 502.495184 595.595174 
L 507.474863 593.372717 
L 512.454542 594.338458 
L 517.434221 596.141027 
L 522.4139 594.037907 
L 527.39358 596.518189 
L 532.373259 597.838993 
L 537.352938 596.691301 
L 542.332617 597.342494 
L 547.312296 594.865896 
L 557.271654 598.515232 
L 562.251334 596.561651 
L 567.231013 592.574931 
L 572.210692 592.125578 
L 577.190371 592.581561 
L 582.17005 595.647475 
L 587.149729 597.834573 
L 592.129408 597.239364 
L 597.109088 597.326288 
L 602.088767 597.968642 
L 607.068446 597.83089 
L 612.048125 598.054093 
L 617.027804 600.104911 
L 622.007483 597.82647 
L 626.987162 595.122985 
L 631.966842 594.851163 
L 636.946521 597.210635 
L 641.9262 598.47398 
L 646.905879 598.555011 
L 651.885558 599.050036 
L 656.865237 597.174539 
L 661.844916 596.616163 
L 666.824596 598.132177 
L 671.804275 601.213561 
L 676.783954 599.195892 
L 681.763633 597.751332 
L 686.743312 592.6125 
L 691.722991 592.484324 
L 696.70267 592.877692 
L 701.68235 595.996645 
L 706.662029 594.428329 
L 711.641708 594.194812 
L 716.621387 596.103458 
L 721.601066 595.880992 
L 726.580745 595.059633 
L 731.560424 596.689091 
L 736.540104 592.566092 
L 741.519783 589.97384 
L 746.499462 587.97385 
L 751.479141 586.323766 
L 756.45882 591.61803 
L 761.438499 594.629433 
L 766.418178 594.115992 
L 771.397858 596.475464 
L 776.377537 593.948773 
L 781.357216 596.026111 
L 786.336895 599.522225 
L 791.316574 599.271766 
L 796.296253 598.644145 
L 801.275932 597.774905 
L 806.255612 593.329255 
L 811.235291 590.971256 
L 816.21497 592.201453 
L 821.194649 594.899045 
L 826.174328 595.201069 
L 831.154007 595.797751 
L 836.133686 595.684308 
L 841.113366 594.211755 
L 846.093045 594.817277 
L 851.072724 597.310819 
L 856.052403 596.510086 
L 861.032082 594.625013 
L 866.011761 594.563135 
L 870.991441 593.348408 
L 875.97112 593.679898 
L 880.950799 595.996645 
L 885.930478 596.091672 
L 890.910157 595.686518 
L 895.889836 595.735136 
L 900.869515 594.281 
L 905.849195 595.299779 
L 910.828874 595.38302 
L 915.808553 594.754662 
L 920.788232 591.768306 
L 925.767911 590.241242 
L 930.74759 590.06813 
L 935.727269 590.604407 
L 940.706949 595.976019 
L 945.686628 596.255207 
L 950.666307 595.81543 
L 955.645986 597.208425 
L 960.625665 595.655578 
L 965.605344 593.902365 
L 970.585023 603.016867 
L 975.564703 602.829759 
L 980.544382 596.482094 
L 985.524061 592.345835 
L 990.50374 589.612884 
L 995.483419 588.899075 
L 1000.463098 591.876592 
L 1005.442777 596.216165 
L 1010.422457 596.005485 
L 1015.402136 595.430165 
L 1020.381815 594.426856 
L 1025.361494 595.036797 
L 1030.341173 599.223148 
L 1035.320852 598.311182 
L 1040.300531 594.919671 
L 1045.280211 590.536636 
L 1050.25989 589.274027 
L 1055.239569 589.509754 
L 1060.219248 591.819871 
L 1065.198927 592.927047 
L 1070.178606 592.63239 
L 1075.158285 593.033124 
L 1080.137965 596.194066 
L 1085.117644 592.643439 
L 1090.097323 592.272907 
L 1095.077002 593.441225 
L 1100.056681 590.491701 
L 1105.03636 586.811425 
L 1110.016039 588.41068 
L 1114.995719 593.623176 
L 1119.975398 594.833483 
L 1119.975398 594.833483 
" style="fill:none;stroke:#0000ff;stroke-linecap:square;stroke-width:1.5;"/>
   </g>
   <g id="line2d_36">
    <defs>
     <path d="M 0 3 
C 0.795609 3 1.55874 2.683901 2.12132 2.12132 
C 2.683901 1.55874 3 0.795609 3 0 
C 3 -0.795609 2.683901 -1.55874 2.12132 -2.12132 
C 1.55874 -2.683901 0.795609 -3 0 -3 
C -0.795609 -3 -1.55874 -2.683901 -2.12132 -2.12132 
C -2.683901 -1.55874 -3 -0.795609 -3 0 
C -3 0.795609 -2.683901 1.55874 -2.12132 2.12132 
C -1.55874 2.683901 -0.795609 3 0 3 
z
" id="mce507cb114" style="stroke:#ff0000;"/>
    </defs>
    <g clip-path="url(#p2dbb21ba4c)">
     <use style="fill:#ff0000;stroke:#ff0000;" x="173.83636" xlink:href="#mce507cb114" y="639.849091"/>
     <use style="fill:#ff0000;stroke:#ff0000;" x="183.795719" xlink:href="#mce507cb114" y="639.849091"/>
     <use style="fill:#ff0000;stroke:#ff0000;" x="188.775398" xlink:href="#mce507cb114" y="639.849091"/>
     <use style="fill:#ff0000;stroke:#ff0000;" x="228.612831" xlink:href="#mce507cb114" y="639.849091"/>
     <use style="fill:#ff0000;stroke:#ff0000;" x="238.572189" xlink:href="#mce507cb114" y="639.849091"/>
     <use style="fill:#ff0000;stroke:#ff0000;" x="248.531547" xlink:href="#mce507cb114" y="639.849091"/>
     <use style="fill:#ff0000;stroke:#ff0000;" x="253.511227" xlink:href="#mce507cb114" y="639.849091"/>
     <use style="fill:#ff0000;stroke:#ff0000;" x="263.470585" xlink:href="#mce507cb114" y="639.849091"/>
     <use style="fill:#ff0000;stroke:#ff0000;" x="358.084489" xlink:href="#mce507cb114" y="639.849091"/>
     <use style="fill:#ff0000;stroke:#ff0000;" x="363.064168" xlink:href="#mce507cb114" y="639.849091"/>
     <use style="fill:#ff0000;stroke:#ff0000;" x="368.043847" xlink:href="#mce507cb114" y="639.849091"/>
     <use style="fill:#ff0000;stroke:#ff0000;" x="373.023526" xlink:href="#mce507cb114" y="639.849091"/>
     <use style="fill:#ff0000;stroke:#ff0000;" x="378.003205" xlink:href="#mce507cb114" y="639.849091"/>
     <use style="fill:#ff0000;stroke:#ff0000;" x="382.982884" xlink:href="#mce507cb114" y="639.849091"/>
     <use style="fill:#ff0000;stroke:#ff0000;" x="402.901601" xlink:href="#mce507cb114" y="639.849091"/>
     <use style="fill:#ff0000;stroke:#ff0000;" x="422.820318" xlink:href="#mce507cb114" y="639.849091"/>
     <use style="fill:#ff0000;stroke:#ff0000;" x="427.799997" xlink:href="#mce507cb114" y="639.849091"/>
     <use style="fill:#ff0000;stroke:#ff0000;" x="462.657751" xlink:href="#mce507cb114" y="639.849091"/>
     <use style="fill:#ff0000;stroke:#ff0000;" x="467.63743" xlink:href="#mce507cb114" y="639.849091"/>
     <use style="fill:#ff0000;stroke:#ff0000;" x="482.576467" xlink:href="#mce507cb114" y="639.849091"/>
     <use style="fill:#ff0000;stroke:#ff0000;" x="487.556146" xlink:href="#mce507cb114" y="639.849091"/>
     <use style="fill:#ff0000;stroke:#ff0000;" x="492.535826" xlink:href="#mce507cb114" y="639.849091"/>
     <use style="fill:#ff0000;stroke:#ff0000;" x="497.515505" xlink:href="#mce507cb114" y="639.849091"/>
     <use style="fill:#ff0000;stroke:#ff0000;" x="507.474863" xlink:href="#mce507cb114" y="639.849091"/>
     <use style="fill:#ff0000;stroke:#ff0000;" x="547.312296" xlink:href="#mce507cb114" y="639.849091"/>
     <use style="fill:#ff0000;stroke:#ff0000;" x="552.291975" xlink:href="#mce507cb114" y="639.849091"/>
     <use style="fill:#ff0000;stroke:#ff0000;" x="557.271654" xlink:href="#mce507cb114" y="639.849091"/>
     <use style="fill:#ff0000;stroke:#ff0000;" x="607.068446" xlink:href="#mce507cb114" y="639.849091"/>
     <use style="fill:#ff0000;stroke:#ff0000;" x="666.824596" xlink:href="#mce507cb114" y="639.849091"/>
     <use style="fill:#ff0000;stroke:#ff0000;" x="671.804275" xlink:href="#mce507cb114" y="639.849091"/>
     <use style="fill:#ff0000;stroke:#ff0000;" x="721.601066" xlink:href="#mce507cb114" y="639.849091"/>
     <use style="fill:#ff0000;stroke:#ff0000;" x="791.316574" xlink:href="#mce507cb114" y="639.849091"/>
     <use style="fill:#ff0000;stroke:#ff0000;" x="811.235291" xlink:href="#mce507cb114" y="639.849091"/>
     <use style="fill:#ff0000;stroke:#ff0000;" x="965.605344" xlink:href="#mce507cb114" y="639.849091"/>
     <use style="fill:#ff0000;stroke:#ff0000;" x="980.544382" xlink:href="#mce507cb114" y="639.849091"/>
     <use style="fill:#ff0000;stroke:#ff0000;" x="1025.361494" xlink:href="#mce507cb114" y="639.849091"/>
     <use style="fill:#ff0000;stroke:#ff0000;" x="1030.341173" xlink:href="#mce507cb114" y="639.849091"/>
     <use style="fill:#ff0000;stroke:#ff0000;" x="1055.239569" xlink:href="#mce507cb114" y="639.849091"/>
     <use style="fill:#ff0000;stroke:#ff0000;" x="1095.077002" xlink:href="#mce507cb114" y="639.849091"/>
     <use style="fill:#ff0000;stroke:#ff0000;" x="1119.975398" xlink:href="#mce507cb114" y="639.849091"/>
    </g>
   </g>
   <g id="patch_9">
    <path d="M 53.328125 645.74 
L 53.328125 516.14 
" style="fill:none;stroke:#000000;stroke-linecap:square;stroke-linejoin:miter;stroke-width:0.8;"/>
   </g>
   <g id="patch_10">
    <path d="M 1170.768125 645.74 
L 1170.768125 516.14 
" style="fill:none;stroke:#000000;stroke-linecap:square;stroke-linejoin:miter;stroke-width:0.8;"/>
   </g>
   <g id="patch_11">
    <path d="M 53.328125 645.74 
L 1170.768125 645.74 
" style="fill:none;stroke:#000000;stroke-linecap:square;stroke-linejoin:miter;stroke-width:0.8;"/>
   </g>
   <g id="patch_12">
    <path d="M 53.328125 516.14 
L 1170.768125 516.14 
" style="fill:none;stroke:#000000;stroke-linecap:square;stroke-linejoin:miter;stroke-width:0.8;"/>
   </g>
   <g id="legend_2">
    <g id="patch_13">
     <path d="M 60.328125 582.8525 
L 151.340625 582.8525 
Q 153.340625 582.8525 153.340625 580.8525 
L 153.340625 523.14 
Q 153.340625 521.14 151.340625 521.14 
L 60.328125 521.14 
Q 58.328125 521.14 58.328125 523.14 
L 58.328125 580.8525 
Q 58.328125 582.8525 60.328125 582.8525 
z
" style="fill:#ffffff;opacity:0.8;stroke:#cccccc;stroke-linejoin:miter;"/>
    </g>
    <g id="line2d_37">
     <path d="M 62.328125 529.238437 
L 82.328125 529.238437 
" style="fill:none;stroke:#ff0000;stroke-linecap:square;stroke-width:1.5;"/>
    </g>
    <g id="line2d_38"/>
    <g id="text_30">
     <!-- Maxmimum -->
     <defs>
      <path d="M 9.8125 72.90625 
L 24.515625 72.90625 
L 43.109375 23.296875 
L 61.8125 72.90625 
L 76.515625 72.90625 
L 76.515625 0 
L 66.890625 0 
L 66.890625 64.015625 
L 48.09375 14.015625 
L 38.1875 14.015625 
L 19.390625 64.015625 
L 19.390625 0 
L 9.8125 0 
z
" id="DejaVuSans-4d"/>
      <path d="M 54.890625 54.6875 
L 35.109375 28.078125 
L 55.90625 0 
L 45.3125 0 
L 29.390625 21.484375 
L 13.484375 0 
L 2.875 0 
L 24.125 28.609375 
L 4.6875 54.6875 
L 15.28125 54.6875 
L 29.78125 35.203125 
L 44.28125 54.6875 
z
" id="DejaVuSans-78"/>
     </defs>
     <g transform="translate(90.328125 532.738437)scale(0.1 -0.1)">
      <use xlink:href="#DejaVuSans-4d"/>
      <use x="86.279297" xlink:href="#DejaVuSans-61"/>
      <use x="147.558594" xlink:href="#DejaVuSans-78"/>
      <use x="206.738281" xlink:href="#DejaVuSans-6d"/>
      <use x="304.150391" xlink:href="#DejaVuSans-69"/>
      <use x="331.933594" xlink:href="#DejaVuSans-6d"/>
      <use x="429.345703" xlink:href="#DejaVuSans-75"/>
      <use x="492.724609" xlink:href="#DejaVuSans-6d"/>
     </g>
    </g>
    <g id="line2d_39">
     <path d="M 62.328125 543.916562 
L 82.328125 543.916562 
" style="fill:none;stroke:#008000;stroke-linecap:square;stroke-width:1.5;"/>
    </g>
    <g id="line2d_40"/>
    <g id="text_31">
     <!-- Average -->
     <defs>
      <path d="M 34.1875 63.1875 
L 20.796875 26.90625 
L 47.609375 26.90625 
z
M 28.609375 72.90625 
L 39.796875 72.90625 
L 67.578125 0 
L 57.328125 0 
L 50.6875 18.703125 
L 17.828125 18.703125 
L 11.1875 0 
L 0.78125 0 
z
" id="DejaVuSans-41"/>
      <path d="M 2.984375 54.6875 
L 12.5 54.6875 
L 29.59375 8.796875 
L 46.6875 54.6875 
L 56.203125 54.6875 
L 35.6875 0 
L 23.484375 0 
z
" id="DejaVuSans-76"/>
     </defs>
     <g transform="translate(90.328125 547.416562)scale(0.1 -0.1)">
      <use xlink:href="#DejaVuSans-41"/>
      <use x="68.330078" xlink:href="#DejaVuSans-76"/>
      <use x="127.509766" xlink:href="#DejaVuSans-65"/>
      <use x="189.033203" xlink:href="#DejaVuSans-72"/>
      <use x="230.146484" xlink:href="#DejaVuSans-61"/>
      <use x="291.425781" xlink:href="#DejaVuSans-67"/>
      <use x="354.902344" xlink:href="#DejaVuSans-65"/>
     </g>
    </g>
    <g id="line2d_41">
     <path d="M 62.328125 558.594687 
L 82.328125 558.594687 
" style="fill:none;stroke:#0000ff;stroke-linecap:square;stroke-width:1.5;"/>
    </g>
    <g id="line2d_42"/>
    <g id="text_32">
     <!-- Minimum -->
     <g transform="translate(90.328125 562.094687)scale(0.1 -0.1)">
      <use xlink:href="#DejaVuSans-4d"/>
      <use x="86.279297" xlink:href="#DejaVuSans-69"/>
      <use x="114.0625" xlink:href="#DejaVuSans-6e"/>
      <use x="177.441406" xlink:href="#DejaVuSans-69"/>
      <use x="205.224609" xlink:href="#DejaVuSans-6d"/>
      <use x="302.636719" xlink:href="#DejaVuSans-75"/>
      <use x="366.015625" xlink:href="#DejaVuSans-6d"/>
     </g>
    </g>
    <g id="line2d_43"/>
    <g id="line2d_44">
     <g>
      <use style="fill:#ff0000;stroke:#ff0000;" x="72.328125" xlink:href="#mce507cb114" y="573.272812"/>
     </g>
    </g>
    <g id="text_33">
     <!-- Disasters -->
     <g transform="translate(90.328125 576.772812)scale(0.1 -0.1)">
      <use xlink:href="#DejaVuSans-44"/>
      <use x="77.001953" xlink:href="#DejaVuSans-69"/>
      <use x="104.785156" xlink:href="#DejaVuSans-73"/>
      <use x="156.884766" xlink:href="#DejaVuSans-61"/>
      <use x="218.164062" xlink:href="#DejaVuSans-73"/>
      <use x="270.263672" xlink:href="#DejaVuSans-74"/>
      <use x="309.472656" xlink:href="#DejaVuSans-65"/>
      <use x="370.996094" xlink:href="#DejaVuSans-72"/>
      <use x="412.109375" xlink:href="#DejaVuSans-73"/>
     </g>
    </g>
   </g>
  </g>
 </g>
 <defs>
  <clipPath id="pb884a8439e">
   <rect height="498.96" width="1116" x="53.328125" y="10.7"/>
  </clipPath>
  <clipPath id="p2dbb21ba4c">
   <rect height="129.6" width="1117.44" x="53.328125" y="516.14"/>
  </clipPath>
 </defs>
</svg>
