<?xml version="1.0" encoding="utf-8" standalone="no"?>
<!DOCTYPE svg PUBLIC "-//W3C//DTD SVG 1.1//EN"
  "http://www.w3.org/Graphics/SVG/1.1/DTD/svg11.dtd">
<!-- Created with matplotlib (http://matplotlib.org/) -->
<svg height="669pt" version="1.1" viewBox="0 0 1181 669" width="1181pt" xmlns="http://www.w3.org/2000/svg" xmlns:xlink="http://www.w3.org/1999/xlink">
 <defs>
  <style type="text/css">
*{stroke-linecap:butt;stroke-linejoin:round;}
  </style>
 </defs>
 <g id="figure_1">
  <g id="patch_1">
   <path d="M 0 669.618125 
L 1181.468125 669.618125 
L 1181.468125 -0 
L 0 -0 
z
" style="fill:none;"/>
  </g>
  <g id="axes_1">
   <g id="patch_2">
    <path d="M 53.328125 509.66 
L 1169.328125 509.66 
L 1169.328125 10.7 
L 53.328125 10.7 
z
" style="fill:none;"/>
   </g>
   <g id="matplotlib.axis_1">
    <g id="xtick_1">
     <g id="line2d_1">
      <defs>
       <path d="M 0 0 
L 0 3.5 
" id="mb39b43194f" style="stroke:#000000;stroke-width:0.8;"/>
      </defs>
      <g>
       <use style="stroke:#000000;stroke-width:0.8;" x="104.055398" xlink:href="#mb39b43194f" y="509.66"/>
      </g>
     </g>
     <g id="text_1">
      <!-- 0 -->
      <defs>
       <path d="M 31.78125 66.40625 
Q 24.171875 66.40625 20.328125 58.90625 
Q 16.5 51.421875 16.5 36.375 
Q 16.5 21.390625 20.328125 13.890625 
Q 24.171875 6.390625 31.78125 6.390625 
Q 39.453125 6.390625 43.28125 13.890625 
Q 47.125 21.390625 47.125 36.375 
Q 47.125 51.421875 43.28125 58.90625 
Q 39.453125 66.40625 31.78125 66.40625 
z
M 31.78125 74.21875 
Q 44.046875 74.21875 50.515625 64.515625 
Q 56.984375 54.828125 56.984375 36.375 
Q 56.984375 17.96875 50.515625 8.265625 
Q 44.046875 -1.421875 31.78125 -1.421875 
Q 19.53125 -1.421875 13.0625 8.265625 
Q 6.59375 17.96875 6.59375 36.375 
Q 6.59375 54.828125 13.0625 64.515625 
Q 19.53125 74.21875 31.78125 74.21875 
z
" id="DejaVuSans-30"/>
      </defs>
      <g transform="translate(100.874148 524.258437)scale(0.1 -0.1)">
       <use xlink:href="#DejaVuSans-30"/>
      </g>
     </g>
    </g>
    <g id="xtick_2">
     <g id="line2d_2">
      <g>
       <use style="stroke:#000000;stroke-width:0.8;" x="346.769621" xlink:href="#mb39b43194f" y="509.66"/>
      </g>
     </g>
     <g id="text_2">
      <!-- 50 -->
      <defs>
       <path d="M 10.796875 72.90625 
L 49.515625 72.90625 
L 49.515625 64.59375 
L 19.828125 64.59375 
L 19.828125 46.734375 
Q 21.96875 47.46875 24.109375 47.828125 
Q 26.265625 48.1875 28.421875 48.1875 
Q 40.625 48.1875 47.75 41.5 
Q 54.890625 34.8125 54.890625 23.390625 
Q 54.890625 11.625 47.5625 5.09375 
Q 40.234375 -1.421875 26.90625 -1.421875 
Q 22.3125 -1.421875 17.546875 -0.640625 
Q 12.796875 0.140625 7.71875 1.703125 
L 7.71875 11.625 
Q 12.109375 9.234375 16.796875 8.0625 
Q 21.484375 6.890625 26.703125 6.890625 
Q 35.15625 6.890625 40.078125 11.328125 
Q 45.015625 15.765625 45.015625 23.390625 
Q 45.015625 31 40.078125 35.4375 
Q 35.15625 39.890625 26.703125 39.890625 
Q 22.75 39.890625 18.8125 39.015625 
Q 14.890625 38.140625 10.796875 36.28125 
z
" id="DejaVuSans-35"/>
      </defs>
      <g transform="translate(340.407121 524.258437)scale(0.1 -0.1)">
       <use xlink:href="#DejaVuSans-35"/>
       <use x="63.623047" xlink:href="#DejaVuSans-30"/>
      </g>
     </g>
    </g>
    <g id="xtick_3">
     <g id="line2d_3">
      <g>
       <use style="stroke:#000000;stroke-width:0.8;" x="589.483845" xlink:href="#mb39b43194f" y="509.66"/>
      </g>
     </g>
     <g id="text_3">
      <!-- 100 -->
      <defs>
       <path d="M 12.40625 8.296875 
L 28.515625 8.296875 
L 28.515625 63.921875 
L 10.984375 60.40625 
L 10.984375 69.390625 
L 28.421875 72.90625 
L 38.28125 72.90625 
L 38.28125 8.296875 
L 54.390625 8.296875 
L 54.390625 0 
L 12.40625 0 
z
" id="DejaVuSans-31"/>
      </defs>
      <g transform="translate(579.940095 524.258437)scale(0.1 -0.1)">
       <use xlink:href="#DejaVuSans-31"/>
       <use x="63.623047" xlink:href="#DejaVuSans-30"/>
       <use x="127.246094" xlink:href="#DejaVuSans-30"/>
      </g>
     </g>
    </g>
    <g id="xtick_4">
     <g id="line2d_4">
      <g>
       <use style="stroke:#000000;stroke-width:0.8;" x="832.198068" xlink:href="#mb39b43194f" y="509.66"/>
      </g>
     </g>
     <g id="text_4">
      <!-- 150 -->
      <g transform="translate(822.654318 524.258437)scale(0.1 -0.1)">
       <use xlink:href="#DejaVuSans-31"/>
       <use x="63.623047" xlink:href="#DejaVuSans-35"/>
       <use x="127.246094" xlink:href="#DejaVuSans-30"/>
      </g>
     </g>
    </g>
    <g id="xtick_5">
     <g id="line2d_5">
      <g>
       <use style="stroke:#000000;stroke-width:0.8;" x="1074.912292" xlink:href="#mb39b43194f" y="509.66"/>
      </g>
     </g>
     <g id="text_5">
      <!-- 200 -->
      <defs>
       <path d="M 19.1875 8.296875 
L 53.609375 8.296875 
L 53.609375 0 
L 7.328125 0 
L 7.328125 8.296875 
Q 12.9375 14.109375 22.625 23.890625 
Q 32.328125 33.6875 34.8125 36.53125 
Q 39.546875 41.84375 41.421875 45.53125 
Q 43.3125 49.21875 43.3125 52.78125 
Q 43.3125 58.59375 39.234375 62.25 
Q 35.15625 65.921875 28.609375 65.921875 
Q 23.96875 65.921875 18.8125 64.3125 
Q 13.671875 62.703125 7.8125 59.421875 
L 7.8125 69.390625 
Q 13.765625 71.78125 18.9375 73 
Q 24.125 74.21875 28.421875 74.21875 
Q 39.75 74.21875 46.484375 68.546875 
Q 53.21875 62.890625 53.21875 53.421875 
Q 53.21875 48.921875 51.53125 44.890625 
Q 49.859375 40.875 45.40625 35.40625 
Q 44.1875 33.984375 37.640625 27.21875 
Q 31.109375 20.453125 19.1875 8.296875 
z
" id="DejaVuSans-32"/>
      </defs>
      <g transform="translate(1065.368542 524.258437)scale(0.1 -0.1)">
       <use xlink:href="#DejaVuSans-32"/>
       <use x="63.623047" xlink:href="#DejaVuSans-30"/>
       <use x="127.246094" xlink:href="#DejaVuSans-30"/>
      </g>
     </g>
    </g>
    <g id="text_6">
     <!-- Time -->
     <defs>
      <path d="M -0.296875 72.90625 
L 61.375 72.90625 
L 61.375 64.59375 
L 35.5 64.59375 
L 35.5 0 
L 25.59375 0 
L 25.59375 64.59375 
L -0.296875 64.59375 
z
" id="DejaVuSans-54"/>
      <path d="M 9.421875 54.6875 
L 18.40625 54.6875 
L 18.40625 0 
L 9.421875 0 
z
M 9.421875 75.984375 
L 18.40625 75.984375 
L 18.40625 64.59375 
L 9.421875 64.59375 
z
" id="DejaVuSans-69"/>
      <path d="M 52 44.1875 
Q 55.375 50.25 60.0625 53.125 
Q 64.75 56 71.09375 56 
Q 79.640625 56 84.28125 50.015625 
Q 88.921875 44.046875 88.921875 33.015625 
L 88.921875 0 
L 79.890625 0 
L 79.890625 32.71875 
Q 79.890625 40.578125 77.09375 44.375 
Q 74.3125 48.1875 68.609375 48.1875 
Q 61.625 48.1875 57.5625 43.546875 
Q 53.515625 38.921875 53.515625 30.90625 
L 53.515625 0 
L 44.484375 0 
L 44.484375 32.71875 
Q 44.484375 40.625 41.703125 44.40625 
Q 38.921875 48.1875 33.109375 48.1875 
Q 26.21875 48.1875 22.15625 43.53125 
Q 18.109375 38.875 18.109375 30.90625 
L 18.109375 0 
L 9.078125 0 
L 9.078125 54.6875 
L 18.109375 54.6875 
L 18.109375 46.1875 
Q 21.1875 51.21875 25.484375 53.609375 
Q 29.78125 56 35.6875 56 
Q 41.65625 56 45.828125 52.96875 
Q 50 49.953125 52 44.1875 
z
" id="DejaVuSans-6d"/>
      <path d="M 56.203125 29.59375 
L 56.203125 25.203125 
L 14.890625 25.203125 
Q 15.484375 15.921875 20.484375 11.0625 
Q 25.484375 6.203125 34.421875 6.203125 
Q 39.59375 6.203125 44.453125 7.46875 
Q 49.3125 8.734375 54.109375 11.28125 
L 54.109375 2.78125 
Q 49.265625 0.734375 44.1875 -0.34375 
Q 39.109375 -1.421875 33.890625 -1.421875 
Q 20.796875 -1.421875 13.15625 6.1875 
Q 5.515625 13.8125 5.515625 26.8125 
Q 5.515625 40.234375 12.765625 48.109375 
Q 20.015625 56 32.328125 56 
Q 43.359375 56 49.78125 48.890625 
Q 56.203125 41.796875 56.203125 29.59375 
z
M 47.21875 32.234375 
Q 47.125 39.59375 43.09375 43.984375 
Q 39.0625 48.390625 32.421875 48.390625 
Q 24.90625 48.390625 20.390625 44.140625 
Q 15.875 39.890625 15.1875 32.171875 
z
" id="DejaVuSans-65"/>
     </defs>
     <g transform="translate(598.940625 537.936562)scale(0.1 -0.1)">
      <use xlink:href="#DejaVuSans-54"/>
      <use x="61.037109" xlink:href="#DejaVuSans-69"/>
      <use x="88.820312" xlink:href="#DejaVuSans-6d"/>
      <use x="186.232422" xlink:href="#DejaVuSans-65"/>
     </g>
    </g>
   </g>
   <g id="matplotlib.axis_2">
    <g id="ytick_1">
     <g id="line2d_6">
      <defs>
       <path d="M 0 0 
L -3.5 0 
" id="mbef689a02c" style="stroke:#000000;stroke-width:0.8;"/>
      </defs>
      <g>
       <use style="stroke:#000000;stroke-width:0.8;" x="53.328125" xlink:href="#mbef689a02c" y="494.691475"/>
      </g>
     </g>
     <g id="text_7">
      <!-- 0 -->
      <g transform="translate(39.965625 498.490694)scale(0.1 -0.1)">
       <use xlink:href="#DejaVuSans-30"/>
      </g>
     </g>
    </g>
    <g id="ytick_2">
     <g id="line2d_7">
      <g>
       <use style="stroke:#000000;stroke-width:0.8;" x="53.328125" xlink:href="#mbef689a02c" y="425.839016"/>
      </g>
     </g>
     <g id="text_8">
      <!-- 250 -->
      <g transform="translate(27.240625 429.638235)scale(0.1 -0.1)">
       <use xlink:href="#DejaVuSans-32"/>
       <use x="63.623047" xlink:href="#DejaVuSans-35"/>
       <use x="127.246094" xlink:href="#DejaVuSans-30"/>
      </g>
     </g>
    </g>
    <g id="ytick_3">
     <g id="line2d_8">
      <g>
       <use style="stroke:#000000;stroke-width:0.8;" x="53.328125" xlink:href="#mbef689a02c" y="356.986557"/>
      </g>
     </g>
     <g id="text_9">
      <!-- 500 -->
      <g transform="translate(27.240625 360.785776)scale(0.1 -0.1)">
       <use xlink:href="#DejaVuSans-35"/>
       <use x="63.623047" xlink:href="#DejaVuSans-30"/>
       <use x="127.246094" xlink:href="#DejaVuSans-30"/>
      </g>
     </g>
    </g>
    <g id="ytick_4">
     <g id="line2d_9">
      <g>
       <use style="stroke:#000000;stroke-width:0.8;" x="53.328125" xlink:href="#mbef689a02c" y="288.134098"/>
      </g>
     </g>
     <g id="text_10">
      <!-- 750 -->
      <defs>
       <path d="M 8.203125 72.90625 
L 55.078125 72.90625 
L 55.078125 68.703125 
L 28.609375 0 
L 18.3125 0 
L 43.21875 64.59375 
L 8.203125 64.59375 
z
" id="DejaVuSans-37"/>
      </defs>
      <g transform="translate(27.240625 291.933317)scale(0.1 -0.1)">
       <use xlink:href="#DejaVuSans-37"/>
       <use x="63.623047" xlink:href="#DejaVuSans-35"/>
       <use x="127.246094" xlink:href="#DejaVuSans-30"/>
      </g>
     </g>
    </g>
    <g id="ytick_5">
     <g id="line2d_10">
      <g>
       <use style="stroke:#000000;stroke-width:0.8;" x="53.328125" xlink:href="#mbef689a02c" y="219.281639"/>
      </g>
     </g>
     <g id="text_11">
      <!-- 1000 -->
      <g transform="translate(20.878125 223.080858)scale(0.1 -0.1)">
       <use xlink:href="#DejaVuSans-31"/>
       <use x="63.623047" xlink:href="#DejaVuSans-30"/>
       <use x="127.246094" xlink:href="#DejaVuSans-30"/>
       <use x="190.869141" xlink:href="#DejaVuSans-30"/>
      </g>
     </g>
    </g>
    <g id="ytick_6">
     <g id="line2d_11">
      <g>
       <use style="stroke:#000000;stroke-width:0.8;" x="53.328125" xlink:href="#mbef689a02c" y="150.42918"/>
      </g>
     </g>
     <g id="text_12">
      <!-- 1250 -->
      <g transform="translate(20.878125 154.228399)scale(0.1 -0.1)">
       <use xlink:href="#DejaVuSans-31"/>
       <use x="63.623047" xlink:href="#DejaVuSans-32"/>
       <use x="127.246094" xlink:href="#DejaVuSans-35"/>
       <use x="190.869141" xlink:href="#DejaVuSans-30"/>
      </g>
     </g>
    </g>
    <g id="ytick_7">
     <g id="line2d_12">
      <g>
       <use style="stroke:#000000;stroke-width:0.8;" x="53.328125" xlink:href="#mbef689a02c" y="81.576721"/>
      </g>
     </g>
     <g id="text_13">
      <!-- 1500 -->
      <g transform="translate(20.878125 85.37594)scale(0.1 -0.1)">
       <use xlink:href="#DejaVuSans-31"/>
       <use x="63.623047" xlink:href="#DejaVuSans-35"/>
       <use x="127.246094" xlink:href="#DejaVuSans-30"/>
       <use x="190.869141" xlink:href="#DejaVuSans-30"/>
      </g>
     </g>
    </g>
    <g id="ytick_8">
     <g id="line2d_13">
      <g>
       <use style="stroke:#000000;stroke-width:0.8;" x="53.328125" xlink:href="#mbef689a02c" y="12.724262"/>
      </g>
     </g>
     <g id="text_14">
      <!-- 1750 -->
      <g transform="translate(20.878125 16.523481)scale(0.1 -0.1)">
       <use xlink:href="#DejaVuSans-31"/>
       <use x="63.623047" xlink:href="#DejaVuSans-37"/>
       <use x="127.246094" xlink:href="#DejaVuSans-35"/>
       <use x="190.869141" xlink:href="#DejaVuSans-30"/>
      </g>
     </g>
    </g>
    <g id="text_15">
     <!-- Refugees -->
     <defs>
      <path d="M 44.390625 34.1875 
Q 47.5625 33.109375 50.5625 29.59375 
Q 53.5625 26.078125 56.59375 19.921875 
L 66.609375 0 
L 56 0 
L 46.6875 18.703125 
Q 43.0625 26.03125 39.671875 28.421875 
Q 36.28125 30.8125 30.421875 30.8125 
L 19.671875 30.8125 
L 19.671875 0 
L 9.8125 0 
L 9.8125 72.90625 
L 32.078125 72.90625 
Q 44.578125 72.90625 50.734375 67.671875 
Q 56.890625 62.453125 56.890625 51.90625 
Q 56.890625 45.015625 53.6875 40.46875 
Q 50.484375 35.9375 44.390625 34.1875 
z
M 19.671875 64.796875 
L 19.671875 38.921875 
L 32.078125 38.921875 
Q 39.203125 38.921875 42.84375 42.21875 
Q 46.484375 45.515625 46.484375 51.90625 
Q 46.484375 58.296875 42.84375 61.546875 
Q 39.203125 64.796875 32.078125 64.796875 
z
" id="DejaVuSans-52"/>
      <path d="M 37.109375 75.984375 
L 37.109375 68.5 
L 28.515625 68.5 
Q 23.6875 68.5 21.796875 66.546875 
Q 19.921875 64.59375 19.921875 59.515625 
L 19.921875 54.6875 
L 34.71875 54.6875 
L 34.71875 47.703125 
L 19.921875 47.703125 
L 19.921875 0 
L 10.890625 0 
L 10.890625 47.703125 
L 2.296875 47.703125 
L 2.296875 54.6875 
L 10.890625 54.6875 
L 10.890625 58.5 
Q 10.890625 67.625 15.140625 71.796875 
Q 19.390625 75.984375 28.609375 75.984375 
z
" id="DejaVuSans-66"/>
      <path d="M 8.5 21.578125 
L 8.5 54.6875 
L 17.484375 54.6875 
L 17.484375 21.921875 
Q 17.484375 14.15625 20.5 10.265625 
Q 23.53125 6.390625 29.59375 6.390625 
Q 36.859375 6.390625 41.078125 11.03125 
Q 45.3125 15.671875 45.3125 23.6875 
L 45.3125 54.6875 
L 54.296875 54.6875 
L 54.296875 0 
L 45.3125 0 
L 45.3125 8.40625 
Q 42.046875 3.421875 37.71875 1 
Q 33.40625 -1.421875 27.6875 -1.421875 
Q 18.265625 -1.421875 13.375 4.4375 
Q 8.5 10.296875 8.5 21.578125 
z
M 31.109375 56 
z
" id="DejaVuSans-75"/>
      <path d="M 45.40625 27.984375 
Q 45.40625 37.75 41.375 43.109375 
Q 37.359375 48.484375 30.078125 48.484375 
Q 22.859375 48.484375 18.828125 43.109375 
Q 14.796875 37.75 14.796875 27.984375 
Q 14.796875 18.265625 18.828125 12.890625 
Q 22.859375 7.515625 30.078125 7.515625 
Q 37.359375 7.515625 41.375 12.890625 
Q 45.40625 18.265625 45.40625 27.984375 
z
M 54.390625 6.78125 
Q 54.390625 -7.171875 48.1875 -13.984375 
Q 42 -20.796875 29.203125 -20.796875 
Q 24.46875 -20.796875 20.265625 -20.09375 
Q 16.0625 -19.390625 12.109375 -17.921875 
L 12.109375 -9.1875 
Q 16.0625 -11.328125 19.921875 -12.34375 
Q 23.78125 -13.375 27.78125 -13.375 
Q 36.625 -13.375 41.015625 -8.765625 
Q 45.40625 -4.15625 45.40625 5.171875 
L 45.40625 9.625 
Q 42.625 4.78125 38.28125 2.390625 
Q 33.9375 0 27.875 0 
Q 17.828125 0 11.671875 7.65625 
Q 5.515625 15.328125 5.515625 27.984375 
Q 5.515625 40.671875 11.671875 48.328125 
Q 17.828125 56 27.875 56 
Q 33.9375 56 38.28125 53.609375 
Q 42.625 51.21875 45.40625 46.390625 
L 45.40625 54.6875 
L 54.390625 54.6875 
z
" id="DejaVuSans-67"/>
      <path d="M 44.28125 53.078125 
L 44.28125 44.578125 
Q 40.484375 46.53125 36.375 47.5 
Q 32.28125 48.484375 27.875 48.484375 
Q 21.1875 48.484375 17.84375 46.4375 
Q 14.5 44.390625 14.5 40.28125 
Q 14.5 37.15625 16.890625 35.375 
Q 19.28125 33.59375 26.515625 31.984375 
L 29.59375 31.296875 
Q 39.15625 29.25 43.1875 25.515625 
Q 47.21875 21.78125 47.21875 15.09375 
Q 47.21875 7.46875 41.1875 3.015625 
Q 35.15625 -1.421875 24.609375 -1.421875 
Q 20.21875 -1.421875 15.453125 -0.5625 
Q 10.6875 0.296875 5.421875 2 
L 5.421875 11.28125 
Q 10.40625 8.6875 15.234375 7.390625 
Q 20.0625 6.109375 24.8125 6.109375 
Q 31.15625 6.109375 34.5625 8.28125 
Q 37.984375 10.453125 37.984375 14.40625 
Q 37.984375 18.0625 35.515625 20.015625 
Q 33.0625 21.96875 24.703125 23.78125 
L 21.578125 24.515625 
Q 13.234375 26.265625 9.515625 29.90625 
Q 5.8125 33.546875 5.8125 39.890625 
Q 5.8125 47.609375 11.28125 51.796875 
Q 16.75 56 26.8125 56 
Q 31.78125 56 36.171875 55.265625 
Q 40.578125 54.546875 44.28125 53.078125 
z
" id="DejaVuSans-73"/>
     </defs>
     <g style="fill:#ff7f0e;" transform="translate(14.798437 283.588594)rotate(-90)scale(0.1 -0.1)">
      <use xlink:href="#DejaVuSans-52"/>
      <use x="69.419922" xlink:href="#DejaVuSans-65"/>
      <use x="130.943359" xlink:href="#DejaVuSans-66"/>
      <use x="166.148438" xlink:href="#DejaVuSans-75"/>
      <use x="229.527344" xlink:href="#DejaVuSans-67"/>
      <use x="293.003906" xlink:href="#DejaVuSans-65"/>
      <use x="354.527344" xlink:href="#DejaVuSans-65"/>
      <use x="416.050781" xlink:href="#DejaVuSans-73"/>
     </g>
    </g>
   </g>
   <g id="line2d_14">
    <path clip-path="url(#p8671693166)" d="M 104.055398 456.84498 
L 108.909682 456.153413 
L 113.763967 456.7107 
L 118.618251 457.807922 
L 123.472536 458.1736 
L 128.32682 454.977769 
L 133.181105 425.510866 
L 138.035389 426.269294 
L 142.889673 425.119907 
L 147.743958 421.215185 
L 152.598242 416.75166 
L 157.452527 410.580321 
L 162.306811 436.280279 
L 167.161096 436.928935 
L 172.01538 439.104247 
L 176.869665 440.837682 
L 181.723949 440.406985 
L 186.578234 436.527381 
L 191.432518 426.353931 
L 196.286803 427.509168 
L 201.141087 430.090778 
L 205.995372 431.880778 
L 210.849656 432.553854 
L 215.703941 429.035731 
L 220.558225 440.336876 
L 225.41251 440.763379 
L 230.266794 442.040298 
L 235.121078 442.785744 
L 239.975363 441.991331 
L 244.829647 437.92369 
L 249.683932 422.340795 
L 254.538216 420.686664 
L 259.392501 423.046281 
L 264.246785 426.193453 
L 269.10107 426.149882 
L 273.955354 423.049719 
L 278.809639 421.494546 
L 283.663923 423.292207 
L 288.518208 429.216283 
L 293.372492 434.528706 
L 298.226777 434.274699 
L 303.081061 431.430732 
L 307.935346 452.504598 
L 312.78963 452.584448 
L 322.498199 454.738912 
L 327.352483 454.830289 
L 332.206768 451.318381 
L 337.061052 457.899224 
L 341.915337 457.020284 
L 346.769621 457.45784 
L 351.623906 458.553356 
L 356.47819 458.985663 
L 361.332475 455.866602 
L 366.186759 457.899224 
L 371.041044 457.020284 
L 375.895328 457.45784 
L 380.749613 458.553356 
L 385.603897 458.985663 
L 390.458182 455.866602 
L 395.312466 457.899224 
L 400.16675 457.020284 
L 405.021035 457.45784 
L 409.875319 458.553356 
L 414.729604 458.985663 
L 419.583888 455.866602 
L 424.438173 457.899224 
L 429.292457 457.020284 
L 434.146742 457.45784 
L 439.001026 458.553356 
L 443.855311 458.985663 
L 448.709595 455.866602 
L 453.56388 465.562403 
L 458.418164 464.71675 
L 463.272449 465.106035 
L 468.126733 466.248663 
L 472.981018 466.595302 
L 477.835302 463.614571 
L 482.689587 479.777254 
L 487.543871 478.993333 
L 492.398155 479.293075 
L 497.25244 480.523096 
L 502.106724 480.710825 
L 506.961009 477.986688 
L 511.815293 478.758621 
L 516.669578 477.970274 
L 521.523862 478.276435 
L 526.378147 479.500192 
L 531.232431 479.699312 
L 536.086716 476.956786 
L 540.941 479.766615 
L 545.795285 478.982645 
L 550.649569 479.282455 
L 555.503854 480.512412 
L 560.358138 480.700259 
L 565.212423 477.975928 
L 570.066707 464.488317 
L 574.920991 463.637993 
L 579.775276 464.034044 
L 584.62956 465.170076 
L 589.483845 465.528719 
L 594.338129 462.5286 
L 599.192414 457.899224 
L 604.046698 457.020284 
L 608.900983 457.45784 
L 613.755267 458.553356 
L 618.609552 458.985663 
L 623.463836 455.866602 
L 628.318121 400.74928 
L 633.172405 402.869165 
L 638.02669 412.776843 
L 642.880974 422.363976 
L 647.735259 422.441906 
L 652.589543 420.975975 
L 657.443827 444.458131 
L 662.298112 445.968077 
L 667.152396 447.932192 
L 672.006681 449.049397 
L 676.860965 448.632256 
L 681.71525 444.534384 
L 686.569534 457.899224 
L 691.423819 457.020284 
L 696.278103 457.45784 
L 701.132388 458.553356 
L 705.986672 458.985663 
L 710.840957 455.866602 
L 715.695241 464.196608 
L 720.549526 463.345023 
L 725.40381 463.742913 
L 730.258095 464.877142 
L 735.112379 465.239044 
L 739.966663 462.233662 
L 744.820948 457.899224 
L 749.675232 457.020284 
L 754.529517 457.45784 
L 759.383801 458.553356 
L 764.238086 458.985663 
L 769.09237 455.866602 
L 773.946655 470.779038 
L 778.800939 469.956036 
L 783.655224 470.312464 
L 788.509508 471.487163 
L 793.363793 471.775483 
L 798.218077 468.88892 
L 803.072362 342.344517 
L 807.926646 340.809054 
L 812.780931 356.182878 
L 817.635215 373.689288 
L 822.4895 379.03681 
L 827.343784 382.825762 
L 832.198068 438.567594 
L 837.052353 439.594111 
L 841.906637 441.739181 
L 846.760922 443.240643 
L 851.615206 442.746422 
L 856.469491 438.738918 
L 861.323775 428.206408 
L 866.17806 427.521271 
L 871.032344 429.803324 
L 875.886629 432.355618 
L 880.740913 432.14914 
L 885.595198 428.721003 
L 890.449482 334.757148 
L 895.303767 318.276599 
L 900.158051 309.080879 
L 905.012336 304.50725 
L 909.86662 306.761966 
L 914.720904 304.823272 
L 919.575189 319.718197 
L 924.429473 315.387754 
L 929.283758 331.895787 
L 934.138042 352.578655 
L 938.992327 365.146851 
L 943.846611 373.387025 
L 948.700896 292.571754 
L 953.55518 258.823778 
L 958.409465 218.105331 
L 963.263749 173.545721 
L 968.118034 147.87468 
L 972.972318 135.554864 
L 977.826603 132.520145 
L 982.680887 120.863033 
L 987.535172 158.237715 
L 992.389456 207.988525 
L 997.24374 243.118845 
L 1002.098025 265.23568 
L 1006.952309 310.22582 
L 1011.806594 299.556362 
L 1016.660878 308.910261 
L 1021.515163 324.386296 
L 1026.369447 339.425751 
L 1031.223732 349.292547 
L 1036.078016 296.771048 
L 1040.932301 269.603239 
L 1045.786585 271.05378 
L 1050.64087 285.231571 
L 1055.495154 303.267133 
L 1060.349439 317.158839 
L 1065.203723 324.209005 
L 1070.058008 317.910215 
L 1074.912292 307.437917 
L 1079.766577 292.009856 
L 1084.620861 281.548115 
L 1089.475145 271.65792 
L 1094.32943 241.024342 
L 1099.183714 218.718498 
L 1104.037999 224.982828 
L 1108.892283 241.866759 
L 1113.746568 265.294716 
L 1118.600852 279.667734 
L 1118.600852 279.667734 
" style="fill:none;stroke:#008000;stroke-dasharray:5.55,2.4;stroke-dashoffset:0;stroke-width:1.5;"/>
   </g>
   <g id="line2d_15">
    <path clip-path="url(#p8671693166)" d="M 104.055398 447.320984 
L 108.909682 460.816066 
L 113.763967 455.583279 
L 118.618251 454.757049 
L 123.472536 446.770164 
L 128.32682 442.088197 
L 133.181105 417.852131 
L 138.035389 402.70459 
L 142.889673 380.671803 
L 147.743958 431.347213 
L 152.598242 430.245574 
L 157.452527 431.347213 
L 162.306811 429.970164 
L 167.161096 421.157049 
L 172.01538 434.376721 
L 176.869665 433.275082 
L 181.723949 440.435738 
L 186.578234 432.173443 
L 191.432518 439.058689 
L 196.286803 416.475082 
L 201.141087 418.678361 
L 205.995372 426.665246 
L 210.849656 421.707869 
L 215.703941 436.02918 
L 220.558225 406.560328 
L 225.41251 423.360328 
L 230.266794 425.839016 
L 235.121078 408.763607 
L 239.975363 406.560328 
L 244.829647 419.78 
L 249.683932 412.343934 
L 254.538216 429.970164 
L 259.392501 428.317705 
L 264.246785 428.593115 
L 269.10107 442.088197 
L 273.955354 424.186557 
L 278.809639 407.661967 
L 283.663923 429.970164 
L 288.518208 440.160328 
L 293.372492 437.13082 
L 298.226777 449.799672 
L 303.081061 451.176721 
L 307.935346 460.540656 
L 312.78963 453.10459 
L 317.643914 452.82918 
L 322.498199 461.091475 
L 327.352483 473.484918 
L 332.206768 466.324262 
L 337.061052 458.061967 
L 341.915337 459.989836 
L 346.769621 458.888197 
L 351.623906 463.570164 
L 356.47819 463.570164 
L 361.332475 456.960328 
L 366.186759 471.00623 
L 371.041044 460.265246 
L 375.895328 457.235738 
L 380.749613 461.366885 
L 385.603897 469.35377 
L 390.458182 463.845574 
L 395.312466 458.061967 
L 400.16675 468.527541 
L 405.021035 467.425902 
L 409.875319 442.914426 
L 414.729604 467.150492 
L 419.583888 463.019344 
L 424.438173 466.324262 
L 429.292457 457.786557 
L 434.146742 440.711148 
L 439.001026 458.337377 
L 443.855311 469.35377 
L 448.709595 469.35377 
L 453.56388 476.239016 
L 458.418164 482.022623 
L 463.272449 478.993115 
L 468.126733 464.396393 
L 472.981018 475.963607 
L 477.835302 480.645574 
L 482.689587 480.920984 
L 487.543871 480.094754 
L 497.25244 484.501311 
L 502.106724 483.124262 
L 506.961009 486.42918 
L 511.815293 483.675082 
L 516.669578 479.819344 
L 521.523862 486.98 
L 526.378147 481.471803 
L 531.232431 482.298033 
L 536.086716 486.70459 
L 540.941 483.399672 
L 545.795285 476.239016 
L 550.649569 478.166885 
L 555.503854 476.789836 
L 560.358138 474.311148 
L 565.212423 468.252131 
L 570.066707 466.875082 
L 574.920991 469.62918 
L 579.775276 474.035738 
L 584.62956 463.570164 
L 589.483845 461.091475 
L 594.338129 451.452131 
L 599.192414 432.724262 
L 604.046698 451.176721 
L 608.900983 425.288197 
L 613.755267 374.061967 
L 618.609552 395.819344 
L 623.463836 391.137377 
L 628.318121 367.452131 
L 633.172405 382.324262 
L 638.02669 405.183279 
L 642.880974 413.445574 
L 652.589543 453.93082 
L 657.443827 466.875082 
L 662.298112 463.845574 
L 667.152396 468.252131 
L 672.006681 456.409508 
L 676.860965 438.783279 
L 681.71525 467.701311 
L 686.569534 459.714426 
L 691.423819 467.425902 
L 696.278103 469.35377 
L 701.132388 473.209508 
L 705.986672 464.396393 
L 710.840957 467.150492 
L 715.695241 475.688197 
L 720.549526 466.875082 
L 725.40381 461.917705 
L 730.258095 458.061967 
L 735.112379 455.858689 
L 739.966663 467.425902 
L 744.820948 461.917705 
L 749.675232 469.35377 
L 754.529517 466.599672 
L 759.383801 463.019344 
L 764.238086 469.62918 
L 769.09237 474.586557 
L 773.946655 466.048852 
L 778.800939 466.048852 
L 783.655224 462.468525 
L 788.509508 446.219344 
L 793.363793 234.70459 
L 803.072362 318.98 
L 807.926646 373.511148 
L 812.780931 368.82918 
L 817.635215 409.314426 
L 822.4895 446.770164 
L 827.343784 459.989836 
L 832.198068 463.019344 
L 837.052353 452.82918 
L 841.906637 445.117705 
L 846.760922 441.261967 
L 851.615206 433.825902 
L 856.469491 436.02918 
L 861.323775 412.894754 
L 866.17806 433.550492 
L 871.032344 418.678361 
L 875.886629 392.789836 
L 880.740913 380.396393 
L 885.595198 412.894754 
L 890.449482 353.40623 
L 895.303767 297.773443 
L 900.158051 239.111148 
L 905.012336 287.858689 
L 909.86662 332.199672 
L 914.720904 313.747213 
L 919.575189 303.557049 
L 924.429473 328.068525 
L 929.283758 339.911148 
L 934.138042 328.894754 
L 938.992327 378.743934 
L 943.846611 381.773443 
L 948.700896 309.891475 
L 953.55518 293.917705 
L 958.409465 212.120984 
L 963.263749 168.881639 
L 968.118034 33.38 
L 972.972318 139.963607 
L 977.826603 123.714426 
L 982.680887 183.75377 
L 987.535172 109.943934 
L 992.389456 119.858689 
L 997.24374 246.547213 
L 1002.098025 300.802951 
L 1006.952309 322.009508 
L 1011.806594 315.124262 
L 1016.660878 266.101311 
L 1021.515163 343.766885 
L 1026.369447 318.42918 
L 1031.223732 325.865246 
L 1036.078016 281.799672 
L 1040.932301 261.419344 
L 1045.786585 221.760328 
L 1050.64087 253.707869 
L 1055.495154 287.583279 
L 1060.349439 367.727541 
L 1065.203723 356.160328 
L 1070.058008 329.720984 
L 1074.912292 314.848852 
L 1079.766577 304.383279 
L 1084.620861 276.291475 
L 1089.475145 250.127541 
L 1094.32943 244.894754 
L 1099.183714 209.917705 
L 1104.037999 226.442295 
L 1108.892283 206.888197 
L 1113.746568 251.22918 
L 1118.600852 302.45541 
L 1118.600852 302.45541 
" style="fill:none;stroke:#ff7f0e;stroke-linecap:square;stroke-width:1.5;"/>
   </g>
   <g id="line2d_16">
    <defs>
     <path d="M 0 3 
C 0.795609 3 1.55874 2.683901 2.12132 2.12132 
C 2.683901 1.55874 3 0.795609 3 0 
C 3 -0.795609 2.683901 -1.55874 2.12132 -2.12132 
C 1.55874 -2.683901 0.795609 -3 0 -3 
C -0.795609 -3 -1.55874 -2.683901 -2.12132 -2.12132 
C -2.683901 -1.55874 -3 -0.795609 -3 0 
C -3 0.795609 -2.683901 1.55874 -2.12132 2.12132 
C -1.55874 2.683901 -0.795609 3 0 3 
z
" id="m4eaf884065" style="stroke:#008000;"/>
    </defs>
    <g clip-path="url(#p8671693166)">
     <use style="fill:#008000;stroke:#008000;" x="104.055398" xlink:href="#m4eaf884065" y="456.84498"/>
     <use style="fill:#008000;stroke:#008000;" x="133.181105" xlink:href="#m4eaf884065" y="425.510866"/>
     <use style="fill:#008000;stroke:#008000;" x="162.306811" xlink:href="#m4eaf884065" y="436.280279"/>
     <use style="fill:#008000;stroke:#008000;" x="191.432518" xlink:href="#m4eaf884065" y="426.353931"/>
     <use style="fill:#008000;stroke:#008000;" x="220.558225" xlink:href="#m4eaf884065" y="440.336876"/>
     <use style="fill:#008000;stroke:#008000;" x="249.683932" xlink:href="#m4eaf884065" y="422.340795"/>
     <use style="fill:#008000;stroke:#008000;" x="278.809639" xlink:href="#m4eaf884065" y="421.494546"/>
     <use style="fill:#008000;stroke:#008000;" x="307.935346" xlink:href="#m4eaf884065" y="452.504598"/>
     <use style="fill:#008000;stroke:#008000;" x="337.061052" xlink:href="#m4eaf884065" y="457.899224"/>
     <use style="fill:#008000;stroke:#008000;" x="366.186759" xlink:href="#m4eaf884065" y="457.899224"/>
     <use style="fill:#008000;stroke:#008000;" x="395.312466" xlink:href="#m4eaf884065" y="457.899224"/>
     <use style="fill:#008000;stroke:#008000;" x="424.438173" xlink:href="#m4eaf884065" y="457.899224"/>
     <use style="fill:#008000;stroke:#008000;" x="453.56388" xlink:href="#m4eaf884065" y="465.562403"/>
     <use style="fill:#008000;stroke:#008000;" x="482.689587" xlink:href="#m4eaf884065" y="479.777254"/>
     <use style="fill:#008000;stroke:#008000;" x="511.815293" xlink:href="#m4eaf884065" y="478.758621"/>
     <use style="fill:#008000;stroke:#008000;" x="540.941" xlink:href="#m4eaf884065" y="479.766615"/>
     <use style="fill:#008000;stroke:#008000;" x="570.066707" xlink:href="#m4eaf884065" y="464.488317"/>
     <use style="fill:#008000;stroke:#008000;" x="599.192414" xlink:href="#m4eaf884065" y="457.899224"/>
     <use style="fill:#008000;stroke:#008000;" x="628.318121" xlink:href="#m4eaf884065" y="400.74928"/>
     <use style="fill:#008000;stroke:#008000;" x="657.443827" xlink:href="#m4eaf884065" y="444.458131"/>
     <use style="fill:#008000;stroke:#008000;" x="686.569534" xlink:href="#m4eaf884065" y="457.899224"/>
     <use style="fill:#008000;stroke:#008000;" x="715.695241" xlink:href="#m4eaf884065" y="464.196608"/>
     <use style="fill:#008000;stroke:#008000;" x="744.820948" xlink:href="#m4eaf884065" y="457.899224"/>
     <use style="fill:#008000;stroke:#008000;" x="773.946655" xlink:href="#m4eaf884065" y="470.779038"/>
     <use style="fill:#008000;stroke:#008000;" x="803.072362" xlink:href="#m4eaf884065" y="342.344517"/>
     <use style="fill:#008000;stroke:#008000;" x="832.198068" xlink:href="#m4eaf884065" y="438.567594"/>
     <use style="fill:#008000;stroke:#008000;" x="861.323775" xlink:href="#m4eaf884065" y="428.206408"/>
     <use style="fill:#008000;stroke:#008000;" x="890.449482" xlink:href="#m4eaf884065" y="334.757148"/>
     <use style="fill:#008000;stroke:#008000;" x="919.575189" xlink:href="#m4eaf884065" y="319.718197"/>
     <use style="fill:#008000;stroke:#008000;" x="948.700896" xlink:href="#m4eaf884065" y="292.571754"/>
     <use style="fill:#008000;stroke:#008000;" x="977.826603" xlink:href="#m4eaf884065" y="132.520145"/>
     <use style="fill:#008000;stroke:#008000;" x="1006.952309" xlink:href="#m4eaf884065" y="310.22582"/>
     <use style="fill:#008000;stroke:#008000;" x="1036.078016" xlink:href="#m4eaf884065" y="296.771048"/>
     <use style="fill:#008000;stroke:#008000;" x="1065.203723" xlink:href="#m4eaf884065" y="324.209005"/>
     <use style="fill:#008000;stroke:#008000;" x="1094.32943" xlink:href="#m4eaf884065" y="241.024342"/>
    </g>
   </g>
   <g id="patch_3">
    <path d="M 53.328125 509.66 
L 53.328125 10.7 
" style="fill:none;stroke:#000000;stroke-linecap:square;stroke-linejoin:miter;stroke-width:0.8;"/>
   </g>
   <g id="patch_4">
    <path d="M 1169.328125 509.66 
L 1169.328125 10.7 
" style="fill:none;stroke:#000000;stroke-linecap:square;stroke-linejoin:miter;stroke-width:0.8;"/>
   </g>
   <g id="patch_5">
    <path d="M 53.328125 509.66 
L 1169.328125 509.66 
" style="fill:none;stroke:#000000;stroke-linecap:square;stroke-linejoin:miter;stroke-width:0.8;"/>
   </g>
   <g id="patch_6">
    <path d="M 53.328125 10.7 
L 1169.328125 10.7 
" style="fill:none;stroke:#000000;stroke-linecap:square;stroke-linejoin:miter;stroke-width:0.8;"/>
   </g>
   <g id="legend_1">
    <g id="patch_7">
     <path d="M 60.328125 62.734375 
L 208.103125 62.734375 
Q 210.103125 62.734375 210.103125 60.734375 
L 210.103125 17.7 
Q 210.103125 15.7 208.103125 15.7 
L 60.328125 15.7 
Q 58.328125 15.7 58.328125 17.7 
L 58.328125 60.734375 
Q 58.328125 62.734375 60.328125 62.734375 
z
" style="fill:#ffffff;opacity:0.8;stroke:#cccccc;stroke-linejoin:miter;"/>
    </g>
    <g id="line2d_17">
     <path d="M 62.328125 23.798437 
L 82.328125 23.798437 
" style="fill:none;stroke:#008000;stroke-dasharray:5.55,2.4;stroke-dashoffset:0;stroke-width:1.5;"/>
    </g>
    <g id="line2d_18"/>
    <g id="text_16">
     <!-- Predicated -->
     <defs>
      <path d="M 19.671875 64.796875 
L 19.671875 37.40625 
L 32.078125 37.40625 
Q 38.96875 37.40625 42.71875 40.96875 
Q 46.484375 44.53125 46.484375 51.125 
Q 46.484375 57.671875 42.71875 61.234375 
Q 38.96875 64.796875 32.078125 64.796875 
z
M 9.8125 72.90625 
L 32.078125 72.90625 
Q 44.34375 72.90625 50.609375 67.359375 
Q 56.890625 61.8125 56.890625 51.125 
Q 56.890625 40.328125 50.609375 34.8125 
Q 44.34375 29.296875 32.078125 29.296875 
L 19.671875 29.296875 
L 19.671875 0 
L 9.8125 0 
z
" id="DejaVuSans-50"/>
      <path d="M 41.109375 46.296875 
Q 39.59375 47.171875 37.8125 47.578125 
Q 36.03125 48 33.890625 48 
Q 26.265625 48 22.1875 43.046875 
Q 18.109375 38.09375 18.109375 28.8125 
L 18.109375 0 
L 9.078125 0 
L 9.078125 54.6875 
L 18.109375 54.6875 
L 18.109375 46.1875 
Q 20.953125 51.171875 25.484375 53.578125 
Q 30.03125 56 36.53125 56 
Q 37.453125 56 38.578125 55.875 
Q 39.703125 55.765625 41.0625 55.515625 
z
" id="DejaVuSans-72"/>
      <path d="M 45.40625 46.390625 
L 45.40625 75.984375 
L 54.390625 75.984375 
L 54.390625 0 
L 45.40625 0 
L 45.40625 8.203125 
Q 42.578125 3.328125 38.25 0.953125 
Q 33.9375 -1.421875 27.875 -1.421875 
Q 17.96875 -1.421875 11.734375 6.484375 
Q 5.515625 14.40625 5.515625 27.296875 
Q 5.515625 40.1875 11.734375 48.09375 
Q 17.96875 56 27.875 56 
Q 33.9375 56 38.25 53.625 
Q 42.578125 51.265625 45.40625 46.390625 
z
M 14.796875 27.296875 
Q 14.796875 17.390625 18.875 11.75 
Q 22.953125 6.109375 30.078125 6.109375 
Q 37.203125 6.109375 41.296875 11.75 
Q 45.40625 17.390625 45.40625 27.296875 
Q 45.40625 37.203125 41.296875 42.84375 
Q 37.203125 48.484375 30.078125 48.484375 
Q 22.953125 48.484375 18.875 42.84375 
Q 14.796875 37.203125 14.796875 27.296875 
z
" id="DejaVuSans-64"/>
      <path d="M 48.78125 52.59375 
L 48.78125 44.1875 
Q 44.96875 46.296875 41.140625 47.34375 
Q 37.3125 48.390625 33.40625 48.390625 
Q 24.65625 48.390625 19.8125 42.84375 
Q 14.984375 37.3125 14.984375 27.296875 
Q 14.984375 17.28125 19.8125 11.734375 
Q 24.65625 6.203125 33.40625 6.203125 
Q 37.3125 6.203125 41.140625 7.25 
Q 44.96875 8.296875 48.78125 10.40625 
L 48.78125 2.09375 
Q 45.015625 0.34375 40.984375 -0.53125 
Q 36.96875 -1.421875 32.421875 -1.421875 
Q 20.0625 -1.421875 12.78125 6.34375 
Q 5.515625 14.109375 5.515625 27.296875 
Q 5.515625 40.671875 12.859375 48.328125 
Q 20.21875 56 33.015625 56 
Q 37.15625 56 41.109375 55.140625 
Q 45.0625 54.296875 48.78125 52.59375 
z
" id="DejaVuSans-63"/>
      <path d="M 34.28125 27.484375 
Q 23.390625 27.484375 19.1875 25 
Q 14.984375 22.515625 14.984375 16.5 
Q 14.984375 11.71875 18.140625 8.90625 
Q 21.296875 6.109375 26.703125 6.109375 
Q 34.1875 6.109375 38.703125 11.40625 
Q 43.21875 16.703125 43.21875 25.484375 
L 43.21875 27.484375 
z
M 52.203125 31.203125 
L 52.203125 0 
L 43.21875 0 
L 43.21875 8.296875 
Q 40.140625 3.328125 35.546875 0.953125 
Q 30.953125 -1.421875 24.3125 -1.421875 
Q 15.921875 -1.421875 10.953125 3.296875 
Q 6 8.015625 6 15.921875 
Q 6 25.140625 12.171875 29.828125 
Q 18.359375 34.515625 30.609375 34.515625 
L 43.21875 34.515625 
L 43.21875 35.40625 
Q 43.21875 41.609375 39.140625 45 
Q 35.0625 48.390625 27.6875 48.390625 
Q 23 48.390625 18.546875 47.265625 
Q 14.109375 46.140625 10.015625 43.890625 
L 10.015625 52.203125 
Q 14.9375 54.109375 19.578125 55.046875 
Q 24.21875 56 28.609375 56 
Q 40.484375 56 46.34375 49.84375 
Q 52.203125 43.703125 52.203125 31.203125 
z
" id="DejaVuSans-61"/>
      <path d="M 18.3125 70.21875 
L 18.3125 54.6875 
L 36.8125 54.6875 
L 36.8125 47.703125 
L 18.3125 47.703125 
L 18.3125 18.015625 
Q 18.3125 11.328125 20.140625 9.421875 
Q 21.96875 7.515625 27.59375 7.515625 
L 36.8125 7.515625 
L 36.8125 0 
L 27.59375 0 
Q 17.1875 0 13.234375 3.875 
Q 9.28125 7.765625 9.28125 18.015625 
L 9.28125 47.703125 
L 2.6875 47.703125 
L 2.6875 54.6875 
L 9.28125 54.6875 
L 9.28125 70.21875 
z
" id="DejaVuSans-74"/>
     </defs>
     <g transform="translate(90.328125 27.298437)scale(0.1 -0.1)">
      <use xlink:href="#DejaVuSans-50"/>
      <use x="60.287109" xlink:href="#DejaVuSans-72"/>
      <use x="101.369141" xlink:href="#DejaVuSans-65"/>
      <use x="162.892578" xlink:href="#DejaVuSans-64"/>
      <use x="226.369141" xlink:href="#DejaVuSans-69"/>
      <use x="254.152344" xlink:href="#DejaVuSans-63"/>
      <use x="309.132812" xlink:href="#DejaVuSans-61"/>
      <use x="370.412109" xlink:href="#DejaVuSans-74"/>
      <use x="409.621094" xlink:href="#DejaVuSans-65"/>
      <use x="471.144531" xlink:href="#DejaVuSans-64"/>
     </g>
    </g>
    <g id="line2d_19">
     <path d="M 62.328125 38.476562 
L 82.328125 38.476562 
" style="fill:none;stroke:#ff7f0e;stroke-linecap:square;stroke-width:1.5;"/>
    </g>
    <g id="line2d_20"/>
    <g id="text_17">
     <!-- Real Data -->
     <defs>
      <path d="M 9.421875 75.984375 
L 18.40625 75.984375 
L 18.40625 0 
L 9.421875 0 
z
" id="DejaVuSans-6c"/>
      <path id="DejaVuSans-20"/>
      <path d="M 19.671875 64.796875 
L 19.671875 8.109375 
L 31.59375 8.109375 
Q 46.6875 8.109375 53.6875 14.9375 
Q 60.6875 21.78125 60.6875 36.53125 
Q 60.6875 51.171875 53.6875 57.984375 
Q 46.6875 64.796875 31.59375 64.796875 
z
M 9.8125 72.90625 
L 30.078125 72.90625 
Q 51.265625 72.90625 61.171875 64.09375 
Q 71.09375 55.28125 71.09375 36.53125 
Q 71.09375 17.671875 61.125 8.828125 
Q 51.171875 0 30.078125 0 
L 9.8125 0 
z
" id="DejaVuSans-44"/>
     </defs>
     <g transform="translate(90.328125 41.976562)scale(0.1 -0.1)">
      <use xlink:href="#DejaVuSans-52"/>
      <use x="69.419922" xlink:href="#DejaVuSans-65"/>
      <use x="130.943359" xlink:href="#DejaVuSans-61"/>
      <use x="192.222656" xlink:href="#DejaVuSans-6c"/>
      <use x="220.005859" xlink:href="#DejaVuSans-20"/>
      <use x="251.792969" xlink:href="#DejaVuSans-44"/>
      <use x="328.794922" xlink:href="#DejaVuSans-61"/>
      <use x="390.074219" xlink:href="#DejaVuSans-74"/>
      <use x="429.283203" xlink:href="#DejaVuSans-61"/>
     </g>
    </g>
    <g id="line2d_21"/>
    <g id="line2d_22">
     <g>
      <use style="fill:#008000;stroke:#008000;" x="72.328125" xlink:href="#m4eaf884065" y="53.154688"/>
     </g>
    </g>
    <g id="text_18">
     <!-- Start Point for Forecast -->
     <defs>
      <path d="M 53.515625 70.515625 
L 53.515625 60.890625 
Q 47.90625 63.578125 42.921875 64.890625 
Q 37.9375 66.21875 33.296875 66.21875 
Q 25.25 66.21875 20.875 63.09375 
Q 16.5 59.96875 16.5 54.203125 
Q 16.5 49.359375 19.40625 46.890625 
Q 22.3125 44.4375 30.421875 42.921875 
L 36.375 41.703125 
Q 47.40625 39.59375 52.65625 34.296875 
Q 57.90625 29 57.90625 20.125 
Q 57.90625 9.515625 50.796875 4.046875 
Q 43.703125 -1.421875 29.984375 -1.421875 
Q 24.8125 -1.421875 18.96875 -0.25 
Q 13.140625 0.921875 6.890625 3.21875 
L 6.890625 13.375 
Q 12.890625 10.015625 18.65625 8.296875 
Q 24.421875 6.59375 29.984375 6.59375 
Q 38.421875 6.59375 43.015625 9.90625 
Q 47.609375 13.234375 47.609375 19.390625 
Q 47.609375 24.75 44.3125 27.78125 
Q 41.015625 30.8125 33.5 32.328125 
L 27.484375 33.5 
Q 16.453125 35.6875 11.515625 40.375 
Q 6.59375 45.0625 6.59375 53.421875 
Q 6.59375 63.09375 13.40625 68.65625 
Q 20.21875 74.21875 32.171875 74.21875 
Q 37.3125 74.21875 42.625 73.28125 
Q 47.953125 72.359375 53.515625 70.515625 
z
" id="DejaVuSans-53"/>
      <path d="M 30.609375 48.390625 
Q 23.390625 48.390625 19.1875 42.75 
Q 14.984375 37.109375 14.984375 27.296875 
Q 14.984375 17.484375 19.15625 11.84375 
Q 23.34375 6.203125 30.609375 6.203125 
Q 37.796875 6.203125 41.984375 11.859375 
Q 46.1875 17.53125 46.1875 27.296875 
Q 46.1875 37.015625 41.984375 42.703125 
Q 37.796875 48.390625 30.609375 48.390625 
z
M 30.609375 56 
Q 42.328125 56 49.015625 48.375 
Q 55.71875 40.765625 55.71875 27.296875 
Q 55.71875 13.875 49.015625 6.21875 
Q 42.328125 -1.421875 30.609375 -1.421875 
Q 18.84375 -1.421875 12.171875 6.21875 
Q 5.515625 13.875 5.515625 27.296875 
Q 5.515625 40.765625 12.171875 48.375 
Q 18.84375 56 30.609375 56 
z
" id="DejaVuSans-6f"/>
      <path d="M 54.890625 33.015625 
L 54.890625 0 
L 45.90625 0 
L 45.90625 32.71875 
Q 45.90625 40.484375 42.875 44.328125 
Q 39.84375 48.1875 33.796875 48.1875 
Q 26.515625 48.1875 22.3125 43.546875 
Q 18.109375 38.921875 18.109375 30.90625 
L 18.109375 0 
L 9.078125 0 
L 9.078125 54.6875 
L 18.109375 54.6875 
L 18.109375 46.1875 
Q 21.34375 51.125 25.703125 53.5625 
Q 30.078125 56 35.796875 56 
Q 45.21875 56 50.046875 50.171875 
Q 54.890625 44.34375 54.890625 33.015625 
z
" id="DejaVuSans-6e"/>
      <path d="M 9.8125 72.90625 
L 51.703125 72.90625 
L 51.703125 64.59375 
L 19.671875 64.59375 
L 19.671875 43.109375 
L 48.578125 43.109375 
L 48.578125 34.8125 
L 19.671875 34.8125 
L 19.671875 0 
L 9.8125 0 
z
" id="DejaVuSans-46"/>
     </defs>
     <g transform="translate(90.328125 56.654688)scale(0.1 -0.1)">
      <use xlink:href="#DejaVuSans-53"/>
      <use x="63.476562" xlink:href="#DejaVuSans-74"/>
      <use x="102.685547" xlink:href="#DejaVuSans-61"/>
      <use x="163.964844" xlink:href="#DejaVuSans-72"/>
      <use x="205.078125" xlink:href="#DejaVuSans-74"/>
      <use x="244.287109" xlink:href="#DejaVuSans-20"/>
      <use x="276.074219" xlink:href="#DejaVuSans-50"/>
      <use x="336.330078" xlink:href="#DejaVuSans-6f"/>
      <use x="397.511719" xlink:href="#DejaVuSans-69"/>
      <use x="425.294922" xlink:href="#DejaVuSans-6e"/>
      <use x="488.673828" xlink:href="#DejaVuSans-74"/>
      <use x="527.882812" xlink:href="#DejaVuSans-20"/>
      <use x="559.669922" xlink:href="#DejaVuSans-66"/>
      <use x="594.875" xlink:href="#DejaVuSans-6f"/>
      <use x="656.056641" xlink:href="#DejaVuSans-72"/>
      <use x="697.169922" xlink:href="#DejaVuSans-20"/>
      <use x="728.957031" xlink:href="#DejaVuSans-46"/>
      <use x="786.429688" xlink:href="#DejaVuSans-6f"/>
      <use x="847.611328" xlink:href="#DejaVuSans-72"/>
      <use x="888.693359" xlink:href="#DejaVuSans-65"/>
      <use x="950.216797" xlink:href="#DejaVuSans-63"/>
      <use x="1005.197266" xlink:href="#DejaVuSans-61"/>
      <use x="1066.476562" xlink:href="#DejaVuSans-73"/>
      <use x="1118.576172" xlink:href="#DejaVuSans-74"/>
     </g>
    </g>
   </g>
  </g>
  <g id="axes_2">
   <g id="patch_8">
    <path d="M 53.328125 645.74 
L 1170.768125 645.74 
L 1170.768125 516.14 
L 53.328125 516.14 
z
" style="fill:none;"/>
   </g>
   <g id="matplotlib.axis_3">
    <g id="xtick_6">
     <g id="line2d_23">
      <g>
       <use style="stroke:#000000;stroke-width:0.8;" x="104.120852" xlink:href="#mb39b43194f" y="645.74"/>
      </g>
     </g>
     <g id="text_19">
      <!-- 0 -->
      <g transform="translate(100.939602 660.338437)scale(0.1 -0.1)">
       <use xlink:href="#DejaVuSans-30"/>
      </g>
     </g>
    </g>
    <g id="xtick_7">
     <g id="line2d_24">
      <g>
       <use style="stroke:#000000;stroke-width:0.8;" x="228.612831" xlink:href="#mb39b43194f" y="645.74"/>
      </g>
     </g>
     <g id="text_20">
      <!-- 25 -->
      <g transform="translate(222.250331 660.338437)scale(0.1 -0.1)">
       <use xlink:href="#DejaVuSans-32"/>
       <use x="63.623047" xlink:href="#DejaVuSans-35"/>
      </g>
     </g>
    </g>
    <g id="xtick_8">
     <g id="line2d_25">
      <g>
       <use style="stroke:#000000;stroke-width:0.8;" x="353.104809" xlink:href="#mb39b43194f" y="645.74"/>
      </g>
     </g>
     <g id="text_21">
      <!-- 50 -->
      <g transform="translate(346.742309 660.338437)scale(0.1 -0.1)">
       <use xlink:href="#DejaVuSans-35"/>
       <use x="63.623047" xlink:href="#DejaVuSans-30"/>
      </g>
     </g>
    </g>
    <g id="xtick_9">
     <g id="line2d_26">
      <g>
       <use style="stroke:#000000;stroke-width:0.8;" x="477.596788" xlink:href="#mb39b43194f" y="645.74"/>
      </g>
     </g>
     <g id="text_22">
      <!-- 75 -->
      <g transform="translate(471.234288 660.338437)scale(0.1 -0.1)">
       <use xlink:href="#DejaVuSans-37"/>
       <use x="63.623047" xlink:href="#DejaVuSans-35"/>
      </g>
     </g>
    </g>
    <g id="xtick_10">
     <g id="line2d_27">
      <g>
       <use style="stroke:#000000;stroke-width:0.8;" x="602.088767" xlink:href="#mb39b43194f" y="645.74"/>
      </g>
     </g>
     <g id="text_23">
      <!-- 100 -->
      <g transform="translate(592.545017 660.338437)scale(0.1 -0.1)">
       <use xlink:href="#DejaVuSans-31"/>
       <use x="63.623047" xlink:href="#DejaVuSans-30"/>
       <use x="127.246094" xlink:href="#DejaVuSans-30"/>
      </g>
     </g>
    </g>
    <g id="xtick_11">
     <g id="line2d_28">
      <g>
       <use style="stroke:#000000;stroke-width:0.8;" x="726.580745" xlink:href="#mb39b43194f" y="645.74"/>
      </g>
     </g>
     <g id="text_24">
      <!-- 125 -->
      <g transform="translate(717.036995 660.338437)scale(0.1 -0.1)">
       <use xlink:href="#DejaVuSans-31"/>
       <use x="63.623047" xlink:href="#DejaVuSans-32"/>
       <use x="127.246094" xlink:href="#DejaVuSans-35"/>
      </g>
     </g>
    </g>
    <g id="xtick_12">
     <g id="line2d_29">
      <g>
       <use style="stroke:#000000;stroke-width:0.8;" x="851.072724" xlink:href="#mb39b43194f" y="645.74"/>
      </g>
     </g>
     <g id="text_25">
      <!-- 150 -->
      <g transform="translate(841.528974 660.338437)scale(0.1 -0.1)">
       <use xlink:href="#DejaVuSans-31"/>
       <use x="63.623047" xlink:href="#DejaVuSans-35"/>
       <use x="127.246094" xlink:href="#DejaVuSans-30"/>
      </g>
     </g>
    </g>
    <g id="xtick_13">
     <g id="line2d_30">
      <g>
       <use style="stroke:#000000;stroke-width:0.8;" x="975.564703" xlink:href="#mb39b43194f" y="645.74"/>
      </g>
     </g>
     <g id="text_26">
      <!-- 175 -->
      <g transform="translate(966.020953 660.338437)scale(0.1 -0.1)">
       <use xlink:href="#DejaVuSans-31"/>
       <use x="63.623047" xlink:href="#DejaVuSans-37"/>
       <use x="127.246094" xlink:href="#DejaVuSans-35"/>
      </g>
     </g>
    </g>
    <g id="xtick_14">
     <g id="line2d_31">
      <g>
       <use style="stroke:#000000;stroke-width:0.8;" x="1100.056681" xlink:href="#mb39b43194f" y="645.74"/>
      </g>
     </g>
     <g id="text_27">
      <!-- 200 -->
      <g transform="translate(1090.512931 660.338437)scale(0.1 -0.1)">
       <use xlink:href="#DejaVuSans-32"/>
       <use x="63.623047" xlink:href="#DejaVuSans-30"/>
       <use x="127.246094" xlink:href="#DejaVuSans-30"/>
      </g>
     </g>
    </g>
   </g>
   <g id="matplotlib.axis_4">
    <g id="ytick_9">
     <g id="line2d_32">
      <g>
       <use style="stroke:#000000;stroke-width:0.8;" x="53.328125" xlink:href="#mbef689a02c" y="635.053375"/>
      </g>
     </g>
     <g id="text_28">
      <!-- 10 -->
      <g transform="translate(33.603125 638.852594)scale(0.1 -0.1)">
       <use xlink:href="#DejaVuSans-31"/>
       <use x="63.623047" xlink:href="#DejaVuSans-30"/>
      </g>
     </g>
    </g>
    <g id="ytick_10">
     <g id="line2d_33">
      <g>
       <use style="stroke:#000000;stroke-width:0.8;" x="53.328125" xlink:href="#mbef689a02c" y="599.484763"/>
      </g>
     </g>
     <g id="text_29">
      <!-- 20 -->
      <g transform="translate(33.603125 603.283982)scale(0.1 -0.1)">
       <use xlink:href="#DejaVuSans-32"/>
       <use x="63.623047" xlink:href="#DejaVuSans-30"/>
      </g>
     </g>
    </g>
    <g id="ytick_11">
     <g id="line2d_34">
      <g>
       <use style="stroke:#000000;stroke-width:0.8;" x="53.328125" xlink:href="#mbef689a02c" y="563.916151"/>
      </g>
     </g>
     <g id="text_30">
      <!-- 30 -->
      <defs>
       <path d="M 40.578125 39.3125 
Q 47.65625 37.796875 51.625 33 
Q 55.609375 28.21875 55.609375 21.1875 
Q 55.609375 10.40625 48.1875 4.484375 
Q 40.765625 -1.421875 27.09375 -1.421875 
Q 22.515625 -1.421875 17.65625 -0.515625 
Q 12.796875 0.390625 7.625 2.203125 
L 7.625 11.71875 
Q 11.71875 9.328125 16.59375 8.109375 
Q 21.484375 6.890625 26.8125 6.890625 
Q 36.078125 6.890625 40.9375 10.546875 
Q 45.796875 14.203125 45.796875 21.1875 
Q 45.796875 27.640625 41.28125 31.265625 
Q 36.765625 34.90625 28.71875 34.90625 
L 20.21875 34.90625 
L 20.21875 43.015625 
L 29.109375 43.015625 
Q 36.375 43.015625 40.234375 45.921875 
Q 44.09375 48.828125 44.09375 54.296875 
Q 44.09375 59.90625 40.109375 62.90625 
Q 36.140625 65.921875 28.71875 65.921875 
Q 24.65625 65.921875 20.015625 65.03125 
Q 15.375 64.15625 9.8125 62.3125 
L 9.8125 71.09375 
Q 15.4375 72.65625 20.34375 73.4375 
Q 25.25 74.21875 29.59375 74.21875 
Q 40.828125 74.21875 47.359375 69.109375 
Q 53.90625 64.015625 53.90625 55.328125 
Q 53.90625 49.265625 50.4375 45.09375 
Q 46.96875 40.921875 40.578125 39.3125 
z
" id="DejaVuSans-33"/>
      </defs>
      <g transform="translate(33.603125 567.71537)scale(0.1 -0.1)">
       <use xlink:href="#DejaVuSans-33"/>
       <use x="63.623047" xlink:href="#DejaVuSans-30"/>
      </g>
     </g>
    </g>
    <g id="ytick_12">
     <g id="line2d_35">
      <g>
       <use style="stroke:#000000;stroke-width:0.8;" x="53.328125" xlink:href="#mbef689a02c" y="528.347539"/>
      </g>
     </g>
     <g id="text_31">
      <!-- 40 -->
      <defs>
       <path d="M 37.796875 64.3125 
L 12.890625 25.390625 
L 37.796875 25.390625 
z
M 35.203125 72.90625 
L 47.609375 72.90625 
L 47.609375 25.390625 
L 58.015625 25.390625 
L 58.015625 17.1875 
L 47.609375 17.1875 
L 47.609375 0 
L 37.796875 0 
L 37.796875 17.1875 
L 4.890625 17.1875 
L 4.890625 26.703125 
z
" id="DejaVuSans-34"/>
      </defs>
      <g transform="translate(33.603125 532.146758)scale(0.1 -0.1)">
       <use xlink:href="#DejaVuSans-34"/>
       <use x="63.623047" xlink:href="#DejaVuSans-30"/>
      </g>
     </g>
    </g>
    <g id="text_32">
     <!-- Temperature -->
     <defs>
      <path d="M 18.109375 8.203125 
L 18.109375 -20.796875 
L 9.078125 -20.796875 
L 9.078125 54.6875 
L 18.109375 54.6875 
L 18.109375 46.390625 
Q 20.953125 51.265625 25.265625 53.625 
Q 29.59375 56 35.59375 56 
Q 45.5625 56 51.78125 48.09375 
Q 58.015625 40.1875 58.015625 27.296875 
Q 58.015625 14.40625 51.78125 6.484375 
Q 45.5625 -1.421875 35.59375 -1.421875 
Q 29.59375 -1.421875 25.265625 0.953125 
Q 20.953125 3.328125 18.109375 8.203125 
z
M 48.6875 27.296875 
Q 48.6875 37.203125 44.609375 42.84375 
Q 40.53125 48.484375 33.40625 48.484375 
Q 26.265625 48.484375 22.1875 42.84375 
Q 18.109375 37.203125 18.109375 27.296875 
Q 18.109375 17.390625 22.1875 11.75 
Q 26.265625 6.109375 33.40625 6.109375 
Q 40.53125 6.109375 44.609375 11.75 
Q 48.6875 17.390625 48.6875 27.296875 
z
" id="DejaVuSans-70"/>
     </defs>
     <g style="fill:#0000ff;" transform="translate(27.523437 613.557187)rotate(-90)scale(0.1 -0.1)">
      <use xlink:href="#DejaVuSans-54"/>
      <use x="60.818359" xlink:href="#DejaVuSans-65"/>
      <use x="122.341797" xlink:href="#DejaVuSans-6d"/>
      <use x="219.753906" xlink:href="#DejaVuSans-70"/>
      <use x="283.230469" xlink:href="#DejaVuSans-65"/>
      <use x="344.753906" xlink:href="#DejaVuSans-72"/>
      <use x="385.867188" xlink:href="#DejaVuSans-61"/>
      <use x="447.146484" xlink:href="#DejaVuSans-74"/>
      <use x="486.355469" xlink:href="#DejaVuSans-75"/>
      <use x="549.734375" xlink:href="#DejaVuSans-72"/>
      <use x="590.816406" xlink:href="#DejaVuSans-65"/>
     </g>
    </g>
   </g>
   <g id="line2d_36">
    <path clip-path="url(#p45cac7a6a9)" d="M 104.120852 553.608367 
L 109.100531 563.404674 
L 114.080211 557.228896 
L 119.05989 546.724062 
L 124.039569 545.055894 
L 129.019248 552.843286 
L 133.998927 549.451463 
L 138.978606 551.064144 
L 143.958285 533.81728 
L 148.937965 530.172209 
L 153.917644 537.791005 
L 158.897323 551.612968 
L 163.877002 559.665702 
L 168.856681 562.493406 
L 173.83636 549.975389 
L 178.816039 546.843217 
L 183.795719 544.373688 
L 188.775398 553.601253 
L 193.755077 549.383883 
L 198.734756 547.450729 
L 203.714435 529.310026 
L 208.694114 523.679159 
L 213.673793 537.061849 
L 218.653473 543.141592 
L 223.633152 555.1211 
L 228.612831 557.423812 
L 233.59251 552.122311 
L 238.572189 544.277653 
L 243.551868 542.16879 
L 248.531547 547.340111 
L 253.511227 555.328465 
L 258.490906 548.649747 
L 263.470585 532.473142 
L 268.450264 527.823258 
L 273.429943 524.261061 
L 278.409622 537.435675 
L 283.389301 549.43937 
L 288.368981 552.973823 
L 293.34866 552.418241 
L 298.328339 544.806203 
L 303.308018 540.796553 
L 308.287697 548.977334 
L 313.267376 555.682017 
L 318.247055 537.668294 
L 323.226735 532.233054 
L 328.206414 523.430178 
L 333.186093 524.373458 
L 338.165772 540.002306 
L 343.145451 552.169261 
L 348.12513 556.822703 
L 353.104809 553.642513 
L 358.084489 541.873571 
L 363.064168 542.845661 
L 368.043847 553.590939 
L 373.023526 554.882435 
L 378.003205 541.861122 
L 382.982884 534.129928 
L 387.962564 527.058532 
L 392.942243 524.216245 
L 397.921922 538.276161 
L 402.901601 551.786543 
L 407.88128 554.229751 
L 412.860959 551.918502 
L 417.840638 539.21126 
L 422.820318 540.742133 
L 427.799997 545.463155 
L 432.779676 558.882837 
L 437.759355 544.310021 
L 442.739034 531.730114 
L 447.718713 522.968853 
L 452.698392 528.526093 
L 457.678072 540.505958 
L 462.657751 548.86885 
L 467.63743 554.410795 
L 472.617109 549.616146 
L 477.596788 539.669384 
L 482.576467 539.021324 
L 487.556146 547.924859 
L 492.535826 557.552926 
L 497.515505 546.191244 
L 502.495184 533.830796 
L 507.474863 526.610368 
L 512.454542 526.932975 
L 517.434221 537.159663 
L 522.4139 546.977311 
L 527.39358 551.77196 
L 532.373259 553.137794 
L 537.352938 546.400388 
L 542.332617 541.380945 
L 547.312296 554.205208 
L 552.291975 552.886324 
L 557.271654 542.937072 
L 562.251334 534.748466 
L 567.231013 524.273866 
L 572.210692 526.700356 
L 577.190371 537.635926 
L 582.17005 547.704333 
L 587.149729 555.535119 
L 592.129408 553.996776 
L 597.109088 541.823419 
L 602.088767 542.366196 
L 607.068446 555.689487 
L 612.048125 563.046143 
L 617.027804 543.334374 
L 622.007483 529.627298 
L 626.987162 527.127536 
L 631.966842 526.823068 
L 636.946521 537.33964 
L 641.9262 549.275755 
L 646.905879 552.592172 
L 651.885558 546.524878 
L 656.865237 542.696628 
L 661.844916 540.832833 
L 666.824596 552.600353 
L 671.804275 562.194274 
L 676.783954 540.415258 
L 681.763633 530.446443 
L 686.743312 525.827503 
L 691.722991 524.098868 
L 696.70267 536.331981 
L 701.68235 549.647091 
L 706.662029 554.886347 
L 711.641708 550.314002 
L 716.621387 542.681334 
L 721.601066 546.239262 
L 726.580745 545.87504 
L 731.560424 546.469391 
L 736.540104 532.210646 
L 741.519783 528.382396 
L 746.499462 522.030909 
L 751.479141 527.141407 
L 756.45882 538.834233 
L 761.438499 548.940343 
L 766.418178 553.45969 
L 771.397858 552.441361 
L 776.377537 541.640241 
L 781.357216 539.832999 
L 786.336895 544.428108 
L 791.316574 549.784386 
L 796.296253 548.585368 
L 801.275932 527.140696 
L 806.255612 525.455099 
L 811.235291 527.481088 
L 816.21497 534.89821 
L 821.194649 552.210876 
L 826.174328 552.836884 
L 831.154007 548.30651 
L 836.133686 538.729661 
L 841.113366 537.483693 
L 846.093045 553.27011 
L 851.072724 558.427914 
L 856.052403 548.940343 
L 861.032082 536.146313 
L 866.011761 529.905444 
L 870.991441 527.679205 
L 875.97112 542.874827 
L 880.950799 555.01226 
L 885.930478 557.203287 
L 890.910157 561.864909 
L 895.889836 563.197665 
L 900.869515 542.91004 
L 905.849195 553.896473 
L 910.828874 558.847624 
L 915.808553 542.279764 
L 920.788232 527.739316 
L 925.767911 530.378507 
L 935.727269 539.865367 
L 940.706949 550.33072 
L 945.686628 558.313383 
L 950.666307 552.312958 
L 955.645986 545.852631 
L 960.625665 540.921755 
L 965.605344 553.784787 
L 970.585023 548.343857 
L 975.564703 546.958459 
L 980.544382 533.248538 
L 985.524061 522.666165 
L 990.50374 531.222194 
L 995.483419 539.527821 
L 1000.463098 548.6437 
L 1005.442777 555.990041 
L 1010.422457 553.311369 
L 1015.402136 546.784173 
L 1020.381815 541.077901 
L 1025.361494 552.802382 
L 1030.341173 555.726478 
L 1035.320852 539.947175 
L 1040.300531 535.872434 
L 1045.280211 523.242376 
L 1050.25989 524.351761 
L 1055.239569 537.716667 
L 1060.219248 549.765534 
L 1065.198927 556.251826 
L 1070.178606 554.07147 
L 1075.158285 544.770278 
L 1080.137965 543.532491 
L 1085.117644 556.471996 
L 1090.097323 553.394955 
L 1095.077002 543.634928 
L 1100.056681 532.330868 
L 1105.03636 523.3064 
L 1110.016039 525.880144 
L 1114.995719 536.433351 
L 1119.975398 552.473373 
L 1119.975398 552.473373 
" style="fill:none;stroke:#ff0000;stroke-linecap:square;stroke-width:1.5;"/>
   </g>
   <g id="line2d_37">
    <path clip-path="url(#p45cac7a6a9)" d="M 104.120852 567.171746 
L 109.100531 573.331874 
L 114.080211 571.324737 
L 119.05989 568.327726 
L 124.039569 572.832135 
L 129.019248 585.409196 
L 133.998927 579.035301 
L 138.978606 581.37038 
L 143.958285 564.34333 
L 148.937965 550.86247 
L 153.917644 552.26743 
L 158.897323 558.647372 
L 163.877002 572.274775 
L 168.856681 570.221399 
L 173.83636 567.628091 
L 178.816039 566.450415 
L 183.795719 574.771336 
L 188.775398 583.80932 
L 193.755077 583.725022 
L 198.734756 577.108905 
L 203.714435 559.534809 
L 208.694114 556.861117 
L 213.673793 574.404268 
L 218.653473 560.671582 
L 223.633152 567.676109 
L 228.612831 570.952334 
L 233.59251 570.038932 
L 238.572189 564.020723 
L 243.551868 571.59328 
L 248.531547 577.947968 
L 253.511227 581.002245 
L 258.490906 576.195147 
L 263.470585 561.257041 
L 268.450264 553.194349 
L 273.429943 546.724062 
L 278.409622 554.429291 
L 283.389301 560.524684 
L 288.368981 570.351224 
L 293.34866 566.197877 
L 298.328339 565.647275 
L 303.308018 570.049247 
L 308.287697 579.261517 
L 313.267376 582.466961 
L 318.247055 567.724838 
L 323.226735 559.59741 
L 328.206414 549.250501 
L 333.186093 547.050938 
L 338.165772 557.710495 
L 343.145451 567.015244 
L 348.12513 572.071322 
L 353.104809 570.550053 
L 358.084489 564.701862 
L 363.064168 569.506114 
L 368.043847 582.43815 
L 373.023526 581.936633 
L 378.003205 568.601248 
L 382.982884 559.43664 
L 387.962564 551.809307 
L 392.942243 547.769779 
L 397.921922 559.824693 
L 402.901601 566.857675 
L 407.88128 570.042489 
L 412.860959 568.070209 
L 417.840638 560.815635 
L 422.820318 569.069331 
L 427.799997 575.60542 
L 432.779676 583.996767 
L 437.759355 568.788695 
L 442.739034 554.139407 
L 447.718713 550.064311 
L 452.698392 550.04866 
L 457.678072 561.13184 
L 462.657751 566.392438 
L 467.63743 570.73501 
L 472.617109 568.846672 
L 477.596788 563.720879 
L 487.556146 576.553679 
L 492.535826 599.916922 
L 497.515505 578.459801 
L 502.495184 560.369249 
L 507.474863 558.241179 
L 512.454542 551.067701 
L 517.434221 563.885918 
L 522.4139 564.962224 
L 527.39358 568.224577 
L 532.373259 568.681278 
L 537.352938 568.382502 
L 542.332617 574.82291 
L 547.312296 583.990364 
L 552.291975 582.046184 
L 557.271654 577.16368 
L 562.251334 561.111566 
L 567.231013 548.790243 
L 572.210692 552.422865 
L 577.190371 557.471118 
L 582.17005 564.070874 
L 587.149729 571.41686 
L 592.129408 566.934859 
L 597.109088 563.417123 
L 602.088767 568.79901 
L 607.068446 584.337514 
L 612.048125 589.88764 
L 617.027804 574.181608 
L 622.007483 558.888528 
L 626.987162 553.419498 
L 631.966842 554.075383 
L 636.946521 555.770227 
L 641.9262 566.361137 
L 646.905879 569.781415 
L 651.885558 569.543817 
L 656.865237 565.454138 
L 661.844916 572.184786 
L 666.824596 582.436372 
L 671.804275 589.424892 
L 676.783954 569.210895 
L 681.763633 557.248815 
L 686.743312 552.489734 
L 691.722991 549.078349 
L 696.70267 557.405316 
L 701.68235 566.277195 
L 706.662029 570.421294 
L 711.641708 569.122329 
L 716.621387 565.215117 
L 721.601066 574.420629 
L 726.580745 578.675346 
L 731.560424 579.993875 
L 736.540104 562.445389 
L 741.519783 556.674026 
L 746.499462 546.278388 
L 751.479141 547.568105 
L 756.45882 556.245424 
L 761.438499 564.671984 
L 766.418178 570.342688 
L 771.397858 570.221043 
L 776.377537 565.851439 
L 781.357216 568.825686 
L 786.336895 579.038858 
L 791.316574 581.000467 
L 796.296253 578.334243 
L 801.275932 556.135517 
L 806.255612 552.289839 
L 811.235291 549.096489 
L 816.21497 557.489258 
L 821.194649 564.864766 
L 826.174328 569.677555 
L 831.154007 567.909083 
L 836.133686 562.203167 
L 841.113366 569.681823 
L 846.093045 586.076819 
L 851.072724 586.786057 
L 856.052403 577.196759 
L 861.032082 561.75109 
L 866.011761 558.721355 
L 870.991441 555.37755 
L 875.97112 562.58873 
L 880.950799 571.488708 
L 885.930478 574.118652 
L 890.910157 578.06819 
L 895.889836 581.847355 
L 900.869515 566.24056 
L 905.849195 584.588628 
L 910.828874 587.099772 
L 915.808553 591.31821 
L 920.788232 555.834962 
L 925.767911 553.153089 
L 930.74759 570.684858 
L 935.727269 560.019965 
L 940.706949 568.680566 
L 945.686628 574.505282 
L 955.645986 568.992503 
L 960.625665 571.39125 
L 965.605344 582.504663 
L 970.585023 578.766402 
L 975.564703 575.768324 
L 980.544382 563.434552 
L 985.524061 569.361705 
L 990.50374 553.217112 
L 995.483419 560.573768 
L 1005.442777 572.99824 
L 1010.422457 572.520198 
L 1015.402136 570.323125 
L 1020.381815 572.160244 
L 1025.361494 581.280747 
L 1030.341173 584.22903 
L 1035.320852 569.437822 
L 1040.300531 562.433651 
L 1045.280211 549.930217 
L 1050.25989 551.062722 
L 1055.239569 558.529285 
L 1060.219248 568.697639 
L 1065.198927 573.049459 
L 1070.178606 571.509338 
L 1075.158285 566.720025 
L 1080.137965 572.848141 
L 1085.117644 585.350152 
L 1090.097323 579.94728 
L 1095.077002 573.796756 
L 1100.056681 560.693635 
L 1105.03636 548.373735 
L 1110.016039 547.524 
L 1114.995719 557.562174 
L 1119.975398 570.194722 
L 1119.975398 570.194722 
" style="fill:none;stroke:#008000;stroke-linecap:square;stroke-width:1.5;"/>
   </g>
   <g id="line2d_38">
    <path clip-path="url(#p45cac7a6a9)" d="M 104.120852 586.167875 
L 109.100531 589.587085 
L 114.080211 589.754969 
L 119.05989 588.544214 
L 124.039569 597.480116 
L 129.019248 611.625753 
L 133.998927 599.888111 
L 138.978606 607.724232 
L 143.958285 591.217195 
L 148.937965 576.436302 
L 153.917644 578.243188 
L 158.897323 588.451379 
L 163.877002 591.865966 
L 168.856681 590.236924 
L 173.83636 586.158271 
L 178.816039 591.027258 
L 188.775398 614.626677 
L 193.755077 614.16962 
L 198.734756 608.343481 
L 203.714435 589.492117 
L 208.694114 589.143545 
L 213.673793 588.214848 
L 218.653473 581.355441 
L 223.633152 585.903955 
L 228.612831 585.891506 
L 233.59251 584.820891 
L 238.572189 591.531621 
L 243.551868 602.356217 
L 248.531547 603.962496 
L 253.511227 611.24339 
L 258.490906 605.220557 
L 263.470585 587.876946 
L 268.450264 581.804317 
L 273.429943 573.385582 
L 278.409622 576.957027 
L 283.389301 581.454678 
L 288.368981 584.450978 
L 293.34866 587.700882 
L 298.328339 591.215061 
L 303.308018 600.218543 
L 308.287697 606.562917 
L 313.267376 606.077761 
L 318.247055 600.316357 
L 323.226735 588.351787 
L 328.206414 578.741504 
L 333.186093 575.252579 
L 338.165772 578.846076 
L 343.145451 583.416642 
L 348.12513 585.818235 
L 353.104809 586.426814 
L 358.084489 587.512724 
L 363.064168 598.685536 
L 368.043847 610.631255 
L 373.023526 607.476674 
L 378.003205 599.363118 
L 382.982884 589.705529 
L 387.962564 578.178453 
L 392.942243 573.511851 
L 397.921922 577.415506 
L 402.901601 585.570678 
L 407.88128 585.303202 
L 412.860959 586.441042 
L 417.840638 587.788381 
L 422.820318 597.937528 
L 427.799997 602.540462 
L 432.779676 608.469394 
L 437.759355 591.61663 
L 442.739034 577.165103 
L 447.718713 582.864618 
L 452.698392 574.767779 
L 457.678072 578.58109 
L 462.657751 581.745985 
L 467.63743 584.675416 
L 472.617109 585.099038 
L 477.596788 587.712975 
L 482.576467 598.703676 
L 487.556146 604.415995 
L 492.535826 620.003228 
L 497.515505 606.598485 
L 502.495184 590.6577 
L 507.474863 580.873131 
L 512.454542 574.587446 
L 517.434221 580.541276 
L 522.4139 580.029799 
L 527.39358 582.27738 
L 532.373259 587.475377 
L 537.352938 586.194907 
L 542.332617 602.925315 
L 547.312296 612.278081 
L 552.291975 611.376773 
L 557.271654 605.050539 
L 562.251334 594.363238 
L 567.231013 579.742761 
L 572.210692 575.691851 
L 577.190371 578.286226 
L 582.17005 579.94728 
L 587.149729 584.395491 
L 592.129408 585.854515 
L 597.109088 587.712975 
L 602.088767 595.479737 
L 607.068446 609.863684 
L 612.048125 617.152048 
L 617.027804 601.536005 
L 622.007483 595.862811 
L 626.987162 585.823926 
L 631.966842 579.250135 
L 636.946521 578.304366 
L 641.9262 583.893973 
L 646.905879 584.569065 
L 651.885558 583.168729 
L 656.865237 586.704605 
L 661.844916 604.624072 
L 666.824596 610.47831 
L 671.804275 614.761126 
L 676.783954 596.395629 
L 681.763633 585.78729 
L 686.743312 581.12638 
L 691.722991 573.231215 
L 696.70267 578.096289 
L 701.68235 583.601599 
L 711.641708 585.363313 
L 716.621387 588.043408 
L 721.601066 600.583477 
L 726.580745 608.902264 
L 731.560424 609.957585 
L 736.540104 594.038141 
L 741.519783 585.785512 
L 746.499462 569.294836 
L 751.479141 572.420962 
L 756.45882 578.599941 
L 761.438499 582.126569 
L 766.418178 584.782121 
L 771.397858 586.432861 
L 776.377537 585.847046 
L 781.357216 599.21622 
L 786.336895 611.469962 
L 791.316574 610.607068 
L 796.296253 602.716527 
L 801.275932 582.96172 
L 806.255612 580.273444 
L 811.235291 575.28708 
L 816.21497 576.587113 
L 821.194649 585.642526 
L 826.174328 584.538121 
L 831.154007 584.678972 
L 836.133686 585.77164 
L 841.113366 599.471247 
L 846.093045 615.247349 
L 851.072724 613.919217 
L 856.052403 603.860414 
L 861.032082 588.339338 
L 866.011761 581.593395 
L 870.991441 577.043814 
L 875.97112 579.627874 
L 880.950799 585.403149 
L 885.930478 586.767917 
L 890.910157 589.390391 
L 895.889836 599.854676 
L 900.869515 589.069562 
L 905.849195 621.714078 
L 910.828874 621.291879 
L 915.808553 622.064785 
L 920.788232 612.373049 
L 925.767911 598.239862 
L 930.74759 587.658199 
L 935.727269 578.445573 
L 940.706949 583.911046 
L 945.686628 587.481779 
L 950.666307 587.214659 
L 955.645986 590.663036 
L 960.625665 603.226937 
L 965.605344 611.582004 
L 970.585023 612.069294 
L 975.564703 606.916824 
L 980.544382 598.535081 
L 985.524061 593.646175 
L 990.50374 577.576632 
L 995.483419 577.949391 
L 1000.463098 582.089222 
L 1005.442777 586.941492 
L 1010.422457 587.75708 
L 1015.402136 590.686867 
L 1020.381815 600.218188 
L 1025.361494 609.137729 
L 1030.341173 615.356189 
L 1035.320852 604.616602 
L 1040.300531 594.321979 
L 1045.280211 581.351173 
L 1050.25989 573.356061 
L 1055.239569 576.775627 
L 1060.219248 583.388543 
L 1065.198927 586.231187 
L 1070.178606 586.85506 
L 1075.158285 584.195951 
L 1080.137965 599.659049 
L 1085.117644 612.874211 
L 1090.097323 604.869495 
L 1095.077002 603.593293 
L 1100.056681 590.726348 
L 1105.03636 573.639542 
L 1110.016039 569.321869 
L 1114.995719 576.382594 
L 1119.975398 584.845078 
L 1119.975398 584.845078 
" style="fill:none;stroke:#0000ff;stroke-linecap:square;stroke-width:1.5;"/>
   </g>
   <g id="line2d_39">
    <defs>
     <path d="M 0 3 
C 0.795609 3 1.55874 2.683901 2.12132 2.12132 
C 2.683901 1.55874 3 0.795609 3 0 
C 3 -0.795609 2.683901 -1.55874 2.12132 -2.12132 
C 1.55874 -2.683901 0.795609 -3 0 -3 
C -0.795609 -3 -1.55874 -2.683901 -2.12132 -2.12132 
C -2.683901 -1.55874 -3 -0.795609 -3 0 
C -3 0.795609 -2.683901 1.55874 -2.12132 2.12132 
C -1.55874 2.683901 -0.795609 3 0 3 
z
" id="mfc48a6665e" style="stroke:#ff0000;"/>
    </defs>
    <g clip-path="url(#p45cac7a6a9)">
     <use style="fill:#ff0000;stroke:#ff0000;" x="109.100531" xlink:href="#mfc48a6665e" y="639.849091"/>
     <use style="fill:#ff0000;stroke:#ff0000;" x="168.856681" xlink:href="#mfc48a6665e" y="639.849091"/>
     <use style="fill:#ff0000;stroke:#ff0000;" x="208.694114" xlink:href="#mfc48a6665e" y="639.849091"/>
     <use style="fill:#ff0000;stroke:#ff0000;" x="213.673793" xlink:href="#mfc48a6665e" y="639.849091"/>
     <use style="fill:#ff0000;stroke:#ff0000;" x="218.653473" xlink:href="#mfc48a6665e" y="639.849091"/>
     <use style="fill:#ff0000;stroke:#ff0000;" x="223.633152" xlink:href="#mfc48a6665e" y="639.849091"/>
     <use style="fill:#ff0000;stroke:#ff0000;" x="228.612831" xlink:href="#mfc48a6665e" y="639.849091"/>
     <use style="fill:#ff0000;stroke:#ff0000;" x="233.59251" xlink:href="#mfc48a6665e" y="639.849091"/>
     <use style="fill:#ff0000;stroke:#ff0000;" x="238.572189" xlink:href="#mfc48a6665e" y="639.849091"/>
     <use style="fill:#ff0000;stroke:#ff0000;" x="243.551868" xlink:href="#mfc48a6665e" y="639.849091"/>
     <use style="fill:#ff0000;stroke:#ff0000;" x="248.531547" xlink:href="#mfc48a6665e" y="639.849091"/>
     <use style="fill:#ff0000;stroke:#ff0000;" x="283.389301" xlink:href="#mfc48a6665e" y="639.849091"/>
     <use style="fill:#ff0000;stroke:#ff0000;" x="348.12513" xlink:href="#mfc48a6665e" y="639.849091"/>
     <use style="fill:#ff0000;stroke:#ff0000;" x="353.104809" xlink:href="#mfc48a6665e" y="639.849091"/>
     <use style="fill:#ff0000;stroke:#ff0000;" x="358.084489" xlink:href="#mfc48a6665e" y="639.849091"/>
     <use style="fill:#ff0000;stroke:#ff0000;" x="432.779676" xlink:href="#mfc48a6665e" y="639.849091"/>
     <use style="fill:#ff0000;stroke:#ff0000;" x="437.759355" xlink:href="#mfc48a6665e" y="639.849091"/>
     <use style="fill:#ff0000;stroke:#ff0000;" x="442.739034" xlink:href="#mfc48a6665e" y="639.849091"/>
     <use style="fill:#ff0000;stroke:#ff0000;" x="447.718713" xlink:href="#mfc48a6665e" y="639.849091"/>
     <use style="fill:#ff0000;stroke:#ff0000;" x="452.698392" xlink:href="#mfc48a6665e" y="639.849091"/>
     <use style="fill:#ff0000;stroke:#ff0000;" x="457.678072" xlink:href="#mfc48a6665e" y="639.849091"/>
     <use style="fill:#ff0000;stroke:#ff0000;" x="462.657751" xlink:href="#mfc48a6665e" y="639.849091"/>
     <use style="fill:#ff0000;stroke:#ff0000;" x="467.63743" xlink:href="#mfc48a6665e" y="639.849091"/>
     <use style="fill:#ff0000;stroke:#ff0000;" x="472.617109" xlink:href="#mfc48a6665e" y="639.849091"/>
     <use style="fill:#ff0000;stroke:#ff0000;" x="477.596788" xlink:href="#mfc48a6665e" y="639.849091"/>
     <use style="fill:#ff0000;stroke:#ff0000;" x="482.576467" xlink:href="#mfc48a6665e" y="639.849091"/>
     <use style="fill:#ff0000;stroke:#ff0000;" x="487.556146" xlink:href="#mfc48a6665e" y="639.849091"/>
     <use style="fill:#ff0000;stroke:#ff0000;" x="492.535826" xlink:href="#mfc48a6665e" y="639.849091"/>
     <use style="fill:#ff0000;stroke:#ff0000;" x="497.515505" xlink:href="#mfc48a6665e" y="639.849091"/>
     <use style="fill:#ff0000;stroke:#ff0000;" x="502.495184" xlink:href="#mfc48a6665e" y="639.849091"/>
     <use style="fill:#ff0000;stroke:#ff0000;" x="507.474863" xlink:href="#mfc48a6665e" y="639.849091"/>
     <use style="fill:#ff0000;stroke:#ff0000;" x="512.454542" xlink:href="#mfc48a6665e" y="639.849091"/>
     <use style="fill:#ff0000;stroke:#ff0000;" x="517.434221" xlink:href="#mfc48a6665e" y="639.849091"/>
     <use style="fill:#ff0000;stroke:#ff0000;" x="522.4139" xlink:href="#mfc48a6665e" y="639.849091"/>
     <use style="fill:#ff0000;stroke:#ff0000;" x="527.39358" xlink:href="#mfc48a6665e" y="639.849091"/>
     <use style="fill:#ff0000;stroke:#ff0000;" x="532.373259" xlink:href="#mfc48a6665e" y="639.849091"/>
     <use style="fill:#ff0000;stroke:#ff0000;" x="537.352938" xlink:href="#mfc48a6665e" y="639.849091"/>
     <use style="fill:#ff0000;stroke:#ff0000;" x="542.332617" xlink:href="#mfc48a6665e" y="639.849091"/>
     <use style="fill:#ff0000;stroke:#ff0000;" x="547.312296" xlink:href="#mfc48a6665e" y="639.849091"/>
     <use style="fill:#ff0000;stroke:#ff0000;" x="582.17005" xlink:href="#mfc48a6665e" y="639.849091"/>
     <use style="fill:#ff0000;stroke:#ff0000;" x="587.149729" xlink:href="#mfc48a6665e" y="639.849091"/>
     <use style="fill:#ff0000;stroke:#ff0000;" x="592.129408" xlink:href="#mfc48a6665e" y="639.849091"/>
     <use style="fill:#ff0000;stroke:#ff0000;" x="597.109088" xlink:href="#mfc48a6665e" y="639.849091"/>
     <use style="fill:#ff0000;stroke:#ff0000;" x="646.905879" xlink:href="#mfc48a6665e" y="639.849091"/>
     <use style="fill:#ff0000;stroke:#ff0000;" x="691.722991" xlink:href="#mfc48a6665e" y="639.849091"/>
     <use style="fill:#ff0000;stroke:#ff0000;" x="696.70267" xlink:href="#mfc48a6665e" y="639.849091"/>
     <use style="fill:#ff0000;stroke:#ff0000;" x="701.68235" xlink:href="#mfc48a6665e" y="639.849091"/>
     <use style="fill:#ff0000;stroke:#ff0000;" x="706.662029" xlink:href="#mfc48a6665e" y="639.849091"/>
     <use style="fill:#ff0000;stroke:#ff0000;" x="711.641708" xlink:href="#mfc48a6665e" y="639.849091"/>
     <use style="fill:#ff0000;stroke:#ff0000;" x="756.45882" xlink:href="#mfc48a6665e" y="639.849091"/>
     <use style="fill:#ff0000;stroke:#ff0000;" x="761.438499" xlink:href="#mfc48a6665e" y="639.849091"/>
     <use style="fill:#ff0000;stroke:#ff0000;" x="766.418178" xlink:href="#mfc48a6665e" y="639.849091"/>
     <use style="fill:#ff0000;stroke:#ff0000;" x="771.397858" xlink:href="#mfc48a6665e" y="639.849091"/>
     <use style="fill:#ff0000;stroke:#ff0000;" x="776.377537" xlink:href="#mfc48a6665e" y="639.849091"/>
     <use style="fill:#ff0000;stroke:#ff0000;" x="781.357216" xlink:href="#mfc48a6665e" y="639.849091"/>
     <use style="fill:#ff0000;stroke:#ff0000;" x="786.336895" xlink:href="#mfc48a6665e" y="639.849091"/>
     <use style="fill:#ff0000;stroke:#ff0000;" x="791.316574" xlink:href="#mfc48a6665e" y="639.849091"/>
     <use style="fill:#ff0000;stroke:#ff0000;" x="796.296253" xlink:href="#mfc48a6665e" y="639.849091"/>
     <use style="fill:#ff0000;stroke:#ff0000;" x="801.275932" xlink:href="#mfc48a6665e" y="639.849091"/>
     <use style="fill:#ff0000;stroke:#ff0000;" x="806.255612" xlink:href="#mfc48a6665e" y="639.849091"/>
     <use style="fill:#ff0000;stroke:#ff0000;" x="811.235291" xlink:href="#mfc48a6665e" y="639.849091"/>
     <use style="fill:#ff0000;stroke:#ff0000;" x="816.21497" xlink:href="#mfc48a6665e" y="639.849091"/>
     <use style="fill:#ff0000;stroke:#ff0000;" x="821.194649" xlink:href="#mfc48a6665e" y="639.849091"/>
     <use style="fill:#ff0000;stroke:#ff0000;" x="826.174328" xlink:href="#mfc48a6665e" y="639.849091"/>
     <use style="fill:#ff0000;stroke:#ff0000;" x="831.154007" xlink:href="#mfc48a6665e" y="639.849091"/>
     <use style="fill:#ff0000;stroke:#ff0000;" x="836.133686" xlink:href="#mfc48a6665e" y="639.849091"/>
     <use style="fill:#ff0000;stroke:#ff0000;" x="841.113366" xlink:href="#mfc48a6665e" y="639.849091"/>
     <use style="fill:#ff0000;stroke:#ff0000;" x="846.093045" xlink:href="#mfc48a6665e" y="639.849091"/>
     <use style="fill:#ff0000;stroke:#ff0000;" x="851.072724" xlink:href="#mfc48a6665e" y="639.849091"/>
     <use style="fill:#ff0000;stroke:#ff0000;" x="856.052403" xlink:href="#mfc48a6665e" y="639.849091"/>
     <use style="fill:#ff0000;stroke:#ff0000;" x="861.032082" xlink:href="#mfc48a6665e" y="639.849091"/>
     <use style="fill:#ff0000;stroke:#ff0000;" x="866.011761" xlink:href="#mfc48a6665e" y="639.849091"/>
     <use style="fill:#ff0000;stroke:#ff0000;" x="870.991441" xlink:href="#mfc48a6665e" y="639.849091"/>
     <use style="fill:#ff0000;stroke:#ff0000;" x="875.97112" xlink:href="#mfc48a6665e" y="639.849091"/>
     <use style="fill:#ff0000;stroke:#ff0000;" x="880.950799" xlink:href="#mfc48a6665e" y="639.849091"/>
     <use style="fill:#ff0000;stroke:#ff0000;" x="885.930478" xlink:href="#mfc48a6665e" y="639.849091"/>
     <use style="fill:#ff0000;stroke:#ff0000;" x="890.910157" xlink:href="#mfc48a6665e" y="639.849091"/>
     <use style="fill:#ff0000;stroke:#ff0000;" x="895.889836" xlink:href="#mfc48a6665e" y="639.849091"/>
     <use style="fill:#ff0000;stroke:#ff0000;" x="900.869515" xlink:href="#mfc48a6665e" y="639.849091"/>
     <use style="fill:#ff0000;stroke:#ff0000;" x="905.849195" xlink:href="#mfc48a6665e" y="639.849091"/>
     <use style="fill:#ff0000;stroke:#ff0000;" x="945.686628" xlink:href="#mfc48a6665e" y="639.849091"/>
     <use style="fill:#ff0000;stroke:#ff0000;" x="1065.198927" xlink:href="#mfc48a6665e" y="639.849091"/>
     <use style="fill:#ff0000;stroke:#ff0000;" x="1119.975398" xlink:href="#mfc48a6665e" y="639.849091"/>
    </g>
   </g>
   <g id="patch_9">
    <path d="M 53.328125 645.74 
L 53.328125 516.14 
" style="fill:none;stroke:#000000;stroke-linecap:square;stroke-linejoin:miter;stroke-width:0.8;"/>
   </g>
   <g id="patch_10">
    <path d="M 1170.768125 645.74 
L 1170.768125 516.14 
" style="fill:none;stroke:#000000;stroke-linecap:square;stroke-linejoin:miter;stroke-width:0.8;"/>
   </g>
   <g id="patch_11">
    <path d="M 53.328125 645.74 
L 1170.768125 645.74 
" style="fill:none;stroke:#000000;stroke-linecap:square;stroke-linejoin:miter;stroke-width:0.8;"/>
   </g>
   <g id="patch_12">
    <path d="M 53.328125 516.14 
L 1170.768125 516.14 
" style="fill:none;stroke:#000000;stroke-linecap:square;stroke-linejoin:miter;stroke-width:0.8;"/>
   </g>
   <g id="legend_2">
    <g id="patch_13">
     <path d="M 60.328125 582.8525 
L 151.340625 582.8525 
Q 153.340625 582.8525 153.340625 580.8525 
L 153.340625 523.14 
Q 153.340625 521.14 151.340625 521.14 
L 60.328125 521.14 
Q 58.328125 521.14 58.328125 523.14 
L 58.328125 580.8525 
Q 58.328125 582.8525 60.328125 582.8525 
z
" style="fill:#ffffff;opacity:0.8;stroke:#cccccc;stroke-linejoin:miter;"/>
    </g>
    <g id="line2d_40">
     <path d="M 62.328125 529.238437 
L 82.328125 529.238437 
" style="fill:none;stroke:#ff0000;stroke-linecap:square;stroke-width:1.5;"/>
    </g>
    <g id="line2d_41"/>
    <g id="text_33">
     <!-- Maxmimum -->
     <defs>
      <path d="M 9.8125 72.90625 
L 24.515625 72.90625 
L 43.109375 23.296875 
L 61.8125 72.90625 
L 76.515625 72.90625 
L 76.515625 0 
L 66.890625 0 
L 66.890625 64.015625 
L 48.09375 14.015625 
L 38.1875 14.015625 
L 19.390625 64.015625 
L 19.390625 0 
L 9.8125 0 
z
" id="DejaVuSans-4d"/>
      <path d="M 54.890625 54.6875 
L 35.109375 28.078125 
L 55.90625 0 
L 45.3125 0 
L 29.390625 21.484375 
L 13.484375 0 
L 2.875 0 
L 24.125 28.609375 
L 4.6875 54.6875 
L 15.28125 54.6875 
L 29.78125 35.203125 
L 44.28125 54.6875 
z
" id="DejaVuSans-78"/>
     </defs>
     <g transform="translate(90.328125 532.738437)scale(0.1 -0.1)">
      <use xlink:href="#DejaVuSans-4d"/>
      <use x="86.279297" xlink:href="#DejaVuSans-61"/>
      <use x="147.558594" xlink:href="#DejaVuSans-78"/>
      <use x="206.738281" xlink:href="#DejaVuSans-6d"/>
      <use x="304.150391" xlink:href="#DejaVuSans-69"/>
      <use x="331.933594" xlink:href="#DejaVuSans-6d"/>
      <use x="429.345703" xlink:href="#DejaVuSans-75"/>
      <use x="492.724609" xlink:href="#DejaVuSans-6d"/>
     </g>
    </g>
    <g id="line2d_42">
     <path d="M 62.328125 543.916562 
L 82.328125 543.916562 
" style="fill:none;stroke:#008000;stroke-linecap:square;stroke-width:1.5;"/>
    </g>
    <g id="line2d_43"/>
    <g id="text_34">
     <!-- Average -->
     <defs>
      <path d="M 34.1875 63.1875 
L 20.796875 26.90625 
L 47.609375 26.90625 
z
M 28.609375 72.90625 
L 39.796875 72.90625 
L 67.578125 0 
L 57.328125 0 
L 50.6875 18.703125 
L 17.828125 18.703125 
L 11.1875 0 
L 0.78125 0 
z
" id="DejaVuSans-41"/>
      <path d="M 2.984375 54.6875 
L 12.5 54.6875 
L 29.59375 8.796875 
L 46.6875 54.6875 
L 56.203125 54.6875 
L 35.6875 0 
L 23.484375 0 
z
" id="DejaVuSans-76"/>
     </defs>
     <g transform="translate(90.328125 547.416562)scale(0.1 -0.1)">
      <use xlink:href="#DejaVuSans-41"/>
      <use x="68.330078" xlink:href="#DejaVuSans-76"/>
      <use x="127.509766" xlink:href="#DejaVuSans-65"/>
      <use x="189.033203" xlink:href="#DejaVuSans-72"/>
      <use x="230.146484" xlink:href="#DejaVuSans-61"/>
      <use x="291.425781" xlink:href="#DejaVuSans-67"/>
      <use x="354.902344" xlink:href="#DejaVuSans-65"/>
     </g>
    </g>
    <g id="line2d_44">
     <path d="M 62.328125 558.594687 
L 82.328125 558.594687 
" style="fill:none;stroke:#0000ff;stroke-linecap:square;stroke-width:1.5;"/>
    </g>
    <g id="line2d_45"/>
    <g id="text_35">
     <!-- Minimum -->
     <g transform="translate(90.328125 562.094687)scale(0.1 -0.1)">
      <use xlink:href="#DejaVuSans-4d"/>
      <use x="86.279297" xlink:href="#DejaVuSans-69"/>
      <use x="114.0625" xlink:href="#DejaVuSans-6e"/>
      <use x="177.441406" xlink:href="#DejaVuSans-69"/>
      <use x="205.224609" xlink:href="#DejaVuSans-6d"/>
      <use x="302.636719" xlink:href="#DejaVuSans-75"/>
      <use x="366.015625" xlink:href="#DejaVuSans-6d"/>
     </g>
    </g>
    <g id="line2d_46"/>
    <g id="line2d_47">
     <g>
      <use style="fill:#ff0000;stroke:#ff0000;" x="72.328125" xlink:href="#mfc48a6665e" y="573.272812"/>
     </g>
    </g>
    <g id="text_36">
     <!-- Disasters -->
     <g transform="translate(90.328125 576.772812)scale(0.1 -0.1)">
      <use xlink:href="#DejaVuSans-44"/>
      <use x="77.001953" xlink:href="#DejaVuSans-69"/>
      <use x="104.785156" xlink:href="#DejaVuSans-73"/>
      <use x="156.884766" xlink:href="#DejaVuSans-61"/>
      <use x="218.164062" xlink:href="#DejaVuSans-73"/>
      <use x="270.263672" xlink:href="#DejaVuSans-74"/>
      <use x="309.472656" xlink:href="#DejaVuSans-65"/>
      <use x="370.996094" xlink:href="#DejaVuSans-72"/>
      <use x="412.109375" xlink:href="#DejaVuSans-73"/>
     </g>
    </g>
   </g>
  </g>
 </g>
 <defs>
  <clipPath id="p8671693166">
   <rect height="498.96" width="1116" x="53.328125" y="10.7"/>
  </clipPath>
  <clipPath id="p45cac7a6a9">
   <rect height="129.6" width="1117.44" x="53.328125" y="516.14"/>
  </clipPath>
 </defs>
</svg>
