<?xml version="1.0" encoding="utf-8" standalone="no"?>
<!DOCTYPE svg PUBLIC "-//W3C//DTD SVG 1.1//EN"
  "http://www.w3.org/Graphics/SVG/1.1/DTD/svg11.dtd">
<!-- Created with matplotlib (http://matplotlib.org/) -->
<svg height="669pt" version="1.1" viewBox="0 0 1175 669" width="1175pt" xmlns="http://www.w3.org/2000/svg" xmlns:xlink="http://www.w3.org/1999/xlink">
 <defs>
  <style type="text/css">
*{stroke-linecap:butt;stroke-linejoin:round;}
  </style>
 </defs>
 <g id="figure_1">
  <g id="patch_1">
   <path d="M 0 669.618125 
L 1175.105625 669.618125 
L 1175.105625 -0 
L 0 -0 
z
" style="fill:none;"/>
  </g>
  <g id="axes_1">
   <g id="patch_2">
    <path d="M 46.965625 509.66 
L 1162.965625 509.66 
L 1162.965625 10.7 
L 46.965625 10.7 
z
" style="fill:none;"/>
   </g>
   <g id="matplotlib.axis_1">
    <g id="xtick_1">
     <g id="line2d_1">
      <defs>
       <path d="M 0 0 
L 0 3.5 
" id="mea8cb24255" style="stroke:#000000;stroke-width:0.8;"/>
      </defs>
      <g>
       <use style="stroke:#000000;stroke-width:0.8;" x="97.692898" xlink:href="#mea8cb24255" y="509.66"/>
      </g>
     </g>
     <g id="text_1">
      <!-- 0 -->
      <defs>
       <path d="M 31.78125 66.40625 
Q 24.171875 66.40625 20.328125 58.90625 
Q 16.5 51.421875 16.5 36.375 
Q 16.5 21.390625 20.328125 13.890625 
Q 24.171875 6.390625 31.78125 6.390625 
Q 39.453125 6.390625 43.28125 13.890625 
Q 47.125 21.390625 47.125 36.375 
Q 47.125 51.421875 43.28125 58.90625 
Q 39.453125 66.40625 31.78125 66.40625 
z
M 31.78125 74.21875 
Q 44.046875 74.21875 50.515625 64.515625 
Q 56.984375 54.828125 56.984375 36.375 
Q 56.984375 17.96875 50.515625 8.265625 
Q 44.046875 -1.421875 31.78125 -1.421875 
Q 19.53125 -1.421875 13.0625 8.265625 
Q 6.59375 17.96875 6.59375 36.375 
Q 6.59375 54.828125 13.0625 64.515625 
Q 19.53125 74.21875 31.78125 74.21875 
z
" id="DejaVuSans-30"/>
      </defs>
      <g transform="translate(94.511648 524.258437)scale(0.1 -0.1)">
       <use xlink:href="#DejaVuSans-30"/>
      </g>
     </g>
    </g>
    <g id="xtick_2">
     <g id="line2d_2">
      <g>
       <use style="stroke:#000000;stroke-width:0.8;" x="340.407121" xlink:href="#mea8cb24255" y="509.66"/>
      </g>
     </g>
     <g id="text_2">
      <!-- 50 -->
      <defs>
       <path d="M 10.796875 72.90625 
L 49.515625 72.90625 
L 49.515625 64.59375 
L 19.828125 64.59375 
L 19.828125 46.734375 
Q 21.96875 47.46875 24.109375 47.828125 
Q 26.265625 48.1875 28.421875 48.1875 
Q 40.625 48.1875 47.75 41.5 
Q 54.890625 34.8125 54.890625 23.390625 
Q 54.890625 11.625 47.5625 5.09375 
Q 40.234375 -1.421875 26.90625 -1.421875 
Q 22.3125 -1.421875 17.546875 -0.640625 
Q 12.796875 0.140625 7.71875 1.703125 
L 7.71875 11.625 
Q 12.109375 9.234375 16.796875 8.0625 
Q 21.484375 6.890625 26.703125 6.890625 
Q 35.15625 6.890625 40.078125 11.328125 
Q 45.015625 15.765625 45.015625 23.390625 
Q 45.015625 31 40.078125 35.4375 
Q 35.15625 39.890625 26.703125 39.890625 
Q 22.75 39.890625 18.8125 39.015625 
Q 14.890625 38.140625 10.796875 36.28125 
z
" id="DejaVuSans-35"/>
      </defs>
      <g transform="translate(334.044621 524.258437)scale(0.1 -0.1)">
       <use xlink:href="#DejaVuSans-35"/>
       <use x="63.623047" xlink:href="#DejaVuSans-30"/>
      </g>
     </g>
    </g>
    <g id="xtick_3">
     <g id="line2d_3">
      <g>
       <use style="stroke:#000000;stroke-width:0.8;" x="583.121345" xlink:href="#mea8cb24255" y="509.66"/>
      </g>
     </g>
     <g id="text_3">
      <!-- 100 -->
      <defs>
       <path d="M 12.40625 8.296875 
L 28.515625 8.296875 
L 28.515625 63.921875 
L 10.984375 60.40625 
L 10.984375 69.390625 
L 28.421875 72.90625 
L 38.28125 72.90625 
L 38.28125 8.296875 
L 54.390625 8.296875 
L 54.390625 0 
L 12.40625 0 
z
" id="DejaVuSans-31"/>
      </defs>
      <g transform="translate(573.577595 524.258437)scale(0.1 -0.1)">
       <use xlink:href="#DejaVuSans-31"/>
       <use x="63.623047" xlink:href="#DejaVuSans-30"/>
       <use x="127.246094" xlink:href="#DejaVuSans-30"/>
      </g>
     </g>
    </g>
    <g id="xtick_4">
     <g id="line2d_4">
      <g>
       <use style="stroke:#000000;stroke-width:0.8;" x="825.835568" xlink:href="#mea8cb24255" y="509.66"/>
      </g>
     </g>
     <g id="text_4">
      <!-- 150 -->
      <g transform="translate(816.291818 524.258437)scale(0.1 -0.1)">
       <use xlink:href="#DejaVuSans-31"/>
       <use x="63.623047" xlink:href="#DejaVuSans-35"/>
       <use x="127.246094" xlink:href="#DejaVuSans-30"/>
      </g>
     </g>
    </g>
    <g id="xtick_5">
     <g id="line2d_5">
      <g>
       <use style="stroke:#000000;stroke-width:0.8;" x="1068.549792" xlink:href="#mea8cb24255" y="509.66"/>
      </g>
     </g>
     <g id="text_5">
      <!-- 200 -->
      <defs>
       <path d="M 19.1875 8.296875 
L 53.609375 8.296875 
L 53.609375 0 
L 7.328125 0 
L 7.328125 8.296875 
Q 12.9375 14.109375 22.625 23.890625 
Q 32.328125 33.6875 34.8125 36.53125 
Q 39.546875 41.84375 41.421875 45.53125 
Q 43.3125 49.21875 43.3125 52.78125 
Q 43.3125 58.59375 39.234375 62.25 
Q 35.15625 65.921875 28.609375 65.921875 
Q 23.96875 65.921875 18.8125 64.3125 
Q 13.671875 62.703125 7.8125 59.421875 
L 7.8125 69.390625 
Q 13.765625 71.78125 18.9375 73 
Q 24.125 74.21875 28.421875 74.21875 
Q 39.75 74.21875 46.484375 68.546875 
Q 53.21875 62.890625 53.21875 53.421875 
Q 53.21875 48.921875 51.53125 44.890625 
Q 49.859375 40.875 45.40625 35.40625 
Q 44.1875 33.984375 37.640625 27.21875 
Q 31.109375 20.453125 19.1875 8.296875 
z
" id="DejaVuSans-32"/>
      </defs>
      <g transform="translate(1059.006042 524.258437)scale(0.1 -0.1)">
       <use xlink:href="#DejaVuSans-32"/>
       <use x="63.623047" xlink:href="#DejaVuSans-30"/>
       <use x="127.246094" xlink:href="#DejaVuSans-30"/>
      </g>
     </g>
    </g>
    <g id="text_6">
     <!-- Time -->
     <defs>
      <path d="M -0.296875 72.90625 
L 61.375 72.90625 
L 61.375 64.59375 
L 35.5 64.59375 
L 35.5 0 
L 25.59375 0 
L 25.59375 64.59375 
L -0.296875 64.59375 
z
" id="DejaVuSans-54"/>
      <path d="M 9.421875 54.6875 
L 18.40625 54.6875 
L 18.40625 0 
L 9.421875 0 
z
M 9.421875 75.984375 
L 18.40625 75.984375 
L 18.40625 64.59375 
L 9.421875 64.59375 
z
" id="DejaVuSans-69"/>
      <path d="M 52 44.1875 
Q 55.375 50.25 60.0625 53.125 
Q 64.75 56 71.09375 56 
Q 79.640625 56 84.28125 50.015625 
Q 88.921875 44.046875 88.921875 33.015625 
L 88.921875 0 
L 79.890625 0 
L 79.890625 32.71875 
Q 79.890625 40.578125 77.09375 44.375 
Q 74.3125 48.1875 68.609375 48.1875 
Q 61.625 48.1875 57.5625 43.546875 
Q 53.515625 38.921875 53.515625 30.90625 
L 53.515625 0 
L 44.484375 0 
L 44.484375 32.71875 
Q 44.484375 40.625 41.703125 44.40625 
Q 38.921875 48.1875 33.109375 48.1875 
Q 26.21875 48.1875 22.15625 43.53125 
Q 18.109375 38.875 18.109375 30.90625 
L 18.109375 0 
L 9.078125 0 
L 9.078125 54.6875 
L 18.109375 54.6875 
L 18.109375 46.1875 
Q 21.1875 51.21875 25.484375 53.609375 
Q 29.78125 56 35.6875 56 
Q 41.65625 56 45.828125 52.96875 
Q 50 49.953125 52 44.1875 
z
" id="DejaVuSans-6d"/>
      <path d="M 56.203125 29.59375 
L 56.203125 25.203125 
L 14.890625 25.203125 
Q 15.484375 15.921875 20.484375 11.0625 
Q 25.484375 6.203125 34.421875 6.203125 
Q 39.59375 6.203125 44.453125 7.46875 
Q 49.3125 8.734375 54.109375 11.28125 
L 54.109375 2.78125 
Q 49.265625 0.734375 44.1875 -0.34375 
Q 39.109375 -1.421875 33.890625 -1.421875 
Q 20.796875 -1.421875 13.15625 6.1875 
Q 5.515625 13.8125 5.515625 26.8125 
Q 5.515625 40.234375 12.765625 48.109375 
Q 20.015625 56 32.328125 56 
Q 43.359375 56 49.78125 48.890625 
Q 56.203125 41.796875 56.203125 29.59375 
z
M 47.21875 32.234375 
Q 47.125 39.59375 43.09375 43.984375 
Q 39.0625 48.390625 32.421875 48.390625 
Q 24.90625 48.390625 20.390625 44.140625 
Q 15.875 39.890625 15.1875 32.171875 
z
" id="DejaVuSans-65"/>
     </defs>
     <g transform="translate(592.578125 537.936562)scale(0.1 -0.1)">
      <use xlink:href="#DejaVuSans-54"/>
      <use x="61.037109" xlink:href="#DejaVuSans-69"/>
      <use x="88.820312" xlink:href="#DejaVuSans-6d"/>
      <use x="186.232422" xlink:href="#DejaVuSans-65"/>
     </g>
    </g>
   </g>
   <g id="matplotlib.axis_2">
    <g id="ytick_1">
     <g id="line2d_6">
      <defs>
       <path d="M 0 0 
L -3.5 0 
" id="mab52dadc0e" style="stroke:#000000;stroke-width:0.8;"/>
      </defs>
      <g>
       <use style="stroke:#000000;stroke-width:0.8;" x="46.965625" xlink:href="#mab52dadc0e" y="416.878182"/>
      </g>
     </g>
     <g id="text_7">
      <!-- 100 -->
      <g transform="translate(20.878125 420.677401)scale(0.1 -0.1)">
       <use xlink:href="#DejaVuSans-31"/>
       <use x="63.623047" xlink:href="#DejaVuSans-30"/>
       <use x="127.246094" xlink:href="#DejaVuSans-30"/>
      </g>
     </g>
    </g>
    <g id="ytick_2">
     <g id="line2d_7">
      <g>
       <use style="stroke:#000000;stroke-width:0.8;" x="46.965625" xlink:href="#mab52dadc0e" y="313.787273"/>
      </g>
     </g>
     <g id="text_8">
      <!-- 200 -->
      <g transform="translate(20.878125 317.586491)scale(0.1 -0.1)">
       <use xlink:href="#DejaVuSans-32"/>
       <use x="63.623047" xlink:href="#DejaVuSans-30"/>
       <use x="127.246094" xlink:href="#DejaVuSans-30"/>
      </g>
     </g>
    </g>
    <g id="ytick_3">
     <g id="line2d_8">
      <g>
       <use style="stroke:#000000;stroke-width:0.8;" x="46.965625" xlink:href="#mab52dadc0e" y="210.696364"/>
      </g>
     </g>
     <g id="text_9">
      <!-- 300 -->
      <defs>
       <path d="M 40.578125 39.3125 
Q 47.65625 37.796875 51.625 33 
Q 55.609375 28.21875 55.609375 21.1875 
Q 55.609375 10.40625 48.1875 4.484375 
Q 40.765625 -1.421875 27.09375 -1.421875 
Q 22.515625 -1.421875 17.65625 -0.515625 
Q 12.796875 0.390625 7.625 2.203125 
L 7.625 11.71875 
Q 11.71875 9.328125 16.59375 8.109375 
Q 21.484375 6.890625 26.8125 6.890625 
Q 36.078125 6.890625 40.9375 10.546875 
Q 45.796875 14.203125 45.796875 21.1875 
Q 45.796875 27.640625 41.28125 31.265625 
Q 36.765625 34.90625 28.71875 34.90625 
L 20.21875 34.90625 
L 20.21875 43.015625 
L 29.109375 43.015625 
Q 36.375 43.015625 40.234375 45.921875 
Q 44.09375 48.828125 44.09375 54.296875 
Q 44.09375 59.90625 40.109375 62.90625 
Q 36.140625 65.921875 28.71875 65.921875 
Q 24.65625 65.921875 20.015625 65.03125 
Q 15.375 64.15625 9.8125 62.3125 
L 9.8125 71.09375 
Q 15.4375 72.65625 20.34375 73.4375 
Q 25.25 74.21875 29.59375 74.21875 
Q 40.828125 74.21875 47.359375 69.109375 
Q 53.90625 64.015625 53.90625 55.328125 
Q 53.90625 49.265625 50.4375 45.09375 
Q 46.96875 40.921875 40.578125 39.3125 
z
" id="DejaVuSans-33"/>
      </defs>
      <g transform="translate(20.878125 214.495582)scale(0.1 -0.1)">
       <use xlink:href="#DejaVuSans-33"/>
       <use x="63.623047" xlink:href="#DejaVuSans-30"/>
       <use x="127.246094" xlink:href="#DejaVuSans-30"/>
      </g>
     </g>
    </g>
    <g id="ytick_4">
     <g id="line2d_9">
      <g>
       <use style="stroke:#000000;stroke-width:0.8;" x="46.965625" xlink:href="#mab52dadc0e" y="107.605455"/>
      </g>
     </g>
     <g id="text_10">
      <!-- 400 -->
      <defs>
       <path d="M 37.796875 64.3125 
L 12.890625 25.390625 
L 37.796875 25.390625 
z
M 35.203125 72.90625 
L 47.609375 72.90625 
L 47.609375 25.390625 
L 58.015625 25.390625 
L 58.015625 17.1875 
L 47.609375 17.1875 
L 47.609375 0 
L 37.796875 0 
L 37.796875 17.1875 
L 4.890625 17.1875 
L 4.890625 26.703125 
z
" id="DejaVuSans-34"/>
      </defs>
      <g transform="translate(20.878125 111.404673)scale(0.1 -0.1)">
       <use xlink:href="#DejaVuSans-34"/>
       <use x="63.623047" xlink:href="#DejaVuSans-30"/>
       <use x="127.246094" xlink:href="#DejaVuSans-30"/>
      </g>
     </g>
    </g>
    <g id="text_11">
     <!-- Refugees -->
     <defs>
      <path d="M 44.390625 34.1875 
Q 47.5625 33.109375 50.5625 29.59375 
Q 53.5625 26.078125 56.59375 19.921875 
L 66.609375 0 
L 56 0 
L 46.6875 18.703125 
Q 43.0625 26.03125 39.671875 28.421875 
Q 36.28125 30.8125 30.421875 30.8125 
L 19.671875 30.8125 
L 19.671875 0 
L 9.8125 0 
L 9.8125 72.90625 
L 32.078125 72.90625 
Q 44.578125 72.90625 50.734375 67.671875 
Q 56.890625 62.453125 56.890625 51.90625 
Q 56.890625 45.015625 53.6875 40.46875 
Q 50.484375 35.9375 44.390625 34.1875 
z
M 19.671875 64.796875 
L 19.671875 38.921875 
L 32.078125 38.921875 
Q 39.203125 38.921875 42.84375 42.21875 
Q 46.484375 45.515625 46.484375 51.90625 
Q 46.484375 58.296875 42.84375 61.546875 
Q 39.203125 64.796875 32.078125 64.796875 
z
" id="DejaVuSans-52"/>
      <path d="M 37.109375 75.984375 
L 37.109375 68.5 
L 28.515625 68.5 
Q 23.6875 68.5 21.796875 66.546875 
Q 19.921875 64.59375 19.921875 59.515625 
L 19.921875 54.6875 
L 34.71875 54.6875 
L 34.71875 47.703125 
L 19.921875 47.703125 
L 19.921875 0 
L 10.890625 0 
L 10.890625 47.703125 
L 2.296875 47.703125 
L 2.296875 54.6875 
L 10.890625 54.6875 
L 10.890625 58.5 
Q 10.890625 67.625 15.140625 71.796875 
Q 19.390625 75.984375 28.609375 75.984375 
z
" id="DejaVuSans-66"/>
      <path d="M 8.5 21.578125 
L 8.5 54.6875 
L 17.484375 54.6875 
L 17.484375 21.921875 
Q 17.484375 14.15625 20.5 10.265625 
Q 23.53125 6.390625 29.59375 6.390625 
Q 36.859375 6.390625 41.078125 11.03125 
Q 45.3125 15.671875 45.3125 23.6875 
L 45.3125 54.6875 
L 54.296875 54.6875 
L 54.296875 0 
L 45.3125 0 
L 45.3125 8.40625 
Q 42.046875 3.421875 37.71875 1 
Q 33.40625 -1.421875 27.6875 -1.421875 
Q 18.265625 -1.421875 13.375 4.4375 
Q 8.5 10.296875 8.5 21.578125 
z
M 31.109375 56 
z
" id="DejaVuSans-75"/>
      <path d="M 45.40625 27.984375 
Q 45.40625 37.75 41.375 43.109375 
Q 37.359375 48.484375 30.078125 48.484375 
Q 22.859375 48.484375 18.828125 43.109375 
Q 14.796875 37.75 14.796875 27.984375 
Q 14.796875 18.265625 18.828125 12.890625 
Q 22.859375 7.515625 30.078125 7.515625 
Q 37.359375 7.515625 41.375 12.890625 
Q 45.40625 18.265625 45.40625 27.984375 
z
M 54.390625 6.78125 
Q 54.390625 -7.171875 48.1875 -13.984375 
Q 42 -20.796875 29.203125 -20.796875 
Q 24.46875 -20.796875 20.265625 -20.09375 
Q 16.0625 -19.390625 12.109375 -17.921875 
L 12.109375 -9.1875 
Q 16.0625 -11.328125 19.921875 -12.34375 
Q 23.78125 -13.375 27.78125 -13.375 
Q 36.625 -13.375 41.015625 -8.765625 
Q 45.40625 -4.15625 45.40625 5.171875 
L 45.40625 9.625 
Q 42.625 4.78125 38.28125 2.390625 
Q 33.9375 0 27.875 0 
Q 17.828125 0 11.671875 7.65625 
Q 5.515625 15.328125 5.515625 27.984375 
Q 5.515625 40.671875 11.671875 48.328125 
Q 17.828125 56 27.875 56 
Q 33.9375 56 38.28125 53.609375 
Q 42.625 51.21875 45.40625 46.390625 
L 45.40625 54.6875 
L 54.390625 54.6875 
z
" id="DejaVuSans-67"/>
      <path d="M 44.28125 53.078125 
L 44.28125 44.578125 
Q 40.484375 46.53125 36.375 47.5 
Q 32.28125 48.484375 27.875 48.484375 
Q 21.1875 48.484375 17.84375 46.4375 
Q 14.5 44.390625 14.5 40.28125 
Q 14.5 37.15625 16.890625 35.375 
Q 19.28125 33.59375 26.515625 31.984375 
L 29.59375 31.296875 
Q 39.15625 29.25 43.1875 25.515625 
Q 47.21875 21.78125 47.21875 15.09375 
Q 47.21875 7.46875 41.1875 3.015625 
Q 35.15625 -1.421875 24.609375 -1.421875 
Q 20.21875 -1.421875 15.453125 -0.5625 
Q 10.6875 0.296875 5.421875 2 
L 5.421875 11.28125 
Q 10.40625 8.6875 15.234375 7.390625 
Q 20.0625 6.109375 24.8125 6.109375 
Q 31.15625 6.109375 34.5625 8.28125 
Q 37.984375 10.453125 37.984375 14.40625 
Q 37.984375 18.0625 35.515625 20.015625 
Q 33.0625 21.96875 24.703125 23.78125 
L 21.578125 24.515625 
Q 13.234375 26.265625 9.515625 29.90625 
Q 5.8125 33.546875 5.8125 39.890625 
Q 5.8125 47.609375 11.28125 51.796875 
Q 16.75 56 26.8125 56 
Q 31.78125 56 36.171875 55.265625 
Q 40.578125 54.546875 44.28125 53.078125 
z
" id="DejaVuSans-73"/>
     </defs>
     <g style="fill:#ff7f0e;" transform="translate(14.798438 283.588594)rotate(-90)scale(0.1 -0.1)">
      <use xlink:href="#DejaVuSans-52"/>
      <use x="69.419922" xlink:href="#DejaVuSans-65"/>
      <use x="130.943359" xlink:href="#DejaVuSans-66"/>
      <use x="166.148438" xlink:href="#DejaVuSans-75"/>
      <use x="229.527344" xlink:href="#DejaVuSans-67"/>
      <use x="293.003906" xlink:href="#DejaVuSans-65"/>
      <use x="354.527344" xlink:href="#DejaVuSans-65"/>
      <use x="416.050781" xlink:href="#DejaVuSans-73"/>
     </g>
    </g>
   </g>
   <g id="line2d_10">
    <path clip-path="url(#pfdc60f9790)" d="M 97.692898 420.633585 
L 102.547182 417.510254 
L 107.401467 418.906329 
L 112.255751 423.243026 
L 117.110036 424.432128 
L 121.96432 413.449791 
L 126.818605 369.424934 
L 131.672889 369.267048 
L 136.527173 372.863935 
L 141.381458 377.021691 
L 146.235742 377.481019 
L 151.090027 364.615357 
L 155.944311 288.040202 
L 160.798596 293.580237 
L 165.65288 305.87866 
L 170.507165 315.794318 
L 175.361449 320.951081 
L 180.215734 311.378394 
L 185.070018 226.601238 
L 189.924303 226.414455 
L 194.778587 231.293026 
L 199.632872 230.962027 
L 204.487156 230.961397 
L 209.341441 222.649819 
L 214.195725 175.992405 
L 219.05001 170.30636 
L 223.904294 177.057984 
L 228.758578 172.966406 
L 233.612863 170.161357 
L 238.467147 166.83154 
L 243.321432 108.705955 
L 248.175716 69.692992 
L 253.030001 66.11451 
L 257.884285 77.684237 
L 262.73857 99.348901 
L 267.592854 106.561238 
L 272.447139 110.516967 
L 277.301423 74.33718 
L 282.155708 89.276742 
L 287.009992 119.765167 
L 291.864277 141.721882 
L 296.718561 158.146113 
L 301.572846 200.72189 
L 306.42713 169.563758 
L 311.281414 188.308666 
L 316.135699 221.684663 
L 320.989983 227.081299 
L 325.844268 236.181193 
L 330.698552 269.104342 
L 335.552837 183.837199 
L 340.407121 201.488528 
L 345.261406 270.456828 
L 350.11569 288.837734 
L 354.969975 321.356124 
L 359.824259 278.573743 
L 364.678544 259.425223 
L 369.532828 292.213672 
L 374.387113 332.523498 
L 379.241397 303.819265 
L 384.095682 298.041464 
L 388.949966 331.934016 
L 393.80425 336.110003 
L 398.658535 343.166546 
L 403.512819 348.109564 
L 408.367104 347.968321 
L 413.221388 333.734458 
L 418.075673 284.977913 
L 422.929957 286.433591 
L 427.784242 308.475738 
L 432.638526 327.845726 
L 437.492811 322.302655 
L 442.347095 315.851403 
L 447.20138 408.133041 
L 452.055664 394.954225 
L 456.909949 421.095052 
L 461.764233 458.91362 
L 466.618518 453.550017 
L 471.472802 452.460252 
L 476.327087 436.859911 
L 481.181371 433.807068 
L 486.035655 435.100927 
L 490.88994 439.537386 
L 495.744224 440.545085 
L 500.598509 429.855664 
L 505.452793 461.942379 
L 510.307078 458.998458 
L 515.161362 460.134304 
L 520.015647 464.724965 
L 524.869931 465.452269 
L 529.724216 455.215613 
L 534.5785 443.158569 
L 539.432785 440.133074 
L 544.287069 441.387245 
L 549.141354 445.862433 
L 553.995638 446.799722 
L 558.849923 436.223993 
L 563.704207 478.174364 
L 568.558491 475.300935 
L 573.412776 476.334557 
L 578.26706 481.025008 
L 583.121345 481.570838 
L 587.975629 471.627192 
L 592.829914 452.472868 
L 597.684198 449.487823 
L 602.538483 450.68332 
L 607.392767 455.215778 
L 612.247052 456.048936 
L 617.101336 445.641341 
L 621.955621 445.502953 
L 626.809905 442.487635 
L 631.66419 443.727043 
L 636.518474 448.21664 
L 641.372759 449.127723 
L 646.227043 438.594316 
L 651.081327 407.51283 
L 655.935612 404.332508 
L 660.789896 405.811231 
L 665.644181 410.06727 
L 670.498465 411.403058 
L 675.35275 400.183876 
L 680.207034 382.249005 
L 685.061319 378.958971 
L 689.915603 380.596823 
L 694.769888 384.69754 
L 699.624172 386.315745 
L 704.478457 374.640529 
L 709.332741 389.204386 
L 714.187026 385.944554 
L 719.04131 387.538612 
L 723.895595 391.682077 
L 728.749879 393.222518 
L 733.604163 381.672879 
L 738.458448 299.03602 
L 743.312732 301.085883 
L 748.167017 309.258704 
L 753.021301 315.97948 
L 757.875586 314.430852 
L 762.72987 300.036821 
L 767.584155 382.249005 
L 772.438439 378.958971 
L 777.292724 380.596823 
L 782.147008 384.69754 
L 787.001293 386.315745 
L 791.855577 374.640529 
L 796.709862 294.500719 
L 801.564146 295.801341 
L 806.418431 304.034174 
L 811.272715 311.214924 
L 816.127 309.792217 
L 820.981284 295.651761 
L 825.835568 370.129893 
L 830.689853 365.007548 
L 835.544137 366.351194 
L 840.398422 371.274848 
L 845.252706 374.720707 
L 850.106991 364.143082 
L 854.961275 312.698114 
L 859.81556 317.004915 
L 864.669844 324.997103 
L 869.524129 330.332297 
L 874.378413 328.40425 
L 879.232698 313.246256 
L 884.086982 382.249005 
L 888.941267 378.958971 
L 893.795551 380.596823 
L 898.649836 384.69754 
L 903.50412 386.315745 
L 908.358404 374.640529 
L 913.212689 373.629865 
L 918.066973 371.871723 
L 922.921258 374.488511 
L 927.775542 378.603118 
L 932.629827 379.676609 
L 937.484111 367.373734 
L 942.338396 382.249005 
L 947.19268 378.958971 
L 952.046965 380.596823 
L 956.901249 384.69754 
L 961.755534 386.315745 
L 966.609818 374.640529 
L 971.464103 382.249005 
L 976.318387 378.958971 
L 981.172672 380.596823 
L 986.026956 384.69754 
L 990.88124 386.315745 
L 995.735525 374.640529 
L 1000.589809 411.375782 
L 1005.444094 408.212252 
L 1010.298378 409.666647 
L 1015.152663 413.946424 
L 1020.006947 415.239009 
L 1024.861232 404.089567 
L 1029.715516 382.249005 
L 1034.569801 378.958971 
L 1039.424085 380.596823 
L 1044.27837 384.69754 
L 1049.132654 386.315745 
L 1053.986939 374.640529 
L 1058.841223 327.042137 
L 1063.695508 333.402687 
L 1068.549792 345.657238 
L 1073.404077 353.400681 
L 1078.258361 355.271391 
L 1083.112645 346.765006 
L 1087.96693 420.75102 
L 1092.821214 417.628208 
L 1097.675499 419.023536 
L 1102.529783 423.360957 
L 1107.384068 424.54873 
L 1112.238352 413.568532 
L 1112.238352 413.568532 
" style="fill:none;stroke:#008000;stroke-dasharray:5.55,2.4;stroke-dashoffset:0;stroke-width:1.5;"/>
   </g>
   <g id="line2d_11">
    <path clip-path="url(#pfdc60f9790)" d="M 97.692898 408.630909 
L 102.547182 412.754545 
L 107.401467 421.001818 
L 112.255751 419.970909 
L 117.110036 383.889091 
L 121.96432 414.816364 
L 126.818605 336.467273 
L 131.672889 306.570909 
L 136.527173 266.365455 
L 141.381458 329.250909 
L 146.235742 289.045455 
L 151.090027 301.416364 
L 155.944311 285.952727 
L 160.798596 262.241818 
L 165.65288 321.003636 
L 170.507165 269.458182 
L 175.361449 256.056364 
L 180.215734 262.241818 
L 185.070018 253.994545 
L 189.924303 244.716364 
L 194.778587 179.769091 
L 199.632872 263.272727 
L 204.487156 219.974545 
L 209.341441 197.294545 
L 214.195725 138.532727 
L 219.05001 159.150909 
L 223.904294 207.603636 
L 228.758578 117.914545 
L 233.612863 153.996364 
L 238.467147 151.934545 
L 243.321432 123.069091 
L 248.175716 162.243636 
L 253.030001 33.38 
L 257.884285 36.472727 
L 262.73857 119.976364 
L 267.592854 121.007273 
L 272.447139 68.430909 
L 277.301423 166.367273 
L 282.155708 246.778182 
L 287.009992 130.285455 
L 291.864277 206.572727 
L 296.718561 169.46 
L 301.572846 202.449091 
L 306.42713 232.345455 
L 311.281414 185.954545 
L 316.135699 155.027273 
L 320.989983 294.2 
L 325.844268 225.129091 
L 330.698552 204.510909 
L 335.552837 193.170909 
L 340.407121 221.005455 
L 345.261406 255.025455 
L 350.11569 225.129091 
L 354.969975 218.943636 
L 359.824259 280.798182 
L 364.678544 305.54 
L 369.532828 276.674545 
L 374.387113 263.272727 
L 379.241397 328.22 
L 384.095682 307.601818 
L 388.949966 328.22 
L 393.80425 303.478182 
L 398.658535 315.849091 
L 403.512819 334.405455 
L 408.367104 362.24 
L 413.221388 300.385455 
L 418.075673 342.652727 
L 422.929957 375.641818 
L 427.784242 344.714545 
L 432.638526 353.992727 
L 437.492811 376.672727 
L 442.347095 366.363636 
L 447.20138 394.198182 
L 452.055664 409.661818 
L 456.909949 417.909091 
L 461.764233 437.496364 
L 466.618518 449.867273 
L 471.472802 424.094545 
L 476.327087 435.434545 
L 481.181371 448.836364 
L 486.035655 439.558182 
L 490.88994 442.650909 
L 495.744224 446.774545 
L 500.598509 451.929091 
L 505.452793 433.372727 
L 510.307078 439.558182 
L 515.161362 452.96 
L 520.015647 437.496364 
L 524.869931 418.94 
L 529.724216 460.176364 
L 534.5785 453.990909 
L 539.432785 455.021818 
L 544.287069 442.650909 
L 549.141354 424.094545 
L 553.995638 469.454545 
L 558.849923 469.454545 
L 563.704207 460.176364 
L 568.558491 458.114545 
L 573.412776 486.98 
L 578.26706 457.083636 
L 583.121345 457.083636 
L 587.975629 474.609091 
L 592.829914 457.083636 
L 597.684198 429.249091 
L 602.538483 442.650909 
L 607.392767 421.001818 
L 612.247052 441.62 
L 617.101336 460.176364 
L 621.955621 427.187273 
L 626.809905 460.176364 
L 631.66419 413.785455 
L 636.518474 388.012727 
L 641.372759 364.301818 
L 646.227043 388.012727 
L 651.081327 369.456364 
L 655.935612 390.074545 
L 660.789896 325.127273 
L 665.644181 322.034545 
L 670.498465 351.930909 
L 675.35275 351.930909 
L 680.207034 343.683636 
L 685.061319 408.630909 
L 694.769888 390.074545 
L 699.624172 383.889091 
L 704.478457 415.847273 
L 709.332741 407.6 
L 714.187026 390.074545 
L 719.04131 369.456364 
L 723.895595 402.445455 
L 728.749879 401.414545 
L 733.604163 391.105455 
L 738.458448 379.765455 
L 743.312732 395.229091 
L 748.167017 407.6 
L 753.021301 378.734545 
L 757.875586 408.630909 
L 762.72987 376.672727 
L 767.584155 403.476364 
L 772.438439 399.352727 
L 777.292724 372.549091 
L 782.147008 362.24 
L 787.001293 367.394545 
L 791.855577 378.734545 
L 796.709862 392.136364 
L 801.564146 417.909091 
L 806.418431 380.796364 
L 811.272715 340.590909 
L 816.127 397.290909 
L 820.981284 385.950909 
L 825.835568 370.487273 
L 830.689853 371.518182 
L 835.544137 359.147273 
L 840.398422 339.56 
L 845.252706 394.198182 
L 850.106991 368.425455 
L 854.961275 332.343636 
L 859.81556 375.641818 
L 864.669844 378.734545 
L 869.524129 341.621818 
L 874.378413 359.147273 
L 879.232698 356.054545 
L 884.086982 370.487273 
L 888.941267 392.136364 
L 893.795551 350.9 
L 898.649836 325.127273 
L 903.50412 353.992727 
L 908.358404 346.776364 
L 913.212689 328.22 
L 918.066973 370.487273 
L 922.921258 376.672727 
L 927.775542 355.023636 
L 932.629827 372.549091 
L 937.484111 375.641818 
L 942.338396 400.383636 
L 947.19268 381.827273 
L 952.046965 385.950909 
L 961.755534 400.383636 
L 966.609818 404.507273 
L 971.464103 400.383636 
L 976.318387 431.310909 
L 981.172672 413.785455 
L 986.026956 378.734545 
L 990.88124 436.465455 
L 995.735525 396.26 
L 1000.589809 413.785455 
L 1005.444094 405.538182 
L 1010.298378 369.456364 
L 1015.152663 388.012727 
L 1020.006947 396.26 
L 1024.861232 374.610909 
L 1029.715516 353.992727 
L 1034.569801 379.765455 
L 1039.424085 313.787273 
L 1044.27837 355.023636 
L 1049.132654 367.394545 
L 1053.986939 358.116364 
L 1058.841223 414.816364 
L 1063.695508 438.527273 
L 1068.549792 396.26 
L 1073.404077 407.6 
L 1078.258361 428.218182 
L 1083.112645 405.538182 
L 1087.96693 426.156364 
L 1092.821214 443.681818 
L 1097.675499 443.681818 
L 1102.529783 442.650909 
L 1107.384068 432.341818 
L 1112.238352 476.670909 
L 1112.238352 476.670909 
" style="fill:none;stroke:#ff7f0e;stroke-linecap:square;stroke-width:1.5;"/>
   </g>
   <g id="line2d_12">
    <defs>
     <path d="M 0 3 
C 0.795609 3 1.55874 2.683901 2.12132 2.12132 
C 2.683901 1.55874 3 0.795609 3 0 
C 3 -0.795609 2.683901 -1.55874 2.12132 -2.12132 
C 1.55874 -2.683901 0.795609 -3 0 -3 
C -0.795609 -3 -1.55874 -2.683901 -2.12132 -2.12132 
C -2.683901 -1.55874 -3 -0.795609 -3 0 
C -3 0.795609 -2.683901 1.55874 -2.12132 2.12132 
C -1.55874 2.683901 -0.795609 3 0 3 
z
" id="mef38b11acb" style="stroke:#008000;"/>
    </defs>
    <g clip-path="url(#pfdc60f9790)">
     <use style="fill:#008000;stroke:#008000;" x="97.692898" xlink:href="#mef38b11acb" y="420.633585"/>
     <use style="fill:#008000;stroke:#008000;" x="126.818605" xlink:href="#mef38b11acb" y="369.424934"/>
     <use style="fill:#008000;stroke:#008000;" x="155.944311" xlink:href="#mef38b11acb" y="288.040202"/>
     <use style="fill:#008000;stroke:#008000;" x="185.070018" xlink:href="#mef38b11acb" y="226.601238"/>
     <use style="fill:#008000;stroke:#008000;" x="214.195725" xlink:href="#mef38b11acb" y="175.992405"/>
     <use style="fill:#008000;stroke:#008000;" x="243.321432" xlink:href="#mef38b11acb" y="108.705955"/>
     <use style="fill:#008000;stroke:#008000;" x="272.447139" xlink:href="#mef38b11acb" y="110.516967"/>
     <use style="fill:#008000;stroke:#008000;" x="301.572846" xlink:href="#mef38b11acb" y="200.72189"/>
     <use style="fill:#008000;stroke:#008000;" x="330.698552" xlink:href="#mef38b11acb" y="269.104342"/>
     <use style="fill:#008000;stroke:#008000;" x="359.824259" xlink:href="#mef38b11acb" y="278.573743"/>
     <use style="fill:#008000;stroke:#008000;" x="388.949966" xlink:href="#mef38b11acb" y="331.934016"/>
     <use style="fill:#008000;stroke:#008000;" x="418.075673" xlink:href="#mef38b11acb" y="284.977913"/>
     <use style="fill:#008000;stroke:#008000;" x="447.20138" xlink:href="#mef38b11acb" y="408.133041"/>
     <use style="fill:#008000;stroke:#008000;" x="476.327087" xlink:href="#mef38b11acb" y="436.859911"/>
     <use style="fill:#008000;stroke:#008000;" x="505.452793" xlink:href="#mef38b11acb" y="461.942379"/>
     <use style="fill:#008000;stroke:#008000;" x="534.5785" xlink:href="#mef38b11acb" y="443.158569"/>
     <use style="fill:#008000;stroke:#008000;" x="563.704207" xlink:href="#mef38b11acb" y="478.174364"/>
     <use style="fill:#008000;stroke:#008000;" x="592.829914" xlink:href="#mef38b11acb" y="452.472868"/>
     <use style="fill:#008000;stroke:#008000;" x="621.955621" xlink:href="#mef38b11acb" y="445.502953"/>
     <use style="fill:#008000;stroke:#008000;" x="651.081327" xlink:href="#mef38b11acb" y="407.51283"/>
     <use style="fill:#008000;stroke:#008000;" x="680.207034" xlink:href="#mef38b11acb" y="382.249005"/>
     <use style="fill:#008000;stroke:#008000;" x="709.332741" xlink:href="#mef38b11acb" y="389.204386"/>
     <use style="fill:#008000;stroke:#008000;" x="738.458448" xlink:href="#mef38b11acb" y="299.03602"/>
     <use style="fill:#008000;stroke:#008000;" x="767.584155" xlink:href="#mef38b11acb" y="382.249005"/>
     <use style="fill:#008000;stroke:#008000;" x="796.709862" xlink:href="#mef38b11acb" y="294.500719"/>
     <use style="fill:#008000;stroke:#008000;" x="825.835568" xlink:href="#mef38b11acb" y="370.129893"/>
     <use style="fill:#008000;stroke:#008000;" x="854.961275" xlink:href="#mef38b11acb" y="312.698114"/>
     <use style="fill:#008000;stroke:#008000;" x="884.086982" xlink:href="#mef38b11acb" y="382.249005"/>
     <use style="fill:#008000;stroke:#008000;" x="913.212689" xlink:href="#mef38b11acb" y="373.629865"/>
     <use style="fill:#008000;stroke:#008000;" x="942.338396" xlink:href="#mef38b11acb" y="382.249005"/>
     <use style="fill:#008000;stroke:#008000;" x="971.464103" xlink:href="#mef38b11acb" y="382.249005"/>
     <use style="fill:#008000;stroke:#008000;" x="1000.589809" xlink:href="#mef38b11acb" y="411.375782"/>
     <use style="fill:#008000;stroke:#008000;" x="1029.715516" xlink:href="#mef38b11acb" y="382.249005"/>
     <use style="fill:#008000;stroke:#008000;" x="1058.841223" xlink:href="#mef38b11acb" y="327.042137"/>
     <use style="fill:#008000;stroke:#008000;" x="1087.96693" xlink:href="#mef38b11acb" y="420.75102"/>
    </g>
   </g>
   <g id="patch_3">
    <path d="M 46.965625 509.66 
L 46.965625 10.7 
" style="fill:none;stroke:#000000;stroke-linecap:square;stroke-linejoin:miter;stroke-width:0.8;"/>
   </g>
   <g id="patch_4">
    <path d="M 1162.965625 509.66 
L 1162.965625 10.7 
" style="fill:none;stroke:#000000;stroke-linecap:square;stroke-linejoin:miter;stroke-width:0.8;"/>
   </g>
   <g id="patch_5">
    <path d="M 46.965625 509.66 
L 1162.965625 509.66 
" style="fill:none;stroke:#000000;stroke-linecap:square;stroke-linejoin:miter;stroke-width:0.8;"/>
   </g>
   <g id="patch_6">
    <path d="M 46.965625 10.7 
L 1162.965625 10.7 
" style="fill:none;stroke:#000000;stroke-linecap:square;stroke-linejoin:miter;stroke-width:0.8;"/>
   </g>
   <g id="legend_1">
    <g id="patch_7">
     <path d="M 53.965625 62.734375 
L 201.740625 62.734375 
Q 203.740625 62.734375 203.740625 60.734375 
L 203.740625 17.7 
Q 203.740625 15.7 201.740625 15.7 
L 53.965625 15.7 
Q 51.965625 15.7 51.965625 17.7 
L 51.965625 60.734375 
Q 51.965625 62.734375 53.965625 62.734375 
z
" style="fill:#ffffff;opacity:0.8;stroke:#cccccc;stroke-linejoin:miter;"/>
    </g>
    <g id="line2d_13">
     <path d="M 55.965625 23.798437 
L 75.965625 23.798437 
" style="fill:none;stroke:#008000;stroke-dasharray:5.55,2.4;stroke-dashoffset:0;stroke-width:1.5;"/>
    </g>
    <g id="line2d_14"/>
    <g id="text_12">
     <!-- Predicated -->
     <defs>
      <path d="M 19.671875 64.796875 
L 19.671875 37.40625 
L 32.078125 37.40625 
Q 38.96875 37.40625 42.71875 40.96875 
Q 46.484375 44.53125 46.484375 51.125 
Q 46.484375 57.671875 42.71875 61.234375 
Q 38.96875 64.796875 32.078125 64.796875 
z
M 9.8125 72.90625 
L 32.078125 72.90625 
Q 44.34375 72.90625 50.609375 67.359375 
Q 56.890625 61.8125 56.890625 51.125 
Q 56.890625 40.328125 50.609375 34.8125 
Q 44.34375 29.296875 32.078125 29.296875 
L 19.671875 29.296875 
L 19.671875 0 
L 9.8125 0 
z
" id="DejaVuSans-50"/>
      <path d="M 41.109375 46.296875 
Q 39.59375 47.171875 37.8125 47.578125 
Q 36.03125 48 33.890625 48 
Q 26.265625 48 22.1875 43.046875 
Q 18.109375 38.09375 18.109375 28.8125 
L 18.109375 0 
L 9.078125 0 
L 9.078125 54.6875 
L 18.109375 54.6875 
L 18.109375 46.1875 
Q 20.953125 51.171875 25.484375 53.578125 
Q 30.03125 56 36.53125 56 
Q 37.453125 56 38.578125 55.875 
Q 39.703125 55.765625 41.0625 55.515625 
z
" id="DejaVuSans-72"/>
      <path d="M 45.40625 46.390625 
L 45.40625 75.984375 
L 54.390625 75.984375 
L 54.390625 0 
L 45.40625 0 
L 45.40625 8.203125 
Q 42.578125 3.328125 38.25 0.953125 
Q 33.9375 -1.421875 27.875 -1.421875 
Q 17.96875 -1.421875 11.734375 6.484375 
Q 5.515625 14.40625 5.515625 27.296875 
Q 5.515625 40.1875 11.734375 48.09375 
Q 17.96875 56 27.875 56 
Q 33.9375 56 38.25 53.625 
Q 42.578125 51.265625 45.40625 46.390625 
z
M 14.796875 27.296875 
Q 14.796875 17.390625 18.875 11.75 
Q 22.953125 6.109375 30.078125 6.109375 
Q 37.203125 6.109375 41.296875 11.75 
Q 45.40625 17.390625 45.40625 27.296875 
Q 45.40625 37.203125 41.296875 42.84375 
Q 37.203125 48.484375 30.078125 48.484375 
Q 22.953125 48.484375 18.875 42.84375 
Q 14.796875 37.203125 14.796875 27.296875 
z
" id="DejaVuSans-64"/>
      <path d="M 48.78125 52.59375 
L 48.78125 44.1875 
Q 44.96875 46.296875 41.140625 47.34375 
Q 37.3125 48.390625 33.40625 48.390625 
Q 24.65625 48.390625 19.8125 42.84375 
Q 14.984375 37.3125 14.984375 27.296875 
Q 14.984375 17.28125 19.8125 11.734375 
Q 24.65625 6.203125 33.40625 6.203125 
Q 37.3125 6.203125 41.140625 7.25 
Q 44.96875 8.296875 48.78125 10.40625 
L 48.78125 2.09375 
Q 45.015625 0.34375 40.984375 -0.53125 
Q 36.96875 -1.421875 32.421875 -1.421875 
Q 20.0625 -1.421875 12.78125 6.34375 
Q 5.515625 14.109375 5.515625 27.296875 
Q 5.515625 40.671875 12.859375 48.328125 
Q 20.21875 56 33.015625 56 
Q 37.15625 56 41.109375 55.140625 
Q 45.0625 54.296875 48.78125 52.59375 
z
" id="DejaVuSans-63"/>
      <path d="M 34.28125 27.484375 
Q 23.390625 27.484375 19.1875 25 
Q 14.984375 22.515625 14.984375 16.5 
Q 14.984375 11.71875 18.140625 8.90625 
Q 21.296875 6.109375 26.703125 6.109375 
Q 34.1875 6.109375 38.703125 11.40625 
Q 43.21875 16.703125 43.21875 25.484375 
L 43.21875 27.484375 
z
M 52.203125 31.203125 
L 52.203125 0 
L 43.21875 0 
L 43.21875 8.296875 
Q 40.140625 3.328125 35.546875 0.953125 
Q 30.953125 -1.421875 24.3125 -1.421875 
Q 15.921875 -1.421875 10.953125 3.296875 
Q 6 8.015625 6 15.921875 
Q 6 25.140625 12.171875 29.828125 
Q 18.359375 34.515625 30.609375 34.515625 
L 43.21875 34.515625 
L 43.21875 35.40625 
Q 43.21875 41.609375 39.140625 45 
Q 35.0625 48.390625 27.6875 48.390625 
Q 23 48.390625 18.546875 47.265625 
Q 14.109375 46.140625 10.015625 43.890625 
L 10.015625 52.203125 
Q 14.9375 54.109375 19.578125 55.046875 
Q 24.21875 56 28.609375 56 
Q 40.484375 56 46.34375 49.84375 
Q 52.203125 43.703125 52.203125 31.203125 
z
" id="DejaVuSans-61"/>
      <path d="M 18.3125 70.21875 
L 18.3125 54.6875 
L 36.8125 54.6875 
L 36.8125 47.703125 
L 18.3125 47.703125 
L 18.3125 18.015625 
Q 18.3125 11.328125 20.140625 9.421875 
Q 21.96875 7.515625 27.59375 7.515625 
L 36.8125 7.515625 
L 36.8125 0 
L 27.59375 0 
Q 17.1875 0 13.234375 3.875 
Q 9.28125 7.765625 9.28125 18.015625 
L 9.28125 47.703125 
L 2.6875 47.703125 
L 2.6875 54.6875 
L 9.28125 54.6875 
L 9.28125 70.21875 
z
" id="DejaVuSans-74"/>
     </defs>
     <g transform="translate(83.965625 27.298437)scale(0.1 -0.1)">
      <use xlink:href="#DejaVuSans-50"/>
      <use x="60.287109" xlink:href="#DejaVuSans-72"/>
      <use x="101.369141" xlink:href="#DejaVuSans-65"/>
      <use x="162.892578" xlink:href="#DejaVuSans-64"/>
      <use x="226.369141" xlink:href="#DejaVuSans-69"/>
      <use x="254.152344" xlink:href="#DejaVuSans-63"/>
      <use x="309.132812" xlink:href="#DejaVuSans-61"/>
      <use x="370.412109" xlink:href="#DejaVuSans-74"/>
      <use x="409.621094" xlink:href="#DejaVuSans-65"/>
      <use x="471.144531" xlink:href="#DejaVuSans-64"/>
     </g>
    </g>
    <g id="line2d_15">
     <path d="M 55.965625 38.476562 
L 75.965625 38.476562 
" style="fill:none;stroke:#ff7f0e;stroke-linecap:square;stroke-width:1.5;"/>
    </g>
    <g id="line2d_16"/>
    <g id="text_13">
     <!-- Real Data -->
     <defs>
      <path d="M 9.421875 75.984375 
L 18.40625 75.984375 
L 18.40625 0 
L 9.421875 0 
z
" id="DejaVuSans-6c"/>
      <path id="DejaVuSans-20"/>
      <path d="M 19.671875 64.796875 
L 19.671875 8.109375 
L 31.59375 8.109375 
Q 46.6875 8.109375 53.6875 14.9375 
Q 60.6875 21.78125 60.6875 36.53125 
Q 60.6875 51.171875 53.6875 57.984375 
Q 46.6875 64.796875 31.59375 64.796875 
z
M 9.8125 72.90625 
L 30.078125 72.90625 
Q 51.265625 72.90625 61.171875 64.09375 
Q 71.09375 55.28125 71.09375 36.53125 
Q 71.09375 17.671875 61.125 8.828125 
Q 51.171875 0 30.078125 0 
L 9.8125 0 
z
" id="DejaVuSans-44"/>
     </defs>
     <g transform="translate(83.965625 41.976562)scale(0.1 -0.1)">
      <use xlink:href="#DejaVuSans-52"/>
      <use x="69.419922" xlink:href="#DejaVuSans-65"/>
      <use x="130.943359" xlink:href="#DejaVuSans-61"/>
      <use x="192.222656" xlink:href="#DejaVuSans-6c"/>
      <use x="220.005859" xlink:href="#DejaVuSans-20"/>
      <use x="251.792969" xlink:href="#DejaVuSans-44"/>
      <use x="328.794922" xlink:href="#DejaVuSans-61"/>
      <use x="390.074219" xlink:href="#DejaVuSans-74"/>
      <use x="429.283203" xlink:href="#DejaVuSans-61"/>
     </g>
    </g>
    <g id="line2d_17"/>
    <g id="line2d_18">
     <g>
      <use style="fill:#008000;stroke:#008000;" x="65.965625" xlink:href="#mef38b11acb" y="53.154688"/>
     </g>
    </g>
    <g id="text_14">
     <!-- Start Point for Forecast -->
     <defs>
      <path d="M 53.515625 70.515625 
L 53.515625 60.890625 
Q 47.90625 63.578125 42.921875 64.890625 
Q 37.9375 66.21875 33.296875 66.21875 
Q 25.25 66.21875 20.875 63.09375 
Q 16.5 59.96875 16.5 54.203125 
Q 16.5 49.359375 19.40625 46.890625 
Q 22.3125 44.4375 30.421875 42.921875 
L 36.375 41.703125 
Q 47.40625 39.59375 52.65625 34.296875 
Q 57.90625 29 57.90625 20.125 
Q 57.90625 9.515625 50.796875 4.046875 
Q 43.703125 -1.421875 29.984375 -1.421875 
Q 24.8125 -1.421875 18.96875 -0.25 
Q 13.140625 0.921875 6.890625 3.21875 
L 6.890625 13.375 
Q 12.890625 10.015625 18.65625 8.296875 
Q 24.421875 6.59375 29.984375 6.59375 
Q 38.421875 6.59375 43.015625 9.90625 
Q 47.609375 13.234375 47.609375 19.390625 
Q 47.609375 24.75 44.3125 27.78125 
Q 41.015625 30.8125 33.5 32.328125 
L 27.484375 33.5 
Q 16.453125 35.6875 11.515625 40.375 
Q 6.59375 45.0625 6.59375 53.421875 
Q 6.59375 63.09375 13.40625 68.65625 
Q 20.21875 74.21875 32.171875 74.21875 
Q 37.3125 74.21875 42.625 73.28125 
Q 47.953125 72.359375 53.515625 70.515625 
z
" id="DejaVuSans-53"/>
      <path d="M 30.609375 48.390625 
Q 23.390625 48.390625 19.1875 42.75 
Q 14.984375 37.109375 14.984375 27.296875 
Q 14.984375 17.484375 19.15625 11.84375 
Q 23.34375 6.203125 30.609375 6.203125 
Q 37.796875 6.203125 41.984375 11.859375 
Q 46.1875 17.53125 46.1875 27.296875 
Q 46.1875 37.015625 41.984375 42.703125 
Q 37.796875 48.390625 30.609375 48.390625 
z
M 30.609375 56 
Q 42.328125 56 49.015625 48.375 
Q 55.71875 40.765625 55.71875 27.296875 
Q 55.71875 13.875 49.015625 6.21875 
Q 42.328125 -1.421875 30.609375 -1.421875 
Q 18.84375 -1.421875 12.171875 6.21875 
Q 5.515625 13.875 5.515625 27.296875 
Q 5.515625 40.765625 12.171875 48.375 
Q 18.84375 56 30.609375 56 
z
" id="DejaVuSans-6f"/>
      <path d="M 54.890625 33.015625 
L 54.890625 0 
L 45.90625 0 
L 45.90625 32.71875 
Q 45.90625 40.484375 42.875 44.328125 
Q 39.84375 48.1875 33.796875 48.1875 
Q 26.515625 48.1875 22.3125 43.546875 
Q 18.109375 38.921875 18.109375 30.90625 
L 18.109375 0 
L 9.078125 0 
L 9.078125 54.6875 
L 18.109375 54.6875 
L 18.109375 46.1875 
Q 21.34375 51.125 25.703125 53.5625 
Q 30.078125 56 35.796875 56 
Q 45.21875 56 50.046875 50.171875 
Q 54.890625 44.34375 54.890625 33.015625 
z
" id="DejaVuSans-6e"/>
      <path d="M 9.8125 72.90625 
L 51.703125 72.90625 
L 51.703125 64.59375 
L 19.671875 64.59375 
L 19.671875 43.109375 
L 48.578125 43.109375 
L 48.578125 34.8125 
L 19.671875 34.8125 
L 19.671875 0 
L 9.8125 0 
z
" id="DejaVuSans-46"/>
     </defs>
     <g transform="translate(83.965625 56.654688)scale(0.1 -0.1)">
      <use xlink:href="#DejaVuSans-53"/>
      <use x="63.476562" xlink:href="#DejaVuSans-74"/>
      <use x="102.685547" xlink:href="#DejaVuSans-61"/>
      <use x="163.964844" xlink:href="#DejaVuSans-72"/>
      <use x="205.078125" xlink:href="#DejaVuSans-74"/>
      <use x="244.287109" xlink:href="#DejaVuSans-20"/>
      <use x="276.074219" xlink:href="#DejaVuSans-50"/>
      <use x="336.330078" xlink:href="#DejaVuSans-6f"/>
      <use x="397.511719" xlink:href="#DejaVuSans-69"/>
      <use x="425.294922" xlink:href="#DejaVuSans-6e"/>
      <use x="488.673828" xlink:href="#DejaVuSans-74"/>
      <use x="527.882812" xlink:href="#DejaVuSans-20"/>
      <use x="559.669922" xlink:href="#DejaVuSans-66"/>
      <use x="594.875" xlink:href="#DejaVuSans-6f"/>
      <use x="656.056641" xlink:href="#DejaVuSans-72"/>
      <use x="697.169922" xlink:href="#DejaVuSans-20"/>
      <use x="728.957031" xlink:href="#DejaVuSans-46"/>
      <use x="786.429688" xlink:href="#DejaVuSans-6f"/>
      <use x="847.611328" xlink:href="#DejaVuSans-72"/>
      <use x="888.693359" xlink:href="#DejaVuSans-65"/>
      <use x="950.216797" xlink:href="#DejaVuSans-63"/>
      <use x="1005.197266" xlink:href="#DejaVuSans-61"/>
      <use x="1066.476562" xlink:href="#DejaVuSans-73"/>
      <use x="1118.576172" xlink:href="#DejaVuSans-74"/>
     </g>
    </g>
   </g>
  </g>
  <g id="axes_2">
   <g id="patch_8">
    <path d="M 46.965625 645.74 
L 1164.405625 645.74 
L 1164.405625 516.14 
L 46.965625 516.14 
z
" style="fill:none;"/>
   </g>
   <g id="matplotlib.axis_3">
    <g id="xtick_6">
     <g id="line2d_19">
      <g>
       <use style="stroke:#000000;stroke-width:0.8;" x="97.758352" xlink:href="#mea8cb24255" y="645.74"/>
      </g>
     </g>
     <g id="text_15">
      <!-- 0 -->
      <g transform="translate(94.577102 660.338437)scale(0.1 -0.1)">
       <use xlink:href="#DejaVuSans-30"/>
      </g>
     </g>
    </g>
    <g id="xtick_7">
     <g id="line2d_20">
      <g>
       <use style="stroke:#000000;stroke-width:0.8;" x="222.250331" xlink:href="#mea8cb24255" y="645.74"/>
      </g>
     </g>
     <g id="text_16">
      <!-- 25 -->
      <g transform="translate(215.887831 660.338437)scale(0.1 -0.1)">
       <use xlink:href="#DejaVuSans-32"/>
       <use x="63.623047" xlink:href="#DejaVuSans-35"/>
      </g>
     </g>
    </g>
    <g id="xtick_8">
     <g id="line2d_21">
      <g>
       <use style="stroke:#000000;stroke-width:0.8;" x="346.742309" xlink:href="#mea8cb24255" y="645.74"/>
      </g>
     </g>
     <g id="text_17">
      <!-- 50 -->
      <g transform="translate(340.379809 660.338437)scale(0.1 -0.1)">
       <use xlink:href="#DejaVuSans-35"/>
       <use x="63.623047" xlink:href="#DejaVuSans-30"/>
      </g>
     </g>
    </g>
    <g id="xtick_9">
     <g id="line2d_22">
      <g>
       <use style="stroke:#000000;stroke-width:0.8;" x="471.234288" xlink:href="#mea8cb24255" y="645.74"/>
      </g>
     </g>
     <g id="text_18">
      <!-- 75 -->
      <defs>
       <path d="M 8.203125 72.90625 
L 55.078125 72.90625 
L 55.078125 68.703125 
L 28.609375 0 
L 18.3125 0 
L 43.21875 64.59375 
L 8.203125 64.59375 
z
" id="DejaVuSans-37"/>
      </defs>
      <g transform="translate(464.871788 660.338437)scale(0.1 -0.1)">
       <use xlink:href="#DejaVuSans-37"/>
       <use x="63.623047" xlink:href="#DejaVuSans-35"/>
      </g>
     </g>
    </g>
    <g id="xtick_10">
     <g id="line2d_23">
      <g>
       <use style="stroke:#000000;stroke-width:0.8;" x="595.726267" xlink:href="#mea8cb24255" y="645.74"/>
      </g>
     </g>
     <g id="text_19">
      <!-- 100 -->
      <g transform="translate(586.182517 660.338437)scale(0.1 -0.1)">
       <use xlink:href="#DejaVuSans-31"/>
       <use x="63.623047" xlink:href="#DejaVuSans-30"/>
       <use x="127.246094" xlink:href="#DejaVuSans-30"/>
      </g>
     </g>
    </g>
    <g id="xtick_11">
     <g id="line2d_24">
      <g>
       <use style="stroke:#000000;stroke-width:0.8;" x="720.218245" xlink:href="#mea8cb24255" y="645.74"/>
      </g>
     </g>
     <g id="text_20">
      <!-- 125 -->
      <g transform="translate(710.674495 660.338437)scale(0.1 -0.1)">
       <use xlink:href="#DejaVuSans-31"/>
       <use x="63.623047" xlink:href="#DejaVuSans-32"/>
       <use x="127.246094" xlink:href="#DejaVuSans-35"/>
      </g>
     </g>
    </g>
    <g id="xtick_12">
     <g id="line2d_25">
      <g>
       <use style="stroke:#000000;stroke-width:0.8;" x="844.710224" xlink:href="#mea8cb24255" y="645.74"/>
      </g>
     </g>
     <g id="text_21">
      <!-- 150 -->
      <g transform="translate(835.166474 660.338437)scale(0.1 -0.1)">
       <use xlink:href="#DejaVuSans-31"/>
       <use x="63.623047" xlink:href="#DejaVuSans-35"/>
       <use x="127.246094" xlink:href="#DejaVuSans-30"/>
      </g>
     </g>
    </g>
    <g id="xtick_13">
     <g id="line2d_26">
      <g>
       <use style="stroke:#000000;stroke-width:0.8;" x="969.202203" xlink:href="#mea8cb24255" y="645.74"/>
      </g>
     </g>
     <g id="text_22">
      <!-- 175 -->
      <g transform="translate(959.658453 660.338437)scale(0.1 -0.1)">
       <use xlink:href="#DejaVuSans-31"/>
       <use x="63.623047" xlink:href="#DejaVuSans-37"/>
       <use x="127.246094" xlink:href="#DejaVuSans-35"/>
      </g>
     </g>
    </g>
    <g id="xtick_14">
     <g id="line2d_27">
      <g>
       <use style="stroke:#000000;stroke-width:0.8;" x="1093.694181" xlink:href="#mea8cb24255" y="645.74"/>
      </g>
     </g>
     <g id="text_23">
      <!-- 200 -->
      <g transform="translate(1084.150431 660.338437)scale(0.1 -0.1)">
       <use xlink:href="#DejaVuSans-32"/>
       <use x="63.623047" xlink:href="#DejaVuSans-30"/>
       <use x="127.246094" xlink:href="#DejaVuSans-30"/>
      </g>
     </g>
    </g>
   </g>
   <g id="matplotlib.axis_4">
    <g id="ytick_5">
     <g id="line2d_28">
      <g>
       <use style="stroke:#000000;stroke-width:0.8;" x="46.965625" xlink:href="#mab52dadc0e" y="633.493771"/>
      </g>
     </g>
     <g id="text_24">
      <!-- 10 -->
      <g transform="translate(27.240625 637.292989)scale(0.1 -0.1)">
       <use xlink:href="#DejaVuSans-31"/>
       <use x="63.623047" xlink:href="#DejaVuSans-30"/>
      </g>
     </g>
    </g>
    <g id="ytick_6">
     <g id="line2d_29">
      <g>
       <use style="stroke:#000000;stroke-width:0.8;" x="46.965625" xlink:href="#mab52dadc0e" y="595.369474"/>
      </g>
     </g>
     <g id="text_25">
      <!-- 20 -->
      <g transform="translate(27.240625 599.168693)scale(0.1 -0.1)">
       <use xlink:href="#DejaVuSans-32"/>
       <use x="63.623047" xlink:href="#DejaVuSans-30"/>
      </g>
     </g>
    </g>
    <g id="ytick_7">
     <g id="line2d_30">
      <g>
       <use style="stroke:#000000;stroke-width:0.8;" x="46.965625" xlink:href="#mab52dadc0e" y="557.245178"/>
      </g>
     </g>
     <g id="text_26">
      <!-- 30 -->
      <g transform="translate(27.240625 561.044397)scale(0.1 -0.1)">
       <use xlink:href="#DejaVuSans-33"/>
       <use x="63.623047" xlink:href="#DejaVuSans-30"/>
      </g>
     </g>
    </g>
    <g id="ytick_8">
     <g id="line2d_31">
      <g>
       <use style="stroke:#000000;stroke-width:0.8;" x="46.965625" xlink:href="#mab52dadc0e" y="519.120882"/>
      </g>
     </g>
     <g id="text_27">
      <!-- 40 -->
      <g transform="translate(27.240625 522.9201)scale(0.1 -0.1)">
       <use xlink:href="#DejaVuSans-34"/>
       <use x="63.623047" xlink:href="#DejaVuSans-30"/>
      </g>
     </g>
    </g>
    <g id="text_28">
     <!-- Temperature -->
     <defs>
      <path d="M 18.109375 8.203125 
L 18.109375 -20.796875 
L 9.078125 -20.796875 
L 9.078125 54.6875 
L 18.109375 54.6875 
L 18.109375 46.390625 
Q 20.953125 51.265625 25.265625 53.625 
Q 29.59375 56 35.59375 56 
Q 45.5625 56 51.78125 48.09375 
Q 58.015625 40.1875 58.015625 27.296875 
Q 58.015625 14.40625 51.78125 6.484375 
Q 45.5625 -1.421875 35.59375 -1.421875 
Q 29.59375 -1.421875 25.265625 0.953125 
Q 20.953125 3.328125 18.109375 8.203125 
z
M 48.6875 27.296875 
Q 48.6875 37.203125 44.609375 42.84375 
Q 40.53125 48.484375 33.40625 48.484375 
Q 26.265625 48.484375 22.1875 42.84375 
Q 18.109375 37.203125 18.109375 27.296875 
Q 18.109375 17.390625 22.1875 11.75 
Q 26.265625 6.109375 33.40625 6.109375 
Q 40.53125 6.109375 44.609375 11.75 
Q 48.6875 17.390625 48.6875 27.296875 
z
" id="DejaVuSans-70"/>
     </defs>
     <g style="fill:#0000ff;" transform="translate(21.160938 613.557187)rotate(-90)scale(0.1 -0.1)">
      <use xlink:href="#DejaVuSans-54"/>
      <use x="60.818359" xlink:href="#DejaVuSans-65"/>
      <use x="122.341797" xlink:href="#DejaVuSans-6d"/>
      <use x="219.753906" xlink:href="#DejaVuSans-70"/>
      <use x="283.230469" xlink:href="#DejaVuSans-65"/>
      <use x="344.753906" xlink:href="#DejaVuSans-72"/>
      <use x="385.867188" xlink:href="#DejaVuSans-61"/>
      <use x="447.146484" xlink:href="#DejaVuSans-74"/>
      <use x="486.355469" xlink:href="#DejaVuSans-75"/>
      <use x="549.734375" xlink:href="#DejaVuSans-72"/>
      <use x="590.816406" xlink:href="#DejaVuSans-65"/>
     </g>
    </g>
   </g>
   <g id="line2d_32">
    <path clip-path="url(#p742e88c43f)" d="M 97.758352 560.706864 
L 102.738031 556.139573 
L 107.717711 540.1491 
L 112.69739 534.946277 
L 117.677069 549.148721 
L 122.656748 558.23336 
L 127.636427 563.893674 
L 132.616106 551.913495 
L 137.595785 532.092292 
L 142.575465 552.086961 
L 147.555144 565.293217 
L 152.534823 545.194088 
L 157.514502 550.558176 
L 162.494181 542.265379 
L 167.47386 535.829236 
L 172.453539 536.769 
L 177.433219 550.057604 
L 182.412898 559.314183 
L 187.392577 554.13881 
L 192.372256 551.412923 
L 197.351935 540.800263 
L 202.331614 561.154825 
L 207.311293 557.65692 
L 212.290973 554.004613 
L 217.270652 542.376702 
L 222.250331 552.574952 
L 227.23001 533.942464 
L 232.209689 540.089245 
L 237.189368 556.034732 
L 242.169047 551.35078 
L 247.148727 561.902823 
L 252.128406 551.836103 
L 257.108085 537.632134 
L 262.087764 536.00232 
L 267.067443 530.297782 
L 272.047122 525.106396 
L 277.026801 547.332861 
L 282.006481 543.582574 
L 286.98616 543.558556 
L 291.965839 544.544069 
L 296.945518 549.676361 
L 301.925197 557.996227 
L 306.904876 577.294745 
L 311.884555 557.130043 
L 316.864235 542.140332 
L 321.843914 547.470108 
L 326.823593 553.211627 
L 331.803272 558.388907 
L 336.782951 557.876135 
L 341.76263 553.484216 
L 346.742309 543.886424 
L 351.721989 537.37327 
L 356.701668 556.260046 
L 361.681347 565.151013 
L 366.661026 563.154444 
L 371.640705 556.985551 
L 376.620384 548.592869 
L 381.600064 544.396146 
L 386.579743 539.016808 
L 391.559422 543.38204 
L 396.539101 554.328669 
L 401.51878 548.017192 
L 406.498459 546.425503 
L 411.478138 539.136137 
L 416.457818 561.213917 
L 421.437497 569.635574 
L 426.417176 571.732411 
L 431.396855 580.415219 
L 436.376534 554.319138 
L 441.356213 553.813991 
L 446.335892 541.804838 
L 451.315572 553.242127 
L 456.295251 551.717155 
L 461.27493 551.907776 
L 466.254609 543.32981 
L 471.234288 540.422832 
L 476.213967 546.757184 
L 481.193646 553.722493 
L 486.173326 576.297795 
L 491.153005 563.726308 
L 496.132684 543.012234 
L 501.112363 539.674833 
L 506.092042 555.720206 
L 511.071721 545.236025 
L 516.0514 556.839154 
L 521.03108 556.846779 
L 526.010759 542.48345 
L 530.990438 544.282917 
L 535.970117 536.607353 
L 540.949796 562.25471 
L 545.929475 560.114794 
L 550.909154 548.344298 
L 555.888834 554.393481 
L 560.868513 553.62337 
L 565.848192 545.579143 
L 570.827871 549.81094 
L 575.80755 563.535687 
L 580.787229 558.120131 
L 585.766908 541.995459 
L 590.746588 549.736598 
L 595.726267 552.494891 
L 600.705946 566.013766 
L 605.685625 565.910831 
L 610.665304 558.007664 
L 615.644983 548.857833 
L 620.624662 548.667211 
L 625.604342 547.172739 
L 630.584021 546.379753 
L 635.5637 536.592865 
L 640.543379 538.370601 
L 645.523058 534.005751 
L 650.502737 534.515091 
L 655.482416 542.759852 
L 660.462096 561.752232 
L 665.441775 571.357267 
L 670.421454 554.519672 
L 675.401133 545.26538 
L 680.380812 531.682837 
L 685.360491 523.269949 
L 690.34017 526.130796 
L 695.31985 530.651194 
L 700.299529 538.356495 
L 705.279208 534.389662 
L 710.258887 530.267282 
L 715.238566 543.745746 
L 720.218245 548.536826 
L 725.197924 548.293593 
L 730.177604 539.372508 
L 735.157283 528.655006 
L 740.136962 522.030909 
L 745.116641 522.560456 
L 750.09632 529.801022 
L 755.075999 536.007276 
L 760.055678 537.906629 
L 765.035358 534.122792 
L 770.015037 533.205522 
L 774.994716 545.15482 
L 779.974395 547.560082 
L 784.954074 556.277202 
L 789.933753 554.621464 
L 794.913432 536.644714 
L 799.893112 528.242119 
L 804.872791 529.422066 
L 809.85247 540.460956 
L 814.832149 543.064083 
L 819.811828 539.160155 
L 824.791507 536.701901 
L 829.771186 526.863545 
L 834.750866 541.741552 
L 839.730545 558.707626 
L 844.710224 563.682847 
L 849.689903 563.491463 
L 854.669582 542.825425 
L 859.649261 538.369076 
L 864.628941 526.054166 
L 869.60862 527.486877 
L 874.588299 559.229548 
L 879.567978 540.749939 
L 884.547657 542.186081 
L 889.527336 534.301214 
L 894.507015 548.462865 
L 899.486695 564.06714 
L 904.466374 562.121275 
L 909.446053 550.791116 
L 914.425732 539.782344 
L 919.405411 530.997744 
L 924.38509 522.632892 
L 929.364769 539.371364 
L 934.344449 537.558554 
L 939.324128 539.618791 
L 944.303807 531.255464 
L 949.283486 528.019474 
L 954.263165 545.040066 
L 959.242844 559.878042 
L 964.222523 562.244417 
L 969.202203 555.013763 
L 974.181882 543.804076 
L 979.161561 552.289019 
L 984.14124 526.226869 
L 989.120919 535.553216 
L 994.100598 542.630991 
L 999.080277 538.738882 
L 1004.059957 531.711049 
L 1009.039636 527.080091 
L 1014.019315 546.913875 
L 1018.998994 562.746895 
L 1023.978673 568.724404 
L 1028.958352 560.080482 
L 1033.938031 550.642431 
L 1038.917711 528.039679 
L 1043.89739 529.187983 
L 1048.877069 536.675214 
L 1053.856748 543.461339 
L 1058.836427 535.381656 
L 1063.816106 536.986689 
L 1073.775465 544.816276 
L 1078.755144 556.163592 
L 1083.734823 550.031299 
L 1088.714502 550.384711 
L 1093.694181 544.971442 
L 1098.67386 530.843721 
L 1103.653539 528.659199 
L 1108.633219 550.954669 
L 1113.612898 561.587535 
L 1113.612898 561.587535 
" style="fill:none;stroke:#ff0000;stroke-linecap:square;stroke-width:1.5;"/>
   </g>
   <g id="line2d_33">
    <path clip-path="url(#p742e88c43f)" d="M 97.758352 576.009957 
L 102.738031 571.875377 
L 107.717711 561.140337 
L 112.69739 571.19867 
L 117.677069 574.146822 
L 122.656748 582.19448 
L 127.636427 593.936382 
L 132.616106 577.160929 
L 137.595785 562.852118 
L 142.575465 571.14644 
L 147.555144 561.311897 
L 152.534823 566.641673 
L 157.514502 553.127754 
L 162.494181 557.360695 
L 167.47386 555.818567 
L 172.453539 560.017196 
L 177.433219 574.692 
L 182.412898 584.265773 
L 187.392577 587.165507 
L 192.372256 579.278353 
L 197.351935 569.97793 
L 202.331614 546.824664 
L 207.311293 558.961153 
L 212.290973 554.640145 
L 217.270652 549.620319 
L 222.250331 556.47888 
L 227.23001 553.348112 
L 232.209689 567.309992 
L 237.189368 571.875377 
L 242.169047 575.155972 
L 247.148727 585.411789 
L 252.128406 579.654639 
L 257.108085 567.876138 
L 262.087764 560.83458 
L 267.067443 559.523105 
L 272.047122 556.959246 
L 277.026801 554.95772 
L 282.006481 554.967251 
L 286.98616 553.432748 
L 291.965839 563.225736 
L 296.945518 574.245945 
L 301.925197 580.044651 
L 306.904876 592.900545 
L 311.884555 586.197912 
L 316.864235 573.315331 
L 321.843914 576.702675 
L 326.823593 582.607366 
L 331.803272 556.210485 
L 336.782951 576.202484 
L 341.76263 571.450291 
L 346.742309 566.951624 
L 351.721989 561.477356 
L 356.701668 579.149874 
L 361.681347 588.812095 
L 366.661026 588.437334 
L 371.640705 582.40302 
L 376.620384 571.526921 
L 381.600064 570.343924 
L 386.579743 565.898631 
L 391.559422 572.770535 
L 396.539101 575.687806 
L 401.51878 557.372132 
L 406.498459 569.220019 
L 411.478138 571.541789 
L 416.457818 581.961159 
L 421.437497 584.732796 
L 426.417176 589.324105 
L 431.396855 588.207063 
L 436.376534 567.858601 
L 441.356213 586.410265 
L 446.335892 549.451047 
L 451.315572 565.25128 
L 456.295251 563.726308 
L 461.27493 560.077432 
L 466.254609 555.000038 
L 471.234288 566.532257 
L 476.213967 570.00538 
L 481.193646 576.43428 
L 486.173326 598.758724 
L 491.153005 587.592118 
L 496.132684 569.127759 
L 501.112363 559.090775 
L 506.092042 569.662643 
L 511.071721 560.523867 
L 516.0514 556.001182 
L 521.03108 571.000424 
L 526.010759 553.09268 
L 530.990438 560.1045 
L 535.970117 568.804465 
L 540.949796 589.142633 
L 545.929475 587.786933 
L 550.909154 579.94324 
L 555.888834 572.726311 
L 560.868513 569.402635 
L 565.848192 579.353457 
L 570.827871 565.708772 
L 575.80755 556.373657 
L 580.787229 563.652728 
L 585.766908 556.800267 
L 590.746588 557.645483 
L 595.726267 576.22879 
L 600.705946 589.015298 
L 605.685625 591.057616 
L 610.665304 578.149873 
L 615.644983 569.317999 
L 620.624662 568.491845 
L 625.604342 581.478887 
L 630.584021 552.115554 
L 635.5637 556.299695 
L 640.543379 556.968396 
L 645.523058 552.92112 
L 650.502737 559.809037 
L 655.482416 570.778159 
L 660.462096 587.193719 
L 665.441775 595.728224 
L 670.421454 581.552086 
L 680.380812 559.440375 
L 685.360491 548.610406 
L 690.34017 549.000036 
L 695.31985 552.401105 
L 700.299529 554.267289 
L 705.279208 554.069424 
L 710.258887 553.087342 
L 715.238566 569.526539 
L 720.218245 574.377474 
L 725.197924 577.457917 
L 730.177604 566.795695 
L 735.157283 558.703432 
L 740.136962 560.0923 
L 745.116641 549.699998 
L 750.09632 550.583338 
L 755.075999 552.3504 
L 760.055678 556.164354 
L 765.035358 556.259284 
L 770.015037 554.602402 
L 774.994716 568.458296 
L 779.974395 574.520822 
L 784.954074 581.351171 
L 789.933753 582.210873 
L 794.913432 565.151395 
L 799.893112 554.261189 
L 804.872791 557.680176 
L 809.85247 549.139953 
L 814.832149 553.508616 
L 819.811828 553.375562 
L 824.791507 551.9886 
L 829.771186 552.683987 
L 839.730545 583.762914 
L 844.710224 588.187619 
L 849.689903 586.941717 
L 854.669582 569.137671 
L 859.649261 559.590966 
L 864.628941 549.319899 
L 869.60862 548.281393 
L 874.588299 576.208203 
L 879.567978 558.984027 
L 884.547657 559.437325 
L 889.527336 558.542929 
L 894.507015 566.761765 
L 899.486695 587.707634 
L 904.466374 588.274162 
L 909.446053 579.381288 
L 914.425732 563.977547 
L 919.405411 560.673696 
L 924.38509 553.070186 
L 929.364769 557.145292 
L 934.344449 553.131948 
L 939.324128 555.310751 
L 944.303807 552.3443 
L 949.283486 551.961532 
L 954.263165 568.606981 
L 959.242844 581.607366 
L 964.222523 586.046178 
L 969.202203 583.8201 
L 974.181882 571.470878 
L 979.161561 565.632523 
L 984.14124 550.966106 
L 989.120919 553.580289 
L 994.100598 558.423981 
L 1004.059957 553.784636 
L 1009.039636 552.607739 
L 1014.019315 569.79074 
L 1018.998994 585.845263 
L 1023.978673 590.337448 
L 1028.958352 583.274541 
L 1033.938031 572.844115 
L 1038.917711 562.059514 
L 1043.89739 553.996225 
L 1048.877069 554.747274 
L 1053.856748 556.301602 
L 1058.836427 553.233739 
L 1063.816106 553.163972 
L 1068.795785 557.39005 
L 1073.775465 566.130808 
L 1078.755144 578.44953 
L 1083.734823 573.264626 
L 1088.714502 577.038931 
L 1093.694181 573.132335 
L 1098.67386 558.379757 
L 1103.653539 555.061418 
L 1108.633219 565.25128 
L 1113.612898 571.2814 
L 1113.612898 571.2814 
" style="fill:none;stroke:#008000;stroke-linecap:square;stroke-width:1.5;"/>
   </g>
   <g id="line2d_34">
    <path clip-path="url(#p742e88c43f)" d="M 97.758352 588.041985 
L 102.738031 583.047702 
L 107.717711 577.170079 
L 112.69739 578.396538 
L 117.677069 597.890634 
L 122.656748 604.907411 
L 127.636427 610.013398 
L 132.616106 600.467836 
L 137.595785 590.291318 
L 142.575465 599.431618 
L 147.555144 603.690102 
L 152.534823 594.788079 
L 157.514502 580.196004 
L 167.47386 573.932182 
L 172.453539 581.933329 
L 177.433219 595.598983 
L 182.412898 613.098416 
L 187.392577 612.24405 
L 192.372256 605.409889 
L 197.351935 595.028262 
L 202.331614 604.147594 
L 207.311293 601.337833 
L 212.290973 592.700774 
L 217.270652 576.307326 
L 222.250331 579.07515 
L 227.23001 573.711062 
L 237.189368 598.888347 
L 242.169047 596.643207 
L 247.148727 609.31153 
L 252.128406 602.279122 
L 257.108085 590.841452 
L 262.087764 584.698484 
L 267.067443 579.980602 
L 272.047122 565.412546 
L 277.026801 583.169699 
L 282.006481 572.475072 
L 286.98616 580.617278 
L 291.965839 584.934854 
L 296.945518 595.92952 
L 301.925197 599.181904 
L 306.904876 620.786943 
L 311.884555 603.742714 
L 316.864235 597.451061 
L 321.843914 598.371 
L 326.823593 598.981751 
L 331.803272 594.225745 
L 336.782951 589.098028 
L 341.76263 583.381289 
L 346.742309 582.39387 
L 351.721989 578.776256 
L 356.701668 599.510535 
L 361.681347 609.981755 
L 366.661026 613.237188 
L 371.640705 605.863568 
L 376.620384 600.381676 
L 381.600064 596.473935 
L 386.579743 586.38129 
L 391.559422 593.534552 
L 396.539101 586.932568 
L 401.51878 581.822006 
L 406.498459 582.224217 
L 411.478138 589.460208 
L 416.457818 595.712593 
L 421.437497 610.809814 
L 426.417176 613.478515 
L 431.396855 617.952401 
L 436.376534 607.5235 
L 441.356213 603.375577 
L 446.335892 592.700774 
L 451.315572 591.557045 
L 456.295251 585.075914 
L 461.27493 573.638625 
L 466.254609 574.794935 
L 471.234288 579.210491 
L 476.213967 591.022161 
L 481.193646 600.630627 
L 486.173326 617.220415 
L 491.153005 613.287894 
L 496.132684 596.25777 
L 501.112363 587.244043 
L 506.092042 602.041226 
L 511.071721 590.98518 
L 516.0514 577.320289 
L 521.03108 578.728219 
L 526.010759 576.419793 
L 530.990438 586.219643 
L 535.970117 589.330586 
L 540.949796 608.643211 
L 545.929475 606.661891 
L 550.909154 600.858229 
L 555.888834 606.124338 
L 560.868513 606.616142 
L 565.848192 596.423611 
L 570.827871 595.369474 
L 575.80755 590.603937 
L 580.787229 583.777782 
L 585.766908 583.169699 
L 590.746588 590.642062 
L 600.705946 612.525408 
L 605.685625 611.921138 
L 610.665304 604.138062 
L 615.644983 601.088119 
L 620.624662 599.372525 
L 625.604342 597.965739 
L 630.584021 591.175802 
L 635.5637 573.577245 
L 640.543379 574.433898 
L 645.523058 570.205914 
L 650.502737 575.415599 
L 655.482416 592.940957 
L 660.462096 608.212025 
L 665.441775 619.790755 
L 670.421454 606.329066 
L 675.401133 593.716786 
L 680.380812 587.057615 
L 685.360491 576.644726 
L 690.34017 570.379379 
L 695.31985 572.578007 
L 700.299529 572.578389 
L 705.279208 572.931038 
L 710.258887 577.055325 
L 715.238566 592.213545 
L 720.218245 598.916178 
L 725.197924 605.111757 
L 730.177604 591.598981 
L 735.157283 584.636341 
L 740.136962 576.441142 
L 745.116641 580.160549 
L 750.09632 570.58525 
L 755.075999 571.491084 
L 760.055678 573.299319 
L 765.035358 574.260814 
L 770.015037 575.961158 
L 774.994716 590.500239 
L 779.974395 600.18381 
L 784.954074 606.22308 
L 789.933753 607.593649 
L 794.913432 591.883007 
L 799.893112 581.009196 
L 804.872791 581.407976 
L 809.85247 568.470115 
L 814.832149 569.64053 
L 819.811828 573.03283 
L 824.791507 570.174271 
L 829.771186 574.547127 
L 834.750866 594.707637 
L 839.730545 607.016447 
L 844.710224 611.368717 
L 849.689903 608.992048 
L 854.669582 593.069436 
L 859.649261 581.958109 
L 864.628941 570.459059 
L 869.60862 567.936374 
L 874.588299 586.181519 
L 879.567978 574.037024 
L 884.547657 583.741564 
L 889.527336 578.626808 
L 894.507015 592.709923 
L 899.486695 616.10871 
L 904.466374 615.535702 
L 909.446053 606.39769 
L 914.425732 597.775117 
L 919.405411 586.612705 
L 924.38509 576.909309 
L 929.364769 571.584107 
L 934.344449 572.627188 
L 939.324128 574.730124 
L 944.303807 574.011481 
L 949.283486 576.11823 
L 954.263165 591.411791 
L 959.242844 602.524642 
L 964.222523 611.273406 
L 969.202203 610.68896 
L 974.181882 598.7267 
L 979.161561 601.088119 
L 984.14124 576.023681 
L 989.120919 574.28407 
L 994.100598 585.28941 
L 999.080277 575.661501 
L 1004.059957 573.17084 
L 1009.039636 573.458679 
L 1014.019315 594.241376 
L 1018.998994 607.129676 
L 1023.978673 610.779315 
L 1028.958352 607.694678 
L 1033.938031 597.930283 
L 1038.917711 589.181139 
L 1043.89739 583.170843 
L 1048.877069 573.592876 
L 1053.856748 573.359556 
L 1058.836427 570.306562 
L 1063.816106 572.549033 
L 1068.795785 577.337826 
L 1073.775465 587.90245 
L 1078.755144 601.498717 
L 1083.734823 594.991663 
L 1088.714502 598.343169 
L 1093.694181 595.237564 
L 1098.67386 580.840305 
L 1103.653539 580.385482 
L 1108.633219 592.700774 
L 1113.612898 587.655023 
L 1113.612898 587.655023 
" style="fill:none;stroke:#0000ff;stroke-linecap:square;stroke-width:1.5;"/>
   </g>
   <g id="line2d_35">
    <defs>
     <path d="M 0 3 
C 0.795609 3 1.55874 2.683901 2.12132 2.12132 
C 2.683901 1.55874 3 0.795609 3 0 
C 3 -0.795609 2.683901 -1.55874 2.12132 -2.12132 
C 1.55874 -2.683901 0.795609 -3 0 -3 
C -0.795609 -3 -1.55874 -2.683901 -2.12132 -2.12132 
C -2.683901 -1.55874 -3 -0.795609 -3 0 
C -3 0.795609 -2.683901 1.55874 -2.12132 2.12132 
C -1.55874 2.683901 -0.795609 3 0 3 
z
" id="mb3d60c35ed" style="stroke:#ff0000;"/>
    </defs>
    <g clip-path="url(#p742e88c43f)">
     <use style="fill:#ff0000;stroke:#ff0000;" x="107.717711" xlink:href="#mb3d60c35ed" y="639.849091"/>
     <use style="fill:#ff0000;stroke:#ff0000;" x="112.69739" xlink:href="#mb3d60c35ed" y="639.849091"/>
     <use style="fill:#ff0000;stroke:#ff0000;" x="202.331614" xlink:href="#mb3d60c35ed" y="639.849091"/>
     <use style="fill:#ff0000;stroke:#ff0000;" x="207.311293" xlink:href="#mb3d60c35ed" y="639.849091"/>
     <use style="fill:#ff0000;stroke:#ff0000;" x="212.290973" xlink:href="#mb3d60c35ed" y="639.849091"/>
     <use style="fill:#ff0000;stroke:#ff0000;" x="217.270652" xlink:href="#mb3d60c35ed" y="639.849091"/>
     <use style="fill:#ff0000;stroke:#ff0000;" x="222.250331" xlink:href="#mb3d60c35ed" y="639.849091"/>
     <use style="fill:#ff0000;stroke:#ff0000;" x="227.23001" xlink:href="#mb3d60c35ed" y="639.849091"/>
     <use style="fill:#ff0000;stroke:#ff0000;" x="232.209689" xlink:href="#mb3d60c35ed" y="639.849091"/>
     <use style="fill:#ff0000;stroke:#ff0000;" x="237.189368" xlink:href="#mb3d60c35ed" y="639.849091"/>
     <use style="fill:#ff0000;stroke:#ff0000;" x="242.169047" xlink:href="#mb3d60c35ed" y="639.849091"/>
     <use style="fill:#ff0000;stroke:#ff0000;" x="247.148727" xlink:href="#mb3d60c35ed" y="639.849091"/>
     <use style="fill:#ff0000;stroke:#ff0000;" x="252.128406" xlink:href="#mb3d60c35ed" y="639.849091"/>
     <use style="fill:#ff0000;stroke:#ff0000;" x="257.108085" xlink:href="#mb3d60c35ed" y="639.849091"/>
     <use style="fill:#ff0000;stroke:#ff0000;" x="262.087764" xlink:href="#mb3d60c35ed" y="639.849091"/>
     <use style="fill:#ff0000;stroke:#ff0000;" x="267.067443" xlink:href="#mb3d60c35ed" y="639.849091"/>
     <use style="fill:#ff0000;stroke:#ff0000;" x="272.047122" xlink:href="#mb3d60c35ed" y="639.849091"/>
     <use style="fill:#ff0000;stroke:#ff0000;" x="277.026801" xlink:href="#mb3d60c35ed" y="639.849091"/>
     <use style="fill:#ff0000;stroke:#ff0000;" x="282.006481" xlink:href="#mb3d60c35ed" y="639.849091"/>
     <use style="fill:#ff0000;stroke:#ff0000;" x="286.98616" xlink:href="#mb3d60c35ed" y="639.849091"/>
     <use style="fill:#ff0000;stroke:#ff0000;" x="291.965839" xlink:href="#mb3d60c35ed" y="639.849091"/>
     <use style="fill:#ff0000;stroke:#ff0000;" x="296.945518" xlink:href="#mb3d60c35ed" y="639.849091"/>
     <use style="fill:#ff0000;stroke:#ff0000;" x="301.925197" xlink:href="#mb3d60c35ed" y="639.849091"/>
     <use style="fill:#ff0000;stroke:#ff0000;" x="306.904876" xlink:href="#mb3d60c35ed" y="639.849091"/>
     <use style="fill:#ff0000;stroke:#ff0000;" x="311.884555" xlink:href="#mb3d60c35ed" y="639.849091"/>
     <use style="fill:#ff0000;stroke:#ff0000;" x="316.864235" xlink:href="#mb3d60c35ed" y="639.849091"/>
     <use style="fill:#ff0000;stroke:#ff0000;" x="321.843914" xlink:href="#mb3d60c35ed" y="639.849091"/>
     <use style="fill:#ff0000;stroke:#ff0000;" x="326.823593" xlink:href="#mb3d60c35ed" y="639.849091"/>
     <use style="fill:#ff0000;stroke:#ff0000;" x="331.803272" xlink:href="#mb3d60c35ed" y="639.849091"/>
     <use style="fill:#ff0000;stroke:#ff0000;" x="336.782951" xlink:href="#mb3d60c35ed" y="639.849091"/>
     <use style="fill:#ff0000;stroke:#ff0000;" x="341.76263" xlink:href="#mb3d60c35ed" y="639.849091"/>
     <use style="fill:#ff0000;stroke:#ff0000;" x="346.742309" xlink:href="#mb3d60c35ed" y="639.849091"/>
     <use style="fill:#ff0000;stroke:#ff0000;" x="351.721989" xlink:href="#mb3d60c35ed" y="639.849091"/>
     <use style="fill:#ff0000;stroke:#ff0000;" x="356.701668" xlink:href="#mb3d60c35ed" y="639.849091"/>
     <use style="fill:#ff0000;stroke:#ff0000;" x="361.681347" xlink:href="#mb3d60c35ed" y="639.849091"/>
     <use style="fill:#ff0000;stroke:#ff0000;" x="466.254609" xlink:href="#mb3d60c35ed" y="639.849091"/>
     <use style="fill:#ff0000;stroke:#ff0000;" x="516.0514" xlink:href="#mb3d60c35ed" y="639.849091"/>
     <use style="fill:#ff0000;stroke:#ff0000;" x="521.03108" xlink:href="#mb3d60c35ed" y="639.849091"/>
     <use style="fill:#ff0000;stroke:#ff0000;" x="526.010759" xlink:href="#mb3d60c35ed" y="639.849091"/>
     <use style="fill:#ff0000;stroke:#ff0000;" x="530.990438" xlink:href="#mb3d60c35ed" y="639.849091"/>
     <use style="fill:#ff0000;stroke:#ff0000;" x="580.787229" xlink:href="#mb3d60c35ed" y="639.849091"/>
     <use style="fill:#ff0000;stroke:#ff0000;" x="585.766908" xlink:href="#mb3d60c35ed" y="639.849091"/>
     <use style="fill:#ff0000;stroke:#ff0000;" x="700.299529" xlink:href="#mb3d60c35ed" y="639.849091"/>
     <use style="fill:#ff0000;stroke:#ff0000;" x="725.197924" xlink:href="#mb3d60c35ed" y="639.849091"/>
     <use style="fill:#ff0000;stroke:#ff0000;" x="730.177604" xlink:href="#mb3d60c35ed" y="639.849091"/>
     <use style="fill:#ff0000;stroke:#ff0000;" x="735.157283" xlink:href="#mb3d60c35ed" y="639.849091"/>
     <use style="fill:#ff0000;stroke:#ff0000;" x="740.136962" xlink:href="#mb3d60c35ed" y="639.849091"/>
     <use style="fill:#ff0000;stroke:#ff0000;" x="745.116641" xlink:href="#mb3d60c35ed" y="639.849091"/>
     <use style="fill:#ff0000;stroke:#ff0000;" x="750.09632" xlink:href="#mb3d60c35ed" y="639.849091"/>
     <use style="fill:#ff0000;stroke:#ff0000;" x="755.075999" xlink:href="#mb3d60c35ed" y="639.849091"/>
     <use style="fill:#ff0000;stroke:#ff0000;" x="760.055678" xlink:href="#mb3d60c35ed" y="639.849091"/>
     <use style="fill:#ff0000;stroke:#ff0000;" x="765.035358" xlink:href="#mb3d60c35ed" y="639.849091"/>
     <use style="fill:#ff0000;stroke:#ff0000;" x="770.015037" xlink:href="#mb3d60c35ed" y="639.849091"/>
     <use style="fill:#ff0000;stroke:#ff0000;" x="774.994716" xlink:href="#mb3d60c35ed" y="639.849091"/>
     <use style="fill:#ff0000;stroke:#ff0000;" x="779.974395" xlink:href="#mb3d60c35ed" y="639.849091"/>
     <use style="fill:#ff0000;stroke:#ff0000;" x="784.954074" xlink:href="#mb3d60c35ed" y="639.849091"/>
     <use style="fill:#ff0000;stroke:#ff0000;" x="789.933753" xlink:href="#mb3d60c35ed" y="639.849091"/>
     <use style="fill:#ff0000;stroke:#ff0000;" x="794.913432" xlink:href="#mb3d60c35ed" y="639.849091"/>
     <use style="fill:#ff0000;stroke:#ff0000;" x="799.893112" xlink:href="#mb3d60c35ed" y="639.849091"/>
     <use style="fill:#ff0000;stroke:#ff0000;" x="804.872791" xlink:href="#mb3d60c35ed" y="639.849091"/>
     <use style="fill:#ff0000;stroke:#ff0000;" x="809.85247" xlink:href="#mb3d60c35ed" y="639.849091"/>
     <use style="fill:#ff0000;stroke:#ff0000;" x="814.832149" xlink:href="#mb3d60c35ed" y="639.849091"/>
     <use style="fill:#ff0000;stroke:#ff0000;" x="819.811828" xlink:href="#mb3d60c35ed" y="639.849091"/>
     <use style="fill:#ff0000;stroke:#ff0000;" x="824.791507" xlink:href="#mb3d60c35ed" y="639.849091"/>
     <use style="fill:#ff0000;stroke:#ff0000;" x="829.771186" xlink:href="#mb3d60c35ed" y="639.849091"/>
     <use style="fill:#ff0000;stroke:#ff0000;" x="834.750866" xlink:href="#mb3d60c35ed" y="639.849091"/>
     <use style="fill:#ff0000;stroke:#ff0000;" x="839.730545" xlink:href="#mb3d60c35ed" y="639.849091"/>
     <use style="fill:#ff0000;stroke:#ff0000;" x="844.710224" xlink:href="#mb3d60c35ed" y="639.849091"/>
     <use style="fill:#ff0000;stroke:#ff0000;" x="849.689903" xlink:href="#mb3d60c35ed" y="639.849091"/>
     <use style="fill:#ff0000;stroke:#ff0000;" x="854.669582" xlink:href="#mb3d60c35ed" y="639.849091"/>
     <use style="fill:#ff0000;stroke:#ff0000;" x="859.649261" xlink:href="#mb3d60c35ed" y="639.849091"/>
     <use style="fill:#ff0000;stroke:#ff0000;" x="864.628941" xlink:href="#mb3d60c35ed" y="639.849091"/>
     <use style="fill:#ff0000;stroke:#ff0000;" x="869.60862" xlink:href="#mb3d60c35ed" y="639.849091"/>
     <use style="fill:#ff0000;stroke:#ff0000;" x="874.588299" xlink:href="#mb3d60c35ed" y="639.849091"/>
     <use style="fill:#ff0000;stroke:#ff0000;" x="879.567978" xlink:href="#mb3d60c35ed" y="639.849091"/>
     <use style="fill:#ff0000;stroke:#ff0000;" x="884.547657" xlink:href="#mb3d60c35ed" y="639.849091"/>
     <use style="fill:#ff0000;stroke:#ff0000;" x="889.527336" xlink:href="#mb3d60c35ed" y="639.849091"/>
     <use style="fill:#ff0000;stroke:#ff0000;" x="894.507015" xlink:href="#mb3d60c35ed" y="639.849091"/>
     <use style="fill:#ff0000;stroke:#ff0000;" x="899.486695" xlink:href="#mb3d60c35ed" y="639.849091"/>
     <use style="fill:#ff0000;stroke:#ff0000;" x="939.324128" xlink:href="#mb3d60c35ed" y="639.849091"/>
     <use style="fill:#ff0000;stroke:#ff0000;" x="944.303807" xlink:href="#mb3d60c35ed" y="639.849091"/>
    </g>
   </g>
   <g id="patch_9">
    <path d="M 46.965625 645.74 
L 46.965625 516.14 
" style="fill:none;stroke:#000000;stroke-linecap:square;stroke-linejoin:miter;stroke-width:0.8;"/>
   </g>
   <g id="patch_10">
    <path d="M 1164.405625 645.74 
L 1164.405625 516.14 
" style="fill:none;stroke:#000000;stroke-linecap:square;stroke-linejoin:miter;stroke-width:0.8;"/>
   </g>
   <g id="patch_11">
    <path d="M 46.965625 645.74 
L 1164.405625 645.74 
" style="fill:none;stroke:#000000;stroke-linecap:square;stroke-linejoin:miter;stroke-width:0.8;"/>
   </g>
   <g id="patch_12">
    <path d="M 46.965625 516.14 
L 1164.405625 516.14 
" style="fill:none;stroke:#000000;stroke-linecap:square;stroke-linejoin:miter;stroke-width:0.8;"/>
   </g>
   <g id="legend_2">
    <g id="patch_13">
     <path d="M 53.965625 582.8525 
L 144.978125 582.8525 
Q 146.978125 582.8525 146.978125 580.8525 
L 146.978125 523.14 
Q 146.978125 521.14 144.978125 521.14 
L 53.965625 521.14 
Q 51.965625 521.14 51.965625 523.14 
L 51.965625 580.8525 
Q 51.965625 582.8525 53.965625 582.8525 
z
" style="fill:#ffffff;opacity:0.8;stroke:#cccccc;stroke-linejoin:miter;"/>
    </g>
    <g id="line2d_36">
     <path d="M 55.965625 529.238437 
L 75.965625 529.238437 
" style="fill:none;stroke:#ff0000;stroke-linecap:square;stroke-width:1.5;"/>
    </g>
    <g id="line2d_37"/>
    <g id="text_29">
     <!-- Maxmimum -->
     <defs>
      <path d="M 9.8125 72.90625 
L 24.515625 72.90625 
L 43.109375 23.296875 
L 61.8125 72.90625 
L 76.515625 72.90625 
L 76.515625 0 
L 66.890625 0 
L 66.890625 64.015625 
L 48.09375 14.015625 
L 38.1875 14.015625 
L 19.390625 64.015625 
L 19.390625 0 
L 9.8125 0 
z
" id="DejaVuSans-4d"/>
      <path d="M 54.890625 54.6875 
L 35.109375 28.078125 
L 55.90625 0 
L 45.3125 0 
L 29.390625 21.484375 
L 13.484375 0 
L 2.875 0 
L 24.125 28.609375 
L 4.6875 54.6875 
L 15.28125 54.6875 
L 29.78125 35.203125 
L 44.28125 54.6875 
z
" id="DejaVuSans-78"/>
     </defs>
     <g transform="translate(83.965625 532.738437)scale(0.1 -0.1)">
      <use xlink:href="#DejaVuSans-4d"/>
      <use x="86.279297" xlink:href="#DejaVuSans-61"/>
      <use x="147.558594" xlink:href="#DejaVuSans-78"/>
      <use x="206.738281" xlink:href="#DejaVuSans-6d"/>
      <use x="304.150391" xlink:href="#DejaVuSans-69"/>
      <use x="331.933594" xlink:href="#DejaVuSans-6d"/>
      <use x="429.345703" xlink:href="#DejaVuSans-75"/>
      <use x="492.724609" xlink:href="#DejaVuSans-6d"/>
     </g>
    </g>
    <g id="line2d_38">
     <path d="M 55.965625 543.916562 
L 75.965625 543.916562 
" style="fill:none;stroke:#008000;stroke-linecap:square;stroke-width:1.5;"/>
    </g>
    <g id="line2d_39"/>
    <g id="text_30">
     <!-- Average -->
     <defs>
      <path d="M 34.1875 63.1875 
L 20.796875 26.90625 
L 47.609375 26.90625 
z
M 28.609375 72.90625 
L 39.796875 72.90625 
L 67.578125 0 
L 57.328125 0 
L 50.6875 18.703125 
L 17.828125 18.703125 
L 11.1875 0 
L 0.78125 0 
z
" id="DejaVuSans-41"/>
      <path d="M 2.984375 54.6875 
L 12.5 54.6875 
L 29.59375 8.796875 
L 46.6875 54.6875 
L 56.203125 54.6875 
L 35.6875 0 
L 23.484375 0 
z
" id="DejaVuSans-76"/>
     </defs>
     <g transform="translate(83.965625 547.416562)scale(0.1 -0.1)">
      <use xlink:href="#DejaVuSans-41"/>
      <use x="68.330078" xlink:href="#DejaVuSans-76"/>
      <use x="127.509766" xlink:href="#DejaVuSans-65"/>
      <use x="189.033203" xlink:href="#DejaVuSans-72"/>
      <use x="230.146484" xlink:href="#DejaVuSans-61"/>
      <use x="291.425781" xlink:href="#DejaVuSans-67"/>
      <use x="354.902344" xlink:href="#DejaVuSans-65"/>
     </g>
    </g>
    <g id="line2d_40">
     <path d="M 55.965625 558.594687 
L 75.965625 558.594687 
" style="fill:none;stroke:#0000ff;stroke-linecap:square;stroke-width:1.5;"/>
    </g>
    <g id="line2d_41"/>
    <g id="text_31">
     <!-- Minimum -->
     <g transform="translate(83.965625 562.094687)scale(0.1 -0.1)">
      <use xlink:href="#DejaVuSans-4d"/>
      <use x="86.279297" xlink:href="#DejaVuSans-69"/>
      <use x="114.0625" xlink:href="#DejaVuSans-6e"/>
      <use x="177.441406" xlink:href="#DejaVuSans-69"/>
      <use x="205.224609" xlink:href="#DejaVuSans-6d"/>
      <use x="302.636719" xlink:href="#DejaVuSans-75"/>
      <use x="366.015625" xlink:href="#DejaVuSans-6d"/>
     </g>
    </g>
    <g id="line2d_42"/>
    <g id="line2d_43">
     <g>
      <use style="fill:#ff0000;stroke:#ff0000;" x="65.965625" xlink:href="#mb3d60c35ed" y="573.272812"/>
     </g>
    </g>
    <g id="text_32">
     <!-- Disasters -->
     <g transform="translate(83.965625 576.772812)scale(0.1 -0.1)">
      <use xlink:href="#DejaVuSans-44"/>
      <use x="77.001953" xlink:href="#DejaVuSans-69"/>
      <use x="104.785156" xlink:href="#DejaVuSans-73"/>
      <use x="156.884766" xlink:href="#DejaVuSans-61"/>
      <use x="218.164062" xlink:href="#DejaVuSans-73"/>
      <use x="270.263672" xlink:href="#DejaVuSans-74"/>
      <use x="309.472656" xlink:href="#DejaVuSans-65"/>
      <use x="370.996094" xlink:href="#DejaVuSans-72"/>
      <use x="412.109375" xlink:href="#DejaVuSans-73"/>
     </g>
    </g>
   </g>
  </g>
 </g>
 <defs>
  <clipPath id="pfdc60f9790">
   <rect height="498.96" width="1116" x="46.965625" y="10.7"/>
  </clipPath>
  <clipPath id="p742e88c43f">
   <rect height="129.6" width="1117.44" x="46.965625" y="516.14"/>
  </clipPath>
 </defs>
</svg>
