<?xml version="1.0" encoding="utf-8" standalone="no"?>
<!DOCTYPE svg PUBLIC "-//W3C//DTD SVG 1.1//EN"
  "http://www.w3.org/Graphics/SVG/1.1/DTD/svg11.dtd">
<!-- Created with matplotlib (http://matplotlib.org/) -->
<svg height="669pt" version="1.1" viewBox="0 0 1168 669" width="1168pt" xmlns="http://www.w3.org/2000/svg" xmlns:xlink="http://www.w3.org/1999/xlink">
 <defs>
  <style type="text/css">
*{stroke-linecap:butt;stroke-linejoin:round;}
  </style>
 </defs>
 <g id="figure_1">
  <g id="patch_1">
   <path d="M 0 669.618125 
L 1168.743125 669.618125 
L 1168.743125 -0 
L 0 -0 
z
" style="fill:none;"/>
  </g>
  <g id="axes_1">
   <g id="patch_2">
    <path d="M 40.603125 509.66 
L 1156.603125 509.66 
L 1156.603125 10.7 
L 40.603125 10.7 
z
" style="fill:none;"/>
   </g>
   <g id="matplotlib.axis_1">
    <g id="xtick_1">
     <g id="line2d_1">
      <defs>
       <path d="M 0 0 
L 0 3.5 
" id="m7ee96dc6e5" style="stroke:#000000;stroke-width:0.8;"/>
      </defs>
      <g>
       <use style="stroke:#000000;stroke-width:0.8;" x="91.330398" xlink:href="#m7ee96dc6e5" y="509.66"/>
      </g>
     </g>
     <g id="text_1">
      <!-- 0 -->
      <defs>
       <path d="M 31.78125 66.40625 
Q 24.171875 66.40625 20.328125 58.90625 
Q 16.5 51.421875 16.5 36.375 
Q 16.5 21.390625 20.328125 13.890625 
Q 24.171875 6.390625 31.78125 6.390625 
Q 39.453125 6.390625 43.28125 13.890625 
Q 47.125 21.390625 47.125 36.375 
Q 47.125 51.421875 43.28125 58.90625 
Q 39.453125 66.40625 31.78125 66.40625 
z
M 31.78125 74.21875 
Q 44.046875 74.21875 50.515625 64.515625 
Q 56.984375 54.828125 56.984375 36.375 
Q 56.984375 17.96875 50.515625 8.265625 
Q 44.046875 -1.421875 31.78125 -1.421875 
Q 19.53125 -1.421875 13.0625 8.265625 
Q 6.59375 17.96875 6.59375 36.375 
Q 6.59375 54.828125 13.0625 64.515625 
Q 19.53125 74.21875 31.78125 74.21875 
z
" id="DejaVuSans-30"/>
      </defs>
      <g transform="translate(88.149148 524.258437)scale(0.1 -0.1)">
       <use xlink:href="#DejaVuSans-30"/>
      </g>
     </g>
    </g>
    <g id="xtick_2">
     <g id="line2d_2">
      <g>
       <use style="stroke:#000000;stroke-width:0.8;" x="334.044621" xlink:href="#m7ee96dc6e5" y="509.66"/>
      </g>
     </g>
     <g id="text_2">
      <!-- 50 -->
      <defs>
       <path d="M 10.796875 72.90625 
L 49.515625 72.90625 
L 49.515625 64.59375 
L 19.828125 64.59375 
L 19.828125 46.734375 
Q 21.96875 47.46875 24.109375 47.828125 
Q 26.265625 48.1875 28.421875 48.1875 
Q 40.625 48.1875 47.75 41.5 
Q 54.890625 34.8125 54.890625 23.390625 
Q 54.890625 11.625 47.5625 5.09375 
Q 40.234375 -1.421875 26.90625 -1.421875 
Q 22.3125 -1.421875 17.546875 -0.640625 
Q 12.796875 0.140625 7.71875 1.703125 
L 7.71875 11.625 
Q 12.109375 9.234375 16.796875 8.0625 
Q 21.484375 6.890625 26.703125 6.890625 
Q 35.15625 6.890625 40.078125 11.328125 
Q 45.015625 15.765625 45.015625 23.390625 
Q 45.015625 31 40.078125 35.4375 
Q 35.15625 39.890625 26.703125 39.890625 
Q 22.75 39.890625 18.8125 39.015625 
Q 14.890625 38.140625 10.796875 36.28125 
z
" id="DejaVuSans-35"/>
      </defs>
      <g transform="translate(327.682121 524.258437)scale(0.1 -0.1)">
       <use xlink:href="#DejaVuSans-35"/>
       <use x="63.623047" xlink:href="#DejaVuSans-30"/>
      </g>
     </g>
    </g>
    <g id="xtick_3">
     <g id="line2d_3">
      <g>
       <use style="stroke:#000000;stroke-width:0.8;" x="576.758845" xlink:href="#m7ee96dc6e5" y="509.66"/>
      </g>
     </g>
     <g id="text_3">
      <!-- 100 -->
      <defs>
       <path d="M 12.40625 8.296875 
L 28.515625 8.296875 
L 28.515625 63.921875 
L 10.984375 60.40625 
L 10.984375 69.390625 
L 28.421875 72.90625 
L 38.28125 72.90625 
L 38.28125 8.296875 
L 54.390625 8.296875 
L 54.390625 0 
L 12.40625 0 
z
" id="DejaVuSans-31"/>
      </defs>
      <g transform="translate(567.215095 524.258437)scale(0.1 -0.1)">
       <use xlink:href="#DejaVuSans-31"/>
       <use x="63.623047" xlink:href="#DejaVuSans-30"/>
       <use x="127.246094" xlink:href="#DejaVuSans-30"/>
      </g>
     </g>
    </g>
    <g id="xtick_4">
     <g id="line2d_4">
      <g>
       <use style="stroke:#000000;stroke-width:0.8;" x="819.473068" xlink:href="#m7ee96dc6e5" y="509.66"/>
      </g>
     </g>
     <g id="text_4">
      <!-- 150 -->
      <g transform="translate(809.929318 524.258437)scale(0.1 -0.1)">
       <use xlink:href="#DejaVuSans-31"/>
       <use x="63.623047" xlink:href="#DejaVuSans-35"/>
       <use x="127.246094" xlink:href="#DejaVuSans-30"/>
      </g>
     </g>
    </g>
    <g id="xtick_5">
     <g id="line2d_5">
      <g>
       <use style="stroke:#000000;stroke-width:0.8;" x="1062.187292" xlink:href="#m7ee96dc6e5" y="509.66"/>
      </g>
     </g>
     <g id="text_5">
      <!-- 200 -->
      <defs>
       <path d="M 19.1875 8.296875 
L 53.609375 8.296875 
L 53.609375 0 
L 7.328125 0 
L 7.328125 8.296875 
Q 12.9375 14.109375 22.625 23.890625 
Q 32.328125 33.6875 34.8125 36.53125 
Q 39.546875 41.84375 41.421875 45.53125 
Q 43.3125 49.21875 43.3125 52.78125 
Q 43.3125 58.59375 39.234375 62.25 
Q 35.15625 65.921875 28.609375 65.921875 
Q 23.96875 65.921875 18.8125 64.3125 
Q 13.671875 62.703125 7.8125 59.421875 
L 7.8125 69.390625 
Q 13.765625 71.78125 18.9375 73 
Q 24.125 74.21875 28.421875 74.21875 
Q 39.75 74.21875 46.484375 68.546875 
Q 53.21875 62.890625 53.21875 53.421875 
Q 53.21875 48.921875 51.53125 44.890625 
Q 49.859375 40.875 45.40625 35.40625 
Q 44.1875 33.984375 37.640625 27.21875 
Q 31.109375 20.453125 19.1875 8.296875 
z
" id="DejaVuSans-32"/>
      </defs>
      <g transform="translate(1052.643542 524.258437)scale(0.1 -0.1)">
       <use xlink:href="#DejaVuSans-32"/>
       <use x="63.623047" xlink:href="#DejaVuSans-30"/>
       <use x="127.246094" xlink:href="#DejaVuSans-30"/>
      </g>
     </g>
    </g>
    <g id="text_6">
     <!-- Time -->
     <defs>
      <path d="M -0.296875 72.90625 
L 61.375 72.90625 
L 61.375 64.59375 
L 35.5 64.59375 
L 35.5 0 
L 25.59375 0 
L 25.59375 64.59375 
L -0.296875 64.59375 
z
" id="DejaVuSans-54"/>
      <path d="M 9.421875 54.6875 
L 18.40625 54.6875 
L 18.40625 0 
L 9.421875 0 
z
M 9.421875 75.984375 
L 18.40625 75.984375 
L 18.40625 64.59375 
L 9.421875 64.59375 
z
" id="DejaVuSans-69"/>
      <path d="M 52 44.1875 
Q 55.375 50.25 60.0625 53.125 
Q 64.75 56 71.09375 56 
Q 79.640625 56 84.28125 50.015625 
Q 88.921875 44.046875 88.921875 33.015625 
L 88.921875 0 
L 79.890625 0 
L 79.890625 32.71875 
Q 79.890625 40.578125 77.09375 44.375 
Q 74.3125 48.1875 68.609375 48.1875 
Q 61.625 48.1875 57.5625 43.546875 
Q 53.515625 38.921875 53.515625 30.90625 
L 53.515625 0 
L 44.484375 0 
L 44.484375 32.71875 
Q 44.484375 40.625 41.703125 44.40625 
Q 38.921875 48.1875 33.109375 48.1875 
Q 26.21875 48.1875 22.15625 43.53125 
Q 18.109375 38.875 18.109375 30.90625 
L 18.109375 0 
L 9.078125 0 
L 9.078125 54.6875 
L 18.109375 54.6875 
L 18.109375 46.1875 
Q 21.1875 51.21875 25.484375 53.609375 
Q 29.78125 56 35.6875 56 
Q 41.65625 56 45.828125 52.96875 
Q 50 49.953125 52 44.1875 
z
" id="DejaVuSans-6d"/>
      <path d="M 56.203125 29.59375 
L 56.203125 25.203125 
L 14.890625 25.203125 
Q 15.484375 15.921875 20.484375 11.0625 
Q 25.484375 6.203125 34.421875 6.203125 
Q 39.59375 6.203125 44.453125 7.46875 
Q 49.3125 8.734375 54.109375 11.28125 
L 54.109375 2.78125 
Q 49.265625 0.734375 44.1875 -0.34375 
Q 39.109375 -1.421875 33.890625 -1.421875 
Q 20.796875 -1.421875 13.15625 6.1875 
Q 5.515625 13.8125 5.515625 26.8125 
Q 5.515625 40.234375 12.765625 48.109375 
Q 20.015625 56 32.328125 56 
Q 43.359375 56 49.78125 48.890625 
Q 56.203125 41.796875 56.203125 29.59375 
z
M 47.21875 32.234375 
Q 47.125 39.59375 43.09375 43.984375 
Q 39.0625 48.390625 32.421875 48.390625 
Q 24.90625 48.390625 20.390625 44.140625 
Q 15.875 39.890625 15.1875 32.171875 
z
" id="DejaVuSans-65"/>
     </defs>
     <g transform="translate(586.215625 537.936562)scale(0.1 -0.1)">
      <use xlink:href="#DejaVuSans-54"/>
      <use x="61.037109" xlink:href="#DejaVuSans-69"/>
      <use x="88.820312" xlink:href="#DejaVuSans-6d"/>
      <use x="186.232422" xlink:href="#DejaVuSans-65"/>
     </g>
    </g>
   </g>
   <g id="matplotlib.axis_2">
    <g id="ytick_1">
     <g id="line2d_6">
      <defs>
       <path d="M 0 0 
L -3.5 0 
" id="m470d95e2c7" style="stroke:#000000;stroke-width:0.8;"/>
      </defs>
      <g>
       <use style="stroke:#000000;stroke-width:0.8;" x="40.603125" xlink:href="#m470d95e2c7" y="486.98"/>
      </g>
     </g>
     <g id="text_7">
      <!-- 0 -->
      <g transform="translate(27.240625 490.779219)scale(0.1 -0.1)">
       <use xlink:href="#DejaVuSans-30"/>
      </g>
     </g>
    </g>
    <g id="ytick_2">
     <g id="line2d_7">
      <g>
       <use style="stroke:#000000;stroke-width:0.8;" x="40.603125" xlink:href="#m470d95e2c7" y="415.823452"/>
      </g>
     </g>
     <g id="text_8">
      <!-- 5 -->
      <g transform="translate(27.240625 419.622671)scale(0.1 -0.1)">
       <use xlink:href="#DejaVuSans-35"/>
      </g>
     </g>
    </g>
    <g id="ytick_3">
     <g id="line2d_8">
      <g>
       <use style="stroke:#000000;stroke-width:0.8;" x="40.603125" xlink:href="#m470d95e2c7" y="344.666905"/>
      </g>
     </g>
     <g id="text_9">
      <!-- 10 -->
      <g transform="translate(20.878125 348.466124)scale(0.1 -0.1)">
       <use xlink:href="#DejaVuSans-31"/>
       <use x="63.623047" xlink:href="#DejaVuSans-30"/>
      </g>
     </g>
    </g>
    <g id="ytick_4">
     <g id="line2d_9">
      <g>
       <use style="stroke:#000000;stroke-width:0.8;" x="40.603125" xlink:href="#m470d95e2c7" y="273.510357"/>
      </g>
     </g>
     <g id="text_10">
      <!-- 15 -->
      <g transform="translate(20.878125 277.309576)scale(0.1 -0.1)">
       <use xlink:href="#DejaVuSans-31"/>
       <use x="63.623047" xlink:href="#DejaVuSans-35"/>
      </g>
     </g>
    </g>
    <g id="ytick_5">
     <g id="line2d_10">
      <g>
       <use style="stroke:#000000;stroke-width:0.8;" x="40.603125" xlink:href="#m470d95e2c7" y="202.35381"/>
      </g>
     </g>
     <g id="text_11">
      <!-- 20 -->
      <g transform="translate(20.878125 206.153028)scale(0.1 -0.1)">
       <use xlink:href="#DejaVuSans-32"/>
       <use x="63.623047" xlink:href="#DejaVuSans-30"/>
      </g>
     </g>
    </g>
    <g id="ytick_6">
     <g id="line2d_11">
      <g>
       <use style="stroke:#000000;stroke-width:0.8;" x="40.603125" xlink:href="#m470d95e2c7" y="131.197262"/>
      </g>
     </g>
     <g id="text_12">
      <!-- 25 -->
      <g transform="translate(20.878125 134.996481)scale(0.1 -0.1)">
       <use xlink:href="#DejaVuSans-32"/>
       <use x="63.623047" xlink:href="#DejaVuSans-35"/>
      </g>
     </g>
    </g>
    <g id="ytick_7">
     <g id="line2d_12">
      <g>
       <use style="stroke:#000000;stroke-width:0.8;" x="40.603125" xlink:href="#m470d95e2c7" y="60.040714"/>
      </g>
     </g>
     <g id="text_13">
      <!-- 30 -->
      <defs>
       <path d="M 40.578125 39.3125 
Q 47.65625 37.796875 51.625 33 
Q 55.609375 28.21875 55.609375 21.1875 
Q 55.609375 10.40625 48.1875 4.484375 
Q 40.765625 -1.421875 27.09375 -1.421875 
Q 22.515625 -1.421875 17.65625 -0.515625 
Q 12.796875 0.390625 7.625 2.203125 
L 7.625 11.71875 
Q 11.71875 9.328125 16.59375 8.109375 
Q 21.484375 6.890625 26.8125 6.890625 
Q 36.078125 6.890625 40.9375 10.546875 
Q 45.796875 14.203125 45.796875 21.1875 
Q 45.796875 27.640625 41.28125 31.265625 
Q 36.765625 34.90625 28.71875 34.90625 
L 20.21875 34.90625 
L 20.21875 43.015625 
L 29.109375 43.015625 
Q 36.375 43.015625 40.234375 45.921875 
Q 44.09375 48.828125 44.09375 54.296875 
Q 44.09375 59.90625 40.109375 62.90625 
Q 36.140625 65.921875 28.71875 65.921875 
Q 24.65625 65.921875 20.015625 65.03125 
Q 15.375 64.15625 9.8125 62.3125 
L 9.8125 71.09375 
Q 15.4375 72.65625 20.34375 73.4375 
Q 25.25 74.21875 29.59375 74.21875 
Q 40.828125 74.21875 47.359375 69.109375 
Q 53.90625 64.015625 53.90625 55.328125 
Q 53.90625 49.265625 50.4375 45.09375 
Q 46.96875 40.921875 40.578125 39.3125 
z
" id="DejaVuSans-33"/>
      </defs>
      <g transform="translate(20.878125 63.839933)scale(0.1 -0.1)">
       <use xlink:href="#DejaVuSans-33"/>
       <use x="63.623047" xlink:href="#DejaVuSans-30"/>
      </g>
     </g>
    </g>
    <g id="text_14">
     <!-- Refugees -->
     <defs>
      <path d="M 44.390625 34.1875 
Q 47.5625 33.109375 50.5625 29.59375 
Q 53.5625 26.078125 56.59375 19.921875 
L 66.609375 0 
L 56 0 
L 46.6875 18.703125 
Q 43.0625 26.03125 39.671875 28.421875 
Q 36.28125 30.8125 30.421875 30.8125 
L 19.671875 30.8125 
L 19.671875 0 
L 9.8125 0 
L 9.8125 72.90625 
L 32.078125 72.90625 
Q 44.578125 72.90625 50.734375 67.671875 
Q 56.890625 62.453125 56.890625 51.90625 
Q 56.890625 45.015625 53.6875 40.46875 
Q 50.484375 35.9375 44.390625 34.1875 
z
M 19.671875 64.796875 
L 19.671875 38.921875 
L 32.078125 38.921875 
Q 39.203125 38.921875 42.84375 42.21875 
Q 46.484375 45.515625 46.484375 51.90625 
Q 46.484375 58.296875 42.84375 61.546875 
Q 39.203125 64.796875 32.078125 64.796875 
z
" id="DejaVuSans-52"/>
      <path d="M 37.109375 75.984375 
L 37.109375 68.5 
L 28.515625 68.5 
Q 23.6875 68.5 21.796875 66.546875 
Q 19.921875 64.59375 19.921875 59.515625 
L 19.921875 54.6875 
L 34.71875 54.6875 
L 34.71875 47.703125 
L 19.921875 47.703125 
L 19.921875 0 
L 10.890625 0 
L 10.890625 47.703125 
L 2.296875 47.703125 
L 2.296875 54.6875 
L 10.890625 54.6875 
L 10.890625 58.5 
Q 10.890625 67.625 15.140625 71.796875 
Q 19.390625 75.984375 28.609375 75.984375 
z
" id="DejaVuSans-66"/>
      <path d="M 8.5 21.578125 
L 8.5 54.6875 
L 17.484375 54.6875 
L 17.484375 21.921875 
Q 17.484375 14.15625 20.5 10.265625 
Q 23.53125 6.390625 29.59375 6.390625 
Q 36.859375 6.390625 41.078125 11.03125 
Q 45.3125 15.671875 45.3125 23.6875 
L 45.3125 54.6875 
L 54.296875 54.6875 
L 54.296875 0 
L 45.3125 0 
L 45.3125 8.40625 
Q 42.046875 3.421875 37.71875 1 
Q 33.40625 -1.421875 27.6875 -1.421875 
Q 18.265625 -1.421875 13.375 4.4375 
Q 8.5 10.296875 8.5 21.578125 
z
M 31.109375 56 
z
" id="DejaVuSans-75"/>
      <path d="M 45.40625 27.984375 
Q 45.40625 37.75 41.375 43.109375 
Q 37.359375 48.484375 30.078125 48.484375 
Q 22.859375 48.484375 18.828125 43.109375 
Q 14.796875 37.75 14.796875 27.984375 
Q 14.796875 18.265625 18.828125 12.890625 
Q 22.859375 7.515625 30.078125 7.515625 
Q 37.359375 7.515625 41.375 12.890625 
Q 45.40625 18.265625 45.40625 27.984375 
z
M 54.390625 6.78125 
Q 54.390625 -7.171875 48.1875 -13.984375 
Q 42 -20.796875 29.203125 -20.796875 
Q 24.46875 -20.796875 20.265625 -20.09375 
Q 16.0625 -19.390625 12.109375 -17.921875 
L 12.109375 -9.1875 
Q 16.0625 -11.328125 19.921875 -12.34375 
Q 23.78125 -13.375 27.78125 -13.375 
Q 36.625 -13.375 41.015625 -8.765625 
Q 45.40625 -4.15625 45.40625 5.171875 
L 45.40625 9.625 
Q 42.625 4.78125 38.28125 2.390625 
Q 33.9375 0 27.875 0 
Q 17.828125 0 11.671875 7.65625 
Q 5.515625 15.328125 5.515625 27.984375 
Q 5.515625 40.671875 11.671875 48.328125 
Q 17.828125 56 27.875 56 
Q 33.9375 56 38.28125 53.609375 
Q 42.625 51.21875 45.40625 46.390625 
L 45.40625 54.6875 
L 54.390625 54.6875 
z
" id="DejaVuSans-67"/>
      <path d="M 44.28125 53.078125 
L 44.28125 44.578125 
Q 40.484375 46.53125 36.375 47.5 
Q 32.28125 48.484375 27.875 48.484375 
Q 21.1875 48.484375 17.84375 46.4375 
Q 14.5 44.390625 14.5 40.28125 
Q 14.5 37.15625 16.890625 35.375 
Q 19.28125 33.59375 26.515625 31.984375 
L 29.59375 31.296875 
Q 39.15625 29.25 43.1875 25.515625 
Q 47.21875 21.78125 47.21875 15.09375 
Q 47.21875 7.46875 41.1875 3.015625 
Q 35.15625 -1.421875 24.609375 -1.421875 
Q 20.21875 -1.421875 15.453125 -0.5625 
Q 10.6875 0.296875 5.421875 2 
L 5.421875 11.28125 
Q 10.40625 8.6875 15.234375 7.390625 
Q 20.0625 6.109375 24.8125 6.109375 
Q 31.15625 6.109375 34.5625 8.28125 
Q 37.984375 10.453125 37.984375 14.40625 
Q 37.984375 18.0625 35.515625 20.015625 
Q 33.0625 21.96875 24.703125 23.78125 
L 21.578125 24.515625 
Q 13.234375 26.265625 9.515625 29.90625 
Q 5.8125 33.546875 5.8125 39.890625 
Q 5.8125 47.609375 11.28125 51.796875 
Q 16.75 56 26.8125 56 
Q 31.78125 56 36.171875 55.265625 
Q 40.578125 54.546875 44.28125 53.078125 
z
" id="DejaVuSans-73"/>
     </defs>
     <g style="fill:#ff7f0e;" transform="translate(14.798438 283.588594)rotate(-90)scale(0.1 -0.1)">
      <use xlink:href="#DejaVuSans-52"/>
      <use x="69.419922" xlink:href="#DejaVuSans-65"/>
      <use x="130.943359" xlink:href="#DejaVuSans-66"/>
      <use x="166.148438" xlink:href="#DejaVuSans-75"/>
      <use x="229.527344" xlink:href="#DejaVuSans-67"/>
      <use x="293.003906" xlink:href="#DejaVuSans-65"/>
      <use x="354.527344" xlink:href="#DejaVuSans-65"/>
      <use x="416.050781" xlink:href="#DejaVuSans-73"/>
     </g>
    </g>
   </g>
   <g id="line2d_13">
    <path clip-path="url(#p9faf8ba924)" d="M 91.330398 486.98 
L 110.747536 486.98 
L 115.60182 391.262522 
L 120.456105 420.73226 
L 125.310389 402.916115 
L 130.164673 423.716601 
L 135.018958 486.98 
L 139.873242 481.051936 
L 144.727527 345.002989 
L 149.581811 453.045378 
L 154.436096 477.848135 
L 159.29038 486.98 
L 168.998949 486.98 
L 173.853234 364.516684 
L 178.707518 425.397043 
L 183.561803 413.733413 
L 188.416087 436.609654 
L 193.270372 486.98 
L 198.124656 486.98 
L 202.978941 347.820001 
L 207.833225 450.806796 
L 212.68751 472.656913 
L 217.541794 486.98 
L 227.250363 486.98 
L 232.104647 363.164814 
L 236.958932 445.436654 
L 241.813216 460.203974 
L 246.667501 486.98 
L 256.37607 486.98 
L 261.230354 359.92179 
L 266.084639 481.793011 
L 270.938923 486.98 
L 285.501777 486.98 
L 290.356061 381.877229 
L 295.210346 371.82308 
L 300.06463 334.162137 
L 304.918914 345.521549 
L 309.773199 413.110613 
L 314.627483 415.483168 
L 319.481768 286.551006 
L 324.336052 449.203762 
L 329.190337 468.939633 
L 334.044621 486.98 
L 343.75319 486.98 
L 348.607475 362.196762 
L 353.461759 416.24253 
L 358.316044 394.643539 
L 363.170328 413.713367 
L 368.024613 480.300172 
L 372.878897 473.758131 
L 377.733182 339.287914 
L 382.587466 471.093594 
L 387.44175 486.98 
L 402.004604 486.98 
L 406.858888 375.415869 
L 411.713173 383.267345 
L 416.567457 345.656198 
L 421.421742 356.943502 
L 426.276026 424.602964 
L 431.130311 426.847575 
L 435.984595 298.121979 
L 440.83888 481.108273 
L 445.693164 486.98 
L 460.256018 486.98 
L 465.110302 381.463676 
L 469.964587 438.426916 
L 474.818871 443.948783 
L 479.673155 472.622917 
L 484.52744 486.98 
L 489.381724 486.98 
L 494.236009 355.688672 
L 499.090293 486.98 
L 518.507431 486.98 
L 523.361716 386.443248 
L 528.216 435.865048 
L 533.070285 438.007994 
L 537.924569 465.542215 
L 542.778854 486.98 
L 547.633138 486.98 
L 552.487423 354.141569 
L 557.341707 446.366257 
L 562.195991 462.359732 
L 567.050276 486.98 
L 576.758845 486.98 
L 581.613129 360.483211 
L 586.467414 421.055662 
L 591.321698 403.66597 
L 596.175983 424.610415 
L 601.030267 486.98 
L 605.884552 481.489685 
L 610.738836 345.198291 
L 615.593121 467.51896 
L 620.447405 486.98 
L 635.010259 486.98 
L 639.864543 373.257182 
L 644.718827 411.327818 
L 649.573112 385.980408 
L 654.427396 403.204399 
L 659.281681 470.060654 
L 664.135965 465.550611 
L 668.99025 332.480711 
L 673.844534 481.210961 
L 678.698819 486.98 
L 693.261672 486.98 
L 698.115957 381.5257 
L 702.970241 377.512538 
L 707.824526 339.876235 
L 712.67881 351.199749 
L 717.533095 418.823978 
L 722.387379 421.132893 
L 727.241663 292.303445 
L 732.095948 421.06939 
L 736.950232 403.697817 
L 741.804517 424.648417 
L 746.658801 486.98 
L 751.513086 481.508338 
L 756.36737 345.206597 
L 761.221655 305.263584 
L 766.075939 267.313638 
L 770.930224 279.092277 
L 775.784508 346.272124 
L 780.638793 349.388724 
L 785.493077 219.255064 
L 790.347362 443.130464 
L 795.201646 454.856124 
L 800.055931 485.623165 
L 804.910215 486.98 
L 809.7645 486.98 
L 814.618784 358.529123 
L 819.473068 297.705983 
L 824.327353 259.723315 
L 829.181637 271.549497 
L 834.035922 338.682981 
L 838.890206 341.884041 
L 843.744491 211.613954 
L 848.598775 412.249203 
L 853.45306 387.604465 
L 858.307344 405.174637 
L 863.161629 471.980315 
L 868.015913 467.089357 
L 872.870198 333.75693 
L 877.724482 293.924258 
L 882.578767 255.925127 
L 887.433051 267.775155 
L 892.287336 334.885295 
L 897.14162 338.128672 
L 901.995904 207.790332 
L 906.850189 413.703331 
L 911.704473 390.167578 
L 916.558758 408.283678 
L 921.413042 475.009828 
L 926.267327 469.517649 
L 931.121611 335.770911 
L 935.975896 316.30856 
L 940.83018 278.406699 
L 945.684465 290.115701 
L 950.538749 357.363502 
L 955.393034 360.356611 
L 960.247318 230.422378 
L 965.101603 443.826122 
L 969.955887 456.469324 
L 974.810172 486.98 
L 984.51874 486.98 
L 989.373025 358.949245 
L 994.227309 264.203511 
L 999.081594 226.075256 
L 1003.935878 238.112591 
L 1008.790163 305.040134 
L 1013.644447 308.615686 
L 1018.498732 177.740817 
L 1023.353016 424.096503 
L 1028.207301 410.717497 
L 1033.061585 433.015118 
L 1037.91587 486.98 
L 1042.770154 485.606013 
L 1047.624439 347.034655 
L 1052.478723 121.422357 
L 1057.333008 82.674009 
L 1062.187292 95.610763 
L 1067.041577 161.660453 
L 1071.895861 166.832158 
L 1076.750145 33.38 
L 1081.60443 447.907195 
L 1086.458714 465.932978 
L 1091.312999 486.98 
L 1101.021568 486.98 
L 1105.875852 361.413737 
L 1105.875852 361.413737 
" style="fill:none;stroke:#008000;stroke-dasharray:5.55,2.4;stroke-dashoffset:0;stroke-width:1.5;"/>
   </g>
   <g id="line2d_14">
    <path clip-path="url(#p9faf8ba924)" d="M 91.330398 472.74869 
L 96.184682 486.98 
L 101.038967 458.517381 
L 110.747536 458.517381 
L 115.60182 444.286071 
L 120.456105 472.74869 
L 125.310389 116.965952 
L 130.164673 458.517381 
L 135.018958 458.517381 
L 139.873242 444.286071 
L 149.581811 472.74869 
L 154.436096 430.054762 
L 159.29038 401.592143 
L 164.144665 472.74869 
L 168.998949 444.286071 
L 173.853234 401.592143 
L 178.707518 458.517381 
L 183.561803 330.435595 
L 188.416087 430.054762 
L 193.270372 458.517381 
L 198.124656 358.898214 
L 202.978941 472.74869 
L 207.833225 415.823452 
L 212.68751 458.517381 
L 217.541794 458.517381 
L 222.396078 373.129524 
L 227.250363 444.286071 
L 232.104647 472.74869 
L 236.958932 472.74869 
L 241.813216 401.592143 
L 256.37607 486.98 
L 261.230354 458.517381 
L 266.084639 444.286071 
L 270.938923 444.286071 
L 275.793208 430.054762 
L 280.647492 330.435595 
L 285.501777 430.054762 
L 290.356061 458.517381 
L 295.210346 373.129524 
L 300.06463 458.517381 
L 304.918914 415.823452 
L 309.773199 387.360833 
L 314.627483 458.517381 
L 319.481768 401.592143 
L 324.336052 430.054762 
L 329.190337 415.823452 
L 334.044621 444.286071 
L 338.898906 373.129524 
L 343.75319 458.517381 
L 348.607475 472.74869 
L 353.461759 458.517381 
L 358.316044 287.741667 
L 363.170328 415.823452 
L 368.024613 415.823452 
L 372.878897 358.898214 
L 377.733182 415.823452 
L 382.587466 444.286071 
L 387.44175 415.823452 
L 392.296035 430.054762 
L 397.150319 330.435595 
L 402.004604 401.592143 
L 406.858888 458.517381 
L 411.713173 472.74869 
L 416.567457 387.360833 
L 421.421742 373.129524 
L 426.276026 430.054762 
L 431.130311 472.74869 
L 435.984595 430.054762 
L 440.83888 458.517381 
L 445.693164 430.054762 
L 450.547449 458.517381 
L 455.401733 458.517381 
L 460.256018 472.74869 
L 465.110302 444.286071 
L 469.964587 273.510357 
L 474.818871 472.74869 
L 484.52744 444.286071 
L 489.381724 472.74869 
L 494.236009 486.98 
L 499.090293 430.054762 
L 503.944578 472.74869 
L 508.798862 458.517381 
L 518.507431 486.98 
L 533.070285 401.592143 
L 537.924569 472.74869 
L 542.778854 458.517381 
L 547.633138 430.054762 
L 552.487423 387.360833 
L 557.341707 401.592143 
L 562.195991 486.98 
L 567.050276 373.129524 
L 571.90456 415.823452 
L 576.758845 472.74869 
L 581.613129 387.360833 
L 586.467414 344.666905 
L 591.321698 458.517381 
L 596.175983 430.054762 
L 601.030267 430.054762 
L 605.884552 444.286071 
L 610.738836 444.286071 
L 615.593121 387.360833 
L 620.447405 415.823452 
L 625.30169 472.74869 
L 630.155974 344.666905 
L 635.010259 458.517381 
L 639.864543 344.666905 
L 644.718827 415.823452 
L 649.573112 330.435595 
L 654.427396 373.129524 
L 659.281681 358.898214 
L 664.135965 444.286071 
L 668.99025 458.517381 
L 673.844534 430.054762 
L 678.698819 458.517381 
L 683.553103 444.286071 
L 688.407388 415.823452 
L 693.261672 444.286071 
L 698.115957 373.129524 
L 702.970241 373.129524 
L 707.824526 444.286071 
L 712.67881 273.510357 
L 717.533095 45.809405 
L 722.387379 344.666905 
L 732.095948 259.279048 
L 736.950232 330.435595 
L 741.804517 373.129524 
L 746.658801 301.972976 
L 751.513086 344.666905 
L 756.36737 216.585119 
L 761.221655 159.659881 
L 766.075939 344.666905 
L 770.930224 245.047738 
L 775.784508 373.129524 
L 780.638793 344.666905 
L 785.493077 387.360833 
L 790.347362 301.972976 
L 795.201646 145.428571 
L 800.055931 316.204286 
L 804.910215 373.129524 
L 809.7645 259.279048 
L 814.618784 401.592143 
L 819.473068 287.741667 
L 824.327353 60.040714 
L 829.181637 358.898214 
L 834.035922 287.741667 
L 838.890206 188.1225 
L 843.744491 401.592143 
L 848.598775 216.585119 
L 853.45306 430.054762 
L 858.307344 358.898214 
L 863.161629 387.360833 
L 868.015913 316.204286 
L 872.870198 330.435595 
L 877.724482 415.823452 
L 882.578767 430.054762 
L 887.433051 273.510357 
L 892.287336 330.435595 
L 897.14162 301.972976 
L 901.995904 259.279048 
L 906.850189 387.360833 
L 911.704473 330.435595 
L 916.558758 301.972976 
L 921.413042 387.360833 
L 926.267327 245.047738 
L 931.121611 387.360833 
L 940.83018 301.972976 
L 945.684465 316.204286 
L 950.538749 358.898214 
L 955.393034 330.435595 
L 960.247318 387.360833 
L 965.101603 344.666905 
L 969.955887 131.197262 
L 974.810172 245.047738 
L 979.664456 430.054762 
L 989.373025 401.592143 
L 994.227309 430.054762 
L 999.081594 316.204286 
L 1003.935878 330.435595 
L 1008.790163 273.510357 
L 1013.644447 430.054762 
L 1018.498732 216.585119 
L 1023.353016 330.435595 
L 1028.207301 387.360833 
L 1037.91587 216.585119 
L 1042.770154 188.1225 
L 1047.624439 116.965952 
L 1052.478723 401.592143 
L 1057.333008 486.98 
L 1062.187292 316.204286 
L 1067.041577 373.129524 
L 1071.895861 415.823452 
L 1076.750145 415.823452 
L 1081.60443 316.204286 
L 1086.458714 358.898214 
L 1091.312999 486.98 
L 1096.167283 486.98 
L 1101.021568 287.741667 
L 1105.875852 387.360833 
L 1105.875852 387.360833 
" style="fill:none;stroke:#ff7f0e;stroke-linecap:square;stroke-width:1.5;"/>
   </g>
   <g id="line2d_15">
    <defs>
     <path d="M 0 3 
C 0.795609 3 1.55874 2.683901 2.12132 2.12132 
C 2.683901 1.55874 3 0.795609 3 0 
C 3 -0.795609 2.683901 -1.55874 2.12132 -2.12132 
C 1.55874 -2.683901 0.795609 -3 0 -3 
C -0.795609 -3 -1.55874 -2.683901 -2.12132 -2.12132 
C -2.683901 -1.55874 -3 -0.795609 -3 0 
C -3 0.795609 -2.683901 1.55874 -2.12132 2.12132 
C -1.55874 2.683901 -0.795609 3 0 3 
z
" id="m12733243d3" style="stroke:#008000;"/>
    </defs>
    <g clip-path="url(#p9faf8ba924)">
     <use style="fill:#008000;stroke:#008000;" x="91.330398" xlink:href="#m12733243d3" y="486.98"/>
     <use style="fill:#008000;stroke:#008000;" x="120.456105" xlink:href="#m12733243d3" y="420.73226"/>
     <use style="fill:#008000;stroke:#008000;" x="149.581811" xlink:href="#m12733243d3" y="453.045378"/>
     <use style="fill:#008000;stroke:#008000;" x="178.707518" xlink:href="#m12733243d3" y="425.397043"/>
     <use style="fill:#008000;stroke:#008000;" x="207.833225" xlink:href="#m12733243d3" y="450.806796"/>
     <use style="fill:#008000;stroke:#008000;" x="236.958932" xlink:href="#m12733243d3" y="445.436654"/>
     <use style="fill:#008000;stroke:#008000;" x="266.084639" xlink:href="#m12733243d3" y="481.793011"/>
     <use style="fill:#008000;stroke:#008000;" x="295.210346" xlink:href="#m12733243d3" y="371.82308"/>
     <use style="fill:#008000;stroke:#008000;" x="324.336052" xlink:href="#m12733243d3" y="449.203762"/>
     <use style="fill:#008000;stroke:#008000;" x="353.461759" xlink:href="#m12733243d3" y="416.24253"/>
     <use style="fill:#008000;stroke:#008000;" x="382.587466" xlink:href="#m12733243d3" y="471.093594"/>
     <use style="fill:#008000;stroke:#008000;" x="411.713173" xlink:href="#m12733243d3" y="383.267345"/>
     <use style="fill:#008000;stroke:#008000;" x="440.83888" xlink:href="#m12733243d3" y="481.108273"/>
     <use style="fill:#008000;stroke:#008000;" x="469.964587" xlink:href="#m12733243d3" y="438.426916"/>
     <use style="fill:#008000;stroke:#008000;" x="499.090293" xlink:href="#m12733243d3" y="486.98"/>
     <use style="fill:#008000;stroke:#008000;" x="528.216" xlink:href="#m12733243d3" y="435.865048"/>
     <use style="fill:#008000;stroke:#008000;" x="557.341707" xlink:href="#m12733243d3" y="446.366257"/>
     <use style="fill:#008000;stroke:#008000;" x="586.467414" xlink:href="#m12733243d3" y="421.055662"/>
     <use style="fill:#008000;stroke:#008000;" x="615.593121" xlink:href="#m12733243d3" y="467.51896"/>
     <use style="fill:#008000;stroke:#008000;" x="644.718827" xlink:href="#m12733243d3" y="411.327818"/>
     <use style="fill:#008000;stroke:#008000;" x="673.844534" xlink:href="#m12733243d3" y="481.210961"/>
     <use style="fill:#008000;stroke:#008000;" x="702.970241" xlink:href="#m12733243d3" y="377.512538"/>
     <use style="fill:#008000;stroke:#008000;" x="732.095948" xlink:href="#m12733243d3" y="421.06939"/>
     <use style="fill:#008000;stroke:#008000;" x="761.221655" xlink:href="#m12733243d3" y="305.263584"/>
     <use style="fill:#008000;stroke:#008000;" x="790.347362" xlink:href="#m12733243d3" y="443.130464"/>
     <use style="fill:#008000;stroke:#008000;" x="819.473068" xlink:href="#m12733243d3" y="297.705983"/>
     <use style="fill:#008000;stroke:#008000;" x="848.598775" xlink:href="#m12733243d3" y="412.249203"/>
     <use style="fill:#008000;stroke:#008000;" x="877.724482" xlink:href="#m12733243d3" y="293.924258"/>
     <use style="fill:#008000;stroke:#008000;" x="906.850189" xlink:href="#m12733243d3" y="413.703331"/>
     <use style="fill:#008000;stroke:#008000;" x="935.975896" xlink:href="#m12733243d3" y="316.30856"/>
     <use style="fill:#008000;stroke:#008000;" x="965.101603" xlink:href="#m12733243d3" y="443.826122"/>
     <use style="fill:#008000;stroke:#008000;" x="994.227309" xlink:href="#m12733243d3" y="264.203511"/>
     <use style="fill:#008000;stroke:#008000;" x="1023.353016" xlink:href="#m12733243d3" y="424.096503"/>
     <use style="fill:#008000;stroke:#008000;" x="1052.478723" xlink:href="#m12733243d3" y="121.422357"/>
     <use style="fill:#008000;stroke:#008000;" x="1081.60443" xlink:href="#m12733243d3" y="447.907195"/>
    </g>
   </g>
   <g id="patch_3">
    <path d="M 40.603125 509.66 
L 40.603125 10.7 
" style="fill:none;stroke:#000000;stroke-linecap:square;stroke-linejoin:miter;stroke-width:0.8;"/>
   </g>
   <g id="patch_4">
    <path d="M 1156.603125 509.66 
L 1156.603125 10.7 
" style="fill:none;stroke:#000000;stroke-linecap:square;stroke-linejoin:miter;stroke-width:0.8;"/>
   </g>
   <g id="patch_5">
    <path d="M 40.603125 509.66 
L 1156.603125 509.66 
" style="fill:none;stroke:#000000;stroke-linecap:square;stroke-linejoin:miter;stroke-width:0.8;"/>
   </g>
   <g id="patch_6">
    <path d="M 40.603125 10.7 
L 1156.603125 10.7 
" style="fill:none;stroke:#000000;stroke-linecap:square;stroke-linejoin:miter;stroke-width:0.8;"/>
   </g>
   <g id="legend_1">
    <g id="patch_7">
     <path d="M 47.603125 62.734375 
L 195.378125 62.734375 
Q 197.378125 62.734375 197.378125 60.734375 
L 197.378125 17.7 
Q 197.378125 15.7 195.378125 15.7 
L 47.603125 15.7 
Q 45.603125 15.7 45.603125 17.7 
L 45.603125 60.734375 
Q 45.603125 62.734375 47.603125 62.734375 
z
" style="fill:#ffffff;opacity:0.8;stroke:#cccccc;stroke-linejoin:miter;"/>
    </g>
    <g id="line2d_16">
     <path d="M 49.603125 23.798437 
L 69.603125 23.798437 
" style="fill:none;stroke:#008000;stroke-dasharray:5.55,2.4;stroke-dashoffset:0;stroke-width:1.5;"/>
    </g>
    <g id="line2d_17"/>
    <g id="text_15">
     <!-- Predicted -->
     <defs>
      <path d="M 19.671875 64.796875 
L 19.671875 37.40625 
L 32.078125 37.40625 
Q 38.96875 37.40625 42.71875 40.96875 
Q 46.484375 44.53125 46.484375 51.125 
Q 46.484375 57.671875 42.71875 61.234375 
Q 38.96875 64.796875 32.078125 64.796875 
z
M 9.8125 72.90625 
L 32.078125 72.90625 
Q 44.34375 72.90625 50.609375 67.359375 
Q 56.890625 61.8125 56.890625 51.125 
Q 56.890625 40.328125 50.609375 34.8125 
Q 44.34375 29.296875 32.078125 29.296875 
L 19.671875 29.296875 
L 19.671875 0 
L 9.8125 0 
z
" id="DejaVuSans-50"/>
      <path d="M 41.109375 46.296875 
Q 39.59375 47.171875 37.8125 47.578125 
Q 36.03125 48 33.890625 48 
Q 26.265625 48 22.1875 43.046875 
Q 18.109375 38.09375 18.109375 28.8125 
L 18.109375 0 
L 9.078125 0 
L 9.078125 54.6875 
L 18.109375 54.6875 
L 18.109375 46.1875 
Q 20.953125 51.171875 25.484375 53.578125 
Q 30.03125 56 36.53125 56 
Q 37.453125 56 38.578125 55.875 
Q 39.703125 55.765625 41.0625 55.515625 
z
" id="DejaVuSans-72"/>
      <path d="M 45.40625 46.390625 
L 45.40625 75.984375 
L 54.390625 75.984375 
L 54.390625 0 
L 45.40625 0 
L 45.40625 8.203125 
Q 42.578125 3.328125 38.25 0.953125 
Q 33.9375 -1.421875 27.875 -1.421875 
Q 17.96875 -1.421875 11.734375 6.484375 
Q 5.515625 14.40625 5.515625 27.296875 
Q 5.515625 40.1875 11.734375 48.09375 
Q 17.96875 56 27.875 56 
Q 33.9375 56 38.25 53.625 
Q 42.578125 51.265625 45.40625 46.390625 
z
M 14.796875 27.296875 
Q 14.796875 17.390625 18.875 11.75 
Q 22.953125 6.109375 30.078125 6.109375 
Q 37.203125 6.109375 41.296875 11.75 
Q 45.40625 17.390625 45.40625 27.296875 
Q 45.40625 37.203125 41.296875 42.84375 
Q 37.203125 48.484375 30.078125 48.484375 
Q 22.953125 48.484375 18.875 42.84375 
Q 14.796875 37.203125 14.796875 27.296875 
z
" id="DejaVuSans-64"/>
      <path d="M 48.78125 52.59375 
L 48.78125 44.1875 
Q 44.96875 46.296875 41.140625 47.34375 
Q 37.3125 48.390625 33.40625 48.390625 
Q 24.65625 48.390625 19.8125 42.84375 
Q 14.984375 37.3125 14.984375 27.296875 
Q 14.984375 17.28125 19.8125 11.734375 
Q 24.65625 6.203125 33.40625 6.203125 
Q 37.3125 6.203125 41.140625 7.25 
Q 44.96875 8.296875 48.78125 10.40625 
L 48.78125 2.09375 
Q 45.015625 0.34375 40.984375 -0.53125 
Q 36.96875 -1.421875 32.421875 -1.421875 
Q 20.0625 -1.421875 12.78125 6.34375 
Q 5.515625 14.109375 5.515625 27.296875 
Q 5.515625 40.671875 12.859375 48.328125 
Q 20.21875 56 33.015625 56 
Q 37.15625 56 41.109375 55.140625 
Q 45.0625 54.296875 48.78125 52.59375 
z
" id="DejaVuSans-63"/>
      <path d="M 18.3125 70.21875 
L 18.3125 54.6875 
L 36.8125 54.6875 
L 36.8125 47.703125 
L 18.3125 47.703125 
L 18.3125 18.015625 
Q 18.3125 11.328125 20.140625 9.421875 
Q 21.96875 7.515625 27.59375 7.515625 
L 36.8125 7.515625 
L 36.8125 0 
L 27.59375 0 
Q 17.1875 0 13.234375 3.875 
Q 9.28125 7.765625 9.28125 18.015625 
L 9.28125 47.703125 
L 2.6875 47.703125 
L 2.6875 54.6875 
L 9.28125 54.6875 
L 9.28125 70.21875 
z
" id="DejaVuSans-74"/>
     </defs>
     <g transform="translate(77.603125 27.298437)scale(0.1 -0.1)">
      <use xlink:href="#DejaVuSans-50"/>
      <use x="60.287109" xlink:href="#DejaVuSans-72"/>
      <use x="101.369141" xlink:href="#DejaVuSans-65"/>
      <use x="162.892578" xlink:href="#DejaVuSans-64"/>
      <use x="226.369141" xlink:href="#DejaVuSans-69"/>
      <use x="254.152344" xlink:href="#DejaVuSans-63"/>
      <use x="309.132812" xlink:href="#DejaVuSans-74"/>
      <use x="348.341797" xlink:href="#DejaVuSans-65"/>
      <use x="409.865234" xlink:href="#DejaVuSans-64"/>
     </g>
    </g>
    <g id="line2d_18">
     <path d="M 49.603125 38.476562 
L 69.603125 38.476562 
" style="fill:none;stroke:#ff7f0e;stroke-linecap:square;stroke-width:1.5;"/>
    </g>
    <g id="line2d_19"/>
    <g id="text_16">
     <!-- Real Data -->
     <defs>
      <path d="M 34.28125 27.484375 
Q 23.390625 27.484375 19.1875 25 
Q 14.984375 22.515625 14.984375 16.5 
Q 14.984375 11.71875 18.140625 8.90625 
Q 21.296875 6.109375 26.703125 6.109375 
Q 34.1875 6.109375 38.703125 11.40625 
Q 43.21875 16.703125 43.21875 25.484375 
L 43.21875 27.484375 
z
M 52.203125 31.203125 
L 52.203125 0 
L 43.21875 0 
L 43.21875 8.296875 
Q 40.140625 3.328125 35.546875 0.953125 
Q 30.953125 -1.421875 24.3125 -1.421875 
Q 15.921875 -1.421875 10.953125 3.296875 
Q 6 8.015625 6 15.921875 
Q 6 25.140625 12.171875 29.828125 
Q 18.359375 34.515625 30.609375 34.515625 
L 43.21875 34.515625 
L 43.21875 35.40625 
Q 43.21875 41.609375 39.140625 45 
Q 35.0625 48.390625 27.6875 48.390625 
Q 23 48.390625 18.546875 47.265625 
Q 14.109375 46.140625 10.015625 43.890625 
L 10.015625 52.203125 
Q 14.9375 54.109375 19.578125 55.046875 
Q 24.21875 56 28.609375 56 
Q 40.484375 56 46.34375 49.84375 
Q 52.203125 43.703125 52.203125 31.203125 
z
" id="DejaVuSans-61"/>
      <path d="M 9.421875 75.984375 
L 18.40625 75.984375 
L 18.40625 0 
L 9.421875 0 
z
" id="DejaVuSans-6c"/>
      <path id="DejaVuSans-20"/>
      <path d="M 19.671875 64.796875 
L 19.671875 8.109375 
L 31.59375 8.109375 
Q 46.6875 8.109375 53.6875 14.9375 
Q 60.6875 21.78125 60.6875 36.53125 
Q 60.6875 51.171875 53.6875 57.984375 
Q 46.6875 64.796875 31.59375 64.796875 
z
M 9.8125 72.90625 
L 30.078125 72.90625 
Q 51.265625 72.90625 61.171875 64.09375 
Q 71.09375 55.28125 71.09375 36.53125 
Q 71.09375 17.671875 61.125 8.828125 
Q 51.171875 0 30.078125 0 
L 9.8125 0 
z
" id="DejaVuSans-44"/>
     </defs>
     <g transform="translate(77.603125 41.976562)scale(0.1 -0.1)">
      <use xlink:href="#DejaVuSans-52"/>
      <use x="69.419922" xlink:href="#DejaVuSans-65"/>
      <use x="130.943359" xlink:href="#DejaVuSans-61"/>
      <use x="192.222656" xlink:href="#DejaVuSans-6c"/>
      <use x="220.005859" xlink:href="#DejaVuSans-20"/>
      <use x="251.792969" xlink:href="#DejaVuSans-44"/>
      <use x="328.794922" xlink:href="#DejaVuSans-61"/>
      <use x="390.074219" xlink:href="#DejaVuSans-74"/>
      <use x="429.283203" xlink:href="#DejaVuSans-61"/>
     </g>
    </g>
    <g id="line2d_20"/>
    <g id="line2d_21">
     <g>
      <use style="fill:#008000;stroke:#008000;" x="59.603125" xlink:href="#m12733243d3" y="53.154688"/>
     </g>
    </g>
    <g id="text_17">
     <!-- Start Point for Forecast -->
     <defs>
      <path d="M 53.515625 70.515625 
L 53.515625 60.890625 
Q 47.90625 63.578125 42.921875 64.890625 
Q 37.9375 66.21875 33.296875 66.21875 
Q 25.25 66.21875 20.875 63.09375 
Q 16.5 59.96875 16.5 54.203125 
Q 16.5 49.359375 19.40625 46.890625 
Q 22.3125 44.4375 30.421875 42.921875 
L 36.375 41.703125 
Q 47.40625 39.59375 52.65625 34.296875 
Q 57.90625 29 57.90625 20.125 
Q 57.90625 9.515625 50.796875 4.046875 
Q 43.703125 -1.421875 29.984375 -1.421875 
Q 24.8125 -1.421875 18.96875 -0.25 
Q 13.140625 0.921875 6.890625 3.21875 
L 6.890625 13.375 
Q 12.890625 10.015625 18.65625 8.296875 
Q 24.421875 6.59375 29.984375 6.59375 
Q 38.421875 6.59375 43.015625 9.90625 
Q 47.609375 13.234375 47.609375 19.390625 
Q 47.609375 24.75 44.3125 27.78125 
Q 41.015625 30.8125 33.5 32.328125 
L 27.484375 33.5 
Q 16.453125 35.6875 11.515625 40.375 
Q 6.59375 45.0625 6.59375 53.421875 
Q 6.59375 63.09375 13.40625 68.65625 
Q 20.21875 74.21875 32.171875 74.21875 
Q 37.3125 74.21875 42.625 73.28125 
Q 47.953125 72.359375 53.515625 70.515625 
z
" id="DejaVuSans-53"/>
      <path d="M 30.609375 48.390625 
Q 23.390625 48.390625 19.1875 42.75 
Q 14.984375 37.109375 14.984375 27.296875 
Q 14.984375 17.484375 19.15625 11.84375 
Q 23.34375 6.203125 30.609375 6.203125 
Q 37.796875 6.203125 41.984375 11.859375 
Q 46.1875 17.53125 46.1875 27.296875 
Q 46.1875 37.015625 41.984375 42.703125 
Q 37.796875 48.390625 30.609375 48.390625 
z
M 30.609375 56 
Q 42.328125 56 49.015625 48.375 
Q 55.71875 40.765625 55.71875 27.296875 
Q 55.71875 13.875 49.015625 6.21875 
Q 42.328125 -1.421875 30.609375 -1.421875 
Q 18.84375 -1.421875 12.171875 6.21875 
Q 5.515625 13.875 5.515625 27.296875 
Q 5.515625 40.765625 12.171875 48.375 
Q 18.84375 56 30.609375 56 
z
" id="DejaVuSans-6f"/>
      <path d="M 54.890625 33.015625 
L 54.890625 0 
L 45.90625 0 
L 45.90625 32.71875 
Q 45.90625 40.484375 42.875 44.328125 
Q 39.84375 48.1875 33.796875 48.1875 
Q 26.515625 48.1875 22.3125 43.546875 
Q 18.109375 38.921875 18.109375 30.90625 
L 18.109375 0 
L 9.078125 0 
L 9.078125 54.6875 
L 18.109375 54.6875 
L 18.109375 46.1875 
Q 21.34375 51.125 25.703125 53.5625 
Q 30.078125 56 35.796875 56 
Q 45.21875 56 50.046875 50.171875 
Q 54.890625 44.34375 54.890625 33.015625 
z
" id="DejaVuSans-6e"/>
      <path d="M 9.8125 72.90625 
L 51.703125 72.90625 
L 51.703125 64.59375 
L 19.671875 64.59375 
L 19.671875 43.109375 
L 48.578125 43.109375 
L 48.578125 34.8125 
L 19.671875 34.8125 
L 19.671875 0 
L 9.8125 0 
z
" id="DejaVuSans-46"/>
     </defs>
     <g transform="translate(77.603125 56.654688)scale(0.1 -0.1)">
      <use xlink:href="#DejaVuSans-53"/>
      <use x="63.476562" xlink:href="#DejaVuSans-74"/>
      <use x="102.685547" xlink:href="#DejaVuSans-61"/>
      <use x="163.964844" xlink:href="#DejaVuSans-72"/>
      <use x="205.078125" xlink:href="#DejaVuSans-74"/>
      <use x="244.287109" xlink:href="#DejaVuSans-20"/>
      <use x="276.074219" xlink:href="#DejaVuSans-50"/>
      <use x="336.330078" xlink:href="#DejaVuSans-6f"/>
      <use x="397.511719" xlink:href="#DejaVuSans-69"/>
      <use x="425.294922" xlink:href="#DejaVuSans-6e"/>
      <use x="488.673828" xlink:href="#DejaVuSans-74"/>
      <use x="527.882812" xlink:href="#DejaVuSans-20"/>
      <use x="559.669922" xlink:href="#DejaVuSans-66"/>
      <use x="594.875" xlink:href="#DejaVuSans-6f"/>
      <use x="656.056641" xlink:href="#DejaVuSans-72"/>
      <use x="697.169922" xlink:href="#DejaVuSans-20"/>
      <use x="728.957031" xlink:href="#DejaVuSans-46"/>
      <use x="786.429688" xlink:href="#DejaVuSans-6f"/>
      <use x="847.611328" xlink:href="#DejaVuSans-72"/>
      <use x="888.693359" xlink:href="#DejaVuSans-65"/>
      <use x="950.216797" xlink:href="#DejaVuSans-63"/>
      <use x="1005.197266" xlink:href="#DejaVuSans-61"/>
      <use x="1066.476562" xlink:href="#DejaVuSans-73"/>
      <use x="1118.576172" xlink:href="#DejaVuSans-74"/>
     </g>
    </g>
   </g>
  </g>
  <g id="axes_2">
   <g id="patch_8">
    <path d="M 40.603125 645.74 
L 1158.043125 645.74 
L 1158.043125 516.14 
L 40.603125 516.14 
z
" style="fill:none;"/>
   </g>
   <g id="matplotlib.axis_3">
    <g id="xtick_6">
     <g id="line2d_22">
      <g>
       <use style="stroke:#000000;stroke-width:0.8;" x="91.395852" xlink:href="#m7ee96dc6e5" y="645.74"/>
      </g>
     </g>
     <g id="text_18">
      <!-- 0 -->
      <g transform="translate(88.214602 660.338437)scale(0.1 -0.1)">
       <use xlink:href="#DejaVuSans-30"/>
      </g>
     </g>
    </g>
    <g id="xtick_7">
     <g id="line2d_23">
      <g>
       <use style="stroke:#000000;stroke-width:0.8;" x="215.887831" xlink:href="#m7ee96dc6e5" y="645.74"/>
      </g>
     </g>
     <g id="text_19">
      <!-- 25 -->
      <g transform="translate(209.525331 660.338437)scale(0.1 -0.1)">
       <use xlink:href="#DejaVuSans-32"/>
       <use x="63.623047" xlink:href="#DejaVuSans-35"/>
      </g>
     </g>
    </g>
    <g id="xtick_8">
     <g id="line2d_24">
      <g>
       <use style="stroke:#000000;stroke-width:0.8;" x="340.379809" xlink:href="#m7ee96dc6e5" y="645.74"/>
      </g>
     </g>
     <g id="text_20">
      <!-- 50 -->
      <g transform="translate(334.017309 660.338437)scale(0.1 -0.1)">
       <use xlink:href="#DejaVuSans-35"/>
       <use x="63.623047" xlink:href="#DejaVuSans-30"/>
      </g>
     </g>
    </g>
    <g id="xtick_9">
     <g id="line2d_25">
      <g>
       <use style="stroke:#000000;stroke-width:0.8;" x="464.871788" xlink:href="#m7ee96dc6e5" y="645.74"/>
      </g>
     </g>
     <g id="text_21">
      <!-- 75 -->
      <defs>
       <path d="M 8.203125 72.90625 
L 55.078125 72.90625 
L 55.078125 68.703125 
L 28.609375 0 
L 18.3125 0 
L 43.21875 64.59375 
L 8.203125 64.59375 
z
" id="DejaVuSans-37"/>
      </defs>
      <g transform="translate(458.509288 660.338437)scale(0.1 -0.1)">
       <use xlink:href="#DejaVuSans-37"/>
       <use x="63.623047" xlink:href="#DejaVuSans-35"/>
      </g>
     </g>
    </g>
    <g id="xtick_10">
     <g id="line2d_26">
      <g>
       <use style="stroke:#000000;stroke-width:0.8;" x="589.363767" xlink:href="#m7ee96dc6e5" y="645.74"/>
      </g>
     </g>
     <g id="text_22">
      <!-- 100 -->
      <g transform="translate(579.820017 660.338437)scale(0.1 -0.1)">
       <use xlink:href="#DejaVuSans-31"/>
       <use x="63.623047" xlink:href="#DejaVuSans-30"/>
       <use x="127.246094" xlink:href="#DejaVuSans-30"/>
      </g>
     </g>
    </g>
    <g id="xtick_11">
     <g id="line2d_27">
      <g>
       <use style="stroke:#000000;stroke-width:0.8;" x="713.855745" xlink:href="#m7ee96dc6e5" y="645.74"/>
      </g>
     </g>
     <g id="text_23">
      <!-- 125 -->
      <g transform="translate(704.311995 660.338437)scale(0.1 -0.1)">
       <use xlink:href="#DejaVuSans-31"/>
       <use x="63.623047" xlink:href="#DejaVuSans-32"/>
       <use x="127.246094" xlink:href="#DejaVuSans-35"/>
      </g>
     </g>
    </g>
    <g id="xtick_12">
     <g id="line2d_28">
      <g>
       <use style="stroke:#000000;stroke-width:0.8;" x="838.347724" xlink:href="#m7ee96dc6e5" y="645.74"/>
      </g>
     </g>
     <g id="text_24">
      <!-- 150 -->
      <g transform="translate(828.803974 660.338437)scale(0.1 -0.1)">
       <use xlink:href="#DejaVuSans-31"/>
       <use x="63.623047" xlink:href="#DejaVuSans-35"/>
       <use x="127.246094" xlink:href="#DejaVuSans-30"/>
      </g>
     </g>
    </g>
    <g id="xtick_13">
     <g id="line2d_29">
      <g>
       <use style="stroke:#000000;stroke-width:0.8;" x="962.839703" xlink:href="#m7ee96dc6e5" y="645.74"/>
      </g>
     </g>
     <g id="text_25">
      <!-- 175 -->
      <g transform="translate(953.295953 660.338437)scale(0.1 -0.1)">
       <use xlink:href="#DejaVuSans-31"/>
       <use x="63.623047" xlink:href="#DejaVuSans-37"/>
       <use x="127.246094" xlink:href="#DejaVuSans-35"/>
      </g>
     </g>
    </g>
    <g id="xtick_14">
     <g id="line2d_30">
      <g>
       <use style="stroke:#000000;stroke-width:0.8;" x="1087.331681" xlink:href="#m7ee96dc6e5" y="645.74"/>
      </g>
     </g>
     <g id="text_26">
      <!-- 200 -->
      <g transform="translate(1077.787931 660.338437)scale(0.1 -0.1)">
       <use xlink:href="#DejaVuSans-32"/>
       <use x="63.623047" xlink:href="#DejaVuSans-30"/>
       <use x="127.246094" xlink:href="#DejaVuSans-30"/>
      </g>
     </g>
    </g>
   </g>
   <g id="matplotlib.axis_4">
    <g id="ytick_8">
     <g id="line2d_31">
      <g>
       <use style="stroke:#000000;stroke-width:0.8;" x="40.603125" xlink:href="#m470d95e2c7" y="629.983447"/>
      </g>
     </g>
     <g id="text_27">
      <!-- 15 -->
      <g transform="translate(20.878125 633.782666)scale(0.1 -0.1)">
       <use xlink:href="#DejaVuSans-31"/>
       <use x="63.623047" xlink:href="#DejaVuSans-35"/>
      </g>
     </g>
    </g>
    <g id="ytick_9">
     <g id="line2d_32">
      <g>
       <use style="stroke:#000000;stroke-width:0.8;" x="40.603125" xlink:href="#m470d95e2c7" y="596.754604"/>
      </g>
     </g>
     <g id="text_28">
      <!-- 20 -->
      <g transform="translate(20.878125 600.553822)scale(0.1 -0.1)">
       <use xlink:href="#DejaVuSans-32"/>
       <use x="63.623047" xlink:href="#DejaVuSans-30"/>
      </g>
     </g>
    </g>
    <g id="ytick_10">
     <g id="line2d_33">
      <g>
       <use style="stroke:#000000;stroke-width:0.8;" x="40.603125" xlink:href="#m470d95e2c7" y="563.52576"/>
      </g>
     </g>
     <g id="text_29">
      <!-- 25 -->
      <g transform="translate(20.878125 567.324979)scale(0.1 -0.1)">
       <use xlink:href="#DejaVuSans-32"/>
       <use x="63.623047" xlink:href="#DejaVuSans-35"/>
      </g>
     </g>
    </g>
    <g id="ytick_11">
     <g id="line2d_34">
      <g>
       <use style="stroke:#000000;stroke-width:0.8;" x="40.603125" xlink:href="#m470d95e2c7" y="530.296916"/>
      </g>
     </g>
     <g id="text_30">
      <!-- 30 -->
      <g transform="translate(20.878125 534.096135)scale(0.1 -0.1)">
       <use xlink:href="#DejaVuSans-33"/>
       <use x="63.623047" xlink:href="#DejaVuSans-30"/>
      </g>
     </g>
    </g>
    <g id="text_31">
     <!-- Temperature -->
     <defs>
      <path d="M 18.109375 8.203125 
L 18.109375 -20.796875 
L 9.078125 -20.796875 
L 9.078125 54.6875 
L 18.109375 54.6875 
L 18.109375 46.390625 
Q 20.953125 51.265625 25.265625 53.625 
Q 29.59375 56 35.59375 56 
Q 45.5625 56 51.78125 48.09375 
Q 58.015625 40.1875 58.015625 27.296875 
Q 58.015625 14.40625 51.78125 6.484375 
Q 45.5625 -1.421875 35.59375 -1.421875 
Q 29.59375 -1.421875 25.265625 0.953125 
Q 20.953125 3.328125 18.109375 8.203125 
z
M 48.6875 27.296875 
Q 48.6875 37.203125 44.609375 42.84375 
Q 40.53125 48.484375 33.40625 48.484375 
Q 26.265625 48.484375 22.1875 42.84375 
Q 18.109375 37.203125 18.109375 27.296875 
Q 18.109375 17.390625 22.1875 11.75 
Q 26.265625 6.109375 33.40625 6.109375 
Q 40.53125 6.109375 44.609375 11.75 
Q 48.6875 17.390625 48.6875 27.296875 
z
" id="DejaVuSans-70"/>
     </defs>
     <g style="fill:#0000ff;" transform="translate(14.798438 613.557187)rotate(-90)scale(0.1 -0.1)">
      <use xlink:href="#DejaVuSans-54"/>
      <use x="60.818359" xlink:href="#DejaVuSans-65"/>
      <use x="122.341797" xlink:href="#DejaVuSans-6d"/>
      <use x="219.753906" xlink:href="#DejaVuSans-70"/>
      <use x="283.230469" xlink:href="#DejaVuSans-65"/>
      <use x="344.753906" xlink:href="#DejaVuSans-72"/>
      <use x="385.867188" xlink:href="#DejaVuSans-61"/>
      <use x="447.146484" xlink:href="#DejaVuSans-74"/>
      <use x="486.355469" xlink:href="#DejaVuSans-75"/>
      <use x="549.734375" xlink:href="#DejaVuSans-72"/>
      <use x="590.816406" xlink:href="#DejaVuSans-65"/>
     </g>
    </g>
   </g>
   <g id="line2d_35">
    <path clip-path="url(#p7a1e3f11ab)" d="M 91.395852 567.527842 
L 96.375531 567.466701 
L 101.355211 563.011377 
L 106.33489 556.860054 
L 111.314569 546.60962 
L 116.294248 540.298798 
L 121.273927 532.543186 
L 126.253606 536.813757 
L 131.233285 538.977619 
L 136.212965 545.473858 
L 141.192644 543.571839 
L 146.172323 562.135465 
L 151.152002 563.826813 
L 156.131681 563.40813 
L 161.11136 554.961358 
L 166.091039 555.772142 
L 171.070719 546.880768 
L 176.050398 535.419475 
L 181.030077 529.842346 
L 186.009756 528.735161 
L 190.989435 527.756903 
L 195.969114 534.984842 
L 200.948793 544.544115 
L 205.928473 563.287841 
L 210.908152 564.792443 
L 215.887831 562.322876 
L 220.86751 550.215614 
L 225.847189 547.303438 
L 230.826868 544.031062 
L 235.806547 530.815286 
L 240.786227 531.079788 
L 245.765906 527.335562 
L 250.745585 530.379324 
L 255.725264 539.561118 
L 260.704943 549.054598 
L 265.684622 561.808493 
L 270.664301 565.031691 
L 275.643981 565.404519 
L 280.62366 556.783628 
L 285.603339 553.979113 
L 290.583018 541.036479 
L 300.542376 525.020176 
L 305.522055 531.963675 
L 310.501735 532.698697 
L 315.481414 536.081393 
L 320.461093 545.640667 
L 325.440772 560.345095 
L 330.420451 568.96067 
L 335.40013 569.327516 
L 340.379809 554.874963 
L 345.359489 551.867088 
L 350.339168 543.819726 
L 355.318847 532.596352 
L 360.298526 532.700026 
L 365.278205 527.153468 
L 370.257884 530.829907 
L 375.237564 540.542033 
L 380.217243 553.933257 
L 385.196922 552.714423 
L 390.176601 565.640444 
L 395.15628 564.440218 
L 400.135959 553.661445 
L 405.115638 549.723827 
L 410.095318 545.295087 
L 415.074997 537.375989 
L 420.054676 527.277079 
L 425.034355 531.307073 
L 430.014034 529.136565 
L 434.993713 537.059651 
L 439.973392 547.926147 
L 444.953072 550.802436 
L 449.932751 566.727691 
L 454.91243 568.676231 
L 459.892109 553.804329 
L 464.871788 555.658499 
L 469.851467 546.718611 
L 474.831146 535.004779 
L 479.810826 529.766584 
L 484.790505 531.863989 
L 489.770184 534.342196 
L 494.749863 535.394221 
L 499.729542 544.346736 
L 504.709221 555.909709 
L 509.6889 565.381259 
L 514.66858 566.107641 
L 519.648259 554.113358 
L 524.627938 551.674361 
L 529.607617 540.709507 
L 534.587296 529.378471 
L 539.566975 526.726145 
L 544.546654 533.94212 
L 549.526334 534.578785 
L 554.506013 540.375225 
L 559.485692 545.958335 
L 564.465371 559.689158 
L 569.44505 562.393985 
L 574.424729 562.831277 
L 579.404408 554.578561 
L 584.384088 557.450863 
L 589.363767 542.536429 
L 594.343446 534.612014 
L 599.323125 533.987312 
L 604.302804 535.811575 
L 609.282483 537.761444 
L 614.262162 534.718346 
L 619.241842 547.068178 
L 624.221521 555.373395 
L 629.2012 568.508757 
L 634.180879 562.77944 
L 639.160558 552.540304 
L 644.140237 552.360868 
L 654.099596 531.159537 
L 659.079275 523.367373 
L 669.038633 529.137894 
L 674.018312 532.872816 
L 678.997991 542.814222 
L 683.97767 545.623388 
L 688.95735 565.900958 
L 693.937029 565.714876 
L 698.916708 555.462449 
L 703.896387 554.215038 
L 708.876066 540.643049 
L 713.855745 532.04276 
L 718.835424 527.312966 
L 723.815104 525.974508 
L 728.794783 527.154797 
L 733.774462 533.932152 
L 738.754141 544.078247 
L 743.73382 546.357746 
L 748.713499 562.337496 
L 753.693178 564.1066 
L 758.672858 553.099213 
L 763.652537 550.809746 
L 768.632216 544.770071 
L 773.611895 534.389381 
L 778.591574 529.456226 
L 783.571253 531.665945 
L 788.550932 531.026622 
L 793.530612 534.48508 
L 798.510291 543.317971 
L 803.48997 546.151062 
L 808.469649 559.328957 
L 813.449328 562.722951 
L 818.429007 551.558724 
L 823.408686 552.09969 
L 828.388366 538.204052 
L 833.368045 538.117657 
L 838.347724 531.489832 
L 843.327403 530.389957 
L 848.307082 533.832465 
L 853.286761 536.101331 
L 858.266441 546.176316 
L 863.24612 557.074712 
L 868.225799 562.225183 
L 873.205478 563.059227 
L 878.185157 553.794361 
L 883.164836 552.534323 
L 888.144515 540.489532 
L 893.124195 530.241756 
L 898.103874 531.128966 
L 903.083553 529.941368 
L 908.063232 532.122509 
L 913.042911 541.057745 
L 918.02259 548.131501 
L 923.002269 553.096555 
L 927.981949 560.830901 
L 932.961628 562.332844 
L 937.941307 551.195865 
L 942.920986 545.271827 
L 947.900665 537.288265 
L 952.880344 529.583825 
L 957.860023 527.114922 
L 962.839703 525.99511 
L 967.819382 530.830571 
L 972.799061 535.492578 
L 982.758419 555.48438 
L 987.738098 559.55159 
L 992.717777 563.041948 
L 997.697457 558.353358 
L 1002.677136 544.457056 
L 1007.656815 537.811287 
L 1012.636494 528.268628 
L 1017.616173 532.339161 
L 1022.595852 531.484515 
L 1027.575531 531.870634 
L 1032.555211 536.739989 
L 1037.53489 543.235563 
L 1042.514569 545.810799 
L 1047.494248 557.423615 
L 1052.473927 558.450386 
L 1057.453606 557.145822 
L 1062.433285 551.082887 
L 1067.412965 538.494472 
L 1072.392644 528.186885 
L 1077.372323 524.142934 
L 1082.352002 524.528389 
L 1087.331681 522.030909 
L 1092.31136 530.340114 
L 1097.291039 548.758862 
L 1102.270719 560.631528 
L 1107.250398 564.202299 
L 1107.250398 564.202299 
" style="fill:none;stroke:#ff0000;stroke-linecap:square;stroke-width:1.5;"/>
   </g>
   <g id="line2d_36">
    <path clip-path="url(#p7a1e3f11ab)" d="M 91.395852 582.785198 
L 96.375531 582.648959 
L 101.355211 578.741247 
L 106.33489 575.209021 
L 111.314569 565.387904 
L 116.294248 558.910274 
L 121.273927 553.700655 
L 126.253606 554.187126 
L 131.233285 557.560518 
L 136.212965 561.538675 
L 141.192644 567.329133 
L 146.172323 578.097937 
L 151.152002 573.79015 
L 156.131681 580.389398 
L 161.11136 580.982201 
L 166.091039 576.233799 
L 171.070719 570.147604 
L 176.050398 558.215791 
L 181.030077 550.312643 
L 186.009756 550.193019 
L 190.989435 549.488567 
L 195.969114 554.281496 
L 200.948793 565.903616 
L 205.928473 579.268257 
L 210.908152 579.676307 
L 215.887831 576.760808 
L 220.86751 576.097561 
L 225.847189 573.648595 
L 230.826868 567.792343 
L 235.806547 557.006261 
L 240.786227 553.252731 
L 245.765906 550.247514 
L 250.745585 551.850473 
L 255.725264 561.407089 
L 260.704943 570.326375 
L 265.684622 576.532858 
L 270.664301 577.101072 
L 275.643981 581.497248 
L 280.62366 580.165436 
L 285.603339 574.831542 
L 290.583018 562.798713 
L 295.562697 553.199564 
L 300.542376 546.718611 
L 305.522055 551.883702 
L 310.501735 553.223489 
L 315.481414 555.258424 
L 320.461093 561.031603 
L 325.440772 576.120821 
L 330.420451 581.743141 
L 335.40013 586.478916 
L 340.379809 576.838564 
L 345.359489 573.331592 
L 350.339168 564.823014 
L 355.318847 554.85569 
L 360.298526 552.589483 
L 365.278205 547.950736 
L 370.257884 550.603727 
L 375.237564 559.385446 
L 380.217243 573.235228 
L 385.196922 580.371454 
L 390.176601 578.424244 
L 395.15628 578.590388 
L 400.135959 578.403642 
L 405.115638 574.866764 
L 410.095318 568.576544 
L 415.074997 560.157684 
L 420.054676 548.821332 
L 425.034355 552.601445 
L 430.014034 548.837282 
L 434.993713 556.491878 
L 439.973392 568.950701 
L 444.953072 575.66625 
L 449.932751 584.961022 
L 454.91243 588.997662 
L 459.892109 581.916596 
L 464.871788 579.552696 
L 469.851467 571.204281 
L 474.831146 559.753622 
L 479.810826 551.425144 
L 484.790505 550.708066 
L 489.770184 551.597934 
L 494.749863 554.896229 
L 499.729542 566.692469 
L 504.709221 570.3822 
L 509.6889 583.546138 
L 514.66858 585.612972 
L 519.648259 577.991605 
L 524.627938 574.416181 
L 529.607617 561.887578 
L 534.587296 552.108329 
L 539.566975 547.702185 
L 544.546654 550.159125 
L 549.526334 553.043389 
L 554.506013 557.296681 
L 559.485692 565.114099 
L 564.465371 574.091868 
L 569.44505 580.209962 
L 574.424729 583.526201 
L 579.404408 577.871316 
L 584.384088 577.372219 
L 589.363767 563.982989 
L 594.343446 556.762361 
L 599.323125 553.137094 
L 604.302804 552.548944 
L 609.282483 554.685558 
L 614.262162 556.6228 
L 619.241842 568.060168 
L 624.221521 577.459279 
L 629.2012 585.421574 
L 634.180879 581.364997 
L 639.160558 574.777711 
L 644.140237 571.136494 
L 649.119916 560.953847 
L 654.099596 552.210009 
L 659.079275 544.60725 
L 664.058954 547.290147 
L 669.038633 549.240015 
L 674.018312 552.399414 
L 678.997991 562.951565 
L 683.97767 571.769836 
L 688.95735 583.230464 
L 693.937029 584.61943 
L 698.916708 579.09879 
L 703.896387 571.926012 
L 713.855745 552.204693 
L 718.835424 547.498159 
L 723.815104 544.845833 
L 728.794783 547.214385 
L 733.774462 554.304091 
L 738.754141 560.971126 
L 743.73382 571.523943 
L 748.713499 580.812734 
L 753.693178 582.708107 
L 758.672858 576.348106 
L 763.652537 570.821485 
L 768.632216 564.983177 
L 773.611895 554.394474 
L 778.591574 550.181056 
L 783.571253 548.166059 
L 788.550932 550.134536 
L 793.530612 554.012342 
L 798.510291 562.962199 
L 803.48997 570.5304 
L 808.469649 579.657034 
L 813.449328 582.190401 
L 818.429007 574.581661 
L 823.408686 570.85272 
L 828.388366 557.90344 
L 833.368045 556.514474 
L 838.347724 551.890348 
L 843.327403 548.10957 
L 848.307082 551.972091 
L 853.286761 554.884267 
L 858.266441 566.14087 
L 863.24612 572.56467 
L 868.225799 580.201323 
L 873.205478 581.936533 
L 878.185157 577.275191 
L 883.164836 573.577485 
L 888.144515 561.316042 
L 893.124195 550.870887 
L 898.103874 549.275238 
L 903.083553 548.537558 
L 908.063232 550.204316 
L 913.042911 557.963251 
L 918.02259 568.244256 
L 923.002269 576.72625 
L 927.981949 580.217937 
L 932.961628 582.028909 
L 937.941307 574.258012 
L 942.920986 569.673096 
L 947.900665 558.551402 
L 952.880344 550.820379 
L 957.860023 547.195777 
L 962.839703 545.836053 
L 967.819382 549.295175 
L 972.799061 554.512768 
L 977.77874 564.36645 
L 982.758419 570.634074 
L 992.717777 581.079229 
L 997.697457 574.079241 
L 1002.677136 568.646989 
L 1007.656815 558.606562 
L 1012.636494 549.78231 
L 1022.595852 549.798925 
L 1027.575531 550.338561 
L 1032.555211 555.100919 
L 1037.53489 562.601998 
L 1042.514569 567.269986 
L 1047.494248 575.918125 
L 1052.473927 576.948219 
L 1057.453606 575.73736 
L 1062.433285 569.513598 
L 1067.412965 560.236104 
L 1072.392644 548.910385 
L 1077.372323 543.925394 
L 1082.352002 543.394397 
L 1087.331681 542.654723 
L 1092.31136 549.644078 
L 1097.291039 565.810575 
L 1102.270719 577.533047 
L 1107.250398 583.355405 
L 1107.250398 583.355405 
" style="fill:none;stroke:#008000;stroke-linecap:square;stroke-width:1.5;"/>
   </g>
   <g id="line2d_37">
    <path clip-path="url(#p7a1e3f11ab)" d="M 91.395852 605.457902 
L 96.375531 605.27315 
L 101.355211 602.671996 
L 106.33489 600.566617 
L 111.314569 590.112822 
L 116.294248 581.885361 
L 121.273927 574.22146 
L 126.253606 574.317159 
L 131.233285 576.817297 
L 136.212965 580.673172 
L 141.192644 588.555054 
L 146.172323 600.625099 
L 151.152002 598.454591 
L 156.131681 603.997162 
L 161.11136 605.031909 
L 166.091039 597.154679 
L 171.070719 591.229311 
L 176.050398 579.849097 
L 181.030077 571.026174 
L 190.989435 571.868858 
L 195.969114 576.976796 
L 200.948793 585.730602 
L 205.928473 606.620247 
L 210.908152 605.0771 
L 215.887831 601.331544 
L 220.86751 602.327081 
L 225.847189 598.915808 
L 230.826868 592.834929 
L 235.806547 584.362903 
L 240.786227 577.156232 
L 245.765906 574.609573 
L 250.745585 574.753122 
L 255.725264 584.393474 
L 260.704943 591.449951 
L 265.684622 604.279607 
L 270.664301 598.198729 
L 275.643981 601.674466 
L 280.62366 604.451733 
L 285.603339 593.486215 
L 290.583018 583.521549 
L 295.562697 572.720846 
L 300.542376 568.620406 
L 305.522055 572.407165 
L 310.501735 572.061585 
L 315.481414 573.837335 
L 320.461093 581.796307 
L 325.440772 602.035996 
L 330.420451 602.00609 
L 335.40013 599.783745 
L 340.379809 599.684058 
L 345.359489 594.484409 
L 355.318847 576.076959 
L 360.298526 572.706225 
L 365.278205 566.756933 
L 370.257884 568.288118 
L 375.237564 574.589636 
L 380.217243 588.359669 
L 385.196922 598.925112 
L 390.176601 600.366579 
L 395.15628 598.912485 
L 400.135959 601.421927 
L 405.115638 595.381588 
L 410.095318 586.627781 
L 415.074997 578.393674 
L 420.054676 567.432143 
L 425.034355 569.928293 
L 430.014034 567.017447 
L 434.993713 573.909109 
L 439.973392 584.614113 
L 444.953072 599.549149 
L 449.932751 600.235657 
L 454.91243 606.447457 
L 459.892109 603.963933 
L 464.871788 599.13246 
L 469.851467 591.920471 
L 474.831146 581.24205 
L 479.810826 573.245197 
L 484.790505 571.017535 
L 489.770184 572.083516 
L 494.749863 575.842363 
L 499.729542 588.915919 
L 504.709221 595.919895 
L 509.6889 603.518667 
L 514.66858 604.572021 
L 519.648259 603.025551 
L 524.627938 595.028697 
L 529.607617 583.994728 
L 534.587296 574.166965 
L 539.566975 568.895541 
L 544.546654 570.563629 
L 549.526334 574.341749 
L 554.506013 576.839228 
L 559.485692 585.584395 
L 564.465371 601.211921 
L 569.44505 600.502153 
L 574.424729 602.339043 
L 579.404408 602.039983 
L 584.384088 597.492284 
L 589.363767 586.533411 
L 594.343446 577.760997 
L 599.323125 573.959617 
L 604.302804 572.733472 
L 609.282483 575.243579 
L 614.262162 579.387216 
L 619.241842 588.611543 
L 624.221521 602.266604 
L 629.2012 604.793325 
L 634.180879 598.767607 
L 639.160558 599.166353 
L 644.140237 591.430014 
L 649.119916 583.140746 
L 654.099596 575.647642 
L 659.079275 569.307579 
L 664.058954 568.728068 
L 669.038633 570.784269 
L 674.018312 572.36862 
L 678.997991 583.370025 
L 683.97767 593.785274 
L 688.95735 601.27572 
L 693.937029 603.302679 
L 698.916708 604.677689 
L 703.896387 592.195606 
L 708.876066 581.149009 
L 713.855745 572.835153 
L 723.815104 563.706525 
L 728.794783 565.512845 
L 733.774462 573.299027 
L 738.754141 578.353799 
L 743.73382 589.906803 
L 748.713499 598.855996 
L 753.693178 600.295469 
L 758.672858 601.025839 
L 763.652537 590.588659 
L 768.632216 586.451668 
L 773.611895 580.297686 
L 778.591574 570.613472 
L 783.571253 566.899817 
L 788.550932 570.188143 
L 793.530612 572.999303 
L 798.510291 584.240621 
L 803.48997 589.387769 
L 808.469649 599.133789 
L 813.449328 601.351482 
L 818.429007 598.019958 
L 823.408686 592.117851 
L 828.388366 580.523643 
L 833.368045 574.743818 
L 838.347724 573.513021 
L 843.327403 567.658099 
L 848.307082 570.701861 
L 853.286761 572.524131 
L 858.266441 583.886402 
L 863.24612 597.245726 
L 868.225799 597.546115 
L 873.205478 597.328133 
L 878.185157 599.758491 
L 883.164836 591.602139 
L 893.124195 570.156243 
L 898.103874 567.345083 
L 903.083553 566.719052 
L 908.063232 567.104506 
L 913.042911 573.926388 
L 918.02259 587.26644 
L 923.002269 594.96224 
L 927.981949 597.916949 
L 932.961628 598.561588 
L 937.941307 595.529788 
L 947.900665 580.457849 
L 952.880344 571.555842 
L 957.860023 566.497748 
L 962.839703 566.160807 
L 967.819382 568.774588 
L 972.799061 572.695592 
L 977.77874 584.097737 
L 982.758419 592.731255 
L 987.738098 593.972685 
L 992.717777 598.172146 
L 997.697457 597.200535 
L 1002.677136 586.164571 
L 1007.656815 577.031291 
L 1012.636494 570.620118 
L 1017.616173 568.247579 
L 1022.595852 568.238939 
L 1027.575531 567.885384 
L 1032.555211 572.748093 
L 1037.53489 579.806564 
L 1042.514569 587.921712 
L 1047.494248 593.663657 
L 1052.473927 593.954077 
L 1057.453606 594.871857 
L 1062.433285 586.726139 
L 1067.412965 579.749411 
L 1072.392644 568.379165 
L 1077.372323 563.761685 
L 1082.352002 563.497848 
L 1087.331681 562.939603 
L 1092.31136 567.159002 
L 1097.291039 582.646966 
L 1102.270719 593.287506 
L 1107.250398 599.32851 
L 1107.250398 599.32851 
" style="fill:none;stroke:#0000ff;stroke-linecap:square;stroke-width:1.5;"/>
   </g>
   <g id="line2d_38">
    <defs>
     <path d="M 0 3 
C 0.795609 3 1.55874 2.683901 2.12132 2.12132 
C 2.683901 1.55874 3 0.795609 3 0 
C 3 -0.795609 2.683901 -1.55874 2.12132 -2.12132 
C 1.55874 -2.683901 0.795609 -3 0 -3 
C -0.795609 -3 -1.55874 -2.683901 -2.12132 -2.12132 
C -2.683901 -1.55874 -3 -0.795609 -3 0 
C -3 0.795609 -2.683901 1.55874 -2.12132 2.12132 
C -1.55874 2.683901 -0.795609 3 0 3 
z
" id="mf5f1801f34" style="stroke:#ff0000;"/>
    </defs>
    <g clip-path="url(#p7a1e3f11ab)">
     <use style="fill:#ff0000;stroke:#ff0000;" x="240.786227" xlink:href="#mf5f1801f34" y="639.849091"/>
     <use style="fill:#ff0000;stroke:#ff0000;" x="544.546654" xlink:href="#mf5f1801f34" y="639.849091"/>
     <use style="fill:#ff0000;stroke:#ff0000;" x="908.063232" xlink:href="#mf5f1801f34" y="639.849091"/>
     <use style="fill:#ff0000;stroke:#ff0000;" x="913.042911" xlink:href="#mf5f1801f34" y="639.849091"/>
    </g>
   </g>
   <g id="patch_9">
    <path d="M 40.603125 645.74 
L 40.603125 516.14 
" style="fill:none;stroke:#000000;stroke-linecap:square;stroke-linejoin:miter;stroke-width:0.8;"/>
   </g>
   <g id="patch_10">
    <path d="M 1158.043125 645.74 
L 1158.043125 516.14 
" style="fill:none;stroke:#000000;stroke-linecap:square;stroke-linejoin:miter;stroke-width:0.8;"/>
   </g>
   <g id="patch_11">
    <path d="M 40.603125 645.74 
L 1158.043125 645.74 
" style="fill:none;stroke:#000000;stroke-linecap:square;stroke-linejoin:miter;stroke-width:0.8;"/>
   </g>
   <g id="patch_12">
    <path d="M 40.603125 516.14 
L 1158.043125 516.14 
" style="fill:none;stroke:#000000;stroke-linecap:square;stroke-linejoin:miter;stroke-width:0.8;"/>
   </g>
   <g id="legend_2">
    <g id="patch_13">
     <path d="M 47.603125 582.8525 
L 138.615625 582.8525 
Q 140.615625 582.8525 140.615625 580.8525 
L 140.615625 523.14 
Q 140.615625 521.14 138.615625 521.14 
L 47.603125 521.14 
Q 45.603125 521.14 45.603125 523.14 
L 45.603125 580.8525 
Q 45.603125 582.8525 47.603125 582.8525 
z
" style="fill:#ffffff;opacity:0.8;stroke:#cccccc;stroke-linejoin:miter;"/>
    </g>
    <g id="line2d_39">
     <path d="M 49.603125 529.238437 
L 69.603125 529.238437 
" style="fill:none;stroke:#ff0000;stroke-linecap:square;stroke-width:1.5;"/>
    </g>
    <g id="line2d_40"/>
    <g id="text_32">
     <!-- Maxmimum -->
     <defs>
      <path d="M 9.8125 72.90625 
L 24.515625 72.90625 
L 43.109375 23.296875 
L 61.8125 72.90625 
L 76.515625 72.90625 
L 76.515625 0 
L 66.890625 0 
L 66.890625 64.015625 
L 48.09375 14.015625 
L 38.1875 14.015625 
L 19.390625 64.015625 
L 19.390625 0 
L 9.8125 0 
z
" id="DejaVuSans-4d"/>
      <path d="M 54.890625 54.6875 
L 35.109375 28.078125 
L 55.90625 0 
L 45.3125 0 
L 29.390625 21.484375 
L 13.484375 0 
L 2.875 0 
L 24.125 28.609375 
L 4.6875 54.6875 
L 15.28125 54.6875 
L 29.78125 35.203125 
L 44.28125 54.6875 
z
" id="DejaVuSans-78"/>
     </defs>
     <g transform="translate(77.603125 532.738437)scale(0.1 -0.1)">
      <use xlink:href="#DejaVuSans-4d"/>
      <use x="86.279297" xlink:href="#DejaVuSans-61"/>
      <use x="147.558594" xlink:href="#DejaVuSans-78"/>
      <use x="206.738281" xlink:href="#DejaVuSans-6d"/>
      <use x="304.150391" xlink:href="#DejaVuSans-69"/>
      <use x="331.933594" xlink:href="#DejaVuSans-6d"/>
      <use x="429.345703" xlink:href="#DejaVuSans-75"/>
      <use x="492.724609" xlink:href="#DejaVuSans-6d"/>
     </g>
    </g>
    <g id="line2d_41">
     <path d="M 49.603125 543.916562 
L 69.603125 543.916562 
" style="fill:none;stroke:#008000;stroke-linecap:square;stroke-width:1.5;"/>
    </g>
    <g id="line2d_42"/>
    <g id="text_33">
     <!-- Average -->
     <defs>
      <path d="M 34.1875 63.1875 
L 20.796875 26.90625 
L 47.609375 26.90625 
z
M 28.609375 72.90625 
L 39.796875 72.90625 
L 67.578125 0 
L 57.328125 0 
L 50.6875 18.703125 
L 17.828125 18.703125 
L 11.1875 0 
L 0.78125 0 
z
" id="DejaVuSans-41"/>
      <path d="M 2.984375 54.6875 
L 12.5 54.6875 
L 29.59375 8.796875 
L 46.6875 54.6875 
L 56.203125 54.6875 
L 35.6875 0 
L 23.484375 0 
z
" id="DejaVuSans-76"/>
     </defs>
     <g transform="translate(77.603125 547.416562)scale(0.1 -0.1)">
      <use xlink:href="#DejaVuSans-41"/>
      <use x="68.330078" xlink:href="#DejaVuSans-76"/>
      <use x="127.509766" xlink:href="#DejaVuSans-65"/>
      <use x="189.033203" xlink:href="#DejaVuSans-72"/>
      <use x="230.146484" xlink:href="#DejaVuSans-61"/>
      <use x="291.425781" xlink:href="#DejaVuSans-67"/>
      <use x="354.902344" xlink:href="#DejaVuSans-65"/>
     </g>
    </g>
    <g id="line2d_43">
     <path d="M 49.603125 558.594687 
L 69.603125 558.594687 
" style="fill:none;stroke:#0000ff;stroke-linecap:square;stroke-width:1.5;"/>
    </g>
    <g id="line2d_44"/>
    <g id="text_34">
     <!-- Minimum -->
     <g transform="translate(77.603125 562.094687)scale(0.1 -0.1)">
      <use xlink:href="#DejaVuSans-4d"/>
      <use x="86.279297" xlink:href="#DejaVuSans-69"/>
      <use x="114.0625" xlink:href="#DejaVuSans-6e"/>
      <use x="177.441406" xlink:href="#DejaVuSans-69"/>
      <use x="205.224609" xlink:href="#DejaVuSans-6d"/>
      <use x="302.636719" xlink:href="#DejaVuSans-75"/>
      <use x="366.015625" xlink:href="#DejaVuSans-6d"/>
     </g>
    </g>
    <g id="line2d_45"/>
    <g id="line2d_46">
     <g>
      <use style="fill:#ff0000;stroke:#ff0000;" x="59.603125" xlink:href="#mf5f1801f34" y="573.272812"/>
     </g>
    </g>
    <g id="text_35">
     <!-- Disasters -->
     <g transform="translate(77.603125 576.772812)scale(0.1 -0.1)">
      <use xlink:href="#DejaVuSans-44"/>
      <use x="77.001953" xlink:href="#DejaVuSans-69"/>
      <use x="104.785156" xlink:href="#DejaVuSans-73"/>
      <use x="156.884766" xlink:href="#DejaVuSans-61"/>
      <use x="218.164062" xlink:href="#DejaVuSans-73"/>
      <use x="270.263672" xlink:href="#DejaVuSans-74"/>
      <use x="309.472656" xlink:href="#DejaVuSans-65"/>
      <use x="370.996094" xlink:href="#DejaVuSans-72"/>
      <use x="412.109375" xlink:href="#DejaVuSans-73"/>
     </g>
    </g>
   </g>
  </g>
 </g>
 <defs>
  <clipPath id="p9faf8ba924">
   <rect height="498.96" width="1116" x="40.603125" y="10.7"/>
  </clipPath>
  <clipPath id="p7a1e3f11ab">
   <rect height="129.6" width="1117.44" x="40.603125" y="516.14"/>
  </clipPath>
 </defs>
</svg>
