<?xml version="1.0" encoding="utf-8" standalone="no"?>
<!DOCTYPE svg PUBLIC "-//W3C//DTD SVG 1.1//EN"
  "http://www.w3.org/Graphics/SVG/1.1/DTD/svg11.dtd">
<!-- Created with matplotlib (http://matplotlib.org/) -->
<svg height="669pt" version="1.1" viewBox="0 0 1181 669" width="1181pt" xmlns="http://www.w3.org/2000/svg" xmlns:xlink="http://www.w3.org/1999/xlink">
 <defs>
  <style type="text/css">
*{stroke-linecap:butt;stroke-linejoin:round;}
  </style>
 </defs>
 <g id="figure_1">
  <g id="patch_1">
   <path d="M 0 669.618125 
L 1181.468125 669.618125 
L 1181.468125 -0 
L 0 -0 
z
" style="fill:none;"/>
  </g>
  <g id="axes_1">
   <g id="patch_2">
    <path d="M 53.328125 509.66 
L 1169.328125 509.66 
L 1169.328125 10.7 
L 53.328125 10.7 
z
" style="fill:none;"/>
   </g>
   <g id="matplotlib.axis_1">
    <g id="xtick_1">
     <g id="line2d_1">
      <defs>
       <path d="M 0 0 
L 0 3.5 
" id="m02c54f4663" style="stroke:#000000;stroke-width:0.8;"/>
      </defs>
      <g>
       <use style="stroke:#000000;stroke-width:0.8;" x="104.055398" xlink:href="#m02c54f4663" y="509.66"/>
      </g>
     </g>
     <g id="text_1">
      <!-- 0 -->
      <defs>
       <path d="M 31.78125 66.40625 
Q 24.171875 66.40625 20.328125 58.90625 
Q 16.5 51.421875 16.5 36.375 
Q 16.5 21.390625 20.328125 13.890625 
Q 24.171875 6.390625 31.78125 6.390625 
Q 39.453125 6.390625 43.28125 13.890625 
Q 47.125 21.390625 47.125 36.375 
Q 47.125 51.421875 43.28125 58.90625 
Q 39.453125 66.40625 31.78125 66.40625 
z
M 31.78125 74.21875 
Q 44.046875 74.21875 50.515625 64.515625 
Q 56.984375 54.828125 56.984375 36.375 
Q 56.984375 17.96875 50.515625 8.265625 
Q 44.046875 -1.421875 31.78125 -1.421875 
Q 19.53125 -1.421875 13.0625 8.265625 
Q 6.59375 17.96875 6.59375 36.375 
Q 6.59375 54.828125 13.0625 64.515625 
Q 19.53125 74.21875 31.78125 74.21875 
z
" id="DejaVuSans-30"/>
      </defs>
      <g transform="translate(100.874148 524.258437)scale(0.1 -0.1)">
       <use xlink:href="#DejaVuSans-30"/>
      </g>
     </g>
    </g>
    <g id="xtick_2">
     <g id="line2d_2">
      <g>
       <use style="stroke:#000000;stroke-width:0.8;" x="346.769621" xlink:href="#m02c54f4663" y="509.66"/>
      </g>
     </g>
     <g id="text_2">
      <!-- 50 -->
      <defs>
       <path d="M 10.796875 72.90625 
L 49.515625 72.90625 
L 49.515625 64.59375 
L 19.828125 64.59375 
L 19.828125 46.734375 
Q 21.96875 47.46875 24.109375 47.828125 
Q 26.265625 48.1875 28.421875 48.1875 
Q 40.625 48.1875 47.75 41.5 
Q 54.890625 34.8125 54.890625 23.390625 
Q 54.890625 11.625 47.5625 5.09375 
Q 40.234375 -1.421875 26.90625 -1.421875 
Q 22.3125 -1.421875 17.546875 -0.640625 
Q 12.796875 0.140625 7.71875 1.703125 
L 7.71875 11.625 
Q 12.109375 9.234375 16.796875 8.0625 
Q 21.484375 6.890625 26.703125 6.890625 
Q 35.15625 6.890625 40.078125 11.328125 
Q 45.015625 15.765625 45.015625 23.390625 
Q 45.015625 31 40.078125 35.4375 
Q 35.15625 39.890625 26.703125 39.890625 
Q 22.75 39.890625 18.8125 39.015625 
Q 14.890625 38.140625 10.796875 36.28125 
z
" id="DejaVuSans-35"/>
      </defs>
      <g transform="translate(340.407121 524.258437)scale(0.1 -0.1)">
       <use xlink:href="#DejaVuSans-35"/>
       <use x="63.623047" xlink:href="#DejaVuSans-30"/>
      </g>
     </g>
    </g>
    <g id="xtick_3">
     <g id="line2d_3">
      <g>
       <use style="stroke:#000000;stroke-width:0.8;" x="589.483845" xlink:href="#m02c54f4663" y="509.66"/>
      </g>
     </g>
     <g id="text_3">
      <!-- 100 -->
      <defs>
       <path d="M 12.40625 8.296875 
L 28.515625 8.296875 
L 28.515625 63.921875 
L 10.984375 60.40625 
L 10.984375 69.390625 
L 28.421875 72.90625 
L 38.28125 72.90625 
L 38.28125 8.296875 
L 54.390625 8.296875 
L 54.390625 0 
L 12.40625 0 
z
" id="DejaVuSans-31"/>
      </defs>
      <g transform="translate(579.940095 524.258437)scale(0.1 -0.1)">
       <use xlink:href="#DejaVuSans-31"/>
       <use x="63.623047" xlink:href="#DejaVuSans-30"/>
       <use x="127.246094" xlink:href="#DejaVuSans-30"/>
      </g>
     </g>
    </g>
    <g id="xtick_4">
     <g id="line2d_4">
      <g>
       <use style="stroke:#000000;stroke-width:0.8;" x="832.198068" xlink:href="#m02c54f4663" y="509.66"/>
      </g>
     </g>
     <g id="text_4">
      <!-- 150 -->
      <g transform="translate(822.654318 524.258437)scale(0.1 -0.1)">
       <use xlink:href="#DejaVuSans-31"/>
       <use x="63.623047" xlink:href="#DejaVuSans-35"/>
       <use x="127.246094" xlink:href="#DejaVuSans-30"/>
      </g>
     </g>
    </g>
    <g id="xtick_5">
     <g id="line2d_5">
      <g>
       <use style="stroke:#000000;stroke-width:0.8;" x="1074.912292" xlink:href="#m02c54f4663" y="509.66"/>
      </g>
     </g>
     <g id="text_5">
      <!-- 200 -->
      <defs>
       <path d="M 19.1875 8.296875 
L 53.609375 8.296875 
L 53.609375 0 
L 7.328125 0 
L 7.328125 8.296875 
Q 12.9375 14.109375 22.625 23.890625 
Q 32.328125 33.6875 34.8125 36.53125 
Q 39.546875 41.84375 41.421875 45.53125 
Q 43.3125 49.21875 43.3125 52.78125 
Q 43.3125 58.59375 39.234375 62.25 
Q 35.15625 65.921875 28.609375 65.921875 
Q 23.96875 65.921875 18.8125 64.3125 
Q 13.671875 62.703125 7.8125 59.421875 
L 7.8125 69.390625 
Q 13.765625 71.78125 18.9375 73 
Q 24.125 74.21875 28.421875 74.21875 
Q 39.75 74.21875 46.484375 68.546875 
Q 53.21875 62.890625 53.21875 53.421875 
Q 53.21875 48.921875 51.53125 44.890625 
Q 49.859375 40.875 45.40625 35.40625 
Q 44.1875 33.984375 37.640625 27.21875 
Q 31.109375 20.453125 19.1875 8.296875 
z
" id="DejaVuSans-32"/>
      </defs>
      <g transform="translate(1065.368542 524.258437)scale(0.1 -0.1)">
       <use xlink:href="#DejaVuSans-32"/>
       <use x="63.623047" xlink:href="#DejaVuSans-30"/>
       <use x="127.246094" xlink:href="#DejaVuSans-30"/>
      </g>
     </g>
    </g>
    <g id="text_6">
     <!-- Time -->
     <defs>
      <path d="M -0.296875 72.90625 
L 61.375 72.90625 
L 61.375 64.59375 
L 35.5 64.59375 
L 35.5 0 
L 25.59375 0 
L 25.59375 64.59375 
L -0.296875 64.59375 
z
" id="DejaVuSans-54"/>
      <path d="M 9.421875 54.6875 
L 18.40625 54.6875 
L 18.40625 0 
L 9.421875 0 
z
M 9.421875 75.984375 
L 18.40625 75.984375 
L 18.40625 64.59375 
L 9.421875 64.59375 
z
" id="DejaVuSans-69"/>
      <path d="M 52 44.1875 
Q 55.375 50.25 60.0625 53.125 
Q 64.75 56 71.09375 56 
Q 79.640625 56 84.28125 50.015625 
Q 88.921875 44.046875 88.921875 33.015625 
L 88.921875 0 
L 79.890625 0 
L 79.890625 32.71875 
Q 79.890625 40.578125 77.09375 44.375 
Q 74.3125 48.1875 68.609375 48.1875 
Q 61.625 48.1875 57.5625 43.546875 
Q 53.515625 38.921875 53.515625 30.90625 
L 53.515625 0 
L 44.484375 0 
L 44.484375 32.71875 
Q 44.484375 40.625 41.703125 44.40625 
Q 38.921875 48.1875 33.109375 48.1875 
Q 26.21875 48.1875 22.15625 43.53125 
Q 18.109375 38.875 18.109375 30.90625 
L 18.109375 0 
L 9.078125 0 
L 9.078125 54.6875 
L 18.109375 54.6875 
L 18.109375 46.1875 
Q 21.1875 51.21875 25.484375 53.609375 
Q 29.78125 56 35.6875 56 
Q 41.65625 56 45.828125 52.96875 
Q 50 49.953125 52 44.1875 
z
" id="DejaVuSans-6d"/>
      <path d="M 56.203125 29.59375 
L 56.203125 25.203125 
L 14.890625 25.203125 
Q 15.484375 15.921875 20.484375 11.0625 
Q 25.484375 6.203125 34.421875 6.203125 
Q 39.59375 6.203125 44.453125 7.46875 
Q 49.3125 8.734375 54.109375 11.28125 
L 54.109375 2.78125 
Q 49.265625 0.734375 44.1875 -0.34375 
Q 39.109375 -1.421875 33.890625 -1.421875 
Q 20.796875 -1.421875 13.15625 6.1875 
Q 5.515625 13.8125 5.515625 26.8125 
Q 5.515625 40.234375 12.765625 48.109375 
Q 20.015625 56 32.328125 56 
Q 43.359375 56 49.78125 48.890625 
Q 56.203125 41.796875 56.203125 29.59375 
z
M 47.21875 32.234375 
Q 47.125 39.59375 43.09375 43.984375 
Q 39.0625 48.390625 32.421875 48.390625 
Q 24.90625 48.390625 20.390625 44.140625 
Q 15.875 39.890625 15.1875 32.171875 
z
" id="DejaVuSans-65"/>
     </defs>
     <g transform="translate(598.940625 537.936562)scale(0.1 -0.1)">
      <use xlink:href="#DejaVuSans-54"/>
      <use x="61.037109" xlink:href="#DejaVuSans-69"/>
      <use x="88.820312" xlink:href="#DejaVuSans-6d"/>
      <use x="186.232422" xlink:href="#DejaVuSans-65"/>
     </g>
    </g>
   </g>
   <g id="matplotlib.axis_2">
    <g id="ytick_1">
     <g id="line2d_6">
      <defs>
       <path d="M 0 0 
L -3.5 0 
" id="me45b6b9e10" style="stroke:#000000;stroke-width:0.8;"/>
      </defs>
      <g>
       <use style="stroke:#000000;stroke-width:0.8;" x="53.328125" xlink:href="#me45b6b9e10" y="501.715749"/>
      </g>
     </g>
     <g id="text_7">
      <!-- 0 -->
      <g transform="translate(39.965625 505.514968)scale(0.1 -0.1)">
       <use xlink:href="#DejaVuSans-30"/>
      </g>
     </g>
    </g>
    <g id="ytick_2">
     <g id="line2d_7">
      <g>
       <use style="stroke:#000000;stroke-width:0.8;" x="53.328125" xlink:href="#me45b6b9e10" y="411.78953"/>
      </g>
     </g>
     <g id="text_8">
      <!-- 500 -->
      <g transform="translate(27.240625 415.588749)scale(0.1 -0.1)">
       <use xlink:href="#DejaVuSans-35"/>
       <use x="63.623047" xlink:href="#DejaVuSans-30"/>
       <use x="127.246094" xlink:href="#DejaVuSans-30"/>
      </g>
     </g>
    </g>
    <g id="ytick_3">
     <g id="line2d_8">
      <g>
       <use style="stroke:#000000;stroke-width:0.8;" x="53.328125" xlink:href="#me45b6b9e10" y="321.863311"/>
      </g>
     </g>
     <g id="text_9">
      <!-- 1000 -->
      <g transform="translate(20.878125 325.66253)scale(0.1 -0.1)">
       <use xlink:href="#DejaVuSans-31"/>
       <use x="63.623047" xlink:href="#DejaVuSans-30"/>
       <use x="127.246094" xlink:href="#DejaVuSans-30"/>
       <use x="190.869141" xlink:href="#DejaVuSans-30"/>
      </g>
     </g>
    </g>
    <g id="ytick_4">
     <g id="line2d_9">
      <g>
       <use style="stroke:#000000;stroke-width:0.8;" x="53.328125" xlink:href="#me45b6b9e10" y="231.937092"/>
      </g>
     </g>
     <g id="text_10">
      <!-- 1500 -->
      <g transform="translate(20.878125 235.736311)scale(0.1 -0.1)">
       <use xlink:href="#DejaVuSans-31"/>
       <use x="63.623047" xlink:href="#DejaVuSans-35"/>
       <use x="127.246094" xlink:href="#DejaVuSans-30"/>
       <use x="190.869141" xlink:href="#DejaVuSans-30"/>
      </g>
     </g>
    </g>
    <g id="ytick_5">
     <g id="line2d_10">
      <g>
       <use style="stroke:#000000;stroke-width:0.8;" x="53.328125" xlink:href="#me45b6b9e10" y="142.010873"/>
      </g>
     </g>
     <g id="text_11">
      <!-- 2000 -->
      <g transform="translate(20.878125 145.810092)scale(0.1 -0.1)">
       <use xlink:href="#DejaVuSans-32"/>
       <use x="63.623047" xlink:href="#DejaVuSans-30"/>
       <use x="127.246094" xlink:href="#DejaVuSans-30"/>
       <use x="190.869141" xlink:href="#DejaVuSans-30"/>
      </g>
     </g>
    </g>
    <g id="ytick_6">
     <g id="line2d_11">
      <g>
       <use style="stroke:#000000;stroke-width:0.8;" x="53.328125" xlink:href="#me45b6b9e10" y="52.084654"/>
      </g>
     </g>
     <g id="text_12">
      <!-- 2500 -->
      <g transform="translate(20.878125 55.883872)scale(0.1 -0.1)">
       <use xlink:href="#DejaVuSans-32"/>
       <use x="63.623047" xlink:href="#DejaVuSans-35"/>
       <use x="127.246094" xlink:href="#DejaVuSans-30"/>
       <use x="190.869141" xlink:href="#DejaVuSans-30"/>
      </g>
     </g>
    </g>
    <g id="text_13">
     <!-- Refugees -->
     <defs>
      <path d="M 44.390625 34.1875 
Q 47.5625 33.109375 50.5625 29.59375 
Q 53.5625 26.078125 56.59375 19.921875 
L 66.609375 0 
L 56 0 
L 46.6875 18.703125 
Q 43.0625 26.03125 39.671875 28.421875 
Q 36.28125 30.8125 30.421875 30.8125 
L 19.671875 30.8125 
L 19.671875 0 
L 9.8125 0 
L 9.8125 72.90625 
L 32.078125 72.90625 
Q 44.578125 72.90625 50.734375 67.671875 
Q 56.890625 62.453125 56.890625 51.90625 
Q 56.890625 45.015625 53.6875 40.46875 
Q 50.484375 35.9375 44.390625 34.1875 
z
M 19.671875 64.796875 
L 19.671875 38.921875 
L 32.078125 38.921875 
Q 39.203125 38.921875 42.84375 42.21875 
Q 46.484375 45.515625 46.484375 51.90625 
Q 46.484375 58.296875 42.84375 61.546875 
Q 39.203125 64.796875 32.078125 64.796875 
z
" id="DejaVuSans-52"/>
      <path d="M 37.109375 75.984375 
L 37.109375 68.5 
L 28.515625 68.5 
Q 23.6875 68.5 21.796875 66.546875 
Q 19.921875 64.59375 19.921875 59.515625 
L 19.921875 54.6875 
L 34.71875 54.6875 
L 34.71875 47.703125 
L 19.921875 47.703125 
L 19.921875 0 
L 10.890625 0 
L 10.890625 47.703125 
L 2.296875 47.703125 
L 2.296875 54.6875 
L 10.890625 54.6875 
L 10.890625 58.5 
Q 10.890625 67.625 15.140625 71.796875 
Q 19.390625 75.984375 28.609375 75.984375 
z
" id="DejaVuSans-66"/>
      <path d="M 8.5 21.578125 
L 8.5 54.6875 
L 17.484375 54.6875 
L 17.484375 21.921875 
Q 17.484375 14.15625 20.5 10.265625 
Q 23.53125 6.390625 29.59375 6.390625 
Q 36.859375 6.390625 41.078125 11.03125 
Q 45.3125 15.671875 45.3125 23.6875 
L 45.3125 54.6875 
L 54.296875 54.6875 
L 54.296875 0 
L 45.3125 0 
L 45.3125 8.40625 
Q 42.046875 3.421875 37.71875 1 
Q 33.40625 -1.421875 27.6875 -1.421875 
Q 18.265625 -1.421875 13.375 4.4375 
Q 8.5 10.296875 8.5 21.578125 
z
M 31.109375 56 
z
" id="DejaVuSans-75"/>
      <path d="M 45.40625 27.984375 
Q 45.40625 37.75 41.375 43.109375 
Q 37.359375 48.484375 30.078125 48.484375 
Q 22.859375 48.484375 18.828125 43.109375 
Q 14.796875 37.75 14.796875 27.984375 
Q 14.796875 18.265625 18.828125 12.890625 
Q 22.859375 7.515625 30.078125 7.515625 
Q 37.359375 7.515625 41.375 12.890625 
Q 45.40625 18.265625 45.40625 27.984375 
z
M 54.390625 6.78125 
Q 54.390625 -7.171875 48.1875 -13.984375 
Q 42 -20.796875 29.203125 -20.796875 
Q 24.46875 -20.796875 20.265625 -20.09375 
Q 16.0625 -19.390625 12.109375 -17.921875 
L 12.109375 -9.1875 
Q 16.0625 -11.328125 19.921875 -12.34375 
Q 23.78125 -13.375 27.78125 -13.375 
Q 36.625 -13.375 41.015625 -8.765625 
Q 45.40625 -4.15625 45.40625 5.171875 
L 45.40625 9.625 
Q 42.625 4.78125 38.28125 2.390625 
Q 33.9375 0 27.875 0 
Q 17.828125 0 11.671875 7.65625 
Q 5.515625 15.328125 5.515625 27.984375 
Q 5.515625 40.671875 11.671875 48.328125 
Q 17.828125 56 27.875 56 
Q 33.9375 56 38.28125 53.609375 
Q 42.625 51.21875 45.40625 46.390625 
L 45.40625 54.6875 
L 54.390625 54.6875 
z
" id="DejaVuSans-67"/>
      <path d="M 44.28125 53.078125 
L 44.28125 44.578125 
Q 40.484375 46.53125 36.375 47.5 
Q 32.28125 48.484375 27.875 48.484375 
Q 21.1875 48.484375 17.84375 46.4375 
Q 14.5 44.390625 14.5 40.28125 
Q 14.5 37.15625 16.890625 35.375 
Q 19.28125 33.59375 26.515625 31.984375 
L 29.59375 31.296875 
Q 39.15625 29.25 43.1875 25.515625 
Q 47.21875 21.78125 47.21875 15.09375 
Q 47.21875 7.46875 41.1875 3.015625 
Q 35.15625 -1.421875 24.609375 -1.421875 
Q 20.21875 -1.421875 15.453125 -0.5625 
Q 10.6875 0.296875 5.421875 2 
L 5.421875 11.28125 
Q 10.40625 8.6875 15.234375 7.390625 
Q 20.0625 6.109375 24.8125 6.109375 
Q 31.15625 6.109375 34.5625 8.28125 
Q 37.984375 10.453125 37.984375 14.40625 
Q 37.984375 18.0625 35.515625 20.015625 
Q 33.0625 21.96875 24.703125 23.78125 
L 21.578125 24.515625 
Q 13.234375 26.265625 9.515625 29.90625 
Q 5.8125 33.546875 5.8125 39.890625 
Q 5.8125 47.609375 11.28125 51.796875 
Q 16.75 56 26.8125 56 
Q 31.78125 56 36.171875 55.265625 
Q 40.578125 54.546875 44.28125 53.078125 
z
" id="DejaVuSans-73"/>
     </defs>
     <g style="fill:#ff7f0e;" transform="translate(14.798437 283.588594)rotate(-90)scale(0.1 -0.1)">
      <use xlink:href="#DejaVuSans-52"/>
      <use x="69.419922" xlink:href="#DejaVuSans-65"/>
      <use x="130.943359" xlink:href="#DejaVuSans-66"/>
      <use x="166.148438" xlink:href="#DejaVuSans-75"/>
      <use x="229.527344" xlink:href="#DejaVuSans-67"/>
      <use x="293.003906" xlink:href="#DejaVuSans-65"/>
      <use x="354.527344" xlink:href="#DejaVuSans-65"/>
      <use x="416.050781" xlink:href="#DejaVuSans-73"/>
     </g>
    </g>
   </g>
   <g id="line2d_12">
    <path clip-path="url(#p10a1569489)" d="M 104.055398 486.3309 
L 108.909682 485.794453 
L 113.763967 486.025758 
L 118.618251 486.794299 
L 123.472536 486.98 
L 128.32682 485.099139 
L 133.181105 471.162743 
L 138.035389 469.602026 
L 142.889673 469.72933 
L 152.598242 472.154445 
L 157.452527 470.70866 
L 162.306811 416.393721 
L 167.161096 404.415954 
L 172.01538 402.060385 
L 176.869665 404.228351 
L 181.723949 407.959345 
L 186.578234 411.547096 
L 191.432518 358.462382 
L 196.286803 326.587819 
L 201.141087 299.901357 
L 205.995372 278.85961 
L 210.849656 274.760019 
L 215.703941 275.814479 
L 220.558225 308.69867 
L 225.41251 310.340351 
L 230.266794 334.504213 
L 235.121078 362.413636 
L 239.975363 380.509114 
L 244.829647 390.12718 
L 249.683932 348.352302 
L 254.538216 326.7434 
L 259.392501 311.104241 
L 264.246785 297.835908 
L 269.10107 296.095871 
L 273.955354 296.792711 
L 278.809639 344.205465 
L 283.663923 351.450113 
L 288.518208 370.575725 
L 293.372492 387.88369 
L 298.226777 394.031363 
L 303.081061 395.789019 
L 307.935346 388.550705 
L 312.78963 396.554709 
L 317.643914 412.281204 
L 322.498199 426.117218 
L 327.352483 435.503668 
L 332.206768 437.908377 
L 337.061052 432.768767 
L 341.915337 431.332275 
L 346.769621 432.928224 
L 351.623906 435.378153 
L 356.47819 438.45738 
L 361.332475 437.446649 
L 366.186759 434.402928 
L 371.041044 435.305176 
L 375.895328 438.582285 
L 380.749613 441.528533 
L 385.603897 443.803599 
L 390.458182 442.441319 
L 395.312466 433.568125 
L 400.16675 431.403298 
L 405.021035 431.589622 
L 409.875319 432.224352 
L 414.729604 434.009885 
L 419.583888 432.885187 
L 424.438173 435.00223 
L 429.292457 435.760812 
L 434.146742 436.800946 
L 439.001026 436.003482 
L 443.855311 432.55309 
L 448.709595 428.33826 
L 453.56388 415.650743 
L 463.272449 413.579152 
L 468.126733 410.950402 
L 472.981018 409.447683 
L 477.835302 406.030838 
L 482.689587 416.770248 
L 487.543871 417.011722 
L 492.398155 417.446347 
L 497.25244 415.631247 
L 502.106724 413.689194 
L 506.961009 410.134007 
L 511.815293 396.696888 
L 516.669578 381.215296 
L 521.523862 375.038895 
L 526.378147 373.241666 
L 536.086716 383.985764 
L 540.941 369.741569 
L 545.795285 364.260834 
L 550.649569 362.438269 
L 555.503854 360.269403 
L 560.358138 361.908635 
L 565.212423 361.090682 
L 570.066707 352.101727 
L 574.920991 340.247921 
L 579.775276 337.440493 
L 584.62956 336.00298 
L 589.483845 341.064194 
L 594.338129 345.052563 
L 599.192414 354.658444 
L 604.046698 351.707059 
L 608.900983 352.433033 
L 613.755267 350.741648 
L 618.609552 350.779245 
L 623.463836 349.598349 
L 628.318121 302.90686 
L 633.172405 293.649882 
L 638.02669 296.50943 
L 642.880974 300.038683 
L 647.735259 308.84996 
L 652.589543 313.272635 
L 657.443827 300.927517 
L 662.298112 301.417083 
L 667.152396 295.426518 
L 672.006681 280.153375 
L 676.860965 267.465106 
L 681.71525 255.43631 
L 686.569534 343.933754 
L 691.423819 347.596854 
L 696.278103 371.098531 
L 701.132388 396.38028 
L 705.986672 404.380178 
L 710.840957 410.021331 
L 715.695241 423.98079 
L 720.549526 426.279573 
L 725.40381 432.208496 
L 730.258095 436.311709 
L 735.112379 435.953442 
L 739.966663 434.530386 
L 744.820948 414.505506 
L 749.675232 414.638014 
L 754.529517 417.6663 
L 759.383801 420.374872 
L 764.238086 422.785777 
L 769.09237 421.305068 
L 773.946655 390.244703 
L 778.800939 368.072281 
L 783.655224 358.427123 
L 788.509508 355.073606 
L 793.363793 362.340933 
L 798.218077 370.428047 
L 803.072362 335.049226 
L 807.926646 338.590806 
L 812.780931 338.095971 
L 817.635215 329.630052 
L 827.343784 314.09286 
L 832.198068 321.78018 
L 837.052353 326.644934 
L 841.906637 332.392066 
L 846.760922 331.145043 
L 851.615206 329.415214 
L 856.469491 325.164071 
L 861.323775 289.682985 
L 866.17806 274.550747 
L 871.032344 280.561424 
L 875.886629 292.329442 
L 880.740913 312.183004 
L 885.595198 326.092588 
L 890.449482 309.382009 
L 895.303767 284.162139 
L 900.158051 265.041423 
L 905.012336 247.712008 
L 909.86662 244.171185 
L 914.720904 243.952166 
L 919.575189 301.641153 
L 924.429473 291.209601 
L 929.283758 287.708692 
L 934.138042 282.199306 
L 938.992327 283.689675 
L 943.846611 285.527871 
L 948.700896 324.742311 
L 953.55518 309.722657 
L 958.409465 297.71788 
L 963.263749 282.793179 
L 968.118034 276.507016 
L 972.972318 274.036635 
L 977.826603 269.454109 
L 982.680887 261.013251 
L 987.535172 271.868746 
L 992.389456 285.427012 
L 997.24374 303.553907 
L 1002.098025 313.260077 
L 1006.952309 297.96061 
L 1011.806594 297.919665 
L 1016.660878 291.132848 
L 1021.515163 275.047361 
L 1026.369447 261.832422 
L 1031.223732 249.32484 
L 1036.078016 181.486046 
L 1040.932301 179.413264 
L 1045.786585 175.930006 
L 1050.64087 156.605551 
L 1055.495154 141.625415 
L 1060.349439 132.094399 
L 1065.203723 132.920948 
L 1070.058008 148.855913 
L 1074.912292 145.002434 
L 1079.766577 113.172044 
L 1084.620861 79.179274 
L 1089.475145 50.411051 
L 1094.32943 37.356645 
L 1099.183714 56.50083 
L 1104.037999 83.491342 
L 1108.892283 93.422042 
L 1113.746568 98.841545 
L 1118.600852 92.756816 
L 1118.600852 92.756816 
" style="fill:none;stroke:#008000;stroke-dasharray:5.55,2.4;stroke-dashoffset:0;stroke-width:1.5;"/>
   </g>
   <g id="line2d_13">
    <path clip-path="url(#p10a1569489)" d="M 104.055398 476.896113 
L 108.909682 478.334932 
L 113.763967 473.658769 
L 118.618251 480.673014 
L 123.472536 468.622901 
L 128.32682 483.190948 
L 133.181105 431.393446 
L 138.035389 421.681414 
L 142.889673 423.479939 
L 147.743958 434.091233 
L 152.598242 402.976761 
L 157.452527 411.429825 
L 162.306811 433.371823 
L 167.161096 373.121256 
L 172.01538 397.401335 
L 176.869665 424.738906 
L 181.723949 394.703549 
L 186.578234 403.336466 
L 191.432518 384.991517 
L 196.286803 357.653946 
L 201.141087 292.367511 
L 205.995372 285.892823 
L 210.849656 211.973471 
L 215.703941 274.56212 
L 220.558225 341.467227 
L 225.41251 363.768929 
L 230.266794 317.187148 
L 235.121078 364.128634 
L 239.975363 337.510473 
L 244.829647 386.610189 
L 249.683932 365.027896 
L 254.538216 354.776307 
L 259.392501 283.914447 
L 264.246785 277.439759 
L 269.10107 261.792597 
L 273.955354 284.813709 
L 278.809639 394.523696 
L 283.663923 321.323754 
L 288.518208 372.221994 
L 293.372492 345.423981 
L 303.081061 404.055875 
L 307.935346 386.250484 
L 312.78963 398.120745 
L 317.643914 388.588566 
L 322.498199 422.400824 
L 327.352483 411.969383 
L 332.206768 427.97625 
L 337.061052 409.271596 
L 341.915337 425.997873 
L 346.769621 404.055875 
L 351.623906 412.868645 
L 356.47819 426.717283 
L 361.332475 454.774263 
L 366.186759 444.702526 
L 371.041044 446.141346 
L 375.895328 432.112856 
L 380.749613 444.162969 
L 385.603897 444.882379 
L 390.458182 433.012118 
L 395.312466 424.559053 
L 400.16675 421.321709 
L 405.021035 428.515807 
L 409.875319 433.551675 
L 414.729604 428.515807 
L 419.583888 449.198837 
L 424.438173 447.93987 
L 429.292457 444.342822 
L 434.146742 427.436692 
L 439.001026 445.062231 
L 443.855311 435.170347 
L 448.709595 429.954627 
L 453.56388 418.623923 
L 458.418164 415.206727 
L 463.272449 399.919269 
L 468.126733 391.646057 
L 472.981018 409.271596 
L 477.835302 435.530052 
L 482.689587 432.832266 
L 487.543871 434.990495 
L 492.398155 406.933514 
L 497.25244 420.422447 
L 502.106724 409.271596 
L 506.961009 401.358089 
L 511.815293 408.552186 
L 516.669578 372.042141 
L 521.523862 368.445093 
L 526.378147 381.754173 
L 531.232431 375.099633 
L 536.086716 393.084877 
L 540.941 389.487828 
L 545.795285 376.178747 
L 550.649569 359.632323 
L 555.503854 363.948782 
L 560.358138 350.999406 
L 565.212423 373.301108 
L 570.066707 369.883912 
L 574.920991 321.683459 
L 579.775276 352.258373 
L 584.62956 327.798442 
L 589.483845 331.035785 
L 594.338129 384.991517 
L 599.192414 357.653946 
L 604.046698 332.1149 
L 608.900983 362.689815 
L 613.755267 351.898668 
L 618.609552 324.201393 
L 623.463836 343.445604 
L 628.318121 305.137034 
L 633.172405 282.835332 
L 638.02669 277.080054 
L 642.880974 267.547875 
L 647.735259 289.31002 
L 652.589543 335.891801 
L 657.443827 343.985161 
L 662.298112 307.115411 
L 667.152396 266.288908 
L 672.006681 286.432381 
L 676.860965 311.791575 
L 681.71525 292.907069 
L 686.569534 329.596966 
L 691.423819 391.1065 
L 696.278103 397.04163 
L 701.132388 427.25684 
L 705.986672 428.695659 
L 710.840957 432.112856 
L 715.695241 440.206216 
L 720.549526 442.184592 
L 725.40381 401.897646 
L 730.258095 422.760529 
L 735.112379 419.703038 
L 739.966663 408.372334 
L 744.820948 426.177725 
L 749.675232 416.105989 
L 754.529517 411.609678 
L 759.383801 420.242595 
L 764.238086 408.372334 
L 769.09237 414.307464 
L 773.946655 400.818532 
L 778.800939 399.919269 
L 783.655224 356.215127 
L 788.509508 374.200371 
L 793.363793 367.905535 
L 798.218077 360.531585 
L 803.072362 381.934025 
L 807.926646 348.661324 
L 812.780931 361.430848 
L 817.635215 349.920291 
L 822.4895 357.653946 
L 827.343784 359.272618 
L 832.198068 352.078521 
L 837.052353 338.76944 
L 841.906637 335.532096 
L 846.760922 325.999917 
L 851.615206 279.597988 
L 856.469491 320.424492 
L 861.323775 322.762573 
L 866.17806 309.093788 
L 871.032344 345.963538 
L 875.886629 318.985672 
L 880.740913 348.481472 
L 885.595198 358.733061 
L 890.449482 342.726194 
L 895.303767 357.114389 
L 900.158051 352.258373 
L 905.012336 348.481472 
L 909.86662 317.546853 
L 914.720904 351.718816 
L 919.575189 357.474094 
L 924.429473 344.704571 
L 929.283758 352.977783 
L 934.138042 342.906046 
L 938.992327 360.531585 
L 943.846611 352.977783 
L 948.700896 350.459849 
L 953.55518 332.474605 
L 958.409465 290.209282 
L 963.263749 279.418136 
L 968.118034 271.144923 
L 972.972318 264.850088 
L 977.826603 268.626989 
L 982.680887 293.806331 
L 987.535172 276.540497 
L 992.389456 251.00145 
L 997.24374 295.425003 
L 1002.098025 303.878067 
L 1006.952309 304.05792 
L 1011.806594 318.446115 
L 1016.660878 274.202415 
L 1021.515163 274.921825 
L 1026.369447 244.167058 
L 1031.223732 207.297308 
L 1036.078016 189.671769 
L 1040.932301 172.76564 
L 1045.786585 126.543563 
L 1050.64087 106.220238 
L 1055.495154 175.823131 
L 1060.349439 117.730794 
L 1065.203723 155.319953 
L 1070.058008 120.608433 
L 1074.912292 75.105766 
L 1079.766577 106.579942 
L 1084.620861 73.487094 
L 1089.475145 33.38 
L 1094.32943 85.177502 
L 1099.183714 76.90429 
L 1104.037999 45.070408 
L 1108.892283 70.789307 
L 1113.746568 46.149523 
L 1118.600852 70.24975 
L 1118.600852 70.24975 
" style="fill:none;stroke:#ff7f0e;stroke-linecap:square;stroke-width:1.5;"/>
   </g>
   <g id="line2d_14">
    <defs>
     <path d="M 0 3 
C 0.795609 3 1.55874 2.683901 2.12132 2.12132 
C 2.683901 1.55874 3 0.795609 3 0 
C 3 -0.795609 2.683901 -1.55874 2.12132 -2.12132 
C 1.55874 -2.683901 0.795609 -3 0 -3 
C -0.795609 -3 -1.55874 -2.683901 -2.12132 -2.12132 
C -2.683901 -1.55874 -3 -0.795609 -3 0 
C -3 0.795609 -2.683901 1.55874 -2.12132 2.12132 
C -1.55874 2.683901 -0.795609 3 0 3 
z
" id="m98229bd2b7" style="stroke:#008000;"/>
    </defs>
    <g clip-path="url(#p10a1569489)">
     <use style="fill:#008000;stroke:#008000;" x="104.055398" xlink:href="#m98229bd2b7" y="486.3309"/>
     <use style="fill:#008000;stroke:#008000;" x="133.181105" xlink:href="#m98229bd2b7" y="471.162743"/>
     <use style="fill:#008000;stroke:#008000;" x="162.306811" xlink:href="#m98229bd2b7" y="416.393721"/>
     <use style="fill:#008000;stroke:#008000;" x="191.432518" xlink:href="#m98229bd2b7" y="358.462382"/>
     <use style="fill:#008000;stroke:#008000;" x="220.558225" xlink:href="#m98229bd2b7" y="308.69867"/>
     <use style="fill:#008000;stroke:#008000;" x="249.683932" xlink:href="#m98229bd2b7" y="348.352302"/>
     <use style="fill:#008000;stroke:#008000;" x="278.809639" xlink:href="#m98229bd2b7" y="344.205465"/>
     <use style="fill:#008000;stroke:#008000;" x="307.935346" xlink:href="#m98229bd2b7" y="388.550705"/>
     <use style="fill:#008000;stroke:#008000;" x="337.061052" xlink:href="#m98229bd2b7" y="432.768767"/>
     <use style="fill:#008000;stroke:#008000;" x="366.186759" xlink:href="#m98229bd2b7" y="434.402928"/>
     <use style="fill:#008000;stroke:#008000;" x="395.312466" xlink:href="#m98229bd2b7" y="433.568125"/>
     <use style="fill:#008000;stroke:#008000;" x="424.438173" xlink:href="#m98229bd2b7" y="435.00223"/>
     <use style="fill:#008000;stroke:#008000;" x="453.56388" xlink:href="#m98229bd2b7" y="415.650743"/>
     <use style="fill:#008000;stroke:#008000;" x="482.689587" xlink:href="#m98229bd2b7" y="416.770248"/>
     <use style="fill:#008000;stroke:#008000;" x="511.815293" xlink:href="#m98229bd2b7" y="396.696888"/>
     <use style="fill:#008000;stroke:#008000;" x="540.941" xlink:href="#m98229bd2b7" y="369.741569"/>
     <use style="fill:#008000;stroke:#008000;" x="570.066707" xlink:href="#m98229bd2b7" y="352.101727"/>
     <use style="fill:#008000;stroke:#008000;" x="599.192414" xlink:href="#m98229bd2b7" y="354.658444"/>
     <use style="fill:#008000;stroke:#008000;" x="628.318121" xlink:href="#m98229bd2b7" y="302.90686"/>
     <use style="fill:#008000;stroke:#008000;" x="657.443827" xlink:href="#m98229bd2b7" y="300.927517"/>
     <use style="fill:#008000;stroke:#008000;" x="686.569534" xlink:href="#m98229bd2b7" y="343.933754"/>
     <use style="fill:#008000;stroke:#008000;" x="715.695241" xlink:href="#m98229bd2b7" y="423.98079"/>
     <use style="fill:#008000;stroke:#008000;" x="744.820948" xlink:href="#m98229bd2b7" y="414.505506"/>
     <use style="fill:#008000;stroke:#008000;" x="773.946655" xlink:href="#m98229bd2b7" y="390.244703"/>
     <use style="fill:#008000;stroke:#008000;" x="803.072362" xlink:href="#m98229bd2b7" y="335.049226"/>
     <use style="fill:#008000;stroke:#008000;" x="832.198068" xlink:href="#m98229bd2b7" y="321.78018"/>
     <use style="fill:#008000;stroke:#008000;" x="861.323775" xlink:href="#m98229bd2b7" y="289.682985"/>
     <use style="fill:#008000;stroke:#008000;" x="890.449482" xlink:href="#m98229bd2b7" y="309.382009"/>
     <use style="fill:#008000;stroke:#008000;" x="919.575189" xlink:href="#m98229bd2b7" y="301.641153"/>
     <use style="fill:#008000;stroke:#008000;" x="948.700896" xlink:href="#m98229bd2b7" y="324.742311"/>
     <use style="fill:#008000;stroke:#008000;" x="977.826603" xlink:href="#m98229bd2b7" y="269.454109"/>
     <use style="fill:#008000;stroke:#008000;" x="1006.952309" xlink:href="#m98229bd2b7" y="297.96061"/>
     <use style="fill:#008000;stroke:#008000;" x="1036.078016" xlink:href="#m98229bd2b7" y="181.486046"/>
     <use style="fill:#008000;stroke:#008000;" x="1065.203723" xlink:href="#m98229bd2b7" y="132.920948"/>
     <use style="fill:#008000;stroke:#008000;" x="1094.32943" xlink:href="#m98229bd2b7" y="37.356645"/>
    </g>
   </g>
   <g id="patch_3">
    <path d="M 53.328125 509.66 
L 53.328125 10.7 
" style="fill:none;stroke:#000000;stroke-linecap:square;stroke-linejoin:miter;stroke-width:0.8;"/>
   </g>
   <g id="patch_4">
    <path d="M 1169.328125 509.66 
L 1169.328125 10.7 
" style="fill:none;stroke:#000000;stroke-linecap:square;stroke-linejoin:miter;stroke-width:0.8;"/>
   </g>
   <g id="patch_5">
    <path d="M 53.328125 509.66 
L 1169.328125 509.66 
" style="fill:none;stroke:#000000;stroke-linecap:square;stroke-linejoin:miter;stroke-width:0.8;"/>
   </g>
   <g id="patch_6">
    <path d="M 53.328125 10.7 
L 1169.328125 10.7 
" style="fill:none;stroke:#000000;stroke-linecap:square;stroke-linejoin:miter;stroke-width:0.8;"/>
   </g>
   <g id="legend_1">
    <g id="patch_7">
     <path d="M 60.328125 62.734375 
L 208.103125 62.734375 
Q 210.103125 62.734375 210.103125 60.734375 
L 210.103125 17.7 
Q 210.103125 15.7 208.103125 15.7 
L 60.328125 15.7 
Q 58.328125 15.7 58.328125 17.7 
L 58.328125 60.734375 
Q 58.328125 62.734375 60.328125 62.734375 
z
" style="fill:#ffffff;opacity:0.8;stroke:#cccccc;stroke-linejoin:miter;"/>
    </g>
    <g id="line2d_15">
     <path d="M 62.328125 23.798437 
L 82.328125 23.798437 
" style="fill:none;stroke:#008000;stroke-dasharray:5.55,2.4;stroke-dashoffset:0;stroke-width:1.5;"/>
    </g>
    <g id="line2d_16"/>
    <g id="text_14">
     <!-- Predicted -->
     <defs>
      <path d="M 19.671875 64.796875 
L 19.671875 37.40625 
L 32.078125 37.40625 
Q 38.96875 37.40625 42.71875 40.96875 
Q 46.484375 44.53125 46.484375 51.125 
Q 46.484375 57.671875 42.71875 61.234375 
Q 38.96875 64.796875 32.078125 64.796875 
z
M 9.8125 72.90625 
L 32.078125 72.90625 
Q 44.34375 72.90625 50.609375 67.359375 
Q 56.890625 61.8125 56.890625 51.125 
Q 56.890625 40.328125 50.609375 34.8125 
Q 44.34375 29.296875 32.078125 29.296875 
L 19.671875 29.296875 
L 19.671875 0 
L 9.8125 0 
z
" id="DejaVuSans-50"/>
      <path d="M 41.109375 46.296875 
Q 39.59375 47.171875 37.8125 47.578125 
Q 36.03125 48 33.890625 48 
Q 26.265625 48 22.1875 43.046875 
Q 18.109375 38.09375 18.109375 28.8125 
L 18.109375 0 
L 9.078125 0 
L 9.078125 54.6875 
L 18.109375 54.6875 
L 18.109375 46.1875 
Q 20.953125 51.171875 25.484375 53.578125 
Q 30.03125 56 36.53125 56 
Q 37.453125 56 38.578125 55.875 
Q 39.703125 55.765625 41.0625 55.515625 
z
" id="DejaVuSans-72"/>
      <path d="M 45.40625 46.390625 
L 45.40625 75.984375 
L 54.390625 75.984375 
L 54.390625 0 
L 45.40625 0 
L 45.40625 8.203125 
Q 42.578125 3.328125 38.25 0.953125 
Q 33.9375 -1.421875 27.875 -1.421875 
Q 17.96875 -1.421875 11.734375 6.484375 
Q 5.515625 14.40625 5.515625 27.296875 
Q 5.515625 40.1875 11.734375 48.09375 
Q 17.96875 56 27.875 56 
Q 33.9375 56 38.25 53.625 
Q 42.578125 51.265625 45.40625 46.390625 
z
M 14.796875 27.296875 
Q 14.796875 17.390625 18.875 11.75 
Q 22.953125 6.109375 30.078125 6.109375 
Q 37.203125 6.109375 41.296875 11.75 
Q 45.40625 17.390625 45.40625 27.296875 
Q 45.40625 37.203125 41.296875 42.84375 
Q 37.203125 48.484375 30.078125 48.484375 
Q 22.953125 48.484375 18.875 42.84375 
Q 14.796875 37.203125 14.796875 27.296875 
z
" id="DejaVuSans-64"/>
      <path d="M 48.78125 52.59375 
L 48.78125 44.1875 
Q 44.96875 46.296875 41.140625 47.34375 
Q 37.3125 48.390625 33.40625 48.390625 
Q 24.65625 48.390625 19.8125 42.84375 
Q 14.984375 37.3125 14.984375 27.296875 
Q 14.984375 17.28125 19.8125 11.734375 
Q 24.65625 6.203125 33.40625 6.203125 
Q 37.3125 6.203125 41.140625 7.25 
Q 44.96875 8.296875 48.78125 10.40625 
L 48.78125 2.09375 
Q 45.015625 0.34375 40.984375 -0.53125 
Q 36.96875 -1.421875 32.421875 -1.421875 
Q 20.0625 -1.421875 12.78125 6.34375 
Q 5.515625 14.109375 5.515625 27.296875 
Q 5.515625 40.671875 12.859375 48.328125 
Q 20.21875 56 33.015625 56 
Q 37.15625 56 41.109375 55.140625 
Q 45.0625 54.296875 48.78125 52.59375 
z
" id="DejaVuSans-63"/>
      <path d="M 18.3125 70.21875 
L 18.3125 54.6875 
L 36.8125 54.6875 
L 36.8125 47.703125 
L 18.3125 47.703125 
L 18.3125 18.015625 
Q 18.3125 11.328125 20.140625 9.421875 
Q 21.96875 7.515625 27.59375 7.515625 
L 36.8125 7.515625 
L 36.8125 0 
L 27.59375 0 
Q 17.1875 0 13.234375 3.875 
Q 9.28125 7.765625 9.28125 18.015625 
L 9.28125 47.703125 
L 2.6875 47.703125 
L 2.6875 54.6875 
L 9.28125 54.6875 
L 9.28125 70.21875 
z
" id="DejaVuSans-74"/>
     </defs>
     <g transform="translate(90.328125 27.298437)scale(0.1 -0.1)">
      <use xlink:href="#DejaVuSans-50"/>
      <use x="60.287109" xlink:href="#DejaVuSans-72"/>
      <use x="101.369141" xlink:href="#DejaVuSans-65"/>
      <use x="162.892578" xlink:href="#DejaVuSans-64"/>
      <use x="226.369141" xlink:href="#DejaVuSans-69"/>
      <use x="254.152344" xlink:href="#DejaVuSans-63"/>
      <use x="309.132812" xlink:href="#DejaVuSans-74"/>
      <use x="348.341797" xlink:href="#DejaVuSans-65"/>
      <use x="409.865234" xlink:href="#DejaVuSans-64"/>
     </g>
    </g>
    <g id="line2d_17">
     <path d="M 62.328125 38.476562 
L 82.328125 38.476562 
" style="fill:none;stroke:#ff7f0e;stroke-linecap:square;stroke-width:1.5;"/>
    </g>
    <g id="line2d_18"/>
    <g id="text_15">
     <!-- Real Data -->
     <defs>
      <path d="M 34.28125 27.484375 
Q 23.390625 27.484375 19.1875 25 
Q 14.984375 22.515625 14.984375 16.5 
Q 14.984375 11.71875 18.140625 8.90625 
Q 21.296875 6.109375 26.703125 6.109375 
Q 34.1875 6.109375 38.703125 11.40625 
Q 43.21875 16.703125 43.21875 25.484375 
L 43.21875 27.484375 
z
M 52.203125 31.203125 
L 52.203125 0 
L 43.21875 0 
L 43.21875 8.296875 
Q 40.140625 3.328125 35.546875 0.953125 
Q 30.953125 -1.421875 24.3125 -1.421875 
Q 15.921875 -1.421875 10.953125 3.296875 
Q 6 8.015625 6 15.921875 
Q 6 25.140625 12.171875 29.828125 
Q 18.359375 34.515625 30.609375 34.515625 
L 43.21875 34.515625 
L 43.21875 35.40625 
Q 43.21875 41.609375 39.140625 45 
Q 35.0625 48.390625 27.6875 48.390625 
Q 23 48.390625 18.546875 47.265625 
Q 14.109375 46.140625 10.015625 43.890625 
L 10.015625 52.203125 
Q 14.9375 54.109375 19.578125 55.046875 
Q 24.21875 56 28.609375 56 
Q 40.484375 56 46.34375 49.84375 
Q 52.203125 43.703125 52.203125 31.203125 
z
" id="DejaVuSans-61"/>
      <path d="M 9.421875 75.984375 
L 18.40625 75.984375 
L 18.40625 0 
L 9.421875 0 
z
" id="DejaVuSans-6c"/>
      <path id="DejaVuSans-20"/>
      <path d="M 19.671875 64.796875 
L 19.671875 8.109375 
L 31.59375 8.109375 
Q 46.6875 8.109375 53.6875 14.9375 
Q 60.6875 21.78125 60.6875 36.53125 
Q 60.6875 51.171875 53.6875 57.984375 
Q 46.6875 64.796875 31.59375 64.796875 
z
M 9.8125 72.90625 
L 30.078125 72.90625 
Q 51.265625 72.90625 61.171875 64.09375 
Q 71.09375 55.28125 71.09375 36.53125 
Q 71.09375 17.671875 61.125 8.828125 
Q 51.171875 0 30.078125 0 
L 9.8125 0 
z
" id="DejaVuSans-44"/>
     </defs>
     <g transform="translate(90.328125 41.976562)scale(0.1 -0.1)">
      <use xlink:href="#DejaVuSans-52"/>
      <use x="69.419922" xlink:href="#DejaVuSans-65"/>
      <use x="130.943359" xlink:href="#DejaVuSans-61"/>
      <use x="192.222656" xlink:href="#DejaVuSans-6c"/>
      <use x="220.005859" xlink:href="#DejaVuSans-20"/>
      <use x="251.792969" xlink:href="#DejaVuSans-44"/>
      <use x="328.794922" xlink:href="#DejaVuSans-61"/>
      <use x="390.074219" xlink:href="#DejaVuSans-74"/>
      <use x="429.283203" xlink:href="#DejaVuSans-61"/>
     </g>
    </g>
    <g id="line2d_19"/>
    <g id="line2d_20">
     <g>
      <use style="fill:#008000;stroke:#008000;" x="72.328125" xlink:href="#m98229bd2b7" y="53.154688"/>
     </g>
    </g>
    <g id="text_16">
     <!-- Start Point for Forecast -->
     <defs>
      <path d="M 53.515625 70.515625 
L 53.515625 60.890625 
Q 47.90625 63.578125 42.921875 64.890625 
Q 37.9375 66.21875 33.296875 66.21875 
Q 25.25 66.21875 20.875 63.09375 
Q 16.5 59.96875 16.5 54.203125 
Q 16.5 49.359375 19.40625 46.890625 
Q 22.3125 44.4375 30.421875 42.921875 
L 36.375 41.703125 
Q 47.40625 39.59375 52.65625 34.296875 
Q 57.90625 29 57.90625 20.125 
Q 57.90625 9.515625 50.796875 4.046875 
Q 43.703125 -1.421875 29.984375 -1.421875 
Q 24.8125 -1.421875 18.96875 -0.25 
Q 13.140625 0.921875 6.890625 3.21875 
L 6.890625 13.375 
Q 12.890625 10.015625 18.65625 8.296875 
Q 24.421875 6.59375 29.984375 6.59375 
Q 38.421875 6.59375 43.015625 9.90625 
Q 47.609375 13.234375 47.609375 19.390625 
Q 47.609375 24.75 44.3125 27.78125 
Q 41.015625 30.8125 33.5 32.328125 
L 27.484375 33.5 
Q 16.453125 35.6875 11.515625 40.375 
Q 6.59375 45.0625 6.59375 53.421875 
Q 6.59375 63.09375 13.40625 68.65625 
Q 20.21875 74.21875 32.171875 74.21875 
Q 37.3125 74.21875 42.625 73.28125 
Q 47.953125 72.359375 53.515625 70.515625 
z
" id="DejaVuSans-53"/>
      <path d="M 30.609375 48.390625 
Q 23.390625 48.390625 19.1875 42.75 
Q 14.984375 37.109375 14.984375 27.296875 
Q 14.984375 17.484375 19.15625 11.84375 
Q 23.34375 6.203125 30.609375 6.203125 
Q 37.796875 6.203125 41.984375 11.859375 
Q 46.1875 17.53125 46.1875 27.296875 
Q 46.1875 37.015625 41.984375 42.703125 
Q 37.796875 48.390625 30.609375 48.390625 
z
M 30.609375 56 
Q 42.328125 56 49.015625 48.375 
Q 55.71875 40.765625 55.71875 27.296875 
Q 55.71875 13.875 49.015625 6.21875 
Q 42.328125 -1.421875 30.609375 -1.421875 
Q 18.84375 -1.421875 12.171875 6.21875 
Q 5.515625 13.875 5.515625 27.296875 
Q 5.515625 40.765625 12.171875 48.375 
Q 18.84375 56 30.609375 56 
z
" id="DejaVuSans-6f"/>
      <path d="M 54.890625 33.015625 
L 54.890625 0 
L 45.90625 0 
L 45.90625 32.71875 
Q 45.90625 40.484375 42.875 44.328125 
Q 39.84375 48.1875 33.796875 48.1875 
Q 26.515625 48.1875 22.3125 43.546875 
Q 18.109375 38.921875 18.109375 30.90625 
L 18.109375 0 
L 9.078125 0 
L 9.078125 54.6875 
L 18.109375 54.6875 
L 18.109375 46.1875 
Q 21.34375 51.125 25.703125 53.5625 
Q 30.078125 56 35.796875 56 
Q 45.21875 56 50.046875 50.171875 
Q 54.890625 44.34375 54.890625 33.015625 
z
" id="DejaVuSans-6e"/>
      <path d="M 9.8125 72.90625 
L 51.703125 72.90625 
L 51.703125 64.59375 
L 19.671875 64.59375 
L 19.671875 43.109375 
L 48.578125 43.109375 
L 48.578125 34.8125 
L 19.671875 34.8125 
L 19.671875 0 
L 9.8125 0 
z
" id="DejaVuSans-46"/>
     </defs>
     <g transform="translate(90.328125 56.654688)scale(0.1 -0.1)">
      <use xlink:href="#DejaVuSans-53"/>
      <use x="63.476562" xlink:href="#DejaVuSans-74"/>
      <use x="102.685547" xlink:href="#DejaVuSans-61"/>
      <use x="163.964844" xlink:href="#DejaVuSans-72"/>
      <use x="205.078125" xlink:href="#DejaVuSans-74"/>
      <use x="244.287109" xlink:href="#DejaVuSans-20"/>
      <use x="276.074219" xlink:href="#DejaVuSans-50"/>
      <use x="336.330078" xlink:href="#DejaVuSans-6f"/>
      <use x="397.511719" xlink:href="#DejaVuSans-69"/>
      <use x="425.294922" xlink:href="#DejaVuSans-6e"/>
      <use x="488.673828" xlink:href="#DejaVuSans-74"/>
      <use x="527.882812" xlink:href="#DejaVuSans-20"/>
      <use x="559.669922" xlink:href="#DejaVuSans-66"/>
      <use x="594.875" xlink:href="#DejaVuSans-6f"/>
      <use x="656.056641" xlink:href="#DejaVuSans-72"/>
      <use x="697.169922" xlink:href="#DejaVuSans-20"/>
      <use x="728.957031" xlink:href="#DejaVuSans-46"/>
      <use x="786.429688" xlink:href="#DejaVuSans-6f"/>
      <use x="847.611328" xlink:href="#DejaVuSans-72"/>
      <use x="888.693359" xlink:href="#DejaVuSans-65"/>
      <use x="950.216797" xlink:href="#DejaVuSans-63"/>
      <use x="1005.197266" xlink:href="#DejaVuSans-61"/>
      <use x="1066.476562" xlink:href="#DejaVuSans-73"/>
      <use x="1118.576172" xlink:href="#DejaVuSans-74"/>
     </g>
    </g>
   </g>
  </g>
  <g id="axes_2">
   <g id="patch_8">
    <path d="M 53.328125 645.74 
L 1170.768125 645.74 
L 1170.768125 516.14 
L 53.328125 516.14 
z
" style="fill:none;"/>
   </g>
   <g id="matplotlib.axis_3">
    <g id="xtick_6">
     <g id="line2d_21">
      <g>
       <use style="stroke:#000000;stroke-width:0.8;" x="104.120852" xlink:href="#m02c54f4663" y="645.74"/>
      </g>
     </g>
     <g id="text_17">
      <!-- 0 -->
      <g transform="translate(100.939602 660.338437)scale(0.1 -0.1)">
       <use xlink:href="#DejaVuSans-30"/>
      </g>
     </g>
    </g>
    <g id="xtick_7">
     <g id="line2d_22">
      <g>
       <use style="stroke:#000000;stroke-width:0.8;" x="228.612831" xlink:href="#m02c54f4663" y="645.74"/>
      </g>
     </g>
     <g id="text_18">
      <!-- 25 -->
      <g transform="translate(222.250331 660.338437)scale(0.1 -0.1)">
       <use xlink:href="#DejaVuSans-32"/>
       <use x="63.623047" xlink:href="#DejaVuSans-35"/>
      </g>
     </g>
    </g>
    <g id="xtick_8">
     <g id="line2d_23">
      <g>
       <use style="stroke:#000000;stroke-width:0.8;" x="353.104809" xlink:href="#m02c54f4663" y="645.74"/>
      </g>
     </g>
     <g id="text_19">
      <!-- 50 -->
      <g transform="translate(346.742309 660.338437)scale(0.1 -0.1)">
       <use xlink:href="#DejaVuSans-35"/>
       <use x="63.623047" xlink:href="#DejaVuSans-30"/>
      </g>
     </g>
    </g>
    <g id="xtick_9">
     <g id="line2d_24">
      <g>
       <use style="stroke:#000000;stroke-width:0.8;" x="477.596788" xlink:href="#m02c54f4663" y="645.74"/>
      </g>
     </g>
     <g id="text_20">
      <!-- 75 -->
      <defs>
       <path d="M 8.203125 72.90625 
L 55.078125 72.90625 
L 55.078125 68.703125 
L 28.609375 0 
L 18.3125 0 
L 43.21875 64.59375 
L 8.203125 64.59375 
z
" id="DejaVuSans-37"/>
      </defs>
      <g transform="translate(471.234288 660.338437)scale(0.1 -0.1)">
       <use xlink:href="#DejaVuSans-37"/>
       <use x="63.623047" xlink:href="#DejaVuSans-35"/>
      </g>
     </g>
    </g>
    <g id="xtick_10">
     <g id="line2d_25">
      <g>
       <use style="stroke:#000000;stroke-width:0.8;" x="602.088767" xlink:href="#m02c54f4663" y="645.74"/>
      </g>
     </g>
     <g id="text_21">
      <!-- 100 -->
      <g transform="translate(592.545017 660.338437)scale(0.1 -0.1)">
       <use xlink:href="#DejaVuSans-31"/>
       <use x="63.623047" xlink:href="#DejaVuSans-30"/>
       <use x="127.246094" xlink:href="#DejaVuSans-30"/>
      </g>
     </g>
    </g>
    <g id="xtick_11">
     <g id="line2d_26">
      <g>
       <use style="stroke:#000000;stroke-width:0.8;" x="726.580745" xlink:href="#m02c54f4663" y="645.74"/>
      </g>
     </g>
     <g id="text_22">
      <!-- 125 -->
      <g transform="translate(717.036995 660.338437)scale(0.1 -0.1)">
       <use xlink:href="#DejaVuSans-31"/>
       <use x="63.623047" xlink:href="#DejaVuSans-32"/>
       <use x="127.246094" xlink:href="#DejaVuSans-35"/>
      </g>
     </g>
    </g>
    <g id="xtick_12">
     <g id="line2d_27">
      <g>
       <use style="stroke:#000000;stroke-width:0.8;" x="851.072724" xlink:href="#m02c54f4663" y="645.74"/>
      </g>
     </g>
     <g id="text_23">
      <!-- 150 -->
      <g transform="translate(841.528974 660.338437)scale(0.1 -0.1)">
       <use xlink:href="#DejaVuSans-31"/>
       <use x="63.623047" xlink:href="#DejaVuSans-35"/>
       <use x="127.246094" xlink:href="#DejaVuSans-30"/>
      </g>
     </g>
    </g>
    <g id="xtick_13">
     <g id="line2d_28">
      <g>
       <use style="stroke:#000000;stroke-width:0.8;" x="975.564703" xlink:href="#m02c54f4663" y="645.74"/>
      </g>
     </g>
     <g id="text_24">
      <!-- 175 -->
      <g transform="translate(966.020953 660.338437)scale(0.1 -0.1)">
       <use xlink:href="#DejaVuSans-31"/>
       <use x="63.623047" xlink:href="#DejaVuSans-37"/>
       <use x="127.246094" xlink:href="#DejaVuSans-35"/>
      </g>
     </g>
    </g>
    <g id="xtick_14">
     <g id="line2d_29">
      <g>
       <use style="stroke:#000000;stroke-width:0.8;" x="1100.056681" xlink:href="#m02c54f4663" y="645.74"/>
      </g>
     </g>
     <g id="text_25">
      <!-- 200 -->
      <g transform="translate(1090.512931 660.338437)scale(0.1 -0.1)">
       <use xlink:href="#DejaVuSans-32"/>
       <use x="63.623047" xlink:href="#DejaVuSans-30"/>
       <use x="127.246094" xlink:href="#DejaVuSans-30"/>
      </g>
     </g>
    </g>
   </g>
   <g id="matplotlib.axis_4">
    <g id="ytick_7">
     <g id="line2d_30">
      <g>
       <use style="stroke:#000000;stroke-width:0.8;" x="53.328125" xlink:href="#me45b6b9e10" y="619.753853"/>
      </g>
     </g>
     <g id="text_26">
      <!-- 10 -->
      <g transform="translate(33.603125 623.553072)scale(0.1 -0.1)">
       <use xlink:href="#DejaVuSans-31"/>
       <use x="63.623047" xlink:href="#DejaVuSans-30"/>
      </g>
     </g>
    </g>
    <g id="ytick_8">
     <g id="line2d_31">
      <g>
       <use style="stroke:#000000;stroke-width:0.8;" x="53.328125" xlink:href="#me45b6b9e10" y="577.809255"/>
      </g>
     </g>
     <g id="text_27">
      <!-- 20 -->
      <g transform="translate(33.603125 581.608474)scale(0.1 -0.1)">
       <use xlink:href="#DejaVuSans-32"/>
       <use x="63.623047" xlink:href="#DejaVuSans-30"/>
      </g>
     </g>
    </g>
    <g id="ytick_9">
     <g id="line2d_32">
      <g>
       <use style="stroke:#000000;stroke-width:0.8;" x="53.328125" xlink:href="#me45b6b9e10" y="535.864657"/>
      </g>
     </g>
     <g id="text_28">
      <!-- 30 -->
      <defs>
       <path d="M 40.578125 39.3125 
Q 47.65625 37.796875 51.625 33 
Q 55.609375 28.21875 55.609375 21.1875 
Q 55.609375 10.40625 48.1875 4.484375 
Q 40.765625 -1.421875 27.09375 -1.421875 
Q 22.515625 -1.421875 17.65625 -0.515625 
Q 12.796875 0.390625 7.625 2.203125 
L 7.625 11.71875 
Q 11.71875 9.328125 16.59375 8.109375 
Q 21.484375 6.890625 26.8125 6.890625 
Q 36.078125 6.890625 40.9375 10.546875 
Q 45.796875 14.203125 45.796875 21.1875 
Q 45.796875 27.640625 41.28125 31.265625 
Q 36.765625 34.90625 28.71875 34.90625 
L 20.21875 34.90625 
L 20.21875 43.015625 
L 29.109375 43.015625 
Q 36.375 43.015625 40.234375 45.921875 
Q 44.09375 48.828125 44.09375 54.296875 
Q 44.09375 59.90625 40.109375 62.90625 
Q 36.140625 65.921875 28.71875 65.921875 
Q 24.65625 65.921875 20.015625 65.03125 
Q 15.375 64.15625 9.8125 62.3125 
L 9.8125 71.09375 
Q 15.4375 72.65625 20.34375 73.4375 
Q 25.25 74.21875 29.59375 74.21875 
Q 40.828125 74.21875 47.359375 69.109375 
Q 53.90625 64.015625 53.90625 55.328125 
Q 53.90625 49.265625 50.4375 45.09375 
Q 46.96875 40.921875 40.578125 39.3125 
z
" id="DejaVuSans-33"/>
      </defs>
      <g transform="translate(33.603125 539.663876)scale(0.1 -0.1)">
       <use xlink:href="#DejaVuSans-33"/>
       <use x="63.623047" xlink:href="#DejaVuSans-30"/>
      </g>
     </g>
    </g>
    <g id="text_29">
     <!-- Temperature -->
     <defs>
      <path d="M 18.109375 8.203125 
L 18.109375 -20.796875 
L 9.078125 -20.796875 
L 9.078125 54.6875 
L 18.109375 54.6875 
L 18.109375 46.390625 
Q 20.953125 51.265625 25.265625 53.625 
Q 29.59375 56 35.59375 56 
Q 45.5625 56 51.78125 48.09375 
Q 58.015625 40.1875 58.015625 27.296875 
Q 58.015625 14.40625 51.78125 6.484375 
Q 45.5625 -1.421875 35.59375 -1.421875 
Q 29.59375 -1.421875 25.265625 0.953125 
Q 20.953125 3.328125 18.109375 8.203125 
z
M 48.6875 27.296875 
Q 48.6875 37.203125 44.609375 42.84375 
Q 40.53125 48.484375 33.40625 48.484375 
Q 26.265625 48.484375 22.1875 42.84375 
Q 18.109375 37.203125 18.109375 27.296875 
Q 18.109375 17.390625 22.1875 11.75 
Q 26.265625 6.109375 33.40625 6.109375 
Q 40.53125 6.109375 44.609375 11.75 
Q 48.6875 17.390625 48.6875 27.296875 
z
" id="DejaVuSans-70"/>
     </defs>
     <g style="fill:#0000ff;" transform="translate(27.523437 613.557187)rotate(-90)scale(0.1 -0.1)">
      <use xlink:href="#DejaVuSans-54"/>
      <use x="60.818359" xlink:href="#DejaVuSans-65"/>
      <use x="122.341797" xlink:href="#DejaVuSans-6d"/>
      <use x="219.753906" xlink:href="#DejaVuSans-70"/>
      <use x="283.230469" xlink:href="#DejaVuSans-65"/>
      <use x="344.753906" xlink:href="#DejaVuSans-72"/>
      <use x="385.867188" xlink:href="#DejaVuSans-61"/>
      <use x="447.146484" xlink:href="#DejaVuSans-74"/>
      <use x="486.355469" xlink:href="#DejaVuSans-75"/>
      <use x="549.734375" xlink:href="#DejaVuSans-72"/>
      <use x="590.816406" xlink:href="#DejaVuSans-65"/>
     </g>
    </g>
   </g>
   <g id="line2d_33">
    <path clip-path="url(#pe67472b310)" d="M 104.120852 534.78752 
L 109.100531 531.307796 
L 114.080211 537.00597 
L 119.05989 541.574575 
L 124.039569 548.244605 
L 129.019248 560.040685 
L 138.978606 545.836566 
L 143.958285 539.538165 
L 148.937965 531.078359 
L 153.917644 527.368359 
L 158.897323 530.940781 
L 163.877002 526.13351 
L 168.856681 529.557448 
L 173.83636 531.34219 
L 178.816039 543.223417 
L 183.795719 550.930737 
L 188.775398 559.148523 
L 193.755077 560.668176 
L 198.734756 550.369099 
L 203.714435 546.678813 
L 208.694114 533.671374 
L 213.673793 530.06288 
L 218.653473 526.705215 
L 223.633152 527.99627 
L 228.612831 527.172478 
L 233.59251 534.102145 
L 238.572189 538.825526 
L 243.551868 547.628858 
L 248.531547 558.312148 
L 253.511227 555.257323 
L 258.490906 555.677188 
L 263.470585 542.780902 
L 268.450264 530.217236 
L 273.429943 523.93813 
L 278.409622 526.802527 
L 283.389301 529.393444 
L 288.368981 527.818844 
L 293.34866 533.831183 
L 298.328339 537.193881 
L 303.308018 549.411923 
L 308.287697 557.894379 
L 313.267376 557.430892 
L 318.247055 549.696308 
L 323.226735 541.72977 
L 328.206414 533.458715 
L 333.186093 522.030909 
L 338.165772 526.92836 
L 343.145451 530.217236 
L 348.12513 529.437067 
L 353.104809 533.749391 
L 358.084489 538.495422 
L 363.064168 545.607548 
L 368.043847 557.388947 
L 373.023526 562.526321 
L 378.003205 554.967905 
L 382.982884 540.881231 
L 387.962564 538.214393 
L 392.942243 530.82753 
L 397.921922 528.211026 
L 402.901601 527.302087 
L 407.88128 526.816368 
L 412.860959 533.172653 
L 417.840638 536.580651 
L 422.820318 547.008498 
L 427.799997 557.175868 
L 432.779676 553.168901 
L 437.759355 554.094199 
L 442.739034 543.285076 
L 447.718713 531.226423 
L 452.698392 527.328512 
L 457.678072 522.587094 
L 462.657751 526.599515 
L 467.63743 528.85907 
L 472.617109 527.865403 
L 477.596788 539.151855 
L 482.576467 544.683928 
L 487.556146 553.699081 
L 492.535826 552.113155 
L 497.515505 546.709433 
L 502.495184 538.752543 
L 507.474863 526.795396 
L 512.454542 525.834026 
L 517.434221 525.017364 
L 522.4139 527.799969 
L 527.39358 529.405608 
L 532.373259 531.444535 
L 537.352938 536.667477 
L 542.332617 545.990502 
L 547.312296 557.077299 
L 552.291975 562.460049 
L 557.271654 550.460538 
L 562.251334 539.601501 
L 567.231013 534.064814 
L 572.210692 527.715241 
L 577.190371 525.561386 
L 582.17005 528.598175 
L 587.149729 529.392606 
L 592.129408 532.003237 
L 597.109088 537.041203 
L 602.088767 546.949775 
L 607.068446 552.713383 
L 612.048125 556.863381 
L 617.027804 545.461162 
L 622.007483 540.943309 
L 626.987162 530.137122 
L 631.966842 525.705256 
L 636.946521 525.654083 
L 641.9262 531.633286 
L 646.905879 529.735293 
L 651.885558 536.495084 
L 656.865237 539.484476 
L 661.844916 547.611661 
L 666.824596 554.265752 
L 671.804275 554.121463 
L 676.783954 545.290447 
L 681.763633 540.361957 
L 686.743312 530.588446 
L 691.722991 524.060189 
L 696.70267 524.758147 
L 701.68235 523.230105 
L 706.662029 524.601694 
L 711.641708 532.492311 
L 716.621387 537.47491 
L 721.601066 548.336883 
L 726.580745 558.713557 
L 731.560424 561.986494 
L 736.540104 560.932846 
L 741.519783 544.90204 
L 746.499462 535.951902 
L 751.479141 524.516965 
L 756.45882 522.543053 
L 761.438499 532.679384 
L 766.418178 528.23116 
L 771.397858 533.78798 
L 776.377537 538.02019 
L 781.357216 546.937611 
L 786.336895 554.548878 
L 791.316574 555.215797 
L 796.296253 550.182865 
L 801.275932 536.910755 
L 806.255612 525.436391 
L 811.235291 522.063626 
L 816.21497 523.530009 
L 821.194649 529.428258 
L 826.174328 525.934693 
L 831.154007 529.413158 
L 836.133686 537.11167 
L 841.113366 547.157821 
L 846.093045 556.824792 
L 851.072724 553.408824 
L 856.052403 553.295154 
L 861.032082 539.339348 
L 866.011761 531.258721 
L 870.991441 524.874753 
L 875.97112 525.108804 
L 880.950799 529.119966 
L 885.930478 529.026849 
L 890.910157 531.27424 
L 895.889836 534.662944 
L 900.869515 547.352863 
L 905.849195 551.980191 
L 910.828874 557.548756 
L 915.808553 546.263142 
L 920.788232 541.407636 
L 925.767911 530.460934 
L 930.74759 527.330609 
L 935.727269 525.619689 
L 940.706949 530.007513 
L 945.686628 528.594819 
L 950.666307 536.623435 
L 955.645986 537.977826 
L 960.625665 551.3678 
L 965.605344 556.938043 
L 970.585023 556.56935 
L 975.564703 544.97041 
L 980.544382 539.621215 
L 985.524061 530.617807 
L 990.50374 529.988638 
L 995.483419 527.825136 
L 1000.463098 527.788225 
L 1005.442777 527.323478 
L 1010.422457 535.280369 
L 1015.402136 537.85367 
L 1020.381815 552.012069 
L 1025.361494 554.967905 
L 1030.341173 559.016397 
L 1035.320852 552.459198 
L 1040.300531 546.949775 
L 1045.280211 532.790537 
L 1050.25989 529.419031 
L 1055.239569 529.165685 
L 1060.219248 527.634707 
L 1065.198927 524.069836 
L 1070.178606 530.433251 
L 1075.158285 536.011044 
L 1085.117644 552.625718 
L 1090.097323 558.129689 
L 1095.077002 547.25639 
L 1100.056681 540.244931 
L 1105.03636 531.196223 
L 1110.016039 525.24009 
L 1114.995719 526.438867 
L 1119.975398 526.003901 
L 1119.975398 526.003901 
" style="fill:none;stroke:#ff0000;stroke-linecap:square;stroke-width:1.5;"/>
   </g>
   <g id="line2d_34">
    <path clip-path="url(#pe67472b310)" d="M 104.120852 555.587427 
L 109.100531 553.476774 
L 114.080211 557.814265 
L 119.05989 566.754337 
L 124.039569 576.755607 
L 129.019248 589.146041 
L 133.998927 585.188988 
L 143.958285 569.91654 
L 148.937965 561.490709 
L 153.917644 554.015343 
L 158.897323 553.619805 
L 163.877002 551.181146 
L 168.856681 555.305978 
L 173.83636 555.292556 
L 178.816039 566.649895 
L 188.775398 586.879775 
L 193.755077 588.711915 
L 198.734756 579.06214 
L 203.714435 575.592064 
L 208.694114 562.109392 
L 213.673793 556.496785 
L 218.653473 552.649627 
L 223.633152 552.910942 
L 228.612831 551.917274 
L 233.59251 557.493809 
L 238.572189 564.636135 
L 243.551868 573.643737 
L 248.531547 584.080392 
L 253.511227 585.62647 
L 258.490906 584.948645 
L 263.470585 572.078365 
L 268.450264 559.554966 
L 273.429943 552.414737 
L 278.409622 551.794796 
L 283.389301 552.333365 
L 288.368981 552.56364 
L 293.34866 556.813467 
L 298.328339 561.994883 
L 303.308018 576.531203 
L 308.287697 584.893698 
L 313.267376 586.068147 
L 318.247055 578.483305 
L 323.226735 571.365726 
L 328.206414 561.575437 
L 333.186093 550.474799 
L 338.165772 551.355217 
L 343.145451 553.643714 
L 348.12513 553.136184 
L 353.104809 556.586547 
L 358.084489 561.980622 
L 363.064168 571.82418 
L 368.043847 588.430047 
L 373.023526 588.319733 
L 378.003205 584.715433 
L 382.982884 567.462362 
L 387.962564 565.354226 
L 392.942243 556.592419 
L 397.921922 553.507394 
L 402.901601 551.770049 
L 407.88128 552.195786 
L 412.860959 557.476611 
L 417.840638 561.503712 
L 422.820318 575.452808 
L 427.799997 585.181018 
L 432.779676 580.359487 
L 437.759355 580.365778 
L 442.739034 572.079204 
L 447.718713 561.417306 
L 452.698392 555.438943 
L 457.678072 548.408609 
L 467.63743 551.871974 
L 472.617109 553.416374 
L 477.596788 564.511559 
L 487.556146 582.306136 
L 492.535826 582.793951 
L 497.515505 578.260579 
L 502.495184 569.880468 
L 507.474863 558.005533 
L 512.454542 554.57027 
L 517.434221 551.402614 
L 522.4139 551.680707 
L 527.39358 552.603907 
L 532.373259 556.315585 
L 537.352938 562.316179 
L 542.332617 574.155881 
L 547.312296 583.998181 
L 552.291975 588.193899 
L 557.271654 580.799486 
L 562.251334 570.75669 
L 567.231013 563.939854 
L 572.210692 556.181362 
L 577.190371 551.687837 
L 582.17005 553.58625 
L 587.149729 554.155018 
L 592.129408 556.069789 
L 597.109088 564.105955 
L 602.088767 574.975898 
L 607.068446 580.9249 
L 612.048125 586.029138 
L 617.027804 578.208568 
L 622.007483 572.61987 
L 626.987162 561.104819 
L 631.966842 554.247297 
L 636.946521 551.919791 
L 641.9262 555.36554 
L 646.905879 554.32028 
L 651.885558 559.588522 
L 656.865237 565.688105 
L 661.844916 576.67717 
L 666.824596 583.989792 
L 671.804275 583.479745 
L 681.763633 571.379148 
L 686.743312 562.017114 
L 691.722991 553.240207 
L 696.70267 550.476477 
L 701.68235 549.503782 
L 706.662029 550.386716 
L 711.641708 556.690989 
L 716.621387 562.509124 
L 721.601066 576.020738 
L 726.580745 584.485157 
L 731.560424 589.038244 
L 736.540104 586.566448 
L 741.519783 575.209948 
L 746.499462 563.489369 
L 751.479141 553.652942 
L 756.45882 549.315451 
L 761.438499 554.965808 
L 766.418178 552.532601 
L 771.397858 557.722826 
L 776.377537 566.700648 
L 781.357216 577.794155 
L 786.336895 587.398629 
L 791.316574 586.231311 
L 796.296253 582.918107 
L 801.275932 568.729927 
L 806.255612 556.95524 
L 811.235291 552.091764 
L 816.21497 550.101493 
L 821.194649 553.304801 
L 826.174328 550.77722 
L 831.154007 555.265292 
L 836.133686 564.568604 
L 841.113366 575.671339 
L 846.093045 585.796765 
L 851.072724 583.417248 
L 856.052403 580.76551 
L 861.032082 569.419916 
L 866.011761 561.398012 
L 870.991441 552.078761 
L 875.97112 551.086771 
L 880.950799 553.160093 
L 885.930478 552.674794 
L 890.910157 556.16752 
L 895.889836 561.698335 
L 900.869515 573.608923 
L 905.849195 579.924102 
L 910.828874 583.852633 
L 915.808553 577.150725 
L 920.788232 572.510394 
L 925.767911 561.61864 
L 930.74759 556.255185 
L 935.727269 551.857293 
L 940.706949 554.839554 
L 945.686628 554.523712 
L 950.666307 559.208504 
L 955.645986 562.861878 
L 960.625665 575.5044 
L 965.605344 582.496983 
L 970.585023 586.294228 
L 975.564703 575.704056 
L 980.544382 570.300333 
L 985.524061 561.032674 
L 990.50374 557.669137 
L 995.483419 552.63956 
L 1000.463098 553.312771 
L 1005.442777 552.885775 
L 1010.422457 558.688391 
L 1015.402136 563.173527 
L 1020.381815 578.793695 
L 1025.361494 582.165202 
L 1030.341173 586.246831 
L 1035.320852 581.438302 
L 1040.300531 574.590427 
L 1045.280211 560.585964 
L 1055.239569 553.452446 
L 1065.198927 550.632931 
L 1070.178606 554.448211 
L 1075.158285 560.287319 
L 1080.137965 569.253396 
L 1085.117644 577.839875 
L 1090.097323 587.008125 
L 1095.077002 578.142295 
L 1100.056681 568.890575 
L 1105.03636 560.300741 
L 1110.016039 553.756545 
L 1119.975398 551.298591 
L 1119.975398 551.298591 
" style="fill:none;stroke:#008000;stroke-linecap:square;stroke-width:1.5;"/>
   </g>
   <g id="line2d_35">
    <path clip-path="url(#pe67472b310)" d="M 104.120852 575.480491 
L 109.100531 574.097997 
L 114.080211 577.969064 
L 119.05989 591.515911 
L 124.039569 605.683118 
L 129.019248 615.461663 
L 133.998927 614.848852 
L 138.978606 608.65741 
L 143.958285 600.559586 
L 148.937965 593.185306 
L 153.917644 582.420225 
L 158.897323 575.972921 
L 163.877002 576.870116 
L 168.856681 576.828171 
L 173.83636 578.680025 
L 178.816039 589.527737 
L 183.795719 600.946734 
L 188.775398 612.811603 
L 193.755077 614.565307 
L 198.734756 606.812267 
L 203.714435 605.548476 
L 208.694114 590.474427 
L 213.673793 582.514181 
L 218.653473 576.407467 
L 223.633152 576.346228 
L 228.612831 573.592565 
L 233.59251 579.519336 
L 238.572189 590.565027 
L 243.551868 600.70765 
L 248.531547 609.805853 
L 253.511227 614.137891 
L 258.490906 612.135037 
L 263.470585 603.105623 
L 268.450264 590.213531 
L 273.429943 581.588883 
L 278.409622 575.272446 
L 283.389301 572.995693 
L 288.368981 575.526211 
L 293.34866 577.492993 
L 298.328339 583.804397 
L 303.308018 601.514664 
L 308.287697 611.61744 
L 313.267376 612.536866 
L 318.247055 605.254445 
L 323.226735 602.024711 
L 328.206414 591.216846 
L 333.186093 580.833041 
L 338.165772 574.926403 
L 343.145451 576.807199 
L 348.12513 576.013607 
L 353.104809 574.973381 
L 358.084489 585.344183 
L 363.064168 599.053775 
L 368.043847 618.876792 
L 373.023526 611.843522 
L 378.003205 614.23688 
L 382.982884 595.016188 
L 387.962564 593.224734 
L 392.942243 582.797307 
L 397.921922 576.696046 
L 402.901601 575.339138 
L 407.88128 576.240108 
L 412.860959 579.353655 
L 417.840638 585.196118 
L 422.820318 603.754506 
L 427.799997 612.007944 
L 432.779676 606.138217 
L 437.759355 606.001059 
L 442.739034 602.732316 
L 447.718713 593.28094 
L 452.698392 584.968779 
L 457.678072 574.880264 
L 462.657751 571.114897 
L 467.63743 572.722214 
L 472.617109 576.804263 
L 477.596788 587.688466 
L 482.576467 601.791499 
L 487.556146 610.965202 
L 492.535826 612.325465 
L 497.515505 608.784502 
L 502.495184 600.230321 
L 507.474863 590.028556 
L 512.454542 582.195821 
L 517.434221 576.069813 
L 522.4139 573.571173 
L 527.39358 573.244425 
L 532.373259 576.618867 
L 537.352938 583.667657 
L 542.332617 600.597755 
L 547.312296 609.779008 
L 552.291975 612.605655 
L 557.271654 609.758036 
L 562.251334 601.274322 
L 567.231013 593.97722 
L 572.210692 584.473832 
L 577.190371 576.585312 
L 582.17005 574.556871 
L 587.149729 574.912142 
L 592.129408 578.018559 
L 597.109088 589.961864 
L 602.088767 602.581735 
L 607.068446 608.307173 
L 612.048125 615.190281 
L 617.027804 609.365435 
L 622.007483 605.1521 
L 626.987162 592.369064 
L 631.966842 582.902588 
L 636.946521 576.202777 
L 641.9262 575.927201 
L 646.905879 575.24644 
L 651.885558 578.924562 
L 656.865237 589.629662 
L 661.844916 605.31065 
L 666.824596 612.747008 
L 671.804275 612.87452 
L 676.783954 609.259734 
L 681.763633 602.308256 
L 686.743312 594.242729 
L 691.722991 581.647186 
L 696.70267 576.154121 
L 701.68235 570.067541 
L 706.662029 575.277479 
L 711.641708 577.297112 
L 716.621387 584.637416 
L 721.601066 602.66101 
L 726.580745 609.305035 
L 731.560424 613.273413 
L 736.540104 611.597307 
L 741.519783 605.852155 
L 746.499462 590.232826 
L 751.479141 582.834218 
L 756.45882 575.092504 
L 761.438499 573.950352 
L 766.418178 572.646714 
L 771.397858 576.937646 
L 776.377537 594.288449 
L 781.357216 607.238844 
L 786.336895 617.919197 
L 791.316574 616.928885 
L 796.296253 613.301935 
L 801.275932 601.073827 
L 806.255612 587.778647 
L 811.235291 581.707586 
L 816.21497 575.883998 
L 821.194649 573.973422 
L 826.174328 573.14166 
L 831.154007 578.535316 
L 841.113366 603.242782 
L 846.093045 612.812022 
L 851.072724 611.944189 
L 861.032082 599.919931 
L 866.011761 593.375734 
L 870.991441 581.586366 
L 875.97112 575.669242 
L 880.950799 575.254829 
L 885.930478 574.070314 
L 890.910157 578.29791 
L 895.889836 588.544556 
L 900.869515 600.355316 
L 905.849195 607.848718 
L 910.828874 610.285699 
L 915.808553 607.364677 
L 920.788232 603.876565 
L 925.767911 592.905536 
L 935.727269 576.029965 
L 940.706949 576.304283 
L 945.686628 576.721632 
L 950.666307 578.028206 
L 955.645986 586.410414 
L 960.625665 597.439747 
L 965.605344 607.034573 
L 970.585023 614.527976 
L 975.564703 606.426377 
L 980.544382 599.914897 
L 985.524061 591.686206 
L 990.50374 585.112649 
L 995.483419 574.704097 
L 1000.463098 575.493074 
L 1005.442777 576.613415 
L 1010.422457 577.963192 
L 1015.402136 586.869288 
L 1020.381815 603.972618 
L 1025.361494 607.850396 
L 1030.341173 610.713115 
L 1035.320852 608.783663 
L 1040.300531 600.100292 
L 1045.280211 587.787036 
L 1050.25989 583.270022 
L 1055.239569 576.282052 
L 1060.219248 575.214982 
L 1065.198927 574.471724 
L 1070.178606 576.896121 
L 1075.158285 582.596392 
L 1080.137965 592.57669 
L 1085.117644 603.338835 
L 1090.097323 614.513715 
L 1095.077002 609.486235 
L 1100.056681 598.363367 
L 1105.03636 590.56293 
L 1110.016039 581.665222 
L 1114.995719 577.014405 
L 1119.975398 574.384898 
L 1119.975398 574.384898 
" style="fill:none;stroke:#0000ff;stroke-linecap:square;stroke-width:1.5;"/>
   </g>
   <g id="line2d_36">
    <defs>
     <path d="M 0 3 
C 0.795609 3 1.55874 2.683901 2.12132 2.12132 
C 2.683901 1.55874 3 0.795609 3 0 
C 3 -0.795609 2.683901 -1.55874 2.12132 -2.12132 
C 1.55874 -2.683901 0.795609 -3 0 -3 
C -0.795609 -3 -1.55874 -2.683901 -2.12132 -2.12132 
C -2.683901 -1.55874 -3 -0.795609 -3 0 
C -3 0.795609 -2.683901 1.55874 -2.12132 2.12132 
C -1.55874 2.683901 -0.795609 3 0 3 
z
" id="ma0f4cdf2a8" style="stroke:#ff0000;"/>
    </defs>
    <g clip-path="url(#pe67472b310)">
     <use style="fill:#ff0000;stroke:#ff0000;" x="104.120852" xlink:href="#ma0f4cdf2a8" y="639.849091"/>
     <use style="fill:#ff0000;stroke:#ff0000;" x="109.100531" xlink:href="#ma0f4cdf2a8" y="639.849091"/>
     <use style="fill:#ff0000;stroke:#ff0000;" x="114.080211" xlink:href="#ma0f4cdf2a8" y="639.849091"/>
     <use style="fill:#ff0000;stroke:#ff0000;" x="119.05989" xlink:href="#ma0f4cdf2a8" y="639.849091"/>
     <use style="fill:#ff0000;stroke:#ff0000;" x="124.039569" xlink:href="#ma0f4cdf2a8" y="639.849091"/>
     <use style="fill:#ff0000;stroke:#ff0000;" x="129.019248" xlink:href="#ma0f4cdf2a8" y="639.849091"/>
     <use style="fill:#ff0000;stroke:#ff0000;" x="133.998927" xlink:href="#ma0f4cdf2a8" y="639.849091"/>
     <use style="fill:#ff0000;stroke:#ff0000;" x="138.978606" xlink:href="#ma0f4cdf2a8" y="639.849091"/>
     <use style="fill:#ff0000;stroke:#ff0000;" x="143.958285" xlink:href="#ma0f4cdf2a8" y="639.849091"/>
     <use style="fill:#ff0000;stroke:#ff0000;" x="148.937965" xlink:href="#ma0f4cdf2a8" y="639.849091"/>
     <use style="fill:#ff0000;stroke:#ff0000;" x="153.917644" xlink:href="#ma0f4cdf2a8" y="639.849091"/>
     <use style="fill:#ff0000;stroke:#ff0000;" x="158.897323" xlink:href="#ma0f4cdf2a8" y="639.849091"/>
     <use style="fill:#ff0000;stroke:#ff0000;" x="163.877002" xlink:href="#ma0f4cdf2a8" y="639.849091"/>
     <use style="fill:#ff0000;stroke:#ff0000;" x="168.856681" xlink:href="#ma0f4cdf2a8" y="639.849091"/>
     <use style="fill:#ff0000;stroke:#ff0000;" x="173.83636" xlink:href="#ma0f4cdf2a8" y="639.849091"/>
     <use style="fill:#ff0000;stroke:#ff0000;" x="178.816039" xlink:href="#ma0f4cdf2a8" y="639.849091"/>
     <use style="fill:#ff0000;stroke:#ff0000;" x="183.795719" xlink:href="#ma0f4cdf2a8" y="639.849091"/>
     <use style="fill:#ff0000;stroke:#ff0000;" x="188.775398" xlink:href="#ma0f4cdf2a8" y="639.849091"/>
     <use style="fill:#ff0000;stroke:#ff0000;" x="223.633152" xlink:href="#ma0f4cdf2a8" y="639.849091"/>
     <use style="fill:#ff0000;stroke:#ff0000;" x="228.612831" xlink:href="#ma0f4cdf2a8" y="639.849091"/>
     <use style="fill:#ff0000;stroke:#ff0000;" x="233.59251" xlink:href="#ma0f4cdf2a8" y="639.849091"/>
     <use style="fill:#ff0000;stroke:#ff0000;" x="238.572189" xlink:href="#ma0f4cdf2a8" y="639.849091"/>
     <use style="fill:#ff0000;stroke:#ff0000;" x="258.490906" xlink:href="#ma0f4cdf2a8" y="639.849091"/>
     <use style="fill:#ff0000;stroke:#ff0000;" x="268.450264" xlink:href="#ma0f4cdf2a8" y="639.849091"/>
     <use style="fill:#ff0000;stroke:#ff0000;" x="273.429943" xlink:href="#ma0f4cdf2a8" y="639.849091"/>
     <use style="fill:#ff0000;stroke:#ff0000;" x="278.409622" xlink:href="#ma0f4cdf2a8" y="639.849091"/>
     <use style="fill:#ff0000;stroke:#ff0000;" x="283.389301" xlink:href="#ma0f4cdf2a8" y="639.849091"/>
     <use style="fill:#ff0000;stroke:#ff0000;" x="288.368981" xlink:href="#ma0f4cdf2a8" y="639.849091"/>
     <use style="fill:#ff0000;stroke:#ff0000;" x="293.34866" xlink:href="#ma0f4cdf2a8" y="639.849091"/>
     <use style="fill:#ff0000;stroke:#ff0000;" x="298.328339" xlink:href="#ma0f4cdf2a8" y="639.849091"/>
     <use style="fill:#ff0000;stroke:#ff0000;" x="303.308018" xlink:href="#ma0f4cdf2a8" y="639.849091"/>
     <use style="fill:#ff0000;stroke:#ff0000;" x="308.287697" xlink:href="#ma0f4cdf2a8" y="639.849091"/>
     <use style="fill:#ff0000;stroke:#ff0000;" x="313.267376" xlink:href="#ma0f4cdf2a8" y="639.849091"/>
     <use style="fill:#ff0000;stroke:#ff0000;" x="338.165772" xlink:href="#ma0f4cdf2a8" y="639.849091"/>
     <use style="fill:#ff0000;stroke:#ff0000;" x="343.145451" xlink:href="#ma0f4cdf2a8" y="639.849091"/>
     <use style="fill:#ff0000;stroke:#ff0000;" x="348.12513" xlink:href="#ma0f4cdf2a8" y="639.849091"/>
     <use style="fill:#ff0000;stroke:#ff0000;" x="353.104809" xlink:href="#ma0f4cdf2a8" y="639.849091"/>
     <use style="fill:#ff0000;stroke:#ff0000;" x="358.084489" xlink:href="#ma0f4cdf2a8" y="639.849091"/>
     <use style="fill:#ff0000;stroke:#ff0000;" x="363.064168" xlink:href="#ma0f4cdf2a8" y="639.849091"/>
     <use style="fill:#ff0000;stroke:#ff0000;" x="368.043847" xlink:href="#ma0f4cdf2a8" y="639.849091"/>
     <use style="fill:#ff0000;stroke:#ff0000;" x="387.962564" xlink:href="#ma0f4cdf2a8" y="639.849091"/>
     <use style="fill:#ff0000;stroke:#ff0000;" x="397.921922" xlink:href="#ma0f4cdf2a8" y="639.849091"/>
     <use style="fill:#ff0000;stroke:#ff0000;" x="422.820318" xlink:href="#ma0f4cdf2a8" y="639.849091"/>
     <use style="fill:#ff0000;stroke:#ff0000;" x="452.698392" xlink:href="#ma0f4cdf2a8" y="639.849091"/>
     <use style="fill:#ff0000;stroke:#ff0000;" x="457.678072" xlink:href="#ma0f4cdf2a8" y="639.849091"/>
     <use style="fill:#ff0000;stroke:#ff0000;" x="462.657751" xlink:href="#ma0f4cdf2a8" y="639.849091"/>
     <use style="fill:#ff0000;stroke:#ff0000;" x="467.63743" xlink:href="#ma0f4cdf2a8" y="639.849091"/>
     <use style="fill:#ff0000;stroke:#ff0000;" x="472.617109" xlink:href="#ma0f4cdf2a8" y="639.849091"/>
     <use style="fill:#ff0000;stroke:#ff0000;" x="477.596788" xlink:href="#ma0f4cdf2a8" y="639.849091"/>
     <use style="fill:#ff0000;stroke:#ff0000;" x="522.4139" xlink:href="#ma0f4cdf2a8" y="639.849091"/>
     <use style="fill:#ff0000;stroke:#ff0000;" x="527.39358" xlink:href="#ma0f4cdf2a8" y="639.849091"/>
     <use style="fill:#ff0000;stroke:#ff0000;" x="532.373259" xlink:href="#ma0f4cdf2a8" y="639.849091"/>
     <use style="fill:#ff0000;stroke:#ff0000;" x="537.352938" xlink:href="#ma0f4cdf2a8" y="639.849091"/>
     <use style="fill:#ff0000;stroke:#ff0000;" x="542.332617" xlink:href="#ma0f4cdf2a8" y="639.849091"/>
     <use style="fill:#ff0000;stroke:#ff0000;" x="587.149729" xlink:href="#ma0f4cdf2a8" y="639.849091"/>
     <use style="fill:#ff0000;stroke:#ff0000;" x="592.129408" xlink:href="#ma0f4cdf2a8" y="639.849091"/>
     <use style="fill:#ff0000;stroke:#ff0000;" x="597.109088" xlink:href="#ma0f4cdf2a8" y="639.849091"/>
     <use style="fill:#ff0000;stroke:#ff0000;" x="602.088767" xlink:href="#ma0f4cdf2a8" y="639.849091"/>
     <use style="fill:#ff0000;stroke:#ff0000;" x="641.9262" xlink:href="#ma0f4cdf2a8" y="639.849091"/>
     <use style="fill:#ff0000;stroke:#ff0000;" x="651.885558" xlink:href="#ma0f4cdf2a8" y="639.849091"/>
     <use style="fill:#ff0000;stroke:#ff0000;" x="701.68235" xlink:href="#ma0f4cdf2a8" y="639.849091"/>
     <use style="fill:#ff0000;stroke:#ff0000;" x="711.641708" xlink:href="#ma0f4cdf2a8" y="639.849091"/>
     <use style="fill:#ff0000;stroke:#ff0000;" x="716.621387" xlink:href="#ma0f4cdf2a8" y="639.849091"/>
     <use style="fill:#ff0000;stroke:#ff0000;" x="721.601066" xlink:href="#ma0f4cdf2a8" y="639.849091"/>
     <use style="fill:#ff0000;stroke:#ff0000;" x="731.560424" xlink:href="#ma0f4cdf2a8" y="639.849091"/>
     <use style="fill:#ff0000;stroke:#ff0000;" x="736.540104" xlink:href="#ma0f4cdf2a8" y="639.849091"/>
     <use style="fill:#ff0000;stroke:#ff0000;" x="746.499462" xlink:href="#ma0f4cdf2a8" y="639.849091"/>
     <use style="fill:#ff0000;stroke:#ff0000;" x="756.45882" xlink:href="#ma0f4cdf2a8" y="639.849091"/>
     <use style="fill:#ff0000;stroke:#ff0000;" x="761.438499" xlink:href="#ma0f4cdf2a8" y="639.849091"/>
     <use style="fill:#ff0000;stroke:#ff0000;" x="766.418178" xlink:href="#ma0f4cdf2a8" y="639.849091"/>
     <use style="fill:#ff0000;stroke:#ff0000;" x="771.397858" xlink:href="#ma0f4cdf2a8" y="639.849091"/>
     <use style="fill:#ff0000;stroke:#ff0000;" x="796.296253" xlink:href="#ma0f4cdf2a8" y="639.849091"/>
     <use style="fill:#ff0000;stroke:#ff0000;" x="801.275932" xlink:href="#ma0f4cdf2a8" y="639.849091"/>
     <use style="fill:#ff0000;stroke:#ff0000;" x="806.255612" xlink:href="#ma0f4cdf2a8" y="639.849091"/>
     <use style="fill:#ff0000;stroke:#ff0000;" x="811.235291" xlink:href="#ma0f4cdf2a8" y="639.849091"/>
     <use style="fill:#ff0000;stroke:#ff0000;" x="816.21497" xlink:href="#ma0f4cdf2a8" y="639.849091"/>
     <use style="fill:#ff0000;stroke:#ff0000;" x="821.194649" xlink:href="#ma0f4cdf2a8" y="639.849091"/>
     <use style="fill:#ff0000;stroke:#ff0000;" x="826.174328" xlink:href="#ma0f4cdf2a8" y="639.849091"/>
     <use style="fill:#ff0000;stroke:#ff0000;" x="831.154007" xlink:href="#ma0f4cdf2a8" y="639.849091"/>
     <use style="fill:#ff0000;stroke:#ff0000;" x="836.133686" xlink:href="#ma0f4cdf2a8" y="639.849091"/>
     <use style="fill:#ff0000;stroke:#ff0000;" x="841.113366" xlink:href="#ma0f4cdf2a8" y="639.849091"/>
     <use style="fill:#ff0000;stroke:#ff0000;" x="846.093045" xlink:href="#ma0f4cdf2a8" y="639.849091"/>
     <use style="fill:#ff0000;stroke:#ff0000;" x="861.032082" xlink:href="#ma0f4cdf2a8" y="639.849091"/>
     <use style="fill:#ff0000;stroke:#ff0000;" x="875.97112" xlink:href="#ma0f4cdf2a8" y="639.849091"/>
     <use style="fill:#ff0000;stroke:#ff0000;" x="885.930478" xlink:href="#ma0f4cdf2a8" y="639.849091"/>
     <use style="fill:#ff0000;stroke:#ff0000;" x="930.74759" xlink:href="#ma0f4cdf2a8" y="639.849091"/>
     <use style="fill:#ff0000;stroke:#ff0000;" x="945.686628" xlink:href="#ma0f4cdf2a8" y="639.849091"/>
     <use style="fill:#ff0000;stroke:#ff0000;" x="950.666307" xlink:href="#ma0f4cdf2a8" y="639.849091"/>
     <use style="fill:#ff0000;stroke:#ff0000;" x="985.524061" xlink:href="#ma0f4cdf2a8" y="639.849091"/>
     <use style="fill:#ff0000;stroke:#ff0000;" x="990.50374" xlink:href="#ma0f4cdf2a8" y="639.849091"/>
     <use style="fill:#ff0000;stroke:#ff0000;" x="995.483419" xlink:href="#ma0f4cdf2a8" y="639.849091"/>
     <use style="fill:#ff0000;stroke:#ff0000;" x="1000.463098" xlink:href="#ma0f4cdf2a8" y="639.849091"/>
     <use style="fill:#ff0000;stroke:#ff0000;" x="1005.442777" xlink:href="#ma0f4cdf2a8" y="639.849091"/>
     <use style="fill:#ff0000;stroke:#ff0000;" x="1010.422457" xlink:href="#ma0f4cdf2a8" y="639.849091"/>
     <use style="fill:#ff0000;stroke:#ff0000;" x="1015.402136" xlink:href="#ma0f4cdf2a8" y="639.849091"/>
     <use style="fill:#ff0000;stroke:#ff0000;" x="1040.300531" xlink:href="#ma0f4cdf2a8" y="639.849091"/>
     <use style="fill:#ff0000;stroke:#ff0000;" x="1050.25989" xlink:href="#ma0f4cdf2a8" y="639.849091"/>
     <use style="fill:#ff0000;stroke:#ff0000;" x="1075.158285" xlink:href="#ma0f4cdf2a8" y="639.849091"/>
     <use style="fill:#ff0000;stroke:#ff0000;" x="1095.077002" xlink:href="#ma0f4cdf2a8" y="639.849091"/>
    </g>
   </g>
   <g id="patch_9">
    <path d="M 53.328125 645.74 
L 53.328125 516.14 
" style="fill:none;stroke:#000000;stroke-linecap:square;stroke-linejoin:miter;stroke-width:0.8;"/>
   </g>
   <g id="patch_10">
    <path d="M 1170.768125 645.74 
L 1170.768125 516.14 
" style="fill:none;stroke:#000000;stroke-linecap:square;stroke-linejoin:miter;stroke-width:0.8;"/>
   </g>
   <g id="patch_11">
    <path d="M 53.328125 645.74 
L 1170.768125 645.74 
" style="fill:none;stroke:#000000;stroke-linecap:square;stroke-linejoin:miter;stroke-width:0.8;"/>
   </g>
   <g id="patch_12">
    <path d="M 53.328125 516.14 
L 1170.768125 516.14 
" style="fill:none;stroke:#000000;stroke-linecap:square;stroke-linejoin:miter;stroke-width:0.8;"/>
   </g>
   <g id="legend_2">
    <g id="patch_13">
     <path d="M 60.328125 582.8525 
L 151.340625 582.8525 
Q 153.340625 582.8525 153.340625 580.8525 
L 153.340625 523.14 
Q 153.340625 521.14 151.340625 521.14 
L 60.328125 521.14 
Q 58.328125 521.14 58.328125 523.14 
L 58.328125 580.8525 
Q 58.328125 582.8525 60.328125 582.8525 
z
" style="fill:#ffffff;opacity:0.8;stroke:#cccccc;stroke-linejoin:miter;"/>
    </g>
    <g id="line2d_37">
     <path d="M 62.328125 529.238437 
L 82.328125 529.238437 
" style="fill:none;stroke:#ff0000;stroke-linecap:square;stroke-width:1.5;"/>
    </g>
    <g id="line2d_38"/>
    <g id="text_30">
     <!-- Maxmimum -->
     <defs>
      <path d="M 9.8125 72.90625 
L 24.515625 72.90625 
L 43.109375 23.296875 
L 61.8125 72.90625 
L 76.515625 72.90625 
L 76.515625 0 
L 66.890625 0 
L 66.890625 64.015625 
L 48.09375 14.015625 
L 38.1875 14.015625 
L 19.390625 64.015625 
L 19.390625 0 
L 9.8125 0 
z
" id="DejaVuSans-4d"/>
      <path d="M 54.890625 54.6875 
L 35.109375 28.078125 
L 55.90625 0 
L 45.3125 0 
L 29.390625 21.484375 
L 13.484375 0 
L 2.875 0 
L 24.125 28.609375 
L 4.6875 54.6875 
L 15.28125 54.6875 
L 29.78125 35.203125 
L 44.28125 54.6875 
z
" id="DejaVuSans-78"/>
     </defs>
     <g transform="translate(90.328125 532.738437)scale(0.1 -0.1)">
      <use xlink:href="#DejaVuSans-4d"/>
      <use x="86.279297" xlink:href="#DejaVuSans-61"/>
      <use x="147.558594" xlink:href="#DejaVuSans-78"/>
      <use x="206.738281" xlink:href="#DejaVuSans-6d"/>
      <use x="304.150391" xlink:href="#DejaVuSans-69"/>
      <use x="331.933594" xlink:href="#DejaVuSans-6d"/>
      <use x="429.345703" xlink:href="#DejaVuSans-75"/>
      <use x="492.724609" xlink:href="#DejaVuSans-6d"/>
     </g>
    </g>
    <g id="line2d_39">
     <path d="M 62.328125 543.916562 
L 82.328125 543.916562 
" style="fill:none;stroke:#008000;stroke-linecap:square;stroke-width:1.5;"/>
    </g>
    <g id="line2d_40"/>
    <g id="text_31">
     <!-- Average -->
     <defs>
      <path d="M 34.1875 63.1875 
L 20.796875 26.90625 
L 47.609375 26.90625 
z
M 28.609375 72.90625 
L 39.796875 72.90625 
L 67.578125 0 
L 57.328125 0 
L 50.6875 18.703125 
L 17.828125 18.703125 
L 11.1875 0 
L 0.78125 0 
z
" id="DejaVuSans-41"/>
      <path d="M 2.984375 54.6875 
L 12.5 54.6875 
L 29.59375 8.796875 
L 46.6875 54.6875 
L 56.203125 54.6875 
L 35.6875 0 
L 23.484375 0 
z
" id="DejaVuSans-76"/>
     </defs>
     <g transform="translate(90.328125 547.416562)scale(0.1 -0.1)">
      <use xlink:href="#DejaVuSans-41"/>
      <use x="68.330078" xlink:href="#DejaVuSans-76"/>
      <use x="127.509766" xlink:href="#DejaVuSans-65"/>
      <use x="189.033203" xlink:href="#DejaVuSans-72"/>
      <use x="230.146484" xlink:href="#DejaVuSans-61"/>
      <use x="291.425781" xlink:href="#DejaVuSans-67"/>
      <use x="354.902344" xlink:href="#DejaVuSans-65"/>
     </g>
    </g>
    <g id="line2d_41">
     <path d="M 62.328125 558.594687 
L 82.328125 558.594687 
" style="fill:none;stroke:#0000ff;stroke-linecap:square;stroke-width:1.5;"/>
    </g>
    <g id="line2d_42"/>
    <g id="text_32">
     <!-- Minimum -->
     <g transform="translate(90.328125 562.094687)scale(0.1 -0.1)">
      <use xlink:href="#DejaVuSans-4d"/>
      <use x="86.279297" xlink:href="#DejaVuSans-69"/>
      <use x="114.0625" xlink:href="#DejaVuSans-6e"/>
      <use x="177.441406" xlink:href="#DejaVuSans-69"/>
      <use x="205.224609" xlink:href="#DejaVuSans-6d"/>
      <use x="302.636719" xlink:href="#DejaVuSans-75"/>
      <use x="366.015625" xlink:href="#DejaVuSans-6d"/>
     </g>
    </g>
    <g id="line2d_43"/>
    <g id="line2d_44">
     <g>
      <use style="fill:#ff0000;stroke:#ff0000;" x="72.328125" xlink:href="#ma0f4cdf2a8" y="573.272812"/>
     </g>
    </g>
    <g id="text_33">
     <!-- Disasters -->
     <g transform="translate(90.328125 576.772812)scale(0.1 -0.1)">
      <use xlink:href="#DejaVuSans-44"/>
      <use x="77.001953" xlink:href="#DejaVuSans-69"/>
      <use x="104.785156" xlink:href="#DejaVuSans-73"/>
      <use x="156.884766" xlink:href="#DejaVuSans-61"/>
      <use x="218.164062" xlink:href="#DejaVuSans-73"/>
      <use x="270.263672" xlink:href="#DejaVuSans-74"/>
      <use x="309.472656" xlink:href="#DejaVuSans-65"/>
      <use x="370.996094" xlink:href="#DejaVuSans-72"/>
      <use x="412.109375" xlink:href="#DejaVuSans-73"/>
     </g>
    </g>
   </g>
  </g>
 </g>
 <defs>
  <clipPath id="p10a1569489">
   <rect height="498.96" width="1116" x="53.328125" y="10.7"/>
  </clipPath>
  <clipPath id="pe67472b310">
   <rect height="129.6" width="1117.44" x="53.328125" y="516.14"/>
  </clipPath>
 </defs>
</svg>
