<?xml version="1.0" encoding="utf-8" standalone="no"?>
<!DOCTYPE svg PUBLIC "-//W3C//DTD SVG 1.1//EN"
  "http://www.w3.org/Graphics/SVG/1.1/DTD/svg11.dtd">
<!-- Created with matplotlib (http://matplotlib.org/) -->
<svg height="669pt" version="1.1" viewBox="0 0 1177 669" width="1177pt" xmlns="http://www.w3.org/2000/svg" xmlns:xlink="http://www.w3.org/1999/xlink">
 <defs>
  <style type="text/css">
*{stroke-linecap:butt;stroke-linejoin:round;}
  </style>
 </defs>
 <g id="figure_1">
  <g id="patch_1">
   <path d="M 0 669.618125 
L 1177.122813 669.618125 
L 1177.122813 -0 
L 0 -0 
z
" style="fill:none;"/>
  </g>
  <g id="axes_1">
   <g id="patch_2">
    <path d="M 48.982813 509.66 
L 1164.982812 509.66 
L 1164.982812 10.7 
L 48.982813 10.7 
z
" style="fill:none;"/>
   </g>
   <g id="matplotlib.axis_1">
    <g id="xtick_1">
     <g id="line2d_1">
      <defs>
       <path d="M 0 0 
L 0 3.5 
" id="m98242ce2ad" style="stroke:#000000;stroke-width:0.8;"/>
      </defs>
      <g>
       <use style="stroke:#000000;stroke-width:0.8;" x="99.710085" xlink:href="#m98242ce2ad" y="509.66"/>
      </g>
     </g>
     <g id="text_1">
      <!-- 0 -->
      <defs>
       <path d="M 31.78125 66.40625 
Q 24.171875 66.40625 20.328125 58.90625 
Q 16.5 51.421875 16.5 36.375 
Q 16.5 21.390625 20.328125 13.890625 
Q 24.171875 6.390625 31.78125 6.390625 
Q 39.453125 6.390625 43.28125 13.890625 
Q 47.125 21.390625 47.125 36.375 
Q 47.125 51.421875 43.28125 58.90625 
Q 39.453125 66.40625 31.78125 66.40625 
z
M 31.78125 74.21875 
Q 44.046875 74.21875 50.515625 64.515625 
Q 56.984375 54.828125 56.984375 36.375 
Q 56.984375 17.96875 50.515625 8.265625 
Q 44.046875 -1.421875 31.78125 -1.421875 
Q 19.53125 -1.421875 13.0625 8.265625 
Q 6.59375 17.96875 6.59375 36.375 
Q 6.59375 54.828125 13.0625 64.515625 
Q 19.53125 74.21875 31.78125 74.21875 
z
" id="DejaVuSans-30"/>
      </defs>
      <g transform="translate(96.528835 524.258437)scale(0.1 -0.1)">
       <use xlink:href="#DejaVuSans-30"/>
      </g>
     </g>
    </g>
    <g id="xtick_2">
     <g id="line2d_2">
      <g>
       <use style="stroke:#000000;stroke-width:0.8;" x="342.424309" xlink:href="#m98242ce2ad" y="509.66"/>
      </g>
     </g>
     <g id="text_2">
      <!-- 50 -->
      <defs>
       <path d="M 10.796875 72.90625 
L 49.515625 72.90625 
L 49.515625 64.59375 
L 19.828125 64.59375 
L 19.828125 46.734375 
Q 21.96875 47.46875 24.109375 47.828125 
Q 26.265625 48.1875 28.421875 48.1875 
Q 40.625 48.1875 47.75 41.5 
Q 54.890625 34.8125 54.890625 23.390625 
Q 54.890625 11.625 47.5625 5.09375 
Q 40.234375 -1.421875 26.90625 -1.421875 
Q 22.3125 -1.421875 17.546875 -0.640625 
Q 12.796875 0.140625 7.71875 1.703125 
L 7.71875 11.625 
Q 12.109375 9.234375 16.796875 8.0625 
Q 21.484375 6.890625 26.703125 6.890625 
Q 35.15625 6.890625 40.078125 11.328125 
Q 45.015625 15.765625 45.015625 23.390625 
Q 45.015625 31 40.078125 35.4375 
Q 35.15625 39.890625 26.703125 39.890625 
Q 22.75 39.890625 18.8125 39.015625 
Q 14.890625 38.140625 10.796875 36.28125 
z
" id="DejaVuSans-35"/>
      </defs>
      <g transform="translate(336.061809 524.258437)scale(0.1 -0.1)">
       <use xlink:href="#DejaVuSans-35"/>
       <use x="63.623047" xlink:href="#DejaVuSans-30"/>
      </g>
     </g>
    </g>
    <g id="xtick_3">
     <g id="line2d_3">
      <g>
       <use style="stroke:#000000;stroke-width:0.8;" x="585.138532" xlink:href="#m98242ce2ad" y="509.66"/>
      </g>
     </g>
     <g id="text_3">
      <!-- 100 -->
      <defs>
       <path d="M 12.40625 8.296875 
L 28.515625 8.296875 
L 28.515625 63.921875 
L 10.984375 60.40625 
L 10.984375 69.390625 
L 28.421875 72.90625 
L 38.28125 72.90625 
L 38.28125 8.296875 
L 54.390625 8.296875 
L 54.390625 0 
L 12.40625 0 
z
" id="DejaVuSans-31"/>
      </defs>
      <g transform="translate(575.594782 524.258437)scale(0.1 -0.1)">
       <use xlink:href="#DejaVuSans-31"/>
       <use x="63.623047" xlink:href="#DejaVuSans-30"/>
       <use x="127.246094" xlink:href="#DejaVuSans-30"/>
      </g>
     </g>
    </g>
    <g id="xtick_4">
     <g id="line2d_4">
      <g>
       <use style="stroke:#000000;stroke-width:0.8;" x="827.852756" xlink:href="#m98242ce2ad" y="509.66"/>
      </g>
     </g>
     <g id="text_4">
      <!-- 150 -->
      <g transform="translate(818.309006 524.258437)scale(0.1 -0.1)">
       <use xlink:href="#DejaVuSans-31"/>
       <use x="63.623047" xlink:href="#DejaVuSans-35"/>
       <use x="127.246094" xlink:href="#DejaVuSans-30"/>
      </g>
     </g>
    </g>
    <g id="xtick_5">
     <g id="line2d_5">
      <g>
       <use style="stroke:#000000;stroke-width:0.8;" x="1070.56698" xlink:href="#m98242ce2ad" y="509.66"/>
      </g>
     </g>
     <g id="text_5">
      <!-- 200 -->
      <defs>
       <path d="M 19.1875 8.296875 
L 53.609375 8.296875 
L 53.609375 0 
L 7.328125 0 
L 7.328125 8.296875 
Q 12.9375 14.109375 22.625 23.890625 
Q 32.328125 33.6875 34.8125 36.53125 
Q 39.546875 41.84375 41.421875 45.53125 
Q 43.3125 49.21875 43.3125 52.78125 
Q 43.3125 58.59375 39.234375 62.25 
Q 35.15625 65.921875 28.609375 65.921875 
Q 23.96875 65.921875 18.8125 64.3125 
Q 13.671875 62.703125 7.8125 59.421875 
L 7.8125 69.390625 
Q 13.765625 71.78125 18.9375 73 
Q 24.125 74.21875 28.421875 74.21875 
Q 39.75 74.21875 46.484375 68.546875 
Q 53.21875 62.890625 53.21875 53.421875 
Q 53.21875 48.921875 51.53125 44.890625 
Q 49.859375 40.875 45.40625 35.40625 
Q 44.1875 33.984375 37.640625 27.21875 
Q 31.109375 20.453125 19.1875 8.296875 
z
" id="DejaVuSans-32"/>
      </defs>
      <g transform="translate(1061.02323 524.258437)scale(0.1 -0.1)">
       <use xlink:href="#DejaVuSans-32"/>
       <use x="63.623047" xlink:href="#DejaVuSans-30"/>
       <use x="127.246094" xlink:href="#DejaVuSans-30"/>
      </g>
     </g>
    </g>
    <g id="text_6">
     <!-- Time -->
     <defs>
      <path d="M -0.296875 72.90625 
L 61.375 72.90625 
L 61.375 64.59375 
L 35.5 64.59375 
L 35.5 0 
L 25.59375 0 
L 25.59375 64.59375 
L -0.296875 64.59375 
z
" id="DejaVuSans-54"/>
      <path d="M 9.421875 54.6875 
L 18.40625 54.6875 
L 18.40625 0 
L 9.421875 0 
z
M 9.421875 75.984375 
L 18.40625 75.984375 
L 18.40625 64.59375 
L 9.421875 64.59375 
z
" id="DejaVuSans-69"/>
      <path d="M 52 44.1875 
Q 55.375 50.25 60.0625 53.125 
Q 64.75 56 71.09375 56 
Q 79.640625 56 84.28125 50.015625 
Q 88.921875 44.046875 88.921875 33.015625 
L 88.921875 0 
L 79.890625 0 
L 79.890625 32.71875 
Q 79.890625 40.578125 77.09375 44.375 
Q 74.3125 48.1875 68.609375 48.1875 
Q 61.625 48.1875 57.5625 43.546875 
Q 53.515625 38.921875 53.515625 30.90625 
L 53.515625 0 
L 44.484375 0 
L 44.484375 32.71875 
Q 44.484375 40.625 41.703125 44.40625 
Q 38.921875 48.1875 33.109375 48.1875 
Q 26.21875 48.1875 22.15625 43.53125 
Q 18.109375 38.875 18.109375 30.90625 
L 18.109375 0 
L 9.078125 0 
L 9.078125 54.6875 
L 18.109375 54.6875 
L 18.109375 46.1875 
Q 21.1875 51.21875 25.484375 53.609375 
Q 29.78125 56 35.6875 56 
Q 41.65625 56 45.828125 52.96875 
Q 50 49.953125 52 44.1875 
z
" id="DejaVuSans-6d"/>
      <path d="M 56.203125 29.59375 
L 56.203125 25.203125 
L 14.890625 25.203125 
Q 15.484375 15.921875 20.484375 11.0625 
Q 25.484375 6.203125 34.421875 6.203125 
Q 39.59375 6.203125 44.453125 7.46875 
Q 49.3125 8.734375 54.109375 11.28125 
L 54.109375 2.78125 
Q 49.265625 0.734375 44.1875 -0.34375 
Q 39.109375 -1.421875 33.890625 -1.421875 
Q 20.796875 -1.421875 13.15625 6.1875 
Q 5.515625 13.8125 5.515625 26.8125 
Q 5.515625 40.234375 12.765625 48.109375 
Q 20.015625 56 32.328125 56 
Q 43.359375 56 49.78125 48.890625 
Q 56.203125 41.796875 56.203125 29.59375 
z
M 47.21875 32.234375 
Q 47.125 39.59375 43.09375 43.984375 
Q 39.0625 48.390625 32.421875 48.390625 
Q 24.90625 48.390625 20.390625 44.140625 
Q 15.875 39.890625 15.1875 32.171875 
z
" id="DejaVuSans-65"/>
     </defs>
     <g transform="translate(594.595312 537.936562)scale(0.1 -0.1)">
      <use xlink:href="#DejaVuSans-54"/>
      <use x="61.037109" xlink:href="#DejaVuSans-69"/>
      <use x="88.820312" xlink:href="#DejaVuSans-6d"/>
      <use x="186.232422" xlink:href="#DejaVuSans-65"/>
     </g>
    </g>
   </g>
   <g id="matplotlib.axis_2">
    <g id="ytick_1">
     <g id="line2d_6">
      <defs>
       <path d="M 0 0 
L -3.5 0 
" id="m96bad12113" style="stroke:#000000;stroke-width:0.8;"/>
      </defs>
      <g>
       <use style="stroke:#000000;stroke-width:0.8;" x="48.982813" xlink:href="#m96bad12113" y="478.485618"/>
      </g>
     </g>
     <g id="text_7">
      <!-- 50 -->
      <g transform="translate(29.257813 482.284837)scale(0.1 -0.1)">
       <use xlink:href="#DejaVuSans-35"/>
       <use x="63.623047" xlink:href="#DejaVuSans-30"/>
      </g>
     </g>
    </g>
    <g id="ytick_2">
     <g id="line2d_7">
      <g>
       <use style="stroke:#000000;stroke-width:0.8;" x="48.982813" xlink:href="#m96bad12113" y="393.541798"/>
      </g>
     </g>
     <g id="text_8">
      <!-- 100 -->
      <g transform="translate(22.895313 397.341017)scale(0.1 -0.1)">
       <use xlink:href="#DejaVuSans-31"/>
       <use x="63.623047" xlink:href="#DejaVuSans-30"/>
       <use x="127.246094" xlink:href="#DejaVuSans-30"/>
      </g>
     </g>
    </g>
    <g id="ytick_3">
     <g id="line2d_8">
      <g>
       <use style="stroke:#000000;stroke-width:0.8;" x="48.982813" xlink:href="#m96bad12113" y="308.597978"/>
      </g>
     </g>
     <g id="text_9">
      <!-- 150 -->
      <g transform="translate(22.895313 312.397196)scale(0.1 -0.1)">
       <use xlink:href="#DejaVuSans-31"/>
       <use x="63.623047" xlink:href="#DejaVuSans-35"/>
       <use x="127.246094" xlink:href="#DejaVuSans-30"/>
      </g>
     </g>
    </g>
    <g id="ytick_4">
     <g id="line2d_9">
      <g>
       <use style="stroke:#000000;stroke-width:0.8;" x="48.982813" xlink:href="#m96bad12113" y="223.654157"/>
      </g>
     </g>
     <g id="text_10">
      <!-- 200 -->
      <g transform="translate(22.895313 227.453376)scale(0.1 -0.1)">
       <use xlink:href="#DejaVuSans-32"/>
       <use x="63.623047" xlink:href="#DejaVuSans-30"/>
       <use x="127.246094" xlink:href="#DejaVuSans-30"/>
      </g>
     </g>
    </g>
    <g id="ytick_5">
     <g id="line2d_10">
      <g>
       <use style="stroke:#000000;stroke-width:0.8;" x="48.982813" xlink:href="#m96bad12113" y="138.710337"/>
      </g>
     </g>
     <g id="text_11">
      <!-- 250 -->
      <g transform="translate(22.895313 142.509556)scale(0.1 -0.1)">
       <use xlink:href="#DejaVuSans-32"/>
       <use x="63.623047" xlink:href="#DejaVuSans-35"/>
       <use x="127.246094" xlink:href="#DejaVuSans-30"/>
      </g>
     </g>
    </g>
    <g id="ytick_6">
     <g id="line2d_11">
      <g>
       <use style="stroke:#000000;stroke-width:0.8;" x="48.982813" xlink:href="#m96bad12113" y="53.766517"/>
      </g>
     </g>
     <g id="text_12">
      <!-- 300 -->
      <defs>
       <path d="M 40.578125 39.3125 
Q 47.65625 37.796875 51.625 33 
Q 55.609375 28.21875 55.609375 21.1875 
Q 55.609375 10.40625 48.1875 4.484375 
Q 40.765625 -1.421875 27.09375 -1.421875 
Q 22.515625 -1.421875 17.65625 -0.515625 
Q 12.796875 0.390625 7.625 2.203125 
L 7.625 11.71875 
Q 11.71875 9.328125 16.59375 8.109375 
Q 21.484375 6.890625 26.8125 6.890625 
Q 36.078125 6.890625 40.9375 10.546875 
Q 45.796875 14.203125 45.796875 21.1875 
Q 45.796875 27.640625 41.28125 31.265625 
Q 36.765625 34.90625 28.71875 34.90625 
L 20.21875 34.90625 
L 20.21875 43.015625 
L 29.109375 43.015625 
Q 36.375 43.015625 40.234375 45.921875 
Q 44.09375 48.828125 44.09375 54.296875 
Q 44.09375 59.90625 40.109375 62.90625 
Q 36.140625 65.921875 28.71875 65.921875 
Q 24.65625 65.921875 20.015625 65.03125 
Q 15.375 64.15625 9.8125 62.3125 
L 9.8125 71.09375 
Q 15.4375 72.65625 20.34375 73.4375 
Q 25.25 74.21875 29.59375 74.21875 
Q 40.828125 74.21875 47.359375 69.109375 
Q 53.90625 64.015625 53.90625 55.328125 
Q 53.90625 49.265625 50.4375 45.09375 
Q 46.96875 40.921875 40.578125 39.3125 
z
" id="DejaVuSans-33"/>
      </defs>
      <g transform="translate(22.895313 57.565736)scale(0.1 -0.1)">
       <use xlink:href="#DejaVuSans-33"/>
       <use x="63.623047" xlink:href="#DejaVuSans-30"/>
       <use x="127.246094" xlink:href="#DejaVuSans-30"/>
      </g>
     </g>
    </g>
    <g id="text_13">
     <!-- Refugees -->
     <defs>
      <path d="M 44.390625 34.1875 
Q 47.5625 33.109375 50.5625 29.59375 
Q 53.5625 26.078125 56.59375 19.921875 
L 66.609375 0 
L 56 0 
L 46.6875 18.703125 
Q 43.0625 26.03125 39.671875 28.421875 
Q 36.28125 30.8125 30.421875 30.8125 
L 19.671875 30.8125 
L 19.671875 0 
L 9.8125 0 
L 9.8125 72.90625 
L 32.078125 72.90625 
Q 44.578125 72.90625 50.734375 67.671875 
Q 56.890625 62.453125 56.890625 51.90625 
Q 56.890625 45.015625 53.6875 40.46875 
Q 50.484375 35.9375 44.390625 34.1875 
z
M 19.671875 64.796875 
L 19.671875 38.921875 
L 32.078125 38.921875 
Q 39.203125 38.921875 42.84375 42.21875 
Q 46.484375 45.515625 46.484375 51.90625 
Q 46.484375 58.296875 42.84375 61.546875 
Q 39.203125 64.796875 32.078125 64.796875 
z
" id="DejaVuSans-52"/>
      <path d="M 37.109375 75.984375 
L 37.109375 68.5 
L 28.515625 68.5 
Q 23.6875 68.5 21.796875 66.546875 
Q 19.921875 64.59375 19.921875 59.515625 
L 19.921875 54.6875 
L 34.71875 54.6875 
L 34.71875 47.703125 
L 19.921875 47.703125 
L 19.921875 0 
L 10.890625 0 
L 10.890625 47.703125 
L 2.296875 47.703125 
L 2.296875 54.6875 
L 10.890625 54.6875 
L 10.890625 58.5 
Q 10.890625 67.625 15.140625 71.796875 
Q 19.390625 75.984375 28.609375 75.984375 
z
" id="DejaVuSans-66"/>
      <path d="M 8.5 21.578125 
L 8.5 54.6875 
L 17.484375 54.6875 
L 17.484375 21.921875 
Q 17.484375 14.15625 20.5 10.265625 
Q 23.53125 6.390625 29.59375 6.390625 
Q 36.859375 6.390625 41.078125 11.03125 
Q 45.3125 15.671875 45.3125 23.6875 
L 45.3125 54.6875 
L 54.296875 54.6875 
L 54.296875 0 
L 45.3125 0 
L 45.3125 8.40625 
Q 42.046875 3.421875 37.71875 1 
Q 33.40625 -1.421875 27.6875 -1.421875 
Q 18.265625 -1.421875 13.375 4.4375 
Q 8.5 10.296875 8.5 21.578125 
z
M 31.109375 56 
z
" id="DejaVuSans-75"/>
      <path d="M 45.40625 27.984375 
Q 45.40625 37.75 41.375 43.109375 
Q 37.359375 48.484375 30.078125 48.484375 
Q 22.859375 48.484375 18.828125 43.109375 
Q 14.796875 37.75 14.796875 27.984375 
Q 14.796875 18.265625 18.828125 12.890625 
Q 22.859375 7.515625 30.078125 7.515625 
Q 37.359375 7.515625 41.375 12.890625 
Q 45.40625 18.265625 45.40625 27.984375 
z
M 54.390625 6.78125 
Q 54.390625 -7.171875 48.1875 -13.984375 
Q 42 -20.796875 29.203125 -20.796875 
Q 24.46875 -20.796875 20.265625 -20.09375 
Q 16.0625 -19.390625 12.109375 -17.921875 
L 12.109375 -9.1875 
Q 16.0625 -11.328125 19.921875 -12.34375 
Q 23.78125 -13.375 27.78125 -13.375 
Q 36.625 -13.375 41.015625 -8.765625 
Q 45.40625 -4.15625 45.40625 5.171875 
L 45.40625 9.625 
Q 42.625 4.78125 38.28125 2.390625 
Q 33.9375 0 27.875 0 
Q 17.828125 0 11.671875 7.65625 
Q 5.515625 15.328125 5.515625 27.984375 
Q 5.515625 40.671875 11.671875 48.328125 
Q 17.828125 56 27.875 56 
Q 33.9375 56 38.28125 53.609375 
Q 42.625 51.21875 45.40625 46.390625 
L 45.40625 54.6875 
L 54.390625 54.6875 
z
" id="DejaVuSans-67"/>
      <path d="M 44.28125 53.078125 
L 44.28125 44.578125 
Q 40.484375 46.53125 36.375 47.5 
Q 32.28125 48.484375 27.875 48.484375 
Q 21.1875 48.484375 17.84375 46.4375 
Q 14.5 44.390625 14.5 40.28125 
Q 14.5 37.15625 16.890625 35.375 
Q 19.28125 33.59375 26.515625 31.984375 
L 29.59375 31.296875 
Q 39.15625 29.25 43.1875 25.515625 
Q 47.21875 21.78125 47.21875 15.09375 
Q 47.21875 7.46875 41.1875 3.015625 
Q 35.15625 -1.421875 24.609375 -1.421875 
Q 20.21875 -1.421875 15.453125 -0.5625 
Q 10.6875 0.296875 5.421875 2 
L 5.421875 11.28125 
Q 10.40625 8.6875 15.234375 7.390625 
Q 20.0625 6.109375 24.8125 6.109375 
Q 31.15625 6.109375 34.5625 8.28125 
Q 37.984375 10.453125 37.984375 14.40625 
Q 37.984375 18.0625 35.515625 20.015625 
Q 33.0625 21.96875 24.703125 23.78125 
L 21.578125 24.515625 
Q 13.234375 26.265625 9.515625 29.90625 
Q 5.8125 33.546875 5.8125 39.890625 
Q 5.8125 47.609375 11.28125 51.796875 
Q 16.75 56 26.8125 56 
Q 31.78125 56 36.171875 55.265625 
Q 40.578125 54.546875 44.28125 53.078125 
z
" id="DejaVuSans-73"/>
     </defs>
     <g style="fill:#ff7f0e;" transform="translate(16.815625 283.588594)rotate(-90)scale(0.1 -0.1)">
      <use xlink:href="#DejaVuSans-52"/>
      <use x="69.419922" xlink:href="#DejaVuSans-65"/>
      <use x="130.943359" xlink:href="#DejaVuSans-66"/>
      <use x="166.148438" xlink:href="#DejaVuSans-75"/>
      <use x="229.527344" xlink:href="#DejaVuSans-67"/>
      <use x="293.003906" xlink:href="#DejaVuSans-65"/>
      <use x="354.527344" xlink:href="#DejaVuSans-65"/>
      <use x="416.050781" xlink:href="#DejaVuSans-73"/>
     </g>
    </g>
   </g>
   <g id="line2d_12">
    <path clip-path="url(#p866f97019a)" d="M 99.710085 450.645571 
L 104.56437 445.719644 
L 109.418654 447.699562 
L 114.272939 455.159203 
L 119.127223 456.549553 
L 123.981508 439.370438 
L 128.835792 437.95561 
L 133.690077 432.974584 
L 138.544361 435.034409 
L 143.398645 442.416068 
L 148.25293 443.948274 
L 153.107214 426.540092 
L 157.961499 299.315776 
L 162.815783 273.337478 
L 167.670068 261.398968 
L 172.524352 260.202345 
L 177.378637 256.160126 
L 182.232921 237.278557 
L 187.087206 278.116476 
L 191.94149 263.871328 
L 196.795775 265.153677 
L 201.650059 275.874257 
L 206.504344 287.341855 
L 211.358628 273.387146 
L 216.212913 236.300283 
L 221.067197 202.539184 
L 225.921481 184.147997 
L 230.775766 177.390157 
L 235.63005 168.000038 
L 240.484335 146.542055 
L 245.338619 173.252749 
L 250.192904 183.142866 
L 255.047188 205.524453 
L 259.901473 225.190187 
L 264.755757 236.255125 
L 269.610042 219.864063 
L 274.464326 223.225083 
L 279.318611 206.785805 
L 284.172895 213.702707 
L 289.02718 233.248781 
L 293.881464 255.297934 
L 298.735749 248.359982 
L 303.590033 313.698443 
L 308.444318 312.324768 
L 313.298602 317.610686 
L 318.152886 324.40518 
L 323.007171 325.632443 
L 327.861455 304.733744 
L 332.71574 220.827458 
L 337.570024 209.092285 
L 342.424309 218.912904 
L 352.132878 259.112136 
L 356.987162 250.840327 
L 361.841447 288.309345 
L 366.695731 275.605282 
L 371.550016 277.13509 
L 381.258585 297.093959 
L 386.112869 282.21614 
L 390.967154 307.751702 
L 395.821438 303.264492 
L 400.675722 311.28879 
L 405.530007 324.403884 
L 410.384291 333.393444 
L 415.238576 318.522909 
L 420.09286 238.537213 
L 424.947145 243.393123 
L 429.801429 258.825171 
L 434.655714 273.777181 
L 439.509998 281.437056 
L 444.364283 263.901684 
L 449.218567 257.514903 
L 454.072852 235.738043 
L 458.927136 230.273984 
L 468.635705 241.072307 
L 473.48999 225.203744 
L 478.344274 212.947394 
L 483.198558 208.001091 
L 488.052843 224.757432 
L 492.907127 249.005434 
L 497.761412 270.694053 
L 502.615696 263.528836 
L 507.469981 296.774849 
L 512.324265 286.386677 
L 517.17855 289.304262 
L 522.032834 299.622935 
L 526.887119 308.66758 
L 531.741403 293.370149 
L 536.595688 345.747315 
L 541.449972 340.365846 
L 546.304257 343.00655 
L 551.158541 349.821277 
L 556.012826 352.38429 
L 560.86711 333.311631 
L 565.721394 358.122755 
L 570.575679 355.409312 
L 575.429963 346.872663 
L 580.284248 333.043304 
L 585.138532 315.048425 
L 589.992817 286.156664 
L 594.847101 343.125821 
L 599.701386 337.732894 
L 604.55567 340.39011 
L 609.409955 347.188739 
L 614.264239 349.781084 
L 619.118524 330.661103 
L 623.972808 285.0628 
L 628.827093 269.9032 
L 633.681377 270.945115 
L 638.535662 282.184722 
L 643.389946 294.472853 
L 648.244231 281.342231 
L 653.098515 284.456336 
L 657.952799 271.16971 
L 662.807084 272.605963 
L 672.515653 293.40753 
L 677.369937 278.878658 
L 682.224222 211.816486 
L 687.078506 195.401627 
L 691.932791 204.037962 
L 696.787075 225.819514 
L 701.64136 250.249314 
L 706.495644 244.930682 
L 711.349929 287.551466 
L 716.204213 274.732799 
L 721.058498 276.244176 
L 730.767067 296.368794 
L 735.621351 281.559645 
L 740.475635 292.099077 
L 745.32992 279.967959 
L 750.184204 281.589767 
L 755.038489 291.360821 
L 759.892773 300.71978 
L 764.747058 285.498718 
L 769.601342 336.47499 
L 774.455627 331.053211 
L 779.309911 333.752293 
L 784.164196 340.510029 
L 789.01848 343.176733 
L 793.872765 323.936678 
L 798.727049 319.046653 
L 803.581334 315.990044 
L 808.435618 318.869626 
L 813.289903 322.427945 
L 818.144187 321.722171 
L 822.998471 302.292387 
L 827.852756 288.469522 
L 832.70704 275.789697 
L 837.561325 277.323368 
L 847.269894 297.247188 
L 852.124178 282.354853 
L 856.978463 373.759036 
L 861.832747 367.978434 
L 866.687032 370.334258 
L 871.541316 377.583815 
L 876.395601 380.328806 
L 881.249885 362.146945 
L 886.10417 417.665449 
L 890.958454 412.596272 
L 895.812739 414.783948 
L 900.667023 422.040841 
L 905.521307 423.799884 
L 910.375592 406.025439 
L 915.229876 363.077677 
L 920.084161 353.528976 
L 924.938445 355.177186 
L 929.79273 364.237813 
L 934.647014 370.640951 
L 939.501299 355.019044 
L 944.355583 377.85034 
L 949.209868 372.608245 
L 954.064152 375.046725 
L 958.918437 382.058815 
L 963.772721 384.262979 
L 968.627006 365.769798 
L 973.48129 306.085488 
L 978.335575 296.069049 
L 983.189859 298.03042 
L 988.044144 306.851714 
L 992.898428 314.101413 
L 997.752712 297.613633 
L 1002.606997 249.31923 
L 1007.461281 234.138451 
L 1012.315566 238.006366 
L 1017.16985 252.652072 
L 1022.024135 268.874869 
L 1026.878419 257.963523 
L 1031.732704 187.497377 
L 1036.586988 198.783619 
L 1041.441273 213.879941 
L 1046.295557 220.416115 
L 1051.149842 218.394577 
L 1056.004126 195.955727 
L 1060.858411 277.350509 
L 1065.712695 271.075844 
L 1070.56698 275.728493 
L 1075.421264 284.87136 
L 1080.275548 291.19336 
L 1085.129833 273.291232 
L 1089.984117 254.217601 
L 1094.838402 243.84182 
L 1099.692686 245.051223 
L 1104.546971 251.286018 
L 1109.401255 254.331713 
L 1114.25554 235.25168 
L 1114.25554 235.25168 
" style="fill:none;stroke:#008000;stroke-dasharray:5.55,2.4;stroke-dashoffset:0;stroke-width:1.5;"/>
   </g>
   <g id="line2d_13">
    <path clip-path="url(#p866f97019a)" d="M 99.710085 442.809213 
L 104.56437 486.98 
L 109.418654 429.218202 
L 114.272939 456.400225 
L 119.127223 383.348539 
L 123.981508 419.024944 
L 128.835792 480.184494 
L 133.690077 444.50809 
L 138.544361 378.25191 
L 143.398645 415.627191 
L 148.25293 374.854157 
L 153.107214 368.058652 
L 157.961499 339.177753 
L 162.815783 354.46764 
L 167.670068 250.83618 
L 172.524352 169.290112 
L 177.378637 182.881124 
L 182.232921 213.460899 
L 187.087206 240.642921 
L 191.94149 298.404719 
L 196.795775 223.654157 
L 201.650059 278.018202 
L 206.504344 269.52382 
L 211.358628 320.490112 
L 216.212913 279.717079 
L 221.067197 101.335056 
L 225.921481 189.676629 
L 230.775766 116.624944 
L 235.63005 77.550787 
L 240.484335 157.397978 
L 245.338619 160.79573 
L 250.192904 235.546292 
L 255.047188 237.245169 
L 259.901473 267.824944 
L 264.755757 203.26764 
L 269.610042 332.382247 
L 274.464326 235.546292 
L 279.318611 235.546292 
L 284.172895 191.375506 
L 289.02718 227.05191 
L 293.881464 274.620449 
L 298.735749 308.597978 
L 303.590033 182.881124 
L 308.444318 289.910337 
L 313.298602 232.148539 
L 318.152886 298.404719 
L 323.007171 221.955281 
L 327.861455 249.137303 
L 332.71574 216.858652 
L 337.570024 286.512584 
L 342.424309 359.56427 
L 347.278593 249.137303 
L 352.132878 225.353034 
L 356.987162 313.694607 
L 361.841447 342.575506 
L 366.695731 332.382247 
L 371.550016 284.813708 
L 376.4043 288.211461 
L 381.258585 308.597978 
L 386.112869 295.006966 
L 390.967154 249.137303 
L 395.821438 210.063146 
L 400.675722 199.869888 
L 405.530007 167.591236 
L 410.384291 216.858652 
L 415.238576 177.784494 
L 420.09286 247.438427 
L 424.947145 230.449663 
L 429.801429 223.654157 
L 434.655714 283.114831 
L 439.509998 332.382247 
L 444.364283 306.899101 
L 449.218567 318.791236 
L 454.072852 247.438427 
L 458.927136 276.319326 
L 463.781421 196.472135 
L 468.635705 254.233933 
L 473.48999 82.647416 
L 478.344274 101.335056 
L 483.198558 208.36427 
L 488.052843 247.438427 
L 492.907127 344.274382 
L 497.761412 323.887865 
L 502.615696 330.683371 
L 507.469981 349.371011 
L 512.324265 342.575506 
L 522.032834 250.83618 
L 526.887119 334.081124 
L 531.741403 322.188989 
L 536.595688 254.233933 
L 541.449972 354.46764 
L 551.158541 310.296854 
L 556.012826 323.887865 
L 560.86711 315.393483 
L 565.721394 286.512584 
L 570.575679 318.791236 
L 575.429963 374.854157 
L 580.284248 373.155281 
L 585.138532 351.069888 
L 589.992817 318.791236 
L 594.847101 252.535056 
L 599.701386 308.597978 
L 604.55567 308.597978 
L 609.409955 286.512584 
L 614.264239 373.155281 
L 619.118524 390.144045 
L 623.972808 323.887865 
L 628.827093 296.705843 
L 633.681377 295.006966 
L 638.535662 269.52382 
L 643.389946 257.631685 
L 648.244231 221.955281 
L 653.098515 157.397978 
L 657.952799 62.260899 
L 662.807084 58.863146 
L 667.661368 240.642921 
L 677.369937 237.245169 
L 687.078506 274.620449 
L 691.932791 255.932809 
L 696.787075 201.568764 
L 701.64136 305.200225 
L 706.495644 286.512584 
L 711.349929 291.609213 
L 716.204213 288.211461 
L 721.058498 279.717079 
L 725.912782 274.620449 
L 730.767067 305.200225 
L 735.621351 300.103596 
L 740.475635 402.03618 
L 745.32992 238.944045 
L 750.184204 288.211461 
L 755.038489 276.319326 
L 759.892773 250.83618 
L 764.747058 286.512584 
L 769.601342 354.46764 
L 774.455627 388.445169 
L 779.309911 274.620449 
L 784.164196 359.56427 
L 789.01848 278.018202 
L 793.872765 308.597978 
L 798.727049 340.876629 
L 803.581334 303.501348 
L 808.435618 278.018202 
L 813.289903 271.222697 
L 818.144187 283.114831 
L 822.998471 262.728315 
L 827.852756 340.876629 
L 837.561325 320.490112 
L 842.415609 298.404719 
L 847.269894 354.46764 
L 852.124178 424.121573 
L 856.978463 376.553034 
L 861.832747 393.541798 
L 866.687032 417.326067 
L 871.541316 386.746292 
L 876.395601 412.229438 
L 881.249885 425.820449 
L 886.10417 327.285618 
L 890.958454 405.433933 
L 895.812739 359.56427 
L 900.667023 385.047416 
L 905.521307 391.842921 
L 910.375592 424.121573 
L 915.229876 379.950787 
L 920.084161 349.371011 
L 924.938445 359.56427 
L 929.79273 345.973258 
L 934.647014 349.371011 
L 939.501299 388.445169 
L 944.355583 272.921573 
L 949.209868 261.029438 
L 954.064152 244.040674 
L 958.918437 286.512584 
L 963.772721 320.490112 
L 968.627006 317.09236 
L 973.48129 325.586742 
L 978.335575 247.438427 
L 983.189859 213.460899 
L 988.044144 223.654157 
L 992.898428 244.040674 
L 997.752712 162.494607 
L 1002.606997 142.10809 
L 1007.461281 301.802472 
L 1012.315566 189.676629 
L 1017.16985 184.58 
L 1022.024135 211.762022 
L 1026.878419 169.290112 
L 1031.732704 176.085618 
L 1036.586988 289.910337 
L 1041.441273 320.490112 
L 1051.149842 155.699101 
L 1056.004126 145.505843 
L 1060.858411 332.382247 
L 1065.712695 279.717079 
L 1070.56698 327.285618 
L 1075.421264 334.081124 
L 1080.275548 305.200225 
L 1085.129833 259.330562 
L 1089.984117 223.654157 
L 1094.838402 33.38 
L 1099.692686 60.562022 
L 1104.546971 252.535056 
L 1109.401255 193.074382 
L 1114.25554 327.285618 
L 1114.25554 327.285618 
" style="fill:none;stroke:#ff7f0e;stroke-linecap:square;stroke-width:1.5;"/>
   </g>
   <g id="line2d_14">
    <defs>
     <path d="M 0 3 
C 0.795609 3 1.55874 2.683901 2.12132 2.12132 
C 2.683901 1.55874 3 0.795609 3 0 
C 3 -0.795609 2.683901 -1.55874 2.12132 -2.12132 
C 1.55874 -2.683901 0.795609 -3 0 -3 
C -0.795609 -3 -1.55874 -2.683901 -2.12132 -2.12132 
C -2.683901 -1.55874 -3 -0.795609 -3 0 
C -3 0.795609 -2.683901 1.55874 -2.12132 2.12132 
C -1.55874 2.683901 -0.795609 3 0 3 
z
" id="ma40c3e1992" style="stroke:#008000;"/>
    </defs>
    <g clip-path="url(#p866f97019a)">
     <use style="fill:#008000;stroke:#008000;" x="99.710085" xlink:href="#ma40c3e1992" y="450.645571"/>
     <use style="fill:#008000;stroke:#008000;" x="128.835792" xlink:href="#ma40c3e1992" y="437.95561"/>
     <use style="fill:#008000;stroke:#008000;" x="157.961499" xlink:href="#ma40c3e1992" y="299.315776"/>
     <use style="fill:#008000;stroke:#008000;" x="187.087206" xlink:href="#ma40c3e1992" y="278.116476"/>
     <use style="fill:#008000;stroke:#008000;" x="216.212913" xlink:href="#ma40c3e1992" y="236.300283"/>
     <use style="fill:#008000;stroke:#008000;" x="245.338619" xlink:href="#ma40c3e1992" y="173.252749"/>
     <use style="fill:#008000;stroke:#008000;" x="274.464326" xlink:href="#ma40c3e1992" y="223.225083"/>
     <use style="fill:#008000;stroke:#008000;" x="303.590033" xlink:href="#ma40c3e1992" y="313.698443"/>
     <use style="fill:#008000;stroke:#008000;" x="332.71574" xlink:href="#ma40c3e1992" y="220.827458"/>
     <use style="fill:#008000;stroke:#008000;" x="361.841447" xlink:href="#ma40c3e1992" y="288.309345"/>
     <use style="fill:#008000;stroke:#008000;" x="390.967154" xlink:href="#ma40c3e1992" y="307.751702"/>
     <use style="fill:#008000;stroke:#008000;" x="420.09286" xlink:href="#ma40c3e1992" y="238.537213"/>
     <use style="fill:#008000;stroke:#008000;" x="449.218567" xlink:href="#ma40c3e1992" y="257.514903"/>
     <use style="fill:#008000;stroke:#008000;" x="478.344274" xlink:href="#ma40c3e1992" y="212.947394"/>
     <use style="fill:#008000;stroke:#008000;" x="507.469981" xlink:href="#ma40c3e1992" y="296.774849"/>
     <use style="fill:#008000;stroke:#008000;" x="536.595688" xlink:href="#ma40c3e1992" y="345.747315"/>
     <use style="fill:#008000;stroke:#008000;" x="565.721394" xlink:href="#ma40c3e1992" y="358.122755"/>
     <use style="fill:#008000;stroke:#008000;" x="594.847101" xlink:href="#ma40c3e1992" y="343.125821"/>
     <use style="fill:#008000;stroke:#008000;" x="623.972808" xlink:href="#ma40c3e1992" y="285.0628"/>
     <use style="fill:#008000;stroke:#008000;" x="653.098515" xlink:href="#ma40c3e1992" y="284.456336"/>
     <use style="fill:#008000;stroke:#008000;" x="682.224222" xlink:href="#ma40c3e1992" y="211.816486"/>
     <use style="fill:#008000;stroke:#008000;" x="711.349929" xlink:href="#ma40c3e1992" y="287.551466"/>
     <use style="fill:#008000;stroke:#008000;" x="740.475635" xlink:href="#ma40c3e1992" y="292.099077"/>
     <use style="fill:#008000;stroke:#008000;" x="769.601342" xlink:href="#ma40c3e1992" y="336.47499"/>
     <use style="fill:#008000;stroke:#008000;" x="798.727049" xlink:href="#ma40c3e1992" y="319.046653"/>
     <use style="fill:#008000;stroke:#008000;" x="827.852756" xlink:href="#ma40c3e1992" y="288.469522"/>
     <use style="fill:#008000;stroke:#008000;" x="856.978463" xlink:href="#ma40c3e1992" y="373.759036"/>
     <use style="fill:#008000;stroke:#008000;" x="886.10417" xlink:href="#ma40c3e1992" y="417.665449"/>
     <use style="fill:#008000;stroke:#008000;" x="915.229876" xlink:href="#ma40c3e1992" y="363.077677"/>
     <use style="fill:#008000;stroke:#008000;" x="944.355583" xlink:href="#ma40c3e1992" y="377.85034"/>
     <use style="fill:#008000;stroke:#008000;" x="973.48129" xlink:href="#ma40c3e1992" y="306.085488"/>
     <use style="fill:#008000;stroke:#008000;" x="1002.606997" xlink:href="#ma40c3e1992" y="249.31923"/>
     <use style="fill:#008000;stroke:#008000;" x="1031.732704" xlink:href="#ma40c3e1992" y="187.497377"/>
     <use style="fill:#008000;stroke:#008000;" x="1060.858411" xlink:href="#ma40c3e1992" y="277.350509"/>
     <use style="fill:#008000;stroke:#008000;" x="1089.984117" xlink:href="#ma40c3e1992" y="254.217601"/>
    </g>
   </g>
   <g id="patch_3">
    <path d="M 48.982813 509.66 
L 48.982813 10.7 
" style="fill:none;stroke:#000000;stroke-linecap:square;stroke-linejoin:miter;stroke-width:0.8;"/>
   </g>
   <g id="patch_4">
    <path d="M 1164.982812 509.66 
L 1164.982812 10.7 
" style="fill:none;stroke:#000000;stroke-linecap:square;stroke-linejoin:miter;stroke-width:0.8;"/>
   </g>
   <g id="patch_5">
    <path d="M 48.982813 509.66 
L 1164.982812 509.66 
" style="fill:none;stroke:#000000;stroke-linecap:square;stroke-linejoin:miter;stroke-width:0.8;"/>
   </g>
   <g id="patch_6">
    <path d="M 48.982813 10.7 
L 1164.982812 10.7 
" style="fill:none;stroke:#000000;stroke-linecap:square;stroke-linejoin:miter;stroke-width:0.8;"/>
   </g>
   <g id="legend_1">
    <g id="patch_7">
     <path d="M 55.982813 62.734375 
L 203.757813 62.734375 
Q 205.757813 62.734375 205.757813 60.734375 
L 205.757813 17.7 
Q 205.757813 15.7 203.757813 15.7 
L 55.982813 15.7 
Q 53.982813 15.7 53.982813 17.7 
L 53.982813 60.734375 
Q 53.982813 62.734375 55.982813 62.734375 
z
" style="fill:#ffffff;opacity:0.8;stroke:#cccccc;stroke-linejoin:miter;"/>
    </g>
    <g id="line2d_15">
     <path d="M 57.982813 23.798437 
L 77.982813 23.798437 
" style="fill:none;stroke:#008000;stroke-dasharray:5.55,2.4;stroke-dashoffset:0;stroke-width:1.5;"/>
    </g>
    <g id="line2d_16"/>
    <g id="text_14">
     <!-- Predicted -->
     <defs>
      <path d="M 19.671875 64.796875 
L 19.671875 37.40625 
L 32.078125 37.40625 
Q 38.96875 37.40625 42.71875 40.96875 
Q 46.484375 44.53125 46.484375 51.125 
Q 46.484375 57.671875 42.71875 61.234375 
Q 38.96875 64.796875 32.078125 64.796875 
z
M 9.8125 72.90625 
L 32.078125 72.90625 
Q 44.34375 72.90625 50.609375 67.359375 
Q 56.890625 61.8125 56.890625 51.125 
Q 56.890625 40.328125 50.609375 34.8125 
Q 44.34375 29.296875 32.078125 29.296875 
L 19.671875 29.296875 
L 19.671875 0 
L 9.8125 0 
z
" id="DejaVuSans-50"/>
      <path d="M 41.109375 46.296875 
Q 39.59375 47.171875 37.8125 47.578125 
Q 36.03125 48 33.890625 48 
Q 26.265625 48 22.1875 43.046875 
Q 18.109375 38.09375 18.109375 28.8125 
L 18.109375 0 
L 9.078125 0 
L 9.078125 54.6875 
L 18.109375 54.6875 
L 18.109375 46.1875 
Q 20.953125 51.171875 25.484375 53.578125 
Q 30.03125 56 36.53125 56 
Q 37.453125 56 38.578125 55.875 
Q 39.703125 55.765625 41.0625 55.515625 
z
" id="DejaVuSans-72"/>
      <path d="M 45.40625 46.390625 
L 45.40625 75.984375 
L 54.390625 75.984375 
L 54.390625 0 
L 45.40625 0 
L 45.40625 8.203125 
Q 42.578125 3.328125 38.25 0.953125 
Q 33.9375 -1.421875 27.875 -1.421875 
Q 17.96875 -1.421875 11.734375 6.484375 
Q 5.515625 14.40625 5.515625 27.296875 
Q 5.515625 40.1875 11.734375 48.09375 
Q 17.96875 56 27.875 56 
Q 33.9375 56 38.25 53.625 
Q 42.578125 51.265625 45.40625 46.390625 
z
M 14.796875 27.296875 
Q 14.796875 17.390625 18.875 11.75 
Q 22.953125 6.109375 30.078125 6.109375 
Q 37.203125 6.109375 41.296875 11.75 
Q 45.40625 17.390625 45.40625 27.296875 
Q 45.40625 37.203125 41.296875 42.84375 
Q 37.203125 48.484375 30.078125 48.484375 
Q 22.953125 48.484375 18.875 42.84375 
Q 14.796875 37.203125 14.796875 27.296875 
z
" id="DejaVuSans-64"/>
      <path d="M 48.78125 52.59375 
L 48.78125 44.1875 
Q 44.96875 46.296875 41.140625 47.34375 
Q 37.3125 48.390625 33.40625 48.390625 
Q 24.65625 48.390625 19.8125 42.84375 
Q 14.984375 37.3125 14.984375 27.296875 
Q 14.984375 17.28125 19.8125 11.734375 
Q 24.65625 6.203125 33.40625 6.203125 
Q 37.3125 6.203125 41.140625 7.25 
Q 44.96875 8.296875 48.78125 10.40625 
L 48.78125 2.09375 
Q 45.015625 0.34375 40.984375 -0.53125 
Q 36.96875 -1.421875 32.421875 -1.421875 
Q 20.0625 -1.421875 12.78125 6.34375 
Q 5.515625 14.109375 5.515625 27.296875 
Q 5.515625 40.671875 12.859375 48.328125 
Q 20.21875 56 33.015625 56 
Q 37.15625 56 41.109375 55.140625 
Q 45.0625 54.296875 48.78125 52.59375 
z
" id="DejaVuSans-63"/>
      <path d="M 18.3125 70.21875 
L 18.3125 54.6875 
L 36.8125 54.6875 
L 36.8125 47.703125 
L 18.3125 47.703125 
L 18.3125 18.015625 
Q 18.3125 11.328125 20.140625 9.421875 
Q 21.96875 7.515625 27.59375 7.515625 
L 36.8125 7.515625 
L 36.8125 0 
L 27.59375 0 
Q 17.1875 0 13.234375 3.875 
Q 9.28125 7.765625 9.28125 18.015625 
L 9.28125 47.703125 
L 2.6875 47.703125 
L 2.6875 54.6875 
L 9.28125 54.6875 
L 9.28125 70.21875 
z
" id="DejaVuSans-74"/>
     </defs>
     <g transform="translate(85.982813 27.298437)scale(0.1 -0.1)">
      <use xlink:href="#DejaVuSans-50"/>
      <use x="60.287109" xlink:href="#DejaVuSans-72"/>
      <use x="101.369141" xlink:href="#DejaVuSans-65"/>
      <use x="162.892578" xlink:href="#DejaVuSans-64"/>
      <use x="226.369141" xlink:href="#DejaVuSans-69"/>
      <use x="254.152344" xlink:href="#DejaVuSans-63"/>
      <use x="309.132812" xlink:href="#DejaVuSans-74"/>
      <use x="348.341797" xlink:href="#DejaVuSans-65"/>
      <use x="409.865234" xlink:href="#DejaVuSans-64"/>
     </g>
    </g>
    <g id="line2d_17">
     <path d="M 57.982813 38.476562 
L 77.982813 38.476562 
" style="fill:none;stroke:#ff7f0e;stroke-linecap:square;stroke-width:1.5;"/>
    </g>
    <g id="line2d_18"/>
    <g id="text_15">
     <!-- Real Data -->
     <defs>
      <path d="M 34.28125 27.484375 
Q 23.390625 27.484375 19.1875 25 
Q 14.984375 22.515625 14.984375 16.5 
Q 14.984375 11.71875 18.140625 8.90625 
Q 21.296875 6.109375 26.703125 6.109375 
Q 34.1875 6.109375 38.703125 11.40625 
Q 43.21875 16.703125 43.21875 25.484375 
L 43.21875 27.484375 
z
M 52.203125 31.203125 
L 52.203125 0 
L 43.21875 0 
L 43.21875 8.296875 
Q 40.140625 3.328125 35.546875 0.953125 
Q 30.953125 -1.421875 24.3125 -1.421875 
Q 15.921875 -1.421875 10.953125 3.296875 
Q 6 8.015625 6 15.921875 
Q 6 25.140625 12.171875 29.828125 
Q 18.359375 34.515625 30.609375 34.515625 
L 43.21875 34.515625 
L 43.21875 35.40625 
Q 43.21875 41.609375 39.140625 45 
Q 35.0625 48.390625 27.6875 48.390625 
Q 23 48.390625 18.546875 47.265625 
Q 14.109375 46.140625 10.015625 43.890625 
L 10.015625 52.203125 
Q 14.9375 54.109375 19.578125 55.046875 
Q 24.21875 56 28.609375 56 
Q 40.484375 56 46.34375 49.84375 
Q 52.203125 43.703125 52.203125 31.203125 
z
" id="DejaVuSans-61"/>
      <path d="M 9.421875 75.984375 
L 18.40625 75.984375 
L 18.40625 0 
L 9.421875 0 
z
" id="DejaVuSans-6c"/>
      <path id="DejaVuSans-20"/>
      <path d="M 19.671875 64.796875 
L 19.671875 8.109375 
L 31.59375 8.109375 
Q 46.6875 8.109375 53.6875 14.9375 
Q 60.6875 21.78125 60.6875 36.53125 
Q 60.6875 51.171875 53.6875 57.984375 
Q 46.6875 64.796875 31.59375 64.796875 
z
M 9.8125 72.90625 
L 30.078125 72.90625 
Q 51.265625 72.90625 61.171875 64.09375 
Q 71.09375 55.28125 71.09375 36.53125 
Q 71.09375 17.671875 61.125 8.828125 
Q 51.171875 0 30.078125 0 
L 9.8125 0 
z
" id="DejaVuSans-44"/>
     </defs>
     <g transform="translate(85.982813 41.976562)scale(0.1 -0.1)">
      <use xlink:href="#DejaVuSans-52"/>
      <use x="69.419922" xlink:href="#DejaVuSans-65"/>
      <use x="130.943359" xlink:href="#DejaVuSans-61"/>
      <use x="192.222656" xlink:href="#DejaVuSans-6c"/>
      <use x="220.005859" xlink:href="#DejaVuSans-20"/>
      <use x="251.792969" xlink:href="#DejaVuSans-44"/>
      <use x="328.794922" xlink:href="#DejaVuSans-61"/>
      <use x="390.074219" xlink:href="#DejaVuSans-74"/>
      <use x="429.283203" xlink:href="#DejaVuSans-61"/>
     </g>
    </g>
    <g id="line2d_19"/>
    <g id="line2d_20">
     <g>
      <use style="fill:#008000;stroke:#008000;" x="67.982813" xlink:href="#ma40c3e1992" y="53.154688"/>
     </g>
    </g>
    <g id="text_16">
     <!-- Start Point for Forecast -->
     <defs>
      <path d="M 53.515625 70.515625 
L 53.515625 60.890625 
Q 47.90625 63.578125 42.921875 64.890625 
Q 37.9375 66.21875 33.296875 66.21875 
Q 25.25 66.21875 20.875 63.09375 
Q 16.5 59.96875 16.5 54.203125 
Q 16.5 49.359375 19.40625 46.890625 
Q 22.3125 44.4375 30.421875 42.921875 
L 36.375 41.703125 
Q 47.40625 39.59375 52.65625 34.296875 
Q 57.90625 29 57.90625 20.125 
Q 57.90625 9.515625 50.796875 4.046875 
Q 43.703125 -1.421875 29.984375 -1.421875 
Q 24.8125 -1.421875 18.96875 -0.25 
Q 13.140625 0.921875 6.890625 3.21875 
L 6.890625 13.375 
Q 12.890625 10.015625 18.65625 8.296875 
Q 24.421875 6.59375 29.984375 6.59375 
Q 38.421875 6.59375 43.015625 9.90625 
Q 47.609375 13.234375 47.609375 19.390625 
Q 47.609375 24.75 44.3125 27.78125 
Q 41.015625 30.8125 33.5 32.328125 
L 27.484375 33.5 
Q 16.453125 35.6875 11.515625 40.375 
Q 6.59375 45.0625 6.59375 53.421875 
Q 6.59375 63.09375 13.40625 68.65625 
Q 20.21875 74.21875 32.171875 74.21875 
Q 37.3125 74.21875 42.625 73.28125 
Q 47.953125 72.359375 53.515625 70.515625 
z
" id="DejaVuSans-53"/>
      <path d="M 30.609375 48.390625 
Q 23.390625 48.390625 19.1875 42.75 
Q 14.984375 37.109375 14.984375 27.296875 
Q 14.984375 17.484375 19.15625 11.84375 
Q 23.34375 6.203125 30.609375 6.203125 
Q 37.796875 6.203125 41.984375 11.859375 
Q 46.1875 17.53125 46.1875 27.296875 
Q 46.1875 37.015625 41.984375 42.703125 
Q 37.796875 48.390625 30.609375 48.390625 
z
M 30.609375 56 
Q 42.328125 56 49.015625 48.375 
Q 55.71875 40.765625 55.71875 27.296875 
Q 55.71875 13.875 49.015625 6.21875 
Q 42.328125 -1.421875 30.609375 -1.421875 
Q 18.84375 -1.421875 12.171875 6.21875 
Q 5.515625 13.875 5.515625 27.296875 
Q 5.515625 40.765625 12.171875 48.375 
Q 18.84375 56 30.609375 56 
z
" id="DejaVuSans-6f"/>
      <path d="M 54.890625 33.015625 
L 54.890625 0 
L 45.90625 0 
L 45.90625 32.71875 
Q 45.90625 40.484375 42.875 44.328125 
Q 39.84375 48.1875 33.796875 48.1875 
Q 26.515625 48.1875 22.3125 43.546875 
Q 18.109375 38.921875 18.109375 30.90625 
L 18.109375 0 
L 9.078125 0 
L 9.078125 54.6875 
L 18.109375 54.6875 
L 18.109375 46.1875 
Q 21.34375 51.125 25.703125 53.5625 
Q 30.078125 56 35.796875 56 
Q 45.21875 56 50.046875 50.171875 
Q 54.890625 44.34375 54.890625 33.015625 
z
" id="DejaVuSans-6e"/>
      <path d="M 9.8125 72.90625 
L 51.703125 72.90625 
L 51.703125 64.59375 
L 19.671875 64.59375 
L 19.671875 43.109375 
L 48.578125 43.109375 
L 48.578125 34.8125 
L 19.671875 34.8125 
L 19.671875 0 
L 9.8125 0 
z
" id="DejaVuSans-46"/>
     </defs>
     <g transform="translate(85.982813 56.654688)scale(0.1 -0.1)">
      <use xlink:href="#DejaVuSans-53"/>
      <use x="63.476562" xlink:href="#DejaVuSans-74"/>
      <use x="102.685547" xlink:href="#DejaVuSans-61"/>
      <use x="163.964844" xlink:href="#DejaVuSans-72"/>
      <use x="205.078125" xlink:href="#DejaVuSans-74"/>
      <use x="244.287109" xlink:href="#DejaVuSans-20"/>
      <use x="276.074219" xlink:href="#DejaVuSans-50"/>
      <use x="336.330078" xlink:href="#DejaVuSans-6f"/>
      <use x="397.511719" xlink:href="#DejaVuSans-69"/>
      <use x="425.294922" xlink:href="#DejaVuSans-6e"/>
      <use x="488.673828" xlink:href="#DejaVuSans-74"/>
      <use x="527.882812" xlink:href="#DejaVuSans-20"/>
      <use x="559.669922" xlink:href="#DejaVuSans-66"/>
      <use x="594.875" xlink:href="#DejaVuSans-6f"/>
      <use x="656.056641" xlink:href="#DejaVuSans-72"/>
      <use x="697.169922" xlink:href="#DejaVuSans-20"/>
      <use x="728.957031" xlink:href="#DejaVuSans-46"/>
      <use x="786.429688" xlink:href="#DejaVuSans-6f"/>
      <use x="847.611328" xlink:href="#DejaVuSans-72"/>
      <use x="888.693359" xlink:href="#DejaVuSans-65"/>
      <use x="950.216797" xlink:href="#DejaVuSans-63"/>
      <use x="1005.197266" xlink:href="#DejaVuSans-61"/>
      <use x="1066.476562" xlink:href="#DejaVuSans-73"/>
      <use x="1118.576172" xlink:href="#DejaVuSans-74"/>
     </g>
    </g>
   </g>
  </g>
  <g id="axes_2">
   <g id="patch_8">
    <path d="M 48.982813 645.74 
L 1166.422812 645.74 
L 1166.422812 516.14 
L 48.982813 516.14 
z
" style="fill:none;"/>
   </g>
   <g id="matplotlib.axis_3">
    <g id="xtick_6">
     <g id="line2d_21">
      <g>
       <use style="stroke:#000000;stroke-width:0.8;" x="99.77554" xlink:href="#m98242ce2ad" y="645.74"/>
      </g>
     </g>
     <g id="text_17">
      <!-- 0 -->
      <g transform="translate(96.59429 660.338437)scale(0.1 -0.1)">
       <use xlink:href="#DejaVuSans-30"/>
      </g>
     </g>
    </g>
    <g id="xtick_7">
     <g id="line2d_22">
      <g>
       <use style="stroke:#000000;stroke-width:0.8;" x="224.267518" xlink:href="#m98242ce2ad" y="645.74"/>
      </g>
     </g>
     <g id="text_18">
      <!-- 25 -->
      <g transform="translate(217.905018 660.338437)scale(0.1 -0.1)">
       <use xlink:href="#DejaVuSans-32"/>
       <use x="63.623047" xlink:href="#DejaVuSans-35"/>
      </g>
     </g>
    </g>
    <g id="xtick_8">
     <g id="line2d_23">
      <g>
       <use style="stroke:#000000;stroke-width:0.8;" x="348.759497" xlink:href="#m98242ce2ad" y="645.74"/>
      </g>
     </g>
     <g id="text_19">
      <!-- 50 -->
      <g transform="translate(342.396997 660.338437)scale(0.1 -0.1)">
       <use xlink:href="#DejaVuSans-35"/>
       <use x="63.623047" xlink:href="#DejaVuSans-30"/>
      </g>
     </g>
    </g>
    <g id="xtick_9">
     <g id="line2d_24">
      <g>
       <use style="stroke:#000000;stroke-width:0.8;" x="473.251476" xlink:href="#m98242ce2ad" y="645.74"/>
      </g>
     </g>
     <g id="text_20">
      <!-- 75 -->
      <defs>
       <path d="M 8.203125 72.90625 
L 55.078125 72.90625 
L 55.078125 68.703125 
L 28.609375 0 
L 18.3125 0 
L 43.21875 64.59375 
L 8.203125 64.59375 
z
" id="DejaVuSans-37"/>
      </defs>
      <g transform="translate(466.888976 660.338437)scale(0.1 -0.1)">
       <use xlink:href="#DejaVuSans-37"/>
       <use x="63.623047" xlink:href="#DejaVuSans-35"/>
      </g>
     </g>
    </g>
    <g id="xtick_10">
     <g id="line2d_25">
      <g>
       <use style="stroke:#000000;stroke-width:0.8;" x="597.743454" xlink:href="#m98242ce2ad" y="645.74"/>
      </g>
     </g>
     <g id="text_21">
      <!-- 100 -->
      <g transform="translate(588.199704 660.338437)scale(0.1 -0.1)">
       <use xlink:href="#DejaVuSans-31"/>
       <use x="63.623047" xlink:href="#DejaVuSans-30"/>
       <use x="127.246094" xlink:href="#DejaVuSans-30"/>
      </g>
     </g>
    </g>
    <g id="xtick_11">
     <g id="line2d_26">
      <g>
       <use style="stroke:#000000;stroke-width:0.8;" x="722.235433" xlink:href="#m98242ce2ad" y="645.74"/>
      </g>
     </g>
     <g id="text_22">
      <!-- 125 -->
      <g transform="translate(712.691683 660.338437)scale(0.1 -0.1)">
       <use xlink:href="#DejaVuSans-31"/>
       <use x="63.623047" xlink:href="#DejaVuSans-32"/>
       <use x="127.246094" xlink:href="#DejaVuSans-35"/>
      </g>
     </g>
    </g>
    <g id="xtick_12">
     <g id="line2d_27">
      <g>
       <use style="stroke:#000000;stroke-width:0.8;" x="846.727411" xlink:href="#m98242ce2ad" y="645.74"/>
      </g>
     </g>
     <g id="text_23">
      <!-- 150 -->
      <g transform="translate(837.183661 660.338437)scale(0.1 -0.1)">
       <use xlink:href="#DejaVuSans-31"/>
       <use x="63.623047" xlink:href="#DejaVuSans-35"/>
       <use x="127.246094" xlink:href="#DejaVuSans-30"/>
      </g>
     </g>
    </g>
    <g id="xtick_13">
     <g id="line2d_28">
      <g>
       <use style="stroke:#000000;stroke-width:0.8;" x="971.21939" xlink:href="#m98242ce2ad" y="645.74"/>
      </g>
     </g>
     <g id="text_24">
      <!-- 175 -->
      <g transform="translate(961.67564 660.338437)scale(0.1 -0.1)">
       <use xlink:href="#DejaVuSans-31"/>
       <use x="63.623047" xlink:href="#DejaVuSans-37"/>
       <use x="127.246094" xlink:href="#DejaVuSans-35"/>
      </g>
     </g>
    </g>
    <g id="xtick_14">
     <g id="line2d_29">
      <g>
       <use style="stroke:#000000;stroke-width:0.8;" x="1095.711369" xlink:href="#m98242ce2ad" y="645.74"/>
      </g>
     </g>
     <g id="text_25">
      <!-- 200 -->
      <g transform="translate(1086.167619 660.338437)scale(0.1 -0.1)">
       <use xlink:href="#DejaVuSans-32"/>
       <use x="63.623047" xlink:href="#DejaVuSans-30"/>
       <use x="127.246094" xlink:href="#DejaVuSans-30"/>
      </g>
     </g>
    </g>
   </g>
   <g id="matplotlib.axis_4">
    <g id="ytick_7">
     <g id="line2d_30">
      <g>
       <use style="stroke:#000000;stroke-width:0.8;" x="48.982813" xlink:href="#m96bad12113" y="645.902625"/>
      </g>
     </g>
     <g id="text_26">
      <!-- −40 -->
      <defs>
       <path d="M 10.59375 35.5 
L 73.1875 35.5 
L 73.1875 27.203125 
L 10.59375 27.203125 
z
" id="DejaVuSans-2212"/>
       <path d="M 37.796875 64.3125 
L 12.890625 25.390625 
L 37.796875 25.390625 
z
M 35.203125 72.90625 
L 47.609375 72.90625 
L 47.609375 25.390625 
L 58.015625 25.390625 
L 58.015625 17.1875 
L 47.609375 17.1875 
L 47.609375 0 
L 37.796875 0 
L 37.796875 17.1875 
L 4.890625 17.1875 
L 4.890625 26.703125 
z
" id="DejaVuSans-34"/>
      </defs>
      <g transform="translate(20.878125 649.701844)scale(0.1 -0.1)">
       <use xlink:href="#DejaVuSans-2212"/>
       <use x="83.789062" xlink:href="#DejaVuSans-34"/>
       <use x="147.412109" xlink:href="#DejaVuSans-30"/>
      </g>
     </g>
    </g>
    <g id="ytick_8">
     <g id="line2d_31">
      <g>
       <use style="stroke:#000000;stroke-width:0.8;" x="48.982813" xlink:href="#m96bad12113" y="609.494771"/>
      </g>
     </g>
     <g id="text_27">
      <!-- −20 -->
      <g transform="translate(20.878125 613.29399)scale(0.1 -0.1)">
       <use xlink:href="#DejaVuSans-2212"/>
       <use x="83.789062" xlink:href="#DejaVuSans-32"/>
       <use x="147.412109" xlink:href="#DejaVuSans-30"/>
      </g>
     </g>
    </g>
    <g id="ytick_9">
     <g id="line2d_32">
      <g>
       <use style="stroke:#000000;stroke-width:0.8;" x="48.982813" xlink:href="#m96bad12113" y="573.086917"/>
      </g>
     </g>
     <g id="text_28">
      <!-- 0 -->
      <g transform="translate(35.620313 576.886136)scale(0.1 -0.1)">
       <use xlink:href="#DejaVuSans-30"/>
      </g>
     </g>
    </g>
    <g id="ytick_10">
     <g id="line2d_33">
      <g>
       <use style="stroke:#000000;stroke-width:0.8;" x="48.982813" xlink:href="#m96bad12113" y="536.679063"/>
      </g>
     </g>
     <g id="text_29">
      <!-- 20 -->
      <g transform="translate(29.257813 540.478282)scale(0.1 -0.1)">
       <use xlink:href="#DejaVuSans-32"/>
       <use x="63.623047" xlink:href="#DejaVuSans-30"/>
      </g>
     </g>
    </g>
    <g id="text_30">
     <!-- Temperature -->
     <defs>
      <path d="M 18.109375 8.203125 
L 18.109375 -20.796875 
L 9.078125 -20.796875 
L 9.078125 54.6875 
L 18.109375 54.6875 
L 18.109375 46.390625 
Q 20.953125 51.265625 25.265625 53.625 
Q 29.59375 56 35.59375 56 
Q 45.5625 56 51.78125 48.09375 
Q 58.015625 40.1875 58.015625 27.296875 
Q 58.015625 14.40625 51.78125 6.484375 
Q 45.5625 -1.421875 35.59375 -1.421875 
Q 29.59375 -1.421875 25.265625 0.953125 
Q 20.953125 3.328125 18.109375 8.203125 
z
M 48.6875 27.296875 
Q 48.6875 37.203125 44.609375 42.84375 
Q 40.53125 48.484375 33.40625 48.484375 
Q 26.265625 48.484375 22.1875 42.84375 
Q 18.109375 37.203125 18.109375 27.296875 
Q 18.109375 17.390625 22.1875 11.75 
Q 26.265625 6.109375 33.40625 6.109375 
Q 40.53125 6.109375 44.609375 11.75 
Q 48.6875 17.390625 48.6875 27.296875 
z
" id="DejaVuSans-70"/>
     </defs>
     <g style="fill:#0000ff;" transform="translate(14.798438 613.557187)rotate(-90)scale(0.1 -0.1)">
      <use xlink:href="#DejaVuSans-54"/>
      <use x="60.818359" xlink:href="#DejaVuSans-65"/>
      <use x="122.341797" xlink:href="#DejaVuSans-6d"/>
      <use x="219.753906" xlink:href="#DejaVuSans-70"/>
      <use x="283.230469" xlink:href="#DejaVuSans-65"/>
      <use x="344.753906" xlink:href="#DejaVuSans-72"/>
      <use x="385.867188" xlink:href="#DejaVuSans-61"/>
      <use x="447.146484" xlink:href="#DejaVuSans-74"/>
      <use x="486.355469" xlink:href="#DejaVuSans-75"/>
      <use x="549.734375" xlink:href="#DejaVuSans-72"/>
      <use x="590.816406" xlink:href="#DejaVuSans-65"/>
     </g>
    </g>
   </g>
   <g id="line2d_34">
    <path clip-path="url(#p1671954a26)" d="M 99.77554 525.702095 
L 104.755219 528.5055 
L 109.734898 545.042311 
L 114.714577 556.098539 
L 119.694256 573.307738 
L 124.673935 589.152538 
L 129.653615 604.601373 
L 134.633294 589.370512 
L 139.612973 567.987269 
L 144.592652 550.62946 
L 149.572331 536.918263 
L 154.55201 524.998695 
L 159.53169 523.719687 
L 164.511369 528.358048 
L 169.491048 537.580704 
L 174.470727 560.589703 
L 179.450406 585.105914 
L 184.430085 593.546857 
L 189.409764 606.170916 
L 194.389444 591.931258 
L 199.369123 572.178222 
L 204.348802 554.518001 
L 209.328481 539.303523 
L 214.30816 526.468298 
L 219.287839 524.895479 
L 224.267518 527.7575 
L 229.247198 538.409528 
L 234.226877 555.063646 
L 239.206556 576.393933 
L 244.186235 603.088627 
L 249.165914 593.739818 
L 254.145593 584.9218 
L 259.125272 569.620034 
L 264.104952 557.270435 
L 269.084631 540.576888 
L 274.06431 528.732503 
L 279.043989 522.419563 
L 284.023668 524.399058 
L 289.003347 539.235258 
L 293.983026 563.576658 
L 298.962706 582.702723 
L 303.942385 601.333222 
L 308.922064 598.291528 
L 313.901743 589.381088 
L 318.881422 576.548266 
L 323.861101 557.455587 
L 328.84078 543.058629 
L 333.82046 530.033173 
L 338.800139 529.415514 
L 343.779818 535.564255 
L 348.759497 541.465239 
L 353.739176 557.655521 
L 358.718855 584.811739 
L 363.698534 596.307482 
L 368.678214 597.770532 
L 373.657893 585.638725 
L 378.637572 574.251834 
L 383.617251 549.677395 
L 388.59693 539.395453 
L 393.576609 528.826981 
L 398.556288 526.672 
L 403.535968 531.52007 
L 408.515647 545.199775 
L 413.495326 554.87498 
L 418.475005 577.31041 
L 423.454684 594.449407 
L 428.434363 605.017697 
L 433.414042 603.428494 
L 438.393722 573.088518 
L 443.373401 553.360231 
L 448.35308 542.690728 
L 453.332759 530.497738 
L 458.312438 524.623512 
L 463.292117 528.98663 
L 468.271796 540.593271 
L 473.251476 554.876072 
L 478.231155 575.570606 
L 483.210834 598.053785 
L 488.190513 596.677568 
L 493.170192 588.233221 
L 498.149871 569.49064 
L 503.12955 557.867433 
L 508.10923 543.498436 
L 513.088909 531.379172 
L 518.068588 529.289725 
L 523.048267 528.162538 
L 528.027946 538.765051 
L 533.007625 555.414599 
L 537.987304 574.065937 
L 542.966984 590.848488 
L 547.946663 595.236727 
L 552.926342 577.510289 
L 557.906021 573.394658 
L 562.8857 552.508106 
L 567.865379 536.694536 
L 572.845058 526.347788 
L 577.824738 522.030909 
L 582.804417 528.038933 
L 587.784096 536.896054 
L 592.763775 560.028385 
L 597.743454 574.916557 
L 602.723133 592.699646 
L 607.702813 605.005136 
L 612.682492 592.265118 
L 617.662171 564.651326 
L 622.64185 550.351668 
L 627.621529 541.990423 
L 632.601208 530.062846 
L 637.580887 524.731826 
L 642.560567 528.555379 
L 647.540246 540.794789 
L 657.499604 574.081874 
L 662.479283 593.637512 
L 667.458962 597.287582 
L 672.438641 588.781342 
L 677.418321 571.713077 
L 682.398 548.327028 
L 687.377679 537.280703 
L 692.357358 532.464854 
L 697.337037 527.183531 
L 702.316716 530.8407 
L 707.296395 542.349404 
L 712.276075 558.093398 
L 717.255754 585.927585 
L 722.235433 600.062042 
L 727.215112 604.999675 
L 732.194791 598.18722 
L 737.17447 580.611164 
L 742.154149 563.612792 
L 747.133829 541.749585 
L 752.113508 526.998943 
L 757.093187 523.948147 
L 767.052545 539.264203 
L 772.032224 556.861902 
L 777.011903 575.081776 
L 781.991583 596.874534 
L 786.971262 610.053085 
L 791.950941 589.212411 
L 796.93062 576.687508 
L 801.910299 550.984073 
L 806.889978 543.125984 
L 811.869657 529.619944 
L 816.849337 528.311082 
L 821.829016 528.033836 
L 826.808695 544.694252 
L 831.788374 553.48147 
L 836.768053 579.955878 
L 841.747732 599.594929 
L 846.727411 606.553926 
L 851.707091 596.126171 
L 856.68677 575.12339 
L 861.666449 553.410838 
L 866.646128 539.576036 
L 871.625807 530.525408 
L 876.605486 528.09045 
L 881.585165 532.523289 
L 886.564845 540.251948 
L 891.544524 559.647194 
L 896.524203 583.048925 
L 901.503882 602.987595 
L 906.483561 599.099054 
L 911.46324 594.894675 
L 916.442919 567.574622 
L 921.422599 555.81656 
L 926.402278 538.453946 
L 931.381957 532.172135 
L 936.361636 528.160717 
L 941.341315 531.544281 
L 946.320994 541.923068 
L 951.300673 556.841987 
L 956.280353 575.705461 
L 961.260032 590.965795 
L 966.239711 592.694549 
L 971.21939 594.294674 
L 976.199069 568.244272 
L 981.178748 548.371809 
L 986.158427 543.231567 
L 991.138107 532.590825 
L 996.117786 527.548155 
L 1001.097465 529.689483 
L 1006.077144 541.407715 
L 1011.056823 554.081471 
L 1016.036502 575.528974 
L 1021.016181 593.502803 
L 1025.995861 590.084433 
L 1030.97554 584.508625 
L 1035.955219 570.589083 
L 1040.934898 551.69166 
L 1045.914577 541.962389 
L 1050.894256 531.509148 
L 1055.873935 524.640988 
L 1060.853615 526.962353 
L 1065.833294 543.30238 
L 1070.812973 554.719337 
L 1075.792652 582.14399 
L 1080.772331 592.920824 
L 1085.75201 606.202045 
L 1090.73169 591.273241 
L 1095.711369 569.094504 
L 1100.691048 552.581467 
L 1105.670727 543.051712 
L 1110.650406 532.331783 
L 1115.630085 523.644323 
L 1115.630085 523.644323 
" style="fill:none;stroke:#ff0000;stroke-linecap:square;stroke-width:1.5;"/>
   </g>
   <g id="line2d_35">
    <path clip-path="url(#p1671954a26)" d="M 99.77554 536.865835 
L 104.755219 542.208688 
L 109.734898 556.533413 
L 114.714577 569.84376 
L 119.694256 588.442657 
L 124.673935 602.881466 
L 129.653615 618.973556 
L 134.633294 606.38281 
L 139.612973 584.358679 
L 144.592652 566.734238 
L 149.572331 550.087529 
L 154.55201 538.591021 
L 159.53169 536.313892 
L 164.511369 542.00626 
L 169.491048 552.695606 
L 174.470727 576.763819 
L 179.450406 600.095719 
L 184.430085 606.398647 
L 189.409764 617.130044 
L 194.389444 606.235722 
L 199.369123 585.543609 
L 204.348802 567.290787 
L 209.328481 552.244695 
L 214.30816 539.508499 
L 219.287839 537.131249 
L 224.267518 539.854192 
L 229.247198 551.827825 
L 234.226877 568.222627 
L 239.206556 587.993949 
L 244.186235 612.898905 
L 249.165914 604.848947 
L 254.145593 597.851721 
L 259.125272 583.218604 
L 264.104952 569.246343 
L 269.084631 552.001126 
L 274.06431 540.673187 
L 279.043989 535.016316 
L 284.023668 539.851825 
L 289.003347 554.839665 
L 293.983026 574.98362 
L 303.942385 612.353151 
L 308.922064 609.360608 
L 313.901743 601.882071 
L 318.881422 588.962853 
L 323.861101 568.027063 
L 328.84078 554.81873 
L 333.82046 542.179926 
L 338.800139 540.753466 
L 343.779818 546.767133 
L 348.759497 553.871216 
L 353.739176 571.195365 
L 358.718855 595.320647 
L 363.698534 607.166489 
L 368.678214 609.78749 
L 373.657893 597.191101 
L 378.637572 587.834319 
L 383.617251 562.940885 
L 393.576609 541.195457 
L 398.556288 538.932891 
L 403.535968 543.547951 
L 408.515647 557.416212 
L 413.495326 569.925022 
L 418.475005 589.847837 
L 423.454684 604.805803 
L 428.434363 615.913658 
L 433.414042 616.227857 
L 438.393722 587.48626 
L 443.373401 566.135656 
L 448.35308 555.07972 
L 453.332759 542.007717 
L 458.312438 536.703274 
L 463.292117 540.71724 
L 468.271796 554.012842 
L 473.251476 568.419375 
L 478.231155 588.016631 
L 483.210834 609.837733 
L 488.190513 609.424686 
L 493.170192 602.338807 
L 498.149871 584.338473 
L 503.12955 570.580928 
L 508.10923 556.43948 
L 513.088909 543.739092 
L 518.068588 539.567116 
L 523.048267 541.2528 
L 528.027946 553.56721 
L 533.007625 567.991601 
L 537.987304 586.782459 
L 542.966984 602.471332 
L 547.946663 607.18979 
L 552.926342 592.285324 
L 557.906021 584.142671 
L 562.8857 565.405916 
L 567.865379 550.490929 
L 572.845058 539.806498 
L 577.824738 534.570684 
L 582.804417 540.21554 
L 587.784096 550.698999 
L 592.763775 573.146819 
L 597.743454 588.404775 
L 602.723133 604.608473 
L 607.702813 616.994971 
L 612.682492 606.182748 
L 617.662171 578.567373 
L 622.64185 564.159019 
L 627.621529 555.051613 
L 632.601208 542.099282 
L 637.580887 537.313288 
L 642.560567 541.410628 
L 647.540246 553.219697 
L 657.499604 585.637268 
L 662.479283 604.60647 
L 667.458962 610.351084 
L 672.438641 602.200821 
L 677.418321 584.901611 
L 682.398 561.080972 
L 687.377679 550.747786 
L 692.357358 544.440489 
L 697.337037 538.453764 
L 702.316716 542.955049 
L 707.296395 554.836024 
L 712.276075 572.884185 
L 717.255754 596.440189 
L 722.235433 610.224748 
L 727.215112 617.407108 
L 732.194791 610.655271 
L 737.17447 593.319307 
L 742.154149 575.164185 
L 747.133829 553.749067 
L 752.113508 539.600065 
L 757.093187 535.78525 
L 762.072866 545.64122 
L 767.052545 555.003282 
L 772.032224 570.088148 
L 777.011903 586.758412 
L 781.991583 607.454839 
L 786.971262 621.238124 
L 791.950941 601.952884 
L 796.93062 590.443797 
L 801.910299 564.387934 
L 806.889978 556.140918 
L 811.869657 541.720276 
L 816.849337 539.879677 
L 821.829016 540.285625 
L 826.808695 558.197124 
L 831.788374 567.725751 
L 836.768053 592.181198 
L 841.747732 610.835672 
L 846.727411 618.561965 
L 851.707091 610.39805 
L 856.68677 589.699784 
L 861.666449 566.191524 
L 866.646128 552.588749 
L 871.625807 542.570764 
L 876.605486 539.775369 
L 881.585165 545.61173 
L 886.564845 555.794806 
L 891.544524 572.86352 
L 896.524203 594.258266 
L 901.503882 612.483856 
L 906.483561 611.239617 
L 911.46324 608.101806 
L 916.442919 580.847925 
L 921.422599 568.112384 
L 926.402278 551.85859 
L 931.381957 544.070586 
L 936.361636 540.024035 
L 941.341315 542.722039 
L 946.320994 555.320958 
L 951.300673 570.094628 
L 956.280353 587.164378 
L 961.260032 602.705616 
L 966.239711 605.490453 
L 971.21939 607.992401 
L 976.199069 582.607862 
L 981.178748 561.76959 
L 986.158427 555.558501 
L 991.138107 544.310877 
L 996.117786 540.217906 
L 1001.097465 542.735692 
L 1006.077144 555.440722 
L 1011.056823 567.218608 
L 1016.036502 588.725255 
L 1021.016181 605.65356 
L 1025.995861 603.519332 
L 1030.97554 599.005304 
L 1035.955219 584.262708 
L 1040.934898 564.615592 
L 1045.914577 554.520186 
L 1050.894256 543.480232 
L 1055.873935 536.796478 
L 1060.853615 539.612808 
L 1065.833294 555.050812 
L 1070.812973 568.34869 
L 1075.792652 593.126892 
L 1080.772331 603.533531 
L 1085.75201 617.475372 
L 1090.73169 604.623582 
L 1095.711369 581.823036 
L 1100.691048 564.810665 
L 1105.670727 555.519982 
L 1110.650406 543.615487 
L 1115.630085 535.52548 
L 1115.630085 535.52548 
" style="fill:none;stroke:#008000;stroke-linecap:square;stroke-width:1.5;"/>
   </g>
   <g id="line2d_36">
    <path clip-path="url(#p1671954a26)" d="M 99.77554 550.953308 
L 104.755219 555.797683 
L 109.734898 569.990229 
L 114.714577 586.786628 
L 119.694256 601.883527 
L 124.673935 615.085379 
L 129.653615 630.363389 
L 134.633294 621.671014 
L 139.612973 600.406642 
L 144.592652 582.768493 
L 149.572331 568.494576 
L 154.55201 556.008266 
L 159.53169 550.19384 
L 164.511369 555.030405 
L 169.491048 569.886357 
L 174.470727 590.838495 
L 179.450406 612.507703 
L 184.430085 619.586846 
L 189.409764 627.262532 
L 194.389444 619.096796 
L 199.369123 598.957428 
L 204.348802 581.88502 
L 214.30816 553.82698 
L 219.287839 551.348151 
L 224.267518 552.491904 
L 229.247198 566.297799 
L 234.226877 582.028249 
L 239.206556 598.304999 
L 244.186235 621.523016 
L 249.165914 614.868752 
L 254.145593 609.326202 
L 259.125272 594.551531 
L 264.104952 581.256912 
L 269.084631 564.970387 
L 274.06431 553.328375 
L 279.043989 548.392926 
L 284.023668 552.834866 
L 289.003347 568.198125 
L 303.942385 621.386668 
L 308.922064 618.564149 
L 313.901743 612.922934 
L 318.881422 600.988804 
L 323.861101 580.075441 
L 328.84078 566.805597 
L 333.82046 555.77582 
L 338.800139 551.203248 
L 343.779818 557.443864 
L 348.759497 566.378388 
L 353.739176 583.936621 
L 358.718855 605.090877 
L 363.698534 616.288476 
L 368.678214 619.157415 
L 373.657893 608.561091 
L 378.637572 599.89402 
L 383.617251 575.878944 
L 388.59693 566.092768 
L 393.576609 553.714116 
L 398.556288 551.198879 
L 403.535968 555.925929 
L 408.515647 569.349796 
L 413.495326 583.885486 
L 418.475005 600.022722 
L 423.454684 614.103095 
L 428.434363 624.88164 
L 433.414042 627.116536 
L 438.393722 600.332734 
L 443.373401 578.529272 
L 448.35308 567.729119 
L 453.332759 556.013035 
L 458.312438 548.381457 
L 463.292117 552.732196 
L 468.271796 567.961365 
L 473.251476 581.867836 
L 478.231155 599.326785 
L 483.210834 619.484904 
L 488.190513 620.211423 
L 493.170192 615.323122 
L 498.149871 598.906275 
L 503.12955 584.325166 
L 508.10923 570.539478 
L 513.088909 557.163068 
L 518.068588 551.235469 
L 523.048267 555.247214 
L 528.027946 567.448178 
L 533.007625 581.939032 
L 537.987304 598.14171 
L 542.966984 612.778759 
L 547.946663 617.216695 
L 552.926342 605.603864 
L 557.906021 600.275938 
L 562.8857 579.380688 
L 567.865379 565.024125 
L 572.845058 554.181047 
L 577.824738 548.14153 
L 582.804417 552.624429 
L 587.784096 564.998493 
L 592.763775 585.384598 
L 597.743454 600.166533 
L 607.702813 628.522608 
L 612.682492 619.245158 
L 617.662171 591.978042 
L 622.64185 578.792774 
L 627.621529 569.328625 
L 632.601208 554.899719 
L 637.580887 549.543414 
L 642.560567 555.850292 
L 647.540246 568.133829 
L 652.519925 582.644652 
L 657.499604 598.077814 
L 662.479283 616.371486 
L 667.458962 621.428901 
L 672.438641 614.140049 
L 677.418321 596.995591 
L 682.398 575.186922 
L 687.377679 565.049246 
L 692.357358 557.201952 
L 697.337037 549.91441 
L 702.316716 554.770308 
L 707.296395 568.185382 
L 712.276075 583.593022 
L 717.255754 605.877651 
L 722.235433 618.987755 
L 727.215112 627.197908 
L 732.194791 623.153905 
L 737.17447 606.74525 
L 742.154149 588.53841 
L 747.133829 568.287142 
L 752.113508 553.452707 
L 757.093187 548.375268 
L 762.072866 558.109181 
L 767.052545 566.429286 
L 777.011903 598.027935 
L 781.991583 619.130656 
L 786.971262 630.747127 
L 791.950941 616.060199 
L 796.93062 604.234746 
L 801.910299 579.106901 
L 806.889978 569.823899 
L 811.869657 553.695548 
L 816.849337 552.128554 
L 821.829016 553.967697 
L 826.808695 573.76099 
L 831.788374 580.343148 
L 836.768053 603.279586 
L 841.747732 620.295525 
L 846.727411 629.094939 
L 851.707091 622.608516 
L 856.68677 604.188872 
L 861.666449 580.075496 
L 866.646128 568.779813 
L 871.625807 555.95531 
L 876.605486 550.116656 
L 881.585165 557.822251 
L 886.564845 568.017906 
L 891.544524 584.825574 
L 896.524203 605.104166 
L 901.503882 622.505482 
L 906.483561 621.595831 
L 911.46324 620.016459 
L 916.442919 594.470342 
L 921.422599 581.241566 
L 926.402278 567.10092 
L 931.381957 556.956709 
L 936.361636 552.066842 
L 941.341315 553.840269 
L 946.320994 568.638059 
L 951.300673 582.218935 
L 961.260032 612.625482 
L 966.239711 616.720456 
L 971.21939 620.19959 
L 976.199069 596.947532 
L 981.178748 575.812081 
L 986.158427 569.235985 
L 991.138107 557.022989 
L 996.117786 552.820485 
L 1001.097465 556.228442 
L 1006.077144 569.753341 
L 1011.056823 579.70419 
L 1016.036502 600.311436 
L 1021.016181 616.145211 
L 1025.995861 615.126702 
L 1030.97554 612.255942 
L 1035.955219 598.687828 
L 1040.934898 579.121118 
L 1045.914577 568.545001 
L 1050.894256 557.046235 
L 1055.873935 549.810466 
L 1060.853615 553.182379 
L 1065.833294 566.679389 
L 1070.812973 581.071159 
L 1075.792652 603.540995 
L 1080.772331 613.14575 
L 1085.75201 627.855616 
L 1090.73169 616.742846 
L 1095.711369 594.744857 
L 1100.691048 577.616673 
L 1105.670727 569.879185 
L 1110.650406 555.926384 
L 1115.630085 547.992986 
L 1115.630085 547.992986 
" style="fill:none;stroke:#0000ff;stroke-linecap:square;stroke-width:1.5;"/>
   </g>
   <g id="line2d_37">
    <defs>
     <path d="M 0 3 
C 0.795609 3 1.55874 2.683901 2.12132 2.12132 
C 2.683901 1.55874 3 0.795609 3 0 
C 3 -0.795609 2.683901 -1.55874 2.12132 -2.12132 
C 1.55874 -2.683901 0.795609 -3 0 -3 
C -0.795609 -3 -1.55874 -2.683901 -2.12132 -2.12132 
C -2.683901 -1.55874 -3 -0.795609 -3 0 
C -3 0.795609 -2.683901 1.55874 -2.12132 2.12132 
C -1.55874 2.683901 -0.795609 3 0 3 
z
" id="m5f2ec37b8e" style="stroke:#ff0000;"/>
    </defs>
    <g clip-path="url(#p1671954a26)">
     <use style="fill:#ff0000;stroke:#ff0000;" x="129.653615" xlink:href="#m5f2ec37b8e" y="639.849091"/>
     <use style="fill:#ff0000;stroke:#ff0000;" x="134.633294" xlink:href="#m5f2ec37b8e" y="639.849091"/>
     <use style="fill:#ff0000;stroke:#ff0000;" x="139.612973" xlink:href="#m5f2ec37b8e" y="639.849091"/>
     <use style="fill:#ff0000;stroke:#ff0000;" x="144.592652" xlink:href="#m5f2ec37b8e" y="639.849091"/>
     <use style="fill:#ff0000;stroke:#ff0000;" x="149.572331" xlink:href="#m5f2ec37b8e" y="639.849091"/>
     <use style="fill:#ff0000;stroke:#ff0000;" x="154.55201" xlink:href="#m5f2ec37b8e" y="639.849091"/>
     <use style="fill:#ff0000;stroke:#ff0000;" x="159.53169" xlink:href="#m5f2ec37b8e" y="639.849091"/>
     <use style="fill:#ff0000;stroke:#ff0000;" x="164.511369" xlink:href="#m5f2ec37b8e" y="639.849091"/>
     <use style="fill:#ff0000;stroke:#ff0000;" x="169.491048" xlink:href="#m5f2ec37b8e" y="639.849091"/>
     <use style="fill:#ff0000;stroke:#ff0000;" x="174.470727" xlink:href="#m5f2ec37b8e" y="639.849091"/>
     <use style="fill:#ff0000;stroke:#ff0000;" x="179.450406" xlink:href="#m5f2ec37b8e" y="639.849091"/>
     <use style="fill:#ff0000;stroke:#ff0000;" x="184.430085" xlink:href="#m5f2ec37b8e" y="639.849091"/>
     <use style="fill:#ff0000;stroke:#ff0000;" x="189.409764" xlink:href="#m5f2ec37b8e" y="639.849091"/>
     <use style="fill:#ff0000;stroke:#ff0000;" x="194.389444" xlink:href="#m5f2ec37b8e" y="639.849091"/>
     <use style="fill:#ff0000;stroke:#ff0000;" x="199.369123" xlink:href="#m5f2ec37b8e" y="639.849091"/>
     <use style="fill:#ff0000;stroke:#ff0000;" x="204.348802" xlink:href="#m5f2ec37b8e" y="639.849091"/>
     <use style="fill:#ff0000;stroke:#ff0000;" x="209.328481" xlink:href="#m5f2ec37b8e" y="639.849091"/>
     <use style="fill:#ff0000;stroke:#ff0000;" x="214.30816" xlink:href="#m5f2ec37b8e" y="639.849091"/>
     <use style="fill:#ff0000;stroke:#ff0000;" x="219.287839" xlink:href="#m5f2ec37b8e" y="639.849091"/>
     <use style="fill:#ff0000;stroke:#ff0000;" x="224.267518" xlink:href="#m5f2ec37b8e" y="639.849091"/>
     <use style="fill:#ff0000;stroke:#ff0000;" x="229.247198" xlink:href="#m5f2ec37b8e" y="639.849091"/>
     <use style="fill:#ff0000;stroke:#ff0000;" x="234.226877" xlink:href="#m5f2ec37b8e" y="639.849091"/>
     <use style="fill:#ff0000;stroke:#ff0000;" x="239.206556" xlink:href="#m5f2ec37b8e" y="639.849091"/>
     <use style="fill:#ff0000;stroke:#ff0000;" x="244.186235" xlink:href="#m5f2ec37b8e" y="639.849091"/>
     <use style="fill:#ff0000;stroke:#ff0000;" x="249.165914" xlink:href="#m5f2ec37b8e" y="639.849091"/>
     <use style="fill:#ff0000;stroke:#ff0000;" x="254.145593" xlink:href="#m5f2ec37b8e" y="639.849091"/>
     <use style="fill:#ff0000;stroke:#ff0000;" x="259.125272" xlink:href="#m5f2ec37b8e" y="639.849091"/>
     <use style="fill:#ff0000;stroke:#ff0000;" x="264.104952" xlink:href="#m5f2ec37b8e" y="639.849091"/>
     <use style="fill:#ff0000;stroke:#ff0000;" x="269.084631" xlink:href="#m5f2ec37b8e" y="639.849091"/>
     <use style="fill:#ff0000;stroke:#ff0000;" x="274.06431" xlink:href="#m5f2ec37b8e" y="639.849091"/>
     <use style="fill:#ff0000;stroke:#ff0000;" x="279.043989" xlink:href="#m5f2ec37b8e" y="639.849091"/>
     <use style="fill:#ff0000;stroke:#ff0000;" x="284.023668" xlink:href="#m5f2ec37b8e" y="639.849091"/>
     <use style="fill:#ff0000;stroke:#ff0000;" x="289.003347" xlink:href="#m5f2ec37b8e" y="639.849091"/>
     <use style="fill:#ff0000;stroke:#ff0000;" x="293.983026" xlink:href="#m5f2ec37b8e" y="639.849091"/>
     <use style="fill:#ff0000;stroke:#ff0000;" x="298.962706" xlink:href="#m5f2ec37b8e" y="639.849091"/>
     <use style="fill:#ff0000;stroke:#ff0000;" x="303.942385" xlink:href="#m5f2ec37b8e" y="639.849091"/>
     <use style="fill:#ff0000;stroke:#ff0000;" x="308.922064" xlink:href="#m5f2ec37b8e" y="639.849091"/>
     <use style="fill:#ff0000;stroke:#ff0000;" x="338.800139" xlink:href="#m5f2ec37b8e" y="639.849091"/>
     <use style="fill:#ff0000;stroke:#ff0000;" x="343.779818" xlink:href="#m5f2ec37b8e" y="639.849091"/>
     <use style="fill:#ff0000;stroke:#ff0000;" x="627.621529" xlink:href="#m5f2ec37b8e" y="639.849091"/>
     <use style="fill:#ff0000;stroke:#ff0000;" x="632.601208" xlink:href="#m5f2ec37b8e" y="639.849091"/>
     <use style="fill:#ff0000;stroke:#ff0000;" x="697.337037" xlink:href="#m5f2ec37b8e" y="639.849091"/>
     <use style="fill:#ff0000;stroke:#ff0000;" x="722.235433" xlink:href="#m5f2ec37b8e" y="639.849091"/>
     <use style="fill:#ff0000;stroke:#ff0000;" x="727.215112" xlink:href="#m5f2ec37b8e" y="639.849091"/>
     <use style="fill:#ff0000;stroke:#ff0000;" x="732.194791" xlink:href="#m5f2ec37b8e" y="639.849091"/>
     <use style="fill:#ff0000;stroke:#ff0000;" x="737.17447" xlink:href="#m5f2ec37b8e" y="639.849091"/>
     <use style="fill:#ff0000;stroke:#ff0000;" x="742.154149" xlink:href="#m5f2ec37b8e" y="639.849091"/>
     <use style="fill:#ff0000;stroke:#ff0000;" x="747.133829" xlink:href="#m5f2ec37b8e" y="639.849091"/>
     <use style="fill:#ff0000;stroke:#ff0000;" x="1075.792652" xlink:href="#m5f2ec37b8e" y="639.849091"/>
     <use style="fill:#ff0000;stroke:#ff0000;" x="1080.772331" xlink:href="#m5f2ec37b8e" y="639.849091"/>
     <use style="fill:#ff0000;stroke:#ff0000;" x="1085.75201" xlink:href="#m5f2ec37b8e" y="639.849091"/>
    </g>
   </g>
   <g id="patch_9">
    <path d="M 48.982813 645.74 
L 48.982813 516.14 
" style="fill:none;stroke:#000000;stroke-linecap:square;stroke-linejoin:miter;stroke-width:0.8;"/>
   </g>
   <g id="patch_10">
    <path d="M 1166.422812 645.74 
L 1166.422812 516.14 
" style="fill:none;stroke:#000000;stroke-linecap:square;stroke-linejoin:miter;stroke-width:0.8;"/>
   </g>
   <g id="patch_11">
    <path d="M 48.982813 645.74 
L 1166.422813 645.74 
" style="fill:none;stroke:#000000;stroke-linecap:square;stroke-linejoin:miter;stroke-width:0.8;"/>
   </g>
   <g id="patch_12">
    <path d="M 48.982813 516.14 
L 1166.422813 516.14 
" style="fill:none;stroke:#000000;stroke-linecap:square;stroke-linejoin:miter;stroke-width:0.8;"/>
   </g>
   <g id="legend_2">
    <g id="patch_13">
     <path d="M 55.982813 582.8525 
L 146.995313 582.8525 
Q 148.995313 582.8525 148.995313 580.8525 
L 148.995313 523.14 
Q 148.995313 521.14 146.995313 521.14 
L 55.982813 521.14 
Q 53.982813 521.14 53.982813 523.14 
L 53.982813 580.8525 
Q 53.982813 582.8525 55.982813 582.8525 
z
" style="fill:#ffffff;opacity:0.8;stroke:#cccccc;stroke-linejoin:miter;"/>
    </g>
    <g id="line2d_38">
     <path d="M 57.982813 529.238437 
L 77.982813 529.238437 
" style="fill:none;stroke:#ff0000;stroke-linecap:square;stroke-width:1.5;"/>
    </g>
    <g id="line2d_39"/>
    <g id="text_31">
     <!-- Maxmimum -->
     <defs>
      <path d="M 9.8125 72.90625 
L 24.515625 72.90625 
L 43.109375 23.296875 
L 61.8125 72.90625 
L 76.515625 72.90625 
L 76.515625 0 
L 66.890625 0 
L 66.890625 64.015625 
L 48.09375 14.015625 
L 38.1875 14.015625 
L 19.390625 64.015625 
L 19.390625 0 
L 9.8125 0 
z
" id="DejaVuSans-4d"/>
      <path d="M 54.890625 54.6875 
L 35.109375 28.078125 
L 55.90625 0 
L 45.3125 0 
L 29.390625 21.484375 
L 13.484375 0 
L 2.875 0 
L 24.125 28.609375 
L 4.6875 54.6875 
L 15.28125 54.6875 
L 29.78125 35.203125 
L 44.28125 54.6875 
z
" id="DejaVuSans-78"/>
     </defs>
     <g transform="translate(85.982813 532.738437)scale(0.1 -0.1)">
      <use xlink:href="#DejaVuSans-4d"/>
      <use x="86.279297" xlink:href="#DejaVuSans-61"/>
      <use x="147.558594" xlink:href="#DejaVuSans-78"/>
      <use x="206.738281" xlink:href="#DejaVuSans-6d"/>
      <use x="304.150391" xlink:href="#DejaVuSans-69"/>
      <use x="331.933594" xlink:href="#DejaVuSans-6d"/>
      <use x="429.345703" xlink:href="#DejaVuSans-75"/>
      <use x="492.724609" xlink:href="#DejaVuSans-6d"/>
     </g>
    </g>
    <g id="line2d_40">
     <path d="M 57.982813 543.916562 
L 77.982813 543.916562 
" style="fill:none;stroke:#008000;stroke-linecap:square;stroke-width:1.5;"/>
    </g>
    <g id="line2d_41"/>
    <g id="text_32">
     <!-- Average -->
     <defs>
      <path d="M 34.1875 63.1875 
L 20.796875 26.90625 
L 47.609375 26.90625 
z
M 28.609375 72.90625 
L 39.796875 72.90625 
L 67.578125 0 
L 57.328125 0 
L 50.6875 18.703125 
L 17.828125 18.703125 
L 11.1875 0 
L 0.78125 0 
z
" id="DejaVuSans-41"/>
      <path d="M 2.984375 54.6875 
L 12.5 54.6875 
L 29.59375 8.796875 
L 46.6875 54.6875 
L 56.203125 54.6875 
L 35.6875 0 
L 23.484375 0 
z
" id="DejaVuSans-76"/>
     </defs>
     <g transform="translate(85.982813 547.416562)scale(0.1 -0.1)">
      <use xlink:href="#DejaVuSans-41"/>
      <use x="68.330078" xlink:href="#DejaVuSans-76"/>
      <use x="127.509766" xlink:href="#DejaVuSans-65"/>
      <use x="189.033203" xlink:href="#DejaVuSans-72"/>
      <use x="230.146484" xlink:href="#DejaVuSans-61"/>
      <use x="291.425781" xlink:href="#DejaVuSans-67"/>
      <use x="354.902344" xlink:href="#DejaVuSans-65"/>
     </g>
    </g>
    <g id="line2d_42">
     <path d="M 57.982813 558.594687 
L 77.982813 558.594687 
" style="fill:none;stroke:#0000ff;stroke-linecap:square;stroke-width:1.5;"/>
    </g>
    <g id="line2d_43"/>
    <g id="text_33">
     <!-- Minimum -->
     <g transform="translate(85.982813 562.094687)scale(0.1 -0.1)">
      <use xlink:href="#DejaVuSans-4d"/>
      <use x="86.279297" xlink:href="#DejaVuSans-69"/>
      <use x="114.0625" xlink:href="#DejaVuSans-6e"/>
      <use x="177.441406" xlink:href="#DejaVuSans-69"/>
      <use x="205.224609" xlink:href="#DejaVuSans-6d"/>
      <use x="302.636719" xlink:href="#DejaVuSans-75"/>
      <use x="366.015625" xlink:href="#DejaVuSans-6d"/>
     </g>
    </g>
    <g id="line2d_44"/>
    <g id="line2d_45">
     <g>
      <use style="fill:#ff0000;stroke:#ff0000;" x="67.982813" xlink:href="#m5f2ec37b8e" y="573.272812"/>
     </g>
    </g>
    <g id="text_34">
     <!-- Disasters -->
     <g transform="translate(85.982813 576.772812)scale(0.1 -0.1)">
      <use xlink:href="#DejaVuSans-44"/>
      <use x="77.001953" xlink:href="#DejaVuSans-69"/>
      <use x="104.785156" xlink:href="#DejaVuSans-73"/>
      <use x="156.884766" xlink:href="#DejaVuSans-61"/>
      <use x="218.164062" xlink:href="#DejaVuSans-73"/>
      <use x="270.263672" xlink:href="#DejaVuSans-74"/>
      <use x="309.472656" xlink:href="#DejaVuSans-65"/>
      <use x="370.996094" xlink:href="#DejaVuSans-72"/>
      <use x="412.109375" xlink:href="#DejaVuSans-73"/>
     </g>
    </g>
   </g>
  </g>
 </g>
 <defs>
  <clipPath id="p866f97019a">
   <rect height="498.96" width="1116" x="48.982813" y="10.7"/>
  </clipPath>
  <clipPath id="p1671954a26">
   <rect height="129.6" width="1117.44" x="48.982813" y="516.14"/>
  </clipPath>
 </defs>
</svg>
