<?xml version="1.0" encoding="utf-8" standalone="no"?>
<!DOCTYPE svg PUBLIC "-//W3C//DTD SVG 1.1//EN"
  "http://www.w3.org/Graphics/SVG/1.1/DTD/svg11.dtd">
<!-- Created with matplotlib (http://matplotlib.org/) -->
<svg height="669pt" version="1.1" viewBox="0 0 1181 669" width="1181pt" xmlns="http://www.w3.org/2000/svg" xmlns:xlink="http://www.w3.org/1999/xlink">
 <defs>
  <style type="text/css">
*{stroke-linecap:butt;stroke-linejoin:round;}
  </style>
 </defs>
 <g id="figure_1">
  <g id="patch_1">
   <path d="M 0 669.618125 
L 1181.468125 669.618125 
L 1181.468125 -0 
L 0 -0 
z
" style="fill:none;"/>
  </g>
  <g id="axes_1">
   <g id="patch_2">
    <path d="M 53.328125 509.66 
L 1169.328125 509.66 
L 1169.328125 10.7 
L 53.328125 10.7 
z
" style="fill:none;"/>
   </g>
   <g id="matplotlib.axis_1">
    <g id="xtick_1">
     <g id="line2d_1">
      <defs>
       <path d="M 0 0 
L 0 3.5 
" id="m2f9cb02845" style="stroke:#000000;stroke-width:0.8;"/>
      </defs>
      <g>
       <use style="stroke:#000000;stroke-width:0.8;" x="104.055398" xlink:href="#m2f9cb02845" y="509.66"/>
      </g>
     </g>
     <g id="text_1">
      <!-- 0 -->
      <defs>
       <path d="M 31.78125 66.40625 
Q 24.171875 66.40625 20.328125 58.90625 
Q 16.5 51.421875 16.5 36.375 
Q 16.5 21.390625 20.328125 13.890625 
Q 24.171875 6.390625 31.78125 6.390625 
Q 39.453125 6.390625 43.28125 13.890625 
Q 47.125 21.390625 47.125 36.375 
Q 47.125 51.421875 43.28125 58.90625 
Q 39.453125 66.40625 31.78125 66.40625 
z
M 31.78125 74.21875 
Q 44.046875 74.21875 50.515625 64.515625 
Q 56.984375 54.828125 56.984375 36.375 
Q 56.984375 17.96875 50.515625 8.265625 
Q 44.046875 -1.421875 31.78125 -1.421875 
Q 19.53125 -1.421875 13.0625 8.265625 
Q 6.59375 17.96875 6.59375 36.375 
Q 6.59375 54.828125 13.0625 64.515625 
Q 19.53125 74.21875 31.78125 74.21875 
z
" id="DejaVuSans-30"/>
      </defs>
      <g transform="translate(100.874148 524.258437)scale(0.1 -0.1)">
       <use xlink:href="#DejaVuSans-30"/>
      </g>
     </g>
    </g>
    <g id="xtick_2">
     <g id="line2d_2">
      <g>
       <use style="stroke:#000000;stroke-width:0.8;" x="346.769621" xlink:href="#m2f9cb02845" y="509.66"/>
      </g>
     </g>
     <g id="text_2">
      <!-- 50 -->
      <defs>
       <path d="M 10.796875 72.90625 
L 49.515625 72.90625 
L 49.515625 64.59375 
L 19.828125 64.59375 
L 19.828125 46.734375 
Q 21.96875 47.46875 24.109375 47.828125 
Q 26.265625 48.1875 28.421875 48.1875 
Q 40.625 48.1875 47.75 41.5 
Q 54.890625 34.8125 54.890625 23.390625 
Q 54.890625 11.625 47.5625 5.09375 
Q 40.234375 -1.421875 26.90625 -1.421875 
Q 22.3125 -1.421875 17.546875 -0.640625 
Q 12.796875 0.140625 7.71875 1.703125 
L 7.71875 11.625 
Q 12.109375 9.234375 16.796875 8.0625 
Q 21.484375 6.890625 26.703125 6.890625 
Q 35.15625 6.890625 40.078125 11.328125 
Q 45.015625 15.765625 45.015625 23.390625 
Q 45.015625 31 40.078125 35.4375 
Q 35.15625 39.890625 26.703125 39.890625 
Q 22.75 39.890625 18.8125 39.015625 
Q 14.890625 38.140625 10.796875 36.28125 
z
" id="DejaVuSans-35"/>
      </defs>
      <g transform="translate(340.407121 524.258437)scale(0.1 -0.1)">
       <use xlink:href="#DejaVuSans-35"/>
       <use x="63.623047" xlink:href="#DejaVuSans-30"/>
      </g>
     </g>
    </g>
    <g id="xtick_3">
     <g id="line2d_3">
      <g>
       <use style="stroke:#000000;stroke-width:0.8;" x="589.483845" xlink:href="#m2f9cb02845" y="509.66"/>
      </g>
     </g>
     <g id="text_3">
      <!-- 100 -->
      <defs>
       <path d="M 12.40625 8.296875 
L 28.515625 8.296875 
L 28.515625 63.921875 
L 10.984375 60.40625 
L 10.984375 69.390625 
L 28.421875 72.90625 
L 38.28125 72.90625 
L 38.28125 8.296875 
L 54.390625 8.296875 
L 54.390625 0 
L 12.40625 0 
z
" id="DejaVuSans-31"/>
      </defs>
      <g transform="translate(579.940095 524.258437)scale(0.1 -0.1)">
       <use xlink:href="#DejaVuSans-31"/>
       <use x="63.623047" xlink:href="#DejaVuSans-30"/>
       <use x="127.246094" xlink:href="#DejaVuSans-30"/>
      </g>
     </g>
    </g>
    <g id="xtick_4">
     <g id="line2d_4">
      <g>
       <use style="stroke:#000000;stroke-width:0.8;" x="832.198068" xlink:href="#m2f9cb02845" y="509.66"/>
      </g>
     </g>
     <g id="text_4">
      <!-- 150 -->
      <g transform="translate(822.654318 524.258437)scale(0.1 -0.1)">
       <use xlink:href="#DejaVuSans-31"/>
       <use x="63.623047" xlink:href="#DejaVuSans-35"/>
       <use x="127.246094" xlink:href="#DejaVuSans-30"/>
      </g>
     </g>
    </g>
    <g id="xtick_5">
     <g id="line2d_5">
      <g>
       <use style="stroke:#000000;stroke-width:0.8;" x="1074.912292" xlink:href="#m2f9cb02845" y="509.66"/>
      </g>
     </g>
     <g id="text_5">
      <!-- 200 -->
      <defs>
       <path d="M 19.1875 8.296875 
L 53.609375 8.296875 
L 53.609375 0 
L 7.328125 0 
L 7.328125 8.296875 
Q 12.9375 14.109375 22.625 23.890625 
Q 32.328125 33.6875 34.8125 36.53125 
Q 39.546875 41.84375 41.421875 45.53125 
Q 43.3125 49.21875 43.3125 52.78125 
Q 43.3125 58.59375 39.234375 62.25 
Q 35.15625 65.921875 28.609375 65.921875 
Q 23.96875 65.921875 18.8125 64.3125 
Q 13.671875 62.703125 7.8125 59.421875 
L 7.8125 69.390625 
Q 13.765625 71.78125 18.9375 73 
Q 24.125 74.21875 28.421875 74.21875 
Q 39.75 74.21875 46.484375 68.546875 
Q 53.21875 62.890625 53.21875 53.421875 
Q 53.21875 48.921875 51.53125 44.890625 
Q 49.859375 40.875 45.40625 35.40625 
Q 44.1875 33.984375 37.640625 27.21875 
Q 31.109375 20.453125 19.1875 8.296875 
z
" id="DejaVuSans-32"/>
      </defs>
      <g transform="translate(1065.368542 524.258437)scale(0.1 -0.1)">
       <use xlink:href="#DejaVuSans-32"/>
       <use x="63.623047" xlink:href="#DejaVuSans-30"/>
       <use x="127.246094" xlink:href="#DejaVuSans-30"/>
      </g>
     </g>
    </g>
    <g id="text_6">
     <!-- Time -->
     <defs>
      <path d="M -0.296875 72.90625 
L 61.375 72.90625 
L 61.375 64.59375 
L 35.5 64.59375 
L 35.5 0 
L 25.59375 0 
L 25.59375 64.59375 
L -0.296875 64.59375 
z
" id="DejaVuSans-54"/>
      <path d="M 9.421875 54.6875 
L 18.40625 54.6875 
L 18.40625 0 
L 9.421875 0 
z
M 9.421875 75.984375 
L 18.40625 75.984375 
L 18.40625 64.59375 
L 9.421875 64.59375 
z
" id="DejaVuSans-69"/>
      <path d="M 52 44.1875 
Q 55.375 50.25 60.0625 53.125 
Q 64.75 56 71.09375 56 
Q 79.640625 56 84.28125 50.015625 
Q 88.921875 44.046875 88.921875 33.015625 
L 88.921875 0 
L 79.890625 0 
L 79.890625 32.71875 
Q 79.890625 40.578125 77.09375 44.375 
Q 74.3125 48.1875 68.609375 48.1875 
Q 61.625 48.1875 57.5625 43.546875 
Q 53.515625 38.921875 53.515625 30.90625 
L 53.515625 0 
L 44.484375 0 
L 44.484375 32.71875 
Q 44.484375 40.625 41.703125 44.40625 
Q 38.921875 48.1875 33.109375 48.1875 
Q 26.21875 48.1875 22.15625 43.53125 
Q 18.109375 38.875 18.109375 30.90625 
L 18.109375 0 
L 9.078125 0 
L 9.078125 54.6875 
L 18.109375 54.6875 
L 18.109375 46.1875 
Q 21.1875 51.21875 25.484375 53.609375 
Q 29.78125 56 35.6875 56 
Q 41.65625 56 45.828125 52.96875 
Q 50 49.953125 52 44.1875 
z
" id="DejaVuSans-6d"/>
      <path d="M 56.203125 29.59375 
L 56.203125 25.203125 
L 14.890625 25.203125 
Q 15.484375 15.921875 20.484375 11.0625 
Q 25.484375 6.203125 34.421875 6.203125 
Q 39.59375 6.203125 44.453125 7.46875 
Q 49.3125 8.734375 54.109375 11.28125 
L 54.109375 2.78125 
Q 49.265625 0.734375 44.1875 -0.34375 
Q 39.109375 -1.421875 33.890625 -1.421875 
Q 20.796875 -1.421875 13.15625 6.1875 
Q 5.515625 13.8125 5.515625 26.8125 
Q 5.515625 40.234375 12.765625 48.109375 
Q 20.015625 56 32.328125 56 
Q 43.359375 56 49.78125 48.890625 
Q 56.203125 41.796875 56.203125 29.59375 
z
M 47.21875 32.234375 
Q 47.125 39.59375 43.09375 43.984375 
Q 39.0625 48.390625 32.421875 48.390625 
Q 24.90625 48.390625 20.390625 44.140625 
Q 15.875 39.890625 15.1875 32.171875 
z
" id="DejaVuSans-65"/>
     </defs>
     <g transform="translate(598.940625 537.936562)scale(0.1 -0.1)">
      <use xlink:href="#DejaVuSans-54"/>
      <use x="61.037109" xlink:href="#DejaVuSans-69"/>
      <use x="88.820312" xlink:href="#DejaVuSans-6d"/>
      <use x="186.232422" xlink:href="#DejaVuSans-65"/>
     </g>
    </g>
   </g>
   <g id="matplotlib.axis_2">
    <g id="ytick_1">
     <g id="line2d_6">
      <defs>
       <path d="M 0 0 
L -3.5 0 
" id="ma8f4f734c2" style="stroke:#000000;stroke-width:0.8;"/>
      </defs>
      <g>
       <use style="stroke:#000000;stroke-width:0.8;" x="53.328125" xlink:href="#ma8f4f734c2" y="495.27119"/>
      </g>
     </g>
     <g id="text_7">
      <!-- 0 -->
      <g transform="translate(39.965625 499.070408)scale(0.1 -0.1)">
       <use xlink:href="#DejaVuSans-30"/>
      </g>
     </g>
    </g>
    <g id="ytick_2">
     <g id="line2d_7">
      <g>
       <use style="stroke:#000000;stroke-width:0.8;" x="53.328125" xlink:href="#ma8f4f734c2" y="423.15703"/>
      </g>
     </g>
     <g id="text_8">
      <!-- 200 -->
      <g transform="translate(27.240625 426.956249)scale(0.1 -0.1)">
       <use xlink:href="#DejaVuSans-32"/>
       <use x="63.623047" xlink:href="#DejaVuSans-30"/>
       <use x="127.246094" xlink:href="#DejaVuSans-30"/>
      </g>
     </g>
    </g>
    <g id="ytick_3">
     <g id="line2d_8">
      <g>
       <use style="stroke:#000000;stroke-width:0.8;" x="53.328125" xlink:href="#ma8f4f734c2" y="351.042871"/>
      </g>
     </g>
     <g id="text_9">
      <!-- 400 -->
      <defs>
       <path d="M 37.796875 64.3125 
L 12.890625 25.390625 
L 37.796875 25.390625 
z
M 35.203125 72.90625 
L 47.609375 72.90625 
L 47.609375 25.390625 
L 58.015625 25.390625 
L 58.015625 17.1875 
L 47.609375 17.1875 
L 47.609375 0 
L 37.796875 0 
L 37.796875 17.1875 
L 4.890625 17.1875 
L 4.890625 26.703125 
z
" id="DejaVuSans-34"/>
      </defs>
      <g transform="translate(27.240625 354.84209)scale(0.1 -0.1)">
       <use xlink:href="#DejaVuSans-34"/>
       <use x="63.623047" xlink:href="#DejaVuSans-30"/>
       <use x="127.246094" xlink:href="#DejaVuSans-30"/>
      </g>
     </g>
    </g>
    <g id="ytick_4">
     <g id="line2d_9">
      <g>
       <use style="stroke:#000000;stroke-width:0.8;" x="53.328125" xlink:href="#ma8f4f734c2" y="278.928712"/>
      </g>
     </g>
     <g id="text_10">
      <!-- 600 -->
      <defs>
       <path d="M 33.015625 40.375 
Q 26.375 40.375 22.484375 35.828125 
Q 18.609375 31.296875 18.609375 23.390625 
Q 18.609375 15.53125 22.484375 10.953125 
Q 26.375 6.390625 33.015625 6.390625 
Q 39.65625 6.390625 43.53125 10.953125 
Q 47.40625 15.53125 47.40625 23.390625 
Q 47.40625 31.296875 43.53125 35.828125 
Q 39.65625 40.375 33.015625 40.375 
z
M 52.59375 71.296875 
L 52.59375 62.3125 
Q 48.875 64.0625 45.09375 64.984375 
Q 41.3125 65.921875 37.59375 65.921875 
Q 27.828125 65.921875 22.671875 59.328125 
Q 17.53125 52.734375 16.796875 39.40625 
Q 19.671875 43.65625 24.015625 45.921875 
Q 28.375 48.1875 33.59375 48.1875 
Q 44.578125 48.1875 50.953125 41.515625 
Q 57.328125 34.859375 57.328125 23.390625 
Q 57.328125 12.15625 50.6875 5.359375 
Q 44.046875 -1.421875 33.015625 -1.421875 
Q 20.359375 -1.421875 13.671875 8.265625 
Q 6.984375 17.96875 6.984375 36.375 
Q 6.984375 53.65625 15.1875 63.9375 
Q 23.390625 74.21875 37.203125 74.21875 
Q 40.921875 74.21875 44.703125 73.484375 
Q 48.484375 72.75 52.59375 71.296875 
z
" id="DejaVuSans-36"/>
      </defs>
      <g transform="translate(27.240625 282.727931)scale(0.1 -0.1)">
       <use xlink:href="#DejaVuSans-36"/>
       <use x="63.623047" xlink:href="#DejaVuSans-30"/>
       <use x="127.246094" xlink:href="#DejaVuSans-30"/>
      </g>
     </g>
    </g>
    <g id="ytick_5">
     <g id="line2d_10">
      <g>
       <use style="stroke:#000000;stroke-width:0.8;" x="53.328125" xlink:href="#ma8f4f734c2" y="206.814553"/>
      </g>
     </g>
     <g id="text_11">
      <!-- 800 -->
      <defs>
       <path d="M 31.78125 34.625 
Q 24.75 34.625 20.71875 30.859375 
Q 16.703125 27.09375 16.703125 20.515625 
Q 16.703125 13.921875 20.71875 10.15625 
Q 24.75 6.390625 31.78125 6.390625 
Q 38.8125 6.390625 42.859375 10.171875 
Q 46.921875 13.96875 46.921875 20.515625 
Q 46.921875 27.09375 42.890625 30.859375 
Q 38.875 34.625 31.78125 34.625 
z
M 21.921875 38.8125 
Q 15.578125 40.375 12.03125 44.71875 
Q 8.5 49.078125 8.5 55.328125 
Q 8.5 64.0625 14.71875 69.140625 
Q 20.953125 74.21875 31.78125 74.21875 
Q 42.671875 74.21875 48.875 69.140625 
Q 55.078125 64.0625 55.078125 55.328125 
Q 55.078125 49.078125 51.53125 44.71875 
Q 48 40.375 41.703125 38.8125 
Q 48.828125 37.15625 52.796875 32.3125 
Q 56.78125 27.484375 56.78125 20.515625 
Q 56.78125 9.90625 50.3125 4.234375 
Q 43.84375 -1.421875 31.78125 -1.421875 
Q 19.734375 -1.421875 13.25 4.234375 
Q 6.78125 9.90625 6.78125 20.515625 
Q 6.78125 27.484375 10.78125 32.3125 
Q 14.796875 37.15625 21.921875 38.8125 
z
M 18.3125 54.390625 
Q 18.3125 48.734375 21.84375 45.5625 
Q 25.390625 42.390625 31.78125 42.390625 
Q 38.140625 42.390625 41.71875 45.5625 
Q 45.3125 48.734375 45.3125 54.390625 
Q 45.3125 60.0625 41.71875 63.234375 
Q 38.140625 66.40625 31.78125 66.40625 
Q 25.390625 66.40625 21.84375 63.234375 
Q 18.3125 60.0625 18.3125 54.390625 
z
" id="DejaVuSans-38"/>
      </defs>
      <g transform="translate(27.240625 210.613772)scale(0.1 -0.1)">
       <use xlink:href="#DejaVuSans-38"/>
       <use x="63.623047" xlink:href="#DejaVuSans-30"/>
       <use x="127.246094" xlink:href="#DejaVuSans-30"/>
      </g>
     </g>
    </g>
    <g id="ytick_6">
     <g id="line2d_11">
      <g>
       <use style="stroke:#000000;stroke-width:0.8;" x="53.328125" xlink:href="#ma8f4f734c2" y="134.700394"/>
      </g>
     </g>
     <g id="text_12">
      <!-- 1000 -->
      <g transform="translate(20.878125 138.499612)scale(0.1 -0.1)">
       <use xlink:href="#DejaVuSans-31"/>
       <use x="63.623047" xlink:href="#DejaVuSans-30"/>
       <use x="127.246094" xlink:href="#DejaVuSans-30"/>
       <use x="190.869141" xlink:href="#DejaVuSans-30"/>
      </g>
     </g>
    </g>
    <g id="ytick_7">
     <g id="line2d_12">
      <g>
       <use style="stroke:#000000;stroke-width:0.8;" x="53.328125" xlink:href="#ma8f4f734c2" y="62.586234"/>
      </g>
     </g>
     <g id="text_13">
      <!-- 1200 -->
      <g transform="translate(20.878125 66.385453)scale(0.1 -0.1)">
       <use xlink:href="#DejaVuSans-31"/>
       <use x="63.623047" xlink:href="#DejaVuSans-32"/>
       <use x="127.246094" xlink:href="#DejaVuSans-30"/>
       <use x="190.869141" xlink:href="#DejaVuSans-30"/>
      </g>
     </g>
    </g>
    <g id="text_14">
     <!-- Refugees -->
     <defs>
      <path d="M 44.390625 34.1875 
Q 47.5625 33.109375 50.5625 29.59375 
Q 53.5625 26.078125 56.59375 19.921875 
L 66.609375 0 
L 56 0 
L 46.6875 18.703125 
Q 43.0625 26.03125 39.671875 28.421875 
Q 36.28125 30.8125 30.421875 30.8125 
L 19.671875 30.8125 
L 19.671875 0 
L 9.8125 0 
L 9.8125 72.90625 
L 32.078125 72.90625 
Q 44.578125 72.90625 50.734375 67.671875 
Q 56.890625 62.453125 56.890625 51.90625 
Q 56.890625 45.015625 53.6875 40.46875 
Q 50.484375 35.9375 44.390625 34.1875 
z
M 19.671875 64.796875 
L 19.671875 38.921875 
L 32.078125 38.921875 
Q 39.203125 38.921875 42.84375 42.21875 
Q 46.484375 45.515625 46.484375 51.90625 
Q 46.484375 58.296875 42.84375 61.546875 
Q 39.203125 64.796875 32.078125 64.796875 
z
" id="DejaVuSans-52"/>
      <path d="M 37.109375 75.984375 
L 37.109375 68.5 
L 28.515625 68.5 
Q 23.6875 68.5 21.796875 66.546875 
Q 19.921875 64.59375 19.921875 59.515625 
L 19.921875 54.6875 
L 34.71875 54.6875 
L 34.71875 47.703125 
L 19.921875 47.703125 
L 19.921875 0 
L 10.890625 0 
L 10.890625 47.703125 
L 2.296875 47.703125 
L 2.296875 54.6875 
L 10.890625 54.6875 
L 10.890625 58.5 
Q 10.890625 67.625 15.140625 71.796875 
Q 19.390625 75.984375 28.609375 75.984375 
z
" id="DejaVuSans-66"/>
      <path d="M 8.5 21.578125 
L 8.5 54.6875 
L 17.484375 54.6875 
L 17.484375 21.921875 
Q 17.484375 14.15625 20.5 10.265625 
Q 23.53125 6.390625 29.59375 6.390625 
Q 36.859375 6.390625 41.078125 11.03125 
Q 45.3125 15.671875 45.3125 23.6875 
L 45.3125 54.6875 
L 54.296875 54.6875 
L 54.296875 0 
L 45.3125 0 
L 45.3125 8.40625 
Q 42.046875 3.421875 37.71875 1 
Q 33.40625 -1.421875 27.6875 -1.421875 
Q 18.265625 -1.421875 13.375 4.4375 
Q 8.5 10.296875 8.5 21.578125 
z
M 31.109375 56 
z
" id="DejaVuSans-75"/>
      <path d="M 45.40625 27.984375 
Q 45.40625 37.75 41.375 43.109375 
Q 37.359375 48.484375 30.078125 48.484375 
Q 22.859375 48.484375 18.828125 43.109375 
Q 14.796875 37.75 14.796875 27.984375 
Q 14.796875 18.265625 18.828125 12.890625 
Q 22.859375 7.515625 30.078125 7.515625 
Q 37.359375 7.515625 41.375 12.890625 
Q 45.40625 18.265625 45.40625 27.984375 
z
M 54.390625 6.78125 
Q 54.390625 -7.171875 48.1875 -13.984375 
Q 42 -20.796875 29.203125 -20.796875 
Q 24.46875 -20.796875 20.265625 -20.09375 
Q 16.0625 -19.390625 12.109375 -17.921875 
L 12.109375 -9.1875 
Q 16.0625 -11.328125 19.921875 -12.34375 
Q 23.78125 -13.375 27.78125 -13.375 
Q 36.625 -13.375 41.015625 -8.765625 
Q 45.40625 -4.15625 45.40625 5.171875 
L 45.40625 9.625 
Q 42.625 4.78125 38.28125 2.390625 
Q 33.9375 0 27.875 0 
Q 17.828125 0 11.671875 7.65625 
Q 5.515625 15.328125 5.515625 27.984375 
Q 5.515625 40.671875 11.671875 48.328125 
Q 17.828125 56 27.875 56 
Q 33.9375 56 38.28125 53.609375 
Q 42.625 51.21875 45.40625 46.390625 
L 45.40625 54.6875 
L 54.390625 54.6875 
z
" id="DejaVuSans-67"/>
      <path d="M 44.28125 53.078125 
L 44.28125 44.578125 
Q 40.484375 46.53125 36.375 47.5 
Q 32.28125 48.484375 27.875 48.484375 
Q 21.1875 48.484375 17.84375 46.4375 
Q 14.5 44.390625 14.5 40.28125 
Q 14.5 37.15625 16.890625 35.375 
Q 19.28125 33.59375 26.515625 31.984375 
L 29.59375 31.296875 
Q 39.15625 29.25 43.1875 25.515625 
Q 47.21875 21.78125 47.21875 15.09375 
Q 47.21875 7.46875 41.1875 3.015625 
Q 35.15625 -1.421875 24.609375 -1.421875 
Q 20.21875 -1.421875 15.453125 -0.5625 
Q 10.6875 0.296875 5.421875 2 
L 5.421875 11.28125 
Q 10.40625 8.6875 15.234375 7.390625 
Q 20.0625 6.109375 24.8125 6.109375 
Q 31.15625 6.109375 34.5625 8.28125 
Q 37.984375 10.453125 37.984375 14.40625 
Q 37.984375 18.0625 35.515625 20.015625 
Q 33.0625 21.96875 24.703125 23.78125 
L 21.578125 24.515625 
Q 13.234375 26.265625 9.515625 29.90625 
Q 5.8125 33.546875 5.8125 39.890625 
Q 5.8125 47.609375 11.28125 51.796875 
Q 16.75 56 26.8125 56 
Q 31.78125 56 36.171875 55.265625 
Q 40.578125 54.546875 44.28125 53.078125 
z
" id="DejaVuSans-73"/>
     </defs>
     <g style="fill:#ff7f0e;" transform="translate(14.798437 283.588594)rotate(-90)scale(0.1 -0.1)">
      <use xlink:href="#DejaVuSans-52"/>
      <use x="69.419922" xlink:href="#DejaVuSans-65"/>
      <use x="130.943359" xlink:href="#DejaVuSans-66"/>
      <use x="166.148438" xlink:href="#DejaVuSans-75"/>
      <use x="229.527344" xlink:href="#DejaVuSans-67"/>
      <use x="293.003906" xlink:href="#DejaVuSans-65"/>
      <use x="354.527344" xlink:href="#DejaVuSans-65"/>
      <use x="416.050781" xlink:href="#DejaVuSans-73"/>
     </g>
    </g>
   </g>
   <g id="line2d_13">
    <path clip-path="url(#p1f114cf5fd)" d="M 104.055398 472.917789 
L 108.909682 471.879187 
L 113.763967 472.289423 
L 118.618251 473.882402 
L 123.472536 474.15979 
L 128.32682 470.54227 
L 133.181105 479.028024 
L 138.035389 478.015957 
L 142.889673 478.387704 
L 147.743958 480.018253 
L 152.598242 480.227325 
L 157.452527 476.720102 
L 162.306811 482.194087 
L 167.161096 481.195772 
L 172.01538 481.547578 
L 176.869665 483.197581 
L 181.723949 483.371271 
L 186.578234 479.921194 
L 191.432518 485.82821 
L 196.286803 484.84568 
L 201.141087 485.17459 
L 205.995372 486.846941 
L 210.849656 486.98 
L 215.703941 483.595529 
L 220.558225 476.900238 
L 225.41251 475.878932 
L 230.266794 476.264087 
L 235.121078 477.881549 
L 239.975363 478.114416 
L 244.829647 474.568782 
L 249.683932 471.933399 
L 254.538216 470.890522 
L 259.392501 471.306964 
L 264.246785 472.893892 
L 269.10107 473.182281 
L 273.955354 469.546989 
L 278.809639 471.143754 
L 283.663923 470.097446 
L 288.518208 470.518857 
L 293.372492 472.100929 
L 298.226777 472.39815 
L 303.081061 468.748607 
L 307.935346 478.41016 
L 312.78963 477.395409 
L 317.643914 477.771051 
L 322.498199 479.397794 
L 327.352483 479.613781 
L 332.206768 476.095403 
L 337.061052 471.857892 
L 341.915337 470.814687 
L 346.769621 471.231602 
L 351.623906 472.818064 
L 356.47819 473.1073 
L 361.332475 469.470648 
L 366.186759 471.25758 
L 371.041044 470.21177 
L 375.895328 470.632462 
L 380.749613 472.215234 
L 385.603897 472.511184 
L 390.458182 468.863695 
L 395.312466 472.74346 
L 400.16675 471.704101 
L 405.021035 472.115434 
L 409.875319 473.707344 
L 414.729604 473.986677 
L 419.583888 470.366009 
L 424.438173 471.856535 
L 429.292457 470.813325 
L 434.146742 471.230243 
L 439.001026 472.816703 
L 443.855311 473.105953 
L 448.709595 469.469278 
L 453.56388 472.950463 
L 458.418164 471.912 
L 463.272449 472.322033 
L 468.126733 473.915216 
L 472.981018 474.192235 
L 477.835302 470.575306 
L 482.689587 471.338933 
L 487.543871 470.293475 
L 492.398155 470.713662 
L 497.25244 472.296933 
L 502.106724 472.591967 
L 506.961009 468.945945 
L 511.815293 474.947202 
L 516.669578 473.917414 
L 521.523862 474.314865 
L 526.378147 475.920323 
L 531.232431 476.175024 
L 536.086716 472.594137 
L 540.941 460.614857 
L 545.795285 459.522828 
L 550.649569 460.010558 
L 555.503854 461.527906 
L 560.358138 461.942825 
L 565.212423 458.103227 
L 570.066707 468.990211 
L 574.920991 467.93455 
L 579.775276 468.36953 
L 584.62956 469.938362 
L 589.483845 470.259658 
L 594.338129 466.57124 
L 599.192414 472.407406 
L 604.046698 471.366585 
L 608.900983 471.780043 
L 613.755267 473.369882 
L 618.609552 473.652976 
L 623.463836 470.026241 
L 628.318121 458.133757 
L 633.172405 457.030953 
L 638.02669 457.534319 
L 642.880974 459.036408 
L 647.735259 459.479064 
L 652.589543 455.594675 
L 657.443827 447.102208 
L 662.298112 445.951486 
L 667.152396 446.524341 
L 672.006681 447.958608 
L 676.860965 448.524591 
L 681.71525 444.441067 
L 686.569534 446.974691 
L 691.423819 445.238757 
L 696.278103 445.690691 
L 701.132388 447.419001 
L 705.986672 448.542307 
L 710.840957 444.888936 
L 715.695241 455.729168 
L 720.549526 454.615911 
L 725.40381 455.134432 
L 730.258095 456.621732 
L 735.112379 457.09127 
L 739.966663 453.163479 
L 744.820948 458.101876 
L 749.675232 456.998921 
L 754.529517 457.502491 
L 759.383801 459.004384 
L 764.238086 459.447398 
L 769.09237 455.562434 
L 773.946655 447.102208 
L 778.800939 445.951486 
L 783.655224 446.524341 
L 788.509508 447.958608 
L 793.363793 448.524591 
L 798.218077 444.441067 
L 803.072362 401.701506 
L 807.926646 404.462269 
L 812.780931 405.802228 
L 817.635215 403.65768 
L 822.4895 399.904109 
L 827.343784 392.782407 
L 832.198068 385.215801 
L 837.052353 381.549253 
L 841.906637 375.014469 
L 846.760922 364.706676 
L 856.469491 348.45413 
L 861.323775 273.374549 
L 866.17806 228.750611 
L 871.032344 171.853028 
L 875.886629 112.272115 
L 880.740913 78.429386 
L 885.595198 62.487861 
L 890.449482 336.349666 
L 895.303767 313.873775 
L 900.158051 304.571889 
L 905.012336 300.01746 
L 909.86662 303.221465 
L 914.720904 308.379846 
L 919.575189 226.0449 
L 924.429473 220.534971 
L 929.283758 214.448403 
L 934.138042 198.235239 
L 938.992327 187.140117 
L 943.846611 178.784245 
L 948.700896 345.581359 
L 953.55518 347.078012 
L 958.409465 353.748891 
L 963.263749 357.42686 
L 968.118034 358.884494 
L 972.972318 357.486358 
L 977.826603 336.902561 
L 982.680887 334.169901 
L 987.535172 315.607481 
L 992.389456 285.047236 
L 997.24374 258.033872 
L 1002.098025 237.375481 
L 1006.952309 332.54084 
L 1011.806594 328.287782 
L 1016.660878 330.976129 
L 1021.515163 331.944349 
L 1026.369447 333.30855 
L 1031.223732 333.335707 
L 1036.078016 302.836444 
L 1040.932301 314.031932 
L 1045.786585 308.38482 
L 1050.64087 283.579556 
L 1055.495154 255.823153 
L 1060.349439 233.93945 
L 1065.203723 104.668658 
L 1070.058008 102.593395 
L 1074.912292 126.820918 
L 1079.766577 144.868847 
L 1084.620861 164.855349 
L 1089.475145 177.627421 
L 1094.32943 165.506441 
L 1099.183714 160.728482 
L 1104.037999 159.247289 
L 1108.892283 152.591409 
L 1113.746568 150.569998 
L 1118.600852 142.826045 
L 1118.600852 142.826045 
" style="fill:none;stroke:#008000;stroke-dasharray:5.55,2.4;stroke-dashoffset:0;stroke-width:1.5;"/>
   </g>
   <g id="line2d_14">
    <path clip-path="url(#p1f114cf5fd)" d="M 104.055398 476.160937 
L 108.909682 468.588951 
L 113.763967 462.459247 
L 118.618251 463.90153 
L 123.472536 458.853539 
L 128.32682 483.011783 
L 133.181105 473.636942 
L 138.035389 470.391805 
L 142.889673 475.800367 
L 147.743958 479.766645 
L 152.598242 474.718654 
L 157.452527 483.732924 
L 162.306811 477.24265 
L 167.161096 476.521508 
L 172.01538 479.045504 
L 176.869665 475.800367 
L 181.723949 477.603221 
L 186.578234 483.372353 
L 191.432518 470.752375 
L 196.286803 473.276371 
L 201.141087 480.487787 
L 205.995372 477.24265 
L 210.849656 471.834088 
L 215.703941 473.276371 
L 220.558225 472.9158 
L 225.41251 473.997513 
L 230.266794 473.276371 
L 235.121078 422.075318 
L 239.975363 473.997513 
L 244.829647 479.045504 
L 249.683932 472.9158 
L 254.538216 476.160937 
L 259.392501 472.9158 
L 264.246785 476.160937 
L 269.10107 473.636942 
L 273.955354 473.276371 
L 278.809639 470.752375 
L 283.663923 477.963791 
L 288.518208 471.834088 
L 293.372492 471.112946 
L 298.226777 479.045504 
L 303.081061 477.603221 
L 307.935346 469.310092 
L 312.78963 470.391805 
L 322.498199 478.324362 
L 327.352483 472.194659 
L 332.206768 476.882079 
L 337.061052 471.834088 
L 341.915337 473.997513 
L 346.769621 467.146668 
L 351.623906 459.21411 
L 356.47819 479.045504 
L 361.332475 470.031234 
L 366.186759 471.112946 
L 371.041044 473.276371 
L 375.895328 466.786097 
L 380.749613 469.670663 
L 385.603897 475.439796 
L 390.458182 475.439796 
L 395.312466 472.194659 
L 400.16675 475.439796 
L 405.021035 473.997513 
L 409.875319 476.160937 
L 414.729604 475.800367 
L 419.583888 466.425526 
L 424.438173 471.473517 
L 429.292457 481.569499 
L 434.146742 474.358083 
L 439.001026 479.406075 
L 443.855311 474.358083 
L 448.709595 475.079225 
L 453.56388 473.636942 
L 458.418164 476.160937 
L 463.272449 472.9158 
L 468.126733 480.127216 
L 472.981018 477.963791 
L 477.835302 460.656393 
L 482.689587 468.949521 
L 487.543871 467.867809 
L 492.398155 475.079225 
L 497.25244 476.882079 
L 502.106724 472.555229 
L 506.961009 479.045504 
L 511.815293 465.704384 
L 516.669578 474.718654 
L 521.523862 452.002694 
L 526.378147 461.016964 
L 531.232431 449.478699 
L 536.086716 463.90153 
L 540.941 454.52669 
L 545.795285 459.935252 
L 550.649569 467.507238 
L 560.358138 469.670663 
L 565.212423 477.603221 
L 570.066707 472.9158 
L 574.920991 473.636942 
L 579.775276 470.752375 
L 584.62956 469.310092 
L 589.483845 473.276371 
L 594.338129 470.752375 
L 599.192414 466.064955 
L 604.046698 471.473517 
L 608.900983 467.867809 
L 613.755267 470.031234 
L 618.609552 459.21411 
L 623.463836 453.444977 
L 628.318121 456.690114 
L 633.172405 467.867809 
L 638.02669 463.54096 
L 642.880974 453.444977 
L 647.735259 454.166119 
L 652.589543 459.21411 
L 657.443827 461.738106 
L 662.298112 456.329544 
L 667.152396 460.656393 
L 672.006681 461.738106 
L 681.71525 451.642123 
L 686.569534 450.19984 
L 691.423819 466.786097 
L 696.278103 455.247831 
L 701.132388 453.084406 
L 705.986672 454.166119 
L 710.840957 456.690114 
L 715.695241 461.738106 
L 720.549526 464.262101 
L 725.40381 453.444977 
L 730.258095 459.574681 
L 739.966663 459.574681 
L 744.820948 459.21411 
L 749.675232 454.88726 
L 754.529517 453.084406 
L 759.383801 436.49815 
L 764.238086 441.546141 
L 769.09237 449.839269 
L 773.946655 446.233561 
L 778.800939 436.49815 
L 783.655224 422.435889 
L 788.509508 441.906712 
L 793.363793 432.892442 
L 798.218077 410.897623 
L 803.072362 381.691389 
L 807.926646 395.032508 
L 812.780931 397.195933 
L 817.635215 385.657668 
L 822.4895 374.479973 
L 827.343784 395.75365 
L 832.198068 395.75365 
L 837.052353 391.06623 
L 841.906637 397.195933 
L 851.615206 370.513694 
L 856.469491 378.085681 
L 861.323775 361.138853 
L 866.17806 395.032508 
L 871.032344 383.854814 
L 875.886629 331.932619 
L 880.740913 360.778283 
L 885.595198 366.907986 
L 890.449482 351.403442 
L 895.303767 347.437163 
L 900.158051 309.9378 
L 905.012336 289.385265 
L 909.86662 296.957252 
L 914.720904 285.779557 
L 919.575189 298.760106 
L 924.429473 324.000062 
L 929.283758 312.461796 
L 934.138042 319.312641 
L 938.992327 334.096044 
L 943.846611 358.614858 
L 948.700896 319.673212 
L 953.55518 356.451433 
L 958.409465 367.629128 
L 963.263749 368.350269 
L 968.118034 361.859995 
L 972.972318 354.648579 
L 977.826603 355.369721 
L 982.680887 353.566867 
L 987.535172 323.639491 
L 992.389456 330.850907 
L 997.24374 347.437163 
L 1002.098025 350.6823 
L 1006.952309 338.422893 
L 1011.806594 352.124584 
L 1016.660878 333.014331 
L 1021.515163 319.673212 
L 1026.369447 324.000062 
L 1031.223732 309.57723 
L 1036.078016 360.057141 
L 1040.932301 348.879446 
L 1045.786585 318.230929 
L 1050.64087 305.25038 
L 1055.495154 220.516243 
L 1060.349439 179.771743 
L 1065.203723 142.27238 
L 1070.058008 55.014248 
L 1074.912292 102.249022 
L 1079.766577 113.787287 
L 1084.620861 183.01688 
L 1089.475145 220.876814 
L 1094.32943 190.949438 
L 1099.183714 33.38 
L 1104.037999 69.79765 
L 1108.892283 131.815827 
L 1113.746568 172.199756 
L 1118.600852 211.141402 
L 1118.600852 211.141402 
" style="fill:none;stroke:#ff7f0e;stroke-linecap:square;stroke-width:1.5;"/>
   </g>
   <g id="line2d_15">
    <defs>
     <path d="M 0 3 
C 0.795609 3 1.55874 2.683901 2.12132 2.12132 
C 2.683901 1.55874 3 0.795609 3 0 
C 3 -0.795609 2.683901 -1.55874 2.12132 -2.12132 
C 1.55874 -2.683901 0.795609 -3 0 -3 
C -0.795609 -3 -1.55874 -2.683901 -2.12132 -2.12132 
C -2.683901 -1.55874 -3 -0.795609 -3 0 
C -3 0.795609 -2.683901 1.55874 -2.12132 2.12132 
C -1.55874 2.683901 -0.795609 3 0 3 
z
" id="mf225b076c5" style="stroke:#008000;"/>
    </defs>
    <g clip-path="url(#p1f114cf5fd)">
     <use style="fill:#008000;stroke:#008000;" x="104.055398" xlink:href="#mf225b076c5" y="472.917789"/>
     <use style="fill:#008000;stroke:#008000;" x="133.181105" xlink:href="#mf225b076c5" y="479.028024"/>
     <use style="fill:#008000;stroke:#008000;" x="162.306811" xlink:href="#mf225b076c5" y="482.194087"/>
     <use style="fill:#008000;stroke:#008000;" x="191.432518" xlink:href="#mf225b076c5" y="485.82821"/>
     <use style="fill:#008000;stroke:#008000;" x="220.558225" xlink:href="#mf225b076c5" y="476.900238"/>
     <use style="fill:#008000;stroke:#008000;" x="249.683932" xlink:href="#mf225b076c5" y="471.933399"/>
     <use style="fill:#008000;stroke:#008000;" x="278.809639" xlink:href="#mf225b076c5" y="471.143754"/>
     <use style="fill:#008000;stroke:#008000;" x="307.935346" xlink:href="#mf225b076c5" y="478.41016"/>
     <use style="fill:#008000;stroke:#008000;" x="337.061052" xlink:href="#mf225b076c5" y="471.857892"/>
     <use style="fill:#008000;stroke:#008000;" x="366.186759" xlink:href="#mf225b076c5" y="471.25758"/>
     <use style="fill:#008000;stroke:#008000;" x="395.312466" xlink:href="#mf225b076c5" y="472.74346"/>
     <use style="fill:#008000;stroke:#008000;" x="424.438173" xlink:href="#mf225b076c5" y="471.856535"/>
     <use style="fill:#008000;stroke:#008000;" x="453.56388" xlink:href="#mf225b076c5" y="472.950463"/>
     <use style="fill:#008000;stroke:#008000;" x="482.689587" xlink:href="#mf225b076c5" y="471.338933"/>
     <use style="fill:#008000;stroke:#008000;" x="511.815293" xlink:href="#mf225b076c5" y="474.947202"/>
     <use style="fill:#008000;stroke:#008000;" x="540.941" xlink:href="#mf225b076c5" y="460.614857"/>
     <use style="fill:#008000;stroke:#008000;" x="570.066707" xlink:href="#mf225b076c5" y="468.990211"/>
     <use style="fill:#008000;stroke:#008000;" x="599.192414" xlink:href="#mf225b076c5" y="472.407406"/>
     <use style="fill:#008000;stroke:#008000;" x="628.318121" xlink:href="#mf225b076c5" y="458.133757"/>
     <use style="fill:#008000;stroke:#008000;" x="657.443827" xlink:href="#mf225b076c5" y="447.102208"/>
     <use style="fill:#008000;stroke:#008000;" x="686.569534" xlink:href="#mf225b076c5" y="446.974691"/>
     <use style="fill:#008000;stroke:#008000;" x="715.695241" xlink:href="#mf225b076c5" y="455.729168"/>
     <use style="fill:#008000;stroke:#008000;" x="744.820948" xlink:href="#mf225b076c5" y="458.101876"/>
     <use style="fill:#008000;stroke:#008000;" x="773.946655" xlink:href="#mf225b076c5" y="447.102208"/>
     <use style="fill:#008000;stroke:#008000;" x="803.072362" xlink:href="#mf225b076c5" y="401.701506"/>
     <use style="fill:#008000;stroke:#008000;" x="832.198068" xlink:href="#mf225b076c5" y="385.215801"/>
     <use style="fill:#008000;stroke:#008000;" x="861.323775" xlink:href="#mf225b076c5" y="273.374549"/>
     <use style="fill:#008000;stroke:#008000;" x="890.449482" xlink:href="#mf225b076c5" y="336.349666"/>
     <use style="fill:#008000;stroke:#008000;" x="919.575189" xlink:href="#mf225b076c5" y="226.0449"/>
     <use style="fill:#008000;stroke:#008000;" x="948.700896" xlink:href="#mf225b076c5" y="345.581359"/>
     <use style="fill:#008000;stroke:#008000;" x="977.826603" xlink:href="#mf225b076c5" y="336.902561"/>
     <use style="fill:#008000;stroke:#008000;" x="1006.952309" xlink:href="#mf225b076c5" y="332.54084"/>
     <use style="fill:#008000;stroke:#008000;" x="1036.078016" xlink:href="#mf225b076c5" y="302.836444"/>
     <use style="fill:#008000;stroke:#008000;" x="1065.203723" xlink:href="#mf225b076c5" y="104.668658"/>
     <use style="fill:#008000;stroke:#008000;" x="1094.32943" xlink:href="#mf225b076c5" y="165.506441"/>
    </g>
   </g>
   <g id="patch_3">
    <path d="M 53.328125 509.66 
L 53.328125 10.7 
" style="fill:none;stroke:#000000;stroke-linecap:square;stroke-linejoin:miter;stroke-width:0.8;"/>
   </g>
   <g id="patch_4">
    <path d="M 1169.328125 509.66 
L 1169.328125 10.7 
" style="fill:none;stroke:#000000;stroke-linecap:square;stroke-linejoin:miter;stroke-width:0.8;"/>
   </g>
   <g id="patch_5">
    <path d="M 53.328125 509.66 
L 1169.328125 509.66 
" style="fill:none;stroke:#000000;stroke-linecap:square;stroke-linejoin:miter;stroke-width:0.8;"/>
   </g>
   <g id="patch_6">
    <path d="M 53.328125 10.7 
L 1169.328125 10.7 
" style="fill:none;stroke:#000000;stroke-linecap:square;stroke-linejoin:miter;stroke-width:0.8;"/>
   </g>
   <g id="legend_1">
    <g id="patch_7">
     <path d="M 60.328125 62.734375 
L 208.103125 62.734375 
Q 210.103125 62.734375 210.103125 60.734375 
L 210.103125 17.7 
Q 210.103125 15.7 208.103125 15.7 
L 60.328125 15.7 
Q 58.328125 15.7 58.328125 17.7 
L 58.328125 60.734375 
Q 58.328125 62.734375 60.328125 62.734375 
z
" style="fill:#ffffff;opacity:0.8;stroke:#cccccc;stroke-linejoin:miter;"/>
    </g>
    <g id="line2d_16">
     <path d="M 62.328125 23.798437 
L 82.328125 23.798437 
" style="fill:none;stroke:#008000;stroke-dasharray:5.55,2.4;stroke-dashoffset:0;stroke-width:1.5;"/>
    </g>
    <g id="line2d_17"/>
    <g id="text_15">
     <!-- Predicted -->
     <defs>
      <path d="M 19.671875 64.796875 
L 19.671875 37.40625 
L 32.078125 37.40625 
Q 38.96875 37.40625 42.71875 40.96875 
Q 46.484375 44.53125 46.484375 51.125 
Q 46.484375 57.671875 42.71875 61.234375 
Q 38.96875 64.796875 32.078125 64.796875 
z
M 9.8125 72.90625 
L 32.078125 72.90625 
Q 44.34375 72.90625 50.609375 67.359375 
Q 56.890625 61.8125 56.890625 51.125 
Q 56.890625 40.328125 50.609375 34.8125 
Q 44.34375 29.296875 32.078125 29.296875 
L 19.671875 29.296875 
L 19.671875 0 
L 9.8125 0 
z
" id="DejaVuSans-50"/>
      <path d="M 41.109375 46.296875 
Q 39.59375 47.171875 37.8125 47.578125 
Q 36.03125 48 33.890625 48 
Q 26.265625 48 22.1875 43.046875 
Q 18.109375 38.09375 18.109375 28.8125 
L 18.109375 0 
L 9.078125 0 
L 9.078125 54.6875 
L 18.109375 54.6875 
L 18.109375 46.1875 
Q 20.953125 51.171875 25.484375 53.578125 
Q 30.03125 56 36.53125 56 
Q 37.453125 56 38.578125 55.875 
Q 39.703125 55.765625 41.0625 55.515625 
z
" id="DejaVuSans-72"/>
      <path d="M 45.40625 46.390625 
L 45.40625 75.984375 
L 54.390625 75.984375 
L 54.390625 0 
L 45.40625 0 
L 45.40625 8.203125 
Q 42.578125 3.328125 38.25 0.953125 
Q 33.9375 -1.421875 27.875 -1.421875 
Q 17.96875 -1.421875 11.734375 6.484375 
Q 5.515625 14.40625 5.515625 27.296875 
Q 5.515625 40.1875 11.734375 48.09375 
Q 17.96875 56 27.875 56 
Q 33.9375 56 38.25 53.625 
Q 42.578125 51.265625 45.40625 46.390625 
z
M 14.796875 27.296875 
Q 14.796875 17.390625 18.875 11.75 
Q 22.953125 6.109375 30.078125 6.109375 
Q 37.203125 6.109375 41.296875 11.75 
Q 45.40625 17.390625 45.40625 27.296875 
Q 45.40625 37.203125 41.296875 42.84375 
Q 37.203125 48.484375 30.078125 48.484375 
Q 22.953125 48.484375 18.875 42.84375 
Q 14.796875 37.203125 14.796875 27.296875 
z
" id="DejaVuSans-64"/>
      <path d="M 48.78125 52.59375 
L 48.78125 44.1875 
Q 44.96875 46.296875 41.140625 47.34375 
Q 37.3125 48.390625 33.40625 48.390625 
Q 24.65625 48.390625 19.8125 42.84375 
Q 14.984375 37.3125 14.984375 27.296875 
Q 14.984375 17.28125 19.8125 11.734375 
Q 24.65625 6.203125 33.40625 6.203125 
Q 37.3125 6.203125 41.140625 7.25 
Q 44.96875 8.296875 48.78125 10.40625 
L 48.78125 2.09375 
Q 45.015625 0.34375 40.984375 -0.53125 
Q 36.96875 -1.421875 32.421875 -1.421875 
Q 20.0625 -1.421875 12.78125 6.34375 
Q 5.515625 14.109375 5.515625 27.296875 
Q 5.515625 40.671875 12.859375 48.328125 
Q 20.21875 56 33.015625 56 
Q 37.15625 56 41.109375 55.140625 
Q 45.0625 54.296875 48.78125 52.59375 
z
" id="DejaVuSans-63"/>
      <path d="M 18.3125 70.21875 
L 18.3125 54.6875 
L 36.8125 54.6875 
L 36.8125 47.703125 
L 18.3125 47.703125 
L 18.3125 18.015625 
Q 18.3125 11.328125 20.140625 9.421875 
Q 21.96875 7.515625 27.59375 7.515625 
L 36.8125 7.515625 
L 36.8125 0 
L 27.59375 0 
Q 17.1875 0 13.234375 3.875 
Q 9.28125 7.765625 9.28125 18.015625 
L 9.28125 47.703125 
L 2.6875 47.703125 
L 2.6875 54.6875 
L 9.28125 54.6875 
L 9.28125 70.21875 
z
" id="DejaVuSans-74"/>
     </defs>
     <g transform="translate(90.328125 27.298437)scale(0.1 -0.1)">
      <use xlink:href="#DejaVuSans-50"/>
      <use x="60.287109" xlink:href="#DejaVuSans-72"/>
      <use x="101.369141" xlink:href="#DejaVuSans-65"/>
      <use x="162.892578" xlink:href="#DejaVuSans-64"/>
      <use x="226.369141" xlink:href="#DejaVuSans-69"/>
      <use x="254.152344" xlink:href="#DejaVuSans-63"/>
      <use x="309.132812" xlink:href="#DejaVuSans-74"/>
      <use x="348.341797" xlink:href="#DejaVuSans-65"/>
      <use x="409.865234" xlink:href="#DejaVuSans-64"/>
     </g>
    </g>
    <g id="line2d_18">
     <path d="M 62.328125 38.476562 
L 82.328125 38.476562 
" style="fill:none;stroke:#ff7f0e;stroke-linecap:square;stroke-width:1.5;"/>
    </g>
    <g id="line2d_19"/>
    <g id="text_16">
     <!-- Real Data -->
     <defs>
      <path d="M 34.28125 27.484375 
Q 23.390625 27.484375 19.1875 25 
Q 14.984375 22.515625 14.984375 16.5 
Q 14.984375 11.71875 18.140625 8.90625 
Q 21.296875 6.109375 26.703125 6.109375 
Q 34.1875 6.109375 38.703125 11.40625 
Q 43.21875 16.703125 43.21875 25.484375 
L 43.21875 27.484375 
z
M 52.203125 31.203125 
L 52.203125 0 
L 43.21875 0 
L 43.21875 8.296875 
Q 40.140625 3.328125 35.546875 0.953125 
Q 30.953125 -1.421875 24.3125 -1.421875 
Q 15.921875 -1.421875 10.953125 3.296875 
Q 6 8.015625 6 15.921875 
Q 6 25.140625 12.171875 29.828125 
Q 18.359375 34.515625 30.609375 34.515625 
L 43.21875 34.515625 
L 43.21875 35.40625 
Q 43.21875 41.609375 39.140625 45 
Q 35.0625 48.390625 27.6875 48.390625 
Q 23 48.390625 18.546875 47.265625 
Q 14.109375 46.140625 10.015625 43.890625 
L 10.015625 52.203125 
Q 14.9375 54.109375 19.578125 55.046875 
Q 24.21875 56 28.609375 56 
Q 40.484375 56 46.34375 49.84375 
Q 52.203125 43.703125 52.203125 31.203125 
z
" id="DejaVuSans-61"/>
      <path d="M 9.421875 75.984375 
L 18.40625 75.984375 
L 18.40625 0 
L 9.421875 0 
z
" id="DejaVuSans-6c"/>
      <path id="DejaVuSans-20"/>
      <path d="M 19.671875 64.796875 
L 19.671875 8.109375 
L 31.59375 8.109375 
Q 46.6875 8.109375 53.6875 14.9375 
Q 60.6875 21.78125 60.6875 36.53125 
Q 60.6875 51.171875 53.6875 57.984375 
Q 46.6875 64.796875 31.59375 64.796875 
z
M 9.8125 72.90625 
L 30.078125 72.90625 
Q 51.265625 72.90625 61.171875 64.09375 
Q 71.09375 55.28125 71.09375 36.53125 
Q 71.09375 17.671875 61.125 8.828125 
Q 51.171875 0 30.078125 0 
L 9.8125 0 
z
" id="DejaVuSans-44"/>
     </defs>
     <g transform="translate(90.328125 41.976562)scale(0.1 -0.1)">
      <use xlink:href="#DejaVuSans-52"/>
      <use x="69.419922" xlink:href="#DejaVuSans-65"/>
      <use x="130.943359" xlink:href="#DejaVuSans-61"/>
      <use x="192.222656" xlink:href="#DejaVuSans-6c"/>
      <use x="220.005859" xlink:href="#DejaVuSans-20"/>
      <use x="251.792969" xlink:href="#DejaVuSans-44"/>
      <use x="328.794922" xlink:href="#DejaVuSans-61"/>
      <use x="390.074219" xlink:href="#DejaVuSans-74"/>
      <use x="429.283203" xlink:href="#DejaVuSans-61"/>
     </g>
    </g>
    <g id="line2d_20"/>
    <g id="line2d_21">
     <g>
      <use style="fill:#008000;stroke:#008000;" x="72.328125" xlink:href="#mf225b076c5" y="53.154688"/>
     </g>
    </g>
    <g id="text_17">
     <!-- Start Point for Forecast -->
     <defs>
      <path d="M 53.515625 70.515625 
L 53.515625 60.890625 
Q 47.90625 63.578125 42.921875 64.890625 
Q 37.9375 66.21875 33.296875 66.21875 
Q 25.25 66.21875 20.875 63.09375 
Q 16.5 59.96875 16.5 54.203125 
Q 16.5 49.359375 19.40625 46.890625 
Q 22.3125 44.4375 30.421875 42.921875 
L 36.375 41.703125 
Q 47.40625 39.59375 52.65625 34.296875 
Q 57.90625 29 57.90625 20.125 
Q 57.90625 9.515625 50.796875 4.046875 
Q 43.703125 -1.421875 29.984375 -1.421875 
Q 24.8125 -1.421875 18.96875 -0.25 
Q 13.140625 0.921875 6.890625 3.21875 
L 6.890625 13.375 
Q 12.890625 10.015625 18.65625 8.296875 
Q 24.421875 6.59375 29.984375 6.59375 
Q 38.421875 6.59375 43.015625 9.90625 
Q 47.609375 13.234375 47.609375 19.390625 
Q 47.609375 24.75 44.3125 27.78125 
Q 41.015625 30.8125 33.5 32.328125 
L 27.484375 33.5 
Q 16.453125 35.6875 11.515625 40.375 
Q 6.59375 45.0625 6.59375 53.421875 
Q 6.59375 63.09375 13.40625 68.65625 
Q 20.21875 74.21875 32.171875 74.21875 
Q 37.3125 74.21875 42.625 73.28125 
Q 47.953125 72.359375 53.515625 70.515625 
z
" id="DejaVuSans-53"/>
      <path d="M 30.609375 48.390625 
Q 23.390625 48.390625 19.1875 42.75 
Q 14.984375 37.109375 14.984375 27.296875 
Q 14.984375 17.484375 19.15625 11.84375 
Q 23.34375 6.203125 30.609375 6.203125 
Q 37.796875 6.203125 41.984375 11.859375 
Q 46.1875 17.53125 46.1875 27.296875 
Q 46.1875 37.015625 41.984375 42.703125 
Q 37.796875 48.390625 30.609375 48.390625 
z
M 30.609375 56 
Q 42.328125 56 49.015625 48.375 
Q 55.71875 40.765625 55.71875 27.296875 
Q 55.71875 13.875 49.015625 6.21875 
Q 42.328125 -1.421875 30.609375 -1.421875 
Q 18.84375 -1.421875 12.171875 6.21875 
Q 5.515625 13.875 5.515625 27.296875 
Q 5.515625 40.765625 12.171875 48.375 
Q 18.84375 56 30.609375 56 
z
" id="DejaVuSans-6f"/>
      <path d="M 54.890625 33.015625 
L 54.890625 0 
L 45.90625 0 
L 45.90625 32.71875 
Q 45.90625 40.484375 42.875 44.328125 
Q 39.84375 48.1875 33.796875 48.1875 
Q 26.515625 48.1875 22.3125 43.546875 
Q 18.109375 38.921875 18.109375 30.90625 
L 18.109375 0 
L 9.078125 0 
L 9.078125 54.6875 
L 18.109375 54.6875 
L 18.109375 46.1875 
Q 21.34375 51.125 25.703125 53.5625 
Q 30.078125 56 35.796875 56 
Q 45.21875 56 50.046875 50.171875 
Q 54.890625 44.34375 54.890625 33.015625 
z
" id="DejaVuSans-6e"/>
      <path d="M 9.8125 72.90625 
L 51.703125 72.90625 
L 51.703125 64.59375 
L 19.671875 64.59375 
L 19.671875 43.109375 
L 48.578125 43.109375 
L 48.578125 34.8125 
L 19.671875 34.8125 
L 19.671875 0 
L 9.8125 0 
z
" id="DejaVuSans-46"/>
     </defs>
     <g transform="translate(90.328125 56.654688)scale(0.1 -0.1)">
      <use xlink:href="#DejaVuSans-53"/>
      <use x="63.476562" xlink:href="#DejaVuSans-74"/>
      <use x="102.685547" xlink:href="#DejaVuSans-61"/>
      <use x="163.964844" xlink:href="#DejaVuSans-72"/>
      <use x="205.078125" xlink:href="#DejaVuSans-74"/>
      <use x="244.287109" xlink:href="#DejaVuSans-20"/>
      <use x="276.074219" xlink:href="#DejaVuSans-50"/>
      <use x="336.330078" xlink:href="#DejaVuSans-6f"/>
      <use x="397.511719" xlink:href="#DejaVuSans-69"/>
      <use x="425.294922" xlink:href="#DejaVuSans-6e"/>
      <use x="488.673828" xlink:href="#DejaVuSans-74"/>
      <use x="527.882812" xlink:href="#DejaVuSans-20"/>
      <use x="559.669922" xlink:href="#DejaVuSans-66"/>
      <use x="594.875" xlink:href="#DejaVuSans-6f"/>
      <use x="656.056641" xlink:href="#DejaVuSans-72"/>
      <use x="697.169922" xlink:href="#DejaVuSans-20"/>
      <use x="728.957031" xlink:href="#DejaVuSans-46"/>
      <use x="786.429688" xlink:href="#DejaVuSans-6f"/>
      <use x="847.611328" xlink:href="#DejaVuSans-72"/>
      <use x="888.693359" xlink:href="#DejaVuSans-65"/>
      <use x="950.216797" xlink:href="#DejaVuSans-63"/>
      <use x="1005.197266" xlink:href="#DejaVuSans-61"/>
      <use x="1066.476562" xlink:href="#DejaVuSans-73"/>
      <use x="1118.576172" xlink:href="#DejaVuSans-74"/>
     </g>
    </g>
   </g>
  </g>
  <g id="axes_2">
   <g id="patch_8">
    <path d="M 53.328125 645.74 
L 1170.768125 645.74 
L 1170.768125 516.14 
L 53.328125 516.14 
z
" style="fill:none;"/>
   </g>
   <g id="matplotlib.axis_3">
    <g id="xtick_6">
     <g id="line2d_22">
      <g>
       <use style="stroke:#000000;stroke-width:0.8;" x="104.120852" xlink:href="#m2f9cb02845" y="645.74"/>
      </g>
     </g>
     <g id="text_18">
      <!-- 0 -->
      <g transform="translate(100.939602 660.338437)scale(0.1 -0.1)">
       <use xlink:href="#DejaVuSans-30"/>
      </g>
     </g>
    </g>
    <g id="xtick_7">
     <g id="line2d_23">
      <g>
       <use style="stroke:#000000;stroke-width:0.8;" x="228.612831" xlink:href="#m2f9cb02845" y="645.74"/>
      </g>
     </g>
     <g id="text_19">
      <!-- 25 -->
      <g transform="translate(222.250331 660.338437)scale(0.1 -0.1)">
       <use xlink:href="#DejaVuSans-32"/>
       <use x="63.623047" xlink:href="#DejaVuSans-35"/>
      </g>
     </g>
    </g>
    <g id="xtick_8">
     <g id="line2d_24">
      <g>
       <use style="stroke:#000000;stroke-width:0.8;" x="353.104809" xlink:href="#m2f9cb02845" y="645.74"/>
      </g>
     </g>
     <g id="text_20">
      <!-- 50 -->
      <g transform="translate(346.742309 660.338437)scale(0.1 -0.1)">
       <use xlink:href="#DejaVuSans-35"/>
       <use x="63.623047" xlink:href="#DejaVuSans-30"/>
      </g>
     </g>
    </g>
    <g id="xtick_9">
     <g id="line2d_25">
      <g>
       <use style="stroke:#000000;stroke-width:0.8;" x="477.596788" xlink:href="#m2f9cb02845" y="645.74"/>
      </g>
     </g>
     <g id="text_21">
      <!-- 75 -->
      <defs>
       <path d="M 8.203125 72.90625 
L 55.078125 72.90625 
L 55.078125 68.703125 
L 28.609375 0 
L 18.3125 0 
L 43.21875 64.59375 
L 8.203125 64.59375 
z
" id="DejaVuSans-37"/>
      </defs>
      <g transform="translate(471.234288 660.338437)scale(0.1 -0.1)">
       <use xlink:href="#DejaVuSans-37"/>
       <use x="63.623047" xlink:href="#DejaVuSans-35"/>
      </g>
     </g>
    </g>
    <g id="xtick_10">
     <g id="line2d_26">
      <g>
       <use style="stroke:#000000;stroke-width:0.8;" x="602.088767" xlink:href="#m2f9cb02845" y="645.74"/>
      </g>
     </g>
     <g id="text_22">
      <!-- 100 -->
      <g transform="translate(592.545017 660.338437)scale(0.1 -0.1)">
       <use xlink:href="#DejaVuSans-31"/>
       <use x="63.623047" xlink:href="#DejaVuSans-30"/>
       <use x="127.246094" xlink:href="#DejaVuSans-30"/>
      </g>
     </g>
    </g>
    <g id="xtick_11">
     <g id="line2d_27">
      <g>
       <use style="stroke:#000000;stroke-width:0.8;" x="726.580745" xlink:href="#m2f9cb02845" y="645.74"/>
      </g>
     </g>
     <g id="text_23">
      <!-- 125 -->
      <g transform="translate(717.036995 660.338437)scale(0.1 -0.1)">
       <use xlink:href="#DejaVuSans-31"/>
       <use x="63.623047" xlink:href="#DejaVuSans-32"/>
       <use x="127.246094" xlink:href="#DejaVuSans-35"/>
      </g>
     </g>
    </g>
    <g id="xtick_12">
     <g id="line2d_28">
      <g>
       <use style="stroke:#000000;stroke-width:0.8;" x="851.072724" xlink:href="#m2f9cb02845" y="645.74"/>
      </g>
     </g>
     <g id="text_24">
      <!-- 150 -->
      <g transform="translate(841.528974 660.338437)scale(0.1 -0.1)">
       <use xlink:href="#DejaVuSans-31"/>
       <use x="63.623047" xlink:href="#DejaVuSans-35"/>
       <use x="127.246094" xlink:href="#DejaVuSans-30"/>
      </g>
     </g>
    </g>
    <g id="xtick_13">
     <g id="line2d_29">
      <g>
       <use style="stroke:#000000;stroke-width:0.8;" x="975.564703" xlink:href="#m2f9cb02845" y="645.74"/>
      </g>
     </g>
     <g id="text_25">
      <!-- 175 -->
      <g transform="translate(966.020953 660.338437)scale(0.1 -0.1)">
       <use xlink:href="#DejaVuSans-31"/>
       <use x="63.623047" xlink:href="#DejaVuSans-37"/>
       <use x="127.246094" xlink:href="#DejaVuSans-35"/>
      </g>
     </g>
    </g>
    <g id="xtick_14">
     <g id="line2d_30">
      <g>
       <use style="stroke:#000000;stroke-width:0.8;" x="1100.056681" xlink:href="#m2f9cb02845" y="645.74"/>
      </g>
     </g>
     <g id="text_26">
      <!-- 200 -->
      <g transform="translate(1090.512931 660.338437)scale(0.1 -0.1)">
       <use xlink:href="#DejaVuSans-32"/>
       <use x="63.623047" xlink:href="#DejaVuSans-30"/>
       <use x="127.246094" xlink:href="#DejaVuSans-30"/>
      </g>
     </g>
    </g>
   </g>
   <g id="matplotlib.axis_4">
    <g id="ytick_8">
     <g id="line2d_31">
      <g>
       <use style="stroke:#000000;stroke-width:0.8;" x="53.328125" xlink:href="#ma8f4f734c2" y="636.847106"/>
      </g>
     </g>
     <g id="text_27">
      <!-- 0 -->
      <g transform="translate(39.965625 640.646324)scale(0.1 -0.1)">
       <use xlink:href="#DejaVuSans-30"/>
      </g>
     </g>
    </g>
    <g id="ytick_9">
     <g id="line2d_32">
      <g>
       <use style="stroke:#000000;stroke-width:0.8;" x="53.328125" xlink:href="#ma8f4f734c2" y="603.267853"/>
      </g>
     </g>
     <g id="text_28">
      <!-- 10 -->
      <g transform="translate(33.603125 607.067071)scale(0.1 -0.1)">
       <use xlink:href="#DejaVuSans-31"/>
       <use x="63.623047" xlink:href="#DejaVuSans-30"/>
      </g>
     </g>
    </g>
    <g id="ytick_10">
     <g id="line2d_33">
      <g>
       <use style="stroke:#000000;stroke-width:0.8;" x="53.328125" xlink:href="#ma8f4f734c2" y="569.6886"/>
      </g>
     </g>
     <g id="text_29">
      <!-- 20 -->
      <g transform="translate(33.603125 573.487818)scale(0.1 -0.1)">
       <use xlink:href="#DejaVuSans-32"/>
       <use x="63.623047" xlink:href="#DejaVuSans-30"/>
      </g>
     </g>
    </g>
    <g id="ytick_11">
     <g id="line2d_34">
      <g>
       <use style="stroke:#000000;stroke-width:0.8;" x="53.328125" xlink:href="#ma8f4f734c2" y="536.109347"/>
      </g>
     </g>
     <g id="text_30">
      <!-- 30 -->
      <defs>
       <path d="M 40.578125 39.3125 
Q 47.65625 37.796875 51.625 33 
Q 55.609375 28.21875 55.609375 21.1875 
Q 55.609375 10.40625 48.1875 4.484375 
Q 40.765625 -1.421875 27.09375 -1.421875 
Q 22.515625 -1.421875 17.65625 -0.515625 
Q 12.796875 0.390625 7.625 2.203125 
L 7.625 11.71875 
Q 11.71875 9.328125 16.59375 8.109375 
Q 21.484375 6.890625 26.8125 6.890625 
Q 36.078125 6.890625 40.9375 10.546875 
Q 45.796875 14.203125 45.796875 21.1875 
Q 45.796875 27.640625 41.28125 31.265625 
Q 36.765625 34.90625 28.71875 34.90625 
L 20.21875 34.90625 
L 20.21875 43.015625 
L 29.109375 43.015625 
Q 36.375 43.015625 40.234375 45.921875 
Q 44.09375 48.828125 44.09375 54.296875 
Q 44.09375 59.90625 40.109375 62.90625 
Q 36.140625 65.921875 28.71875 65.921875 
Q 24.65625 65.921875 20.015625 65.03125 
Q 15.375 64.15625 9.8125 62.3125 
L 9.8125 71.09375 
Q 15.4375 72.65625 20.34375 73.4375 
Q 25.25 74.21875 29.59375 74.21875 
Q 40.828125 74.21875 47.359375 69.109375 
Q 53.90625 64.015625 53.90625 55.328125 
Q 53.90625 49.265625 50.4375 45.09375 
Q 46.96875 40.921875 40.578125 39.3125 
z
" id="DejaVuSans-33"/>
      </defs>
      <g transform="translate(33.603125 539.908565)scale(0.1 -0.1)">
       <use xlink:href="#DejaVuSans-33"/>
       <use x="63.623047" xlink:href="#DejaVuSans-30"/>
      </g>
     </g>
    </g>
    <g id="text_31">
     <!-- Temperature -->
     <defs>
      <path d="M 18.109375 8.203125 
L 18.109375 -20.796875 
L 9.078125 -20.796875 
L 9.078125 54.6875 
L 18.109375 54.6875 
L 18.109375 46.390625 
Q 20.953125 51.265625 25.265625 53.625 
Q 29.59375 56 35.59375 56 
Q 45.5625 56 51.78125 48.09375 
Q 58.015625 40.1875 58.015625 27.296875 
Q 58.015625 14.40625 51.78125 6.484375 
Q 45.5625 -1.421875 35.59375 -1.421875 
Q 29.59375 -1.421875 25.265625 0.953125 
Q 20.953125 3.328125 18.109375 8.203125 
z
M 48.6875 27.296875 
Q 48.6875 37.203125 44.609375 42.84375 
Q 40.53125 48.484375 33.40625 48.484375 
Q 26.265625 48.484375 22.1875 42.84375 
Q 18.109375 37.203125 18.109375 27.296875 
Q 18.109375 17.390625 22.1875 11.75 
Q 26.265625 6.109375 33.40625 6.109375 
Q 40.53125 6.109375 44.609375 11.75 
Q 48.6875 17.390625 48.6875 27.296875 
z
" id="DejaVuSans-70"/>
     </defs>
     <g style="fill:#0000ff;" transform="translate(27.523437 613.557187)rotate(-90)scale(0.1 -0.1)">
      <use xlink:href="#DejaVuSans-54"/>
      <use x="60.818359" xlink:href="#DejaVuSans-65"/>
      <use x="122.341797" xlink:href="#DejaVuSans-6d"/>
      <use x="219.753906" xlink:href="#DejaVuSans-70"/>
      <use x="283.230469" xlink:href="#DejaVuSans-65"/>
      <use x="344.753906" xlink:href="#DejaVuSans-72"/>
      <use x="385.867188" xlink:href="#DejaVuSans-61"/>
      <use x="447.146484" xlink:href="#DejaVuSans-74"/>
      <use x="486.355469" xlink:href="#DejaVuSans-75"/>
      <use x="549.734375" xlink:href="#DejaVuSans-72"/>
      <use x="590.816406" xlink:href="#DejaVuSans-65"/>
     </g>
    </g>
   </g>
   <g id="line2d_35">
    <path clip-path="url(#p9d20f0041c)" d="M 104.120852 530.146007 
L 109.100531 530.565748 
L 114.080211 542.855419 
L 119.05989 553.512466 
L 124.039569 570.512299 
L 129.019248 577.771797 
L 133.998927 581.627032 
L 138.978606 566.619456 
L 143.958285 560.464715 
L 148.937965 566.022753 
L 153.917644 554.249867 
L 158.897323 536.268848 
L 163.877002 529.143666 
L 168.856681 528.431115 
L 173.83636 539.391383 
L 178.816039 558.503351 
L 183.795719 569.495183 
L 188.775398 573.386347 
L 193.755077 577.497455 
L 198.734756 572.829603 
L 203.714435 560.001321 
L 208.694114 558.673933 
L 213.673793 553.714613 
L 218.653473 534.867586 
L 228.612831 531.50731 
L 233.59251 542.869858 
L 238.572189 545.229808 
L 243.551868 568.354496 
L 248.531547 571.764805 
L 253.511227 571.63754 
L 258.490906 567.293056 
L 263.470585 566.071778 
L 268.450264 565.995889 
L 273.429943 554.754227 
L 278.409622 541.81782 
L 283.389301 532.501928 
L 288.368981 535.174836 
L 293.34866 540.608967 
L 298.328339 547.979948 
L 303.308018 565.018061 
L 308.287697 572.036125 
L 313.267376 579.81711 
L 318.247055 578.154265 
L 323.226735 564.853187 
L 328.206414 563.558371 
L 333.186093 547.418503 
L 338.165772 536.610685 
L 343.145451 527.487873 
L 348.12513 528.448912 
L 353.104809 538.491795 
L 358.084489 556.981539 
L 363.064168 570.743996 
L 368.043847 577.791273 
L 373.023526 576.482018 
L 378.003205 572.14425 
L 382.982884 569.413921 
L 387.962564 563.945204 
L 392.942243 561.39889 
L 397.921922 536.484763 
L 402.901601 527.349863 
L 407.88128 527.52011 
L 412.860959 535.550924 
L 417.840638 548.34932 
L 422.820318 568.077467 
L 427.799997 581.096479 
L 432.779676 581.936968 
L 437.759355 583.263684 
L 442.739034 566.608039 
L 447.718713 559.813277 
L 452.698392 546.641144 
L 457.678072 535.847429 
L 462.657751 530.806175 
L 467.63743 527.498283 
L 472.617109 538.404153 
L 477.596788 549.887922 
L 482.576467 569.579803 
L 487.556146 578.773131 
L 492.535826 587.165258 
L 497.515505 582.24489 
L 502.495184 565.888436 
L 507.474863 558.437535 
L 512.454542 547.443016 
L 517.434221 540.635158 
L 522.4139 527.081229 
L 527.39358 528.794106 
L 532.373259 537.233244 
L 537.352938 544.487035 
L 542.332617 560.325697 
L 547.312296 580.054515 
L 552.291975 575.054564 
L 557.271654 572.098583 
L 562.251334 567.396816 
L 567.231013 567.417299 
L 572.210692 552.671642 
L 577.190371 541.804724 
L 582.17005 528.053348 
L 587.149729 531.445188 
L 592.129408 540.973973 
L 597.109088 551.450364 
L 602.088767 564.68059 
L 607.068446 575.850728 
L 612.048125 575.011583 
L 617.027804 570.729557 
L 622.007483 565.485485 
L 626.987162 553.449001 
L 631.966842 556.077921 
L 636.946521 535.292028 
L 641.9262 528.854213 
L 646.905879 528.877047 
L 651.885558 541.275515 
L 656.865237 559.855923 
L 661.844916 575.532733 
L 666.824596 582.530313 
L 671.804275 585.055473 
L 681.763633 567.142285 
L 686.743312 563.892149 
L 696.70267 534.835014 
L 701.68235 522.030909 
L 706.662029 528.102038 
L 711.641708 543.961519 
L 716.621387 542.306734 
L 721.601066 556.570193 
L 726.580745 568.70775 
L 731.560424 577.12036 
L 736.540104 571.690931 
L 741.519783 566.786681 
L 746.499462 558.117861 
L 751.479141 552.630339 
L 756.45882 543.907457 
L 761.438499 527.675246 
L 766.418178 524.692401 
L 771.397858 536.550914 
L 776.377537 554.049063 
L 781.357216 568.04691 
L 786.336895 570.521365 
L 791.316574 575.206343 
L 796.296253 575.788271 
L 801.275932 571.142246 
L 806.255612 556.42681 
L 811.235291 548.409763 
L 816.21497 533.696006 
L 821.194649 530.271594 
L 826.174328 529.901214 
L 831.154007 537.408528 
L 836.133686 546.154916 
L 841.113366 568.271219 
L 846.093045 575.326892 
L 856.052403 582.49069 
L 861.032082 564.164141 
L 866.011761 568.903853 
L 870.991441 544.280186 
L 875.97112 534.612048 
L 880.950799 526.163508 
L 885.930478 526.876731 
L 890.910157 539.296354 
L 895.889836 550.748558 
L 900.869515 566.674526 
L 905.849195 573.322882 
L 910.828874 575.785249 
L 915.808553 575.981688 
L 920.788232 568.614399 
L 925.767911 559.909314 
L 930.74759 554.05645 
L 935.727269 541.531053 
L 940.706949 529.619484 
L 945.686628 523.727333 
L 950.666307 541.022327 
L 955.645986 545.610261 
L 960.625665 565.041567 
L 965.605344 574.880624 
L 970.585023 577.24964 
L 975.564703 576.196931 
L 980.544382 568.449189 
L 985.524061 553.730731 
L 990.50374 544.863458 
L 995.483419 540.914538 
L 1000.463098 533.971356 
L 1005.442777 527.589619 
L 1010.422457 538.780912 
L 1015.402136 540.469277 
L 1020.381815 566.029133 
L 1025.361494 577.663336 
L 1035.320852 582.06054 
L 1040.300531 567.806147 
L 1045.280211 559.871369 
L 1050.25989 541.744953 
L 1055.239569 539.262439 
L 1060.219248 523.238083 
L 1065.198927 529.724252 
L 1070.178606 540.93435 
L 1075.158285 548.049457 
L 1080.137965 561.206145 
L 1085.117644 564.872327 
L 1090.097323 567.562361 
L 1095.077002 573.012274 
L 1100.056681 571.26716 
L 1105.03636 560.44591 
L 1110.016039 552.225373 
L 1114.995719 537.091204 
L 1119.975398 526.528178 
L 1119.975398 526.528178 
" style="fill:none;stroke:#ff0000;stroke-linecap:square;stroke-width:1.5;"/>
   </g>
   <g id="line2d_36">
    <path clip-path="url(#p9d20f0041c)" d="M 104.120852 554.18976 
L 109.100531 552.124971 
L 114.080211 561.159469 
L 119.05989 569.49787 
L 124.039569 588.387207 
L 129.019248 595.622193 
L 133.998927 601.386407 
L 138.978606 589.294182 
L 143.958285 581.532674 
L 148.937965 583.889937 
L 153.917644 571.787303 
L 158.897323 557.480526 
L 163.877002 553.828111 
L 168.856681 550.639761 
L 173.83636 559.726307 
L 178.816039 576.694575 
L 183.795719 587.337855 
L 188.775398 591.077241 
L 193.755077 594.146384 
L 198.734756 592.610134 
L 203.714435 580.40609 
L 208.694114 578.600533 
L 213.673793 573.056263 
L 218.653473 559.063452 
L 223.633152 555.149791 
L 228.612831 552.723018 
L 233.59251 561.237709 
L 238.572189 564.961984 
L 243.551868 585.122296 
L 248.531547 588.613867 
L 253.511227 590.778721 
L 258.490906 588.399967 
L 263.470585 585.234786 
L 268.450264 582.498413 
L 273.429943 573.587487 
L 278.409622 562.980808 
L 283.389301 555.573561 
L 288.368981 556.079264 
L 293.34866 560.86733 
L 298.328339 567.484458 
L 303.308018 582.654892 
L 308.287697 588.913729 
L 313.267376 597.765892 
L 318.247055 596.186996 
L 323.226735 583.396658 
L 328.206414 580.953767 
L 333.186093 567.922331 
L 338.165772 557.553393 
L 343.145451 550.94231 
L 348.12513 548.646497 
L 353.104809 557.755541 
L 358.084489 573.362506 
L 363.064168 587.660552 
L 368.043847 593.987555 
L 373.023526 594.96874 
L 378.003205 590.795175 
L 382.982884 588.515815 
L 387.962564 582.185119 
L 392.942243 577.283219 
L 397.921922 556.836476 
L 402.901601 550.777436 
L 407.88128 549.503103 
L 412.860959 557.03493 
L 417.840638 567.77156 
L 422.820318 586.846591 
L 427.799997 597.922707 
L 432.779676 603.707405 
L 437.759355 601.961956 
L 442.739034 584.612227 
L 447.718713 579.389646 
L 452.698392 567.618103 
L 457.678072 555.245827 
L 462.657751 551.676353 
L 467.63743 551.054801 
L 472.617109 558.859291 
L 477.596788 568.148655 
L 482.576467 586.891923 
L 487.556146 596.649382 
L 492.535826 602.992839 
L 497.515505 598.073814 
L 502.495184 586.650488 
L 507.474863 577.068312 
L 512.454542 566.754445 
L 517.434221 559.414356 
L 522.4139 550.125998 
L 527.39358 550.142788 
L 532.373259 556.358308 
L 537.352938 566.197365 
L 542.332617 578.386634 
L 547.312296 598.226935 
L 552.291975 597.874353 
L 557.271654 589.957708 
L 562.251334 587.969145 
L 567.231013 583.452736 
L 572.210692 572.658685 
L 577.190371 560.726633 
L 582.17005 551.587368 
L 587.149729 552.753239 
L 592.129408 560.268948 
L 597.109088 570.092222 
L 602.088767 584.347958 
L 607.068446 595.743749 
L 612.048125 594.995268 
L 617.027804 588.558797 
L 622.007483 585.934914 
L 626.987162 574.470621 
L 631.966842 573.905482 
L 636.946521 558.148082 
L 641.9262 551.795223 
L 646.905879 551.509128 
L 651.885558 559.917709 
L 656.865237 575.255032 
L 661.844916 592.304562 
L 666.824596 598.856882 
L 671.804275 600.47238 
L 676.783954 594.909305 
L 681.763633 584.504773 
L 686.743312 583.642458 
L 691.722991 569.085181 
L 696.70267 557.127944 
L 701.68235 546.158946 
L 706.662029 549.54407 
L 711.641708 561.197078 
L 716.621387 563.996916 
L 721.601066 577.717399 
L 726.580745 586.924159 
L 731.560424 593.12356 
L 736.540104 586.31033 
L 741.519783 583.561196 
L 746.499462 575.776182 
L 751.479141 571.097921 
L 756.45882 562.494245 
L 761.438499 549.346288 
L 766.418178 545.182125 
L 771.397858 554.790828 
L 776.377537 571.216456 
L 781.357216 584.577305 
L 786.336895 588.017163 
L 791.316574 594.421398 
L 796.296253 595.731661 
L 801.275932 589.01984 
L 806.255612 574.401112 
L 811.235291 566.202737 
L 816.21497 553.391581 
L 821.194649 552.268019 
L 826.174328 551.02928 
L 831.154007 557.527873 
L 836.133686 566.449881 
L 841.113366 584.795234 
L 846.093045 596.337095 
L 851.072724 599.805832 
L 856.052403 601.85148 
L 861.032082 583.924524 
L 866.011761 584.377172 
L 870.991441 565.007652 
L 875.97112 556.064825 
L 880.950799 551.163262 
L 885.930478 551.002753 
L 890.910157 557.785426 
L 895.889836 568.06605 
L 900.869515 581.931595 
L 905.849195 593.586282 
L 910.828874 595.096677 
L 915.808553 594.28238 
L 920.788232 584.510146 
L 925.767911 578.047147 
L 930.74759 572.63115 
L 935.727269 561.758859 
L 940.706949 551.707246 
L 945.686628 548.829839 
L 950.666307 558.385487 
L 955.645986 565.255467 
L 960.625665 583.67906 
L 965.605344 593.68702 
L 970.585023 594.279358 
L 975.564703 592.741428 
L 980.544382 586.405695 
L 985.524061 574.571695 
L 990.50374 565.002279 
L 995.483419 559.757871 
L 1005.442777 550.602488 
L 1010.422457 556.346219 
L 1015.402136 561.392509 
L 1020.381815 580.963505 
L 1025.361494 594.752154 
L 1030.341173 597.944534 
L 1035.320852 597.944534 
L 1040.300531 587.586342 
L 1045.280211 577.624385 
L 1050.25989 564.768232 
L 1055.239569 557.893215 
L 1060.219248 545.965529 
L 1065.198927 550.735798 
L 1070.178606 559.27836 
L 1075.158285 565.816912 
L 1080.137965 581.088085 
L 1085.117644 586.799915 
L 1090.097323 587.652828 
L 1095.077002 590.459382 
L 1100.056681 589.791155 
L 1105.03636 579.429605 
L 1119.975398 550.195843 
L 1119.975398 550.195843 
" style="fill:none;stroke:#008000;stroke-linecap:square;stroke-width:1.5;"/>
   </g>
   <g id="line2d_37">
    <path clip-path="url(#p9d20f0041c)" d="M 104.120852 571.924978 
L 109.100531 569.962271 
L 114.080211 577.840971 
L 119.05989 583.540377 
L 124.039569 605.875752 
L 129.019248 612.157523 
L 133.998927 620.502673 
L 138.978606 610.634301 
L 143.958285 602.99116 
L 148.937965 601.850137 
L 153.917644 589.0645 
L 158.897323 577.742248 
L 163.877002 572.236258 
L 168.856681 569.284305 
L 173.83636 577.0166 
L 178.816039 593.795481 
L 183.795719 603.824664 
L 188.775398 607.567676 
L 193.755077 610.075979 
L 198.734756 612.084656 
L 203.714435 599.30718 
L 208.694114 599.000601 
L 213.673793 592.690388 
L 218.653473 577.753665 
L 223.633152 576.055226 
L 228.612831 571.26481 
L 233.59251 577.424252 
L 238.572189 582.395996 
L 243.551868 600.899844 
L 248.531547 603.254421 
L 253.511227 608.873775 
L 258.490906 609.453017 
L 263.470585 603.463788 
L 268.450264 599.014033 
L 273.429943 592.147747 
L 278.409622 580.131412 
L 283.389301 574.073043 
L 288.368981 574.74127 
L 293.34866 578.75164 
L 298.328339 584.355682 
L 303.308018 598.567093 
L 308.287697 603.887121 
L 313.267376 614.861358 
L 318.247055 613.751295 
L 323.226735 599.731622 
L 328.206414 598.496577 
L 333.186093 587.693459 
L 338.165772 575.517622 
L 343.145451 569.784972 
L 348.12513 566.623821 
L 353.104809 574.636167 
L 358.084489 587.045716 
L 363.064168 602.770208 
L 368.043847 609.007286 
L 373.023526 612.213231 
L 378.003205 608.183217 
L 382.982884 606.858549 
L 387.962564 599.856201 
L 392.942243 594.067809 
L 397.921922 576.357775 
L 402.901601 569.620434 
L 407.88128 568.61272 
L 412.860959 575.358457 
L 417.840638 584.520556 
L 422.820318 602.826286 
L 427.799997 612.575283 
L 432.779676 623.059464 
L 437.759355 619.709732 
L 442.739034 601.13557 
L 447.718713 598.450237 
L 452.698392 586.540348 
L 457.678072 575.246302 
L 462.657751 569.864219 
L 467.63743 569.613046 
L 477.596788 584.496714 
L 482.576467 601.447857 
L 487.556146 612.244158 
L 492.535826 616.95798 
L 497.515505 612.895663 
L 502.495184 606.252074 
L 507.474863 595.969738 
L 512.454542 584.451718 
L 517.434221 577.268444 
L 522.4139 569.778928 
L 527.39358 569.875972 
L 532.373259 574.079087 
L 537.352938 582.635416 
L 542.332617 594.333757 
L 547.312296 615.879481 
L 552.291975 617.631714 
L 557.271654 606.342974 
L 562.251334 608.892881 
L 567.231013 599.864595 
L 572.210692 592.339485 
L 577.190371 580.294607 
L 582.17005 572.032767 
L 587.149729 571.462256 
L 592.129408 578.067631 
L 597.109088 587.524892 
L 602.088767 602.637906 
L 607.068446 613.046131 
L 612.048125 612.832534 
L 617.027804 605.26246 
L 622.007483 606.672789 
L 626.987162 597.686309 
L 631.966842 591.375424 
L 636.946521 579.789239 
L 641.9262 571.127471 
L 646.905879 571.844388 
L 651.885558 576.62473 
L 656.865237 589.71896 
L 661.844916 608.172606 
L 666.824596 614.044073 
L 671.804275 613.199723 
L 676.783954 611.305651 
L 681.763633 600.888091 
L 686.743312 604.291684 
L 691.722991 589.542333 
L 696.70267 577.470927 
L 701.68235 569.305125 
L 706.662029 569.560999 
L 711.641708 576.978656 
L 716.621387 584.023583 
L 721.601066 597.086248 
L 726.580745 603.910459 
L 731.560424 608.653831 
L 736.540104 600.411601 
L 741.519783 599.305165 
L 746.499462 593.923418 
L 751.479141 591.931833 
L 756.45882 581.156922 
L 761.438499 569.21211 
L 766.418178 564.960305 
L 771.397858 573.675129 
L 776.377537 588.31669 
L 781.357216 601.84107 
L 786.336895 604.02352 
L 791.316574 612.213735 
L 796.296253 615.460177 
L 801.275932 607.749608 
L 806.255612 592.970103 
L 811.235291 584.213306 
L 816.21497 576.015267 
L 821.194649 572.02773 
L 826.174328 569.800083 
L 831.154007 576.779531 
L 836.133686 584.305984 
L 841.113366 600.780637 
L 846.093045 615.725521 
L 851.072724 620.173193 
L 856.052403 623.003924 
L 861.032082 606.366042 
L 866.011761 601.142622 
L 870.991441 587.674319 
L 875.97112 576.0972 
L 880.950799 572.83464 
L 885.930478 569.152675 
L 890.910157 576.933324 
L 895.889836 585.05413 
L 900.869515 595.771956 
L 905.849195 613.182127 
L 910.828874 614.379765 
L 915.808553 615.422636 
L 920.788232 600.981441 
L 925.767911 596.951595 
L 930.74759 593.86264 
L 935.727269 583.07564 
L 940.706949 573.890707 
L 945.686628 567.768538 
L 950.666307 575.926618 
L 955.645986 584.628345 
L 960.625665 602.992503 
L 965.605344 612.779042 
L 970.585023 611.670893 
L 975.564703 611.430163 
L 980.544382 606.459494 
L 985.524061 595.983841 
L 990.50374 587.066871 
L 995.483419 581.66229 
L 1000.463098 575.443748 
L 1005.442777 571.261116 
L 1010.422457 575.895389 
L 1015.402136 583.294913 
L 1020.381815 595.35423 
L 1025.361494 611.10562 
L 1030.341173 615.685326 
L 1035.320852 614.089707 
L 1040.300531 607.498234 
L 1045.280211 596.772618 
L 1050.25989 585.634044 
L 1055.239569 578.738208 
L 1060.219248 568.616078 
L 1065.198927 568.504595 
L 1070.178606 578.012225 
L 1075.158285 582.723394 
L 1080.137965 600.710793 
L 1085.117644 608.267132 
L 1090.097323 607.656124 
L 1100.056681 610.31194 
L 1105.03636 598.835391 
L 1110.016039 588.31031 
L 1114.995719 578.713696 
L 1119.975398 568.717823 
L 1119.975398 568.717823 
" style="fill:none;stroke:#0000ff;stroke-linecap:square;stroke-width:1.5;"/>
   </g>
   <g id="line2d_38">
    <defs>
     <path d="M 0 3 
C 0.795609 3 1.55874 2.683901 2.12132 2.12132 
C 2.683901 1.55874 3 0.795609 3 0 
C 3 -0.795609 2.683901 -1.55874 2.12132 -2.12132 
C 1.55874 -2.683901 0.795609 -3 0 -3 
C -0.795609 -3 -1.55874 -2.683901 -2.12132 -2.12132 
C -2.683901 -1.55874 -3 -0.795609 -3 0 
C -3 0.795609 -2.683901 1.55874 -2.12132 2.12132 
C -1.55874 2.683901 -0.795609 3 0 3 
z
" id="mbbcab90ea2" style="stroke:#ff0000;"/>
    </defs>
    <g clip-path="url(#p9d20f0041c)">
     <use style="fill:#ff0000;stroke:#ff0000;" x="104.120852" xlink:href="#mbbcab90ea2" y="639.849091"/>
     <use style="fill:#ff0000;stroke:#ff0000;" x="109.100531" xlink:href="#mbbcab90ea2" y="639.849091"/>
     <use style="fill:#ff0000;stroke:#ff0000;" x="114.080211" xlink:href="#mbbcab90ea2" y="639.849091"/>
     <use style="fill:#ff0000;stroke:#ff0000;" x="119.05989" xlink:href="#mbbcab90ea2" y="639.849091"/>
     <use style="fill:#ff0000;stroke:#ff0000;" x="124.039569" xlink:href="#mbbcab90ea2" y="639.849091"/>
     <use style="fill:#ff0000;stroke:#ff0000;" x="129.019248" xlink:href="#mbbcab90ea2" y="639.849091"/>
     <use style="fill:#ff0000;stroke:#ff0000;" x="133.998927" xlink:href="#mbbcab90ea2" y="639.849091"/>
     <use style="fill:#ff0000;stroke:#ff0000;" x="138.978606" xlink:href="#mbbcab90ea2" y="639.849091"/>
     <use style="fill:#ff0000;stroke:#ff0000;" x="143.958285" xlink:href="#mbbcab90ea2" y="639.849091"/>
     <use style="fill:#ff0000;stroke:#ff0000;" x="148.937965" xlink:href="#mbbcab90ea2" y="639.849091"/>
     <use style="fill:#ff0000;stroke:#ff0000;" x="153.917644" xlink:href="#mbbcab90ea2" y="639.849091"/>
     <use style="fill:#ff0000;stroke:#ff0000;" x="158.897323" xlink:href="#mbbcab90ea2" y="639.849091"/>
     <use style="fill:#ff0000;stroke:#ff0000;" x="163.877002" xlink:href="#mbbcab90ea2" y="639.849091"/>
     <use style="fill:#ff0000;stroke:#ff0000;" x="168.856681" xlink:href="#mbbcab90ea2" y="639.849091"/>
     <use style="fill:#ff0000;stroke:#ff0000;" x="173.83636" xlink:href="#mbbcab90ea2" y="639.849091"/>
     <use style="fill:#ff0000;stroke:#ff0000;" x="178.816039" xlink:href="#mbbcab90ea2" y="639.849091"/>
     <use style="fill:#ff0000;stroke:#ff0000;" x="183.795719" xlink:href="#mbbcab90ea2" y="639.849091"/>
     <use style="fill:#ff0000;stroke:#ff0000;" x="188.775398" xlink:href="#mbbcab90ea2" y="639.849091"/>
     <use style="fill:#ff0000;stroke:#ff0000;" x="193.755077" xlink:href="#mbbcab90ea2" y="639.849091"/>
     <use style="fill:#ff0000;stroke:#ff0000;" x="198.734756" xlink:href="#mbbcab90ea2" y="639.849091"/>
     <use style="fill:#ff0000;stroke:#ff0000;" x="203.714435" xlink:href="#mbbcab90ea2" y="639.849091"/>
     <use style="fill:#ff0000;stroke:#ff0000;" x="208.694114" xlink:href="#mbbcab90ea2" y="639.849091"/>
     <use style="fill:#ff0000;stroke:#ff0000;" x="213.673793" xlink:href="#mbbcab90ea2" y="639.849091"/>
     <use style="fill:#ff0000;stroke:#ff0000;" x="218.653473" xlink:href="#mbbcab90ea2" y="639.849091"/>
     <use style="fill:#ff0000;stroke:#ff0000;" x="223.633152" xlink:href="#mbbcab90ea2" y="639.849091"/>
     <use style="fill:#ff0000;stroke:#ff0000;" x="228.612831" xlink:href="#mbbcab90ea2" y="639.849091"/>
     <use style="fill:#ff0000;stroke:#ff0000;" x="233.59251" xlink:href="#mbbcab90ea2" y="639.849091"/>
     <use style="fill:#ff0000;stroke:#ff0000;" x="238.572189" xlink:href="#mbbcab90ea2" y="639.849091"/>
     <use style="fill:#ff0000;stroke:#ff0000;" x="243.551868" xlink:href="#mbbcab90ea2" y="639.849091"/>
     <use style="fill:#ff0000;stroke:#ff0000;" x="248.531547" xlink:href="#mbbcab90ea2" y="639.849091"/>
     <use style="fill:#ff0000;stroke:#ff0000;" x="303.308018" xlink:href="#mbbcab90ea2" y="639.849091"/>
     <use style="fill:#ff0000;stroke:#ff0000;" x="363.064168" xlink:href="#mbbcab90ea2" y="639.849091"/>
     <use style="fill:#ff0000;stroke:#ff0000;" x="378.003205" xlink:href="#mbbcab90ea2" y="639.849091"/>
     <use style="fill:#ff0000;stroke:#ff0000;" x="482.576467" xlink:href="#mbbcab90ea2" y="639.849091"/>
     <use style="fill:#ff0000;stroke:#ff0000;" x="512.454542" xlink:href="#mbbcab90ea2" y="639.849091"/>
     <use style="fill:#ff0000;stroke:#ff0000;" x="537.352938" xlink:href="#mbbcab90ea2" y="639.849091"/>
     <use style="fill:#ff0000;stroke:#ff0000;" x="617.027804" xlink:href="#mbbcab90ea2" y="639.849091"/>
     <use style="fill:#ff0000;stroke:#ff0000;" x="656.865237" xlink:href="#mbbcab90ea2" y="639.849091"/>
     <use style="fill:#ff0000;stroke:#ff0000;" x="661.844916" xlink:href="#mbbcab90ea2" y="639.849091"/>
     <use style="fill:#ff0000;stroke:#ff0000;" x="676.783954" xlink:href="#mbbcab90ea2" y="639.849091"/>
     <use style="fill:#ff0000;stroke:#ff0000;" x="726.580745" xlink:href="#mbbcab90ea2" y="639.849091"/>
     <use style="fill:#ff0000;stroke:#ff0000;" x="741.519783" xlink:href="#mbbcab90ea2" y="639.849091"/>
     <use style="fill:#ff0000;stroke:#ff0000;" x="781.357216" xlink:href="#mbbcab90ea2" y="639.849091"/>
     <use style="fill:#ff0000;stroke:#ff0000;" x="786.336895" xlink:href="#mbbcab90ea2" y="639.849091"/>
     <use style="fill:#ff0000;stroke:#ff0000;" x="856.052403" xlink:href="#mbbcab90ea2" y="639.849091"/>
     <use style="fill:#ff0000;stroke:#ff0000;" x="970.585023" xlink:href="#mbbcab90ea2" y="639.849091"/>
     <use style="fill:#ff0000;stroke:#ff0000;" x="1020.381815" xlink:href="#mbbcab90ea2" y="639.849091"/>
     <use style="fill:#ff0000;stroke:#ff0000;" x="1095.077002" xlink:href="#mbbcab90ea2" y="639.849091"/>
    </g>
   </g>
   <g id="patch_9">
    <path d="M 53.328125 645.74 
L 53.328125 516.14 
" style="fill:none;stroke:#000000;stroke-linecap:square;stroke-linejoin:miter;stroke-width:0.8;"/>
   </g>
   <g id="patch_10">
    <path d="M 1170.768125 645.74 
L 1170.768125 516.14 
" style="fill:none;stroke:#000000;stroke-linecap:square;stroke-linejoin:miter;stroke-width:0.8;"/>
   </g>
   <g id="patch_11">
    <path d="M 53.328125 645.74 
L 1170.768125 645.74 
" style="fill:none;stroke:#000000;stroke-linecap:square;stroke-linejoin:miter;stroke-width:0.8;"/>
   </g>
   <g id="patch_12">
    <path d="M 53.328125 516.14 
L 1170.768125 516.14 
" style="fill:none;stroke:#000000;stroke-linecap:square;stroke-linejoin:miter;stroke-width:0.8;"/>
   </g>
   <g id="legend_2">
    <g id="patch_13">
     <path d="M 60.328125 582.8525 
L 151.340625 582.8525 
Q 153.340625 582.8525 153.340625 580.8525 
L 153.340625 523.14 
Q 153.340625 521.14 151.340625 521.14 
L 60.328125 521.14 
Q 58.328125 521.14 58.328125 523.14 
L 58.328125 580.8525 
Q 58.328125 582.8525 60.328125 582.8525 
z
" style="fill:#ffffff;opacity:0.8;stroke:#cccccc;stroke-linejoin:miter;"/>
    </g>
    <g id="line2d_39">
     <path d="M 62.328125 529.238437 
L 82.328125 529.238437 
" style="fill:none;stroke:#ff0000;stroke-linecap:square;stroke-width:1.5;"/>
    </g>
    <g id="line2d_40"/>
    <g id="text_32">
     <!-- Maxmimum -->
     <defs>
      <path d="M 9.8125 72.90625 
L 24.515625 72.90625 
L 43.109375 23.296875 
L 61.8125 72.90625 
L 76.515625 72.90625 
L 76.515625 0 
L 66.890625 0 
L 66.890625 64.015625 
L 48.09375 14.015625 
L 38.1875 14.015625 
L 19.390625 64.015625 
L 19.390625 0 
L 9.8125 0 
z
" id="DejaVuSans-4d"/>
      <path d="M 54.890625 54.6875 
L 35.109375 28.078125 
L 55.90625 0 
L 45.3125 0 
L 29.390625 21.484375 
L 13.484375 0 
L 2.875 0 
L 24.125 28.609375 
L 4.6875 54.6875 
L 15.28125 54.6875 
L 29.78125 35.203125 
L 44.28125 54.6875 
z
" id="DejaVuSans-78"/>
     </defs>
     <g transform="translate(90.328125 532.738437)scale(0.1 -0.1)">
      <use xlink:href="#DejaVuSans-4d"/>
      <use x="86.279297" xlink:href="#DejaVuSans-61"/>
      <use x="147.558594" xlink:href="#DejaVuSans-78"/>
      <use x="206.738281" xlink:href="#DejaVuSans-6d"/>
      <use x="304.150391" xlink:href="#DejaVuSans-69"/>
      <use x="331.933594" xlink:href="#DejaVuSans-6d"/>
      <use x="429.345703" xlink:href="#DejaVuSans-75"/>
      <use x="492.724609" xlink:href="#DejaVuSans-6d"/>
     </g>
    </g>
    <g id="line2d_41">
     <path d="M 62.328125 543.916562 
L 82.328125 543.916562 
" style="fill:none;stroke:#008000;stroke-linecap:square;stroke-width:1.5;"/>
    </g>
    <g id="line2d_42"/>
    <g id="text_33">
     <!-- Average -->
     <defs>
      <path d="M 34.1875 63.1875 
L 20.796875 26.90625 
L 47.609375 26.90625 
z
M 28.609375 72.90625 
L 39.796875 72.90625 
L 67.578125 0 
L 57.328125 0 
L 50.6875 18.703125 
L 17.828125 18.703125 
L 11.1875 0 
L 0.78125 0 
z
" id="DejaVuSans-41"/>
      <path d="M 2.984375 54.6875 
L 12.5 54.6875 
L 29.59375 8.796875 
L 46.6875 54.6875 
L 56.203125 54.6875 
L 35.6875 0 
L 23.484375 0 
z
" id="DejaVuSans-76"/>
     </defs>
     <g transform="translate(90.328125 547.416562)scale(0.1 -0.1)">
      <use xlink:href="#DejaVuSans-41"/>
      <use x="68.330078" xlink:href="#DejaVuSans-76"/>
      <use x="127.509766" xlink:href="#DejaVuSans-65"/>
      <use x="189.033203" xlink:href="#DejaVuSans-72"/>
      <use x="230.146484" xlink:href="#DejaVuSans-61"/>
      <use x="291.425781" xlink:href="#DejaVuSans-67"/>
      <use x="354.902344" xlink:href="#DejaVuSans-65"/>
     </g>
    </g>
    <g id="line2d_43">
     <path d="M 62.328125 558.594687 
L 82.328125 558.594687 
" style="fill:none;stroke:#0000ff;stroke-linecap:square;stroke-width:1.5;"/>
    </g>
    <g id="line2d_44"/>
    <g id="text_34">
     <!-- Minimum -->
     <g transform="translate(90.328125 562.094687)scale(0.1 -0.1)">
      <use xlink:href="#DejaVuSans-4d"/>
      <use x="86.279297" xlink:href="#DejaVuSans-69"/>
      <use x="114.0625" xlink:href="#DejaVuSans-6e"/>
      <use x="177.441406" xlink:href="#DejaVuSans-69"/>
      <use x="205.224609" xlink:href="#DejaVuSans-6d"/>
      <use x="302.636719" xlink:href="#DejaVuSans-75"/>
      <use x="366.015625" xlink:href="#DejaVuSans-6d"/>
     </g>
    </g>
    <g id="line2d_45"/>
    <g id="line2d_46">
     <g>
      <use style="fill:#ff0000;stroke:#ff0000;" x="72.328125" xlink:href="#mbbcab90ea2" y="573.272812"/>
     </g>
    </g>
    <g id="text_35">
     <!-- Disasters -->
     <g transform="translate(90.328125 576.772812)scale(0.1 -0.1)">
      <use xlink:href="#DejaVuSans-44"/>
      <use x="77.001953" xlink:href="#DejaVuSans-69"/>
      <use x="104.785156" xlink:href="#DejaVuSans-73"/>
      <use x="156.884766" xlink:href="#DejaVuSans-61"/>
      <use x="218.164062" xlink:href="#DejaVuSans-73"/>
      <use x="270.263672" xlink:href="#DejaVuSans-74"/>
      <use x="309.472656" xlink:href="#DejaVuSans-65"/>
      <use x="370.996094" xlink:href="#DejaVuSans-72"/>
      <use x="412.109375" xlink:href="#DejaVuSans-73"/>
     </g>
    </g>
   </g>
  </g>
 </g>
 <defs>
  <clipPath id="p1f114cf5fd">
   <rect height="498.96" width="1116" x="53.328125" y="10.7"/>
  </clipPath>
  <clipPath id="p9d20f0041c">
   <rect height="129.6" width="1117.44" x="53.328125" y="516.14"/>
  </clipPath>
 </defs>
</svg>
