<?xml version="1.0" encoding="utf-8" standalone="no"?>
<!DOCTYPE svg PUBLIC "-//W3C//DTD SVG 1.1//EN"
  "http://www.w3.org/Graphics/SVG/1.1/DTD/svg11.dtd">
<!-- Created with matplotlib (http://matplotlib.org/) -->
<svg height="669pt" version="1.1" viewBox="0 0 1175 669" width="1175pt" xmlns="http://www.w3.org/2000/svg" xmlns:xlink="http://www.w3.org/1999/xlink">
 <defs>
  <style type="text/css">
*{stroke-linecap:butt;stroke-linejoin:round;}
  </style>
 </defs>
 <g id="figure_1">
  <g id="patch_1">
   <path d="M 0 669.970583 
L 1175.105625 669.970583 
L 1175.105625 0 
L 0 0 
z
" style="fill:none;"/>
  </g>
  <g id="axes_1">
   <g id="patch_2">
    <path d="M 46.965625 510.012458 
L 1162.965625 510.012458 
L 1162.965625 11.052458 
L 46.965625 11.052458 
z
" style="fill:none;"/>
   </g>
   <g id="matplotlib.axis_1">
    <g id="xtick_1">
     <g id="line2d_1">
      <defs>
       <path d="M 0 0 
L 0 3.5 
" id="mc1be100561" style="stroke:#000000;stroke-width:0.8;"/>
      </defs>
      <g>
       <use style="stroke:#000000;stroke-width:0.8;" x="97.692898" xlink:href="#mc1be100561" y="510.012458"/>
      </g>
     </g>
     <g id="text_1">
      <!-- 0 -->
      <defs>
       <path d="M 31.78125 66.40625 
Q 24.171875 66.40625 20.328125 58.90625 
Q 16.5 51.421875 16.5 36.375 
Q 16.5 21.390625 20.328125 13.890625 
Q 24.171875 6.390625 31.78125 6.390625 
Q 39.453125 6.390625 43.28125 13.890625 
Q 47.125 21.390625 47.125 36.375 
Q 47.125 51.421875 43.28125 58.90625 
Q 39.453125 66.40625 31.78125 66.40625 
z
M 31.78125 74.21875 
Q 44.046875 74.21875 50.515625 64.515625 
Q 56.984375 54.828125 56.984375 36.375 
Q 56.984375 17.96875 50.515625 8.265625 
Q 44.046875 -1.421875 31.78125 -1.421875 
Q 19.53125 -1.421875 13.0625 8.265625 
Q 6.59375 17.96875 6.59375 36.375 
Q 6.59375 54.828125 13.0625 64.515625 
Q 19.53125 74.21875 31.78125 74.21875 
z
" id="DejaVuSans-30"/>
      </defs>
      <g transform="translate(94.511648 524.610896)scale(0.1 -0.1)">
       <use xlink:href="#DejaVuSans-30"/>
      </g>
     </g>
    </g>
    <g id="xtick_2">
     <g id="line2d_2">
      <g>
       <use style="stroke:#000000;stroke-width:0.8;" x="340.407121" xlink:href="#mc1be100561" y="510.012458"/>
      </g>
     </g>
     <g id="text_2">
      <!-- 50 -->
      <defs>
       <path d="M 10.796875 72.90625 
L 49.515625 72.90625 
L 49.515625 64.59375 
L 19.828125 64.59375 
L 19.828125 46.734375 
Q 21.96875 47.46875 24.109375 47.828125 
Q 26.265625 48.1875 28.421875 48.1875 
Q 40.625 48.1875 47.75 41.5 
Q 54.890625 34.8125 54.890625 23.390625 
Q 54.890625 11.625 47.5625 5.09375 
Q 40.234375 -1.421875 26.90625 -1.421875 
Q 22.3125 -1.421875 17.546875 -0.640625 
Q 12.796875 0.140625 7.71875 1.703125 
L 7.71875 11.625 
Q 12.109375 9.234375 16.796875 8.0625 
Q 21.484375 6.890625 26.703125 6.890625 
Q 35.15625 6.890625 40.078125 11.328125 
Q 45.015625 15.765625 45.015625 23.390625 
Q 45.015625 31 40.078125 35.4375 
Q 35.15625 39.890625 26.703125 39.890625 
Q 22.75 39.890625 18.8125 39.015625 
Q 14.890625 38.140625 10.796875 36.28125 
z
" id="DejaVuSans-35"/>
      </defs>
      <g transform="translate(334.044621 524.610896)scale(0.1 -0.1)">
       <use xlink:href="#DejaVuSans-35"/>
       <use x="63.623047" xlink:href="#DejaVuSans-30"/>
      </g>
     </g>
    </g>
    <g id="xtick_3">
     <g id="line2d_3">
      <g>
       <use style="stroke:#000000;stroke-width:0.8;" x="583.121345" xlink:href="#mc1be100561" y="510.012458"/>
      </g>
     </g>
     <g id="text_3">
      <!-- 100 -->
      <defs>
       <path d="M 12.40625 8.296875 
L 28.515625 8.296875 
L 28.515625 63.921875 
L 10.984375 60.40625 
L 10.984375 69.390625 
L 28.421875 72.90625 
L 38.28125 72.90625 
L 38.28125 8.296875 
L 54.390625 8.296875 
L 54.390625 0 
L 12.40625 0 
z
" id="DejaVuSans-31"/>
      </defs>
      <g transform="translate(573.577595 524.610896)scale(0.1 -0.1)">
       <use xlink:href="#DejaVuSans-31"/>
       <use x="63.623047" xlink:href="#DejaVuSans-30"/>
       <use x="127.246094" xlink:href="#DejaVuSans-30"/>
      </g>
     </g>
    </g>
    <g id="xtick_4">
     <g id="line2d_4">
      <g>
       <use style="stroke:#000000;stroke-width:0.8;" x="825.835568" xlink:href="#mc1be100561" y="510.012458"/>
      </g>
     </g>
     <g id="text_4">
      <!-- 150 -->
      <g transform="translate(816.291818 524.610896)scale(0.1 -0.1)">
       <use xlink:href="#DejaVuSans-31"/>
       <use x="63.623047" xlink:href="#DejaVuSans-35"/>
       <use x="127.246094" xlink:href="#DejaVuSans-30"/>
      </g>
     </g>
    </g>
    <g id="xtick_5">
     <g id="line2d_5">
      <g>
       <use style="stroke:#000000;stroke-width:0.8;" x="1068.549792" xlink:href="#mc1be100561" y="510.012458"/>
      </g>
     </g>
     <g id="text_5">
      <!-- 200 -->
      <defs>
       <path d="M 19.1875 8.296875 
L 53.609375 8.296875 
L 53.609375 0 
L 7.328125 0 
L 7.328125 8.296875 
Q 12.9375 14.109375 22.625 23.890625 
Q 32.328125 33.6875 34.8125 36.53125 
Q 39.546875 41.84375 41.421875 45.53125 
Q 43.3125 49.21875 43.3125 52.78125 
Q 43.3125 58.59375 39.234375 62.25 
Q 35.15625 65.921875 28.609375 65.921875 
Q 23.96875 65.921875 18.8125 64.3125 
Q 13.671875 62.703125 7.8125 59.421875 
L 7.8125 69.390625 
Q 13.765625 71.78125 18.9375 73 
Q 24.125 74.21875 28.421875 74.21875 
Q 39.75 74.21875 46.484375 68.546875 
Q 53.21875 62.890625 53.21875 53.421875 
Q 53.21875 48.921875 51.53125 44.890625 
Q 49.859375 40.875 45.40625 35.40625 
Q 44.1875 33.984375 37.640625 27.21875 
Q 31.109375 20.453125 19.1875 8.296875 
z
" id="DejaVuSans-32"/>
      </defs>
      <g transform="translate(1059.006042 524.610896)scale(0.1 -0.1)">
       <use xlink:href="#DejaVuSans-32"/>
       <use x="63.623047" xlink:href="#DejaVuSans-30"/>
       <use x="127.246094" xlink:href="#DejaVuSans-30"/>
      </g>
     </g>
    </g>
    <g id="text_6">
     <!-- Time -->
     <defs>
      <path d="M -0.296875 72.90625 
L 61.375 72.90625 
L 61.375 64.59375 
L 35.5 64.59375 
L 35.5 0 
L 25.59375 0 
L 25.59375 64.59375 
L -0.296875 64.59375 
z
" id="DejaVuSans-54"/>
      <path d="M 9.421875 54.6875 
L 18.40625 54.6875 
L 18.40625 0 
L 9.421875 0 
z
M 9.421875 75.984375 
L 18.40625 75.984375 
L 18.40625 64.59375 
L 9.421875 64.59375 
z
" id="DejaVuSans-69"/>
      <path d="M 52 44.1875 
Q 55.375 50.25 60.0625 53.125 
Q 64.75 56 71.09375 56 
Q 79.640625 56 84.28125 50.015625 
Q 88.921875 44.046875 88.921875 33.015625 
L 88.921875 0 
L 79.890625 0 
L 79.890625 32.71875 
Q 79.890625 40.578125 77.09375 44.375 
Q 74.3125 48.1875 68.609375 48.1875 
Q 61.625 48.1875 57.5625 43.546875 
Q 53.515625 38.921875 53.515625 30.90625 
L 53.515625 0 
L 44.484375 0 
L 44.484375 32.71875 
Q 44.484375 40.625 41.703125 44.40625 
Q 38.921875 48.1875 33.109375 48.1875 
Q 26.21875 48.1875 22.15625 43.53125 
Q 18.109375 38.875 18.109375 30.90625 
L 18.109375 0 
L 9.078125 0 
L 9.078125 54.6875 
L 18.109375 54.6875 
L 18.109375 46.1875 
Q 21.1875 51.21875 25.484375 53.609375 
Q 29.78125 56 35.6875 56 
Q 41.65625 56 45.828125 52.96875 
Q 50 49.953125 52 44.1875 
z
" id="DejaVuSans-6d"/>
      <path d="M 56.203125 29.59375 
L 56.203125 25.203125 
L 14.890625 25.203125 
Q 15.484375 15.921875 20.484375 11.0625 
Q 25.484375 6.203125 34.421875 6.203125 
Q 39.59375 6.203125 44.453125 7.46875 
Q 49.3125 8.734375 54.109375 11.28125 
L 54.109375 2.78125 
Q 49.265625 0.734375 44.1875 -0.34375 
Q 39.109375 -1.421875 33.890625 -1.421875 
Q 20.796875 -1.421875 13.15625 6.1875 
Q 5.515625 13.8125 5.515625 26.8125 
Q 5.515625 40.234375 12.765625 48.109375 
Q 20.015625 56 32.328125 56 
Q 43.359375 56 49.78125 48.890625 
Q 56.203125 41.796875 56.203125 29.59375 
z
M 47.21875 32.234375 
Q 47.125 39.59375 43.09375 43.984375 
Q 39.0625 48.390625 32.421875 48.390625 
Q 24.90625 48.390625 20.390625 44.140625 
Q 15.875 39.890625 15.1875 32.171875 
z
" id="DejaVuSans-65"/>
     </defs>
     <g transform="translate(592.578125 538.289021)scale(0.1 -0.1)">
      <use xlink:href="#DejaVuSans-54"/>
      <use x="61.037109" xlink:href="#DejaVuSans-69"/>
      <use x="88.820312" xlink:href="#DejaVuSans-6d"/>
      <use x="186.232422" xlink:href="#DejaVuSans-65"/>
     </g>
    </g>
   </g>
   <g id="matplotlib.axis_2">
    <g id="ytick_1">
     <g id="line2d_6">
      <defs>
       <path d="M 0 0 
L -3.5 0 
" id="m6a1ef7105a" style="stroke:#000000;stroke-width:0.8;"/>
      </defs>
      <g>
       <use style="stroke:#000000;stroke-width:0.8;" x="46.965625" xlink:href="#m6a1ef7105a" y="505.200083"/>
      </g>
     </g>
     <g id="text_7">
      <!-- 0 -->
      <g transform="translate(33.603125 508.999302)scale(0.1 -0.1)">
       <use xlink:href="#DejaVuSans-30"/>
      </g>
     </g>
    </g>
    <g id="ytick_2">
     <g id="line2d_7">
      <g>
       <use style="stroke:#000000;stroke-width:0.8;" x="46.965625" xlink:href="#m6a1ef7105a" y="406.35991"/>
      </g>
     </g>
     <g id="text_8">
      <!-- 100 -->
      <g transform="translate(20.878125 410.159129)scale(0.1 -0.1)">
       <use xlink:href="#DejaVuSans-31"/>
       <use x="63.623047" xlink:href="#DejaVuSans-30"/>
       <use x="127.246094" xlink:href="#DejaVuSans-30"/>
      </g>
     </g>
    </g>
    <g id="ytick_3">
     <g id="line2d_8">
      <g>
       <use style="stroke:#000000;stroke-width:0.8;" x="46.965625" xlink:href="#m6a1ef7105a" y="307.519737"/>
      </g>
     </g>
     <g id="text_9">
      <!-- 200 -->
      <g transform="translate(20.878125 311.318956)scale(0.1 -0.1)">
       <use xlink:href="#DejaVuSans-32"/>
       <use x="63.623047" xlink:href="#DejaVuSans-30"/>
       <use x="127.246094" xlink:href="#DejaVuSans-30"/>
      </g>
     </g>
    </g>
    <g id="ytick_4">
     <g id="line2d_9">
      <g>
       <use style="stroke:#000000;stroke-width:0.8;" x="46.965625" xlink:href="#m6a1ef7105a" y="208.679564"/>
      </g>
     </g>
     <g id="text_10">
      <!-- 300 -->
      <defs>
       <path d="M 40.578125 39.3125 
Q 47.65625 37.796875 51.625 33 
Q 55.609375 28.21875 55.609375 21.1875 
Q 55.609375 10.40625 48.1875 4.484375 
Q 40.765625 -1.421875 27.09375 -1.421875 
Q 22.515625 -1.421875 17.65625 -0.515625 
Q 12.796875 0.390625 7.625 2.203125 
L 7.625 11.71875 
Q 11.71875 9.328125 16.59375 8.109375 
Q 21.484375 6.890625 26.8125 6.890625 
Q 36.078125 6.890625 40.9375 10.546875 
Q 45.796875 14.203125 45.796875 21.1875 
Q 45.796875 27.640625 41.28125 31.265625 
Q 36.765625 34.90625 28.71875 34.90625 
L 20.21875 34.90625 
L 20.21875 43.015625 
L 29.109375 43.015625 
Q 36.375 43.015625 40.234375 45.921875 
Q 44.09375 48.828125 44.09375 54.296875 
Q 44.09375 59.90625 40.109375 62.90625 
Q 36.140625 65.921875 28.71875 65.921875 
Q 24.65625 65.921875 20.015625 65.03125 
Q 15.375 64.15625 9.8125 62.3125 
L 9.8125 71.09375 
Q 15.4375 72.65625 20.34375 73.4375 
Q 25.25 74.21875 29.59375 74.21875 
Q 40.828125 74.21875 47.359375 69.109375 
Q 53.90625 64.015625 53.90625 55.328125 
Q 53.90625 49.265625 50.4375 45.09375 
Q 46.96875 40.921875 40.578125 39.3125 
z
" id="DejaVuSans-33"/>
      </defs>
      <g transform="translate(20.878125 212.478783)scale(0.1 -0.1)">
       <use xlink:href="#DejaVuSans-33"/>
       <use x="63.623047" xlink:href="#DejaVuSans-30"/>
       <use x="127.246094" xlink:href="#DejaVuSans-30"/>
      </g>
     </g>
    </g>
    <g id="ytick_5">
     <g id="line2d_10">
      <g>
       <use style="stroke:#000000;stroke-width:0.8;" x="46.965625" xlink:href="#m6a1ef7105a" y="109.839392"/>
      </g>
     </g>
     <g id="text_11">
      <!-- 400 -->
      <defs>
       <path d="M 37.796875 64.3125 
L 12.890625 25.390625 
L 37.796875 25.390625 
z
M 35.203125 72.90625 
L 47.609375 72.90625 
L 47.609375 25.390625 
L 58.015625 25.390625 
L 58.015625 17.1875 
L 47.609375 17.1875 
L 47.609375 0 
L 37.796875 0 
L 37.796875 17.1875 
L 4.890625 17.1875 
L 4.890625 26.703125 
z
" id="DejaVuSans-34"/>
      </defs>
      <g transform="translate(20.878125 113.63861)scale(0.1 -0.1)">
       <use xlink:href="#DejaVuSans-34"/>
       <use x="63.623047" xlink:href="#DejaVuSans-30"/>
       <use x="127.246094" xlink:href="#DejaVuSans-30"/>
      </g>
     </g>
    </g>
    <g id="ytick_6">
     <g id="line2d_11">
      <g>
       <use style="stroke:#000000;stroke-width:0.8;" x="46.965625" xlink:href="#m6a1ef7105a" y="10.999219"/>
      </g>
     </g>
     <g id="text_12">
      <!-- 500 -->
      <g transform="translate(20.878125 14.798438)scale(0.1 -0.1)">
       <use xlink:href="#DejaVuSans-35"/>
       <use x="63.623047" xlink:href="#DejaVuSans-30"/>
       <use x="127.246094" xlink:href="#DejaVuSans-30"/>
      </g>
     </g>
    </g>
    <g id="text_13">
     <!-- Refugees -->
     <defs>
      <path d="M 44.390625 34.1875 
Q 47.5625 33.109375 50.5625 29.59375 
Q 53.5625 26.078125 56.59375 19.921875 
L 66.609375 0 
L 56 0 
L 46.6875 18.703125 
Q 43.0625 26.03125 39.671875 28.421875 
Q 36.28125 30.8125 30.421875 30.8125 
L 19.671875 30.8125 
L 19.671875 0 
L 9.8125 0 
L 9.8125 72.90625 
L 32.078125 72.90625 
Q 44.578125 72.90625 50.734375 67.671875 
Q 56.890625 62.453125 56.890625 51.90625 
Q 56.890625 45.015625 53.6875 40.46875 
Q 50.484375 35.9375 44.390625 34.1875 
z
M 19.671875 64.796875 
L 19.671875 38.921875 
L 32.078125 38.921875 
Q 39.203125 38.921875 42.84375 42.21875 
Q 46.484375 45.515625 46.484375 51.90625 
Q 46.484375 58.296875 42.84375 61.546875 
Q 39.203125 64.796875 32.078125 64.796875 
z
" id="DejaVuSans-52"/>
      <path d="M 37.109375 75.984375 
L 37.109375 68.5 
L 28.515625 68.5 
Q 23.6875 68.5 21.796875 66.546875 
Q 19.921875 64.59375 19.921875 59.515625 
L 19.921875 54.6875 
L 34.71875 54.6875 
L 34.71875 47.703125 
L 19.921875 47.703125 
L 19.921875 0 
L 10.890625 0 
L 10.890625 47.703125 
L 2.296875 47.703125 
L 2.296875 54.6875 
L 10.890625 54.6875 
L 10.890625 58.5 
Q 10.890625 67.625 15.140625 71.796875 
Q 19.390625 75.984375 28.609375 75.984375 
z
" id="DejaVuSans-66"/>
      <path d="M 8.5 21.578125 
L 8.5 54.6875 
L 17.484375 54.6875 
L 17.484375 21.921875 
Q 17.484375 14.15625 20.5 10.265625 
Q 23.53125 6.390625 29.59375 6.390625 
Q 36.859375 6.390625 41.078125 11.03125 
Q 45.3125 15.671875 45.3125 23.6875 
L 45.3125 54.6875 
L 54.296875 54.6875 
L 54.296875 0 
L 45.3125 0 
L 45.3125 8.40625 
Q 42.046875 3.421875 37.71875 1 
Q 33.40625 -1.421875 27.6875 -1.421875 
Q 18.265625 -1.421875 13.375 4.4375 
Q 8.5 10.296875 8.5 21.578125 
z
M 31.109375 56 
z
" id="DejaVuSans-75"/>
      <path d="M 45.40625 27.984375 
Q 45.40625 37.75 41.375 43.109375 
Q 37.359375 48.484375 30.078125 48.484375 
Q 22.859375 48.484375 18.828125 43.109375 
Q 14.796875 37.75 14.796875 27.984375 
Q 14.796875 18.265625 18.828125 12.890625 
Q 22.859375 7.515625 30.078125 7.515625 
Q 37.359375 7.515625 41.375 12.890625 
Q 45.40625 18.265625 45.40625 27.984375 
z
M 54.390625 6.78125 
Q 54.390625 -7.171875 48.1875 -13.984375 
Q 42 -20.796875 29.203125 -20.796875 
Q 24.46875 -20.796875 20.265625 -20.09375 
Q 16.0625 -19.390625 12.109375 -17.921875 
L 12.109375 -9.1875 
Q 16.0625 -11.328125 19.921875 -12.34375 
Q 23.78125 -13.375 27.78125 -13.375 
Q 36.625 -13.375 41.015625 -8.765625 
Q 45.40625 -4.15625 45.40625 5.171875 
L 45.40625 9.625 
Q 42.625 4.78125 38.28125 2.390625 
Q 33.9375 0 27.875 0 
Q 17.828125 0 11.671875 7.65625 
Q 5.515625 15.328125 5.515625 27.984375 
Q 5.515625 40.671875 11.671875 48.328125 
Q 17.828125 56 27.875 56 
Q 33.9375 56 38.28125 53.609375 
Q 42.625 51.21875 45.40625 46.390625 
L 45.40625 54.6875 
L 54.390625 54.6875 
z
" id="DejaVuSans-67"/>
      <path d="M 44.28125 53.078125 
L 44.28125 44.578125 
Q 40.484375 46.53125 36.375 47.5 
Q 32.28125 48.484375 27.875 48.484375 
Q 21.1875 48.484375 17.84375 46.4375 
Q 14.5 44.390625 14.5 40.28125 
Q 14.5 37.15625 16.890625 35.375 
Q 19.28125 33.59375 26.515625 31.984375 
L 29.59375 31.296875 
Q 39.15625 29.25 43.1875 25.515625 
Q 47.21875 21.78125 47.21875 15.09375 
Q 47.21875 7.46875 41.1875 3.015625 
Q 35.15625 -1.421875 24.609375 -1.421875 
Q 20.21875 -1.421875 15.453125 -0.5625 
Q 10.6875 0.296875 5.421875 2 
L 5.421875 11.28125 
Q 10.40625 8.6875 15.234375 7.390625 
Q 20.0625 6.109375 24.8125 6.109375 
Q 31.15625 6.109375 34.5625 8.28125 
Q 37.984375 10.453125 37.984375 14.40625 
Q 37.984375 18.0625 35.515625 20.015625 
Q 33.0625 21.96875 24.703125 23.78125 
L 21.578125 24.515625 
Q 13.234375 26.265625 9.515625 29.90625 
Q 5.8125 33.546875 5.8125 39.890625 
Q 5.8125 47.609375 11.28125 51.796875 
Q 16.75 56 26.8125 56 
Q 31.78125 56 36.171875 55.265625 
Q 40.578125 54.546875 44.28125 53.078125 
z
" id="DejaVuSans-73"/>
     </defs>
     <g style="fill:#ff7f0e;" transform="translate(14.798438 283.941052)rotate(-90)scale(0.1 -0.1)">
      <use xlink:href="#DejaVuSans-52"/>
      <use x="69.419922" xlink:href="#DejaVuSans-65"/>
      <use x="130.943359" xlink:href="#DejaVuSans-66"/>
      <use x="166.148438" xlink:href="#DejaVuSans-75"/>
      <use x="229.527344" xlink:href="#DejaVuSans-67"/>
      <use x="293.003906" xlink:href="#DejaVuSans-65"/>
      <use x="354.527344" xlink:href="#DejaVuSans-65"/>
      <use x="416.050781" xlink:href="#DejaVuSans-73"/>
     </g>
    </g>
   </g>
   <g id="line2d_12">
    <path clip-path="url(#pc916a0f04e)" d="M 97.692898 484.209358 
L 102.547182 481.537287 
L 107.401467 482.408071 
L 112.255751 487.022433 
L 117.110036 487.332458 
L 121.96432 478.143249 
L 126.818605 456.345319 
L 131.672889 453.552228 
L 136.527173 454.598536 
L 141.381458 459.041597 
L 146.235742 459.663118 
L 151.090027 449.970927 
L 155.944311 427.829422 
L 160.798596 424.912486 
L 165.65288 426.138434 
L 170.507165 430.40618 
L 175.361449 431.346478 
L 180.215734 421.139544 
L 185.070018 420.174112 
L 189.924303 417.223921 
L 194.778587 418.498093 
L 199.632872 422.718776 
L 204.487156 423.744648 
L 209.341441 413.399527 
L 214.195725 373.474242 
L 219.05001 370.575985 
L 223.904294 372.391805 
L 228.758578 376.476036 
L 233.612863 378.05854 
L 238.467147 366.905961 
L 243.321432 389.145475 
L 248.175716 387.629082 
L 253.030001 381.098732 
L 257.884285 370.556273 
L 262.73857 357.660056 
L 267.592854 339.612162 
L 272.447139 335.872792 
L 277.301423 339.464964 
L 282.155708 345.377864 
L 287.009992 349.428341 
L 291.864277 348.627693 
L 296.718561 334.725655 
L 301.572846 373.453414 
L 306.42713 370.53828 
L 311.281414 372.337903 
L 316.135699 376.412074 
L 320.989983 377.992527 
L 325.844268 366.837249 
L 330.698552 407.742528 
L 335.552837 404.738351 
L 340.407121 406.090828 
L 345.261406 410.235076 
L 350.11569 411.399935 
L 354.969975 400.830412 
L 359.824259 384.320124 
L 364.678544 379.321883 
L 369.532828 380.427878 
L 374.387113 385.382397 
L 379.241397 388.608397 
L 384.095682 379.015753 
L 388.949966 398.418649 
L 393.80425 395.373985 
L 398.658535 396.785198 
L 403.512819 400.872113 
L 408.367104 402.141195 
L 413.221388 391.403366 
L 418.075673 360.195429 
L 422.929957 359.345011 
L 427.784242 362.387601 
L 432.638526 366.340152 
L 437.492811 367.072389 
L 442.347095 354.934591 
L 447.20138 313.285846 
L 452.055664 316.185581 
L 456.909949 324.883263 
L 461.764233 332.984685 
L 466.618518 336.688764 
L 471.472802 325.559004 
L 476.327087 346.21397 
L 481.181371 340.175785 
L 486.035655 352.235353 
L 490.88994 373.037397 
L 495.744224 393.030935 
L 500.598509 395.947524 
L 505.452793 385.519785 
L 510.307078 382.419092 
L 515.161362 383.911566 
L 520.015647 387.919181 
L 524.869931 389.332467 
L 529.724216 378.361805 
L 534.5785 373.158595 
L 539.432785 370.004218 
L 544.287069 371.574537 
L 549.141354 375.506169 
L 553.995638 377.057651 
L 558.849923 365.863838 
L 563.704207 379.138209 
L 568.558491 379.341723 
L 573.412776 382.837522 
L 578.26706 386.947942 
L 583.121345 387.071485 
L 587.975629 374.983313 
L 592.829914 392.073006 
L 597.684198 389.000795 
L 602.538483 390.451975 
L 607.392767 394.499904 
L 612.247052 395.839908 
L 617.101336 384.987532 
L 621.955621 347.548016 
L 626.809905 349.644298 
L 631.66419 354.535089 
L 636.518474 358.537817 
L 641.372759 358.18528 
L 646.227043 344.916225 
L 651.081327 369.21004 
L 655.935612 365.458665 
L 660.789896 366.933124 
L 665.644181 371.132881 
L 670.498465 373.279852 
L 675.35275 362.443645 
L 680.207034 373.158595 
L 685.061319 370.004218 
L 689.915603 371.574537 
L 694.769888 375.506169 
L 699.624172 377.057651 
L 704.478457 365.863838 
L 709.332741 335.20509 
L 714.187026 326.312416 
L 719.04131 326.961371 
L 723.895595 333.470214 
L 728.749879 340.745379 
L 733.604163 332.988893 
L 738.458448 331.088705 
L 743.312732 326.761311 
L 748.167017 329.484438 
L 753.021301 335.227336 
L 757.875586 339.748049 
L 762.72987 329.787462 
L 767.584155 305.975767 
L 772.438439 308.945527 
L 777.292724 317.630042 
L 782.147008 325.60069 
L 787.001293 329.42592 
L 791.855577 318.442228 
L 796.709862 241.597191 
L 801.564146 247.024653 
L 806.418431 260.005977 
L 811.272715 270.328091 
L 816.127 274.354151 
L 820.981284 263.587606 
L 825.835568 227.495695 
L 830.689853 234.530758 
L 835.544137 253.809116 
L 840.398422 267.067825 
L 845.252706 269.605642 
L 850.106991 264.047888 
L 854.961275 220.521231 
L 859.81556 229.211312 
L 864.669844 247.8556 
L 869.524129 263.852699 
L 874.378413 274.115285 
L 879.232698 266.421826 
L 884.086982 232.457974 
L 888.941267 212.095716 
L 893.795551 210.164067 
L 898.649836 212.314402 
L 903.50412 222.41243 
L 908.358404 225.571497 
L 913.212689 284.097123 
L 918.066973 280.854608 
L 922.921258 290.461211 
L 927.775542 304.336313 
L 932.629827 317.152114 
L 937.484111 312.668608 
L 942.338396 229.331273 
L 947.19268 229.485831 
L 952.046965 235.904259 
L 956.901249 239.045408 
L 961.755534 241.104106 
L 971.464103 220.81222 
L 976.318387 229.895272 
L 981.172672 233.131799 
L 986.026956 224.858218 
L 990.88124 212.058343 
L 995.735525 190.089027 
L 1000.589809 241.315191 
L 1005.444094 237.653478 
L 1010.298378 257.150371 
L 1015.152663 284.034382 
L 1020.006947 308.314624 
L 1024.861232 313.890733 
L 1029.715516 156.722023 
L 1034.569801 151.251035 
L 1039.424085 148.037432 
L 1044.27837 139.1737 
L 1049.132654 134.216911 
L 1053.986939 120.776572 
L 1058.841223 94.162118 
L 1063.695508 79.214321 
L 1068.549792 89.245688 
L 1073.404077 96.041342 
L 1078.258361 109.291017 
L 1083.112645 116.760556 
L 1087.96693 94.16432 
L 1092.821214 104.455878 
L 1097.675499 131.734837 
L 1102.529783 153.422816 
L 1107.384068 165.919365 
L 1112.238352 161.999813 
L 1112.238352 161.999813 
" style="fill:none;stroke:#008000;stroke-dasharray:5.55,2.4;stroke-dashoffset:0;stroke-width:1.5;"/>
   </g>
   <g id="line2d_13">
    <path clip-path="url(#pc916a0f04e)" d="M 97.692898 473.571227 
L 102.547182 474.559629 
L 107.401467 462.698808 
L 112.255751 475.548031 
L 117.110036 462.698808 
L 121.96432 420.197534 
L 126.818605 455.779996 
L 131.672889 461.710407 
L 136.527173 461.710407 
L 141.381458 440.95397 
L 146.235742 416.243927 
L 151.090027 446.884381 
L 155.944311 470.606022 
L 160.798596 435.02356 
L 165.65288 448.861184 
L 170.507165 430.081551 
L 175.361449 409.325115 
L 180.215734 408.336713 
L 185.070018 359.905029 
L 189.924303 395.487491 
L 194.778587 390.545482 
L 199.632872 403.394705 
L 204.487156 358.916627 
L 209.341441 374.731055 
L 214.195725 327.287772 
L 219.05001 325.310968 
L 223.904294 342.113798 
L 228.758578 276.879284 
L 233.612863 344.090601 
L 238.467147 382.638268 
L 243.321432 361.881832 
L 248.175716 379.673063 
L 253.030001 358.916627 
L 257.884285 322.345763 
L 262.73857 359.905029 
L 267.592854 348.044208 
L 272.447139 316.415353 
L 277.301423 298.624122 
L 282.155708 380.661465 
L 287.009992 377.69626 
L 291.864277 391.533884 
L 296.718561 382.638268 
L 301.572846 378.684662 
L 306.42713 399.441098 
L 311.281414 395.487491 
L 316.135699 431.069953 
L 320.989983 424.151141 
L 325.844268 431.069953 
L 330.698552 440.95397 
L 335.552837 425.139543 
L 340.407121 392.522286 
L 345.261406 390.545482 
L 350.11569 393.510687 
L 354.969975 378.684662 
L 359.824259 362.870234 
L 364.678544 399.441098 
L 369.532828 418.220731 
L 374.387113 400.4295 
L 379.241397 422.174338 
L 384.095682 380.661465 
L 388.949966 393.510687 
L 393.80425 366.823841 
L 398.658535 334.206584 
L 403.512819 340.136994 
L 408.367104 362.870234 
L 413.221388 304.554532 
L 418.075673 390.545482 
L 422.929957 366.823841 
L 427.784242 333.218182 
L 432.638526 314.438549 
L 437.492811 371.765849 
L 442.347095 362.870234 
L 447.20138 338.160191 
L 452.055664 338.160191 
L 456.909949 351.997815 
L 461.764233 335.194986 
L 466.618518 332.22978 
L 471.472802 350.021011 
L 476.327087 340.136994 
L 481.181371 371.765849 
L 486.035655 377.69626 
L 490.88994 348.044208 
L 495.744224 385.603474 
L 500.598509 406.35991 
L 505.452793 403.394705 
L 510.307078 396.475893 
L 515.161362 382.638268 
L 520.015647 391.533884 
L 524.869931 380.661465 
L 529.724216 390.545482 
L 534.5785 380.661465 
L 539.432785 373.742653 
L 544.287069 374.731055 
L 549.141354 361.881832 
L 553.995638 376.707858 
L 558.849923 418.220731 
L 563.704207 416.243927 
L 568.558491 427.116346 
L 573.412776 406.35991 
L 578.26706 384.615072 
L 583.121345 373.742653 
L 587.975629 392.522286 
L 592.829914 378.684662 
L 597.684198 422.174338 
L 602.538483 384.615072 
L 607.392767 388.568679 
L 612.247052 396.475893 
L 617.101336 396.475893 
L 621.955621 334.206584 
L 626.809905 370.777448 
L 631.66419 362.870234 
L 636.518474 330.252977 
L 641.372759 339.148592 
L 646.227043 343.102199 
L 651.081327 337.171789 
L 655.935612 379.673063 
L 660.789896 390.545482 
L 665.644181 363.858636 
L 670.498465 376.707858 
L 675.35275 351.997815 
L 680.207034 335.194986 
L 685.061319 355.951422 
L 689.915603 361.881832 
L 699.624172 383.62667 
L 704.478457 365.835439 
L 709.332741 342.113798 
L 714.187026 386.591875 
L 719.04131 358.916627 
L 723.895595 373.742653 
L 728.749879 343.102199 
L 733.604163 316.415353 
L 738.458448 316.415353 
L 743.312732 311.473344 
L 753.021301 327.287772 
L 757.875586 312.461746 
L 762.72987 261.064856 
L 767.584155 281.821292 
L 772.438439 320.36896 
L 777.292724 273.914078 
L 782.147008 302.577729 
L 787.001293 285.774899 
L 791.855577 285.774899 
L 796.709862 253.157642 
L 801.564146 195.830342 
L 806.418431 250.192437 
L 811.272715 269.960471 
L 816.127 237.343214 
L 820.981284 229.436001 
L 825.835568 233.389608 
L 830.689853 258.099651 
L 835.544137 254.146044 
L 840.398422 271.937275 
L 845.252706 260.076454 
L 850.106991 294.670515 
L 854.961275 236.354813 
L 859.81556 206.702761 
L 864.669844 295.658916 
L 869.524129 258.099651 
L 874.378413 263.041659 
L 879.232698 302.577729 
L 884.086982 268.97207 
L 888.941267 313.450148 
L 893.795551 304.554532 
L 898.649836 296.647318 
L 903.50412 275.890882 
L 908.358404 289.728506 
L 913.212689 232.401206 
L 918.066973 230.424402 
L 922.921258 271.937275 
L 927.775542 253.157642 
L 932.629827 261.064856 
L 937.484111 262.053258 
L 942.338396 242.285223 
L 947.19268 303.56613 
L 952.046965 253.157642 
L 956.901249 225.482394 
L 961.755534 246.23883 
L 966.609818 237.343214 
L 971.464103 220.540385 
L 976.318387 178.039111 
L 981.172672 168.155094 
L 986.026956 228.447599 
L 990.88124 269.960471 
L 995.735525 230.424402 
L 1000.589809 181.992718 
L 1005.444094 244.262027 
L 1010.298378 171.120299 
L 1015.152663 207.691163 
L 1020.006947 186.934726 
L 1024.861232 136.526238 
L 1029.715516 142.456649 
L 1034.569801 156.294273 
L 1039.424085 175.073906 
L 1044.27837 212.633171 
L 1049.132654 106.874186 
L 1053.986939 138.503042 
L 1058.841223 69.314921 
L 1063.695508 148.387059 
L 1068.549792 95.013366 
L 1073.404077 134.549435 
L 1078.258361 104.897383 
L 1083.112645 94.024964 
L 1087.96693 33.732458 
L 1092.821214 87.106152 
L 1097.675499 180.015914 
L 1102.529783 121.700212 
L 1107.384068 164.201487 
L 1112.238352 203.737556 
L 1112.238352 203.737556 
" style="fill:none;stroke:#ff7f0e;stroke-linecap:square;stroke-width:1.5;"/>
   </g>
   <g id="line2d_14">
    <defs>
     <path d="M 0 3 
C 0.795609 3 1.55874 2.683901 2.12132 2.12132 
C 2.683901 1.55874 3 0.795609 3 0 
C 3 -0.795609 2.683901 -1.55874 2.12132 -2.12132 
C 1.55874 -2.683901 0.795609 -3 0 -3 
C -0.795609 -3 -1.55874 -2.683901 -2.12132 -2.12132 
C -2.683901 -1.55874 -3 -0.795609 -3 0 
C -3 0.795609 -2.683901 1.55874 -2.12132 2.12132 
C -1.55874 2.683901 -0.795609 3 0 3 
z
" id="m63a027ecb7" style="stroke:#008000;"/>
    </defs>
    <g clip-path="url(#pc916a0f04e)">
     <use style="fill:#008000;stroke:#008000;" x="97.692898" xlink:href="#m63a027ecb7" y="484.209358"/>
     <use style="fill:#008000;stroke:#008000;" x="126.818605" xlink:href="#m63a027ecb7" y="456.345319"/>
     <use style="fill:#008000;stroke:#008000;" x="155.944311" xlink:href="#m63a027ecb7" y="427.829422"/>
     <use style="fill:#008000;stroke:#008000;" x="185.070018" xlink:href="#m63a027ecb7" y="420.174112"/>
     <use style="fill:#008000;stroke:#008000;" x="214.195725" xlink:href="#m63a027ecb7" y="373.474242"/>
     <use style="fill:#008000;stroke:#008000;" x="243.321432" xlink:href="#m63a027ecb7" y="389.145475"/>
     <use style="fill:#008000;stroke:#008000;" x="272.447139" xlink:href="#m63a027ecb7" y="335.872792"/>
     <use style="fill:#008000;stroke:#008000;" x="301.572846" xlink:href="#m63a027ecb7" y="373.453414"/>
     <use style="fill:#008000;stroke:#008000;" x="330.698552" xlink:href="#m63a027ecb7" y="407.742528"/>
     <use style="fill:#008000;stroke:#008000;" x="359.824259" xlink:href="#m63a027ecb7" y="384.320124"/>
     <use style="fill:#008000;stroke:#008000;" x="388.949966" xlink:href="#m63a027ecb7" y="398.418649"/>
     <use style="fill:#008000;stroke:#008000;" x="418.075673" xlink:href="#m63a027ecb7" y="360.195429"/>
     <use style="fill:#008000;stroke:#008000;" x="447.20138" xlink:href="#m63a027ecb7" y="313.285846"/>
     <use style="fill:#008000;stroke:#008000;" x="476.327087" xlink:href="#m63a027ecb7" y="346.21397"/>
     <use style="fill:#008000;stroke:#008000;" x="505.452793" xlink:href="#m63a027ecb7" y="385.519785"/>
     <use style="fill:#008000;stroke:#008000;" x="534.5785" xlink:href="#m63a027ecb7" y="373.158595"/>
     <use style="fill:#008000;stroke:#008000;" x="563.704207" xlink:href="#m63a027ecb7" y="379.138209"/>
     <use style="fill:#008000;stroke:#008000;" x="592.829914" xlink:href="#m63a027ecb7" y="392.073006"/>
     <use style="fill:#008000;stroke:#008000;" x="621.955621" xlink:href="#m63a027ecb7" y="347.548016"/>
     <use style="fill:#008000;stroke:#008000;" x="651.081327" xlink:href="#m63a027ecb7" y="369.21004"/>
     <use style="fill:#008000;stroke:#008000;" x="680.207034" xlink:href="#m63a027ecb7" y="373.158595"/>
     <use style="fill:#008000;stroke:#008000;" x="709.332741" xlink:href="#m63a027ecb7" y="335.20509"/>
     <use style="fill:#008000;stroke:#008000;" x="738.458448" xlink:href="#m63a027ecb7" y="331.088705"/>
     <use style="fill:#008000;stroke:#008000;" x="767.584155" xlink:href="#m63a027ecb7" y="305.975767"/>
     <use style="fill:#008000;stroke:#008000;" x="796.709862" xlink:href="#m63a027ecb7" y="241.597191"/>
     <use style="fill:#008000;stroke:#008000;" x="825.835568" xlink:href="#m63a027ecb7" y="227.495695"/>
     <use style="fill:#008000;stroke:#008000;" x="854.961275" xlink:href="#m63a027ecb7" y="220.521231"/>
     <use style="fill:#008000;stroke:#008000;" x="884.086982" xlink:href="#m63a027ecb7" y="232.457974"/>
     <use style="fill:#008000;stroke:#008000;" x="913.212689" xlink:href="#m63a027ecb7" y="284.097123"/>
     <use style="fill:#008000;stroke:#008000;" x="942.338396" xlink:href="#m63a027ecb7" y="229.331273"/>
     <use style="fill:#008000;stroke:#008000;" x="971.464103" xlink:href="#m63a027ecb7" y="220.81222"/>
     <use style="fill:#008000;stroke:#008000;" x="1000.589809" xlink:href="#m63a027ecb7" y="241.315191"/>
     <use style="fill:#008000;stroke:#008000;" x="1029.715516" xlink:href="#m63a027ecb7" y="156.722023"/>
     <use style="fill:#008000;stroke:#008000;" x="1058.841223" xlink:href="#m63a027ecb7" y="94.162118"/>
     <use style="fill:#008000;stroke:#008000;" x="1087.96693" xlink:href="#m63a027ecb7" y="94.16432"/>
    </g>
   </g>
   <g id="patch_3">
    <path d="M 46.965625 510.012458 
L 46.965625 11.052458 
" style="fill:none;stroke:#000000;stroke-linecap:square;stroke-linejoin:miter;stroke-width:0.8;"/>
   </g>
   <g id="patch_4">
    <path d="M 1162.965625 510.012458 
L 1162.965625 11.052458 
" style="fill:none;stroke:#000000;stroke-linecap:square;stroke-linejoin:miter;stroke-width:0.8;"/>
   </g>
   <g id="patch_5">
    <path d="M 46.965625 510.012458 
L 1162.965625 510.012458 
" style="fill:none;stroke:#000000;stroke-linecap:square;stroke-linejoin:miter;stroke-width:0.8;"/>
   </g>
   <g id="patch_6">
    <path d="M 46.965625 11.052458 
L 1162.965625 11.052458 
" style="fill:none;stroke:#000000;stroke-linecap:square;stroke-linejoin:miter;stroke-width:0.8;"/>
   </g>
   <g id="legend_1">
    <g id="patch_7">
     <path d="M 53.965625 63.086833 
L 201.740625 63.086833 
Q 203.740625 63.086833 203.740625 61.086833 
L 203.740625 18.052458 
Q 203.740625 16.052458 201.740625 16.052458 
L 53.965625 16.052458 
Q 51.965625 16.052458 51.965625 18.052458 
L 51.965625 61.086833 
Q 51.965625 63.086833 53.965625 63.086833 
z
" style="fill:#ffffff;opacity:0.8;stroke:#cccccc;stroke-linejoin:miter;"/>
    </g>
    <g id="line2d_15">
     <path d="M 55.965625 24.150896 
L 75.965625 24.150896 
" style="fill:none;stroke:#008000;stroke-dasharray:5.55,2.4;stroke-dashoffset:0;stroke-width:1.5;"/>
    </g>
    <g id="line2d_16"/>
    <g id="text_14">
     <!-- Predicated -->
     <defs>
      <path d="M 19.671875 64.796875 
L 19.671875 37.40625 
L 32.078125 37.40625 
Q 38.96875 37.40625 42.71875 40.96875 
Q 46.484375 44.53125 46.484375 51.125 
Q 46.484375 57.671875 42.71875 61.234375 
Q 38.96875 64.796875 32.078125 64.796875 
z
M 9.8125 72.90625 
L 32.078125 72.90625 
Q 44.34375 72.90625 50.609375 67.359375 
Q 56.890625 61.8125 56.890625 51.125 
Q 56.890625 40.328125 50.609375 34.8125 
Q 44.34375 29.296875 32.078125 29.296875 
L 19.671875 29.296875 
L 19.671875 0 
L 9.8125 0 
z
" id="DejaVuSans-50"/>
      <path d="M 41.109375 46.296875 
Q 39.59375 47.171875 37.8125 47.578125 
Q 36.03125 48 33.890625 48 
Q 26.265625 48 22.1875 43.046875 
Q 18.109375 38.09375 18.109375 28.8125 
L 18.109375 0 
L 9.078125 0 
L 9.078125 54.6875 
L 18.109375 54.6875 
L 18.109375 46.1875 
Q 20.953125 51.171875 25.484375 53.578125 
Q 30.03125 56 36.53125 56 
Q 37.453125 56 38.578125 55.875 
Q 39.703125 55.765625 41.0625 55.515625 
z
" id="DejaVuSans-72"/>
      <path d="M 45.40625 46.390625 
L 45.40625 75.984375 
L 54.390625 75.984375 
L 54.390625 0 
L 45.40625 0 
L 45.40625 8.203125 
Q 42.578125 3.328125 38.25 0.953125 
Q 33.9375 -1.421875 27.875 -1.421875 
Q 17.96875 -1.421875 11.734375 6.484375 
Q 5.515625 14.40625 5.515625 27.296875 
Q 5.515625 40.1875 11.734375 48.09375 
Q 17.96875 56 27.875 56 
Q 33.9375 56 38.25 53.625 
Q 42.578125 51.265625 45.40625 46.390625 
z
M 14.796875 27.296875 
Q 14.796875 17.390625 18.875 11.75 
Q 22.953125 6.109375 30.078125 6.109375 
Q 37.203125 6.109375 41.296875 11.75 
Q 45.40625 17.390625 45.40625 27.296875 
Q 45.40625 37.203125 41.296875 42.84375 
Q 37.203125 48.484375 30.078125 48.484375 
Q 22.953125 48.484375 18.875 42.84375 
Q 14.796875 37.203125 14.796875 27.296875 
z
" id="DejaVuSans-64"/>
      <path d="M 48.78125 52.59375 
L 48.78125 44.1875 
Q 44.96875 46.296875 41.140625 47.34375 
Q 37.3125 48.390625 33.40625 48.390625 
Q 24.65625 48.390625 19.8125 42.84375 
Q 14.984375 37.3125 14.984375 27.296875 
Q 14.984375 17.28125 19.8125 11.734375 
Q 24.65625 6.203125 33.40625 6.203125 
Q 37.3125 6.203125 41.140625 7.25 
Q 44.96875 8.296875 48.78125 10.40625 
L 48.78125 2.09375 
Q 45.015625 0.34375 40.984375 -0.53125 
Q 36.96875 -1.421875 32.421875 -1.421875 
Q 20.0625 -1.421875 12.78125 6.34375 
Q 5.515625 14.109375 5.515625 27.296875 
Q 5.515625 40.671875 12.859375 48.328125 
Q 20.21875 56 33.015625 56 
Q 37.15625 56 41.109375 55.140625 
Q 45.0625 54.296875 48.78125 52.59375 
z
" id="DejaVuSans-63"/>
      <path d="M 34.28125 27.484375 
Q 23.390625 27.484375 19.1875 25 
Q 14.984375 22.515625 14.984375 16.5 
Q 14.984375 11.71875 18.140625 8.90625 
Q 21.296875 6.109375 26.703125 6.109375 
Q 34.1875 6.109375 38.703125 11.40625 
Q 43.21875 16.703125 43.21875 25.484375 
L 43.21875 27.484375 
z
M 52.203125 31.203125 
L 52.203125 0 
L 43.21875 0 
L 43.21875 8.296875 
Q 40.140625 3.328125 35.546875 0.953125 
Q 30.953125 -1.421875 24.3125 -1.421875 
Q 15.921875 -1.421875 10.953125 3.296875 
Q 6 8.015625 6 15.921875 
Q 6 25.140625 12.171875 29.828125 
Q 18.359375 34.515625 30.609375 34.515625 
L 43.21875 34.515625 
L 43.21875 35.40625 
Q 43.21875 41.609375 39.140625 45 
Q 35.0625 48.390625 27.6875 48.390625 
Q 23 48.390625 18.546875 47.265625 
Q 14.109375 46.140625 10.015625 43.890625 
L 10.015625 52.203125 
Q 14.9375 54.109375 19.578125 55.046875 
Q 24.21875 56 28.609375 56 
Q 40.484375 56 46.34375 49.84375 
Q 52.203125 43.703125 52.203125 31.203125 
z
" id="DejaVuSans-61"/>
      <path d="M 18.3125 70.21875 
L 18.3125 54.6875 
L 36.8125 54.6875 
L 36.8125 47.703125 
L 18.3125 47.703125 
L 18.3125 18.015625 
Q 18.3125 11.328125 20.140625 9.421875 
Q 21.96875 7.515625 27.59375 7.515625 
L 36.8125 7.515625 
L 36.8125 0 
L 27.59375 0 
Q 17.1875 0 13.234375 3.875 
Q 9.28125 7.765625 9.28125 18.015625 
L 9.28125 47.703125 
L 2.6875 47.703125 
L 2.6875 54.6875 
L 9.28125 54.6875 
L 9.28125 70.21875 
z
" id="DejaVuSans-74"/>
     </defs>
     <g transform="translate(83.965625 27.650896)scale(0.1 -0.1)">
      <use xlink:href="#DejaVuSans-50"/>
      <use x="60.287109" xlink:href="#DejaVuSans-72"/>
      <use x="101.369141" xlink:href="#DejaVuSans-65"/>
      <use x="162.892578" xlink:href="#DejaVuSans-64"/>
      <use x="226.369141" xlink:href="#DejaVuSans-69"/>
      <use x="254.152344" xlink:href="#DejaVuSans-63"/>
      <use x="309.132812" xlink:href="#DejaVuSans-61"/>
      <use x="370.412109" xlink:href="#DejaVuSans-74"/>
      <use x="409.621094" xlink:href="#DejaVuSans-65"/>
      <use x="471.144531" xlink:href="#DejaVuSans-64"/>
     </g>
    </g>
    <g id="line2d_17">
     <path d="M 55.965625 38.829021 
L 75.965625 38.829021 
" style="fill:none;stroke:#ff7f0e;stroke-linecap:square;stroke-width:1.5;"/>
    </g>
    <g id="line2d_18"/>
    <g id="text_15">
     <!-- Real Data -->
     <defs>
      <path d="M 9.421875 75.984375 
L 18.40625 75.984375 
L 18.40625 0 
L 9.421875 0 
z
" id="DejaVuSans-6c"/>
      <path id="DejaVuSans-20"/>
      <path d="M 19.671875 64.796875 
L 19.671875 8.109375 
L 31.59375 8.109375 
Q 46.6875 8.109375 53.6875 14.9375 
Q 60.6875 21.78125 60.6875 36.53125 
Q 60.6875 51.171875 53.6875 57.984375 
Q 46.6875 64.796875 31.59375 64.796875 
z
M 9.8125 72.90625 
L 30.078125 72.90625 
Q 51.265625 72.90625 61.171875 64.09375 
Q 71.09375 55.28125 71.09375 36.53125 
Q 71.09375 17.671875 61.125 8.828125 
Q 51.171875 0 30.078125 0 
L 9.8125 0 
z
" id="DejaVuSans-44"/>
     </defs>
     <g transform="translate(83.965625 42.329021)scale(0.1 -0.1)">
      <use xlink:href="#DejaVuSans-52"/>
      <use x="69.419922" xlink:href="#DejaVuSans-65"/>
      <use x="130.943359" xlink:href="#DejaVuSans-61"/>
      <use x="192.222656" xlink:href="#DejaVuSans-6c"/>
      <use x="220.005859" xlink:href="#DejaVuSans-20"/>
      <use x="251.792969" xlink:href="#DejaVuSans-44"/>
      <use x="328.794922" xlink:href="#DejaVuSans-61"/>
      <use x="390.074219" xlink:href="#DejaVuSans-74"/>
      <use x="429.283203" xlink:href="#DejaVuSans-61"/>
     </g>
    </g>
    <g id="line2d_19"/>
    <g id="line2d_20">
     <g>
      <use style="fill:#008000;stroke:#008000;" x="65.965625" xlink:href="#m63a027ecb7" y="53.507146"/>
     </g>
    </g>
    <g id="text_16">
     <!-- Start Point for Forecast -->
     <defs>
      <path d="M 53.515625 70.515625 
L 53.515625 60.890625 
Q 47.90625 63.578125 42.921875 64.890625 
Q 37.9375 66.21875 33.296875 66.21875 
Q 25.25 66.21875 20.875 63.09375 
Q 16.5 59.96875 16.5 54.203125 
Q 16.5 49.359375 19.40625 46.890625 
Q 22.3125 44.4375 30.421875 42.921875 
L 36.375 41.703125 
Q 47.40625 39.59375 52.65625 34.296875 
Q 57.90625 29 57.90625 20.125 
Q 57.90625 9.515625 50.796875 4.046875 
Q 43.703125 -1.421875 29.984375 -1.421875 
Q 24.8125 -1.421875 18.96875 -0.25 
Q 13.140625 0.921875 6.890625 3.21875 
L 6.890625 13.375 
Q 12.890625 10.015625 18.65625 8.296875 
Q 24.421875 6.59375 29.984375 6.59375 
Q 38.421875 6.59375 43.015625 9.90625 
Q 47.609375 13.234375 47.609375 19.390625 
Q 47.609375 24.75 44.3125 27.78125 
Q 41.015625 30.8125 33.5 32.328125 
L 27.484375 33.5 
Q 16.453125 35.6875 11.515625 40.375 
Q 6.59375 45.0625 6.59375 53.421875 
Q 6.59375 63.09375 13.40625 68.65625 
Q 20.21875 74.21875 32.171875 74.21875 
Q 37.3125 74.21875 42.625 73.28125 
Q 47.953125 72.359375 53.515625 70.515625 
z
" id="DejaVuSans-53"/>
      <path d="M 30.609375 48.390625 
Q 23.390625 48.390625 19.1875 42.75 
Q 14.984375 37.109375 14.984375 27.296875 
Q 14.984375 17.484375 19.15625 11.84375 
Q 23.34375 6.203125 30.609375 6.203125 
Q 37.796875 6.203125 41.984375 11.859375 
Q 46.1875 17.53125 46.1875 27.296875 
Q 46.1875 37.015625 41.984375 42.703125 
Q 37.796875 48.390625 30.609375 48.390625 
z
M 30.609375 56 
Q 42.328125 56 49.015625 48.375 
Q 55.71875 40.765625 55.71875 27.296875 
Q 55.71875 13.875 49.015625 6.21875 
Q 42.328125 -1.421875 30.609375 -1.421875 
Q 18.84375 -1.421875 12.171875 6.21875 
Q 5.515625 13.875 5.515625 27.296875 
Q 5.515625 40.765625 12.171875 48.375 
Q 18.84375 56 30.609375 56 
z
" id="DejaVuSans-6f"/>
      <path d="M 54.890625 33.015625 
L 54.890625 0 
L 45.90625 0 
L 45.90625 32.71875 
Q 45.90625 40.484375 42.875 44.328125 
Q 39.84375 48.1875 33.796875 48.1875 
Q 26.515625 48.1875 22.3125 43.546875 
Q 18.109375 38.921875 18.109375 30.90625 
L 18.109375 0 
L 9.078125 0 
L 9.078125 54.6875 
L 18.109375 54.6875 
L 18.109375 46.1875 
Q 21.34375 51.125 25.703125 53.5625 
Q 30.078125 56 35.796875 56 
Q 45.21875 56 50.046875 50.171875 
Q 54.890625 44.34375 54.890625 33.015625 
z
" id="DejaVuSans-6e"/>
      <path d="M 9.8125 72.90625 
L 51.703125 72.90625 
L 51.703125 64.59375 
L 19.671875 64.59375 
L 19.671875 43.109375 
L 48.578125 43.109375 
L 48.578125 34.8125 
L 19.671875 34.8125 
L 19.671875 0 
L 9.8125 0 
z
" id="DejaVuSans-46"/>
     </defs>
     <g transform="translate(83.965625 57.007146)scale(0.1 -0.1)">
      <use xlink:href="#DejaVuSans-53"/>
      <use x="63.476562" xlink:href="#DejaVuSans-74"/>
      <use x="102.685547" xlink:href="#DejaVuSans-61"/>
      <use x="163.964844" xlink:href="#DejaVuSans-72"/>
      <use x="205.078125" xlink:href="#DejaVuSans-74"/>
      <use x="244.287109" xlink:href="#DejaVuSans-20"/>
      <use x="276.074219" xlink:href="#DejaVuSans-50"/>
      <use x="336.330078" xlink:href="#DejaVuSans-6f"/>
      <use x="397.511719" xlink:href="#DejaVuSans-69"/>
      <use x="425.294922" xlink:href="#DejaVuSans-6e"/>
      <use x="488.673828" xlink:href="#DejaVuSans-74"/>
      <use x="527.882812" xlink:href="#DejaVuSans-20"/>
      <use x="559.669922" xlink:href="#DejaVuSans-66"/>
      <use x="594.875" xlink:href="#DejaVuSans-6f"/>
      <use x="656.056641" xlink:href="#DejaVuSans-72"/>
      <use x="697.169922" xlink:href="#DejaVuSans-20"/>
      <use x="728.957031" xlink:href="#DejaVuSans-46"/>
      <use x="786.429688" xlink:href="#DejaVuSans-6f"/>
      <use x="847.611328" xlink:href="#DejaVuSans-72"/>
      <use x="888.693359" xlink:href="#DejaVuSans-65"/>
      <use x="950.216797" xlink:href="#DejaVuSans-63"/>
      <use x="1005.197266" xlink:href="#DejaVuSans-61"/>
      <use x="1066.476562" xlink:href="#DejaVuSans-73"/>
      <use x="1118.576172" xlink:href="#DejaVuSans-74"/>
     </g>
    </g>
   </g>
  </g>
  <g id="axes_2">
   <g id="patch_8">
    <path d="M 46.965625 646.092458 
L 1164.405625 646.092458 
L 1164.405625 516.492458 
L 46.965625 516.492458 
z
" style="fill:none;"/>
   </g>
   <g id="matplotlib.axis_3">
    <g id="xtick_6">
     <g id="line2d_21">
      <g>
       <use style="stroke:#000000;stroke-width:0.8;" x="97.758352" xlink:href="#mc1be100561" y="646.092458"/>
      </g>
     </g>
     <g id="text_17">
      <!-- 0 -->
      <g transform="translate(94.577102 660.690896)scale(0.1 -0.1)">
       <use xlink:href="#DejaVuSans-30"/>
      </g>
     </g>
    </g>
    <g id="xtick_7">
     <g id="line2d_22">
      <g>
       <use style="stroke:#000000;stroke-width:0.8;" x="222.250331" xlink:href="#mc1be100561" y="646.092458"/>
      </g>
     </g>
     <g id="text_18">
      <!-- 25 -->
      <g transform="translate(215.887831 660.690896)scale(0.1 -0.1)">
       <use xlink:href="#DejaVuSans-32"/>
       <use x="63.623047" xlink:href="#DejaVuSans-35"/>
      </g>
     </g>
    </g>
    <g id="xtick_8">
     <g id="line2d_23">
      <g>
       <use style="stroke:#000000;stroke-width:0.8;" x="346.742309" xlink:href="#mc1be100561" y="646.092458"/>
      </g>
     </g>
     <g id="text_19">
      <!-- 50 -->
      <g transform="translate(340.379809 660.690896)scale(0.1 -0.1)">
       <use xlink:href="#DejaVuSans-35"/>
       <use x="63.623047" xlink:href="#DejaVuSans-30"/>
      </g>
     </g>
    </g>
    <g id="xtick_9">
     <g id="line2d_24">
      <g>
       <use style="stroke:#000000;stroke-width:0.8;" x="471.234288" xlink:href="#mc1be100561" y="646.092458"/>
      </g>
     </g>
     <g id="text_20">
      <!-- 75 -->
      <defs>
       <path d="M 8.203125 72.90625 
L 55.078125 72.90625 
L 55.078125 68.703125 
L 28.609375 0 
L 18.3125 0 
L 43.21875 64.59375 
L 8.203125 64.59375 
z
" id="DejaVuSans-37"/>
      </defs>
      <g transform="translate(464.871788 660.690896)scale(0.1 -0.1)">
       <use xlink:href="#DejaVuSans-37"/>
       <use x="63.623047" xlink:href="#DejaVuSans-35"/>
      </g>
     </g>
    </g>
    <g id="xtick_10">
     <g id="line2d_25">
      <g>
       <use style="stroke:#000000;stroke-width:0.8;" x="595.726267" xlink:href="#mc1be100561" y="646.092458"/>
      </g>
     </g>
     <g id="text_21">
      <!-- 100 -->
      <g transform="translate(586.182517 660.690896)scale(0.1 -0.1)">
       <use xlink:href="#DejaVuSans-31"/>
       <use x="63.623047" xlink:href="#DejaVuSans-30"/>
       <use x="127.246094" xlink:href="#DejaVuSans-30"/>
      </g>
     </g>
    </g>
    <g id="xtick_11">
     <g id="line2d_26">
      <g>
       <use style="stroke:#000000;stroke-width:0.8;" x="720.218245" xlink:href="#mc1be100561" y="646.092458"/>
      </g>
     </g>
     <g id="text_22">
      <!-- 125 -->
      <g transform="translate(710.674495 660.690896)scale(0.1 -0.1)">
       <use xlink:href="#DejaVuSans-31"/>
       <use x="63.623047" xlink:href="#DejaVuSans-32"/>
       <use x="127.246094" xlink:href="#DejaVuSans-35"/>
      </g>
     </g>
    </g>
    <g id="xtick_12">
     <g id="line2d_27">
      <g>
       <use style="stroke:#000000;stroke-width:0.8;" x="844.710224" xlink:href="#mc1be100561" y="646.092458"/>
      </g>
     </g>
     <g id="text_23">
      <!-- 150 -->
      <g transform="translate(835.166474 660.690896)scale(0.1 -0.1)">
       <use xlink:href="#DejaVuSans-31"/>
       <use x="63.623047" xlink:href="#DejaVuSans-35"/>
       <use x="127.246094" xlink:href="#DejaVuSans-30"/>
      </g>
     </g>
    </g>
    <g id="xtick_13">
     <g id="line2d_28">
      <g>
       <use style="stroke:#000000;stroke-width:0.8;" x="969.202203" xlink:href="#mc1be100561" y="646.092458"/>
      </g>
     </g>
     <g id="text_24">
      <!-- 175 -->
      <g transform="translate(959.658453 660.690896)scale(0.1 -0.1)">
       <use xlink:href="#DejaVuSans-31"/>
       <use x="63.623047" xlink:href="#DejaVuSans-37"/>
       <use x="127.246094" xlink:href="#DejaVuSans-35"/>
      </g>
     </g>
    </g>
    <g id="xtick_14">
     <g id="line2d_29">
      <g>
       <use style="stroke:#000000;stroke-width:0.8;" x="1093.694181" xlink:href="#mc1be100561" y="646.092458"/>
      </g>
     </g>
     <g id="text_25">
      <!-- 200 -->
      <g transform="translate(1084.150431 660.690896)scale(0.1 -0.1)">
       <use xlink:href="#DejaVuSans-32"/>
       <use x="63.623047" xlink:href="#DejaVuSans-30"/>
       <use x="127.246094" xlink:href="#DejaVuSans-30"/>
      </g>
     </g>
    </g>
   </g>
   <g id="matplotlib.axis_4">
    <g id="ytick_7">
     <g id="line2d_30">
      <g>
       <use style="stroke:#000000;stroke-width:0.8;" x="46.965625" xlink:href="#m6a1ef7105a" y="630.04481"/>
      </g>
     </g>
     <g id="text_26">
      <!-- 0 -->
      <g transform="translate(33.603125 633.844028)scale(0.1 -0.1)">
       <use xlink:href="#DejaVuSans-30"/>
      </g>
     </g>
    </g>
    <g id="ytick_8">
     <g id="line2d_31">
      <g>
       <use style="stroke:#000000;stroke-width:0.8;" x="46.965625" xlink:href="#m6a1ef7105a" y="601.025553"/>
      </g>
     </g>
     <g id="text_27">
      <!-- 10 -->
      <g transform="translate(27.240625 604.824772)scale(0.1 -0.1)">
       <use xlink:href="#DejaVuSans-31"/>
       <use x="63.623047" xlink:href="#DejaVuSans-30"/>
      </g>
     </g>
    </g>
    <g id="ytick_9">
     <g id="line2d_32">
      <g>
       <use style="stroke:#000000;stroke-width:0.8;" x="46.965625" xlink:href="#m6a1ef7105a" y="572.006296"/>
      </g>
     </g>
     <g id="text_28">
      <!-- 20 -->
      <g transform="translate(27.240625 575.805515)scale(0.1 -0.1)">
       <use xlink:href="#DejaVuSans-32"/>
       <use x="63.623047" xlink:href="#DejaVuSans-30"/>
      </g>
     </g>
    </g>
    <g id="ytick_10">
     <g id="line2d_33">
      <g>
       <use style="stroke:#000000;stroke-width:0.8;" x="46.965625" xlink:href="#m6a1ef7105a" y="542.98704"/>
      </g>
     </g>
     <g id="text_29">
      <!-- 30 -->
      <g transform="translate(27.240625 546.786259)scale(0.1 -0.1)">
       <use xlink:href="#DejaVuSans-33"/>
       <use x="63.623047" xlink:href="#DejaVuSans-30"/>
      </g>
     </g>
    </g>
    <g id="text_30">
     <!-- Temperature -->
     <defs>
      <path d="M 18.109375 8.203125 
L 18.109375 -20.796875 
L 9.078125 -20.796875 
L 9.078125 54.6875 
L 18.109375 54.6875 
L 18.109375 46.390625 
Q 20.953125 51.265625 25.265625 53.625 
Q 29.59375 56 35.59375 56 
Q 45.5625 56 51.78125 48.09375 
Q 58.015625 40.1875 58.015625 27.296875 
Q 58.015625 14.40625 51.78125 6.484375 
Q 45.5625 -1.421875 35.59375 -1.421875 
Q 29.59375 -1.421875 25.265625 0.953125 
Q 20.953125 3.328125 18.109375 8.203125 
z
M 48.6875 27.296875 
Q 48.6875 37.203125 44.609375 42.84375 
Q 40.53125 48.484375 33.40625 48.484375 
Q 26.265625 48.484375 22.1875 42.84375 
Q 18.109375 37.203125 18.109375 27.296875 
Q 18.109375 17.390625 22.1875 11.75 
Q 26.265625 6.109375 33.40625 6.109375 
Q 40.53125 6.109375 44.609375 11.75 
Q 48.6875 17.390625 48.6875 27.296875 
z
" id="DejaVuSans-70"/>
     </defs>
     <g style="fill:#0000ff;" transform="translate(21.160938 613.909646)rotate(-90)scale(0.1 -0.1)">
      <use xlink:href="#DejaVuSans-54"/>
      <use x="60.818359" xlink:href="#DejaVuSans-65"/>
      <use x="122.341797" xlink:href="#DejaVuSans-6d"/>
      <use x="219.753906" xlink:href="#DejaVuSans-70"/>
      <use x="283.230469" xlink:href="#DejaVuSans-65"/>
      <use x="344.753906" xlink:href="#DejaVuSans-72"/>
      <use x="385.867188" xlink:href="#DejaVuSans-61"/>
      <use x="447.146484" xlink:href="#DejaVuSans-74"/>
      <use x="486.355469" xlink:href="#DejaVuSans-75"/>
      <use x="549.734375" xlink:href="#DejaVuSans-72"/>
      <use x="590.816406" xlink:href="#DejaVuSans-65"/>
     </g>
    </g>
   </g>
   <g id="line2d_34">
    <path clip-path="url(#p69833707aa)" d="M 97.758352 543.679729 
L 102.738031 544.776657 
L 107.717711 542.302185 
L 112.69739 553.532638 
L 117.677069 560.806314 
L 122.656748 565.228269 
L 127.636427 570.062006 
L 132.616106 568.773551 
L 137.595785 556.306879 
L 142.575465 547.142597 
L 147.555144 547.174519 
L 152.534823 545.450775 
L 157.514502 545.774339 
L 162.494181 545.423206 
L 167.47386 548.255486 
L 172.453539 549.413354 
L 177.433219 555.318192 
L 182.412898 569.059391 
L 187.392577 570.033858 
L 192.372256 559.493193 
L 197.351935 547.413347 
L 202.331614 543.927264 
L 207.311293 533.914169 
L 212.290973 546.839346 
L 222.250331 545.269404 
L 227.23001 543.323663 
L 232.209689 549.239239 
L 237.189368 556.771187 
L 242.169047 569.905302 
L 247.148727 575.137474 
L 252.128406 564.545446 
L 257.108085 556.30978 
L 262.087764 535.858459 
L 267.067443 550.575575 
L 272.047122 545.365168 
L 277.026801 546.952521 
L 282.006481 546.084845 
L 286.98616 548.679167 
L 291.965839 551.521603 
L 296.945518 560.484201 
L 301.925197 573.225105 
L 306.904876 574.435208 
L 311.884555 569.745696 
L 316.864235 559.279901 
L 321.843914 547.033775 
L 326.823593 544.023027 
L 331.803272 546.640564 
L 336.782951 546.942364 
L 341.76263 545.286816 
L 346.742309 546.700054 
L 351.721989 551.222705 
L 356.701668 560.868706 
L 361.681347 573.631375 
L 366.661026 578.899821 
L 371.640705 566.585499 
L 381.600064 535.742382 
L 386.579743 546.372136 
L 391.559422 545.915083 
L 396.539101 549.957465 
L 401.51878 545.1127 
L 406.498459 548.39768 
L 411.478138 557.294984 
L 416.457818 563.126404 
L 421.437497 570.50455 
L 426.417176 583.669136 
L 431.396855 566.409933 
L 436.376534 556.975772 
L 441.356213 535.529091 
L 446.335892 545.623439 
L 451.315572 541.537528 
L 456.295251 545.917985 
L 461.27493 546.154492 
L 466.254609 544.040439 
L 471.234288 554.03322 
L 476.213967 562.257277 
L 481.193646 568.811276 
L 486.173326 565.447944 
L 491.153005 554.80223 
L 496.132684 543.563072 
L 501.112363 537.158522 
L 506.092042 547.148401 
L 511.071721 544.438003 
L 516.0514 544.438003 
L 521.03108 544.14781 
L 526.010759 547.920313 
L 530.990438 551.402624 
L 535.970117 560.978979 
L 540.949796 571.425911 
L 545.929475 574.327837 
L 550.909154 574.618029 
L 555.888834 558.367246 
L 560.868513 522.383368 
L 565.848192 543.567425 
L 570.827871 544.14781 
L 575.80755 547.630121 
L 580.787229 544.438003 
L 585.766908 548.500699 
L 590.746588 549.378531 
L 595.726267 559.54978 
L 600.705946 570.227416 
L 605.685625 574.792145 
L 610.665304 570.043144 
L 615.644983 555.912217 
L 620.624662 545.501558 
L 625.604342 546.630407 
L 630.584021 545.585714 
L 635.5637 546.380842 
L 640.543379 544.513453 
L 645.523058 544.8109 
L 650.502737 548.576149 
L 655.482416 558.103171 
L 660.462096 568.851903 
L 665.441775 567.498155 
L 670.421454 557.10781 
L 675.401133 552.138262 
L 680.380812 538.296077 
L 685.360491 546.475154 
L 690.34017 541.418549 
L 695.31985 546.443233 
L 700.299529 544.88635 
L 705.279208 545.169288 
L 710.258887 551.325723 
L 715.238566 560.742472 
L 720.218245 573.344084 
L 725.197924 566.942436 
L 730.177604 564.337958 
L 735.157283 547.754904 
L 740.136962 538.905481 
L 745.116641 543.262723 
L 750.09632 540.37966 
L 755.075999 544.733999 
L 760.055678 545.707595 
L 765.035358 548.729951 
L 770.015037 549.985034 
L 779.974395 569.530954 
L 784.954074 575.954366 
L 789.933753 555.340537 
L 794.913432 557.284828 
L 799.893112 546.759543 
L 804.872791 548.629834 
L 809.85247 545.743869 
L 814.832149 548.846028 
L 819.811828 546.531742 
L 824.791507 549.763036 
L 829.771186 551.295253 
L 834.750866 569.934321 
L 839.730545 577.543171 
L 844.710224 581.195244 
L 849.689903 565.852763 
L 854.669582 556.894519 
L 859.649261 549.887819 
L 864.628941 542.064227 
L 869.60862 541.213963 
L 874.588299 548.103135 
L 879.567978 544.44961 
L 884.547657 545.279561 
L 889.527336 546.833542 
L 894.507015 565.735235 
L 899.486695 574.610775 
L 904.466374 577.952342 
L 909.446053 563.184442 
L 914.425732 539.358182 
L 919.405411 546.633309 
L 924.38509 544.477179 
L 929.364769 545.680027 
L 934.344449 548.63854 
L 944.303807 543.870676 
L 949.283486 551.518701 
L 954.263165 564.906735 
L 959.242844 571.131946 
L 964.222523 574.672876 
L 969.202203 570.061716 
L 974.181882 557.061379 
L 979.161561 533.466402 
L 984.14124 535.145166 
L 989.120919 535.100767 
L 994.100598 541.944958 
L 999.080277 542.74676 
L 1004.059957 542.639099 
L 1009.039636 549.70819 
L 1014.019315 566.798791 
L 1018.998994 570.357132 
L 1023.978673 575.253551 
L 1028.958352 564.822289 
L 1038.917711 538.419989 
L 1043.89739 537.022132 
L 1048.877069 538.750228 
L 1053.856748 540.924061 
L 1058.836427 543.290871 
L 1063.816106 542.316405 
L 1068.795785 548.378237 
L 1073.775465 560.766848 
L 1078.755144 570.970019 
L 1083.734823 575.087851 
L 1088.714502 560.514961 
L 1093.694181 550.901171 
L 1098.67386 536.260086 
L 1103.653539 537.746742 
L 1108.633219 540.541877 
L 1113.612898 543.797257 
L 1113.612898 543.797257 
" style="fill:none;stroke:#ff0000;stroke-linecap:square;stroke-width:1.5;"/>
   </g>
   <g id="line2d_35">
    <path clip-path="url(#p69833707aa)" d="M 97.758352 555.93253 
L 102.738031 556.643502 
L 107.717711 556.039031 
L 112.69739 570.17315 
L 117.677069 582.963097 
L 122.656748 587.361256 
L 127.636427 596.457922 
L 132.616106 595.021469 
L 142.575465 568.692297 
L 147.555144 563.744514 
L 152.534823 560.418907 
L 157.514502 559.661505 
L 162.494181 560.391339 
L 167.47386 564.586072 
L 172.453539 569.862644 
L 177.433219 577.159246 
L 182.412898 593.716473 
L 187.392577 594.674689 
L 192.372256 587.507513 
L 197.351935 570.816507 
L 202.331614 570.193463 
L 207.311293 566.39107 
L 212.290973 560.801961 
L 217.270652 559.270615 
L 222.250331 559.576478 
L 227.23001 562.451126 
L 232.209689 569.614239 
L 237.189368 581.450613 
L 242.169047 598.236802 
L 247.148727 600.199955 
L 252.128406 591.735038 
L 257.108085 578.08496 
L 262.087764 569.657188 
L 267.067443 564.731169 
L 272.047122 558.907004 
L 277.026801 559.469978 
L 282.006481 559.572416 
L 286.98616 563.725071 
L 291.965839 571.371645 
L 296.945518 581.53622 
L 301.925197 598.138137 
L 306.904876 596.943414 
L 311.884555 589.862716 
L 316.864235 579.648518 
L 321.843914 566.949111 
L 326.823593 560.384084 
L 331.803272 559.889886 
L 336.782951 558.639156 
L 341.76263 559.017277 
L 346.742309 563.718397 
L 351.721989 569.110175 
L 356.701668 582.686253 
L 361.681347 599.607962 
L 366.661026 599.100125 
L 371.640705 589.513614 
L 376.620384 573.916634 
L 381.600064 567.387882 
L 386.579743 562.748283 
L 391.559422 561.127848 
L 396.539101 561.041951 
L 401.51878 558.077053 
L 406.498459 561.003645 
L 411.478138 572.152263 
L 416.457818 583.822067 
L 421.437497 590.967479 
L 426.417176 597.28352 
L 431.396855 587.009252 
L 436.376534 576.27706 
L 441.356213 566.61742 
L 446.335892 564.254382 
L 451.315572 557.339964 
L 456.295251 558.805437 
L 461.27493 558.746527 
L 466.254609 558.52395 
L 471.234288 569.578255 
L 476.213967 582.082653 
L 481.193646 593.566153 
L 486.173326 592.980544 
L 491.153005 580.221648 
L 496.132684 578.664765 
L 501.112363 565.459552 
L 506.092042 563.216364 
L 511.071721 559.673112 
L 516.0514 556.916283 
L 521.03108 557.786861 
L 526.010759 561.994653 
L 530.990438 569.684756 
L 535.970117 580.131688 
L 540.949796 593.190354 
L 545.929475 598.123627 
L 550.909154 593.190354 
L 555.888834 580.131688 
L 560.868513 567.653408 
L 565.848192 562.429942 
L 570.827871 559.237823 
L 575.80755 559.38292 
L 580.787229 557.786861 
L 585.766908 561.269171 
L 590.746588 567.136865 
L 595.726267 579.839464 
L 600.705946 591.876652 
L 605.685625 595.105625 
L 610.665304 594.467201 
L 615.644983 576.724828 
L 620.624662 566.748007 
L 625.604342 563.6177 
L 630.584021 559.18762 
L 635.5637 556.907577 
L 640.543379 559.122617 
L 645.523058 560.372476 
L 650.502737 567.577958 
L 655.482416 579.513578 
L 660.462096 588.068455 
L 665.441775 590.249832 
L 670.421454 582.696991 
L 675.401133 576.144442 
L 680.380812 563.227101 
L 685.360491 563.378871 
L 690.34017 557.420347 
L 695.31985 556.036999 
L 700.299529 558.158307 
L 705.279208 559.290058 
L 710.258887 567.662984 
L 715.238566 580.923043 
L 720.218245 591.109673 
L 725.197924 590.68309 
L 730.177604 587.301476 
L 735.157283 570.21784 
L 740.136962 561.151063 
L 745.116641 560.776715 
L 750.09632 555.921793 
L 755.075999 557.117967 
L 760.055678 558.093014 
L 765.035358 560.430515 
L 770.015037 566.432568 
L 774.994716 577.725992 
L 779.974395 591.651463 
L 784.954074 596.503482 
L 789.933753 588.077161 
L 794.913432 577.153442 
L 804.872791 564.137145 
L 809.85247 559.23202 
L 814.832149 559.191393 
L 819.811828 558.994062 
L 824.791507 562.505392 
L 829.771186 569.440124 
L 834.750866 589.995334 
L 839.730545 594.499122 
L 844.710224 601.008141 
L 849.689903 589.515065 
L 854.669582 578.528374 
L 859.649261 567.981325 
L 864.628941 560.330398 
L 869.60862 555.578495 
L 874.588299 558.880887 
L 879.567978 558.676301 
L 884.547657 560.672826 
L 889.527336 571.794456 
L 894.507015 586.491258 
L 899.486695 596.621881 
L 904.466374 601.320098 
L 909.446053 590.685992 
L 914.425732 578.407944 
L 919.405411 570.748312 
L 924.38509 562.646135 
L 929.364769 559.673112 
L 934.344449 559.937188 
L 939.324128 563.065463 
L 944.303807 564.380036 
L 949.283486 573.9709 
L 954.263165 588.48343 
L 959.242844 592.856632 
L 964.222523 591.867656 
L 969.202203 587.555104 
L 974.181882 581.861236 
L 979.161561 558.290345 
L 984.14124 552.69166 
L 989.120919 549.812659 
L 994.100598 555.049764 
L 999.080277 555.08807 
L 1004.059957 555.702988 
L 1009.039636 565.328965 
L 1014.019315 585.178137 
L 1018.998994 588.5583 
L 1023.978673 592.080367 
L 1028.958352 583.212082 
L 1033.938031 570.290678 
L 1038.917711 564.851308 
L 1043.89739 553.496654 
L 1048.877069 553.357942 
L 1053.856748 554.198339 
L 1058.836427 555.569789 
L 1063.816106 556.772638 
L 1068.795785 565.620029 
L 1073.775465 582.608482 
L 1078.755144 590.18657 
L 1083.734823 593.943403 
L 1088.714502 581.136625 
L 1093.694181 570.962764 
L 1098.67386 556.524233 
L 1103.653539 556.453136 
L 1108.633219 553.362585 
L 1113.612898 555.385807 
L 1113.612898 555.385807 
" style="fill:none;stroke:#008000;stroke-linecap:square;stroke-width:1.5;"/>
   </g>
   <g id="line2d_36">
    <path clip-path="url(#p69833707aa)" d="M 97.758352 566.355377 
L 102.738031 567.628161 
L 107.717711 569.573612 
L 112.69739 586.977331 
L 117.677069 605.260913 
L 122.656748 608.584112 
L 127.636427 622.582508 
L 132.616106 621.269386 
L 137.595785 610.34944 
L 142.575465 593.448625 
L 147.555144 580.329019 
L 152.534823 572.28343 
L 157.514502 570.833918 
L 162.494181 571.515871 
L 167.47386 580.288392 
L 172.453539 590.8485 
L 177.433219 596.981139 
L 182.412898 620.075244 
L 187.392577 618.732146 
L 192.372256 616.21133 
L 197.351935 600.017134 
L 202.331614 597.46489 
L 207.311293 582.1079 
L 212.290973 573.300555 
L 217.270652 571.671124 
L 222.250331 571.984532 
L 227.23001 576.826395 
L 232.209689 588.471823 
L 237.189368 604.671823 
L 242.169047 617.23571 
L 247.148727 621.266484 
L 252.128406 615.938549 
L 257.108085 602.372046 
L 262.087764 590.918146 
L 267.067443 578.294769 
L 272.047122 572.649073 
L 277.026801 569.912557 
L 282.006481 572.135432 
L 286.98616 577.43725 
L 291.965839 590.781755 
L 301.925197 618.213659 
L 306.904876 622.875602 
L 311.884555 613.618459 
L 316.864235 603.270192 
L 321.843914 588.966601 
L 326.823593 586.475298 
L 331.803272 574.146467 
L 336.782951 570.566941 
L 341.76263 570.854232 
L 346.742309 574.484541 
L 351.721989 586.470945 
L 356.701668 603.003215 
L 361.681347 617.0703 
L 366.661026 619.779248 
L 371.640705 613.778065 
L 376.620384 598.644523 
L 381.600064 586.782902 
L 386.579743 581.759669 
L 391.559422 574.142114 
L 396.539101 571.470891 
L 401.51878 570.265141 
L 406.498459 573.686511 
L 411.478138 591.61751 
L 416.457818 607.345947 
L 421.437497 616.254859 
L 426.417176 616.690148 
L 431.396855 612.538943 
L 436.376534 599.713883 
L 441.356213 595.448052 
L 446.335892 586.000833 
L 451.315572 574.137761 
L 456.295251 570.003968 
L 461.27493 570.269494 
L 466.254609 573.387613 
L 471.234288 588.923072 
L 476.213967 604.861899 
L 481.193646 618.048249 
L 486.173326 623.406655 
L 491.153005 603.215056 
L 496.132684 604.298925 
L 501.112363 591.019713 
L 506.092042 580.326117 
L 511.071721 573.747452 
L 516.0514 569.394563 
L 521.03108 571.135719 
L 526.010759 575.198415 
L 530.990438 590.288428 
L 535.970117 603.347094 
L 540.949796 615.244989 
L 545.929475 625.691921 
L 550.909154 611.472485 
L 555.888834 603.056901 
L 565.848192 581.292458 
L 570.827871 573.457259 
L 575.80755 569.974948 
L 580.787229 572.006296 
L 585.766908 574.327837 
L 590.746588 585.450918 
L 595.726267 603.502347 
L 600.705946 618.228168 
L 605.685625 619.928697 
L 610.665304 619.490506 
L 615.644983 601.827935 
L 620.624662 593.376077 
L 625.604342 584.050739 
L 630.584021 572.665034 
L 635.5637 570.706234 
L 640.543379 571.836534 
L 645.523058 575.545195 
L 650.502737 589.812512 
L 655.482416 603.506699 
L 665.441775 617.964093 
L 670.421454 611.79605 
L 675.401133 605.442284 
L 680.380812 589.197304 
L 685.360491 582.42421 
L 690.34017 571.240188 
L 695.31985 569.066646 
L 705.279208 574.837125 
L 710.258887 587.50403 
L 715.238566 606.447801 
L 720.218245 614.893856 
L 725.197924 619.937403 
L 730.177604 615.03605 
L 735.157283 597.142776 
L 740.136962 587.614304 
L 745.116641 580.501684 
L 750.09632 572.271823 
L 755.075999 570.00687 
L 760.055678 569.974948 
L 765.035358 573.695217 
L 770.015037 585.594563 
L 774.994716 599.982311 
L 779.974395 620.787667 
L 784.954074 622.492548 
L 789.933753 613.669243 
L 794.913432 603.14541 
L 799.893112 594.972136 
L 804.872791 582.437268 
L 809.85247 572.55476 
L 814.832149 570.30867 
L 819.811828 571.566655 
L 824.791507 574.359758 
L 829.771186 588.595154 
L 834.750866 601.466646 
L 839.730545 614.922875 
L 844.710224 621.690166 
L 849.689903 614.73425 
L 854.669582 605.227541 
L 859.649261 591.427434 
L 864.628941 582.714402 
L 869.60862 571.309834 
L 874.588299 569.970596 
L 879.567978 571.341755 
L 884.547657 574.715244 
L 889.527336 593.358665 
L 894.507015 610.488733 
L 904.466374 624.577582 
L 909.446053 611.428956 
L 914.425732 600.401639 
L 919.405411 593.505213 
L 924.38509 580.371097 
L 929.364769 571.997591 
L 934.344449 570.770076 
L 939.324128 571.347559 
L 944.303807 576.87863 
L 949.283486 584.420734 
L 954.263165 606.759758 
L 959.242844 612.230846 
L 964.222523 612.137229 
L 969.202203 608.298069 
L 974.181882 603.891205 
L 979.161561 587.185399 
L 984.14124 577.091051 
L 989.120919 567.62671 
L 994.100598 566.63164 
L 999.080277 566.649922 
L 1004.059957 569.94651 
L 1009.039636 586.08644 
L 1014.019315 600.366816 
L 1018.998994 607.539738 
L 1023.978673 609.957477 
L 1028.958352 604.810041 
L 1033.938031 591.955294 
L 1038.917711 586.2681 
L 1043.89739 575.109035 
L 1048.877069 568.656023 
L 1053.856748 566.246845 
L 1058.836427 566.682133 
L 1063.816106 570.318827 
L 1068.795785 585.201062 
L 1073.775465 599.235355 
L 1078.755144 610.016589 
L 1083.734823 614.293999 
L 1093.694181 595.190361 
L 1098.67386 583.432338 
L 1103.653539 575.007468 
L 1108.633219 566.966232 
L 1113.612898 563.99408 
L 1113.612898 563.99408 
" style="fill:none;stroke:#0000ff;stroke-linecap:square;stroke-width:1.5;"/>
   </g>
   <g id="line2d_37">
    <defs>
     <path d="M 0 3 
C 0.795609 3 1.55874 2.683901 2.12132 2.12132 
C 2.683901 1.55874 3 0.795609 3 0 
C 3 -0.795609 2.683901 -1.55874 2.12132 -2.12132 
C 1.55874 -2.683901 0.795609 -3 0 -3 
C -0.795609 -3 -1.55874 -2.683901 -2.12132 -2.12132 
C -2.683901 -1.55874 -3 -0.795609 -3 0 
C -3 0.795609 -2.683901 1.55874 -2.12132 2.12132 
C -1.55874 2.683901 -0.795609 3 0 3 
z
" id="m49f46a322d" style="stroke:#ff0000;"/>
    </defs>
    <g clip-path="url(#p69833707aa)">
     <use style="fill:#ff0000;stroke:#ff0000;" x="152.534823" xlink:href="#m49f46a322d" y="640.201549"/>
     <use style="fill:#ff0000;stroke:#ff0000;" x="212.290973" xlink:href="#m49f46a322d" y="640.201549"/>
     <use style="fill:#ff0000;stroke:#ff0000;" x="277.026801" xlink:href="#m49f46a322d" y="640.201549"/>
     <use style="fill:#ff0000;stroke:#ff0000;" x="282.006481" xlink:href="#m49f46a322d" y="640.201549"/>
     <use style="fill:#ff0000;stroke:#ff0000;" x="301.925197" xlink:href="#m49f46a322d" y="640.201549"/>
     <use style="fill:#ff0000;stroke:#ff0000;" x="336.782951" xlink:href="#m49f46a322d" y="640.201549"/>
     <use style="fill:#ff0000;stroke:#ff0000;" x="341.76263" xlink:href="#m49f46a322d" y="640.201549"/>
     <use style="fill:#ff0000;stroke:#ff0000;" x="361.681347" xlink:href="#m49f46a322d" y="640.201549"/>
     <use style="fill:#ff0000;stroke:#ff0000;" x="366.661026" xlink:href="#m49f46a322d" y="640.201549"/>
     <use style="fill:#ff0000;stroke:#ff0000;" x="396.539101" xlink:href="#m49f46a322d" y="640.201549"/>
     <use style="fill:#ff0000;stroke:#ff0000;" x="456.295251" xlink:href="#m49f46a322d" y="640.201549"/>
     <use style="fill:#ff0000;stroke:#ff0000;" x="466.254609" xlink:href="#m49f46a322d" y="640.201549"/>
     <use style="fill:#ff0000;stroke:#ff0000;" x="471.234288" xlink:href="#m49f46a322d" y="640.201549"/>
     <use style="fill:#ff0000;stroke:#ff0000;" x="511.071721" xlink:href="#m49f46a322d" y="640.201549"/>
     <use style="fill:#ff0000;stroke:#ff0000;" x="516.0514" xlink:href="#m49f46a322d" y="640.201549"/>
     <use style="fill:#ff0000;stroke:#ff0000;" x="521.03108" xlink:href="#m49f46a322d" y="640.201549"/>
     <use style="fill:#ff0000;stroke:#ff0000;" x="526.010759" xlink:href="#m49f46a322d" y="640.201549"/>
     <use style="fill:#ff0000;stroke:#ff0000;" x="530.990438" xlink:href="#m49f46a322d" y="640.201549"/>
     <use style="fill:#ff0000;stroke:#ff0000;" x="535.970117" xlink:href="#m49f46a322d" y="640.201549"/>
     <use style="fill:#ff0000;stroke:#ff0000;" x="540.949796" xlink:href="#m49f46a322d" y="640.201549"/>
     <use style="fill:#ff0000;stroke:#ff0000;" x="575.80755" xlink:href="#m49f46a322d" y="640.201549"/>
     <use style="fill:#ff0000;stroke:#ff0000;" x="580.787229" xlink:href="#m49f46a322d" y="640.201549"/>
     <use style="fill:#ff0000;stroke:#ff0000;" x="585.766908" xlink:href="#m49f46a322d" y="640.201549"/>
     <use style="fill:#ff0000;stroke:#ff0000;" x="590.746588" xlink:href="#m49f46a322d" y="640.201549"/>
     <use style="fill:#ff0000;stroke:#ff0000;" x="635.5637" xlink:href="#m49f46a322d" y="640.201549"/>
     <use style="fill:#ff0000;stroke:#ff0000;" x="640.543379" xlink:href="#m49f46a322d" y="640.201549"/>
     <use style="fill:#ff0000;stroke:#ff0000;" x="645.523058" xlink:href="#m49f46a322d" y="640.201549"/>
     <use style="fill:#ff0000;stroke:#ff0000;" x="665.441775" xlink:href="#m49f46a322d" y="640.201549"/>
     <use style="fill:#ff0000;stroke:#ff0000;" x="670.421454" xlink:href="#m49f46a322d" y="640.201549"/>
     <use style="fill:#ff0000;stroke:#ff0000;" x="675.401133" xlink:href="#m49f46a322d" y="640.201549"/>
     <use style="fill:#ff0000;stroke:#ff0000;" x="680.380812" xlink:href="#m49f46a322d" y="640.201549"/>
     <use style="fill:#ff0000;stroke:#ff0000;" x="685.360491" xlink:href="#m49f46a322d" y="640.201549"/>
     <use style="fill:#ff0000;stroke:#ff0000;" x="690.34017" xlink:href="#m49f46a322d" y="640.201549"/>
     <use style="fill:#ff0000;stroke:#ff0000;" x="695.31985" xlink:href="#m49f46a322d" y="640.201549"/>
     <use style="fill:#ff0000;stroke:#ff0000;" x="700.299529" xlink:href="#m49f46a322d" y="640.201549"/>
     <use style="fill:#ff0000;stroke:#ff0000;" x="705.279208" xlink:href="#m49f46a322d" y="640.201549"/>
     <use style="fill:#ff0000;stroke:#ff0000;" x="710.258887" xlink:href="#m49f46a322d" y="640.201549"/>
     <use style="fill:#ff0000;stroke:#ff0000;" x="715.238566" xlink:href="#m49f46a322d" y="640.201549"/>
     <use style="fill:#ff0000;stroke:#ff0000;" x="720.218245" xlink:href="#m49f46a322d" y="640.201549"/>
     <use style="fill:#ff0000;stroke:#ff0000;" x="725.197924" xlink:href="#m49f46a322d" y="640.201549"/>
     <use style="fill:#ff0000;stroke:#ff0000;" x="755.075999" xlink:href="#m49f46a322d" y="640.201549"/>
     <use style="fill:#ff0000;stroke:#ff0000;" x="760.055678" xlink:href="#m49f46a322d" y="640.201549"/>
     <use style="fill:#ff0000;stroke:#ff0000;" x="784.954074" xlink:href="#m49f46a322d" y="640.201549"/>
     <use style="fill:#ff0000;stroke:#ff0000;" x="809.85247" xlink:href="#m49f46a322d" y="640.201549"/>
     <use style="fill:#ff0000;stroke:#ff0000;" x="814.832149" xlink:href="#m49f46a322d" y="640.201549"/>
     <use style="fill:#ff0000;stroke:#ff0000;" x="824.791507" xlink:href="#m49f46a322d" y="640.201549"/>
     <use style="fill:#ff0000;stroke:#ff0000;" x="839.730545" xlink:href="#m49f46a322d" y="640.201549"/>
     <use style="fill:#ff0000;stroke:#ff0000;" x="844.710224" xlink:href="#m49f46a322d" y="640.201549"/>
     <use style="fill:#ff0000;stroke:#ff0000;" x="864.628941" xlink:href="#m49f46a322d" y="640.201549"/>
     <use style="fill:#ff0000;stroke:#ff0000;" x="884.547657" xlink:href="#m49f46a322d" y="640.201549"/>
     <use style="fill:#ff0000;stroke:#ff0000;" x="904.466374" xlink:href="#m49f46a322d" y="640.201549"/>
     <use style="fill:#ff0000;stroke:#ff0000;" x="924.38509" xlink:href="#m49f46a322d" y="640.201549"/>
     <use style="fill:#ff0000;stroke:#ff0000;" x="929.364769" xlink:href="#m49f46a322d" y="640.201549"/>
     <use style="fill:#ff0000;stroke:#ff0000;" x="934.344449" xlink:href="#m49f46a322d" y="640.201549"/>
     <use style="fill:#ff0000;stroke:#ff0000;" x="939.324128" xlink:href="#m49f46a322d" y="640.201549"/>
     <use style="fill:#ff0000;stroke:#ff0000;" x="979.161561" xlink:href="#m49f46a322d" y="640.201549"/>
     <use style="fill:#ff0000;stroke:#ff0000;" x="994.100598" xlink:href="#m49f46a322d" y="640.201549"/>
     <use style="fill:#ff0000;stroke:#ff0000;" x="999.080277" xlink:href="#m49f46a322d" y="640.201549"/>
     <use style="fill:#ff0000;stroke:#ff0000;" x="1009.039636" xlink:href="#m49f46a322d" y="640.201549"/>
     <use style="fill:#ff0000;stroke:#ff0000;" x="1038.917711" xlink:href="#m49f46a322d" y="640.201549"/>
     <use style="fill:#ff0000;stroke:#ff0000;" x="1043.89739" xlink:href="#m49f46a322d" y="640.201549"/>
     <use style="fill:#ff0000;stroke:#ff0000;" x="1048.877069" xlink:href="#m49f46a322d" y="640.201549"/>
     <use style="fill:#ff0000;stroke:#ff0000;" x="1053.856748" xlink:href="#m49f46a322d" y="640.201549"/>
     <use style="fill:#ff0000;stroke:#ff0000;" x="1058.836427" xlink:href="#m49f46a322d" y="640.201549"/>
     <use style="fill:#ff0000;stroke:#ff0000;" x="1088.714502" xlink:href="#m49f46a322d" y="640.201549"/>
     <use style="fill:#ff0000;stroke:#ff0000;" x="1093.694181" xlink:href="#m49f46a322d" y="640.201549"/>
     <use style="fill:#ff0000;stroke:#ff0000;" x="1098.67386" xlink:href="#m49f46a322d" y="640.201549"/>
     <use style="fill:#ff0000;stroke:#ff0000;" x="1103.653539" xlink:href="#m49f46a322d" y="640.201549"/>
     <use style="fill:#ff0000;stroke:#ff0000;" x="1108.633219" xlink:href="#m49f46a322d" y="640.201549"/>
     <use style="fill:#ff0000;stroke:#ff0000;" x="1113.612898" xlink:href="#m49f46a322d" y="640.201549"/>
    </g>
   </g>
   <g id="patch_9">
    <path d="M 46.965625 646.092458 
L 46.965625 516.492458 
" style="fill:none;stroke:#000000;stroke-linecap:square;stroke-linejoin:miter;stroke-width:0.8;"/>
   </g>
   <g id="patch_10">
    <path d="M 1164.405625 646.092458 
L 1164.405625 516.492458 
" style="fill:none;stroke:#000000;stroke-linecap:square;stroke-linejoin:miter;stroke-width:0.8;"/>
   </g>
   <g id="patch_11">
    <path d="M 46.965625 646.092458 
L 1164.405625 646.092458 
" style="fill:none;stroke:#000000;stroke-linecap:square;stroke-linejoin:miter;stroke-width:0.8;"/>
   </g>
   <g id="patch_12">
    <path d="M 46.965625 516.492458 
L 1164.405625 516.492458 
" style="fill:none;stroke:#000000;stroke-linecap:square;stroke-linejoin:miter;stroke-width:0.8;"/>
   </g>
   <g id="legend_2">
    <g id="patch_13">
     <path d="M 53.965625 583.204958 
L 144.978125 583.204958 
Q 146.978125 583.204958 146.978125 581.204958 
L 146.978125 523.492458 
Q 146.978125 521.492458 144.978125 521.492458 
L 53.965625 521.492458 
Q 51.965625 521.492458 51.965625 523.492458 
L 51.965625 581.204958 
Q 51.965625 583.204958 53.965625 583.204958 
z
" style="fill:#ffffff;opacity:0.8;stroke:#cccccc;stroke-linejoin:miter;"/>
    </g>
    <g id="line2d_38">
     <path d="M 55.965625 529.590896 
L 75.965625 529.590896 
" style="fill:none;stroke:#ff0000;stroke-linecap:square;stroke-width:1.5;"/>
    </g>
    <g id="line2d_39"/>
    <g id="text_31">
     <!-- Maxmimum -->
     <defs>
      <path d="M 9.8125 72.90625 
L 24.515625 72.90625 
L 43.109375 23.296875 
L 61.8125 72.90625 
L 76.515625 72.90625 
L 76.515625 0 
L 66.890625 0 
L 66.890625 64.015625 
L 48.09375 14.015625 
L 38.1875 14.015625 
L 19.390625 64.015625 
L 19.390625 0 
L 9.8125 0 
z
" id="DejaVuSans-4d"/>
      <path d="M 54.890625 54.6875 
L 35.109375 28.078125 
L 55.90625 0 
L 45.3125 0 
L 29.390625 21.484375 
L 13.484375 0 
L 2.875 0 
L 24.125 28.609375 
L 4.6875 54.6875 
L 15.28125 54.6875 
L 29.78125 35.203125 
L 44.28125 54.6875 
z
" id="DejaVuSans-78"/>
     </defs>
     <g transform="translate(83.965625 533.090896)scale(0.1 -0.1)">
      <use xlink:href="#DejaVuSans-4d"/>
      <use x="86.279297" xlink:href="#DejaVuSans-61"/>
      <use x="147.558594" xlink:href="#DejaVuSans-78"/>
      <use x="206.738281" xlink:href="#DejaVuSans-6d"/>
      <use x="304.150391" xlink:href="#DejaVuSans-69"/>
      <use x="331.933594" xlink:href="#DejaVuSans-6d"/>
      <use x="429.345703" xlink:href="#DejaVuSans-75"/>
      <use x="492.724609" xlink:href="#DejaVuSans-6d"/>
     </g>
    </g>
    <g id="line2d_40">
     <path d="M 55.965625 544.269021 
L 75.965625 544.269021 
" style="fill:none;stroke:#008000;stroke-linecap:square;stroke-width:1.5;"/>
    </g>
    <g id="line2d_41"/>
    <g id="text_32">
     <!-- Average -->
     <defs>
      <path d="M 34.1875 63.1875 
L 20.796875 26.90625 
L 47.609375 26.90625 
z
M 28.609375 72.90625 
L 39.796875 72.90625 
L 67.578125 0 
L 57.328125 0 
L 50.6875 18.703125 
L 17.828125 18.703125 
L 11.1875 0 
L 0.78125 0 
z
" id="DejaVuSans-41"/>
      <path d="M 2.984375 54.6875 
L 12.5 54.6875 
L 29.59375 8.796875 
L 46.6875 54.6875 
L 56.203125 54.6875 
L 35.6875 0 
L 23.484375 0 
z
" id="DejaVuSans-76"/>
     </defs>
     <g transform="translate(83.965625 547.769021)scale(0.1 -0.1)">
      <use xlink:href="#DejaVuSans-41"/>
      <use x="68.330078" xlink:href="#DejaVuSans-76"/>
      <use x="127.509766" xlink:href="#DejaVuSans-65"/>
      <use x="189.033203" xlink:href="#DejaVuSans-72"/>
      <use x="230.146484" xlink:href="#DejaVuSans-61"/>
      <use x="291.425781" xlink:href="#DejaVuSans-67"/>
      <use x="354.902344" xlink:href="#DejaVuSans-65"/>
     </g>
    </g>
    <g id="line2d_42">
     <path d="M 55.965625 558.947146 
L 75.965625 558.947146 
" style="fill:none;stroke:#0000ff;stroke-linecap:square;stroke-width:1.5;"/>
    </g>
    <g id="line2d_43"/>
    <g id="text_33">
     <!-- Minimum -->
     <g transform="translate(83.965625 562.447146)scale(0.1 -0.1)">
      <use xlink:href="#DejaVuSans-4d"/>
      <use x="86.279297" xlink:href="#DejaVuSans-69"/>
      <use x="114.0625" xlink:href="#DejaVuSans-6e"/>
      <use x="177.441406" xlink:href="#DejaVuSans-69"/>
      <use x="205.224609" xlink:href="#DejaVuSans-6d"/>
      <use x="302.636719" xlink:href="#DejaVuSans-75"/>
      <use x="366.015625" xlink:href="#DejaVuSans-6d"/>
     </g>
    </g>
    <g id="line2d_44"/>
    <g id="line2d_45">
     <g>
      <use style="fill:#ff0000;stroke:#ff0000;" x="65.965625" xlink:href="#m49f46a322d" y="573.625271"/>
     </g>
    </g>
    <g id="text_34">
     <!-- Disasters -->
     <g transform="translate(83.965625 577.125271)scale(0.1 -0.1)">
      <use xlink:href="#DejaVuSans-44"/>
      <use x="77.001953" xlink:href="#DejaVuSans-69"/>
      <use x="104.785156" xlink:href="#DejaVuSans-73"/>
      <use x="156.884766" xlink:href="#DejaVuSans-61"/>
      <use x="218.164062" xlink:href="#DejaVuSans-73"/>
      <use x="270.263672" xlink:href="#DejaVuSans-74"/>
      <use x="309.472656" xlink:href="#DejaVuSans-65"/>
      <use x="370.996094" xlink:href="#DejaVuSans-72"/>
      <use x="412.109375" xlink:href="#DejaVuSans-73"/>
     </g>
    </g>
   </g>
  </g>
 </g>
 <defs>
  <clipPath id="pc916a0f04e">
   <rect height="498.96" width="1116" x="46.965625" y="11.052458"/>
  </clipPath>
  <clipPath id="p69833707aa">
   <rect height="129.6" width="1117.44" x="46.965625" y="516.492458"/>
  </clipPath>
 </defs>
</svg>
