<?xml version="1.0" encoding="utf-8" standalone="no"?>
<!DOCTYPE svg PUBLIC "-//W3C//DTD SVG 1.1//EN"
  "http://www.w3.org/Graphics/SVG/1.1/DTD/svg11.dtd">
<!-- Created with matplotlib (http://matplotlib.org/) -->
<svg height="669pt" version="1.1" viewBox="0 0 1168 669" width="1168pt" xmlns="http://www.w3.org/2000/svg" xmlns:xlink="http://www.w3.org/1999/xlink">
 <defs>
  <style type="text/css">
*{stroke-linecap:butt;stroke-linejoin:round;}
  </style>
 </defs>
 <g id="figure_1">
  <g id="patch_1">
   <path d="M 0 669.618125 
L 1168.743125 669.618125 
L 1168.743125 -0 
L 0 -0 
z
" style="fill:none;"/>
  </g>
  <g id="axes_1">
   <g id="patch_2">
    <path d="M 40.603125 509.66 
L 1156.603125 509.66 
L 1156.603125 10.7 
L 40.603125 10.7 
z
" style="fill:none;"/>
   </g>
   <g id="matplotlib.axis_1">
    <g id="xtick_1">
     <g id="line2d_1">
      <defs>
       <path d="M 0 0 
L 0 3.5 
" id="mbd02e81f96" style="stroke:#000000;stroke-width:0.8;"/>
      </defs>
      <g>
       <use style="stroke:#000000;stroke-width:0.8;" x="91.330398" xlink:href="#mbd02e81f96" y="509.66"/>
      </g>
     </g>
     <g id="text_1">
      <!-- 0 -->
      <defs>
       <path d="M 31.78125 66.40625 
Q 24.171875 66.40625 20.328125 58.90625 
Q 16.5 51.421875 16.5 36.375 
Q 16.5 21.390625 20.328125 13.890625 
Q 24.171875 6.390625 31.78125 6.390625 
Q 39.453125 6.390625 43.28125 13.890625 
Q 47.125 21.390625 47.125 36.375 
Q 47.125 51.421875 43.28125 58.90625 
Q 39.453125 66.40625 31.78125 66.40625 
z
M 31.78125 74.21875 
Q 44.046875 74.21875 50.515625 64.515625 
Q 56.984375 54.828125 56.984375 36.375 
Q 56.984375 17.96875 50.515625 8.265625 
Q 44.046875 -1.421875 31.78125 -1.421875 
Q 19.53125 -1.421875 13.0625 8.265625 
Q 6.59375 17.96875 6.59375 36.375 
Q 6.59375 54.828125 13.0625 64.515625 
Q 19.53125 74.21875 31.78125 74.21875 
z
" id="DejaVuSans-30"/>
      </defs>
      <g transform="translate(88.149148 524.258437)scale(0.1 -0.1)">
       <use xlink:href="#DejaVuSans-30"/>
      </g>
     </g>
    </g>
    <g id="xtick_2">
     <g id="line2d_2">
      <g>
       <use style="stroke:#000000;stroke-width:0.8;" x="334.044621" xlink:href="#mbd02e81f96" y="509.66"/>
      </g>
     </g>
     <g id="text_2">
      <!-- 50 -->
      <defs>
       <path d="M 10.796875 72.90625 
L 49.515625 72.90625 
L 49.515625 64.59375 
L 19.828125 64.59375 
L 19.828125 46.734375 
Q 21.96875 47.46875 24.109375 47.828125 
Q 26.265625 48.1875 28.421875 48.1875 
Q 40.625 48.1875 47.75 41.5 
Q 54.890625 34.8125 54.890625 23.390625 
Q 54.890625 11.625 47.5625 5.09375 
Q 40.234375 -1.421875 26.90625 -1.421875 
Q 22.3125 -1.421875 17.546875 -0.640625 
Q 12.796875 0.140625 7.71875 1.703125 
L 7.71875 11.625 
Q 12.109375 9.234375 16.796875 8.0625 
Q 21.484375 6.890625 26.703125 6.890625 
Q 35.15625 6.890625 40.078125 11.328125 
Q 45.015625 15.765625 45.015625 23.390625 
Q 45.015625 31 40.078125 35.4375 
Q 35.15625 39.890625 26.703125 39.890625 
Q 22.75 39.890625 18.8125 39.015625 
Q 14.890625 38.140625 10.796875 36.28125 
z
" id="DejaVuSans-35"/>
      </defs>
      <g transform="translate(327.682121 524.258437)scale(0.1 -0.1)">
       <use xlink:href="#DejaVuSans-35"/>
       <use x="63.623047" xlink:href="#DejaVuSans-30"/>
      </g>
     </g>
    </g>
    <g id="xtick_3">
     <g id="line2d_3">
      <g>
       <use style="stroke:#000000;stroke-width:0.8;" x="576.758845" xlink:href="#mbd02e81f96" y="509.66"/>
      </g>
     </g>
     <g id="text_3">
      <!-- 100 -->
      <defs>
       <path d="M 12.40625 8.296875 
L 28.515625 8.296875 
L 28.515625 63.921875 
L 10.984375 60.40625 
L 10.984375 69.390625 
L 28.421875 72.90625 
L 38.28125 72.90625 
L 38.28125 8.296875 
L 54.390625 8.296875 
L 54.390625 0 
L 12.40625 0 
z
" id="DejaVuSans-31"/>
      </defs>
      <g transform="translate(567.215095 524.258437)scale(0.1 -0.1)">
       <use xlink:href="#DejaVuSans-31"/>
       <use x="63.623047" xlink:href="#DejaVuSans-30"/>
       <use x="127.246094" xlink:href="#DejaVuSans-30"/>
      </g>
     </g>
    </g>
    <g id="xtick_4">
     <g id="line2d_4">
      <g>
       <use style="stroke:#000000;stroke-width:0.8;" x="819.473068" xlink:href="#mbd02e81f96" y="509.66"/>
      </g>
     </g>
     <g id="text_4">
      <!-- 150 -->
      <g transform="translate(809.929318 524.258437)scale(0.1 -0.1)">
       <use xlink:href="#DejaVuSans-31"/>
       <use x="63.623047" xlink:href="#DejaVuSans-35"/>
       <use x="127.246094" xlink:href="#DejaVuSans-30"/>
      </g>
     </g>
    </g>
    <g id="xtick_5">
     <g id="line2d_5">
      <g>
       <use style="stroke:#000000;stroke-width:0.8;" x="1062.187292" xlink:href="#mbd02e81f96" y="509.66"/>
      </g>
     </g>
     <g id="text_5">
      <!-- 200 -->
      <defs>
       <path d="M 19.1875 8.296875 
L 53.609375 8.296875 
L 53.609375 0 
L 7.328125 0 
L 7.328125 8.296875 
Q 12.9375 14.109375 22.625 23.890625 
Q 32.328125 33.6875 34.8125 36.53125 
Q 39.546875 41.84375 41.421875 45.53125 
Q 43.3125 49.21875 43.3125 52.78125 
Q 43.3125 58.59375 39.234375 62.25 
Q 35.15625 65.921875 28.609375 65.921875 
Q 23.96875 65.921875 18.8125 64.3125 
Q 13.671875 62.703125 7.8125 59.421875 
L 7.8125 69.390625 
Q 13.765625 71.78125 18.9375 73 
Q 24.125 74.21875 28.421875 74.21875 
Q 39.75 74.21875 46.484375 68.546875 
Q 53.21875 62.890625 53.21875 53.421875 
Q 53.21875 48.921875 51.53125 44.890625 
Q 49.859375 40.875 45.40625 35.40625 
Q 44.1875 33.984375 37.640625 27.21875 
Q 31.109375 20.453125 19.1875 8.296875 
z
" id="DejaVuSans-32"/>
      </defs>
      <g transform="translate(1052.643542 524.258437)scale(0.1 -0.1)">
       <use xlink:href="#DejaVuSans-32"/>
       <use x="63.623047" xlink:href="#DejaVuSans-30"/>
       <use x="127.246094" xlink:href="#DejaVuSans-30"/>
      </g>
     </g>
    </g>
    <g id="text_6">
     <!-- Time -->
     <defs>
      <path d="M -0.296875 72.90625 
L 61.375 72.90625 
L 61.375 64.59375 
L 35.5 64.59375 
L 35.5 0 
L 25.59375 0 
L 25.59375 64.59375 
L -0.296875 64.59375 
z
" id="DejaVuSans-54"/>
      <path d="M 9.421875 54.6875 
L 18.40625 54.6875 
L 18.40625 0 
L 9.421875 0 
z
M 9.421875 75.984375 
L 18.40625 75.984375 
L 18.40625 64.59375 
L 9.421875 64.59375 
z
" id="DejaVuSans-69"/>
      <path d="M 52 44.1875 
Q 55.375 50.25 60.0625 53.125 
Q 64.75 56 71.09375 56 
Q 79.640625 56 84.28125 50.015625 
Q 88.921875 44.046875 88.921875 33.015625 
L 88.921875 0 
L 79.890625 0 
L 79.890625 32.71875 
Q 79.890625 40.578125 77.09375 44.375 
Q 74.3125 48.1875 68.609375 48.1875 
Q 61.625 48.1875 57.5625 43.546875 
Q 53.515625 38.921875 53.515625 30.90625 
L 53.515625 0 
L 44.484375 0 
L 44.484375 32.71875 
Q 44.484375 40.625 41.703125 44.40625 
Q 38.921875 48.1875 33.109375 48.1875 
Q 26.21875 48.1875 22.15625 43.53125 
Q 18.109375 38.875 18.109375 30.90625 
L 18.109375 0 
L 9.078125 0 
L 9.078125 54.6875 
L 18.109375 54.6875 
L 18.109375 46.1875 
Q 21.1875 51.21875 25.484375 53.609375 
Q 29.78125 56 35.6875 56 
Q 41.65625 56 45.828125 52.96875 
Q 50 49.953125 52 44.1875 
z
" id="DejaVuSans-6d"/>
      <path d="M 56.203125 29.59375 
L 56.203125 25.203125 
L 14.890625 25.203125 
Q 15.484375 15.921875 20.484375 11.0625 
Q 25.484375 6.203125 34.421875 6.203125 
Q 39.59375 6.203125 44.453125 7.46875 
Q 49.3125 8.734375 54.109375 11.28125 
L 54.109375 2.78125 
Q 49.265625 0.734375 44.1875 -0.34375 
Q 39.109375 -1.421875 33.890625 -1.421875 
Q 20.796875 -1.421875 13.15625 6.1875 
Q 5.515625 13.8125 5.515625 26.8125 
Q 5.515625 40.234375 12.765625 48.109375 
Q 20.015625 56 32.328125 56 
Q 43.359375 56 49.78125 48.890625 
Q 56.203125 41.796875 56.203125 29.59375 
z
M 47.21875 32.234375 
Q 47.125 39.59375 43.09375 43.984375 
Q 39.0625 48.390625 32.421875 48.390625 
Q 24.90625 48.390625 20.390625 44.140625 
Q 15.875 39.890625 15.1875 32.171875 
z
" id="DejaVuSans-65"/>
     </defs>
     <g transform="translate(586.215625 537.936562)scale(0.1 -0.1)">
      <use xlink:href="#DejaVuSans-54"/>
      <use x="61.037109" xlink:href="#DejaVuSans-69"/>
      <use x="88.820312" xlink:href="#DejaVuSans-6d"/>
      <use x="186.232422" xlink:href="#DejaVuSans-65"/>
     </g>
    </g>
   </g>
   <g id="matplotlib.axis_2">
    <g id="ytick_1">
     <g id="line2d_6">
      <defs>
       <path d="M 0 0 
L -3.5 0 
" id="ma5c12855fe" style="stroke:#000000;stroke-width:0.8;"/>
      </defs>
      <g>
       <use style="stroke:#000000;stroke-width:0.8;" x="40.603125" xlink:href="#ma5c12855fe" y="486.98"/>
      </g>
     </g>
     <g id="text_7">
      <!-- 0 -->
      <g transform="translate(27.240625 490.779219)scale(0.1 -0.1)">
       <use xlink:href="#DejaVuSans-30"/>
      </g>
     </g>
    </g>
    <g id="ytick_2">
     <g id="line2d_7">
      <g>
       <use style="stroke:#000000;stroke-width:0.8;" x="40.603125" xlink:href="#ma5c12855fe" y="401.395094"/>
      </g>
     </g>
     <g id="text_8">
      <!-- 10 -->
      <g transform="translate(20.878125 405.194313)scale(0.1 -0.1)">
       <use xlink:href="#DejaVuSans-31"/>
       <use x="63.623047" xlink:href="#DejaVuSans-30"/>
      </g>
     </g>
    </g>
    <g id="ytick_3">
     <g id="line2d_8">
      <g>
       <use style="stroke:#000000;stroke-width:0.8;" x="40.603125" xlink:href="#ma5c12855fe" y="315.810189"/>
      </g>
     </g>
     <g id="text_9">
      <!-- 20 -->
      <g transform="translate(20.878125 319.609407)scale(0.1 -0.1)">
       <use xlink:href="#DejaVuSans-32"/>
       <use x="63.623047" xlink:href="#DejaVuSans-30"/>
      </g>
     </g>
    </g>
    <g id="ytick_4">
     <g id="line2d_9">
      <g>
       <use style="stroke:#000000;stroke-width:0.8;" x="40.603125" xlink:href="#ma5c12855fe" y="230.225283"/>
      </g>
     </g>
     <g id="text_10">
      <!-- 30 -->
      <defs>
       <path d="M 40.578125 39.3125 
Q 47.65625 37.796875 51.625 33 
Q 55.609375 28.21875 55.609375 21.1875 
Q 55.609375 10.40625 48.1875 4.484375 
Q 40.765625 -1.421875 27.09375 -1.421875 
Q 22.515625 -1.421875 17.65625 -0.515625 
Q 12.796875 0.390625 7.625 2.203125 
L 7.625 11.71875 
Q 11.71875 9.328125 16.59375 8.109375 
Q 21.484375 6.890625 26.8125 6.890625 
Q 36.078125 6.890625 40.9375 10.546875 
Q 45.796875 14.203125 45.796875 21.1875 
Q 45.796875 27.640625 41.28125 31.265625 
Q 36.765625 34.90625 28.71875 34.90625 
L 20.21875 34.90625 
L 20.21875 43.015625 
L 29.109375 43.015625 
Q 36.375 43.015625 40.234375 45.921875 
Q 44.09375 48.828125 44.09375 54.296875 
Q 44.09375 59.90625 40.109375 62.90625 
Q 36.140625 65.921875 28.71875 65.921875 
Q 24.65625 65.921875 20.015625 65.03125 
Q 15.375 64.15625 9.8125 62.3125 
L 9.8125 71.09375 
Q 15.4375 72.65625 20.34375 73.4375 
Q 25.25 74.21875 29.59375 74.21875 
Q 40.828125 74.21875 47.359375 69.109375 
Q 53.90625 64.015625 53.90625 55.328125 
Q 53.90625 49.265625 50.4375 45.09375 
Q 46.96875 40.921875 40.578125 39.3125 
z
" id="DejaVuSans-33"/>
      </defs>
      <g transform="translate(20.878125 234.024502)scale(0.1 -0.1)">
       <use xlink:href="#DejaVuSans-33"/>
       <use x="63.623047" xlink:href="#DejaVuSans-30"/>
      </g>
     </g>
    </g>
    <g id="ytick_5">
     <g id="line2d_10">
      <g>
       <use style="stroke:#000000;stroke-width:0.8;" x="40.603125" xlink:href="#ma5c12855fe" y="144.640377"/>
      </g>
     </g>
     <g id="text_11">
      <!-- 40 -->
      <defs>
       <path d="M 37.796875 64.3125 
L 12.890625 25.390625 
L 37.796875 25.390625 
z
M 35.203125 72.90625 
L 47.609375 72.90625 
L 47.609375 25.390625 
L 58.015625 25.390625 
L 58.015625 17.1875 
L 47.609375 17.1875 
L 47.609375 0 
L 37.796875 0 
L 37.796875 17.1875 
L 4.890625 17.1875 
L 4.890625 26.703125 
z
" id="DejaVuSans-34"/>
      </defs>
      <g transform="translate(20.878125 148.439596)scale(0.1 -0.1)">
       <use xlink:href="#DejaVuSans-34"/>
       <use x="63.623047" xlink:href="#DejaVuSans-30"/>
      </g>
     </g>
    </g>
    <g id="ytick_6">
     <g id="line2d_11">
      <g>
       <use style="stroke:#000000;stroke-width:0.8;" x="40.603125" xlink:href="#ma5c12855fe" y="59.055472"/>
      </g>
     </g>
     <g id="text_12">
      <!-- 50 -->
      <g transform="translate(20.878125 62.85469)scale(0.1 -0.1)">
       <use xlink:href="#DejaVuSans-35"/>
       <use x="63.623047" xlink:href="#DejaVuSans-30"/>
      </g>
     </g>
    </g>
    <g id="text_13">
     <!-- Refugees -->
     <defs>
      <path d="M 44.390625 34.1875 
Q 47.5625 33.109375 50.5625 29.59375 
Q 53.5625 26.078125 56.59375 19.921875 
L 66.609375 0 
L 56 0 
L 46.6875 18.703125 
Q 43.0625 26.03125 39.671875 28.421875 
Q 36.28125 30.8125 30.421875 30.8125 
L 19.671875 30.8125 
L 19.671875 0 
L 9.8125 0 
L 9.8125 72.90625 
L 32.078125 72.90625 
Q 44.578125 72.90625 50.734375 67.671875 
Q 56.890625 62.453125 56.890625 51.90625 
Q 56.890625 45.015625 53.6875 40.46875 
Q 50.484375 35.9375 44.390625 34.1875 
z
M 19.671875 64.796875 
L 19.671875 38.921875 
L 32.078125 38.921875 
Q 39.203125 38.921875 42.84375 42.21875 
Q 46.484375 45.515625 46.484375 51.90625 
Q 46.484375 58.296875 42.84375 61.546875 
Q 39.203125 64.796875 32.078125 64.796875 
z
" id="DejaVuSans-52"/>
      <path d="M 37.109375 75.984375 
L 37.109375 68.5 
L 28.515625 68.5 
Q 23.6875 68.5 21.796875 66.546875 
Q 19.921875 64.59375 19.921875 59.515625 
L 19.921875 54.6875 
L 34.71875 54.6875 
L 34.71875 47.703125 
L 19.921875 47.703125 
L 19.921875 0 
L 10.890625 0 
L 10.890625 47.703125 
L 2.296875 47.703125 
L 2.296875 54.6875 
L 10.890625 54.6875 
L 10.890625 58.5 
Q 10.890625 67.625 15.140625 71.796875 
Q 19.390625 75.984375 28.609375 75.984375 
z
" id="DejaVuSans-66"/>
      <path d="M 8.5 21.578125 
L 8.5 54.6875 
L 17.484375 54.6875 
L 17.484375 21.921875 
Q 17.484375 14.15625 20.5 10.265625 
Q 23.53125 6.390625 29.59375 6.390625 
Q 36.859375 6.390625 41.078125 11.03125 
Q 45.3125 15.671875 45.3125 23.6875 
L 45.3125 54.6875 
L 54.296875 54.6875 
L 54.296875 0 
L 45.3125 0 
L 45.3125 8.40625 
Q 42.046875 3.421875 37.71875 1 
Q 33.40625 -1.421875 27.6875 -1.421875 
Q 18.265625 -1.421875 13.375 4.4375 
Q 8.5 10.296875 8.5 21.578125 
z
M 31.109375 56 
z
" id="DejaVuSans-75"/>
      <path d="M 45.40625 27.984375 
Q 45.40625 37.75 41.375 43.109375 
Q 37.359375 48.484375 30.078125 48.484375 
Q 22.859375 48.484375 18.828125 43.109375 
Q 14.796875 37.75 14.796875 27.984375 
Q 14.796875 18.265625 18.828125 12.890625 
Q 22.859375 7.515625 30.078125 7.515625 
Q 37.359375 7.515625 41.375 12.890625 
Q 45.40625 18.265625 45.40625 27.984375 
z
M 54.390625 6.78125 
Q 54.390625 -7.171875 48.1875 -13.984375 
Q 42 -20.796875 29.203125 -20.796875 
Q 24.46875 -20.796875 20.265625 -20.09375 
Q 16.0625 -19.390625 12.109375 -17.921875 
L 12.109375 -9.1875 
Q 16.0625 -11.328125 19.921875 -12.34375 
Q 23.78125 -13.375 27.78125 -13.375 
Q 36.625 -13.375 41.015625 -8.765625 
Q 45.40625 -4.15625 45.40625 5.171875 
L 45.40625 9.625 
Q 42.625 4.78125 38.28125 2.390625 
Q 33.9375 0 27.875 0 
Q 17.828125 0 11.671875 7.65625 
Q 5.515625 15.328125 5.515625 27.984375 
Q 5.515625 40.671875 11.671875 48.328125 
Q 17.828125 56 27.875 56 
Q 33.9375 56 38.28125 53.609375 
Q 42.625 51.21875 45.40625 46.390625 
L 45.40625 54.6875 
L 54.390625 54.6875 
z
" id="DejaVuSans-67"/>
      <path d="M 44.28125 53.078125 
L 44.28125 44.578125 
Q 40.484375 46.53125 36.375 47.5 
Q 32.28125 48.484375 27.875 48.484375 
Q 21.1875 48.484375 17.84375 46.4375 
Q 14.5 44.390625 14.5 40.28125 
Q 14.5 37.15625 16.890625 35.375 
Q 19.28125 33.59375 26.515625 31.984375 
L 29.59375 31.296875 
Q 39.15625 29.25 43.1875 25.515625 
Q 47.21875 21.78125 47.21875 15.09375 
Q 47.21875 7.46875 41.1875 3.015625 
Q 35.15625 -1.421875 24.609375 -1.421875 
Q 20.21875 -1.421875 15.453125 -0.5625 
Q 10.6875 0.296875 5.421875 2 
L 5.421875 11.28125 
Q 10.40625 8.6875 15.234375 7.390625 
Q 20.0625 6.109375 24.8125 6.109375 
Q 31.15625 6.109375 34.5625 8.28125 
Q 37.984375 10.453125 37.984375 14.40625 
Q 37.984375 18.0625 35.515625 20.015625 
Q 33.0625 21.96875 24.703125 23.78125 
L 21.578125 24.515625 
Q 13.234375 26.265625 9.515625 29.90625 
Q 5.8125 33.546875 5.8125 39.890625 
Q 5.8125 47.609375 11.28125 51.796875 
Q 16.75 56 26.8125 56 
Q 31.78125 56 36.171875 55.265625 
Q 40.578125 54.546875 44.28125 53.078125 
z
" id="DejaVuSans-73"/>
     </defs>
     <g style="fill:#ff7f0e;" transform="translate(14.798438 283.588594)rotate(-90)scale(0.1 -0.1)">
      <use xlink:href="#DejaVuSans-52"/>
      <use x="69.419922" xlink:href="#DejaVuSans-65"/>
      <use x="130.943359" xlink:href="#DejaVuSans-66"/>
      <use x="166.148438" xlink:href="#DejaVuSans-75"/>
      <use x="229.527344" xlink:href="#DejaVuSans-67"/>
      <use x="293.003906" xlink:href="#DejaVuSans-65"/>
      <use x="354.527344" xlink:href="#DejaVuSans-65"/>
      <use x="416.050781" xlink:href="#DejaVuSans-73"/>
     </g>
    </g>
   </g>
   <g id="line2d_12">
    <path clip-path="url(#peb5321150f)" d="M 91.330398 486.753707 
L 96.184682 486.98 
L 110.747536 486.98 
L 115.60182 425.519898 
L 120.456105 486.98 
L 139.873242 486.98 
L 144.727527 436.355476 
L 149.581811 479.648988 
L 154.436096 486.98 
L 168.998949 486.98 
L 173.853234 421.229405 
L 178.707518 486.98 
L 198.124656 486.98 
L 202.978941 444.277419 
L 207.833225 486.98 
L 227.250363 486.98 
L 232.104647 426.379762 
L 236.958932 486.98 
L 256.37607 486.98 
L 261.230354 441.667595 
L 266.084639 486.98 
L 285.501777 486.98 
L 290.356061 429.585396 
L 295.210346 486.98 
L 314.627483 486.98 
L 319.481768 433.077265 
L 324.336052 486.98 
L 343.75319 486.98 
L 348.607475 431.102131 
L 353.461759 486.98 
L 372.878897 486.98 
L 377.733182 431.871258 
L 382.587466 486.98 
L 402.004604 486.98 
L 406.858888 433.728887 
L 411.713173 486.98 
L 431.130311 486.98 
L 435.984595 438.50362 
L 440.83888 486.98 
L 460.256018 486.98 
L 465.110302 425.745259 
L 469.964587 486.98 
L 489.381724 486.98 
L 494.236009 446.504575 
L 499.090293 486.98 
L 518.507431 486.98 
L 523.361716 425.775887 
L 528.216 486.98 
L 547.633138 486.98 
L 552.487423 445.845411 
L 557.341707 482.644256 
L 562.195991 486.98 
L 576.758845 486.98 
L 581.613129 423.038246 
L 586.467414 486.98 
L 605.884552 486.98 
L 610.738836 443.750688 
L 615.593121 486.98 
L 635.010259 486.98 
L 639.864543 427.112992 
L 644.718827 486.98 
L 664.135965 486.98 
L 668.99025 444.028686 
L 673.844534 390.005471 
L 678.698819 367.236435 
L 683.553103 374.242388 
L 688.407388 414.719066 
L 693.261672 416.455697 
L 698.115957 338.417495 
L 702.970241 465.178101 
L 707.824526 478.25532 
L 712.67881 486.98 
L 722.387379 486.98 
L 727.241663 412.490534 
L 732.095948 340.954754 
L 736.950232 317.972665 
L 741.804517 325.287706 
L 746.658801 365.462707 
L 751.513086 367.747736 
L 756.36737 288.824077 
L 761.221655 463.468584 
L 766.075939 474.291043 
L 770.930224 486.98 
L 780.638793 486.98 
L 785.493077 411.458154 
L 790.347362 239.408837 
L 795.201646 215.985689 
L 800.055931 223.940337 
L 804.910215 263.4911 
L 809.7645 266.911375 
L 814.618784 186.154692 
L 819.473068 468.954397 
L 824.327353 486.98 
L 838.890206 486.98 
L 843.744491 414.771009 
L 848.598775 482.288019 
L 853.45306 486.98 
L 868.015913 486.98 
L 872.870198 422.823112 
L 877.724482 486.98 
L 897.14162 486.98 
L 901.995904 441.898752 
L 906.850189 483.662656 
L 911.704473 486.98 
L 926.267327 486.98 
L 931.121611 423.653254 
L 935.975896 486.98 
L 955.393034 486.98 
L 960.247318 446.798971 
L 965.101603 486.98 
L 984.51874 486.98 
L 989.373025 430.371521 
L 994.227309 486.98 
L 1013.644447 486.98 
L 1018.498732 445.928113 
L 1023.353016 476.708809 
L 1028.207301 486.98 
L 1042.770154 486.98 
L 1047.624439 419.453857 
L 1052.478723 486.98 
L 1071.895861 486.98 
L 1076.750145 435.978085 
L 1081.60443 486.98 
L 1101.021568 486.98 
L 1105.875852 429.869137 
L 1105.875852 429.869137 
" style="fill:none;stroke:#008000;stroke-dasharray:5.55,2.4;stroke-dashoffset:0;stroke-width:1.5;"/>
   </g>
   <g id="line2d_13">
    <path clip-path="url(#peb5321150f)" d="M 91.330398 486.98 
L 101.038967 486.98 
L 105.893251 478.421509 
L 110.747536 478.421509 
L 115.60182 486.98 
L 217.541794 486.98 
L 222.396078 478.421509 
L 227.250363 486.98 
L 232.104647 478.421509 
L 236.958932 478.421509 
L 241.813216 486.98 
L 251.521785 486.98 
L 256.37607 469.863019 
L 261.230354 486.98 
L 280.647492 486.98 
L 285.501777 478.421509 
L 290.356061 486.98 
L 304.918914 486.98 
L 309.773199 478.421509 
L 324.336052 478.421509 
L 329.190337 486.98 
L 334.044621 469.863019 
L 338.898906 444.187547 
L 343.75319 486.98 
L 348.607475 478.421509 
L 353.461759 478.421509 
L 358.316044 486.98 
L 372.878897 486.98 
L 382.587466 469.863019 
L 392.296035 486.98 
L 397.150319 478.421509 
L 402.004604 486.98 
L 406.858888 486.98 
L 411.713173 444.187547 
L 416.567457 486.98 
L 421.421742 478.421509 
L 426.276026 486.98 
L 431.130311 486.98 
L 435.984595 478.421509 
L 440.83888 486.98 
L 460.256018 486.98 
L 465.110302 478.421509 
L 469.964587 486.98 
L 474.818871 478.421509 
L 479.673155 486.98 
L 484.52744 469.863019 
L 489.381724 486.98 
L 503.944578 486.98 
L 508.798862 469.863019 
L 513.653147 486.98 
L 533.070285 486.98 
L 537.924569 469.863019 
L 547.633138 486.98 
L 567.050276 486.98 
L 571.90456 469.863019 
L 576.758845 486.98 
L 581.613129 486.98 
L 586.467414 478.421509 
L 591.321698 486.98 
L 605.884552 486.98 
L 610.738836 461.304528 
L 615.593121 486.98 
L 625.30169 486.98 
L 630.155974 478.421509 
L 635.010259 486.98 
L 639.864543 486.98 
L 644.718827 195.991321 
L 649.573112 350.044151 
L 654.427396 273.017736 
L 659.281681 238.783774 
L 664.135965 290.134717 
L 668.99025 315.810189 
L 673.844534 238.783774 
L 678.698819 315.810189 
L 683.553103 375.719623 
L 688.407388 375.719623 
L 693.261672 409.953585 
L 698.115957 392.836604 
L 702.970241 264.459245 
L 707.824526 247.342264 
L 712.67881 238.783774 
L 717.533095 238.783774 
L 722.387379 264.459245 
L 727.241663 298.693208 
L 732.095948 221.666792 
L 736.950232 195.991321 
L 741.804517 213.108302 
L 746.658801 221.666792 
L 751.513086 418.512075 
L 756.36737 427.070566 
L 761.221655 178.87434 
L 766.075939 230.225283 
L 770.930224 33.38 
L 775.784508 178.87434 
L 780.638793 247.342264 
L 785.493077 247.342264 
L 790.347362 101.847925 
L 795.201646 101.847925 
L 800.055931 170.315849 
L 804.910215 358.602642 
L 809.7645 401.395094 
L 814.618784 409.953585 
L 819.473068 486.98 
L 824.327353 444.187547 
L 829.181637 486.98 
L 834.035922 486.98 
L 838.890206 478.421509 
L 843.744491 461.304528 
L 848.598775 469.863019 
L 853.45306 486.98 
L 858.307344 478.421509 
L 863.161629 478.421509 
L 868.015913 486.98 
L 877.724482 486.98 
L 882.578767 427.070566 
L 887.433051 486.98 
L 892.287336 444.187547 
L 897.14162 486.98 
L 906.850189 486.98 
L 911.704473 478.421509 
L 916.558758 486.98 
L 921.413042 486.98 
L 926.267327 478.421509 
L 931.121611 486.98 
L 935.975896 469.863019 
L 945.684465 486.98 
L 950.538749 486.98 
L 955.393034 478.421509 
L 960.247318 486.98 
L 965.101603 418.512075 
L 969.955887 486.98 
L 974.810172 469.863019 
L 979.664456 486.98 
L 984.51874 478.421509 
L 989.373025 478.421509 
L 994.227309 469.863019 
L 999.081594 478.421509 
L 1008.790163 478.421509 
L 1013.644447 461.304528 
L 1028.207301 486.98 
L 1033.061585 461.304528 
L 1037.91587 486.98 
L 1042.770154 469.863019 
L 1047.624439 486.98 
L 1076.750145 486.98 
L 1081.60443 444.187547 
L 1086.458714 486.98 
L 1091.312999 427.070566 
L 1096.167283 486.98 
L 1105.875852 486.98 
L 1105.875852 486.98 
" style="fill:none;stroke:#ff7f0e;stroke-linecap:square;stroke-width:1.5;"/>
   </g>
   <g id="line2d_14">
    <defs>
     <path d="M 0 3 
C 0.795609 3 1.55874 2.683901 2.12132 2.12132 
C 2.683901 1.55874 3 0.795609 3 0 
C 3 -0.795609 2.683901 -1.55874 2.12132 -2.12132 
C 1.55874 -2.683901 0.795609 -3 0 -3 
C -0.795609 -3 -1.55874 -2.683901 -2.12132 -2.12132 
C -2.683901 -1.55874 -3 -0.795609 -3 0 
C -3 0.795609 -2.683901 1.55874 -2.12132 2.12132 
C -1.55874 2.683901 -0.795609 3 0 3 
z
" id="m0dff0a9b2c" style="stroke:#008000;"/>
    </defs>
    <g clip-path="url(#peb5321150f)">
     <use style="fill:#008000;stroke:#008000;" x="91.330398" xlink:href="#m0dff0a9b2c" y="486.753707"/>
     <use style="fill:#008000;stroke:#008000;" x="120.456105" xlink:href="#m0dff0a9b2c" y="486.98"/>
     <use style="fill:#008000;stroke:#008000;" x="149.581811" xlink:href="#m0dff0a9b2c" y="479.648988"/>
     <use style="fill:#008000;stroke:#008000;" x="178.707518" xlink:href="#m0dff0a9b2c" y="486.98"/>
     <use style="fill:#008000;stroke:#008000;" x="207.833225" xlink:href="#m0dff0a9b2c" y="486.98"/>
     <use style="fill:#008000;stroke:#008000;" x="236.958932" xlink:href="#m0dff0a9b2c" y="486.98"/>
     <use style="fill:#008000;stroke:#008000;" x="266.084639" xlink:href="#m0dff0a9b2c" y="486.98"/>
     <use style="fill:#008000;stroke:#008000;" x="295.210346" xlink:href="#m0dff0a9b2c" y="486.98"/>
     <use style="fill:#008000;stroke:#008000;" x="324.336052" xlink:href="#m0dff0a9b2c" y="486.98"/>
     <use style="fill:#008000;stroke:#008000;" x="353.461759" xlink:href="#m0dff0a9b2c" y="486.98"/>
     <use style="fill:#008000;stroke:#008000;" x="382.587466" xlink:href="#m0dff0a9b2c" y="486.98"/>
     <use style="fill:#008000;stroke:#008000;" x="411.713173" xlink:href="#m0dff0a9b2c" y="486.98"/>
     <use style="fill:#008000;stroke:#008000;" x="440.83888" xlink:href="#m0dff0a9b2c" y="486.98"/>
     <use style="fill:#008000;stroke:#008000;" x="469.964587" xlink:href="#m0dff0a9b2c" y="486.98"/>
     <use style="fill:#008000;stroke:#008000;" x="499.090293" xlink:href="#m0dff0a9b2c" y="486.98"/>
     <use style="fill:#008000;stroke:#008000;" x="528.216" xlink:href="#m0dff0a9b2c" y="486.98"/>
     <use style="fill:#008000;stroke:#008000;" x="557.341707" xlink:href="#m0dff0a9b2c" y="482.644256"/>
     <use style="fill:#008000;stroke:#008000;" x="586.467414" xlink:href="#m0dff0a9b2c" y="486.98"/>
     <use style="fill:#008000;stroke:#008000;" x="615.593121" xlink:href="#m0dff0a9b2c" y="486.98"/>
     <use style="fill:#008000;stroke:#008000;" x="644.718827" xlink:href="#m0dff0a9b2c" y="486.98"/>
     <use style="fill:#008000;stroke:#008000;" x="673.844534" xlink:href="#m0dff0a9b2c" y="390.005471"/>
     <use style="fill:#008000;stroke:#008000;" x="702.970241" xlink:href="#m0dff0a9b2c" y="465.178101"/>
     <use style="fill:#008000;stroke:#008000;" x="732.095948" xlink:href="#m0dff0a9b2c" y="340.954754"/>
     <use style="fill:#008000;stroke:#008000;" x="761.221655" xlink:href="#m0dff0a9b2c" y="463.468584"/>
     <use style="fill:#008000;stroke:#008000;" x="790.347362" xlink:href="#m0dff0a9b2c" y="239.408837"/>
     <use style="fill:#008000;stroke:#008000;" x="819.473068" xlink:href="#m0dff0a9b2c" y="468.954397"/>
     <use style="fill:#008000;stroke:#008000;" x="848.598775" xlink:href="#m0dff0a9b2c" y="482.288019"/>
     <use style="fill:#008000;stroke:#008000;" x="877.724482" xlink:href="#m0dff0a9b2c" y="486.98"/>
     <use style="fill:#008000;stroke:#008000;" x="906.850189" xlink:href="#m0dff0a9b2c" y="483.662656"/>
     <use style="fill:#008000;stroke:#008000;" x="935.975896" xlink:href="#m0dff0a9b2c" y="486.98"/>
     <use style="fill:#008000;stroke:#008000;" x="965.101603" xlink:href="#m0dff0a9b2c" y="486.98"/>
     <use style="fill:#008000;stroke:#008000;" x="994.227309" xlink:href="#m0dff0a9b2c" y="486.98"/>
     <use style="fill:#008000;stroke:#008000;" x="1023.353016" xlink:href="#m0dff0a9b2c" y="476.708809"/>
     <use style="fill:#008000;stroke:#008000;" x="1052.478723" xlink:href="#m0dff0a9b2c" y="486.98"/>
     <use style="fill:#008000;stroke:#008000;" x="1081.60443" xlink:href="#m0dff0a9b2c" y="486.98"/>
    </g>
   </g>
   <g id="patch_3">
    <path d="M 40.603125 509.66 
L 40.603125 10.7 
" style="fill:none;stroke:#000000;stroke-linecap:square;stroke-linejoin:miter;stroke-width:0.8;"/>
   </g>
   <g id="patch_4">
    <path d="M 1156.603125 509.66 
L 1156.603125 10.7 
" style="fill:none;stroke:#000000;stroke-linecap:square;stroke-linejoin:miter;stroke-width:0.8;"/>
   </g>
   <g id="patch_5">
    <path d="M 40.603125 509.66 
L 1156.603125 509.66 
" style="fill:none;stroke:#000000;stroke-linecap:square;stroke-linejoin:miter;stroke-width:0.8;"/>
   </g>
   <g id="patch_6">
    <path d="M 40.603125 10.7 
L 1156.603125 10.7 
" style="fill:none;stroke:#000000;stroke-linecap:square;stroke-linejoin:miter;stroke-width:0.8;"/>
   </g>
   <g id="legend_1">
    <g id="patch_7">
     <path d="M 47.603125 62.734375 
L 195.378125 62.734375 
Q 197.378125 62.734375 197.378125 60.734375 
L 197.378125 17.7 
Q 197.378125 15.7 195.378125 15.7 
L 47.603125 15.7 
Q 45.603125 15.7 45.603125 17.7 
L 45.603125 60.734375 
Q 45.603125 62.734375 47.603125 62.734375 
z
" style="fill:#ffffff;opacity:0.8;stroke:#cccccc;stroke-linejoin:miter;"/>
    </g>
    <g id="line2d_15">
     <path d="M 49.603125 23.798437 
L 69.603125 23.798437 
" style="fill:none;stroke:#008000;stroke-dasharray:5.55,2.4;stroke-dashoffset:0;stroke-width:1.5;"/>
    </g>
    <g id="line2d_16"/>
    <g id="text_14">
     <!-- Predicated -->
     <defs>
      <path d="M 19.671875 64.796875 
L 19.671875 37.40625 
L 32.078125 37.40625 
Q 38.96875 37.40625 42.71875 40.96875 
Q 46.484375 44.53125 46.484375 51.125 
Q 46.484375 57.671875 42.71875 61.234375 
Q 38.96875 64.796875 32.078125 64.796875 
z
M 9.8125 72.90625 
L 32.078125 72.90625 
Q 44.34375 72.90625 50.609375 67.359375 
Q 56.890625 61.8125 56.890625 51.125 
Q 56.890625 40.328125 50.609375 34.8125 
Q 44.34375 29.296875 32.078125 29.296875 
L 19.671875 29.296875 
L 19.671875 0 
L 9.8125 0 
z
" id="DejaVuSans-50"/>
      <path d="M 41.109375 46.296875 
Q 39.59375 47.171875 37.8125 47.578125 
Q 36.03125 48 33.890625 48 
Q 26.265625 48 22.1875 43.046875 
Q 18.109375 38.09375 18.109375 28.8125 
L 18.109375 0 
L 9.078125 0 
L 9.078125 54.6875 
L 18.109375 54.6875 
L 18.109375 46.1875 
Q 20.953125 51.171875 25.484375 53.578125 
Q 30.03125 56 36.53125 56 
Q 37.453125 56 38.578125 55.875 
Q 39.703125 55.765625 41.0625 55.515625 
z
" id="DejaVuSans-72"/>
      <path d="M 45.40625 46.390625 
L 45.40625 75.984375 
L 54.390625 75.984375 
L 54.390625 0 
L 45.40625 0 
L 45.40625 8.203125 
Q 42.578125 3.328125 38.25 0.953125 
Q 33.9375 -1.421875 27.875 -1.421875 
Q 17.96875 -1.421875 11.734375 6.484375 
Q 5.515625 14.40625 5.515625 27.296875 
Q 5.515625 40.1875 11.734375 48.09375 
Q 17.96875 56 27.875 56 
Q 33.9375 56 38.25 53.625 
Q 42.578125 51.265625 45.40625 46.390625 
z
M 14.796875 27.296875 
Q 14.796875 17.390625 18.875 11.75 
Q 22.953125 6.109375 30.078125 6.109375 
Q 37.203125 6.109375 41.296875 11.75 
Q 45.40625 17.390625 45.40625 27.296875 
Q 45.40625 37.203125 41.296875 42.84375 
Q 37.203125 48.484375 30.078125 48.484375 
Q 22.953125 48.484375 18.875 42.84375 
Q 14.796875 37.203125 14.796875 27.296875 
z
" id="DejaVuSans-64"/>
      <path d="M 48.78125 52.59375 
L 48.78125 44.1875 
Q 44.96875 46.296875 41.140625 47.34375 
Q 37.3125 48.390625 33.40625 48.390625 
Q 24.65625 48.390625 19.8125 42.84375 
Q 14.984375 37.3125 14.984375 27.296875 
Q 14.984375 17.28125 19.8125 11.734375 
Q 24.65625 6.203125 33.40625 6.203125 
Q 37.3125 6.203125 41.140625 7.25 
Q 44.96875 8.296875 48.78125 10.40625 
L 48.78125 2.09375 
Q 45.015625 0.34375 40.984375 -0.53125 
Q 36.96875 -1.421875 32.421875 -1.421875 
Q 20.0625 -1.421875 12.78125 6.34375 
Q 5.515625 14.109375 5.515625 27.296875 
Q 5.515625 40.671875 12.859375 48.328125 
Q 20.21875 56 33.015625 56 
Q 37.15625 56 41.109375 55.140625 
Q 45.0625 54.296875 48.78125 52.59375 
z
" id="DejaVuSans-63"/>
      <path d="M 34.28125 27.484375 
Q 23.390625 27.484375 19.1875 25 
Q 14.984375 22.515625 14.984375 16.5 
Q 14.984375 11.71875 18.140625 8.90625 
Q 21.296875 6.109375 26.703125 6.109375 
Q 34.1875 6.109375 38.703125 11.40625 
Q 43.21875 16.703125 43.21875 25.484375 
L 43.21875 27.484375 
z
M 52.203125 31.203125 
L 52.203125 0 
L 43.21875 0 
L 43.21875 8.296875 
Q 40.140625 3.328125 35.546875 0.953125 
Q 30.953125 -1.421875 24.3125 -1.421875 
Q 15.921875 -1.421875 10.953125 3.296875 
Q 6 8.015625 6 15.921875 
Q 6 25.140625 12.171875 29.828125 
Q 18.359375 34.515625 30.609375 34.515625 
L 43.21875 34.515625 
L 43.21875 35.40625 
Q 43.21875 41.609375 39.140625 45 
Q 35.0625 48.390625 27.6875 48.390625 
Q 23 48.390625 18.546875 47.265625 
Q 14.109375 46.140625 10.015625 43.890625 
L 10.015625 52.203125 
Q 14.9375 54.109375 19.578125 55.046875 
Q 24.21875 56 28.609375 56 
Q 40.484375 56 46.34375 49.84375 
Q 52.203125 43.703125 52.203125 31.203125 
z
" id="DejaVuSans-61"/>
      <path d="M 18.3125 70.21875 
L 18.3125 54.6875 
L 36.8125 54.6875 
L 36.8125 47.703125 
L 18.3125 47.703125 
L 18.3125 18.015625 
Q 18.3125 11.328125 20.140625 9.421875 
Q 21.96875 7.515625 27.59375 7.515625 
L 36.8125 7.515625 
L 36.8125 0 
L 27.59375 0 
Q 17.1875 0 13.234375 3.875 
Q 9.28125 7.765625 9.28125 18.015625 
L 9.28125 47.703125 
L 2.6875 47.703125 
L 2.6875 54.6875 
L 9.28125 54.6875 
L 9.28125 70.21875 
z
" id="DejaVuSans-74"/>
     </defs>
     <g transform="translate(77.603125 27.298437)scale(0.1 -0.1)">
      <use xlink:href="#DejaVuSans-50"/>
      <use x="60.287109" xlink:href="#DejaVuSans-72"/>
      <use x="101.369141" xlink:href="#DejaVuSans-65"/>
      <use x="162.892578" xlink:href="#DejaVuSans-64"/>
      <use x="226.369141" xlink:href="#DejaVuSans-69"/>
      <use x="254.152344" xlink:href="#DejaVuSans-63"/>
      <use x="309.132812" xlink:href="#DejaVuSans-61"/>
      <use x="370.412109" xlink:href="#DejaVuSans-74"/>
      <use x="409.621094" xlink:href="#DejaVuSans-65"/>
      <use x="471.144531" xlink:href="#DejaVuSans-64"/>
     </g>
    </g>
    <g id="line2d_17">
     <path d="M 49.603125 38.476562 
L 69.603125 38.476562 
" style="fill:none;stroke:#ff7f0e;stroke-linecap:square;stroke-width:1.5;"/>
    </g>
    <g id="line2d_18"/>
    <g id="text_15">
     <!-- Real Data -->
     <defs>
      <path d="M 9.421875 75.984375 
L 18.40625 75.984375 
L 18.40625 0 
L 9.421875 0 
z
" id="DejaVuSans-6c"/>
      <path id="DejaVuSans-20"/>
      <path d="M 19.671875 64.796875 
L 19.671875 8.109375 
L 31.59375 8.109375 
Q 46.6875 8.109375 53.6875 14.9375 
Q 60.6875 21.78125 60.6875 36.53125 
Q 60.6875 51.171875 53.6875 57.984375 
Q 46.6875 64.796875 31.59375 64.796875 
z
M 9.8125 72.90625 
L 30.078125 72.90625 
Q 51.265625 72.90625 61.171875 64.09375 
Q 71.09375 55.28125 71.09375 36.53125 
Q 71.09375 17.671875 61.125 8.828125 
Q 51.171875 0 30.078125 0 
L 9.8125 0 
z
" id="DejaVuSans-44"/>
     </defs>
     <g transform="translate(77.603125 41.976562)scale(0.1 -0.1)">
      <use xlink:href="#DejaVuSans-52"/>
      <use x="69.419922" xlink:href="#DejaVuSans-65"/>
      <use x="130.943359" xlink:href="#DejaVuSans-61"/>
      <use x="192.222656" xlink:href="#DejaVuSans-6c"/>
      <use x="220.005859" xlink:href="#DejaVuSans-20"/>
      <use x="251.792969" xlink:href="#DejaVuSans-44"/>
      <use x="328.794922" xlink:href="#DejaVuSans-61"/>
      <use x="390.074219" xlink:href="#DejaVuSans-74"/>
      <use x="429.283203" xlink:href="#DejaVuSans-61"/>
     </g>
    </g>
    <g id="line2d_19"/>
    <g id="line2d_20">
     <g>
      <use style="fill:#008000;stroke:#008000;" x="59.603125" xlink:href="#m0dff0a9b2c" y="53.154688"/>
     </g>
    </g>
    <g id="text_16">
     <!-- Start Point for Forecast -->
     <defs>
      <path d="M 53.515625 70.515625 
L 53.515625 60.890625 
Q 47.90625 63.578125 42.921875 64.890625 
Q 37.9375 66.21875 33.296875 66.21875 
Q 25.25 66.21875 20.875 63.09375 
Q 16.5 59.96875 16.5 54.203125 
Q 16.5 49.359375 19.40625 46.890625 
Q 22.3125 44.4375 30.421875 42.921875 
L 36.375 41.703125 
Q 47.40625 39.59375 52.65625 34.296875 
Q 57.90625 29 57.90625 20.125 
Q 57.90625 9.515625 50.796875 4.046875 
Q 43.703125 -1.421875 29.984375 -1.421875 
Q 24.8125 -1.421875 18.96875 -0.25 
Q 13.140625 0.921875 6.890625 3.21875 
L 6.890625 13.375 
Q 12.890625 10.015625 18.65625 8.296875 
Q 24.421875 6.59375 29.984375 6.59375 
Q 38.421875 6.59375 43.015625 9.90625 
Q 47.609375 13.234375 47.609375 19.390625 
Q 47.609375 24.75 44.3125 27.78125 
Q 41.015625 30.8125 33.5 32.328125 
L 27.484375 33.5 
Q 16.453125 35.6875 11.515625 40.375 
Q 6.59375 45.0625 6.59375 53.421875 
Q 6.59375 63.09375 13.40625 68.65625 
Q 20.21875 74.21875 32.171875 74.21875 
Q 37.3125 74.21875 42.625 73.28125 
Q 47.953125 72.359375 53.515625 70.515625 
z
" id="DejaVuSans-53"/>
      <path d="M 30.609375 48.390625 
Q 23.390625 48.390625 19.1875 42.75 
Q 14.984375 37.109375 14.984375 27.296875 
Q 14.984375 17.484375 19.15625 11.84375 
Q 23.34375 6.203125 30.609375 6.203125 
Q 37.796875 6.203125 41.984375 11.859375 
Q 46.1875 17.53125 46.1875 27.296875 
Q 46.1875 37.015625 41.984375 42.703125 
Q 37.796875 48.390625 30.609375 48.390625 
z
M 30.609375 56 
Q 42.328125 56 49.015625 48.375 
Q 55.71875 40.765625 55.71875 27.296875 
Q 55.71875 13.875 49.015625 6.21875 
Q 42.328125 -1.421875 30.609375 -1.421875 
Q 18.84375 -1.421875 12.171875 6.21875 
Q 5.515625 13.875 5.515625 27.296875 
Q 5.515625 40.765625 12.171875 48.375 
Q 18.84375 56 30.609375 56 
z
" id="DejaVuSans-6f"/>
      <path d="M 54.890625 33.015625 
L 54.890625 0 
L 45.90625 0 
L 45.90625 32.71875 
Q 45.90625 40.484375 42.875 44.328125 
Q 39.84375 48.1875 33.796875 48.1875 
Q 26.515625 48.1875 22.3125 43.546875 
Q 18.109375 38.921875 18.109375 30.90625 
L 18.109375 0 
L 9.078125 0 
L 9.078125 54.6875 
L 18.109375 54.6875 
L 18.109375 46.1875 
Q 21.34375 51.125 25.703125 53.5625 
Q 30.078125 56 35.796875 56 
Q 45.21875 56 50.046875 50.171875 
Q 54.890625 44.34375 54.890625 33.015625 
z
" id="DejaVuSans-6e"/>
      <path d="M 9.8125 72.90625 
L 51.703125 72.90625 
L 51.703125 64.59375 
L 19.671875 64.59375 
L 19.671875 43.109375 
L 48.578125 43.109375 
L 48.578125 34.8125 
L 19.671875 34.8125 
L 19.671875 0 
L 9.8125 0 
z
" id="DejaVuSans-46"/>
     </defs>
     <g transform="translate(77.603125 56.654688)scale(0.1 -0.1)">
      <use xlink:href="#DejaVuSans-53"/>
      <use x="63.476562" xlink:href="#DejaVuSans-74"/>
      <use x="102.685547" xlink:href="#DejaVuSans-61"/>
      <use x="163.964844" xlink:href="#DejaVuSans-72"/>
      <use x="205.078125" xlink:href="#DejaVuSans-74"/>
      <use x="244.287109" xlink:href="#DejaVuSans-20"/>
      <use x="276.074219" xlink:href="#DejaVuSans-50"/>
      <use x="336.330078" xlink:href="#DejaVuSans-6f"/>
      <use x="397.511719" xlink:href="#DejaVuSans-69"/>
      <use x="425.294922" xlink:href="#DejaVuSans-6e"/>
      <use x="488.673828" xlink:href="#DejaVuSans-74"/>
      <use x="527.882812" xlink:href="#DejaVuSans-20"/>
      <use x="559.669922" xlink:href="#DejaVuSans-66"/>
      <use x="594.875" xlink:href="#DejaVuSans-6f"/>
      <use x="656.056641" xlink:href="#DejaVuSans-72"/>
      <use x="697.169922" xlink:href="#DejaVuSans-20"/>
      <use x="728.957031" xlink:href="#DejaVuSans-46"/>
      <use x="786.429688" xlink:href="#DejaVuSans-6f"/>
      <use x="847.611328" xlink:href="#DejaVuSans-72"/>
      <use x="888.693359" xlink:href="#DejaVuSans-65"/>
      <use x="950.216797" xlink:href="#DejaVuSans-63"/>
      <use x="1005.197266" xlink:href="#DejaVuSans-61"/>
      <use x="1066.476562" xlink:href="#DejaVuSans-73"/>
      <use x="1118.576172" xlink:href="#DejaVuSans-74"/>
     </g>
    </g>
   </g>
  </g>
  <g id="axes_2">
   <g id="patch_8">
    <path d="M 40.603125 645.74 
L 1158.043125 645.74 
L 1158.043125 516.14 
L 40.603125 516.14 
z
" style="fill:none;"/>
   </g>
   <g id="matplotlib.axis_3">
    <g id="xtick_6">
     <g id="line2d_21">
      <g>
       <use style="stroke:#000000;stroke-width:0.8;" x="91.395852" xlink:href="#mbd02e81f96" y="645.74"/>
      </g>
     </g>
     <g id="text_17">
      <!-- 0 -->
      <g transform="translate(88.214602 660.338437)scale(0.1 -0.1)">
       <use xlink:href="#DejaVuSans-30"/>
      </g>
     </g>
    </g>
    <g id="xtick_7">
     <g id="line2d_22">
      <g>
       <use style="stroke:#000000;stroke-width:0.8;" x="215.887831" xlink:href="#mbd02e81f96" y="645.74"/>
      </g>
     </g>
     <g id="text_18">
      <!-- 25 -->
      <g transform="translate(209.525331 660.338437)scale(0.1 -0.1)">
       <use xlink:href="#DejaVuSans-32"/>
       <use x="63.623047" xlink:href="#DejaVuSans-35"/>
      </g>
     </g>
    </g>
    <g id="xtick_8">
     <g id="line2d_23">
      <g>
       <use style="stroke:#000000;stroke-width:0.8;" x="340.379809" xlink:href="#mbd02e81f96" y="645.74"/>
      </g>
     </g>
     <g id="text_19">
      <!-- 50 -->
      <g transform="translate(334.017309 660.338437)scale(0.1 -0.1)">
       <use xlink:href="#DejaVuSans-35"/>
       <use x="63.623047" xlink:href="#DejaVuSans-30"/>
      </g>
     </g>
    </g>
    <g id="xtick_9">
     <g id="line2d_24">
      <g>
       <use style="stroke:#000000;stroke-width:0.8;" x="464.871788" xlink:href="#mbd02e81f96" y="645.74"/>
      </g>
     </g>
     <g id="text_20">
      <!-- 75 -->
      <defs>
       <path d="M 8.203125 72.90625 
L 55.078125 72.90625 
L 55.078125 68.703125 
L 28.609375 0 
L 18.3125 0 
L 43.21875 64.59375 
L 8.203125 64.59375 
z
" id="DejaVuSans-37"/>
      </defs>
      <g transform="translate(458.509288 660.338437)scale(0.1 -0.1)">
       <use xlink:href="#DejaVuSans-37"/>
       <use x="63.623047" xlink:href="#DejaVuSans-35"/>
      </g>
     </g>
    </g>
    <g id="xtick_10">
     <g id="line2d_25">
      <g>
       <use style="stroke:#000000;stroke-width:0.8;" x="589.363767" xlink:href="#mbd02e81f96" y="645.74"/>
      </g>
     </g>
     <g id="text_21">
      <!-- 100 -->
      <g transform="translate(579.820017 660.338437)scale(0.1 -0.1)">
       <use xlink:href="#DejaVuSans-31"/>
       <use x="63.623047" xlink:href="#DejaVuSans-30"/>
       <use x="127.246094" xlink:href="#DejaVuSans-30"/>
      </g>
     </g>
    </g>
    <g id="xtick_11">
     <g id="line2d_26">
      <g>
       <use style="stroke:#000000;stroke-width:0.8;" x="713.855745" xlink:href="#mbd02e81f96" y="645.74"/>
      </g>
     </g>
     <g id="text_22">
      <!-- 125 -->
      <g transform="translate(704.311995 660.338437)scale(0.1 -0.1)">
       <use xlink:href="#DejaVuSans-31"/>
       <use x="63.623047" xlink:href="#DejaVuSans-32"/>
       <use x="127.246094" xlink:href="#DejaVuSans-35"/>
      </g>
     </g>
    </g>
    <g id="xtick_12">
     <g id="line2d_27">
      <g>
       <use style="stroke:#000000;stroke-width:0.8;" x="838.347724" xlink:href="#mbd02e81f96" y="645.74"/>
      </g>
     </g>
     <g id="text_23">
      <!-- 150 -->
      <g transform="translate(828.803974 660.338437)scale(0.1 -0.1)">
       <use xlink:href="#DejaVuSans-31"/>
       <use x="63.623047" xlink:href="#DejaVuSans-35"/>
       <use x="127.246094" xlink:href="#DejaVuSans-30"/>
      </g>
     </g>
    </g>
    <g id="xtick_13">
     <g id="line2d_28">
      <g>
       <use style="stroke:#000000;stroke-width:0.8;" x="962.839703" xlink:href="#mbd02e81f96" y="645.74"/>
      </g>
     </g>
     <g id="text_24">
      <!-- 175 -->
      <g transform="translate(953.295953 660.338437)scale(0.1 -0.1)">
       <use xlink:href="#DejaVuSans-31"/>
       <use x="63.623047" xlink:href="#DejaVuSans-37"/>
       <use x="127.246094" xlink:href="#DejaVuSans-35"/>
      </g>
     </g>
    </g>
    <g id="xtick_14">
     <g id="line2d_29">
      <g>
       <use style="stroke:#000000;stroke-width:0.8;" x="1087.331681" xlink:href="#mbd02e81f96" y="645.74"/>
      </g>
     </g>
     <g id="text_25">
      <!-- 200 -->
      <g transform="translate(1077.787931 660.338437)scale(0.1 -0.1)">
       <use xlink:href="#DejaVuSans-32"/>
       <use x="63.623047" xlink:href="#DejaVuSans-30"/>
       <use x="127.246094" xlink:href="#DejaVuSans-30"/>
      </g>
     </g>
    </g>
   </g>
   <g id="matplotlib.axis_4">
    <g id="ytick_7">
     <g id="line2d_30">
      <g>
       <use style="stroke:#000000;stroke-width:0.8;" x="40.603125" xlink:href="#ma5c12855fe" y="632.119803"/>
      </g>
     </g>
     <g id="text_26">
      <!-- 10 -->
      <g transform="translate(20.878125 635.919022)scale(0.1 -0.1)">
       <use xlink:href="#DejaVuSans-31"/>
       <use x="63.623047" xlink:href="#DejaVuSans-30"/>
      </g>
     </g>
    </g>
    <g id="ytick_8">
     <g id="line2d_31">
      <g>
       <use style="stroke:#000000;stroke-width:0.8;" x="40.603125" xlink:href="#ma5c12855fe" y="596.716322"/>
      </g>
     </g>
     <g id="text_27">
      <!-- 20 -->
      <g transform="translate(20.878125 600.515541)scale(0.1 -0.1)">
       <use xlink:href="#DejaVuSans-32"/>
       <use x="63.623047" xlink:href="#DejaVuSans-30"/>
      </g>
     </g>
    </g>
    <g id="ytick_9">
     <g id="line2d_32">
      <g>
       <use style="stroke:#000000;stroke-width:0.8;" x="40.603125" xlink:href="#ma5c12855fe" y="561.312841"/>
      </g>
     </g>
     <g id="text_28">
      <!-- 30 -->
      <g transform="translate(20.878125 565.11206)scale(0.1 -0.1)">
       <use xlink:href="#DejaVuSans-33"/>
       <use x="63.623047" xlink:href="#DejaVuSans-30"/>
      </g>
     </g>
    </g>
    <g id="ytick_10">
     <g id="line2d_33">
      <g>
       <use style="stroke:#000000;stroke-width:0.8;" x="40.603125" xlink:href="#ma5c12855fe" y="525.90936"/>
      </g>
     </g>
     <g id="text_29">
      <!-- 40 -->
      <g transform="translate(20.878125 529.708579)scale(0.1 -0.1)">
       <use xlink:href="#DejaVuSans-34"/>
       <use x="63.623047" xlink:href="#DejaVuSans-30"/>
      </g>
     </g>
    </g>
    <g id="text_30">
     <!-- Temperature -->
     <defs>
      <path d="M 18.109375 8.203125 
L 18.109375 -20.796875 
L 9.078125 -20.796875 
L 9.078125 54.6875 
L 18.109375 54.6875 
L 18.109375 46.390625 
Q 20.953125 51.265625 25.265625 53.625 
Q 29.59375 56 35.59375 56 
Q 45.5625 56 51.78125 48.09375 
Q 58.015625 40.1875 58.015625 27.296875 
Q 58.015625 14.40625 51.78125 6.484375 
Q 45.5625 -1.421875 35.59375 -1.421875 
Q 29.59375 -1.421875 25.265625 0.953125 
Q 20.953125 3.328125 18.109375 8.203125 
z
M 48.6875 27.296875 
Q 48.6875 37.203125 44.609375 42.84375 
Q 40.53125 48.484375 33.40625 48.484375 
Q 26.265625 48.484375 22.1875 42.84375 
Q 18.109375 37.203125 18.109375 27.296875 
Q 18.109375 17.390625 22.1875 11.75 
Q 26.265625 6.109375 33.40625 6.109375 
Q 40.53125 6.109375 44.609375 11.75 
Q 48.6875 17.390625 48.6875 27.296875 
z
" id="DejaVuSans-70"/>
     </defs>
     <g style="fill:#0000ff;" transform="translate(14.798438 613.557187)rotate(-90)scale(0.1 -0.1)">
      <use xlink:href="#DejaVuSans-54"/>
      <use x="60.818359" xlink:href="#DejaVuSans-65"/>
      <use x="122.341797" xlink:href="#DejaVuSans-6d"/>
      <use x="219.753906" xlink:href="#DejaVuSans-70"/>
      <use x="283.230469" xlink:href="#DejaVuSans-65"/>
      <use x="344.753906" xlink:href="#DejaVuSans-72"/>
      <use x="385.867188" xlink:href="#DejaVuSans-61"/>
      <use x="447.146484" xlink:href="#DejaVuSans-74"/>
      <use x="486.355469" xlink:href="#DejaVuSans-75"/>
      <use x="549.734375" xlink:href="#DejaVuSans-72"/>
      <use x="590.816406" xlink:href="#DejaVuSans-65"/>
     </g>
    </g>
   </g>
   <g id="line2d_34">
    <path clip-path="url(#p3a30231e9e)" d="M 91.395852 539.502173 
L 96.375531 540.890697 
L 101.355211 545.972159 
L 106.33489 551.588921 
L 111.314569 560.15798 
L 116.294248 573.809562 
L 121.273927 575.400594 
L 126.253606 572.003276 
L 131.233285 562.202531 
L 136.212965 542.593605 
L 141.192644 534.364774 
L 146.172323 532.668593 
L 151.152002 533.541643 
L 156.131681 537.45479 
L 161.11136 544.33404 
L 166.091039 549.678549 
L 171.070719 563.047258 
L 176.050398 574.059511 
L 181.030077 582.381453 
L 186.009756 575.653021 
L 190.989435 563.192412 
L 195.969114 548.56688 
L 200.948793 533.321079 
L 205.928473 530.053692 
L 210.908152 534.894764 
L 220.86751 540.893176 
L 225.847189 548.670258 
L 230.826868 561.953998 
L 235.806547 567.549164 
L 240.786227 579.114065 
L 245.765906 576.004932 
L 250.745585 562.750931 
L 255.725264 550.634797 
L 260.704943 532.475998 
L 265.684622 529.83596 
L 270.664301 531.937157 
L 275.643981 539.683085 
L 280.62366 542.162744 
L 285.603339 547.073915 
L 290.583018 563.354206 
L 295.562697 574.043579 
L 300.542376 578.470076 
L 305.522055 569.117185 
L 310.501735 558.283011 
L 315.481414 546.53118 
L 320.461093 532.405545 
L 325.440772 525.832181 
L 330.420451 535.034254 
L 335.40013 532.473874 
L 340.379809 536.171059 
L 345.359489 547.75083 
L 350.339168 561.121308 
L 355.318847 573.947636 
L 360.298526 577.88167 
L 365.278205 568.921049 
L 370.257884 554.369511 
L 375.237564 544.576554 
L 380.217243 539.23346 
L 385.196922 522.030909 
L 390.176601 528.480715 
L 395.15628 533.696356 
L 400.135959 540.666593 
L 405.115638 546.948233 
L 410.095318 559.048081 
L 415.074997 575.169056 
L 420.054676 580.955755 
L 425.034355 574.497452 
L 430.014034 561.706882 
L 434.993713 545.566081 
L 439.973392 535.916508 
L 444.953072 528.336977 
L 449.932751 530.855935 
L 454.91243 531.881928 
L 459.892109 537.025699 
L 464.871788 548.103803 
L 469.851467 560.094253 
L 474.831146 570.238059 
L 479.810826 582.255416 
L 484.790505 570.517746 
L 489.770184 564.226194 
L 494.749863 548.016356 
L 499.729542 532.403421 
L 504.709221 530.26328 
L 509.6889 528.635428 
L 514.66858 534.233073 
L 519.648259 537.711819 
L 524.627938 544.653379 
L 529.607617 559.616306 
L 534.587296 581.75906 
L 539.566975 583.043852 
L 544.546654 569.915533 
L 549.526334 564.983474 
L 554.506013 544.091526 
L 559.485692 533.723263 
L 564.465371 530.84673 
L 569.44505 528.446728 
L 574.424729 530.031034 
L 579.404408 533.681487 
L 584.384088 548.842673 
L 589.363767 558.889119 
L 594.343446 575.080901 
L 599.323125 584.10808 
L 604.302804 576.184427 
L 609.282483 560.687262 
L 614.262162 548.261702 
L 619.241842 533.622009 
L 624.221521 527.781496 
L 629.2012 533.420209 
L 634.180879 537.88211 
L 639.160558 538.285001 
L 644.140237 547.874034 
L 649.119916 564.747687 
L 654.099596 580.400628 
L 659.079275 586.702802 
L 664.058954 573.268243 
L 669.038633 560.640883 
L 674.018312 549.944075 
L 678.997991 531.707388 
L 683.97767 528.373443 
L 688.95735 529.76834 
L 693.937029 534.745007 
L 698.916708 536.554125 
L 703.896387 547.67542 
L 708.876066 561.989756 
L 713.855745 577.378941 
L 718.835424 579.822135 
L 723.815104 573.262932 
L 728.794783 556.816245 
L 733.774462 544.241637 
L 738.754141 533.466941 
L 743.73382 532.331906 
L 748.713499 532.386073 
L 753.693178 536.964451 
L 758.672858 536.767962 
L 763.652537 545.226562 
L 768.632216 563.319865 
L 773.611895 576.765753 
L 778.591574 580.664738 
L 783.571253 574.11474 
L 788.550932 562.299182 
L 793.530612 551.755318 
L 798.510291 533.305502 
L 803.48997 534.829975 
L 808.469649 534.186694 
L 813.449328 536.100606 
L 818.429007 537.136158 
L 823.408686 549.809542 
L 833.368045 576.871609 
L 838.347724 582.577234 
L 843.327403 577.253967 
L 848.307082 563.126562 
L 853.286761 552.426214 
L 858.266441 534.531878 
L 863.24612 531.417788 
L 868.225799 533.341967 
L 873.205478 535.470424 
L 878.185157 536.739993 
L 883.164836 547.927139 
L 893.124195 575.622928 
L 898.103874 581.254206 
L 903.083553 574.778555 
L 913.042911 553.753136 
L 918.02259 538.227294 
L 923.002269 530.902313 
L 927.981949 532.419707 
L 932.961628 535.600355 
L 937.941307 539.306038 
L 942.920986 544.237742 
L 947.900665 564.74273 
L 952.880344 575.565221 
L 957.860023 585.122036 
L 962.839703 580.178648 
L 967.819382 566.162764 
L 972.799061 546.428864 
L 977.77874 532.164801 
L 982.758419 527.402325 
L 987.738098 529.373945 
L 992.717777 534.046496 
L 997.697457 536.696801 
L 1002.677136 546.847333 
L 1007.656815 559.370252 
L 1012.636494 572.778613 
L 1017.616173 579.639099 
L 1022.595852 567.984627 
L 1027.575531 562.01383 
L 1032.555211 539.901878 
L 1037.53489 529.25853 
L 1042.514569 525.249086 
L 1047.494248 523.951194 
L 1052.473927 526.681156 
L 1057.453606 534.63207 
L 1062.433285 542.313209 
L 1067.412965 559.310774 
L 1072.392644 573.168405 
L 1077.372323 574.602954 
L 1082.352002 570.551026 
L 1087.331681 558.205478 
L 1092.31136 547.103654 
L 1097.291039 526.074341 
L 1102.270719 525.068882 
L 1107.250398 526.749485 
L 1107.250398 526.749485 
" style="fill:none;stroke:#ff0000;stroke-linecap:square;stroke-width:1.5;"/>
   </g>
   <g id="line2d_35">
    <path clip-path="url(#p3a30231e9e)" d="M 91.395852 553.685869 
L 96.375531 556.619402 
L 106.33489 569.938899 
L 111.314569 578.474679 
L 116.294248 591.198336 
L 121.273927 593.532841 
L 126.253606 591.517321 
L 131.233285 584.007181 
L 136.212965 564.906649 
L 141.192644 555.387715 
L 146.172323 552.557914 
L 151.152002 550.812523 
L 156.131681 554.204884 
L 161.11136 561.799285 
L 166.091039 568.427171 
L 171.070719 580.230337 
L 176.050398 592.465072 
L 181.030077 598.893282 
L 186.009756 593.123577 
L 190.989435 580.019332 
L 195.969114 567.93223 
L 200.948793 552.542337 
L 205.928473 546.956022 
L 210.908152 550.007094 
L 220.86751 559.009137 
L 225.847189 566.674344 
L 230.826868 580.030308 
L 235.806547 583.813524 
L 240.786227 595.480033 
L 245.765906 594.801348 
L 250.745585 580.129791 
L 255.725264 568.76315 
L 260.704943 554.003793 
L 265.684622 548.202578 
L 270.664301 549.035622 
L 275.643981 555.355852 
L 280.62366 560.877732 
L 285.603339 565.621091 
L 290.583018 581.07471 
L 295.562697 590.340155 
L 300.542376 596.785359 
L 305.522055 587.716403 
L 310.501735 578.396083 
L 315.481414 566.313583 
L 320.461093 554.984823 
L 325.440772 547.129499 
L 330.420451 552.236451 
L 335.40013 552.001372 
L 340.379809 556.675693 
L 345.359489 568.537984 
L 350.339168 579.526516 
L 355.318847 591.639463 
L 360.298526 594.371904 
L 365.278205 590.271472 
L 370.257884 576.75938 
L 375.237564 564.460919 
L 380.217243 557.049554 
L 385.196922 545.362865 
L 390.176601 549.537644 
L 395.15628 553.422822 
L 400.135959 560.81436 
L 405.115638 567.33816 
L 410.095318 578.873322 
L 415.074997 590.985207 
L 420.054676 598.186629 
L 425.034355 591.954554 
L 430.014034 579.099904 
L 434.993713 568.357072 
L 439.973392 558.040852 
L 444.953072 548.806208 
L 449.932751 548.863915 
L 454.91243 551.212936 
L 459.892109 558.777952 
L 464.871788 571.684999 
L 469.851467 581.570005 
L 474.831146 589.94399 
L 479.810826 599.833245 
L 484.790505 590.056219 
L 489.770184 583.932125 
L 494.749863 569.07116 
L 499.729542 554.687434 
L 504.709221 551.864714 
L 509.6889 547.93953 
L 514.66858 555.784942 
L 519.648259 560.206128 
L 524.627938 568.725268 
L 529.607617 580.911146 
L 534.587296 597.240294 
L 539.566975 600.960137 
L 544.546654 589.141393 
L 549.526334 583.661997 
L 554.506013 565.159075 
L 559.485692 554.451293 
L 564.465371 552.216625 
L 569.44505 549.053678 
L 574.424729 550.54027 
L 579.404408 557.249584 
L 584.384088 570.937986 
L 589.363767 577.844851 
L 594.343446 591.767624 
L 599.323125 599.936977 
L 604.302804 596.95565 
L 609.282483 583.453116 
L 619.241842 555.144493 
L 624.221521 551.939416 
L 629.2012 551.94685 
L 634.180879 555.370013 
L 639.160558 561.532697 
L 644.140237 570.742204 
L 649.119916 585.131949 
L 654.099596 600.039293 
L 659.079275 602.781646 
L 664.058954 592.079174 
L 669.038633 580.577291 
L 674.018312 571.996196 
L 678.997991 553.491858 
L 683.97767 550.1919 
L 688.95735 546.483031 
L 693.937029 553.46389 
L 698.916708 560.017074 
L 703.896387 568.222185 
L 708.876066 583.475774 
L 713.855745 592.786536 
L 718.835424 598.559781 
L 723.815104 591.741071 
L 733.774462 565.558427 
L 738.754141 556.492303 
L 743.73382 553.208276 
L 748.713499 549.534103 
L 753.693178 555.687582 
L 758.672858 560.971552 
L 763.652537 568.230327 
L 768.632216 584.661083 
L 773.611895 595.434008 
L 778.591574 599.064281 
L 783.571253 593.203589 
L 788.550932 581.944928 
L 793.530612 571.982034 
L 798.510291 554.394293 
L 803.48997 554.989072 
L 808.469649 551.541127 
L 813.449328 553.566206 
L 818.429007 558.592438 
L 823.408686 572.18525 
L 828.388366 581.149058 
L 833.368045 595.117501 
L 838.347724 598.296025 
L 843.327403 594.761342 
L 853.286761 571.907687 
L 858.266441 557.714786 
L 863.24612 553.218543 
L 868.225799 549.815561 
L 873.205478 553.585678 
L 878.185157 559.426898 
L 888.144515 582.779034 
L 893.124195 589.341423 
L 898.103874 599.447701 
L 903.083553 593.492127 
L 908.063232 586.119706 
L 913.042911 575.825082 
L 918.02259 559.907677 
L 923.002269 552.283892 
L 927.981949 549.495159 
L 932.961628 554.830464 
L 937.941307 560.467406 
L 942.920986 566.540519 
L 947.900665 584.440519 
L 952.880344 592.885665 
L 957.860023 602.333792 
L 962.839703 598.178132 
L 967.819382 585.346848 
L 972.799061 568.237054 
L 977.77874 555.049611 
L 982.758419 549.822996 
L 987.738098 547.731004 
L 992.717777 554.135494 
L 997.697457 558.38816 
L 1002.677136 567.252837 
L 1007.656815 579.08114 
L 1012.636494 593.13349 
L 1017.616173 600.050622 
L 1022.595852 590.159243 
L 1027.575531 582.298255 
L 1032.555211 563.157009 
L 1037.53489 552.543753 
L 1042.514569 549.173342 
L 1047.494248 544.061079 
L 1052.473927 547.185082 
L 1057.453606 555.377802 
L 1062.433285 562.514081 
L 1072.392644 590.671178 
L 1077.372323 593.118266 
L 1082.352002 591.358005 
L 1087.331681 577.372922 
L 1092.31136 568.003745 
L 1097.291039 549.852735 
L 1102.270719 548.941803 
L 1107.250398 545.929321 
L 1107.250398 545.929321 
" style="fill:none;stroke:#008000;stroke-linecap:square;stroke-width:1.5;"/>
   </g>
   <g id="line2d_36">
    <path clip-path="url(#p3a30231e9e)" d="M 91.395852 568.632865 
L 96.375531 570.912141 
L 101.355211 579.342772 
L 106.33489 588.64008 
L 111.314569 597.519627 
L 116.294248 611.1967 
L 121.273927 613.505007 
L 126.253606 612.927222 
L 131.233285 606.980499 
L 136.212965 586.940713 
L 141.192644 576.886124 
L 146.172323 571.894942 
L 151.152002 569.56079 
L 156.131681 572.114443 
L 161.11136 580.803166 
L 166.091039 587.742956 
L 171.070719 597.279237 
L 176.050398 611.615877 
L 181.030077 618.49796 
L 186.009756 612.898545 
L 190.989435 599.599228 
L 195.969114 591.552016 
L 200.948793 573.823723 
L 205.928473 566.011591 
L 210.908152 567.009615 
L 215.887831 572.856146 
L 220.86751 578.453791 
L 225.847189 586.824944 
L 230.826868 599.764208 
L 235.806547 602.535238 
L 240.786227 614.229362 
L 245.765906 615.060636 
L 250.745585 596.749955 
L 255.725264 587.506815 
L 260.704943 573.450925 
L 265.684622 570.771235 
L 270.664301 568.366277 
L 275.643981 570.275586 
L 280.62366 580.389653 
L 285.603339 586.587032 
L 290.583018 599.634277 
L 295.562697 608.336453 
L 300.542376 616.068927 
L 305.522055 605.992034 
L 310.501735 596.962022 
L 315.481414 587.077016 
L 320.461093 575.303235 
L 325.440772 567.413923 
L 330.420451 570.79885 
L 335.40013 569.347661 
L 340.379809 578.48707 
L 350.339168 598.644042 
L 355.318847 609.498041 
L 360.298526 611.196346 
L 365.278205 611.888838 
L 370.257884 600.066554 
L 375.237564 582.803816 
L 380.217243 575.167993 
L 385.196922 569.485735 
L 390.176601 569.075054 
L 395.15628 570.388524 
L 400.135959 580.440988 
L 405.115638 588.448547 
L 410.095318 599.392471 
L 415.074997 607.632985 
L 420.054676 614.971065 
L 425.034355 607.80186 
L 430.014034 596.358039 
L 434.993713 588.372076 
L 439.973392 577.224228 
L 444.953072 569.323941 
L 449.932751 566.672574 
L 454.91243 568.715709 
L 459.892109 580.048363 
L 464.871788 592.149981 
L 469.851467 597.245958 
L 474.831146 609.251279 
L 479.810826 617.207503 
L 484.790505 608.168286 
L 489.770184 603.079744 
L 494.749863 588.558298 
L 499.729542 575.491227 
L 504.709221 571.410268 
L 509.6889 566.540873 
L 514.66858 571.846793 
L 519.648259 578.576995 
L 524.627938 587.159506 
L 529.607617 596.481951 
L 534.587296 612.256326 
L 539.566975 618.86651 
L 544.546654 606.680632 
L 549.526334 601.534028 
L 554.506013 585.803553 
L 559.485692 574.060219 
L 564.465371 568.37442 
L 569.44505 569.13347 
L 574.424729 570.935507 
L 579.404408 577.99921 
L 584.384088 595.121395 
L 589.363767 596.804831 
L 594.343446 608.956722 
L 599.323125 615.55416 
L 604.302804 620.319823 
L 609.282483 606.33828 
L 614.262162 590.026126 
L 619.241842 576.459867 
L 624.221521 570.0267 
L 629.2012 569.710547 
L 634.180879 571.506211 
L 639.160558 579.408268 
L 644.140237 589.994971 
L 649.119916 603.573622 
L 654.099596 619.675833 
L 659.079275 622.14735 
L 664.058954 612.068688 
L 669.038633 600.052038 
L 674.018312 592.210521 
L 678.997991 575.177906 
L 683.97767 570.357369 
L 688.95735 564.831947 
L 693.937029 570.835316 
L 698.916708 578.549026 
L 703.896387 590.253063 
L 708.876066 601.013951 
L 713.855745 605.965127 
L 718.835424 615.46813 
L 723.815104 608.462489 
L 728.794783 598.140958 
L 733.774462 583.262999 
L 738.754141 572.40723 
L 743.73382 568.727038 
L 748.713499 566.456613 
L 753.693178 572.596993 
L 758.672858 580.51923 
L 763.652537 583.444619 
L 768.632216 599.514613 
L 773.611895 616.217267 
L 778.591574 613.328343 
L 783.571253 610.26311 
L 788.550932 602.551524 
L 793.530612 588.379864 
L 798.510291 572.148785 
L 803.48997 570.577224 
L 808.469649 568.622244 
L 813.449328 568.910782 
L 818.429007 575.559556 
L 823.408686 588.541304 
L 828.388366 596.358039 
L 833.368045 613.590329 
L 838.347724 616.580153 
L 843.327403 612.476182 
L 848.307082 602.690305 
L 858.266441 572.948195 
L 863.24612 570.270276 
L 868.225799 568.595337 
L 873.205478 570.247264 
L 878.185157 576.41455 
L 883.164836 589.337175 
L 888.144515 598.71237 
L 893.124195 606.374038 
L 898.103874 615.799152 
L 903.083553 610.36224 
L 908.063232 602.056937 
L 913.042911 589.784321 
L 918.02259 575.492997 
L 923.002269 569.555834 
L 927.981949 565.660035 
L 932.961628 569.921198 
L 942.920986 585.128763 
L 947.900665 598.795923 
L 952.880344 611.732 
L 957.860023 619.922596 
L 962.839703 616.131237 
L 967.819382 603.091781 
L 972.799061 588.904898 
L 977.77874 576.521469 
L 982.758419 569.232246 
L 987.738098 566.418731 
L 992.717777 572.391298 
L 997.697457 576.760796 
L 1002.677136 585.65061 
L 1007.656815 598.023773 
L 1012.636494 612.906688 
L 1017.616173 620.564461 
L 1022.595852 611.055794 
L 1027.575531 600.765772 
L 1032.555211 585.977384 
L 1037.53489 572.860041 
L 1042.514569 567.480836 
L 1047.494248 563.7178 
L 1052.473927 568.260066 
L 1057.453606 573.880369 
L 1062.433285 580.534453 
L 1067.412965 593.594443 
L 1072.392644 608.196609 
L 1077.372323 611.505772 
L 1082.352002 611.88813 
L 1087.331681 593.605772 
L 1092.31136 587.007272 
L 1097.291039 571.406374 
L 1102.270719 568.658355 
L 1107.250398 565.591352 
L 1107.250398 565.591352 
" style="fill:none;stroke:#0000ff;stroke-linecap:square;stroke-width:1.5;"/>
   </g>
   <g id="line2d_37">
    <defs>
     <path d="M 0 3 
C 0.795609 3 1.55874 2.683901 2.12132 2.12132 
C 2.683901 1.55874 3 0.795609 3 0 
C 3 -0.795609 2.683901 -1.55874 2.12132 -2.12132 
C 1.55874 -2.683901 0.795609 -3 0 -3 
C -0.795609 -3 -1.55874 -2.683901 -2.12132 -2.12132 
C -2.683901 -1.55874 -3 -0.795609 -3 0 
C -3 0.795609 -2.683901 1.55874 -2.12132 2.12132 
C -1.55874 2.683901 -0.795609 3 0 3 
z
" id="m84e2450c04" style="stroke:#ff0000;"/>
    </defs>
    <g clip-path="url(#p3a30231e9e)">
     <use style="fill:#ff0000;stroke:#ff0000;" x="260.704943" xlink:href="#m84e2450c04" y="639.849091"/>
     <use style="fill:#ff0000;stroke:#ff0000;" x="315.481414" xlink:href="#m84e2450c04" y="639.849091"/>
     <use style="fill:#ff0000;stroke:#ff0000;" x="564.465371" xlink:href="#m84e2450c04" y="639.849091"/>
     <use style="fill:#ff0000;stroke:#ff0000;" x="743.73382" xlink:href="#m84e2450c04" y="639.849091"/>
     <use style="fill:#ff0000;stroke:#ff0000;" x="828.388366" xlink:href="#m84e2450c04" y="639.849091"/>
     <use style="fill:#ff0000;stroke:#ff0000;" x="1017.616173" xlink:href="#m84e2450c04" y="639.849091"/>
     <use style="fill:#ff0000;stroke:#ff0000;" x="1092.31136" xlink:href="#m84e2450c04" y="639.849091"/>
    </g>
   </g>
   <g id="patch_9">
    <path d="M 40.603125 645.74 
L 40.603125 516.14 
" style="fill:none;stroke:#000000;stroke-linecap:square;stroke-linejoin:miter;stroke-width:0.8;"/>
   </g>
   <g id="patch_10">
    <path d="M 1158.043125 645.74 
L 1158.043125 516.14 
" style="fill:none;stroke:#000000;stroke-linecap:square;stroke-linejoin:miter;stroke-width:0.8;"/>
   </g>
   <g id="patch_11">
    <path d="M 40.603125 645.74 
L 1158.043125 645.74 
" style="fill:none;stroke:#000000;stroke-linecap:square;stroke-linejoin:miter;stroke-width:0.8;"/>
   </g>
   <g id="patch_12">
    <path d="M 40.603125 516.14 
L 1158.043125 516.14 
" style="fill:none;stroke:#000000;stroke-linecap:square;stroke-linejoin:miter;stroke-width:0.8;"/>
   </g>
   <g id="legend_2">
    <g id="patch_13">
     <path d="M 47.603125 582.8525 
L 138.615625 582.8525 
Q 140.615625 582.8525 140.615625 580.8525 
L 140.615625 523.14 
Q 140.615625 521.14 138.615625 521.14 
L 47.603125 521.14 
Q 45.603125 521.14 45.603125 523.14 
L 45.603125 580.8525 
Q 45.603125 582.8525 47.603125 582.8525 
z
" style="fill:#ffffff;opacity:0.8;stroke:#cccccc;stroke-linejoin:miter;"/>
    </g>
    <g id="line2d_38">
     <path d="M 49.603125 529.238437 
L 69.603125 529.238437 
" style="fill:none;stroke:#ff0000;stroke-linecap:square;stroke-width:1.5;"/>
    </g>
    <g id="line2d_39"/>
    <g id="text_31">
     <!-- Maxmimum -->
     <defs>
      <path d="M 9.8125 72.90625 
L 24.515625 72.90625 
L 43.109375 23.296875 
L 61.8125 72.90625 
L 76.515625 72.90625 
L 76.515625 0 
L 66.890625 0 
L 66.890625 64.015625 
L 48.09375 14.015625 
L 38.1875 14.015625 
L 19.390625 64.015625 
L 19.390625 0 
L 9.8125 0 
z
" id="DejaVuSans-4d"/>
      <path d="M 54.890625 54.6875 
L 35.109375 28.078125 
L 55.90625 0 
L 45.3125 0 
L 29.390625 21.484375 
L 13.484375 0 
L 2.875 0 
L 24.125 28.609375 
L 4.6875 54.6875 
L 15.28125 54.6875 
L 29.78125 35.203125 
L 44.28125 54.6875 
z
" id="DejaVuSans-78"/>
     </defs>
     <g transform="translate(77.603125 532.738437)scale(0.1 -0.1)">
      <use xlink:href="#DejaVuSans-4d"/>
      <use x="86.279297" xlink:href="#DejaVuSans-61"/>
      <use x="147.558594" xlink:href="#DejaVuSans-78"/>
      <use x="206.738281" xlink:href="#DejaVuSans-6d"/>
      <use x="304.150391" xlink:href="#DejaVuSans-69"/>
      <use x="331.933594" xlink:href="#DejaVuSans-6d"/>
      <use x="429.345703" xlink:href="#DejaVuSans-75"/>
      <use x="492.724609" xlink:href="#DejaVuSans-6d"/>
     </g>
    </g>
    <g id="line2d_40">
     <path d="M 49.603125 543.916562 
L 69.603125 543.916562 
" style="fill:none;stroke:#008000;stroke-linecap:square;stroke-width:1.5;"/>
    </g>
    <g id="line2d_41"/>
    <g id="text_32">
     <!-- Average -->
     <defs>
      <path d="M 34.1875 63.1875 
L 20.796875 26.90625 
L 47.609375 26.90625 
z
M 28.609375 72.90625 
L 39.796875 72.90625 
L 67.578125 0 
L 57.328125 0 
L 50.6875 18.703125 
L 17.828125 18.703125 
L 11.1875 0 
L 0.78125 0 
z
" id="DejaVuSans-41"/>
      <path d="M 2.984375 54.6875 
L 12.5 54.6875 
L 29.59375 8.796875 
L 46.6875 54.6875 
L 56.203125 54.6875 
L 35.6875 0 
L 23.484375 0 
z
" id="DejaVuSans-76"/>
     </defs>
     <g transform="translate(77.603125 547.416562)scale(0.1 -0.1)">
      <use xlink:href="#DejaVuSans-41"/>
      <use x="68.330078" xlink:href="#DejaVuSans-76"/>
      <use x="127.509766" xlink:href="#DejaVuSans-65"/>
      <use x="189.033203" xlink:href="#DejaVuSans-72"/>
      <use x="230.146484" xlink:href="#DejaVuSans-61"/>
      <use x="291.425781" xlink:href="#DejaVuSans-67"/>
      <use x="354.902344" xlink:href="#DejaVuSans-65"/>
     </g>
    </g>
    <g id="line2d_42">
     <path d="M 49.603125 558.594687 
L 69.603125 558.594687 
" style="fill:none;stroke:#0000ff;stroke-linecap:square;stroke-width:1.5;"/>
    </g>
    <g id="line2d_43"/>
    <g id="text_33">
     <!-- Minimum -->
     <g transform="translate(77.603125 562.094687)scale(0.1 -0.1)">
      <use xlink:href="#DejaVuSans-4d"/>
      <use x="86.279297" xlink:href="#DejaVuSans-69"/>
      <use x="114.0625" xlink:href="#DejaVuSans-6e"/>
      <use x="177.441406" xlink:href="#DejaVuSans-69"/>
      <use x="205.224609" xlink:href="#DejaVuSans-6d"/>
      <use x="302.636719" xlink:href="#DejaVuSans-75"/>
      <use x="366.015625" xlink:href="#DejaVuSans-6d"/>
     </g>
    </g>
    <g id="line2d_44"/>
    <g id="line2d_45">
     <g>
      <use style="fill:#ff0000;stroke:#ff0000;" x="59.603125" xlink:href="#m84e2450c04" y="573.272812"/>
     </g>
    </g>
    <g id="text_34">
     <!-- Disasters -->
     <g transform="translate(77.603125 576.772812)scale(0.1 -0.1)">
      <use xlink:href="#DejaVuSans-44"/>
      <use x="77.001953" xlink:href="#DejaVuSans-69"/>
      <use x="104.785156" xlink:href="#DejaVuSans-73"/>
      <use x="156.884766" xlink:href="#DejaVuSans-61"/>
      <use x="218.164062" xlink:href="#DejaVuSans-73"/>
      <use x="270.263672" xlink:href="#DejaVuSans-74"/>
      <use x="309.472656" xlink:href="#DejaVuSans-65"/>
      <use x="370.996094" xlink:href="#DejaVuSans-72"/>
      <use x="412.109375" xlink:href="#DejaVuSans-73"/>
     </g>
    </g>
   </g>
  </g>
 </g>
 <defs>
  <clipPath id="peb5321150f">
   <rect height="498.96" width="1116" x="40.603125" y="10.7"/>
  </clipPath>
  <clipPath id="p3a30231e9e">
   <rect height="129.6" width="1117.44" x="40.603125" y="516.14"/>
  </clipPath>
 </defs>
</svg>
