<?xml version="1.0" encoding="utf-8" standalone="no"?>
<!DOCTYPE svg PUBLIC "-//W3C//DTD SVG 1.1//EN"
  "http://www.w3.org/Graphics/SVG/1.1/DTD/svg11.dtd">
<!-- Created with matplotlib (http://matplotlib.org/) -->
<svg height="669pt" version="1.1" viewBox="0 0 1187 669" width="1187pt" xmlns="http://www.w3.org/2000/svg" xmlns:xlink="http://www.w3.org/1999/xlink">
 <defs>
  <style type="text/css">
*{stroke-linecap:butt;stroke-linejoin:round;}
  </style>
 </defs>
 <g id="figure_1">
  <g id="patch_1">
   <path d="M 0 669.618125 
L 1187.830625 669.618125 
L 1187.830625 -0 
L 0 -0 
z
" style="fill:none;"/>
  </g>
  <g id="axes_1">
   <g id="patch_2">
    <path d="M 59.690625 509.66 
L 1175.690625 509.66 
L 1175.690625 10.7 
L 59.690625 10.7 
z
" style="fill:none;"/>
   </g>
   <g id="matplotlib.axis_1">
    <g id="xtick_1">
     <g id="line2d_1">
      <defs>
       <path d="M 0 0 
L 0 3.5 
" id="m82b4ea39c8" style="stroke:#000000;stroke-width:0.8;"/>
      </defs>
      <g>
       <use style="stroke:#000000;stroke-width:0.8;" x="110.417898" xlink:href="#m82b4ea39c8" y="509.66"/>
      </g>
     </g>
     <g id="text_1">
      <!-- 0 -->
      <defs>
       <path d="M 31.78125 66.40625 
Q 24.171875 66.40625 20.328125 58.90625 
Q 16.5 51.421875 16.5 36.375 
Q 16.5 21.390625 20.328125 13.890625 
Q 24.171875 6.390625 31.78125 6.390625 
Q 39.453125 6.390625 43.28125 13.890625 
Q 47.125 21.390625 47.125 36.375 
Q 47.125 51.421875 43.28125 58.90625 
Q 39.453125 66.40625 31.78125 66.40625 
z
M 31.78125 74.21875 
Q 44.046875 74.21875 50.515625 64.515625 
Q 56.984375 54.828125 56.984375 36.375 
Q 56.984375 17.96875 50.515625 8.265625 
Q 44.046875 -1.421875 31.78125 -1.421875 
Q 19.53125 -1.421875 13.0625 8.265625 
Q 6.59375 17.96875 6.59375 36.375 
Q 6.59375 54.828125 13.0625 64.515625 
Q 19.53125 74.21875 31.78125 74.21875 
z
" id="DejaVuSans-30"/>
      </defs>
      <g transform="translate(107.236648 524.258437)scale(0.1 -0.1)">
       <use xlink:href="#DejaVuSans-30"/>
      </g>
     </g>
    </g>
    <g id="xtick_2">
     <g id="line2d_2">
      <g>
       <use style="stroke:#000000;stroke-width:0.8;" x="353.132121" xlink:href="#m82b4ea39c8" y="509.66"/>
      </g>
     </g>
     <g id="text_2">
      <!-- 50 -->
      <defs>
       <path d="M 10.796875 72.90625 
L 49.515625 72.90625 
L 49.515625 64.59375 
L 19.828125 64.59375 
L 19.828125 46.734375 
Q 21.96875 47.46875 24.109375 47.828125 
Q 26.265625 48.1875 28.421875 48.1875 
Q 40.625 48.1875 47.75 41.5 
Q 54.890625 34.8125 54.890625 23.390625 
Q 54.890625 11.625 47.5625 5.09375 
Q 40.234375 -1.421875 26.90625 -1.421875 
Q 22.3125 -1.421875 17.546875 -0.640625 
Q 12.796875 0.140625 7.71875 1.703125 
L 7.71875 11.625 
Q 12.109375 9.234375 16.796875 8.0625 
Q 21.484375 6.890625 26.703125 6.890625 
Q 35.15625 6.890625 40.078125 11.328125 
Q 45.015625 15.765625 45.015625 23.390625 
Q 45.015625 31 40.078125 35.4375 
Q 35.15625 39.890625 26.703125 39.890625 
Q 22.75 39.890625 18.8125 39.015625 
Q 14.890625 38.140625 10.796875 36.28125 
z
" id="DejaVuSans-35"/>
      </defs>
      <g transform="translate(346.769621 524.258437)scale(0.1 -0.1)">
       <use xlink:href="#DejaVuSans-35"/>
       <use x="63.623047" xlink:href="#DejaVuSans-30"/>
      </g>
     </g>
    </g>
    <g id="xtick_3">
     <g id="line2d_3">
      <g>
       <use style="stroke:#000000;stroke-width:0.8;" x="595.846345" xlink:href="#m82b4ea39c8" y="509.66"/>
      </g>
     </g>
     <g id="text_3">
      <!-- 100 -->
      <defs>
       <path d="M 12.40625 8.296875 
L 28.515625 8.296875 
L 28.515625 63.921875 
L 10.984375 60.40625 
L 10.984375 69.390625 
L 28.421875 72.90625 
L 38.28125 72.90625 
L 38.28125 8.296875 
L 54.390625 8.296875 
L 54.390625 0 
L 12.40625 0 
z
" id="DejaVuSans-31"/>
      </defs>
      <g transform="translate(586.302595 524.258437)scale(0.1 -0.1)">
       <use xlink:href="#DejaVuSans-31"/>
       <use x="63.623047" xlink:href="#DejaVuSans-30"/>
       <use x="127.246094" xlink:href="#DejaVuSans-30"/>
      </g>
     </g>
    </g>
    <g id="xtick_4">
     <g id="line2d_4">
      <g>
       <use style="stroke:#000000;stroke-width:0.8;" x="838.560568" xlink:href="#m82b4ea39c8" y="509.66"/>
      </g>
     </g>
     <g id="text_4">
      <!-- 150 -->
      <g transform="translate(829.016818 524.258437)scale(0.1 -0.1)">
       <use xlink:href="#DejaVuSans-31"/>
       <use x="63.623047" xlink:href="#DejaVuSans-35"/>
       <use x="127.246094" xlink:href="#DejaVuSans-30"/>
      </g>
     </g>
    </g>
    <g id="xtick_5">
     <g id="line2d_5">
      <g>
       <use style="stroke:#000000;stroke-width:0.8;" x="1081.274792" xlink:href="#m82b4ea39c8" y="509.66"/>
      </g>
     </g>
     <g id="text_5">
      <!-- 200 -->
      <defs>
       <path d="M 19.1875 8.296875 
L 53.609375 8.296875 
L 53.609375 0 
L 7.328125 0 
L 7.328125 8.296875 
Q 12.9375 14.109375 22.625 23.890625 
Q 32.328125 33.6875 34.8125 36.53125 
Q 39.546875 41.84375 41.421875 45.53125 
Q 43.3125 49.21875 43.3125 52.78125 
Q 43.3125 58.59375 39.234375 62.25 
Q 35.15625 65.921875 28.609375 65.921875 
Q 23.96875 65.921875 18.8125 64.3125 
Q 13.671875 62.703125 7.8125 59.421875 
L 7.8125 69.390625 
Q 13.765625 71.78125 18.9375 73 
Q 24.125 74.21875 28.421875 74.21875 
Q 39.75 74.21875 46.484375 68.546875 
Q 53.21875 62.890625 53.21875 53.421875 
Q 53.21875 48.921875 51.53125 44.890625 
Q 49.859375 40.875 45.40625 35.40625 
Q 44.1875 33.984375 37.640625 27.21875 
Q 31.109375 20.453125 19.1875 8.296875 
z
" id="DejaVuSans-32"/>
      </defs>
      <g transform="translate(1071.731042 524.258437)scale(0.1 -0.1)">
       <use xlink:href="#DejaVuSans-32"/>
       <use x="63.623047" xlink:href="#DejaVuSans-30"/>
       <use x="127.246094" xlink:href="#DejaVuSans-30"/>
      </g>
     </g>
    </g>
    <g id="text_6">
     <!-- Time -->
     <defs>
      <path d="M -0.296875 72.90625 
L 61.375 72.90625 
L 61.375 64.59375 
L 35.5 64.59375 
L 35.5 0 
L 25.59375 0 
L 25.59375 64.59375 
L -0.296875 64.59375 
z
" id="DejaVuSans-54"/>
      <path d="M 9.421875 54.6875 
L 18.40625 54.6875 
L 18.40625 0 
L 9.421875 0 
z
M 9.421875 75.984375 
L 18.40625 75.984375 
L 18.40625 64.59375 
L 9.421875 64.59375 
z
" id="DejaVuSans-69"/>
      <path d="M 52 44.1875 
Q 55.375 50.25 60.0625 53.125 
Q 64.75 56 71.09375 56 
Q 79.640625 56 84.28125 50.015625 
Q 88.921875 44.046875 88.921875 33.015625 
L 88.921875 0 
L 79.890625 0 
L 79.890625 32.71875 
Q 79.890625 40.578125 77.09375 44.375 
Q 74.3125 48.1875 68.609375 48.1875 
Q 61.625 48.1875 57.5625 43.546875 
Q 53.515625 38.921875 53.515625 30.90625 
L 53.515625 0 
L 44.484375 0 
L 44.484375 32.71875 
Q 44.484375 40.625 41.703125 44.40625 
Q 38.921875 48.1875 33.109375 48.1875 
Q 26.21875 48.1875 22.15625 43.53125 
Q 18.109375 38.875 18.109375 30.90625 
L 18.109375 0 
L 9.078125 0 
L 9.078125 54.6875 
L 18.109375 54.6875 
L 18.109375 46.1875 
Q 21.1875 51.21875 25.484375 53.609375 
Q 29.78125 56 35.6875 56 
Q 41.65625 56 45.828125 52.96875 
Q 50 49.953125 52 44.1875 
z
" id="DejaVuSans-6d"/>
      <path d="M 56.203125 29.59375 
L 56.203125 25.203125 
L 14.890625 25.203125 
Q 15.484375 15.921875 20.484375 11.0625 
Q 25.484375 6.203125 34.421875 6.203125 
Q 39.59375 6.203125 44.453125 7.46875 
Q 49.3125 8.734375 54.109375 11.28125 
L 54.109375 2.78125 
Q 49.265625 0.734375 44.1875 -0.34375 
Q 39.109375 -1.421875 33.890625 -1.421875 
Q 20.796875 -1.421875 13.15625 6.1875 
Q 5.515625 13.8125 5.515625 26.8125 
Q 5.515625 40.234375 12.765625 48.109375 
Q 20.015625 56 32.328125 56 
Q 43.359375 56 49.78125 48.890625 
Q 56.203125 41.796875 56.203125 29.59375 
z
M 47.21875 32.234375 
Q 47.125 39.59375 43.09375 43.984375 
Q 39.0625 48.390625 32.421875 48.390625 
Q 24.90625 48.390625 20.390625 44.140625 
Q 15.875 39.890625 15.1875 32.171875 
z
" id="DejaVuSans-65"/>
     </defs>
     <g transform="translate(605.303125 537.936562)scale(0.1 -0.1)">
      <use xlink:href="#DejaVuSans-54"/>
      <use x="61.037109" xlink:href="#DejaVuSans-69"/>
      <use x="88.820312" xlink:href="#DejaVuSans-6d"/>
      <use x="186.232422" xlink:href="#DejaVuSans-65"/>
     </g>
    </g>
   </g>
   <g id="matplotlib.axis_2">
    <g id="ytick_1">
     <g id="line2d_6">
      <defs>
       <path d="M 0 0 
L -3.5 0 
" id="m07ca741936" style="stroke:#000000;stroke-width:0.8;"/>
      </defs>
      <g>
       <use style="stroke:#000000;stroke-width:0.8;" x="59.690625" xlink:href="#m07ca741936" y="507.91389"/>
      </g>
     </g>
     <g id="text_7">
      <!-- 0 -->
      <g transform="translate(46.328125 511.713109)scale(0.1 -0.1)">
       <use xlink:href="#DejaVuSans-30"/>
      </g>
     </g>
    </g>
    <g id="ytick_2">
     <g id="line2d_7">
      <g>
       <use style="stroke:#000000;stroke-width:0.8;" x="59.690625" xlink:href="#m07ca741936" y="410.772869"/>
      </g>
     </g>
     <g id="text_8">
      <!-- 2000 -->
      <g transform="translate(27.240625 414.572087)scale(0.1 -0.1)">
       <use xlink:href="#DejaVuSans-32"/>
       <use x="63.623047" xlink:href="#DejaVuSans-30"/>
       <use x="127.246094" xlink:href="#DejaVuSans-30"/>
       <use x="190.869141" xlink:href="#DejaVuSans-30"/>
      </g>
     </g>
    </g>
    <g id="ytick_3">
     <g id="line2d_8">
      <g>
       <use style="stroke:#000000;stroke-width:0.8;" x="59.690625" xlink:href="#m07ca741936" y="313.631847"/>
      </g>
     </g>
     <g id="text_9">
      <!-- 4000 -->
      <defs>
       <path d="M 37.796875 64.3125 
L 12.890625 25.390625 
L 37.796875 25.390625 
z
M 35.203125 72.90625 
L 47.609375 72.90625 
L 47.609375 25.390625 
L 58.015625 25.390625 
L 58.015625 17.1875 
L 47.609375 17.1875 
L 47.609375 0 
L 37.796875 0 
L 37.796875 17.1875 
L 4.890625 17.1875 
L 4.890625 26.703125 
z
" id="DejaVuSans-34"/>
      </defs>
      <g transform="translate(27.240625 317.431066)scale(0.1 -0.1)">
       <use xlink:href="#DejaVuSans-34"/>
       <use x="63.623047" xlink:href="#DejaVuSans-30"/>
       <use x="127.246094" xlink:href="#DejaVuSans-30"/>
       <use x="190.869141" xlink:href="#DejaVuSans-30"/>
      </g>
     </g>
    </g>
    <g id="ytick_4">
     <g id="line2d_9">
      <g>
       <use style="stroke:#000000;stroke-width:0.8;" x="59.690625" xlink:href="#m07ca741936" y="216.490826"/>
      </g>
     </g>
     <g id="text_10">
      <!-- 6000 -->
      <defs>
       <path d="M 33.015625 40.375 
Q 26.375 40.375 22.484375 35.828125 
Q 18.609375 31.296875 18.609375 23.390625 
Q 18.609375 15.53125 22.484375 10.953125 
Q 26.375 6.390625 33.015625 6.390625 
Q 39.65625 6.390625 43.53125 10.953125 
Q 47.40625 15.53125 47.40625 23.390625 
Q 47.40625 31.296875 43.53125 35.828125 
Q 39.65625 40.375 33.015625 40.375 
z
M 52.59375 71.296875 
L 52.59375 62.3125 
Q 48.875 64.0625 45.09375 64.984375 
Q 41.3125 65.921875 37.59375 65.921875 
Q 27.828125 65.921875 22.671875 59.328125 
Q 17.53125 52.734375 16.796875 39.40625 
Q 19.671875 43.65625 24.015625 45.921875 
Q 28.375 48.1875 33.59375 48.1875 
Q 44.578125 48.1875 50.953125 41.515625 
Q 57.328125 34.859375 57.328125 23.390625 
Q 57.328125 12.15625 50.6875 5.359375 
Q 44.046875 -1.421875 33.015625 -1.421875 
Q 20.359375 -1.421875 13.671875 8.265625 
Q 6.984375 17.96875 6.984375 36.375 
Q 6.984375 53.65625 15.1875 63.9375 
Q 23.390625 74.21875 37.203125 74.21875 
Q 40.921875 74.21875 44.703125 73.484375 
Q 48.484375 72.75 52.59375 71.296875 
z
" id="DejaVuSans-36"/>
      </defs>
      <g transform="translate(27.240625 220.290044)scale(0.1 -0.1)">
       <use xlink:href="#DejaVuSans-36"/>
       <use x="63.623047" xlink:href="#DejaVuSans-30"/>
       <use x="127.246094" xlink:href="#DejaVuSans-30"/>
       <use x="190.869141" xlink:href="#DejaVuSans-30"/>
      </g>
     </g>
    </g>
    <g id="ytick_5">
     <g id="line2d_10">
      <g>
       <use style="stroke:#000000;stroke-width:0.8;" x="59.690625" xlink:href="#m07ca741936" y="119.349804"/>
      </g>
     </g>
     <g id="text_11">
      <!-- 8000 -->
      <defs>
       <path d="M 31.78125 34.625 
Q 24.75 34.625 20.71875 30.859375 
Q 16.703125 27.09375 16.703125 20.515625 
Q 16.703125 13.921875 20.71875 10.15625 
Q 24.75 6.390625 31.78125 6.390625 
Q 38.8125 6.390625 42.859375 10.171875 
Q 46.921875 13.96875 46.921875 20.515625 
Q 46.921875 27.09375 42.890625 30.859375 
Q 38.875 34.625 31.78125 34.625 
z
M 21.921875 38.8125 
Q 15.578125 40.375 12.03125 44.71875 
Q 8.5 49.078125 8.5 55.328125 
Q 8.5 64.0625 14.71875 69.140625 
Q 20.953125 74.21875 31.78125 74.21875 
Q 42.671875 74.21875 48.875 69.140625 
Q 55.078125 64.0625 55.078125 55.328125 
Q 55.078125 49.078125 51.53125 44.71875 
Q 48 40.375 41.703125 38.8125 
Q 48.828125 37.15625 52.796875 32.3125 
Q 56.78125 27.484375 56.78125 20.515625 
Q 56.78125 9.90625 50.3125 4.234375 
Q 43.84375 -1.421875 31.78125 -1.421875 
Q 19.734375 -1.421875 13.25 4.234375 
Q 6.78125 9.90625 6.78125 20.515625 
Q 6.78125 27.484375 10.78125 32.3125 
Q 14.796875 37.15625 21.921875 38.8125 
z
M 18.3125 54.390625 
Q 18.3125 48.734375 21.84375 45.5625 
Q 25.390625 42.390625 31.78125 42.390625 
Q 38.140625 42.390625 41.71875 45.5625 
Q 45.3125 48.734375 45.3125 54.390625 
Q 45.3125 60.0625 41.71875 63.234375 
Q 38.140625 66.40625 31.78125 66.40625 
Q 25.390625 66.40625 21.84375 63.234375 
Q 18.3125 60.0625 18.3125 54.390625 
z
" id="DejaVuSans-38"/>
      </defs>
      <g transform="translate(27.240625 123.149023)scale(0.1 -0.1)">
       <use xlink:href="#DejaVuSans-38"/>
       <use x="63.623047" xlink:href="#DejaVuSans-30"/>
       <use x="127.246094" xlink:href="#DejaVuSans-30"/>
       <use x="190.869141" xlink:href="#DejaVuSans-30"/>
      </g>
     </g>
    </g>
    <g id="ytick_6">
     <g id="line2d_11">
      <g>
       <use style="stroke:#000000;stroke-width:0.8;" x="59.690625" xlink:href="#m07ca741936" y="22.208783"/>
      </g>
     </g>
     <g id="text_12">
      <!-- 10000 -->
      <g transform="translate(20.878125 26.008001)scale(0.1 -0.1)">
       <use xlink:href="#DejaVuSans-31"/>
       <use x="63.623047" xlink:href="#DejaVuSans-30"/>
       <use x="127.246094" xlink:href="#DejaVuSans-30"/>
       <use x="190.869141" xlink:href="#DejaVuSans-30"/>
       <use x="254.492188" xlink:href="#DejaVuSans-30"/>
      </g>
     </g>
    </g>
    <g id="text_13">
     <!-- Refugees -->
     <defs>
      <path d="M 44.390625 34.1875 
Q 47.5625 33.109375 50.5625 29.59375 
Q 53.5625 26.078125 56.59375 19.921875 
L 66.609375 0 
L 56 0 
L 46.6875 18.703125 
Q 43.0625 26.03125 39.671875 28.421875 
Q 36.28125 30.8125 30.421875 30.8125 
L 19.671875 30.8125 
L 19.671875 0 
L 9.8125 0 
L 9.8125 72.90625 
L 32.078125 72.90625 
Q 44.578125 72.90625 50.734375 67.671875 
Q 56.890625 62.453125 56.890625 51.90625 
Q 56.890625 45.015625 53.6875 40.46875 
Q 50.484375 35.9375 44.390625 34.1875 
z
M 19.671875 64.796875 
L 19.671875 38.921875 
L 32.078125 38.921875 
Q 39.203125 38.921875 42.84375 42.21875 
Q 46.484375 45.515625 46.484375 51.90625 
Q 46.484375 58.296875 42.84375 61.546875 
Q 39.203125 64.796875 32.078125 64.796875 
z
" id="DejaVuSans-52"/>
      <path d="M 37.109375 75.984375 
L 37.109375 68.5 
L 28.515625 68.5 
Q 23.6875 68.5 21.796875 66.546875 
Q 19.921875 64.59375 19.921875 59.515625 
L 19.921875 54.6875 
L 34.71875 54.6875 
L 34.71875 47.703125 
L 19.921875 47.703125 
L 19.921875 0 
L 10.890625 0 
L 10.890625 47.703125 
L 2.296875 47.703125 
L 2.296875 54.6875 
L 10.890625 54.6875 
L 10.890625 58.5 
Q 10.890625 67.625 15.140625 71.796875 
Q 19.390625 75.984375 28.609375 75.984375 
z
" id="DejaVuSans-66"/>
      <path d="M 8.5 21.578125 
L 8.5 54.6875 
L 17.484375 54.6875 
L 17.484375 21.921875 
Q 17.484375 14.15625 20.5 10.265625 
Q 23.53125 6.390625 29.59375 6.390625 
Q 36.859375 6.390625 41.078125 11.03125 
Q 45.3125 15.671875 45.3125 23.6875 
L 45.3125 54.6875 
L 54.296875 54.6875 
L 54.296875 0 
L 45.3125 0 
L 45.3125 8.40625 
Q 42.046875 3.421875 37.71875 1 
Q 33.40625 -1.421875 27.6875 -1.421875 
Q 18.265625 -1.421875 13.375 4.4375 
Q 8.5 10.296875 8.5 21.578125 
z
M 31.109375 56 
z
" id="DejaVuSans-75"/>
      <path d="M 45.40625 27.984375 
Q 45.40625 37.75 41.375 43.109375 
Q 37.359375 48.484375 30.078125 48.484375 
Q 22.859375 48.484375 18.828125 43.109375 
Q 14.796875 37.75 14.796875 27.984375 
Q 14.796875 18.265625 18.828125 12.890625 
Q 22.859375 7.515625 30.078125 7.515625 
Q 37.359375 7.515625 41.375 12.890625 
Q 45.40625 18.265625 45.40625 27.984375 
z
M 54.390625 6.78125 
Q 54.390625 -7.171875 48.1875 -13.984375 
Q 42 -20.796875 29.203125 -20.796875 
Q 24.46875 -20.796875 20.265625 -20.09375 
Q 16.0625 -19.390625 12.109375 -17.921875 
L 12.109375 -9.1875 
Q 16.0625 -11.328125 19.921875 -12.34375 
Q 23.78125 -13.375 27.78125 -13.375 
Q 36.625 -13.375 41.015625 -8.765625 
Q 45.40625 -4.15625 45.40625 5.171875 
L 45.40625 9.625 
Q 42.625 4.78125 38.28125 2.390625 
Q 33.9375 0 27.875 0 
Q 17.828125 0 11.671875 7.65625 
Q 5.515625 15.328125 5.515625 27.984375 
Q 5.515625 40.671875 11.671875 48.328125 
Q 17.828125 56 27.875 56 
Q 33.9375 56 38.28125 53.609375 
Q 42.625 51.21875 45.40625 46.390625 
L 45.40625 54.6875 
L 54.390625 54.6875 
z
" id="DejaVuSans-67"/>
      <path d="M 44.28125 53.078125 
L 44.28125 44.578125 
Q 40.484375 46.53125 36.375 47.5 
Q 32.28125 48.484375 27.875 48.484375 
Q 21.1875 48.484375 17.84375 46.4375 
Q 14.5 44.390625 14.5 40.28125 
Q 14.5 37.15625 16.890625 35.375 
Q 19.28125 33.59375 26.515625 31.984375 
L 29.59375 31.296875 
Q 39.15625 29.25 43.1875 25.515625 
Q 47.21875 21.78125 47.21875 15.09375 
Q 47.21875 7.46875 41.1875 3.015625 
Q 35.15625 -1.421875 24.609375 -1.421875 
Q 20.21875 -1.421875 15.453125 -0.5625 
Q 10.6875 0.296875 5.421875 2 
L 5.421875 11.28125 
Q 10.40625 8.6875 15.234375 7.390625 
Q 20.0625 6.109375 24.8125 6.109375 
Q 31.15625 6.109375 34.5625 8.28125 
Q 37.984375 10.453125 37.984375 14.40625 
Q 37.984375 18.0625 35.515625 20.015625 
Q 33.0625 21.96875 24.703125 23.78125 
L 21.578125 24.515625 
Q 13.234375 26.265625 9.515625 29.90625 
Q 5.8125 33.546875 5.8125 39.890625 
Q 5.8125 47.609375 11.28125 51.796875 
Q 16.75 56 26.8125 56 
Q 31.78125 56 36.171875 55.265625 
Q 40.578125 54.546875 44.28125 53.078125 
z
" id="DejaVuSans-73"/>
     </defs>
     <g style="fill:#ff7f0e;" transform="translate(14.798438 283.588594)rotate(-90)scale(0.1 -0.1)">
      <use xlink:href="#DejaVuSans-52"/>
      <use x="69.419922" xlink:href="#DejaVuSans-65"/>
      <use x="130.943359" xlink:href="#DejaVuSans-66"/>
      <use x="166.148438" xlink:href="#DejaVuSans-75"/>
      <use x="229.527344" xlink:href="#DejaVuSans-67"/>
      <use x="293.003906" xlink:href="#DejaVuSans-65"/>
      <use x="354.527344" xlink:href="#DejaVuSans-65"/>
      <use x="416.050781" xlink:href="#DejaVuSans-73"/>
     </g>
    </g>
   </g>
   <g id="line2d_12">
    <path clip-path="url(#p07ce4bc20f)" d="M 110.417898 459.400322 
L 115.272182 453.807035 
L 120.126467 453.368975 
L 124.980751 454.906091 
L 129.835036 458.169363 
L 134.68932 460.650316 
L 139.543605 453.765046 
L 144.397889 451.983257 
L 149.252173 456.712745 
L 154.106458 462.791204 
L 158.960742 466.281516 
L 163.815027 468.555733 
L 168.669311 457.19216 
L 173.523596 457.038154 
L 178.37788 457.793777 
L 183.232165 457.754017 
L 188.086449 458.414412 
L 192.940734 457.952604 
L 197.795018 462.414421 
L 202.649303 461.734107 
L 207.503587 464.008194 
L 212.357872 466.149296 
L 217.212156 466.815026 
L 222.066441 467.124815 
L 226.920725 460.674622 
L 231.77501 461.224277 
L 236.629294 462.877344 
L 246.337863 464.369787 
L 251.192147 464.158035 
L 256.046432 449.57942 
L 265.755001 458.303059 
L 270.609285 459.159037 
L 275.46357 458.206247 
L 280.317854 455.947742 
L 285.172139 449.416609 
L 290.026423 460.265531 
L 294.880708 467.535867 
L 299.734992 468.245594 
L 304.589277 464.67048 
L 309.443561 460.090376 
L 314.297846 444.174303 
L 319.15213 447.31284 
L 324.006414 454.503042 
L 328.860699 460.752215 
L 333.714983 465.661272 
L 338.569268 467.006406 
L 343.423552 462.068706 
L 348.277837 456.570336 
L 353.132121 456.451187 
L 357.986406 458.194096 
L 362.84069 460.911382 
L 367.694975 463.453783 
L 372.549259 454.61666 
L 377.403544 457.804414 
L 382.257828 460.365841 
L 387.112113 459.864905 
L 391.966397 458.235376 
L 396.820682 455.631755 
L 401.674966 463.663229 
L 406.52925 463.1835 
L 411.383535 466.207181 
L 416.237819 469.62115 
L 421.092104 471.704017 
L 425.946388 472.757906 
L 430.800673 474.656371 
L 440.509242 474.159229 
L 445.363526 473.493884 
L 450.217811 473.177811 
L 455.072095 471.585161 
L 459.92638 472.540376 
L 464.780664 473.659656 
L 469.634949 476.139963 
L 474.489233 478.21993 
L 479.343518 480.035214 
L 484.197802 480.151239 
L 489.052087 482.144169 
L 493.906371 482.823966 
L 498.760655 484.57182 
L 503.61494 485.694748 
L 508.469224 486.598644 
L 513.323509 486.796644 
L 518.177793 480.433043 
L 523.032078 477.71891 
L 527.886362 473.076261 
L 532.740647 467.183894 
L 537.594931 463.071299 
L 542.449216 460.596406 
L 547.3035 457.518855 
L 552.157785 451.745017 
L 557.012069 449.326832 
L 561.866354 448.253016 
L 566.720638 450.230136 
L 571.574923 451.658537 
L 576.429207 453.709538 
L 581.283491 449.49486 
L 586.137776 451.022662 
L 590.99206 454.380638 
L 595.846345 458.350548 
L 600.700629 461.391339 
L 605.554914 459.928962 
L 610.409198 457.744021 
L 615.263483 456.161691 
L 620.117767 454.809999 
L 624.972052 454.913639 
L 629.826336 453.249031 
L 634.680621 454.591551 
L 639.534905 446.439015 
L 644.38919 446.187554 
L 649.243474 449.802511 
L 654.097759 456.378485 
L 658.952043 461.5579 
L 663.806327 459.342253 
L 668.660612 460.083175 
L 673.514896 460.040839 
L 683.223465 455.364748 
L 688.07775 452.612682 
L 692.932034 462.757251 
L 697.786319 459.288824 
L 702.640603 462.414169 
L 707.494888 467.767061 
L 712.349172 472.060455 
L 717.203457 475.227306 
L 722.057741 472.004743 
L 726.912026 473.628289 
L 731.76631 473.093124 
L 736.620595 470.412114 
L 741.474879 467.295472 
L 746.329163 463.462211 
L 751.183448 458.627551 
L 756.037732 454.197502 
L 760.892017 453.494285 
L 765.746301 453.884029 
L 770.600586 456.774235 
L 775.45487 459.104164 
L 780.309155 450.121451 
L 785.163439 449.802191 
L 790.017724 446.810812 
L 794.872008 441.29095 
L 804.580577 432.114794 
L 809.434862 415.630708 
L 814.289146 415.31787 
L 819.143431 416.681182 
L 823.997715 415.506632 
L 828.852 415.530692 
L 833.706284 414.837696 
L 838.560568 422.704637 
L 843.414853 428.926476 
L 848.269137 430.122419 
L 853.123422 424.027448 
L 857.977706 416.360582 
L 862.831991 409.734152 
L 867.686275 405.676048 
L 872.54056 394.411093 
L 877.394844 394.313228 
L 882.249129 398.789803 
L 887.103413 408.804447 
L 891.957698 416.013426 
L 896.811982 415.059619 
L 901.666267 423.838905 
L 906.520551 423.684027 
L 911.374836 413.5527 
L 916.22912 401.002405 
L 921.083404 390.479419 
L 925.937689 378.124675 
L 930.791973 387.811753 
L 935.646258 404.119551 
L 940.500542 415.714213 
L 945.354827 423.173835 
L 950.209111 425.028586 
L 955.063396 410.297462 
L 959.91768 419.340435 
L 964.771965 423.84567 
L 969.626249 420.925926 
L 974.480534 415.269424 
L 979.334818 408.635043 
L 984.189103 413.771475 
L 989.043387 413.046896 
L 993.897672 419.243644 
L 998.751956 425.253106 
L 1003.60624 429.214034 
L 1008.460525 431.516923 
L 1013.314809 401.933415 
L 1018.169094 413.576642 
L 1023.023378 416.266661 
L 1027.877663 407.907967 
L 1032.731947 395.79591 
L 1037.586232 384.56003 
L 1042.440516 322.566485 
L 1047.294801 346.31131 
L 1052.149085 354.54381 
L 1057.00337 339.269061 
L 1061.857654 315.152059 
L 1066.711939 295.574953 
L 1071.566223 275.038687 
L 1076.420508 274.343189 
L 1081.274792 274.844381 
L 1086.129077 267.726098 
L 1090.983361 264.61832 
L 1095.837645 261.772036 
L 1100.69193 286.864681 
L 1105.546214 283.787284 
L 1110.400499 311.685327 
L 1115.254783 346.103024 
L 1120.109068 371.232904 
L 1124.963352 389.041371 
L 1124.963352 389.041371 
" style="fill:none;stroke:#008000;stroke-dasharray:5.55,2.4;stroke-dashoffset:0;stroke-width:1.5;"/>
   </g>
   <g id="line2d_13">
    <path clip-path="url(#p07ce4bc20f)" d="M 110.417898 460.36336 
L 115.272182 457.157706 
L 120.126467 455.797732 
L 124.980751 462.694745 
L 129.835036 452.154944 
L 134.68932 446.08363 
L 139.543605 451.426386 
L 144.397889 459.974796 
L 149.252173 452.397796 
L 154.106458 465.754687 
L 158.960742 462.354751 
L 163.815027 462.743315 
L 168.669311 460.217649 
L 173.523596 456.720572 
L 178.37788 458.46911 
L 183.232165 455.846303 
L 188.086449 453.466348 
L 192.940734 457.594841 
L 197.795018 458.711963 
L 202.649303 469.106052 
L 207.503587 464.928988 
L 212.357872 465.997539 
L 217.212156 463.18045 
L 222.066441 465.657546 
L 226.920725 450.309264 
L 231.77501 457.254847 
L 236.629294 466.920379 
L 241.483578 461.2862 
L 246.337863 461.237629 
L 251.192147 459.39195 
L 256.046432 458.906245 
L 260.900716 466.871809 
L 265.755001 467.454655 
L 270.609285 461.33477 
L 275.46357 456.52629 
L 280.317854 438.118066 
L 285.172139 449.046431 
L 290.026423 466.726097 
L 294.880708 467.357514 
L 299.734992 463.860437 
L 304.589277 465.12327 
L 309.443561 458.857674 
L 314.297846 415.581349 
L 319.15213 430.978201 
L 324.006414 444.675085 
L 328.860699 459.731943 
L 333.714983 467.211802 
L 338.569268 469.543187 
L 343.423552 465.754687 
L 348.277837 466.143251 
L 353.132121 457.934835 
L 357.986406 453.612059 
L 362.84069 457.54627 
L 367.694975 456.477719 
L 372.549259 467.94036 
L 377.403544 471.000302 
L 382.257828 453.806341 
L 387.112113 457.983405 
L 391.966397 463.763296 
L 396.820682 454.097764 
L 401.674966 452.543508 
L 406.52925 463.22902 
L 411.383535 468.037501 
L 416.237819 469.203193 
L 421.092104 474.157385 
L 425.946388 464.15186 
L 430.800673 476.683052 
L 435.654957 481.491532 
L 440.509242 483.531494 
L 445.363526 483.434353 
L 450.217811 474.691661 
L 455.072095 461.577623 
L 459.92638 474.788802 
L 464.780664 472.505988 
L 469.634949 476.683052 
L 474.489233 477.945885 
L 479.343518 477.071616 
L 484.197802 475.031654 
L 489.052087 481.151539 
L 493.906371 486.834288 
L 498.760655 483.725776 
L 503.61494 486.98 
L 508.469224 482.802936 
L 513.323509 482.122949 
L 518.177793 482.074378 
L 523.032078 479.257289 
L 527.886362 480.714404 
L 532.740647 461.577623 
L 537.594931 447.200752 
L 542.449216 471.000302 
L 547.3035 457.109136 
L 552.157785 443.655104 
L 557.012069 428.549676 
L 561.866354 450.357835 
L 566.720638 461.140488 
L 571.574923 448.803579 
L 576.429207 445.500784 
L 581.283491 451.183534 
L 586.137776 436.855233 
L 590.99206 456.769142 
L 595.846345 453.272066 
L 600.700629 468.620347 
L 605.554914 456.57486 
L 610.409198 453.903482 
L 615.263483 456.283437 
L 620.117767 454.63204 
L 624.972052 456.672001 
L 629.826336 456.914854 
L 634.680621 453.7092 
L 639.534905 463.277591 
L 644.38919 443.655104 
L 649.243474 442.926547 
L 654.097759 456.477719 
L 658.952043 455.992014 
L 663.806327 462.500463 
L 668.660612 458.080546 
L 673.514896 454.68061 
L 678.369181 457.934835 
L 683.223465 456.769142 
L 688.07775 455.069174 
L 692.932034 466.823238 
L 697.786319 474.011674 
L 702.640603 457.983405 
L 707.494888 466.531815 
L 712.349172 467.308943 
L 717.203457 470.660308 
L 722.057741 478.140167 
L 726.912026 476.245917 
L 731.76631 467.211802 
L 736.620595 473.185975 
L 741.474879 473.234545 
L 746.329163 459.39195 
L 751.183448 462.403322 
L 756.037732 464.977559 
L 760.892017 446.180771 
L 770.600586 451.280675 
L 775.45487 462.306181 
L 780.309155 453.077783 
L 785.163439 447.929309 
L 790.017724 440.40088 
L 794.872008 450.989252 
L 799.726293 432.678169 
L 804.580577 427.481124 
L 809.434862 423.012637 
L 814.289146 415.484208 
L 819.143431 409.752888 
L 823.997715 416.747041 
L 828.852 406.741516 
L 833.706284 417.087035 
L 838.560568 426.461144 
L 843.414853 428.646817 
L 848.269137 424.664035 
L 853.123422 428.695387 
L 857.977706 417.912734 
L 862.831991 415.532779 
L 867.686275 409.315753 
L 872.54056 398.484529 
L 877.394844 401.738754 
L 882.249129 388.964709 
L 887.103413 387.021889 
L 891.957698 419.321279 
L 896.811982 421.944086 
L 901.666267 431.366765 
L 906.520551 422.28408 
L 911.374836 396.833132 
L 916.22912 400.378779 
L 921.083404 387.264741 
L 925.937689 369.439364 
L 930.791973 394.161754 
L 935.646258 403.050157 
L 940.500542 409.364324 
L 945.354827 413.73567 
L 950.209111 417.864163 
L 955.063396 409.655747 
L 959.91768 416.552759 
L 964.771965 403.050157 
L 969.626249 417.135606 
L 974.480534 415.921343 
L 979.334818 413.929952 
L 984.189103 395.958863 
L 989.043387 397.755972 
L 993.897672 386.390472 
L 998.751956 377.793492 
L 1003.60624 393.384626 
L 1008.460525 396.881703 
L 1013.314809 407.761497 
L 1018.169094 409.218612 
L 1023.023378 394.793171 
L 1027.877663 380.804863 
L 1032.731947 357.6853 
L 1037.586232 291.969399 
L 1042.440516 161.169014 
L 1047.294801 33.38 
L 1052.149085 227.322049 
L 1057.00337 293.572226 
L 1061.857654 284.198118 
L 1066.711939 337.771391 
L 1071.566223 314.89468 
L 1076.420508 296.535027 
L 1081.274792 273.075471 
L 1086.129077 283.955265 
L 1090.983361 281.866733 
L 1095.837645 265.547041 
L 1100.69193 305.811995 
L 1105.546214 242.670331 
L 1110.400499 292.309393 
L 1115.254783 360.988095 
L 1120.109068 362.493781 
L 1124.963352 387.701876 
L 1124.963352 387.701876 
" style="fill:none;stroke:#ff7f0e;stroke-linecap:square;stroke-width:1.5;"/>
   </g>
   <g id="line2d_14">
    <defs>
     <path d="M 0 3 
C 0.795609 3 1.55874 2.683901 2.12132 2.12132 
C 2.683901 1.55874 3 0.795609 3 0 
C 3 -0.795609 2.683901 -1.55874 2.12132 -2.12132 
C 1.55874 -2.683901 0.795609 -3 0 -3 
C -0.795609 -3 -1.55874 -2.683901 -2.12132 -2.12132 
C -2.683901 -1.55874 -3 -0.795609 -3 0 
C -3 0.795609 -2.683901 1.55874 -2.12132 2.12132 
C -1.55874 2.683901 -0.795609 3 0 3 
z
" id="m0168a44741" style="stroke:#008000;"/>
    </defs>
    <g clip-path="url(#p07ce4bc20f)">
     <use style="fill:#008000;stroke:#008000;" x="110.417898" xlink:href="#m0168a44741" y="459.400322"/>
     <use style="fill:#008000;stroke:#008000;" x="139.543605" xlink:href="#m0168a44741" y="453.765046"/>
     <use style="fill:#008000;stroke:#008000;" x="168.669311" xlink:href="#m0168a44741" y="457.19216"/>
     <use style="fill:#008000;stroke:#008000;" x="197.795018" xlink:href="#m0168a44741" y="462.414421"/>
     <use style="fill:#008000;stroke:#008000;" x="226.920725" xlink:href="#m0168a44741" y="460.674622"/>
     <use style="fill:#008000;stroke:#008000;" x="256.046432" xlink:href="#m0168a44741" y="449.57942"/>
     <use style="fill:#008000;stroke:#008000;" x="285.172139" xlink:href="#m0168a44741" y="449.416609"/>
     <use style="fill:#008000;stroke:#008000;" x="314.297846" xlink:href="#m0168a44741" y="444.174303"/>
     <use style="fill:#008000;stroke:#008000;" x="343.423552" xlink:href="#m0168a44741" y="462.068706"/>
     <use style="fill:#008000;stroke:#008000;" x="372.549259" xlink:href="#m0168a44741" y="454.61666"/>
     <use style="fill:#008000;stroke:#008000;" x="401.674966" xlink:href="#m0168a44741" y="463.663229"/>
     <use style="fill:#008000;stroke:#008000;" x="430.800673" xlink:href="#m0168a44741" y="474.656371"/>
     <use style="fill:#008000;stroke:#008000;" x="459.92638" xlink:href="#m0168a44741" y="472.540376"/>
     <use style="fill:#008000;stroke:#008000;" x="489.052087" xlink:href="#m0168a44741" y="482.144169"/>
     <use style="fill:#008000;stroke:#008000;" x="518.177793" xlink:href="#m0168a44741" y="480.433043"/>
     <use style="fill:#008000;stroke:#008000;" x="547.3035" xlink:href="#m0168a44741" y="457.518855"/>
     <use style="fill:#008000;stroke:#008000;" x="576.429207" xlink:href="#m0168a44741" y="453.709538"/>
     <use style="fill:#008000;stroke:#008000;" x="605.554914" xlink:href="#m0168a44741" y="459.928962"/>
     <use style="fill:#008000;stroke:#008000;" x="634.680621" xlink:href="#m0168a44741" y="454.591551"/>
     <use style="fill:#008000;stroke:#008000;" x="663.806327" xlink:href="#m0168a44741" y="459.342253"/>
     <use style="fill:#008000;stroke:#008000;" x="692.932034" xlink:href="#m0168a44741" y="462.757251"/>
     <use style="fill:#008000;stroke:#008000;" x="722.057741" xlink:href="#m0168a44741" y="472.004743"/>
     <use style="fill:#008000;stroke:#008000;" x="751.183448" xlink:href="#m0168a44741" y="458.627551"/>
     <use style="fill:#008000;stroke:#008000;" x="780.309155" xlink:href="#m0168a44741" y="450.121451"/>
     <use style="fill:#008000;stroke:#008000;" x="809.434862" xlink:href="#m0168a44741" y="415.630708"/>
     <use style="fill:#008000;stroke:#008000;" x="838.560568" xlink:href="#m0168a44741" y="422.704637"/>
     <use style="fill:#008000;stroke:#008000;" x="867.686275" xlink:href="#m0168a44741" y="405.676048"/>
     <use style="fill:#008000;stroke:#008000;" x="896.811982" xlink:href="#m0168a44741" y="415.059619"/>
     <use style="fill:#008000;stroke:#008000;" x="925.937689" xlink:href="#m0168a44741" y="378.124675"/>
     <use style="fill:#008000;stroke:#008000;" x="955.063396" xlink:href="#m0168a44741" y="410.297462"/>
     <use style="fill:#008000;stroke:#008000;" x="984.189103" xlink:href="#m0168a44741" y="413.771475"/>
     <use style="fill:#008000;stroke:#008000;" x="1013.314809" xlink:href="#m0168a44741" y="401.933415"/>
     <use style="fill:#008000;stroke:#008000;" x="1042.440516" xlink:href="#m0168a44741" y="322.566485"/>
     <use style="fill:#008000;stroke:#008000;" x="1071.566223" xlink:href="#m0168a44741" y="275.038687"/>
     <use style="fill:#008000;stroke:#008000;" x="1100.69193" xlink:href="#m0168a44741" y="286.864681"/>
    </g>
   </g>
   <g id="patch_3">
    <path d="M 59.690625 509.66 
L 59.690625 10.7 
" style="fill:none;stroke:#000000;stroke-linecap:square;stroke-linejoin:miter;stroke-width:0.8;"/>
   </g>
   <g id="patch_4">
    <path d="M 1175.690625 509.66 
L 1175.690625 10.7 
" style="fill:none;stroke:#000000;stroke-linecap:square;stroke-linejoin:miter;stroke-width:0.8;"/>
   </g>
   <g id="patch_5">
    <path d="M 59.690625 509.66 
L 1175.690625 509.66 
" style="fill:none;stroke:#000000;stroke-linecap:square;stroke-linejoin:miter;stroke-width:0.8;"/>
   </g>
   <g id="patch_6">
    <path d="M 59.690625 10.7 
L 1175.690625 10.7 
" style="fill:none;stroke:#000000;stroke-linecap:square;stroke-linejoin:miter;stroke-width:0.8;"/>
   </g>
   <g id="legend_1">
    <g id="patch_7">
     <path d="M 66.690625 62.734375 
L 214.465625 62.734375 
Q 216.465625 62.734375 216.465625 60.734375 
L 216.465625 17.7 
Q 216.465625 15.7 214.465625 15.7 
L 66.690625 15.7 
Q 64.690625 15.7 64.690625 17.7 
L 64.690625 60.734375 
Q 64.690625 62.734375 66.690625 62.734375 
z
" style="fill:#ffffff;opacity:0.8;stroke:#cccccc;stroke-linejoin:miter;"/>
    </g>
    <g id="line2d_15">
     <path d="M 68.690625 23.798437 
L 88.690625 23.798437 
" style="fill:none;stroke:#008000;stroke-dasharray:5.55,2.4;stroke-dashoffset:0;stroke-width:1.5;"/>
    </g>
    <g id="line2d_16"/>
    <g id="text_14">
     <!-- Predicted -->
     <defs>
      <path d="M 19.671875 64.796875 
L 19.671875 37.40625 
L 32.078125 37.40625 
Q 38.96875 37.40625 42.71875 40.96875 
Q 46.484375 44.53125 46.484375 51.125 
Q 46.484375 57.671875 42.71875 61.234375 
Q 38.96875 64.796875 32.078125 64.796875 
z
M 9.8125 72.90625 
L 32.078125 72.90625 
Q 44.34375 72.90625 50.609375 67.359375 
Q 56.890625 61.8125 56.890625 51.125 
Q 56.890625 40.328125 50.609375 34.8125 
Q 44.34375 29.296875 32.078125 29.296875 
L 19.671875 29.296875 
L 19.671875 0 
L 9.8125 0 
z
" id="DejaVuSans-50"/>
      <path d="M 41.109375 46.296875 
Q 39.59375 47.171875 37.8125 47.578125 
Q 36.03125 48 33.890625 48 
Q 26.265625 48 22.1875 43.046875 
Q 18.109375 38.09375 18.109375 28.8125 
L 18.109375 0 
L 9.078125 0 
L 9.078125 54.6875 
L 18.109375 54.6875 
L 18.109375 46.1875 
Q 20.953125 51.171875 25.484375 53.578125 
Q 30.03125 56 36.53125 56 
Q 37.453125 56 38.578125 55.875 
Q 39.703125 55.765625 41.0625 55.515625 
z
" id="DejaVuSans-72"/>
      <path d="M 45.40625 46.390625 
L 45.40625 75.984375 
L 54.390625 75.984375 
L 54.390625 0 
L 45.40625 0 
L 45.40625 8.203125 
Q 42.578125 3.328125 38.25 0.953125 
Q 33.9375 -1.421875 27.875 -1.421875 
Q 17.96875 -1.421875 11.734375 6.484375 
Q 5.515625 14.40625 5.515625 27.296875 
Q 5.515625 40.1875 11.734375 48.09375 
Q 17.96875 56 27.875 56 
Q 33.9375 56 38.25 53.625 
Q 42.578125 51.265625 45.40625 46.390625 
z
M 14.796875 27.296875 
Q 14.796875 17.390625 18.875 11.75 
Q 22.953125 6.109375 30.078125 6.109375 
Q 37.203125 6.109375 41.296875 11.75 
Q 45.40625 17.390625 45.40625 27.296875 
Q 45.40625 37.203125 41.296875 42.84375 
Q 37.203125 48.484375 30.078125 48.484375 
Q 22.953125 48.484375 18.875 42.84375 
Q 14.796875 37.203125 14.796875 27.296875 
z
" id="DejaVuSans-64"/>
      <path d="M 48.78125 52.59375 
L 48.78125 44.1875 
Q 44.96875 46.296875 41.140625 47.34375 
Q 37.3125 48.390625 33.40625 48.390625 
Q 24.65625 48.390625 19.8125 42.84375 
Q 14.984375 37.3125 14.984375 27.296875 
Q 14.984375 17.28125 19.8125 11.734375 
Q 24.65625 6.203125 33.40625 6.203125 
Q 37.3125 6.203125 41.140625 7.25 
Q 44.96875 8.296875 48.78125 10.40625 
L 48.78125 2.09375 
Q 45.015625 0.34375 40.984375 -0.53125 
Q 36.96875 -1.421875 32.421875 -1.421875 
Q 20.0625 -1.421875 12.78125 6.34375 
Q 5.515625 14.109375 5.515625 27.296875 
Q 5.515625 40.671875 12.859375 48.328125 
Q 20.21875 56 33.015625 56 
Q 37.15625 56 41.109375 55.140625 
Q 45.0625 54.296875 48.78125 52.59375 
z
" id="DejaVuSans-63"/>
      <path d="M 18.3125 70.21875 
L 18.3125 54.6875 
L 36.8125 54.6875 
L 36.8125 47.703125 
L 18.3125 47.703125 
L 18.3125 18.015625 
Q 18.3125 11.328125 20.140625 9.421875 
Q 21.96875 7.515625 27.59375 7.515625 
L 36.8125 7.515625 
L 36.8125 0 
L 27.59375 0 
Q 17.1875 0 13.234375 3.875 
Q 9.28125 7.765625 9.28125 18.015625 
L 9.28125 47.703125 
L 2.6875 47.703125 
L 2.6875 54.6875 
L 9.28125 54.6875 
L 9.28125 70.21875 
z
" id="DejaVuSans-74"/>
     </defs>
     <g transform="translate(96.690625 27.298437)scale(0.1 -0.1)">
      <use xlink:href="#DejaVuSans-50"/>
      <use x="60.287109" xlink:href="#DejaVuSans-72"/>
      <use x="101.369141" xlink:href="#DejaVuSans-65"/>
      <use x="162.892578" xlink:href="#DejaVuSans-64"/>
      <use x="226.369141" xlink:href="#DejaVuSans-69"/>
      <use x="254.152344" xlink:href="#DejaVuSans-63"/>
      <use x="309.132812" xlink:href="#DejaVuSans-74"/>
      <use x="348.341797" xlink:href="#DejaVuSans-65"/>
      <use x="409.865234" xlink:href="#DejaVuSans-64"/>
     </g>
    </g>
    <g id="line2d_17">
     <path d="M 68.690625 38.476562 
L 88.690625 38.476562 
" style="fill:none;stroke:#ff7f0e;stroke-linecap:square;stroke-width:1.5;"/>
    </g>
    <g id="line2d_18"/>
    <g id="text_15">
     <!-- Real Data -->
     <defs>
      <path d="M 34.28125 27.484375 
Q 23.390625 27.484375 19.1875 25 
Q 14.984375 22.515625 14.984375 16.5 
Q 14.984375 11.71875 18.140625 8.90625 
Q 21.296875 6.109375 26.703125 6.109375 
Q 34.1875 6.109375 38.703125 11.40625 
Q 43.21875 16.703125 43.21875 25.484375 
L 43.21875 27.484375 
z
M 52.203125 31.203125 
L 52.203125 0 
L 43.21875 0 
L 43.21875 8.296875 
Q 40.140625 3.328125 35.546875 0.953125 
Q 30.953125 -1.421875 24.3125 -1.421875 
Q 15.921875 -1.421875 10.953125 3.296875 
Q 6 8.015625 6 15.921875 
Q 6 25.140625 12.171875 29.828125 
Q 18.359375 34.515625 30.609375 34.515625 
L 43.21875 34.515625 
L 43.21875 35.40625 
Q 43.21875 41.609375 39.140625 45 
Q 35.0625 48.390625 27.6875 48.390625 
Q 23 48.390625 18.546875 47.265625 
Q 14.109375 46.140625 10.015625 43.890625 
L 10.015625 52.203125 
Q 14.9375 54.109375 19.578125 55.046875 
Q 24.21875 56 28.609375 56 
Q 40.484375 56 46.34375 49.84375 
Q 52.203125 43.703125 52.203125 31.203125 
z
" id="DejaVuSans-61"/>
      <path d="M 9.421875 75.984375 
L 18.40625 75.984375 
L 18.40625 0 
L 9.421875 0 
z
" id="DejaVuSans-6c"/>
      <path id="DejaVuSans-20"/>
      <path d="M 19.671875 64.796875 
L 19.671875 8.109375 
L 31.59375 8.109375 
Q 46.6875 8.109375 53.6875 14.9375 
Q 60.6875 21.78125 60.6875 36.53125 
Q 60.6875 51.171875 53.6875 57.984375 
Q 46.6875 64.796875 31.59375 64.796875 
z
M 9.8125 72.90625 
L 30.078125 72.90625 
Q 51.265625 72.90625 61.171875 64.09375 
Q 71.09375 55.28125 71.09375 36.53125 
Q 71.09375 17.671875 61.125 8.828125 
Q 51.171875 0 30.078125 0 
L 9.8125 0 
z
" id="DejaVuSans-44"/>
     </defs>
     <g transform="translate(96.690625 41.976562)scale(0.1 -0.1)">
      <use xlink:href="#DejaVuSans-52"/>
      <use x="69.419922" xlink:href="#DejaVuSans-65"/>
      <use x="130.943359" xlink:href="#DejaVuSans-61"/>
      <use x="192.222656" xlink:href="#DejaVuSans-6c"/>
      <use x="220.005859" xlink:href="#DejaVuSans-20"/>
      <use x="251.792969" xlink:href="#DejaVuSans-44"/>
      <use x="328.794922" xlink:href="#DejaVuSans-61"/>
      <use x="390.074219" xlink:href="#DejaVuSans-74"/>
      <use x="429.283203" xlink:href="#DejaVuSans-61"/>
     </g>
    </g>
    <g id="line2d_19"/>
    <g id="line2d_20">
     <g>
      <use style="fill:#008000;stroke:#008000;" x="78.690625" xlink:href="#m0168a44741" y="53.154688"/>
     </g>
    </g>
    <g id="text_16">
     <!-- Start Point for Forecast -->
     <defs>
      <path d="M 53.515625 70.515625 
L 53.515625 60.890625 
Q 47.90625 63.578125 42.921875 64.890625 
Q 37.9375 66.21875 33.296875 66.21875 
Q 25.25 66.21875 20.875 63.09375 
Q 16.5 59.96875 16.5 54.203125 
Q 16.5 49.359375 19.40625 46.890625 
Q 22.3125 44.4375 30.421875 42.921875 
L 36.375 41.703125 
Q 47.40625 39.59375 52.65625 34.296875 
Q 57.90625 29 57.90625 20.125 
Q 57.90625 9.515625 50.796875 4.046875 
Q 43.703125 -1.421875 29.984375 -1.421875 
Q 24.8125 -1.421875 18.96875 -0.25 
Q 13.140625 0.921875 6.890625 3.21875 
L 6.890625 13.375 
Q 12.890625 10.015625 18.65625 8.296875 
Q 24.421875 6.59375 29.984375 6.59375 
Q 38.421875 6.59375 43.015625 9.90625 
Q 47.609375 13.234375 47.609375 19.390625 
Q 47.609375 24.75 44.3125 27.78125 
Q 41.015625 30.8125 33.5 32.328125 
L 27.484375 33.5 
Q 16.453125 35.6875 11.515625 40.375 
Q 6.59375 45.0625 6.59375 53.421875 
Q 6.59375 63.09375 13.40625 68.65625 
Q 20.21875 74.21875 32.171875 74.21875 
Q 37.3125 74.21875 42.625 73.28125 
Q 47.953125 72.359375 53.515625 70.515625 
z
" id="DejaVuSans-53"/>
      <path d="M 30.609375 48.390625 
Q 23.390625 48.390625 19.1875 42.75 
Q 14.984375 37.109375 14.984375 27.296875 
Q 14.984375 17.484375 19.15625 11.84375 
Q 23.34375 6.203125 30.609375 6.203125 
Q 37.796875 6.203125 41.984375 11.859375 
Q 46.1875 17.53125 46.1875 27.296875 
Q 46.1875 37.015625 41.984375 42.703125 
Q 37.796875 48.390625 30.609375 48.390625 
z
M 30.609375 56 
Q 42.328125 56 49.015625 48.375 
Q 55.71875 40.765625 55.71875 27.296875 
Q 55.71875 13.875 49.015625 6.21875 
Q 42.328125 -1.421875 30.609375 -1.421875 
Q 18.84375 -1.421875 12.171875 6.21875 
Q 5.515625 13.875 5.515625 27.296875 
Q 5.515625 40.765625 12.171875 48.375 
Q 18.84375 56 30.609375 56 
z
" id="DejaVuSans-6f"/>
      <path d="M 54.890625 33.015625 
L 54.890625 0 
L 45.90625 0 
L 45.90625 32.71875 
Q 45.90625 40.484375 42.875 44.328125 
Q 39.84375 48.1875 33.796875 48.1875 
Q 26.515625 48.1875 22.3125 43.546875 
Q 18.109375 38.921875 18.109375 30.90625 
L 18.109375 0 
L 9.078125 0 
L 9.078125 54.6875 
L 18.109375 54.6875 
L 18.109375 46.1875 
Q 21.34375 51.125 25.703125 53.5625 
Q 30.078125 56 35.796875 56 
Q 45.21875 56 50.046875 50.171875 
Q 54.890625 44.34375 54.890625 33.015625 
z
" id="DejaVuSans-6e"/>
      <path d="M 9.8125 72.90625 
L 51.703125 72.90625 
L 51.703125 64.59375 
L 19.671875 64.59375 
L 19.671875 43.109375 
L 48.578125 43.109375 
L 48.578125 34.8125 
L 19.671875 34.8125 
L 19.671875 0 
L 9.8125 0 
z
" id="DejaVuSans-46"/>
     </defs>
     <g transform="translate(96.690625 56.654688)scale(0.1 -0.1)">
      <use xlink:href="#DejaVuSans-53"/>
      <use x="63.476562" xlink:href="#DejaVuSans-74"/>
      <use x="102.685547" xlink:href="#DejaVuSans-61"/>
      <use x="163.964844" xlink:href="#DejaVuSans-72"/>
      <use x="205.078125" xlink:href="#DejaVuSans-74"/>
      <use x="244.287109" xlink:href="#DejaVuSans-20"/>
      <use x="276.074219" xlink:href="#DejaVuSans-50"/>
      <use x="336.330078" xlink:href="#DejaVuSans-6f"/>
      <use x="397.511719" xlink:href="#DejaVuSans-69"/>
      <use x="425.294922" xlink:href="#DejaVuSans-6e"/>
      <use x="488.673828" xlink:href="#DejaVuSans-74"/>
      <use x="527.882812" xlink:href="#DejaVuSans-20"/>
      <use x="559.669922" xlink:href="#DejaVuSans-66"/>
      <use x="594.875" xlink:href="#DejaVuSans-6f"/>
      <use x="656.056641" xlink:href="#DejaVuSans-72"/>
      <use x="697.169922" xlink:href="#DejaVuSans-20"/>
      <use x="728.957031" xlink:href="#DejaVuSans-46"/>
      <use x="786.429688" xlink:href="#DejaVuSans-6f"/>
      <use x="847.611328" xlink:href="#DejaVuSans-72"/>
      <use x="888.693359" xlink:href="#DejaVuSans-65"/>
      <use x="950.216797" xlink:href="#DejaVuSans-63"/>
      <use x="1005.197266" xlink:href="#DejaVuSans-61"/>
      <use x="1066.476562" xlink:href="#DejaVuSans-73"/>
      <use x="1118.576172" xlink:href="#DejaVuSans-74"/>
     </g>
    </g>
   </g>
  </g>
  <g id="axes_2">
   <g id="patch_8">
    <path d="M 59.690625 645.74 
L 1177.130625 645.74 
L 1177.130625 516.14 
L 59.690625 516.14 
z
" style="fill:none;"/>
   </g>
   <g id="matplotlib.axis_3">
    <g id="xtick_6">
     <g id="line2d_21">
      <g>
       <use style="stroke:#000000;stroke-width:0.8;" x="110.483352" xlink:href="#m82b4ea39c8" y="645.74"/>
      </g>
     </g>
     <g id="text_17">
      <!-- 0 -->
      <g transform="translate(107.302102 660.338437)scale(0.1 -0.1)">
       <use xlink:href="#DejaVuSans-30"/>
      </g>
     </g>
    </g>
    <g id="xtick_7">
     <g id="line2d_22">
      <g>
       <use style="stroke:#000000;stroke-width:0.8;" x="234.975331" xlink:href="#m82b4ea39c8" y="645.74"/>
      </g>
     </g>
     <g id="text_18">
      <!-- 25 -->
      <g transform="translate(228.612831 660.338437)scale(0.1 -0.1)">
       <use xlink:href="#DejaVuSans-32"/>
       <use x="63.623047" xlink:href="#DejaVuSans-35"/>
      </g>
     </g>
    </g>
    <g id="xtick_8">
     <g id="line2d_23">
      <g>
       <use style="stroke:#000000;stroke-width:0.8;" x="359.467309" xlink:href="#m82b4ea39c8" y="645.74"/>
      </g>
     </g>
     <g id="text_19">
      <!-- 50 -->
      <g transform="translate(353.104809 660.338437)scale(0.1 -0.1)">
       <use xlink:href="#DejaVuSans-35"/>
       <use x="63.623047" xlink:href="#DejaVuSans-30"/>
      </g>
     </g>
    </g>
    <g id="xtick_9">
     <g id="line2d_24">
      <g>
       <use style="stroke:#000000;stroke-width:0.8;" x="483.959288" xlink:href="#m82b4ea39c8" y="645.74"/>
      </g>
     </g>
     <g id="text_20">
      <!-- 75 -->
      <defs>
       <path d="M 8.203125 72.90625 
L 55.078125 72.90625 
L 55.078125 68.703125 
L 28.609375 0 
L 18.3125 0 
L 43.21875 64.59375 
L 8.203125 64.59375 
z
" id="DejaVuSans-37"/>
      </defs>
      <g transform="translate(477.596788 660.338437)scale(0.1 -0.1)">
       <use xlink:href="#DejaVuSans-37"/>
       <use x="63.623047" xlink:href="#DejaVuSans-35"/>
      </g>
     </g>
    </g>
    <g id="xtick_10">
     <g id="line2d_25">
      <g>
       <use style="stroke:#000000;stroke-width:0.8;" x="608.451267" xlink:href="#m82b4ea39c8" y="645.74"/>
      </g>
     </g>
     <g id="text_21">
      <!-- 100 -->
      <g transform="translate(598.907517 660.338437)scale(0.1 -0.1)">
       <use xlink:href="#DejaVuSans-31"/>
       <use x="63.623047" xlink:href="#DejaVuSans-30"/>
       <use x="127.246094" xlink:href="#DejaVuSans-30"/>
      </g>
     </g>
    </g>
    <g id="xtick_11">
     <g id="line2d_26">
      <g>
       <use style="stroke:#000000;stroke-width:0.8;" x="732.943245" xlink:href="#m82b4ea39c8" y="645.74"/>
      </g>
     </g>
     <g id="text_22">
      <!-- 125 -->
      <g transform="translate(723.399495 660.338437)scale(0.1 -0.1)">
       <use xlink:href="#DejaVuSans-31"/>
       <use x="63.623047" xlink:href="#DejaVuSans-32"/>
       <use x="127.246094" xlink:href="#DejaVuSans-35"/>
      </g>
     </g>
    </g>
    <g id="xtick_12">
     <g id="line2d_27">
      <g>
       <use style="stroke:#000000;stroke-width:0.8;" x="857.435224" xlink:href="#m82b4ea39c8" y="645.74"/>
      </g>
     </g>
     <g id="text_23">
      <!-- 150 -->
      <g transform="translate(847.891474 660.338437)scale(0.1 -0.1)">
       <use xlink:href="#DejaVuSans-31"/>
       <use x="63.623047" xlink:href="#DejaVuSans-35"/>
       <use x="127.246094" xlink:href="#DejaVuSans-30"/>
      </g>
     </g>
    </g>
    <g id="xtick_13">
     <g id="line2d_28">
      <g>
       <use style="stroke:#000000;stroke-width:0.8;" x="981.927203" xlink:href="#m82b4ea39c8" y="645.74"/>
      </g>
     </g>
     <g id="text_24">
      <!-- 175 -->
      <g transform="translate(972.383453 660.338437)scale(0.1 -0.1)">
       <use xlink:href="#DejaVuSans-31"/>
       <use x="63.623047" xlink:href="#DejaVuSans-37"/>
       <use x="127.246094" xlink:href="#DejaVuSans-35"/>
      </g>
     </g>
    </g>
    <g id="xtick_14">
     <g id="line2d_29">
      <g>
       <use style="stroke:#000000;stroke-width:0.8;" x="1106.419181" xlink:href="#m82b4ea39c8" y="645.74"/>
      </g>
     </g>
     <g id="text_25">
      <!-- 200 -->
      <g transform="translate(1096.875431 660.338437)scale(0.1 -0.1)">
       <use xlink:href="#DejaVuSans-32"/>
       <use x="63.623047" xlink:href="#DejaVuSans-30"/>
       <use x="127.246094" xlink:href="#DejaVuSans-30"/>
      </g>
     </g>
    </g>
   </g>
   <g id="matplotlib.axis_4">
    <g id="ytick_7">
     <g id="line2d_30">
      <g>
       <use style="stroke:#000000;stroke-width:0.8;" x="59.690625" xlink:href="#m07ca741936" y="634.489267"/>
      </g>
     </g>
     <g id="text_26">
      <!-- 0 -->
      <g transform="translate(46.328125 638.288485)scale(0.1 -0.1)">
       <use xlink:href="#DejaVuSans-30"/>
      </g>
     </g>
    </g>
    <g id="ytick_8">
     <g id="line2d_31">
      <g>
       <use style="stroke:#000000;stroke-width:0.8;" x="59.690625" xlink:href="#m07ca741936" y="606.398975"/>
      </g>
     </g>
     <g id="text_27">
      <!-- 10 -->
      <g transform="translate(39.965625 610.198194)scale(0.1 -0.1)">
       <use xlink:href="#DejaVuSans-31"/>
       <use x="63.623047" xlink:href="#DejaVuSans-30"/>
      </g>
     </g>
    </g>
    <g id="ytick_9">
     <g id="line2d_32">
      <g>
       <use style="stroke:#000000;stroke-width:0.8;" x="59.690625" xlink:href="#m07ca741936" y="578.308684"/>
      </g>
     </g>
     <g id="text_28">
      <!-- 20 -->
      <g transform="translate(39.965625 582.107903)scale(0.1 -0.1)">
       <use xlink:href="#DejaVuSans-32"/>
       <use x="63.623047" xlink:href="#DejaVuSans-30"/>
      </g>
     </g>
    </g>
    <g id="ytick_10">
     <g id="line2d_33">
      <g>
       <use style="stroke:#000000;stroke-width:0.8;" x="59.690625" xlink:href="#m07ca741936" y="550.218393"/>
      </g>
     </g>
     <g id="text_29">
      <!-- 30 -->
      <defs>
       <path d="M 40.578125 39.3125 
Q 47.65625 37.796875 51.625 33 
Q 55.609375 28.21875 55.609375 21.1875 
Q 55.609375 10.40625 48.1875 4.484375 
Q 40.765625 -1.421875 27.09375 -1.421875 
Q 22.515625 -1.421875 17.65625 -0.515625 
Q 12.796875 0.390625 7.625 2.203125 
L 7.625 11.71875 
Q 11.71875 9.328125 16.59375 8.109375 
Q 21.484375 6.890625 26.8125 6.890625 
Q 36.078125 6.890625 40.9375 10.546875 
Q 45.796875 14.203125 45.796875 21.1875 
Q 45.796875 27.640625 41.28125 31.265625 
Q 36.765625 34.90625 28.71875 34.90625 
L 20.21875 34.90625 
L 20.21875 43.015625 
L 29.109375 43.015625 
Q 36.375 43.015625 40.234375 45.921875 
Q 44.09375 48.828125 44.09375 54.296875 
Q 44.09375 59.90625 40.109375 62.90625 
Q 36.140625 65.921875 28.71875 65.921875 
Q 24.65625 65.921875 20.015625 65.03125 
Q 15.375 64.15625 9.8125 62.3125 
L 9.8125 71.09375 
Q 15.4375 72.65625 20.34375 73.4375 
Q 25.25 74.21875 29.59375 74.21875 
Q 40.828125 74.21875 47.359375 69.109375 
Q 53.90625 64.015625 53.90625 55.328125 
Q 53.90625 49.265625 50.4375 45.09375 
Q 46.96875 40.921875 40.578125 39.3125 
z
" id="DejaVuSans-33"/>
      </defs>
      <g transform="translate(39.965625 554.017612)scale(0.1 -0.1)">
       <use xlink:href="#DejaVuSans-33"/>
       <use x="63.623047" xlink:href="#DejaVuSans-30"/>
      </g>
     </g>
    </g>
    <g id="ytick_11">
     <g id="line2d_34">
      <g>
       <use style="stroke:#000000;stroke-width:0.8;" x="59.690625" xlink:href="#m07ca741936" y="522.128101"/>
      </g>
     </g>
     <g id="text_30">
      <!-- 40 -->
      <g transform="translate(39.965625 525.92732)scale(0.1 -0.1)">
       <use xlink:href="#DejaVuSans-34"/>
       <use x="63.623047" xlink:href="#DejaVuSans-30"/>
      </g>
     </g>
    </g>
    <g id="text_31">
     <!-- Temperature -->
     <defs>
      <path d="M 18.109375 8.203125 
L 18.109375 -20.796875 
L 9.078125 -20.796875 
L 9.078125 54.6875 
L 18.109375 54.6875 
L 18.109375 46.390625 
Q 20.953125 51.265625 25.265625 53.625 
Q 29.59375 56 35.59375 56 
Q 45.5625 56 51.78125 48.09375 
Q 58.015625 40.1875 58.015625 27.296875 
Q 58.015625 14.40625 51.78125 6.484375 
Q 45.5625 -1.421875 35.59375 -1.421875 
Q 29.59375 -1.421875 25.265625 0.953125 
Q 20.953125 3.328125 18.109375 8.203125 
z
M 48.6875 27.296875 
Q 48.6875 37.203125 44.609375 42.84375 
Q 40.53125 48.484375 33.40625 48.484375 
Q 26.265625 48.484375 22.1875 42.84375 
Q 18.109375 37.203125 18.109375 27.296875 
Q 18.109375 17.390625 22.1875 11.75 
Q 26.265625 6.109375 33.40625 6.109375 
Q 40.53125 6.109375 44.609375 11.75 
Q 48.6875 17.390625 48.6875 27.296875 
z
" id="DejaVuSans-70"/>
     </defs>
     <g style="fill:#0000ff;" transform="translate(33.885938 613.557187)rotate(-90)scale(0.1 -0.1)">
      <use xlink:href="#DejaVuSans-54"/>
      <use x="60.818359" xlink:href="#DejaVuSans-65"/>
      <use x="122.341797" xlink:href="#DejaVuSans-6d"/>
      <use x="219.753906" xlink:href="#DejaVuSans-70"/>
      <use x="283.230469" xlink:href="#DejaVuSans-65"/>
      <use x="344.753906" xlink:href="#DejaVuSans-72"/>
      <use x="385.867188" xlink:href="#DejaVuSans-61"/>
      <use x="447.146484" xlink:href="#DejaVuSans-74"/>
      <use x="486.355469" xlink:href="#DejaVuSans-75"/>
      <use x="549.734375" xlink:href="#DejaVuSans-72"/>
      <use x="590.816406" xlink:href="#DejaVuSans-65"/>
     </g>
    </g>
   </g>
   <g id="line2d_35">
    <path clip-path="url(#p879df17584)" d="M 110.483352 530.336085 
L 115.463031 535.480821 
L 120.442711 536.222405 
L 125.42239 541.488773 
L 130.402069 558.506152 
L 135.381748 569.491142 
L 140.361427 579.952809 
L 145.341106 575.218752 
L 150.320785 557.837884 
L 155.300465 536.881403 
L 160.280144 525.995573 
L 165.259823 527.766666 
L 170.239502 533.054663 
L 175.219181 534.56564 
L 180.19886 537.571863 
L 185.178539 541.572763 
L 190.158219 559.39521 
L 195.137898 569.88581 
L 200.117577 580.794113 
L 205.097256 564.232639 
L 210.076935 550.221764 
L 215.056614 541.35422 
L 220.036293 522.974743 
L 225.015973 527.001205 
L 229.995652 534.50665 
L 234.975331 534.754968 
L 244.934689 536.901347 
L 249.914368 554.132775 
L 259.873727 576.053315 
L 264.853406 567.105433 
L 269.833085 549.936647 
L 274.812764 536.77466 
L 279.792443 522.030909 
L 284.772122 522.314621 
L 289.751801 527.563292 
L 294.731481 533.728549 
L 299.71116 539.205032 
L 304.690839 540.169934 
L 309.670518 556.748824 
L 314.650197 567.433247 
L 319.629876 576.989845 
L 324.609555 568.383822 
L 329.589235 555.271274 
L 334.568914 539.273011 
L 339.548593 528.933536 
L 344.528272 522.333442 
L 349.507951 531.890601 
L 354.48763 534.046531 
L 359.467309 538.036757 
L 364.446989 540.88427 
L 369.426668 559.134813 
L 374.406347 571.100154 
L 379.386026 577.960645 
L 384.365705 564.203987 
L 389.345384 544.093586 
L 394.325064 533.396803 
L 399.304743 525.782087 
L 404.284422 525.822818 
L 409.264101 529.176517 
L 414.24378 532.946515 
L 419.223459 535.752174 
L 424.203138 548.506009 
L 429.182818 555.698809 
L 434.162497 570.2125 
L 439.142176 581.993007 
L 444.121855 579.317687 
L 449.101534 559.089307 
L 454.081213 542.042994 
L 459.060892 534.189792 
L 464.040572 522.274733 
L 469.020251 531.595934 
L 473.99993 532.809716 
L 478.979609 535.354977 
L 483.959288 543.382901 
L 488.938967 558.954192 
L 493.918646 570.799868 
L 498.898326 578.980604 
L 503.878005 560.522473 
L 508.857684 547.799538 
L 513.837363 540.189316 
L 518.817042 523.233735 
L 523.796721 526.03827 
L 528.7764 528.583531 
L 533.75608 537.020731 
L 538.735759 538.028611 
L 543.715438 543.196382 
L 548.695117 562.732898 
L 553.674796 579.798874 
L 558.654475 579.569938 
L 563.634154 572.285283 
L 568.613834 563.441336 
L 573.593513 536.184483 
L 578.573192 530.329062 
L 583.552871 529.366127 
L 588.53255 532.37853 
L 593.512229 534.620978 
L 598.491908 538.066814 
L 603.471588 544.750618 
L 608.451267 555.896002 
L 613.430946 576.404162 
L 618.410625 588.908275 
L 623.390304 576.278037 
L 628.369983 549.33383 
L 633.349662 546.187436 
L 638.329342 530.693955 
L 643.309021 528.977638 
L 648.2887 531.200985 
L 653.268379 537.878609 
L 658.248058 538.676373 
L 663.227737 542.803399 
L 668.207416 559.927802 
L 673.187096 575.337293 
L 678.166775 581.910983 
L 683.146454 571.751286 
L 688.126133 557.735355 
L 693.105812 546.24783 
L 698.085491 529.076516 
L 703.06517 527.930713 
L 708.04485 529.822875 
L 713.024529 533.133316 
L 718.004208 536.852189 
L 722.983887 544.622526 
L 727.963566 562.556491 
L 732.943245 575.116784 
L 737.922924 578.139861 
L 742.902604 573.922666 
L 747.882283 548.666123 
L 752.861962 537.026068 
L 757.841641 527.573966 
L 762.82132 529.012751 
L 767.800999 531.845376 
L 772.780678 538.344627 
L 777.760358 540.851123 
L 782.740037 542.836826 
L 787.719716 557.665129 
L 792.699395 575.192909 
L 797.679074 582.203122 
L 802.658753 579.426678 
L 807.638432 556.27157 
L 812.618112 545.903162 
L 817.597791 525.949505 
L 822.57747 525.643601 
L 827.557149 531.760824 
L 832.536828 535.794871 
L 837.516507 541.344389 
L 842.496186 545.838274 
L 847.475866 558.315419 
L 852.455545 574.603575 
L 857.435224 584.740518 
L 862.414903 582.37981 
L 867.394582 559.64718 
L 872.374261 545.07815 
L 877.353941 531.560821 
L 882.33362 525.323091 
L 887.313299 527.55346 
L 897.272657 541.4163 
L 902.252336 547.08155 
L 907.232015 561.477543 
L 912.211695 577.18114 
L 917.191374 581.604799 
L 922.171053 577.328333 
L 927.150732 563.094701 
L 932.130411 544.897249 
L 937.11009 528.495609 
L 942.089769 525.249495 
L 947.069449 529.691693 
L 952.049128 538.301368 
L 957.028807 537.442928 
L 962.008486 544.090496 
L 966.988165 562.56548 
L 971.967844 575.974662 
L 976.947523 581.264345 
L 981.927203 577.087037 
L 986.906882 565.165799 
L 991.886561 545.124218 
L 996.86624 535.061153 
L 1001.845919 524.220547 
L 1006.825598 529.915854 
L 1016.784957 538.546596 
L 1021.764636 546.891098 
L 1026.744315 561.434284 
L 1031.723994 576.718774 
L 1036.703673 581.022206 
L 1041.683352 571.167289 
L 1046.663031 562.57166 
L 1051.642711 541.551133 
L 1056.62239 529.517534 
L 1061.602069 528.493642 
L 1066.581748 533.455792 
L 1076.541106 537.817653 
L 1081.520785 545.791082 
L 1086.500465 562.553963 
L 1091.480144 576.26961 
L 1096.459823 577.77244 
L 1101.439502 567.67061 
L 1106.419181 560.385674 
L 1111.39886 543.489644 
L 1116.378539 528.139705 
L 1121.358219 524.53263 
L 1126.337898 531.152388 
L 1126.337898 531.152388 
" style="fill:none;stroke:#ff0000;stroke-linecap:square;stroke-width:1.5;"/>
   </g>
   <g id="line2d_36">
    <path clip-path="url(#p879df17584)" d="M 110.483352 544.634605 
L 115.463031 548.327635 
L 120.442711 550.383564 
L 125.42239 560.9104 
L 130.402069 577.997444 
L 135.381748 592.961985 
L 140.361427 597.620759 
L 145.341106 592.759454 
L 150.320785 578.054186 
L 155.300465 557.351922 
L 160.280144 543.821953 
L 165.259823 545.657934 
L 170.239502 548.908823 
L 175.219181 551.177114 
L 180.19886 555.846002 
L 185.178539 564.129267 
L 190.158219 579.523308 
L 195.137898 593.114515 
L 200.117577 601.529804 
L 205.097256 589.709129 
L 210.076935 574.965097 
L 215.056614 561.191584 
L 220.036293 544.858765 
L 225.015973 543.745828 
L 229.995652 549.183546 
L 234.975331 549.041971 
L 239.95501 553.841479 
L 244.934689 561.579511 
L 249.914368 578.651105 
L 254.894047 589.364461 
L 259.873727 598.77527 
L 264.853406 593.43334 
L 269.833085 574.832511 
L 274.812764 559.619932 
L 279.792443 545.272816 
L 284.772122 541.942431 
L 289.751801 544.459602 
L 294.731481 548.279039 
L 299.71116 556.137298 
L 304.690839 562.880653 
L 309.670518 579.29044 
L 314.650197 590.395375 
L 319.629876 598.091834 
L 324.609555 590.210821 
L 334.568914 559.589033 
L 339.548593 549.872601 
L 344.528272 541.289894 
L 349.507951 546.004568 
L 354.48763 548.785507 
L 359.467309 554.224068 
L 364.446989 565.290239 
L 369.426668 584.23405 
L 374.406347 594.629986 
L 379.386026 598.331163 
L 384.365705 587.216958 
L 389.345384 569.729909 
L 394.325064 556.720733 
L 399.304743 547.851786 
L 404.284422 544.380949 
L 409.264101 545.29585 
L 414.24378 548.407693 
L 419.223459 553.239785 
L 424.203138 568.01921 
L 429.182818 578.523294 
L 434.162497 592.72406 
L 439.142176 601.690481 
L 444.121855 595.822419 
L 449.101534 576.472703 
L 454.081213 563.154253 
L 459.060892 553.850748 
L 464.040572 541.398041 
L 469.020251 546.691657 
L 473.99993 548.261342 
L 478.979609 552.315333 
L 483.959288 564.684893 
L 488.938967 581.529798 
L 493.918646 591.771237 
L 498.898326 599.399718 
L 508.857684 579.745222 
L 513.837363 573.543447 
L 518.817042 544.294712 
L 523.796721 544.518311 
L 528.7764 544.249487 
L 533.75608 551.306892 
L 538.735759 555.461446 
L 543.715438 563.192737 
L 548.695117 582.099469 
L 553.674796 597.831437 
L 558.654475 599.551124 
L 563.634154 590.203799 
L 568.613834 579.873594 
L 573.593513 558.306149 
L 578.573192 550.393395 
L 583.552871 546.411035 
L 588.53255 547.860213 
L 593.512229 549.793387 
L 598.491908 555.562571 
L 603.471588 569.184115 
L 608.451267 579.864324 
L 613.430946 597.97245 
L 618.410625 606.58263 
L 623.390304 597.270754 
L 628.369983 571.796512 
L 633.349662 565.721986 
L 638.329342 550.099571 
L 643.309021 545.53237 
L 648.2887 547.906843 
L 653.268379 553.083883 
L 658.248058 556.431403 
L 663.227737 563.503134 
L 668.207416 583.463253 
L 673.187096 594.211441 
L 678.166775 598.706168 
L 683.146454 590.191439 
L 688.126133 577.53592 
L 693.105812 566.078171 
L 698.085491 549.077084 
L 703.06517 546.625364 
L 708.04485 546.175357 
L 713.024529 548.812755 
L 718.004208 554.761997 
L 722.983887 567.932411 
L 727.963566 585.006252 
L 732.943245 595.812868 
L 737.922924 597.402217 
L 742.902604 591.243982 
L 747.882283 569.758842 
L 752.861962 557.667938 
L 757.841641 548.320332 
L 762.82132 547.274249 
L 767.800999 547.764425 
L 772.780678 552.562528 
L 777.760358 557.775524 
L 782.740037 563.562124 
L 787.719716 582.146942 
L 792.699395 598.620212 
L 797.679074 602.694709 
L 802.658753 593.738119 
L 807.638432 576.567086 
L 812.618112 565.931259 
L 817.597791 546.990818 
L 822.57747 543.562679 
L 827.557149 547.770324 
L 832.536828 551.101832 
L 837.516507 556.710902 
L 842.496186 567.02369 
L 847.475866 577.85334 
L 852.455545 597.426936 
L 857.435224 603.574497 
L 862.414903 599.23258 
L 867.394582 579.927528 
L 872.374261 564.80849 
L 877.353941 551.426275 
L 882.33362 544.777865 
L 887.313299 545.371694 
L 892.292978 550.004064 
L 897.272657 556.964557 
L 902.252336 567.946737 
L 912.211695 595.584213 
L 917.191374 600.933728 
L 922.171053 595.517639 
L 927.150732 581.892443 
L 932.130411 564.973661 
L 937.11009 549.559395 
L 942.089769 544.495277 
L 947.069449 545.682934 
L 952.049128 552.275445 
L 957.028807 554.061987 
L 962.008486 562.09862 
L 966.988165 582.839648 
L 971.967844 595.851633 
L 976.947523 600.304225 
L 981.927203 595.092352 
L 986.906882 582.624476 
L 991.886561 565.031808 
L 996.86624 554.476319 
L 1001.845919 542.30929 
L 1006.825598 545.362424 
L 1011.805277 549.098152 
L 1016.784957 554.310025 
L 1021.764636 565.209058 
L 1031.723994 597.884246 
L 1036.703673 599.438201 
L 1041.683352 592.298773 
L 1046.663031 580.035113 
L 1051.642711 561.714906 
L 1056.62239 549.643104 
L 1061.602069 545.958219 
L 1066.581748 548.332411 
L 1071.561427 550.305473 
L 1076.541106 555.774091 
L 1081.520785 564.202583 
L 1086.500465 580.971925 
L 1091.480144 595.738148 
L 1096.459823 596.128041 
L 1101.439502 588.750688 
L 1106.419181 577.13451 
L 1111.39886 561.69131 
L 1116.378539 547.434083 
L 1121.358219 543.212112 
L 1126.337898 546.399237 
L 1126.337898 546.399237 
" style="fill:none;stroke:#008000;stroke-linecap:square;stroke-width:1.5;"/>
   </g>
   <g id="line2d_37">
    <path clip-path="url(#p879df17584)" d="M 110.483352 559.168521 
L 115.463031 562.68346 
L 120.442711 566.537728 
L 125.42239 582.352001 
L 135.381748 616.050294 
L 140.361427 619.092276 
L 145.341106 615.651215 
L 150.320785 601.430365 
L 155.300465 580.321915 
L 160.280144 564.195279 
L 165.259823 564.66832 
L 170.239502 562.141598 
L 175.219181 565.263272 
L 180.19886 573.661707 
L 185.178539 587.089428 
L 190.158219 601.851438 
L 195.137898 615.294328 
L 200.117577 615.021993 
L 205.097256 610.284453 
L 210.076935 595.145162 
L 215.056614 582.163234 
L 220.036293 563.556787 
L 225.015973 559.484818 
L 229.995652 558.521602 
L 234.975331 560.317414 
L 239.95501 568.318091 
L 244.934689 578.733128 
L 249.914368 598.89971 
L 254.894047 604.715243 
L 259.873727 615.238119 
L 264.853406 607.659471 
L 269.833085 591.323759 
L 274.812764 577.423559 
L 279.792443 562.54048 
L 284.772122 557.707264 
L 289.751801 557.524397 
L 294.731481 561.613219 
L 299.71116 570.982736 
L 304.690839 582.807906 
L 309.670518 598.949992 
L 314.650197 607.995571 
L 319.629876 616.488081 
L 324.609555 604.211865 
L 329.589235 594.255542 
L 334.568914 582.485149 
L 339.548593 571.134424 
L 344.528272 561.155067 
L 349.507951 560.508709 
L 354.48763 563.250041 
L 359.467309 570.32121 
L 364.446989 588.388042 
L 369.426668 605.747842 
L 374.406347 614.759938 
L 379.386026 614.893002 
L 384.365705 608.864854 
L 389.345384 594.049922 
L 394.325064 576.802483 
L 399.304743 567.991963 
L 404.284422 561.741873 
L 409.264101 561.195798 
L 414.24378 563.157062 
L 419.223459 570.375424 
L 424.203138 586.909931 
L 429.182818 600.070514 
L 434.162497 611.158931 
L 439.142176 618.836907 
L 444.121855 610.423134 
L 449.101534 592.852432 
L 454.081213 585.480978 
L 459.060892 572.182192 
L 464.040572 560.420787 
L 469.020251 559.95505 
L 473.99993 563.369986 
L 478.979609 568.457138 
L 483.959288 586.608242 
L 488.938967 602.30004 
L 493.918646 620.22541 
L 498.898326 620.363137 
L 503.878005 601.007606 
L 508.857684 590.452117 
L 513.837363 583.47477 
L 518.817042 565.733222 
L 523.796721 563.65735 
L 528.7764 560.019657 
L 533.75608 565.582659 
L 538.735759 572.540624 
L 543.715438 581.627271 
L 548.695117 599.18595 
L 553.674796 615.480988 
L 558.654475 622.665389 
L 563.634154 608.689402 
L 568.613834 601.076146 
L 573.593513 581.304795 
L 578.573192 571.476563 
L 583.552871 567.171165 
L 588.53255 563.661002 
L 593.512229 565.241642 
L 598.491908 573.035575 
L 603.471588 592.704958 
L 608.451267 602.730102 
L 613.430946 619.14781 
L 618.410625 625.803945 
L 623.390304 620.708507 
L 628.369983 596.142929 
L 633.349662 587.399826 
L 638.329342 571.686679 
L 643.309021 563.080656 
L 648.2887 562.53121 
L 653.268379 567.601508 
L 658.248058 574.445707 
L 663.227737 584.349782 
L 668.207416 605.715258 
L 673.187096 612.940165 
L 678.166775 615.495426 
L 683.146454 609.492278 
L 688.126133 597.033672 
L 693.105812 587.039428 
L 698.085491 570.904926 
L 703.06517 566.530706 
L 708.04485 563.61381 
L 713.024529 564.028985 
L 718.004208 572.744278 
L 727.963566 606.472881 
L 732.943245 615.881443 
L 737.922924 618.640303 
L 742.902604 612.108496 
L 747.882283 591.981072 
L 752.861962 579.922752 
L 757.841641 568.791693 
L 762.82132 565.298666 
L 767.800999 562.924193 
L 772.780678 565.673671 
L 782.740037 583.426454 
L 787.719716 603.694161 
L 792.699395 621.429163 
L 797.679074 622.60522 
L 802.658753 615.853746 
L 807.638432 596.777489 
L 812.618112 586.980157 
L 817.597791 568.79366 
L 822.57747 561.997214 
L 827.557149 563.602855 
L 832.536828 564.266067 
L 837.516507 571.072625 
L 842.496186 585.672273 
L 847.475866 596.708668 
L 852.455545 619.136855 
L 857.435224 623.425765 
L 862.414903 621.047725 
L 867.394582 602.702012 
L 872.374261 585.025635 
L 877.353941 573.678 
L 882.33362 565.171978 
L 887.313299 562.348904 
L 892.292978 565.524512 
L 897.272657 572.563096 
L 902.252336 590.032448 
L 907.232015 603.721971 
L 912.211695 616.714798 
L 917.191374 622.148275 
L 922.171053 611.621522 
L 927.150732 603.348932 
L 932.130411 586.087448 
L 937.11009 571.268976 
L 942.089769 562.722224 
L 947.069449 561.733446 
L 952.049128 564.5627 
L 957.028807 568.642534 
L 962.008486 578.870771 
L 966.988165 602.391614 
L 971.967844 613.792677 
L 976.947523 620.593 
L 981.927203 613.046655 
L 986.906882 600.666028 
L 991.886561 584.452874 
L 1001.845919 560.297189 
L 1006.825598 560.702251 
L 1011.805277 564.635454 
L 1016.784957 569.747606 
L 1021.764636 583.201732 
L 1026.744315 601.094405 
L 1031.723994 616.714011 
L 1036.703673 617.084522 
L 1041.683352 605.495311 
L 1046.663031 597.215978 
L 1051.642711 580.391579 
L 1056.62239 568.625961 
L 1061.602069 563.643867 
L 1066.581748 561.746929 
L 1071.561427 564.775905 
L 1076.541106 572.556354 
L 1081.520785 582.510149 
L 1086.500465 600.620241 
L 1091.480144 615.146152 
L 1096.459823 614.291448 
L 1101.439502 612.191727 
L 1106.419181 593.265641 
L 1111.39886 582.216605 
L 1116.378539 567.562462 
L 1121.358219 559.178634 
L 1126.337898 560.444102 
L 1126.337898 560.444102 
" style="fill:none;stroke:#0000ff;stroke-linecap:square;stroke-width:1.5;"/>
   </g>
   <g id="line2d_38">
    <defs>
     <path d="M 0 3 
C 0.795609 3 1.55874 2.683901 2.12132 2.12132 
C 2.683901 1.55874 3 0.795609 3 0 
C 3 -0.795609 2.683901 -1.55874 2.12132 -2.12132 
C 1.55874 -2.683901 0.795609 -3 0 -3 
C -0.795609 -3 -1.55874 -2.683901 -2.12132 -2.12132 
C -2.683901 -1.55874 -3 -0.795609 -3 0 
C -3 0.795609 -2.683901 1.55874 -2.12132 2.12132 
C -1.55874 2.683901 -0.795609 3 0 3 
z
" id="m906a283477" style="stroke:#ff0000;"/>
    </defs>
    <g clip-path="url(#p879df17584)">
     <use style="fill:#ff0000;stroke:#ff0000;" x="110.483352" xlink:href="#m906a283477" y="639.849091"/>
     <use style="fill:#ff0000;stroke:#ff0000;" x="115.463031" xlink:href="#m906a283477" y="639.849091"/>
     <use style="fill:#ff0000;stroke:#ff0000;" x="130.402069" xlink:href="#m906a283477" y="639.849091"/>
     <use style="fill:#ff0000;stroke:#ff0000;" x="135.381748" xlink:href="#m906a283477" y="639.849091"/>
     <use style="fill:#ff0000;stroke:#ff0000;" x="140.361427" xlink:href="#m906a283477" y="639.849091"/>
     <use style="fill:#ff0000;stroke:#ff0000;" x="145.341106" xlink:href="#m906a283477" y="639.849091"/>
     <use style="fill:#ff0000;stroke:#ff0000;" x="150.320785" xlink:href="#m906a283477" y="639.849091"/>
     <use style="fill:#ff0000;stroke:#ff0000;" x="155.300465" xlink:href="#m906a283477" y="639.849091"/>
     <use style="fill:#ff0000;stroke:#ff0000;" x="160.280144" xlink:href="#m906a283477" y="639.849091"/>
     <use style="fill:#ff0000;stroke:#ff0000;" x="165.259823" xlink:href="#m906a283477" y="639.849091"/>
     <use style="fill:#ff0000;stroke:#ff0000;" x="170.239502" xlink:href="#m906a283477" y="639.849091"/>
     <use style="fill:#ff0000;stroke:#ff0000;" x="175.219181" xlink:href="#m906a283477" y="639.849091"/>
     <use style="fill:#ff0000;stroke:#ff0000;" x="180.19886" xlink:href="#m906a283477" y="639.849091"/>
     <use style="fill:#ff0000;stroke:#ff0000;" x="185.178539" xlink:href="#m906a283477" y="639.849091"/>
     <use style="fill:#ff0000;stroke:#ff0000;" x="190.158219" xlink:href="#m906a283477" y="639.849091"/>
     <use style="fill:#ff0000;stroke:#ff0000;" x="195.137898" xlink:href="#m906a283477" y="639.849091"/>
     <use style="fill:#ff0000;stroke:#ff0000;" x="200.117577" xlink:href="#m906a283477" y="639.849091"/>
     <use style="fill:#ff0000;stroke:#ff0000;" x="205.097256" xlink:href="#m906a283477" y="639.849091"/>
     <use style="fill:#ff0000;stroke:#ff0000;" x="210.076935" xlink:href="#m906a283477" y="639.849091"/>
     <use style="fill:#ff0000;stroke:#ff0000;" x="215.056614" xlink:href="#m906a283477" y="639.849091"/>
     <use style="fill:#ff0000;stroke:#ff0000;" x="220.036293" xlink:href="#m906a283477" y="639.849091"/>
     <use style="fill:#ff0000;stroke:#ff0000;" x="225.015973" xlink:href="#m906a283477" y="639.849091"/>
     <use style="fill:#ff0000;stroke:#ff0000;" x="229.995652" xlink:href="#m906a283477" y="639.849091"/>
     <use style="fill:#ff0000;stroke:#ff0000;" x="234.975331" xlink:href="#m906a283477" y="639.849091"/>
     <use style="fill:#ff0000;stroke:#ff0000;" x="239.95501" xlink:href="#m906a283477" y="639.849091"/>
     <use style="fill:#ff0000;stroke:#ff0000;" x="244.934689" xlink:href="#m906a283477" y="639.849091"/>
     <use style="fill:#ff0000;stroke:#ff0000;" x="249.914368" xlink:href="#m906a283477" y="639.849091"/>
     <use style="fill:#ff0000;stroke:#ff0000;" x="254.894047" xlink:href="#m906a283477" y="639.849091"/>
     <use style="fill:#ff0000;stroke:#ff0000;" x="259.873727" xlink:href="#m906a283477" y="639.849091"/>
     <use style="fill:#ff0000;stroke:#ff0000;" x="264.853406" xlink:href="#m906a283477" y="639.849091"/>
     <use style="fill:#ff0000;stroke:#ff0000;" x="269.833085" xlink:href="#m906a283477" y="639.849091"/>
     <use style="fill:#ff0000;stroke:#ff0000;" x="274.812764" xlink:href="#m906a283477" y="639.849091"/>
     <use style="fill:#ff0000;stroke:#ff0000;" x="279.792443" xlink:href="#m906a283477" y="639.849091"/>
     <use style="fill:#ff0000;stroke:#ff0000;" x="284.772122" xlink:href="#m906a283477" y="639.849091"/>
     <use style="fill:#ff0000;stroke:#ff0000;" x="289.751801" xlink:href="#m906a283477" y="639.849091"/>
     <use style="fill:#ff0000;stroke:#ff0000;" x="294.731481" xlink:href="#m906a283477" y="639.849091"/>
     <use style="fill:#ff0000;stroke:#ff0000;" x="299.71116" xlink:href="#m906a283477" y="639.849091"/>
     <use style="fill:#ff0000;stroke:#ff0000;" x="304.690839" xlink:href="#m906a283477" y="639.849091"/>
     <use style="fill:#ff0000;stroke:#ff0000;" x="309.670518" xlink:href="#m906a283477" y="639.849091"/>
     <use style="fill:#ff0000;stroke:#ff0000;" x="314.650197" xlink:href="#m906a283477" y="639.849091"/>
     <use style="fill:#ff0000;stroke:#ff0000;" x="319.629876" xlink:href="#m906a283477" y="639.849091"/>
     <use style="fill:#ff0000;stroke:#ff0000;" x="324.609555" xlink:href="#m906a283477" y="639.849091"/>
     <use style="fill:#ff0000;stroke:#ff0000;" x="329.589235" xlink:href="#m906a283477" y="639.849091"/>
     <use style="fill:#ff0000;stroke:#ff0000;" x="334.568914" xlink:href="#m906a283477" y="639.849091"/>
     <use style="fill:#ff0000;stroke:#ff0000;" x="339.548593" xlink:href="#m906a283477" y="639.849091"/>
     <use style="fill:#ff0000;stroke:#ff0000;" x="344.528272" xlink:href="#m906a283477" y="639.849091"/>
     <use style="fill:#ff0000;stroke:#ff0000;" x="349.507951" xlink:href="#m906a283477" y="639.849091"/>
     <use style="fill:#ff0000;stroke:#ff0000;" x="354.48763" xlink:href="#m906a283477" y="639.849091"/>
     <use style="fill:#ff0000;stroke:#ff0000;" x="359.467309" xlink:href="#m906a283477" y="639.849091"/>
     <use style="fill:#ff0000;stroke:#ff0000;" x="364.446989" xlink:href="#m906a283477" y="639.849091"/>
     <use style="fill:#ff0000;stroke:#ff0000;" x="369.426668" xlink:href="#m906a283477" y="639.849091"/>
     <use style="fill:#ff0000;stroke:#ff0000;" x="374.406347" xlink:href="#m906a283477" y="639.849091"/>
     <use style="fill:#ff0000;stroke:#ff0000;" x="384.365705" xlink:href="#m906a283477" y="639.849091"/>
     <use style="fill:#ff0000;stroke:#ff0000;" x="409.264101" xlink:href="#m906a283477" y="639.849091"/>
     <use style="fill:#ff0000;stroke:#ff0000;" x="414.24378" xlink:href="#m906a283477" y="639.849091"/>
     <use style="fill:#ff0000;stroke:#ff0000;" x="419.223459" xlink:href="#m906a283477" y="639.849091"/>
     <use style="fill:#ff0000;stroke:#ff0000;" x="439.142176" xlink:href="#m906a283477" y="639.849091"/>
     <use style="fill:#ff0000;stroke:#ff0000;" x="444.121855" xlink:href="#m906a283477" y="639.849091"/>
     <use style="fill:#ff0000;stroke:#ff0000;" x="449.101534" xlink:href="#m906a283477" y="639.849091"/>
     <use style="fill:#ff0000;stroke:#ff0000;" x="464.040572" xlink:href="#m906a283477" y="639.849091"/>
     <use style="fill:#ff0000;stroke:#ff0000;" x="469.020251" xlink:href="#m906a283477" y="639.849091"/>
     <use style="fill:#ff0000;stroke:#ff0000;" x="473.99993" xlink:href="#m906a283477" y="639.849091"/>
     <use style="fill:#ff0000;stroke:#ff0000;" x="483.959288" xlink:href="#m906a283477" y="639.849091"/>
     <use style="fill:#ff0000;stroke:#ff0000;" x="493.918646" xlink:href="#m906a283477" y="639.849091"/>
     <use style="fill:#ff0000;stroke:#ff0000;" x="518.817042" xlink:href="#m906a283477" y="639.849091"/>
     <use style="fill:#ff0000;stroke:#ff0000;" x="528.7764" xlink:href="#m906a283477" y="639.849091"/>
     <use style="fill:#ff0000;stroke:#ff0000;" x="533.75608" xlink:href="#m906a283477" y="639.849091"/>
     <use style="fill:#ff0000;stroke:#ff0000;" x="538.735759" xlink:href="#m906a283477" y="639.849091"/>
     <use style="fill:#ff0000;stroke:#ff0000;" x="553.674796" xlink:href="#m906a283477" y="639.849091"/>
     <use style="fill:#ff0000;stroke:#ff0000;" x="558.654475" xlink:href="#m906a283477" y="639.849091"/>
     <use style="fill:#ff0000;stroke:#ff0000;" x="568.613834" xlink:href="#m906a283477" y="639.849091"/>
     <use style="fill:#ff0000;stroke:#ff0000;" x="573.593513" xlink:href="#m906a283477" y="639.849091"/>
     <use style="fill:#ff0000;stroke:#ff0000;" x="583.552871" xlink:href="#m906a283477" y="639.849091"/>
     <use style="fill:#ff0000;stroke:#ff0000;" x="588.53255" xlink:href="#m906a283477" y="639.849091"/>
     <use style="fill:#ff0000;stroke:#ff0000;" x="593.512229" xlink:href="#m906a283477" y="639.849091"/>
     <use style="fill:#ff0000;stroke:#ff0000;" x="638.329342" xlink:href="#m906a283477" y="639.849091"/>
     <use style="fill:#ff0000;stroke:#ff0000;" x="653.268379" xlink:href="#m906a283477" y="639.849091"/>
     <use style="fill:#ff0000;stroke:#ff0000;" x="663.227737" xlink:href="#m906a283477" y="639.849091"/>
     <use style="fill:#ff0000;stroke:#ff0000;" x="693.105812" xlink:href="#m906a283477" y="639.849091"/>
     <use style="fill:#ff0000;stroke:#ff0000;" x="708.04485" xlink:href="#m906a283477" y="639.849091"/>
     <use style="fill:#ff0000;stroke:#ff0000;" x="713.024529" xlink:href="#m906a283477" y="639.849091"/>
     <use style="fill:#ff0000;stroke:#ff0000;" x="737.922924" xlink:href="#m906a283477" y="639.849091"/>
     <use style="fill:#ff0000;stroke:#ff0000;" x="742.902604" xlink:href="#m906a283477" y="639.849091"/>
     <use style="fill:#ff0000;stroke:#ff0000;" x="762.82132" xlink:href="#m906a283477" y="639.849091"/>
     <use style="fill:#ff0000;stroke:#ff0000;" x="767.800999" xlink:href="#m906a283477" y="639.849091"/>
     <use style="fill:#ff0000;stroke:#ff0000;" x="772.780678" xlink:href="#m906a283477" y="639.849091"/>
     <use style="fill:#ff0000;stroke:#ff0000;" x="797.679074" xlink:href="#m906a283477" y="639.849091"/>
     <use style="fill:#ff0000;stroke:#ff0000;" x="832.536828" xlink:href="#m906a283477" y="639.849091"/>
     <use style="fill:#ff0000;stroke:#ff0000;" x="837.516507" xlink:href="#m906a283477" y="639.849091"/>
     <use style="fill:#ff0000;stroke:#ff0000;" x="842.496186" xlink:href="#m906a283477" y="639.849091"/>
     <use style="fill:#ff0000;stroke:#ff0000;" x="847.475866" xlink:href="#m906a283477" y="639.849091"/>
     <use style="fill:#ff0000;stroke:#ff0000;" x="872.374261" xlink:href="#m906a283477" y="639.849091"/>
     <use style="fill:#ff0000;stroke:#ff0000;" x="892.292978" xlink:href="#m906a283477" y="639.849091"/>
     <use style="fill:#ff0000;stroke:#ff0000;" x="897.272657" xlink:href="#m906a283477" y="639.849091"/>
     <use style="fill:#ff0000;stroke:#ff0000;" x="902.252336" xlink:href="#m906a283477" y="639.849091"/>
     <use style="fill:#ff0000;stroke:#ff0000;" x="907.232015" xlink:href="#m906a283477" y="639.849091"/>
     <use style="fill:#ff0000;stroke:#ff0000;" x="922.171053" xlink:href="#m906a283477" y="639.849091"/>
     <use style="fill:#ff0000;stroke:#ff0000;" x="932.130411" xlink:href="#m906a283477" y="639.849091"/>
     <use style="fill:#ff0000;stroke:#ff0000;" x="952.049128" xlink:href="#m906a283477" y="639.849091"/>
     <use style="fill:#ff0000;stroke:#ff0000;" x="957.028807" xlink:href="#m906a283477" y="639.849091"/>
     <use style="fill:#ff0000;stroke:#ff0000;" x="976.947523" xlink:href="#m906a283477" y="639.849091"/>
     <use style="fill:#ff0000;stroke:#ff0000;" x="981.927203" xlink:href="#m906a283477" y="639.849091"/>
     <use style="fill:#ff0000;stroke:#ff0000;" x="986.906882" xlink:href="#m906a283477" y="639.849091"/>
     <use style="fill:#ff0000;stroke:#ff0000;" x="991.886561" xlink:href="#m906a283477" y="639.849091"/>
     <use style="fill:#ff0000;stroke:#ff0000;" x="1011.805277" xlink:href="#m906a283477" y="639.849091"/>
     <use style="fill:#ff0000;stroke:#ff0000;" x="1016.784957" xlink:href="#m906a283477" y="639.849091"/>
     <use style="fill:#ff0000;stroke:#ff0000;" x="1021.764636" xlink:href="#m906a283477" y="639.849091"/>
     <use style="fill:#ff0000;stroke:#ff0000;" x="1041.683352" xlink:href="#m906a283477" y="639.849091"/>
     <use style="fill:#ff0000;stroke:#ff0000;" x="1046.663031" xlink:href="#m906a283477" y="639.849091"/>
     <use style="fill:#ff0000;stroke:#ff0000;" x="1051.642711" xlink:href="#m906a283477" y="639.849091"/>
     <use style="fill:#ff0000;stroke:#ff0000;" x="1061.602069" xlink:href="#m906a283477" y="639.849091"/>
     <use style="fill:#ff0000;stroke:#ff0000;" x="1066.581748" xlink:href="#m906a283477" y="639.849091"/>
     <use style="fill:#ff0000;stroke:#ff0000;" x="1071.561427" xlink:href="#m906a283477" y="639.849091"/>
     <use style="fill:#ff0000;stroke:#ff0000;" x="1081.520785" xlink:href="#m906a283477" y="639.849091"/>
     <use style="fill:#ff0000;stroke:#ff0000;" x="1091.480144" xlink:href="#m906a283477" y="639.849091"/>
     <use style="fill:#ff0000;stroke:#ff0000;" x="1106.419181" xlink:href="#m906a283477" y="639.849091"/>
     <use style="fill:#ff0000;stroke:#ff0000;" x="1111.39886" xlink:href="#m906a283477" y="639.849091"/>
     <use style="fill:#ff0000;stroke:#ff0000;" x="1121.358219" xlink:href="#m906a283477" y="639.849091"/>
     <use style="fill:#ff0000;stroke:#ff0000;" x="1126.337898" xlink:href="#m906a283477" y="639.849091"/>
    </g>
   </g>
   <g id="patch_9">
    <path d="M 59.690625 645.74 
L 59.690625 516.14 
" style="fill:none;stroke:#000000;stroke-linecap:square;stroke-linejoin:miter;stroke-width:0.8;"/>
   </g>
   <g id="patch_10">
    <path d="M 1177.130625 645.74 
L 1177.130625 516.14 
" style="fill:none;stroke:#000000;stroke-linecap:square;stroke-linejoin:miter;stroke-width:0.8;"/>
   </g>
   <g id="patch_11">
    <path d="M 59.690625 645.74 
L 1177.130625 645.74 
" style="fill:none;stroke:#000000;stroke-linecap:square;stroke-linejoin:miter;stroke-width:0.8;"/>
   </g>
   <g id="patch_12">
    <path d="M 59.690625 516.14 
L 1177.130625 516.14 
" style="fill:none;stroke:#000000;stroke-linecap:square;stroke-linejoin:miter;stroke-width:0.8;"/>
   </g>
   <g id="legend_2">
    <g id="patch_13">
     <path d="M 66.690625 582.8525 
L 157.703125 582.8525 
Q 159.703125 582.8525 159.703125 580.8525 
L 159.703125 523.14 
Q 159.703125 521.14 157.703125 521.14 
L 66.690625 521.14 
Q 64.690625 521.14 64.690625 523.14 
L 64.690625 580.8525 
Q 64.690625 582.8525 66.690625 582.8525 
z
" style="fill:#ffffff;opacity:0.8;stroke:#cccccc;stroke-linejoin:miter;"/>
    </g>
    <g id="line2d_39">
     <path d="M 68.690625 529.238437 
L 88.690625 529.238437 
" style="fill:none;stroke:#ff0000;stroke-linecap:square;stroke-width:1.5;"/>
    </g>
    <g id="line2d_40"/>
    <g id="text_32">
     <!-- Maxmimum -->
     <defs>
      <path d="M 9.8125 72.90625 
L 24.515625 72.90625 
L 43.109375 23.296875 
L 61.8125 72.90625 
L 76.515625 72.90625 
L 76.515625 0 
L 66.890625 0 
L 66.890625 64.015625 
L 48.09375 14.015625 
L 38.1875 14.015625 
L 19.390625 64.015625 
L 19.390625 0 
L 9.8125 0 
z
" id="DejaVuSans-4d"/>
      <path d="M 54.890625 54.6875 
L 35.109375 28.078125 
L 55.90625 0 
L 45.3125 0 
L 29.390625 21.484375 
L 13.484375 0 
L 2.875 0 
L 24.125 28.609375 
L 4.6875 54.6875 
L 15.28125 54.6875 
L 29.78125 35.203125 
L 44.28125 54.6875 
z
" id="DejaVuSans-78"/>
     </defs>
     <g transform="translate(96.690625 532.738437)scale(0.1 -0.1)">
      <use xlink:href="#DejaVuSans-4d"/>
      <use x="86.279297" xlink:href="#DejaVuSans-61"/>
      <use x="147.558594" xlink:href="#DejaVuSans-78"/>
      <use x="206.738281" xlink:href="#DejaVuSans-6d"/>
      <use x="304.150391" xlink:href="#DejaVuSans-69"/>
      <use x="331.933594" xlink:href="#DejaVuSans-6d"/>
      <use x="429.345703" xlink:href="#DejaVuSans-75"/>
      <use x="492.724609" xlink:href="#DejaVuSans-6d"/>
     </g>
    </g>
    <g id="line2d_41">
     <path d="M 68.690625 543.916562 
L 88.690625 543.916562 
" style="fill:none;stroke:#008000;stroke-linecap:square;stroke-width:1.5;"/>
    </g>
    <g id="line2d_42"/>
    <g id="text_33">
     <!-- Average -->
     <defs>
      <path d="M 34.1875 63.1875 
L 20.796875 26.90625 
L 47.609375 26.90625 
z
M 28.609375 72.90625 
L 39.796875 72.90625 
L 67.578125 0 
L 57.328125 0 
L 50.6875 18.703125 
L 17.828125 18.703125 
L 11.1875 0 
L 0.78125 0 
z
" id="DejaVuSans-41"/>
      <path d="M 2.984375 54.6875 
L 12.5 54.6875 
L 29.59375 8.796875 
L 46.6875 54.6875 
L 56.203125 54.6875 
L 35.6875 0 
L 23.484375 0 
z
" id="DejaVuSans-76"/>
     </defs>
     <g transform="translate(96.690625 547.416562)scale(0.1 -0.1)">
      <use xlink:href="#DejaVuSans-41"/>
      <use x="68.330078" xlink:href="#DejaVuSans-76"/>
      <use x="127.509766" xlink:href="#DejaVuSans-65"/>
      <use x="189.033203" xlink:href="#DejaVuSans-72"/>
      <use x="230.146484" xlink:href="#DejaVuSans-61"/>
      <use x="291.425781" xlink:href="#DejaVuSans-67"/>
      <use x="354.902344" xlink:href="#DejaVuSans-65"/>
     </g>
    </g>
    <g id="line2d_43">
     <path d="M 68.690625 558.594687 
L 88.690625 558.594687 
" style="fill:none;stroke:#0000ff;stroke-linecap:square;stroke-width:1.5;"/>
    </g>
    <g id="line2d_44"/>
    <g id="text_34">
     <!-- Minimum -->
     <g transform="translate(96.690625 562.094687)scale(0.1 -0.1)">
      <use xlink:href="#DejaVuSans-4d"/>
      <use x="86.279297" xlink:href="#DejaVuSans-69"/>
      <use x="114.0625" xlink:href="#DejaVuSans-6e"/>
      <use x="177.441406" xlink:href="#DejaVuSans-69"/>
      <use x="205.224609" xlink:href="#DejaVuSans-6d"/>
      <use x="302.636719" xlink:href="#DejaVuSans-75"/>
      <use x="366.015625" xlink:href="#DejaVuSans-6d"/>
     </g>
    </g>
    <g id="line2d_45"/>
    <g id="line2d_46">
     <g>
      <use style="fill:#ff0000;stroke:#ff0000;" x="78.690625" xlink:href="#m906a283477" y="573.272812"/>
     </g>
    </g>
    <g id="text_35">
     <!-- Disasters -->
     <g transform="translate(96.690625 576.772812)scale(0.1 -0.1)">
      <use xlink:href="#DejaVuSans-44"/>
      <use x="77.001953" xlink:href="#DejaVuSans-69"/>
      <use x="104.785156" xlink:href="#DejaVuSans-73"/>
      <use x="156.884766" xlink:href="#DejaVuSans-61"/>
      <use x="218.164062" xlink:href="#DejaVuSans-73"/>
      <use x="270.263672" xlink:href="#DejaVuSans-74"/>
      <use x="309.472656" xlink:href="#DejaVuSans-65"/>
      <use x="370.996094" xlink:href="#DejaVuSans-72"/>
      <use x="412.109375" xlink:href="#DejaVuSans-73"/>
     </g>
    </g>
   </g>
  </g>
 </g>
 <defs>
  <clipPath id="p07ce4bc20f">
   <rect height="498.96" width="1116" x="59.690625" y="10.7"/>
  </clipPath>
  <clipPath id="p879df17584">
   <rect height="129.6" width="1117.44" x="59.690625" y="516.14"/>
  </clipPath>
 </defs>
</svg>
