<?xml version="1.0" encoding="utf-8" standalone="no"?>
<!DOCTYPE svg PUBLIC "-//W3C//DTD SVG 1.1//EN"
  "http://www.w3.org/Graphics/SVG/1.1/DTD/svg11.dtd">
<!-- Created with matplotlib (http://matplotlib.org/) -->
<svg height="669pt" version="1.1" viewBox="0 0 1175 669" width="1175pt" xmlns="http://www.w3.org/2000/svg" xmlns:xlink="http://www.w3.org/1999/xlink">
 <defs>
  <style type="text/css">
*{stroke-linecap:butt;stroke-linejoin:round;}
  </style>
 </defs>
 <g id="figure_1">
  <g id="patch_1">
   <path d="M 0 669.618125 
L 1175.105625 669.618125 
L 1175.105625 -0 
L 0 -0 
z
" style="fill:none;"/>
  </g>
  <g id="axes_1">
   <g id="patch_2">
    <path d="M 46.965625 509.66 
L 1162.965625 509.66 
L 1162.965625 10.7 
L 46.965625 10.7 
z
" style="fill:none;"/>
   </g>
   <g id="matplotlib.axis_1">
    <g id="xtick_1">
     <g id="line2d_1">
      <defs>
       <path d="M 0 0 
L 0 3.5 
" id="mc2eaa29d8a" style="stroke:#000000;stroke-width:0.8;"/>
      </defs>
      <g>
       <use style="stroke:#000000;stroke-width:0.8;" x="97.692898" xlink:href="#mc2eaa29d8a" y="509.66"/>
      </g>
     </g>
     <g id="text_1">
      <!-- 0 -->
      <defs>
       <path d="M 31.78125 66.40625 
Q 24.171875 66.40625 20.328125 58.90625 
Q 16.5 51.421875 16.5 36.375 
Q 16.5 21.390625 20.328125 13.890625 
Q 24.171875 6.390625 31.78125 6.390625 
Q 39.453125 6.390625 43.28125 13.890625 
Q 47.125 21.390625 47.125 36.375 
Q 47.125 51.421875 43.28125 58.90625 
Q 39.453125 66.40625 31.78125 66.40625 
z
M 31.78125 74.21875 
Q 44.046875 74.21875 50.515625 64.515625 
Q 56.984375 54.828125 56.984375 36.375 
Q 56.984375 17.96875 50.515625 8.265625 
Q 44.046875 -1.421875 31.78125 -1.421875 
Q 19.53125 -1.421875 13.0625 8.265625 
Q 6.59375 17.96875 6.59375 36.375 
Q 6.59375 54.828125 13.0625 64.515625 
Q 19.53125 74.21875 31.78125 74.21875 
z
" id="DejaVuSans-30"/>
      </defs>
      <g transform="translate(94.511648 524.258437)scale(0.1 -0.1)">
       <use xlink:href="#DejaVuSans-30"/>
      </g>
     </g>
    </g>
    <g id="xtick_2">
     <g id="line2d_2">
      <g>
       <use style="stroke:#000000;stroke-width:0.8;" x="340.407121" xlink:href="#mc2eaa29d8a" y="509.66"/>
      </g>
     </g>
     <g id="text_2">
      <!-- 50 -->
      <defs>
       <path d="M 10.796875 72.90625 
L 49.515625 72.90625 
L 49.515625 64.59375 
L 19.828125 64.59375 
L 19.828125 46.734375 
Q 21.96875 47.46875 24.109375 47.828125 
Q 26.265625 48.1875 28.421875 48.1875 
Q 40.625 48.1875 47.75 41.5 
Q 54.890625 34.8125 54.890625 23.390625 
Q 54.890625 11.625 47.5625 5.09375 
Q 40.234375 -1.421875 26.90625 -1.421875 
Q 22.3125 -1.421875 17.546875 -0.640625 
Q 12.796875 0.140625 7.71875 1.703125 
L 7.71875 11.625 
Q 12.109375 9.234375 16.796875 8.0625 
Q 21.484375 6.890625 26.703125 6.890625 
Q 35.15625 6.890625 40.078125 11.328125 
Q 45.015625 15.765625 45.015625 23.390625 
Q 45.015625 31 40.078125 35.4375 
Q 35.15625 39.890625 26.703125 39.890625 
Q 22.75 39.890625 18.8125 39.015625 
Q 14.890625 38.140625 10.796875 36.28125 
z
" id="DejaVuSans-35"/>
      </defs>
      <g transform="translate(334.044621 524.258437)scale(0.1 -0.1)">
       <use xlink:href="#DejaVuSans-35"/>
       <use x="63.623047" xlink:href="#DejaVuSans-30"/>
      </g>
     </g>
    </g>
    <g id="xtick_3">
     <g id="line2d_3">
      <g>
       <use style="stroke:#000000;stroke-width:0.8;" x="583.121345" xlink:href="#mc2eaa29d8a" y="509.66"/>
      </g>
     </g>
     <g id="text_3">
      <!-- 100 -->
      <defs>
       <path d="M 12.40625 8.296875 
L 28.515625 8.296875 
L 28.515625 63.921875 
L 10.984375 60.40625 
L 10.984375 69.390625 
L 28.421875 72.90625 
L 38.28125 72.90625 
L 38.28125 8.296875 
L 54.390625 8.296875 
L 54.390625 0 
L 12.40625 0 
z
" id="DejaVuSans-31"/>
      </defs>
      <g transform="translate(573.577595 524.258437)scale(0.1 -0.1)">
       <use xlink:href="#DejaVuSans-31"/>
       <use x="63.623047" xlink:href="#DejaVuSans-30"/>
       <use x="127.246094" xlink:href="#DejaVuSans-30"/>
      </g>
     </g>
    </g>
    <g id="xtick_4">
     <g id="line2d_4">
      <g>
       <use style="stroke:#000000;stroke-width:0.8;" x="825.835568" xlink:href="#mc2eaa29d8a" y="509.66"/>
      </g>
     </g>
     <g id="text_4">
      <!-- 150 -->
      <g transform="translate(816.291818 524.258437)scale(0.1 -0.1)">
       <use xlink:href="#DejaVuSans-31"/>
       <use x="63.623047" xlink:href="#DejaVuSans-35"/>
       <use x="127.246094" xlink:href="#DejaVuSans-30"/>
      </g>
     </g>
    </g>
    <g id="xtick_5">
     <g id="line2d_5">
      <g>
       <use style="stroke:#000000;stroke-width:0.8;" x="1068.549792" xlink:href="#mc2eaa29d8a" y="509.66"/>
      </g>
     </g>
     <g id="text_5">
      <!-- 200 -->
      <defs>
       <path d="M 19.1875 8.296875 
L 53.609375 8.296875 
L 53.609375 0 
L 7.328125 0 
L 7.328125 8.296875 
Q 12.9375 14.109375 22.625 23.890625 
Q 32.328125 33.6875 34.8125 36.53125 
Q 39.546875 41.84375 41.421875 45.53125 
Q 43.3125 49.21875 43.3125 52.78125 
Q 43.3125 58.59375 39.234375 62.25 
Q 35.15625 65.921875 28.609375 65.921875 
Q 23.96875 65.921875 18.8125 64.3125 
Q 13.671875 62.703125 7.8125 59.421875 
L 7.8125 69.390625 
Q 13.765625 71.78125 18.9375 73 
Q 24.125 74.21875 28.421875 74.21875 
Q 39.75 74.21875 46.484375 68.546875 
Q 53.21875 62.890625 53.21875 53.421875 
Q 53.21875 48.921875 51.53125 44.890625 
Q 49.859375 40.875 45.40625 35.40625 
Q 44.1875 33.984375 37.640625 27.21875 
Q 31.109375 20.453125 19.1875 8.296875 
z
" id="DejaVuSans-32"/>
      </defs>
      <g transform="translate(1059.006042 524.258437)scale(0.1 -0.1)">
       <use xlink:href="#DejaVuSans-32"/>
       <use x="63.623047" xlink:href="#DejaVuSans-30"/>
       <use x="127.246094" xlink:href="#DejaVuSans-30"/>
      </g>
     </g>
    </g>
    <g id="text_6">
     <!-- Time -->
     <defs>
      <path d="M -0.296875 72.90625 
L 61.375 72.90625 
L 61.375 64.59375 
L 35.5 64.59375 
L 35.5 0 
L 25.59375 0 
L 25.59375 64.59375 
L -0.296875 64.59375 
z
" id="DejaVuSans-54"/>
      <path d="M 9.421875 54.6875 
L 18.40625 54.6875 
L 18.40625 0 
L 9.421875 0 
z
M 9.421875 75.984375 
L 18.40625 75.984375 
L 18.40625 64.59375 
L 9.421875 64.59375 
z
" id="DejaVuSans-69"/>
      <path d="M 52 44.1875 
Q 55.375 50.25 60.0625 53.125 
Q 64.75 56 71.09375 56 
Q 79.640625 56 84.28125 50.015625 
Q 88.921875 44.046875 88.921875 33.015625 
L 88.921875 0 
L 79.890625 0 
L 79.890625 32.71875 
Q 79.890625 40.578125 77.09375 44.375 
Q 74.3125 48.1875 68.609375 48.1875 
Q 61.625 48.1875 57.5625 43.546875 
Q 53.515625 38.921875 53.515625 30.90625 
L 53.515625 0 
L 44.484375 0 
L 44.484375 32.71875 
Q 44.484375 40.625 41.703125 44.40625 
Q 38.921875 48.1875 33.109375 48.1875 
Q 26.21875 48.1875 22.15625 43.53125 
Q 18.109375 38.875 18.109375 30.90625 
L 18.109375 0 
L 9.078125 0 
L 9.078125 54.6875 
L 18.109375 54.6875 
L 18.109375 46.1875 
Q 21.1875 51.21875 25.484375 53.609375 
Q 29.78125 56 35.6875 56 
Q 41.65625 56 45.828125 52.96875 
Q 50 49.953125 52 44.1875 
z
" id="DejaVuSans-6d"/>
      <path d="M 56.203125 29.59375 
L 56.203125 25.203125 
L 14.890625 25.203125 
Q 15.484375 15.921875 20.484375 11.0625 
Q 25.484375 6.203125 34.421875 6.203125 
Q 39.59375 6.203125 44.453125 7.46875 
Q 49.3125 8.734375 54.109375 11.28125 
L 54.109375 2.78125 
Q 49.265625 0.734375 44.1875 -0.34375 
Q 39.109375 -1.421875 33.890625 -1.421875 
Q 20.796875 -1.421875 13.15625 6.1875 
Q 5.515625 13.8125 5.515625 26.8125 
Q 5.515625 40.234375 12.765625 48.109375 
Q 20.015625 56 32.328125 56 
Q 43.359375 56 49.78125 48.890625 
Q 56.203125 41.796875 56.203125 29.59375 
z
M 47.21875 32.234375 
Q 47.125 39.59375 43.09375 43.984375 
Q 39.0625 48.390625 32.421875 48.390625 
Q 24.90625 48.390625 20.390625 44.140625 
Q 15.875 39.890625 15.1875 32.171875 
z
" id="DejaVuSans-65"/>
     </defs>
     <g transform="translate(592.578125 537.936562)scale(0.1 -0.1)">
      <use xlink:href="#DejaVuSans-54"/>
      <use x="61.037109" xlink:href="#DejaVuSans-69"/>
      <use x="88.820312" xlink:href="#DejaVuSans-6d"/>
      <use x="186.232422" xlink:href="#DejaVuSans-65"/>
     </g>
    </g>
   </g>
   <g id="matplotlib.axis_2">
    <g id="ytick_1">
     <g id="line2d_6">
      <defs>
       <path d="M 0 0 
L -3.5 0 
" id="m73fde346c6" style="stroke:#000000;stroke-width:0.8;"/>
      </defs>
      <g>
       <use style="stroke:#000000;stroke-width:0.8;" x="46.965625" xlink:href="#m73fde346c6" y="476.670909"/>
      </g>
     </g>
     <g id="text_7">
      <!-- 25 -->
      <g transform="translate(27.240625 480.470128)scale(0.1 -0.1)">
       <use xlink:href="#DejaVuSans-32"/>
       <use x="63.623047" xlink:href="#DejaVuSans-35"/>
      </g>
     </g>
    </g>
    <g id="ytick_2">
     <g id="line2d_7">
      <g>
       <use style="stroke:#000000;stroke-width:0.8;" x="46.965625" xlink:href="#m73fde346c6" y="412.239091"/>
      </g>
     </g>
     <g id="text_8">
      <!-- 50 -->
      <g transform="translate(27.240625 416.03831)scale(0.1 -0.1)">
       <use xlink:href="#DejaVuSans-35"/>
       <use x="63.623047" xlink:href="#DejaVuSans-30"/>
      </g>
     </g>
    </g>
    <g id="ytick_3">
     <g id="line2d_8">
      <g>
       <use style="stroke:#000000;stroke-width:0.8;" x="46.965625" xlink:href="#m73fde346c6" y="347.807273"/>
      </g>
     </g>
     <g id="text_9">
      <!-- 75 -->
      <defs>
       <path d="M 8.203125 72.90625 
L 55.078125 72.90625 
L 55.078125 68.703125 
L 28.609375 0 
L 18.3125 0 
L 43.21875 64.59375 
L 8.203125 64.59375 
z
" id="DejaVuSans-37"/>
      </defs>
      <g transform="translate(27.240625 351.606491)scale(0.1 -0.1)">
       <use xlink:href="#DejaVuSans-37"/>
       <use x="63.623047" xlink:href="#DejaVuSans-35"/>
      </g>
     </g>
    </g>
    <g id="ytick_4">
     <g id="line2d_9">
      <g>
       <use style="stroke:#000000;stroke-width:0.8;" x="46.965625" xlink:href="#m73fde346c6" y="283.375455"/>
      </g>
     </g>
     <g id="text_10">
      <!-- 100 -->
      <g transform="translate(20.878125 287.174673)scale(0.1 -0.1)">
       <use xlink:href="#DejaVuSans-31"/>
       <use x="63.623047" xlink:href="#DejaVuSans-30"/>
       <use x="127.246094" xlink:href="#DejaVuSans-30"/>
      </g>
     </g>
    </g>
    <g id="ytick_5">
     <g id="line2d_10">
      <g>
       <use style="stroke:#000000;stroke-width:0.8;" x="46.965625" xlink:href="#m73fde346c6" y="218.943636"/>
      </g>
     </g>
     <g id="text_11">
      <!-- 125 -->
      <g transform="translate(20.878125 222.742855)scale(0.1 -0.1)">
       <use xlink:href="#DejaVuSans-31"/>
       <use x="63.623047" xlink:href="#DejaVuSans-32"/>
       <use x="127.246094" xlink:href="#DejaVuSans-35"/>
      </g>
     </g>
    </g>
    <g id="ytick_6">
     <g id="line2d_11">
      <g>
       <use style="stroke:#000000;stroke-width:0.8;" x="46.965625" xlink:href="#m73fde346c6" y="154.511818"/>
      </g>
     </g>
     <g id="text_12">
      <!-- 150 -->
      <g transform="translate(20.878125 158.311037)scale(0.1 -0.1)">
       <use xlink:href="#DejaVuSans-31"/>
       <use x="63.623047" xlink:href="#DejaVuSans-35"/>
       <use x="127.246094" xlink:href="#DejaVuSans-30"/>
      </g>
     </g>
    </g>
    <g id="ytick_7">
     <g id="line2d_12">
      <g>
       <use style="stroke:#000000;stroke-width:0.8;" x="46.965625" xlink:href="#m73fde346c6" y="90.08"/>
      </g>
     </g>
     <g id="text_13">
      <!-- 175 -->
      <g transform="translate(20.878125 93.879219)scale(0.1 -0.1)">
       <use xlink:href="#DejaVuSans-31"/>
       <use x="63.623047" xlink:href="#DejaVuSans-37"/>
       <use x="127.246094" xlink:href="#DejaVuSans-35"/>
      </g>
     </g>
    </g>
    <g id="ytick_8">
     <g id="line2d_13">
      <g>
       <use style="stroke:#000000;stroke-width:0.8;" x="46.965625" xlink:href="#m73fde346c6" y="25.648182"/>
      </g>
     </g>
     <g id="text_14">
      <!-- 200 -->
      <g transform="translate(20.878125 29.447401)scale(0.1 -0.1)">
       <use xlink:href="#DejaVuSans-32"/>
       <use x="63.623047" xlink:href="#DejaVuSans-30"/>
       <use x="127.246094" xlink:href="#DejaVuSans-30"/>
      </g>
     </g>
    </g>
    <g id="text_15">
     <!-- Refugees -->
     <defs>
      <path d="M 44.390625 34.1875 
Q 47.5625 33.109375 50.5625 29.59375 
Q 53.5625 26.078125 56.59375 19.921875 
L 66.609375 0 
L 56 0 
L 46.6875 18.703125 
Q 43.0625 26.03125 39.671875 28.421875 
Q 36.28125 30.8125 30.421875 30.8125 
L 19.671875 30.8125 
L 19.671875 0 
L 9.8125 0 
L 9.8125 72.90625 
L 32.078125 72.90625 
Q 44.578125 72.90625 50.734375 67.671875 
Q 56.890625 62.453125 56.890625 51.90625 
Q 56.890625 45.015625 53.6875 40.46875 
Q 50.484375 35.9375 44.390625 34.1875 
z
M 19.671875 64.796875 
L 19.671875 38.921875 
L 32.078125 38.921875 
Q 39.203125 38.921875 42.84375 42.21875 
Q 46.484375 45.515625 46.484375 51.90625 
Q 46.484375 58.296875 42.84375 61.546875 
Q 39.203125 64.796875 32.078125 64.796875 
z
" id="DejaVuSans-52"/>
      <path d="M 37.109375 75.984375 
L 37.109375 68.5 
L 28.515625 68.5 
Q 23.6875 68.5 21.796875 66.546875 
Q 19.921875 64.59375 19.921875 59.515625 
L 19.921875 54.6875 
L 34.71875 54.6875 
L 34.71875 47.703125 
L 19.921875 47.703125 
L 19.921875 0 
L 10.890625 0 
L 10.890625 47.703125 
L 2.296875 47.703125 
L 2.296875 54.6875 
L 10.890625 54.6875 
L 10.890625 58.5 
Q 10.890625 67.625 15.140625 71.796875 
Q 19.390625 75.984375 28.609375 75.984375 
z
" id="DejaVuSans-66"/>
      <path d="M 8.5 21.578125 
L 8.5 54.6875 
L 17.484375 54.6875 
L 17.484375 21.921875 
Q 17.484375 14.15625 20.5 10.265625 
Q 23.53125 6.390625 29.59375 6.390625 
Q 36.859375 6.390625 41.078125 11.03125 
Q 45.3125 15.671875 45.3125 23.6875 
L 45.3125 54.6875 
L 54.296875 54.6875 
L 54.296875 0 
L 45.3125 0 
L 45.3125 8.40625 
Q 42.046875 3.421875 37.71875 1 
Q 33.40625 -1.421875 27.6875 -1.421875 
Q 18.265625 -1.421875 13.375 4.4375 
Q 8.5 10.296875 8.5 21.578125 
z
M 31.109375 56 
z
" id="DejaVuSans-75"/>
      <path d="M 45.40625 27.984375 
Q 45.40625 37.75 41.375 43.109375 
Q 37.359375 48.484375 30.078125 48.484375 
Q 22.859375 48.484375 18.828125 43.109375 
Q 14.796875 37.75 14.796875 27.984375 
Q 14.796875 18.265625 18.828125 12.890625 
Q 22.859375 7.515625 30.078125 7.515625 
Q 37.359375 7.515625 41.375 12.890625 
Q 45.40625 18.265625 45.40625 27.984375 
z
M 54.390625 6.78125 
Q 54.390625 -7.171875 48.1875 -13.984375 
Q 42 -20.796875 29.203125 -20.796875 
Q 24.46875 -20.796875 20.265625 -20.09375 
Q 16.0625 -19.390625 12.109375 -17.921875 
L 12.109375 -9.1875 
Q 16.0625 -11.328125 19.921875 -12.34375 
Q 23.78125 -13.375 27.78125 -13.375 
Q 36.625 -13.375 41.015625 -8.765625 
Q 45.40625 -4.15625 45.40625 5.171875 
L 45.40625 9.625 
Q 42.625 4.78125 38.28125 2.390625 
Q 33.9375 0 27.875 0 
Q 17.828125 0 11.671875 7.65625 
Q 5.515625 15.328125 5.515625 27.984375 
Q 5.515625 40.671875 11.671875 48.328125 
Q 17.828125 56 27.875 56 
Q 33.9375 56 38.28125 53.609375 
Q 42.625 51.21875 45.40625 46.390625 
L 45.40625 54.6875 
L 54.390625 54.6875 
z
" id="DejaVuSans-67"/>
      <path d="M 44.28125 53.078125 
L 44.28125 44.578125 
Q 40.484375 46.53125 36.375 47.5 
Q 32.28125 48.484375 27.875 48.484375 
Q 21.1875 48.484375 17.84375 46.4375 
Q 14.5 44.390625 14.5 40.28125 
Q 14.5 37.15625 16.890625 35.375 
Q 19.28125 33.59375 26.515625 31.984375 
L 29.59375 31.296875 
Q 39.15625 29.25 43.1875 25.515625 
Q 47.21875 21.78125 47.21875 15.09375 
Q 47.21875 7.46875 41.1875 3.015625 
Q 35.15625 -1.421875 24.609375 -1.421875 
Q 20.21875 -1.421875 15.453125 -0.5625 
Q 10.6875 0.296875 5.421875 2 
L 5.421875 11.28125 
Q 10.40625 8.6875 15.234375 7.390625 
Q 20.0625 6.109375 24.8125 6.109375 
Q 31.15625 6.109375 34.5625 8.28125 
Q 37.984375 10.453125 37.984375 14.40625 
Q 37.984375 18.0625 35.515625 20.015625 
Q 33.0625 21.96875 24.703125 23.78125 
L 21.578125 24.515625 
Q 13.234375 26.265625 9.515625 29.90625 
Q 5.8125 33.546875 5.8125 39.890625 
Q 5.8125 47.609375 11.28125 51.796875 
Q 16.75 56 26.8125 56 
Q 31.78125 56 36.171875 55.265625 
Q 40.578125 54.546875 44.28125 53.078125 
z
" id="DejaVuSans-73"/>
     </defs>
     <g style="fill:#ff7f0e;" transform="translate(14.798438 283.588594)rotate(-90)scale(0.1 -0.1)">
      <use xlink:href="#DejaVuSans-52"/>
      <use x="69.419922" xlink:href="#DejaVuSans-65"/>
      <use x="130.943359" xlink:href="#DejaVuSans-66"/>
      <use x="166.148438" xlink:href="#DejaVuSans-75"/>
      <use x="229.527344" xlink:href="#DejaVuSans-67"/>
      <use x="293.003906" xlink:href="#DejaVuSans-65"/>
      <use x="354.527344" xlink:href="#DejaVuSans-65"/>
      <use x="416.050781" xlink:href="#DejaVuSans-73"/>
     </g>
    </g>
   </g>
   <g id="line2d_14">
    <path clip-path="url(#p1dcaace7ca)" d="M 97.692898 398.722213 
L 102.547182 391.374059 
L 107.401467 394.196717 
L 112.255751 405.689955 
L 117.110036 407.47816 
L 121.96432 381.935028 
L 126.818605 397.843157 
L 131.672889 390.491189 
L 136.527173 393.319441 
L 141.381458 404.807213 
L 146.235742 406.605249 
L 151.090027 381.04622 
L 155.944311 358.163516 
L 160.798596 350.639241 
L 165.65288 353.717449 
L 170.507165 364.961242 
L 175.361449 367.202886 
L 180.215734 340.92765 
L 185.070018 285.541888 
L 189.924303 277.702257 
L 194.778587 281.237887 
L 199.632872 292.03525 
L 204.487156 295.088722 
L 209.341441 267.502572 
L 214.195725 260.722031 
L 219.05001 252.774627 
L 223.904294 256.466617 
L 228.758578 267.111376 
L 233.612863 270.442313 
L 238.467147 242.408101 
L 243.321432 137.14193 
L 248.175716 119.779434 
L 253.030001 122.401303 
L 257.884285 136.763416 
L 262.73857 149.917669 
L 267.592854 126.219549 
L 272.447139 135.158009 
L 277.301423 137.889046 
L 282.155708 148.984894 
L 287.009992 159.336143 
L 291.864277 159.485896 
L 296.718561 125.808749 
L 301.572846 212.745731 
L 306.42713 204.58986 
L 311.281414 208.584129 
L 316.135699 218.933903 
L 320.989983 222.801208 
L 325.844268 193.900958 
L 330.698552 355.561998 
L 335.552837 348.026437 
L 340.407121 351.120985 
L 345.261406 362.348851 
L 350.11569 364.619537 
L 354.969975 338.297307 
L 359.824259 337.400712 
L 364.678544 329.786243 
L 369.532828 332.99525 
L 374.387113 344.111449 
L 379.241397 346.585156 
L 384.095682 319.935104 
L 388.949966 367.158919 
L 393.80425 359.673715 
L 398.658535 362.695215 
L 403.512819 373.994339 
L 408.367104 376.135447 
L 413.221388 350.022549 
L 418.075673 360.57963 
L 422.929957 353.065836 
L 427.784242 356.128844 
L 432.638526 367.387502 
L 437.492811 369.60211 
L 442.347095 343.370467 
L 447.20138 429.076249 
L 452.055664 421.859917 
L 456.909949 424.49141 
L 461.764233 436.171211 
L 466.618518 437.620091 
L 471.472802 412.624899 
L 476.327087 431.921018 
L 481.181371 424.717063 
L 486.035655 427.330663 
L 490.88994 439.027915 
L 495.744224 440.44502 
L 500.598509 415.501139 
L 505.452793 452.645567 
L 510.307078 445.531659 
L 515.161362 448.014667 
L 520.015647 459.83935 
L 524.869931 461.024746 
L 529.724216 436.454998 
L 534.5785 432.341374 
L 539.432785 425.139268 
L 544.287069 427.750204 
L 549.141354 439.450051 
L 553.995638 440.862437 
L 558.849923 415.926165 
L 563.704207 430.229722 
L 568.558491 423.018413 
L 573.412776 425.642641 
L 578.26706 437.329531 
L 583.121345 438.765522 
L 587.975629 413.791143 
L 592.829914 444.433754 
L 597.684198 437.284178 
L 602.538483 439.81891 
L 607.392767 451.593122 
L 612.247052 452.870335 
L 617.101336 428.152322 
L 621.955621 401.498249 
L 626.809905 394.162159 
L 631.66419 396.967395 
L 636.518474 408.477642 
L 641.372759 410.234819 
L 646.227043 384.741768 
L 651.081327 419.247958 
L 655.935612 411.988938 
L 660.789896 414.68234 
L 665.644181 426.301707 
L 670.498465 427.860484 
L 675.35275 402.687862 
L 680.207034 441.6255 
L 685.061319 434.463693 
L 689.915603 437.016131 
L 694.769888 448.77309 
L 699.624172 450.081684 
L 704.478457 425.312981 
L 709.332741 442.981492 
L 714.187026 435.825584 
L 719.04131 438.369469 
L 723.895595 450.134774 
L 728.749879 451.428209 
L 733.604163 426.683976 
L 738.458448 473.768139 
L 743.312732 466.745931 
L 748.167017 469.095913 
L 753.021301 481.050441 
L 757.875586 481.999713 
L 762.72987 457.811231 
L 767.584155 460.437082 
L 772.438439 453.356985 
L 777.292724 455.790934 
L 782.147008 467.663526 
L 787.001293 468.761824 
L 791.855577 444.332696 
L 796.709862 446.986753 
L 801.564146 439.848237 
L 806.418431 442.366894 
L 811.272715 454.156808 
L 816.127 455.405469 
L 820.981284 430.733567 
L 825.835568 398.521709 
L 830.689853 391.17273 
L 835.544137 393.996665 
L 840.398422 405.488645 
L 845.252706 407.279091 
L 850.106991 381.732312 
L 854.961275 425.030354 
L 859.81556 417.796493 
L 864.669844 420.45345 
L 869.524129 432.108367 
L 874.378413 433.602472 
L 879.232698 408.534222 
L 884.086982 435.848216 
L 888.941267 428.66133 
L 893.795551 431.250135 
L 898.649836 442.971591 
L 903.50412 444.344759 
L 908.358404 419.471793 
L 913.212689 470.839906 
L 918.066973 463.804966 
L 922.921258 466.173402 
L 927.775542 478.109938 
L 932.629827 479.09192 
L 937.484111 454.850618 
L 942.338396 421.463687 
L 947.19268 414.214321 
L 952.046965 416.893763 
L 956.901249 428.526795 
L 961.755534 430.060747 
L 966.609818 404.928101 
L 971.464103 418.778504 
L 976.318387 411.517448 
L 981.172672 414.21382 
L 986.026956 425.830335 
L 990.88124 427.394332 
L 995.735525 402.213216 
L 1000.589809 456.105483 
L 1005.444094 449.006579 
L 1010.298378 451.46781 
L 1015.152663 463.313763 
L 1020.006947 464.460477 
L 1024.861232 439.953198 
L 1029.715516 384.613143 
L 1034.569801 377.203759 
L 1039.424085 380.115323 
L 1044.27837 391.521758 
L 1049.132654 393.4677 
L 1053.986939 367.669863 
L 1058.841223 381.158584 
L 1063.695508 373.734178 
L 1068.549792 376.667509 
L 1073.404077 388.052747 
L 1078.258361 390.037258 
L 1083.112645 364.17708 
L 1087.96693 322.726586 
L 1092.821214 315.048408 
L 1097.675499 318.349831 
L 1102.529783 329.375777 
L 1107.384068 332.013533 
L 1112.238352 305.09862 
L 1112.238352 305.09862 
" style="fill:none;stroke:#008000;stroke-dasharray:5.55,2.4;stroke-dashoffset:0;stroke-width:1.5;"/>
   </g>
   <g id="line2d_15">
    <path clip-path="url(#p1dcaace7ca)" d="M 97.692898 412.239091 
L 102.547182 337.498182 
L 107.401467 358.116364 
L 112.255751 412.239091 
L 117.110036 404.507273 
L 121.96432 383.889091 
L 126.818605 368.425455 
L 131.672889 358.116364 
L 136.527173 334.920909 
L 141.381458 316.88 
L 146.235742 329.766364 
L 151.090027 389.043636 
L 155.944311 342.652727 
L 160.798596 332.343636 
L 165.65288 316.88 
L 170.507165 229.252727 
L 175.361449 283.375455 
L 180.215734 319.457273 
L 185.070018 296.261818 
L 189.924303 265.334545 
L 194.778587 278.220909 
L 199.632872 311.725455 
L 204.487156 255.025455 
L 209.341441 267.911818 
L 214.195725 262.757273 
L 219.05001 218.943636 
L 223.904294 255.025455 
L 228.758578 226.675455 
L 233.612863 267.911818 
L 238.467147 185.439091 
L 243.321432 273.066364 
L 248.175716 303.993636 
L 253.030001 121.007273 
L 257.884285 136.470909 
L 262.73857 95.234545 
L 267.592854 33.38 
L 272.447139 48.843636 
L 277.301423 296.261818 
L 282.155708 146.78 
L 287.009992 188.016364 
L 291.864277 260.18 
L 296.718561 203.48 
L 301.572846 283.375455 
L 306.42713 306.570909 
L 311.281414 185.439091 
L 316.135699 262.757273 
L 320.989983 291.107273 
L 325.844268 345.23 
L 330.698552 311.725455 
L 335.552837 386.466364 
L 340.407121 368.425455 
L 345.261406 229.252727 
L 350.11569 355.539091 
L 354.969975 350.384545 
L 364.678544 345.23 
L 369.532828 285.952727 
L 374.387113 358.116364 
L 379.241397 334.920909 
L 384.095682 355.539091 
L 388.949966 368.425455 
L 393.80425 316.88 
L 398.658535 389.043636 
L 403.512819 363.270909 
L 408.367104 368.425455 
L 413.221388 314.302727 
L 418.075673 453.475455 
L 422.929957 440.589091 
L 427.784242 430.28 
L 432.638526 376.157273 
L 437.492811 448.320909 
L 442.347095 445.743636 
L 447.20138 456.052727 
L 452.055664 427.702727 
L 456.909949 409.661818 
L 461.764233 450.898182 
L 466.618518 458.63 
L 471.472802 443.166364 
L 476.327087 440.589091 
L 481.181371 461.207273 
L 486.035655 404.507273 
L 490.88994 471.516364 
L 495.744224 430.28 
L 500.598509 427.702727 
L 505.452793 412.239091 
L 510.307078 445.743636 
L 515.161362 435.434545 
L 520.015647 432.857273 
L 524.869931 396.775455 
L 529.724216 458.63 
L 534.5785 479.248182 
L 544.287069 443.166364 
L 549.141354 414.816364 
L 553.995638 396.775455 
L 558.849923 417.393636 
L 563.704207 458.63 
L 568.558491 476.670909 
L 573.412776 440.589091 
L 578.26706 407.084545 
L 583.121345 422.548182 
L 587.975629 450.898182 
L 592.829914 474.093636 
L 597.684198 443.166364 
L 602.538483 427.702727 
L 607.392767 432.857273 
L 612.247052 443.166364 
L 617.101336 371.002727 
L 621.955621 419.970909 
L 626.809905 414.816364 
L 631.66419 440.589091 
L 636.518474 394.198182 
L 641.372759 438.011818 
L 646.227043 438.011818 
L 651.081327 450.898182 
L 655.935612 461.207273 
L 660.789896 458.63 
L 665.644181 432.857273 
L 670.498465 422.548182 
L 675.35275 450.898182 
L 680.207034 453.475455 
L 685.061319 414.816364 
L 689.915603 378.734545 
L 694.769888 432.857273 
L 699.624172 401.93 
L 704.478457 456.052727 
L 714.187026 450.898182 
L 719.04131 425.125455 
L 723.895595 486.98 
L 728.749879 409.661818 
L 733.604163 448.320909 
L 738.458448 412.239091 
L 743.312732 422.548182 
L 748.167017 409.661818 
L 753.021301 453.475455 
L 757.875586 463.784545 
L 762.72987 425.125455 
L 767.584155 456.052727 
L 772.438439 430.28 
L 777.292724 438.011818 
L 782.147008 450.898182 
L 787.001293 414.816364 
L 791.855577 443.166364 
L 796.709862 448.320909 
L 801.564146 432.857273 
L 806.418431 376.157273 
L 811.272715 432.857273 
L 816.127 427.702727 
L 820.981284 404.507273 
L 825.835568 448.320909 
L 830.689853 461.207273 
L 835.544137 378.734545 
L 840.398422 419.970909 
L 845.252706 386.466364 
L 850.106991 419.970909 
L 854.961275 425.125455 
L 859.81556 404.507273 
L 864.669844 453.475455 
L 869.524129 435.434545 
L 874.378413 432.857273 
L 879.232698 456.052727 
L 884.086982 453.475455 
L 888.941267 453.475455 
L 893.795551 486.98 
L 898.649836 443.166364 
L 903.50412 438.011818 
L 908.358404 443.166364 
L 913.212689 443.166364 
L 918.066973 438.011818 
L 922.921258 458.63 
L 927.775542 438.011818 
L 932.629827 474.093636 
L 937.484111 412.239091 
L 942.338396 427.702727 
L 947.19268 399.352727 
L 952.046965 394.198182 
L 956.901249 427.702727 
L 961.755534 401.93 
L 966.609818 432.857273 
L 971.464103 386.466364 
L 976.318387 432.857273 
L 981.172672 417.393636 
L 986.026956 412.239091 
L 990.88124 422.548182 
L 995.735525 438.011818 
L 1000.589809 427.702727 
L 1005.444094 448.320909 
L 1010.298378 430.28 
L 1015.152663 401.93 
L 1020.006947 352.961818 
L 1024.861232 401.93 
L 1029.715516 396.775455 
L 1034.569801 334.920909 
L 1039.424085 340.075455 
L 1044.27837 376.157273 
L 1049.132654 391.620909 
L 1053.986939 365.848182 
L 1058.841223 430.28 
L 1063.695508 327.189091 
L 1068.549792 352.961818 
L 1073.404077 355.539091 
L 1078.258361 365.848182 
L 1083.112645 296.261818 
L 1087.96693 350.384545 
L 1092.821214 314.302727 
L 1097.675499 293.684545 
L 1102.529783 365.848182 
L 1107.384068 342.652727 
L 1112.238352 306.570909 
L 1112.238352 306.570909 
" style="fill:none;stroke:#ff7f0e;stroke-linecap:square;stroke-width:1.5;"/>
   </g>
   <g id="line2d_16">
    <defs>
     <path d="M 0 3 
C 0.795609 3 1.55874 2.683901 2.12132 2.12132 
C 2.683901 1.55874 3 0.795609 3 0 
C 3 -0.795609 2.683901 -1.55874 2.12132 -2.12132 
C 1.55874 -2.683901 0.795609 -3 0 -3 
C -0.795609 -3 -1.55874 -2.683901 -2.12132 -2.12132 
C -2.683901 -1.55874 -3 -0.795609 -3 0 
C -3 0.795609 -2.683901 1.55874 -2.12132 2.12132 
C -1.55874 2.683901 -0.795609 3 0 3 
z
" id="m75d02522a0" style="stroke:#008000;"/>
    </defs>
    <g clip-path="url(#p1dcaace7ca)">
     <use style="fill:#008000;stroke:#008000;" x="97.692898" xlink:href="#m75d02522a0" y="398.722213"/>
     <use style="fill:#008000;stroke:#008000;" x="126.818605" xlink:href="#m75d02522a0" y="397.843157"/>
     <use style="fill:#008000;stroke:#008000;" x="155.944311" xlink:href="#m75d02522a0" y="358.163516"/>
     <use style="fill:#008000;stroke:#008000;" x="185.070018" xlink:href="#m75d02522a0" y="285.541888"/>
     <use style="fill:#008000;stroke:#008000;" x="214.195725" xlink:href="#m75d02522a0" y="260.722031"/>
     <use style="fill:#008000;stroke:#008000;" x="243.321432" xlink:href="#m75d02522a0" y="137.14193"/>
     <use style="fill:#008000;stroke:#008000;" x="272.447139" xlink:href="#m75d02522a0" y="135.158009"/>
     <use style="fill:#008000;stroke:#008000;" x="301.572846" xlink:href="#m75d02522a0" y="212.745731"/>
     <use style="fill:#008000;stroke:#008000;" x="330.698552" xlink:href="#m75d02522a0" y="355.561998"/>
     <use style="fill:#008000;stroke:#008000;" x="359.824259" xlink:href="#m75d02522a0" y="337.400712"/>
     <use style="fill:#008000;stroke:#008000;" x="388.949966" xlink:href="#m75d02522a0" y="367.158919"/>
     <use style="fill:#008000;stroke:#008000;" x="418.075673" xlink:href="#m75d02522a0" y="360.57963"/>
     <use style="fill:#008000;stroke:#008000;" x="447.20138" xlink:href="#m75d02522a0" y="429.076249"/>
     <use style="fill:#008000;stroke:#008000;" x="476.327087" xlink:href="#m75d02522a0" y="431.921018"/>
     <use style="fill:#008000;stroke:#008000;" x="505.452793" xlink:href="#m75d02522a0" y="452.645567"/>
     <use style="fill:#008000;stroke:#008000;" x="534.5785" xlink:href="#m75d02522a0" y="432.341374"/>
     <use style="fill:#008000;stroke:#008000;" x="563.704207" xlink:href="#m75d02522a0" y="430.229722"/>
     <use style="fill:#008000;stroke:#008000;" x="592.829914" xlink:href="#m75d02522a0" y="444.433754"/>
     <use style="fill:#008000;stroke:#008000;" x="621.955621" xlink:href="#m75d02522a0" y="401.498249"/>
     <use style="fill:#008000;stroke:#008000;" x="651.081327" xlink:href="#m75d02522a0" y="419.247958"/>
     <use style="fill:#008000;stroke:#008000;" x="680.207034" xlink:href="#m75d02522a0" y="441.6255"/>
     <use style="fill:#008000;stroke:#008000;" x="709.332741" xlink:href="#m75d02522a0" y="442.981492"/>
     <use style="fill:#008000;stroke:#008000;" x="738.458448" xlink:href="#m75d02522a0" y="473.768139"/>
     <use style="fill:#008000;stroke:#008000;" x="767.584155" xlink:href="#m75d02522a0" y="460.437082"/>
     <use style="fill:#008000;stroke:#008000;" x="796.709862" xlink:href="#m75d02522a0" y="446.986753"/>
     <use style="fill:#008000;stroke:#008000;" x="825.835568" xlink:href="#m75d02522a0" y="398.521709"/>
     <use style="fill:#008000;stroke:#008000;" x="854.961275" xlink:href="#m75d02522a0" y="425.030354"/>
     <use style="fill:#008000;stroke:#008000;" x="884.086982" xlink:href="#m75d02522a0" y="435.848216"/>
     <use style="fill:#008000;stroke:#008000;" x="913.212689" xlink:href="#m75d02522a0" y="470.839906"/>
     <use style="fill:#008000;stroke:#008000;" x="942.338396" xlink:href="#m75d02522a0" y="421.463687"/>
     <use style="fill:#008000;stroke:#008000;" x="971.464103" xlink:href="#m75d02522a0" y="418.778504"/>
     <use style="fill:#008000;stroke:#008000;" x="1000.589809" xlink:href="#m75d02522a0" y="456.105483"/>
     <use style="fill:#008000;stroke:#008000;" x="1029.715516" xlink:href="#m75d02522a0" y="384.613143"/>
     <use style="fill:#008000;stroke:#008000;" x="1058.841223" xlink:href="#m75d02522a0" y="381.158584"/>
     <use style="fill:#008000;stroke:#008000;" x="1087.96693" xlink:href="#m75d02522a0" y="322.726586"/>
    </g>
   </g>
   <g id="patch_3">
    <path d="M 46.965625 509.66 
L 46.965625 10.7 
" style="fill:none;stroke:#000000;stroke-linecap:square;stroke-linejoin:miter;stroke-width:0.8;"/>
   </g>
   <g id="patch_4">
    <path d="M 1162.965625 509.66 
L 1162.965625 10.7 
" style="fill:none;stroke:#000000;stroke-linecap:square;stroke-linejoin:miter;stroke-width:0.8;"/>
   </g>
   <g id="patch_5">
    <path d="M 46.965625 509.66 
L 1162.965625 509.66 
" style="fill:none;stroke:#000000;stroke-linecap:square;stroke-linejoin:miter;stroke-width:0.8;"/>
   </g>
   <g id="patch_6">
    <path d="M 46.965625 10.7 
L 1162.965625 10.7 
" style="fill:none;stroke:#000000;stroke-linecap:square;stroke-linejoin:miter;stroke-width:0.8;"/>
   </g>
   <g id="legend_1">
    <g id="patch_7">
     <path d="M 53.965625 62.734375 
L 201.740625 62.734375 
Q 203.740625 62.734375 203.740625 60.734375 
L 203.740625 17.7 
Q 203.740625 15.7 201.740625 15.7 
L 53.965625 15.7 
Q 51.965625 15.7 51.965625 17.7 
L 51.965625 60.734375 
Q 51.965625 62.734375 53.965625 62.734375 
z
" style="fill:#ffffff;opacity:0.8;stroke:#cccccc;stroke-linejoin:miter;"/>
    </g>
    <g id="line2d_17">
     <path d="M 55.965625 23.798437 
L 75.965625 23.798437 
" style="fill:none;stroke:#008000;stroke-dasharray:5.55,2.4;stroke-dashoffset:0;stroke-width:1.5;"/>
    </g>
    <g id="line2d_18"/>
    <g id="text_16">
     <!-- Predicated -->
     <defs>
      <path d="M 19.671875 64.796875 
L 19.671875 37.40625 
L 32.078125 37.40625 
Q 38.96875 37.40625 42.71875 40.96875 
Q 46.484375 44.53125 46.484375 51.125 
Q 46.484375 57.671875 42.71875 61.234375 
Q 38.96875 64.796875 32.078125 64.796875 
z
M 9.8125 72.90625 
L 32.078125 72.90625 
Q 44.34375 72.90625 50.609375 67.359375 
Q 56.890625 61.8125 56.890625 51.125 
Q 56.890625 40.328125 50.609375 34.8125 
Q 44.34375 29.296875 32.078125 29.296875 
L 19.671875 29.296875 
L 19.671875 0 
L 9.8125 0 
z
" id="DejaVuSans-50"/>
      <path d="M 41.109375 46.296875 
Q 39.59375 47.171875 37.8125 47.578125 
Q 36.03125 48 33.890625 48 
Q 26.265625 48 22.1875 43.046875 
Q 18.109375 38.09375 18.109375 28.8125 
L 18.109375 0 
L 9.078125 0 
L 9.078125 54.6875 
L 18.109375 54.6875 
L 18.109375 46.1875 
Q 20.953125 51.171875 25.484375 53.578125 
Q 30.03125 56 36.53125 56 
Q 37.453125 56 38.578125 55.875 
Q 39.703125 55.765625 41.0625 55.515625 
z
" id="DejaVuSans-72"/>
      <path d="M 45.40625 46.390625 
L 45.40625 75.984375 
L 54.390625 75.984375 
L 54.390625 0 
L 45.40625 0 
L 45.40625 8.203125 
Q 42.578125 3.328125 38.25 0.953125 
Q 33.9375 -1.421875 27.875 -1.421875 
Q 17.96875 -1.421875 11.734375 6.484375 
Q 5.515625 14.40625 5.515625 27.296875 
Q 5.515625 40.1875 11.734375 48.09375 
Q 17.96875 56 27.875 56 
Q 33.9375 56 38.25 53.625 
Q 42.578125 51.265625 45.40625 46.390625 
z
M 14.796875 27.296875 
Q 14.796875 17.390625 18.875 11.75 
Q 22.953125 6.109375 30.078125 6.109375 
Q 37.203125 6.109375 41.296875 11.75 
Q 45.40625 17.390625 45.40625 27.296875 
Q 45.40625 37.203125 41.296875 42.84375 
Q 37.203125 48.484375 30.078125 48.484375 
Q 22.953125 48.484375 18.875 42.84375 
Q 14.796875 37.203125 14.796875 27.296875 
z
" id="DejaVuSans-64"/>
      <path d="M 48.78125 52.59375 
L 48.78125 44.1875 
Q 44.96875 46.296875 41.140625 47.34375 
Q 37.3125 48.390625 33.40625 48.390625 
Q 24.65625 48.390625 19.8125 42.84375 
Q 14.984375 37.3125 14.984375 27.296875 
Q 14.984375 17.28125 19.8125 11.734375 
Q 24.65625 6.203125 33.40625 6.203125 
Q 37.3125 6.203125 41.140625 7.25 
Q 44.96875 8.296875 48.78125 10.40625 
L 48.78125 2.09375 
Q 45.015625 0.34375 40.984375 -0.53125 
Q 36.96875 -1.421875 32.421875 -1.421875 
Q 20.0625 -1.421875 12.78125 6.34375 
Q 5.515625 14.109375 5.515625 27.296875 
Q 5.515625 40.671875 12.859375 48.328125 
Q 20.21875 56 33.015625 56 
Q 37.15625 56 41.109375 55.140625 
Q 45.0625 54.296875 48.78125 52.59375 
z
" id="DejaVuSans-63"/>
      <path d="M 34.28125 27.484375 
Q 23.390625 27.484375 19.1875 25 
Q 14.984375 22.515625 14.984375 16.5 
Q 14.984375 11.71875 18.140625 8.90625 
Q 21.296875 6.109375 26.703125 6.109375 
Q 34.1875 6.109375 38.703125 11.40625 
Q 43.21875 16.703125 43.21875 25.484375 
L 43.21875 27.484375 
z
M 52.203125 31.203125 
L 52.203125 0 
L 43.21875 0 
L 43.21875 8.296875 
Q 40.140625 3.328125 35.546875 0.953125 
Q 30.953125 -1.421875 24.3125 -1.421875 
Q 15.921875 -1.421875 10.953125 3.296875 
Q 6 8.015625 6 15.921875 
Q 6 25.140625 12.171875 29.828125 
Q 18.359375 34.515625 30.609375 34.515625 
L 43.21875 34.515625 
L 43.21875 35.40625 
Q 43.21875 41.609375 39.140625 45 
Q 35.0625 48.390625 27.6875 48.390625 
Q 23 48.390625 18.546875 47.265625 
Q 14.109375 46.140625 10.015625 43.890625 
L 10.015625 52.203125 
Q 14.9375 54.109375 19.578125 55.046875 
Q 24.21875 56 28.609375 56 
Q 40.484375 56 46.34375 49.84375 
Q 52.203125 43.703125 52.203125 31.203125 
z
" id="DejaVuSans-61"/>
      <path d="M 18.3125 70.21875 
L 18.3125 54.6875 
L 36.8125 54.6875 
L 36.8125 47.703125 
L 18.3125 47.703125 
L 18.3125 18.015625 
Q 18.3125 11.328125 20.140625 9.421875 
Q 21.96875 7.515625 27.59375 7.515625 
L 36.8125 7.515625 
L 36.8125 0 
L 27.59375 0 
Q 17.1875 0 13.234375 3.875 
Q 9.28125 7.765625 9.28125 18.015625 
L 9.28125 47.703125 
L 2.6875 47.703125 
L 2.6875 54.6875 
L 9.28125 54.6875 
L 9.28125 70.21875 
z
" id="DejaVuSans-74"/>
     </defs>
     <g transform="translate(83.965625 27.298437)scale(0.1 -0.1)">
      <use xlink:href="#DejaVuSans-50"/>
      <use x="60.287109" xlink:href="#DejaVuSans-72"/>
      <use x="101.369141" xlink:href="#DejaVuSans-65"/>
      <use x="162.892578" xlink:href="#DejaVuSans-64"/>
      <use x="226.369141" xlink:href="#DejaVuSans-69"/>
      <use x="254.152344" xlink:href="#DejaVuSans-63"/>
      <use x="309.132812" xlink:href="#DejaVuSans-61"/>
      <use x="370.412109" xlink:href="#DejaVuSans-74"/>
      <use x="409.621094" xlink:href="#DejaVuSans-65"/>
      <use x="471.144531" xlink:href="#DejaVuSans-64"/>
     </g>
    </g>
    <g id="line2d_19">
     <path d="M 55.965625 38.476562 
L 75.965625 38.476562 
" style="fill:none;stroke:#ff7f0e;stroke-linecap:square;stroke-width:1.5;"/>
    </g>
    <g id="line2d_20"/>
    <g id="text_17">
     <!-- Real Data -->
     <defs>
      <path d="M 9.421875 75.984375 
L 18.40625 75.984375 
L 18.40625 0 
L 9.421875 0 
z
" id="DejaVuSans-6c"/>
      <path id="DejaVuSans-20"/>
      <path d="M 19.671875 64.796875 
L 19.671875 8.109375 
L 31.59375 8.109375 
Q 46.6875 8.109375 53.6875 14.9375 
Q 60.6875 21.78125 60.6875 36.53125 
Q 60.6875 51.171875 53.6875 57.984375 
Q 46.6875 64.796875 31.59375 64.796875 
z
M 9.8125 72.90625 
L 30.078125 72.90625 
Q 51.265625 72.90625 61.171875 64.09375 
Q 71.09375 55.28125 71.09375 36.53125 
Q 71.09375 17.671875 61.125 8.828125 
Q 51.171875 0 30.078125 0 
L 9.8125 0 
z
" id="DejaVuSans-44"/>
     </defs>
     <g transform="translate(83.965625 41.976562)scale(0.1 -0.1)">
      <use xlink:href="#DejaVuSans-52"/>
      <use x="69.419922" xlink:href="#DejaVuSans-65"/>
      <use x="130.943359" xlink:href="#DejaVuSans-61"/>
      <use x="192.222656" xlink:href="#DejaVuSans-6c"/>
      <use x="220.005859" xlink:href="#DejaVuSans-20"/>
      <use x="251.792969" xlink:href="#DejaVuSans-44"/>
      <use x="328.794922" xlink:href="#DejaVuSans-61"/>
      <use x="390.074219" xlink:href="#DejaVuSans-74"/>
      <use x="429.283203" xlink:href="#DejaVuSans-61"/>
     </g>
    </g>
    <g id="line2d_21"/>
    <g id="line2d_22">
     <g>
      <use style="fill:#008000;stroke:#008000;" x="65.965625" xlink:href="#m75d02522a0" y="53.154688"/>
     </g>
    </g>
    <g id="text_18">
     <!-- Start Point for Forecast -->
     <defs>
      <path d="M 53.515625 70.515625 
L 53.515625 60.890625 
Q 47.90625 63.578125 42.921875 64.890625 
Q 37.9375 66.21875 33.296875 66.21875 
Q 25.25 66.21875 20.875 63.09375 
Q 16.5 59.96875 16.5 54.203125 
Q 16.5 49.359375 19.40625 46.890625 
Q 22.3125 44.4375 30.421875 42.921875 
L 36.375 41.703125 
Q 47.40625 39.59375 52.65625 34.296875 
Q 57.90625 29 57.90625 20.125 
Q 57.90625 9.515625 50.796875 4.046875 
Q 43.703125 -1.421875 29.984375 -1.421875 
Q 24.8125 -1.421875 18.96875 -0.25 
Q 13.140625 0.921875 6.890625 3.21875 
L 6.890625 13.375 
Q 12.890625 10.015625 18.65625 8.296875 
Q 24.421875 6.59375 29.984375 6.59375 
Q 38.421875 6.59375 43.015625 9.90625 
Q 47.609375 13.234375 47.609375 19.390625 
Q 47.609375 24.75 44.3125 27.78125 
Q 41.015625 30.8125 33.5 32.328125 
L 27.484375 33.5 
Q 16.453125 35.6875 11.515625 40.375 
Q 6.59375 45.0625 6.59375 53.421875 
Q 6.59375 63.09375 13.40625 68.65625 
Q 20.21875 74.21875 32.171875 74.21875 
Q 37.3125 74.21875 42.625 73.28125 
Q 47.953125 72.359375 53.515625 70.515625 
z
" id="DejaVuSans-53"/>
      <path d="M 30.609375 48.390625 
Q 23.390625 48.390625 19.1875 42.75 
Q 14.984375 37.109375 14.984375 27.296875 
Q 14.984375 17.484375 19.15625 11.84375 
Q 23.34375 6.203125 30.609375 6.203125 
Q 37.796875 6.203125 41.984375 11.859375 
Q 46.1875 17.53125 46.1875 27.296875 
Q 46.1875 37.015625 41.984375 42.703125 
Q 37.796875 48.390625 30.609375 48.390625 
z
M 30.609375 56 
Q 42.328125 56 49.015625 48.375 
Q 55.71875 40.765625 55.71875 27.296875 
Q 55.71875 13.875 49.015625 6.21875 
Q 42.328125 -1.421875 30.609375 -1.421875 
Q 18.84375 -1.421875 12.171875 6.21875 
Q 5.515625 13.875 5.515625 27.296875 
Q 5.515625 40.765625 12.171875 48.375 
Q 18.84375 56 30.609375 56 
z
" id="DejaVuSans-6f"/>
      <path d="M 54.890625 33.015625 
L 54.890625 0 
L 45.90625 0 
L 45.90625 32.71875 
Q 45.90625 40.484375 42.875 44.328125 
Q 39.84375 48.1875 33.796875 48.1875 
Q 26.515625 48.1875 22.3125 43.546875 
Q 18.109375 38.921875 18.109375 30.90625 
L 18.109375 0 
L 9.078125 0 
L 9.078125 54.6875 
L 18.109375 54.6875 
L 18.109375 46.1875 
Q 21.34375 51.125 25.703125 53.5625 
Q 30.078125 56 35.796875 56 
Q 45.21875 56 50.046875 50.171875 
Q 54.890625 44.34375 54.890625 33.015625 
z
" id="DejaVuSans-6e"/>
      <path d="M 9.8125 72.90625 
L 51.703125 72.90625 
L 51.703125 64.59375 
L 19.671875 64.59375 
L 19.671875 43.109375 
L 48.578125 43.109375 
L 48.578125 34.8125 
L 19.671875 34.8125 
L 19.671875 0 
L 9.8125 0 
z
" id="DejaVuSans-46"/>
     </defs>
     <g transform="translate(83.965625 56.654688)scale(0.1 -0.1)">
      <use xlink:href="#DejaVuSans-53"/>
      <use x="63.476562" xlink:href="#DejaVuSans-74"/>
      <use x="102.685547" xlink:href="#DejaVuSans-61"/>
      <use x="163.964844" xlink:href="#DejaVuSans-72"/>
      <use x="205.078125" xlink:href="#DejaVuSans-74"/>
      <use x="244.287109" xlink:href="#DejaVuSans-20"/>
      <use x="276.074219" xlink:href="#DejaVuSans-50"/>
      <use x="336.330078" xlink:href="#DejaVuSans-6f"/>
      <use x="397.511719" xlink:href="#DejaVuSans-69"/>
      <use x="425.294922" xlink:href="#DejaVuSans-6e"/>
      <use x="488.673828" xlink:href="#DejaVuSans-74"/>
      <use x="527.882812" xlink:href="#DejaVuSans-20"/>
      <use x="559.669922" xlink:href="#DejaVuSans-66"/>
      <use x="594.875" xlink:href="#DejaVuSans-6f"/>
      <use x="656.056641" xlink:href="#DejaVuSans-72"/>
      <use x="697.169922" xlink:href="#DejaVuSans-20"/>
      <use x="728.957031" xlink:href="#DejaVuSans-46"/>
      <use x="786.429688" xlink:href="#DejaVuSans-6f"/>
      <use x="847.611328" xlink:href="#DejaVuSans-72"/>
      <use x="888.693359" xlink:href="#DejaVuSans-65"/>
      <use x="950.216797" xlink:href="#DejaVuSans-63"/>
      <use x="1005.197266" xlink:href="#DejaVuSans-61"/>
      <use x="1066.476562" xlink:href="#DejaVuSans-73"/>
      <use x="1118.576172" xlink:href="#DejaVuSans-74"/>
     </g>
    </g>
   </g>
  </g>
  <g id="axes_2">
   <g id="patch_8">
    <path d="M 46.965625 645.74 
L 1164.405625 645.74 
L 1164.405625 516.14 
L 46.965625 516.14 
z
" style="fill:none;"/>
   </g>
   <g id="matplotlib.axis_3">
    <g id="xtick_6">
     <g id="line2d_23">
      <g>
       <use style="stroke:#000000;stroke-width:0.8;" x="97.758352" xlink:href="#mc2eaa29d8a" y="645.74"/>
      </g>
     </g>
     <g id="text_19">
      <!-- 0 -->
      <g transform="translate(94.577102 660.338437)scale(0.1 -0.1)">
       <use xlink:href="#DejaVuSans-30"/>
      </g>
     </g>
    </g>
    <g id="xtick_7">
     <g id="line2d_24">
      <g>
       <use style="stroke:#000000;stroke-width:0.8;" x="222.250331" xlink:href="#mc2eaa29d8a" y="645.74"/>
      </g>
     </g>
     <g id="text_20">
      <!-- 25 -->
      <g transform="translate(215.887831 660.338437)scale(0.1 -0.1)">
       <use xlink:href="#DejaVuSans-32"/>
       <use x="63.623047" xlink:href="#DejaVuSans-35"/>
      </g>
     </g>
    </g>
    <g id="xtick_8">
     <g id="line2d_25">
      <g>
       <use style="stroke:#000000;stroke-width:0.8;" x="346.742309" xlink:href="#mc2eaa29d8a" y="645.74"/>
      </g>
     </g>
     <g id="text_21">
      <!-- 50 -->
      <g transform="translate(340.379809 660.338437)scale(0.1 -0.1)">
       <use xlink:href="#DejaVuSans-35"/>
       <use x="63.623047" xlink:href="#DejaVuSans-30"/>
      </g>
     </g>
    </g>
    <g id="xtick_9">
     <g id="line2d_26">
      <g>
       <use style="stroke:#000000;stroke-width:0.8;" x="471.234288" xlink:href="#mc2eaa29d8a" y="645.74"/>
      </g>
     </g>
     <g id="text_22">
      <!-- 75 -->
      <g transform="translate(464.871788 660.338437)scale(0.1 -0.1)">
       <use xlink:href="#DejaVuSans-37"/>
       <use x="63.623047" xlink:href="#DejaVuSans-35"/>
      </g>
     </g>
    </g>
    <g id="xtick_10">
     <g id="line2d_27">
      <g>
       <use style="stroke:#000000;stroke-width:0.8;" x="595.726267" xlink:href="#mc2eaa29d8a" y="645.74"/>
      </g>
     </g>
     <g id="text_23">
      <!-- 100 -->
      <g transform="translate(586.182517 660.338437)scale(0.1 -0.1)">
       <use xlink:href="#DejaVuSans-31"/>
       <use x="63.623047" xlink:href="#DejaVuSans-30"/>
       <use x="127.246094" xlink:href="#DejaVuSans-30"/>
      </g>
     </g>
    </g>
    <g id="xtick_11">
     <g id="line2d_28">
      <g>
       <use style="stroke:#000000;stroke-width:0.8;" x="720.218245" xlink:href="#mc2eaa29d8a" y="645.74"/>
      </g>
     </g>
     <g id="text_24">
      <!-- 125 -->
      <g transform="translate(710.674495 660.338437)scale(0.1 -0.1)">
       <use xlink:href="#DejaVuSans-31"/>
       <use x="63.623047" xlink:href="#DejaVuSans-32"/>
       <use x="127.246094" xlink:href="#DejaVuSans-35"/>
      </g>
     </g>
    </g>
    <g id="xtick_12">
     <g id="line2d_29">
      <g>
       <use style="stroke:#000000;stroke-width:0.8;" x="844.710224" xlink:href="#mc2eaa29d8a" y="645.74"/>
      </g>
     </g>
     <g id="text_25">
      <!-- 150 -->
      <g transform="translate(835.166474 660.338437)scale(0.1 -0.1)">
       <use xlink:href="#DejaVuSans-31"/>
       <use x="63.623047" xlink:href="#DejaVuSans-35"/>
       <use x="127.246094" xlink:href="#DejaVuSans-30"/>
      </g>
     </g>
    </g>
    <g id="xtick_13">
     <g id="line2d_30">
      <g>
       <use style="stroke:#000000;stroke-width:0.8;" x="969.202203" xlink:href="#mc2eaa29d8a" y="645.74"/>
      </g>
     </g>
     <g id="text_26">
      <!-- 175 -->
      <g transform="translate(959.658453 660.338437)scale(0.1 -0.1)">
       <use xlink:href="#DejaVuSans-31"/>
       <use x="63.623047" xlink:href="#DejaVuSans-37"/>
       <use x="127.246094" xlink:href="#DejaVuSans-35"/>
      </g>
     </g>
    </g>
    <g id="xtick_14">
     <g id="line2d_31">
      <g>
       <use style="stroke:#000000;stroke-width:0.8;" x="1093.694181" xlink:href="#mc2eaa29d8a" y="645.74"/>
      </g>
     </g>
     <g id="text_27">
      <!-- 200 -->
      <g transform="translate(1084.150431 660.338437)scale(0.1 -0.1)">
       <use xlink:href="#DejaVuSans-32"/>
       <use x="63.623047" xlink:href="#DejaVuSans-30"/>
       <use x="127.246094" xlink:href="#DejaVuSans-30"/>
      </g>
     </g>
    </g>
   </g>
   <g id="matplotlib.axis_4">
    <g id="ytick_9">
     <g id="line2d_32">
      <g>
       <use style="stroke:#000000;stroke-width:0.8;" x="46.965625" xlink:href="#m73fde346c6" y="625.241601"/>
      </g>
     </g>
     <g id="text_28">
      <!-- 10 -->
      <g transform="translate(27.240625 629.04082)scale(0.1 -0.1)">
       <use xlink:href="#DejaVuSans-31"/>
       <use x="63.623047" xlink:href="#DejaVuSans-30"/>
      </g>
     </g>
    </g>
    <g id="ytick_10">
     <g id="line2d_33">
      <g>
       <use style="stroke:#000000;stroke-width:0.8;" x="46.965625" xlink:href="#m73fde346c6" y="598.578786"/>
      </g>
     </g>
     <g id="text_29">
      <!-- 15 -->
      <g transform="translate(27.240625 602.378004)scale(0.1 -0.1)">
       <use xlink:href="#DejaVuSans-31"/>
       <use x="63.623047" xlink:href="#DejaVuSans-35"/>
      </g>
     </g>
    </g>
    <g id="ytick_11">
     <g id="line2d_34">
      <g>
       <use style="stroke:#000000;stroke-width:0.8;" x="46.965625" xlink:href="#m73fde346c6" y="571.91597"/>
      </g>
     </g>
     <g id="text_30">
      <!-- 20 -->
      <g transform="translate(27.240625 575.715189)scale(0.1 -0.1)">
       <use xlink:href="#DejaVuSans-32"/>
       <use x="63.623047" xlink:href="#DejaVuSans-30"/>
      </g>
     </g>
    </g>
    <g id="ytick_12">
     <g id="line2d_35">
      <g>
       <use style="stroke:#000000;stroke-width:0.8;" x="46.965625" xlink:href="#m73fde346c6" y="545.253155"/>
      </g>
     </g>
     <g id="text_31">
      <!-- 25 -->
      <g transform="translate(27.240625 549.052374)scale(0.1 -0.1)">
       <use xlink:href="#DejaVuSans-32"/>
       <use x="63.623047" xlink:href="#DejaVuSans-35"/>
      </g>
     </g>
    </g>
    <g id="ytick_13">
     <g id="line2d_36">
      <g>
       <use style="stroke:#000000;stroke-width:0.8;" x="46.965625" xlink:href="#m73fde346c6" y="518.590339"/>
      </g>
     </g>
     <g id="text_32">
      <!-- 30 -->
      <defs>
       <path d="M 40.578125 39.3125 
Q 47.65625 37.796875 51.625 33 
Q 55.609375 28.21875 55.609375 21.1875 
Q 55.609375 10.40625 48.1875 4.484375 
Q 40.765625 -1.421875 27.09375 -1.421875 
Q 22.515625 -1.421875 17.65625 -0.515625 
Q 12.796875 0.390625 7.625 2.203125 
L 7.625 11.71875 
Q 11.71875 9.328125 16.59375 8.109375 
Q 21.484375 6.890625 26.8125 6.890625 
Q 36.078125 6.890625 40.9375 10.546875 
Q 45.796875 14.203125 45.796875 21.1875 
Q 45.796875 27.640625 41.28125 31.265625 
Q 36.765625 34.90625 28.71875 34.90625 
L 20.21875 34.90625 
L 20.21875 43.015625 
L 29.109375 43.015625 
Q 36.375 43.015625 40.234375 45.921875 
Q 44.09375 48.828125 44.09375 54.296875 
Q 44.09375 59.90625 40.109375 62.90625 
Q 36.140625 65.921875 28.71875 65.921875 
Q 24.65625 65.921875 20.015625 65.03125 
Q 15.375 64.15625 9.8125 62.3125 
L 9.8125 71.09375 
Q 15.4375 72.65625 20.34375 73.4375 
Q 25.25 74.21875 29.59375 74.21875 
Q 40.828125 74.21875 47.359375 69.109375 
Q 53.90625 64.015625 53.90625 55.328125 
Q 53.90625 49.265625 50.4375 45.09375 
Q 46.96875 40.921875 40.578125 39.3125 
z
" id="DejaVuSans-33"/>
      </defs>
      <g transform="translate(27.240625 522.389558)scale(0.1 -0.1)">
       <use xlink:href="#DejaVuSans-33"/>
       <use x="63.623047" xlink:href="#DejaVuSans-30"/>
      </g>
     </g>
    </g>
    <g id="text_33">
     <!-- Temperature -->
     <defs>
      <path d="M 18.109375 8.203125 
L 18.109375 -20.796875 
L 9.078125 -20.796875 
L 9.078125 54.6875 
L 18.109375 54.6875 
L 18.109375 46.390625 
Q 20.953125 51.265625 25.265625 53.625 
Q 29.59375 56 35.59375 56 
Q 45.5625 56 51.78125 48.09375 
Q 58.015625 40.1875 58.015625 27.296875 
Q 58.015625 14.40625 51.78125 6.484375 
Q 45.5625 -1.421875 35.59375 -1.421875 
Q 29.59375 -1.421875 25.265625 0.953125 
Q 20.953125 3.328125 18.109375 8.203125 
z
M 48.6875 27.296875 
Q 48.6875 37.203125 44.609375 42.84375 
Q 40.53125 48.484375 33.40625 48.484375 
Q 26.265625 48.484375 22.1875 42.84375 
Q 18.109375 37.203125 18.109375 27.296875 
Q 18.109375 17.390625 22.1875 11.75 
Q 26.265625 6.109375 33.40625 6.109375 
Q 40.53125 6.109375 44.609375 11.75 
Q 48.6875 17.390625 48.6875 27.296875 
z
" id="DejaVuSans-70"/>
     </defs>
     <g style="fill:#0000ff;" transform="translate(21.160938 613.557187)rotate(-90)scale(0.1 -0.1)">
      <use xlink:href="#DejaVuSans-54"/>
      <use x="60.818359" xlink:href="#DejaVuSans-65"/>
      <use x="122.341797" xlink:href="#DejaVuSans-6d"/>
      <use x="219.753906" xlink:href="#DejaVuSans-70"/>
      <use x="283.230469" xlink:href="#DejaVuSans-65"/>
      <use x="344.753906" xlink:href="#DejaVuSans-72"/>
      <use x="385.867188" xlink:href="#DejaVuSans-61"/>
      <use x="447.146484" xlink:href="#DejaVuSans-74"/>
      <use x="486.355469" xlink:href="#DejaVuSans-75"/>
      <use x="549.734375" xlink:href="#DejaVuSans-72"/>
      <use x="590.816406" xlink:href="#DejaVuSans-65"/>
     </g>
    </g>
   </g>
   <g id="line2d_37">
    <path clip-path="url(#peb564b255d)" d="M 97.758352 549.421086 
L 102.738031 547.759993 
L 107.717711 544.715632 
L 112.69739 540.872987 
L 117.677069 539.380403 
L 122.656748 535.786789 
L 127.636427 537.643054 
L 132.616106 528.670483 
L 137.595785 531.703645 
L 142.575465 531.435951 
L 147.555144 537.675583 
L 152.534823 544.327955 
L 157.514502 549.144859 
L 162.494181 543.314235 
L 167.47386 539.972318 
L 172.453539 537.41482 
L 177.433219 533.973717 
L 182.412898 531.783634 
L 187.392577 530.416898 
L 192.372256 530.724053 
L 197.351935 528.713144 
L 202.331614 533.153569 
L 207.311293 546.391124 
L 212.290973 552.211083 
L 217.270652 551.44746 
L 222.250331 549.88182 
L 227.23001 544.515661 
L 232.209689 537.013812 
L 237.189368 538.727697 
L 242.169047 531.102132 
L 247.148727 529.879375 
L 252.128406 533.242623 
L 257.108085 524.953687 
L 262.087764 531.298904 
L 267.067443 538.54639 
L 272.047122 543.325966 
L 277.026801 549.114464 
L 282.006481 546.185287 
L 286.98616 540.068304 
L 291.965839 540.209083 
L 296.945518 538.295226 
L 301.925197 529.441039 
L 306.904876 526.20204 
L 311.884555 522.763603 
L 316.864235 530.985349 
L 321.843914 534.242479 
L 326.823593 540.338665 
L 331.803272 542.331977 
L 336.782951 546.042374 
L 341.76263 545.911193 
L 346.742309 541.334254 
L 351.721989 533.921458 
L 356.701668 533.669228 
L 361.681347 531.233846 
L 366.661026 525.518939 
L 371.640705 524.695058 
L 376.620384 523.98956 
L 381.600064 527.994314 
L 386.579743 542.048818 
L 391.559422 548.007424 
L 396.539101 550.184709 
L 401.51878 554.477422 
L 406.498459 541.559288 
L 411.478138 537.534803 
L 421.437497 533.962519 
L 426.417176 525.668784 
L 431.396855 528.567032 
L 436.376534 527.765547 
L 441.356213 530.334243 
L 446.335892 536.759448 
L 451.315572 544.025599 
L 456.295251 546.411387 
L 461.27493 544.66604 
L 466.254609 546.067437 
L 471.234288 543.516339 
L 476.213967 538.52506 
L 481.193646 533.016522 
L 486.173326 530.650464 
L 491.153005 527.029654 
L 496.132684 529.299193 
L 501.112363 534.280873 
L 506.092042 540.288539 
L 511.071721 542.294649 
L 516.0514 540.502908 
L 521.03108 540.200551 
L 526.010759 544.095455 
L 530.990438 539.283884 
L 535.970117 536.4027 
L 540.949796 533.369005 
L 545.929475 522.709211 
L 550.909154 530.860567 
L 555.888834 537.071936 
L 560.868513 539.251355 
L 565.848192 542.373571 
L 570.827871 547.842114 
L 575.80755 548.605737 
L 580.787229 543.306769 
L 585.766908 543.878953 
L 590.746588 546.339931 
L 595.726267 541.378514 
L 600.705946 538.934601 
L 605.685625 533.346608 
L 610.665304 530.019089 
L 615.644983 530.331577 
L 625.604342 541.889374 
L 630.584021 544.956664 
L 635.5637 542.927624 
L 640.543379 537.679315 
L 645.523058 539.004457 
L 650.502737 543.153725 
L 655.482416 536.961552 
L 660.462096 536.426696 
L 665.441775 531.135727 
L 670.421454 528.30147 
L 675.401133 532.417142 
L 680.380812 532.77869 
L 685.360491 537.585996 
L 690.34017 543.977606 
L 695.31985 543.874154 
L 700.299529 545.360339 
L 705.279208 541.437173 
L 710.258887 538.759693 
L 715.238566 535.20074 
L 720.218245 529.530626 
L 725.197924 527.438661 
L 730.177604 525.774368 
L 735.157283 525.860756 
L 740.136962 528.267342 
L 745.116641 535.636944 
L 750.09632 543.391024 
L 755.075999 547.219804 
L 760.055678 546.343664 
L 765.035358 545.057983 
L 770.015037 542.425297 
L 774.994716 540.727942 
L 779.974395 535.698802 
L 784.954074 530.255854 
L 789.933753 530.198263 
L 794.913432 532.435273 
L 799.893112 533.800409 
L 804.872791 539.844336 
L 809.85247 539.186831 
L 814.832149 549.232313 
L 819.811828 547.855446 
L 829.771186 541.345453 
L 834.750866 534.634955 
L 839.730545 533.742817 
L 844.710224 530.58914 
L 849.689903 528.780334 
L 854.669582 527.239223 
L 859.649261 531.030143 
L 864.628941 532.308891 
L 869.60862 538.814085 
L 874.588299 539.572909 
L 879.567978 541.395579 
L 884.547657 538.934601 
L 889.527336 537.649453 
L 894.507015 535.058361 
L 899.486695 536.085412 
L 904.466374 530.905361 
L 909.446053 527.991115 
L 914.425732 530.328377 
L 919.405411 528.098833 
L 924.38509 539.139904 
L 929.364769 544.263964 
L 934.344449 548.770513 
L 939.324128 546.937711 
L 944.303807 539.247089 
L 949.283486 538.635977 
L 954.263165 537.592395 
L 959.242844 533.395134 
L 964.222523 530.665395 
L 969.202203 528.573964 
L 974.181882 530.403033 
L 979.161561 533.327944 
L 984.14124 534.139027 
L 989.120919 537.094867 
L 994.100598 545.324611 
L 999.080277 541.36145 
L 1004.059957 537.645187 
L 1014.019315 533.570042 
L 1018.998994 531.838559 
L 1023.978673 530.606737 
L 1028.958352 528.035908 
L 1033.938031 529.231469 
L 1043.89739 535.415642 
L 1048.877069 533.978517 
L 1053.856748 538.312291 
L 1058.836427 535.077558 
L 1063.816106 534.633355 
L 1068.795785 533.268753 
L 1073.775465 529.171744 
L 1078.755144 526.725164 
L 1083.734823 522.953976 
L 1088.714502 524.419897 
L 1093.694181 522.030909 
L 1098.67386 525.46348 
L 1103.653539 533.439395 
L 1108.633219 537.426552 
L 1113.612898 540.758337 
L 1113.612898 540.758337 
" style="fill:none;stroke:#ff0000;stroke-linecap:square;stroke-width:1.5;"/>
   </g>
   <g id="line2d_38">
    <path clip-path="url(#peb564b255d)" d="M 97.758352 578.780579 
L 102.738031 580.17611 
L 107.717711 571.831716 
L 112.69739 572.464691 
L 117.677069 572.603871 
L 122.656748 568.166112 
L 127.636427 567.633389 
L 132.616106 562.213372 
L 137.595785 564.803931 
L 142.575465 562.331221 
L 147.555144 570.23248 
L 152.534823 574.250566 
L 157.514502 579.342631 
L 162.494181 570.542302 
L 167.47386 571.61628 
L 172.453539 567.154525 
L 177.433219 563.761948 
L 182.412898 561.781434 
L 187.392577 559.510295 
L 192.372256 557.640699 
L 197.351935 560.809841 
L 202.331614 562.45547 
L 207.311293 578.144404 
L 212.290973 580.024132 
L 217.270652 579.712177 
L 222.250331 578.315046 
L 227.23001 573.538669 
L 232.209689 570.018644 
L 237.189368 569.738685 
L 242.169047 562.581852 
L 247.148727 559.696935 
L 252.128406 559.972095 
L 257.108085 554.319579 
L 262.087764 560.203529 
L 267.067443 568.187975 
L 272.047122 575.085112 
L 277.026801 578.240923 
L 282.006481 575.282417 
L 286.98616 569.780279 
L 291.965839 571.168345 
L 296.945518 567.035075 
L 301.925197 556.578985 
L 306.904876 553.790588 
L 311.884555 552.317734 
L 316.864235 560.657863 
L 321.843914 562.75196 
L 326.823593 568.588984 
L 331.803272 572.199129 
L 336.782951 573.195252 
L 341.76263 576.803264 
L 346.742309 572.471623 
L 351.721989 565.332388 
L 356.701668 563.927791 
L 361.681347 560.386436 
L 366.661026 557.461525 
L 371.640705 555.294371 
L 376.620384 555.206384 
L 381.600064 560.413098 
L 386.579743 571.048895 
L 391.559422 576.484377 
L 396.539101 580.815485 
L 401.51878 583.630545 
L 406.498459 573.032076 
L 411.478138 567.294771 
L 416.457818 566.908693 
L 421.437497 564.750072 
L 426.417176 556.324089 
L 431.396855 557.37567 
L 436.376534 558.163823 
L 441.356213 560.651464 
L 451.315572 575.112842 
L 456.295251 578.4025 
L 461.27493 575.892996 
L 466.254609 572.070081 
L 471.234288 572.024221 
L 476.213967 568.763359 
L 481.193646 563.694224 
L 486.173326 559.967296 
L 491.153005 557.35434 
L 496.132684 557.109576 
L 501.112363 564.565565 
L 506.092042 572.410299 
L 511.071721 572.363905 
L 516.0514 573.674116 
L 521.03108 573.76317 
L 526.010759 573.434684 
L 530.990438 567.154525 
L 540.949796 562.750894 
L 545.929475 553.399178 
L 550.909154 558.145159 
L 555.888834 560.030754 
L 560.868513 568.011467 
L 565.848192 572.185798 
L 570.827871 576.92698 
L 575.80755 579.676982 
L 580.787229 575.999114 
L 585.766908 571.978361 
L 590.746588 573.703979 
L 595.726267 569.583507 
L 600.705946 566.547679 
L 605.685625 560.381103 
L 610.665304 558.432584 
L 615.644983 558.168089 
L 620.624662 563.649431 
L 625.604342 570.141293 
L 630.584021 573.467213 
L 635.5637 572.706256 
L 640.543379 569.200096 
L 645.523058 566.90656 
L 650.502737 567.145459 
L 655.482416 565.508362 
L 660.462096 564.193352 
L 665.441775 559.161546 
L 670.421454 558.145159 
L 675.401133 561.005546 
L 680.380812 565.26893 
L 685.360491 569.186231 
L 690.34017 574.302825 
L 695.31985 575.178432 
L 700.299529 573.844225 
L 705.279208 569.98025 
L 710.258887 568.078124 
L 715.238566 565.581418 
L 720.218245 558.981838 
L 725.197924 555.917214 
L 730.177604 554.343575 
L 735.157283 556.005202 
L 740.136962 559.261798 
L 750.09632 573.733841 
L 755.075999 576.032709 
L 760.055678 575.062716 
L 765.035358 573.722643 
L 770.015037 571.749061 
L 774.994716 571.152347 
L 779.974395 567.190786 
L 784.954074 561.153258 
L 789.933753 562.594117 
L 794.913432 564.167756 
L 799.893112 566.619668 
L 804.872791 569.658163 
L 809.85247 569.630967 
L 814.832149 576.183087 
L 819.811828 573.910882 
L 824.791507 573.886352 
L 829.771186 570.21115 
L 834.750866 563.765681 
L 839.730545 564.731408 
L 844.710224 557.068515 
L 849.689903 557.987315 
L 854.669582 555.764703 
L 859.649261 558.091834 
L 864.628941 561.778234 
L 869.60862 566.501819 
L 874.588299 569.101443 
L 879.567978 569.81494 
L 884.547657 567.376359 
L 889.527336 563.775279 
L 894.507015 563.054317 
L 899.486695 561.433751 
L 904.466374 556.887741 
L 909.446053 555.795632 
L 914.425732 557.462591 
L 919.405411 562.22617 
L 924.38509 566.278384 
L 929.364769 572.995814 
L 934.344449 576.957375 
L 939.324128 575.257354 
L 944.303807 569.121707 
L 949.283486 568.472734 
L 954.263165 565.276396 
L 959.242844 559.945966 
L 964.222523 556.309691 
L 969.202203 556.38488 
L 974.181882 557.609237 
L 979.161561 560.03182 
L 984.14124 562.249633 
L 989.120919 565.787789 
L 994.100598 573.178721 
L 999.080277 572.315379 
L 1004.059957 568.889741 
L 1009.039636 565.934967 
L 1014.019315 563.889929 
L 1018.998994 560.106476 
L 1023.978673 557.453526 
L 1028.958352 552.11883 
L 1033.938031 554.970684 
L 1038.917711 558.515239 
L 1043.89739 560.556544 
L 1048.877069 564.099499 
L 1053.856748 568.883342 
L 1058.836427 566.918825 
L 1063.816106 563.748083 
L 1068.795785 560.021155 
L 1073.775465 557.770813 
L 1078.755144 556.359817 
L 1083.734823 550.026865 
L 1088.714502 551.987649 
L 1093.694181 549.604526 
L 1098.67386 554.8619 
L 1103.653539 560.487754 
L 1108.633219 566.95722 
L 1113.612898 567.908016 
L 1113.612898 567.908016 
" style="fill:none;stroke:#008000;stroke-linecap:square;stroke-width:1.5;"/>
   </g>
   <g id="line2d_39">
    <path clip-path="url(#peb564b255d)" d="M 97.758352 607.410576 
L 102.738031 608.278184 
L 107.717711 601.318123 
L 112.69739 598.305758 
L 117.677069 599.813807 
L 122.656748 593.225959 
L 127.636427 590.041885 
L 132.616106 587.064182 
L 137.595785 588.678882 
L 142.575465 588.21015 
L 147.555144 596.677194 
L 152.534823 599.47039 
L 157.514502 605.459392 
L 162.494181 600.035108 
L 167.47386 598.924869 
L 172.453539 596.01009 
L 177.433219 594.007179 
L 182.412898 586.975128 
L 187.392577 584.93329 
L 192.372256 585.69158 
L 197.351935 582.728275 
L 202.331614 588.037375 
L 207.311293 596.853701 
L 217.270652 605.26582 
L 222.250331 610.674105 
L 227.23001 599.868199 
L 232.209689 595.467768 
L 237.189368 593.978917 
L 242.169047 588.390924 
L 247.148727 588.860189 
L 252.128406 586.725564 
L 257.108085 579.432218 
L 262.087764 583.724931 
L 267.067443 600.512906 
L 272.047122 603.652186 
L 277.026801 601.093089 
L 282.006481 604.244634 
L 286.98616 599.58664 
L 291.965839 593.064915 
L 296.945518 592.509795 
L 301.925197 583.4759 
L 311.884555 574.065526 
L 316.864235 583.051962 
L 321.843914 592.285295 
L 326.823593 597.585862 
L 331.803272 596.567876 
L 336.782951 609.7857 
L 341.76263 613.186276 
L 346.742309 603.473545 
L 351.721989 595.80372 
L 356.701668 595.809586 
L 361.681347 586.854612 
L 366.661026 582.279273 
L 371.640705 582.343797 
L 376.620384 581.371671 
L 381.600064 586.869544 
L 386.579743 594.430051 
L 391.559422 600.015911 
L 396.539101 603.197318 
L 401.51878 608.334176 
L 406.498459 597.628523 
L 411.478138 592.482599 
L 416.457818 591.67045 
L 421.437497 589.072959 
L 426.417176 579.296237 
L 431.396855 581.238357 
L 436.376534 580.124384 
L 441.356213 586.897273 
L 446.335892 596.853168 
L 451.315572 603.60046 
L 456.295251 607.399911 
L 461.27493 606.978639 
L 466.254609 604.593383 
L 471.234288 599.940722 
L 476.213967 598.321223 
L 481.193646 587.758482 
L 486.173326 584.215527 
L 491.153005 578.594472 
L 496.132684 583.743595 
L 501.112363 591.639521 
L 506.092042 603.113597 
L 511.071721 601.986293 
L 516.0514 603.110398 
L 521.03108 601.924969 
L 526.010759 603.856423 
L 530.990438 595.689603 
L 535.970117 591.770169 
L 540.949796 586.342686 
L 545.929475 575.185365 
L 550.909154 587.251355 
L 555.888834 587.418264 
L 560.868513 595.787722 
L 565.848192 601.772458 
L 570.827871 608.19233 
L 575.80755 610.412809 
L 580.787229 607.327388 
L 585.766908 603.745506 
L 590.746588 602.423563 
L 595.726267 597.570931 
L 600.705946 593.102776 
L 605.685625 583.761192 
L 610.665304 582.415787 
L 615.644983 583.762259 
L 620.624662 591.034275 
L 625.604342 603.659652 
L 630.584021 599.821806 
L 635.5637 600.425985 
L 640.543379 603.100799 
L 645.523058 596.224992 
L 650.502737 596.623868 
L 655.482416 593.089445 
L 660.462096 590.644465 
L 665.441775 581.482055 
L 670.421454 581.139704 
L 675.401133 583.582018 
L 680.380812 584.72532 
L 685.360491 592.447404 
L 690.34017 599.244823 
L 695.31985 597.564532 
L 700.299529 602.259321 
L 705.279208 598.994725 
L 710.258887 596.44896 
L 715.238566 589.682471 
L 720.218245 582.253677 
L 725.197924 579.907349 
L 730.177604 577.337587 
L 735.157283 580.555256 
L 740.136962 581.03412 
L 745.116641 590.625268 
L 750.09632 597.870088 
L 755.075999 605.588973 
L 760.055678 605.332477 
L 765.035358 600.317201 
L 770.015037 597.954876 
L 774.994716 599.032587 
L 779.974395 591.737107 
L 784.954074 586.103254 
L 789.933753 584.634133 
L 794.913432 588.094433 
L 799.893112 589.363583 
L 804.872791 594.00398 
L 809.85247 590.394368 
L 814.832149 597.560266 
L 819.811828 604.429674 
L 824.791507 600.755004 
L 829.771186 600.445716 
L 834.750866 593.504852 
L 839.730545 591.304636 
L 844.710224 582.657352 
L 849.689903 587.376137 
L 854.669582 581.035186 
L 859.649261 586.021666 
L 864.628941 592.676705 
L 869.60862 595.9413 
L 874.588299 599.383469 
L 879.567978 600.018578 
L 884.547657 595.168078 
L 894.507015 591.393157 
L 899.486695 584.431496 
L 904.466374 582.286739 
L 909.446053 577.640477 
L 914.425732 579.190653 
L 919.405411 589.872843 
L 924.38509 591.899217 
L 929.364769 595.637344 
L 934.344449 605.048251 
L 939.324128 604.04253 
L 944.303807 600.298537 
L 949.283486 595.680004 
L 954.263165 591.553134 
L 959.242844 585.237779 
L 964.222523 581.177032 
L 969.202203 583.149014 
L 974.181882 583.118085 
L 979.161561 588.425585 
L 984.14124 589.478767 
L 994.100598 603.179721 
L 999.080277 602.127073 
L 1004.059957 600.100699 
L 1009.039636 593.780012 
L 1014.019315 588.882053 
L 1018.998994 585.0938 
L 1023.978673 581.6319 
L 1028.958352 577.479966 
L 1033.938031 578.359306 
L 1038.917711 582.913315 
L 1043.89739 588.432518 
L 1048.877069 591.793632 
L 1053.856748 597.489876 
L 1058.836427 594.030642 
L 1063.816106 592.644709 
L 1068.795785 589.175877 
L 1073.775465 585.282039 
L 1078.755144 585.638788 
L 1083.734823 580.2497 
L 1088.714502 576.436384 
L 1093.694181 579.449282 
L 1098.67386 586.349085 
L 1103.653539 598.202307 
L 1108.633219 602.84057 
L 1113.612898 603.443683 
L 1113.612898 603.443683 
" style="fill:none;stroke:#0000ff;stroke-linecap:square;stroke-width:1.5;"/>
   </g>
   <g id="line2d_40">
    <defs>
     <path d="M 0 3 
C 0.795609 3 1.55874 2.683901 2.12132 2.12132 
C 2.683901 1.55874 3 0.795609 3 0 
C 3 -0.795609 2.683901 -1.55874 2.12132 -2.12132 
C 1.55874 -2.683901 0.795609 -3 0 -3 
C -0.795609 -3 -1.55874 -2.683901 -2.12132 -2.12132 
C -2.683901 -1.55874 -3 -0.795609 -3 0 
C -3 0.795609 -2.683901 1.55874 -2.12132 2.12132 
C -1.55874 2.683901 -0.795609 3 0 3 
z
" id="m3dedcfd098" style="stroke:#ff0000;"/>
    </defs>
    <g clip-path="url(#peb564b255d)">
     <use style="fill:#ff0000;stroke:#ff0000;" x="112.69739" xlink:href="#m3dedcfd098" y="639.849091"/>
     <use style="fill:#ff0000;stroke:#ff0000;" x="117.677069" xlink:href="#m3dedcfd098" y="639.849091"/>
     <use style="fill:#ff0000;stroke:#ff0000;" x="137.595785" xlink:href="#m3dedcfd098" y="639.849091"/>
     <use style="fill:#ff0000;stroke:#ff0000;" x="167.47386" xlink:href="#m3dedcfd098" y="639.849091"/>
     <use style="fill:#ff0000;stroke:#ff0000;" x="197.351935" xlink:href="#m3dedcfd098" y="639.849091"/>
     <use style="fill:#ff0000;stroke:#ff0000;" x="202.331614" xlink:href="#m3dedcfd098" y="639.849091"/>
     <use style="fill:#ff0000;stroke:#ff0000;" x="212.290973" xlink:href="#m3dedcfd098" y="639.849091"/>
     <use style="fill:#ff0000;stroke:#ff0000;" x="222.250331" xlink:href="#m3dedcfd098" y="639.849091"/>
     <use style="fill:#ff0000;stroke:#ff0000;" x="232.209689" xlink:href="#m3dedcfd098" y="639.849091"/>
     <use style="fill:#ff0000;stroke:#ff0000;" x="242.169047" xlink:href="#m3dedcfd098" y="639.849091"/>
     <use style="fill:#ff0000;stroke:#ff0000;" x="252.128406" xlink:href="#m3dedcfd098" y="639.849091"/>
     <use style="fill:#ff0000;stroke:#ff0000;" x="257.108085" xlink:href="#m3dedcfd098" y="639.849091"/>
     <use style="fill:#ff0000;stroke:#ff0000;" x="262.087764" xlink:href="#m3dedcfd098" y="639.849091"/>
     <use style="fill:#ff0000;stroke:#ff0000;" x="267.067443" xlink:href="#m3dedcfd098" y="639.849091"/>
     <use style="fill:#ff0000;stroke:#ff0000;" x="272.047122" xlink:href="#m3dedcfd098" y="639.849091"/>
     <use style="fill:#ff0000;stroke:#ff0000;" x="277.026801" xlink:href="#m3dedcfd098" y="639.849091"/>
     <use style="fill:#ff0000;stroke:#ff0000;" x="282.006481" xlink:href="#m3dedcfd098" y="639.849091"/>
     <use style="fill:#ff0000;stroke:#ff0000;" x="286.98616" xlink:href="#m3dedcfd098" y="639.849091"/>
     <use style="fill:#ff0000;stroke:#ff0000;" x="291.965839" xlink:href="#m3dedcfd098" y="639.849091"/>
     <use style="fill:#ff0000;stroke:#ff0000;" x="296.945518" xlink:href="#m3dedcfd098" y="639.849091"/>
     <use style="fill:#ff0000;stroke:#ff0000;" x="301.925197" xlink:href="#m3dedcfd098" y="639.849091"/>
     <use style="fill:#ff0000;stroke:#ff0000;" x="306.904876" xlink:href="#m3dedcfd098" y="639.849091"/>
     <use style="fill:#ff0000;stroke:#ff0000;" x="311.884555" xlink:href="#m3dedcfd098" y="639.849091"/>
     <use style="fill:#ff0000;stroke:#ff0000;" x="336.782951" xlink:href="#m3dedcfd098" y="639.849091"/>
     <use style="fill:#ff0000;stroke:#ff0000;" x="341.76263" xlink:href="#m3dedcfd098" y="639.849091"/>
     <use style="fill:#ff0000;stroke:#ff0000;" x="361.681347" xlink:href="#m3dedcfd098" y="639.849091"/>
     <use style="fill:#ff0000;stroke:#ff0000;" x="366.661026" xlink:href="#m3dedcfd098" y="639.849091"/>
     <use style="fill:#ff0000;stroke:#ff0000;" x="371.640705" xlink:href="#m3dedcfd098" y="639.849091"/>
     <use style="fill:#ff0000;stroke:#ff0000;" x="376.620384" xlink:href="#m3dedcfd098" y="639.849091"/>
     <use style="fill:#ff0000;stroke:#ff0000;" x="381.600064" xlink:href="#m3dedcfd098" y="639.849091"/>
     <use style="fill:#ff0000;stroke:#ff0000;" x="386.579743" xlink:href="#m3dedcfd098" y="639.849091"/>
     <use style="fill:#ff0000;stroke:#ff0000;" x="391.559422" xlink:href="#m3dedcfd098" y="639.849091"/>
     <use style="fill:#ff0000;stroke:#ff0000;" x="396.539101" xlink:href="#m3dedcfd098" y="639.849091"/>
     <use style="fill:#ff0000;stroke:#ff0000;" x="401.51878" xlink:href="#m3dedcfd098" y="639.849091"/>
     <use style="fill:#ff0000;stroke:#ff0000;" x="406.498459" xlink:href="#m3dedcfd098" y="639.849091"/>
     <use style="fill:#ff0000;stroke:#ff0000;" x="411.478138" xlink:href="#m3dedcfd098" y="639.849091"/>
     <use style="fill:#ff0000;stroke:#ff0000;" x="416.457818" xlink:href="#m3dedcfd098" y="639.849091"/>
     <use style="fill:#ff0000;stroke:#ff0000;" x="421.437497" xlink:href="#m3dedcfd098" y="639.849091"/>
     <use style="fill:#ff0000;stroke:#ff0000;" x="451.315572" xlink:href="#m3dedcfd098" y="639.849091"/>
     <use style="fill:#ff0000;stroke:#ff0000;" x="466.254609" xlink:href="#m3dedcfd098" y="639.849091"/>
     <use style="fill:#ff0000;stroke:#ff0000;" x="486.173326" xlink:href="#m3dedcfd098" y="639.849091"/>
     <use style="fill:#ff0000;stroke:#ff0000;" x="491.153005" xlink:href="#m3dedcfd098" y="639.849091"/>
     <use style="fill:#ff0000;stroke:#ff0000;" x="496.132684" xlink:href="#m3dedcfd098" y="639.849091"/>
     <use style="fill:#ff0000;stroke:#ff0000;" x="501.112363" xlink:href="#m3dedcfd098" y="639.849091"/>
     <use style="fill:#ff0000;stroke:#ff0000;" x="545.929475" xlink:href="#m3dedcfd098" y="639.849091"/>
     <use style="fill:#ff0000;stroke:#ff0000;" x="550.909154" xlink:href="#m3dedcfd098" y="639.849091"/>
     <use style="fill:#ff0000;stroke:#ff0000;" x="560.868513" xlink:href="#m3dedcfd098" y="639.849091"/>
     <use style="fill:#ff0000;stroke:#ff0000;" x="565.848192" xlink:href="#m3dedcfd098" y="639.849091"/>
     <use style="fill:#ff0000;stroke:#ff0000;" x="570.827871" xlink:href="#m3dedcfd098" y="639.849091"/>
     <use style="fill:#ff0000;stroke:#ff0000;" x="575.80755" xlink:href="#m3dedcfd098" y="639.849091"/>
     <use style="fill:#ff0000;stroke:#ff0000;" x="580.787229" xlink:href="#m3dedcfd098" y="639.849091"/>
     <use style="fill:#ff0000;stroke:#ff0000;" x="610.665304" xlink:href="#m3dedcfd098" y="639.849091"/>
     <use style="fill:#ff0000;stroke:#ff0000;" x="615.644983" xlink:href="#m3dedcfd098" y="639.849091"/>
     <use style="fill:#ff0000;stroke:#ff0000;" x="675.401133" xlink:href="#m3dedcfd098" y="639.849091"/>
     <use style="fill:#ff0000;stroke:#ff0000;" x="680.380812" xlink:href="#m3dedcfd098" y="639.849091"/>
     <use style="fill:#ff0000;stroke:#ff0000;" x="685.360491" xlink:href="#m3dedcfd098" y="639.849091"/>
     <use style="fill:#ff0000;stroke:#ff0000;" x="690.34017" xlink:href="#m3dedcfd098" y="639.849091"/>
     <use style="fill:#ff0000;stroke:#ff0000;" x="695.31985" xlink:href="#m3dedcfd098" y="639.849091"/>
     <use style="fill:#ff0000;stroke:#ff0000;" x="700.299529" xlink:href="#m3dedcfd098" y="639.849091"/>
     <use style="fill:#ff0000;stroke:#ff0000;" x="720.218245" xlink:href="#m3dedcfd098" y="639.849091"/>
     <use style="fill:#ff0000;stroke:#ff0000;" x="725.197924" xlink:href="#m3dedcfd098" y="639.849091"/>
     <use style="fill:#ff0000;stroke:#ff0000;" x="730.177604" xlink:href="#m3dedcfd098" y="639.849091"/>
     <use style="fill:#ff0000;stroke:#ff0000;" x="735.157283" xlink:href="#m3dedcfd098" y="639.849091"/>
     <use style="fill:#ff0000;stroke:#ff0000;" x="740.136962" xlink:href="#m3dedcfd098" y="639.849091"/>
     <use style="fill:#ff0000;stroke:#ff0000;" x="755.075999" xlink:href="#m3dedcfd098" y="639.849091"/>
     <use style="fill:#ff0000;stroke:#ff0000;" x="760.055678" xlink:href="#m3dedcfd098" y="639.849091"/>
     <use style="fill:#ff0000;stroke:#ff0000;" x="765.035358" xlink:href="#m3dedcfd098" y="639.849091"/>
     <use style="fill:#ff0000;stroke:#ff0000;" x="770.015037" xlink:href="#m3dedcfd098" y="639.849091"/>
     <use style="fill:#ff0000;stroke:#ff0000;" x="774.994716" xlink:href="#m3dedcfd098" y="639.849091"/>
     <use style="fill:#ff0000;stroke:#ff0000;" x="779.974395" xlink:href="#m3dedcfd098" y="639.849091"/>
     <use style="fill:#ff0000;stroke:#ff0000;" x="784.954074" xlink:href="#m3dedcfd098" y="639.849091"/>
     <use style="fill:#ff0000;stroke:#ff0000;" x="789.933753" xlink:href="#m3dedcfd098" y="639.849091"/>
     <use style="fill:#ff0000;stroke:#ff0000;" x="804.872791" xlink:href="#m3dedcfd098" y="639.849091"/>
     <use style="fill:#ff0000;stroke:#ff0000;" x="809.85247" xlink:href="#m3dedcfd098" y="639.849091"/>
     <use style="fill:#ff0000;stroke:#ff0000;" x="829.771186" xlink:href="#m3dedcfd098" y="639.849091"/>
     <use style="fill:#ff0000;stroke:#ff0000;" x="839.730545" xlink:href="#m3dedcfd098" y="639.849091"/>
     <use style="fill:#ff0000;stroke:#ff0000;" x="844.710224" xlink:href="#m3dedcfd098" y="639.849091"/>
     <use style="fill:#ff0000;stroke:#ff0000;" x="849.689903" xlink:href="#m3dedcfd098" y="639.849091"/>
     <use style="fill:#ff0000;stroke:#ff0000;" x="854.669582" xlink:href="#m3dedcfd098" y="639.849091"/>
     <use style="fill:#ff0000;stroke:#ff0000;" x="859.649261" xlink:href="#m3dedcfd098" y="639.849091"/>
     <use style="fill:#ff0000;stroke:#ff0000;" x="864.628941" xlink:href="#m3dedcfd098" y="639.849091"/>
     <use style="fill:#ff0000;stroke:#ff0000;" x="869.60862" xlink:href="#m3dedcfd098" y="639.849091"/>
     <use style="fill:#ff0000;stroke:#ff0000;" x="889.527336" xlink:href="#m3dedcfd098" y="639.849091"/>
     <use style="fill:#ff0000;stroke:#ff0000;" x="904.466374" xlink:href="#m3dedcfd098" y="639.849091"/>
     <use style="fill:#ff0000;stroke:#ff0000;" x="909.446053" xlink:href="#m3dedcfd098" y="639.849091"/>
     <use style="fill:#ff0000;stroke:#ff0000;" x="939.324128" xlink:href="#m3dedcfd098" y="639.849091"/>
     <use style="fill:#ff0000;stroke:#ff0000;" x="944.303807" xlink:href="#m3dedcfd098" y="639.849091"/>
     <use style="fill:#ff0000;stroke:#ff0000;" x="949.283486" xlink:href="#m3dedcfd098" y="639.849091"/>
     <use style="fill:#ff0000;stroke:#ff0000;" x="954.263165" xlink:href="#m3dedcfd098" y="639.849091"/>
     <use style="fill:#ff0000;stroke:#ff0000;" x="959.242844" xlink:href="#m3dedcfd098" y="639.849091"/>
     <use style="fill:#ff0000;stroke:#ff0000;" x="964.222523" xlink:href="#m3dedcfd098" y="639.849091"/>
     <use style="fill:#ff0000;stroke:#ff0000;" x="969.202203" xlink:href="#m3dedcfd098" y="639.849091"/>
     <use style="fill:#ff0000;stroke:#ff0000;" x="974.181882" xlink:href="#m3dedcfd098" y="639.849091"/>
     <use style="fill:#ff0000;stroke:#ff0000;" x="979.161561" xlink:href="#m3dedcfd098" y="639.849091"/>
     <use style="fill:#ff0000;stroke:#ff0000;" x="984.14124" xlink:href="#m3dedcfd098" y="639.849091"/>
     <use style="fill:#ff0000;stroke:#ff0000;" x="989.120919" xlink:href="#m3dedcfd098" y="639.849091"/>
     <use style="fill:#ff0000;stroke:#ff0000;" x="994.100598" xlink:href="#m3dedcfd098" y="639.849091"/>
     <use style="fill:#ff0000;stroke:#ff0000;" x="999.080277" xlink:href="#m3dedcfd098" y="639.849091"/>
     <use style="fill:#ff0000;stroke:#ff0000;" x="1004.059957" xlink:href="#m3dedcfd098" y="639.849091"/>
     <use style="fill:#ff0000;stroke:#ff0000;" x="1009.039636" xlink:href="#m3dedcfd098" y="639.849091"/>
     <use style="fill:#ff0000;stroke:#ff0000;" x="1014.019315" xlink:href="#m3dedcfd098" y="639.849091"/>
     <use style="fill:#ff0000;stroke:#ff0000;" x="1018.998994" xlink:href="#m3dedcfd098" y="639.849091"/>
     <use style="fill:#ff0000;stroke:#ff0000;" x="1023.978673" xlink:href="#m3dedcfd098" y="639.849091"/>
     <use style="fill:#ff0000;stroke:#ff0000;" x="1033.938031" xlink:href="#m3dedcfd098" y="639.849091"/>
     <use style="fill:#ff0000;stroke:#ff0000;" x="1038.917711" xlink:href="#m3dedcfd098" y="639.849091"/>
     <use style="fill:#ff0000;stroke:#ff0000;" x="1043.89739" xlink:href="#m3dedcfd098" y="639.849091"/>
     <use style="fill:#ff0000;stroke:#ff0000;" x="1048.877069" xlink:href="#m3dedcfd098" y="639.849091"/>
     <use style="fill:#ff0000;stroke:#ff0000;" x="1053.856748" xlink:href="#m3dedcfd098" y="639.849091"/>
     <use style="fill:#ff0000;stroke:#ff0000;" x="1058.836427" xlink:href="#m3dedcfd098" y="639.849091"/>
     <use style="fill:#ff0000;stroke:#ff0000;" x="1063.816106" xlink:href="#m3dedcfd098" y="639.849091"/>
     <use style="fill:#ff0000;stroke:#ff0000;" x="1088.714502" xlink:href="#m3dedcfd098" y="639.849091"/>
    </g>
   </g>
   <g id="patch_9">
    <path d="M 46.965625 645.74 
L 46.965625 516.14 
" style="fill:none;stroke:#000000;stroke-linecap:square;stroke-linejoin:miter;stroke-width:0.8;"/>
   </g>
   <g id="patch_10">
    <path d="M 1164.405625 645.74 
L 1164.405625 516.14 
" style="fill:none;stroke:#000000;stroke-linecap:square;stroke-linejoin:miter;stroke-width:0.8;"/>
   </g>
   <g id="patch_11">
    <path d="M 46.965625 645.74 
L 1164.405625 645.74 
" style="fill:none;stroke:#000000;stroke-linecap:square;stroke-linejoin:miter;stroke-width:0.8;"/>
   </g>
   <g id="patch_12">
    <path d="M 46.965625 516.14 
L 1164.405625 516.14 
" style="fill:none;stroke:#000000;stroke-linecap:square;stroke-linejoin:miter;stroke-width:0.8;"/>
   </g>
   <g id="legend_2">
    <g id="patch_13">
     <path d="M 53.965625 582.8525 
L 144.978125 582.8525 
Q 146.978125 582.8525 146.978125 580.8525 
L 146.978125 523.14 
Q 146.978125 521.14 144.978125 521.14 
L 53.965625 521.14 
Q 51.965625 521.14 51.965625 523.14 
L 51.965625 580.8525 
Q 51.965625 582.8525 53.965625 582.8525 
z
" style="fill:#ffffff;opacity:0.8;stroke:#cccccc;stroke-linejoin:miter;"/>
    </g>
    <g id="line2d_41">
     <path d="M 55.965625 529.238437 
L 75.965625 529.238437 
" style="fill:none;stroke:#ff0000;stroke-linecap:square;stroke-width:1.5;"/>
    </g>
    <g id="line2d_42"/>
    <g id="text_34">
     <!-- Maxmimum -->
     <defs>
      <path d="M 9.8125 72.90625 
L 24.515625 72.90625 
L 43.109375 23.296875 
L 61.8125 72.90625 
L 76.515625 72.90625 
L 76.515625 0 
L 66.890625 0 
L 66.890625 64.015625 
L 48.09375 14.015625 
L 38.1875 14.015625 
L 19.390625 64.015625 
L 19.390625 0 
L 9.8125 0 
z
" id="DejaVuSans-4d"/>
      <path d="M 54.890625 54.6875 
L 35.109375 28.078125 
L 55.90625 0 
L 45.3125 0 
L 29.390625 21.484375 
L 13.484375 0 
L 2.875 0 
L 24.125 28.609375 
L 4.6875 54.6875 
L 15.28125 54.6875 
L 29.78125 35.203125 
L 44.28125 54.6875 
z
" id="DejaVuSans-78"/>
     </defs>
     <g transform="translate(83.965625 532.738437)scale(0.1 -0.1)">
      <use xlink:href="#DejaVuSans-4d"/>
      <use x="86.279297" xlink:href="#DejaVuSans-61"/>
      <use x="147.558594" xlink:href="#DejaVuSans-78"/>
      <use x="206.738281" xlink:href="#DejaVuSans-6d"/>
      <use x="304.150391" xlink:href="#DejaVuSans-69"/>
      <use x="331.933594" xlink:href="#DejaVuSans-6d"/>
      <use x="429.345703" xlink:href="#DejaVuSans-75"/>
      <use x="492.724609" xlink:href="#DejaVuSans-6d"/>
     </g>
    </g>
    <g id="line2d_43">
     <path d="M 55.965625 543.916562 
L 75.965625 543.916562 
" style="fill:none;stroke:#008000;stroke-linecap:square;stroke-width:1.5;"/>
    </g>
    <g id="line2d_44"/>
    <g id="text_35">
     <!-- Average -->
     <defs>
      <path d="M 34.1875 63.1875 
L 20.796875 26.90625 
L 47.609375 26.90625 
z
M 28.609375 72.90625 
L 39.796875 72.90625 
L 67.578125 0 
L 57.328125 0 
L 50.6875 18.703125 
L 17.828125 18.703125 
L 11.1875 0 
L 0.78125 0 
z
" id="DejaVuSans-41"/>
      <path d="M 2.984375 54.6875 
L 12.5 54.6875 
L 29.59375 8.796875 
L 46.6875 54.6875 
L 56.203125 54.6875 
L 35.6875 0 
L 23.484375 0 
z
" id="DejaVuSans-76"/>
     </defs>
     <g transform="translate(83.965625 547.416562)scale(0.1 -0.1)">
      <use xlink:href="#DejaVuSans-41"/>
      <use x="68.330078" xlink:href="#DejaVuSans-76"/>
      <use x="127.509766" xlink:href="#DejaVuSans-65"/>
      <use x="189.033203" xlink:href="#DejaVuSans-72"/>
      <use x="230.146484" xlink:href="#DejaVuSans-61"/>
      <use x="291.425781" xlink:href="#DejaVuSans-67"/>
      <use x="354.902344" xlink:href="#DejaVuSans-65"/>
     </g>
    </g>
    <g id="line2d_45">
     <path d="M 55.965625 558.594687 
L 75.965625 558.594687 
" style="fill:none;stroke:#0000ff;stroke-linecap:square;stroke-width:1.5;"/>
    </g>
    <g id="line2d_46"/>
    <g id="text_36">
     <!-- Minimum -->
     <g transform="translate(83.965625 562.094687)scale(0.1 -0.1)">
      <use xlink:href="#DejaVuSans-4d"/>
      <use x="86.279297" xlink:href="#DejaVuSans-69"/>
      <use x="114.0625" xlink:href="#DejaVuSans-6e"/>
      <use x="177.441406" xlink:href="#DejaVuSans-69"/>
      <use x="205.224609" xlink:href="#DejaVuSans-6d"/>
      <use x="302.636719" xlink:href="#DejaVuSans-75"/>
      <use x="366.015625" xlink:href="#DejaVuSans-6d"/>
     </g>
    </g>
    <g id="line2d_47"/>
    <g id="line2d_48">
     <g>
      <use style="fill:#ff0000;stroke:#ff0000;" x="65.965625" xlink:href="#m3dedcfd098" y="573.272812"/>
     </g>
    </g>
    <g id="text_37">
     <!-- Disasters -->
     <g transform="translate(83.965625 576.772812)scale(0.1 -0.1)">
      <use xlink:href="#DejaVuSans-44"/>
      <use x="77.001953" xlink:href="#DejaVuSans-69"/>
      <use x="104.785156" xlink:href="#DejaVuSans-73"/>
      <use x="156.884766" xlink:href="#DejaVuSans-61"/>
      <use x="218.164062" xlink:href="#DejaVuSans-73"/>
      <use x="270.263672" xlink:href="#DejaVuSans-74"/>
      <use x="309.472656" xlink:href="#DejaVuSans-65"/>
      <use x="370.996094" xlink:href="#DejaVuSans-72"/>
      <use x="412.109375" xlink:href="#DejaVuSans-73"/>
     </g>
    </g>
   </g>
  </g>
 </g>
 <defs>
  <clipPath id="p1dcaace7ca">
   <rect height="498.96" width="1116" x="46.965625" y="10.7"/>
  </clipPath>
  <clipPath id="peb564b255d">
   <rect height="129.6" width="1117.44" x="46.965625" y="516.14"/>
  </clipPath>
 </defs>
</svg>
