<?xml version="1.0" encoding="utf-8" standalone="no"?>
<!DOCTYPE svg PUBLIC "-//W3C//DTD SVG 1.1//EN"
  "http://www.w3.org/Graphics/SVG/1.1/DTD/svg11.dtd">
<!-- Created with matplotlib (http://matplotlib.org/) -->
<svg height="669pt" version="1.1" viewBox="0 0 1168 669" width="1168pt" xmlns="http://www.w3.org/2000/svg" xmlns:xlink="http://www.w3.org/1999/xlink">
 <defs>
  <style type="text/css">
*{stroke-linecap:butt;stroke-linejoin:round;}
  </style>
 </defs>
 <g id="figure_1">
  <g id="patch_1">
   <path d="M 0 669.618125 
L 1168.743125 669.618125 
L 1168.743125 -0 
L 0 -0 
z
" style="fill:none;"/>
  </g>
  <g id="axes_1">
   <g id="patch_2">
    <path d="M 40.603125 509.66 
L 1156.603125 509.66 
L 1156.603125 10.7 
L 40.603125 10.7 
z
" style="fill:none;"/>
   </g>
   <g id="matplotlib.axis_1">
    <g id="xtick_1">
     <g id="line2d_1">
      <defs>
       <path d="M 0 0 
L 0 3.5 
" id="m5b90509074" style="stroke:#000000;stroke-width:0.8;"/>
      </defs>
      <g>
       <use style="stroke:#000000;stroke-width:0.8;" x="91.330398" xlink:href="#m5b90509074" y="509.66"/>
      </g>
     </g>
     <g id="text_1">
      <!-- 0 -->
      <defs>
       <path d="M 31.78125 66.40625 
Q 24.171875 66.40625 20.328125 58.90625 
Q 16.5 51.421875 16.5 36.375 
Q 16.5 21.390625 20.328125 13.890625 
Q 24.171875 6.390625 31.78125 6.390625 
Q 39.453125 6.390625 43.28125 13.890625 
Q 47.125 21.390625 47.125 36.375 
Q 47.125 51.421875 43.28125 58.90625 
Q 39.453125 66.40625 31.78125 66.40625 
z
M 31.78125 74.21875 
Q 44.046875 74.21875 50.515625 64.515625 
Q 56.984375 54.828125 56.984375 36.375 
Q 56.984375 17.96875 50.515625 8.265625 
Q 44.046875 -1.421875 31.78125 -1.421875 
Q 19.53125 -1.421875 13.0625 8.265625 
Q 6.59375 17.96875 6.59375 36.375 
Q 6.59375 54.828125 13.0625 64.515625 
Q 19.53125 74.21875 31.78125 74.21875 
z
" id="DejaVuSans-30"/>
      </defs>
      <g transform="translate(88.149148 524.258437)scale(0.1 -0.1)">
       <use xlink:href="#DejaVuSans-30"/>
      </g>
     </g>
    </g>
    <g id="xtick_2">
     <g id="line2d_2">
      <g>
       <use style="stroke:#000000;stroke-width:0.8;" x="334.044621" xlink:href="#m5b90509074" y="509.66"/>
      </g>
     </g>
     <g id="text_2">
      <!-- 50 -->
      <defs>
       <path d="M 10.796875 72.90625 
L 49.515625 72.90625 
L 49.515625 64.59375 
L 19.828125 64.59375 
L 19.828125 46.734375 
Q 21.96875 47.46875 24.109375 47.828125 
Q 26.265625 48.1875 28.421875 48.1875 
Q 40.625 48.1875 47.75 41.5 
Q 54.890625 34.8125 54.890625 23.390625 
Q 54.890625 11.625 47.5625 5.09375 
Q 40.234375 -1.421875 26.90625 -1.421875 
Q 22.3125 -1.421875 17.546875 -0.640625 
Q 12.796875 0.140625 7.71875 1.703125 
L 7.71875 11.625 
Q 12.109375 9.234375 16.796875 8.0625 
Q 21.484375 6.890625 26.703125 6.890625 
Q 35.15625 6.890625 40.078125 11.328125 
Q 45.015625 15.765625 45.015625 23.390625 
Q 45.015625 31 40.078125 35.4375 
Q 35.15625 39.890625 26.703125 39.890625 
Q 22.75 39.890625 18.8125 39.015625 
Q 14.890625 38.140625 10.796875 36.28125 
z
" id="DejaVuSans-35"/>
      </defs>
      <g transform="translate(327.682121 524.258437)scale(0.1 -0.1)">
       <use xlink:href="#DejaVuSans-35"/>
       <use x="63.623047" xlink:href="#DejaVuSans-30"/>
      </g>
     </g>
    </g>
    <g id="xtick_3">
     <g id="line2d_3">
      <g>
       <use style="stroke:#000000;stroke-width:0.8;" x="576.758845" xlink:href="#m5b90509074" y="509.66"/>
      </g>
     </g>
     <g id="text_3">
      <!-- 100 -->
      <defs>
       <path d="M 12.40625 8.296875 
L 28.515625 8.296875 
L 28.515625 63.921875 
L 10.984375 60.40625 
L 10.984375 69.390625 
L 28.421875 72.90625 
L 38.28125 72.90625 
L 38.28125 8.296875 
L 54.390625 8.296875 
L 54.390625 0 
L 12.40625 0 
z
" id="DejaVuSans-31"/>
      </defs>
      <g transform="translate(567.215095 524.258437)scale(0.1 -0.1)">
       <use xlink:href="#DejaVuSans-31"/>
       <use x="63.623047" xlink:href="#DejaVuSans-30"/>
       <use x="127.246094" xlink:href="#DejaVuSans-30"/>
      </g>
     </g>
    </g>
    <g id="xtick_4">
     <g id="line2d_4">
      <g>
       <use style="stroke:#000000;stroke-width:0.8;" x="819.473068" xlink:href="#m5b90509074" y="509.66"/>
      </g>
     </g>
     <g id="text_4">
      <!-- 150 -->
      <g transform="translate(809.929318 524.258437)scale(0.1 -0.1)">
       <use xlink:href="#DejaVuSans-31"/>
       <use x="63.623047" xlink:href="#DejaVuSans-35"/>
       <use x="127.246094" xlink:href="#DejaVuSans-30"/>
      </g>
     </g>
    </g>
    <g id="xtick_5">
     <g id="line2d_5">
      <g>
       <use style="stroke:#000000;stroke-width:0.8;" x="1062.187292" xlink:href="#m5b90509074" y="509.66"/>
      </g>
     </g>
     <g id="text_5">
      <!-- 200 -->
      <defs>
       <path d="M 19.1875 8.296875 
L 53.609375 8.296875 
L 53.609375 0 
L 7.328125 0 
L 7.328125 8.296875 
Q 12.9375 14.109375 22.625 23.890625 
Q 32.328125 33.6875 34.8125 36.53125 
Q 39.546875 41.84375 41.421875 45.53125 
Q 43.3125 49.21875 43.3125 52.78125 
Q 43.3125 58.59375 39.234375 62.25 
Q 35.15625 65.921875 28.609375 65.921875 
Q 23.96875 65.921875 18.8125 64.3125 
Q 13.671875 62.703125 7.8125 59.421875 
L 7.8125 69.390625 
Q 13.765625 71.78125 18.9375 73 
Q 24.125 74.21875 28.421875 74.21875 
Q 39.75 74.21875 46.484375 68.546875 
Q 53.21875 62.890625 53.21875 53.421875 
Q 53.21875 48.921875 51.53125 44.890625 
Q 49.859375 40.875 45.40625 35.40625 
Q 44.1875 33.984375 37.640625 27.21875 
Q 31.109375 20.453125 19.1875 8.296875 
z
" id="DejaVuSans-32"/>
      </defs>
      <g transform="translate(1052.643542 524.258437)scale(0.1 -0.1)">
       <use xlink:href="#DejaVuSans-32"/>
       <use x="63.623047" xlink:href="#DejaVuSans-30"/>
       <use x="127.246094" xlink:href="#DejaVuSans-30"/>
      </g>
     </g>
    </g>
    <g id="text_6">
     <!-- Time -->
     <defs>
      <path d="M -0.296875 72.90625 
L 61.375 72.90625 
L 61.375 64.59375 
L 35.5 64.59375 
L 35.5 0 
L 25.59375 0 
L 25.59375 64.59375 
L -0.296875 64.59375 
z
" id="DejaVuSans-54"/>
      <path d="M 9.421875 54.6875 
L 18.40625 54.6875 
L 18.40625 0 
L 9.421875 0 
z
M 9.421875 75.984375 
L 18.40625 75.984375 
L 18.40625 64.59375 
L 9.421875 64.59375 
z
" id="DejaVuSans-69"/>
      <path d="M 52 44.1875 
Q 55.375 50.25 60.0625 53.125 
Q 64.75 56 71.09375 56 
Q 79.640625 56 84.28125 50.015625 
Q 88.921875 44.046875 88.921875 33.015625 
L 88.921875 0 
L 79.890625 0 
L 79.890625 32.71875 
Q 79.890625 40.578125 77.09375 44.375 
Q 74.3125 48.1875 68.609375 48.1875 
Q 61.625 48.1875 57.5625 43.546875 
Q 53.515625 38.921875 53.515625 30.90625 
L 53.515625 0 
L 44.484375 0 
L 44.484375 32.71875 
Q 44.484375 40.625 41.703125 44.40625 
Q 38.921875 48.1875 33.109375 48.1875 
Q 26.21875 48.1875 22.15625 43.53125 
Q 18.109375 38.875 18.109375 30.90625 
L 18.109375 0 
L 9.078125 0 
L 9.078125 54.6875 
L 18.109375 54.6875 
L 18.109375 46.1875 
Q 21.1875 51.21875 25.484375 53.609375 
Q 29.78125 56 35.6875 56 
Q 41.65625 56 45.828125 52.96875 
Q 50 49.953125 52 44.1875 
z
" id="DejaVuSans-6d"/>
      <path d="M 56.203125 29.59375 
L 56.203125 25.203125 
L 14.890625 25.203125 
Q 15.484375 15.921875 20.484375 11.0625 
Q 25.484375 6.203125 34.421875 6.203125 
Q 39.59375 6.203125 44.453125 7.46875 
Q 49.3125 8.734375 54.109375 11.28125 
L 54.109375 2.78125 
Q 49.265625 0.734375 44.1875 -0.34375 
Q 39.109375 -1.421875 33.890625 -1.421875 
Q 20.796875 -1.421875 13.15625 6.1875 
Q 5.515625 13.8125 5.515625 26.8125 
Q 5.515625 40.234375 12.765625 48.109375 
Q 20.015625 56 32.328125 56 
Q 43.359375 56 49.78125 48.890625 
Q 56.203125 41.796875 56.203125 29.59375 
z
M 47.21875 32.234375 
Q 47.125 39.59375 43.09375 43.984375 
Q 39.0625 48.390625 32.421875 48.390625 
Q 24.90625 48.390625 20.390625 44.140625 
Q 15.875 39.890625 15.1875 32.171875 
z
" id="DejaVuSans-65"/>
     </defs>
     <g transform="translate(586.215625 537.936562)scale(0.1 -0.1)">
      <use xlink:href="#DejaVuSans-54"/>
      <use x="61.037109" xlink:href="#DejaVuSans-69"/>
      <use x="88.820312" xlink:href="#DejaVuSans-6d"/>
      <use x="186.232422" xlink:href="#DejaVuSans-65"/>
     </g>
    </g>
   </g>
   <g id="matplotlib.axis_2">
    <g id="ytick_1">
     <g id="line2d_6">
      <defs>
       <path d="M 0 0 
L -3.5 0 
" id="med8c5211e2" style="stroke:#000000;stroke-width:0.8;"/>
      </defs>
      <g>
       <use style="stroke:#000000;stroke-width:0.8;" x="40.603125" xlink:href="#med8c5211e2" y="486.98"/>
      </g>
     </g>
     <g id="text_7">
      <!-- 0 -->
      <g transform="translate(27.240625 490.779219)scale(0.1 -0.1)">
       <use xlink:href="#DejaVuSans-30"/>
      </g>
     </g>
    </g>
    <g id="ytick_2">
     <g id="line2d_7">
      <g>
       <use style="stroke:#000000;stroke-width:0.8;" x="40.603125" xlink:href="#med8c5211e2" y="428.070909"/>
      </g>
     </g>
     <g id="text_8">
      <!-- 10 -->
      <g transform="translate(20.878125 431.870128)scale(0.1 -0.1)">
       <use xlink:href="#DejaVuSans-31"/>
       <use x="63.623047" xlink:href="#DejaVuSans-30"/>
      </g>
     </g>
    </g>
    <g id="ytick_3">
     <g id="line2d_8">
      <g>
       <use style="stroke:#000000;stroke-width:0.8;" x="40.603125" xlink:href="#med8c5211e2" y="369.161818"/>
      </g>
     </g>
     <g id="text_9">
      <!-- 20 -->
      <g transform="translate(20.878125 372.961037)scale(0.1 -0.1)">
       <use xlink:href="#DejaVuSans-32"/>
       <use x="63.623047" xlink:href="#DejaVuSans-30"/>
      </g>
     </g>
    </g>
    <g id="ytick_4">
     <g id="line2d_9">
      <g>
       <use style="stroke:#000000;stroke-width:0.8;" x="40.603125" xlink:href="#med8c5211e2" y="310.252727"/>
      </g>
     </g>
     <g id="text_10">
      <!-- 30 -->
      <defs>
       <path d="M 40.578125 39.3125 
Q 47.65625 37.796875 51.625 33 
Q 55.609375 28.21875 55.609375 21.1875 
Q 55.609375 10.40625 48.1875 4.484375 
Q 40.765625 -1.421875 27.09375 -1.421875 
Q 22.515625 -1.421875 17.65625 -0.515625 
Q 12.796875 0.390625 7.625 2.203125 
L 7.625 11.71875 
Q 11.71875 9.328125 16.59375 8.109375 
Q 21.484375 6.890625 26.8125 6.890625 
Q 36.078125 6.890625 40.9375 10.546875 
Q 45.796875 14.203125 45.796875 21.1875 
Q 45.796875 27.640625 41.28125 31.265625 
Q 36.765625 34.90625 28.71875 34.90625 
L 20.21875 34.90625 
L 20.21875 43.015625 
L 29.109375 43.015625 
Q 36.375 43.015625 40.234375 45.921875 
Q 44.09375 48.828125 44.09375 54.296875 
Q 44.09375 59.90625 40.109375 62.90625 
Q 36.140625 65.921875 28.71875 65.921875 
Q 24.65625 65.921875 20.015625 65.03125 
Q 15.375 64.15625 9.8125 62.3125 
L 9.8125 71.09375 
Q 15.4375 72.65625 20.34375 73.4375 
Q 25.25 74.21875 29.59375 74.21875 
Q 40.828125 74.21875 47.359375 69.109375 
Q 53.90625 64.015625 53.90625 55.328125 
Q 53.90625 49.265625 50.4375 45.09375 
Q 46.96875 40.921875 40.578125 39.3125 
z
" id="DejaVuSans-33"/>
      </defs>
      <g transform="translate(20.878125 314.051946)scale(0.1 -0.1)">
       <use xlink:href="#DejaVuSans-33"/>
       <use x="63.623047" xlink:href="#DejaVuSans-30"/>
      </g>
     </g>
    </g>
    <g id="ytick_5">
     <g id="line2d_10">
      <g>
       <use style="stroke:#000000;stroke-width:0.8;" x="40.603125" xlink:href="#med8c5211e2" y="251.343636"/>
      </g>
     </g>
     <g id="text_11">
      <!-- 40 -->
      <defs>
       <path d="M 37.796875 64.3125 
L 12.890625 25.390625 
L 37.796875 25.390625 
z
M 35.203125 72.90625 
L 47.609375 72.90625 
L 47.609375 25.390625 
L 58.015625 25.390625 
L 58.015625 17.1875 
L 47.609375 17.1875 
L 47.609375 0 
L 37.796875 0 
L 37.796875 17.1875 
L 4.890625 17.1875 
L 4.890625 26.703125 
z
" id="DejaVuSans-34"/>
      </defs>
      <g transform="translate(20.878125 255.142855)scale(0.1 -0.1)">
       <use xlink:href="#DejaVuSans-34"/>
       <use x="63.623047" xlink:href="#DejaVuSans-30"/>
      </g>
     </g>
    </g>
    <g id="ytick_6">
     <g id="line2d_11">
      <g>
       <use style="stroke:#000000;stroke-width:0.8;" x="40.603125" xlink:href="#med8c5211e2" y="192.434545"/>
      </g>
     </g>
     <g id="text_12">
      <!-- 50 -->
      <g transform="translate(20.878125 196.233764)scale(0.1 -0.1)">
       <use xlink:href="#DejaVuSans-35"/>
       <use x="63.623047" xlink:href="#DejaVuSans-30"/>
      </g>
     </g>
    </g>
    <g id="ytick_7">
     <g id="line2d_12">
      <g>
       <use style="stroke:#000000;stroke-width:0.8;" x="40.603125" xlink:href="#med8c5211e2" y="133.525455"/>
      </g>
     </g>
     <g id="text_13">
      <!-- 60 -->
      <defs>
       <path d="M 33.015625 40.375 
Q 26.375 40.375 22.484375 35.828125 
Q 18.609375 31.296875 18.609375 23.390625 
Q 18.609375 15.53125 22.484375 10.953125 
Q 26.375 6.390625 33.015625 6.390625 
Q 39.65625 6.390625 43.53125 10.953125 
Q 47.40625 15.53125 47.40625 23.390625 
Q 47.40625 31.296875 43.53125 35.828125 
Q 39.65625 40.375 33.015625 40.375 
z
M 52.59375 71.296875 
L 52.59375 62.3125 
Q 48.875 64.0625 45.09375 64.984375 
Q 41.3125 65.921875 37.59375 65.921875 
Q 27.828125 65.921875 22.671875 59.328125 
Q 17.53125 52.734375 16.796875 39.40625 
Q 19.671875 43.65625 24.015625 45.921875 
Q 28.375 48.1875 33.59375 48.1875 
Q 44.578125 48.1875 50.953125 41.515625 
Q 57.328125 34.859375 57.328125 23.390625 
Q 57.328125 12.15625 50.6875 5.359375 
Q 44.046875 -1.421875 33.015625 -1.421875 
Q 20.359375 -1.421875 13.671875 8.265625 
Q 6.984375 17.96875 6.984375 36.375 
Q 6.984375 53.65625 15.1875 63.9375 
Q 23.390625 74.21875 37.203125 74.21875 
Q 40.921875 74.21875 44.703125 73.484375 
Q 48.484375 72.75 52.59375 71.296875 
z
" id="DejaVuSans-36"/>
      </defs>
      <g transform="translate(20.878125 137.324673)scale(0.1 -0.1)">
       <use xlink:href="#DejaVuSans-36"/>
       <use x="63.623047" xlink:href="#DejaVuSans-30"/>
      </g>
     </g>
    </g>
    <g id="ytick_8">
     <g id="line2d_13">
      <g>
       <use style="stroke:#000000;stroke-width:0.8;" x="40.603125" xlink:href="#med8c5211e2" y="74.616364"/>
      </g>
     </g>
     <g id="text_14">
      <!-- 70 -->
      <defs>
       <path d="M 8.203125 72.90625 
L 55.078125 72.90625 
L 55.078125 68.703125 
L 28.609375 0 
L 18.3125 0 
L 43.21875 64.59375 
L 8.203125 64.59375 
z
" id="DejaVuSans-37"/>
      </defs>
      <g transform="translate(20.878125 78.415582)scale(0.1 -0.1)">
       <use xlink:href="#DejaVuSans-37"/>
       <use x="63.623047" xlink:href="#DejaVuSans-30"/>
      </g>
     </g>
    </g>
    <g id="ytick_9">
     <g id="line2d_14">
      <g>
       <use style="stroke:#000000;stroke-width:0.8;" x="40.603125" xlink:href="#med8c5211e2" y="15.707273"/>
      </g>
     </g>
     <g id="text_15">
      <!-- 80 -->
      <defs>
       <path d="M 31.78125 34.625 
Q 24.75 34.625 20.71875 30.859375 
Q 16.703125 27.09375 16.703125 20.515625 
Q 16.703125 13.921875 20.71875 10.15625 
Q 24.75 6.390625 31.78125 6.390625 
Q 38.8125 6.390625 42.859375 10.171875 
Q 46.921875 13.96875 46.921875 20.515625 
Q 46.921875 27.09375 42.890625 30.859375 
Q 38.875 34.625 31.78125 34.625 
z
M 21.921875 38.8125 
Q 15.578125 40.375 12.03125 44.71875 
Q 8.5 49.078125 8.5 55.328125 
Q 8.5 64.0625 14.71875 69.140625 
Q 20.953125 74.21875 31.78125 74.21875 
Q 42.671875 74.21875 48.875 69.140625 
Q 55.078125 64.0625 55.078125 55.328125 
Q 55.078125 49.078125 51.53125 44.71875 
Q 48 40.375 41.703125 38.8125 
Q 48.828125 37.15625 52.796875 32.3125 
Q 56.78125 27.484375 56.78125 20.515625 
Q 56.78125 9.90625 50.3125 4.234375 
Q 43.84375 -1.421875 31.78125 -1.421875 
Q 19.734375 -1.421875 13.25 4.234375 
Q 6.78125 9.90625 6.78125 20.515625 
Q 6.78125 27.484375 10.78125 32.3125 
Q 14.796875 37.15625 21.921875 38.8125 
z
M 18.3125 54.390625 
Q 18.3125 48.734375 21.84375 45.5625 
Q 25.390625 42.390625 31.78125 42.390625 
Q 38.140625 42.390625 41.71875 45.5625 
Q 45.3125 48.734375 45.3125 54.390625 
Q 45.3125 60.0625 41.71875 63.234375 
Q 38.140625 66.40625 31.78125 66.40625 
Q 25.390625 66.40625 21.84375 63.234375 
Q 18.3125 60.0625 18.3125 54.390625 
z
" id="DejaVuSans-38"/>
      </defs>
      <g transform="translate(20.878125 19.506491)scale(0.1 -0.1)">
       <use xlink:href="#DejaVuSans-38"/>
       <use x="63.623047" xlink:href="#DejaVuSans-30"/>
      </g>
     </g>
    </g>
    <g id="text_16">
     <!-- Refugees -->
     <defs>
      <path d="M 44.390625 34.1875 
Q 47.5625 33.109375 50.5625 29.59375 
Q 53.5625 26.078125 56.59375 19.921875 
L 66.609375 0 
L 56 0 
L 46.6875 18.703125 
Q 43.0625 26.03125 39.671875 28.421875 
Q 36.28125 30.8125 30.421875 30.8125 
L 19.671875 30.8125 
L 19.671875 0 
L 9.8125 0 
L 9.8125 72.90625 
L 32.078125 72.90625 
Q 44.578125 72.90625 50.734375 67.671875 
Q 56.890625 62.453125 56.890625 51.90625 
Q 56.890625 45.015625 53.6875 40.46875 
Q 50.484375 35.9375 44.390625 34.1875 
z
M 19.671875 64.796875 
L 19.671875 38.921875 
L 32.078125 38.921875 
Q 39.203125 38.921875 42.84375 42.21875 
Q 46.484375 45.515625 46.484375 51.90625 
Q 46.484375 58.296875 42.84375 61.546875 
Q 39.203125 64.796875 32.078125 64.796875 
z
" id="DejaVuSans-52"/>
      <path d="M 37.109375 75.984375 
L 37.109375 68.5 
L 28.515625 68.5 
Q 23.6875 68.5 21.796875 66.546875 
Q 19.921875 64.59375 19.921875 59.515625 
L 19.921875 54.6875 
L 34.71875 54.6875 
L 34.71875 47.703125 
L 19.921875 47.703125 
L 19.921875 0 
L 10.890625 0 
L 10.890625 47.703125 
L 2.296875 47.703125 
L 2.296875 54.6875 
L 10.890625 54.6875 
L 10.890625 58.5 
Q 10.890625 67.625 15.140625 71.796875 
Q 19.390625 75.984375 28.609375 75.984375 
z
" id="DejaVuSans-66"/>
      <path d="M 8.5 21.578125 
L 8.5 54.6875 
L 17.484375 54.6875 
L 17.484375 21.921875 
Q 17.484375 14.15625 20.5 10.265625 
Q 23.53125 6.390625 29.59375 6.390625 
Q 36.859375 6.390625 41.078125 11.03125 
Q 45.3125 15.671875 45.3125 23.6875 
L 45.3125 54.6875 
L 54.296875 54.6875 
L 54.296875 0 
L 45.3125 0 
L 45.3125 8.40625 
Q 42.046875 3.421875 37.71875 1 
Q 33.40625 -1.421875 27.6875 -1.421875 
Q 18.265625 -1.421875 13.375 4.4375 
Q 8.5 10.296875 8.5 21.578125 
z
M 31.109375 56 
z
" id="DejaVuSans-75"/>
      <path d="M 45.40625 27.984375 
Q 45.40625 37.75 41.375 43.109375 
Q 37.359375 48.484375 30.078125 48.484375 
Q 22.859375 48.484375 18.828125 43.109375 
Q 14.796875 37.75 14.796875 27.984375 
Q 14.796875 18.265625 18.828125 12.890625 
Q 22.859375 7.515625 30.078125 7.515625 
Q 37.359375 7.515625 41.375 12.890625 
Q 45.40625 18.265625 45.40625 27.984375 
z
M 54.390625 6.78125 
Q 54.390625 -7.171875 48.1875 -13.984375 
Q 42 -20.796875 29.203125 -20.796875 
Q 24.46875 -20.796875 20.265625 -20.09375 
Q 16.0625 -19.390625 12.109375 -17.921875 
L 12.109375 -9.1875 
Q 16.0625 -11.328125 19.921875 -12.34375 
Q 23.78125 -13.375 27.78125 -13.375 
Q 36.625 -13.375 41.015625 -8.765625 
Q 45.40625 -4.15625 45.40625 5.171875 
L 45.40625 9.625 
Q 42.625 4.78125 38.28125 2.390625 
Q 33.9375 0 27.875 0 
Q 17.828125 0 11.671875 7.65625 
Q 5.515625 15.328125 5.515625 27.984375 
Q 5.515625 40.671875 11.671875 48.328125 
Q 17.828125 56 27.875 56 
Q 33.9375 56 38.28125 53.609375 
Q 42.625 51.21875 45.40625 46.390625 
L 45.40625 54.6875 
L 54.390625 54.6875 
z
" id="DejaVuSans-67"/>
      <path d="M 44.28125 53.078125 
L 44.28125 44.578125 
Q 40.484375 46.53125 36.375 47.5 
Q 32.28125 48.484375 27.875 48.484375 
Q 21.1875 48.484375 17.84375 46.4375 
Q 14.5 44.390625 14.5 40.28125 
Q 14.5 37.15625 16.890625 35.375 
Q 19.28125 33.59375 26.515625 31.984375 
L 29.59375 31.296875 
Q 39.15625 29.25 43.1875 25.515625 
Q 47.21875 21.78125 47.21875 15.09375 
Q 47.21875 7.46875 41.1875 3.015625 
Q 35.15625 -1.421875 24.609375 -1.421875 
Q 20.21875 -1.421875 15.453125 -0.5625 
Q 10.6875 0.296875 5.421875 2 
L 5.421875 11.28125 
Q 10.40625 8.6875 15.234375 7.390625 
Q 20.0625 6.109375 24.8125 6.109375 
Q 31.15625 6.109375 34.5625 8.28125 
Q 37.984375 10.453125 37.984375 14.40625 
Q 37.984375 18.0625 35.515625 20.015625 
Q 33.0625 21.96875 24.703125 23.78125 
L 21.578125 24.515625 
Q 13.234375 26.265625 9.515625 29.90625 
Q 5.8125 33.546875 5.8125 39.890625 
Q 5.8125 47.609375 11.28125 51.796875 
Q 16.75 56 26.8125 56 
Q 31.78125 56 36.171875 55.265625 
Q 40.578125 54.546875 44.28125 53.078125 
z
" id="DejaVuSans-73"/>
     </defs>
     <g style="fill:#ff7f0e;" transform="translate(14.798438 283.588594)rotate(-90)scale(0.1 -0.1)">
      <use xlink:href="#DejaVuSans-52"/>
      <use x="69.419922" xlink:href="#DejaVuSans-65"/>
      <use x="130.943359" xlink:href="#DejaVuSans-66"/>
      <use x="166.148438" xlink:href="#DejaVuSans-75"/>
      <use x="229.527344" xlink:href="#DejaVuSans-67"/>
      <use x="293.003906" xlink:href="#DejaVuSans-65"/>
      <use x="354.527344" xlink:href="#DejaVuSans-65"/>
      <use x="416.050781" xlink:href="#DejaVuSans-73"/>
     </g>
    </g>
   </g>
   <g id="line2d_15">
    <path clip-path="url(#p673a961cee)" d="M 91.330398 484.706153 
L 96.184682 486.98 
L 110.747536 486.98 
L 115.60182 443.397205 
L 120.456105 486.98 
L 139.873242 486.98 
L 144.727527 454.998699 
L 149.581811 482.94458 
L 154.436096 486.98 
L 168.998949 486.98 
L 173.853234 442.333396 
L 178.707518 486.98 
L 198.124656 486.98 
L 202.978941 458.72486 
L 207.833225 481.439191 
L 212.68751 486.98 
L 227.250363 486.98 
L 232.104647 441.424292 
L 236.958932 486.98 
L 256.37607 486.98 
L 261.230354 450.341656 
L 266.084639 486.98 
L 285.501777 486.98 
L 290.356061 445.059439 
L 295.210346 486.98 
L 314.627483 486.98 
L 319.481768 449.921952 
L 324.336052 483.88165 
L 329.190337 486.98 
L 343.75319 486.98 
L 348.607475 442.899295 
L 353.461759 486.98 
L 372.878897 486.98 
L 377.733182 447.881367 
L 382.587466 464.829775 
L 387.44175 464.408848 
L 392.296035 475.365114 
L 397.150319 486.98 
L 402.004604 486.98 
L 406.858888 431.393984 
L 411.713173 481.182437 
L 416.567457 486.98 
L 431.130311 486.98 
L 435.984595 441.269244 
L 440.83888 464.912917 
L 445.693164 464.601616 
L 450.547449 475.594868 
L 455.401733 486.98 
L 460.256018 486.98 
L 465.110302 431.444186 
L 469.964587 486.98 
L 489.381724 486.98 
L 494.236009 448.023267 
L 499.090293 484.073594 
L 503.944578 486.98 
L 518.507431 486.98 
L 523.361716 443.015203 
L 528.216 486.98 
L 547.633138 486.98 
L 552.487423 446.855685 
L 557.341707 479.579569 
L 562.195991 486.98 
L 576.758845 486.98 
L 581.613129 440.301286 
L 586.467414 486.98 
L 605.884552 486.98 
L 610.738836 459.07123 
L 615.593121 473.304636 
L 620.447405 484.06151 
L 625.30169 486.98 
L 635.010259 486.98 
L 639.864543 436.511894 
L 644.718827 486.98 
L 664.135965 486.98 
L 668.99025 447.625113 
L 673.844534 484.536056 
L 678.698819 486.98 
L 693.261672 486.98 
L 698.115957 443.294482 
L 702.970241 476.76708 
L 707.824526 486.98 
L 722.387379 486.98 
L 727.241663 438.602844 
L 732.095948 468.697816 
L 736.950232 473.378597 
L 741.804517 486.056015 
L 746.658801 486.98 
L 751.513086 486.98 
L 756.36737 433.729867 
L 761.221655 486.98 
L 780.638793 486.98 
L 785.493077 457.181017 
L 790.347362 383.977743 
L 795.201646 368.14806 
L 800.055931 373.198773 
L 804.910215 400.836404 
L 809.7645 402.43707 
L 814.618784 348.068027 
L 819.473068 469.999482 
L 824.327353 476.397096 
L 829.181637 486.98 
L 838.890206 486.98 
L 843.744491 434.515928 
L 848.598775 457.408799 
L 853.45306 448.246808 
L 858.307344 456.031618 
L 863.161629 483.610513 
L 868.015913 481.022423 
L 872.870198 425.44249 
L 877.724482 408.850392 
L 882.578767 393.128788 
L 887.433051 398.022748 
L 892.287336 425.813346 
L 897.14162 427.135904 
L 901.995904 373.215874 
L 906.850189 434.744244 
L 911.704473 419.135073 
L 916.558758 423.865931 
L 921.413042 451.81569 
L 926.267327 452.84883 
L 931.121611 399.396205 
L 935.975896 454.277234 
L 940.83018 442.726816 
L 945.684465 449.335575 
L 950.538749 477.086058 
L 955.393034 475.792786 
L 960.247318 421.105101 
L 965.101603 396.544156 
L 969.955887 380.769085 
L 974.810172 385.740562 
L 979.664456 413.455474 
L 984.51874 414.915673 
L 989.373025 360.77348 
L 994.227309 458.647365 
L 999.081594 450.430058 
L 1003.935878 458.679953 
L 1008.790163 486.190952 
L 1013.644447 483.090765 
L 1018.498732 427.157955 
L 1023.353016 429.008684 
L 1028.207301 413.374558 
L 1033.061585 418.141556 
L 1037.91587 446.056076 
L 1042.770154 447.153346 
L 1047.624439 393.597178 
L 1052.478723 343.189045 
L 1057.333008 327.182304 
L 1062.187292 332.489907 
L 1067.041577 359.876744 
L 1071.895861 361.933419 
L 1076.750145 306.828057 
L 1081.60443 221.341987 
L 1086.458714 204.80594 
L 1091.312999 210.881142 
L 1096.167283 237.51893 
L 1101.021568 240.937713 
L 1105.875852 183.632969 
L 1105.875852 183.632969 
" style="fill:none;stroke:#008000;stroke-dasharray:5.55,2.4;stroke-dashoffset:0;stroke-width:1.5;"/>
   </g>
   <g id="line2d_16">
    <path clip-path="url(#p673a961cee)" d="M 91.330398 469.307273 
L 96.184682 481.089091 
L 101.038967 475.198182 
L 105.893251 481.089091 
L 110.747536 445.743636 
L 115.60182 481.089091 
L 120.456105 486.98 
L 125.310389 481.089091 
L 135.018958 481.089091 
L 139.873242 486.98 
L 144.727527 463.416364 
L 149.581811 486.98 
L 154.436096 481.089091 
L 164.144665 445.743636 
L 168.998949 469.307273 
L 183.561803 469.307273 
L 188.416087 457.525455 
L 193.270372 469.307273 
L 198.124656 428.070909 
L 202.978941 475.198182 
L 207.833225 404.507273 
L 212.68751 457.525455 
L 217.541794 475.198182 
L 222.396078 392.725455 
L 227.250363 463.416364 
L 232.104647 463.416364 
L 236.958932 457.525455 
L 241.813216 439.852727 
L 246.667501 475.198182 
L 251.521785 469.307273 
L 256.37607 469.307273 
L 261.230354 486.98 
L 266.084639 439.852727 
L 270.938923 422.18 
L 275.793208 457.525455 
L 280.647492 481.089091 
L 285.501777 451.634545 
L 290.356061 457.525455 
L 295.210346 469.307273 
L 300.06463 475.198182 
L 304.918914 451.634545 
L 309.773199 469.307273 
L 314.627483 481.089091 
L 319.481768 451.634545 
L 324.336052 457.525455 
L 329.190337 481.089091 
L 334.044621 475.198182 
L 338.898906 416.289091 
L 343.75319 469.307273 
L 348.607475 469.307273 
L 353.461759 451.634545 
L 358.316044 416.289091 
L 363.170328 422.18 
L 368.024613 469.307273 
L 372.878897 445.743636 
L 377.733182 451.634545 
L 382.587466 463.416364 
L 387.44175 433.961818 
L 392.296035 439.852727 
L 397.150319 457.525455 
L 402.004604 422.18 
L 406.858888 398.616364 
L 411.713173 451.634545 
L 416.567457 439.852727 
L 421.421742 445.743636 
L 426.276026 475.198182 
L 431.130311 445.743636 
L 435.984595 457.525455 
L 440.83888 428.070909 
L 445.693164 457.525455 
L 450.547449 410.398182 
L 460.256018 469.307273 
L 465.110302 451.634545 
L 469.964587 457.525455 
L 474.818871 475.198182 
L 479.673155 463.416364 
L 484.52744 481.089091 
L 489.381724 475.198182 
L 494.236009 457.525455 
L 499.090293 445.743636 
L 503.944578 439.852727 
L 508.798862 463.416364 
L 518.507431 428.070909 
L 523.361716 451.634545 
L 528.216 416.289091 
L 533.070285 445.743636 
L 537.924569 433.961818 
L 542.778854 481.089091 
L 547.633138 439.852727 
L 552.487423 463.416364 
L 557.341707 363.270909 
L 562.195991 439.852727 
L 567.050276 457.525455 
L 571.90456 451.634545 
L 576.758845 475.198182 
L 586.467414 439.852727 
L 591.321698 457.525455 
L 596.175983 486.98 
L 601.030267 463.416364 
L 605.884552 428.070909 
L 610.738836 469.307273 
L 615.593121 428.070909 
L 620.447405 398.616364 
L 625.30169 439.852727 
L 630.155974 422.18 
L 635.010259 433.961818 
L 639.864543 451.634545 
L 644.718827 428.070909 
L 649.573112 463.416364 
L 654.427396 451.634545 
L 659.281681 469.307273 
L 664.135965 451.634545 
L 668.99025 445.743636 
L 673.844534 398.616364 
L 678.698819 469.307273 
L 683.553103 451.634545 
L 688.407388 428.070909 
L 693.261672 463.416364 
L 698.115957 445.743636 
L 702.970241 433.961818 
L 707.824526 469.307273 
L 712.67881 422.18 
L 717.533095 428.070909 
L 722.387379 445.743636 
L 727.241663 416.289091 
L 732.095948 433.961818 
L 736.950232 386.834545 
L 741.804517 428.070909 
L 746.658801 392.725455 
L 756.36737 428.070909 
L 761.221655 386.834545 
L 766.075939 445.743636 
L 770.930224 416.289091 
L 775.784508 433.961818 
L 780.638793 345.598182 
L 785.493077 363.270909 
L 790.347362 410.398182 
L 795.201646 433.961818 
L 800.055931 410.398182 
L 804.910215 433.961818 
L 809.7645 392.725455 
L 814.618784 357.38 
L 824.327353 380.943636 
L 829.181637 369.161818 
L 834.035922 410.398182 
L 838.890206 428.070909 
L 843.744491 357.38 
L 848.598775 433.961818 
L 853.45306 239.561818 
L 858.307344 351.489091 
L 863.161629 198.325455 
L 868.015913 257.234545 
L 872.870198 357.38 
L 877.724482 369.161818 
L 882.578767 369.161818 
L 887.433051 416.289091 
L 892.287336 428.070909 
L 897.14162 375.052727 
L 901.995904 398.616364 
L 911.704473 363.270909 
L 916.558758 410.398182 
L 921.413042 363.270909 
L 926.267327 363.270909 
L 931.121611 386.834545 
L 935.975896 369.161818 
L 940.83018 333.816364 
L 945.684465 322.034545 
L 950.538749 316.143636 
L 955.393034 339.707273 
L 960.247318 333.816364 
L 965.101603 263.125455 
L 974.810172 404.507273 
L 979.664456 292.58 
L 984.51874 322.034545 
L 989.373025 386.834545 
L 994.227309 322.034545 
L 999.081594 304.361818 
L 1003.935878 357.38 
L 1008.790163 327.925455 
L 1013.644447 339.707273 
L 1018.498732 345.598182 
L 1023.353016 310.252727 
L 1028.207301 251.343636 
L 1033.061585 333.816364 
L 1037.91587 351.489091 
L 1042.770154 304.361818 
L 1047.624439 233.670909 
L 1057.333008 233.670909 
L 1062.187292 263.125455 
L 1067.041577 174.761818 
L 1071.895861 62.834545 
L 1076.750145 210.107273 
L 1081.60443 251.343636 
L 1086.458714 286.689091 
L 1091.312999 280.798182 
L 1096.167283 304.361818 
L 1101.021568 33.38 
L 1105.875852 157.089091 
L 1105.875852 157.089091 
" style="fill:none;stroke:#ff7f0e;stroke-linecap:square;stroke-width:1.5;"/>
   </g>
   <g id="line2d_17">
    <defs>
     <path d="M 0 3 
C 0.795609 3 1.55874 2.683901 2.12132 2.12132 
C 2.683901 1.55874 3 0.795609 3 0 
C 3 -0.795609 2.683901 -1.55874 2.12132 -2.12132 
C 1.55874 -2.683901 0.795609 -3 0 -3 
C -0.795609 -3 -1.55874 -2.683901 -2.12132 -2.12132 
C -2.683901 -1.55874 -3 -0.795609 -3 0 
C -3 0.795609 -2.683901 1.55874 -2.12132 2.12132 
C -1.55874 2.683901 -0.795609 3 0 3 
z
" id="mec9e040f3a" style="stroke:#008000;"/>
    </defs>
    <g clip-path="url(#p673a961cee)">
     <use style="fill:#008000;stroke:#008000;" x="91.330398" xlink:href="#mec9e040f3a" y="484.706153"/>
     <use style="fill:#008000;stroke:#008000;" x="120.456105" xlink:href="#mec9e040f3a" y="486.98"/>
     <use style="fill:#008000;stroke:#008000;" x="149.581811" xlink:href="#mec9e040f3a" y="482.94458"/>
     <use style="fill:#008000;stroke:#008000;" x="178.707518" xlink:href="#mec9e040f3a" y="486.98"/>
     <use style="fill:#008000;stroke:#008000;" x="207.833225" xlink:href="#mec9e040f3a" y="481.439191"/>
     <use style="fill:#008000;stroke:#008000;" x="236.958932" xlink:href="#mec9e040f3a" y="486.98"/>
     <use style="fill:#008000;stroke:#008000;" x="266.084639" xlink:href="#mec9e040f3a" y="486.98"/>
     <use style="fill:#008000;stroke:#008000;" x="295.210346" xlink:href="#mec9e040f3a" y="486.98"/>
     <use style="fill:#008000;stroke:#008000;" x="324.336052" xlink:href="#mec9e040f3a" y="483.88165"/>
     <use style="fill:#008000;stroke:#008000;" x="353.461759" xlink:href="#mec9e040f3a" y="486.98"/>
     <use style="fill:#008000;stroke:#008000;" x="382.587466" xlink:href="#mec9e040f3a" y="464.829775"/>
     <use style="fill:#008000;stroke:#008000;" x="411.713173" xlink:href="#mec9e040f3a" y="481.182437"/>
     <use style="fill:#008000;stroke:#008000;" x="440.83888" xlink:href="#mec9e040f3a" y="464.912917"/>
     <use style="fill:#008000;stroke:#008000;" x="469.964587" xlink:href="#mec9e040f3a" y="486.98"/>
     <use style="fill:#008000;stroke:#008000;" x="499.090293" xlink:href="#mec9e040f3a" y="484.073594"/>
     <use style="fill:#008000;stroke:#008000;" x="528.216" xlink:href="#mec9e040f3a" y="486.98"/>
     <use style="fill:#008000;stroke:#008000;" x="557.341707" xlink:href="#mec9e040f3a" y="479.579569"/>
     <use style="fill:#008000;stroke:#008000;" x="586.467414" xlink:href="#mec9e040f3a" y="486.98"/>
     <use style="fill:#008000;stroke:#008000;" x="615.593121" xlink:href="#mec9e040f3a" y="473.304636"/>
     <use style="fill:#008000;stroke:#008000;" x="644.718827" xlink:href="#mec9e040f3a" y="486.98"/>
     <use style="fill:#008000;stroke:#008000;" x="673.844534" xlink:href="#mec9e040f3a" y="484.536056"/>
     <use style="fill:#008000;stroke:#008000;" x="702.970241" xlink:href="#mec9e040f3a" y="476.76708"/>
     <use style="fill:#008000;stroke:#008000;" x="732.095948" xlink:href="#mec9e040f3a" y="468.697816"/>
     <use style="fill:#008000;stroke:#008000;" x="761.221655" xlink:href="#mec9e040f3a" y="486.98"/>
     <use style="fill:#008000;stroke:#008000;" x="790.347362" xlink:href="#mec9e040f3a" y="383.977743"/>
     <use style="fill:#008000;stroke:#008000;" x="819.473068" xlink:href="#mec9e040f3a" y="469.999482"/>
     <use style="fill:#008000;stroke:#008000;" x="848.598775" xlink:href="#mec9e040f3a" y="457.408799"/>
     <use style="fill:#008000;stroke:#008000;" x="877.724482" xlink:href="#mec9e040f3a" y="408.850392"/>
     <use style="fill:#008000;stroke:#008000;" x="906.850189" xlink:href="#mec9e040f3a" y="434.744244"/>
     <use style="fill:#008000;stroke:#008000;" x="935.975896" xlink:href="#mec9e040f3a" y="454.277234"/>
     <use style="fill:#008000;stroke:#008000;" x="965.101603" xlink:href="#mec9e040f3a" y="396.544156"/>
     <use style="fill:#008000;stroke:#008000;" x="994.227309" xlink:href="#mec9e040f3a" y="458.647365"/>
     <use style="fill:#008000;stroke:#008000;" x="1023.353016" xlink:href="#mec9e040f3a" y="429.008684"/>
     <use style="fill:#008000;stroke:#008000;" x="1052.478723" xlink:href="#mec9e040f3a" y="343.189045"/>
     <use style="fill:#008000;stroke:#008000;" x="1081.60443" xlink:href="#mec9e040f3a" y="221.341987"/>
    </g>
   </g>
   <g id="patch_3">
    <path d="M 40.603125 509.66 
L 40.603125 10.7 
" style="fill:none;stroke:#000000;stroke-linecap:square;stroke-linejoin:miter;stroke-width:0.8;"/>
   </g>
   <g id="patch_4">
    <path d="M 1156.603125 509.66 
L 1156.603125 10.7 
" style="fill:none;stroke:#000000;stroke-linecap:square;stroke-linejoin:miter;stroke-width:0.8;"/>
   </g>
   <g id="patch_5">
    <path d="M 40.603125 509.66 
L 1156.603125 509.66 
" style="fill:none;stroke:#000000;stroke-linecap:square;stroke-linejoin:miter;stroke-width:0.8;"/>
   </g>
   <g id="patch_6">
    <path d="M 40.603125 10.7 
L 1156.603125 10.7 
" style="fill:none;stroke:#000000;stroke-linecap:square;stroke-linejoin:miter;stroke-width:0.8;"/>
   </g>
   <g id="legend_1">
    <g id="patch_7">
     <path d="M 47.603125 62.734375 
L 195.378125 62.734375 
Q 197.378125 62.734375 197.378125 60.734375 
L 197.378125 17.7 
Q 197.378125 15.7 195.378125 15.7 
L 47.603125 15.7 
Q 45.603125 15.7 45.603125 17.7 
L 45.603125 60.734375 
Q 45.603125 62.734375 47.603125 62.734375 
z
" style="fill:#ffffff;opacity:0.8;stroke:#cccccc;stroke-linejoin:miter;"/>
    </g>
    <g id="line2d_18">
     <path d="M 49.603125 23.798437 
L 69.603125 23.798437 
" style="fill:none;stroke:#008000;stroke-dasharray:5.55,2.4;stroke-dashoffset:0;stroke-width:1.5;"/>
    </g>
    <g id="line2d_19"/>
    <g id="text_17">
     <!-- Predicted -->
     <defs>
      <path d="M 19.671875 64.796875 
L 19.671875 37.40625 
L 32.078125 37.40625 
Q 38.96875 37.40625 42.71875 40.96875 
Q 46.484375 44.53125 46.484375 51.125 
Q 46.484375 57.671875 42.71875 61.234375 
Q 38.96875 64.796875 32.078125 64.796875 
z
M 9.8125 72.90625 
L 32.078125 72.90625 
Q 44.34375 72.90625 50.609375 67.359375 
Q 56.890625 61.8125 56.890625 51.125 
Q 56.890625 40.328125 50.609375 34.8125 
Q 44.34375 29.296875 32.078125 29.296875 
L 19.671875 29.296875 
L 19.671875 0 
L 9.8125 0 
z
" id="DejaVuSans-50"/>
      <path d="M 41.109375 46.296875 
Q 39.59375 47.171875 37.8125 47.578125 
Q 36.03125 48 33.890625 48 
Q 26.265625 48 22.1875 43.046875 
Q 18.109375 38.09375 18.109375 28.8125 
L 18.109375 0 
L 9.078125 0 
L 9.078125 54.6875 
L 18.109375 54.6875 
L 18.109375 46.1875 
Q 20.953125 51.171875 25.484375 53.578125 
Q 30.03125 56 36.53125 56 
Q 37.453125 56 38.578125 55.875 
Q 39.703125 55.765625 41.0625 55.515625 
z
" id="DejaVuSans-72"/>
      <path d="M 45.40625 46.390625 
L 45.40625 75.984375 
L 54.390625 75.984375 
L 54.390625 0 
L 45.40625 0 
L 45.40625 8.203125 
Q 42.578125 3.328125 38.25 0.953125 
Q 33.9375 -1.421875 27.875 -1.421875 
Q 17.96875 -1.421875 11.734375 6.484375 
Q 5.515625 14.40625 5.515625 27.296875 
Q 5.515625 40.1875 11.734375 48.09375 
Q 17.96875 56 27.875 56 
Q 33.9375 56 38.25 53.625 
Q 42.578125 51.265625 45.40625 46.390625 
z
M 14.796875 27.296875 
Q 14.796875 17.390625 18.875 11.75 
Q 22.953125 6.109375 30.078125 6.109375 
Q 37.203125 6.109375 41.296875 11.75 
Q 45.40625 17.390625 45.40625 27.296875 
Q 45.40625 37.203125 41.296875 42.84375 
Q 37.203125 48.484375 30.078125 48.484375 
Q 22.953125 48.484375 18.875 42.84375 
Q 14.796875 37.203125 14.796875 27.296875 
z
" id="DejaVuSans-64"/>
      <path d="M 48.78125 52.59375 
L 48.78125 44.1875 
Q 44.96875 46.296875 41.140625 47.34375 
Q 37.3125 48.390625 33.40625 48.390625 
Q 24.65625 48.390625 19.8125 42.84375 
Q 14.984375 37.3125 14.984375 27.296875 
Q 14.984375 17.28125 19.8125 11.734375 
Q 24.65625 6.203125 33.40625 6.203125 
Q 37.3125 6.203125 41.140625 7.25 
Q 44.96875 8.296875 48.78125 10.40625 
L 48.78125 2.09375 
Q 45.015625 0.34375 40.984375 -0.53125 
Q 36.96875 -1.421875 32.421875 -1.421875 
Q 20.0625 -1.421875 12.78125 6.34375 
Q 5.515625 14.109375 5.515625 27.296875 
Q 5.515625 40.671875 12.859375 48.328125 
Q 20.21875 56 33.015625 56 
Q 37.15625 56 41.109375 55.140625 
Q 45.0625 54.296875 48.78125 52.59375 
z
" id="DejaVuSans-63"/>
      <path d="M 18.3125 70.21875 
L 18.3125 54.6875 
L 36.8125 54.6875 
L 36.8125 47.703125 
L 18.3125 47.703125 
L 18.3125 18.015625 
Q 18.3125 11.328125 20.140625 9.421875 
Q 21.96875 7.515625 27.59375 7.515625 
L 36.8125 7.515625 
L 36.8125 0 
L 27.59375 0 
Q 17.1875 0 13.234375 3.875 
Q 9.28125 7.765625 9.28125 18.015625 
L 9.28125 47.703125 
L 2.6875 47.703125 
L 2.6875 54.6875 
L 9.28125 54.6875 
L 9.28125 70.21875 
z
" id="DejaVuSans-74"/>
     </defs>
     <g transform="translate(77.603125 27.298437)scale(0.1 -0.1)">
      <use xlink:href="#DejaVuSans-50"/>
      <use x="60.287109" xlink:href="#DejaVuSans-72"/>
      <use x="101.369141" xlink:href="#DejaVuSans-65"/>
      <use x="162.892578" xlink:href="#DejaVuSans-64"/>
      <use x="226.369141" xlink:href="#DejaVuSans-69"/>
      <use x="254.152344" xlink:href="#DejaVuSans-63"/>
      <use x="309.132812" xlink:href="#DejaVuSans-74"/>
      <use x="348.341797" xlink:href="#DejaVuSans-65"/>
      <use x="409.865234" xlink:href="#DejaVuSans-64"/>
     </g>
    </g>
    <g id="line2d_20">
     <path d="M 49.603125 38.476562 
L 69.603125 38.476562 
" style="fill:none;stroke:#ff7f0e;stroke-linecap:square;stroke-width:1.5;"/>
    </g>
    <g id="line2d_21"/>
    <g id="text_18">
     <!-- Real Data -->
     <defs>
      <path d="M 34.28125 27.484375 
Q 23.390625 27.484375 19.1875 25 
Q 14.984375 22.515625 14.984375 16.5 
Q 14.984375 11.71875 18.140625 8.90625 
Q 21.296875 6.109375 26.703125 6.109375 
Q 34.1875 6.109375 38.703125 11.40625 
Q 43.21875 16.703125 43.21875 25.484375 
L 43.21875 27.484375 
z
M 52.203125 31.203125 
L 52.203125 0 
L 43.21875 0 
L 43.21875 8.296875 
Q 40.140625 3.328125 35.546875 0.953125 
Q 30.953125 -1.421875 24.3125 -1.421875 
Q 15.921875 -1.421875 10.953125 3.296875 
Q 6 8.015625 6 15.921875 
Q 6 25.140625 12.171875 29.828125 
Q 18.359375 34.515625 30.609375 34.515625 
L 43.21875 34.515625 
L 43.21875 35.40625 
Q 43.21875 41.609375 39.140625 45 
Q 35.0625 48.390625 27.6875 48.390625 
Q 23 48.390625 18.546875 47.265625 
Q 14.109375 46.140625 10.015625 43.890625 
L 10.015625 52.203125 
Q 14.9375 54.109375 19.578125 55.046875 
Q 24.21875 56 28.609375 56 
Q 40.484375 56 46.34375 49.84375 
Q 52.203125 43.703125 52.203125 31.203125 
z
" id="DejaVuSans-61"/>
      <path d="M 9.421875 75.984375 
L 18.40625 75.984375 
L 18.40625 0 
L 9.421875 0 
z
" id="DejaVuSans-6c"/>
      <path id="DejaVuSans-20"/>
      <path d="M 19.671875 64.796875 
L 19.671875 8.109375 
L 31.59375 8.109375 
Q 46.6875 8.109375 53.6875 14.9375 
Q 60.6875 21.78125 60.6875 36.53125 
Q 60.6875 51.171875 53.6875 57.984375 
Q 46.6875 64.796875 31.59375 64.796875 
z
M 9.8125 72.90625 
L 30.078125 72.90625 
Q 51.265625 72.90625 61.171875 64.09375 
Q 71.09375 55.28125 71.09375 36.53125 
Q 71.09375 17.671875 61.125 8.828125 
Q 51.171875 0 30.078125 0 
L 9.8125 0 
z
" id="DejaVuSans-44"/>
     </defs>
     <g transform="translate(77.603125 41.976562)scale(0.1 -0.1)">
      <use xlink:href="#DejaVuSans-52"/>
      <use x="69.419922" xlink:href="#DejaVuSans-65"/>
      <use x="130.943359" xlink:href="#DejaVuSans-61"/>
      <use x="192.222656" xlink:href="#DejaVuSans-6c"/>
      <use x="220.005859" xlink:href="#DejaVuSans-20"/>
      <use x="251.792969" xlink:href="#DejaVuSans-44"/>
      <use x="328.794922" xlink:href="#DejaVuSans-61"/>
      <use x="390.074219" xlink:href="#DejaVuSans-74"/>
      <use x="429.283203" xlink:href="#DejaVuSans-61"/>
     </g>
    </g>
    <g id="line2d_22"/>
    <g id="line2d_23">
     <g>
      <use style="fill:#008000;stroke:#008000;" x="59.603125" xlink:href="#mec9e040f3a" y="53.154688"/>
     </g>
    </g>
    <g id="text_19">
     <!-- Start Point for Forecast -->
     <defs>
      <path d="M 53.515625 70.515625 
L 53.515625 60.890625 
Q 47.90625 63.578125 42.921875 64.890625 
Q 37.9375 66.21875 33.296875 66.21875 
Q 25.25 66.21875 20.875 63.09375 
Q 16.5 59.96875 16.5 54.203125 
Q 16.5 49.359375 19.40625 46.890625 
Q 22.3125 44.4375 30.421875 42.921875 
L 36.375 41.703125 
Q 47.40625 39.59375 52.65625 34.296875 
Q 57.90625 29 57.90625 20.125 
Q 57.90625 9.515625 50.796875 4.046875 
Q 43.703125 -1.421875 29.984375 -1.421875 
Q 24.8125 -1.421875 18.96875 -0.25 
Q 13.140625 0.921875 6.890625 3.21875 
L 6.890625 13.375 
Q 12.890625 10.015625 18.65625 8.296875 
Q 24.421875 6.59375 29.984375 6.59375 
Q 38.421875 6.59375 43.015625 9.90625 
Q 47.609375 13.234375 47.609375 19.390625 
Q 47.609375 24.75 44.3125 27.78125 
Q 41.015625 30.8125 33.5 32.328125 
L 27.484375 33.5 
Q 16.453125 35.6875 11.515625 40.375 
Q 6.59375 45.0625 6.59375 53.421875 
Q 6.59375 63.09375 13.40625 68.65625 
Q 20.21875 74.21875 32.171875 74.21875 
Q 37.3125 74.21875 42.625 73.28125 
Q 47.953125 72.359375 53.515625 70.515625 
z
" id="DejaVuSans-53"/>
      <path d="M 30.609375 48.390625 
Q 23.390625 48.390625 19.1875 42.75 
Q 14.984375 37.109375 14.984375 27.296875 
Q 14.984375 17.484375 19.15625 11.84375 
Q 23.34375 6.203125 30.609375 6.203125 
Q 37.796875 6.203125 41.984375 11.859375 
Q 46.1875 17.53125 46.1875 27.296875 
Q 46.1875 37.015625 41.984375 42.703125 
Q 37.796875 48.390625 30.609375 48.390625 
z
M 30.609375 56 
Q 42.328125 56 49.015625 48.375 
Q 55.71875 40.765625 55.71875 27.296875 
Q 55.71875 13.875 49.015625 6.21875 
Q 42.328125 -1.421875 30.609375 -1.421875 
Q 18.84375 -1.421875 12.171875 6.21875 
Q 5.515625 13.875 5.515625 27.296875 
Q 5.515625 40.765625 12.171875 48.375 
Q 18.84375 56 30.609375 56 
z
" id="DejaVuSans-6f"/>
      <path d="M 54.890625 33.015625 
L 54.890625 0 
L 45.90625 0 
L 45.90625 32.71875 
Q 45.90625 40.484375 42.875 44.328125 
Q 39.84375 48.1875 33.796875 48.1875 
Q 26.515625 48.1875 22.3125 43.546875 
Q 18.109375 38.921875 18.109375 30.90625 
L 18.109375 0 
L 9.078125 0 
L 9.078125 54.6875 
L 18.109375 54.6875 
L 18.109375 46.1875 
Q 21.34375 51.125 25.703125 53.5625 
Q 30.078125 56 35.796875 56 
Q 45.21875 56 50.046875 50.171875 
Q 54.890625 44.34375 54.890625 33.015625 
z
" id="DejaVuSans-6e"/>
      <path d="M 9.8125 72.90625 
L 51.703125 72.90625 
L 51.703125 64.59375 
L 19.671875 64.59375 
L 19.671875 43.109375 
L 48.578125 43.109375 
L 48.578125 34.8125 
L 19.671875 34.8125 
L 19.671875 0 
L 9.8125 0 
z
" id="DejaVuSans-46"/>
     </defs>
     <g transform="translate(77.603125 56.654688)scale(0.1 -0.1)">
      <use xlink:href="#DejaVuSans-53"/>
      <use x="63.476562" xlink:href="#DejaVuSans-74"/>
      <use x="102.685547" xlink:href="#DejaVuSans-61"/>
      <use x="163.964844" xlink:href="#DejaVuSans-72"/>
      <use x="205.078125" xlink:href="#DejaVuSans-74"/>
      <use x="244.287109" xlink:href="#DejaVuSans-20"/>
      <use x="276.074219" xlink:href="#DejaVuSans-50"/>
      <use x="336.330078" xlink:href="#DejaVuSans-6f"/>
      <use x="397.511719" xlink:href="#DejaVuSans-69"/>
      <use x="425.294922" xlink:href="#DejaVuSans-6e"/>
      <use x="488.673828" xlink:href="#DejaVuSans-74"/>
      <use x="527.882812" xlink:href="#DejaVuSans-20"/>
      <use x="559.669922" xlink:href="#DejaVuSans-66"/>
      <use x="594.875" xlink:href="#DejaVuSans-6f"/>
      <use x="656.056641" xlink:href="#DejaVuSans-72"/>
      <use x="697.169922" xlink:href="#DejaVuSans-20"/>
      <use x="728.957031" xlink:href="#DejaVuSans-46"/>
      <use x="786.429688" xlink:href="#DejaVuSans-6f"/>
      <use x="847.611328" xlink:href="#DejaVuSans-72"/>
      <use x="888.693359" xlink:href="#DejaVuSans-65"/>
      <use x="950.216797" xlink:href="#DejaVuSans-63"/>
      <use x="1005.197266" xlink:href="#DejaVuSans-61"/>
      <use x="1066.476562" xlink:href="#DejaVuSans-73"/>
      <use x="1118.576172" xlink:href="#DejaVuSans-74"/>
     </g>
    </g>
   </g>
  </g>
  <g id="axes_2">
   <g id="patch_8">
    <path d="M 40.603125 645.74 
L 1158.043125 645.74 
L 1158.043125 516.14 
L 40.603125 516.14 
z
" style="fill:none;"/>
   </g>
   <g id="matplotlib.axis_3">
    <g id="xtick_6">
     <g id="line2d_24">
      <g>
       <use style="stroke:#000000;stroke-width:0.8;" x="91.395852" xlink:href="#m5b90509074" y="645.74"/>
      </g>
     </g>
     <g id="text_20">
      <!-- 0 -->
      <g transform="translate(88.214602 660.338437)scale(0.1 -0.1)">
       <use xlink:href="#DejaVuSans-30"/>
      </g>
     </g>
    </g>
    <g id="xtick_7">
     <g id="line2d_25">
      <g>
       <use style="stroke:#000000;stroke-width:0.8;" x="215.887831" xlink:href="#m5b90509074" y="645.74"/>
      </g>
     </g>
     <g id="text_21">
      <!-- 25 -->
      <g transform="translate(209.525331 660.338437)scale(0.1 -0.1)">
       <use xlink:href="#DejaVuSans-32"/>
       <use x="63.623047" xlink:href="#DejaVuSans-35"/>
      </g>
     </g>
    </g>
    <g id="xtick_8">
     <g id="line2d_26">
      <g>
       <use style="stroke:#000000;stroke-width:0.8;" x="340.379809" xlink:href="#m5b90509074" y="645.74"/>
      </g>
     </g>
     <g id="text_22">
      <!-- 50 -->
      <g transform="translate(334.017309 660.338437)scale(0.1 -0.1)">
       <use xlink:href="#DejaVuSans-35"/>
       <use x="63.623047" xlink:href="#DejaVuSans-30"/>
      </g>
     </g>
    </g>
    <g id="xtick_9">
     <g id="line2d_27">
      <g>
       <use style="stroke:#000000;stroke-width:0.8;" x="464.871788" xlink:href="#m5b90509074" y="645.74"/>
      </g>
     </g>
     <g id="text_23">
      <!-- 75 -->
      <g transform="translate(458.509288 660.338437)scale(0.1 -0.1)">
       <use xlink:href="#DejaVuSans-37"/>
       <use x="63.623047" xlink:href="#DejaVuSans-35"/>
      </g>
     </g>
    </g>
    <g id="xtick_10">
     <g id="line2d_28">
      <g>
       <use style="stroke:#000000;stroke-width:0.8;" x="589.363767" xlink:href="#m5b90509074" y="645.74"/>
      </g>
     </g>
     <g id="text_24">
      <!-- 100 -->
      <g transform="translate(579.820017 660.338437)scale(0.1 -0.1)">
       <use xlink:href="#DejaVuSans-31"/>
       <use x="63.623047" xlink:href="#DejaVuSans-30"/>
       <use x="127.246094" xlink:href="#DejaVuSans-30"/>
      </g>
     </g>
    </g>
    <g id="xtick_11">
     <g id="line2d_29">
      <g>
       <use style="stroke:#000000;stroke-width:0.8;" x="713.855745" xlink:href="#m5b90509074" y="645.74"/>
      </g>
     </g>
     <g id="text_25">
      <!-- 125 -->
      <g transform="translate(704.311995 660.338437)scale(0.1 -0.1)">
       <use xlink:href="#DejaVuSans-31"/>
       <use x="63.623047" xlink:href="#DejaVuSans-32"/>
       <use x="127.246094" xlink:href="#DejaVuSans-35"/>
      </g>
     </g>
    </g>
    <g id="xtick_12">
     <g id="line2d_30">
      <g>
       <use style="stroke:#000000;stroke-width:0.8;" x="838.347724" xlink:href="#m5b90509074" y="645.74"/>
      </g>
     </g>
     <g id="text_26">
      <!-- 150 -->
      <g transform="translate(828.803974 660.338437)scale(0.1 -0.1)">
       <use xlink:href="#DejaVuSans-31"/>
       <use x="63.623047" xlink:href="#DejaVuSans-35"/>
       <use x="127.246094" xlink:href="#DejaVuSans-30"/>
      </g>
     </g>
    </g>
    <g id="xtick_13">
     <g id="line2d_31">
      <g>
       <use style="stroke:#000000;stroke-width:0.8;" x="962.839703" xlink:href="#m5b90509074" y="645.74"/>
      </g>
     </g>
     <g id="text_27">
      <!-- 175 -->
      <g transform="translate(953.295953 660.338437)scale(0.1 -0.1)">
       <use xlink:href="#DejaVuSans-31"/>
       <use x="63.623047" xlink:href="#DejaVuSans-37"/>
       <use x="127.246094" xlink:href="#DejaVuSans-35"/>
      </g>
     </g>
    </g>
    <g id="xtick_14">
     <g id="line2d_32">
      <g>
       <use style="stroke:#000000;stroke-width:0.8;" x="1087.331681" xlink:href="#m5b90509074" y="645.74"/>
      </g>
     </g>
     <g id="text_28">
      <!-- 200 -->
      <g transform="translate(1077.787931 660.338437)scale(0.1 -0.1)">
       <use xlink:href="#DejaVuSans-32"/>
       <use x="63.623047" xlink:href="#DejaVuSans-30"/>
       <use x="127.246094" xlink:href="#DejaVuSans-30"/>
      </g>
     </g>
    </g>
   </g>
   <g id="matplotlib.axis_4">
    <g id="ytick_10">
     <g id="line2d_33">
      <g>
       <use style="stroke:#000000;stroke-width:0.8;" x="40.603125" xlink:href="#med8c5211e2" y="619.315142"/>
      </g>
     </g>
     <g id="text_29">
      <!-- 10 -->
      <g transform="translate(20.878125 623.11436)scale(0.1 -0.1)">
       <use xlink:href="#DejaVuSans-31"/>
       <use x="63.623047" xlink:href="#DejaVuSans-30"/>
      </g>
     </g>
    </g>
    <g id="ytick_11">
     <g id="line2d_34">
      <g>
       <use style="stroke:#000000;stroke-width:0.8;" x="40.603125" xlink:href="#med8c5211e2" y="588.973365"/>
      </g>
     </g>
     <g id="text_30">
      <!-- 20 -->
      <g transform="translate(20.878125 592.772583)scale(0.1 -0.1)">
       <use xlink:href="#DejaVuSans-32"/>
       <use x="63.623047" xlink:href="#DejaVuSans-30"/>
      </g>
     </g>
    </g>
    <g id="ytick_12">
     <g id="line2d_35">
      <g>
       <use style="stroke:#000000;stroke-width:0.8;" x="40.603125" xlink:href="#med8c5211e2" y="558.631588"/>
      </g>
     </g>
     <g id="text_31">
      <!-- 30 -->
      <g transform="translate(20.878125 562.430807)scale(0.1 -0.1)">
       <use xlink:href="#DejaVuSans-33"/>
       <use x="63.623047" xlink:href="#DejaVuSans-30"/>
      </g>
     </g>
    </g>
    <g id="ytick_13">
     <g id="line2d_36">
      <g>
       <use style="stroke:#000000;stroke-width:0.8;" x="40.603125" xlink:href="#med8c5211e2" y="528.289811"/>
      </g>
     </g>
     <g id="text_32">
      <!-- 40 -->
      <g transform="translate(20.878125 532.08903)scale(0.1 -0.1)">
       <use xlink:href="#DejaVuSans-34"/>
       <use x="63.623047" xlink:href="#DejaVuSans-30"/>
      </g>
     </g>
    </g>
    <g id="text_33">
     <!-- Temperature -->
     <defs>
      <path d="M 18.109375 8.203125 
L 18.109375 -20.796875 
L 9.078125 -20.796875 
L 9.078125 54.6875 
L 18.109375 54.6875 
L 18.109375 46.390625 
Q 20.953125 51.265625 25.265625 53.625 
Q 29.59375 56 35.59375 56 
Q 45.5625 56 51.78125 48.09375 
Q 58.015625 40.1875 58.015625 27.296875 
Q 58.015625 14.40625 51.78125 6.484375 
Q 45.5625 -1.421875 35.59375 -1.421875 
Q 29.59375 -1.421875 25.265625 0.953125 
Q 20.953125 3.328125 18.109375 8.203125 
z
M 48.6875 27.296875 
Q 48.6875 37.203125 44.609375 42.84375 
Q 40.53125 48.484375 33.40625 48.484375 
Q 26.265625 48.484375 22.1875 42.84375 
Q 18.109375 37.203125 18.109375 27.296875 
Q 18.109375 17.390625 22.1875 11.75 
Q 26.265625 6.109375 33.40625 6.109375 
Q 40.53125 6.109375 44.609375 11.75 
Q 48.6875 17.390625 48.6875 27.296875 
z
" id="DejaVuSans-70"/>
     </defs>
     <g style="fill:#0000ff;" transform="translate(14.798438 613.557187)rotate(-90)scale(0.1 -0.1)">
      <use xlink:href="#DejaVuSans-54"/>
      <use x="60.818359" xlink:href="#DejaVuSans-65"/>
      <use x="122.341797" xlink:href="#DejaVuSans-6d"/>
      <use x="219.753906" xlink:href="#DejaVuSans-70"/>
      <use x="283.230469" xlink:href="#DejaVuSans-65"/>
      <use x="344.753906" xlink:href="#DejaVuSans-72"/>
      <use x="385.867188" xlink:href="#DejaVuSans-61"/>
      <use x="447.146484" xlink:href="#DejaVuSans-74"/>
      <use x="486.355469" xlink:href="#DejaVuSans-75"/>
      <use x="549.734375" xlink:href="#DejaVuSans-72"/>
      <use x="590.816406" xlink:href="#DejaVuSans-65"/>
     </g>
    </g>
   </g>
   <g id="line2d_37">
    <path clip-path="url(#p17e5f8508e)" d="M 91.395852 527.647475 
L 96.375531 525.15945 
L 101.355211 531.692641 
L 106.33489 543.841792 
L 111.314569 560.118942 
L 116.294248 574.361675 
L 121.273927 579.669059 
L 126.253606 573.567631 
L 131.233285 563.196812 
L 136.212965 544.269611 
L 141.192644 535.961426 
L 146.172323 527.957265 
L 151.152002 522.264541 
L 156.131681 524.600251 
L 161.11136 533.415144 
L 166.091039 547.972522 
L 171.070719 567.550553 
L 176.050398 576.182182 
L 181.030077 580.875448 
L 186.009756 574.482132 
L 190.989435 559.276654 
L 195.969114 547.462173 
L 200.948793 535.193779 
L 205.928473 529.325679 
L 210.908152 525.788435 
L 215.887831 524.292889 
L 220.86751 531.143152 
L 225.847189 544.096056 
L 230.826868 563.039338 
L 235.806547 570.933661 
L 240.786227 584.017642 
L 245.765906 571.060186 
L 250.745585 561.328972 
L 255.725264 550.617111 
L 260.704943 536.116776 
L 265.684622 529.03106 
L 270.664301 523.215452 
L 275.643981 526.177416 
L 280.62366 531.778205 
L 285.603339 543.072021 
L 290.583018 563.211376 
L 295.562697 577.579117 
L 300.542376 577.983877 
L 305.522055 572.496566 
L 310.501735 564.999113 
L 315.481414 548.367875 
L 320.461093 535.112463 
L 325.440772 527.703911 
L 330.420451 527.323729 
L 335.40013 524.95525 
L 340.379809 531.741491 
L 345.359489 544.505063 
L 350.339168 562.304156 
L 355.318847 576.283827 
L 360.298526 578.310961 
L 365.278205 573.12282 
L 370.257884 558.946839 
L 375.237564 552.637266 
L 380.217243 535.718388 
L 385.196922 530.365795 
L 390.176601 525.326329 
L 395.15628 527.166255 
L 400.135959 532.987021 
L 405.115638 543.561434 
L 415.074997 581.323596 
L 420.054676 585.020741 
L 425.034355 576.288378 
L 430.014034 563.502657 
L 434.993713 549.417094 
L 439.973392 540.71932 
L 444.953072 529.167598 
L 449.932751 527.686616 
L 454.91243 526.522099 
L 459.892109 533.677297 
L 464.871788 547.641796 
L 469.851467 564.449927 
L 474.831146 572.11426 
L 479.810826 579.344098 
L 484.790505 573.102491 
L 489.770184 561.854795 
L 494.749863 552.379058 
L 499.729542 536.479056 
L 504.709221 524.82569 
L 509.6889 527.611672 
L 514.66858 524.726776 
L 519.648259 532.314951 
L 524.627938 544.886459 
L 529.607617 567.176136 
L 534.587296 584.875708 
L 539.566975 585.863333 
L 544.546654 572.711689 
L 549.526334 563.660737 
L 554.506013 550.508791 
L 559.485692 534.211009 
L 564.465371 529.106005 
L 574.424729 524.843288 
L 579.404408 531.957221 
L 584.384088 544.352748 
L 589.363767 561.180904 
L 594.343446 575.253117 
L 599.323125 587.432306 
L 604.302804 578.915672 
L 609.282483 555.030929 
L 619.241842 536.68447 
L 624.221521 530.04751 
L 629.2012 525.675563 
L 634.180879 526.147681 
L 639.160558 531.22295 
L 644.140237 547.348391 
L 649.119916 565.017015 
L 654.099596 576.963786 
L 659.079275 580.66882 
L 664.058954 569.464816 
L 669.038633 562.851219 
L 678.997991 536.798252 
L 683.97767 525.925276 
L 688.95735 527.106482 
L 693.937029 525.685273 
L 698.916708 532.479707 
L 703.896387 544.595482 
L 708.876066 561.731607 
L 713.855745 574.853515 
L 718.835424 572.687113 
L 723.815104 568.04391 
L 728.794783 555.838931 
L 733.774462 547.730091 
L 738.754141 535.722636 
L 743.73382 524.50164 
L 748.713499 523.96368 
L 753.693178 522.030909 
L 758.672858 529.570537 
L 763.652537 542.032512 
L 768.632216 559.704776 
L 773.611895 574.267919 
L 778.591574 581.440715 
L 783.571253 572.808783 
L 788.550932 566.481309 
L 793.530612 551.341976 
L 798.510291 536.680829 
L 803.48997 528.515554 
L 808.469649 524.271042 
L 813.449328 525.734426 
L 818.429007 532.506104 
L 823.408686 546.298262 
L 828.388366 569.733644 
L 833.368045 577.901954 
L 838.347724 580.268612 
L 843.327403 573.893805 
L 848.307082 566.850872 
L 853.286761 550.832841 
L 858.266441 532.903581 
L 863.24612 526.734795 
L 868.225799 523.522814 
L 873.205478 525.35212 
L 878.185157 532.628685 
L 883.164836 544.096966 
L 888.144515 562.960449 
L 893.124195 575.211245 
L 898.103874 578.11647 
L 903.083553 569.61076 
L 908.063232 559.405607 
L 913.042911 551.706381 
L 918.02259 539.941963 
L 923.002269 530.810909 
L 927.981949 526.161639 
L 932.961628 529.48558 
L 937.941307 533.549861 
L 942.920986 548.234978 
L 952.880344 579.393252 
L 957.860023 579.81743 
L 962.839703 575.062267 
L 967.819382 561.465206 
L 972.799061 546.801936 
L 977.77874 538.159991 
L 982.758419 529.289572 
L 987.738098 527.343451 
L 992.717777 525.78267 
L 997.697457 533.714617 
L 1002.677136 546.55283 
L 1007.656815 566.059255 
L 1012.636494 572.543293 
L 1017.616173 578.82131 
L 1022.595852 569.986694 
L 1027.575531 559.974515 
L 1032.555211 549.339115 
L 1037.53489 535.059365 
L 1047.494248 524.635447 
L 1052.473927 522.432634 
L 1057.453606 529.202188 
L 1062.433285 542.015217 
L 1067.412965 563.045709 
L 1072.392644 580.424872 
L 1077.372323 580.263151 
L 1082.352002 570.404197 
L 1087.331681 557.754407 
L 1092.31136 551.084678 
L 1097.291039 535.609461 
L 1102.270719 525.476521 
L 1107.250398 524.621793 
L 1107.250398 524.621793 
" style="fill:none;stroke:#ff0000;stroke-linecap:square;stroke-width:1.5;"/>
   </g>
   <g id="line2d_38">
    <path clip-path="url(#p17e5f8508e)" d="M 91.395852 548.07447 
L 96.375531 546.009105 
L 101.355211 552.962834 
L 106.33489 565.805294 
L 111.314569 581.653714 
L 116.294248 595.815132 
L 121.273927 599.966191 
L 126.253606 594.641209 
L 131.233285 585.482543 
L 136.212965 565.985828 
L 141.192644 556.433933 
L 146.172323 549.641319 
L 151.152002 544.152492 
L 156.131681 545.296073 
L 161.11136 554.982382 
L 166.091039 568.081231 
L 171.070719 585.809324 
L 176.050398 595.677684 
L 181.030077 602.227867 
L 186.009756 594.981037 
L 190.989435 580.545026 
L 195.969114 568.560934 
L 200.948793 556.890577 
L 205.928473 550.143779 
L 210.908152 545.308514 
L 215.887831 544.70805 
L 220.86751 553.366986 
L 225.847189 565.770704 
L 230.826868 584.79955 
L 235.806547 590.780824 
L 240.786227 601.744522 
L 245.765906 593.268243 
L 250.745585 582.216554 
L 255.725264 572.229255 
L 260.704943 558.178585 
L 265.684622 550.232074 
L 270.664301 544.864917 
L 275.643981 546.972153 
L 280.62366 553.975035 
L 285.603339 565.465163 
L 290.583018 583.215406 
L 295.562697 596.648924 
L 300.542376 600.537526 
L 310.501735 584.917579 
L 320.461093 556.395702 
L 325.440772 549.866455 
L 335.40013 546.976401 
L 340.379809 551.982794 
L 345.359489 566.840252 
L 350.339168 582.846753 
L 355.318847 594.372987 
L 360.298526 597.175354 
L 365.278205 594.068963 
L 370.257884 581.62671 
L 375.237564 572.857937 
L 380.217243 558.492319 
L 385.196922 551.712146 
L 390.176601 547.104443 
L 395.15628 549.170415 
L 400.135959 555.519432 
L 405.115638 566.685812 
L 410.095318 582.541211 
L 415.074997 601.05273 
L 420.054676 601.953577 
L 425.034355 593.844737 
L 430.014034 581.897359 
L 434.993713 568.888019 
L 439.973392 560.179625 
L 444.953072 550.110403 
L 449.932751 547.278302 
L 454.91243 546.650834 
L 459.892109 556.29254 
L 464.871788 569.273359 
L 469.851467 584.926075 
L 474.831146 593.318914 
L 479.810826 598.842331 
L 484.790505 591.966581 
L 489.770184 582.912595 
L 494.749863 572.613382 
L 499.729542 556.765872 
L 504.709221 547.808373 
L 509.6889 546.715765 
L 514.66858 545.081254 
L 519.648259 554.882558 
L 524.627938 566.713727 
L 529.607617 587.428361 
L 534.587296 603.936109 
L 539.566975 605.458052 
L 544.546654 593.363213 
L 549.526334 583.611062 
L 554.506013 571.625757 
L 559.485692 555.605602 
L 564.465371 548.936176 
L 569.44505 548.27776 
L 574.424729 547.039208 
L 579.404408 553.446482 
L 584.384088 567.68436 
L 589.363767 582.929586 
L 594.343446 595.081164 
L 599.323125 605.037212 
L 604.302804 598.771028 
L 609.282483 578.22388 
L 614.262162 567.749292 
L 619.241842 557.923714 
L 624.221521 550.439915 
L 629.2012 546.366835 
L 634.180879 546.728509 
L 639.160558 551.913312 
L 644.140237 569.152902 
L 649.119916 585.298369 
L 654.099596 598.502807 
L 659.079275 602.666609 
L 664.058954 591.122169 
L 669.038633 584.069527 
L 678.997991 557.047444 
L 683.97767 547.757398 
L 688.95735 547.373878 
L 693.937029 546.580137 
L 698.916708 554.056048 
L 703.896387 566.387856 
L 708.876066 582.06879 
L 713.855745 593.484884 
L 718.835424 595.245313 
L 723.815104 588.401119 
L 728.794783 578.224487 
L 733.774462 569.148048 
L 738.754141 557.043196 
L 743.73382 546.437531 
L 753.693178 543.617263 
L 758.672858 551.684231 
L 763.652537 564.1013 
L 768.632216 583.342841 
L 773.611895 596.84918 
L 778.591574 595.078737 
L 783.571253 592.919009 
L 788.550932 586.480181 
L 793.530612 571.687048 
L 798.510291 557.337814 
L 803.48997 549.037518 
L 808.469649 546.681782 
L 813.449328 548.033812 
L 818.429007 554.688674 
L 823.408686 569.020612 
L 828.388366 590.498646 
L 833.368045 600.463189 
L 838.347724 601.459613 
L 848.307082 588.285517 
L 853.286761 571.350557 
L 858.266441 555.11892 
L 863.24612 547.610544 
L 868.225799 543.429144 
L 873.205478 545.776687 
L 878.185157 553.438593 
L 883.164836 565.698188 
L 888.144515 582.741467 
L 893.124195 594.353569 
L 898.103874 597.332828 
L 903.083553 590.339958 
L 908.063232 580.441257 
L 913.042911 571.591471 
L 918.02259 559.469931 
L 923.002269 550.643508 
L 927.981949 546.29007 
L 932.961628 548.762015 
L 937.941307 554.508444 
L 942.920986 569.846212 
L 947.900665 582.657724 
L 952.880344 598.310743 
L 957.860023 598.7064 
L 962.839703 593.882664 
L 967.819382 580.913375 
L 972.799061 567.060533 
L 977.77874 557.72983 
L 982.758419 550.029391 
L 987.738098 547.417874 
L 992.717777 546.487898 
L 997.697457 554.070308 
L 1002.677136 566.120545 
L 1007.656815 584.876618 
L 1012.636494 592.362238 
L 1017.616173 600.473202 
L 1022.595852 591.138251 
L 1027.575531 582.882253 
L 1032.555211 569.88687 
L 1037.53489 555.632 
L 1042.514569 550.174728 
L 1047.494248 545.122822 
L 1052.473927 544.407059 
L 1057.453606 550.236928 
L 1062.433285 562.132725 
L 1067.412965 581.928611 
L 1072.392644 598.232158 
L 1077.372323 598.852647 
L 1082.352002 591.276609 
L 1087.331681 577.270238 
L 1092.31136 570.323185 
L 1097.291039 555.541885 
L 1102.270719 546.56436 
L 1107.250398 544.454999 
L 1107.250398 544.454999 
" style="fill:none;stroke:#008000;stroke-linecap:square;stroke-width:1.5;"/>
   </g>
   <g id="line2d_39">
    <path clip-path="url(#p17e5f8508e)" d="M 91.395852 572.073298 
L 96.375531 569.809195 
L 101.355211 576.14122 
L 106.33489 590.290501 
L 111.314569 605.383715 
L 116.294248 619.497041 
L 121.273927 622.797043 
L 126.253606 618.598165 
L 131.233285 610.647103 
L 136.212965 590.705577 
L 141.192644 582.986932 
L 146.172323 577.455626 
L 151.152002 567.370323 
L 156.131681 569.905075 
L 161.11136 580.28257 
L 166.091039 591.66195 
L 171.070719 604.218591 
L 176.050398 615.059101 
L 181.030077 624.678202 
L 186.009756 618.846058 
L 190.989435 602.135931 
L 195.969114 592.378622 
L 200.948793 580.850568 
L 205.928473 576.023191 
L 210.908152 570.922435 
L 215.887831 567.501399 
L 220.86751 577.948377 
L 225.847189 590.766564 
L 230.826868 607.762814 
L 235.806547 610.063934 
L 240.786227 620.630124 
L 245.765906 615.366159 
L 250.745585 604.851823 
L 255.725264 595.083895 
L 260.704943 583.206607 
L 265.684622 575.598103 
L 270.664301 569.741229 
L 275.643981 571.083246 
L 280.62366 578.394401 
L 285.603339 588.246679 
L 290.583018 604.454043 
L 295.562697 613.371491 
L 300.542376 620.311353 
L 305.522055 613.106 
L 310.501735 607.02035 
L 315.481414 592.515464 
L 320.461093 579.840793 
L 325.440772 573.212936 
L 330.420451 571.123904 
L 335.40013 569.303094 
L 340.379809 575.861166 
L 350.339168 603.274658 
L 355.318847 612.650267 
L 360.298526 614.365488 
L 365.278205 615.700829 
L 370.257884 604.151839 
L 375.237564 593.756746 
L 380.217243 582.898334 
L 385.196922 576.609697 
L 390.176601 570.532543 
L 395.15628 571.849073 
L 400.135959 580.079886 
L 405.115638 589.805033 
L 410.095318 602.697557 
L 415.074997 619.472494 
L 420.054676 621.110495 
L 425.034355 611.899611 
L 430.014034 601.234173 
L 434.993713 590.195835 
L 439.973392 581.934983 
L 444.953072 572.116991 
L 449.932751 569.442363 
L 454.91243 567.88765 
L 459.892109 578.246029 
L 469.851467 604.644589 
L 474.831146 614.307838 
L 479.810826 618.467696 
L 484.790505 611.39078 
L 489.770184 605.704427 
L 494.749863 593.960643 
L 499.729542 578.952689 
L 504.709221 571.581762 
L 514.66858 566.677317 
L 519.648259 577.489002 
L 524.627938 587.626797 
L 529.607617 606.102511 
L 534.587296 620.308622 
L 539.566975 622.883577 
L 544.546654 612.004897 
L 549.526334 604.476496 
L 554.506013 591.972043 
L 559.485692 576.772026 
L 564.465371 572.42769 
L 569.44505 569.985177 
L 574.424729 569.603478 
L 579.404408 575.653628 
L 589.363767 605.355194 
L 594.343446 615.450206 
L 599.323125 622.573757 
L 604.302804 620.128483 
L 609.282483 602.46696 
L 614.262162 589.898485 
L 619.241842 581.214062 
L 624.221521 573.977548 
L 629.2012 568.780609 
L 634.180879 569.237556 
L 639.160558 572.9168 
L 644.140237 590.158211 
L 649.119916 602.471208 
L 654.099596 619.400766 
L 659.079275 622.491228 
L 664.058954 611.95635 
L 669.038633 605.17466 
L 674.018312 593.023992 
L 678.997991 579.500055 
L 683.97767 571.7805 
L 688.95735 568.032987 
L 693.937029 567.487139 
L 698.916708 576.78568 
L 703.896387 588.410525 
L 708.876066 602.628985 
L 713.855745 612.284649 
L 718.835424 615.549424 
L 723.815104 607.951843 
L 728.794783 600.83973 
L 733.774462 589.749204 
L 738.754141 579.179646 
L 743.73382 569.848032 
L 748.713499 565.582889 
L 753.693178 563.931993 
L 758.672858 573.094906 
L 763.652537 585.958909 
L 768.632216 604.020155 
L 773.611895 617.666673 
L 778.591574 616.922389 
L 783.571253 611.855009 
L 788.550932 606.97332 
L 793.530612 592.611951 
L 798.510291 579.676644 
L 803.48997 571.206737 
L 808.469649 568.074859 
L 813.449328 569.176569 
L 818.429007 576.628813 
L 823.408686 590.313561 
L 828.388366 609.985045 
L 833.368045 620.703248 
L 838.347724 622.136017 
L 843.327403 614.420406 
L 848.307082 608.813853 
L 853.286761 592.273943 
L 858.266441 579.270368 
L 863.24612 570.635705 
L 868.225799 566.206109 
L 873.205478 567.818168 
L 878.185157 576.682214 
L 883.164836 586.790274 
L 888.144515 601.503002 
L 893.124195 611.770355 
L 898.103874 615.945991 
L 903.083553 610.437441 
L 913.042911 592.435361 
L 918.02259 580.952819 
L 923.002269 573.661387 
L 927.981949 568.503588 
L 932.961628 571.122084 
L 937.941307 576.452224 
L 942.920986 592.680826 
L 947.900665 601.330964 
L 952.880344 616.848355 
L 957.860023 617.294986 
L 962.839703 614.556337 
L 967.819382 601.044841 
L 972.799061 588.779177 
L 977.77874 578.915976 
L 982.758419 572.489284 
L 987.738098 568.754818 
L 992.717777 567.547216 
L 997.697457 575.808978 
L 1002.677136 586.927722 
L 1007.656815 604.556901 
L 1012.636494 611.825274 
L 1017.616173 622.20914 
L 1022.595852 612.608699 
L 1027.575531 600.036887 
L 1032.555211 590.715286 
L 1037.53489 576.76353 
L 1042.514569 572.705621 
L 1047.494248 567.925274 
L 1052.473927 565.189963 
L 1057.453606 571.389698 
L 1062.433285 581.619125 
L 1067.412965 598.630545 
L 1072.392644 614.262022 
L 1077.372323 616.353177 
L 1082.352002 611.817689 
L 1087.331681 596.749355 
L 1092.31136 589.768319 
L 1097.291039 577.226849 
L 1102.270719 570.37871 
L 1107.250398 566.513775 
L 1107.250398 566.513775 
" style="fill:none;stroke:#0000ff;stroke-linecap:square;stroke-width:1.5;"/>
   </g>
   <g id="line2d_40">
    <defs>
     <path d="M 0 3 
C 0.795609 3 1.55874 2.683901 2.12132 2.12132 
C 2.683901 1.55874 3 0.795609 3 0 
C 3 -0.795609 2.683901 -1.55874 2.12132 -2.12132 
C 1.55874 -2.683901 0.795609 -3 0 -3 
C -0.795609 -3 -1.55874 -2.683901 -2.12132 -2.12132 
C -2.683901 -1.55874 -3 -0.795609 -3 0 
C -3 0.795609 -2.683901 1.55874 -2.12132 2.12132 
C -1.55874 2.683901 -0.795609 3 0 3 
z
" id="m1eadebf171" style="stroke:#ff0000;"/>
    </defs>
    <g clip-path="url(#p17e5f8508e)">
     <use style="fill:#ff0000;stroke:#ff0000;" x="255.725264" xlink:href="#m1eadebf171" y="639.849091"/>
     <use style="fill:#ff0000;stroke:#ff0000;" x="335.40013" xlink:href="#m1eadebf171" y="639.849091"/>
     <use style="fill:#ff0000;stroke:#ff0000;" x="350.339168" xlink:href="#m1eadebf171" y="639.849091"/>
     <use style="fill:#ff0000;stroke:#ff0000;" x="375.237564" xlink:href="#m1eadebf171" y="639.849091"/>
     <use style="fill:#ff0000;stroke:#ff0000;" x="420.054676" xlink:href="#m1eadebf171" y="639.849091"/>
     <use style="fill:#ff0000;stroke:#ff0000;" x="434.993713" xlink:href="#m1eadebf171" y="639.849091"/>
     <use style="fill:#ff0000;stroke:#ff0000;" x="708.876066" xlink:href="#m1eadebf171" y="639.849091"/>
     <use style="fill:#ff0000;stroke:#ff0000;" x="748.713499" xlink:href="#m1eadebf171" y="639.849091"/>
     <use style="fill:#ff0000;stroke:#ff0000;" x="778.591574" xlink:href="#m1eadebf171" y="639.849091"/>
     <use style="fill:#ff0000;stroke:#ff0000;" x="853.286761" xlink:href="#m1eadebf171" y="639.849091"/>
     <use style="fill:#ff0000;stroke:#ff0000;" x="918.02259" xlink:href="#m1eadebf171" y="639.849091"/>
     <use style="fill:#ff0000;stroke:#ff0000;" x="947.900665" xlink:href="#m1eadebf171" y="639.849091"/>
     <use style="fill:#ff0000;stroke:#ff0000;" x="1027.575531" xlink:href="#m1eadebf171" y="639.849091"/>
     <use style="fill:#ff0000;stroke:#ff0000;" x="1067.412965" xlink:href="#m1eadebf171" y="639.849091"/>
     <use style="fill:#ff0000;stroke:#ff0000;" x="1092.31136" xlink:href="#m1eadebf171" y="639.849091"/>
    </g>
   </g>
   <g id="patch_9">
    <path d="M 40.603125 645.74 
L 40.603125 516.14 
" style="fill:none;stroke:#000000;stroke-linecap:square;stroke-linejoin:miter;stroke-width:0.8;"/>
   </g>
   <g id="patch_10">
    <path d="M 1158.043125 645.74 
L 1158.043125 516.14 
" style="fill:none;stroke:#000000;stroke-linecap:square;stroke-linejoin:miter;stroke-width:0.8;"/>
   </g>
   <g id="patch_11">
    <path d="M 40.603125 645.74 
L 1158.043125 645.74 
" style="fill:none;stroke:#000000;stroke-linecap:square;stroke-linejoin:miter;stroke-width:0.8;"/>
   </g>
   <g id="patch_12">
    <path d="M 40.603125 516.14 
L 1158.043125 516.14 
" style="fill:none;stroke:#000000;stroke-linecap:square;stroke-linejoin:miter;stroke-width:0.8;"/>
   </g>
   <g id="legend_2">
    <g id="patch_13">
     <path d="M 47.603125 582.8525 
L 138.615625 582.8525 
Q 140.615625 582.8525 140.615625 580.8525 
L 140.615625 523.14 
Q 140.615625 521.14 138.615625 521.14 
L 47.603125 521.14 
Q 45.603125 521.14 45.603125 523.14 
L 45.603125 580.8525 
Q 45.603125 582.8525 47.603125 582.8525 
z
" style="fill:#ffffff;opacity:0.8;stroke:#cccccc;stroke-linejoin:miter;"/>
    </g>
    <g id="line2d_41">
     <path d="M 49.603125 529.238437 
L 69.603125 529.238437 
" style="fill:none;stroke:#ff0000;stroke-linecap:square;stroke-width:1.5;"/>
    </g>
    <g id="line2d_42"/>
    <g id="text_34">
     <!-- Maxmimum -->
     <defs>
      <path d="M 9.8125 72.90625 
L 24.515625 72.90625 
L 43.109375 23.296875 
L 61.8125 72.90625 
L 76.515625 72.90625 
L 76.515625 0 
L 66.890625 0 
L 66.890625 64.015625 
L 48.09375 14.015625 
L 38.1875 14.015625 
L 19.390625 64.015625 
L 19.390625 0 
L 9.8125 0 
z
" id="DejaVuSans-4d"/>
      <path d="M 54.890625 54.6875 
L 35.109375 28.078125 
L 55.90625 0 
L 45.3125 0 
L 29.390625 21.484375 
L 13.484375 0 
L 2.875 0 
L 24.125 28.609375 
L 4.6875 54.6875 
L 15.28125 54.6875 
L 29.78125 35.203125 
L 44.28125 54.6875 
z
" id="DejaVuSans-78"/>
     </defs>
     <g transform="translate(77.603125 532.738437)scale(0.1 -0.1)">
      <use xlink:href="#DejaVuSans-4d"/>
      <use x="86.279297" xlink:href="#DejaVuSans-61"/>
      <use x="147.558594" xlink:href="#DejaVuSans-78"/>
      <use x="206.738281" xlink:href="#DejaVuSans-6d"/>
      <use x="304.150391" xlink:href="#DejaVuSans-69"/>
      <use x="331.933594" xlink:href="#DejaVuSans-6d"/>
      <use x="429.345703" xlink:href="#DejaVuSans-75"/>
      <use x="492.724609" xlink:href="#DejaVuSans-6d"/>
     </g>
    </g>
    <g id="line2d_43">
     <path d="M 49.603125 543.916562 
L 69.603125 543.916562 
" style="fill:none;stroke:#008000;stroke-linecap:square;stroke-width:1.5;"/>
    </g>
    <g id="line2d_44"/>
    <g id="text_35">
     <!-- Average -->
     <defs>
      <path d="M 34.1875 63.1875 
L 20.796875 26.90625 
L 47.609375 26.90625 
z
M 28.609375 72.90625 
L 39.796875 72.90625 
L 67.578125 0 
L 57.328125 0 
L 50.6875 18.703125 
L 17.828125 18.703125 
L 11.1875 0 
L 0.78125 0 
z
" id="DejaVuSans-41"/>
      <path d="M 2.984375 54.6875 
L 12.5 54.6875 
L 29.59375 8.796875 
L 46.6875 54.6875 
L 56.203125 54.6875 
L 35.6875 0 
L 23.484375 0 
z
" id="DejaVuSans-76"/>
     </defs>
     <g transform="translate(77.603125 547.416562)scale(0.1 -0.1)">
      <use xlink:href="#DejaVuSans-41"/>
      <use x="68.330078" xlink:href="#DejaVuSans-76"/>
      <use x="127.509766" xlink:href="#DejaVuSans-65"/>
      <use x="189.033203" xlink:href="#DejaVuSans-72"/>
      <use x="230.146484" xlink:href="#DejaVuSans-61"/>
      <use x="291.425781" xlink:href="#DejaVuSans-67"/>
      <use x="354.902344" xlink:href="#DejaVuSans-65"/>
     </g>
    </g>
    <g id="line2d_45">
     <path d="M 49.603125 558.594687 
L 69.603125 558.594687 
" style="fill:none;stroke:#0000ff;stroke-linecap:square;stroke-width:1.5;"/>
    </g>
    <g id="line2d_46"/>
    <g id="text_36">
     <!-- Minimum -->
     <g transform="translate(77.603125 562.094687)scale(0.1 -0.1)">
      <use xlink:href="#DejaVuSans-4d"/>
      <use x="86.279297" xlink:href="#DejaVuSans-69"/>
      <use x="114.0625" xlink:href="#DejaVuSans-6e"/>
      <use x="177.441406" xlink:href="#DejaVuSans-69"/>
      <use x="205.224609" xlink:href="#DejaVuSans-6d"/>
      <use x="302.636719" xlink:href="#DejaVuSans-75"/>
      <use x="366.015625" xlink:href="#DejaVuSans-6d"/>
     </g>
    </g>
    <g id="line2d_47"/>
    <g id="line2d_48">
     <g>
      <use style="fill:#ff0000;stroke:#ff0000;" x="59.603125" xlink:href="#m1eadebf171" y="573.272812"/>
     </g>
    </g>
    <g id="text_37">
     <!-- Disasters -->
     <g transform="translate(77.603125 576.772812)scale(0.1 -0.1)">
      <use xlink:href="#DejaVuSans-44"/>
      <use x="77.001953" xlink:href="#DejaVuSans-69"/>
      <use x="104.785156" xlink:href="#DejaVuSans-73"/>
      <use x="156.884766" xlink:href="#DejaVuSans-61"/>
      <use x="218.164062" xlink:href="#DejaVuSans-73"/>
      <use x="270.263672" xlink:href="#DejaVuSans-74"/>
      <use x="309.472656" xlink:href="#DejaVuSans-65"/>
      <use x="370.996094" xlink:href="#DejaVuSans-72"/>
      <use x="412.109375" xlink:href="#DejaVuSans-73"/>
     </g>
    </g>
   </g>
  </g>
 </g>
 <defs>
  <clipPath id="p673a961cee">
   <rect height="498.96" width="1116" x="40.603125" y="10.7"/>
  </clipPath>
  <clipPath id="p17e5f8508e">
   <rect height="129.6" width="1117.44" x="40.603125" y="516.14"/>
  </clipPath>
 </defs>
</svg>
