<?xml version="1.0" encoding="utf-8" standalone="no"?>
<!DOCTYPE svg PUBLIC "-//W3C//DTD SVG 1.1//EN"
  "http://www.w3.org/Graphics/SVG/1.1/DTD/svg11.dtd">
<!-- Created with matplotlib (http://matplotlib.org/) -->
<svg height="669pt" version="1.1" viewBox="0 0 1181 669" width="1181pt" xmlns="http://www.w3.org/2000/svg" xmlns:xlink="http://www.w3.org/1999/xlink">
 <defs>
  <style type="text/css">
*{stroke-linecap:butt;stroke-linejoin:round;}
  </style>
 </defs>
 <g id="figure_1">
  <g id="patch_1">
   <path d="M 0 669.618125 
L 1181.468125 669.618125 
L 1181.468125 -0 
L 0 -0 
z
" style="fill:none;"/>
  </g>
  <g id="axes_1">
   <g id="patch_2">
    <path d="M 53.328125 509.66 
L 1169.328125 509.66 
L 1169.328125 10.7 
L 53.328125 10.7 
z
" style="fill:none;"/>
   </g>
   <g id="matplotlib.axis_1">
    <g id="xtick_1">
     <g id="line2d_1">
      <defs>
       <path d="M 0 0 
L 0 3.5 
" id="mef66dba087" style="stroke:#000000;stroke-width:0.8;"/>
      </defs>
      <g>
       <use style="stroke:#000000;stroke-width:0.8;" x="104.055398" xlink:href="#mef66dba087" y="509.66"/>
      </g>
     </g>
     <g id="text_1">
      <!-- 0 -->
      <defs>
       <path d="M 31.78125 66.40625 
Q 24.171875 66.40625 20.328125 58.90625 
Q 16.5 51.421875 16.5 36.375 
Q 16.5 21.390625 20.328125 13.890625 
Q 24.171875 6.390625 31.78125 6.390625 
Q 39.453125 6.390625 43.28125 13.890625 
Q 47.125 21.390625 47.125 36.375 
Q 47.125 51.421875 43.28125 58.90625 
Q 39.453125 66.40625 31.78125 66.40625 
z
M 31.78125 74.21875 
Q 44.046875 74.21875 50.515625 64.515625 
Q 56.984375 54.828125 56.984375 36.375 
Q 56.984375 17.96875 50.515625 8.265625 
Q 44.046875 -1.421875 31.78125 -1.421875 
Q 19.53125 -1.421875 13.0625 8.265625 
Q 6.59375 17.96875 6.59375 36.375 
Q 6.59375 54.828125 13.0625 64.515625 
Q 19.53125 74.21875 31.78125 74.21875 
z
" id="DejaVuSans-30"/>
      </defs>
      <g transform="translate(100.874148 524.258437)scale(0.1 -0.1)">
       <use xlink:href="#DejaVuSans-30"/>
      </g>
     </g>
    </g>
    <g id="xtick_2">
     <g id="line2d_2">
      <g>
       <use style="stroke:#000000;stroke-width:0.8;" x="346.769621" xlink:href="#mef66dba087" y="509.66"/>
      </g>
     </g>
     <g id="text_2">
      <!-- 50 -->
      <defs>
       <path d="M 10.796875 72.90625 
L 49.515625 72.90625 
L 49.515625 64.59375 
L 19.828125 64.59375 
L 19.828125 46.734375 
Q 21.96875 47.46875 24.109375 47.828125 
Q 26.265625 48.1875 28.421875 48.1875 
Q 40.625 48.1875 47.75 41.5 
Q 54.890625 34.8125 54.890625 23.390625 
Q 54.890625 11.625 47.5625 5.09375 
Q 40.234375 -1.421875 26.90625 -1.421875 
Q 22.3125 -1.421875 17.546875 -0.640625 
Q 12.796875 0.140625 7.71875 1.703125 
L 7.71875 11.625 
Q 12.109375 9.234375 16.796875 8.0625 
Q 21.484375 6.890625 26.703125 6.890625 
Q 35.15625 6.890625 40.078125 11.328125 
Q 45.015625 15.765625 45.015625 23.390625 
Q 45.015625 31 40.078125 35.4375 
Q 35.15625 39.890625 26.703125 39.890625 
Q 22.75 39.890625 18.8125 39.015625 
Q 14.890625 38.140625 10.796875 36.28125 
z
" id="DejaVuSans-35"/>
      </defs>
      <g transform="translate(340.407121 524.258437)scale(0.1 -0.1)">
       <use xlink:href="#DejaVuSans-35"/>
       <use x="63.623047" xlink:href="#DejaVuSans-30"/>
      </g>
     </g>
    </g>
    <g id="xtick_3">
     <g id="line2d_3">
      <g>
       <use style="stroke:#000000;stroke-width:0.8;" x="589.483845" xlink:href="#mef66dba087" y="509.66"/>
      </g>
     </g>
     <g id="text_3">
      <!-- 100 -->
      <defs>
       <path d="M 12.40625 8.296875 
L 28.515625 8.296875 
L 28.515625 63.921875 
L 10.984375 60.40625 
L 10.984375 69.390625 
L 28.421875 72.90625 
L 38.28125 72.90625 
L 38.28125 8.296875 
L 54.390625 8.296875 
L 54.390625 0 
L 12.40625 0 
z
" id="DejaVuSans-31"/>
      </defs>
      <g transform="translate(579.940095 524.258437)scale(0.1 -0.1)">
       <use xlink:href="#DejaVuSans-31"/>
       <use x="63.623047" xlink:href="#DejaVuSans-30"/>
       <use x="127.246094" xlink:href="#DejaVuSans-30"/>
      </g>
     </g>
    </g>
    <g id="xtick_4">
     <g id="line2d_4">
      <g>
       <use style="stroke:#000000;stroke-width:0.8;" x="832.198068" xlink:href="#mef66dba087" y="509.66"/>
      </g>
     </g>
     <g id="text_4">
      <!-- 150 -->
      <g transform="translate(822.654318 524.258437)scale(0.1 -0.1)">
       <use xlink:href="#DejaVuSans-31"/>
       <use x="63.623047" xlink:href="#DejaVuSans-35"/>
       <use x="127.246094" xlink:href="#DejaVuSans-30"/>
      </g>
     </g>
    </g>
    <g id="xtick_5">
     <g id="line2d_5">
      <g>
       <use style="stroke:#000000;stroke-width:0.8;" x="1074.912292" xlink:href="#mef66dba087" y="509.66"/>
      </g>
     </g>
     <g id="text_5">
      <!-- 200 -->
      <defs>
       <path d="M 19.1875 8.296875 
L 53.609375 8.296875 
L 53.609375 0 
L 7.328125 0 
L 7.328125 8.296875 
Q 12.9375 14.109375 22.625 23.890625 
Q 32.328125 33.6875 34.8125 36.53125 
Q 39.546875 41.84375 41.421875 45.53125 
Q 43.3125 49.21875 43.3125 52.78125 
Q 43.3125 58.59375 39.234375 62.25 
Q 35.15625 65.921875 28.609375 65.921875 
Q 23.96875 65.921875 18.8125 64.3125 
Q 13.671875 62.703125 7.8125 59.421875 
L 7.8125 69.390625 
Q 13.765625 71.78125 18.9375 73 
Q 24.125 74.21875 28.421875 74.21875 
Q 39.75 74.21875 46.484375 68.546875 
Q 53.21875 62.890625 53.21875 53.421875 
Q 53.21875 48.921875 51.53125 44.890625 
Q 49.859375 40.875 45.40625 35.40625 
Q 44.1875 33.984375 37.640625 27.21875 
Q 31.109375 20.453125 19.1875 8.296875 
z
" id="DejaVuSans-32"/>
      </defs>
      <g transform="translate(1065.368542 524.258437)scale(0.1 -0.1)">
       <use xlink:href="#DejaVuSans-32"/>
       <use x="63.623047" xlink:href="#DejaVuSans-30"/>
       <use x="127.246094" xlink:href="#DejaVuSans-30"/>
      </g>
     </g>
    </g>
    <g id="text_6">
     <!-- Time -->
     <defs>
      <path d="M -0.296875 72.90625 
L 61.375 72.90625 
L 61.375 64.59375 
L 35.5 64.59375 
L 35.5 0 
L 25.59375 0 
L 25.59375 64.59375 
L -0.296875 64.59375 
z
" id="DejaVuSans-54"/>
      <path d="M 9.421875 54.6875 
L 18.40625 54.6875 
L 18.40625 0 
L 9.421875 0 
z
M 9.421875 75.984375 
L 18.40625 75.984375 
L 18.40625 64.59375 
L 9.421875 64.59375 
z
" id="DejaVuSans-69"/>
      <path d="M 52 44.1875 
Q 55.375 50.25 60.0625 53.125 
Q 64.75 56 71.09375 56 
Q 79.640625 56 84.28125 50.015625 
Q 88.921875 44.046875 88.921875 33.015625 
L 88.921875 0 
L 79.890625 0 
L 79.890625 32.71875 
Q 79.890625 40.578125 77.09375 44.375 
Q 74.3125 48.1875 68.609375 48.1875 
Q 61.625 48.1875 57.5625 43.546875 
Q 53.515625 38.921875 53.515625 30.90625 
L 53.515625 0 
L 44.484375 0 
L 44.484375 32.71875 
Q 44.484375 40.625 41.703125 44.40625 
Q 38.921875 48.1875 33.109375 48.1875 
Q 26.21875 48.1875 22.15625 43.53125 
Q 18.109375 38.875 18.109375 30.90625 
L 18.109375 0 
L 9.078125 0 
L 9.078125 54.6875 
L 18.109375 54.6875 
L 18.109375 46.1875 
Q 21.1875 51.21875 25.484375 53.609375 
Q 29.78125 56 35.6875 56 
Q 41.65625 56 45.828125 52.96875 
Q 50 49.953125 52 44.1875 
z
" id="DejaVuSans-6d"/>
      <path d="M 56.203125 29.59375 
L 56.203125 25.203125 
L 14.890625 25.203125 
Q 15.484375 15.921875 20.484375 11.0625 
Q 25.484375 6.203125 34.421875 6.203125 
Q 39.59375 6.203125 44.453125 7.46875 
Q 49.3125 8.734375 54.109375 11.28125 
L 54.109375 2.78125 
Q 49.265625 0.734375 44.1875 -0.34375 
Q 39.109375 -1.421875 33.890625 -1.421875 
Q 20.796875 -1.421875 13.15625 6.1875 
Q 5.515625 13.8125 5.515625 26.8125 
Q 5.515625 40.234375 12.765625 48.109375 
Q 20.015625 56 32.328125 56 
Q 43.359375 56 49.78125 48.890625 
Q 56.203125 41.796875 56.203125 29.59375 
z
M 47.21875 32.234375 
Q 47.125 39.59375 43.09375 43.984375 
Q 39.0625 48.390625 32.421875 48.390625 
Q 24.90625 48.390625 20.390625 44.140625 
Q 15.875 39.890625 15.1875 32.171875 
z
" id="DejaVuSans-65"/>
     </defs>
     <g transform="translate(598.940625 537.936562)scale(0.1 -0.1)">
      <use xlink:href="#DejaVuSans-54"/>
      <use x="61.037109" xlink:href="#DejaVuSans-69"/>
      <use x="88.820312" xlink:href="#DejaVuSans-6d"/>
      <use x="186.232422" xlink:href="#DejaVuSans-65"/>
     </g>
    </g>
   </g>
   <g id="matplotlib.axis_2">
    <g id="ytick_1">
     <g id="line2d_6">
      <defs>
       <path d="M 0 0 
L -3.5 0 
" id="m97fd253f4b" style="stroke:#000000;stroke-width:0.8;"/>
      </defs>
      <g>
       <use style="stroke:#000000;stroke-width:0.8;" x="53.328125" xlink:href="#m97fd253f4b" y="487.820765"/>
      </g>
     </g>
     <g id="text_7">
      <!-- 0 -->
      <g transform="translate(39.965625 491.619984)scale(0.1 -0.1)">
       <use xlink:href="#DejaVuSans-30"/>
      </g>
     </g>
    </g>
    <g id="ytick_2">
     <g id="line2d_7">
      <g>
       <use style="stroke:#000000;stroke-width:0.8;" x="53.328125" xlink:href="#m97fd253f4b" y="398.451883"/>
      </g>
     </g>
     <g id="text_8">
      <!-- 200 -->
      <g transform="translate(27.240625 402.251102)scale(0.1 -0.1)">
       <use xlink:href="#DejaVuSans-32"/>
       <use x="63.623047" xlink:href="#DejaVuSans-30"/>
       <use x="127.246094" xlink:href="#DejaVuSans-30"/>
      </g>
     </g>
    </g>
    <g id="ytick_3">
     <g id="line2d_8">
      <g>
       <use style="stroke:#000000;stroke-width:0.8;" x="53.328125" xlink:href="#m97fd253f4b" y="309.083001"/>
      </g>
     </g>
     <g id="text_9">
      <!-- 400 -->
      <defs>
       <path d="M 37.796875 64.3125 
L 12.890625 25.390625 
L 37.796875 25.390625 
z
M 35.203125 72.90625 
L 47.609375 72.90625 
L 47.609375 25.390625 
L 58.015625 25.390625 
L 58.015625 17.1875 
L 47.609375 17.1875 
L 47.609375 0 
L 37.796875 0 
L 37.796875 17.1875 
L 4.890625 17.1875 
L 4.890625 26.703125 
z
" id="DejaVuSans-34"/>
      </defs>
      <g transform="translate(27.240625 312.88222)scale(0.1 -0.1)">
       <use xlink:href="#DejaVuSans-34"/>
       <use x="63.623047" xlink:href="#DejaVuSans-30"/>
       <use x="127.246094" xlink:href="#DejaVuSans-30"/>
      </g>
     </g>
    </g>
    <g id="ytick_4">
     <g id="line2d_9">
      <g>
       <use style="stroke:#000000;stroke-width:0.8;" x="53.328125" xlink:href="#m97fd253f4b" y="219.714119"/>
      </g>
     </g>
     <g id="text_10">
      <!-- 600 -->
      <defs>
       <path d="M 33.015625 40.375 
Q 26.375 40.375 22.484375 35.828125 
Q 18.609375 31.296875 18.609375 23.390625 
Q 18.609375 15.53125 22.484375 10.953125 
Q 26.375 6.390625 33.015625 6.390625 
Q 39.65625 6.390625 43.53125 10.953125 
Q 47.40625 15.53125 47.40625 23.390625 
Q 47.40625 31.296875 43.53125 35.828125 
Q 39.65625 40.375 33.015625 40.375 
z
M 52.59375 71.296875 
L 52.59375 62.3125 
Q 48.875 64.0625 45.09375 64.984375 
Q 41.3125 65.921875 37.59375 65.921875 
Q 27.828125 65.921875 22.671875 59.328125 
Q 17.53125 52.734375 16.796875 39.40625 
Q 19.671875 43.65625 24.015625 45.921875 
Q 28.375 48.1875 33.59375 48.1875 
Q 44.578125 48.1875 50.953125 41.515625 
Q 57.328125 34.859375 57.328125 23.390625 
Q 57.328125 12.15625 50.6875 5.359375 
Q 44.046875 -1.421875 33.015625 -1.421875 
Q 20.359375 -1.421875 13.671875 8.265625 
Q 6.984375 17.96875 6.984375 36.375 
Q 6.984375 53.65625 15.1875 63.9375 
Q 23.390625 74.21875 37.203125 74.21875 
Q 40.921875 74.21875 44.703125 73.484375 
Q 48.484375 72.75 52.59375 71.296875 
z
" id="DejaVuSans-36"/>
      </defs>
      <g transform="translate(27.240625 223.513338)scale(0.1 -0.1)">
       <use xlink:href="#DejaVuSans-36"/>
       <use x="63.623047" xlink:href="#DejaVuSans-30"/>
       <use x="127.246094" xlink:href="#DejaVuSans-30"/>
      </g>
     </g>
    </g>
    <g id="ytick_5">
     <g id="line2d_10">
      <g>
       <use style="stroke:#000000;stroke-width:0.8;" x="53.328125" xlink:href="#m97fd253f4b" y="130.345237"/>
      </g>
     </g>
     <g id="text_11">
      <!-- 800 -->
      <defs>
       <path d="M 31.78125 34.625 
Q 24.75 34.625 20.71875 30.859375 
Q 16.703125 27.09375 16.703125 20.515625 
Q 16.703125 13.921875 20.71875 10.15625 
Q 24.75 6.390625 31.78125 6.390625 
Q 38.8125 6.390625 42.859375 10.171875 
Q 46.921875 13.96875 46.921875 20.515625 
Q 46.921875 27.09375 42.890625 30.859375 
Q 38.875 34.625 31.78125 34.625 
z
M 21.921875 38.8125 
Q 15.578125 40.375 12.03125 44.71875 
Q 8.5 49.078125 8.5 55.328125 
Q 8.5 64.0625 14.71875 69.140625 
Q 20.953125 74.21875 31.78125 74.21875 
Q 42.671875 74.21875 48.875 69.140625 
Q 55.078125 64.0625 55.078125 55.328125 
Q 55.078125 49.078125 51.53125 44.71875 
Q 48 40.375 41.703125 38.8125 
Q 48.828125 37.15625 52.796875 32.3125 
Q 56.78125 27.484375 56.78125 20.515625 
Q 56.78125 9.90625 50.3125 4.234375 
Q 43.84375 -1.421875 31.78125 -1.421875 
Q 19.734375 -1.421875 13.25 4.234375 
Q 6.78125 9.90625 6.78125 20.515625 
Q 6.78125 27.484375 10.78125 32.3125 
Q 14.796875 37.15625 21.921875 38.8125 
z
M 18.3125 54.390625 
Q 18.3125 48.734375 21.84375 45.5625 
Q 25.390625 42.390625 31.78125 42.390625 
Q 38.140625 42.390625 41.71875 45.5625 
Q 45.3125 48.734375 45.3125 54.390625 
Q 45.3125 60.0625 41.71875 63.234375 
Q 38.140625 66.40625 31.78125 66.40625 
Q 25.390625 66.40625 21.84375 63.234375 
Q 18.3125 60.0625 18.3125 54.390625 
z
" id="DejaVuSans-38"/>
      </defs>
      <g transform="translate(27.240625 134.144456)scale(0.1 -0.1)">
       <use xlink:href="#DejaVuSans-38"/>
       <use x="63.623047" xlink:href="#DejaVuSans-30"/>
       <use x="127.246094" xlink:href="#DejaVuSans-30"/>
      </g>
     </g>
    </g>
    <g id="ytick_6">
     <g id="line2d_11">
      <g>
       <use style="stroke:#000000;stroke-width:0.8;" x="53.328125" xlink:href="#m97fd253f4b" y="40.976355"/>
      </g>
     </g>
     <g id="text_12">
      <!-- 1000 -->
      <g transform="translate(20.878125 44.775574)scale(0.1 -0.1)">
       <use xlink:href="#DejaVuSans-31"/>
       <use x="63.623047" xlink:href="#DejaVuSans-30"/>
       <use x="127.246094" xlink:href="#DejaVuSans-30"/>
       <use x="190.869141" xlink:href="#DejaVuSans-30"/>
      </g>
     </g>
    </g>
    <g id="text_13">
     <!-- Refugees -->
     <defs>
      <path d="M 44.390625 34.1875 
Q 47.5625 33.109375 50.5625 29.59375 
Q 53.5625 26.078125 56.59375 19.921875 
L 66.609375 0 
L 56 0 
L 46.6875 18.703125 
Q 43.0625 26.03125 39.671875 28.421875 
Q 36.28125 30.8125 30.421875 30.8125 
L 19.671875 30.8125 
L 19.671875 0 
L 9.8125 0 
L 9.8125 72.90625 
L 32.078125 72.90625 
Q 44.578125 72.90625 50.734375 67.671875 
Q 56.890625 62.453125 56.890625 51.90625 
Q 56.890625 45.015625 53.6875 40.46875 
Q 50.484375 35.9375 44.390625 34.1875 
z
M 19.671875 64.796875 
L 19.671875 38.921875 
L 32.078125 38.921875 
Q 39.203125 38.921875 42.84375 42.21875 
Q 46.484375 45.515625 46.484375 51.90625 
Q 46.484375 58.296875 42.84375 61.546875 
Q 39.203125 64.796875 32.078125 64.796875 
z
" id="DejaVuSans-52"/>
      <path d="M 37.109375 75.984375 
L 37.109375 68.5 
L 28.515625 68.5 
Q 23.6875 68.5 21.796875 66.546875 
Q 19.921875 64.59375 19.921875 59.515625 
L 19.921875 54.6875 
L 34.71875 54.6875 
L 34.71875 47.703125 
L 19.921875 47.703125 
L 19.921875 0 
L 10.890625 0 
L 10.890625 47.703125 
L 2.296875 47.703125 
L 2.296875 54.6875 
L 10.890625 54.6875 
L 10.890625 58.5 
Q 10.890625 67.625 15.140625 71.796875 
Q 19.390625 75.984375 28.609375 75.984375 
z
" id="DejaVuSans-66"/>
      <path d="M 8.5 21.578125 
L 8.5 54.6875 
L 17.484375 54.6875 
L 17.484375 21.921875 
Q 17.484375 14.15625 20.5 10.265625 
Q 23.53125 6.390625 29.59375 6.390625 
Q 36.859375 6.390625 41.078125 11.03125 
Q 45.3125 15.671875 45.3125 23.6875 
L 45.3125 54.6875 
L 54.296875 54.6875 
L 54.296875 0 
L 45.3125 0 
L 45.3125 8.40625 
Q 42.046875 3.421875 37.71875 1 
Q 33.40625 -1.421875 27.6875 -1.421875 
Q 18.265625 -1.421875 13.375 4.4375 
Q 8.5 10.296875 8.5 21.578125 
z
M 31.109375 56 
z
" id="DejaVuSans-75"/>
      <path d="M 45.40625 27.984375 
Q 45.40625 37.75 41.375 43.109375 
Q 37.359375 48.484375 30.078125 48.484375 
Q 22.859375 48.484375 18.828125 43.109375 
Q 14.796875 37.75 14.796875 27.984375 
Q 14.796875 18.265625 18.828125 12.890625 
Q 22.859375 7.515625 30.078125 7.515625 
Q 37.359375 7.515625 41.375 12.890625 
Q 45.40625 18.265625 45.40625 27.984375 
z
M 54.390625 6.78125 
Q 54.390625 -7.171875 48.1875 -13.984375 
Q 42 -20.796875 29.203125 -20.796875 
Q 24.46875 -20.796875 20.265625 -20.09375 
Q 16.0625 -19.390625 12.109375 -17.921875 
L 12.109375 -9.1875 
Q 16.0625 -11.328125 19.921875 -12.34375 
Q 23.78125 -13.375 27.78125 -13.375 
Q 36.625 -13.375 41.015625 -8.765625 
Q 45.40625 -4.15625 45.40625 5.171875 
L 45.40625 9.625 
Q 42.625 4.78125 38.28125 2.390625 
Q 33.9375 0 27.875 0 
Q 17.828125 0 11.671875 7.65625 
Q 5.515625 15.328125 5.515625 27.984375 
Q 5.515625 40.671875 11.671875 48.328125 
Q 17.828125 56 27.875 56 
Q 33.9375 56 38.28125 53.609375 
Q 42.625 51.21875 45.40625 46.390625 
L 45.40625 54.6875 
L 54.390625 54.6875 
z
" id="DejaVuSans-67"/>
      <path d="M 44.28125 53.078125 
L 44.28125 44.578125 
Q 40.484375 46.53125 36.375 47.5 
Q 32.28125 48.484375 27.875 48.484375 
Q 21.1875 48.484375 17.84375 46.4375 
Q 14.5 44.390625 14.5 40.28125 
Q 14.5 37.15625 16.890625 35.375 
Q 19.28125 33.59375 26.515625 31.984375 
L 29.59375 31.296875 
Q 39.15625 29.25 43.1875 25.515625 
Q 47.21875 21.78125 47.21875 15.09375 
Q 47.21875 7.46875 41.1875 3.015625 
Q 35.15625 -1.421875 24.609375 -1.421875 
Q 20.21875 -1.421875 15.453125 -0.5625 
Q 10.6875 0.296875 5.421875 2 
L 5.421875 11.28125 
Q 10.40625 8.6875 15.234375 7.390625 
Q 20.0625 6.109375 24.8125 6.109375 
Q 31.15625 6.109375 34.5625 8.28125 
Q 37.984375 10.453125 37.984375 14.40625 
Q 37.984375 18.0625 35.515625 20.015625 
Q 33.0625 21.96875 24.703125 23.78125 
L 21.578125 24.515625 
Q 13.234375 26.265625 9.515625 29.90625 
Q 5.8125 33.546875 5.8125 39.890625 
Q 5.8125 47.609375 11.28125 51.796875 
Q 16.75 56 26.8125 56 
Q 31.78125 56 36.171875 55.265625 
Q 40.578125 54.546875 44.28125 53.078125 
z
" id="DejaVuSans-73"/>
     </defs>
     <g style="fill:#ff7f0e;" transform="translate(14.798437 283.588594)rotate(-90)scale(0.1 -0.1)">
      <use xlink:href="#DejaVuSans-52"/>
      <use x="69.419922" xlink:href="#DejaVuSans-65"/>
      <use x="130.943359" xlink:href="#DejaVuSans-66"/>
      <use x="166.148438" xlink:href="#DejaVuSans-75"/>
      <use x="229.527344" xlink:href="#DejaVuSans-67"/>
      <use x="293.003906" xlink:href="#DejaVuSans-65"/>
      <use x="354.527344" xlink:href="#DejaVuSans-65"/>
      <use x="416.050781" xlink:href="#DejaVuSans-73"/>
     </g>
    </g>
   </g>
   <g id="line2d_12">
    <path clip-path="url(#p660c15d2dd)" d="M 104.055398 482.177532 
L 108.909682 480.986227 
L 113.763967 481.355666 
L 118.618251 483.465411 
L 123.472536 483.56257 
L 128.32682 479.477673 
L 133.181105 476.103672 
L 138.035389 474.885985 
L 142.889673 475.293686 
L 147.743958 477.366091 
L 152.598242 477.531149 
L 157.452527 473.336612 
L 162.306811 473.444496 
L 167.161096 472.215263 
L 172.01538 472.639718 
L 176.869665 474.695766 
L 181.723949 474.890556 
L 186.578234 470.648014 
L 191.432518 471.358488 
L 196.286803 470.120196 
L 201.141087 470.557784 
L 205.995372 472.601015 
L 210.849656 472.819124 
L 215.703941 468.538932 
L 220.558225 465.806128 
L 225.41251 464.543721 
L 230.266794 465.016289 
L 235.121078 467.025386 
L 239.975363 467.305564 
L 244.829647 462.925142 
L 249.683932 471.870097 
L 254.538216 470.634023 
L 259.392501 471.068397 
L 264.246785 473.114771 
L 269.10107 473.32716 
L 273.955354 469.056203 
L 278.809639 451.878764 
L 283.663923 450.55587 
L 288.518208 451.116168 
L 293.372492 453.039645 
L 298.226777 453.475519 
L 303.081061 448.843688 
L 307.935346 457.914972 
L 312.78963 456.618294 
L 317.643914 457.140566 
L 322.498199 459.101152 
L 327.352483 459.469545 
L 332.206768 454.946681 
L 337.061052 468.378248 
L 341.915337 467.127009 
L 346.769621 467.583381 
L 351.623906 469.608288 
L 356.47819 469.859711 
L 361.332475 465.525715 
L 366.186759 469.293548 
L 371.041044 468.046284 
L 375.895328 468.496887 
L 380.749613 470.527421 
L 385.603897 470.768613 
L 390.458182 466.451147 
L 395.312466 471.335536 
L 400.16675 470.097141 
L 405.021035 470.534885 
L 409.875319 472.577969 
L 414.729604 472.796331 
L 419.583888 468.515721 
L 424.438173 473.479467 
L 429.292457 472.250386 
L 434.146742 472.674617 
L 439.001026 474.730893 
L 443.855311 474.925282 
L 448.709595 470.683376 
L 453.56388 478.306429 
L 458.418164 477.098309 
L 463.272449 477.492135 
L 468.126733 479.578084 
L 472.981018 479.718514 
L 477.835302 475.563738 
L 482.689587 485.296823 
L 487.543871 484.38764 
L 492.398155 484.872664 
L 497.25244 486.98 
L 502.106724 486.899814 
L 506.961009 482.763924 
L 511.815293 481.233307 
L 516.669578 480.0379 
L 521.523862 480.413286 
L 526.378147 482.517227 
L 531.232431 482.624942 
L 540.941 474.288157 
L 545.795285 473.062582 
L 550.649569 473.481726 
L 555.503854 475.542965 
L 560.358138 475.728319 
L 565.212423 471.50101 
L 570.066707 474.060739 
L 574.920991 472.834183 
L 579.775276 473.254749 
L 584.62956 475.3146 
L 589.483845 475.502496 
L 594.338129 471.271076 
L 599.192414 465.341162 
L 604.046698 464.076737 
L 608.900983 464.552235 
L 613.755267 466.558472 
L 618.609552 466.843847 
L 623.463836 462.455032 
L 628.318121 428.126413 
L 633.172405 426.700358 
L 638.02669 427.410279 
L 642.880974 429.187723 
L 647.735259 429.889129 
L 652.589543 424.828542 
L 657.443827 437.445665 
L 662.298112 436.060093 
L 667.152396 436.711309 
L 672.006681 438.54605 
L 676.860965 439.143273 
L 681.71525 434.250917 
L 686.569534 440.908804 
L 691.423819 439.53826 
L 696.278103 440.167672 
L 701.132388 442.023699 
L 705.986672 442.582204 
L 710.840957 437.752355 
L 715.695241 449.000219 
L 720.549526 447.66482 
L 725.40381 448.243258 
L 730.258095 450.149035 
L 735.112379 450.617085 
L 739.966663 445.933298 
L 744.820948 428.126413 
L 749.675232 426.700358 
L 754.529517 427.410279 
L 759.383801 429.187723 
L 764.238086 429.889129 
L 769.09237 424.828542 
L 773.946655 421.937976 
L 778.800939 417.810011 
L 783.655224 416.394286 
L 788.509508 417.174777 
L 793.363793 418.200298 
L 798.218077 413.154773 
L 803.072362 417.626081 
L 807.926646 418.066257 
L 817.635215 421.763121 
L 822.4895 421.800928 
L 827.343784 415.975689 
L 832.198068 371.744816 
L 837.052353 376.48439 
L 841.906637 378.953496 
L 846.760922 375.689334 
L 851.615206 364.573664 
L 856.469491 352.804506 
L 861.323775 382.653769 
L 866.17806 381.988698 
L 871.032344 385.655534 
L 875.886629 389.522399 
L 880.740913 389.112333 
L 885.595198 383.399119 
L 890.449482 366.646197 
L 895.303767 358.778132 
L 900.158051 366.15247 
L 905.012336 378.918218 
L 909.86662 386.606204 
L 914.720904 388.397706 
L 919.575189 374.477524 
L 924.429473 372.46176 
L 929.283758 376.236701 
L 934.138042 380.932781 
L 938.992327 380.749791 
L 943.846611 375.493772 
L 948.700896 289.364014 
L 953.55518 274.11043 
L 958.409465 261.402174 
L 963.263749 246.51472 
L 968.118034 240.696797 
L 972.972318 237.754453 
L 977.826603 247.9371 
L 982.680887 250.532283 
L 987.535172 234.467921 
L 997.24374 163.107054 
L 1002.098025 134.852409 
L 1006.952309 161.585754 
L 1011.806594 142.949964 
L 1016.660878 145.196977 
L 1021.515163 146.160622 
L 1026.369447 155.546427 
L 1031.223732 161.219829 
L 1036.078016 60.6392 
L 1040.932301 57.673592 
L 1045.786585 96.197804 
L 1050.64087 138.092276 
L 1055.495154 181.14567 
L 1060.349439 205.024518 
L 1065.203723 246.799152 
L 1070.058008 244.4176 
L 1074.912292 260.353792 
L 1079.766577 277.733105 
L 1084.620861 287.879956 
L 1089.475145 291.734943 
L 1094.32943 102.261513 
L 1099.183714 85.075731 
L 1104.037999 101.547527 
L 1108.892283 123.840056 
L 1113.746568 153.693403 
L 1118.600852 168.054061 
L 1118.600852 168.054061 
" style="fill:none;stroke:#008000;stroke-dasharray:5.55,2.4;stroke-dashoffset:0;stroke-width:1.5;"/>
   </g>
   <g id="line2d_13">
    <path clip-path="url(#p660c15d2dd)" d="M 104.055398 473.521744 
L 108.909682 473.968588 
L 113.763967 475.309121 
L 118.618251 475.309121 
L 123.472536 467.265922 
L 128.32682 469.500144 
L 133.181105 469.946989 
L 138.035389 461.456945 
L 147.743958 471.287522 
L 152.598242 471.287522 
L 157.452527 472.628055 
L 162.306811 472.181211 
L 167.161096 473.521744 
L 172.01538 471.734366 
L 176.869665 468.606455 
L 181.723949 469.0533 
L 186.578234 467.265922 
L 191.432518 469.500144 
L 196.286803 464.138011 
L 201.141087 459.222723 
L 205.995372 469.500144 
L 210.849656 464.584856 
L 215.703941 467.712767 
L 220.558225 461.0101 
L 225.41251 466.819078 
L 235.121078 462.350634 
L 239.975363 462.350634 
L 244.829647 458.775878 
L 249.683932 457.88219 
L 254.538216 455.647967 
L 259.392501 460.563256 
L 264.246785 457.435345 
L 269.10107 456.541656 
L 273.955354 448.498457 
L 278.809639 453.86059 
L 283.663923 463.244322 
L 288.518208 459.669567 
L 293.372492 456.988501 
L 298.226777 464.584856 
L 303.081061 456.541656 
L 307.935346 461.0101 
L 312.78963 460.116412 
L 317.643914 469.500144 
L 322.498199 462.797478 
L 327.352483 470.393833 
L 332.206768 467.712767 
L 337.061052 467.265922 
L 341.915337 464.584856 
L 346.769621 457.435345 
L 351.623906 461.456945 
L 356.47819 464.584856 
L 361.332475 469.946989 
L 366.186759 473.968588 
L 371.041044 464.138011 
L 375.895328 474.862277 
L 380.749613 468.159611 
L 385.603897 468.159611 
L 390.458182 472.628055 
L 395.312466 467.712767 
L 400.16675 478.883877 
L 405.021035 472.628055 
L 409.875319 472.628055 
L 414.729604 471.734366 
L 419.583888 465.925389 
L 424.438173 469.0533 
L 429.292457 475.755966 
L 434.146742 468.606455 
L 439.001026 474.415433 
L 443.855311 475.755966 
L 448.709595 472.628055 
L 453.56388 477.096499 
L 458.418164 478.437032 
L 463.272449 477.543344 
L 468.126733 479.330721 
L 472.981018 476.649655 
L 477.835302 478.883877 
L 482.689587 477.543344 
L 487.543871 477.543344 
L 492.398155 478.437032 
L 497.25244 481.118099 
L 502.106724 477.543344 
L 506.961009 477.543344 
L 511.815293 472.181211 
L 516.669578 476.649655 
L 521.523862 474.862277 
L 526.378147 464.584856 
L 531.232431 465.0317 
L 536.086716 472.181211 
L 540.941 460.563256 
L 545.795285 471.287522 
L 550.649569 464.138011 
L 555.503854 461.903789 
L 560.358138 473.074899 
L 565.212423 473.968588 
L 570.066707 460.563256 
L 574.920991 465.0317 
L 579.775276 465.925389 
L 584.62956 467.712767 
L 589.483845 447.157924 
L 594.338129 469.946989 
L 599.192414 449.392146 
L 604.046698 441.795791 
L 608.900983 456.988501 
L 613.755267 448.051612 
L 618.609552 441.348946 
L 623.463836 438.221035 
L 628.318121 437.327347 
L 633.172405 443.136324 
L 638.02669 444.030013 
L 642.880974 445.81739 
L 647.735259 433.752591 
L 652.589543 440.902102 
L 657.443827 437.327347 
L 662.298112 436.433658 
L 667.152396 433.305747 
L 672.006681 433.305747 
L 676.860965 437.327347 
L 681.71525 442.242635 
L 686.569534 439.114724 
L 691.423819 462.350634 
L 696.278103 448.051612 
L 701.132388 454.307434 
L 705.986672 440.455258 
L 710.840957 453.413745 
L 715.695241 447.157924 
L 720.549526 448.498457 
L 725.40381 419.900415 
L 730.258095 432.858903 
L 735.112379 425.262548 
L 739.966663 435.986813 
L 744.820948 410.069838 
L 749.675232 439.114724 
L 754.529517 439.561569 
L 759.383801 422.134637 
L 764.238086 424.368859 
L 769.09237 440.455258 
L 773.946655 433.305747 
L 778.800939 414.985126 
L 783.655224 390.408684 
L 788.509508 440.902102 
L 793.363793 346.617931 
L 798.218077 404.707705 
L 803.072362 377.450196 
L 807.926646 410.069838 
L 812.780931 395.323972 
L 817.635215 389.514995 
L 822.4895 381.024951 
L 827.343784 410.069838 
L 832.198068 398.005039 
L 837.052353 375.662818 
L 841.906637 325.1694 
L 846.760922 364.938552 
L 851.615206 336.34051 
L 856.469491 387.727617 
L 861.323775 398.451883 
L 866.17806 429.284147 
L 871.032344 406.941927 
L 875.886629 383.706017 
L 880.740913 389.961839 
L 885.595198 385.493395 
L 890.449482 385.046551 
L 895.303767 398.898727 
L 900.158051 397.11135 
L 905.012336 394.877128 
L 909.86662 403.367171 
L 914.720904 380.578107 
L 919.575189 334.106288 
L 924.429473 377.89704 
L 929.283758 343.936865 
L 934.138042 283.61287 
L 938.992327 275.122826 
L 943.846611 376.109662 
L 948.700896 307.295623 
L 953.55518 270.207537 
L 958.409465 246.524784 
L 963.263749 270.207537 
L 968.118034 231.332074 
L 972.972318 255.908516 
L 977.826603 238.03474 
L 982.680887 262.164338 
L 987.535172 244.737406 
L 992.389456 140.175814 
L 997.24374 150.90008 
L 1002.098025 195.137676 
L 1006.952309 164.305412 
L 1011.806594 109.34355 
L 1016.660878 102.640884 
L 1021.515163 175.029678 
L 1026.369447 172.795456 
L 1031.223732 162.518034 
L 1036.078016 66.893331 
L 1040.932301 46.785332 
L 1045.786585 51.253776 
L 1050.64087 110.237239 
L 1055.495154 200.052965 
L 1060.349439 266.185938 
L 1065.203723 244.737406 
L 1070.058008 202.287187 
L 1074.912292 146.431636 
L 1079.766577 145.537947 
L 1084.620861 133.026303 
L 1089.475145 126.323637 
L 1094.32943 126.770482 
L 1099.183714 60.637509 
L 1104.037999 72.255464 
L 1108.892283 59.74382 
L 1113.746568 33.38 
L 1118.600852 101.30035 
L 1118.600852 101.30035 
" style="fill:none;stroke:#ff7f0e;stroke-linecap:square;stroke-width:1.5;"/>
   </g>
   <g id="line2d_14">
    <defs>
     <path d="M 0 3 
C 0.795609 3 1.55874 2.683901 2.12132 2.12132 
C 2.683901 1.55874 3 0.795609 3 0 
C 3 -0.795609 2.683901 -1.55874 2.12132 -2.12132 
C 1.55874 -2.683901 0.795609 -3 0 -3 
C -0.795609 -3 -1.55874 -2.683901 -2.12132 -2.12132 
C -2.683901 -1.55874 -3 -0.795609 -3 0 
C -3 0.795609 -2.683901 1.55874 -2.12132 2.12132 
C -1.55874 2.683901 -0.795609 3 0 3 
z
" id="mfff296ccf8" style="stroke:#008000;"/>
    </defs>
    <g clip-path="url(#p660c15d2dd)">
     <use style="fill:#008000;stroke:#008000;" x="104.055398" xlink:href="#mfff296ccf8" y="482.177532"/>
     <use style="fill:#008000;stroke:#008000;" x="133.181105" xlink:href="#mfff296ccf8" y="476.103672"/>
     <use style="fill:#008000;stroke:#008000;" x="162.306811" xlink:href="#mfff296ccf8" y="473.444496"/>
     <use style="fill:#008000;stroke:#008000;" x="191.432518" xlink:href="#mfff296ccf8" y="471.358488"/>
     <use style="fill:#008000;stroke:#008000;" x="220.558225" xlink:href="#mfff296ccf8" y="465.806128"/>
     <use style="fill:#008000;stroke:#008000;" x="249.683932" xlink:href="#mfff296ccf8" y="471.870097"/>
     <use style="fill:#008000;stroke:#008000;" x="278.809639" xlink:href="#mfff296ccf8" y="451.878764"/>
     <use style="fill:#008000;stroke:#008000;" x="307.935346" xlink:href="#mfff296ccf8" y="457.914972"/>
     <use style="fill:#008000;stroke:#008000;" x="337.061052" xlink:href="#mfff296ccf8" y="468.378248"/>
     <use style="fill:#008000;stroke:#008000;" x="366.186759" xlink:href="#mfff296ccf8" y="469.293548"/>
     <use style="fill:#008000;stroke:#008000;" x="395.312466" xlink:href="#mfff296ccf8" y="471.335536"/>
     <use style="fill:#008000;stroke:#008000;" x="424.438173" xlink:href="#mfff296ccf8" y="473.479467"/>
     <use style="fill:#008000;stroke:#008000;" x="453.56388" xlink:href="#mfff296ccf8" y="478.306429"/>
     <use style="fill:#008000;stroke:#008000;" x="482.689587" xlink:href="#mfff296ccf8" y="485.296823"/>
     <use style="fill:#008000;stroke:#008000;" x="511.815293" xlink:href="#mfff296ccf8" y="481.233307"/>
     <use style="fill:#008000;stroke:#008000;" x="540.941" xlink:href="#mfff296ccf8" y="474.288157"/>
     <use style="fill:#008000;stroke:#008000;" x="570.066707" xlink:href="#mfff296ccf8" y="474.060739"/>
     <use style="fill:#008000;stroke:#008000;" x="599.192414" xlink:href="#mfff296ccf8" y="465.341162"/>
     <use style="fill:#008000;stroke:#008000;" x="628.318121" xlink:href="#mfff296ccf8" y="428.126413"/>
     <use style="fill:#008000;stroke:#008000;" x="657.443827" xlink:href="#mfff296ccf8" y="437.445665"/>
     <use style="fill:#008000;stroke:#008000;" x="686.569534" xlink:href="#mfff296ccf8" y="440.908804"/>
     <use style="fill:#008000;stroke:#008000;" x="715.695241" xlink:href="#mfff296ccf8" y="449.000219"/>
     <use style="fill:#008000;stroke:#008000;" x="744.820948" xlink:href="#mfff296ccf8" y="428.126413"/>
     <use style="fill:#008000;stroke:#008000;" x="773.946655" xlink:href="#mfff296ccf8" y="421.937976"/>
     <use style="fill:#008000;stroke:#008000;" x="803.072362" xlink:href="#mfff296ccf8" y="417.626081"/>
     <use style="fill:#008000;stroke:#008000;" x="832.198068" xlink:href="#mfff296ccf8" y="371.744816"/>
     <use style="fill:#008000;stroke:#008000;" x="861.323775" xlink:href="#mfff296ccf8" y="382.653769"/>
     <use style="fill:#008000;stroke:#008000;" x="890.449482" xlink:href="#mfff296ccf8" y="366.646197"/>
     <use style="fill:#008000;stroke:#008000;" x="919.575189" xlink:href="#mfff296ccf8" y="374.477524"/>
     <use style="fill:#008000;stroke:#008000;" x="948.700896" xlink:href="#mfff296ccf8" y="289.364014"/>
     <use style="fill:#008000;stroke:#008000;" x="977.826603" xlink:href="#mfff296ccf8" y="247.9371"/>
     <use style="fill:#008000;stroke:#008000;" x="1006.952309" xlink:href="#mfff296ccf8" y="161.585754"/>
     <use style="fill:#008000;stroke:#008000;" x="1036.078016" xlink:href="#mfff296ccf8" y="60.6392"/>
     <use style="fill:#008000;stroke:#008000;" x="1065.203723" xlink:href="#mfff296ccf8" y="246.799152"/>
     <use style="fill:#008000;stroke:#008000;" x="1094.32943" xlink:href="#mfff296ccf8" y="102.261513"/>
    </g>
   </g>
   <g id="patch_3">
    <path d="M 53.328125 509.66 
L 53.328125 10.7 
" style="fill:none;stroke:#000000;stroke-linecap:square;stroke-linejoin:miter;stroke-width:0.8;"/>
   </g>
   <g id="patch_4">
    <path d="M 1169.328125 509.66 
L 1169.328125 10.7 
" style="fill:none;stroke:#000000;stroke-linecap:square;stroke-linejoin:miter;stroke-width:0.8;"/>
   </g>
   <g id="patch_5">
    <path d="M 53.328125 509.66 
L 1169.328125 509.66 
" style="fill:none;stroke:#000000;stroke-linecap:square;stroke-linejoin:miter;stroke-width:0.8;"/>
   </g>
   <g id="patch_6">
    <path d="M 53.328125 10.7 
L 1169.328125 10.7 
" style="fill:none;stroke:#000000;stroke-linecap:square;stroke-linejoin:miter;stroke-width:0.8;"/>
   </g>
   <g id="legend_1">
    <g id="patch_7">
     <path d="M 60.328125 62.734375 
L 208.103125 62.734375 
Q 210.103125 62.734375 210.103125 60.734375 
L 210.103125 17.7 
Q 210.103125 15.7 208.103125 15.7 
L 60.328125 15.7 
Q 58.328125 15.7 58.328125 17.7 
L 58.328125 60.734375 
Q 58.328125 62.734375 60.328125 62.734375 
z
" style="fill:#ffffff;opacity:0.8;stroke:#cccccc;stroke-linejoin:miter;"/>
    </g>
    <g id="line2d_15">
     <path d="M 62.328125 23.798437 
L 82.328125 23.798437 
" style="fill:none;stroke:#008000;stroke-dasharray:5.55,2.4;stroke-dashoffset:0;stroke-width:1.5;"/>
    </g>
    <g id="line2d_16"/>
    <g id="text_14">
     <!-- Predicated -->
     <defs>
      <path d="M 19.671875 64.796875 
L 19.671875 37.40625 
L 32.078125 37.40625 
Q 38.96875 37.40625 42.71875 40.96875 
Q 46.484375 44.53125 46.484375 51.125 
Q 46.484375 57.671875 42.71875 61.234375 
Q 38.96875 64.796875 32.078125 64.796875 
z
M 9.8125 72.90625 
L 32.078125 72.90625 
Q 44.34375 72.90625 50.609375 67.359375 
Q 56.890625 61.8125 56.890625 51.125 
Q 56.890625 40.328125 50.609375 34.8125 
Q 44.34375 29.296875 32.078125 29.296875 
L 19.671875 29.296875 
L 19.671875 0 
L 9.8125 0 
z
" id="DejaVuSans-50"/>
      <path d="M 41.109375 46.296875 
Q 39.59375 47.171875 37.8125 47.578125 
Q 36.03125 48 33.890625 48 
Q 26.265625 48 22.1875 43.046875 
Q 18.109375 38.09375 18.109375 28.8125 
L 18.109375 0 
L 9.078125 0 
L 9.078125 54.6875 
L 18.109375 54.6875 
L 18.109375 46.1875 
Q 20.953125 51.171875 25.484375 53.578125 
Q 30.03125 56 36.53125 56 
Q 37.453125 56 38.578125 55.875 
Q 39.703125 55.765625 41.0625 55.515625 
z
" id="DejaVuSans-72"/>
      <path d="M 45.40625 46.390625 
L 45.40625 75.984375 
L 54.390625 75.984375 
L 54.390625 0 
L 45.40625 0 
L 45.40625 8.203125 
Q 42.578125 3.328125 38.25 0.953125 
Q 33.9375 -1.421875 27.875 -1.421875 
Q 17.96875 -1.421875 11.734375 6.484375 
Q 5.515625 14.40625 5.515625 27.296875 
Q 5.515625 40.1875 11.734375 48.09375 
Q 17.96875 56 27.875 56 
Q 33.9375 56 38.25 53.625 
Q 42.578125 51.265625 45.40625 46.390625 
z
M 14.796875 27.296875 
Q 14.796875 17.390625 18.875 11.75 
Q 22.953125 6.109375 30.078125 6.109375 
Q 37.203125 6.109375 41.296875 11.75 
Q 45.40625 17.390625 45.40625 27.296875 
Q 45.40625 37.203125 41.296875 42.84375 
Q 37.203125 48.484375 30.078125 48.484375 
Q 22.953125 48.484375 18.875 42.84375 
Q 14.796875 37.203125 14.796875 27.296875 
z
" id="DejaVuSans-64"/>
      <path d="M 48.78125 52.59375 
L 48.78125 44.1875 
Q 44.96875 46.296875 41.140625 47.34375 
Q 37.3125 48.390625 33.40625 48.390625 
Q 24.65625 48.390625 19.8125 42.84375 
Q 14.984375 37.3125 14.984375 27.296875 
Q 14.984375 17.28125 19.8125 11.734375 
Q 24.65625 6.203125 33.40625 6.203125 
Q 37.3125 6.203125 41.140625 7.25 
Q 44.96875 8.296875 48.78125 10.40625 
L 48.78125 2.09375 
Q 45.015625 0.34375 40.984375 -0.53125 
Q 36.96875 -1.421875 32.421875 -1.421875 
Q 20.0625 -1.421875 12.78125 6.34375 
Q 5.515625 14.109375 5.515625 27.296875 
Q 5.515625 40.671875 12.859375 48.328125 
Q 20.21875 56 33.015625 56 
Q 37.15625 56 41.109375 55.140625 
Q 45.0625 54.296875 48.78125 52.59375 
z
" id="DejaVuSans-63"/>
      <path d="M 34.28125 27.484375 
Q 23.390625 27.484375 19.1875 25 
Q 14.984375 22.515625 14.984375 16.5 
Q 14.984375 11.71875 18.140625 8.90625 
Q 21.296875 6.109375 26.703125 6.109375 
Q 34.1875 6.109375 38.703125 11.40625 
Q 43.21875 16.703125 43.21875 25.484375 
L 43.21875 27.484375 
z
M 52.203125 31.203125 
L 52.203125 0 
L 43.21875 0 
L 43.21875 8.296875 
Q 40.140625 3.328125 35.546875 0.953125 
Q 30.953125 -1.421875 24.3125 -1.421875 
Q 15.921875 -1.421875 10.953125 3.296875 
Q 6 8.015625 6 15.921875 
Q 6 25.140625 12.171875 29.828125 
Q 18.359375 34.515625 30.609375 34.515625 
L 43.21875 34.515625 
L 43.21875 35.40625 
Q 43.21875 41.609375 39.140625 45 
Q 35.0625 48.390625 27.6875 48.390625 
Q 23 48.390625 18.546875 47.265625 
Q 14.109375 46.140625 10.015625 43.890625 
L 10.015625 52.203125 
Q 14.9375 54.109375 19.578125 55.046875 
Q 24.21875 56 28.609375 56 
Q 40.484375 56 46.34375 49.84375 
Q 52.203125 43.703125 52.203125 31.203125 
z
" id="DejaVuSans-61"/>
      <path d="M 18.3125 70.21875 
L 18.3125 54.6875 
L 36.8125 54.6875 
L 36.8125 47.703125 
L 18.3125 47.703125 
L 18.3125 18.015625 
Q 18.3125 11.328125 20.140625 9.421875 
Q 21.96875 7.515625 27.59375 7.515625 
L 36.8125 7.515625 
L 36.8125 0 
L 27.59375 0 
Q 17.1875 0 13.234375 3.875 
Q 9.28125 7.765625 9.28125 18.015625 
L 9.28125 47.703125 
L 2.6875 47.703125 
L 2.6875 54.6875 
L 9.28125 54.6875 
L 9.28125 70.21875 
z
" id="DejaVuSans-74"/>
     </defs>
     <g transform="translate(90.328125 27.298437)scale(0.1 -0.1)">
      <use xlink:href="#DejaVuSans-50"/>
      <use x="60.287109" xlink:href="#DejaVuSans-72"/>
      <use x="101.369141" xlink:href="#DejaVuSans-65"/>
      <use x="162.892578" xlink:href="#DejaVuSans-64"/>
      <use x="226.369141" xlink:href="#DejaVuSans-69"/>
      <use x="254.152344" xlink:href="#DejaVuSans-63"/>
      <use x="309.132812" xlink:href="#DejaVuSans-61"/>
      <use x="370.412109" xlink:href="#DejaVuSans-74"/>
      <use x="409.621094" xlink:href="#DejaVuSans-65"/>
      <use x="471.144531" xlink:href="#DejaVuSans-64"/>
     </g>
    </g>
    <g id="line2d_17">
     <path d="M 62.328125 38.476562 
L 82.328125 38.476562 
" style="fill:none;stroke:#ff7f0e;stroke-linecap:square;stroke-width:1.5;"/>
    </g>
    <g id="line2d_18"/>
    <g id="text_15">
     <!-- Real Data -->
     <defs>
      <path d="M 9.421875 75.984375 
L 18.40625 75.984375 
L 18.40625 0 
L 9.421875 0 
z
" id="DejaVuSans-6c"/>
      <path id="DejaVuSans-20"/>
      <path d="M 19.671875 64.796875 
L 19.671875 8.109375 
L 31.59375 8.109375 
Q 46.6875 8.109375 53.6875 14.9375 
Q 60.6875 21.78125 60.6875 36.53125 
Q 60.6875 51.171875 53.6875 57.984375 
Q 46.6875 64.796875 31.59375 64.796875 
z
M 9.8125 72.90625 
L 30.078125 72.90625 
Q 51.265625 72.90625 61.171875 64.09375 
Q 71.09375 55.28125 71.09375 36.53125 
Q 71.09375 17.671875 61.125 8.828125 
Q 51.171875 0 30.078125 0 
L 9.8125 0 
z
" id="DejaVuSans-44"/>
     </defs>
     <g transform="translate(90.328125 41.976562)scale(0.1 -0.1)">
      <use xlink:href="#DejaVuSans-52"/>
      <use x="69.419922" xlink:href="#DejaVuSans-65"/>
      <use x="130.943359" xlink:href="#DejaVuSans-61"/>
      <use x="192.222656" xlink:href="#DejaVuSans-6c"/>
      <use x="220.005859" xlink:href="#DejaVuSans-20"/>
      <use x="251.792969" xlink:href="#DejaVuSans-44"/>
      <use x="328.794922" xlink:href="#DejaVuSans-61"/>
      <use x="390.074219" xlink:href="#DejaVuSans-74"/>
      <use x="429.283203" xlink:href="#DejaVuSans-61"/>
     </g>
    </g>
    <g id="line2d_19"/>
    <g id="line2d_20">
     <g>
      <use style="fill:#008000;stroke:#008000;" x="72.328125" xlink:href="#mfff296ccf8" y="53.154688"/>
     </g>
    </g>
    <g id="text_16">
     <!-- Start Point for Forecast -->
     <defs>
      <path d="M 53.515625 70.515625 
L 53.515625 60.890625 
Q 47.90625 63.578125 42.921875 64.890625 
Q 37.9375 66.21875 33.296875 66.21875 
Q 25.25 66.21875 20.875 63.09375 
Q 16.5 59.96875 16.5 54.203125 
Q 16.5 49.359375 19.40625 46.890625 
Q 22.3125 44.4375 30.421875 42.921875 
L 36.375 41.703125 
Q 47.40625 39.59375 52.65625 34.296875 
Q 57.90625 29 57.90625 20.125 
Q 57.90625 9.515625 50.796875 4.046875 
Q 43.703125 -1.421875 29.984375 -1.421875 
Q 24.8125 -1.421875 18.96875 -0.25 
Q 13.140625 0.921875 6.890625 3.21875 
L 6.890625 13.375 
Q 12.890625 10.015625 18.65625 8.296875 
Q 24.421875 6.59375 29.984375 6.59375 
Q 38.421875 6.59375 43.015625 9.90625 
Q 47.609375 13.234375 47.609375 19.390625 
Q 47.609375 24.75 44.3125 27.78125 
Q 41.015625 30.8125 33.5 32.328125 
L 27.484375 33.5 
Q 16.453125 35.6875 11.515625 40.375 
Q 6.59375 45.0625 6.59375 53.421875 
Q 6.59375 63.09375 13.40625 68.65625 
Q 20.21875 74.21875 32.171875 74.21875 
Q 37.3125 74.21875 42.625 73.28125 
Q 47.953125 72.359375 53.515625 70.515625 
z
" id="DejaVuSans-53"/>
      <path d="M 30.609375 48.390625 
Q 23.390625 48.390625 19.1875 42.75 
Q 14.984375 37.109375 14.984375 27.296875 
Q 14.984375 17.484375 19.15625 11.84375 
Q 23.34375 6.203125 30.609375 6.203125 
Q 37.796875 6.203125 41.984375 11.859375 
Q 46.1875 17.53125 46.1875 27.296875 
Q 46.1875 37.015625 41.984375 42.703125 
Q 37.796875 48.390625 30.609375 48.390625 
z
M 30.609375 56 
Q 42.328125 56 49.015625 48.375 
Q 55.71875 40.765625 55.71875 27.296875 
Q 55.71875 13.875 49.015625 6.21875 
Q 42.328125 -1.421875 30.609375 -1.421875 
Q 18.84375 -1.421875 12.171875 6.21875 
Q 5.515625 13.875 5.515625 27.296875 
Q 5.515625 40.765625 12.171875 48.375 
Q 18.84375 56 30.609375 56 
z
" id="DejaVuSans-6f"/>
      <path d="M 54.890625 33.015625 
L 54.890625 0 
L 45.90625 0 
L 45.90625 32.71875 
Q 45.90625 40.484375 42.875 44.328125 
Q 39.84375 48.1875 33.796875 48.1875 
Q 26.515625 48.1875 22.3125 43.546875 
Q 18.109375 38.921875 18.109375 30.90625 
L 18.109375 0 
L 9.078125 0 
L 9.078125 54.6875 
L 18.109375 54.6875 
L 18.109375 46.1875 
Q 21.34375 51.125 25.703125 53.5625 
Q 30.078125 56 35.796875 56 
Q 45.21875 56 50.046875 50.171875 
Q 54.890625 44.34375 54.890625 33.015625 
z
" id="DejaVuSans-6e"/>
      <path d="M 9.8125 72.90625 
L 51.703125 72.90625 
L 51.703125 64.59375 
L 19.671875 64.59375 
L 19.671875 43.109375 
L 48.578125 43.109375 
L 48.578125 34.8125 
L 19.671875 34.8125 
L 19.671875 0 
L 9.8125 0 
z
" id="DejaVuSans-46"/>
     </defs>
     <g transform="translate(90.328125 56.654688)scale(0.1 -0.1)">
      <use xlink:href="#DejaVuSans-53"/>
      <use x="63.476562" xlink:href="#DejaVuSans-74"/>
      <use x="102.685547" xlink:href="#DejaVuSans-61"/>
      <use x="163.964844" xlink:href="#DejaVuSans-72"/>
      <use x="205.078125" xlink:href="#DejaVuSans-74"/>
      <use x="244.287109" xlink:href="#DejaVuSans-20"/>
      <use x="276.074219" xlink:href="#DejaVuSans-50"/>
      <use x="336.330078" xlink:href="#DejaVuSans-6f"/>
      <use x="397.511719" xlink:href="#DejaVuSans-69"/>
      <use x="425.294922" xlink:href="#DejaVuSans-6e"/>
      <use x="488.673828" xlink:href="#DejaVuSans-74"/>
      <use x="527.882812" xlink:href="#DejaVuSans-20"/>
      <use x="559.669922" xlink:href="#DejaVuSans-66"/>
      <use x="594.875" xlink:href="#DejaVuSans-6f"/>
      <use x="656.056641" xlink:href="#DejaVuSans-72"/>
      <use x="697.169922" xlink:href="#DejaVuSans-20"/>
      <use x="728.957031" xlink:href="#DejaVuSans-46"/>
      <use x="786.429688" xlink:href="#DejaVuSans-6f"/>
      <use x="847.611328" xlink:href="#DejaVuSans-72"/>
      <use x="888.693359" xlink:href="#DejaVuSans-65"/>
      <use x="950.216797" xlink:href="#DejaVuSans-63"/>
      <use x="1005.197266" xlink:href="#DejaVuSans-61"/>
      <use x="1066.476562" xlink:href="#DejaVuSans-73"/>
      <use x="1118.576172" xlink:href="#DejaVuSans-74"/>
     </g>
    </g>
   </g>
  </g>
  <g id="axes_2">
   <g id="patch_8">
    <path d="M 53.328125 645.74 
L 1170.768125 645.74 
L 1170.768125 516.14 
L 53.328125 516.14 
z
" style="fill:none;"/>
   </g>
   <g id="matplotlib.axis_3">
    <g id="xtick_6">
     <g id="line2d_21">
      <g>
       <use style="stroke:#000000;stroke-width:0.8;" x="104.120852" xlink:href="#mef66dba087" y="645.74"/>
      </g>
     </g>
     <g id="text_17">
      <!-- 0 -->
      <g transform="translate(100.939602 660.338437)scale(0.1 -0.1)">
       <use xlink:href="#DejaVuSans-30"/>
      </g>
     </g>
    </g>
    <g id="xtick_7">
     <g id="line2d_22">
      <g>
       <use style="stroke:#000000;stroke-width:0.8;" x="228.612831" xlink:href="#mef66dba087" y="645.74"/>
      </g>
     </g>
     <g id="text_18">
      <!-- 25 -->
      <g transform="translate(222.250331 660.338437)scale(0.1 -0.1)">
       <use xlink:href="#DejaVuSans-32"/>
       <use x="63.623047" xlink:href="#DejaVuSans-35"/>
      </g>
     </g>
    </g>
    <g id="xtick_8">
     <g id="line2d_23">
      <g>
       <use style="stroke:#000000;stroke-width:0.8;" x="353.104809" xlink:href="#mef66dba087" y="645.74"/>
      </g>
     </g>
     <g id="text_19">
      <!-- 50 -->
      <g transform="translate(346.742309 660.338437)scale(0.1 -0.1)">
       <use xlink:href="#DejaVuSans-35"/>
       <use x="63.623047" xlink:href="#DejaVuSans-30"/>
      </g>
     </g>
    </g>
    <g id="xtick_9">
     <g id="line2d_24">
      <g>
       <use style="stroke:#000000;stroke-width:0.8;" x="477.596788" xlink:href="#mef66dba087" y="645.74"/>
      </g>
     </g>
     <g id="text_20">
      <!-- 75 -->
      <defs>
       <path d="M 8.203125 72.90625 
L 55.078125 72.90625 
L 55.078125 68.703125 
L 28.609375 0 
L 18.3125 0 
L 43.21875 64.59375 
L 8.203125 64.59375 
z
" id="DejaVuSans-37"/>
      </defs>
      <g transform="translate(471.234288 660.338437)scale(0.1 -0.1)">
       <use xlink:href="#DejaVuSans-37"/>
       <use x="63.623047" xlink:href="#DejaVuSans-35"/>
      </g>
     </g>
    </g>
    <g id="xtick_10">
     <g id="line2d_25">
      <g>
       <use style="stroke:#000000;stroke-width:0.8;" x="602.088767" xlink:href="#mef66dba087" y="645.74"/>
      </g>
     </g>
     <g id="text_21">
      <!-- 100 -->
      <g transform="translate(592.545017 660.338437)scale(0.1 -0.1)">
       <use xlink:href="#DejaVuSans-31"/>
       <use x="63.623047" xlink:href="#DejaVuSans-30"/>
       <use x="127.246094" xlink:href="#DejaVuSans-30"/>
      </g>
     </g>
    </g>
    <g id="xtick_11">
     <g id="line2d_26">
      <g>
       <use style="stroke:#000000;stroke-width:0.8;" x="726.580745" xlink:href="#mef66dba087" y="645.74"/>
      </g>
     </g>
     <g id="text_22">
      <!-- 125 -->
      <g transform="translate(717.036995 660.338437)scale(0.1 -0.1)">
       <use xlink:href="#DejaVuSans-31"/>
       <use x="63.623047" xlink:href="#DejaVuSans-32"/>
       <use x="127.246094" xlink:href="#DejaVuSans-35"/>
      </g>
     </g>
    </g>
    <g id="xtick_12">
     <g id="line2d_27">
      <g>
       <use style="stroke:#000000;stroke-width:0.8;" x="851.072724" xlink:href="#mef66dba087" y="645.74"/>
      </g>
     </g>
     <g id="text_23">
      <!-- 150 -->
      <g transform="translate(841.528974 660.338437)scale(0.1 -0.1)">
       <use xlink:href="#DejaVuSans-31"/>
       <use x="63.623047" xlink:href="#DejaVuSans-35"/>
       <use x="127.246094" xlink:href="#DejaVuSans-30"/>
      </g>
     </g>
    </g>
    <g id="xtick_13">
     <g id="line2d_28">
      <g>
       <use style="stroke:#000000;stroke-width:0.8;" x="975.564703" xlink:href="#mef66dba087" y="645.74"/>
      </g>
     </g>
     <g id="text_24">
      <!-- 175 -->
      <g transform="translate(966.020953 660.338437)scale(0.1 -0.1)">
       <use xlink:href="#DejaVuSans-31"/>
       <use x="63.623047" xlink:href="#DejaVuSans-37"/>
       <use x="127.246094" xlink:href="#DejaVuSans-35"/>
      </g>
     </g>
    </g>
    <g id="xtick_14">
     <g id="line2d_29">
      <g>
       <use style="stroke:#000000;stroke-width:0.8;" x="1100.056681" xlink:href="#mef66dba087" y="645.74"/>
      </g>
     </g>
     <g id="text_25">
      <!-- 200 -->
      <g transform="translate(1090.512931 660.338437)scale(0.1 -0.1)">
       <use xlink:href="#DejaVuSans-32"/>
       <use x="63.623047" xlink:href="#DejaVuSans-30"/>
       <use x="127.246094" xlink:href="#DejaVuSans-30"/>
      </g>
     </g>
    </g>
   </g>
   <g id="matplotlib.axis_4">
    <g id="ytick_7">
     <g id="line2d_30">
      <g>
       <use style="stroke:#000000;stroke-width:0.8;" x="53.328125" xlink:href="#m97fd253f4b" y="641.357692"/>
      </g>
     </g>
     <g id="text_26">
      <!-- 10 -->
      <g transform="translate(33.603125 645.15691)scale(0.1 -0.1)">
       <use xlink:href="#DejaVuSans-31"/>
       <use x="63.623047" xlink:href="#DejaVuSans-30"/>
      </g>
     </g>
    </g>
    <g id="ytick_8">
     <g id="line2d_31">
      <g>
       <use style="stroke:#000000;stroke-width:0.8;" x="53.328125" xlink:href="#m97fd253f4b" y="599.741119"/>
      </g>
     </g>
     <g id="text_27">
      <!-- 20 -->
      <g transform="translate(33.603125 603.540338)scale(0.1 -0.1)">
       <use xlink:href="#DejaVuSans-32"/>
       <use x="63.623047" xlink:href="#DejaVuSans-30"/>
      </g>
     </g>
    </g>
    <g id="ytick_9">
     <g id="line2d_32">
      <g>
       <use style="stroke:#000000;stroke-width:0.8;" x="53.328125" xlink:href="#m97fd253f4b" y="558.124546"/>
      </g>
     </g>
     <g id="text_28">
      <!-- 30 -->
      <defs>
       <path d="M 40.578125 39.3125 
Q 47.65625 37.796875 51.625 33 
Q 55.609375 28.21875 55.609375 21.1875 
Q 55.609375 10.40625 48.1875 4.484375 
Q 40.765625 -1.421875 27.09375 -1.421875 
Q 22.515625 -1.421875 17.65625 -0.515625 
Q 12.796875 0.390625 7.625 2.203125 
L 7.625 11.71875 
Q 11.71875 9.328125 16.59375 8.109375 
Q 21.484375 6.890625 26.8125 6.890625 
Q 36.078125 6.890625 40.9375 10.546875 
Q 45.796875 14.203125 45.796875 21.1875 
Q 45.796875 27.640625 41.28125 31.265625 
Q 36.765625 34.90625 28.71875 34.90625 
L 20.21875 34.90625 
L 20.21875 43.015625 
L 29.109375 43.015625 
Q 36.375 43.015625 40.234375 45.921875 
Q 44.09375 48.828125 44.09375 54.296875 
Q 44.09375 59.90625 40.109375 62.90625 
Q 36.140625 65.921875 28.71875 65.921875 
Q 24.65625 65.921875 20.015625 65.03125 
Q 15.375 64.15625 9.8125 62.3125 
L 9.8125 71.09375 
Q 15.4375 72.65625 20.34375 73.4375 
Q 25.25 74.21875 29.59375 74.21875 
Q 40.828125 74.21875 47.359375 69.109375 
Q 53.90625 64.015625 53.90625 55.328125 
Q 53.90625 49.265625 50.4375 45.09375 
Q 46.96875 40.921875 40.578125 39.3125 
z
" id="DejaVuSans-33"/>
      </defs>
      <g transform="translate(33.603125 561.923765)scale(0.1 -0.1)">
       <use xlink:href="#DejaVuSans-33"/>
       <use x="63.623047" xlink:href="#DejaVuSans-30"/>
      </g>
     </g>
    </g>
    <g id="ytick_10">
     <g id="line2d_33">
      <g>
       <use style="stroke:#000000;stroke-width:0.8;" x="53.328125" xlink:href="#m97fd253f4b" y="516.507974"/>
      </g>
     </g>
     <g id="text_29">
      <!-- 40 -->
      <g transform="translate(33.603125 520.307192)scale(0.1 -0.1)">
       <use xlink:href="#DejaVuSans-34"/>
       <use x="63.623047" xlink:href="#DejaVuSans-30"/>
      </g>
     </g>
    </g>
    <g id="text_30">
     <!-- Temperature -->
     <defs>
      <path d="M 18.109375 8.203125 
L 18.109375 -20.796875 
L 9.078125 -20.796875 
L 9.078125 54.6875 
L 18.109375 54.6875 
L 18.109375 46.390625 
Q 20.953125 51.265625 25.265625 53.625 
Q 29.59375 56 35.59375 56 
Q 45.5625 56 51.78125 48.09375 
Q 58.015625 40.1875 58.015625 27.296875 
Q 58.015625 14.40625 51.78125 6.484375 
Q 45.5625 -1.421875 35.59375 -1.421875 
Q 29.59375 -1.421875 25.265625 0.953125 
Q 20.953125 3.328125 18.109375 8.203125 
z
M 48.6875 27.296875 
Q 48.6875 37.203125 44.609375 42.84375 
Q 40.53125 48.484375 33.40625 48.484375 
Q 26.265625 48.484375 22.1875 42.84375 
Q 18.109375 37.203125 18.109375 27.296875 
Q 18.109375 17.390625 22.1875 11.75 
Q 26.265625 6.109375 33.40625 6.109375 
Q 40.53125 6.109375 44.609375 11.75 
Q 48.6875 17.390625 48.6875 27.296875 
z
" id="DejaVuSans-70"/>
     </defs>
     <g style="fill:#0000ff;" transform="translate(27.523437 613.557187)rotate(-90)scale(0.1 -0.1)">
      <use xlink:href="#DejaVuSans-54"/>
      <use x="60.818359" xlink:href="#DejaVuSans-65"/>
      <use x="122.341797" xlink:href="#DejaVuSans-6d"/>
      <use x="219.753906" xlink:href="#DejaVuSans-70"/>
      <use x="283.230469" xlink:href="#DejaVuSans-65"/>
      <use x="344.753906" xlink:href="#DejaVuSans-72"/>
      <use x="385.867188" xlink:href="#DejaVuSans-61"/>
      <use x="447.146484" xlink:href="#DejaVuSans-74"/>
      <use x="486.355469" xlink:href="#DejaVuSans-75"/>
      <use x="549.734375" xlink:href="#DejaVuSans-72"/>
      <use x="590.816406" xlink:href="#DejaVuSans-65"/>
     </g>
    </g>
   </g>
   <g id="line2d_34">
    <path clip-path="url(#pa0ef654f08)" d="M 104.120852 547.605125 
L 109.100531 551.433018 
L 119.05989 543.610351 
L 124.039569 540.909019 
L 129.019248 543.428902 
L 133.998927 549.812884 
L 138.978606 544.166348 
L 143.958285 534.133841 
L 148.937965 532.08256 
L 153.917644 540.226091 
L 158.897323 540.961872 
L 163.877002 547.21393 
L 168.856681 549.278528 
L 173.83636 545.3004 
L 178.816039 544.520505 
L 183.795719 540.328051 
L 188.775398 544.005292 
L 193.755077 541.715548 
L 198.734756 536.739038 
L 203.714435 536.561752 
L 208.694114 543.009823 
L 213.673793 547.37665 
L 218.653473 545.011997 
L 223.633152 546.372859 
L 228.612831 545.159736 
L 233.59251 549.319728 
L 238.572189 540.407123 
L 243.551868 542.611969 
L 248.531547 539.277649 
L 253.511227 555.287545 
L 258.490906 542.665238 
L 263.470585 542.240333 
L 268.450264 531.815798 
L 273.429943 539.488229 
L 278.409622 538.915585 
L 283.389301 541.300631 
L 288.368981 545.657054 
L 293.34866 542.102166 
L 298.328339 539.871101 
L 303.308018 535.632454 
L 308.287697 546.396996 
L 313.267376 548.036273 
L 318.247055 537.491882 
L 323.226735 531.906938 
L 328.206414 530.659689 
L 333.186093 543.053105 
L 338.165772 539.531094 
L 343.145451 545.57715 
L 348.12513 547.630928 
L 353.104809 546.737836 
L 358.084489 539.663435 
L 363.064168 538.749535 
L 368.043847 545.741535 
L 373.023526 547.830271 
L 378.003205 541.19867 
L 382.982884 534.2924 
L 387.962564 534.904164 
L 392.942243 531.305162 
L 397.921922 539.030447 
L 402.901601 545.329531 
L 407.88128 547.06952 
L 412.860959 542.468808 
L 417.840638 535.838456 
L 422.820318 536.131436 
L 427.799997 547.078676 
L 432.779676 549.76669 
L 437.759355 545.393204 
L 442.739034 529.62302 
L 447.718713 528.175596 
L 457.678072 535.19548 
L 462.657751 545.600455 
L 467.63743 546.571786 
L 472.617109 544.28329 
L 477.596788 535.599576 
L 482.576467 534.836328 
L 487.556146 538.446566 
L 492.535826 563.458542 
L 497.515505 544.993269 
L 502.495184 530.506956 
L 507.474863 532.90199 
L 512.454542 532.554908 
L 517.434221 542.079693 
L 522.4139 542.7106 
L 527.39358 545.027395 
L 532.373259 543.313208 
L 537.352938 537.046585 
L 542.332617 530.392927 
L 547.312296 546.054076 
L 552.291975 550.139158 
L 557.271654 537.377853 
L 562.251334 531.030077 
L 567.231013 531.076687 
L 572.210692 532.61442 
L 577.190371 538.238067 
L 582.17005 544.130558 
L 587.149729 546.771962 
L 592.129408 544.178833 
L 597.109088 534.687341 
L 602.088767 535.277464 
L 607.068446 543.751431 
L 612.048125 546.521846 
L 617.027804 535.703202 
L 622.007483 530.252263 
L 631.966842 522.030909 
L 636.946521 533.856258 
L 641.9262 544.082699 
L 646.905879 546.802758 
L 651.885558 542.383078 
L 656.865237 538.343773 
L 661.844916 532.923215 
L 666.824596 543.740194 
L 671.804275 556.260124 
L 676.783954 541.542839 
L 681.763633 534.662371 
L 686.743312 530.782042 
L 691.722991 530.640546 
L 696.70267 534.77099 
L 701.68235 542.053475 
L 706.662029 545.764008 
L 711.641708 545.919238 
L 716.621387 534.497153 
L 721.601066 538.610119 
L 726.580745 542.929087 
L 731.560424 539.437873 
L 736.540104 534.30655 
L 741.519783 526.041082 
L 746.499462 531.085011 
L 751.479141 531.796238 
L 756.45882 536.823104 
L 761.438499 544.671573 
L 766.418178 546.930105 
L 771.397858 546.923446 
L 776.377537 539.032944 
L 781.357216 533.986518 
L 786.336895 540.56485 
L 791.316574 546.694971 
L 796.296253 542.745974 
L 801.275932 527.954196 
L 806.255612 533.080109 
L 811.235291 540.634766 
L 816.21497 538.851079 
L 821.194649 543.173793 
L 826.174328 545.666625 
L 831.154007 542.61072 
L 836.133686 536.601287 
L 841.113366 536.850154 
L 846.093045 546.910545 
L 851.072724 548.00298 
L 856.052403 546.480229 
L 861.032082 535.138881 
L 866.011761 532.676845 
L 870.991441 529.188543 
L 880.950799 546.115252 
L 885.930478 548.651782 
L 890.910157 545.799798 
L 895.889836 536.359495 
L 900.869515 538.843172 
L 905.849195 550.055925 
L 910.828874 549.551532 
L 915.808553 534.269511 
L 920.788232 529.16066 
L 925.767911 531.523649 
L 930.74759 530.684659 
L 935.727269 544.642025 
L 940.706949 543.622003 
L 945.686628 548.067485 
L 950.666307 543.25661 
L 955.645986 537.888072 
L 960.625665 538.563925 
L 965.605344 547.077427 
L 970.585023 547.630511 
L 975.564703 541.818757 
L 980.544382 534.270759 
L 985.524061 530.824907 
L 990.50374 538.153169 
L 995.483419 543.058515 
L 1000.463098 541.391771 
L 1005.442777 546.577196 
L 1010.422457 541.998541 
L 1015.402136 538.975513 
L 1020.381815 538.08367 
L 1025.361494 546.446936 
L 1030.341173 547.295498 
L 1035.320852 540.684705 
L 1040.300531 539.233119 
L 1045.280211 530.482403 
L 1050.25989 529.99757 
L 1055.239569 536.356998 
L 1060.219248 546.405736 
L 1065.198927 546.843542 
L 1070.178606 543.650302 
L 1075.158285 539.755824 
L 1080.137965 535.385667 
L 1085.117644 543.681099 
L 1090.097323 538.993824 
L 1095.077002 537.488553 
L 1100.056681 532.899909 
L 1105.03636 531.152429 
L 1110.016039 535.039834 
L 1114.995719 539.871518 
L 1119.975398 544.906291 
L 1119.975398 544.906291 
" style="fill:none;stroke:#ff0000;stroke-linecap:square;stroke-width:1.5;"/>
   </g>
   <g id="line2d_35">
    <path clip-path="url(#pa0ef654f08)" d="M 104.120852 565.540203 
L 109.100531 567.000113 
L 114.080211 565.884789 
L 119.05989 564.311682 
L 124.039569 567.625194 
L 129.019248 577.388026 
L 133.998927 578.13213 
L 138.978606 573.761557 
L 143.958285 565.391216 
L 148.937965 561.971582 
L 153.917644 564.903054 
L 158.897323 562.604987 
L 163.877002 564.947167 
L 168.856681 567.548203 
L 173.83636 564.609657 
L 178.816039 565.477779 
L 183.795719 569.678555 
L 188.775398 577.69682 
L 193.755077 578.344791 
L 198.734756 571.060642 
L 203.714435 568.221559 
L 208.694114 569.362686 
L 213.673793 568.616084 
L 218.653473 562.039417 
L 223.633152 563.969594 
L 228.612831 562.096432 
L 233.59251 564.332907 
L 238.572189 560.235755 
L 243.551868 566.265164 
L 248.531547 569.953641 
L 253.511227 582.031603 
L 258.490906 575.904395 
L 263.470585 574.111137 
L 268.450264 573.148961 
L 273.429943 565.809463 
L 278.409622 561.268262 
L 288.368981 562.17259 
L 293.34866 561.616177 
L 298.328339 563.054862 
L 303.308018 567.724241 
L 308.287697 575.741674 
L 313.267376 580.30826 
L 318.247055 579.886685 
L 323.226735 567.597311 
L 328.206414 564.049498 
L 333.186093 566.084964 
L 338.165772 561.318202 
L 343.145451 563.30248 
L 348.12513 565.695433 
L 353.104809 565.775337 
L 358.084489 561.365229 
L 363.064168 568.201167 
L 368.043847 577.644384 
L 373.023526 579.684844 
L 378.003205 576.004691 
L 382.982884 569.366015 
L 387.962564 566.038354 
L 392.942243 559.574884 
L 397.921922 561.911238 
L 402.901601 565.889367 
L 407.88128 566.420394 
L 412.860959 564.89473 
L 417.840638 559.669354 
L 422.820318 566.370038 
L 427.799997 576.312653 
L 432.779676 582.53225 
L 437.759355 579.455537 
L 442.739034 566.779961 
L 447.718713 563.566329 
L 452.698392 557.130326 
L 457.678072 560.034331 
L 462.657751 563.549267 
L 467.63743 563.943376 
L 472.617109 564.824398 
L 477.596788 559.943607 
L 482.576467 566.32426 
L 487.556146 571.161354 
L 492.535826 587.517083 
L 497.515505 579.169631 
L 502.495184 568.345993 
L 507.474863 566.745419 
L 512.454542 564.756563 
L 517.434221 560.405551 
L 527.39358 564.214299 
L 532.373259 565.358339 
L 537.352938 560.111738 
L 542.332617 566.016713 
L 547.312296 581.98083 
L 552.291975 581.692844 
L 557.271654 573.621726 
L 562.251334 564.77321 
L 567.231013 567.27395 
L 572.210692 561.65821 
L 577.190371 563.133101 
L 582.17005 565.214762 
L 587.149729 566.826988 
L 592.129408 566.074144 
L 597.109088 560.690624 
L 602.088767 568.183272 
L 607.068446 580.52425 
L 612.048125 583.13361 
L 617.027804 572.925064 
L 622.007483 566.863194 
L 626.987162 563.290412 
L 631.966842 555.34664 
L 636.946521 560.688543 
L 641.9262 564.992529 
L 646.905879 567.216103 
L 651.885558 564.741165 
L 656.865237 563.526794 
L 661.844916 568.660198 
L 666.824596 580.282042 
L 671.804275 588.77432 
L 676.783954 579.800122 
L 681.763633 573.561798 
L 686.743312 565.693769 
L 691.722991 562.56337 
L 696.70267 560.943653 
L 701.68235 562.666995 
L 706.662029 566.220634 
L 711.641708 566.116593 
L 716.621387 561.259523 
L 721.601066 568.574468 
L 726.580745 577.053428 
L 731.560424 578.548712 
L 736.540104 570.387286 
L 741.519783 562.56337 
L 746.499462 562.053567 
L 751.479141 558.402961 
L 756.45882 559.498309 
L 761.438499 563.806873 
L 766.418178 565.358755 
L 771.397858 566.564803 
L 776.377537 562.950404 
L 781.357216 568.168706 
L 786.336895 574.066191 
L 791.316574 580.710277 
L 796.296253 579.366061 
L 801.275932 571.237512 
L 806.255612 565.492344 
L 811.235291 565.983836 
L 816.21497 561.871703 
L 821.194649 562.918359 
L 826.174328 565.485686 
L 831.154007 563.886361 
L 836.133686 560.249489 
L 841.113366 568.435052 
L 846.093045 579.36398 
L 851.072724 581.931723 
L 856.052403 580.32241 
L 861.032082 569.718507 
L 866.011761 566.035441 
L 870.991441 561.023973 
L 875.97112 560.350617 
L 880.950799 564.870177 
L 885.930478 566.118258 
L 890.910157 565.479859 
L 895.889836 561.043533 
L 900.869515 564.307104 
L 905.849195 581.104385 
L 910.828874 584.025869 
L 915.808553 574.005847 
L 920.788232 568.385529 
L 925.767911 567.010933 
L 930.74759 558.037568 
L 935.727269 559.635644 
L 940.706949 562.397736 
L 945.686628 566.918544 
L 950.666307 564.466496 
L 955.645986 561.138002 
L 960.625665 567.380904 
L 965.605344 576.935237 
L 970.585023 582.444439 
L 975.564703 579.885852 
L 980.544382 573.965895 
L 985.524061 564.962565 
L 990.50374 564.052827 
L 995.483419 558.962288 
L 1000.463098 561.657793 
L 1005.442777 565.551856 
L 1010.422457 564.051162 
L 1015.402136 558.332629 
L 1020.381815 567.898615 
L 1025.361494 579.212912 
L 1030.341173 584.012552 
L 1035.320852 579.944948 
L 1040.300531 573.324167 
L 1045.280211 567.015927 
L 1050.25989 561.12302 
L 1055.239569 559.554492 
L 1060.219248 560.844606 
L 1065.198927 564.00039 
L 1070.178606 563.074422 
L 1075.158285 561.251199 
L 1080.137965 567.351357 
L 1085.117644 575.92229 
L 1090.097323 572.929226 
L 1095.077002 575.057914 
L 1100.056681 568.603183 
L 1105.03636 564.061567 
L 1110.016039 564.047833 
L 1114.995719 562.631205 
L 1119.975398 565.640083 
L 1119.975398 565.640083 
" style="fill:none;stroke:#008000;stroke-linecap:square;stroke-width:1.5;"/>
   </g>
   <g id="line2d_36">
    <path clip-path="url(#pa0ef654f08)" d="M 104.120852 581.898014 
L 109.100531 582.226784 
L 119.05989 583.866061 
L 124.039569 593.247685 
L 129.019248 603.99683 
L 133.998927 605.763869 
L 138.978606 604.245281 
L 143.958285 599.873876 
L 148.937965 591.961317 
L 153.917644 591.880581 
L 158.897323 585.609796 
L 163.877002 582.381182 
L 168.856681 585.363426 
L 173.83636 583.787406 
L 178.816039 586.784631 
L 188.775398 610.373737 
L 193.755077 616.537152 
L 198.734756 603.975189 
L 203.714435 596.053891 
L 208.694114 597.294065 
L 213.673793 584.341739 
L 218.653473 579.165886 
L 223.633152 578.78551 
L 228.612831 577.878685 
L 233.59251 581.810619 
L 238.572189 578.470889 
L 243.551868 587.235339 
L 248.531547 595.274412 
L 253.511227 605.591577 
L 258.490906 604.010979 
L 263.470585 599.926729 
L 268.450264 597.566237 
L 273.429943 588.464692 
L 278.409622 582.427376 
L 283.389301 580.396071 
L 288.368981 578.832953 
L 293.34866 578.937411 
L 298.328339 580.326156 
L 303.308018 596.745142 
L 308.287697 601.032897 
L 313.267376 611.72794 
L 318.247055 608.331612 
L 323.226735 598.096848 
L 328.206414 593.452855 
L 333.186093 592.093241 
L 338.165772 581.938382 
L 343.145451 578.931584 
L 348.12513 581.726553 
L 353.104809 583.685029 
L 358.084489 581.307474 
L 363.064168 595.865784 
L 368.043847 607.393574 
L 373.023526 607.909204 
L 378.003205 606.17837 
L 382.982884 600.178509 
L 387.962564 596.476715 
L 392.942243 589.309093 
L 397.921922 585.141193 
L 402.901601 583.778666 
L 407.88128 583.123622 
L 412.860959 584.331751 
L 417.840638 584.443283 
L 422.820318 593.114096 
L 427.799997 602.719617 
L 432.779676 608.997477 
L 437.759355 605.61946 
L 447.718713 592.596386 
L 452.698392 582.578028 
L 457.678072 579.205421 
L 462.657751 581.380303 
L 467.63743 580.652429 
L 472.617109 582.783614 
L 477.596788 580.947491 
L 482.576467 593.962658 
L 487.556146 600.258829 
L 492.535826 606.236218 
L 497.515505 607.00654 
L 502.495184 598.669908 
L 507.474863 593.123668 
L 512.454542 590.167643 
L 517.434221 580.745234 
L 522.4139 579.984067 
L 527.39358 580.400233 
L 532.373259 581.84849 
L 537.352938 581.110628 
L 542.332617 596.840444 
L 547.312296 611.538585 
L 552.291975 606.03729 
L 557.271654 604.15206 
L 562.251334 593.96682 
L 567.231013 593.612663 
L 572.210692 588.02647 
L 577.190371 584.599345 
L 582.17005 582.017037 
L 587.149729 582.480229 
L 592.129408 583.081589 
L 597.109088 582.53225 
L 607.068446 611.535672 
L 612.048125 613.649794 
L 617.027804 602.332167 
L 622.007483 596.092594 
L 626.987162 590.338687 
L 631.966842 583.881459 
L 636.946521 582.045336 
L 641.9262 581.620015 
L 646.905879 582.963814 
L 651.885558 583.244726 
L 656.865237 584.367125 
L 661.844916 598.673238 
L 666.824596 609.678324 
L 671.804275 619.040805 
L 676.783954 610.320468 
L 681.763633 601.268031 
L 686.743312 597.283244 
L 691.722991 589.268725 
L 696.70267 582.697468 
L 701.68235 580.457664 
L 706.662029 583.494425 
L 711.641708 582.863102 
L 716.621387 582.776956 
L 721.601066 596.082606 
L 726.580745 607.010702 
L 731.560424 609.998772 
L 736.540104 602.535256 
L 741.519783 594.336375 
L 746.499462 590.281672 
L 751.479141 584.968484 
L 756.45882 581.586722 
L 761.438499 580.90088 
L 766.418178 581.173053 
L 771.397858 584.101195 
L 776.377537 583.21934 
L 781.357216 597.431815 
L 786.336895 602.728773 
L 791.316574 609.3662 
L 796.296253 610.558099 
L 801.275932 601.874385 
L 806.255612 595.936532 
L 811.235291 591.742414 
L 816.21497 582.395748 
L 821.194649 580.758136 
L 826.174328 582.581358 
L 831.154007 582.57345 
L 836.133686 581.313301 
L 841.113366 597.58871 
L 846.093045 609.327497 
L 851.072724 611.449526 
L 856.052403 607.064387 
L 861.032082 600.024944 
L 866.011761 595.607345 
L 870.991441 584.230206 
L 875.97112 581.504321 
L 885.930478 581.942127 
L 890.910157 580.592502 
L 895.889836 582.684151 
L 900.869515 588.030632 
L 905.849195 611.389182 
L 910.828874 611.919793 
L 915.808553 604.858293 
L 920.788232 596.63028 
L 925.767911 595.406337 
L 930.74759 584.821578 
L 935.727269 579.881691 
L 940.706949 578.398892 
L 945.686628 580.662001 
L 950.666307 579.8459 
L 955.645986 580.138049 
L 960.625665 594.792076 
L 965.605344 602.793278 
L 970.585023 609.089034 
L 975.564703 610.925989 
L 980.544382 603.785418 
L 985.524061 595.10753 
L 990.50374 589.705283 
L 995.483419 580.759384 
L 1000.463098 576.743385 
L 1005.442777 580.823474 
L 1010.422457 581.899262 
L 1015.402136 579.453872 
L 1025.361494 604.300631 
L 1030.341173 609.004552 
L 1035.320852 605.60864 
L 1040.300531 600.43778 
L 1045.280211 591.076549 
L 1050.25989 584.428301 
L 1055.239569 580.444347 
L 1060.219248 577.941526 
L 1065.198927 580.301602 
L 1070.178606 580.492622 
L 1075.158285 578.09301 
L 1080.137965 592.063694 
L 1085.117644 605.652753 
L 1090.097323 602.391262 
L 1095.077002 604.646881 
L 1100.056681 598.703618 
L 1105.03636 590.188867 
L 1110.016039 590.132685 
L 1114.995719 584.468669 
L 1119.975398 580.314919 
L 1119.975398 580.314919 
" style="fill:none;stroke:#0000ff;stroke-linecap:square;stroke-width:1.5;"/>
   </g>
   <g id="line2d_37">
    <defs>
     <path d="M 0 3 
C 0.795609 3 1.55874 2.683901 2.12132 2.12132 
C 2.683901 1.55874 3 0.795609 3 0 
C 3 -0.795609 2.683901 -1.55874 2.12132 -2.12132 
C 1.55874 -2.683901 0.795609 -3 0 -3 
C -0.795609 -3 -1.55874 -2.683901 -2.12132 -2.12132 
C -2.683901 -1.55874 -3 -0.795609 -3 0 
C -3 0.795609 -2.683901 1.55874 -2.12132 2.12132 
C -1.55874 2.683901 -0.795609 3 0 3 
z
" id="mbb6cf09821" style="stroke:#ff0000;"/>
    </defs>
    <g clip-path="url(#pa0ef654f08)">
     <use style="fill:#ff0000;stroke:#ff0000;" x="109.100531" xlink:href="#mbb6cf09821" y="639.849091"/>
     <use style="fill:#ff0000;stroke:#ff0000;" x="163.877002" xlink:href="#mbb6cf09821" y="639.849091"/>
     <use style="fill:#ff0000;stroke:#ff0000;" x="253.511227" xlink:href="#mbb6cf09821" y="639.849091"/>
     <use style="fill:#ff0000;stroke:#ff0000;" x="288.368981" xlink:href="#mbb6cf09821" y="639.849091"/>
     <use style="fill:#ff0000;stroke:#ff0000;" x="293.34866" xlink:href="#mbb6cf09821" y="639.849091"/>
     <use style="fill:#ff0000;stroke:#ff0000;" x="298.328339" xlink:href="#mbb6cf09821" y="639.849091"/>
     <use style="fill:#ff0000;stroke:#ff0000;" x="303.308018" xlink:href="#mbb6cf09821" y="639.849091"/>
     <use style="fill:#ff0000;stroke:#ff0000;" x="308.287697" xlink:href="#mbb6cf09821" y="639.849091"/>
     <use style="fill:#ff0000;stroke:#ff0000;" x="348.12513" xlink:href="#mbb6cf09821" y="639.849091"/>
     <use style="fill:#ff0000;stroke:#ff0000;" x="392.942243" xlink:href="#mbb6cf09821" y="639.849091"/>
     <use style="fill:#ff0000;stroke:#ff0000;" x="467.63743" xlink:href="#mbb6cf09821" y="639.849091"/>
     <use style="fill:#ff0000;stroke:#ff0000;" x="472.617109" xlink:href="#mbb6cf09821" y="639.849091"/>
     <use style="fill:#ff0000;stroke:#ff0000;" x="587.149729" xlink:href="#mbb6cf09821" y="639.849091"/>
     <use style="fill:#ff0000;stroke:#ff0000;" x="592.129408" xlink:href="#mbb6cf09821" y="639.849091"/>
     <use style="fill:#ff0000;stroke:#ff0000;" x="646.905879" xlink:href="#mbb6cf09821" y="639.849091"/>
     <use style="fill:#ff0000;stroke:#ff0000;" x="651.885558" xlink:href="#mbb6cf09821" y="639.849091"/>
     <use style="fill:#ff0000;stroke:#ff0000;" x="706.662029" xlink:href="#mbb6cf09821" y="639.849091"/>
     <use style="fill:#ff0000;stroke:#ff0000;" x="766.418178" xlink:href="#mbb6cf09821" y="639.849091"/>
     <use style="fill:#ff0000;stroke:#ff0000;" x="776.377537" xlink:href="#mbb6cf09821" y="639.849091"/>
     <use style="fill:#ff0000;stroke:#ff0000;" x="826.174328" xlink:href="#mbb6cf09821" y="639.849091"/>
     <use style="fill:#ff0000;stroke:#ff0000;" x="846.093045" xlink:href="#mbb6cf09821" y="639.849091"/>
     <use style="fill:#ff0000;stroke:#ff0000;" x="851.072724" xlink:href="#mbb6cf09821" y="639.849091"/>
     <use style="fill:#ff0000;stroke:#ff0000;" x="856.052403" xlink:href="#mbb6cf09821" y="639.849091"/>
     <use style="fill:#ff0000;stroke:#ff0000;" x="861.032082" xlink:href="#mbb6cf09821" y="639.849091"/>
     <use style="fill:#ff0000;stroke:#ff0000;" x="866.011761" xlink:href="#mbb6cf09821" y="639.849091"/>
     <use style="fill:#ff0000;stroke:#ff0000;" x="870.991441" xlink:href="#mbb6cf09821" y="639.849091"/>
     <use style="fill:#ff0000;stroke:#ff0000;" x="875.97112" xlink:href="#mbb6cf09821" y="639.849091"/>
     <use style="fill:#ff0000;stroke:#ff0000;" x="880.950799" xlink:href="#mbb6cf09821" y="639.849091"/>
     <use style="fill:#ff0000;stroke:#ff0000;" x="885.930478" xlink:href="#mbb6cf09821" y="639.849091"/>
     <use style="fill:#ff0000;stroke:#ff0000;" x="890.910157" xlink:href="#mbb6cf09821" y="639.849091"/>
     <use style="fill:#ff0000;stroke:#ff0000;" x="895.889836" xlink:href="#mbb6cf09821" y="639.849091"/>
     <use style="fill:#ff0000;stroke:#ff0000;" x="900.869515" xlink:href="#mbb6cf09821" y="639.849091"/>
     <use style="fill:#ff0000;stroke:#ff0000;" x="905.849195" xlink:href="#mbb6cf09821" y="639.849091"/>
     <use style="fill:#ff0000;stroke:#ff0000;" x="910.828874" xlink:href="#mbb6cf09821" y="639.849091"/>
     <use style="fill:#ff0000;stroke:#ff0000;" x="915.808553" xlink:href="#mbb6cf09821" y="639.849091"/>
     <use style="fill:#ff0000;stroke:#ff0000;" x="920.788232" xlink:href="#mbb6cf09821" y="639.849091"/>
     <use style="fill:#ff0000;stroke:#ff0000;" x="925.767911" xlink:href="#mbb6cf09821" y="639.849091"/>
     <use style="fill:#ff0000;stroke:#ff0000;" x="930.74759" xlink:href="#mbb6cf09821" y="639.849091"/>
     <use style="fill:#ff0000;stroke:#ff0000;" x="935.727269" xlink:href="#mbb6cf09821" y="639.849091"/>
     <use style="fill:#ff0000;stroke:#ff0000;" x="940.706949" xlink:href="#mbb6cf09821" y="639.849091"/>
     <use style="fill:#ff0000;stroke:#ff0000;" x="945.686628" xlink:href="#mbb6cf09821" y="639.849091"/>
     <use style="fill:#ff0000;stroke:#ff0000;" x="950.666307" xlink:href="#mbb6cf09821" y="639.849091"/>
     <use style="fill:#ff0000;stroke:#ff0000;" x="955.645986" xlink:href="#mbb6cf09821" y="639.849091"/>
     <use style="fill:#ff0000;stroke:#ff0000;" x="960.625665" xlink:href="#mbb6cf09821" y="639.849091"/>
     <use style="fill:#ff0000;stroke:#ff0000;" x="965.605344" xlink:href="#mbb6cf09821" y="639.849091"/>
     <use style="fill:#ff0000;stroke:#ff0000;" x="1010.422457" xlink:href="#mbb6cf09821" y="639.849091"/>
     <use style="fill:#ff0000;stroke:#ff0000;" x="1015.402136" xlink:href="#mbb6cf09821" y="639.849091"/>
     <use style="fill:#ff0000;stroke:#ff0000;" x="1020.381815" xlink:href="#mbb6cf09821" y="639.849091"/>
     <use style="fill:#ff0000;stroke:#ff0000;" x="1025.361494" xlink:href="#mbb6cf09821" y="639.849091"/>
     <use style="fill:#ff0000;stroke:#ff0000;" x="1030.341173" xlink:href="#mbb6cf09821" y="639.849091"/>
     <use style="fill:#ff0000;stroke:#ff0000;" x="1035.320852" xlink:href="#mbb6cf09821" y="639.849091"/>
     <use style="fill:#ff0000;stroke:#ff0000;" x="1040.300531" xlink:href="#mbb6cf09821" y="639.849091"/>
     <use style="fill:#ff0000;stroke:#ff0000;" x="1045.280211" xlink:href="#mbb6cf09821" y="639.849091"/>
     <use style="fill:#ff0000;stroke:#ff0000;" x="1119.975398" xlink:href="#mbb6cf09821" y="639.849091"/>
    </g>
   </g>
   <g id="patch_9">
    <path d="M 53.328125 645.74 
L 53.328125 516.14 
" style="fill:none;stroke:#000000;stroke-linecap:square;stroke-linejoin:miter;stroke-width:0.8;"/>
   </g>
   <g id="patch_10">
    <path d="M 1170.768125 645.74 
L 1170.768125 516.14 
" style="fill:none;stroke:#000000;stroke-linecap:square;stroke-linejoin:miter;stroke-width:0.8;"/>
   </g>
   <g id="patch_11">
    <path d="M 53.328125 645.74 
L 1170.768125 645.74 
" style="fill:none;stroke:#000000;stroke-linecap:square;stroke-linejoin:miter;stroke-width:0.8;"/>
   </g>
   <g id="patch_12">
    <path d="M 53.328125 516.14 
L 1170.768125 516.14 
" style="fill:none;stroke:#000000;stroke-linecap:square;stroke-linejoin:miter;stroke-width:0.8;"/>
   </g>
   <g id="legend_2">
    <g id="patch_13">
     <path d="M 60.328125 582.8525 
L 151.340625 582.8525 
Q 153.340625 582.8525 153.340625 580.8525 
L 153.340625 523.14 
Q 153.340625 521.14 151.340625 521.14 
L 60.328125 521.14 
Q 58.328125 521.14 58.328125 523.14 
L 58.328125 580.8525 
Q 58.328125 582.8525 60.328125 582.8525 
z
" style="fill:#ffffff;opacity:0.8;stroke:#cccccc;stroke-linejoin:miter;"/>
    </g>
    <g id="line2d_38">
     <path d="M 62.328125 529.238437 
L 82.328125 529.238437 
" style="fill:none;stroke:#ff0000;stroke-linecap:square;stroke-width:1.5;"/>
    </g>
    <g id="line2d_39"/>
    <g id="text_31">
     <!-- Maxmimum -->
     <defs>
      <path d="M 9.8125 72.90625 
L 24.515625 72.90625 
L 43.109375 23.296875 
L 61.8125 72.90625 
L 76.515625 72.90625 
L 76.515625 0 
L 66.890625 0 
L 66.890625 64.015625 
L 48.09375 14.015625 
L 38.1875 14.015625 
L 19.390625 64.015625 
L 19.390625 0 
L 9.8125 0 
z
" id="DejaVuSans-4d"/>
      <path d="M 54.890625 54.6875 
L 35.109375 28.078125 
L 55.90625 0 
L 45.3125 0 
L 29.390625 21.484375 
L 13.484375 0 
L 2.875 0 
L 24.125 28.609375 
L 4.6875 54.6875 
L 15.28125 54.6875 
L 29.78125 35.203125 
L 44.28125 54.6875 
z
" id="DejaVuSans-78"/>
     </defs>
     <g transform="translate(90.328125 532.738437)scale(0.1 -0.1)">
      <use xlink:href="#DejaVuSans-4d"/>
      <use x="86.279297" xlink:href="#DejaVuSans-61"/>
      <use x="147.558594" xlink:href="#DejaVuSans-78"/>
      <use x="206.738281" xlink:href="#DejaVuSans-6d"/>
      <use x="304.150391" xlink:href="#DejaVuSans-69"/>
      <use x="331.933594" xlink:href="#DejaVuSans-6d"/>
      <use x="429.345703" xlink:href="#DejaVuSans-75"/>
      <use x="492.724609" xlink:href="#DejaVuSans-6d"/>
     </g>
    </g>
    <g id="line2d_40">
     <path d="M 62.328125 543.916562 
L 82.328125 543.916562 
" style="fill:none;stroke:#008000;stroke-linecap:square;stroke-width:1.5;"/>
    </g>
    <g id="line2d_41"/>
    <g id="text_32">
     <!-- Average -->
     <defs>
      <path d="M 34.1875 63.1875 
L 20.796875 26.90625 
L 47.609375 26.90625 
z
M 28.609375 72.90625 
L 39.796875 72.90625 
L 67.578125 0 
L 57.328125 0 
L 50.6875 18.703125 
L 17.828125 18.703125 
L 11.1875 0 
L 0.78125 0 
z
" id="DejaVuSans-41"/>
      <path d="M 2.984375 54.6875 
L 12.5 54.6875 
L 29.59375 8.796875 
L 46.6875 54.6875 
L 56.203125 54.6875 
L 35.6875 0 
L 23.484375 0 
z
" id="DejaVuSans-76"/>
     </defs>
     <g transform="translate(90.328125 547.416562)scale(0.1 -0.1)">
      <use xlink:href="#DejaVuSans-41"/>
      <use x="68.330078" xlink:href="#DejaVuSans-76"/>
      <use x="127.509766" xlink:href="#DejaVuSans-65"/>
      <use x="189.033203" xlink:href="#DejaVuSans-72"/>
      <use x="230.146484" xlink:href="#DejaVuSans-61"/>
      <use x="291.425781" xlink:href="#DejaVuSans-67"/>
      <use x="354.902344" xlink:href="#DejaVuSans-65"/>
     </g>
    </g>
    <g id="line2d_42">
     <path d="M 62.328125 558.594687 
L 82.328125 558.594687 
" style="fill:none;stroke:#0000ff;stroke-linecap:square;stroke-width:1.5;"/>
    </g>
    <g id="line2d_43"/>
    <g id="text_33">
     <!-- Minimum -->
     <g transform="translate(90.328125 562.094687)scale(0.1 -0.1)">
      <use xlink:href="#DejaVuSans-4d"/>
      <use x="86.279297" xlink:href="#DejaVuSans-69"/>
      <use x="114.0625" xlink:href="#DejaVuSans-6e"/>
      <use x="177.441406" xlink:href="#DejaVuSans-69"/>
      <use x="205.224609" xlink:href="#DejaVuSans-6d"/>
      <use x="302.636719" xlink:href="#DejaVuSans-75"/>
      <use x="366.015625" xlink:href="#DejaVuSans-6d"/>
     </g>
    </g>
    <g id="line2d_44"/>
    <g id="line2d_45">
     <g>
      <use style="fill:#ff0000;stroke:#ff0000;" x="72.328125" xlink:href="#mbb6cf09821" y="573.272812"/>
     </g>
    </g>
    <g id="text_34">
     <!-- Disasters -->
     <g transform="translate(90.328125 576.772812)scale(0.1 -0.1)">
      <use xlink:href="#DejaVuSans-44"/>
      <use x="77.001953" xlink:href="#DejaVuSans-69"/>
      <use x="104.785156" xlink:href="#DejaVuSans-73"/>
      <use x="156.884766" xlink:href="#DejaVuSans-61"/>
      <use x="218.164062" xlink:href="#DejaVuSans-73"/>
      <use x="270.263672" xlink:href="#DejaVuSans-74"/>
      <use x="309.472656" xlink:href="#DejaVuSans-65"/>
      <use x="370.996094" xlink:href="#DejaVuSans-72"/>
      <use x="412.109375" xlink:href="#DejaVuSans-73"/>
     </g>
    </g>
   </g>
  </g>
 </g>
 <defs>
  <clipPath id="p660c15d2dd">
   <rect height="498.96" width="1116" x="53.328125" y="10.7"/>
  </clipPath>
  <clipPath id="pa0ef654f08">
   <rect height="129.6" width="1117.44" x="53.328125" y="516.14"/>
  </clipPath>
 </defs>
</svg>
