<?xml version="1.0" encoding="utf-8" standalone="no"?>
<!DOCTYPE svg PUBLIC "-//W3C//DTD SVG 1.1//EN"
  "http://www.w3.org/Graphics/SVG/1.1/DTD/svg11.dtd">
<!-- Created with matplotlib (http://matplotlib.org/) -->
<svg height="669pt" version="1.1" viewBox="0 0 1168 669" width="1168pt" xmlns="http://www.w3.org/2000/svg" xmlns:xlink="http://www.w3.org/1999/xlink">
 <defs>
  <style type="text/css">
*{stroke-linecap:butt;stroke-linejoin:round;}
  </style>
 </defs>
 <g id="figure_1">
  <g id="patch_1">
   <path d="M 0 669.618125 
L 1168.743125 669.618125 
L 1168.743125 -0 
L 0 -0 
z
" style="fill:none;"/>
  </g>
  <g id="axes_1">
   <g id="patch_2">
    <path d="M 40.603125 509.66 
L 1156.603125 509.66 
L 1156.603125 10.7 
L 40.603125 10.7 
z
" style="fill:none;"/>
   </g>
   <g id="matplotlib.axis_1">
    <g id="xtick_1">
     <g id="line2d_1">
      <defs>
       <path d="M 0 0 
L 0 3.5 
" id="m354abe3061" style="stroke:#000000;stroke-width:0.8;"/>
      </defs>
      <g>
       <use style="stroke:#000000;stroke-width:0.8;" x="91.330398" xlink:href="#m354abe3061" y="509.66"/>
      </g>
     </g>
     <g id="text_1">
      <!-- 0 -->
      <defs>
       <path d="M 31.78125 66.40625 
Q 24.171875 66.40625 20.328125 58.90625 
Q 16.5 51.421875 16.5 36.375 
Q 16.5 21.390625 20.328125 13.890625 
Q 24.171875 6.390625 31.78125 6.390625 
Q 39.453125 6.390625 43.28125 13.890625 
Q 47.125 21.390625 47.125 36.375 
Q 47.125 51.421875 43.28125 58.90625 
Q 39.453125 66.40625 31.78125 66.40625 
z
M 31.78125 74.21875 
Q 44.046875 74.21875 50.515625 64.515625 
Q 56.984375 54.828125 56.984375 36.375 
Q 56.984375 17.96875 50.515625 8.265625 
Q 44.046875 -1.421875 31.78125 -1.421875 
Q 19.53125 -1.421875 13.0625 8.265625 
Q 6.59375 17.96875 6.59375 36.375 
Q 6.59375 54.828125 13.0625 64.515625 
Q 19.53125 74.21875 31.78125 74.21875 
z
" id="DejaVuSans-30"/>
      </defs>
      <g transform="translate(88.149148 524.258437)scale(0.1 -0.1)">
       <use xlink:href="#DejaVuSans-30"/>
      </g>
     </g>
    </g>
    <g id="xtick_2">
     <g id="line2d_2">
      <g>
       <use style="stroke:#000000;stroke-width:0.8;" x="334.044621" xlink:href="#m354abe3061" y="509.66"/>
      </g>
     </g>
     <g id="text_2">
      <!-- 50 -->
      <defs>
       <path d="M 10.796875 72.90625 
L 49.515625 72.90625 
L 49.515625 64.59375 
L 19.828125 64.59375 
L 19.828125 46.734375 
Q 21.96875 47.46875 24.109375 47.828125 
Q 26.265625 48.1875 28.421875 48.1875 
Q 40.625 48.1875 47.75 41.5 
Q 54.890625 34.8125 54.890625 23.390625 
Q 54.890625 11.625 47.5625 5.09375 
Q 40.234375 -1.421875 26.90625 -1.421875 
Q 22.3125 -1.421875 17.546875 -0.640625 
Q 12.796875 0.140625 7.71875 1.703125 
L 7.71875 11.625 
Q 12.109375 9.234375 16.796875 8.0625 
Q 21.484375 6.890625 26.703125 6.890625 
Q 35.15625 6.890625 40.078125 11.328125 
Q 45.015625 15.765625 45.015625 23.390625 
Q 45.015625 31 40.078125 35.4375 
Q 35.15625 39.890625 26.703125 39.890625 
Q 22.75 39.890625 18.8125 39.015625 
Q 14.890625 38.140625 10.796875 36.28125 
z
" id="DejaVuSans-35"/>
      </defs>
      <g transform="translate(327.682121 524.258437)scale(0.1 -0.1)">
       <use xlink:href="#DejaVuSans-35"/>
       <use x="63.623047" xlink:href="#DejaVuSans-30"/>
      </g>
     </g>
    </g>
    <g id="xtick_3">
     <g id="line2d_3">
      <g>
       <use style="stroke:#000000;stroke-width:0.8;" x="576.758845" xlink:href="#m354abe3061" y="509.66"/>
      </g>
     </g>
     <g id="text_3">
      <!-- 100 -->
      <defs>
       <path d="M 12.40625 8.296875 
L 28.515625 8.296875 
L 28.515625 63.921875 
L 10.984375 60.40625 
L 10.984375 69.390625 
L 28.421875 72.90625 
L 38.28125 72.90625 
L 38.28125 8.296875 
L 54.390625 8.296875 
L 54.390625 0 
L 12.40625 0 
z
" id="DejaVuSans-31"/>
      </defs>
      <g transform="translate(567.215095 524.258437)scale(0.1 -0.1)">
       <use xlink:href="#DejaVuSans-31"/>
       <use x="63.623047" xlink:href="#DejaVuSans-30"/>
       <use x="127.246094" xlink:href="#DejaVuSans-30"/>
      </g>
     </g>
    </g>
    <g id="xtick_4">
     <g id="line2d_4">
      <g>
       <use style="stroke:#000000;stroke-width:0.8;" x="819.473068" xlink:href="#m354abe3061" y="509.66"/>
      </g>
     </g>
     <g id="text_4">
      <!-- 150 -->
      <g transform="translate(809.929318 524.258437)scale(0.1 -0.1)">
       <use xlink:href="#DejaVuSans-31"/>
       <use x="63.623047" xlink:href="#DejaVuSans-35"/>
       <use x="127.246094" xlink:href="#DejaVuSans-30"/>
      </g>
     </g>
    </g>
    <g id="xtick_5">
     <g id="line2d_5">
      <g>
       <use style="stroke:#000000;stroke-width:0.8;" x="1062.187292" xlink:href="#m354abe3061" y="509.66"/>
      </g>
     </g>
     <g id="text_5">
      <!-- 200 -->
      <defs>
       <path d="M 19.1875 8.296875 
L 53.609375 8.296875 
L 53.609375 0 
L 7.328125 0 
L 7.328125 8.296875 
Q 12.9375 14.109375 22.625 23.890625 
Q 32.328125 33.6875 34.8125 36.53125 
Q 39.546875 41.84375 41.421875 45.53125 
Q 43.3125 49.21875 43.3125 52.78125 
Q 43.3125 58.59375 39.234375 62.25 
Q 35.15625 65.921875 28.609375 65.921875 
Q 23.96875 65.921875 18.8125 64.3125 
Q 13.671875 62.703125 7.8125 59.421875 
L 7.8125 69.390625 
Q 13.765625 71.78125 18.9375 73 
Q 24.125 74.21875 28.421875 74.21875 
Q 39.75 74.21875 46.484375 68.546875 
Q 53.21875 62.890625 53.21875 53.421875 
Q 53.21875 48.921875 51.53125 44.890625 
Q 49.859375 40.875 45.40625 35.40625 
Q 44.1875 33.984375 37.640625 27.21875 
Q 31.109375 20.453125 19.1875 8.296875 
z
" id="DejaVuSans-32"/>
      </defs>
      <g transform="translate(1052.643542 524.258437)scale(0.1 -0.1)">
       <use xlink:href="#DejaVuSans-32"/>
       <use x="63.623047" xlink:href="#DejaVuSans-30"/>
       <use x="127.246094" xlink:href="#DejaVuSans-30"/>
      </g>
     </g>
    </g>
    <g id="text_6">
     <!-- Time -->
     <defs>
      <path d="M -0.296875 72.90625 
L 61.375 72.90625 
L 61.375 64.59375 
L 35.5 64.59375 
L 35.5 0 
L 25.59375 0 
L 25.59375 64.59375 
L -0.296875 64.59375 
z
" id="DejaVuSans-54"/>
      <path d="M 9.421875 54.6875 
L 18.40625 54.6875 
L 18.40625 0 
L 9.421875 0 
z
M 9.421875 75.984375 
L 18.40625 75.984375 
L 18.40625 64.59375 
L 9.421875 64.59375 
z
" id="DejaVuSans-69"/>
      <path d="M 52 44.1875 
Q 55.375 50.25 60.0625 53.125 
Q 64.75 56 71.09375 56 
Q 79.640625 56 84.28125 50.015625 
Q 88.921875 44.046875 88.921875 33.015625 
L 88.921875 0 
L 79.890625 0 
L 79.890625 32.71875 
Q 79.890625 40.578125 77.09375 44.375 
Q 74.3125 48.1875 68.609375 48.1875 
Q 61.625 48.1875 57.5625 43.546875 
Q 53.515625 38.921875 53.515625 30.90625 
L 53.515625 0 
L 44.484375 0 
L 44.484375 32.71875 
Q 44.484375 40.625 41.703125 44.40625 
Q 38.921875 48.1875 33.109375 48.1875 
Q 26.21875 48.1875 22.15625 43.53125 
Q 18.109375 38.875 18.109375 30.90625 
L 18.109375 0 
L 9.078125 0 
L 9.078125 54.6875 
L 18.109375 54.6875 
L 18.109375 46.1875 
Q 21.1875 51.21875 25.484375 53.609375 
Q 29.78125 56 35.6875 56 
Q 41.65625 56 45.828125 52.96875 
Q 50 49.953125 52 44.1875 
z
" id="DejaVuSans-6d"/>
      <path d="M 56.203125 29.59375 
L 56.203125 25.203125 
L 14.890625 25.203125 
Q 15.484375 15.921875 20.484375 11.0625 
Q 25.484375 6.203125 34.421875 6.203125 
Q 39.59375 6.203125 44.453125 7.46875 
Q 49.3125 8.734375 54.109375 11.28125 
L 54.109375 2.78125 
Q 49.265625 0.734375 44.1875 -0.34375 
Q 39.109375 -1.421875 33.890625 -1.421875 
Q 20.796875 -1.421875 13.15625 6.1875 
Q 5.515625 13.8125 5.515625 26.8125 
Q 5.515625 40.234375 12.765625 48.109375 
Q 20.015625 56 32.328125 56 
Q 43.359375 56 49.78125 48.890625 
Q 56.203125 41.796875 56.203125 29.59375 
z
M 47.21875 32.234375 
Q 47.125 39.59375 43.09375 43.984375 
Q 39.0625 48.390625 32.421875 48.390625 
Q 24.90625 48.390625 20.390625 44.140625 
Q 15.875 39.890625 15.1875 32.171875 
z
" id="DejaVuSans-65"/>
     </defs>
     <g transform="translate(586.215625 537.936562)scale(0.1 -0.1)">
      <use xlink:href="#DejaVuSans-54"/>
      <use x="61.037109" xlink:href="#DejaVuSans-69"/>
      <use x="88.820312" xlink:href="#DejaVuSans-6d"/>
      <use x="186.232422" xlink:href="#DejaVuSans-65"/>
     </g>
    </g>
   </g>
   <g id="matplotlib.axis_2">
    <g id="ytick_1">
     <g id="line2d_6">
      <defs>
       <path d="M 0 0 
L -3.5 0 
" id="mea5796e647" style="stroke:#000000;stroke-width:0.8;"/>
      </defs>
      <g>
       <use style="stroke:#000000;stroke-width:0.8;" x="40.603125" xlink:href="#mea5796e647" y="486.98"/>
      </g>
     </g>
     <g id="text_7">
      <!-- 0 -->
      <g transform="translate(27.240625 490.779219)scale(0.1 -0.1)">
       <use xlink:href="#DejaVuSans-30"/>
      </g>
     </g>
    </g>
    <g id="ytick_2">
     <g id="line2d_7">
      <g>
       <use style="stroke:#000000;stroke-width:0.8;" x="40.603125" xlink:href="#mea5796e647" y="428.826154"/>
      </g>
     </g>
     <g id="text_8">
      <!-- 10 -->
      <g transform="translate(20.878125 432.625373)scale(0.1 -0.1)">
       <use xlink:href="#DejaVuSans-31"/>
       <use x="63.623047" xlink:href="#DejaVuSans-30"/>
      </g>
     </g>
    </g>
    <g id="ytick_3">
     <g id="line2d_8">
      <g>
       <use style="stroke:#000000;stroke-width:0.8;" x="40.603125" xlink:href="#mea5796e647" y="370.672308"/>
      </g>
     </g>
     <g id="text_9">
      <!-- 20 -->
      <g transform="translate(20.878125 374.471526)scale(0.1 -0.1)">
       <use xlink:href="#DejaVuSans-32"/>
       <use x="63.623047" xlink:href="#DejaVuSans-30"/>
      </g>
     </g>
    </g>
    <g id="ytick_4">
     <g id="line2d_9">
      <g>
       <use style="stroke:#000000;stroke-width:0.8;" x="40.603125" xlink:href="#mea5796e647" y="312.518462"/>
      </g>
     </g>
     <g id="text_10">
      <!-- 30 -->
      <defs>
       <path d="M 40.578125 39.3125 
Q 47.65625 37.796875 51.625 33 
Q 55.609375 28.21875 55.609375 21.1875 
Q 55.609375 10.40625 48.1875 4.484375 
Q 40.765625 -1.421875 27.09375 -1.421875 
Q 22.515625 -1.421875 17.65625 -0.515625 
Q 12.796875 0.390625 7.625 2.203125 
L 7.625 11.71875 
Q 11.71875 9.328125 16.59375 8.109375 
Q 21.484375 6.890625 26.8125 6.890625 
Q 36.078125 6.890625 40.9375 10.546875 
Q 45.796875 14.203125 45.796875 21.1875 
Q 45.796875 27.640625 41.28125 31.265625 
Q 36.765625 34.90625 28.71875 34.90625 
L 20.21875 34.90625 
L 20.21875 43.015625 
L 29.109375 43.015625 
Q 36.375 43.015625 40.234375 45.921875 
Q 44.09375 48.828125 44.09375 54.296875 
Q 44.09375 59.90625 40.109375 62.90625 
Q 36.140625 65.921875 28.71875 65.921875 
Q 24.65625 65.921875 20.015625 65.03125 
Q 15.375 64.15625 9.8125 62.3125 
L 9.8125 71.09375 
Q 15.4375 72.65625 20.34375 73.4375 
Q 25.25 74.21875 29.59375 74.21875 
Q 40.828125 74.21875 47.359375 69.109375 
Q 53.90625 64.015625 53.90625 55.328125 
Q 53.90625 49.265625 50.4375 45.09375 
Q 46.96875 40.921875 40.578125 39.3125 
z
" id="DejaVuSans-33"/>
      </defs>
      <g transform="translate(20.878125 316.31768)scale(0.1 -0.1)">
       <use xlink:href="#DejaVuSans-33"/>
       <use x="63.623047" xlink:href="#DejaVuSans-30"/>
      </g>
     </g>
    </g>
    <g id="ytick_5">
     <g id="line2d_10">
      <g>
       <use style="stroke:#000000;stroke-width:0.8;" x="40.603125" xlink:href="#mea5796e647" y="254.364615"/>
      </g>
     </g>
     <g id="text_11">
      <!-- 40 -->
      <defs>
       <path d="M 37.796875 64.3125 
L 12.890625 25.390625 
L 37.796875 25.390625 
z
M 35.203125 72.90625 
L 47.609375 72.90625 
L 47.609375 25.390625 
L 58.015625 25.390625 
L 58.015625 17.1875 
L 47.609375 17.1875 
L 47.609375 0 
L 37.796875 0 
L 37.796875 17.1875 
L 4.890625 17.1875 
L 4.890625 26.703125 
z
" id="DejaVuSans-34"/>
      </defs>
      <g transform="translate(20.878125 258.163834)scale(0.1 -0.1)">
       <use xlink:href="#DejaVuSans-34"/>
       <use x="63.623047" xlink:href="#DejaVuSans-30"/>
      </g>
     </g>
    </g>
    <g id="ytick_6">
     <g id="line2d_11">
      <g>
       <use style="stroke:#000000;stroke-width:0.8;" x="40.603125" xlink:href="#mea5796e647" y="196.210769"/>
      </g>
     </g>
     <g id="text_12">
      <!-- 50 -->
      <g transform="translate(20.878125 200.009988)scale(0.1 -0.1)">
       <use xlink:href="#DejaVuSans-35"/>
       <use x="63.623047" xlink:href="#DejaVuSans-30"/>
      </g>
     </g>
    </g>
    <g id="ytick_7">
     <g id="line2d_12">
      <g>
       <use style="stroke:#000000;stroke-width:0.8;" x="40.603125" xlink:href="#mea5796e647" y="138.056923"/>
      </g>
     </g>
     <g id="text_13">
      <!-- 60 -->
      <defs>
       <path d="M 33.015625 40.375 
Q 26.375 40.375 22.484375 35.828125 
Q 18.609375 31.296875 18.609375 23.390625 
Q 18.609375 15.53125 22.484375 10.953125 
Q 26.375 6.390625 33.015625 6.390625 
Q 39.65625 6.390625 43.53125 10.953125 
Q 47.40625 15.53125 47.40625 23.390625 
Q 47.40625 31.296875 43.53125 35.828125 
Q 39.65625 40.375 33.015625 40.375 
z
M 52.59375 71.296875 
L 52.59375 62.3125 
Q 48.875 64.0625 45.09375 64.984375 
Q 41.3125 65.921875 37.59375 65.921875 
Q 27.828125 65.921875 22.671875 59.328125 
Q 17.53125 52.734375 16.796875 39.40625 
Q 19.671875 43.65625 24.015625 45.921875 
Q 28.375 48.1875 33.59375 48.1875 
Q 44.578125 48.1875 50.953125 41.515625 
Q 57.328125 34.859375 57.328125 23.390625 
Q 57.328125 12.15625 50.6875 5.359375 
Q 44.046875 -1.421875 33.015625 -1.421875 
Q 20.359375 -1.421875 13.671875 8.265625 
Q 6.984375 17.96875 6.984375 36.375 
Q 6.984375 53.65625 15.1875 63.9375 
Q 23.390625 74.21875 37.203125 74.21875 
Q 40.921875 74.21875 44.703125 73.484375 
Q 48.484375 72.75 52.59375 71.296875 
z
" id="DejaVuSans-36"/>
      </defs>
      <g transform="translate(20.878125 141.856142)scale(0.1 -0.1)">
       <use xlink:href="#DejaVuSans-36"/>
       <use x="63.623047" xlink:href="#DejaVuSans-30"/>
      </g>
     </g>
    </g>
    <g id="ytick_8">
     <g id="line2d_13">
      <g>
       <use style="stroke:#000000;stroke-width:0.8;" x="40.603125" xlink:href="#mea5796e647" y="79.903077"/>
      </g>
     </g>
     <g id="text_14">
      <!-- 70 -->
      <defs>
       <path d="M 8.203125 72.90625 
L 55.078125 72.90625 
L 55.078125 68.703125 
L 28.609375 0 
L 18.3125 0 
L 43.21875 64.59375 
L 8.203125 64.59375 
z
" id="DejaVuSans-37"/>
      </defs>
      <g transform="translate(20.878125 83.702296)scale(0.1 -0.1)">
       <use xlink:href="#DejaVuSans-37"/>
       <use x="63.623047" xlink:href="#DejaVuSans-30"/>
      </g>
     </g>
    </g>
    <g id="ytick_9">
     <g id="line2d_14">
      <g>
       <use style="stroke:#000000;stroke-width:0.8;" x="40.603125" xlink:href="#mea5796e647" y="21.749231"/>
      </g>
     </g>
     <g id="text_15">
      <!-- 80 -->
      <defs>
       <path d="M 31.78125 34.625 
Q 24.75 34.625 20.71875 30.859375 
Q 16.703125 27.09375 16.703125 20.515625 
Q 16.703125 13.921875 20.71875 10.15625 
Q 24.75 6.390625 31.78125 6.390625 
Q 38.8125 6.390625 42.859375 10.171875 
Q 46.921875 13.96875 46.921875 20.515625 
Q 46.921875 27.09375 42.890625 30.859375 
Q 38.875 34.625 31.78125 34.625 
z
M 21.921875 38.8125 
Q 15.578125 40.375 12.03125 44.71875 
Q 8.5 49.078125 8.5 55.328125 
Q 8.5 64.0625 14.71875 69.140625 
Q 20.953125 74.21875 31.78125 74.21875 
Q 42.671875 74.21875 48.875 69.140625 
Q 55.078125 64.0625 55.078125 55.328125 
Q 55.078125 49.078125 51.53125 44.71875 
Q 48 40.375 41.703125 38.8125 
Q 48.828125 37.15625 52.796875 32.3125 
Q 56.78125 27.484375 56.78125 20.515625 
Q 56.78125 9.90625 50.3125 4.234375 
Q 43.84375 -1.421875 31.78125 -1.421875 
Q 19.734375 -1.421875 13.25 4.234375 
Q 6.78125 9.90625 6.78125 20.515625 
Q 6.78125 27.484375 10.78125 32.3125 
Q 14.796875 37.15625 21.921875 38.8125 
z
M 18.3125 54.390625 
Q 18.3125 48.734375 21.84375 45.5625 
Q 25.390625 42.390625 31.78125 42.390625 
Q 38.140625 42.390625 41.71875 45.5625 
Q 45.3125 48.734375 45.3125 54.390625 
Q 45.3125 60.0625 41.71875 63.234375 
Q 38.140625 66.40625 31.78125 66.40625 
Q 25.390625 66.40625 21.84375 63.234375 
Q 18.3125 60.0625 18.3125 54.390625 
z
" id="DejaVuSans-38"/>
      </defs>
      <g transform="translate(20.878125 25.54845)scale(0.1 -0.1)">
       <use xlink:href="#DejaVuSans-38"/>
       <use x="63.623047" xlink:href="#DejaVuSans-30"/>
      </g>
     </g>
    </g>
    <g id="text_16">
     <!-- Refugees -->
     <defs>
      <path d="M 44.390625 34.1875 
Q 47.5625 33.109375 50.5625 29.59375 
Q 53.5625 26.078125 56.59375 19.921875 
L 66.609375 0 
L 56 0 
L 46.6875 18.703125 
Q 43.0625 26.03125 39.671875 28.421875 
Q 36.28125 30.8125 30.421875 30.8125 
L 19.671875 30.8125 
L 19.671875 0 
L 9.8125 0 
L 9.8125 72.90625 
L 32.078125 72.90625 
Q 44.578125 72.90625 50.734375 67.671875 
Q 56.890625 62.453125 56.890625 51.90625 
Q 56.890625 45.015625 53.6875 40.46875 
Q 50.484375 35.9375 44.390625 34.1875 
z
M 19.671875 64.796875 
L 19.671875 38.921875 
L 32.078125 38.921875 
Q 39.203125 38.921875 42.84375 42.21875 
Q 46.484375 45.515625 46.484375 51.90625 
Q 46.484375 58.296875 42.84375 61.546875 
Q 39.203125 64.796875 32.078125 64.796875 
z
" id="DejaVuSans-52"/>
      <path d="M 37.109375 75.984375 
L 37.109375 68.5 
L 28.515625 68.5 
Q 23.6875 68.5 21.796875 66.546875 
Q 19.921875 64.59375 19.921875 59.515625 
L 19.921875 54.6875 
L 34.71875 54.6875 
L 34.71875 47.703125 
L 19.921875 47.703125 
L 19.921875 0 
L 10.890625 0 
L 10.890625 47.703125 
L 2.296875 47.703125 
L 2.296875 54.6875 
L 10.890625 54.6875 
L 10.890625 58.5 
Q 10.890625 67.625 15.140625 71.796875 
Q 19.390625 75.984375 28.609375 75.984375 
z
" id="DejaVuSans-66"/>
      <path d="M 8.5 21.578125 
L 8.5 54.6875 
L 17.484375 54.6875 
L 17.484375 21.921875 
Q 17.484375 14.15625 20.5 10.265625 
Q 23.53125 6.390625 29.59375 6.390625 
Q 36.859375 6.390625 41.078125 11.03125 
Q 45.3125 15.671875 45.3125 23.6875 
L 45.3125 54.6875 
L 54.296875 54.6875 
L 54.296875 0 
L 45.3125 0 
L 45.3125 8.40625 
Q 42.046875 3.421875 37.71875 1 
Q 33.40625 -1.421875 27.6875 -1.421875 
Q 18.265625 -1.421875 13.375 4.4375 
Q 8.5 10.296875 8.5 21.578125 
z
M 31.109375 56 
z
" id="DejaVuSans-75"/>
      <path d="M 45.40625 27.984375 
Q 45.40625 37.75 41.375 43.109375 
Q 37.359375 48.484375 30.078125 48.484375 
Q 22.859375 48.484375 18.828125 43.109375 
Q 14.796875 37.75 14.796875 27.984375 
Q 14.796875 18.265625 18.828125 12.890625 
Q 22.859375 7.515625 30.078125 7.515625 
Q 37.359375 7.515625 41.375 12.890625 
Q 45.40625 18.265625 45.40625 27.984375 
z
M 54.390625 6.78125 
Q 54.390625 -7.171875 48.1875 -13.984375 
Q 42 -20.796875 29.203125 -20.796875 
Q 24.46875 -20.796875 20.265625 -20.09375 
Q 16.0625 -19.390625 12.109375 -17.921875 
L 12.109375 -9.1875 
Q 16.0625 -11.328125 19.921875 -12.34375 
Q 23.78125 -13.375 27.78125 -13.375 
Q 36.625 -13.375 41.015625 -8.765625 
Q 45.40625 -4.15625 45.40625 5.171875 
L 45.40625 9.625 
Q 42.625 4.78125 38.28125 2.390625 
Q 33.9375 0 27.875 0 
Q 17.828125 0 11.671875 7.65625 
Q 5.515625 15.328125 5.515625 27.984375 
Q 5.515625 40.671875 11.671875 48.328125 
Q 17.828125 56 27.875 56 
Q 33.9375 56 38.28125 53.609375 
Q 42.625 51.21875 45.40625 46.390625 
L 45.40625 54.6875 
L 54.390625 54.6875 
z
" id="DejaVuSans-67"/>
      <path d="M 44.28125 53.078125 
L 44.28125 44.578125 
Q 40.484375 46.53125 36.375 47.5 
Q 32.28125 48.484375 27.875 48.484375 
Q 21.1875 48.484375 17.84375 46.4375 
Q 14.5 44.390625 14.5 40.28125 
Q 14.5 37.15625 16.890625 35.375 
Q 19.28125 33.59375 26.515625 31.984375 
L 29.59375 31.296875 
Q 39.15625 29.25 43.1875 25.515625 
Q 47.21875 21.78125 47.21875 15.09375 
Q 47.21875 7.46875 41.1875 3.015625 
Q 35.15625 -1.421875 24.609375 -1.421875 
Q 20.21875 -1.421875 15.453125 -0.5625 
Q 10.6875 0.296875 5.421875 2 
L 5.421875 11.28125 
Q 10.40625 8.6875 15.234375 7.390625 
Q 20.0625 6.109375 24.8125 6.109375 
Q 31.15625 6.109375 34.5625 8.28125 
Q 37.984375 10.453125 37.984375 14.40625 
Q 37.984375 18.0625 35.515625 20.015625 
Q 33.0625 21.96875 24.703125 23.78125 
L 21.578125 24.515625 
Q 13.234375 26.265625 9.515625 29.90625 
Q 5.8125 33.546875 5.8125 39.890625 
Q 5.8125 47.609375 11.28125 51.796875 
Q 16.75 56 26.8125 56 
Q 31.78125 56 36.171875 55.265625 
Q 40.578125 54.546875 44.28125 53.078125 
z
" id="DejaVuSans-73"/>
     </defs>
     <g style="fill:#ff7f0e;" transform="translate(14.798438 283.588594)rotate(-90)scale(0.1 -0.1)">
      <use xlink:href="#DejaVuSans-52"/>
      <use x="69.419922" xlink:href="#DejaVuSans-65"/>
      <use x="130.943359" xlink:href="#DejaVuSans-66"/>
      <use x="166.148438" xlink:href="#DejaVuSans-75"/>
      <use x="229.527344" xlink:href="#DejaVuSans-67"/>
      <use x="293.003906" xlink:href="#DejaVuSans-65"/>
      <use x="354.527344" xlink:href="#DejaVuSans-65"/>
      <use x="416.050781" xlink:href="#DejaVuSans-73"/>
     </g>
    </g>
   </g>
   <g id="line2d_15">
    <path clip-path="url(#pa8e4702361)" d="M 91.330398 457.955922 
L 96.184682 449.03957 
L 101.038967 456.787622 
L 105.893251 484.003685 
L 110.747536 481.379334 
L 115.60182 426.464114 
L 120.456105 281.989423 
L 125.310389 265.914058 
L 130.164673 271.550796 
L 135.018958 298.198911 
L 139.873242 300.933979 
L 144.727527 245.39716 
L 149.581811 372.197553 
L 154.436096 356.513912 
L 159.29038 361.582375 
L 164.144665 388.785211 
L 168.998949 390.511775 
L 173.853234 336.603301 
L 178.707518 312.240264 
L 183.561803 296.296262 
L 188.416087 301.74235 
L 193.270372 328.5766 
L 198.124656 330.973463 
L 202.978941 275.982679 
L 207.833225 273.540095 
L 212.68751 257.42795 
L 217.541794 263.117862 
L 222.396078 289.714134 
L 227.250363 292.543672 
L 232.104647 236.854306 
L 236.958932 326.66511 
L 241.813216 310.783789 
L 246.667501 316.139046 
L 251.521785 343.061865 
L 256.37607 345.297472 
L 261.230354 290.567084 
L 266.084639 313.134409 
L 270.938923 297.194267 
L 275.793208 302.634777 
L 280.647492 329.474461 
L 285.501777 331.861319 
L 290.356061 276.886675 
L 295.210346 130.631296 
L 300.06463 113.898488 
L 304.918914 120.488735 
L 309.773199 146.206368 
L 314.627483 150.63346 
L 319.481768 92.364368 
L 324.336052 247.787923 
L 329.190337 231.563992 
L 334.044621 237.416114 
L 338.898906 263.854081 
L 343.75319 266.971478 
L 348.607475 210.817202 
L 353.461759 282.171775 
L 358.316044 266.097187 
L 363.170328 271.732726 
L 368.024613 298.382062 
L 372.878897 301.115067 
L 377.733182 245.581531 
L 382.587466 325.040027 
L 387.44175 309.151617 
L 392.296035 314.517112 
L 397.150319 341.429937 
L 402.004604 343.683724 
L 406.858888 288.924053 
L 411.713173 475.444783 
L 416.567457 486.98 
L 431.130311 486.98 
L 440.83888 388.720689 
L 445.693164 373.108847 
L 450.547449 378.0732 
L 455.401733 405.377527 
L 460.256018 406.919438 
L 465.110302 353.309233 
L 469.964587 369.851314 
L 474.818871 354.157524 
L 479.673155 359.240772 
L 484.52744 386.4291 
L 489.381724 388.181919 
L 494.236009 334.231096 
L 499.090293 381.27331 
L 503.944578 365.629112 
L 508.798862 370.640396 
L 513.653147 397.89898 
L 518.507431 399.524086 
L 523.361716 345.779452 
L 528.216 388.412931 
L 533.070285 372.799769 
L 537.924569 377.766041 
L 542.778854 405.068511 
L 547.633138 406.613832 
L 552.487423 352.99807 
L 557.341707 377.487677 
L 562.195991 361.827019 
L 567.050276 366.862106 
L 571.90456 394.097442 
L 576.758845 395.764913 
L 581.613129 341.951914 
L 586.467414 374.5845 
L 591.321698 358.911286 
L 596.175983 363.964708 
L 601.030267 391.182096 
L 605.884552 392.882028 
L 610.738836 339.016647 
L 615.593121 263.555219 
L 620.447405 247.399704 
L 625.30169 253.152596 
L 630.155974 279.68744 
L 635.010259 282.62852 
L 639.864543 226.758953 
L 644.718827 275.88385 
L 649.573112 259.781954 
L 654.427396 265.457114 
L 659.281681 292.067783 
L 664.135965 294.871011 
L 668.99025 239.223993 
L 673.844534 274.753845 
L 678.698819 258.647046 
L 683.553103 264.329371 
L 688.407388 290.933052 
L 693.261672 293.748947 
L 698.115957 238.081521 
L 702.970241 375.008135 
L 707.824526 359.336718 
L 712.67881 364.3875 
L 717.533095 391.60755 
L 722.387379 393.302724 
L 727.241663 339.444963 
L 732.095948 313.777 
L 736.950232 297.839687 
L 741.804517 303.276114 
L 746.658801 330.119781 
L 751.513086 332.499451 
L 756.36737 277.53642 
L 766.075939 244.912708 
L 770.930224 250.681129 
L 775.784508 277.200777 
L 780.638793 280.169542 
L 785.493077 224.255208 
L 790.347362 413.425114 
L 795.201646 397.920559 
L 800.055931 402.72932 
L 804.910215 430.185508 
L 809.7645 431.451217 
L 814.618784 378.286964 
L 819.473068 350.578191 
L 824.327353 334.800713 
L 829.181637 340.005307 
L 834.035922 367.075194 
L 838.890206 369.043453 
L 843.744491 314.744741 
L 848.598775 378.807022 
L 853.45306 363.152121 
L 858.307344 368.178967 
L 863.161629 395.422349 
L 868.015913 397.075047 
L 872.870198 343.285867 
L 877.724482 357.663229 
L 882.578767 341.91653 
L 887.433051 347.076524 
L 892.287336 374.189958 
L 897.14162 376.079009 
L 901.995904 321.908177 
L 906.850189 378.844203 
L 911.704473 363.189501 
L 916.558758 368.216036 
L 921.413042 395.459674 
L 926.267327 397.111949 
L 931.121611 343.323469 
L 935.975896 348.041946 
L 940.83018 332.253387 
L 945.684465 337.47402 
L 950.538749 364.52829 
L 955.393034 366.524977 
L 960.247318 312.180434 
L 965.101603 383.028591 
L 969.955887 367.392003 
L 974.810172 372.392261 
L 979.664456 399.661604 
L 984.51874 401.267089 
L 989.373025 347.554155 
L 994.227309 376.851487 
L 999.081594 361.188045 
L 1003.935878 366.227213 
L 1008.790163 393.458589 
L 1013.644447 395.133154 
L 1018.498732 341.308691 
L 1023.353016 297.764283 
L 1028.207301 281.757445 
L 1033.061585 287.294688 
L 1037.91587 314.039869 
L 1042.770154 316.598608 
L 1047.624439 261.34652 
L 1052.478723 367.247486 
L 1057.333008 351.542405 
L 1062.187292 356.641969 
L 1067.041577 383.814346 
L 1071.895861 385.596271 
L 1076.750145 331.598473 
L 1081.60443 370.69955 
L 1086.458714 355.009398 
L 1091.312999 360.087278 
L 1096.167283 387.280885 
L 1101.021568 389.024231 
L 1105.875852 335.088704 
L 1105.875852 335.088704 
" style="fill:none;stroke:#008000;stroke-dasharray:5.55,2.4;stroke-dashoffset:0;stroke-width:1.5;"/>
   </g>
   <g id="line2d_16">
    <path clip-path="url(#pa8e4702361)" d="M 91.330398 399.749231 
L 96.184682 324.149231 
L 101.038967 335.78 
L 105.893251 265.995385 
L 110.747536 318.333846 
L 115.60182 254.364615 
L 120.456105 318.333846 
L 130.164673 306.703077 
L 135.018958 353.226154 
L 139.873242 347.410769 
L 144.727527 411.38 
L 149.581811 347.410769 
L 154.436096 405.564615 
L 159.29038 364.856923 
L 164.144665 388.118462 
L 168.998949 353.226154 
L 178.707518 236.918462 
L 183.561803 236.918462 
L 188.416087 254.364615 
L 193.270372 318.333846 
L 198.124656 167.133846 
L 202.978941 283.441538 
L 207.833225 329.964615 
L 212.68751 283.441538 
L 217.541794 306.703077 
L 222.396078 248.549231 
L 232.104647 283.441538 
L 236.958932 236.918462 
L 241.813216 254.364615 
L 246.667501 277.626154 
L 251.521785 242.733846 
L 256.37607 271.810769 
L 261.230354 324.149231 
L 266.084639 236.918462 
L 270.938923 178.764615 
L 275.793208 225.287692 
L 280.647492 190.395385 
L 285.501777 33.38 
L 290.356061 126.426154 
L 295.210346 33.38 
L 300.06463 103.164615 
L 304.918914 85.718462 
L 309.773199 300.887692 
L 314.627483 254.364615 
L 319.481768 260.18 
L 324.336052 295.072308 
L 329.190337 213.656923 
L 334.044621 318.333846 
L 338.898906 271.810769 
L 343.75319 306.703077 
L 348.607475 300.887692 
L 353.461759 306.703077 
L 363.170328 225.287692 
L 368.024613 347.410769 
L 372.878897 242.733846 
L 377.733182 312.518462 
L 382.587466 300.887692 
L 387.44175 306.703077 
L 392.296035 242.733846 
L 397.150319 376.487692 
L 402.004604 446.272308 
L 406.858888 405.564615 
L 411.713173 335.78 
L 416.567457 359.041538 
L 421.421742 353.226154 
L 426.276026 370.672308 
L 431.130311 382.303077 
L 435.984595 388.118462 
L 440.83888 364.856923 
L 445.693164 370.672308 
L 450.547449 347.410769 
L 455.401733 376.487692 
L 465.110302 341.595385 
L 469.964587 353.226154 
L 474.818871 353.226154 
L 479.673155 399.749231 
L 484.52744 388.118462 
L 489.381724 364.856923 
L 494.236009 364.856923 
L 499.090293 388.118462 
L 503.944578 393.933846 
L 508.798862 364.856923 
L 513.653147 393.933846 
L 518.507431 335.78 
L 523.361716 399.749231 
L 528.216 335.78 
L 533.070285 388.118462 
L 537.924569 260.18 
L 542.778854 329.964615 
L 547.633138 347.410769 
L 552.487423 376.487692 
L 557.341707 382.303077 
L 562.195991 359.041538 
L 567.050276 359.041538 
L 571.90456 364.856923 
L 576.758845 353.226154 
L 581.613129 359.041538 
L 586.467414 341.595385 
L 591.321698 335.78 
L 596.175983 283.441538 
L 601.030267 364.856923 
L 605.884552 248.549231 
L 610.738836 271.810769 
L 615.593121 207.841538 
L 620.447405 254.364615 
L 625.30169 289.256923 
L 630.155974 260.18 
L 635.010259 283.441538 
L 639.864543 271.810769 
L 644.718827 202.026154 
L 649.573112 242.733846 
L 654.427396 254.364615 
L 659.281681 178.764615 
L 664.135965 271.810769 
L 668.99025 213.656923 
L 673.844534 242.733846 
L 678.698819 289.256923 
L 683.553103 312.518462 
L 688.407388 289.256923 
L 693.261672 289.256923 
L 698.115957 324.149231 
L 702.970241 353.226154 
L 707.824526 295.072308 
L 712.67881 353.226154 
L 717.533095 265.995385 
L 722.387379 353.226154 
L 727.241663 277.626154 
L 732.095948 324.149231 
L 736.950232 329.964615 
L 741.804517 242.733846 
L 746.658801 335.78 
L 751.513086 318.333846 
L 756.36737 260.18 
L 761.221655 329.964615 
L 766.075939 359.041538 
L 770.930224 359.041538 
L 775.784508 417.195385 
L 780.638793 312.518462 
L 785.493077 393.933846 
L 790.347362 370.672308 
L 795.201646 341.595385 
L 800.055931 300.887692 
L 804.910215 428.826154 
L 814.618784 335.78 
L 819.473068 306.703077 
L 824.327353 417.195385 
L 829.181637 388.118462 
L 834.035922 393.933846 
L 838.890206 359.041538 
L 843.744491 300.887692 
L 848.598775 423.010769 
L 853.45306 359.041538 
L 858.307344 417.195385 
L 863.161629 335.78 
L 868.015913 335.78 
L 872.870198 359.041538 
L 877.724482 329.964615 
L 882.578767 370.672308 
L 887.433051 388.118462 
L 892.287336 359.041538 
L 897.14162 318.333846 
L 901.995904 370.672308 
L 906.850189 324.149231 
L 911.704473 423.010769 
L 916.558758 347.410769 
L 921.413042 335.78 
L 926.267327 335.78 
L 931.121611 370.672308 
L 935.975896 306.703077 
L 940.83018 329.964615 
L 945.684465 312.518462 
L 950.538749 370.672308 
L 955.393034 353.226154 
L 960.247318 359.041538 
L 965.101603 295.072308 
L 969.955887 359.041538 
L 974.810172 283.441538 
L 979.664456 364.856923 
L 984.51874 295.072308 
L 989.373025 347.410769 
L 994.227309 271.810769 
L 999.081594 312.518462 
L 1003.935878 295.072308 
L 1008.790163 329.964615 
L 1013.644447 254.364615 
L 1018.498732 254.364615 
L 1023.353016 190.395385 
L 1028.207301 231.103077 
L 1033.061585 242.733846 
L 1042.770154 324.149231 
L 1047.624439 283.441538 
L 1052.478723 295.072308 
L 1057.333008 347.410769 
L 1062.187292 417.195385 
L 1067.041577 295.072308 
L 1071.895861 324.149231 
L 1076.750145 341.595385 
L 1081.60443 341.595385 
L 1086.458714 353.226154 
L 1091.312999 335.78 
L 1096.167283 190.395385 
L 1101.021568 382.303077 
L 1105.875852 312.518462 
L 1105.875852 312.518462 
" style="fill:none;stroke:#ff7f0e;stroke-linecap:square;stroke-width:1.5;"/>
   </g>
   <g id="line2d_17">
    <defs>
     <path d="M 0 3 
C 0.795609 3 1.55874 2.683901 2.12132 2.12132 
C 2.683901 1.55874 3 0.795609 3 0 
C 3 -0.795609 2.683901 -1.55874 2.12132 -2.12132 
C 1.55874 -2.683901 0.795609 -3 0 -3 
C -0.795609 -3 -1.55874 -2.683901 -2.12132 -2.12132 
C -2.683901 -1.55874 -3 -0.795609 -3 0 
C -3 0.795609 -2.683901 1.55874 -2.12132 2.12132 
C -1.55874 2.683901 -0.795609 3 0 3 
z
" id="m6215310275" style="stroke:#008000;"/>
    </defs>
    <g clip-path="url(#pa8e4702361)">
     <use style="fill:#008000;stroke:#008000;" x="91.330398" xlink:href="#m6215310275" y="457.955922"/>
     <use style="fill:#008000;stroke:#008000;" x="120.456105" xlink:href="#m6215310275" y="281.989423"/>
     <use style="fill:#008000;stroke:#008000;" x="149.581811" xlink:href="#m6215310275" y="372.197553"/>
     <use style="fill:#008000;stroke:#008000;" x="178.707518" xlink:href="#m6215310275" y="312.240264"/>
     <use style="fill:#008000;stroke:#008000;" x="207.833225" xlink:href="#m6215310275" y="273.540095"/>
     <use style="fill:#008000;stroke:#008000;" x="236.958932" xlink:href="#m6215310275" y="326.66511"/>
     <use style="fill:#008000;stroke:#008000;" x="266.084639" xlink:href="#m6215310275" y="313.134409"/>
     <use style="fill:#008000;stroke:#008000;" x="295.210346" xlink:href="#m6215310275" y="130.631296"/>
     <use style="fill:#008000;stroke:#008000;" x="324.336052" xlink:href="#m6215310275" y="247.787923"/>
     <use style="fill:#008000;stroke:#008000;" x="353.461759" xlink:href="#m6215310275" y="282.171775"/>
     <use style="fill:#008000;stroke:#008000;" x="382.587466" xlink:href="#m6215310275" y="325.040027"/>
     <use style="fill:#008000;stroke:#008000;" x="411.713173" xlink:href="#m6215310275" y="475.444783"/>
     <use style="fill:#008000;stroke:#008000;" x="440.83888" xlink:href="#m6215310275" y="388.720689"/>
     <use style="fill:#008000;stroke:#008000;" x="469.964587" xlink:href="#m6215310275" y="369.851314"/>
     <use style="fill:#008000;stroke:#008000;" x="499.090293" xlink:href="#m6215310275" y="381.27331"/>
     <use style="fill:#008000;stroke:#008000;" x="528.216" xlink:href="#m6215310275" y="388.412931"/>
     <use style="fill:#008000;stroke:#008000;" x="557.341707" xlink:href="#m6215310275" y="377.487677"/>
     <use style="fill:#008000;stroke:#008000;" x="586.467414" xlink:href="#m6215310275" y="374.5845"/>
     <use style="fill:#008000;stroke:#008000;" x="615.593121" xlink:href="#m6215310275" y="263.555219"/>
     <use style="fill:#008000;stroke:#008000;" x="644.718827" xlink:href="#m6215310275" y="275.88385"/>
     <use style="fill:#008000;stroke:#008000;" x="673.844534" xlink:href="#m6215310275" y="274.753845"/>
     <use style="fill:#008000;stroke:#008000;" x="702.970241" xlink:href="#m6215310275" y="375.008135"/>
     <use style="fill:#008000;stroke:#008000;" x="732.095948" xlink:href="#m6215310275" y="313.777"/>
     <use style="fill:#008000;stroke:#008000;" x="761.221655" xlink:href="#m6215310275" y="261.078871"/>
     <use style="fill:#008000;stroke:#008000;" x="790.347362" xlink:href="#m6215310275" y="413.425114"/>
     <use style="fill:#008000;stroke:#008000;" x="819.473068" xlink:href="#m6215310275" y="350.578191"/>
     <use style="fill:#008000;stroke:#008000;" x="848.598775" xlink:href="#m6215310275" y="378.807022"/>
     <use style="fill:#008000;stroke:#008000;" x="877.724482" xlink:href="#m6215310275" y="357.663229"/>
     <use style="fill:#008000;stroke:#008000;" x="906.850189" xlink:href="#m6215310275" y="378.844203"/>
     <use style="fill:#008000;stroke:#008000;" x="935.975896" xlink:href="#m6215310275" y="348.041946"/>
     <use style="fill:#008000;stroke:#008000;" x="965.101603" xlink:href="#m6215310275" y="383.028591"/>
     <use style="fill:#008000;stroke:#008000;" x="994.227309" xlink:href="#m6215310275" y="376.851487"/>
     <use style="fill:#008000;stroke:#008000;" x="1023.353016" xlink:href="#m6215310275" y="297.764283"/>
     <use style="fill:#008000;stroke:#008000;" x="1052.478723" xlink:href="#m6215310275" y="367.247486"/>
     <use style="fill:#008000;stroke:#008000;" x="1081.60443" xlink:href="#m6215310275" y="370.69955"/>
    </g>
   </g>
   <g id="patch_3">
    <path d="M 40.603125 509.66 
L 40.603125 10.7 
" style="fill:none;stroke:#000000;stroke-linecap:square;stroke-linejoin:miter;stroke-width:0.8;"/>
   </g>
   <g id="patch_4">
    <path d="M 1156.603125 509.66 
L 1156.603125 10.7 
" style="fill:none;stroke:#000000;stroke-linecap:square;stroke-linejoin:miter;stroke-width:0.8;"/>
   </g>
   <g id="patch_5">
    <path d="M 40.603125 509.66 
L 1156.603125 509.66 
" style="fill:none;stroke:#000000;stroke-linecap:square;stroke-linejoin:miter;stroke-width:0.8;"/>
   </g>
   <g id="patch_6">
    <path d="M 40.603125 10.7 
L 1156.603125 10.7 
" style="fill:none;stroke:#000000;stroke-linecap:square;stroke-linejoin:miter;stroke-width:0.8;"/>
   </g>
   <g id="legend_1">
    <g id="patch_7">
     <path d="M 47.603125 62.734375 
L 195.378125 62.734375 
Q 197.378125 62.734375 197.378125 60.734375 
L 197.378125 17.7 
Q 197.378125 15.7 195.378125 15.7 
L 47.603125 15.7 
Q 45.603125 15.7 45.603125 17.7 
L 45.603125 60.734375 
Q 45.603125 62.734375 47.603125 62.734375 
z
" style="fill:#ffffff;opacity:0.8;stroke:#cccccc;stroke-linejoin:miter;"/>
    </g>
    <g id="line2d_18">
     <path d="M 49.603125 23.798437 
L 69.603125 23.798437 
" style="fill:none;stroke:#008000;stroke-dasharray:5.55,2.4;stroke-dashoffset:0;stroke-width:1.5;"/>
    </g>
    <g id="line2d_19"/>
    <g id="text_17">
     <!-- Predicted -->
     <defs>
      <path d="M 19.671875 64.796875 
L 19.671875 37.40625 
L 32.078125 37.40625 
Q 38.96875 37.40625 42.71875 40.96875 
Q 46.484375 44.53125 46.484375 51.125 
Q 46.484375 57.671875 42.71875 61.234375 
Q 38.96875 64.796875 32.078125 64.796875 
z
M 9.8125 72.90625 
L 32.078125 72.90625 
Q 44.34375 72.90625 50.609375 67.359375 
Q 56.890625 61.8125 56.890625 51.125 
Q 56.890625 40.328125 50.609375 34.8125 
Q 44.34375 29.296875 32.078125 29.296875 
L 19.671875 29.296875 
L 19.671875 0 
L 9.8125 0 
z
" id="DejaVuSans-50"/>
      <path d="M 41.109375 46.296875 
Q 39.59375 47.171875 37.8125 47.578125 
Q 36.03125 48 33.890625 48 
Q 26.265625 48 22.1875 43.046875 
Q 18.109375 38.09375 18.109375 28.8125 
L 18.109375 0 
L 9.078125 0 
L 9.078125 54.6875 
L 18.109375 54.6875 
L 18.109375 46.1875 
Q 20.953125 51.171875 25.484375 53.578125 
Q 30.03125 56 36.53125 56 
Q 37.453125 56 38.578125 55.875 
Q 39.703125 55.765625 41.0625 55.515625 
z
" id="DejaVuSans-72"/>
      <path d="M 45.40625 46.390625 
L 45.40625 75.984375 
L 54.390625 75.984375 
L 54.390625 0 
L 45.40625 0 
L 45.40625 8.203125 
Q 42.578125 3.328125 38.25 0.953125 
Q 33.9375 -1.421875 27.875 -1.421875 
Q 17.96875 -1.421875 11.734375 6.484375 
Q 5.515625 14.40625 5.515625 27.296875 
Q 5.515625 40.1875 11.734375 48.09375 
Q 17.96875 56 27.875 56 
Q 33.9375 56 38.25 53.625 
Q 42.578125 51.265625 45.40625 46.390625 
z
M 14.796875 27.296875 
Q 14.796875 17.390625 18.875 11.75 
Q 22.953125 6.109375 30.078125 6.109375 
Q 37.203125 6.109375 41.296875 11.75 
Q 45.40625 17.390625 45.40625 27.296875 
Q 45.40625 37.203125 41.296875 42.84375 
Q 37.203125 48.484375 30.078125 48.484375 
Q 22.953125 48.484375 18.875 42.84375 
Q 14.796875 37.203125 14.796875 27.296875 
z
" id="DejaVuSans-64"/>
      <path d="M 48.78125 52.59375 
L 48.78125 44.1875 
Q 44.96875 46.296875 41.140625 47.34375 
Q 37.3125 48.390625 33.40625 48.390625 
Q 24.65625 48.390625 19.8125 42.84375 
Q 14.984375 37.3125 14.984375 27.296875 
Q 14.984375 17.28125 19.8125 11.734375 
Q 24.65625 6.203125 33.40625 6.203125 
Q 37.3125 6.203125 41.140625 7.25 
Q 44.96875 8.296875 48.78125 10.40625 
L 48.78125 2.09375 
Q 45.015625 0.34375 40.984375 -0.53125 
Q 36.96875 -1.421875 32.421875 -1.421875 
Q 20.0625 -1.421875 12.78125 6.34375 
Q 5.515625 14.109375 5.515625 27.296875 
Q 5.515625 40.671875 12.859375 48.328125 
Q 20.21875 56 33.015625 56 
Q 37.15625 56 41.109375 55.140625 
Q 45.0625 54.296875 48.78125 52.59375 
z
" id="DejaVuSans-63"/>
      <path d="M 18.3125 70.21875 
L 18.3125 54.6875 
L 36.8125 54.6875 
L 36.8125 47.703125 
L 18.3125 47.703125 
L 18.3125 18.015625 
Q 18.3125 11.328125 20.140625 9.421875 
Q 21.96875 7.515625 27.59375 7.515625 
L 36.8125 7.515625 
L 36.8125 0 
L 27.59375 0 
Q 17.1875 0 13.234375 3.875 
Q 9.28125 7.765625 9.28125 18.015625 
L 9.28125 47.703125 
L 2.6875 47.703125 
L 2.6875 54.6875 
L 9.28125 54.6875 
L 9.28125 70.21875 
z
" id="DejaVuSans-74"/>
     </defs>
     <g transform="translate(77.603125 27.298437)scale(0.1 -0.1)">
      <use xlink:href="#DejaVuSans-50"/>
      <use x="60.287109" xlink:href="#DejaVuSans-72"/>
      <use x="101.369141" xlink:href="#DejaVuSans-65"/>
      <use x="162.892578" xlink:href="#DejaVuSans-64"/>
      <use x="226.369141" xlink:href="#DejaVuSans-69"/>
      <use x="254.152344" xlink:href="#DejaVuSans-63"/>
      <use x="309.132812" xlink:href="#DejaVuSans-74"/>
      <use x="348.341797" xlink:href="#DejaVuSans-65"/>
      <use x="409.865234" xlink:href="#DejaVuSans-64"/>
     </g>
    </g>
    <g id="line2d_20">
     <path d="M 49.603125 38.476562 
L 69.603125 38.476562 
" style="fill:none;stroke:#ff7f0e;stroke-linecap:square;stroke-width:1.5;"/>
    </g>
    <g id="line2d_21"/>
    <g id="text_18">
     <!-- Real Data -->
     <defs>
      <path d="M 34.28125 27.484375 
Q 23.390625 27.484375 19.1875 25 
Q 14.984375 22.515625 14.984375 16.5 
Q 14.984375 11.71875 18.140625 8.90625 
Q 21.296875 6.109375 26.703125 6.109375 
Q 34.1875 6.109375 38.703125 11.40625 
Q 43.21875 16.703125 43.21875 25.484375 
L 43.21875 27.484375 
z
M 52.203125 31.203125 
L 52.203125 0 
L 43.21875 0 
L 43.21875 8.296875 
Q 40.140625 3.328125 35.546875 0.953125 
Q 30.953125 -1.421875 24.3125 -1.421875 
Q 15.921875 -1.421875 10.953125 3.296875 
Q 6 8.015625 6 15.921875 
Q 6 25.140625 12.171875 29.828125 
Q 18.359375 34.515625 30.609375 34.515625 
L 43.21875 34.515625 
L 43.21875 35.40625 
Q 43.21875 41.609375 39.140625 45 
Q 35.0625 48.390625 27.6875 48.390625 
Q 23 48.390625 18.546875 47.265625 
Q 14.109375 46.140625 10.015625 43.890625 
L 10.015625 52.203125 
Q 14.9375 54.109375 19.578125 55.046875 
Q 24.21875 56 28.609375 56 
Q 40.484375 56 46.34375 49.84375 
Q 52.203125 43.703125 52.203125 31.203125 
z
" id="DejaVuSans-61"/>
      <path d="M 9.421875 75.984375 
L 18.40625 75.984375 
L 18.40625 0 
L 9.421875 0 
z
" id="DejaVuSans-6c"/>
      <path id="DejaVuSans-20"/>
      <path d="M 19.671875 64.796875 
L 19.671875 8.109375 
L 31.59375 8.109375 
Q 46.6875 8.109375 53.6875 14.9375 
Q 60.6875 21.78125 60.6875 36.53125 
Q 60.6875 51.171875 53.6875 57.984375 
Q 46.6875 64.796875 31.59375 64.796875 
z
M 9.8125 72.90625 
L 30.078125 72.90625 
Q 51.265625 72.90625 61.171875 64.09375 
Q 71.09375 55.28125 71.09375 36.53125 
Q 71.09375 17.671875 61.125 8.828125 
Q 51.171875 0 30.078125 0 
L 9.8125 0 
z
" id="DejaVuSans-44"/>
     </defs>
     <g transform="translate(77.603125 41.976562)scale(0.1 -0.1)">
      <use xlink:href="#DejaVuSans-52"/>
      <use x="69.419922" xlink:href="#DejaVuSans-65"/>
      <use x="130.943359" xlink:href="#DejaVuSans-61"/>
      <use x="192.222656" xlink:href="#DejaVuSans-6c"/>
      <use x="220.005859" xlink:href="#DejaVuSans-20"/>
      <use x="251.792969" xlink:href="#DejaVuSans-44"/>
      <use x="328.794922" xlink:href="#DejaVuSans-61"/>
      <use x="390.074219" xlink:href="#DejaVuSans-74"/>
      <use x="429.283203" xlink:href="#DejaVuSans-61"/>
     </g>
    </g>
    <g id="line2d_22"/>
    <g id="line2d_23">
     <g>
      <use style="fill:#008000;stroke:#008000;" x="59.603125" xlink:href="#m6215310275" y="53.154688"/>
     </g>
    </g>
    <g id="text_19">
     <!-- Start Point for Forecast -->
     <defs>
      <path d="M 53.515625 70.515625 
L 53.515625 60.890625 
Q 47.90625 63.578125 42.921875 64.890625 
Q 37.9375 66.21875 33.296875 66.21875 
Q 25.25 66.21875 20.875 63.09375 
Q 16.5 59.96875 16.5 54.203125 
Q 16.5 49.359375 19.40625 46.890625 
Q 22.3125 44.4375 30.421875 42.921875 
L 36.375 41.703125 
Q 47.40625 39.59375 52.65625 34.296875 
Q 57.90625 29 57.90625 20.125 
Q 57.90625 9.515625 50.796875 4.046875 
Q 43.703125 -1.421875 29.984375 -1.421875 
Q 24.8125 -1.421875 18.96875 -0.25 
Q 13.140625 0.921875 6.890625 3.21875 
L 6.890625 13.375 
Q 12.890625 10.015625 18.65625 8.296875 
Q 24.421875 6.59375 29.984375 6.59375 
Q 38.421875 6.59375 43.015625 9.90625 
Q 47.609375 13.234375 47.609375 19.390625 
Q 47.609375 24.75 44.3125 27.78125 
Q 41.015625 30.8125 33.5 32.328125 
L 27.484375 33.5 
Q 16.453125 35.6875 11.515625 40.375 
Q 6.59375 45.0625 6.59375 53.421875 
Q 6.59375 63.09375 13.40625 68.65625 
Q 20.21875 74.21875 32.171875 74.21875 
Q 37.3125 74.21875 42.625 73.28125 
Q 47.953125 72.359375 53.515625 70.515625 
z
" id="DejaVuSans-53"/>
      <path d="M 30.609375 48.390625 
Q 23.390625 48.390625 19.1875 42.75 
Q 14.984375 37.109375 14.984375 27.296875 
Q 14.984375 17.484375 19.15625 11.84375 
Q 23.34375 6.203125 30.609375 6.203125 
Q 37.796875 6.203125 41.984375 11.859375 
Q 46.1875 17.53125 46.1875 27.296875 
Q 46.1875 37.015625 41.984375 42.703125 
Q 37.796875 48.390625 30.609375 48.390625 
z
M 30.609375 56 
Q 42.328125 56 49.015625 48.375 
Q 55.71875 40.765625 55.71875 27.296875 
Q 55.71875 13.875 49.015625 6.21875 
Q 42.328125 -1.421875 30.609375 -1.421875 
Q 18.84375 -1.421875 12.171875 6.21875 
Q 5.515625 13.875 5.515625 27.296875 
Q 5.515625 40.765625 12.171875 48.375 
Q 18.84375 56 30.609375 56 
z
" id="DejaVuSans-6f"/>
      <path d="M 54.890625 33.015625 
L 54.890625 0 
L 45.90625 0 
L 45.90625 32.71875 
Q 45.90625 40.484375 42.875 44.328125 
Q 39.84375 48.1875 33.796875 48.1875 
Q 26.515625 48.1875 22.3125 43.546875 
Q 18.109375 38.921875 18.109375 30.90625 
L 18.109375 0 
L 9.078125 0 
L 9.078125 54.6875 
L 18.109375 54.6875 
L 18.109375 46.1875 
Q 21.34375 51.125 25.703125 53.5625 
Q 30.078125 56 35.796875 56 
Q 45.21875 56 50.046875 50.171875 
Q 54.890625 44.34375 54.890625 33.015625 
z
" id="DejaVuSans-6e"/>
      <path d="M 9.8125 72.90625 
L 51.703125 72.90625 
L 51.703125 64.59375 
L 19.671875 64.59375 
L 19.671875 43.109375 
L 48.578125 43.109375 
L 48.578125 34.8125 
L 19.671875 34.8125 
L 19.671875 0 
L 9.8125 0 
z
" id="DejaVuSans-46"/>
     </defs>
     <g transform="translate(77.603125 56.654688)scale(0.1 -0.1)">
      <use xlink:href="#DejaVuSans-53"/>
      <use x="63.476562" xlink:href="#DejaVuSans-74"/>
      <use x="102.685547" xlink:href="#DejaVuSans-61"/>
      <use x="163.964844" xlink:href="#DejaVuSans-72"/>
      <use x="205.078125" xlink:href="#DejaVuSans-74"/>
      <use x="244.287109" xlink:href="#DejaVuSans-20"/>
      <use x="276.074219" xlink:href="#DejaVuSans-50"/>
      <use x="336.330078" xlink:href="#DejaVuSans-6f"/>
      <use x="397.511719" xlink:href="#DejaVuSans-69"/>
      <use x="425.294922" xlink:href="#DejaVuSans-6e"/>
      <use x="488.673828" xlink:href="#DejaVuSans-74"/>
      <use x="527.882812" xlink:href="#DejaVuSans-20"/>
      <use x="559.669922" xlink:href="#DejaVuSans-66"/>
      <use x="594.875" xlink:href="#DejaVuSans-6f"/>
      <use x="656.056641" xlink:href="#DejaVuSans-72"/>
      <use x="697.169922" xlink:href="#DejaVuSans-20"/>
      <use x="728.957031" xlink:href="#DejaVuSans-46"/>
      <use x="786.429688" xlink:href="#DejaVuSans-6f"/>
      <use x="847.611328" xlink:href="#DejaVuSans-72"/>
      <use x="888.693359" xlink:href="#DejaVuSans-65"/>
      <use x="950.216797" xlink:href="#DejaVuSans-63"/>
      <use x="1005.197266" xlink:href="#DejaVuSans-61"/>
      <use x="1066.476562" xlink:href="#DejaVuSans-73"/>
      <use x="1118.576172" xlink:href="#DejaVuSans-74"/>
     </g>
    </g>
   </g>
  </g>
  <g id="axes_2">
   <g id="patch_8">
    <path d="M 40.603125 645.74 
L 1158.043125 645.74 
L 1158.043125 516.14 
L 40.603125 516.14 
z
" style="fill:none;"/>
   </g>
   <g id="matplotlib.axis_3">
    <g id="xtick_6">
     <g id="line2d_24">
      <g>
       <use style="stroke:#000000;stroke-width:0.8;" x="91.395852" xlink:href="#m354abe3061" y="645.74"/>
      </g>
     </g>
     <g id="text_20">
      <!-- 0 -->
      <g transform="translate(88.214602 660.338437)scale(0.1 -0.1)">
       <use xlink:href="#DejaVuSans-30"/>
      </g>
     </g>
    </g>
    <g id="xtick_7">
     <g id="line2d_25">
      <g>
       <use style="stroke:#000000;stroke-width:0.8;" x="215.887831" xlink:href="#m354abe3061" y="645.74"/>
      </g>
     </g>
     <g id="text_21">
      <!-- 25 -->
      <g transform="translate(209.525331 660.338437)scale(0.1 -0.1)">
       <use xlink:href="#DejaVuSans-32"/>
       <use x="63.623047" xlink:href="#DejaVuSans-35"/>
      </g>
     </g>
    </g>
    <g id="xtick_8">
     <g id="line2d_26">
      <g>
       <use style="stroke:#000000;stroke-width:0.8;" x="340.379809" xlink:href="#m354abe3061" y="645.74"/>
      </g>
     </g>
     <g id="text_22">
      <!-- 50 -->
      <g transform="translate(334.017309 660.338437)scale(0.1 -0.1)">
       <use xlink:href="#DejaVuSans-35"/>
       <use x="63.623047" xlink:href="#DejaVuSans-30"/>
      </g>
     </g>
    </g>
    <g id="xtick_9">
     <g id="line2d_27">
      <g>
       <use style="stroke:#000000;stroke-width:0.8;" x="464.871788" xlink:href="#m354abe3061" y="645.74"/>
      </g>
     </g>
     <g id="text_23">
      <!-- 75 -->
      <g transform="translate(458.509288 660.338437)scale(0.1 -0.1)">
       <use xlink:href="#DejaVuSans-37"/>
       <use x="63.623047" xlink:href="#DejaVuSans-35"/>
      </g>
     </g>
    </g>
    <g id="xtick_10">
     <g id="line2d_28">
      <g>
       <use style="stroke:#000000;stroke-width:0.8;" x="589.363767" xlink:href="#m354abe3061" y="645.74"/>
      </g>
     </g>
     <g id="text_24">
      <!-- 100 -->
      <g transform="translate(579.820017 660.338437)scale(0.1 -0.1)">
       <use xlink:href="#DejaVuSans-31"/>
       <use x="63.623047" xlink:href="#DejaVuSans-30"/>
       <use x="127.246094" xlink:href="#DejaVuSans-30"/>
      </g>
     </g>
    </g>
    <g id="xtick_11">
     <g id="line2d_29">
      <g>
       <use style="stroke:#000000;stroke-width:0.8;" x="713.855745" xlink:href="#m354abe3061" y="645.74"/>
      </g>
     </g>
     <g id="text_25">
      <!-- 125 -->
      <g transform="translate(704.311995 660.338437)scale(0.1 -0.1)">
       <use xlink:href="#DejaVuSans-31"/>
       <use x="63.623047" xlink:href="#DejaVuSans-32"/>
       <use x="127.246094" xlink:href="#DejaVuSans-35"/>
      </g>
     </g>
    </g>
    <g id="xtick_12">
     <g id="line2d_30">
      <g>
       <use style="stroke:#000000;stroke-width:0.8;" x="838.347724" xlink:href="#m354abe3061" y="645.74"/>
      </g>
     </g>
     <g id="text_26">
      <!-- 150 -->
      <g transform="translate(828.803974 660.338437)scale(0.1 -0.1)">
       <use xlink:href="#DejaVuSans-31"/>
       <use x="63.623047" xlink:href="#DejaVuSans-35"/>
       <use x="127.246094" xlink:href="#DejaVuSans-30"/>
      </g>
     </g>
    </g>
    <g id="xtick_13">
     <g id="line2d_31">
      <g>
       <use style="stroke:#000000;stroke-width:0.8;" x="962.839703" xlink:href="#m354abe3061" y="645.74"/>
      </g>
     </g>
     <g id="text_27">
      <!-- 175 -->
      <g transform="translate(953.295953 660.338437)scale(0.1 -0.1)">
       <use xlink:href="#DejaVuSans-31"/>
       <use x="63.623047" xlink:href="#DejaVuSans-37"/>
       <use x="127.246094" xlink:href="#DejaVuSans-35"/>
      </g>
     </g>
    </g>
    <g id="xtick_14">
     <g id="line2d_32">
      <g>
       <use style="stroke:#000000;stroke-width:0.8;" x="1087.331681" xlink:href="#m354abe3061" y="645.74"/>
      </g>
     </g>
     <g id="text_28">
      <!-- 200 -->
      <g transform="translate(1077.787931 660.338437)scale(0.1 -0.1)">
       <use xlink:href="#DejaVuSans-32"/>
       <use x="63.623047" xlink:href="#DejaVuSans-30"/>
       <use x="127.246094" xlink:href="#DejaVuSans-30"/>
      </g>
     </g>
    </g>
   </g>
   <g id="matplotlib.axis_4">
    <g id="ytick_10">
     <g id="line2d_33">
      <g>
       <use style="stroke:#000000;stroke-width:0.8;" x="40.603125" xlink:href="#mea5796e647" y="636.362618"/>
      </g>
     </g>
     <g id="text_29">
      <!-- 0 -->
      <g transform="translate(27.240625 640.161836)scale(0.1 -0.1)">
       <use xlink:href="#DejaVuSans-30"/>
      </g>
     </g>
    </g>
    <g id="ytick_11">
     <g id="line2d_34">
      <g>
       <use style="stroke:#000000;stroke-width:0.8;" x="40.603125" xlink:href="#mea5796e647" y="600.847604"/>
      </g>
     </g>
     <g id="text_30">
      <!-- 10 -->
      <g transform="translate(20.878125 604.646822)scale(0.1 -0.1)">
       <use xlink:href="#DejaVuSans-31"/>
       <use x="63.623047" xlink:href="#DejaVuSans-30"/>
      </g>
     </g>
    </g>
    <g id="ytick_12">
     <g id="line2d_35">
      <g>
       <use style="stroke:#000000;stroke-width:0.8;" x="40.603125" xlink:href="#mea5796e647" y="565.33259"/>
      </g>
     </g>
     <g id="text_31">
      <!-- 20 -->
      <g transform="translate(20.878125 569.131809)scale(0.1 -0.1)">
       <use xlink:href="#DejaVuSans-32"/>
       <use x="63.623047" xlink:href="#DejaVuSans-30"/>
      </g>
     </g>
    </g>
    <g id="ytick_13">
     <g id="line2d_36">
      <g>
       <use style="stroke:#000000;stroke-width:0.8;" x="40.603125" xlink:href="#mea5796e647" y="529.817576"/>
      </g>
     </g>
     <g id="text_32">
      <!-- 30 -->
      <g transform="translate(20.878125 533.616795)scale(0.1 -0.1)">
       <use xlink:href="#DejaVuSans-33"/>
       <use x="63.623047" xlink:href="#DejaVuSans-30"/>
      </g>
     </g>
    </g>
    <g id="text_33">
     <!-- Temperature -->
     <defs>
      <path d="M 18.109375 8.203125 
L 18.109375 -20.796875 
L 9.078125 -20.796875 
L 9.078125 54.6875 
L 18.109375 54.6875 
L 18.109375 46.390625 
Q 20.953125 51.265625 25.265625 53.625 
Q 29.59375 56 35.59375 56 
Q 45.5625 56 51.78125 48.09375 
Q 58.015625 40.1875 58.015625 27.296875 
Q 58.015625 14.40625 51.78125 6.484375 
Q 45.5625 -1.421875 35.59375 -1.421875 
Q 29.59375 -1.421875 25.265625 0.953125 
Q 20.953125 3.328125 18.109375 8.203125 
z
M 48.6875 27.296875 
Q 48.6875 37.203125 44.609375 42.84375 
Q 40.53125 48.484375 33.40625 48.484375 
Q 26.265625 48.484375 22.1875 42.84375 
Q 18.109375 37.203125 18.109375 27.296875 
Q 18.109375 17.390625 22.1875 11.75 
Q 26.265625 6.109375 33.40625 6.109375 
Q 40.53125 6.109375 44.609375 11.75 
Q 48.6875 17.390625 48.6875 27.296875 
z
" id="DejaVuSans-70"/>
     </defs>
     <g style="fill:#0000ff;" transform="translate(14.798438 613.557187)rotate(-90)scale(0.1 -0.1)">
      <use xlink:href="#DejaVuSans-54"/>
      <use x="60.818359" xlink:href="#DejaVuSans-65"/>
      <use x="122.341797" xlink:href="#DejaVuSans-6d"/>
      <use x="219.753906" xlink:href="#DejaVuSans-70"/>
      <use x="283.230469" xlink:href="#DejaVuSans-65"/>
      <use x="344.753906" xlink:href="#DejaVuSans-72"/>
      <use x="385.867188" xlink:href="#DejaVuSans-61"/>
      <use x="447.146484" xlink:href="#DejaVuSans-74"/>
      <use x="486.355469" xlink:href="#DejaVuSans-75"/>
      <use x="549.734375" xlink:href="#DejaVuSans-72"/>
      <use x="590.816406" xlink:href="#DejaVuSans-65"/>
     </g>
    </g>
   </g>
   <g id="line2d_37">
    <path clip-path="url(#p7758beba54)" d="M 91.395852 560.781341 
L 96.375531 555.269411 
L 101.355211 552.610401 
L 106.33489 544.572288 
L 111.314569 534.96086 
L 116.294248 534.856091 
L 121.273927 539.374311 
L 126.253606 536.855941 
L 131.233285 540.946205 
L 136.212965 551.191577 
L 141.192644 560.066779 
L 146.172323 560.209904 
L 151.152002 563.522745 
L 156.131681 554.871998 
L 161.11136 552.269813 
L 166.091039 543.919522 
L 171.070719 542.986543 
L 176.050398 534.141884 
L 181.030077 531.396573 
L 186.009756 533.702918 
L 190.989435 536.8531 
L 195.969114 549.194567 
L 200.948793 553.268495 
L 205.928473 560.279869 
L 210.908152 565.723965 
L 215.887831 556.365759 
L 220.86751 552.705227 
L 225.847189 542.144837 
L 230.826868 542.347983 
L 235.806547 536.973496 
L 240.786227 532.577803 
L 245.765906 532.131379 
L 250.745585 532.273794 
L 255.725264 539.310739 
L 260.704943 553.409844 
L 265.684622 565.504127 
L 270.664301 565.034619 
L 275.643981 557.269261 
L 280.62366 548.45621 
L 285.603339 536.902111 
L 290.583018 538.081564 
L 295.562697 533.795257 
L 300.542376 527.327973 
L 305.522055 526.537409 
L 310.501735 532.653805 
L 315.481414 538.57984 
L 320.461093 555.211166 
L 325.440772 563.797276 
L 330.420451 560.956075 
L 335.40013 558.449425 
L 340.379809 549.006338 
L 345.359489 538.120986 
L 355.318847 530.704031 
L 360.298526 529.991955 
L 365.278205 531.503474 
L 370.257884 538.031133 
L 380.217243 548.587261 
L 385.196922 561.35917 
L 390.176601 565.303112 
L 395.15628 553.067835 
L 400.135959 549.593756 
L 405.115638 540.303739 
L 410.095318 527.866026 
L 415.074997 529.126809 
L 420.054676 531.510221 
L 425.034355 529.918439 
L 430.014034 538.372788 
L 434.993713 547.856007 
L 439.973392 552.84267 
L 444.953072 559.961299 
L 449.932751 557.784229 
L 454.91243 554.241251 
L 459.892109 541.855035 
L 464.871788 537.78679 
L 469.851467 535.45736 
L 474.831146 533.361619 
L 479.810826 534.086836 
L 484.790505 534.376283 
L 489.770184 541.729667 
L 494.749863 547.015721 
L 499.729542 562.223605 
L 504.709221 562.498492 
L 509.6889 559.569568 
L 514.66858 560.785958 
L 519.648259 547.03703 
L 524.627938 538.676796 
L 529.607617 537.040264 
L 539.566975 526.280636 
L 544.546654 525.894232 
L 549.526334 532.368974 
L 554.506013 541.909373 
L 559.485692 550.931252 
L 564.465371 563.504632 
L 569.44505 562.688497 
L 574.424729 556.18996 
L 579.404408 541.896232 
L 584.384088 546.025563 
L 589.363767 539.573905 
L 594.343446 535.768827 
L 599.323125 533.517885 
L 604.302804 530.802407 
L 609.282483 538.420378 
L 614.262162 546.934037 
L 619.241842 552.860427 
L 624.221521 563.341263 
L 629.2012 563.384591 
L 634.180879 553.521717 
L 639.160558 548.216484 
L 644.140237 539.451379 
L 649.119916 538.534026 
L 654.099596 531.217223 
L 659.079275 532.40662 
L 664.058954 533.876942 
L 669.038633 536.501857 
L 674.018312 541.402573 
L 678.997991 554.988487 
L 683.97767 563.870792 
L 688.95735 564.344917 
L 693.937029 557.073928 
L 698.916708 547.315113 
L 703.896387 542.431443 
L 708.876066 539.707087 
L 713.855745 531.485716 
L 718.835424 531.087948 
L 723.815104 528.099715 
L 728.794783 531.986478 
L 733.774462 544.657524 
L 738.754141 551.226737 
L 743.73382 561.862773 
L 748.713499 560.040498 
L 753.693178 553.086303 
L 758.672858 542.190652 
L 763.652537 541.02789 
L 768.632216 535.713423 
L 773.611895 534.495969 
L 778.591574 534.071919 
L 783.571253 533.160959 
L 788.550932 531.573083 
L 793.530612 547.312627 
L 798.510291 555.121668 
L 803.48997 565.207577 
L 808.469649 566.538324 
L 813.449328 557.666319 
L 818.429007 544.781827 
L 823.408686 540.832913 
L 828.388366 537.537119 
L 833.368045 532.36933 
L 838.347724 526.455725 
L 843.327403 529.018133 
L 848.307082 533.154211 
L 853.286761 546.772088 
L 858.266441 550.506137 
L 863.24612 563.80651 
L 868.225799 562.062367 
L 873.205478 556.655917 
L 883.164836 544.739209 
L 888.144515 535.306776 
L 893.124195 533.059386 
L 898.103874 528.930056 
L 903.083553 527.341114 
L 908.063232 532.50038 
L 913.042911 544.088219 
L 918.02259 550.877624 
L 923.002269 557.871951 
L 927.981949 560.394227 
L 932.961628 557.448612 
L 937.941307 546.543727 
L 942.920986 541.203334 
L 947.900665 533.570447 
L 952.880344 535.513829 
L 957.860023 526.271757 
L 962.839703 529.11793 
L 967.819382 536.385012 
L 972.799061 543.089537 
L 977.77874 549.245709 
L 982.758419 559.705236 
L 987.738098 562.101434 
L 992.717777 554.509744 
L 997.697457 541.957673 
L 1002.677136 539.53839 
L 1007.656815 539.542297 
L 1012.636494 532.230466 
L 1017.616173 526.059732 
L 1022.595852 528.239644 
L 1027.575531 531.858624 
L 1032.555211 544.026778 
L 1037.53489 545.246008 
L 1042.514569 562.32873 
L 1047.494248 563.391694 
L 1052.473927 550.467426 
L 1057.453606 545.27442 
L 1062.433285 532.317833 
L 1067.412965 533.822249 
L 1072.392644 522.030909 
L 1077.372323 524.249887 
L 1082.352002 524.478959 
L 1087.331681 532.046853 
L 1092.31136 538.551783 
L 1097.291039 552.304617 
L 1102.270719 558.395797 
L 1107.250398 562.442023 
L 1107.250398 562.442023 
" style="fill:none;stroke:#ff0000;stroke-linecap:square;stroke-width:1.5;"/>
   </g>
   <g id="line2d_38">
    <path clip-path="url(#p7758beba54)" d="M 91.395852 587.298981 
L 96.375531 583.970869 
L 101.355211 578.900035 
L 106.33489 569.095405 
L 111.314569 559.576316 
L 116.294248 556.007057 
L 121.273927 560.163024 
L 126.253606 557.850997 
L 131.233285 561.581494 
L 136.212965 573.857614 
L 141.192644 585.717497 
L 146.172323 587.537642 
L 151.152002 591.746881 
L 156.131681 582.876296 
L 161.11136 578.470659 
L 166.091039 568.621635 
L 171.070719 565.690936 
L 176.050398 558.043133 
L 181.030077 556.387778 
L 186.009756 557.429434 
L 190.989435 560.430808 
L 195.969114 570.934728 
L 200.948793 580.74433 
L 205.928473 589.579755 
L 210.908152 593.492089 
L 215.887831 585.328608 
L 220.86751 578.95757 
L 225.847189 566.816407 
L 230.826868 564.423405 
L 235.806547 559.621065 
L 240.786227 557.170884 
L 245.765906 556.685039 
L 250.745585 558.643337 
L 255.725264 567.704282 
L 260.704943 582.646514 
L 265.684622 593.128771 
L 270.664301 596.336842 
L 275.643981 585.089592 
L 285.603339 566.721937 
L 290.583018 566.726909 
L 295.562697 559.446331 
L 300.542376 554.921363 
L 305.522055 552.997515 
L 310.501735 560.056479 
L 315.481414 565.678151 
L 320.461093 582.633018 
L 325.440772 593.47007 
L 330.420451 593.003403 
L 335.40013 588.429069 
L 340.379809 577.001758 
L 345.359489 566.411181 
L 350.339168 561.434107 
L 355.318847 557.977075 
L 360.298526 555.887017 
L 365.278205 556.141659 
L 370.257884 563.028021 
L 375.237564 570.373236 
L 380.217243 579.06376 
L 385.196922 591.312888 
L 390.176601 596.436639 
L 395.15628 583.078732 
L 400.135959 580.204147 
L 405.115638 568.579727 
L 410.095318 556.316038 
L 415.074997 555.433845 
L 420.054676 555.917204 
L 425.034355 556.153379 
L 430.014034 563.92655 
L 434.993713 573.550409 
L 444.953072 591.080265 
L 449.932751 590.920092 
L 454.91243 585.160267 
L 459.892109 573.146958 
L 464.871788 567.82965 
L 469.851467 563.323861 
L 474.831146 562.043189 
L 479.810826 557.571139 
L 484.790505 558.010814 
L 489.770184 567.333861 
L 494.749863 573.995412 
L 499.729542 589.817706 
L 504.709221 594.193155 
L 509.6889 590.957027 
L 514.66858 590.014814 
L 519.648259 577.225502 
L 524.627938 567.096976 
L 529.607617 563.78449 
L 534.587296 558.723601 
L 539.566975 554.281028 
L 544.546654 554.734554 
L 549.526334 560.723806 
L 554.506013 570.567148 
L 559.485692 583.353618 
L 564.465371 593.217203 
L 569.44505 594.992954 
L 574.424729 587.963822 
L 579.404408 573.031534 
L 584.384088 572.53681 
L 589.363767 567.126453 
L 594.343446 561.184436 
L 599.323125 558.219998 
L 604.302804 557.4788 
L 609.282483 564.32858 
L 614.262162 576.449144 
L 619.241842 581.338141 
L 624.221521 592.305888 
L 629.2012 593.344702 
L 634.180879 585.157781 
L 639.160558 581.010693 
L 644.140237 568.790687 
L 649.119916 564.794892 
L 654.099596 558.064442 
L 659.079275 557.635776 
L 664.058954 558.87454 
L 669.038633 563.122846 
L 674.018312 570.977701 
L 678.997991 583.291467 
L 683.97767 590.516996 
L 688.95735 594.871847 
L 693.937029 586.759863 
L 698.916708 576.951327 
L 703.896387 569.28399 
L 708.876066 566.374955 
L 713.855745 558.767639 
L 718.835424 557.092751 
L 723.815104 554.809846 
L 728.794783 559.389862 
L 733.774462 570.595915 
L 738.754141 579.566297 
L 743.73382 592.742012 
L 748.713499 590.649112 
L 753.693178 584.634645 
L 758.672858 573.67258 
L 763.652537 569.256999 
L 768.632216 563.556129 
L 773.611895 559.697778 
L 778.591574 557.9167 
L 783.571253 556.809342 
L 788.550932 558.096406 
L 793.530612 573.547923 
L 798.510291 582.602476 
L 803.48997 594.460584 
L 808.469649 596.506959 
L 813.449328 589.051292 
L 818.429007 575.940214 
L 823.408686 569.692413 
L 828.388366 565.444107 
L 833.368045 559.759574 
L 838.347724 552.843025 
L 843.327403 554.990618 
L 848.307082 560.464902 
L 853.286761 575.495921 
L 858.266441 581.446462 
L 863.24612 592.694067 
L 868.225799 592.737395 
L 873.205478 586.955906 
L 878.185157 579.315916 
L 883.164836 571.205352 
L 888.144515 563.719498 
L 893.124195 558.384432 
L 898.103874 555.457285 
L 903.083553 555.310963 
L 908.063232 560.749377 
L 913.042911 573.464818 
L 918.02259 582.036721 
L 923.002269 590.85652 
L 927.981949 590.130948 
L 932.961628 587.768489 
L 937.941307 577.624336 
L 942.920986 570.078816 
L 947.900665 562.019394 
L 952.880344 560.575354 
L 957.860023 553.688637 
L 962.839703 555.203353 
L 967.819382 563.100471 
L 972.799061 573.03331 
L 977.77874 580.887811 
L 982.758419 592.793509 
L 987.738098 594.173977 
L 997.697457 574.460303 
L 1002.677136 569.709815 
L 1007.656815 566.995048 
L 1012.636494 559.394835 
L 1017.616173 555.068751 
L 1027.575531 560.479818 
L 1032.555211 572.540007 
L 1037.53489 577.82251 
L 1042.514569 592.794574 
L 1047.494248 592.456471 
L 1052.473927 581.869801 
L 1057.453606 574.733059 
L 1062.433285 562.186315 
L 1067.412965 563.97343 
L 1072.392644 551.796397 
L 1077.372323 551.89726 
L 1082.352002 553.288383 
L 1087.331681 560.205998 
L 1092.31136 568.032086 
L 1097.291039 581.385021 
L 1102.270719 588.802687 
L 1107.250398 592.876259 
L 1107.250398 592.876259 
" style="fill:none;stroke:#008000;stroke-linecap:square;stroke-width:1.5;"/>
   </g>
   <g id="line2d_39">
    <path clip-path="url(#p7758beba54)" d="M 91.395852 611.518196 
L 96.375531 609.914729 
L 101.355211 602.216921 
L 106.33489 591.2827 
L 111.314569 581.582484 
L 116.294248 574.833921 
L 121.273927 578.786032 
L 126.253606 574.832856 
L 131.233285 577.993337 
L 141.192644 608.340774 
L 146.172323 611.357739 
L 151.152002 616.770796 
L 156.131681 608.7742 
L 161.11136 601.860989 
L 166.091039 590.055301 
L 171.070719 586.498828 
L 176.050398 579.471827 
L 181.030077 578.706123 
L 186.009756 577.325655 
L 190.989435 580.913026 
L 195.969114 588.936223 
L 200.948793 604.385254 
L 205.928473 614.538464 
L 210.908152 617.501872 
L 215.887831 610.47061 
L 220.86751 602.006778 
L 225.847189 588.019581 
L 230.826868 582.907194 
L 235.806547 579.887708 
L 240.786227 578.540623 
L 245.765906 578.488416 
L 250.745585 581.530277 
L 255.725264 592.256522 
L 260.704943 607.289708 
L 265.684622 616.051865 
L 270.664301 622.091584 
L 275.643981 607.851342 
L 280.62366 600.456938 
L 285.603339 592.405685 
L 290.583018 592.491276 
L 295.562697 580.119266 
L 305.522055 573.222605 
L 310.501735 582.99172 
L 315.481414 587.275186 
L 320.461093 606.868464 
L 325.440772 617.172328 
L 330.420451 620.31697 
L 335.40013 613.706134 
L 340.379809 600.245269 
L 345.359489 590.005935 
L 350.339168 583.274775 
L 355.318847 580.410489 
L 360.298526 574.514286 
L 365.278205 574.903176 
L 370.257884 582.485986 
L 375.237564 591.269915 
L 380.217243 603.18783 
L 385.196922 615.455355 
L 390.176601 621.05419 
L 395.15628 607.87361 
L 400.135959 605.560162 
L 405.115638 591.847744 
L 410.095318 579.633776 
L 415.074997 576.564568 
L 420.054676 574.636813 
L 425.034355 575.839351 
L 430.014034 584.078835 
L 434.993713 593.317 
L 439.973392 605.796124 
L 444.953072 615.952068 
L 449.932751 618.422919 
L 454.91243 609.579751 
L 459.892109 600.03431 
L 469.851467 585.170921 
L 474.831146 585.266457 
L 479.810826 575.306271 
L 484.790505 575.147164 
L 489.770184 587.452761 
L 494.749863 594.545464 
L 499.729542 613.053013 
L 504.709221 619.89633 
L 509.6889 616.657112 
L 514.66858 612.796808 
L 519.648259 603.432919 
L 524.627938 589.712226 
L 529.607617 585.856716 
L 534.587296 580.338749 
L 539.566975 577.381058 
L 544.546654 578.301607 
L 549.526334 583.72546 
L 554.506013 592.508678 
L 559.485692 609.962461 
L 564.465371 617.00484 
L 569.44505 620.913906 
L 574.424729 614.568971 
L 579.404408 598.930858 
L 584.384088 593.385189 
L 589.363767 589.674935 
L 594.343446 581.510389 
L 599.323125 577.647066 
L 604.302804 578.567615 
L 609.282483 584.755751 
L 614.262162 599.520052 
L 619.241842 603.058555 
L 624.221521 614.756384 
L 629.2012 617.154109 
L 634.180879 611.163756 
L 639.160558 608.380338 
L 644.140237 593.513398 
L 649.119916 585.692282 
L 654.099596 579.37203 
L 659.079275 576.94742 
L 664.058954 577.353001 
L 669.038633 583.912624 
L 674.018312 593.020095 
L 678.997991 605.34146 
L 683.97767 610.568596 
L 688.95735 618.288139 
L 693.937029 611.048759 
L 698.916708 601.430369 
L 703.896387 590.568848 
L 708.876066 588.010702 
L 718.835424 575.746302 
L 723.815104 575.702619 
L 728.794783 580.105415 
L 733.774462 590.292542 
L 738.754141 601.451146 
L 743.73382 617.306255 
L 748.713499 614.407414 
L 753.693178 611.275202 
L 758.672858 599.678805 
L 763.652537 592.527501 
L 768.632216 585.579699 
L 773.611895 579.822715 
L 778.591574 575.390087 
L 783.571253 575.059797 
L 788.550932 579.286794 
L 793.530612 593.312028 
L 798.510291 603.539606 
L 803.48997 617.279264 
L 808.469649 620.099973 
L 813.449328 614.431706 
L 818.429007 602.624739 
L 823.408686 594.667636 
L 828.388366 589.818416 
L 833.368045 581.935504 
L 838.347724 574.56969 
L 843.327403 575.869539 
L 848.307082 582.434845 
L 853.286761 598.634663 
L 858.266441 606.052684 
L 863.24612 615.270606 
L 868.225799 616.73038 
L 873.205478 612.15942 
L 878.185157 602.440345 
L 883.164836 593.114565 
L 888.144515 587.344795 
L 893.124195 578.133266 
L 898.103874 576.936765 
L 903.083553 577.617233 
L 908.063232 582.407853 
L 913.042911 596.724311 
L 918.02259 607.048276 
L 923.002269 616.357294 
L 927.981949 613.701197 
L 932.961628 613.224728 
L 937.941307 603.646471 
L 942.920986 594.762816 
L 947.900665 585.25012 
L 952.880344 580.204857 
L 957.860023 574.681917 
L 962.839703 574.765022 
L 967.819382 582.715058 
L 972.799061 596.340038 
L 977.77874 605.804647 
L 982.758419 619.385873 
L 987.738098 620.453774 
L 992.717777 609.791918 
L 997.697457 601.633267 
L 1002.677136 593.942064 
L 1007.656815 587.652355 
L 1012.636494 580.038292 
L 1017.616173 576.634533 
L 1022.595852 581.005365 
L 1027.575531 581.793444 
L 1032.555211 595.199651 
L 1037.53489 604.169216 
L 1042.514569 616.834652 
L 1047.494248 615.467998 
L 1052.473927 607.45265 
L 1057.453606 598.449275 
L 1062.433285 587.930083 
L 1067.412965 589.525417 
L 1072.392644 576.035039 
L 1077.372323 572.6533 
L 1082.352002 575.062993 
L 1087.331681 581.719572 
L 1092.31136 590.566362 
L 1097.291039 604.293625 
L 1102.270719 612.689588 
L 1107.250398 617.404987 
L 1107.250398 617.404987 
" style="fill:none;stroke:#0000ff;stroke-linecap:square;stroke-width:1.5;"/>
   </g>
   <g id="line2d_40">
    <defs>
     <path d="M 0 3 
C 0.795609 3 1.55874 2.683901 2.12132 2.12132 
C 2.683901 1.55874 3 0.795609 3 0 
C 3 -0.795609 2.683901 -1.55874 2.12132 -2.12132 
C 1.55874 -2.683901 0.795609 -3 0 -3 
C -0.795609 -3 -1.55874 -2.683901 -2.12132 -2.12132 
C -2.683901 -1.55874 -3 -0.795609 -3 0 
C -3 0.795609 -2.683901 1.55874 -2.12132 2.12132 
C -1.55874 2.683901 -0.795609 3 0 3 
z
" id="m4345aaeba1" style="stroke:#ff0000;"/>
    </defs>
    <g clip-path="url(#p7758beba54)">
     <use style="fill:#ff0000;stroke:#ff0000;" x="96.375531" xlink:href="#m4345aaeba1" y="639.849091"/>
     <use style="fill:#ff0000;stroke:#ff0000;" x="106.33489" xlink:href="#m4345aaeba1" y="639.849091"/>
     <use style="fill:#ff0000;stroke:#ff0000;" x="116.294248" xlink:href="#m4345aaeba1" y="639.849091"/>
     <use style="fill:#ff0000;stroke:#ff0000;" x="121.273927" xlink:href="#m4345aaeba1" y="639.849091"/>
     <use style="fill:#ff0000;stroke:#ff0000;" x="126.253606" xlink:href="#m4345aaeba1" y="639.849091"/>
     <use style="fill:#ff0000;stroke:#ff0000;" x="131.233285" xlink:href="#m4345aaeba1" y="639.849091"/>
     <use style="fill:#ff0000;stroke:#ff0000;" x="171.070719" xlink:href="#m4345aaeba1" y="639.849091"/>
     <use style="fill:#ff0000;stroke:#ff0000;" x="176.050398" xlink:href="#m4345aaeba1" y="639.849091"/>
     <use style="fill:#ff0000;stroke:#ff0000;" x="181.030077" xlink:href="#m4345aaeba1" y="639.849091"/>
     <use style="fill:#ff0000;stroke:#ff0000;" x="210.908152" xlink:href="#m4345aaeba1" y="639.849091"/>
     <use style="fill:#ff0000;stroke:#ff0000;" x="220.86751" xlink:href="#m4345aaeba1" y="639.849091"/>
     <use style="fill:#ff0000;stroke:#ff0000;" x="235.806547" xlink:href="#m4345aaeba1" y="639.849091"/>
     <use style="fill:#ff0000;stroke:#ff0000;" x="240.786227" xlink:href="#m4345aaeba1" y="639.849091"/>
     <use style="fill:#ff0000;stroke:#ff0000;" x="255.725264" xlink:href="#m4345aaeba1" y="639.849091"/>
     <use style="fill:#ff0000;stroke:#ff0000;" x="270.664301" xlink:href="#m4345aaeba1" y="639.849091"/>
     <use style="fill:#ff0000;stroke:#ff0000;" x="275.643981" xlink:href="#m4345aaeba1" y="639.849091"/>
     <use style="fill:#ff0000;stroke:#ff0000;" x="280.62366" xlink:href="#m4345aaeba1" y="639.849091"/>
     <use style="fill:#ff0000;stroke:#ff0000;" x="310.501735" xlink:href="#m4345aaeba1" y="639.849091"/>
     <use style="fill:#ff0000;stroke:#ff0000;" x="335.40013" xlink:href="#m4345aaeba1" y="639.849091"/>
     <use style="fill:#ff0000;stroke:#ff0000;" x="360.298526" xlink:href="#m4345aaeba1" y="639.849091"/>
     <use style="fill:#ff0000;stroke:#ff0000;" x="365.278205" xlink:href="#m4345aaeba1" y="639.849091"/>
     <use style="fill:#ff0000;stroke:#ff0000;" x="370.257884" xlink:href="#m4345aaeba1" y="639.849091"/>
     <use style="fill:#ff0000;stroke:#ff0000;" x="375.237564" xlink:href="#m4345aaeba1" y="639.849091"/>
     <use style="fill:#ff0000;stroke:#ff0000;" x="380.217243" xlink:href="#m4345aaeba1" y="639.849091"/>
     <use style="fill:#ff0000;stroke:#ff0000;" x="385.196922" xlink:href="#m4345aaeba1" y="639.849091"/>
     <use style="fill:#ff0000;stroke:#ff0000;" x="390.176601" xlink:href="#m4345aaeba1" y="639.849091"/>
     <use style="fill:#ff0000;stroke:#ff0000;" x="395.15628" xlink:href="#m4345aaeba1" y="639.849091"/>
     <use style="fill:#ff0000;stroke:#ff0000;" x="400.135959" xlink:href="#m4345aaeba1" y="639.849091"/>
     <use style="fill:#ff0000;stroke:#ff0000;" x="405.115638" xlink:href="#m4345aaeba1" y="639.849091"/>
     <use style="fill:#ff0000;stroke:#ff0000;" x="410.095318" xlink:href="#m4345aaeba1" y="639.849091"/>
     <use style="fill:#ff0000;stroke:#ff0000;" x="415.074997" xlink:href="#m4345aaeba1" y="639.849091"/>
     <use style="fill:#ff0000;stroke:#ff0000;" x="430.014034" xlink:href="#m4345aaeba1" y="639.849091"/>
     <use style="fill:#ff0000;stroke:#ff0000;" x="489.770184" xlink:href="#m4345aaeba1" y="639.849091"/>
     <use style="fill:#ff0000;stroke:#ff0000;" x="514.66858" xlink:href="#m4345aaeba1" y="639.849091"/>
     <use style="fill:#ff0000;stroke:#ff0000;" x="559.485692" xlink:href="#m4345aaeba1" y="639.849091"/>
     <use style="fill:#ff0000;stroke:#ff0000;" x="569.44505" xlink:href="#m4345aaeba1" y="639.849091"/>
     <use style="fill:#ff0000;stroke:#ff0000;" x="574.424729" xlink:href="#m4345aaeba1" y="639.849091"/>
     <use style="fill:#ff0000;stroke:#ff0000;" x="624.221521" xlink:href="#m4345aaeba1" y="639.849091"/>
     <use style="fill:#ff0000;stroke:#ff0000;" x="634.180879" xlink:href="#m4345aaeba1" y="639.849091"/>
     <use style="fill:#ff0000;stroke:#ff0000;" x="639.160558" xlink:href="#m4345aaeba1" y="639.849091"/>
     <use style="fill:#ff0000;stroke:#ff0000;" x="649.119916" xlink:href="#m4345aaeba1" y="639.849091"/>
     <use style="fill:#ff0000;stroke:#ff0000;" x="659.079275" xlink:href="#m4345aaeba1" y="639.849091"/>
     <use style="fill:#ff0000;stroke:#ff0000;" x="664.058954" xlink:href="#m4345aaeba1" y="639.849091"/>
     <use style="fill:#ff0000;stroke:#ff0000;" x="669.038633" xlink:href="#m4345aaeba1" y="639.849091"/>
     <use style="fill:#ff0000;stroke:#ff0000;" x="688.95735" xlink:href="#m4345aaeba1" y="639.849091"/>
     <use style="fill:#ff0000;stroke:#ff0000;" x="708.876066" xlink:href="#m4345aaeba1" y="639.849091"/>
     <use style="fill:#ff0000;stroke:#ff0000;" x="773.611895" xlink:href="#m4345aaeba1" y="639.849091"/>
     <use style="fill:#ff0000;stroke:#ff0000;" x="778.591574" xlink:href="#m4345aaeba1" y="639.849091"/>
     <use style="fill:#ff0000;stroke:#ff0000;" x="783.571253" xlink:href="#m4345aaeba1" y="639.849091"/>
     <use style="fill:#ff0000;stroke:#ff0000;" x="823.408686" xlink:href="#m4345aaeba1" y="639.849091"/>
     <use style="fill:#ff0000;stroke:#ff0000;" x="833.368045" xlink:href="#m4345aaeba1" y="639.849091"/>
     <use style="fill:#ff0000;stroke:#ff0000;" x="838.347724" xlink:href="#m4345aaeba1" y="639.849091"/>
     <use style="fill:#ff0000;stroke:#ff0000;" x="883.164836" xlink:href="#m4345aaeba1" y="639.849091"/>
     <use style="fill:#ff0000;stroke:#ff0000;" x="923.002269" xlink:href="#m4345aaeba1" y="639.849091"/>
     <use style="fill:#ff0000;stroke:#ff0000;" x="967.819382" xlink:href="#m4345aaeba1" y="639.849091"/>
     <use style="fill:#ff0000;stroke:#ff0000;" x="992.717777" xlink:href="#m4345aaeba1" y="639.849091"/>
     <use style="fill:#ff0000;stroke:#ff0000;" x="1017.616173" xlink:href="#m4345aaeba1" y="639.849091"/>
     <use style="fill:#ff0000;stroke:#ff0000;" x="1022.595852" xlink:href="#m4345aaeba1" y="639.849091"/>
     <use style="fill:#ff0000;stroke:#ff0000;" x="1027.575531" xlink:href="#m4345aaeba1" y="639.849091"/>
     <use style="fill:#ff0000;stroke:#ff0000;" x="1032.555211" xlink:href="#m4345aaeba1" y="639.849091"/>
     <use style="fill:#ff0000;stroke:#ff0000;" x="1037.53489" xlink:href="#m4345aaeba1" y="639.849091"/>
     <use style="fill:#ff0000;stroke:#ff0000;" x="1042.514569" xlink:href="#m4345aaeba1" y="639.849091"/>
     <use style="fill:#ff0000;stroke:#ff0000;" x="1047.494248" xlink:href="#m4345aaeba1" y="639.849091"/>
     <use style="fill:#ff0000;stroke:#ff0000;" x="1052.473927" xlink:href="#m4345aaeba1" y="639.849091"/>
     <use style="fill:#ff0000;stroke:#ff0000;" x="1057.453606" xlink:href="#m4345aaeba1" y="639.849091"/>
     <use style="fill:#ff0000;stroke:#ff0000;" x="1062.433285" xlink:href="#m4345aaeba1" y="639.849091"/>
     <use style="fill:#ff0000;stroke:#ff0000;" x="1067.412965" xlink:href="#m4345aaeba1" y="639.849091"/>
     <use style="fill:#ff0000;stroke:#ff0000;" x="1072.392644" xlink:href="#m4345aaeba1" y="639.849091"/>
     <use style="fill:#ff0000;stroke:#ff0000;" x="1077.372323" xlink:href="#m4345aaeba1" y="639.849091"/>
     <use style="fill:#ff0000;stroke:#ff0000;" x="1082.352002" xlink:href="#m4345aaeba1" y="639.849091"/>
     <use style="fill:#ff0000;stroke:#ff0000;" x="1087.331681" xlink:href="#m4345aaeba1" y="639.849091"/>
     <use style="fill:#ff0000;stroke:#ff0000;" x="1092.31136" xlink:href="#m4345aaeba1" y="639.849091"/>
     <use style="fill:#ff0000;stroke:#ff0000;" x="1097.291039" xlink:href="#m4345aaeba1" y="639.849091"/>
     <use style="fill:#ff0000;stroke:#ff0000;" x="1102.270719" xlink:href="#m4345aaeba1" y="639.849091"/>
     <use style="fill:#ff0000;stroke:#ff0000;" x="1107.250398" xlink:href="#m4345aaeba1" y="639.849091"/>
    </g>
   </g>
   <g id="patch_9">
    <path d="M 40.603125 645.74 
L 40.603125 516.14 
" style="fill:none;stroke:#000000;stroke-linecap:square;stroke-linejoin:miter;stroke-width:0.8;"/>
   </g>
   <g id="patch_10">
    <path d="M 1158.043125 645.74 
L 1158.043125 516.14 
" style="fill:none;stroke:#000000;stroke-linecap:square;stroke-linejoin:miter;stroke-width:0.8;"/>
   </g>
   <g id="patch_11">
    <path d="M 40.603125 645.74 
L 1158.043125 645.74 
" style="fill:none;stroke:#000000;stroke-linecap:square;stroke-linejoin:miter;stroke-width:0.8;"/>
   </g>
   <g id="patch_12">
    <path d="M 40.603125 516.14 
L 1158.043125 516.14 
" style="fill:none;stroke:#000000;stroke-linecap:square;stroke-linejoin:miter;stroke-width:0.8;"/>
   </g>
   <g id="legend_2">
    <g id="patch_13">
     <path d="M 47.603125 582.8525 
L 138.615625 582.8525 
Q 140.615625 582.8525 140.615625 580.8525 
L 140.615625 523.14 
Q 140.615625 521.14 138.615625 521.14 
L 47.603125 521.14 
Q 45.603125 521.14 45.603125 523.14 
L 45.603125 580.8525 
Q 45.603125 582.8525 47.603125 582.8525 
z
" style="fill:#ffffff;opacity:0.8;stroke:#cccccc;stroke-linejoin:miter;"/>
    </g>
    <g id="line2d_41">
     <path d="M 49.603125 529.238437 
L 69.603125 529.238437 
" style="fill:none;stroke:#ff0000;stroke-linecap:square;stroke-width:1.5;"/>
    </g>
    <g id="line2d_42"/>
    <g id="text_34">
     <!-- Maxmimum -->
     <defs>
      <path d="M 9.8125 72.90625 
L 24.515625 72.90625 
L 43.109375 23.296875 
L 61.8125 72.90625 
L 76.515625 72.90625 
L 76.515625 0 
L 66.890625 0 
L 66.890625 64.015625 
L 48.09375 14.015625 
L 38.1875 14.015625 
L 19.390625 64.015625 
L 19.390625 0 
L 9.8125 0 
z
" id="DejaVuSans-4d"/>
      <path d="M 54.890625 54.6875 
L 35.109375 28.078125 
L 55.90625 0 
L 45.3125 0 
L 29.390625 21.484375 
L 13.484375 0 
L 2.875 0 
L 24.125 28.609375 
L 4.6875 54.6875 
L 15.28125 54.6875 
L 29.78125 35.203125 
L 44.28125 54.6875 
z
" id="DejaVuSans-78"/>
     </defs>
     <g transform="translate(77.603125 532.738437)scale(0.1 -0.1)">
      <use xlink:href="#DejaVuSans-4d"/>
      <use x="86.279297" xlink:href="#DejaVuSans-61"/>
      <use x="147.558594" xlink:href="#DejaVuSans-78"/>
      <use x="206.738281" xlink:href="#DejaVuSans-6d"/>
      <use x="304.150391" xlink:href="#DejaVuSans-69"/>
      <use x="331.933594" xlink:href="#DejaVuSans-6d"/>
      <use x="429.345703" xlink:href="#DejaVuSans-75"/>
      <use x="492.724609" xlink:href="#DejaVuSans-6d"/>
     </g>
    </g>
    <g id="line2d_43">
     <path d="M 49.603125 543.916562 
L 69.603125 543.916562 
" style="fill:none;stroke:#008000;stroke-linecap:square;stroke-width:1.5;"/>
    </g>
    <g id="line2d_44"/>
    <g id="text_35">
     <!-- Average -->
     <defs>
      <path d="M 34.1875 63.1875 
L 20.796875 26.90625 
L 47.609375 26.90625 
z
M 28.609375 72.90625 
L 39.796875 72.90625 
L 67.578125 0 
L 57.328125 0 
L 50.6875 18.703125 
L 17.828125 18.703125 
L 11.1875 0 
L 0.78125 0 
z
" id="DejaVuSans-41"/>
      <path d="M 2.984375 54.6875 
L 12.5 54.6875 
L 29.59375 8.796875 
L 46.6875 54.6875 
L 56.203125 54.6875 
L 35.6875 0 
L 23.484375 0 
z
" id="DejaVuSans-76"/>
     </defs>
     <g transform="translate(77.603125 547.416562)scale(0.1 -0.1)">
      <use xlink:href="#DejaVuSans-41"/>
      <use x="68.330078" xlink:href="#DejaVuSans-76"/>
      <use x="127.509766" xlink:href="#DejaVuSans-65"/>
      <use x="189.033203" xlink:href="#DejaVuSans-72"/>
      <use x="230.146484" xlink:href="#DejaVuSans-61"/>
      <use x="291.425781" xlink:href="#DejaVuSans-67"/>
      <use x="354.902344" xlink:href="#DejaVuSans-65"/>
     </g>
    </g>
    <g id="line2d_45">
     <path d="M 49.603125 558.594687 
L 69.603125 558.594687 
" style="fill:none;stroke:#0000ff;stroke-linecap:square;stroke-width:1.5;"/>
    </g>
    <g id="line2d_46"/>
    <g id="text_36">
     <!-- Minimum -->
     <g transform="translate(77.603125 562.094687)scale(0.1 -0.1)">
      <use xlink:href="#DejaVuSans-4d"/>
      <use x="86.279297" xlink:href="#DejaVuSans-69"/>
      <use x="114.0625" xlink:href="#DejaVuSans-6e"/>
      <use x="177.441406" xlink:href="#DejaVuSans-69"/>
      <use x="205.224609" xlink:href="#DejaVuSans-6d"/>
      <use x="302.636719" xlink:href="#DejaVuSans-75"/>
      <use x="366.015625" xlink:href="#DejaVuSans-6d"/>
     </g>
    </g>
    <g id="line2d_47"/>
    <g id="line2d_48">
     <g>
      <use style="fill:#ff0000;stroke:#ff0000;" x="59.603125" xlink:href="#m4345aaeba1" y="573.272812"/>
     </g>
    </g>
    <g id="text_37">
     <!-- Disasters -->
     <g transform="translate(77.603125 576.772812)scale(0.1 -0.1)">
      <use xlink:href="#DejaVuSans-44"/>
      <use x="77.001953" xlink:href="#DejaVuSans-69"/>
      <use x="104.785156" xlink:href="#DejaVuSans-73"/>
      <use x="156.884766" xlink:href="#DejaVuSans-61"/>
      <use x="218.164062" xlink:href="#DejaVuSans-73"/>
      <use x="270.263672" xlink:href="#DejaVuSans-74"/>
      <use x="309.472656" xlink:href="#DejaVuSans-65"/>
      <use x="370.996094" xlink:href="#DejaVuSans-72"/>
      <use x="412.109375" xlink:href="#DejaVuSans-73"/>
     </g>
    </g>
   </g>
  </g>
 </g>
 <defs>
  <clipPath id="pa8e4702361">
   <rect height="498.96" width="1116" x="40.603125" y="10.7"/>
  </clipPath>
  <clipPath id="p7758beba54">
   <rect height="129.6" width="1117.44" x="40.603125" y="516.14"/>
  </clipPath>
 </defs>
</svg>
