<?xml version="1.0" encoding="utf-8" standalone="no"?>
<!DOCTYPE svg PUBLIC "-//W3C//DTD SVG 1.1//EN"
  "http://www.w3.org/Graphics/SVG/1.1/DTD/svg11.dtd">
<!-- Created with matplotlib (http://matplotlib.org/) -->
<svg height="669pt" version="1.1" viewBox="0 0 1181 669" width="1181pt" xmlns="http://www.w3.org/2000/svg" xmlns:xlink="http://www.w3.org/1999/xlink">
 <defs>
  <style type="text/css">
*{stroke-linecap:butt;stroke-linejoin:round;}
  </style>
 </defs>
 <g id="figure_1">
  <g id="patch_1">
   <path d="M 0 669.618125 
L 1181.468125 669.618125 
L 1181.468125 -0 
L 0 -0 
z
" style="fill:none;"/>
  </g>
  <g id="axes_1">
   <g id="patch_2">
    <path d="M 53.328125 509.66 
L 1169.328125 509.66 
L 1169.328125 10.7 
L 53.328125 10.7 
z
" style="fill:none;"/>
   </g>
   <g id="matplotlib.axis_1">
    <g id="xtick_1">
     <g id="line2d_1">
      <defs>
       <path d="M 0 0 
L 0 3.5 
" id="m660f1dcc96" style="stroke:#000000;stroke-width:0.8;"/>
      </defs>
      <g>
       <use style="stroke:#000000;stroke-width:0.8;" x="104.055398" xlink:href="#m660f1dcc96" y="509.66"/>
      </g>
     </g>
     <g id="text_1">
      <!-- 0 -->
      <defs>
       <path d="M 31.78125 66.40625 
Q 24.171875 66.40625 20.328125 58.90625 
Q 16.5 51.421875 16.5 36.375 
Q 16.5 21.390625 20.328125 13.890625 
Q 24.171875 6.390625 31.78125 6.390625 
Q 39.453125 6.390625 43.28125 13.890625 
Q 47.125 21.390625 47.125 36.375 
Q 47.125 51.421875 43.28125 58.90625 
Q 39.453125 66.40625 31.78125 66.40625 
z
M 31.78125 74.21875 
Q 44.046875 74.21875 50.515625 64.515625 
Q 56.984375 54.828125 56.984375 36.375 
Q 56.984375 17.96875 50.515625 8.265625 
Q 44.046875 -1.421875 31.78125 -1.421875 
Q 19.53125 -1.421875 13.0625 8.265625 
Q 6.59375 17.96875 6.59375 36.375 
Q 6.59375 54.828125 13.0625 64.515625 
Q 19.53125 74.21875 31.78125 74.21875 
z
" id="DejaVuSans-30"/>
      </defs>
      <g transform="translate(100.874148 524.258437)scale(0.1 -0.1)">
       <use xlink:href="#DejaVuSans-30"/>
      </g>
     </g>
    </g>
    <g id="xtick_2">
     <g id="line2d_2">
      <g>
       <use style="stroke:#000000;stroke-width:0.8;" x="346.769621" xlink:href="#m660f1dcc96" y="509.66"/>
      </g>
     </g>
     <g id="text_2">
      <!-- 50 -->
      <defs>
       <path d="M 10.796875 72.90625 
L 49.515625 72.90625 
L 49.515625 64.59375 
L 19.828125 64.59375 
L 19.828125 46.734375 
Q 21.96875 47.46875 24.109375 47.828125 
Q 26.265625 48.1875 28.421875 48.1875 
Q 40.625 48.1875 47.75 41.5 
Q 54.890625 34.8125 54.890625 23.390625 
Q 54.890625 11.625 47.5625 5.09375 
Q 40.234375 -1.421875 26.90625 -1.421875 
Q 22.3125 -1.421875 17.546875 -0.640625 
Q 12.796875 0.140625 7.71875 1.703125 
L 7.71875 11.625 
Q 12.109375 9.234375 16.796875 8.0625 
Q 21.484375 6.890625 26.703125 6.890625 
Q 35.15625 6.890625 40.078125 11.328125 
Q 45.015625 15.765625 45.015625 23.390625 
Q 45.015625 31 40.078125 35.4375 
Q 35.15625 39.890625 26.703125 39.890625 
Q 22.75 39.890625 18.8125 39.015625 
Q 14.890625 38.140625 10.796875 36.28125 
z
" id="DejaVuSans-35"/>
      </defs>
      <g transform="translate(340.407121 524.258437)scale(0.1 -0.1)">
       <use xlink:href="#DejaVuSans-35"/>
       <use x="63.623047" xlink:href="#DejaVuSans-30"/>
      </g>
     </g>
    </g>
    <g id="xtick_3">
     <g id="line2d_3">
      <g>
       <use style="stroke:#000000;stroke-width:0.8;" x="589.483845" xlink:href="#m660f1dcc96" y="509.66"/>
      </g>
     </g>
     <g id="text_3">
      <!-- 100 -->
      <defs>
       <path d="M 12.40625 8.296875 
L 28.515625 8.296875 
L 28.515625 63.921875 
L 10.984375 60.40625 
L 10.984375 69.390625 
L 28.421875 72.90625 
L 38.28125 72.90625 
L 38.28125 8.296875 
L 54.390625 8.296875 
L 54.390625 0 
L 12.40625 0 
z
" id="DejaVuSans-31"/>
      </defs>
      <g transform="translate(579.940095 524.258437)scale(0.1 -0.1)">
       <use xlink:href="#DejaVuSans-31"/>
       <use x="63.623047" xlink:href="#DejaVuSans-30"/>
       <use x="127.246094" xlink:href="#DejaVuSans-30"/>
      </g>
     </g>
    </g>
    <g id="xtick_4">
     <g id="line2d_4">
      <g>
       <use style="stroke:#000000;stroke-width:0.8;" x="832.198068" xlink:href="#m660f1dcc96" y="509.66"/>
      </g>
     </g>
     <g id="text_4">
      <!-- 150 -->
      <g transform="translate(822.654318 524.258437)scale(0.1 -0.1)">
       <use xlink:href="#DejaVuSans-31"/>
       <use x="63.623047" xlink:href="#DejaVuSans-35"/>
       <use x="127.246094" xlink:href="#DejaVuSans-30"/>
      </g>
     </g>
    </g>
    <g id="xtick_5">
     <g id="line2d_5">
      <g>
       <use style="stroke:#000000;stroke-width:0.8;" x="1074.912292" xlink:href="#m660f1dcc96" y="509.66"/>
      </g>
     </g>
     <g id="text_5">
      <!-- 200 -->
      <defs>
       <path d="M 19.1875 8.296875 
L 53.609375 8.296875 
L 53.609375 0 
L 7.328125 0 
L 7.328125 8.296875 
Q 12.9375 14.109375 22.625 23.890625 
Q 32.328125 33.6875 34.8125 36.53125 
Q 39.546875 41.84375 41.421875 45.53125 
Q 43.3125 49.21875 43.3125 52.78125 
Q 43.3125 58.59375 39.234375 62.25 
Q 35.15625 65.921875 28.609375 65.921875 
Q 23.96875 65.921875 18.8125 64.3125 
Q 13.671875 62.703125 7.8125 59.421875 
L 7.8125 69.390625 
Q 13.765625 71.78125 18.9375 73 
Q 24.125 74.21875 28.421875 74.21875 
Q 39.75 74.21875 46.484375 68.546875 
Q 53.21875 62.890625 53.21875 53.421875 
Q 53.21875 48.921875 51.53125 44.890625 
Q 49.859375 40.875 45.40625 35.40625 
Q 44.1875 33.984375 37.640625 27.21875 
Q 31.109375 20.453125 19.1875 8.296875 
z
" id="DejaVuSans-32"/>
      </defs>
      <g transform="translate(1065.368542 524.258437)scale(0.1 -0.1)">
       <use xlink:href="#DejaVuSans-32"/>
       <use x="63.623047" xlink:href="#DejaVuSans-30"/>
       <use x="127.246094" xlink:href="#DejaVuSans-30"/>
      </g>
     </g>
    </g>
    <g id="text_6">
     <!-- Time -->
     <defs>
      <path d="M -0.296875 72.90625 
L 61.375 72.90625 
L 61.375 64.59375 
L 35.5 64.59375 
L 35.5 0 
L 25.59375 0 
L 25.59375 64.59375 
L -0.296875 64.59375 
z
" id="DejaVuSans-54"/>
      <path d="M 9.421875 54.6875 
L 18.40625 54.6875 
L 18.40625 0 
L 9.421875 0 
z
M 9.421875 75.984375 
L 18.40625 75.984375 
L 18.40625 64.59375 
L 9.421875 64.59375 
z
" id="DejaVuSans-69"/>
      <path d="M 52 44.1875 
Q 55.375 50.25 60.0625 53.125 
Q 64.75 56 71.09375 56 
Q 79.640625 56 84.28125 50.015625 
Q 88.921875 44.046875 88.921875 33.015625 
L 88.921875 0 
L 79.890625 0 
L 79.890625 32.71875 
Q 79.890625 40.578125 77.09375 44.375 
Q 74.3125 48.1875 68.609375 48.1875 
Q 61.625 48.1875 57.5625 43.546875 
Q 53.515625 38.921875 53.515625 30.90625 
L 53.515625 0 
L 44.484375 0 
L 44.484375 32.71875 
Q 44.484375 40.625 41.703125 44.40625 
Q 38.921875 48.1875 33.109375 48.1875 
Q 26.21875 48.1875 22.15625 43.53125 
Q 18.109375 38.875 18.109375 30.90625 
L 18.109375 0 
L 9.078125 0 
L 9.078125 54.6875 
L 18.109375 54.6875 
L 18.109375 46.1875 
Q 21.1875 51.21875 25.484375 53.609375 
Q 29.78125 56 35.6875 56 
Q 41.65625 56 45.828125 52.96875 
Q 50 49.953125 52 44.1875 
z
" id="DejaVuSans-6d"/>
      <path d="M 56.203125 29.59375 
L 56.203125 25.203125 
L 14.890625 25.203125 
Q 15.484375 15.921875 20.484375 11.0625 
Q 25.484375 6.203125 34.421875 6.203125 
Q 39.59375 6.203125 44.453125 7.46875 
Q 49.3125 8.734375 54.109375 11.28125 
L 54.109375 2.78125 
Q 49.265625 0.734375 44.1875 -0.34375 
Q 39.109375 -1.421875 33.890625 -1.421875 
Q 20.796875 -1.421875 13.15625 6.1875 
Q 5.515625 13.8125 5.515625 26.8125 
Q 5.515625 40.234375 12.765625 48.109375 
Q 20.015625 56 32.328125 56 
Q 43.359375 56 49.78125 48.890625 
Q 56.203125 41.796875 56.203125 29.59375 
z
M 47.21875 32.234375 
Q 47.125 39.59375 43.09375 43.984375 
Q 39.0625 48.390625 32.421875 48.390625 
Q 24.90625 48.390625 20.390625 44.140625 
Q 15.875 39.890625 15.1875 32.171875 
z
" id="DejaVuSans-65"/>
     </defs>
     <g transform="translate(598.940625 537.936562)scale(0.1 -0.1)">
      <use xlink:href="#DejaVuSans-54"/>
      <use x="61.037109" xlink:href="#DejaVuSans-69"/>
      <use x="88.820312" xlink:href="#DejaVuSans-6d"/>
      <use x="186.232422" xlink:href="#DejaVuSans-65"/>
     </g>
    </g>
   </g>
   <g id="matplotlib.axis_2">
    <g id="ytick_1">
     <g id="line2d_6">
      <defs>
       <path d="M 0 0 
L -3.5 0 
" id="m3f9b6c8664" style="stroke:#000000;stroke-width:0.8;"/>
      </defs>
      <g>
       <use style="stroke:#000000;stroke-width:0.8;" x="53.328125" xlink:href="#m3f9b6c8664" y="476.748421"/>
      </g>
     </g>
     <g id="text_7">
      <!-- 400 -->
      <defs>
       <path d="M 37.796875 64.3125 
L 12.890625 25.390625 
L 37.796875 25.390625 
z
M 35.203125 72.90625 
L 47.609375 72.90625 
L 47.609375 25.390625 
L 58.015625 25.390625 
L 58.015625 17.1875 
L 47.609375 17.1875 
L 47.609375 0 
L 37.796875 0 
L 37.796875 17.1875 
L 4.890625 17.1875 
L 4.890625 26.703125 
z
" id="DejaVuSans-34"/>
      </defs>
      <g transform="translate(27.240625 480.54764)scale(0.1 -0.1)">
       <use xlink:href="#DejaVuSans-34"/>
       <use x="63.623047" xlink:href="#DejaVuSans-30"/>
       <use x="127.246094" xlink:href="#DejaVuSans-30"/>
      </g>
     </g>
    </g>
    <g id="ytick_2">
     <g id="line2d_7">
      <g>
       <use style="stroke:#000000;stroke-width:0.8;" x="53.328125" xlink:href="#m3f9b6c8664" y="414.738852"/>
      </g>
     </g>
     <g id="text_8">
      <!-- 600 -->
      <defs>
       <path d="M 33.015625 40.375 
Q 26.375 40.375 22.484375 35.828125 
Q 18.609375 31.296875 18.609375 23.390625 
Q 18.609375 15.53125 22.484375 10.953125 
Q 26.375 6.390625 33.015625 6.390625 
Q 39.65625 6.390625 43.53125 10.953125 
Q 47.40625 15.53125 47.40625 23.390625 
Q 47.40625 31.296875 43.53125 35.828125 
Q 39.65625 40.375 33.015625 40.375 
z
M 52.59375 71.296875 
L 52.59375 62.3125 
Q 48.875 64.0625 45.09375 64.984375 
Q 41.3125 65.921875 37.59375 65.921875 
Q 27.828125 65.921875 22.671875 59.328125 
Q 17.53125 52.734375 16.796875 39.40625 
Q 19.671875 43.65625 24.015625 45.921875 
Q 28.375 48.1875 33.59375 48.1875 
Q 44.578125 48.1875 50.953125 41.515625 
Q 57.328125 34.859375 57.328125 23.390625 
Q 57.328125 12.15625 50.6875 5.359375 
Q 44.046875 -1.421875 33.015625 -1.421875 
Q 20.359375 -1.421875 13.671875 8.265625 
Q 6.984375 17.96875 6.984375 36.375 
Q 6.984375 53.65625 15.1875 63.9375 
Q 23.390625 74.21875 37.203125 74.21875 
Q 40.921875 74.21875 44.703125 73.484375 
Q 48.484375 72.75 52.59375 71.296875 
z
" id="DejaVuSans-36"/>
      </defs>
      <g transform="translate(27.240625 418.53807)scale(0.1 -0.1)">
       <use xlink:href="#DejaVuSans-36"/>
       <use x="63.623047" xlink:href="#DejaVuSans-30"/>
       <use x="127.246094" xlink:href="#DejaVuSans-30"/>
      </g>
     </g>
    </g>
    <g id="ytick_3">
     <g id="line2d_8">
      <g>
       <use style="stroke:#000000;stroke-width:0.8;" x="53.328125" xlink:href="#m3f9b6c8664" y="352.729282"/>
      </g>
     </g>
     <g id="text_9">
      <!-- 800 -->
      <defs>
       <path d="M 31.78125 34.625 
Q 24.75 34.625 20.71875 30.859375 
Q 16.703125 27.09375 16.703125 20.515625 
Q 16.703125 13.921875 20.71875 10.15625 
Q 24.75 6.390625 31.78125 6.390625 
Q 38.8125 6.390625 42.859375 10.171875 
Q 46.921875 13.96875 46.921875 20.515625 
Q 46.921875 27.09375 42.890625 30.859375 
Q 38.875 34.625 31.78125 34.625 
z
M 21.921875 38.8125 
Q 15.578125 40.375 12.03125 44.71875 
Q 8.5 49.078125 8.5 55.328125 
Q 8.5 64.0625 14.71875 69.140625 
Q 20.953125 74.21875 31.78125 74.21875 
Q 42.671875 74.21875 48.875 69.140625 
Q 55.078125 64.0625 55.078125 55.328125 
Q 55.078125 49.078125 51.53125 44.71875 
Q 48 40.375 41.703125 38.8125 
Q 48.828125 37.15625 52.796875 32.3125 
Q 56.78125 27.484375 56.78125 20.515625 
Q 56.78125 9.90625 50.3125 4.234375 
Q 43.84375 -1.421875 31.78125 -1.421875 
Q 19.734375 -1.421875 13.25 4.234375 
Q 6.78125 9.90625 6.78125 20.515625 
Q 6.78125 27.484375 10.78125 32.3125 
Q 14.796875 37.15625 21.921875 38.8125 
z
M 18.3125 54.390625 
Q 18.3125 48.734375 21.84375 45.5625 
Q 25.390625 42.390625 31.78125 42.390625 
Q 38.140625 42.390625 41.71875 45.5625 
Q 45.3125 48.734375 45.3125 54.390625 
Q 45.3125 60.0625 41.71875 63.234375 
Q 38.140625 66.40625 31.78125 66.40625 
Q 25.390625 66.40625 21.84375 63.234375 
Q 18.3125 60.0625 18.3125 54.390625 
z
" id="DejaVuSans-38"/>
      </defs>
      <g transform="translate(27.240625 356.528501)scale(0.1 -0.1)">
       <use xlink:href="#DejaVuSans-38"/>
       <use x="63.623047" xlink:href="#DejaVuSans-30"/>
       <use x="127.246094" xlink:href="#DejaVuSans-30"/>
      </g>
     </g>
    </g>
    <g id="ytick_4">
     <g id="line2d_9">
      <g>
       <use style="stroke:#000000;stroke-width:0.8;" x="53.328125" xlink:href="#m3f9b6c8664" y="290.719713"/>
      </g>
     </g>
     <g id="text_10">
      <!-- 1000 -->
      <g transform="translate(20.878125 294.518932)scale(0.1 -0.1)">
       <use xlink:href="#DejaVuSans-31"/>
       <use x="63.623047" xlink:href="#DejaVuSans-30"/>
       <use x="127.246094" xlink:href="#DejaVuSans-30"/>
       <use x="190.869141" xlink:href="#DejaVuSans-30"/>
      </g>
     </g>
    </g>
    <g id="ytick_5">
     <g id="line2d_10">
      <g>
       <use style="stroke:#000000;stroke-width:0.8;" x="53.328125" xlink:href="#m3f9b6c8664" y="228.710144"/>
      </g>
     </g>
     <g id="text_11">
      <!-- 1200 -->
      <g transform="translate(20.878125 232.509362)scale(0.1 -0.1)">
       <use xlink:href="#DejaVuSans-31"/>
       <use x="63.623047" xlink:href="#DejaVuSans-32"/>
       <use x="127.246094" xlink:href="#DejaVuSans-30"/>
       <use x="190.869141" xlink:href="#DejaVuSans-30"/>
      </g>
     </g>
    </g>
    <g id="ytick_6">
     <g id="line2d_11">
      <g>
       <use style="stroke:#000000;stroke-width:0.8;" x="53.328125" xlink:href="#m3f9b6c8664" y="166.700574"/>
      </g>
     </g>
     <g id="text_12">
      <!-- 1400 -->
      <g transform="translate(20.878125 170.499793)scale(0.1 -0.1)">
       <use xlink:href="#DejaVuSans-31"/>
       <use x="63.623047" xlink:href="#DejaVuSans-34"/>
       <use x="127.246094" xlink:href="#DejaVuSans-30"/>
       <use x="190.869141" xlink:href="#DejaVuSans-30"/>
      </g>
     </g>
    </g>
    <g id="ytick_7">
     <g id="line2d_12">
      <g>
       <use style="stroke:#000000;stroke-width:0.8;" x="53.328125" xlink:href="#m3f9b6c8664" y="104.691005"/>
      </g>
     </g>
     <g id="text_13">
      <!-- 1600 -->
      <g transform="translate(20.878125 108.490224)scale(0.1 -0.1)">
       <use xlink:href="#DejaVuSans-31"/>
       <use x="63.623047" xlink:href="#DejaVuSans-36"/>
       <use x="127.246094" xlink:href="#DejaVuSans-30"/>
       <use x="190.869141" xlink:href="#DejaVuSans-30"/>
      </g>
     </g>
    </g>
    <g id="ytick_8">
     <g id="line2d_13">
      <g>
       <use style="stroke:#000000;stroke-width:0.8;" x="53.328125" xlink:href="#m3f9b6c8664" y="42.681435"/>
      </g>
     </g>
     <g id="text_14">
      <!-- 1800 -->
      <g transform="translate(20.878125 46.480654)scale(0.1 -0.1)">
       <use xlink:href="#DejaVuSans-31"/>
       <use x="63.623047" xlink:href="#DejaVuSans-38"/>
       <use x="127.246094" xlink:href="#DejaVuSans-30"/>
       <use x="190.869141" xlink:href="#DejaVuSans-30"/>
      </g>
     </g>
    </g>
    <g id="text_15">
     <!-- Refugees -->
     <defs>
      <path d="M 44.390625 34.1875 
Q 47.5625 33.109375 50.5625 29.59375 
Q 53.5625 26.078125 56.59375 19.921875 
L 66.609375 0 
L 56 0 
L 46.6875 18.703125 
Q 43.0625 26.03125 39.671875 28.421875 
Q 36.28125 30.8125 30.421875 30.8125 
L 19.671875 30.8125 
L 19.671875 0 
L 9.8125 0 
L 9.8125 72.90625 
L 32.078125 72.90625 
Q 44.578125 72.90625 50.734375 67.671875 
Q 56.890625 62.453125 56.890625 51.90625 
Q 56.890625 45.015625 53.6875 40.46875 
Q 50.484375 35.9375 44.390625 34.1875 
z
M 19.671875 64.796875 
L 19.671875 38.921875 
L 32.078125 38.921875 
Q 39.203125 38.921875 42.84375 42.21875 
Q 46.484375 45.515625 46.484375 51.90625 
Q 46.484375 58.296875 42.84375 61.546875 
Q 39.203125 64.796875 32.078125 64.796875 
z
" id="DejaVuSans-52"/>
      <path d="M 37.109375 75.984375 
L 37.109375 68.5 
L 28.515625 68.5 
Q 23.6875 68.5 21.796875 66.546875 
Q 19.921875 64.59375 19.921875 59.515625 
L 19.921875 54.6875 
L 34.71875 54.6875 
L 34.71875 47.703125 
L 19.921875 47.703125 
L 19.921875 0 
L 10.890625 0 
L 10.890625 47.703125 
L 2.296875 47.703125 
L 2.296875 54.6875 
L 10.890625 54.6875 
L 10.890625 58.5 
Q 10.890625 67.625 15.140625 71.796875 
Q 19.390625 75.984375 28.609375 75.984375 
z
" id="DejaVuSans-66"/>
      <path d="M 8.5 21.578125 
L 8.5 54.6875 
L 17.484375 54.6875 
L 17.484375 21.921875 
Q 17.484375 14.15625 20.5 10.265625 
Q 23.53125 6.390625 29.59375 6.390625 
Q 36.859375 6.390625 41.078125 11.03125 
Q 45.3125 15.671875 45.3125 23.6875 
L 45.3125 54.6875 
L 54.296875 54.6875 
L 54.296875 0 
L 45.3125 0 
L 45.3125 8.40625 
Q 42.046875 3.421875 37.71875 1 
Q 33.40625 -1.421875 27.6875 -1.421875 
Q 18.265625 -1.421875 13.375 4.4375 
Q 8.5 10.296875 8.5 21.578125 
z
M 31.109375 56 
z
" id="DejaVuSans-75"/>
      <path d="M 45.40625 27.984375 
Q 45.40625 37.75 41.375 43.109375 
Q 37.359375 48.484375 30.078125 48.484375 
Q 22.859375 48.484375 18.828125 43.109375 
Q 14.796875 37.75 14.796875 27.984375 
Q 14.796875 18.265625 18.828125 12.890625 
Q 22.859375 7.515625 30.078125 7.515625 
Q 37.359375 7.515625 41.375 12.890625 
Q 45.40625 18.265625 45.40625 27.984375 
z
M 54.390625 6.78125 
Q 54.390625 -7.171875 48.1875 -13.984375 
Q 42 -20.796875 29.203125 -20.796875 
Q 24.46875 -20.796875 20.265625 -20.09375 
Q 16.0625 -19.390625 12.109375 -17.921875 
L 12.109375 -9.1875 
Q 16.0625 -11.328125 19.921875 -12.34375 
Q 23.78125 -13.375 27.78125 -13.375 
Q 36.625 -13.375 41.015625 -8.765625 
Q 45.40625 -4.15625 45.40625 5.171875 
L 45.40625 9.625 
Q 42.625 4.78125 38.28125 2.390625 
Q 33.9375 0 27.875 0 
Q 17.828125 0 11.671875 7.65625 
Q 5.515625 15.328125 5.515625 27.984375 
Q 5.515625 40.671875 11.671875 48.328125 
Q 17.828125 56 27.875 56 
Q 33.9375 56 38.28125 53.609375 
Q 42.625 51.21875 45.40625 46.390625 
L 45.40625 54.6875 
L 54.390625 54.6875 
z
" id="DejaVuSans-67"/>
      <path d="M 44.28125 53.078125 
L 44.28125 44.578125 
Q 40.484375 46.53125 36.375 47.5 
Q 32.28125 48.484375 27.875 48.484375 
Q 21.1875 48.484375 17.84375 46.4375 
Q 14.5 44.390625 14.5 40.28125 
Q 14.5 37.15625 16.890625 35.375 
Q 19.28125 33.59375 26.515625 31.984375 
L 29.59375 31.296875 
Q 39.15625 29.25 43.1875 25.515625 
Q 47.21875 21.78125 47.21875 15.09375 
Q 47.21875 7.46875 41.1875 3.015625 
Q 35.15625 -1.421875 24.609375 -1.421875 
Q 20.21875 -1.421875 15.453125 -0.5625 
Q 10.6875 0.296875 5.421875 2 
L 5.421875 11.28125 
Q 10.40625 8.6875 15.234375 7.390625 
Q 20.0625 6.109375 24.8125 6.109375 
Q 31.15625 6.109375 34.5625 8.28125 
Q 37.984375 10.453125 37.984375 14.40625 
Q 37.984375 18.0625 35.515625 20.015625 
Q 33.0625 21.96875 24.703125 23.78125 
L 21.578125 24.515625 
Q 13.234375 26.265625 9.515625 29.90625 
Q 5.8125 33.546875 5.8125 39.890625 
Q 5.8125 47.609375 11.28125 51.796875 
Q 16.75 56 26.8125 56 
Q 31.78125 56 36.171875 55.265625 
Q 40.578125 54.546875 44.28125 53.078125 
z
" id="DejaVuSans-73"/>
     </defs>
     <g style="fill:#ff7f0e;" transform="translate(14.798437 283.588594)rotate(-90)scale(0.1 -0.1)">
      <use xlink:href="#DejaVuSans-52"/>
      <use x="69.419922" xlink:href="#DejaVuSans-65"/>
      <use x="130.943359" xlink:href="#DejaVuSans-66"/>
      <use x="166.148438" xlink:href="#DejaVuSans-75"/>
      <use x="229.527344" xlink:href="#DejaVuSans-67"/>
      <use x="293.003906" xlink:href="#DejaVuSans-65"/>
      <use x="354.527344" xlink:href="#DejaVuSans-65"/>
      <use x="416.050781" xlink:href="#DejaVuSans-73"/>
     </g>
    </g>
   </g>
   <g id="line2d_14">
    <path clip-path="url(#pbe9e71f8e9)" d="M 104.055398 199.376029 
L 108.909682 188.188987 
L 113.763967 183.227653 
L 118.618251 170.074237 
L 123.472536 165.992104 
L 128.32682 158.930303 
L 133.181105 79.135901 
L 138.035389 105.875712 
L 142.889673 143.634445 
L 147.743958 159.217756 
L 152.598242 165.426055 
L 157.452527 158.279702 
L 162.306811 145.781352 
L 167.161096 160.286762 
L 172.01538 202.315125 
L 176.869665 237.986978 
L 181.723949 268.694924 
L 186.578234 279.017829 
L 191.432518 114.201397 
L 196.286803 164.654607 
L 201.141087 207.823546 
L 205.995372 215.323472 
L 210.849656 204.255612 
L 215.703941 185.377248 
L 220.558225 259.219995 
L 225.41251 302.218166 
L 230.266794 360.341256 
L 235.121078 402.53543 
L 239.975363 424.898634 
L 244.829647 426.151239 
L 249.683932 267.511882 
L 254.538216 275.827084 
L 259.392501 303.555758 
L 264.246785 325.891428 
L 269.10107 342.959691 
L 273.955354 349.823322 
L 278.809639 341.142739 
L 283.663923 349.53884 
L 288.518208 373.445092 
L 293.372492 395.104954 
L 298.226777 409.101503 
L 303.081061 413.630786 
L 307.935346 433.80371 
L 317.643914 436.928165 
L 322.498199 432.496717 
L 327.352483 428.741796 
L 332.206768 423.497249 
L 337.061052 437.464901 
L 341.915337 441.70993 
L 346.769621 445.003876 
L 351.623906 442.508326 
L 356.47819 438.591455 
L 361.332475 431.155662 
L 366.186759 453.451459 
L 371.041044 455.830552 
L 375.895328 459.089546 
L 380.749613 457.647239 
L 385.603897 454.909464 
L 390.458182 449.749336 
L 395.312466 452.520757 
L 400.16675 452.374391 
L 405.021035 451.195248 
L 409.875319 445.129029 
L 414.729604 440.064977 
L 419.583888 433.160319 
L 424.438173 440.66278 
L 429.292457 445.866178 
L 434.146742 452.97861 
L 439.001026 455.993089 
L 443.855311 455.606049 
L 448.709595 449.795765 
L 453.56388 461.071901 
L 458.418164 466.204533 
L 463.272449 471.887725 
L 468.126733 472.83911 
L 472.981018 469.45697 
L 477.835302 462.633192 
L 482.689587 456.124534 
L 487.543871 459.98029 
L 492.398155 465.407556 
L 497.25244 466.208933 
L 502.106724 463.081639 
L 506.961009 457.449248 
L 511.815293 455.383307 
L 516.669578 457.650711 
L 521.523862 456.196577 
L 531.232431 440.994307 
L 536.086716 431.615056 
L 540.941 414.553777 
L 545.795285 409.835936 
L 550.649569 418.532358 
L 555.503854 426.25216 
L 560.358138 435.891991 
L 565.212423 440.98511 
L 570.066707 380.380672 
L 574.920991 394.655703 
L 579.775276 404.082376 
L 584.62956 401.813391 
L 589.483845 395.038191 
L 594.338129 383.001129 
L 599.192414 381.568955 
L 604.046698 367.97537 
L 608.900983 363.908396 
L 613.755267 359.357161 
L 618.609552 362.333366 
L 623.463836 363.590003 
L 628.318121 342.521112 
L 633.172405 341.226477 
L 638.02669 344.535912 
L 642.880974 343.07611 
L 647.735259 344.493182 
L 652.589543 340.198478 
L 657.443827 328.93065 
L 662.298112 326.379265 
L 667.152396 331.939594 
L 672.006681 334.145165 
L 676.860965 338.977267 
L 681.71525 337.731418 
L 686.569534 332.196674 
L 691.423819 325.554338 
L 696.278103 332.77561 
L 701.132388 340.432282 
L 705.986672 352.699156 
L 710.840957 356.33919 
L 715.695241 349.849683 
L 720.549526 359.715086 
L 725.40381 372.652298 
L 730.258095 375.36022 
L 735.112379 375.586606 
L 739.966663 371.617278 
L 744.820948 366.28343 
L 749.675232 361.142509 
L 754.529517 361.052432 
L 759.383801 357.798349 
L 764.238086 359.149812 
L 769.09237 356.657091 
L 773.946655 354.481817 
L 778.800939 380.382564 
L 783.655224 404.47497 
L 788.509508 412.340012 
L 793.363793 410.202377 
L 798.218077 401.891944 
L 803.072362 388.082269 
L 807.926646 382.345305 
L 812.780931 378.722321 
L 817.635215 371.230021 
L 822.4895 368.722256 
L 827.343784 364.598415 
L 832.198068 359.842538 
L 837.052353 339.888639 
L 841.906637 326.800926 
L 846.760922 311.615356 
L 851.615206 307.122387 
L 856.469491 304.580653 
L 866.17806 307.270485 
L 871.032344 324.441163 
L 875.886629 340.540148 
L 880.740913 357.230596 
L 885.595198 363.807362 
L 890.449482 383.056746 
L 895.303767 383.712399 
L 900.158051 392.157759 
L 905.012336 398.144612 
L 909.86662 405.575182 
L 914.720904 406.35331 
L 919.575189 400.267372 
L 924.429473 406.82527 
L 929.283758 414.720988 
L 934.138042 416.643099 
L 938.992327 416.293727 
L 943.846611 410.279132 
L 948.700896 434.58901 
L 953.55518 422.227783 
L 958.409465 424.105177 
L 963.263749 430.550156 
L 968.118034 440.291041 
L 972.972318 444.516105 
L 977.826603 413.830868 
L 982.680887 420.332259 
L 987.535172 431.663426 
L 992.389456 439.499931 
L 997.24374 445.494542 
L 1002.098025 443.265657 
L 1006.952309 439.389472 
L 1011.806594 433.051374 
L 1016.660878 433.157367 
L 1021.515163 435.417476 
L 1026.369447 441.400942 
L 1031.223732 440.071222 
L 1036.078016 399.83748 
L 1040.932301 399.348621 
L 1045.786585 395.337623 
L 1050.64087 384.634841 
L 1055.495154 376.418024 
L 1060.349439 366.347657 
L 1065.203723 334.331016 
L 1070.058008 325.424558 
L 1074.912292 334.546066 
L 1079.766577 346.490232 
L 1084.620861 363.285083 
L 1089.475145 371.153815 
L 1094.32943 361.993059 
L 1099.183714 365.165997 
L 1104.037999 376.036331 
L 1108.892283 382.17887 
L 1113.746568 386.787577 
L 1118.600852 385.31782 
L 1118.600852 385.31782 
" style="fill:none;stroke:#008000;stroke-dasharray:5.55,2.4;stroke-dashoffset:0;stroke-width:1.5;"/>
   </g>
   <g id="line2d_15">
    <path clip-path="url(#pbe9e71f8e9)" d="M 104.055398 153.988612 
L 108.909682 167.32067 
L 113.763967 105.001053 
L 118.618251 169.801053 
L 123.472536 105.621148 
L 128.32682 33.38 
L 133.181105 153.988612 
L 138.035389 194.294833 
L 142.889673 134.14555 
L 147.743958 170.731196 
L 152.598242 179.412536 
L 157.452527 143.446986 
L 162.306811 196.465167 
L 167.161096 176.932153 
L 172.01538 161.739809 
L 176.869665 136.625933 
L 181.723949 153.678565 
L 186.578234 137.866124 
L 191.432518 152.128325 
L 196.286803 238.941722 
L 201.141087 207.316842 
L 205.995372 191.81445 
L 210.849656 177.242201 
L 215.703941 208.867081 
L 220.558225 214.75799 
L 225.41251 216.618278 
L 230.266794 250.103445 
L 235.121078 186.853684 
L 239.975363 264.055598 
L 244.829647 280.488134 
L 249.683932 216.928325 
L 254.538216 300.331196 
L 259.392501 320.794354 
L 264.246785 335.366603 
L 269.10107 303.431675 
L 273.955354 369.781914 
L 278.809639 374.742679 
L 283.663923 396.756077 
L 288.518208 405.127368 
L 293.372492 382.493876 
L 298.226777 405.747464 
L 303.081061 421.869952 
L 307.935346 429.001053 
L 312.78963 452.874737 
L 317.643914 450.084306 
L 322.498199 464.036459 
L 327.352483 447.293876 
L 332.206768 448.534067 
L 337.061052 464.966603 
L 341.915337 469.927368 
L 346.769621 454.424976 
L 351.623906 439.852727 
L 356.47819 466.82689 
L 361.332475 459.075694 
L 366.186759 464.346507 
L 371.041044 464.346507 
L 375.895328 456.595311 
L 380.749613 482.329282 
L 385.603897 477.058469 
L 390.458182 440.162775 
L 395.312466 419.079522 
L 400.16675 442.023062 
L 405.021035 451.01445 
L 409.875319 452.564689 
L 414.729604 448.224019 
L 419.583888 456.905359 
L 424.438173 380.013493 
L 429.292457 446.363732 
L 434.146742 466.516842 
L 439.001026 429.931196 
L 443.855311 474.268038 
L 448.709595 456.595311 
L 453.56388 483.879522 
L 458.418164 459.075694 
L 463.272449 466.82689 
L 472.981018 456.285263 
L 477.835302 467.757033 
L 482.689587 441.092919 
L 487.543871 467.136938 
L 492.398155 464.036459 
L 497.25244 485.119713 
L 502.106724 479.8489 
L 506.961009 451.944593 
L 511.815293 468.997225 
L 516.669578 486.98 
L 521.523862 432.411579 
L 526.378147 426.830718 
L 531.232431 403.887177 
L 536.086716 418.149378 
L 540.941 410.70823 
L 545.795285 396.135981 
L 550.649569 417.529282 
L 555.503854 428.691005 
L 560.358138 408.537895 
L 565.212423 428.380957 
L 570.066707 389.314928 
L 574.920991 409.778086 
L 579.775276 405.437416 
L 584.62956 375.052727 
L 589.483845 420.939809 
L 594.338129 387.764689 
L 599.192414 382.183828 
L 604.046698 344.047943 
L 608.900983 345.90823 
L 613.755267 331.646029 
L 618.609552 371.332153 
L 623.463836 377.53311 
L 628.318121 361.100574 
L 633.172405 389.00488 
L 638.02669 346.838373 
L 642.880974 296.300574 
L 647.735259 351.489091 
L 652.589543 334.436459 
L 657.443827 315.523541 
L 662.298112 295.060383 
L 667.152396 285.4489 
L 672.006681 326.065167 
L 676.860965 354.589569 
L 681.71525 350.868995 
L 686.569534 287.929282 
L 691.423819 371.642201 
L 696.278103 362.030718 
L 701.132388 279.55799 
L 705.986672 351.489091 
L 710.840957 363.270909 
L 715.695241 389.624976 
L 720.549526 375.672823 
L 725.40381 376.292919 
L 730.258095 393.965646 
L 735.112379 422.800096 
L 739.966663 347.768517 
L 744.820948 384.354163 
L 749.675232 279.868038 
L 754.529517 372.882392 
L 759.383801 352.419234 
L 764.238086 374.742679 
L 769.09237 327.925455 
L 773.946655 377.223062 
L 778.800939 340.947464 
L 783.655224 368.231675 
L 788.509508 387.764689 
L 793.363793 376.913014 
L 798.218077 399.546507 
L 803.072362 378.153206 
L 807.926646 419.389569 
L 812.780931 392.725455 
L 817.635215 376.602967 
L 822.4895 378.463254 
L 827.343784 357.38 
L 832.198068 368.231675 
L 837.052353 352.109187 
L 841.906637 344.35799 
L 846.760922 379.393397 
L 851.615206 269.636459 
L 856.469491 312.113014 
L 861.323775 239.871866 
L 866.17806 300.641244 
L 871.032344 370.40201 
L 875.886629 256.61445 
L 880.740913 388.384785 
L 885.595198 398.926411 
L 890.449482 354.899617 
L 895.303767 368.85177 
L 900.158051 389.314928 
L 905.012336 373.19244 
L 909.86662 419.699617 
L 914.720904 400.786699 
L 919.575189 383.424019 
L 924.429473 420.009665 
L 929.283758 436.442201 
L 934.138042 383.113971 
L 938.992327 443.883349 
L 943.846611 419.079522 
L 948.700896 404.817321 
L 953.55518 401.096746 
L 958.409465 375.982871 
L 963.263749 409.15799 
L 968.118034 447.293876 
L 972.972318 437.062297 
L 977.826603 424.660383 
L 982.680887 455.975215 
L 987.535172 432.721627 
L 992.389456 416.909187 
L 997.24374 444.503445 
L 1002.098025 443.263254 
L 1006.952309 411.328325 
L 1011.806594 442.023062 
L 1016.660878 409.15799 
L 1021.515163 418.459426 
L 1026.369447 452.564689 
L 1031.223732 423.730239 
L 1036.078016 402.957033 
L 1040.932301 450.394354 
L 1045.786585 402.957033 
L 1050.64087 317.693876 
L 1055.495154 367.611579 
L 1060.349439 364.821148 
L 1065.203723 344.35799 
L 1070.058008 331.335981 
L 1074.912292 310.252727 
L 1079.766577 335.366603 
L 1084.620861 364.201053 
L 1089.475145 380.943636 
L 1094.32943 419.079522 
L 1099.183714 382.803923 
L 1104.037999 380.633589 
L 1108.892283 383.424019 
L 1113.746568 335.366603 
L 1118.600852 407.607751 
L 1118.600852 407.607751 
" style="fill:none;stroke:#ff7f0e;stroke-linecap:square;stroke-width:1.5;"/>
   </g>
   <g id="line2d_16">
    <defs>
     <path d="M 0 3 
C 0.795609 3 1.55874 2.683901 2.12132 2.12132 
C 2.683901 1.55874 3 0.795609 3 0 
C 3 -0.795609 2.683901 -1.55874 2.12132 -2.12132 
C 1.55874 -2.683901 0.795609 -3 0 -3 
C -0.795609 -3 -1.55874 -2.683901 -2.12132 -2.12132 
C -2.683901 -1.55874 -3 -0.795609 -3 0 
C -3 0.795609 -2.683901 1.55874 -2.12132 2.12132 
C -1.55874 2.683901 -0.795609 3 0 3 
z
" id="m62d6c1ae20" style="stroke:#008000;"/>
    </defs>
    <g clip-path="url(#pbe9e71f8e9)">
     <use style="fill:#008000;stroke:#008000;" x="104.055398" xlink:href="#m62d6c1ae20" y="199.376029"/>
     <use style="fill:#008000;stroke:#008000;" x="133.181105" xlink:href="#m62d6c1ae20" y="79.135901"/>
     <use style="fill:#008000;stroke:#008000;" x="162.306811" xlink:href="#m62d6c1ae20" y="145.781352"/>
     <use style="fill:#008000;stroke:#008000;" x="191.432518" xlink:href="#m62d6c1ae20" y="114.201397"/>
     <use style="fill:#008000;stroke:#008000;" x="220.558225" xlink:href="#m62d6c1ae20" y="259.219995"/>
     <use style="fill:#008000;stroke:#008000;" x="249.683932" xlink:href="#m62d6c1ae20" y="267.511882"/>
     <use style="fill:#008000;stroke:#008000;" x="278.809639" xlink:href="#m62d6c1ae20" y="341.142739"/>
     <use style="fill:#008000;stroke:#008000;" x="307.935346" xlink:href="#m62d6c1ae20" y="433.80371"/>
     <use style="fill:#008000;stroke:#008000;" x="337.061052" xlink:href="#m62d6c1ae20" y="437.464901"/>
     <use style="fill:#008000;stroke:#008000;" x="366.186759" xlink:href="#m62d6c1ae20" y="453.451459"/>
     <use style="fill:#008000;stroke:#008000;" x="395.312466" xlink:href="#m62d6c1ae20" y="452.520757"/>
     <use style="fill:#008000;stroke:#008000;" x="424.438173" xlink:href="#m62d6c1ae20" y="440.66278"/>
     <use style="fill:#008000;stroke:#008000;" x="453.56388" xlink:href="#m62d6c1ae20" y="461.071901"/>
     <use style="fill:#008000;stroke:#008000;" x="482.689587" xlink:href="#m62d6c1ae20" y="456.124534"/>
     <use style="fill:#008000;stroke:#008000;" x="511.815293" xlink:href="#m62d6c1ae20" y="455.383307"/>
     <use style="fill:#008000;stroke:#008000;" x="540.941" xlink:href="#m62d6c1ae20" y="414.553777"/>
     <use style="fill:#008000;stroke:#008000;" x="570.066707" xlink:href="#m62d6c1ae20" y="380.380672"/>
     <use style="fill:#008000;stroke:#008000;" x="599.192414" xlink:href="#m62d6c1ae20" y="381.568955"/>
     <use style="fill:#008000;stroke:#008000;" x="628.318121" xlink:href="#m62d6c1ae20" y="342.521112"/>
     <use style="fill:#008000;stroke:#008000;" x="657.443827" xlink:href="#m62d6c1ae20" y="328.93065"/>
     <use style="fill:#008000;stroke:#008000;" x="686.569534" xlink:href="#m62d6c1ae20" y="332.196674"/>
     <use style="fill:#008000;stroke:#008000;" x="715.695241" xlink:href="#m62d6c1ae20" y="349.849683"/>
     <use style="fill:#008000;stroke:#008000;" x="744.820948" xlink:href="#m62d6c1ae20" y="366.28343"/>
     <use style="fill:#008000;stroke:#008000;" x="773.946655" xlink:href="#m62d6c1ae20" y="354.481817"/>
     <use style="fill:#008000;stroke:#008000;" x="803.072362" xlink:href="#m62d6c1ae20" y="388.082269"/>
     <use style="fill:#008000;stroke:#008000;" x="832.198068" xlink:href="#m62d6c1ae20" y="359.842538"/>
     <use style="fill:#008000;stroke:#008000;" x="861.323775" xlink:href="#m62d6c1ae20" y="305.907137"/>
     <use style="fill:#008000;stroke:#008000;" x="890.449482" xlink:href="#m62d6c1ae20" y="383.056746"/>
     <use style="fill:#008000;stroke:#008000;" x="919.575189" xlink:href="#m62d6c1ae20" y="400.267372"/>
     <use style="fill:#008000;stroke:#008000;" x="948.700896" xlink:href="#m62d6c1ae20" y="434.58901"/>
     <use style="fill:#008000;stroke:#008000;" x="977.826603" xlink:href="#m62d6c1ae20" y="413.830868"/>
     <use style="fill:#008000;stroke:#008000;" x="1006.952309" xlink:href="#m62d6c1ae20" y="439.389472"/>
     <use style="fill:#008000;stroke:#008000;" x="1036.078016" xlink:href="#m62d6c1ae20" y="399.83748"/>
     <use style="fill:#008000;stroke:#008000;" x="1065.203723" xlink:href="#m62d6c1ae20" y="334.331016"/>
     <use style="fill:#008000;stroke:#008000;" x="1094.32943" xlink:href="#m62d6c1ae20" y="361.993059"/>
    </g>
   </g>
   <g id="patch_3">
    <path d="M 53.328125 509.66 
L 53.328125 10.7 
" style="fill:none;stroke:#000000;stroke-linecap:square;stroke-linejoin:miter;stroke-width:0.8;"/>
   </g>
   <g id="patch_4">
    <path d="M 1169.328125 509.66 
L 1169.328125 10.7 
" style="fill:none;stroke:#000000;stroke-linecap:square;stroke-linejoin:miter;stroke-width:0.8;"/>
   </g>
   <g id="patch_5">
    <path d="M 53.328125 509.66 
L 1169.328125 509.66 
" style="fill:none;stroke:#000000;stroke-linecap:square;stroke-linejoin:miter;stroke-width:0.8;"/>
   </g>
   <g id="patch_6">
    <path d="M 53.328125 10.7 
L 1169.328125 10.7 
" style="fill:none;stroke:#000000;stroke-linecap:square;stroke-linejoin:miter;stroke-width:0.8;"/>
   </g>
   <g id="legend_1">
    <g id="patch_7">
     <path d="M 60.328125 62.734375 
L 208.103125 62.734375 
Q 210.103125 62.734375 210.103125 60.734375 
L 210.103125 17.7 
Q 210.103125 15.7 208.103125 15.7 
L 60.328125 15.7 
Q 58.328125 15.7 58.328125 17.7 
L 58.328125 60.734375 
Q 58.328125 62.734375 60.328125 62.734375 
z
" style="fill:#ffffff;opacity:0.8;stroke:#cccccc;stroke-linejoin:miter;"/>
    </g>
    <g id="line2d_17">
     <path d="M 62.328125 23.798437 
L 82.328125 23.798437 
" style="fill:none;stroke:#008000;stroke-dasharray:5.55,2.4;stroke-dashoffset:0;stroke-width:1.5;"/>
    </g>
    <g id="line2d_18"/>
    <g id="text_16">
     <!-- Predicted -->
     <defs>
      <path d="M 19.671875 64.796875 
L 19.671875 37.40625 
L 32.078125 37.40625 
Q 38.96875 37.40625 42.71875 40.96875 
Q 46.484375 44.53125 46.484375 51.125 
Q 46.484375 57.671875 42.71875 61.234375 
Q 38.96875 64.796875 32.078125 64.796875 
z
M 9.8125 72.90625 
L 32.078125 72.90625 
Q 44.34375 72.90625 50.609375 67.359375 
Q 56.890625 61.8125 56.890625 51.125 
Q 56.890625 40.328125 50.609375 34.8125 
Q 44.34375 29.296875 32.078125 29.296875 
L 19.671875 29.296875 
L 19.671875 0 
L 9.8125 0 
z
" id="DejaVuSans-50"/>
      <path d="M 41.109375 46.296875 
Q 39.59375 47.171875 37.8125 47.578125 
Q 36.03125 48 33.890625 48 
Q 26.265625 48 22.1875 43.046875 
Q 18.109375 38.09375 18.109375 28.8125 
L 18.109375 0 
L 9.078125 0 
L 9.078125 54.6875 
L 18.109375 54.6875 
L 18.109375 46.1875 
Q 20.953125 51.171875 25.484375 53.578125 
Q 30.03125 56 36.53125 56 
Q 37.453125 56 38.578125 55.875 
Q 39.703125 55.765625 41.0625 55.515625 
z
" id="DejaVuSans-72"/>
      <path d="M 45.40625 46.390625 
L 45.40625 75.984375 
L 54.390625 75.984375 
L 54.390625 0 
L 45.40625 0 
L 45.40625 8.203125 
Q 42.578125 3.328125 38.25 0.953125 
Q 33.9375 -1.421875 27.875 -1.421875 
Q 17.96875 -1.421875 11.734375 6.484375 
Q 5.515625 14.40625 5.515625 27.296875 
Q 5.515625 40.1875 11.734375 48.09375 
Q 17.96875 56 27.875 56 
Q 33.9375 56 38.25 53.625 
Q 42.578125 51.265625 45.40625 46.390625 
z
M 14.796875 27.296875 
Q 14.796875 17.390625 18.875 11.75 
Q 22.953125 6.109375 30.078125 6.109375 
Q 37.203125 6.109375 41.296875 11.75 
Q 45.40625 17.390625 45.40625 27.296875 
Q 45.40625 37.203125 41.296875 42.84375 
Q 37.203125 48.484375 30.078125 48.484375 
Q 22.953125 48.484375 18.875 42.84375 
Q 14.796875 37.203125 14.796875 27.296875 
z
" id="DejaVuSans-64"/>
      <path d="M 48.78125 52.59375 
L 48.78125 44.1875 
Q 44.96875 46.296875 41.140625 47.34375 
Q 37.3125 48.390625 33.40625 48.390625 
Q 24.65625 48.390625 19.8125 42.84375 
Q 14.984375 37.3125 14.984375 27.296875 
Q 14.984375 17.28125 19.8125 11.734375 
Q 24.65625 6.203125 33.40625 6.203125 
Q 37.3125 6.203125 41.140625 7.25 
Q 44.96875 8.296875 48.78125 10.40625 
L 48.78125 2.09375 
Q 45.015625 0.34375 40.984375 -0.53125 
Q 36.96875 -1.421875 32.421875 -1.421875 
Q 20.0625 -1.421875 12.78125 6.34375 
Q 5.515625 14.109375 5.515625 27.296875 
Q 5.515625 40.671875 12.859375 48.328125 
Q 20.21875 56 33.015625 56 
Q 37.15625 56 41.109375 55.140625 
Q 45.0625 54.296875 48.78125 52.59375 
z
" id="DejaVuSans-63"/>
      <path d="M 18.3125 70.21875 
L 18.3125 54.6875 
L 36.8125 54.6875 
L 36.8125 47.703125 
L 18.3125 47.703125 
L 18.3125 18.015625 
Q 18.3125 11.328125 20.140625 9.421875 
Q 21.96875 7.515625 27.59375 7.515625 
L 36.8125 7.515625 
L 36.8125 0 
L 27.59375 0 
Q 17.1875 0 13.234375 3.875 
Q 9.28125 7.765625 9.28125 18.015625 
L 9.28125 47.703125 
L 2.6875 47.703125 
L 2.6875 54.6875 
L 9.28125 54.6875 
L 9.28125 70.21875 
z
" id="DejaVuSans-74"/>
     </defs>
     <g transform="translate(90.328125 27.298437)scale(0.1 -0.1)">
      <use xlink:href="#DejaVuSans-50"/>
      <use x="60.287109" xlink:href="#DejaVuSans-72"/>
      <use x="101.369141" xlink:href="#DejaVuSans-65"/>
      <use x="162.892578" xlink:href="#DejaVuSans-64"/>
      <use x="226.369141" xlink:href="#DejaVuSans-69"/>
      <use x="254.152344" xlink:href="#DejaVuSans-63"/>
      <use x="309.132812" xlink:href="#DejaVuSans-74"/>
      <use x="348.341797" xlink:href="#DejaVuSans-65"/>
      <use x="409.865234" xlink:href="#DejaVuSans-64"/>
     </g>
    </g>
    <g id="line2d_19">
     <path d="M 62.328125 38.476562 
L 82.328125 38.476562 
" style="fill:none;stroke:#ff7f0e;stroke-linecap:square;stroke-width:1.5;"/>
    </g>
    <g id="line2d_20"/>
    <g id="text_17">
     <!-- Real Data -->
     <defs>
      <path d="M 34.28125 27.484375 
Q 23.390625 27.484375 19.1875 25 
Q 14.984375 22.515625 14.984375 16.5 
Q 14.984375 11.71875 18.140625 8.90625 
Q 21.296875 6.109375 26.703125 6.109375 
Q 34.1875 6.109375 38.703125 11.40625 
Q 43.21875 16.703125 43.21875 25.484375 
L 43.21875 27.484375 
z
M 52.203125 31.203125 
L 52.203125 0 
L 43.21875 0 
L 43.21875 8.296875 
Q 40.140625 3.328125 35.546875 0.953125 
Q 30.953125 -1.421875 24.3125 -1.421875 
Q 15.921875 -1.421875 10.953125 3.296875 
Q 6 8.015625 6 15.921875 
Q 6 25.140625 12.171875 29.828125 
Q 18.359375 34.515625 30.609375 34.515625 
L 43.21875 34.515625 
L 43.21875 35.40625 
Q 43.21875 41.609375 39.140625 45 
Q 35.0625 48.390625 27.6875 48.390625 
Q 23 48.390625 18.546875 47.265625 
Q 14.109375 46.140625 10.015625 43.890625 
L 10.015625 52.203125 
Q 14.9375 54.109375 19.578125 55.046875 
Q 24.21875 56 28.609375 56 
Q 40.484375 56 46.34375 49.84375 
Q 52.203125 43.703125 52.203125 31.203125 
z
" id="DejaVuSans-61"/>
      <path d="M 9.421875 75.984375 
L 18.40625 75.984375 
L 18.40625 0 
L 9.421875 0 
z
" id="DejaVuSans-6c"/>
      <path id="DejaVuSans-20"/>
      <path d="M 19.671875 64.796875 
L 19.671875 8.109375 
L 31.59375 8.109375 
Q 46.6875 8.109375 53.6875 14.9375 
Q 60.6875 21.78125 60.6875 36.53125 
Q 60.6875 51.171875 53.6875 57.984375 
Q 46.6875 64.796875 31.59375 64.796875 
z
M 9.8125 72.90625 
L 30.078125 72.90625 
Q 51.265625 72.90625 61.171875 64.09375 
Q 71.09375 55.28125 71.09375 36.53125 
Q 71.09375 17.671875 61.125 8.828125 
Q 51.171875 0 30.078125 0 
L 9.8125 0 
z
" id="DejaVuSans-44"/>
     </defs>
     <g transform="translate(90.328125 41.976562)scale(0.1 -0.1)">
      <use xlink:href="#DejaVuSans-52"/>
      <use x="69.419922" xlink:href="#DejaVuSans-65"/>
      <use x="130.943359" xlink:href="#DejaVuSans-61"/>
      <use x="192.222656" xlink:href="#DejaVuSans-6c"/>
      <use x="220.005859" xlink:href="#DejaVuSans-20"/>
      <use x="251.792969" xlink:href="#DejaVuSans-44"/>
      <use x="328.794922" xlink:href="#DejaVuSans-61"/>
      <use x="390.074219" xlink:href="#DejaVuSans-74"/>
      <use x="429.283203" xlink:href="#DejaVuSans-61"/>
     </g>
    </g>
    <g id="line2d_21"/>
    <g id="line2d_22">
     <g>
      <use style="fill:#008000;stroke:#008000;" x="72.328125" xlink:href="#m62d6c1ae20" y="53.154688"/>
     </g>
    </g>
    <g id="text_18">
     <!-- Start Point for Forecast -->
     <defs>
      <path d="M 53.515625 70.515625 
L 53.515625 60.890625 
Q 47.90625 63.578125 42.921875 64.890625 
Q 37.9375 66.21875 33.296875 66.21875 
Q 25.25 66.21875 20.875 63.09375 
Q 16.5 59.96875 16.5 54.203125 
Q 16.5 49.359375 19.40625 46.890625 
Q 22.3125 44.4375 30.421875 42.921875 
L 36.375 41.703125 
Q 47.40625 39.59375 52.65625 34.296875 
Q 57.90625 29 57.90625 20.125 
Q 57.90625 9.515625 50.796875 4.046875 
Q 43.703125 -1.421875 29.984375 -1.421875 
Q 24.8125 -1.421875 18.96875 -0.25 
Q 13.140625 0.921875 6.890625 3.21875 
L 6.890625 13.375 
Q 12.890625 10.015625 18.65625 8.296875 
Q 24.421875 6.59375 29.984375 6.59375 
Q 38.421875 6.59375 43.015625 9.90625 
Q 47.609375 13.234375 47.609375 19.390625 
Q 47.609375 24.75 44.3125 27.78125 
Q 41.015625 30.8125 33.5 32.328125 
L 27.484375 33.5 
Q 16.453125 35.6875 11.515625 40.375 
Q 6.59375 45.0625 6.59375 53.421875 
Q 6.59375 63.09375 13.40625 68.65625 
Q 20.21875 74.21875 32.171875 74.21875 
Q 37.3125 74.21875 42.625 73.28125 
Q 47.953125 72.359375 53.515625 70.515625 
z
" id="DejaVuSans-53"/>
      <path d="M 30.609375 48.390625 
Q 23.390625 48.390625 19.1875 42.75 
Q 14.984375 37.109375 14.984375 27.296875 
Q 14.984375 17.484375 19.15625 11.84375 
Q 23.34375 6.203125 30.609375 6.203125 
Q 37.796875 6.203125 41.984375 11.859375 
Q 46.1875 17.53125 46.1875 27.296875 
Q 46.1875 37.015625 41.984375 42.703125 
Q 37.796875 48.390625 30.609375 48.390625 
z
M 30.609375 56 
Q 42.328125 56 49.015625 48.375 
Q 55.71875 40.765625 55.71875 27.296875 
Q 55.71875 13.875 49.015625 6.21875 
Q 42.328125 -1.421875 30.609375 -1.421875 
Q 18.84375 -1.421875 12.171875 6.21875 
Q 5.515625 13.875 5.515625 27.296875 
Q 5.515625 40.765625 12.171875 48.375 
Q 18.84375 56 30.609375 56 
z
" id="DejaVuSans-6f"/>
      <path d="M 54.890625 33.015625 
L 54.890625 0 
L 45.90625 0 
L 45.90625 32.71875 
Q 45.90625 40.484375 42.875 44.328125 
Q 39.84375 48.1875 33.796875 48.1875 
Q 26.515625 48.1875 22.3125 43.546875 
Q 18.109375 38.921875 18.109375 30.90625 
L 18.109375 0 
L 9.078125 0 
L 9.078125 54.6875 
L 18.109375 54.6875 
L 18.109375 46.1875 
Q 21.34375 51.125 25.703125 53.5625 
Q 30.078125 56 35.796875 56 
Q 45.21875 56 50.046875 50.171875 
Q 54.890625 44.34375 54.890625 33.015625 
z
" id="DejaVuSans-6e"/>
      <path d="M 9.8125 72.90625 
L 51.703125 72.90625 
L 51.703125 64.59375 
L 19.671875 64.59375 
L 19.671875 43.109375 
L 48.578125 43.109375 
L 48.578125 34.8125 
L 19.671875 34.8125 
L 19.671875 0 
L 9.8125 0 
z
" id="DejaVuSans-46"/>
     </defs>
     <g transform="translate(90.328125 56.654688)scale(0.1 -0.1)">
      <use xlink:href="#DejaVuSans-53"/>
      <use x="63.476562" xlink:href="#DejaVuSans-74"/>
      <use x="102.685547" xlink:href="#DejaVuSans-61"/>
      <use x="163.964844" xlink:href="#DejaVuSans-72"/>
      <use x="205.078125" xlink:href="#DejaVuSans-74"/>
      <use x="244.287109" xlink:href="#DejaVuSans-20"/>
      <use x="276.074219" xlink:href="#DejaVuSans-50"/>
      <use x="336.330078" xlink:href="#DejaVuSans-6f"/>
      <use x="397.511719" xlink:href="#DejaVuSans-69"/>
      <use x="425.294922" xlink:href="#DejaVuSans-6e"/>
      <use x="488.673828" xlink:href="#DejaVuSans-74"/>
      <use x="527.882812" xlink:href="#DejaVuSans-20"/>
      <use x="559.669922" xlink:href="#DejaVuSans-66"/>
      <use x="594.875" xlink:href="#DejaVuSans-6f"/>
      <use x="656.056641" xlink:href="#DejaVuSans-72"/>
      <use x="697.169922" xlink:href="#DejaVuSans-20"/>
      <use x="728.957031" xlink:href="#DejaVuSans-46"/>
      <use x="786.429688" xlink:href="#DejaVuSans-6f"/>
      <use x="847.611328" xlink:href="#DejaVuSans-72"/>
      <use x="888.693359" xlink:href="#DejaVuSans-65"/>
      <use x="950.216797" xlink:href="#DejaVuSans-63"/>
      <use x="1005.197266" xlink:href="#DejaVuSans-61"/>
      <use x="1066.476562" xlink:href="#DejaVuSans-73"/>
      <use x="1118.576172" xlink:href="#DejaVuSans-74"/>
     </g>
    </g>
   </g>
  </g>
  <g id="axes_2">
   <g id="patch_8">
    <path d="M 53.328125 645.74 
L 1170.768125 645.74 
L 1170.768125 516.14 
L 53.328125 516.14 
z
" style="fill:none;"/>
   </g>
   <g id="matplotlib.axis_3">
    <g id="xtick_6">
     <g id="line2d_23">
      <g>
       <use style="stroke:#000000;stroke-width:0.8;" x="104.120852" xlink:href="#m660f1dcc96" y="645.74"/>
      </g>
     </g>
     <g id="text_19">
      <!-- 0 -->
      <g transform="translate(100.939602 660.338437)scale(0.1 -0.1)">
       <use xlink:href="#DejaVuSans-30"/>
      </g>
     </g>
    </g>
    <g id="xtick_7">
     <g id="line2d_24">
      <g>
       <use style="stroke:#000000;stroke-width:0.8;" x="228.612831" xlink:href="#m660f1dcc96" y="645.74"/>
      </g>
     </g>
     <g id="text_20">
      <!-- 25 -->
      <g transform="translate(222.250331 660.338437)scale(0.1 -0.1)">
       <use xlink:href="#DejaVuSans-32"/>
       <use x="63.623047" xlink:href="#DejaVuSans-35"/>
      </g>
     </g>
    </g>
    <g id="xtick_8">
     <g id="line2d_25">
      <g>
       <use style="stroke:#000000;stroke-width:0.8;" x="353.104809" xlink:href="#m660f1dcc96" y="645.74"/>
      </g>
     </g>
     <g id="text_21">
      <!-- 50 -->
      <g transform="translate(346.742309 660.338437)scale(0.1 -0.1)">
       <use xlink:href="#DejaVuSans-35"/>
       <use x="63.623047" xlink:href="#DejaVuSans-30"/>
      </g>
     </g>
    </g>
    <g id="xtick_9">
     <g id="line2d_26">
      <g>
       <use style="stroke:#000000;stroke-width:0.8;" x="477.596788" xlink:href="#m660f1dcc96" y="645.74"/>
      </g>
     </g>
     <g id="text_22">
      <!-- 75 -->
      <defs>
       <path d="M 8.203125 72.90625 
L 55.078125 72.90625 
L 55.078125 68.703125 
L 28.609375 0 
L 18.3125 0 
L 43.21875 64.59375 
L 8.203125 64.59375 
z
" id="DejaVuSans-37"/>
      </defs>
      <g transform="translate(471.234288 660.338437)scale(0.1 -0.1)">
       <use xlink:href="#DejaVuSans-37"/>
       <use x="63.623047" xlink:href="#DejaVuSans-35"/>
      </g>
     </g>
    </g>
    <g id="xtick_10">
     <g id="line2d_27">
      <g>
       <use style="stroke:#000000;stroke-width:0.8;" x="602.088767" xlink:href="#m660f1dcc96" y="645.74"/>
      </g>
     </g>
     <g id="text_23">
      <!-- 100 -->
      <g transform="translate(592.545017 660.338437)scale(0.1 -0.1)">
       <use xlink:href="#DejaVuSans-31"/>
       <use x="63.623047" xlink:href="#DejaVuSans-30"/>
       <use x="127.246094" xlink:href="#DejaVuSans-30"/>
      </g>
     </g>
    </g>
    <g id="xtick_11">
     <g id="line2d_28">
      <g>
       <use style="stroke:#000000;stroke-width:0.8;" x="726.580745" xlink:href="#m660f1dcc96" y="645.74"/>
      </g>
     </g>
     <g id="text_24">
      <!-- 125 -->
      <g transform="translate(717.036995 660.338437)scale(0.1 -0.1)">
       <use xlink:href="#DejaVuSans-31"/>
       <use x="63.623047" xlink:href="#DejaVuSans-32"/>
       <use x="127.246094" xlink:href="#DejaVuSans-35"/>
      </g>
     </g>
    </g>
    <g id="xtick_12">
     <g id="line2d_29">
      <g>
       <use style="stroke:#000000;stroke-width:0.8;" x="851.072724" xlink:href="#m660f1dcc96" y="645.74"/>
      </g>
     </g>
     <g id="text_25">
      <!-- 150 -->
      <g transform="translate(841.528974 660.338437)scale(0.1 -0.1)">
       <use xlink:href="#DejaVuSans-31"/>
       <use x="63.623047" xlink:href="#DejaVuSans-35"/>
       <use x="127.246094" xlink:href="#DejaVuSans-30"/>
      </g>
     </g>
    </g>
    <g id="xtick_13">
     <g id="line2d_30">
      <g>
       <use style="stroke:#000000;stroke-width:0.8;" x="975.564703" xlink:href="#m660f1dcc96" y="645.74"/>
      </g>
     </g>
     <g id="text_26">
      <!-- 175 -->
      <g transform="translate(966.020953 660.338437)scale(0.1 -0.1)">
       <use xlink:href="#DejaVuSans-31"/>
       <use x="63.623047" xlink:href="#DejaVuSans-37"/>
       <use x="127.246094" xlink:href="#DejaVuSans-35"/>
      </g>
     </g>
    </g>
    <g id="xtick_14">
     <g id="line2d_31">
      <g>
       <use style="stroke:#000000;stroke-width:0.8;" x="1100.056681" xlink:href="#m660f1dcc96" y="645.74"/>
      </g>
     </g>
     <g id="text_27">
      <!-- 200 -->
      <g transform="translate(1090.512931 660.338437)scale(0.1 -0.1)">
       <use xlink:href="#DejaVuSans-32"/>
       <use x="63.623047" xlink:href="#DejaVuSans-30"/>
       <use x="127.246094" xlink:href="#DejaVuSans-30"/>
      </g>
     </g>
    </g>
   </g>
   <g id="matplotlib.axis_4">
    <g id="ytick_9">
     <g id="line2d_32">
      <g>
       <use style="stroke:#000000;stroke-width:0.8;" x="53.328125" xlink:href="#m3f9b6c8664" y="622.775132"/>
      </g>
     </g>
     <g id="text_28">
      <!-- 15 -->
      <g transform="translate(33.603125 626.574351)scale(0.1 -0.1)">
       <use xlink:href="#DejaVuSans-31"/>
       <use x="63.623047" xlink:href="#DejaVuSans-35"/>
      </g>
     </g>
    </g>
    <g id="ytick_10">
     <g id="line2d_33">
      <g>
       <use style="stroke:#000000;stroke-width:0.8;" x="53.328125" xlink:href="#m3f9b6c8664" y="596.547854"/>
      </g>
     </g>
     <g id="text_29">
      <!-- 20 -->
      <g transform="translate(33.603125 600.347072)scale(0.1 -0.1)">
       <use xlink:href="#DejaVuSans-32"/>
       <use x="63.623047" xlink:href="#DejaVuSans-30"/>
      </g>
     </g>
    </g>
    <g id="ytick_11">
     <g id="line2d_34">
      <g>
       <use style="stroke:#000000;stroke-width:0.8;" x="53.328125" xlink:href="#m3f9b6c8664" y="570.320575"/>
      </g>
     </g>
     <g id="text_30">
      <!-- 25 -->
      <g transform="translate(33.603125 574.119794)scale(0.1 -0.1)">
       <use xlink:href="#DejaVuSans-32"/>
       <use x="63.623047" xlink:href="#DejaVuSans-35"/>
      </g>
     </g>
    </g>
    <g id="ytick_12">
     <g id="line2d_35">
      <g>
       <use style="stroke:#000000;stroke-width:0.8;" x="53.328125" xlink:href="#m3f9b6c8664" y="544.093296"/>
      </g>
     </g>
     <g id="text_31">
      <!-- 30 -->
      <defs>
       <path d="M 40.578125 39.3125 
Q 47.65625 37.796875 51.625 33 
Q 55.609375 28.21875 55.609375 21.1875 
Q 55.609375 10.40625 48.1875 4.484375 
Q 40.765625 -1.421875 27.09375 -1.421875 
Q 22.515625 -1.421875 17.65625 -0.515625 
Q 12.796875 0.390625 7.625 2.203125 
L 7.625 11.71875 
Q 11.71875 9.328125 16.59375 8.109375 
Q 21.484375 6.890625 26.8125 6.890625 
Q 36.078125 6.890625 40.9375 10.546875 
Q 45.796875 14.203125 45.796875 21.1875 
Q 45.796875 27.640625 41.28125 31.265625 
Q 36.765625 34.90625 28.71875 34.90625 
L 20.21875 34.90625 
L 20.21875 43.015625 
L 29.109375 43.015625 
Q 36.375 43.015625 40.234375 45.921875 
Q 44.09375 48.828125 44.09375 54.296875 
Q 44.09375 59.90625 40.109375 62.90625 
Q 36.140625 65.921875 28.71875 65.921875 
Q 24.65625 65.921875 20.015625 65.03125 
Q 15.375 64.15625 9.8125 62.3125 
L 9.8125 71.09375 
Q 15.4375 72.65625 20.34375 73.4375 
Q 25.25 74.21875 29.59375 74.21875 
Q 40.828125 74.21875 47.359375 69.109375 
Q 53.90625 64.015625 53.90625 55.328125 
Q 53.90625 49.265625 50.4375 45.09375 
Q 46.96875 40.921875 40.578125 39.3125 
z
" id="DejaVuSans-33"/>
      </defs>
      <g transform="translate(33.603125 547.892515)scale(0.1 -0.1)">
       <use xlink:href="#DejaVuSans-33"/>
       <use x="63.623047" xlink:href="#DejaVuSans-30"/>
      </g>
     </g>
    </g>
    <g id="ytick_13">
     <g id="line2d_36">
      <g>
       <use style="stroke:#000000;stroke-width:0.8;" x="53.328125" xlink:href="#m3f9b6c8664" y="517.866017"/>
      </g>
     </g>
     <g id="text_32">
      <!-- 35 -->
      <g transform="translate(33.603125 521.665236)scale(0.1 -0.1)">
       <use xlink:href="#DejaVuSans-33"/>
       <use x="63.623047" xlink:href="#DejaVuSans-35"/>
      </g>
     </g>
    </g>
    <g id="text_33">
     <!-- Temperature -->
     <defs>
      <path d="M 18.109375 8.203125 
L 18.109375 -20.796875 
L 9.078125 -20.796875 
L 9.078125 54.6875 
L 18.109375 54.6875 
L 18.109375 46.390625 
Q 20.953125 51.265625 25.265625 53.625 
Q 29.59375 56 35.59375 56 
Q 45.5625 56 51.78125 48.09375 
Q 58.015625 40.1875 58.015625 27.296875 
Q 58.015625 14.40625 51.78125 6.484375 
Q 45.5625 -1.421875 35.59375 -1.421875 
Q 29.59375 -1.421875 25.265625 0.953125 
Q 20.953125 3.328125 18.109375 8.203125 
z
M 48.6875 27.296875 
Q 48.6875 37.203125 44.609375 42.84375 
Q 40.53125 48.484375 33.40625 48.484375 
Q 26.265625 48.484375 22.1875 42.84375 
Q 18.109375 37.203125 18.109375 27.296875 
Q 18.109375 17.390625 22.1875 11.75 
Q 26.265625 6.109375 33.40625 6.109375 
Q 40.53125 6.109375 44.609375 11.75 
Q 48.6875 17.390625 48.6875 27.296875 
z
" id="DejaVuSans-70"/>
     </defs>
     <g style="fill:#0000ff;" transform="translate(27.523437 613.557187)rotate(-90)scale(0.1 -0.1)">
      <use xlink:href="#DejaVuSans-54"/>
      <use x="60.818359" xlink:href="#DejaVuSans-65"/>
      <use x="122.341797" xlink:href="#DejaVuSans-6d"/>
      <use x="219.753906" xlink:href="#DejaVuSans-70"/>
      <use x="283.230469" xlink:href="#DejaVuSans-65"/>
      <use x="344.753906" xlink:href="#DejaVuSans-72"/>
      <use x="385.867188" xlink:href="#DejaVuSans-61"/>
      <use x="447.146484" xlink:href="#DejaVuSans-74"/>
      <use x="486.355469" xlink:href="#DejaVuSans-75"/>
      <use x="549.734375" xlink:href="#DejaVuSans-72"/>
      <use x="590.816406" xlink:href="#DejaVuSans-65"/>
     </g>
    </g>
   </g>
   <g id="line2d_37">
    <path clip-path="url(#pd797e8f3fb)" d="M 104.120852 532.848088 
L 109.100531 534.284294 
L 114.080211 532.423206 
L 119.05989 542.200736 
L 124.039569 541.470568 
L 129.019248 544.093296 
L 133.998927 543.306478 
L 138.978606 540.68375 
L 143.958285 538.192158 
L 148.937965 532.994961 
L 153.917644 532.480906 
L 158.897323 531.094008 
L 163.877002 532.422157 
L 168.856681 539.313637 
L 173.83636 539.590597 
L 178.816039 538.486953 
L 183.795719 540.890421 
L 188.775398 552.424129 
L 193.755077 544.161487 
L 198.734756 550.784399 
L 208.694114 530.820719 
L 213.673793 528.445052 
L 218.653473 529.03674 
L 223.633152 526.438666 
L 228.612831 529.169974 
L 233.59251 534.803594 
L 238.572189 538.681035 
L 243.551868 544.46415 
L 248.531547 540.180186 
L 253.511227 555.208417 
L 258.490906 535.213789 
L 263.470585 547.562116 
L 268.450264 532.330361 
L 273.429943 525.193919 
L 278.409622 522.030909 
L 283.389301 537.963981 
L 288.368981 534.700783 
L 293.34866 530.472421 
L 298.328339 541.399754 
L 303.308018 542.871105 
L 308.287697 544.503491 
L 313.267376 551.276948 
L 318.247055 545.441378 
L 323.226735 533.073643 
L 328.206414 533.15757 
L 333.186093 533.758699 
L 338.165772 527.382323 
L 343.145451 531.87558 
L 348.12513 531.85827 
L 353.104809 532.650334 
L 358.084489 539.814053 
L 363.064168 542.298301 
L 368.043847 547.178673 
L 373.023526 544.06025 
L 378.003205 542.691186 
L 382.982884 542.423143 
L 387.962564 531.171116 
L 392.942243 532.958243 
L 397.921922 530.843275 
L 402.901601 536.832536 
L 407.88128 529.905387 
L 412.860959 536.477943 
L 417.840638 544.237546 
L 422.820318 543.483774 
L 427.799997 552.995884 
L 432.779676 549.604696 
L 437.759355 543.219928 
L 442.739034 539.041922 
L 447.718713 533.728275 
L 452.698392 533.181174 
L 457.678072 529.689275 
L 462.657751 530.246866 
L 467.63743 527.712787 
L 472.617109 532.733212 
L 477.596788 540.200119 
L 482.576467 547.021309 
L 487.556146 543.944325 
L 492.535826 544.228629 
L 497.515505 537.065434 
L 502.495184 534.811987 
L 507.474863 534.353534 
L 512.454542 527.954602 
L 517.434221 529.940007 
L 522.4139 534.548665 
L 527.39358 536.825193 
L 532.373259 537.849105 
L 537.352938 542.286761 
L 542.332617 540.447704 
L 547.312296 542.527527 
L 552.291975 537.76308 
L 557.271654 535.682208 
L 562.251334 542.383277 
L 567.231013 534.735403 
L 572.210692 531.900759 
L 577.190371 532.585815 
L 582.17005 537.413733 
L 587.149729 535.875765 
L 592.129408 536.225112 
L 597.109088 547.765115 
L 602.088767 543.149114 
L 607.068446 542.810782 
L 612.048125 543.175341 
L 617.027804 535.137729 
L 622.007483 540.514846 
L 626.987162 542.12625 
L 631.966842 532.815566 
L 636.946521 533.637005 
L 641.9262 537.064385 
L 651.885558 538.795386 
L 656.865237 540.552613 
L 661.844916 540.68375 
L 666.824596 551.96148 
L 676.783954 548.814206 
L 681.763633 533.427711 
L 686.743312 531.67363 
L 691.722991 533.409352 
L 696.70267 536.494729 
L 701.68235 534.60584 
L 706.662029 535.872618 
L 711.641708 536.538266 
L 716.621387 537.357606 
L 721.601066 546.275406 
L 726.580745 556.152599 
L 731.560424 549.589485 
L 736.540104 540.118814 
L 741.519783 528.567796 
L 746.499462 529.098636 
L 751.479141 533.246218 
L 756.45882 534.697111 
L 761.438499 535.077931 
L 766.418178 538.615991 
L 771.397858 539.868606 
L 776.377537 540.797576 
L 781.357216 546.101781 
L 786.336895 553.945311 
L 791.316574 551.479947 
L 796.296253 547.48763 
L 801.275932 535.2867 
L 806.255612 535.058523 
L 811.235291 533.239399 
L 816.21497 532.066515 
L 821.194649 535.54635 
L 826.174328 536.105516 
L 831.154007 534.724912 
L 836.133686 537.475104 
L 841.113366 544.562764 
L 846.093045 548.872431 
L 851.072724 546.6279 
L 856.052403 540.688471 
L 861.032082 532.584242 
L 866.011761 533.785451 
L 870.991441 532.88638 
L 875.97112 532.93254 
L 880.950799 531.958983 
L 885.930478 531.988358 
L 890.910157 531.730281 
L 895.889836 540.404167 
L 900.869515 546.611639 
L 905.849195 549.45048 
L 910.828874 550.590318 
L 915.808553 543.118166 
L 920.788232 536.653142 
L 925.767911 531.838338 
L 930.74759 534.711274 
L 935.727269 538.734014 
L 940.706949 538.869347 
L 945.686628 536.462207 
L 950.666307 539.584302 
L 955.645986 536.428112 
L 960.625665 542.568967 
L 965.605344 549.601025 
L 970.585023 550.476491 
L 975.564703 542.008227 
L 980.544382 531.332676 
L 985.524061 528.793351 
L 990.50374 532.348196 
L 995.483419 531.627995 
L 1000.463098 531.665238 
L 1005.442777 536.624816 
L 1010.422457 534.971973 
L 1015.402136 540.788134 
L 1020.381815 548.904953 
L 1025.361494 552.822259 
L 1030.341173 546.556037 
L 1035.320852 542.386949 
L 1040.300531 533.727751 
L 1045.280211 531.699858 
L 1050.25989 532.465694 
L 1055.239569 531.902332 
L 1060.219248 532.271088 
L 1065.198927 531.665238 
L 1070.178606 535.775577 
L 1075.158285 540.886749 
L 1080.137965 546.753267 
L 1085.117644 546.747497 
L 1090.097323 543.977371 
L 1095.077002 538.163833 
L 1100.056681 529.233969 
L 1105.03636 525.380133 
L 1110.016039 533.218417 
L 1114.995719 535.168153 
L 1119.975398 534.024119 
L 1119.975398 534.024119 
" style="fill:none;stroke:#ff0000;stroke-linecap:square;stroke-width:1.5;"/>
   </g>
   <g id="line2d_38">
    <path clip-path="url(#pd797e8f3fb)" d="M 104.120852 560.862494 
L 114.080211 562.25726 
L 119.05989 567.56199 
L 124.039569 568.309992 
L 129.019248 572.931238 
L 133.998927 572.586612 
L 138.978606 569.519069 
L 143.958285 567.855211 
L 148.937965 558.14797 
L 153.917644 556.305242 
L 158.897323 559.49343 
L 163.877002 562.428787 
L 168.856681 554.761504 
L 173.83636 565.732375 
L 178.816039 565.10869 
L 183.795719 568.159447 
L 188.775398 571.765698 
L 193.755077 571.427366 
L 198.734756 570.636876 
L 203.714435 560.35893 
L 208.694114 561.805102 
L 213.673793 554.830744 
L 218.653473 559.658661 
L 223.633152 558.835125 
L 228.612831 559.018716 
L 233.59251 562.135041 
L 238.572189 562.667979 
L 243.551868 567.242017 
L 248.531547 569.855827 
L 253.511227 568.915317 
L 258.490906 565.387748 
L 263.470585 560.194747 
L 268.450264 561.523946 
L 273.429943 557.531629 
L 278.409622 561.871195 
L 283.389301 559.968143 
L 288.368981 561.035594 
L 293.34866 558.242388 
L 298.328339 565.935374 
L 303.308018 568.697631 
L 308.287697 572.506881 
L 313.267376 572.328011 
L 318.247055 566.050774 
L 323.226735 562.791248 
L 328.206414 559.390619 
L 333.186093 558.359887 
L 338.165772 555.861476 
L 343.145451 558.770081 
L 348.12513 559.430484 
L 353.104809 560.359454 
L 358.084489 564.005046 
L 363.064168 568.702876 
L 368.043847 569.130905 
L 373.023526 565.709819 
L 378.003205 565.481117 
L 382.982884 560.017975 
L 387.962564 558.098138 
L 392.942243 560.50318 
L 397.921922 559.604109 
L 402.901601 562.431934 
L 407.88128 559.257909 
L 412.860959 564.657581 
L 417.840638 566.879556 
L 422.820318 568.806212 
L 427.799997 571.236431 
L 432.779676 568.899056 
L 437.759355 564.886283 
L 442.739034 559.934048 
L 447.718713 560.223597 
L 452.698392 556.696028 
L 457.678072 557.264111 
L 462.657751 560.895015 
L 467.63743 557.527433 
L 472.617109 561.326716 
L 477.596788 564.665974 
L 482.576467 570.976781 
L 487.556146 571.551683 
L 492.535826 573.532367 
L 497.515505 566.981318 
L 502.495184 563.628947 
L 507.474863 559.144082 
L 512.454542 557.384232 
L 517.434221 558.683531 
L 522.4139 559.097398 
L 527.39358 564.569457 
L 532.373259 565.022664 
L 537.352938 567.885634 
L 542.332617 568.484665 
L 547.312296 572.359483 
L 552.291975 572.858326 
L 557.271654 569.903561 
L 562.251334 563.696613 
L 567.231013 563.684024 
L 572.210692 559.380128 
L 577.190371 561.281081 
L 582.17005 563.870238 
L 587.149729 562.702075 
L 592.129408 565.462758 
L 597.109088 559.403732 
L 602.088767 560.134949 
L 607.068446 573.025656 
L 612.048125 572.909207 
L 617.027804 569.578343 
L 622.007483 568.934725 
L 626.987162 565.443875 
L 631.966842 560.225171 
L 636.946521 561.206071 
L 641.9262 564.659154 
L 646.905879 564.005046 
L 651.885558 566.763107 
L 656.865237 567.686307 
L 661.844916 569.73151 
L 666.824596 572.378367 
L 671.804275 573.753726 
L 676.783954 571.08746 
L 686.743312 559.081137 
L 691.722991 557.847406 
L 696.70267 560.442857 
L 701.68235 555.203171 
L 706.662029 559.916213 
L 711.641708 558.515152 
L 716.621387 562.455014 
L 721.601066 571.497655 
L 726.580745 572.097735 
L 731.560424 571.386976 
L 736.540104 565.341588 
L 741.519783 555.801153 
L 746.499462 553.868727 
L 751.479141 554.125755 
L 756.45882 555.277657 
L 761.438499 558.456928 
L 766.418178 559.40111 
L 771.397858 561.191908 
L 776.377537 561.632526 
L 781.357216 566.641937 
L 786.336895 572.423478 
L 791.316574 574.440356 
L 796.296253 569.128807 
L 801.275932 562.191167 
L 806.255612 560.402992 
L 811.235291 554.508148 
L 816.21497 554.764651 
L 821.194649 557.503304 
L 826.174328 558.061945 
L 831.154007 557.920317 
L 836.133686 561.602103 
L 841.113366 566.077526 
L 846.093045 569.344395 
L 851.072724 569.342822 
L 856.052403 565.905475 
L 861.032082 559.29148 
L 866.011761 559.968143 
L 870.991441 552.989064 
L 880.950799 555.329062 
L 885.930478 556.043493 
L 890.910157 556.30734 
L 895.889836 563.83352 
L 905.849195 568.725432 
L 910.828874 570.26812 
L 915.808553 566.952992 
L 920.788232 559.825991 
L 925.767911 553.600685 
L 935.727269 555.768107 
L 940.706949 559.179751 
L 945.686628 559.037075 
L 950.666307 560.468035 
L 955.645986 559.974962 
L 960.625665 564.984897 
L 965.605344 570.92695 
L 970.585023 569.877858 
L 975.564703 565.960027 
L 980.544382 558.150068 
L 985.524061 555.555141 
L 990.50374 554.773568 
L 995.483419 552.271486 
L 1000.463098 553.508365 
L 1005.442777 558.686678 
L 1010.422457 558.436995 
L 1015.402136 562.994247 
L 1020.381815 568.637833 
L 1025.361494 570.096594 
L 1030.341173 567.839474 
L 1035.320852 567.353745 
L 1040.300531 560.326933 
L 1050.25989 554.975519 
L 1055.239569 553.092924 
L 1060.219248 552.780295 
L 1065.198927 553.256058 
L 1070.178606 556.860735 
L 1075.158285 561.185614 
L 1080.137965 564.336559 
L 1085.117644 564.436223 
L 1090.097323 564.408946 
L 1095.077002 559.487135 
L 1100.056681 552.113073 
L 1105.03636 548.760703 
L 1110.016039 553.716609 
L 1114.995719 553.718707 
L 1119.975398 554.317738 
L 1119.975398 554.317738 
" style="fill:none;stroke:#008000;stroke-linecap:square;stroke-width:1.5;"/>
   </g>
   <g id="line2d_39">
    <path clip-path="url(#pd797e8f3fb)" d="M 104.120852 576.753602 
L 109.100531 578.507158 
L 114.080211 579.873599 
L 119.05989 583.16827 
L 124.039569 588.937746 
L 129.019248 593.870573 
L 133.998927 593.488704 
L 138.978606 591.494382 
L 143.958285 592.668839 
L 148.937965 578.179841 
L 153.917644 573.623638 
L 163.877002 580.493612 
L 168.856681 581.489724 
L 173.83636 582.911242 
L 178.816039 583.251672 
L 183.795719 586.634991 
L 188.775398 589.425574 
L 193.755077 592.964158 
L 198.734756 596.189064 
L 203.714435 588.607283 
L 208.694114 605.819197 
L 213.673793 575.57862 
L 218.653473 578.638294 
L 223.633152 581.251056 
L 228.612831 587.66992 
L 233.59251 585.904824 
L 238.572189 581.564734 
L 243.551868 611.20628 
L 248.531547 613.621812 
L 253.511227 604.169501 
L 258.490906 589.599723 
L 263.470585 596.810126 
L 268.450264 584.211591 
L 273.429943 585.64937 
L 278.409622 577.050495 
L 283.389301 584.541005 
L 288.368981 577.926486 
L 293.34866 578.520271 
L 298.328339 584.476486 
L 303.308018 586.45717 
L 308.287697 590.697072 
L 313.267376 592.067185 
L 318.247055 589.361579 
L 323.226735 585.519283 
L 328.206414 581.182865 
L 333.186093 574.426718 
L 338.165772 574.326529 
L 343.145451 576.766715 
L 353.104809 577.955336 
L 358.084489 582.104491 
L 368.043847 589.209461 
L 373.023526 588.845951 
L 378.003205 592.441711 
L 382.982884 582.541438 
L 387.962564 579.922382 
L 392.942243 575.392931 
L 397.921922 576.422089 
L 402.901601 577.227266 
L 407.88128 577.436036 
L 412.860959 581.893099 
L 422.820318 587.130162 
L 427.799997 591.685316 
L 432.779676 589.298634 
L 437.759355 588.786153 
L 442.739034 584.141302 
L 447.718713 580.233437 
L 452.698392 575.730213 
L 457.678072 572.578744 
L 462.657751 579.589295 
L 467.63743 578.97243 
L 472.617109 578.015658 
L 477.596788 582.531996 
L 482.576467 588.994397 
L 487.556146 592.290117 
L 492.535826 594.448098 
L 497.515505 590.321498 
L 502.495184 588.155124 
L 507.474863 577.357354 
L 512.454542 576.735767 
L 517.434221 575.954194 
L 522.4139 576.662331 
L 527.39358 582.453314 
L 532.373259 582.293852 
L 537.352938 585.663533 
L 542.332617 587.900195 
L 547.312296 590.921578 
L 552.291975 596.703119 
L 557.271654 595.989737 
L 562.251334 592.262316 
L 567.231013 588.286261 
L 572.210692 579.004951 
L 577.190371 578.158335 
L 582.17005 578.608395 
L 587.149729 581.144048 
L 592.129408 581.357014 
L 597.109088 573.81772 
L 602.088767 580.286941 
L 607.068446 596.547854 
L 612.048125 598.777172 
L 617.027804 597.057712 
L 622.007483 592.744898 
L 626.987162 589.597625 
L 631.966842 577.111342 
L 636.946521 578.896895 
L 641.9262 581.213288 
L 646.905879 581.632925 
L 651.885558 582.898129 
L 656.865237 588.784579 
L 661.844916 589.86829 
L 666.824596 597.465808 
L 671.804275 601.129235 
L 676.783954 598.354389 
L 681.763633 591.09258 
L 686.743312 577.497932 
L 691.722991 573.611049 
L 696.70267 572.347943 
L 701.68235 575.663596 
L 706.662029 573.445817 
L 711.641708 577.009055 
L 716.621387 584.140777 
L 721.601066 584.235195 
L 726.580745 596.023308 
L 731.560424 588.468278 
L 736.540104 586.262564 
L 741.519783 585.428012 
L 746.499462 575.72864 
L 751.479141 573.859684 
L 756.45882 573.610525 
L 761.438499 577.849902 
L 766.418178 576.896803 
L 771.397858 579.065799 
L 776.377537 580.090761 
L 781.357216 583.894241 
L 786.336895 588.252165 
L 791.316574 592.112296 
L 796.296253 588.612004 
L 801.275932 586.457695 
L 806.255612 582.217268 
L 811.235291 574.31971 
L 816.21497 572.058394 
L 821.194649 575.135379 
L 826.174328 576.292002 
L 831.154007 576.879493 
L 836.133686 581.432024 
L 841.113366 585.156822 
L 846.093045 589.34322 
L 851.072724 594.422919 
L 856.052403 589.611787 
L 861.032082 586.188078 
L 866.011761 581.743604 
L 870.991441 571.875328 
L 875.97112 572.833148 
L 880.950799 574.426718 
L 885.930478 576.234302 
L 890.910157 576.825465 
L 895.889836 582.608055 
L 900.869515 584.937562 
L 905.849195 586.404716 
L 910.828874 590.388639 
L 915.808553 588.103719 
L 920.788232 581.71318 
L 925.767911 576.030253 
L 930.74759 571.891589 
L 935.727269 574.899858 
L 940.706949 576.104214 
L 945.686628 578.062343 
L 950.666307 578.398577 
L 955.645986 579.88986 
L 960.625665 584.992639 
L 965.605344 588.702225 
L 970.585023 588.795595 
L 975.564703 592.387683 
L 980.544382 585.115907 
L 990.50374 573.946234 
L 995.483419 570.379848 
L 1000.463098 572.46754 
L 1005.442777 576.81917 
L 1010.422457 577.943796 
L 1015.402136 581.47084 
L 1020.381815 585.781556 
L 1025.361494 585.001032 
L 1030.341173 590.699695 
L 1035.320852 590.284779 
L 1045.280211 580.942098 
L 1050.25989 574.053241 
L 1055.239569 574.098877 
L 1060.219248 573.229705 
L 1065.198927 574.508022 
L 1070.178606 577.18845 
L 1075.158285 580.480498 
L 1080.137965 582.830462 
L 1085.117644 583.062836 
L 1090.097323 587.747552 
L 1095.077002 585.142135 
L 1100.056681 580.323659 
L 1105.03636 573.786772 
L 1110.016039 573.619966 
L 1114.995719 571.804514 
L 1119.975398 574.194344 
L 1119.975398 574.194344 
" style="fill:none;stroke:#0000ff;stroke-linecap:square;stroke-width:1.5;"/>
   </g>
   <g id="line2d_40">
    <defs>
     <path d="M 0 3 
C 0.795609 3 1.55874 2.683901 2.12132 2.12132 
C 2.683901 1.55874 3 0.795609 3 0 
C 3 -0.795609 2.683901 -1.55874 2.12132 -2.12132 
C 1.55874 -2.683901 0.795609 -3 0 -3 
C -0.795609 -3 -1.55874 -2.683901 -2.12132 -2.12132 
C -2.683901 -1.55874 -3 -0.795609 -3 0 
C -3 0.795609 -2.683901 1.55874 -2.12132 2.12132 
C -1.55874 2.683901 -0.795609 3 0 3 
z
" id="m0934526fe0" style="stroke:#ff0000;"/>
    </defs>
    <g clip-path="url(#pd797e8f3fb)">
     <use style="fill:#ff0000;stroke:#ff0000;" x="173.83636" xlink:href="#m0934526fe0" y="639.849091"/>
     <use style="fill:#ff0000;stroke:#ff0000;" x="183.795719" xlink:href="#m0934526fe0" y="639.849091"/>
     <use style="fill:#ff0000;stroke:#ff0000;" x="188.775398" xlink:href="#m0934526fe0" y="639.849091"/>
     <use style="fill:#ff0000;stroke:#ff0000;" x="198.734756" xlink:href="#m0934526fe0" y="639.849091"/>
     <use style="fill:#ff0000;stroke:#ff0000;" x="233.59251" xlink:href="#m0934526fe0" y="639.849091"/>
     <use style="fill:#ff0000;stroke:#ff0000;" x="238.572189" xlink:href="#m0934526fe0" y="639.849091"/>
     <use style="fill:#ff0000;stroke:#ff0000;" x="243.551868" xlink:href="#m0934526fe0" y="639.849091"/>
     <use style="fill:#ff0000;stroke:#ff0000;" x="248.531547" xlink:href="#m0934526fe0" y="639.849091"/>
     <use style="fill:#ff0000;stroke:#ff0000;" x="253.511227" xlink:href="#m0934526fe0" y="639.849091"/>
     <use style="fill:#ff0000;stroke:#ff0000;" x="258.490906" xlink:href="#m0934526fe0" y="639.849091"/>
     <use style="fill:#ff0000;stroke:#ff0000;" x="263.470585" xlink:href="#m0934526fe0" y="639.849091"/>
     <use style="fill:#ff0000;stroke:#ff0000;" x="268.450264" xlink:href="#m0934526fe0" y="639.849091"/>
     <use style="fill:#ff0000;stroke:#ff0000;" x="273.429943" xlink:href="#m0934526fe0" y="639.849091"/>
     <use style="fill:#ff0000;stroke:#ff0000;" x="278.409622" xlink:href="#m0934526fe0" y="639.849091"/>
     <use style="fill:#ff0000;stroke:#ff0000;" x="283.389301" xlink:href="#m0934526fe0" y="639.849091"/>
     <use style="fill:#ff0000;stroke:#ff0000;" x="288.368981" xlink:href="#m0934526fe0" y="639.849091"/>
     <use style="fill:#ff0000;stroke:#ff0000;" x="293.34866" xlink:href="#m0934526fe0" y="639.849091"/>
     <use style="fill:#ff0000;stroke:#ff0000;" x="298.328339" xlink:href="#m0934526fe0" y="639.849091"/>
     <use style="fill:#ff0000;stroke:#ff0000;" x="303.308018" xlink:href="#m0934526fe0" y="639.849091"/>
     <use style="fill:#ff0000;stroke:#ff0000;" x="308.287697" xlink:href="#m0934526fe0" y="639.849091"/>
     <use style="fill:#ff0000;stroke:#ff0000;" x="333.186093" xlink:href="#m0934526fe0" y="639.849091"/>
     <use style="fill:#ff0000;stroke:#ff0000;" x="427.799997" xlink:href="#m0934526fe0" y="639.849091"/>
     <use style="fill:#ff0000;stroke:#ff0000;" x="482.576467" xlink:href="#m0934526fe0" y="639.849091"/>
     <use style="fill:#ff0000;stroke:#ff0000;" x="537.352938" xlink:href="#m0934526fe0" y="639.849091"/>
     <use style="fill:#ff0000;stroke:#ff0000;" x="542.332617" xlink:href="#m0934526fe0" y="639.849091"/>
     <use style="fill:#ff0000;stroke:#ff0000;" x="552.291975" xlink:href="#m0934526fe0" y="639.849091"/>
     <use style="fill:#ff0000;stroke:#ff0000;" x="572.210692" xlink:href="#m0934526fe0" y="639.849091"/>
     <use style="fill:#ff0000;stroke:#ff0000;" x="607.068446" xlink:href="#m0934526fe0" y="639.849091"/>
     <use style="fill:#ff0000;stroke:#ff0000;" x="612.048125" xlink:href="#m0934526fe0" y="639.849091"/>
     <use style="fill:#ff0000;stroke:#ff0000;" x="622.007483" xlink:href="#m0934526fe0" y="639.849091"/>
     <use style="fill:#ff0000;stroke:#ff0000;" x="626.987162" xlink:href="#m0934526fe0" y="639.849091"/>
     <use style="fill:#ff0000;stroke:#ff0000;" x="631.966842" xlink:href="#m0934526fe0" y="639.849091"/>
     <use style="fill:#ff0000;stroke:#ff0000;" x="636.946521" xlink:href="#m0934526fe0" y="639.849091"/>
     <use style="fill:#ff0000;stroke:#ff0000;" x="661.844916" xlink:href="#m0934526fe0" y="639.849091"/>
     <use style="fill:#ff0000;stroke:#ff0000;" x="666.824596" xlink:href="#m0934526fe0" y="639.849091"/>
     <use style="fill:#ff0000;stroke:#ff0000;" x="706.662029" xlink:href="#m0934526fe0" y="639.849091"/>
     <use style="fill:#ff0000;stroke:#ff0000;" x="721.601066" xlink:href="#m0934526fe0" y="639.849091"/>
     <use style="fill:#ff0000;stroke:#ff0000;" x="726.580745" xlink:href="#m0934526fe0" y="639.849091"/>
     <use style="fill:#ff0000;stroke:#ff0000;" x="751.479141" xlink:href="#m0934526fe0" y="639.849091"/>
     <use style="fill:#ff0000;stroke:#ff0000;" x="781.357216" xlink:href="#m0934526fe0" y="639.849091"/>
     <use style="fill:#ff0000;stroke:#ff0000;" x="786.336895" xlink:href="#m0934526fe0" y="639.849091"/>
     <use style="fill:#ff0000;stroke:#ff0000;" x="791.316574" xlink:href="#m0934526fe0" y="639.849091"/>
     <use style="fill:#ff0000;stroke:#ff0000;" x="796.296253" xlink:href="#m0934526fe0" y="639.849091"/>
     <use style="fill:#ff0000;stroke:#ff0000;" x="811.235291" xlink:href="#m0934526fe0" y="639.849091"/>
     <use style="fill:#ff0000;stroke:#ff0000;" x="841.113366" xlink:href="#m0934526fe0" y="639.849091"/>
     <use style="fill:#ff0000;stroke:#ff0000;" x="851.072724" xlink:href="#m0934526fe0" y="639.849091"/>
     <use style="fill:#ff0000;stroke:#ff0000;" x="856.052403" xlink:href="#m0934526fe0" y="639.849091"/>
     <use style="fill:#ff0000;stroke:#ff0000;" x="861.032082" xlink:href="#m0934526fe0" y="639.849091"/>
     <use style="fill:#ff0000;stroke:#ff0000;" x="866.011761" xlink:href="#m0934526fe0" y="639.849091"/>
     <use style="fill:#ff0000;stroke:#ff0000;" x="870.991441" xlink:href="#m0934526fe0" y="639.849091"/>
     <use style="fill:#ff0000;stroke:#ff0000;" x="875.97112" xlink:href="#m0934526fe0" y="639.849091"/>
     <use style="fill:#ff0000;stroke:#ff0000;" x="880.950799" xlink:href="#m0934526fe0" y="639.849091"/>
     <use style="fill:#ff0000;stroke:#ff0000;" x="885.930478" xlink:href="#m0934526fe0" y="639.849091"/>
     <use style="fill:#ff0000;stroke:#ff0000;" x="890.910157" xlink:href="#m0934526fe0" y="639.849091"/>
     <use style="fill:#ff0000;stroke:#ff0000;" x="895.889836" xlink:href="#m0934526fe0" y="639.849091"/>
     <use style="fill:#ff0000;stroke:#ff0000;" x="900.869515" xlink:href="#m0934526fe0" y="639.849091"/>
     <use style="fill:#ff0000;stroke:#ff0000;" x="905.849195" xlink:href="#m0934526fe0" y="639.849091"/>
     <use style="fill:#ff0000;stroke:#ff0000;" x="910.828874" xlink:href="#m0934526fe0" y="639.849091"/>
     <use style="fill:#ff0000;stroke:#ff0000;" x="930.74759" xlink:href="#m0934526fe0" y="639.849091"/>
     <use style="fill:#ff0000;stroke:#ff0000;" x="935.727269" xlink:href="#m0934526fe0" y="639.849091"/>
     <use style="fill:#ff0000;stroke:#ff0000;" x="970.585023" xlink:href="#m0934526fe0" y="639.849091"/>
     <use style="fill:#ff0000;stroke:#ff0000;" x="975.564703" xlink:href="#m0934526fe0" y="639.849091"/>
     <use style="fill:#ff0000;stroke:#ff0000;" x="980.544382" xlink:href="#m0934526fe0" y="639.849091"/>
     <use style="fill:#ff0000;stroke:#ff0000;" x="985.524061" xlink:href="#m0934526fe0" y="639.849091"/>
     <use style="fill:#ff0000;stroke:#ff0000;" x="990.50374" xlink:href="#m0934526fe0" y="639.849091"/>
     <use style="fill:#ff0000;stroke:#ff0000;" x="995.483419" xlink:href="#m0934526fe0" y="639.849091"/>
     <use style="fill:#ff0000;stroke:#ff0000;" x="1000.463098" xlink:href="#m0934526fe0" y="639.849091"/>
     <use style="fill:#ff0000;stroke:#ff0000;" x="1005.442777" xlink:href="#m0934526fe0" y="639.849091"/>
     <use style="fill:#ff0000;stroke:#ff0000;" x="1015.402136" xlink:href="#m0934526fe0" y="639.849091"/>
     <use style="fill:#ff0000;stroke:#ff0000;" x="1025.361494" xlink:href="#m0934526fe0" y="639.849091"/>
     <use style="fill:#ff0000;stroke:#ff0000;" x="1030.341173" xlink:href="#m0934526fe0" y="639.849091"/>
     <use style="fill:#ff0000;stroke:#ff0000;" x="1070.178606" xlink:href="#m0934526fe0" y="639.849091"/>
     <use style="fill:#ff0000;stroke:#ff0000;" x="1075.158285" xlink:href="#m0934526fe0" y="639.849091"/>
     <use style="fill:#ff0000;stroke:#ff0000;" x="1080.137965" xlink:href="#m0934526fe0" y="639.849091"/>
     <use style="fill:#ff0000;stroke:#ff0000;" x="1085.117644" xlink:href="#m0934526fe0" y="639.849091"/>
     <use style="fill:#ff0000;stroke:#ff0000;" x="1110.016039" xlink:href="#m0934526fe0" y="639.849091"/>
    </g>
   </g>
   <g id="patch_9">
    <path d="M 53.328125 645.74 
L 53.328125 516.14 
" style="fill:none;stroke:#000000;stroke-linecap:square;stroke-linejoin:miter;stroke-width:0.8;"/>
   </g>
   <g id="patch_10">
    <path d="M 1170.768125 645.74 
L 1170.768125 516.14 
" style="fill:none;stroke:#000000;stroke-linecap:square;stroke-linejoin:miter;stroke-width:0.8;"/>
   </g>
   <g id="patch_11">
    <path d="M 53.328125 645.74 
L 1170.768125 645.74 
" style="fill:none;stroke:#000000;stroke-linecap:square;stroke-linejoin:miter;stroke-width:0.8;"/>
   </g>
   <g id="patch_12">
    <path d="M 53.328125 516.14 
L 1170.768125 516.14 
" style="fill:none;stroke:#000000;stroke-linecap:square;stroke-linejoin:miter;stroke-width:0.8;"/>
   </g>
   <g id="legend_2">
    <g id="patch_13">
     <path d="M 60.328125 582.8525 
L 151.340625 582.8525 
Q 153.340625 582.8525 153.340625 580.8525 
L 153.340625 523.14 
Q 153.340625 521.14 151.340625 521.14 
L 60.328125 521.14 
Q 58.328125 521.14 58.328125 523.14 
L 58.328125 580.8525 
Q 58.328125 582.8525 60.328125 582.8525 
z
" style="fill:#ffffff;opacity:0.8;stroke:#cccccc;stroke-linejoin:miter;"/>
    </g>
    <g id="line2d_41">
     <path d="M 62.328125 529.238437 
L 82.328125 529.238437 
" style="fill:none;stroke:#ff0000;stroke-linecap:square;stroke-width:1.5;"/>
    </g>
    <g id="line2d_42"/>
    <g id="text_34">
     <!-- Maxmimum -->
     <defs>
      <path d="M 9.8125 72.90625 
L 24.515625 72.90625 
L 43.109375 23.296875 
L 61.8125 72.90625 
L 76.515625 72.90625 
L 76.515625 0 
L 66.890625 0 
L 66.890625 64.015625 
L 48.09375 14.015625 
L 38.1875 14.015625 
L 19.390625 64.015625 
L 19.390625 0 
L 9.8125 0 
z
" id="DejaVuSans-4d"/>
      <path d="M 54.890625 54.6875 
L 35.109375 28.078125 
L 55.90625 0 
L 45.3125 0 
L 29.390625 21.484375 
L 13.484375 0 
L 2.875 0 
L 24.125 28.609375 
L 4.6875 54.6875 
L 15.28125 54.6875 
L 29.78125 35.203125 
L 44.28125 54.6875 
z
" id="DejaVuSans-78"/>
     </defs>
     <g transform="translate(90.328125 532.738437)scale(0.1 -0.1)">
      <use xlink:href="#DejaVuSans-4d"/>
      <use x="86.279297" xlink:href="#DejaVuSans-61"/>
      <use x="147.558594" xlink:href="#DejaVuSans-78"/>
      <use x="206.738281" xlink:href="#DejaVuSans-6d"/>
      <use x="304.150391" xlink:href="#DejaVuSans-69"/>
      <use x="331.933594" xlink:href="#DejaVuSans-6d"/>
      <use x="429.345703" xlink:href="#DejaVuSans-75"/>
      <use x="492.724609" xlink:href="#DejaVuSans-6d"/>
     </g>
    </g>
    <g id="line2d_43">
     <path d="M 62.328125 543.916562 
L 82.328125 543.916562 
" style="fill:none;stroke:#008000;stroke-linecap:square;stroke-width:1.5;"/>
    </g>
    <g id="line2d_44"/>
    <g id="text_35">
     <!-- Average -->
     <defs>
      <path d="M 34.1875 63.1875 
L 20.796875 26.90625 
L 47.609375 26.90625 
z
M 28.609375 72.90625 
L 39.796875 72.90625 
L 67.578125 0 
L 57.328125 0 
L 50.6875 18.703125 
L 17.828125 18.703125 
L 11.1875 0 
L 0.78125 0 
z
" id="DejaVuSans-41"/>
      <path d="M 2.984375 54.6875 
L 12.5 54.6875 
L 29.59375 8.796875 
L 46.6875 54.6875 
L 56.203125 54.6875 
L 35.6875 0 
L 23.484375 0 
z
" id="DejaVuSans-76"/>
     </defs>
     <g transform="translate(90.328125 547.416562)scale(0.1 -0.1)">
      <use xlink:href="#DejaVuSans-41"/>
      <use x="68.330078" xlink:href="#DejaVuSans-76"/>
      <use x="127.509766" xlink:href="#DejaVuSans-65"/>
      <use x="189.033203" xlink:href="#DejaVuSans-72"/>
      <use x="230.146484" xlink:href="#DejaVuSans-61"/>
      <use x="291.425781" xlink:href="#DejaVuSans-67"/>
      <use x="354.902344" xlink:href="#DejaVuSans-65"/>
     </g>
    </g>
    <g id="line2d_45">
     <path d="M 62.328125 558.594687 
L 82.328125 558.594687 
" style="fill:none;stroke:#0000ff;stroke-linecap:square;stroke-width:1.5;"/>
    </g>
    <g id="line2d_46"/>
    <g id="text_36">
     <!-- Minimum -->
     <g transform="translate(90.328125 562.094687)scale(0.1 -0.1)">
      <use xlink:href="#DejaVuSans-4d"/>
      <use x="86.279297" xlink:href="#DejaVuSans-69"/>
      <use x="114.0625" xlink:href="#DejaVuSans-6e"/>
      <use x="177.441406" xlink:href="#DejaVuSans-69"/>
      <use x="205.224609" xlink:href="#DejaVuSans-6d"/>
      <use x="302.636719" xlink:href="#DejaVuSans-75"/>
      <use x="366.015625" xlink:href="#DejaVuSans-6d"/>
     </g>
    </g>
    <g id="line2d_47"/>
    <g id="line2d_48">
     <g>
      <use style="fill:#ff0000;stroke:#ff0000;" x="72.328125" xlink:href="#m0934526fe0" y="573.272812"/>
     </g>
    </g>
    <g id="text_37">
     <!-- Disasters -->
     <g transform="translate(90.328125 576.772812)scale(0.1 -0.1)">
      <use xlink:href="#DejaVuSans-44"/>
      <use x="77.001953" xlink:href="#DejaVuSans-69"/>
      <use x="104.785156" xlink:href="#DejaVuSans-73"/>
      <use x="156.884766" xlink:href="#DejaVuSans-61"/>
      <use x="218.164062" xlink:href="#DejaVuSans-73"/>
      <use x="270.263672" xlink:href="#DejaVuSans-74"/>
      <use x="309.472656" xlink:href="#DejaVuSans-65"/>
      <use x="370.996094" xlink:href="#DejaVuSans-72"/>
      <use x="412.109375" xlink:href="#DejaVuSans-73"/>
     </g>
    </g>
   </g>
  </g>
 </g>
 <defs>
  <clipPath id="pbe9e71f8e9">
   <rect height="498.96" width="1116" x="53.328125" y="10.7"/>
  </clipPath>
  <clipPath id="pd797e8f3fb">
   <rect height="129.6" width="1117.44" x="53.328125" y="516.14"/>
  </clipPath>
 </defs>
</svg>
