<?xml version="1.0" encoding="utf-8" standalone="no"?>
<!DOCTYPE svg PUBLIC "-//W3C//DTD SVG 1.1//EN"
  "http://www.w3.org/Graphics/SVG/1.1/DTD/svg11.dtd">
<!-- Created with matplotlib (http://matplotlib.org/) -->
<svg height="669pt" version="1.1" viewBox="0 0 1177 669" width="1177pt" xmlns="http://www.w3.org/2000/svg" xmlns:xlink="http://www.w3.org/1999/xlink">
 <defs>
  <style type="text/css">
*{stroke-linecap:butt;stroke-linejoin:round;}
  </style>
 </defs>
 <g id="figure_1">
  <g id="patch_1">
   <path d="M 0 669.618125 
L 1177.122813 669.618125 
L 1177.122813 -0 
L 0 -0 
z
" style="fill:none;"/>
  </g>
  <g id="axes_1">
   <g id="patch_2">
    <path d="M 48.982813 509.66 
L 1164.982812 509.66 
L 1164.982812 10.7 
L 48.982813 10.7 
z
" style="fill:none;"/>
   </g>
   <g id="matplotlib.axis_1">
    <g id="xtick_1">
     <g id="line2d_1">
      <defs>
       <path d="M 0 0 
L 0 3.5 
" id="ma4770b46ec" style="stroke:#000000;stroke-width:0.8;"/>
      </defs>
      <g>
       <use style="stroke:#000000;stroke-width:0.8;" x="99.710085" xlink:href="#ma4770b46ec" y="509.66"/>
      </g>
     </g>
     <g id="text_1">
      <!-- 0 -->
      <defs>
       <path d="M 31.78125 66.40625 
Q 24.171875 66.40625 20.328125 58.90625 
Q 16.5 51.421875 16.5 36.375 
Q 16.5 21.390625 20.328125 13.890625 
Q 24.171875 6.390625 31.78125 6.390625 
Q 39.453125 6.390625 43.28125 13.890625 
Q 47.125 21.390625 47.125 36.375 
Q 47.125 51.421875 43.28125 58.90625 
Q 39.453125 66.40625 31.78125 66.40625 
z
M 31.78125 74.21875 
Q 44.046875 74.21875 50.515625 64.515625 
Q 56.984375 54.828125 56.984375 36.375 
Q 56.984375 17.96875 50.515625 8.265625 
Q 44.046875 -1.421875 31.78125 -1.421875 
Q 19.53125 -1.421875 13.0625 8.265625 
Q 6.59375 17.96875 6.59375 36.375 
Q 6.59375 54.828125 13.0625 64.515625 
Q 19.53125 74.21875 31.78125 74.21875 
z
" id="DejaVuSans-30"/>
      </defs>
      <g transform="translate(96.528835 524.258437)scale(0.1 -0.1)">
       <use xlink:href="#DejaVuSans-30"/>
      </g>
     </g>
    </g>
    <g id="xtick_2">
     <g id="line2d_2">
      <g>
       <use style="stroke:#000000;stroke-width:0.8;" x="342.424309" xlink:href="#ma4770b46ec" y="509.66"/>
      </g>
     </g>
     <g id="text_2">
      <!-- 50 -->
      <defs>
       <path d="M 10.796875 72.90625 
L 49.515625 72.90625 
L 49.515625 64.59375 
L 19.828125 64.59375 
L 19.828125 46.734375 
Q 21.96875 47.46875 24.109375 47.828125 
Q 26.265625 48.1875 28.421875 48.1875 
Q 40.625 48.1875 47.75 41.5 
Q 54.890625 34.8125 54.890625 23.390625 
Q 54.890625 11.625 47.5625 5.09375 
Q 40.234375 -1.421875 26.90625 -1.421875 
Q 22.3125 -1.421875 17.546875 -0.640625 
Q 12.796875 0.140625 7.71875 1.703125 
L 7.71875 11.625 
Q 12.109375 9.234375 16.796875 8.0625 
Q 21.484375 6.890625 26.703125 6.890625 
Q 35.15625 6.890625 40.078125 11.328125 
Q 45.015625 15.765625 45.015625 23.390625 
Q 45.015625 31 40.078125 35.4375 
Q 35.15625 39.890625 26.703125 39.890625 
Q 22.75 39.890625 18.8125 39.015625 
Q 14.890625 38.140625 10.796875 36.28125 
z
" id="DejaVuSans-35"/>
      </defs>
      <g transform="translate(336.061809 524.258437)scale(0.1 -0.1)">
       <use xlink:href="#DejaVuSans-35"/>
       <use x="63.623047" xlink:href="#DejaVuSans-30"/>
      </g>
     </g>
    </g>
    <g id="xtick_3">
     <g id="line2d_3">
      <g>
       <use style="stroke:#000000;stroke-width:0.8;" x="585.138532" xlink:href="#ma4770b46ec" y="509.66"/>
      </g>
     </g>
     <g id="text_3">
      <!-- 100 -->
      <defs>
       <path d="M 12.40625 8.296875 
L 28.515625 8.296875 
L 28.515625 63.921875 
L 10.984375 60.40625 
L 10.984375 69.390625 
L 28.421875 72.90625 
L 38.28125 72.90625 
L 38.28125 8.296875 
L 54.390625 8.296875 
L 54.390625 0 
L 12.40625 0 
z
" id="DejaVuSans-31"/>
      </defs>
      <g transform="translate(575.594782 524.258437)scale(0.1 -0.1)">
       <use xlink:href="#DejaVuSans-31"/>
       <use x="63.623047" xlink:href="#DejaVuSans-30"/>
       <use x="127.246094" xlink:href="#DejaVuSans-30"/>
      </g>
     </g>
    </g>
    <g id="xtick_4">
     <g id="line2d_4">
      <g>
       <use style="stroke:#000000;stroke-width:0.8;" x="827.852756" xlink:href="#ma4770b46ec" y="509.66"/>
      </g>
     </g>
     <g id="text_4">
      <!-- 150 -->
      <g transform="translate(818.309006 524.258437)scale(0.1 -0.1)">
       <use xlink:href="#DejaVuSans-31"/>
       <use x="63.623047" xlink:href="#DejaVuSans-35"/>
       <use x="127.246094" xlink:href="#DejaVuSans-30"/>
      </g>
     </g>
    </g>
    <g id="xtick_5">
     <g id="line2d_5">
      <g>
       <use style="stroke:#000000;stroke-width:0.8;" x="1070.56698" xlink:href="#ma4770b46ec" y="509.66"/>
      </g>
     </g>
     <g id="text_5">
      <!-- 200 -->
      <defs>
       <path d="M 19.1875 8.296875 
L 53.609375 8.296875 
L 53.609375 0 
L 7.328125 0 
L 7.328125 8.296875 
Q 12.9375 14.109375 22.625 23.890625 
Q 32.328125 33.6875 34.8125 36.53125 
Q 39.546875 41.84375 41.421875 45.53125 
Q 43.3125 49.21875 43.3125 52.78125 
Q 43.3125 58.59375 39.234375 62.25 
Q 35.15625 65.921875 28.609375 65.921875 
Q 23.96875 65.921875 18.8125 64.3125 
Q 13.671875 62.703125 7.8125 59.421875 
L 7.8125 69.390625 
Q 13.765625 71.78125 18.9375 73 
Q 24.125 74.21875 28.421875 74.21875 
Q 39.75 74.21875 46.484375 68.546875 
Q 53.21875 62.890625 53.21875 53.421875 
Q 53.21875 48.921875 51.53125 44.890625 
Q 49.859375 40.875 45.40625 35.40625 
Q 44.1875 33.984375 37.640625 27.21875 
Q 31.109375 20.453125 19.1875 8.296875 
z
" id="DejaVuSans-32"/>
      </defs>
      <g transform="translate(1061.02323 524.258437)scale(0.1 -0.1)">
       <use xlink:href="#DejaVuSans-32"/>
       <use x="63.623047" xlink:href="#DejaVuSans-30"/>
       <use x="127.246094" xlink:href="#DejaVuSans-30"/>
      </g>
     </g>
    </g>
    <g id="text_6">
     <!-- Time -->
     <defs>
      <path d="M -0.296875 72.90625 
L 61.375 72.90625 
L 61.375 64.59375 
L 35.5 64.59375 
L 35.5 0 
L 25.59375 0 
L 25.59375 64.59375 
L -0.296875 64.59375 
z
" id="DejaVuSans-54"/>
      <path d="M 9.421875 54.6875 
L 18.40625 54.6875 
L 18.40625 0 
L 9.421875 0 
z
M 9.421875 75.984375 
L 18.40625 75.984375 
L 18.40625 64.59375 
L 9.421875 64.59375 
z
" id="DejaVuSans-69"/>
      <path d="M 52 44.1875 
Q 55.375 50.25 60.0625 53.125 
Q 64.75 56 71.09375 56 
Q 79.640625 56 84.28125 50.015625 
Q 88.921875 44.046875 88.921875 33.015625 
L 88.921875 0 
L 79.890625 0 
L 79.890625 32.71875 
Q 79.890625 40.578125 77.09375 44.375 
Q 74.3125 48.1875 68.609375 48.1875 
Q 61.625 48.1875 57.5625 43.546875 
Q 53.515625 38.921875 53.515625 30.90625 
L 53.515625 0 
L 44.484375 0 
L 44.484375 32.71875 
Q 44.484375 40.625 41.703125 44.40625 
Q 38.921875 48.1875 33.109375 48.1875 
Q 26.21875 48.1875 22.15625 43.53125 
Q 18.109375 38.875 18.109375 30.90625 
L 18.109375 0 
L 9.078125 0 
L 9.078125 54.6875 
L 18.109375 54.6875 
L 18.109375 46.1875 
Q 21.1875 51.21875 25.484375 53.609375 
Q 29.78125 56 35.6875 56 
Q 41.65625 56 45.828125 52.96875 
Q 50 49.953125 52 44.1875 
z
" id="DejaVuSans-6d"/>
      <path d="M 56.203125 29.59375 
L 56.203125 25.203125 
L 14.890625 25.203125 
Q 15.484375 15.921875 20.484375 11.0625 
Q 25.484375 6.203125 34.421875 6.203125 
Q 39.59375 6.203125 44.453125 7.46875 
Q 49.3125 8.734375 54.109375 11.28125 
L 54.109375 2.78125 
Q 49.265625 0.734375 44.1875 -0.34375 
Q 39.109375 -1.421875 33.890625 -1.421875 
Q 20.796875 -1.421875 13.15625 6.1875 
Q 5.515625 13.8125 5.515625 26.8125 
Q 5.515625 40.234375 12.765625 48.109375 
Q 20.015625 56 32.328125 56 
Q 43.359375 56 49.78125 48.890625 
Q 56.203125 41.796875 56.203125 29.59375 
z
M 47.21875 32.234375 
Q 47.125 39.59375 43.09375 43.984375 
Q 39.0625 48.390625 32.421875 48.390625 
Q 24.90625 48.390625 20.390625 44.140625 
Q 15.875 39.890625 15.1875 32.171875 
z
" id="DejaVuSans-65"/>
     </defs>
     <g transform="translate(594.595312 537.936562)scale(0.1 -0.1)">
      <use xlink:href="#DejaVuSans-54"/>
      <use x="61.037109" xlink:href="#DejaVuSans-69"/>
      <use x="88.820312" xlink:href="#DejaVuSans-6d"/>
      <use x="186.232422" xlink:href="#DejaVuSans-65"/>
     </g>
    </g>
   </g>
   <g id="matplotlib.axis_2">
    <g id="ytick_1">
     <g id="line2d_6">
      <defs>
       <path d="M 0 0 
L -3.5 0 
" id="ma307a4b8c8" style="stroke:#000000;stroke-width:0.8;"/>
      </defs>
      <g>
       <use style="stroke:#000000;stroke-width:0.8;" x="48.982813" xlink:href="#ma307a4b8c8" y="486.98"/>
      </g>
     </g>
     <g id="text_7">
      <!-- 0 -->
      <g transform="translate(35.620313 490.779219)scale(0.1 -0.1)">
       <use xlink:href="#DejaVuSans-30"/>
      </g>
     </g>
    </g>
    <g id="ytick_2">
     <g id="line2d_7">
      <g>
       <use style="stroke:#000000;stroke-width:0.8;" x="48.982813" xlink:href="#ma307a4b8c8" y="400.744259"/>
      </g>
     </g>
     <g id="text_8">
      <!-- 100 -->
      <g transform="translate(22.895313 404.543477)scale(0.1 -0.1)">
       <use xlink:href="#DejaVuSans-31"/>
       <use x="63.623047" xlink:href="#DejaVuSans-30"/>
       <use x="127.246094" xlink:href="#DejaVuSans-30"/>
      </g>
     </g>
    </g>
    <g id="ytick_3">
     <g id="line2d_8">
      <g>
       <use style="stroke:#000000;stroke-width:0.8;" x="48.982813" xlink:href="#ma307a4b8c8" y="314.508517"/>
      </g>
     </g>
     <g id="text_9">
      <!-- 200 -->
      <g transform="translate(22.895313 318.307736)scale(0.1 -0.1)">
       <use xlink:href="#DejaVuSans-32"/>
       <use x="63.623047" xlink:href="#DejaVuSans-30"/>
       <use x="127.246094" xlink:href="#DejaVuSans-30"/>
      </g>
     </g>
    </g>
    <g id="ytick_4">
     <g id="line2d_9">
      <g>
       <use style="stroke:#000000;stroke-width:0.8;" x="48.982813" xlink:href="#ma307a4b8c8" y="228.272776"/>
      </g>
     </g>
     <g id="text_10">
      <!-- 300 -->
      <defs>
       <path d="M 40.578125 39.3125 
Q 47.65625 37.796875 51.625 33 
Q 55.609375 28.21875 55.609375 21.1875 
Q 55.609375 10.40625 48.1875 4.484375 
Q 40.765625 -1.421875 27.09375 -1.421875 
Q 22.515625 -1.421875 17.65625 -0.515625 
Q 12.796875 0.390625 7.625 2.203125 
L 7.625 11.71875 
Q 11.71875 9.328125 16.59375 8.109375 
Q 21.484375 6.890625 26.8125 6.890625 
Q 36.078125 6.890625 40.9375 10.546875 
Q 45.796875 14.203125 45.796875 21.1875 
Q 45.796875 27.640625 41.28125 31.265625 
Q 36.765625 34.90625 28.71875 34.90625 
L 20.21875 34.90625 
L 20.21875 43.015625 
L 29.109375 43.015625 
Q 36.375 43.015625 40.234375 45.921875 
Q 44.09375 48.828125 44.09375 54.296875 
Q 44.09375 59.90625 40.109375 62.90625 
Q 36.140625 65.921875 28.71875 65.921875 
Q 24.65625 65.921875 20.015625 65.03125 
Q 15.375 64.15625 9.8125 62.3125 
L 9.8125 71.09375 
Q 15.4375 72.65625 20.34375 73.4375 
Q 25.25 74.21875 29.59375 74.21875 
Q 40.828125 74.21875 47.359375 69.109375 
Q 53.90625 64.015625 53.90625 55.328125 
Q 53.90625 49.265625 50.4375 45.09375 
Q 46.96875 40.921875 40.578125 39.3125 
z
" id="DejaVuSans-33"/>
      </defs>
      <g transform="translate(22.895313 232.071994)scale(0.1 -0.1)">
       <use xlink:href="#DejaVuSans-33"/>
       <use x="63.623047" xlink:href="#DejaVuSans-30"/>
       <use x="127.246094" xlink:href="#DejaVuSans-30"/>
      </g>
     </g>
    </g>
    <g id="ytick_5">
     <g id="line2d_10">
      <g>
       <use style="stroke:#000000;stroke-width:0.8;" x="48.982813" xlink:href="#ma307a4b8c8" y="142.037034"/>
      </g>
     </g>
     <g id="text_11">
      <!-- 400 -->
      <defs>
       <path d="M 37.796875 64.3125 
L 12.890625 25.390625 
L 37.796875 25.390625 
z
M 35.203125 72.90625 
L 47.609375 72.90625 
L 47.609375 25.390625 
L 58.015625 25.390625 
L 58.015625 17.1875 
L 47.609375 17.1875 
L 47.609375 0 
L 37.796875 0 
L 37.796875 17.1875 
L 4.890625 17.1875 
L 4.890625 26.703125 
z
" id="DejaVuSans-34"/>
      </defs>
      <g transform="translate(22.895313 145.836253)scale(0.1 -0.1)">
       <use xlink:href="#DejaVuSans-34"/>
       <use x="63.623047" xlink:href="#DejaVuSans-30"/>
       <use x="127.246094" xlink:href="#DejaVuSans-30"/>
      </g>
     </g>
    </g>
    <g id="ytick_6">
     <g id="line2d_11">
      <g>
       <use style="stroke:#000000;stroke-width:0.8;" x="48.982813" xlink:href="#ma307a4b8c8" y="55.801293"/>
      </g>
     </g>
     <g id="text_12">
      <!-- 500 -->
      <g transform="translate(22.895313 59.600512)scale(0.1 -0.1)">
       <use xlink:href="#DejaVuSans-35"/>
       <use x="63.623047" xlink:href="#DejaVuSans-30"/>
       <use x="127.246094" xlink:href="#DejaVuSans-30"/>
      </g>
     </g>
    </g>
    <g id="text_13">
     <!-- Refugees -->
     <defs>
      <path d="M 44.390625 34.1875 
Q 47.5625 33.109375 50.5625 29.59375 
Q 53.5625 26.078125 56.59375 19.921875 
L 66.609375 0 
L 56 0 
L 46.6875 18.703125 
Q 43.0625 26.03125 39.671875 28.421875 
Q 36.28125 30.8125 30.421875 30.8125 
L 19.671875 30.8125 
L 19.671875 0 
L 9.8125 0 
L 9.8125 72.90625 
L 32.078125 72.90625 
Q 44.578125 72.90625 50.734375 67.671875 
Q 56.890625 62.453125 56.890625 51.90625 
Q 56.890625 45.015625 53.6875 40.46875 
Q 50.484375 35.9375 44.390625 34.1875 
z
M 19.671875 64.796875 
L 19.671875 38.921875 
L 32.078125 38.921875 
Q 39.203125 38.921875 42.84375 42.21875 
Q 46.484375 45.515625 46.484375 51.90625 
Q 46.484375 58.296875 42.84375 61.546875 
Q 39.203125 64.796875 32.078125 64.796875 
z
" id="DejaVuSans-52"/>
      <path d="M 37.109375 75.984375 
L 37.109375 68.5 
L 28.515625 68.5 
Q 23.6875 68.5 21.796875 66.546875 
Q 19.921875 64.59375 19.921875 59.515625 
L 19.921875 54.6875 
L 34.71875 54.6875 
L 34.71875 47.703125 
L 19.921875 47.703125 
L 19.921875 0 
L 10.890625 0 
L 10.890625 47.703125 
L 2.296875 47.703125 
L 2.296875 54.6875 
L 10.890625 54.6875 
L 10.890625 58.5 
Q 10.890625 67.625 15.140625 71.796875 
Q 19.390625 75.984375 28.609375 75.984375 
z
" id="DejaVuSans-66"/>
      <path d="M 8.5 21.578125 
L 8.5 54.6875 
L 17.484375 54.6875 
L 17.484375 21.921875 
Q 17.484375 14.15625 20.5 10.265625 
Q 23.53125 6.390625 29.59375 6.390625 
Q 36.859375 6.390625 41.078125 11.03125 
Q 45.3125 15.671875 45.3125 23.6875 
L 45.3125 54.6875 
L 54.296875 54.6875 
L 54.296875 0 
L 45.3125 0 
L 45.3125 8.40625 
Q 42.046875 3.421875 37.71875 1 
Q 33.40625 -1.421875 27.6875 -1.421875 
Q 18.265625 -1.421875 13.375 4.4375 
Q 8.5 10.296875 8.5 21.578125 
z
M 31.109375 56 
z
" id="DejaVuSans-75"/>
      <path d="M 45.40625 27.984375 
Q 45.40625 37.75 41.375 43.109375 
Q 37.359375 48.484375 30.078125 48.484375 
Q 22.859375 48.484375 18.828125 43.109375 
Q 14.796875 37.75 14.796875 27.984375 
Q 14.796875 18.265625 18.828125 12.890625 
Q 22.859375 7.515625 30.078125 7.515625 
Q 37.359375 7.515625 41.375 12.890625 
Q 45.40625 18.265625 45.40625 27.984375 
z
M 54.390625 6.78125 
Q 54.390625 -7.171875 48.1875 -13.984375 
Q 42 -20.796875 29.203125 -20.796875 
Q 24.46875 -20.796875 20.265625 -20.09375 
Q 16.0625 -19.390625 12.109375 -17.921875 
L 12.109375 -9.1875 
Q 16.0625 -11.328125 19.921875 -12.34375 
Q 23.78125 -13.375 27.78125 -13.375 
Q 36.625 -13.375 41.015625 -8.765625 
Q 45.40625 -4.15625 45.40625 5.171875 
L 45.40625 9.625 
Q 42.625 4.78125 38.28125 2.390625 
Q 33.9375 0 27.875 0 
Q 17.828125 0 11.671875 7.65625 
Q 5.515625 15.328125 5.515625 27.984375 
Q 5.515625 40.671875 11.671875 48.328125 
Q 17.828125 56 27.875 56 
Q 33.9375 56 38.28125 53.609375 
Q 42.625 51.21875 45.40625 46.390625 
L 45.40625 54.6875 
L 54.390625 54.6875 
z
" id="DejaVuSans-67"/>
      <path d="M 44.28125 53.078125 
L 44.28125 44.578125 
Q 40.484375 46.53125 36.375 47.5 
Q 32.28125 48.484375 27.875 48.484375 
Q 21.1875 48.484375 17.84375 46.4375 
Q 14.5 44.390625 14.5 40.28125 
Q 14.5 37.15625 16.890625 35.375 
Q 19.28125 33.59375 26.515625 31.984375 
L 29.59375 31.296875 
Q 39.15625 29.25 43.1875 25.515625 
Q 47.21875 21.78125 47.21875 15.09375 
Q 47.21875 7.46875 41.1875 3.015625 
Q 35.15625 -1.421875 24.609375 -1.421875 
Q 20.21875 -1.421875 15.453125 -0.5625 
Q 10.6875 0.296875 5.421875 2 
L 5.421875 11.28125 
Q 10.40625 8.6875 15.234375 7.390625 
Q 20.0625 6.109375 24.8125 6.109375 
Q 31.15625 6.109375 34.5625 8.28125 
Q 37.984375 10.453125 37.984375 14.40625 
Q 37.984375 18.0625 35.515625 20.015625 
Q 33.0625 21.96875 24.703125 23.78125 
L 21.578125 24.515625 
Q 13.234375 26.265625 9.515625 29.90625 
Q 5.8125 33.546875 5.8125 39.890625 
Q 5.8125 47.609375 11.28125 51.796875 
Q 16.75 56 26.8125 56 
Q 31.78125 56 36.171875 55.265625 
Q 40.578125 54.546875 44.28125 53.078125 
z
" id="DejaVuSans-73"/>
     </defs>
     <g style="fill:#ff7f0e;" transform="translate(16.815625 283.588594)rotate(-90)scale(0.1 -0.1)">
      <use xlink:href="#DejaVuSans-52"/>
      <use x="69.419922" xlink:href="#DejaVuSans-65"/>
      <use x="130.943359" xlink:href="#DejaVuSans-66"/>
      <use x="166.148438" xlink:href="#DejaVuSans-75"/>
      <use x="229.527344" xlink:href="#DejaVuSans-67"/>
      <use x="293.003906" xlink:href="#DejaVuSans-65"/>
      <use x="354.527344" xlink:href="#DejaVuSans-65"/>
      <use x="416.050781" xlink:href="#DejaVuSans-73"/>
     </g>
    </g>
   </g>
   <g id="line2d_12">
    <path clip-path="url(#p479f6eb345)" d="M 99.710085 458.985497 
L 104.56437 456.612133 
L 109.418654 457.43284 
L 114.272939 461.399249 
L 119.127223 461.777969 
L 123.981508 453.585862 
L 128.835792 481.537359 
L 133.690077 479.346694 
L 138.544361 480.068027 
L 143.398645 484.166267 
L 148.25293 484.247904 
L 153.107214 476.429015 
L 157.961499 471.933476 
L 162.815783 469.616344 
L 167.670068 470.355499 
L 172.524352 474.401511 
L 177.378637 474.63547 
L 182.232921 466.677079 
L 187.087206 480.032771 
L 191.94149 477.750811 
L 196.795775 478.438945 
L 201.650059 482.534753 
L 206.504344 482.678175 
L 211.358628 474.865988 
L 216.212913 473.161838 
L 221.067197 470.850039 
L 225.921481 471.581461 
L 230.775766 475.635027 
L 235.63005 475.855254 
L 240.484335 467.919036 
L 245.338619 483.985872 
L 250.192904 484.251868 
L 255.047188 485.966262 
L 259.901473 486.98 
L 264.755757 486.98 
L 269.610042 478.992888 
L 274.464326 450.326721 
L 279.318611 447.915753 
L 284.172895 448.791022 
L 289.02718 452.704188 
L 293.881464 453.179697 
L 298.735749 444.831278 
L 303.590033 485.298164 
L 308.444318 486.98 
L 323.007171 486.98 
L 327.861455 479.785372 
L 332.71574 479.035232 
L 337.570024 476.748938 
L 342.424309 477.44336 
L 347.278593 481.533036 
L 352.132878 481.687608 
L 356.987162 473.85741 
L 361.841447 485.025236 
L 366.695731 486.662092 
L 371.550016 486.98 
L 381.258585 486.98 
L 386.112869 479.620554 
L 390.967154 472.853641 
L 395.821438 470.540507 
L 400.675722 471.273864 
L 405.530007 475.32553 
L 410.384291 475.549207 
L 415.238576 467.607427 
L 420.09286 484.992162 
L 424.947145 486.585391 
L 429.801429 486.98 
L 439.509998 486.98 
L 444.364283 479.60058 
L 449.218567 478.906799 
L 454.072852 476.619948 
L 458.927136 477.31518 
L 463.781421 481.404066 
L 468.635705 481.560069 
L 473.48999 473.727555 
L 478.344274 485.777962 
L 483.198558 486.98 
L 497.761412 486.98 
L 502.615696 480.075121 
L 507.469981 469.100078 
L 512.324265 466.770635 
L 517.17855 467.527642 
L 522.032834 471.556232 
L 526.887119 471.821874 
L 531.741403 463.812334 
L 536.595688 484.097987 
L 541.449972 484.511865 
L 546.304257 486.276141 
L 551.158541 486.98 
L 556.012826 486.98 
L 560.86711 479.060593 
L 565.721394 449.350911 
L 570.575679 446.935695 
L 575.429963 447.81712 
L 580.284248 451.724288 
L 585.138532 452.210703 
L 589.992817 443.844668 
L 594.847101 486.290509 
L 599.701386 486.98 
L 614.264239 486.98 
L 619.118524 480.384645 
L 623.972808 464.876996 
L 628.827093 462.529216 
L 633.681377 463.31283 
L 638.535662 467.315452 
L 643.389946 467.628299 
L 648.244231 459.542536 
L 653.098515 476.67743 
L 657.952799 474.380898 
L 662.807084 475.090169 
L 667.661368 479.165346 
L 672.515653 479.346275 
L 677.369937 471.473521 
L 682.224222 466.707928 
L 687.078506 464.368104 
L 691.932791 465.140176 
L 696.787075 469.154066 
L 701.64136 469.44644 
L 706.495644 461.393722 
L 711.349929 481.167808 
L 716.204213 478.890779 
L 721.058498 479.571765 
L 725.912782 483.674549 
L 730.767067 483.805283 
L 735.621351 476.013582 
L 740.475635 418.776978 
L 745.32992 416.228973 
L 750.184204 417.302999 
L 755.038489 421.022204 
L 759.892773 421.850409 
L 764.747058 412.932485 
L 769.601342 458.561013 
L 774.455627 456.185796 
L 779.309911 457.009192 
L 784.164196 460.973003 
L 789.01848 461.356454 
L 793.872765 453.156673 
L 798.727049 432.981598 
L 803.581334 430.495293 
L 808.435618 431.479821 
L 813.289903 435.286353 
L 818.144187 435.955771 
L 822.998471 427.294251 
L 827.852756 469.702296 
L 832.70704 467.375478 
L 837.561325 468.12869 
L 842.415609 472.160985 
L 847.269894 472.419888 
L 852.124178 464.421224 
L 856.978463 459.489321 
L 861.832747 457.118134 
L 866.687032 457.93568 
L 871.541316 461.905198 
L 876.395601 462.278275 
L 881.249885 454.095248 
L 886.10417 485.196733 
L 890.958454 486.98 
L 905.521307 486.98 
L 910.375592 479.724119 
L 915.229876 455.389551 
L 920.084161 453.000564 
L 924.938445 453.84395 
L 929.79273 457.788239 
L 934.647014 458.207151 
L 939.501299 449.950121 
L 944.355583 455.094885 
L 949.209868 452.704622 
L 954.064152 453.549857 
L 958.918437 457.492343 
L 963.772721 457.914544 
L 968.627006 449.652202 
L 973.48129 436.852719 
L 978.335575 434.383234 
L 983.189859 435.343366 
L 988.044144 439.173719 
L 992.898428 439.799848 
L 997.752712 431.208209 
L 1002.606997 433.161534 
L 1007.461281 430.676006 
L 1012.315566 431.659402 
L 1017.16985 435.467056 
L 1022.024135 436.134454 
L 1026.878419 427.47618 
L 1031.732704 421.726817 
L 1036.586988 419.191636 
L 1041.441273 420.247062 
L 1046.295557 423.9844 
L 1051.149842 424.779636 
L 1056.004126 415.914958 
L 1060.858411 354.489802 
L 1065.712695 358.721638 
L 1070.56698 364.343515 
L 1075.421264 367.940149 
L 1080.275548 366.559556 
L 1085.129833 354.335729 
L 1089.984117 267.446627 
L 1094.838402 272.348508 
L 1099.692686 284.533649 
L 1104.546971 294.983733 
L 1109.401255 300.161838 
L 1114.25554 292.002273 
L 1114.25554 292.002273 
" style="fill:none;stroke:#008000;stroke-dasharray:5.55,2.4;stroke-dashoffset:0;stroke-width:1.5;"/>
   </g>
   <g id="line2d_13">
    <path clip-path="url(#p479f6eb345)" d="M 99.710085 472.319924 
L 104.56437 457.659848 
L 109.418654 472.319924 
L 114.272939 479.218783 
L 119.127223 476.631711 
L 123.981508 471.457567 
L 128.835792 468.870494 
L 133.690077 474.906996 
L 138.544361 468.008137 
L 143.398645 472.319924 
L 148.25293 475.769354 
L 153.107214 468.870494 
L 162.815783 470.595209 
L 167.670068 468.008137 
L 172.524352 464.558707 
L 177.378637 456.79749 
L 182.232921 462.833992 
L 187.087206 473.182281 
L 191.94149 478.356426 
L 196.795775 477.494068 
L 201.650059 478.356426 
L 206.504344 468.008137 
L 211.358628 466.283422 
L 216.212913 459.384563 
L 221.067197 478.356426 
L 225.921481 471.457567 
L 230.775766 476.631711 
L 235.63005 468.870494 
L 240.484335 450.760989 
L 245.338619 466.283422 
L 250.192904 476.631711 
L 255.047188 466.283422 
L 259.901473 473.182281 
L 264.755757 474.906996 
L 269.610042 473.182281 
L 274.464326 478.356426 
L 279.318611 461.971635 
L 284.172895 467.145779 
L 289.02718 467.145779 
L 293.881464 474.044639 
L 298.735749 463.69635 
L 303.590033 481.805856 
L 308.444318 480.081141 
L 313.298602 475.769354 
L 318.152886 476.631711 
L 323.007171 475.769354 
L 327.861455 478.356426 
L 332.71574 475.769354 
L 337.570024 472.319924 
L 342.424309 477.494068 
L 347.278593 467.145779 
L 352.132878 467.145779 
L 356.987162 476.631711 
L 361.841447 462.833992 
L 366.695731 478.356426 
L 371.550016 480.943498 
L 376.4043 477.494068 
L 381.258585 478.356426 
L 386.112869 468.008137 
L 390.967154 473.182281 
L 395.821438 474.906996 
L 400.675722 480.943498 
L 405.530007 478.356426 
L 410.384291 477.494068 
L 415.238576 471.457567 
L 420.09286 479.218783 
L 424.947145 480.081141 
L 429.801429 480.081141 
L 434.655714 484.392928 
L 439.509998 483.53057 
L 444.364283 478.356426 
L 449.218567 484.392928 
L 454.072852 466.283422 
L 458.927136 478.356426 
L 468.635705 481.805856 
L 473.48999 482.668213 
L 478.344274 480.943498 
L 483.198558 475.769354 
L 488.052843 482.668213 
L 497.761412 486.117643 
L 502.615696 484.392928 
L 507.469981 480.081141 
L 512.324265 474.906996 
L 517.17855 480.943498 
L 522.032834 477.494068 
L 526.887119 480.943498 
L 531.741403 475.769354 
L 536.595688 480.943498 
L 541.449972 483.53057 
L 546.304257 480.081141 
L 551.158541 485.255285 
L 556.012826 485.255285 
L 560.86711 479.218783 
L 565.721394 483.53057 
L 570.575679 485.255285 
L 580.284248 481.805856 
L 585.138532 475.769354 
L 589.992817 480.943498 
L 594.847101 482.668213 
L 599.701386 479.218783 
L 604.55567 471.457567 
L 609.409955 480.081141 
L 614.264239 476.631711 
L 619.118524 480.081141 
L 623.972808 468.870494 
L 633.681377 465.421065 
L 638.535662 474.906996 
L 643.389946 482.668213 
L 648.244231 478.356426 
L 653.098515 478.356426 
L 657.952799 470.595209 
L 662.807084 468.870494 
L 667.661368 475.769354 
L 672.515653 473.182281 
L 677.369937 478.356426 
L 682.224222 463.69635 
L 687.078506 471.457567 
L 691.932791 450.760989 
L 696.787075 462.833992 
L 701.64136 465.421065 
L 706.495644 470.595209 
L 711.349929 455.072776 
L 716.204213 450.760989 
L 721.058498 465.421065 
L 725.912782 465.421065 
L 730.767067 457.659848 
L 735.621351 464.558707 
L 740.475635 462.833992 
L 750.184204 447.311559 
L 755.038489 453.348061 
L 759.892773 466.283422 
L 764.747058 440.4127 
L 769.601342 471.457567 
L 774.455627 466.283422 
L 779.309911 466.283422 
L 784.164196 458.522205 
L 789.01848 446.449202 
L 793.872765 455.935133 
L 798.727049 459.384563 
L 808.435618 473.182281 
L 813.289903 461.109278 
L 818.144187 466.283422 
L 822.998471 463.69635 
L 827.852756 474.906996 
L 832.70704 470.595209 
L 837.561325 461.971635 
L 842.415609 467.145779 
L 847.269894 453.348061 
L 852.124178 474.044639 
L 856.978463 463.69635 
L 861.832747 457.659848 
L 866.687032 458.522205 
L 871.541316 453.348061 
L 876.395601 465.421065 
L 881.249885 473.182281 
L 886.10417 460.24692 
L 890.958454 450.760989 
L 895.812739 468.008137 
L 900.667023 477.494068 
L 905.521307 463.69635 
L 910.375592 469.732852 
L 915.229876 454.210418 
L 920.084161 460.24692 
L 924.938445 454.210418 
L 929.79273 436.100913 
L 934.647014 445.586844 
L 939.501299 454.210418 
L 944.355583 464.558707 
L 949.209868 461.109278 
L 954.064152 450.760989 
L 958.918437 460.24692 
L 963.772721 454.210418 
L 968.627006 436.100913 
L 973.48129 443.862129 
L 978.335575 436.96327 
L 983.189859 388.671255 
L 988.044144 422.303194 
L 992.898428 418.853764 
L 997.752712 405.918403 
L 1002.606997 433.51384 
L 1007.461281 403.331331 
L 1012.315566 454.210418 
L 1017.16985 443.862129 
L 1022.024135 432.651483 
L 1026.878419 423.165551 
L 1031.732704 393.845399 
L 1036.586988 369.699392 
L 1041.441273 367.112319 
L 1046.295557 391.258327 
L 1051.149842 366.249962 
L 1056.004126 365.387605 
L 1060.858411 381.772395 
L 1065.712695 320.545019 
L 1070.56698 311.921445 
L 1075.421264 246.382281 
L 1080.275548 247.244639 
L 1085.129833 328.306236 
L 1089.984117 330.030951 
L 1094.838402 33.38 
L 1099.692686 57.526008 
L 1104.546971 204.989125 
L 1109.401255 321.407376 
L 1114.25554 354.176958 
L 1114.25554 354.176958 
" style="fill:none;stroke:#ff7f0e;stroke-linecap:square;stroke-width:1.5;"/>
   </g>
   <g id="line2d_14">
    <defs>
     <path d="M 0 3 
C 0.795609 3 1.55874 2.683901 2.12132 2.12132 
C 2.683901 1.55874 3 0.795609 3 0 
C 3 -0.795609 2.683901 -1.55874 2.12132 -2.12132 
C 1.55874 -2.683901 0.795609 -3 0 -3 
C -0.795609 -3 -1.55874 -2.683901 -2.12132 -2.12132 
C -2.683901 -1.55874 -3 -0.795609 -3 0 
C -3 0.795609 -2.683901 1.55874 -2.12132 2.12132 
C -1.55874 2.683901 -0.795609 3 0 3 
z
" id="ma20b092a9e" style="stroke:#008000;"/>
    </defs>
    <g clip-path="url(#p479f6eb345)">
     <use style="fill:#008000;stroke:#008000;" x="99.710085" xlink:href="#ma20b092a9e" y="458.985497"/>
     <use style="fill:#008000;stroke:#008000;" x="128.835792" xlink:href="#ma20b092a9e" y="481.537359"/>
     <use style="fill:#008000;stroke:#008000;" x="157.961499" xlink:href="#ma20b092a9e" y="471.933476"/>
     <use style="fill:#008000;stroke:#008000;" x="187.087206" xlink:href="#ma20b092a9e" y="480.032771"/>
     <use style="fill:#008000;stroke:#008000;" x="216.212913" xlink:href="#ma20b092a9e" y="473.161838"/>
     <use style="fill:#008000;stroke:#008000;" x="245.338619" xlink:href="#ma20b092a9e" y="483.985872"/>
     <use style="fill:#008000;stroke:#008000;" x="274.464326" xlink:href="#ma20b092a9e" y="450.326721"/>
     <use style="fill:#008000;stroke:#008000;" x="303.590033" xlink:href="#ma20b092a9e" y="485.298164"/>
     <use style="fill:#008000;stroke:#008000;" x="332.71574" xlink:href="#ma20b092a9e" y="479.035232"/>
     <use style="fill:#008000;stroke:#008000;" x="361.841447" xlink:href="#ma20b092a9e" y="485.025236"/>
     <use style="fill:#008000;stroke:#008000;" x="390.967154" xlink:href="#ma20b092a9e" y="472.853641"/>
     <use style="fill:#008000;stroke:#008000;" x="420.09286" xlink:href="#ma20b092a9e" y="484.992162"/>
     <use style="fill:#008000;stroke:#008000;" x="449.218567" xlink:href="#ma20b092a9e" y="478.906799"/>
     <use style="fill:#008000;stroke:#008000;" x="478.344274" xlink:href="#ma20b092a9e" y="485.777962"/>
     <use style="fill:#008000;stroke:#008000;" x="507.469981" xlink:href="#ma20b092a9e" y="469.100078"/>
     <use style="fill:#008000;stroke:#008000;" x="536.595688" xlink:href="#ma20b092a9e" y="484.097987"/>
     <use style="fill:#008000;stroke:#008000;" x="565.721394" xlink:href="#ma20b092a9e" y="449.350911"/>
     <use style="fill:#008000;stroke:#008000;" x="594.847101" xlink:href="#ma20b092a9e" y="486.290509"/>
     <use style="fill:#008000;stroke:#008000;" x="623.972808" xlink:href="#ma20b092a9e" y="464.876996"/>
     <use style="fill:#008000;stroke:#008000;" x="653.098515" xlink:href="#ma20b092a9e" y="476.67743"/>
     <use style="fill:#008000;stroke:#008000;" x="682.224222" xlink:href="#ma20b092a9e" y="466.707928"/>
     <use style="fill:#008000;stroke:#008000;" x="711.349929" xlink:href="#ma20b092a9e" y="481.167808"/>
     <use style="fill:#008000;stroke:#008000;" x="740.475635" xlink:href="#ma20b092a9e" y="418.776978"/>
     <use style="fill:#008000;stroke:#008000;" x="769.601342" xlink:href="#ma20b092a9e" y="458.561013"/>
     <use style="fill:#008000;stroke:#008000;" x="798.727049" xlink:href="#ma20b092a9e" y="432.981598"/>
     <use style="fill:#008000;stroke:#008000;" x="827.852756" xlink:href="#ma20b092a9e" y="469.702296"/>
     <use style="fill:#008000;stroke:#008000;" x="856.978463" xlink:href="#ma20b092a9e" y="459.489321"/>
     <use style="fill:#008000;stroke:#008000;" x="886.10417" xlink:href="#ma20b092a9e" y="485.196733"/>
     <use style="fill:#008000;stroke:#008000;" x="915.229876" xlink:href="#ma20b092a9e" y="455.389551"/>
     <use style="fill:#008000;stroke:#008000;" x="944.355583" xlink:href="#ma20b092a9e" y="455.094885"/>
     <use style="fill:#008000;stroke:#008000;" x="973.48129" xlink:href="#ma20b092a9e" y="436.852719"/>
     <use style="fill:#008000;stroke:#008000;" x="1002.606997" xlink:href="#ma20b092a9e" y="433.161534"/>
     <use style="fill:#008000;stroke:#008000;" x="1031.732704" xlink:href="#ma20b092a9e" y="421.726817"/>
     <use style="fill:#008000;stroke:#008000;" x="1060.858411" xlink:href="#ma20b092a9e" y="354.489802"/>
     <use style="fill:#008000;stroke:#008000;" x="1089.984117" xlink:href="#ma20b092a9e" y="267.446627"/>
    </g>
   </g>
   <g id="patch_3">
    <path d="M 48.982813 509.66 
L 48.982813 10.7 
" style="fill:none;stroke:#000000;stroke-linecap:square;stroke-linejoin:miter;stroke-width:0.8;"/>
   </g>
   <g id="patch_4">
    <path d="M 1164.982812 509.66 
L 1164.982812 10.7 
" style="fill:none;stroke:#000000;stroke-linecap:square;stroke-linejoin:miter;stroke-width:0.8;"/>
   </g>
   <g id="patch_5">
    <path d="M 48.982813 509.66 
L 1164.982812 509.66 
" style="fill:none;stroke:#000000;stroke-linecap:square;stroke-linejoin:miter;stroke-width:0.8;"/>
   </g>
   <g id="patch_6">
    <path d="M 48.982813 10.7 
L 1164.982812 10.7 
" style="fill:none;stroke:#000000;stroke-linecap:square;stroke-linejoin:miter;stroke-width:0.8;"/>
   </g>
   <g id="legend_1">
    <g id="patch_7">
     <path d="M 55.982813 62.734375 
L 203.757813 62.734375 
Q 205.757813 62.734375 205.757813 60.734375 
L 205.757813 17.7 
Q 205.757813 15.7 203.757813 15.7 
L 55.982813 15.7 
Q 53.982813 15.7 53.982813 17.7 
L 53.982813 60.734375 
Q 53.982813 62.734375 55.982813 62.734375 
z
" style="fill:#ffffff;opacity:0.8;stroke:#cccccc;stroke-linejoin:miter;"/>
    </g>
    <g id="line2d_15">
     <path d="M 57.982813 23.798437 
L 77.982813 23.798437 
" style="fill:none;stroke:#008000;stroke-dasharray:5.55,2.4;stroke-dashoffset:0;stroke-width:1.5;"/>
    </g>
    <g id="line2d_16"/>
    <g id="text_14">
     <!-- Predicted -->
     <defs>
      <path d="M 19.671875 64.796875 
L 19.671875 37.40625 
L 32.078125 37.40625 
Q 38.96875 37.40625 42.71875 40.96875 
Q 46.484375 44.53125 46.484375 51.125 
Q 46.484375 57.671875 42.71875 61.234375 
Q 38.96875 64.796875 32.078125 64.796875 
z
M 9.8125 72.90625 
L 32.078125 72.90625 
Q 44.34375 72.90625 50.609375 67.359375 
Q 56.890625 61.8125 56.890625 51.125 
Q 56.890625 40.328125 50.609375 34.8125 
Q 44.34375 29.296875 32.078125 29.296875 
L 19.671875 29.296875 
L 19.671875 0 
L 9.8125 0 
z
" id="DejaVuSans-50"/>
      <path d="M 41.109375 46.296875 
Q 39.59375 47.171875 37.8125 47.578125 
Q 36.03125 48 33.890625 48 
Q 26.265625 48 22.1875 43.046875 
Q 18.109375 38.09375 18.109375 28.8125 
L 18.109375 0 
L 9.078125 0 
L 9.078125 54.6875 
L 18.109375 54.6875 
L 18.109375 46.1875 
Q 20.953125 51.171875 25.484375 53.578125 
Q 30.03125 56 36.53125 56 
Q 37.453125 56 38.578125 55.875 
Q 39.703125 55.765625 41.0625 55.515625 
z
" id="DejaVuSans-72"/>
      <path d="M 45.40625 46.390625 
L 45.40625 75.984375 
L 54.390625 75.984375 
L 54.390625 0 
L 45.40625 0 
L 45.40625 8.203125 
Q 42.578125 3.328125 38.25 0.953125 
Q 33.9375 -1.421875 27.875 -1.421875 
Q 17.96875 -1.421875 11.734375 6.484375 
Q 5.515625 14.40625 5.515625 27.296875 
Q 5.515625 40.1875 11.734375 48.09375 
Q 17.96875 56 27.875 56 
Q 33.9375 56 38.25 53.625 
Q 42.578125 51.265625 45.40625 46.390625 
z
M 14.796875 27.296875 
Q 14.796875 17.390625 18.875 11.75 
Q 22.953125 6.109375 30.078125 6.109375 
Q 37.203125 6.109375 41.296875 11.75 
Q 45.40625 17.390625 45.40625 27.296875 
Q 45.40625 37.203125 41.296875 42.84375 
Q 37.203125 48.484375 30.078125 48.484375 
Q 22.953125 48.484375 18.875 42.84375 
Q 14.796875 37.203125 14.796875 27.296875 
z
" id="DejaVuSans-64"/>
      <path d="M 48.78125 52.59375 
L 48.78125 44.1875 
Q 44.96875 46.296875 41.140625 47.34375 
Q 37.3125 48.390625 33.40625 48.390625 
Q 24.65625 48.390625 19.8125 42.84375 
Q 14.984375 37.3125 14.984375 27.296875 
Q 14.984375 17.28125 19.8125 11.734375 
Q 24.65625 6.203125 33.40625 6.203125 
Q 37.3125 6.203125 41.140625 7.25 
Q 44.96875 8.296875 48.78125 10.40625 
L 48.78125 2.09375 
Q 45.015625 0.34375 40.984375 -0.53125 
Q 36.96875 -1.421875 32.421875 -1.421875 
Q 20.0625 -1.421875 12.78125 6.34375 
Q 5.515625 14.109375 5.515625 27.296875 
Q 5.515625 40.671875 12.859375 48.328125 
Q 20.21875 56 33.015625 56 
Q 37.15625 56 41.109375 55.140625 
Q 45.0625 54.296875 48.78125 52.59375 
z
" id="DejaVuSans-63"/>
      <path d="M 18.3125 70.21875 
L 18.3125 54.6875 
L 36.8125 54.6875 
L 36.8125 47.703125 
L 18.3125 47.703125 
L 18.3125 18.015625 
Q 18.3125 11.328125 20.140625 9.421875 
Q 21.96875 7.515625 27.59375 7.515625 
L 36.8125 7.515625 
L 36.8125 0 
L 27.59375 0 
Q 17.1875 0 13.234375 3.875 
Q 9.28125 7.765625 9.28125 18.015625 
L 9.28125 47.703125 
L 2.6875 47.703125 
L 2.6875 54.6875 
L 9.28125 54.6875 
L 9.28125 70.21875 
z
" id="DejaVuSans-74"/>
     </defs>
     <g transform="translate(85.982813 27.298437)scale(0.1 -0.1)">
      <use xlink:href="#DejaVuSans-50"/>
      <use x="60.287109" xlink:href="#DejaVuSans-72"/>
      <use x="101.369141" xlink:href="#DejaVuSans-65"/>
      <use x="162.892578" xlink:href="#DejaVuSans-64"/>
      <use x="226.369141" xlink:href="#DejaVuSans-69"/>
      <use x="254.152344" xlink:href="#DejaVuSans-63"/>
      <use x="309.132812" xlink:href="#DejaVuSans-74"/>
      <use x="348.341797" xlink:href="#DejaVuSans-65"/>
      <use x="409.865234" xlink:href="#DejaVuSans-64"/>
     </g>
    </g>
    <g id="line2d_17">
     <path d="M 57.982813 38.476562 
L 77.982813 38.476562 
" style="fill:none;stroke:#ff7f0e;stroke-linecap:square;stroke-width:1.5;"/>
    </g>
    <g id="line2d_18"/>
    <g id="text_15">
     <!-- Real Data -->
     <defs>
      <path d="M 34.28125 27.484375 
Q 23.390625 27.484375 19.1875 25 
Q 14.984375 22.515625 14.984375 16.5 
Q 14.984375 11.71875 18.140625 8.90625 
Q 21.296875 6.109375 26.703125 6.109375 
Q 34.1875 6.109375 38.703125 11.40625 
Q 43.21875 16.703125 43.21875 25.484375 
L 43.21875 27.484375 
z
M 52.203125 31.203125 
L 52.203125 0 
L 43.21875 0 
L 43.21875 8.296875 
Q 40.140625 3.328125 35.546875 0.953125 
Q 30.953125 -1.421875 24.3125 -1.421875 
Q 15.921875 -1.421875 10.953125 3.296875 
Q 6 8.015625 6 15.921875 
Q 6 25.140625 12.171875 29.828125 
Q 18.359375 34.515625 30.609375 34.515625 
L 43.21875 34.515625 
L 43.21875 35.40625 
Q 43.21875 41.609375 39.140625 45 
Q 35.0625 48.390625 27.6875 48.390625 
Q 23 48.390625 18.546875 47.265625 
Q 14.109375 46.140625 10.015625 43.890625 
L 10.015625 52.203125 
Q 14.9375 54.109375 19.578125 55.046875 
Q 24.21875 56 28.609375 56 
Q 40.484375 56 46.34375 49.84375 
Q 52.203125 43.703125 52.203125 31.203125 
z
" id="DejaVuSans-61"/>
      <path d="M 9.421875 75.984375 
L 18.40625 75.984375 
L 18.40625 0 
L 9.421875 0 
z
" id="DejaVuSans-6c"/>
      <path id="DejaVuSans-20"/>
      <path d="M 19.671875 64.796875 
L 19.671875 8.109375 
L 31.59375 8.109375 
Q 46.6875 8.109375 53.6875 14.9375 
Q 60.6875 21.78125 60.6875 36.53125 
Q 60.6875 51.171875 53.6875 57.984375 
Q 46.6875 64.796875 31.59375 64.796875 
z
M 9.8125 72.90625 
L 30.078125 72.90625 
Q 51.265625 72.90625 61.171875 64.09375 
Q 71.09375 55.28125 71.09375 36.53125 
Q 71.09375 17.671875 61.125 8.828125 
Q 51.171875 0 30.078125 0 
L 9.8125 0 
z
" id="DejaVuSans-44"/>
     </defs>
     <g transform="translate(85.982813 41.976562)scale(0.1 -0.1)">
      <use xlink:href="#DejaVuSans-52"/>
      <use x="69.419922" xlink:href="#DejaVuSans-65"/>
      <use x="130.943359" xlink:href="#DejaVuSans-61"/>
      <use x="192.222656" xlink:href="#DejaVuSans-6c"/>
      <use x="220.005859" xlink:href="#DejaVuSans-20"/>
      <use x="251.792969" xlink:href="#DejaVuSans-44"/>
      <use x="328.794922" xlink:href="#DejaVuSans-61"/>
      <use x="390.074219" xlink:href="#DejaVuSans-74"/>
      <use x="429.283203" xlink:href="#DejaVuSans-61"/>
     </g>
    </g>
    <g id="line2d_19"/>
    <g id="line2d_20">
     <g>
      <use style="fill:#008000;stroke:#008000;" x="67.982813" xlink:href="#ma20b092a9e" y="53.154688"/>
     </g>
    </g>
    <g id="text_16">
     <!-- Start Point for Forecast -->
     <defs>
      <path d="M 53.515625 70.515625 
L 53.515625 60.890625 
Q 47.90625 63.578125 42.921875 64.890625 
Q 37.9375 66.21875 33.296875 66.21875 
Q 25.25 66.21875 20.875 63.09375 
Q 16.5 59.96875 16.5 54.203125 
Q 16.5 49.359375 19.40625 46.890625 
Q 22.3125 44.4375 30.421875 42.921875 
L 36.375 41.703125 
Q 47.40625 39.59375 52.65625 34.296875 
Q 57.90625 29 57.90625 20.125 
Q 57.90625 9.515625 50.796875 4.046875 
Q 43.703125 -1.421875 29.984375 -1.421875 
Q 24.8125 -1.421875 18.96875 -0.25 
Q 13.140625 0.921875 6.890625 3.21875 
L 6.890625 13.375 
Q 12.890625 10.015625 18.65625 8.296875 
Q 24.421875 6.59375 29.984375 6.59375 
Q 38.421875 6.59375 43.015625 9.90625 
Q 47.609375 13.234375 47.609375 19.390625 
Q 47.609375 24.75 44.3125 27.78125 
Q 41.015625 30.8125 33.5 32.328125 
L 27.484375 33.5 
Q 16.453125 35.6875 11.515625 40.375 
Q 6.59375 45.0625 6.59375 53.421875 
Q 6.59375 63.09375 13.40625 68.65625 
Q 20.21875 74.21875 32.171875 74.21875 
Q 37.3125 74.21875 42.625 73.28125 
Q 47.953125 72.359375 53.515625 70.515625 
z
" id="DejaVuSans-53"/>
      <path d="M 30.609375 48.390625 
Q 23.390625 48.390625 19.1875 42.75 
Q 14.984375 37.109375 14.984375 27.296875 
Q 14.984375 17.484375 19.15625 11.84375 
Q 23.34375 6.203125 30.609375 6.203125 
Q 37.796875 6.203125 41.984375 11.859375 
Q 46.1875 17.53125 46.1875 27.296875 
Q 46.1875 37.015625 41.984375 42.703125 
Q 37.796875 48.390625 30.609375 48.390625 
z
M 30.609375 56 
Q 42.328125 56 49.015625 48.375 
Q 55.71875 40.765625 55.71875 27.296875 
Q 55.71875 13.875 49.015625 6.21875 
Q 42.328125 -1.421875 30.609375 -1.421875 
Q 18.84375 -1.421875 12.171875 6.21875 
Q 5.515625 13.875 5.515625 27.296875 
Q 5.515625 40.765625 12.171875 48.375 
Q 18.84375 56 30.609375 56 
z
" id="DejaVuSans-6f"/>
      <path d="M 54.890625 33.015625 
L 54.890625 0 
L 45.90625 0 
L 45.90625 32.71875 
Q 45.90625 40.484375 42.875 44.328125 
Q 39.84375 48.1875 33.796875 48.1875 
Q 26.515625 48.1875 22.3125 43.546875 
Q 18.109375 38.921875 18.109375 30.90625 
L 18.109375 0 
L 9.078125 0 
L 9.078125 54.6875 
L 18.109375 54.6875 
L 18.109375 46.1875 
Q 21.34375 51.125 25.703125 53.5625 
Q 30.078125 56 35.796875 56 
Q 45.21875 56 50.046875 50.171875 
Q 54.890625 44.34375 54.890625 33.015625 
z
" id="DejaVuSans-6e"/>
      <path d="M 9.8125 72.90625 
L 51.703125 72.90625 
L 51.703125 64.59375 
L 19.671875 64.59375 
L 19.671875 43.109375 
L 48.578125 43.109375 
L 48.578125 34.8125 
L 19.671875 34.8125 
L 19.671875 0 
L 9.8125 0 
z
" id="DejaVuSans-46"/>
     </defs>
     <g transform="translate(85.982813 56.654688)scale(0.1 -0.1)">
      <use xlink:href="#DejaVuSans-53"/>
      <use x="63.476562" xlink:href="#DejaVuSans-74"/>
      <use x="102.685547" xlink:href="#DejaVuSans-61"/>
      <use x="163.964844" xlink:href="#DejaVuSans-72"/>
      <use x="205.078125" xlink:href="#DejaVuSans-74"/>
      <use x="244.287109" xlink:href="#DejaVuSans-20"/>
      <use x="276.074219" xlink:href="#DejaVuSans-50"/>
      <use x="336.330078" xlink:href="#DejaVuSans-6f"/>
      <use x="397.511719" xlink:href="#DejaVuSans-69"/>
      <use x="425.294922" xlink:href="#DejaVuSans-6e"/>
      <use x="488.673828" xlink:href="#DejaVuSans-74"/>
      <use x="527.882812" xlink:href="#DejaVuSans-20"/>
      <use x="559.669922" xlink:href="#DejaVuSans-66"/>
      <use x="594.875" xlink:href="#DejaVuSans-6f"/>
      <use x="656.056641" xlink:href="#DejaVuSans-72"/>
      <use x="697.169922" xlink:href="#DejaVuSans-20"/>
      <use x="728.957031" xlink:href="#DejaVuSans-46"/>
      <use x="786.429688" xlink:href="#DejaVuSans-6f"/>
      <use x="847.611328" xlink:href="#DejaVuSans-72"/>
      <use x="888.693359" xlink:href="#DejaVuSans-65"/>
      <use x="950.216797" xlink:href="#DejaVuSans-63"/>
      <use x="1005.197266" xlink:href="#DejaVuSans-61"/>
      <use x="1066.476562" xlink:href="#DejaVuSans-73"/>
      <use x="1118.576172" xlink:href="#DejaVuSans-74"/>
     </g>
    </g>
   </g>
  </g>
  <g id="axes_2">
   <g id="patch_8">
    <path d="M 48.982813 645.74 
L 1166.422812 645.74 
L 1166.422812 516.14 
L 48.982813 516.14 
z
" style="fill:none;"/>
   </g>
   <g id="matplotlib.axis_3">
    <g id="xtick_6">
     <g id="line2d_21">
      <g>
       <use style="stroke:#000000;stroke-width:0.8;" x="99.77554" xlink:href="#ma4770b46ec" y="645.74"/>
      </g>
     </g>
     <g id="text_17">
      <!-- 0 -->
      <g transform="translate(96.59429 660.338437)scale(0.1 -0.1)">
       <use xlink:href="#DejaVuSans-30"/>
      </g>
     </g>
    </g>
    <g id="xtick_7">
     <g id="line2d_22">
      <g>
       <use style="stroke:#000000;stroke-width:0.8;" x="224.267518" xlink:href="#ma4770b46ec" y="645.74"/>
      </g>
     </g>
     <g id="text_18">
      <!-- 25 -->
      <g transform="translate(217.905018 660.338437)scale(0.1 -0.1)">
       <use xlink:href="#DejaVuSans-32"/>
       <use x="63.623047" xlink:href="#DejaVuSans-35"/>
      </g>
     </g>
    </g>
    <g id="xtick_8">
     <g id="line2d_23">
      <g>
       <use style="stroke:#000000;stroke-width:0.8;" x="348.759497" xlink:href="#ma4770b46ec" y="645.74"/>
      </g>
     </g>
     <g id="text_19">
      <!-- 50 -->
      <g transform="translate(342.396997 660.338437)scale(0.1 -0.1)">
       <use xlink:href="#DejaVuSans-35"/>
       <use x="63.623047" xlink:href="#DejaVuSans-30"/>
      </g>
     </g>
    </g>
    <g id="xtick_9">
     <g id="line2d_24">
      <g>
       <use style="stroke:#000000;stroke-width:0.8;" x="473.251476" xlink:href="#ma4770b46ec" y="645.74"/>
      </g>
     </g>
     <g id="text_20">
      <!-- 75 -->
      <defs>
       <path d="M 8.203125 72.90625 
L 55.078125 72.90625 
L 55.078125 68.703125 
L 28.609375 0 
L 18.3125 0 
L 43.21875 64.59375 
L 8.203125 64.59375 
z
" id="DejaVuSans-37"/>
      </defs>
      <g transform="translate(466.888976 660.338437)scale(0.1 -0.1)">
       <use xlink:href="#DejaVuSans-37"/>
       <use x="63.623047" xlink:href="#DejaVuSans-35"/>
      </g>
     </g>
    </g>
    <g id="xtick_10">
     <g id="line2d_25">
      <g>
       <use style="stroke:#000000;stroke-width:0.8;" x="597.743454" xlink:href="#ma4770b46ec" y="645.74"/>
      </g>
     </g>
     <g id="text_21">
      <!-- 100 -->
      <g transform="translate(588.199704 660.338437)scale(0.1 -0.1)">
       <use xlink:href="#DejaVuSans-31"/>
       <use x="63.623047" xlink:href="#DejaVuSans-30"/>
       <use x="127.246094" xlink:href="#DejaVuSans-30"/>
      </g>
     </g>
    </g>
    <g id="xtick_11">
     <g id="line2d_26">
      <g>
       <use style="stroke:#000000;stroke-width:0.8;" x="722.235433" xlink:href="#ma4770b46ec" y="645.74"/>
      </g>
     </g>
     <g id="text_22">
      <!-- 125 -->
      <g transform="translate(712.691683 660.338437)scale(0.1 -0.1)">
       <use xlink:href="#DejaVuSans-31"/>
       <use x="63.623047" xlink:href="#DejaVuSans-32"/>
       <use x="127.246094" xlink:href="#DejaVuSans-35"/>
      </g>
     </g>
    </g>
    <g id="xtick_12">
     <g id="line2d_27">
      <g>
       <use style="stroke:#000000;stroke-width:0.8;" x="846.727411" xlink:href="#ma4770b46ec" y="645.74"/>
      </g>
     </g>
     <g id="text_23">
      <!-- 150 -->
      <g transform="translate(837.183661 660.338437)scale(0.1 -0.1)">
       <use xlink:href="#DejaVuSans-31"/>
       <use x="63.623047" xlink:href="#DejaVuSans-35"/>
       <use x="127.246094" xlink:href="#DejaVuSans-30"/>
      </g>
     </g>
    </g>
    <g id="xtick_13">
     <g id="line2d_28">
      <g>
       <use style="stroke:#000000;stroke-width:0.8;" x="971.21939" xlink:href="#ma4770b46ec" y="645.74"/>
      </g>
     </g>
     <g id="text_24">
      <!-- 175 -->
      <g transform="translate(961.67564 660.338437)scale(0.1 -0.1)">
       <use xlink:href="#DejaVuSans-31"/>
       <use x="63.623047" xlink:href="#DejaVuSans-37"/>
       <use x="127.246094" xlink:href="#DejaVuSans-35"/>
      </g>
     </g>
    </g>
    <g id="xtick_14">
     <g id="line2d_29">
      <g>
       <use style="stroke:#000000;stroke-width:0.8;" x="1095.711369" xlink:href="#ma4770b46ec" y="645.74"/>
      </g>
     </g>
     <g id="text_25">
      <!-- 200 -->
      <g transform="translate(1086.167619 660.338437)scale(0.1 -0.1)">
       <use xlink:href="#DejaVuSans-32"/>
       <use x="63.623047" xlink:href="#DejaVuSans-30"/>
       <use x="127.246094" xlink:href="#DejaVuSans-30"/>
      </g>
     </g>
    </g>
   </g>
   <g id="matplotlib.axis_4">
    <g id="ytick_7">
     <g id="line2d_30">
      <g>
       <use style="stroke:#000000;stroke-width:0.8;" x="48.982813" xlink:href="#ma307a4b8c8" y="624.700543"/>
      </g>
     </g>
     <g id="text_26">
      <!-- −10 -->
      <defs>
       <path d="M 10.59375 35.5 
L 73.1875 35.5 
L 73.1875 27.203125 
L 10.59375 27.203125 
z
" id="DejaVuSans-2212"/>
      </defs>
      <g transform="translate(20.878125 628.499762)scale(0.1 -0.1)">
       <use xlink:href="#DejaVuSans-2212"/>
       <use x="83.789062" xlink:href="#DejaVuSans-31"/>
       <use x="147.412109" xlink:href="#DejaVuSans-30"/>
      </g>
     </g>
    </g>
    <g id="ytick_8">
     <g id="line2d_31">
      <g>
       <use style="stroke:#000000;stroke-width:0.8;" x="48.982813" xlink:href="#ma307a4b8c8" y="602.293768"/>
      </g>
     </g>
     <g id="text_27">
      <!-- 0 -->
      <g transform="translate(35.620313 606.092987)scale(0.1 -0.1)">
       <use xlink:href="#DejaVuSans-30"/>
      </g>
     </g>
    </g>
    <g id="ytick_9">
     <g id="line2d_32">
      <g>
       <use style="stroke:#000000;stroke-width:0.8;" x="48.982813" xlink:href="#ma307a4b8c8" y="579.886994"/>
      </g>
     </g>
     <g id="text_28">
      <!-- 10 -->
      <g transform="translate(29.257813 583.686212)scale(0.1 -0.1)">
       <use xlink:href="#DejaVuSans-31"/>
       <use x="63.623047" xlink:href="#DejaVuSans-30"/>
      </g>
     </g>
    </g>
    <g id="ytick_10">
     <g id="line2d_33">
      <g>
       <use style="stroke:#000000;stroke-width:0.8;" x="48.982813" xlink:href="#ma307a4b8c8" y="557.480219"/>
      </g>
     </g>
     <g id="text_29">
      <!-- 20 -->
      <g transform="translate(29.257813 561.279438)scale(0.1 -0.1)">
       <use xlink:href="#DejaVuSans-32"/>
       <use x="63.623047" xlink:href="#DejaVuSans-30"/>
      </g>
     </g>
    </g>
    <g id="ytick_11">
     <g id="line2d_34">
      <g>
       <use style="stroke:#000000;stroke-width:0.8;" x="48.982813" xlink:href="#ma307a4b8c8" y="535.073444"/>
      </g>
     </g>
     <g id="text_30">
      <!-- 30 -->
      <g transform="translate(29.257813 538.872663)scale(0.1 -0.1)">
       <use xlink:href="#DejaVuSans-33"/>
       <use x="63.623047" xlink:href="#DejaVuSans-30"/>
      </g>
     </g>
    </g>
    <g id="text_31">
     <!-- Temperature -->
     <defs>
      <path d="M 18.109375 8.203125 
L 18.109375 -20.796875 
L 9.078125 -20.796875 
L 9.078125 54.6875 
L 18.109375 54.6875 
L 18.109375 46.390625 
Q 20.953125 51.265625 25.265625 53.625 
Q 29.59375 56 35.59375 56 
Q 45.5625 56 51.78125 48.09375 
Q 58.015625 40.1875 58.015625 27.296875 
Q 58.015625 14.40625 51.78125 6.484375 
Q 45.5625 -1.421875 35.59375 -1.421875 
Q 29.59375 -1.421875 25.265625 0.953125 
Q 20.953125 3.328125 18.109375 8.203125 
z
M 48.6875 27.296875 
Q 48.6875 37.203125 44.609375 42.84375 
Q 40.53125 48.484375 33.40625 48.484375 
Q 26.265625 48.484375 22.1875 42.84375 
Q 18.109375 37.203125 18.109375 27.296875 
Q 18.109375 17.390625 22.1875 11.75 
Q 26.265625 6.109375 33.40625 6.109375 
Q 40.53125 6.109375 44.609375 11.75 
Q 48.6875 17.390625 48.6875 27.296875 
z
" id="DejaVuSans-70"/>
     </defs>
     <g style="fill:#0000ff;" transform="translate(14.798438 613.557187)rotate(-90)scale(0.1 -0.1)">
      <use xlink:href="#DejaVuSans-54"/>
      <use x="60.818359" xlink:href="#DejaVuSans-65"/>
      <use x="122.341797" xlink:href="#DejaVuSans-6d"/>
      <use x="219.753906" xlink:href="#DejaVuSans-70"/>
      <use x="283.230469" xlink:href="#DejaVuSans-65"/>
      <use x="344.753906" xlink:href="#DejaVuSans-72"/>
      <use x="385.867188" xlink:href="#DejaVuSans-61"/>
      <use x="447.146484" xlink:href="#DejaVuSans-74"/>
      <use x="486.355469" xlink:href="#DejaVuSans-75"/>
      <use x="549.734375" xlink:href="#DejaVuSans-72"/>
      <use x="590.816406" xlink:href="#DejaVuSans-65"/>
     </g>
    </g>
   </g>
   <g id="line2d_35">
    <path clip-path="url(#p866223908c)" d="M 99.77554 529.749595 
L 104.755219 525.478191 
L 109.734898 536.166895 
L 114.714577 548.739336 
L 119.694256 575.17709 
L 124.673935 585.831511 
L 129.653615 590.262451 
L 134.633294 591.554941 
L 139.612973 577.139923 
L 144.592652 552.92425 
L 149.572331 538.26036 
L 154.55201 532.947042 
L 159.53169 527.853309 
L 164.511369 528.5105 
L 169.491048 535.660502 
L 174.470727 557.064125 
L 179.450406 575.547922 
L 184.430085 585.371433 
L 189.409764 594.766593 
L 194.389444 587.128863 
L 199.369123 567.947544 
L 204.348802 550.194656 
L 209.328481 535.3244 
L 214.30816 526.294918 
L 219.287839 527.333024 
L 224.267518 531.477829 
L 229.247198 541.719294 
L 234.226877 557.98594 
L 239.206556 566.067615 
L 244.186235 581.073208 
L 249.165914 585.13466 
L 254.145593 582.375266 
L 264.104952 555.926085 
L 274.06431 531.339804 
L 279.043989 527.747998 
L 284.023668 523.864007 
L 289.003347 536.620408 
L 293.983026 538.294418 
L 298.962706 563.764871 
L 303.942385 590.084877 
L 308.922064 582.42176 
L 313.901743 580.803991 
L 318.881422 573.698691 
L 323.861101 557.736777 
L 328.84078 546.72788 
L 333.82046 532.330855 
L 338.800139 527.070193 
L 343.779818 528.179328 
L 348.759497 537.308744 
L 353.739176 548.530953 
L 358.718855 570.496314 
L 363.698534 587.156311 
L 368.678214 585.415865 
L 373.657893 575.66847 
L 378.637572 565.573546 
L 383.617251 552.883469 
L 388.59693 538.479274 
L 393.576609 526.873685 
L 398.556288 529.171052 
L 403.535968 528.015759 
L 408.515647 535.591041 
L 413.495326 555.784026 
L 418.475005 565.190838 
L 423.454684 585.056237 
L 428.434363 591.17239 
L 433.414042 590.27343 
L 438.393722 568.522278 
L 443.373401 561.106307 
L 448.35308 546.585149 
L 453.332759 535.46153 
L 458.312438 526.932839 
L 463.292117 525.254796 
L 468.271796 536.561926 
L 473.251476 556.477292 
L 478.231155 574.924341 
L 483.210834 586.590249 
L 488.190513 599.342415 
L 493.170192 585.544435 
L 498.149871 570.982093 
L 503.12955 557.200358 
L 508.10923 544.270977 
L 513.088909 536.420764 
L 518.068588 529.708366 
L 523.048267 530.23022 
L 528.027946 544.674523 
L 533.007625 555.429999 
L 537.987304 575.839434 
L 542.966984 597.252983 
L 547.946663 595.454571 
L 552.926342 584.872501 
L 557.906021 570.493177 
L 562.8857 550.744294 
L 567.865379 544.83518 
L 572.845058 532.814617 
L 577.824738 522.908807 
L 582.804417 534.540387 
L 587.784096 543.743746 
L 592.763775 559.901047 
L 597.743454 569.250274 
L 602.723133 593.262494 
L 607.702813 608.641047 
L 612.682492 596.043242 
L 617.662171 563.514588 
L 622.64185 553.258559 
L 627.621529 537.569783 
L 632.601208 527.797517 
L 637.580887 522.030909 
L 642.560567 528.667796 
L 647.540246 542.504427 
L 652.519925 561.341803 
L 657.499604 578.681733 
L 662.479283 586.933319 
L 667.458962 591.573628 
L 672.438641 582.838705 
L 677.418321 570.728673 
L 682.398 562.430548 
L 687.377679 547.327261 
L 692.357358 533.711113 
L 697.337037 526.966673 
L 702.316716 529.169035 
L 707.296395 539.249619 
L 712.276075 556.019521 
L 717.255754 576.773124 
L 722.235433 587.02624 
L 727.215112 586.531274 
L 732.194791 591.553798 
L 737.17447 571.672222 
L 742.154149 555.313036 
L 747.133829 548.01739 
L 752.113508 533.412654 
L 757.093187 527.059437 
L 762.072866 529.923247 
L 767.052545 544.15379 
L 772.032224 553.445431 
L 777.011903 570.590647 
L 781.991583 583.890793 
L 786.971262 590.705724 
L 791.950941 589.161628 
L 796.93062 574.277234 
L 801.910299 552.850531 
L 806.889978 538.163563 
L 811.869657 529.499311 
L 816.849337 524.081577 
L 821.829016 527.593391 
L 826.808695 539.23259 
L 831.788374 558.009915 
L 836.768053 581.112039 
L 841.747732 594.2926 
L 846.727411 596.997546 
L 851.707091 595.270051 
L 856.68677 578.945013 
L 861.666449 552.493143 
L 866.646128 546.987126 
L 871.625807 534.166866 
L 876.605486 526.435409 
L 881.585165 527.907534 
L 886.564845 540.457344 
L 891.544524 555.12213 
L 896.524203 575.619175 
L 901.503882 590.600367 
L 906.483561 594.512456 
L 911.46324 584.476708 
L 916.442919 570.575186 
L 921.422599 560.329689 
L 926.402278 544.661975 
L 931.381957 537.390753 
L 936.361636 531.150242 
L 941.341315 532.790194 
L 946.320994 542.499498 
L 951.300673 559.941379 
L 956.280353 579.15362 
L 961.260032 596.144879 
L 966.239711 597.526346 
L 971.21939 602.700633 
L 976.199069 582.911258 
L 981.178748 568.876529 
L 986.158427 552.275125 
L 991.138107 539.401761 
L 996.117786 532.3322 
L 1001.097465 533.80298 
L 1006.077144 545.259564 
L 1011.056823 566.263675 
L 1016.036502 586.227595 
L 1021.016181 595.61823 
L 1025.995861 598.434403 
L 1030.97554 592.3014 
L 1035.955219 582.14945 
L 1040.934898 564.477183 
L 1045.914577 551.275559 
L 1050.894256 537.69078 
L 1055.873935 530.97659 
L 1060.853615 536.489329 
L 1065.833294 545.715542 
L 1070.812973 562.171077 
L 1075.792652 583.916897 
L 1080.772331 594.080229 
L 1085.75201 593.266146 
L 1090.73169 587.319881 
L 1095.711369 573.049566 
L 1100.691048 565.432159 
L 1105.670727 551.618159 
L 1110.650406 537.191557 
L 1115.630085 532.249967 
L 1115.630085 532.249967 
" style="fill:none;stroke:#ff0000;stroke-linecap:square;stroke-width:1.5;"/>
   </g>
   <g id="line2d_36">
    <path clip-path="url(#p866223908c)" d="M 99.77554 545.23783 
L 104.755219 544.98172 
L 109.734898 554.149452 
L 114.714577 565.044074 
L 119.694256 584.421385 
L 124.673935 596.929586 
L 129.653615 600.483301 
L 134.633294 603.003317 
L 139.612973 588.910941 
L 144.592652 567.244419 
L 149.572331 553.19089 
L 154.55201 548.761743 
L 159.53169 543.345353 
L 164.511369 544.600133 
L 169.491048 555.144313 
L 174.470727 572.093917 
L 179.450406 586.601184 
L 184.430085 598.911085 
L 189.409764 605.550212 
L 194.389444 598.365121 
L 204.348802 563.835901 
L 209.328481 551.451228 
L 214.30816 543.708567 
L 219.287839 543.146605 
L 224.267518 547.38888 
L 229.247198 558.695338 
L 234.226877 572.131337 
L 239.206556 581.011074 
L 244.186235 592.197276 
L 249.165914 597.308261 
L 254.145593 593.219025 
L 259.125272 579.536328 
L 269.084631 558.797065 
L 274.06431 548.017838 
L 279.043989 545.256651 
L 284.023668 543.641123 
L 289.003347 554.534849 
L 293.983026 570.863786 
L 298.962706 579.359314 
L 303.942385 599.348958 
L 308.922064 593.13948 
L 313.901743 591.553641 
L 318.881422 584.872501 
L 323.861101 570.256562 
L 328.84078 562.338008 
L 333.82046 549.58564 
L 338.800139 539.028688 
L 343.779818 544.127574 
L 348.759497 553.54066 
L 353.739176 565.730393 
L 358.718855 584.187974 
L 363.698534 596.546431 
L 368.678214 594.386978 
L 373.657893 588.50688 
L 378.637572 578.19573 
L 383.617251 567.138211 
L 388.59693 555.358297 
L 393.576609 544.538738 
L 398.556288 542.80423 
L 403.535968 543.990893 
L 408.515647 553.470751 
L 413.495326 571.518063 
L 418.475005 577.82557 
L 423.454684 594.023428 
L 428.434363 599.353551 
L 433.414042 599.006246 
L 438.393722 580.012091 
L 443.373401 572.764552 
L 448.35308 558.858908 
L 453.332759 551.065608 
L 458.312438 546.6629 
L 463.292117 550.937441 
L 468.271796 554.660775 
L 473.251476 572.987948 
L 478.231155 587.755401 
L 483.210834 598.302472 
L 488.190513 607.034302 
L 493.170192 594.95667 
L 498.149871 583.433426 
L 503.12955 569.858618 
L 508.10923 559.79103 
L 513.088909 550.126764 
L 518.068588 547.695181 
L 523.048267 551.654234 
L 528.027946 560.660637 
L 533.007625 569.915083 
L 537.987304 587.272267 
L 542.966984 605.854944 
L 547.946663 603.538839 
L 552.926342 596.397806 
L 557.906021 584.570906 
L 562.8857 566.906301 
L 567.865379 561.720925 
L 572.845058 549.891941 
L 577.824738 549.480776 
L 582.804417 551.713612 
L 587.784096 560.660413 
L 592.763775 577.570133 
L 597.743454 582.274816 
L 602.723133 601.845633 
L 607.702813 618.628867 
L 612.682492 604.124402 
L 617.662171 575.885368 
L 622.64185 568.512419 
L 627.621529 553.562843 
L 632.601208 546.136565 
L 637.580887 541.856647 
L 642.560567 544.138553 
L 647.540246 557.639979 
L 652.519925 573.222099 
L 657.499604 589.730491 
L 662.479283 596.558754 
L 667.458962 600.07509 
L 672.438641 592.394455 
L 677.418321 581.330998 
L 682.398 578.33286 
L 687.377679 562.800035 
L 692.357358 554.698418 
L 697.337037 545.548387 
L 702.316716 548.016942 
L 707.296395 558.112538 
L 712.276075 572.186233 
L 717.255754 587.483294 
L 722.235433 595.775839 
L 727.215112 594.35525 
L 732.194791 599.252564 
L 737.17447 581.405568 
L 742.154149 569.193136 
L 747.133829 563.002145 
L 752.113508 553.790271 
L 757.093187 546.879798 
L 762.072866 546.58358 
L 767.052545 560.333498 
L 772.032224 568.507265 
L 777.011903 588.039788 
L 781.991583 597.270169 
L 786.971262 600.996976 
L 791.950941 598.704203 
L 796.93062 585.63041 
L 801.910299 567.586795 
L 806.889978 555.064097 
L 811.869657 547.214555 
L 816.849337 543.589587 
L 821.829016 545.492819 
L 826.808695 556.486927 
L 831.788374 570.909047 
L 836.768053 588.948607 
L 841.747732 604.087345 
L 846.727411 607.131055 
L 851.707091 606.481975 
L 856.68677 590.497341 
L 861.666449 567.572006 
L 866.646128 561.207586 
L 871.625807 550.126764 
L 876.605486 544.263359 
L 881.585165 545.640255 
L 886.564845 557.378492 
L 891.544524 572.051345 
L 896.524203 587.472381 
L 901.503882 601.958012 
L 906.483561 604.639578 
L 911.46324 595.957648 
L 916.442919 583.280589 
L 921.422599 572.711224 
L 926.402278 560.144833 
L 931.381957 556.794124 
L 936.361636 550.630468 
L 941.341315 553.094765 
L 946.320994 559.910682 
L 951.300673 576.616053 
L 956.280353 593.805925 
L 961.260032 606.025101 
L 966.239711 608.430289 
L 971.21939 613.69848 
L 976.199069 593.556627 
L 981.178748 580.245412 
L 986.158427 565.515064 
L 991.138107 557.450866 
L 996.117786 550.824511 
L 1001.097465 553.464029 
L 1006.077144 562.4059 
L 1016.036502 596.688176 
L 1021.016181 606.14491 
L 1025.995861 606.630599 
L 1030.97554 600.713676 
L 1035.955219 593.27065 
L 1040.934898 577.577751 
L 1045.914577 566.591038 
L 1050.894256 556.233954 
L 1055.873935 548.255574 
L 1060.853615 554.717464 
L 1065.833294 565.216382 
L 1070.812973 576.053419 
L 1075.792652 593.319183 
L 1080.772331 604.790958 
L 1085.75201 603.419709 
L 1090.73169 600.551684 
L 1095.711369 584.664118 
L 1100.691048 577.106761 
L 1105.670727 565.107933 
L 1110.650406 554.556135 
L 1115.630085 551.069865 
L 1115.630085 551.069865 
" style="fill:none;stroke:#008000;stroke-linecap:square;stroke-width:1.5;"/>
   </g>
   <g id="line2d_37">
    <path clip-path="url(#p866223908c)" d="M 99.77554 561.440168 
L 104.755219 561.670286 
L 109.734898 572.130889 
L 119.694256 594.494709 
L 124.673935 608.025421 
L 129.653615 610.703031 
L 134.633294 615.359898 
L 139.612973 600.681975 
L 144.592652 581.564522 
L 149.572331 570.892914 
L 154.55201 566.837288 
L 159.53169 560.858488 
L 164.511369 563.320097 
L 174.470727 586.143525 
L 179.450406 597.655566 
L 184.430085 608.245747 
L 189.409764 616.48772 
L 194.389444 609.602119 
L 199.369123 595.241796 
L 204.348802 578.767103 
L 209.328481 568.938371 
L 214.30816 563.463948 
L 219.287839 561.1863 
L 224.267518 564.88409 
L 229.247198 576.994951 
L 234.226877 587.455263 
L 239.206556 594.181776 
L 244.186235 601.835326 
L 249.165914 608.208036 
L 254.145593 603.087714 
L 259.125272 592.466896 
L 264.104952 580.778335 
L 269.084631 572.627871 
L 274.06431 565.704178 
L 279.043989 563.745825 
L 284.023668 563.930457 
L 289.003347 573.875928 
L 293.983026 583.104606 
L 298.962706 593.466619 
L 303.942385 607.831603 
L 308.922064 602.445574 
L 313.901743 601.751524 
L 318.881422 595.696093 
L 323.861101 582.495702 
L 328.84078 577.059707 
L 333.82046 567.423673 
L 338.800139 560.644728 
L 343.779818 562.690466 
L 348.759497 571.824364 
L 358.718855 596.579481 
L 363.698534 605.026274 
L 368.678214 602.856178 
L 373.657893 600.063734 
L 378.637572 589.574002 
L 383.617251 580.254465 
L 388.59693 572.331429 
L 393.576609 563.123813 
L 398.556288 559.628581 
L 403.535968 562.942991 
L 408.515647 571.994431 
L 413.495326 585.918449 
L 418.475005 589.531766 
L 423.454684 601.78379 
L 428.434363 607.423127 
L 433.414042 607.013083 
L 438.393722 590.805815 
L 443.373401 586.415207 
L 448.35308 572.93462 
L 453.332759 565.047435 
L 458.312438 561.668045 
L 463.292117 566.671478 
L 468.271796 573.074886 
L 473.251476 588.3097 
L 478.231155 599.372776 
L 483.210834 609.428399 
L 488.190513 613.3164 
L 493.170192 603.182757 
L 498.149871 594.111374 
L 508.10923 574.126884 
L 513.088909 566.202504 
L 518.068588 562.80138 
L 523.048267 565.078356 
L 528.027946 576.430525 
L 533.007625 579.442219 
L 537.987304 597.059927 
L 542.966984 612.545988 
L 547.946663 612.763334 
L 552.926342 605.77652 
L 557.906021 597.872015 
L 562.8857 581.029739 
L 567.865379 574.021572 
L 572.845058 565.742269 
L 577.824738 564.181413 
L 582.804417 567.730422 
L 587.784096 576.675431 
L 592.763775 594.828481 
L 597.743454 591.585571 
L 602.723133 609.438841 
L 607.702813 628.645704 
L 612.682492 613.553172 
L 617.662171 590.115036 
L 622.64185 582.520753 
L 627.621529 570.009415 
L 632.601208 562.813255 
L 637.580887 559.490779 
L 642.560567 562.592773 
L 647.540246 574.372014 
L 652.519925 586.578889 
L 657.499604 599.511653 
L 662.479283 604.714596 
L 667.458962 607.151557 
L 672.438641 601.522527 
L 677.418321 591.706971 
L 682.398 590.208361 
L 687.377679 576.581994 
L 692.357358 568.807516 
L 697.337037 562.752533 
L 702.316716 562.951057 
L 707.296395 573.889596 
L 712.276075 587.002265 
L 717.255754 598.556923 
L 722.235433 604.211788 
L 727.215112 603.736765 
L 732.194791 607.432762 
L 737.17447 591.210571 
L 742.154149 582.712488 
L 747.133829 575.048027 
L 752.113508 568.017005 
L 757.093187 562.591652 
L 762.072866 562.178023 
L 767.052545 575.177538 
L 772.032224 582.017004 
L 777.011903 598.476393 
L 781.991583 609.771245 
L 786.971262 609.825245 
L 791.950941 606.462549 
L 796.93062 597.518885 
L 801.910299 582.003134 
L 806.889978 569.328921 
L 811.869657 561.612476 
L 816.849337 561.161876 
L 821.829016 561.18137 
L 826.808695 572.657 
L 831.788374 583.274091 
L 836.768053 596.768907 
L 841.747732 610.949326 
L 846.727411 615.576168 
L 851.707091 614.815794 
L 856.68677 602.387877 
L 861.666449 580.289352 
L 866.646128 573.859795 
L 871.625807 564.63515 
L 876.605486 560.249024 
L 881.585165 562.044927 
L 886.564845 573.230837 
L 891.544524 587.478252 
L 896.524203 597.762603 
L 901.503882 610.405357 
L 906.483561 613.541274 
L 911.46324 604.009264 
L 916.442919 593.104414 
L 921.422599 585.786697 
L 926.402278 575.158716 
L 931.381957 571.565118 
L 936.361636 567.37169 
L 941.341315 565.883208 
L 946.320994 575.38256 
L 951.300673 590.957195 
L 956.280353 605.031204 
L 961.260032 614.150313 
L 966.239711 617.418946 
L 971.21939 624.121731 
L 976.199069 604.06465 
L 981.178748 592.254749 
L 986.158427 578.91566 
L 991.138107 572.455787 
L 996.117786 566.852973 
L 1001.097465 570.311907 
L 1006.077144 577.516805 
L 1016.036502 605.577391 
L 1021.016181 615.357344 
L 1025.995861 614.348703 
L 1035.955219 603.246139 
L 1040.934898 590.336864 
L 1045.914577 580.476045 
L 1050.894256 571.96463 
L 1055.873935 561.851333 
L 1060.853615 570.303616 
L 1065.833294 580.323612 
L 1070.812973 589.115134 
L 1075.792652 601.684304 
L 1080.772331 613.192603 
L 1085.75201 612.31103 
L 1090.73169 612.770145 
L 1095.711369 596.435158 
L 1100.691048 590.012324 
L 1105.670727 578.68375 
L 1110.650406 572.044174 
L 1115.630085 568.226956 
L 1115.630085 568.226956 
" style="fill:none;stroke:#0000ff;stroke-linecap:square;stroke-width:1.5;"/>
   </g>
   <g id="line2d_38">
    <defs>
     <path d="M 0 3 
C 0.795609 3 1.55874 2.683901 2.12132 2.12132 
C 2.683901 1.55874 3 0.795609 3 0 
C 3 -0.795609 2.683901 -1.55874 2.12132 -2.12132 
C 1.55874 -2.683901 0.795609 -3 0 -3 
C -0.795609 -3 -1.55874 -2.683901 -2.12132 -2.12132 
C -2.683901 -1.55874 -3 -0.795609 -3 0 
C -3 0.795609 -2.683901 1.55874 -2.12132 2.12132 
C -1.55874 2.683901 -0.795609 3 0 3 
z
" id="mde7083ad36" style="stroke:#ff0000;"/>
    </defs>
    <g clip-path="url(#p866223908c)">
     <use style="fill:#ff0000;stroke:#ff0000;" x="99.77554" xlink:href="#mde7083ad36" y="639.849091"/>
     <use style="fill:#ff0000;stroke:#ff0000;" x="149.572331" xlink:href="#mde7083ad36" y="639.849091"/>
     <use style="fill:#ff0000;stroke:#ff0000;" x="154.55201" xlink:href="#mde7083ad36" y="639.849091"/>
     <use style="fill:#ff0000;stroke:#ff0000;" x="159.53169" xlink:href="#mde7083ad36" y="639.849091"/>
     <use style="fill:#ff0000;stroke:#ff0000;" x="164.511369" xlink:href="#mde7083ad36" y="639.849091"/>
     <use style="fill:#ff0000;stroke:#ff0000;" x="169.491048" xlink:href="#mde7083ad36" y="639.849091"/>
     <use style="fill:#ff0000;stroke:#ff0000;" x="174.470727" xlink:href="#mde7083ad36" y="639.849091"/>
     <use style="fill:#ff0000;stroke:#ff0000;" x="179.450406" xlink:href="#mde7083ad36" y="639.849091"/>
     <use style="fill:#ff0000;stroke:#ff0000;" x="184.430085" xlink:href="#mde7083ad36" y="639.849091"/>
     <use style="fill:#ff0000;stroke:#ff0000;" x="189.409764" xlink:href="#mde7083ad36" y="639.849091"/>
     <use style="fill:#ff0000;stroke:#ff0000;" x="194.389444" xlink:href="#mde7083ad36" y="639.849091"/>
     <use style="fill:#ff0000;stroke:#ff0000;" x="199.369123" xlink:href="#mde7083ad36" y="639.849091"/>
     <use style="fill:#ff0000;stroke:#ff0000;" x="204.348802" xlink:href="#mde7083ad36" y="639.849091"/>
     <use style="fill:#ff0000;stroke:#ff0000;" x="209.328481" xlink:href="#mde7083ad36" y="639.849091"/>
     <use style="fill:#ff0000;stroke:#ff0000;" x="214.30816" xlink:href="#mde7083ad36" y="639.849091"/>
     <use style="fill:#ff0000;stroke:#ff0000;" x="219.287839" xlink:href="#mde7083ad36" y="639.849091"/>
     <use style="fill:#ff0000;stroke:#ff0000;" x="224.267518" xlink:href="#mde7083ad36" y="639.849091"/>
     <use style="fill:#ff0000;stroke:#ff0000;" x="229.247198" xlink:href="#mde7083ad36" y="639.849091"/>
     <use style="fill:#ff0000;stroke:#ff0000;" x="234.226877" xlink:href="#mde7083ad36" y="639.849091"/>
     <use style="fill:#ff0000;stroke:#ff0000;" x="239.206556" xlink:href="#mde7083ad36" y="639.849091"/>
     <use style="fill:#ff0000;stroke:#ff0000;" x="244.186235" xlink:href="#mde7083ad36" y="639.849091"/>
     <use style="fill:#ff0000;stroke:#ff0000;" x="249.165914" xlink:href="#mde7083ad36" y="639.849091"/>
     <use style="fill:#ff0000;stroke:#ff0000;" x="259.125272" xlink:href="#mde7083ad36" y="639.849091"/>
     <use style="fill:#ff0000;stroke:#ff0000;" x="269.084631" xlink:href="#mde7083ad36" y="639.849091"/>
     <use style="fill:#ff0000;stroke:#ff0000;" x="274.06431" xlink:href="#mde7083ad36" y="639.849091"/>
     <use style="fill:#ff0000;stroke:#ff0000;" x="284.023668" xlink:href="#mde7083ad36" y="639.849091"/>
     <use style="fill:#ff0000;stroke:#ff0000;" x="313.901743" xlink:href="#mde7083ad36" y="639.849091"/>
     <use style="fill:#ff0000;stroke:#ff0000;" x="323.861101" xlink:href="#mde7083ad36" y="639.849091"/>
     <use style="fill:#ff0000;stroke:#ff0000;" x="333.82046" xlink:href="#mde7083ad36" y="639.849091"/>
     <use style="fill:#ff0000;stroke:#ff0000;" x="383.617251" xlink:href="#mde7083ad36" y="639.849091"/>
     <use style="fill:#ff0000;stroke:#ff0000;" x="398.556288" xlink:href="#mde7083ad36" y="639.849091"/>
     <use style="fill:#ff0000;stroke:#ff0000;" x="433.414042" xlink:href="#mde7083ad36" y="639.849091"/>
     <use style="fill:#ff0000;stroke:#ff0000;" x="453.332759" xlink:href="#mde7083ad36" y="639.849091"/>
     <use style="fill:#ff0000;stroke:#ff0000;" x="458.312438" xlink:href="#mde7083ad36" y="639.849091"/>
     <use style="fill:#ff0000;stroke:#ff0000;" x="488.190513" xlink:href="#mde7083ad36" y="639.849091"/>
     <use style="fill:#ff0000;stroke:#ff0000;" x="493.170192" xlink:href="#mde7083ad36" y="639.849091"/>
     <use style="fill:#ff0000;stroke:#ff0000;" x="503.12955" xlink:href="#mde7083ad36" y="639.849091"/>
     <use style="fill:#ff0000;stroke:#ff0000;" x="508.10923" xlink:href="#mde7083ad36" y="639.849091"/>
     <use style="fill:#ff0000;stroke:#ff0000;" x="518.068588" xlink:href="#mde7083ad36" y="639.849091"/>
     <use style="fill:#ff0000;stroke:#ff0000;" x="562.8857" xlink:href="#mde7083ad36" y="639.849091"/>
     <use style="fill:#ff0000;stroke:#ff0000;" x="577.824738" xlink:href="#mde7083ad36" y="639.849091"/>
     <use style="fill:#ff0000;stroke:#ff0000;" x="602.723133" xlink:href="#mde7083ad36" y="639.849091"/>
     <use style="fill:#ff0000;stroke:#ff0000;" x="607.702813" xlink:href="#mde7083ad36" y="639.849091"/>
     <use style="fill:#ff0000;stroke:#ff0000;" x="612.682492" xlink:href="#mde7083ad36" y="639.849091"/>
     <use style="fill:#ff0000;stroke:#ff0000;" x="652.519925" xlink:href="#mde7083ad36" y="639.849091"/>
     <use style="fill:#ff0000;stroke:#ff0000;" x="682.398" xlink:href="#mde7083ad36" y="639.849091"/>
     <use style="fill:#ff0000;stroke:#ff0000;" x="687.377679" xlink:href="#mde7083ad36" y="639.849091"/>
     <use style="fill:#ff0000;stroke:#ff0000;" x="692.357358" xlink:href="#mde7083ad36" y="639.849091"/>
     <use style="fill:#ff0000;stroke:#ff0000;" x="727.215112" xlink:href="#mde7083ad36" y="639.849091"/>
     <use style="fill:#ff0000;stroke:#ff0000;" x="742.154149" xlink:href="#mde7083ad36" y="639.849091"/>
     <use style="fill:#ff0000;stroke:#ff0000;" x="747.133829" xlink:href="#mde7083ad36" y="639.849091"/>
     <use style="fill:#ff0000;stroke:#ff0000;" x="811.869657" xlink:href="#mde7083ad36" y="639.849091"/>
     <use style="fill:#ff0000;stroke:#ff0000;" x="816.849337" xlink:href="#mde7083ad36" y="639.849091"/>
     <use style="fill:#ff0000;stroke:#ff0000;" x="851.707091" xlink:href="#mde7083ad36" y="639.849091"/>
     <use style="fill:#ff0000;stroke:#ff0000;" x="856.68677" xlink:href="#mde7083ad36" y="639.849091"/>
     <use style="fill:#ff0000;stroke:#ff0000;" x="861.666449" xlink:href="#mde7083ad36" y="639.849091"/>
     <use style="fill:#ff0000;stroke:#ff0000;" x="866.646128" xlink:href="#mde7083ad36" y="639.849091"/>
     <use style="fill:#ff0000;stroke:#ff0000;" x="906.483561" xlink:href="#mde7083ad36" y="639.849091"/>
     <use style="fill:#ff0000;stroke:#ff0000;" x="911.46324" xlink:href="#mde7083ad36" y="639.849091"/>
     <use style="fill:#ff0000;stroke:#ff0000;" x="981.178748" xlink:href="#mde7083ad36" y="639.849091"/>
     <use style="fill:#ff0000;stroke:#ff0000;" x="986.158427" xlink:href="#mde7083ad36" y="639.849091"/>
     <use style="fill:#ff0000;stroke:#ff0000;" x="1040.934898" xlink:href="#mde7083ad36" y="639.849091"/>
     <use style="fill:#ff0000;stroke:#ff0000;" x="1045.914577" xlink:href="#mde7083ad36" y="639.849091"/>
     <use style="fill:#ff0000;stroke:#ff0000;" x="1055.873935" xlink:href="#mde7083ad36" y="639.849091"/>
     <use style="fill:#ff0000;stroke:#ff0000;" x="1080.772331" xlink:href="#mde7083ad36" y="639.849091"/>
     <use style="fill:#ff0000;stroke:#ff0000;" x="1105.670727" xlink:href="#mde7083ad36" y="639.849091"/>
     <use style="fill:#ff0000;stroke:#ff0000;" x="1115.630085" xlink:href="#mde7083ad36" y="639.849091"/>
    </g>
   </g>
   <g id="patch_9">
    <path d="M 48.982813 645.74 
L 48.982813 516.14 
" style="fill:none;stroke:#000000;stroke-linecap:square;stroke-linejoin:miter;stroke-width:0.8;"/>
   </g>
   <g id="patch_10">
    <path d="M 1166.422812 645.74 
L 1166.422812 516.14 
" style="fill:none;stroke:#000000;stroke-linecap:square;stroke-linejoin:miter;stroke-width:0.8;"/>
   </g>
   <g id="patch_11">
    <path d="M 48.982813 645.74 
L 1166.422813 645.74 
" style="fill:none;stroke:#000000;stroke-linecap:square;stroke-linejoin:miter;stroke-width:0.8;"/>
   </g>
   <g id="patch_12">
    <path d="M 48.982813 516.14 
L 1166.422813 516.14 
" style="fill:none;stroke:#000000;stroke-linecap:square;stroke-linejoin:miter;stroke-width:0.8;"/>
   </g>
   <g id="legend_2">
    <g id="patch_13">
     <path d="M 55.982813 582.8525 
L 146.995313 582.8525 
Q 148.995313 582.8525 148.995313 580.8525 
L 148.995313 523.14 
Q 148.995313 521.14 146.995313 521.14 
L 55.982813 521.14 
Q 53.982813 521.14 53.982813 523.14 
L 53.982813 580.8525 
Q 53.982813 582.8525 55.982813 582.8525 
z
" style="fill:#ffffff;opacity:0.8;stroke:#cccccc;stroke-linejoin:miter;"/>
    </g>
    <g id="line2d_39">
     <path d="M 57.982813 529.238437 
L 77.982813 529.238437 
" style="fill:none;stroke:#ff0000;stroke-linecap:square;stroke-width:1.5;"/>
    </g>
    <g id="line2d_40"/>
    <g id="text_32">
     <!-- Maxmimum -->
     <defs>
      <path d="M 9.8125 72.90625 
L 24.515625 72.90625 
L 43.109375 23.296875 
L 61.8125 72.90625 
L 76.515625 72.90625 
L 76.515625 0 
L 66.890625 0 
L 66.890625 64.015625 
L 48.09375 14.015625 
L 38.1875 14.015625 
L 19.390625 64.015625 
L 19.390625 0 
L 9.8125 0 
z
" id="DejaVuSans-4d"/>
      <path d="M 54.890625 54.6875 
L 35.109375 28.078125 
L 55.90625 0 
L 45.3125 0 
L 29.390625 21.484375 
L 13.484375 0 
L 2.875 0 
L 24.125 28.609375 
L 4.6875 54.6875 
L 15.28125 54.6875 
L 29.78125 35.203125 
L 44.28125 54.6875 
z
" id="DejaVuSans-78"/>
     </defs>
     <g transform="translate(85.982813 532.738437)scale(0.1 -0.1)">
      <use xlink:href="#DejaVuSans-4d"/>
      <use x="86.279297" xlink:href="#DejaVuSans-61"/>
      <use x="147.558594" xlink:href="#DejaVuSans-78"/>
      <use x="206.738281" xlink:href="#DejaVuSans-6d"/>
      <use x="304.150391" xlink:href="#DejaVuSans-69"/>
      <use x="331.933594" xlink:href="#DejaVuSans-6d"/>
      <use x="429.345703" xlink:href="#DejaVuSans-75"/>
      <use x="492.724609" xlink:href="#DejaVuSans-6d"/>
     </g>
    </g>
    <g id="line2d_41">
     <path d="M 57.982813 543.916562 
L 77.982813 543.916562 
" style="fill:none;stroke:#008000;stroke-linecap:square;stroke-width:1.5;"/>
    </g>
    <g id="line2d_42"/>
    <g id="text_33">
     <!-- Average -->
     <defs>
      <path d="M 34.1875 63.1875 
L 20.796875 26.90625 
L 47.609375 26.90625 
z
M 28.609375 72.90625 
L 39.796875 72.90625 
L 67.578125 0 
L 57.328125 0 
L 50.6875 18.703125 
L 17.828125 18.703125 
L 11.1875 0 
L 0.78125 0 
z
" id="DejaVuSans-41"/>
      <path d="M 2.984375 54.6875 
L 12.5 54.6875 
L 29.59375 8.796875 
L 46.6875 54.6875 
L 56.203125 54.6875 
L 35.6875 0 
L 23.484375 0 
z
" id="DejaVuSans-76"/>
     </defs>
     <g transform="translate(85.982813 547.416562)scale(0.1 -0.1)">
      <use xlink:href="#DejaVuSans-41"/>
      <use x="68.330078" xlink:href="#DejaVuSans-76"/>
      <use x="127.509766" xlink:href="#DejaVuSans-65"/>
      <use x="189.033203" xlink:href="#DejaVuSans-72"/>
      <use x="230.146484" xlink:href="#DejaVuSans-61"/>
      <use x="291.425781" xlink:href="#DejaVuSans-67"/>
      <use x="354.902344" xlink:href="#DejaVuSans-65"/>
     </g>
    </g>
    <g id="line2d_43">
     <path d="M 57.982813 558.594687 
L 77.982813 558.594687 
" style="fill:none;stroke:#0000ff;stroke-linecap:square;stroke-width:1.5;"/>
    </g>
    <g id="line2d_44"/>
    <g id="text_34">
     <!-- Minimum -->
     <g transform="translate(85.982813 562.094687)scale(0.1 -0.1)">
      <use xlink:href="#DejaVuSans-4d"/>
      <use x="86.279297" xlink:href="#DejaVuSans-69"/>
      <use x="114.0625" xlink:href="#DejaVuSans-6e"/>
      <use x="177.441406" xlink:href="#DejaVuSans-69"/>
      <use x="205.224609" xlink:href="#DejaVuSans-6d"/>
      <use x="302.636719" xlink:href="#DejaVuSans-75"/>
      <use x="366.015625" xlink:href="#DejaVuSans-6d"/>
     </g>
    </g>
    <g id="line2d_45"/>
    <g id="line2d_46">
     <g>
      <use style="fill:#ff0000;stroke:#ff0000;" x="67.982813" xlink:href="#mde7083ad36" y="573.272812"/>
     </g>
    </g>
    <g id="text_35">
     <!-- Disasters -->
     <g transform="translate(85.982813 576.772812)scale(0.1 -0.1)">
      <use xlink:href="#DejaVuSans-44"/>
      <use x="77.001953" xlink:href="#DejaVuSans-69"/>
      <use x="104.785156" xlink:href="#DejaVuSans-73"/>
      <use x="156.884766" xlink:href="#DejaVuSans-61"/>
      <use x="218.164062" xlink:href="#DejaVuSans-73"/>
      <use x="270.263672" xlink:href="#DejaVuSans-74"/>
      <use x="309.472656" xlink:href="#DejaVuSans-65"/>
      <use x="370.996094" xlink:href="#DejaVuSans-72"/>
      <use x="412.109375" xlink:href="#DejaVuSans-73"/>
     </g>
    </g>
   </g>
  </g>
 </g>
 <defs>
  <clipPath id="p479f6eb345">
   <rect height="498.96" width="1116" x="48.982813" y="10.7"/>
  </clipPath>
  <clipPath id="p866223908c">
   <rect height="129.6" width="1117.44" x="48.982813" y="516.14"/>
  </clipPath>
 </defs>
</svg>
