<?xml version="1.0" encoding="utf-8" standalone="no"?>
<!DOCTYPE svg PUBLIC "-//W3C//DTD SVG 1.1//EN"
  "http://www.w3.org/Graphics/SVG/1.1/DTD/svg11.dtd">
<!-- Created with matplotlib (http://matplotlib.org/) -->
<svg height="669pt" version="1.1" viewBox="0 0 1175 669" width="1175pt" xmlns="http://www.w3.org/2000/svg" xmlns:xlink="http://www.w3.org/1999/xlink">
 <defs>
  <style type="text/css">
*{stroke-linecap:butt;stroke-linejoin:round;}
  </style>
 </defs>
 <g id="figure_1">
  <g id="patch_1">
   <path d="M 0 669.618125 
L 1175.105625 669.618125 
L 1175.105625 -0 
L 0 -0 
z
" style="fill:none;"/>
  </g>
  <g id="axes_1">
   <g id="patch_2">
    <path d="M 46.965625 509.66 
L 1162.965625 509.66 
L 1162.965625 10.7 
L 46.965625 10.7 
z
" style="fill:none;"/>
   </g>
   <g id="matplotlib.axis_1">
    <g id="xtick_1">
     <g id="line2d_1">
      <defs>
       <path d="M 0 0 
L 0 3.5 
" id="m58c30c6120" style="stroke:#000000;stroke-width:0.8;"/>
      </defs>
      <g>
       <use style="stroke:#000000;stroke-width:0.8;" x="97.692898" xlink:href="#m58c30c6120" y="509.66"/>
      </g>
     </g>
     <g id="text_1">
      <!-- 0 -->
      <defs>
       <path d="M 31.78125 66.40625 
Q 24.171875 66.40625 20.328125 58.90625 
Q 16.5 51.421875 16.5 36.375 
Q 16.5 21.390625 20.328125 13.890625 
Q 24.171875 6.390625 31.78125 6.390625 
Q 39.453125 6.390625 43.28125 13.890625 
Q 47.125 21.390625 47.125 36.375 
Q 47.125 51.421875 43.28125 58.90625 
Q 39.453125 66.40625 31.78125 66.40625 
z
M 31.78125 74.21875 
Q 44.046875 74.21875 50.515625 64.515625 
Q 56.984375 54.828125 56.984375 36.375 
Q 56.984375 17.96875 50.515625 8.265625 
Q 44.046875 -1.421875 31.78125 -1.421875 
Q 19.53125 -1.421875 13.0625 8.265625 
Q 6.59375 17.96875 6.59375 36.375 
Q 6.59375 54.828125 13.0625 64.515625 
Q 19.53125 74.21875 31.78125 74.21875 
z
" id="DejaVuSans-30"/>
      </defs>
      <g transform="translate(94.511648 524.258437)scale(0.1 -0.1)">
       <use xlink:href="#DejaVuSans-30"/>
      </g>
     </g>
    </g>
    <g id="xtick_2">
     <g id="line2d_2">
      <g>
       <use style="stroke:#000000;stroke-width:0.8;" x="340.407121" xlink:href="#m58c30c6120" y="509.66"/>
      </g>
     </g>
     <g id="text_2">
      <!-- 50 -->
      <defs>
       <path d="M 10.796875 72.90625 
L 49.515625 72.90625 
L 49.515625 64.59375 
L 19.828125 64.59375 
L 19.828125 46.734375 
Q 21.96875 47.46875 24.109375 47.828125 
Q 26.265625 48.1875 28.421875 48.1875 
Q 40.625 48.1875 47.75 41.5 
Q 54.890625 34.8125 54.890625 23.390625 
Q 54.890625 11.625 47.5625 5.09375 
Q 40.234375 -1.421875 26.90625 -1.421875 
Q 22.3125 -1.421875 17.546875 -0.640625 
Q 12.796875 0.140625 7.71875 1.703125 
L 7.71875 11.625 
Q 12.109375 9.234375 16.796875 8.0625 
Q 21.484375 6.890625 26.703125 6.890625 
Q 35.15625 6.890625 40.078125 11.328125 
Q 45.015625 15.765625 45.015625 23.390625 
Q 45.015625 31 40.078125 35.4375 
Q 35.15625 39.890625 26.703125 39.890625 
Q 22.75 39.890625 18.8125 39.015625 
Q 14.890625 38.140625 10.796875 36.28125 
z
" id="DejaVuSans-35"/>
      </defs>
      <g transform="translate(334.044621 524.258437)scale(0.1 -0.1)">
       <use xlink:href="#DejaVuSans-35"/>
       <use x="63.623047" xlink:href="#DejaVuSans-30"/>
      </g>
     </g>
    </g>
    <g id="xtick_3">
     <g id="line2d_3">
      <g>
       <use style="stroke:#000000;stroke-width:0.8;" x="583.121345" xlink:href="#m58c30c6120" y="509.66"/>
      </g>
     </g>
     <g id="text_3">
      <!-- 100 -->
      <defs>
       <path d="M 12.40625 8.296875 
L 28.515625 8.296875 
L 28.515625 63.921875 
L 10.984375 60.40625 
L 10.984375 69.390625 
L 28.421875 72.90625 
L 38.28125 72.90625 
L 38.28125 8.296875 
L 54.390625 8.296875 
L 54.390625 0 
L 12.40625 0 
z
" id="DejaVuSans-31"/>
      </defs>
      <g transform="translate(573.577595 524.258437)scale(0.1 -0.1)">
       <use xlink:href="#DejaVuSans-31"/>
       <use x="63.623047" xlink:href="#DejaVuSans-30"/>
       <use x="127.246094" xlink:href="#DejaVuSans-30"/>
      </g>
     </g>
    </g>
    <g id="xtick_4">
     <g id="line2d_4">
      <g>
       <use style="stroke:#000000;stroke-width:0.8;" x="825.835568" xlink:href="#m58c30c6120" y="509.66"/>
      </g>
     </g>
     <g id="text_4">
      <!-- 150 -->
      <g transform="translate(816.291818 524.258437)scale(0.1 -0.1)">
       <use xlink:href="#DejaVuSans-31"/>
       <use x="63.623047" xlink:href="#DejaVuSans-35"/>
       <use x="127.246094" xlink:href="#DejaVuSans-30"/>
      </g>
     </g>
    </g>
    <g id="xtick_5">
     <g id="line2d_5">
      <g>
       <use style="stroke:#000000;stroke-width:0.8;" x="1068.549792" xlink:href="#m58c30c6120" y="509.66"/>
      </g>
     </g>
     <g id="text_5">
      <!-- 200 -->
      <defs>
       <path d="M 19.1875 8.296875 
L 53.609375 8.296875 
L 53.609375 0 
L 7.328125 0 
L 7.328125 8.296875 
Q 12.9375 14.109375 22.625 23.890625 
Q 32.328125 33.6875 34.8125 36.53125 
Q 39.546875 41.84375 41.421875 45.53125 
Q 43.3125 49.21875 43.3125 52.78125 
Q 43.3125 58.59375 39.234375 62.25 
Q 35.15625 65.921875 28.609375 65.921875 
Q 23.96875 65.921875 18.8125 64.3125 
Q 13.671875 62.703125 7.8125 59.421875 
L 7.8125 69.390625 
Q 13.765625 71.78125 18.9375 73 
Q 24.125 74.21875 28.421875 74.21875 
Q 39.75 74.21875 46.484375 68.546875 
Q 53.21875 62.890625 53.21875 53.421875 
Q 53.21875 48.921875 51.53125 44.890625 
Q 49.859375 40.875 45.40625 35.40625 
Q 44.1875 33.984375 37.640625 27.21875 
Q 31.109375 20.453125 19.1875 8.296875 
z
" id="DejaVuSans-32"/>
      </defs>
      <g transform="translate(1059.006042 524.258437)scale(0.1 -0.1)">
       <use xlink:href="#DejaVuSans-32"/>
       <use x="63.623047" xlink:href="#DejaVuSans-30"/>
       <use x="127.246094" xlink:href="#DejaVuSans-30"/>
      </g>
     </g>
    </g>
    <g id="text_6">
     <!-- Time -->
     <defs>
      <path d="M -0.296875 72.90625 
L 61.375 72.90625 
L 61.375 64.59375 
L 35.5 64.59375 
L 35.5 0 
L 25.59375 0 
L 25.59375 64.59375 
L -0.296875 64.59375 
z
" id="DejaVuSans-54"/>
      <path d="M 9.421875 54.6875 
L 18.40625 54.6875 
L 18.40625 0 
L 9.421875 0 
z
M 9.421875 75.984375 
L 18.40625 75.984375 
L 18.40625 64.59375 
L 9.421875 64.59375 
z
" id="DejaVuSans-69"/>
      <path d="M 52 44.1875 
Q 55.375 50.25 60.0625 53.125 
Q 64.75 56 71.09375 56 
Q 79.640625 56 84.28125 50.015625 
Q 88.921875 44.046875 88.921875 33.015625 
L 88.921875 0 
L 79.890625 0 
L 79.890625 32.71875 
Q 79.890625 40.578125 77.09375 44.375 
Q 74.3125 48.1875 68.609375 48.1875 
Q 61.625 48.1875 57.5625 43.546875 
Q 53.515625 38.921875 53.515625 30.90625 
L 53.515625 0 
L 44.484375 0 
L 44.484375 32.71875 
Q 44.484375 40.625 41.703125 44.40625 
Q 38.921875 48.1875 33.109375 48.1875 
Q 26.21875 48.1875 22.15625 43.53125 
Q 18.109375 38.875 18.109375 30.90625 
L 18.109375 0 
L 9.078125 0 
L 9.078125 54.6875 
L 18.109375 54.6875 
L 18.109375 46.1875 
Q 21.1875 51.21875 25.484375 53.609375 
Q 29.78125 56 35.6875 56 
Q 41.65625 56 45.828125 52.96875 
Q 50 49.953125 52 44.1875 
z
" id="DejaVuSans-6d"/>
      <path d="M 56.203125 29.59375 
L 56.203125 25.203125 
L 14.890625 25.203125 
Q 15.484375 15.921875 20.484375 11.0625 
Q 25.484375 6.203125 34.421875 6.203125 
Q 39.59375 6.203125 44.453125 7.46875 
Q 49.3125 8.734375 54.109375 11.28125 
L 54.109375 2.78125 
Q 49.265625 0.734375 44.1875 -0.34375 
Q 39.109375 -1.421875 33.890625 -1.421875 
Q 20.796875 -1.421875 13.15625 6.1875 
Q 5.515625 13.8125 5.515625 26.8125 
Q 5.515625 40.234375 12.765625 48.109375 
Q 20.015625 56 32.328125 56 
Q 43.359375 56 49.78125 48.890625 
Q 56.203125 41.796875 56.203125 29.59375 
z
M 47.21875 32.234375 
Q 47.125 39.59375 43.09375 43.984375 
Q 39.0625 48.390625 32.421875 48.390625 
Q 24.90625 48.390625 20.390625 44.140625 
Q 15.875 39.890625 15.1875 32.171875 
z
" id="DejaVuSans-65"/>
     </defs>
     <g transform="translate(592.578125 537.936562)scale(0.1 -0.1)">
      <use xlink:href="#DejaVuSans-54"/>
      <use x="61.037109" xlink:href="#DejaVuSans-69"/>
      <use x="88.820312" xlink:href="#DejaVuSans-6d"/>
      <use x="186.232422" xlink:href="#DejaVuSans-65"/>
     </g>
    </g>
   </g>
   <g id="matplotlib.axis_2">
    <g id="ytick_1">
     <g id="line2d_6">
      <defs>
       <path d="M 0 0 
L -3.5 0 
" id="me8f43dc805" style="stroke:#000000;stroke-width:0.8;"/>
      </defs>
      <g>
       <use style="stroke:#000000;stroke-width:0.8;" x="46.965625" xlink:href="#me8f43dc805" y="486.98"/>
      </g>
     </g>
     <g id="text_7">
      <!-- 0 -->
      <g transform="translate(33.603125 490.779219)scale(0.1 -0.1)">
       <use xlink:href="#DejaVuSans-30"/>
      </g>
     </g>
    </g>
    <g id="ytick_2">
     <g id="line2d_7">
      <g>
       <use style="stroke:#000000;stroke-width:0.8;" x="46.965625" xlink:href="#me8f43dc805" y="416.24357"/>
      </g>
     </g>
     <g id="text_8">
      <!-- 20 -->
      <g transform="translate(27.240625 420.042789)scale(0.1 -0.1)">
       <use xlink:href="#DejaVuSans-32"/>
       <use x="63.623047" xlink:href="#DejaVuSans-30"/>
      </g>
     </g>
    </g>
    <g id="ytick_3">
     <g id="line2d_8">
      <g>
       <use style="stroke:#000000;stroke-width:0.8;" x="46.965625" xlink:href="#me8f43dc805" y="345.507141"/>
      </g>
     </g>
     <g id="text_9">
      <!-- 40 -->
      <defs>
       <path d="M 37.796875 64.3125 
L 12.890625 25.390625 
L 37.796875 25.390625 
z
M 35.203125 72.90625 
L 47.609375 72.90625 
L 47.609375 25.390625 
L 58.015625 25.390625 
L 58.015625 17.1875 
L 47.609375 17.1875 
L 47.609375 0 
L 37.796875 0 
L 37.796875 17.1875 
L 4.890625 17.1875 
L 4.890625 26.703125 
z
" id="DejaVuSans-34"/>
      </defs>
      <g transform="translate(27.240625 349.306359)scale(0.1 -0.1)">
       <use xlink:href="#DejaVuSans-34"/>
       <use x="63.623047" xlink:href="#DejaVuSans-30"/>
      </g>
     </g>
    </g>
    <g id="ytick_4">
     <g id="line2d_9">
      <g>
       <use style="stroke:#000000;stroke-width:0.8;" x="46.965625" xlink:href="#me8f43dc805" y="274.770711"/>
      </g>
     </g>
     <g id="text_10">
      <!-- 60 -->
      <defs>
       <path d="M 33.015625 40.375 
Q 26.375 40.375 22.484375 35.828125 
Q 18.609375 31.296875 18.609375 23.390625 
Q 18.609375 15.53125 22.484375 10.953125 
Q 26.375 6.390625 33.015625 6.390625 
Q 39.65625 6.390625 43.53125 10.953125 
Q 47.40625 15.53125 47.40625 23.390625 
Q 47.40625 31.296875 43.53125 35.828125 
Q 39.65625 40.375 33.015625 40.375 
z
M 52.59375 71.296875 
L 52.59375 62.3125 
Q 48.875 64.0625 45.09375 64.984375 
Q 41.3125 65.921875 37.59375 65.921875 
Q 27.828125 65.921875 22.671875 59.328125 
Q 17.53125 52.734375 16.796875 39.40625 
Q 19.671875 43.65625 24.015625 45.921875 
Q 28.375 48.1875 33.59375 48.1875 
Q 44.578125 48.1875 50.953125 41.515625 
Q 57.328125 34.859375 57.328125 23.390625 
Q 57.328125 12.15625 50.6875 5.359375 
Q 44.046875 -1.421875 33.015625 -1.421875 
Q 20.359375 -1.421875 13.671875 8.265625 
Q 6.984375 17.96875 6.984375 36.375 
Q 6.984375 53.65625 15.1875 63.9375 
Q 23.390625 74.21875 37.203125 74.21875 
Q 40.921875 74.21875 44.703125 73.484375 
Q 48.484375 72.75 52.59375 71.296875 
z
" id="DejaVuSans-36"/>
      </defs>
      <g transform="translate(27.240625 278.56993)scale(0.1 -0.1)">
       <use xlink:href="#DejaVuSans-36"/>
       <use x="63.623047" xlink:href="#DejaVuSans-30"/>
      </g>
     </g>
    </g>
    <g id="ytick_5">
     <g id="line2d_10">
      <g>
       <use style="stroke:#000000;stroke-width:0.8;" x="46.965625" xlink:href="#me8f43dc805" y="204.034281"/>
      </g>
     </g>
     <g id="text_11">
      <!-- 80 -->
      <defs>
       <path d="M 31.78125 34.625 
Q 24.75 34.625 20.71875 30.859375 
Q 16.703125 27.09375 16.703125 20.515625 
Q 16.703125 13.921875 20.71875 10.15625 
Q 24.75 6.390625 31.78125 6.390625 
Q 38.8125 6.390625 42.859375 10.171875 
Q 46.921875 13.96875 46.921875 20.515625 
Q 46.921875 27.09375 42.890625 30.859375 
Q 38.875 34.625 31.78125 34.625 
z
M 21.921875 38.8125 
Q 15.578125 40.375 12.03125 44.71875 
Q 8.5 49.078125 8.5 55.328125 
Q 8.5 64.0625 14.71875 69.140625 
Q 20.953125 74.21875 31.78125 74.21875 
Q 42.671875 74.21875 48.875 69.140625 
Q 55.078125 64.0625 55.078125 55.328125 
Q 55.078125 49.078125 51.53125 44.71875 
Q 48 40.375 41.703125 38.8125 
Q 48.828125 37.15625 52.796875 32.3125 
Q 56.78125 27.484375 56.78125 20.515625 
Q 56.78125 9.90625 50.3125 4.234375 
Q 43.84375 -1.421875 31.78125 -1.421875 
Q 19.734375 -1.421875 13.25 4.234375 
Q 6.78125 9.90625 6.78125 20.515625 
Q 6.78125 27.484375 10.78125 32.3125 
Q 14.796875 37.15625 21.921875 38.8125 
z
M 18.3125 54.390625 
Q 18.3125 48.734375 21.84375 45.5625 
Q 25.390625 42.390625 31.78125 42.390625 
Q 38.140625 42.390625 41.71875 45.5625 
Q 45.3125 48.734375 45.3125 54.390625 
Q 45.3125 60.0625 41.71875 63.234375 
Q 38.140625 66.40625 31.78125 66.40625 
Q 25.390625 66.40625 21.84375 63.234375 
Q 18.3125 60.0625 18.3125 54.390625 
z
" id="DejaVuSans-38"/>
      </defs>
      <g transform="translate(27.240625 207.8335)scale(0.1 -0.1)">
       <use xlink:href="#DejaVuSans-38"/>
       <use x="63.623047" xlink:href="#DejaVuSans-30"/>
      </g>
     </g>
    </g>
    <g id="ytick_6">
     <g id="line2d_11">
      <g>
       <use style="stroke:#000000;stroke-width:0.8;" x="46.965625" xlink:href="#me8f43dc805" y="133.297851"/>
      </g>
     </g>
     <g id="text_12">
      <!-- 100 -->
      <g transform="translate(20.878125 137.09707)scale(0.1 -0.1)">
       <use xlink:href="#DejaVuSans-31"/>
       <use x="63.623047" xlink:href="#DejaVuSans-30"/>
       <use x="127.246094" xlink:href="#DejaVuSans-30"/>
      </g>
     </g>
    </g>
    <g id="ytick_7">
     <g id="line2d_12">
      <g>
       <use style="stroke:#000000;stroke-width:0.8;" x="46.965625" xlink:href="#me8f43dc805" y="62.561422"/>
      </g>
     </g>
     <g id="text_13">
      <!-- 120 -->
      <g transform="translate(20.878125 66.36064)scale(0.1 -0.1)">
       <use xlink:href="#DejaVuSans-31"/>
       <use x="63.623047" xlink:href="#DejaVuSans-32"/>
       <use x="127.246094" xlink:href="#DejaVuSans-30"/>
      </g>
     </g>
    </g>
    <g id="text_14">
     <!-- Refugees -->
     <defs>
      <path d="M 44.390625 34.1875 
Q 47.5625 33.109375 50.5625 29.59375 
Q 53.5625 26.078125 56.59375 19.921875 
L 66.609375 0 
L 56 0 
L 46.6875 18.703125 
Q 43.0625 26.03125 39.671875 28.421875 
Q 36.28125 30.8125 30.421875 30.8125 
L 19.671875 30.8125 
L 19.671875 0 
L 9.8125 0 
L 9.8125 72.90625 
L 32.078125 72.90625 
Q 44.578125 72.90625 50.734375 67.671875 
Q 56.890625 62.453125 56.890625 51.90625 
Q 56.890625 45.015625 53.6875 40.46875 
Q 50.484375 35.9375 44.390625 34.1875 
z
M 19.671875 64.796875 
L 19.671875 38.921875 
L 32.078125 38.921875 
Q 39.203125 38.921875 42.84375 42.21875 
Q 46.484375 45.515625 46.484375 51.90625 
Q 46.484375 58.296875 42.84375 61.546875 
Q 39.203125 64.796875 32.078125 64.796875 
z
" id="DejaVuSans-52"/>
      <path d="M 37.109375 75.984375 
L 37.109375 68.5 
L 28.515625 68.5 
Q 23.6875 68.5 21.796875 66.546875 
Q 19.921875 64.59375 19.921875 59.515625 
L 19.921875 54.6875 
L 34.71875 54.6875 
L 34.71875 47.703125 
L 19.921875 47.703125 
L 19.921875 0 
L 10.890625 0 
L 10.890625 47.703125 
L 2.296875 47.703125 
L 2.296875 54.6875 
L 10.890625 54.6875 
L 10.890625 58.5 
Q 10.890625 67.625 15.140625 71.796875 
Q 19.390625 75.984375 28.609375 75.984375 
z
" id="DejaVuSans-66"/>
      <path d="M 8.5 21.578125 
L 8.5 54.6875 
L 17.484375 54.6875 
L 17.484375 21.921875 
Q 17.484375 14.15625 20.5 10.265625 
Q 23.53125 6.390625 29.59375 6.390625 
Q 36.859375 6.390625 41.078125 11.03125 
Q 45.3125 15.671875 45.3125 23.6875 
L 45.3125 54.6875 
L 54.296875 54.6875 
L 54.296875 0 
L 45.3125 0 
L 45.3125 8.40625 
Q 42.046875 3.421875 37.71875 1 
Q 33.40625 -1.421875 27.6875 -1.421875 
Q 18.265625 -1.421875 13.375 4.4375 
Q 8.5 10.296875 8.5 21.578125 
z
M 31.109375 56 
z
" id="DejaVuSans-75"/>
      <path d="M 45.40625 27.984375 
Q 45.40625 37.75 41.375 43.109375 
Q 37.359375 48.484375 30.078125 48.484375 
Q 22.859375 48.484375 18.828125 43.109375 
Q 14.796875 37.75 14.796875 27.984375 
Q 14.796875 18.265625 18.828125 12.890625 
Q 22.859375 7.515625 30.078125 7.515625 
Q 37.359375 7.515625 41.375 12.890625 
Q 45.40625 18.265625 45.40625 27.984375 
z
M 54.390625 6.78125 
Q 54.390625 -7.171875 48.1875 -13.984375 
Q 42 -20.796875 29.203125 -20.796875 
Q 24.46875 -20.796875 20.265625 -20.09375 
Q 16.0625 -19.390625 12.109375 -17.921875 
L 12.109375 -9.1875 
Q 16.0625 -11.328125 19.921875 -12.34375 
Q 23.78125 -13.375 27.78125 -13.375 
Q 36.625 -13.375 41.015625 -8.765625 
Q 45.40625 -4.15625 45.40625 5.171875 
L 45.40625 9.625 
Q 42.625 4.78125 38.28125 2.390625 
Q 33.9375 0 27.875 0 
Q 17.828125 0 11.671875 7.65625 
Q 5.515625 15.328125 5.515625 27.984375 
Q 5.515625 40.671875 11.671875 48.328125 
Q 17.828125 56 27.875 56 
Q 33.9375 56 38.28125 53.609375 
Q 42.625 51.21875 45.40625 46.390625 
L 45.40625 54.6875 
L 54.390625 54.6875 
z
" id="DejaVuSans-67"/>
      <path d="M 44.28125 53.078125 
L 44.28125 44.578125 
Q 40.484375 46.53125 36.375 47.5 
Q 32.28125 48.484375 27.875 48.484375 
Q 21.1875 48.484375 17.84375 46.4375 
Q 14.5 44.390625 14.5 40.28125 
Q 14.5 37.15625 16.890625 35.375 
Q 19.28125 33.59375 26.515625 31.984375 
L 29.59375 31.296875 
Q 39.15625 29.25 43.1875 25.515625 
Q 47.21875 21.78125 47.21875 15.09375 
Q 47.21875 7.46875 41.1875 3.015625 
Q 35.15625 -1.421875 24.609375 -1.421875 
Q 20.21875 -1.421875 15.453125 -0.5625 
Q 10.6875 0.296875 5.421875 2 
L 5.421875 11.28125 
Q 10.40625 8.6875 15.234375 7.390625 
Q 20.0625 6.109375 24.8125 6.109375 
Q 31.15625 6.109375 34.5625 8.28125 
Q 37.984375 10.453125 37.984375 14.40625 
Q 37.984375 18.0625 35.515625 20.015625 
Q 33.0625 21.96875 24.703125 23.78125 
L 21.578125 24.515625 
Q 13.234375 26.265625 9.515625 29.90625 
Q 5.8125 33.546875 5.8125 39.890625 
Q 5.8125 47.609375 11.28125 51.796875 
Q 16.75 56 26.8125 56 
Q 31.78125 56 36.171875 55.265625 
Q 40.578125 54.546875 44.28125 53.078125 
z
" id="DejaVuSans-73"/>
     </defs>
     <g style="fill:#ff7f0e;" transform="translate(14.798438 283.588594)rotate(-90)scale(0.1 -0.1)">
      <use xlink:href="#DejaVuSans-52"/>
      <use x="69.419922" xlink:href="#DejaVuSans-65"/>
      <use x="130.943359" xlink:href="#DejaVuSans-66"/>
      <use x="166.148438" xlink:href="#DejaVuSans-75"/>
      <use x="229.527344" xlink:href="#DejaVuSans-67"/>
      <use x="293.003906" xlink:href="#DejaVuSans-65"/>
      <use x="354.527344" xlink:href="#DejaVuSans-65"/>
      <use x="416.050781" xlink:href="#DejaVuSans-73"/>
     </g>
    </g>
   </g>
   <g id="line2d_13">
    <path clip-path="url(#p197f5a0250)" d="M 97.692898 412.242277 
L 102.547182 402.682339 
L 107.401467 405.795919 
L 112.255751 422.309908 
L 117.110036 423.415131 
L 121.96432 390.539889 
L 126.818605 445.018194 
L 131.672889 435.600643 
L 136.527173 438.507747 
L 141.381458 455.223224 
L 146.235742 455.96202 
L 151.090027 423.678432 
L 155.944311 422.040839 
L 160.798596 412.523448 
L 165.65288 415.575337 
L 170.507165 432.149563 
L 175.361449 433.145208 
L 180.215734 400.446879 
L 185.070018 275.727732 
L 189.924303 265.57494 
L 194.778587 269.548467 
L 199.632872 285.223118 
L 204.487156 287.854498 
L 209.341441 252.515007 
L 214.195725 117.744574 
L 219.05001 77.569977 
L 223.904294 58.800203 
L 228.758578 62.987901 
L 233.612863 70.181028 
L 238.467147 33.38 
L 243.321432 215.07136 
L 248.175716 204.655152 
L 253.030001 209.010824 
L 257.884285 224.312585 
L 262.73857 227.62196 
L 267.592854 191.187534 
L 272.447139 237.883416 
L 277.301423 227.566238 
L 282.155708 231.778221 
L 287.009992 247.220217 
L 291.864277 250.274595 
L 296.718561 214.251996 
L 301.572846 312.614771 
L 306.42713 302.622168 
L 311.281414 306.363325 
L 316.135699 322.264855 
L 320.989983 324.483747 
L 325.844268 289.810122 
L 330.698552 286.431034 
L 335.552837 276.324708 
L 340.407121 280.230857 
L 345.261406 295.971388 
L 350.11569 298.483001 
L 354.969975 263.336728 
L 359.824259 417.769059 
L 364.678544 408.233144 
L 369.532828 411.311936 
L 374.387113 427.85991 
L 379.241397 428.903306 
L 384.095682 396.127824 
L 388.949966 447.081592 
L 393.80425 437.672983 
L 398.658535 440.567097 
L 403.512819 457.295293 
L 408.367104 458.010988 
L 413.221388 425.764658 
L 418.075673 473.051543 
L 422.929957 471.968205 
L 427.784242 478.265924 
L 432.638526 486.98 
L 437.492811 486.98 
L 442.347095 453.226597 
L 447.20138 427.623896 
L 452.055664 418.130777 
L 456.909949 421.147466 
L 461.764233 437.756019 
L 466.618518 438.689271 
L 471.472802 406.091689 
L 476.327087 469.262092 
L 481.181371 463.789014 
L 486.035655 468.476479 
L 490.88994 485.032487 
L 495.744224 483.463647 
L 500.598509 450.083888 
L 505.452793 480.779731 
L 510.307078 486.98 
L 524.869931 486.98 
L 529.724216 457.893602 
L 534.5785 481.341622 
L 539.432785 486.98 
L 553.995638 486.98 
L 558.849923 458.23293 
L 563.704207 433.333562 
L 568.558491 423.865241 
L 573.412776 426.845987 
L 578.26706 443.489649 
L 583.121345 444.359014 
L 587.975629 411.864523 
L 592.829914 435.513459 
L 597.684198 426.054606 
L 602.538483 429.021617 
L 607.392767 445.67867 
L 612.247052 446.523685 
L 617.101336 414.068547 
L 621.955621 420.233963 
L 626.809905 410.708773 
L 631.66419 413.772009 
L 636.518474 430.335128 
L 641.372759 431.350984 
L 646.227043 398.620001 
L 651.081327 350.25799 
L 655.935612 340.428842 
L 660.789896 343.932946 
L 665.644181 360.065862 
L 670.498465 361.863942 
L 675.35275 327.869837 
L 680.207034 433.877265 
L 685.061319 424.411285 
L 689.915603 427.388604 
L 694.769888 444.035592 
L 699.624172 444.898912 
L 704.478457 412.414231 
L 709.332741 467.877401 
L 714.187026 461.348207 
L 719.04131 465.515697 
L 723.895595 482.147575 
L 728.749879 481.15126 
L 733.604163 448.166024 
L 738.458448 416.207176 
L 743.312732 406.664474 
L 748.167017 409.753081 
L 753.021301 426.291449 
L 757.875586 427.352297 
L 762.72987 394.548651 
L 767.584155 396.637561 
L 772.438439 387.009874 
L 777.292724 390.22177 
L 782.147008 406.639791 
L 787.001293 407.919417 
L 791.855577 374.762532 
L 796.709862 392.373837 
L 801.564146 382.727625 
L 806.418431 385.966383 
L 811.272715 402.35823 
L 816.127 403.685516 
L 820.981284 370.451632 
L 825.835568 382.179065 
L 830.689853 372.488586 
L 835.544137 375.791573 
L 840.398422 392.120681 
L 845.252706 393.561961 
L 850.106991 360.144075 
L 854.961275 390.346503 
L 859.81556 380.691515 
L 864.669844 383.943063 
L 869.524129 400.32243 
L 874.378413 401.672348 
L 879.232698 368.401888 
L 884.086982 411.284743 
L 888.941267 401.720656 
L 893.795551 404.840274 
L 898.649836 421.348394 
L 903.50412 422.464262 
L 908.358404 389.571771 
L 913.212689 475.857423 
L 918.066973 478.474864 
L 922.921258 486.021137 
L 927.775542 486.98 
L 932.629827 486.98 
L 937.484111 454.921049 
L 942.338396 466.573933 
L 947.19268 459.050624 
L 952.046965 462.728594 
L 956.901249 479.431913 
L 961.755534 478.974506 
L 966.609818 446.360652 
L 971.464103 417.310125 
L 976.318387 407.77218 
L 981.172672 410.853865 
L 986.026956 427.399006 
L 990.88124 428.44753 
L 995.735525 395.663797 
L 1000.589809 221.20486 
L 1005.444094 210.815231 
L 1010.298378 215.132235 
L 1015.152663 230.471746 
L 1020.006947 233.712556 
L 1024.861232 197.388898 
L 1029.715516 335.499278 
L 1034.569801 325.606071 
L 1039.424085 329.203093 
L 1044.27837 345.245276 
L 1049.132654 347.208375 
L 1053.986939 312.947832 
L 1058.841223 240.784849 
L 1063.695508 230.480246 
L 1068.549792 234.673854 
L 1073.404077 250.13374 
L 1078.258361 253.15571 
L 1083.112645 217.185514 
L 1087.96693 387.197371 
L 1092.821214 377.528669 
L 1097.675499 380.800037 
L 1102.529783 397.160042 
L 1107.384068 398.545209 
L 1112.238352 365.217894 
L 1112.238352 365.217894 
" style="fill:none;stroke:#008000;stroke-dasharray:5.55,2.4;stroke-dashoffset:0;stroke-width:1.5;"/>
   </g>
   <g id="line2d_14">
    <path clip-path="url(#p197f5a0250)" d="M 97.692898 426.854035 
L 102.547182 426.854035 
L 107.401467 437.464499 
L 112.255751 426.854035 
L 117.110036 455.148607 
L 121.96432 444.538142 
L 126.818605 458.685428 
L 131.672889 433.927678 
L 136.527173 444.538142 
L 141.381458 409.169927 
L 146.235742 423.317213 
L 151.090027 395.022641 
L 155.944311 228.792032 
L 160.798596 345.507141 
L 165.65288 324.286212 
L 170.507165 278.307532 
L 175.361449 423.317213 
L 185.070018 295.99164 
L 189.924303 260.623425 
L 194.778587 179.276531 
L 199.632872 214.644746 
L 204.487156 264.160246 
L 209.341441 218.181567 
L 214.195725 239.402496 
L 219.05001 402.096284 
L 223.904294 324.286212 
L 228.758578 228.792032 
L 233.612863 62.561422 
L 238.467147 235.865674 
L 243.321432 292.454818 
L 248.175716 352.580784 
L 253.030001 253.549782 
L 257.884285 345.507141 
L 262.73857 232.328853 
L 267.592854 193.423817 
L 272.447139 274.770711 
L 277.301423 278.307532 
L 282.155708 267.697068 
L 287.009992 380.875355 
L 291.864277 331.359855 
L 296.718561 391.48582 
L 301.572846 405.633106 
L 306.42713 345.507141 
L 311.281414 387.948998 
L 316.135699 331.359855 
L 320.989983 253.549782 
L 325.844268 264.160246 
L 330.698552 338.433498 
L 335.552837 366.728069 
L 340.407121 433.927678 
L 345.261406 409.169927 
L 350.11569 426.854035 
L 354.969975 433.927678 
L 359.824259 412.706749 
L 364.678544 433.927678 
L 369.532828 444.538142 
L 374.387113 412.706749 
L 379.241397 444.538142 
L 384.095682 437.464499 
L 388.949966 455.148607 
L 393.80425 448.074964 
L 398.658535 444.538142 
L 403.512819 458.685428 
L 408.367104 448.074964 
L 413.221388 465.759071 
L 418.075673 451.611785 
L 422.929957 462.22225 
L 427.784242 455.148607 
L 432.638526 455.148607 
L 437.492811 444.538142 
L 442.347095 430.390856 
L 447.20138 469.295893 
L 452.055664 465.759071 
L 456.909949 444.538142 
L 461.764233 405.633106 
L 466.618518 472.832714 
L 471.472802 472.832714 
L 476.327087 465.759071 
L 481.181371 472.832714 
L 486.035655 455.148607 
L 490.88994 476.369536 
L 495.744224 469.295893 
L 505.452793 469.295893 
L 510.307078 458.685428 
L 515.161362 451.611785 
L 520.015647 448.074964 
L 524.869931 451.611785 
L 529.724216 462.22225 
L 534.5785 412.706749 
L 539.432785 288.917997 
L 544.287069 398.559463 
L 549.141354 455.148607 
L 553.995638 444.538142 
L 558.849923 472.832714 
L 563.704207 437.464499 
L 568.558491 430.390856 
L 573.412776 458.685428 
L 578.26706 441.001321 
L 583.121345 433.927678 
L 587.975629 412.706749 
L 592.829914 430.390856 
L 597.684198 419.780392 
L 602.538483 472.832714 
L 607.392767 451.611785 
L 612.247052 380.875355 
L 617.101336 391.48582 
L 621.955621 465.759071 
L 626.809905 448.074964 
L 631.66419 462.22225 
L 636.518474 451.611785 
L 641.372759 448.074964 
L 646.227043 338.433498 
L 651.081327 437.464499 
L 655.935612 444.538142 
L 660.789896 469.295893 
L 665.644181 416.24357 
L 670.498465 419.780392 
L 675.35275 441.001321 
L 680.207034 451.611785 
L 685.061319 458.685428 
L 689.915603 441.001321 
L 694.769888 441.001321 
L 699.624172 444.538142 
L 704.478457 451.611785 
L 709.332741 448.074964 
L 714.187026 465.759071 
L 719.04131 448.074964 
L 723.895595 444.538142 
L 728.749879 448.074964 
L 733.604163 377.338534 
L 738.458448 437.464499 
L 743.312732 469.295893 
L 748.167017 444.538142 
L 753.021301 433.927678 
L 762.72987 433.927678 
L 767.584155 426.854035 
L 772.438439 469.295893 
L 777.292724 405.633106 
L 782.147008 441.001321 
L 787.001293 419.780392 
L 791.855577 391.48582 
L 796.709862 437.464499 
L 801.564146 448.074964 
L 806.418431 423.317213 
L 811.272715 433.927678 
L 816.127 469.295893 
L 820.981284 444.538142 
L 825.835568 476.369536 
L 830.689853 462.22225 
L 835.544137 426.854035 
L 840.398422 476.369536 
L 845.252706 462.22225 
L 850.106991 437.464499 
L 854.961275 455.148607 
L 859.81556 448.074964 
L 864.669844 483.443179 
L 869.524129 455.148607 
L 874.378413 451.611785 
L 879.232698 462.22225 
L 884.086982 458.685428 
L 888.941267 469.295893 
L 893.795551 455.148607 
L 898.649836 465.759071 
L 903.50412 455.148607 
L 908.358404 462.22225 
L 913.212689 448.074964 
L 918.066973 444.538142 
L 922.921258 469.295893 
L 927.775542 462.22225 
L 932.629827 472.832714 
L 937.484111 469.295893 
L 947.19268 469.295893 
L 952.046965 448.074964 
L 956.901249 462.22225 
L 966.609818 448.074964 
L 971.464103 405.633106 
L 976.318387 370.264891 
L 981.172672 285.381175 
L 986.026956 271.233889 
L 990.88124 281.844354 
L 995.735525 179.276531 
L 1000.589809 207.571103 
L 1005.444094 331.359855 
L 1010.298378 338.433498 
L 1015.152663 310.138926 
L 1020.006947 370.264891 
L 1024.861232 373.801712 
L 1029.715516 338.433498 
L 1034.569801 387.948998 
L 1039.424085 327.823033 
L 1044.27837 352.580784 
L 1049.132654 281.844354 
L 1053.986939 257.086603 
L 1058.841223 398.559463 
L 1063.695508 402.096284 
L 1068.549792 409.169927 
L 1073.404077 398.559463 
L 1078.258361 391.48582 
L 1083.112645 377.338534 
L 1087.96693 433.927678 
L 1092.821214 341.970319 
L 1097.675499 334.896676 
L 1102.529783 373.801712 
L 1107.384068 327.823033 
L 1112.238352 366.728069 
L 1112.238352 366.728069 
" style="fill:none;stroke:#ff7f0e;stroke-linecap:square;stroke-width:1.5;"/>
   </g>
   <g id="line2d_15">
    <defs>
     <path d="M 0 3 
C 0.795609 3 1.55874 2.683901 2.12132 2.12132 
C 2.683901 1.55874 3 0.795609 3 0 
C 3 -0.795609 2.683901 -1.55874 2.12132 -2.12132 
C 1.55874 -2.683901 0.795609 -3 0 -3 
C -0.795609 -3 -1.55874 -2.683901 -2.12132 -2.12132 
C -2.683901 -1.55874 -3 -0.795609 -3 0 
C -3 0.795609 -2.683901 1.55874 -2.12132 2.12132 
C -1.55874 2.683901 -0.795609 3 0 3 
z
" id="ma4bbdcb06e" style="stroke:#008000;"/>
    </defs>
    <g clip-path="url(#p197f5a0250)">
     <use style="fill:#008000;stroke:#008000;" x="97.692898" xlink:href="#ma4bbdcb06e" y="412.242277"/>
     <use style="fill:#008000;stroke:#008000;" x="126.818605" xlink:href="#ma4bbdcb06e" y="445.018194"/>
     <use style="fill:#008000;stroke:#008000;" x="155.944311" xlink:href="#ma4bbdcb06e" y="422.040839"/>
     <use style="fill:#008000;stroke:#008000;" x="185.070018" xlink:href="#ma4bbdcb06e" y="275.727732"/>
     <use style="fill:#008000;stroke:#008000;" x="214.195725" xlink:href="#ma4bbdcb06e" y="117.744574"/>
     <use style="fill:#008000;stroke:#008000;" x="243.321432" xlink:href="#ma4bbdcb06e" y="215.07136"/>
     <use style="fill:#008000;stroke:#008000;" x="272.447139" xlink:href="#ma4bbdcb06e" y="237.883416"/>
     <use style="fill:#008000;stroke:#008000;" x="301.572846" xlink:href="#ma4bbdcb06e" y="312.614771"/>
     <use style="fill:#008000;stroke:#008000;" x="330.698552" xlink:href="#ma4bbdcb06e" y="286.431034"/>
     <use style="fill:#008000;stroke:#008000;" x="359.824259" xlink:href="#ma4bbdcb06e" y="417.769059"/>
     <use style="fill:#008000;stroke:#008000;" x="388.949966" xlink:href="#ma4bbdcb06e" y="447.081592"/>
     <use style="fill:#008000;stroke:#008000;" x="418.075673" xlink:href="#ma4bbdcb06e" y="473.051543"/>
     <use style="fill:#008000;stroke:#008000;" x="447.20138" xlink:href="#ma4bbdcb06e" y="427.623896"/>
     <use style="fill:#008000;stroke:#008000;" x="476.327087" xlink:href="#ma4bbdcb06e" y="469.262092"/>
     <use style="fill:#008000;stroke:#008000;" x="505.452793" xlink:href="#ma4bbdcb06e" y="480.779731"/>
     <use style="fill:#008000;stroke:#008000;" x="534.5785" xlink:href="#ma4bbdcb06e" y="481.341622"/>
     <use style="fill:#008000;stroke:#008000;" x="563.704207" xlink:href="#ma4bbdcb06e" y="433.333562"/>
     <use style="fill:#008000;stroke:#008000;" x="592.829914" xlink:href="#ma4bbdcb06e" y="435.513459"/>
     <use style="fill:#008000;stroke:#008000;" x="621.955621" xlink:href="#ma4bbdcb06e" y="420.233963"/>
     <use style="fill:#008000;stroke:#008000;" x="651.081327" xlink:href="#ma4bbdcb06e" y="350.25799"/>
     <use style="fill:#008000;stroke:#008000;" x="680.207034" xlink:href="#ma4bbdcb06e" y="433.877265"/>
     <use style="fill:#008000;stroke:#008000;" x="709.332741" xlink:href="#ma4bbdcb06e" y="467.877401"/>
     <use style="fill:#008000;stroke:#008000;" x="738.458448" xlink:href="#ma4bbdcb06e" y="416.207176"/>
     <use style="fill:#008000;stroke:#008000;" x="767.584155" xlink:href="#ma4bbdcb06e" y="396.637561"/>
     <use style="fill:#008000;stroke:#008000;" x="796.709862" xlink:href="#ma4bbdcb06e" y="392.373837"/>
     <use style="fill:#008000;stroke:#008000;" x="825.835568" xlink:href="#ma4bbdcb06e" y="382.179065"/>
     <use style="fill:#008000;stroke:#008000;" x="854.961275" xlink:href="#ma4bbdcb06e" y="390.346503"/>
     <use style="fill:#008000;stroke:#008000;" x="884.086982" xlink:href="#ma4bbdcb06e" y="411.284743"/>
     <use style="fill:#008000;stroke:#008000;" x="913.212689" xlink:href="#ma4bbdcb06e" y="475.857423"/>
     <use style="fill:#008000;stroke:#008000;" x="942.338396" xlink:href="#ma4bbdcb06e" y="466.573933"/>
     <use style="fill:#008000;stroke:#008000;" x="971.464103" xlink:href="#ma4bbdcb06e" y="417.310125"/>
     <use style="fill:#008000;stroke:#008000;" x="1000.589809" xlink:href="#ma4bbdcb06e" y="221.20486"/>
     <use style="fill:#008000;stroke:#008000;" x="1029.715516" xlink:href="#ma4bbdcb06e" y="335.499278"/>
     <use style="fill:#008000;stroke:#008000;" x="1058.841223" xlink:href="#ma4bbdcb06e" y="240.784849"/>
     <use style="fill:#008000;stroke:#008000;" x="1087.96693" xlink:href="#ma4bbdcb06e" y="387.197371"/>
    </g>
   </g>
   <g id="patch_3">
    <path d="M 46.965625 509.66 
L 46.965625 10.7 
" style="fill:none;stroke:#000000;stroke-linecap:square;stroke-linejoin:miter;stroke-width:0.8;"/>
   </g>
   <g id="patch_4">
    <path d="M 1162.965625 509.66 
L 1162.965625 10.7 
" style="fill:none;stroke:#000000;stroke-linecap:square;stroke-linejoin:miter;stroke-width:0.8;"/>
   </g>
   <g id="patch_5">
    <path d="M 46.965625 509.66 
L 1162.965625 509.66 
" style="fill:none;stroke:#000000;stroke-linecap:square;stroke-linejoin:miter;stroke-width:0.8;"/>
   </g>
   <g id="patch_6">
    <path d="M 46.965625 10.7 
L 1162.965625 10.7 
" style="fill:none;stroke:#000000;stroke-linecap:square;stroke-linejoin:miter;stroke-width:0.8;"/>
   </g>
   <g id="legend_1">
    <g id="patch_7">
     <path d="M 53.965625 62.734375 
L 201.740625 62.734375 
Q 203.740625 62.734375 203.740625 60.734375 
L 203.740625 17.7 
Q 203.740625 15.7 201.740625 15.7 
L 53.965625 15.7 
Q 51.965625 15.7 51.965625 17.7 
L 51.965625 60.734375 
Q 51.965625 62.734375 53.965625 62.734375 
z
" style="fill:#ffffff;opacity:0.8;stroke:#cccccc;stroke-linejoin:miter;"/>
    </g>
    <g id="line2d_16">
     <path d="M 55.965625 23.798437 
L 75.965625 23.798437 
" style="fill:none;stroke:#008000;stroke-dasharray:5.55,2.4;stroke-dashoffset:0;stroke-width:1.5;"/>
    </g>
    <g id="line2d_17"/>
    <g id="text_15">
     <!-- Predicated -->
     <defs>
      <path d="M 19.671875 64.796875 
L 19.671875 37.40625 
L 32.078125 37.40625 
Q 38.96875 37.40625 42.71875 40.96875 
Q 46.484375 44.53125 46.484375 51.125 
Q 46.484375 57.671875 42.71875 61.234375 
Q 38.96875 64.796875 32.078125 64.796875 
z
M 9.8125 72.90625 
L 32.078125 72.90625 
Q 44.34375 72.90625 50.609375 67.359375 
Q 56.890625 61.8125 56.890625 51.125 
Q 56.890625 40.328125 50.609375 34.8125 
Q 44.34375 29.296875 32.078125 29.296875 
L 19.671875 29.296875 
L 19.671875 0 
L 9.8125 0 
z
" id="DejaVuSans-50"/>
      <path d="M 41.109375 46.296875 
Q 39.59375 47.171875 37.8125 47.578125 
Q 36.03125 48 33.890625 48 
Q 26.265625 48 22.1875 43.046875 
Q 18.109375 38.09375 18.109375 28.8125 
L 18.109375 0 
L 9.078125 0 
L 9.078125 54.6875 
L 18.109375 54.6875 
L 18.109375 46.1875 
Q 20.953125 51.171875 25.484375 53.578125 
Q 30.03125 56 36.53125 56 
Q 37.453125 56 38.578125 55.875 
Q 39.703125 55.765625 41.0625 55.515625 
z
" id="DejaVuSans-72"/>
      <path d="M 45.40625 46.390625 
L 45.40625 75.984375 
L 54.390625 75.984375 
L 54.390625 0 
L 45.40625 0 
L 45.40625 8.203125 
Q 42.578125 3.328125 38.25 0.953125 
Q 33.9375 -1.421875 27.875 -1.421875 
Q 17.96875 -1.421875 11.734375 6.484375 
Q 5.515625 14.40625 5.515625 27.296875 
Q 5.515625 40.1875 11.734375 48.09375 
Q 17.96875 56 27.875 56 
Q 33.9375 56 38.25 53.625 
Q 42.578125 51.265625 45.40625 46.390625 
z
M 14.796875 27.296875 
Q 14.796875 17.390625 18.875 11.75 
Q 22.953125 6.109375 30.078125 6.109375 
Q 37.203125 6.109375 41.296875 11.75 
Q 45.40625 17.390625 45.40625 27.296875 
Q 45.40625 37.203125 41.296875 42.84375 
Q 37.203125 48.484375 30.078125 48.484375 
Q 22.953125 48.484375 18.875 42.84375 
Q 14.796875 37.203125 14.796875 27.296875 
z
" id="DejaVuSans-64"/>
      <path d="M 48.78125 52.59375 
L 48.78125 44.1875 
Q 44.96875 46.296875 41.140625 47.34375 
Q 37.3125 48.390625 33.40625 48.390625 
Q 24.65625 48.390625 19.8125 42.84375 
Q 14.984375 37.3125 14.984375 27.296875 
Q 14.984375 17.28125 19.8125 11.734375 
Q 24.65625 6.203125 33.40625 6.203125 
Q 37.3125 6.203125 41.140625 7.25 
Q 44.96875 8.296875 48.78125 10.40625 
L 48.78125 2.09375 
Q 45.015625 0.34375 40.984375 -0.53125 
Q 36.96875 -1.421875 32.421875 -1.421875 
Q 20.0625 -1.421875 12.78125 6.34375 
Q 5.515625 14.109375 5.515625 27.296875 
Q 5.515625 40.671875 12.859375 48.328125 
Q 20.21875 56 33.015625 56 
Q 37.15625 56 41.109375 55.140625 
Q 45.0625 54.296875 48.78125 52.59375 
z
" id="DejaVuSans-63"/>
      <path d="M 34.28125 27.484375 
Q 23.390625 27.484375 19.1875 25 
Q 14.984375 22.515625 14.984375 16.5 
Q 14.984375 11.71875 18.140625 8.90625 
Q 21.296875 6.109375 26.703125 6.109375 
Q 34.1875 6.109375 38.703125 11.40625 
Q 43.21875 16.703125 43.21875 25.484375 
L 43.21875 27.484375 
z
M 52.203125 31.203125 
L 52.203125 0 
L 43.21875 0 
L 43.21875 8.296875 
Q 40.140625 3.328125 35.546875 0.953125 
Q 30.953125 -1.421875 24.3125 -1.421875 
Q 15.921875 -1.421875 10.953125 3.296875 
Q 6 8.015625 6 15.921875 
Q 6 25.140625 12.171875 29.828125 
Q 18.359375 34.515625 30.609375 34.515625 
L 43.21875 34.515625 
L 43.21875 35.40625 
Q 43.21875 41.609375 39.140625 45 
Q 35.0625 48.390625 27.6875 48.390625 
Q 23 48.390625 18.546875 47.265625 
Q 14.109375 46.140625 10.015625 43.890625 
L 10.015625 52.203125 
Q 14.9375 54.109375 19.578125 55.046875 
Q 24.21875 56 28.609375 56 
Q 40.484375 56 46.34375 49.84375 
Q 52.203125 43.703125 52.203125 31.203125 
z
" id="DejaVuSans-61"/>
      <path d="M 18.3125 70.21875 
L 18.3125 54.6875 
L 36.8125 54.6875 
L 36.8125 47.703125 
L 18.3125 47.703125 
L 18.3125 18.015625 
Q 18.3125 11.328125 20.140625 9.421875 
Q 21.96875 7.515625 27.59375 7.515625 
L 36.8125 7.515625 
L 36.8125 0 
L 27.59375 0 
Q 17.1875 0 13.234375 3.875 
Q 9.28125 7.765625 9.28125 18.015625 
L 9.28125 47.703125 
L 2.6875 47.703125 
L 2.6875 54.6875 
L 9.28125 54.6875 
L 9.28125 70.21875 
z
" id="DejaVuSans-74"/>
     </defs>
     <g transform="translate(83.965625 27.298437)scale(0.1 -0.1)">
      <use xlink:href="#DejaVuSans-50"/>
      <use x="60.287109" xlink:href="#DejaVuSans-72"/>
      <use x="101.369141" xlink:href="#DejaVuSans-65"/>
      <use x="162.892578" xlink:href="#DejaVuSans-64"/>
      <use x="226.369141" xlink:href="#DejaVuSans-69"/>
      <use x="254.152344" xlink:href="#DejaVuSans-63"/>
      <use x="309.132812" xlink:href="#DejaVuSans-61"/>
      <use x="370.412109" xlink:href="#DejaVuSans-74"/>
      <use x="409.621094" xlink:href="#DejaVuSans-65"/>
      <use x="471.144531" xlink:href="#DejaVuSans-64"/>
     </g>
    </g>
    <g id="line2d_18">
     <path d="M 55.965625 38.476562 
L 75.965625 38.476562 
" style="fill:none;stroke:#ff7f0e;stroke-linecap:square;stroke-width:1.5;"/>
    </g>
    <g id="line2d_19"/>
    <g id="text_16">
     <!-- Real Data -->
     <defs>
      <path d="M 9.421875 75.984375 
L 18.40625 75.984375 
L 18.40625 0 
L 9.421875 0 
z
" id="DejaVuSans-6c"/>
      <path id="DejaVuSans-20"/>
      <path d="M 19.671875 64.796875 
L 19.671875 8.109375 
L 31.59375 8.109375 
Q 46.6875 8.109375 53.6875 14.9375 
Q 60.6875 21.78125 60.6875 36.53125 
Q 60.6875 51.171875 53.6875 57.984375 
Q 46.6875 64.796875 31.59375 64.796875 
z
M 9.8125 72.90625 
L 30.078125 72.90625 
Q 51.265625 72.90625 61.171875 64.09375 
Q 71.09375 55.28125 71.09375 36.53125 
Q 71.09375 17.671875 61.125 8.828125 
Q 51.171875 0 30.078125 0 
L 9.8125 0 
z
" id="DejaVuSans-44"/>
     </defs>
     <g transform="translate(83.965625 41.976562)scale(0.1 -0.1)">
      <use xlink:href="#DejaVuSans-52"/>
      <use x="69.419922" xlink:href="#DejaVuSans-65"/>
      <use x="130.943359" xlink:href="#DejaVuSans-61"/>
      <use x="192.222656" xlink:href="#DejaVuSans-6c"/>
      <use x="220.005859" xlink:href="#DejaVuSans-20"/>
      <use x="251.792969" xlink:href="#DejaVuSans-44"/>
      <use x="328.794922" xlink:href="#DejaVuSans-61"/>
      <use x="390.074219" xlink:href="#DejaVuSans-74"/>
      <use x="429.283203" xlink:href="#DejaVuSans-61"/>
     </g>
    </g>
    <g id="line2d_20"/>
    <g id="line2d_21">
     <g>
      <use style="fill:#008000;stroke:#008000;" x="65.965625" xlink:href="#ma4bbdcb06e" y="53.154688"/>
     </g>
    </g>
    <g id="text_17">
     <!-- Start Point for Forecast -->
     <defs>
      <path d="M 53.515625 70.515625 
L 53.515625 60.890625 
Q 47.90625 63.578125 42.921875 64.890625 
Q 37.9375 66.21875 33.296875 66.21875 
Q 25.25 66.21875 20.875 63.09375 
Q 16.5 59.96875 16.5 54.203125 
Q 16.5 49.359375 19.40625 46.890625 
Q 22.3125 44.4375 30.421875 42.921875 
L 36.375 41.703125 
Q 47.40625 39.59375 52.65625 34.296875 
Q 57.90625 29 57.90625 20.125 
Q 57.90625 9.515625 50.796875 4.046875 
Q 43.703125 -1.421875 29.984375 -1.421875 
Q 24.8125 -1.421875 18.96875 -0.25 
Q 13.140625 0.921875 6.890625 3.21875 
L 6.890625 13.375 
Q 12.890625 10.015625 18.65625 8.296875 
Q 24.421875 6.59375 29.984375 6.59375 
Q 38.421875 6.59375 43.015625 9.90625 
Q 47.609375 13.234375 47.609375 19.390625 
Q 47.609375 24.75 44.3125 27.78125 
Q 41.015625 30.8125 33.5 32.328125 
L 27.484375 33.5 
Q 16.453125 35.6875 11.515625 40.375 
Q 6.59375 45.0625 6.59375 53.421875 
Q 6.59375 63.09375 13.40625 68.65625 
Q 20.21875 74.21875 32.171875 74.21875 
Q 37.3125 74.21875 42.625 73.28125 
Q 47.953125 72.359375 53.515625 70.515625 
z
" id="DejaVuSans-53"/>
      <path d="M 30.609375 48.390625 
Q 23.390625 48.390625 19.1875 42.75 
Q 14.984375 37.109375 14.984375 27.296875 
Q 14.984375 17.484375 19.15625 11.84375 
Q 23.34375 6.203125 30.609375 6.203125 
Q 37.796875 6.203125 41.984375 11.859375 
Q 46.1875 17.53125 46.1875 27.296875 
Q 46.1875 37.015625 41.984375 42.703125 
Q 37.796875 48.390625 30.609375 48.390625 
z
M 30.609375 56 
Q 42.328125 56 49.015625 48.375 
Q 55.71875 40.765625 55.71875 27.296875 
Q 55.71875 13.875 49.015625 6.21875 
Q 42.328125 -1.421875 30.609375 -1.421875 
Q 18.84375 -1.421875 12.171875 6.21875 
Q 5.515625 13.875 5.515625 27.296875 
Q 5.515625 40.765625 12.171875 48.375 
Q 18.84375 56 30.609375 56 
z
" id="DejaVuSans-6f"/>
      <path d="M 54.890625 33.015625 
L 54.890625 0 
L 45.90625 0 
L 45.90625 32.71875 
Q 45.90625 40.484375 42.875 44.328125 
Q 39.84375 48.1875 33.796875 48.1875 
Q 26.515625 48.1875 22.3125 43.546875 
Q 18.109375 38.921875 18.109375 30.90625 
L 18.109375 0 
L 9.078125 0 
L 9.078125 54.6875 
L 18.109375 54.6875 
L 18.109375 46.1875 
Q 21.34375 51.125 25.703125 53.5625 
Q 30.078125 56 35.796875 56 
Q 45.21875 56 50.046875 50.171875 
Q 54.890625 44.34375 54.890625 33.015625 
z
" id="DejaVuSans-6e"/>
      <path d="M 9.8125 72.90625 
L 51.703125 72.90625 
L 51.703125 64.59375 
L 19.671875 64.59375 
L 19.671875 43.109375 
L 48.578125 43.109375 
L 48.578125 34.8125 
L 19.671875 34.8125 
L 19.671875 0 
L 9.8125 0 
z
" id="DejaVuSans-46"/>
     </defs>
     <g transform="translate(83.965625 56.654688)scale(0.1 -0.1)">
      <use xlink:href="#DejaVuSans-53"/>
      <use x="63.476562" xlink:href="#DejaVuSans-74"/>
      <use x="102.685547" xlink:href="#DejaVuSans-61"/>
      <use x="163.964844" xlink:href="#DejaVuSans-72"/>
      <use x="205.078125" xlink:href="#DejaVuSans-74"/>
      <use x="244.287109" xlink:href="#DejaVuSans-20"/>
      <use x="276.074219" xlink:href="#DejaVuSans-50"/>
      <use x="336.330078" xlink:href="#DejaVuSans-6f"/>
      <use x="397.511719" xlink:href="#DejaVuSans-69"/>
      <use x="425.294922" xlink:href="#DejaVuSans-6e"/>
      <use x="488.673828" xlink:href="#DejaVuSans-74"/>
      <use x="527.882812" xlink:href="#DejaVuSans-20"/>
      <use x="559.669922" xlink:href="#DejaVuSans-66"/>
      <use x="594.875" xlink:href="#DejaVuSans-6f"/>
      <use x="656.056641" xlink:href="#DejaVuSans-72"/>
      <use x="697.169922" xlink:href="#DejaVuSans-20"/>
      <use x="728.957031" xlink:href="#DejaVuSans-46"/>
      <use x="786.429688" xlink:href="#DejaVuSans-6f"/>
      <use x="847.611328" xlink:href="#DejaVuSans-72"/>
      <use x="888.693359" xlink:href="#DejaVuSans-65"/>
      <use x="950.216797" xlink:href="#DejaVuSans-63"/>
      <use x="1005.197266" xlink:href="#DejaVuSans-61"/>
      <use x="1066.476562" xlink:href="#DejaVuSans-73"/>
      <use x="1118.576172" xlink:href="#DejaVuSans-74"/>
     </g>
    </g>
   </g>
  </g>
  <g id="axes_2">
   <g id="patch_8">
    <path d="M 46.965625 645.74 
L 1164.405625 645.74 
L 1164.405625 516.14 
L 46.965625 516.14 
z
" style="fill:none;"/>
   </g>
   <g id="matplotlib.axis_3">
    <g id="xtick_6">
     <g id="line2d_22">
      <g>
       <use style="stroke:#000000;stroke-width:0.8;" x="97.758352" xlink:href="#m58c30c6120" y="645.74"/>
      </g>
     </g>
     <g id="text_18">
      <!-- 0 -->
      <g transform="translate(94.577102 660.338437)scale(0.1 -0.1)">
       <use xlink:href="#DejaVuSans-30"/>
      </g>
     </g>
    </g>
    <g id="xtick_7">
     <g id="line2d_23">
      <g>
       <use style="stroke:#000000;stroke-width:0.8;" x="222.250331" xlink:href="#m58c30c6120" y="645.74"/>
      </g>
     </g>
     <g id="text_19">
      <!-- 25 -->
      <g transform="translate(215.887831 660.338437)scale(0.1 -0.1)">
       <use xlink:href="#DejaVuSans-32"/>
       <use x="63.623047" xlink:href="#DejaVuSans-35"/>
      </g>
     </g>
    </g>
    <g id="xtick_8">
     <g id="line2d_24">
      <g>
       <use style="stroke:#000000;stroke-width:0.8;" x="346.742309" xlink:href="#m58c30c6120" y="645.74"/>
      </g>
     </g>
     <g id="text_20">
      <!-- 50 -->
      <g transform="translate(340.379809 660.338437)scale(0.1 -0.1)">
       <use xlink:href="#DejaVuSans-35"/>
       <use x="63.623047" xlink:href="#DejaVuSans-30"/>
      </g>
     </g>
    </g>
    <g id="xtick_9">
     <g id="line2d_25">
      <g>
       <use style="stroke:#000000;stroke-width:0.8;" x="471.234288" xlink:href="#m58c30c6120" y="645.74"/>
      </g>
     </g>
     <g id="text_21">
      <!-- 75 -->
      <defs>
       <path d="M 8.203125 72.90625 
L 55.078125 72.90625 
L 55.078125 68.703125 
L 28.609375 0 
L 18.3125 0 
L 43.21875 64.59375 
L 8.203125 64.59375 
z
" id="DejaVuSans-37"/>
      </defs>
      <g transform="translate(464.871788 660.338437)scale(0.1 -0.1)">
       <use xlink:href="#DejaVuSans-37"/>
       <use x="63.623047" xlink:href="#DejaVuSans-35"/>
      </g>
     </g>
    </g>
    <g id="xtick_10">
     <g id="line2d_26">
      <g>
       <use style="stroke:#000000;stroke-width:0.8;" x="595.726267" xlink:href="#m58c30c6120" y="645.74"/>
      </g>
     </g>
     <g id="text_22">
      <!-- 100 -->
      <g transform="translate(586.182517 660.338437)scale(0.1 -0.1)">
       <use xlink:href="#DejaVuSans-31"/>
       <use x="63.623047" xlink:href="#DejaVuSans-30"/>
       <use x="127.246094" xlink:href="#DejaVuSans-30"/>
      </g>
     </g>
    </g>
    <g id="xtick_11">
     <g id="line2d_27">
      <g>
       <use style="stroke:#000000;stroke-width:0.8;" x="720.218245" xlink:href="#m58c30c6120" y="645.74"/>
      </g>
     </g>
     <g id="text_23">
      <!-- 125 -->
      <g transform="translate(710.674495 660.338437)scale(0.1 -0.1)">
       <use xlink:href="#DejaVuSans-31"/>
       <use x="63.623047" xlink:href="#DejaVuSans-32"/>
       <use x="127.246094" xlink:href="#DejaVuSans-35"/>
      </g>
     </g>
    </g>
    <g id="xtick_12">
     <g id="line2d_28">
      <g>
       <use style="stroke:#000000;stroke-width:0.8;" x="844.710224" xlink:href="#m58c30c6120" y="645.74"/>
      </g>
     </g>
     <g id="text_24">
      <!-- 150 -->
      <g transform="translate(835.166474 660.338437)scale(0.1 -0.1)">
       <use xlink:href="#DejaVuSans-31"/>
       <use x="63.623047" xlink:href="#DejaVuSans-35"/>
       <use x="127.246094" xlink:href="#DejaVuSans-30"/>
      </g>
     </g>
    </g>
    <g id="xtick_13">
     <g id="line2d_29">
      <g>
       <use style="stroke:#000000;stroke-width:0.8;" x="969.202203" xlink:href="#m58c30c6120" y="645.74"/>
      </g>
     </g>
     <g id="text_25">
      <!-- 175 -->
      <g transform="translate(959.658453 660.338437)scale(0.1 -0.1)">
       <use xlink:href="#DejaVuSans-31"/>
       <use x="63.623047" xlink:href="#DejaVuSans-37"/>
       <use x="127.246094" xlink:href="#DejaVuSans-35"/>
      </g>
     </g>
    </g>
    <g id="xtick_14">
     <g id="line2d_30">
      <g>
       <use style="stroke:#000000;stroke-width:0.8;" x="1093.694181" xlink:href="#m58c30c6120" y="645.74"/>
      </g>
     </g>
     <g id="text_26">
      <!-- 200 -->
      <g transform="translate(1084.150431 660.338437)scale(0.1 -0.1)">
       <use xlink:href="#DejaVuSans-32"/>
       <use x="63.623047" xlink:href="#DejaVuSans-30"/>
       <use x="127.246094" xlink:href="#DejaVuSans-30"/>
      </g>
     </g>
    </g>
   </g>
   <g id="matplotlib.axis_4">
    <g id="ytick_8">
     <g id="line2d_31">
      <g>
       <use style="stroke:#000000;stroke-width:0.8;" x="46.965625" xlink:href="#me8f43dc805" y="626.510133"/>
      </g>
     </g>
     <g id="text_27">
      <!-- 15 -->
      <g transform="translate(27.240625 630.309352)scale(0.1 -0.1)">
       <use xlink:href="#DejaVuSans-31"/>
       <use x="63.623047" xlink:href="#DejaVuSans-35"/>
      </g>
     </g>
    </g>
    <g id="ytick_9">
     <g id="line2d_32">
      <g>
       <use style="stroke:#000000;stroke-width:0.8;" x="46.965625" xlink:href="#me8f43dc805" y="603.882555"/>
      </g>
     </g>
     <g id="text_28">
      <!-- 20 -->
      <g transform="translate(27.240625 607.681773)scale(0.1 -0.1)">
       <use xlink:href="#DejaVuSans-32"/>
       <use x="63.623047" xlink:href="#DejaVuSans-30"/>
      </g>
     </g>
    </g>
    <g id="ytick_10">
     <g id="line2d_33">
      <g>
       <use style="stroke:#000000;stroke-width:0.8;" x="46.965625" xlink:href="#me8f43dc805" y="581.254976"/>
      </g>
     </g>
     <g id="text_29">
      <!-- 25 -->
      <g transform="translate(27.240625 585.054195)scale(0.1 -0.1)">
       <use xlink:href="#DejaVuSans-32"/>
       <use x="63.623047" xlink:href="#DejaVuSans-35"/>
      </g>
     </g>
    </g>
    <g id="ytick_11">
     <g id="line2d_34">
      <g>
       <use style="stroke:#000000;stroke-width:0.8;" x="46.965625" xlink:href="#me8f43dc805" y="558.627397"/>
      </g>
     </g>
     <g id="text_30">
      <!-- 30 -->
      <defs>
       <path d="M 40.578125 39.3125 
Q 47.65625 37.796875 51.625 33 
Q 55.609375 28.21875 55.609375 21.1875 
Q 55.609375 10.40625 48.1875 4.484375 
Q 40.765625 -1.421875 27.09375 -1.421875 
Q 22.515625 -1.421875 17.65625 -0.515625 
Q 12.796875 0.390625 7.625 2.203125 
L 7.625 11.71875 
Q 11.71875 9.328125 16.59375 8.109375 
Q 21.484375 6.890625 26.8125 6.890625 
Q 36.078125 6.890625 40.9375 10.546875 
Q 45.796875 14.203125 45.796875 21.1875 
Q 45.796875 27.640625 41.28125 31.265625 
Q 36.765625 34.90625 28.71875 34.90625 
L 20.21875 34.90625 
L 20.21875 43.015625 
L 29.109375 43.015625 
Q 36.375 43.015625 40.234375 45.921875 
Q 44.09375 48.828125 44.09375 54.296875 
Q 44.09375 59.90625 40.109375 62.90625 
Q 36.140625 65.921875 28.71875 65.921875 
Q 24.65625 65.921875 20.015625 65.03125 
Q 15.375 64.15625 9.8125 62.3125 
L 9.8125 71.09375 
Q 15.4375 72.65625 20.34375 73.4375 
Q 25.25 74.21875 29.59375 74.21875 
Q 40.828125 74.21875 47.359375 69.109375 
Q 53.90625 64.015625 53.90625 55.328125 
Q 53.90625 49.265625 50.4375 45.09375 
Q 46.96875 40.921875 40.578125 39.3125 
z
" id="DejaVuSans-33"/>
      </defs>
      <g transform="translate(27.240625 562.426616)scale(0.1 -0.1)">
       <use xlink:href="#DejaVuSans-33"/>
       <use x="63.623047" xlink:href="#DejaVuSans-30"/>
      </g>
     </g>
    </g>
    <g id="ytick_12">
     <g id="line2d_35">
      <g>
       <use style="stroke:#000000;stroke-width:0.8;" x="46.965625" xlink:href="#me8f43dc805" y="535.999819"/>
      </g>
     </g>
     <g id="text_31">
      <!-- 35 -->
      <g transform="translate(27.240625 539.799037)scale(0.1 -0.1)">
       <use xlink:href="#DejaVuSans-33"/>
       <use x="63.623047" xlink:href="#DejaVuSans-35"/>
      </g>
     </g>
    </g>
    <g id="text_32">
     <!-- Temperature -->
     <defs>
      <path d="M 18.109375 8.203125 
L 18.109375 -20.796875 
L 9.078125 -20.796875 
L 9.078125 54.6875 
L 18.109375 54.6875 
L 18.109375 46.390625 
Q 20.953125 51.265625 25.265625 53.625 
Q 29.59375 56 35.59375 56 
Q 45.5625 56 51.78125 48.09375 
Q 58.015625 40.1875 58.015625 27.296875 
Q 58.015625 14.40625 51.78125 6.484375 
Q 45.5625 -1.421875 35.59375 -1.421875 
Q 29.59375 -1.421875 25.265625 0.953125 
Q 20.953125 3.328125 18.109375 8.203125 
z
M 48.6875 27.296875 
Q 48.6875 37.203125 44.609375 42.84375 
Q 40.53125 48.484375 33.40625 48.484375 
Q 26.265625 48.484375 22.1875 42.84375 
Q 18.109375 37.203125 18.109375 27.296875 
Q 18.109375 17.390625 22.1875 11.75 
Q 26.265625 6.109375 33.40625 6.109375 
Q 40.53125 6.109375 44.609375 11.75 
Q 48.6875 17.390625 48.6875 27.296875 
z
" id="DejaVuSans-70"/>
     </defs>
     <g style="fill:#0000ff;" transform="translate(21.160938 613.557187)rotate(-90)scale(0.1 -0.1)">
      <use xlink:href="#DejaVuSans-54"/>
      <use x="60.818359" xlink:href="#DejaVuSans-65"/>
      <use x="122.341797" xlink:href="#DejaVuSans-6d"/>
      <use x="219.753906" xlink:href="#DejaVuSans-70"/>
      <use x="283.230469" xlink:href="#DejaVuSans-65"/>
      <use x="344.753906" xlink:href="#DejaVuSans-72"/>
      <use x="385.867188" xlink:href="#DejaVuSans-61"/>
      <use x="447.146484" xlink:href="#DejaVuSans-74"/>
      <use x="486.355469" xlink:href="#DejaVuSans-75"/>
      <use x="549.734375" xlink:href="#DejaVuSans-72"/>
      <use x="590.816406" xlink:href="#DejaVuSans-65"/>
     </g>
    </g>
   </g>
   <g id="line2d_36">
    <path clip-path="url(#p8abd93779d)" d="M 97.758352 547.173317 
L 102.738031 549.30755 
L 107.717711 549.017012 
L 112.69739 551.950904 
L 117.677069 555.175334 
L 122.656748 567.183337 
L 127.636427 550.775627 
L 132.616106 547.912786 
L 137.595785 539.210672 
L 142.575465 540.663362 
L 147.555144 544.516839 
L 152.534823 548.521921 
L 157.514502 548.644562 
L 162.494181 548.558577 
L 167.47386 550.214011 
L 172.453539 549.999049 
L 177.433219 554.096903 
L 182.412898 551.640906 
L 187.392577 548.379367 
L 192.372256 542.183031 
L 197.351935 544.644459 
L 202.331614 527.739395 
L 207.311293 543.647488 
L 212.290973 545.321928 
L 217.270652 546.645642 
L 222.250331 547.830422 
L 227.23001 546.408052 
L 232.209689 549.148252 
L 237.189368 557.68247 
L 242.169047 554.927788 
L 247.148727 553.51628 
L 252.128406 543.246979 
L 262.087764 529.938343 
L 267.067443 540.987389 
L 272.047122 542.489861 
L 277.026801 545.745969 
L 282.006481 549.351448 
L 286.98616 550.36109 
L 291.965839 547.441227 
L 296.945518 552.504374 
L 301.925197 551.30285 
L 306.904876 554.554886 
L 311.884555 543.413066 
L 316.864235 540.35789 
L 321.843914 530.766512 
L 326.823593 536.929359 
L 331.803272 544.248476 
L 336.782951 546.088551 
L 341.76263 546.608985 
L 346.742309 549.257769 
L 351.721989 549.254602 
L 356.701668 546.683656 
L 361.681347 556.639338 
L 366.661026 551.129523 
L 371.640705 549.046428 
L 376.620384 533.144671 
L 381.600064 528.793387 
L 386.579743 540.508137 
L 391.559422 547.02307 
L 396.539101 547.708685 
L 401.51878 547.813225 
L 406.498459 548.790284 
L 416.457818 547.020354 
L 421.437497 554.084685 
L 426.417176 552.121968 
L 431.396855 537.623574 
L 436.376534 538.664895 
L 441.356213 533.571427 
L 446.335892 536.880031 
L 451.315572 545.148149 
L 456.295251 547.889706 
L 461.27493 549.023348 
L 466.254609 549.416615 
L 471.234288 549.12834 
L 476.213967 553.01078 
L 481.193646 562.078556 
L 486.173326 550.350229 
L 491.153005 544.466153 
L 496.132684 536.133321 
L 501.112363 536.480881 
L 506.092042 544.055689 
L 511.071721 543.830771 
L 516.0514 548.756342 
L 521.03108 549.477709 
L 526.010759 548.961348 
L 530.990438 549.456892 
L 535.970117 545.636452 
L 540.949796 554.468448 
L 545.929475 553.285026 
L 550.909154 543.748859 
L 555.888834 533.735703 
L 560.868513 533.732083 
L 565.848192 545.438234 
L 570.827871 541.154833 
L 575.80755 546.033339 
L 580.787229 547.987457 
L 585.766908 547.973881 
L 590.746588 553.356982 
L 595.726267 557.70555 
L 600.705946 551.169347 
L 605.685625 551.589768 
L 610.665304 552.604388 
L 615.644983 539.871397 
L 620.624662 536.362312 
L 625.604342 545.616539 
L 630.584021 545.713385 
L 635.5637 547.757108 
L 640.543379 547.365199 
L 645.523058 549.202106 
L 650.502737 548.521468 
L 655.482416 557.542631 
L 660.462096 560.698726 
L 665.441775 559.806747 
L 670.421454 540.646166 
L 675.401133 539.489444 
L 680.380812 536.759653 
L 685.360491 542.55186 
L 690.34017 544.409132 
L 695.31985 547.893779 
L 700.299529 544.778866 
L 705.279208 546.845217 
L 710.258887 547.818203 
L 715.238566 551.053947 
L 720.218245 551.544513 
L 725.197924 550.962531 
L 730.177604 539.401649 
L 735.157283 534.047964 
L 740.136962 525.949101 
L 745.116641 530.11167 
L 750.09632 538.088344 
L 755.075999 544.235805 
L 760.055678 548.510607 
L 765.035358 546.78548 
L 770.015037 553.075042 
L 774.994716 554.111385 
L 779.974395 556.060525 
L 784.954074 558.165342 
L 789.933753 546.291294 
L 794.913432 553.630775 
L 799.893112 541.407357 
L 804.872791 542.665903 
L 809.85247 546.571876 
L 814.832149 547.722262 
L 819.811828 549.684073 
L 824.791507 550.933115 
L 829.771186 551.916057 
L 834.750866 549.497622 
L 839.730545 559.263232 
L 844.710224 553.732147 
L 849.689903 543.602232 
L 854.669582 538.271627 
L 859.649261 534.736295 
L 864.628941 540.518093 
L 869.60862 545.060354 
L 874.588299 547.731313 
L 879.567978 547.290075 
L 884.547657 549.037377 
L 889.527336 546.518475 
L 894.507015 546.959713 
L 899.486695 549.103449 
L 904.466374 552.126041 
L 909.446053 542.633772 
L 914.425732 535.418742 
L 919.405411 531.590609 
L 924.38509 534.981125 
L 929.364769 544.332198 
L 934.344449 548.764036 
L 939.324128 548.096522 
L 944.303807 549.913969 
L 949.283486 551.886189 
L 954.263165 551.641359 
L 959.242844 565.21338 
L 964.222523 560.09819 
L 969.202203 547.686058 
L 974.181882 537.028468 
L 979.161561 534.367465 
L 984.14124 535.600668 
L 989.120919 541.966711 
L 994.100598 546.105295 
L 999.080277 547.253871 
L 1004.059957 547.249346 
L 1009.039636 548.675336 
L 1014.019315 548.888035 
L 1018.998994 556.604492 
L 1023.978673 557.068357 
L 1033.938031 536.788616 
L 1038.917711 533.065927 
L 1043.89739 532.253597 
L 1053.856748 544.117689 
L 1058.836427 545.236849 
L 1063.816106 546.23563 
L 1068.795785 548.156711 
L 1073.775465 546.370038 
L 1078.755144 550.537585 
L 1083.734823 551.664891 
L 1088.714502 548.067106 
L 1093.694181 532.347727 
L 1098.67386 522.030909 
L 1103.653539 530.690031 
L 1108.633219 541.577517 
L 1113.612898 546.857436 
L 1113.612898 546.857436 
" style="fill:none;stroke:#ff0000;stroke-linecap:square;stroke-width:1.5;"/>
   </g>
   <g id="line2d_37">
    <path clip-path="url(#p8abd93779d)" d="M 97.758352 567.301453 
L 102.738031 569.592722 
L 107.717711 570.45076 
L 112.69739 573.313601 
L 117.677069 577.253062 
L 122.656748 591.359547 
L 127.636427 579.664257 
L 132.616106 577.890255 
L 137.595785 568.383957 
L 142.575465 565.200709 
L 147.555144 566.35562 
L 152.534823 568.38984 
L 162.494181 568.409752 
L 167.47386 571.139996 
L 172.453539 571.359936 
L 177.433219 578.951488 
L 182.412898 578.378106 
L 187.392577 575.865087 
L 192.372256 572.330659 
L 197.351935 568.967296 
L 202.331614 555.490762 
L 207.311293 565.533787 
L 212.290973 566.259679 
L 217.270652 566.509488 
L 222.250331 567.761698 
L 227.23001 568.362234 
L 232.209689 570.701473 
L 237.189368 582.079072 
L 242.169047 581.202932 
L 247.148727 582.41034 
L 252.128406 572.653781 
L 257.108085 565.776807 
L 262.087764 559.257802 
L 267.067443 564.207811 
L 272.047122 564.050323 
L 277.026801 565.685844 
L 282.006481 569.35287 
L 286.98616 570.592861 
L 291.965839 570.334001 
L 296.945518 574.926042 
L 301.925197 575.923466 
L 306.904876 583.185561 
L 311.884555 573.332608 
L 316.864235 568.493022 
L 321.843914 558.822447 
L 326.823593 560.980665 
L 331.803272 565.563655 
L 336.782951 567.275658 
L 341.76263 567.053002 
L 346.742309 569.944807 
L 351.721989 571.144069 
L 356.701668 573.819101 
L 361.681347 585.014774 
L 366.661026 579.874241 
L 371.640705 578.125582 
L 376.620384 563.579217 
L 381.600064 558.140452 
L 386.579743 564.293343 
L 391.559422 567.390606 
L 396.539101 568.538277 
L 401.51878 567.759888 
L 406.498459 570.256615 
L 411.478138 571.999391 
L 416.457818 573.578796 
L 421.437497 585.393107 
L 426.417176 581.532843 
L 431.396855 568.201578 
L 436.376534 566.295884 
L 441.356213 559.007088 
L 446.335892 559.918527 
L 451.315572 563.928586 
L 456.295251 566.276424 
L 461.27493 567.601042 
L 466.254609 569.167323 
L 471.234288 569.905435 
L 476.213967 574.237259 
L 481.193646 583.66255 
L 486.173326 580.451697 
L 491.153005 571.751393 
L 496.132684 563.547085 
L 501.112363 562.079913 
L 506.092042 566.272351 
L 511.071721 564.717836 
L 516.0514 567.2476 
L 521.03108 568.63648 
L 526.010759 569.211221 
L 530.990438 570.249374 
L 535.970117 571.472621 
L 540.949796 581.289822 
L 545.929475 581.613397 
L 550.909154 573.985187 
L 555.888834 563.128023 
L 560.868513 560.438961 
L 565.848192 566.451561 
L 570.827871 563.491874 
L 575.80755 566.598188 
L 580.787229 566.821296 
L 585.766908 568.316979 
L 590.746588 572.921239 
L 595.726267 580.47523 
L 600.705946 578.097524 
L 605.685625 581.024627 
L 610.665304 579.279136 
L 615.644983 568.299782 
L 620.624662 562.997235 
L 625.604342 567.755815 
L 630.584021 567.394679 
L 635.5637 568.641911 
L 640.543379 568.663633 
L 645.523058 570.335359 
L 650.502737 570.376994 
L 655.482416 579.552929 
L 660.462096 586.891958 
L 665.441775 589.346145 
L 670.421454 571.162623 
L 675.401133 567.449438 
L 680.380812 561.545902 
L 685.360491 565.82704 
L 690.34017 565.789931 
L 695.31985 567.766676 
L 700.299529 566.498174 
L 705.279208 568.455912 
L 710.258887 570.250279 
L 715.238566 576.814992 
L 720.218245 579.714038 
L 725.197924 577.099195 
L 730.177604 568.983587 
L 735.157283 562.713938 
L 740.136962 553.905927 
L 745.116641 555.346398 
L 750.09632 561.146752 
L 755.075999 565.619319 
L 760.055678 569.191309 
L 765.035358 568.380789 
L 774.994716 577.094669 
L 779.974395 580.066575 
L 784.954074 584.092927 
L 789.933753 574.307857 
L 794.913432 576.344791 
L 799.893112 566.032951 
L 804.872791 565.557772 
L 809.85247 566.593663 
L 814.832149 567.913756 
L 819.811828 569.671013 
L 824.791507 570.483796 
L 829.771186 572.770992 
L 834.750866 574.754978 
L 839.730545 584.64504 
L 844.710224 579.045167 
L 849.689903 572.087186 
L 854.669582 566.096308 
L 859.649261 561.626909 
L 864.628941 563.862514 
L 869.60862 565.63018 
L 874.588299 568.169447 
L 879.567978 568.201126 
L 884.547657 570.125375 
L 889.527336 569.573262 
L 894.507015 570.006807 
L 904.466374 579.633484 
L 909.446053 569.749757 
L 914.425732 563.841696 
L 919.405411 558.805703 
L 924.38509 560.483764 
L 929.364769 565.768661 
L 934.344449 569.00712 
L 939.324128 568.774961 
L 944.303807 570.511854 
L 949.283486 573.130317 
L 954.263165 574.004195 
L 959.242844 591.015156 
L 964.222523 589.73715 
L 969.202203 576.469696 
L 974.181882 564.831879 
L 979.161561 560.456611 
L 984.14124 560.067416 
L 989.120919 563.600486 
L 994.100598 565.95647 
L 999.080277 568.606159 
L 1004.059957 568.813881 
L 1009.039636 571.446373 
L 1014.019315 572.642919 
L 1018.998994 581.33553 
L 1023.978673 585.774156 
L 1028.958352 576.281434 
L 1033.938031 564.073855 
L 1038.917711 561.256269 
L 1043.89739 558.066233 
L 1048.877069 561.561289 
L 1053.856748 565.279453 
L 1058.836427 566.883748 
L 1063.816106 567.905157 
L 1068.795785 570.631328 
L 1073.775465 570.089623 
L 1078.755144 575.666417 
L 1083.734823 579.477353 
L 1088.714502 577.992532 
L 1093.694181 562.144175 
L 1098.67386 551.34539 
L 1103.653539 556.566477 
L 1108.633219 564.378875 
L 1113.612898 566.814055 
L 1113.612898 566.814055 
" style="fill:none;stroke:#008000;stroke-linecap:square;stroke-width:1.5;"/>
   </g>
   <g id="line2d_38">
    <path clip-path="url(#p8abd93779d)" d="M 97.758352 582.746586 
L 102.738031 584.56177 
L 107.717711 585.929834 
L 112.69739 588.679537 
L 117.677069 594.789436 
L 122.656748 612.50864 
L 127.636427 603.738643 
L 132.616106 602.958444 
L 137.595785 592.980587 
L 142.575465 584.49072 
L 147.555144 583.118583 
L 157.514502 583.90376 
L 162.494181 584.01554 
L 167.47386 586.903725 
L 172.453539 587.360802 
L 177.433219 600.053516 
L 182.412898 601.171771 
L 187.392577 600.065735 
L 192.372256 599.618161 
L 202.331614 580.091466 
L 207.311293 582.332049 
L 212.290973 582.609463 
L 217.270652 582.221626 
L 222.250331 582.806323 
L 227.23001 585.231094 
L 232.209689 586.99514 
L 237.189368 602.72538 
L 242.169047 603.874409 
L 247.148727 607.632397 
L 252.128406 598.846561 
L 257.108085 590.915142 
L 262.087764 584.659974 
L 267.067443 582.402194 
L 272.047122 581.336888 
L 277.026801 581.378975 
L 282.006481 584.130036 
L 286.98616 585.247386 
L 291.965839 589.8702 
L 296.945518 593.739064 
L 301.925197 596.424505 
L 306.904876 608.25556 
L 311.884555 598.656489 
L 316.864235 591.507532 
L 321.843914 582.955665 
L 326.823593 580.604659 
L 331.803272 582.525741 
L 336.782951 584.054912 
L 341.76263 583.121299 
L 346.742309 585.151445 
L 351.721989 588.894952 
L 356.701668 597.019157 
L 361.681347 610.034541 
L 366.661026 606.200524 
L 371.640705 602.906401 
L 376.620384 589.378277 
L 381.600064 582.765593 
L 386.579743 582.074094 
L 391.559422 582.842527 
L 396.539101 584.254035 
L 401.51878 582.862439 
L 406.498459 586.140723 
L 411.478138 591.920259 
L 416.457818 596.386943 
L 421.437497 611.422969 
L 426.417176 606.799249 
L 431.396855 595.442468 
L 436.376534 591.436481 
L 441.356213 581.13686 
L 446.335892 578.117436 
L 451.315572 578.627914 
L 456.295251 580.948598 
L 461.27493 581.942854 
L 466.254609 584.443654 
L 471.234288 587.102395 
L 476.213967 592.922208 
L 481.193646 602.964327 
L 486.173326 608.098072 
L 491.153005 596.303221 
L 496.132684 588.434254 
L 501.112363 583.716856 
L 506.092042 584.259013 
L 511.071721 581.856869 
L 516.0514 581.833337 
L 521.03108 583.372012 
L 526.010759 585.17 
L 530.990438 587.437283 
L 535.970117 594.382592 
L 540.949796 605.711768 
L 545.929475 607.706615 
L 550.909154 602.255632 
L 555.888834 589.32035 
L 560.868513 583.707353 
L 565.848192 582.885972 
L 570.827871 580.790205 
L 575.80755 582.664221 
L 580.787229 582.517142 
L 585.766908 584.435508 
L 590.746588 588.35551 
L 595.726267 600.765379 
L 600.705946 602.470141 
L 605.685625 606.350771 
L 610.665304 602.050173 
L 615.644983 592.30176 
L 620.624662 583.877512 
L 625.604342 583.932271 
L 630.584021 583.487413 
L 635.5637 584.591186 
L 640.543379 584.857286 
L 645.523058 585.532493 
L 650.502737 586.361115 
L 655.482416 597.118719 
L 660.462096 609.404589 
L 665.441775 615.07687 
L 670.421454 597.836918 
L 675.401133 590.448109 
L 680.380812 582.683681 
L 685.360491 583.520902 
L 690.34017 582.331144 
L 695.31985 583.246655 
L 700.299529 583.143926 
L 705.279208 584.29205 
L 710.258887 586.710938 
L 715.238566 598.355995 
L 720.218245 603.859022 
L 725.197924 599.304995 
L 735.157283 589.788741 
L 740.136962 579.020276 
L 745.116641 576.116705 
L 750.09632 579.665162 
L 760.055678 584.396136 
L 765.035358 584.293407 
L 770.015037 587.803397 
L 774.994716 596.866648 
L 779.974395 601.073114 
L 784.954074 607.301129 
L 789.933753 599.780627 
L 794.913432 596.521803 
L 799.893112 587.32143 
L 804.872791 582.986438 
L 809.85247 581.851891 
L 814.832149 583.930008 
L 819.811828 584.998483 
L 824.791507 584.954585 
L 829.771186 588.779551 
L 834.750866 596.20547 
L 839.730545 606.927774 
L 844.710224 600.725102 
L 849.689903 597.104237 
L 854.669582 590.291526 
L 859.649261 584.073015 
L 864.628941 582.146955 
L 869.60862 581.92973 
L 874.588299 584.208327 
L 879.567978 584.42872 
L 884.547657 585.625266 
L 889.527336 588.656004 
L 894.507015 588.941564 
L 899.486695 597.492979 
L 904.466374 604.477207 
L 909.446053 593.981179 
L 914.425732 589.522188 
L 919.405411 582.590908 
L 924.38509 580.866687 
L 934.344449 584.484384 
L 939.324128 585.050978 
L 944.303807 585.894082 
L 949.283486 590.364387 
L 954.263165 593.251213 
L 959.242844 614.112935 
L 964.222523 617.221512 
L 969.202203 603.834584 
L 974.181882 591.247767 
L 979.161561 583.700565 
L 984.14124 580.618688 
L 989.120919 580.672542 
L 994.100598 581.902125 
L 999.080277 584.699346 
L 1004.059957 585.140131 
L 1009.039636 589.143855 
L 1014.019315 592.938952 
L 1018.998994 603.533637 
L 1023.978673 611.503071 
L 1028.958352 602.796883 
L 1033.938031 588.86101 
L 1038.917711 586.314955 
L 1043.89739 579.131604 
L 1048.877069 580.905154 
L 1053.856748 582.046489 
L 1058.836427 583.333998 
L 1063.816106 584.333232 
L 1068.795785 588.204358 
L 1073.775465 589.843952 
L 1078.755144 598.089442 
L 1083.734823 604.056787 
L 1088.714502 605.858847 
L 1093.694181 589.487794 
L 1098.67386 578.038239 
L 1103.653539 578.276734 
L 1108.633219 582.278648 
L 1113.612898 583.212261 
L 1113.612898 583.212261 
" style="fill:none;stroke:#0000ff;stroke-linecap:square;stroke-width:1.5;"/>
   </g>
   <g id="line2d_39">
    <defs>
     <path d="M 0 3 
C 0.795609 3 1.55874 2.683901 2.12132 2.12132 
C 2.683901 1.55874 3 0.795609 3 0 
C 3 -0.795609 2.683901 -1.55874 2.12132 -2.12132 
C 1.55874 -2.683901 0.795609 -3 0 -3 
C -0.795609 -3 -1.55874 -2.683901 -2.12132 -2.12132 
C -2.683901 -1.55874 -3 -0.795609 -3 0 
C -3 0.795609 -2.683901 1.55874 -2.12132 2.12132 
C -1.55874 2.683901 -0.795609 3 0 3 
z
" id="md1d07e9e39" style="stroke:#ff0000;"/>
    </defs>
    <g clip-path="url(#p8abd93779d)">
     <use style="fill:#ff0000;stroke:#ff0000;" x="97.758352" xlink:href="#md1d07e9e39" y="639.849091"/>
     <use style="fill:#ff0000;stroke:#ff0000;" x="102.738031" xlink:href="#md1d07e9e39" y="639.849091"/>
     <use style="fill:#ff0000;stroke:#ff0000;" x="107.717711" xlink:href="#md1d07e9e39" y="639.849091"/>
     <use style="fill:#ff0000;stroke:#ff0000;" x="112.69739" xlink:href="#md1d07e9e39" y="639.849091"/>
     <use style="fill:#ff0000;stroke:#ff0000;" x="117.677069" xlink:href="#md1d07e9e39" y="639.849091"/>
     <use style="fill:#ff0000;stroke:#ff0000;" x="122.656748" xlink:href="#md1d07e9e39" y="639.849091"/>
     <use style="fill:#ff0000;stroke:#ff0000;" x="152.534823" xlink:href="#md1d07e9e39" y="639.849091"/>
     <use style="fill:#ff0000;stroke:#ff0000;" x="157.514502" xlink:href="#md1d07e9e39" y="639.849091"/>
     <use style="fill:#ff0000;stroke:#ff0000;" x="162.494181" xlink:href="#md1d07e9e39" y="639.849091"/>
     <use style="fill:#ff0000;stroke:#ff0000;" x="167.47386" xlink:href="#md1d07e9e39" y="639.849091"/>
     <use style="fill:#ff0000;stroke:#ff0000;" x="177.433219" xlink:href="#md1d07e9e39" y="639.849091"/>
     <use style="fill:#ff0000;stroke:#ff0000;" x="197.351935" xlink:href="#md1d07e9e39" y="639.849091"/>
     <use style="fill:#ff0000;stroke:#ff0000;" x="207.311293" xlink:href="#md1d07e9e39" y="639.849091"/>
     <use style="fill:#ff0000;stroke:#ff0000;" x="212.290973" xlink:href="#md1d07e9e39" y="639.849091"/>
     <use style="fill:#ff0000;stroke:#ff0000;" x="222.250331" xlink:href="#md1d07e9e39" y="639.849091"/>
     <use style="fill:#ff0000;stroke:#ff0000;" x="227.23001" xlink:href="#md1d07e9e39" y="639.849091"/>
     <use style="fill:#ff0000;stroke:#ff0000;" x="247.148727" xlink:href="#md1d07e9e39" y="639.849091"/>
     <use style="fill:#ff0000;stroke:#ff0000;" x="252.128406" xlink:href="#md1d07e9e39" y="639.849091"/>
     <use style="fill:#ff0000;stroke:#ff0000;" x="257.108085" xlink:href="#md1d07e9e39" y="639.849091"/>
     <use style="fill:#ff0000;stroke:#ff0000;" x="262.087764" xlink:href="#md1d07e9e39" y="639.849091"/>
     <use style="fill:#ff0000;stroke:#ff0000;" x="267.067443" xlink:href="#md1d07e9e39" y="639.849091"/>
     <use style="fill:#ff0000;stroke:#ff0000;" x="272.047122" xlink:href="#md1d07e9e39" y="639.849091"/>
     <use style="fill:#ff0000;stroke:#ff0000;" x="277.026801" xlink:href="#md1d07e9e39" y="639.849091"/>
     <use style="fill:#ff0000;stroke:#ff0000;" x="282.006481" xlink:href="#md1d07e9e39" y="639.849091"/>
     <use style="fill:#ff0000;stroke:#ff0000;" x="286.98616" xlink:href="#md1d07e9e39" y="639.849091"/>
     <use style="fill:#ff0000;stroke:#ff0000;" x="291.965839" xlink:href="#md1d07e9e39" y="639.849091"/>
     <use style="fill:#ff0000;stroke:#ff0000;" x="296.945518" xlink:href="#md1d07e9e39" y="639.849091"/>
     <use style="fill:#ff0000;stroke:#ff0000;" x="301.925197" xlink:href="#md1d07e9e39" y="639.849091"/>
     <use style="fill:#ff0000;stroke:#ff0000;" x="321.843914" xlink:href="#md1d07e9e39" y="639.849091"/>
     <use style="fill:#ff0000;stroke:#ff0000;" x="351.721989" xlink:href="#md1d07e9e39" y="639.849091"/>
     <use style="fill:#ff0000;stroke:#ff0000;" x="361.681347" xlink:href="#md1d07e9e39" y="639.849091"/>
     <use style="fill:#ff0000;stroke:#ff0000;" x="386.579743" xlink:href="#md1d07e9e39" y="639.849091"/>
     <use style="fill:#ff0000;stroke:#ff0000;" x="391.559422" xlink:href="#md1d07e9e39" y="639.849091"/>
     <use style="fill:#ff0000;stroke:#ff0000;" x="401.51878" xlink:href="#md1d07e9e39" y="639.849091"/>
     <use style="fill:#ff0000;stroke:#ff0000;" x="406.498459" xlink:href="#md1d07e9e39" y="639.849091"/>
     <use style="fill:#ff0000;stroke:#ff0000;" x="411.478138" xlink:href="#md1d07e9e39" y="639.849091"/>
     <use style="fill:#ff0000;stroke:#ff0000;" x="421.437497" xlink:href="#md1d07e9e39" y="639.849091"/>
     <use style="fill:#ff0000;stroke:#ff0000;" x="426.417176" xlink:href="#md1d07e9e39" y="639.849091"/>
     <use style="fill:#ff0000;stroke:#ff0000;" x="431.396855" xlink:href="#md1d07e9e39" y="639.849091"/>
     <use style="fill:#ff0000;stroke:#ff0000;" x="436.376534" xlink:href="#md1d07e9e39" y="639.849091"/>
     <use style="fill:#ff0000;stroke:#ff0000;" x="446.335892" xlink:href="#md1d07e9e39" y="639.849091"/>
     <use style="fill:#ff0000;stroke:#ff0000;" x="461.27493" xlink:href="#md1d07e9e39" y="639.849091"/>
     <use style="fill:#ff0000;stroke:#ff0000;" x="466.254609" xlink:href="#md1d07e9e39" y="639.849091"/>
     <use style="fill:#ff0000;stroke:#ff0000;" x="476.213967" xlink:href="#md1d07e9e39" y="639.849091"/>
     <use style="fill:#ff0000;stroke:#ff0000;" x="481.193646" xlink:href="#md1d07e9e39" y="639.849091"/>
     <use style="fill:#ff0000;stroke:#ff0000;" x="486.173326" xlink:href="#md1d07e9e39" y="639.849091"/>
     <use style="fill:#ff0000;stroke:#ff0000;" x="491.153005" xlink:href="#md1d07e9e39" y="639.849091"/>
     <use style="fill:#ff0000;stroke:#ff0000;" x="506.092042" xlink:href="#md1d07e9e39" y="639.849091"/>
     <use style="fill:#ff0000;stroke:#ff0000;" x="511.071721" xlink:href="#md1d07e9e39" y="639.849091"/>
     <use style="fill:#ff0000;stroke:#ff0000;" x="521.03108" xlink:href="#md1d07e9e39" y="639.849091"/>
     <use style="fill:#ff0000;stroke:#ff0000;" x="526.010759" xlink:href="#md1d07e9e39" y="639.849091"/>
     <use style="fill:#ff0000;stroke:#ff0000;" x="530.990438" xlink:href="#md1d07e9e39" y="639.849091"/>
     <use style="fill:#ff0000;stroke:#ff0000;" x="535.970117" xlink:href="#md1d07e9e39" y="639.849091"/>
     <use style="fill:#ff0000;stroke:#ff0000;" x="540.949796" xlink:href="#md1d07e9e39" y="639.849091"/>
     <use style="fill:#ff0000;stroke:#ff0000;" x="560.868513" xlink:href="#md1d07e9e39" y="639.849091"/>
     <use style="fill:#ff0000;stroke:#ff0000;" x="565.848192" xlink:href="#md1d07e9e39" y="639.849091"/>
     <use style="fill:#ff0000;stroke:#ff0000;" x="585.766908" xlink:href="#md1d07e9e39" y="639.849091"/>
     <use style="fill:#ff0000;stroke:#ff0000;" x="590.746588" xlink:href="#md1d07e9e39" y="639.849091"/>
     <use style="fill:#ff0000;stroke:#ff0000;" x="595.726267" xlink:href="#md1d07e9e39" y="639.849091"/>
     <use style="fill:#ff0000;stroke:#ff0000;" x="600.705946" xlink:href="#md1d07e9e39" y="639.849091"/>
     <use style="fill:#ff0000;stroke:#ff0000;" x="620.624662" xlink:href="#md1d07e9e39" y="639.849091"/>
     <use style="fill:#ff0000;stroke:#ff0000;" x="625.604342" xlink:href="#md1d07e9e39" y="639.849091"/>
     <use style="fill:#ff0000;stroke:#ff0000;" x="630.584021" xlink:href="#md1d07e9e39" y="639.849091"/>
     <use style="fill:#ff0000;stroke:#ff0000;" x="635.5637" xlink:href="#md1d07e9e39" y="639.849091"/>
     <use style="fill:#ff0000;stroke:#ff0000;" x="640.543379" xlink:href="#md1d07e9e39" y="639.849091"/>
     <use style="fill:#ff0000;stroke:#ff0000;" x="645.523058" xlink:href="#md1d07e9e39" y="639.849091"/>
     <use style="fill:#ff0000;stroke:#ff0000;" x="650.502737" xlink:href="#md1d07e9e39" y="639.849091"/>
     <use style="fill:#ff0000;stroke:#ff0000;" x="655.482416" xlink:href="#md1d07e9e39" y="639.849091"/>
     <use style="fill:#ff0000;stroke:#ff0000;" x="660.462096" xlink:href="#md1d07e9e39" y="639.849091"/>
     <use style="fill:#ff0000;stroke:#ff0000;" x="665.441775" xlink:href="#md1d07e9e39" y="639.849091"/>
     <use style="fill:#ff0000;stroke:#ff0000;" x="715.238566" xlink:href="#md1d07e9e39" y="639.849091"/>
     <use style="fill:#ff0000;stroke:#ff0000;" x="735.157283" xlink:href="#md1d07e9e39" y="639.849091"/>
     <use style="fill:#ff0000;stroke:#ff0000;" x="740.136962" xlink:href="#md1d07e9e39" y="639.849091"/>
     <use style="fill:#ff0000;stroke:#ff0000;" x="745.116641" xlink:href="#md1d07e9e39" y="639.849091"/>
     <use style="fill:#ff0000;stroke:#ff0000;" x="750.09632" xlink:href="#md1d07e9e39" y="639.849091"/>
     <use style="fill:#ff0000;stroke:#ff0000;" x="755.075999" xlink:href="#md1d07e9e39" y="639.849091"/>
     <use style="fill:#ff0000;stroke:#ff0000;" x="760.055678" xlink:href="#md1d07e9e39" y="639.849091"/>
     <use style="fill:#ff0000;stroke:#ff0000;" x="765.035358" xlink:href="#md1d07e9e39" y="639.849091"/>
     <use style="fill:#ff0000;stroke:#ff0000;" x="770.015037" xlink:href="#md1d07e9e39" y="639.849091"/>
     <use style="fill:#ff0000;stroke:#ff0000;" x="774.994716" xlink:href="#md1d07e9e39" y="639.849091"/>
     <use style="fill:#ff0000;stroke:#ff0000;" x="779.974395" xlink:href="#md1d07e9e39" y="639.849091"/>
     <use style="fill:#ff0000;stroke:#ff0000;" x="784.954074" xlink:href="#md1d07e9e39" y="639.849091"/>
     <use style="fill:#ff0000;stroke:#ff0000;" x="789.933753" xlink:href="#md1d07e9e39" y="639.849091"/>
     <use style="fill:#ff0000;stroke:#ff0000;" x="794.913432" xlink:href="#md1d07e9e39" y="639.849091"/>
     <use style="fill:#ff0000;stroke:#ff0000;" x="799.893112" xlink:href="#md1d07e9e39" y="639.849091"/>
     <use style="fill:#ff0000;stroke:#ff0000;" x="809.85247" xlink:href="#md1d07e9e39" y="639.849091"/>
     <use style="fill:#ff0000;stroke:#ff0000;" x="814.832149" xlink:href="#md1d07e9e39" y="639.849091"/>
     <use style="fill:#ff0000;stroke:#ff0000;" x="819.811828" xlink:href="#md1d07e9e39" y="639.849091"/>
     <use style="fill:#ff0000;stroke:#ff0000;" x="824.791507" xlink:href="#md1d07e9e39" y="639.849091"/>
     <use style="fill:#ff0000;stroke:#ff0000;" x="829.771186" xlink:href="#md1d07e9e39" y="639.849091"/>
     <use style="fill:#ff0000;stroke:#ff0000;" x="834.750866" xlink:href="#md1d07e9e39" y="639.849091"/>
     <use style="fill:#ff0000;stroke:#ff0000;" x="839.730545" xlink:href="#md1d07e9e39" y="639.849091"/>
     <use style="fill:#ff0000;stroke:#ff0000;" x="844.710224" xlink:href="#md1d07e9e39" y="639.849091"/>
     <use style="fill:#ff0000;stroke:#ff0000;" x="859.649261" xlink:href="#md1d07e9e39" y="639.849091"/>
     <use style="fill:#ff0000;stroke:#ff0000;" x="864.628941" xlink:href="#md1d07e9e39" y="639.849091"/>
     <use style="fill:#ff0000;stroke:#ff0000;" x="869.60862" xlink:href="#md1d07e9e39" y="639.849091"/>
     <use style="fill:#ff0000;stroke:#ff0000;" x="874.588299" xlink:href="#md1d07e9e39" y="639.849091"/>
     <use style="fill:#ff0000;stroke:#ff0000;" x="879.567978" xlink:href="#md1d07e9e39" y="639.849091"/>
     <use style="fill:#ff0000;stroke:#ff0000;" x="884.547657" xlink:href="#md1d07e9e39" y="639.849091"/>
     <use style="fill:#ff0000;stroke:#ff0000;" x="934.344449" xlink:href="#md1d07e9e39" y="639.849091"/>
     <use style="fill:#ff0000;stroke:#ff0000;" x="944.303807" xlink:href="#md1d07e9e39" y="639.849091"/>
     <use style="fill:#ff0000;stroke:#ff0000;" x="949.283486" xlink:href="#md1d07e9e39" y="639.849091"/>
     <use style="fill:#ff0000;stroke:#ff0000;" x="954.263165" xlink:href="#md1d07e9e39" y="639.849091"/>
     <use style="fill:#ff0000;stroke:#ff0000;" x="959.242844" xlink:href="#md1d07e9e39" y="639.849091"/>
     <use style="fill:#ff0000;stroke:#ff0000;" x="964.222523" xlink:href="#md1d07e9e39" y="639.849091"/>
     <use style="fill:#ff0000;stroke:#ff0000;" x="974.181882" xlink:href="#md1d07e9e39" y="639.849091"/>
     <use style="fill:#ff0000;stroke:#ff0000;" x="984.14124" xlink:href="#md1d07e9e39" y="639.849091"/>
     <use style="fill:#ff0000;stroke:#ff0000;" x="1004.059957" xlink:href="#md1d07e9e39" y="639.849091"/>
     <use style="fill:#ff0000;stroke:#ff0000;" x="1014.019315" xlink:href="#md1d07e9e39" y="639.849091"/>
     <use style="fill:#ff0000;stroke:#ff0000;" x="1018.998994" xlink:href="#md1d07e9e39" y="639.849091"/>
     <use style="fill:#ff0000;stroke:#ff0000;" x="1023.978673" xlink:href="#md1d07e9e39" y="639.849091"/>
     <use style="fill:#ff0000;stroke:#ff0000;" x="1028.958352" xlink:href="#md1d07e9e39" y="639.849091"/>
     <use style="fill:#ff0000;stroke:#ff0000;" x="1033.938031" xlink:href="#md1d07e9e39" y="639.849091"/>
     <use style="fill:#ff0000;stroke:#ff0000;" x="1038.917711" xlink:href="#md1d07e9e39" y="639.849091"/>
     <use style="fill:#ff0000;stroke:#ff0000;" x="1043.89739" xlink:href="#md1d07e9e39" y="639.849091"/>
     <use style="fill:#ff0000;stroke:#ff0000;" x="1048.877069" xlink:href="#md1d07e9e39" y="639.849091"/>
     <use style="fill:#ff0000;stroke:#ff0000;" x="1053.856748" xlink:href="#md1d07e9e39" y="639.849091"/>
     <use style="fill:#ff0000;stroke:#ff0000;" x="1058.836427" xlink:href="#md1d07e9e39" y="639.849091"/>
     <use style="fill:#ff0000;stroke:#ff0000;" x="1063.816106" xlink:href="#md1d07e9e39" y="639.849091"/>
     <use style="fill:#ff0000;stroke:#ff0000;" x="1068.795785" xlink:href="#md1d07e9e39" y="639.849091"/>
     <use style="fill:#ff0000;stroke:#ff0000;" x="1073.775465" xlink:href="#md1d07e9e39" y="639.849091"/>
     <use style="fill:#ff0000;stroke:#ff0000;" x="1078.755144" xlink:href="#md1d07e9e39" y="639.849091"/>
     <use style="fill:#ff0000;stroke:#ff0000;" x="1083.734823" xlink:href="#md1d07e9e39" y="639.849091"/>
     <use style="fill:#ff0000;stroke:#ff0000;" x="1088.714502" xlink:href="#md1d07e9e39" y="639.849091"/>
     <use style="fill:#ff0000;stroke:#ff0000;" x="1093.694181" xlink:href="#md1d07e9e39" y="639.849091"/>
     <use style="fill:#ff0000;stroke:#ff0000;" x="1098.67386" xlink:href="#md1d07e9e39" y="639.849091"/>
     <use style="fill:#ff0000;stroke:#ff0000;" x="1103.653539" xlink:href="#md1d07e9e39" y="639.849091"/>
     <use style="fill:#ff0000;stroke:#ff0000;" x="1108.633219" xlink:href="#md1d07e9e39" y="639.849091"/>
     <use style="fill:#ff0000;stroke:#ff0000;" x="1113.612898" xlink:href="#md1d07e9e39" y="639.849091"/>
    </g>
   </g>
   <g id="patch_9">
    <path d="M 46.965625 645.74 
L 46.965625 516.14 
" style="fill:none;stroke:#000000;stroke-linecap:square;stroke-linejoin:miter;stroke-width:0.8;"/>
   </g>
   <g id="patch_10">
    <path d="M 1164.405625 645.74 
L 1164.405625 516.14 
" style="fill:none;stroke:#000000;stroke-linecap:square;stroke-linejoin:miter;stroke-width:0.8;"/>
   </g>
   <g id="patch_11">
    <path d="M 46.965625 645.74 
L 1164.405625 645.74 
" style="fill:none;stroke:#000000;stroke-linecap:square;stroke-linejoin:miter;stroke-width:0.8;"/>
   </g>
   <g id="patch_12">
    <path d="M 46.965625 516.14 
L 1164.405625 516.14 
" style="fill:none;stroke:#000000;stroke-linecap:square;stroke-linejoin:miter;stroke-width:0.8;"/>
   </g>
   <g id="legend_2">
    <g id="patch_13">
     <path d="M 53.965625 582.8525 
L 144.978125 582.8525 
Q 146.978125 582.8525 146.978125 580.8525 
L 146.978125 523.14 
Q 146.978125 521.14 144.978125 521.14 
L 53.965625 521.14 
Q 51.965625 521.14 51.965625 523.14 
L 51.965625 580.8525 
Q 51.965625 582.8525 53.965625 582.8525 
z
" style="fill:#ffffff;opacity:0.8;stroke:#cccccc;stroke-linejoin:miter;"/>
    </g>
    <g id="line2d_40">
     <path d="M 55.965625 529.238437 
L 75.965625 529.238437 
" style="fill:none;stroke:#ff0000;stroke-linecap:square;stroke-width:1.5;"/>
    </g>
    <g id="line2d_41"/>
    <g id="text_33">
     <!-- Maxmimum -->
     <defs>
      <path d="M 9.8125 72.90625 
L 24.515625 72.90625 
L 43.109375 23.296875 
L 61.8125 72.90625 
L 76.515625 72.90625 
L 76.515625 0 
L 66.890625 0 
L 66.890625 64.015625 
L 48.09375 14.015625 
L 38.1875 14.015625 
L 19.390625 64.015625 
L 19.390625 0 
L 9.8125 0 
z
" id="DejaVuSans-4d"/>
      <path d="M 54.890625 54.6875 
L 35.109375 28.078125 
L 55.90625 0 
L 45.3125 0 
L 29.390625 21.484375 
L 13.484375 0 
L 2.875 0 
L 24.125 28.609375 
L 4.6875 54.6875 
L 15.28125 54.6875 
L 29.78125 35.203125 
L 44.28125 54.6875 
z
" id="DejaVuSans-78"/>
     </defs>
     <g transform="translate(83.965625 532.738437)scale(0.1 -0.1)">
      <use xlink:href="#DejaVuSans-4d"/>
      <use x="86.279297" xlink:href="#DejaVuSans-61"/>
      <use x="147.558594" xlink:href="#DejaVuSans-78"/>
      <use x="206.738281" xlink:href="#DejaVuSans-6d"/>
      <use x="304.150391" xlink:href="#DejaVuSans-69"/>
      <use x="331.933594" xlink:href="#DejaVuSans-6d"/>
      <use x="429.345703" xlink:href="#DejaVuSans-75"/>
      <use x="492.724609" xlink:href="#DejaVuSans-6d"/>
     </g>
    </g>
    <g id="line2d_42">
     <path d="M 55.965625 543.916562 
L 75.965625 543.916562 
" style="fill:none;stroke:#008000;stroke-linecap:square;stroke-width:1.5;"/>
    </g>
    <g id="line2d_43"/>
    <g id="text_34">
     <!-- Average -->
     <defs>
      <path d="M 34.1875 63.1875 
L 20.796875 26.90625 
L 47.609375 26.90625 
z
M 28.609375 72.90625 
L 39.796875 72.90625 
L 67.578125 0 
L 57.328125 0 
L 50.6875 18.703125 
L 17.828125 18.703125 
L 11.1875 0 
L 0.78125 0 
z
" id="DejaVuSans-41"/>
      <path d="M 2.984375 54.6875 
L 12.5 54.6875 
L 29.59375 8.796875 
L 46.6875 54.6875 
L 56.203125 54.6875 
L 35.6875 0 
L 23.484375 0 
z
" id="DejaVuSans-76"/>
     </defs>
     <g transform="translate(83.965625 547.416562)scale(0.1 -0.1)">
      <use xlink:href="#DejaVuSans-41"/>
      <use x="68.330078" xlink:href="#DejaVuSans-76"/>
      <use x="127.509766" xlink:href="#DejaVuSans-65"/>
      <use x="189.033203" xlink:href="#DejaVuSans-72"/>
      <use x="230.146484" xlink:href="#DejaVuSans-61"/>
      <use x="291.425781" xlink:href="#DejaVuSans-67"/>
      <use x="354.902344" xlink:href="#DejaVuSans-65"/>
     </g>
    </g>
    <g id="line2d_44">
     <path d="M 55.965625 558.594687 
L 75.965625 558.594687 
" style="fill:none;stroke:#0000ff;stroke-linecap:square;stroke-width:1.5;"/>
    </g>
    <g id="line2d_45"/>
    <g id="text_35">
     <!-- Minimum -->
     <g transform="translate(83.965625 562.094687)scale(0.1 -0.1)">
      <use xlink:href="#DejaVuSans-4d"/>
      <use x="86.279297" xlink:href="#DejaVuSans-69"/>
      <use x="114.0625" xlink:href="#DejaVuSans-6e"/>
      <use x="177.441406" xlink:href="#DejaVuSans-69"/>
      <use x="205.224609" xlink:href="#DejaVuSans-6d"/>
      <use x="302.636719" xlink:href="#DejaVuSans-75"/>
      <use x="366.015625" xlink:href="#DejaVuSans-6d"/>
     </g>
    </g>
    <g id="line2d_46"/>
    <g id="line2d_47">
     <g>
      <use style="fill:#ff0000;stroke:#ff0000;" x="65.965625" xlink:href="#md1d07e9e39" y="573.272812"/>
     </g>
    </g>
    <g id="text_36">
     <!-- Disasters -->
     <g transform="translate(83.965625 576.772812)scale(0.1 -0.1)">
      <use xlink:href="#DejaVuSans-44"/>
      <use x="77.001953" xlink:href="#DejaVuSans-69"/>
      <use x="104.785156" xlink:href="#DejaVuSans-73"/>
      <use x="156.884766" xlink:href="#DejaVuSans-61"/>
      <use x="218.164062" xlink:href="#DejaVuSans-73"/>
      <use x="270.263672" xlink:href="#DejaVuSans-74"/>
      <use x="309.472656" xlink:href="#DejaVuSans-65"/>
      <use x="370.996094" xlink:href="#DejaVuSans-72"/>
      <use x="412.109375" xlink:href="#DejaVuSans-73"/>
     </g>
    </g>
   </g>
  </g>
 </g>
 <defs>
  <clipPath id="p197f5a0250">
   <rect height="498.96" width="1116" x="46.965625" y="10.7"/>
  </clipPath>
  <clipPath id="p8abd93779d">
   <rect height="129.6" width="1117.44" x="46.965625" y="516.14"/>
  </clipPath>
 </defs>
</svg>
