<?xml version="1.0" encoding="utf-8" standalone="no"?>
<!DOCTYPE svg PUBLIC "-//W3C//DTD SVG 1.1//EN"
  "http://www.w3.org/Graphics/SVG/1.1/DTD/svg11.dtd">
<!-- Created with matplotlib (http://matplotlib.org/) -->
<svg height="669pt" version="1.1" viewBox="0 0 1181 669" width="1181pt" xmlns="http://www.w3.org/2000/svg" xmlns:xlink="http://www.w3.org/1999/xlink">
 <defs>
  <style type="text/css">
*{stroke-linecap:butt;stroke-linejoin:round;}
  </style>
 </defs>
 <g id="figure_1">
  <g id="patch_1">
   <path d="M 0 669.618125 
L 1181.468125 669.618125 
L 1181.468125 -0 
L 0 -0 
z
" style="fill:none;"/>
  </g>
  <g id="axes_1">
   <g id="patch_2">
    <path d="M 53.328125 509.66 
L 1169.328125 509.66 
L 1169.328125 10.7 
L 53.328125 10.7 
z
" style="fill:none;"/>
   </g>
   <g id="matplotlib.axis_1">
    <g id="xtick_1">
     <g id="line2d_1">
      <defs>
       <path d="M 0 0 
L 0 3.5 
" id="mcdd5afeb86" style="stroke:#000000;stroke-width:0.8;"/>
      </defs>
      <g>
       <use style="stroke:#000000;stroke-width:0.8;" x="104.055398" xlink:href="#mcdd5afeb86" y="509.66"/>
      </g>
     </g>
     <g id="text_1">
      <!-- 0 -->
      <defs>
       <path d="M 31.78125 66.40625 
Q 24.171875 66.40625 20.328125 58.90625 
Q 16.5 51.421875 16.5 36.375 
Q 16.5 21.390625 20.328125 13.890625 
Q 24.171875 6.390625 31.78125 6.390625 
Q 39.453125 6.390625 43.28125 13.890625 
Q 47.125 21.390625 47.125 36.375 
Q 47.125 51.421875 43.28125 58.90625 
Q 39.453125 66.40625 31.78125 66.40625 
z
M 31.78125 74.21875 
Q 44.046875 74.21875 50.515625 64.515625 
Q 56.984375 54.828125 56.984375 36.375 
Q 56.984375 17.96875 50.515625 8.265625 
Q 44.046875 -1.421875 31.78125 -1.421875 
Q 19.53125 -1.421875 13.0625 8.265625 
Q 6.59375 17.96875 6.59375 36.375 
Q 6.59375 54.828125 13.0625 64.515625 
Q 19.53125 74.21875 31.78125 74.21875 
z
" id="DejaVuSans-30"/>
      </defs>
      <g transform="translate(100.874148 524.258437)scale(0.1 -0.1)">
       <use xlink:href="#DejaVuSans-30"/>
      </g>
     </g>
    </g>
    <g id="xtick_2">
     <g id="line2d_2">
      <g>
       <use style="stroke:#000000;stroke-width:0.8;" x="346.769621" xlink:href="#mcdd5afeb86" y="509.66"/>
      </g>
     </g>
     <g id="text_2">
      <!-- 50 -->
      <defs>
       <path d="M 10.796875 72.90625 
L 49.515625 72.90625 
L 49.515625 64.59375 
L 19.828125 64.59375 
L 19.828125 46.734375 
Q 21.96875 47.46875 24.109375 47.828125 
Q 26.265625 48.1875 28.421875 48.1875 
Q 40.625 48.1875 47.75 41.5 
Q 54.890625 34.8125 54.890625 23.390625 
Q 54.890625 11.625 47.5625 5.09375 
Q 40.234375 -1.421875 26.90625 -1.421875 
Q 22.3125 -1.421875 17.546875 -0.640625 
Q 12.796875 0.140625 7.71875 1.703125 
L 7.71875 11.625 
Q 12.109375 9.234375 16.796875 8.0625 
Q 21.484375 6.890625 26.703125 6.890625 
Q 35.15625 6.890625 40.078125 11.328125 
Q 45.015625 15.765625 45.015625 23.390625 
Q 45.015625 31 40.078125 35.4375 
Q 35.15625 39.890625 26.703125 39.890625 
Q 22.75 39.890625 18.8125 39.015625 
Q 14.890625 38.140625 10.796875 36.28125 
z
" id="DejaVuSans-35"/>
      </defs>
      <g transform="translate(340.407121 524.258437)scale(0.1 -0.1)">
       <use xlink:href="#DejaVuSans-35"/>
       <use x="63.623047" xlink:href="#DejaVuSans-30"/>
      </g>
     </g>
    </g>
    <g id="xtick_3">
     <g id="line2d_3">
      <g>
       <use style="stroke:#000000;stroke-width:0.8;" x="589.483845" xlink:href="#mcdd5afeb86" y="509.66"/>
      </g>
     </g>
     <g id="text_3">
      <!-- 100 -->
      <defs>
       <path d="M 12.40625 8.296875 
L 28.515625 8.296875 
L 28.515625 63.921875 
L 10.984375 60.40625 
L 10.984375 69.390625 
L 28.421875 72.90625 
L 38.28125 72.90625 
L 38.28125 8.296875 
L 54.390625 8.296875 
L 54.390625 0 
L 12.40625 0 
z
" id="DejaVuSans-31"/>
      </defs>
      <g transform="translate(579.940095 524.258437)scale(0.1 -0.1)">
       <use xlink:href="#DejaVuSans-31"/>
       <use x="63.623047" xlink:href="#DejaVuSans-30"/>
       <use x="127.246094" xlink:href="#DejaVuSans-30"/>
      </g>
     </g>
    </g>
    <g id="xtick_4">
     <g id="line2d_4">
      <g>
       <use style="stroke:#000000;stroke-width:0.8;" x="832.198068" xlink:href="#mcdd5afeb86" y="509.66"/>
      </g>
     </g>
     <g id="text_4">
      <!-- 150 -->
      <g transform="translate(822.654318 524.258437)scale(0.1 -0.1)">
       <use xlink:href="#DejaVuSans-31"/>
       <use x="63.623047" xlink:href="#DejaVuSans-35"/>
       <use x="127.246094" xlink:href="#DejaVuSans-30"/>
      </g>
     </g>
    </g>
    <g id="xtick_5">
     <g id="line2d_5">
      <g>
       <use style="stroke:#000000;stroke-width:0.8;" x="1074.912292" xlink:href="#mcdd5afeb86" y="509.66"/>
      </g>
     </g>
     <g id="text_5">
      <!-- 200 -->
      <defs>
       <path d="M 19.1875 8.296875 
L 53.609375 8.296875 
L 53.609375 0 
L 7.328125 0 
L 7.328125 8.296875 
Q 12.9375 14.109375 22.625 23.890625 
Q 32.328125 33.6875 34.8125 36.53125 
Q 39.546875 41.84375 41.421875 45.53125 
Q 43.3125 49.21875 43.3125 52.78125 
Q 43.3125 58.59375 39.234375 62.25 
Q 35.15625 65.921875 28.609375 65.921875 
Q 23.96875 65.921875 18.8125 64.3125 
Q 13.671875 62.703125 7.8125 59.421875 
L 7.8125 69.390625 
Q 13.765625 71.78125 18.9375 73 
Q 24.125 74.21875 28.421875 74.21875 
Q 39.75 74.21875 46.484375 68.546875 
Q 53.21875 62.890625 53.21875 53.421875 
Q 53.21875 48.921875 51.53125 44.890625 
Q 49.859375 40.875 45.40625 35.40625 
Q 44.1875 33.984375 37.640625 27.21875 
Q 31.109375 20.453125 19.1875 8.296875 
z
" id="DejaVuSans-32"/>
      </defs>
      <g transform="translate(1065.368542 524.258437)scale(0.1 -0.1)">
       <use xlink:href="#DejaVuSans-32"/>
       <use x="63.623047" xlink:href="#DejaVuSans-30"/>
       <use x="127.246094" xlink:href="#DejaVuSans-30"/>
      </g>
     </g>
    </g>
    <g id="text_6">
     <!-- Time -->
     <defs>
      <path d="M -0.296875 72.90625 
L 61.375 72.90625 
L 61.375 64.59375 
L 35.5 64.59375 
L 35.5 0 
L 25.59375 0 
L 25.59375 64.59375 
L -0.296875 64.59375 
z
" id="DejaVuSans-54"/>
      <path d="M 9.421875 54.6875 
L 18.40625 54.6875 
L 18.40625 0 
L 9.421875 0 
z
M 9.421875 75.984375 
L 18.40625 75.984375 
L 18.40625 64.59375 
L 9.421875 64.59375 
z
" id="DejaVuSans-69"/>
      <path d="M 52 44.1875 
Q 55.375 50.25 60.0625 53.125 
Q 64.75 56 71.09375 56 
Q 79.640625 56 84.28125 50.015625 
Q 88.921875 44.046875 88.921875 33.015625 
L 88.921875 0 
L 79.890625 0 
L 79.890625 32.71875 
Q 79.890625 40.578125 77.09375 44.375 
Q 74.3125 48.1875 68.609375 48.1875 
Q 61.625 48.1875 57.5625 43.546875 
Q 53.515625 38.921875 53.515625 30.90625 
L 53.515625 0 
L 44.484375 0 
L 44.484375 32.71875 
Q 44.484375 40.625 41.703125 44.40625 
Q 38.921875 48.1875 33.109375 48.1875 
Q 26.21875 48.1875 22.15625 43.53125 
Q 18.109375 38.875 18.109375 30.90625 
L 18.109375 0 
L 9.078125 0 
L 9.078125 54.6875 
L 18.109375 54.6875 
L 18.109375 46.1875 
Q 21.1875 51.21875 25.484375 53.609375 
Q 29.78125 56 35.6875 56 
Q 41.65625 56 45.828125 52.96875 
Q 50 49.953125 52 44.1875 
z
" id="DejaVuSans-6d"/>
      <path d="M 56.203125 29.59375 
L 56.203125 25.203125 
L 14.890625 25.203125 
Q 15.484375 15.921875 20.484375 11.0625 
Q 25.484375 6.203125 34.421875 6.203125 
Q 39.59375 6.203125 44.453125 7.46875 
Q 49.3125 8.734375 54.109375 11.28125 
L 54.109375 2.78125 
Q 49.265625 0.734375 44.1875 -0.34375 
Q 39.109375 -1.421875 33.890625 -1.421875 
Q 20.796875 -1.421875 13.15625 6.1875 
Q 5.515625 13.8125 5.515625 26.8125 
Q 5.515625 40.234375 12.765625 48.109375 
Q 20.015625 56 32.328125 56 
Q 43.359375 56 49.78125 48.890625 
Q 56.203125 41.796875 56.203125 29.59375 
z
M 47.21875 32.234375 
Q 47.125 39.59375 43.09375 43.984375 
Q 39.0625 48.390625 32.421875 48.390625 
Q 24.90625 48.390625 20.390625 44.140625 
Q 15.875 39.890625 15.1875 32.171875 
z
" id="DejaVuSans-65"/>
     </defs>
     <g transform="translate(598.940625 537.936562)scale(0.1 -0.1)">
      <use xlink:href="#DejaVuSans-54"/>
      <use x="61.037109" xlink:href="#DejaVuSans-69"/>
      <use x="88.820312" xlink:href="#DejaVuSans-6d"/>
      <use x="186.232422" xlink:href="#DejaVuSans-65"/>
     </g>
    </g>
   </g>
   <g id="matplotlib.axis_2">
    <g id="ytick_1">
     <g id="line2d_6">
      <defs>
       <path d="M 0 0 
L -3.5 0 
" id="mf5df17a306" style="stroke:#000000;stroke-width:0.8;"/>
      </defs>
      <g>
       <use style="stroke:#000000;stroke-width:0.8;" x="53.328125" xlink:href="#mf5df17a306" y="491.035718"/>
      </g>
     </g>
     <g id="text_7">
      <!-- 0 -->
      <g transform="translate(39.965625 494.834936)scale(0.1 -0.1)">
       <use xlink:href="#DejaVuSans-30"/>
      </g>
     </g>
    </g>
    <g id="ytick_2">
     <g id="line2d_7">
      <g>
       <use style="stroke:#000000;stroke-width:0.8;" x="53.328125" xlink:href="#mf5df17a306" y="384.306306"/>
      </g>
     </g>
     <g id="text_8">
      <!-- 500 -->
      <g transform="translate(27.240625 388.105525)scale(0.1 -0.1)">
       <use xlink:href="#DejaVuSans-35"/>
       <use x="63.623047" xlink:href="#DejaVuSans-30"/>
       <use x="127.246094" xlink:href="#DejaVuSans-30"/>
      </g>
     </g>
    </g>
    <g id="ytick_3">
     <g id="line2d_8">
      <g>
       <use style="stroke:#000000;stroke-width:0.8;" x="53.328125" xlink:href="#mf5df17a306" y="277.576894"/>
      </g>
     </g>
     <g id="text_9">
      <!-- 1000 -->
      <g transform="translate(20.878125 281.376113)scale(0.1 -0.1)">
       <use xlink:href="#DejaVuSans-31"/>
       <use x="63.623047" xlink:href="#DejaVuSans-30"/>
       <use x="127.246094" xlink:href="#DejaVuSans-30"/>
       <use x="190.869141" xlink:href="#DejaVuSans-30"/>
      </g>
     </g>
    </g>
    <g id="ytick_4">
     <g id="line2d_9">
      <g>
       <use style="stroke:#000000;stroke-width:0.8;" x="53.328125" xlink:href="#mf5df17a306" y="170.847482"/>
      </g>
     </g>
     <g id="text_10">
      <!-- 1500 -->
      <g transform="translate(20.878125 174.646701)scale(0.1 -0.1)">
       <use xlink:href="#DejaVuSans-31"/>
       <use x="63.623047" xlink:href="#DejaVuSans-35"/>
       <use x="127.246094" xlink:href="#DejaVuSans-30"/>
       <use x="190.869141" xlink:href="#DejaVuSans-30"/>
      </g>
     </g>
    </g>
    <g id="ytick_5">
     <g id="line2d_10">
      <g>
       <use style="stroke:#000000;stroke-width:0.8;" x="53.328125" xlink:href="#mf5df17a306" y="64.118071"/>
      </g>
     </g>
     <g id="text_11">
      <!-- 2000 -->
      <g transform="translate(20.878125 67.917289)scale(0.1 -0.1)">
       <use xlink:href="#DejaVuSans-32"/>
       <use x="63.623047" xlink:href="#DejaVuSans-30"/>
       <use x="127.246094" xlink:href="#DejaVuSans-30"/>
       <use x="190.869141" xlink:href="#DejaVuSans-30"/>
      </g>
     </g>
    </g>
    <g id="text_12">
     <!-- Refugees -->
     <defs>
      <path d="M 44.390625 34.1875 
Q 47.5625 33.109375 50.5625 29.59375 
Q 53.5625 26.078125 56.59375 19.921875 
L 66.609375 0 
L 56 0 
L 46.6875 18.703125 
Q 43.0625 26.03125 39.671875 28.421875 
Q 36.28125 30.8125 30.421875 30.8125 
L 19.671875 30.8125 
L 19.671875 0 
L 9.8125 0 
L 9.8125 72.90625 
L 32.078125 72.90625 
Q 44.578125 72.90625 50.734375 67.671875 
Q 56.890625 62.453125 56.890625 51.90625 
Q 56.890625 45.015625 53.6875 40.46875 
Q 50.484375 35.9375 44.390625 34.1875 
z
M 19.671875 64.796875 
L 19.671875 38.921875 
L 32.078125 38.921875 
Q 39.203125 38.921875 42.84375 42.21875 
Q 46.484375 45.515625 46.484375 51.90625 
Q 46.484375 58.296875 42.84375 61.546875 
Q 39.203125 64.796875 32.078125 64.796875 
z
" id="DejaVuSans-52"/>
      <path d="M 37.109375 75.984375 
L 37.109375 68.5 
L 28.515625 68.5 
Q 23.6875 68.5 21.796875 66.546875 
Q 19.921875 64.59375 19.921875 59.515625 
L 19.921875 54.6875 
L 34.71875 54.6875 
L 34.71875 47.703125 
L 19.921875 47.703125 
L 19.921875 0 
L 10.890625 0 
L 10.890625 47.703125 
L 2.296875 47.703125 
L 2.296875 54.6875 
L 10.890625 54.6875 
L 10.890625 58.5 
Q 10.890625 67.625 15.140625 71.796875 
Q 19.390625 75.984375 28.609375 75.984375 
z
" id="DejaVuSans-66"/>
      <path d="M 8.5 21.578125 
L 8.5 54.6875 
L 17.484375 54.6875 
L 17.484375 21.921875 
Q 17.484375 14.15625 20.5 10.265625 
Q 23.53125 6.390625 29.59375 6.390625 
Q 36.859375 6.390625 41.078125 11.03125 
Q 45.3125 15.671875 45.3125 23.6875 
L 45.3125 54.6875 
L 54.296875 54.6875 
L 54.296875 0 
L 45.3125 0 
L 45.3125 8.40625 
Q 42.046875 3.421875 37.71875 1 
Q 33.40625 -1.421875 27.6875 -1.421875 
Q 18.265625 -1.421875 13.375 4.4375 
Q 8.5 10.296875 8.5 21.578125 
z
M 31.109375 56 
z
" id="DejaVuSans-75"/>
      <path d="M 45.40625 27.984375 
Q 45.40625 37.75 41.375 43.109375 
Q 37.359375 48.484375 30.078125 48.484375 
Q 22.859375 48.484375 18.828125 43.109375 
Q 14.796875 37.75 14.796875 27.984375 
Q 14.796875 18.265625 18.828125 12.890625 
Q 22.859375 7.515625 30.078125 7.515625 
Q 37.359375 7.515625 41.375 12.890625 
Q 45.40625 18.265625 45.40625 27.984375 
z
M 54.390625 6.78125 
Q 54.390625 -7.171875 48.1875 -13.984375 
Q 42 -20.796875 29.203125 -20.796875 
Q 24.46875 -20.796875 20.265625 -20.09375 
Q 16.0625 -19.390625 12.109375 -17.921875 
L 12.109375 -9.1875 
Q 16.0625 -11.328125 19.921875 -12.34375 
Q 23.78125 -13.375 27.78125 -13.375 
Q 36.625 -13.375 41.015625 -8.765625 
Q 45.40625 -4.15625 45.40625 5.171875 
L 45.40625 9.625 
Q 42.625 4.78125 38.28125 2.390625 
Q 33.9375 0 27.875 0 
Q 17.828125 0 11.671875 7.65625 
Q 5.515625 15.328125 5.515625 27.984375 
Q 5.515625 40.671875 11.671875 48.328125 
Q 17.828125 56 27.875 56 
Q 33.9375 56 38.28125 53.609375 
Q 42.625 51.21875 45.40625 46.390625 
L 45.40625 54.6875 
L 54.390625 54.6875 
z
" id="DejaVuSans-67"/>
      <path d="M 44.28125 53.078125 
L 44.28125 44.578125 
Q 40.484375 46.53125 36.375 47.5 
Q 32.28125 48.484375 27.875 48.484375 
Q 21.1875 48.484375 17.84375 46.4375 
Q 14.5 44.390625 14.5 40.28125 
Q 14.5 37.15625 16.890625 35.375 
Q 19.28125 33.59375 26.515625 31.984375 
L 29.59375 31.296875 
Q 39.15625 29.25 43.1875 25.515625 
Q 47.21875 21.78125 47.21875 15.09375 
Q 47.21875 7.46875 41.1875 3.015625 
Q 35.15625 -1.421875 24.609375 -1.421875 
Q 20.21875 -1.421875 15.453125 -0.5625 
Q 10.6875 0.296875 5.421875 2 
L 5.421875 11.28125 
Q 10.40625 8.6875 15.234375 7.390625 
Q 20.0625 6.109375 24.8125 6.109375 
Q 31.15625 6.109375 34.5625 8.28125 
Q 37.984375 10.453125 37.984375 14.40625 
Q 37.984375 18.0625 35.515625 20.015625 
Q 33.0625 21.96875 24.703125 23.78125 
L 21.578125 24.515625 
Q 13.234375 26.265625 9.515625 29.90625 
Q 5.8125 33.546875 5.8125 39.890625 
Q 5.8125 47.609375 11.28125 51.796875 
Q 16.75 56 26.8125 56 
Q 31.78125 56 36.171875 55.265625 
Q 40.578125 54.546875 44.28125 53.078125 
z
" id="DejaVuSans-73"/>
     </defs>
     <g style="fill:#ff7f0e;" transform="translate(14.798437 283.588594)rotate(-90)scale(0.1 -0.1)">
      <use xlink:href="#DejaVuSans-52"/>
      <use x="69.419922" xlink:href="#DejaVuSans-65"/>
      <use x="130.943359" xlink:href="#DejaVuSans-66"/>
      <use x="166.148438" xlink:href="#DejaVuSans-75"/>
      <use x="229.527344" xlink:href="#DejaVuSans-67"/>
      <use x="293.003906" xlink:href="#DejaVuSans-65"/>
      <use x="354.527344" xlink:href="#DejaVuSans-65"/>
      <use x="416.050781" xlink:href="#DejaVuSans-73"/>
     </g>
    </g>
   </g>
   <g id="line2d_11">
    <path clip-path="url(#pe208a3c00f)" d="M 104.055398 481.03731 
L 108.909682 480.436507 
L 113.763967 480.658991 
L 118.618251 481.621924 
L 123.472536 481.749975 
L 128.32682 479.666785 
L 133.181105 475.518614 
L 138.035389 474.893839 
L 142.889673 475.151086 
L 147.743958 476.080094 
L 152.598242 476.26984 
L 157.452527 474.087033 
L 162.306811 477.651568 
L 167.161096 477.036057 
L 172.01538 477.279869 
L 176.869665 478.221991 
L 181.723949 478.38789 
L 186.578234 476.243584 
L 191.432518 477.399109 
L 196.286803 476.782501 
L 201.141087 477.027903 
L 205.995372 477.968471 
L 210.849656 478.137193 
L 215.703941 475.98833 
L 220.558225 478.640674 
L 225.41251 478.029457 
L 230.266794 478.267038 
L 235.121078 479.215241 
L 239.975363 479.370083 
L 244.829647 477.243633 
L 249.683932 478.729989 
L 254.538216 478.119162 
L 259.392501 478.356181 
L 264.246785 479.30493 
L 269.10107 479.458776 
L 273.955354 477.333937 
L 278.809639 481.060222 
L 283.663923 480.459515 
L 288.518208 480.681857 
L 293.372492 481.644934 
L 298.226777 481.772726 
L 303.081061 479.68995 
L 307.935346 479.817974 
L 312.78963 479.211873 
L 317.643914 479.442041 
L 322.498199 480.397481 
L 327.352483 480.539159 
L 332.206768 478.433959 
L 337.061052 473.63213 
L 341.915337 472.999165 
L 346.769621 473.268296 
L 351.623906 474.185706 
L 356.47819 474.396539 
L 361.332475 472.179676 
L 366.186759 479.617367 
L 371.041044 479.010395 
L 375.895328 479.241823 
L 380.749613 480.196028 
L 385.603897 480.339951 
L 390.458182 478.231132 
L 395.312466 482.097504 
L 400.16675 481.501301 
L 405.021035 481.717109 
L 409.875319 482.686562 
L 414.729604 482.802761 
L 419.583888 480.73871 
L 424.438173 478.212039 
L 429.292457 477.598962 
L 434.146742 477.839245 
L 439.001026 478.784809 
L 443.855311 478.944445 
L 448.709595 476.810257 
L 453.56388 482.341991 
L 458.418164 481.74685 
L 463.272449 481.961119 
L 468.126733 482.93207 
L 472.981018 483.045538 
L 477.835302 480.985899 
L 482.689587 479.747064 
L 487.543871 479.140653 
L 492.398155 479.371267 
L 497.25244 480.326271 
L 502.106724 480.468742 
L 506.961009 478.362264 
L 511.815293 483.544483 
L 516.669578 482.954567 
L 521.523862 483.161256 
L 526.378147 484.139607 
L 531.232431 484.239628 
L 536.086716 482.201697 
L 540.941 484.894131 
L 545.795285 484.310073 
L 550.649569 484.508263 
L 555.503854 485.494911 
L 560.358138 485.579844 
L 565.212423 483.566276 
L 570.066707 484.326969 
L 574.920991 483.740451 
L 579.775276 483.942212 
L 584.62956 484.925373 
L 589.483845 485.016647 
L 594.338129 482.992842 
L 599.192414 483.235576 
L 604.046698 482.64432 
L 608.900983 482.852956 
L 613.755267 483.829407 
L 618.609552 483.932881 
L 623.463836 481.889372 
L 628.318121 475.9966 
L 633.172405 475.373903 
L 638.02669 475.628141 
L 642.880974 476.560087 
L 647.735259 476.744486 
L 652.589543 474.570305 
L 657.443827 472.272936 
L 662.298112 471.634067 
L 667.152396 471.911758 
L 672.006681 472.820813 
L 676.860965 473.046841 
L 681.71525 470.805446 
L 686.569534 475.157188 
L 691.423819 474.530845 
L 696.278103 474.790371 
L 701.132388 475.717156 
L 705.986672 475.910939 
L 710.840957 473.721608 
L 715.695241 478.487665 
L 720.549526 477.875785 
L 725.40381 478.114328 
L 730.258095 479.06159 
L 735.112379 479.218144 
L 744.820948 475.017743 
L 749.675232 474.390796 
L 754.529517 474.651199 
L 759.383801 475.577126 
L 764.238086 475.772469 
L 769.09237 473.58062 
L 773.946655 393.054633 
L 778.800939 240.497231 
L 783.655224 196.141936 
L 788.509508 241.917649 
L 793.363793 332.389691 
L 798.218077 411.025712 
L 803.072362 333.33612 
L 807.926646 344.222116 
L 812.780931 363.684508 
L 817.635215 378.060199 
L 822.4895 377.536154 
L 827.343784 376.006218 
L 832.198068 403.208681 
L 837.052353 402.466846 
L 841.906637 403.656914 
L 846.760922 404.668335 
L 851.615206 406.100219 
L 856.469491 402.968983 
L 861.323775 420.985122 
L 866.17806 420.520545 
L 871.032344 422.82894 
L 880.740913 428.290126 
L 885.595198 426.700982 
L 890.449482 418.966754 
L 895.303767 404.660466 
L 900.158051 397.721875 
L 905.012336 396.919261 
L 909.86662 403.073661 
L 914.720904 406.964203 
L 919.575189 414.587044 
L 929.283758 420.965989 
L 934.138042 421.873039 
L 938.992327 421.249046 
L 943.846611 416.878365 
L 948.700896 448.061378 
L 953.55518 448.633821 
L 958.409465 446.113413 
L 963.263749 440.851299 
L 968.118034 435.137035 
L 972.972318 429.209807 
L 977.826603 429.007494 
L 982.680887 427.776842 
L 987.535172 429.874267 
L 992.389456 433.062717 
L 997.24374 436.478592 
L 1002.098025 435.633955 
L 1006.952309 447.848489 
L 1011.806594 448.437895 
L 1016.660878 445.838515 
L 1021.515163 440.428381 
L 1031.223732 428.56375 
L 1036.078016 430.441319 
L 1040.932301 429.073099 
L 1045.786585 430.886984 
L 1050.64087 433.805706 
L 1055.495154 436.994133 
L 1060.349439 436.000029 
L 1065.203723 444.743741 
L 1070.058008 443.123993 
L 1074.912292 447.772901 
L 1079.766577 451.845702 
L 1084.620861 446.597256 
L 1089.475145 444.559358 
L 1094.32943 440.831949 
L 1099.183714 442.166558 
L 1104.037999 446.237926 
L 1108.892283 449.479373 
L 1113.746568 450.310008 
L 1118.600852 449.218692 
L 1118.600852 449.218692 
" style="fill:none;stroke:#008000;stroke-dasharray:5.55,2.4;stroke-dashoffset:0;stroke-width:1.5;"/>
   </g>
   <g id="line2d_12">
    <path clip-path="url(#pe208a3c00f)" d="M 104.055398 482.497365 
L 108.909682 482.497365 
L 113.763967 477.587812 
L 118.618251 477.374353 
L 123.472536 478.228188 
L 128.32682 480.789694 
L 133.181105 474.812847 
L 138.035389 476.520518 
L 142.889673 476.0936 
L 147.743958 482.924282 
L 152.598242 477.160894 
L 157.452527 479.082024 
L 162.306811 481.856988 
L 167.161096 474.385929 
L 172.01538 476.307059 
L 176.869665 478.868565 
L 181.723949 478.014729 
L 186.578234 476.733976 
L 191.432518 476.520518 
L 196.286803 480.149318 
L 201.141087 481.003153 
L 205.995372 480.149318 
L 210.849656 478.655106 
L 220.558225 479.082024 
L 225.41251 478.868565 
L 230.266794 478.868565 
L 235.121078 480.149318 
L 239.975363 481.216612 
L 244.829647 483.137741 
L 249.683932 478.441647 
L 254.538216 482.497365 
L 259.392501 478.228188 
L 264.246785 477.801271 
L 269.10107 478.868565 
L 273.955354 482.924282 
L 278.809639 476.733976 
L 283.663923 480.789694 
L 288.518208 477.160894 
L 293.372492 472.678259 
L 298.226777 478.014729 
L 303.081061 482.497365 
L 307.935346 473.745553 
L 312.78963 478.655106 
L 317.643914 481.216612 
L 322.498199 480.789694 
L 327.352483 481.430071 
L 332.206768 479.508941 
L 337.061052 482.283906 
L 341.915337 481.003153 
L 346.769621 476.733976 
L 351.623906 473.318635 
L 356.47819 481.856988 
L 361.332475 479.082024 
L 366.186759 482.710824 
L 371.041044 480.576235 
L 375.895328 481.643529 
L 380.749613 481.216612 
L 385.603897 480.149318 
L 390.458182 482.924282 
L 395.312466 481.003153 
L 400.16675 480.576235 
L 405.021035 483.778118 
L 409.875319 479.082024 
L 414.729604 482.924282 
L 419.583888 481.003153 
L 424.438173 480.362776 
L 429.292457 485.485788 
L 434.146742 484.845412 
L 439.001026 479.295482 
L 443.855311 484.845412 
L 448.709595 482.924282 
L 453.56388 483.3512 
L 458.418164 480.576235 
L 463.272449 484.631953 
L 468.126733 481.643529 
L 472.981018 482.070447 
L 477.835302 484.418494 
L 482.689587 482.283906 
L 487.543871 481.216612 
L 492.398155 482.070447 
L 497.25244 484.845412 
L 502.106724 484.418494 
L 506.961009 483.778118 
L 511.815293 483.564659 
L 516.669578 486.98 
L 521.523862 483.564659 
L 526.378147 483.564659 
L 531.232431 484.845412 
L 536.086716 484.631953 
L 540.941 482.283906 
L 545.795285 483.3512 
L 550.649569 484.205035 
L 555.503854 484.845412 
L 560.358138 483.991576 
L 565.212423 484.205035 
L 570.066707 479.7224 
L 574.920991 483.991576 
L 579.775276 483.137741 
L 584.62956 479.7224 
L 589.483845 482.283906 
L 594.338129 485.058871 
L 599.192414 482.070447 
L 604.046698 483.778118 
L 608.900983 484.205035 
L 613.755267 480.789694 
L 618.609552 482.070447 
L 623.463836 471.184047 
L 628.318121 479.508941 
L 633.172405 479.7224 
L 638.02669 475.666682 
L 642.880974 471.397506 
L 647.735259 476.307059 
L 652.589543 477.160894 
L 657.443827 472.678259 
L 662.298112 474.599388 
L 667.152396 468.409082 
L 672.006681 477.587812 
L 676.860965 478.014729 
L 681.71525 475.453224 
L 686.569534 473.532094 
L 691.423819 480.362776 
L 696.278103 477.374353 
L 701.132388 478.228188 
L 705.986672 478.228188 
L 710.840957 478.441647 
L 715.695241 479.935859 
L 720.549526 480.576235 
L 725.40381 472.251341 
L 735.112379 476.0936 
L 739.966663 474.812847 
L 744.820948 477.801271 
L 749.675232 474.812847 
L 754.529517 474.172471 
L 759.383801 469.903294 
L 764.238086 469.903294 
L 769.09237 474.385929 
L 773.946655 452.399671 
L 778.800939 100.832988 
L 783.655224 33.38 
L 788.509508 386.013976 
L 793.363793 312.584141 
L 798.218077 366.802682 
L 803.072362 368.083435 
L 807.926646 362.960424 
L 812.780931 361.679671 
L 817.635215 350.366353 
L 822.4895 389.215859 
L 827.343784 400.102259 
L 832.198068 402.023388 
L 837.052353 412.269412 
L 841.906637 400.315718 
L 846.760922 398.608047 
L 851.615206 397.967671 
L 856.469491 419.313553 
L 861.323775 404.584894 
L 866.17806 424.863482 
L 871.032344 422.088518 
L 875.886629 405.652188 
L 880.740913 404.157976 
L 885.595198 420.594306 
L 890.449482 395.192706 
L 895.303767 395.833082 
L 900.158051 403.5176 
L 905.012336 380.677506 
L 909.86662 403.090682 
L 914.720904 421.448141 
L 919.575189 427.211529 
L 924.429473 427.211529 
L 929.283758 426.357694 
L 934.138042 416.752047 
L 938.992327 412.696329 
L 943.846611 432.761459 
L 948.700896 429.346118 
L 953.55518 442.794024 
L 958.409465 441.940188 
L 963.263749 448.130494 
L 968.118034 431.053788 
L 972.972318 439.165224 
L 977.826603 437.457553 
L 982.680887 435.536424 
L 987.535172 435.322965 
L 992.389456 421.6616 
L 997.24374 442.794024 
L 1002.098025 443.220941 
L 1006.952309 444.074776 
L 1011.806594 454.961176 
L 1016.660878 436.1768 
L 1021.515163 442.580565 
L 1026.369447 454.961176 
L 1031.223732 421.6616 
L 1036.078016 449.624706 
L 1040.932301 457.522682 
L 1045.786585 453.466965 
L 1050.64087 452.186212 
L 1055.495154 460.511106 
L 1060.349439 464.993741 
L 1065.203723 455.388094 
L 1070.058008 453.253506 
L 1074.912292 442.153647 
L 1079.766577 451.972753 
L 1084.620861 461.151482 
L 1089.475145 458.589976 
L 1094.32943 451.545835 
L 1099.183714 444.074776 
L 1104.037999 450.051624 
L 1108.892283 443.007482 
L 1113.746568 445.568988 
L 1118.600852 458.376518 
L 1118.600852 458.376518 
" style="fill:none;stroke:#ff7f0e;stroke-linecap:square;stroke-width:1.5;"/>
   </g>
   <g id="line2d_13">
    <defs>
     <path d="M 0 3 
C 0.795609 3 1.55874 2.683901 2.12132 2.12132 
C 2.683901 1.55874 3 0.795609 3 0 
C 3 -0.795609 2.683901 -1.55874 2.12132 -2.12132 
C 1.55874 -2.683901 0.795609 -3 0 -3 
C -0.795609 -3 -1.55874 -2.683901 -2.12132 -2.12132 
C -2.683901 -1.55874 -3 -0.795609 -3 0 
C -3 0.795609 -2.683901 1.55874 -2.12132 2.12132 
C -1.55874 2.683901 -0.795609 3 0 3 
z
" id="m51722f8f69" style="stroke:#008000;"/>
    </defs>
    <g clip-path="url(#pe208a3c00f)">
     <use style="fill:#008000;stroke:#008000;" x="104.055398" xlink:href="#m51722f8f69" y="481.03731"/>
     <use style="fill:#008000;stroke:#008000;" x="133.181105" xlink:href="#m51722f8f69" y="475.518614"/>
     <use style="fill:#008000;stroke:#008000;" x="162.306811" xlink:href="#m51722f8f69" y="477.651568"/>
     <use style="fill:#008000;stroke:#008000;" x="191.432518" xlink:href="#m51722f8f69" y="477.399109"/>
     <use style="fill:#008000;stroke:#008000;" x="220.558225" xlink:href="#m51722f8f69" y="478.640674"/>
     <use style="fill:#008000;stroke:#008000;" x="249.683932" xlink:href="#m51722f8f69" y="478.729989"/>
     <use style="fill:#008000;stroke:#008000;" x="278.809639" xlink:href="#m51722f8f69" y="481.060222"/>
     <use style="fill:#008000;stroke:#008000;" x="307.935346" xlink:href="#m51722f8f69" y="479.817974"/>
     <use style="fill:#008000;stroke:#008000;" x="337.061052" xlink:href="#m51722f8f69" y="473.63213"/>
     <use style="fill:#008000;stroke:#008000;" x="366.186759" xlink:href="#m51722f8f69" y="479.617367"/>
     <use style="fill:#008000;stroke:#008000;" x="395.312466" xlink:href="#m51722f8f69" y="482.097504"/>
     <use style="fill:#008000;stroke:#008000;" x="424.438173" xlink:href="#m51722f8f69" y="478.212039"/>
     <use style="fill:#008000;stroke:#008000;" x="453.56388" xlink:href="#m51722f8f69" y="482.341991"/>
     <use style="fill:#008000;stroke:#008000;" x="482.689587" xlink:href="#m51722f8f69" y="479.747064"/>
     <use style="fill:#008000;stroke:#008000;" x="511.815293" xlink:href="#m51722f8f69" y="483.544483"/>
     <use style="fill:#008000;stroke:#008000;" x="540.941" xlink:href="#m51722f8f69" y="484.894131"/>
     <use style="fill:#008000;stroke:#008000;" x="570.066707" xlink:href="#m51722f8f69" y="484.326969"/>
     <use style="fill:#008000;stroke:#008000;" x="599.192414" xlink:href="#m51722f8f69" y="483.235576"/>
     <use style="fill:#008000;stroke:#008000;" x="628.318121" xlink:href="#m51722f8f69" y="475.9966"/>
     <use style="fill:#008000;stroke:#008000;" x="657.443827" xlink:href="#m51722f8f69" y="472.272936"/>
     <use style="fill:#008000;stroke:#008000;" x="686.569534" xlink:href="#m51722f8f69" y="475.157188"/>
     <use style="fill:#008000;stroke:#008000;" x="715.695241" xlink:href="#m51722f8f69" y="478.487665"/>
     <use style="fill:#008000;stroke:#008000;" x="744.820948" xlink:href="#m51722f8f69" y="475.017743"/>
     <use style="fill:#008000;stroke:#008000;" x="773.946655" xlink:href="#m51722f8f69" y="393.054633"/>
     <use style="fill:#008000;stroke:#008000;" x="803.072362" xlink:href="#m51722f8f69" y="333.33612"/>
     <use style="fill:#008000;stroke:#008000;" x="832.198068" xlink:href="#m51722f8f69" y="403.208681"/>
     <use style="fill:#008000;stroke:#008000;" x="861.323775" xlink:href="#m51722f8f69" y="420.985122"/>
     <use style="fill:#008000;stroke:#008000;" x="890.449482" xlink:href="#m51722f8f69" y="418.966754"/>
     <use style="fill:#008000;stroke:#008000;" x="919.575189" xlink:href="#m51722f8f69" y="414.587044"/>
     <use style="fill:#008000;stroke:#008000;" x="948.700896" xlink:href="#m51722f8f69" y="448.061378"/>
     <use style="fill:#008000;stroke:#008000;" x="977.826603" xlink:href="#m51722f8f69" y="429.007494"/>
     <use style="fill:#008000;stroke:#008000;" x="1006.952309" xlink:href="#m51722f8f69" y="447.848489"/>
     <use style="fill:#008000;stroke:#008000;" x="1036.078016" xlink:href="#m51722f8f69" y="430.441319"/>
     <use style="fill:#008000;stroke:#008000;" x="1065.203723" xlink:href="#m51722f8f69" y="444.743741"/>
     <use style="fill:#008000;stroke:#008000;" x="1094.32943" xlink:href="#m51722f8f69" y="440.831949"/>
    </g>
   </g>
   <g id="patch_3">
    <path d="M 53.328125 509.66 
L 53.328125 10.7 
" style="fill:none;stroke:#000000;stroke-linecap:square;stroke-linejoin:miter;stroke-width:0.8;"/>
   </g>
   <g id="patch_4">
    <path d="M 1169.328125 509.66 
L 1169.328125 10.7 
" style="fill:none;stroke:#000000;stroke-linecap:square;stroke-linejoin:miter;stroke-width:0.8;"/>
   </g>
   <g id="patch_5">
    <path d="M 53.328125 509.66 
L 1169.328125 509.66 
" style="fill:none;stroke:#000000;stroke-linecap:square;stroke-linejoin:miter;stroke-width:0.8;"/>
   </g>
   <g id="patch_6">
    <path d="M 53.328125 10.7 
L 1169.328125 10.7 
" style="fill:none;stroke:#000000;stroke-linecap:square;stroke-linejoin:miter;stroke-width:0.8;"/>
   </g>
   <g id="legend_1">
    <g id="patch_7">
     <path d="M 60.328125 62.734375 
L 208.103125 62.734375 
Q 210.103125 62.734375 210.103125 60.734375 
L 210.103125 17.7 
Q 210.103125 15.7 208.103125 15.7 
L 60.328125 15.7 
Q 58.328125 15.7 58.328125 17.7 
L 58.328125 60.734375 
Q 58.328125 62.734375 60.328125 62.734375 
z
" style="fill:#ffffff;opacity:0.8;stroke:#cccccc;stroke-linejoin:miter;"/>
    </g>
    <g id="line2d_14">
     <path d="M 62.328125 23.798437 
L 82.328125 23.798437 
" style="fill:none;stroke:#008000;stroke-dasharray:5.55,2.4;stroke-dashoffset:0;stroke-width:1.5;"/>
    </g>
    <g id="line2d_15"/>
    <g id="text_13">
     <!-- Predicated -->
     <defs>
      <path d="M 19.671875 64.796875 
L 19.671875 37.40625 
L 32.078125 37.40625 
Q 38.96875 37.40625 42.71875 40.96875 
Q 46.484375 44.53125 46.484375 51.125 
Q 46.484375 57.671875 42.71875 61.234375 
Q 38.96875 64.796875 32.078125 64.796875 
z
M 9.8125 72.90625 
L 32.078125 72.90625 
Q 44.34375 72.90625 50.609375 67.359375 
Q 56.890625 61.8125 56.890625 51.125 
Q 56.890625 40.328125 50.609375 34.8125 
Q 44.34375 29.296875 32.078125 29.296875 
L 19.671875 29.296875 
L 19.671875 0 
L 9.8125 0 
z
" id="DejaVuSans-50"/>
      <path d="M 41.109375 46.296875 
Q 39.59375 47.171875 37.8125 47.578125 
Q 36.03125 48 33.890625 48 
Q 26.265625 48 22.1875 43.046875 
Q 18.109375 38.09375 18.109375 28.8125 
L 18.109375 0 
L 9.078125 0 
L 9.078125 54.6875 
L 18.109375 54.6875 
L 18.109375 46.1875 
Q 20.953125 51.171875 25.484375 53.578125 
Q 30.03125 56 36.53125 56 
Q 37.453125 56 38.578125 55.875 
Q 39.703125 55.765625 41.0625 55.515625 
z
" id="DejaVuSans-72"/>
      <path d="M 45.40625 46.390625 
L 45.40625 75.984375 
L 54.390625 75.984375 
L 54.390625 0 
L 45.40625 0 
L 45.40625 8.203125 
Q 42.578125 3.328125 38.25 0.953125 
Q 33.9375 -1.421875 27.875 -1.421875 
Q 17.96875 -1.421875 11.734375 6.484375 
Q 5.515625 14.40625 5.515625 27.296875 
Q 5.515625 40.1875 11.734375 48.09375 
Q 17.96875 56 27.875 56 
Q 33.9375 56 38.25 53.625 
Q 42.578125 51.265625 45.40625 46.390625 
z
M 14.796875 27.296875 
Q 14.796875 17.390625 18.875 11.75 
Q 22.953125 6.109375 30.078125 6.109375 
Q 37.203125 6.109375 41.296875 11.75 
Q 45.40625 17.390625 45.40625 27.296875 
Q 45.40625 37.203125 41.296875 42.84375 
Q 37.203125 48.484375 30.078125 48.484375 
Q 22.953125 48.484375 18.875 42.84375 
Q 14.796875 37.203125 14.796875 27.296875 
z
" id="DejaVuSans-64"/>
      <path d="M 48.78125 52.59375 
L 48.78125 44.1875 
Q 44.96875 46.296875 41.140625 47.34375 
Q 37.3125 48.390625 33.40625 48.390625 
Q 24.65625 48.390625 19.8125 42.84375 
Q 14.984375 37.3125 14.984375 27.296875 
Q 14.984375 17.28125 19.8125 11.734375 
Q 24.65625 6.203125 33.40625 6.203125 
Q 37.3125 6.203125 41.140625 7.25 
Q 44.96875 8.296875 48.78125 10.40625 
L 48.78125 2.09375 
Q 45.015625 0.34375 40.984375 -0.53125 
Q 36.96875 -1.421875 32.421875 -1.421875 
Q 20.0625 -1.421875 12.78125 6.34375 
Q 5.515625 14.109375 5.515625 27.296875 
Q 5.515625 40.671875 12.859375 48.328125 
Q 20.21875 56 33.015625 56 
Q 37.15625 56 41.109375 55.140625 
Q 45.0625 54.296875 48.78125 52.59375 
z
" id="DejaVuSans-63"/>
      <path d="M 34.28125 27.484375 
Q 23.390625 27.484375 19.1875 25 
Q 14.984375 22.515625 14.984375 16.5 
Q 14.984375 11.71875 18.140625 8.90625 
Q 21.296875 6.109375 26.703125 6.109375 
Q 34.1875 6.109375 38.703125 11.40625 
Q 43.21875 16.703125 43.21875 25.484375 
L 43.21875 27.484375 
z
M 52.203125 31.203125 
L 52.203125 0 
L 43.21875 0 
L 43.21875 8.296875 
Q 40.140625 3.328125 35.546875 0.953125 
Q 30.953125 -1.421875 24.3125 -1.421875 
Q 15.921875 -1.421875 10.953125 3.296875 
Q 6 8.015625 6 15.921875 
Q 6 25.140625 12.171875 29.828125 
Q 18.359375 34.515625 30.609375 34.515625 
L 43.21875 34.515625 
L 43.21875 35.40625 
Q 43.21875 41.609375 39.140625 45 
Q 35.0625 48.390625 27.6875 48.390625 
Q 23 48.390625 18.546875 47.265625 
Q 14.109375 46.140625 10.015625 43.890625 
L 10.015625 52.203125 
Q 14.9375 54.109375 19.578125 55.046875 
Q 24.21875 56 28.609375 56 
Q 40.484375 56 46.34375 49.84375 
Q 52.203125 43.703125 52.203125 31.203125 
z
" id="DejaVuSans-61"/>
      <path d="M 18.3125 70.21875 
L 18.3125 54.6875 
L 36.8125 54.6875 
L 36.8125 47.703125 
L 18.3125 47.703125 
L 18.3125 18.015625 
Q 18.3125 11.328125 20.140625 9.421875 
Q 21.96875 7.515625 27.59375 7.515625 
L 36.8125 7.515625 
L 36.8125 0 
L 27.59375 0 
Q 17.1875 0 13.234375 3.875 
Q 9.28125 7.765625 9.28125 18.015625 
L 9.28125 47.703125 
L 2.6875 47.703125 
L 2.6875 54.6875 
L 9.28125 54.6875 
L 9.28125 70.21875 
z
" id="DejaVuSans-74"/>
     </defs>
     <g transform="translate(90.328125 27.298437)scale(0.1 -0.1)">
      <use xlink:href="#DejaVuSans-50"/>
      <use x="60.287109" xlink:href="#DejaVuSans-72"/>
      <use x="101.369141" xlink:href="#DejaVuSans-65"/>
      <use x="162.892578" xlink:href="#DejaVuSans-64"/>
      <use x="226.369141" xlink:href="#DejaVuSans-69"/>
      <use x="254.152344" xlink:href="#DejaVuSans-63"/>
      <use x="309.132812" xlink:href="#DejaVuSans-61"/>
      <use x="370.412109" xlink:href="#DejaVuSans-74"/>
      <use x="409.621094" xlink:href="#DejaVuSans-65"/>
      <use x="471.144531" xlink:href="#DejaVuSans-64"/>
     </g>
    </g>
    <g id="line2d_16">
     <path d="M 62.328125 38.476562 
L 82.328125 38.476562 
" style="fill:none;stroke:#ff7f0e;stroke-linecap:square;stroke-width:1.5;"/>
    </g>
    <g id="line2d_17"/>
    <g id="text_14">
     <!-- Real Data -->
     <defs>
      <path d="M 9.421875 75.984375 
L 18.40625 75.984375 
L 18.40625 0 
L 9.421875 0 
z
" id="DejaVuSans-6c"/>
      <path id="DejaVuSans-20"/>
      <path d="M 19.671875 64.796875 
L 19.671875 8.109375 
L 31.59375 8.109375 
Q 46.6875 8.109375 53.6875 14.9375 
Q 60.6875 21.78125 60.6875 36.53125 
Q 60.6875 51.171875 53.6875 57.984375 
Q 46.6875 64.796875 31.59375 64.796875 
z
M 9.8125 72.90625 
L 30.078125 72.90625 
Q 51.265625 72.90625 61.171875 64.09375 
Q 71.09375 55.28125 71.09375 36.53125 
Q 71.09375 17.671875 61.125 8.828125 
Q 51.171875 0 30.078125 0 
L 9.8125 0 
z
" id="DejaVuSans-44"/>
     </defs>
     <g transform="translate(90.328125 41.976562)scale(0.1 -0.1)">
      <use xlink:href="#DejaVuSans-52"/>
      <use x="69.419922" xlink:href="#DejaVuSans-65"/>
      <use x="130.943359" xlink:href="#DejaVuSans-61"/>
      <use x="192.222656" xlink:href="#DejaVuSans-6c"/>
      <use x="220.005859" xlink:href="#DejaVuSans-20"/>
      <use x="251.792969" xlink:href="#DejaVuSans-44"/>
      <use x="328.794922" xlink:href="#DejaVuSans-61"/>
      <use x="390.074219" xlink:href="#DejaVuSans-74"/>
      <use x="429.283203" xlink:href="#DejaVuSans-61"/>
     </g>
    </g>
    <g id="line2d_18"/>
    <g id="line2d_19">
     <g>
      <use style="fill:#008000;stroke:#008000;" x="72.328125" xlink:href="#m51722f8f69" y="53.154688"/>
     </g>
    </g>
    <g id="text_15">
     <!-- Start Point for Forecast -->
     <defs>
      <path d="M 53.515625 70.515625 
L 53.515625 60.890625 
Q 47.90625 63.578125 42.921875 64.890625 
Q 37.9375 66.21875 33.296875 66.21875 
Q 25.25 66.21875 20.875 63.09375 
Q 16.5 59.96875 16.5 54.203125 
Q 16.5 49.359375 19.40625 46.890625 
Q 22.3125 44.4375 30.421875 42.921875 
L 36.375 41.703125 
Q 47.40625 39.59375 52.65625 34.296875 
Q 57.90625 29 57.90625 20.125 
Q 57.90625 9.515625 50.796875 4.046875 
Q 43.703125 -1.421875 29.984375 -1.421875 
Q 24.8125 -1.421875 18.96875 -0.25 
Q 13.140625 0.921875 6.890625 3.21875 
L 6.890625 13.375 
Q 12.890625 10.015625 18.65625 8.296875 
Q 24.421875 6.59375 29.984375 6.59375 
Q 38.421875 6.59375 43.015625 9.90625 
Q 47.609375 13.234375 47.609375 19.390625 
Q 47.609375 24.75 44.3125 27.78125 
Q 41.015625 30.8125 33.5 32.328125 
L 27.484375 33.5 
Q 16.453125 35.6875 11.515625 40.375 
Q 6.59375 45.0625 6.59375 53.421875 
Q 6.59375 63.09375 13.40625 68.65625 
Q 20.21875 74.21875 32.171875 74.21875 
Q 37.3125 74.21875 42.625 73.28125 
Q 47.953125 72.359375 53.515625 70.515625 
z
" id="DejaVuSans-53"/>
      <path d="M 30.609375 48.390625 
Q 23.390625 48.390625 19.1875 42.75 
Q 14.984375 37.109375 14.984375 27.296875 
Q 14.984375 17.484375 19.15625 11.84375 
Q 23.34375 6.203125 30.609375 6.203125 
Q 37.796875 6.203125 41.984375 11.859375 
Q 46.1875 17.53125 46.1875 27.296875 
Q 46.1875 37.015625 41.984375 42.703125 
Q 37.796875 48.390625 30.609375 48.390625 
z
M 30.609375 56 
Q 42.328125 56 49.015625 48.375 
Q 55.71875 40.765625 55.71875 27.296875 
Q 55.71875 13.875 49.015625 6.21875 
Q 42.328125 -1.421875 30.609375 -1.421875 
Q 18.84375 -1.421875 12.171875 6.21875 
Q 5.515625 13.875 5.515625 27.296875 
Q 5.515625 40.765625 12.171875 48.375 
Q 18.84375 56 30.609375 56 
z
" id="DejaVuSans-6f"/>
      <path d="M 54.890625 33.015625 
L 54.890625 0 
L 45.90625 0 
L 45.90625 32.71875 
Q 45.90625 40.484375 42.875 44.328125 
Q 39.84375 48.1875 33.796875 48.1875 
Q 26.515625 48.1875 22.3125 43.546875 
Q 18.109375 38.921875 18.109375 30.90625 
L 18.109375 0 
L 9.078125 0 
L 9.078125 54.6875 
L 18.109375 54.6875 
L 18.109375 46.1875 
Q 21.34375 51.125 25.703125 53.5625 
Q 30.078125 56 35.796875 56 
Q 45.21875 56 50.046875 50.171875 
Q 54.890625 44.34375 54.890625 33.015625 
z
" id="DejaVuSans-6e"/>
      <path d="M 9.8125 72.90625 
L 51.703125 72.90625 
L 51.703125 64.59375 
L 19.671875 64.59375 
L 19.671875 43.109375 
L 48.578125 43.109375 
L 48.578125 34.8125 
L 19.671875 34.8125 
L 19.671875 0 
L 9.8125 0 
z
" id="DejaVuSans-46"/>
     </defs>
     <g transform="translate(90.328125 56.654688)scale(0.1 -0.1)">
      <use xlink:href="#DejaVuSans-53"/>
      <use x="63.476562" xlink:href="#DejaVuSans-74"/>
      <use x="102.685547" xlink:href="#DejaVuSans-61"/>
      <use x="163.964844" xlink:href="#DejaVuSans-72"/>
      <use x="205.078125" xlink:href="#DejaVuSans-74"/>
      <use x="244.287109" xlink:href="#DejaVuSans-20"/>
      <use x="276.074219" xlink:href="#DejaVuSans-50"/>
      <use x="336.330078" xlink:href="#DejaVuSans-6f"/>
      <use x="397.511719" xlink:href="#DejaVuSans-69"/>
      <use x="425.294922" xlink:href="#DejaVuSans-6e"/>
      <use x="488.673828" xlink:href="#DejaVuSans-74"/>
      <use x="527.882812" xlink:href="#DejaVuSans-20"/>
      <use x="559.669922" xlink:href="#DejaVuSans-66"/>
      <use x="594.875" xlink:href="#DejaVuSans-6f"/>
      <use x="656.056641" xlink:href="#DejaVuSans-72"/>
      <use x="697.169922" xlink:href="#DejaVuSans-20"/>
      <use x="728.957031" xlink:href="#DejaVuSans-46"/>
      <use x="786.429688" xlink:href="#DejaVuSans-6f"/>
      <use x="847.611328" xlink:href="#DejaVuSans-72"/>
      <use x="888.693359" xlink:href="#DejaVuSans-65"/>
      <use x="950.216797" xlink:href="#DejaVuSans-63"/>
      <use x="1005.197266" xlink:href="#DejaVuSans-61"/>
      <use x="1066.476562" xlink:href="#DejaVuSans-73"/>
      <use x="1118.576172" xlink:href="#DejaVuSans-74"/>
     </g>
    </g>
   </g>
  </g>
  <g id="axes_2">
   <g id="patch_8">
    <path d="M 53.328125 645.74 
L 1170.768125 645.74 
L 1170.768125 516.14 
L 53.328125 516.14 
z
" style="fill:none;"/>
   </g>
   <g id="matplotlib.axis_3">
    <g id="xtick_6">
     <g id="line2d_20">
      <g>
       <use style="stroke:#000000;stroke-width:0.8;" x="104.120852" xlink:href="#mcdd5afeb86" y="645.74"/>
      </g>
     </g>
     <g id="text_16">
      <!-- 0 -->
      <g transform="translate(100.939602 660.338437)scale(0.1 -0.1)">
       <use xlink:href="#DejaVuSans-30"/>
      </g>
     </g>
    </g>
    <g id="xtick_7">
     <g id="line2d_21">
      <g>
       <use style="stroke:#000000;stroke-width:0.8;" x="228.612831" xlink:href="#mcdd5afeb86" y="645.74"/>
      </g>
     </g>
     <g id="text_17">
      <!-- 25 -->
      <g transform="translate(222.250331 660.338437)scale(0.1 -0.1)">
       <use xlink:href="#DejaVuSans-32"/>
       <use x="63.623047" xlink:href="#DejaVuSans-35"/>
      </g>
     </g>
    </g>
    <g id="xtick_8">
     <g id="line2d_22">
      <g>
       <use style="stroke:#000000;stroke-width:0.8;" x="353.104809" xlink:href="#mcdd5afeb86" y="645.74"/>
      </g>
     </g>
     <g id="text_18">
      <!-- 50 -->
      <g transform="translate(346.742309 660.338437)scale(0.1 -0.1)">
       <use xlink:href="#DejaVuSans-35"/>
       <use x="63.623047" xlink:href="#DejaVuSans-30"/>
      </g>
     </g>
    </g>
    <g id="xtick_9">
     <g id="line2d_23">
      <g>
       <use style="stroke:#000000;stroke-width:0.8;" x="477.596788" xlink:href="#mcdd5afeb86" y="645.74"/>
      </g>
     </g>
     <g id="text_19">
      <!-- 75 -->
      <defs>
       <path d="M 8.203125 72.90625 
L 55.078125 72.90625 
L 55.078125 68.703125 
L 28.609375 0 
L 18.3125 0 
L 43.21875 64.59375 
L 8.203125 64.59375 
z
" id="DejaVuSans-37"/>
      </defs>
      <g transform="translate(471.234288 660.338437)scale(0.1 -0.1)">
       <use xlink:href="#DejaVuSans-37"/>
       <use x="63.623047" xlink:href="#DejaVuSans-35"/>
      </g>
     </g>
    </g>
    <g id="xtick_10">
     <g id="line2d_24">
      <g>
       <use style="stroke:#000000;stroke-width:0.8;" x="602.088767" xlink:href="#mcdd5afeb86" y="645.74"/>
      </g>
     </g>
     <g id="text_20">
      <!-- 100 -->
      <g transform="translate(592.545017 660.338437)scale(0.1 -0.1)">
       <use xlink:href="#DejaVuSans-31"/>
       <use x="63.623047" xlink:href="#DejaVuSans-30"/>
       <use x="127.246094" xlink:href="#DejaVuSans-30"/>
      </g>
     </g>
    </g>
    <g id="xtick_11">
     <g id="line2d_25">
      <g>
       <use style="stroke:#000000;stroke-width:0.8;" x="726.580745" xlink:href="#mcdd5afeb86" y="645.74"/>
      </g>
     </g>
     <g id="text_21">
      <!-- 125 -->
      <g transform="translate(717.036995 660.338437)scale(0.1 -0.1)">
       <use xlink:href="#DejaVuSans-31"/>
       <use x="63.623047" xlink:href="#DejaVuSans-32"/>
       <use x="127.246094" xlink:href="#DejaVuSans-35"/>
      </g>
     </g>
    </g>
    <g id="xtick_12">
     <g id="line2d_26">
      <g>
       <use style="stroke:#000000;stroke-width:0.8;" x="851.072724" xlink:href="#mcdd5afeb86" y="645.74"/>
      </g>
     </g>
     <g id="text_22">
      <!-- 150 -->
      <g transform="translate(841.528974 660.338437)scale(0.1 -0.1)">
       <use xlink:href="#DejaVuSans-31"/>
       <use x="63.623047" xlink:href="#DejaVuSans-35"/>
       <use x="127.246094" xlink:href="#DejaVuSans-30"/>
      </g>
     </g>
    </g>
    <g id="xtick_13">
     <g id="line2d_27">
      <g>
       <use style="stroke:#000000;stroke-width:0.8;" x="975.564703" xlink:href="#mcdd5afeb86" y="645.74"/>
      </g>
     </g>
     <g id="text_23">
      <!-- 175 -->
      <g transform="translate(966.020953 660.338437)scale(0.1 -0.1)">
       <use xlink:href="#DejaVuSans-31"/>
       <use x="63.623047" xlink:href="#DejaVuSans-37"/>
       <use x="127.246094" xlink:href="#DejaVuSans-35"/>
      </g>
     </g>
    </g>
    <g id="xtick_14">
     <g id="line2d_28">
      <g>
       <use style="stroke:#000000;stroke-width:0.8;" x="1100.056681" xlink:href="#mcdd5afeb86" y="645.74"/>
      </g>
     </g>
     <g id="text_24">
      <!-- 200 -->
      <g transform="translate(1090.512931 660.338437)scale(0.1 -0.1)">
       <use xlink:href="#DejaVuSans-32"/>
       <use x="63.623047" xlink:href="#DejaVuSans-30"/>
       <use x="127.246094" xlink:href="#DejaVuSans-30"/>
      </g>
     </g>
    </g>
   </g>
   <g id="matplotlib.axis_4">
    <g id="ytick_6">
     <g id="line2d_29">
      <g>
       <use style="stroke:#000000;stroke-width:0.8;" x="53.328125" xlink:href="#mf5df17a306" y="638.885701"/>
      </g>
     </g>
     <g id="text_25">
      <!-- 0 -->
      <g transform="translate(39.965625 642.684919)scale(0.1 -0.1)">
       <use xlink:href="#DejaVuSans-30"/>
      </g>
     </g>
    </g>
    <g id="ytick_7">
     <g id="line2d_30">
      <g>
       <use style="stroke:#000000;stroke-width:0.8;" x="53.328125" xlink:href="#mf5df17a306" y="607.872624"/>
      </g>
     </g>
     <g id="text_26">
      <!-- 10 -->
      <g transform="translate(33.603125 611.671843)scale(0.1 -0.1)">
       <use xlink:href="#DejaVuSans-31"/>
       <use x="63.623047" xlink:href="#DejaVuSans-30"/>
      </g>
     </g>
    </g>
    <g id="ytick_8">
     <g id="line2d_31">
      <g>
       <use style="stroke:#000000;stroke-width:0.8;" x="53.328125" xlink:href="#mf5df17a306" y="576.859547"/>
      </g>
     </g>
     <g id="text_27">
      <!-- 20 -->
      <g transform="translate(33.603125 580.658766)scale(0.1 -0.1)">
       <use xlink:href="#DejaVuSans-32"/>
       <use x="63.623047" xlink:href="#DejaVuSans-30"/>
      </g>
     </g>
    </g>
    <g id="ytick_9">
     <g id="line2d_32">
      <g>
       <use style="stroke:#000000;stroke-width:0.8;" x="53.328125" xlink:href="#mf5df17a306" y="545.846471"/>
      </g>
     </g>
     <g id="text_28">
      <!-- 30 -->
      <defs>
       <path d="M 40.578125 39.3125 
Q 47.65625 37.796875 51.625 33 
Q 55.609375 28.21875 55.609375 21.1875 
Q 55.609375 10.40625 48.1875 4.484375 
Q 40.765625 -1.421875 27.09375 -1.421875 
Q 22.515625 -1.421875 17.65625 -0.515625 
Q 12.796875 0.390625 7.625 2.203125 
L 7.625 11.71875 
Q 11.71875 9.328125 16.59375 8.109375 
Q 21.484375 6.890625 26.8125 6.890625 
Q 36.078125 6.890625 40.9375 10.546875 
Q 45.796875 14.203125 45.796875 21.1875 
Q 45.796875 27.640625 41.28125 31.265625 
Q 36.765625 34.90625 28.71875 34.90625 
L 20.21875 34.90625 
L 20.21875 43.015625 
L 29.109375 43.015625 
Q 36.375 43.015625 40.234375 45.921875 
Q 44.09375 48.828125 44.09375 54.296875 
Q 44.09375 59.90625 40.109375 62.90625 
Q 36.140625 65.921875 28.71875 65.921875 
Q 24.65625 65.921875 20.015625 65.03125 
Q 15.375 64.15625 9.8125 62.3125 
L 9.8125 71.09375 
Q 15.4375 72.65625 20.34375 73.4375 
Q 25.25 74.21875 29.59375 74.21875 
Q 40.828125 74.21875 47.359375 69.109375 
Q 53.90625 64.015625 53.90625 55.328125 
Q 53.90625 49.265625 50.4375 45.09375 
Q 46.96875 40.921875 40.578125 39.3125 
z
" id="DejaVuSans-33"/>
      </defs>
      <g transform="translate(33.603125 549.64569)scale(0.1 -0.1)">
       <use xlink:href="#DejaVuSans-33"/>
       <use x="63.623047" xlink:href="#DejaVuSans-30"/>
      </g>
     </g>
    </g>
    <g id="text_29">
     <!-- Temperature -->
     <defs>
      <path d="M 18.109375 8.203125 
L 18.109375 -20.796875 
L 9.078125 -20.796875 
L 9.078125 54.6875 
L 18.109375 54.6875 
L 18.109375 46.390625 
Q 20.953125 51.265625 25.265625 53.625 
Q 29.59375 56 35.59375 56 
Q 45.5625 56 51.78125 48.09375 
Q 58.015625 40.1875 58.015625 27.296875 
Q 58.015625 14.40625 51.78125 6.484375 
Q 45.5625 -1.421875 35.59375 -1.421875 
Q 29.59375 -1.421875 25.265625 0.953125 
Q 20.953125 3.328125 18.109375 8.203125 
z
M 48.6875 27.296875 
Q 48.6875 37.203125 44.609375 42.84375 
Q 40.53125 48.484375 33.40625 48.484375 
Q 26.265625 48.484375 22.1875 42.84375 
Q 18.109375 37.203125 18.109375 27.296875 
Q 18.109375 17.390625 22.1875 11.75 
Q 26.265625 6.109375 33.40625 6.109375 
Q 40.53125 6.109375 44.609375 11.75 
Q 48.6875 17.390625 48.6875 27.296875 
z
" id="DejaVuSans-70"/>
     </defs>
     <g style="fill:#0000ff;" transform="translate(27.523437 613.557187)rotate(-90)scale(0.1 -0.1)">
      <use xlink:href="#DejaVuSans-54"/>
      <use x="60.818359" xlink:href="#DejaVuSans-65"/>
      <use x="122.341797" xlink:href="#DejaVuSans-6d"/>
      <use x="219.753906" xlink:href="#DejaVuSans-70"/>
      <use x="283.230469" xlink:href="#DejaVuSans-65"/>
      <use x="344.753906" xlink:href="#DejaVuSans-72"/>
      <use x="385.867188" xlink:href="#DejaVuSans-61"/>
      <use x="447.146484" xlink:href="#DejaVuSans-74"/>
      <use x="486.355469" xlink:href="#DejaVuSans-75"/>
      <use x="549.734375" xlink:href="#DejaVuSans-72"/>
      <use x="590.816406" xlink:href="#DejaVuSans-65"/>
     </g>
    </g>
   </g>
   <g id="line2d_33">
    <path clip-path="url(#p92ae8f7cfc)" d="M 104.120852 533.515361 
L 109.100531 524.596931 
L 114.080211 537.704918 
L 119.05989 548.298985 
L 124.039569 573.776848 
L 129.019248 588.411298 
L 133.998927 593.100475 
L 138.978606 584.463334 
L 143.958285 574.46937 
L 148.937965 561.317654 
L 153.917644 549.99478 
L 158.897323 543.029243 
L 163.877002 530.730697 
L 168.856681 528.634834 
L 173.83636 540.250781 
L 178.816039 559.988434 
L 183.795719 568.806382 
L 188.775398 579.425569 
L 193.755077 583.872224 
L 198.734756 583.33973 
L 203.714435 562.570583 
L 208.694114 566.829608 
L 213.673793 553.680994 
L 218.653473 537.442547 
L 223.633152 527.305923 
L 228.612831 530.317293 
L 233.59251 541.587135 
L 238.572189 546.642577 
L 243.551868 571.627331 
L 248.531547 589.318431 
L 253.511227 589.301994 
L 258.490906 581.01623 
L 263.470585 571.536463 
L 268.450264 564.921374 
L 273.429943 553.247742 
L 278.409622 535.996097 
L 283.389301 530.566638 
L 288.368981 531.719084 
L 298.328339 553.554771 
L 303.308018 571.705174 
L 308.287697 583.162955 
L 313.267376 589.737107 
L 318.247055 593.358504 
L 328.206414 567.810242 
L 333.186093 552.588714 
L 338.165772 533.524045 
L 343.145451 522.030909 
L 348.12513 525.148964 
L 353.104809 542.772765 
L 358.084489 551.771829 
L 368.043847 590.279526 
L 373.023526 588.769189 
L 378.003205 581.002584 
L 382.982884 577.846384 
L 392.942243 560.043017 
L 397.921922 542.02659 
L 402.901601 532.947202 
L 407.88128 527.705682 
L 412.860959 543.643612 
L 417.840638 546.209324 
L 422.820318 576.20083 
L 427.799997 586.993691 
L 432.779676 595.202542 
L 437.759355 592.892998 
L 442.739034 577.099899 
L 447.718713 568.869338 
L 452.698392 548.611287 
L 457.678072 539.454366 
L 462.657751 527.509679 
L 467.63743 532.098684 
L 472.617109 544.217354 
L 477.596788 553.965694 
L 487.556146 589.872634 
L 492.535826 596.380729 
L 497.515505 589.345102 
L 502.495184 574.130397 
L 507.474863 560.350977 
L 512.454542 547.530481 
L 517.434221 537.328109 
L 522.4139 529.85861 
L 527.39358 531.190621 
L 532.373259 544.32683 
L 537.352938 551.195916 
L 542.332617 570.060551 
L 547.312296 585.329529 
L 552.291975 582.48749 
L 557.271654 581.195486 
L 562.251334 578.565267 
L 567.231013 569.554417 
L 572.210692 552.062732 
L 577.190371 536.328558 
L 582.17005 531.7563 
L 587.149729 528.43604 
L 592.129408 540.405227 
L 597.109088 558.037091 
L 602.088767 574.652347 
L 607.068446 589.096687 
L 612.048125 587.529907 
L 617.027804 583.852996 
L 622.007483 574.455724 
L 626.987162 562.454904 
L 631.966842 550.11418 
L 636.946521 542.575832 
L 641.9262 527.520224 
L 646.905879 528.853476 
L 651.885558 540.551918 
L 656.865237 556.579476 
L 661.844916 574.09163 
L 666.824596 588.954647 
L 671.804275 590.435212 
L 676.783954 589.979009 
L 681.763633 578.270642 
L 686.743312 572.341562 
L 691.722991 554.438023 
L 696.70267 537.806951 
L 701.68235 526.424222 
L 706.662029 527.32174 
L 711.641708 546.144196 
L 716.621387 560.255146 
L 721.601066 569.257932 
L 726.580745 577.940353 
L 731.560424 585.777978 
L 736.540104 578.12271 
L 741.519783 572.892665 
L 746.499462 566.277265 
L 751.479141 555.926031 
L 756.45882 541.804226 
L 761.438499 530.114157 
L 766.418178 529.941104 
L 771.397858 543.999022 
L 776.377537 557.20439 
L 781.357216 573.053623 
L 786.336895 582.300482 
L 791.316574 585.915056 
L 796.296253 589.321222 
L 801.275932 580.466368 
L 806.255612 564.287156 
L 811.235291 557.303632 
L 816.21497 544.613081 
L 821.194649 530.510815 
L 826.174328 531.378871 
L 831.154007 539.973835 
L 836.133686 560.510694 
L 841.113366 573.008654 
L 846.093045 585.057234 
L 851.072724 590.613537 
L 856.052403 595.481349 
L 861.032082 579.844556 
L 866.011761 565.541015 
L 870.991441 552.91156 
L 875.97112 533.620496 
L 880.950799 525.146483 
L 885.930478 525.768915 
L 890.910157 537.907744 
L 895.889836 550.972002 
L 900.869515 565.878747 
L 905.849195 583.384389 
L 910.828874 586.888866 
L 915.808553 589.085212 
L 920.788232 570.08164 
L 925.767911 562.497702 
L 930.74759 553.827686 
L 935.727269 544.038409 
L 940.706949 532.119463 
L 945.686628 532.150166 
L 950.666307 542.567458 
L 955.645986 545.431516 
L 960.625665 573.442837 
L 965.605344 586.99214 
L 970.585023 584.856579 
L 975.564703 580.385114 
L 980.544382 581.077946 
L 985.524061 562.198426 
L 990.50374 554.117658 
L 995.483419 539.092443 
L 1000.463098 532.098374 
L 1005.442777 529.263159 
L 1010.422457 534.287277 
L 1020.381815 564.802904 
L 1025.361494 585.202375 
L 1035.320852 591.438485 
L 1040.300531 580.454893 
L 1045.280211 565.295702 
L 1050.25989 548.055222 
L 1055.239569 540.470044 
L 1060.219248 528.253373 
L 1065.198927 529.151822 
L 1070.178606 539.065152 
L 1075.158285 553.059182 
L 1080.137965 573.514477 
L 1085.117644 581.835285 
L 1090.097323 582.078428 
L 1095.077002 577.626191 
L 1100.056681 573.02385 
L 1105.03636 559.936332 
L 1110.016039 551.920072 
L 1114.995719 538.679039 
L 1119.975398 531.365535 
L 1119.975398 531.365535 
" style="fill:none;stroke:#ff0000;stroke-linecap:square;stroke-width:1.5;"/>
   </g>
   <g id="line2d_34">
    <path clip-path="url(#p92ae8f7cfc)" d="M 104.120852 549.466007 
L 109.100531 543.040098 
L 114.080211 552.909389 
L 119.05989 564.004627 
L 124.039569 586.300238 
L 129.019248 600.407156 
L 133.998927 607.064113 
L 138.978606 598.776489 
L 143.958285 589.390071 
L 148.937965 578.064716 
L 153.917644 565.347804 
L 158.897323 557.809765 
L 163.877002 548.54802 
L 168.856681 547.189027 
L 173.83636 556.204528 
L 178.816039 573.156586 
L 188.775398 594.776732 
L 193.755077 599.252539 
L 198.734756 598.704849 
L 203.714435 581.272398 
L 208.694114 582.341109 
L 213.673793 569.11093 
L 218.653473 555.239401 
L 223.633152 545.693576 
L 228.612831 547.631584 
L 233.59251 556.407044 
L 238.572189 562.335814 
L 243.551868 585.884353 
L 248.531547 601.705054 
L 253.511227 604.457774 
L 258.490906 596.919426 
L 263.470585 587.257922 
L 268.450264 580.865507 
L 273.429943 569.172956 
L 278.409622 554.083544 
L 283.389301 547.402087 
L 288.368981 547.90822 
L 293.34866 557.811316 
L 298.328339 569.876333 
L 303.308018 585.111817 
L 308.287697 596.790411 
L 313.267376 601.516804 
L 318.247055 605.540751 
L 323.226735 595.233555 
L 328.206414 582.822432 
L 333.186093 568.213412 
L 338.165772 551.319659 
L 343.145451 540.079589 
L 348.12513 542.354088 
L 353.104809 556.904183 
L 358.084489 565.725543 
L 363.064168 584.285319 
L 368.043847 602.379588 
L 373.023526 602.52597 
L 378.003205 597.026421 
L 382.982884 592.291654 
L 387.962564 584.1225 
L 392.942243 575.367508 
L 397.921922 558.734265 
L 402.901601 550.494091 
L 407.88128 545.261564 
L 412.860959 559.405388 
L 417.840638 563.812346 
L 422.820318 590.499099 
L 427.799997 598.865186 
L 432.779676 608.402948 
L 437.759355 606.957118 
L 442.739034 592.476182 
L 447.718713 583.69638 
L 452.698392 566.522269 
L 457.678072 556.2312 
L 462.657751 545.349331 
L 467.63743 549.175725 
L 472.617109 559.094017 
L 477.596788 568.652557 
L 482.576467 586.405372 
L 487.556146 603.481172 
L 492.535826 608.554261 
L 497.515505 603.122661 
L 502.495184 591.186038 
L 507.474863 577.171539 
L 512.454542 564.820581 
L 517.434221 555.621482 
L 522.4139 547.198951 
L 527.39358 547.938613 
L 532.373259 560.021618 
L 537.352938 567.293254 
L 542.332617 585.348757 
L 547.312296 598.619873 
L 552.291975 598.136379 
L 557.271654 595.6482 
L 562.251334 593.511709 
L 567.231013 583.517745 
L 577.190371 554.481752 
L 582.17005 550.055566 
L 587.149729 547.134444 
L 592.129408 556.609869 
L 597.109088 571.318131 
L 602.088767 589.532421 
L 607.068446 601.731415 
L 612.048125 602.274764 
L 617.027804 599.883035 
L 622.007483 590.987555 
L 626.987162 579.75989 
L 631.966842 567.052592 
L 636.946521 559.24443 
L 641.9262 545.871902 
L 646.905879 547.565216 
L 651.885558 556.666933 
L 656.865237 570.919923 
L 661.844916 588.920533 
L 666.824596 603.118319 
L 671.804275 602.697782 
L 676.783954 603.472799 
L 681.763633 594.009779 
L 686.743312 586.54276 
L 691.722991 570.290978 
L 696.70267 555.389815 
L 701.68235 544.225417 
L 706.662029 544.717595 
L 711.641708 560.188468 
L 716.621387 574.191493 
L 721.601066 586.717364 
L 731.560424 599.421251 
L 741.519783 588.773841 
L 746.499462 580.717264 
L 751.479141 571.831087 
L 756.45882 558.483369 
L 761.438499 547.034272 
L 766.418178 546.775002 
L 776.377537 572.315822 
L 781.357216 586.481975 
L 786.336895 597.349577 
L 791.316574 600.640375 
L 796.296253 602.55078 
L 801.275932 594.410778 
L 806.255612 579.524501 
L 811.235291 571.594768 
L 821.194649 547.379447 
L 826.174328 548.596711 
L 831.154007 554.868175 
L 836.133686 574.225297 
L 841.113366 585.458233 
L 846.093045 598.285862 
L 851.072724 603.388133 
L 856.052403 609.351824 
L 861.032082 594.039862 
L 866.011761 580.934356 
L 870.991441 569.421991 
L 875.97112 550.980065 
L 880.950799 542.80843 
L 885.930478 543.391786 
L 890.910157 554.723964 
L 895.889836 565.684916 
L 900.869515 580.381392 
L 905.849195 597.362603 
L 910.828874 601.033 
L 915.808553 603.382861 
L 920.788232 586.724807 
L 925.767911 579.185528 
L 930.74759 569.981467 
L 935.727269 560.470067 
L 940.706949 548.853809 
L 945.686628 548.517317 
L 950.666307 556.891778 
L 955.645986 562.574924 
L 960.625665 587.540451 
L 965.605344 600.052677 
L 970.585023 599.992822 
L 975.564703 596.05261 
L 980.544382 594.768049 
L 985.524061 579.918057 
L 990.50374 570.546526 
L 995.483419 556.713143 
L 1000.463098 549.658598 
L 1005.442777 546.582101 
L 1010.422457 551.374552 
L 1015.402136 566.297424 
L 1020.381815 580.656789 
L 1025.361494 598.404022 
L 1030.341173 603.219112 
L 1035.320852 604.788374 
L 1040.300531 594.231522 
L 1045.280211 581.975775 
L 1050.25989 565.969616 
L 1055.239569 557.926064 
L 1060.219248 547.555602 
L 1065.198927 548.133995 
L 1070.178606 556.911937 
L 1075.158285 569.11093 
L 1080.137965 587.690864 
L 1085.117644 600.319389 
L 1090.097323 599.945992 
L 1095.077002 595.473286 
L 1100.056681 592.457574 
L 1105.03636 578.791662 
L 1110.016039 571.100419 
L 1114.995719 558.120206 
L 1119.975398 551.373621 
L 1119.975398 551.373621 
" style="fill:none;stroke:#008000;stroke-linecap:square;stroke-width:1.5;"/>
   </g>
   <g id="line2d_35">
    <path clip-path="url(#p92ae8f7cfc)" d="M 104.120852 569.415789 
L 109.100531 561.580025 
L 114.080211 570.417821 
L 119.05989 582.331805 
L 124.039569 601.134413 
L 129.019248 614.386983 
L 133.998927 623.483676 
L 138.978606 617.147457 
L 143.958285 608.724708 
L 148.937965 598.016048 
L 153.917644 583.854547 
L 158.897323 578.437803 
L 163.877002 570.811687 
L 168.856681 570.009379 
L 173.83636 575.552346 
L 178.816039 588.104579 
L 183.795719 601.160774 
L 188.775398 611.73307 
L 193.755077 617.076995 
L 198.734756 616.991957 
L 203.714435 601.954399 
L 208.694114 603.348747 
L 213.673793 588.089072 
L 218.653473 578.843764 
L 223.633152 567.935535 
L 228.612831 569.218546 
L 233.59251 573.605345 
L 238.572189 580.713853 
L 243.551868 601.209775 
L 248.531547 615.438729 
L 253.511227 622.374494 
L 258.490906 615.636438 
L 263.470585 606.109221 
L 268.450264 600.551367 
L 273.429943 590.02863 
L 278.409622 578.520608 
L 283.389301 568.750868 
L 288.368981 566.424888 
L 293.34866 575.696867 
L 298.328339 589.128941 
L 303.308018 600.542994 
L 308.287697 612.296919 
L 313.267376 614.510973 
L 318.247055 619.216649 
L 323.226735 612.720247 
L 333.186093 588.41595 
L 338.165772 574.527674 
L 343.145451 563.025855 
L 348.12513 564.631712 
L 353.104809 572.5723 
L 358.084489 581.322949 
L 363.064168 599.82194 
L 368.043847 616.174422 
L 373.023526 617.54858 
L 378.003205 615.585452 
L 382.982884 608.416252 
L 387.962564 602.749574 
L 392.942243 594.3441 
L 397.921922 579.832151 
L 402.901601 571.875436 
L 407.88128 566.609416 
L 412.860959 579.253447 
L 417.840638 584.330598 
L 422.820318 605.212943 
L 427.799997 611.870055 
L 432.779676 623.307832 
L 437.759355 621.91885 
L 442.739034 610.562109 
L 447.718713 601.982 
L 452.698392 589.990794 
L 457.678072 577.351725 
L 462.657751 566.275095 
L 467.63743 568.072612 
L 472.617109 576.795661 
L 477.596788 584.855649 
L 482.576467 602.78865 
L 487.556146 616.573405 
L 492.535826 621.891186 
L 497.515505 618.731853 
L 502.495184 610.821254 
L 507.474863 597.838653 
L 512.454542 585.940486 
L 517.434221 579.267713 
L 522.4139 568.49377 
L 527.39358 567.209829 
L 532.373259 579.069539 
L 537.352938 586.056165 
L 542.332617 601.693579 
L 547.312296 612.855402 
L 552.291975 615.35149 
L 557.271654 611.767587 
L 562.251334 610.515372 
L 567.231013 598.916668 
L 572.210692 589.576149 
L 577.190371 576.602759 
L 582.17005 572.958413 
L 587.149729 567.66448 
L 592.129408 574.256 
L 597.109088 587.01602 
L 602.088767 605.974624 
L 607.068446 616.007509 
L 612.048125 618.435988 
L 617.027804 618.447091 
L 626.987162 600.726591 
L 631.966842 587.053236 
L 636.946521 579.979153 
L 641.9262 567.557175 
L 646.905879 570.093735 
L 651.885558 574.728639 
L 656.865237 586.861265 
L 661.844916 605.431585 
L 666.824596 619.509754 
L 671.804275 616.556596 
L 676.783954 619.582728 
L 686.743312 604.078174 
L 691.722991 591.466086 
L 696.70267 579.227396 
L 701.68235 568.345528 
L 706.662029 567.230607 
L 711.641708 576.452966 
L 716.621387 590.52515 
L 721.601066 605.937718 
L 726.580745 610.136858 
L 731.560424 614.604571 
L 736.540104 612.317325 
L 741.519783 606.96084 
L 746.499462 598.001782 
L 751.479141 591.196893 
L 756.45882 579.418747 
L 761.438499 569.386016 
L 766.418178 568.370338 
L 771.397858 577.545247 
L 786.336895 613.829802 
L 791.316574 616.729525 
L 796.296253 617.878218 
L 801.275932 610.687619 
L 806.255612 598.643443 
L 811.235291 590.483592 
L 816.21497 579.114818 
L 821.194649 568.513308 
L 831.154007 572.555863 
L 836.133686 590.367913 
L 841.113366 599.881485 
L 846.093045 612.911226 
L 851.072724 617.704545 
L 856.052403 624.342553 
L 861.032082 611.022343 
L 866.011761 599.726729 
L 870.991441 591.109746 
L 875.97112 574.070852 
L 880.950799 565.421615 
L 885.930478 565.703524 
L 895.889836 583.635595 
L 900.869515 596.528041 
L 905.849195 613.626542 
L 910.828874 617.070358 
L 915.808553 620.114013 
L 920.788232 606.419351 
L 925.767911 599.192994 
L 930.74759 590.038554 
L 935.727269 582.409958 
L 940.706949 569.961929 
L 945.686628 568.397009 
L 950.666307 572.879019 
L 955.645986 580.877912 
L 960.625665 602.831138 
L 965.605344 613.497311 
L 970.585023 616.542919 
L 975.564703 613.572579 
L 980.544382 610.314656 
L 985.524061 601.022146 
L 990.50374 590.604543 
L 995.483419 577.738458 
L 1000.463098 570.861618 
L 1005.442777 566.817513 
L 1010.422457 569.545423 
L 1015.402136 585.102203 
L 1020.381815 597.829039 
L 1025.361494 611.938997 
L 1030.341173 619.004985 
L 1035.320852 619.023903 
L 1040.300531 609.426782 
L 1045.280211 601.994716 
L 1050.25989 587.626357 
L 1060.219248 568.756761 
L 1065.198927 566.245632 
L 1070.178606 573.421438 
L 1075.158285 584.007441 
L 1080.137965 600.602539 
L 1085.117644 616.62439 
L 1090.097323 616.623522 
L 1095.077002 612.227759 
L 1100.056681 611.221664 
L 1105.03636 596.398096 
L 1110.016039 589.302614 
L 1114.995719 577.780326 
L 1119.975398 571.503279 
L 1119.975398 571.503279 
" style="fill:none;stroke:#0000ff;stroke-linecap:square;stroke-width:1.5;"/>
   </g>
   <g id="line2d_36">
    <defs>
     <path d="M 0 3 
C 0.795609 3 1.55874 2.683901 2.12132 2.12132 
C 2.683901 1.55874 3 0.795609 3 0 
C 3 -0.795609 2.683901 -1.55874 2.12132 -2.12132 
C 1.55874 -2.683901 0.795609 -3 0 -3 
C -0.795609 -3 -1.55874 -2.683901 -2.12132 -2.12132 
C -2.683901 -1.55874 -3 -0.795609 -3 0 
C -3 0.795609 -2.683901 1.55874 -2.12132 2.12132 
C -1.55874 2.683901 -0.795609 3 0 3 
z
" id="mbc949bff2d" style="stroke:#ff0000;"/>
    </defs>
    <g clip-path="url(#p92ae8f7cfc)">
     <use style="fill:#ff0000;stroke:#ff0000;" x="313.267376" xlink:href="#mbc949bff2d" y="639.849091"/>
     <use style="fill:#ff0000;stroke:#ff0000;" x="353.104809" xlink:href="#mbc949bff2d" y="639.849091"/>
     <use style="fill:#ff0000;stroke:#ff0000;" x="567.231013" xlink:href="#mbc949bff2d" y="639.849091"/>
     <use style="fill:#ff0000;stroke:#ff0000;" x="597.109088" xlink:href="#mbc949bff2d" y="639.849091"/>
     <use style="fill:#ff0000;stroke:#ff0000;" x="711.641708" xlink:href="#mbc949bff2d" y="639.849091"/>
    </g>
   </g>
   <g id="patch_9">
    <path d="M 53.328125 645.74 
L 53.328125 516.14 
" style="fill:none;stroke:#000000;stroke-linecap:square;stroke-linejoin:miter;stroke-width:0.8;"/>
   </g>
   <g id="patch_10">
    <path d="M 1170.768125 645.74 
L 1170.768125 516.14 
" style="fill:none;stroke:#000000;stroke-linecap:square;stroke-linejoin:miter;stroke-width:0.8;"/>
   </g>
   <g id="patch_11">
    <path d="M 53.328125 645.74 
L 1170.768125 645.74 
" style="fill:none;stroke:#000000;stroke-linecap:square;stroke-linejoin:miter;stroke-width:0.8;"/>
   </g>
   <g id="patch_12">
    <path d="M 53.328125 516.14 
L 1170.768125 516.14 
" style="fill:none;stroke:#000000;stroke-linecap:square;stroke-linejoin:miter;stroke-width:0.8;"/>
   </g>
   <g id="legend_2">
    <g id="patch_13">
     <path d="M 60.328125 582.8525 
L 151.340625 582.8525 
Q 153.340625 582.8525 153.340625 580.8525 
L 153.340625 523.14 
Q 153.340625 521.14 151.340625 521.14 
L 60.328125 521.14 
Q 58.328125 521.14 58.328125 523.14 
L 58.328125 580.8525 
Q 58.328125 582.8525 60.328125 582.8525 
z
" style="fill:#ffffff;opacity:0.8;stroke:#cccccc;stroke-linejoin:miter;"/>
    </g>
    <g id="line2d_37">
     <path d="M 62.328125 529.238437 
L 82.328125 529.238437 
" style="fill:none;stroke:#ff0000;stroke-linecap:square;stroke-width:1.5;"/>
    </g>
    <g id="line2d_38"/>
    <g id="text_30">
     <!-- Maxmimum -->
     <defs>
      <path d="M 9.8125 72.90625 
L 24.515625 72.90625 
L 43.109375 23.296875 
L 61.8125 72.90625 
L 76.515625 72.90625 
L 76.515625 0 
L 66.890625 0 
L 66.890625 64.015625 
L 48.09375 14.015625 
L 38.1875 14.015625 
L 19.390625 64.015625 
L 19.390625 0 
L 9.8125 0 
z
" id="DejaVuSans-4d"/>
      <path d="M 54.890625 54.6875 
L 35.109375 28.078125 
L 55.90625 0 
L 45.3125 0 
L 29.390625 21.484375 
L 13.484375 0 
L 2.875 0 
L 24.125 28.609375 
L 4.6875 54.6875 
L 15.28125 54.6875 
L 29.78125 35.203125 
L 44.28125 54.6875 
z
" id="DejaVuSans-78"/>
     </defs>
     <g transform="translate(90.328125 532.738437)scale(0.1 -0.1)">
      <use xlink:href="#DejaVuSans-4d"/>
      <use x="86.279297" xlink:href="#DejaVuSans-61"/>
      <use x="147.558594" xlink:href="#DejaVuSans-78"/>
      <use x="206.738281" xlink:href="#DejaVuSans-6d"/>
      <use x="304.150391" xlink:href="#DejaVuSans-69"/>
      <use x="331.933594" xlink:href="#DejaVuSans-6d"/>
      <use x="429.345703" xlink:href="#DejaVuSans-75"/>
      <use x="492.724609" xlink:href="#DejaVuSans-6d"/>
     </g>
    </g>
    <g id="line2d_39">
     <path d="M 62.328125 543.916562 
L 82.328125 543.916562 
" style="fill:none;stroke:#008000;stroke-linecap:square;stroke-width:1.5;"/>
    </g>
    <g id="line2d_40"/>
    <g id="text_31">
     <!-- Average -->
     <defs>
      <path d="M 34.1875 63.1875 
L 20.796875 26.90625 
L 47.609375 26.90625 
z
M 28.609375 72.90625 
L 39.796875 72.90625 
L 67.578125 0 
L 57.328125 0 
L 50.6875 18.703125 
L 17.828125 18.703125 
L 11.1875 0 
L 0.78125 0 
z
" id="DejaVuSans-41"/>
      <path d="M 2.984375 54.6875 
L 12.5 54.6875 
L 29.59375 8.796875 
L 46.6875 54.6875 
L 56.203125 54.6875 
L 35.6875 0 
L 23.484375 0 
z
" id="DejaVuSans-76"/>
     </defs>
     <g transform="translate(90.328125 547.416562)scale(0.1 -0.1)">
      <use xlink:href="#DejaVuSans-41"/>
      <use x="68.330078" xlink:href="#DejaVuSans-76"/>
      <use x="127.509766" xlink:href="#DejaVuSans-65"/>
      <use x="189.033203" xlink:href="#DejaVuSans-72"/>
      <use x="230.146484" xlink:href="#DejaVuSans-61"/>
      <use x="291.425781" xlink:href="#DejaVuSans-67"/>
      <use x="354.902344" xlink:href="#DejaVuSans-65"/>
     </g>
    </g>
    <g id="line2d_41">
     <path d="M 62.328125 558.594687 
L 82.328125 558.594687 
" style="fill:none;stroke:#0000ff;stroke-linecap:square;stroke-width:1.5;"/>
    </g>
    <g id="line2d_42"/>
    <g id="text_32">
     <!-- Minimum -->
     <g transform="translate(90.328125 562.094687)scale(0.1 -0.1)">
      <use xlink:href="#DejaVuSans-4d"/>
      <use x="86.279297" xlink:href="#DejaVuSans-69"/>
      <use x="114.0625" xlink:href="#DejaVuSans-6e"/>
      <use x="177.441406" xlink:href="#DejaVuSans-69"/>
      <use x="205.224609" xlink:href="#DejaVuSans-6d"/>
      <use x="302.636719" xlink:href="#DejaVuSans-75"/>
      <use x="366.015625" xlink:href="#DejaVuSans-6d"/>
     </g>
    </g>
    <g id="line2d_43"/>
    <g id="line2d_44">
     <g>
      <use style="fill:#ff0000;stroke:#ff0000;" x="72.328125" xlink:href="#mbc949bff2d" y="573.272812"/>
     </g>
    </g>
    <g id="text_33">
     <!-- Disasters -->
     <g transform="translate(90.328125 576.772812)scale(0.1 -0.1)">
      <use xlink:href="#DejaVuSans-44"/>
      <use x="77.001953" xlink:href="#DejaVuSans-69"/>
      <use x="104.785156" xlink:href="#DejaVuSans-73"/>
      <use x="156.884766" xlink:href="#DejaVuSans-61"/>
      <use x="218.164062" xlink:href="#DejaVuSans-73"/>
      <use x="270.263672" xlink:href="#DejaVuSans-74"/>
      <use x="309.472656" xlink:href="#DejaVuSans-65"/>
      <use x="370.996094" xlink:href="#DejaVuSans-72"/>
      <use x="412.109375" xlink:href="#DejaVuSans-73"/>
     </g>
    </g>
   </g>
  </g>
 </g>
 <defs>
  <clipPath id="pe208a3c00f">
   <rect height="498.96" width="1116" x="53.328125" y="10.7"/>
  </clipPath>
  <clipPath id="p92ae8f7cfc">
   <rect height="129.6" width="1117.44" x="53.328125" y="516.14"/>
  </clipPath>
 </defs>
</svg>
