<?xml version="1.0" encoding="utf-8" standalone="no"?>
<!DOCTYPE svg PUBLIC "-//W3C//DTD SVG 1.1//EN"
  "http://www.w3.org/Graphics/SVG/1.1/DTD/svg11.dtd">
<!-- Created with matplotlib (http://matplotlib.org/) -->
<svg height="669pt" version="1.1" viewBox="0 0 1181 669" width="1181pt" xmlns="http://www.w3.org/2000/svg" xmlns:xlink="http://www.w3.org/1999/xlink">
 <defs>
  <style type="text/css">
*{stroke-linecap:butt;stroke-linejoin:round;}
  </style>
 </defs>
 <g id="figure_1">
  <g id="patch_1">
   <path d="M 0 669.618125 
L 1181.468125 669.618125 
L 1181.468125 -0 
L 0 -0 
z
" style="fill:none;"/>
  </g>
  <g id="axes_1">
   <g id="patch_2">
    <path d="M 53.328125 509.66 
L 1169.328125 509.66 
L 1169.328125 10.7 
L 53.328125 10.7 
z
" style="fill:none;"/>
   </g>
   <g id="matplotlib.axis_1">
    <g id="xtick_1">
     <g id="line2d_1">
      <defs>
       <path d="M 0 0 
L 0 3.5 
" id="m4f7af6e8d7" style="stroke:#000000;stroke-width:0.8;"/>
      </defs>
      <g>
       <use style="stroke:#000000;stroke-width:0.8;" x="104.055398" xlink:href="#m4f7af6e8d7" y="509.66"/>
      </g>
     </g>
     <g id="text_1">
      <!-- 0 -->
      <defs>
       <path d="M 31.78125 66.40625 
Q 24.171875 66.40625 20.328125 58.90625 
Q 16.5 51.421875 16.5 36.375 
Q 16.5 21.390625 20.328125 13.890625 
Q 24.171875 6.390625 31.78125 6.390625 
Q 39.453125 6.390625 43.28125 13.890625 
Q 47.125 21.390625 47.125 36.375 
Q 47.125 51.421875 43.28125 58.90625 
Q 39.453125 66.40625 31.78125 66.40625 
z
M 31.78125 74.21875 
Q 44.046875 74.21875 50.515625 64.515625 
Q 56.984375 54.828125 56.984375 36.375 
Q 56.984375 17.96875 50.515625 8.265625 
Q 44.046875 -1.421875 31.78125 -1.421875 
Q 19.53125 -1.421875 13.0625 8.265625 
Q 6.59375 17.96875 6.59375 36.375 
Q 6.59375 54.828125 13.0625 64.515625 
Q 19.53125 74.21875 31.78125 74.21875 
z
" id="DejaVuSans-30"/>
      </defs>
      <g transform="translate(100.874148 524.258437)scale(0.1 -0.1)">
       <use xlink:href="#DejaVuSans-30"/>
      </g>
     </g>
    </g>
    <g id="xtick_2">
     <g id="line2d_2">
      <g>
       <use style="stroke:#000000;stroke-width:0.8;" x="346.769621" xlink:href="#m4f7af6e8d7" y="509.66"/>
      </g>
     </g>
     <g id="text_2">
      <!-- 50 -->
      <defs>
       <path d="M 10.796875 72.90625 
L 49.515625 72.90625 
L 49.515625 64.59375 
L 19.828125 64.59375 
L 19.828125 46.734375 
Q 21.96875 47.46875 24.109375 47.828125 
Q 26.265625 48.1875 28.421875 48.1875 
Q 40.625 48.1875 47.75 41.5 
Q 54.890625 34.8125 54.890625 23.390625 
Q 54.890625 11.625 47.5625 5.09375 
Q 40.234375 -1.421875 26.90625 -1.421875 
Q 22.3125 -1.421875 17.546875 -0.640625 
Q 12.796875 0.140625 7.71875 1.703125 
L 7.71875 11.625 
Q 12.109375 9.234375 16.796875 8.0625 
Q 21.484375 6.890625 26.703125 6.890625 
Q 35.15625 6.890625 40.078125 11.328125 
Q 45.015625 15.765625 45.015625 23.390625 
Q 45.015625 31 40.078125 35.4375 
Q 35.15625 39.890625 26.703125 39.890625 
Q 22.75 39.890625 18.8125 39.015625 
Q 14.890625 38.140625 10.796875 36.28125 
z
" id="DejaVuSans-35"/>
      </defs>
      <g transform="translate(340.407121 524.258437)scale(0.1 -0.1)">
       <use xlink:href="#DejaVuSans-35"/>
       <use x="63.623047" xlink:href="#DejaVuSans-30"/>
      </g>
     </g>
    </g>
    <g id="xtick_3">
     <g id="line2d_3">
      <g>
       <use style="stroke:#000000;stroke-width:0.8;" x="589.483845" xlink:href="#m4f7af6e8d7" y="509.66"/>
      </g>
     </g>
     <g id="text_3">
      <!-- 100 -->
      <defs>
       <path d="M 12.40625 8.296875 
L 28.515625 8.296875 
L 28.515625 63.921875 
L 10.984375 60.40625 
L 10.984375 69.390625 
L 28.421875 72.90625 
L 38.28125 72.90625 
L 38.28125 8.296875 
L 54.390625 8.296875 
L 54.390625 0 
L 12.40625 0 
z
" id="DejaVuSans-31"/>
      </defs>
      <g transform="translate(579.940095 524.258437)scale(0.1 -0.1)">
       <use xlink:href="#DejaVuSans-31"/>
       <use x="63.623047" xlink:href="#DejaVuSans-30"/>
       <use x="127.246094" xlink:href="#DejaVuSans-30"/>
      </g>
     </g>
    </g>
    <g id="xtick_4">
     <g id="line2d_4">
      <g>
       <use style="stroke:#000000;stroke-width:0.8;" x="832.198068" xlink:href="#m4f7af6e8d7" y="509.66"/>
      </g>
     </g>
     <g id="text_4">
      <!-- 150 -->
      <g transform="translate(822.654318 524.258437)scale(0.1 -0.1)">
       <use xlink:href="#DejaVuSans-31"/>
       <use x="63.623047" xlink:href="#DejaVuSans-35"/>
       <use x="127.246094" xlink:href="#DejaVuSans-30"/>
      </g>
     </g>
    </g>
    <g id="xtick_5">
     <g id="line2d_5">
      <g>
       <use style="stroke:#000000;stroke-width:0.8;" x="1074.912292" xlink:href="#m4f7af6e8d7" y="509.66"/>
      </g>
     </g>
     <g id="text_5">
      <!-- 200 -->
      <defs>
       <path d="M 19.1875 8.296875 
L 53.609375 8.296875 
L 53.609375 0 
L 7.328125 0 
L 7.328125 8.296875 
Q 12.9375 14.109375 22.625 23.890625 
Q 32.328125 33.6875 34.8125 36.53125 
Q 39.546875 41.84375 41.421875 45.53125 
Q 43.3125 49.21875 43.3125 52.78125 
Q 43.3125 58.59375 39.234375 62.25 
Q 35.15625 65.921875 28.609375 65.921875 
Q 23.96875 65.921875 18.8125 64.3125 
Q 13.671875 62.703125 7.8125 59.421875 
L 7.8125 69.390625 
Q 13.765625 71.78125 18.9375 73 
Q 24.125 74.21875 28.421875 74.21875 
Q 39.75 74.21875 46.484375 68.546875 
Q 53.21875 62.890625 53.21875 53.421875 
Q 53.21875 48.921875 51.53125 44.890625 
Q 49.859375 40.875 45.40625 35.40625 
Q 44.1875 33.984375 37.640625 27.21875 
Q 31.109375 20.453125 19.1875 8.296875 
z
" id="DejaVuSans-32"/>
      </defs>
      <g transform="translate(1065.368542 524.258437)scale(0.1 -0.1)">
       <use xlink:href="#DejaVuSans-32"/>
       <use x="63.623047" xlink:href="#DejaVuSans-30"/>
       <use x="127.246094" xlink:href="#DejaVuSans-30"/>
      </g>
     </g>
    </g>
    <g id="text_6">
     <!-- Time -->
     <defs>
      <path d="M -0.296875 72.90625 
L 61.375 72.90625 
L 61.375 64.59375 
L 35.5 64.59375 
L 35.5 0 
L 25.59375 0 
L 25.59375 64.59375 
L -0.296875 64.59375 
z
" id="DejaVuSans-54"/>
      <path d="M 9.421875 54.6875 
L 18.40625 54.6875 
L 18.40625 0 
L 9.421875 0 
z
M 9.421875 75.984375 
L 18.40625 75.984375 
L 18.40625 64.59375 
L 9.421875 64.59375 
z
" id="DejaVuSans-69"/>
      <path d="M 52 44.1875 
Q 55.375 50.25 60.0625 53.125 
Q 64.75 56 71.09375 56 
Q 79.640625 56 84.28125 50.015625 
Q 88.921875 44.046875 88.921875 33.015625 
L 88.921875 0 
L 79.890625 0 
L 79.890625 32.71875 
Q 79.890625 40.578125 77.09375 44.375 
Q 74.3125 48.1875 68.609375 48.1875 
Q 61.625 48.1875 57.5625 43.546875 
Q 53.515625 38.921875 53.515625 30.90625 
L 53.515625 0 
L 44.484375 0 
L 44.484375 32.71875 
Q 44.484375 40.625 41.703125 44.40625 
Q 38.921875 48.1875 33.109375 48.1875 
Q 26.21875 48.1875 22.15625 43.53125 
Q 18.109375 38.875 18.109375 30.90625 
L 18.109375 0 
L 9.078125 0 
L 9.078125 54.6875 
L 18.109375 54.6875 
L 18.109375 46.1875 
Q 21.1875 51.21875 25.484375 53.609375 
Q 29.78125 56 35.6875 56 
Q 41.65625 56 45.828125 52.96875 
Q 50 49.953125 52 44.1875 
z
" id="DejaVuSans-6d"/>
      <path d="M 56.203125 29.59375 
L 56.203125 25.203125 
L 14.890625 25.203125 
Q 15.484375 15.921875 20.484375 11.0625 
Q 25.484375 6.203125 34.421875 6.203125 
Q 39.59375 6.203125 44.453125 7.46875 
Q 49.3125 8.734375 54.109375 11.28125 
L 54.109375 2.78125 
Q 49.265625 0.734375 44.1875 -0.34375 
Q 39.109375 -1.421875 33.890625 -1.421875 
Q 20.796875 -1.421875 13.15625 6.1875 
Q 5.515625 13.8125 5.515625 26.8125 
Q 5.515625 40.234375 12.765625 48.109375 
Q 20.015625 56 32.328125 56 
Q 43.359375 56 49.78125 48.890625 
Q 56.203125 41.796875 56.203125 29.59375 
z
M 47.21875 32.234375 
Q 47.125 39.59375 43.09375 43.984375 
Q 39.0625 48.390625 32.421875 48.390625 
Q 24.90625 48.390625 20.390625 44.140625 
Q 15.875 39.890625 15.1875 32.171875 
z
" id="DejaVuSans-65"/>
     </defs>
     <g transform="translate(598.940625 537.936562)scale(0.1 -0.1)">
      <use xlink:href="#DejaVuSans-54"/>
      <use x="61.037109" xlink:href="#DejaVuSans-69"/>
      <use x="88.820312" xlink:href="#DejaVuSans-6d"/>
      <use x="186.232422" xlink:href="#DejaVuSans-65"/>
     </g>
    </g>
   </g>
   <g id="matplotlib.axis_2">
    <g id="ytick_1">
     <g id="line2d_6">
      <defs>
       <path d="M 0 0 
L -3.5 0 
" id="m03f2384eca" style="stroke:#000000;stroke-width:0.8;"/>
      </defs>
      <g>
       <use style="stroke:#000000;stroke-width:0.8;" x="53.328125" xlink:href="#m03f2384eca" y="467.026416"/>
      </g>
     </g>
     <g id="text_7">
      <!-- 500 -->
      <g transform="translate(27.240625 470.825635)scale(0.1 -0.1)">
       <use xlink:href="#DejaVuSans-35"/>
       <use x="63.623047" xlink:href="#DejaVuSans-30"/>
       <use x="127.246094" xlink:href="#DejaVuSans-30"/>
      </g>
     </g>
    </g>
    <g id="ytick_2">
     <g id="line2d_7">
      <g>
       <use style="stroke:#000000;stroke-width:0.8;" x="53.328125" xlink:href="#m03f2384eca" y="381.01959"/>
      </g>
     </g>
     <g id="text_8">
      <!-- 1000 -->
      <g transform="translate(20.878125 384.818809)scale(0.1 -0.1)">
       <use xlink:href="#DejaVuSans-31"/>
       <use x="63.623047" xlink:href="#DejaVuSans-30"/>
       <use x="127.246094" xlink:href="#DejaVuSans-30"/>
       <use x="190.869141" xlink:href="#DejaVuSans-30"/>
      </g>
     </g>
    </g>
    <g id="ytick_3">
     <g id="line2d_8">
      <g>
       <use style="stroke:#000000;stroke-width:0.8;" x="53.328125" xlink:href="#m03f2384eca" y="295.012765"/>
      </g>
     </g>
     <g id="text_9">
      <!-- 1500 -->
      <g transform="translate(20.878125 298.811983)scale(0.1 -0.1)">
       <use xlink:href="#DejaVuSans-31"/>
       <use x="63.623047" xlink:href="#DejaVuSans-35"/>
       <use x="127.246094" xlink:href="#DejaVuSans-30"/>
       <use x="190.869141" xlink:href="#DejaVuSans-30"/>
      </g>
     </g>
    </g>
    <g id="ytick_4">
     <g id="line2d_9">
      <g>
       <use style="stroke:#000000;stroke-width:0.8;" x="53.328125" xlink:href="#m03f2384eca" y="209.005939"/>
      </g>
     </g>
     <g id="text_10">
      <!-- 2000 -->
      <g transform="translate(20.878125 212.805157)scale(0.1 -0.1)">
       <use xlink:href="#DejaVuSans-32"/>
       <use x="63.623047" xlink:href="#DejaVuSans-30"/>
       <use x="127.246094" xlink:href="#DejaVuSans-30"/>
       <use x="190.869141" xlink:href="#DejaVuSans-30"/>
      </g>
     </g>
    </g>
    <g id="ytick_5">
     <g id="line2d_10">
      <g>
       <use style="stroke:#000000;stroke-width:0.8;" x="53.328125" xlink:href="#m03f2384eca" y="122.999113"/>
      </g>
     </g>
     <g id="text_11">
      <!-- 2500 -->
      <g transform="translate(20.878125 126.798331)scale(0.1 -0.1)">
       <use xlink:href="#DejaVuSans-32"/>
       <use x="63.623047" xlink:href="#DejaVuSans-35"/>
       <use x="127.246094" xlink:href="#DejaVuSans-30"/>
       <use x="190.869141" xlink:href="#DejaVuSans-30"/>
      </g>
     </g>
    </g>
    <g id="ytick_6">
     <g id="line2d_11">
      <g>
       <use style="stroke:#000000;stroke-width:0.8;" x="53.328125" xlink:href="#m03f2384eca" y="36.992287"/>
      </g>
     </g>
     <g id="text_12">
      <!-- 3000 -->
      <defs>
       <path d="M 40.578125 39.3125 
Q 47.65625 37.796875 51.625 33 
Q 55.609375 28.21875 55.609375 21.1875 
Q 55.609375 10.40625 48.1875 4.484375 
Q 40.765625 -1.421875 27.09375 -1.421875 
Q 22.515625 -1.421875 17.65625 -0.515625 
Q 12.796875 0.390625 7.625 2.203125 
L 7.625 11.71875 
Q 11.71875 9.328125 16.59375 8.109375 
Q 21.484375 6.890625 26.8125 6.890625 
Q 36.078125 6.890625 40.9375 10.546875 
Q 45.796875 14.203125 45.796875 21.1875 
Q 45.796875 27.640625 41.28125 31.265625 
Q 36.765625 34.90625 28.71875 34.90625 
L 20.21875 34.90625 
L 20.21875 43.015625 
L 29.109375 43.015625 
Q 36.375 43.015625 40.234375 45.921875 
Q 44.09375 48.828125 44.09375 54.296875 
Q 44.09375 59.90625 40.109375 62.90625 
Q 36.140625 65.921875 28.71875 65.921875 
Q 24.65625 65.921875 20.015625 65.03125 
Q 15.375 64.15625 9.8125 62.3125 
L 9.8125 71.09375 
Q 15.4375 72.65625 20.34375 73.4375 
Q 25.25 74.21875 29.59375 74.21875 
Q 40.828125 74.21875 47.359375 69.109375 
Q 53.90625 64.015625 53.90625 55.328125 
Q 53.90625 49.265625 50.4375 45.09375 
Q 46.96875 40.921875 40.578125 39.3125 
z
" id="DejaVuSans-33"/>
      </defs>
      <g transform="translate(20.878125 40.791505)scale(0.1 -0.1)">
       <use xlink:href="#DejaVuSans-33"/>
       <use x="63.623047" xlink:href="#DejaVuSans-30"/>
       <use x="127.246094" xlink:href="#DejaVuSans-30"/>
       <use x="190.869141" xlink:href="#DejaVuSans-30"/>
      </g>
     </g>
    </g>
    <g id="text_13">
     <!-- Refugees -->
     <defs>
      <path d="M 44.390625 34.1875 
Q 47.5625 33.109375 50.5625 29.59375 
Q 53.5625 26.078125 56.59375 19.921875 
L 66.609375 0 
L 56 0 
L 46.6875 18.703125 
Q 43.0625 26.03125 39.671875 28.421875 
Q 36.28125 30.8125 30.421875 30.8125 
L 19.671875 30.8125 
L 19.671875 0 
L 9.8125 0 
L 9.8125 72.90625 
L 32.078125 72.90625 
Q 44.578125 72.90625 50.734375 67.671875 
Q 56.890625 62.453125 56.890625 51.90625 
Q 56.890625 45.015625 53.6875 40.46875 
Q 50.484375 35.9375 44.390625 34.1875 
z
M 19.671875 64.796875 
L 19.671875 38.921875 
L 32.078125 38.921875 
Q 39.203125 38.921875 42.84375 42.21875 
Q 46.484375 45.515625 46.484375 51.90625 
Q 46.484375 58.296875 42.84375 61.546875 
Q 39.203125 64.796875 32.078125 64.796875 
z
" id="DejaVuSans-52"/>
      <path d="M 37.109375 75.984375 
L 37.109375 68.5 
L 28.515625 68.5 
Q 23.6875 68.5 21.796875 66.546875 
Q 19.921875 64.59375 19.921875 59.515625 
L 19.921875 54.6875 
L 34.71875 54.6875 
L 34.71875 47.703125 
L 19.921875 47.703125 
L 19.921875 0 
L 10.890625 0 
L 10.890625 47.703125 
L 2.296875 47.703125 
L 2.296875 54.6875 
L 10.890625 54.6875 
L 10.890625 58.5 
Q 10.890625 67.625 15.140625 71.796875 
Q 19.390625 75.984375 28.609375 75.984375 
z
" id="DejaVuSans-66"/>
      <path d="M 8.5 21.578125 
L 8.5 54.6875 
L 17.484375 54.6875 
L 17.484375 21.921875 
Q 17.484375 14.15625 20.5 10.265625 
Q 23.53125 6.390625 29.59375 6.390625 
Q 36.859375 6.390625 41.078125 11.03125 
Q 45.3125 15.671875 45.3125 23.6875 
L 45.3125 54.6875 
L 54.296875 54.6875 
L 54.296875 0 
L 45.3125 0 
L 45.3125 8.40625 
Q 42.046875 3.421875 37.71875 1 
Q 33.40625 -1.421875 27.6875 -1.421875 
Q 18.265625 -1.421875 13.375 4.4375 
Q 8.5 10.296875 8.5 21.578125 
z
M 31.109375 56 
z
" id="DejaVuSans-75"/>
      <path d="M 45.40625 27.984375 
Q 45.40625 37.75 41.375 43.109375 
Q 37.359375 48.484375 30.078125 48.484375 
Q 22.859375 48.484375 18.828125 43.109375 
Q 14.796875 37.75 14.796875 27.984375 
Q 14.796875 18.265625 18.828125 12.890625 
Q 22.859375 7.515625 30.078125 7.515625 
Q 37.359375 7.515625 41.375 12.890625 
Q 45.40625 18.265625 45.40625 27.984375 
z
M 54.390625 6.78125 
Q 54.390625 -7.171875 48.1875 -13.984375 
Q 42 -20.796875 29.203125 -20.796875 
Q 24.46875 -20.796875 20.265625 -20.09375 
Q 16.0625 -19.390625 12.109375 -17.921875 
L 12.109375 -9.1875 
Q 16.0625 -11.328125 19.921875 -12.34375 
Q 23.78125 -13.375 27.78125 -13.375 
Q 36.625 -13.375 41.015625 -8.765625 
Q 45.40625 -4.15625 45.40625 5.171875 
L 45.40625 9.625 
Q 42.625 4.78125 38.28125 2.390625 
Q 33.9375 0 27.875 0 
Q 17.828125 0 11.671875 7.65625 
Q 5.515625 15.328125 5.515625 27.984375 
Q 5.515625 40.671875 11.671875 48.328125 
Q 17.828125 56 27.875 56 
Q 33.9375 56 38.28125 53.609375 
Q 42.625 51.21875 45.40625 46.390625 
L 45.40625 54.6875 
L 54.390625 54.6875 
z
" id="DejaVuSans-67"/>
      <path d="M 44.28125 53.078125 
L 44.28125 44.578125 
Q 40.484375 46.53125 36.375 47.5 
Q 32.28125 48.484375 27.875 48.484375 
Q 21.1875 48.484375 17.84375 46.4375 
Q 14.5 44.390625 14.5 40.28125 
Q 14.5 37.15625 16.890625 35.375 
Q 19.28125 33.59375 26.515625 31.984375 
L 29.59375 31.296875 
Q 39.15625 29.25 43.1875 25.515625 
Q 47.21875 21.78125 47.21875 15.09375 
Q 47.21875 7.46875 41.1875 3.015625 
Q 35.15625 -1.421875 24.609375 -1.421875 
Q 20.21875 -1.421875 15.453125 -0.5625 
Q 10.6875 0.296875 5.421875 2 
L 5.421875 11.28125 
Q 10.40625 8.6875 15.234375 7.390625 
Q 20.0625 6.109375 24.8125 6.109375 
Q 31.15625 6.109375 34.5625 8.28125 
Q 37.984375 10.453125 37.984375 14.40625 
Q 37.984375 18.0625 35.515625 20.015625 
Q 33.0625 21.96875 24.703125 23.78125 
L 21.578125 24.515625 
Q 13.234375 26.265625 9.515625 29.90625 
Q 5.8125 33.546875 5.8125 39.890625 
Q 5.8125 47.609375 11.28125 51.796875 
Q 16.75 56 26.8125 56 
Q 31.78125 56 36.171875 55.265625 
Q 40.578125 54.546875 44.28125 53.078125 
z
" id="DejaVuSans-73"/>
     </defs>
     <g style="fill:#ff7f0e;" transform="translate(14.798437 283.588594)rotate(-90)scale(0.1 -0.1)">
      <use xlink:href="#DejaVuSans-52"/>
      <use x="69.419922" xlink:href="#DejaVuSans-65"/>
      <use x="130.943359" xlink:href="#DejaVuSans-66"/>
      <use x="166.148438" xlink:href="#DejaVuSans-75"/>
      <use x="229.527344" xlink:href="#DejaVuSans-67"/>
      <use x="293.003906" xlink:href="#DejaVuSans-65"/>
      <use x="354.527344" xlink:href="#DejaVuSans-65"/>
      <use x="416.050781" xlink:href="#DejaVuSans-73"/>
     </g>
    </g>
   </g>
   <g id="line2d_12">
    <path clip-path="url(#p5046ed70b2)" d="M 104.055398 296.454954 
L 108.909682 262.439737 
L 113.763967 233.693887 
L 118.618251 207.368974 
L 123.472536 201.413001 
L 128.32682 201.868191 
L 133.181105 224.771435 
L 138.035389 242.149895 
L 142.889673 256.353851 
L 147.743958 254.630817 
L 152.598242 249.575354 
L 157.452527 239.75046 
L 162.306811 229.028752 
L 167.161096 204.836602 
L 172.01538 171.045012 
L 176.869665 130.185806 
L 181.723949 107.448759 
L 186.578234 92.38169 
L 191.432518 128.891672 
L 201.141087 159.99893 
L 205.995372 158.454755 
L 210.849656 154.730844 
L 215.703941 143.290256 
L 220.558225 128.002207 
L 225.41251 114.681984 
L 230.266794 121.762597 
L 235.121078 128.227093 
L 239.975363 141.649617 
L 244.829647 149.98808 
L 249.683932 88.61885 
L 254.538216 98.447775 
L 259.392501 101.101976 
L 264.246785 87.781921 
L 269.10107 76.657476 
L 273.955354 55.898376 
L 278.809639 101.456377 
L 283.663923 53.521682 
L 288.518208 44.726644 
L 293.372492 50.990234 
L 298.226777 80.136679 
L 303.081061 107.594148 
L 307.935346 147.794318 
L 312.78963 169.140977 
L 317.643914 207.312322 
L 322.498199 234.868124 
L 327.352483 256.032753 
L 332.206768 261.574776 
L 337.061052 196.632756 
L 341.915337 180.944616 
L 346.769621 161.519504 
L 351.623906 133.972962 
L 356.47819 120.540695 
L 361.332475 111.048405 
L 366.186759 259.185126 
L 371.041044 278.084727 
L 375.895328 306.800235 
L 380.749613 327.298879 
L 385.603897 339.590464 
L 390.458182 339.971636 
L 395.312466 337.804289 
L 400.16675 336.598346 
L 405.021035 339.841786 
L 409.875319 340.588781 
L 414.729604 344.714925 
L 419.583888 343.393641 
L 424.438173 321.805613 
L 429.292457 333.821476 
L 434.146742 356.29372 
L 439.001026 373.807952 
L 443.855311 387.635302 
L 448.709595 391.496853 
L 453.56388 382.600291 
L 458.418164 377.770135 
L 463.272449 376.39349 
L 468.126733 374.263729 
L 472.981018 376.480841 
L 477.835302 374.696388 
L 482.689587 391.036016 
L 487.543871 399.929344 
L 492.398155 418.350773 
L 497.25244 432.664905 
L 502.106724 435.145632 
L 506.961009 435.824627 
L 511.815293 437.003714 
L 516.669578 439.061211 
L 521.523862 442.488129 
L 531.232431 444.371072 
L 536.086716 441.67897 
L 540.941 436.470423 
L 545.795285 442.368852 
L 550.649569 449.502757 
L 555.503854 452.218817 
L 560.358138 453.463638 
L 565.212423 452.093849 
L 570.066707 460.960688 
L 574.920991 463.334842 
L 579.775276 463.24347 
L 584.62956 458.652447 
L 589.483845 453.669741 
L 594.338129 447.71759 
L 599.192414 437.264873 
L 604.046698 436.049975 
L 608.900983 443.966057 
L 613.755267 450.460947 
L 618.609552 451.180425 
L 623.463836 452.929539 
L 628.318121 452.671424 
L 633.172405 444.246104 
L 638.02669 440.689209 
L 642.880974 438.055019 
L 647.735259 439.038124 
L 652.589543 439.174462 
L 657.443827 432.672327 
L 662.298112 441.724766 
L 667.152396 455.488273 
L 672.006681 462.594262 
L 676.860965 460.04233 
L 681.71525 458.234234 
L 686.569534 465.486236 
L 696.278103 458.296524 
L 701.132388 453.736115 
L 705.986672 451.617892 
L 710.840957 448.118028 
L 715.695241 454.523384 
L 720.549526 459.737884 
L 725.40381 466.002151 
L 730.258095 468.452595 
L 735.112379 469.225974 
L 739.966663 467.310815 
L 744.820948 465.135085 
L 749.675232 466.045433 
L 754.529517 465.33733 
L 759.383801 460.775593 
L 764.238086 456.585459 
L 769.09237 452.157451 
L 773.946655 446.706453 
L 778.800939 445.961264 
L 783.655224 452.915544 
L 788.509508 458.744942 
L 793.363793 460.956594 
L 798.218077 462.755 
L 803.072362 466.048404 
L 807.926646 466.108872 
L 812.780931 464.187393 
L 817.635215 458.844314 
L 822.4895 454.157887 
L 827.343784 448.781326 
L 832.198068 449.750236 
L 837.052353 455.907756 
L 841.906637 463.575319 
L 846.760922 467.183863 
L 851.615206 466.462989 
L 856.469491 463.531738 
L 861.323775 455.550489 
L 866.17806 456.788423 
L 871.032344 456.274314 
L 875.886629 452.099193 
L 880.740913 448.240119 
L 885.595198 442.968863 
L 890.449482 446.047218 
L 895.303767 445.816715 
L 900.158051 452.922683 
L 905.012336 459.458939 
L 909.86662 465.793354 
L 914.720904 469.04933 
L 919.575189 469.168912 
L 924.429473 469.115662 
L 929.283758 468.328057 
L 934.138042 465.094223 
L 938.992327 462.605947 
L 943.846611 458.847222 
L 948.700896 456.961151 
L 953.55518 454.659082 
L 958.409465 455.741244 
L 963.263749 454.616467 
L 968.118034 454.84697 
L 972.972318 455.217465 
L 977.826603 471.044075 
L 982.680887 476.767424 
L 987.535172 479.646333 
L 992.389456 477.437662 
L 997.24374 473.097698 
L 1002.098025 467.070412 
L 1006.952309 458.221237 
L 1011.806594 459.677242 
L 1016.660878 465.383231 
L 1021.515163 468.408877 
L 1026.369447 467.24693 
L 1031.223732 466.440348 
L 1036.078016 473.155285 
L 1040.932301 472.519362 
L 1045.786585 471.293235 
L 1050.64087 468.089885 
L 1055.495154 465.776262 
L 1060.349439 461.969011 
L 1065.203723 441.231298 
L 1070.058008 431.32888 
L 1074.912292 432.718249 
L 1079.766577 436.608945 
L 1084.620861 442.669928 
L 1089.475145 448.367691 
L 1094.32943 341.916028 
L 1099.183714 313.381668 
L 1104.037999 294.8662 
L 1108.892283 280.505496 
L 1113.746568 282.052002 
L 1118.600852 286.342768 
L 1118.600852 286.342768 
" style="fill:none;stroke:#008000;stroke-dasharray:5.55,2.4;stroke-dashoffset:0;stroke-width:1.5;"/>
   </g>
   <g id="line2d_13">
    <path clip-path="url(#p5046ed70b2)" d="M 104.055398 271.618908 
L 108.909682 261.986143 
L 113.763967 259.233925 
L 118.618251 217.950648 
L 123.472536 188.536314 
L 128.32682 223.627099 
L 133.181105 231.539727 
L 138.035389 242.720614 
L 142.889673 237.216177 
L 147.743958 274.027099 
L 152.598242 221.562935 
L 157.452527 241.344505 
L 162.306811 234.98 
L 167.161096 226.03529 
L 172.01538 211.242116 
L 176.869665 72.599113 
L 181.723949 54.537679 
L 186.578234 137.9643 
L 191.432518 166.518567 
L 196.286803 174.947235 
L 201.141087 134.524027 
L 205.995372 194.728805 
L 210.849656 95.820956 
L 215.703941 111.130171 
L 220.558225 71.567031 
L 225.41251 129.363618 
L 230.266794 149.833242 
L 235.121078 33.38 
L 239.975363 76.039386 
L 244.829647 83.091945 
L 249.683932 87.908328 
L 254.538216 156.541775 
L 259.392501 132.631877 
L 264.246785 116.634608 
L 269.10107 115.258498 
L 273.955354 158.433925 
L 278.809639 108.033925 
L 283.663923 178.387509 
L 288.518208 118.010717 
L 293.372492 63.99843 
L 298.226777 136.760205 
L 303.081061 136.07215 
L 307.935346 124.719249 
L 312.78963 185.784096 
L 317.643914 186.644164 
L 322.498199 203.329488 
L 327.352483 251.493311 
L 332.206768 211.41413 
L 337.061052 206.941775 
L 341.915337 222.423003 
L 346.769621 167.378635 
L 351.623906 153.617543 
L 356.47819 239.968396 
L 361.332475 227.239386 
L 366.186759 272.823003 
L 371.041044 290.024369 
L 375.895328 263.70628 
L 380.749613 311.526075 
L 385.603897 373.106962 
L 390.458182 330.61959 
L 395.312466 350.745188 
L 400.16675 359.517884 
L 405.021035 353.153379 
L 409.875319 343.004573 
L 414.729604 344.380683 
L 419.583888 326.83529 
L 424.438173 363.818225 
L 429.292457 384.115836 
L 434.146742 375.687167 
L 439.001026 379.471468 
L 443.855311 388.588191 
L 448.709595 377.063276 
L 453.56388 399.081024 
L 458.418164 378.095358 
L 463.272449 368.806621 
L 468.126733 381.01959 
L 472.981018 402.693311 
L 477.835302 389.792287 
L 482.689587 404.757474 
L 487.543871 415.938362 
L 492.398155 403.381365 
L 497.25244 436.752014 
L 502.106724 433.139727 
L 506.961009 440.880341 
L 511.815293 444.836655 
L 516.669578 434.859863 
L 521.523862 446.212765 
L 526.378147 418.346553 
L 531.232431 427.463276 
L 536.086716 446.900819 
L 540.941 445.696724 
L 545.795285 444.836655 
L 550.649569 448.276928 
L 555.503854 464.102184 
L 560.358138 460.14587 
L 565.212423 455.673515 
L 570.066707 468.230512 
L 574.920991 466.854403 
L 579.775276 468.746553 
L 584.62956 447.072833 
L 589.483845 453.609352 
L 594.338129 450.341092 
L 599.192414 438.47215 
L 604.046698 432.623686 
L 608.900983 435.031877 
L 613.755267 449.136997 
L 618.609552 464.790239 
L 623.463836 456.017543 
L 628.318121 455.501502 
L 633.172405 466.854403 
L 638.02669 454.641433 
L 642.880974 427.979317 
L 647.735259 444.836655 
L 652.589543 444.492628 
L 657.443827 443.116519 
L 662.298112 445.180683 
L 667.152396 454.641433 
L 672.006681 461.52198 
L 676.860965 465.822321 
L 681.71525 458.25372 
L 686.569534 443.460546 
L 691.423819 464.274198 
L 696.278103 457.049625 
L 701.132388 421.442799 
L 705.986672 443.460546 
L 710.840957 460.661911 
L 715.695241 475.627099 
L 720.549526 474.078976 
L 725.40381 450.685119 
L 730.258095 466.682389 
L 735.112379 473.390922 
L 739.966663 465.134266 
L 744.820948 451.20116 
L 749.675232 475.627099 
L 754.529517 437.440068 
L 759.383801 448.276928 
L 764.238086 439.160205 
L 769.09237 459.457816 
L 773.946655 441.052355 
L 778.800939 447.072833 
L 783.655224 443.460546 
L 788.509508 465.134266 
L 793.363793 455.501502 
L 798.218077 464.274198 
L 803.072362 467.19843 
L 807.926646 466.510375 
L 812.780931 470.466689 
L 817.635215 439.160205 
L 822.4895 442.772491 
L 827.343784 449.136997 
L 832.198068 453.781365 
L 837.052353 445.352696 
L 841.906637 452.57727 
L 846.760922 459.113788 
L 851.615206 455.157474 
L 856.469491 456.705597 
L 861.323775 452.233242 
L 866.17806 466.510375 
L 871.032344 465.822321 
L 875.886629 439.504232 
L 880.740913 439.504232 
L 885.595198 456.189556 
L 890.449482 447.588874 
L 895.303767 433.827782 
L 900.158051 442.600478 
L 905.012336 458.769761 
L 909.86662 454.125392 
L 914.720904 468.574539 
L 919.575189 471.154744 
L 924.429473 486.98 
L 929.283758 468.918567 
L 934.138042 457.565666 
L 938.992327 472.702867 
L 943.846611 467.714471 
L 948.700896 455.673515 
L 953.55518 454.813447 
L 958.409465 456.189556 
L 963.263749 468.918567 
L 968.118034 474.595017 
L 972.972318 465.478294 
L 977.826603 475.799113 
L 982.680887 480.443481 
L 987.535172 483.023686 
L 992.389456 455.673515 
L 997.24374 470.98273 
L 1002.098025 466.166348 
L 1006.952309 464.618225 
L 1011.806594 467.714471 
L 1016.660878 464.962253 
L 1021.515163 477.519249 
L 1026.369447 478.379317 
L 1031.223732 474.767031 
L 1036.078016 484.743823 
L 1040.932301 474.423003 
L 1045.786585 455.673515 
L 1050.64087 456.705597 
L 1055.495154 455.157474 
L 1060.349439 470.810717 
L 1065.203723 457.393652 
L 1070.058008 430.043481 
L 1074.912292 432.967713 
L 1079.766577 424.367031 
L 1084.620861 414.90628 
L 1089.475145 385.835973 
L 1094.32943 377.23529 
L 1099.183714 295.356792 
L 1104.037999 287.444164 
L 1108.892283 261.81413 
L 1113.746568 253.557474 
L 1118.600852 322.878976 
L 1118.600852 322.878976 
" style="fill:none;stroke:#ff7f0e;stroke-linecap:square;stroke-width:1.5;"/>
   </g>
   <g id="line2d_14">
    <defs>
     <path d="M 0 3 
C 0.795609 3 1.55874 2.683901 2.12132 2.12132 
C 2.683901 1.55874 3 0.795609 3 0 
C 3 -0.795609 2.683901 -1.55874 2.12132 -2.12132 
C 1.55874 -2.683901 0.795609 -3 0 -3 
C -0.795609 -3 -1.55874 -2.683901 -2.12132 -2.12132 
C -2.683901 -1.55874 -3 -0.795609 -3 0 
C -3 0.795609 -2.683901 1.55874 -2.12132 2.12132 
C -1.55874 2.683901 -0.795609 3 0 3 
z
" id="mfe0e2c778f" style="stroke:#008000;"/>
    </defs>
    <g clip-path="url(#p5046ed70b2)">
     <use style="fill:#008000;stroke:#008000;" x="104.055398" xlink:href="#mfe0e2c778f" y="296.454954"/>
     <use style="fill:#008000;stroke:#008000;" x="133.181105" xlink:href="#mfe0e2c778f" y="224.771435"/>
     <use style="fill:#008000;stroke:#008000;" x="162.306811" xlink:href="#mfe0e2c778f" y="229.028752"/>
     <use style="fill:#008000;stroke:#008000;" x="191.432518" xlink:href="#mfe0e2c778f" y="128.891672"/>
     <use style="fill:#008000;stroke:#008000;" x="220.558225" xlink:href="#mfe0e2c778f" y="128.002207"/>
     <use style="fill:#008000;stroke:#008000;" x="249.683932" xlink:href="#mfe0e2c778f" y="88.61885"/>
     <use style="fill:#008000;stroke:#008000;" x="278.809639" xlink:href="#mfe0e2c778f" y="101.456377"/>
     <use style="fill:#008000;stroke:#008000;" x="307.935346" xlink:href="#mfe0e2c778f" y="147.794318"/>
     <use style="fill:#008000;stroke:#008000;" x="337.061052" xlink:href="#mfe0e2c778f" y="196.632756"/>
     <use style="fill:#008000;stroke:#008000;" x="366.186759" xlink:href="#mfe0e2c778f" y="259.185126"/>
     <use style="fill:#008000;stroke:#008000;" x="395.312466" xlink:href="#mfe0e2c778f" y="337.804289"/>
     <use style="fill:#008000;stroke:#008000;" x="424.438173" xlink:href="#mfe0e2c778f" y="321.805613"/>
     <use style="fill:#008000;stroke:#008000;" x="453.56388" xlink:href="#mfe0e2c778f" y="382.600291"/>
     <use style="fill:#008000;stroke:#008000;" x="482.689587" xlink:href="#mfe0e2c778f" y="391.036016"/>
     <use style="fill:#008000;stroke:#008000;" x="511.815293" xlink:href="#mfe0e2c778f" y="437.003714"/>
     <use style="fill:#008000;stroke:#008000;" x="540.941" xlink:href="#mfe0e2c778f" y="436.470423"/>
     <use style="fill:#008000;stroke:#008000;" x="570.066707" xlink:href="#mfe0e2c778f" y="460.960688"/>
     <use style="fill:#008000;stroke:#008000;" x="599.192414" xlink:href="#mfe0e2c778f" y="437.264873"/>
     <use style="fill:#008000;stroke:#008000;" x="628.318121" xlink:href="#mfe0e2c778f" y="452.671424"/>
     <use style="fill:#008000;stroke:#008000;" x="657.443827" xlink:href="#mfe0e2c778f" y="432.672327"/>
     <use style="fill:#008000;stroke:#008000;" x="686.569534" xlink:href="#mfe0e2c778f" y="465.486236"/>
     <use style="fill:#008000;stroke:#008000;" x="715.695241" xlink:href="#mfe0e2c778f" y="454.523384"/>
     <use style="fill:#008000;stroke:#008000;" x="744.820948" xlink:href="#mfe0e2c778f" y="465.135085"/>
     <use style="fill:#008000;stroke:#008000;" x="773.946655" xlink:href="#mfe0e2c778f" y="446.706453"/>
     <use style="fill:#008000;stroke:#008000;" x="803.072362" xlink:href="#mfe0e2c778f" y="466.048404"/>
     <use style="fill:#008000;stroke:#008000;" x="832.198068" xlink:href="#mfe0e2c778f" y="449.750236"/>
     <use style="fill:#008000;stroke:#008000;" x="861.323775" xlink:href="#mfe0e2c778f" y="455.550489"/>
     <use style="fill:#008000;stroke:#008000;" x="890.449482" xlink:href="#mfe0e2c778f" y="446.047218"/>
     <use style="fill:#008000;stroke:#008000;" x="919.575189" xlink:href="#mfe0e2c778f" y="469.168912"/>
     <use style="fill:#008000;stroke:#008000;" x="948.700896" xlink:href="#mfe0e2c778f" y="456.961151"/>
     <use style="fill:#008000;stroke:#008000;" x="977.826603" xlink:href="#mfe0e2c778f" y="471.044075"/>
     <use style="fill:#008000;stroke:#008000;" x="1006.952309" xlink:href="#mfe0e2c778f" y="458.221237"/>
     <use style="fill:#008000;stroke:#008000;" x="1036.078016" xlink:href="#mfe0e2c778f" y="473.155285"/>
     <use style="fill:#008000;stroke:#008000;" x="1065.203723" xlink:href="#mfe0e2c778f" y="441.231298"/>
     <use style="fill:#008000;stroke:#008000;" x="1094.32943" xlink:href="#mfe0e2c778f" y="341.916028"/>
    </g>
   </g>
   <g id="patch_3">
    <path d="M 53.328125 509.66 
L 53.328125 10.7 
" style="fill:none;stroke:#000000;stroke-linecap:square;stroke-linejoin:miter;stroke-width:0.8;"/>
   </g>
   <g id="patch_4">
    <path d="M 1169.328125 509.66 
L 1169.328125 10.7 
" style="fill:none;stroke:#000000;stroke-linecap:square;stroke-linejoin:miter;stroke-width:0.8;"/>
   </g>
   <g id="patch_5">
    <path d="M 53.328125 509.66 
L 1169.328125 509.66 
" style="fill:none;stroke:#000000;stroke-linecap:square;stroke-linejoin:miter;stroke-width:0.8;"/>
   </g>
   <g id="patch_6">
    <path d="M 53.328125 10.7 
L 1169.328125 10.7 
" style="fill:none;stroke:#000000;stroke-linecap:square;stroke-linejoin:miter;stroke-width:0.8;"/>
   </g>
   <g id="legend_1">
    <g id="patch_7">
     <path d="M 60.328125 62.734375 
L 208.103125 62.734375 
Q 210.103125 62.734375 210.103125 60.734375 
L 210.103125 17.7 
Q 210.103125 15.7 208.103125 15.7 
L 60.328125 15.7 
Q 58.328125 15.7 58.328125 17.7 
L 58.328125 60.734375 
Q 58.328125 62.734375 60.328125 62.734375 
z
" style="fill:#ffffff;opacity:0.8;stroke:#cccccc;stroke-linejoin:miter;"/>
    </g>
    <g id="line2d_15">
     <path d="M 62.328125 23.798437 
L 82.328125 23.798437 
" style="fill:none;stroke:#008000;stroke-dasharray:5.55,2.4;stroke-dashoffset:0;stroke-width:1.5;"/>
    </g>
    <g id="line2d_16"/>
    <g id="text_14">
     <!-- Predicated -->
     <defs>
      <path d="M 19.671875 64.796875 
L 19.671875 37.40625 
L 32.078125 37.40625 
Q 38.96875 37.40625 42.71875 40.96875 
Q 46.484375 44.53125 46.484375 51.125 
Q 46.484375 57.671875 42.71875 61.234375 
Q 38.96875 64.796875 32.078125 64.796875 
z
M 9.8125 72.90625 
L 32.078125 72.90625 
Q 44.34375 72.90625 50.609375 67.359375 
Q 56.890625 61.8125 56.890625 51.125 
Q 56.890625 40.328125 50.609375 34.8125 
Q 44.34375 29.296875 32.078125 29.296875 
L 19.671875 29.296875 
L 19.671875 0 
L 9.8125 0 
z
" id="DejaVuSans-50"/>
      <path d="M 41.109375 46.296875 
Q 39.59375 47.171875 37.8125 47.578125 
Q 36.03125 48 33.890625 48 
Q 26.265625 48 22.1875 43.046875 
Q 18.109375 38.09375 18.109375 28.8125 
L 18.109375 0 
L 9.078125 0 
L 9.078125 54.6875 
L 18.109375 54.6875 
L 18.109375 46.1875 
Q 20.953125 51.171875 25.484375 53.578125 
Q 30.03125 56 36.53125 56 
Q 37.453125 56 38.578125 55.875 
Q 39.703125 55.765625 41.0625 55.515625 
z
" id="DejaVuSans-72"/>
      <path d="M 45.40625 46.390625 
L 45.40625 75.984375 
L 54.390625 75.984375 
L 54.390625 0 
L 45.40625 0 
L 45.40625 8.203125 
Q 42.578125 3.328125 38.25 0.953125 
Q 33.9375 -1.421875 27.875 -1.421875 
Q 17.96875 -1.421875 11.734375 6.484375 
Q 5.515625 14.40625 5.515625 27.296875 
Q 5.515625 40.1875 11.734375 48.09375 
Q 17.96875 56 27.875 56 
Q 33.9375 56 38.25 53.625 
Q 42.578125 51.265625 45.40625 46.390625 
z
M 14.796875 27.296875 
Q 14.796875 17.390625 18.875 11.75 
Q 22.953125 6.109375 30.078125 6.109375 
Q 37.203125 6.109375 41.296875 11.75 
Q 45.40625 17.390625 45.40625 27.296875 
Q 45.40625 37.203125 41.296875 42.84375 
Q 37.203125 48.484375 30.078125 48.484375 
Q 22.953125 48.484375 18.875 42.84375 
Q 14.796875 37.203125 14.796875 27.296875 
z
" id="DejaVuSans-64"/>
      <path d="M 48.78125 52.59375 
L 48.78125 44.1875 
Q 44.96875 46.296875 41.140625 47.34375 
Q 37.3125 48.390625 33.40625 48.390625 
Q 24.65625 48.390625 19.8125 42.84375 
Q 14.984375 37.3125 14.984375 27.296875 
Q 14.984375 17.28125 19.8125 11.734375 
Q 24.65625 6.203125 33.40625 6.203125 
Q 37.3125 6.203125 41.140625 7.25 
Q 44.96875 8.296875 48.78125 10.40625 
L 48.78125 2.09375 
Q 45.015625 0.34375 40.984375 -0.53125 
Q 36.96875 -1.421875 32.421875 -1.421875 
Q 20.0625 -1.421875 12.78125 6.34375 
Q 5.515625 14.109375 5.515625 27.296875 
Q 5.515625 40.671875 12.859375 48.328125 
Q 20.21875 56 33.015625 56 
Q 37.15625 56 41.109375 55.140625 
Q 45.0625 54.296875 48.78125 52.59375 
z
" id="DejaVuSans-63"/>
      <path d="M 34.28125 27.484375 
Q 23.390625 27.484375 19.1875 25 
Q 14.984375 22.515625 14.984375 16.5 
Q 14.984375 11.71875 18.140625 8.90625 
Q 21.296875 6.109375 26.703125 6.109375 
Q 34.1875 6.109375 38.703125 11.40625 
Q 43.21875 16.703125 43.21875 25.484375 
L 43.21875 27.484375 
z
M 52.203125 31.203125 
L 52.203125 0 
L 43.21875 0 
L 43.21875 8.296875 
Q 40.140625 3.328125 35.546875 0.953125 
Q 30.953125 -1.421875 24.3125 -1.421875 
Q 15.921875 -1.421875 10.953125 3.296875 
Q 6 8.015625 6 15.921875 
Q 6 25.140625 12.171875 29.828125 
Q 18.359375 34.515625 30.609375 34.515625 
L 43.21875 34.515625 
L 43.21875 35.40625 
Q 43.21875 41.609375 39.140625 45 
Q 35.0625 48.390625 27.6875 48.390625 
Q 23 48.390625 18.546875 47.265625 
Q 14.109375 46.140625 10.015625 43.890625 
L 10.015625 52.203125 
Q 14.9375 54.109375 19.578125 55.046875 
Q 24.21875 56 28.609375 56 
Q 40.484375 56 46.34375 49.84375 
Q 52.203125 43.703125 52.203125 31.203125 
z
" id="DejaVuSans-61"/>
      <path d="M 18.3125 70.21875 
L 18.3125 54.6875 
L 36.8125 54.6875 
L 36.8125 47.703125 
L 18.3125 47.703125 
L 18.3125 18.015625 
Q 18.3125 11.328125 20.140625 9.421875 
Q 21.96875 7.515625 27.59375 7.515625 
L 36.8125 7.515625 
L 36.8125 0 
L 27.59375 0 
Q 17.1875 0 13.234375 3.875 
Q 9.28125 7.765625 9.28125 18.015625 
L 9.28125 47.703125 
L 2.6875 47.703125 
L 2.6875 54.6875 
L 9.28125 54.6875 
L 9.28125 70.21875 
z
" id="DejaVuSans-74"/>
     </defs>
     <g transform="translate(90.328125 27.298437)scale(0.1 -0.1)">
      <use xlink:href="#DejaVuSans-50"/>
      <use x="60.287109" xlink:href="#DejaVuSans-72"/>
      <use x="101.369141" xlink:href="#DejaVuSans-65"/>
      <use x="162.892578" xlink:href="#DejaVuSans-64"/>
      <use x="226.369141" xlink:href="#DejaVuSans-69"/>
      <use x="254.152344" xlink:href="#DejaVuSans-63"/>
      <use x="309.132812" xlink:href="#DejaVuSans-61"/>
      <use x="370.412109" xlink:href="#DejaVuSans-74"/>
      <use x="409.621094" xlink:href="#DejaVuSans-65"/>
      <use x="471.144531" xlink:href="#DejaVuSans-64"/>
     </g>
    </g>
    <g id="line2d_17">
     <path d="M 62.328125 38.476562 
L 82.328125 38.476562 
" style="fill:none;stroke:#ff7f0e;stroke-linecap:square;stroke-width:1.5;"/>
    </g>
    <g id="line2d_18"/>
    <g id="text_15">
     <!-- Real Data -->
     <defs>
      <path d="M 9.421875 75.984375 
L 18.40625 75.984375 
L 18.40625 0 
L 9.421875 0 
z
" id="DejaVuSans-6c"/>
      <path id="DejaVuSans-20"/>
      <path d="M 19.671875 64.796875 
L 19.671875 8.109375 
L 31.59375 8.109375 
Q 46.6875 8.109375 53.6875 14.9375 
Q 60.6875 21.78125 60.6875 36.53125 
Q 60.6875 51.171875 53.6875 57.984375 
Q 46.6875 64.796875 31.59375 64.796875 
z
M 9.8125 72.90625 
L 30.078125 72.90625 
Q 51.265625 72.90625 61.171875 64.09375 
Q 71.09375 55.28125 71.09375 36.53125 
Q 71.09375 17.671875 61.125 8.828125 
Q 51.171875 0 30.078125 0 
L 9.8125 0 
z
" id="DejaVuSans-44"/>
     </defs>
     <g transform="translate(90.328125 41.976562)scale(0.1 -0.1)">
      <use xlink:href="#DejaVuSans-52"/>
      <use x="69.419922" xlink:href="#DejaVuSans-65"/>
      <use x="130.943359" xlink:href="#DejaVuSans-61"/>
      <use x="192.222656" xlink:href="#DejaVuSans-6c"/>
      <use x="220.005859" xlink:href="#DejaVuSans-20"/>
      <use x="251.792969" xlink:href="#DejaVuSans-44"/>
      <use x="328.794922" xlink:href="#DejaVuSans-61"/>
      <use x="390.074219" xlink:href="#DejaVuSans-74"/>
      <use x="429.283203" xlink:href="#DejaVuSans-61"/>
     </g>
    </g>
    <g id="line2d_19"/>
    <g id="line2d_20">
     <g>
      <use style="fill:#008000;stroke:#008000;" x="72.328125" xlink:href="#mfe0e2c778f" y="53.154688"/>
     </g>
    </g>
    <g id="text_16">
     <!-- Start Point for Forecast -->
     <defs>
      <path d="M 53.515625 70.515625 
L 53.515625 60.890625 
Q 47.90625 63.578125 42.921875 64.890625 
Q 37.9375 66.21875 33.296875 66.21875 
Q 25.25 66.21875 20.875 63.09375 
Q 16.5 59.96875 16.5 54.203125 
Q 16.5 49.359375 19.40625 46.890625 
Q 22.3125 44.4375 30.421875 42.921875 
L 36.375 41.703125 
Q 47.40625 39.59375 52.65625 34.296875 
Q 57.90625 29 57.90625 20.125 
Q 57.90625 9.515625 50.796875 4.046875 
Q 43.703125 -1.421875 29.984375 -1.421875 
Q 24.8125 -1.421875 18.96875 -0.25 
Q 13.140625 0.921875 6.890625 3.21875 
L 6.890625 13.375 
Q 12.890625 10.015625 18.65625 8.296875 
Q 24.421875 6.59375 29.984375 6.59375 
Q 38.421875 6.59375 43.015625 9.90625 
Q 47.609375 13.234375 47.609375 19.390625 
Q 47.609375 24.75 44.3125 27.78125 
Q 41.015625 30.8125 33.5 32.328125 
L 27.484375 33.5 
Q 16.453125 35.6875 11.515625 40.375 
Q 6.59375 45.0625 6.59375 53.421875 
Q 6.59375 63.09375 13.40625 68.65625 
Q 20.21875 74.21875 32.171875 74.21875 
Q 37.3125 74.21875 42.625 73.28125 
Q 47.953125 72.359375 53.515625 70.515625 
z
" id="DejaVuSans-53"/>
      <path d="M 30.609375 48.390625 
Q 23.390625 48.390625 19.1875 42.75 
Q 14.984375 37.109375 14.984375 27.296875 
Q 14.984375 17.484375 19.15625 11.84375 
Q 23.34375 6.203125 30.609375 6.203125 
Q 37.796875 6.203125 41.984375 11.859375 
Q 46.1875 17.53125 46.1875 27.296875 
Q 46.1875 37.015625 41.984375 42.703125 
Q 37.796875 48.390625 30.609375 48.390625 
z
M 30.609375 56 
Q 42.328125 56 49.015625 48.375 
Q 55.71875 40.765625 55.71875 27.296875 
Q 55.71875 13.875 49.015625 6.21875 
Q 42.328125 -1.421875 30.609375 -1.421875 
Q 18.84375 -1.421875 12.171875 6.21875 
Q 5.515625 13.875 5.515625 27.296875 
Q 5.515625 40.765625 12.171875 48.375 
Q 18.84375 56 30.609375 56 
z
" id="DejaVuSans-6f"/>
      <path d="M 54.890625 33.015625 
L 54.890625 0 
L 45.90625 0 
L 45.90625 32.71875 
Q 45.90625 40.484375 42.875 44.328125 
Q 39.84375 48.1875 33.796875 48.1875 
Q 26.515625 48.1875 22.3125 43.546875 
Q 18.109375 38.921875 18.109375 30.90625 
L 18.109375 0 
L 9.078125 0 
L 9.078125 54.6875 
L 18.109375 54.6875 
L 18.109375 46.1875 
Q 21.34375 51.125 25.703125 53.5625 
Q 30.078125 56 35.796875 56 
Q 45.21875 56 50.046875 50.171875 
Q 54.890625 44.34375 54.890625 33.015625 
z
" id="DejaVuSans-6e"/>
      <path d="M 9.8125 72.90625 
L 51.703125 72.90625 
L 51.703125 64.59375 
L 19.671875 64.59375 
L 19.671875 43.109375 
L 48.578125 43.109375 
L 48.578125 34.8125 
L 19.671875 34.8125 
L 19.671875 0 
L 9.8125 0 
z
" id="DejaVuSans-46"/>
     </defs>
     <g transform="translate(90.328125 56.654688)scale(0.1 -0.1)">
      <use xlink:href="#DejaVuSans-53"/>
      <use x="63.476562" xlink:href="#DejaVuSans-74"/>
      <use x="102.685547" xlink:href="#DejaVuSans-61"/>
      <use x="163.964844" xlink:href="#DejaVuSans-72"/>
      <use x="205.078125" xlink:href="#DejaVuSans-74"/>
      <use x="244.287109" xlink:href="#DejaVuSans-20"/>
      <use x="276.074219" xlink:href="#DejaVuSans-50"/>
      <use x="336.330078" xlink:href="#DejaVuSans-6f"/>
      <use x="397.511719" xlink:href="#DejaVuSans-69"/>
      <use x="425.294922" xlink:href="#DejaVuSans-6e"/>
      <use x="488.673828" xlink:href="#DejaVuSans-74"/>
      <use x="527.882812" xlink:href="#DejaVuSans-20"/>
      <use x="559.669922" xlink:href="#DejaVuSans-66"/>
      <use x="594.875" xlink:href="#DejaVuSans-6f"/>
      <use x="656.056641" xlink:href="#DejaVuSans-72"/>
      <use x="697.169922" xlink:href="#DejaVuSans-20"/>
      <use x="728.957031" xlink:href="#DejaVuSans-46"/>
      <use x="786.429688" xlink:href="#DejaVuSans-6f"/>
      <use x="847.611328" xlink:href="#DejaVuSans-72"/>
      <use x="888.693359" xlink:href="#DejaVuSans-65"/>
      <use x="950.216797" xlink:href="#DejaVuSans-63"/>
      <use x="1005.197266" xlink:href="#DejaVuSans-61"/>
      <use x="1066.476562" xlink:href="#DejaVuSans-73"/>
      <use x="1118.576172" xlink:href="#DejaVuSans-74"/>
     </g>
    </g>
   </g>
  </g>
  <g id="axes_2">
   <g id="patch_8">
    <path d="M 53.328125 645.74 
L 1170.768125 645.74 
L 1170.768125 516.14 
L 53.328125 516.14 
z
" style="fill:none;"/>
   </g>
   <g id="matplotlib.axis_3">
    <g id="xtick_6">
     <g id="line2d_21">
      <g>
       <use style="stroke:#000000;stroke-width:0.8;" x="104.120852" xlink:href="#m4f7af6e8d7" y="645.74"/>
      </g>
     </g>
     <g id="text_17">
      <!-- 0 -->
      <g transform="translate(100.939602 660.338437)scale(0.1 -0.1)">
       <use xlink:href="#DejaVuSans-30"/>
      </g>
     </g>
    </g>
    <g id="xtick_7">
     <g id="line2d_22">
      <g>
       <use style="stroke:#000000;stroke-width:0.8;" x="228.612831" xlink:href="#m4f7af6e8d7" y="645.74"/>
      </g>
     </g>
     <g id="text_18">
      <!-- 25 -->
      <g transform="translate(222.250331 660.338437)scale(0.1 -0.1)">
       <use xlink:href="#DejaVuSans-32"/>
       <use x="63.623047" xlink:href="#DejaVuSans-35"/>
      </g>
     </g>
    </g>
    <g id="xtick_8">
     <g id="line2d_23">
      <g>
       <use style="stroke:#000000;stroke-width:0.8;" x="353.104809" xlink:href="#m4f7af6e8d7" y="645.74"/>
      </g>
     </g>
     <g id="text_19">
      <!-- 50 -->
      <g transform="translate(346.742309 660.338437)scale(0.1 -0.1)">
       <use xlink:href="#DejaVuSans-35"/>
       <use x="63.623047" xlink:href="#DejaVuSans-30"/>
      </g>
     </g>
    </g>
    <g id="xtick_9">
     <g id="line2d_24">
      <g>
       <use style="stroke:#000000;stroke-width:0.8;" x="477.596788" xlink:href="#m4f7af6e8d7" y="645.74"/>
      </g>
     </g>
     <g id="text_20">
      <!-- 75 -->
      <defs>
       <path d="M 8.203125 72.90625 
L 55.078125 72.90625 
L 55.078125 68.703125 
L 28.609375 0 
L 18.3125 0 
L 43.21875 64.59375 
L 8.203125 64.59375 
z
" id="DejaVuSans-37"/>
      </defs>
      <g transform="translate(471.234288 660.338437)scale(0.1 -0.1)">
       <use xlink:href="#DejaVuSans-37"/>
       <use x="63.623047" xlink:href="#DejaVuSans-35"/>
      </g>
     </g>
    </g>
    <g id="xtick_10">
     <g id="line2d_25">
      <g>
       <use style="stroke:#000000;stroke-width:0.8;" x="602.088767" xlink:href="#m4f7af6e8d7" y="645.74"/>
      </g>
     </g>
     <g id="text_21">
      <!-- 100 -->
      <g transform="translate(592.545017 660.338437)scale(0.1 -0.1)">
       <use xlink:href="#DejaVuSans-31"/>
       <use x="63.623047" xlink:href="#DejaVuSans-30"/>
       <use x="127.246094" xlink:href="#DejaVuSans-30"/>
      </g>
     </g>
    </g>
    <g id="xtick_11">
     <g id="line2d_26">
      <g>
       <use style="stroke:#000000;stroke-width:0.8;" x="726.580745" xlink:href="#m4f7af6e8d7" y="645.74"/>
      </g>
     </g>
     <g id="text_22">
      <!-- 125 -->
      <g transform="translate(717.036995 660.338437)scale(0.1 -0.1)">
       <use xlink:href="#DejaVuSans-31"/>
       <use x="63.623047" xlink:href="#DejaVuSans-32"/>
       <use x="127.246094" xlink:href="#DejaVuSans-35"/>
      </g>
     </g>
    </g>
    <g id="xtick_12">
     <g id="line2d_27">
      <g>
       <use style="stroke:#000000;stroke-width:0.8;" x="851.072724" xlink:href="#m4f7af6e8d7" y="645.74"/>
      </g>
     </g>
     <g id="text_23">
      <!-- 150 -->
      <g transform="translate(841.528974 660.338437)scale(0.1 -0.1)">
       <use xlink:href="#DejaVuSans-31"/>
       <use x="63.623047" xlink:href="#DejaVuSans-35"/>
       <use x="127.246094" xlink:href="#DejaVuSans-30"/>
      </g>
     </g>
    </g>
    <g id="xtick_13">
     <g id="line2d_28">
      <g>
       <use style="stroke:#000000;stroke-width:0.8;" x="975.564703" xlink:href="#m4f7af6e8d7" y="645.74"/>
      </g>
     </g>
     <g id="text_24">
      <!-- 175 -->
      <g transform="translate(966.020953 660.338437)scale(0.1 -0.1)">
       <use xlink:href="#DejaVuSans-31"/>
       <use x="63.623047" xlink:href="#DejaVuSans-37"/>
       <use x="127.246094" xlink:href="#DejaVuSans-35"/>
      </g>
     </g>
    </g>
    <g id="xtick_14">
     <g id="line2d_29">
      <g>
       <use style="stroke:#000000;stroke-width:0.8;" x="1100.056681" xlink:href="#m4f7af6e8d7" y="645.74"/>
      </g>
     </g>
     <g id="text_25">
      <!-- 200 -->
      <g transform="translate(1090.512931 660.338437)scale(0.1 -0.1)">
       <use xlink:href="#DejaVuSans-32"/>
       <use x="63.623047" xlink:href="#DejaVuSans-30"/>
       <use x="127.246094" xlink:href="#DejaVuSans-30"/>
      </g>
     </g>
    </g>
   </g>
   <g id="matplotlib.axis_4">
    <g id="ytick_7">
     <g id="line2d_30">
      <g>
       <use style="stroke:#000000;stroke-width:0.8;" x="53.328125" xlink:href="#m03f2384eca" y="642.003165"/>
      </g>
     </g>
     <g id="text_26">
      <!-- −10 -->
      <defs>
       <path d="M 10.59375 35.5 
L 73.1875 35.5 
L 73.1875 27.203125 
L 10.59375 27.203125 
z
" id="DejaVuSans-2212"/>
      </defs>
      <g transform="translate(25.223437 645.802384)scale(0.1 -0.1)">
       <use xlink:href="#DejaVuSans-2212"/>
       <use x="83.789062" xlink:href="#DejaVuSans-31"/>
       <use x="147.412109" xlink:href="#DejaVuSans-30"/>
      </g>
     </g>
    </g>
    <g id="ytick_8">
     <g id="line2d_31">
      <g>
       <use style="stroke:#000000;stroke-width:0.8;" x="53.328125" xlink:href="#m03f2384eca" y="614.948386"/>
      </g>
     </g>
     <g id="text_27">
      <!-- 0 -->
      <g transform="translate(39.965625 618.747604)scale(0.1 -0.1)">
       <use xlink:href="#DejaVuSans-30"/>
      </g>
     </g>
    </g>
    <g id="ytick_9">
     <g id="line2d_32">
      <g>
       <use style="stroke:#000000;stroke-width:0.8;" x="53.328125" xlink:href="#m03f2384eca" y="587.893606"/>
      </g>
     </g>
     <g id="text_28">
      <!-- 10 -->
      <g transform="translate(33.603125 591.692825)scale(0.1 -0.1)">
       <use xlink:href="#DejaVuSans-31"/>
       <use x="63.623047" xlink:href="#DejaVuSans-30"/>
      </g>
     </g>
    </g>
    <g id="ytick_10">
     <g id="line2d_33">
      <g>
       <use style="stroke:#000000;stroke-width:0.8;" x="53.328125" xlink:href="#m03f2384eca" y="560.838826"/>
      </g>
     </g>
     <g id="text_29">
      <!-- 20 -->
      <g transform="translate(33.603125 564.638045)scale(0.1 -0.1)">
       <use xlink:href="#DejaVuSans-32"/>
       <use x="63.623047" xlink:href="#DejaVuSans-30"/>
      </g>
     </g>
    </g>
    <g id="ytick_11">
     <g id="line2d_34">
      <g>
       <use style="stroke:#000000;stroke-width:0.8;" x="53.328125" xlink:href="#m03f2384eca" y="533.784047"/>
      </g>
     </g>
     <g id="text_30">
      <!-- 30 -->
      <g transform="translate(33.603125 537.583265)scale(0.1 -0.1)">
       <use xlink:href="#DejaVuSans-33"/>
       <use x="63.623047" xlink:href="#DejaVuSans-30"/>
      </g>
     </g>
    </g>
    <g id="text_31">
     <!-- Temperature -->
     <defs>
      <path d="M 18.109375 8.203125 
L 18.109375 -20.796875 
L 9.078125 -20.796875 
L 9.078125 54.6875 
L 18.109375 54.6875 
L 18.109375 46.390625 
Q 20.953125 51.265625 25.265625 53.625 
Q 29.59375 56 35.59375 56 
Q 45.5625 56 51.78125 48.09375 
Q 58.015625 40.1875 58.015625 27.296875 
Q 58.015625 14.40625 51.78125 6.484375 
Q 45.5625 -1.421875 35.59375 -1.421875 
Q 29.59375 -1.421875 25.265625 0.953125 
Q 20.953125 3.328125 18.109375 8.203125 
z
M 48.6875 27.296875 
Q 48.6875 37.203125 44.609375 42.84375 
Q 40.53125 48.484375 33.40625 48.484375 
Q 26.265625 48.484375 22.1875 42.84375 
Q 18.109375 37.203125 18.109375 27.296875 
Q 18.109375 17.390625 22.1875 11.75 
Q 26.265625 6.109375 33.40625 6.109375 
Q 40.53125 6.109375 44.609375 11.75 
Q 48.6875 17.390625 48.6875 27.296875 
z
" id="DejaVuSans-70"/>
     </defs>
     <g style="fill:#0000ff;" transform="translate(19.14375 613.557187)rotate(-90)scale(0.1 -0.1)">
      <use xlink:href="#DejaVuSans-54"/>
      <use x="60.818359" xlink:href="#DejaVuSans-65"/>
      <use x="122.341797" xlink:href="#DejaVuSans-6d"/>
      <use x="219.753906" xlink:href="#DejaVuSans-70"/>
      <use x="283.230469" xlink:href="#DejaVuSans-65"/>
      <use x="344.753906" xlink:href="#DejaVuSans-72"/>
      <use x="385.867188" xlink:href="#DejaVuSans-61"/>
      <use x="447.146484" xlink:href="#DejaVuSans-74"/>
      <use x="486.355469" xlink:href="#DejaVuSans-75"/>
      <use x="549.734375" xlink:href="#DejaVuSans-72"/>
      <use x="590.816406" xlink:href="#DejaVuSans-65"/>
     </g>
    </g>
   </g>
   <g id="line2d_35">
    <path clip-path="url(#p2083094b92)" d="M 104.120852 529.413888 
L 109.100531 529.193121 
L 114.080211 540.337255 
L 119.05989 554.633542 
L 124.039569 573.315138 
L 129.019248 580.973264 
L 133.998927 601.274738 
L 138.978606 594.441918 
L 143.958285 583.704173 
L 148.937965 562.176415 
L 153.917644 552.886885 
L 158.897323 539.584321 
L 163.877002 524.355997 
L 168.856681 531.176236 
L 173.83636 540.639728 
L 178.816039 559.213646 
L 183.795719 566.848775 
L 188.775398 587.815688 
L 193.755077 588.330838 
L 198.734756 585.90995 
L 203.714435 566.438895 
L 208.694114 563.693376 
L 213.673793 555.678127 
L 218.653473 537.162647 
L 223.633152 526.445167 
L 228.612831 527.625838 
L 233.59251 537.140192 
L 238.572189 555.464124 
L 243.551868 577.347112 
L 248.531547 592.870603 
L 253.511227 600.68397 
L 258.490906 580.744922 
L 263.470585 574.403552 
L 268.450264 570.960831 
L 273.429943 552.828988 
L 278.409622 539.462304 
L 283.389301 528.620642 
L 288.368981 532.910177 
L 293.34866 541.483837 
L 298.328339 554.236378 
L 303.308018 568.392791 
L 308.287697 596.350849 
L 313.267376 586.566569 
L 318.247055 598.652886 
L 323.226735 588.896121 
L 328.206414 571.013047 
L 333.186093 546.358026 
L 338.165772 537.142356 
L 343.145451 530.432771 
L 348.12513 528.006769 
L 353.104809 543.593027 
L 358.084489 553.769412 
L 363.064168 573.870573 
L 368.043847 589.135529 
L 373.023526 594.835944 
L 378.003205 590.498792 
L 382.982884 575.922407 
L 387.962564 565.988433 
L 392.942243 555.123504 
L 397.921922 540.413009 
L 402.901601 532.301986 
L 407.88128 531.896976 
L 412.860959 539.237478 
L 417.840638 551.511691 
L 422.820318 574.563716 
L 427.799997 590.691395 
L 432.779676 591.085069 
L 437.759355 591.594132 
L 442.739034 581.061192 
L 447.718713 565.714639 
L 452.698392 553.178536 
L 457.678072 543.113076 
L 462.657751 529.91873 
L 467.63743 528.591423 
L 472.617109 541.942145 
L 477.596788 561.851216 
L 482.576467 578.170118 
L 487.556146 585.253601 
L 492.535826 598.463205 
L 497.515505 591.165476 
L 502.495184 576.680211 
L 507.474863 564.05077 
L 512.454542 551.895328 
L 517.434221 536.442449 
L 522.4139 533.2278 
L 527.39358 523.252432 
L 532.373259 541.950802 
L 537.352938 557.296003 
L 542.332617 577.48942 
L 547.312296 589.27478 
L 552.291975 591.203379 
L 557.271654 589.801401 
L 562.251334 578.395214 
L 567.231013 571.529522 
L 572.210692 545.330485 
L 577.190371 534.769382 
L 582.17005 526.552574 
L 587.149729 526.766848 
L 592.129408 537.601205 
L 597.109088 553.096019 
L 602.088767 577.086845 
L 607.068446 591.744259 
L 612.048125 601.442883 
L 617.027804 594.230945 
L 622.007483 569.757434 
L 626.987162 559.986871 
L 631.966842 553.445567 
L 636.946521 537.000319 
L 641.9262 528.650131 
L 646.905879 525.860784 
L 656.865237 556.942667 
L 661.844916 569.742825 
L 666.824596 589.535696 
L 671.804275 591.340845 
L 676.783954 587.682849 
L 681.763633 581.400459 
L 686.743312 567.78947 
L 691.722991 552.541937 
L 696.70267 535.856984 
L 701.68235 531.071264 
L 706.662029 532.072832 
L 711.641708 544.423068 
L 716.621387 550.099431 
L 721.601066 573.470432 
L 726.580745 581.966986 
L 731.560424 588.667995 
L 736.540104 582.402568 
L 741.519783 574.352689 
L 746.499462 564.651927 
L 751.479141 548.52322 
L 756.45882 538.189376 
L 761.438499 528.300854 
L 766.418178 522.030909 
L 771.397858 535.540443 
L 776.377537 559.971991 
L 781.357216 560.738453 
L 786.336895 578.873542 
L 791.316574 591.469328 
L 796.296253 589.27478 
L 801.275932 579.582378 
L 806.255612 571.498409 
L 816.21497 540.79881 
L 821.194649 527.192691 
L 826.174328 529.81024 
L 831.154007 537.886363 
L 836.133686 561.162131 
L 841.113366 583.368694 
L 846.093045 586.662343 
L 851.072724 597.774526 
L 856.052403 597.766653 
L 861.032082 584.945988 
L 866.011761 559.041848 
L 870.991441 551.998677 
L 875.97112 533.618201 
L 880.950799 525.927609 
L 885.930478 528.151782 
L 890.910157 535.782854 
L 895.889836 550.170856 
L 900.869515 569.322664 
L 905.849195 587.486161 
L 910.828874 591.152652 
L 915.808553 583.819968 
L 920.788232 574.786106 
L 925.767911 562.388795 
L 930.74759 546.328807 
L 935.727269 536.998695 
L 940.706949 531.432986 
L 945.686628 529.168501 
L 950.666307 542.069302 
L 955.645986 559.456598 
L 960.625665 569.04427 
L 965.605344 595.401957 
L 970.585023 586.57198 
L 975.564703 580.822028 
L 980.544382 573.42471 
L 985.524061 560.888878 
L 990.50374 551.271174 
L 995.483419 539.323242 
L 1000.463098 528.675834 
L 1005.442777 526.018243 
L 1015.402136 557.833852 
L 1020.381815 575.536065 
L 1025.361494 583.23315 
L 1030.341173 593.425578 
L 1035.320852 588.619621 
L 1040.300531 579.220926 
L 1045.280211 569.125705 
L 1050.25989 549.800476 
L 1055.239569 542.72511 
L 1060.219248 528.65446 
L 1065.198927 527.146156 
L 1070.178606 532.536821 
L 1075.158285 555.724391 
L 1080.137965 568.20936 
L 1085.117644 589.025848 
L 1090.097323 595.641419 
L 1095.077002 577.832745 
L 1100.056681 574.144096 
L 1105.03636 555.677045 
L 1110.016039 553.37306 
L 1114.995719 535.72198 
L 1119.975398 528.488073 
L 1119.975398 528.488073 
" style="fill:none;stroke:#ff0000;stroke-linecap:square;stroke-width:1.5;"/>
   </g>
   <g id="line2d_36">
    <path clip-path="url(#p2083094b92)" d="M 104.120852 545.747941 
L 109.100531 545.839927 
L 119.05989 570.970841 
L 124.039569 588.444685 
L 129.019248 594.640987 
L 133.998927 612.120864 
L 138.978606 606.373319 
L 143.958285 598.062497 
L 148.937965 576.895567 
L 153.917644 568.728812 
L 158.897323 555.864805 
L 163.877002 543.743993 
L 168.856681 547.80735 
L 173.83636 558.184752 
L 178.816039 575.353986 
L 183.795719 585.748974 
L 188.775398 599.317893 
L 193.755077 600.594175 
L 198.734756 598.902953 
L 203.714435 582.098472 
L 208.694114 578.656293 
L 213.673793 570.090479 
L 218.653473 554.19282 
L 223.633152 543.453425 
L 228.612831 544.585126 
L 233.59251 555.505788 
L 238.572189 572.416919 
L 243.551868 590.044272 
L 248.531547 601.44153 
L 253.511227 612.30703 
L 258.490906 596.642986 
L 263.470585 588.840848 
L 268.450264 583.642218 
L 273.429943 568.83676 
L 278.409622 554.905984 
L 283.389301 545.210092 
L 288.368981 549.113555 
L 293.34866 558.725577 
L 298.328339 571.645858 
L 303.308018 585.6091 
L 308.287697 607.017656 
L 313.267376 597.179429 
L 318.247055 608.1881 
L 323.226735 601.230693 
L 328.206414 584.900806 
L 333.186093 564.058074 
L 338.165772 554.392213 
L 343.145451 547.103385 
L 348.12513 545.681656 
L 353.104809 560.299083 
L 358.084489 570.082903 
L 363.064168 588.523658 
L 368.043847 600.144876 
L 373.023526 604.984678 
L 378.003205 602.504621 
L 382.982884 591.040861 
L 387.962564 581.775979 
L 392.942243 570.308811 
L 397.921922 556.574722 
L 402.901601 548.351422 
L 407.88128 548.510234 
L 412.860959 558.294054 
L 417.840638 569.584013 
L 422.820318 588.449014 
L 427.799997 602.604669 
L 432.779676 602.334933 
L 437.759355 602.850138 
L 442.739034 593.861566 
L 447.718713 580.342076 
L 452.698392 568.270233 
L 457.678072 558.202879 
L 462.657751 545.966002 
L 467.63743 545.506883 
L 472.617109 558.690947 
L 477.596788 576.944807 
L 482.576467 590.778322 
L 487.556146 597.8973 
L 492.535826 609.341553 
L 497.515505 603.10594 
L 507.474863 578.880847 
L 512.454542 567.815442 
L 517.434221 553.424193 
L 522.4139 549.087042 
L 527.39358 542.511648 
L 532.373259 559.446587 
L 537.352938 572.231053 
L 542.332617 593.125243 
L 547.312296 604.820348 
L 552.291975 605.167596 
L 557.271654 602.663811 
L 562.251334 592.562855 
L 567.231013 586.783007 
L 572.210692 562.982376 
L 577.190371 552.331451 
L 582.17005 545.008804 
L 587.149729 544.726623 
L 592.129408 557.216732 
L 597.109088 570.553927 
L 602.088767 590.371283 
L 607.068446 603.392505 
L 612.048125 614.865883 
L 617.027804 607.923612 
L 622.007483 584.649197 
L 626.987162 575.33099 
L 631.966842 569.477688 
L 636.946521 553.775094 
L 641.9262 546.341523 
L 646.905879 543.851671 
L 651.885558 557.350924 
L 656.865237 571.988372 
L 661.844916 583.562136 
L 666.824596 601.558109 
L 671.804275 602.196846 
L 676.783954 597.33521 
L 681.763633 593.387295 
L 686.743312 582.018931 
L 691.722991 567.831675 
L 696.70267 552.990505 
L 701.68235 546.575005 
L 706.662029 549.227726 
L 711.641708 560.13919 
L 716.621387 566.937785 
L 721.601066 587.008915 
L 726.580745 592.354046 
L 731.560424 598.304204 
L 736.540104 592.781025 
L 741.519783 587.607637 
L 746.499462 579.201446 
L 751.479141 565.414872 
L 756.45882 553.751556 
L 761.438499 543.974229 
L 766.418178 541.155121 
L 771.397858 553.154728 
L 776.377537 572.756186 
L 781.357216 579.916775 
L 786.336895 591.727891 
L 791.316574 602.233965 
L 796.296253 601.607376 
L 801.275932 592.218962 
L 806.255612 583.633019 
L 811.235291 570.18977 
L 816.21497 556.279825 
L 821.194649 544.569976 
L 826.174328 547.092834 
L 831.154007 556.735428 
L 836.133686 575.931876 
L 841.113366 597.627239 
L 846.093045 600.09193 
L 851.072724 607.846777 
L 856.052403 609.944225 
L 861.032082 597.942184 
L 866.011761 575.062606 
L 870.991441 566.65885 
L 875.97112 551.771687 
L 880.950799 543.578688 
L 885.930478 545.964379 
L 890.910157 554.001272 
L 895.889836 565.973282 
L 905.849195 597.169337 
L 910.828874 601.643413 
L 915.808553 596.690332 
L 920.788232 587.99314 
L 925.767911 577.083869 
L 930.74759 561.731363 
L 935.727269 553.422029 
L 940.706949 546.775481 
L 945.686628 545.501742 
L 950.666307 557.999157 
L 955.645986 576.260592 
L 960.625665 583.460139 
L 965.605344 607.693674 
L 970.585023 598.475326 
L 975.564703 595.074459 
L 980.544382 586.997552 
L 985.524061 575.53877 
L 990.50374 565.950556 
L 995.483419 555.006086 
L 1000.463098 545.230112 
L 1005.442777 543.018113 
L 1010.422457 556.40563 
L 1015.402136 571.534933 
L 1020.381815 587.921067 
L 1025.361494 592.896522 
L 1030.341173 604.143221 
L 1035.320852 599.000648 
L 1040.300531 591.130305 
L 1045.280211 582.886578 
L 1050.25989 565.3448 
L 1055.239569 556.668873 
L 1060.219248 544.924664 
L 1065.198927 543.176113 
L 1070.178606 550.683274 
L 1075.158285 569.307243 
L 1080.137965 583.691999 
L 1085.117644 602.504946 
L 1090.097323 605.861984 
L 1095.077002 591.21669 
L 1100.056681 587.163127 
L 1105.03636 572.384453 
L 1110.016039 567.281651 
L 1114.995719 551.54064 
L 1119.975398 544.694428 
L 1119.975398 544.694428 
" style="fill:none;stroke:#008000;stroke-linecap:square;stroke-width:1.5;"/>
   </g>
   <g id="line2d_37">
    <path clip-path="url(#p2083094b92)" d="M 104.120852 562.439116 
L 109.100531 563.641701 
L 114.080211 576.281424 
L 119.05989 585.448124 
L 124.039569 601.727635 
L 129.019248 606.935572 
L 133.998927 622.450838 
L 138.978606 617.552782 
L 143.958285 613.176944 
L 148.937965 590.754162 
L 153.917644 585.636967 
L 158.897323 574.326987 
L 163.877002 564.054828 
L 168.856681 564.980101 
L 173.83636 575.971917 
L 178.816039 589.439435 
L 183.795719 600.96028 
L 188.775398 610.229735 
L 193.755077 610.864007 
L 198.734756 610.821071 
L 203.714435 597.367595 
L 208.694114 593.859618 
L 213.673793 585.218429 
L 223.633152 561.367477 
L 228.612831 561.761665 
L 233.59251 574.559117 
L 238.572189 588.667887 
L 243.551868 602.105292 
L 248.531547 610.659824 
L 253.511227 623.062682 
L 258.490906 610.687393 
L 263.470585 602.95833 
L 268.450264 595.985799 
L 273.429943 585.960812 
L 278.409622 572.630923 
L 283.389301 562.822753 
L 288.368981 565.465464 
L 293.34866 574.775825 
L 298.328339 586.883651 
L 303.308018 599.811669 
L 308.287697 617.300068 
L 313.267376 606.366907 
L 318.247055 617.184501 
L 323.226735 613.404434 
L 328.206414 598.763351 
L 333.186093 582.300842 
L 338.165772 573.763165 
L 343.145451 565.726813 
L 348.12513 564.533156 
L 353.104809 576.734592 
L 358.084489 585.261446 
L 363.064168 600.814563 
L 368.043847 609.739123 
L 373.023526 614.951488 
L 378.003205 614.462447 
L 382.982884 605.861821 
L 387.962564 597.778908 
L 392.942243 586.240018 
L 397.921922 574.127052 
L 402.901601 568.068675 
L 407.88128 566.383433 
L 412.860959 576.949406 
L 417.840638 585.703792 
L 422.820318 601.125828 
L 427.799997 613.57834 
L 432.779676 612.818092 
L 437.759355 613.84892 
L 442.739034 606.980483 
L 447.718713 595.32577 
L 452.698392 584.230659 
L 457.678072 575.57827 
L 462.657751 563.516438 
L 467.63743 562.426942 
L 472.617109 575.472757 
L 477.596788 591.225619 
L 482.576467 602.342752 
L 487.556146 608.999987 
L 492.535826 619.093151 
L 497.515505 614.616053 
L 502.495184 604.747083 
L 507.474863 593.661928 
L 512.454542 585.205714 
L 517.434221 571.664526 
L 522.4139 566.452693 
L 527.39358 561.756795 
L 532.373259 575.874791 
L 537.352938 584.674628 
L 542.332617 606.242888 
L 547.312296 617.652941 
L 552.291975 617.95988 
L 557.271654 615.137769 
L 562.251334 606.364283 
L 567.231013 602.089114 
L 572.210692 580.39862 
L 577.190371 570.7379 
L 582.17005 564.588078 
L 587.149729 562.461572 
L 592.129408 576.06715 
L 597.109088 585.734093 
L 602.088767 602.179179 
L 607.068446 613.429417 
L 612.048125 626.321701 
L 617.027804 620.701693 
L 622.007483 599.685756 
L 626.987162 591.099868 
L 631.966842 587.125521 
L 636.946521 573.193932 
L 641.9262 565.948662 
L 646.905879 561.999476 
L 656.865237 585.612888 
L 661.844916 597.199503 
L 666.824596 611.559288 
L 671.804275 612.805184 
L 676.783954 606.590163 
L 681.763633 605.426699 
L 686.743312 596.745091 
L 691.722991 586.048199 
L 696.70267 572.855748 
L 701.68235 564.598629 
L 706.662029 568.021059 
L 711.641708 576.558194 
L 716.621387 583.884088 
L 721.601066 599.966774 
L 726.580745 602.734154 
L 731.560424 607.642188 
L 736.540104 603.918693 
L 741.519783 601.962173 
L 746.499462 594.679648 
L 751.479141 584.059944 
L 756.45882 570.383482 
L 761.438499 562.200764 
L 766.418178 560.489549 
L 771.397858 571.092858 
L 776.377537 585.336118 
L 781.357216 595.990831 
L 786.336895 602.692543 
L 791.316574 612.298879 
L 796.296253 613.390387 
L 801.275932 605.525341 
L 806.255612 596.556303 
L 811.235291 584.345101 
L 821.194649 563.730982 
L 826.174328 565.328837 
L 831.154007 575.092907 
L 836.133686 590.308543 
L 841.113366 609.462163 
L 846.093045 611.494004 
L 851.072724 617.061432 
L 856.052403 620.990232 
L 861.032082 611.588155 
L 866.011761 592.404503 
L 875.97112 570.694071 
L 880.950799 562.264884 
L 885.930478 564.293992 
L 890.910157 573.975004 
L 895.889836 581.763534 
L 900.869515 592.346173 
L 905.849195 607.001125 
L 910.828874 611.314604 
L 915.808553 607.71924 
L 920.788232 601.708263 
L 925.767911 592.343901 
L 930.74759 580.14187 
L 935.727269 572.198317 
L 940.706949 564.688451 
L 945.686628 564.487434 
L 950.666307 577.168821 
L 955.645986 594.209625 
L 960.625665 597.484742 
L 965.605344 619.348819 
L 970.585023 609.775214 
L 975.564703 609.910542 
L 980.544382 602.156453 
L 985.524061 592.636065 
L 995.483419 572.725885 
L 1000.463098 563.51752 
L 1005.442777 560.915932 
L 1010.422457 572.57032 
L 1015.402136 585.72733 
L 1020.381815 600.046045 
L 1025.361494 602.067578 
L 1030.341173 614.614724 
L 1035.320852 609.798292 
L 1040.300531 603.713185 
L 1045.280211 598.992856 
L 1050.25989 583.118978 
L 1055.239569 574.382449 
L 1060.219248 565.265259 
L 1065.198927 561.919665 
L 1070.178606 568.601654 
L 1075.158285 582.930677 
L 1085.117644 614.969262 
L 1090.097323 617.227158 
L 1095.077002 604.424915 
L 1100.056681 602.260154 
L 1105.03636 591.716176 
L 1110.016039 583.610564 
L 1114.995719 570.075869 
L 1119.975398 563.55702 
L 1119.975398 563.55702 
" style="fill:none;stroke:#0000ff;stroke-linecap:square;stroke-width:1.5;"/>
   </g>
   <g id="line2d_38">
    <defs>
     <path d="M 0 3 
C 0.795609 3 1.55874 2.683901 2.12132 2.12132 
C 2.683901 1.55874 3 0.795609 3 0 
C 3 -0.795609 2.683901 -1.55874 2.12132 -2.12132 
C 1.55874 -2.683901 0.795609 -3 0 -3 
C -0.795609 -3 -1.55874 -2.683901 -2.12132 -2.12132 
C -2.683901 -1.55874 -3 -0.795609 -3 0 
C -3 0.795609 -2.683901 1.55874 -2.12132 2.12132 
C -1.55874 2.683901 -0.795609 3 0 3 
z
" id="m05574fb901" style="stroke:#ff0000;"/>
    </defs>
    <g clip-path="url(#p2083094b92)">
     <use style="fill:#ff0000;stroke:#ff0000;" x="109.100531" xlink:href="#m05574fb901" y="639.849091"/>
     <use style="fill:#ff0000;stroke:#ff0000;" x="114.080211" xlink:href="#m05574fb901" y="639.849091"/>
     <use style="fill:#ff0000;stroke:#ff0000;" x="119.05989" xlink:href="#m05574fb901" y="639.849091"/>
     <use style="fill:#ff0000;stroke:#ff0000;" x="124.039569" xlink:href="#m05574fb901" y="639.849091"/>
     <use style="fill:#ff0000;stroke:#ff0000;" x="148.937965" xlink:href="#m05574fb901" y="639.849091"/>
     <use style="fill:#ff0000;stroke:#ff0000;" x="153.917644" xlink:href="#m05574fb901" y="639.849091"/>
     <use style="fill:#ff0000;stroke:#ff0000;" x="158.897323" xlink:href="#m05574fb901" y="639.849091"/>
     <use style="fill:#ff0000;stroke:#ff0000;" x="163.877002" xlink:href="#m05574fb901" y="639.849091"/>
     <use style="fill:#ff0000;stroke:#ff0000;" x="203.714435" xlink:href="#m05574fb901" y="639.849091"/>
     <use style="fill:#ff0000;stroke:#ff0000;" x="213.673793" xlink:href="#m05574fb901" y="639.849091"/>
     <use style="fill:#ff0000;stroke:#ff0000;" x="218.653473" xlink:href="#m05574fb901" y="639.849091"/>
     <use style="fill:#ff0000;stroke:#ff0000;" x="223.633152" xlink:href="#m05574fb901" y="639.849091"/>
     <use style="fill:#ff0000;stroke:#ff0000;" x="243.551868" xlink:href="#m05574fb901" y="639.849091"/>
     <use style="fill:#ff0000;stroke:#ff0000;" x="248.531547" xlink:href="#m05574fb901" y="639.849091"/>
     <use style="fill:#ff0000;stroke:#ff0000;" x="258.490906" xlink:href="#m05574fb901" y="639.849091"/>
     <use style="fill:#ff0000;stroke:#ff0000;" x="283.389301" xlink:href="#m05574fb901" y="639.849091"/>
     <use style="fill:#ff0000;stroke:#ff0000;" x="308.287697" xlink:href="#m05574fb901" y="639.849091"/>
     <use style="fill:#ff0000;stroke:#ff0000;" x="313.267376" xlink:href="#m05574fb901" y="639.849091"/>
     <use style="fill:#ff0000;stroke:#ff0000;" x="328.206414" xlink:href="#m05574fb901" y="639.849091"/>
     <use style="fill:#ff0000;stroke:#ff0000;" x="333.186093" xlink:href="#m05574fb901" y="639.849091"/>
     <use style="fill:#ff0000;stroke:#ff0000;" x="343.145451" xlink:href="#m05574fb901" y="639.849091"/>
     <use style="fill:#ff0000;stroke:#ff0000;" x="368.043847" xlink:href="#m05574fb901" y="639.849091"/>
     <use style="fill:#ff0000;stroke:#ff0000;" x="373.023526" xlink:href="#m05574fb901" y="639.849091"/>
     <use style="fill:#ff0000;stroke:#ff0000;" x="382.982884" xlink:href="#m05574fb901" y="639.849091"/>
     <use style="fill:#ff0000;stroke:#ff0000;" x="392.942243" xlink:href="#m05574fb901" y="639.849091"/>
     <use style="fill:#ff0000;stroke:#ff0000;" x="397.921922" xlink:href="#m05574fb901" y="639.849091"/>
     <use style="fill:#ff0000;stroke:#ff0000;" x="402.901601" xlink:href="#m05574fb901" y="639.849091"/>
     <use style="fill:#ff0000;stroke:#ff0000;" x="407.88128" xlink:href="#m05574fb901" y="639.849091"/>
     <use style="fill:#ff0000;stroke:#ff0000;" x="422.820318" xlink:href="#m05574fb901" y="639.849091"/>
     <use style="fill:#ff0000;stroke:#ff0000;" x="432.779676" xlink:href="#m05574fb901" y="639.849091"/>
     <use style="fill:#ff0000;stroke:#ff0000;" x="437.759355" xlink:href="#m05574fb901" y="639.849091"/>
     <use style="fill:#ff0000;stroke:#ff0000;" x="442.739034" xlink:href="#m05574fb901" y="639.849091"/>
     <use style="fill:#ff0000;stroke:#ff0000;" x="447.718713" xlink:href="#m05574fb901" y="639.849091"/>
     <use style="fill:#ff0000;stroke:#ff0000;" x="457.678072" xlink:href="#m05574fb901" y="639.849091"/>
     <use style="fill:#ff0000;stroke:#ff0000;" x="462.657751" xlink:href="#m05574fb901" y="639.849091"/>
     <use style="fill:#ff0000;stroke:#ff0000;" x="467.63743" xlink:href="#m05574fb901" y="639.849091"/>
     <use style="fill:#ff0000;stroke:#ff0000;" x="487.556146" xlink:href="#m05574fb901" y="639.849091"/>
     <use style="fill:#ff0000;stroke:#ff0000;" x="492.535826" xlink:href="#m05574fb901" y="639.849091"/>
     <use style="fill:#ff0000;stroke:#ff0000;" x="497.515505" xlink:href="#m05574fb901" y="639.849091"/>
     <use style="fill:#ff0000;stroke:#ff0000;" x="522.4139" xlink:href="#m05574fb901" y="639.849091"/>
     <use style="fill:#ff0000;stroke:#ff0000;" x="537.352938" xlink:href="#m05574fb901" y="639.849091"/>
     <use style="fill:#ff0000;stroke:#ff0000;" x="542.332617" xlink:href="#m05574fb901" y="639.849091"/>
     <use style="fill:#ff0000;stroke:#ff0000;" x="572.210692" xlink:href="#m05574fb901" y="639.849091"/>
     <use style="fill:#ff0000;stroke:#ff0000;" x="577.190371" xlink:href="#m05574fb901" y="639.849091"/>
     <use style="fill:#ff0000;stroke:#ff0000;" x="587.149729" xlink:href="#m05574fb901" y="639.849091"/>
     <use style="fill:#ff0000;stroke:#ff0000;" x="602.088767" xlink:href="#m05574fb901" y="639.849091"/>
     <use style="fill:#ff0000;stroke:#ff0000;" x="646.905879" xlink:href="#m05574fb901" y="639.849091"/>
     <use style="fill:#ff0000;stroke:#ff0000;" x="671.804275" xlink:href="#m05574fb901" y="639.849091"/>
     <use style="fill:#ff0000;stroke:#ff0000;" x="701.68235" xlink:href="#m05574fb901" y="639.849091"/>
     <use style="fill:#ff0000;stroke:#ff0000;" x="711.641708" xlink:href="#m05574fb901" y="639.849091"/>
     <use style="fill:#ff0000;stroke:#ff0000;" x="721.601066" xlink:href="#m05574fb901" y="639.849091"/>
     <use style="fill:#ff0000;stroke:#ff0000;" x="741.519783" xlink:href="#m05574fb901" y="639.849091"/>
     <use style="fill:#ff0000;stroke:#ff0000;" x="766.418178" xlink:href="#m05574fb901" y="639.849091"/>
     <use style="fill:#ff0000;stroke:#ff0000;" x="811.235291" xlink:href="#m05574fb901" y="639.849091"/>
     <use style="fill:#ff0000;stroke:#ff0000;" x="836.133686" xlink:href="#m05574fb901" y="639.849091"/>
     <use style="fill:#ff0000;stroke:#ff0000;" x="841.113366" xlink:href="#m05574fb901" y="639.849091"/>
     <use style="fill:#ff0000;stroke:#ff0000;" x="880.950799" xlink:href="#m05574fb901" y="639.849091"/>
     <use style="fill:#ff0000;stroke:#ff0000;" x="910.828874" xlink:href="#m05574fb901" y="639.849091"/>
     <use style="fill:#ff0000;stroke:#ff0000;" x="990.50374" xlink:href="#m05574fb901" y="639.849091"/>
     <use style="fill:#ff0000;stroke:#ff0000;" x="1030.341173" xlink:href="#m05574fb901" y="639.849091"/>
     <use style="fill:#ff0000;stroke:#ff0000;" x="1035.320852" xlink:href="#m05574fb901" y="639.849091"/>
     <use style="fill:#ff0000;stroke:#ff0000;" x="1065.198927" xlink:href="#m05574fb901" y="639.849091"/>
    </g>
   </g>
   <g id="patch_9">
    <path d="M 53.328125 645.74 
L 53.328125 516.14 
" style="fill:none;stroke:#000000;stroke-linecap:square;stroke-linejoin:miter;stroke-width:0.8;"/>
   </g>
   <g id="patch_10">
    <path d="M 1170.768125 645.74 
L 1170.768125 516.14 
" style="fill:none;stroke:#000000;stroke-linecap:square;stroke-linejoin:miter;stroke-width:0.8;"/>
   </g>
   <g id="patch_11">
    <path d="M 53.328125 645.74 
L 1170.768125 645.74 
" style="fill:none;stroke:#000000;stroke-linecap:square;stroke-linejoin:miter;stroke-width:0.8;"/>
   </g>
   <g id="patch_12">
    <path d="M 53.328125 516.14 
L 1170.768125 516.14 
" style="fill:none;stroke:#000000;stroke-linecap:square;stroke-linejoin:miter;stroke-width:0.8;"/>
   </g>
   <g id="legend_2">
    <g id="patch_13">
     <path d="M 60.328125 582.8525 
L 151.340625 582.8525 
Q 153.340625 582.8525 153.340625 580.8525 
L 153.340625 523.14 
Q 153.340625 521.14 151.340625 521.14 
L 60.328125 521.14 
Q 58.328125 521.14 58.328125 523.14 
L 58.328125 580.8525 
Q 58.328125 582.8525 60.328125 582.8525 
z
" style="fill:#ffffff;opacity:0.8;stroke:#cccccc;stroke-linejoin:miter;"/>
    </g>
    <g id="line2d_39">
     <path d="M 62.328125 529.238437 
L 82.328125 529.238437 
" style="fill:none;stroke:#ff0000;stroke-linecap:square;stroke-width:1.5;"/>
    </g>
    <g id="line2d_40"/>
    <g id="text_32">
     <!-- Maxmimum -->
     <defs>
      <path d="M 9.8125 72.90625 
L 24.515625 72.90625 
L 43.109375 23.296875 
L 61.8125 72.90625 
L 76.515625 72.90625 
L 76.515625 0 
L 66.890625 0 
L 66.890625 64.015625 
L 48.09375 14.015625 
L 38.1875 14.015625 
L 19.390625 64.015625 
L 19.390625 0 
L 9.8125 0 
z
" id="DejaVuSans-4d"/>
      <path d="M 54.890625 54.6875 
L 35.109375 28.078125 
L 55.90625 0 
L 45.3125 0 
L 29.390625 21.484375 
L 13.484375 0 
L 2.875 0 
L 24.125 28.609375 
L 4.6875 54.6875 
L 15.28125 54.6875 
L 29.78125 35.203125 
L 44.28125 54.6875 
z
" id="DejaVuSans-78"/>
     </defs>
     <g transform="translate(90.328125 532.738437)scale(0.1 -0.1)">
      <use xlink:href="#DejaVuSans-4d"/>
      <use x="86.279297" xlink:href="#DejaVuSans-61"/>
      <use x="147.558594" xlink:href="#DejaVuSans-78"/>
      <use x="206.738281" xlink:href="#DejaVuSans-6d"/>
      <use x="304.150391" xlink:href="#DejaVuSans-69"/>
      <use x="331.933594" xlink:href="#DejaVuSans-6d"/>
      <use x="429.345703" xlink:href="#DejaVuSans-75"/>
      <use x="492.724609" xlink:href="#DejaVuSans-6d"/>
     </g>
    </g>
    <g id="line2d_41">
     <path d="M 62.328125 543.916562 
L 82.328125 543.916562 
" style="fill:none;stroke:#008000;stroke-linecap:square;stroke-width:1.5;"/>
    </g>
    <g id="line2d_42"/>
    <g id="text_33">
     <!-- Average -->
     <defs>
      <path d="M 34.1875 63.1875 
L 20.796875 26.90625 
L 47.609375 26.90625 
z
M 28.609375 72.90625 
L 39.796875 72.90625 
L 67.578125 0 
L 57.328125 0 
L 50.6875 18.703125 
L 17.828125 18.703125 
L 11.1875 0 
L 0.78125 0 
z
" id="DejaVuSans-41"/>
      <path d="M 2.984375 54.6875 
L 12.5 54.6875 
L 29.59375 8.796875 
L 46.6875 54.6875 
L 56.203125 54.6875 
L 35.6875 0 
L 23.484375 0 
z
" id="DejaVuSans-76"/>
     </defs>
     <g transform="translate(90.328125 547.416562)scale(0.1 -0.1)">
      <use xlink:href="#DejaVuSans-41"/>
      <use x="68.330078" xlink:href="#DejaVuSans-76"/>
      <use x="127.509766" xlink:href="#DejaVuSans-65"/>
      <use x="189.033203" xlink:href="#DejaVuSans-72"/>
      <use x="230.146484" xlink:href="#DejaVuSans-61"/>
      <use x="291.425781" xlink:href="#DejaVuSans-67"/>
      <use x="354.902344" xlink:href="#DejaVuSans-65"/>
     </g>
    </g>
    <g id="line2d_43">
     <path d="M 62.328125 558.594687 
L 82.328125 558.594687 
" style="fill:none;stroke:#0000ff;stroke-linecap:square;stroke-width:1.5;"/>
    </g>
    <g id="line2d_44"/>
    <g id="text_34">
     <!-- Minimum -->
     <g transform="translate(90.328125 562.094687)scale(0.1 -0.1)">
      <use xlink:href="#DejaVuSans-4d"/>
      <use x="86.279297" xlink:href="#DejaVuSans-69"/>
      <use x="114.0625" xlink:href="#DejaVuSans-6e"/>
      <use x="177.441406" xlink:href="#DejaVuSans-69"/>
      <use x="205.224609" xlink:href="#DejaVuSans-6d"/>
      <use x="302.636719" xlink:href="#DejaVuSans-75"/>
      <use x="366.015625" xlink:href="#DejaVuSans-6d"/>
     </g>
    </g>
    <g id="line2d_45"/>
    <g id="line2d_46">
     <g>
      <use style="fill:#ff0000;stroke:#ff0000;" x="72.328125" xlink:href="#m05574fb901" y="573.272812"/>
     </g>
    </g>
    <g id="text_35">
     <!-- Disasters -->
     <g transform="translate(90.328125 576.772812)scale(0.1 -0.1)">
      <use xlink:href="#DejaVuSans-44"/>
      <use x="77.001953" xlink:href="#DejaVuSans-69"/>
      <use x="104.785156" xlink:href="#DejaVuSans-73"/>
      <use x="156.884766" xlink:href="#DejaVuSans-61"/>
      <use x="218.164062" xlink:href="#DejaVuSans-73"/>
      <use x="270.263672" xlink:href="#DejaVuSans-74"/>
      <use x="309.472656" xlink:href="#DejaVuSans-65"/>
      <use x="370.996094" xlink:href="#DejaVuSans-72"/>
      <use x="412.109375" xlink:href="#DejaVuSans-73"/>
     </g>
    </g>
   </g>
  </g>
 </g>
 <defs>
  <clipPath id="p5046ed70b2">
   <rect height="498.96" width="1116" x="53.328125" y="10.7"/>
  </clipPath>
  <clipPath id="p2083094b92">
   <rect height="129.6" width="1117.44" x="53.328125" y="516.14"/>
  </clipPath>
 </defs>
</svg>
