<?xml version="1.0" encoding="utf-8" standalone="no"?>
<!DOCTYPE svg PUBLIC "-//W3C//DTD SVG 1.1//EN"
  "http://www.w3.org/Graphics/SVG/1.1/DTD/svg11.dtd">
<!-- Created with matplotlib (http://matplotlib.org/) -->
<svg height="669pt" version="1.1" viewBox="0 0 1177 669" width="1177pt" xmlns="http://www.w3.org/2000/svg" xmlns:xlink="http://www.w3.org/1999/xlink">
 <defs>
  <style type="text/css">
*{stroke-linecap:butt;stroke-linejoin:round;}
  </style>
 </defs>
 <g id="figure_1">
  <g id="patch_1">
   <path d="M 0 669.618125 
L 1177.122813 669.618125 
L 1177.122813 -0 
L 0 -0 
z
" style="fill:none;"/>
  </g>
  <g id="axes_1">
   <g id="patch_2">
    <path d="M 48.982813 509.66 
L 1164.982812 509.66 
L 1164.982812 10.7 
L 48.982813 10.7 
z
" style="fill:none;"/>
   </g>
   <g id="matplotlib.axis_1">
    <g id="xtick_1">
     <g id="line2d_1">
      <defs>
       <path d="M 0 0 
L 0 3.5 
" id="m1918bf878b" style="stroke:#000000;stroke-width:0.8;"/>
      </defs>
      <g>
       <use style="stroke:#000000;stroke-width:0.8;" x="99.710085" xlink:href="#m1918bf878b" y="509.66"/>
      </g>
     </g>
     <g id="text_1">
      <!-- 0 -->
      <defs>
       <path d="M 31.78125 66.40625 
Q 24.171875 66.40625 20.328125 58.90625 
Q 16.5 51.421875 16.5 36.375 
Q 16.5 21.390625 20.328125 13.890625 
Q 24.171875 6.390625 31.78125 6.390625 
Q 39.453125 6.390625 43.28125 13.890625 
Q 47.125 21.390625 47.125 36.375 
Q 47.125 51.421875 43.28125 58.90625 
Q 39.453125 66.40625 31.78125 66.40625 
z
M 31.78125 74.21875 
Q 44.046875 74.21875 50.515625 64.515625 
Q 56.984375 54.828125 56.984375 36.375 
Q 56.984375 17.96875 50.515625 8.265625 
Q 44.046875 -1.421875 31.78125 -1.421875 
Q 19.53125 -1.421875 13.0625 8.265625 
Q 6.59375 17.96875 6.59375 36.375 
Q 6.59375 54.828125 13.0625 64.515625 
Q 19.53125 74.21875 31.78125 74.21875 
z
" id="DejaVuSans-30"/>
      </defs>
      <g transform="translate(96.528835 524.258437)scale(0.1 -0.1)">
       <use xlink:href="#DejaVuSans-30"/>
      </g>
     </g>
    </g>
    <g id="xtick_2">
     <g id="line2d_2">
      <g>
       <use style="stroke:#000000;stroke-width:0.8;" x="342.424309" xlink:href="#m1918bf878b" y="509.66"/>
      </g>
     </g>
     <g id="text_2">
      <!-- 50 -->
      <defs>
       <path d="M 10.796875 72.90625 
L 49.515625 72.90625 
L 49.515625 64.59375 
L 19.828125 64.59375 
L 19.828125 46.734375 
Q 21.96875 47.46875 24.109375 47.828125 
Q 26.265625 48.1875 28.421875 48.1875 
Q 40.625 48.1875 47.75 41.5 
Q 54.890625 34.8125 54.890625 23.390625 
Q 54.890625 11.625 47.5625 5.09375 
Q 40.234375 -1.421875 26.90625 -1.421875 
Q 22.3125 -1.421875 17.546875 -0.640625 
Q 12.796875 0.140625 7.71875 1.703125 
L 7.71875 11.625 
Q 12.109375 9.234375 16.796875 8.0625 
Q 21.484375 6.890625 26.703125 6.890625 
Q 35.15625 6.890625 40.078125 11.328125 
Q 45.015625 15.765625 45.015625 23.390625 
Q 45.015625 31 40.078125 35.4375 
Q 35.15625 39.890625 26.703125 39.890625 
Q 22.75 39.890625 18.8125 39.015625 
Q 14.890625 38.140625 10.796875 36.28125 
z
" id="DejaVuSans-35"/>
      </defs>
      <g transform="translate(336.061809 524.258437)scale(0.1 -0.1)">
       <use xlink:href="#DejaVuSans-35"/>
       <use x="63.623047" xlink:href="#DejaVuSans-30"/>
      </g>
     </g>
    </g>
    <g id="xtick_3">
     <g id="line2d_3">
      <g>
       <use style="stroke:#000000;stroke-width:0.8;" x="585.138532" xlink:href="#m1918bf878b" y="509.66"/>
      </g>
     </g>
     <g id="text_3">
      <!-- 100 -->
      <defs>
       <path d="M 12.40625 8.296875 
L 28.515625 8.296875 
L 28.515625 63.921875 
L 10.984375 60.40625 
L 10.984375 69.390625 
L 28.421875 72.90625 
L 38.28125 72.90625 
L 38.28125 8.296875 
L 54.390625 8.296875 
L 54.390625 0 
L 12.40625 0 
z
" id="DejaVuSans-31"/>
      </defs>
      <g transform="translate(575.594782 524.258437)scale(0.1 -0.1)">
       <use xlink:href="#DejaVuSans-31"/>
       <use x="63.623047" xlink:href="#DejaVuSans-30"/>
       <use x="127.246094" xlink:href="#DejaVuSans-30"/>
      </g>
     </g>
    </g>
    <g id="xtick_4">
     <g id="line2d_4">
      <g>
       <use style="stroke:#000000;stroke-width:0.8;" x="827.852756" xlink:href="#m1918bf878b" y="509.66"/>
      </g>
     </g>
     <g id="text_4">
      <!-- 150 -->
      <g transform="translate(818.309006 524.258437)scale(0.1 -0.1)">
       <use xlink:href="#DejaVuSans-31"/>
       <use x="63.623047" xlink:href="#DejaVuSans-35"/>
       <use x="127.246094" xlink:href="#DejaVuSans-30"/>
      </g>
     </g>
    </g>
    <g id="xtick_5">
     <g id="line2d_5">
      <g>
       <use style="stroke:#000000;stroke-width:0.8;" x="1070.56698" xlink:href="#m1918bf878b" y="509.66"/>
      </g>
     </g>
     <g id="text_5">
      <!-- 200 -->
      <defs>
       <path d="M 19.1875 8.296875 
L 53.609375 8.296875 
L 53.609375 0 
L 7.328125 0 
L 7.328125 8.296875 
Q 12.9375 14.109375 22.625 23.890625 
Q 32.328125 33.6875 34.8125 36.53125 
Q 39.546875 41.84375 41.421875 45.53125 
Q 43.3125 49.21875 43.3125 52.78125 
Q 43.3125 58.59375 39.234375 62.25 
Q 35.15625 65.921875 28.609375 65.921875 
Q 23.96875 65.921875 18.8125 64.3125 
Q 13.671875 62.703125 7.8125 59.421875 
L 7.8125 69.390625 
Q 13.765625 71.78125 18.9375 73 
Q 24.125 74.21875 28.421875 74.21875 
Q 39.75 74.21875 46.484375 68.546875 
Q 53.21875 62.890625 53.21875 53.421875 
Q 53.21875 48.921875 51.53125 44.890625 
Q 49.859375 40.875 45.40625 35.40625 
Q 44.1875 33.984375 37.640625 27.21875 
Q 31.109375 20.453125 19.1875 8.296875 
z
" id="DejaVuSans-32"/>
      </defs>
      <g transform="translate(1061.02323 524.258437)scale(0.1 -0.1)">
       <use xlink:href="#DejaVuSans-32"/>
       <use x="63.623047" xlink:href="#DejaVuSans-30"/>
       <use x="127.246094" xlink:href="#DejaVuSans-30"/>
      </g>
     </g>
    </g>
    <g id="text_6">
     <!-- Time -->
     <defs>
      <path d="M -0.296875 72.90625 
L 61.375 72.90625 
L 61.375 64.59375 
L 35.5 64.59375 
L 35.5 0 
L 25.59375 0 
L 25.59375 64.59375 
L -0.296875 64.59375 
z
" id="DejaVuSans-54"/>
      <path d="M 9.421875 54.6875 
L 18.40625 54.6875 
L 18.40625 0 
L 9.421875 0 
z
M 9.421875 75.984375 
L 18.40625 75.984375 
L 18.40625 64.59375 
L 9.421875 64.59375 
z
" id="DejaVuSans-69"/>
      <path d="M 52 44.1875 
Q 55.375 50.25 60.0625 53.125 
Q 64.75 56 71.09375 56 
Q 79.640625 56 84.28125 50.015625 
Q 88.921875 44.046875 88.921875 33.015625 
L 88.921875 0 
L 79.890625 0 
L 79.890625 32.71875 
Q 79.890625 40.578125 77.09375 44.375 
Q 74.3125 48.1875 68.609375 48.1875 
Q 61.625 48.1875 57.5625 43.546875 
Q 53.515625 38.921875 53.515625 30.90625 
L 53.515625 0 
L 44.484375 0 
L 44.484375 32.71875 
Q 44.484375 40.625 41.703125 44.40625 
Q 38.921875 48.1875 33.109375 48.1875 
Q 26.21875 48.1875 22.15625 43.53125 
Q 18.109375 38.875 18.109375 30.90625 
L 18.109375 0 
L 9.078125 0 
L 9.078125 54.6875 
L 18.109375 54.6875 
L 18.109375 46.1875 
Q 21.1875 51.21875 25.484375 53.609375 
Q 29.78125 56 35.6875 56 
Q 41.65625 56 45.828125 52.96875 
Q 50 49.953125 52 44.1875 
z
" id="DejaVuSans-6d"/>
      <path d="M 56.203125 29.59375 
L 56.203125 25.203125 
L 14.890625 25.203125 
Q 15.484375 15.921875 20.484375 11.0625 
Q 25.484375 6.203125 34.421875 6.203125 
Q 39.59375 6.203125 44.453125 7.46875 
Q 49.3125 8.734375 54.109375 11.28125 
L 54.109375 2.78125 
Q 49.265625 0.734375 44.1875 -0.34375 
Q 39.109375 -1.421875 33.890625 -1.421875 
Q 20.796875 -1.421875 13.15625 6.1875 
Q 5.515625 13.8125 5.515625 26.8125 
Q 5.515625 40.234375 12.765625 48.109375 
Q 20.015625 56 32.328125 56 
Q 43.359375 56 49.78125 48.890625 
Q 56.203125 41.796875 56.203125 29.59375 
z
M 47.21875 32.234375 
Q 47.125 39.59375 43.09375 43.984375 
Q 39.0625 48.390625 32.421875 48.390625 
Q 24.90625 48.390625 20.390625 44.140625 
Q 15.875 39.890625 15.1875 32.171875 
z
" id="DejaVuSans-65"/>
     </defs>
     <g transform="translate(594.595312 537.936562)scale(0.1 -0.1)">
      <use xlink:href="#DejaVuSans-54"/>
      <use x="61.037109" xlink:href="#DejaVuSans-69"/>
      <use x="88.820312" xlink:href="#DejaVuSans-6d"/>
      <use x="186.232422" xlink:href="#DejaVuSans-65"/>
     </g>
    </g>
   </g>
   <g id="matplotlib.axis_2">
    <g id="ytick_1">
     <g id="line2d_6">
      <defs>
       <path d="M 0 0 
L -3.5 0 
" id="mb2e613aa91" style="stroke:#000000;stroke-width:0.8;"/>
      </defs>
      <g>
       <use style="stroke:#000000;stroke-width:0.8;" x="48.982813" xlink:href="#mb2e613aa91" y="486.98"/>
      </g>
     </g>
     <g id="text_7">
      <!-- 0 -->
      <g transform="translate(35.620313 490.779219)scale(0.1 -0.1)">
       <use xlink:href="#DejaVuSans-30"/>
      </g>
     </g>
    </g>
    <g id="ytick_2">
     <g id="line2d_7">
      <g>
       <use style="stroke:#000000;stroke-width:0.8;" x="48.982813" xlink:href="#mb2e613aa91" y="418.501248"/>
      </g>
     </g>
     <g id="text_8">
      <!-- 10 -->
      <g transform="translate(29.257813 422.300467)scale(0.1 -0.1)">
       <use xlink:href="#DejaVuSans-31"/>
       <use x="63.623047" xlink:href="#DejaVuSans-30"/>
      </g>
     </g>
    </g>
    <g id="ytick_3">
     <g id="line2d_8">
      <g>
       <use style="stroke:#000000;stroke-width:0.8;" x="48.982813" xlink:href="#mb2e613aa91" y="350.022496"/>
      </g>
     </g>
     <g id="text_9">
      <!-- 20 -->
      <g transform="translate(29.257813 353.821715)scale(0.1 -0.1)">
       <use xlink:href="#DejaVuSans-32"/>
       <use x="63.623047" xlink:href="#DejaVuSans-30"/>
      </g>
     </g>
    </g>
    <g id="ytick_4">
     <g id="line2d_9">
      <g>
       <use style="stroke:#000000;stroke-width:0.8;" x="48.982813" xlink:href="#mb2e613aa91" y="281.543744"/>
      </g>
     </g>
     <g id="text_10">
      <!-- 30 -->
      <defs>
       <path d="M 40.578125 39.3125 
Q 47.65625 37.796875 51.625 33 
Q 55.609375 28.21875 55.609375 21.1875 
Q 55.609375 10.40625 48.1875 4.484375 
Q 40.765625 -1.421875 27.09375 -1.421875 
Q 22.515625 -1.421875 17.65625 -0.515625 
Q 12.796875 0.390625 7.625 2.203125 
L 7.625 11.71875 
Q 11.71875 9.328125 16.59375 8.109375 
Q 21.484375 6.890625 26.8125 6.890625 
Q 36.078125 6.890625 40.9375 10.546875 
Q 45.796875 14.203125 45.796875 21.1875 
Q 45.796875 27.640625 41.28125 31.265625 
Q 36.765625 34.90625 28.71875 34.90625 
L 20.21875 34.90625 
L 20.21875 43.015625 
L 29.109375 43.015625 
Q 36.375 43.015625 40.234375 45.921875 
Q 44.09375 48.828125 44.09375 54.296875 
Q 44.09375 59.90625 40.109375 62.90625 
Q 36.140625 65.921875 28.71875 65.921875 
Q 24.65625 65.921875 20.015625 65.03125 
Q 15.375 64.15625 9.8125 62.3125 
L 9.8125 71.09375 
Q 15.4375 72.65625 20.34375 73.4375 
Q 25.25 74.21875 29.59375 74.21875 
Q 40.828125 74.21875 47.359375 69.109375 
Q 53.90625 64.015625 53.90625 55.328125 
Q 53.90625 49.265625 50.4375 45.09375 
Q 46.96875 40.921875 40.578125 39.3125 
z
" id="DejaVuSans-33"/>
      </defs>
      <g transform="translate(29.257813 285.342962)scale(0.1 -0.1)">
       <use xlink:href="#DejaVuSans-33"/>
       <use x="63.623047" xlink:href="#DejaVuSans-30"/>
      </g>
     </g>
    </g>
    <g id="ytick_5">
     <g id="line2d_10">
      <g>
       <use style="stroke:#000000;stroke-width:0.8;" x="48.982813" xlink:href="#mb2e613aa91" y="213.064992"/>
      </g>
     </g>
     <g id="text_11">
      <!-- 40 -->
      <defs>
       <path d="M 37.796875 64.3125 
L 12.890625 25.390625 
L 37.796875 25.390625 
z
M 35.203125 72.90625 
L 47.609375 72.90625 
L 47.609375 25.390625 
L 58.015625 25.390625 
L 58.015625 17.1875 
L 47.609375 17.1875 
L 47.609375 0 
L 37.796875 0 
L 37.796875 17.1875 
L 4.890625 17.1875 
L 4.890625 26.703125 
z
" id="DejaVuSans-34"/>
      </defs>
      <g transform="translate(29.257813 216.86421)scale(0.1 -0.1)">
       <use xlink:href="#DejaVuSans-34"/>
       <use x="63.623047" xlink:href="#DejaVuSans-30"/>
      </g>
     </g>
    </g>
    <g id="ytick_6">
     <g id="line2d_11">
      <g>
       <use style="stroke:#000000;stroke-width:0.8;" x="48.982813" xlink:href="#mb2e613aa91" y="144.58624"/>
      </g>
     </g>
     <g id="text_12">
      <!-- 50 -->
      <g transform="translate(29.257813 148.385458)scale(0.1 -0.1)">
       <use xlink:href="#DejaVuSans-35"/>
       <use x="63.623047" xlink:href="#DejaVuSans-30"/>
      </g>
     </g>
    </g>
    <g id="ytick_7">
     <g id="line2d_12">
      <g>
       <use style="stroke:#000000;stroke-width:0.8;" x="48.982813" xlink:href="#mb2e613aa91" y="76.107487"/>
      </g>
     </g>
     <g id="text_13">
      <!-- 60 -->
      <defs>
       <path d="M 33.015625 40.375 
Q 26.375 40.375 22.484375 35.828125 
Q 18.609375 31.296875 18.609375 23.390625 
Q 18.609375 15.53125 22.484375 10.953125 
Q 26.375 6.390625 33.015625 6.390625 
Q 39.65625 6.390625 43.53125 10.953125 
Q 47.40625 15.53125 47.40625 23.390625 
Q 47.40625 31.296875 43.53125 35.828125 
Q 39.65625 40.375 33.015625 40.375 
z
M 52.59375 71.296875 
L 52.59375 62.3125 
Q 48.875 64.0625 45.09375 64.984375 
Q 41.3125 65.921875 37.59375 65.921875 
Q 27.828125 65.921875 22.671875 59.328125 
Q 17.53125 52.734375 16.796875 39.40625 
Q 19.671875 43.65625 24.015625 45.921875 
Q 28.375 48.1875 33.59375 48.1875 
Q 44.578125 48.1875 50.953125 41.515625 
Q 57.328125 34.859375 57.328125 23.390625 
Q 57.328125 12.15625 50.6875 5.359375 
Q 44.046875 -1.421875 33.015625 -1.421875 
Q 20.359375 -1.421875 13.671875 8.265625 
Q 6.984375 17.96875 6.984375 36.375 
Q 6.984375 53.65625 15.1875 63.9375 
Q 23.390625 74.21875 37.203125 74.21875 
Q 40.921875 74.21875 44.703125 73.484375 
Q 48.484375 72.75 52.59375 71.296875 
z
" id="DejaVuSans-36"/>
      </defs>
      <g transform="translate(29.257813 79.906706)scale(0.1 -0.1)">
       <use xlink:href="#DejaVuSans-36"/>
       <use x="63.623047" xlink:href="#DejaVuSans-30"/>
      </g>
     </g>
    </g>
    <g id="text_14">
     <!-- Refugees -->
     <defs>
      <path d="M 44.390625 34.1875 
Q 47.5625 33.109375 50.5625 29.59375 
Q 53.5625 26.078125 56.59375 19.921875 
L 66.609375 0 
L 56 0 
L 46.6875 18.703125 
Q 43.0625 26.03125 39.671875 28.421875 
Q 36.28125 30.8125 30.421875 30.8125 
L 19.671875 30.8125 
L 19.671875 0 
L 9.8125 0 
L 9.8125 72.90625 
L 32.078125 72.90625 
Q 44.578125 72.90625 50.734375 67.671875 
Q 56.890625 62.453125 56.890625 51.90625 
Q 56.890625 45.015625 53.6875 40.46875 
Q 50.484375 35.9375 44.390625 34.1875 
z
M 19.671875 64.796875 
L 19.671875 38.921875 
L 32.078125 38.921875 
Q 39.203125 38.921875 42.84375 42.21875 
Q 46.484375 45.515625 46.484375 51.90625 
Q 46.484375 58.296875 42.84375 61.546875 
Q 39.203125 64.796875 32.078125 64.796875 
z
" id="DejaVuSans-52"/>
      <path d="M 37.109375 75.984375 
L 37.109375 68.5 
L 28.515625 68.5 
Q 23.6875 68.5 21.796875 66.546875 
Q 19.921875 64.59375 19.921875 59.515625 
L 19.921875 54.6875 
L 34.71875 54.6875 
L 34.71875 47.703125 
L 19.921875 47.703125 
L 19.921875 0 
L 10.890625 0 
L 10.890625 47.703125 
L 2.296875 47.703125 
L 2.296875 54.6875 
L 10.890625 54.6875 
L 10.890625 58.5 
Q 10.890625 67.625 15.140625 71.796875 
Q 19.390625 75.984375 28.609375 75.984375 
z
" id="DejaVuSans-66"/>
      <path d="M 8.5 21.578125 
L 8.5 54.6875 
L 17.484375 54.6875 
L 17.484375 21.921875 
Q 17.484375 14.15625 20.5 10.265625 
Q 23.53125 6.390625 29.59375 6.390625 
Q 36.859375 6.390625 41.078125 11.03125 
Q 45.3125 15.671875 45.3125 23.6875 
L 45.3125 54.6875 
L 54.296875 54.6875 
L 54.296875 0 
L 45.3125 0 
L 45.3125 8.40625 
Q 42.046875 3.421875 37.71875 1 
Q 33.40625 -1.421875 27.6875 -1.421875 
Q 18.265625 -1.421875 13.375 4.4375 
Q 8.5 10.296875 8.5 21.578125 
z
M 31.109375 56 
z
" id="DejaVuSans-75"/>
      <path d="M 45.40625 27.984375 
Q 45.40625 37.75 41.375 43.109375 
Q 37.359375 48.484375 30.078125 48.484375 
Q 22.859375 48.484375 18.828125 43.109375 
Q 14.796875 37.75 14.796875 27.984375 
Q 14.796875 18.265625 18.828125 12.890625 
Q 22.859375 7.515625 30.078125 7.515625 
Q 37.359375 7.515625 41.375 12.890625 
Q 45.40625 18.265625 45.40625 27.984375 
z
M 54.390625 6.78125 
Q 54.390625 -7.171875 48.1875 -13.984375 
Q 42 -20.796875 29.203125 -20.796875 
Q 24.46875 -20.796875 20.265625 -20.09375 
Q 16.0625 -19.390625 12.109375 -17.921875 
L 12.109375 -9.1875 
Q 16.0625 -11.328125 19.921875 -12.34375 
Q 23.78125 -13.375 27.78125 -13.375 
Q 36.625 -13.375 41.015625 -8.765625 
Q 45.40625 -4.15625 45.40625 5.171875 
L 45.40625 9.625 
Q 42.625 4.78125 38.28125 2.390625 
Q 33.9375 0 27.875 0 
Q 17.828125 0 11.671875 7.65625 
Q 5.515625 15.328125 5.515625 27.984375 
Q 5.515625 40.671875 11.671875 48.328125 
Q 17.828125 56 27.875 56 
Q 33.9375 56 38.28125 53.609375 
Q 42.625 51.21875 45.40625 46.390625 
L 45.40625 54.6875 
L 54.390625 54.6875 
z
" id="DejaVuSans-67"/>
      <path d="M 44.28125 53.078125 
L 44.28125 44.578125 
Q 40.484375 46.53125 36.375 47.5 
Q 32.28125 48.484375 27.875 48.484375 
Q 21.1875 48.484375 17.84375 46.4375 
Q 14.5 44.390625 14.5 40.28125 
Q 14.5 37.15625 16.890625 35.375 
Q 19.28125 33.59375 26.515625 31.984375 
L 29.59375 31.296875 
Q 39.15625 29.25 43.1875 25.515625 
Q 47.21875 21.78125 47.21875 15.09375 
Q 47.21875 7.46875 41.1875 3.015625 
Q 35.15625 -1.421875 24.609375 -1.421875 
Q 20.21875 -1.421875 15.453125 -0.5625 
Q 10.6875 0.296875 5.421875 2 
L 5.421875 11.28125 
Q 10.40625 8.6875 15.234375 7.390625 
Q 20.0625 6.109375 24.8125 6.109375 
Q 31.15625 6.109375 34.5625 8.28125 
Q 37.984375 10.453125 37.984375 14.40625 
Q 37.984375 18.0625 35.515625 20.015625 
Q 33.0625 21.96875 24.703125 23.78125 
L 21.578125 24.515625 
Q 13.234375 26.265625 9.515625 29.90625 
Q 5.8125 33.546875 5.8125 39.890625 
Q 5.8125 47.609375 11.28125 51.796875 
Q 16.75 56 26.8125 56 
Q 31.78125 56 36.171875 55.265625 
Q 40.578125 54.546875 44.28125 53.078125 
z
" id="DejaVuSans-73"/>
     </defs>
     <g style="fill:#ff7f0e;" transform="translate(23.178125 283.588594)rotate(-90)scale(0.1 -0.1)">
      <use xlink:href="#DejaVuSans-52"/>
      <use x="69.419922" xlink:href="#DejaVuSans-65"/>
      <use x="130.943359" xlink:href="#DejaVuSans-66"/>
      <use x="166.148438" xlink:href="#DejaVuSans-75"/>
      <use x="229.527344" xlink:href="#DejaVuSans-67"/>
      <use x="293.003906" xlink:href="#DejaVuSans-65"/>
      <use x="354.527344" xlink:href="#DejaVuSans-65"/>
      <use x="416.050781" xlink:href="#DejaVuSans-73"/>
     </g>
    </g>
   </g>
   <g id="line2d_13">
    <path clip-path="url(#pb8b3f802f3)" d="M 99.710085 468.317137 
L 104.56437 477.17328 
L 109.418654 486.98 
L 119.127223 486.98 
L 123.981508 426.643098 
L 128.835792 486.98 
L 148.25293 486.98 
L 153.107214 443.688425 
L 157.961499 450.66242 
L 162.815783 438.530465 
L 167.670068 446.850347 
L 172.524352 479.015816 
L 177.378637 476.810501 
L 182.232921 412.755203 
L 187.087206 368.418441 
L 191.94149 350.022352 
L 196.795775 355.886099 
L 201.650059 388.020688 
L 206.504344 389.868226 
L 211.358628 326.688248 
L 216.212913 469.024298 
L 221.067197 478.81312 
L 225.921481 486.98 
L 235.63005 486.98 
L 240.484335 427.07015 
L 245.338619 454.265127 
L 250.192904 444.880995 
L 255.047188 454.55386 
L 259.901473 486.521877 
L 264.755757 482.82696 
L 269.610042 417.745189 
L 274.464326 449.711967 
L 279.318611 436.855169 
L 284.172895 444.818079 
L 289.02718 477.03561 
L 293.881464 475.22329 
L 298.735749 411.438795 
L 303.590033 304.839813 
L 308.444318 286.167648 
L 313.298602 292.431879 
L 318.152886 324.17561 
L 323.007171 326.733858 
L 327.861455 262.406218 
L 332.71574 385.254144 
L 337.570024 366.931192 
L 342.424309 372.688868 
L 347.278593 404.926935 
L 352.132878 406.586293 
L 356.987162 343.710212 
L 361.841447 361.047814 
L 366.695731 342.619673 
L 371.550016 348.529944 
L 376.4043 380.619132 
L 381.258585 382.549132 
L 386.112869 319.23608 
L 390.967154 420.996554 
L 395.821438 402.828874 
L 400.675722 408.361374 
L 405.530007 440.819217 
L 410.384291 442.078991 
L 415.238576 379.848104 
L 420.09286 294.015377 
L 424.947145 275.296165 
L 429.801429 281.628577 
L 434.655714 313.305694 
L 439.509998 315.985073 
L 444.364283 251.46201 
L 449.218567 456.880359 
L 454.072852 450.652131 
L 458.927136 461.452007 
L 463.781421 486.98 
L 468.635705 486.533904 
L 473.48999 419.736499 
L 478.344274 432.769772 
L 483.198558 414.653178 
L 488.052843 420.111587 
L 492.907127 452.64177 
L 497.761412 453.769941 
L 502.615696 391.751539 
L 507.469981 476.131602 
L 512.324265 486.98 
L 526.887119 486.98 
L 531.741403 431.362212 
L 536.595688 392.700272 
L 541.449972 374.409601 
L 546.304257 380.120484 
L 551.158541 412.404266 
L 556.012826 413.980417 
L 560.86711 351.238737 
L 565.721394 396.669264 
L 570.575679 378.395938 
L 575.429963 384.081691 
L 580.284248 416.389872 
L 585.138532 417.92164 
L 589.992817 355.251634 
L 594.847101 478.640314 
L 599.701386 486.98 
L 614.264239 486.98 
L 619.118524 432.877217 
L 623.972808 468.921759 
L 628.827093 478.575384 
L 633.681377 486.98 
L 643.389946 486.98 
L 648.244231 427.008233 
L 653.098515 417.962542 
L 657.952799 399.781631 
L 662.807084 405.33333 
L 667.661368 437.77245 
L 672.515653 439.066137 
L 677.369937 376.780459 
L 682.224222 463.600245 
L 687.078506 466.235139 
L 691.932791 480.025232 
L 696.787075 486.98 
L 701.64136 486.98 
L 706.495644 423.794608 
L 711.349929 459.038727 
L 716.204213 455.657258 
L 721.058498 467.417564 
L 725.912782 486.98 
L 730.767067 486.98 
L 735.621351 421.039924 
L 740.475635 443.535827 
L 745.32992 425.968502 
L 750.184204 431.612107 
L 755.038489 464.168104 
L 759.892773 464.909324 
L 764.747058 402.884515 
L 769.601342 486.98 
L 789.01848 486.98 
L 793.872765 437.944258 
L 798.727049 369.471886 
L 803.581334 351.080434 
L 808.435618 356.937467 
L 813.289903 389.078515 
L 818.144187 390.914324 
L 822.998471 327.753344 
L 827.852756 411.189632 
L 832.70704 392.979313 
L 837.561325 398.573677 
L 842.415609 430.971125 
L 847.269894 432.340565 
L 852.124178 369.932649 
L 856.978463 395.358224 
L 861.832747 377.079158 
L 866.687032 382.773199 
L 871.541316 415.073353 
L 876.395601 416.61975 
L 886.10417 292.076155 
L 890.958454 273.348519 
L 895.812739 279.693195 
L 900.667023 311.358387 
L 905.521307 314.05937 
L 910.375592 249.501328 
L 915.229876 312.380368 
L 920.084161 293.740986 
L 924.938445 299.957779 
L 929.79273 331.747772 
L 934.647014 334.221736 
L 939.501299 270.030208 
L 944.355583 221.002492 
L 949.209868 201.966164 
L 954.064152 208.758555 
L 958.918437 239.986809 
L 963.772721 243.482322 
L 968.627006 177.641349 
L 973.48129 175.580304 
L 978.335575 156.346673 
L 983.189859 163.425263 
L 988.044144 194.374214 
L 992.898428 198.377576 
L 997.752712 131.716668 
L 1002.606997 207.444668 
L 1007.461281 188.349461 
L 1012.315566 195.22722 
L 1017.16985 226.372195 
L 1022.024135 230.019298 
L 1026.878419 163.933504 
L 1031.732704 78.319756 
L 1036.586988 58.663827 
L 1041.441273 66.354991 
L 1046.295557 96.706127 
L 1051.149842 101.796659 
L 1056.004126 33.38 
L 1060.858411 142.507667 
L 1065.712695 123.130544 
L 1070.56698 130.417305 
L 1075.421264 161.162892 
L 1080.275548 165.536045 
L 1085.129833 98.278053 
L 1089.984117 285.53475 
L 1094.838402 266.778718 
L 1099.692686 273.16455 
L 1104.546971 304.789593 
L 1109.401255 307.563718 
L 1114.25554 242.887563 
L 1114.25554 242.887563 
" style="fill:none;stroke:#008000;stroke-dasharray:5.55,2.4;stroke-dashoffset:0;stroke-width:1.5;"/>
   </g>
   <g id="line2d_14">
    <path clip-path="url(#pb8b3f802f3)" d="M 99.710085 452.740624 
L 109.418654 480.132125 
L 114.272939 486.98 
L 119.127223 480.132125 
L 123.981508 486.98 
L 128.835792 473.28425 
L 133.690077 480.132125 
L 138.544361 480.132125 
L 143.398645 445.892749 
L 148.25293 439.044874 
L 153.107214 486.98 
L 157.961499 480.132125 
L 162.815783 432.196998 
L 167.670068 473.28425 
L 172.524352 466.436374 
L 177.378637 466.436374 
L 182.232921 473.28425 
L 187.087206 439.044874 
L 191.94149 480.132125 
L 196.795775 473.28425 
L 201.650059 480.132125 
L 206.504344 466.436374 
L 211.358628 466.436374 
L 216.212913 425.349123 
L 221.067197 363.718246 
L 230.775766 473.28425 
L 235.63005 466.436374 
L 240.484335 473.28425 
L 245.338619 445.892749 
L 250.192904 425.349123 
L 255.047188 452.740624 
L 259.901473 356.870371 
L 264.755757 445.892749 
L 269.610042 466.436374 
L 274.464326 439.044874 
L 279.318611 343.174621 
L 284.172895 391.109747 
L 289.02718 391.109747 
L 293.881464 370.566121 
L 298.735749 425.349123 
L 303.590033 397.957622 
L 308.444318 445.892749 
L 313.298602 384.261872 
L 318.152886 439.044874 
L 323.007171 439.044874 
L 327.861455 315.78312 
L 332.71574 363.718246 
L 337.570024 432.196998 
L 342.424309 391.109747 
L 347.278593 425.349123 
L 352.132878 439.044874 
L 356.987162 432.196998 
L 361.841447 384.261872 
L 366.695731 466.436374 
L 371.550016 418.501248 
L 376.4043 411.653373 
L 381.258585 411.653373 
L 386.112869 343.174621 
L 390.967154 329.47887 
L 395.821438 432.196998 
L 400.675722 370.566121 
L 405.530007 445.892749 
L 410.384291 425.349123 
L 415.238576 377.413997 
L 420.09286 397.957622 
L 424.947145 404.805497 
L 429.801429 425.349123 
L 434.655714 439.044874 
L 439.509998 445.892749 
L 444.364283 439.044874 
L 449.218567 356.870371 
L 454.072852 404.805497 
L 458.927136 432.196998 
L 463.781421 384.261872 
L 473.48999 439.044874 
L 478.344274 445.892749 
L 483.198558 466.436374 
L 488.052843 397.957622 
L 492.907127 411.653373 
L 497.761412 391.109747 
L 502.615696 425.349123 
L 507.469981 391.109747 
L 512.324265 452.740624 
L 517.17855 404.805497 
L 526.887119 445.892749 
L 531.741403 432.196998 
L 536.595688 432.196998 
L 541.449972 466.436374 
L 546.304257 439.044874 
L 551.158541 445.892749 
L 556.012826 418.501248 
L 560.86711 452.740624 
L 565.721394 459.588499 
L 570.575679 439.044874 
L 575.429963 459.588499 
L 580.284248 466.436374 
L 585.138532 466.436374 
L 589.992817 439.044874 
L 594.847101 452.740624 
L 599.701386 425.349123 
L 604.55567 445.892749 
L 609.409955 445.892749 
L 614.264239 459.588499 
L 619.118524 425.349123 
L 623.972808 459.588499 
L 628.827093 439.044874 
L 633.681377 459.588499 
L 638.535662 425.349123 
L 643.389946 459.588499 
L 648.244231 432.196998 
L 653.098515 391.109747 
L 657.952799 480.132125 
L 662.807084 459.588499 
L 667.661368 480.132125 
L 672.515653 466.436374 
L 677.369937 432.196998 
L 687.078506 459.588499 
L 691.932791 432.196998 
L 696.787075 459.588499 
L 701.64136 480.132125 
L 706.495644 391.109747 
L 711.349929 459.588499 
L 716.204213 439.044874 
L 721.058498 452.740624 
L 725.912782 432.196998 
L 730.767067 466.436374 
L 735.621351 459.588499 
L 740.475635 445.892749 
L 745.32992 452.740624 
L 750.184204 411.653373 
L 755.038489 445.892749 
L 759.892773 418.501248 
L 764.747058 425.349123 
L 769.601342 473.28425 
L 774.455627 466.436374 
L 779.309911 452.740624 
L 784.164196 432.196998 
L 789.01848 452.740624 
L 793.872765 418.501248 
L 798.727049 459.588499 
L 803.581334 356.870371 
L 808.435618 459.588499 
L 813.289903 452.740624 
L 818.144187 411.653373 
L 822.998471 418.501248 
L 827.852756 432.196998 
L 832.70704 418.501248 
L 837.561325 445.892749 
L 842.415609 486.98 
L 847.269894 445.892749 
L 852.124178 452.740624 
L 856.978463 350.022496 
L 861.832747 418.501248 
L 866.687032 432.196998 
L 871.541316 459.588499 
L 876.395601 384.261872 
L 881.249885 261.000118 
L 886.10417 274.695869 
L 890.958454 384.261872 
L 895.812739 370.566121 
L 900.667023 411.653373 
L 905.521307 288.391619 
L 910.375592 274.695869 
L 915.229876 377.413997 
L 920.084161 308.935245 
L 924.938445 288.391619 
L 929.79273 308.935245 
L 934.647014 288.391619 
L 939.501299 302.087369 
L 944.355583 233.608617 
L 949.209868 254.152243 
L 954.064152 254.152243 
L 958.918437 151.434115 
L 963.772721 254.152243 
L 968.627006 89.803238 
L 973.48129 158.28199 
L 978.335575 89.803238 
L 983.189859 96.651113 
L 988.044144 117.194739 
L 992.898428 144.58624 
L 997.752712 226.760742 
L 1002.606997 165.129865 
L 1007.461281 199.369241 
L 1012.315566 247.304368 
L 1017.16985 233.608617 
L 1022.024135 48.715987 
L 1026.878419 206.217116 
L 1031.732704 130.890489 
L 1036.586988 117.194739 
L 1041.441273 281.543744 
L 1046.295557 171.97774 
L 1051.149842 76.107487 
L 1056.004126 192.521366 
L 1060.858411 274.695869 
L 1065.712695 226.760742 
L 1070.56698 192.521366 
L 1075.421264 247.304368 
L 1080.275548 226.760742 
L 1085.129833 377.413997 
L 1089.984117 397.957622 
L 1094.838402 281.543744 
L 1099.692686 233.608617 
L 1104.546971 233.608617 
L 1109.401255 302.087369 
L 1114.25554 124.042614 
L 1114.25554 124.042614 
" style="fill:none;stroke:#ff7f0e;stroke-linecap:square;stroke-width:1.5;"/>
   </g>
   <g id="line2d_15">
    <defs>
     <path d="M 0 3 
C 0.795609 3 1.55874 2.683901 2.12132 2.12132 
C 2.683901 1.55874 3 0.795609 3 0 
C 3 -0.795609 2.683901 -1.55874 2.12132 -2.12132 
C 1.55874 -2.683901 0.795609 -3 0 -3 
C -0.795609 -3 -1.55874 -2.683901 -2.12132 -2.12132 
C -2.683901 -1.55874 -3 -0.795609 -3 0 
C -3 0.795609 -2.683901 1.55874 -2.12132 2.12132 
C -1.55874 2.683901 -0.795609 3 0 3 
z
" id="md407e58f52" style="stroke:#008000;"/>
    </defs>
    <g clip-path="url(#pb8b3f802f3)">
     <use style="fill:#008000;stroke:#008000;" x="99.710085" xlink:href="#md407e58f52" y="468.317137"/>
     <use style="fill:#008000;stroke:#008000;" x="128.835792" xlink:href="#md407e58f52" y="486.98"/>
     <use style="fill:#008000;stroke:#008000;" x="157.961499" xlink:href="#md407e58f52" y="450.66242"/>
     <use style="fill:#008000;stroke:#008000;" x="187.087206" xlink:href="#md407e58f52" y="368.418441"/>
     <use style="fill:#008000;stroke:#008000;" x="216.212913" xlink:href="#md407e58f52" y="469.024298"/>
     <use style="fill:#008000;stroke:#008000;" x="245.338619" xlink:href="#md407e58f52" y="454.265127"/>
     <use style="fill:#008000;stroke:#008000;" x="274.464326" xlink:href="#md407e58f52" y="449.711967"/>
     <use style="fill:#008000;stroke:#008000;" x="303.590033" xlink:href="#md407e58f52" y="304.839813"/>
     <use style="fill:#008000;stroke:#008000;" x="332.71574" xlink:href="#md407e58f52" y="385.254144"/>
     <use style="fill:#008000;stroke:#008000;" x="361.841447" xlink:href="#md407e58f52" y="361.047814"/>
     <use style="fill:#008000;stroke:#008000;" x="390.967154" xlink:href="#md407e58f52" y="420.996554"/>
     <use style="fill:#008000;stroke:#008000;" x="420.09286" xlink:href="#md407e58f52" y="294.015377"/>
     <use style="fill:#008000;stroke:#008000;" x="449.218567" xlink:href="#md407e58f52" y="456.880359"/>
     <use style="fill:#008000;stroke:#008000;" x="478.344274" xlink:href="#md407e58f52" y="432.769772"/>
     <use style="fill:#008000;stroke:#008000;" x="507.469981" xlink:href="#md407e58f52" y="476.131602"/>
     <use style="fill:#008000;stroke:#008000;" x="536.595688" xlink:href="#md407e58f52" y="392.700272"/>
     <use style="fill:#008000;stroke:#008000;" x="565.721394" xlink:href="#md407e58f52" y="396.669264"/>
     <use style="fill:#008000;stroke:#008000;" x="594.847101" xlink:href="#md407e58f52" y="478.640314"/>
     <use style="fill:#008000;stroke:#008000;" x="623.972808" xlink:href="#md407e58f52" y="468.921759"/>
     <use style="fill:#008000;stroke:#008000;" x="653.098515" xlink:href="#md407e58f52" y="417.962542"/>
     <use style="fill:#008000;stroke:#008000;" x="682.224222" xlink:href="#md407e58f52" y="463.600245"/>
     <use style="fill:#008000;stroke:#008000;" x="711.349929" xlink:href="#md407e58f52" y="459.038727"/>
     <use style="fill:#008000;stroke:#008000;" x="740.475635" xlink:href="#md407e58f52" y="443.535827"/>
     <use style="fill:#008000;stroke:#008000;" x="769.601342" xlink:href="#md407e58f52" y="486.98"/>
     <use style="fill:#008000;stroke:#008000;" x="798.727049" xlink:href="#md407e58f52" y="369.471886"/>
     <use style="fill:#008000;stroke:#008000;" x="827.852756" xlink:href="#md407e58f52" y="411.189632"/>
     <use style="fill:#008000;stroke:#008000;" x="856.978463" xlink:href="#md407e58f52" y="395.358224"/>
     <use style="fill:#008000;stroke:#008000;" x="886.10417" xlink:href="#md407e58f52" y="292.076155"/>
     <use style="fill:#008000;stroke:#008000;" x="915.229876" xlink:href="#md407e58f52" y="312.380368"/>
     <use style="fill:#008000;stroke:#008000;" x="944.355583" xlink:href="#md407e58f52" y="221.002492"/>
     <use style="fill:#008000;stroke:#008000;" x="973.48129" xlink:href="#md407e58f52" y="175.580304"/>
     <use style="fill:#008000;stroke:#008000;" x="1002.606997" xlink:href="#md407e58f52" y="207.444668"/>
     <use style="fill:#008000;stroke:#008000;" x="1031.732704" xlink:href="#md407e58f52" y="78.319756"/>
     <use style="fill:#008000;stroke:#008000;" x="1060.858411" xlink:href="#md407e58f52" y="142.507667"/>
     <use style="fill:#008000;stroke:#008000;" x="1089.984117" xlink:href="#md407e58f52" y="285.53475"/>
    </g>
   </g>
   <g id="patch_3">
    <path d="M 48.982813 509.66 
L 48.982813 10.7 
" style="fill:none;stroke:#000000;stroke-linecap:square;stroke-linejoin:miter;stroke-width:0.8;"/>
   </g>
   <g id="patch_4">
    <path d="M 1164.982812 509.66 
L 1164.982812 10.7 
" style="fill:none;stroke:#000000;stroke-linecap:square;stroke-linejoin:miter;stroke-width:0.8;"/>
   </g>
   <g id="patch_5">
    <path d="M 48.982813 509.66 
L 1164.982812 509.66 
" style="fill:none;stroke:#000000;stroke-linecap:square;stroke-linejoin:miter;stroke-width:0.8;"/>
   </g>
   <g id="patch_6">
    <path d="M 48.982813 10.7 
L 1164.982812 10.7 
" style="fill:none;stroke:#000000;stroke-linecap:square;stroke-linejoin:miter;stroke-width:0.8;"/>
   </g>
   <g id="legend_1">
    <g id="patch_7">
     <path d="M 55.982813 62.734375 
L 203.757813 62.734375 
Q 205.757813 62.734375 205.757813 60.734375 
L 205.757813 17.7 
Q 205.757813 15.7 203.757813 15.7 
L 55.982813 15.7 
Q 53.982813 15.7 53.982813 17.7 
L 53.982813 60.734375 
Q 53.982813 62.734375 55.982813 62.734375 
z
" style="fill:#ffffff;opacity:0.8;stroke:#cccccc;stroke-linejoin:miter;"/>
    </g>
    <g id="line2d_16">
     <path d="M 57.982813 23.798437 
L 77.982813 23.798437 
" style="fill:none;stroke:#008000;stroke-dasharray:5.55,2.4;stroke-dashoffset:0;stroke-width:1.5;"/>
    </g>
    <g id="line2d_17"/>
    <g id="text_15">
     <!-- Predicated -->
     <defs>
      <path d="M 19.671875 64.796875 
L 19.671875 37.40625 
L 32.078125 37.40625 
Q 38.96875 37.40625 42.71875 40.96875 
Q 46.484375 44.53125 46.484375 51.125 
Q 46.484375 57.671875 42.71875 61.234375 
Q 38.96875 64.796875 32.078125 64.796875 
z
M 9.8125 72.90625 
L 32.078125 72.90625 
Q 44.34375 72.90625 50.609375 67.359375 
Q 56.890625 61.8125 56.890625 51.125 
Q 56.890625 40.328125 50.609375 34.8125 
Q 44.34375 29.296875 32.078125 29.296875 
L 19.671875 29.296875 
L 19.671875 0 
L 9.8125 0 
z
" id="DejaVuSans-50"/>
      <path d="M 41.109375 46.296875 
Q 39.59375 47.171875 37.8125 47.578125 
Q 36.03125 48 33.890625 48 
Q 26.265625 48 22.1875 43.046875 
Q 18.109375 38.09375 18.109375 28.8125 
L 18.109375 0 
L 9.078125 0 
L 9.078125 54.6875 
L 18.109375 54.6875 
L 18.109375 46.1875 
Q 20.953125 51.171875 25.484375 53.578125 
Q 30.03125 56 36.53125 56 
Q 37.453125 56 38.578125 55.875 
Q 39.703125 55.765625 41.0625 55.515625 
z
" id="DejaVuSans-72"/>
      <path d="M 45.40625 46.390625 
L 45.40625 75.984375 
L 54.390625 75.984375 
L 54.390625 0 
L 45.40625 0 
L 45.40625 8.203125 
Q 42.578125 3.328125 38.25 0.953125 
Q 33.9375 -1.421875 27.875 -1.421875 
Q 17.96875 -1.421875 11.734375 6.484375 
Q 5.515625 14.40625 5.515625 27.296875 
Q 5.515625 40.1875 11.734375 48.09375 
Q 17.96875 56 27.875 56 
Q 33.9375 56 38.25 53.625 
Q 42.578125 51.265625 45.40625 46.390625 
z
M 14.796875 27.296875 
Q 14.796875 17.390625 18.875 11.75 
Q 22.953125 6.109375 30.078125 6.109375 
Q 37.203125 6.109375 41.296875 11.75 
Q 45.40625 17.390625 45.40625 27.296875 
Q 45.40625 37.203125 41.296875 42.84375 
Q 37.203125 48.484375 30.078125 48.484375 
Q 22.953125 48.484375 18.875 42.84375 
Q 14.796875 37.203125 14.796875 27.296875 
z
" id="DejaVuSans-64"/>
      <path d="M 48.78125 52.59375 
L 48.78125 44.1875 
Q 44.96875 46.296875 41.140625 47.34375 
Q 37.3125 48.390625 33.40625 48.390625 
Q 24.65625 48.390625 19.8125 42.84375 
Q 14.984375 37.3125 14.984375 27.296875 
Q 14.984375 17.28125 19.8125 11.734375 
Q 24.65625 6.203125 33.40625 6.203125 
Q 37.3125 6.203125 41.140625 7.25 
Q 44.96875 8.296875 48.78125 10.40625 
L 48.78125 2.09375 
Q 45.015625 0.34375 40.984375 -0.53125 
Q 36.96875 -1.421875 32.421875 -1.421875 
Q 20.0625 -1.421875 12.78125 6.34375 
Q 5.515625 14.109375 5.515625 27.296875 
Q 5.515625 40.671875 12.859375 48.328125 
Q 20.21875 56 33.015625 56 
Q 37.15625 56 41.109375 55.140625 
Q 45.0625 54.296875 48.78125 52.59375 
z
" id="DejaVuSans-63"/>
      <path d="M 34.28125 27.484375 
Q 23.390625 27.484375 19.1875 25 
Q 14.984375 22.515625 14.984375 16.5 
Q 14.984375 11.71875 18.140625 8.90625 
Q 21.296875 6.109375 26.703125 6.109375 
Q 34.1875 6.109375 38.703125 11.40625 
Q 43.21875 16.703125 43.21875 25.484375 
L 43.21875 27.484375 
z
M 52.203125 31.203125 
L 52.203125 0 
L 43.21875 0 
L 43.21875 8.296875 
Q 40.140625 3.328125 35.546875 0.953125 
Q 30.953125 -1.421875 24.3125 -1.421875 
Q 15.921875 -1.421875 10.953125 3.296875 
Q 6 8.015625 6 15.921875 
Q 6 25.140625 12.171875 29.828125 
Q 18.359375 34.515625 30.609375 34.515625 
L 43.21875 34.515625 
L 43.21875 35.40625 
Q 43.21875 41.609375 39.140625 45 
Q 35.0625 48.390625 27.6875 48.390625 
Q 23 48.390625 18.546875 47.265625 
Q 14.109375 46.140625 10.015625 43.890625 
L 10.015625 52.203125 
Q 14.9375 54.109375 19.578125 55.046875 
Q 24.21875 56 28.609375 56 
Q 40.484375 56 46.34375 49.84375 
Q 52.203125 43.703125 52.203125 31.203125 
z
" id="DejaVuSans-61"/>
      <path d="M 18.3125 70.21875 
L 18.3125 54.6875 
L 36.8125 54.6875 
L 36.8125 47.703125 
L 18.3125 47.703125 
L 18.3125 18.015625 
Q 18.3125 11.328125 20.140625 9.421875 
Q 21.96875 7.515625 27.59375 7.515625 
L 36.8125 7.515625 
L 36.8125 0 
L 27.59375 0 
Q 17.1875 0 13.234375 3.875 
Q 9.28125 7.765625 9.28125 18.015625 
L 9.28125 47.703125 
L 2.6875 47.703125 
L 2.6875 54.6875 
L 9.28125 54.6875 
L 9.28125 70.21875 
z
" id="DejaVuSans-74"/>
     </defs>
     <g transform="translate(85.982813 27.298437)scale(0.1 -0.1)">
      <use xlink:href="#DejaVuSans-50"/>
      <use x="60.287109" xlink:href="#DejaVuSans-72"/>
      <use x="101.369141" xlink:href="#DejaVuSans-65"/>
      <use x="162.892578" xlink:href="#DejaVuSans-64"/>
      <use x="226.369141" xlink:href="#DejaVuSans-69"/>
      <use x="254.152344" xlink:href="#DejaVuSans-63"/>
      <use x="309.132812" xlink:href="#DejaVuSans-61"/>
      <use x="370.412109" xlink:href="#DejaVuSans-74"/>
      <use x="409.621094" xlink:href="#DejaVuSans-65"/>
      <use x="471.144531" xlink:href="#DejaVuSans-64"/>
     </g>
    </g>
    <g id="line2d_18">
     <path d="M 57.982813 38.476562 
L 77.982813 38.476562 
" style="fill:none;stroke:#ff7f0e;stroke-linecap:square;stroke-width:1.5;"/>
    </g>
    <g id="line2d_19"/>
    <g id="text_16">
     <!-- Real Data -->
     <defs>
      <path d="M 9.421875 75.984375 
L 18.40625 75.984375 
L 18.40625 0 
L 9.421875 0 
z
" id="DejaVuSans-6c"/>
      <path id="DejaVuSans-20"/>
      <path d="M 19.671875 64.796875 
L 19.671875 8.109375 
L 31.59375 8.109375 
Q 46.6875 8.109375 53.6875 14.9375 
Q 60.6875 21.78125 60.6875 36.53125 
Q 60.6875 51.171875 53.6875 57.984375 
Q 46.6875 64.796875 31.59375 64.796875 
z
M 9.8125 72.90625 
L 30.078125 72.90625 
Q 51.265625 72.90625 61.171875 64.09375 
Q 71.09375 55.28125 71.09375 36.53125 
Q 71.09375 17.671875 61.125 8.828125 
Q 51.171875 0 30.078125 0 
L 9.8125 0 
z
" id="DejaVuSans-44"/>
     </defs>
     <g transform="translate(85.982813 41.976562)scale(0.1 -0.1)">
      <use xlink:href="#DejaVuSans-52"/>
      <use x="69.419922" xlink:href="#DejaVuSans-65"/>
      <use x="130.943359" xlink:href="#DejaVuSans-61"/>
      <use x="192.222656" xlink:href="#DejaVuSans-6c"/>
      <use x="220.005859" xlink:href="#DejaVuSans-20"/>
      <use x="251.792969" xlink:href="#DejaVuSans-44"/>
      <use x="328.794922" xlink:href="#DejaVuSans-61"/>
      <use x="390.074219" xlink:href="#DejaVuSans-74"/>
      <use x="429.283203" xlink:href="#DejaVuSans-61"/>
     </g>
    </g>
    <g id="line2d_20"/>
    <g id="line2d_21">
     <g>
      <use style="fill:#008000;stroke:#008000;" x="67.982813" xlink:href="#md407e58f52" y="53.154688"/>
     </g>
    </g>
    <g id="text_17">
     <!-- Start Point for Forecast -->
     <defs>
      <path d="M 53.515625 70.515625 
L 53.515625 60.890625 
Q 47.90625 63.578125 42.921875 64.890625 
Q 37.9375 66.21875 33.296875 66.21875 
Q 25.25 66.21875 20.875 63.09375 
Q 16.5 59.96875 16.5 54.203125 
Q 16.5 49.359375 19.40625 46.890625 
Q 22.3125 44.4375 30.421875 42.921875 
L 36.375 41.703125 
Q 47.40625 39.59375 52.65625 34.296875 
Q 57.90625 29 57.90625 20.125 
Q 57.90625 9.515625 50.796875 4.046875 
Q 43.703125 -1.421875 29.984375 -1.421875 
Q 24.8125 -1.421875 18.96875 -0.25 
Q 13.140625 0.921875 6.890625 3.21875 
L 6.890625 13.375 
Q 12.890625 10.015625 18.65625 8.296875 
Q 24.421875 6.59375 29.984375 6.59375 
Q 38.421875 6.59375 43.015625 9.90625 
Q 47.609375 13.234375 47.609375 19.390625 
Q 47.609375 24.75 44.3125 27.78125 
Q 41.015625 30.8125 33.5 32.328125 
L 27.484375 33.5 
Q 16.453125 35.6875 11.515625 40.375 
Q 6.59375 45.0625 6.59375 53.421875 
Q 6.59375 63.09375 13.40625 68.65625 
Q 20.21875 74.21875 32.171875 74.21875 
Q 37.3125 74.21875 42.625 73.28125 
Q 47.953125 72.359375 53.515625 70.515625 
z
" id="DejaVuSans-53"/>
      <path d="M 30.609375 48.390625 
Q 23.390625 48.390625 19.1875 42.75 
Q 14.984375 37.109375 14.984375 27.296875 
Q 14.984375 17.484375 19.15625 11.84375 
Q 23.34375 6.203125 30.609375 6.203125 
Q 37.796875 6.203125 41.984375 11.859375 
Q 46.1875 17.53125 46.1875 27.296875 
Q 46.1875 37.015625 41.984375 42.703125 
Q 37.796875 48.390625 30.609375 48.390625 
z
M 30.609375 56 
Q 42.328125 56 49.015625 48.375 
Q 55.71875 40.765625 55.71875 27.296875 
Q 55.71875 13.875 49.015625 6.21875 
Q 42.328125 -1.421875 30.609375 -1.421875 
Q 18.84375 -1.421875 12.171875 6.21875 
Q 5.515625 13.875 5.515625 27.296875 
Q 5.515625 40.765625 12.171875 48.375 
Q 18.84375 56 30.609375 56 
z
" id="DejaVuSans-6f"/>
      <path d="M 54.890625 33.015625 
L 54.890625 0 
L 45.90625 0 
L 45.90625 32.71875 
Q 45.90625 40.484375 42.875 44.328125 
Q 39.84375 48.1875 33.796875 48.1875 
Q 26.515625 48.1875 22.3125 43.546875 
Q 18.109375 38.921875 18.109375 30.90625 
L 18.109375 0 
L 9.078125 0 
L 9.078125 54.6875 
L 18.109375 54.6875 
L 18.109375 46.1875 
Q 21.34375 51.125 25.703125 53.5625 
Q 30.078125 56 35.796875 56 
Q 45.21875 56 50.046875 50.171875 
Q 54.890625 44.34375 54.890625 33.015625 
z
" id="DejaVuSans-6e"/>
      <path d="M 9.8125 72.90625 
L 51.703125 72.90625 
L 51.703125 64.59375 
L 19.671875 64.59375 
L 19.671875 43.109375 
L 48.578125 43.109375 
L 48.578125 34.8125 
L 19.671875 34.8125 
L 19.671875 0 
L 9.8125 0 
z
" id="DejaVuSans-46"/>
     </defs>
     <g transform="translate(85.982813 56.654688)scale(0.1 -0.1)">
      <use xlink:href="#DejaVuSans-53"/>
      <use x="63.476562" xlink:href="#DejaVuSans-74"/>
      <use x="102.685547" xlink:href="#DejaVuSans-61"/>
      <use x="163.964844" xlink:href="#DejaVuSans-72"/>
      <use x="205.078125" xlink:href="#DejaVuSans-74"/>
      <use x="244.287109" xlink:href="#DejaVuSans-20"/>
      <use x="276.074219" xlink:href="#DejaVuSans-50"/>
      <use x="336.330078" xlink:href="#DejaVuSans-6f"/>
      <use x="397.511719" xlink:href="#DejaVuSans-69"/>
      <use x="425.294922" xlink:href="#DejaVuSans-6e"/>
      <use x="488.673828" xlink:href="#DejaVuSans-74"/>
      <use x="527.882812" xlink:href="#DejaVuSans-20"/>
      <use x="559.669922" xlink:href="#DejaVuSans-66"/>
      <use x="594.875" xlink:href="#DejaVuSans-6f"/>
      <use x="656.056641" xlink:href="#DejaVuSans-72"/>
      <use x="697.169922" xlink:href="#DejaVuSans-20"/>
      <use x="728.957031" xlink:href="#DejaVuSans-46"/>
      <use x="786.429688" xlink:href="#DejaVuSans-6f"/>
      <use x="847.611328" xlink:href="#DejaVuSans-72"/>
      <use x="888.693359" xlink:href="#DejaVuSans-65"/>
      <use x="950.216797" xlink:href="#DejaVuSans-63"/>
      <use x="1005.197266" xlink:href="#DejaVuSans-61"/>
      <use x="1066.476562" xlink:href="#DejaVuSans-73"/>
      <use x="1118.576172" xlink:href="#DejaVuSans-74"/>
     </g>
    </g>
   </g>
  </g>
  <g id="axes_2">
   <g id="patch_8">
    <path d="M 48.982813 645.74 
L 1166.422812 645.74 
L 1166.422812 516.14 
L 48.982813 516.14 
z
" style="fill:none;"/>
   </g>
   <g id="matplotlib.axis_3">
    <g id="xtick_6">
     <g id="line2d_22">
      <g>
       <use style="stroke:#000000;stroke-width:0.8;" x="99.77554" xlink:href="#m1918bf878b" y="645.74"/>
      </g>
     </g>
     <g id="text_18">
      <!-- 0 -->
      <g transform="translate(96.59429 660.338437)scale(0.1 -0.1)">
       <use xlink:href="#DejaVuSans-30"/>
      </g>
     </g>
    </g>
    <g id="xtick_7">
     <g id="line2d_23">
      <g>
       <use style="stroke:#000000;stroke-width:0.8;" x="224.267518" xlink:href="#m1918bf878b" y="645.74"/>
      </g>
     </g>
     <g id="text_19">
      <!-- 25 -->
      <g transform="translate(217.905018 660.338437)scale(0.1 -0.1)">
       <use xlink:href="#DejaVuSans-32"/>
       <use x="63.623047" xlink:href="#DejaVuSans-35"/>
      </g>
     </g>
    </g>
    <g id="xtick_8">
     <g id="line2d_24">
      <g>
       <use style="stroke:#000000;stroke-width:0.8;" x="348.759497" xlink:href="#m1918bf878b" y="645.74"/>
      </g>
     </g>
     <g id="text_20">
      <!-- 50 -->
      <g transform="translate(342.396997 660.338437)scale(0.1 -0.1)">
       <use xlink:href="#DejaVuSans-35"/>
       <use x="63.623047" xlink:href="#DejaVuSans-30"/>
      </g>
     </g>
    </g>
    <g id="xtick_9">
     <g id="line2d_25">
      <g>
       <use style="stroke:#000000;stroke-width:0.8;" x="473.251476" xlink:href="#m1918bf878b" y="645.74"/>
      </g>
     </g>
     <g id="text_21">
      <!-- 75 -->
      <defs>
       <path d="M 8.203125 72.90625 
L 55.078125 72.90625 
L 55.078125 68.703125 
L 28.609375 0 
L 18.3125 0 
L 43.21875 64.59375 
L 8.203125 64.59375 
z
" id="DejaVuSans-37"/>
      </defs>
      <g transform="translate(466.888976 660.338437)scale(0.1 -0.1)">
       <use xlink:href="#DejaVuSans-37"/>
       <use x="63.623047" xlink:href="#DejaVuSans-35"/>
      </g>
     </g>
    </g>
    <g id="xtick_10">
     <g id="line2d_26">
      <g>
       <use style="stroke:#000000;stroke-width:0.8;" x="597.743454" xlink:href="#m1918bf878b" y="645.74"/>
      </g>
     </g>
     <g id="text_22">
      <!-- 100 -->
      <g transform="translate(588.199704 660.338437)scale(0.1 -0.1)">
       <use xlink:href="#DejaVuSans-31"/>
       <use x="63.623047" xlink:href="#DejaVuSans-30"/>
       <use x="127.246094" xlink:href="#DejaVuSans-30"/>
      </g>
     </g>
    </g>
    <g id="xtick_11">
     <g id="line2d_27">
      <g>
       <use style="stroke:#000000;stroke-width:0.8;" x="722.235433" xlink:href="#m1918bf878b" y="645.74"/>
      </g>
     </g>
     <g id="text_23">
      <!-- 125 -->
      <g transform="translate(712.691683 660.338437)scale(0.1 -0.1)">
       <use xlink:href="#DejaVuSans-31"/>
       <use x="63.623047" xlink:href="#DejaVuSans-32"/>
       <use x="127.246094" xlink:href="#DejaVuSans-35"/>
      </g>
     </g>
    </g>
    <g id="xtick_12">
     <g id="line2d_28">
      <g>
       <use style="stroke:#000000;stroke-width:0.8;" x="846.727411" xlink:href="#m1918bf878b" y="645.74"/>
      </g>
     </g>
     <g id="text_24">
      <!-- 150 -->
      <g transform="translate(837.183661 660.338437)scale(0.1 -0.1)">
       <use xlink:href="#DejaVuSans-31"/>
       <use x="63.623047" xlink:href="#DejaVuSans-35"/>
       <use x="127.246094" xlink:href="#DejaVuSans-30"/>
      </g>
     </g>
    </g>
    <g id="xtick_13">
     <g id="line2d_29">
      <g>
       <use style="stroke:#000000;stroke-width:0.8;" x="971.21939" xlink:href="#m1918bf878b" y="645.74"/>
      </g>
     </g>
     <g id="text_25">
      <!-- 175 -->
      <g transform="translate(961.67564 660.338437)scale(0.1 -0.1)">
       <use xlink:href="#DejaVuSans-31"/>
       <use x="63.623047" xlink:href="#DejaVuSans-37"/>
       <use x="127.246094" xlink:href="#DejaVuSans-35"/>
      </g>
     </g>
    </g>
    <g id="xtick_14">
     <g id="line2d_30">
      <g>
       <use style="stroke:#000000;stroke-width:0.8;" x="1095.711369" xlink:href="#m1918bf878b" y="645.74"/>
      </g>
     </g>
     <g id="text_26">
      <!-- 200 -->
      <g transform="translate(1086.167619 660.338437)scale(0.1 -0.1)">
       <use xlink:href="#DejaVuSans-32"/>
       <use x="63.623047" xlink:href="#DejaVuSans-30"/>
       <use x="127.246094" xlink:href="#DejaVuSans-30"/>
      </g>
     </g>
    </g>
   </g>
   <g id="matplotlib.axis_4">
    <g id="ytick_8">
     <g id="line2d_31">
      <g>
       <use style="stroke:#000000;stroke-width:0.8;" x="48.982813" xlink:href="#mb2e613aa91" y="628.314262"/>
      </g>
     </g>
     <g id="text_27">
      <!-- −10 -->
      <defs>
       <path d="M 10.59375 35.5 
L 73.1875 35.5 
L 73.1875 27.203125 
L 10.59375 27.203125 
z
" id="DejaVuSans-2212"/>
      </defs>
      <g transform="translate(20.878125 632.11348)scale(0.1 -0.1)">
       <use xlink:href="#DejaVuSans-2212"/>
       <use x="83.789062" xlink:href="#DejaVuSans-31"/>
       <use x="147.412109" xlink:href="#DejaVuSans-30"/>
      </g>
     </g>
    </g>
    <g id="ytick_9">
     <g id="line2d_32">
      <g>
       <use style="stroke:#000000;stroke-width:0.8;" x="48.982813" xlink:href="#mb2e613aa91" y="606.433598"/>
      </g>
     </g>
     <g id="text_28">
      <!-- 0 -->
      <g transform="translate(35.620313 610.232817)scale(0.1 -0.1)">
       <use xlink:href="#DejaVuSans-30"/>
      </g>
     </g>
    </g>
    <g id="ytick_10">
     <g id="line2d_33">
      <g>
       <use style="stroke:#000000;stroke-width:0.8;" x="48.982813" xlink:href="#mb2e613aa91" y="584.552935"/>
      </g>
     </g>
     <g id="text_29">
      <!-- 10 -->
      <g transform="translate(29.257813 588.352154)scale(0.1 -0.1)">
       <use xlink:href="#DejaVuSans-31"/>
       <use x="63.623047" xlink:href="#DejaVuSans-30"/>
      </g>
     </g>
    </g>
    <g id="ytick_11">
     <g id="line2d_34">
      <g>
       <use style="stroke:#000000;stroke-width:0.8;" x="48.982813" xlink:href="#mb2e613aa91" y="562.672272"/>
      </g>
     </g>
     <g id="text_30">
      <!-- 20 -->
      <g transform="translate(29.257813 566.471491)scale(0.1 -0.1)">
       <use xlink:href="#DejaVuSans-32"/>
       <use x="63.623047" xlink:href="#DejaVuSans-30"/>
      </g>
     </g>
    </g>
    <g id="ytick_12">
     <g id="line2d_35">
      <g>
       <use style="stroke:#000000;stroke-width:0.8;" x="48.982813" xlink:href="#mb2e613aa91" y="540.791609"/>
      </g>
     </g>
     <g id="text_31">
      <!-- 30 -->
      <g transform="translate(29.257813 544.590827)scale(0.1 -0.1)">
       <use xlink:href="#DejaVuSans-33"/>
       <use x="63.623047" xlink:href="#DejaVuSans-30"/>
      </g>
     </g>
    </g>
    <g id="ytick_13">
     <g id="line2d_36">
      <g>
       <use style="stroke:#000000;stroke-width:0.8;" x="48.982813" xlink:href="#mb2e613aa91" y="518.910945"/>
      </g>
     </g>
     <g id="text_32">
      <!-- 40 -->
      <g transform="translate(29.257813 522.710164)scale(0.1 -0.1)">
       <use xlink:href="#DejaVuSans-34"/>
       <use x="63.623047" xlink:href="#DejaVuSans-30"/>
      </g>
     </g>
    </g>
    <g id="text_33">
     <!-- Temperature -->
     <defs>
      <path d="M 18.109375 8.203125 
L 18.109375 -20.796875 
L 9.078125 -20.796875 
L 9.078125 54.6875 
L 18.109375 54.6875 
L 18.109375 46.390625 
Q 20.953125 51.265625 25.265625 53.625 
Q 29.59375 56 35.59375 56 
Q 45.5625 56 51.78125 48.09375 
Q 58.015625 40.1875 58.015625 27.296875 
Q 58.015625 14.40625 51.78125 6.484375 
Q 45.5625 -1.421875 35.59375 -1.421875 
Q 29.59375 -1.421875 25.265625 0.953125 
Q 20.953125 3.328125 18.109375 8.203125 
z
M 48.6875 27.296875 
Q 48.6875 37.203125 44.609375 42.84375 
Q 40.53125 48.484375 33.40625 48.484375 
Q 26.265625 48.484375 22.1875 42.84375 
Q 18.109375 37.203125 18.109375 27.296875 
Q 18.109375 17.390625 22.1875 11.75 
Q 26.265625 6.109375 33.40625 6.109375 
Q 40.53125 6.109375 44.609375 11.75 
Q 48.6875 17.390625 48.6875 27.296875 
z
" id="DejaVuSans-70"/>
     </defs>
     <g style="fill:#0000ff;" transform="translate(14.798438 613.557187)rotate(-90)scale(0.1 -0.1)">
      <use xlink:href="#DejaVuSans-54"/>
      <use x="60.818359" xlink:href="#DejaVuSans-65"/>
      <use x="122.341797" xlink:href="#DejaVuSans-6d"/>
      <use x="219.753906" xlink:href="#DejaVuSans-70"/>
      <use x="283.230469" xlink:href="#DejaVuSans-65"/>
      <use x="344.753906" xlink:href="#DejaVuSans-72"/>
      <use x="385.867188" xlink:href="#DejaVuSans-61"/>
      <use x="447.146484" xlink:href="#DejaVuSans-74"/>
      <use x="486.355469" xlink:href="#DejaVuSans-75"/>
      <use x="549.734375" xlink:href="#DejaVuSans-72"/>
      <use x="590.816406" xlink:href="#DejaVuSans-65"/>
     </g>
    </g>
   </g>
   <g id="line2d_37">
    <path clip-path="url(#p01128552a4)" d="M 99.77554 527.189494 
L 104.755219 522.030909 
L 109.734898 539.331731 
L 114.714577 551.442678 
L 119.694256 578.172971 
L 124.673935 580.135229 
L 129.653615 588.260723 
L 134.633294 581.449601 
L 139.612973 570.062247 
L 144.592652 542.316472 
L 149.572331 537.14629 
L 159.53169 524.179371 
L 164.511369 523.823592 
L 169.491048 537.655016 
L 174.470727 560.509806 
L 179.450406 577.477823 
L 184.430085 584.139172 
L 189.409764 593.215599 
L 194.389444 578.205792 
L 199.369123 564.532128 
L 204.348802 547.899761 
L 209.328481 533.169042 
L 214.30816 527.161925 
L 219.287839 526.633507 
L 224.267518 527.218158 
L 229.247198 539.904785 
L 234.226877 559.056492 
L 239.206556 570.75105 
L 244.186235 584.385986 
L 249.165914 583.85538 
L 254.145593 579.199174 
L 259.125272 563.827571 
L 264.104952 558.938555 
L 274.06431 530.283858 
L 279.043989 524.188342 
L 284.023668 525.556103 
L 289.003347 534.545992 
L 293.983026 547.753379 
L 298.962706 569.381321 
L 303.942385 599.153902 
L 308.922064 588.312602 
L 313.901743 584.499546 
L 318.881422 576.219685 
L 323.861101 560.615927 
L 328.84078 545.693315 
L 333.82046 534.63439 
L 338.800139 525.645595 
L 343.779818 525.967022 
L 348.759497 538.927157 
L 353.739176 547.885976 
L 358.718855 573.880204 
L 363.698534 584.653258 
L 368.678214 582.780164 
L 373.657893 572.58093 
L 378.637572 566.707941 
L 383.617251 559.468724 
L 388.59693 538.440531 
L 393.576609 527.469567 
L 398.556288 528.194911 
L 403.535968 526.640508 
L 408.515647 537.518699 
L 413.495326 556.141769 
L 418.475005 567.621021 
L 423.454684 589.566999 
L 428.434363 591.862389 
L 433.414042 591.395566 
L 438.393722 566.793495 
L 443.373401 552.745234 
L 448.35308 539.698669 
L 453.332759 528.269524 
L 458.312438 522.190857 
L 463.292117 529.272315 
L 468.271796 533.785858 
L 473.251476 553.32157 
L 478.231155 571.908975 
L 483.210834 581.718076 
L 488.190513 603.085551 
L 493.170192 575.430011 
L 498.149871 567.387992 
L 503.12955 551.128034 
L 508.10923 537.598563 
L 513.088909 524.86533 
L 518.068588 525.741651 
L 523.048267 523.003067 
L 528.027946 540.574771 
L 533.007625 548.729913 
L 537.987304 572.119248 
L 542.966984 592.188302 
L 547.946663 582.59571 
L 552.926342 581.550252 
L 557.906021 574.316723 
L 562.8857 553.301878 
L 567.865379 538.220412 
L 572.845058 527.843945 
L 577.824738 525.475801 
L 582.804417 526.000499 
L 587.784096 537.568149 
L 592.763775 556.410026 
L 597.743454 569.699247 
L 602.723133 591.797054 
L 607.702813 612.086927 
L 612.682492 592.18758 
L 617.662171 553.938167 
L 622.64185 548.308054 
L 627.621529 536.793355 
L 632.601208 528.388555 
L 637.580887 522.862374 
L 642.560567 524.71326 
L 647.540246 539.9608 
L 652.519925 556.731015 
L 657.499604 571.947047 
L 662.479283 587.867199 
L 667.458962 589.148531 
L 672.438641 578.381275 
L 677.418321 564.624902 
L 682.398 564.459922 
L 687.377679 540.361872 
L 692.357358 529.278441 
L 697.337037 523.583561 
L 702.316716 529.726557 
L 707.296395 540.957683 
L 712.276075 553.147619 
L 717.255754 574.207976 
L 722.235433 585.65909 
L 727.215112 584.508955 
L 732.194791 589.919168 
L 737.17447 568.646787 
L 742.154149 553.844737 
L 747.133829 540.342617 
L 752.113508 524.311312 
L 757.093187 522.765662 
L 762.072866 524.916531 
L 767.052545 538.900463 
L 772.032224 549.961138 
L 777.011903 566.152173 
L 786.971262 589.563344 
L 791.950941 591.893526 
L 796.93062 572.417482 
L 801.910299 550.453453 
L 806.889978 537.288296 
L 811.869657 527.407207 
L 816.849337 522.12609 
L 821.829016 525.789569 
L 826.808695 538.664152 
L 831.788374 556.888337 
L 836.768053 585.769216 
L 841.747732 594.783239 
L 846.727411 595.113375 
L 851.707091 595.839638 
L 856.68677 574.766808 
L 861.666449 544.973222 
L 866.646128 536.769067 
L 871.625807 527.410051 
L 876.605486 523.013351 
L 881.585165 523.79099 
L 886.564845 539.842644 
L 891.544524 551.871976 
L 896.524203 574.209508 
L 901.503882 591.783947 
L 906.483561 582.322858 
L 911.46324 580.335656 
L 916.442919 566.529395 
L 921.422599 556.111355 
L 926.402278 538.732638 
L 931.381957 528.253113 
L 936.361636 523.791646 
L 941.341315 530.256288 
L 946.320994 533.597684 
L 951.300673 557.008462 
L 956.280353 569.694871 
L 961.260032 590.200509 
L 966.239711 588.921585 
L 971.21939 595.324239 
L 976.199069 570.685627 
L 981.178748 556.588135 
L 986.158427 533.072767 
L 991.138107 525.289815 
L 996.117786 525.975555 
L 1001.097465 523.540894 
L 1006.077144 537.556553 
L 1011.056823 560.634088 
L 1016.036502 582.65435 
L 1021.016181 585.032034 
L 1025.995861 589.615027 
L 1030.97554 584.332597 
L 1035.955219 575.994532 
L 1040.934898 552.874548 
L 1045.914577 537.091588 
L 1050.894256 522.981843 
L 1055.873935 522.467866 
L 1060.853615 527.580721 
L 1065.833294 539.406563 
L 1070.812973 558.171419 
L 1075.792652 577.952852 
L 1080.772331 583.129379 
L 1085.75201 581.983708 
L 1090.73169 576.924679 
L 1095.711369 565.775606 
L 1100.691048 555.193899 
L 1105.670727 537.737724 
L 1110.650406 527.344191 
L 1115.630085 524.368858 
L 1115.630085 524.368858 
" style="fill:none;stroke:#ff0000;stroke-linecap:square;stroke-width:1.5;"/>
   </g>
   <g id="line2d_38">
    <path clip-path="url(#p01128552a4)" d="M 99.77554 541.916275 
L 104.755219 539.24202 
L 109.734898 556.699507 
L 114.714577 568.910449 
L 119.694256 588.894978 
L 124.673935 593.401147 
L 129.653615 599.138476 
L 134.633294 594.671867 
L 139.612973 584.89132 
L 144.592652 559.233944 
L 149.572331 552.863827 
L 154.55201 546.083666 
L 159.53169 539.11183 
L 164.511369 540.566019 
L 169.491048 554.234869 
L 174.470727 574.819322 
L 179.450406 591.377733 
L 184.430085 593.426004 
L 189.409764 604.351826 
L 194.389444 592.439536 
L 199.369123 579.004874 
L 204.348802 563.339194 
L 209.328481 548.640421 
L 214.30816 542.518868 
L 219.287839 541.020043 
L 224.267518 543.549447 
L 229.247198 557.728992 
L 234.226877 573.903835 
L 239.206556 583.212307 
L 244.186235 594.791248 
L 249.165914 594.50402 
L 254.145593 590.695866 
L 259.125272 578.383901 
L 264.104952 570.945569 
L 269.084631 558.65542 
L 274.06431 545.120698 
L 279.043989 539.607865 
L 284.023668 541.747794 
L 289.003347 554.013875 
L 293.983026 564.917009 
L 298.962706 583.782955 
L 303.942385 608.248234 
L 308.922064 597.411829 
L 313.901743 593.783927 
L 318.881422 587.6038 
L 323.861101 573.53624 
L 328.84078 560.133896 
L 333.82046 549.335351 
L 338.800139 540.242623 
L 343.779818 542.509678 
L 348.759497 556.096914 
L 353.739176 566.468348 
L 358.718855 585.526975 
L 363.698534 595.465281 
L 368.678214 593.304544 
L 373.657893 586.759162 
L 383.617251 573.031015 
L 388.59693 553.749994 
L 393.576609 543.28119 
L 398.556288 542.574007 
L 403.535968 543.636314 
L 408.515647 555.57878 
L 413.495326 574.153056 
L 418.475005 580.709378 
L 423.454684 598.770115 
L 428.434363 599.12154 
L 433.414042 601.909487 
L 438.393722 578.970959 
L 443.373401 567.226513 
L 448.35308 554.270316 
L 453.332759 542.543812 
L 458.312438 537.367722 
L 468.271796 551.566085 
L 473.251476 570.063998 
L 478.231155 586.428699 
L 483.210834 592.250005 
L 488.190513 611.717144 
L 493.170192 588.718029 
L 498.149871 580.319464 
L 503.12955 566.107536 
L 508.10923 552.440874 
L 513.088909 540.550484 
L 518.068588 540.350276 
L 523.048267 540.432766 
L 528.027946 557.307133 
L 533.007625 564.068477 
L 537.987304 584.895258 
L 542.966984 601.968061 
L 547.946663 595.082632 
L 552.926342 593.210063 
L 557.906021 586.670677 
L 562.8857 566.343847 
L 567.865379 553.540815 
L 572.845058 542.677284 
L 577.824738 539.802384 
L 582.804417 544.118345 
L 587.784096 555.421676 
L 592.763775 575.299384 
L 597.743454 585.300969 
L 602.723133 601.126115 
L 607.702813 623.36595 
L 612.682492 604.034209 
L 617.662171 571.671789 
L 622.64185 564.043314 
L 627.621529 551.54683 
L 632.601208 543.108771 
L 637.580887 538.27205 
L 642.560567 541.781052 
L 657.499604 587.117721 
L 662.479283 599.528564 
L 667.458962 599.822465 
L 672.438641 589.752875 
L 677.418321 578.416722 
L 682.398 576.244191 
L 687.377679 554.427419 
L 692.357358 544.714812 
L 697.337037 539.280749 
L 702.316716 544.879792 
L 707.296395 556.493829 
L 712.276075 571.792351 
L 717.255754 586.31214 
L 722.235433 594.026278 
L 727.215112 595.81605 
L 732.194791 599.719123 
L 737.17447 581.550252 
L 742.154149 567.675723 
L 747.133829 554.268566 
L 752.113508 539.926885 
L 757.093187 538.328284 
L 762.072866 542.203787 
L 767.052545 556.845451 
L 772.032224 566.344941 
L 777.011903 583.596969 
L 781.991583 593.938886 
L 786.971262 601.017565 
L 791.950941 601.077321 
L 796.93062 585.764839 
L 801.910299 565.994632 
L 806.889978 551.376598 
L 811.869657 541.89155 
L 816.849337 538.015609 
L 821.829016 541.172332 
L 826.808695 555.100906 
L 831.788374 571.430007 
L 836.768053 595.122499 
L 841.747732 603.922989 
L 846.727411 604.475181 
L 851.707091 606.134529 
L 856.68677 587.178921 
L 861.666449 560.645466 
L 866.646128 551.671768 
L 871.625807 542.026553 
L 876.605486 538.209472 
L 881.585165 541.057459 
L 886.564845 557.174099 
L 891.544524 569.10103 
L 896.524203 587.590343 
L 901.503882 602.97711 
L 906.483561 594.763306 
L 911.46324 591.313294 
L 916.442919 580.159298 
L 921.422599 570.388707 
L 926.402278 553.83314 
L 931.381957 542.995429 
L 936.361636 538.474228 
L 946.320994 551.32868 
L 951.300673 572.554017 
L 956.280353 584.110289 
L 961.260032 598.97518 
L 966.239711 599.233963 
L 971.21939 608.802268 
L 976.199069 583.396761 
L 981.178748 570.726325 
L 986.158427 548.839754 
L 991.138107 540.644133 
L 996.117786 541.5559 
L 1001.097465 540.589212 
L 1006.077144 554.104242 
L 1011.056823 575.793012 
L 1016.036502 593.350056 
L 1021.016181 598.141921 
L 1025.995861 599.062594 
L 1030.97554 592.630576 
L 1035.955219 587.438426 
L 1040.934898 567.962579 
L 1045.914577 551.935212 
L 1050.894256 539.037217 
L 1055.873935 537.205587 
L 1060.853615 543.609619 
L 1065.833294 556.26627 
L 1070.812973 572.491219 
L 1075.792652 588.017629 
L 1080.772331 593.78489 
L 1085.75201 592.765733 
L 1090.73169 590.955502 
L 1095.711369 577.976921 
L 1100.691048 568.721619 
L 1105.670727 551.604814 
L 1110.650406 541.710159 
L 1115.630085 538.582756 
L 1115.630085 538.582756 
" style="fill:none;stroke:#008000;stroke-linecap:square;stroke-width:1.5;"/>
   </g>
   <g id="line2d_39">
    <path clip-path="url(#p01128552a4)" d="M 99.77554 558.427423 
L 104.755219 558.08324 
L 109.734898 573.267764 
L 114.714577 584.420776 
L 119.694256 599.503073 
L 124.673935 604.72439 
L 129.653615 609.200693 
L 134.633294 605.99697 
L 139.612973 599.106639 
L 144.592652 577.094911 
L 149.572331 570.368358 
L 154.55201 564.004585 
L 159.53169 556.712636 
L 164.511369 558.992601 
L 169.491048 571.288221 
L 174.470727 588.981931 
L 179.450406 603.922355 
L 184.430085 602.244939 
L 189.409764 615.068737 
L 194.389444 606.267962 
L 199.369123 593.25982 
L 204.348802 578.868776 
L 209.328481 566.370979 
L 214.30816 559.969791 
L 219.287839 557.591363 
L 224.267518 561.893101 
L 229.247198 575.505718 
L 234.226877 588.242825 
L 239.206556 594.243312 
L 244.186235 604.796233 
L 249.165914 603.870213 
L 254.145593 601.383104 
L 259.125272 592.341073 
L 264.104952 582.613214 
L 269.084631 573.732072 
L 274.06431 562.258071 
L 279.043989 557.572108 
L 284.023668 559.598039 
L 289.003347 573.334938 
L 293.983026 582.470552 
L 298.962706 596.784445 
L 303.942385 617.257 
L 308.922064 606.643774 
L 313.901743 602.817884 
L 318.881422 597.734087 
L 323.861101 585.347663 
L 328.84078 575.230022 
L 333.82046 565.875601 
L 338.800139 556.267145 
L 343.779818 560.229077 
L 348.759497 573.579782 
L 353.739176 583.927586 
L 358.718855 596.1908 
L 363.698534 605.211852 
L 368.678214 602.094335 
L 373.657893 599.635933 
L 378.637572 592.605588 
L 383.617251 586.490358 
L 388.59693 569.662487 
L 393.576609 562.397888 
L 398.556288 557.758094 
L 403.535968 561.923297 
L 408.515647 573.951754 
L 413.495326 590.902157 
L 418.475005 592.825314 
L 423.454684 606.774718 
L 428.434363 606.393522 
L 433.414042 612.937735 
L 438.393722 590.590904 
L 443.373401 581.845203 
L 448.35308 569.231219 
L 453.332759 557.890034 
L 458.312438 554.179292 
L 463.292117 560.772593 
L 468.271796 569.606254 
L 473.251476 585.800242 
L 478.231155 599.061018 
L 483.210834 603.430368 
L 488.190513 620.388035 
L 493.170192 600.899475 
L 498.149871 592.833869 
L 503.12955 581.516993 
L 508.10923 568.762536 
L 513.088909 558.853877 
L 518.068588 556.99424 
L 523.048267 559.901742 
L 528.027946 574.529622 
L 533.007625 578.837706 
L 537.987304 595.888716 
L 542.966984 610.209698 
L 547.946663 606.407237 
L 552.926342 604.827061 
L 557.906021 598.700578 
L 562.8857 579.050167 
L 567.865379 571.108143 
L 572.845058 559.795183 
L 577.824738 556.642617 
L 582.804417 562.788021 
L 587.784096 573.888519 
L 592.763775 593.511273 
L 597.743454 598.251171 
L 602.723133 607.773111 
L 607.702813 628.908759 
L 612.682492 614.414242 
L 617.662171 587.969776 
L 622.64185 578.723708 
L 627.621529 567.000267 
L 632.601208 559.391048 
L 637.580887 555.496727 
L 642.560567 560.191005 
L 647.540246 572.721623 
L 657.499604 600.885931 
L 662.479283 608.599784 
L 667.458962 609.287734 
L 672.438641 600.204939 
L 677.418321 591.395106 
L 682.398 587.902493 
L 687.377679 569.022259 
L 692.357358 562.781238 
L 697.337037 557.196198 
L 702.316716 560.825325 
L 707.296395 572.215086 
L 712.276075 589.506258 
L 717.255754 598.245657 
L 722.235433 601.825531 
L 727.215112 605.907607 
L 732.194791 609.837661 
L 737.17447 593.430642 
L 742.154149 581.044152 
L 747.133829 569.11372 
L 752.113508 558.558051 
L 757.093187 556.1177 
L 762.072866 561.208893 
L 767.052545 575.493465 
L 772.032224 581.565568 
L 777.011903 598.60415 
L 781.991583 608.206845 
L 786.971262 611.672026 
L 791.950941 611.507462 
L 796.93062 598.807378 
L 801.910299 581.498832 
L 806.889978 566.172522 
L 811.869657 558.159604 
L 816.849337 556.217257 
L 821.829016 557.493556 
L 826.808695 571.831955 
L 831.788374 584.688967 
L 836.768053 604.346945 
L 841.747732 612.396582 
L 846.727411 612.744879 
L 851.707091 617.657131 
L 856.68677 599.1362 
L 861.666449 576.171985 
L 871.625807 559.252324 
L 876.605486 555.138978 
L 881.585165 559.426932 
L 886.564845 574.759588 
L 891.544524 585.067853 
L 896.524203 599.443558 
L 901.503882 614.377701 
L 906.483561 605.868222 
L 911.46324 601.450277 
L 921.422599 584.681309 
L 926.402278 570.805314 
L 931.381957 559.429995 
L 936.361636 555.021042 
L 941.341315 560.885278 
L 946.320994 568.685078 
L 951.300673 587.040482 
L 956.280353 596.910215 
L 961.260032 607.546429 
L 966.239711 608.796601 
L 971.21939 621.24963 
L 976.199069 596.29399 
L 981.178748 584.628423 
L 986.158427 566.37273 
L 991.138107 558.306423 
L 996.117786 558.18958 
L 1001.097465 559.483165 
L 1006.077144 570.92347 
L 1011.056823 590.380937 
L 1016.036502 602.743972 
L 1021.016181 608.961997 
L 1025.995861 607.61585 
L 1030.97554 600.304431 
L 1035.955219 598.353266 
L 1040.934898 582.426135 
L 1045.914577 567.998682 
L 1050.894256 557.916072 
L 1055.873935 553.667066 
L 1060.853615 561.418947 
L 1070.812973 585.827637 
L 1075.792652 597.327588 
L 1080.772331 603.605019 
L 1085.75201 602.183586 
L 1090.73169 602.95989 
L 1095.711369 588.92758 
L 1100.691048 581.715451 
L 1105.670727 565.725937 
L 1110.650406 558.210586 
L 1115.630085 553.840142 
L 1115.630085 553.840142 
" style="fill:none;stroke:#0000ff;stroke-linecap:square;stroke-width:1.5;"/>
   </g>
   <g id="line2d_40">
    <defs>
     <path d="M 0 3 
C 0.795609 3 1.55874 2.683901 2.12132 2.12132 
C 2.683901 1.55874 3 0.795609 3 0 
C 3 -0.795609 2.683901 -1.55874 2.12132 -2.12132 
C 1.55874 -2.683901 0.795609 -3 0 -3 
C -0.795609 -3 -1.55874 -2.683901 -2.12132 -2.12132 
C -2.683901 -1.55874 -3 -0.795609 -3 0 
C -3 0.795609 -2.683901 1.55874 -2.12132 2.12132 
C -1.55874 2.683901 -0.795609 3 0 3 
z
" id="m8bf12ec08d" style="stroke:#ff0000;"/>
    </defs>
    <g clip-path="url(#p01128552a4)">
     <use style="fill:#ff0000;stroke:#ff0000;" x="184.430085" xlink:href="#m8bf12ec08d" y="639.849091"/>
    </g>
   </g>
   <g id="patch_9">
    <path d="M 48.982813 645.74 
L 48.982813 516.14 
" style="fill:none;stroke:#000000;stroke-linecap:square;stroke-linejoin:miter;stroke-width:0.8;"/>
   </g>
   <g id="patch_10">
    <path d="M 1166.422812 645.74 
L 1166.422812 516.14 
" style="fill:none;stroke:#000000;stroke-linecap:square;stroke-linejoin:miter;stroke-width:0.8;"/>
   </g>
   <g id="patch_11">
    <path d="M 48.982813 645.74 
L 1166.422813 645.74 
" style="fill:none;stroke:#000000;stroke-linecap:square;stroke-linejoin:miter;stroke-width:0.8;"/>
   </g>
   <g id="patch_12">
    <path d="M 48.982813 516.14 
L 1166.422813 516.14 
" style="fill:none;stroke:#000000;stroke-linecap:square;stroke-linejoin:miter;stroke-width:0.8;"/>
   </g>
   <g id="legend_2">
    <g id="patch_13">
     <path d="M 55.982813 582.8525 
L 146.995313 582.8525 
Q 148.995313 582.8525 148.995313 580.8525 
L 148.995313 523.14 
Q 148.995313 521.14 146.995313 521.14 
L 55.982813 521.14 
Q 53.982813 521.14 53.982813 523.14 
L 53.982813 580.8525 
Q 53.982813 582.8525 55.982813 582.8525 
z
" style="fill:#ffffff;opacity:0.8;stroke:#cccccc;stroke-linejoin:miter;"/>
    </g>
    <g id="line2d_41">
     <path d="M 57.982813 529.238437 
L 77.982813 529.238437 
" style="fill:none;stroke:#ff0000;stroke-linecap:square;stroke-width:1.5;"/>
    </g>
    <g id="line2d_42"/>
    <g id="text_34">
     <!-- Maxmimum -->
     <defs>
      <path d="M 9.8125 72.90625 
L 24.515625 72.90625 
L 43.109375 23.296875 
L 61.8125 72.90625 
L 76.515625 72.90625 
L 76.515625 0 
L 66.890625 0 
L 66.890625 64.015625 
L 48.09375 14.015625 
L 38.1875 14.015625 
L 19.390625 64.015625 
L 19.390625 0 
L 9.8125 0 
z
" id="DejaVuSans-4d"/>
      <path d="M 54.890625 54.6875 
L 35.109375 28.078125 
L 55.90625 0 
L 45.3125 0 
L 29.390625 21.484375 
L 13.484375 0 
L 2.875 0 
L 24.125 28.609375 
L 4.6875 54.6875 
L 15.28125 54.6875 
L 29.78125 35.203125 
L 44.28125 54.6875 
z
" id="DejaVuSans-78"/>
     </defs>
     <g transform="translate(85.982813 532.738437)scale(0.1 -0.1)">
      <use xlink:href="#DejaVuSans-4d"/>
      <use x="86.279297" xlink:href="#DejaVuSans-61"/>
      <use x="147.558594" xlink:href="#DejaVuSans-78"/>
      <use x="206.738281" xlink:href="#DejaVuSans-6d"/>
      <use x="304.150391" xlink:href="#DejaVuSans-69"/>
      <use x="331.933594" xlink:href="#DejaVuSans-6d"/>
      <use x="429.345703" xlink:href="#DejaVuSans-75"/>
      <use x="492.724609" xlink:href="#DejaVuSans-6d"/>
     </g>
    </g>
    <g id="line2d_43">
     <path d="M 57.982813 543.916562 
L 77.982813 543.916562 
" style="fill:none;stroke:#008000;stroke-linecap:square;stroke-width:1.5;"/>
    </g>
    <g id="line2d_44"/>
    <g id="text_35">
     <!-- Average -->
     <defs>
      <path d="M 34.1875 63.1875 
L 20.796875 26.90625 
L 47.609375 26.90625 
z
M 28.609375 72.90625 
L 39.796875 72.90625 
L 67.578125 0 
L 57.328125 0 
L 50.6875 18.703125 
L 17.828125 18.703125 
L 11.1875 0 
L 0.78125 0 
z
" id="DejaVuSans-41"/>
      <path d="M 2.984375 54.6875 
L 12.5 54.6875 
L 29.59375 8.796875 
L 46.6875 54.6875 
L 56.203125 54.6875 
L 35.6875 0 
L 23.484375 0 
z
" id="DejaVuSans-76"/>
     </defs>
     <g transform="translate(85.982813 547.416562)scale(0.1 -0.1)">
      <use xlink:href="#DejaVuSans-41"/>
      <use x="68.330078" xlink:href="#DejaVuSans-76"/>
      <use x="127.509766" xlink:href="#DejaVuSans-65"/>
      <use x="189.033203" xlink:href="#DejaVuSans-72"/>
      <use x="230.146484" xlink:href="#DejaVuSans-61"/>
      <use x="291.425781" xlink:href="#DejaVuSans-67"/>
      <use x="354.902344" xlink:href="#DejaVuSans-65"/>
     </g>
    </g>
    <g id="line2d_45">
     <path d="M 57.982813 558.594687 
L 77.982813 558.594687 
" style="fill:none;stroke:#0000ff;stroke-linecap:square;stroke-width:1.5;"/>
    </g>
    <g id="line2d_46"/>
    <g id="text_36">
     <!-- Minimum -->
     <g transform="translate(85.982813 562.094687)scale(0.1 -0.1)">
      <use xlink:href="#DejaVuSans-4d"/>
      <use x="86.279297" xlink:href="#DejaVuSans-69"/>
      <use x="114.0625" xlink:href="#DejaVuSans-6e"/>
      <use x="177.441406" xlink:href="#DejaVuSans-69"/>
      <use x="205.224609" xlink:href="#DejaVuSans-6d"/>
      <use x="302.636719" xlink:href="#DejaVuSans-75"/>
      <use x="366.015625" xlink:href="#DejaVuSans-6d"/>
     </g>
    </g>
    <g id="line2d_47"/>
    <g id="line2d_48">
     <g>
      <use style="fill:#ff0000;stroke:#ff0000;" x="67.982813" xlink:href="#m8bf12ec08d" y="573.272812"/>
     </g>
    </g>
    <g id="text_37">
     <!-- Disasters -->
     <g transform="translate(85.982813 576.772812)scale(0.1 -0.1)">
      <use xlink:href="#DejaVuSans-44"/>
      <use x="77.001953" xlink:href="#DejaVuSans-69"/>
      <use x="104.785156" xlink:href="#DejaVuSans-73"/>
      <use x="156.884766" xlink:href="#DejaVuSans-61"/>
      <use x="218.164062" xlink:href="#DejaVuSans-73"/>
      <use x="270.263672" xlink:href="#DejaVuSans-74"/>
      <use x="309.472656" xlink:href="#DejaVuSans-65"/>
      <use x="370.996094" xlink:href="#DejaVuSans-72"/>
      <use x="412.109375" xlink:href="#DejaVuSans-73"/>
     </g>
    </g>
   </g>
  </g>
 </g>
 <defs>
  <clipPath id="pb8b3f802f3">
   <rect height="498.96" width="1116" x="48.982813" y="10.7"/>
  </clipPath>
  <clipPath id="p01128552a4">
   <rect height="129.6" width="1117.44" x="48.982813" y="516.14"/>
  </clipPath>
 </defs>
</svg>
