<?xml version="1.0" encoding="utf-8" standalone="no"?>
<!DOCTYPE svg PUBLIC "-//W3C//DTD SVG 1.1//EN"
  "http://www.w3.org/Graphics/SVG/1.1/DTD/svg11.dtd">
<!-- Created with matplotlib (http://matplotlib.org/) -->
<svg height="669pt" version="1.1" viewBox="0 0 1175 669" width="1175pt" xmlns="http://www.w3.org/2000/svg" xmlns:xlink="http://www.w3.org/1999/xlink">
 <defs>
  <style type="text/css">
*{stroke-linecap:butt;stroke-linejoin:round;}
  </style>
 </defs>
 <g id="figure_1">
  <g id="patch_1">
   <path d="M 0 669.618125 
L 1175.105625 669.618125 
L 1175.105625 -0 
L 0 -0 
z
" style="fill:none;"/>
  </g>
  <g id="axes_1">
   <g id="patch_2">
    <path d="M 46.965625 509.66 
L 1162.965625 509.66 
L 1162.965625 10.7 
L 46.965625 10.7 
z
" style="fill:none;"/>
   </g>
   <g id="matplotlib.axis_1">
    <g id="xtick_1">
     <g id="line2d_1">
      <defs>
       <path d="M 0 0 
L 0 3.5 
" id="mb0d1baffb4" style="stroke:#000000;stroke-width:0.8;"/>
      </defs>
      <g>
       <use style="stroke:#000000;stroke-width:0.8;" x="97.692898" xlink:href="#mb0d1baffb4" y="509.66"/>
      </g>
     </g>
     <g id="text_1">
      <!-- 0 -->
      <defs>
       <path d="M 31.78125 66.40625 
Q 24.171875 66.40625 20.328125 58.90625 
Q 16.5 51.421875 16.5 36.375 
Q 16.5 21.390625 20.328125 13.890625 
Q 24.171875 6.390625 31.78125 6.390625 
Q 39.453125 6.390625 43.28125 13.890625 
Q 47.125 21.390625 47.125 36.375 
Q 47.125 51.421875 43.28125 58.90625 
Q 39.453125 66.40625 31.78125 66.40625 
z
M 31.78125 74.21875 
Q 44.046875 74.21875 50.515625 64.515625 
Q 56.984375 54.828125 56.984375 36.375 
Q 56.984375 17.96875 50.515625 8.265625 
Q 44.046875 -1.421875 31.78125 -1.421875 
Q 19.53125 -1.421875 13.0625 8.265625 
Q 6.59375 17.96875 6.59375 36.375 
Q 6.59375 54.828125 13.0625 64.515625 
Q 19.53125 74.21875 31.78125 74.21875 
z
" id="DejaVuSans-30"/>
      </defs>
      <g transform="translate(94.511648 524.258437)scale(0.1 -0.1)">
       <use xlink:href="#DejaVuSans-30"/>
      </g>
     </g>
    </g>
    <g id="xtick_2">
     <g id="line2d_2">
      <g>
       <use style="stroke:#000000;stroke-width:0.8;" x="340.407121" xlink:href="#mb0d1baffb4" y="509.66"/>
      </g>
     </g>
     <g id="text_2">
      <!-- 50 -->
      <defs>
       <path d="M 10.796875 72.90625 
L 49.515625 72.90625 
L 49.515625 64.59375 
L 19.828125 64.59375 
L 19.828125 46.734375 
Q 21.96875 47.46875 24.109375 47.828125 
Q 26.265625 48.1875 28.421875 48.1875 
Q 40.625 48.1875 47.75 41.5 
Q 54.890625 34.8125 54.890625 23.390625 
Q 54.890625 11.625 47.5625 5.09375 
Q 40.234375 -1.421875 26.90625 -1.421875 
Q 22.3125 -1.421875 17.546875 -0.640625 
Q 12.796875 0.140625 7.71875 1.703125 
L 7.71875 11.625 
Q 12.109375 9.234375 16.796875 8.0625 
Q 21.484375 6.890625 26.703125 6.890625 
Q 35.15625 6.890625 40.078125 11.328125 
Q 45.015625 15.765625 45.015625 23.390625 
Q 45.015625 31 40.078125 35.4375 
Q 35.15625 39.890625 26.703125 39.890625 
Q 22.75 39.890625 18.8125 39.015625 
Q 14.890625 38.140625 10.796875 36.28125 
z
" id="DejaVuSans-35"/>
      </defs>
      <g transform="translate(334.044621 524.258437)scale(0.1 -0.1)">
       <use xlink:href="#DejaVuSans-35"/>
       <use x="63.623047" xlink:href="#DejaVuSans-30"/>
      </g>
     </g>
    </g>
    <g id="xtick_3">
     <g id="line2d_3">
      <g>
       <use style="stroke:#000000;stroke-width:0.8;" x="583.121345" xlink:href="#mb0d1baffb4" y="509.66"/>
      </g>
     </g>
     <g id="text_3">
      <!-- 100 -->
      <defs>
       <path d="M 12.40625 8.296875 
L 28.515625 8.296875 
L 28.515625 63.921875 
L 10.984375 60.40625 
L 10.984375 69.390625 
L 28.421875 72.90625 
L 38.28125 72.90625 
L 38.28125 8.296875 
L 54.390625 8.296875 
L 54.390625 0 
L 12.40625 0 
z
" id="DejaVuSans-31"/>
      </defs>
      <g transform="translate(573.577595 524.258437)scale(0.1 -0.1)">
       <use xlink:href="#DejaVuSans-31"/>
       <use x="63.623047" xlink:href="#DejaVuSans-30"/>
       <use x="127.246094" xlink:href="#DejaVuSans-30"/>
      </g>
     </g>
    </g>
    <g id="xtick_4">
     <g id="line2d_4">
      <g>
       <use style="stroke:#000000;stroke-width:0.8;" x="825.835568" xlink:href="#mb0d1baffb4" y="509.66"/>
      </g>
     </g>
     <g id="text_4">
      <!-- 150 -->
      <g transform="translate(816.291818 524.258437)scale(0.1 -0.1)">
       <use xlink:href="#DejaVuSans-31"/>
       <use x="63.623047" xlink:href="#DejaVuSans-35"/>
       <use x="127.246094" xlink:href="#DejaVuSans-30"/>
      </g>
     </g>
    </g>
    <g id="xtick_5">
     <g id="line2d_5">
      <g>
       <use style="stroke:#000000;stroke-width:0.8;" x="1068.549792" xlink:href="#mb0d1baffb4" y="509.66"/>
      </g>
     </g>
     <g id="text_5">
      <!-- 200 -->
      <defs>
       <path d="M 19.1875 8.296875 
L 53.609375 8.296875 
L 53.609375 0 
L 7.328125 0 
L 7.328125 8.296875 
Q 12.9375 14.109375 22.625 23.890625 
Q 32.328125 33.6875 34.8125 36.53125 
Q 39.546875 41.84375 41.421875 45.53125 
Q 43.3125 49.21875 43.3125 52.78125 
Q 43.3125 58.59375 39.234375 62.25 
Q 35.15625 65.921875 28.609375 65.921875 
Q 23.96875 65.921875 18.8125 64.3125 
Q 13.671875 62.703125 7.8125 59.421875 
L 7.8125 69.390625 
Q 13.765625 71.78125 18.9375 73 
Q 24.125 74.21875 28.421875 74.21875 
Q 39.75 74.21875 46.484375 68.546875 
Q 53.21875 62.890625 53.21875 53.421875 
Q 53.21875 48.921875 51.53125 44.890625 
Q 49.859375 40.875 45.40625 35.40625 
Q 44.1875 33.984375 37.640625 27.21875 
Q 31.109375 20.453125 19.1875 8.296875 
z
" id="DejaVuSans-32"/>
      </defs>
      <g transform="translate(1059.006042 524.258437)scale(0.1 -0.1)">
       <use xlink:href="#DejaVuSans-32"/>
       <use x="63.623047" xlink:href="#DejaVuSans-30"/>
       <use x="127.246094" xlink:href="#DejaVuSans-30"/>
      </g>
     </g>
    </g>
    <g id="text_6">
     <!-- Time -->
     <defs>
      <path d="M -0.296875 72.90625 
L 61.375 72.90625 
L 61.375 64.59375 
L 35.5 64.59375 
L 35.5 0 
L 25.59375 0 
L 25.59375 64.59375 
L -0.296875 64.59375 
z
" id="DejaVuSans-54"/>
      <path d="M 9.421875 54.6875 
L 18.40625 54.6875 
L 18.40625 0 
L 9.421875 0 
z
M 9.421875 75.984375 
L 18.40625 75.984375 
L 18.40625 64.59375 
L 9.421875 64.59375 
z
" id="DejaVuSans-69"/>
      <path d="M 52 44.1875 
Q 55.375 50.25 60.0625 53.125 
Q 64.75 56 71.09375 56 
Q 79.640625 56 84.28125 50.015625 
Q 88.921875 44.046875 88.921875 33.015625 
L 88.921875 0 
L 79.890625 0 
L 79.890625 32.71875 
Q 79.890625 40.578125 77.09375 44.375 
Q 74.3125 48.1875 68.609375 48.1875 
Q 61.625 48.1875 57.5625 43.546875 
Q 53.515625 38.921875 53.515625 30.90625 
L 53.515625 0 
L 44.484375 0 
L 44.484375 32.71875 
Q 44.484375 40.625 41.703125 44.40625 
Q 38.921875 48.1875 33.109375 48.1875 
Q 26.21875 48.1875 22.15625 43.53125 
Q 18.109375 38.875 18.109375 30.90625 
L 18.109375 0 
L 9.078125 0 
L 9.078125 54.6875 
L 18.109375 54.6875 
L 18.109375 46.1875 
Q 21.1875 51.21875 25.484375 53.609375 
Q 29.78125 56 35.6875 56 
Q 41.65625 56 45.828125 52.96875 
Q 50 49.953125 52 44.1875 
z
" id="DejaVuSans-6d"/>
      <path d="M 56.203125 29.59375 
L 56.203125 25.203125 
L 14.890625 25.203125 
Q 15.484375 15.921875 20.484375 11.0625 
Q 25.484375 6.203125 34.421875 6.203125 
Q 39.59375 6.203125 44.453125 7.46875 
Q 49.3125 8.734375 54.109375 11.28125 
L 54.109375 2.78125 
Q 49.265625 0.734375 44.1875 -0.34375 
Q 39.109375 -1.421875 33.890625 -1.421875 
Q 20.796875 -1.421875 13.15625 6.1875 
Q 5.515625 13.8125 5.515625 26.8125 
Q 5.515625 40.234375 12.765625 48.109375 
Q 20.015625 56 32.328125 56 
Q 43.359375 56 49.78125 48.890625 
Q 56.203125 41.796875 56.203125 29.59375 
z
M 47.21875 32.234375 
Q 47.125 39.59375 43.09375 43.984375 
Q 39.0625 48.390625 32.421875 48.390625 
Q 24.90625 48.390625 20.390625 44.140625 
Q 15.875 39.890625 15.1875 32.171875 
z
" id="DejaVuSans-65"/>
     </defs>
     <g transform="translate(592.578125 537.936562)scale(0.1 -0.1)">
      <use xlink:href="#DejaVuSans-54"/>
      <use x="61.037109" xlink:href="#DejaVuSans-69"/>
      <use x="88.820312" xlink:href="#DejaVuSans-6d"/>
      <use x="186.232422" xlink:href="#DejaVuSans-65"/>
     </g>
    </g>
   </g>
   <g id="matplotlib.axis_2">
    <g id="ytick_1">
     <g id="line2d_6">
      <defs>
       <path d="M 0 0 
L -3.5 0 
" id="mbd7ba27353" style="stroke:#000000;stroke-width:0.8;"/>
      </defs>
      <g>
       <use style="stroke:#000000;stroke-width:0.8;" x="46.965625" xlink:href="#mbd7ba27353" y="486.98"/>
      </g>
     </g>
     <g id="text_7">
      <!-- 0 -->
      <g transform="translate(33.603125 490.779219)scale(0.1 -0.1)">
       <use xlink:href="#DejaVuSans-30"/>
      </g>
     </g>
    </g>
    <g id="ytick_2">
     <g id="line2d_7">
      <g>
       <use style="stroke:#000000;stroke-width:0.8;" x="46.965625" xlink:href="#mbd7ba27353" y="405.98"/>
      </g>
     </g>
     <g id="text_8">
      <!-- 50 -->
      <g transform="translate(27.240625 409.779219)scale(0.1 -0.1)">
       <use xlink:href="#DejaVuSans-35"/>
       <use x="63.623047" xlink:href="#DejaVuSans-30"/>
      </g>
     </g>
    </g>
    <g id="ytick_3">
     <g id="line2d_8">
      <g>
       <use style="stroke:#000000;stroke-width:0.8;" x="46.965625" xlink:href="#mbd7ba27353" y="324.98"/>
      </g>
     </g>
     <g id="text_9">
      <!-- 100 -->
      <g transform="translate(20.878125 328.779219)scale(0.1 -0.1)">
       <use xlink:href="#DejaVuSans-31"/>
       <use x="63.623047" xlink:href="#DejaVuSans-30"/>
       <use x="127.246094" xlink:href="#DejaVuSans-30"/>
      </g>
     </g>
    </g>
    <g id="ytick_4">
     <g id="line2d_9">
      <g>
       <use style="stroke:#000000;stroke-width:0.8;" x="46.965625" xlink:href="#mbd7ba27353" y="243.98"/>
      </g>
     </g>
     <g id="text_10">
      <!-- 150 -->
      <g transform="translate(20.878125 247.779219)scale(0.1 -0.1)">
       <use xlink:href="#DejaVuSans-31"/>
       <use x="63.623047" xlink:href="#DejaVuSans-35"/>
       <use x="127.246094" xlink:href="#DejaVuSans-30"/>
      </g>
     </g>
    </g>
    <g id="ytick_5">
     <g id="line2d_10">
      <g>
       <use style="stroke:#000000;stroke-width:0.8;" x="46.965625" xlink:href="#mbd7ba27353" y="162.98"/>
      </g>
     </g>
     <g id="text_11">
      <!-- 200 -->
      <g transform="translate(20.878125 166.779219)scale(0.1 -0.1)">
       <use xlink:href="#DejaVuSans-32"/>
       <use x="63.623047" xlink:href="#DejaVuSans-30"/>
       <use x="127.246094" xlink:href="#DejaVuSans-30"/>
      </g>
     </g>
    </g>
    <g id="ytick_6">
     <g id="line2d_11">
      <g>
       <use style="stroke:#000000;stroke-width:0.8;" x="46.965625" xlink:href="#mbd7ba27353" y="81.98"/>
      </g>
     </g>
     <g id="text_12">
      <!-- 250 -->
      <g transform="translate(20.878125 85.779219)scale(0.1 -0.1)">
       <use xlink:href="#DejaVuSans-32"/>
       <use x="63.623047" xlink:href="#DejaVuSans-35"/>
       <use x="127.246094" xlink:href="#DejaVuSans-30"/>
      </g>
     </g>
    </g>
    <g id="text_13">
     <!-- Refugees -->
     <defs>
      <path d="M 44.390625 34.1875 
Q 47.5625 33.109375 50.5625 29.59375 
Q 53.5625 26.078125 56.59375 19.921875 
L 66.609375 0 
L 56 0 
L 46.6875 18.703125 
Q 43.0625 26.03125 39.671875 28.421875 
Q 36.28125 30.8125 30.421875 30.8125 
L 19.671875 30.8125 
L 19.671875 0 
L 9.8125 0 
L 9.8125 72.90625 
L 32.078125 72.90625 
Q 44.578125 72.90625 50.734375 67.671875 
Q 56.890625 62.453125 56.890625 51.90625 
Q 56.890625 45.015625 53.6875 40.46875 
Q 50.484375 35.9375 44.390625 34.1875 
z
M 19.671875 64.796875 
L 19.671875 38.921875 
L 32.078125 38.921875 
Q 39.203125 38.921875 42.84375 42.21875 
Q 46.484375 45.515625 46.484375 51.90625 
Q 46.484375 58.296875 42.84375 61.546875 
Q 39.203125 64.796875 32.078125 64.796875 
z
" id="DejaVuSans-52"/>
      <path d="M 37.109375 75.984375 
L 37.109375 68.5 
L 28.515625 68.5 
Q 23.6875 68.5 21.796875 66.546875 
Q 19.921875 64.59375 19.921875 59.515625 
L 19.921875 54.6875 
L 34.71875 54.6875 
L 34.71875 47.703125 
L 19.921875 47.703125 
L 19.921875 0 
L 10.890625 0 
L 10.890625 47.703125 
L 2.296875 47.703125 
L 2.296875 54.6875 
L 10.890625 54.6875 
L 10.890625 58.5 
Q 10.890625 67.625 15.140625 71.796875 
Q 19.390625 75.984375 28.609375 75.984375 
z
" id="DejaVuSans-66"/>
      <path d="M 8.5 21.578125 
L 8.5 54.6875 
L 17.484375 54.6875 
L 17.484375 21.921875 
Q 17.484375 14.15625 20.5 10.265625 
Q 23.53125 6.390625 29.59375 6.390625 
Q 36.859375 6.390625 41.078125 11.03125 
Q 45.3125 15.671875 45.3125 23.6875 
L 45.3125 54.6875 
L 54.296875 54.6875 
L 54.296875 0 
L 45.3125 0 
L 45.3125 8.40625 
Q 42.046875 3.421875 37.71875 1 
Q 33.40625 -1.421875 27.6875 -1.421875 
Q 18.265625 -1.421875 13.375 4.4375 
Q 8.5 10.296875 8.5 21.578125 
z
M 31.109375 56 
z
" id="DejaVuSans-75"/>
      <path d="M 45.40625 27.984375 
Q 45.40625 37.75 41.375 43.109375 
Q 37.359375 48.484375 30.078125 48.484375 
Q 22.859375 48.484375 18.828125 43.109375 
Q 14.796875 37.75 14.796875 27.984375 
Q 14.796875 18.265625 18.828125 12.890625 
Q 22.859375 7.515625 30.078125 7.515625 
Q 37.359375 7.515625 41.375 12.890625 
Q 45.40625 18.265625 45.40625 27.984375 
z
M 54.390625 6.78125 
Q 54.390625 -7.171875 48.1875 -13.984375 
Q 42 -20.796875 29.203125 -20.796875 
Q 24.46875 -20.796875 20.265625 -20.09375 
Q 16.0625 -19.390625 12.109375 -17.921875 
L 12.109375 -9.1875 
Q 16.0625 -11.328125 19.921875 -12.34375 
Q 23.78125 -13.375 27.78125 -13.375 
Q 36.625 -13.375 41.015625 -8.765625 
Q 45.40625 -4.15625 45.40625 5.171875 
L 45.40625 9.625 
Q 42.625 4.78125 38.28125 2.390625 
Q 33.9375 0 27.875 0 
Q 17.828125 0 11.671875 7.65625 
Q 5.515625 15.328125 5.515625 27.984375 
Q 5.515625 40.671875 11.671875 48.328125 
Q 17.828125 56 27.875 56 
Q 33.9375 56 38.28125 53.609375 
Q 42.625 51.21875 45.40625 46.390625 
L 45.40625 54.6875 
L 54.390625 54.6875 
z
" id="DejaVuSans-67"/>
      <path d="M 44.28125 53.078125 
L 44.28125 44.578125 
Q 40.484375 46.53125 36.375 47.5 
Q 32.28125 48.484375 27.875 48.484375 
Q 21.1875 48.484375 17.84375 46.4375 
Q 14.5 44.390625 14.5 40.28125 
Q 14.5 37.15625 16.890625 35.375 
Q 19.28125 33.59375 26.515625 31.984375 
L 29.59375 31.296875 
Q 39.15625 29.25 43.1875 25.515625 
Q 47.21875 21.78125 47.21875 15.09375 
Q 47.21875 7.46875 41.1875 3.015625 
Q 35.15625 -1.421875 24.609375 -1.421875 
Q 20.21875 -1.421875 15.453125 -0.5625 
Q 10.6875 0.296875 5.421875 2 
L 5.421875 11.28125 
Q 10.40625 8.6875 15.234375 7.390625 
Q 20.0625 6.109375 24.8125 6.109375 
Q 31.15625 6.109375 34.5625 8.28125 
Q 37.984375 10.453125 37.984375 14.40625 
Q 37.984375 18.0625 35.515625 20.015625 
Q 33.0625 21.96875 24.703125 23.78125 
L 21.578125 24.515625 
Q 13.234375 26.265625 9.515625 29.90625 
Q 5.8125 33.546875 5.8125 39.890625 
Q 5.8125 47.609375 11.28125 51.796875 
Q 16.75 56 26.8125 56 
Q 31.78125 56 36.171875 55.265625 
Q 40.578125 54.546875 44.28125 53.078125 
z
" id="DejaVuSans-73"/>
     </defs>
     <g style="fill:#ff7f0e;" transform="translate(14.798438 283.588594)rotate(-90)scale(0.1 -0.1)">
      <use xlink:href="#DejaVuSans-52"/>
      <use x="69.419922" xlink:href="#DejaVuSans-65"/>
      <use x="130.943359" xlink:href="#DejaVuSans-66"/>
      <use x="166.148438" xlink:href="#DejaVuSans-75"/>
      <use x="229.527344" xlink:href="#DejaVuSans-67"/>
      <use x="293.003906" xlink:href="#DejaVuSans-65"/>
      <use x="354.527344" xlink:href="#DejaVuSans-65"/>
      <use x="416.050781" xlink:href="#DejaVuSans-73"/>
     </g>
    </g>
   </g>
   <g id="line2d_12">
    <path clip-path="url(#peb88e9f7a9)" d="M 97.692898 469.403662 
L 102.547182 465.09718 
L 107.401467 466.418406 
L 112.255751 474.084847 
L 117.110036 474.404862 
L 121.96432 459.647419 
L 126.818605 481.687912 
L 131.672889 482.626285 
L 136.527173 485.99488 
L 141.381458 486.98 
L 146.235742 486.98 
L 151.090027 472.17649 
L 155.944311 486.98 
L 175.361449 486.98 
L 180.215734 475.776235 
L 185.070018 468.126234 
L 189.924303 463.814214 
L 194.778587 465.143481 
L 199.632872 472.802074 
L 204.487156 473.136363 
L 209.341441 458.355861 
L 214.195725 439.603191 
L 219.05001 435.16729 
L 223.904294 436.676236 
L 228.758578 444.159472 
L 233.612863 444.812629 
L 238.467147 429.517245 
L 243.321432 449.227667 
L 248.175716 444.833569 
L 253.030001 446.281891 
L 257.884285 453.824293 
L 262.73857 454.369852 
L 267.592854 439.248201 
L 272.447139 416.82645 
L 277.301423 412.291625 
L 282.155708 413.944044 
L 287.009992 421.287252 
L 291.864277 422.195035 
L 296.718561 406.48853 
L 301.572846 422.154947 
L 306.42713 417.643291 
L 311.281414 419.262135 
L 316.135699 426.638096 
L 320.989983 427.4863 
L 325.844268 411.875971 
L 330.698552 440.466953 
L 335.552837 436.034815 
L 340.407121 437.538313 
L 345.261406 445.026846 
L 350.11569 445.670355 
L 354.969975 430.390563 
L 359.824259 468.330804 
L 364.678544 464.019668 
L 369.532828 465.347654 
L 374.387113 473.007492 
L 379.241397 473.339498 
L 384.095682 458.56269 
L 388.949966 465.941055 
L 393.80425 461.619543 
L 398.658535 462.962569 
L 403.512819 470.607725 
L 408.367104 470.966448 
L 413.221388 456.146501 
L 418.075673 482.259325 
L 422.929957 483.951353 
L 427.784242 486.98 
L 437.492811 486.98 
L 442.347095 472.521565 
L 447.20138 476.746293 
L 452.055664 472.623861 
L 456.909949 473.975422 
L 461.764233 481.674789 
L 466.618518 481.832 
L 471.472802 467.146317 
L 476.327087 478.892593 
L 481.181371 476.407123 
L 486.035655 478.564725 
L 490.88994 486.146457 
L 495.744224 485.41626 
L 500.598509 470.119048 
L 505.452793 474.369646 
L 510.307078 470.084741 
L 515.161362 471.374683 
L 520.015647 479.071651 
L 524.869931 479.336144 
L 529.724216 464.668346 
L 534.5785 472.159117 
L 539.432785 467.86461 
L 544.287069 469.168482 
L 549.141354 476.85186 
L 553.995638 477.141071 
L 558.849923 462.433367 
L 568.558491 453.774894 
L 573.412776 455.167144 
L 578.26706 462.764282 
L 583.121345 463.2103 
L 587.975629 448.249369 
L 592.829914 486.771706 
L 597.684198 486.98 
L 612.247052 486.98 
L 617.101336 475.246564 
L 621.955621 471.607711 
L 626.809905 467.3108 
L 631.66419 468.618137 
L 636.518474 476.298132 
L 641.372759 476.593512 
L 646.227043 461.875851 
L 651.081327 477.212419 
L 655.935612 473.445494 
L 660.789896 474.972102 
L 665.644181 482.645927 
L 670.498465 482.610416 
L 675.35275 467.791921 
L 680.207034 480.690891 
L 685.061319 480.314254 
L 689.915603 483.239205 
L 694.769888 486.98 
L 699.624172 486.98 
L 704.478457 471.574396 
L 709.332741 479.503123 
L 714.187026 477.559908 
L 719.04131 479.956332 
L 723.895595 486.98 
L 728.749879 486.392282 
L 733.604163 470.857112 
L 738.458448 461.516683 
L 743.312732 457.175971 
L 748.167017 458.546872 
L 753.021301 466.164822 
L 757.875586 466.572994 
L 762.72987 451.673188 
L 767.584155 485.39709 
L 772.438439 486.98 
L 787.001293 486.98 
L 791.855577 474.41644 
L 796.709862 473.26924 
L 801.564146 468.97956 
L 806.418431 470.276444 
L 811.272715 477.966646 
L 816.127 478.243441 
L 820.981284 463.55577 
L 825.835568 467.398589 
L 830.689853 463.08341 
L 835.544137 464.417263 
L 840.398422 472.071379 
L 845.252706 472.413804 
L 850.106991 457.62017 
L 854.961275 479.899558 
L 859.81556 478.479194 
L 864.669844 481.052025 
L 869.524129 486.98 
L 874.378413 486.928914 
L 879.232698 471.096514 
L 884.086982 479.077658 
L 888.941267 476.733347 
L 893.795551 478.960429 
L 898.649836 486.532025 
L 903.50412 485.725317 
L 908.358404 470.375377 
L 913.212689 477.303894 
L 918.066973 473.606753 
L 922.921258 475.167717 
L 927.775542 482.836521 
L 932.629827 482.76319 
L 937.484111 467.918631 
L 942.338396 482.256964 
L 947.19268 483.945882 
L 952.046965 486.98 
L 961.755534 486.98 
L 966.609818 472.520137 
L 971.464103 468.771863 
L 976.318387 464.462643 
L 981.172672 465.787842 
L 986.026956 473.450413 
L 990.88124 473.777484 
L 995.735525 459.008634 
L 1000.589809 477.454733 
L 1005.444094 473.872633 
L 1010.298378 475.490245 
L 1015.152663 483.150781 
L 1020.006947 483.015087 
L 1024.861232 468.12755 
L 1029.715516 476.839859 
L 1034.569801 472.788793 
L 1039.424085 474.17551 
L 1044.27837 481.869728 
L 1049.132654 481.988263 
L 1053.986939 467.275914 
L 1058.841223 479.567672 
L 1063.695508 477.709583 
L 1068.549792 480.134721 
L 1073.404077 486.98 
L 1078.258361 486.479656 
L 1083.112645 470.896088 
L 1087.96693 471.517103 
L 1092.821214 467.219807 
L 1097.675499 468.52771 
L 1102.529783 476.207145 
L 1107.384068 476.503536 
L 1112.238352 461.784243 
L 1112.238352 461.784243 
" style="fill:none;stroke:#008000;stroke-dasharray:5.55,2.4;stroke-dashoffset:0;stroke-width:1.5;"/>
   </g>
   <g id="line2d_13">
    <path clip-path="url(#peb88e9f7a9)" d="M 97.692898 486.98 
L 102.547182 486.98 
L 107.401467 482.12 
L 112.255751 474.02 
L 117.110036 480.5 
L 121.96432 478.88 
L 126.818605 474.02 
L 131.672889 478.88 
L 136.527173 480.5 
L 141.381458 485.36 
L 146.235742 459.44 
L 151.090027 456.2 
L 155.944311 467.54 
L 160.798596 457.82 
L 165.65288 440 
L 170.507165 433.52 
L 175.361449 448.1 
L 180.215734 436.76 
L 185.070018 459.44 
L 189.924303 443.24 
L 194.778587 456.2 
L 199.632872 461.06 
L 204.487156 436.76 
L 209.341441 446.48 
L 214.195725 457.82 
L 219.05001 456.2 
L 223.904294 456.2 
L 228.758578 461.06 
L 233.612863 464.3 
L 238.467147 433.52 
L 243.321432 448.1 
L 248.175716 467.54 
L 253.030001 428.66 
L 257.884285 444.86 
L 262.73857 430.28 
L 272.447139 417.32 
L 277.301423 446.48 
L 282.155708 438.38 
L 287.009992 449.72 
L 296.718561 410.84 
L 301.572846 420.56 
L 306.42713 457.82 
L 311.281414 376.82 
L 316.135699 386.54 
L 320.989983 456.2 
L 325.844268 464.3 
L 330.698552 443.24 
L 335.552837 480.5 
L 340.407121 462.68 
L 345.261406 472.4 
L 350.11569 474.02 
L 354.969975 474.02 
L 359.824259 478.88 
L 364.678544 485.36 
L 369.532828 472.4 
L 374.387113 469.16 
L 379.241397 483.74 
L 384.095682 478.88 
L 388.949966 469.16 
L 393.80425 478.88 
L 398.658535 483.74 
L 403.512819 469.16 
L 408.367104 477.26 
L 413.221388 477.26 
L 418.075673 480.5 
L 422.929957 485.36 
L 427.784242 483.74 
L 432.638526 485.36 
L 437.492811 474.02 
L 442.347095 486.98 
L 447.20138 486.98 
L 452.055664 478.88 
L 456.909949 480.5 
L 461.764233 478.88 
L 466.618518 483.74 
L 471.472802 482.12 
L 476.327087 472.4 
L 481.181371 478.88 
L 486.035655 475.64 
L 490.88994 483.74 
L 495.744224 483.74 
L 500.598509 478.88 
L 505.452793 478.88 
L 510.307078 485.36 
L 515.161362 482.12 
L 520.015647 485.36 
L 524.869931 474.02 
L 529.724216 475.64 
L 534.5785 480.5 
L 539.432785 472.4 
L 544.287069 485.36 
L 549.141354 477.26 
L 553.995638 480.5 
L 558.849923 482.12 
L 563.704207 478.88 
L 568.558491 483.74 
L 573.412776 482.12 
L 578.26706 467.54 
L 583.121345 478.88 
L 587.975629 482.12 
L 592.829914 472.4 
L 597.684198 485.36 
L 607.392767 478.88 
L 612.247052 486.98 
L 617.101336 486.98 
L 621.955621 475.64 
L 626.809905 485.36 
L 631.66419 480.5 
L 636.518474 477.26 
L 641.372759 486.98 
L 651.081327 483.74 
L 655.935612 483.74 
L 660.789896 482.12 
L 665.644181 486.98 
L 670.498465 483.74 
L 675.35275 482.12 
L 680.207034 485.36 
L 685.061319 482.12 
L 689.915603 483.74 
L 694.769888 480.5 
L 699.624172 478.88 
L 704.478457 478.88 
L 709.332741 485.36 
L 714.187026 475.64 
L 719.04131 477.26 
L 723.895595 485.36 
L 728.749879 480.5 
L 733.604163 483.74 
L 738.458448 474.02 
L 743.312732 475.64 
L 748.167017 482.12 
L 753.021301 482.12 
L 757.875586 486.98 
L 762.72987 474.02 
L 767.584155 482.12 
L 772.438439 478.88 
L 777.292724 483.74 
L 782.147008 485.36 
L 787.001293 472.4 
L 791.855577 482.12 
L 796.709862 480.5 
L 801.564146 480.5 
L 806.418431 485.36 
L 811.272715 482.12 
L 816.127 480.5 
L 820.981284 480.5 
L 825.835568 483.74 
L 830.689853 483.74 
L 840.398422 486.98 
L 845.252706 483.74 
L 850.106991 485.36 
L 854.961275 478.88 
L 859.81556 478.88 
L 864.669844 486.98 
L 869.524129 482.12 
L 874.378413 485.36 
L 884.086982 485.36 
L 888.941267 486.98 
L 893.795551 483.74 
L 903.50412 486.98 
L 908.358404 483.74 
L 918.066973 486.98 
L 922.921258 485.36 
L 927.775542 486.98 
L 932.629827 486.98 
L 937.484111 483.74 
L 942.338396 485.36 
L 947.19268 483.74 
L 952.046965 483.74 
L 956.901249 485.36 
L 961.755534 480.5 
L 966.609818 486.98 
L 971.464103 486.98 
L 976.318387 483.74 
L 981.172672 483.74 
L 986.026956 485.36 
L 990.88124 485.36 
L 995.735525 483.74 
L 1000.589809 486.98 
L 1005.444094 485.36 
L 1010.298378 486.98 
L 1015.152663 482.12 
L 1024.861232 485.36 
L 1029.715516 483.74 
L 1034.569801 486.98 
L 1039.424085 483.74 
L 1044.27837 483.74 
L 1049.132654 485.36 
L 1053.986939 482.12 
L 1058.841223 486.98 
L 1068.549792 486.98 
L 1073.404077 478.88 
L 1078.258361 486.98 
L 1102.529783 486.98 
L 1107.384068 33.38 
L 1112.238352 486.98 
L 1112.238352 486.98 
" style="fill:none;stroke:#ff7f0e;stroke-linecap:square;stroke-width:1.5;"/>
   </g>
   <g id="line2d_14">
    <defs>
     <path d="M 0 3 
C 0.795609 3 1.55874 2.683901 2.12132 2.12132 
C 2.683901 1.55874 3 0.795609 3 0 
C 3 -0.795609 2.683901 -1.55874 2.12132 -2.12132 
C 1.55874 -2.683901 0.795609 -3 0 -3 
C -0.795609 -3 -1.55874 -2.683901 -2.12132 -2.12132 
C -2.683901 -1.55874 -3 -0.795609 -3 0 
C -3 0.795609 -2.683901 1.55874 -2.12132 2.12132 
C -1.55874 2.683901 -0.795609 3 0 3 
z
" id="md67d8e760b" style="stroke:#008000;"/>
    </defs>
    <g clip-path="url(#peb88e9f7a9)">
     <use style="fill:#008000;stroke:#008000;" x="97.692898" xlink:href="#md67d8e760b" y="469.403662"/>
     <use style="fill:#008000;stroke:#008000;" x="126.818605" xlink:href="#md67d8e760b" y="481.687912"/>
     <use style="fill:#008000;stroke:#008000;" x="155.944311" xlink:href="#md67d8e760b" y="486.98"/>
     <use style="fill:#008000;stroke:#008000;" x="185.070018" xlink:href="#md67d8e760b" y="468.126234"/>
     <use style="fill:#008000;stroke:#008000;" x="214.195725" xlink:href="#md67d8e760b" y="439.603191"/>
     <use style="fill:#008000;stroke:#008000;" x="243.321432" xlink:href="#md67d8e760b" y="449.227667"/>
     <use style="fill:#008000;stroke:#008000;" x="272.447139" xlink:href="#md67d8e760b" y="416.82645"/>
     <use style="fill:#008000;stroke:#008000;" x="301.572846" xlink:href="#md67d8e760b" y="422.154947"/>
     <use style="fill:#008000;stroke:#008000;" x="330.698552" xlink:href="#md67d8e760b" y="440.466953"/>
     <use style="fill:#008000;stroke:#008000;" x="359.824259" xlink:href="#md67d8e760b" y="468.330804"/>
     <use style="fill:#008000;stroke:#008000;" x="388.949966" xlink:href="#md67d8e760b" y="465.941055"/>
     <use style="fill:#008000;stroke:#008000;" x="418.075673" xlink:href="#md67d8e760b" y="482.259325"/>
     <use style="fill:#008000;stroke:#008000;" x="447.20138" xlink:href="#md67d8e760b" y="476.746293"/>
     <use style="fill:#008000;stroke:#008000;" x="476.327087" xlink:href="#md67d8e760b" y="478.892593"/>
     <use style="fill:#008000;stroke:#008000;" x="505.452793" xlink:href="#md67d8e760b" y="474.369646"/>
     <use style="fill:#008000;stroke:#008000;" x="534.5785" xlink:href="#md67d8e760b" y="472.159117"/>
     <use style="fill:#008000;stroke:#008000;" x="563.704207" xlink:href="#md67d8e760b" y="458.130331"/>
     <use style="fill:#008000;stroke:#008000;" x="592.829914" xlink:href="#md67d8e760b" y="486.771706"/>
     <use style="fill:#008000;stroke:#008000;" x="621.955621" xlink:href="#md67d8e760b" y="471.607711"/>
     <use style="fill:#008000;stroke:#008000;" x="651.081327" xlink:href="#md67d8e760b" y="477.212419"/>
     <use style="fill:#008000;stroke:#008000;" x="680.207034" xlink:href="#md67d8e760b" y="480.690891"/>
     <use style="fill:#008000;stroke:#008000;" x="709.332741" xlink:href="#md67d8e760b" y="479.503123"/>
     <use style="fill:#008000;stroke:#008000;" x="738.458448" xlink:href="#md67d8e760b" y="461.516683"/>
     <use style="fill:#008000;stroke:#008000;" x="767.584155" xlink:href="#md67d8e760b" y="485.39709"/>
     <use style="fill:#008000;stroke:#008000;" x="796.709862" xlink:href="#md67d8e760b" y="473.26924"/>
     <use style="fill:#008000;stroke:#008000;" x="825.835568" xlink:href="#md67d8e760b" y="467.398589"/>
     <use style="fill:#008000;stroke:#008000;" x="854.961275" xlink:href="#md67d8e760b" y="479.899558"/>
     <use style="fill:#008000;stroke:#008000;" x="884.086982" xlink:href="#md67d8e760b" y="479.077658"/>
     <use style="fill:#008000;stroke:#008000;" x="913.212689" xlink:href="#md67d8e760b" y="477.303894"/>
     <use style="fill:#008000;stroke:#008000;" x="942.338396" xlink:href="#md67d8e760b" y="482.256964"/>
     <use style="fill:#008000;stroke:#008000;" x="971.464103" xlink:href="#md67d8e760b" y="468.771863"/>
     <use style="fill:#008000;stroke:#008000;" x="1000.589809" xlink:href="#md67d8e760b" y="477.454733"/>
     <use style="fill:#008000;stroke:#008000;" x="1029.715516" xlink:href="#md67d8e760b" y="476.839859"/>
     <use style="fill:#008000;stroke:#008000;" x="1058.841223" xlink:href="#md67d8e760b" y="479.567672"/>
     <use style="fill:#008000;stroke:#008000;" x="1087.96693" xlink:href="#md67d8e760b" y="471.517103"/>
    </g>
   </g>
   <g id="patch_3">
    <path d="M 46.965625 509.66 
L 46.965625 10.7 
" style="fill:none;stroke:#000000;stroke-linecap:square;stroke-linejoin:miter;stroke-width:0.8;"/>
   </g>
   <g id="patch_4">
    <path d="M 1162.965625 509.66 
L 1162.965625 10.7 
" style="fill:none;stroke:#000000;stroke-linecap:square;stroke-linejoin:miter;stroke-width:0.8;"/>
   </g>
   <g id="patch_5">
    <path d="M 46.965625 509.66 
L 1162.965625 509.66 
" style="fill:none;stroke:#000000;stroke-linecap:square;stroke-linejoin:miter;stroke-width:0.8;"/>
   </g>
   <g id="patch_6">
    <path d="M 46.965625 10.7 
L 1162.965625 10.7 
" style="fill:none;stroke:#000000;stroke-linecap:square;stroke-linejoin:miter;stroke-width:0.8;"/>
   </g>
   <g id="legend_1">
    <g id="patch_7">
     <path d="M 53.965625 62.734375 
L 201.740625 62.734375 
Q 203.740625 62.734375 203.740625 60.734375 
L 203.740625 17.7 
Q 203.740625 15.7 201.740625 15.7 
L 53.965625 15.7 
Q 51.965625 15.7 51.965625 17.7 
L 51.965625 60.734375 
Q 51.965625 62.734375 53.965625 62.734375 
z
" style="fill:#ffffff;opacity:0.8;stroke:#cccccc;stroke-linejoin:miter;"/>
    </g>
    <g id="line2d_15">
     <path d="M 55.965625 23.798437 
L 75.965625 23.798437 
" style="fill:none;stroke:#008000;stroke-dasharray:5.55,2.4;stroke-dashoffset:0;stroke-width:1.5;"/>
    </g>
    <g id="line2d_16"/>
    <g id="text_14">
     <!-- Predicated -->
     <defs>
      <path d="M 19.671875 64.796875 
L 19.671875 37.40625 
L 32.078125 37.40625 
Q 38.96875 37.40625 42.71875 40.96875 
Q 46.484375 44.53125 46.484375 51.125 
Q 46.484375 57.671875 42.71875 61.234375 
Q 38.96875 64.796875 32.078125 64.796875 
z
M 9.8125 72.90625 
L 32.078125 72.90625 
Q 44.34375 72.90625 50.609375 67.359375 
Q 56.890625 61.8125 56.890625 51.125 
Q 56.890625 40.328125 50.609375 34.8125 
Q 44.34375 29.296875 32.078125 29.296875 
L 19.671875 29.296875 
L 19.671875 0 
L 9.8125 0 
z
" id="DejaVuSans-50"/>
      <path d="M 41.109375 46.296875 
Q 39.59375 47.171875 37.8125 47.578125 
Q 36.03125 48 33.890625 48 
Q 26.265625 48 22.1875 43.046875 
Q 18.109375 38.09375 18.109375 28.8125 
L 18.109375 0 
L 9.078125 0 
L 9.078125 54.6875 
L 18.109375 54.6875 
L 18.109375 46.1875 
Q 20.953125 51.171875 25.484375 53.578125 
Q 30.03125 56 36.53125 56 
Q 37.453125 56 38.578125 55.875 
Q 39.703125 55.765625 41.0625 55.515625 
z
" id="DejaVuSans-72"/>
      <path d="M 45.40625 46.390625 
L 45.40625 75.984375 
L 54.390625 75.984375 
L 54.390625 0 
L 45.40625 0 
L 45.40625 8.203125 
Q 42.578125 3.328125 38.25 0.953125 
Q 33.9375 -1.421875 27.875 -1.421875 
Q 17.96875 -1.421875 11.734375 6.484375 
Q 5.515625 14.40625 5.515625 27.296875 
Q 5.515625 40.1875 11.734375 48.09375 
Q 17.96875 56 27.875 56 
Q 33.9375 56 38.25 53.625 
Q 42.578125 51.265625 45.40625 46.390625 
z
M 14.796875 27.296875 
Q 14.796875 17.390625 18.875 11.75 
Q 22.953125 6.109375 30.078125 6.109375 
Q 37.203125 6.109375 41.296875 11.75 
Q 45.40625 17.390625 45.40625 27.296875 
Q 45.40625 37.203125 41.296875 42.84375 
Q 37.203125 48.484375 30.078125 48.484375 
Q 22.953125 48.484375 18.875 42.84375 
Q 14.796875 37.203125 14.796875 27.296875 
z
" id="DejaVuSans-64"/>
      <path d="M 48.78125 52.59375 
L 48.78125 44.1875 
Q 44.96875 46.296875 41.140625 47.34375 
Q 37.3125 48.390625 33.40625 48.390625 
Q 24.65625 48.390625 19.8125 42.84375 
Q 14.984375 37.3125 14.984375 27.296875 
Q 14.984375 17.28125 19.8125 11.734375 
Q 24.65625 6.203125 33.40625 6.203125 
Q 37.3125 6.203125 41.140625 7.25 
Q 44.96875 8.296875 48.78125 10.40625 
L 48.78125 2.09375 
Q 45.015625 0.34375 40.984375 -0.53125 
Q 36.96875 -1.421875 32.421875 -1.421875 
Q 20.0625 -1.421875 12.78125 6.34375 
Q 5.515625 14.109375 5.515625 27.296875 
Q 5.515625 40.671875 12.859375 48.328125 
Q 20.21875 56 33.015625 56 
Q 37.15625 56 41.109375 55.140625 
Q 45.0625 54.296875 48.78125 52.59375 
z
" id="DejaVuSans-63"/>
      <path d="M 34.28125 27.484375 
Q 23.390625 27.484375 19.1875 25 
Q 14.984375 22.515625 14.984375 16.5 
Q 14.984375 11.71875 18.140625 8.90625 
Q 21.296875 6.109375 26.703125 6.109375 
Q 34.1875 6.109375 38.703125 11.40625 
Q 43.21875 16.703125 43.21875 25.484375 
L 43.21875 27.484375 
z
M 52.203125 31.203125 
L 52.203125 0 
L 43.21875 0 
L 43.21875 8.296875 
Q 40.140625 3.328125 35.546875 0.953125 
Q 30.953125 -1.421875 24.3125 -1.421875 
Q 15.921875 -1.421875 10.953125 3.296875 
Q 6 8.015625 6 15.921875 
Q 6 25.140625 12.171875 29.828125 
Q 18.359375 34.515625 30.609375 34.515625 
L 43.21875 34.515625 
L 43.21875 35.40625 
Q 43.21875 41.609375 39.140625 45 
Q 35.0625 48.390625 27.6875 48.390625 
Q 23 48.390625 18.546875 47.265625 
Q 14.109375 46.140625 10.015625 43.890625 
L 10.015625 52.203125 
Q 14.9375 54.109375 19.578125 55.046875 
Q 24.21875 56 28.609375 56 
Q 40.484375 56 46.34375 49.84375 
Q 52.203125 43.703125 52.203125 31.203125 
z
" id="DejaVuSans-61"/>
      <path d="M 18.3125 70.21875 
L 18.3125 54.6875 
L 36.8125 54.6875 
L 36.8125 47.703125 
L 18.3125 47.703125 
L 18.3125 18.015625 
Q 18.3125 11.328125 20.140625 9.421875 
Q 21.96875 7.515625 27.59375 7.515625 
L 36.8125 7.515625 
L 36.8125 0 
L 27.59375 0 
Q 17.1875 0 13.234375 3.875 
Q 9.28125 7.765625 9.28125 18.015625 
L 9.28125 47.703125 
L 2.6875 47.703125 
L 2.6875 54.6875 
L 9.28125 54.6875 
L 9.28125 70.21875 
z
" id="DejaVuSans-74"/>
     </defs>
     <g transform="translate(83.965625 27.298437)scale(0.1 -0.1)">
      <use xlink:href="#DejaVuSans-50"/>
      <use x="60.287109" xlink:href="#DejaVuSans-72"/>
      <use x="101.369141" xlink:href="#DejaVuSans-65"/>
      <use x="162.892578" xlink:href="#DejaVuSans-64"/>
      <use x="226.369141" xlink:href="#DejaVuSans-69"/>
      <use x="254.152344" xlink:href="#DejaVuSans-63"/>
      <use x="309.132812" xlink:href="#DejaVuSans-61"/>
      <use x="370.412109" xlink:href="#DejaVuSans-74"/>
      <use x="409.621094" xlink:href="#DejaVuSans-65"/>
      <use x="471.144531" xlink:href="#DejaVuSans-64"/>
     </g>
    </g>
    <g id="line2d_17">
     <path d="M 55.965625 38.476562 
L 75.965625 38.476562 
" style="fill:none;stroke:#ff7f0e;stroke-linecap:square;stroke-width:1.5;"/>
    </g>
    <g id="line2d_18"/>
    <g id="text_15">
     <!-- Real Data -->
     <defs>
      <path d="M 9.421875 75.984375 
L 18.40625 75.984375 
L 18.40625 0 
L 9.421875 0 
z
" id="DejaVuSans-6c"/>
      <path id="DejaVuSans-20"/>
      <path d="M 19.671875 64.796875 
L 19.671875 8.109375 
L 31.59375 8.109375 
Q 46.6875 8.109375 53.6875 14.9375 
Q 60.6875 21.78125 60.6875 36.53125 
Q 60.6875 51.171875 53.6875 57.984375 
Q 46.6875 64.796875 31.59375 64.796875 
z
M 9.8125 72.90625 
L 30.078125 72.90625 
Q 51.265625 72.90625 61.171875 64.09375 
Q 71.09375 55.28125 71.09375 36.53125 
Q 71.09375 17.671875 61.125 8.828125 
Q 51.171875 0 30.078125 0 
L 9.8125 0 
z
" id="DejaVuSans-44"/>
     </defs>
     <g transform="translate(83.965625 41.976562)scale(0.1 -0.1)">
      <use xlink:href="#DejaVuSans-52"/>
      <use x="69.419922" xlink:href="#DejaVuSans-65"/>
      <use x="130.943359" xlink:href="#DejaVuSans-61"/>
      <use x="192.222656" xlink:href="#DejaVuSans-6c"/>
      <use x="220.005859" xlink:href="#DejaVuSans-20"/>
      <use x="251.792969" xlink:href="#DejaVuSans-44"/>
      <use x="328.794922" xlink:href="#DejaVuSans-61"/>
      <use x="390.074219" xlink:href="#DejaVuSans-74"/>
      <use x="429.283203" xlink:href="#DejaVuSans-61"/>
     </g>
    </g>
    <g id="line2d_19"/>
    <g id="line2d_20">
     <g>
      <use style="fill:#008000;stroke:#008000;" x="65.965625" xlink:href="#md67d8e760b" y="53.154688"/>
     </g>
    </g>
    <g id="text_16">
     <!-- Start Point for Forecast -->
     <defs>
      <path d="M 53.515625 70.515625 
L 53.515625 60.890625 
Q 47.90625 63.578125 42.921875 64.890625 
Q 37.9375 66.21875 33.296875 66.21875 
Q 25.25 66.21875 20.875 63.09375 
Q 16.5 59.96875 16.5 54.203125 
Q 16.5 49.359375 19.40625 46.890625 
Q 22.3125 44.4375 30.421875 42.921875 
L 36.375 41.703125 
Q 47.40625 39.59375 52.65625 34.296875 
Q 57.90625 29 57.90625 20.125 
Q 57.90625 9.515625 50.796875 4.046875 
Q 43.703125 -1.421875 29.984375 -1.421875 
Q 24.8125 -1.421875 18.96875 -0.25 
Q 13.140625 0.921875 6.890625 3.21875 
L 6.890625 13.375 
Q 12.890625 10.015625 18.65625 8.296875 
Q 24.421875 6.59375 29.984375 6.59375 
Q 38.421875 6.59375 43.015625 9.90625 
Q 47.609375 13.234375 47.609375 19.390625 
Q 47.609375 24.75 44.3125 27.78125 
Q 41.015625 30.8125 33.5 32.328125 
L 27.484375 33.5 
Q 16.453125 35.6875 11.515625 40.375 
Q 6.59375 45.0625 6.59375 53.421875 
Q 6.59375 63.09375 13.40625 68.65625 
Q 20.21875 74.21875 32.171875 74.21875 
Q 37.3125 74.21875 42.625 73.28125 
Q 47.953125 72.359375 53.515625 70.515625 
z
" id="DejaVuSans-53"/>
      <path d="M 30.609375 48.390625 
Q 23.390625 48.390625 19.1875 42.75 
Q 14.984375 37.109375 14.984375 27.296875 
Q 14.984375 17.484375 19.15625 11.84375 
Q 23.34375 6.203125 30.609375 6.203125 
Q 37.796875 6.203125 41.984375 11.859375 
Q 46.1875 17.53125 46.1875 27.296875 
Q 46.1875 37.015625 41.984375 42.703125 
Q 37.796875 48.390625 30.609375 48.390625 
z
M 30.609375 56 
Q 42.328125 56 49.015625 48.375 
Q 55.71875 40.765625 55.71875 27.296875 
Q 55.71875 13.875 49.015625 6.21875 
Q 42.328125 -1.421875 30.609375 -1.421875 
Q 18.84375 -1.421875 12.171875 6.21875 
Q 5.515625 13.875 5.515625 27.296875 
Q 5.515625 40.765625 12.171875 48.375 
Q 18.84375 56 30.609375 56 
z
" id="DejaVuSans-6f"/>
      <path d="M 54.890625 33.015625 
L 54.890625 0 
L 45.90625 0 
L 45.90625 32.71875 
Q 45.90625 40.484375 42.875 44.328125 
Q 39.84375 48.1875 33.796875 48.1875 
Q 26.515625 48.1875 22.3125 43.546875 
Q 18.109375 38.921875 18.109375 30.90625 
L 18.109375 0 
L 9.078125 0 
L 9.078125 54.6875 
L 18.109375 54.6875 
L 18.109375 46.1875 
Q 21.34375 51.125 25.703125 53.5625 
Q 30.078125 56 35.796875 56 
Q 45.21875 56 50.046875 50.171875 
Q 54.890625 44.34375 54.890625 33.015625 
z
" id="DejaVuSans-6e"/>
      <path d="M 9.8125 72.90625 
L 51.703125 72.90625 
L 51.703125 64.59375 
L 19.671875 64.59375 
L 19.671875 43.109375 
L 48.578125 43.109375 
L 48.578125 34.8125 
L 19.671875 34.8125 
L 19.671875 0 
L 9.8125 0 
z
" id="DejaVuSans-46"/>
     </defs>
     <g transform="translate(83.965625 56.654688)scale(0.1 -0.1)">
      <use xlink:href="#DejaVuSans-53"/>
      <use x="63.476562" xlink:href="#DejaVuSans-74"/>
      <use x="102.685547" xlink:href="#DejaVuSans-61"/>
      <use x="163.964844" xlink:href="#DejaVuSans-72"/>
      <use x="205.078125" xlink:href="#DejaVuSans-74"/>
      <use x="244.287109" xlink:href="#DejaVuSans-20"/>
      <use x="276.074219" xlink:href="#DejaVuSans-50"/>
      <use x="336.330078" xlink:href="#DejaVuSans-6f"/>
      <use x="397.511719" xlink:href="#DejaVuSans-69"/>
      <use x="425.294922" xlink:href="#DejaVuSans-6e"/>
      <use x="488.673828" xlink:href="#DejaVuSans-74"/>
      <use x="527.882812" xlink:href="#DejaVuSans-20"/>
      <use x="559.669922" xlink:href="#DejaVuSans-66"/>
      <use x="594.875" xlink:href="#DejaVuSans-6f"/>
      <use x="656.056641" xlink:href="#DejaVuSans-72"/>
      <use x="697.169922" xlink:href="#DejaVuSans-20"/>
      <use x="728.957031" xlink:href="#DejaVuSans-46"/>
      <use x="786.429688" xlink:href="#DejaVuSans-6f"/>
      <use x="847.611328" xlink:href="#DejaVuSans-72"/>
      <use x="888.693359" xlink:href="#DejaVuSans-65"/>
      <use x="950.216797" xlink:href="#DejaVuSans-63"/>
      <use x="1005.197266" xlink:href="#DejaVuSans-61"/>
      <use x="1066.476562" xlink:href="#DejaVuSans-73"/>
      <use x="1118.576172" xlink:href="#DejaVuSans-74"/>
     </g>
    </g>
   </g>
  </g>
  <g id="axes_2">
   <g id="patch_8">
    <path d="M 46.965625 645.74 
L 1164.405625 645.74 
L 1164.405625 516.14 
L 46.965625 516.14 
z
" style="fill:none;"/>
   </g>
   <g id="matplotlib.axis_3">
    <g id="xtick_6">
     <g id="line2d_21">
      <g>
       <use style="stroke:#000000;stroke-width:0.8;" x="97.758352" xlink:href="#mb0d1baffb4" y="645.74"/>
      </g>
     </g>
     <g id="text_17">
      <!-- 0 -->
      <g transform="translate(94.577102 660.338437)scale(0.1 -0.1)">
       <use xlink:href="#DejaVuSans-30"/>
      </g>
     </g>
    </g>
    <g id="xtick_7">
     <g id="line2d_22">
      <g>
       <use style="stroke:#000000;stroke-width:0.8;" x="222.250331" xlink:href="#mb0d1baffb4" y="645.74"/>
      </g>
     </g>
     <g id="text_18">
      <!-- 25 -->
      <g transform="translate(215.887831 660.338437)scale(0.1 -0.1)">
       <use xlink:href="#DejaVuSans-32"/>
       <use x="63.623047" xlink:href="#DejaVuSans-35"/>
      </g>
     </g>
    </g>
    <g id="xtick_8">
     <g id="line2d_23">
      <g>
       <use style="stroke:#000000;stroke-width:0.8;" x="346.742309" xlink:href="#mb0d1baffb4" y="645.74"/>
      </g>
     </g>
     <g id="text_19">
      <!-- 50 -->
      <g transform="translate(340.379809 660.338437)scale(0.1 -0.1)">
       <use xlink:href="#DejaVuSans-35"/>
       <use x="63.623047" xlink:href="#DejaVuSans-30"/>
      </g>
     </g>
    </g>
    <g id="xtick_9">
     <g id="line2d_24">
      <g>
       <use style="stroke:#000000;stroke-width:0.8;" x="471.234288" xlink:href="#mb0d1baffb4" y="645.74"/>
      </g>
     </g>
     <g id="text_20">
      <!-- 75 -->
      <defs>
       <path d="M 8.203125 72.90625 
L 55.078125 72.90625 
L 55.078125 68.703125 
L 28.609375 0 
L 18.3125 0 
L 43.21875 64.59375 
L 8.203125 64.59375 
z
" id="DejaVuSans-37"/>
      </defs>
      <g transform="translate(464.871788 660.338437)scale(0.1 -0.1)">
       <use xlink:href="#DejaVuSans-37"/>
       <use x="63.623047" xlink:href="#DejaVuSans-35"/>
      </g>
     </g>
    </g>
    <g id="xtick_10">
     <g id="line2d_25">
      <g>
       <use style="stroke:#000000;stroke-width:0.8;" x="595.726267" xlink:href="#mb0d1baffb4" y="645.74"/>
      </g>
     </g>
     <g id="text_21">
      <!-- 100 -->
      <g transform="translate(586.182517 660.338437)scale(0.1 -0.1)">
       <use xlink:href="#DejaVuSans-31"/>
       <use x="63.623047" xlink:href="#DejaVuSans-30"/>
       <use x="127.246094" xlink:href="#DejaVuSans-30"/>
      </g>
     </g>
    </g>
    <g id="xtick_11">
     <g id="line2d_26">
      <g>
       <use style="stroke:#000000;stroke-width:0.8;" x="720.218245" xlink:href="#mb0d1baffb4" y="645.74"/>
      </g>
     </g>
     <g id="text_22">
      <!-- 125 -->
      <g transform="translate(710.674495 660.338437)scale(0.1 -0.1)">
       <use xlink:href="#DejaVuSans-31"/>
       <use x="63.623047" xlink:href="#DejaVuSans-32"/>
       <use x="127.246094" xlink:href="#DejaVuSans-35"/>
      </g>
     </g>
    </g>
    <g id="xtick_12">
     <g id="line2d_27">
      <g>
       <use style="stroke:#000000;stroke-width:0.8;" x="844.710224" xlink:href="#mb0d1baffb4" y="645.74"/>
      </g>
     </g>
     <g id="text_23">
      <!-- 150 -->
      <g transform="translate(835.166474 660.338437)scale(0.1 -0.1)">
       <use xlink:href="#DejaVuSans-31"/>
       <use x="63.623047" xlink:href="#DejaVuSans-35"/>
       <use x="127.246094" xlink:href="#DejaVuSans-30"/>
      </g>
     </g>
    </g>
    <g id="xtick_13">
     <g id="line2d_28">
      <g>
       <use style="stroke:#000000;stroke-width:0.8;" x="969.202203" xlink:href="#mb0d1baffb4" y="645.74"/>
      </g>
     </g>
     <g id="text_24">
      <!-- 175 -->
      <g transform="translate(959.658453 660.338437)scale(0.1 -0.1)">
       <use xlink:href="#DejaVuSans-31"/>
       <use x="63.623047" xlink:href="#DejaVuSans-37"/>
       <use x="127.246094" xlink:href="#DejaVuSans-35"/>
      </g>
     </g>
    </g>
    <g id="xtick_14">
     <g id="line2d_29">
      <g>
       <use style="stroke:#000000;stroke-width:0.8;" x="1093.694181" xlink:href="#mb0d1baffb4" y="645.74"/>
      </g>
     </g>
     <g id="text_25">
      <!-- 200 -->
      <g transform="translate(1084.150431 660.338437)scale(0.1 -0.1)">
       <use xlink:href="#DejaVuSans-32"/>
       <use x="63.623047" xlink:href="#DejaVuSans-30"/>
       <use x="127.246094" xlink:href="#DejaVuSans-30"/>
      </g>
     </g>
    </g>
   </g>
   <g id="matplotlib.axis_4">
    <g id="ytick_7">
     <g id="line2d_30">
      <g>
       <use style="stroke:#000000;stroke-width:0.8;" x="46.965625" xlink:href="#mbd7ba27353" y="633.301211"/>
      </g>
     </g>
     <g id="text_26">
      <!-- 0 -->
      <g transform="translate(33.603125 637.10043)scale(0.1 -0.1)">
       <use xlink:href="#DejaVuSans-30"/>
      </g>
     </g>
    </g>
    <g id="ytick_8">
     <g id="line2d_31">
      <g>
       <use style="stroke:#000000;stroke-width:0.8;" x="46.965625" xlink:href="#mbd7ba27353" y="599.327725"/>
      </g>
     </g>
     <g id="text_27">
      <!-- 10 -->
      <g transform="translate(27.240625 603.126944)scale(0.1 -0.1)">
       <use xlink:href="#DejaVuSans-31"/>
       <use x="63.623047" xlink:href="#DejaVuSans-30"/>
      </g>
     </g>
    </g>
    <g id="ytick_9">
     <g id="line2d_32">
      <g>
       <use style="stroke:#000000;stroke-width:0.8;" x="46.965625" xlink:href="#mbd7ba27353" y="565.354239"/>
      </g>
     </g>
     <g id="text_28">
      <!-- 20 -->
      <g transform="translate(27.240625 569.153457)scale(0.1 -0.1)">
       <use xlink:href="#DejaVuSans-32"/>
       <use x="63.623047" xlink:href="#DejaVuSans-30"/>
      </g>
     </g>
    </g>
    <g id="ytick_10">
     <g id="line2d_33">
      <g>
       <use style="stroke:#000000;stroke-width:0.8;" x="46.965625" xlink:href="#mbd7ba27353" y="531.380752"/>
      </g>
     </g>
     <g id="text_29">
      <!-- 30 -->
      <defs>
       <path d="M 40.578125 39.3125 
Q 47.65625 37.796875 51.625 33 
Q 55.609375 28.21875 55.609375 21.1875 
Q 55.609375 10.40625 48.1875 4.484375 
Q 40.765625 -1.421875 27.09375 -1.421875 
Q 22.515625 -1.421875 17.65625 -0.515625 
Q 12.796875 0.390625 7.625 2.203125 
L 7.625 11.71875 
Q 11.71875 9.328125 16.59375 8.109375 
Q 21.484375 6.890625 26.8125 6.890625 
Q 36.078125 6.890625 40.9375 10.546875 
Q 45.796875 14.203125 45.796875 21.1875 
Q 45.796875 27.640625 41.28125 31.265625 
Q 36.765625 34.90625 28.71875 34.90625 
L 20.21875 34.90625 
L 20.21875 43.015625 
L 29.109375 43.015625 
Q 36.375 43.015625 40.234375 45.921875 
Q 44.09375 48.828125 44.09375 54.296875 
Q 44.09375 59.90625 40.109375 62.90625 
Q 36.140625 65.921875 28.71875 65.921875 
Q 24.65625 65.921875 20.015625 65.03125 
Q 15.375 64.15625 9.8125 62.3125 
L 9.8125 71.09375 
Q 15.4375 72.65625 20.34375 73.4375 
Q 25.25 74.21875 29.59375 74.21875 
Q 40.828125 74.21875 47.359375 69.109375 
Q 53.90625 64.015625 53.90625 55.328125 
Q 53.90625 49.265625 50.4375 45.09375 
Q 46.96875 40.921875 40.578125 39.3125 
z
" id="DejaVuSans-33"/>
      </defs>
      <g transform="translate(27.240625 535.179971)scale(0.1 -0.1)">
       <use xlink:href="#DejaVuSans-33"/>
       <use x="63.623047" xlink:href="#DejaVuSans-30"/>
      </g>
     </g>
    </g>
    <g id="text_30">
     <!-- Temperature -->
     <defs>
      <path d="M 18.109375 8.203125 
L 18.109375 -20.796875 
L 9.078125 -20.796875 
L 9.078125 54.6875 
L 18.109375 54.6875 
L 18.109375 46.390625 
Q 20.953125 51.265625 25.265625 53.625 
Q 29.59375 56 35.59375 56 
Q 45.5625 56 51.78125 48.09375 
Q 58.015625 40.1875 58.015625 27.296875 
Q 58.015625 14.40625 51.78125 6.484375 
Q 45.5625 -1.421875 35.59375 -1.421875 
Q 29.59375 -1.421875 25.265625 0.953125 
Q 20.953125 3.328125 18.109375 8.203125 
z
M 48.6875 27.296875 
Q 48.6875 37.203125 44.609375 42.84375 
Q 40.53125 48.484375 33.40625 48.484375 
Q 26.265625 48.484375 22.1875 42.84375 
Q 18.109375 37.203125 18.109375 27.296875 
Q 18.109375 17.390625 22.1875 11.75 
Q 26.265625 6.109375 33.40625 6.109375 
Q 40.53125 6.109375 44.609375 11.75 
Q 48.6875 17.390625 48.6875 27.296875 
z
" id="DejaVuSans-70"/>
     </defs>
     <g style="fill:#0000ff;" transform="translate(21.160938 613.557187)rotate(-90)scale(0.1 -0.1)">
      <use xlink:href="#DejaVuSans-54"/>
      <use x="60.818359" xlink:href="#DejaVuSans-65"/>
      <use x="122.341797" xlink:href="#DejaVuSans-6d"/>
      <use x="219.753906" xlink:href="#DejaVuSans-70"/>
      <use x="283.230469" xlink:href="#DejaVuSans-65"/>
      <use x="344.753906" xlink:href="#DejaVuSans-72"/>
      <use x="385.867188" xlink:href="#DejaVuSans-61"/>
      <use x="447.146484" xlink:href="#DejaVuSans-74"/>
      <use x="486.355469" xlink:href="#DejaVuSans-75"/>
      <use x="549.734375" xlink:href="#DejaVuSans-72"/>
      <use x="590.816406" xlink:href="#DejaVuSans-65"/>
     </g>
    </g>
   </g>
   <g id="line2d_34">
    <path clip-path="url(#p05482166c7)" d="M 97.758352 578.933101 
L 102.738031 567.848572 
L 107.717711 562.233434 
L 112.69739 555.929654 
L 117.677069 541.989313 
L 122.656748 532.377534 
L 127.636427 526.427758 
L 132.616106 532.508332 
L 142.575465 553.457743 
L 147.555144 570.313688 
L 152.534823 574.213844 
L 157.514502 585.373795 
L 162.494181 572.388449 
L 167.47386 566.085688 
L 172.453539 557.581784 
L 177.433219 547.933314 
L 182.412898 535.97125 
L 187.392577 531.999749 
L 192.372256 531.39706 
L 197.351935 539.216397 
L 202.331614 554.119207 
L 207.311293 570.973113 
L 212.290973 573.792233 
L 217.270652 572.243382 
L 222.250331 557.296747 
L 227.23001 564.728787 
L 232.209689 555.130597 
L 237.189368 545.043529 
L 247.148727 530.698904 
L 252.128406 535.68961 
L 257.108085 537.485788 
L 262.087764 557.417013 
L 267.067443 558.115168 
L 272.047122 577.111783 
L 277.026801 578.094975 
L 282.006481 563.566554 
L 286.98616 565.284933 
L 291.965839 548.487082 
L 296.945518 541.932917 
L 301.925197 539.899944 
L 306.904876 527.850228 
L 311.884555 533.762973 
L 316.864235 540.892309 
L 321.843914 556.288753 
L 331.803272 571.279215 
L 336.782951 574.756741 
L 341.76263 574.573623 
L 346.742309 563.516273 
L 351.721989 547.696859 
L 356.701668 543.308164 
L 361.681347 540.001185 
L 366.661026 528.328235 
L 371.640705 534.99723 
L 376.620384 533.807478 
L 381.600064 544.579452 
L 386.579743 572.291624 
L 391.559422 570.393526 
L 396.539101 573.969235 
L 401.51878 566.648289 
L 406.498459 559.03483 
L 411.478138 552.14161 
L 416.457818 548.097406 
L 421.437497 532.853503 
L 426.417176 522.030909 
L 431.396855 533.392662 
L 436.376534 538.85424 
L 441.356213 556.658045 
L 446.335892 563.927692 
L 451.315572 567.54349 
L 456.295251 573.20653 
L 461.27493 567.01826 
L 466.254609 569.815976 
L 471.234288 558.274504 
L 476.213967 536.699981 
L 481.193646 536.21382 
L 486.173326 528.458353 
L 491.153005 530.825625 
L 496.132684 538.23932 
L 501.112363 549.046286 
L 506.092042 569.550983 
L 511.071721 571.778964 
L 516.0514 565.427961 
L 521.03108 573.759619 
L 526.010759 562.273863 
L 530.990438 545.788228 
L 535.970117 545.507607 
L 540.949796 531.502717 
L 545.929475 530.211045 
L 550.909154 529.92227 
L 555.888834 543.006479 
L 560.868513 550.464339 
L 565.848192 574.588912 
L 570.827871 579.39548 
L 575.80755 584.821046 
L 580.787229 582.451735 
L 585.766908 559.168346 
L 590.746588 552.99944 
L 595.726267 547.029959 
L 600.705946 535.305709 
L 605.685625 530.354413 
L 610.665304 531.325036 
L 615.644983 540.273652 
L 620.624662 547.991069 
L 625.604342 562.002754 
L 630.584021 580.019234 
L 635.5637 568.764837 
L 640.543379 570.033407 
L 645.523058 568.783522 
L 650.502737 554.316932 
L 655.482416 533.913136 
L 660.462096 532.31876 
L 665.441775 528.379874 
L 670.421454 532.854182 
L 675.401133 538.975865 
L 680.380812 547.550093 
L 685.360491 559.749632 
L 690.34017 579.751183 
L 695.31985 582.201351 
L 700.299529 563.683762 
L 705.279208 572.171698 
L 710.258887 556.039048 
L 715.238566 545.188257 
L 720.218245 542.084779 
L 725.197924 530.882021 
L 730.177604 535.895489 
L 735.157283 539.264979 
L 740.136962 553.761466 
L 745.116641 565.798272 
L 750.09632 575.402237 
L 755.075999 579.07579 
L 760.055678 574.884481 
L 765.035358 565.048137 
L 770.015037 559.015805 
L 774.994716 546.459205 
L 779.974395 527.760198 
L 784.954074 525.875689 
L 789.933753 534.761114 
L 794.913432 539.63597 
L 799.893112 549.983274 
L 804.872791 567.247581 
L 809.85247 578.769689 
L 814.832149 579.900326 
L 819.811828 579.182806 
L 824.791507 561.270625 
L 829.771186 559.614078 
L 834.750866 540.359265 
L 839.730545 539.508229 
L 844.710224 526.752544 
L 849.689903 531.451077 
L 854.669582 542.007998 
L 859.649261 555.910629 
L 864.628941 558.398847 
L 869.60862 575.611174 
L 874.588299 582.776861 
L 879.567978 566.447166 
L 884.547657 563.659641 
L 889.527336 556.795638 
L 894.507015 539.692026 
L 899.486695 532.743429 
L 904.466374 533.320978 
L 909.446053 537.450455 
L 914.425732 548.871322 
L 919.405411 551.666661 
L 924.38509 568.383315 
L 929.364769 573.4243 
L 934.344449 576.340584 
L 939.324128 575.675044 
L 944.303807 566.292246 
L 949.283486 556.107675 
L 954.263165 547.381925 
L 959.242844 526.587433 
L 964.222523 529.94911 
L 969.202203 539.280947 
L 974.181882 547.712147 
L 979.161561 555.008293 
L 984.14124 569.474883 
L 989.120919 575.970613 
L 994.100598 574.157109 
L 999.080277 564.419288 
L 1004.059957 563.329079 
L 1009.039636 549.975121 
L 1014.019315 544.300869 
L 1018.998994 539.641405 
L 1023.978673 537.245935 
L 1028.958352 535.411027 
L 1033.938031 538.822644 
L 1038.917711 544.162257 
L 1043.89739 559.234934 
L 1048.877069 569.238087 
L 1053.856748 573.287727 
L 1058.836427 563.805727 
L 1063.816106 567.817996 
L 1068.795785 564.610559 
L 1073.775465 551.216172 
L 1078.755144 538.45709 
L 1083.734823 530.391105 
L 1088.714502 530.582036 
L 1093.694181 547.10538 
L 1098.67386 560.473607 
L 1103.653539 577.698165 
L 1108.633219 584.248593 
L 1113.612898 581.536489 
L 1113.612898 581.536489 
" style="fill:none;stroke:#ff0000;stroke-linecap:square;stroke-width:1.5;"/>
   </g>
   <g id="line2d_35">
    <path clip-path="url(#p05482166c7)" d="M 97.758352 593.786309 
L 102.738031 586.980061 
L 107.717711 579.874846 
L 112.69739 573.41241 
L 117.677069 563.091604 
L 122.656748 553.134315 
L 127.636427 547.169251 
L 132.616106 551.147206 
L 137.595785 561.172442 
L 142.575465 567.642693 
L 147.555144 582.902224 
L 152.534823 587.154005 
L 157.514502 600.687242 
L 162.494181 589.764528 
L 167.47386 584.575418 
L 172.453539 572.870533 
L 177.433219 567.438852 
L 182.412898 556.015607 
L 187.392577 549.587483 
L 192.372256 548.89952 
L 197.351935 553.903135 
L 202.331614 570.539951 
L 207.311293 585.07177 
L 212.290973 588.606032 
L 217.270652 591.575994 
L 222.250331 577.507234 
L 227.23001 582.45853 
L 232.209689 572.166262 
L 237.189368 565.627046 
L 242.169047 558.559202 
L 247.148727 552.382142 
L 252.128406 556.559522 
L 257.108085 554.982133 
L 262.087764 573.996414 
L 267.067443 577.67914 
L 272.047122 596.083597 
L 277.026801 595.804674 
L 282.006481 585.240279 
L 286.98616 585.781477 
L 291.965839 567.622308 
L 296.945518 562.462076 
L 301.925197 559.043324 
L 306.904876 549.829374 
L 311.884555 554.599252 
L 316.864235 559.566176 
L 321.843914 575.242222 
L 326.823593 581.816431 
L 331.803272 589.359224 
L 336.782951 595.758131 
L 341.76263 594.513682 
L 346.742309 585.309925 
L 351.721989 570.633718 
L 356.701668 565.110309 
L 361.681347 560.6112 
L 366.661026 549.311279 
L 371.640705 555.343271 
L 376.620384 556.40834 
L 381.600064 565.269645 
L 386.579743 587.982959 
L 391.559422 588.76299 
L 396.539101 592.849321 
L 401.51878 586.23876 
L 406.498459 580.098732 
L 411.478138 575.478337 
L 416.457818 566.989043 
L 421.437497 555.018825 
L 426.417176 545.738627 
L 431.396855 553.234537 
L 436.376534 560.415853 
L 441.356213 575.565649 
L 446.335892 580.980004 
L 451.315572 581.820508 
L 456.295251 590.482048 
L 461.27493 586.338302 
L 466.254609 586.591065 
L 471.234288 576.913038 
L 476.213967 558.733146 
L 481.193646 558.456262 
L 486.173326 549.151943 
L 491.153005 551.793382 
L 496.132684 559.533901 
L 501.112363 570.099995 
L 506.092042 589.912313 
L 511.071721 589.303508 
L 516.0514 583.697203 
L 521.03108 592.583648 
L 526.010759 584.15007 
L 530.990438 567.285971 
L 535.970117 564.14818 
L 540.949796 550.817323 
L 545.929475 549.423731 
L 550.909154 549.398591 
L 555.888834 558.584002 
L 560.868513 566.040163 
L 565.848192 591.27465 
L 570.827871 596.051661 
L 575.80755 602.736285 
L 580.787229 597.932773 
L 585.766908 575.98794 
L 590.746588 570.192742 
L 595.726267 567.199678 
L 600.705946 556.624751 
L 605.685625 550.316554 
L 610.665304 551.020825 
L 615.644983 558.066586 
L 620.624662 570.394885 
L 625.604342 581.898647 
L 630.584021 597.048783 
L 635.5637 584.067854 
L 640.543379 589.815488 
L 645.523058 585.46926 
L 650.502737 572.521965 
L 655.482416 555.092547 
L 660.462096 551.928596 
L 665.441775 548.993287 
L 670.421454 552.071625 
L 675.401133 556.246287 
L 680.380812 568.186268 
L 685.360491 578.690191 
L 690.34017 596.92512 
L 695.31985 599.970028 
L 700.299529 582.730658 
L 705.279208 586.214639 
L 710.258887 574.289945 
L 715.238566 560.994421 
L 720.218245 557.474428 
L 725.197924 548.111675 
L 730.177604 551.440397 
L 735.157283 556.38252 
L 740.136962 572.314047 
L 745.116641 580.730638 
L 750.09632 591.539643 
L 755.075999 595.423152 
L 760.055678 592.764047 
L 765.035358 582.454113 
L 770.015037 576.413967 
L 774.994716 566.202556 
L 779.974395 549.365297 
L 784.954074 546.053561 
L 789.933753 552.34715 
L 794.913432 558.848656 
L 799.893112 568.290227 
L 804.872791 584.669185 
L 809.85247 594.187536 
L 814.832149 597.215593 
L 819.811828 593.549854 
L 824.791507 581.16448 
L 829.771186 575.60336 
L 834.750866 559.361655 
L 839.730545 557.639539 
L 844.710224 547.561305 
L 849.689903 549.524972 
L 854.669582 559.110591 
L 859.649261 572.486972 
L 864.628941 575.55138 
L 869.60862 592.489541 
L 874.588299 601.456537 
L 879.567978 582.472119 
L 884.547657 579.977106 
L 889.527336 570.852508 
L 894.507015 557.418032 
L 899.486695 550.105579 
L 904.466374 551.059215 
L 909.446053 554.302324 
L 914.425732 565.147 
L 919.405411 569.508516 
L 924.38509 583.372417 
L 929.364769 591.314059 
L 934.344449 593.367756 
L 939.324128 593.326648 
L 944.303807 581.734555 
L 949.283486 572.755702 
L 954.263165 562.990363 
L 959.242844 545.937032 
L 964.222523 547.389738 
L 969.202203 554.189532 
L 974.181882 563.591354 
L 979.161561 570.753645 
L 984.14124 583.994131 
L 989.120919 592.421255 
L 994.100598 589.613006 
L 1004.059957 578.500958 
L 1009.039636 565.908346 
L 1014.019315 563.213229 
L 1018.998994 555.495473 
L 1023.978673 552.373309 
L 1028.958352 551.763485 
L 1033.938031 555.907571 
L 1038.917711 564.431519 
L 1043.89739 576.415666 
L 1048.877069 586.826501 
L 1053.856748 590.432787 
L 1058.836427 578.923928 
L 1063.816106 584.427293 
L 1068.795785 578.833219 
L 1073.775465 566.359174 
L 1078.755144 553.080297 
L 1083.734823 547.031318 
L 1088.714502 546.636886 
L 1093.694181 561.895058 
L 1098.67386 570.690794 
L 1103.653539 589.611647 
L 1108.633219 597.298828 
L 1113.612898 593.750637 
L 1113.612898 593.750637 
" style="fill:none;stroke:#008000;stroke-linecap:square;stroke-width:1.5;"/>
   </g>
   <g id="line2d_36">
    <path clip-path="url(#p05482166c7)" d="M 97.758352 608.500804 
L 102.738031 605.688886 
L 107.717711 597.906614 
L 112.69739 591.46626 
L 117.677069 585.3157 
L 122.656748 575.017657 
L 127.636427 567.893757 
L 132.616106 569.719492 
L 137.595785 578.692909 
L 142.575465 581.207626 
L 147.555144 595.788027 
L 152.534823 599.380112 
L 157.514502 615.396063 
L 162.494181 606.733741 
L 167.47386 601.544597 
L 172.453539 587.434626 
L 177.433219 585.626897 
L 182.412898 575.852385 
L 187.392577 567.720152 
L 192.372256 565.564874 
L 197.351935 567.320624 
L 202.331614 586.312142 
L 207.311293 597.704811 
L 212.290973 602.374331 
L 217.270652 609.293167 
L 222.250331 596.045546 
L 227.23001 598.741342 
L 232.209689 584.754458 
L 237.189368 586.152467 
L 242.169047 579.970312 
L 247.148727 573.081848 
L 252.128406 575.803124 
L 257.108085 569.252696 
L 262.087764 589.700998 
L 267.067443 594.187536 
L 272.047122 613.373281 
L 277.026801 611.873114 
L 282.006481 604.132255 
L 286.98616 603.924983 
L 291.965839 584.797265 
L 296.945518 581.705677 
L 301.925197 576.488029 
L 306.904876 572.134327 
L 311.884555 571.674326 
L 316.864235 576.108206 
L 321.843914 592.738567 
L 326.823593 597.397012 
L 331.803272 604.408222 
L 336.782951 615.144999 
L 341.76263 611.52937 
L 346.742309 605.731319 
L 351.721989 592.285361 
L 356.701668 586.678377 
L 361.681347 582.802681 
L 366.661026 571.868315 
L 371.640705 577.10227 
L 376.620384 579.043855 
L 381.600064 583.120333 
L 386.579743 602.736896 
L 391.559422 605.637213 
L 396.539101 610.170601 
L 401.51878 603.781037 
L 406.498459 599.458896 
L 411.478138 597.339596 
L 416.457818 585.916351 
L 421.437497 577.798047 
L 426.417176 571.213646 
L 431.396855 571.947133 
L 436.376534 580.699383 
L 441.356213 594.537463 
L 446.335892 596.569417 
L 451.315572 594.253785 
L 456.295251 607.138229 
L 461.27493 603.700554 
L 466.254609 603.82843 
L 471.234288 596.893864 
L 476.213967 582.817969 
L 481.193646 582.310745 
L 486.173326 568.907186 
L 491.153005 571.717812 
L 496.132684 579.722645 
L 501.112363 588.880198 
L 506.092042 607.961679 
L 511.071721 605.45909 
L 516.0514 599.300886 
L 521.03108 610.631893 
L 526.010759 606.862025 
L 530.990438 588.395057 
L 535.970117 586.076027 
L 540.949796 571.97737 
L 545.929475 571.231312 
L 550.909154 571.372981 
L 555.888834 573.649884 
L 560.868513 583.197453 
L 565.848192 608.894659 
L 570.827871 614.215348 
L 575.80755 622.523802 
L 580.787229 613.690016 
L 585.766908 592.162717 
L 590.746588 586.702838 
L 595.726267 591.800899 
L 600.705946 579.313265 
L 605.685625 571.090662 
L 610.665304 570.075534 
L 615.644983 576.929685 
L 620.624662 593.549174 
L 625.604342 601.15346 
L 630.584021 613.939721 
L 635.5637 598.909511 
L 640.543379 611.257854 
L 645.523058 603.47035 
L 650.502737 592.358744 
L 655.482416 578.823367 
L 660.462096 575.789874 
L 665.441775 572.395923 
L 670.421454 572.457075 
L 675.401133 574.904185 
L 680.380812 590.824841 
L 685.360491 597.721119 
L 690.34017 615.630921 
L 695.31985 618.720504 
L 700.299529 603.953113 
L 705.279208 602.894058 
L 710.258887 596.619358 
L 715.238566 577.83304 
L 720.218245 575.451159 
L 725.197924 569.675666 
L 730.177604 568.194082 
L 735.157283 576.838296 
L 740.136962 593.423812 
L 745.116641 597.140851 
L 750.09632 608.793078 
L 755.075999 612.669622 
L 760.055678 612.658207 
L 765.035358 600.006583 
L 770.015037 598.824238 
L 774.994716 590.23676 
L 779.974395 578.023631 
L 784.954074 567.279856 
L 789.933753 572.521625 
L 794.913432 580.630417 
L 799.893112 589.769624 
L 804.872791 603.549202 
L 809.85247 610.030562 
L 814.832149 614.995583 
L 819.811828 609.343788 
L 824.791507 604.027957 
L 829.771186 592.982157 
L 834.750866 583.161102 
L 839.730545 580.616487 
L 844.710224 572.077591 
L 849.689903 568.49169 
L 854.669582 578.881801 
L 859.649261 591.119051 
L 864.628941 594.058097 
L 869.60862 610.37913 
L 874.588299 622.862348 
L 879.567978 599.070206 
L 884.547657 599.119467 
L 889.527336 587.134301 
L 894.507015 580.631436 
L 899.486695 572.666692 
L 904.466374 573.102911 
L 909.446053 574.627981 
L 914.425732 586.554373 
L 919.405411 591.568181 
L 924.38509 600.104732 
L 929.364769 611.34221 
L 934.344449 610.534219 
L 939.324128 614.384264 
L 944.303807 601.352205 
L 949.283486 593.86241 
L 954.263165 581.282028 
L 959.242844 570.700646 
L 964.222523 567.381097 
L 969.202203 569.415429 
L 974.181882 583.365282 
L 979.161561 589.730555 
L 984.14124 599.96415 
L 989.120919 611.064375 
L 994.100598 606.687333 
L 999.080277 605.202182 
L 1004.059957 597.043348 
L 1009.039636 585.506971 
L 1014.019315 584.250292 
L 1018.998994 575.073373 
L 1023.978673 571.097796 
L 1028.958352 572.403397 
L 1033.938031 578.431992 
L 1038.917711 590.328828 
L 1043.89739 596.440998 
L 1048.877069 606.806308 
L 1053.856748 610.440452 
L 1058.836427 595.126903 
L 1063.816106 604.103378 
L 1068.795785 595.265175 
L 1073.775465 587.170313 
L 1078.755144 574.921512 
L 1083.734823 569.832623 
L 1088.714502 568.242664 
L 1093.694181 581.037419 
L 1098.67386 583.206966 
L 1103.653539 604.775713 
L 1108.633219 615.065093 
L 1113.612898 609.393457 
L 1113.612898 609.393457 
" style="fill:none;stroke:#0000ff;stroke-linecap:square;stroke-width:1.5;"/>
   </g>
   <g id="line2d_37">
    <defs>
     <path d="M 0 3 
C 0.795609 3 1.55874 2.683901 2.12132 2.12132 
C 2.683901 1.55874 3 0.795609 3 0 
C 3 -0.795609 2.683901 -1.55874 2.12132 -2.12132 
C 1.55874 -2.683901 0.795609 -3 0 -3 
C -0.795609 -3 -1.55874 -2.683901 -2.12132 -2.12132 
C -2.683901 -1.55874 -3 -0.795609 -3 0 
C -3 0.795609 -2.683901 1.55874 -2.12132 2.12132 
C -1.55874 2.683901 -0.795609 3 0 3 
z
" id="m8081ba0dcf" style="stroke:#ff0000;"/>
    </defs>
    <g clip-path="url(#p05482166c7)">
     <use style="fill:#ff0000;stroke:#ff0000;" x="97.758352" xlink:href="#m8081ba0dcf" y="639.849091"/>
     <use style="fill:#ff0000;stroke:#ff0000;" x="102.738031" xlink:href="#m8081ba0dcf" y="639.849091"/>
     <use style="fill:#ff0000;stroke:#ff0000;" x="107.717711" xlink:href="#m8081ba0dcf" y="639.849091"/>
     <use style="fill:#ff0000;stroke:#ff0000;" x="112.69739" xlink:href="#m8081ba0dcf" y="639.849091"/>
     <use style="fill:#ff0000;stroke:#ff0000;" x="117.677069" xlink:href="#m8081ba0dcf" y="639.849091"/>
     <use style="fill:#ff0000;stroke:#ff0000;" x="122.656748" xlink:href="#m8081ba0dcf" y="639.849091"/>
     <use style="fill:#ff0000;stroke:#ff0000;" x="127.636427" xlink:href="#m8081ba0dcf" y="639.849091"/>
     <use style="fill:#ff0000;stroke:#ff0000;" x="132.616106" xlink:href="#m8081ba0dcf" y="639.849091"/>
     <use style="fill:#ff0000;stroke:#ff0000;" x="137.595785" xlink:href="#m8081ba0dcf" y="639.849091"/>
     <use style="fill:#ff0000;stroke:#ff0000;" x="142.575465" xlink:href="#m8081ba0dcf" y="639.849091"/>
     <use style="fill:#ff0000;stroke:#ff0000;" x="147.555144" xlink:href="#m8081ba0dcf" y="639.849091"/>
     <use style="fill:#ff0000;stroke:#ff0000;" x="152.534823" xlink:href="#m8081ba0dcf" y="639.849091"/>
     <use style="fill:#ff0000;stroke:#ff0000;" x="157.514502" xlink:href="#m8081ba0dcf" y="639.849091"/>
     <use style="fill:#ff0000;stroke:#ff0000;" x="162.494181" xlink:href="#m8081ba0dcf" y="639.849091"/>
     <use style="fill:#ff0000;stroke:#ff0000;" x="167.47386" xlink:href="#m8081ba0dcf" y="639.849091"/>
     <use style="fill:#ff0000;stroke:#ff0000;" x="172.453539" xlink:href="#m8081ba0dcf" y="639.849091"/>
     <use style="fill:#ff0000;stroke:#ff0000;" x="177.433219" xlink:href="#m8081ba0dcf" y="639.849091"/>
     <use style="fill:#ff0000;stroke:#ff0000;" x="182.412898" xlink:href="#m8081ba0dcf" y="639.849091"/>
     <use style="fill:#ff0000;stroke:#ff0000;" x="212.290973" xlink:href="#m8081ba0dcf" y="639.849091"/>
     <use style="fill:#ff0000;stroke:#ff0000;" x="257.108085" xlink:href="#m8081ba0dcf" y="639.849091"/>
     <use style="fill:#ff0000;stroke:#ff0000;" x="262.087764" xlink:href="#m8081ba0dcf" y="639.849091"/>
     <use style="fill:#ff0000;stroke:#ff0000;" x="326.823593" xlink:href="#m8081ba0dcf" y="639.849091"/>
     <use style="fill:#ff0000;stroke:#ff0000;" x="396.539101" xlink:href="#m8081ba0dcf" y="639.849091"/>
     <use style="fill:#ff0000;stroke:#ff0000;" x="461.27493" xlink:href="#m8081ba0dcf" y="639.849091"/>
     <use style="fill:#ff0000;stroke:#ff0000;" x="555.888834" xlink:href="#m8081ba0dcf" y="639.849091"/>
     <use style="fill:#ff0000;stroke:#ff0000;" x="560.868513" xlink:href="#m8081ba0dcf" y="639.849091"/>
     <use style="fill:#ff0000;stroke:#ff0000;" x="565.848192" xlink:href="#m8081ba0dcf" y="639.849091"/>
     <use style="fill:#ff0000;stroke:#ff0000;" x="575.80755" xlink:href="#m8081ba0dcf" y="639.849091"/>
     <use style="fill:#ff0000;stroke:#ff0000;" x="715.238566" xlink:href="#m8081ba0dcf" y="639.849091"/>
     <use style="fill:#ff0000;stroke:#ff0000;" x="755.075999" xlink:href="#m8081ba0dcf" y="639.849091"/>
     <use style="fill:#ff0000;stroke:#ff0000;" x="1058.836427" xlink:href="#m8081ba0dcf" y="639.849091"/>
     <use style="fill:#ff0000;stroke:#ff0000;" x="1068.795785" xlink:href="#m8081ba0dcf" y="639.849091"/>
     <use style="fill:#ff0000;stroke:#ff0000;" x="1078.755144" xlink:href="#m8081ba0dcf" y="639.849091"/>
     <use style="fill:#ff0000;stroke:#ff0000;" x="1098.67386" xlink:href="#m8081ba0dcf" y="639.849091"/>
     <use style="fill:#ff0000;stroke:#ff0000;" x="1103.653539" xlink:href="#m8081ba0dcf" y="639.849091"/>
    </g>
   </g>
   <g id="patch_9">
    <path d="M 46.965625 645.74 
L 46.965625 516.14 
" style="fill:none;stroke:#000000;stroke-linecap:square;stroke-linejoin:miter;stroke-width:0.8;"/>
   </g>
   <g id="patch_10">
    <path d="M 1164.405625 645.74 
L 1164.405625 516.14 
" style="fill:none;stroke:#000000;stroke-linecap:square;stroke-linejoin:miter;stroke-width:0.8;"/>
   </g>
   <g id="patch_11">
    <path d="M 46.965625 645.74 
L 1164.405625 645.74 
" style="fill:none;stroke:#000000;stroke-linecap:square;stroke-linejoin:miter;stroke-width:0.8;"/>
   </g>
   <g id="patch_12">
    <path d="M 46.965625 516.14 
L 1164.405625 516.14 
" style="fill:none;stroke:#000000;stroke-linecap:square;stroke-linejoin:miter;stroke-width:0.8;"/>
   </g>
   <g id="legend_2">
    <g id="patch_13">
     <path d="M 53.965625 582.8525 
L 144.978125 582.8525 
Q 146.978125 582.8525 146.978125 580.8525 
L 146.978125 523.14 
Q 146.978125 521.14 144.978125 521.14 
L 53.965625 521.14 
Q 51.965625 521.14 51.965625 523.14 
L 51.965625 580.8525 
Q 51.965625 582.8525 53.965625 582.8525 
z
" style="fill:#ffffff;opacity:0.8;stroke:#cccccc;stroke-linejoin:miter;"/>
    </g>
    <g id="line2d_38">
     <path d="M 55.965625 529.238437 
L 75.965625 529.238437 
" style="fill:none;stroke:#ff0000;stroke-linecap:square;stroke-width:1.5;"/>
    </g>
    <g id="line2d_39"/>
    <g id="text_31">
     <!-- Maxmimum -->
     <defs>
      <path d="M 9.8125 72.90625 
L 24.515625 72.90625 
L 43.109375 23.296875 
L 61.8125 72.90625 
L 76.515625 72.90625 
L 76.515625 0 
L 66.890625 0 
L 66.890625 64.015625 
L 48.09375 14.015625 
L 38.1875 14.015625 
L 19.390625 64.015625 
L 19.390625 0 
L 9.8125 0 
z
" id="DejaVuSans-4d"/>
      <path d="M 54.890625 54.6875 
L 35.109375 28.078125 
L 55.90625 0 
L 45.3125 0 
L 29.390625 21.484375 
L 13.484375 0 
L 2.875 0 
L 24.125 28.609375 
L 4.6875 54.6875 
L 15.28125 54.6875 
L 29.78125 35.203125 
L 44.28125 54.6875 
z
" id="DejaVuSans-78"/>
     </defs>
     <g transform="translate(83.965625 532.738437)scale(0.1 -0.1)">
      <use xlink:href="#DejaVuSans-4d"/>
      <use x="86.279297" xlink:href="#DejaVuSans-61"/>
      <use x="147.558594" xlink:href="#DejaVuSans-78"/>
      <use x="206.738281" xlink:href="#DejaVuSans-6d"/>
      <use x="304.150391" xlink:href="#DejaVuSans-69"/>
      <use x="331.933594" xlink:href="#DejaVuSans-6d"/>
      <use x="429.345703" xlink:href="#DejaVuSans-75"/>
      <use x="492.724609" xlink:href="#DejaVuSans-6d"/>
     </g>
    </g>
    <g id="line2d_40">
     <path d="M 55.965625 543.916562 
L 75.965625 543.916562 
" style="fill:none;stroke:#008000;stroke-linecap:square;stroke-width:1.5;"/>
    </g>
    <g id="line2d_41"/>
    <g id="text_32">
     <!-- Average -->
     <defs>
      <path d="M 34.1875 63.1875 
L 20.796875 26.90625 
L 47.609375 26.90625 
z
M 28.609375 72.90625 
L 39.796875 72.90625 
L 67.578125 0 
L 57.328125 0 
L 50.6875 18.703125 
L 17.828125 18.703125 
L 11.1875 0 
L 0.78125 0 
z
" id="DejaVuSans-41"/>
      <path d="M 2.984375 54.6875 
L 12.5 54.6875 
L 29.59375 8.796875 
L 46.6875 54.6875 
L 56.203125 54.6875 
L 35.6875 0 
L 23.484375 0 
z
" id="DejaVuSans-76"/>
     </defs>
     <g transform="translate(83.965625 547.416562)scale(0.1 -0.1)">
      <use xlink:href="#DejaVuSans-41"/>
      <use x="68.330078" xlink:href="#DejaVuSans-76"/>
      <use x="127.509766" xlink:href="#DejaVuSans-65"/>
      <use x="189.033203" xlink:href="#DejaVuSans-72"/>
      <use x="230.146484" xlink:href="#DejaVuSans-61"/>
      <use x="291.425781" xlink:href="#DejaVuSans-67"/>
      <use x="354.902344" xlink:href="#DejaVuSans-65"/>
     </g>
    </g>
    <g id="line2d_42">
     <path d="M 55.965625 558.594687 
L 75.965625 558.594687 
" style="fill:none;stroke:#0000ff;stroke-linecap:square;stroke-width:1.5;"/>
    </g>
    <g id="line2d_43"/>
    <g id="text_33">
     <!-- Minimum -->
     <g transform="translate(83.965625 562.094687)scale(0.1 -0.1)">
      <use xlink:href="#DejaVuSans-4d"/>
      <use x="86.279297" xlink:href="#DejaVuSans-69"/>
      <use x="114.0625" xlink:href="#DejaVuSans-6e"/>
      <use x="177.441406" xlink:href="#DejaVuSans-69"/>
      <use x="205.224609" xlink:href="#DejaVuSans-6d"/>
      <use x="302.636719" xlink:href="#DejaVuSans-75"/>
      <use x="366.015625" xlink:href="#DejaVuSans-6d"/>
     </g>
    </g>
    <g id="line2d_44"/>
    <g id="line2d_45">
     <g>
      <use style="fill:#ff0000;stroke:#ff0000;" x="65.965625" xlink:href="#m8081ba0dcf" y="573.272812"/>
     </g>
    </g>
    <g id="text_34">
     <!-- Disasters -->
     <g transform="translate(83.965625 576.772812)scale(0.1 -0.1)">
      <use xlink:href="#DejaVuSans-44"/>
      <use x="77.001953" xlink:href="#DejaVuSans-69"/>
      <use x="104.785156" xlink:href="#DejaVuSans-73"/>
      <use x="156.884766" xlink:href="#DejaVuSans-61"/>
      <use x="218.164062" xlink:href="#DejaVuSans-73"/>
      <use x="270.263672" xlink:href="#DejaVuSans-74"/>
      <use x="309.472656" xlink:href="#DejaVuSans-65"/>
      <use x="370.996094" xlink:href="#DejaVuSans-72"/>
      <use x="412.109375" xlink:href="#DejaVuSans-73"/>
     </g>
    </g>
   </g>
  </g>
 </g>
 <defs>
  <clipPath id="peb88e9f7a9">
   <rect height="498.96" width="1116" x="46.965625" y="10.7"/>
  </clipPath>
  <clipPath id="p05482166c7">
   <rect height="129.6" width="1117.44" x="46.965625" y="516.14"/>
  </clipPath>
 </defs>
</svg>
