<?xml version="1.0" encoding="utf-8" standalone="no"?>
<!DOCTYPE svg PUBLIC "-//W3C//DTD SVG 1.1//EN"
  "http://www.w3.org/Graphics/SVG/1.1/DTD/svg11.dtd">
<!-- Created with matplotlib (http://matplotlib.org/) -->
<svg height="669pt" version="1.1" viewBox="0 0 1177 669" width="1177pt" xmlns="http://www.w3.org/2000/svg" xmlns:xlink="http://www.w3.org/1999/xlink">
 <defs>
  <style type="text/css">
*{stroke-linecap:butt;stroke-linejoin:round;}
  </style>
 </defs>
 <g id="figure_1">
  <g id="patch_1">
   <path d="M 0 669.618125 
L 1177.122813 669.618125 
L 1177.122813 -0 
L 0 -0 
z
" style="fill:none;"/>
  </g>
  <g id="axes_1">
   <g id="patch_2">
    <path d="M 48.982813 509.66 
L 1164.982812 509.66 
L 1164.982812 10.7 
L 48.982813 10.7 
z
" style="fill:none;"/>
   </g>
   <g id="matplotlib.axis_1">
    <g id="xtick_1">
     <g id="line2d_1">
      <defs>
       <path d="M 0 0 
L 0 3.5 
" id="md72dbaf394" style="stroke:#000000;stroke-width:0.8;"/>
      </defs>
      <g>
       <use style="stroke:#000000;stroke-width:0.8;" x="99.710085" xlink:href="#md72dbaf394" y="509.66"/>
      </g>
     </g>
     <g id="text_1">
      <!-- 0 -->
      <defs>
       <path d="M 31.78125 66.40625 
Q 24.171875 66.40625 20.328125 58.90625 
Q 16.5 51.421875 16.5 36.375 
Q 16.5 21.390625 20.328125 13.890625 
Q 24.171875 6.390625 31.78125 6.390625 
Q 39.453125 6.390625 43.28125 13.890625 
Q 47.125 21.390625 47.125 36.375 
Q 47.125 51.421875 43.28125 58.90625 
Q 39.453125 66.40625 31.78125 66.40625 
z
M 31.78125 74.21875 
Q 44.046875 74.21875 50.515625 64.515625 
Q 56.984375 54.828125 56.984375 36.375 
Q 56.984375 17.96875 50.515625 8.265625 
Q 44.046875 -1.421875 31.78125 -1.421875 
Q 19.53125 -1.421875 13.0625 8.265625 
Q 6.59375 17.96875 6.59375 36.375 
Q 6.59375 54.828125 13.0625 64.515625 
Q 19.53125 74.21875 31.78125 74.21875 
z
" id="DejaVuSans-30"/>
      </defs>
      <g transform="translate(96.528835 524.258437)scale(0.1 -0.1)">
       <use xlink:href="#DejaVuSans-30"/>
      </g>
     </g>
    </g>
    <g id="xtick_2">
     <g id="line2d_2">
      <g>
       <use style="stroke:#000000;stroke-width:0.8;" x="342.424309" xlink:href="#md72dbaf394" y="509.66"/>
      </g>
     </g>
     <g id="text_2">
      <!-- 50 -->
      <defs>
       <path d="M 10.796875 72.90625 
L 49.515625 72.90625 
L 49.515625 64.59375 
L 19.828125 64.59375 
L 19.828125 46.734375 
Q 21.96875 47.46875 24.109375 47.828125 
Q 26.265625 48.1875 28.421875 48.1875 
Q 40.625 48.1875 47.75 41.5 
Q 54.890625 34.8125 54.890625 23.390625 
Q 54.890625 11.625 47.5625 5.09375 
Q 40.234375 -1.421875 26.90625 -1.421875 
Q 22.3125 -1.421875 17.546875 -0.640625 
Q 12.796875 0.140625 7.71875 1.703125 
L 7.71875 11.625 
Q 12.109375 9.234375 16.796875 8.0625 
Q 21.484375 6.890625 26.703125 6.890625 
Q 35.15625 6.890625 40.078125 11.328125 
Q 45.015625 15.765625 45.015625 23.390625 
Q 45.015625 31 40.078125 35.4375 
Q 35.15625 39.890625 26.703125 39.890625 
Q 22.75 39.890625 18.8125 39.015625 
Q 14.890625 38.140625 10.796875 36.28125 
z
" id="DejaVuSans-35"/>
      </defs>
      <g transform="translate(336.061809 524.258437)scale(0.1 -0.1)">
       <use xlink:href="#DejaVuSans-35"/>
       <use x="63.623047" xlink:href="#DejaVuSans-30"/>
      </g>
     </g>
    </g>
    <g id="xtick_3">
     <g id="line2d_3">
      <g>
       <use style="stroke:#000000;stroke-width:0.8;" x="585.138532" xlink:href="#md72dbaf394" y="509.66"/>
      </g>
     </g>
     <g id="text_3">
      <!-- 100 -->
      <defs>
       <path d="M 12.40625 8.296875 
L 28.515625 8.296875 
L 28.515625 63.921875 
L 10.984375 60.40625 
L 10.984375 69.390625 
L 28.421875 72.90625 
L 38.28125 72.90625 
L 38.28125 8.296875 
L 54.390625 8.296875 
L 54.390625 0 
L 12.40625 0 
z
" id="DejaVuSans-31"/>
      </defs>
      <g transform="translate(575.594782 524.258437)scale(0.1 -0.1)">
       <use xlink:href="#DejaVuSans-31"/>
       <use x="63.623047" xlink:href="#DejaVuSans-30"/>
       <use x="127.246094" xlink:href="#DejaVuSans-30"/>
      </g>
     </g>
    </g>
    <g id="xtick_4">
     <g id="line2d_4">
      <g>
       <use style="stroke:#000000;stroke-width:0.8;" x="827.852756" xlink:href="#md72dbaf394" y="509.66"/>
      </g>
     </g>
     <g id="text_4">
      <!-- 150 -->
      <g transform="translate(818.309006 524.258437)scale(0.1 -0.1)">
       <use xlink:href="#DejaVuSans-31"/>
       <use x="63.623047" xlink:href="#DejaVuSans-35"/>
       <use x="127.246094" xlink:href="#DejaVuSans-30"/>
      </g>
     </g>
    </g>
    <g id="xtick_5">
     <g id="line2d_5">
      <g>
       <use style="stroke:#000000;stroke-width:0.8;" x="1070.56698" xlink:href="#md72dbaf394" y="509.66"/>
      </g>
     </g>
     <g id="text_5">
      <!-- 200 -->
      <defs>
       <path d="M 19.1875 8.296875 
L 53.609375 8.296875 
L 53.609375 0 
L 7.328125 0 
L 7.328125 8.296875 
Q 12.9375 14.109375 22.625 23.890625 
Q 32.328125 33.6875 34.8125 36.53125 
Q 39.546875 41.84375 41.421875 45.53125 
Q 43.3125 49.21875 43.3125 52.78125 
Q 43.3125 58.59375 39.234375 62.25 
Q 35.15625 65.921875 28.609375 65.921875 
Q 23.96875 65.921875 18.8125 64.3125 
Q 13.671875 62.703125 7.8125 59.421875 
L 7.8125 69.390625 
Q 13.765625 71.78125 18.9375 73 
Q 24.125 74.21875 28.421875 74.21875 
Q 39.75 74.21875 46.484375 68.546875 
Q 53.21875 62.890625 53.21875 53.421875 
Q 53.21875 48.921875 51.53125 44.890625 
Q 49.859375 40.875 45.40625 35.40625 
Q 44.1875 33.984375 37.640625 27.21875 
Q 31.109375 20.453125 19.1875 8.296875 
z
" id="DejaVuSans-32"/>
      </defs>
      <g transform="translate(1061.02323 524.258437)scale(0.1 -0.1)">
       <use xlink:href="#DejaVuSans-32"/>
       <use x="63.623047" xlink:href="#DejaVuSans-30"/>
       <use x="127.246094" xlink:href="#DejaVuSans-30"/>
      </g>
     </g>
    </g>
    <g id="text_6">
     <!-- Time -->
     <defs>
      <path d="M -0.296875 72.90625 
L 61.375 72.90625 
L 61.375 64.59375 
L 35.5 64.59375 
L 35.5 0 
L 25.59375 0 
L 25.59375 64.59375 
L -0.296875 64.59375 
z
" id="DejaVuSans-54"/>
      <path d="M 9.421875 54.6875 
L 18.40625 54.6875 
L 18.40625 0 
L 9.421875 0 
z
M 9.421875 75.984375 
L 18.40625 75.984375 
L 18.40625 64.59375 
L 9.421875 64.59375 
z
" id="DejaVuSans-69"/>
      <path d="M 52 44.1875 
Q 55.375 50.25 60.0625 53.125 
Q 64.75 56 71.09375 56 
Q 79.640625 56 84.28125 50.015625 
Q 88.921875 44.046875 88.921875 33.015625 
L 88.921875 0 
L 79.890625 0 
L 79.890625 32.71875 
Q 79.890625 40.578125 77.09375 44.375 
Q 74.3125 48.1875 68.609375 48.1875 
Q 61.625 48.1875 57.5625 43.546875 
Q 53.515625 38.921875 53.515625 30.90625 
L 53.515625 0 
L 44.484375 0 
L 44.484375 32.71875 
Q 44.484375 40.625 41.703125 44.40625 
Q 38.921875 48.1875 33.109375 48.1875 
Q 26.21875 48.1875 22.15625 43.53125 
Q 18.109375 38.875 18.109375 30.90625 
L 18.109375 0 
L 9.078125 0 
L 9.078125 54.6875 
L 18.109375 54.6875 
L 18.109375 46.1875 
Q 21.1875 51.21875 25.484375 53.609375 
Q 29.78125 56 35.6875 56 
Q 41.65625 56 45.828125 52.96875 
Q 50 49.953125 52 44.1875 
z
" id="DejaVuSans-6d"/>
      <path d="M 56.203125 29.59375 
L 56.203125 25.203125 
L 14.890625 25.203125 
Q 15.484375 15.921875 20.484375 11.0625 
Q 25.484375 6.203125 34.421875 6.203125 
Q 39.59375 6.203125 44.453125 7.46875 
Q 49.3125 8.734375 54.109375 11.28125 
L 54.109375 2.78125 
Q 49.265625 0.734375 44.1875 -0.34375 
Q 39.109375 -1.421875 33.890625 -1.421875 
Q 20.796875 -1.421875 13.15625 6.1875 
Q 5.515625 13.8125 5.515625 26.8125 
Q 5.515625 40.234375 12.765625 48.109375 
Q 20.015625 56 32.328125 56 
Q 43.359375 56 49.78125 48.890625 
Q 56.203125 41.796875 56.203125 29.59375 
z
M 47.21875 32.234375 
Q 47.125 39.59375 43.09375 43.984375 
Q 39.0625 48.390625 32.421875 48.390625 
Q 24.90625 48.390625 20.390625 44.140625 
Q 15.875 39.890625 15.1875 32.171875 
z
" id="DejaVuSans-65"/>
     </defs>
     <g transform="translate(594.595312 537.936562)scale(0.1 -0.1)">
      <use xlink:href="#DejaVuSans-54"/>
      <use x="61.037109" xlink:href="#DejaVuSans-69"/>
      <use x="88.820312" xlink:href="#DejaVuSans-6d"/>
      <use x="186.232422" xlink:href="#DejaVuSans-65"/>
     </g>
    </g>
   </g>
   <g id="matplotlib.axis_2">
    <g id="ytick_1">
     <g id="line2d_6">
      <defs>
       <path d="M 0 0 
L -3.5 0 
" id="m461d14deae" style="stroke:#000000;stroke-width:0.8;"/>
      </defs>
      <g>
       <use style="stroke:#000000;stroke-width:0.8;" x="48.982813" xlink:href="#m461d14deae" y="426.154965"/>
      </g>
     </g>
     <g id="text_7">
      <!-- 50 -->
      <g transform="translate(29.257813 429.954184)scale(0.1 -0.1)">
       <use xlink:href="#DejaVuSans-35"/>
       <use x="63.623047" xlink:href="#DejaVuSans-30"/>
      </g>
     </g>
    </g>
    <g id="ytick_2">
     <g id="line2d_7">
      <g>
       <use style="stroke:#000000;stroke-width:0.8;" x="48.982813" xlink:href="#m461d14deae" y="337.291851"/>
      </g>
     </g>
     <g id="text_8">
      <!-- 100 -->
      <g transform="translate(22.895313 341.09107)scale(0.1 -0.1)">
       <use xlink:href="#DejaVuSans-31"/>
       <use x="63.623047" xlink:href="#DejaVuSans-30"/>
       <use x="127.246094" xlink:href="#DejaVuSans-30"/>
      </g>
     </g>
    </g>
    <g id="ytick_3">
     <g id="line2d_8">
      <g>
       <use style="stroke:#000000;stroke-width:0.8;" x="48.982813" xlink:href="#m461d14deae" y="248.428737"/>
      </g>
     </g>
     <g id="text_9">
      <!-- 150 -->
      <g transform="translate(22.895313 252.227955)scale(0.1 -0.1)">
       <use xlink:href="#DejaVuSans-31"/>
       <use x="63.623047" xlink:href="#DejaVuSans-35"/>
       <use x="127.246094" xlink:href="#DejaVuSans-30"/>
      </g>
     </g>
    </g>
    <g id="ytick_4">
     <g id="line2d_9">
      <g>
       <use style="stroke:#000000;stroke-width:0.8;" x="48.982813" xlink:href="#m461d14deae" y="159.565622"/>
      </g>
     </g>
     <g id="text_10">
      <!-- 200 -->
      <g transform="translate(22.895313 163.364841)scale(0.1 -0.1)">
       <use xlink:href="#DejaVuSans-32"/>
       <use x="63.623047" xlink:href="#DejaVuSans-30"/>
       <use x="127.246094" xlink:href="#DejaVuSans-30"/>
      </g>
     </g>
    </g>
    <g id="ytick_5">
     <g id="line2d_10">
      <g>
       <use style="stroke:#000000;stroke-width:0.8;" x="48.982813" xlink:href="#m461d14deae" y="70.702508"/>
      </g>
     </g>
     <g id="text_11">
      <!-- 250 -->
      <g transform="translate(22.895313 74.501727)scale(0.1 -0.1)">
       <use xlink:href="#DejaVuSans-32"/>
       <use x="63.623047" xlink:href="#DejaVuSans-35"/>
       <use x="127.246094" xlink:href="#DejaVuSans-30"/>
      </g>
     </g>
    </g>
    <g id="text_12">
     <!-- Refugees -->
     <defs>
      <path d="M 44.390625 34.1875 
Q 47.5625 33.109375 50.5625 29.59375 
Q 53.5625 26.078125 56.59375 19.921875 
L 66.609375 0 
L 56 0 
L 46.6875 18.703125 
Q 43.0625 26.03125 39.671875 28.421875 
Q 36.28125 30.8125 30.421875 30.8125 
L 19.671875 30.8125 
L 19.671875 0 
L 9.8125 0 
L 9.8125 72.90625 
L 32.078125 72.90625 
Q 44.578125 72.90625 50.734375 67.671875 
Q 56.890625 62.453125 56.890625 51.90625 
Q 56.890625 45.015625 53.6875 40.46875 
Q 50.484375 35.9375 44.390625 34.1875 
z
M 19.671875 64.796875 
L 19.671875 38.921875 
L 32.078125 38.921875 
Q 39.203125 38.921875 42.84375 42.21875 
Q 46.484375 45.515625 46.484375 51.90625 
Q 46.484375 58.296875 42.84375 61.546875 
Q 39.203125 64.796875 32.078125 64.796875 
z
" id="DejaVuSans-52"/>
      <path d="M 37.109375 75.984375 
L 37.109375 68.5 
L 28.515625 68.5 
Q 23.6875 68.5 21.796875 66.546875 
Q 19.921875 64.59375 19.921875 59.515625 
L 19.921875 54.6875 
L 34.71875 54.6875 
L 34.71875 47.703125 
L 19.921875 47.703125 
L 19.921875 0 
L 10.890625 0 
L 10.890625 47.703125 
L 2.296875 47.703125 
L 2.296875 54.6875 
L 10.890625 54.6875 
L 10.890625 58.5 
Q 10.890625 67.625 15.140625 71.796875 
Q 19.390625 75.984375 28.609375 75.984375 
z
" id="DejaVuSans-66"/>
      <path d="M 8.5 21.578125 
L 8.5 54.6875 
L 17.484375 54.6875 
L 17.484375 21.921875 
Q 17.484375 14.15625 20.5 10.265625 
Q 23.53125 6.390625 29.59375 6.390625 
Q 36.859375 6.390625 41.078125 11.03125 
Q 45.3125 15.671875 45.3125 23.6875 
L 45.3125 54.6875 
L 54.296875 54.6875 
L 54.296875 0 
L 45.3125 0 
L 45.3125 8.40625 
Q 42.046875 3.421875 37.71875 1 
Q 33.40625 -1.421875 27.6875 -1.421875 
Q 18.265625 -1.421875 13.375 4.4375 
Q 8.5 10.296875 8.5 21.578125 
z
M 31.109375 56 
z
" id="DejaVuSans-75"/>
      <path d="M 45.40625 27.984375 
Q 45.40625 37.75 41.375 43.109375 
Q 37.359375 48.484375 30.078125 48.484375 
Q 22.859375 48.484375 18.828125 43.109375 
Q 14.796875 37.75 14.796875 27.984375 
Q 14.796875 18.265625 18.828125 12.890625 
Q 22.859375 7.515625 30.078125 7.515625 
Q 37.359375 7.515625 41.375 12.890625 
Q 45.40625 18.265625 45.40625 27.984375 
z
M 54.390625 6.78125 
Q 54.390625 -7.171875 48.1875 -13.984375 
Q 42 -20.796875 29.203125 -20.796875 
Q 24.46875 -20.796875 20.265625 -20.09375 
Q 16.0625 -19.390625 12.109375 -17.921875 
L 12.109375 -9.1875 
Q 16.0625 -11.328125 19.921875 -12.34375 
Q 23.78125 -13.375 27.78125 -13.375 
Q 36.625 -13.375 41.015625 -8.765625 
Q 45.40625 -4.15625 45.40625 5.171875 
L 45.40625 9.625 
Q 42.625 4.78125 38.28125 2.390625 
Q 33.9375 0 27.875 0 
Q 17.828125 0 11.671875 7.65625 
Q 5.515625 15.328125 5.515625 27.984375 
Q 5.515625 40.671875 11.671875 48.328125 
Q 17.828125 56 27.875 56 
Q 33.9375 56 38.28125 53.609375 
Q 42.625 51.21875 45.40625 46.390625 
L 45.40625 54.6875 
L 54.390625 54.6875 
z
" id="DejaVuSans-67"/>
      <path d="M 44.28125 53.078125 
L 44.28125 44.578125 
Q 40.484375 46.53125 36.375 47.5 
Q 32.28125 48.484375 27.875 48.484375 
Q 21.1875 48.484375 17.84375 46.4375 
Q 14.5 44.390625 14.5 40.28125 
Q 14.5 37.15625 16.890625 35.375 
Q 19.28125 33.59375 26.515625 31.984375 
L 29.59375 31.296875 
Q 39.15625 29.25 43.1875 25.515625 
Q 47.21875 21.78125 47.21875 15.09375 
Q 47.21875 7.46875 41.1875 3.015625 
Q 35.15625 -1.421875 24.609375 -1.421875 
Q 20.21875 -1.421875 15.453125 -0.5625 
Q 10.6875 0.296875 5.421875 2 
L 5.421875 11.28125 
Q 10.40625 8.6875 15.234375 7.390625 
Q 20.0625 6.109375 24.8125 6.109375 
Q 31.15625 6.109375 34.5625 8.28125 
Q 37.984375 10.453125 37.984375 14.40625 
Q 37.984375 18.0625 35.515625 20.015625 
Q 33.0625 21.96875 24.703125 23.78125 
L 21.578125 24.515625 
Q 13.234375 26.265625 9.515625 29.90625 
Q 5.8125 33.546875 5.8125 39.890625 
Q 5.8125 47.609375 11.28125 51.796875 
Q 16.75 56 26.8125 56 
Q 31.78125 56 36.171875 55.265625 
Q 40.578125 54.546875 44.28125 53.078125 
z
" id="DejaVuSans-73"/>
     </defs>
     <g style="fill:#ff7f0e;" transform="translate(16.815625 283.588594)rotate(-90)scale(0.1 -0.1)">
      <use xlink:href="#DejaVuSans-52"/>
      <use x="69.419922" xlink:href="#DejaVuSans-65"/>
      <use x="130.943359" xlink:href="#DejaVuSans-66"/>
      <use x="166.148438" xlink:href="#DejaVuSans-75"/>
      <use x="229.527344" xlink:href="#DejaVuSans-67"/>
      <use x="293.003906" xlink:href="#DejaVuSans-65"/>
      <use x="354.527344" xlink:href="#DejaVuSans-65"/>
      <use x="416.050781" xlink:href="#DejaVuSans-73"/>
     </g>
    </g>
   </g>
   <g id="line2d_11">
    <path clip-path="url(#p9417a95bb3)" d="M 99.710085 481.393081 
L 104.56437 476.606274 
L 109.418654 478.146094 
L 114.272939 486.468577 
L 119.127223 486.98 
L 123.981508 470.531075 
L 128.835792 240.442772 
L 133.690077 244.490643 
L 138.544361 253.370175 
L 143.398645 260.632472 
L 148.25293 259.801089 
L 153.107214 236.03026 
L 157.961499 371.792708 
L 162.815783 366.529885 
L 167.670068 368.760114 
L 172.524352 376.408815 
L 177.378637 378.145453 
L 182.232921 359.718126 
L 187.087206 269.032081 
L 191.94149 264.881484 
L 196.795775 268.677312 
L 201.650059 275.760653 
L 206.504344 278.009404 
L 211.358628 257.258315 
L 216.212913 277.59199 
L 221.067197 271.920051 
L 225.921481 274.743668 
L 230.775766 281.813205 
L 235.63005 284.60295 
L 240.484335 264.475162 
L 245.338619 192.623173 
L 250.192904 202.052757 
L 255.047188 214.52665 
L 259.901473 221.7333 
L 264.755757 219.153184 
L 269.610042 192.837764 
L 274.464326 261.545999 
L 279.318611 252.738278 
L 284.172895 255.024588 
L 289.02718 263.541622 
L 293.881464 269.426064 
L 298.735749 251.276489 
L 303.590033 299.007369 
L 308.444318 293.428461 
L 313.298602 296.117175 
L 318.152886 303.318388 
L 323.007171 305.868728 
L 327.861455 286.127519 
L 332.71574 341.441309 
L 337.570024 336.615398 
L 342.424309 339.371923 
L 347.278593 346.858209 
L 352.132878 348.701858 
L 356.987162 329.555556 
L 361.841447 368.368585 
L 366.695731 363.090914 
L 371.550016 365.342688 
L 376.4043 372.970318 
L 381.258585 374.745275 
L 386.112869 356.256104 
L 390.967154 396.814978 
L 395.821438 391.660833 
L 400.675722 393.733461 
L 405.530007 401.53596 
L 410.384291 402.992901 
L 415.238576 385.017226 
L 420.09286 377.150611 
L 424.947145 371.911042 
L 429.801429 374.107562 
L 434.655714 381.789144 
L 439.509998 383.465904 
L 444.364283 365.13527 
L 449.218567 386.392301 
L 454.072852 381.192868 
L 458.927136 383.331164 
L 463.781421 391.069601 
L 468.635705 392.643052 
L 473.48999 374.479212 
L 478.344274 353.694957 
L 483.198558 348.353543 
L 488.052843 350.69778 
L 492.907127 358.235185 
L 497.761412 360.174157 
L 502.615696 341.42013 
L 507.469981 386.782596 
L 512.324265 381.584899 
L 517.17855 383.720699 
L 522.032834 391.46151 
L 526.887119 393.030608 
L 531.741403 374.87386 
L 536.595688 366.239984 
L 541.449972 360.953065 
L 546.304257 363.218278 
L 551.158541 370.832822 
L 556.012826 372.631549 
L 560.86711 354.103951 
L 565.721394 379.907434 
L 570.575679 374.679851 
L 575.429963 376.858974 
L 580.284248 384.557534 
L 585.138532 386.203486 
L 589.992817 367.922629 
L 594.847101 413.007344 
L 599.701386 407.923505 
L 604.55567 409.894118 
L 609.409955 417.796177 
L 614.264239 419.072099 
L 619.118524 401.388732 
L 623.972808 266.387449 
L 628.827093 251.054115 
L 633.681377 251.075647 
L 638.535662 261.446988 
L 643.389946 271.327884 
L 648.244231 256.955425 
L 653.098515 339.116178 
L 657.952799 333.711469 
L 662.807084 336.14753 
L 667.661368 343.595321 
L 672.515653 345.69725 
L 677.369937 326.680061 
L 682.224222 422.373469 
L 687.078506 417.330315 
L 691.932791 419.241931 
L 696.787075 427.201584 
L 701.64136 428.372787 
L 706.495644 410.858485 
L 711.349929 404.962856 
L 716.204213 399.844129 
L 721.058498 401.865414 
L 725.912782 409.717994 
L 730.767067 411.083836 
L 735.621351 393.255247 
L 740.475635 404.122029 
L 745.32992 398.99962 
L 750.184204 401.026186 
L 755.038489 408.873635 
L 759.892773 410.248873 
L 764.747058 392.405111 
L 769.601342 410.36901 
L 774.455627 405.273734 
L 779.309911 407.26097 
L 784.164196 415.146806 
L 789.01848 416.45222 
L 793.872765 398.721204 
L 798.727049 358.685914 
L 803.581334 354.462394 
L 808.435618 357.421049 
L 813.289903 365.035906 
L 818.144187 366.471281 
L 822.998471 347.477563 
L 827.852756 315.405051 
L 832.70704 318.597973 
L 842.415609 333.982576 
L 847.269894 332.795393 
L 852.124178 310.732877 
L 856.978463 356.366912 
L 861.832747 351.037105 
L 866.687032 353.3645 
L 871.541316 360.918353 
L 876.395601 362.827454 
L 881.249885 344.121657 
L 886.10417 413.626508 
L 890.958454 408.545388 
L 895.812739 410.512103 
L 900.667023 418.417958 
L 905.521307 419.686945 
L 910.375592 402.014757 
L 915.229876 389.384665 
L 920.084161 384.198249 
L 924.938445 386.31767 
L 929.79273 394.074481 
L 934.647014 395.614494 
L 939.501299 377.504688 
L 944.355583 356.20668 
L 949.209868 350.876208 
L 954.064152 353.20458 
L 958.918437 360.757457 
L 963.772721 362.668348 
L 968.627006 343.959649 
L 973.48129 364.038678 
L 978.335575 358.742186 
L 983.189859 361.021269 
L 988.044144 368.622268 
L 992.898428 370.445606 
L 997.752712 351.878291 
L 1002.606997 408.308308 
L 1007.461281 403.204096 
L 1012.315566 405.204302 
L 1017.16985 413.077466 
L 1022.024135 414.405911 
L 1026.878419 396.637689 
L 1031.732704 400.960789 
L 1036.586988 395.824651 
L 1041.441273 397.871163 
L 1046.295557 405.699168 
L 1051.149842 407.109728 
L 1056.004126 389.208894 
L 1060.858411 369.118679 
L 1065.712695 363.844235 
L 1070.56698 366.091305 
L 1075.421264 373.723558 
L 1080.275548 375.490122 
L 1085.129833 357.014497 
L 1089.984117 414.326277 
L 1094.838402 409.248194 
L 1099.692686 411.210488 
L 1104.546971 419.120669 
L 1109.401255 420.381826 
L 1114.25554 402.722261 
L 1114.25554 402.722261 
" style="fill:none;stroke:#008000;stroke-dasharray:5.55,2.4;stroke-dashoffset:0;stroke-width:1.5;"/>
   </g>
   <g id="line2d_12">
    <path clip-path="url(#p9417a95bb3)" d="M 99.710085 438.595801 
L 104.56437 426.154965 
L 109.418654 411.936867 
L 114.272939 395.941506 
L 119.127223 344.4009 
L 123.981508 33.38 
L 128.835792 314.187441 
L 133.690077 333.737326 
L 138.544361 335.514589 
L 143.398645 401.273293 
L 148.25293 269.755884 
L 153.107214 323.073753 
L 157.961499 381.723408 
L 162.815783 335.514589 
L 167.670068 291.083032 
L 172.524352 239.542425 
L 177.378637 127.574901 
L 182.232921 234.210638 
L 187.087206 328.40554 
L 191.94149 369.282572 
L 196.795775 301.746605 
L 201.650059 264.424097 
L 206.504344 294.637556 
L 211.358628 239.542425 
L 216.212913 301.746605 
L 221.067197 289.305769 
L 225.921481 337.291851 
L 230.775766 211.106229 
L 235.63005 182.670032 
L 240.484335 221.769802 
L 245.338619 84.920606 
L 250.192904 310.632917 
L 255.047188 250.205999 
L 259.901473 219.99254 
L 264.755757 239.542425 
L 269.610042 218.215278 
L 274.464326 255.537786 
L 279.318611 235.987901 
L 284.172895 319.519228 
L 289.02718 307.078392 
L 293.881464 307.078392 
L 298.735749 214.660753 
L 303.590033 211.106229 
L 308.444318 333.737326 
L 313.298602 280.419458 
L 318.152886 264.424097 
L 323.007171 308.855654 
L 327.861455 308.855654 
L 332.71574 296.414818 
L 337.570024 305.30113 
L 342.424309 337.291851 
L 347.278593 278.642196 
L 352.132878 331.960064 
L 356.987162 326.628277 
L 361.841447 346.178162 
L 366.695731 351.509949 
L 371.550016 372.837097 
L 376.4043 349.732687 
L 381.258585 415.491392 
L 386.112869 324.851015 
L 390.967154 360.396261 
L 395.821438 308.855654 
L 400.675722 362.173523 
L 405.530007 390.60972 
L 410.384291 360.396261 
L 415.238576 351.509949 
L 420.09286 383.50067 
L 424.947145 422.600441 
L 429.801429 371.059834 
L 434.655714 363.950785 
L 439.509998 379.946146 
L 444.364283 337.291851 
L 449.218567 392.386982 
L 454.072852 307.078392 
L 458.927136 255.537786 
L 463.781421 319.519228 
L 468.635705 271.533146 
L 473.48999 305.30113 
L 478.344274 388.832457 
L 483.198558 337.291851 
L 488.052843 342.623638 
L 492.907127 410.159605 
L 497.761412 339.069113 
L 502.615696 365.728048 
L 507.469981 317.741966 
L 512.324265 339.069113 
L 517.17855 255.537786 
L 522.032834 312.410179 
L 526.887119 319.519228 
L 531.741403 340.846376 
L 536.595688 408.382343 
L 541.449972 408.382343 
L 546.304257 367.50531 
L 551.158541 346.178162 
L 556.012826 326.628277 
L 560.86711 285.751245 
L 565.721394 314.187441 
L 570.575679 323.073753 
L 575.429963 383.50067 
L 580.284248 379.946146 
L 585.138532 369.282572 
L 589.992817 374.614359 
L 594.847101 346.178162 
L 599.701386 321.29649 
L 604.55567 347.955425 
L 609.409955 360.396261 
L 614.264239 301.746605 
L 619.118524 266.20136 
L 623.972808 324.851015 
L 628.827093 246.651474 
L 633.681377 276.864933 
L 638.535662 280.419458 
L 643.389946 305.30113 
L 648.244231 307.078392 
L 653.098515 399.496031 
L 657.952799 404.827818 
L 662.807084 376.391621 
L 672.515653 365.728048 
L 677.369937 347.955425 
L 682.224222 367.50531 
L 687.078506 355.064474 
L 691.932791 369.282572 
L 696.787075 340.846376 
L 701.64136 365.728048 
L 706.495644 374.614359 
L 711.349929 376.391621 
L 716.204213 397.718769 
L 721.058498 371.059834 
L 725.912782 431.486752 
L 730.767067 388.832457 
L 735.621351 333.737326 
L 740.475635 381.723408 
L 745.32992 324.851015 
L 750.184204 371.059834 
L 755.038489 353.287212 
L 759.892773 360.396261 
L 764.747058 378.168884 
L 769.601342 294.637556 
L 774.455627 381.723408 
L 779.309911 385.277933 
L 784.164196 379.946146 
L 789.01848 372.837097 
L 793.872765 353.287212 
L 798.727049 388.832457 
L 803.581334 344.4009 
L 808.435618 326.628277 
L 813.289903 275.087671 
L 818.144187 363.950785 
L 822.998471 275.087671 
L 827.852756 358.618998 
L 832.70704 360.396261 
L 837.561325 326.628277 
L 842.415609 394.164244 
L 847.269894 349.732687 
L 852.124178 339.069113 
L 856.978463 385.277933 
L 861.832747 379.946146 
L 866.687032 358.618998 
L 871.541316 376.391621 
L 876.395601 360.396261 
L 881.249885 392.386982 
L 886.10417 372.837097 
L 890.958454 349.732687 
L 895.812739 374.614359 
L 900.667023 330.182802 
L 905.521307 346.178162 
L 910.375592 337.291851 
L 915.229876 371.059834 
L 920.084161 351.509949 
L 924.938445 360.396261 
L 929.79273 314.187441 
L 934.647014 346.178162 
L 939.501299 321.29649 
L 944.355583 335.514589 
L 949.209868 381.723408 
L 954.064152 369.282572 
L 958.918437 353.287212 
L 963.772721 397.718769 
L 968.627006 342.623638 
L 973.48129 356.841736 
L 978.335575 376.391621 
L 983.189859 333.737326 
L 988.044144 328.40554 
L 992.898428 403.050556 
L 997.752712 356.841736 
L 1002.606997 367.50531 
L 1007.461281 395.941506 
L 1012.315566 374.614359 
L 1017.16985 387.055195 
L 1022.024135 324.851015 
L 1026.878419 372.837097 
L 1031.732704 376.391621 
L 1036.586988 333.737326 
L 1041.441273 351.509949 
L 1046.295557 328.40554 
L 1051.149842 319.519228 
L 1056.004126 285.751245 
L 1060.858411 379.946146 
L 1065.712695 344.4009 
L 1070.56698 369.282572 
L 1075.421264 408.382343 
L 1080.275548 363.950785 
L 1085.129833 367.50531 
L 1089.984117 335.514589 
L 1094.838402 296.414818 
L 1099.692686 346.178162 
L 1104.546971 390.60972 
L 1109.401255 362.173523 
L 1114.25554 413.714129 
L 1114.25554 413.714129 
" style="fill:none;stroke:#ff7f0e;stroke-linecap:square;stroke-width:1.5;"/>
   </g>
   <g id="line2d_13">
    <defs>
     <path d="M 0 3 
C 0.795609 3 1.55874 2.683901 2.12132 2.12132 
C 2.683901 1.55874 3 0.795609 3 0 
C 3 -0.795609 2.683901 -1.55874 2.12132 -2.12132 
C 1.55874 -2.683901 0.795609 -3 0 -3 
C -0.795609 -3 -1.55874 -2.683901 -2.12132 -2.12132 
C -2.683901 -1.55874 -3 -0.795609 -3 0 
C -3 0.795609 -2.683901 1.55874 -2.12132 2.12132 
C -1.55874 2.683901 -0.795609 3 0 3 
z
" id="m76ce05d998" style="stroke:#008000;"/>
    </defs>
    <g clip-path="url(#p9417a95bb3)">
     <use style="fill:#008000;stroke:#008000;" x="99.710085" xlink:href="#m76ce05d998" y="481.393081"/>
     <use style="fill:#008000;stroke:#008000;" x="128.835792" xlink:href="#m76ce05d998" y="240.442772"/>
     <use style="fill:#008000;stroke:#008000;" x="157.961499" xlink:href="#m76ce05d998" y="371.792708"/>
     <use style="fill:#008000;stroke:#008000;" x="187.087206" xlink:href="#m76ce05d998" y="269.032081"/>
     <use style="fill:#008000;stroke:#008000;" x="216.212913" xlink:href="#m76ce05d998" y="277.59199"/>
     <use style="fill:#008000;stroke:#008000;" x="245.338619" xlink:href="#m76ce05d998" y="192.623173"/>
     <use style="fill:#008000;stroke:#008000;" x="274.464326" xlink:href="#m76ce05d998" y="261.545999"/>
     <use style="fill:#008000;stroke:#008000;" x="303.590033" xlink:href="#m76ce05d998" y="299.007369"/>
     <use style="fill:#008000;stroke:#008000;" x="332.71574" xlink:href="#m76ce05d998" y="341.441309"/>
     <use style="fill:#008000;stroke:#008000;" x="361.841447" xlink:href="#m76ce05d998" y="368.368585"/>
     <use style="fill:#008000;stroke:#008000;" x="390.967154" xlink:href="#m76ce05d998" y="396.814978"/>
     <use style="fill:#008000;stroke:#008000;" x="420.09286" xlink:href="#m76ce05d998" y="377.150611"/>
     <use style="fill:#008000;stroke:#008000;" x="449.218567" xlink:href="#m76ce05d998" y="386.392301"/>
     <use style="fill:#008000;stroke:#008000;" x="478.344274" xlink:href="#m76ce05d998" y="353.694957"/>
     <use style="fill:#008000;stroke:#008000;" x="507.469981" xlink:href="#m76ce05d998" y="386.782596"/>
     <use style="fill:#008000;stroke:#008000;" x="536.595688" xlink:href="#m76ce05d998" y="366.239984"/>
     <use style="fill:#008000;stroke:#008000;" x="565.721394" xlink:href="#m76ce05d998" y="379.907434"/>
     <use style="fill:#008000;stroke:#008000;" x="594.847101" xlink:href="#m76ce05d998" y="413.007344"/>
     <use style="fill:#008000;stroke:#008000;" x="623.972808" xlink:href="#m76ce05d998" y="266.387449"/>
     <use style="fill:#008000;stroke:#008000;" x="653.098515" xlink:href="#m76ce05d998" y="339.116178"/>
     <use style="fill:#008000;stroke:#008000;" x="682.224222" xlink:href="#m76ce05d998" y="422.373469"/>
     <use style="fill:#008000;stroke:#008000;" x="711.349929" xlink:href="#m76ce05d998" y="404.962856"/>
     <use style="fill:#008000;stroke:#008000;" x="740.475635" xlink:href="#m76ce05d998" y="404.122029"/>
     <use style="fill:#008000;stroke:#008000;" x="769.601342" xlink:href="#m76ce05d998" y="410.36901"/>
     <use style="fill:#008000;stroke:#008000;" x="798.727049" xlink:href="#m76ce05d998" y="358.685914"/>
     <use style="fill:#008000;stroke:#008000;" x="827.852756" xlink:href="#m76ce05d998" y="315.405051"/>
     <use style="fill:#008000;stroke:#008000;" x="856.978463" xlink:href="#m76ce05d998" y="356.366912"/>
     <use style="fill:#008000;stroke:#008000;" x="886.10417" xlink:href="#m76ce05d998" y="413.626508"/>
     <use style="fill:#008000;stroke:#008000;" x="915.229876" xlink:href="#m76ce05d998" y="389.384665"/>
     <use style="fill:#008000;stroke:#008000;" x="944.355583" xlink:href="#m76ce05d998" y="356.20668"/>
     <use style="fill:#008000;stroke:#008000;" x="973.48129" xlink:href="#m76ce05d998" y="364.038678"/>
     <use style="fill:#008000;stroke:#008000;" x="1002.606997" xlink:href="#m76ce05d998" y="408.308308"/>
     <use style="fill:#008000;stroke:#008000;" x="1031.732704" xlink:href="#m76ce05d998" y="400.960789"/>
     <use style="fill:#008000;stroke:#008000;" x="1060.858411" xlink:href="#m76ce05d998" y="369.118679"/>
     <use style="fill:#008000;stroke:#008000;" x="1089.984117" xlink:href="#m76ce05d998" y="414.326277"/>
    </g>
   </g>
   <g id="patch_3">
    <path d="M 48.982813 509.66 
L 48.982813 10.7 
" style="fill:none;stroke:#000000;stroke-linecap:square;stroke-linejoin:miter;stroke-width:0.8;"/>
   </g>
   <g id="patch_4">
    <path d="M 1164.982812 509.66 
L 1164.982812 10.7 
" style="fill:none;stroke:#000000;stroke-linecap:square;stroke-linejoin:miter;stroke-width:0.8;"/>
   </g>
   <g id="patch_5">
    <path d="M 48.982813 509.66 
L 1164.982812 509.66 
" style="fill:none;stroke:#000000;stroke-linecap:square;stroke-linejoin:miter;stroke-width:0.8;"/>
   </g>
   <g id="patch_6">
    <path d="M 48.982813 10.7 
L 1164.982812 10.7 
" style="fill:none;stroke:#000000;stroke-linecap:square;stroke-linejoin:miter;stroke-width:0.8;"/>
   </g>
   <g id="legend_1">
    <g id="patch_7">
     <path d="M 55.982813 62.734375 
L 203.757813 62.734375 
Q 205.757813 62.734375 205.757813 60.734375 
L 205.757813 17.7 
Q 205.757813 15.7 203.757813 15.7 
L 55.982813 15.7 
Q 53.982813 15.7 53.982813 17.7 
L 53.982813 60.734375 
Q 53.982813 62.734375 55.982813 62.734375 
z
" style="fill:#ffffff;opacity:0.8;stroke:#cccccc;stroke-linejoin:miter;"/>
    </g>
    <g id="line2d_14">
     <path d="M 57.982813 23.798437 
L 77.982813 23.798437 
" style="fill:none;stroke:#008000;stroke-dasharray:5.55,2.4;stroke-dashoffset:0;stroke-width:1.5;"/>
    </g>
    <g id="line2d_15"/>
    <g id="text_13">
     <!-- Predicated -->
     <defs>
      <path d="M 19.671875 64.796875 
L 19.671875 37.40625 
L 32.078125 37.40625 
Q 38.96875 37.40625 42.71875 40.96875 
Q 46.484375 44.53125 46.484375 51.125 
Q 46.484375 57.671875 42.71875 61.234375 
Q 38.96875 64.796875 32.078125 64.796875 
z
M 9.8125 72.90625 
L 32.078125 72.90625 
Q 44.34375 72.90625 50.609375 67.359375 
Q 56.890625 61.8125 56.890625 51.125 
Q 56.890625 40.328125 50.609375 34.8125 
Q 44.34375 29.296875 32.078125 29.296875 
L 19.671875 29.296875 
L 19.671875 0 
L 9.8125 0 
z
" id="DejaVuSans-50"/>
      <path d="M 41.109375 46.296875 
Q 39.59375 47.171875 37.8125 47.578125 
Q 36.03125 48 33.890625 48 
Q 26.265625 48 22.1875 43.046875 
Q 18.109375 38.09375 18.109375 28.8125 
L 18.109375 0 
L 9.078125 0 
L 9.078125 54.6875 
L 18.109375 54.6875 
L 18.109375 46.1875 
Q 20.953125 51.171875 25.484375 53.578125 
Q 30.03125 56 36.53125 56 
Q 37.453125 56 38.578125 55.875 
Q 39.703125 55.765625 41.0625 55.515625 
z
" id="DejaVuSans-72"/>
      <path d="M 45.40625 46.390625 
L 45.40625 75.984375 
L 54.390625 75.984375 
L 54.390625 0 
L 45.40625 0 
L 45.40625 8.203125 
Q 42.578125 3.328125 38.25 0.953125 
Q 33.9375 -1.421875 27.875 -1.421875 
Q 17.96875 -1.421875 11.734375 6.484375 
Q 5.515625 14.40625 5.515625 27.296875 
Q 5.515625 40.1875 11.734375 48.09375 
Q 17.96875 56 27.875 56 
Q 33.9375 56 38.25 53.625 
Q 42.578125 51.265625 45.40625 46.390625 
z
M 14.796875 27.296875 
Q 14.796875 17.390625 18.875 11.75 
Q 22.953125 6.109375 30.078125 6.109375 
Q 37.203125 6.109375 41.296875 11.75 
Q 45.40625 17.390625 45.40625 27.296875 
Q 45.40625 37.203125 41.296875 42.84375 
Q 37.203125 48.484375 30.078125 48.484375 
Q 22.953125 48.484375 18.875 42.84375 
Q 14.796875 37.203125 14.796875 27.296875 
z
" id="DejaVuSans-64"/>
      <path d="M 48.78125 52.59375 
L 48.78125 44.1875 
Q 44.96875 46.296875 41.140625 47.34375 
Q 37.3125 48.390625 33.40625 48.390625 
Q 24.65625 48.390625 19.8125 42.84375 
Q 14.984375 37.3125 14.984375 27.296875 
Q 14.984375 17.28125 19.8125 11.734375 
Q 24.65625 6.203125 33.40625 6.203125 
Q 37.3125 6.203125 41.140625 7.25 
Q 44.96875 8.296875 48.78125 10.40625 
L 48.78125 2.09375 
Q 45.015625 0.34375 40.984375 -0.53125 
Q 36.96875 -1.421875 32.421875 -1.421875 
Q 20.0625 -1.421875 12.78125 6.34375 
Q 5.515625 14.109375 5.515625 27.296875 
Q 5.515625 40.671875 12.859375 48.328125 
Q 20.21875 56 33.015625 56 
Q 37.15625 56 41.109375 55.140625 
Q 45.0625 54.296875 48.78125 52.59375 
z
" id="DejaVuSans-63"/>
      <path d="M 34.28125 27.484375 
Q 23.390625 27.484375 19.1875 25 
Q 14.984375 22.515625 14.984375 16.5 
Q 14.984375 11.71875 18.140625 8.90625 
Q 21.296875 6.109375 26.703125 6.109375 
Q 34.1875 6.109375 38.703125 11.40625 
Q 43.21875 16.703125 43.21875 25.484375 
L 43.21875 27.484375 
z
M 52.203125 31.203125 
L 52.203125 0 
L 43.21875 0 
L 43.21875 8.296875 
Q 40.140625 3.328125 35.546875 0.953125 
Q 30.953125 -1.421875 24.3125 -1.421875 
Q 15.921875 -1.421875 10.953125 3.296875 
Q 6 8.015625 6 15.921875 
Q 6 25.140625 12.171875 29.828125 
Q 18.359375 34.515625 30.609375 34.515625 
L 43.21875 34.515625 
L 43.21875 35.40625 
Q 43.21875 41.609375 39.140625 45 
Q 35.0625 48.390625 27.6875 48.390625 
Q 23 48.390625 18.546875 47.265625 
Q 14.109375 46.140625 10.015625 43.890625 
L 10.015625 52.203125 
Q 14.9375 54.109375 19.578125 55.046875 
Q 24.21875 56 28.609375 56 
Q 40.484375 56 46.34375 49.84375 
Q 52.203125 43.703125 52.203125 31.203125 
z
" id="DejaVuSans-61"/>
      <path d="M 18.3125 70.21875 
L 18.3125 54.6875 
L 36.8125 54.6875 
L 36.8125 47.703125 
L 18.3125 47.703125 
L 18.3125 18.015625 
Q 18.3125 11.328125 20.140625 9.421875 
Q 21.96875 7.515625 27.59375 7.515625 
L 36.8125 7.515625 
L 36.8125 0 
L 27.59375 0 
Q 17.1875 0 13.234375 3.875 
Q 9.28125 7.765625 9.28125 18.015625 
L 9.28125 47.703125 
L 2.6875 47.703125 
L 2.6875 54.6875 
L 9.28125 54.6875 
L 9.28125 70.21875 
z
" id="DejaVuSans-74"/>
     </defs>
     <g transform="translate(85.982813 27.298437)scale(0.1 -0.1)">
      <use xlink:href="#DejaVuSans-50"/>
      <use x="60.287109" xlink:href="#DejaVuSans-72"/>
      <use x="101.369141" xlink:href="#DejaVuSans-65"/>
      <use x="162.892578" xlink:href="#DejaVuSans-64"/>
      <use x="226.369141" xlink:href="#DejaVuSans-69"/>
      <use x="254.152344" xlink:href="#DejaVuSans-63"/>
      <use x="309.132812" xlink:href="#DejaVuSans-61"/>
      <use x="370.412109" xlink:href="#DejaVuSans-74"/>
      <use x="409.621094" xlink:href="#DejaVuSans-65"/>
      <use x="471.144531" xlink:href="#DejaVuSans-64"/>
     </g>
    </g>
    <g id="line2d_16">
     <path d="M 57.982813 38.476562 
L 77.982813 38.476562 
" style="fill:none;stroke:#ff7f0e;stroke-linecap:square;stroke-width:1.5;"/>
    </g>
    <g id="line2d_17"/>
    <g id="text_14">
     <!-- Real Data -->
     <defs>
      <path d="M 9.421875 75.984375 
L 18.40625 75.984375 
L 18.40625 0 
L 9.421875 0 
z
" id="DejaVuSans-6c"/>
      <path id="DejaVuSans-20"/>
      <path d="M 19.671875 64.796875 
L 19.671875 8.109375 
L 31.59375 8.109375 
Q 46.6875 8.109375 53.6875 14.9375 
Q 60.6875 21.78125 60.6875 36.53125 
Q 60.6875 51.171875 53.6875 57.984375 
Q 46.6875 64.796875 31.59375 64.796875 
z
M 9.8125 72.90625 
L 30.078125 72.90625 
Q 51.265625 72.90625 61.171875 64.09375 
Q 71.09375 55.28125 71.09375 36.53125 
Q 71.09375 17.671875 61.125 8.828125 
Q 51.171875 0 30.078125 0 
L 9.8125 0 
z
" id="DejaVuSans-44"/>
     </defs>
     <g transform="translate(85.982813 41.976562)scale(0.1 -0.1)">
      <use xlink:href="#DejaVuSans-52"/>
      <use x="69.419922" xlink:href="#DejaVuSans-65"/>
      <use x="130.943359" xlink:href="#DejaVuSans-61"/>
      <use x="192.222656" xlink:href="#DejaVuSans-6c"/>
      <use x="220.005859" xlink:href="#DejaVuSans-20"/>
      <use x="251.792969" xlink:href="#DejaVuSans-44"/>
      <use x="328.794922" xlink:href="#DejaVuSans-61"/>
      <use x="390.074219" xlink:href="#DejaVuSans-74"/>
      <use x="429.283203" xlink:href="#DejaVuSans-61"/>
     </g>
    </g>
    <g id="line2d_18"/>
    <g id="line2d_19">
     <g>
      <use style="fill:#008000;stroke:#008000;" x="67.982813" xlink:href="#m76ce05d998" y="53.154688"/>
     </g>
    </g>
    <g id="text_15">
     <!-- Start Point for Forecast -->
     <defs>
      <path d="M 53.515625 70.515625 
L 53.515625 60.890625 
Q 47.90625 63.578125 42.921875 64.890625 
Q 37.9375 66.21875 33.296875 66.21875 
Q 25.25 66.21875 20.875 63.09375 
Q 16.5 59.96875 16.5 54.203125 
Q 16.5 49.359375 19.40625 46.890625 
Q 22.3125 44.4375 30.421875 42.921875 
L 36.375 41.703125 
Q 47.40625 39.59375 52.65625 34.296875 
Q 57.90625 29 57.90625 20.125 
Q 57.90625 9.515625 50.796875 4.046875 
Q 43.703125 -1.421875 29.984375 -1.421875 
Q 24.8125 -1.421875 18.96875 -0.25 
Q 13.140625 0.921875 6.890625 3.21875 
L 6.890625 13.375 
Q 12.890625 10.015625 18.65625 8.296875 
Q 24.421875 6.59375 29.984375 6.59375 
Q 38.421875 6.59375 43.015625 9.90625 
Q 47.609375 13.234375 47.609375 19.390625 
Q 47.609375 24.75 44.3125 27.78125 
Q 41.015625 30.8125 33.5 32.328125 
L 27.484375 33.5 
Q 16.453125 35.6875 11.515625 40.375 
Q 6.59375 45.0625 6.59375 53.421875 
Q 6.59375 63.09375 13.40625 68.65625 
Q 20.21875 74.21875 32.171875 74.21875 
Q 37.3125 74.21875 42.625 73.28125 
Q 47.953125 72.359375 53.515625 70.515625 
z
" id="DejaVuSans-53"/>
      <path d="M 30.609375 48.390625 
Q 23.390625 48.390625 19.1875 42.75 
Q 14.984375 37.109375 14.984375 27.296875 
Q 14.984375 17.484375 19.15625 11.84375 
Q 23.34375 6.203125 30.609375 6.203125 
Q 37.796875 6.203125 41.984375 11.859375 
Q 46.1875 17.53125 46.1875 27.296875 
Q 46.1875 37.015625 41.984375 42.703125 
Q 37.796875 48.390625 30.609375 48.390625 
z
M 30.609375 56 
Q 42.328125 56 49.015625 48.375 
Q 55.71875 40.765625 55.71875 27.296875 
Q 55.71875 13.875 49.015625 6.21875 
Q 42.328125 -1.421875 30.609375 -1.421875 
Q 18.84375 -1.421875 12.171875 6.21875 
Q 5.515625 13.875 5.515625 27.296875 
Q 5.515625 40.765625 12.171875 48.375 
Q 18.84375 56 30.609375 56 
z
" id="DejaVuSans-6f"/>
      <path d="M 54.890625 33.015625 
L 54.890625 0 
L 45.90625 0 
L 45.90625 32.71875 
Q 45.90625 40.484375 42.875 44.328125 
Q 39.84375 48.1875 33.796875 48.1875 
Q 26.515625 48.1875 22.3125 43.546875 
Q 18.109375 38.921875 18.109375 30.90625 
L 18.109375 0 
L 9.078125 0 
L 9.078125 54.6875 
L 18.109375 54.6875 
L 18.109375 46.1875 
Q 21.34375 51.125 25.703125 53.5625 
Q 30.078125 56 35.796875 56 
Q 45.21875 56 50.046875 50.171875 
Q 54.890625 44.34375 54.890625 33.015625 
z
" id="DejaVuSans-6e"/>
      <path d="M 9.8125 72.90625 
L 51.703125 72.90625 
L 51.703125 64.59375 
L 19.671875 64.59375 
L 19.671875 43.109375 
L 48.578125 43.109375 
L 48.578125 34.8125 
L 19.671875 34.8125 
L 19.671875 0 
L 9.8125 0 
z
" id="DejaVuSans-46"/>
     </defs>
     <g transform="translate(85.982813 56.654688)scale(0.1 -0.1)">
      <use xlink:href="#DejaVuSans-53"/>
      <use x="63.476562" xlink:href="#DejaVuSans-74"/>
      <use x="102.685547" xlink:href="#DejaVuSans-61"/>
      <use x="163.964844" xlink:href="#DejaVuSans-72"/>
      <use x="205.078125" xlink:href="#DejaVuSans-74"/>
      <use x="244.287109" xlink:href="#DejaVuSans-20"/>
      <use x="276.074219" xlink:href="#DejaVuSans-50"/>
      <use x="336.330078" xlink:href="#DejaVuSans-6f"/>
      <use x="397.511719" xlink:href="#DejaVuSans-69"/>
      <use x="425.294922" xlink:href="#DejaVuSans-6e"/>
      <use x="488.673828" xlink:href="#DejaVuSans-74"/>
      <use x="527.882812" xlink:href="#DejaVuSans-20"/>
      <use x="559.669922" xlink:href="#DejaVuSans-66"/>
      <use x="594.875" xlink:href="#DejaVuSans-6f"/>
      <use x="656.056641" xlink:href="#DejaVuSans-72"/>
      <use x="697.169922" xlink:href="#DejaVuSans-20"/>
      <use x="728.957031" xlink:href="#DejaVuSans-46"/>
      <use x="786.429688" xlink:href="#DejaVuSans-6f"/>
      <use x="847.611328" xlink:href="#DejaVuSans-72"/>
      <use x="888.693359" xlink:href="#DejaVuSans-65"/>
      <use x="950.216797" xlink:href="#DejaVuSans-63"/>
      <use x="1005.197266" xlink:href="#DejaVuSans-61"/>
      <use x="1066.476562" xlink:href="#DejaVuSans-73"/>
      <use x="1118.576172" xlink:href="#DejaVuSans-74"/>
     </g>
    </g>
   </g>
  </g>
  <g id="axes_2">
   <g id="patch_8">
    <path d="M 48.982813 645.74 
L 1166.422812 645.74 
L 1166.422812 516.14 
L 48.982813 516.14 
z
" style="fill:none;"/>
   </g>
   <g id="matplotlib.axis_3">
    <g id="xtick_6">
     <g id="line2d_20">
      <g>
       <use style="stroke:#000000;stroke-width:0.8;" x="99.77554" xlink:href="#md72dbaf394" y="645.74"/>
      </g>
     </g>
     <g id="text_16">
      <!-- 0 -->
      <g transform="translate(96.59429 660.338437)scale(0.1 -0.1)">
       <use xlink:href="#DejaVuSans-30"/>
      </g>
     </g>
    </g>
    <g id="xtick_7">
     <g id="line2d_21">
      <g>
       <use style="stroke:#000000;stroke-width:0.8;" x="224.267518" xlink:href="#md72dbaf394" y="645.74"/>
      </g>
     </g>
     <g id="text_17">
      <!-- 25 -->
      <g transform="translate(217.905018 660.338437)scale(0.1 -0.1)">
       <use xlink:href="#DejaVuSans-32"/>
       <use x="63.623047" xlink:href="#DejaVuSans-35"/>
      </g>
     </g>
    </g>
    <g id="xtick_8">
     <g id="line2d_22">
      <g>
       <use style="stroke:#000000;stroke-width:0.8;" x="348.759497" xlink:href="#md72dbaf394" y="645.74"/>
      </g>
     </g>
     <g id="text_18">
      <!-- 50 -->
      <g transform="translate(342.396997 660.338437)scale(0.1 -0.1)">
       <use xlink:href="#DejaVuSans-35"/>
       <use x="63.623047" xlink:href="#DejaVuSans-30"/>
      </g>
     </g>
    </g>
    <g id="xtick_9">
     <g id="line2d_23">
      <g>
       <use style="stroke:#000000;stroke-width:0.8;" x="473.251476" xlink:href="#md72dbaf394" y="645.74"/>
      </g>
     </g>
     <g id="text_19">
      <!-- 75 -->
      <defs>
       <path d="M 8.203125 72.90625 
L 55.078125 72.90625 
L 55.078125 68.703125 
L 28.609375 0 
L 18.3125 0 
L 43.21875 64.59375 
L 8.203125 64.59375 
z
" id="DejaVuSans-37"/>
      </defs>
      <g transform="translate(466.888976 660.338437)scale(0.1 -0.1)">
       <use xlink:href="#DejaVuSans-37"/>
       <use x="63.623047" xlink:href="#DejaVuSans-35"/>
      </g>
     </g>
    </g>
    <g id="xtick_10">
     <g id="line2d_24">
      <g>
       <use style="stroke:#000000;stroke-width:0.8;" x="597.743454" xlink:href="#md72dbaf394" y="645.74"/>
      </g>
     </g>
     <g id="text_20">
      <!-- 100 -->
      <g transform="translate(588.199704 660.338437)scale(0.1 -0.1)">
       <use xlink:href="#DejaVuSans-31"/>
       <use x="63.623047" xlink:href="#DejaVuSans-30"/>
       <use x="127.246094" xlink:href="#DejaVuSans-30"/>
      </g>
     </g>
    </g>
    <g id="xtick_11">
     <g id="line2d_25">
      <g>
       <use style="stroke:#000000;stroke-width:0.8;" x="722.235433" xlink:href="#md72dbaf394" y="645.74"/>
      </g>
     </g>
     <g id="text_21">
      <!-- 125 -->
      <g transform="translate(712.691683 660.338437)scale(0.1 -0.1)">
       <use xlink:href="#DejaVuSans-31"/>
       <use x="63.623047" xlink:href="#DejaVuSans-32"/>
       <use x="127.246094" xlink:href="#DejaVuSans-35"/>
      </g>
     </g>
    </g>
    <g id="xtick_12">
     <g id="line2d_26">
      <g>
       <use style="stroke:#000000;stroke-width:0.8;" x="846.727411" xlink:href="#md72dbaf394" y="645.74"/>
      </g>
     </g>
     <g id="text_22">
      <!-- 150 -->
      <g transform="translate(837.183661 660.338437)scale(0.1 -0.1)">
       <use xlink:href="#DejaVuSans-31"/>
       <use x="63.623047" xlink:href="#DejaVuSans-35"/>
       <use x="127.246094" xlink:href="#DejaVuSans-30"/>
      </g>
     </g>
    </g>
    <g id="xtick_13">
     <g id="line2d_27">
      <g>
       <use style="stroke:#000000;stroke-width:0.8;" x="971.21939" xlink:href="#md72dbaf394" y="645.74"/>
      </g>
     </g>
     <g id="text_23">
      <!-- 175 -->
      <g transform="translate(961.67564 660.338437)scale(0.1 -0.1)">
       <use xlink:href="#DejaVuSans-31"/>
       <use x="63.623047" xlink:href="#DejaVuSans-37"/>
       <use x="127.246094" xlink:href="#DejaVuSans-35"/>
      </g>
     </g>
    </g>
    <g id="xtick_14">
     <g id="line2d_28">
      <g>
       <use style="stroke:#000000;stroke-width:0.8;" x="1095.711369" xlink:href="#md72dbaf394" y="645.74"/>
      </g>
     </g>
     <g id="text_24">
      <!-- 200 -->
      <g transform="translate(1086.167619 660.338437)scale(0.1 -0.1)">
       <use xlink:href="#DejaVuSans-32"/>
       <use x="63.623047" xlink:href="#DejaVuSans-30"/>
       <use x="127.246094" xlink:href="#DejaVuSans-30"/>
      </g>
     </g>
    </g>
   </g>
   <g id="matplotlib.axis_4">
    <g id="ytick_6">
     <g id="line2d_29">
      <g>
       <use style="stroke:#000000;stroke-width:0.8;" x="48.982813" xlink:href="#m461d14deae" y="640.167767"/>
      </g>
     </g>
     <g id="text_25">
      <!-- −20 -->
      <defs>
       <path d="M 10.59375 35.5 
L 73.1875 35.5 
L 73.1875 27.203125 
L 10.59375 27.203125 
z
" id="DejaVuSans-2212"/>
      </defs>
      <g transform="translate(20.878125 643.966985)scale(0.1 -0.1)">
       <use xlink:href="#DejaVuSans-2212"/>
       <use x="83.789062" xlink:href="#DejaVuSans-32"/>
       <use x="147.412109" xlink:href="#DejaVuSans-30"/>
      </g>
     </g>
    </g>
    <g id="ytick_7">
     <g id="line2d_30">
      <g>
       <use style="stroke:#000000;stroke-width:0.8;" x="48.982813" xlink:href="#m461d14deae" y="598.9952"/>
      </g>
     </g>
     <g id="text_26">
      <!-- 0 -->
      <g transform="translate(35.620313 602.794419)scale(0.1 -0.1)">
       <use xlink:href="#DejaVuSans-30"/>
      </g>
     </g>
    </g>
    <g id="ytick_8">
     <g id="line2d_31">
      <g>
       <use style="stroke:#000000;stroke-width:0.8;" x="48.982813" xlink:href="#m461d14deae" y="557.822633"/>
      </g>
     </g>
     <g id="text_27">
      <!-- 20 -->
      <g transform="translate(29.257813 561.621852)scale(0.1 -0.1)">
       <use xlink:href="#DejaVuSans-32"/>
       <use x="63.623047" xlink:href="#DejaVuSans-30"/>
      </g>
     </g>
    </g>
    <g id="ytick_9">
     <g id="line2d_32">
      <g>
       <use style="stroke:#000000;stroke-width:0.8;" x="48.982813" xlink:href="#m461d14deae" y="516.650066"/>
      </g>
     </g>
     <g id="text_28">
      <!-- 40 -->
      <defs>
       <path d="M 37.796875 64.3125 
L 12.890625 25.390625 
L 37.796875 25.390625 
z
M 35.203125 72.90625 
L 47.609375 72.90625 
L 47.609375 25.390625 
L 58.015625 25.390625 
L 58.015625 17.1875 
L 47.609375 17.1875 
L 47.609375 0 
L 37.796875 0 
L 37.796875 17.1875 
L 4.890625 17.1875 
L 4.890625 26.703125 
z
" id="DejaVuSans-34"/>
      </defs>
      <g transform="translate(29.257813 520.449285)scale(0.1 -0.1)">
       <use xlink:href="#DejaVuSans-34"/>
       <use x="63.623047" xlink:href="#DejaVuSans-30"/>
      </g>
     </g>
    </g>
    <g id="text_29">
     <!-- Temperature -->
     <defs>
      <path d="M 18.109375 8.203125 
L 18.109375 -20.796875 
L 9.078125 -20.796875 
L 9.078125 54.6875 
L 18.109375 54.6875 
L 18.109375 46.390625 
Q 20.953125 51.265625 25.265625 53.625 
Q 29.59375 56 35.59375 56 
Q 45.5625 56 51.78125 48.09375 
Q 58.015625 40.1875 58.015625 27.296875 
Q 58.015625 14.40625 51.78125 6.484375 
Q 45.5625 -1.421875 35.59375 -1.421875 
Q 29.59375 -1.421875 25.265625 0.953125 
Q 20.953125 3.328125 18.109375 8.203125 
z
M 48.6875 27.296875 
Q 48.6875 37.203125 44.609375 42.84375 
Q 40.53125 48.484375 33.40625 48.484375 
Q 26.265625 48.484375 22.1875 42.84375 
Q 18.109375 37.203125 18.109375 27.296875 
Q 18.109375 17.390625 22.1875 11.75 
Q 26.265625 6.109375 33.40625 6.109375 
Q 40.53125 6.109375 44.609375 11.75 
Q 48.6875 17.390625 48.6875 27.296875 
z
" id="DejaVuSans-70"/>
     </defs>
     <g style="fill:#0000ff;" transform="translate(14.798438 613.557187)rotate(-90)scale(0.1 -0.1)">
      <use xlink:href="#DejaVuSans-54"/>
      <use x="60.818359" xlink:href="#DejaVuSans-65"/>
      <use x="122.341797" xlink:href="#DejaVuSans-6d"/>
      <use x="219.753906" xlink:href="#DejaVuSans-70"/>
      <use x="283.230469" xlink:href="#DejaVuSans-65"/>
      <use x="344.753906" xlink:href="#DejaVuSans-72"/>
      <use x="385.867188" xlink:href="#DejaVuSans-61"/>
      <use x="447.146484" xlink:href="#DejaVuSans-74"/>
      <use x="486.355469" xlink:href="#DejaVuSans-75"/>
      <use x="549.734375" xlink:href="#DejaVuSans-72"/>
      <use x="590.816406" xlink:href="#DejaVuSans-65"/>
     </g>
    </g>
   </g>
   <g id="line2d_33">
    <path clip-path="url(#p43c578f0ac)" d="M 99.77554 528.408334 
L 104.755219 523.931846 
L 109.734898 539.793784 
L 114.714577 551.126327 
L 119.694256 578.250196 
L 124.673935 582.219355 
L 129.653615 586.757972 
L 134.633294 581.365663 
L 139.612973 567.936674 
L 144.592652 543.9658 
L 149.572331 536.961729 
L 154.55201 528.965605 
L 159.53169 524.523702 
L 164.511369 525.211696 
L 169.491048 538.656186 
L 174.470727 563.208005 
L 179.450406 576.939056 
L 184.430085 584.322141 
L 189.409764 593.199749 
L 194.389444 581.389399 
L 199.369123 562.668644 
L 204.348802 548.076675 
L 209.328481 531.375435 
L 214.30816 525.132439 
L 219.287839 527.589206 
L 224.267518 529.762294 
L 229.247198 542.352247 
L 234.226877 559.463154 
L 239.206556 570.558749 
L 244.186235 584.984381 
L 249.165914 583.323892 
L 254.145593 579.331491 
L 259.125272 563.393076 
L 264.104952 558.297559 
L 269.084631 544.547568 
L 274.06431 531.805894 
L 279.043989 525.294247 
L 284.023668 526.530659 
L 289.003347 536.25706 
L 293.983026 549.415813 
L 298.962706 568.098894 
L 303.942385 597.426113 
L 308.922064 585.725282 
L 313.901743 583.315348 
L 318.881422 575.188604 
L 323.861101 560.026806 
L 328.84078 546.132918 
L 333.82046 534.112793 
L 338.800139 525.924599 
L 343.779818 527.042434 
L 348.759497 539.506811 
L 353.739176 550.064075 
L 358.718855 574.786142 
L 363.698534 586.402776 
L 368.678214 584.448726 
L 373.657893 574.008804 
L 378.637572 566.586832 
L 383.617251 556.392092 
L 388.59693 537.324665 
L 393.576609 526.671057 
L 398.556288 527.800627 
L 403.535968 528.328047 
L 408.515647 537.837881 
L 413.495326 556.847667 
L 418.475005 567.440339 
L 423.454684 586.678241 
L 428.434363 592.084199 
L 433.414042 592.979208 
L 438.393722 564.012311 
L 443.373401 552.130526 
L 448.35308 540.827009 
L 453.332759 527.17748 
L 458.312438 522.999082 
L 463.292117 530.917802 
L 468.271796 534.621892 
L 473.251476 553.170133 
L 478.231155 572.432307 
L 483.210834 583.026955 
L 488.190513 602.799092 
L 493.170192 576.902824 
L 498.149871 566.293683 
L 503.12955 550.27879 
L 508.10923 536.574707 
L 513.088909 526.689585 
L 518.068588 526.692673 
L 523.048267 524.788236 
L 528.027946 541.448715 
L 533.007625 551.407124 
L 537.987304 572.512799 
L 542.966984 592.370904 
L 547.946663 584.778313 
L 552.926342 580.967606 
L 557.906021 571.57427 
L 562.8857 550.352077 
L 567.865379 539.175578 
L 572.845058 527.523947 
L 577.824738 525.477259 
L 582.804417 526.583566 
L 587.784096 538.067212 
L 592.763775 556.841491 
L 597.743454 569.811879 
L 602.723133 591.018365 
L 607.702813 609.927072 
L 612.682492 592.998951 
L 617.662171 555.052749 
L 622.64185 548.917007 
L 627.621529 535.208601 
L 632.601208 525.800463 
L 637.580887 522.681436 
L 642.560567 524.636927 
L 652.519925 557.104789 
L 662.479283 586.947036 
L 667.458962 588.660371 
L 672.438641 579.302938 
L 677.418321 564.993041 
L 682.398 561.651476 
L 687.377679 540.861594 
L 692.357358 530.756199 
L 697.337037 524.729771 
L 702.316716 529.695182 
L 707.296395 540.741576 
L 712.276075 552.496138 
L 717.255754 572.933171 
L 722.235433 584.299167 
L 727.215112 584.863396 
L 732.194791 589.202552 
L 737.17447 566.324562 
L 742.154149 550.755774 
L 747.133829 540.309676 
L 752.113508 527.038111 
L 757.093187 524.882315 
L 762.072866 525.724912 
L 767.052545 539.776079 
L 772.032224 550.732305 
L 777.011903 566.263421 
L 781.991583 579.711122 
L 786.971262 590.148533 
L 791.950941 588.964574 
L 796.93062 569.016219 
L 801.910299 548.254952 
L 806.889978 535.693408 
L 811.869657 527.295028 
L 816.849337 523.608848 
L 821.829016 526.075496 
L 826.808695 538.127942 
L 831.788374 555.647692 
L 836.768053 582.969293 
L 841.747732 595.17628 
L 846.727411 594.798645 
L 851.707091 595.132472 
L 856.68677 574.418883 
L 861.666449 543.567044 
L 866.646128 538.168085 
L 871.625807 527.469393 
L 876.605486 523.756863 
L 881.585165 524.511556 
L 886.564845 539.377735 
L 891.544524 552.272365 
L 896.524203 573.928106 
L 901.503882 591.893179 
L 906.483561 585.846576 
L 911.46324 580.585792 
L 916.442919 565.392621 
L 921.422599 554.41128 
L 926.402278 537.913638 
L 931.381957 527.588382 
L 936.361636 524.039924 
L 941.341315 529.820759 
L 946.320994 533.960454 
L 951.300673 554.897528 
L 956.280353 568.725746 
L 961.260032 588.993436 
L 966.239711 590.262231 
L 971.21939 597.421208 
L 976.199069 569.631131 
L 981.178748 557.342561 
L 986.158427 533.038807 
L 991.138107 525.788318 
L 996.117786 527.056227 
L 1001.097465 524.465443 
L 1006.077144 538.635805 
L 1011.056823 560.215789 
L 1016.036502 581.13909 
L 1021.016181 585.244715 
L 1025.995861 588.582658 
L 1030.97554 581.404797 
L 1035.955219 573.509587 
L 1040.934898 550.747127 
L 1045.914577 537.84591 
L 1050.894256 524.186293 
L 1055.873935 522.030909 
L 1060.853615 528.726186 
L 1065.833294 540.181218 
L 1070.812973 557.769726 
L 1075.792652 577.508267 
L 1080.772331 582.326651 
L 1085.75201 581.256082 
L 1090.73169 573.272845 
L 1095.711369 561.775611 
L 1100.691048 553.265859 
L 1105.670727 538.205552 
L 1110.650406 527.426574 
L 1115.630085 524.325456 
L 1115.630085 524.325456 
" style="fill:none;stroke:#ff0000;stroke-linecap:square;stroke-width:1.5;"/>
   </g>
   <g id="line2d_34">
    <path clip-path="url(#p43c578f0ac)" d="M 99.77554 542.776942 
L 104.755219 541.439039 
L 109.734898 556.257664 
L 114.714577 567.254033 
L 119.694256 588.525119 
L 129.653615 597.063716 
L 134.633294 593.546937 
L 139.612973 582.057938 
L 144.592652 559.498357 
L 149.572331 552.42491 
L 154.55201 544.827542 
L 159.53169 540.316469 
L 164.511369 542.044482 
L 169.491048 555.856231 
L 174.470727 576.27206 
L 179.450406 589.108596 
L 184.430085 592.59266 
L 189.409764 602.80253 
L 194.389444 592.778451 
L 199.369123 576.76222 
L 204.348802 562.951911 
L 209.328481 547.208345 
L 214.30816 541.38181 
L 219.287839 542.463825 
L 224.267518 545.552591 
L 229.247198 559.020549 
L 234.226877 573.139446 
L 239.206556 581.483972 
L 244.186235 594.886281 
L 249.165914 592.569706 
L 254.145593 589.061083 
L 259.125272 576.493157 
L 264.104952 569.530464 
L 274.06431 546.544644 
L 279.043989 541.02752 
L 284.023668 543.176316 
L 293.983026 566.117876 
L 298.962706 581.576425 
L 303.942385 606.302033 
L 308.922064 594.736865 
L 313.901743 593.472991 
L 318.881422 585.902756 
L 323.861101 571.435519 
L 328.84078 559.240822 
L 333.82046 548.281302 
L 338.800139 541.194269 
L 343.779818 543.709912 
L 348.759497 555.553819 
L 353.739176 566.789401 
L 358.718855 584.468551 
L 363.698534 595.993946 
L 368.678214 592.492322 
L 373.657893 585.95943 
L 378.637572 578.627749 
L 383.617251 569.383272 
L 388.59693 552.487286 
L 393.576609 542.902107 
L 398.556288 542.378186 
L 403.535968 544.18422 
L 408.515647 554.57597 
L 413.495326 572.684283 
L 418.475005 578.639195 
L 423.454684 594.976469 
L 428.434363 598.826 
L 433.414042 602.173043 
L 438.393722 575.822662 
L 443.373401 565.834609 
L 448.35308 554.584822 
L 453.332759 541.977165 
L 458.312438 538.984537 
L 463.292117 545.648523 
L 468.271796 552.125585 
L 473.251476 569.315749 
L 478.231155 584.78842 
L 483.210834 592.658289 
L 488.190513 611.315617 
L 493.170192 587.974436 
L 498.149871 577.903935 
L 508.10923 551.347424 
L 513.088909 542.179322 
L 518.068588 541.877939 
L 523.048267 542.256315 
L 528.027946 557.55357 
L 533.007625 565.792407 
L 537.987304 584.041921 
L 542.966984 600.90832 
L 547.946663 595.759715 
L 552.926342 591.342105 
L 557.906021 583.619017 
L 562.8857 562.655263 
L 567.865379 553.618502 
L 572.845058 542.663717 
L 577.824738 540.207774 
L 582.804417 544.000797 
L 587.784096 555.684336 
L 592.763775 574.533137 
L 597.743454 583.019956 
L 602.723133 598.889555 
L 607.702813 619.716941 
L 612.682492 603.298104 
L 617.662171 570.107909 
L 622.64185 563.324729 
L 627.621529 549.919559 
L 632.601208 541.368634 
L 637.580887 538.478114 
L 642.560567 541.916435 
L 647.540246 557.241894 
L 652.519925 570.781081 
L 657.499604 584.863993 
L 662.479283 596.246066 
L 667.458962 597.875392 
L 672.438641 588.947364 
L 677.418321 577.526382 
L 682.398 572.95561 
L 687.377679 554.686313 
L 692.357358 545.419809 
L 697.337037 540.098872 
L 702.316716 545.031552 
L 707.296395 556.131882 
L 712.276075 570.081765 
L 717.255754 584.648454 
L 722.235433 593.080596 
L 727.215112 594.593688 
L 732.194791 598.01554 
L 737.17447 577.653194 
L 742.154149 563.694253 
L 747.133829 553.527923 
L 752.113508 541.845207 
L 757.093187 539.894862 
L 762.072866 542.519819 
L 767.052545 556.319011 
L 772.032224 566.383851 
L 777.011903 581.320723 
L 781.991583 593.893013 
L 786.971262 600.768914 
L 791.950941 597.897786 
L 796.93062 582.164266 
L 801.910299 562.694789 
L 806.889978 550.158977 
L 811.869657 542.02019 
L 816.849337 539.338827 
L 821.829016 541.766156 
L 826.808695 554.805713 
L 831.788374 569.504525 
L 836.768053 591.556861 
L 841.747732 602.879502 
L 846.727411 603.866079 
L 851.707091 604.647205 
L 856.68677 585.172993 
L 861.666449 558.143162 
L 866.646128 551.719418 
L 871.625807 542.075773 
L 876.605486 538.955922 
L 881.585165 541.323962 
L 886.564845 556.190141 
L 891.544524 568.559409 
L 896.524203 586.544019 
L 901.503882 602.811732 
L 906.483561 595.806302 
L 911.46324 590.82154 
L 916.442919 577.442185 
L 921.422599 567.738428 
L 926.402278 553.053821 
L 931.381957 542.910341 
L 936.361636 539.442582 
L 941.341315 544.623532 
L 946.320994 551.983951 
L 951.300673 570.435643 
L 956.280353 582.923735 
L 961.260032 596.941942 
L 966.239711 599.651544 
L 971.21939 608.939239 
L 976.199069 581.677936 
L 981.178748 570.442642 
L 986.158427 548.653708 
L 991.138107 540.998287 
L 996.117786 542.664747 
L 1001.097465 541.875263 
L 1006.077144 555.258611 
L 1011.056823 574.46829 
L 1016.036502 591.20078 
L 1021.016181 596.914997 
L 1025.995861 597.077135 
L 1030.97554 590.04486 
L 1035.955219 584.612387 
L 1040.934898 564.572875 
L 1045.914577 551.909841 
L 1050.894256 540.322439 
L 1055.873935 537.271758 
L 1060.853615 544.73408 
L 1065.833294 556.418854 
L 1070.812973 571.822541 
L 1075.792652 586.427727 
L 1080.772331 591.584735 
L 1085.75201 590.706647 
L 1090.73169 587.021023 
L 1095.711369 573.725125 
L 1100.691048 565.93404 
L 1105.670727 551.718182 
L 1110.650406 541.886997 
L 1115.630085 538.880576 
L 1115.630085 538.880576 
" style="fill:none;stroke:#008000;stroke-linecap:square;stroke-width:1.5;"/>
   </g>
   <g id="line2d_35">
    <path clip-path="url(#p43c578f0ac)" d="M 99.77554 557.833338 
L 104.755219 558.661936 
L 109.734898 571.951823 
L 114.714577 581.830069 
L 119.694256 597.751397 
L 124.673935 602.148916 
L 129.653615 605.990028 
L 134.633294 604.181255 
L 139.612973 595.550929 
L 144.592652 575.266832 
L 149.572331 569.012719 
L 154.55201 562.299532 
L 159.53169 557.206074 
L 164.511369 559.87385 
L 169.491048 572.504565 
L 174.470727 588.528578 
L 179.450406 599.639159 
L 184.430085 600.080391 
L 189.409764 611.711038 
L 194.389444 603.756498 
L 199.369123 589.871256 
L 204.348802 577.972076 
L 209.328481 564.462121 
L 214.30816 559.495063 
L 219.287839 558.980612 
L 224.267518 562.275034 
L 229.247198 575.746904 
L 234.226877 586.581239 
L 239.206556 591.218464 
L 244.186235 603.875487 
L 254.145593 598.100417 
L 264.104952 580.244554 
L 269.084631 572.227679 
L 274.06431 562.878007 
L 279.043989 558.517626 
L 284.023668 560.142707 
L 289.003347 572.358814 
L 293.983026 581.593614 
L 298.962706 594.098135 
L 303.942385 615.421654 
L 308.922064 603.074001 
L 313.901743 602.794234 
L 318.881422 596.069889 
L 323.861101 583.02502 
L 328.84078 572.82427 
L 333.82046 563.722044 
L 338.800139 557.539366 
L 343.779818 560.812379 
L 358.718855 593.072629 
L 363.698534 604.523152 
L 368.678214 599.664038 
L 373.657893 596.867875 
L 378.637572 590.692134 
L 383.617251 582.609486 
L 388.59693 568.888996 
L 393.576609 561.450966 
L 398.556288 557.7337 
L 403.535968 560.840788 
L 408.515647 571.51457 
L 413.495326 587.622308 
L 418.475005 588.947138 
L 423.454684 602.643377 
L 428.434363 605.548596 
L 433.414042 610.939464 
L 438.393722 587.47736 
L 443.373401 580.092524 
L 448.35308 569.652953 
L 453.332759 558.483453 
L 458.312438 556.07424 
L 463.292117 562.179308 
L 468.271796 569.945895 
L 473.251476 584.775595 
L 478.231155 595.95685 
L 483.210834 601.282686 
L 488.190513 619.786111 
L 493.170192 598.079289 
L 498.149871 589.013899 
L 503.12955 579.509439 
L 508.10923 567.274413 
L 513.088909 560.100094 
L 518.068588 558.4149 
L 523.048267 560.223405 
L 528.027946 573.609019 
L 533.007625 579.29145 
L 542.966984 608.609591 
L 547.946663 604.959437 
L 552.926342 600.494861 
L 557.906021 595.129281 
L 562.8857 575.074968 
L 567.865379 569.892371 
L 572.845058 560.23411 
L 577.824738 556.888839 
L 582.804417 561.711588 
L 587.784096 572.714339 
L 592.763775 590.716138 
L 597.743454 595.358159 
L 602.723133 605.913961 
L 607.702813 629.555949 
L 612.682492 613.302379 
L 617.662171 584.503342 
L 622.64185 578.107739 
L 627.621529 565.79673 
L 632.601208 559.212825 
L 637.580887 556.129823 
L 642.560567 559.510708 
L 647.540246 573.415713 
L 652.519925 584.028292 
L 657.499604 595.812293 
L 662.479283 605.163653 
L 667.458962 606.498118 
L 677.418321 589.221944 
L 682.398 584.694341 
L 687.377679 569.672098 
L 692.357358 562.22748 
L 697.337037 558.599971 
L 702.316716 561.533517 
L 707.296395 571.55389 
L 712.276075 586.371856 
L 717.255754 595.190258 
L 722.235433 600.971998 
L 727.215112 603.449825 
L 732.194791 606.343268 
L 737.17447 589.163026 
L 742.154149 576.825008 
L 747.133829 568.105893 
L 752.113508 559.088072 
L 757.093187 557.577656 
L 762.072866 560.399624 
L 767.052545 573.095597 
L 772.032224 581.488027 
L 777.011903 594.068573 
L 781.991583 605.672567 
L 786.971262 609.884603 
L 791.950941 607.078692 
L 796.93062 595.336523 
L 801.910299 577.86935 
L 806.889978 566.256216 
L 811.869657 559.024872 
L 816.849337 557.673383 
L 821.829016 559.327902 
L 826.808695 571.55142 
L 831.788374 582.122332 
L 836.768053 600.02846 
L 841.747732 610.351623 
L 846.727411 611.584577 
L 851.707091 613.670502 
L 856.68677 595.842205 
L 861.666449 573.136975 
L 866.646128 567.010497 
L 871.625807 559.095483 
L 876.605486 556.085974 
L 881.585165 559.409218 
L 886.564845 573.169707 
L 891.544524 584.054828 
L 896.524203 597.889634 
L 901.503882 612.85051 
L 906.483561 605.142511 
L 911.46324 599.982024 
L 916.442919 589.238825 
L 921.422599 581.278891 
L 926.402278 570.015889 
L 931.381957 559.767625 
L 936.361636 556.694299 
L 941.341315 560.510996 
L 946.320994 569.512142 
L 951.300673 584.515755 
L 956.280353 595.330924 
L 961.260032 604.275232 
L 966.239711 608.461946 
L 971.21939 619.885543 
L 976.199069 593.256094 
L 981.178748 584.4745 
L 986.158427 565.630393 
L 991.138107 558.707432 
L 996.117786 558.74284 
L 1001.097465 560.647071 
L 1006.077144 571.914973 
L 1011.056823 587.521394 
L 1016.036502 599.776793 
L 1021.016181 606.964974 
L 1025.995861 604.725433 
L 1030.97554 597.987954 
L 1035.955219 595.411704 
L 1040.934898 579.032681 
L 1045.914577 567.163453 
L 1050.894256 558.79307 
L 1055.873935 554.214887 
L 1060.853615 561.827077 
L 1065.833294 572.641257 
L 1070.812973 584.634661 
L 1075.792652 594.451087 
L 1080.772331 600.055995 
L 1085.75201 598.810438 
L 1090.73169 598.544704 
L 1095.711369 584.952617 
L 1100.691048 578.523767 
L 1105.670727 566.046236 
L 1110.650406 557.825927 
L 1115.630085 554.995519 
L 1115.630085 554.995519 
" style="fill:none;stroke:#0000ff;stroke-linecap:square;stroke-width:1.5;"/>
   </g>
   <g id="line2d_36">
    <defs>
     <path d="M 0 3 
C 0.795609 3 1.55874 2.683901 2.12132 2.12132 
C 2.683901 1.55874 3 0.795609 3 0 
C 3 -0.795609 2.683901 -1.55874 2.12132 -2.12132 
C 1.55874 -2.683901 0.795609 -3 0 -3 
C -0.795609 -3 -1.55874 -2.683901 -2.12132 -2.12132 
C -2.683901 -1.55874 -3 -0.795609 -3 0 
C -3 0.795609 -2.683901 1.55874 -2.12132 2.12132 
C -1.55874 2.683901 -0.795609 3 0 3 
z
" id="ma336cfb5a7" style="stroke:#ff0000;"/>
    </defs>
    <g clip-path="url(#p43c578f0ac)">
     <use style="fill:#ff0000;stroke:#ff0000;" x="119.694256" xlink:href="#ma336cfb5a7" y="639.849091"/>
     <use style="fill:#ff0000;stroke:#ff0000;" x="164.511369" xlink:href="#ma336cfb5a7" y="639.849091"/>
     <use style="fill:#ff0000;stroke:#ff0000;" x="169.491048" xlink:href="#ma336cfb5a7" y="639.849091"/>
     <use style="fill:#ff0000;stroke:#ff0000;" x="174.470727" xlink:href="#ma336cfb5a7" y="639.849091"/>
     <use style="fill:#ff0000;stroke:#ff0000;" x="179.450406" xlink:href="#ma336cfb5a7" y="639.849091"/>
     <use style="fill:#ff0000;stroke:#ff0000;" x="184.430085" xlink:href="#ma336cfb5a7" y="639.849091"/>
     <use style="fill:#ff0000;stroke:#ff0000;" x="189.409764" xlink:href="#ma336cfb5a7" y="639.849091"/>
     <use style="fill:#ff0000;stroke:#ff0000;" x="194.389444" xlink:href="#ma336cfb5a7" y="639.849091"/>
     <use style="fill:#ff0000;stroke:#ff0000;" x="199.369123" xlink:href="#ma336cfb5a7" y="639.849091"/>
     <use style="fill:#ff0000;stroke:#ff0000;" x="204.348802" xlink:href="#ma336cfb5a7" y="639.849091"/>
     <use style="fill:#ff0000;stroke:#ff0000;" x="209.328481" xlink:href="#ma336cfb5a7" y="639.849091"/>
     <use style="fill:#ff0000;stroke:#ff0000;" x="214.30816" xlink:href="#ma336cfb5a7" y="639.849091"/>
     <use style="fill:#ff0000;stroke:#ff0000;" x="219.287839" xlink:href="#ma336cfb5a7" y="639.849091"/>
     <use style="fill:#ff0000;stroke:#ff0000;" x="224.267518" xlink:href="#ma336cfb5a7" y="639.849091"/>
     <use style="fill:#ff0000;stroke:#ff0000;" x="433.414042" xlink:href="#ma336cfb5a7" y="639.849091"/>
     <use style="fill:#ff0000;stroke:#ff0000;" x="438.393722" xlink:href="#ma336cfb5a7" y="639.849091"/>
     <use style="fill:#ff0000;stroke:#ff0000;" x="816.849337" xlink:href="#ma336cfb5a7" y="639.849091"/>
    </g>
   </g>
   <g id="patch_9">
    <path d="M 48.982813 645.74 
L 48.982813 516.14 
" style="fill:none;stroke:#000000;stroke-linecap:square;stroke-linejoin:miter;stroke-width:0.8;"/>
   </g>
   <g id="patch_10">
    <path d="M 1166.422812 645.74 
L 1166.422812 516.14 
" style="fill:none;stroke:#000000;stroke-linecap:square;stroke-linejoin:miter;stroke-width:0.8;"/>
   </g>
   <g id="patch_11">
    <path d="M 48.982813 645.74 
L 1166.422813 645.74 
" style="fill:none;stroke:#000000;stroke-linecap:square;stroke-linejoin:miter;stroke-width:0.8;"/>
   </g>
   <g id="patch_12">
    <path d="M 48.982813 516.14 
L 1166.422813 516.14 
" style="fill:none;stroke:#000000;stroke-linecap:square;stroke-linejoin:miter;stroke-width:0.8;"/>
   </g>
   <g id="legend_2">
    <g id="patch_13">
     <path d="M 55.982813 582.8525 
L 146.995313 582.8525 
Q 148.995313 582.8525 148.995313 580.8525 
L 148.995313 523.14 
Q 148.995313 521.14 146.995313 521.14 
L 55.982813 521.14 
Q 53.982813 521.14 53.982813 523.14 
L 53.982813 580.8525 
Q 53.982813 582.8525 55.982813 582.8525 
z
" style="fill:#ffffff;opacity:0.8;stroke:#cccccc;stroke-linejoin:miter;"/>
    </g>
    <g id="line2d_37">
     <path d="M 57.982813 529.238437 
L 77.982813 529.238437 
" style="fill:none;stroke:#ff0000;stroke-linecap:square;stroke-width:1.5;"/>
    </g>
    <g id="line2d_38"/>
    <g id="text_30">
     <!-- Maxmimum -->
     <defs>
      <path d="M 9.8125 72.90625 
L 24.515625 72.90625 
L 43.109375 23.296875 
L 61.8125 72.90625 
L 76.515625 72.90625 
L 76.515625 0 
L 66.890625 0 
L 66.890625 64.015625 
L 48.09375 14.015625 
L 38.1875 14.015625 
L 19.390625 64.015625 
L 19.390625 0 
L 9.8125 0 
z
" id="DejaVuSans-4d"/>
      <path d="M 54.890625 54.6875 
L 35.109375 28.078125 
L 55.90625 0 
L 45.3125 0 
L 29.390625 21.484375 
L 13.484375 0 
L 2.875 0 
L 24.125 28.609375 
L 4.6875 54.6875 
L 15.28125 54.6875 
L 29.78125 35.203125 
L 44.28125 54.6875 
z
" id="DejaVuSans-78"/>
     </defs>
     <g transform="translate(85.982813 532.738437)scale(0.1 -0.1)">
      <use xlink:href="#DejaVuSans-4d"/>
      <use x="86.279297" xlink:href="#DejaVuSans-61"/>
      <use x="147.558594" xlink:href="#DejaVuSans-78"/>
      <use x="206.738281" xlink:href="#DejaVuSans-6d"/>
      <use x="304.150391" xlink:href="#DejaVuSans-69"/>
      <use x="331.933594" xlink:href="#DejaVuSans-6d"/>
      <use x="429.345703" xlink:href="#DejaVuSans-75"/>
      <use x="492.724609" xlink:href="#DejaVuSans-6d"/>
     </g>
    </g>
    <g id="line2d_39">
     <path d="M 57.982813 543.916562 
L 77.982813 543.916562 
" style="fill:none;stroke:#008000;stroke-linecap:square;stroke-width:1.5;"/>
    </g>
    <g id="line2d_40"/>
    <g id="text_31">
     <!-- Average -->
     <defs>
      <path d="M 34.1875 63.1875 
L 20.796875 26.90625 
L 47.609375 26.90625 
z
M 28.609375 72.90625 
L 39.796875 72.90625 
L 67.578125 0 
L 57.328125 0 
L 50.6875 18.703125 
L 17.828125 18.703125 
L 11.1875 0 
L 0.78125 0 
z
" id="DejaVuSans-41"/>
      <path d="M 2.984375 54.6875 
L 12.5 54.6875 
L 29.59375 8.796875 
L 46.6875 54.6875 
L 56.203125 54.6875 
L 35.6875 0 
L 23.484375 0 
z
" id="DejaVuSans-76"/>
     </defs>
     <g transform="translate(85.982813 547.416562)scale(0.1 -0.1)">
      <use xlink:href="#DejaVuSans-41"/>
      <use x="68.330078" xlink:href="#DejaVuSans-76"/>
      <use x="127.509766" xlink:href="#DejaVuSans-65"/>
      <use x="189.033203" xlink:href="#DejaVuSans-72"/>
      <use x="230.146484" xlink:href="#DejaVuSans-61"/>
      <use x="291.425781" xlink:href="#DejaVuSans-67"/>
      <use x="354.902344" xlink:href="#DejaVuSans-65"/>
     </g>
    </g>
    <g id="line2d_41">
     <path d="M 57.982813 558.594687 
L 77.982813 558.594687 
" style="fill:none;stroke:#0000ff;stroke-linecap:square;stroke-width:1.5;"/>
    </g>
    <g id="line2d_42"/>
    <g id="text_32">
     <!-- Minimum -->
     <g transform="translate(85.982813 562.094687)scale(0.1 -0.1)">
      <use xlink:href="#DejaVuSans-4d"/>
      <use x="86.279297" xlink:href="#DejaVuSans-69"/>
      <use x="114.0625" xlink:href="#DejaVuSans-6e"/>
      <use x="177.441406" xlink:href="#DejaVuSans-69"/>
      <use x="205.224609" xlink:href="#DejaVuSans-6d"/>
      <use x="302.636719" xlink:href="#DejaVuSans-75"/>
      <use x="366.015625" xlink:href="#DejaVuSans-6d"/>
     </g>
    </g>
    <g id="line2d_43"/>
    <g id="line2d_44">
     <g>
      <use style="fill:#ff0000;stroke:#ff0000;" x="67.982813" xlink:href="#ma336cfb5a7" y="573.272812"/>
     </g>
    </g>
    <g id="text_33">
     <!-- Disasters -->
     <g transform="translate(85.982813 576.772812)scale(0.1 -0.1)">
      <use xlink:href="#DejaVuSans-44"/>
      <use x="77.001953" xlink:href="#DejaVuSans-69"/>
      <use x="104.785156" xlink:href="#DejaVuSans-73"/>
      <use x="156.884766" xlink:href="#DejaVuSans-61"/>
      <use x="218.164062" xlink:href="#DejaVuSans-73"/>
      <use x="270.263672" xlink:href="#DejaVuSans-74"/>
      <use x="309.472656" xlink:href="#DejaVuSans-65"/>
      <use x="370.996094" xlink:href="#DejaVuSans-72"/>
      <use x="412.109375" xlink:href="#DejaVuSans-73"/>
     </g>
    </g>
   </g>
  </g>
 </g>
 <defs>
  <clipPath id="p9417a95bb3">
   <rect height="498.96" width="1116" x="48.982813" y="10.7"/>
  </clipPath>
  <clipPath id="p43c578f0ac">
   <rect height="129.6" width="1117.44" x="48.982813" y="516.14"/>
  </clipPath>
 </defs>
</svg>
