<?xml version="1.0" encoding="utf-8" standalone="no"?>
<!DOCTYPE svg PUBLIC "-//W3C//DTD SVG 1.1//EN"
  "http://www.w3.org/Graphics/SVG/1.1/DTD/svg11.dtd">
<!-- Created with matplotlib (http://matplotlib.org/) -->
<svg height="669pt" version="1.1" viewBox="0 0 1186 669" width="1186pt" xmlns="http://www.w3.org/2000/svg" xmlns:xlink="http://www.w3.org/1999/xlink">
 <defs>
  <style type="text/css">
*{stroke-linecap:butt;stroke-linejoin:round;}
  </style>
 </defs>
 <g id="figure_1">
  <g id="patch_1">
   <path d="M 0 669.618125 
L 1186.663437 669.618125 
L 1186.663437 -0 
L 0 -0 
z
" style="fill:none;"/>
  </g>
  <g id="axes_1">
   <g id="patch_2">
    <path d="M 58.523438 509.66 
L 1174.523438 509.66 
L 1174.523438 10.7 
L 58.523438 10.7 
z
" style="fill:none;"/>
   </g>
   <g id="matplotlib.axis_1">
    <g id="xtick_1">
     <g id="line2d_1">
      <defs>
       <path d="M 0 0 
L 0 3.5 
" id="ma4d0eae6eb" style="stroke:#000000;stroke-width:0.8;"/>
      </defs>
      <g>
       <use style="stroke:#000000;stroke-width:0.8;" x="109.25071" xlink:href="#ma4d0eae6eb" y="509.66"/>
      </g>
     </g>
     <g id="text_1">
      <!-- 0 -->
      <defs>
       <path d="M 31.78125 66.40625 
Q 24.171875 66.40625 20.328125 58.90625 
Q 16.5 51.421875 16.5 36.375 
Q 16.5 21.390625 20.328125 13.890625 
Q 24.171875 6.390625 31.78125 6.390625 
Q 39.453125 6.390625 43.28125 13.890625 
Q 47.125 21.390625 47.125 36.375 
Q 47.125 51.421875 43.28125 58.90625 
Q 39.453125 66.40625 31.78125 66.40625 
z
M 31.78125 74.21875 
Q 44.046875 74.21875 50.515625 64.515625 
Q 56.984375 54.828125 56.984375 36.375 
Q 56.984375 17.96875 50.515625 8.265625 
Q 44.046875 -1.421875 31.78125 -1.421875 
Q 19.53125 -1.421875 13.0625 8.265625 
Q 6.59375 17.96875 6.59375 36.375 
Q 6.59375 54.828125 13.0625 64.515625 
Q 19.53125 74.21875 31.78125 74.21875 
z
" id="DejaVuSans-30"/>
      </defs>
      <g transform="translate(106.06946 524.258437)scale(0.1 -0.1)">
       <use xlink:href="#DejaVuSans-30"/>
      </g>
     </g>
    </g>
    <g id="xtick_2">
     <g id="line2d_2">
      <g>
       <use style="stroke:#000000;stroke-width:0.8;" x="351.964934" xlink:href="#ma4d0eae6eb" y="509.66"/>
      </g>
     </g>
     <g id="text_2">
      <!-- 50 -->
      <defs>
       <path d="M 10.796875 72.90625 
L 49.515625 72.90625 
L 49.515625 64.59375 
L 19.828125 64.59375 
L 19.828125 46.734375 
Q 21.96875 47.46875 24.109375 47.828125 
Q 26.265625 48.1875 28.421875 48.1875 
Q 40.625 48.1875 47.75 41.5 
Q 54.890625 34.8125 54.890625 23.390625 
Q 54.890625 11.625 47.5625 5.09375 
Q 40.234375 -1.421875 26.90625 -1.421875 
Q 22.3125 -1.421875 17.546875 -0.640625 
Q 12.796875 0.140625 7.71875 1.703125 
L 7.71875 11.625 
Q 12.109375 9.234375 16.796875 8.0625 
Q 21.484375 6.890625 26.703125 6.890625 
Q 35.15625 6.890625 40.078125 11.328125 
Q 45.015625 15.765625 45.015625 23.390625 
Q 45.015625 31 40.078125 35.4375 
Q 35.15625 39.890625 26.703125 39.890625 
Q 22.75 39.890625 18.8125 39.015625 
Q 14.890625 38.140625 10.796875 36.28125 
z
" id="DejaVuSans-35"/>
      </defs>
      <g transform="translate(345.602434 524.258437)scale(0.1 -0.1)">
       <use xlink:href="#DejaVuSans-35"/>
       <use x="63.623047" xlink:href="#DejaVuSans-30"/>
      </g>
     </g>
    </g>
    <g id="xtick_3">
     <g id="line2d_3">
      <g>
       <use style="stroke:#000000;stroke-width:0.8;" x="594.679157" xlink:href="#ma4d0eae6eb" y="509.66"/>
      </g>
     </g>
     <g id="text_3">
      <!-- 100 -->
      <defs>
       <path d="M 12.40625 8.296875 
L 28.515625 8.296875 
L 28.515625 63.921875 
L 10.984375 60.40625 
L 10.984375 69.390625 
L 28.421875 72.90625 
L 38.28125 72.90625 
L 38.28125 8.296875 
L 54.390625 8.296875 
L 54.390625 0 
L 12.40625 0 
z
" id="DejaVuSans-31"/>
      </defs>
      <g transform="translate(585.135407 524.258437)scale(0.1 -0.1)">
       <use xlink:href="#DejaVuSans-31"/>
       <use x="63.623047" xlink:href="#DejaVuSans-30"/>
       <use x="127.246094" xlink:href="#DejaVuSans-30"/>
      </g>
     </g>
    </g>
    <g id="xtick_4">
     <g id="line2d_4">
      <g>
       <use style="stroke:#000000;stroke-width:0.8;" x="837.393381" xlink:href="#ma4d0eae6eb" y="509.66"/>
      </g>
     </g>
     <g id="text_4">
      <!-- 150 -->
      <g transform="translate(827.849631 524.258437)scale(0.1 -0.1)">
       <use xlink:href="#DejaVuSans-31"/>
       <use x="63.623047" xlink:href="#DejaVuSans-35"/>
       <use x="127.246094" xlink:href="#DejaVuSans-30"/>
      </g>
     </g>
    </g>
    <g id="xtick_5">
     <g id="line2d_5">
      <g>
       <use style="stroke:#000000;stroke-width:0.8;" x="1080.107605" xlink:href="#ma4d0eae6eb" y="509.66"/>
      </g>
     </g>
     <g id="text_5">
      <!-- 200 -->
      <defs>
       <path d="M 19.1875 8.296875 
L 53.609375 8.296875 
L 53.609375 0 
L 7.328125 0 
L 7.328125 8.296875 
Q 12.9375 14.109375 22.625 23.890625 
Q 32.328125 33.6875 34.8125 36.53125 
Q 39.546875 41.84375 41.421875 45.53125 
Q 43.3125 49.21875 43.3125 52.78125 
Q 43.3125 58.59375 39.234375 62.25 
Q 35.15625 65.921875 28.609375 65.921875 
Q 23.96875 65.921875 18.8125 64.3125 
Q 13.671875 62.703125 7.8125 59.421875 
L 7.8125 69.390625 
Q 13.765625 71.78125 18.9375 73 
Q 24.125 74.21875 28.421875 74.21875 
Q 39.75 74.21875 46.484375 68.546875 
Q 53.21875 62.890625 53.21875 53.421875 
Q 53.21875 48.921875 51.53125 44.890625 
Q 49.859375 40.875 45.40625 35.40625 
Q 44.1875 33.984375 37.640625 27.21875 
Q 31.109375 20.453125 19.1875 8.296875 
z
" id="DejaVuSans-32"/>
      </defs>
      <g transform="translate(1070.563855 524.258437)scale(0.1 -0.1)">
       <use xlink:href="#DejaVuSans-32"/>
       <use x="63.623047" xlink:href="#DejaVuSans-30"/>
       <use x="127.246094" xlink:href="#DejaVuSans-30"/>
      </g>
     </g>
    </g>
    <g id="text_6">
     <!-- Time -->
     <defs>
      <path d="M -0.296875 72.90625 
L 61.375 72.90625 
L 61.375 64.59375 
L 35.5 64.59375 
L 35.5 0 
L 25.59375 0 
L 25.59375 64.59375 
L -0.296875 64.59375 
z
" id="DejaVuSans-54"/>
      <path d="M 9.421875 54.6875 
L 18.40625 54.6875 
L 18.40625 0 
L 9.421875 0 
z
M 9.421875 75.984375 
L 18.40625 75.984375 
L 18.40625 64.59375 
L 9.421875 64.59375 
z
" id="DejaVuSans-69"/>
      <path d="M 52 44.1875 
Q 55.375 50.25 60.0625 53.125 
Q 64.75 56 71.09375 56 
Q 79.640625 56 84.28125 50.015625 
Q 88.921875 44.046875 88.921875 33.015625 
L 88.921875 0 
L 79.890625 0 
L 79.890625 32.71875 
Q 79.890625 40.578125 77.09375 44.375 
Q 74.3125 48.1875 68.609375 48.1875 
Q 61.625 48.1875 57.5625 43.546875 
Q 53.515625 38.921875 53.515625 30.90625 
L 53.515625 0 
L 44.484375 0 
L 44.484375 32.71875 
Q 44.484375 40.625 41.703125 44.40625 
Q 38.921875 48.1875 33.109375 48.1875 
Q 26.21875 48.1875 22.15625 43.53125 
Q 18.109375 38.875 18.109375 30.90625 
L 18.109375 0 
L 9.078125 0 
L 9.078125 54.6875 
L 18.109375 54.6875 
L 18.109375 46.1875 
Q 21.1875 51.21875 25.484375 53.609375 
Q 29.78125 56 35.6875 56 
Q 41.65625 56 45.828125 52.96875 
Q 50 49.953125 52 44.1875 
z
" id="DejaVuSans-6d"/>
      <path d="M 56.203125 29.59375 
L 56.203125 25.203125 
L 14.890625 25.203125 
Q 15.484375 15.921875 20.484375 11.0625 
Q 25.484375 6.203125 34.421875 6.203125 
Q 39.59375 6.203125 44.453125 7.46875 
Q 49.3125 8.734375 54.109375 11.28125 
L 54.109375 2.78125 
Q 49.265625 0.734375 44.1875 -0.34375 
Q 39.109375 -1.421875 33.890625 -1.421875 
Q 20.796875 -1.421875 13.15625 6.1875 
Q 5.515625 13.8125 5.515625 26.8125 
Q 5.515625 40.234375 12.765625 48.109375 
Q 20.015625 56 32.328125 56 
Q 43.359375 56 49.78125 48.890625 
Q 56.203125 41.796875 56.203125 29.59375 
z
M 47.21875 32.234375 
Q 47.125 39.59375 43.09375 43.984375 
Q 39.0625 48.390625 32.421875 48.390625 
Q 24.90625 48.390625 20.390625 44.140625 
Q 15.875 39.890625 15.1875 32.171875 
z
" id="DejaVuSans-65"/>
     </defs>
     <g transform="translate(604.135937 537.936562)scale(0.1 -0.1)">
      <use xlink:href="#DejaVuSans-54"/>
      <use x="61.037109" xlink:href="#DejaVuSans-69"/>
      <use x="88.820312" xlink:href="#DejaVuSans-6d"/>
      <use x="186.232422" xlink:href="#DejaVuSans-65"/>
     </g>
    </g>
   </g>
   <g id="matplotlib.axis_2">
    <g id="ytick_1">
     <g id="line2d_6">
      <defs>
       <path d="M 0 0 
L -3.5 0 
" id="m6b6c579ffb" style="stroke:#000000;stroke-width:0.8;"/>
      </defs>
      <g>
       <use style="stroke:#000000;stroke-width:0.8;" x="58.523438" xlink:href="#m6b6c579ffb" y="486.98"/>
      </g>
     </g>
     <g id="text_7">
      <!-- 0 -->
      <g transform="translate(45.160938 490.779219)scale(0.1 -0.1)">
       <use xlink:href="#DejaVuSans-30"/>
      </g>
     </g>
    </g>
    <g id="ytick_2">
     <g id="line2d_7">
      <g>
       <use style="stroke:#000000;stroke-width:0.8;" x="58.523438" xlink:href="#m6b6c579ffb" y="399.749231"/>
      </g>
     </g>
     <g id="text_8">
      <!-- 5 -->
      <g transform="translate(45.160938 403.54845)scale(0.1 -0.1)">
       <use xlink:href="#DejaVuSans-35"/>
      </g>
     </g>
    </g>
    <g id="ytick_3">
     <g id="line2d_8">
      <g>
       <use style="stroke:#000000;stroke-width:0.8;" x="58.523438" xlink:href="#m6b6c579ffb" y="312.518462"/>
      </g>
     </g>
     <g id="text_9">
      <!-- 10 -->
      <g transform="translate(38.798437 316.31768)scale(0.1 -0.1)">
       <use xlink:href="#DejaVuSans-31"/>
       <use x="63.623047" xlink:href="#DejaVuSans-30"/>
      </g>
     </g>
    </g>
    <g id="ytick_4">
     <g id="line2d_9">
      <g>
       <use style="stroke:#000000;stroke-width:0.8;" x="58.523438" xlink:href="#m6b6c579ffb" y="225.287692"/>
      </g>
     </g>
     <g id="text_10">
      <!-- 15 -->
      <g transform="translate(38.798437 229.086911)scale(0.1 -0.1)">
       <use xlink:href="#DejaVuSans-31"/>
       <use x="63.623047" xlink:href="#DejaVuSans-35"/>
      </g>
     </g>
    </g>
    <g id="ytick_5">
     <g id="line2d_10">
      <g>
       <use style="stroke:#000000;stroke-width:0.8;" x="58.523438" xlink:href="#m6b6c579ffb" y="138.056923"/>
      </g>
     </g>
     <g id="text_11">
      <!-- 20 -->
      <g transform="translate(38.798437 141.856142)scale(0.1 -0.1)">
       <use xlink:href="#DejaVuSans-32"/>
       <use x="63.623047" xlink:href="#DejaVuSans-30"/>
      </g>
     </g>
    </g>
    <g id="ytick_6">
     <g id="line2d_11">
      <g>
       <use style="stroke:#000000;stroke-width:0.8;" x="58.523438" xlink:href="#m6b6c579ffb" y="50.826154"/>
      </g>
     </g>
     <g id="text_12">
      <!-- 25 -->
      <g transform="translate(38.798437 54.625373)scale(0.1 -0.1)">
       <use xlink:href="#DejaVuSans-32"/>
       <use x="63.623047" xlink:href="#DejaVuSans-35"/>
      </g>
     </g>
    </g>
    <g id="text_13">
     <!-- Refugees -->
     <defs>
      <path d="M 44.390625 34.1875 
Q 47.5625 33.109375 50.5625 29.59375 
Q 53.5625 26.078125 56.59375 19.921875 
L 66.609375 0 
L 56 0 
L 46.6875 18.703125 
Q 43.0625 26.03125 39.671875 28.421875 
Q 36.28125 30.8125 30.421875 30.8125 
L 19.671875 30.8125 
L 19.671875 0 
L 9.8125 0 
L 9.8125 72.90625 
L 32.078125 72.90625 
Q 44.578125 72.90625 50.734375 67.671875 
Q 56.890625 62.453125 56.890625 51.90625 
Q 56.890625 45.015625 53.6875 40.46875 
Q 50.484375 35.9375 44.390625 34.1875 
z
M 19.671875 64.796875 
L 19.671875 38.921875 
L 32.078125 38.921875 
Q 39.203125 38.921875 42.84375 42.21875 
Q 46.484375 45.515625 46.484375 51.90625 
Q 46.484375 58.296875 42.84375 61.546875 
Q 39.203125 64.796875 32.078125 64.796875 
z
" id="DejaVuSans-52"/>
      <path d="M 37.109375 75.984375 
L 37.109375 68.5 
L 28.515625 68.5 
Q 23.6875 68.5 21.796875 66.546875 
Q 19.921875 64.59375 19.921875 59.515625 
L 19.921875 54.6875 
L 34.71875 54.6875 
L 34.71875 47.703125 
L 19.921875 47.703125 
L 19.921875 0 
L 10.890625 0 
L 10.890625 47.703125 
L 2.296875 47.703125 
L 2.296875 54.6875 
L 10.890625 54.6875 
L 10.890625 58.5 
Q 10.890625 67.625 15.140625 71.796875 
Q 19.390625 75.984375 28.609375 75.984375 
z
" id="DejaVuSans-66"/>
      <path d="M 8.5 21.578125 
L 8.5 54.6875 
L 17.484375 54.6875 
L 17.484375 21.921875 
Q 17.484375 14.15625 20.5 10.265625 
Q 23.53125 6.390625 29.59375 6.390625 
Q 36.859375 6.390625 41.078125 11.03125 
Q 45.3125 15.671875 45.3125 23.6875 
L 45.3125 54.6875 
L 54.296875 54.6875 
L 54.296875 0 
L 45.3125 0 
L 45.3125 8.40625 
Q 42.046875 3.421875 37.71875 1 
Q 33.40625 -1.421875 27.6875 -1.421875 
Q 18.265625 -1.421875 13.375 4.4375 
Q 8.5 10.296875 8.5 21.578125 
z
M 31.109375 56 
z
" id="DejaVuSans-75"/>
      <path d="M 45.40625 27.984375 
Q 45.40625 37.75 41.375 43.109375 
Q 37.359375 48.484375 30.078125 48.484375 
Q 22.859375 48.484375 18.828125 43.109375 
Q 14.796875 37.75 14.796875 27.984375 
Q 14.796875 18.265625 18.828125 12.890625 
Q 22.859375 7.515625 30.078125 7.515625 
Q 37.359375 7.515625 41.375 12.890625 
Q 45.40625 18.265625 45.40625 27.984375 
z
M 54.390625 6.78125 
Q 54.390625 -7.171875 48.1875 -13.984375 
Q 42 -20.796875 29.203125 -20.796875 
Q 24.46875 -20.796875 20.265625 -20.09375 
Q 16.0625 -19.390625 12.109375 -17.921875 
L 12.109375 -9.1875 
Q 16.0625 -11.328125 19.921875 -12.34375 
Q 23.78125 -13.375 27.78125 -13.375 
Q 36.625 -13.375 41.015625 -8.765625 
Q 45.40625 -4.15625 45.40625 5.171875 
L 45.40625 9.625 
Q 42.625 4.78125 38.28125 2.390625 
Q 33.9375 0 27.875 0 
Q 17.828125 0 11.671875 7.65625 
Q 5.515625 15.328125 5.515625 27.984375 
Q 5.515625 40.671875 11.671875 48.328125 
Q 17.828125 56 27.875 56 
Q 33.9375 56 38.28125 53.609375 
Q 42.625 51.21875 45.40625 46.390625 
L 45.40625 54.6875 
L 54.390625 54.6875 
z
" id="DejaVuSans-67"/>
      <path d="M 44.28125 53.078125 
L 44.28125 44.578125 
Q 40.484375 46.53125 36.375 47.5 
Q 32.28125 48.484375 27.875 48.484375 
Q 21.1875 48.484375 17.84375 46.4375 
Q 14.5 44.390625 14.5 40.28125 
Q 14.5 37.15625 16.890625 35.375 
Q 19.28125 33.59375 26.515625 31.984375 
L 29.59375 31.296875 
Q 39.15625 29.25 43.1875 25.515625 
Q 47.21875 21.78125 47.21875 15.09375 
Q 47.21875 7.46875 41.1875 3.015625 
Q 35.15625 -1.421875 24.609375 -1.421875 
Q 20.21875 -1.421875 15.453125 -0.5625 
Q 10.6875 0.296875 5.421875 2 
L 5.421875 11.28125 
Q 10.40625 8.6875 15.234375 7.390625 
Q 20.0625 6.109375 24.8125 6.109375 
Q 31.15625 6.109375 34.5625 8.28125 
Q 37.984375 10.453125 37.984375 14.40625 
Q 37.984375 18.0625 35.515625 20.015625 
Q 33.0625 21.96875 24.703125 23.78125 
L 21.578125 24.515625 
Q 13.234375 26.265625 9.515625 29.90625 
Q 5.8125 33.546875 5.8125 39.890625 
Q 5.8125 47.609375 11.28125 51.796875 
Q 16.75 56 26.8125 56 
Q 31.78125 56 36.171875 55.265625 
Q 40.578125 54.546875 44.28125 53.078125 
z
" id="DejaVuSans-73"/>
     </defs>
     <g style="fill:#ff7f0e;" transform="translate(32.71875 283.588594)rotate(-90)scale(0.1 -0.1)">
      <use xlink:href="#DejaVuSans-52"/>
      <use x="69.419922" xlink:href="#DejaVuSans-65"/>
      <use x="130.943359" xlink:href="#DejaVuSans-66"/>
      <use x="166.148438" xlink:href="#DejaVuSans-75"/>
      <use x="229.527344" xlink:href="#DejaVuSans-67"/>
      <use x="293.003906" xlink:href="#DejaVuSans-65"/>
      <use x="354.527344" xlink:href="#DejaVuSans-65"/>
      <use x="416.050781" xlink:href="#DejaVuSans-73"/>
     </g>
    </g>
   </g>
   <g id="line2d_12">
    <path clip-path="url(#p4d6de33eaa)" d="M 109.25071 290.90169 
L 114.104995 370.365299 
L 118.959279 440.714456 
L 123.813564 486.98 
L 128.667848 451.795372 
L 133.522133 467.968966 
L 138.376417 290.90169 
L 143.230702 370.365299 
L 148.084986 440.714456 
L 152.93927 486.98 
L 157.793555 451.795372 
L 162.647839 467.968966 
L 167.502124 290.90169 
L 172.356408 370.365299 
L 177.210693 440.714456 
L 182.064977 486.98 
L 186.919262 451.795372 
L 191.773546 467.968966 
L 196.627831 290.90169 
L 201.482115 370.365299 
L 206.3364 440.714456 
L 211.190684 486.98 
L 216.044969 451.795372 
L 220.899253 467.968966 
L 225.753538 290.90169 
L 230.607822 370.365299 
L 235.462106 440.714456 
L 240.316391 486.98 
L 245.170675 451.795372 
L 250.02496 467.968966 
L 254.879244 290.90169 
L 259.733529 370.365299 
L 264.587813 440.714456 
L 269.442098 486.98 
L 274.296382 451.795372 
L 279.150667 467.968966 
L 284.004951 290.90169 
L 288.859236 370.365299 
L 293.71352 440.714456 
L 298.567805 486.98 
L 303.422089 451.795372 
L 308.276374 467.968966 
L 313.130658 290.90169 
L 317.984943 370.365299 
L 322.839227 440.714456 
L 327.693511 486.98 
L 332.547796 451.795372 
L 337.40208 467.968966 
L 342.256365 290.90169 
L 347.110649 370.365299 
L 351.964934 440.714456 
L 356.819218 486.98 
L 361.673503 451.795372 
L 366.527787 467.968966 
L 371.382072 290.90169 
L 376.236356 370.365299 
L 381.090641 440.714456 
L 385.944925 486.98 
L 390.79921 451.795372 
L 395.653494 467.968966 
L 400.507779 290.90169 
L 405.362063 370.365299 
L 410.216347 440.714456 
L 415.070632 486.98 
L 419.924916 451.795372 
L 424.779201 467.968966 
L 429.633485 290.90169 
L 434.48777 370.365299 
L 439.342054 440.714456 
L 444.196339 486.98 
L 449.050623 451.795372 
L 453.904908 467.968966 
L 458.759192 290.90169 
L 463.613477 370.365299 
L 468.467761 440.714456 
L 473.322046 486.98 
L 478.17633 451.795372 
L 483.030615 467.968966 
L 487.884899 290.90169 
L 492.739183 370.365299 
L 497.593468 440.714456 
L 502.447752 486.98 
L 507.302037 451.795372 
L 512.156321 467.968966 
L 517.010606 290.90169 
L 521.86489 370.365299 
L 526.719175 440.714456 
L 531.573459 486.98 
L 536.427744 451.795372 
L 541.282028 467.968966 
L 546.136313 290.90169 
L 550.990597 370.365299 
L 555.844882 440.714456 
L 560.699166 486.98 
L 565.553451 451.795372 
L 570.407735 467.968966 
L 575.262019 290.90169 
L 580.116304 370.365299 
L 584.970588 440.714456 
L 589.824873 486.98 
L 594.679157 451.795372 
L 599.533442 467.968966 
L 604.387726 290.90169 
L 609.242011 370.365299 
L 614.096295 440.714456 
L 618.95058 486.98 
L 623.804864 451.795372 
L 628.659149 467.968966 
L 633.513433 290.90169 
L 638.367718 370.365299 
L 643.222002 440.714456 
L 648.076287 486.98 
L 652.930571 451.795372 
L 657.784856 467.968966 
L 662.63914 60.840602 
L 667.493424 100.511462 
L 672.347709 148.007515 
L 677.201993 247.028683 
L 682.056278 151.214812 
L 686.910562 165.396367 
L 691.764847 290.90169 
L 696.619131 370.365299 
L 701.473416 440.714456 
L 706.3277 486.98 
L 711.181985 451.795372 
L 716.036269 467.968966 
L 720.890554 275.532601 
L 725.744838 352.33789 
L 730.599123 421.160349 
L 735.453407 486.98 
L 740.307692 431.715277 
L 745.161976 447.755794 
L 750.01626 290.90169 
L 754.870545 370.365299 
L 759.724829 440.714456 
L 764.579114 486.98 
L 769.433398 451.795372 
L 774.287683 467.968966 
L 779.141967 280.811805 
L 783.996252 358.530218 
L 788.850536 427.877102 
L 793.704821 486.98 
L 798.559105 438.612701 
L 803.41339 454.698933 
L 808.267674 287.846447 
L 813.121959 366.781618 
L 817.976243 436.827278 
L 822.830528 486.98 
L 827.684812 447.803633 
L 832.539096 463.95077 
L 837.393381 95.875763 
L 842.247665 141.606496 
L 847.10195 192.582776 
L 851.956234 291.060499 
L 856.810519 196.989137 
L 861.664803 211.474069 
L 866.519088 81.669949 
L 871.373372 124.943591 
L 876.227657 174.508739 
L 881.081941 273.206832 
L 885.936226 178.428873 
L 890.79051 192.790817 
L 895.644795 290.90169 
L 900.499079 370.365299 
L 905.353364 440.714456 
L 910.207648 486.98 
L 915.061932 451.795372 
L 919.916217 467.968966 
L 924.770501 290.90169 
L 929.624786 370.365299 
L 934.47907 440.714456 
L 939.333355 486.98 
L 944.187639 451.795372 
L 949.041924 467.968966 
L 953.896208 290.90169 
L 958.750493 370.365299 
L 963.604777 440.714456 
L 968.459062 486.98 
L 973.313346 451.795372 
L 978.167631 467.968966 
L 983.021915 290.90169 
L 987.8762 370.365299 
L 992.730484 440.714456 
L 997.584769 486.98 
L 1002.439053 451.795372 
L 1007.293337 467.968966 
L 1012.147622 290.90169 
L 1017.001906 370.365299 
L 1021.856191 440.714456 
L 1026.710475 486.98 
L 1031.56476 451.795372 
L 1036.419044 467.968966 
L 1041.273329 290.90169 
L 1046.127613 370.365299 
L 1050.981898 440.714456 
L 1055.836182 486.98 
L 1060.690467 451.795372 
L 1065.544751 467.968966 
L 1070.399036 290.90169 
L 1075.25332 370.365299 
L 1080.107605 440.714456 
L 1084.961889 486.98 
L 1089.816173 451.795372 
L 1094.670458 467.968966 
L 1099.524742 290.90169 
L 1104.379027 370.365299 
L 1109.233311 440.714456 
L 1114.087596 486.98 
L 1118.94188 451.795372 
L 1123.796165 467.968966 
L 1123.796165 467.968966 
" style="fill:none;stroke:#008000;stroke-dasharray:5.55,2.4;stroke-dashoffset:0;stroke-width:1.5;"/>
   </g>
   <g id="line2d_13">
    <path clip-path="url(#p4d6de33eaa)" d="M 109.25071 486.98 
L 114.104995 469.533846 
L 118.959279 469.533846 
L 123.813564 486.98 
L 201.482115 486.98 
L 206.3364 452.087692 
L 216.044969 486.98 
L 220.899253 486.98 
L 225.753538 469.533846 
L 230.607822 469.533846 
L 235.462106 486.98 
L 240.316391 469.533846 
L 245.170675 486.98 
L 250.02496 417.195385 
L 254.879244 486.98 
L 259.733529 469.533846 
L 264.587813 486.98 
L 269.442098 486.98 
L 274.296382 417.195385 
L 279.150667 452.087692 
L 284.004951 469.533846 
L 288.859236 434.641538 
L 293.71352 469.533846 
L 298.567805 434.641538 
L 303.422089 452.087692 
L 308.276374 452.087692 
L 313.130658 417.195385 
L 317.984943 417.195385 
L 327.693511 382.303077 
L 332.547796 486.98 
L 337.40208 469.533846 
L 347.110649 469.533846 
L 351.964934 434.641538 
L 361.673503 469.533846 
L 366.527787 452.087692 
L 371.382072 469.533846 
L 376.236356 452.087692 
L 381.090641 469.533846 
L 395.653494 469.533846 
L 400.507779 452.087692 
L 405.362063 452.087692 
L 410.216347 486.98 
L 415.070632 417.195385 
L 419.924916 434.641538 
L 424.779201 486.98 
L 429.633485 469.533846 
L 434.48777 469.533846 
L 439.342054 452.087692 
L 444.196339 452.087692 
L 449.050623 469.533846 
L 458.759192 469.533846 
L 463.613477 486.98 
L 473.322046 452.087692 
L 478.17633 452.087692 
L 483.030615 417.195385 
L 487.884899 347.410769 
L 492.739183 452.087692 
L 497.593468 277.626154 
L 502.447752 486.98 
L 507.302037 434.641538 
L 521.86489 486.98 
L 526.719175 434.641538 
L 531.573459 417.195385 
L 546.136313 417.195385 
L 550.990597 434.641538 
L 555.844882 469.533846 
L 560.699166 469.533846 
L 565.553451 399.749231 
L 570.407735 452.087692 
L 575.262019 399.749231 
L 580.116304 486.98 
L 584.970588 452.087692 
L 589.824873 434.641538 
L 594.679157 347.410769 
L 599.533442 382.303077 
L 604.387726 434.641538 
L 614.096295 364.856923 
L 618.95058 417.195385 
L 623.804864 364.856923 
L 633.513433 295.072308 
L 638.367718 295.072308 
L 643.222002 172.949231 
L 648.076287 295.072308 
L 652.930571 190.395385 
L 657.784856 33.38 
L 662.63914 295.072308 
L 667.493424 295.072308 
L 672.347709 277.626154 
L 677.201993 347.410769 
L 682.056278 329.964615 
L 686.910562 417.195385 
L 691.764847 277.626154 
L 696.619131 364.856923 
L 701.473416 382.303077 
L 706.3277 295.072308 
L 711.181985 242.733846 
L 716.036269 382.303077 
L 720.890554 312.518462 
L 725.744838 382.303077 
L 730.599123 347.410769 
L 735.453407 469.533846 
L 740.307692 312.518462 
L 745.161976 364.856923 
L 750.01626 486.98 
L 754.870545 399.749231 
L 759.724829 347.410769 
L 769.433398 312.518462 
L 774.287683 312.518462 
L 779.141967 329.964615 
L 783.996252 295.072308 
L 788.850536 138.056923 
L 793.704821 347.410769 
L 798.559105 312.518462 
L 803.41339 364.856923 
L 808.267674 277.626154 
L 813.121959 277.626154 
L 817.976243 312.518462 
L 827.684812 138.056923 
L 832.539096 120.610769 
L 837.393381 277.626154 
L 842.247665 242.733846 
L 847.10195 260.18 
L 851.956234 120.610769 
L 856.810519 138.056923 
L 861.664803 120.610769 
L 866.519088 417.195385 
L 871.373372 364.856923 
L 876.227657 329.964615 
L 881.081941 486.98 
L 885.936226 417.195385 
L 890.79051 452.087692 
L 900.499079 452.087692 
L 905.353364 486.98 
L 910.207648 469.533846 
L 915.061932 486.98 
L 919.916217 434.641538 
L 924.770501 486.98 
L 929.624786 452.087692 
L 934.47907 382.303077 
L 939.333355 469.533846 
L 944.187639 434.641538 
L 949.041924 486.98 
L 953.896208 452.087692 
L 958.750493 469.533846 
L 963.604777 469.533846 
L 968.459062 434.641538 
L 973.313346 347.410769 
L 978.167631 452.087692 
L 983.021915 417.195385 
L 987.8762 452.087692 
L 992.730484 382.303077 
L 997.584769 329.964615 
L 1002.439053 469.533846 
L 1007.293337 486.98 
L 1012.147622 382.303077 
L 1017.001906 469.533846 
L 1026.710475 469.533846 
L 1031.56476 399.749231 
L 1036.419044 469.533846 
L 1041.273329 469.533846 
L 1046.127613 486.98 
L 1050.981898 399.749231 
L 1055.836182 434.641538 
L 1060.690467 486.98 
L 1065.544751 469.533846 
L 1070.399036 486.98 
L 1123.796165 486.98 
L 1123.796165 486.98 
" style="fill:none;stroke:#ff7f0e;stroke-linecap:square;stroke-width:1.5;"/>
   </g>
   <g id="line2d_14">
    <defs>
     <path d="M 0 3 
C 0.795609 3 1.55874 2.683901 2.12132 2.12132 
C 2.683901 1.55874 3 0.795609 3 0 
C 3 -0.795609 2.683901 -1.55874 2.12132 -2.12132 
C 1.55874 -2.683901 0.795609 -3 0 -3 
C -0.795609 -3 -1.55874 -2.683901 -2.12132 -2.12132 
C -2.683901 -1.55874 -3 -0.795609 -3 0 
C -3 0.795609 -2.683901 1.55874 -2.12132 2.12132 
C -1.55874 2.683901 -0.795609 3 0 3 
z
" id="m77e2974578" style="stroke:#008000;"/>
    </defs>
    <g clip-path="url(#p4d6de33eaa)">
     <use style="fill:#008000;stroke:#008000;" x="109.25071" xlink:href="#m77e2974578" y="290.90169"/>
     <use style="fill:#008000;stroke:#008000;" x="138.376417" xlink:href="#m77e2974578" y="290.90169"/>
     <use style="fill:#008000;stroke:#008000;" x="167.502124" xlink:href="#m77e2974578" y="290.90169"/>
     <use style="fill:#008000;stroke:#008000;" x="196.627831" xlink:href="#m77e2974578" y="290.90169"/>
     <use style="fill:#008000;stroke:#008000;" x="225.753538" xlink:href="#m77e2974578" y="290.90169"/>
     <use style="fill:#008000;stroke:#008000;" x="254.879244" xlink:href="#m77e2974578" y="290.90169"/>
     <use style="fill:#008000;stroke:#008000;" x="284.004951" xlink:href="#m77e2974578" y="290.90169"/>
     <use style="fill:#008000;stroke:#008000;" x="313.130658" xlink:href="#m77e2974578" y="290.90169"/>
     <use style="fill:#008000;stroke:#008000;" x="342.256365" xlink:href="#m77e2974578" y="290.90169"/>
     <use style="fill:#008000;stroke:#008000;" x="371.382072" xlink:href="#m77e2974578" y="290.90169"/>
     <use style="fill:#008000;stroke:#008000;" x="400.507779" xlink:href="#m77e2974578" y="290.90169"/>
     <use style="fill:#008000;stroke:#008000;" x="429.633485" xlink:href="#m77e2974578" y="290.90169"/>
     <use style="fill:#008000;stroke:#008000;" x="458.759192" xlink:href="#m77e2974578" y="290.90169"/>
     <use style="fill:#008000;stroke:#008000;" x="487.884899" xlink:href="#m77e2974578" y="290.90169"/>
     <use style="fill:#008000;stroke:#008000;" x="517.010606" xlink:href="#m77e2974578" y="290.90169"/>
     <use style="fill:#008000;stroke:#008000;" x="546.136313" xlink:href="#m77e2974578" y="290.90169"/>
     <use style="fill:#008000;stroke:#008000;" x="575.262019" xlink:href="#m77e2974578" y="290.90169"/>
     <use style="fill:#008000;stroke:#008000;" x="604.387726" xlink:href="#m77e2974578" y="290.90169"/>
     <use style="fill:#008000;stroke:#008000;" x="633.513433" xlink:href="#m77e2974578" y="290.90169"/>
     <use style="fill:#008000;stroke:#008000;" x="662.63914" xlink:href="#m77e2974578" y="60.840602"/>
     <use style="fill:#008000;stroke:#008000;" x="691.764847" xlink:href="#m77e2974578" y="290.90169"/>
     <use style="fill:#008000;stroke:#008000;" x="720.890554" xlink:href="#m77e2974578" y="275.532601"/>
     <use style="fill:#008000;stroke:#008000;" x="750.01626" xlink:href="#m77e2974578" y="290.90169"/>
     <use style="fill:#008000;stroke:#008000;" x="779.141967" xlink:href="#m77e2974578" y="280.811805"/>
     <use style="fill:#008000;stroke:#008000;" x="808.267674" xlink:href="#m77e2974578" y="287.846447"/>
     <use style="fill:#008000;stroke:#008000;" x="837.393381" xlink:href="#m77e2974578" y="95.875763"/>
     <use style="fill:#008000;stroke:#008000;" x="866.519088" xlink:href="#m77e2974578" y="81.669949"/>
     <use style="fill:#008000;stroke:#008000;" x="895.644795" xlink:href="#m77e2974578" y="290.90169"/>
     <use style="fill:#008000;stroke:#008000;" x="924.770501" xlink:href="#m77e2974578" y="290.90169"/>
     <use style="fill:#008000;stroke:#008000;" x="953.896208" xlink:href="#m77e2974578" y="290.90169"/>
     <use style="fill:#008000;stroke:#008000;" x="983.021915" xlink:href="#m77e2974578" y="290.90169"/>
     <use style="fill:#008000;stroke:#008000;" x="1012.147622" xlink:href="#m77e2974578" y="290.90169"/>
     <use style="fill:#008000;stroke:#008000;" x="1041.273329" xlink:href="#m77e2974578" y="290.90169"/>
     <use style="fill:#008000;stroke:#008000;" x="1070.399036" xlink:href="#m77e2974578" y="290.90169"/>
     <use style="fill:#008000;stroke:#008000;" x="1099.524742" xlink:href="#m77e2974578" y="290.90169"/>
    </g>
   </g>
   <g id="patch_3">
    <path d="M 58.523438 509.66 
L 58.523438 10.7 
" style="fill:none;stroke:#000000;stroke-linecap:square;stroke-linejoin:miter;stroke-width:0.8;"/>
   </g>
   <g id="patch_4">
    <path d="M 1174.523438 509.66 
L 1174.523438 10.7 
" style="fill:none;stroke:#000000;stroke-linecap:square;stroke-linejoin:miter;stroke-width:0.8;"/>
   </g>
   <g id="patch_5">
    <path d="M 58.523438 509.66 
L 1174.523438 509.66 
" style="fill:none;stroke:#000000;stroke-linecap:square;stroke-linejoin:miter;stroke-width:0.8;"/>
   </g>
   <g id="patch_6">
    <path d="M 58.523438 10.7 
L 1174.523438 10.7 
" style="fill:none;stroke:#000000;stroke-linecap:square;stroke-linejoin:miter;stroke-width:0.8;"/>
   </g>
   <g id="legend_1">
    <g id="patch_7">
     <path d="M 65.523438 62.734375 
L 213.298438 62.734375 
Q 215.298438 62.734375 215.298438 60.734375 
L 215.298438 17.7 
Q 215.298438 15.7 213.298438 15.7 
L 65.523438 15.7 
Q 63.523438 15.7 63.523438 17.7 
L 63.523438 60.734375 
Q 63.523438 62.734375 65.523438 62.734375 
z
" style="fill:#ffffff;opacity:0.8;stroke:#cccccc;stroke-linejoin:miter;"/>
    </g>
    <g id="line2d_15">
     <path d="M 67.523438 23.798437 
L 87.523438 23.798437 
" style="fill:none;stroke:#008000;stroke-dasharray:5.55,2.4;stroke-dashoffset:0;stroke-width:1.5;"/>
    </g>
    <g id="line2d_16"/>
    <g id="text_14">
     <!-- Predicted -->
     <defs>
      <path d="M 19.671875 64.796875 
L 19.671875 37.40625 
L 32.078125 37.40625 
Q 38.96875 37.40625 42.71875 40.96875 
Q 46.484375 44.53125 46.484375 51.125 
Q 46.484375 57.671875 42.71875 61.234375 
Q 38.96875 64.796875 32.078125 64.796875 
z
M 9.8125 72.90625 
L 32.078125 72.90625 
Q 44.34375 72.90625 50.609375 67.359375 
Q 56.890625 61.8125 56.890625 51.125 
Q 56.890625 40.328125 50.609375 34.8125 
Q 44.34375 29.296875 32.078125 29.296875 
L 19.671875 29.296875 
L 19.671875 0 
L 9.8125 0 
z
" id="DejaVuSans-50"/>
      <path d="M 41.109375 46.296875 
Q 39.59375 47.171875 37.8125 47.578125 
Q 36.03125 48 33.890625 48 
Q 26.265625 48 22.1875 43.046875 
Q 18.109375 38.09375 18.109375 28.8125 
L 18.109375 0 
L 9.078125 0 
L 9.078125 54.6875 
L 18.109375 54.6875 
L 18.109375 46.1875 
Q 20.953125 51.171875 25.484375 53.578125 
Q 30.03125 56 36.53125 56 
Q 37.453125 56 38.578125 55.875 
Q 39.703125 55.765625 41.0625 55.515625 
z
" id="DejaVuSans-72"/>
      <path d="M 45.40625 46.390625 
L 45.40625 75.984375 
L 54.390625 75.984375 
L 54.390625 0 
L 45.40625 0 
L 45.40625 8.203125 
Q 42.578125 3.328125 38.25 0.953125 
Q 33.9375 -1.421875 27.875 -1.421875 
Q 17.96875 -1.421875 11.734375 6.484375 
Q 5.515625 14.40625 5.515625 27.296875 
Q 5.515625 40.1875 11.734375 48.09375 
Q 17.96875 56 27.875 56 
Q 33.9375 56 38.25 53.625 
Q 42.578125 51.265625 45.40625 46.390625 
z
M 14.796875 27.296875 
Q 14.796875 17.390625 18.875 11.75 
Q 22.953125 6.109375 30.078125 6.109375 
Q 37.203125 6.109375 41.296875 11.75 
Q 45.40625 17.390625 45.40625 27.296875 
Q 45.40625 37.203125 41.296875 42.84375 
Q 37.203125 48.484375 30.078125 48.484375 
Q 22.953125 48.484375 18.875 42.84375 
Q 14.796875 37.203125 14.796875 27.296875 
z
" id="DejaVuSans-64"/>
      <path d="M 48.78125 52.59375 
L 48.78125 44.1875 
Q 44.96875 46.296875 41.140625 47.34375 
Q 37.3125 48.390625 33.40625 48.390625 
Q 24.65625 48.390625 19.8125 42.84375 
Q 14.984375 37.3125 14.984375 27.296875 
Q 14.984375 17.28125 19.8125 11.734375 
Q 24.65625 6.203125 33.40625 6.203125 
Q 37.3125 6.203125 41.140625 7.25 
Q 44.96875 8.296875 48.78125 10.40625 
L 48.78125 2.09375 
Q 45.015625 0.34375 40.984375 -0.53125 
Q 36.96875 -1.421875 32.421875 -1.421875 
Q 20.0625 -1.421875 12.78125 6.34375 
Q 5.515625 14.109375 5.515625 27.296875 
Q 5.515625 40.671875 12.859375 48.328125 
Q 20.21875 56 33.015625 56 
Q 37.15625 56 41.109375 55.140625 
Q 45.0625 54.296875 48.78125 52.59375 
z
" id="DejaVuSans-63"/>
      <path d="M 18.3125 70.21875 
L 18.3125 54.6875 
L 36.8125 54.6875 
L 36.8125 47.703125 
L 18.3125 47.703125 
L 18.3125 18.015625 
Q 18.3125 11.328125 20.140625 9.421875 
Q 21.96875 7.515625 27.59375 7.515625 
L 36.8125 7.515625 
L 36.8125 0 
L 27.59375 0 
Q 17.1875 0 13.234375 3.875 
Q 9.28125 7.765625 9.28125 18.015625 
L 9.28125 47.703125 
L 2.6875 47.703125 
L 2.6875 54.6875 
L 9.28125 54.6875 
L 9.28125 70.21875 
z
" id="DejaVuSans-74"/>
     </defs>
     <g transform="translate(95.523438 27.298437)scale(0.1 -0.1)">
      <use xlink:href="#DejaVuSans-50"/>
      <use x="60.287109" xlink:href="#DejaVuSans-72"/>
      <use x="101.369141" xlink:href="#DejaVuSans-65"/>
      <use x="162.892578" xlink:href="#DejaVuSans-64"/>
      <use x="226.369141" xlink:href="#DejaVuSans-69"/>
      <use x="254.152344" xlink:href="#DejaVuSans-63"/>
      <use x="309.132812" xlink:href="#DejaVuSans-74"/>
      <use x="348.341797" xlink:href="#DejaVuSans-65"/>
      <use x="409.865234" xlink:href="#DejaVuSans-64"/>
     </g>
    </g>
    <g id="line2d_17">
     <path d="M 67.523438 38.476562 
L 87.523438 38.476562 
" style="fill:none;stroke:#ff7f0e;stroke-linecap:square;stroke-width:1.5;"/>
    </g>
    <g id="line2d_18"/>
    <g id="text_15">
     <!-- Real Data -->
     <defs>
      <path d="M 34.28125 27.484375 
Q 23.390625 27.484375 19.1875 25 
Q 14.984375 22.515625 14.984375 16.5 
Q 14.984375 11.71875 18.140625 8.90625 
Q 21.296875 6.109375 26.703125 6.109375 
Q 34.1875 6.109375 38.703125 11.40625 
Q 43.21875 16.703125 43.21875 25.484375 
L 43.21875 27.484375 
z
M 52.203125 31.203125 
L 52.203125 0 
L 43.21875 0 
L 43.21875 8.296875 
Q 40.140625 3.328125 35.546875 0.953125 
Q 30.953125 -1.421875 24.3125 -1.421875 
Q 15.921875 -1.421875 10.953125 3.296875 
Q 6 8.015625 6 15.921875 
Q 6 25.140625 12.171875 29.828125 
Q 18.359375 34.515625 30.609375 34.515625 
L 43.21875 34.515625 
L 43.21875 35.40625 
Q 43.21875 41.609375 39.140625 45 
Q 35.0625 48.390625 27.6875 48.390625 
Q 23 48.390625 18.546875 47.265625 
Q 14.109375 46.140625 10.015625 43.890625 
L 10.015625 52.203125 
Q 14.9375 54.109375 19.578125 55.046875 
Q 24.21875 56 28.609375 56 
Q 40.484375 56 46.34375 49.84375 
Q 52.203125 43.703125 52.203125 31.203125 
z
" id="DejaVuSans-61"/>
      <path d="M 9.421875 75.984375 
L 18.40625 75.984375 
L 18.40625 0 
L 9.421875 0 
z
" id="DejaVuSans-6c"/>
      <path id="DejaVuSans-20"/>
      <path d="M 19.671875 64.796875 
L 19.671875 8.109375 
L 31.59375 8.109375 
Q 46.6875 8.109375 53.6875 14.9375 
Q 60.6875 21.78125 60.6875 36.53125 
Q 60.6875 51.171875 53.6875 57.984375 
Q 46.6875 64.796875 31.59375 64.796875 
z
M 9.8125 72.90625 
L 30.078125 72.90625 
Q 51.265625 72.90625 61.171875 64.09375 
Q 71.09375 55.28125 71.09375 36.53125 
Q 71.09375 17.671875 61.125 8.828125 
Q 51.171875 0 30.078125 0 
L 9.8125 0 
z
" id="DejaVuSans-44"/>
     </defs>
     <g transform="translate(95.523438 41.976562)scale(0.1 -0.1)">
      <use xlink:href="#DejaVuSans-52"/>
      <use x="69.419922" xlink:href="#DejaVuSans-65"/>
      <use x="130.943359" xlink:href="#DejaVuSans-61"/>
      <use x="192.222656" xlink:href="#DejaVuSans-6c"/>
      <use x="220.005859" xlink:href="#DejaVuSans-20"/>
      <use x="251.792969" xlink:href="#DejaVuSans-44"/>
      <use x="328.794922" xlink:href="#DejaVuSans-61"/>
      <use x="390.074219" xlink:href="#DejaVuSans-74"/>
      <use x="429.283203" xlink:href="#DejaVuSans-61"/>
     </g>
    </g>
    <g id="line2d_19"/>
    <g id="line2d_20">
     <g>
      <use style="fill:#008000;stroke:#008000;" x="77.523438" xlink:href="#m77e2974578" y="53.154688"/>
     </g>
    </g>
    <g id="text_16">
     <!-- Start Point for Forecast -->
     <defs>
      <path d="M 53.515625 70.515625 
L 53.515625 60.890625 
Q 47.90625 63.578125 42.921875 64.890625 
Q 37.9375 66.21875 33.296875 66.21875 
Q 25.25 66.21875 20.875 63.09375 
Q 16.5 59.96875 16.5 54.203125 
Q 16.5 49.359375 19.40625 46.890625 
Q 22.3125 44.4375 30.421875 42.921875 
L 36.375 41.703125 
Q 47.40625 39.59375 52.65625 34.296875 
Q 57.90625 29 57.90625 20.125 
Q 57.90625 9.515625 50.796875 4.046875 
Q 43.703125 -1.421875 29.984375 -1.421875 
Q 24.8125 -1.421875 18.96875 -0.25 
Q 13.140625 0.921875 6.890625 3.21875 
L 6.890625 13.375 
Q 12.890625 10.015625 18.65625 8.296875 
Q 24.421875 6.59375 29.984375 6.59375 
Q 38.421875 6.59375 43.015625 9.90625 
Q 47.609375 13.234375 47.609375 19.390625 
Q 47.609375 24.75 44.3125 27.78125 
Q 41.015625 30.8125 33.5 32.328125 
L 27.484375 33.5 
Q 16.453125 35.6875 11.515625 40.375 
Q 6.59375 45.0625 6.59375 53.421875 
Q 6.59375 63.09375 13.40625 68.65625 
Q 20.21875 74.21875 32.171875 74.21875 
Q 37.3125 74.21875 42.625 73.28125 
Q 47.953125 72.359375 53.515625 70.515625 
z
" id="DejaVuSans-53"/>
      <path d="M 30.609375 48.390625 
Q 23.390625 48.390625 19.1875 42.75 
Q 14.984375 37.109375 14.984375 27.296875 
Q 14.984375 17.484375 19.15625 11.84375 
Q 23.34375 6.203125 30.609375 6.203125 
Q 37.796875 6.203125 41.984375 11.859375 
Q 46.1875 17.53125 46.1875 27.296875 
Q 46.1875 37.015625 41.984375 42.703125 
Q 37.796875 48.390625 30.609375 48.390625 
z
M 30.609375 56 
Q 42.328125 56 49.015625 48.375 
Q 55.71875 40.765625 55.71875 27.296875 
Q 55.71875 13.875 49.015625 6.21875 
Q 42.328125 -1.421875 30.609375 -1.421875 
Q 18.84375 -1.421875 12.171875 6.21875 
Q 5.515625 13.875 5.515625 27.296875 
Q 5.515625 40.765625 12.171875 48.375 
Q 18.84375 56 30.609375 56 
z
" id="DejaVuSans-6f"/>
      <path d="M 54.890625 33.015625 
L 54.890625 0 
L 45.90625 0 
L 45.90625 32.71875 
Q 45.90625 40.484375 42.875 44.328125 
Q 39.84375 48.1875 33.796875 48.1875 
Q 26.515625 48.1875 22.3125 43.546875 
Q 18.109375 38.921875 18.109375 30.90625 
L 18.109375 0 
L 9.078125 0 
L 9.078125 54.6875 
L 18.109375 54.6875 
L 18.109375 46.1875 
Q 21.34375 51.125 25.703125 53.5625 
Q 30.078125 56 35.796875 56 
Q 45.21875 56 50.046875 50.171875 
Q 54.890625 44.34375 54.890625 33.015625 
z
" id="DejaVuSans-6e"/>
      <path d="M 9.8125 72.90625 
L 51.703125 72.90625 
L 51.703125 64.59375 
L 19.671875 64.59375 
L 19.671875 43.109375 
L 48.578125 43.109375 
L 48.578125 34.8125 
L 19.671875 34.8125 
L 19.671875 0 
L 9.8125 0 
z
" id="DejaVuSans-46"/>
     </defs>
     <g transform="translate(95.523438 56.654688)scale(0.1 -0.1)">
      <use xlink:href="#DejaVuSans-53"/>
      <use x="63.476562" xlink:href="#DejaVuSans-74"/>
      <use x="102.685547" xlink:href="#DejaVuSans-61"/>
      <use x="163.964844" xlink:href="#DejaVuSans-72"/>
      <use x="205.078125" xlink:href="#DejaVuSans-74"/>
      <use x="244.287109" xlink:href="#DejaVuSans-20"/>
      <use x="276.074219" xlink:href="#DejaVuSans-50"/>
      <use x="336.330078" xlink:href="#DejaVuSans-6f"/>
      <use x="397.511719" xlink:href="#DejaVuSans-69"/>
      <use x="425.294922" xlink:href="#DejaVuSans-6e"/>
      <use x="488.673828" xlink:href="#DejaVuSans-74"/>
      <use x="527.882812" xlink:href="#DejaVuSans-20"/>
      <use x="559.669922" xlink:href="#DejaVuSans-66"/>
      <use x="594.875" xlink:href="#DejaVuSans-6f"/>
      <use x="656.056641" xlink:href="#DejaVuSans-72"/>
      <use x="697.169922" xlink:href="#DejaVuSans-20"/>
      <use x="728.957031" xlink:href="#DejaVuSans-46"/>
      <use x="786.429688" xlink:href="#DejaVuSans-6f"/>
      <use x="847.611328" xlink:href="#DejaVuSans-72"/>
      <use x="888.693359" xlink:href="#DejaVuSans-65"/>
      <use x="950.216797" xlink:href="#DejaVuSans-63"/>
      <use x="1005.197266" xlink:href="#DejaVuSans-61"/>
      <use x="1066.476562" xlink:href="#DejaVuSans-73"/>
      <use x="1118.576172" xlink:href="#DejaVuSans-74"/>
     </g>
    </g>
   </g>
  </g>
  <g id="axes_2">
   <g id="patch_8">
    <path d="M 58.523438 645.74 
L 1175.963438 645.74 
L 1175.963438 516.14 
L 58.523438 516.14 
z
" style="fill:none;"/>
   </g>
   <g id="matplotlib.axis_3">
    <g id="xtick_6">
     <g id="line2d_21">
      <g>
       <use style="stroke:#000000;stroke-width:0.8;" x="109.316165" xlink:href="#ma4d0eae6eb" y="645.74"/>
      </g>
     </g>
     <g id="text_17">
      <!-- 0 -->
      <g transform="translate(106.134915 660.338437)scale(0.1 -0.1)">
       <use xlink:href="#DejaVuSans-30"/>
      </g>
     </g>
    </g>
    <g id="xtick_7">
     <g id="line2d_22">
      <g>
       <use style="stroke:#000000;stroke-width:0.8;" x="233.808143" xlink:href="#ma4d0eae6eb" y="645.74"/>
      </g>
     </g>
     <g id="text_18">
      <!-- 25 -->
      <g transform="translate(227.445643 660.338437)scale(0.1 -0.1)">
       <use xlink:href="#DejaVuSans-32"/>
       <use x="63.623047" xlink:href="#DejaVuSans-35"/>
      </g>
     </g>
    </g>
    <g id="xtick_8">
     <g id="line2d_23">
      <g>
       <use style="stroke:#000000;stroke-width:0.8;" x="358.300122" xlink:href="#ma4d0eae6eb" y="645.74"/>
      </g>
     </g>
     <g id="text_19">
      <!-- 50 -->
      <g transform="translate(351.937622 660.338437)scale(0.1 -0.1)">
       <use xlink:href="#DejaVuSans-35"/>
       <use x="63.623047" xlink:href="#DejaVuSans-30"/>
      </g>
     </g>
    </g>
    <g id="xtick_9">
     <g id="line2d_24">
      <g>
       <use style="stroke:#000000;stroke-width:0.8;" x="482.792101" xlink:href="#ma4d0eae6eb" y="645.74"/>
      </g>
     </g>
     <g id="text_20">
      <!-- 75 -->
      <defs>
       <path d="M 8.203125 72.90625 
L 55.078125 72.90625 
L 55.078125 68.703125 
L 28.609375 0 
L 18.3125 0 
L 43.21875 64.59375 
L 8.203125 64.59375 
z
" id="DejaVuSans-37"/>
      </defs>
      <g transform="translate(476.429601 660.338437)scale(0.1 -0.1)">
       <use xlink:href="#DejaVuSans-37"/>
       <use x="63.623047" xlink:href="#DejaVuSans-35"/>
      </g>
     </g>
    </g>
    <g id="xtick_10">
     <g id="line2d_25">
      <g>
       <use style="stroke:#000000;stroke-width:0.8;" x="607.284079" xlink:href="#ma4d0eae6eb" y="645.74"/>
      </g>
     </g>
     <g id="text_21">
      <!-- 100 -->
      <g transform="translate(597.740329 660.338437)scale(0.1 -0.1)">
       <use xlink:href="#DejaVuSans-31"/>
       <use x="63.623047" xlink:href="#DejaVuSans-30"/>
       <use x="127.246094" xlink:href="#DejaVuSans-30"/>
      </g>
     </g>
    </g>
    <g id="xtick_11">
     <g id="line2d_26">
      <g>
       <use style="stroke:#000000;stroke-width:0.8;" x="731.776058" xlink:href="#ma4d0eae6eb" y="645.74"/>
      </g>
     </g>
     <g id="text_22">
      <!-- 125 -->
      <g transform="translate(722.232308 660.338437)scale(0.1 -0.1)">
       <use xlink:href="#DejaVuSans-31"/>
       <use x="63.623047" xlink:href="#DejaVuSans-32"/>
       <use x="127.246094" xlink:href="#DejaVuSans-35"/>
      </g>
     </g>
    </g>
    <g id="xtick_12">
     <g id="line2d_27">
      <g>
       <use style="stroke:#000000;stroke-width:0.8;" x="856.268036" xlink:href="#ma4d0eae6eb" y="645.74"/>
      </g>
     </g>
     <g id="text_23">
      <!-- 150 -->
      <g transform="translate(846.724286 660.338437)scale(0.1 -0.1)">
       <use xlink:href="#DejaVuSans-31"/>
       <use x="63.623047" xlink:href="#DejaVuSans-35"/>
       <use x="127.246094" xlink:href="#DejaVuSans-30"/>
      </g>
     </g>
    </g>
    <g id="xtick_13">
     <g id="line2d_28">
      <g>
       <use style="stroke:#000000;stroke-width:0.8;" x="980.760015" xlink:href="#ma4d0eae6eb" y="645.74"/>
      </g>
     </g>
     <g id="text_24">
      <!-- 175 -->
      <g transform="translate(971.216265 660.338437)scale(0.1 -0.1)">
       <use xlink:href="#DejaVuSans-31"/>
       <use x="63.623047" xlink:href="#DejaVuSans-37"/>
       <use x="127.246094" xlink:href="#DejaVuSans-35"/>
      </g>
     </g>
    </g>
    <g id="xtick_14">
     <g id="line2d_29">
      <g>
       <use style="stroke:#000000;stroke-width:0.8;" x="1105.251994" xlink:href="#ma4d0eae6eb" y="645.74"/>
      </g>
     </g>
     <g id="text_25">
      <!-- 200 -->
      <g transform="translate(1095.708244 660.338437)scale(0.1 -0.1)">
       <use xlink:href="#DejaVuSans-32"/>
       <use x="63.623047" xlink:href="#DejaVuSans-30"/>
       <use x="127.246094" xlink:href="#DejaVuSans-30"/>
      </g>
     </g>
    </g>
   </g>
   <g id="matplotlib.axis_4">
    <g id="ytick_7">
     <g id="line2d_30">
      <g>
       <use style="stroke:#000000;stroke-width:0.8;" x="58.523438" xlink:href="#m6b6c579ffb" y="628.067273"/>
      </g>
     </g>
     <g id="text_26">
      <!-- −0.04 -->
      <defs>
       <path d="M 10.59375 35.5 
L 73.1875 35.5 
L 73.1875 27.203125 
L 10.59375 27.203125 
z
" id="DejaVuSans-2212"/>
       <path d="M 10.6875 12.40625 
L 21 12.40625 
L 21 0 
L 10.6875 0 
z
" id="DejaVuSans-2e"/>
       <path d="M 37.796875 64.3125 
L 12.890625 25.390625 
L 37.796875 25.390625 
z
M 35.203125 72.90625 
L 47.609375 72.90625 
L 47.609375 25.390625 
L 58.015625 25.390625 
L 58.015625 17.1875 
L 47.609375 17.1875 
L 47.609375 0 
L 37.796875 0 
L 37.796875 17.1875 
L 4.890625 17.1875 
L 4.890625 26.703125 
z
" id="DejaVuSans-34"/>
      </defs>
      <g transform="translate(20.878125 631.866491)scale(0.1 -0.1)">
       <use xlink:href="#DejaVuSans-2212"/>
       <use x="83.789062" xlink:href="#DejaVuSans-30"/>
       <use x="147.412109" xlink:href="#DejaVuSans-2e"/>
       <use x="179.199219" xlink:href="#DejaVuSans-30"/>
       <use x="242.822266" xlink:href="#DejaVuSans-34"/>
      </g>
     </g>
    </g>
    <g id="ytick_8">
     <g id="line2d_31">
      <g>
       <use style="stroke:#000000;stroke-width:0.8;" x="58.523438" xlink:href="#m6b6c579ffb" y="604.503636"/>
      </g>
     </g>
     <g id="text_27">
      <!-- −0.02 -->
      <g transform="translate(20.878125 608.302855)scale(0.1 -0.1)">
       <use xlink:href="#DejaVuSans-2212"/>
       <use x="83.789062" xlink:href="#DejaVuSans-30"/>
       <use x="147.412109" xlink:href="#DejaVuSans-2e"/>
       <use x="179.199219" xlink:href="#DejaVuSans-30"/>
       <use x="242.822266" xlink:href="#DejaVuSans-32"/>
      </g>
     </g>
    </g>
    <g id="ytick_9">
     <g id="line2d_32">
      <g>
       <use style="stroke:#000000;stroke-width:0.8;" x="58.523438" xlink:href="#m6b6c579ffb" y="580.94"/>
      </g>
     </g>
     <g id="text_28">
      <!-- 0.00 -->
      <g transform="translate(29.257812 584.739219)scale(0.1 -0.1)">
       <use xlink:href="#DejaVuSans-30"/>
       <use x="63.623047" xlink:href="#DejaVuSans-2e"/>
       <use x="95.410156" xlink:href="#DejaVuSans-30"/>
       <use x="159.033203" xlink:href="#DejaVuSans-30"/>
      </g>
     </g>
    </g>
    <g id="ytick_10">
     <g id="line2d_33">
      <g>
       <use style="stroke:#000000;stroke-width:0.8;" x="58.523438" xlink:href="#m6b6c579ffb" y="557.376364"/>
      </g>
     </g>
     <g id="text_29">
      <!-- 0.02 -->
      <g transform="translate(29.257812 561.175582)scale(0.1 -0.1)">
       <use xlink:href="#DejaVuSans-30"/>
       <use x="63.623047" xlink:href="#DejaVuSans-2e"/>
       <use x="95.410156" xlink:href="#DejaVuSans-30"/>
       <use x="159.033203" xlink:href="#DejaVuSans-32"/>
      </g>
     </g>
    </g>
    <g id="ytick_11">
     <g id="line2d_34">
      <g>
       <use style="stroke:#000000;stroke-width:0.8;" x="58.523438" xlink:href="#m6b6c579ffb" y="533.812727"/>
      </g>
     </g>
     <g id="text_30">
      <!-- 0.04 -->
      <g transform="translate(29.257812 537.611946)scale(0.1 -0.1)">
       <use xlink:href="#DejaVuSans-30"/>
       <use x="63.623047" xlink:href="#DejaVuSans-2e"/>
       <use x="95.410156" xlink:href="#DejaVuSans-30"/>
       <use x="159.033203" xlink:href="#DejaVuSans-34"/>
      </g>
     </g>
    </g>
    <g id="text_31">
     <!-- Temperature -->
     <defs>
      <path d="M 18.109375 8.203125 
L 18.109375 -20.796875 
L 9.078125 -20.796875 
L 9.078125 54.6875 
L 18.109375 54.6875 
L 18.109375 46.390625 
Q 20.953125 51.265625 25.265625 53.625 
Q 29.59375 56 35.59375 56 
Q 45.5625 56 51.78125 48.09375 
Q 58.015625 40.1875 58.015625 27.296875 
Q 58.015625 14.40625 51.78125 6.484375 
Q 45.5625 -1.421875 35.59375 -1.421875 
Q 29.59375 -1.421875 25.265625 0.953125 
Q 20.953125 3.328125 18.109375 8.203125 
z
M 48.6875 27.296875 
Q 48.6875 37.203125 44.609375 42.84375 
Q 40.53125 48.484375 33.40625 48.484375 
Q 26.265625 48.484375 22.1875 42.84375 
Q 18.109375 37.203125 18.109375 27.296875 
Q 18.109375 17.390625 22.1875 11.75 
Q 26.265625 6.109375 33.40625 6.109375 
Q 40.53125 6.109375 44.609375 11.75 
Q 48.6875 17.390625 48.6875 27.296875 
z
" id="DejaVuSans-70"/>
     </defs>
     <g style="fill:#0000ff;" transform="translate(14.798437 613.557187)rotate(-90)scale(0.1 -0.1)">
      <use xlink:href="#DejaVuSans-54"/>
      <use x="60.818359" xlink:href="#DejaVuSans-65"/>
      <use x="122.341797" xlink:href="#DejaVuSans-6d"/>
      <use x="219.753906" xlink:href="#DejaVuSans-70"/>
      <use x="283.230469" xlink:href="#DejaVuSans-65"/>
      <use x="344.753906" xlink:href="#DejaVuSans-72"/>
      <use x="385.867188" xlink:href="#DejaVuSans-61"/>
      <use x="447.146484" xlink:href="#DejaVuSans-74"/>
      <use x="486.355469" xlink:href="#DejaVuSans-75"/>
      <use x="549.734375" xlink:href="#DejaVuSans-72"/>
      <use x="590.816406" xlink:href="#DejaVuSans-65"/>
     </g>
    </g>
   </g>
   <g id="line2d_35">
    <path clip-path="url(#paa15e8aeea)" d="M 109.316165 580.94 
L 1125.17071 580.94 
L 1125.17071 580.94 
" style="fill:none;stroke:#ff0000;stroke-linecap:square;stroke-width:1.5;"/>
   </g>
   <g id="line2d_36">
    <path clip-path="url(#paa15e8aeea)" d="M 109.316165 580.94 
L 1125.17071 580.94 
L 1125.17071 580.94 
" style="fill:none;stroke:#008000;stroke-linecap:square;stroke-width:1.5;"/>
   </g>
   <g id="line2d_37">
    <path clip-path="url(#paa15e8aeea)" d="M 109.316165 580.94 
L 1125.17071 580.94 
L 1125.17071 580.94 
" style="fill:none;stroke:#0000ff;stroke-linecap:square;stroke-width:1.5;"/>
   </g>
   <g id="line2d_38"/>
   <g id="patch_9">
    <path d="M 58.523438 645.74 
L 58.523438 516.14 
" style="fill:none;stroke:#000000;stroke-linecap:square;stroke-linejoin:miter;stroke-width:0.8;"/>
   </g>
   <g id="patch_10">
    <path d="M 1175.963438 645.74 
L 1175.963438 516.14 
" style="fill:none;stroke:#000000;stroke-linecap:square;stroke-linejoin:miter;stroke-width:0.8;"/>
   </g>
   <g id="patch_11">
    <path d="M 58.523438 645.74 
L 1175.963438 645.74 
" style="fill:none;stroke:#000000;stroke-linecap:square;stroke-linejoin:miter;stroke-width:0.8;"/>
   </g>
   <g id="patch_12">
    <path d="M 58.523438 516.14 
L 1175.963438 516.14 
" style="fill:none;stroke:#000000;stroke-linecap:square;stroke-linejoin:miter;stroke-width:0.8;"/>
   </g>
   <g id="legend_2">
    <g id="patch_13">
     <path d="M 65.523438 582.8525 
L 156.535937 582.8525 
Q 158.535937 582.8525 158.535937 580.8525 
L 158.535937 523.14 
Q 158.535937 521.14 156.535937 521.14 
L 65.523438 521.14 
Q 63.523438 521.14 63.523438 523.14 
L 63.523438 580.8525 
Q 63.523438 582.8525 65.523438 582.8525 
z
" style="fill:#ffffff;opacity:0.8;stroke:#cccccc;stroke-linejoin:miter;"/>
    </g>
    <g id="line2d_39">
     <path d="M 67.523438 529.238437 
L 87.523438 529.238437 
" style="fill:none;stroke:#ff0000;stroke-linecap:square;stroke-width:1.5;"/>
    </g>
    <g id="line2d_40"/>
    <g id="text_32">
     <!-- Maxmimum -->
     <defs>
      <path d="M 9.8125 72.90625 
L 24.515625 72.90625 
L 43.109375 23.296875 
L 61.8125 72.90625 
L 76.515625 72.90625 
L 76.515625 0 
L 66.890625 0 
L 66.890625 64.015625 
L 48.09375 14.015625 
L 38.1875 14.015625 
L 19.390625 64.015625 
L 19.390625 0 
L 9.8125 0 
z
" id="DejaVuSans-4d"/>
      <path d="M 54.890625 54.6875 
L 35.109375 28.078125 
L 55.90625 0 
L 45.3125 0 
L 29.390625 21.484375 
L 13.484375 0 
L 2.875 0 
L 24.125 28.609375 
L 4.6875 54.6875 
L 15.28125 54.6875 
L 29.78125 35.203125 
L 44.28125 54.6875 
z
" id="DejaVuSans-78"/>
     </defs>
     <g transform="translate(95.523438 532.738437)scale(0.1 -0.1)">
      <use xlink:href="#DejaVuSans-4d"/>
      <use x="86.279297" xlink:href="#DejaVuSans-61"/>
      <use x="147.558594" xlink:href="#DejaVuSans-78"/>
      <use x="206.738281" xlink:href="#DejaVuSans-6d"/>
      <use x="304.150391" xlink:href="#DejaVuSans-69"/>
      <use x="331.933594" xlink:href="#DejaVuSans-6d"/>
      <use x="429.345703" xlink:href="#DejaVuSans-75"/>
      <use x="492.724609" xlink:href="#DejaVuSans-6d"/>
     </g>
    </g>
    <g id="line2d_41">
     <path d="M 67.523438 543.916562 
L 87.523438 543.916562 
" style="fill:none;stroke:#008000;stroke-linecap:square;stroke-width:1.5;"/>
    </g>
    <g id="line2d_42"/>
    <g id="text_33">
     <!-- Average -->
     <defs>
      <path d="M 34.1875 63.1875 
L 20.796875 26.90625 
L 47.609375 26.90625 
z
M 28.609375 72.90625 
L 39.796875 72.90625 
L 67.578125 0 
L 57.328125 0 
L 50.6875 18.703125 
L 17.828125 18.703125 
L 11.1875 0 
L 0.78125 0 
z
" id="DejaVuSans-41"/>
      <path d="M 2.984375 54.6875 
L 12.5 54.6875 
L 29.59375 8.796875 
L 46.6875 54.6875 
L 56.203125 54.6875 
L 35.6875 0 
L 23.484375 0 
z
" id="DejaVuSans-76"/>
     </defs>
     <g transform="translate(95.523438 547.416562)scale(0.1 -0.1)">
      <use xlink:href="#DejaVuSans-41"/>
      <use x="68.330078" xlink:href="#DejaVuSans-76"/>
      <use x="127.509766" xlink:href="#DejaVuSans-65"/>
      <use x="189.033203" xlink:href="#DejaVuSans-72"/>
      <use x="230.146484" xlink:href="#DejaVuSans-61"/>
      <use x="291.425781" xlink:href="#DejaVuSans-67"/>
      <use x="354.902344" xlink:href="#DejaVuSans-65"/>
     </g>
    </g>
    <g id="line2d_43">
     <path d="M 67.523438 558.594687 
L 87.523438 558.594687 
" style="fill:none;stroke:#0000ff;stroke-linecap:square;stroke-width:1.5;"/>
    </g>
    <g id="line2d_44"/>
    <g id="text_34">
     <!-- Minimum -->
     <g transform="translate(95.523438 562.094687)scale(0.1 -0.1)">
      <use xlink:href="#DejaVuSans-4d"/>
      <use x="86.279297" xlink:href="#DejaVuSans-69"/>
      <use x="114.0625" xlink:href="#DejaVuSans-6e"/>
      <use x="177.441406" xlink:href="#DejaVuSans-69"/>
      <use x="205.224609" xlink:href="#DejaVuSans-6d"/>
      <use x="302.636719" xlink:href="#DejaVuSans-75"/>
      <use x="366.015625" xlink:href="#DejaVuSans-6d"/>
     </g>
    </g>
    <g id="line2d_45"/>
    <g id="line2d_46">
     <defs>
      <path d="M 0 3 
C 0.795609 3 1.55874 2.683901 2.12132 2.12132 
C 2.683901 1.55874 3 0.795609 3 0 
C 3 -0.795609 2.683901 -1.55874 2.12132 -2.12132 
C 1.55874 -2.683901 0.795609 -3 0 -3 
C -0.795609 -3 -1.55874 -2.683901 -2.12132 -2.12132 
C -2.683901 -1.55874 -3 -0.795609 -3 0 
C -3 0.795609 -2.683901 1.55874 -2.12132 2.12132 
C -1.55874 2.683901 -0.795609 3 0 3 
z
" id="m1e30c9aa8c" style="stroke:#ff0000;"/>
     </defs>
     <g>
      <use style="fill:#ff0000;stroke:#ff0000;" x="77.523438" xlink:href="#m1e30c9aa8c" y="573.272812"/>
     </g>
    </g>
    <g id="text_35">
     <!-- Disasters -->
     <g transform="translate(95.523438 576.772812)scale(0.1 -0.1)">
      <use xlink:href="#DejaVuSans-44"/>
      <use x="77.001953" xlink:href="#DejaVuSans-69"/>
      <use x="104.785156" xlink:href="#DejaVuSans-73"/>
      <use x="156.884766" xlink:href="#DejaVuSans-61"/>
      <use x="218.164062" xlink:href="#DejaVuSans-73"/>
      <use x="270.263672" xlink:href="#DejaVuSans-74"/>
      <use x="309.472656" xlink:href="#DejaVuSans-65"/>
      <use x="370.996094" xlink:href="#DejaVuSans-72"/>
      <use x="412.109375" xlink:href="#DejaVuSans-73"/>
     </g>
    </g>
   </g>
  </g>
 </g>
 <defs>
  <clipPath id="p4d6de33eaa">
   <rect height="498.96" width="1116" x="58.523438" y="10.7"/>
  </clipPath>
  <clipPath id="paa15e8aeea">
   <rect height="129.6" width="1117.44" x="58.523438" y="516.14"/>
  </clipPath>
 </defs>
</svg>
